<?xml version="1.0" encoding="utf-8"?>
<svg xmlns="http://www.w3.org/2000/svg" xmlns:xlink="http://www.w3.org/1999/xlink" width="600" height="400" viewBox="0 0 2400 1600">
<defs>
  <clipPath id="clip750">
    <rect x="0" y="0" width="2400" height="1600"/>
  </clipPath>
</defs>
<path clip-path="url(#clip750)" d="
M0 1600 L2400 1600 L2400 0 L0 0  Z
  " fill="#ffffff" fill-rule="evenodd" fill-opacity="1"/>
<defs>
  <clipPath id="clip751">
    <rect x="480" y="0" width="1681" height="1600"/>
  </clipPath>
</defs>
<path clip-path="url(#clip750)" d="
M172.015 1486.45 L2352.76 1486.45 L2352.76 123.472 L172.015 123.472  Z
  " fill="#ffffff" fill-rule="evenodd" fill-opacity="1"/>
<defs>
  <clipPath id="clip752">
    <rect x="172" y="123" width="2182" height="1364"/>
  </clipPath>
</defs>
<polyline clip-path="url(#clip752)" style="stroke:#000000; stroke-width:2; stroke-opacity:0.1; fill:none" points="
  233.734,1486.45 233.734,123.472 
  "/>
<polyline clip-path="url(#clip752)" style="stroke:#000000; stroke-width:2; stroke-opacity:0.1; fill:none" points="
  748.06,1486.45 748.06,123.472 
  "/>
<polyline clip-path="url(#clip752)" style="stroke:#000000; stroke-width:2; stroke-opacity:0.1; fill:none" points="
  1262.39,1486.45 1262.39,123.472 
  "/>
<polyline clip-path="url(#clip752)" style="stroke:#000000; stroke-width:2; stroke-opacity:0.1; fill:none" points="
  1776.71,1486.45 1776.71,123.472 
  "/>
<polyline clip-path="url(#clip752)" style="stroke:#000000; stroke-width:2; stroke-opacity:0.1; fill:none" points="
  2291.04,1486.45 2291.04,123.472 
  "/>
<polyline clip-path="url(#clip750)" style="stroke:#000000; stroke-width:4; stroke-opacity:1; fill:none" points="
  172.015,1486.45 2352.76,1486.45 
  "/>
<polyline clip-path="url(#clip750)" style="stroke:#000000; stroke-width:4; stroke-opacity:1; fill:none" points="
  233.734,1486.45 233.734,1470.09 
  "/>
<polyline clip-path="url(#clip750)" style="stroke:#000000; stroke-width:4; stroke-opacity:1; fill:none" points="
  748.06,1486.45 748.06,1470.09 
  "/>
<polyline clip-path="url(#clip750)" style="stroke:#000000; stroke-width:4; stroke-opacity:1; fill:none" points="
  1262.39,1486.45 1262.39,1470.09 
  "/>
<polyline clip-path="url(#clip750)" style="stroke:#000000; stroke-width:4; stroke-opacity:1; fill:none" points="
  1776.71,1486.45 1776.71,1470.09 
  "/>
<polyline clip-path="url(#clip750)" style="stroke:#000000; stroke-width:4; stroke-opacity:1; fill:none" points="
  2291.04,1486.45 2291.04,1470.09 
  "/>
<path clip-path="url(#clip750)" d="M 0 0 M202.635 1530.29 L232.31 1530.29 L232.31 1534.23 L202.635 1534.23 L202.635 1530.29 Z" fill="#000000" fill-rule="evenodd" fill-opacity="1" /><path clip-path="url(#clip750)" d="M 0 0 M255.25 1516.63 L243.445 1535.08 L255.25 1535.08 L255.25 1516.63 M254.023 1512.56 L259.903 1512.56 L259.903 1535.08 L264.833 1535.08 L264.833 1538.97 L259.903 1538.97 L259.903 1547.12 L255.25 1547.12 L255.25 1538.97 L239.648 1538.97 L239.648 1534.46 L254.023 1512.56 Z" fill="#000000" fill-rule="evenodd" fill-opacity="1" /><path clip-path="url(#clip750)" d="M 0 0 M718.002 1530.29 L747.678 1530.29 L747.678 1534.23 L718.002 1534.23 L718.002 1530.29 Z" fill="#000000" fill-rule="evenodd" fill-opacity="1" /><path clip-path="url(#clip750)" d="M 0 0 M761.798 1543.18 L778.117 1543.18 L778.117 1547.12 L756.173 1547.12 L756.173 1543.18 Q758.835 1540.43 763.418 1535.8 Q768.025 1531.15 769.205 1529.81 Q771.451 1527.28 772.33 1525.55 Q773.233 1523.79 773.233 1522.1 Q773.233 1519.34 771.289 1517.61 Q769.367 1515.87 766.266 1515.87 Q764.066 1515.87 761.613 1516.63 Q759.182 1517.4 756.404 1518.95 L756.404 1514.23 Q759.229 1513.09 761.682 1512.51 Q764.136 1511.93 766.173 1511.93 Q771.543 1511.93 774.738 1514.62 Q777.932 1517.31 777.932 1521.8 Q777.932 1523.93 777.122 1525.85 Q776.335 1527.74 774.228 1530.34 Q773.65 1531.01 770.548 1534.23 Q767.446 1537.42 761.798 1543.18 Z" fill="#000000" fill-rule="evenodd" fill-opacity="1" /><path clip-path="url(#clip750)" d="M 0 0 M1262.39 1515.64 Q1258.77 1515.64 1256.95 1519.2 Q1255.14 1522.75 1255.14 1529.87 Q1255.14 1536.98 1256.95 1540.55 Q1258.77 1544.09 1262.39 1544.09 Q1266.02 1544.09 1267.83 1540.55 Q1269.65 1536.98 1269.65 1529.87 Q1269.65 1522.75 1267.83 1519.2 Q1266.02 1515.64 1262.39 1515.64 M1262.39 1511.93 Q1268.2 1511.93 1271.25 1516.54 Q1274.33 1521.12 1274.33 1529.87 Q1274.33 1538.6 1271.25 1543.21 Q1268.2 1547.79 1262.39 1547.79 Q1256.58 1547.79 1253.5 1543.21 Q1250.44 1538.6 1250.44 1529.87 Q1250.44 1521.12 1253.5 1516.54 Q1256.58 1511.93 1262.39 1511.93 Z" fill="#000000" fill-rule="evenodd" fill-opacity="1" /><path clip-path="url(#clip750)" d="M 0 0 M1771.36 1543.18 L1787.68 1543.18 L1787.68 1547.12 L1765.74 1547.12 L1765.74 1543.18 Q1768.4 1540.43 1772.98 1535.8 Q1777.59 1531.15 1778.77 1529.81 Q1781.02 1527.28 1781.9 1525.55 Q1782.8 1523.79 1782.8 1522.1 Q1782.8 1519.34 1780.85 1517.61 Q1778.93 1515.87 1775.83 1515.87 Q1773.63 1515.87 1771.18 1516.63 Q1768.75 1517.4 1765.97 1518.95 L1765.97 1514.23 Q1768.79 1513.09 1771.25 1512.51 Q1773.7 1511.93 1775.74 1511.93 Q1781.11 1511.93 1784.3 1514.62 Q1787.5 1517.31 1787.5 1521.8 Q1787.5 1523.93 1786.69 1525.85 Q1785.9 1527.74 1783.79 1530.34 Q1783.22 1531.01 1780.11 1534.23 Q1777.01 1537.42 1771.36 1543.18 Z" fill="#000000" fill-rule="evenodd" fill-opacity="1" /><path clip-path="url(#clip750)" d="M 0 0 M2294.05 1516.63 L2282.24 1535.08 L2294.05 1535.08 L2294.05 1516.63 M2292.82 1512.56 L2298.7 1512.56 L2298.7 1535.08 L2303.63 1535.08 L2303.63 1538.97 L2298.7 1538.97 L2298.7 1547.12 L2294.05 1547.12 L2294.05 1538.97 L2278.44 1538.97 L2278.44 1534.46 L2292.82 1512.56 Z" fill="#000000" fill-rule="evenodd" fill-opacity="1" /><polyline clip-path="url(#clip752)" style="stroke:#000000; stroke-width:2; stroke-opacity:0.1; fill:none" points="
  172.015,1447.87 2352.76,1447.87 
  "/>
<polyline clip-path="url(#clip752)" style="stroke:#000000; stroke-width:2; stroke-opacity:0.1; fill:none" points="
  172.015,1145.33 2352.76,1145.33 
  "/>
<polyline clip-path="url(#clip752)" style="stroke:#000000; stroke-width:2; stroke-opacity:0.1; fill:none" points="
  172.015,842.778 2352.76,842.778 
  "/>
<polyline clip-path="url(#clip752)" style="stroke:#000000; stroke-width:2; stroke-opacity:0.1; fill:none" points="
  172.015,540.231 2352.76,540.231 
  "/>
<polyline clip-path="url(#clip752)" style="stroke:#000000; stroke-width:2; stroke-opacity:0.1; fill:none" points="
  172.015,237.684 2352.76,237.684 
  "/>
<polyline clip-path="url(#clip750)" style="stroke:#000000; stroke-width:4; stroke-opacity:1; fill:none" points="
  172.015,1486.45 172.015,123.472 
  "/>
<polyline clip-path="url(#clip750)" style="stroke:#000000; stroke-width:4; stroke-opacity:1; fill:none" points="
  172.015,1447.87 198.184,1447.87 
  "/>
<polyline clip-path="url(#clip750)" style="stroke:#000000; stroke-width:4; stroke-opacity:1; fill:none" points="
  172.015,1145.33 198.184,1145.33 
  "/>
<polyline clip-path="url(#clip750)" style="stroke:#000000; stroke-width:4; stroke-opacity:1; fill:none" points="
  172.015,842.778 198.184,842.778 
  "/>
<polyline clip-path="url(#clip750)" style="stroke:#000000; stroke-width:4; stroke-opacity:1; fill:none" points="
  172.015,540.231 198.184,540.231 
  "/>
<polyline clip-path="url(#clip750)" style="stroke:#000000; stroke-width:4; stroke-opacity:1; fill:none" points="
  172.015,237.684 198.184,237.684 
  "/>
<path clip-path="url(#clip750)" d="M 0 0 M124.07 1433.67 Q120.459 1433.67 118.631 1437.24 Q116.825 1440.78 116.825 1447.91 Q116.825 1455.01 118.631 1458.58 Q120.459 1462.12 124.07 1462.12 Q127.705 1462.12 129.51 1458.58 Q131.339 1455.01 131.339 1447.91 Q131.339 1440.78 129.51 1437.24 Q127.705 1433.67 124.07 1433.67 M124.07 1429.97 Q129.881 1429.97 132.936 1434.57 Q136.015 1439.16 136.015 1447.91 Q136.015 1456.63 132.936 1461.24 Q129.881 1465.82 124.07 1465.82 Q118.26 1465.82 115.182 1461.24 Q112.126 1456.63 112.126 1447.91 Q112.126 1439.16 115.182 1434.57 Q118.26 1429.97 124.07 1429.97 Z" fill="#000000" fill-rule="evenodd" fill-opacity="1" /><path clip-path="url(#clip750)" d="M 0 0 M57.7745 1158.67 L74.0939 1158.67 L74.0939 1162.61 L52.1495 1162.61 L52.1495 1158.67 Q54.8115 1155.92 59.3949 1151.29 Q64.0013 1146.63 65.1819 1145.29 Q67.4272 1142.77 68.3068 1141.03 Q69.2096 1139.27 69.2096 1137.58 Q69.2096 1134.83 67.2652 1133.09 Q65.3439 1131.36 62.2421 1131.36 Q60.043 1131.36 57.5893 1132.12 Q55.1588 1132.88 52.381 1134.43 L52.381 1129.71 Q55.2051 1128.58 57.6588 1128 Q60.1124 1127.42 62.1495 1127.42 Q67.5198 1127.42 70.7142 1130.11 Q73.9087 1132.79 73.9087 1137.28 Q73.9087 1139.41 73.0985 1141.33 Q72.3115 1143.23 70.205 1145.82 Q69.6263 1146.49 66.5245 1149.71 Q63.4226 1152.91 57.7745 1158.67 Z" fill="#000000" fill-rule="evenodd" fill-opacity="1" /><path clip-path="url(#clip750)" d="M 0 0 M93.9086 1131.12 Q90.2975 1131.12 88.4688 1134.69 Q86.6632 1138.23 86.6632 1145.36 Q86.6632 1152.47 88.4688 1156.03 Q90.2975 1159.57 93.9086 1159.57 Q97.5428 1159.57 99.3483 1156.03 Q101.177 1152.47 101.177 1145.36 Q101.177 1138.23 99.3483 1134.69 Q97.5428 1131.12 93.9086 1131.12 M93.9086 1127.42 Q99.7187 1127.42 102.774 1132.03 Q105.853 1136.61 105.853 1145.36 Q105.853 1154.09 102.774 1158.69 Q99.7187 1163.28 93.9086 1163.28 Q88.0984 1163.28 85.0197 1158.69 Q81.9642 1154.09 81.9642 1145.36 Q81.9642 1136.61 85.0197 1132.03 Q88.0984 1127.42 93.9086 1127.42 Z" fill="#000000" fill-rule="evenodd" fill-opacity="1" /><path clip-path="url(#clip750)" d="M 0 0 M124.07 1131.12 Q120.459 1131.12 118.631 1134.69 Q116.825 1138.23 116.825 1145.36 Q116.825 1152.47 118.631 1156.03 Q120.459 1159.57 124.07 1159.57 Q127.705 1159.57 129.51 1156.03 Q131.339 1152.47 131.339 1145.36 Q131.339 1138.23 129.51 1134.69 Q127.705 1131.12 124.07 1131.12 M124.07 1127.42 Q129.881 1127.42 132.936 1132.03 Q136.015 1136.61 136.015 1145.36 Q136.015 1154.09 132.936 1158.69 Q129.881 1163.28 124.07 1163.28 Q118.26 1163.28 115.182 1158.69 Q112.126 1154.09 112.126 1145.36 Q112.126 1136.61 115.182 1132.03 Q118.26 1127.42 124.07 1127.42 Z" fill="#000000" fill-rule="evenodd" fill-opacity="1" /><path clip-path="url(#clip750)" d="M 0 0 M66.5939 829.572 L54.7884 848.021 L66.5939 848.021 L66.5939 829.572 M65.367 825.498 L71.2466 825.498 L71.2466 848.021 L76.1772 848.021 L76.1772 851.91 L71.2466 851.91 L71.2466 860.058 L66.5939 860.058 L66.5939 851.91 L50.9921 851.91 L50.9921 847.396 L65.367 825.498 Z" fill="#000000" fill-rule="evenodd" fill-opacity="1" /><path clip-path="url(#clip750)" d="M 0 0 M93.9086 828.577 Q90.2975 828.577 88.4688 832.142 Q86.6632 835.684 86.6632 842.813 Q86.6632 849.92 88.4688 853.484 Q90.2975 857.026 93.9086 857.026 Q97.5428 857.026 99.3483 853.484 Q101.177 849.92 101.177 842.813 Q101.177 835.684 99.3483 832.142 Q97.5428 828.577 93.9086 828.577 M93.9086 824.873 Q99.7187 824.873 102.774 829.48 Q105.853 834.063 105.853 842.813 Q105.853 851.54 102.774 856.146 Q99.7187 860.73 93.9086 860.73 Q88.0984 860.73 85.0197 856.146 Q81.9642 851.54 81.9642 842.813 Q81.9642 834.063 85.0197 829.48 Q88.0984 824.873 93.9086 824.873 Z" fill="#000000" fill-rule="evenodd" fill-opacity="1" /><path clip-path="url(#clip750)" d="M 0 0 M124.07 828.577 Q120.459 828.577 118.631 832.142 Q116.825 835.684 116.825 842.813 Q116.825 849.92 118.631 853.484 Q120.459 857.026 124.07 857.026 Q127.705 857.026 129.51 853.484 Q131.339 849.92 131.339 842.813 Q131.339 835.684 129.51 832.142 Q127.705 828.577 124.07 828.577 M124.07 824.873 Q129.881 824.873 132.936 829.48 Q136.015 834.063 136.015 842.813 Q136.015 851.54 132.936 856.146 Q129.881 860.73 124.07 860.73 Q118.26 860.73 115.182 856.146 Q112.126 851.54 112.126 842.813 Q112.126 834.063 115.182 829.48 Q118.26 824.873 124.07 824.873 Z" fill="#000000" fill-rule="evenodd" fill-opacity="1" /><path clip-path="url(#clip750)" d="M 0 0 M64.3254 538.368 Q61.1773 538.368 59.3254 540.52 Q57.4967 542.673 57.4967 546.423 Q57.4967 550.15 59.3254 552.326 Q61.1773 554.479 64.3254 554.479 Q67.4735 554.479 69.3022 552.326 Q71.1541 550.15 71.1541 546.423 Q71.1541 542.673 69.3022 540.52 Q67.4735 538.368 64.3254 538.368 M73.6077 523.715 L73.6077 527.974 Q71.8485 527.141 70.0429 526.701 Q68.2606 526.261 66.5013 526.261 Q61.8717 526.261 59.418 529.386 Q56.9875 532.511 56.6402 538.831 Q58.006 536.817 60.0662 535.752 Q62.1263 534.664 64.6032 534.664 Q69.8115 534.664 72.8207 537.835 Q75.8531 540.983 75.8531 546.423 Q75.8531 551.747 72.705 554.965 Q69.5568 558.182 64.3254 558.182 Q58.33 558.182 55.1588 553.599 Q51.9875 548.993 51.9875 540.266 Q51.9875 532.071 55.8764 527.21 Q59.7652 522.326 66.3161 522.326 Q68.0754 522.326 69.8578 522.673 Q71.6633 523.021 73.6077 523.715 Z" fill="#000000" fill-rule="evenodd" fill-opacity="1" /><path clip-path="url(#clip750)" d="M 0 0 M93.9086 526.03 Q90.2975 526.03 88.4688 529.595 Q86.6632 533.136 86.6632 540.266 Q86.6632 547.372 88.4688 550.937 Q90.2975 554.479 93.9086 554.479 Q97.5428 554.479 99.3483 550.937 Q101.177 547.372 101.177 540.266 Q101.177 533.136 99.3483 529.595 Q97.5428 526.03 93.9086 526.03 M93.9086 522.326 Q99.7187 522.326 102.774 526.933 Q105.853 531.516 105.853 540.266 Q105.853 548.993 102.774 553.599 Q99.7187 558.182 93.9086 558.182 Q88.0984 558.182 85.0197 553.599 Q81.9642 548.993 81.9642 540.266 Q81.9642 531.516 85.0197 526.933 Q88.0984 522.326 93.9086 522.326 Z" fill="#000000" fill-rule="evenodd" fill-opacity="1" /><path clip-path="url(#clip750)" d="M 0 0 M124.07 526.03 Q120.459 526.03 118.631 529.595 Q116.825 533.136 116.825 540.266 Q116.825 547.372 118.631 550.937 Q120.459 554.479 124.07 554.479 Q127.705 554.479 129.51 550.937 Q131.339 547.372 131.339 540.266 Q131.339 533.136 129.51 529.595 Q127.705 526.03 124.07 526.03 M124.07 522.326 Q129.881 522.326 132.936 526.933 Q136.015 531.516 136.015 540.266 Q136.015 548.993 132.936 553.599 Q129.881 558.182 124.07 558.182 Q118.26 558.182 115.182 553.599 Q112.126 548.993 112.126 540.266 Q112.126 531.516 115.182 526.933 Q118.26 522.326 124.07 522.326 Z" fill="#000000" fill-rule="evenodd" fill-opacity="1" /><path clip-path="url(#clip750)" d="M 0 0 M63.7467 238.552 Q60.4134 238.552 58.4921 240.334 Q56.5939 242.117 56.5939 245.242 Q56.5939 248.367 58.4921 250.149 Q60.4134 251.931 63.7467 251.931 Q67.08 251.931 69.0013 250.149 Q70.9226 248.343 70.9226 245.242 Q70.9226 242.117 69.0013 240.334 Q67.1032 238.552 63.7467 238.552 M59.0708 236.561 Q56.0615 235.82 54.3717 233.76 Q52.7051 231.7 52.7051 228.737 Q52.7051 224.594 55.6449 222.186 Q58.6078 219.779 63.7467 219.779 Q68.9087 219.779 71.8485 222.186 Q74.7883 224.594 74.7883 228.737 Q74.7883 231.7 73.0985 233.76 Q71.4318 235.82 68.4457 236.561 Q71.8253 237.348 73.7003 239.64 Q75.5985 241.931 75.5985 245.242 Q75.5985 250.265 72.5198 252.95 Q69.4642 255.635 63.7467 255.635 Q58.0291 255.635 54.9504 252.95 Q51.8949 250.265 51.8949 245.242 Q51.8949 241.931 53.793 239.64 Q55.6912 237.348 59.0708 236.561 M57.3578 229.177 Q57.3578 231.862 59.0245 233.367 Q60.7143 234.871 63.7467 234.871 Q66.7559 234.871 68.4457 233.367 Q70.1587 231.862 70.1587 229.177 Q70.1587 226.492 68.4457 224.987 Q66.7559 223.482 63.7467 223.482 Q60.7143 223.482 59.0245 224.987 Q57.3578 226.492 57.3578 229.177 Z" fill="#000000" fill-rule="evenodd" fill-opacity="1" /><path clip-path="url(#clip750)" d="M 0 0 M93.9086 223.482 Q90.2975 223.482 88.4688 227.047 Q86.6632 230.589 86.6632 237.718 Q86.6632 244.825 88.4688 248.39 Q90.2975 251.931 93.9086 251.931 Q97.5428 251.931 99.3483 248.39 Q101.177 244.825 101.177 237.718 Q101.177 230.589 99.3483 227.047 Q97.5428 223.482 93.9086 223.482 M93.9086 219.779 Q99.7187 219.779 102.774 224.385 Q105.853 228.969 105.853 237.718 Q105.853 246.445 102.774 251.052 Q99.7187 255.635 93.9086 255.635 Q88.0984 255.635 85.0197 251.052 Q81.9642 246.445 81.9642 237.718 Q81.9642 228.969 85.0197 224.385 Q88.0984 219.779 93.9086 219.779 Z" fill="#000000" fill-rule="evenodd" fill-opacity="1" /><path clip-path="url(#clip750)" d="M 0 0 M124.07 223.482 Q120.459 223.482 118.631 227.047 Q116.825 230.589 116.825 237.718 Q116.825 244.825 118.631 248.39 Q120.459 251.931 124.07 251.931 Q127.705 251.931 129.51 248.39 Q131.339 244.825 131.339 237.718 Q131.339 230.589 129.51 227.047 Q127.705 223.482 124.07 223.482 M124.07 219.779 Q129.881 219.779 132.936 224.385 Q136.015 228.969 136.015 237.718 Q136.015 246.445 132.936 251.052 Q129.881 255.635 124.07 255.635 Q118.26 255.635 115.182 251.052 Q112.126 246.445 112.126 237.718 Q112.126 228.969 115.182 224.385 Q118.26 219.779 124.07 219.779 Z" fill="#000000" fill-rule="evenodd" fill-opacity="1" /><path clip-path="url(#clip750)" d="M 0 0 M631.092 18.8205 L631.092 65.8515 L640.977 65.8515 Q653.494 65.8515 659.287 60.1802 Q665.12 54.509 665.12 42.2752 Q665.12 30.1225 659.287 24.4918 Q653.494 18.8205 640.977 18.8205 L631.092 18.8205 M622.91 12.096 L639.721 12.096 Q657.302 12.096 665.525 19.4281 Q673.748 26.7198 673.748 42.2752 Q673.748 57.9117 665.485 65.2439 Q657.221 72.576 639.721 72.576 L622.91 72.576 L622.91 12.096 Z" fill="#000000" fill-rule="evenodd" fill-opacity="1" /><path clip-path="url(#clip750)" d="M 0 0 M707.087 49.7694 Q698.054 49.7694 694.57 51.8354 Q691.086 53.9013 691.086 58.8839 Q691.086 62.8538 693.679 65.2034 Q696.312 67.5124 700.809 67.5124 Q707.006 67.5124 710.733 63.1374 Q714.501 58.7219 714.501 51.4303 L714.501 49.7694 L707.087 49.7694 M721.954 46.6907 L721.954 72.576 L714.501 72.576 L714.501 65.6895 Q711.948 69.8214 708.141 71.8063 Q704.333 73.7508 698.824 73.7508 Q691.856 73.7508 687.724 69.8619 Q683.633 65.9325 683.633 59.3701 Q683.633 51.7138 688.737 47.825 Q693.881 43.9361 704.049 43.9361 L714.501 43.9361 L714.501 43.2069 Q714.501 38.0623 711.098 35.2672 Q707.736 32.4315 701.619 32.4315 Q697.73 32.4315 694.044 33.3632 Q690.357 34.295 686.954 36.1584 L686.954 29.2718 Q691.046 27.692 694.894 26.9223 Q698.743 26.1121 702.388 26.1121 Q712.232 26.1121 717.093 31.2163 Q721.954 36.3204 721.954 46.6907 Z" fill="#000000" fill-rule="evenodd" fill-opacity="1" /><path clip-path="url(#clip750)" d="M 0 0 M744.68 14.324 L744.68 27.2059 L760.033 27.2059 L760.033 32.9987 L744.68 32.9987 L744.68 57.6282 Q744.68 63.1779 746.179 64.7578 Q747.718 66.3376 752.377 66.3376 L760.033 66.3376 L760.033 72.576 L752.377 72.576 Q743.748 72.576 740.467 69.3758 Q737.186 66.1351 737.186 57.6282 L737.186 32.9987 L731.717 32.9987 L731.717 27.2059 L737.186 27.2059 L737.186 14.324 L744.68 14.324 Z" fill="#000000" fill-rule="evenodd" fill-opacity="1" /><path clip-path="url(#clip750)" d="M 0 0 M790.455 49.7694 Q781.422 49.7694 777.938 51.8354 Q774.454 53.9013 774.454 58.8839 Q774.454 62.8538 777.047 65.2034 Q779.68 67.5124 784.176 67.5124 Q790.374 67.5124 794.101 63.1374 Q797.868 58.7219 797.868 51.4303 L797.868 49.7694 L790.455 49.7694 M805.322 46.6907 L805.322 72.576 L797.868 72.576 L797.868 65.6895 Q795.316 69.8214 791.508 71.8063 Q787.7 73.7508 782.191 73.7508 Q775.224 73.7508 771.092 69.8619 Q767 65.9325 767 59.3701 Q767 51.7138 772.104 47.825 Q777.249 43.9361 787.417 43.9361 L797.868 43.9361 L797.868 43.2069 Q797.868 38.0623 794.465 35.2672 Q791.103 32.4315 784.986 32.4315 Q781.097 32.4315 777.411 33.3632 Q773.725 34.295 770.322 36.1584 L770.322 29.2718 Q774.413 27.692 778.262 26.9223 Q782.11 26.1121 785.756 26.1121 Q795.6 26.1121 800.461 31.2163 Q805.322 36.3204 805.322 46.6907 Z" fill="#000000" fill-rule="evenodd" fill-opacity="1" /><path clip-path="url(#clip750)" d="M 0 0 M867.665 49.7694 Q858.632 49.7694 855.148 51.8354 Q851.664 53.9013 851.664 58.8839 Q851.664 62.8538 854.257 65.2034 Q856.89 67.5124 861.386 67.5124 Q867.584 67.5124 871.311 63.1374 Q875.078 58.7219 875.078 51.4303 L875.078 49.7694 L867.665 49.7694 M882.532 46.6907 L882.532 72.576 L875.078 72.576 L875.078 65.6895 Q872.526 69.8214 868.718 71.8063 Q864.911 73.7508 859.401 73.7508 Q852.434 73.7508 848.302 69.8619 Q844.211 65.9325 844.211 59.3701 Q844.211 51.7138 849.315 47.825 Q854.459 43.9361 864.627 43.9361 L875.078 43.9361 L875.078 43.2069 Q875.078 38.0623 871.676 35.2672 Q868.313 32.4315 862.197 32.4315 Q858.308 32.4315 854.621 33.3632 Q850.935 34.295 847.532 36.1584 L847.532 29.2718 Q851.624 27.692 855.472 26.9223 Q859.32 26.1121 862.966 26.1121 Q872.81 26.1121 877.671 31.2163 Q882.532 36.3204 882.532 46.6907 Z" fill="#000000" fill-rule="evenodd" fill-opacity="1" /><path clip-path="url(#clip750)" d="M 0 0 M935.599 45.1919 L935.599 72.576 L928.145 72.576 L928.145 45.4349 Q928.145 38.994 925.634 35.7938 Q923.122 32.5936 918.099 32.5936 Q912.063 32.5936 908.579 36.4419 Q905.096 40.2903 905.096 46.9338 L905.096 72.576 L897.601 72.576 L897.601 27.2059 L905.096 27.2059 L905.096 34.2544 Q907.769 30.163 911.375 28.1376 Q915.02 26.1121 919.76 26.1121 Q927.578 26.1121 931.589 30.9732 Q935.599 35.7938 935.599 45.1919 Z" fill="#000000" fill-rule="evenodd" fill-opacity="1" /><path clip-path="url(#clip750)" d="M 0 0 M980.321 34.0924 L980.321 9.54393 L987.775 9.54393 L987.775 72.576 L980.321 72.576 L980.321 65.7705 Q977.971 69.8214 974.366 71.8063 Q970.801 73.7508 965.778 73.7508 Q957.555 73.7508 952.37 67.1883 Q947.225 60.6258 947.225 49.9314 Q947.225 39.2371 952.37 32.6746 Q957.555 26.1121 965.778 26.1121 Q970.801 26.1121 974.366 28.0971 Q977.971 30.0415 980.321 34.0924 M954.922 49.9314 Q954.922 58.1548 958.284 62.8538 Q961.687 67.5124 967.601 67.5124 Q973.515 67.5124 976.918 62.8538 Q980.321 58.1548 980.321 49.9314 Q980.321 41.7081 976.918 37.0496 Q973.515 32.3505 967.601 32.3505 Q961.687 32.3505 958.284 37.0496 Q954.922 41.7081 954.922 49.9314 Z" fill="#000000" fill-rule="evenodd" fill-opacity="1" /><path clip-path="url(#clip750)" d="M 0 0 M1021.44 12.096 L1072.6 12.096 L1072.6 18.9825 L1051.13 18.9825 L1051.13 72.576 L1042.91 72.576 L1042.91 18.9825 L1021.44 18.9825 L1021.44 12.096 Z" fill="#000000" fill-rule="evenodd" fill-opacity="1" /><path clip-path="url(#clip750)" d="M 0 0 M1094.27 34.1734 Q1093.02 33.4443 1091.52 33.1202 Q1090.06 32.7556 1088.28 32.7556 Q1081.96 32.7556 1078.56 36.8875 Q1075.19 40.9789 1075.19 48.6757 L1075.19 72.576 L1067.7 72.576 L1067.7 27.2059 L1075.19 27.2059 L1075.19 34.2544 Q1077.54 30.1225 1081.31 28.1376 Q1085.08 26.1121 1090.46 26.1121 Q1091.23 26.1121 1092.17 26.2337 Q1093.1 26.3147 1094.23 26.5172 L1094.27 34.1734 Z" fill="#000000" fill-rule="evenodd" fill-opacity="1" /><path clip-path="url(#clip750)" d="M 0 0 M1101.32 54.671 L1101.32 27.2059 L1108.78 27.2059 L1108.78 54.3874 Q1108.78 60.8284 1111.29 64.0691 Q1113.8 67.2693 1118.82 67.2693 Q1124.86 67.2693 1128.34 63.421 Q1131.87 59.5726 1131.87 52.9291 L1131.87 27.2059 L1139.32 27.2059 L1139.32 72.576 L1131.87 72.576 L1131.87 65.6084 Q1129.15 69.7404 1125.55 71.7658 Q1121.98 73.7508 1117.24 73.7508 Q1109.42 73.7508 1105.37 68.8897 Q1101.32 64.0286 1101.32 54.671 M1120.08 26.1121 L1120.08 26.1121 Z" fill="#000000" fill-rule="evenodd" fill-opacity="1" /><path clip-path="url(#clip750)" d="M 0 0 M1193.48 48.0275 L1193.48 51.6733 L1159.21 51.6733 Q1159.69 59.3701 1163.83 63.421 Q1168 67.4314 1175.41 67.4314 Q1179.71 67.4314 1183.72 66.3781 Q1187.77 65.3249 1191.74 63.2184 L1191.74 70.267 Q1187.73 71.9684 1183.51 72.8596 Q1179.3 73.7508 1174.97 73.7508 Q1164.11 73.7508 1157.75 67.4314 Q1151.43 61.1119 1151.43 50.3365 Q1151.43 39.1965 1157.43 32.6746 Q1163.46 26.1121 1173.67 26.1121 Q1182.83 26.1121 1188.13 32.0264 Q1193.48 37.9003 1193.48 48.0275 M1186.03 45.84 Q1185.94 39.7232 1182.58 36.0774 Q1179.26 32.4315 1173.75 32.4315 Q1167.51 32.4315 1163.75 35.9558 Q1160.02 39.4801 1159.45 45.8805 L1186.03 45.84 Z" fill="#000000" fill-rule="evenodd" fill-opacity="1" /><path clip-path="url(#clip750)" d="M 0 0 M1268.66 14.0809 L1268.66 22.0612 Q1264.01 19.8332 1259.87 18.7395 Q1255.74 17.6457 1251.89 17.6457 Q1245.21 17.6457 1241.56 20.2383 Q1237.96 22.8309 1237.96 27.611 Q1237.96 31.6214 1240.35 33.6873 Q1242.78 35.7128 1249.5 36.9686 L1254.45 37.9813 Q1263.6 39.7232 1267.94 44.1387 Q1272.31 48.5136 1272.31 55.8863 Q1272.31 64.6767 1266.4 69.2137 Q1260.52 73.7508 1249.14 73.7508 Q1244.84 73.7508 1239.98 72.7785 Q1235.16 71.8063 1229.98 69.9024 L1229.98 61.4765 Q1234.96 64.2716 1239.74 65.6895 Q1244.52 67.1073 1249.14 67.1073 Q1256.15 67.1073 1259.95 64.3527 Q1263.76 61.598 1263.76 56.4939 Q1263.76 52.0379 1261.01 49.5264 Q1258.29 47.0148 1252.06 45.759 L1247.07 44.7868 Q1237.92 42.9639 1233.83 39.075 Q1229.74 35.1862 1229.74 28.2591 Q1229.74 20.2383 1235.37 15.6203 Q1241.04 11.0023 1250.96 11.0023 Q1255.22 11.0023 1259.63 11.7719 Q1264.05 12.5416 1268.66 14.0809 Z" fill="#000000" fill-rule="evenodd" fill-opacity="1" /><path clip-path="url(#clip750)" d="M 0 0 M1292.12 14.324 L1292.12 27.2059 L1307.47 27.2059 L1307.47 32.9987 L1292.12 32.9987 L1292.12 57.6282 Q1292.12 63.1779 1293.62 64.7578 Q1295.16 66.3376 1299.82 66.3376 L1307.47 66.3376 L1307.47 72.576 L1299.82 72.576 Q1291.19 72.576 1287.91 69.3758 Q1284.62 66.1351 1284.62 57.6282 L1284.62 32.9987 L1279.16 32.9987 L1279.16 27.2059 L1284.62 27.2059 L1284.62 14.324 L1292.12 14.324 Z" fill="#000000" fill-rule="evenodd" fill-opacity="1" /><path clip-path="url(#clip750)" d="M 0 0 M1337.89 49.7694 Q1328.86 49.7694 1325.38 51.8354 Q1321.89 53.9013 1321.89 58.8839 Q1321.89 62.8538 1324.49 65.2034 Q1327.12 67.5124 1331.62 67.5124 Q1337.81 67.5124 1341.54 63.1374 Q1345.31 58.7219 1345.31 51.4303 L1345.31 49.7694 L1337.89 49.7694 M1352.76 46.6907 L1352.76 72.576 L1345.31 72.576 L1345.31 65.6895 Q1342.76 69.8214 1338.95 71.8063 Q1335.14 73.7508 1329.63 73.7508 Q1322.66 73.7508 1318.53 69.8619 Q1314.44 65.9325 1314.44 59.3701 Q1314.44 51.7138 1319.54 47.825 Q1324.69 43.9361 1334.86 43.9361 L1345.31 43.9361 L1345.31 43.2069 Q1345.31 38.0623 1341.9 35.2672 Q1338.54 32.4315 1332.43 32.4315 Q1328.54 32.4315 1324.85 33.3632 Q1321.16 34.295 1317.76 36.1584 L1317.76 29.2718 Q1321.85 27.692 1325.7 26.9223 Q1329.55 26.1121 1333.2 26.1121 Q1343.04 26.1121 1347.9 31.2163 Q1352.76 36.3204 1352.76 46.6907 Z" fill="#000000" fill-rule="evenodd" fill-opacity="1" /><path clip-path="url(#clip750)" d="M 0 0 M1375.49 14.324 L1375.49 27.2059 L1390.84 27.2059 L1390.84 32.9987 L1375.49 32.9987 L1375.49 57.6282 Q1375.49 63.1779 1376.99 64.7578 Q1378.52 66.3376 1383.18 66.3376 L1390.84 66.3376 L1390.84 72.576 L1383.18 72.576 Q1374.55 72.576 1371.27 69.3758 Q1367.99 66.1351 1367.99 57.6282 L1367.99 32.9987 L1362.52 32.9987 L1362.52 27.2059 L1367.99 27.2059 L1367.99 14.324 L1375.49 14.324 Z" fill="#000000" fill-rule="evenodd" fill-opacity="1" /><path clip-path="url(#clip750)" d="M 0 0 M1400.64 27.2059 L1408.1 27.2059 L1408.1 72.576 L1400.64 72.576 L1400.64 27.2059 M1400.64 9.54393 L1408.1 9.54393 L1408.1 18.9825 L1400.64 18.9825 L1400.64 9.54393 Z" fill="#000000" fill-rule="evenodd" fill-opacity="1" /><path clip-path="url(#clip750)" d="M 0 0 M1452.62 28.5427 L1452.62 35.5912 Q1449.46 33.9709 1446.05 33.1607 Q1442.65 32.3505 1439 32.3505 Q1433.46 32.3505 1430.66 34.0519 Q1427.91 35.7533 1427.91 39.156 Q1427.91 41.7486 1429.89 43.2475 Q1431.88 44.7058 1437.87 46.0426 L1440.42 46.6097 Q1448.36 48.3111 1451.68 51.4303 Q1455.05 54.509 1455.05 60.0587 Q1455.05 66.3781 1450.02 70.0644 Q1445.04 73.7508 1436.29 73.7508 Q1432.64 73.7508 1428.67 73.0216 Q1424.75 72.3329 1420.37 70.9151 L1420.37 63.2184 Q1424.5 65.3654 1428.51 66.4591 Q1432.52 67.5124 1436.45 67.5124 Q1441.72 67.5124 1444.55 65.73 Q1447.39 63.9071 1447.39 60.6258 Q1447.39 57.5877 1445.32 55.9673 Q1443.3 54.3469 1436.37 52.8481 L1433.78 52.2405 Q1426.85 50.7821 1423.77 47.7845 Q1420.69 44.7463 1420.69 39.4801 Q1420.69 33.0797 1425.23 29.5959 Q1429.77 26.1121 1438.11 26.1121 Q1442.25 26.1121 1445.89 26.7198 Q1449.54 27.3274 1452.62 28.5427 Z" fill="#000000" fill-rule="evenodd" fill-opacity="1" /><path clip-path="url(#clip750)" d="M 0 0 M1474.29 14.324 L1474.29 27.2059 L1489.64 27.2059 L1489.64 32.9987 L1474.29 32.9987 L1474.29 57.6282 Q1474.29 63.1779 1475.79 64.7578 Q1477.33 66.3376 1481.98 66.3376 L1489.64 66.3376 L1489.64 72.576 L1481.98 72.576 Q1473.36 72.576 1470.08 69.3758 Q1466.79 66.1351 1466.79 57.6282 L1466.79 32.9987 L1461.33 32.9987 L1461.33 27.2059 L1466.79 27.2059 L1466.79 14.324 L1474.29 14.324 Z" fill="#000000" fill-rule="evenodd" fill-opacity="1" /><path clip-path="url(#clip750)" d="M 0 0 M1499.44 27.2059 L1506.9 27.2059 L1506.9 72.576 L1499.44 72.576 L1499.44 27.2059 M1499.44 9.54393 L1506.9 9.54393 L1506.9 18.9825 L1499.44 18.9825 L1499.44 9.54393 Z" fill="#000000" fill-rule="evenodd" fill-opacity="1" /><path clip-path="url(#clip750)" d="M 0 0 M1555.14 28.9478 L1555.14 35.9153 Q1551.98 34.1734 1548.78 33.3227 Q1545.62 32.4315 1542.38 32.4315 Q1535.13 32.4315 1531.12 37.0496 Q1527.11 41.6271 1527.11 49.9314 Q1527.11 58.2358 1531.12 62.8538 Q1535.13 67.4314 1542.38 67.4314 Q1545.62 67.4314 1548.78 66.5807 Q1551.98 65.6895 1555.14 63.9476 L1555.14 70.8341 Q1552.03 72.2924 1548.66 73.0216 Q1545.34 73.7508 1541.57 73.7508 Q1531.32 73.7508 1525.29 67.3098 Q1519.25 60.8689 1519.25 49.9314 Q1519.25 38.832 1525.33 32.472 Q1531.45 26.1121 1542.06 26.1121 Q1545.5 26.1121 1548.78 26.8413 Q1552.07 27.5299 1555.14 28.9478 Z" fill="#000000" fill-rule="evenodd" fill-opacity="1" /><path clip-path="url(#clip750)" d="M 0 0 M1588.73 49.7694 Q1579.69 49.7694 1576.21 51.8354 Q1572.73 53.9013 1572.73 58.8839 Q1572.73 62.8538 1575.32 65.2034 Q1577.95 67.5124 1582.45 67.5124 Q1588.65 67.5124 1592.37 63.1374 Q1596.14 58.7219 1596.14 51.4303 L1596.14 49.7694 L1588.73 49.7694 M1603.59 46.6907 L1603.59 72.576 L1596.14 72.576 L1596.14 65.6895 Q1593.59 69.8214 1589.78 71.8063 Q1585.97 73.7508 1580.46 73.7508 Q1573.49 73.7508 1569.36 69.8619 Q1565.27 65.9325 1565.27 59.3701 Q1565.27 51.7138 1570.38 47.825 Q1575.52 43.9361 1585.69 43.9361 L1596.14 43.9361 L1596.14 43.2069 Q1596.14 38.0623 1592.74 35.2672 Q1589.37 32.4315 1583.26 32.4315 Q1579.37 32.4315 1575.68 33.3632 Q1572 34.295 1568.59 36.1584 L1568.59 29.2718 Q1572.68 27.692 1576.53 26.9223 Q1580.38 26.1121 1584.03 26.1121 Q1593.87 26.1121 1598.73 31.2163 Q1603.59 36.3204 1603.59 46.6907 Z" fill="#000000" fill-rule="evenodd" fill-opacity="1" /><path clip-path="url(#clip750)" d="M 0 0 M1618.95 9.54393 L1626.4 9.54393 L1626.4 72.576 L1618.95 72.576 L1618.95 9.54393 Z" fill="#000000" fill-rule="evenodd" fill-opacity="1" /><path clip-path="url(#clip750)" d="M 0 0 M1668.69 12.096 L1680.88 12.096 L1696.32 53.2532 L1711.83 12.096 L1724.03 12.096 L1724.03 72.576 L1716.05 72.576 L1716.05 19.4686 L1700.45 60.9499 L1692.23 60.9499 L1676.63 19.4686 L1676.63 72.576 L1668.69 72.576 L1668.69 12.096 Z" fill="#000000" fill-rule="evenodd" fill-opacity="1" /><path clip-path="url(#clip750)" d="M 0 0 M1757.53 32.4315 Q1751.53 32.4315 1748.05 37.1306 Q1744.56 41.7891 1744.56 49.9314 Q1744.56 58.0738 1748.01 62.7728 Q1751.49 67.4314 1757.53 67.4314 Q1763.48 67.4314 1766.97 62.7323 Q1770.45 58.0333 1770.45 49.9314 Q1770.45 41.8701 1766.97 37.1711 Q1763.48 32.4315 1757.53 32.4315 M1757.53 26.1121 Q1767.25 26.1121 1772.8 32.4315 Q1778.35 38.7509 1778.35 49.9314 Q1778.35 61.0714 1772.8 67.4314 Q1767.25 73.7508 1757.53 73.7508 Q1747.76 73.7508 1742.21 67.4314 Q1736.71 61.0714 1736.71 49.9314 Q1736.71 38.7509 1742.21 32.4315 Q1747.76 26.1121 1757.53 26.1121 Z" fill="#000000" fill-rule="evenodd" fill-opacity="1" /><path clip-path="url(#clip750)" d="M 0 0 M1820.56 34.0924 L1820.56 9.54393 L1828.01 9.54393 L1828.01 72.576 L1820.56 72.576 L1820.56 65.7705 Q1818.21 69.8214 1814.6 71.8063 Q1811.04 73.7508 1806.02 73.7508 Q1797.79 73.7508 1792.61 67.1883 Q1787.46 60.6258 1787.46 49.9314 Q1787.46 39.2371 1792.61 32.6746 Q1797.79 26.1121 1806.02 26.1121 Q1811.04 26.1121 1814.6 28.0971 Q1818.21 30.0415 1820.56 34.0924 M1795.16 49.9314 Q1795.16 58.1548 1798.52 62.8538 Q1801.93 67.5124 1807.84 67.5124 Q1813.75 67.5124 1817.16 62.8538 Q1820.56 58.1548 1820.56 49.9314 Q1820.56 41.7081 1817.16 37.0496 Q1813.75 32.3505 1807.84 32.3505 Q1801.93 32.3505 1798.52 37.0496 Q1795.16 41.7081 1795.16 49.9314 Z" fill="#000000" fill-rule="evenodd" fill-opacity="1" /><path clip-path="url(#clip750)" d="M 0 0 M1882.17 48.0275 L1882.17 51.6733 L1847.9 51.6733 Q1848.39 59.3701 1852.52 63.421 Q1856.69 67.4314 1864.11 67.4314 Q1868.4 67.4314 1872.41 66.3781 Q1876.46 65.3249 1880.43 63.2184 L1880.43 70.267 Q1876.42 71.9684 1872.21 72.8596 Q1868 73.7508 1863.66 73.7508 Q1852.8 73.7508 1846.44 67.4314 Q1840.13 61.1119 1840.13 50.3365 Q1840.13 39.1965 1846.12 32.6746 Q1852.16 26.1121 1862.36 26.1121 Q1871.52 26.1121 1876.83 32.0264 Q1882.17 37.9003 1882.17 48.0275 M1874.72 45.84 Q1874.64 39.7232 1871.28 36.0774 Q1867.96 32.4315 1862.45 32.4315 Q1856.21 32.4315 1852.44 35.9558 Q1848.71 39.4801 1848.15 45.8805 L1874.72 45.84 Z" fill="#000000" fill-rule="evenodd" fill-opacity="1" /><path clip-path="url(#clip750)" d="M 0 0 M1894.41 9.54393 L1901.86 9.54393 L1901.86 72.576 L1894.41 72.576 L1894.41 9.54393 Z" fill="#000000" fill-rule="evenodd" fill-opacity="1" /><polyline clip-path="url(#clip752)" style="stroke:#009af9; stroke-width:4; stroke-opacity:1; fill:none" points="
  748.06,1447.87 748.06,1387.36 773.776,1387.36 773.776,1311.73 799.492,1311.73 799.492,1251.22 825.208,1251.22 825.208,1190.71 850.925,1190.71 850.925,1266.34 
  876.641,1266.34 876.641,1009.18 902.357,1009.18 902.357,963.797 928.074,963.797 928.074,857.906 953.79,857.906 953.79,842.778 979.506,842.778 979.506,676.377 
  1005.22,676.377 1005.22,903.288 1030.94,903.288 1030.94,963.797 1056.66,963.797 1056.66,842.778 1082.37,842.778 1108.09,842.778 1108.09,1160.45 
  1133.8,1160.45 1133.8,1205.84 1159.52,1205.84 1159.52,1220.96 1185.24,1220.96 1185.24,1236.09 1210.95,1236.09 1210.95,1357.11 1236.67,1357.11 1236.67,1296.6 
  1262.39,1296.6 1262.39,1372.24 1288.1,1372.24 1288.1,1447.87 1313.82,1447.87 1313.82,1372.24 1339.53,1372.24 1339.53,1432.75 1365.25,1432.75 
  1390.97,1432.75 1390.97,1402.49 1416.68,1402.49 1442.4,1402.49 1442.4,1357.11 1468.12,1357.11 1468.12,1281.47 1493.83,1281.47 
  1519.55,1281.47 1519.55,1220.96 1545.26,1220.96 1545.26,1145.33 1570.98,1145.33 1570.98,1115.07 1596.7,1115.07 1596.7,857.906 1622.41,857.906 1622.41,888.161 
  1648.13,888.161 1648.13,782.269 1673.85,782.269 1673.85,358.703 1699.56,358.703 1699.56,283.066 1725.28,283.066 1725.28,162.047 1750.99,162.047 1750.99,192.302 
  1776.71,192.302 1776.71,283.066 1802.43,283.066 1802.43,237.684 1828.14,237.684 1828.14,479.722 1853.86,479.722 1853.86,646.123 1879.58,646.123 
  1905.29,646.123 1905.29,752.014 1931.01,752.014 1931.01,933.543 1956.73,933.543 1956.73,1084.82 1982.44,1084.82 1982.44,1220.96 2008.16,1220.96 2008.16,1281.47 
  2033.87,1281.47 2033.87,1372.24 2059.59,1372.24 2059.59,1341.98 2085.31,1341.98 2085.31,1402.49 2111.02,1402.49 2111.02,1447.87 2136.74,1447.87 
  2162.46,1447.87 2162.46,1432.75 2188.17,1432.75 2188.17,1447.87 2213.89,1447.87 2239.6,1447.87 2265.32,1447.87 
  2291.04,1447.87 
  "/>
<polyline clip-path="url(#clip752)" style="stroke:#e26f46; stroke-width:4; stroke-opacity:1; fill:none" points="
  233.734,1447.87 236.306,1447.87 238.877,1447.87 241.449,1447.87 244.02,1447.87 246.592,1447.87 249.164,1447.87 251.735,1447.87 254.307,1447.87 256.879,1447.87 
  259.45,1447.87 262.022,1447.87 264.593,1447.87 267.165,1447.87 269.737,1447.87 272.308,1447.87 274.88,1447.87 277.452,1447.87 280.023,1447.87 282.595,1447.87 
  285.166,1447.87 287.738,1447.87 290.31,1447.87 292.881,1447.87 295.453,1447.87 298.025,1447.87 300.596,1447.87 303.168,1447.87 305.74,1447.87 308.311,1447.87 
  310.883,1447.87 313.454,1447.87 316.026,1447.87 318.598,1447.87 321.169,1447.87 323.741,1447.87 326.313,1447.87 328.884,1447.87 331.456,1447.87 334.027,1447.87 
  336.599,1447.87 339.171,1447.87 341.742,1447.87 344.314,1447.87 346.886,1447.87 349.457,1447.87 352.029,1447.87 354.6,1447.87 357.172,1447.87 359.744,1447.87 
  362.315,1447.87 364.887,1447.87 367.459,1447.87 370.03,1447.87 372.602,1447.87 375.173,1447.87 377.745,1447.87 380.317,1447.87 382.888,1447.87 385.46,1447.87 
  388.032,1447.87 390.603,1447.87 393.175,1447.87 395.747,1447.87 398.318,1447.86 400.89,1447.86 403.461,1447.86 406.033,1447.86 408.605,1447.86 411.176,1447.86 
  413.748,1447.86 416.32,1447.86 418.891,1447.85 421.463,1447.85 424.034,1447.85 426.606,1447.85 429.178,1447.85 431.749,1447.84 434.321,1447.84 436.893,1447.84 
  439.464,1447.84 442.036,1447.83 444.607,1447.83 447.179,1447.82 449.751,1447.82 452.322,1447.81 454.894,1447.81 457.466,1447.8 460.037,1447.8 462.609,1447.79 
  465.18,1447.78 467.752,1447.78 470.324,1447.77 472.895,1447.76 475.467,1447.75 478.039,1447.74 480.61,1447.73 483.182,1447.71 485.754,1447.7 488.325,1447.69 
  490.897,1447.67 493.468,1447.65 496.04,1447.64 498.612,1447.62 501.183,1447.6 503.755,1447.57 506.327,1447.55 508.898,1447.52 511.47,1447.49 514.041,1447.46 
  516.613,1447.43 519.185,1447.4 521.756,1447.36 524.328,1447.32 526.9,1447.28 529.471,1447.23 532.043,1447.18 534.614,1447.13 537.186,1447.07 539.758,1447.01 
  542.329,1446.95 544.901,1446.88 547.473,1446.8 550.044,1446.73 552.616,1446.64 555.187,1446.55 557.759,1446.46 560.331,1446.36 562.902,1446.25 565.474,1446.13 
  568.046,1446.01 570.617,1445.88 573.189,1445.74 575.761,1445.59 578.332,1445.43 580.904,1445.27 583.475,1445.09 586.047,1444.9 588.619,1444.7 591.19,1444.49 
  593.762,1444.27 596.334,1444.03 598.905,1443.78 601.477,1443.51 604.048,1443.23 606.62,1442.93 609.192,1442.62 611.763,1442.28 614.335,1441.93 616.907,1441.56 
  619.478,1441.17 622.05,1440.76 624.621,1440.32 627.193,1439.86 629.765,1439.38 632.336,1438.87 634.908,1438.33 637.48,1437.77 640.051,1437.18 642.623,1436.55 
  645.194,1435.9 647.766,1435.21 650.338,1434.49 652.909,1433.73 655.481,1432.94 658.053,1432.11 660.624,1431.24 663.196,1430.33 665.768,1429.37 668.339,1428.37 
  670.911,1427.33 673.482,1426.23 676.054,1425.09 678.626,1423.9 681.197,1422.66 683.769,1421.36 686.341,1420 688.912,1418.59 691.484,1417.12 694.055,1415.59 
  696.627,1414 699.199,1412.34 701.77,1410.61 704.342,1408.82 706.914,1406.96 709.485,1405.02 712.057,1403.01 714.628,1400.93 717.2,1398.77 719.772,1396.53 
  722.343,1394.21 724.915,1391.81 727.487,1389.32 730.058,1386.75 732.63,1384.09 735.201,1381.34 737.773,1378.5 740.345,1375.56 742.916,1372.54 745.488,1369.42 
  748.06,1366.2 750.631,1362.88 753.203,1359.47 755.775,1355.95 758.346,1352.33 760.918,1348.61 763.489,1344.79 766.061,1340.86 768.633,1336.83 771.204,1332.69 
  773.776,1328.44 776.348,1324.09 778.919,1319.63 781.491,1315.06 784.062,1310.39 786.634,1305.6 789.206,1300.71 791.777,1295.71 794.349,1290.61 796.921,1285.4 
  799.492,1280.08 802.064,1274.66 804.635,1269.13 807.207,1263.5 809.779,1257.78 812.35,1251.95 814.922,1246.02 817.494,1240 820.065,1233.88 822.637,1227.67 
  825.208,1221.37 827.78,1214.99 830.352,1208.52 832.923,1201.97 835.495,1195.34 838.067,1188.64 840.638,1181.86 843.21,1175.02 845.782,1168.11 848.353,1161.14 
  850.925,1154.12 853.496,1147.05 856.068,1139.92 858.64,1132.76 861.211,1125.56 863.783,1118.32 866.355,1111.06 868.926,1103.77 871.498,1096.47 874.069,1089.15 
  876.641,1081.84 879.213,1074.52 881.784,1067.2 884.356,1059.9 886.928,1052.62 889.499,1045.36 892.071,1038.13 894.642,1030.94 897.214,1023.79 899.786,1016.69 
  902.357,1009.65 904.929,1002.67 907.501,995.758 910.072,988.925 912.644,982.175 915.215,975.515 917.787,968.951 920.359,962.491 922.93,956.139 925.502,949.904 
  928.074,943.792 930.645,937.809 933.217,931.961 935.789,926.254 938.36,920.696 940.932,915.291 943.503,910.046 946.075,904.967 948.647,900.058 951.218,895.327 
  953.79,890.777 956.362,886.415 958.933,882.245 961.505,878.272 964.076,874.5 966.648,870.934 969.22,867.578 971.791,864.436 974.363,861.511 976.935,858.808 
  979.506,856.328 982.078,854.076 984.649,852.054 987.221,850.264 989.793,848.708 992.364,847.388 994.936,846.307 997.508,845.464 1000.08,844.861 1002.65,844.499 
  1005.22,844.378 1007.79,844.499 1010.37,844.861 1012.94,845.464 1015.51,846.307 1018.08,847.388 1020.65,848.708 1023.22,850.264 1025.8,852.054 1028.37,854.076 
  1030.94,856.328 1033.51,858.808 1036.08,861.511 1038.65,864.436 1041.23,867.578 1043.8,870.934 1046.37,874.5 1048.94,878.271 1051.51,882.245 1054.08,886.415 
  1056.66,890.777 1059.23,895.327 1061.8,900.058 1064.37,904.966 1066.94,910.046 1069.51,915.291 1072.08,920.695 1074.66,926.254 1077.23,931.96 1079.8,937.808 
  1082.37,943.791 1084.94,949.904 1087.51,956.139 1090.09,962.49 1092.66,968.951 1095.23,975.514 1097.8,982.174 1100.37,988.924 1102.94,995.757 1105.52,1002.67 
  1108.09,1009.64 1110.66,1016.69 1113.23,1023.78 1115.8,1030.93 1118.37,1038.12 1120.95,1045.35 1123.52,1052.61 1126.09,1059.9 1128.66,1067.2 1131.23,1074.51 
  1133.8,1081.83 1136.38,1089.15 1138.95,1096.46 1141.52,1103.77 1144.09,1111.05 1146.66,1118.31 1149.23,1125.55 1151.81,1132.75 1154.38,1139.91 1156.95,1147.03 
  1159.52,1154.11 1162.09,1161.13 1164.66,1168.1 1167.24,1175 1169.81,1181.84 1172.38,1188.62 1174.95,1195.32 1177.52,1201.95 1180.09,1208.5 1182.66,1214.96 
  1185.24,1221.34 1187.81,1227.64 1190.38,1233.84 1192.95,1239.96 1195.52,1245.98 1198.09,1251.9 1200.67,1257.72 1203.24,1263.45 1205.81,1269.07 1208.38,1274.59 
  1210.95,1280 1213.52,1285.31 1216.1,1290.52 1218.67,1295.61 1221.24,1300.6 1223.81,1305.49 1226.38,1310.26 1228.95,1314.92 1231.53,1319.48 1234.1,1323.93 
  1236.67,1328.26 1239.24,1332.49 1241.81,1336.62 1244.38,1340.63 1246.96,1344.54 1249.53,1348.34 1252.1,1352.04 1254.67,1355.63 1257.24,1359.12 1259.81,1362.51 
  1262.39,1365.79 1264.96,1368.98 1267.53,1372.06 1270.1,1375.05 1272.67,1377.94 1275.24,1380.74 1277.82,1383.44 1280.39,1386.05 1282.96,1388.56 1285.53,1390.99 
  1288.1,1393.33 1290.67,1395.58 1293.24,1397.74 1295.82,1399.82 1298.39,1401.82 1300.96,1403.74 1303.53,1405.57 1306.1,1407.33 1308.67,1409.01 1311.25,1410.62 
  1313.82,1412.14 1316.39,1413.6 1318.96,1414.99 1321.53,1416.3 1324.1,1417.54 1326.68,1418.72 1329.25,1419.82 1331.82,1420.87 1334.39,1421.84 1336.96,1422.75 
  1339.53,1423.6 1342.11,1424.38 1344.68,1425.1 1347.25,1425.76 1349.82,1426.36 1352.39,1426.9 1354.96,1427.37 1357.54,1427.79 1360.11,1428.15 1362.68,1428.45 
  1365.25,1428.69 1367.82,1428.87 1370.39,1428.98 1372.97,1429.04 1375.54,1429.05 1378.11,1428.98 1380.68,1428.86 1383.25,1428.68 1385.82,1428.44 1388.4,1428.13 
  1390.97,1427.76 1393.54,1427.33 1396.11,1426.83 1398.68,1426.26 1401.25,1425.63 1403.82,1424.92 1406.4,1424.15 1408.97,1423.3 1411.54,1422.38 1414.11,1421.39 
  1416.68,1420.32 1419.25,1419.17 1421.83,1417.94 1424.4,1416.62 1426.97,1415.23 1429.54,1413.74 1432.11,1412.16 1434.68,1410.5 1437.26,1408.73 1439.83,1406.87 
  1442.4,1404.91 1444.97,1402.85 1447.54,1400.68 1450.11,1398.41 1452.69,1396.02 1455.26,1393.52 1457.83,1390.9 1460.4,1388.16 1462.97,1385.3 1465.54,1382.31 
  1468.12,1379.19 1470.69,1375.94 1473.26,1372.55 1475.83,1369.02 1478.4,1365.35 1480.97,1361.53 1483.55,1357.56 1486.12,1353.43 1488.69,1349.15 1491.26,1344.71 
  1493.83,1340.1 1496.4,1335.33 1498.98,1330.39 1501.55,1325.27 1504.12,1319.98 1506.69,1314.5 1509.26,1308.84 1511.83,1303 1514.4,1296.97 1516.98,1290.74 
  1519.55,1284.32 1522.12,1277.71 1524.69,1270.89 1527.26,1263.87 1529.83,1256.65 1532.41,1249.22 1534.98,1241.58 1537.55,1233.74 1540.12,1225.68 1542.69,1217.41 
  1545.26,1208.92 1547.84,1200.22 1550.41,1191.31 1552.98,1182.18 1555.55,1172.83 1558.12,1163.27 1560.69,1153.49 1563.27,1143.5 1565.84,1133.3 1568.41,1122.88 
  1570.98,1112.25 1573.55,1101.41 1576.12,1090.36 1578.7,1079.11 1581.27,1067.65 1583.84,1056 1586.41,1044.15 1588.98,1032.1 1591.55,1019.87 1594.13,1007.46 
  1596.7,994.861 1599.27,982.093 1601.84,969.155 1604.41,956.055 1606.98,942.799 1609.56,929.392 1612.13,915.843 1614.7,902.157 1617.27,888.343 1619.84,874.409 
  1622.41,860.362 1624.99,846.213 1627.56,831.968 1630.13,817.639 1632.7,803.234 1635.27,788.763 1637.84,774.238 1640.41,759.667 1642.99,745.062 1645.56,730.434 
  1648.13,715.795 1650.7,701.156 1653.27,686.528 1655.84,671.924 1658.42,657.357 1660.99,642.838 1663.56,628.38 1666.13,613.996 1668.7,599.699 1671.27,585.502 
  1673.85,571.418 1676.42,557.46 1678.99,543.642 1681.56,529.976 1684.13,516.477 1686.7,503.157 1689.28,490.029 1691.85,477.108 1694.42,464.406 1696.99,451.935 
  1699.56,439.711 1702.13,427.744 1704.71,416.048 1707.28,404.635 1709.85,393.518 1712.42,382.709 1714.99,372.219 1717.56,362.06 1720.14,352.244 1722.71,342.78 
  1725.28,333.681 1727.85,324.957 1730.42,316.616 1732.99,308.67 1735.57,301.126 1738.14,293.994 1740.71,287.282 1743.28,280.998 1745.85,275.149 1748.42,269.742 
  1750.99,264.784 1753.57,260.28 1756.14,256.235 1758.71,252.655 1761.28,249.543 1763.85,246.904 1766.42,244.74 1769,243.054 1771.57,241.849 1774.14,241.125 
  1776.71,240.884 1779.28,241.125 1781.85,241.849 1784.43,243.054 1787,244.74 1789.57,246.904 1792.14,249.543 1794.71,252.655 1797.28,256.235 1799.86,260.28 
  1802.43,264.784 1805,269.742 1807.57,275.149 1810.14,280.998 1812.71,287.282 1815.29,293.994 1817.86,301.126 1820.43,308.67 1823,316.617 1825.57,324.957 
  1828.14,333.682 1830.72,342.781 1833.29,352.244 1835.86,362.06 1838.43,372.219 1841,382.709 1843.57,393.518 1846.15,404.635 1848.72,416.048 1851.29,427.744 
  1853.86,439.711 1856.43,451.936 1859,464.406 1861.57,477.108 1864.15,490.03 1866.72,503.157 1869.29,516.477 1871.86,529.977 1874.43,543.643 1877,557.461 
  1879.58,571.419 1882.15,585.503 1884.72,599.7 1887.29,613.997 1889.86,628.381 1892.43,642.839 1895.01,657.358 1897.58,671.926 1900.15,686.53 1902.72,701.158 
  1905.29,715.797 1907.86,730.437 1910.44,745.065 1913.01,759.67 1915.58,774.241 1918.15,788.767 1920.72,803.238 1923.29,817.643 1925.87,831.973 1928.44,846.218 
  1931.01,860.368 1933.58,874.415 1936.15,888.35 1938.72,902.165 1941.3,915.851 1943.87,929.402 1946.44,942.81 1949.01,956.067 1951.58,969.168 1954.15,982.107 
  1956.73,994.877 1959.3,1007.47 1961.87,1019.89 1964.44,1032.12 1967.01,1044.17 1969.58,1056.02 1972.15,1067.68 1974.73,1079.14 1977.3,1090.39 1979.87,1101.44 
  1982.44,1112.29 1985.01,1122.92 1987.58,1133.34 1990.16,1143.55 1992.73,1153.55 1995.3,1163.33 1997.87,1172.9 2000.44,1182.25 2003.01,1191.38 2005.59,1200.31 
  2008.16,1209.01 2010.73,1217.5 2013.3,1225.78 2015.87,1233.85 2018.44,1241.71 2021.02,1249.35 2023.59,1256.79 2026.16,1264.03 2028.73,1271.06 2031.3,1277.89 
  2033.87,1284.52 2036.45,1290.96 2039.02,1297.2 2041.59,1303.26 2044.16,1309.12 2046.73,1314.8 2049.3,1320.3 2051.88,1325.62 2054.45,1330.77 2057.02,1335.74 
  2059.59,1340.55 2062.16,1345.19 2064.73,1349.67 2067.31,1353.99 2069.88,1358.15 2072.45,1362.17 2075.02,1366.04 2077.59,1369.77 2080.16,1373.35 2082.73,1376.8 
  2085.31,1380.12 2087.88,1383.31 2090.45,1386.37 2093.02,1389.31 2095.59,1392.13 2098.16,1394.84 2100.74,1397.44 2103.31,1399.93 2105.88,1402.31 2108.45,1404.59 
  2111.02,1406.78 2113.59,1408.87 2116.17,1410.87 2118.74,1412.78 2121.31,1414.6 2123.88,1416.34 2126.45,1418.01 2129.02,1419.6 2131.6,1421.11 2134.17,1422.55 
  2136.74,1423.93 2139.31,1425.23 2141.88,1426.48 2144.45,1427.66 2147.03,1428.79 2149.6,1429.86 2152.17,1430.88 2154.74,1431.85 2157.31,1432.77 2159.88,1433.64 
  2162.46,1434.46 2165.03,1435.25 2167.6,1435.99 2170.17,1436.69 2172.74,1437.36 2175.31,1437.99 2177.89,1438.59 2180.46,1439.15 2183.03,1439.68 2185.6,1440.18 
  2188.17,1440.66 2190.74,1441.11 2193.31,1441.53 2195.89,1441.93 2198.46,1442.31 2201.03,1442.66 2203.6,1443 2206.17,1443.31 2208.74,1443.61 2211.32,1443.88 
  2213.89,1444.15 2216.46,1444.39 2219.03,1444.62 2221.6,1444.84 2224.17,1445.04 2226.75,1445.23 2229.32,1445.41 2231.89,1445.58 2234.46,1445.74 2237.03,1445.88 
  2239.6,1446.02 2242.18,1446.15 2244.75,1446.27 2247.32,1446.38 2249.89,1446.49 2252.46,1446.59 2255.03,1446.68 2257.61,1446.77 2260.18,1446.85 2262.75,1446.92 
  2265.32,1446.99 2267.89,1447.05 2270.46,1447.11 2273.04,1447.17 2275.61,1447.22 2278.18,1447.27 2280.75,1447.32 2283.32,1447.36 2285.89,1447.4 2288.47,1447.43 
  2291.04,1447.47 
  "/>
<path clip-path="url(#clip750)" d="
M1921.49 350.345 L2280.06 350.345 L2280.06 168.905 L1921.49 168.905  Z
  " fill="#ffffff" fill-rule="evenodd" fill-opacity="1"/>
<polyline clip-path="url(#clip750)" style="stroke:#000000; stroke-width:4; stroke-opacity:1; fill:none" points="
  1921.49,350.345 2280.06,350.345 2280.06,168.905 1921.49,168.905 1921.49,350.345 
  "/>
<polyline clip-path="url(#clip750)" style="stroke:#009af9; stroke-width:4; stroke-opacity:1; fill:none" points="
  1945.72,229.385 2091.1,229.385 
  "/>
<path clip-path="url(#clip750)" d="M 0 0 M2120.01 215.947 L2120.01 242.822 L2125.66 242.822 Q2132.81 242.822 2136.12 239.581 Q2139.45 236.341 2139.45 229.35 Q2139.45 222.406 2136.12 219.188 Q2132.81 215.947 2125.66 215.947 L2120.01 215.947 M2115.33 212.105 L2124.94 212.105 Q2134.98 212.105 2139.68 216.294 Q2144.38 220.461 2144.38 229.35 Q2144.38 238.285 2139.66 242.475 Q2134.94 246.665 2124.94 246.665 L2115.33 246.665 L2115.33 212.105 Z" fill="#000000" fill-rule="evenodd" fill-opacity="1" /><path clip-path="url(#clip750)" d="M 0 0 M2163.43 233.632 Q2158.27 233.632 2156.28 234.813 Q2154.29 235.993 2154.29 238.841 Q2154.29 241.109 2155.77 242.452 Q2157.28 243.771 2159.84 243.771 Q2163.39 243.771 2165.52 241.271 Q2167.67 238.748 2167.67 234.581 L2167.67 233.632 L2163.43 233.632 M2171.93 231.873 L2171.93 246.665 L2167.67 246.665 L2167.67 242.729 Q2166.21 245.091 2164.03 246.225 Q2161.86 247.336 2158.71 247.336 Q2154.73 247.336 2152.37 245.114 Q2150.03 242.868 2150.03 239.118 Q2150.03 234.743 2152.95 232.521 Q2155.89 230.299 2161.7 230.299 L2167.67 230.299 L2167.67 229.882 Q2167.67 226.943 2165.72 225.345 Q2163.8 223.725 2160.31 223.725 Q2158.09 223.725 2155.98 224.257 Q2153.87 224.79 2151.93 225.855 L2151.93 221.919 Q2154.27 221.017 2156.47 220.577 Q2158.66 220.114 2160.75 220.114 Q2166.37 220.114 2169.15 223.031 Q2171.93 225.947 2171.93 231.873 Z" fill="#000000" fill-rule="evenodd" fill-opacity="1" /><path clip-path="url(#clip750)" d="M 0 0 M2184.91 213.378 L2184.91 220.739 L2193.69 220.739 L2193.69 224.049 L2184.91 224.049 L2184.91 238.123 Q2184.91 241.294 2185.77 242.197 Q2186.65 243.1 2189.31 243.1 L2193.69 243.1 L2193.69 246.665 L2189.31 246.665 Q2184.38 246.665 2182.51 244.836 Q2180.63 242.984 2180.63 238.123 L2180.63 224.049 L2177.51 224.049 L2177.51 220.739 L2180.63 220.739 L2180.63 213.378 L2184.91 213.378 Z" fill="#000000" fill-rule="evenodd" fill-opacity="1" /><path clip-path="url(#clip750)" d="M 0 0 M2211.07 233.632 Q2205.91 233.632 2203.92 234.813 Q2201.93 235.993 2201.93 238.841 Q2201.93 241.109 2203.41 242.452 Q2204.91 243.771 2207.48 243.771 Q2211.03 243.771 2213.15 241.271 Q2215.31 238.748 2215.31 234.581 L2215.31 233.632 L2211.07 233.632 M2219.57 231.873 L2219.57 246.665 L2215.31 246.665 L2215.31 242.729 Q2213.85 245.091 2211.67 246.225 Q2209.5 247.336 2206.35 247.336 Q2202.37 247.336 2200.01 245.114 Q2197.67 242.868 2197.67 239.118 Q2197.67 234.743 2200.59 232.521 Q2203.53 230.299 2209.34 230.299 L2215.31 230.299 L2215.31 229.882 Q2215.31 226.943 2213.36 225.345 Q2211.44 223.725 2207.95 223.725 Q2205.72 223.725 2203.62 224.257 Q2201.51 224.79 2199.57 225.855 L2199.57 221.919 Q2201.9 221.017 2204.1 220.577 Q2206.3 220.114 2208.39 220.114 Q2214.01 220.114 2216.79 223.031 Q2219.57 225.947 2219.57 231.873 Z" fill="#000000" fill-rule="evenodd" fill-opacity="1" /><polyline clip-path="url(#clip750)" style="stroke:#e26f46; stroke-width:4; stroke-opacity:1; fill:none" points="
  1945.72,289.865 2091.1,289.865 
  "/>
<path clip-path="url(#clip750)" d="M 0 0 M2115.33 272.585 L2144.57 272.585 L2144.57 276.52 L2132.3 276.52 L2132.3 307.145 L2127.6 307.145 L2127.6 276.52 L2115.33 276.52 L2115.33 272.585 Z" fill="#000000" fill-rule="evenodd" fill-opacity="1" /><path clip-path="url(#clip750)" d="M 0 0 M2156.95 285.2 Q2156.23 284.784 2155.38 284.598 Q2154.54 284.39 2153.53 284.39 Q2149.91 284.39 2147.97 286.751 Q2146.05 289.089 2146.05 293.487 L2146.05 307.145 L2141.77 307.145 L2141.77 281.219 L2146.05 281.219 L2146.05 285.247 Q2147.39 282.886 2149.54 281.751 Q2151.7 280.594 2154.78 280.594 Q2155.22 280.594 2155.75 280.663 Q2156.28 280.71 2156.93 280.825 L2156.95 285.2 Z" fill="#000000" fill-rule="evenodd" fill-opacity="1" /><path clip-path="url(#clip750)" d="M 0 0 M2160.98 296.913 L2160.98 281.219 L2165.24 281.219 L2165.24 296.751 Q2165.24 300.432 2166.67 302.284 Q2168.11 304.112 2170.98 304.112 Q2174.43 304.112 2176.42 301.913 Q2178.43 299.714 2178.43 295.918 L2178.43 281.219 L2182.69 281.219 L2182.69 307.145 L2178.43 307.145 L2178.43 303.163 Q2176.88 305.524 2174.82 306.682 Q2172.78 307.816 2170.08 307.816 Q2165.61 307.816 2163.29 305.038 Q2160.98 302.26 2160.98 296.913 M2171.7 280.594 L2171.7 280.594 Z" fill="#000000" fill-rule="evenodd" fill-opacity="1" /><path clip-path="url(#clip750)" d="M 0 0 M2195.68 273.858 L2195.68 281.219 L2204.45 281.219 L2204.45 284.529 L2195.68 284.529 L2195.68 298.603 Q2195.68 301.774 2196.53 302.677 Q2197.41 303.58 2200.08 303.58 L2204.45 303.58 L2204.45 307.145 L2200.08 307.145 Q2195.15 307.145 2193.27 305.316 Q2191.4 303.464 2191.4 298.603 L2191.4 284.529 L2188.27 284.529 L2188.27 281.219 L2191.4 281.219 L2191.4 273.858 L2195.68 273.858 Z" fill="#000000" fill-rule="evenodd" fill-opacity="1" /><path clip-path="url(#clip750)" d="M 0 0 M2231.6 291.497 L2231.6 307.145 L2227.34 307.145 L2227.34 291.635 Q2227.34 287.955 2225.91 286.126 Q2224.47 284.298 2221.6 284.298 Q2218.15 284.298 2216.16 286.497 Q2214.17 288.696 2214.17 292.492 L2214.17 307.145 L2209.89 307.145 L2209.89 271.126 L2214.17 271.126 L2214.17 285.247 Q2215.7 282.909 2217.76 281.751 Q2219.84 280.594 2222.55 280.594 Q2227.02 280.594 2229.31 283.372 Q2231.6 286.126 2231.6 291.497 Z" fill="#000000" fill-rule="evenodd" fill-opacity="1" /></svg>
