<?xml version="1.0" encoding="utf-8"?>
<svg xmlns="http://www.w3.org/2000/svg" xmlns:xlink="http://www.w3.org/1999/xlink" width="600" height="400" viewBox="0 0 2400 1600">
<defs>
  <clipPath id="clip720">
    <rect x="0" y="0" width="2400" height="1600"/>
  </clipPath>
</defs>
<path clip-path="url(#clip720)" d="
M0 1600 L2400 1600 L2400 0 L0 0  Z
  " fill="#ffffff" fill-rule="evenodd" fill-opacity="1"/>
<defs>
  <clipPath id="clip721">
    <rect x="480" y="0" width="1681" height="1600"/>
  </clipPath>
</defs>
<path clip-path="url(#clip720)" d="
M172.015 1486.45 L2352.76 1486.45 L2352.76 123.472 L172.015 123.472  Z
  " fill="#ffffff" fill-rule="evenodd" fill-opacity="1"/>
<defs>
  <clipPath id="clip722">
    <rect x="172" y="123" width="2182" height="1364"/>
  </clipPath>
</defs>
<polyline clip-path="url(#clip722)" style="stroke:#000000; stroke-width:2; stroke-opacity:0.1; fill:none" points="
  233.734,1486.45 233.734,123.472 
  "/>
<polyline clip-path="url(#clip722)" style="stroke:#000000; stroke-width:2; stroke-opacity:0.1; fill:none" points="
  576.618,1486.45 576.618,123.472 
  "/>
<polyline clip-path="url(#clip722)" style="stroke:#000000; stroke-width:2; stroke-opacity:0.1; fill:none" points="
  919.502,1486.45 919.502,123.472 
  "/>
<polyline clip-path="url(#clip722)" style="stroke:#000000; stroke-width:2; stroke-opacity:0.1; fill:none" points="
  1262.39,1486.45 1262.39,123.472 
  "/>
<polyline clip-path="url(#clip722)" style="stroke:#000000; stroke-width:2; stroke-opacity:0.1; fill:none" points="
  1605.27,1486.45 1605.27,123.472 
  "/>
<polyline clip-path="url(#clip722)" style="stroke:#000000; stroke-width:2; stroke-opacity:0.1; fill:none" points="
  1948.15,1486.45 1948.15,123.472 
  "/>
<polyline clip-path="url(#clip722)" style="stroke:#000000; stroke-width:2; stroke-opacity:0.1; fill:none" points="
  2291.04,1486.45 2291.04,123.472 
  "/>
<polyline clip-path="url(#clip720)" style="stroke:#000000; stroke-width:4; stroke-opacity:1; fill:none" points="
  172.015,1486.45 2352.76,1486.45 
  "/>
<polyline clip-path="url(#clip720)" style="stroke:#000000; stroke-width:4; stroke-opacity:1; fill:none" points="
  233.734,1486.45 233.734,1470.09 
  "/>
<polyline clip-path="url(#clip720)" style="stroke:#000000; stroke-width:4; stroke-opacity:1; fill:none" points="
  576.618,1486.45 576.618,1470.09 
  "/>
<polyline clip-path="url(#clip720)" style="stroke:#000000; stroke-width:4; stroke-opacity:1; fill:none" points="
  919.502,1486.45 919.502,1470.09 
  "/>
<polyline clip-path="url(#clip720)" style="stroke:#000000; stroke-width:4; stroke-opacity:1; fill:none" points="
  1262.39,1486.45 1262.39,1470.09 
  "/>
<polyline clip-path="url(#clip720)" style="stroke:#000000; stroke-width:4; stroke-opacity:1; fill:none" points="
  1605.27,1486.45 1605.27,1470.09 
  "/>
<polyline clip-path="url(#clip720)" style="stroke:#000000; stroke-width:4; stroke-opacity:1; fill:none" points="
  1948.15,1486.45 1948.15,1470.09 
  "/>
<polyline clip-path="url(#clip720)" style="stroke:#000000; stroke-width:4; stroke-opacity:1; fill:none" points="
  2291.04,1486.45 2291.04,1470.09 
  "/>
<path clip-path="url(#clip720)" d="M 0 0 M203.676 1530.29 L233.352 1530.29 L233.352 1534.23 L203.676 1534.23 L203.676 1530.29 Z" fill="#000000" fill-rule="evenodd" fill-opacity="1" /><path clip-path="url(#clip720)" d="M 0 0 M247.472 1543.18 L263.792 1543.18 L263.792 1547.12 L241.847 1547.12 L241.847 1543.18 Q244.509 1540.43 249.093 1535.8 Q253.699 1531.15 254.88 1529.81 Q257.125 1527.28 258.005 1525.55 Q258.907 1523.79 258.907 1522.1 Q258.907 1519.34 256.963 1517.61 Q255.042 1515.87 251.94 1515.87 Q249.741 1515.87 247.287 1516.63 Q244.857 1517.4 242.079 1518.95 L242.079 1514.23 Q244.903 1513.09 247.357 1512.51 Q249.81 1511.93 251.847 1511.93 Q257.218 1511.93 260.412 1514.62 Q263.606 1517.31 263.606 1521.8 Q263.606 1523.93 262.796 1525.85 Q262.009 1527.74 259.903 1530.34 Q259.324 1531.01 256.222 1534.23 Q253.12 1537.42 247.472 1543.18 Z" fill="#000000" fill-rule="evenodd" fill-opacity="1" /><path clip-path="url(#clip720)" d="M 0 0 M546.375 1530.29 L576.051 1530.29 L576.051 1534.23 L546.375 1534.23 L546.375 1530.29 Z" fill="#000000" fill-rule="evenodd" fill-opacity="1" /><path clip-path="url(#clip720)" d="M 0 0 M586.953 1543.18 L594.592 1543.18 L594.592 1516.82 L586.282 1518.49 L586.282 1514.23 L594.546 1512.56 L599.222 1512.56 L599.222 1543.18 L606.861 1543.18 L606.861 1547.12 L586.953 1547.12 L586.953 1543.18 Z" fill="#000000" fill-rule="evenodd" fill-opacity="1" /><path clip-path="url(#clip720)" d="M 0 0 M919.502 1515.64 Q915.89 1515.64 914.062 1519.2 Q912.256 1522.75 912.256 1529.87 Q912.256 1536.98 914.062 1540.55 Q915.89 1544.09 919.502 1544.09 Q923.136 1544.09 924.941 1540.55 Q926.77 1536.98 926.77 1529.87 Q926.77 1522.75 924.941 1519.2 Q923.136 1515.64 919.502 1515.64 M919.502 1511.93 Q925.312 1511.93 928.367 1516.54 Q931.446 1521.12 931.446 1529.87 Q931.446 1538.6 928.367 1543.21 Q925.312 1547.79 919.502 1547.79 Q913.691 1547.79 910.613 1543.21 Q907.557 1538.6 907.557 1529.87 Q907.557 1521.12 910.613 1516.54 Q913.691 1511.93 919.502 1511.93 Z" fill="#000000" fill-rule="evenodd" fill-opacity="1" /><path clip-path="url(#clip720)" d="M 0 0 M1252.77 1543.18 L1260.41 1543.18 L1260.41 1516.82 L1252.1 1518.49 L1252.1 1514.23 L1260.36 1512.56 L1265.04 1512.56 L1265.04 1543.18 L1272.67 1543.18 L1272.67 1547.12 L1252.77 1547.12 L1252.77 1543.18 Z" fill="#000000" fill-rule="evenodd" fill-opacity="1" /><path clip-path="url(#clip720)" d="M 0 0 M1599.92 1543.18 L1616.24 1543.18 L1616.24 1547.12 L1594.3 1547.12 L1594.3 1543.18 Q1596.96 1540.43 1601.54 1535.8 Q1606.15 1531.15 1607.33 1529.81 Q1609.57 1527.28 1610.45 1525.55 Q1611.36 1523.79 1611.36 1522.1 Q1611.36 1519.34 1609.41 1517.61 Q1607.49 1515.87 1604.39 1515.87 Q1602.19 1515.87 1599.74 1516.63 Q1597.31 1517.4 1594.53 1518.95 L1594.53 1514.23 Q1597.35 1513.09 1599.81 1512.51 Q1602.26 1511.93 1604.3 1511.93 Q1609.67 1511.93 1612.86 1514.62 Q1616.06 1517.31 1616.06 1521.8 Q1616.06 1523.93 1615.25 1525.85 Q1614.46 1527.74 1612.35 1530.34 Q1611.77 1531.01 1608.67 1534.23 Q1605.57 1537.42 1599.92 1543.18 Z" fill="#000000" fill-rule="evenodd" fill-opacity="1" /><path clip-path="url(#clip720)" d="M 0 0 M1952.4 1528.49 Q1955.76 1529.2 1957.63 1531.47 Q1959.53 1533.74 1959.53 1537.07 Q1959.53 1542.19 1956.01 1544.99 Q1952.49 1547.79 1946.01 1547.79 Q1943.84 1547.79 1941.52 1547.35 Q1939.23 1546.93 1936.78 1546.08 L1936.78 1541.56 Q1938.72 1542.7 1941.03 1543.28 Q1943.35 1543.86 1945.87 1543.86 Q1950.27 1543.86 1952.56 1542.12 Q1954.88 1540.38 1954.88 1537.07 Q1954.88 1534.02 1952.72 1532.31 Q1950.6 1530.57 1946.78 1530.57 L1942.75 1530.57 L1942.75 1526.73 L1946.96 1526.73 Q1950.41 1526.73 1952.24 1525.36 Q1954.07 1523.97 1954.07 1521.38 Q1954.07 1518.72 1952.17 1517.31 Q1950.29 1515.87 1946.78 1515.87 Q1944.85 1515.87 1942.66 1516.29 Q1940.46 1516.7 1937.82 1517.58 L1937.82 1513.42 Q1940.48 1512.68 1942.79 1512.31 Q1945.13 1511.93 1947.19 1511.93 Q1952.52 1511.93 1955.62 1514.37 Q1958.72 1516.77 1958.72 1520.89 Q1958.72 1523.76 1957.08 1525.75 Q1955.43 1527.72 1952.4 1528.49 Z" fill="#000000" fill-rule="evenodd" fill-opacity="1" /><path clip-path="url(#clip720)" d="M 0 0 M2294.05 1516.63 L2282.24 1535.08 L2294.05 1535.08 L2294.05 1516.63 M2292.82 1512.56 L2298.7 1512.56 L2298.7 1535.08 L2303.63 1535.08 L2303.63 1538.97 L2298.7 1538.97 L2298.7 1547.12 L2294.05 1547.12 L2294.05 1538.97 L2278.44 1538.97 L2278.44 1534.46 L2292.82 1512.56 Z" fill="#000000" fill-rule="evenodd" fill-opacity="1" /><polyline clip-path="url(#clip722)" style="stroke:#000000; stroke-width:2; stroke-opacity:0.1; fill:none" points="
  172.015,1447.87 2352.76,1447.87 
  "/>
<polyline clip-path="url(#clip722)" style="stroke:#000000; stroke-width:2; stroke-opacity:0.1; fill:none" points="
  172.015,1145.33 2352.76,1145.33 
  "/>
<polyline clip-path="url(#clip722)" style="stroke:#000000; stroke-width:2; stroke-opacity:0.1; fill:none" points="
  172.015,842.778 2352.76,842.778 
  "/>
<polyline clip-path="url(#clip722)" style="stroke:#000000; stroke-width:2; stroke-opacity:0.1; fill:none" points="
  172.015,540.231 2352.76,540.231 
  "/>
<polyline clip-path="url(#clip722)" style="stroke:#000000; stroke-width:2; stroke-opacity:0.1; fill:none" points="
  172.015,237.684 2352.76,237.684 
  "/>
<polyline clip-path="url(#clip720)" style="stroke:#000000; stroke-width:4; stroke-opacity:1; fill:none" points="
  172.015,1486.45 172.015,123.472 
  "/>
<polyline clip-path="url(#clip720)" style="stroke:#000000; stroke-width:4; stroke-opacity:1; fill:none" points="
  172.015,1447.87 198.184,1447.87 
  "/>
<polyline clip-path="url(#clip720)" style="stroke:#000000; stroke-width:4; stroke-opacity:1; fill:none" points="
  172.015,1145.33 198.184,1145.33 
  "/>
<polyline clip-path="url(#clip720)" style="stroke:#000000; stroke-width:4; stroke-opacity:1; fill:none" points="
  172.015,842.778 198.184,842.778 
  "/>
<polyline clip-path="url(#clip720)" style="stroke:#000000; stroke-width:4; stroke-opacity:1; fill:none" points="
  172.015,540.231 198.184,540.231 
  "/>
<polyline clip-path="url(#clip720)" style="stroke:#000000; stroke-width:4; stroke-opacity:1; fill:none" points="
  172.015,237.684 198.184,237.684 
  "/>
<path clip-path="url(#clip720)" d="M 0 0 M124.07 1433.67 Q120.459 1433.67 118.631 1437.24 Q116.825 1440.78 116.825 1447.91 Q116.825 1455.01 118.631 1458.58 Q120.459 1462.12 124.07 1462.12 Q127.705 1462.12 129.51 1458.58 Q131.339 1455.01 131.339 1447.91 Q131.339 1440.78 129.51 1437.24 Q127.705 1433.67 124.07 1433.67 M124.07 1429.97 Q129.881 1429.97 132.936 1434.57 Q136.015 1439.16 136.015 1447.91 Q136.015 1456.63 132.936 1461.24 Q129.881 1465.82 124.07 1465.82 Q118.26 1465.82 115.182 1461.24 Q112.126 1456.63 112.126 1447.91 Q112.126 1439.16 115.182 1434.57 Q118.26 1429.97 124.07 1429.97 Z" fill="#000000" fill-rule="evenodd" fill-opacity="1" /><path clip-path="url(#clip720)" d="M 0 0 M57.7745 1158.67 L74.0939 1158.67 L74.0939 1162.61 L52.1495 1162.61 L52.1495 1158.67 Q54.8115 1155.92 59.3949 1151.29 Q64.0013 1146.63 65.1819 1145.29 Q67.4272 1142.77 68.3068 1141.03 Q69.2096 1139.27 69.2096 1137.58 Q69.2096 1134.83 67.2652 1133.09 Q65.3439 1131.36 62.2421 1131.36 Q60.043 1131.36 57.5893 1132.12 Q55.1588 1132.88 52.381 1134.43 L52.381 1129.71 Q55.2051 1128.58 57.6588 1128 Q60.1124 1127.42 62.1495 1127.42 Q67.5198 1127.42 70.7142 1130.11 Q73.9087 1132.79 73.9087 1137.28 Q73.9087 1139.41 73.0985 1141.33 Q72.3115 1143.23 70.205 1145.82 Q69.6263 1146.49 66.5245 1149.71 Q63.4226 1152.91 57.7745 1158.67 Z" fill="#000000" fill-rule="evenodd" fill-opacity="1" /><path clip-path="url(#clip720)" d="M 0 0 M93.9086 1131.12 Q90.2975 1131.12 88.4688 1134.69 Q86.6632 1138.23 86.6632 1145.36 Q86.6632 1152.47 88.4688 1156.03 Q90.2975 1159.57 93.9086 1159.57 Q97.5428 1159.57 99.3483 1156.03 Q101.177 1152.47 101.177 1145.36 Q101.177 1138.23 99.3483 1134.69 Q97.5428 1131.12 93.9086 1131.12 M93.9086 1127.42 Q99.7187 1127.42 102.774 1132.03 Q105.853 1136.61 105.853 1145.36 Q105.853 1154.09 102.774 1158.69 Q99.7187 1163.28 93.9086 1163.28 Q88.0984 1163.28 85.0197 1158.69 Q81.9642 1154.09 81.9642 1145.36 Q81.9642 1136.61 85.0197 1132.03 Q88.0984 1127.42 93.9086 1127.42 Z" fill="#000000" fill-rule="evenodd" fill-opacity="1" /><path clip-path="url(#clip720)" d="M 0 0 M124.07 1131.12 Q120.459 1131.12 118.631 1134.69 Q116.825 1138.23 116.825 1145.36 Q116.825 1152.47 118.631 1156.03 Q120.459 1159.57 124.07 1159.57 Q127.705 1159.57 129.51 1156.03 Q131.339 1152.47 131.339 1145.36 Q131.339 1138.23 129.51 1134.69 Q127.705 1131.12 124.07 1131.12 M124.07 1127.42 Q129.881 1127.42 132.936 1132.03 Q136.015 1136.61 136.015 1145.36 Q136.015 1154.09 132.936 1158.69 Q129.881 1163.28 124.07 1163.28 Q118.26 1163.28 115.182 1158.69 Q112.126 1154.09 112.126 1145.36 Q112.126 1136.61 115.182 1132.03 Q118.26 1127.42 124.07 1127.42 Z" fill="#000000" fill-rule="evenodd" fill-opacity="1" /><path clip-path="url(#clip720)" d="M 0 0 M66.5939 829.572 L54.7884 848.021 L66.5939 848.021 L66.5939 829.572 M65.367 825.498 L71.2466 825.498 L71.2466 848.021 L76.1772 848.021 L76.1772 851.91 L71.2466 851.91 L71.2466 860.058 L66.5939 860.058 L66.5939 851.91 L50.9921 851.91 L50.9921 847.396 L65.367 825.498 Z" fill="#000000" fill-rule="evenodd" fill-opacity="1" /><path clip-path="url(#clip720)" d="M 0 0 M93.9086 828.577 Q90.2975 828.577 88.4688 832.142 Q86.6632 835.684 86.6632 842.813 Q86.6632 849.92 88.4688 853.484 Q90.2975 857.026 93.9086 857.026 Q97.5428 857.026 99.3483 853.484 Q101.177 849.92 101.177 842.813 Q101.177 835.684 99.3483 832.142 Q97.5428 828.577 93.9086 828.577 M93.9086 824.873 Q99.7187 824.873 102.774 829.48 Q105.853 834.063 105.853 842.813 Q105.853 851.54 102.774 856.146 Q99.7187 860.73 93.9086 860.73 Q88.0984 860.73 85.0197 856.146 Q81.9642 851.54 81.9642 842.813 Q81.9642 834.063 85.0197 829.48 Q88.0984 824.873 93.9086 824.873 Z" fill="#000000" fill-rule="evenodd" fill-opacity="1" /><path clip-path="url(#clip720)" d="M 0 0 M124.07 828.577 Q120.459 828.577 118.631 832.142 Q116.825 835.684 116.825 842.813 Q116.825 849.92 118.631 853.484 Q120.459 857.026 124.07 857.026 Q127.705 857.026 129.51 853.484 Q131.339 849.92 131.339 842.813 Q131.339 835.684 129.51 832.142 Q127.705 828.577 124.07 828.577 M124.07 824.873 Q129.881 824.873 132.936 829.48 Q136.015 834.063 136.015 842.813 Q136.015 851.54 132.936 856.146 Q129.881 860.73 124.07 860.73 Q118.26 860.73 115.182 856.146 Q112.126 851.54 112.126 842.813 Q112.126 834.063 115.182 829.48 Q118.26 824.873 124.07 824.873 Z" fill="#000000" fill-rule="evenodd" fill-opacity="1" /><path clip-path="url(#clip720)" d="M 0 0 M64.3254 538.368 Q61.1773 538.368 59.3254 540.52 Q57.4967 542.673 57.4967 546.423 Q57.4967 550.15 59.3254 552.326 Q61.1773 554.479 64.3254 554.479 Q67.4735 554.479 69.3022 552.326 Q71.1541 550.15 71.1541 546.423 Q71.1541 542.673 69.3022 540.52 Q67.4735 538.368 64.3254 538.368 M73.6077 523.715 L73.6077 527.974 Q71.8485 527.141 70.0429 526.701 Q68.2606 526.261 66.5013 526.261 Q61.8717 526.261 59.418 529.386 Q56.9875 532.511 56.6402 538.831 Q58.006 536.817 60.0662 535.752 Q62.1263 534.664 64.6032 534.664 Q69.8115 534.664 72.8207 537.835 Q75.8531 540.983 75.8531 546.423 Q75.8531 551.747 72.705 554.965 Q69.5568 558.182 64.3254 558.182 Q58.33 558.182 55.1588 553.599 Q51.9875 548.993 51.9875 540.266 Q51.9875 532.071 55.8764 527.21 Q59.7652 522.326 66.3161 522.326 Q68.0754 522.326 69.8578 522.673 Q71.6633 523.021 73.6077 523.715 Z" fill="#000000" fill-rule="evenodd" fill-opacity="1" /><path clip-path="url(#clip720)" d="M 0 0 M93.9086 526.03 Q90.2975 526.03 88.4688 529.595 Q86.6632 533.136 86.6632 540.266 Q86.6632 547.372 88.4688 550.937 Q90.2975 554.479 93.9086 554.479 Q97.5428 554.479 99.3483 550.937 Q101.177 547.372 101.177 540.266 Q101.177 533.136 99.3483 529.595 Q97.5428 526.03 93.9086 526.03 M93.9086 522.326 Q99.7187 522.326 102.774 526.933 Q105.853 531.516 105.853 540.266 Q105.853 548.993 102.774 553.599 Q99.7187 558.182 93.9086 558.182 Q88.0984 558.182 85.0197 553.599 Q81.9642 548.993 81.9642 540.266 Q81.9642 531.516 85.0197 526.933 Q88.0984 522.326 93.9086 522.326 Z" fill="#000000" fill-rule="evenodd" fill-opacity="1" /><path clip-path="url(#clip720)" d="M 0 0 M124.07 526.03 Q120.459 526.03 118.631 529.595 Q116.825 533.136 116.825 540.266 Q116.825 547.372 118.631 550.937 Q120.459 554.479 124.07 554.479 Q127.705 554.479 129.51 550.937 Q131.339 547.372 131.339 540.266 Q131.339 533.136 129.51 529.595 Q127.705 526.03 124.07 526.03 M124.07 522.326 Q129.881 522.326 132.936 526.933 Q136.015 531.516 136.015 540.266 Q136.015 548.993 132.936 553.599 Q129.881 558.182 124.07 558.182 Q118.26 558.182 115.182 553.599 Q112.126 548.993 112.126 540.266 Q112.126 531.516 115.182 526.933 Q118.26 522.326 124.07 522.326 Z" fill="#000000" fill-rule="evenodd" fill-opacity="1" /><path clip-path="url(#clip720)" d="M 0 0 M63.7467 238.552 Q60.4134 238.552 58.4921 240.334 Q56.5939 242.117 56.5939 245.242 Q56.5939 248.367 58.4921 250.149 Q60.4134 251.931 63.7467 251.931 Q67.08 251.931 69.0013 250.149 Q70.9226 248.343 70.9226 245.242 Q70.9226 242.117 69.0013 240.334 Q67.1032 238.552 63.7467 238.552 M59.0708 236.561 Q56.0615 235.82 54.3717 233.76 Q52.7051 231.7 52.7051 228.737 Q52.7051 224.594 55.6449 222.186 Q58.6078 219.779 63.7467 219.779 Q68.9087 219.779 71.8485 222.186 Q74.7883 224.594 74.7883 228.737 Q74.7883 231.7 73.0985 233.76 Q71.4318 235.82 68.4457 236.561 Q71.8253 237.348 73.7003 239.64 Q75.5985 241.931 75.5985 245.242 Q75.5985 250.265 72.5198 252.95 Q69.4642 255.635 63.7467 255.635 Q58.0291 255.635 54.9504 252.95 Q51.8949 250.265 51.8949 245.242 Q51.8949 241.931 53.793 239.64 Q55.6912 237.348 59.0708 236.561 M57.3578 229.177 Q57.3578 231.862 59.0245 233.367 Q60.7143 234.871 63.7467 234.871 Q66.7559 234.871 68.4457 233.367 Q70.1587 231.862 70.1587 229.177 Q70.1587 226.492 68.4457 224.987 Q66.7559 223.482 63.7467 223.482 Q60.7143 223.482 59.0245 224.987 Q57.3578 226.492 57.3578 229.177 Z" fill="#000000" fill-rule="evenodd" fill-opacity="1" /><path clip-path="url(#clip720)" d="M 0 0 M93.9086 223.482 Q90.2975 223.482 88.4688 227.047 Q86.6632 230.589 86.6632 237.718 Q86.6632 244.825 88.4688 248.39 Q90.2975 251.931 93.9086 251.931 Q97.5428 251.931 99.3483 248.39 Q101.177 244.825 101.177 237.718 Q101.177 230.589 99.3483 227.047 Q97.5428 223.482 93.9086 223.482 M93.9086 219.779 Q99.7187 219.779 102.774 224.385 Q105.853 228.969 105.853 237.718 Q105.853 246.445 102.774 251.052 Q99.7187 255.635 93.9086 255.635 Q88.0984 255.635 85.0197 251.052 Q81.9642 246.445 81.9642 237.718 Q81.9642 228.969 85.0197 224.385 Q88.0984 219.779 93.9086 219.779 Z" fill="#000000" fill-rule="evenodd" fill-opacity="1" /><path clip-path="url(#clip720)" d="M 0 0 M124.07 223.482 Q120.459 223.482 118.631 227.047 Q116.825 230.589 116.825 237.718 Q116.825 244.825 118.631 248.39 Q120.459 251.931 124.07 251.931 Q127.705 251.931 129.51 248.39 Q131.339 244.825 131.339 237.718 Q131.339 230.589 129.51 227.047 Q127.705 223.482 124.07 223.482 M124.07 219.779 Q129.881 219.779 132.936 224.385 Q136.015 228.969 136.015 237.718 Q136.015 246.445 132.936 251.052 Q129.881 255.635 124.07 255.635 Q118.26 255.635 115.182 251.052 Q112.126 246.445 112.126 237.718 Q112.126 228.969 115.182 224.385 Q118.26 219.779 124.07 219.779 Z" fill="#000000" fill-rule="evenodd" fill-opacity="1" /><path clip-path="url(#clip720)" d="M 0 0 M1179.36 18.8205 L1179.36 65.8515 L1189.25 65.8515 Q1201.76 65.8515 1207.56 60.1802 Q1213.39 54.509 1213.39 42.2752 Q1213.39 30.1225 1207.56 24.4918 Q1201.76 18.8205 1189.25 18.8205 L1179.36 18.8205 M1171.18 12.096 L1187.99 12.096 Q1205.57 12.096 1213.79 19.4281 Q1222.02 26.7198 1222.02 42.2752 Q1222.02 57.9117 1213.75 65.2439 Q1205.49 72.576 1187.99 72.576 L1171.18 72.576 L1171.18 12.096 Z" fill="#000000" fill-rule="evenodd" fill-opacity="1" /><path clip-path="url(#clip720)" d="M 0 0 M1255.36 49.7694 Q1246.32 49.7694 1242.84 51.8354 Q1239.36 53.9013 1239.36 58.8839 Q1239.36 62.8538 1241.95 65.2034 Q1244.58 67.5124 1249.08 67.5124 Q1255.28 67.5124 1259 63.1374 Q1262.77 58.7219 1262.77 51.4303 L1262.77 49.7694 L1255.36 49.7694 M1270.22 46.6907 L1270.22 72.576 L1262.77 72.576 L1262.77 65.6895 Q1260.22 69.8214 1256.41 71.8063 Q1252.6 73.7508 1247.09 73.7508 Q1240.13 73.7508 1235.99 69.8619 Q1231.9 65.9325 1231.9 59.3701 Q1231.9 51.7138 1237.01 47.825 Q1242.15 43.9361 1252.32 43.9361 L1262.77 43.9361 L1262.77 43.2069 Q1262.77 38.0623 1259.37 35.2672 Q1256.01 32.4315 1249.89 32.4315 Q1246 32.4315 1242.31 33.3632 Q1238.63 34.295 1235.22 36.1584 L1235.22 29.2718 Q1239.32 27.692 1243.16 26.9223 Q1247.01 26.1121 1250.66 26.1121 Q1260.5 26.1121 1265.36 31.2163 Q1270.22 36.3204 1270.22 46.6907 Z" fill="#000000" fill-rule="evenodd" fill-opacity="1" /><path clip-path="url(#clip720)" d="M 0 0 M1292.95 14.324 L1292.95 27.2059 L1308.3 27.2059 L1308.3 32.9987 L1292.95 32.9987 L1292.95 57.6282 Q1292.95 63.1779 1294.45 64.7578 Q1295.99 66.3376 1300.65 66.3376 L1308.3 66.3376 L1308.3 72.576 L1300.65 72.576 Q1292.02 72.576 1288.74 69.3758 Q1285.46 66.1351 1285.46 57.6282 L1285.46 32.9987 L1279.99 32.9987 L1279.99 27.2059 L1285.46 27.2059 L1285.46 14.324 L1292.95 14.324 Z" fill="#000000" fill-rule="evenodd" fill-opacity="1" /><path clip-path="url(#clip720)" d="M 0 0 M1338.72 49.7694 Q1329.69 49.7694 1326.21 51.8354 Q1322.72 53.9013 1322.72 58.8839 Q1322.72 62.8538 1325.32 65.2034 Q1327.95 67.5124 1332.45 67.5124 Q1338.64 67.5124 1342.37 63.1374 Q1346.14 58.7219 1346.14 51.4303 L1346.14 49.7694 L1338.72 49.7694 M1353.59 46.6907 L1353.59 72.576 L1346.14 72.576 L1346.14 65.6895 Q1343.59 69.8214 1339.78 71.8063 Q1335.97 73.7508 1330.46 73.7508 Q1323.49 73.7508 1319.36 69.8619 Q1315.27 65.9325 1315.27 59.3701 Q1315.27 51.7138 1320.37 47.825 Q1325.52 43.9361 1335.69 43.9361 L1346.14 43.9361 L1346.14 43.2069 Q1346.14 38.0623 1342.74 35.2672 Q1339.37 32.4315 1333.26 32.4315 Q1329.37 32.4315 1325.68 33.3632 Q1321.99 34.295 1318.59 36.1584 L1318.59 29.2718 Q1322.68 27.692 1326.53 26.9223 Q1330.38 26.1121 1334.03 26.1121 Q1343.87 26.1121 1348.73 31.2163 Q1353.59 36.3204 1353.59 46.6907 Z" fill="#000000" fill-rule="evenodd" fill-opacity="1" /><polyline clip-path="url(#clip722)" style="stroke:#009af9; stroke-width:4; stroke-opacity:1; fill:none" points="
  233.734,1447.87 233.734,1387.36 268.022,1387.36 268.022,1311.73 302.311,1311.73 302.311,1251.22 336.599,1251.22 336.599,1190.71 370.887,1190.71 370.887,1266.34 
  405.176,1266.34 405.176,1009.18 439.464,1009.18 439.464,963.797 473.753,963.797 473.753,857.906 508.041,857.906 508.041,842.778 542.329,842.778 542.329,676.377 
  576.618,676.377 576.618,903.288 610.906,903.288 610.906,963.797 645.194,963.797 645.194,842.778 679.483,842.778 713.771,842.778 713.771,1160.45 
  748.06,1160.45 748.06,1205.84 782.348,1205.84 782.348,1220.96 816.636,1220.96 816.636,1236.09 850.925,1236.09 850.925,1357.11 885.213,1357.11 885.213,1296.6 
  919.502,1296.6 919.502,1372.24 953.79,1372.24 953.79,1447.87 988.078,1447.87 988.078,1372.24 1022.37,1372.24 1022.37,1432.75 1056.66,1432.75 
  1090.94,1432.75 1090.94,1402.49 1125.23,1402.49 1159.52,1402.49 1159.52,1357.11 1193.81,1357.11 1193.81,1281.47 1228.1,1281.47 
  1262.39,1281.47 1262.39,1220.96 1296.67,1220.96 1296.67,1145.33 1330.96,1145.33 1330.96,1115.07 1365.25,1115.07 1365.25,857.906 1399.54,857.906 1399.54,888.161 
  1433.83,888.161 1433.83,782.269 1468.12,782.269 1468.12,358.703 1502.4,358.703 1502.4,283.066 1536.69,283.066 1536.69,162.047 1570.98,162.047 1570.98,192.302 
  1605.27,192.302 1605.27,283.066 1639.56,283.066 1639.56,237.684 1673.85,237.684 1673.85,479.722 1708.13,479.722 1708.13,646.123 1742.42,646.123 
  1776.71,646.123 1776.71,752.014 1811,752.014 1811,933.543 1845.29,933.543 1845.29,1084.82 1879.58,1084.82 1879.58,1220.96 1913.86,1220.96 1913.86,1281.47 
  1948.15,1281.47 1948.15,1372.24 1982.44,1372.24 1982.44,1341.98 2016.73,1341.98 2016.73,1402.49 2051.02,1402.49 2051.02,1447.87 2085.31,1447.87 
  2119.59,1447.87 2119.59,1432.75 2153.88,1432.75 2153.88,1447.87 2188.17,1447.87 2222.46,1447.87 2256.75,1447.87 
  2291.04,1447.87 
  "/>
<path clip-path="url(#clip720)" d="
M1933.52 289.865 L2280.06 289.865 L2280.06 168.905 L1933.52 168.905  Z
  " fill="#ffffff" fill-rule="evenodd" fill-opacity="1"/>
<polyline clip-path="url(#clip720)" style="stroke:#000000; stroke-width:4; stroke-opacity:1; fill:none" points="
  1933.52,289.865 2280.06,289.865 2280.06,168.905 1933.52,168.905 1933.52,289.865 
  "/>
<polyline clip-path="url(#clip720)" style="stroke:#009af9; stroke-width:4; stroke-opacity:1; fill:none" points="
  1957.75,229.385 2103.14,229.385 
  "/>
<path clip-path="url(#clip720)" d="M 0 0 M2132.04 215.947 L2132.04 242.822 L2137.69 242.822 Q2144.84 242.822 2148.15 239.581 Q2151.49 236.341 2151.49 229.35 Q2151.49 222.406 2148.15 219.188 Q2144.84 215.947 2137.69 215.947 L2132.04 215.947 M2127.37 212.105 L2136.97 212.105 Q2147.02 212.105 2151.72 216.294 Q2156.42 220.461 2156.42 229.35 Q2156.42 238.285 2151.7 242.475 Q2146.97 246.665 2136.97 246.665 L2127.37 246.665 L2127.37 212.105 Z" fill="#000000" fill-rule="evenodd" fill-opacity="1" /><path clip-path="url(#clip720)" d="M 0 0 M2175.47 233.632 Q2170.31 233.632 2168.32 234.813 Q2166.33 235.993 2166.33 238.841 Q2166.33 241.109 2167.81 242.452 Q2169.31 243.771 2171.88 243.771 Q2175.42 243.771 2177.55 241.271 Q2179.71 238.748 2179.71 234.581 L2179.71 233.632 L2175.47 233.632 M2183.96 231.873 L2183.96 246.665 L2179.71 246.665 L2179.71 242.729 Q2178.25 245.091 2176.07 246.225 Q2173.9 247.336 2170.75 247.336 Q2166.77 247.336 2164.4 245.114 Q2162.07 242.868 2162.07 239.118 Q2162.07 234.743 2164.98 232.521 Q2167.92 230.299 2173.73 230.299 L2179.71 230.299 L2179.71 229.882 Q2179.71 226.943 2177.76 225.345 Q2175.84 223.725 2172.34 223.725 Q2170.12 223.725 2168.02 224.257 Q2165.91 224.79 2163.97 225.855 L2163.97 221.919 Q2166.3 221.017 2168.5 220.577 Q2170.7 220.114 2172.78 220.114 Q2178.41 220.114 2181.19 223.031 Q2183.96 225.947 2183.96 231.873 Z" fill="#000000" fill-rule="evenodd" fill-opacity="1" /><path clip-path="url(#clip720)" d="M 0 0 M2196.95 213.378 L2196.95 220.739 L2205.72 220.739 L2205.72 224.049 L2196.95 224.049 L2196.95 238.123 Q2196.95 241.294 2197.81 242.197 Q2198.69 243.1 2201.35 243.1 L2205.72 243.1 L2205.72 246.665 L2201.35 246.665 Q2196.42 246.665 2194.54 244.836 Q2192.67 242.984 2192.67 238.123 L2192.67 224.049 L2189.54 224.049 L2189.54 220.739 L2192.67 220.739 L2192.67 213.378 L2196.95 213.378 Z" fill="#000000" fill-rule="evenodd" fill-opacity="1" /><path clip-path="url(#clip720)" d="M 0 0 M2223.11 233.632 Q2217.95 233.632 2215.96 234.813 Q2213.96 235.993 2213.96 238.841 Q2213.96 241.109 2215.45 242.452 Q2216.95 243.771 2219.52 243.771 Q2223.06 243.771 2225.19 241.271 Q2227.34 238.748 2227.34 234.581 L2227.34 233.632 L2223.11 233.632 M2231.6 231.873 L2231.6 246.665 L2227.34 246.665 L2227.34 242.729 Q2225.89 245.091 2223.71 246.225 Q2221.53 247.336 2218.39 247.336 Q2214.4 247.336 2212.04 245.114 Q2209.71 242.868 2209.71 239.118 Q2209.71 234.743 2212.62 232.521 Q2215.56 230.299 2221.37 230.299 L2227.34 230.299 L2227.34 229.882 Q2227.34 226.943 2225.4 225.345 Q2223.48 223.725 2219.98 223.725 Q2217.76 223.725 2215.65 224.257 Q2213.55 224.79 2211.6 225.855 L2211.6 221.919 Q2213.94 221.017 2216.14 220.577 Q2218.34 220.114 2220.42 220.114 Q2226.05 220.114 2228.83 223.031 Q2231.6 225.947 2231.6 231.873 Z" fill="#000000" fill-rule="evenodd" fill-opacity="1" /></svg>
