<?xml version="1.0" encoding="utf-8"?>
<svg xmlns="http://www.w3.org/2000/svg" xmlns:xlink="http://www.w3.org/1999/xlink" width="600" height="400" viewBox="0 0 2400 1600">
<defs>
  <clipPath id="clip8600">
    <rect x="0" y="0" width="2400" height="1600"/>
  </clipPath>
</defs>
<path clip-path="url(#clip8600)" d="
M0 1600 L2400 1600 L2400 0 L0 0  Z
  " fill="#ffffff" fill-rule="evenodd" fill-opacity="1"/>
<defs>
  <clipPath id="clip8601">
    <rect x="480" y="0" width="1681" height="1600"/>
  </clipPath>
</defs>
<path clip-path="url(#clip8600)" d="
M167.279 1487.47 L2352.76 1487.47 L2352.76 121.675 L167.279 121.675  Z
  " fill="#ffffff" fill-rule="evenodd" fill-opacity="1"/>
<defs>
  <clipPath id="clip8602">
    <rect x="167" y="121" width="2186" height="1367"/>
  </clipPath>
</defs>
<polyline clip-path="url(#clip8602)" style="stroke:#000000; stroke-width:2; stroke-opacity:0.1; fill:none" points="
  229.132,1487.47 229.132,121.675 
  "/>
<polyline clip-path="url(#clip8602)" style="stroke:#000000; stroke-width:2; stroke-opacity:0.1; fill:none" points="
  744.575,1487.47 744.575,121.675 
  "/>
<polyline clip-path="url(#clip8602)" style="stroke:#000000; stroke-width:2; stroke-opacity:0.1; fill:none" points="
  1260.02,1487.47 1260.02,121.675 
  "/>
<polyline clip-path="url(#clip8602)" style="stroke:#000000; stroke-width:2; stroke-opacity:0.1; fill:none" points="
  1775.46,1487.47 1775.46,121.675 
  "/>
<polyline clip-path="url(#clip8602)" style="stroke:#000000; stroke-width:2; stroke-opacity:0.1; fill:none" points="
  2290.9,1487.47 2290.9,121.675 
  "/>
<polyline clip-path="url(#clip8602)" style="stroke:#000000; stroke-width:2; stroke-opacity:0.1; fill:none" points="
  167.279,1448.82 2352.76,1448.82 
  "/>
<polyline clip-path="url(#clip8602)" style="stroke:#000000; stroke-width:2; stroke-opacity:0.1; fill:none" points="
  167.279,1142.04 2352.76,1142.04 
  "/>
<polyline clip-path="url(#clip8602)" style="stroke:#000000; stroke-width:2; stroke-opacity:0.1; fill:none" points="
  167.279,835.253 2352.76,835.253 
  "/>
<polyline clip-path="url(#clip8602)" style="stroke:#000000; stroke-width:2; stroke-opacity:0.1; fill:none" points="
  167.279,528.47 2352.76,528.47 
  "/>
<polyline clip-path="url(#clip8602)" style="stroke:#000000; stroke-width:2; stroke-opacity:0.1; fill:none" points="
  167.279,221.687 2352.76,221.687 
  "/>
<polyline clip-path="url(#clip8600)" style="stroke:#000000; stroke-width:4; stroke-opacity:1; fill:none" points="
  167.279,1487.47 2352.76,1487.47 
  "/>
<polyline clip-path="url(#clip8600)" style="stroke:#000000; stroke-width:4; stroke-opacity:1; fill:none" points="
  167.279,1487.47 167.279,121.675 
  "/>
<polyline clip-path="url(#clip8600)" style="stroke:#000000; stroke-width:4; stroke-opacity:1; fill:none" points="
  229.132,1487.47 229.132,1466.99 
  "/>
<polyline clip-path="url(#clip8600)" style="stroke:#000000; stroke-width:4; stroke-opacity:1; fill:none" points="
  744.575,1487.47 744.575,1466.99 
  "/>
<polyline clip-path="url(#clip8600)" style="stroke:#000000; stroke-width:4; stroke-opacity:1; fill:none" points="
  1260.02,1487.47 1260.02,1466.99 
  "/>
<polyline clip-path="url(#clip8600)" style="stroke:#000000; stroke-width:4; stroke-opacity:1; fill:none" points="
  1775.46,1487.47 1775.46,1466.99 
  "/>
<polyline clip-path="url(#clip8600)" style="stroke:#000000; stroke-width:4; stroke-opacity:1; fill:none" points="
  2290.9,1487.47 2290.9,1466.99 
  "/>
<polyline clip-path="url(#clip8600)" style="stroke:#000000; stroke-width:4; stroke-opacity:1; fill:none" points="
  167.279,1448.82 200.061,1448.82 
  "/>
<polyline clip-path="url(#clip8600)" style="stroke:#000000; stroke-width:4; stroke-opacity:1; fill:none" points="
  167.279,1142.04 200.061,1142.04 
  "/>
<polyline clip-path="url(#clip8600)" style="stroke:#000000; stroke-width:4; stroke-opacity:1; fill:none" points="
  167.279,835.253 200.061,835.253 
  "/>
<polyline clip-path="url(#clip8600)" style="stroke:#000000; stroke-width:4; stroke-opacity:1; fill:none" points="
  167.279,528.47 200.061,528.47 
  "/>
<polyline clip-path="url(#clip8600)" style="stroke:#000000; stroke-width:4; stroke-opacity:1; fill:none" points="
  167.279,221.687 200.061,221.687 
  "/>
<g clip-path="url(#clip8600)">
<text style="fill:#000000; fill-opacity:1; font-family:Arial,Helvetica Neue,Helvetica,sans-serif; font-size:48px; text-anchor:middle;" transform="rotate(0, 229.132, 1541.47)" x="229.132" y="1541.47">-4</text>
</g>
<g clip-path="url(#clip8600)">
<text style="fill:#000000; fill-opacity:1; font-family:Arial,Helvetica Neue,Helvetica,sans-serif; font-size:48px; text-anchor:middle;" transform="rotate(0, 744.575, 1541.47)" x="744.575" y="1541.47">-2</text>
</g>
<g clip-path="url(#clip8600)">
<text style="fill:#000000; fill-opacity:1; font-family:Arial,Helvetica Neue,Helvetica,sans-serif; font-size:48px; text-anchor:middle;" transform="rotate(0, 1260.02, 1541.47)" x="1260.02" y="1541.47">0</text>
</g>
<g clip-path="url(#clip8600)">
<text style="fill:#000000; fill-opacity:1; font-family:Arial,Helvetica Neue,Helvetica,sans-serif; font-size:48px; text-anchor:middle;" transform="rotate(0, 1775.46, 1541.47)" x="1775.46" y="1541.47">2</text>
</g>
<g clip-path="url(#clip8600)">
<text style="fill:#000000; fill-opacity:1; font-family:Arial,Helvetica Neue,Helvetica,sans-serif; font-size:48px; text-anchor:middle;" transform="rotate(0, 2290.9, 1541.47)" x="2290.9" y="1541.47">4</text>
</g>
<g clip-path="url(#clip8600)">
<text style="fill:#000000; fill-opacity:1; font-family:Arial,Helvetica Neue,Helvetica,sans-serif; font-size:48px; text-anchor:end;" transform="rotate(0, 143.279, 1466.32)" x="143.279" y="1466.32">0</text>
</g>
<g clip-path="url(#clip8600)">
<text style="fill:#000000; fill-opacity:1; font-family:Arial,Helvetica Neue,Helvetica,sans-serif; font-size:48px; text-anchor:end;" transform="rotate(0, 143.279, 1159.54)" x="143.279" y="1159.54">200</text>
</g>
<g clip-path="url(#clip8600)">
<text style="fill:#000000; fill-opacity:1; font-family:Arial,Helvetica Neue,Helvetica,sans-serif; font-size:48px; text-anchor:end;" transform="rotate(0, 143.279, 852.753)" x="143.279" y="852.753">400</text>
</g>
<g clip-path="url(#clip8600)">
<text style="fill:#000000; fill-opacity:1; font-family:Arial,Helvetica Neue,Helvetica,sans-serif; font-size:48px; text-anchor:end;" transform="rotate(0, 143.279, 545.97)" x="143.279" y="545.97">600</text>
</g>
<g clip-path="url(#clip8600)">
<text style="fill:#000000; fill-opacity:1; font-family:Arial,Helvetica Neue,Helvetica,sans-serif; font-size:48px; text-anchor:end;" transform="rotate(0, 143.279, 239.187)" x="143.279" y="239.187">800</text>
</g>
<g clip-path="url(#clip8600)">
<text style="fill:#000000; fill-opacity:1; font-family:Arial,Helvetica Neue,Helvetica,sans-serif; font-size:84px; text-anchor:middle;" transform="rotate(0, 1260.02, 73.2)" x="1260.02" y="73.2">Data, True Model and Best Fit</text>
</g>
<polyline clip-path="url(#clip8602)" style="stroke:#009af9; stroke-width:4; stroke-opacity:1; fill:none" points="
  744.575,1448.82 744.575,1295.43 770.347,1295.43 770.347,1326.11 796.119,1326.11 796.119,1157.38 821.891,1157.38 821.891,1172.71 847.663,1172.71 847.663,1249.41 
  873.436,1249.41 873.436,973.306 899.208,973.306 899.208,865.932 924.98,865.932 924.98,927.288 950.752,927.288 950.752,942.627 976.524,942.627 976.524,712.54 
  1002.3,712.54 1002.3,896.61 1028.07,896.61 1028.07,1003.98 1053.84,1003.98 1053.84,927.288 1079.61,927.288 1079.61,942.627 1105.38,942.627 1105.38,1111.36 
  1131.16,1111.36 1131.16,1065.34 1156.93,1065.34 1156.93,1096.02 1182.7,1096.02 1182.7,1280.09 1208.47,1280.09 1208.47,1264.75 1234.25,1264.75 1234.25,1387.46 
  1260.02,1387.46 1260.02,1356.79 1285.79,1356.79 1285.79,1402.8 1311.56,1402.8 1311.56,1448.82 1337.33,1448.82 1363.11,1448.82 
  1388.88,1448.82 1414.65,1448.82 1414.65,1387.46 1440.42,1387.46 1440.42,1418.14 1466.19,1418.14 1466.19,1326.11 1491.97,1326.11 1491.97,1264.75 
  1517.74,1264.75 1517.74,1356.79 1543.51,1356.79 1543.51,1203.39 1569.28,1203.39 1569.28,988.645 1595.06,988.645 1595.06,973.306 1620.83,973.306 1620.83,681.862 
  1646.6,681.862 1646.6,405.757 1672.37,405.757 1672.37,543.809 1698.14,543.809 1698.14,467.113 1723.92,467.113 1723.92,359.739 1749.69,359.739 
  1775.46,359.739 1775.46,283.043 1801.23,283.043 1801.23,160.33 1827,160.33 1827,359.739 1852.78,359.739 1852.78,666.522 1878.55,666.522 1878.55,605.166 
  1904.32,605.166 1904.32,789.236 1930.09,789.236 1930.09,988.645 1955.87,988.645 1955.87,942.627 1981.64,942.627 1981.64,1050 2007.41,1050 2007.41,1264.75 
  2033.18,1264.75 2033.18,1280.09 2058.95,1280.09 2058.95,1341.45 2084.73,1341.45 2084.73,1356.79 2110.5,1356.79 2110.5,1433.48 2136.27,1433.48 2136.27,1448.82 
  2162.04,1448.82 2162.04,1433.48 2187.81,1433.48 2213.59,1433.48 2213.59,1448.82 2239.36,1448.82 2265.13,1448.82 
  2290.9,1448.82 
  "/>
<polyline clip-path="url(#clip8602)" style="stroke:#e26f46; stroke-width:4; stroke-opacity:1; fill:none" points="
  229.132,1448.82 231.709,1448.82 234.287,1448.82 236.864,1448.82 239.441,1448.82 242.018,1448.82 244.596,1448.82 247.173,1448.82 249.75,1448.82 252.327,1448.82 
  254.904,1448.82 257.482,1448.82 260.059,1448.82 262.636,1448.82 265.213,1448.82 267.79,1448.82 270.368,1448.82 272.945,1448.82 275.522,1448.82 278.099,1448.82 
  280.677,1448.82 283.254,1448.82 285.831,1448.82 288.408,1448.82 290.985,1448.82 293.563,1448.82 296.14,1448.82 298.717,1448.82 301.294,1448.82 303.871,1448.82 
  306.449,1448.82 309.026,1448.82 311.603,1448.82 314.18,1448.82 316.758,1448.82 319.335,1448.82 321.912,1448.82 324.489,1448.82 327.066,1448.82 329.644,1448.82 
  332.221,1448.82 334.798,1448.82 337.375,1448.82 339.952,1448.82 342.53,1448.82 345.107,1448.82 347.684,1448.82 350.261,1448.82 352.838,1448.82 355.416,1448.82 
  357.993,1448.82 360.57,1448.82 363.147,1448.82 365.725,1448.82 368.302,1448.82 370.879,1448.82 373.456,1448.82 376.033,1448.82 378.611,1448.82 381.188,1448.81 
  383.765,1448.81 386.342,1448.81 388.919,1448.81 391.497,1448.81 394.074,1448.81 396.651,1448.81 399.228,1448.81 401.806,1448.81 404.383,1448.81 406.96,1448.81 
  409.537,1448.8 412.114,1448.8 414.692,1448.8 417.269,1448.8 419.846,1448.8 422.423,1448.8 425,1448.79 427.578,1448.79 430.155,1448.79 432.732,1448.78 
  435.309,1448.78 437.887,1448.78 440.464,1448.77 443.041,1448.77 445.618,1448.77 448.195,1448.76 450.773,1448.76 453.35,1448.75 455.927,1448.74 458.504,1448.74 
  461.081,1448.73 463.659,1448.72 466.236,1448.71 468.813,1448.7 471.39,1448.69 473.968,1448.68 476.545,1448.67 479.122,1448.66 481.699,1448.65 484.276,1448.63 
  486.854,1448.61 489.431,1448.6 492.008,1448.58 494.585,1448.56 497.162,1448.54 499.74,1448.52 502.317,1448.49 504.894,1448.46 507.471,1448.44 510.048,1448.41 
  512.626,1448.37 515.203,1448.34 517.78,1448.3 520.357,1448.26 522.935,1448.22 525.512,1448.17 528.089,1448.12 530.666,1448.07 533.243,1448.01 535.821,1447.95 
  538.398,1447.88 540.975,1447.81 543.552,1447.74 546.129,1447.66 548.707,1447.57 551.284,1447.48 553.861,1447.38 556.438,1447.28 559.016,1447.17 561.593,1447.05 
  564.17,1446.93 566.747,1446.8 569.324,1446.66 571.902,1446.51 574.479,1446.35 577.056,1446.18 579.633,1446 582.21,1445.81 584.788,1445.6 587.365,1445.39 
  589.942,1445.16 592.519,1444.92 595.097,1444.67 597.674,1444.4 600.251,1444.11 602.828,1443.81 605.405,1443.49 607.983,1443.15 610.56,1442.8 613.137,1442.42 
  615.714,1442.02 618.291,1441.6 620.869,1441.16 623.446,1440.7 626.023,1440.21 628.6,1439.69 631.178,1439.15 633.755,1438.57 636.332,1437.97 638.909,1437.34 
  641.486,1436.68 644.064,1435.98 646.641,1435.25 649.218,1434.48 651.795,1433.68 654.372,1432.84 656.95,1431.95 659.527,1431.03 662.104,1430.06 664.681,1429.04 
  667.258,1427.98 669.836,1426.88 672.413,1425.72 674.99,1424.51 677.567,1423.25 680.145,1421.93 682.722,1420.56 685.299,1419.13 687.876,1417.64 690.453,1416.09 
  693.031,1414.47 695.608,1412.79 698.185,1411.04 700.762,1409.22 703.339,1407.33 705.917,1405.37 708.494,1403.33 711.071,1401.22 713.648,1399.03 716.226,1396.76 
  718.803,1394.4 721.38,1391.97 723.957,1389.45 726.534,1386.84 729.112,1384.14 731.689,1381.35 734.266,1378.47 736.843,1375.5 739.42,1372.43 741.998,1369.27 
  744.575,1366 747.152,1362.64 749.729,1359.18 752.307,1355.61 754.884,1351.94 757.461,1348.17 760.038,1344.29 762.615,1340.31 765.193,1336.22 767.77,1332.02 
  770.347,1327.72 772.924,1323.3 775.501,1318.78 778.079,1314.15 780.656,1309.41 783.233,1304.56 785.81,1299.6 788.388,1294.53 790.965,1289.35 793.542,1284.07 
  796.119,1278.68 798.696,1273.18 801.274,1267.58 803.851,1261.87 806.428,1256.06 809.005,1250.15 811.582,1244.14 814.16,1238.03 816.737,1231.83 819.314,1225.54 
  821.891,1219.15 824.469,1212.68 827.046,1206.12 829.623,1199.47 832.2,1192.75 834.777,1185.95 837.355,1179.08 839.932,1172.15 842.509,1165.14 845.086,1158.08 
  847.663,1150.95 850.241,1143.78 852.818,1136.56 855.395,1129.29 857.972,1121.99 860.549,1114.65 863.127,1107.29 865.704,1099.9 868.281,1092.5 870.858,1085.08 
  873.436,1077.66 876.013,1070.23 878.59,1062.82 881.167,1055.41 883.744,1048.03 886.322,1040.67 888.899,1033.34 891.476,1026.04 894.053,1018.8 896.63,1011.6 
  899.208,1004.46 901.785,997.381 904.362,990.375 906.939,983.446 909.517,976.602 912.094,969.848 914.671,963.193 917.248,956.642 919.825,950.202 922.403,943.879 
  924.98,937.681 927.557,931.614 930.134,925.684 932.711,919.898 935.289,914.261 937.866,908.781 940.443,903.463 943.02,898.312 945.598,893.335 948.175,888.537 
  950.752,883.924 953.329,879.501 955.906,875.272 958.484,871.243 961.061,867.419 963.638,863.803 966.215,860.4 968.792,857.214 971.37,854.248 973.947,851.507 
  976.524,848.993 979.101,846.709 981.679,844.659 984.256,842.843 986.833,841.266 989.41,839.928 991.987,838.831 994.565,837.976 997.142,837.365 999.719,836.998 
  1002.3,836.876 1004.87,836.998 1007.45,837.365 1010.03,837.976 1012.61,838.831 1015.18,839.928 1017.76,841.266 1020.34,842.843 1022.91,844.659 1025.49,846.709 
  1028.07,848.993 1030.65,851.507 1033.22,854.248 1035.8,857.214 1038.38,860.4 1040.95,863.803 1043.53,867.419 1046.11,871.243 1048.69,875.272 1051.26,879.501 
  1053.84,883.924 1056.42,888.537 1058.99,893.335 1061.57,898.312 1064.15,903.462 1066.73,908.781 1069.3,914.261 1071.88,919.897 1074.46,925.684 1077.04,931.614 
  1079.61,937.681 1082.19,943.879 1084.77,950.201 1087.34,956.641 1089.92,963.192 1092.5,969.847 1095.08,976.601 1097.65,983.445 1100.23,990.373 1102.81,997.379 
  1105.38,1004.46 1107.96,1011.6 1110.54,1018.79 1113.12,1026.04 1115.69,1033.33 1118.27,1040.66 1120.85,1048.03 1123.43,1055.41 1126,1062.81 1128.58,1070.23 
  1131.16,1077.65 1133.73,1085.07 1136.31,1092.49 1138.89,1099.89 1141.47,1107.28 1144.04,1114.65 1146.62,1121.98 1149.2,1129.28 1151.77,1136.55 1154.35,1143.77 
  1156.93,1150.94 1159.51,1158.06 1162.08,1165.13 1164.66,1172.13 1167.24,1179.07 1169.82,1185.94 1172.39,1192.73 1174.97,1199.45 1177.55,1206.09 1180.12,1212.65 
  1182.7,1219.12 1185.28,1225.5 1187.86,1231.79 1190.43,1237.99 1193.01,1244.1 1195.59,1250.1 1198.16,1256.01 1200.74,1261.81 1203.32,1267.51 1205.9,1273.11 
  1208.47,1278.6 1211.05,1283.98 1213.63,1289.26 1216.2,1294.43 1218.78,1299.49 1221.36,1304.44 1223.94,1309.28 1226.51,1314.01 1229.09,1318.63 1231.67,1323.14 
  1234.25,1327.54 1236.82,1331.83 1239.4,1336.01 1241.98,1340.08 1244.55,1344.04 1247.13,1347.9 1249.71,1351.65 1252.29,1355.29 1254.86,1358.83 1257.44,1362.26 
  1260.02,1365.59 1262.59,1368.82 1265.17,1371.95 1267.75,1374.98 1270.33,1377.91 1272.9,1380.74 1275.48,1383.48 1278.06,1386.13 1280.64,1388.68 1283.21,1391.14 
  1285.79,1393.51 1288.37,1395.79 1290.94,1397.99 1293.52,1400.1 1296.1,1402.12 1298.68,1404.07 1301.25,1405.93 1303.83,1407.71 1306.41,1409.41 1308.98,1411.04 
  1311.56,1412.59 1314.14,1414.07 1316.72,1415.47 1319.29,1416.8 1321.87,1418.06 1324.45,1419.26 1327.03,1420.38 1329.6,1421.43 1332.18,1422.42 1334.76,1423.35 
  1337.33,1424.2 1339.91,1425 1342.49,1425.73 1345.07,1426.4 1347.64,1427.01 1350.22,1427.55 1352.8,1428.03 1355.37,1428.46 1357.95,1428.82 1360.53,1429.12 
  1363.11,1429.36 1365.68,1429.55 1368.26,1429.67 1370.84,1429.73 1373.41,1429.73 1375.99,1429.67 1378.57,1429.54 1381.15,1429.36 1383.72,1429.11 1386.3,1428.8 
  1388.88,1428.43 1391.46,1427.99 1394.03,1427.48 1396.61,1426.9 1399.19,1426.26 1401.76,1425.55 1404.34,1424.76 1406.92,1423.91 1409.5,1422.97 1412.07,1421.97 
  1414.65,1420.88 1417.23,1419.71 1419.8,1418.47 1422.38,1417.13 1424.96,1415.71 1427.54,1414.21 1430.11,1412.61 1432.69,1410.92 1435.27,1409.13 1437.85,1407.25 
  1440.42,1405.26 1443,1403.17 1445.58,1400.97 1448.15,1398.66 1450.73,1396.24 1453.31,1393.71 1455.89,1391.05 1458.46,1388.28 1461.04,1385.37 1463.62,1382.34 
  1466.19,1379.18 1468.77,1375.88 1471.35,1372.44 1473.93,1368.86 1476.5,1365.14 1479.08,1361.27 1481.66,1357.24 1484.24,1353.06 1486.81,1348.72 1489.39,1344.21 
  1491.97,1339.54 1494.54,1334.7 1497.12,1329.69 1499.7,1324.5 1502.28,1319.13 1504.85,1313.58 1507.43,1307.84 1510.01,1301.92 1512.58,1295.8 1515.16,1289.49 
  1517.74,1282.98 1520.32,1276.27 1522.89,1269.36 1525.47,1262.24 1528.05,1254.92 1530.62,1247.38 1533.2,1239.64 1535.78,1231.68 1538.36,1223.51 1540.93,1215.13 
  1543.51,1206.52 1546.09,1197.7 1548.67,1188.66 1551.24,1179.41 1553.82,1169.93 1556.4,1160.23 1558.97,1150.32 1561.55,1140.19 1564.13,1129.84 1566.71,1119.27 
  1569.28,1108.5 1571.86,1097.5 1574.44,1086.3 1577.01,1074.89 1579.59,1063.27 1582.17,1051.46 1584.75,1039.44 1587.32,1027.23 1589.9,1014.83 1592.48,1002.24 
  1595.06,989.465 1597.63,976.518 1600.21,963.4 1602.79,950.116 1605.36,936.674 1607.94,923.08 1610.52,909.34 1613.1,895.463 1615.67,881.456 1618.25,867.326 
  1620.83,853.083 1623.4,838.736 1625.98,824.292 1628.56,809.762 1631.14,795.155 1633.71,780.482 1636.29,765.753 1638.87,750.978 1641.45,736.169 1644.02,721.336 
  1646.6,706.492 1649.18,691.647 1651.75,676.815 1654.33,662.007 1656.91,647.236 1659.49,632.513 1662.06,617.853 1664.64,603.268 1667.22,588.771 1669.79,574.375 
  1672.37,560.094 1674.95,545.94 1677.53,531.928 1680.1,518.072 1682.68,504.383 1685.26,490.876 1687.83,477.565 1690.41,464.463 1692.99,451.583 1695.57,438.938 
  1698.14,426.542 1700.72,414.408 1703.3,402.548 1705.88,390.976 1708.45,379.703 1711.03,368.742 1713.61,358.105 1716.18,347.804 1718.76,337.85 1721.34,328.255 
  1723.92,319.028 1726.49,310.182 1729.07,301.724 1731.65,293.667 1734.22,286.017 1736.8,278.786 1739.38,271.98 1741.96,265.608 1744.53,259.677 1747.11,254.194 
  1749.69,249.166 1752.27,244.599 1754.84,240.497 1757.42,236.867 1760,233.712 1762.57,231.036 1765.15,228.842 1767.73,227.132 1770.31,225.91 1772.88,225.176 
  1775.46,224.931 1778.04,225.176 1780.61,225.91 1783.19,227.132 1785.77,228.842 1788.35,231.036 1790.92,233.712 1793.5,236.867 1796.08,240.497 1798.66,244.599 
  1801.23,249.166 1803.81,254.194 1806.39,259.677 1808.96,265.608 1811.54,271.98 1814.12,278.786 1816.7,286.017 1819.27,293.667 1821.85,301.724 1824.43,310.182 
  1827,319.028 1829.58,328.255 1832.16,337.85 1834.74,347.804 1837.31,358.105 1839.89,368.742 1842.47,379.703 1845.04,390.976 1847.62,402.548 1850.2,414.408 
  1852.78,426.542 1855.35,438.938 1857.93,451.583 1860.51,464.463 1863.09,477.566 1865.66,490.877 1868.24,504.384 1870.82,518.072 1873.39,531.929 1875.97,545.941 
  1878.55,560.094 1881.13,574.376 1883.7,588.772 1886.28,603.269 1888.86,617.854 1891.43,632.515 1894.01,647.237 1896.59,662.009 1899.17,676.817 1901.74,691.65 
  1904.32,706.494 1906.9,721.339 1909.48,736.171 1912.05,750.981 1914.63,765.756 1917.21,780.486 1919.78,795.159 1922.36,809.766 1924.94,824.297 1927.52,838.741 
  1930.09,853.089 1932.67,867.333 1935.25,881.463 1937.82,895.471 1940.4,909.349 1942.98,923.09 1945.56,936.685 1948.13,950.128 1950.71,963.413 1953.29,976.532 
  1955.87,989.481 1958.44,1002.25 1961.02,1014.84 1963.6,1027.25 1966.17,1039.46 1968.75,1051.48 1971.33,1063.3 1973.91,1074.92 1976.48,1086.33 1979.06,1097.54 
  1981.64,1108.53 1984.21,1119.32 1986.79,1129.88 1989.37,1140.24 1991.95,1150.37 1994.52,1160.29 1997.1,1169.99 1999.68,1179.48 2002.25,1188.74 2004.83,1197.79 
  2007.41,1206.61 2009.99,1215.23 2012.56,1223.62 2015.14,1231.8 2017.72,1239.77 2020.3,1247.52 2022.87,1255.07 2025.45,1262.4 2028.03,1269.53 2030.6,1276.46 
  2033.18,1283.18 2035.76,1289.71 2038.34,1296.04 2040.91,1302.18 2043.49,1308.13 2046.07,1313.89 2048.64,1319.46 2051.22,1324.86 2053.8,1330.07 2056.38,1335.12 
  2058.95,1339.99 2061.53,1344.7 2064.11,1349.24 2066.69,1353.62 2069.26,1357.84 2071.84,1361.92 2074.42,1365.84 2076.99,1369.62 2079.57,1373.26 2082.15,1376.75 
  2084.73,1380.12 2087.3,1383.35 2089.88,1386.46 2092.46,1389.44 2095.03,1392.3 2097.61,1395.05 2100.19,1397.68 2102.77,1400.2 2105.34,1402.62 2107.92,1404.93 
  2110.5,1407.15 2113.08,1409.27 2115.65,1411.3 2118.23,1413.23 2120.81,1415.08 2123.38,1416.85 2125.96,1418.54 2128.54,1420.15 2131.12,1421.68 2133.69,1423.14 
  2136.27,1424.54 2138.85,1425.86 2141.42,1427.13 2144,1428.33 2146.58,1429.47 2149.16,1430.56 2151.73,1431.59 2154.31,1432.57 2156.89,1433.5 2159.46,1434.39 
  2162.04,1435.22 2164.62,1436.02 2167.2,1436.77 2169.77,1437.48 2172.35,1438.16 2174.93,1438.8 2177.51,1439.4 2180.08,1439.97 2182.66,1440.51 2185.24,1441.02 
  2187.81,1441.51 2190.39,1441.96 2192.97,1442.39 2195.55,1442.79 2198.12,1443.18 2200.7,1443.54 2203.28,1443.87 2205.85,1444.19 2208.43,1444.49 2211.01,1444.77 
  2213.59,1445.04 2216.16,1445.29 2218.74,1445.52 2221.32,1445.74 2223.9,1445.95 2226.47,1446.14 2229.05,1446.32 2231.63,1446.49 2234.2,1446.65 2236.78,1446.8 
  2239.36,1446.94 2241.94,1447.07 2244.51,1447.2 2247.09,1447.31 2249.67,1447.42 2252.24,1447.52 2254.82,1447.61 2257.4,1447.7 2259.98,1447.78 2262.55,1447.85 
  2265.13,1447.92 2267.71,1447.99 2270.29,1448.05 2272.86,1448.11 2275.44,1448.16 2278.02,1448.21 2280.59,1448.26 2283.17,1448.3 2285.75,1448.34 2288.33,1448.38 
  2290.9,1448.41 
  "/>
<polyline clip-path="url(#clip8602)" style="stroke:#3da44d; stroke-width:4; stroke-opacity:1; fill:none" points="
  229.132,1448.82 231.709,1448.82 234.287,1448.82 236.864,1448.82 239.441,1448.82 242.018,1448.82 244.596,1448.82 247.173,1448.82 249.75,1448.82 252.327,1448.82 
  254.904,1448.82 257.482,1448.82 260.059,1448.82 262.636,1448.82 265.213,1448.82 267.79,1448.82 270.368,1448.82 272.945,1448.82 275.522,1448.82 278.099,1448.82 
  280.677,1448.82 283.254,1448.82 285.831,1448.82 288.408,1448.82 290.985,1448.82 293.563,1448.82 296.14,1448.82 298.717,1448.82 301.294,1448.82 303.871,1448.82 
  306.449,1448.82 309.026,1448.82 311.603,1448.82 314.18,1448.82 316.758,1448.82 319.335,1448.82 321.912,1448.82 324.489,1448.82 327.066,1448.82 329.644,1448.82 
  332.221,1448.82 334.798,1448.82 337.375,1448.82 339.952,1448.82 342.53,1448.82 345.107,1448.82 347.684,1448.82 350.261,1448.82 352.838,1448.82 355.416,1448.82 
  357.993,1448.82 360.57,1448.82 363.147,1448.82 365.725,1448.81 368.302,1448.81 370.879,1448.81 373.456,1448.81 376.033,1448.81 378.611,1448.81 381.188,1448.81 
  383.765,1448.81 386.342,1448.81 388.919,1448.81 391.497,1448.81 394.074,1448.81 396.651,1448.8 399.228,1448.8 401.806,1448.8 404.383,1448.8 406.96,1448.8 
  409.537,1448.79 412.114,1448.79 414.692,1448.79 417.269,1448.79 419.846,1448.78 422.423,1448.78 425,1448.78 427.578,1448.77 430.155,1448.77 432.732,1448.76 
  435.309,1448.76 437.887,1448.75 440.464,1448.75 443.041,1448.74 445.618,1448.74 448.195,1448.73 450.773,1448.72 453.35,1448.71 455.927,1448.7 458.504,1448.69 
  461.081,1448.68 463.659,1448.67 466.236,1448.66 468.813,1448.64 471.39,1448.63 473.968,1448.61 476.545,1448.6 479.122,1448.58 481.699,1448.56 484.276,1448.54 
  486.854,1448.52 489.431,1448.49 492.008,1448.47 494.585,1448.44 497.162,1448.41 499.74,1448.37 502.317,1448.34 504.894,1448.3 507.471,1448.26 510.048,1448.22 
  512.626,1448.18 515.203,1448.13 517.78,1448.07 520.357,1448.02 522.935,1447.96 525.512,1447.9 528.089,1447.83 530.666,1447.76 533.243,1447.68 535.821,1447.6 
  538.398,1447.51 540.975,1447.42 543.552,1447.32 546.129,1447.21 548.707,1447.1 551.284,1446.98 553.861,1446.85 556.438,1446.71 559.016,1446.57 561.593,1446.42 
  564.17,1446.25 566.747,1446.08 569.324,1445.9 571.902,1445.7 574.479,1445.5 577.056,1445.28 579.633,1445.05 582.21,1444.81 584.788,1444.55 587.365,1444.28 
  589.942,1443.99 592.519,1443.68 595.097,1443.36 597.674,1443.02 600.251,1442.66 602.828,1442.28 605.405,1441.89 607.983,1441.47 610.56,1441.02 613.137,1440.56 
  615.714,1440.07 618.291,1439.55 620.869,1439.01 623.446,1438.44 626.023,1437.84 628.6,1437.21 631.178,1436.55 633.755,1435.86 636.332,1435.13 638.909,1434.37 
  641.486,1433.58 644.064,1432.74 646.641,1431.87 649.218,1430.95 651.795,1429.99 654.372,1428.99 656.95,1427.95 659.527,1426.86 662.104,1425.71 664.681,1424.52 
  667.258,1423.28 669.836,1421.99 672.413,1420.64 674.99,1419.23 677.567,1417.77 680.145,1416.25 682.722,1414.66 685.299,1413.01 687.876,1411.3 690.453,1409.52 
  693.031,1407.67 695.608,1405.76 698.185,1403.77 700.762,1401.7 703.339,1399.56 705.917,1397.35 708.494,1395.06 711.071,1392.68 713.648,1390.22 716.226,1387.68 
  718.803,1385.06 721.38,1382.34 723.957,1379.54 726.534,1376.65 729.112,1373.67 731.689,1370.59 734.266,1367.43 736.843,1364.16 739.42,1360.8 741.998,1357.34 
  744.575,1353.78 747.152,1350.12 749.729,1346.36 752.307,1342.5 754.884,1338.54 757.461,1334.47 760.038,1330.3 762.615,1326.03 765.193,1321.65 767.77,1317.16 
  770.347,1312.57 772.924,1307.88 775.501,1303.08 778.079,1298.18 780.656,1293.17 783.233,1288.06 785.81,1282.84 788.388,1277.52 790.965,1272.1 793.542,1266.58 
  796.119,1260.96 798.696,1255.24 801.274,1249.43 803.851,1243.52 806.428,1237.52 809.005,1231.43 811.582,1225.25 814.16,1218.98 816.737,1212.63 819.314,1206.2 
  821.891,1199.69 824.469,1193.1 827.046,1186.44 829.623,1179.72 832.2,1172.93 834.777,1166.08 837.355,1159.17 839.932,1152.2 842.509,1145.19 845.086,1138.14 
  847.663,1131.04 850.241,1123.91 852.818,1116.75 855.395,1109.56 857.972,1102.35 860.549,1095.12 863.127,1087.89 865.704,1080.65 868.281,1073.41 870.858,1066.18 
  873.436,1058.96 876.013,1051.76 878.59,1044.59 881.167,1037.44 883.744,1030.33 886.322,1023.27 888.899,1016.25 891.476,1009.29 894.053,1002.39 896.63,995.557 
  899.208,988.801 901.785,982.125 904.362,975.537 906.939,969.043 909.517,962.649 912.094,956.362 914.671,950.187 917.248,944.132 919.825,938.201 922.403,932.403 
  924.98,926.742 927.557,921.224 930.134,915.855 932.711,910.642 935.289,905.589 937.866,900.702 940.443,895.986 943.02,891.447 945.598,887.09 948.175,882.918 
  950.752,878.938 953.329,875.153 955.906,871.568 958.484,868.186 961.061,865.012 963.638,862.05 966.215,859.301 968.792,856.771 971.37,854.461 973.947,852.374 
  976.524,850.513 979.101,848.88 981.679,847.477 984.256,846.305 986.833,845.365 989.41,844.66 991.987,844.189 994.565,843.954 997.142,843.953 999.719,844.189 
  1002.3,844.659 1004.87,845.365 1007.45,846.304 1010.03,847.475 1012.61,848.878 1015.18,850.511 1017.76,852.372 1020.34,854.458 1022.91,856.768 1025.49,859.298 
  1028.07,862.046 1030.65,865.009 1033.22,868.183 1035.8,871.564 1038.38,875.149 1040.95,878.934 1043.53,882.914 1046.11,887.085 1048.69,891.442 1051.26,895.981 
  1053.84,900.696 1056.42,905.583 1058.99,910.636 1061.57,915.849 1064.15,921.218 1066.73,926.735 1069.3,932.396 1071.88,938.194 1074.46,944.124 1077.04,950.18 
  1079.61,956.354 1082.19,962.641 1084.77,969.035 1087.34,975.529 1089.92,982.117 1092.5,988.792 1095.08,995.549 1097.65,1002.38 1100.23,1009.28 1102.81,1016.24 
  1105.38,1023.26 1107.96,1030.32 1110.54,1037.43 1113.12,1044.58 1115.69,1051.75 1118.27,1058.95 1120.85,1066.17 1123.43,1073.4 1126,1080.64 1128.58,1087.88 
  1131.16,1095.11 1133.73,1102.33 1136.31,1109.54 1138.89,1116.73 1141.47,1123.89 1144.04,1131.02 1146.62,1138.12 1149.2,1145.17 1151.77,1152.18 1154.35,1159.15 
  1156.93,1166.05 1159.51,1172.9 1162.08,1179.69 1164.66,1186.42 1167.24,1193.07 1169.82,1199.65 1172.39,1206.16 1174.97,1212.59 1177.55,1218.94 1180.12,1225.2 
  1182.7,1231.38 1185.28,1237.47 1187.86,1243.47 1190.43,1249.37 1193.01,1255.18 1195.59,1260.9 1198.16,1266.51 1200.74,1272.03 1203.32,1277.44 1205.9,1282.75 
  1208.47,1287.96 1211.05,1293.06 1213.63,1298.06 1216.2,1302.96 1218.78,1307.75 1221.36,1312.43 1223.94,1317.01 1226.51,1321.48 1229.09,1325.85 1231.67,1330.11 
  1234.25,1334.26 1236.82,1338.31 1239.4,1342.26 1241.98,1346.1 1244.55,1349.83 1247.13,1353.47 1249.71,1357 1252.29,1360.43 1254.86,1363.76 1257.44,1366.99 
  1260.02,1370.13 1262.59,1373.17 1265.17,1376.11 1267.75,1378.96 1270.33,1381.71 1272.9,1384.37 1275.48,1386.95 1278.06,1389.43 1280.64,1391.82 1283.21,1394.13 
  1285.79,1396.36 1288.37,1398.5 1290.94,1400.55 1293.52,1402.53 1296.1,1404.42 1298.68,1406.24 1301.25,1407.98 1303.83,1409.65 1306.41,1411.24 1308.98,1412.75 
  1311.56,1414.2 1314.14,1415.57 1316.72,1416.88 1319.29,1418.12 1321.87,1419.28 1324.45,1420.39 1327.03,1421.42 1329.6,1422.4 1332.18,1423.3 1334.76,1424.15 
  1337.33,1424.93 1339.91,1425.66 1342.49,1426.32 1345.07,1426.92 1347.64,1427.46 1350.22,1427.94 1352.8,1428.36 1355.37,1428.73 1357.95,1429.03 1360.53,1429.28 
  1363.11,1429.46 1365.68,1429.59 1368.26,1429.66 1370.84,1429.67 1373.41,1429.63 1375.99,1429.52 1378.57,1429.35 1381.15,1429.12 1383.72,1428.83 1386.3,1428.47 
  1388.88,1428.06 1391.46,1427.58 1394.03,1427.03 1396.61,1426.42 1399.19,1425.74 1401.76,1424.99 1404.34,1424.17 1406.92,1423.28 1409.5,1422.32 1412.07,1421.28 
  1414.65,1420.16 1417.23,1418.96 1419.8,1417.69 1422.38,1416.33 1424.96,1414.89 1427.54,1413.35 1430.11,1411.73 1432.69,1410.02 1435.27,1408.22 1437.85,1406.31 
  1440.42,1404.31 1443,1402.21 1445.58,1400 1448.15,1397.68 1450.73,1395.25 1453.31,1392.71 1455.89,1390.05 1458.46,1387.28 1461.04,1384.38 1463.62,1381.35 
  1466.19,1378.2 1468.77,1374.91 1471.35,1371.49 1473.93,1367.93 1476.5,1364.23 1479.08,1360.39 1481.66,1356.39 1484.24,1352.25 1486.81,1347.95 1489.39,1343.49 
  1491.97,1338.87 1494.54,1334.09 1497.12,1329.13 1499.7,1324.01 1502.28,1318.72 1504.85,1313.24 1507.43,1307.59 1510.01,1301.76 1512.58,1295.74 1515.16,1289.53 
  1517.74,1283.13 1520.32,1276.54 1522.89,1269.75 1525.47,1262.77 1528.05,1255.59 1530.62,1248.2 1533.2,1240.61 1535.78,1232.82 1538.36,1224.82 1540.93,1216.62 
  1543.51,1208.2 1546.09,1199.58 1548.67,1190.75 1551.24,1181.7 1553.82,1172.45 1556.4,1162.99 1558.97,1153.31 1561.55,1143.43 1564.13,1133.34 1566.71,1123.04 
  1569.28,1112.54 1571.86,1101.83 1574.44,1090.92 1577.01,1079.81 1579.59,1068.5 1582.17,1057 1584.75,1045.31 1587.32,1033.43 1589.9,1021.36 1592.48,1009.12 
  1595.06,996.701 1597.63,984.113 1600.21,971.36 1602.79,958.448 1605.36,945.382 1607.94,932.17 1610.52,918.817 1613.1,905.33 1615.67,891.717 1618.25,877.986 
  1620.83,864.143 1623.4,850.198 1625.98,836.159 1628.56,822.034 1631.14,807.834 1633.71,793.566 1636.29,779.242 1638.87,764.872 1641.45,750.464 1644.02,736.031 
  1646.6,721.583 1649.18,707.13 1651.75,692.685 1654.33,678.258 1656.91,663.862 1659.49,649.509 1662.06,635.209 1664.64,620.977 1667.22,606.823 1669.79,592.76 
  1672.37,578.802 1674.95,564.96 1677.53,551.247 1680.1,537.677 1682.68,524.261 1685.26,511.013 1687.83,497.946 1690.41,485.072 1692.99,472.403 1695.57,459.954 
  1698.14,447.735 1700.72,435.76 1703.3,424.041 1705.88,412.59 1708.45,401.419 1711.03,390.54 1713.61,379.964 1716.18,369.702 1718.76,359.766 1721.34,350.166 
  1723.92,340.914 1726.49,332.018 1729.07,323.489 1731.65,315.336 1734.22,307.569 1736.8,300.196 1739.38,293.225 1741.96,286.665 1744.53,280.522 1747.11,274.805 
  1749.69,269.518 1752.27,264.669 1754.84,260.263 1757.42,256.304 1760,252.799 1762.57,249.75 1765.15,247.161 1767.73,245.036 1770.31,243.376 1772.88,242.184 
  1775.46,241.461 1778.04,241.207 1780.61,241.424 1783.19,242.111 1785.77,243.267 1788.35,244.891 1790.92,246.98 1793.5,249.533 1796.08,252.547 1798.66,256.017 
  1801.23,259.941 1803.81,264.312 1806.39,269.128 1808.96,274.381 1811.54,280.065 1814.12,286.175 1816.7,292.704 1819.27,299.643 1821.85,306.985 1824.43,314.722 
  1827,322.845 1829.58,331.346 1832.16,340.213 1834.74,349.439 1837.31,359.012 1839.89,368.922 1842.47,379.159 1845.04,389.712 1847.62,400.568 1850.2,411.717 
  1852.78,423.147 1855.35,434.846 1857.93,446.801 1860.51,459.001 1863.09,471.434 1865.66,484.086 1868.24,496.944 1870.82,509.997 1873.39,523.232 1875.97,536.635 
  1878.55,550.194 1881.13,563.896 1883.7,577.729 1886.28,591.679 1888.86,605.734 1891.43,619.881 1894.01,634.108 1896.59,648.403 1899.17,662.753 1901.74,677.146 
  1904.32,691.571 1906.9,706.016 1909.48,720.468 1912.05,734.917 1914.63,749.352 1917.21,763.763 1919.78,778.137 1922.36,792.465 1924.94,806.738 1927.52,820.944 
  1930.09,835.075 1932.67,849.122 1935.25,863.075 1937.82,876.927 1940.4,890.668 1942.98,904.291 1945.56,917.788 1948.13,931.153 1950.71,944.377 1953.29,957.456 
  1955.87,970.381 1958.44,983.148 1961.02,995.75 1963.6,1008.18 1966.17,1020.44 1968.75,1032.52 1971.33,1044.42 1973.91,1056.13 1976.48,1067.65 1979.06,1078.97 
  1981.64,1090.1 1984.21,1101.03 1986.79,1111.76 1989.37,1122.28 1991.95,1132.6 1994.52,1142.71 1997.1,1152.61 1999.68,1162.31 2002.25,1171.79 2004.83,1181.07 
  2007.41,1190.13 2009.99,1198.99 2012.56,1207.64 2015.14,1216.07 2017.72,1224.3 2020.3,1232.33 2022.87,1240.15 2025.45,1247.76 2028.03,1255.17 2030.6,1262.38 
  2033.18,1269.4 2035.76,1276.21 2038.34,1282.83 2040.91,1289.26 2043.49,1295.5 2046.07,1301.56 2048.64,1307.43 2051.22,1313.12 2053.8,1318.63 2056.38,1323.96 
  2058.95,1329.12 2061.53,1334.12 2064.11,1338.95 2066.69,1343.61 2069.26,1348.12 2071.84,1352.47 2074.42,1356.67 2076.99,1360.72 2079.57,1364.63 2082.15,1368.39 
  2084.73,1372.02 2087.3,1375.51 2089.88,1378.87 2092.46,1382.1 2095.03,1385.21 2097.61,1388.19 2100.19,1391.06 2102.77,1393.81 2105.34,1396.46 2107.92,1398.99 
  2110.5,1401.42 2113.08,1403.75 2115.65,1405.99 2118.23,1408.12 2120.81,1410.17 2123.38,1412.13 2125.96,1414 2128.54,1415.79 2131.12,1417.5 2133.69,1419.13 
  2136.27,1420.69 2138.85,1422.17 2141.42,1423.59 2144,1424.94 2146.58,1426.23 2149.16,1427.46 2151.73,1428.63 2154.31,1429.74 2156.89,1430.8 2159.46,1431.8 
  2162.04,1432.76 2164.62,1433.67 2167.2,1434.53 2169.77,1435.35 2172.35,1436.12 2174.93,1436.86 2177.51,1437.56 2180.08,1438.22 2182.66,1438.85 2185.24,1439.44 
  2187.81,1440 2190.39,1440.53 2192.97,1441.03 2195.55,1441.51 2198.12,1441.96 2200.7,1442.38 2203.28,1442.78 2205.85,1443.16 2208.43,1443.51 2211.01,1443.85 
  2213.59,1444.16 2216.16,1444.46 2218.74,1444.74 2221.32,1445 2223.9,1445.25 2226.47,1445.48 2229.05,1445.7 2231.63,1445.91 2234.2,1446.1 2236.78,1446.28 
  2239.36,1446.45 2241.94,1446.61 2244.51,1446.76 2247.09,1446.9 2249.67,1447.04 2252.24,1447.16 2254.82,1447.27 2257.4,1447.38 2259.98,1447.48 2262.55,1447.58 
  2265.13,1447.66 2267.71,1447.75 2270.29,1447.82 2272.86,1447.89 2275.44,1447.96 2278.02,1448.02 2280.59,1448.08 2283.17,1448.14 2285.75,1448.19 2288.33,1448.23 
  2290.9,1448.28 
  "/>
<path clip-path="url(#clip8600)" d="
M1893.61 447.115 L2280.76 447.115 L2280.76 205.195 L1893.61 205.195  Z
  " fill="#ffffff" fill-rule="evenodd" fill-opacity="1"/>
<polyline clip-path="url(#clip8600)" style="stroke:#000000; stroke-width:4; stroke-opacity:1; fill:none" points="
  1893.61,447.115 2280.76,447.115 2280.76,205.195 1893.61,205.195 1893.61,447.115 
  "/>
<polyline clip-path="url(#clip8600)" style="stroke:#009af9; stroke-width:4; stroke-opacity:1; fill:none" points="
  1917.61,265.675 2061.61,265.675 
  "/>
<g clip-path="url(#clip8600)">
<text style="fill:#000000; fill-opacity:1; font-family:Arial,Helvetica Neue,Helvetica,sans-serif; font-size:48px; text-anchor:start;" transform="rotate(0, 2085.61, 283.175)" x="2085.61" y="283.175">Data</text>
</g>
<polyline clip-path="url(#clip8600)" style="stroke:#e26f46; stroke-width:4; stroke-opacity:1; fill:none" points="
  1917.61,326.155 2061.61,326.155 
  "/>
<g clip-path="url(#clip8600)">
<text style="fill:#000000; fill-opacity:1; font-family:Arial,Helvetica Neue,Helvetica,sans-serif; font-size:48px; text-anchor:start;" transform="rotate(0, 2085.61, 343.655)" x="2085.61" y="343.655">Truth</text>
</g>
<polyline clip-path="url(#clip8600)" style="stroke:#3da44d; stroke-width:4; stroke-opacity:1; fill:none" points="
  1917.61,386.635 2061.61,386.635 
  "/>
<g clip-path="url(#clip8600)">
<text style="fill:#000000; fill-opacity:1; font-family:Arial,Helvetica Neue,Helvetica,sans-serif; font-size:48px; text-anchor:start;" transform="rotate(0, 2085.61, 404.135)" x="2085.61" y="404.135">Best fit</text>
</g>
</svg>
