<?xml version="1.0" encoding="utf-8"?>
<svg xmlns="http://www.w3.org/2000/svg" xmlns:xlink="http://www.w3.org/1999/xlink" width="600" height="400" viewBox="0 0 2400 1600">
<defs>
  <clipPath id="clip7700">
    <rect x="0" y="0" width="2400" height="1600"/>
  </clipPath>
</defs>
<path clip-path="url(#clip7700)" d="
M0 1600 L2400 1600 L2400 0 L0 0  Z
  " fill="#ffffff" fill-rule="evenodd" fill-opacity="1"/>
<defs>
  <clipPath id="clip7701">
    <rect x="480" y="0" width="1681" height="1600"/>
  </clipPath>
</defs>
<path clip-path="url(#clip7700)" d="
M202.373 1425.62 L2352.76 1425.62 L2352.76 121.675 L202.373 121.675  Z
  " fill="#ffffff" fill-rule="evenodd" fill-opacity="1"/>
<defs>
  <clipPath id="clip7702">
    <rect x="202" y="121" width="2151" height="1305"/>
  </clipPath>
</defs>
<polyline clip-path="url(#clip7702)" style="stroke:#000000; stroke-width:2; stroke-opacity:0.1; fill:none" points="
  618.249,1425.62 618.249,121.675 
  "/>
<polyline clip-path="url(#clip7702)" style="stroke:#000000; stroke-width:2; stroke-opacity:0.1; fill:none" points="
  1125.41,1425.62 1125.41,121.675 
  "/>
<polyline clip-path="url(#clip7702)" style="stroke:#000000; stroke-width:2; stroke-opacity:0.1; fill:none" points="
  1632.58,1425.62 1632.58,121.675 
  "/>
<polyline clip-path="url(#clip7702)" style="stroke:#000000; stroke-width:2; stroke-opacity:0.1; fill:none" points="
  2139.75,1425.62 2139.75,121.675 
  "/>
<polyline clip-path="url(#clip7702)" style="stroke:#000000; stroke-width:2; stroke-opacity:0.1; fill:none" points="
  202.373,1388.71 2352.76,1388.71 
  "/>
<polyline clip-path="url(#clip7702)" style="stroke:#000000; stroke-width:2; stroke-opacity:0.1; fill:none" points="
  202.373,1014.47 2352.76,1014.47 
  "/>
<polyline clip-path="url(#clip7702)" style="stroke:#000000; stroke-width:2; stroke-opacity:0.1; fill:none" points="
  202.373,640.235 2352.76,640.235 
  "/>
<polyline clip-path="url(#clip7702)" style="stroke:#000000; stroke-width:2; stroke-opacity:0.1; fill:none" points="
  202.373,265.996 2352.76,265.996 
  "/>
<polyline clip-path="url(#clip7700)" style="stroke:#000000; stroke-width:4; stroke-opacity:1; fill:none" points="
  202.373,1425.62 2352.76,1425.62 
  "/>
<polyline clip-path="url(#clip7700)" style="stroke:#000000; stroke-width:4; stroke-opacity:1; fill:none" points="
  202.373,1425.62 202.373,121.675 
  "/>
<polyline clip-path="url(#clip7700)" style="stroke:#000000; stroke-width:4; stroke-opacity:1; fill:none" points="
  618.249,1425.62 618.249,1406.06 
  "/>
<polyline clip-path="url(#clip7700)" style="stroke:#000000; stroke-width:4; stroke-opacity:1; fill:none" points="
  1125.41,1425.62 1125.41,1406.06 
  "/>
<polyline clip-path="url(#clip7700)" style="stroke:#000000; stroke-width:4; stroke-opacity:1; fill:none" points="
  1632.58,1425.62 1632.58,1406.06 
  "/>
<polyline clip-path="url(#clip7700)" style="stroke:#000000; stroke-width:4; stroke-opacity:1; fill:none" points="
  2139.75,1425.62 2139.75,1406.06 
  "/>
<polyline clip-path="url(#clip7700)" style="stroke:#000000; stroke-width:4; stroke-opacity:1; fill:none" points="
  202.373,1388.71 234.629,1388.71 
  "/>
<polyline clip-path="url(#clip7700)" style="stroke:#000000; stroke-width:4; stroke-opacity:1; fill:none" points="
  202.373,1014.47 234.629,1014.47 
  "/>
<polyline clip-path="url(#clip7700)" style="stroke:#000000; stroke-width:4; stroke-opacity:1; fill:none" points="
  202.373,640.235 234.629,640.235 
  "/>
<polyline clip-path="url(#clip7700)" style="stroke:#000000; stroke-width:4; stroke-opacity:1; fill:none" points="
  202.373,265.996 234.629,265.996 
  "/>
<g clip-path="url(#clip7700)">
<text style="fill:#000000; fill-opacity:1; font-family:Arial,Helvetica Neue,Helvetica,sans-serif; font-size:48px; text-anchor:middle;" transform="rotate(0, 618.249, 1479.62)" x="618.249" y="1479.62">-1.10</text>
</g>
<g clip-path="url(#clip7700)">
<text style="fill:#000000; fill-opacity:1; font-family:Arial,Helvetica Neue,Helvetica,sans-serif; font-size:48px; text-anchor:middle;" transform="rotate(0, 1125.41, 1479.62)" x="1125.41" y="1479.62">-1.05</text>
</g>
<g clip-path="url(#clip7700)">
<text style="fill:#000000; fill-opacity:1; font-family:Arial,Helvetica Neue,Helvetica,sans-serif; font-size:48px; text-anchor:middle;" transform="rotate(0, 1632.58, 1479.62)" x="1632.58" y="1479.62">-1.00</text>
</g>
<g clip-path="url(#clip7700)">
<text style="fill:#000000; fill-opacity:1; font-family:Arial,Helvetica Neue,Helvetica,sans-serif; font-size:48px; text-anchor:middle;" transform="rotate(0, 2139.75, 1479.62)" x="2139.75" y="1479.62">-0.95</text>
</g>
<g clip-path="url(#clip7700)">
<text style="fill:#000000; fill-opacity:1; font-family:Arial,Helvetica Neue,Helvetica,sans-serif; font-size:48px; text-anchor:end;" transform="rotate(0, 178.373, 1406.21)" x="178.373" y="1406.21">0</text>
</g>
<g clip-path="url(#clip7700)">
<text style="fill:#000000; fill-opacity:1; font-family:Arial,Helvetica Neue,Helvetica,sans-serif; font-size:48px; text-anchor:end;" transform="rotate(0, 178.373, 1031.97)" x="178.373" y="1031.97">5</text>
</g>
<g clip-path="url(#clip7700)">
<text style="fill:#000000; fill-opacity:1; font-family:Arial,Helvetica Neue,Helvetica,sans-serif; font-size:48px; text-anchor:end;" transform="rotate(0, 178.373, 657.735)" x="178.373" y="657.735">10</text>
</g>
<g clip-path="url(#clip7700)">
<text style="fill:#000000; fill-opacity:1; font-family:Arial,Helvetica Neue,Helvetica,sans-serif; font-size:48px; text-anchor:end;" transform="rotate(0, 178.373, 283.496)" x="178.373" y="283.496">15</text>
</g>
<g clip-path="url(#clip7700)">
<text style="fill:#000000; fill-opacity:1; font-family:Arial,Helvetica Neue,Helvetica,sans-serif; font-size:84px; text-anchor:middle;" transform="rotate(0, 1277.56, 73.2)" x="1277.56" y="73.2">Marginalized Distribution for mu_1</text>
</g>
<g clip-path="url(#clip7700)">
<text style="fill:#000000; fill-opacity:1; font-family:Arial,Helvetica Neue,Helvetica,sans-serif; font-size:66px; text-anchor:middle;" transform="rotate(0, 1277.56, 1559.48)" x="1277.56" y="1559.48">mu_1</text>
</g>
<g clip-path="url(#clip7700)">
<text style="fill:#000000; fill-opacity:1; font-family:Arial,Helvetica Neue,Helvetica,sans-serif; font-size:66px; text-anchor:middle;" transform="rotate(-90, 89.2861, 773.647)" x="89.2861" y="773.647">P(mu_1)</text>
</g>
<path clip-path="url(#clip7702)" d="
M263.233 1388.71 L313.949 1388.71 L313.949 1388.71 L364.666 1388.71 L364.666 1388.71 L415.383 1388.71 L415.383 1388.71 L466.099 1388.71 L466.099 1388.71 L516.816 1388.71 
  L516.816 1388.71 L567.532 1388.71 L567.532 1375.02 L618.249 1375.02 L618.249 1360.92 L668.965 1360.92 L668.965 1353.34 L719.682 1353.34 L719.682 1325.02 L770.399 1325.02 
  L770.399 1299.75 L821.115 1299.75 L821.115 1245.63 L871.832 1245.63 L871.832 1193.36 L922.548 1193.36 L922.548 1066.9 L973.265 1066.9 L973.265 1029.8 L1023.98 1029.8 
  L1023.98 927.934 L1074.7 927.934 L1074.7 784.713 L1125.41 784.713 L1125.41 628.194 L1176.13 628.194 L1176.13 431.78 L1226.85 431.78 L1226.85 377.923 L1277.56 377.923 
  L1277.56 243.346 L1328.28 243.346 L1328.28 194.408 L1379 194.408 L1379 195.206 L1429.71 195.206 L1429.71 250.394 L1480.43 250.394 L1480.43 412.764 L1531.15 412.764 
  L1531.15 496.808 L1581.86 496.808 L1581.86 530.984 L1632.58 530.984 L1632.58 739.1 L1683.3 739.1 L1683.3 848.943 L1734.01 848.943 L1734.01 954.796 L1784.73 954.796 
  L1784.73 1102.67 L1835.45 1102.67 L1835.45 1182.06 L1886.16 1182.06 L1886.16 1243.76 L1936.88 1243.76 L1936.88 1279.54 L1987.6 1279.54 L1987.6 1322.22 L2038.31 1322.22 
  L2038.31 1355.6 L2089.03 1355.6 L2089.03 1372.62 L2139.75 1372.62 L2139.75 1378.34 L2190.46 1378.34 L2190.46 1388.71 L2241.18 1388.71 L2241.18 1388.71 L2291.9 1388.71 
  L2291.9 1388.71 L2291.9 1388.71 L2291.9 1388.71 L2241.18 1388.71 L2241.18 1388.71 L2190.46 1388.71 L2190.46 1388.71 L2139.75 1388.71 L2139.75 1388.71 L2089.03 1388.71 
  L2089.03 1388.71 L2038.31 1388.71 L2038.31 1388.71 L1987.6 1388.71 L1987.6 1388.71 L1936.88 1388.71 L1936.88 1388.71 L1886.16 1388.71 L1886.16 1388.71 L1835.45 1388.71 
  L1835.45 1388.71 L1784.73 1388.71 L1784.73 1388.71 L1734.01 1388.71 L1734.01 1388.71 L1683.3 1388.71 L1683.3 1388.71 L1632.58 1388.71 L1632.58 1388.71 L1581.86 1388.71 
  L1581.86 1388.71 L1531.15 1388.71 L1531.15 1388.71 L1480.43 1388.71 L1480.43 1388.71 L1429.71 1388.71 L1429.71 1388.71 L1379 1388.71 L1379 1388.71 L1328.28 1388.71 
  L1328.28 1388.71 L1277.56 1388.71 L1277.56 1388.71 L1226.85 1388.71 L1226.85 1388.71 L1176.13 1388.71 L1176.13 1388.71 L1125.41 1388.71 L1125.41 1388.71 L1074.7 1388.71 
  L1074.7 1388.71 L1023.98 1388.71 L1023.98 1388.71 L973.265 1388.71 L973.265 1388.71 L922.548 1388.71 L922.548 1388.71 L871.832 1388.71 L871.832 1388.71 L821.115 1388.71 
  L821.115 1388.71 L770.399 1388.71 L770.399 1388.71 L719.682 1388.71 L719.682 1388.71 L668.965 1388.71 L668.965 1388.71 L618.249 1388.71 L618.249 1388.71 L567.532 1388.71 
  L567.532 1388.71 L516.816 1388.71 L516.816 1388.71 L466.099 1388.71 L466.099 1388.71 L415.383 1388.71 L415.383 1388.71 L364.666 1388.71 L364.666 1388.71 L313.949 1388.71 
  L313.949 1388.71 L263.233 1388.71  Z
  " fill="#ff0000" fill-rule="evenodd" fill-opacity="1"/>
<polyline clip-path="url(#clip7702)" style="stroke:#009af9; stroke-width:0; stroke-opacity:1; fill:none" points="
  263.233,1388.71 313.949,1388.71 364.666,1388.71 415.383,1388.71 466.099,1388.71 516.816,1388.71 
  567.532,1388.71 567.532,1375.02 618.249,1375.02 618.249,1360.92 668.965,1360.92 668.965,1353.34 719.682,1353.34 719.682,1325.02 770.399,1325.02 
  770.399,1299.75 821.115,1299.75 821.115,1245.63 871.832,1245.63 871.832,1193.36 922.548,1193.36 922.548,1066.9 973.265,1066.9 973.265,1029.8 1023.98,1029.8 
  1023.98,927.934 1074.7,927.934 1074.7,784.713 1125.41,784.713 1125.41,628.194 1176.13,628.194 1176.13,431.78 1226.85,431.78 1226.85,377.923 1277.56,377.923 
  1277.56,243.346 1328.28,243.346 1328.28,194.408 1379,194.408 1379,195.206 1429.71,195.206 1429.71,250.394 1480.43,250.394 1480.43,412.764 1531.15,412.764 
  1531.15,496.808 1581.86,496.808 1581.86,530.984 1632.58,530.984 1632.58,739.1 1683.3,739.1 1683.3,848.943 1734.01,848.943 1734.01,954.796 1784.73,954.796 
  1784.73,1102.67 1835.45,1102.67 1835.45,1182.06 1886.16,1182.06 1886.16,1243.76 1936.88,1243.76 1936.88,1279.54 1987.6,1279.54 1987.6,1322.22 2038.31,1322.22 
  2038.31,1355.6 2089.03,1355.6 2089.03,1372.62 2139.75,1372.62 2139.75,1378.34 2190.46,1378.34 2190.46,1388.71 2241.18,1388.71 2291.9,1388.71 
  
  "/>
<path clip-path="url(#clip7702)" d="
M263.233 1388.71 L313.949 1388.71 L313.949 1388.71 L364.666 1388.71 L364.666 1388.71 L415.383 1388.71 L415.383 1388.71 L466.099 1388.71 L466.099 1388.71 L516.816 1388.71 
  L516.816 1388.71 L567.532 1388.71 L567.532 1388.71 L618.249 1388.71 L618.249 1388.71 L668.965 1388.71 L668.965 1388.71 L719.682 1388.71 L719.682 1388.71 L770.399 1388.71 
  L770.399 1388.71 L821.115 1388.71 L821.115 1388.71 L871.832 1388.71 L871.832 1193.36 L922.548 1193.36 L922.548 1066.9 L973.265 1066.9 L973.265 1029.8 L1023.98 1029.8 
  L1023.98 927.934 L1074.7 927.934 L1074.7 784.713 L1125.41 784.713 L1125.41 628.194 L1176.13 628.194 L1176.13 431.78 L1226.85 431.78 L1226.85 377.923 L1277.56 377.923 
  L1277.56 243.346 L1328.28 243.346 L1328.28 194.408 L1379 194.408 L1379 195.206 L1429.71 195.206 L1429.71 250.394 L1480.43 250.394 L1480.43 412.764 L1531.15 412.764 
  L1531.15 496.808 L1581.86 496.808 L1581.86 530.984 L1632.58 530.984 L1632.58 739.1 L1683.3 739.1 L1683.3 848.943 L1734.01 848.943 L1734.01 954.796 L1784.73 954.796 
  L1784.73 1102.67 L1835.45 1102.67 L1835.45 1182.06 L1886.16 1182.06 L1886.16 1243.76 L1936.88 1243.76 L1936.88 1388.71 L1987.6 1388.71 L1987.6 1388.71 L2038.31 1388.71 
  L2038.31 1388.71 L2089.03 1388.71 L2089.03 1388.71 L2139.75 1388.71 L2139.75 1388.71 L2190.46 1388.71 L2190.46 1388.71 L2241.18 1388.71 L2241.18 1388.71 L2291.9 1388.71 
  L2291.9 1388.71 L2291.9 1388.71 L2291.9 1388.71 L2241.18 1388.71 L2241.18 1388.71 L2190.46 1388.71 L2190.46 1388.71 L2139.75 1388.71 L2139.75 1388.71 L2089.03 1388.71 
  L2089.03 1388.71 L2038.31 1388.71 L2038.31 1388.71 L1987.6 1388.71 L1987.6 1388.71 L1936.88 1388.71 L1936.88 1388.71 L1886.16 1388.71 L1886.16 1388.71 L1835.45 1388.71 
  L1835.45 1388.71 L1784.73 1388.71 L1784.73 1388.71 L1734.01 1388.71 L1734.01 1388.71 L1683.3 1388.71 L1683.3 1388.71 L1632.58 1388.71 L1632.58 1388.71 L1581.86 1388.71 
  L1581.86 1388.71 L1531.15 1388.71 L1531.15 1388.71 L1480.43 1388.71 L1480.43 1388.71 L1429.71 1388.71 L1429.71 1388.71 L1379 1388.71 L1379 1388.71 L1328.28 1388.71 
  L1328.28 1388.71 L1277.56 1388.71 L1277.56 1388.71 L1226.85 1388.71 L1226.85 1388.71 L1176.13 1388.71 L1176.13 1388.71 L1125.41 1388.71 L1125.41 1388.71 L1074.7 1388.71 
  L1074.7 1388.71 L1023.98 1388.71 L1023.98 1388.71 L973.265 1388.71 L973.265 1388.71 L922.548 1388.71 L922.548 1388.71 L871.832 1388.71 L871.832 1388.71 L821.115 1388.71 
  L821.115 1388.71 L770.399 1388.71 L770.399 1388.71 L719.682 1388.71 L719.682 1388.71 L668.965 1388.71 L668.965 1388.71 L618.249 1388.71 L618.249 1388.71 L567.532 1388.71 
  L567.532 1388.71 L516.816 1388.71 L516.816 1388.71 L466.099 1388.71 L466.099 1388.71 L415.383 1388.71 L415.383 1388.71 L364.666 1388.71 L364.666 1388.71 L313.949 1388.71 
  L313.949 1388.71 L263.233 1388.71  Z
  " fill="#ffff00" fill-rule="evenodd" fill-opacity="1"/>
<polyline clip-path="url(#clip7702)" style="stroke:#e26f46; stroke-width:0; stroke-opacity:1; fill:none" points="
  263.233,1388.71 313.949,1388.71 364.666,1388.71 415.383,1388.71 466.099,1388.71 516.816,1388.71 
  567.532,1388.71 618.249,1388.71 668.965,1388.71 719.682,1388.71 770.399,1388.71 
  821.115,1388.71 871.832,1388.71 871.832,1193.36 922.548,1193.36 922.548,1066.9 973.265,1066.9 973.265,1029.8 1023.98,1029.8 
  1023.98,927.934 1074.7,927.934 1074.7,784.713 1125.41,784.713 1125.41,628.194 1176.13,628.194 1176.13,431.78 1226.85,431.78 1226.85,377.923 1277.56,377.923 
  1277.56,243.346 1328.28,243.346 1328.28,194.408 1379,194.408 1379,195.206 1429.71,195.206 1429.71,250.394 1480.43,250.394 1480.43,412.764 1531.15,412.764 
  1531.15,496.808 1581.86,496.808 1581.86,530.984 1632.58,530.984 1632.58,739.1 1683.3,739.1 1683.3,848.943 1734.01,848.943 1734.01,954.796 1784.73,954.796 
  1784.73,1102.67 1835.45,1102.67 1835.45,1182.06 1886.16,1182.06 1886.16,1243.76 1936.88,1243.76 1936.88,1388.71 1987.6,1388.71 2038.31,1388.71 
  2089.03,1388.71 2139.75,1388.71 2190.46,1388.71 2241.18,1388.71 2291.9,1388.71 
  
  "/>
<path clip-path="url(#clip7702)" d="
M263.233 1388.71 L313.949 1388.71 L313.949 1388.71 L364.666 1388.71 L364.666 1388.71 L415.383 1388.71 L415.383 1388.71 L466.099 1388.71 L466.099 1388.71 L516.816 1388.71 
  L516.816 1388.71 L567.532 1388.71 L567.532 1388.71 L618.249 1388.71 L618.249 1388.71 L668.965 1388.71 L668.965 1388.71 L719.682 1388.71 L719.682 1388.71 L770.399 1388.71 
  L770.399 1388.71 L821.115 1388.71 L821.115 1388.71 L871.832 1388.71 L871.832 1388.71 L922.548 1388.71 L922.548 1388.71 L973.265 1388.71 L973.265 1388.71 L1023.98 1388.71 
  L1023.98 1388.71 L1074.7 1388.71 L1074.7 1388.71 L1125.41 1388.71 L1125.41 628.194 L1176.13 628.194 L1176.13 431.78 L1226.85 431.78 L1226.85 377.923 L1277.56 377.923 
  L1277.56 243.346 L1328.28 243.346 L1328.28 194.408 L1379 194.408 L1379 195.206 L1429.71 195.206 L1429.71 250.394 L1480.43 250.394 L1480.43 412.764 L1531.15 412.764 
  L1531.15 496.808 L1581.86 496.808 L1581.86 530.984 L1632.58 530.984 L1632.58 739.1 L1683.3 739.1 L1683.3 1388.71 L1734.01 1388.71 L1734.01 1388.71 L1784.73 1388.71 
  L1784.73 1388.71 L1835.45 1388.71 L1835.45 1388.71 L1886.16 1388.71 L1886.16 1388.71 L1936.88 1388.71 L1936.88 1388.71 L1987.6 1388.71 L1987.6 1388.71 L2038.31 1388.71 
  L2038.31 1388.71 L2089.03 1388.71 L2089.03 1388.71 L2139.75 1388.71 L2139.75 1388.71 L2190.46 1388.71 L2190.46 1388.71 L2241.18 1388.71 L2241.18 1388.71 L2291.9 1388.71 
  L2291.9 1388.71 L2291.9 1388.71 L2291.9 1388.71 L2241.18 1388.71 L2241.18 1388.71 L2190.46 1388.71 L2190.46 1388.71 L2139.75 1388.71 L2139.75 1388.71 L2089.03 1388.71 
  L2089.03 1388.71 L2038.31 1388.71 L2038.31 1388.71 L1987.6 1388.71 L1987.6 1388.71 L1936.88 1388.71 L1936.88 1388.71 L1886.16 1388.71 L1886.16 1388.71 L1835.45 1388.71 
  L1835.45 1388.71 L1784.73 1388.71 L1784.73 1388.71 L1734.01 1388.71 L1734.01 1388.71 L1683.3 1388.71 L1683.3 1388.71 L1632.58 1388.71 L1632.58 1388.71 L1581.86 1388.71 
  L1581.86 1388.71 L1531.15 1388.71 L1531.15 1388.71 L1480.43 1388.71 L1480.43 1388.71 L1429.71 1388.71 L1429.71 1388.71 L1379 1388.71 L1379 1388.71 L1328.28 1388.71 
  L1328.28 1388.71 L1277.56 1388.71 L1277.56 1388.71 L1226.85 1388.71 L1226.85 1388.71 L1176.13 1388.71 L1176.13 1388.71 L1125.41 1388.71 L1125.41 1388.71 L1074.7 1388.71 
  L1074.7 1388.71 L1023.98 1388.71 L1023.98 1388.71 L973.265 1388.71 L973.265 1388.71 L922.548 1388.71 L922.548 1388.71 L871.832 1388.71 L871.832 1388.71 L821.115 1388.71 
  L821.115 1388.71 L770.399 1388.71 L770.399 1388.71 L719.682 1388.71 L719.682 1388.71 L668.965 1388.71 L668.965 1388.71 L618.249 1388.71 L618.249 1388.71 L567.532 1388.71 
  L567.532 1388.71 L516.816 1388.71 L516.816 1388.71 L466.099 1388.71 L466.099 1388.71 L415.383 1388.71 L415.383 1388.71 L364.666 1388.71 L364.666 1388.71 L313.949 1388.71 
  L313.949 1388.71 L263.233 1388.71  Z
  " fill="#76ee00" fill-rule="evenodd" fill-opacity="1"/>
<polyline clip-path="url(#clip7702)" style="stroke:#3da44d; stroke-width:0; stroke-opacity:1; fill:none" points="
  263.233,1388.71 313.949,1388.71 364.666,1388.71 415.383,1388.71 466.099,1388.71 516.816,1388.71 
  567.532,1388.71 618.249,1388.71 668.965,1388.71 719.682,1388.71 770.399,1388.71 
  821.115,1388.71 871.832,1388.71 922.548,1388.71 973.265,1388.71 1023.98,1388.71 
  1074.7,1388.71 1125.41,1388.71 1125.41,628.194 1176.13,628.194 1176.13,431.78 1226.85,431.78 1226.85,377.923 1277.56,377.923 
  1277.56,243.346 1328.28,243.346 1328.28,194.408 1379,194.408 1379,195.206 1429.71,195.206 1429.71,250.394 1480.43,250.394 1480.43,412.764 1531.15,412.764 
  1531.15,496.808 1581.86,496.808 1581.86,530.984 1632.58,530.984 1632.58,739.1 1683.3,739.1 1683.3,1388.71 1734.01,1388.71 1784.73,1388.71 
  1835.45,1388.71 1886.16,1388.71 1936.88,1388.71 1987.6,1388.71 2038.31,1388.71 
  2089.03,1388.71 2139.75,1388.71 2190.46,1388.71 2241.18,1388.71 2291.9,1388.71 
  
  "/>
<polyline clip-path="url(#clip7702)" style="stroke:#000000; stroke-width:2.8; stroke-opacity:1; fill:none" points="
  263.233,1387.78 313.949,1387.78 313.949,1388.45 364.666,1388.45 364.666,1385.66 415.383,1385.66 415.383,1387.12 466.099,1387.12 466.099,1382.07 516.816,1382.07 
  516.816,1379.8 567.532,1379.8 567.532,1375.02 618.249,1375.02 618.249,1360.92 668.965,1360.92 668.965,1353.34 719.682,1353.34 719.682,1325.02 770.399,1325.02 
  770.399,1299.75 821.115,1299.75 821.115,1245.63 871.832,1245.63 871.832,1193.36 922.548,1193.36 922.548,1066.9 973.265,1066.9 973.265,1029.8 1023.98,1029.8 
  1023.98,927.934 1074.7,927.934 1074.7,784.713 1125.41,784.713 1125.41,628.194 1176.13,628.194 1176.13,431.78 1226.85,431.78 1226.85,377.923 1277.56,377.923 
  1277.56,243.346 1328.28,243.346 1328.28,194.408 1379,194.408 1379,195.206 1429.71,195.206 1429.71,250.394 1480.43,250.394 1480.43,412.764 1531.15,412.764 
  1531.15,496.808 1581.86,496.808 1581.86,530.984 1632.58,530.984 1632.58,739.1 1683.3,739.1 1683.3,848.943 1734.01,848.943 1734.01,954.796 1784.73,954.796 
  1784.73,1102.67 1835.45,1102.67 1835.45,1182.06 1886.16,1182.06 1886.16,1243.76 1936.88,1243.76 1936.88,1279.54 1987.6,1279.54 1987.6,1322.22 2038.31,1322.22 
  2038.31,1355.6 2089.03,1355.6 2089.03,1372.62 2139.75,1372.62 2139.75,1378.34 2190.46,1378.34 2190.46,1379.14 2241.18,1379.14 2241.18,1386.32 2291.9,1386.32 
  2291.9,1387.52 
  "/>
<path clip-path="url(#clip7702)" d="
M1122.85 1388.71 L1642.89 1388.71 L1642.89 158.579 L1122.85 158.579 L1122.85 1388.71  Z
  " fill="#808080" fill-rule="evenodd" fill-opacity="0.5"/>
<polyline clip-path="url(#clip7702)" style="stroke:#000000; stroke-width:0; stroke-opacity:1; fill:none" points="
  1122.85,1388.71 1642.89,1388.71 1642.89,158.579 1122.85,158.579 1122.85,1388.71 
  "/>
<polyline clip-path="url(#clip7702)" style="stroke:#696969; stroke-width:4; stroke-opacity:1; fill:none" points="
  1382.87,1388.71 1382.87,158.579 
  "/>
<polyline clip-path="url(#clip7702)" style="stroke:#000000; stroke-width:4; stroke-opacity:1; fill:none" stroke-dasharray="16, 10" points="
  1379.05,1388.71 1379.05,158.579 
  "/>
<polyline clip-path="url(#clip7702)" style="stroke:#000000; stroke-width:4; stroke-opacity:1; fill:none" stroke-dasharray="2, 4" points="
  1353.64,1388.71 1353.64,158.579 
  "/>
<path clip-path="url(#clip7700)" d="
M1463.01 689.035 L2280.76 689.035 L2280.76 205.195 L1463.01 205.195  Z
  " fill="#ffffff" fill-rule="evenodd" fill-opacity="1"/>
<polyline clip-path="url(#clip7700)" style="stroke:#000000; stroke-width:4; stroke-opacity:1; fill:none" points="
  1463.01,689.035 2280.76,689.035 2280.76,205.195 1463.01,205.195 1463.01,689.035 
  "/>
<path clip-path="url(#clip7700)" d="
M1487.01 289.867 L1631.01 289.867 L1631.01 241.483 L1487.01 241.483 L1487.01 289.867  Z
  " fill="#ff0000" fill-rule="evenodd" fill-opacity="1"/>
<polyline clip-path="url(#clip7700)" style="stroke:#009af9; stroke-width:0; stroke-opacity:1; fill:none" points="
  1487.01,241.483 1631.01,241.483 
  "/>
<g clip-path="url(#clip7700)">
<text style="fill:#000000; fill-opacity:1; font-family:Arial,Helvetica Neue,Helvetica,sans-serif; font-size:48px; text-anchor:start;" transform="rotate(0, 1655.01, 283.175)" x="1655.01" y="283.175">smallest 99.77% interval(s)</text>
</g>
<path clip-path="url(#clip7700)" d="
M1487.01 350.347 L1631.01 350.347 L1631.01 301.963 L1487.01 301.963 L1487.01 350.347  Z
  " fill="#ffff00" fill-rule="evenodd" fill-opacity="1"/>
<polyline clip-path="url(#clip7700)" style="stroke:#e26f46; stroke-width:0; stroke-opacity:1; fill:none" points="
  1487.01,301.963 1631.01,301.963 
  "/>
<g clip-path="url(#clip7700)">
<text style="fill:#000000; fill-opacity:1; font-family:Arial,Helvetica Neue,Helvetica,sans-serif; font-size:48px; text-anchor:start;" transform="rotate(0, 1655.01, 343.655)" x="1655.01" y="343.655">smallest 95.71% interval(s)</text>
</g>
<path clip-path="url(#clip7700)" d="
M1487.01 410.827 L1631.01 410.827 L1631.01 362.443 L1487.01 362.443 L1487.01 410.827  Z
  " fill="#76ee00" fill-rule="evenodd" fill-opacity="1"/>
<polyline clip-path="url(#clip7700)" style="stroke:#3da44d; stroke-width:0; stroke-opacity:1; fill:none" points="
  1487.01,362.443 1631.01,362.443 
  "/>
<g clip-path="url(#clip7700)">
<text style="fill:#000000; fill-opacity:1; font-family:Arial,Helvetica Neue,Helvetica,sans-serif; font-size:48px; text-anchor:start;" transform="rotate(0, 1655.01, 404.135)" x="1655.01" y="404.135">smallest 71.98% interval(s)</text>
</g>
<path clip-path="url(#clip7700)" d="
M1487.01 471.307 L1631.01 471.307 L1631.01 422.923 L1487.01 422.923 L1487.01 471.307  Z
  " fill="#808080" fill-rule="evenodd" fill-opacity="0.5"/>
<polyline clip-path="url(#clip7700)" style="stroke:#000000; stroke-width:0; stroke-opacity:1; fill:none" points="
  1487.01,471.307 1631.01,471.307 1631.01,422.923 1487.01,422.923 1487.01,471.307 
  "/>
<g clip-path="url(#clip7700)">
<text style="fill:#000000; fill-opacity:1; font-family:Arial,Helvetica Neue,Helvetica,sans-serif; font-size:48px; text-anchor:start;" transform="rotate(0, 1655.01, 464.615)" x="1655.01" y="464.615">std. dev.</text>
</g>
<polyline clip-path="url(#clip7700)" style="stroke:#696969; stroke-width:4; stroke-opacity:1; fill:none" points="
  1487.01,507.595 1631.01,507.595 
  "/>
<g clip-path="url(#clip7700)">
<text style="fill:#000000; fill-opacity:1; font-family:Arial,Helvetica Neue,Helvetica,sans-serif; font-size:48px; text-anchor:start;" transform="rotate(0, 1655.01, 525.095)" x="1655.01" y="525.095">mean</text>
</g>
<polyline clip-path="url(#clip7700)" style="stroke:#000000; stroke-width:4; stroke-opacity:1; fill:none" stroke-dasharray="16, 10" points="
  1487.01,568.075 1631.01,568.075 
  "/>
<g clip-path="url(#clip7700)">
<text style="fill:#000000; fill-opacity:1; font-family:Arial,Helvetica Neue,Helvetica,sans-serif; font-size:48px; text-anchor:start;" transform="rotate(0, 1655.01, 585.575)" x="1655.01" y="585.575">global mode</text>
</g>
<polyline clip-path="url(#clip7700)" style="stroke:#000000; stroke-width:4; stroke-opacity:1; fill:none" stroke-dasharray="2, 4" points="
  1487.01,628.555 1631.01,628.555 
  "/>
<g clip-path="url(#clip7700)">
<text style="fill:#000000; fill-opacity:1; font-family:Arial,Helvetica Neue,Helvetica,sans-serif; font-size:48px; text-anchor:start;" transform="rotate(0, 1655.01, 646.055)" x="1655.01" y="646.055">local mode</text>
</g>
</svg>
