<?xml version="1.0" encoding="utf-8"?>
<svg xmlns="http://www.w3.org/2000/svg" xmlns:xlink="http://www.w3.org/1999/xlink" width="600" height="400" viewBox="0 0 2400 1600">
<defs>
  <clipPath id="clip000">
    <rect x="0" y="0" width="2400" height="1600"/>
  </clipPath>
</defs>
<path clip-path="url(#clip000)" d="
M0 1600 L2400 1600 L2400 0 L0 0  Z
  " fill="#ffffff" fill-rule="evenodd" fill-opacity="1"/>
<defs>
  <clipPath id="clip001">
    <rect x="480" y="0" width="1681" height="1600"/>
  </clipPath>
</defs>
<path clip-path="url(#clip000)" d="
M199.283 1486.45 L2352.76 1486.45 L2352.76 123.472 L199.283 123.472  Z
  " fill="#ffffff" fill-rule="evenodd" fill-opacity="1"/>
<defs>
  <clipPath id="clip002">
    <rect x="199" y="123" width="2154" height="1364"/>
  </clipPath>
</defs>
<polyline clip-path="url(#clip002)" style="stroke:#000000; stroke-linecap:butt; stroke-linejoin:round; stroke-width:2; stroke-opacity:0.1; fill:none" points="
  260.231,1486.45 260.231,123.472 
  "/>
<polyline clip-path="url(#clip002)" style="stroke:#000000; stroke-linecap:butt; stroke-linejoin:round; stroke-width:2; stroke-opacity:0.1; fill:none" points="
  768.125,1486.45 768.125,123.472 
  "/>
<polyline clip-path="url(#clip002)" style="stroke:#000000; stroke-linecap:butt; stroke-linejoin:round; stroke-width:2; stroke-opacity:0.1; fill:none" points="
  1276.02,1486.45 1276.02,123.472 
  "/>
<polyline clip-path="url(#clip002)" style="stroke:#000000; stroke-linecap:butt; stroke-linejoin:round; stroke-width:2; stroke-opacity:0.1; fill:none" points="
  1783.91,1486.45 1783.91,123.472 
  "/>
<polyline clip-path="url(#clip002)" style="stroke:#000000; stroke-linecap:butt; stroke-linejoin:round; stroke-width:2; stroke-opacity:0.1; fill:none" points="
  2291.81,1486.45 2291.81,123.472 
  "/>
<polyline clip-path="url(#clip000)" style="stroke:#000000; stroke-linecap:butt; stroke-linejoin:round; stroke-width:4; stroke-opacity:1; fill:none" points="
  199.283,1486.45 2352.76,1486.45 
  "/>
<polyline clip-path="url(#clip000)" style="stroke:#000000; stroke-linecap:butt; stroke-linejoin:round; stroke-width:4; stroke-opacity:1; fill:none" points="
  260.231,1486.45 260.231,1467.55 
  "/>
<polyline clip-path="url(#clip000)" style="stroke:#000000; stroke-linecap:butt; stroke-linejoin:round; stroke-width:4; stroke-opacity:1; fill:none" points="
  768.125,1486.45 768.125,1467.55 
  "/>
<polyline clip-path="url(#clip000)" style="stroke:#000000; stroke-linecap:butt; stroke-linejoin:round; stroke-width:4; stroke-opacity:1; fill:none" points="
  1276.02,1486.45 1276.02,1467.55 
  "/>
<polyline clip-path="url(#clip000)" style="stroke:#000000; stroke-linecap:butt; stroke-linejoin:round; stroke-width:4; stroke-opacity:1; fill:none" points="
  1783.91,1486.45 1783.91,1467.55 
  "/>
<polyline clip-path="url(#clip000)" style="stroke:#000000; stroke-linecap:butt; stroke-linejoin:round; stroke-width:4; stroke-opacity:1; fill:none" points="
  2291.81,1486.45 2291.81,1467.55 
  "/>
<path clip-path="url(#clip000)" d="M229.131 1532.02 L258.807 1532.02 L258.807 1535.95 L229.131 1535.95 L229.131 1532.02 Z" fill="#000000" fill-rule="evenodd" fill-opacity="1" /><path clip-path="url(#clip000)" d="M281.747 1518.36 L269.941 1536.81 L281.747 1536.81 L281.747 1518.36 M280.52 1514.29 L286.399 1514.29 L286.399 1536.81 L291.33 1536.81 L291.33 1540.7 L286.399 1540.7 L286.399 1548.85 L281.747 1548.85 L281.747 1540.7 L266.145 1540.7 L266.145 1536.19 L280.52 1514.29 Z" fill="#000000" fill-rule="evenodd" fill-opacity="1" /><path clip-path="url(#clip000)" d="M738.067 1532.02 L767.743 1532.02 L767.743 1535.95 L738.067 1535.95 L738.067 1532.02 Z" fill="#000000" fill-rule="evenodd" fill-opacity="1" /><path clip-path="url(#clip000)" d="M781.863 1544.91 L798.183 1544.91 L798.183 1548.85 L776.238 1548.85 L776.238 1544.91 Q778.9 1542.16 783.484 1537.53 Q788.09 1532.88 789.271 1531.53 Q791.516 1529.01 792.396 1527.27 Q793.299 1525.51 793.299 1523.82 Q793.299 1521.07 791.354 1519.33 Q789.433 1517.6 786.331 1517.6 Q784.132 1517.6 781.678 1518.36 Q779.248 1519.13 776.47 1520.68 L776.47 1515.95 Q779.294 1514.82 781.748 1514.24 Q784.201 1513.66 786.238 1513.66 Q791.609 1513.66 794.803 1516.35 Q797.998 1519.03 797.998 1523.52 Q797.998 1525.65 797.187 1527.57 Q796.4 1529.47 794.294 1532.07 Q793.715 1532.74 790.613 1535.95 Q787.512 1539.15 781.863 1544.91 Z" fill="#000000" fill-rule="evenodd" fill-opacity="1" /><path clip-path="url(#clip000)" d="M1276.02 1517.37 Q1272.41 1517.37 1270.58 1520.93 Q1268.77 1524.47 1268.77 1531.6 Q1268.77 1538.71 1270.58 1542.27 Q1272.41 1545.82 1276.02 1545.82 Q1279.65 1545.82 1281.46 1542.27 Q1283.29 1538.71 1283.29 1531.6 Q1283.29 1524.47 1281.46 1520.93 Q1279.65 1517.37 1276.02 1517.37 M1276.02 1513.66 Q1281.83 1513.66 1284.89 1518.27 Q1287.96 1522.85 1287.96 1531.6 Q1287.96 1540.33 1284.89 1544.94 Q1281.83 1549.52 1276.02 1549.52 Q1270.21 1549.52 1267.13 1544.94 Q1264.08 1540.33 1264.08 1531.6 Q1264.08 1522.85 1267.13 1518.27 Q1270.21 1513.66 1276.02 1513.66 Z" fill="#000000" fill-rule="evenodd" fill-opacity="1" /><path clip-path="url(#clip000)" d="M1778.57 1544.91 L1794.89 1544.91 L1794.89 1548.85 L1772.94 1548.85 L1772.94 1544.91 Q1775.6 1542.16 1780.19 1537.53 Q1784.79 1532.88 1785.97 1531.53 Q1788.22 1529.01 1789.1 1527.27 Q1790 1525.51 1790 1523.82 Q1790 1521.07 1788.06 1519.33 Q1786.14 1517.6 1783.03 1517.6 Q1780.84 1517.6 1778.38 1518.36 Q1775.95 1519.13 1773.17 1520.68 L1773.17 1515.95 Q1776 1514.82 1778.45 1514.24 Q1780.9 1513.66 1782.94 1513.66 Q1788.31 1513.66 1791.51 1516.35 Q1794.7 1519.03 1794.7 1523.52 Q1794.7 1525.65 1793.89 1527.57 Q1793.1 1529.47 1791 1532.07 Q1790.42 1532.74 1787.32 1535.95 Q1784.21 1539.15 1778.57 1544.91 Z" fill="#000000" fill-rule="evenodd" fill-opacity="1" /><path clip-path="url(#clip000)" d="M2294.82 1518.36 L2283.01 1536.81 L2294.82 1536.81 L2294.82 1518.36 M2293.59 1514.29 L2299.47 1514.29 L2299.47 1536.81 L2304.4 1536.81 L2304.4 1540.7 L2299.47 1540.7 L2299.47 1548.85 L2294.82 1548.85 L2294.82 1540.7 L2279.22 1540.7 L2279.22 1536.19 L2293.59 1514.29 Z" fill="#000000" fill-rule="evenodd" fill-opacity="1" /><polyline clip-path="url(#clip002)" style="stroke:#000000; stroke-linecap:butt; stroke-linejoin:round; stroke-width:2; stroke-opacity:0.1; fill:none" points="
  199.283,1447.87 2352.76,1447.87 
  "/>
<polyline clip-path="url(#clip002)" style="stroke:#000000; stroke-linecap:butt; stroke-linejoin:round; stroke-width:2; stroke-opacity:0.1; fill:none" points="
  199.283,1119.86 2352.76,1119.86 
  "/>
<polyline clip-path="url(#clip002)" style="stroke:#000000; stroke-linecap:butt; stroke-linejoin:round; stroke-width:2; stroke-opacity:0.1; fill:none" points="
  199.283,791.839 2352.76,791.839 
  "/>
<polyline clip-path="url(#clip002)" style="stroke:#000000; stroke-linecap:butt; stroke-linejoin:round; stroke-width:2; stroke-opacity:0.1; fill:none" points="
  199.283,463.822 2352.76,463.822 
  "/>
<polyline clip-path="url(#clip002)" style="stroke:#000000; stroke-linecap:butt; stroke-linejoin:round; stroke-width:2; stroke-opacity:0.1; fill:none" points="
  199.283,135.806 2352.76,135.806 
  "/>
<polyline clip-path="url(#clip000)" style="stroke:#000000; stroke-linecap:butt; stroke-linejoin:round; stroke-width:4; stroke-opacity:1; fill:none" points="
  199.283,1486.45 199.283,123.472 
  "/>
<polyline clip-path="url(#clip000)" style="stroke:#000000; stroke-linecap:butt; stroke-linejoin:round; stroke-width:4; stroke-opacity:1; fill:none" points="
  199.283,1447.87 218.181,1447.87 
  "/>
<polyline clip-path="url(#clip000)" style="stroke:#000000; stroke-linecap:butt; stroke-linejoin:round; stroke-width:4; stroke-opacity:1; fill:none" points="
  199.283,1119.86 218.181,1119.86 
  "/>
<polyline clip-path="url(#clip000)" style="stroke:#000000; stroke-linecap:butt; stroke-linejoin:round; stroke-width:4; stroke-opacity:1; fill:none" points="
  199.283,791.839 218.181,791.839 
  "/>
<polyline clip-path="url(#clip000)" style="stroke:#000000; stroke-linecap:butt; stroke-linejoin:round; stroke-width:4; stroke-opacity:1; fill:none" points="
  199.283,463.822 218.181,463.822 
  "/>
<polyline clip-path="url(#clip000)" style="stroke:#000000; stroke-linecap:butt; stroke-linejoin:round; stroke-width:4; stroke-opacity:1; fill:none" points="
  199.283,135.806 218.181,135.806 
  "/>
<path clip-path="url(#clip000)" d="M151.339 1433.67 Q147.728 1433.67 145.899 1437.24 Q144.093 1440.78 144.093 1447.91 Q144.093 1455.01 145.899 1458.58 Q147.728 1462.12 151.339 1462.12 Q154.973 1462.12 156.779 1458.58 Q158.607 1455.01 158.607 1447.91 Q158.607 1440.78 156.779 1437.24 Q154.973 1433.67 151.339 1433.67 M151.339 1429.97 Q157.149 1429.97 160.205 1434.57 Q163.283 1439.16 163.283 1447.91 Q163.283 1456.63 160.205 1461.24 Q157.149 1465.82 151.339 1465.82 Q145.529 1465.82 142.45 1461.24 Q139.394 1456.63 139.394 1447.91 Q139.394 1439.16 142.45 1434.57 Q145.529 1429.97 151.339 1429.97 Z" fill="#000000" fill-rule="evenodd" fill-opacity="1" /><path clip-path="url(#clip000)" d="M85.0429 1133.2 L101.362 1133.2 L101.362 1137.14 L79.4179 1137.14 L79.4179 1133.2 Q82.0799 1130.45 86.6632 1125.82 Q91.2697 1121.16 92.4502 1119.82 Q94.6956 1117.3 95.5752 1115.56 Q96.478 1113.8 96.478 1112.11 Q96.478 1109.36 94.5336 1107.62 Q92.6123 1105.89 89.5104 1105.89 Q87.3114 1105.89 84.8577 1106.65 Q82.4271 1107.41 79.6494 1108.97 L79.6494 1104.24 Q82.4734 1103.11 84.9271 1102.53 Q87.3808 1101.95 89.4178 1101.95 Q94.7882 1101.95 97.9826 1104.64 Q101.177 1107.32 101.177 1111.81 Q101.177 1113.94 100.367 1115.86 Q99.5798 1117.76 97.4734 1120.35 Q96.8947 1121.03 93.7928 1124.24 Q90.691 1127.44 85.0429 1133.2 Z" fill="#000000" fill-rule="evenodd" fill-opacity="1" /><path clip-path="url(#clip000)" d="M111.223 1102.58 L129.58 1102.58 L129.58 1106.51 L115.506 1106.51 L115.506 1114.98 Q116.524 1114.64 117.543 1114.47 Q118.561 1114.29 119.58 1114.29 Q125.367 1114.29 128.746 1117.46 Q132.126 1120.63 132.126 1126.05 Q132.126 1131.63 128.654 1134.73 Q125.182 1137.81 118.862 1137.81 Q116.686 1137.81 114.418 1137.44 Q112.172 1137.07 109.765 1136.33 L109.765 1131.63 Q111.848 1132.76 114.07 1133.32 Q116.293 1133.87 118.77 1133.87 Q122.774 1133.87 125.112 1131.77 Q127.45 1129.66 127.45 1126.05 Q127.45 1122.44 125.112 1120.33 Q122.774 1118.22 118.77 1118.22 Q116.895 1118.22 115.02 1118.64 Q113.168 1119.06 111.223 1119.94 L111.223 1102.58 Z" fill="#000000" fill-rule="evenodd" fill-opacity="1" /><path clip-path="url(#clip000)" d="M151.339 1105.65 Q147.728 1105.65 145.899 1109.22 Q144.093 1112.76 144.093 1119.89 Q144.093 1127 145.899 1130.56 Q147.728 1134.1 151.339 1134.1 Q154.973 1134.1 156.779 1130.56 Q158.607 1127 158.607 1119.89 Q158.607 1112.76 156.779 1109.22 Q154.973 1105.65 151.339 1105.65 M151.339 1101.95 Q157.149 1101.95 160.205 1106.56 Q163.283 1111.14 163.283 1119.89 Q163.283 1128.62 160.205 1133.22 Q157.149 1137.81 151.339 1137.81 Q145.529 1137.81 142.45 1133.22 Q139.394 1128.62 139.394 1119.89 Q139.394 1111.14 142.45 1106.56 Q145.529 1101.95 151.339 1101.95 Z" fill="#000000" fill-rule="evenodd" fill-opacity="1" /><path clip-path="url(#clip000)" d="M81.0614 774.559 L99.4178 774.559 L99.4178 778.494 L85.3438 778.494 L85.3438 786.967 Q86.3623 786.619 87.3808 786.457 Q88.3993 786.272 89.4178 786.272 Q95.2049 786.272 98.5845 789.444 Q101.964 792.615 101.964 798.031 Q101.964 803.61 98.4919 806.712 Q95.0197 809.791 88.7003 809.791 Q86.5243 809.791 84.2558 809.42 Q82.0105 809.05 79.6031 808.309 L79.6031 803.61 Q81.6864 804.744 83.9086 805.3 Q86.1308 805.855 88.6077 805.855 Q92.6123 805.855 94.9502 803.749 Q97.2882 801.643 97.2882 798.031 Q97.2882 794.42 94.9502 792.314 Q92.6123 790.207 88.6077 790.207 Q86.7327 790.207 84.8577 790.624 Q83.0058 791.041 81.0614 791.92 L81.0614 774.559 Z" fill="#000000" fill-rule="evenodd" fill-opacity="1" /><path clip-path="url(#clip000)" d="M121.177 777.638 Q117.566 777.638 115.737 781.203 Q113.932 784.744 113.932 791.874 Q113.932 798.98 115.737 802.545 Q117.566 806.087 121.177 806.087 Q124.811 806.087 126.617 802.545 Q128.445 798.98 128.445 791.874 Q128.445 784.744 126.617 781.203 Q124.811 777.638 121.177 777.638 M121.177 773.934 Q126.987 773.934 130.043 778.541 Q133.121 783.124 133.121 791.874 Q133.121 800.601 130.043 805.207 Q126.987 809.791 121.177 809.791 Q115.367 809.791 112.288 805.207 Q109.233 800.601 109.233 791.874 Q109.233 783.124 112.288 778.541 Q115.367 773.934 121.177 773.934 Z" fill="#000000" fill-rule="evenodd" fill-opacity="1" /><path clip-path="url(#clip000)" d="M151.339 777.638 Q147.728 777.638 145.899 781.203 Q144.093 784.744 144.093 791.874 Q144.093 798.98 145.899 802.545 Q147.728 806.087 151.339 806.087 Q154.973 806.087 156.779 802.545 Q158.607 798.98 158.607 791.874 Q158.607 784.744 156.779 781.203 Q154.973 777.638 151.339 777.638 M151.339 773.934 Q157.149 773.934 160.205 778.541 Q163.283 783.124 163.283 791.874 Q163.283 800.601 160.205 805.207 Q157.149 809.791 151.339 809.791 Q145.529 809.791 142.45 805.207 Q139.394 800.601 139.394 791.874 Q139.394 783.124 142.45 778.541 Q145.529 773.934 151.339 773.934 Z" fill="#000000" fill-rule="evenodd" fill-opacity="1" /><path clip-path="url(#clip000)" d="M79.8346 446.542 L102.057 446.542 L102.057 448.533 L89.5104 481.102 L84.6262 481.102 L96.4317 450.478 L79.8346 450.478 L79.8346 446.542 Z" fill="#000000" fill-rule="evenodd" fill-opacity="1" /><path clip-path="url(#clip000)" d="M111.223 446.542 L129.58 446.542 L129.58 450.478 L115.506 450.478 L115.506 458.95 Q116.524 458.603 117.543 458.441 Q118.561 458.255 119.58 458.255 Q125.367 458.255 128.746 461.427 Q132.126 464.598 132.126 470.015 Q132.126 475.593 128.654 478.695 Q125.182 481.774 118.862 481.774 Q116.686 481.774 114.418 481.403 Q112.172 481.033 109.765 480.292 L109.765 475.593 Q111.848 476.727 114.07 477.283 Q116.293 477.839 118.77 477.839 Q122.774 477.839 125.112 475.732 Q127.45 473.626 127.45 470.015 Q127.45 466.403 125.112 464.297 Q122.774 462.191 118.77 462.191 Q116.895 462.191 115.02 462.607 Q113.168 463.024 111.223 463.903 L111.223 446.542 Z" fill="#000000" fill-rule="evenodd" fill-opacity="1" /><path clip-path="url(#clip000)" d="M151.339 449.621 Q147.728 449.621 145.899 453.186 Q144.093 456.728 144.093 463.857 Q144.093 470.964 145.899 474.528 Q147.728 478.07 151.339 478.07 Q154.973 478.07 156.779 474.528 Q158.607 470.964 158.607 463.857 Q158.607 456.728 156.779 453.186 Q154.973 449.621 151.339 449.621 M151.339 445.917 Q157.149 445.917 160.205 450.524 Q163.283 455.107 163.283 463.857 Q163.283 472.584 160.205 477.19 Q157.149 481.774 151.339 481.774 Q145.529 481.774 142.45 477.19 Q139.394 472.584 139.394 463.857 Q139.394 455.107 142.45 450.524 Q145.529 445.917 151.339 445.917 Z" fill="#000000" fill-rule="evenodd" fill-opacity="1" /><path clip-path="url(#clip000)" d="M51.6634 149.15 L59.3023 149.15 L59.3023 122.785 L50.9921 124.451 L50.9921 120.192 L59.256 118.526 L63.9319 118.526 L63.9319 149.15 L71.5707 149.15 L71.5707 153.086 L51.6634 153.086 L51.6634 149.15 Z" fill="#000000" fill-rule="evenodd" fill-opacity="1" /><path clip-path="url(#clip000)" d="M91.0151 121.604 Q87.404 121.604 85.5753 125.169 Q83.7697 128.711 83.7697 135.84 Q83.7697 142.947 85.5753 146.512 Q87.404 150.053 91.0151 150.053 Q94.6493 150.053 96.4548 146.512 Q98.2835 142.947 98.2835 135.84 Q98.2835 128.711 96.4548 125.169 Q94.6493 121.604 91.0151 121.604 M91.0151 117.901 Q96.8252 117.901 99.8808 122.507 Q102.959 127.09 102.959 135.84 Q102.959 144.567 99.8808 149.174 Q96.8252 153.757 91.0151 153.757 Q85.2049 153.757 82.1262 149.174 Q79.0707 144.567 79.0707 135.84 Q79.0707 127.09 82.1262 122.507 Q85.2049 117.901 91.0151 117.901 Z" fill="#000000" fill-rule="evenodd" fill-opacity="1" /><path clip-path="url(#clip000)" d="M121.177 121.604 Q117.566 121.604 115.737 125.169 Q113.932 128.711 113.932 135.84 Q113.932 142.947 115.737 146.512 Q117.566 150.053 121.177 150.053 Q124.811 150.053 126.617 146.512 Q128.445 142.947 128.445 135.84 Q128.445 128.711 126.617 125.169 Q124.811 121.604 121.177 121.604 M121.177 117.901 Q126.987 117.901 130.043 122.507 Q133.121 127.09 133.121 135.84 Q133.121 144.567 130.043 149.174 Q126.987 153.757 121.177 153.757 Q115.367 153.757 112.288 149.174 Q109.233 144.567 109.233 135.84 Q109.233 127.09 112.288 122.507 Q115.367 117.901 121.177 117.901 Z" fill="#000000" fill-rule="evenodd" fill-opacity="1" /><path clip-path="url(#clip000)" d="M151.339 121.604 Q147.728 121.604 145.899 125.169 Q144.093 128.711 144.093 135.84 Q144.093 142.947 145.899 146.512 Q147.728 150.053 151.339 150.053 Q154.973 150.053 156.779 146.512 Q158.607 142.947 158.607 135.84 Q158.607 128.711 156.779 125.169 Q154.973 121.604 151.339 121.604 M151.339 117.901 Q157.149 117.901 160.205 122.507 Q163.283 127.09 163.283 135.84 Q163.283 144.567 160.205 149.174 Q157.149 153.757 151.339 153.757 Q145.529 153.757 142.45 149.174 Q139.394 144.567 139.394 135.84 Q139.394 127.09 142.45 122.507 Q145.529 117.901 151.339 117.901 Z" fill="#000000" fill-rule="evenodd" fill-opacity="1" /><path clip-path="url(#clip000)" d="M644.727 18.8205 L644.727 65.8515 L654.611 65.8515 Q667.128 65.8515 672.921 60.1802 Q678.754 54.509 678.754 42.2752 Q678.754 30.1225 672.921 24.4918 Q667.128 18.8205 654.611 18.8205 L644.727 18.8205 M636.544 12.096 L653.355 12.096 Q670.936 12.096 679.159 19.4281 Q687.383 26.7198 687.383 42.2752 Q687.383 57.9117 679.119 65.2439 Q670.855 72.576 653.355 72.576 L636.544 72.576 L636.544 12.096 Z" fill="#000000" fill-rule="evenodd" fill-opacity="1" /><path clip-path="url(#clip000)" d="M720.722 49.7694 Q711.688 49.7694 708.204 51.8354 Q704.721 53.9013 704.721 58.8839 Q704.721 62.8538 707.313 65.2034 Q709.946 67.5124 714.443 67.5124 Q720.641 67.5124 724.367 63.1374 Q728.135 58.7219 728.135 51.4303 L728.135 49.7694 L720.722 49.7694 M735.588 46.6907 L735.588 72.576 L728.135 72.576 L728.135 65.6895 Q725.583 69.8214 721.775 71.8063 Q717.967 73.7508 712.458 73.7508 Q705.49 73.7508 701.358 69.8619 Q697.267 65.9325 697.267 59.3701 Q697.267 51.7138 702.371 47.825 Q707.516 43.9361 717.683 43.9361 L728.135 43.9361 L728.135 43.2069 Q728.135 38.0623 724.732 35.2672 Q721.37 32.4315 715.253 32.4315 Q711.364 32.4315 707.678 33.3632 Q703.991 34.295 700.589 36.1584 L700.589 29.2718 Q704.68 27.692 708.528 26.9223 Q712.377 26.1121 716.023 26.1121 Q725.866 26.1121 730.727 31.2163 Q735.588 36.3204 735.588 46.6907 Z" fill="#000000" fill-rule="evenodd" fill-opacity="1" /><path clip-path="url(#clip000)" d="M758.314 14.324 L758.314 27.2059 L773.667 27.2059 L773.667 32.9987 L758.314 32.9987 L758.314 57.6282 Q758.314 63.1779 759.813 64.7578 Q761.352 66.3376 766.011 66.3376 L773.667 66.3376 L773.667 72.576 L766.011 72.576 Q757.382 72.576 754.101 69.3758 Q750.82 66.1351 750.82 57.6282 L750.82 32.9987 L745.351 32.9987 L745.351 27.2059 L750.82 27.2059 L750.82 14.324 L758.314 14.324 Z" fill="#000000" fill-rule="evenodd" fill-opacity="1" /><path clip-path="url(#clip000)" d="M804.089 49.7694 Q795.056 49.7694 791.572 51.8354 Q788.088 53.9013 788.088 58.8839 Q788.088 62.8538 790.681 65.2034 Q793.314 67.5124 797.81 67.5124 Q804.008 67.5124 807.735 63.1374 Q811.502 58.7219 811.502 51.4303 L811.502 49.7694 L804.089 49.7694 M818.956 46.6907 L818.956 72.576 L811.502 72.576 L811.502 65.6895 Q808.95 69.8214 805.142 71.8063 Q801.335 73.7508 795.825 73.7508 Q788.858 73.7508 784.726 69.8619 Q780.634 65.9325 780.634 59.3701 Q780.634 51.7138 785.739 47.825 Q790.883 43.9361 801.051 43.9361 L811.502 43.9361 L811.502 43.2069 Q811.502 38.0623 808.1 35.2672 Q804.737 32.4315 798.62 32.4315 Q794.732 32.4315 791.045 33.3632 Q787.359 34.295 783.956 36.1584 L783.956 29.2718 Q788.048 27.692 791.896 26.9223 Q795.744 26.1121 799.39 26.1121 Q809.234 26.1121 814.095 31.2163 Q818.956 36.3204 818.956 46.6907 Z" fill="#000000" fill-rule="evenodd" fill-opacity="1" /><path clip-path="url(#clip000)" d="M881.299 49.7694 Q872.266 49.7694 868.782 51.8354 Q865.298 53.9013 865.298 58.8839 Q865.298 62.8538 867.891 65.2034 Q870.524 67.5124 875.021 67.5124 Q881.218 67.5124 884.945 63.1374 Q888.713 58.7219 888.713 51.4303 L888.713 49.7694 L881.299 49.7694 M896.166 46.6907 L896.166 72.576 L888.713 72.576 L888.713 65.6895 Q886.161 69.8214 882.353 71.8063 Q878.545 73.7508 873.036 73.7508 Q866.068 73.7508 861.936 69.8619 Q857.845 65.9325 857.845 59.3701 Q857.845 51.7138 862.949 47.825 Q868.093 43.9361 878.261 43.9361 L888.713 43.9361 L888.713 43.2069 Q888.713 38.0623 885.31 35.2672 Q881.948 32.4315 875.831 32.4315 Q871.942 32.4315 868.256 33.3632 Q864.569 34.295 861.166 36.1584 L861.166 29.2718 Q865.258 27.692 869.106 26.9223 Q872.955 26.1121 876.6 26.1121 Q886.444 26.1121 891.305 31.2163 Q896.166 36.3204 896.166 46.6907 Z" fill="#000000" fill-rule="evenodd" fill-opacity="1" /><path clip-path="url(#clip000)" d="M949.233 45.1919 L949.233 72.576 L941.779 72.576 L941.779 45.4349 Q941.779 38.994 939.268 35.7938 Q936.756 32.5936 931.733 32.5936 Q925.697 32.5936 922.214 36.4419 Q918.73 40.2903 918.73 46.9338 L918.73 72.576 L911.236 72.576 L911.236 27.2059 L918.73 27.2059 L918.73 34.2544 Q921.403 30.163 925.009 28.1376 Q928.655 26.1121 933.394 26.1121 Q941.212 26.1121 945.223 30.9732 Q949.233 35.7938 949.233 45.1919 Z" fill="#000000" fill-rule="evenodd" fill-opacity="1" /><path clip-path="url(#clip000)" d="M993.955 34.0924 L993.955 9.54393 L1001.41 9.54393 L1001.41 72.576 L993.955 72.576 L993.955 65.7705 Q991.606 69.8214 988 71.8063 Q984.435 73.7508 979.412 73.7508 Q971.189 73.7508 966.004 67.1883 Q960.859 60.6258 960.859 49.9314 Q960.859 39.2371 966.004 32.6746 Q971.189 26.1121 979.412 26.1121 Q984.435 26.1121 988 28.0971 Q991.606 30.0415 993.955 34.0924 M968.556 49.9314 Q968.556 58.1548 971.918 62.8538 Q975.321 67.5124 981.235 67.5124 Q987.15 67.5124 990.552 62.8538 Q993.955 58.1548 993.955 49.9314 Q993.955 41.7081 990.552 37.0496 Q987.15 32.3505 981.235 32.3505 Q975.321 32.3505 971.918 37.0496 Q968.556 41.7081 968.556 49.9314 Z" fill="#000000" fill-rule="evenodd" fill-opacity="1" /><path clip-path="url(#clip000)" d="M1035.07 12.096 L1086.23 12.096 L1086.23 18.9825 L1064.76 18.9825 L1064.76 72.576 L1056.54 72.576 L1056.54 18.9825 L1035.07 18.9825 L1035.07 12.096 Z" fill="#000000" fill-rule="evenodd" fill-opacity="1" /><path clip-path="url(#clip000)" d="M1107.91 34.1734 Q1106.65 33.4443 1105.15 33.1202 Q1103.69 32.7556 1101.91 32.7556 Q1095.59 32.7556 1092.19 36.8875 Q1088.83 40.9789 1088.83 48.6757 L1088.83 72.576 L1081.33 72.576 L1081.33 27.2059 L1088.83 27.2059 L1088.83 34.2544 Q1091.18 30.1225 1094.94 28.1376 Q1098.71 26.1121 1104.1 26.1121 Q1104.87 26.1121 1105.8 26.2337 Q1106.73 26.3147 1107.87 26.5172 L1107.91 34.1734 Z" fill="#000000" fill-rule="evenodd" fill-opacity="1" /><path clip-path="url(#clip000)" d="M1114.96 54.671 L1114.96 27.2059 L1122.41 27.2059 L1122.41 54.3874 Q1122.41 60.8284 1124.92 64.0691 Q1127.43 67.2693 1132.46 67.2693 Q1138.49 67.2693 1141.98 63.421 Q1145.5 59.5726 1145.5 52.9291 L1145.5 27.2059 L1152.95 27.2059 L1152.95 72.576 L1145.5 72.576 L1145.5 65.6084 Q1142.79 69.7404 1139.18 71.7658 Q1135.62 73.7508 1130.88 73.7508 Q1123.06 73.7508 1119.01 68.8897 Q1114.96 64.0286 1114.96 54.671 M1133.71 26.1121 L1133.71 26.1121 Z" fill="#000000" fill-rule="evenodd" fill-opacity="1" /><path clip-path="url(#clip000)" d="M1207.11 48.0275 L1207.11 51.6733 L1172.84 51.6733 Q1173.33 59.3701 1177.46 63.421 Q1181.63 67.4314 1189.05 67.4314 Q1193.34 67.4314 1197.35 66.3781 Q1201.4 65.3249 1205.37 63.2184 L1205.37 70.267 Q1201.36 71.9684 1197.15 72.8596 Q1192.94 73.7508 1188.6 73.7508 Q1177.74 73.7508 1171.38 67.4314 Q1165.07 61.1119 1165.07 50.3365 Q1165.07 39.1965 1171.06 32.6746 Q1177.1 26.1121 1187.3 26.1121 Q1196.46 26.1121 1201.77 32.0264 Q1207.11 37.9003 1207.11 48.0275 M1199.66 45.84 Q1199.58 39.7232 1196.22 36.0774 Q1192.89 32.4315 1187.39 32.4315 Q1181.15 32.4315 1177.38 35.9558 Q1173.65 39.4801 1173.09 45.8805 L1199.66 45.84 Z" fill="#000000" fill-rule="evenodd" fill-opacity="1" /><path clip-path="url(#clip000)" d="M1282.3 14.0809 L1282.3 22.0612 Q1277.64 19.8332 1273.51 18.7395 Q1269.38 17.6457 1265.53 17.6457 Q1258.84 17.6457 1255.2 20.2383 Q1251.59 22.8309 1251.59 27.611 Q1251.59 31.6214 1253.98 33.6873 Q1256.41 35.7128 1263.14 36.9686 L1268.08 37.9813 Q1277.23 39.7232 1281.57 44.1387 Q1285.94 48.5136 1285.94 55.8863 Q1285.94 64.6767 1280.03 69.2137 Q1274.16 73.7508 1262.77 73.7508 Q1258.48 73.7508 1253.62 72.7785 Q1248.8 71.8063 1243.61 69.9024 L1243.61 61.4765 Q1248.59 64.2716 1253.37 65.6895 Q1258.16 67.1073 1262.77 67.1073 Q1269.78 67.1073 1273.59 64.3527 Q1277.4 61.598 1277.4 56.4939 Q1277.4 52.0379 1274.64 49.5264 Q1271.93 47.0148 1265.69 45.759 L1260.71 44.7868 Q1251.55 42.9639 1247.46 39.075 Q1243.37 35.1862 1243.37 28.2591 Q1243.37 20.2383 1249 15.6203 Q1254.67 11.0023 1264.6 11.0023 Q1268.85 11.0023 1273.26 11.7719 Q1277.68 12.5416 1282.3 14.0809 Z" fill="#000000" fill-rule="evenodd" fill-opacity="1" /><path clip-path="url(#clip000)" d="M1305.75 14.324 L1305.75 27.2059 L1321.11 27.2059 L1321.11 32.9987 L1305.75 32.9987 L1305.75 57.6282 Q1305.75 63.1779 1307.25 64.7578 Q1308.79 66.3376 1313.45 66.3376 L1321.11 66.3376 L1321.11 72.576 L1313.45 72.576 Q1304.82 72.576 1301.54 69.3758 Q1298.26 66.1351 1298.26 57.6282 L1298.26 32.9987 L1292.79 32.9987 L1292.79 27.2059 L1298.26 27.2059 L1298.26 14.324 L1305.75 14.324 Z" fill="#000000" fill-rule="evenodd" fill-opacity="1" /><path clip-path="url(#clip000)" d="M1351.53 49.7694 Q1342.49 49.7694 1339.01 51.8354 Q1335.53 53.9013 1335.53 58.8839 Q1335.53 62.8538 1338.12 65.2034 Q1340.75 67.5124 1345.25 67.5124 Q1351.45 67.5124 1355.17 63.1374 Q1358.94 58.7219 1358.94 51.4303 L1358.94 49.7694 L1351.53 49.7694 M1366.4 46.6907 L1366.4 72.576 L1358.94 72.576 L1358.94 65.6895 Q1356.39 69.8214 1352.58 71.8063 Q1348.77 73.7508 1343.26 73.7508 Q1336.3 73.7508 1332.17 69.8619 Q1328.07 65.9325 1328.07 59.3701 Q1328.07 51.7138 1333.18 47.825 Q1338.32 43.9361 1348.49 43.9361 L1358.94 43.9361 L1358.94 43.2069 Q1358.94 38.0623 1355.54 35.2672 Q1352.18 32.4315 1346.06 32.4315 Q1342.17 32.4315 1338.48 33.3632 Q1334.8 34.295 1331.4 36.1584 L1331.4 29.2718 Q1335.49 27.692 1339.34 26.9223 Q1343.18 26.1121 1346.83 26.1121 Q1356.67 26.1121 1361.53 31.2163 Q1366.4 36.3204 1366.4 46.6907 Z" fill="#000000" fill-rule="evenodd" fill-opacity="1" /><path clip-path="url(#clip000)" d="M1389.12 14.324 L1389.12 27.2059 L1404.47 27.2059 L1404.47 32.9987 L1389.12 32.9987 L1389.12 57.6282 Q1389.12 63.1779 1390.62 64.7578 Q1392.16 66.3376 1396.82 66.3376 L1404.47 66.3376 L1404.47 72.576 L1396.82 72.576 Q1388.19 72.576 1384.91 69.3758 Q1381.63 66.1351 1381.63 57.6282 L1381.63 32.9987 L1376.16 32.9987 L1376.16 27.2059 L1381.63 27.2059 L1381.63 14.324 L1389.12 14.324 Z" fill="#000000" fill-rule="evenodd" fill-opacity="1" /><path clip-path="url(#clip000)" d="M1414.28 27.2059 L1421.73 27.2059 L1421.73 72.576 L1414.28 72.576 L1414.28 27.2059 M1414.28 9.54393 L1421.73 9.54393 L1421.73 18.9825 L1414.28 18.9825 L1414.28 9.54393 Z" fill="#000000" fill-rule="evenodd" fill-opacity="1" /><path clip-path="url(#clip000)" d="M1466.25 28.5427 L1466.25 35.5912 Q1463.09 33.9709 1459.69 33.1607 Q1456.28 32.3505 1452.64 32.3505 Q1447.09 32.3505 1444.29 34.0519 Q1441.54 35.7533 1441.54 39.156 Q1441.54 41.7486 1443.52 43.2475 Q1445.51 44.7058 1451.5 46.0426 L1454.06 46.6097 Q1462 48.3111 1465.32 51.4303 Q1468.68 54.509 1468.68 60.0587 Q1468.68 66.3781 1463.66 70.0644 Q1458.67 73.7508 1449.92 73.7508 Q1446.28 73.7508 1442.31 73.0216 Q1438.38 72.3329 1434 70.9151 L1434 63.2184 Q1438.14 65.3654 1442.15 66.4591 Q1446.16 67.5124 1450.09 67.5124 Q1455.35 67.5124 1458.19 65.73 Q1461.02 63.9071 1461.02 60.6258 Q1461.02 57.5877 1458.96 55.9673 Q1456.93 54.3469 1450.01 52.8481 L1447.41 52.2405 Q1440.49 50.7821 1437.41 47.7845 Q1434.33 44.7463 1434.33 39.4801 Q1434.33 33.0797 1438.87 29.5959 Q1443.4 26.1121 1451.75 26.1121 Q1455.88 26.1121 1459.53 26.7198 Q1463.17 27.3274 1466.25 28.5427 Z" fill="#000000" fill-rule="evenodd" fill-opacity="1" /><path clip-path="url(#clip000)" d="M1487.92 14.324 L1487.92 27.2059 L1503.28 27.2059 L1503.28 32.9987 L1487.92 32.9987 L1487.92 57.6282 Q1487.92 63.1779 1489.42 64.7578 Q1490.96 66.3376 1495.62 66.3376 L1503.28 66.3376 L1503.28 72.576 L1495.62 72.576 Q1486.99 72.576 1483.71 69.3758 Q1480.43 66.1351 1480.43 57.6282 L1480.43 32.9987 L1474.96 32.9987 L1474.96 27.2059 L1480.43 27.2059 L1480.43 14.324 L1487.92 14.324 Z" fill="#000000" fill-rule="evenodd" fill-opacity="1" /><path clip-path="url(#clip000)" d="M1513.08 27.2059 L1520.53 27.2059 L1520.53 72.576 L1513.08 72.576 L1513.08 27.2059 M1513.08 9.54393 L1520.53 9.54393 L1520.53 18.9825 L1513.08 18.9825 L1513.08 9.54393 Z" fill="#000000" fill-rule="evenodd" fill-opacity="1" /><path clip-path="url(#clip000)" d="M1568.78 28.9478 L1568.78 35.9153 Q1565.62 34.1734 1562.42 33.3227 Q1559.26 32.4315 1556.02 32.4315 Q1548.77 32.4315 1544.76 37.0496 Q1540.75 41.6271 1540.75 49.9314 Q1540.75 58.2358 1544.76 62.8538 Q1548.77 67.4314 1556.02 67.4314 Q1559.26 67.4314 1562.42 66.5807 Q1565.62 65.6895 1568.78 63.9476 L1568.78 70.8341 Q1565.66 72.2924 1562.3 73.0216 Q1558.98 73.7508 1555.21 73.7508 Q1544.96 73.7508 1538.92 67.3098 Q1532.89 60.8689 1532.89 49.9314 Q1532.89 38.832 1538.96 32.472 Q1545.08 26.1121 1555.69 26.1121 Q1559.14 26.1121 1562.42 26.8413 Q1565.7 27.5299 1568.78 28.9478 Z" fill="#000000" fill-rule="evenodd" fill-opacity="1" /><path clip-path="url(#clip000)" d="M1602.36 49.7694 Q1593.33 49.7694 1589.84 51.8354 Q1586.36 53.9013 1586.36 58.8839 Q1586.36 62.8538 1588.95 65.2034 Q1591.58 67.5124 1596.08 67.5124 Q1602.28 67.5124 1606.01 63.1374 Q1609.77 58.7219 1609.77 51.4303 L1609.77 49.7694 L1602.36 49.7694 M1617.23 46.6907 L1617.23 72.576 L1609.77 72.576 L1609.77 65.6895 Q1607.22 69.8214 1603.41 71.8063 Q1599.61 73.7508 1594.1 73.7508 Q1587.13 73.7508 1583 69.8619 Q1578.91 65.9325 1578.91 59.3701 Q1578.91 51.7138 1584.01 47.825 Q1589.15 43.9361 1599.32 43.9361 L1609.77 43.9361 L1609.77 43.2069 Q1609.77 38.0623 1606.37 35.2672 Q1603.01 32.4315 1596.89 32.4315 Q1593 32.4315 1589.32 33.3632 Q1585.63 34.295 1582.23 36.1584 L1582.23 29.2718 Q1586.32 27.692 1590.17 26.9223 Q1594.02 26.1121 1597.66 26.1121 Q1607.51 26.1121 1612.37 31.2163 Q1617.23 36.3204 1617.23 46.6907 Z" fill="#000000" fill-rule="evenodd" fill-opacity="1" /><path clip-path="url(#clip000)" d="M1632.58 9.54393 L1640.03 9.54393 L1640.03 72.576 L1632.58 72.576 L1632.58 9.54393 Z" fill="#000000" fill-rule="evenodd" fill-opacity="1" /><path clip-path="url(#clip000)" d="M1682.33 12.096 L1694.52 12.096 L1709.95 53.2532 L1725.47 12.096 L1737.66 12.096 L1737.66 72.576 L1729.68 72.576 L1729.68 19.4686 L1714.08 60.9499 L1705.86 60.9499 L1690.27 19.4686 L1690.27 72.576 L1682.33 72.576 L1682.33 12.096 Z" fill="#000000" fill-rule="evenodd" fill-opacity="1" /><path clip-path="url(#clip000)" d="M1771.16 32.4315 Q1765.17 32.4315 1761.68 37.1306 Q1758.2 41.7891 1758.2 49.9314 Q1758.2 58.0738 1761.64 62.7728 Q1765.13 67.4314 1771.16 67.4314 Q1777.12 67.4314 1780.6 62.7323 Q1784.08 58.0333 1784.08 49.9314 Q1784.08 41.8701 1780.6 37.1711 Q1777.12 32.4315 1771.16 32.4315 M1771.16 26.1121 Q1780.88 26.1121 1786.43 32.4315 Q1791.98 38.7509 1791.98 49.9314 Q1791.98 61.0714 1786.43 67.4314 Q1780.88 73.7508 1771.16 73.7508 Q1761.4 73.7508 1755.85 67.4314 Q1750.34 61.0714 1750.34 49.9314 Q1750.34 38.7509 1755.85 32.4315 Q1761.4 26.1121 1771.16 26.1121 Z" fill="#000000" fill-rule="evenodd" fill-opacity="1" /><path clip-path="url(#clip000)" d="M1834.19 34.0924 L1834.19 9.54393 L1841.65 9.54393 L1841.65 72.576 L1834.19 72.576 L1834.19 65.7705 Q1831.84 69.8214 1828.24 71.8063 Q1824.67 73.7508 1819.65 73.7508 Q1811.43 73.7508 1806.24 67.1883 Q1801.1 60.6258 1801.1 49.9314 Q1801.1 39.2371 1806.24 32.6746 Q1811.43 26.1121 1819.65 26.1121 Q1824.67 26.1121 1828.24 28.0971 Q1831.84 30.0415 1834.19 34.0924 M1808.79 49.9314 Q1808.79 58.1548 1812.16 62.8538 Q1815.56 67.5124 1821.47 67.5124 Q1827.39 67.5124 1830.79 62.8538 Q1834.19 58.1548 1834.19 49.9314 Q1834.19 41.7081 1830.79 37.0496 Q1827.39 32.3505 1821.47 32.3505 Q1815.56 32.3505 1812.16 37.0496 Q1808.79 41.7081 1808.79 49.9314 Z" fill="#000000" fill-rule="evenodd" fill-opacity="1" /><path clip-path="url(#clip000)" d="M1895.81 48.0275 L1895.81 51.6733 L1861.54 51.6733 Q1862.02 59.3701 1866.16 63.421 Q1870.33 67.4314 1877.74 67.4314 Q1882.03 67.4314 1886.05 66.3781 Q1890.1 65.3249 1894.07 63.2184 L1894.07 70.267 Q1890.06 71.9684 1885.84 72.8596 Q1881.63 73.7508 1877.3 73.7508 Q1866.44 73.7508 1860.08 67.4314 Q1853.76 61.1119 1853.76 50.3365 Q1853.76 39.1965 1859.75 32.6746 Q1865.79 26.1121 1876 26.1121 Q1885.15 26.1121 1890.46 32.0264 Q1895.81 37.9003 1895.81 48.0275 M1888.35 45.84 Q1888.27 39.7232 1884.91 36.0774 Q1881.59 32.4315 1876.08 32.4315 Q1869.84 32.4315 1866.07 35.9558 Q1862.35 39.4801 1861.78 45.8805 L1888.35 45.84 Z" fill="#000000" fill-rule="evenodd" fill-opacity="1" /><path clip-path="url(#clip000)" d="M1908.04 9.54393 L1915.5 9.54393 L1915.5 72.576 L1908.04 72.576 L1908.04 9.54393 Z" fill="#000000" fill-rule="evenodd" fill-opacity="1" /><polyline clip-path="url(#clip002)" style="stroke:#009af9; stroke-linecap:butt; stroke-linejoin:round; stroke-width:4; stroke-opacity:1; fill:none" points="
  768.125,1447.87 768.125,1316.67 793.52,1316.67 793.52,1369.15 818.914,1369.15 818.914,1251.06 844.309,1251.06 844.309,1224.82 869.704,1224.82 869.704,1159.22 
  895.099,1159.22 895.099,1041.13 920.493,1041.13 920.493,949.287 945.888,949.287 945.888,1093.61 971.283,1093.61 971.283,883.684 996.678,883.684 996.678,923.046 
  1022.07,923.046 1022.07,870.563 1047.47,870.563 1047.47,1172.34 1072.86,1172.34 1072.86,962.408 1098.26,962.408 1098.26,936.167 1123.65,936.167 1123.65,1093.61 
  1149.05,1093.61 1149.05,1198.58 1174.44,1198.58 1174.44,1251.06 1199.84,1251.06 1199.84,1237.94 1225.23,1237.94 1225.23,1342.91 1250.62,1342.91 1250.62,1356.03 
  1276.02,1356.03 1276.02,1382.27 1301.41,1382.27 1301.41,1421.63 1326.81,1421.63 1326.81,1434.75 1352.2,1434.75 1377.6,1434.75 1377.6,1447.87 
  1402.99,1447.87 1428.39,1447.87 1428.39,1421.63 1453.78,1421.63 1453.78,1408.51 1479.18,1408.51 1479.18,1369.15 1504.57,1369.15 1504.57,1290.42 
  1529.97,1290.42 1555.36,1290.42 1555.36,1172.34 1580.76,1172.34 1580.76,1001.77 1606.15,1001.77 1606.15,1119.86 1631.55,1119.86 1631.55,975.529 
  1656.94,975.529 1656.94,752.477 1682.34,752.477 1682.34,542.546 1707.73,542.546 1707.73,476.943 1733.12,476.943 1733.12,201.409 1758.52,201.409 1758.52,490.064 
  1783.91,490.064 1783.91,162.047 1809.31,162.047 1809.31,634.391 1834.7,634.391 1834.7,503.184 1860.1,503.184 1860.1,660.633 1885.49,660.633 1885.49,909.925 
  1910.89,909.925 1910.89,1041.13 1936.28,1041.13 1936.28,975.529 1961.68,975.529 1961.68,1106.74 1987.07,1106.74 1987.07,1224.82 2012.47,1224.82 2012.47,1198.58 
  2037.86,1198.58 2037.86,1329.79 2063.26,1329.79 2063.26,1369.15 2088.65,1369.15 2088.65,1395.39 2114.05,1395.39 2114.05,1434.75 2139.44,1434.75 2139.44,1447.87 
  2164.83,1447.87 2164.83,1434.75 2190.23,1434.75 2215.62,1434.75 2241.02,1434.75 2241.02,1447.87 2266.41,1447.87 
  2291.81,1447.87 
  "/>
<polyline clip-path="url(#clip002)" style="stroke:#e26f46; stroke-linecap:butt; stroke-linejoin:round; stroke-width:4; stroke-opacity:1; fill:none" points="
  260.231,1447.87 262.77,1447.87 265.309,1447.87 267.849,1447.87 270.388,1447.87 272.928,1447.87 275.467,1447.87 278.007,1447.87 280.546,1447.87 283.086,1447.87 
  285.625,1447.87 288.165,1447.87 290.704,1447.87 293.244,1447.87 295.783,1447.87 298.323,1447.87 300.862,1447.87 303.402,1447.87 305.941,1447.87 308.481,1447.87 
  311.02,1447.87 313.559,1447.87 316.099,1447.87 318.638,1447.87 321.178,1447.87 323.717,1447.87 326.257,1447.87 328.796,1447.87 331.336,1447.87 333.875,1447.87 
  336.415,1447.87 338.954,1447.87 341.494,1447.87 344.033,1447.87 346.573,1447.87 349.112,1447.87 351.652,1447.87 354.191,1447.87 356.73,1447.87 359.27,1447.87 
  361.809,1447.87 364.349,1447.87 366.888,1447.87 369.428,1447.87 371.967,1447.87 374.507,1447.87 377.046,1447.87 379.586,1447.87 382.125,1447.87 384.665,1447.87 
  387.204,1447.87 389.744,1447.87 392.283,1447.87 394.823,1447.87 397.362,1447.87 399.902,1447.87 402.441,1447.87 404.98,1447.87 407.52,1447.87 410.059,1447.87 
  412.599,1447.87 415.138,1447.87 417.678,1447.87 420.217,1447.87 422.757,1447.87 425.296,1447.86 427.836,1447.86 430.375,1447.86 432.915,1447.86 435.454,1447.86 
  437.994,1447.86 440.533,1447.86 443.073,1447.86 445.612,1447.86 448.151,1447.85 450.691,1447.85 453.23,1447.85 455.77,1447.85 458.309,1447.85 460.849,1447.84 
  463.388,1447.84 465.928,1447.84 468.467,1447.83 471.007,1447.83 473.546,1447.83 476.086,1447.82 478.625,1447.82 481.165,1447.81 483.704,1447.81 486.244,1447.8 
  488.783,1447.8 491.323,1447.79 493.862,1447.78 496.401,1447.77 498.941,1447.77 501.48,1447.76 504.02,1447.75 506.559,1447.74 509.099,1447.72 511.638,1447.71 
  514.178,1447.7 516.717,1447.68 519.257,1447.67 521.796,1447.65 524.336,1447.63 526.875,1447.61 529.415,1447.59 531.954,1447.57 534.494,1447.54 537.033,1447.52 
  539.573,1447.49 542.112,1447.46 544.651,1447.43 547.191,1447.39 549.73,1447.36 552.27,1447.32 554.809,1447.27 557.349,1447.23 559.888,1447.18 562.428,1447.13 
  564.967,1447.07 567.507,1447.01 570.046,1446.95 572.586,1446.88 575.125,1446.81 577.665,1446.73 580.204,1446.65 582.744,1446.56 585.283,1446.46 587.822,1446.36 
  590.362,1446.26 592.901,1446.14 595.441,1446.02 597.98,1445.89 600.52,1445.76 603.059,1445.61 605.599,1445.46 608.138,1445.3 610.678,1445.12 613.217,1444.94 
  615.757,1444.75 618.296,1444.54 620.836,1444.32 623.375,1444.09 625.915,1443.85 628.454,1443.59 630.994,1443.31 633.533,1443.02 636.072,1442.72 638.612,1442.4 
  641.151,1442.06 643.691,1441.7 646.23,1441.32 648.77,1440.92 651.309,1440.5 653.849,1440.06 656.388,1439.6 658.928,1439.11 661.467,1438.6 664.007,1438.06 
  666.546,1437.49 669.086,1436.89 671.625,1436.27 674.165,1435.61 676.704,1434.92 679.244,1434.2 681.783,1433.44 684.322,1432.65 686.862,1431.82 689.401,1430.96 
  691.941,1430.05 694.48,1429.1 697.02,1428.11 699.559,1427.08 702.099,1426 704.638,1424.87 707.178,1423.7 709.717,1422.48 712.257,1421.2 714.796,1419.87 
  717.336,1418.49 719.875,1417.05 722.415,1415.56 724.954,1414 727.493,1412.38 730.033,1410.71 732.572,1408.96 735.112,1407.16 737.651,1405.28 740.191,1403.34 
  742.73,1401.33 745.27,1399.24 747.809,1397.09 750.349,1394.86 752.888,1392.55 755.428,1390.16 757.967,1387.7 760.507,1385.16 763.046,1382.53 765.586,1379.82 
  768.125,1377.03 770.665,1374.16 773.204,1371.19 775.743,1368.15 778.283,1365.01 780.822,1361.78 783.362,1358.46 785.901,1355.06 788.441,1351.56 790.98,1347.97 
  793.52,1344.29 796.059,1340.51 798.599,1336.64 801.138,1332.68 803.678,1328.62 806.217,1324.47 808.757,1320.23 811.296,1315.9 813.836,1311.47 816.375,1306.95 
  818.914,1302.34 821.454,1297.64 823.993,1292.84 826.533,1287.96 829.072,1282.99 831.612,1277.94 834.151,1272.8 836.691,1267.57 839.23,1262.27 841.77,1256.88 
  844.309,1251.42 846.849,1245.88 849.388,1240.27 851.928,1234.59 854.467,1228.84 857.007,1223.03 859.546,1217.15 862.086,1211.21 864.625,1205.22 867.164,1199.18 
  869.704,1193.09 872.243,1186.95 874.783,1180.77 877.322,1174.56 879.862,1168.31 882.401,1162.04 884.941,1155.74 887.48,1149.42 890.02,1143.08 892.559,1136.74 
  895.099,1130.39 897.638,1124.04 900.178,1117.7 902.717,1111.37 905.257,1105.05 907.796,1098.75 910.336,1092.48 912.875,1086.24 915.414,1080.04 917.954,1073.89 
  920.493,1067.78 923.033,1061.73 925.572,1055.73 928.112,1049.81 930.651,1043.95 933.191,1038.17 935.73,1032.48 938.27,1026.88 940.809,1021.37 943.349,1015.96 
  945.888,1010.66 948.428,1005.47 950.967,1000.4 953.507,995.449 956.046,990.627 958.585,985.94 961.125,981.39 963.664,976.985 966.204,972.728 968.743,968.624 
  971.283,964.678 973.822,960.894 976.362,957.277 978.901,953.831 981.441,950.559 983.98,947.467 986.52,944.556 989.059,941.83 991.599,939.294 994.138,936.949 
  996.678,934.799 999.217,932.845 1001.76,931.091 1004.3,929.539 1006.84,928.189 1009.37,927.045 1011.91,926.106 1014.45,925.375 1016.99,924.852 1019.53,924.539 
  1022.07,924.434 1024.61,924.539 1027.15,924.852 1029.69,925.375 1032.23,926.106 1034.77,927.045 1037.31,928.189 1039.85,929.538 1042.39,931.091 1044.93,932.845 
  1047.47,934.799 1050.01,936.949 1052.55,939.294 1055.09,941.83 1057.62,944.556 1060.16,947.466 1062.7,950.559 1065.24,953.831 1067.78,957.277 1070.32,960.894 
  1072.86,964.678 1075.4,968.624 1077.94,972.727 1080.48,976.985 1083.02,981.39 1085.56,985.939 1088.1,990.627 1090.64,995.448 1093.18,1000.4 1095.72,1005.47 
  1098.26,1010.66 1100.8,1015.96 1103.34,1021.37 1105.87,1026.88 1108.41,1032.48 1110.95,1038.17 1113.49,1043.95 1116.03,1049.8 1118.57,1055.73 1121.11,1061.72 
  1123.65,1067.78 1126.19,1073.88 1128.73,1080.04 1131.27,1086.24 1133.81,1092.48 1136.35,1098.75 1138.89,1105.05 1141.43,1111.36 1143.97,1117.7 1146.51,1124.04 
  1149.05,1130.39 1151.59,1136.74 1154.12,1143.08 1156.66,1149.41 1159.2,1155.73 1161.74,1162.03 1164.28,1168.3 1166.82,1174.55 1169.36,1180.77 1171.9,1186.94 
  1174.44,1193.08 1176.98,1199.17 1179.52,1205.21 1182.06,1211.2 1184.6,1217.13 1187.14,1223.01 1189.68,1228.82 1192.22,1234.57 1194.76,1240.25 1197.3,1245.86 
  1199.84,1251.39 1202.37,1256.85 1204.91,1262.24 1207.45,1267.54 1209.99,1272.76 1212.53,1277.9 1215.07,1282.95 1217.61,1287.91 1220.15,1292.79 1222.69,1297.58 
  1225.23,1302.27 1227.77,1306.88 1230.31,1311.39 1232.85,1315.81 1235.39,1320.14 1237.93,1324.37 1240.47,1328.51 1243.01,1332.56 1245.55,1336.51 1248.09,1340.37 
  1250.62,1344.13 1253.16,1347.8 1255.7,1351.38 1258.24,1354.86 1260.78,1358.25 1263.32,1361.55 1265.86,1364.75 1268.4,1367.87 1270.94,1370.9 1273.48,1373.83 
  1276.02,1376.68 1278.56,1379.44 1281.1,1382.12 1283.64,1384.71 1286.18,1387.22 1288.72,1389.64 1291.26,1391.98 1293.8,1394.25 1296.34,1396.43 1298.87,1398.53 
  1301.41,1400.56 1303.95,1402.51 1306.49,1404.39 1309.03,1406.2 1311.57,1407.93 1314.11,1409.59 1316.65,1411.18 1319.19,1412.71 1321.73,1414.17 1324.27,1415.56 
  1326.81,1416.88 1329.35,1418.15 1331.89,1419.35 1334.43,1420.49 1336.97,1421.57 1339.51,1422.58 1342.05,1423.55 1344.59,1424.45 1347.12,1425.29 1349.66,1426.08 
  1352.2,1426.82 1354.74,1427.5 1357.28,1428.12 1359.82,1428.69 1362.36,1429.21 1364.9,1429.68 1367.44,1430.09 1369.98,1430.46 1372.52,1430.77 1375.06,1431.02 
  1377.6,1431.23 1380.14,1431.39 1382.68,1431.49 1385.22,1431.54 1387.76,1431.54 1390.3,1431.49 1392.84,1431.39 1395.37,1431.23 1397.91,1431.02 1400.45,1430.75 
  1402.99,1430.43 1405.53,1430.05 1408.07,1429.62 1410.61,1429.13 1413.15,1428.58 1415.69,1427.97 1418.23,1427.3 1420.77,1426.56 1423.31,1425.77 1425.85,1424.9 
  1428.39,1423.97 1430.93,1422.98 1433.47,1421.91 1436.01,1420.77 1438.55,1419.56 1441.09,1418.27 1443.62,1416.9 1446.16,1415.45 1448.7,1413.93 1451.24,1412.31 
  1453.78,1410.61 1456.32,1408.82 1458.86,1406.94 1461.4,1404.97 1463.94,1402.9 1466.48,1400.73 1469.02,1398.46 1471.56,1396.08 1474.1,1393.6 1476.64,1391.01 
  1479.18,1388.3 1481.72,1385.48 1484.26,1382.54 1486.8,1379.48 1489.34,1376.3 1491.87,1372.98 1494.41,1369.54 1496.95,1365.96 1499.49,1362.25 1502.03,1358.39 
  1504.57,1354.4 1507.11,1350.26 1509.65,1345.97 1512.19,1341.53 1514.73,1336.94 1517.27,1332.19 1519.81,1327.29 1522.35,1322.22 1524.89,1316.99 1527.43,1311.59 
  1529.97,1306.02 1532.51,1300.28 1535.05,1294.37 1537.59,1288.28 1540.12,1282.01 1542.66,1275.57 1545.2,1268.95 1547.74,1262.14 1550.28,1255.15 1552.82,1247.98 
  1555.36,1240.62 1557.9,1233.07 1560.44,1225.34 1562.98,1217.42 1565.52,1209.32 1568.06,1201.03 1570.6,1192.54 1573.14,1183.88 1575.68,1175.03 1578.22,1165.99 
  1580.76,1156.77 1583.3,1147.37 1585.84,1137.78 1588.37,1128.02 1590.91,1118.09 1593.45,1107.98 1595.99,1097.7 1598.53,1087.26 1601.07,1076.65 1603.61,1065.88 
  1606.15,1054.95 1608.69,1043.88 1611.23,1032.66 1613.77,1021.3 1616.31,1009.8 1618.85,998.17 1621.39,986.418 1623.93,974.548 1626.47,962.566 1629.01,950.481 
  1631.55,938.297 1634.09,926.025 1636.62,913.67 1639.16,901.241 1641.7,888.747 1644.24,876.196 1646.78,863.597 1649.32,850.959 1651.86,838.292 1654.4,825.605 
  1656.94,812.907 1659.48,800.21 1662.02,787.523 1664.56,774.856 1667.1,762.221 1669.64,749.628 1672.18,737.088 1674.72,724.613 1677.26,712.212 1679.8,699.898 
  1682.34,687.683 1684.87,675.576 1687.41,663.591 1689.95,651.738 1692.49,640.029 1695.03,628.476 1697.57,617.09 1700.11,605.883 1702.65,594.866 1705.19,584.05 
  1707.73,573.446 1710.27,563.067 1712.81,552.923 1715.35,543.024 1717.89,533.382 1720.43,524.006 1722.97,514.908 1725.51,506.096 1728.05,497.582 1730.59,489.374 
  1733.12,481.482 1735.66,473.915 1738.2,466.681 1740.74,459.789 1743.28,453.246 1745.82,447.06 1748.36,441.238 1750.9,435.788 1753.44,430.715 1755.98,426.025 
  1758.52,421.724 1761.06,417.817 1763.6,414.309 1766.14,411.204 1768.68,408.505 1771.22,406.216 1773.76,404.339 1776.3,402.877 1778.84,401.832 1781.37,401.204 
  1783.91,400.995 1786.45,401.204 1788.99,401.832 1791.53,402.877 1794.07,404.339 1796.61,406.216 1799.15,408.505 1801.69,411.204 1804.23,414.309 1806.77,417.817 
  1809.31,421.724 1811.85,426.025 1814.39,430.715 1816.93,435.788 1819.47,441.238 1822.01,447.06 1824.55,453.246 1827.09,459.789 1829.62,466.681 1832.16,473.915 
  1834.7,481.483 1837.24,489.375 1839.78,497.582 1842.32,506.096 1844.86,514.908 1847.4,524.006 1849.94,533.382 1852.48,543.024 1855.02,552.923 1857.56,563.067 
  1860.1,573.447 1862.64,584.05 1865.18,594.866 1867.72,605.883 1870.26,617.091 1872.8,628.477 1875.34,640.03 1877.87,651.739 1880.41,663.592 1882.95,675.577 
  1885.49,687.683 1888.03,699.899 1890.57,712.213 1893.11,724.614 1895.65,737.089 1898.19,749.629 1900.73,762.223 1903.27,774.858 1905.81,787.524 1908.35,800.212 
  1910.89,812.909 1913.43,825.607 1915.97,838.294 1918.51,850.962 1921.05,863.6 1923.59,876.2 1926.12,888.751 1928.66,901.245 1931.2,913.674 1933.74,926.029 
  1936.28,938.303 1938.82,950.486 1941.36,962.573 1943.9,974.555 1946.44,986.426 1948.98,998.179 1951.52,1009.81 1954.06,1021.31 1956.6,1032.67 1959.14,1043.89 
  1961.68,1054.97 1964.22,1065.89 1966.76,1076.66 1969.3,1087.27 1971.84,1097.72 1974.37,1108 1976.91,1118.11 1979.45,1128.05 1981.99,1137.81 1984.53,1147.4 
  1987.07,1156.8 1989.61,1166.03 1992.15,1175.07 1994.69,1183.92 1997.23,1192.59 1999.77,1201.08 2002.31,1209.37 2004.85,1217.48 2007.39,1225.41 2009.93,1233.15 
  2012.47,1240.7 2015.01,1248.06 2017.55,1255.24 2020.09,1262.24 2022.62,1269.06 2025.16,1275.69 2027.7,1282.14 2030.24,1288.42 2032.78,1294.52 2035.32,1300.44 
  2037.86,1306.19 2040.4,1311.78 2042.94,1317.19 2045.48,1322.44 2048.02,1327.53 2050.56,1332.45 2053.1,1337.22 2055.64,1341.84 2058.18,1346.3 2060.72,1350.62 
  2063.26,1354.78 2065.8,1358.81 2068.33,1362.69 2070.87,1366.44 2073.41,1370.06 2075.95,1373.54 2078.49,1376.9 2081.03,1380.13 2083.57,1383.24 2086.11,1386.23 
  2088.65,1389.11 2091.19,1391.87 2093.73,1394.53 2096.27,1397.08 2098.81,1399.53 2101.35,1401.88 2103.89,1404.13 2106.43,1406.29 2108.97,1408.35 2111.51,1410.33 
  2114.05,1412.23 2116.58,1414.04 2119.12,1415.78 2121.66,1417.43 2124.2,1419.02 2126.74,1420.53 2129.28,1421.97 2131.82,1423.35 2134.36,1424.66 2136.9,1425.91 
  2139.44,1427.1 2141.98,1428.24 2144.52,1429.32 2147.06,1430.35 2149.6,1431.32 2152.14,1432.25 2154.68,1433.14 2157.22,1433.97 2159.76,1434.77 2162.3,1435.53 
  2164.83,1436.24 2167.37,1436.92 2169.91,1437.57 2172.45,1438.18 2174.99,1438.75 2177.53,1439.3 2180.07,1439.82 2182.61,1440.31 2185.15,1440.77 2187.69,1441.2 
  2190.23,1441.62 2192.77,1442.01 2195.31,1442.37 2197.85,1442.72 2200.39,1443.05 2202.93,1443.35 2205.47,1443.64 2208.01,1443.91 2210.55,1444.17 2213.08,1444.41 
  2215.62,1444.64 2218.16,1444.85 2220.7,1445.05 2223.24,1445.24 2225.78,1445.42 2228.32,1445.58 2230.86,1445.74 2233.4,1445.88 2235.94,1446.02 2238.48,1446.15 
  2241.02,1446.27 2243.56,1446.38 2246.1,1446.48 2248.64,1446.58 2251.18,1446.67 2253.72,1446.76 2256.26,1446.84 2258.8,1446.91 2261.33,1446.98 2263.87,1447.05 
  2266.41,1447.11 2268.95,1447.16 2271.49,1447.22 2274.03,1447.26 2276.57,1447.31 2279.11,1447.35 2281.65,1447.39 2284.19,1447.43 2286.73,1447.46 2289.27,1447.49 
  2291.81,1447.52 
  "/>
<path clip-path="url(#clip000)" d="
M1925.43 324.425 L2280.97 324.425 L2280.97 168.905 L1925.43 168.905  Z
  " fill="#ffffff" fill-rule="evenodd" fill-opacity="1"/>
<polyline clip-path="url(#clip000)" style="stroke:#000000; stroke-linecap:butt; stroke-linejoin:round; stroke-width:4; stroke-opacity:1; fill:none" points="
  1925.43,324.425 2280.97,324.425 2280.97,168.905 1925.43,168.905 1925.43,324.425 
  "/>
<polyline clip-path="url(#clip000)" style="stroke:#009af9; stroke-linecap:butt; stroke-linejoin:round; stroke-width:4; stroke-opacity:1; fill:none" points="
  1949.35,220.745 2092.92,220.745 
  "/>
<path clip-path="url(#clip000)" d="M2121.52 207.307 L2121.52 234.182 L2127.17 234.182 Q2134.32 234.182 2137.63 230.941 Q2140.97 227.701 2140.97 220.71 Q2140.97 213.766 2137.63 210.548 Q2134.32 207.307 2127.17 207.307 L2121.52 207.307 M2116.85 203.465 L2126.45 203.465 Q2136.5 203.465 2141.2 207.654 Q2145.9 211.821 2145.9 220.71 Q2145.9 229.645 2141.17 233.835 Q2136.45 238.025 2126.45 238.025 L2116.85 238.025 L2116.85 203.465 Z" fill="#000000" fill-rule="evenodd" fill-opacity="1" /><path clip-path="url(#clip000)" d="M2164.95 224.992 Q2159.79 224.992 2157.79 226.173 Q2155.8 227.353 2155.8 230.201 Q2155.8 232.469 2157.29 233.812 Q2158.79 235.131 2161.36 235.131 Q2164.9 235.131 2167.03 232.631 Q2169.18 230.108 2169.18 225.941 L2169.18 224.992 L2164.95 224.992 M2173.44 223.233 L2173.44 238.025 L2169.18 238.025 L2169.18 234.089 Q2167.73 236.451 2165.55 237.585 Q2163.37 238.696 2160.23 238.696 Q2156.24 238.696 2153.88 236.474 Q2151.54 234.228 2151.54 230.478 Q2151.54 226.103 2154.46 223.881 Q2157.4 221.659 2163.21 221.659 L2169.18 221.659 L2169.18 221.242 Q2169.18 218.303 2167.24 216.705 Q2165.32 215.085 2161.82 215.085 Q2159.6 215.085 2157.49 215.617 Q2155.39 216.15 2153.44 217.215 L2153.44 213.279 Q2155.78 212.377 2157.98 211.937 Q2160.18 211.474 2162.26 211.474 Q2167.89 211.474 2170.67 214.391 Q2173.44 217.307 2173.44 223.233 Z" fill="#000000" fill-rule="evenodd" fill-opacity="1" /><path clip-path="url(#clip000)" d="M2186.43 204.738 L2186.43 212.099 L2195.2 212.099 L2195.2 215.409 L2186.43 215.409 L2186.43 229.483 Q2186.43 232.654 2187.29 233.557 Q2188.17 234.46 2190.83 234.46 L2195.2 234.46 L2195.2 238.025 L2190.83 238.025 Q2185.9 238.025 2184.02 236.196 Q2182.15 234.344 2182.15 229.483 L2182.15 215.409 L2179.02 215.409 L2179.02 212.099 L2182.15 212.099 L2182.15 204.738 L2186.43 204.738 Z" fill="#000000" fill-rule="evenodd" fill-opacity="1" /><path clip-path="url(#clip000)" d="M2212.59 224.992 Q2207.42 224.992 2205.43 226.173 Q2203.44 227.353 2203.44 230.201 Q2203.44 232.469 2204.92 233.812 Q2206.43 235.131 2209 235.131 Q2212.54 235.131 2214.67 232.631 Q2216.82 230.108 2216.82 225.941 L2216.82 224.992 L2212.59 224.992 M2221.08 223.233 L2221.08 238.025 L2216.82 238.025 L2216.82 234.089 Q2215.36 236.451 2213.19 237.585 Q2211.01 238.696 2207.86 238.696 Q2203.88 238.696 2201.52 236.474 Q2199.18 234.228 2199.18 230.478 Q2199.18 226.103 2202.1 223.881 Q2205.04 221.659 2210.85 221.659 L2216.82 221.659 L2216.82 221.242 Q2216.82 218.303 2214.88 216.705 Q2212.96 215.085 2209.46 215.085 Q2207.24 215.085 2205.13 215.617 Q2203.03 216.15 2201.08 217.215 L2201.08 213.279 Q2203.42 212.377 2205.62 211.937 Q2207.82 211.474 2209.9 211.474 Q2215.53 211.474 2218.3 214.391 Q2221.08 217.307 2221.08 223.233 Z" fill="#000000" fill-rule="evenodd" fill-opacity="1" /><polyline clip-path="url(#clip000)" style="stroke:#e26f46; stroke-linecap:butt; stroke-linejoin:round; stroke-width:4; stroke-opacity:1; fill:none" points="
  1949.35,272.585 2092.92,272.585 
  "/>
<path clip-path="url(#clip000)" d="M2116.85 255.305 L2146.08 255.305 L2146.08 259.24 L2133.81 259.24 L2133.81 289.865 L2129.11 289.865 L2129.11 259.24 L2116.85 259.24 L2116.85 255.305 Z" fill="#000000" fill-rule="evenodd" fill-opacity="1" /><path clip-path="url(#clip000)" d="M2158.47 267.92 Q2157.75 267.504 2156.89 267.318 Q2156.06 267.11 2155.04 267.11 Q2151.43 267.11 2149.48 269.471 Q2147.56 271.809 2147.56 276.207 L2147.56 289.865 L2143.28 289.865 L2143.28 263.939 L2147.56 263.939 L2147.56 267.967 Q2148.91 265.606 2151.06 264.471 Q2153.21 263.314 2156.29 263.314 Q2156.73 263.314 2157.26 263.383 Q2157.79 263.43 2158.44 263.545 L2158.47 267.92 Z" fill="#000000" fill-rule="evenodd" fill-opacity="1" /><path clip-path="url(#clip000)" d="M2162.49 279.633 L2162.49 263.939 L2166.75 263.939 L2166.75 279.471 Q2166.75 283.152 2168.19 285.004 Q2169.62 286.832 2172.49 286.832 Q2175.94 286.832 2177.93 284.633 Q2179.95 282.434 2179.95 278.638 L2179.95 263.939 L2184.21 263.939 L2184.21 289.865 L2179.95 289.865 L2179.95 285.883 Q2178.4 288.244 2176.34 289.402 Q2174.3 290.536 2171.59 290.536 Q2167.12 290.536 2164.81 287.758 Q2162.49 284.98 2162.49 279.633 M2173.21 263.314 L2173.21 263.314 Z" fill="#000000" fill-rule="evenodd" fill-opacity="1" /><path clip-path="url(#clip000)" d="M2197.19 256.578 L2197.19 263.939 L2205.97 263.939 L2205.97 267.249 L2197.19 267.249 L2197.19 281.323 Q2197.19 284.494 2198.05 285.397 Q2198.93 286.3 2201.59 286.3 L2205.97 286.3 L2205.97 289.865 L2201.59 289.865 Q2196.66 289.865 2194.79 288.036 Q2192.91 286.184 2192.91 281.323 L2192.91 267.249 L2189.79 267.249 L2189.79 263.939 L2192.91 263.939 L2192.91 256.578 L2197.19 256.578 Z" fill="#000000" fill-rule="evenodd" fill-opacity="1" /><path clip-path="url(#clip000)" d="M2233.12 274.217 L2233.12 289.865 L2228.86 289.865 L2228.86 274.355 Q2228.86 270.675 2227.42 268.846 Q2225.99 267.018 2223.12 267.018 Q2219.67 267.018 2217.68 269.217 Q2215.69 271.416 2215.69 275.212 L2215.69 289.865 L2211.41 289.865 L2211.41 253.846 L2215.69 253.846 L2215.69 267.967 Q2217.22 265.629 2219.28 264.471 Q2221.36 263.314 2224.07 263.314 Q2228.54 263.314 2230.83 266.092 Q2233.12 268.846 2233.12 274.217 Z" fill="#000000" fill-rule="evenodd" fill-opacity="1" /></svg>
