<?xml version="1.0" encoding="utf-8"?>
<svg xmlns="http://www.w3.org/2000/svg" xmlns:xlink="http://www.w3.org/1999/xlink" width="600" height="400" viewBox="0 0 2400 1600">
<defs>
  <clipPath id="clip970">
    <rect x="0" y="0" width="2400" height="1600"/>
  </clipPath>
</defs>
<path clip-path="url(#clip970)" d="
M0 1600 L2400 1600 L2400 0 L0 0  Z
  " fill="#ffffff" fill-rule="evenodd" fill-opacity="1"/>
<defs>
  <clipPath id="clip971">
    <rect x="480" y="0" width="1681" height="1600"/>
  </clipPath>
</defs>
<path clip-path="url(#clip970)" d="
M199.283 1486.45 L2352.76 1486.45 L2352.76 123.472 L199.283 123.472  Z
  " fill="#ffffff" fill-rule="evenodd" fill-opacity="1"/>
<defs>
  <clipPath id="clip972">
    <rect x="199" y="123" width="2154" height="1364"/>
  </clipPath>
</defs>
<polyline clip-path="url(#clip972)" style="stroke:#000000; stroke-linecap:butt; stroke-linejoin:round; stroke-width:2; stroke-opacity:0.1; fill:none" points="
  260.231,1486.45 260.231,123.472 
  "/>
<polyline clip-path="url(#clip972)" style="stroke:#000000; stroke-linecap:butt; stroke-linejoin:round; stroke-width:2; stroke-opacity:0.1; fill:none" points="
  598.827,1486.45 598.827,123.472 
  "/>
<polyline clip-path="url(#clip972)" style="stroke:#000000; stroke-linecap:butt; stroke-linejoin:round; stroke-width:2; stroke-opacity:0.1; fill:none" points="
  937.423,1486.45 937.423,123.472 
  "/>
<polyline clip-path="url(#clip972)" style="stroke:#000000; stroke-linecap:butt; stroke-linejoin:round; stroke-width:2; stroke-opacity:0.1; fill:none" points="
  1276.02,1486.45 1276.02,123.472 
  "/>
<polyline clip-path="url(#clip972)" style="stroke:#000000; stroke-linecap:butt; stroke-linejoin:round; stroke-width:2; stroke-opacity:0.1; fill:none" points="
  1614.62,1486.45 1614.62,123.472 
  "/>
<polyline clip-path="url(#clip972)" style="stroke:#000000; stroke-linecap:butt; stroke-linejoin:round; stroke-width:2; stroke-opacity:0.1; fill:none" points="
  1953.21,1486.45 1953.21,123.472 
  "/>
<polyline clip-path="url(#clip972)" style="stroke:#000000; stroke-linecap:butt; stroke-linejoin:round; stroke-width:2; stroke-opacity:0.1; fill:none" points="
  2291.81,1486.45 2291.81,123.472 
  "/>
<polyline clip-path="url(#clip970)" style="stroke:#000000; stroke-linecap:butt; stroke-linejoin:round; stroke-width:4; stroke-opacity:1; fill:none" points="
  199.283,1486.45 2352.76,1486.45 
  "/>
<polyline clip-path="url(#clip970)" style="stroke:#000000; stroke-linecap:butt; stroke-linejoin:round; stroke-width:4; stroke-opacity:1; fill:none" points="
  260.231,1486.45 260.231,1467.55 
  "/>
<polyline clip-path="url(#clip970)" style="stroke:#000000; stroke-linecap:butt; stroke-linejoin:round; stroke-width:4; stroke-opacity:1; fill:none" points="
  598.827,1486.45 598.827,1467.55 
  "/>
<polyline clip-path="url(#clip970)" style="stroke:#000000; stroke-linecap:butt; stroke-linejoin:round; stroke-width:4; stroke-opacity:1; fill:none" points="
  937.423,1486.45 937.423,1467.55 
  "/>
<polyline clip-path="url(#clip970)" style="stroke:#000000; stroke-linecap:butt; stroke-linejoin:round; stroke-width:4; stroke-opacity:1; fill:none" points="
  1276.02,1486.45 1276.02,1467.55 
  "/>
<polyline clip-path="url(#clip970)" style="stroke:#000000; stroke-linecap:butt; stroke-linejoin:round; stroke-width:4; stroke-opacity:1; fill:none" points="
  1614.62,1486.45 1614.62,1467.55 
  "/>
<polyline clip-path="url(#clip970)" style="stroke:#000000; stroke-linecap:butt; stroke-linejoin:round; stroke-width:4; stroke-opacity:1; fill:none" points="
  1953.21,1486.45 1953.21,1467.55 
  "/>
<polyline clip-path="url(#clip970)" style="stroke:#000000; stroke-linecap:butt; stroke-linejoin:round; stroke-width:4; stroke-opacity:1; fill:none" points="
  2291.81,1486.45 2291.81,1467.55 
  "/>
<path clip-path="url(#clip970)" d="M230.173 1532.02 L259.849 1532.02 L259.849 1535.95 L230.173 1535.95 L230.173 1532.02 Z" fill="#000000" fill-rule="evenodd" fill-opacity="1" /><path clip-path="url(#clip970)" d="M273.969 1544.91 L290.288 1544.91 L290.288 1548.85 L268.344 1548.85 L268.344 1544.91 Q271.006 1542.16 275.589 1537.53 Q280.196 1532.88 281.376 1531.53 Q283.622 1529.01 284.501 1527.27 Q285.404 1525.51 285.404 1523.82 Q285.404 1521.07 283.46 1519.33 Q281.538 1517.6 278.436 1517.6 Q276.237 1517.6 273.784 1518.36 Q271.353 1519.13 268.575 1520.68 L268.575 1515.95 Q271.399 1514.82 273.853 1514.24 Q276.307 1513.66 278.344 1513.66 Q283.714 1513.66 286.909 1516.35 Q290.103 1519.03 290.103 1523.52 Q290.103 1525.65 289.293 1527.57 Q288.506 1529.47 286.399 1532.07 Q285.821 1532.74 282.719 1535.95 Q279.617 1539.15 273.969 1544.91 Z" fill="#000000" fill-rule="evenodd" fill-opacity="1" /><path clip-path="url(#clip970)" d="M568.584 1532.02 L598.26 1532.02 L598.26 1535.95 L568.584 1535.95 L568.584 1532.02 Z" fill="#000000" fill-rule="evenodd" fill-opacity="1" /><path clip-path="url(#clip970)" d="M609.162 1544.91 L616.801 1544.91 L616.801 1518.55 L608.491 1520.21 L608.491 1515.95 L616.755 1514.29 L621.431 1514.29 L621.431 1544.91 L629.07 1544.91 L629.07 1548.85 L609.162 1548.85 L609.162 1544.91 Z" fill="#000000" fill-rule="evenodd" fill-opacity="1" /><path clip-path="url(#clip970)" d="M937.423 1517.37 Q933.812 1517.37 931.983 1520.93 Q930.178 1524.47 930.178 1531.6 Q930.178 1538.71 931.983 1542.27 Q933.812 1545.82 937.423 1545.82 Q941.057 1545.82 942.863 1542.27 Q944.692 1538.71 944.692 1531.6 Q944.692 1524.47 942.863 1520.93 Q941.057 1517.37 937.423 1517.37 M937.423 1513.66 Q943.233 1513.66 946.289 1518.27 Q949.368 1522.85 949.368 1531.6 Q949.368 1540.33 946.289 1544.94 Q943.233 1549.52 937.423 1549.52 Q931.613 1549.52 928.534 1544.94 Q925.479 1540.33 925.479 1531.6 Q925.479 1522.85 928.534 1518.27 Q931.613 1513.66 937.423 1513.66 Z" fill="#000000" fill-rule="evenodd" fill-opacity="1" /><path clip-path="url(#clip970)" d="M1266.4 1544.91 L1274.04 1544.91 L1274.04 1518.55 L1265.73 1520.21 L1265.73 1515.95 L1273.99 1514.29 L1278.67 1514.29 L1278.67 1544.91 L1286.31 1544.91 L1286.31 1548.85 L1266.4 1548.85 L1266.4 1544.91 Z" fill="#000000" fill-rule="evenodd" fill-opacity="1" /><path clip-path="url(#clip970)" d="M1609.27 1544.91 L1625.59 1544.91 L1625.59 1548.85 L1603.64 1548.85 L1603.64 1544.91 Q1606.31 1542.16 1610.89 1537.53 Q1615.5 1532.88 1616.68 1531.53 Q1618.92 1529.01 1619.8 1527.27 Q1620.7 1525.51 1620.7 1523.82 Q1620.7 1521.07 1618.76 1519.33 Q1616.84 1517.6 1613.74 1517.6 Q1611.54 1517.6 1609.08 1518.36 Q1606.65 1519.13 1603.88 1520.68 L1603.88 1515.95 Q1606.7 1514.82 1609.15 1514.24 Q1611.61 1513.66 1613.64 1513.66 Q1619.01 1513.66 1622.21 1516.35 Q1625.4 1519.03 1625.4 1523.52 Q1625.4 1525.65 1624.59 1527.57 Q1623.81 1529.47 1621.7 1532.07 Q1621.12 1532.74 1618.02 1535.95 Q1614.92 1539.15 1609.27 1544.91 Z" fill="#000000" fill-rule="evenodd" fill-opacity="1" /><path clip-path="url(#clip970)" d="M1957.46 1530.21 Q1960.82 1530.93 1962.69 1533.2 Q1964.59 1535.47 1964.59 1538.8 Q1964.59 1543.92 1961.07 1546.72 Q1957.55 1549.52 1951.07 1549.52 Q1948.9 1549.52 1946.58 1549.08 Q1944.29 1548.66 1941.83 1547.81 L1941.83 1543.29 Q1943.78 1544.43 1946.09 1545.01 Q1948.41 1545.58 1950.93 1545.58 Q1955.33 1545.58 1957.62 1543.85 Q1959.94 1542.11 1959.94 1538.8 Q1959.94 1535.75 1957.78 1534.03 Q1955.65 1532.3 1951.83 1532.3 L1947.81 1532.3 L1947.81 1528.45 L1952.02 1528.45 Q1955.47 1528.45 1957.3 1527.09 Q1959.13 1525.7 1959.13 1523.11 Q1959.13 1520.45 1957.23 1519.03 Q1955.35 1517.6 1951.83 1517.6 Q1949.91 1517.6 1947.71 1518.01 Q1945.52 1518.43 1942.88 1519.31 L1942.88 1515.14 Q1945.54 1514.4 1947.85 1514.03 Q1950.19 1513.66 1952.25 1513.66 Q1957.58 1513.66 1960.68 1516.09 Q1963.78 1518.5 1963.78 1522.62 Q1963.78 1525.49 1962.14 1527.48 Q1960.49 1529.45 1957.46 1530.21 Z" fill="#000000" fill-rule="evenodd" fill-opacity="1" /><path clip-path="url(#clip970)" d="M2294.82 1518.36 L2283.01 1536.81 L2294.82 1536.81 L2294.82 1518.36 M2293.59 1514.29 L2299.47 1514.29 L2299.47 1536.81 L2304.4 1536.81 L2304.4 1540.7 L2299.47 1540.7 L2299.47 1548.85 L2294.82 1548.85 L2294.82 1540.7 L2279.22 1540.7 L2279.22 1536.19 L2293.59 1514.29 Z" fill="#000000" fill-rule="evenodd" fill-opacity="1" /><polyline clip-path="url(#clip972)" style="stroke:#000000; stroke-linecap:butt; stroke-linejoin:round; stroke-width:2; stroke-opacity:0.1; fill:none" points="
  199.283,1447.87 2352.76,1447.87 
  "/>
<polyline clip-path="url(#clip972)" style="stroke:#000000; stroke-linecap:butt; stroke-linejoin:round; stroke-width:2; stroke-opacity:0.1; fill:none" points="
  199.283,1119.86 2352.76,1119.86 
  "/>
<polyline clip-path="url(#clip972)" style="stroke:#000000; stroke-linecap:butt; stroke-linejoin:round; stroke-width:2; stroke-opacity:0.1; fill:none" points="
  199.283,791.839 2352.76,791.839 
  "/>
<polyline clip-path="url(#clip972)" style="stroke:#000000; stroke-linecap:butt; stroke-linejoin:round; stroke-width:2; stroke-opacity:0.1; fill:none" points="
  199.283,463.822 2352.76,463.822 
  "/>
<polyline clip-path="url(#clip972)" style="stroke:#000000; stroke-linecap:butt; stroke-linejoin:round; stroke-width:2; stroke-opacity:0.1; fill:none" points="
  199.283,135.806 2352.76,135.806 
  "/>
<polyline clip-path="url(#clip970)" style="stroke:#000000; stroke-linecap:butt; stroke-linejoin:round; stroke-width:4; stroke-opacity:1; fill:none" points="
  199.283,1486.45 199.283,123.472 
  "/>
<polyline clip-path="url(#clip970)" style="stroke:#000000; stroke-linecap:butt; stroke-linejoin:round; stroke-width:4; stroke-opacity:1; fill:none" points="
  199.283,1447.87 218.181,1447.87 
  "/>
<polyline clip-path="url(#clip970)" style="stroke:#000000; stroke-linecap:butt; stroke-linejoin:round; stroke-width:4; stroke-opacity:1; fill:none" points="
  199.283,1119.86 218.181,1119.86 
  "/>
<polyline clip-path="url(#clip970)" style="stroke:#000000; stroke-linecap:butt; stroke-linejoin:round; stroke-width:4; stroke-opacity:1; fill:none" points="
  199.283,791.839 218.181,791.839 
  "/>
<polyline clip-path="url(#clip970)" style="stroke:#000000; stroke-linecap:butt; stroke-linejoin:round; stroke-width:4; stroke-opacity:1; fill:none" points="
  199.283,463.822 218.181,463.822 
  "/>
<polyline clip-path="url(#clip970)" style="stroke:#000000; stroke-linecap:butt; stroke-linejoin:round; stroke-width:4; stroke-opacity:1; fill:none" points="
  199.283,135.806 218.181,135.806 
  "/>
<path clip-path="url(#clip970)" d="M151.339 1433.67 Q147.728 1433.67 145.899 1437.24 Q144.093 1440.78 144.093 1447.91 Q144.093 1455.01 145.899 1458.58 Q147.728 1462.12 151.339 1462.12 Q154.973 1462.12 156.779 1458.58 Q158.607 1455.01 158.607 1447.91 Q158.607 1440.78 156.779 1437.24 Q154.973 1433.67 151.339 1433.67 M151.339 1429.97 Q157.149 1429.97 160.205 1434.57 Q163.283 1439.16 163.283 1447.91 Q163.283 1456.63 160.205 1461.24 Q157.149 1465.82 151.339 1465.82 Q145.529 1465.82 142.45 1461.24 Q139.394 1456.63 139.394 1447.91 Q139.394 1439.16 142.45 1434.57 Q145.529 1429.97 151.339 1429.97 Z" fill="#000000" fill-rule="evenodd" fill-opacity="1" /><path clip-path="url(#clip970)" d="M85.0429 1133.2 L101.362 1133.2 L101.362 1137.14 L79.4179 1137.14 L79.4179 1133.2 Q82.0799 1130.45 86.6632 1125.82 Q91.2697 1121.16 92.4502 1119.82 Q94.6956 1117.3 95.5752 1115.56 Q96.478 1113.8 96.478 1112.11 Q96.478 1109.36 94.5336 1107.62 Q92.6123 1105.89 89.5104 1105.89 Q87.3114 1105.89 84.8577 1106.65 Q82.4271 1107.41 79.6494 1108.97 L79.6494 1104.24 Q82.4734 1103.11 84.9271 1102.53 Q87.3808 1101.95 89.4178 1101.95 Q94.7882 1101.95 97.9826 1104.64 Q101.177 1107.32 101.177 1111.81 Q101.177 1113.94 100.367 1115.86 Q99.5798 1117.76 97.4734 1120.35 Q96.8947 1121.03 93.7928 1124.24 Q90.691 1127.44 85.0429 1133.2 Z" fill="#000000" fill-rule="evenodd" fill-opacity="1" /><path clip-path="url(#clip970)" d="M111.223 1102.58 L129.58 1102.58 L129.58 1106.51 L115.506 1106.51 L115.506 1114.98 Q116.524 1114.64 117.543 1114.47 Q118.561 1114.29 119.58 1114.29 Q125.367 1114.29 128.746 1117.46 Q132.126 1120.63 132.126 1126.05 Q132.126 1131.63 128.654 1134.73 Q125.182 1137.81 118.862 1137.81 Q116.686 1137.81 114.418 1137.44 Q112.172 1137.07 109.765 1136.33 L109.765 1131.63 Q111.848 1132.76 114.07 1133.32 Q116.293 1133.87 118.77 1133.87 Q122.774 1133.87 125.112 1131.77 Q127.45 1129.66 127.45 1126.05 Q127.45 1122.44 125.112 1120.33 Q122.774 1118.22 118.77 1118.22 Q116.895 1118.22 115.02 1118.64 Q113.168 1119.06 111.223 1119.94 L111.223 1102.58 Z" fill="#000000" fill-rule="evenodd" fill-opacity="1" /><path clip-path="url(#clip970)" d="M151.339 1105.65 Q147.728 1105.65 145.899 1109.22 Q144.093 1112.76 144.093 1119.89 Q144.093 1127 145.899 1130.56 Q147.728 1134.1 151.339 1134.1 Q154.973 1134.1 156.779 1130.56 Q158.607 1127 158.607 1119.89 Q158.607 1112.76 156.779 1109.22 Q154.973 1105.65 151.339 1105.65 M151.339 1101.95 Q157.149 1101.95 160.205 1106.56 Q163.283 1111.14 163.283 1119.89 Q163.283 1128.62 160.205 1133.22 Q157.149 1137.81 151.339 1137.81 Q145.529 1137.81 142.45 1133.22 Q139.394 1128.62 139.394 1119.89 Q139.394 1111.14 142.45 1106.56 Q145.529 1101.95 151.339 1101.95 Z" fill="#000000" fill-rule="evenodd" fill-opacity="1" /><path clip-path="url(#clip970)" d="M81.0614 774.559 L99.4178 774.559 L99.4178 778.494 L85.3438 778.494 L85.3438 786.967 Q86.3623 786.619 87.3808 786.457 Q88.3993 786.272 89.4178 786.272 Q95.2049 786.272 98.5845 789.444 Q101.964 792.615 101.964 798.031 Q101.964 803.61 98.4919 806.712 Q95.0197 809.791 88.7003 809.791 Q86.5243 809.791 84.2558 809.42 Q82.0105 809.05 79.6031 808.309 L79.6031 803.61 Q81.6864 804.744 83.9086 805.3 Q86.1308 805.855 88.6077 805.855 Q92.6123 805.855 94.9502 803.749 Q97.2882 801.643 97.2882 798.031 Q97.2882 794.42 94.9502 792.314 Q92.6123 790.207 88.6077 790.207 Q86.7327 790.207 84.8577 790.624 Q83.0058 791.041 81.0614 791.92 L81.0614 774.559 Z" fill="#000000" fill-rule="evenodd" fill-opacity="1" /><path clip-path="url(#clip970)" d="M121.177 777.638 Q117.566 777.638 115.737 781.203 Q113.932 784.744 113.932 791.874 Q113.932 798.98 115.737 802.545 Q117.566 806.087 121.177 806.087 Q124.811 806.087 126.617 802.545 Q128.445 798.98 128.445 791.874 Q128.445 784.744 126.617 781.203 Q124.811 777.638 121.177 777.638 M121.177 773.934 Q126.987 773.934 130.043 778.541 Q133.121 783.124 133.121 791.874 Q133.121 800.601 130.043 805.207 Q126.987 809.791 121.177 809.791 Q115.367 809.791 112.288 805.207 Q109.233 800.601 109.233 791.874 Q109.233 783.124 112.288 778.541 Q115.367 773.934 121.177 773.934 Z" fill="#000000" fill-rule="evenodd" fill-opacity="1" /><path clip-path="url(#clip970)" d="M151.339 777.638 Q147.728 777.638 145.899 781.203 Q144.093 784.744 144.093 791.874 Q144.093 798.98 145.899 802.545 Q147.728 806.087 151.339 806.087 Q154.973 806.087 156.779 802.545 Q158.607 798.98 158.607 791.874 Q158.607 784.744 156.779 781.203 Q154.973 777.638 151.339 777.638 M151.339 773.934 Q157.149 773.934 160.205 778.541 Q163.283 783.124 163.283 791.874 Q163.283 800.601 160.205 805.207 Q157.149 809.791 151.339 809.791 Q145.529 809.791 142.45 805.207 Q139.394 800.601 139.394 791.874 Q139.394 783.124 142.45 778.541 Q145.529 773.934 151.339 773.934 Z" fill="#000000" fill-rule="evenodd" fill-opacity="1" /><path clip-path="url(#clip970)" d="M79.8346 446.542 L102.057 446.542 L102.057 448.533 L89.5104 481.102 L84.6262 481.102 L96.4317 450.478 L79.8346 450.478 L79.8346 446.542 Z" fill="#000000" fill-rule="evenodd" fill-opacity="1" /><path clip-path="url(#clip970)" d="M111.223 446.542 L129.58 446.542 L129.58 450.478 L115.506 450.478 L115.506 458.95 Q116.524 458.603 117.543 458.441 Q118.561 458.255 119.58 458.255 Q125.367 458.255 128.746 461.427 Q132.126 464.598 132.126 470.015 Q132.126 475.593 128.654 478.695 Q125.182 481.774 118.862 481.774 Q116.686 481.774 114.418 481.403 Q112.172 481.033 109.765 480.292 L109.765 475.593 Q111.848 476.727 114.07 477.283 Q116.293 477.839 118.77 477.839 Q122.774 477.839 125.112 475.732 Q127.45 473.626 127.45 470.015 Q127.45 466.403 125.112 464.297 Q122.774 462.191 118.77 462.191 Q116.895 462.191 115.02 462.607 Q113.168 463.024 111.223 463.903 L111.223 446.542 Z" fill="#000000" fill-rule="evenodd" fill-opacity="1" /><path clip-path="url(#clip970)" d="M151.339 449.621 Q147.728 449.621 145.899 453.186 Q144.093 456.728 144.093 463.857 Q144.093 470.964 145.899 474.528 Q147.728 478.07 151.339 478.07 Q154.973 478.07 156.779 474.528 Q158.607 470.964 158.607 463.857 Q158.607 456.728 156.779 453.186 Q154.973 449.621 151.339 449.621 M151.339 445.917 Q157.149 445.917 160.205 450.524 Q163.283 455.107 163.283 463.857 Q163.283 472.584 160.205 477.19 Q157.149 481.774 151.339 481.774 Q145.529 481.774 142.45 477.19 Q139.394 472.584 139.394 463.857 Q139.394 455.107 142.45 450.524 Q145.529 445.917 151.339 445.917 Z" fill="#000000" fill-rule="evenodd" fill-opacity="1" /><path clip-path="url(#clip970)" d="M51.6634 149.15 L59.3023 149.15 L59.3023 122.785 L50.9921 124.451 L50.9921 120.192 L59.256 118.526 L63.9319 118.526 L63.9319 149.15 L71.5707 149.15 L71.5707 153.086 L51.6634 153.086 L51.6634 149.15 Z" fill="#000000" fill-rule="evenodd" fill-opacity="1" /><path clip-path="url(#clip970)" d="M91.0151 121.604 Q87.404 121.604 85.5753 125.169 Q83.7697 128.711 83.7697 135.84 Q83.7697 142.947 85.5753 146.512 Q87.404 150.053 91.0151 150.053 Q94.6493 150.053 96.4548 146.512 Q98.2835 142.947 98.2835 135.84 Q98.2835 128.711 96.4548 125.169 Q94.6493 121.604 91.0151 121.604 M91.0151 117.901 Q96.8252 117.901 99.8808 122.507 Q102.959 127.09 102.959 135.84 Q102.959 144.567 99.8808 149.174 Q96.8252 153.757 91.0151 153.757 Q85.2049 153.757 82.1262 149.174 Q79.0707 144.567 79.0707 135.84 Q79.0707 127.09 82.1262 122.507 Q85.2049 117.901 91.0151 117.901 Z" fill="#000000" fill-rule="evenodd" fill-opacity="1" /><path clip-path="url(#clip970)" d="M121.177 121.604 Q117.566 121.604 115.737 125.169 Q113.932 128.711 113.932 135.84 Q113.932 142.947 115.737 146.512 Q117.566 150.053 121.177 150.053 Q124.811 150.053 126.617 146.512 Q128.445 142.947 128.445 135.84 Q128.445 128.711 126.617 125.169 Q124.811 121.604 121.177 121.604 M121.177 117.901 Q126.987 117.901 130.043 122.507 Q133.121 127.09 133.121 135.84 Q133.121 144.567 130.043 149.174 Q126.987 153.757 121.177 153.757 Q115.367 153.757 112.288 149.174 Q109.233 144.567 109.233 135.84 Q109.233 127.09 112.288 122.507 Q115.367 117.901 121.177 117.901 Z" fill="#000000" fill-rule="evenodd" fill-opacity="1" /><path clip-path="url(#clip970)" d="M151.339 121.604 Q147.728 121.604 145.899 125.169 Q144.093 128.711 144.093 135.84 Q144.093 142.947 145.899 146.512 Q147.728 150.053 151.339 150.053 Q154.973 150.053 156.779 146.512 Q158.607 142.947 158.607 135.84 Q158.607 128.711 156.779 125.169 Q154.973 121.604 151.339 121.604 M151.339 117.901 Q157.149 117.901 160.205 122.507 Q163.283 127.09 163.283 135.84 Q163.283 144.567 160.205 149.174 Q157.149 153.757 151.339 153.757 Q145.529 153.757 142.45 149.174 Q139.394 144.567 139.394 135.84 Q139.394 127.09 142.45 122.507 Q145.529 117.901 151.339 117.901 Z" fill="#000000" fill-rule="evenodd" fill-opacity="1" /><path clip-path="url(#clip970)" d="M1193 18.8205 L1193 65.8515 L1202.88 65.8515 Q1215.4 65.8515 1221.19 60.1802 Q1227.02 54.509 1227.02 42.2752 Q1227.02 30.1225 1221.19 24.4918 Q1215.4 18.8205 1202.88 18.8205 L1193 18.8205 M1184.81 12.096 L1201.62 12.096 Q1219.21 12.096 1227.43 19.4281 Q1235.65 26.7198 1235.65 42.2752 Q1235.65 57.9117 1227.39 65.2439 Q1219.12 72.576 1201.62 72.576 L1184.81 72.576 L1184.81 12.096 Z" fill="#000000" fill-rule="evenodd" fill-opacity="1" /><path clip-path="url(#clip970)" d="M1268.99 49.7694 Q1259.96 49.7694 1256.47 51.8354 Q1252.99 53.9013 1252.99 58.8839 Q1252.99 62.8538 1255.58 65.2034 Q1258.22 67.5124 1262.71 67.5124 Q1268.91 67.5124 1272.64 63.1374 Q1276.4 58.7219 1276.4 51.4303 L1276.4 49.7694 L1268.99 49.7694 M1283.86 46.6907 L1283.86 72.576 L1276.4 72.576 L1276.4 65.6895 Q1273.85 69.8214 1270.04 71.8063 Q1266.24 73.7508 1260.73 73.7508 Q1253.76 73.7508 1249.63 69.8619 Q1245.54 65.9325 1245.54 59.3701 Q1245.54 51.7138 1250.64 47.825 Q1255.79 43.9361 1265.95 43.9361 L1276.4 43.9361 L1276.4 43.2069 Q1276.4 38.0623 1273 35.2672 Q1269.64 32.4315 1263.52 32.4315 Q1259.63 32.4315 1255.95 33.3632 Q1252.26 34.295 1248.86 36.1584 L1248.86 29.2718 Q1252.95 27.692 1256.8 26.9223 Q1260.65 26.1121 1264.29 26.1121 Q1274.14 26.1121 1279 31.2163 Q1283.86 36.3204 1283.86 46.6907 Z" fill="#000000" fill-rule="evenodd" fill-opacity="1" /><path clip-path="url(#clip970)" d="M1306.58 14.324 L1306.58 27.2059 L1321.94 27.2059 L1321.94 32.9987 L1306.58 32.9987 L1306.58 57.6282 Q1306.58 63.1779 1308.08 64.7578 Q1309.62 66.3376 1314.28 66.3376 L1321.94 66.3376 L1321.94 72.576 L1314.28 72.576 Q1305.65 72.576 1302.37 69.3758 Q1299.09 66.1351 1299.09 57.6282 L1299.09 32.9987 L1293.62 32.9987 L1293.62 27.2059 L1299.09 27.2059 L1299.09 14.324 L1306.58 14.324 Z" fill="#000000" fill-rule="evenodd" fill-opacity="1" /><path clip-path="url(#clip970)" d="M1352.36 49.7694 Q1343.33 49.7694 1339.84 51.8354 Q1336.36 53.9013 1336.36 58.8839 Q1336.36 62.8538 1338.95 65.2034 Q1341.58 67.5124 1346.08 67.5124 Q1352.28 67.5124 1356 63.1374 Q1359.77 58.7219 1359.77 51.4303 L1359.77 49.7694 L1352.36 49.7694 M1367.23 46.6907 L1367.23 72.576 L1359.77 72.576 L1359.77 65.6895 Q1357.22 69.8214 1353.41 71.8063 Q1349.6 73.7508 1344.09 73.7508 Q1337.13 73.7508 1333 69.8619 Q1328.9 65.9325 1328.9 59.3701 Q1328.9 51.7138 1334.01 47.825 Q1339.15 43.9361 1349.32 43.9361 L1359.77 43.9361 L1359.77 43.2069 Q1359.77 38.0623 1356.37 35.2672 Q1353.01 32.4315 1346.89 32.4315 Q1343 32.4315 1339.31 33.3632 Q1335.63 34.295 1332.23 36.1584 L1332.23 29.2718 Q1336.32 27.692 1340.17 26.9223 Q1344.01 26.1121 1347.66 26.1121 Q1357.5 26.1121 1362.36 31.2163 Q1367.23 36.3204 1367.23 46.6907 Z" fill="#000000" fill-rule="evenodd" fill-opacity="1" /><polyline clip-path="url(#clip972)" style="stroke:#009af9; stroke-linecap:butt; stroke-linejoin:round; stroke-width:4; stroke-opacity:1; fill:none" points="
  260.231,1447.87 260.231,1316.67 294.09,1316.67 294.09,1369.15 327.95,1369.15 327.95,1251.06 361.809,1251.06 361.809,1224.82 395.669,1224.82 395.669,1159.22 
  429.529,1159.22 429.529,1041.13 463.388,1041.13 463.388,949.287 497.248,949.287 497.248,1093.61 531.108,1093.61 531.108,883.684 564.967,883.684 564.967,923.046 
  598.827,923.046 598.827,870.563 632.687,870.563 632.687,1172.34 666.546,1172.34 666.546,962.408 700.406,962.408 700.406,936.167 734.265,936.167 734.265,1093.61 
  768.125,1093.61 768.125,1198.58 801.985,1198.58 801.985,1251.06 835.844,1251.06 835.844,1237.94 869.704,1237.94 869.704,1342.91 903.564,1342.91 903.564,1356.03 
  937.423,1356.03 937.423,1382.27 971.283,1382.27 971.283,1421.63 1005.14,1421.63 1005.14,1434.75 1039,1434.75 1072.86,1434.75 1072.86,1447.87 
  1106.72,1447.87 1140.58,1447.87 1140.58,1421.63 1174.44,1421.63 1174.44,1408.51 1208.3,1408.51 1208.3,1369.15 1242.16,1369.15 1242.16,1290.42 
  1276.02,1290.42 1309.88,1290.42 1309.88,1172.34 1343.74,1172.34 1343.74,1001.77 1377.6,1001.77 1377.6,1119.86 1411.46,1119.86 1411.46,975.529 
  1445.32,975.529 1445.32,752.477 1479.18,752.477 1479.18,542.546 1513.04,542.546 1513.04,476.943 1546.9,476.943 1546.9,201.409 1580.76,201.409 1580.76,490.064 
  1614.62,490.064 1614.62,162.047 1648.48,162.047 1648.48,634.391 1682.34,634.391 1682.34,503.184 1716.19,503.184 1716.19,660.633 1750.05,660.633 1750.05,909.925 
  1783.91,909.925 1783.91,1041.13 1817.77,1041.13 1817.77,975.529 1851.63,975.529 1851.63,1106.74 1885.49,1106.74 1885.49,1224.82 1919.35,1224.82 1919.35,1198.58 
  1953.21,1198.58 1953.21,1329.79 1987.07,1329.79 1987.07,1369.15 2020.93,1369.15 2020.93,1395.39 2054.79,1395.39 2054.79,1434.75 2088.65,1434.75 2088.65,1447.87 
  2122.51,1447.87 2122.51,1434.75 2156.37,1434.75 2190.23,1434.75 2224.09,1434.75 2224.09,1447.87 2257.95,1447.87 
  2291.81,1447.87 
  "/>
<path clip-path="url(#clip970)" d="
M1937.46 272.585 L2280.97 272.585 L2280.97 168.905 L1937.46 168.905  Z
  " fill="#ffffff" fill-rule="evenodd" fill-opacity="1"/>
<polyline clip-path="url(#clip970)" style="stroke:#000000; stroke-linecap:butt; stroke-linejoin:round; stroke-width:4; stroke-opacity:1; fill:none" points="
  1937.46,272.585 2280.97,272.585 2280.97,168.905 1937.46,168.905 1937.46,272.585 
  "/>
<polyline clip-path="url(#clip970)" style="stroke:#009af9; stroke-linecap:butt; stroke-linejoin:round; stroke-width:4; stroke-opacity:1; fill:none" points="
  1961.39,220.745 2104.96,220.745 
  "/>
<path clip-path="url(#clip970)" d="M2133.56 207.307 L2133.56 234.182 L2139.21 234.182 Q2146.36 234.182 2149.67 230.941 Q2153 227.701 2153 220.71 Q2153 213.766 2149.67 210.548 Q2146.36 207.307 2139.21 207.307 L2133.56 207.307 M2128.88 203.465 L2138.49 203.465 Q2148.54 203.465 2153.23 207.654 Q2157.93 211.821 2157.93 220.71 Q2157.93 229.645 2153.21 233.835 Q2148.49 238.025 2138.49 238.025 L2128.88 238.025 L2128.88 203.465 Z" fill="#000000" fill-rule="evenodd" fill-opacity="1" /><path clip-path="url(#clip970)" d="M2176.98 224.992 Q2171.82 224.992 2169.83 226.173 Q2167.84 227.353 2167.84 230.201 Q2167.84 232.469 2169.32 233.812 Q2170.83 235.131 2173.4 235.131 Q2176.94 235.131 2179.07 232.631 Q2181.22 230.108 2181.22 225.941 L2181.22 224.992 L2176.98 224.992 M2185.48 223.233 L2185.48 238.025 L2181.22 238.025 L2181.22 234.089 Q2179.76 236.451 2177.59 237.585 Q2175.41 238.696 2172.26 238.696 Q2168.28 238.696 2165.92 236.474 Q2163.58 234.228 2163.58 230.478 Q2163.58 226.103 2166.5 223.881 Q2169.44 221.659 2175.25 221.659 L2181.22 221.659 L2181.22 221.242 Q2181.22 218.303 2179.28 216.705 Q2177.35 215.085 2173.86 215.085 Q2171.64 215.085 2169.53 215.617 Q2167.42 216.15 2165.48 217.215 L2165.48 213.279 Q2167.82 212.377 2170.02 211.937 Q2172.22 211.474 2174.3 211.474 Q2179.92 211.474 2182.7 214.391 Q2185.48 217.307 2185.48 223.233 Z" fill="#000000" fill-rule="evenodd" fill-opacity="1" /><path clip-path="url(#clip970)" d="M2198.47 204.738 L2198.47 212.099 L2207.24 212.099 L2207.24 215.409 L2198.47 215.409 L2198.47 229.483 Q2198.47 232.654 2199.32 233.557 Q2200.2 234.46 2202.86 234.46 L2207.24 234.46 L2207.24 238.025 L2202.86 238.025 Q2197.93 238.025 2196.06 236.196 Q2194.18 234.344 2194.18 229.483 L2194.18 215.409 L2191.06 215.409 L2191.06 212.099 L2194.18 212.099 L2194.18 204.738 L2198.47 204.738 Z" fill="#000000" fill-rule="evenodd" fill-opacity="1" /><path clip-path="url(#clip970)" d="M2224.62 224.992 Q2219.46 224.992 2217.47 226.173 Q2215.48 227.353 2215.48 230.201 Q2215.48 232.469 2216.96 233.812 Q2218.47 235.131 2221.04 235.131 Q2224.58 235.131 2226.71 232.631 Q2228.86 230.108 2228.86 225.941 L2228.86 224.992 L2224.62 224.992 M2233.12 223.233 L2233.12 238.025 L2228.86 238.025 L2228.86 234.089 Q2227.4 236.451 2225.23 237.585 Q2223.05 238.696 2219.9 238.696 Q2215.92 238.696 2213.56 236.474 Q2211.22 234.228 2211.22 230.478 Q2211.22 226.103 2214.14 223.881 Q2217.08 221.659 2222.89 221.659 L2228.86 221.659 L2228.86 221.242 Q2228.86 218.303 2226.91 216.705 Q2224.99 215.085 2221.5 215.085 Q2219.28 215.085 2217.17 215.617 Q2215.06 216.15 2213.12 217.215 L2213.12 213.279 Q2215.46 212.377 2217.66 211.937 Q2219.85 211.474 2221.94 211.474 Q2227.56 211.474 2230.34 214.391 Q2233.12 217.307 2233.12 223.233 Z" fill="#000000" fill-rule="evenodd" fill-opacity="1" /></svg>
