<?xml version="1.0" encoding="utf-8"?>
<svg xmlns="http://www.w3.org/2000/svg" xmlns:xlink="http://www.w3.org/1999/xlink" width="600" height="400" viewBox="0 0 2400 1600">
<defs>
  <clipPath id="clip880">
    <rect x="0" y="0" width="2400" height="1600"/>
  </clipPath>
</defs>
<path clip-path="url(#clip880)" d="M0 1600 L2400 1600 L2400 0 L0 0  Z" fill="#ffffff" fill-rule="evenodd" fill-opacity="1"/>
<defs>
  <clipPath id="clip881">
    <rect x="480" y="0" width="1681" height="1600"/>
  </clipPath>
</defs>
<path clip-path="url(#clip880)" d="M172.015 1486.45 L2352.76 1486.45 L2352.76 123.472 L172.015 123.472  Z" fill="#ffffff" fill-rule="evenodd" fill-opacity="1"/>
<defs>
  <clipPath id="clip882">
    <rect x="172" y="123" width="2182" height="1364"/>
  </clipPath>
</defs>
<polyline clip-path="url(#clip882)" style="stroke:#000000; stroke-linecap:round; stroke-linejoin:round; stroke-width:2; stroke-opacity:0.1; fill:none" points="233.734,1486.45 233.734,123.472 "/>
<polyline clip-path="url(#clip882)" style="stroke:#000000; stroke-linecap:round; stroke-linejoin:round; stroke-width:2; stroke-opacity:0.1; fill:none" points="576.618,1486.45 576.618,123.472 "/>
<polyline clip-path="url(#clip882)" style="stroke:#000000; stroke-linecap:round; stroke-linejoin:round; stroke-width:2; stroke-opacity:0.1; fill:none" points="919.502,1486.45 919.502,123.472 "/>
<polyline clip-path="url(#clip882)" style="stroke:#000000; stroke-linecap:round; stroke-linejoin:round; stroke-width:2; stroke-opacity:0.1; fill:none" points="1262.39,1486.45 1262.39,123.472 "/>
<polyline clip-path="url(#clip882)" style="stroke:#000000; stroke-linecap:round; stroke-linejoin:round; stroke-width:2; stroke-opacity:0.1; fill:none" points="1605.27,1486.45 1605.27,123.472 "/>
<polyline clip-path="url(#clip882)" style="stroke:#000000; stroke-linecap:round; stroke-linejoin:round; stroke-width:2; stroke-opacity:0.1; fill:none" points="1948.15,1486.45 1948.15,123.472 "/>
<polyline clip-path="url(#clip882)" style="stroke:#000000; stroke-linecap:round; stroke-linejoin:round; stroke-width:2; stroke-opacity:0.1; fill:none" points="2291.04,1486.45 2291.04,123.472 "/>
<polyline clip-path="url(#clip882)" style="stroke:#000000; stroke-linecap:round; stroke-linejoin:round; stroke-width:2; stroke-opacity:0.1; fill:none" points="172.015,1447.87 2352.76,1447.87 "/>
<polyline clip-path="url(#clip882)" style="stroke:#000000; stroke-linecap:round; stroke-linejoin:round; stroke-width:2; stroke-opacity:0.1; fill:none" points="172.015,1145.33 2352.76,1145.33 "/>
<polyline clip-path="url(#clip882)" style="stroke:#000000; stroke-linecap:round; stroke-linejoin:round; stroke-width:2; stroke-opacity:0.1; fill:none" points="172.015,842.778 2352.76,842.778 "/>
<polyline clip-path="url(#clip882)" style="stroke:#000000; stroke-linecap:round; stroke-linejoin:round; stroke-width:2; stroke-opacity:0.1; fill:none" points="172.015,540.231 2352.76,540.231 "/>
<polyline clip-path="url(#clip882)" style="stroke:#000000; stroke-linecap:round; stroke-linejoin:round; stroke-width:2; stroke-opacity:0.1; fill:none" points="172.015,237.684 2352.76,237.684 "/>
<polyline clip-path="url(#clip880)" style="stroke:#000000; stroke-linecap:round; stroke-linejoin:round; stroke-width:4; stroke-opacity:1; fill:none" points="172.015,1486.45 2352.76,1486.45 "/>
<polyline clip-path="url(#clip880)" style="stroke:#000000; stroke-linecap:round; stroke-linejoin:round; stroke-width:4; stroke-opacity:1; fill:none" points="233.734,1486.45 233.734,1467.55 "/>
<polyline clip-path="url(#clip880)" style="stroke:#000000; stroke-linecap:round; stroke-linejoin:round; stroke-width:4; stroke-opacity:1; fill:none" points="576.618,1486.45 576.618,1467.55 "/>
<polyline clip-path="url(#clip880)" style="stroke:#000000; stroke-linecap:round; stroke-linejoin:round; stroke-width:4; stroke-opacity:1; fill:none" points="919.502,1486.45 919.502,1467.55 "/>
<polyline clip-path="url(#clip880)" style="stroke:#000000; stroke-linecap:round; stroke-linejoin:round; stroke-width:4; stroke-opacity:1; fill:none" points="1262.39,1486.45 1262.39,1467.55 "/>
<polyline clip-path="url(#clip880)" style="stroke:#000000; stroke-linecap:round; stroke-linejoin:round; stroke-width:4; stroke-opacity:1; fill:none" points="1605.27,1486.45 1605.27,1467.55 "/>
<polyline clip-path="url(#clip880)" style="stroke:#000000; stroke-linecap:round; stroke-linejoin:round; stroke-width:4; stroke-opacity:1; fill:none" points="1948.15,1486.45 1948.15,1467.55 "/>
<polyline clip-path="url(#clip880)" style="stroke:#000000; stroke-linecap:round; stroke-linejoin:round; stroke-width:4; stroke-opacity:1; fill:none" points="2291.04,1486.45 2291.04,1467.55 "/>
<path clip-path="url(#clip880)" d="M203.676 1532.02 L233.352 1532.02 L233.352 1535.95 L203.676 1535.95 L203.676 1532.02 Z" fill="#000000" fill-rule="nonzero" fill-opacity="1" /><path clip-path="url(#clip880)" d="M247.472 1544.91 L263.792 1544.91 L263.792 1548.85 L241.847 1548.85 L241.847 1544.91 Q244.509 1542.16 249.093 1537.53 Q253.699 1532.88 254.88 1531.53 Q257.125 1529.01 258.005 1527.27 Q258.907 1525.51 258.907 1523.82 Q258.907 1521.07 256.963 1519.33 Q255.042 1517.6 251.94 1517.6 Q249.741 1517.6 247.287 1518.36 Q244.857 1519.13 242.079 1520.68 L242.079 1515.95 Q244.903 1514.82 247.357 1514.24 Q249.81 1513.66 251.847 1513.66 Q257.218 1513.66 260.412 1516.35 Q263.606 1519.03 263.606 1523.52 Q263.606 1525.65 262.796 1527.57 Q262.009 1529.47 259.903 1532.07 Q259.324 1532.74 256.222 1535.95 Q253.12 1539.15 247.472 1544.91 Z" fill="#000000" fill-rule="nonzero" fill-opacity="1" /><path clip-path="url(#clip880)" d="M546.375 1532.02 L576.051 1532.02 L576.051 1535.95 L546.375 1535.95 L546.375 1532.02 Z" fill="#000000" fill-rule="nonzero" fill-opacity="1" /><path clip-path="url(#clip880)" d="M586.953 1544.91 L594.592 1544.91 L594.592 1518.55 L586.282 1520.21 L586.282 1515.95 L594.546 1514.29 L599.222 1514.29 L599.222 1544.91 L606.861 1544.91 L606.861 1548.85 L586.953 1548.85 L586.953 1544.91 Z" fill="#000000" fill-rule="nonzero" fill-opacity="1" /><path clip-path="url(#clip880)" d="M919.502 1517.37 Q915.89 1517.37 914.062 1520.93 Q912.256 1524.47 912.256 1531.6 Q912.256 1538.71 914.062 1542.27 Q915.89 1545.82 919.502 1545.82 Q923.136 1545.82 924.941 1542.27 Q926.77 1538.71 926.77 1531.6 Q926.77 1524.47 924.941 1520.93 Q923.136 1517.37 919.502 1517.37 M919.502 1513.66 Q925.312 1513.66 928.367 1518.27 Q931.446 1522.85 931.446 1531.6 Q931.446 1540.33 928.367 1544.94 Q925.312 1549.52 919.502 1549.52 Q913.691 1549.52 910.613 1544.94 Q907.557 1540.33 907.557 1531.6 Q907.557 1522.85 910.613 1518.27 Q913.691 1513.66 919.502 1513.66 Z" fill="#000000" fill-rule="nonzero" fill-opacity="1" /><path clip-path="url(#clip880)" d="M1252.77 1544.91 L1260.41 1544.91 L1260.41 1518.55 L1252.1 1520.21 L1252.1 1515.95 L1260.36 1514.29 L1265.04 1514.29 L1265.04 1544.91 L1272.67 1544.91 L1272.67 1548.85 L1252.77 1548.85 L1252.77 1544.91 Z" fill="#000000" fill-rule="nonzero" fill-opacity="1" /><path clip-path="url(#clip880)" d="M1599.92 1544.91 L1616.24 1544.91 L1616.24 1548.85 L1594.3 1548.85 L1594.3 1544.91 Q1596.96 1542.16 1601.54 1537.53 Q1606.15 1532.88 1607.33 1531.53 Q1609.57 1529.01 1610.45 1527.27 Q1611.36 1525.51 1611.36 1523.82 Q1611.36 1521.07 1609.41 1519.33 Q1607.49 1517.6 1604.39 1517.6 Q1602.19 1517.6 1599.74 1518.36 Q1597.31 1519.13 1594.53 1520.68 L1594.53 1515.95 Q1597.35 1514.82 1599.81 1514.24 Q1602.26 1513.66 1604.3 1513.66 Q1609.67 1513.66 1612.86 1516.35 Q1616.06 1519.03 1616.06 1523.52 Q1616.06 1525.65 1615.25 1527.57 Q1614.46 1529.47 1612.35 1532.07 Q1611.77 1532.74 1608.67 1535.95 Q1605.57 1539.15 1599.92 1544.91 Z" fill="#000000" fill-rule="nonzero" fill-opacity="1" /><path clip-path="url(#clip880)" d="M1952.4 1530.21 Q1955.76 1530.93 1957.63 1533.2 Q1959.53 1535.47 1959.53 1538.8 Q1959.53 1543.92 1956.01 1546.72 Q1952.49 1549.52 1946.01 1549.52 Q1943.84 1549.52 1941.52 1549.08 Q1939.23 1548.66 1936.78 1547.81 L1936.78 1543.29 Q1938.72 1544.43 1941.03 1545.01 Q1943.35 1545.58 1945.87 1545.58 Q1950.27 1545.58 1952.56 1543.85 Q1954.88 1542.11 1954.88 1538.8 Q1954.88 1535.75 1952.72 1534.03 Q1950.6 1532.3 1946.78 1532.3 L1942.75 1532.3 L1942.75 1528.45 L1946.96 1528.45 Q1950.41 1528.45 1952.24 1527.09 Q1954.07 1525.7 1954.07 1523.11 Q1954.07 1520.45 1952.17 1519.03 Q1950.29 1517.6 1946.78 1517.6 Q1944.85 1517.6 1942.66 1518.01 Q1940.46 1518.43 1937.82 1519.31 L1937.82 1515.14 Q1940.48 1514.4 1942.79 1514.03 Q1945.13 1513.66 1947.19 1513.66 Q1952.52 1513.66 1955.62 1516.09 Q1958.72 1518.5 1958.72 1522.62 Q1958.72 1525.49 1957.08 1527.48 Q1955.43 1529.45 1952.4 1530.21 Z" fill="#000000" fill-rule="nonzero" fill-opacity="1" /><path clip-path="url(#clip880)" d="M2294.05 1518.36 L2282.24 1536.81 L2294.05 1536.81 L2294.05 1518.36 M2292.82 1514.29 L2298.7 1514.29 L2298.7 1536.81 L2303.63 1536.81 L2303.63 1540.7 L2298.7 1540.7 L2298.7 1548.85 L2294.05 1548.85 L2294.05 1540.7 L2278.44 1540.7 L2278.44 1536.19 L2292.82 1514.29 Z" fill="#000000" fill-rule="nonzero" fill-opacity="1" /><polyline clip-path="url(#clip880)" style="stroke:#000000; stroke-linecap:round; stroke-linejoin:round; stroke-width:4; stroke-opacity:1; fill:none" points="172.015,1486.45 172.015,123.472 "/>
<polyline clip-path="url(#clip880)" style="stroke:#000000; stroke-linecap:round; stroke-linejoin:round; stroke-width:4; stroke-opacity:1; fill:none" points="172.015,1447.87 190.912,1447.87 "/>
<polyline clip-path="url(#clip880)" style="stroke:#000000; stroke-linecap:round; stroke-linejoin:round; stroke-width:4; stroke-opacity:1; fill:none" points="172.015,1145.33 190.912,1145.33 "/>
<polyline clip-path="url(#clip880)" style="stroke:#000000; stroke-linecap:round; stroke-linejoin:round; stroke-width:4; stroke-opacity:1; fill:none" points="172.015,842.778 190.912,842.778 "/>
<polyline clip-path="url(#clip880)" style="stroke:#000000; stroke-linecap:round; stroke-linejoin:round; stroke-width:4; stroke-opacity:1; fill:none" points="172.015,540.231 190.912,540.231 "/>
<polyline clip-path="url(#clip880)" style="stroke:#000000; stroke-linecap:round; stroke-linejoin:round; stroke-width:4; stroke-opacity:1; fill:none" points="172.015,237.684 190.912,237.684 "/>
<path clip-path="url(#clip880)" d="M124.07 1433.67 Q120.459 1433.67 118.631 1437.24 Q116.825 1440.78 116.825 1447.91 Q116.825 1455.01 118.631 1458.58 Q120.459 1462.12 124.07 1462.12 Q127.705 1462.12 129.51 1458.58 Q131.339 1455.01 131.339 1447.91 Q131.339 1440.78 129.51 1437.24 Q127.705 1433.67 124.07 1433.67 M124.07 1429.97 Q129.881 1429.97 132.936 1434.57 Q136.015 1439.16 136.015 1447.91 Q136.015 1456.63 132.936 1461.24 Q129.881 1465.82 124.07 1465.82 Q118.26 1465.82 115.182 1461.24 Q112.126 1456.63 112.126 1447.91 Q112.126 1439.16 115.182 1434.57 Q118.26 1429.97 124.07 1429.97 Z" fill="#000000" fill-rule="nonzero" fill-opacity="1" /><path clip-path="url(#clip880)" d="M57.7745 1158.67 L74.0939 1158.67 L74.0939 1162.61 L52.1495 1162.61 L52.1495 1158.67 Q54.8115 1155.92 59.3949 1151.29 Q64.0013 1146.63 65.1819 1145.29 Q67.4272 1142.77 68.3068 1141.03 Q69.2096 1139.27 69.2096 1137.58 Q69.2096 1134.83 67.2652 1133.09 Q65.3439 1131.36 62.2421 1131.36 Q60.043 1131.36 57.5893 1132.12 Q55.1588 1132.88 52.381 1134.43 L52.381 1129.71 Q55.2051 1128.58 57.6588 1128 Q60.1124 1127.42 62.1495 1127.42 Q67.5198 1127.42 70.7142 1130.11 Q73.9087 1132.79 73.9087 1137.28 Q73.9087 1139.41 73.0985 1141.33 Q72.3115 1143.23 70.205 1145.82 Q69.6263 1146.49 66.5245 1149.71 Q63.4226 1152.91 57.7745 1158.67 Z" fill="#000000" fill-rule="nonzero" fill-opacity="1" /><path clip-path="url(#clip880)" d="M93.9086 1131.12 Q90.2975 1131.12 88.4688 1134.69 Q86.6632 1138.23 86.6632 1145.36 Q86.6632 1152.47 88.4688 1156.03 Q90.2975 1159.57 93.9086 1159.57 Q97.5428 1159.57 99.3483 1156.03 Q101.177 1152.47 101.177 1145.36 Q101.177 1138.23 99.3483 1134.69 Q97.5428 1131.12 93.9086 1131.12 M93.9086 1127.42 Q99.7187 1127.42 102.774 1132.03 Q105.853 1136.61 105.853 1145.36 Q105.853 1154.09 102.774 1158.69 Q99.7187 1163.28 93.9086 1163.28 Q88.0984 1163.28 85.0197 1158.69 Q81.9642 1154.09 81.9642 1145.36 Q81.9642 1136.61 85.0197 1132.03 Q88.0984 1127.42 93.9086 1127.42 Z" fill="#000000" fill-rule="nonzero" fill-opacity="1" /><path clip-path="url(#clip880)" d="M124.07 1131.12 Q120.459 1131.12 118.631 1134.69 Q116.825 1138.23 116.825 1145.36 Q116.825 1152.47 118.631 1156.03 Q120.459 1159.57 124.07 1159.57 Q127.705 1159.57 129.51 1156.03 Q131.339 1152.47 131.339 1145.36 Q131.339 1138.23 129.51 1134.69 Q127.705 1131.12 124.07 1131.12 M124.07 1127.42 Q129.881 1127.42 132.936 1132.03 Q136.015 1136.61 136.015 1145.36 Q136.015 1154.09 132.936 1158.69 Q129.881 1163.28 124.07 1163.28 Q118.26 1163.28 115.182 1158.69 Q112.126 1154.09 112.126 1145.36 Q112.126 1136.61 115.182 1132.03 Q118.26 1127.42 124.07 1127.42 Z" fill="#000000" fill-rule="nonzero" fill-opacity="1" /><path clip-path="url(#clip880)" d="M66.5939 829.572 L54.7884 848.021 L66.5939 848.021 L66.5939 829.572 M65.367 825.498 L71.2466 825.498 L71.2466 848.021 L76.1772 848.021 L76.1772 851.91 L71.2466 851.91 L71.2466 860.058 L66.5939 860.058 L66.5939 851.91 L50.9921 851.91 L50.9921 847.396 L65.367 825.498 Z" fill="#000000" fill-rule="nonzero" fill-opacity="1" /><path clip-path="url(#clip880)" d="M93.9086 828.577 Q90.2975 828.577 88.4688 832.142 Q86.6632 835.684 86.6632 842.813 Q86.6632 849.92 88.4688 853.484 Q90.2975 857.026 93.9086 857.026 Q97.5428 857.026 99.3483 853.484 Q101.177 849.92 101.177 842.813 Q101.177 835.684 99.3483 832.142 Q97.5428 828.577 93.9086 828.577 M93.9086 824.873 Q99.7187 824.873 102.774 829.48 Q105.853 834.063 105.853 842.813 Q105.853 851.54 102.774 856.146 Q99.7187 860.73 93.9086 860.73 Q88.0984 860.73 85.0197 856.146 Q81.9642 851.54 81.9642 842.813 Q81.9642 834.063 85.0197 829.48 Q88.0984 824.873 93.9086 824.873 Z" fill="#000000" fill-rule="nonzero" fill-opacity="1" /><path clip-path="url(#clip880)" d="M124.07 828.577 Q120.459 828.577 118.631 832.142 Q116.825 835.684 116.825 842.813 Q116.825 849.92 118.631 853.484 Q120.459 857.026 124.07 857.026 Q127.705 857.026 129.51 853.484 Q131.339 849.92 131.339 842.813 Q131.339 835.684 129.51 832.142 Q127.705 828.577 124.07 828.577 M124.07 824.873 Q129.881 824.873 132.936 829.48 Q136.015 834.063 136.015 842.813 Q136.015 851.54 132.936 856.146 Q129.881 860.73 124.07 860.73 Q118.26 860.73 115.182 856.146 Q112.126 851.54 112.126 842.813 Q112.126 834.063 115.182 829.48 Q118.26 824.873 124.07 824.873 Z" fill="#000000" fill-rule="nonzero" fill-opacity="1" /><path clip-path="url(#clip880)" d="M64.3254 538.368 Q61.1773 538.368 59.3254 540.52 Q57.4967 542.673 57.4967 546.423 Q57.4967 550.15 59.3254 552.326 Q61.1773 554.479 64.3254 554.479 Q67.4735 554.479 69.3022 552.326 Q71.1541 550.15 71.1541 546.423 Q71.1541 542.673 69.3022 540.52 Q67.4735 538.368 64.3254 538.368 M73.6077 523.715 L73.6077 527.974 Q71.8485 527.141 70.0429 526.701 Q68.2606 526.261 66.5013 526.261 Q61.8717 526.261 59.418 529.386 Q56.9875 532.511 56.6402 538.831 Q58.006 536.817 60.0662 535.752 Q62.1263 534.664 64.6032 534.664 Q69.8115 534.664 72.8207 537.835 Q75.8531 540.983 75.8531 546.423 Q75.8531 551.747 72.705 554.965 Q69.5568 558.182 64.3254 558.182 Q58.33 558.182 55.1588 553.599 Q51.9875 548.993 51.9875 540.266 Q51.9875 532.071 55.8764 527.21 Q59.7652 522.326 66.3161 522.326 Q68.0754 522.326 69.8578 522.673 Q71.6633 523.021 73.6077 523.715 Z" fill="#000000" fill-rule="nonzero" fill-opacity="1" /><path clip-path="url(#clip880)" d="M93.9086 526.03 Q90.2975 526.03 88.4688 529.595 Q86.6632 533.136 86.6632 540.266 Q86.6632 547.372 88.4688 550.937 Q90.2975 554.479 93.9086 554.479 Q97.5428 554.479 99.3483 550.937 Q101.177 547.372 101.177 540.266 Q101.177 533.136 99.3483 529.595 Q97.5428 526.03 93.9086 526.03 M93.9086 522.326 Q99.7187 522.326 102.774 526.933 Q105.853 531.516 105.853 540.266 Q105.853 548.993 102.774 553.599 Q99.7187 558.182 93.9086 558.182 Q88.0984 558.182 85.0197 553.599 Q81.9642 548.993 81.9642 540.266 Q81.9642 531.516 85.0197 526.933 Q88.0984 522.326 93.9086 522.326 Z" fill="#000000" fill-rule="nonzero" fill-opacity="1" /><path clip-path="url(#clip880)" d="M124.07 526.03 Q120.459 526.03 118.631 529.595 Q116.825 533.136 116.825 540.266 Q116.825 547.372 118.631 550.937 Q120.459 554.479 124.07 554.479 Q127.705 554.479 129.51 550.937 Q131.339 547.372 131.339 540.266 Q131.339 533.136 129.51 529.595 Q127.705 526.03 124.07 526.03 M124.07 522.326 Q129.881 522.326 132.936 526.933 Q136.015 531.516 136.015 540.266 Q136.015 548.993 132.936 553.599 Q129.881 558.182 124.07 558.182 Q118.26 558.182 115.182 553.599 Q112.126 548.993 112.126 540.266 Q112.126 531.516 115.182 526.933 Q118.26 522.326 124.07 522.326 Z" fill="#000000" fill-rule="nonzero" fill-opacity="1" /><path clip-path="url(#clip880)" d="M63.7467 238.552 Q60.4134 238.552 58.4921 240.334 Q56.5939 242.117 56.5939 245.242 Q56.5939 248.367 58.4921 250.149 Q60.4134 251.931 63.7467 251.931 Q67.08 251.931 69.0013 250.149 Q70.9226 248.343 70.9226 245.242 Q70.9226 242.117 69.0013 240.334 Q67.1032 238.552 63.7467 238.552 M59.0708 236.561 Q56.0615 235.82 54.3717 233.76 Q52.7051 231.7 52.7051 228.737 Q52.7051 224.594 55.6449 222.186 Q58.6078 219.779 63.7467 219.779 Q68.9087 219.779 71.8485 222.186 Q74.7883 224.594 74.7883 228.737 Q74.7883 231.7 73.0985 233.76 Q71.4318 235.82 68.4457 236.561 Q71.8253 237.348 73.7003 239.64 Q75.5985 241.931 75.5985 245.242 Q75.5985 250.265 72.5198 252.95 Q69.4642 255.635 63.7467 255.635 Q58.0291 255.635 54.9504 252.95 Q51.8949 250.265 51.8949 245.242 Q51.8949 241.931 53.793 239.64 Q55.6912 237.348 59.0708 236.561 M57.3578 229.177 Q57.3578 231.862 59.0245 233.367 Q60.7143 234.871 63.7467 234.871 Q66.7559 234.871 68.4457 233.367 Q70.1587 231.862 70.1587 229.177 Q70.1587 226.492 68.4457 224.987 Q66.7559 223.482 63.7467 223.482 Q60.7143 223.482 59.0245 224.987 Q57.3578 226.492 57.3578 229.177 Z" fill="#000000" fill-rule="nonzero" fill-opacity="1" /><path clip-path="url(#clip880)" d="M93.9086 223.482 Q90.2975 223.482 88.4688 227.047 Q86.6632 230.589 86.6632 237.718 Q86.6632 244.825 88.4688 248.39 Q90.2975 251.931 93.9086 251.931 Q97.5428 251.931 99.3483 248.39 Q101.177 244.825 101.177 237.718 Q101.177 230.589 99.3483 227.047 Q97.5428 223.482 93.9086 223.482 M93.9086 219.779 Q99.7187 219.779 102.774 224.385 Q105.853 228.969 105.853 237.718 Q105.853 246.445 102.774 251.052 Q99.7187 255.635 93.9086 255.635 Q88.0984 255.635 85.0197 251.052 Q81.9642 246.445 81.9642 237.718 Q81.9642 228.969 85.0197 224.385 Q88.0984 219.779 93.9086 219.779 Z" fill="#000000" fill-rule="nonzero" fill-opacity="1" /><path clip-path="url(#clip880)" d="M124.07 223.482 Q120.459 223.482 118.631 227.047 Q116.825 230.589 116.825 237.718 Q116.825 244.825 118.631 248.39 Q120.459 251.931 124.07 251.931 Q127.705 251.931 129.51 248.39 Q131.339 244.825 131.339 237.718 Q131.339 230.589 129.51 227.047 Q127.705 223.482 124.07 223.482 M124.07 219.779 Q129.881 219.779 132.936 224.385 Q136.015 228.969 136.015 237.718 Q136.015 246.445 132.936 251.052 Q129.881 255.635 124.07 255.635 Q118.26 255.635 115.182 251.052 Q112.126 246.445 112.126 237.718 Q112.126 228.969 115.182 224.385 Q118.26 219.779 124.07 219.779 Z" fill="#000000" fill-rule="nonzero" fill-opacity="1" /><path clip-path="url(#clip880)" d="M1179.36 18.8205 L1179.36 65.8515 L1189.25 65.8515 Q1201.76 65.8515 1207.56 60.1802 Q1213.39 54.509 1213.39 42.2752 Q1213.39 30.1225 1207.56 24.4918 Q1201.76 18.8205 1189.25 18.8205 L1179.36 18.8205 M1171.18 12.096 L1187.99 12.096 Q1205.57 12.096 1213.79 19.4281 Q1222.02 26.7198 1222.02 42.2752 Q1222.02 57.9117 1213.75 65.2439 Q1205.49 72.576 1187.99 72.576 L1171.18 72.576 L1171.18 12.096 Z" fill="#000000" fill-rule="nonzero" fill-opacity="1" /><path clip-path="url(#clip880)" d="M1255.36 49.7694 Q1246.32 49.7694 1242.84 51.8354 Q1239.36 53.9013 1239.36 58.8839 Q1239.36 62.8538 1241.95 65.2034 Q1244.58 67.5124 1249.08 67.5124 Q1255.28 67.5124 1259 63.1374 Q1262.77 58.7219 1262.77 51.4303 L1262.77 49.7694 L1255.36 49.7694 M1270.22 46.6907 L1270.22 72.576 L1262.77 72.576 L1262.77 65.6895 Q1260.22 69.8214 1256.41 71.8063 Q1252.6 73.7508 1247.09 73.7508 Q1240.13 73.7508 1235.99 69.8619 Q1231.9 65.9325 1231.9 59.3701 Q1231.9 51.7138 1237.01 47.825 Q1242.15 43.9361 1252.32 43.9361 L1262.77 43.9361 L1262.77 43.2069 Q1262.77 38.0623 1259.37 35.2672 Q1256.01 32.4315 1249.89 32.4315 Q1246 32.4315 1242.31 33.3632 Q1238.63 34.295 1235.22 36.1584 L1235.22 29.2718 Q1239.32 27.692 1243.16 26.9223 Q1247.01 26.1121 1250.66 26.1121 Q1260.5 26.1121 1265.36 31.2163 Q1270.22 36.3204 1270.22 46.6907 Z" fill="#000000" fill-rule="nonzero" fill-opacity="1" /><path clip-path="url(#clip880)" d="M1292.95 14.324 L1292.95 27.2059 L1308.3 27.2059 L1308.3 32.9987 L1292.95 32.9987 L1292.95 57.6282 Q1292.95 63.1779 1294.45 64.7578 Q1295.99 66.3376 1300.65 66.3376 L1308.3 66.3376 L1308.3 72.576 L1300.65 72.576 Q1292.02 72.576 1288.74 69.3758 Q1285.46 66.1351 1285.46 57.6282 L1285.46 32.9987 L1279.99 32.9987 L1279.99 27.2059 L1285.46 27.2059 L1285.46 14.324 L1292.95 14.324 Z" fill="#000000" fill-rule="nonzero" fill-opacity="1" /><path clip-path="url(#clip880)" d="M1338.72 49.7694 Q1329.69 49.7694 1326.21 51.8354 Q1322.72 53.9013 1322.72 58.8839 Q1322.72 62.8538 1325.32 65.2034 Q1327.95 67.5124 1332.45 67.5124 Q1338.64 67.5124 1342.37 63.1374 Q1346.14 58.7219 1346.14 51.4303 L1346.14 49.7694 L1338.72 49.7694 M1353.59 46.6907 L1353.59 72.576 L1346.14 72.576 L1346.14 65.6895 Q1343.59 69.8214 1339.78 71.8063 Q1335.97 73.7508 1330.46 73.7508 Q1323.49 73.7508 1319.36 69.8619 Q1315.27 65.9325 1315.27 59.3701 Q1315.27 51.7138 1320.37 47.825 Q1325.52 43.9361 1335.69 43.9361 L1346.14 43.9361 L1346.14 43.2069 Q1346.14 38.0623 1342.74 35.2672 Q1339.37 32.4315 1333.26 32.4315 Q1329.37 32.4315 1325.68 33.3632 Q1321.99 34.295 1318.59 36.1584 L1318.59 29.2718 Q1322.68 27.692 1326.53 26.9223 Q1330.38 26.1121 1334.03 26.1121 Q1343.87 26.1121 1348.73 31.2163 Q1353.59 36.3204 1353.59 46.6907 Z" fill="#000000" fill-rule="nonzero" fill-opacity="1" /><polyline clip-path="url(#clip882)" style="stroke:#009af9; stroke-linecap:round; stroke-linejoin:round; stroke-width:4; stroke-opacity:1; fill:none" points="233.734,1447.87 233.734,1357.11 268.022,1357.11 268.022,1326.85 302.311,1326.85 302.311,1281.47 336.599,1281.47 336.599,1205.84 370.887,1205.84 370.887,1039.43 405.176,1039.43 405.176,1054.56 439.464,1054.56 439.464,1039.43 473.753,1039.43 473.753,933.543 508.041,933.543 508.041,873.033 542.329,873.033 576.618,873.033 576.618,767.142 610.906,767.142 610.906,691.505 645.194,691.505 645.194,1130.2 679.483,1130.2 679.483,978.925 713.771,978.925 713.771,1175.58 748.06,1175.58 748.06,1160.45 782.348,1160.45 782.348,1220.96 816.636,1220.96 816.636,1205.84 850.925,1205.84 850.925,1251.22 885.213,1251.22 885.213,1281.47 919.502,1281.47 919.502,1372.24 953.79,1372.24 953.79,1402.49 988.078,1402.49 988.078,1432.75 1022.37,1432.75 1022.37,1402.49 1056.66,1402.49 1056.66,1432.75 1090.94,1432.75 1090.94,1447.87 1125.23,1447.87 1125.23,1341.98 1159.52,1341.98 1159.52,1372.24 1193.81,1372.24 1228.1,1372.24 1228.1,1296.6 1262.39,1296.6 1296.67,1296.6 1296.67,1115.07 1330.96,1115.07 1330.96,1160.45 1365.25,1160.45 1365.25,918.415 1399.54,918.415 1399.54,903.288 1433.83,903.288 1433.83,570.486 1468.12,570.486 1468.12,434.34 1502.4,434.34 1502.4,540.231 1536.69,540.231 1536.69,464.594 1570.98,464.594 1570.98,358.703 1605.27,358.703 1605.27,373.83 1639.56,373.83 1639.56,222.556 1673.85,222.556 1673.85,162.047 1708.13,162.047 1708.13,479.722 1742.42,479.722 1742.42,646.123 1776.71,646.123 1776.71,706.632 1811,706.632 1811,933.543 1845.29,933.543 1845.29,978.925 1879.58,978.925 1879.58,1115.07 1913.86,1115.07 1913.86,1266.34 1948.15,1266.34 1948.15,1236.09 1982.44,1236.09 1982.44,1341.98 2016.73,1341.98 2016.73,1432.75 2051.02,1432.75 2051.02,1417.62 2085.31,1417.62 2085.31,1432.75 2119.59,1432.75 2153.88,1432.75 2188.17,1432.75 2188.17,1447.87 2222.46,1447.87 2256.75,1447.87 2291.04,1447.87 "/>
<path clip-path="url(#clip880)" d="M1957.75 272.585 L2280.06 272.585 L2280.06 168.905 L1957.75 168.905  Z" fill="#ffffff" fill-rule="evenodd" fill-opacity="1"/>
<polyline clip-path="url(#clip880)" style="stroke:#000000; stroke-linecap:round; stroke-linejoin:round; stroke-width:4; stroke-opacity:1; fill:none" points="1957.75,272.585 2280.06,272.585 2280.06,168.905 1957.75,168.905 1957.75,272.585 "/>
<polyline clip-path="url(#clip880)" style="stroke:#009af9; stroke-linecap:round; stroke-linejoin:round; stroke-width:4; stroke-opacity:1; fill:none" points="1981.99,220.745 2127.37,220.745 "/>
<path clip-path="url(#clip880)" d="M2156.27 207.307 L2156.27 234.182 L2161.92 234.182 Q2169.08 234.182 2172.39 230.941 Q2175.72 227.701 2175.72 220.71 Q2175.72 213.766 2172.39 210.548 Q2169.08 207.307 2161.92 207.307 L2156.27 207.307 M2151.6 203.465 L2161.2 203.465 Q2171.25 203.465 2175.95 207.654 Q2180.65 211.821 2180.65 220.71 Q2180.65 229.645 2175.93 233.835 Q2171.2 238.025 2161.2 238.025 L2151.6 238.025 L2151.6 203.465 Z" fill="#000000" fill-rule="nonzero" fill-opacity="1" /><path clip-path="url(#clip880)" d="M2199.7 224.992 Q2194.54 224.992 2192.55 226.173 Q2190.56 227.353 2190.56 230.201 Q2190.56 232.469 2192.04 233.812 Q2193.54 235.131 2196.11 235.131 Q2199.65 235.131 2201.78 232.631 Q2203.94 230.108 2203.94 225.941 L2203.94 224.992 L2199.7 224.992 M2208.2 223.233 L2208.2 238.025 L2203.94 238.025 L2203.94 234.089 Q2202.48 236.451 2200.3 237.585 Q2198.13 238.696 2194.98 238.696 Q2191 238.696 2188.64 236.474 Q2186.3 234.228 2186.3 230.478 Q2186.3 226.103 2189.21 223.881 Q2192.15 221.659 2197.96 221.659 L2203.94 221.659 L2203.94 221.242 Q2203.94 218.303 2201.99 216.705 Q2200.07 215.085 2196.58 215.085 Q2194.35 215.085 2192.25 215.617 Q2190.14 216.15 2188.2 217.215 L2188.2 213.279 Q2190.53 212.377 2192.73 211.937 Q2194.93 211.474 2197.01 211.474 Q2202.64 211.474 2205.42 214.391 Q2208.2 217.307 2208.2 223.233 Z" fill="#000000" fill-rule="nonzero" fill-opacity="1" /><path clip-path="url(#clip880)" d="M2221.18 204.738 L2221.18 212.099 L2229.95 212.099 L2229.95 215.409 L2221.18 215.409 L2221.18 229.483 Q2221.18 232.654 2222.04 233.557 Q2222.92 234.46 2225.58 234.46 L2229.95 234.46 L2229.95 238.025 L2225.58 238.025 Q2220.65 238.025 2218.77 236.196 Q2216.9 234.344 2216.9 229.483 L2216.9 215.409 L2213.77 215.409 L2213.77 212.099 L2216.9 212.099 L2216.9 204.738 L2221.18 204.738 Z" fill="#000000" fill-rule="nonzero" fill-opacity="1" /><path clip-path="url(#clip880)" d="M2247.34 224.992 Q2242.18 224.992 2240.19 226.173 Q2238.2 227.353 2238.2 230.201 Q2238.2 232.469 2239.68 233.812 Q2241.18 235.131 2243.75 235.131 Q2247.29 235.131 2249.42 232.631 Q2251.57 230.108 2251.57 225.941 L2251.57 224.992 L2247.34 224.992 M2255.83 223.233 L2255.83 238.025 L2251.57 238.025 L2251.57 234.089 Q2250.12 236.451 2247.94 237.585 Q2245.76 238.696 2242.62 238.696 Q2238.64 238.696 2236.27 236.474 Q2233.94 234.228 2233.94 230.478 Q2233.94 226.103 2236.85 223.881 Q2239.79 221.659 2245.6 221.659 L2251.57 221.659 L2251.57 221.242 Q2251.57 218.303 2249.63 216.705 Q2247.71 215.085 2244.21 215.085 Q2241.99 215.085 2239.89 215.617 Q2237.78 216.15 2235.83 217.215 L2235.83 213.279 Q2238.17 212.377 2240.37 211.937 Q2242.57 211.474 2244.65 211.474 Q2250.28 211.474 2253.06 214.391 Q2255.83 217.307 2255.83 223.233 Z" fill="#000000" fill-rule="nonzero" fill-opacity="1" /></svg>
