<?xml version="1.0" encoding="utf-8"?>
<svg xmlns="http://www.w3.org/2000/svg" xmlns:xlink="http://www.w3.org/1999/xlink" width="600" height="400" viewBox="0 0 2400 1600">
<defs>
  <clipPath id="clip220">
    <rect x="0" y="0" width="2400" height="1600"/>
  </clipPath>
</defs>
<path clip-path="url(#clip220)" d="
M0 1600 L2400 1600 L2400 0 L0 0  Z
  " fill="#ffffff" fill-rule="evenodd" fill-opacity="1"/>
<defs>
  <clipPath id="clip221">
    <rect x="480" y="0" width="1681" height="1600"/>
  </clipPath>
</defs>
<path clip-path="url(#clip220)" d="
M166.205 1486.45 L2352.76 1486.45 L2352.76 123.472 L166.205 123.472  Z
  " fill="#ffffff" fill-rule="evenodd" fill-opacity="1"/>
<defs>
  <clipPath id="clip222">
    <rect x="166" y="123" width="2188" height="1364"/>
  </clipPath>
</defs>
<polyline clip-path="url(#clip222)" style="stroke:#000000; stroke-width:2; stroke-opacity:0.1; fill:none" points="
  228.088,1486.45 228.088,123.472 
  "/>
<polyline clip-path="url(#clip222)" style="stroke:#000000; stroke-width:2; stroke-opacity:0.1; fill:none" points="
  743.784,1486.45 743.784,123.472 
  "/>
<polyline clip-path="url(#clip222)" style="stroke:#000000; stroke-width:2; stroke-opacity:0.1; fill:none" points="
  1259.48,1486.45 1259.48,123.472 
  "/>
<polyline clip-path="url(#clip222)" style="stroke:#000000; stroke-width:2; stroke-opacity:0.1; fill:none" points="
  1775.18,1486.45 1775.18,123.472 
  "/>
<polyline clip-path="url(#clip222)" style="stroke:#000000; stroke-width:2; stroke-opacity:0.1; fill:none" points="
  2290.87,1486.45 2290.87,123.472 
  "/>
<polyline clip-path="url(#clip220)" style="stroke:#000000; stroke-width:4; stroke-opacity:1; fill:none" points="
  166.205,1486.45 2352.76,1486.45 
  "/>
<polyline clip-path="url(#clip220)" style="stroke:#000000; stroke-width:4; stroke-opacity:1; fill:none" points="
  228.088,1486.45 228.088,1470.09 
  "/>
<polyline clip-path="url(#clip220)" style="stroke:#000000; stroke-width:4; stroke-opacity:1; fill:none" points="
  743.784,1486.45 743.784,1470.09 
  "/>
<polyline clip-path="url(#clip220)" style="stroke:#000000; stroke-width:4; stroke-opacity:1; fill:none" points="
  1259.48,1486.45 1259.48,1470.09 
  "/>
<polyline clip-path="url(#clip220)" style="stroke:#000000; stroke-width:4; stroke-opacity:1; fill:none" points="
  1775.18,1486.45 1775.18,1470.09 
  "/>
<polyline clip-path="url(#clip220)" style="stroke:#000000; stroke-width:4; stroke-opacity:1; fill:none" points="
  2290.87,1486.45 2290.87,1470.09 
  "/>
<path clip-path="url(#clip220)" d="M 0 0 M199.5 1530.29 L229.176 1530.29 L229.176 1534.23 L199.5 1534.23 L199.5 1530.29 Z" fill="#000000" fill-rule="evenodd" fill-opacity="1" /><path clip-path="url(#clip220)" d="M 0 0 M247.093 1516.63 L235.287 1535.08 L247.093 1535.08 L247.093 1516.63 M245.866 1512.56 L251.745 1512.56 L251.745 1535.08 L256.676 1535.08 L256.676 1538.97 L251.745 1538.97 L251.745 1547.12 L247.093 1547.12 L247.093 1538.97 L231.491 1538.97 L231.491 1534.46 L245.866 1512.56 Z" fill="#000000" fill-rule="evenodd" fill-opacity="1" /><path clip-path="url(#clip220)" d="M 0 0 M716.238 1530.29 L745.914 1530.29 L745.914 1534.23 L716.238 1534.23 L716.238 1530.29 Z" fill="#000000" fill-rule="evenodd" fill-opacity="1" /><path clip-path="url(#clip220)" d="M 0 0 M755.011 1543.18 L771.33 1543.18 L771.33 1547.12 L749.386 1547.12 L749.386 1543.18 Q752.048 1540.43 756.631 1535.8 Q761.238 1531.15 762.418 1529.81 Q764.664 1527.28 765.543 1525.55 Q766.446 1523.79 766.446 1522.1 Q766.446 1519.34 764.502 1517.61 Q762.58 1515.87 759.479 1515.87 Q757.28 1515.87 754.826 1516.63 Q752.395 1517.4 749.618 1518.95 L749.618 1514.23 Q752.442 1513.09 754.895 1512.51 Q757.349 1511.93 759.386 1511.93 Q764.756 1511.93 767.951 1514.62 Q771.145 1517.31 771.145 1521.8 Q771.145 1523.93 770.335 1525.85 Q769.548 1527.74 767.442 1530.34 Q766.863 1531.01 763.761 1534.23 Q760.659 1537.42 755.011 1543.18 Z" fill="#000000" fill-rule="evenodd" fill-opacity="1" /><path clip-path="url(#clip220)" d="M 0 0 M1259.48 1515.64 Q1255.87 1515.64 1254.04 1519.2 Q1252.23 1522.75 1252.23 1529.87 Q1252.23 1536.98 1254.04 1540.55 Q1255.87 1544.09 1259.48 1544.09 Q1263.11 1544.09 1264.92 1540.55 Q1266.75 1536.98 1266.75 1529.87 Q1266.75 1522.75 1264.92 1519.2 Q1263.11 1515.64 1259.48 1515.64 M1259.48 1511.93 Q1265.29 1511.93 1268.35 1516.54 Q1271.42 1521.12 1271.42 1529.87 Q1271.42 1538.6 1268.35 1543.21 Q1265.29 1547.79 1259.48 1547.79 Q1253.67 1547.79 1250.59 1543.21 Q1247.54 1538.6 1247.54 1529.87 Q1247.54 1521.12 1250.59 1516.54 Q1253.67 1511.93 1259.48 1511.93 Z" fill="#000000" fill-rule="evenodd" fill-opacity="1" /><path clip-path="url(#clip220)" d="M 0 0 M1769.83 1543.18 L1786.15 1543.18 L1786.15 1547.12 L1764.2 1547.12 L1764.2 1543.18 Q1766.87 1540.43 1771.45 1535.8 Q1776.06 1531.15 1777.24 1529.81 Q1779.48 1527.28 1780.36 1525.55 Q1781.26 1523.79 1781.26 1522.1 Q1781.26 1519.34 1779.32 1517.61 Q1777.4 1515.87 1774.3 1515.87 Q1772.1 1515.87 1769.64 1516.63 Q1767.21 1517.4 1764.44 1518.95 L1764.44 1514.23 Q1767.26 1513.09 1769.71 1512.51 Q1772.17 1511.93 1774.2 1511.93 Q1779.57 1511.93 1782.77 1514.62 Q1785.96 1517.31 1785.96 1521.8 Q1785.96 1523.93 1785.15 1525.85 Q1784.37 1527.74 1782.26 1530.34 Q1781.68 1531.01 1778.58 1534.23 Q1775.48 1537.42 1769.83 1543.18 Z" fill="#000000" fill-rule="evenodd" fill-opacity="1" /><path clip-path="url(#clip220)" d="M 0 0 M2293.88 1516.63 L2282.08 1535.08 L2293.88 1535.08 L2293.88 1516.63 M2292.65 1512.56 L2298.53 1512.56 L2298.53 1535.08 L2303.46 1535.08 L2303.46 1538.97 L2298.53 1538.97 L2298.53 1547.12 L2293.88 1547.12 L2293.88 1538.97 L2278.28 1538.97 L2278.28 1534.46 L2292.65 1512.56 Z" fill="#000000" fill-rule="evenodd" fill-opacity="1" /><polyline clip-path="url(#clip222)" style="stroke:#000000; stroke-width:2; stroke-opacity:0.1; fill:none" points="
  166.205,1447.87 2352.76,1447.87 
  "/>
<polyline clip-path="url(#clip222)" style="stroke:#000000; stroke-width:2; stroke-opacity:0.1; fill:none" points="
  166.205,1158.92 2352.76,1158.92 
  "/>
<polyline clip-path="url(#clip222)" style="stroke:#000000; stroke-width:2; stroke-opacity:0.1; fill:none" points="
  166.205,869.974 2352.76,869.974 
  "/>
<polyline clip-path="url(#clip222)" style="stroke:#000000; stroke-width:2; stroke-opacity:0.1; fill:none" points="
  166.205,581.024 2352.76,581.024 
  "/>
<polyline clip-path="url(#clip222)" style="stroke:#000000; stroke-width:2; stroke-opacity:0.1; fill:none" points="
  166.205,292.074 2352.76,292.074 
  "/>
<polyline clip-path="url(#clip220)" style="stroke:#000000; stroke-width:4; stroke-opacity:1; fill:none" points="
  166.205,1486.45 166.205,123.472 
  "/>
<polyline clip-path="url(#clip220)" style="stroke:#000000; stroke-width:4; stroke-opacity:1; fill:none" points="
  166.205,1447.87 192.443,1447.87 
  "/>
<polyline clip-path="url(#clip220)" style="stroke:#000000; stroke-width:4; stroke-opacity:1; fill:none" points="
  166.205,1158.92 192.443,1158.92 
  "/>
<polyline clip-path="url(#clip220)" style="stroke:#000000; stroke-width:4; stroke-opacity:1; fill:none" points="
  166.205,869.974 192.443,869.974 
  "/>
<polyline clip-path="url(#clip220)" style="stroke:#000000; stroke-width:4; stroke-opacity:1; fill:none" points="
  166.205,581.024 192.443,581.024 
  "/>
<polyline clip-path="url(#clip220)" style="stroke:#000000; stroke-width:4; stroke-opacity:1; fill:none" points="
  166.205,292.074 192.443,292.074 
  "/>
<path clip-path="url(#clip220)" d="M 0 0 M118.26 1433.67 Q114.649 1433.67 112.82 1437.24 Q111.015 1440.78 111.015 1447.91 Q111.015 1455.01 112.82 1458.58 Q114.649 1462.12 118.26 1462.12 Q121.895 1462.12 123.7 1458.58 Q125.529 1455.01 125.529 1447.91 Q125.529 1440.78 123.7 1437.24 Q121.895 1433.67 118.26 1433.67 M118.26 1429.97 Q124.07 1429.97 127.126 1434.57 Q130.205 1439.16 130.205 1447.91 Q130.205 1456.63 127.126 1461.24 Q124.07 1465.82 118.26 1465.82 Q112.45 1465.82 109.371 1461.24 Q106.316 1456.63 106.316 1447.91 Q106.316 1439.16 109.371 1434.57 Q112.45 1429.97 118.26 1429.97 Z" fill="#000000" fill-rule="evenodd" fill-opacity="1" /><path clip-path="url(#clip220)" d="M 0 0 M59.8578 1172.27 L76.1772 1172.27 L76.1772 1176.2 L54.2328 1176.2 L54.2328 1172.27 Q56.8949 1169.51 61.4782 1164.88 Q66.0846 1160.23 67.2652 1158.89 Q69.5105 1156.37 70.3902 1154.63 Q71.2929 1152.87 71.2929 1151.18 Q71.2929 1148.43 69.3485 1146.69 Q67.4272 1144.95 64.3254 1144.95 Q62.1263 1144.95 59.6726 1145.72 Q57.2421 1146.48 54.4643 1148.03 L54.4643 1143.31 Q57.2884 1142.18 59.7421 1141.6 Q62.1958 1141.02 64.2328 1141.02 Q69.6031 1141.02 72.7976 1143.7 Q75.992 1146.39 75.992 1150.88 Q75.992 1153.01 75.1818 1154.93 Q74.3948 1156.83 72.2883 1159.42 Q71.7096 1160.09 68.6078 1163.31 Q65.5059 1166.5 59.8578 1172.27 Z" fill="#000000" fill-rule="evenodd" fill-opacity="1" /><path clip-path="url(#clip220)" d="M 0 0 M91.2465 1144.72 Q87.6354 1144.72 85.8068 1148.29 Q84.0012 1151.83 84.0012 1158.96 Q84.0012 1166.06 85.8068 1169.63 Q87.6354 1173.17 91.2465 1173.17 Q94.8808 1173.17 96.6863 1169.63 Q98.515 1166.06 98.515 1158.96 Q98.515 1151.83 96.6863 1148.29 Q94.8808 1144.72 91.2465 1144.72 M91.2465 1141.02 Q97.0567 1141.02 100.112 1145.62 Q103.191 1150.21 103.191 1158.96 Q103.191 1167.68 100.112 1172.29 Q97.0567 1176.87 91.2465 1176.87 Q85.4364 1176.87 82.3577 1172.29 Q79.3022 1167.68 79.3022 1158.96 Q79.3022 1150.21 82.3577 1145.62 Q85.4364 1141.02 91.2465 1141.02 Z" fill="#000000" fill-rule="evenodd" fill-opacity="1" /><path clip-path="url(#clip220)" d="M 0 0 M118.26 1144.72 Q114.649 1144.72 112.82 1148.29 Q111.015 1151.83 111.015 1158.96 Q111.015 1166.06 112.82 1169.63 Q114.649 1173.17 118.26 1173.17 Q121.895 1173.17 123.7 1169.63 Q125.529 1166.06 125.529 1158.96 Q125.529 1151.83 123.7 1148.29 Q121.895 1144.72 118.26 1144.72 M118.26 1141.02 Q124.07 1141.02 127.126 1145.62 Q130.205 1150.21 130.205 1158.96 Q130.205 1167.68 127.126 1172.29 Q124.07 1176.87 118.26 1176.87 Q112.45 1176.87 109.371 1172.29 Q106.316 1167.68 106.316 1158.96 Q106.316 1150.21 109.371 1145.62 Q112.45 1141.02 118.26 1141.02 Z" fill="#000000" fill-rule="evenodd" fill-opacity="1" /><path clip-path="url(#clip220)" d="M 0 0 M66.5939 856.768 L54.7884 875.217 L66.5939 875.217 L66.5939 856.768 M65.367 852.694 L71.2466 852.694 L71.2466 875.217 L76.1772 875.217 L76.1772 879.106 L71.2466 879.106 L71.2466 887.254 L66.5939 887.254 L66.5939 879.106 L50.9921 879.106 L50.9921 874.592 L65.367 852.694 Z" fill="#000000" fill-rule="evenodd" fill-opacity="1" /><path clip-path="url(#clip220)" d="M 0 0 M91.2465 855.772 Q87.6354 855.772 85.8068 859.337 Q84.0012 862.879 84.0012 870.008 Q84.0012 877.115 85.8068 880.68 Q87.6354 884.221 91.2465 884.221 Q94.8808 884.221 96.6863 880.68 Q98.515 877.115 98.515 870.008 Q98.515 862.879 96.6863 859.337 Q94.8808 855.772 91.2465 855.772 M91.2465 852.069 Q97.0567 852.069 100.112 856.675 Q103.191 861.258 103.191 870.008 Q103.191 878.735 100.112 883.342 Q97.0567 887.925 91.2465 887.925 Q85.4364 887.925 82.3577 883.342 Q79.3022 878.735 79.3022 870.008 Q79.3022 861.258 82.3577 856.675 Q85.4364 852.069 91.2465 852.069 Z" fill="#000000" fill-rule="evenodd" fill-opacity="1" /><path clip-path="url(#clip220)" d="M 0 0 M118.26 855.772 Q114.649 855.772 112.82 859.337 Q111.015 862.879 111.015 870.008 Q111.015 877.115 112.82 880.68 Q114.649 884.221 118.26 884.221 Q121.895 884.221 123.7 880.68 Q125.529 877.115 125.529 870.008 Q125.529 862.879 123.7 859.337 Q121.895 855.772 118.26 855.772 M118.26 852.069 Q124.07 852.069 127.126 856.675 Q130.205 861.258 130.205 870.008 Q130.205 878.735 127.126 883.342 Q124.07 887.925 118.26 887.925 Q112.45 887.925 109.371 883.342 Q106.316 878.735 106.316 870.008 Q106.316 861.258 109.371 856.675 Q112.45 852.069 118.26 852.069 Z" fill="#000000" fill-rule="evenodd" fill-opacity="1" /><path clip-path="url(#clip220)" d="M 0 0 M64.6495 579.161 Q61.5013 579.161 59.6495 581.313 Q57.8208 583.466 57.8208 587.216 Q57.8208 590.943 59.6495 593.119 Q61.5013 595.272 64.6495 595.272 Q67.7976 595.272 69.6263 593.119 Q71.4781 590.943 71.4781 587.216 Q71.4781 583.466 69.6263 581.313 Q67.7976 579.161 64.6495 579.161 M73.9318 564.508 L73.9318 568.767 Q72.1726 567.934 70.367 567.494 Q68.5846 567.054 66.8254 567.054 Q62.1958 567.054 59.7421 570.179 Q57.3115 573.304 56.9643 579.624 Q58.33 577.61 60.3902 576.545 Q62.4504 575.457 64.9272 575.457 Q70.1355 575.457 73.1448 578.628 Q76.1772 581.776 76.1772 587.216 Q76.1772 592.54 73.029 595.758 Q69.8809 598.975 64.6495 598.975 Q58.6541 598.975 55.4828 594.392 Q52.3116 589.786 52.3116 581.059 Q52.3116 572.864 56.2004 568.003 Q60.0893 563.119 66.6402 563.119 Q68.3994 563.119 70.1818 563.466 Q71.9874 563.813 73.9318 564.508 Z" fill="#000000" fill-rule="evenodd" fill-opacity="1" /><path clip-path="url(#clip220)" d="M 0 0 M91.2465 566.823 Q87.6354 566.823 85.8068 570.387 Q84.0012 573.929 84.0012 581.059 Q84.0012 588.165 85.8068 591.73 Q87.6354 595.272 91.2465 595.272 Q94.8808 595.272 96.6863 591.73 Q98.515 588.165 98.515 581.059 Q98.515 573.929 96.6863 570.387 Q94.8808 566.823 91.2465 566.823 M91.2465 563.119 Q97.0567 563.119 100.112 567.725 Q103.191 572.309 103.191 581.059 Q103.191 589.786 100.112 594.392 Q97.0567 598.975 91.2465 598.975 Q85.4364 598.975 82.3577 594.392 Q79.3022 589.786 79.3022 581.059 Q79.3022 572.309 82.3577 567.725 Q85.4364 563.119 91.2465 563.119 Z" fill="#000000" fill-rule="evenodd" fill-opacity="1" /><path clip-path="url(#clip220)" d="M 0 0 M118.26 566.823 Q114.649 566.823 112.82 570.387 Q111.015 573.929 111.015 581.059 Q111.015 588.165 112.82 591.73 Q114.649 595.272 118.26 595.272 Q121.895 595.272 123.7 591.73 Q125.529 588.165 125.529 581.059 Q125.529 573.929 123.7 570.387 Q121.895 566.823 118.26 566.823 M118.26 563.119 Q124.07 563.119 127.126 567.725 Q130.205 572.309 130.205 581.059 Q130.205 589.786 127.126 594.392 Q124.07 598.975 118.26 598.975 Q112.45 598.975 109.371 594.392 Q106.316 589.786 106.316 581.059 Q106.316 572.309 109.371 567.725 Q112.45 563.119 118.26 563.119 Z" fill="#000000" fill-rule="evenodd" fill-opacity="1" /><path clip-path="url(#clip220)" d="M 0 0 M64.3254 292.942 Q60.9921 292.942 59.0708 294.725 Q57.1726 296.507 57.1726 299.632 Q57.1726 302.757 59.0708 304.539 Q60.9921 306.322 64.3254 306.322 Q67.6587 306.322 69.58 304.539 Q71.5013 302.734 71.5013 299.632 Q71.5013 296.507 69.58 294.725 Q67.6819 292.942 64.3254 292.942 M59.6495 290.952 Q56.6402 290.211 54.9504 288.151 Q53.2838 286.091 53.2838 283.128 Q53.2838 278.984 56.2236 276.577 Q59.1865 274.169 64.3254 274.169 Q69.4874 274.169 72.4272 276.577 Q75.367 278.984 75.367 283.128 Q75.367 286.091 73.6772 288.151 Q72.0105 290.211 69.0244 290.952 Q72.404 291.739 74.279 294.03 Q76.1772 296.322 76.1772 299.632 Q76.1772 304.655 73.0985 307.34 Q70.0429 310.026 64.3254 310.026 Q58.6078 310.026 55.5291 307.34 Q52.4736 304.655 52.4736 299.632 Q52.4736 296.322 54.3717 294.03 Q56.2699 291.739 59.6495 290.952 M57.9365 283.567 Q57.9365 286.253 59.6032 287.757 Q61.293 289.262 64.3254 289.262 Q67.3346 289.262 69.0244 287.757 Q70.7374 286.253 70.7374 283.567 Q70.7374 280.882 69.0244 279.378 Q67.3346 277.873 64.3254 277.873 Q61.293 277.873 59.6032 279.378 Q57.9365 280.882 57.9365 283.567 Z" fill="#000000" fill-rule="evenodd" fill-opacity="1" /><path clip-path="url(#clip220)" d="M 0 0 M91.2465 277.873 Q87.6354 277.873 85.8068 281.438 Q84.0012 284.979 84.0012 292.109 Q84.0012 299.215 85.8068 302.78 Q87.6354 306.322 91.2465 306.322 Q94.8808 306.322 96.6863 302.78 Q98.515 299.215 98.515 292.109 Q98.515 284.979 96.6863 281.438 Q94.8808 277.873 91.2465 277.873 M91.2465 274.169 Q97.0567 274.169 100.112 278.776 Q103.191 283.359 103.191 292.109 Q103.191 300.836 100.112 305.442 Q97.0567 310.026 91.2465 310.026 Q85.4364 310.026 82.3577 305.442 Q79.3022 300.836 79.3022 292.109 Q79.3022 283.359 82.3577 278.776 Q85.4364 274.169 91.2465 274.169 Z" fill="#000000" fill-rule="evenodd" fill-opacity="1" /><path clip-path="url(#clip220)" d="M 0 0 M118.26 277.873 Q114.649 277.873 112.82 281.438 Q111.015 284.979 111.015 292.109 Q111.015 299.215 112.82 302.78 Q114.649 306.322 118.26 306.322 Q121.895 306.322 123.7 302.78 Q125.529 299.215 125.529 292.109 Q125.529 284.979 123.7 281.438 Q121.895 277.873 118.26 277.873 M118.26 274.169 Q124.07 274.169 127.126 278.776 Q130.205 283.359 130.205 292.109 Q130.205 300.836 127.126 305.442 Q124.07 310.026 118.26 310.026 Q112.45 310.026 109.371 305.442 Q106.316 300.836 106.316 292.109 Q106.316 283.359 109.371 278.776 Q112.45 274.169 118.26 274.169 Z" fill="#000000" fill-rule="evenodd" fill-opacity="1" /><path clip-path="url(#clip220)" d="M 0 0 M697.458 18.8205 L697.458 65.8515 L707.342 65.8515 Q719.859 65.8515 725.652 60.1802 Q731.485 54.509 731.485 42.2752 Q731.485 30.1225 725.652 24.4918 Q719.859 18.8205 707.342 18.8205 L697.458 18.8205 M689.275 12.096 L706.086 12.096 Q723.667 12.096 731.891 19.4281 Q740.114 26.7198 740.114 42.2752 Q740.114 57.9117 731.85 65.2439 Q723.586 72.576 706.086 72.576 L689.275 72.576 L689.275 12.096 Z" fill="#000000" fill-rule="evenodd" fill-opacity="1" /><path clip-path="url(#clip220)" d="M 0 0 M768.551 49.7694 Q759.518 49.7694 756.034 51.8354 Q752.55 53.9013 752.55 58.8839 Q752.55 62.8538 755.143 65.2034 Q757.776 67.5124 762.272 67.5124 Q768.47 67.5124 772.197 63.1374 Q775.964 58.7219 775.964 51.4303 L775.964 49.7694 L768.551 49.7694 M783.418 46.6907 L783.418 72.576 L775.964 72.576 L775.964 65.6895 Q773.412 69.8214 769.604 71.8063 Q765.797 73.7508 760.287 73.7508 Q753.32 73.7508 749.188 69.8619 Q745.096 65.9325 745.096 59.3701 Q745.096 51.7138 750.201 47.825 Q755.345 43.9361 765.513 43.9361 L775.964 43.9361 L775.964 43.2069 Q775.964 38.0623 772.562 35.2672 Q769.199 32.4315 763.082 32.4315 Q759.194 32.4315 755.507 33.3632 Q751.821 34.295 748.418 36.1584 L748.418 29.2718 Q752.51 27.692 756.358 26.9223 Q760.206 26.1121 763.852 26.1121 Q773.696 26.1121 778.557 31.2163 Q783.418 36.3204 783.418 46.6907 Z" fill="#000000" fill-rule="evenodd" fill-opacity="1" /><path clip-path="url(#clip220)" d="M 0 0 M798.609 14.324 L798.609 27.2059 L813.962 27.2059 L813.962 32.9987 L798.609 32.9987 L798.609 57.6282 Q798.609 63.1779 800.108 64.7578 Q801.647 66.3376 806.306 66.3376 L813.962 66.3376 L813.962 72.576 L806.306 72.576 Q797.677 72.576 794.396 69.3758 Q791.115 66.1351 791.115 57.6282 L791.115 32.9987 L785.646 32.9987 L785.646 27.2059 L791.115 27.2059 L791.115 14.324 L798.609 14.324 Z" fill="#000000" fill-rule="evenodd" fill-opacity="1" /><path clip-path="url(#clip220)" d="M 0 0 M842.399 49.7694 Q833.366 49.7694 829.882 51.8354 Q826.398 53.9013 826.398 58.8839 Q826.398 62.8538 828.991 65.2034 Q831.624 67.5124 836.12 67.5124 Q842.318 67.5124 846.045 63.1374 Q849.812 58.7219 849.812 51.4303 L849.812 49.7694 L842.399 49.7694 M857.266 46.6907 L857.266 72.576 L849.812 72.576 L849.812 65.6895 Q847.26 69.8214 843.452 71.8063 Q839.645 73.7508 834.135 73.7508 Q827.168 73.7508 823.036 69.8619 Q818.944 65.9325 818.944 59.3701 Q818.944 51.7138 824.049 47.825 Q829.193 43.9361 839.361 43.9361 L849.812 43.9361 L849.812 43.2069 Q849.812 38.0623 846.41 35.2672 Q843.047 32.4315 836.93 32.4315 Q833.042 32.4315 829.355 33.3632 Q825.669 34.295 822.266 36.1584 L822.266 29.2718 Q826.358 27.692 830.206 26.9223 Q834.054 26.1121 837.7 26.1121 Q847.544 26.1121 852.405 31.2163 Q857.266 36.3204 857.266 46.6907 Z" fill="#000000" fill-rule="evenodd" fill-opacity="1" /><path clip-path="url(#clip220)" d="M 0 0 M912.075 49.7694 Q903.041 49.7694 899.557 51.8354 Q896.074 53.9013 896.074 58.8839 Q896.074 62.8538 898.666 65.2034 Q901.299 67.5124 905.796 67.5124 Q911.994 67.5124 915.721 63.1374 Q919.488 58.7219 919.488 51.4303 L919.488 49.7694 L912.075 49.7694 M926.942 46.6907 L926.942 72.576 L919.488 72.576 L919.488 65.6895 Q916.936 69.8214 913.128 71.8063 Q909.32 73.7508 903.811 73.7508 Q896.843 73.7508 892.711 69.8619 Q888.62 65.9325 888.62 59.3701 Q888.62 51.7138 893.724 47.825 Q898.869 43.9361 909.037 43.9361 L919.488 43.9361 L919.488 43.2069 Q919.488 38.0623 916.085 35.2672 Q912.723 32.4315 906.606 32.4315 Q902.717 32.4315 899.031 33.3632 Q895.345 34.295 891.942 36.1584 L891.942 29.2718 Q896.033 27.692 899.882 26.9223 Q903.73 26.1121 907.376 26.1121 Q917.219 26.1121 922.08 31.2163 Q926.942 36.3204 926.942 46.6907 Z" fill="#000000" fill-rule="evenodd" fill-opacity="1" /><path clip-path="url(#clip220)" d="M 0 0 M972.474 45.1919 L972.474 72.576 L965.02 72.576 L965.02 45.4349 Q965.02 38.994 962.508 35.7938 Q959.997 32.5936 954.974 32.5936 Q948.938 32.5936 945.454 36.4419 Q941.97 40.2903 941.97 46.9338 L941.97 72.576 L934.476 72.576 L934.476 27.2059 L941.97 27.2059 L941.97 34.2544 Q944.644 30.163 948.249 28.1376 Q951.895 26.1121 956.635 26.1121 Q964.453 26.1121 968.463 30.9732 Q972.474 35.7938 972.474 45.1919 Z" fill="#000000" fill-rule="evenodd" fill-opacity="1" /><path clip-path="url(#clip220)" d="M 0 0 M1010.15 34.0924 L1010.15 9.54393 L1017.6 9.54393 L1017.6 72.576 L1010.15 72.576 L1010.15 65.7705 Q1007.8 69.8214 1004.19 71.8063 Q1000.63 73.7508 995.604 73.7508 Q987.381 73.7508 982.196 67.1883 Q977.051 60.6258 977.051 49.9314 Q977.051 39.2371 982.196 32.6746 Q987.381 26.1121 995.604 26.1121 Q1000.63 26.1121 1004.19 28.0971 Q1007.8 30.0415 1010.15 34.0924 M984.748 49.9314 Q984.748 58.1548 988.11 62.8538 Q991.513 67.5124 997.427 67.5124 Q1003.34 67.5124 1006.74 62.8538 Q1010.15 58.1548 1010.15 49.9314 Q1010.15 41.7081 1006.74 37.0496 Q1003.34 32.3505 997.427 32.3505 Q991.513 32.3505 988.11 37.0496 Q984.748 41.7081 984.748 49.9314 Z" fill="#000000" fill-rule="evenodd" fill-opacity="1" /><path clip-path="url(#clip220)" d="M 0 0 M1043.73 12.096 L1094.89 12.096 L1094.89 18.9825 L1073.42 18.9825 L1073.42 72.576 L1065.2 72.576 L1065.2 18.9825 L1043.73 18.9825 L1043.73 12.096 Z" fill="#000000" fill-rule="evenodd" fill-opacity="1" /><path clip-path="url(#clip220)" d="M 0 0 M1116.81 34.1734 Q1115.55 33.4443 1114.05 33.1202 Q1112.59 32.7556 1110.81 32.7556 Q1104.49 32.7556 1101.09 36.8875 Q1097.73 40.9789 1097.73 48.6757 L1097.73 72.576 L1090.23 72.576 L1090.23 27.2059 L1097.73 27.2059 L1097.73 34.2544 Q1100.08 30.1225 1103.84 28.1376 Q1107.61 26.1121 1113 26.1121 Q1113.77 26.1121 1114.7 26.2337 Q1115.63 26.3147 1116.77 26.5172 L1116.81 34.1734 Z" fill="#000000" fill-rule="evenodd" fill-opacity="1" /><path clip-path="url(#clip220)" d="M 0 0 M1123.86 54.671 L1123.86 27.2059 L1131.31 27.2059 L1131.31 54.3874 Q1131.31 60.8284 1133.82 64.0691 Q1136.33 67.2693 1141.36 67.2693 Q1147.39 67.2693 1150.88 63.421 Q1154.4 59.5726 1154.4 52.9291 L1154.4 27.2059 L1161.85 27.2059 L1161.85 72.576 L1154.4 72.576 L1154.4 65.6084 Q1151.69 69.7404 1148.08 71.7658 Q1144.52 73.7508 1139.78 73.7508 Q1131.96 73.7508 1127.91 68.8897 Q1123.86 64.0286 1123.86 54.671 M1142.61 26.1121 L1142.61 26.1121 Z" fill="#000000" fill-rule="evenodd" fill-opacity="1" /><path clip-path="url(#clip220)" d="M 0 0 M1208.48 48.0275 L1208.48 51.6733 L1174.21 51.6733 Q1174.69 59.3701 1178.83 63.421 Q1183 67.4314 1190.41 67.4314 Q1194.71 67.4314 1198.72 66.3781 Q1202.77 65.3249 1206.74 63.2184 L1206.74 70.267 Q1202.73 71.9684 1198.51 72.8596 Q1194.3 73.7508 1189.97 73.7508 Q1179.11 73.7508 1172.75 67.4314 Q1166.43 61.1119 1166.43 50.3365 Q1166.43 39.1965 1172.43 32.6746 Q1178.46 26.1121 1188.67 26.1121 Q1197.83 26.1121 1203.13 32.0264 Q1208.48 37.9003 1208.48 48.0275 M1201.03 45.84 Q1200.94 39.7232 1197.58 36.0774 Q1194.26 32.4315 1188.75 32.4315 Q1182.51 32.4315 1178.75 35.9558 Q1175.02 39.4801 1174.45 45.8805 L1201.03 45.84 Z" fill="#000000" fill-rule="evenodd" fill-opacity="1" /><path clip-path="url(#clip220)" d="M 0 0 M1279.25 14.0809 L1279.25 22.0612 Q1274.59 19.8332 1270.46 18.7395 Q1266.33 17.6457 1262.48 17.6457 Q1255.79 17.6457 1252.15 20.2383 Q1248.54 22.8309 1248.54 27.611 Q1248.54 31.6214 1250.93 33.6873 Q1253.36 35.7128 1260.09 36.9686 L1265.03 37.9813 Q1274.19 39.7232 1278.52 44.1387 Q1282.89 48.5136 1282.89 55.8863 Q1282.89 64.6767 1276.98 69.2137 Q1271.11 73.7508 1259.72 73.7508 Q1255.43 73.7508 1250.57 72.7785 Q1245.75 71.8063 1240.56 69.9024 L1240.56 61.4765 Q1245.55 64.2716 1250.33 65.6895 Q1255.11 67.1073 1259.72 67.1073 Q1266.73 67.1073 1270.54 64.3527 Q1274.35 61.598 1274.35 56.4939 Q1274.35 52.0379 1271.59 49.5264 Q1268.88 47.0148 1262.64 45.759 L1257.66 44.7868 Q1248.5 42.9639 1244.41 39.075 Q1240.32 35.1862 1240.32 28.2591 Q1240.32 20.2383 1245.95 15.6203 Q1251.62 11.0023 1261.55 11.0023 Q1265.8 11.0023 1270.22 11.7719 Q1274.63 12.5416 1279.25 14.0809 Z" fill="#000000" fill-rule="evenodd" fill-opacity="1" /><path clip-path="url(#clip220)" d="M 0 0 M1298.09 14.324 L1298.09 27.2059 L1313.44 27.2059 L1313.44 32.9987 L1298.09 32.9987 L1298.09 57.6282 Q1298.09 63.1779 1299.58 64.7578 Q1301.12 66.3376 1305.78 66.3376 L1313.44 66.3376 L1313.44 72.576 L1305.78 72.576 Q1297.15 72.576 1293.87 69.3758 Q1290.59 66.1351 1290.59 57.6282 L1290.59 32.9987 L1285.12 32.9987 L1285.12 27.2059 L1290.59 27.2059 L1290.59 14.324 L1298.09 14.324 Z" fill="#000000" fill-rule="evenodd" fill-opacity="1" /><path clip-path="url(#clip220)" d="M 0 0 M1341.88 49.7694 Q1332.84 49.7694 1329.36 51.8354 Q1325.87 53.9013 1325.87 58.8839 Q1325.87 62.8538 1328.47 65.2034 Q1331.1 67.5124 1335.6 67.5124 Q1341.79 67.5124 1345.52 63.1374 Q1349.29 58.7219 1349.29 51.4303 L1349.29 49.7694 L1341.88 49.7694 M1356.74 46.6907 L1356.74 72.576 L1349.29 72.576 L1349.29 65.6895 Q1346.74 69.8214 1342.93 71.8063 Q1339.12 73.7508 1333.61 73.7508 Q1326.64 73.7508 1322.51 69.8619 Q1318.42 65.9325 1318.42 59.3701 Q1318.42 51.7138 1323.53 47.825 Q1328.67 43.9361 1338.84 43.9361 L1349.29 43.9361 L1349.29 43.2069 Q1349.29 38.0623 1345.89 35.2672 Q1342.52 32.4315 1336.41 32.4315 Q1332.52 32.4315 1328.83 33.3632 Q1325.15 34.295 1321.74 36.1584 L1321.74 29.2718 Q1325.83 27.692 1329.68 26.9223 Q1333.53 26.1121 1337.18 26.1121 Q1347.02 26.1121 1351.88 31.2163 Q1356.74 36.3204 1356.74 46.6907 Z" fill="#000000" fill-rule="evenodd" fill-opacity="1" /><path clip-path="url(#clip220)" d="M 0 0 M1371.93 14.324 L1371.93 27.2059 L1387.29 27.2059 L1387.29 32.9987 L1371.93 32.9987 L1371.93 57.6282 Q1371.93 63.1779 1373.43 64.7578 Q1374.97 66.3376 1379.63 66.3376 L1387.29 66.3376 L1387.29 72.576 L1379.63 72.576 Q1371 72.576 1367.72 69.3758 Q1364.44 66.1351 1364.44 57.6282 L1364.44 32.9987 L1358.97 32.9987 L1358.97 27.2059 L1364.44 27.2059 L1364.44 14.324 L1371.93 14.324 Z" fill="#000000" fill-rule="evenodd" fill-opacity="1" /><path clip-path="url(#clip220)" d="M 0 0 M1395.1 27.2059 L1402.56 27.2059 L1402.56 72.576 L1395.1 72.576 L1395.1 27.2059 M1395.1 9.54393 L1402.56 9.54393 L1402.56 18.9825 L1395.1 18.9825 L1395.1 9.54393 Z" fill="#000000" fill-rule="evenodd" fill-opacity="1" /><path clip-path="url(#clip220)" d="M 0 0 M1439.3 28.5427 L1439.3 35.5912 Q1436.14 33.9709 1432.74 33.1607 Q1429.33 32.3505 1425.69 32.3505 Q1420.14 32.3505 1417.34 34.0519 Q1414.59 35.7533 1414.59 39.156 Q1414.59 41.7486 1416.57 43.2475 Q1418.56 44.7058 1424.55 46.0426 L1427.11 46.6097 Q1435.05 48.3111 1438.37 51.4303 Q1441.73 54.509 1441.73 60.0587 Q1441.73 66.3781 1436.71 70.0644 Q1431.72 73.7508 1422.97 73.7508 Q1419.33 73.7508 1415.36 73.0216 Q1411.43 72.3329 1407.05 70.9151 L1407.05 63.2184 Q1411.19 65.3654 1415.2 66.4591 Q1419.21 67.5124 1423.14 67.5124 Q1428.4 67.5124 1431.24 65.73 Q1434.07 63.9071 1434.07 60.6258 Q1434.07 57.5877 1432.01 55.9673 Q1429.98 54.3469 1423.06 52.8481 L1420.46 52.2405 Q1413.54 50.7821 1410.46 47.7845 Q1407.38 44.7463 1407.38 39.4801 Q1407.38 33.0797 1411.92 29.5959 Q1416.45 26.1121 1424.8 26.1121 Q1428.93 26.1121 1432.58 26.7198 Q1436.22 27.3274 1439.3 28.5427 Z" fill="#000000" fill-rule="evenodd" fill-opacity="1" /><path clip-path="url(#clip220)" d="M 0 0 M1456.92 14.324 L1456.92 27.2059 L1472.27 27.2059 L1472.27 32.9987 L1456.92 32.9987 L1456.92 57.6282 Q1456.92 63.1779 1458.42 64.7578 Q1459.96 66.3376 1464.62 66.3376 L1472.27 66.3376 L1472.27 72.576 L1464.62 72.576 Q1455.99 72.576 1452.71 69.3758 Q1449.43 66.1351 1449.43 57.6282 L1449.43 32.9987 L1443.96 32.9987 L1443.96 27.2059 L1449.43 27.2059 L1449.43 14.324 L1456.92 14.324 Z" fill="#000000" fill-rule="evenodd" fill-opacity="1" /><path clip-path="url(#clip220)" d="M 0 0 M1480.09 27.2059 L1487.55 27.2059 L1487.55 72.576 L1480.09 72.576 L1480.09 27.2059 M1480.09 9.54393 L1487.55 9.54393 L1487.55 18.9825 L1480.09 18.9825 L1480.09 9.54393 Z" fill="#000000" fill-rule="evenodd" fill-opacity="1" /><path clip-path="url(#clip220)" d="M 0 0 M1528.01 28.9478 L1528.01 35.9153 Q1524.86 34.1734 1521.65 33.3227 Q1518.5 32.4315 1515.25 32.4315 Q1508 32.4315 1503.99 37.0496 Q1499.98 41.6271 1499.98 49.9314 Q1499.98 58.2358 1503.99 62.8538 Q1508 67.4314 1515.25 67.4314 Q1518.5 67.4314 1521.65 66.5807 Q1524.86 65.6895 1528.01 63.9476 L1528.01 70.8341 Q1524.9 72.2924 1521.53 73.0216 Q1518.21 73.7508 1514.44 73.7508 Q1504.2 73.7508 1498.16 67.3098 Q1492.12 60.8689 1492.12 49.9314 Q1492.12 38.832 1498.2 32.472 Q1504.32 26.1121 1514.93 26.1121 Q1518.37 26.1121 1521.65 26.8413 Q1524.94 27.5299 1528.01 28.9478 Z" fill="#000000" fill-rule="evenodd" fill-opacity="1" /><path clip-path="url(#clip220)" d="M 0 0 M1556.45 49.7694 Q1547.42 49.7694 1543.93 51.8354 Q1540.45 53.9013 1540.45 58.8839 Q1540.45 62.8538 1543.04 65.2034 Q1545.68 67.5124 1550.17 67.5124 Q1556.37 67.5124 1560.1 63.1374 Q1563.87 58.7219 1563.87 51.4303 L1563.87 49.7694 L1556.45 49.7694 M1571.32 46.6907 L1571.32 72.576 L1563.87 72.576 L1563.87 65.6895 Q1561.31 69.8214 1557.51 71.8063 Q1553.7 73.7508 1548.19 73.7508 Q1541.22 73.7508 1537.09 69.8619 Q1533 65.9325 1533 59.3701 Q1533 51.7138 1538.1 47.825 Q1543.25 43.9361 1553.41 43.9361 L1563.87 43.9361 L1563.87 43.2069 Q1563.87 38.0623 1560.46 35.2672 Q1557.1 32.4315 1550.98 32.4315 Q1547.09 32.4315 1543.41 33.3632 Q1539.72 34.295 1536.32 36.1584 L1536.32 29.2718 Q1540.41 27.692 1544.26 26.9223 Q1548.11 26.1121 1551.75 26.1121 Q1561.6 26.1121 1566.46 31.2163 Q1571.32 36.3204 1571.32 46.6907 Z" fill="#000000" fill-rule="evenodd" fill-opacity="1" /><path clip-path="url(#clip220)" d="M 0 0 M1579.14 9.54393 L1586.59 9.54393 L1586.59 72.576 L1579.14 72.576 L1579.14 9.54393 Z" fill="#000000" fill-rule="evenodd" fill-opacity="1" /><path clip-path="url(#clip220)" d="M 0 0 M1621.1 12.096 L1633.3 12.096 L1648.73 53.2532 L1664.25 12.096 L1676.44 12.096 L1676.44 72.576 L1668.46 72.576 L1668.46 19.4686 L1652.86 60.9499 L1644.64 60.9499 L1629.04 19.4686 L1629.04 72.576 L1621.1 72.576 L1621.1 12.096 Z" fill="#000000" fill-rule="evenodd" fill-opacity="1" /><path clip-path="url(#clip220)" d="M 0 0 M1701.84 32.4315 Q1695.84 32.4315 1692.36 37.1306 Q1688.88 41.7891 1688.88 49.9314 Q1688.88 58.0738 1692.32 62.7728 Q1695.8 67.4314 1701.84 67.4314 Q1707.79 67.4314 1711.28 62.7323 Q1714.76 58.0333 1714.76 49.9314 Q1714.76 41.8701 1711.28 37.1711 Q1707.79 32.4315 1701.84 32.4315 M1701.84 26.1121 Q1711.56 26.1121 1717.11 32.4315 Q1722.66 38.7509 1722.66 49.9314 Q1722.66 61.0714 1717.11 67.4314 Q1711.56 73.7508 1701.84 73.7508 Q1692.08 73.7508 1686.53 67.4314 Q1681.02 61.0714 1681.02 49.9314 Q1681.02 38.7509 1686.53 32.4315 Q1692.08 26.1121 1701.84 26.1121 Z" fill="#000000" fill-rule="evenodd" fill-opacity="1" /><path clip-path="url(#clip220)" d="M 0 0 M1760.33 34.0924 L1760.33 9.54393 L1767.79 9.54393 L1767.79 72.576 L1760.33 72.576 L1760.33 65.7705 Q1757.98 69.8214 1754.38 71.8063 Q1750.81 73.7508 1745.79 73.7508 Q1737.57 73.7508 1732.38 67.1883 Q1727.24 60.6258 1727.24 49.9314 Q1727.24 39.2371 1732.38 32.6746 Q1737.57 26.1121 1745.79 26.1121 Q1750.81 26.1121 1754.38 28.0971 Q1757.98 30.0415 1760.33 34.0924 M1734.93 49.9314 Q1734.93 58.1548 1738.3 62.8538 Q1741.7 67.5124 1747.61 67.5124 Q1753.53 67.5124 1756.93 62.8538 Q1760.33 58.1548 1760.33 49.9314 Q1760.33 41.7081 1756.93 37.0496 Q1753.53 32.3505 1747.61 32.3505 Q1741.7 32.3505 1738.3 37.0496 Q1734.93 41.7081 1734.93 49.9314 Z" fill="#000000" fill-rule="evenodd" fill-opacity="1" /><path clip-path="url(#clip220)" d="M 0 0 M1814.41 48.0275 L1814.41 51.6733 L1780.14 51.6733 Q1780.63 59.3701 1784.76 63.421 Q1788.93 67.4314 1796.35 67.4314 Q1800.64 67.4314 1804.65 66.3781 Q1808.7 65.3249 1812.67 63.2184 L1812.67 70.267 Q1808.66 71.9684 1804.45 72.8596 Q1800.24 73.7508 1795.9 73.7508 Q1785.04 73.7508 1778.68 67.4314 Q1772.37 61.1119 1772.37 50.3365 Q1772.37 39.1965 1778.36 32.6746 Q1784.4 26.1121 1794.6 26.1121 Q1803.76 26.1121 1809.07 32.0264 Q1814.41 37.9003 1814.41 48.0275 M1806.96 45.84 Q1806.88 39.7232 1803.52 36.0774 Q1800.19 32.4315 1794.69 32.4315 Q1788.45 32.4315 1784.68 35.9558 Q1780.95 39.4801 1780.39 45.8805 L1806.96 45.84 Z" fill="#000000" fill-rule="evenodd" fill-opacity="1" /><path clip-path="url(#clip220)" d="M 0 0 M1822.23 9.54393 L1829.69 9.54393 L1829.69 72.576 L1822.23 72.576 L1822.23 9.54393 Z" fill="#000000" fill-rule="evenodd" fill-opacity="1" /><polyline clip-path="url(#clip222)" style="stroke:#009af9; stroke-width:4; stroke-opacity:1; fill:none" points="
  743.784,1447.87 743.784,1346.74 769.569,1346.74 769.569,1332.29 795.354,1332.29 795.354,1202.27 821.139,1202.27 821.139,1274.5 846.923,1274.5 846.923,1115.58 
  872.708,1115.58 872.708,1187.82 898.493,1187.82 898.493,913.316 924.278,913.316 924.278,1043.34 950.063,1043.34 950.063,898.869 975.847,898.869 975.847,855.526 
  1001.63,855.526 1001.63,1057.79 1027.42,1057.79 1027.42,754.394 1053.2,754.394 1053.2,956.659 1078.99,956.659 1078.99,812.184 1104.77,812.184 1104.77,1057.79 
  1130.56,1057.79 1130.56,1202.27 1156.34,1202.27 1156.34,1028.9 1182.13,1028.9 1182.13,1288.95 1207.91,1288.95 1207.91,1332.29 1233.7,1332.29 
  1259.48,1332.29 1259.48,1418.98 1285.27,1418.98 1285.27,1404.53 1311.05,1404.53 1311.05,1418.98 1336.83,1418.98 1336.83,1433.43 1362.62,1433.43 1362.62,1418.98 
  1388.4,1418.98 1414.19,1418.98 1414.19,1433.43 1439.97,1433.43 1439.97,1404.53 1465.76,1404.53 1465.76,1375.64 1491.54,1375.64 1491.54,1274.5 
  1517.33,1274.5 1517.33,1216.71 1543.11,1216.71 1543.11,1187.82 1568.9,1187.82 1568.9,971.106 1594.68,971.106 1620.47,971.106 1620.47,754.394 
  1646.25,754.394 1646.25,638.814 1672.04,638.814 1672.04,653.261 1697.82,653.261 1697.82,595.471 1723.61,595.471 1723.61,320.969 1749.39,320.969 
  1775.18,320.969 1775.18,162.047 1800.96,162.047 1800.96,407.654 1826.75,407.654 1826.75,422.102 1852.53,422.102 1852.53,581.024 1878.32,581.024 1878.32,884.421 
  1904.1,884.421 1904.1,725.499 1929.89,725.499 1929.89,768.841 1955.67,768.841 1955.67,1187.82 1981.45,1187.82 1981.45,1202.27 2007.24,1202.27 
  2033.02,1202.27 2033.02,1317.85 2058.81,1317.85 2058.81,1375.64 2084.59,1375.64 2084.59,1404.53 2110.38,1404.53 2110.38,1375.64 2136.16,1375.64 2136.16,1433.43 
  2161.95,1433.43 2161.95,1447.87 2187.73,1447.87 2187.73,1433.43 2213.52,1433.43 2213.52,1447.87 2239.3,1447.87 2265.09,1447.87 
  2290.87,1447.87 
  "/>
<polyline clip-path="url(#clip222)" style="stroke:#e26f46; stroke-width:4; stroke-opacity:1; fill:none" points="
  228.088,1447.87 230.667,1447.87 233.245,1447.87 235.824,1447.87 238.402,1447.87 240.981,1447.87 243.559,1447.87 246.138,1447.87 248.716,1447.87 251.295,1447.87 
  253.873,1447.87 256.451,1447.87 259.03,1447.87 261.608,1447.87 264.187,1447.87 266.765,1447.87 269.344,1447.87 271.922,1447.87 274.501,1447.87 277.079,1447.87 
  279.658,1447.87 282.236,1447.87 284.815,1447.87 287.393,1447.87 289.972,1447.87 292.55,1447.87 295.129,1447.87 297.707,1447.87 300.286,1447.87 302.864,1447.87 
  305.443,1447.87 308.021,1447.87 310.6,1447.87 313.178,1447.87 315.757,1447.87 318.335,1447.87 320.913,1447.87 323.492,1447.87 326.07,1447.87 328.649,1447.87 
  331.227,1447.87 333.806,1447.87 336.384,1447.87 338.963,1447.87 341.541,1447.87 344.12,1447.87 346.698,1447.87 349.277,1447.87 351.855,1447.87 354.434,1447.87 
  357.012,1447.87 359.591,1447.87 362.169,1447.87 364.748,1447.87 367.326,1447.87 369.905,1447.87 372.483,1447.87 375.062,1447.87 377.64,1447.87 380.219,1447.87 
  382.797,1447.87 385.375,1447.87 387.954,1447.87 390.532,1447.87 393.111,1447.86 395.689,1447.86 398.268,1447.86 400.846,1447.86 403.425,1447.86 406.003,1447.86 
  408.582,1447.86 411.16,1447.86 413.739,1447.86 416.317,1447.85 418.896,1447.85 421.474,1447.85 424.053,1447.85 426.631,1447.85 429.21,1447.84 431.788,1447.84 
  434.367,1447.84 436.945,1447.83 439.524,1447.83 442.102,1447.83 444.681,1447.82 447.259,1447.82 449.837,1447.81 452.416,1447.81 454.994,1447.8 457.573,1447.79 
  460.151,1447.79 462.73,1447.78 465.308,1447.77 467.887,1447.76 470.465,1447.75 473.044,1447.74 475.622,1447.73 478.201,1447.72 480.779,1447.71 483.358,1447.69 
  485.936,1447.68 488.515,1447.66 491.093,1447.65 493.672,1447.63 496.25,1447.61 498.829,1447.59 501.407,1447.56 503.986,1447.54 506.564,1447.51 509.143,1447.48 
  511.721,1447.45 514.299,1447.42 516.878,1447.38 519.456,1447.34 522.035,1447.3 524.613,1447.26 527.192,1447.21 529.77,1447.16 532.349,1447.11 534.927,1447.05 
  537.506,1446.99 540.084,1446.92 542.663,1446.85 545.241,1446.78 547.82,1446.7 550.398,1446.61 552.977,1446.52 555.555,1446.42 558.134,1446.32 560.712,1446.21 
  563.291,1446.09 565.869,1445.97 568.448,1445.84 571.026,1445.69 573.605,1445.54 576.183,1445.38 578.762,1445.22 581.34,1445.04 583.918,1444.84 586.497,1444.64 
  589.075,1444.43 591.654,1444.2 594.232,1443.96 596.811,1443.71 599.389,1443.44 601.968,1443.15 604.546,1442.85 607.125,1442.53 609.703,1442.2 612.282,1441.84 
  614.86,1441.47 617.439,1441.08 620.017,1440.66 622.596,1440.22 625.174,1439.76 627.753,1439.27 630.331,1438.76 632.91,1438.22 635.488,1437.66 638.067,1437.06 
  640.645,1436.44 643.224,1435.78 645.802,1435.09 648.38,1434.37 650.959,1433.61 653.537,1432.82 656.116,1431.99 658.694,1431.11 661.273,1430.2 663.851,1429.25 
  666.43,1428.25 669.008,1427.21 671.587,1426.12 674.165,1424.98 676.744,1423.79 679.322,1422.55 681.901,1421.26 684.479,1419.91 687.058,1418.5 689.636,1417.04 
  692.215,1415.52 694.793,1413.93 697.372,1412.29 699.95,1410.57 702.529,1408.8 705.107,1406.95 707.686,1405.03 710.264,1403.04 712.842,1400.98 715.421,1398.84 
  717.999,1396.62 720.578,1394.33 723.156,1391.95 725.735,1389.49 728.313,1386.95 730.892,1384.33 733.47,1381.62 736.049,1378.81 738.627,1375.92 741.206,1372.94 
  743.784,1369.87 746.363,1366.7 748.941,1363.44 751.52,1360.08 754.098,1356.63 756.677,1353.07 759.255,1349.42 761.834,1345.67 764.412,1341.82 766.991,1337.87 
  769.569,1333.81 772.148,1329.65 774.726,1325.39 777.304,1321.03 779.883,1316.56 782.461,1312 785.04,1307.32 787.618,1302.55 790.197,1297.68 792.775,1292.7 
  795.354,1287.62 797.932,1282.44 800.511,1277.17 803.089,1271.79 805.668,1266.32 808.246,1260.75 810.825,1255.09 813.403,1249.34 815.982,1243.5 818.56,1237.57 
  821.139,1231.55 823.717,1225.46 826.296,1219.28 828.874,1213.02 831.453,1206.69 834.031,1200.29 836.61,1193.82 839.188,1187.28 841.766,1180.69 844.345,1174.03 
  846.923,1167.32 849.502,1160.57 852.08,1153.76 854.659,1146.92 857.237,1140.04 859.816,1133.13 862.394,1126.19 864.973,1119.24 867.551,1112.26 870.13,1105.28 
  872.708,1098.29 875.287,1091.3 877.865,1084.31 880.444,1077.34 883.022,1070.38 885.601,1063.45 888.179,1056.54 890.758,1049.67 893.336,1042.85 895.915,1036.07 
  898.493,1029.34 901.072,1022.68 903.65,1016.08 906.228,1009.55 908.807,1003.11 911.385,996.745 913.964,990.476 916.542,984.306 919.121,978.24 921.699,972.285 
  924.278,966.447 926.856,960.733 929.435,955.148 932.013,949.698 934.592,944.389 937.17,939.227 939.749,934.218 942.327,929.367 944.906,924.679 947.484,920.16 
  950.063,915.815 952.641,911.649 955.22,907.666 957.798,903.872 960.377,900.269 962.955,896.864 965.534,893.658 968.112,890.658 970.69,887.865 973.269,885.283 
  975.847,882.915 978.426,880.764 981.004,878.832 983.583,877.123 986.161,875.637 988.74,874.376 991.318,873.343 993.897,872.538 996.475,871.963 999.054,871.617 
  1001.63,871.502 1004.21,871.617 1006.79,871.963 1009.37,872.538 1011.95,873.343 1014.52,874.376 1017.1,875.637 1019.68,877.123 1022.26,878.832 1024.84,880.764 
  1027.42,882.915 1030,885.283 1032.57,887.864 1035.15,890.658 1037.73,893.658 1040.31,896.864 1042.89,900.269 1045.47,903.871 1048.04,907.666 1050.62,911.649 
  1053.2,915.815 1055.78,920.16 1058.36,924.679 1060.94,929.367 1063.52,934.218 1066.09,939.227 1068.67,944.389 1071.25,949.697 1073.83,955.147 1076.41,960.732 
  1078.99,966.447 1081.57,972.284 1084.14,978.239 1086.72,984.305 1089.3,990.475 1091.88,996.744 1094.46,1003.1 1097.04,1009.55 1099.61,1016.08 1102.19,1022.67 
  1104.77,1029.34 1107.35,1036.07 1109.93,1042.84 1112.51,1049.67 1115.09,1056.54 1117.66,1063.44 1120.24,1070.38 1122.82,1077.33 1125.4,1084.31 1127.98,1091.29 
  1130.56,1098.28 1133.13,1105.27 1135.71,1112.26 1138.29,1119.23 1140.87,1126.19 1143.45,1133.12 1146.03,1140.03 1148.61,1146.91 1151.18,1153.75 1153.76,1160.56 
  1156.34,1167.31 1158.92,1174.02 1161.5,1180.67 1164.08,1187.27 1166.65,1193.8 1169.23,1200.27 1171.81,1206.67 1174.39,1213 1176.97,1219.25 1179.55,1225.43 
  1182.13,1231.53 1184.7,1237.54 1187.28,1243.46 1189.86,1249.3 1192.44,1255.05 1195.02,1260.71 1197.6,1266.27 1200.18,1271.74 1202.75,1277.11 1205.33,1282.38 
  1207.91,1287.55 1210.49,1292.62 1213.07,1297.59 1215.65,1302.46 1218.22,1307.22 1220.8,1311.88 1223.38,1316.44 1225.96,1320.9 1228.54,1325.25 1231.12,1329.5 
  1233.7,1333.64 1236.27,1337.68 1238.85,1341.62 1241.43,1345.45 1244.01,1349.19 1246.59,1352.82 1249.17,1356.35 1251.74,1359.78 1254.32,1363.11 1256.9,1366.35 
  1259.48,1369.48 1262.06,1372.52 1264.64,1375.47 1267.22,1378.32 1269.79,1381.08 1272.37,1383.75 1274.95,1386.33 1277.53,1388.82 1280.11,1391.23 1282.69,1393.54 
  1285.27,1395.78 1287.84,1397.93 1290.42,1399.99 1293,1401.98 1295.58,1403.89 1298.16,1405.72 1300.74,1407.47 1303.31,1409.15 1305.89,1410.76 1308.47,1412.29 
  1311.05,1413.75 1313.63,1415.14 1316.21,1416.46 1318.79,1417.72 1321.36,1418.91 1323.94,1420.03 1326.52,1421.09 1329.1,1422.08 1331.68,1423.01 1334.26,1423.88 
  1336.83,1424.69 1339.41,1425.44 1341.99,1426.13 1344.57,1426.76 1347.15,1427.33 1349.73,1427.84 1352.31,1428.3 1354.88,1428.69 1357.46,1429.04 1360.04,1429.32 
  1362.62,1429.55 1365.2,1429.72 1367.78,1429.83 1370.35,1429.89 1372.93,1429.89 1375.51,1429.83 1378.09,1429.72 1380.67,1429.54 1383.25,1429.31 1385.83,1429.02 
  1388.4,1428.66 1390.98,1428.25 1393.56,1427.77 1396.14,1427.23 1398.72,1426.63 1401.3,1425.95 1403.88,1425.21 1406.45,1424.41 1409.03,1423.53 1411.61,1422.58 
  1414.19,1421.56 1416.77,1420.46 1419.35,1419.28 1421.92,1418.03 1424.5,1416.69 1427.08,1415.27 1429.66,1413.77 1432.24,1412.18 1434.82,1410.49 1437.4,1408.72 
  1439.97,1406.84 1442.55,1404.88 1445.13,1402.81 1447.71,1400.63 1450.29,1398.35 1452.87,1395.96 1455.44,1393.46 1458.02,1390.85 1460.6,1388.11 1463.18,1385.26 
  1465.76,1382.28 1468.34,1379.17 1470.92,1375.94 1473.49,1372.57 1476.07,1369.06 1478.65,1365.41 1481.23,1361.62 1483.81,1357.68 1486.39,1353.59 1488.97,1349.35 
  1491.54,1344.95 1494.12,1340.39 1496.7,1335.67 1499.28,1330.78 1501.86,1325.72 1504.44,1320.5 1507.01,1315.09 1509.59,1309.51 1512.17,1303.75 1514.75,1297.8 
  1517.33,1291.67 1519.91,1285.35 1522.49,1278.84 1525.06,1272.14 1527.64,1265.24 1530.22,1258.15 1532.8,1250.85 1535.38,1243.36 1537.96,1235.66 1540.53,1227.76 
  1543.11,1219.66 1545.69,1211.35 1548.27,1202.84 1550.85,1194.12 1553.43,1185.19 1556.01,1176.06 1558.58,1166.73 1561.16,1157.18 1563.74,1147.43 1566.32,1137.48 
  1568.9,1127.33 1571.48,1116.98 1574.05,1106.43 1576.63,1095.68 1579.21,1084.74 1581.79,1073.61 1584.37,1062.29 1586.95,1050.79 1589.53,1039.11 1592.1,1027.25 
  1594.68,1015.22 1597.26,1003.03 1599.84,990.671 1602.42,978.16 1605,965.499 1607.58,952.695 1610.15,939.754 1612.73,926.684 1615.31,913.49 1617.89,900.182 
  1620.47,886.767 1623.05,873.253 1625.62,859.649 1628.2,845.964 1630.78,832.207 1633.36,818.386 1635.94,804.513 1638.52,790.597 1641.1,776.649 1643.67,762.679 
  1646.25,748.697 1648.83,734.716 1651.41,720.746 1653.99,706.798 1656.57,692.886 1659.14,679.019 1661.72,665.211 1664.3,651.474 1666.88,637.82 1669.46,624.261 
  1672.04,610.809 1674.62,597.479 1677.19,584.282 1679.77,571.23 1682.35,558.337 1684.93,545.616 1687.51,533.078 1690.09,520.738 1692.66,508.606 1695.24,496.697 
  1697.82,485.021 1700.4,473.592 1702.98,462.422 1705.56,451.522 1708.14,440.905 1710.71,430.581 1713.29,420.563 1715.87,410.861 1718.45,401.485 1721.03,392.448 
  1723.61,383.758 1726.19,375.425 1728.76,367.459 1731.34,359.87 1733.92,352.665 1736.5,345.854 1739.08,339.444 1741.66,333.442 1744.23,327.856 1746.81,322.692 
  1749.39,317.956 1751.97,313.655 1754.55,309.792 1757.13,306.372 1759.71,303.4 1762.28,300.88 1764.86,298.813 1767.44,297.204 1770.02,296.052 1772.6,295.361 
  1775.18,295.131 1777.75,295.361 1780.33,296.052 1782.91,297.204 1785.49,298.813 1788.07,300.88 1790.65,303.4 1793.23,306.372 1795.8,309.792 1798.38,313.655 
  1800.96,317.956 1803.54,322.692 1806.12,327.856 1808.7,333.442 1811.28,339.444 1813.85,345.854 1816.43,352.666 1819.01,359.87 1821.59,367.46 1824.17,375.425 
  1826.75,383.758 1829.32,392.448 1831.9,401.485 1834.48,410.861 1837.06,420.563 1839.64,430.581 1842.22,440.905 1844.8,451.522 1847.37,462.422 1849.95,473.593 
  1852.53,485.022 1855.11,496.697 1857.69,508.607 1860.27,520.738 1862.84,533.079 1865.42,545.616 1868,558.338 1870.58,571.231 1873.16,584.282 1875.74,597.48 
  1878.32,610.81 1880.89,624.261 1883.47,637.82 1886.05,651.475 1888.63,665.212 1891.21,679.021 1893.79,692.887 1896.36,706.8 1898.94,720.748 1901.52,734.718 
  1904.1,748.699 1906.68,762.681 1909.26,776.652 1911.84,790.6 1914.41,804.516 1916.99,818.39 1919.57,832.21 1922.15,845.968 1924.73,859.654 1927.31,873.259 
  1929.89,886.773 1932.46,900.189 1935.04,913.497 1937.62,926.691 1940.2,939.762 1942.78,952.704 1945.36,965.509 1947.93,978.171 1950.51,990.683 1953.09,1003.04 
  1955.67,1015.24 1958.25,1027.27 1960.83,1039.12 1963.41,1050.81 1965.98,1062.31 1968.56,1073.63 1971.14,1084.77 1973.72,1095.71 1976.3,1106.46 1978.88,1117.01 
  1981.45,1127.37 1984.03,1137.52 1986.61,1147.48 1989.19,1157.23 1991.77,1166.78 1994.35,1176.12 1996.93,1185.26 1999.5,1194.19 2002.08,1202.91 2004.66,1211.43 
  2007.24,1219.75 2009.82,1227.86 2012.4,1235.76 2014.97,1243.47 2017.55,1250.97 2020.13,1258.28 2022.71,1265.38 2025.29,1272.29 2027.87,1279.01 2030.45,1285.53 
  2033.02,1291.87 2035.6,1298.01 2038.18,1303.98 2040.76,1309.76 2043.34,1315.36 2045.92,1320.78 2048.5,1326.03 2051.07,1331.12 2053.65,1336.03 2056.23,1340.78 
  2058.81,1345.37 2061.39,1349.8 2063.97,1354.08 2066.54,1358.21 2069.12,1362.19 2071.7,1366.02 2074.28,1369.72 2076.86,1373.28 2079.44,1376.7 2082.02,1380 
  2084.59,1383.16 2087.17,1386.21 2089.75,1389.13 2092.33,1391.94 2094.91,1394.64 2097.49,1397.23 2100.06,1399.7 2102.64,1402.08 2105.22,1404.36 2107.8,1406.54 
  2110.38,1408.63 2112.96,1410.62 2115.54,1412.53 2118.11,1414.35 2120.69,1416.1 2123.27,1417.76 2125.85,1419.35 2128.43,1420.87 2131.01,1422.31 2133.59,1423.69 
  2136.16,1425 2138.74,1426.25 2141.32,1427.44 2143.9,1428.57 2146.48,1429.65 2149.06,1430.67 2151.63,1431.65 2154.21,1432.57 2156.79,1433.45 2159.37,1434.28 
  2161.95,1435.07 2164.53,1435.82 2167.11,1436.52 2169.68,1437.2 2172.26,1437.83 2174.84,1438.43 2177.42,1439 2180,1439.54 2182.58,1440.05 2185.15,1440.53 
  2187.73,1440.98 2190.31,1441.41 2192.89,1441.82 2195.47,1442.2 2198.05,1442.56 2200.63,1442.9 2203.2,1443.21 2205.78,1443.51 2208.36,1443.8 2210.94,1444.06 
  2213.52,1444.31 2216.1,1444.55 2218.67,1444.77 2221.25,1444.97 2223.83,1445.17 2226.41,1445.35 2228.99,1445.52 2231.57,1445.68 2234.15,1445.83 2236.72,1445.97 
  2239.3,1446.1 2241.88,1446.23 2244.46,1446.34 2247.04,1446.45 2249.62,1446.55 2252.2,1446.65 2254.77,1446.73 2257.35,1446.82 2259.93,1446.89 2262.51,1446.96 
  2265.09,1447.03 2267.67,1447.09 2270.24,1447.15 2272.82,1447.2 2275.4,1447.25 2277.98,1447.3 2280.56,1447.34 2283.14,1447.38 2285.72,1447.42 2288.29,1447.45 
  2290.87,1447.49 
  "/>
<path clip-path="url(#clip220)" d="
M1925.95 350.345 L2279.87 350.345 L2279.87 168.905 L1925.95 168.905  Z
  " fill="#ffffff" fill-rule="evenodd" fill-opacity="1"/>
<polyline clip-path="url(#clip220)" style="stroke:#000000; stroke-width:4; stroke-opacity:1; fill:none" points="
  1925.95,350.345 2279.87,350.345 2279.87,168.905 1925.95,168.905 1925.95,350.345 
  "/>
<polyline clip-path="url(#clip220)" style="stroke:#009af9; stroke-width:4; stroke-opacity:1; fill:none" points="
  1950.24,229.385 2096.01,229.385 
  "/>
<path clip-path="url(#clip220)" d="M 0 0 M2124.99 215.947 L2124.99 242.822 L2130.63 242.822 Q2137.79 242.822 2141.1 239.581 Q2144.43 236.341 2144.43 229.35 Q2144.43 222.406 2141.1 219.188 Q2137.79 215.947 2130.63 215.947 L2124.99 215.947 M2120.31 212.105 L2129.92 212.105 Q2139.96 212.105 2144.66 216.294 Q2149.36 220.461 2149.36 229.35 Q2149.36 238.285 2144.64 242.475 Q2139.92 246.665 2129.92 246.665 L2120.31 246.665 L2120.31 212.105 Z" fill="#000000" fill-rule="evenodd" fill-opacity="1" /><path clip-path="url(#clip220)" d="M 0 0 M2165.61 233.632 Q2160.45 233.632 2158.46 234.813 Q2156.47 235.993 2156.47 238.841 Q2156.47 241.109 2157.95 242.452 Q2159.45 243.771 2162.02 243.771 Q2165.56 243.771 2167.69 241.271 Q2169.85 238.748 2169.85 234.581 L2169.85 233.632 L2165.61 233.632 M2174.11 231.873 L2174.11 246.665 L2169.85 246.665 L2169.85 242.729 Q2168.39 245.091 2166.21 246.225 Q2164.04 247.336 2160.89 247.336 Q2156.91 247.336 2154.55 245.114 Q2152.21 242.868 2152.21 239.118 Q2152.21 234.743 2155.12 232.521 Q2158.06 230.299 2163.87 230.299 L2169.85 230.299 L2169.85 229.882 Q2169.85 226.943 2167.9 225.345 Q2165.98 223.725 2162.48 223.725 Q2160.26 223.725 2158.16 224.257 Q2156.05 224.79 2154.11 225.855 L2154.11 221.919 Q2156.44 221.017 2158.64 220.577 Q2160.84 220.114 2162.92 220.114 Q2168.55 220.114 2171.33 223.031 Q2174.11 225.947 2174.11 231.873 Z" fill="#000000" fill-rule="evenodd" fill-opacity="1" /><path clip-path="url(#clip220)" d="M 0 0 M2182.79 213.378 L2182.79 220.739 L2191.56 220.739 L2191.56 224.049 L2182.79 224.049 L2182.79 238.123 Q2182.79 241.294 2183.64 242.197 Q2184.52 243.1 2187.18 243.1 L2191.56 243.1 L2191.56 246.665 L2187.18 246.665 Q2182.25 246.665 2180.38 244.836 Q2178.5 242.984 2178.5 238.123 L2178.5 224.049 L2175.38 224.049 L2175.38 220.739 L2178.5 220.739 L2178.5 213.378 L2182.79 213.378 Z" fill="#000000" fill-rule="evenodd" fill-opacity="1" /><path clip-path="url(#clip220)" d="M 0 0 M2207.81 233.632 Q2202.65 233.632 2200.66 234.813 Q2198.67 235.993 2198.67 238.841 Q2198.67 241.109 2200.15 242.452 Q2201.65 243.771 2204.22 243.771 Q2207.76 243.771 2209.89 241.271 Q2212.04 238.748 2212.04 234.581 L2212.04 233.632 L2207.81 233.632 M2216.3 231.873 L2216.3 246.665 L2212.04 246.665 L2212.04 242.729 Q2210.59 245.091 2208.41 246.225 Q2206.23 247.336 2203.09 247.336 Q2199.11 247.336 2196.74 245.114 Q2194.41 242.868 2194.41 239.118 Q2194.41 234.743 2197.32 232.521 Q2200.26 230.299 2206.07 230.299 L2212.04 230.299 L2212.04 229.882 Q2212.04 226.943 2210.1 225.345 Q2208.18 223.725 2204.68 223.725 Q2202.46 223.725 2200.36 224.257 Q2198.25 224.79 2196.3 225.855 L2196.3 221.919 Q2198.64 221.017 2200.84 220.577 Q2203.04 220.114 2205.12 220.114 Q2210.75 220.114 2213.53 223.031 Q2216.3 225.947 2216.3 231.873 Z" fill="#000000" fill-rule="evenodd" fill-opacity="1" /><polyline clip-path="url(#clip220)" style="stroke:#e26f46; stroke-width:4; stroke-opacity:1; fill:none" points="
  1950.24,289.865 2096.01,289.865 
  "/>
<path clip-path="url(#clip220)" d="M 0 0 M2120.31 272.585 L2149.55 272.585 L2149.55 276.52 L2137.28 276.52 L2137.28 307.145 L2132.58 307.145 L2132.58 276.52 L2120.31 276.52 L2120.31 272.585 Z" fill="#000000" fill-rule="evenodd" fill-opacity="1" /><path clip-path="url(#clip220)" d="M 0 0 M2162.07 285.2 Q2161.35 284.784 2160.49 284.598 Q2159.66 284.39 2158.64 284.39 Q2155.03 284.39 2153.09 286.751 Q2151.17 289.089 2151.17 293.487 L2151.17 307.145 L2146.88 307.145 L2146.88 281.219 L2151.17 281.219 L2151.17 285.247 Q2152.51 282.886 2154.66 281.751 Q2156.81 280.594 2159.89 280.594 Q2160.33 280.594 2160.86 280.663 Q2161.4 280.71 2162.05 280.825 L2162.07 285.2 Z" fill="#000000" fill-rule="evenodd" fill-opacity="1" /><path clip-path="url(#clip220)" d="M 0 0 M2166.1 296.913 L2166.1 281.219 L2170.36 281.219 L2170.36 296.751 Q2170.36 300.432 2171.79 302.284 Q2173.23 304.112 2176.1 304.112 Q2179.55 304.112 2181.54 301.913 Q2183.55 299.714 2183.55 295.918 L2183.55 281.219 L2187.81 281.219 L2187.81 307.145 L2183.55 307.145 L2183.55 303.163 Q2182 305.524 2179.94 306.682 Q2177.9 307.816 2175.19 307.816 Q2170.73 307.816 2168.41 305.038 Q2166.1 302.26 2166.1 296.913 M2176.81 280.594 L2176.81 280.594 Z" fill="#000000" fill-rule="evenodd" fill-opacity="1" /><path clip-path="url(#clip220)" d="M 0 0 M2196.49 273.858 L2196.49 281.219 L2205.26 281.219 L2205.26 284.529 L2196.49 284.529 L2196.49 298.603 Q2196.49 301.774 2197.35 302.677 Q2198.23 303.58 2200.89 303.58 L2205.26 303.58 L2205.26 307.145 L2200.89 307.145 Q2195.96 307.145 2194.08 305.316 Q2192.21 303.464 2192.21 298.603 L2192.21 284.529 L2189.08 284.529 L2189.08 281.219 L2192.21 281.219 L2192.21 273.858 L2196.49 273.858 Z" fill="#000000" fill-rule="evenodd" fill-opacity="1" /><path clip-path="url(#clip220)" d="M 0 0 M2231.28 291.497 L2231.28 307.145 L2227.02 307.145 L2227.02 291.635 Q2227.02 287.955 2225.59 286.126 Q2224.15 284.298 2221.28 284.298 Q2217.83 284.298 2215.84 286.497 Q2213.85 288.696 2213.85 292.492 L2213.85 307.145 L2209.57 307.145 L2209.57 271.126 L2213.85 271.126 L2213.85 285.247 Q2215.38 282.909 2217.44 281.751 Q2219.52 280.594 2222.23 280.594 Q2226.7 280.594 2228.99 283.372 Q2231.28 286.126 2231.28 291.497 Z" fill="#000000" fill-rule="evenodd" fill-opacity="1" /></svg>
