<?xml version="1.0" encoding="utf-8"?>
<svg xmlns="http://www.w3.org/2000/svg" xmlns:xlink="http://www.w3.org/1999/xlink" width="600" height="400" viewBox="0 0 2400 1600">
<defs>
  <clipPath id="clip880">
    <rect x="0" y="0" width="2400" height="1600"/>
  </clipPath>
</defs>
<path clip-path="url(#clip880)" d="M0 1600 L2400 1600 L2400 0 L0 0  Z" fill="#ffffff" fill-rule="evenodd" fill-opacity="1"/>
<defs>
  <clipPath id="clip881">
    <rect x="480" y="0" width="1681" height="1600"/>
  </clipPath>
</defs>
<path clip-path="url(#clip880)" d="M172.015 1486.45 L2352.76 1486.45 L2352.76 123.472 L172.015 123.472  Z" fill="#ffffff" fill-rule="evenodd" fill-opacity="1"/>
<defs>
  <clipPath id="clip882">
    <rect x="172" y="123" width="2182" height="1364"/>
  </clipPath>
</defs>
<polyline clip-path="url(#clip882)" style="stroke:#000000; stroke-linecap:round; stroke-linejoin:round; stroke-width:2; stroke-opacity:0.1; fill:none" points="233.734,1486.45 233.734,123.472 "/>
<polyline clip-path="url(#clip882)" style="stroke:#000000; stroke-linecap:round; stroke-linejoin:round; stroke-width:2; stroke-opacity:0.1; fill:none" points="576.618,1486.45 576.618,123.472 "/>
<polyline clip-path="url(#clip882)" style="stroke:#000000; stroke-linecap:round; stroke-linejoin:round; stroke-width:2; stroke-opacity:0.1; fill:none" points="919.502,1486.45 919.502,123.472 "/>
<polyline clip-path="url(#clip882)" style="stroke:#000000; stroke-linecap:round; stroke-linejoin:round; stroke-width:2; stroke-opacity:0.1; fill:none" points="1262.39,1486.45 1262.39,123.472 "/>
<polyline clip-path="url(#clip882)" style="stroke:#000000; stroke-linecap:round; stroke-linejoin:round; stroke-width:2; stroke-opacity:0.1; fill:none" points="1605.27,1486.45 1605.27,123.472 "/>
<polyline clip-path="url(#clip882)" style="stroke:#000000; stroke-linecap:round; stroke-linejoin:round; stroke-width:2; stroke-opacity:0.1; fill:none" points="1948.15,1486.45 1948.15,123.472 "/>
<polyline clip-path="url(#clip882)" style="stroke:#000000; stroke-linecap:round; stroke-linejoin:round; stroke-width:2; stroke-opacity:0.1; fill:none" points="2291.04,1486.45 2291.04,123.472 "/>
<polyline clip-path="url(#clip882)" style="stroke:#000000; stroke-linecap:round; stroke-linejoin:round; stroke-width:2; stroke-opacity:0.1; fill:none" points="172.015,1447.87 2352.76,1447.87 "/>
<polyline clip-path="url(#clip882)" style="stroke:#000000; stroke-linecap:round; stroke-linejoin:round; stroke-width:2; stroke-opacity:0.1; fill:none" points="172.015,1177.17 2352.76,1177.17 "/>
<polyline clip-path="url(#clip882)" style="stroke:#000000; stroke-linecap:round; stroke-linejoin:round; stroke-width:2; stroke-opacity:0.1; fill:none" points="172.015,906.473 2352.76,906.473 "/>
<polyline clip-path="url(#clip882)" style="stroke:#000000; stroke-linecap:round; stroke-linejoin:round; stroke-width:2; stroke-opacity:0.1; fill:none" points="172.015,635.772 2352.76,635.772 "/>
<polyline clip-path="url(#clip882)" style="stroke:#000000; stroke-linecap:round; stroke-linejoin:round; stroke-width:2; stroke-opacity:0.1; fill:none" points="172.015,365.072 2352.76,365.072 "/>
<polyline clip-path="url(#clip880)" style="stroke:#000000; stroke-linecap:round; stroke-linejoin:round; stroke-width:4; stroke-opacity:1; fill:none" points="172.015,1486.45 2352.76,1486.45 "/>
<polyline clip-path="url(#clip880)" style="stroke:#000000; stroke-linecap:round; stroke-linejoin:round; stroke-width:4; stroke-opacity:1; fill:none" points="233.734,1486.45 233.734,1467.55 "/>
<polyline clip-path="url(#clip880)" style="stroke:#000000; stroke-linecap:round; stroke-linejoin:round; stroke-width:4; stroke-opacity:1; fill:none" points="576.618,1486.45 576.618,1467.55 "/>
<polyline clip-path="url(#clip880)" style="stroke:#000000; stroke-linecap:round; stroke-linejoin:round; stroke-width:4; stroke-opacity:1; fill:none" points="919.502,1486.45 919.502,1467.55 "/>
<polyline clip-path="url(#clip880)" style="stroke:#000000; stroke-linecap:round; stroke-linejoin:round; stroke-width:4; stroke-opacity:1; fill:none" points="1262.39,1486.45 1262.39,1467.55 "/>
<polyline clip-path="url(#clip880)" style="stroke:#000000; stroke-linecap:round; stroke-linejoin:round; stroke-width:4; stroke-opacity:1; fill:none" points="1605.27,1486.45 1605.27,1467.55 "/>
<polyline clip-path="url(#clip880)" style="stroke:#000000; stroke-linecap:round; stroke-linejoin:round; stroke-width:4; stroke-opacity:1; fill:none" points="1948.15,1486.45 1948.15,1467.55 "/>
<polyline clip-path="url(#clip880)" style="stroke:#000000; stroke-linecap:round; stroke-linejoin:round; stroke-width:4; stroke-opacity:1; fill:none" points="2291.04,1486.45 2291.04,1467.55 "/>
<path clip-path="url(#clip880)" d="M203.676 1532.02 L233.352 1532.02 L233.352 1535.95 L203.676 1535.95 L203.676 1532.02 Z" fill="#000000" fill-rule="nonzero" fill-opacity="1" /><path clip-path="url(#clip880)" d="M247.472 1544.91 L263.792 1544.91 L263.792 1548.85 L241.847 1548.85 L241.847 1544.91 Q244.509 1542.16 249.093 1537.53 Q253.699 1532.88 254.88 1531.53 Q257.125 1529.01 258.005 1527.27 Q258.907 1525.51 258.907 1523.82 Q258.907 1521.07 256.963 1519.33 Q255.042 1517.6 251.94 1517.6 Q249.741 1517.6 247.287 1518.36 Q244.857 1519.13 242.079 1520.68 L242.079 1515.95 Q244.903 1514.82 247.357 1514.24 Q249.81 1513.66 251.847 1513.66 Q257.218 1513.66 260.412 1516.35 Q263.606 1519.03 263.606 1523.52 Q263.606 1525.65 262.796 1527.57 Q262.009 1529.47 259.903 1532.07 Q259.324 1532.74 256.222 1535.95 Q253.12 1539.15 247.472 1544.91 Z" fill="#000000" fill-rule="nonzero" fill-opacity="1" /><path clip-path="url(#clip880)" d="M546.375 1532.02 L576.051 1532.02 L576.051 1535.95 L546.375 1535.95 L546.375 1532.02 Z" fill="#000000" fill-rule="nonzero" fill-opacity="1" /><path clip-path="url(#clip880)" d="M586.953 1544.91 L594.592 1544.91 L594.592 1518.55 L586.282 1520.21 L586.282 1515.95 L594.546 1514.29 L599.222 1514.29 L599.222 1544.91 L606.861 1544.91 L606.861 1548.85 L586.953 1548.85 L586.953 1544.91 Z" fill="#000000" fill-rule="nonzero" fill-opacity="1" /><path clip-path="url(#clip880)" d="M919.502 1517.37 Q915.89 1517.37 914.062 1520.93 Q912.256 1524.47 912.256 1531.6 Q912.256 1538.71 914.062 1542.27 Q915.89 1545.82 919.502 1545.82 Q923.136 1545.82 924.941 1542.27 Q926.77 1538.71 926.77 1531.6 Q926.77 1524.47 924.941 1520.93 Q923.136 1517.37 919.502 1517.37 M919.502 1513.66 Q925.312 1513.66 928.367 1518.27 Q931.446 1522.85 931.446 1531.6 Q931.446 1540.33 928.367 1544.94 Q925.312 1549.52 919.502 1549.52 Q913.691 1549.52 910.613 1544.94 Q907.557 1540.33 907.557 1531.6 Q907.557 1522.85 910.613 1518.27 Q913.691 1513.66 919.502 1513.66 Z" fill="#000000" fill-rule="nonzero" fill-opacity="1" /><path clip-path="url(#clip880)" d="M1252.77 1544.91 L1260.41 1544.91 L1260.41 1518.55 L1252.1 1520.21 L1252.1 1515.95 L1260.36 1514.29 L1265.04 1514.29 L1265.04 1544.91 L1272.67 1544.91 L1272.67 1548.85 L1252.77 1548.85 L1252.77 1544.91 Z" fill="#000000" fill-rule="nonzero" fill-opacity="1" /><path clip-path="url(#clip880)" d="M1599.92 1544.91 L1616.24 1544.91 L1616.24 1548.85 L1594.3 1548.85 L1594.3 1544.91 Q1596.96 1542.16 1601.54 1537.53 Q1606.15 1532.88 1607.33 1531.53 Q1609.57 1529.01 1610.45 1527.27 Q1611.36 1525.51 1611.36 1523.82 Q1611.36 1521.07 1609.41 1519.33 Q1607.49 1517.6 1604.39 1517.6 Q1602.19 1517.6 1599.74 1518.36 Q1597.31 1519.13 1594.53 1520.68 L1594.53 1515.95 Q1597.35 1514.82 1599.81 1514.24 Q1602.26 1513.66 1604.3 1513.66 Q1609.67 1513.66 1612.86 1516.35 Q1616.06 1519.03 1616.06 1523.52 Q1616.06 1525.65 1615.25 1527.57 Q1614.46 1529.47 1612.35 1532.07 Q1611.77 1532.74 1608.67 1535.95 Q1605.57 1539.15 1599.92 1544.91 Z" fill="#000000" fill-rule="nonzero" fill-opacity="1" /><path clip-path="url(#clip880)" d="M1952.4 1530.21 Q1955.76 1530.93 1957.63 1533.2 Q1959.53 1535.47 1959.53 1538.8 Q1959.53 1543.92 1956.01 1546.72 Q1952.49 1549.52 1946.01 1549.52 Q1943.84 1549.52 1941.52 1549.08 Q1939.23 1548.66 1936.78 1547.81 L1936.78 1543.29 Q1938.72 1544.43 1941.03 1545.01 Q1943.35 1545.58 1945.87 1545.58 Q1950.27 1545.58 1952.56 1543.85 Q1954.88 1542.11 1954.88 1538.8 Q1954.88 1535.75 1952.72 1534.03 Q1950.6 1532.3 1946.78 1532.3 L1942.75 1532.3 L1942.75 1528.45 L1946.96 1528.45 Q1950.41 1528.45 1952.24 1527.09 Q1954.07 1525.7 1954.07 1523.11 Q1954.07 1520.45 1952.17 1519.03 Q1950.29 1517.6 1946.78 1517.6 Q1944.85 1517.6 1942.66 1518.01 Q1940.46 1518.43 1937.82 1519.31 L1937.82 1515.14 Q1940.48 1514.4 1942.79 1514.03 Q1945.13 1513.66 1947.19 1513.66 Q1952.52 1513.66 1955.62 1516.09 Q1958.72 1518.5 1958.72 1522.62 Q1958.72 1525.49 1957.08 1527.48 Q1955.43 1529.45 1952.4 1530.21 Z" fill="#000000" fill-rule="nonzero" fill-opacity="1" /><path clip-path="url(#clip880)" d="M2294.05 1518.36 L2282.24 1536.81 L2294.05 1536.81 L2294.05 1518.36 M2292.82 1514.29 L2298.7 1514.29 L2298.7 1536.81 L2303.63 1536.81 L2303.63 1540.7 L2298.7 1540.7 L2298.7 1548.85 L2294.05 1548.85 L2294.05 1540.7 L2278.44 1540.7 L2278.44 1536.19 L2292.82 1514.29 Z" fill="#000000" fill-rule="nonzero" fill-opacity="1" /><polyline clip-path="url(#clip880)" style="stroke:#000000; stroke-linecap:round; stroke-linejoin:round; stroke-width:4; stroke-opacity:1; fill:none" points="172.015,1486.45 172.015,123.472 "/>
<polyline clip-path="url(#clip880)" style="stroke:#000000; stroke-linecap:round; stroke-linejoin:round; stroke-width:4; stroke-opacity:1; fill:none" points="172.015,1447.87 190.912,1447.87 "/>
<polyline clip-path="url(#clip880)" style="stroke:#000000; stroke-linecap:round; stroke-linejoin:round; stroke-width:4; stroke-opacity:1; fill:none" points="172.015,1177.17 190.912,1177.17 "/>
<polyline clip-path="url(#clip880)" style="stroke:#000000; stroke-linecap:round; stroke-linejoin:round; stroke-width:4; stroke-opacity:1; fill:none" points="172.015,906.473 190.912,906.473 "/>
<polyline clip-path="url(#clip880)" style="stroke:#000000; stroke-linecap:round; stroke-linejoin:round; stroke-width:4; stroke-opacity:1; fill:none" points="172.015,635.772 190.912,635.772 "/>
<polyline clip-path="url(#clip880)" style="stroke:#000000; stroke-linecap:round; stroke-linejoin:round; stroke-width:4; stroke-opacity:1; fill:none" points="172.015,365.072 190.912,365.072 "/>
<path clip-path="url(#clip880)" d="M124.07 1433.67 Q120.459 1433.67 118.631 1437.24 Q116.825 1440.78 116.825 1447.91 Q116.825 1455.01 118.631 1458.58 Q120.459 1462.12 124.07 1462.12 Q127.705 1462.12 129.51 1458.58 Q131.339 1455.01 131.339 1447.91 Q131.339 1440.78 129.51 1437.24 Q127.705 1433.67 124.07 1433.67 M124.07 1429.97 Q129.881 1429.97 132.936 1434.57 Q136.015 1439.16 136.015 1447.91 Q136.015 1456.63 132.936 1461.24 Q129.881 1465.82 124.07 1465.82 Q118.26 1465.82 115.182 1461.24 Q112.126 1456.63 112.126 1447.91 Q112.126 1439.16 115.182 1434.57 Q118.26 1429.97 124.07 1429.97 Z" fill="#000000" fill-rule="nonzero" fill-opacity="1" /><path clip-path="url(#clip880)" d="M57.7745 1190.52 L74.0939 1190.52 L74.0939 1194.45 L52.1495 1194.45 L52.1495 1190.52 Q54.8115 1187.76 59.3949 1183.13 Q64.0013 1178.48 65.1819 1177.14 Q67.4272 1174.61 68.3068 1172.88 Q69.2096 1171.12 69.2096 1169.43 Q69.2096 1166.68 67.2652 1164.94 Q65.3439 1163.2 62.2421 1163.2 Q60.043 1163.2 57.5893 1163.97 Q55.1588 1164.73 52.381 1166.28 L52.381 1161.56 Q55.2051 1160.43 57.6588 1159.85 Q60.1124 1159.27 62.1495 1159.27 Q67.5198 1159.27 70.7142 1161.95 Q73.9087 1164.64 73.9087 1169.13 Q73.9087 1171.26 73.0985 1173.18 Q72.3115 1175.08 70.205 1177.67 Q69.6263 1178.34 66.5245 1181.56 Q63.4226 1184.75 57.7745 1190.52 Z" fill="#000000" fill-rule="nonzero" fill-opacity="1" /><path clip-path="url(#clip880)" d="M93.9086 1162.97 Q90.2975 1162.97 88.4688 1166.54 Q86.6632 1170.08 86.6632 1177.21 Q86.6632 1184.31 88.4688 1187.88 Q90.2975 1191.42 93.9086 1191.42 Q97.5428 1191.42 99.3483 1187.88 Q101.177 1184.31 101.177 1177.21 Q101.177 1170.08 99.3483 1166.54 Q97.5428 1162.97 93.9086 1162.97 M93.9086 1159.27 Q99.7187 1159.27 102.774 1163.87 Q105.853 1168.46 105.853 1177.21 Q105.853 1185.93 102.774 1190.54 Q99.7187 1195.12 93.9086 1195.12 Q88.0984 1195.12 85.0197 1190.54 Q81.9642 1185.93 81.9642 1177.21 Q81.9642 1168.46 85.0197 1163.87 Q88.0984 1159.27 93.9086 1159.27 Z" fill="#000000" fill-rule="nonzero" fill-opacity="1" /><path clip-path="url(#clip880)" d="M124.07 1162.97 Q120.459 1162.97 118.631 1166.54 Q116.825 1170.08 116.825 1177.21 Q116.825 1184.31 118.631 1187.88 Q120.459 1191.42 124.07 1191.42 Q127.705 1191.42 129.51 1187.88 Q131.339 1184.31 131.339 1177.21 Q131.339 1170.08 129.51 1166.54 Q127.705 1162.97 124.07 1162.97 M124.07 1159.27 Q129.881 1159.27 132.936 1163.87 Q136.015 1168.46 136.015 1177.21 Q136.015 1185.93 132.936 1190.54 Q129.881 1195.12 124.07 1195.12 Q118.26 1195.12 115.182 1190.54 Q112.126 1185.93 112.126 1177.21 Q112.126 1168.46 115.182 1163.87 Q118.26 1159.27 124.07 1159.27 Z" fill="#000000" fill-rule="nonzero" fill-opacity="1" /><path clip-path="url(#clip880)" d="M66.5939 893.267 L54.7884 911.716 L66.5939 911.716 L66.5939 893.267 M65.367 889.193 L71.2466 889.193 L71.2466 911.716 L76.1772 911.716 L76.1772 915.604 L71.2466 915.604 L71.2466 923.753 L66.5939 923.753 L66.5939 915.604 L50.9921 915.604 L50.9921 911.091 L65.367 889.193 Z" fill="#000000" fill-rule="nonzero" fill-opacity="1" /><path clip-path="url(#clip880)" d="M93.9086 892.271 Q90.2975 892.271 88.4688 895.836 Q86.6632 899.378 86.6632 906.507 Q86.6632 913.614 88.4688 917.179 Q90.2975 920.72 93.9086 920.72 Q97.5428 920.72 99.3483 917.179 Q101.177 913.614 101.177 906.507 Q101.177 899.378 99.3483 895.836 Q97.5428 892.271 93.9086 892.271 M93.9086 888.568 Q99.7187 888.568 102.774 893.174 Q105.853 897.757 105.853 906.507 Q105.853 915.234 102.774 919.841 Q99.7187 924.424 93.9086 924.424 Q88.0984 924.424 85.0197 919.841 Q81.9642 915.234 81.9642 906.507 Q81.9642 897.757 85.0197 893.174 Q88.0984 888.568 93.9086 888.568 Z" fill="#000000" fill-rule="nonzero" fill-opacity="1" /><path clip-path="url(#clip880)" d="M124.07 892.271 Q120.459 892.271 118.631 895.836 Q116.825 899.378 116.825 906.507 Q116.825 913.614 118.631 917.179 Q120.459 920.72 124.07 920.72 Q127.705 920.72 129.51 917.179 Q131.339 913.614 131.339 906.507 Q131.339 899.378 129.51 895.836 Q127.705 892.271 124.07 892.271 M124.07 888.568 Q129.881 888.568 132.936 893.174 Q136.015 897.757 136.015 906.507 Q136.015 915.234 132.936 919.841 Q129.881 924.424 124.07 924.424 Q118.26 924.424 115.182 919.841 Q112.126 915.234 112.126 906.507 Q112.126 897.757 115.182 893.174 Q118.26 888.568 124.07 888.568 Z" fill="#000000" fill-rule="nonzero" fill-opacity="1" /><path clip-path="url(#clip880)" d="M64.3254 633.909 Q61.1773 633.909 59.3254 636.062 Q57.4967 638.214 57.4967 641.964 Q57.4967 645.691 59.3254 647.867 Q61.1773 650.02 64.3254 650.02 Q67.4735 650.02 69.3022 647.867 Q71.1541 645.691 71.1541 641.964 Q71.1541 638.214 69.3022 636.062 Q67.4735 633.909 64.3254 633.909 M73.6077 619.256 L73.6077 623.515 Q71.8485 622.682 70.0429 622.242 Q68.2606 621.803 66.5013 621.803 Q61.8717 621.803 59.418 624.927 Q56.9875 628.052 56.6402 634.372 Q58.006 632.358 60.0662 631.293 Q62.1263 630.205 64.6032 630.205 Q69.8115 630.205 72.8207 633.377 Q75.8531 636.525 75.8531 641.964 Q75.8531 647.288 72.705 650.506 Q69.5568 653.724 64.3254 653.724 Q58.33 653.724 55.1588 649.14 Q51.9875 644.534 51.9875 635.807 Q51.9875 627.613 55.8764 622.752 Q59.7652 617.867 66.3161 617.867 Q68.0754 617.867 69.8578 618.215 Q71.6633 618.562 73.6077 619.256 Z" fill="#000000" fill-rule="nonzero" fill-opacity="1" /><path clip-path="url(#clip880)" d="M93.9086 621.571 Q90.2975 621.571 88.4688 625.136 Q86.6632 628.677 86.6632 635.807 Q86.6632 642.914 88.4688 646.478 Q90.2975 650.02 93.9086 650.02 Q97.5428 650.02 99.3483 646.478 Q101.177 642.914 101.177 635.807 Q101.177 628.677 99.3483 625.136 Q97.5428 621.571 93.9086 621.571 M93.9086 617.867 Q99.7187 617.867 102.774 622.474 Q105.853 627.057 105.853 635.807 Q105.853 644.534 102.774 649.14 Q99.7187 653.724 93.9086 653.724 Q88.0984 653.724 85.0197 649.14 Q81.9642 644.534 81.9642 635.807 Q81.9642 627.057 85.0197 622.474 Q88.0984 617.867 93.9086 617.867 Z" fill="#000000" fill-rule="nonzero" fill-opacity="1" /><path clip-path="url(#clip880)" d="M124.07 621.571 Q120.459 621.571 118.631 625.136 Q116.825 628.677 116.825 635.807 Q116.825 642.914 118.631 646.478 Q120.459 650.02 124.07 650.02 Q127.705 650.02 129.51 646.478 Q131.339 642.914 131.339 635.807 Q131.339 628.677 129.51 625.136 Q127.705 621.571 124.07 621.571 M124.07 617.867 Q129.881 617.867 132.936 622.474 Q136.015 627.057 136.015 635.807 Q136.015 644.534 132.936 649.14 Q129.881 653.724 124.07 653.724 Q118.26 653.724 115.182 649.14 Q112.126 644.534 112.126 635.807 Q112.126 627.057 115.182 622.474 Q118.26 617.867 124.07 617.867 Z" fill="#000000" fill-rule="nonzero" fill-opacity="1" /><path clip-path="url(#clip880)" d="M63.7467 365.94 Q60.4134 365.94 58.4921 367.723 Q56.5939 369.505 56.5939 372.63 Q56.5939 375.755 58.4921 377.537 Q60.4134 379.32 63.7467 379.32 Q67.08 379.32 69.0013 377.537 Q70.9226 375.732 70.9226 372.63 Q70.9226 369.505 69.0013 367.723 Q67.1032 365.94 63.7467 365.94 M59.0708 363.949 Q56.0615 363.209 54.3717 361.149 Q52.7051 359.088 52.7051 356.125 Q52.7051 351.982 55.6449 349.574 Q58.6078 347.167 63.7467 347.167 Q68.9087 347.167 71.8485 349.574 Q74.7883 351.982 74.7883 356.125 Q74.7883 359.088 73.0985 361.149 Q71.4318 363.209 68.4457 363.949 Q71.8253 364.736 73.7003 367.028 Q75.5985 369.32 75.5985 372.63 Q75.5985 377.653 72.5198 380.338 Q69.4642 383.023 63.7467 383.023 Q58.0291 383.023 54.9504 380.338 Q51.8949 377.653 51.8949 372.63 Q51.8949 369.32 53.793 367.028 Q55.6912 364.736 59.0708 363.949 M57.3578 356.565 Q57.3578 359.25 59.0245 360.755 Q60.7143 362.26 63.7467 362.26 Q66.7559 362.26 68.4457 360.755 Q70.1587 359.25 70.1587 356.565 Q70.1587 353.88 68.4457 352.375 Q66.7559 350.871 63.7467 350.871 Q60.7143 350.871 59.0245 352.375 Q57.3578 353.88 57.3578 356.565 Z" fill="#000000" fill-rule="nonzero" fill-opacity="1" /><path clip-path="url(#clip880)" d="M93.9086 350.871 Q90.2975 350.871 88.4688 354.436 Q86.6632 357.977 86.6632 365.107 Q86.6632 372.213 88.4688 375.778 Q90.2975 379.32 93.9086 379.32 Q97.5428 379.32 99.3483 375.778 Q101.177 372.213 101.177 365.107 Q101.177 357.977 99.3483 354.436 Q97.5428 350.871 93.9086 350.871 M93.9086 347.167 Q99.7187 347.167 102.774 351.774 Q105.853 356.357 105.853 365.107 Q105.853 373.834 102.774 378.44 Q99.7187 383.023 93.9086 383.023 Q88.0984 383.023 85.0197 378.44 Q81.9642 373.834 81.9642 365.107 Q81.9642 356.357 85.0197 351.774 Q88.0984 347.167 93.9086 347.167 Z" fill="#000000" fill-rule="nonzero" fill-opacity="1" /><path clip-path="url(#clip880)" d="M124.07 350.871 Q120.459 350.871 118.631 354.436 Q116.825 357.977 116.825 365.107 Q116.825 372.213 118.631 375.778 Q120.459 379.32 124.07 379.32 Q127.705 379.32 129.51 375.778 Q131.339 372.213 131.339 365.107 Q131.339 357.977 129.51 354.436 Q127.705 350.871 124.07 350.871 M124.07 347.167 Q129.881 347.167 132.936 351.774 Q136.015 356.357 136.015 365.107 Q136.015 373.834 132.936 378.44 Q129.881 383.023 124.07 383.023 Q118.26 383.023 115.182 378.44 Q112.126 373.834 112.126 365.107 Q112.126 356.357 115.182 351.774 Q118.26 347.167 124.07 347.167 Z" fill="#000000" fill-rule="nonzero" fill-opacity="1" /><path clip-path="url(#clip880)" d="M1179.36 18.8205 L1179.36 65.8515 L1189.25 65.8515 Q1201.76 65.8515 1207.56 60.1802 Q1213.39 54.509 1213.39 42.2752 Q1213.39 30.1225 1207.56 24.4918 Q1201.76 18.8205 1189.25 18.8205 L1179.36 18.8205 M1171.18 12.096 L1187.99 12.096 Q1205.57 12.096 1213.79 19.4281 Q1222.02 26.7198 1222.02 42.2752 Q1222.02 57.9117 1213.75 65.2439 Q1205.49 72.576 1187.99 72.576 L1171.18 72.576 L1171.18 12.096 Z" fill="#000000" fill-rule="nonzero" fill-opacity="1" /><path clip-path="url(#clip880)" d="M1255.36 49.7694 Q1246.32 49.7694 1242.84 51.8354 Q1239.36 53.9013 1239.36 58.8839 Q1239.36 62.8538 1241.95 65.2034 Q1244.58 67.5124 1249.08 67.5124 Q1255.28 67.5124 1259 63.1374 Q1262.77 58.7219 1262.77 51.4303 L1262.77 49.7694 L1255.36 49.7694 M1270.22 46.6907 L1270.22 72.576 L1262.77 72.576 L1262.77 65.6895 Q1260.22 69.8214 1256.41 71.8063 Q1252.6 73.7508 1247.09 73.7508 Q1240.13 73.7508 1235.99 69.8619 Q1231.9 65.9325 1231.9 59.3701 Q1231.9 51.7138 1237.01 47.825 Q1242.15 43.9361 1252.32 43.9361 L1262.77 43.9361 L1262.77 43.2069 Q1262.77 38.0623 1259.37 35.2672 Q1256.01 32.4315 1249.89 32.4315 Q1246 32.4315 1242.31 33.3632 Q1238.63 34.295 1235.22 36.1584 L1235.22 29.2718 Q1239.32 27.692 1243.16 26.9223 Q1247.01 26.1121 1250.66 26.1121 Q1260.5 26.1121 1265.36 31.2163 Q1270.22 36.3204 1270.22 46.6907 Z" fill="#000000" fill-rule="nonzero" fill-opacity="1" /><path clip-path="url(#clip880)" d="M1292.95 14.324 L1292.95 27.2059 L1308.3 27.2059 L1308.3 32.9987 L1292.95 32.9987 L1292.95 57.6282 Q1292.95 63.1779 1294.45 64.7578 Q1295.99 66.3376 1300.65 66.3376 L1308.3 66.3376 L1308.3 72.576 L1300.65 72.576 Q1292.02 72.576 1288.74 69.3758 Q1285.46 66.1351 1285.46 57.6282 L1285.46 32.9987 L1279.99 32.9987 L1279.99 27.2059 L1285.46 27.2059 L1285.46 14.324 L1292.95 14.324 Z" fill="#000000" fill-rule="nonzero" fill-opacity="1" /><path clip-path="url(#clip880)" d="M1338.72 49.7694 Q1329.69 49.7694 1326.21 51.8354 Q1322.72 53.9013 1322.72 58.8839 Q1322.72 62.8538 1325.32 65.2034 Q1327.95 67.5124 1332.45 67.5124 Q1338.64 67.5124 1342.37 63.1374 Q1346.14 58.7219 1346.14 51.4303 L1346.14 49.7694 L1338.72 49.7694 M1353.59 46.6907 L1353.59 72.576 L1346.14 72.576 L1346.14 65.6895 Q1343.59 69.8214 1339.78 71.8063 Q1335.97 73.7508 1330.46 73.7508 Q1323.49 73.7508 1319.36 69.8619 Q1315.27 65.9325 1315.27 59.3701 Q1315.27 51.7138 1320.37 47.825 Q1325.52 43.9361 1335.69 43.9361 L1346.14 43.9361 L1346.14 43.2069 Q1346.14 38.0623 1342.74 35.2672 Q1339.37 32.4315 1333.26 32.4315 Q1329.37 32.4315 1325.68 33.3632 Q1321.99 34.295 1318.59 36.1584 L1318.59 29.2718 Q1322.68 27.692 1326.53 26.9223 Q1330.38 26.1121 1334.03 26.1121 Q1343.87 26.1121 1348.73 31.2163 Q1353.59 36.3204 1353.59 46.6907 Z" fill="#000000" fill-rule="nonzero" fill-opacity="1" /><polyline clip-path="url(#clip882)" style="stroke:#009af9; stroke-linecap:round; stroke-linejoin:round; stroke-width:4; stroke-opacity:1; fill:none" points="233.734,1447.87 233.734,1366.66 268.022,1366.66 268.022,1285.45 302.311,1285.45 302.311,1271.92 336.599,1271.92 336.599,1177.17 370.887,1177.17 370.887,1217.78 405.176,1217.78 405.176,1068.89 439.464,1068.89 439.464,1028.29 473.753,1028.29 473.753,1014.75 508.041,1014.75 508.041,933.543 542.329,933.543 542.329,987.683 576.618,987.683 576.618,892.938 610.906,892.938 610.906,933.543 645.194,933.543 645.194,974.148 679.483,974.148 679.483,933.543 713.771,933.543 713.771,1055.36 748.06,1055.36 748.06,1109.5 782.348,1109.5 782.348,1150.1 816.636,1150.1 816.636,1380.2 850.925,1380.2 850.925,1407.27 885.213,1407.27 885.213,1326.06 919.502,1326.06 919.502,1366.66 953.79,1366.66 953.79,1434.34 988.078,1434.34 988.078,1420.8 1022.37,1420.8 1056.66,1420.8 1090.94,1420.8 1090.94,1434.34 1125.23,1434.34 1125.23,1380.2 1159.52,1380.2 1159.52,1366.66 1193.81,1366.66 1193.81,1434.34 1228.1,1434.34 1228.1,1326.06 1262.39,1326.06 1262.39,1271.92 1296.67,1271.92 1296.67,1082.43 1330.96,1082.43 1330.96,1068.89 1365.25,1068.89 1399.54,1068.89 1399.54,892.938 1433.83,892.938 1433.83,771.122 1468.12,771.122 1468.12,608.702 1502.4,608.702 1502.4,486.887 1536.69,486.887 1536.69,459.817 1570.98,459.817 1570.98,405.677 1605.27,405.677 1605.27,162.047 1639.56,162.047 1639.56,419.212 1673.85,419.212 1673.85,513.957 1708.13,513.957 1708.13,676.377 1742.42,676.377 1742.42,744.052 1776.71,744.052 1776.71,947.078 1811,947.078 1811,987.683 1845.29,987.683 1845.29,1041.82 1879.58,1041.82 1879.58,1217.78 1913.86,1217.78 1948.15,1217.78 1948.15,1326.06 1982.44,1326.06 1982.44,1366.66 2016.73,1366.66 2051.02,1366.66 2051.02,1434.34 2085.31,1434.34 2085.31,1420.8 2119.59,1420.8 2119.59,1447.87 2153.88,1447.87 2188.17,1447.87 2222.46,1447.87 2256.75,1447.87 2291.04,1447.87 "/>
<path clip-path="url(#clip880)" d="M1957.75 272.585 L2280.06 272.585 L2280.06 168.905 L1957.75 168.905  Z" fill="#ffffff" fill-rule="evenodd" fill-opacity="1"/>
<polyline clip-path="url(#clip880)" style="stroke:#000000; stroke-linecap:round; stroke-linejoin:round; stroke-width:4; stroke-opacity:1; fill:none" points="1957.75,272.585 2280.06,272.585 2280.06,168.905 1957.75,168.905 1957.75,272.585 "/>
<polyline clip-path="url(#clip880)" style="stroke:#009af9; stroke-linecap:round; stroke-linejoin:round; stroke-width:4; stroke-opacity:1; fill:none" points="1981.99,220.745 2127.37,220.745 "/>
<path clip-path="url(#clip880)" d="M2156.27 207.307 L2156.27 234.182 L2161.92 234.182 Q2169.08 234.182 2172.39 230.941 Q2175.72 227.701 2175.72 220.71 Q2175.72 213.766 2172.39 210.548 Q2169.08 207.307 2161.92 207.307 L2156.27 207.307 M2151.6 203.465 L2161.2 203.465 Q2171.25 203.465 2175.95 207.654 Q2180.65 211.821 2180.65 220.71 Q2180.65 229.645 2175.93 233.835 Q2171.2 238.025 2161.2 238.025 L2151.6 238.025 L2151.6 203.465 Z" fill="#000000" fill-rule="nonzero" fill-opacity="1" /><path clip-path="url(#clip880)" d="M2199.7 224.992 Q2194.54 224.992 2192.55 226.173 Q2190.56 227.353 2190.56 230.201 Q2190.56 232.469 2192.04 233.812 Q2193.54 235.131 2196.11 235.131 Q2199.65 235.131 2201.78 232.631 Q2203.94 230.108 2203.94 225.941 L2203.94 224.992 L2199.7 224.992 M2208.2 223.233 L2208.2 238.025 L2203.94 238.025 L2203.94 234.089 Q2202.48 236.451 2200.3 237.585 Q2198.13 238.696 2194.98 238.696 Q2191 238.696 2188.64 236.474 Q2186.3 234.228 2186.3 230.478 Q2186.3 226.103 2189.21 223.881 Q2192.15 221.659 2197.96 221.659 L2203.94 221.659 L2203.94 221.242 Q2203.94 218.303 2201.99 216.705 Q2200.07 215.085 2196.58 215.085 Q2194.35 215.085 2192.25 215.617 Q2190.14 216.15 2188.2 217.215 L2188.2 213.279 Q2190.53 212.377 2192.73 211.937 Q2194.93 211.474 2197.01 211.474 Q2202.64 211.474 2205.42 214.391 Q2208.2 217.307 2208.2 223.233 Z" fill="#000000" fill-rule="nonzero" fill-opacity="1" /><path clip-path="url(#clip880)" d="M2221.18 204.738 L2221.18 212.099 L2229.95 212.099 L2229.95 215.409 L2221.18 215.409 L2221.18 229.483 Q2221.18 232.654 2222.04 233.557 Q2222.92 234.46 2225.58 234.46 L2229.95 234.46 L2229.95 238.025 L2225.58 238.025 Q2220.65 238.025 2218.77 236.196 Q2216.9 234.344 2216.9 229.483 L2216.9 215.409 L2213.77 215.409 L2213.77 212.099 L2216.9 212.099 L2216.9 204.738 L2221.18 204.738 Z" fill="#000000" fill-rule="nonzero" fill-opacity="1" /><path clip-path="url(#clip880)" d="M2247.34 224.992 Q2242.18 224.992 2240.19 226.173 Q2238.2 227.353 2238.2 230.201 Q2238.2 232.469 2239.68 233.812 Q2241.18 235.131 2243.75 235.131 Q2247.29 235.131 2249.42 232.631 Q2251.57 230.108 2251.57 225.941 L2251.57 224.992 L2247.34 224.992 M2255.83 223.233 L2255.83 238.025 L2251.57 238.025 L2251.57 234.089 Q2250.12 236.451 2247.94 237.585 Q2245.76 238.696 2242.62 238.696 Q2238.64 238.696 2236.27 236.474 Q2233.94 234.228 2233.94 230.478 Q2233.94 226.103 2236.85 223.881 Q2239.79 221.659 2245.6 221.659 L2251.57 221.659 L2251.57 221.242 Q2251.57 218.303 2249.63 216.705 Q2247.71 215.085 2244.21 215.085 Q2241.99 215.085 2239.89 215.617 Q2237.78 216.15 2235.83 217.215 L2235.83 213.279 Q2238.17 212.377 2240.37 211.937 Q2242.57 211.474 2244.65 211.474 Q2250.28 211.474 2253.06 214.391 Q2255.83 217.307 2255.83 223.233 Z" fill="#000000" fill-rule="nonzero" fill-opacity="1" /></svg>
