<?xml version="1.0" encoding="utf-8"?>
<svg xmlns="http://www.w3.org/2000/svg" xmlns:xlink="http://www.w3.org/1999/xlink" width="600" height="400" viewBox="0 0 2400 1600">
<defs>
  <clipPath id="clip2300">
    <rect x="0" y="0" width="2400" height="1600"/>
  </clipPath>
</defs>
<polygon clip-path="url(#clip2300)" points="
0,1600 2400,1600 2400,0 0,0 
  " fill="#ffffff" fill-rule="evenodd" fill-opacity="1"/>
<defs>
  <clipPath id="clip2301">
    <rect x="480" y="0" width="1681" height="1600"/>
  </clipPath>
</defs>
<polygon clip-path="url(#clip2300)" points="
167.279,1487.47 2352.76,1487.47 2352.76,121.675 167.279,121.675 
  " fill="#ffffff" fill-rule="evenodd" fill-opacity="1"/>
<defs>
  <clipPath id="clip2302">
    <rect x="167" y="121" width="2186" height="1367"/>
  </clipPath>
</defs>
<polyline clip-path="url(#clip2302)" style="stroke:#000000; stroke-width:2; stroke-opacity:0.1; fill:none" points="
  229.132,1487.47 229.132,121.675 
  "/>
<polyline clip-path="url(#clip2302)" style="stroke:#000000; stroke-width:2; stroke-opacity:0.1; fill:none" points="
  744.575,1487.47 744.575,121.675 
  "/>
<polyline clip-path="url(#clip2302)" style="stroke:#000000; stroke-width:2; stroke-opacity:0.1; fill:none" points="
  1260.02,1487.47 1260.02,121.675 
  "/>
<polyline clip-path="url(#clip2302)" style="stroke:#000000; stroke-width:2; stroke-opacity:0.1; fill:none" points="
  1775.46,1487.47 1775.46,121.675 
  "/>
<polyline clip-path="url(#clip2302)" style="stroke:#000000; stroke-width:2; stroke-opacity:0.1; fill:none" points="
  2290.9,1487.47 2290.9,121.675 
  "/>
<polyline clip-path="url(#clip2302)" style="stroke:#000000; stroke-width:2; stroke-opacity:0.1; fill:none" points="
  167.279,1448.82 2352.76,1448.82 
  "/>
<polyline clip-path="url(#clip2302)" style="stroke:#000000; stroke-width:2; stroke-opacity:0.1; fill:none" points="
  167.279,1165.64 2352.76,1165.64 
  "/>
<polyline clip-path="url(#clip2302)" style="stroke:#000000; stroke-width:2; stroke-opacity:0.1; fill:none" points="
  167.279,882.451 2352.76,882.451 
  "/>
<polyline clip-path="url(#clip2302)" style="stroke:#000000; stroke-width:2; stroke-opacity:0.1; fill:none" points="
  167.279,599.266 2352.76,599.266 
  "/>
<polyline clip-path="url(#clip2302)" style="stroke:#000000; stroke-width:2; stroke-opacity:0.1; fill:none" points="
  167.279,316.081 2352.76,316.081 
  "/>
<polyline clip-path="url(#clip2300)" style="stroke:#000000; stroke-width:4; stroke-opacity:1; fill:none" points="
  167.279,1487.47 2352.76,1487.47 
  "/>
<polyline clip-path="url(#clip2300)" style="stroke:#000000; stroke-width:4; stroke-opacity:1; fill:none" points="
  167.279,1487.47 167.279,121.675 
  "/>
<polyline clip-path="url(#clip2300)" style="stroke:#000000; stroke-width:4; stroke-opacity:1; fill:none" points="
  229.132,1487.47 229.132,1466.99 
  "/>
<polyline clip-path="url(#clip2300)" style="stroke:#000000; stroke-width:4; stroke-opacity:1; fill:none" points="
  744.575,1487.47 744.575,1466.99 
  "/>
<polyline clip-path="url(#clip2300)" style="stroke:#000000; stroke-width:4; stroke-opacity:1; fill:none" points="
  1260.02,1487.47 1260.02,1466.99 
  "/>
<polyline clip-path="url(#clip2300)" style="stroke:#000000; stroke-width:4; stroke-opacity:1; fill:none" points="
  1775.46,1487.47 1775.46,1466.99 
  "/>
<polyline clip-path="url(#clip2300)" style="stroke:#000000; stroke-width:4; stroke-opacity:1; fill:none" points="
  2290.9,1487.47 2290.9,1466.99 
  "/>
<polyline clip-path="url(#clip2300)" style="stroke:#000000; stroke-width:4; stroke-opacity:1; fill:none" points="
  167.279,1448.82 200.061,1448.82 
  "/>
<polyline clip-path="url(#clip2300)" style="stroke:#000000; stroke-width:4; stroke-opacity:1; fill:none" points="
  167.279,1165.64 200.061,1165.64 
  "/>
<polyline clip-path="url(#clip2300)" style="stroke:#000000; stroke-width:4; stroke-opacity:1; fill:none" points="
  167.279,882.451 200.061,882.451 
  "/>
<polyline clip-path="url(#clip2300)" style="stroke:#000000; stroke-width:4; stroke-opacity:1; fill:none" points="
  167.279,599.266 200.061,599.266 
  "/>
<polyline clip-path="url(#clip2300)" style="stroke:#000000; stroke-width:4; stroke-opacity:1; fill:none" points="
  167.279,316.081 200.061,316.081 
  "/>
<g clip-path="url(#clip2300)">
<text style="fill:#000000; fill-opacity:1; font-family:Arial,Helvetica Neue,Helvetica,sans-serif; font-size:48px; text-anchor:middle;" transform="rotate(0, 229.132, 1541.47)" x="229.132" y="1541.47">-4</text>
</g>
<g clip-path="url(#clip2300)">
<text style="fill:#000000; fill-opacity:1; font-family:Arial,Helvetica Neue,Helvetica,sans-serif; font-size:48px; text-anchor:middle;" transform="rotate(0, 744.575, 1541.47)" x="744.575" y="1541.47">-2</text>
</g>
<g clip-path="url(#clip2300)">
<text style="fill:#000000; fill-opacity:1; font-family:Arial,Helvetica Neue,Helvetica,sans-serif; font-size:48px; text-anchor:middle;" transform="rotate(0, 1260.02, 1541.47)" x="1260.02" y="1541.47">0</text>
</g>
<g clip-path="url(#clip2300)">
<text style="fill:#000000; fill-opacity:1; font-family:Arial,Helvetica Neue,Helvetica,sans-serif; font-size:48px; text-anchor:middle;" transform="rotate(0, 1775.46, 1541.47)" x="1775.46" y="1541.47">2</text>
</g>
<g clip-path="url(#clip2300)">
<text style="fill:#000000; fill-opacity:1; font-family:Arial,Helvetica Neue,Helvetica,sans-serif; font-size:48px; text-anchor:middle;" transform="rotate(0, 2290.9, 1541.47)" x="2290.9" y="1541.47">4</text>
</g>
<g clip-path="url(#clip2300)">
<text style="fill:#000000; fill-opacity:1; font-family:Arial,Helvetica Neue,Helvetica,sans-serif; font-size:48px; text-anchor:end;" transform="rotate(0, 143.279, 1466.32)" x="143.279" y="1466.32">0</text>
</g>
<g clip-path="url(#clip2300)">
<text style="fill:#000000; fill-opacity:1; font-family:Arial,Helvetica Neue,Helvetica,sans-serif; font-size:48px; text-anchor:end;" transform="rotate(0, 143.279, 1183.14)" x="143.279" y="1183.14">200</text>
</g>
<g clip-path="url(#clip2300)">
<text style="fill:#000000; fill-opacity:1; font-family:Arial,Helvetica Neue,Helvetica,sans-serif; font-size:48px; text-anchor:end;" transform="rotate(0, 143.279, 899.951)" x="143.279" y="899.951">400</text>
</g>
<g clip-path="url(#clip2300)">
<text style="fill:#000000; fill-opacity:1; font-family:Arial,Helvetica Neue,Helvetica,sans-serif; font-size:48px; text-anchor:end;" transform="rotate(0, 143.279, 616.766)" x="143.279" y="616.766">600</text>
</g>
<g clip-path="url(#clip2300)">
<text style="fill:#000000; fill-opacity:1; font-family:Arial,Helvetica Neue,Helvetica,sans-serif; font-size:48px; text-anchor:end;" transform="rotate(0, 143.279, 333.581)" x="143.279" y="333.581">800</text>
</g>
<g clip-path="url(#clip2300)">
<text style="fill:#000000; fill-opacity:1; font-family:Arial,Helvetica Neue,Helvetica,sans-serif; font-size:84px; text-anchor:middle;" transform="rotate(0, 1260.02, 73.2)" x="1260.02" y="73.2">Data, True Model and Best Fit</text>
</g>
<polyline clip-path="url(#clip2302)" style="stroke:#009af9; stroke-width:4; stroke-opacity:1; fill:none" points="
  744.575,1448.82 744.575,1349.71 770.347,1349.71 770.347,1363.86 796.119,1363.86 796.119,1321.39 821.891,1321.39 821.891,1222.27 847.663,1222.27 847.663,1094.84 
  873.436,1094.84 873.436,995.725 899.208,995.725 899.208,1094.84 924.98,1094.84 924.98,896.61 950.752,896.61 950.752,783.336 976.524,783.336 976.524,797.495 
  1002.3,797.495 1002.3,783.336 1028.07,783.336 1028.07,967.406 1053.84,967.406 1053.84,1024.04 1079.61,1024.04 1079.61,995.725 1105.38,995.725 1105.38,1222.27 
  1131.16,1222.27 1131.16,1151.48 1156.93,1151.48 1156.93,1222.27 1182.7,1222.27 1182.7,1335.55 1208.47,1335.55 1208.47,1321.39 1234.25,1321.39 1234.25,1335.55 
  1260.02,1335.55 1260.02,1420.5 1285.79,1420.5 1285.79,1406.34 1311.56,1406.34 1311.56,1392.18 1337.33,1392.18 1337.33,1434.66 1363.11,1434.66 1363.11,1448.82 
  1388.88,1448.82 1388.88,1420.5 1414.65,1420.5 1440.42,1420.5 1440.42,1392.18 1466.19,1392.18 1466.19,1378.02 1491.97,1378.02 1491.97,1349.71 
  1517.74,1349.71 1517.74,1293.07 1543.51,1293.07 1569.28,1293.07 1569.28,1151.48 1595.06,1151.48 1595.06,1024.04 1620.83,1024.04 1620.83,854.132 
  1646.6,854.132 1646.6,528.47 1672.37,528.47 1672.37,627.585 1698.14,627.585 1698.14,216.967 1723.92,216.967 1723.92,202.808 1749.69,202.808 1749.69,160.33 
  1775.46,160.33 1775.46,401.037 1801.23,401.037 1801.23,471.833 1827,471.833 1827,457.674 1852.78,457.674 1852.78,684.221 1878.55,684.221 1878.55,712.54 
  1904.32,712.54 1904.32,854.132 1930.09,854.132 1930.09,939.088 1955.87,939.088 1955.87,1052.36 1981.64,1052.36 1981.64,1109 2007.41,1109 2007.41,1363.86 
  2033.18,1363.86 2033.18,1321.39 2058.95,1321.39 2058.95,1392.18 2084.73,1392.18 2084.73,1420.5 2110.5,1420.5 2110.5,1448.82 2136.27,1448.82 2136.27,1392.18 
  2162.04,1392.18 2162.04,1434.66 2187.81,1434.66 2187.81,1448.82 2213.59,1448.82 2239.36,1448.82 2265.13,1448.82 
  2290.9,1448.82 
  "/>
<polyline clip-path="url(#clip2302)" style="stroke:#e26f46; stroke-width:4; stroke-opacity:1; fill:none" points="
  229.132,1448.82 231.709,1448.82 234.287,1448.82 236.864,1448.82 239.441,1448.82 242.018,1448.82 244.596,1448.82 247.173,1448.82 249.75,1448.82 252.327,1448.82 
  254.904,1448.82 257.482,1448.82 260.059,1448.82 262.636,1448.82 265.213,1448.82 267.79,1448.82 270.368,1448.82 272.945,1448.82 275.522,1448.82 278.099,1448.82 
  280.677,1448.82 283.254,1448.82 285.831,1448.82 288.408,1448.82 290.985,1448.82 293.563,1448.82 296.14,1448.82 298.717,1448.82 301.294,1448.82 303.871,1448.82 
  306.449,1448.82 309.026,1448.82 311.603,1448.82 314.18,1448.82 316.758,1448.82 319.335,1448.82 321.912,1448.82 324.489,1448.82 327.066,1448.82 329.644,1448.82 
  332.221,1448.82 334.798,1448.82 337.375,1448.82 339.952,1448.82 342.53,1448.82 345.107,1448.82 347.684,1448.82 350.261,1448.82 352.838,1448.82 355.416,1448.82 
  357.993,1448.82 360.57,1448.82 363.147,1448.82 365.725,1448.82 368.302,1448.82 370.879,1448.82 373.456,1448.82 376.033,1448.82 378.611,1448.82 381.188,1448.81 
  383.765,1448.81 386.342,1448.81 388.919,1448.81 391.497,1448.81 394.074,1448.81 396.651,1448.81 399.228,1448.81 401.806,1448.81 404.383,1448.81 406.96,1448.81 
  409.537,1448.81 412.114,1448.8 414.692,1448.8 417.269,1448.8 419.846,1448.8 422.423,1448.8 425,1448.8 427.578,1448.79 430.155,1448.79 432.732,1448.79 
  435.309,1448.78 437.887,1448.78 440.464,1448.78 443.041,1448.77 445.618,1448.77 448.195,1448.77 450.773,1448.76 453.35,1448.76 455.927,1448.75 458.504,1448.74 
  461.081,1448.74 463.659,1448.73 466.236,1448.72 468.813,1448.71 471.39,1448.7 473.968,1448.69 476.545,1448.68 479.122,1448.67 481.699,1448.66 484.276,1448.65 
  486.854,1448.63 489.431,1448.61 492.008,1448.6 494.585,1448.58 497.162,1448.56 499.74,1448.54 502.317,1448.52 504.894,1448.49 507.471,1448.47 510.048,1448.44 
  512.626,1448.41 515.203,1448.37 517.78,1448.34 520.357,1448.3 522.935,1448.26 525.512,1448.22 528.089,1448.17 530.666,1448.12 533.243,1448.07 535.821,1448.01 
  538.398,1447.95 540.975,1447.89 543.552,1447.82 546.129,1447.75 548.707,1447.67 551.284,1447.58 553.861,1447.5 556.438,1447.4 559.016,1447.3 561.593,1447.19 
  564.17,1447.08 566.747,1446.95 569.324,1446.82 571.902,1446.68 574.479,1446.54 577.056,1446.38 579.633,1446.22 582.21,1446.04 584.788,1445.85 587.365,1445.65 
  589.942,1445.44 592.519,1445.22 595.097,1444.99 597.674,1444.74 600.251,1444.47 602.828,1444.19 605.405,1443.9 607.983,1443.59 610.56,1443.26 613.137,1442.91 
  615.714,1442.54 618.291,1442.16 620.869,1441.75 623.446,1441.32 626.023,1440.87 628.6,1440.39 631.178,1439.89 633.755,1439.36 636.332,1438.81 638.909,1438.22 
  641.486,1437.61 644.064,1436.97 646.641,1436.29 649.218,1435.59 651.795,1434.84 654.372,1434.06 656.95,1433.25 659.527,1432.4 662.104,1431.5 664.681,1430.57 
  667.258,1429.59 669.836,1428.57 672.413,1427.5 674.99,1426.38 677.567,1425.22 680.145,1424 682.722,1422.73 685.299,1421.41 687.876,1420.04 690.453,1418.6 
  693.031,1417.11 695.608,1415.56 698.185,1413.94 700.762,1412.27 703.339,1410.52 705.917,1408.71 708.494,1406.83 711.071,1404.88 713.648,1402.86 716.226,1400.76 
  718.803,1398.59 721.38,1396.34 723.957,1394.01 726.534,1391.61 729.112,1389.12 731.689,1386.54 734.266,1383.88 736.843,1381.14 739.42,1378.31 741.998,1375.39 
  744.575,1372.37 747.152,1369.27 749.729,1366.07 752.307,1362.78 754.884,1359.4 757.461,1355.91 760.038,1352.33 762.615,1348.66 765.193,1344.88 767.77,1341.01 
  770.347,1337.03 772.924,1332.96 775.501,1328.78 778.079,1324.51 780.656,1320.13 783.233,1315.65 785.81,1311.08 788.388,1306.4 790.965,1301.62 793.542,1296.74 
  796.119,1291.76 798.696,1286.69 801.274,1281.52 803.851,1276.25 806.428,1270.89 809.005,1265.43 811.582,1259.89 814.16,1254.25 816.737,1248.52 819.314,1242.71 
  821.891,1236.82 824.469,1230.84 827.046,1224.79 829.623,1218.65 832.2,1212.45 834.777,1206.18 837.355,1199.83 839.932,1193.43 842.509,1186.96 845.086,1180.44 
  847.663,1173.87 850.241,1167.25 852.818,1160.58 855.395,1153.87 857.972,1147.13 860.549,1140.36 863.127,1133.56 865.704,1126.74 868.281,1119.91 870.858,1113.06 
  873.436,1106.21 876.013,1099.36 878.59,1092.51 881.167,1085.68 883.744,1078.86 886.322,1072.06 888.899,1065.3 891.476,1058.57 894.053,1051.87 896.63,1045.23 
  899.208,1038.64 901.785,1032.11 904.362,1025.64 906.939,1019.24 909.517,1012.93 912.094,1006.69 914.671,1000.55 917.248,994.501 919.825,988.557 922.403,982.721 
  924.98,977 927.557,971.399 930.134,965.925 932.711,960.584 935.289,955.381 937.866,950.323 940.443,945.413 943.02,940.659 945.598,936.065 948.175,931.636 
  950.752,927.378 953.329,923.295 955.906,919.391 958.484,915.672 961.061,912.142 963.638,908.804 966.215,905.663 968.792,902.722 971.37,899.985 973.947,897.454 
  976.524,895.134 979.101,893.026 981.679,891.133 984.256,889.457 986.833,888.001 989.41,886.766 991.987,885.753 994.565,884.964 997.142,884.4 999.719,884.061 
  1002.3,883.948 1004.87,884.061 1007.45,884.4 1010.03,884.964 1012.61,885.753 1015.18,886.766 1017.76,888.001 1020.34,889.457 1022.91,891.133 1025.49,893.026 
  1028.07,895.134 1030.65,897.454 1033.22,899.985 1035.8,902.722 1038.38,905.663 1040.95,908.804 1043.53,912.142 1046.11,915.672 1048.69,919.391 1051.26,923.294 
  1053.84,927.378 1056.42,931.636 1058.99,936.065 1061.57,940.659 1064.15,945.413 1066.73,950.322 1069.3,955.381 1071.88,960.584 1074.46,965.925 1077.04,971.399 
  1079.61,976.999 1082.19,982.72 1084.77,988.556 1087.34,994.501 1089.92,1000.55 1092.5,1006.69 1095.08,1012.93 1097.65,1019.24 1100.23,1025.64 1102.81,1032.11 
  1105.38,1038.64 1107.96,1045.23 1110.54,1051.87 1113.12,1058.56 1115.69,1065.3 1118.27,1072.06 1120.85,1078.86 1123.43,1085.67 1126,1092.51 1128.58,1099.35 
  1131.16,1106.2 1133.73,1113.05 1136.31,1119.9 1138.89,1126.73 1141.47,1133.55 1144.04,1140.35 1146.62,1147.12 1149.2,1153.86 1151.77,1160.57 1154.35,1167.23 
  1156.93,1173.86 1159.51,1180.43 1162.08,1186.95 1164.66,1193.41 1167.24,1199.82 1169.82,1206.16 1172.39,1212.43 1174.97,1218.63 1177.55,1224.76 1180.12,1230.81 
  1182.7,1236.79 1185.28,1242.68 1187.86,1248.49 1190.43,1254.21 1193.01,1259.84 1195.59,1265.39 1198.16,1270.84 1200.74,1276.2 1203.32,1281.46 1205.9,1286.63 
  1208.47,1291.69 1211.05,1296.66 1213.63,1301.53 1216.2,1306.31 1218.78,1310.98 1221.36,1315.54 1223.94,1320.01 1226.51,1324.38 1229.09,1328.64 1231.67,1332.8 
  1234.25,1336.87 1236.82,1340.83 1239.4,1344.68 1241.98,1348.44 1244.55,1352.1 1247.13,1355.66 1249.71,1359.12 1252.29,1362.48 1254.86,1365.75 1257.44,1368.92 
  1260.02,1371.99 1262.59,1374.97 1265.17,1377.86 1267.75,1380.66 1270.33,1383.36 1272.9,1385.98 1275.48,1388.51 1278.06,1390.95 1280.64,1393.3 1283.21,1395.58 
  1285.79,1397.76 1288.37,1399.87 1290.94,1401.9 1293.52,1403.84 1296.1,1405.71 1298.68,1407.51 1301.25,1409.23 1303.83,1410.87 1306.41,1412.44 1308.98,1413.95 
  1311.56,1415.38 1314.14,1416.74 1316.72,1418.04 1319.29,1419.27 1321.87,1420.43 1324.45,1421.53 1327.03,1422.57 1329.6,1423.54 1332.18,1424.45 1334.76,1425.31 
  1337.33,1426.1 1339.91,1426.83 1342.49,1427.51 1345.07,1428.12 1347.64,1428.68 1350.22,1429.19 1352.8,1429.63 1355.37,1430.02 1357.95,1430.36 1360.53,1430.64 
  1363.11,1430.86 1365.68,1431.03 1368.26,1431.14 1370.84,1431.2 1373.41,1431.2 1375.99,1431.14 1378.57,1431.03 1381.15,1430.86 1383.72,1430.63 1386.3,1430.34 
  1388.88,1429.99 1391.46,1429.59 1394.03,1429.12 1396.61,1428.59 1399.19,1428 1401.76,1427.34 1404.34,1426.61 1406.92,1425.82 1409.5,1424.96 1412.07,1424.03 
  1414.65,1423.03 1417.23,1421.95 1419.8,1420.8 1422.38,1419.57 1424.96,1418.26 1427.54,1416.87 1430.11,1415.4 1432.69,1413.83 1435.27,1412.18 1437.85,1410.44 
  1440.42,1408.61 1443,1406.68 1445.58,1404.65 1448.15,1402.52 1450.73,1400.29 1453.31,1397.95 1455.89,1395.5 1458.46,1392.93 1461.04,1390.25 1463.62,1387.46 
  1466.19,1384.54 1468.77,1381.49 1471.35,1378.32 1473.93,1375.01 1476.5,1371.58 1479.08,1368 1481.66,1364.28 1484.24,1360.42 1486.81,1356.42 1489.39,1352.26 
  1491.97,1347.95 1494.54,1343.48 1497.12,1338.85 1499.7,1334.06 1502.28,1329.11 1504.85,1323.98 1507.43,1318.69 1510.01,1313.22 1512.58,1307.57 1515.16,1301.75 
  1517.74,1295.74 1520.32,1289.54 1522.89,1283.16 1525.47,1276.59 1528.05,1269.83 1530.62,1262.88 1533.2,1255.73 1535.78,1248.39 1538.36,1240.84 1540.93,1233.1 
  1543.51,1225.16 1546.09,1217.02 1548.67,1208.68 1551.24,1200.13 1553.82,1191.38 1556.4,1182.43 1558.97,1173.28 1561.55,1163.93 1564.13,1154.38 1566.71,1144.62 
  1569.28,1134.67 1571.86,1124.53 1574.44,1114.19 1577.01,1103.65 1579.59,1092.93 1582.17,1082.02 1584.75,1070.93 1587.32,1059.66 1589.9,1048.21 1592.48,1036.59 
  1595.06,1024.8 1597.63,1012.85 1600.21,1000.74 1602.79,988.478 1605.36,976.07 1607.94,963.521 1610.52,950.839 1613.1,938.029 1615.67,925.099 1618.25,912.057 
  1620.83,898.909 1623.4,885.665 1625.98,872.332 1628.56,858.92 1631.14,845.437 1633.71,831.893 1636.29,818.296 1638.87,804.658 1641.45,790.988 1644.02,777.296 
  1646.6,763.594 1649.18,749.892 1651.75,736.2 1654.33,722.531 1656.91,708.896 1659.49,695.306 1662.06,681.774 1664.64,668.31 1667.22,654.928 1669.79,641.64 
  1672.37,628.457 1674.95,615.393 1677.53,602.459 1680.1,589.668 1682.68,577.032 1685.26,564.564 1687.83,552.277 1690.41,540.183 1692.99,528.293 1695.57,516.621 
  1698.14,505.179 1700.72,493.978 1703.3,483.03 1705.88,472.348 1708.45,461.943 1711.03,451.825 1713.61,442.006 1716.18,432.498 1718.76,423.309 1721.34,414.452 
  1723.92,405.935 1726.49,397.769 1729.07,389.962 1731.65,382.524 1734.22,375.464 1736.8,368.788 1739.38,362.506 1741.96,356.624 1744.53,351.149 1747.11,346.088 
  1749.69,341.447 1752.27,337.231 1754.84,333.445 1757.42,330.094 1760,327.182 1762.57,324.711 1765.15,322.686 1767.73,321.108 1770.31,319.98 1772.88,319.303 
  1775.46,319.077 1778.04,319.303 1780.61,319.98 1783.19,321.108 1785.77,322.686 1788.35,324.711 1790.92,327.182 1793.5,330.094 1796.08,333.445 1798.66,337.231 
  1801.23,341.447 1803.81,346.088 1806.39,351.149 1808.96,356.624 1811.54,362.506 1814.12,368.788 1816.7,375.464 1819.27,382.525 1821.85,389.963 1824.43,397.769 
  1827,405.935 1829.58,414.452 1832.16,423.31 1834.74,432.498 1837.31,442.006 1839.89,451.825 1842.47,461.943 1845.04,472.348 1847.62,483.031 1850.2,493.978 
  1852.78,505.179 1855.35,516.622 1857.93,528.294 1860.51,540.183 1863.09,552.277 1865.66,564.565 1868.24,577.032 1870.82,589.668 1873.39,602.459 1875.97,615.393 
  1878.55,628.458 1881.13,641.641 1883.7,654.929 1886.28,668.311 1888.86,681.775 1891.43,695.307 1894.01,708.897 1896.59,722.533 1899.17,736.202 1901.74,749.893 
  1904.32,763.596 1906.9,777.299 1909.48,790.991 1912.05,804.661 1914.63,818.299 1917.21,831.896 1919.78,845.441 1922.36,858.924 1924.94,872.337 1927.52,885.67 
  1930.09,898.915 1932.67,912.063 1935.25,925.106 1937.82,938.037 1940.4,950.847 1942.98,963.53 1945.56,976.08 1948.13,988.489 1950.71,1000.75 1953.29,1012.86 
  1955.87,1024.81 1958.44,1036.6 1961.02,1048.23 1963.6,1059.68 1966.17,1070.95 1968.75,1082.05 1971.33,1092.96 1973.91,1103.68 1976.48,1114.22 1979.06,1124.56 
  1981.64,1134.71 1984.21,1144.66 1986.79,1154.42 1989.37,1163.97 1991.95,1173.33 1994.52,1182.49 1997.1,1191.44 1999.68,1200.2 2002.25,1208.75 2004.83,1217.1 
  2007.41,1225.25 2009.99,1233.19 2012.56,1240.94 2015.14,1248.49 2017.72,1255.85 2020.3,1263.01 2022.87,1269.97 2025.45,1276.74 2028.03,1283.32 2030.6,1289.72 
  2033.18,1295.93 2035.76,1301.95 2038.34,1307.79 2040.91,1313.46 2043.49,1318.95 2046.07,1324.27 2048.64,1329.41 2051.22,1334.39 2053.8,1339.21 2056.38,1343.86 
  2058.95,1348.36 2061.53,1352.7 2064.11,1356.9 2066.69,1360.94 2069.26,1364.84 2071.84,1368.6 2074.42,1372.22 2076.99,1375.71 2079.57,1379.07 2082.15,1382.3 
  2084.73,1385.4 2087.3,1388.39 2089.88,1391.25 2092.46,1394.01 2095.03,1396.65 2097.61,1399.18 2100.19,1401.61 2102.77,1403.94 2105.34,1406.17 2107.92,1408.31 
  2110.5,1410.36 2113.08,1412.31 2115.65,1414.18 2118.23,1415.97 2120.81,1417.68 2123.38,1419.31 2125.96,1420.87 2128.54,1422.35 2131.12,1423.77 2133.69,1425.12 
  2136.27,1426.4 2138.85,1427.63 2141.42,1428.8 2144,1429.91 2146.58,1430.96 2149.16,1431.96 2151.73,1432.92 2154.31,1433.82 2156.89,1434.68 2159.46,1435.5 
  2162.04,1436.27 2164.62,1437 2167.2,1437.7 2169.77,1438.36 2172.35,1438.98 2174.93,1439.57 2177.51,1440.13 2180.08,1440.65 2182.66,1441.15 2185.24,1441.62 
  2187.81,1442.07 2190.39,1442.49 2192.97,1442.88 2195.55,1443.26 2198.12,1443.61 2200.7,1443.94 2203.28,1444.25 2205.85,1444.55 2208.43,1444.83 2211.01,1445.09 
  2213.59,1445.33 2216.16,1445.56 2218.74,1445.78 2221.32,1445.98 2223.9,1446.17 2226.47,1446.35 2229.05,1446.52 2231.63,1446.67 2234.2,1446.82 2236.78,1446.96 
  2239.36,1447.09 2241.94,1447.21 2244.51,1447.32 2247.09,1447.43 2249.67,1447.52 2252.24,1447.62 2254.82,1447.7 2257.4,1447.78 2259.98,1447.86 2262.55,1447.93 
  2265.13,1447.99 2267.71,1448.05 2270.29,1448.11 2272.86,1448.16 2275.44,1448.21 2278.02,1448.26 2280.59,1448.3 2283.17,1448.34 2285.75,1448.38 2288.33,1448.41 
  2290.9,1448.44 
  "/>
<polyline clip-path="url(#clip2302)" style="stroke:#3da44d; stroke-width:4; stroke-opacity:1; fill:none" points="
  229.132,1448.82 231.709,1448.82 234.287,1448.82 236.864,1448.82 239.441,1448.82 242.018,1448.82 244.596,1448.82 247.173,1448.82 249.75,1448.82 252.327,1448.82 
  254.904,1448.82 257.482,1448.82 260.059,1448.82 262.636,1448.82 265.213,1448.82 267.79,1448.82 270.368,1448.82 272.945,1448.82 275.522,1448.82 278.099,1448.82 
  280.677,1448.82 283.254,1448.82 285.831,1448.82 288.408,1448.82 290.985,1448.82 293.563,1448.82 296.14,1448.82 298.717,1448.82 301.294,1448.82 303.871,1448.82 
  306.449,1448.82 309.026,1448.82 311.603,1448.82 314.18,1448.82 316.758,1448.82 319.335,1448.82 321.912,1448.82 324.489,1448.82 327.066,1448.82 329.644,1448.82 
  332.221,1448.82 334.798,1448.82 337.375,1448.82 339.952,1448.82 342.53,1448.82 345.107,1448.82 347.684,1448.82 350.261,1448.82 352.838,1448.82 355.416,1448.82 
  357.993,1448.82 360.57,1448.82 363.147,1448.82 365.725,1448.82 368.302,1448.82 370.879,1448.82 373.456,1448.82 376.033,1448.82 378.611,1448.82 381.188,1448.82 
  383.765,1448.82 386.342,1448.82 388.919,1448.82 391.497,1448.82 394.074,1448.82 396.651,1448.82 399.228,1448.82 401.806,1448.81 404.383,1448.81 406.96,1448.81 
  409.537,1448.81 412.114,1448.81 414.692,1448.81 417.269,1448.81 419.846,1448.81 422.423,1448.81 425,1448.81 427.578,1448.81 430.155,1448.8 432.732,1448.8 
  435.309,1448.8 437.887,1448.8 440.464,1448.8 443.041,1448.79 445.618,1448.79 448.195,1448.79 450.773,1448.79 453.35,1448.78 455.927,1448.78 458.504,1448.78 
  461.081,1448.77 463.659,1448.77 466.236,1448.76 468.813,1448.76 471.39,1448.75 473.968,1448.74 476.545,1448.74 479.122,1448.73 481.699,1448.72 484.276,1448.71 
  486.854,1448.7 489.431,1448.69 492.008,1448.68 494.585,1448.67 497.162,1448.66 499.74,1448.64 502.317,1448.63 504.894,1448.61 507.471,1448.59 510.048,1448.57 
  512.626,1448.55 515.203,1448.53 517.78,1448.5 520.357,1448.48 522.935,1448.45 525.512,1448.42 528.089,1448.38 530.666,1448.35 533.243,1448.31 535.821,1448.27 
  538.398,1448.23 540.975,1448.18 543.552,1448.13 546.129,1448.07 548.707,1448.01 551.284,1447.95 553.861,1447.88 556.438,1447.81 559.016,1447.73 561.593,1447.65 
  564.17,1447.56 566.747,1447.47 569.324,1447.37 571.902,1447.26 574.479,1447.14 577.056,1447.02 579.633,1446.89 582.21,1446.75 584.788,1446.6 587.365,1446.44 
  589.942,1446.27 592.519,1446.09 595.097,1445.9 597.674,1445.7 600.251,1445.48 602.828,1445.25 605.405,1445.01 607.983,1444.75 610.56,1444.47 613.137,1444.18 
  615.714,1443.87 618.291,1443.55 620.869,1443.2 623.446,1442.84 626.023,1442.45 628.6,1442.04 631.178,1441.61 633.755,1441.15 636.332,1440.67 638.909,1440.16 
  641.486,1439.63 644.064,1439.06 646.641,1438.47 649.218,1437.84 651.795,1437.18 654.372,1436.49 656.95,1435.76 659.527,1435 662.104,1434.19 664.681,1433.35 
  667.258,1432.46 669.836,1431.53 672.413,1430.56 674.99,1429.54 677.567,1428.47 680.145,1427.35 682.722,1426.18 685.299,1424.95 687.876,1423.67 690.453,1422.34 
  693.031,1420.94 695.608,1419.49 698.185,1417.97 700.762,1416.38 703.339,1414.73 705.917,1413.01 708.494,1411.22 711.071,1409.36 713.648,1407.42 716.226,1405.41 
  718.803,1403.32 721.38,1401.15 723.957,1398.9 726.534,1396.56 729.112,1394.14 731.689,1391.63 734.266,1389.03 736.843,1386.34 739.42,1383.56 741.998,1380.68 
  744.575,1377.71 747.152,1374.63 749.729,1371.46 752.307,1368.19 754.884,1364.82 757.461,1361.34 760.038,1357.76 762.615,1354.08 765.193,1350.29 767.77,1346.38 
  770.347,1342.38 772.924,1338.26 775.501,1334.03 778.079,1329.69 780.656,1325.25 783.233,1320.69 785.81,1316.02 788.388,1311.24 790.965,1306.35 793.542,1301.35 
  796.119,1296.24 798.696,1291.02 801.274,1285.7 803.851,1280.27 806.428,1274.73 809.005,1269.09 811.582,1263.34 814.16,1257.5 816.737,1251.55 819.314,1245.51 
  821.891,1239.37 824.469,1233.15 827.046,1226.83 829.623,1220.43 832.2,1213.94 834.777,1207.38 837.355,1200.74 839.932,1194.02 842.509,1187.24 845.086,1180.39 
  847.663,1173.49 850.241,1166.52 852.818,1159.51 855.395,1152.45 857.972,1145.35 860.549,1138.21 863.127,1131.05 865.704,1123.86 868.281,1116.65 870.858,1109.43 
  873.436,1102.2 876.013,1094.96 878.59,1087.74 881.167,1080.53 883.744,1073.33 886.322,1066.16 888.899,1059.02 891.476,1051.92 894.053,1044.87 896.63,1037.87 
  899.208,1030.92 901.785,1024.05 904.362,1017.25 906.939,1010.53 909.517,1003.89 912.094,997.353 914.671,990.917 917.248,984.59 919.825,978.378 922.403,972.291 
  924.98,966.333 927.557,960.511 930.134,954.834 932.711,949.306 935.289,943.936 937.866,938.728 940.443,933.689 943.02,928.826 945.598,924.144 948.175,919.649 
  950.752,915.346 953.329,911.24 955.906,907.338 958.484,903.643 961.061,900.16 963.638,896.894 966.215,893.849 968.792,891.028 971.37,888.435 973.947,886.074 
  976.524,883.947 979.101,882.058 981.679,880.408 984.256,879 986.833,877.836 989.41,876.917 991.987,876.244 994.565,875.818 997.142,875.64 999.719,875.71 
  1002.3,876.028 1004.87,876.593 1007.45,877.405 1010.03,878.463 1012.61,879.765 1015.18,881.31 1017.76,883.095 1020.34,885.119 1022.91,887.378 1025.49,889.87 
  1028.07,892.592 1030.65,895.54 1033.22,898.711 1035.8,902.1 1038.38,905.703 1040.95,909.515 1043.53,913.533 1046.11,917.75 1048.69,922.163 1051.26,926.764 
  1053.84,931.549 1056.42,936.512 1058.99,941.647 1061.57,946.947 1064.15,952.407 1066.73,958.02 1069.3,963.78 1071.88,969.679 1074.46,975.711 1077.04,981.869 
  1079.61,988.147 1082.19,994.537 1084.77,1001.03 1087.34,1007.62 1089.92,1014.31 1092.5,1021.08 1095.08,1027.92 1097.65,1034.83 1100.23,1041.81 1102.81,1048.84 
  1105.38,1055.92 1107.96,1063.05 1110.54,1070.2 1113.12,1077.39 1115.69,1084.59 1118.27,1091.82 1120.85,1099.04 1123.43,1106.28 1126,1113.5 1128.58,1120.72 
  1131.16,1127.92 1133.73,1135.1 1136.31,1142.24 1138.89,1149.36 1141.47,1156.44 1144.04,1163.47 1146.62,1170.46 1149.2,1177.39 1151.77,1184.26 1154.35,1191.07 
  1156.93,1197.82 1159.51,1204.49 1162.08,1211.09 1164.66,1217.61 1167.24,1224.05 1169.82,1230.4 1172.39,1236.67 1174.97,1242.84 1177.55,1248.92 1180.12,1254.91 
  1182.7,1260.8 1185.28,1266.58 1187.86,1272.27 1190.43,1277.85 1193.01,1283.33 1195.59,1288.7 1198.16,1293.96 1200.74,1299.11 1203.32,1304.16 1205.9,1309.09 
  1208.47,1313.92 1211.05,1318.63 1213.63,1323.24 1216.2,1327.73 1218.78,1332.11 1221.36,1336.38 1223.94,1340.54 1226.51,1344.59 1229.09,1348.53 1231.67,1352.36 
  1234.25,1356.09 1236.82,1359.71 1239.4,1363.22 1241.98,1366.63 1244.55,1369.93 1247.13,1373.14 1249.71,1376.24 1252.29,1379.24 1254.86,1382.14 1257.44,1384.95 
  1260.02,1387.67 1262.59,1390.29 1265.17,1392.82 1267.75,1395.25 1270.33,1397.6 1272.9,1399.87 1275.48,1402.05 1278.06,1404.14 1280.64,1406.16 1283.21,1408.09 
  1285.79,1409.95 1288.37,1411.73 1290.94,1413.44 1293.52,1415.07 1296.1,1416.63 1298.68,1418.12 1301.25,1419.55 1303.83,1420.91 1306.41,1422.2 1308.98,1423.43 
  1311.56,1424.6 1314.14,1425.71 1316.72,1426.76 1319.29,1427.75 1321.87,1428.69 1324.45,1429.57 1327.03,1430.4 1329.6,1431.18 1332.18,1431.9 1334.76,1432.57 
  1337.33,1433.2 1339.91,1433.77 1342.49,1434.3 1345.07,1434.77 1347.64,1435.21 1350.22,1435.59 1352.8,1435.93 1355.37,1436.23 1357.95,1436.48 1360.53,1436.68 
  1363.11,1436.84 1365.68,1436.95 1368.26,1437.03 1370.84,1437.05 1373.41,1437.03 1375.99,1436.97 1378.57,1436.86 1381.15,1436.7 1383.72,1436.5 1386.3,1436.25 
  1388.88,1435.95 1391.46,1435.6 1394.03,1435.2 1396.61,1434.75 1399.19,1434.25 1401.76,1433.69 1404.34,1433.08 1406.92,1432.42 1409.5,1431.69 1412.07,1430.91 
  1414.65,1430.06 1417.23,1429.15 1419.8,1428.18 1422.38,1427.14 1424.96,1426.03 1427.54,1424.84 1430.11,1423.59 1432.69,1422.25 1435.27,1420.84 1437.85,1419.35 
  1440.42,1417.77 1443,1416.1 1445.58,1414.35 1448.15,1412.5 1450.73,1410.55 1453.31,1408.51 1455.89,1406.36 1458.46,1404.11 1461.04,1401.74 1463.62,1399.27 
  1466.19,1396.67 1468.77,1393.96 1471.35,1391.13 1473.93,1388.17 1476.5,1385.07 1479.08,1381.84 1481.66,1378.48 1484.24,1374.97 1486.81,1371.31 1489.39,1367.51 
  1491.97,1363.55 1494.54,1359.44 1497.12,1355.16 1499.7,1350.72 1502.28,1346.1 1504.85,1341.32 1507.43,1336.36 1510.01,1331.22 1512.58,1325.89 1515.16,1320.38 
  1517.74,1314.68 1520.32,1308.78 1522.89,1302.68 1525.47,1296.39 1528.05,1289.89 1530.62,1283.18 1533.2,1276.27 1535.78,1269.14 1538.36,1261.8 1540.93,1254.24 
  1543.51,1246.47 1546.09,1238.47 1548.67,1230.25 1551.24,1221.81 1553.82,1213.14 1556.4,1204.25 1558.97,1195.14 1561.55,1185.79 1564.13,1176.22 1566.71,1166.42 
  1569.28,1156.4 1571.86,1146.15 1574.44,1135.68 1577.01,1124.99 1579.59,1114.07 1582.17,1102.94 1584.75,1091.59 1587.32,1080.03 1589.9,1068.26 1592.48,1056.28 
  1595.06,1044.11 1597.63,1031.73 1600.21,1019.16 1602.79,1006.4 1605.36,993.467 1607.94,980.353 1610.52,967.07 1613.1,953.625 1615.67,940.025 1618.25,926.278 
  1620.83,912.391 1623.4,898.373 1625.98,884.233 1628.56,869.98 1631.14,855.625 1633.71,841.176 1636.29,826.644 1638.87,812.041 1641.45,797.377 1644.02,782.663 
  1646.6,767.911 1649.18,753.134 1651.75,738.344 1654.33,723.553 1656.91,708.775 1659.49,694.022 1662.06,679.308 1664.64,664.646 1667.22,650.051 1669.79,635.536 
  1672.37,621.116 1674.95,606.804 1677.53,592.615 1680.1,578.564 1682.68,564.665 1685.26,550.932 1687.83,537.381 1690.41,524.025 1692.99,510.879 1695.57,497.958 
  1698.14,485.276 1700.72,472.847 1703.3,460.686 1705.88,448.806 1708.45,437.221 1711.03,425.944 1713.61,414.989 1716.18,404.368 1718.76,394.095 1721.34,384.182 
  1723.92,374.64 1726.49,365.481 1729.07,356.718 1731.65,348.359 1734.22,340.416 1736.8,332.899 1739.38,325.817 1741.96,319.178 1744.53,312.992 1747.11,307.266 
  1749.69,302.008 1752.27,297.224 1754.84,292.92 1757.42,289.101 1760,285.774 1762.57,282.941 1765.15,280.608 1767.73,278.775 1770.31,277.447 1772.88,276.625 
  1775.46,276.309 1778.04,276.501 1780.61,277.2 1783.19,278.405 1785.77,280.114 1788.35,282.326 1790.92,285.037 1793.5,288.244 1796.08,291.943 1798.66,296.129 
  1801.23,300.796 1803.81,305.94 1806.39,311.552 1808.96,317.626 1811.54,324.155 1814.12,331.13 1816.7,338.542 1819.27,346.382 1821.85,354.64 1824.43,363.306 
  1827,372.369 1829.58,381.818 1832.16,391.642 1834.74,401.828 1837.31,412.365 1839.89,423.24 1842.47,434.439 1845.04,445.951 1847.62,457.76 1850.2,469.854 
  1852.78,482.219 1855.35,494.84 1857.93,507.704 1860.51,520.796 1863.09,534.102 1865.66,547.607 1868.24,561.297 1870.82,575.157 1873.39,589.172 1875.97,603.329 
  1878.55,617.612 1881.13,632.007 1883.7,646.501 1886.28,661.078 1888.86,675.724 1891.43,690.427 1894.01,705.172 1896.59,719.945 1899.17,734.734 1901.74,749.526 
  1904.32,764.307 1906.9,779.066 1909.48,793.79 1912.05,808.468 1914.63,823.087 1917.21,837.637 1919.78,852.107 1922.36,866.487 1924.94,880.766 1927.52,894.934 
  1930.09,908.983 1932.67,922.903 1935.25,936.685 1937.82,950.322 1940.4,963.806 1942.98,977.13 1945.56,990.285 1948.13,1003.27 1950.71,1016.07 1953.29,1028.68 
  1955.87,1041.11 1958.44,1053.34 1961.02,1065.36 1963.6,1077.18 1966.17,1088.8 1968.75,1100.2 1971.33,1111.39 1973.91,1122.35 1976.48,1133.1 1979.06,1143.63 
  1981.64,1153.93 1984.21,1164.01 1986.79,1173.87 1989.37,1183.49 1991.95,1192.9 1994.52,1202.07 1997.1,1211.02 1999.68,1219.74 2002.25,1228.24 2004.83,1236.52 
  2007.41,1244.57 2009.99,1252.4 2012.56,1260.02 2015.14,1267.41 2017.72,1274.6 2020.3,1281.57 2022.87,1288.33 2025.45,1294.88 2028.03,1301.24 2030.6,1307.39 
  2033.18,1313.34 2035.76,1319.1 2038.34,1324.66 2040.91,1330.04 2043.49,1335.24 2046.07,1340.25 2048.64,1345.09 2051.22,1349.76 2053.8,1354.26 2056.38,1358.59 
  2058.95,1362.76 2061.53,1366.77 2064.11,1370.63 2066.69,1374.34 2069.26,1377.91 2071.84,1381.33 2074.42,1384.62 2076.99,1387.77 2079.57,1390.79 2082.15,1393.69 
  2084.73,1396.47 2087.3,1399.12 2089.88,1401.67 2092.46,1404.1 2095.03,1406.42 2097.61,1408.64 2100.19,1410.76 2102.77,1412.79 2105.34,1414.72 2107.92,1416.56 
  2110.5,1418.32 2113.08,1419.99 2115.65,1421.59 2118.23,1423.1 2120.81,1424.54 2123.38,1425.92 2125.96,1427.22 2128.54,1428.46 2131.12,1429.63 2133.69,1430.75 
  2136.27,1431.8 2138.85,1432.81 2141.42,1433.76 2144,1434.66 2146.58,1435.51 2149.16,1436.31 2151.73,1437.08 2154.31,1437.8 2156.89,1438.48 2159.46,1439.12 
  2162.04,1439.73 2164.62,1440.3 2167.2,1440.84 2169.77,1441.35 2172.35,1441.83 2174.93,1442.28 2177.51,1442.71 2180.08,1443.11 2182.66,1443.48 2185.24,1443.84 
  2187.81,1444.17 2190.39,1444.48 2192.97,1444.77 2195.55,1445.05 2198.12,1445.31 2200.7,1445.55 2203.28,1445.77 2205.85,1445.98 2208.43,1446.18 2211.01,1446.37 
  2213.59,1446.54 2216.16,1446.7 2218.74,1446.85 2221.32,1447 2223.9,1447.13 2226.47,1447.25 2229.05,1447.36 2231.63,1447.47 2234.2,1447.57 2236.78,1447.66 
  2239.36,1447.75 2241.94,1447.83 2244.51,1447.91 2247.09,1447.97 2249.67,1448.04 2252.24,1448.1 2254.82,1448.15 2257.4,1448.21 2259.98,1448.25 2262.55,1448.3 
  2265.13,1448.34 2267.71,1448.38 2270.29,1448.41 2272.86,1448.45 2275.44,1448.48 2278.02,1448.5 2280.59,1448.53 2283.17,1448.55 2285.75,1448.57 2288.33,1448.59 
  2290.9,1448.61 
  "/>
<polygon clip-path="url(#clip2300)" points="
1893.61,447.115 2280.76,447.115 2280.76,205.195 1893.61,205.195 
  " fill="#ffffff" fill-rule="evenodd" fill-opacity="1"/>
<polyline clip-path="url(#clip2300)" style="stroke:#000000; stroke-width:4; stroke-opacity:1; fill:none" points="
  1893.61,447.115 2280.76,447.115 2280.76,205.195 1893.61,205.195 1893.61,447.115 
  "/>
<polyline clip-path="url(#clip2300)" style="stroke:#009af9; stroke-width:4; stroke-opacity:1; fill:none" points="
  1917.61,265.675 2061.61,265.675 
  "/>
<g clip-path="url(#clip2300)">
<text style="fill:#000000; fill-opacity:1; font-family:Arial,Helvetica Neue,Helvetica,sans-serif; font-size:48px; text-anchor:start;" transform="rotate(0, 2085.61, 283.175)" x="2085.61" y="283.175">Data</text>
</g>
<polyline clip-path="url(#clip2300)" style="stroke:#e26f46; stroke-width:4; stroke-opacity:1; fill:none" points="
  1917.61,326.155 2061.61,326.155 
  "/>
<g clip-path="url(#clip2300)">
<text style="fill:#000000; fill-opacity:1; font-family:Arial,Helvetica Neue,Helvetica,sans-serif; font-size:48px; text-anchor:start;" transform="rotate(0, 2085.61, 343.655)" x="2085.61" y="343.655">Truth</text>
</g>
<polyline clip-path="url(#clip2300)" style="stroke:#3da44d; stroke-width:4; stroke-opacity:1; fill:none" points="
  1917.61,386.635 2061.61,386.635 
  "/>
<g clip-path="url(#clip2300)">
<text style="fill:#000000; fill-opacity:1; font-family:Arial,Helvetica Neue,Helvetica,sans-serif; font-size:48px; text-anchor:start;" transform="rotate(0, 2085.61, 404.135)" x="2085.61" y="404.135">Best fit</text>
</g>
</svg>
