<?xml version="1.0" encoding="utf-8"?>
<svg xmlns="http://www.w3.org/2000/svg" xmlns:xlink="http://www.w3.org/1999/xlink" width="600" height="400" viewBox="0 0 2400 1600">
<defs>
  <clipPath id="clip1400">
    <rect x="0" y="0" width="2400" height="1600"/>
  </clipPath>
</defs>
<polygon clip-path="url(#clip1400)" points="
0,1600 2400,1600 2400,0 0,0 
  " fill="#ffffff" fill-rule="evenodd" fill-opacity="1"/>
<defs>
  <clipPath id="clip1401">
    <rect x="480" y="0" width="1681" height="1600"/>
  </clipPath>
</defs>
<polygon clip-path="url(#clip1400)" points="
202.373,1425.62 2352.76,1425.62 2352.76,121.675 202.373,121.675 
  " fill="#ffffff" fill-rule="evenodd" fill-opacity="1"/>
<defs>
  <clipPath id="clip1402">
    <rect x="202" y="121" width="2151" height="1305"/>
  </clipPath>
</defs>
<polyline clip-path="url(#clip1402)" style="stroke:#000000; stroke-width:2; stroke-opacity:0.1; fill:none" points="
  419.284,1425.62 419.284,121.675 
  "/>
<polyline clip-path="url(#clip1402)" style="stroke:#000000; stroke-width:2; stroke-opacity:0.1; fill:none" points="
  939.454,1425.62 939.454,121.675 
  "/>
<polyline clip-path="url(#clip1402)" style="stroke:#000000; stroke-width:2; stroke-opacity:0.1; fill:none" points="
  1459.62,1425.62 1459.62,121.675 
  "/>
<polyline clip-path="url(#clip1402)" style="stroke:#000000; stroke-width:2; stroke-opacity:0.1; fill:none" points="
  1979.79,1425.62 1979.79,121.675 
  "/>
<polyline clip-path="url(#clip1402)" style="stroke:#000000; stroke-width:2; stroke-opacity:0.1; fill:none" points="
  202.373,1388.71 2352.76,1388.71 
  "/>
<polyline clip-path="url(#clip1402)" style="stroke:#000000; stroke-width:2; stroke-opacity:0.1; fill:none" points="
  202.373,1027.55 2352.76,1027.55 
  "/>
<polyline clip-path="url(#clip1402)" style="stroke:#000000; stroke-width:2; stroke-opacity:0.1; fill:none" points="
  202.373,666.379 2352.76,666.379 
  "/>
<polyline clip-path="url(#clip1402)" style="stroke:#000000; stroke-width:2; stroke-opacity:0.1; fill:none" points="
  202.373,305.211 2352.76,305.211 
  "/>
<polyline clip-path="url(#clip1400)" style="stroke:#000000; stroke-width:4; stroke-opacity:1; fill:none" points="
  202.373,1425.62 2352.76,1425.62 
  "/>
<polyline clip-path="url(#clip1400)" style="stroke:#000000; stroke-width:4; stroke-opacity:1; fill:none" points="
  202.373,1425.62 202.373,121.675 
  "/>
<polyline clip-path="url(#clip1400)" style="stroke:#000000; stroke-width:4; stroke-opacity:1; fill:none" points="
  419.284,1425.62 419.284,1406.06 
  "/>
<polyline clip-path="url(#clip1400)" style="stroke:#000000; stroke-width:4; stroke-opacity:1; fill:none" points="
  939.454,1425.62 939.454,1406.06 
  "/>
<polyline clip-path="url(#clip1400)" style="stroke:#000000; stroke-width:4; stroke-opacity:1; fill:none" points="
  1459.62,1425.62 1459.62,1406.06 
  "/>
<polyline clip-path="url(#clip1400)" style="stroke:#000000; stroke-width:4; stroke-opacity:1; fill:none" points="
  1979.79,1425.62 1979.79,1406.06 
  "/>
<polyline clip-path="url(#clip1400)" style="stroke:#000000; stroke-width:4; stroke-opacity:1; fill:none" points="
  202.373,1388.71 234.629,1388.71 
  "/>
<polyline clip-path="url(#clip1400)" style="stroke:#000000; stroke-width:4; stroke-opacity:1; fill:none" points="
  202.373,1027.55 234.629,1027.55 
  "/>
<polyline clip-path="url(#clip1400)" style="stroke:#000000; stroke-width:4; stroke-opacity:1; fill:none" points="
  202.373,666.379 234.629,666.379 
  "/>
<polyline clip-path="url(#clip1400)" style="stroke:#000000; stroke-width:4; stroke-opacity:1; fill:none" points="
  202.373,305.211 234.629,305.211 
  "/>
<g clip-path="url(#clip1400)">
<text style="fill:#000000; fill-opacity:1; font-family:Arial,Helvetica Neue,Helvetica,sans-serif; font-size:48px; text-anchor:middle;" transform="rotate(0, 419.284, 1479.62)" x="419.284" y="1479.62">-1.10</text>
</g>
<g clip-path="url(#clip1400)">
<text style="fill:#000000; fill-opacity:1; font-family:Arial,Helvetica Neue,Helvetica,sans-serif; font-size:48px; text-anchor:middle;" transform="rotate(0, 939.454, 1479.62)" x="939.454" y="1479.62">-1.05</text>
</g>
<g clip-path="url(#clip1400)">
<text style="fill:#000000; fill-opacity:1; font-family:Arial,Helvetica Neue,Helvetica,sans-serif; font-size:48px; text-anchor:middle;" transform="rotate(0, 1459.62, 1479.62)" x="1459.62" y="1479.62">-1.00</text>
</g>
<g clip-path="url(#clip1400)">
<text style="fill:#000000; fill-opacity:1; font-family:Arial,Helvetica Neue,Helvetica,sans-serif; font-size:48px; text-anchor:middle;" transform="rotate(0, 1979.79, 1479.62)" x="1979.79" y="1479.62">-0.95</text>
</g>
<g clip-path="url(#clip1400)">
<text style="fill:#000000; fill-opacity:1; font-family:Arial,Helvetica Neue,Helvetica,sans-serif; font-size:48px; text-anchor:end;" transform="rotate(0, 178.373, 1406.21)" x="178.373" y="1406.21">0</text>
</g>
<g clip-path="url(#clip1400)">
<text style="fill:#000000; fill-opacity:1; font-family:Arial,Helvetica Neue,Helvetica,sans-serif; font-size:48px; text-anchor:end;" transform="rotate(0, 178.373, 1045.05)" x="178.373" y="1045.05">5</text>
</g>
<g clip-path="url(#clip1400)">
<text style="fill:#000000; fill-opacity:1; font-family:Arial,Helvetica Neue,Helvetica,sans-serif; font-size:48px; text-anchor:end;" transform="rotate(0, 178.373, 683.879)" x="178.373" y="683.879">10</text>
</g>
<g clip-path="url(#clip1400)">
<text style="fill:#000000; fill-opacity:1; font-family:Arial,Helvetica Neue,Helvetica,sans-serif; font-size:48px; text-anchor:end;" transform="rotate(0, 178.373, 322.711)" x="178.373" y="322.711">15</text>
</g>
<g clip-path="url(#clip1400)">
<text style="fill:#000000; fill-opacity:1; font-family:Arial,Helvetica Neue,Helvetica,sans-serif; font-size:84px; text-anchor:middle;" transform="rotate(0, 1277.56, 73.2)" x="1277.56" y="73.2">Marginalized Distribution for mu_1</text>
</g>
<g clip-path="url(#clip1400)">
<text style="fill:#000000; fill-opacity:1; font-family:Arial,Helvetica Neue,Helvetica,sans-serif; font-size:66px; text-anchor:middle;" transform="rotate(0, 1277.56, 1559.48)" x="1277.56" y="1559.48">mu_1</text>
</g>
<g clip-path="url(#clip1400)">
<text style="fill:#000000; fill-opacity:1; font-family:Arial,Helvetica Neue,Helvetica,sans-serif; font-size:66px; text-anchor:middle;" transform="rotate(-90, 89.2861, 773.647)" x="89.2861" y="773.647">P(mu_1)</text>
</g>
<polygon clip-path="url(#clip1402)" points="
263.233,1388.71 315.25,1388.71 315.25,1388.71 367.267,1388.71 367.267,1388.71 419.284,1388.71 419.284,1388.71 471.301,1388.71 471.301,1388.71 523.318,1388.71 
  523.318,1372.06 575.335,1372.06 575.335,1367.54 627.352,1367.54 627.352,1342.94 679.369,1342.94 679.369,1315.26 731.386,1315.26 731.386,1257.13 783.403,1257.13 
  783.403,1183.23 835.42,1183.23 835.42,1106.57 887.437,1106.57 887.437,998.811 939.454,998.811 939.454,888.734 991.471,888.734 991.471,717 1043.49,717 
  1043.49,587.621 1095.5,587.621 1095.5,437.946 1147.52,437.946 1147.52,311.545 1199.54,311.545 1199.54,234.336 1251.56,234.336 1251.56,194.408 1303.57,194.408 
  1303.57,209.629 1355.59,209.629 1355.59,259.484 1407.61,259.484 1407.61,372.76 1459.62,372.76 1459.62,475.558 1511.64,475.558 1511.64,646.409 1563.66,646.409 
  1563.66,792.995 1615.67,792.995 1615.67,934.949 1667.69,934.949 1667.69,1079.99 1719.71,1079.99 1719.71,1176.83 1771.73,1176.83 1771.73,1245.77 1823.74,1245.77 
  1823.74,1299.48 1875.76,1299.48 1875.76,1333.57 1927.78,1333.57 1927.78,1362.79 1979.79,1362.79 1979.79,1363.02 2031.81,1363.02 2031.81,1388.71 2083.83,1388.71 
  2083.83,1388.71 2135.84,1388.71 2135.84,1388.71 2187.86,1388.71 2187.86,1388.71 2239.88,1388.71 2239.88,1388.71 2291.9,1388.71 2291.9,1388.71 2291.9,1388.71 
  2291.9,1388.71 2239.88,1388.71 2239.88,1388.71 2187.86,1388.71 2187.86,1388.71 2135.84,1388.71 2135.84,1388.71 2083.83,1388.71 2083.83,1388.71 2031.81,1388.71 
  2031.81,1388.71 1979.79,1388.71 1979.79,1388.71 1927.78,1388.71 1927.78,1388.71 1875.76,1388.71 1875.76,1388.71 1823.74,1388.71 1823.74,1388.71 1771.73,1388.71 
  1771.73,1388.71 1719.71,1388.71 1719.71,1388.71 1667.69,1388.71 1667.69,1388.71 1615.67,1388.71 1615.67,1388.71 1563.66,1388.71 1563.66,1388.71 1511.64,1388.71 
  1511.64,1388.71 1459.62,1388.71 1459.62,1388.71 1407.61,1388.71 1407.61,1388.71 1355.59,1388.71 1355.59,1388.71 1303.57,1388.71 1303.57,1388.71 1251.56,1388.71 
  1251.56,1388.71 1199.54,1388.71 1199.54,1388.71 1147.52,1388.71 1147.52,1388.71 1095.5,1388.71 1095.5,1388.71 1043.49,1388.71 1043.49,1388.71 991.471,1388.71 
  991.471,1388.71 939.454,1388.71 939.454,1388.71 887.437,1388.71 887.437,1388.71 835.42,1388.71 835.42,1388.71 783.403,1388.71 783.403,1388.71 731.386,1388.71 
  731.386,1388.71 679.369,1388.71 679.369,1388.71 627.352,1388.71 627.352,1388.71 575.335,1388.71 575.335,1388.71 523.318,1388.71 523.318,1388.71 471.301,1388.71 
  471.301,1388.71 419.284,1388.71 419.284,1388.71 367.267,1388.71 367.267,1388.71 315.25,1388.71 315.25,1388.71 263.233,1388.71 
  " fill="#ff0000" fill-rule="evenodd" fill-opacity="1"/>
<polyline clip-path="url(#clip1402)" style="stroke:#009af9; stroke-width:0; stroke-opacity:1; fill:none" points="
  263.233,1388.71 315.25,1388.71 367.267,1388.71 419.284,1388.71 471.301,1388.71 523.318,1388.71 
  523.318,1372.06 575.335,1372.06 575.335,1367.54 627.352,1367.54 627.352,1342.94 679.369,1342.94 679.369,1315.26 731.386,1315.26 731.386,1257.13 783.403,1257.13 
  783.403,1183.23 835.42,1183.23 835.42,1106.57 887.437,1106.57 887.437,998.811 939.454,998.811 939.454,888.734 991.471,888.734 991.471,717 1043.49,717 
  1043.49,587.621 1095.5,587.621 1095.5,437.946 1147.52,437.946 1147.52,311.545 1199.54,311.545 1199.54,234.336 1251.56,234.336 1251.56,194.408 1303.57,194.408 
  1303.57,209.629 1355.59,209.629 1355.59,259.484 1407.61,259.484 1407.61,372.76 1459.62,372.76 1459.62,475.558 1511.64,475.558 1511.64,646.409 1563.66,646.409 
  1563.66,792.995 1615.67,792.995 1615.67,934.949 1667.69,934.949 1667.69,1079.99 1719.71,1079.99 1719.71,1176.83 1771.73,1176.83 1771.73,1245.77 1823.74,1245.77 
  1823.74,1299.48 1875.76,1299.48 1875.76,1333.57 1927.78,1333.57 1927.78,1362.79 1979.79,1362.79 1979.79,1363.02 2031.81,1363.02 2031.81,1388.71 2083.83,1388.71 
  2135.84,1388.71 2187.86,1388.71 2239.88,1388.71 2291.9,1388.71 
  "/>
<polygon clip-path="url(#clip1402)" points="
263.233,1388.71 315.25,1388.71 315.25,1388.71 367.267,1388.71 367.267,1388.71 419.284,1388.71 419.284,1388.71 471.301,1388.71 471.301,1388.71 523.318,1388.71 
  523.318,1388.71 575.335,1388.71 575.335,1388.71 627.352,1388.71 627.352,1388.71 679.369,1388.71 679.369,1388.71 731.386,1388.71 731.386,1388.71 783.403,1388.71 
  783.403,1183.23 835.42,1183.23 835.42,1106.57 887.437,1106.57 887.437,998.811 939.454,998.811 939.454,888.734 991.471,888.734 991.471,717 1043.49,717 
  1043.49,587.621 1095.5,587.621 1095.5,437.946 1147.52,437.946 1147.52,311.545 1199.54,311.545 1199.54,234.336 1251.56,234.336 1251.56,194.408 1303.57,194.408 
  1303.57,209.629 1355.59,209.629 1355.59,259.484 1407.61,259.484 1407.61,372.76 1459.62,372.76 1459.62,475.558 1511.64,475.558 1511.64,646.409 1563.66,646.409 
  1563.66,792.995 1615.67,792.995 1615.67,934.949 1667.69,934.949 1667.69,1079.99 1719.71,1079.99 1719.71,1176.83 1771.73,1176.83 1771.73,1245.77 1823.74,1245.77 
  1823.74,1388.71 1875.76,1388.71 1875.76,1388.71 1927.78,1388.71 1927.78,1388.71 1979.79,1388.71 1979.79,1388.71 2031.81,1388.71 2031.81,1388.71 2083.83,1388.71 
  2083.83,1388.71 2135.84,1388.71 2135.84,1388.71 2187.86,1388.71 2187.86,1388.71 2239.88,1388.71 2239.88,1388.71 2291.9,1388.71 2291.9,1388.71 2291.9,1388.71 
  2291.9,1388.71 2239.88,1388.71 2239.88,1388.71 2187.86,1388.71 2187.86,1388.71 2135.84,1388.71 2135.84,1388.71 2083.83,1388.71 2083.83,1388.71 2031.81,1388.71 
  2031.81,1388.71 1979.79,1388.71 1979.79,1388.71 1927.78,1388.71 1927.78,1388.71 1875.76,1388.71 1875.76,1388.71 1823.74,1388.71 1823.74,1388.71 1771.73,1388.71 
  1771.73,1388.71 1719.71,1388.71 1719.71,1388.71 1667.69,1388.71 1667.69,1388.71 1615.67,1388.71 1615.67,1388.71 1563.66,1388.71 1563.66,1388.71 1511.64,1388.71 
  1511.64,1388.71 1459.62,1388.71 1459.62,1388.71 1407.61,1388.71 1407.61,1388.71 1355.59,1388.71 1355.59,1388.71 1303.57,1388.71 1303.57,1388.71 1251.56,1388.71 
  1251.56,1388.71 1199.54,1388.71 1199.54,1388.71 1147.52,1388.71 1147.52,1388.71 1095.5,1388.71 1095.5,1388.71 1043.49,1388.71 1043.49,1388.71 991.471,1388.71 
  991.471,1388.71 939.454,1388.71 939.454,1388.71 887.437,1388.71 887.437,1388.71 835.42,1388.71 835.42,1388.71 783.403,1388.71 783.403,1388.71 731.386,1388.71 
  731.386,1388.71 679.369,1388.71 679.369,1388.71 627.352,1388.71 627.352,1388.71 575.335,1388.71 575.335,1388.71 523.318,1388.71 523.318,1388.71 471.301,1388.71 
  471.301,1388.71 419.284,1388.71 419.284,1388.71 367.267,1388.71 367.267,1388.71 315.25,1388.71 315.25,1388.71 263.233,1388.71 
  " fill="#ffff00" fill-rule="evenodd" fill-opacity="1"/>
<polyline clip-path="url(#clip1402)" style="stroke:#e26f46; stroke-width:0; stroke-opacity:1; fill:none" points="
  263.233,1388.71 315.25,1388.71 367.267,1388.71 419.284,1388.71 471.301,1388.71 523.318,1388.71 
  575.335,1388.71 627.352,1388.71 679.369,1388.71 731.386,1388.71 783.403,1388.71 
  783.403,1183.23 835.42,1183.23 835.42,1106.57 887.437,1106.57 887.437,998.811 939.454,998.811 939.454,888.734 991.471,888.734 991.471,717 1043.49,717 
  1043.49,587.621 1095.5,587.621 1095.5,437.946 1147.52,437.946 1147.52,311.545 1199.54,311.545 1199.54,234.336 1251.56,234.336 1251.56,194.408 1303.57,194.408 
  1303.57,209.629 1355.59,209.629 1355.59,259.484 1407.61,259.484 1407.61,372.76 1459.62,372.76 1459.62,475.558 1511.64,475.558 1511.64,646.409 1563.66,646.409 
  1563.66,792.995 1615.67,792.995 1615.67,934.949 1667.69,934.949 1667.69,1079.99 1719.71,1079.99 1719.71,1176.83 1771.73,1176.83 1771.73,1245.77 1823.74,1245.77 
  1823.74,1388.71 1875.76,1388.71 1927.78,1388.71 1979.79,1388.71 2031.81,1388.71 2083.83,1388.71 
  2135.84,1388.71 2187.86,1388.71 2239.88,1388.71 2291.9,1388.71 
  "/>
<polygon clip-path="url(#clip1402)" points="
263.233,1388.71 315.25,1388.71 315.25,1388.71 367.267,1388.71 367.267,1388.71 419.284,1388.71 419.284,1388.71 471.301,1388.71 471.301,1388.71 523.318,1388.71 
  523.318,1388.71 575.335,1388.71 575.335,1388.71 627.352,1388.71 627.352,1388.71 679.369,1388.71 679.369,1388.71 731.386,1388.71 731.386,1388.71 783.403,1388.71 
  783.403,1388.71 835.42,1388.71 835.42,1388.71 887.437,1388.71 887.437,1388.71 939.454,1388.71 939.454,1388.71 991.471,1388.71 991.471,1388.71 1043.49,1388.71 
  1043.49,587.621 1095.5,587.621 1095.5,437.946 1147.52,437.946 1147.52,311.545 1199.54,311.545 1199.54,234.336 1251.56,234.336 1251.56,194.408 1303.57,194.408 
  1303.57,209.629 1355.59,209.629 1355.59,259.484 1407.61,259.484 1407.61,372.76 1459.62,372.76 1459.62,475.558 1511.64,475.558 1511.64,646.409 1563.66,646.409 
  1563.66,1388.71 1615.67,1388.71 1615.67,1388.71 1667.69,1388.71 1667.69,1388.71 1719.71,1388.71 1719.71,1388.71 1771.73,1388.71 1771.73,1388.71 1823.74,1388.71 
  1823.74,1388.71 1875.76,1388.71 1875.76,1388.71 1927.78,1388.71 1927.78,1388.71 1979.79,1388.71 1979.79,1388.71 2031.81,1388.71 2031.81,1388.71 2083.83,1388.71 
  2083.83,1388.71 2135.84,1388.71 2135.84,1388.71 2187.86,1388.71 2187.86,1388.71 2239.88,1388.71 2239.88,1388.71 2291.9,1388.71 2291.9,1388.71 2291.9,1388.71 
  2291.9,1388.71 2239.88,1388.71 2239.88,1388.71 2187.86,1388.71 2187.86,1388.71 2135.84,1388.71 2135.84,1388.71 2083.83,1388.71 2083.83,1388.71 2031.81,1388.71 
  2031.81,1388.71 1979.79,1388.71 1979.79,1388.71 1927.78,1388.71 1927.78,1388.71 1875.76,1388.71 1875.76,1388.71 1823.74,1388.71 1823.74,1388.71 1771.73,1388.71 
  1771.73,1388.71 1719.71,1388.71 1719.71,1388.71 1667.69,1388.71 1667.69,1388.71 1615.67,1388.71 1615.67,1388.71 1563.66,1388.71 1563.66,1388.71 1511.64,1388.71 
  1511.64,1388.71 1459.62,1388.71 1459.62,1388.71 1407.61,1388.71 1407.61,1388.71 1355.59,1388.71 1355.59,1388.71 1303.57,1388.71 1303.57,1388.71 1251.56,1388.71 
  1251.56,1388.71 1199.54,1388.71 1199.54,1388.71 1147.52,1388.71 1147.52,1388.71 1095.5,1388.71 1095.5,1388.71 1043.49,1388.71 1043.49,1388.71 991.471,1388.71 
  991.471,1388.71 939.454,1388.71 939.454,1388.71 887.437,1388.71 887.437,1388.71 835.42,1388.71 835.42,1388.71 783.403,1388.71 783.403,1388.71 731.386,1388.71 
  731.386,1388.71 679.369,1388.71 679.369,1388.71 627.352,1388.71 627.352,1388.71 575.335,1388.71 575.335,1388.71 523.318,1388.71 523.318,1388.71 471.301,1388.71 
  471.301,1388.71 419.284,1388.71 419.284,1388.71 367.267,1388.71 367.267,1388.71 315.25,1388.71 315.25,1388.71 263.233,1388.71 
  " fill="#76ee00" fill-rule="evenodd" fill-opacity="1"/>
<polyline clip-path="url(#clip1402)" style="stroke:#3da44d; stroke-width:0; stroke-opacity:1; fill:none" points="
  263.233,1388.71 315.25,1388.71 367.267,1388.71 419.284,1388.71 471.301,1388.71 523.318,1388.71 
  575.335,1388.71 627.352,1388.71 679.369,1388.71 731.386,1388.71 783.403,1388.71 
  835.42,1388.71 887.437,1388.71 939.454,1388.71 991.471,1388.71 1043.49,1388.71 
  1043.49,587.621 1095.5,587.621 1095.5,437.946 1147.52,437.946 1147.52,311.545 1199.54,311.545 1199.54,234.336 1251.56,234.336 1251.56,194.408 1303.57,194.408 
  1303.57,209.629 1355.59,209.629 1355.59,259.484 1407.61,259.484 1407.61,372.76 1459.62,372.76 1459.62,475.558 1511.64,475.558 1511.64,646.409 1563.66,646.409 
  1563.66,1388.71 1615.67,1388.71 1667.69,1388.71 1719.71,1388.71 1771.73,1388.71 1823.74,1388.71 
  1875.76,1388.71 1927.78,1388.71 1979.79,1388.71 2031.81,1388.71 2083.83,1388.71 
  2135.84,1388.71 2187.86,1388.71 2239.88,1388.71 2291.9,1388.71 
  "/>
<polyline clip-path="url(#clip1402)" style="stroke:#000000; stroke-width:2.8; stroke-opacity:1; fill:none" points="
  263.233,1388.27 315.25,1388.27 315.25,1388.05 367.267,1388.05 367.267,1385.96 419.284,1385.96 419.284,1384.96 471.301,1384.96 471.301,1382.1 523.318,1382.1 
  523.318,1372.06 575.335,1372.06 575.335,1367.54 627.352,1367.54 627.352,1342.94 679.369,1342.94 679.369,1315.26 731.386,1315.26 731.386,1257.13 783.403,1257.13 
  783.403,1183.23 835.42,1183.23 835.42,1106.57 887.437,1106.57 887.437,998.811 939.454,998.811 939.454,888.734 991.471,888.734 991.471,717 1043.49,717 
  1043.49,587.621 1095.5,587.621 1095.5,437.946 1147.52,437.946 1147.52,311.545 1199.54,311.545 1199.54,234.336 1251.56,234.336 1251.56,194.408 1303.57,194.408 
  1303.57,209.629 1355.59,209.629 1355.59,259.484 1407.61,259.484 1407.61,372.76 1459.62,372.76 1459.62,475.558 1511.64,475.558 1511.64,646.409 1563.66,646.409 
  1563.66,792.995 1615.67,792.995 1615.67,934.949 1667.69,934.949 1667.69,1079.99 1719.71,1079.99 1719.71,1176.83 1771.73,1176.83 1771.73,1245.77 1823.74,1245.77 
  1823.74,1299.48 1875.76,1299.48 1875.76,1333.57 1927.78,1333.57 1927.78,1362.79 1979.79,1362.79 1979.79,1363.02 2031.81,1363.02 2031.81,1375.81 2083.83,1375.81 
  2083.83,1381.77 2135.84,1381.77 2135.84,1385.63 2187.86,1385.63 2187.86,1386.4 2239.88,1386.4 2239.88,1387.5 2291.9,1387.5 2291.9,1387.06 
  "/>
<polygon clip-path="url(#clip1402)" points="
1040.05,1388.71 1538.15,1388.71 1538.15,158.579 1040.05,158.579 1040.05,1388.71 
  " fill="#808080" fill-rule="evenodd" fill-opacity="0.5"/>
<polyline clip-path="url(#clip1402)" style="stroke:#000000; stroke-width:0; stroke-opacity:1; fill:none" points="
  1040.05,1388.71 1538.15,1388.71 1538.15,158.579 1040.05,158.579 1040.05,1388.71 
  "/>
<polyline clip-path="url(#clip1402)" style="stroke:#696969; stroke-width:4; stroke-opacity:1; fill:none" points="
  1289.1,1388.71 1289.1,158.579 
  "/>
<polyline clip-path="url(#clip1402)" style="stroke:#000000; stroke-width:4; stroke-opacity:1; fill:none" stroke-dasharray="16, 10" points="
  1274.21,1388.71 1274.21,158.579 
  "/>
<polyline clip-path="url(#clip1402)" style="stroke:#000000; stroke-width:4; stroke-opacity:1; fill:none" stroke-dasharray="2, 4" points="
  1277.56,1388.71 1277.56,158.579 
  "/>
<polygon clip-path="url(#clip1400)" points="
1463.01,689.035 2280.76,689.035 2280.76,205.195 1463.01,205.195 
  " fill="#ffffff" fill-rule="evenodd" fill-opacity="1"/>
<polyline clip-path="url(#clip1400)" style="stroke:#000000; stroke-width:4; stroke-opacity:1; fill:none" points="
  1463.01,689.035 2280.76,689.035 2280.76,205.195 1463.01,205.195 1463.01,689.035 
  "/>
<polygon clip-path="url(#clip1400)" points="
1487.01,289.867 1631.01,289.867 1631.01,241.483 1487.01,241.483 1487.01,289.867 
  " fill="#ff0000" fill-rule="evenodd" fill-opacity="1"/>
<polyline clip-path="url(#clip1400)" style="stroke:#009af9; stroke-width:0; stroke-opacity:1; fill:none" points="
  1487.01,241.483 1631.01,241.483 
  "/>
<g clip-path="url(#clip1400)">
<text style="fill:#000000; fill-opacity:1; font-family:Arial,Helvetica Neue,Helvetica,sans-serif; font-size:48px; text-anchor:start;" transform="rotate(0, 1655.01, 283.175)" x="1655.01" y="283.175">smallest 99.71% interval(s)</text>
</g>
<polygon clip-path="url(#clip1400)" points="
1487.01,350.347 1631.01,350.347 1631.01,301.963 1487.01,301.963 1487.01,350.347 
  " fill="#ffff00" fill-rule="evenodd" fill-opacity="1"/>
<polyline clip-path="url(#clip1400)" style="stroke:#e26f46; stroke-width:0; stroke-opacity:1; fill:none" points="
  1487.01,301.963 1631.01,301.963 
  "/>
<g clip-path="url(#clip1400)">
<text style="fill:#000000; fill-opacity:1; font-family:Arial,Helvetica Neue,Helvetica,sans-serif; font-size:48px; text-anchor:start;" transform="rotate(0, 1655.01, 343.655)" x="1655.01" y="343.655">smallest 96.35% interval(s)</text>
</g>
<polygon clip-path="url(#clip1400)" points="
1487.01,410.827 1631.01,410.827 1631.01,362.443 1487.01,362.443 1487.01,410.827 
  " fill="#76ee00" fill-rule="evenodd" fill-opacity="1"/>
<polyline clip-path="url(#clip1400)" style="stroke:#3da44d; stroke-width:0; stroke-opacity:1; fill:none" points="
  1487.01,362.443 1631.01,362.443 
  "/>
<g clip-path="url(#clip1400)">
<text style="fill:#000000; fill-opacity:1; font-family:Arial,Helvetica Neue,Helvetica,sans-serif; font-size:48px; text-anchor:start;" transform="rotate(0, 1655.01, 404.135)" x="1655.01" y="404.135">smallest 70.31% interval(s)</text>
</g>
<polygon clip-path="url(#clip1400)" points="
1487.01,471.307 1631.01,471.307 1631.01,422.923 1487.01,422.923 1487.01,471.307 
  " fill="#808080" fill-rule="evenodd" fill-opacity="0.5"/>
<polyline clip-path="url(#clip1400)" style="stroke:#000000; stroke-width:0; stroke-opacity:1; fill:none" points="
  1487.01,471.307 1631.01,471.307 1631.01,422.923 1487.01,422.923 1487.01,471.307 
  "/>
<g clip-path="url(#clip1400)">
<text style="fill:#000000; fill-opacity:1; font-family:Arial,Helvetica Neue,Helvetica,sans-serif; font-size:48px; text-anchor:start;" transform="rotate(0, 1655.01, 464.615)" x="1655.01" y="464.615">std. dev.</text>
</g>
<polyline clip-path="url(#clip1400)" style="stroke:#696969; stroke-width:4; stroke-opacity:1; fill:none" points="
  1487.01,507.595 1631.01,507.595 
  "/>
<g clip-path="url(#clip1400)">
<text style="fill:#000000; fill-opacity:1; font-family:Arial,Helvetica Neue,Helvetica,sans-serif; font-size:48px; text-anchor:start;" transform="rotate(0, 1655.01, 525.095)" x="1655.01" y="525.095">mean</text>
</g>
<polyline clip-path="url(#clip1400)" style="stroke:#000000; stroke-width:4; stroke-opacity:1; fill:none" stroke-dasharray="16, 10" points="
  1487.01,568.075 1631.01,568.075 
  "/>
<g clip-path="url(#clip1400)">
<text style="fill:#000000; fill-opacity:1; font-family:Arial,Helvetica Neue,Helvetica,sans-serif; font-size:48px; text-anchor:start;" transform="rotate(0, 1655.01, 585.575)" x="1655.01" y="585.575">global mode</text>
</g>
<polyline clip-path="url(#clip1400)" style="stroke:#000000; stroke-width:4; stroke-opacity:1; fill:none" stroke-dasharray="2, 4" points="
  1487.01,628.555 1631.01,628.555 
  "/>
<g clip-path="url(#clip1400)">
<text style="fill:#000000; fill-opacity:1; font-family:Arial,Helvetica Neue,Helvetica,sans-serif; font-size:48px; text-anchor:start;" transform="rotate(0, 1655.01, 646.055)" x="1655.01" y="646.055">local mode</text>
</g>
</svg>
