<?xml version="1.0" encoding="utf-8"?>
<svg xmlns="http://www.w3.org/2000/svg" xmlns:xlink="http://www.w3.org/1999/xlink" width="600" height="400" viewBox="0 0 2400 1600">
<defs>
  <clipPath id="clip660">
    <rect x="0" y="0" width="2400" height="1600"/>
  </clipPath>
</defs>
<path clip-path="url(#clip660)" d="
M0 1600 L2400 1600 L2400 0 L0 0  Z
  " fill="#ffffff" fill-rule="evenodd" fill-opacity="1"/>
<defs>
  <clipPath id="clip661">
    <rect x="480" y="0" width="1681" height="1600"/>
  </clipPath>
</defs>
<path clip-path="url(#clip660)" d="
M172.015 1486.45 L2352.76 1486.45 L2352.76 123.472 L172.015 123.472  Z
  " fill="#ffffff" fill-rule="evenodd" fill-opacity="1"/>
<defs>
  <clipPath id="clip662">
    <rect x="172" y="123" width="2182" height="1364"/>
  </clipPath>
</defs>
<polyline clip-path="url(#clip662)" style="stroke:#000000; stroke-linecap:butt; stroke-linejoin:round; stroke-width:2; stroke-opacity:0.1; fill:none" points="
  233.734,1486.45 233.734,123.472 
  "/>
<polyline clip-path="url(#clip662)" style="stroke:#000000; stroke-linecap:butt; stroke-linejoin:round; stroke-width:2; stroke-opacity:0.1; fill:none" points="
  748.06,1486.45 748.06,123.472 
  "/>
<polyline clip-path="url(#clip662)" style="stroke:#000000; stroke-linecap:butt; stroke-linejoin:round; stroke-width:2; stroke-opacity:0.1; fill:none" points="
  1262.39,1486.45 1262.39,123.472 
  "/>
<polyline clip-path="url(#clip662)" style="stroke:#000000; stroke-linecap:butt; stroke-linejoin:round; stroke-width:2; stroke-opacity:0.1; fill:none" points="
  1776.71,1486.45 1776.71,123.472 
  "/>
<polyline clip-path="url(#clip662)" style="stroke:#000000; stroke-linecap:butt; stroke-linejoin:round; stroke-width:2; stroke-opacity:0.1; fill:none" points="
  2291.04,1486.45 2291.04,123.472 
  "/>
<polyline clip-path="url(#clip660)" style="stroke:#000000; stroke-linecap:butt; stroke-linejoin:round; stroke-width:4; stroke-opacity:1; fill:none" points="
  172.015,1486.45 2352.76,1486.45 
  "/>
<polyline clip-path="url(#clip660)" style="stroke:#000000; stroke-linecap:butt; stroke-linejoin:round; stroke-width:4; stroke-opacity:1; fill:none" points="
  233.734,1486.45 233.734,1467.55 
  "/>
<polyline clip-path="url(#clip660)" style="stroke:#000000; stroke-linecap:butt; stroke-linejoin:round; stroke-width:4; stroke-opacity:1; fill:none" points="
  748.06,1486.45 748.06,1467.55 
  "/>
<polyline clip-path="url(#clip660)" style="stroke:#000000; stroke-linecap:butt; stroke-linejoin:round; stroke-width:4; stroke-opacity:1; fill:none" points="
  1262.39,1486.45 1262.39,1467.55 
  "/>
<polyline clip-path="url(#clip660)" style="stroke:#000000; stroke-linecap:butt; stroke-linejoin:round; stroke-width:4; stroke-opacity:1; fill:none" points="
  1776.71,1486.45 1776.71,1467.55 
  "/>
<polyline clip-path="url(#clip660)" style="stroke:#000000; stroke-linecap:butt; stroke-linejoin:round; stroke-width:4; stroke-opacity:1; fill:none" points="
  2291.04,1486.45 2291.04,1467.55 
  "/>
<path clip-path="url(#clip660)" d="M202.635 1530.29 L232.31 1530.29 L232.31 1534.23 L202.635 1534.23 L202.635 1530.29 Z" fill="#000000" fill-rule="evenodd" fill-opacity="1" /><path clip-path="url(#clip660)" d="M255.25 1516.63 L243.445 1535.08 L255.25 1535.08 L255.25 1516.63 M254.023 1512.56 L259.903 1512.56 L259.903 1535.08 L264.833 1535.08 L264.833 1538.97 L259.903 1538.97 L259.903 1547.12 L255.25 1547.12 L255.25 1538.97 L239.648 1538.97 L239.648 1534.46 L254.023 1512.56 Z" fill="#000000" fill-rule="evenodd" fill-opacity="1" /><path clip-path="url(#clip660)" d="M718.002 1530.29 L747.678 1530.29 L747.678 1534.23 L718.002 1534.23 L718.002 1530.29 Z" fill="#000000" fill-rule="evenodd" fill-opacity="1" /><path clip-path="url(#clip660)" d="M761.798 1543.18 L778.117 1543.18 L778.117 1547.12 L756.173 1547.12 L756.173 1543.18 Q758.835 1540.43 763.418 1535.8 Q768.025 1531.15 769.205 1529.81 Q771.451 1527.28 772.33 1525.55 Q773.233 1523.79 773.233 1522.1 Q773.233 1519.34 771.289 1517.61 Q769.367 1515.87 766.266 1515.87 Q764.066 1515.87 761.613 1516.63 Q759.182 1517.4 756.404 1518.95 L756.404 1514.23 Q759.229 1513.09 761.682 1512.51 Q764.136 1511.93 766.173 1511.93 Q771.543 1511.93 774.738 1514.62 Q777.932 1517.31 777.932 1521.8 Q777.932 1523.93 777.122 1525.85 Q776.335 1527.74 774.228 1530.34 Q773.65 1531.01 770.548 1534.23 Q767.446 1537.42 761.798 1543.18 Z" fill="#000000" fill-rule="evenodd" fill-opacity="1" /><path clip-path="url(#clip660)" d="M1262.39 1515.64 Q1258.77 1515.64 1256.95 1519.2 Q1255.14 1522.75 1255.14 1529.87 Q1255.14 1536.98 1256.95 1540.55 Q1258.77 1544.09 1262.39 1544.09 Q1266.02 1544.09 1267.83 1540.55 Q1269.65 1536.98 1269.65 1529.87 Q1269.65 1522.75 1267.83 1519.2 Q1266.02 1515.64 1262.39 1515.64 M1262.39 1511.93 Q1268.2 1511.93 1271.25 1516.54 Q1274.33 1521.12 1274.33 1529.87 Q1274.33 1538.6 1271.25 1543.21 Q1268.2 1547.79 1262.39 1547.79 Q1256.58 1547.79 1253.5 1543.21 Q1250.44 1538.6 1250.44 1529.87 Q1250.44 1521.12 1253.5 1516.54 Q1256.58 1511.93 1262.39 1511.93 Z" fill="#000000" fill-rule="evenodd" fill-opacity="1" /><path clip-path="url(#clip660)" d="M1771.36 1543.18 L1787.68 1543.18 L1787.68 1547.12 L1765.74 1547.12 L1765.74 1543.18 Q1768.4 1540.43 1772.98 1535.8 Q1777.59 1531.15 1778.77 1529.81 Q1781.02 1527.28 1781.9 1525.55 Q1782.8 1523.79 1782.8 1522.1 Q1782.8 1519.34 1780.85 1517.61 Q1778.93 1515.87 1775.83 1515.87 Q1773.63 1515.87 1771.18 1516.63 Q1768.75 1517.4 1765.97 1518.95 L1765.97 1514.23 Q1768.79 1513.09 1771.25 1512.51 Q1773.7 1511.93 1775.74 1511.93 Q1781.11 1511.93 1784.3 1514.62 Q1787.5 1517.31 1787.5 1521.8 Q1787.5 1523.93 1786.69 1525.85 Q1785.9 1527.74 1783.79 1530.34 Q1783.22 1531.01 1780.11 1534.23 Q1777.01 1537.42 1771.36 1543.18 Z" fill="#000000" fill-rule="evenodd" fill-opacity="1" /><path clip-path="url(#clip660)" d="M2294.05 1516.63 L2282.24 1535.08 L2294.05 1535.08 L2294.05 1516.63 M2292.82 1512.56 L2298.7 1512.56 L2298.7 1535.08 L2303.63 1535.08 L2303.63 1538.97 L2298.7 1538.97 L2298.7 1547.12 L2294.05 1547.12 L2294.05 1538.97 L2278.44 1538.97 L2278.44 1534.46 L2292.82 1512.56 Z" fill="#000000" fill-rule="evenodd" fill-opacity="1" /><polyline clip-path="url(#clip662)" style="stroke:#000000; stroke-linecap:butt; stroke-linejoin:round; stroke-width:2; stroke-opacity:0.1; fill:none" points="
  172.015,1447.87 2352.76,1447.87 
  "/>
<polyline clip-path="url(#clip662)" style="stroke:#000000; stroke-linecap:butt; stroke-linejoin:round; stroke-width:2; stroke-opacity:0.1; fill:none" points="
  172.015,1168.35 2352.76,1168.35 
  "/>
<polyline clip-path="url(#clip662)" style="stroke:#000000; stroke-linecap:butt; stroke-linejoin:round; stroke-width:2; stroke-opacity:0.1; fill:none" points="
  172.015,888.818 2352.76,888.818 
  "/>
<polyline clip-path="url(#clip662)" style="stroke:#000000; stroke-linecap:butt; stroke-linejoin:round; stroke-width:2; stroke-opacity:0.1; fill:none" points="
  172.015,609.291 2352.76,609.291 
  "/>
<polyline clip-path="url(#clip662)" style="stroke:#000000; stroke-linecap:butt; stroke-linejoin:round; stroke-width:2; stroke-opacity:0.1; fill:none" points="
  172.015,329.763 2352.76,329.763 
  "/>
<polyline clip-path="url(#clip660)" style="stroke:#000000; stroke-linecap:butt; stroke-linejoin:round; stroke-width:4; stroke-opacity:1; fill:none" points="
  172.015,1486.45 172.015,123.472 
  "/>
<polyline clip-path="url(#clip660)" style="stroke:#000000; stroke-linecap:butt; stroke-linejoin:round; stroke-width:4; stroke-opacity:1; fill:none" points="
  172.015,1447.87 190.912,1447.87 
  "/>
<polyline clip-path="url(#clip660)" style="stroke:#000000; stroke-linecap:butt; stroke-linejoin:round; stroke-width:4; stroke-opacity:1; fill:none" points="
  172.015,1168.35 190.912,1168.35 
  "/>
<polyline clip-path="url(#clip660)" style="stroke:#000000; stroke-linecap:butt; stroke-linejoin:round; stroke-width:4; stroke-opacity:1; fill:none" points="
  172.015,888.818 190.912,888.818 
  "/>
<polyline clip-path="url(#clip660)" style="stroke:#000000; stroke-linecap:butt; stroke-linejoin:round; stroke-width:4; stroke-opacity:1; fill:none" points="
  172.015,609.291 190.912,609.291 
  "/>
<polyline clip-path="url(#clip660)" style="stroke:#000000; stroke-linecap:butt; stroke-linejoin:round; stroke-width:4; stroke-opacity:1; fill:none" points="
  172.015,329.763 190.912,329.763 
  "/>
<path clip-path="url(#clip660)" d="M124.07 1433.67 Q120.459 1433.67 118.631 1437.24 Q116.825 1440.78 116.825 1447.91 Q116.825 1455.01 118.631 1458.58 Q120.459 1462.12 124.07 1462.12 Q127.705 1462.12 129.51 1458.58 Q131.339 1455.01 131.339 1447.91 Q131.339 1440.78 129.51 1437.24 Q127.705 1433.67 124.07 1433.67 M124.07 1429.97 Q129.881 1429.97 132.936 1434.57 Q136.015 1439.16 136.015 1447.91 Q136.015 1456.63 132.936 1461.24 Q129.881 1465.82 124.07 1465.82 Q118.26 1465.82 115.182 1461.24 Q112.126 1456.63 112.126 1447.91 Q112.126 1439.16 115.182 1434.57 Q118.26 1429.97 124.07 1429.97 Z" fill="#000000" fill-rule="evenodd" fill-opacity="1" /><path clip-path="url(#clip660)" d="M57.7745 1181.69 L74.0939 1181.69 L74.0939 1185.63 L52.1495 1185.63 L52.1495 1181.69 Q54.8115 1178.94 59.3949 1174.31 Q64.0013 1169.65 65.1819 1168.31 Q67.4272 1165.79 68.3068 1164.05 Q69.2096 1162.29 69.2096 1160.6 Q69.2096 1157.85 67.2652 1156.11 Q65.3439 1154.38 62.2421 1154.38 Q60.043 1154.38 57.5893 1155.14 Q55.1588 1155.9 52.381 1157.45 L52.381 1152.73 Q55.2051 1151.6 57.6588 1151.02 Q60.1124 1150.44 62.1495 1150.44 Q67.5198 1150.44 70.7142 1153.13 Q73.9087 1155.81 73.9087 1160.3 Q73.9087 1162.43 73.0985 1164.35 Q72.3115 1166.25 70.205 1168.84 Q69.6263 1169.51 66.5245 1172.73 Q63.4226 1175.93 57.7745 1181.69 Z" fill="#000000" fill-rule="evenodd" fill-opacity="1" /><path clip-path="url(#clip660)" d="M93.9086 1154.14 Q90.2975 1154.14 88.4688 1157.71 Q86.6632 1161.25 86.6632 1168.38 Q86.6632 1175.49 88.4688 1179.05 Q90.2975 1182.59 93.9086 1182.59 Q97.5428 1182.59 99.3483 1179.05 Q101.177 1175.49 101.177 1168.38 Q101.177 1161.25 99.3483 1157.71 Q97.5428 1154.14 93.9086 1154.14 M93.9086 1150.44 Q99.7187 1150.44 102.774 1155.05 Q105.853 1159.63 105.853 1168.38 Q105.853 1177.11 102.774 1181.71 Q99.7187 1186.3 93.9086 1186.3 Q88.0984 1186.3 85.0197 1181.71 Q81.9642 1177.11 81.9642 1168.38 Q81.9642 1159.63 85.0197 1155.05 Q88.0984 1150.44 93.9086 1150.44 Z" fill="#000000" fill-rule="evenodd" fill-opacity="1" /><path clip-path="url(#clip660)" d="M124.07 1154.14 Q120.459 1154.14 118.631 1157.71 Q116.825 1161.25 116.825 1168.38 Q116.825 1175.49 118.631 1179.05 Q120.459 1182.59 124.07 1182.59 Q127.705 1182.59 129.51 1179.05 Q131.339 1175.49 131.339 1168.38 Q131.339 1161.25 129.51 1157.71 Q127.705 1154.14 124.07 1154.14 M124.07 1150.44 Q129.881 1150.44 132.936 1155.05 Q136.015 1159.63 136.015 1168.38 Q136.015 1177.11 132.936 1181.71 Q129.881 1186.3 124.07 1186.3 Q118.26 1186.3 115.182 1181.71 Q112.126 1177.11 112.126 1168.38 Q112.126 1159.63 115.182 1155.05 Q118.26 1150.44 124.07 1150.44 Z" fill="#000000" fill-rule="evenodd" fill-opacity="1" /><path clip-path="url(#clip660)" d="M66.5939 875.612 L54.7884 894.061 L66.5939 894.061 L66.5939 875.612 M65.367 871.538 L71.2466 871.538 L71.2466 894.061 L76.1772 894.061 L76.1772 897.95 L71.2466 897.95 L71.2466 906.098 L66.5939 906.098 L66.5939 897.95 L50.9921 897.95 L50.9921 893.436 L65.367 871.538 Z" fill="#000000" fill-rule="evenodd" fill-opacity="1" /><path clip-path="url(#clip660)" d="M93.9086 874.617 Q90.2975 874.617 88.4688 878.182 Q86.6632 881.723 86.6632 888.853 Q86.6632 895.959 88.4688 899.524 Q90.2975 903.066 93.9086 903.066 Q97.5428 903.066 99.3483 899.524 Q101.177 895.959 101.177 888.853 Q101.177 881.723 99.3483 878.182 Q97.5428 874.617 93.9086 874.617 M93.9086 870.913 Q99.7187 870.913 102.774 875.52 Q105.853 880.103 105.853 888.853 Q105.853 897.58 102.774 902.186 Q99.7187 906.77 93.9086 906.77 Q88.0984 906.77 85.0197 902.186 Q81.9642 897.58 81.9642 888.853 Q81.9642 880.103 85.0197 875.52 Q88.0984 870.913 93.9086 870.913 Z" fill="#000000" fill-rule="evenodd" fill-opacity="1" /><path clip-path="url(#clip660)" d="M124.07 874.617 Q120.459 874.617 118.631 878.182 Q116.825 881.723 116.825 888.853 Q116.825 895.959 118.631 899.524 Q120.459 903.066 124.07 903.066 Q127.705 903.066 129.51 899.524 Q131.339 895.959 131.339 888.853 Q131.339 881.723 129.51 878.182 Q127.705 874.617 124.07 874.617 M124.07 870.913 Q129.881 870.913 132.936 875.52 Q136.015 880.103 136.015 888.853 Q136.015 897.58 132.936 902.186 Q129.881 906.77 124.07 906.77 Q118.26 906.77 115.182 902.186 Q112.126 897.58 112.126 888.853 Q112.126 880.103 115.182 875.52 Q118.26 870.913 124.07 870.913 Z" fill="#000000" fill-rule="evenodd" fill-opacity="1" /><path clip-path="url(#clip660)" d="M64.3254 607.427 Q61.1773 607.427 59.3254 609.58 Q57.4967 611.733 57.4967 615.483 Q57.4967 619.21 59.3254 621.386 Q61.1773 623.538 64.3254 623.538 Q67.4735 623.538 69.3022 621.386 Q71.1541 619.21 71.1541 615.483 Q71.1541 611.733 69.3022 609.58 Q67.4735 607.427 64.3254 607.427 M73.6077 592.775 L73.6077 597.034 Q71.8485 596.201 70.0429 595.761 Q68.2606 595.321 66.5013 595.321 Q61.8717 595.321 59.418 598.446 Q56.9875 601.571 56.6402 607.89 Q58.006 605.876 60.0662 604.812 Q62.1263 603.724 64.6032 603.724 Q69.8115 603.724 72.8207 606.895 Q75.8531 610.043 75.8531 615.483 Q75.8531 620.807 72.705 624.025 Q69.5568 627.242 64.3254 627.242 Q58.33 627.242 55.1588 622.659 Q51.9875 618.052 51.9875 609.326 Q51.9875 601.131 55.8764 596.27 Q59.7652 591.386 66.3161 591.386 Q68.0754 591.386 69.8578 591.733 Q71.6633 592.08 73.6077 592.775 Z" fill="#000000" fill-rule="evenodd" fill-opacity="1" /><path clip-path="url(#clip660)" d="M93.9086 595.089 Q90.2975 595.089 88.4688 598.654 Q86.6632 602.196 86.6632 609.326 Q86.6632 616.432 88.4688 619.997 Q90.2975 623.538 93.9086 623.538 Q97.5428 623.538 99.3483 619.997 Q101.177 616.432 101.177 609.326 Q101.177 602.196 99.3483 598.654 Q97.5428 595.089 93.9086 595.089 M93.9086 591.386 Q99.7187 591.386 102.774 595.992 Q105.853 600.576 105.853 609.326 Q105.853 618.052 102.774 622.659 Q99.7187 627.242 93.9086 627.242 Q88.0984 627.242 85.0197 622.659 Q81.9642 618.052 81.9642 609.326 Q81.9642 600.576 85.0197 595.992 Q88.0984 591.386 93.9086 591.386 Z" fill="#000000" fill-rule="evenodd" fill-opacity="1" /><path clip-path="url(#clip660)" d="M124.07 595.089 Q120.459 595.089 118.631 598.654 Q116.825 602.196 116.825 609.326 Q116.825 616.432 118.631 619.997 Q120.459 623.538 124.07 623.538 Q127.705 623.538 129.51 619.997 Q131.339 616.432 131.339 609.326 Q131.339 602.196 129.51 598.654 Q127.705 595.089 124.07 595.089 M124.07 591.386 Q129.881 591.386 132.936 595.992 Q136.015 600.576 136.015 609.326 Q136.015 618.052 132.936 622.659 Q129.881 627.242 124.07 627.242 Q118.26 627.242 115.182 622.659 Q112.126 618.052 112.126 609.326 Q112.126 600.576 115.182 595.992 Q118.26 591.386 124.07 591.386 Z" fill="#000000" fill-rule="evenodd" fill-opacity="1" /><path clip-path="url(#clip660)" d="M63.7467 330.631 Q60.4134 330.631 58.4921 332.414 Q56.5939 334.196 56.5939 337.321 Q56.5939 340.446 58.4921 342.229 Q60.4134 344.011 63.7467 344.011 Q67.08 344.011 69.0013 342.229 Q70.9226 340.423 70.9226 337.321 Q70.9226 334.196 69.0013 332.414 Q67.1032 330.631 63.7467 330.631 M59.0708 328.641 Q56.0615 327.9 54.3717 325.84 Q52.7051 323.78 52.7051 320.817 Q52.7051 316.673 55.6449 314.266 Q58.6078 311.858 63.7467 311.858 Q68.9087 311.858 71.8485 314.266 Q74.7883 316.673 74.7883 320.817 Q74.7883 323.78 73.0985 325.84 Q71.4318 327.9 68.4457 328.641 Q71.8253 329.428 73.7003 331.719 Q75.5985 334.011 75.5985 337.321 Q75.5985 342.344 72.5198 345.029 Q69.4642 347.715 63.7467 347.715 Q58.0291 347.715 54.9504 345.029 Q51.8949 342.344 51.8949 337.321 Q51.8949 334.011 53.793 331.719 Q55.6912 329.428 59.0708 328.641 M57.3578 321.256 Q57.3578 323.942 59.0245 325.446 Q60.7143 326.951 63.7467 326.951 Q66.7559 326.951 68.4457 325.446 Q70.1587 323.942 70.1587 321.256 Q70.1587 318.571 68.4457 317.067 Q66.7559 315.562 63.7467 315.562 Q60.7143 315.562 59.0245 317.067 Q57.3578 318.571 57.3578 321.256 Z" fill="#000000" fill-rule="evenodd" fill-opacity="1" /><path clip-path="url(#clip660)" d="M93.9086 315.562 Q90.2975 315.562 88.4688 319.127 Q86.6632 322.668 86.6632 329.798 Q86.6632 336.905 88.4688 340.469 Q90.2975 344.011 93.9086 344.011 Q97.5428 344.011 99.3483 340.469 Q101.177 336.905 101.177 329.798 Q101.177 322.668 99.3483 319.127 Q97.5428 315.562 93.9086 315.562 M93.9086 311.858 Q99.7187 311.858 102.774 316.465 Q105.853 321.048 105.853 329.798 Q105.853 338.525 102.774 343.131 Q99.7187 347.715 93.9086 347.715 Q88.0984 347.715 85.0197 343.131 Q81.9642 338.525 81.9642 329.798 Q81.9642 321.048 85.0197 316.465 Q88.0984 311.858 93.9086 311.858 Z" fill="#000000" fill-rule="evenodd" fill-opacity="1" /><path clip-path="url(#clip660)" d="M124.07 315.562 Q120.459 315.562 118.631 319.127 Q116.825 322.668 116.825 329.798 Q116.825 336.905 118.631 340.469 Q120.459 344.011 124.07 344.011 Q127.705 344.011 129.51 340.469 Q131.339 336.905 131.339 329.798 Q131.339 322.668 129.51 319.127 Q127.705 315.562 124.07 315.562 M124.07 311.858 Q129.881 311.858 132.936 316.465 Q136.015 321.048 136.015 329.798 Q136.015 338.525 132.936 343.131 Q129.881 347.715 124.07 347.715 Q118.26 347.715 115.182 343.131 Q112.126 338.525 112.126 329.798 Q112.126 321.048 115.182 316.465 Q118.26 311.858 124.07 311.858 Z" fill="#000000" fill-rule="evenodd" fill-opacity="1" /><path clip-path="url(#clip660)" d="M631.092 18.8205 L631.092 65.8515 L640.977 65.8515 Q653.494 65.8515 659.287 60.1802 Q665.12 54.509 665.12 42.2752 Q665.12 30.1225 659.287 24.4918 Q653.494 18.8205 640.977 18.8205 L631.092 18.8205 M622.91 12.096 L639.721 12.096 Q657.302 12.096 665.525 19.4281 Q673.748 26.7198 673.748 42.2752 Q673.748 57.9117 665.485 65.2439 Q657.221 72.576 639.721 72.576 L622.91 72.576 L622.91 12.096 Z" fill="#000000" fill-rule="evenodd" fill-opacity="1" /><path clip-path="url(#clip660)" d="M707.087 49.7694 Q698.054 49.7694 694.57 51.8354 Q691.086 53.9013 691.086 58.8839 Q691.086 62.8538 693.679 65.2034 Q696.312 67.5124 700.809 67.5124 Q707.006 67.5124 710.733 63.1374 Q714.501 58.7219 714.501 51.4303 L714.501 49.7694 L707.087 49.7694 M721.954 46.6907 L721.954 72.576 L714.501 72.576 L714.501 65.6895 Q711.948 69.8214 708.141 71.8063 Q704.333 73.7508 698.824 73.7508 Q691.856 73.7508 687.724 69.8619 Q683.633 65.9325 683.633 59.3701 Q683.633 51.7138 688.737 47.825 Q693.881 43.9361 704.049 43.9361 L714.501 43.9361 L714.501 43.2069 Q714.501 38.0623 711.098 35.2672 Q707.736 32.4315 701.619 32.4315 Q697.73 32.4315 694.044 33.3632 Q690.357 34.295 686.954 36.1584 L686.954 29.2718 Q691.046 27.692 694.894 26.9223 Q698.743 26.1121 702.388 26.1121 Q712.232 26.1121 717.093 31.2163 Q721.954 36.3204 721.954 46.6907 Z" fill="#000000" fill-rule="evenodd" fill-opacity="1" /><path clip-path="url(#clip660)" d="M744.68 14.324 L744.68 27.2059 L760.033 27.2059 L760.033 32.9987 L744.68 32.9987 L744.68 57.6282 Q744.68 63.1779 746.179 64.7578 Q747.718 66.3376 752.377 66.3376 L760.033 66.3376 L760.033 72.576 L752.377 72.576 Q743.748 72.576 740.467 69.3758 Q737.186 66.1351 737.186 57.6282 L737.186 32.9987 L731.717 32.9987 L731.717 27.2059 L737.186 27.2059 L737.186 14.324 L744.68 14.324 Z" fill="#000000" fill-rule="evenodd" fill-opacity="1" /><path clip-path="url(#clip660)" d="M790.455 49.7694 Q781.422 49.7694 777.938 51.8354 Q774.454 53.9013 774.454 58.8839 Q774.454 62.8538 777.047 65.2034 Q779.68 67.5124 784.176 67.5124 Q790.374 67.5124 794.101 63.1374 Q797.868 58.7219 797.868 51.4303 L797.868 49.7694 L790.455 49.7694 M805.322 46.6907 L805.322 72.576 L797.868 72.576 L797.868 65.6895 Q795.316 69.8214 791.508 71.8063 Q787.7 73.7508 782.191 73.7508 Q775.224 73.7508 771.092 69.8619 Q767 65.9325 767 59.3701 Q767 51.7138 772.104 47.825 Q777.249 43.9361 787.417 43.9361 L797.868 43.9361 L797.868 43.2069 Q797.868 38.0623 794.465 35.2672 Q791.103 32.4315 784.986 32.4315 Q781.097 32.4315 777.411 33.3632 Q773.725 34.295 770.322 36.1584 L770.322 29.2718 Q774.413 27.692 778.262 26.9223 Q782.11 26.1121 785.756 26.1121 Q795.6 26.1121 800.461 31.2163 Q805.322 36.3204 805.322 46.6907 Z" fill="#000000" fill-rule="evenodd" fill-opacity="1" /><path clip-path="url(#clip660)" d="M867.665 49.7694 Q858.632 49.7694 855.148 51.8354 Q851.664 53.9013 851.664 58.8839 Q851.664 62.8538 854.257 65.2034 Q856.89 67.5124 861.386 67.5124 Q867.584 67.5124 871.311 63.1374 Q875.078 58.7219 875.078 51.4303 L875.078 49.7694 L867.665 49.7694 M882.532 46.6907 L882.532 72.576 L875.078 72.576 L875.078 65.6895 Q872.526 69.8214 868.718 71.8063 Q864.911 73.7508 859.401 73.7508 Q852.434 73.7508 848.302 69.8619 Q844.211 65.9325 844.211 59.3701 Q844.211 51.7138 849.315 47.825 Q854.459 43.9361 864.627 43.9361 L875.078 43.9361 L875.078 43.2069 Q875.078 38.0623 871.676 35.2672 Q868.313 32.4315 862.197 32.4315 Q858.308 32.4315 854.621 33.3632 Q850.935 34.295 847.532 36.1584 L847.532 29.2718 Q851.624 27.692 855.472 26.9223 Q859.32 26.1121 862.966 26.1121 Q872.81 26.1121 877.671 31.2163 Q882.532 36.3204 882.532 46.6907 Z" fill="#000000" fill-rule="evenodd" fill-opacity="1" /><path clip-path="url(#clip660)" d="M935.599 45.1919 L935.599 72.576 L928.145 72.576 L928.145 45.4349 Q928.145 38.994 925.634 35.7938 Q923.122 32.5936 918.099 32.5936 Q912.063 32.5936 908.579 36.4419 Q905.096 40.2903 905.096 46.9338 L905.096 72.576 L897.601 72.576 L897.601 27.2059 L905.096 27.2059 L905.096 34.2544 Q907.769 30.163 911.375 28.1376 Q915.02 26.1121 919.76 26.1121 Q927.578 26.1121 931.589 30.9732 Q935.599 35.7938 935.599 45.1919 Z" fill="#000000" fill-rule="evenodd" fill-opacity="1" /><path clip-path="url(#clip660)" d="M980.321 34.0924 L980.321 9.54393 L987.775 9.54393 L987.775 72.576 L980.321 72.576 L980.321 65.7705 Q977.971 69.8214 974.366 71.8063 Q970.801 73.7508 965.778 73.7508 Q957.555 73.7508 952.37 67.1883 Q947.225 60.6258 947.225 49.9314 Q947.225 39.2371 952.37 32.6746 Q957.555 26.1121 965.778 26.1121 Q970.801 26.1121 974.366 28.0971 Q977.971 30.0415 980.321 34.0924 M954.922 49.9314 Q954.922 58.1548 958.284 62.8538 Q961.687 67.5124 967.601 67.5124 Q973.515 67.5124 976.918 62.8538 Q980.321 58.1548 980.321 49.9314 Q980.321 41.7081 976.918 37.0496 Q973.515 32.3505 967.601 32.3505 Q961.687 32.3505 958.284 37.0496 Q954.922 41.7081 954.922 49.9314 Z" fill="#000000" fill-rule="evenodd" fill-opacity="1" /><path clip-path="url(#clip660)" d="M1021.44 12.096 L1072.6 12.096 L1072.6 18.9825 L1051.13 18.9825 L1051.13 72.576 L1042.91 72.576 L1042.91 18.9825 L1021.44 18.9825 L1021.44 12.096 Z" fill="#000000" fill-rule="evenodd" fill-opacity="1" /><path clip-path="url(#clip660)" d="M1094.27 34.1734 Q1093.02 33.4443 1091.52 33.1202 Q1090.06 32.7556 1088.28 32.7556 Q1081.96 32.7556 1078.56 36.8875 Q1075.19 40.9789 1075.19 48.6757 L1075.19 72.576 L1067.7 72.576 L1067.7 27.2059 L1075.19 27.2059 L1075.19 34.2544 Q1077.54 30.1225 1081.31 28.1376 Q1085.08 26.1121 1090.46 26.1121 Q1091.23 26.1121 1092.17 26.2337 Q1093.1 26.3147 1094.23 26.5172 L1094.27 34.1734 Z" fill="#000000" fill-rule="evenodd" fill-opacity="1" /><path clip-path="url(#clip660)" d="M1101.32 54.671 L1101.32 27.2059 L1108.78 27.2059 L1108.78 54.3874 Q1108.78 60.8284 1111.29 64.0691 Q1113.8 67.2693 1118.82 67.2693 Q1124.86 67.2693 1128.34 63.421 Q1131.87 59.5726 1131.87 52.9291 L1131.87 27.2059 L1139.32 27.2059 L1139.32 72.576 L1131.87 72.576 L1131.87 65.6084 Q1129.15 69.7404 1125.55 71.7658 Q1121.98 73.7508 1117.24 73.7508 Q1109.42 73.7508 1105.37 68.8897 Q1101.32 64.0286 1101.32 54.671 M1120.08 26.1121 L1120.08 26.1121 Z" fill="#000000" fill-rule="evenodd" fill-opacity="1" /><path clip-path="url(#clip660)" d="M1193.48 48.0275 L1193.48 51.6733 L1159.21 51.6733 Q1159.69 59.3701 1163.83 63.421 Q1168 67.4314 1175.41 67.4314 Q1179.71 67.4314 1183.72 66.3781 Q1187.77 65.3249 1191.74 63.2184 L1191.74 70.267 Q1187.73 71.9684 1183.51 72.8596 Q1179.3 73.7508 1174.97 73.7508 Q1164.11 73.7508 1157.75 67.4314 Q1151.43 61.1119 1151.43 50.3365 Q1151.43 39.1965 1157.43 32.6746 Q1163.46 26.1121 1173.67 26.1121 Q1182.83 26.1121 1188.13 32.0264 Q1193.48 37.9003 1193.48 48.0275 M1186.03 45.84 Q1185.94 39.7232 1182.58 36.0774 Q1179.26 32.4315 1173.75 32.4315 Q1167.51 32.4315 1163.75 35.9558 Q1160.02 39.4801 1159.45 45.8805 L1186.03 45.84 Z" fill="#000000" fill-rule="evenodd" fill-opacity="1" /><path clip-path="url(#clip660)" d="M1268.66 14.0809 L1268.66 22.0612 Q1264.01 19.8332 1259.87 18.7395 Q1255.74 17.6457 1251.89 17.6457 Q1245.21 17.6457 1241.56 20.2383 Q1237.96 22.8309 1237.96 27.611 Q1237.96 31.6214 1240.35 33.6873 Q1242.78 35.7128 1249.5 36.9686 L1254.45 37.9813 Q1263.6 39.7232 1267.94 44.1387 Q1272.31 48.5136 1272.31 55.8863 Q1272.31 64.6767 1266.4 69.2137 Q1260.52 73.7508 1249.14 73.7508 Q1244.84 73.7508 1239.98 72.7785 Q1235.16 71.8063 1229.98 69.9024 L1229.98 61.4765 Q1234.96 64.2716 1239.74 65.6895 Q1244.52 67.1073 1249.14 67.1073 Q1256.15 67.1073 1259.95 64.3527 Q1263.76 61.598 1263.76 56.4939 Q1263.76 52.0379 1261.01 49.5264 Q1258.29 47.0148 1252.06 45.759 L1247.07 44.7868 Q1237.92 42.9639 1233.83 39.075 Q1229.74 35.1862 1229.74 28.2591 Q1229.74 20.2383 1235.37 15.6203 Q1241.04 11.0023 1250.96 11.0023 Q1255.22 11.0023 1259.63 11.7719 Q1264.05 12.5416 1268.66 14.0809 Z" fill="#000000" fill-rule="evenodd" fill-opacity="1" /><path clip-path="url(#clip660)" d="M1292.12 14.324 L1292.12 27.2059 L1307.47 27.2059 L1307.47 32.9987 L1292.12 32.9987 L1292.12 57.6282 Q1292.12 63.1779 1293.62 64.7578 Q1295.16 66.3376 1299.82 66.3376 L1307.47 66.3376 L1307.47 72.576 L1299.82 72.576 Q1291.19 72.576 1287.91 69.3758 Q1284.62 66.1351 1284.62 57.6282 L1284.62 32.9987 L1279.16 32.9987 L1279.16 27.2059 L1284.62 27.2059 L1284.62 14.324 L1292.12 14.324 Z" fill="#000000" fill-rule="evenodd" fill-opacity="1" /><path clip-path="url(#clip660)" d="M1337.89 49.7694 Q1328.86 49.7694 1325.38 51.8354 Q1321.89 53.9013 1321.89 58.8839 Q1321.89 62.8538 1324.49 65.2034 Q1327.12 67.5124 1331.62 67.5124 Q1337.81 67.5124 1341.54 63.1374 Q1345.31 58.7219 1345.31 51.4303 L1345.31 49.7694 L1337.89 49.7694 M1352.76 46.6907 L1352.76 72.576 L1345.31 72.576 L1345.31 65.6895 Q1342.76 69.8214 1338.95 71.8063 Q1335.14 73.7508 1329.63 73.7508 Q1322.66 73.7508 1318.53 69.8619 Q1314.44 65.9325 1314.44 59.3701 Q1314.44 51.7138 1319.54 47.825 Q1324.69 43.9361 1334.86 43.9361 L1345.31 43.9361 L1345.31 43.2069 Q1345.31 38.0623 1341.9 35.2672 Q1338.54 32.4315 1332.43 32.4315 Q1328.54 32.4315 1324.85 33.3632 Q1321.16 34.295 1317.76 36.1584 L1317.76 29.2718 Q1321.85 27.692 1325.7 26.9223 Q1329.55 26.1121 1333.2 26.1121 Q1343.04 26.1121 1347.9 31.2163 Q1352.76 36.3204 1352.76 46.6907 Z" fill="#000000" fill-rule="evenodd" fill-opacity="1" /><path clip-path="url(#clip660)" d="M1375.49 14.324 L1375.49 27.2059 L1390.84 27.2059 L1390.84 32.9987 L1375.49 32.9987 L1375.49 57.6282 Q1375.49 63.1779 1376.99 64.7578 Q1378.52 66.3376 1383.18 66.3376 L1390.84 66.3376 L1390.84 72.576 L1383.18 72.576 Q1374.55 72.576 1371.27 69.3758 Q1367.99 66.1351 1367.99 57.6282 L1367.99 32.9987 L1362.52 32.9987 L1362.52 27.2059 L1367.99 27.2059 L1367.99 14.324 L1375.49 14.324 Z" fill="#000000" fill-rule="evenodd" fill-opacity="1" /><path clip-path="url(#clip660)" d="M1400.64 27.2059 L1408.1 27.2059 L1408.1 72.576 L1400.64 72.576 L1400.64 27.2059 M1400.64 9.54393 L1408.1 9.54393 L1408.1 18.9825 L1400.64 18.9825 L1400.64 9.54393 Z" fill="#000000" fill-rule="evenodd" fill-opacity="1" /><path clip-path="url(#clip660)" d="M1452.62 28.5427 L1452.62 35.5912 Q1449.46 33.9709 1446.05 33.1607 Q1442.65 32.3505 1439 32.3505 Q1433.46 32.3505 1430.66 34.0519 Q1427.91 35.7533 1427.91 39.156 Q1427.91 41.7486 1429.89 43.2475 Q1431.88 44.7058 1437.87 46.0426 L1440.42 46.6097 Q1448.36 48.3111 1451.68 51.4303 Q1455.05 54.509 1455.05 60.0587 Q1455.05 66.3781 1450.02 70.0644 Q1445.04 73.7508 1436.29 73.7508 Q1432.64 73.7508 1428.67 73.0216 Q1424.75 72.3329 1420.37 70.9151 L1420.37 63.2184 Q1424.5 65.3654 1428.51 66.4591 Q1432.52 67.5124 1436.45 67.5124 Q1441.72 67.5124 1444.55 65.73 Q1447.39 63.9071 1447.39 60.6258 Q1447.39 57.5877 1445.32 55.9673 Q1443.3 54.3469 1436.37 52.8481 L1433.78 52.2405 Q1426.85 50.7821 1423.77 47.7845 Q1420.69 44.7463 1420.69 39.4801 Q1420.69 33.0797 1425.23 29.5959 Q1429.77 26.1121 1438.11 26.1121 Q1442.25 26.1121 1445.89 26.7198 Q1449.54 27.3274 1452.62 28.5427 Z" fill="#000000" fill-rule="evenodd" fill-opacity="1" /><path clip-path="url(#clip660)" d="M1474.29 14.324 L1474.29 27.2059 L1489.64 27.2059 L1489.64 32.9987 L1474.29 32.9987 L1474.29 57.6282 Q1474.29 63.1779 1475.79 64.7578 Q1477.33 66.3376 1481.98 66.3376 L1489.64 66.3376 L1489.64 72.576 L1481.98 72.576 Q1473.36 72.576 1470.08 69.3758 Q1466.79 66.1351 1466.79 57.6282 L1466.79 32.9987 L1461.33 32.9987 L1461.33 27.2059 L1466.79 27.2059 L1466.79 14.324 L1474.29 14.324 Z" fill="#000000" fill-rule="evenodd" fill-opacity="1" /><path clip-path="url(#clip660)" d="M1499.44 27.2059 L1506.9 27.2059 L1506.9 72.576 L1499.44 72.576 L1499.44 27.2059 M1499.44 9.54393 L1506.9 9.54393 L1506.9 18.9825 L1499.44 18.9825 L1499.44 9.54393 Z" fill="#000000" fill-rule="evenodd" fill-opacity="1" /><path clip-path="url(#clip660)" d="M1555.14 28.9478 L1555.14 35.9153 Q1551.98 34.1734 1548.78 33.3227 Q1545.62 32.4315 1542.38 32.4315 Q1535.13 32.4315 1531.12 37.0496 Q1527.11 41.6271 1527.11 49.9314 Q1527.11 58.2358 1531.12 62.8538 Q1535.13 67.4314 1542.38 67.4314 Q1545.62 67.4314 1548.78 66.5807 Q1551.98 65.6895 1555.14 63.9476 L1555.14 70.8341 Q1552.03 72.2924 1548.66 73.0216 Q1545.34 73.7508 1541.57 73.7508 Q1531.32 73.7508 1525.29 67.3098 Q1519.25 60.8689 1519.25 49.9314 Q1519.25 38.832 1525.33 32.472 Q1531.45 26.1121 1542.06 26.1121 Q1545.5 26.1121 1548.78 26.8413 Q1552.07 27.5299 1555.14 28.9478 Z" fill="#000000" fill-rule="evenodd" fill-opacity="1" /><path clip-path="url(#clip660)" d="M1588.73 49.7694 Q1579.69 49.7694 1576.21 51.8354 Q1572.73 53.9013 1572.73 58.8839 Q1572.73 62.8538 1575.32 65.2034 Q1577.95 67.5124 1582.45 67.5124 Q1588.65 67.5124 1592.37 63.1374 Q1596.14 58.7219 1596.14 51.4303 L1596.14 49.7694 L1588.73 49.7694 M1603.59 46.6907 L1603.59 72.576 L1596.14 72.576 L1596.14 65.6895 Q1593.59 69.8214 1589.78 71.8063 Q1585.97 73.7508 1580.46 73.7508 Q1573.49 73.7508 1569.36 69.8619 Q1565.27 65.9325 1565.27 59.3701 Q1565.27 51.7138 1570.38 47.825 Q1575.52 43.9361 1585.69 43.9361 L1596.14 43.9361 L1596.14 43.2069 Q1596.14 38.0623 1592.74 35.2672 Q1589.37 32.4315 1583.26 32.4315 Q1579.37 32.4315 1575.68 33.3632 Q1572 34.295 1568.59 36.1584 L1568.59 29.2718 Q1572.68 27.692 1576.53 26.9223 Q1580.38 26.1121 1584.03 26.1121 Q1593.87 26.1121 1598.73 31.2163 Q1603.59 36.3204 1603.59 46.6907 Z" fill="#000000" fill-rule="evenodd" fill-opacity="1" /><path clip-path="url(#clip660)" d="M1618.95 9.54393 L1626.4 9.54393 L1626.4 72.576 L1618.95 72.576 L1618.95 9.54393 Z" fill="#000000" fill-rule="evenodd" fill-opacity="1" /><path clip-path="url(#clip660)" d="M1668.69 12.096 L1680.88 12.096 L1696.32 53.2532 L1711.83 12.096 L1724.03 12.096 L1724.03 72.576 L1716.05 72.576 L1716.05 19.4686 L1700.45 60.9499 L1692.23 60.9499 L1676.63 19.4686 L1676.63 72.576 L1668.69 72.576 L1668.69 12.096 Z" fill="#000000" fill-rule="evenodd" fill-opacity="1" /><path clip-path="url(#clip660)" d="M1757.53 32.4315 Q1751.53 32.4315 1748.05 37.1306 Q1744.56 41.7891 1744.56 49.9314 Q1744.56 58.0738 1748.01 62.7728 Q1751.49 67.4314 1757.53 67.4314 Q1763.48 67.4314 1766.97 62.7323 Q1770.45 58.0333 1770.45 49.9314 Q1770.45 41.8701 1766.97 37.1711 Q1763.48 32.4315 1757.53 32.4315 M1757.53 26.1121 Q1767.25 26.1121 1772.8 32.4315 Q1778.35 38.7509 1778.35 49.9314 Q1778.35 61.0714 1772.8 67.4314 Q1767.25 73.7508 1757.53 73.7508 Q1747.76 73.7508 1742.21 67.4314 Q1736.71 61.0714 1736.71 49.9314 Q1736.71 38.7509 1742.21 32.4315 Q1747.76 26.1121 1757.53 26.1121 Z" fill="#000000" fill-rule="evenodd" fill-opacity="1" /><path clip-path="url(#clip660)" d="M1820.56 34.0924 L1820.56 9.54393 L1828.01 9.54393 L1828.01 72.576 L1820.56 72.576 L1820.56 65.7705 Q1818.21 69.8214 1814.6 71.8063 Q1811.04 73.7508 1806.02 73.7508 Q1797.79 73.7508 1792.61 67.1883 Q1787.46 60.6258 1787.46 49.9314 Q1787.46 39.2371 1792.61 32.6746 Q1797.79 26.1121 1806.02 26.1121 Q1811.04 26.1121 1814.6 28.0971 Q1818.21 30.0415 1820.56 34.0924 M1795.16 49.9314 Q1795.16 58.1548 1798.52 62.8538 Q1801.93 67.5124 1807.84 67.5124 Q1813.75 67.5124 1817.16 62.8538 Q1820.56 58.1548 1820.56 49.9314 Q1820.56 41.7081 1817.16 37.0496 Q1813.75 32.3505 1807.84 32.3505 Q1801.93 32.3505 1798.52 37.0496 Q1795.16 41.7081 1795.16 49.9314 Z" fill="#000000" fill-rule="evenodd" fill-opacity="1" /><path clip-path="url(#clip660)" d="M1882.17 48.0275 L1882.17 51.6733 L1847.9 51.6733 Q1848.39 59.3701 1852.52 63.421 Q1856.69 67.4314 1864.11 67.4314 Q1868.4 67.4314 1872.41 66.3781 Q1876.46 65.3249 1880.43 63.2184 L1880.43 70.267 Q1876.42 71.9684 1872.21 72.8596 Q1868 73.7508 1863.66 73.7508 Q1852.8 73.7508 1846.44 67.4314 Q1840.13 61.1119 1840.13 50.3365 Q1840.13 39.1965 1846.12 32.6746 Q1852.16 26.1121 1862.36 26.1121 Q1871.52 26.1121 1876.83 32.0264 Q1882.17 37.9003 1882.17 48.0275 M1874.72 45.84 Q1874.64 39.7232 1871.28 36.0774 Q1867.96 32.4315 1862.45 32.4315 Q1856.21 32.4315 1852.44 35.9558 Q1848.71 39.4801 1848.15 45.8805 L1874.72 45.84 Z" fill="#000000" fill-rule="evenodd" fill-opacity="1" /><path clip-path="url(#clip660)" d="M1894.41 9.54393 L1901.86 9.54393 L1901.86 72.576 L1894.41 72.576 L1894.41 9.54393 Z" fill="#000000" fill-rule="evenodd" fill-opacity="1" /><polyline clip-path="url(#clip662)" style="stroke:#009af9; stroke-linecap:butt; stroke-linejoin:round; stroke-width:4; stroke-opacity:1; fill:none" points="
  748.06,1447.87 748.06,1405.94 773.776,1405.94 773.776,1308.11 799.492,1308.11 799.492,1294.13 825.208,1294.13 825.208,1210.27 850.925,1210.27 850.925,1112.44 
  876.641,1112.44 876.641,1182.32 902.357,1182.32 902.357,1154.37 928.074,1154.37 928.074,1028.58 953.79,1028.58 953.79,972.676 979.506,972.676 979.506,818.936 
  1005.22,818.936 1005.22,846.889 1030.94,846.889 1030.94,707.125 1056.66,707.125 1056.66,986.653 1082.37,986.653 1082.37,1000.63 1108.09,1000.63 1108.09,986.653 
  1133.8,986.653 1133.8,1196.3 1159.52,1196.3 1159.52,1210.27 1185.24,1210.27 1185.24,1336.06 1210.95,1336.06 1210.95,1238.23 1236.67,1238.23 1236.67,1405.94 
  1262.39,1405.94 1262.39,1336.06 1288.1,1336.06 1288.1,1405.94 1313.82,1405.94 1313.82,1433.9 1339.53,1433.9 1339.53,1419.92 1365.25,1419.92 1365.25,1433.9 
  1390.97,1433.9 1416.68,1433.9 1416.68,1391.97 1442.4,1391.97 1442.4,1419.92 1468.12,1419.92 1468.12,1322.09 1493.83,1322.09 1493.83,1377.99 
  1519.55,1377.99 1519.55,1280.16 1545.26,1280.16 1545.26,1182.32 1570.98,1182.32 1570.98,1056.53 1596.7,1056.53 1596.7,1042.56 1622.41,1042.56 1622.41,944.724 
  1648.13,944.724 1648.13,665.196 1673.85,665.196 1673.85,539.409 1699.56,539.409 1725.28,539.409 1725.28,399.645 1750.99,399.645 1750.99,162.047 
  1776.71,162.047 1776.71,413.622 1802.43,413.622 1802.43,371.692 1828.14,371.692 1828.14,399.645 1853.86,399.645 1853.86,609.291 1879.58,609.291 1879.58,679.173 
  1905.29,679.173 1905.29,874.842 1931.01,874.842 1956.73,874.842 1956.73,1154.37 1982.44,1154.37 1982.44,1126.42 2008.16,1126.42 2008.16,1252.2 
  2033.87,1252.2 2033.87,1391.97 2059.59,1391.97 2059.59,1336.06 2085.31,1336.06 2085.31,1391.97 2111.02,1391.97 2111.02,1433.9 2136.74,1433.9 
  2162.46,1433.9 2162.46,1419.92 2188.17,1419.92 2188.17,1447.87 2213.89,1447.87 2239.6,1447.87 2265.32,1447.87 
  2291.04,1447.87 
  "/>
<polyline clip-path="url(#clip662)" style="stroke:#e26f46; stroke-linecap:butt; stroke-linejoin:round; stroke-width:4; stroke-opacity:1; fill:none" points="
  233.734,1447.87 236.306,1447.87 238.877,1447.87 241.449,1447.87 244.02,1447.87 246.592,1447.87 249.164,1447.87 251.735,1447.87 254.307,1447.87 256.879,1447.87 
  259.45,1447.87 262.022,1447.87 264.593,1447.87 267.165,1447.87 269.737,1447.87 272.308,1447.87 274.88,1447.87 277.452,1447.87 280.023,1447.87 282.595,1447.87 
  285.166,1447.87 287.738,1447.87 290.31,1447.87 292.881,1447.87 295.453,1447.87 298.025,1447.87 300.596,1447.87 303.168,1447.87 305.74,1447.87 308.311,1447.87 
  310.883,1447.87 313.454,1447.87 316.026,1447.87 318.598,1447.87 321.169,1447.87 323.741,1447.87 326.313,1447.87 328.884,1447.87 331.456,1447.87 334.027,1447.87 
  336.599,1447.87 339.171,1447.87 341.742,1447.87 344.314,1447.87 346.886,1447.87 349.457,1447.87 352.029,1447.87 354.6,1447.87 357.172,1447.87 359.744,1447.87 
  362.315,1447.87 364.887,1447.87 367.459,1447.87 370.03,1447.87 372.602,1447.87 375.173,1447.87 377.745,1447.87 380.317,1447.87 382.888,1447.87 385.46,1447.87 
  388.032,1447.87 390.603,1447.87 393.175,1447.87 395.747,1447.87 398.318,1447.86 400.89,1447.86 403.461,1447.86 406.033,1447.86 408.605,1447.86 411.176,1447.86 
  413.748,1447.86 416.32,1447.86 418.891,1447.86 421.463,1447.85 424.034,1447.85 426.606,1447.85 429.178,1447.85 431.749,1447.85 434.321,1447.84 436.893,1447.84 
  439.464,1447.84 442.036,1447.84 444.607,1447.83 447.179,1447.83 449.751,1447.82 452.322,1447.82 454.894,1447.81 457.466,1447.81 460.037,1447.8 462.609,1447.8 
  465.18,1447.79 467.752,1447.78 470.324,1447.78 472.895,1447.77 475.467,1447.76 478.039,1447.75 480.61,1447.74 483.182,1447.73 485.754,1447.71 488.325,1447.7 
  490.897,1447.69 493.468,1447.67 496.04,1447.65 498.612,1447.64 501.183,1447.62 503.755,1447.6 506.327,1447.57 508.898,1447.55 511.47,1447.52 514.041,1447.49 
  516.613,1447.47 519.185,1447.43 521.756,1447.4 524.328,1447.36 526.9,1447.32 529.471,1447.28 532.043,1447.23 534.614,1447.19 537.186,1447.13 539.758,1447.08 
  542.329,1447.02 544.901,1446.95 547.473,1446.89 550.044,1446.81 552.616,1446.74 555.187,1446.65 557.759,1446.57 560.331,1446.47 562.902,1446.37 565.474,1446.26 
  568.046,1446.15 570.617,1446.03 573.189,1445.9 575.761,1445.76 578.332,1445.62 580.904,1445.47 583.475,1445.3 586.047,1445.13 588.619,1444.94 591.19,1444.75 
  593.762,1444.54 596.334,1444.32 598.905,1444.09 601.477,1443.84 604.048,1443.58 606.62,1443.31 609.192,1443.02 611.763,1442.71 614.335,1442.38 616.907,1442.04 
  619.478,1441.68 622.05,1441.3 624.621,1440.89 627.193,1440.47 629.765,1440.02 632.336,1439.55 634.908,1439.06 637.48,1438.54 640.051,1437.99 642.623,1437.41 
  645.194,1436.81 647.766,1436.18 650.338,1435.51 652.909,1434.81 655.481,1434.08 658.053,1433.31 660.624,1432.5 663.196,1431.66 665.768,1430.78 668.339,1429.85 
  670.911,1428.89 673.482,1427.88 676.054,1426.83 678.626,1425.72 681.197,1424.57 683.769,1423.37 686.341,1422.12 688.912,1420.82 691.484,1419.46 694.055,1418.05 
  696.627,1416.57 699.199,1415.04 701.77,1413.45 704.342,1411.79 706.914,1410.07 709.485,1408.28 712.057,1406.43 714.628,1404.5 717.2,1402.51 719.772,1400.44 
  722.343,1398.29 724.915,1396.07 727.487,1393.77 730.058,1391.4 732.63,1388.94 735.201,1386.4 737.773,1383.78 740.345,1381.07 742.916,1378.27 745.488,1375.39 
  748.06,1372.41 750.631,1369.35 753.203,1366.19 755.775,1362.95 758.346,1359.6 760.918,1356.17 763.489,1352.63 766.061,1349 768.633,1345.28 771.204,1341.45 
  773.776,1337.53 776.348,1333.51 778.919,1329.39 781.491,1325.17 784.062,1320.85 786.634,1316.43 789.206,1311.91 791.777,1307.29 794.349,1302.57 796.921,1297.76 
  799.492,1292.85 802.064,1287.84 804.635,1282.73 807.207,1277.53 809.779,1272.24 812.35,1266.85 814.922,1261.38 817.494,1255.81 820.065,1250.16 822.637,1244.43 
  825.208,1238.61 827.78,1232.71 830.352,1226.73 832.923,1220.68 835.495,1214.56 838.067,1208.36 840.638,1202.1 843.21,1195.78 845.782,1189.4 848.353,1182.96 
  850.925,1176.47 853.496,1169.93 856.068,1163.35 858.64,1156.73 861.211,1150.08 863.783,1143.39 866.355,1136.68 868.926,1129.95 871.498,1123.21 874.069,1116.45 
  876.641,1109.69 879.213,1102.92 881.784,1096.17 884.356,1089.42 886.928,1082.69 889.499,1075.98 892.071,1069.3 894.642,1062.66 897.214,1056.05 899.786,1049.5 
  902.357,1042.99 904.929,1036.54 907.501,1030.16 910.072,1023.84 912.644,1017.61 915.215,1011.46 917.787,1005.39 920.359,999.422 922.93,993.554 925.502,987.793 
  928.074,982.146 930.645,976.618 933.217,971.215 935.789,965.943 938.36,960.807 940.932,955.814 943.503,950.968 946.075,946.275 948.647,941.74 951.218,937.368 
  953.79,933.165 956.362,929.135 958.933,925.282 961.505,921.611 964.076,918.126 966.648,914.831 969.22,911.731 971.791,908.828 974.363,906.126 976.935,903.628 
  979.506,901.337 982.078,899.256 984.649,897.388 987.221,895.734 989.793,894.297 992.364,893.077 994.936,892.078 997.508,891.299 1000.08,890.742 1002.65,890.408 
  1005.22,890.297 1007.79,890.408 1010.37,890.742 1012.94,891.299 1015.51,892.078 1018.08,893.077 1020.65,894.297 1023.22,895.734 1025.8,897.388 1028.37,899.256 
  1030.94,901.337 1033.51,903.628 1036.08,906.126 1038.65,908.828 1041.23,911.731 1043.8,914.831 1046.37,918.126 1048.94,921.611 1051.51,925.282 1054.08,929.134 
  1056.66,933.165 1059.23,937.368 1061.8,941.74 1064.37,946.274 1066.94,950.967 1069.51,955.813 1072.08,960.807 1074.66,965.942 1077.23,971.214 1079.8,976.617 
  1082.37,982.145 1084.94,987.793 1087.51,993.553 1090.09,999.421 1092.66,1005.39 1095.23,1011.45 1097.8,1017.61 1100.37,1023.84 1102.94,1030.16 1105.52,1036.54 
  1108.09,1042.99 1110.66,1049.49 1113.23,1056.05 1115.8,1062.66 1118.37,1069.3 1120.95,1075.98 1123.52,1082.69 1126.09,1089.42 1128.66,1096.16 1131.23,1102.92 
  1133.8,1109.68 1136.38,1116.44 1138.95,1123.2 1141.52,1129.95 1144.09,1136.68 1146.66,1143.39 1149.23,1150.07 1151.81,1156.73 1154.38,1163.35 1156.95,1169.92 
  1159.52,1176.46 1162.09,1182.95 1164.66,1189.38 1167.24,1195.76 1169.81,1202.09 1172.38,1208.34 1174.95,1214.54 1177.52,1220.66 1180.09,1226.71 1182.66,1232.68 
  1185.24,1238.58 1187.81,1244.4 1190.38,1250.13 1192.95,1255.78 1195.52,1261.34 1198.09,1266.81 1200.67,1272.19 1203.24,1277.48 1205.81,1282.67 1208.38,1287.77 
  1210.95,1292.78 1213.52,1297.68 1216.1,1302.49 1218.67,1307.2 1221.24,1311.81 1223.81,1316.32 1226.38,1320.73 1228.95,1325.04 1231.53,1329.25 1234.1,1333.36 
  1236.67,1337.36 1239.24,1341.27 1241.81,1345.08 1244.38,1348.79 1246.96,1352.4 1249.53,1355.92 1252.1,1359.33 1254.67,1362.65 1257.24,1365.88 1259.81,1369 
  1262.39,1372.04 1264.96,1374.98 1267.53,1377.83 1270.1,1380.59 1272.67,1383.26 1275.24,1385.84 1277.82,1388.34 1280.39,1390.75 1282.96,1393.07 1285.53,1395.32 
  1288.1,1397.48 1290.67,1399.56 1293.24,1401.56 1295.82,1403.48 1298.39,1405.32 1300.96,1407.09 1303.53,1408.79 1306.1,1410.42 1308.67,1411.97 1311.25,1413.45 
  1313.82,1414.86 1316.39,1416.21 1318.96,1417.49 1321.53,1418.7 1324.1,1419.85 1326.68,1420.94 1329.25,1421.96 1331.82,1422.92 1334.39,1423.82 1336.96,1424.66 
  1339.53,1425.44 1342.11,1426.17 1344.68,1426.83 1347.25,1427.44 1349.82,1428 1352.39,1428.49 1354.96,1428.93 1357.54,1429.32 1360.11,1429.65 1362.68,1429.93 
  1365.25,1430.15 1367.82,1430.31 1370.39,1430.42 1372.97,1430.48 1375.54,1430.48 1378.11,1430.42 1380.68,1430.31 1383.25,1430.14 1385.82,1429.92 1388.4,1429.63 
  1390.97,1429.29 1393.54,1428.89 1396.11,1428.43 1398.68,1427.9 1401.25,1427.32 1403.82,1426.67 1406.4,1425.95 1408.97,1425.17 1411.54,1424.32 1414.11,1423.4 
  1416.68,1422.42 1419.25,1421.35 1421.83,1420.22 1424.4,1419 1426.97,1417.71 1429.54,1416.34 1432.11,1414.88 1434.68,1413.34 1437.26,1411.71 1439.83,1409.99 
  1442.4,1408.18 1444.97,1406.28 1447.54,1404.28 1450.11,1402.17 1452.69,1399.97 1455.26,1397.66 1457.83,1395.24 1460.4,1392.71 1462.97,1390.06 1465.54,1387.3 
  1468.12,1384.42 1470.69,1381.41 1473.26,1378.28 1475.83,1375.02 1478.4,1371.63 1480.97,1368.1 1483.55,1364.43 1486.12,1360.62 1488.69,1356.66 1491.26,1352.56 
  1493.83,1348.3 1496.4,1343.89 1498.98,1339.33 1501.55,1334.6 1504.12,1329.71 1506.69,1324.65 1509.26,1319.42 1511.83,1314.02 1514.4,1308.45 1516.98,1302.7 
  1519.55,1296.77 1522.12,1290.65 1524.69,1284.36 1527.26,1277.87 1529.83,1271.2 1532.41,1264.33 1534.98,1257.28 1537.55,1250.03 1540.12,1242.58 1542.69,1234.94 
  1545.26,1227.1 1547.84,1219.07 1550.41,1210.83 1552.98,1202.4 1555.55,1193.76 1558.12,1184.93 1560.69,1175.89 1563.27,1166.66 1565.84,1157.23 1568.41,1147.61 
  1570.98,1137.78 1573.55,1127.77 1576.12,1117.56 1578.7,1107.17 1581.27,1096.58 1583.84,1085.81 1586.41,1074.86 1588.98,1063.74 1591.55,1052.44 1594.13,1040.97 
  1596.7,1029.33 1599.27,1017.53 1601.84,1005.58 1604.41,993.476 1606.98,981.228 1609.56,968.842 1612.13,956.323 1614.7,943.679 1617.27,930.916 1619.84,918.042 
  1622.41,905.064 1624.99,891.991 1627.56,878.831 1630.13,865.592 1632.7,852.283 1635.27,838.913 1637.84,825.492 1640.41,812.03 1642.99,798.537 1645.56,785.022 
  1648.13,771.496 1650.7,757.971 1653.27,744.456 1655.84,730.964 1658.42,717.505 1660.99,704.091 1663.56,690.733 1666.13,677.443 1668.7,664.234 1671.27,651.117 
  1673.85,638.105 1676.42,625.209 1678.99,612.442 1681.56,599.816 1684.13,587.344 1686.7,575.037 1689.28,562.909 1691.85,550.97 1694.42,539.235 1696.99,527.713 
  1699.56,516.419 1702.13,505.362 1704.71,494.556 1707.28,484.012 1709.85,473.741 1712.42,463.754 1714.99,454.062 1717.56,444.676 1720.14,435.607 1722.71,426.864 
  1725.28,418.457 1727.85,410.396 1730.42,402.69 1732.99,395.348 1735.57,388.379 1738.14,381.789 1740.71,375.588 1743.28,369.782 1745.85,364.378 1748.42,359.383 
  1750.99,354.801 1753.57,350.64 1756.14,346.903 1758.71,343.595 1761.28,340.72 1763.85,338.282 1766.42,336.283 1769,334.725 1771.57,333.612 1774.14,332.943 
  1776.71,332.72 1779.28,332.943 1781.85,333.612 1784.43,334.725 1787,336.283 1789.57,338.282 1792.14,340.72 1794.71,343.595 1797.28,346.903 1799.86,350.64 
  1802.43,354.801 1805,359.383 1807.57,364.378 1810.14,369.782 1812.71,375.588 1815.29,381.79 1817.86,388.379 1820.43,395.348 1823,402.69 1825.57,410.396 
  1828.14,418.457 1830.72,426.864 1833.29,435.607 1835.86,444.676 1838.43,454.062 1841,463.754 1843.57,473.741 1846.15,484.012 1848.72,494.557 1851.29,505.363 
  1853.86,516.419 1856.43,527.714 1859,539.235 1861.57,550.971 1864.15,562.909 1866.72,575.038 1869.29,587.344 1871.86,599.817 1874.43,612.443 1877,625.21 
  1879.58,638.106 1882.15,651.118 1884.72,664.235 1887.29,677.444 1889.86,690.734 1892.43,704.092 1895.01,717.506 1897.58,730.965 1900.15,744.458 1902.72,757.973 
  1905.29,771.499 1907.86,785.024 1910.44,798.539 1913.01,812.033 1915.58,825.495 1918.15,838.916 1920.72,852.286 1923.29,865.596 1925.87,878.835 1928.44,891.996 
  1931.01,905.07 1933.58,918.048 1936.15,930.923 1938.72,943.686 1941.3,956.331 1943.87,968.851 1946.44,981.238 1949.01,993.487 1951.58,1005.59 1954.15,1017.55 
  1956.73,1029.34 1959.3,1040.98 1961.87,1052.45 1964.44,1063.76 1967.01,1074.88 1969.58,1085.84 1972.15,1096.61 1974.73,1107.19 1977.3,1117.59 1979.87,1127.8 
  1982.44,1137.82 1985.01,1147.64 1987.58,1157.27 1990.16,1166.71 1992.73,1175.94 1995.3,1184.98 1997.87,1193.82 2000.44,1202.46 2003.01,1210.9 2005.59,1219.14 
  2008.16,1227.19 2010.73,1235.03 2013.3,1242.68 2015.87,1250.13 2018.44,1257.39 2021.02,1264.46 2023.59,1271.33 2026.16,1278.02 2028.73,1284.51 2031.3,1290.83 
  2033.87,1296.95 2036.45,1302.9 2039.02,1308.67 2041.59,1314.26 2044.16,1319.68 2046.73,1324.93 2049.3,1330.01 2051.88,1334.92 2054.45,1339.68 2057.02,1344.27 
  2059.59,1348.71 2062.16,1353 2064.73,1357.14 2067.31,1361.13 2069.88,1364.98 2072.45,1368.69 2075.02,1372.27 2077.59,1375.71 2080.16,1379.02 2082.73,1382.21 
  2085.31,1385.27 2087.88,1388.22 2090.45,1391.05 2093.02,1393.77 2095.59,1396.37 2098.16,1398.88 2100.74,1401.28 2103.31,1403.57 2105.88,1405.78 2108.45,1407.89 
  2111.02,1409.9 2113.59,1411.84 2116.17,1413.68 2118.74,1415.45 2121.31,1417.13 2123.88,1418.74 2126.45,1420.28 2129.02,1421.75 2131.6,1423.14 2134.17,1424.48 
  2136.74,1425.75 2139.31,1426.96 2141.88,1428.11 2144.45,1429.2 2147.03,1430.24 2149.6,1431.23 2152.17,1432.17 2154.74,1433.07 2157.31,1433.92 2159.88,1434.72 
  2162.46,1435.48 2165.03,1436.21 2167.6,1436.89 2170.17,1437.54 2172.74,1438.16 2175.31,1438.74 2177.89,1439.29 2180.46,1439.81 2183.03,1440.3 2185.6,1440.77 
  2188.17,1441.21 2190.74,1441.62 2193.31,1442.01 2195.89,1442.38 2198.46,1442.73 2201.03,1443.06 2203.6,1443.37 2206.17,1443.66 2208.74,1443.93 2211.32,1444.19 
  2213.89,1444.43 2216.46,1444.66 2219.03,1444.87 2221.6,1445.07 2224.17,1445.26 2226.75,1445.43 2229.32,1445.6 2231.89,1445.75 2234.46,1445.9 2237.03,1446.04 
  2239.6,1446.16 2242.18,1446.28 2244.75,1446.39 2247.32,1446.5 2249.89,1446.59 2252.46,1446.69 2255.03,1446.77 2257.61,1446.85 2260.18,1446.92 2262.75,1446.99 
  2265.32,1447.06 2267.89,1447.12 2270.46,1447.17 2273.04,1447.22 2275.61,1447.27 2278.18,1447.32 2280.75,1447.36 2283.32,1447.4 2285.89,1447.43 2288.47,1447.47 
  2291.04,1447.5 
  "/>
<path clip-path="url(#clip660)" d="
M1921.49 324.425 L2280.06 324.425 L2280.06 168.905 L1921.49 168.905  Z
  " fill="#ffffff" fill-rule="evenodd" fill-opacity="1"/>
<polyline clip-path="url(#clip660)" style="stroke:#000000; stroke-linecap:butt; stroke-linejoin:round; stroke-width:4; stroke-opacity:1; fill:none" points="
  1921.49,324.425 2280.06,324.425 2280.06,168.905 1921.49,168.905 1921.49,324.425 
  "/>
<polyline clip-path="url(#clip660)" style="stroke:#009af9; stroke-linecap:butt; stroke-linejoin:round; stroke-width:4; stroke-opacity:1; fill:none" points="
  1945.72,220.745 2091.1,220.745 
  "/>
<path clip-path="url(#clip660)" d="M2120.01 207.307 L2120.01 234.182 L2125.66 234.182 Q2132.81 234.182 2136.12 230.941 Q2139.45 227.701 2139.45 220.71 Q2139.45 213.766 2136.12 210.548 Q2132.81 207.307 2125.66 207.307 L2120.01 207.307 M2115.33 203.465 L2124.94 203.465 Q2134.98 203.465 2139.68 207.654 Q2144.38 211.821 2144.38 220.71 Q2144.38 229.645 2139.66 233.835 Q2134.94 238.025 2124.94 238.025 L2115.33 238.025 L2115.33 203.465 Z" fill="#000000" fill-rule="evenodd" fill-opacity="1" /><path clip-path="url(#clip660)" d="M2163.43 224.992 Q2158.27 224.992 2156.28 226.173 Q2154.29 227.353 2154.29 230.201 Q2154.29 232.469 2155.77 233.812 Q2157.28 235.131 2159.84 235.131 Q2163.39 235.131 2165.52 232.631 Q2167.67 230.108 2167.67 225.941 L2167.67 224.992 L2163.43 224.992 M2171.93 223.233 L2171.93 238.025 L2167.67 238.025 L2167.67 234.089 Q2166.21 236.451 2164.03 237.585 Q2161.86 238.696 2158.71 238.696 Q2154.73 238.696 2152.37 236.474 Q2150.03 234.228 2150.03 230.478 Q2150.03 226.103 2152.95 223.881 Q2155.89 221.659 2161.7 221.659 L2167.67 221.659 L2167.67 221.242 Q2167.67 218.303 2165.72 216.705 Q2163.8 215.085 2160.31 215.085 Q2158.09 215.085 2155.98 215.617 Q2153.87 216.15 2151.93 217.215 L2151.93 213.279 Q2154.27 212.377 2156.47 211.937 Q2158.66 211.474 2160.75 211.474 Q2166.37 211.474 2169.15 214.391 Q2171.93 217.307 2171.93 223.233 Z" fill="#000000" fill-rule="evenodd" fill-opacity="1" /><path clip-path="url(#clip660)" d="M2184.91 204.738 L2184.91 212.099 L2193.69 212.099 L2193.69 215.409 L2184.91 215.409 L2184.91 229.483 Q2184.91 232.654 2185.77 233.557 Q2186.65 234.46 2189.31 234.46 L2193.69 234.46 L2193.69 238.025 L2189.31 238.025 Q2184.38 238.025 2182.51 236.196 Q2180.63 234.344 2180.63 229.483 L2180.63 215.409 L2177.51 215.409 L2177.51 212.099 L2180.63 212.099 L2180.63 204.738 L2184.91 204.738 Z" fill="#000000" fill-rule="evenodd" fill-opacity="1" /><path clip-path="url(#clip660)" d="M2211.07 224.992 Q2205.91 224.992 2203.92 226.173 Q2201.93 227.353 2201.93 230.201 Q2201.93 232.469 2203.41 233.812 Q2204.91 235.131 2207.48 235.131 Q2211.03 235.131 2213.15 232.631 Q2215.31 230.108 2215.31 225.941 L2215.31 224.992 L2211.07 224.992 M2219.57 223.233 L2219.57 238.025 L2215.31 238.025 L2215.31 234.089 Q2213.85 236.451 2211.67 237.585 Q2209.5 238.696 2206.35 238.696 Q2202.37 238.696 2200.01 236.474 Q2197.67 234.228 2197.67 230.478 Q2197.67 226.103 2200.59 223.881 Q2203.53 221.659 2209.34 221.659 L2215.31 221.659 L2215.31 221.242 Q2215.31 218.303 2213.36 216.705 Q2211.44 215.085 2207.95 215.085 Q2205.72 215.085 2203.62 215.617 Q2201.51 216.15 2199.57 217.215 L2199.57 213.279 Q2201.9 212.377 2204.1 211.937 Q2206.3 211.474 2208.39 211.474 Q2214.01 211.474 2216.79 214.391 Q2219.57 217.307 2219.57 223.233 Z" fill="#000000" fill-rule="evenodd" fill-opacity="1" /><polyline clip-path="url(#clip660)" style="stroke:#e26f46; stroke-linecap:butt; stroke-linejoin:round; stroke-width:4; stroke-opacity:1; fill:none" points="
  1945.72,272.585 2091.1,272.585 
  "/>
<path clip-path="url(#clip660)" d="M2115.33 255.305 L2144.57 255.305 L2144.57 259.24 L2132.3 259.24 L2132.3 289.865 L2127.6 289.865 L2127.6 259.24 L2115.33 259.24 L2115.33 255.305 Z" fill="#000000" fill-rule="evenodd" fill-opacity="1" /><path clip-path="url(#clip660)" d="M2156.95 267.92 Q2156.23 267.504 2155.38 267.318 Q2154.54 267.11 2153.53 267.11 Q2149.91 267.11 2147.97 269.471 Q2146.05 271.809 2146.05 276.207 L2146.05 289.865 L2141.77 289.865 L2141.77 263.939 L2146.05 263.939 L2146.05 267.967 Q2147.39 265.606 2149.54 264.471 Q2151.7 263.314 2154.78 263.314 Q2155.22 263.314 2155.75 263.383 Q2156.28 263.43 2156.93 263.545 L2156.95 267.92 Z" fill="#000000" fill-rule="evenodd" fill-opacity="1" /><path clip-path="url(#clip660)" d="M2160.98 279.633 L2160.98 263.939 L2165.24 263.939 L2165.24 279.471 Q2165.24 283.152 2166.67 285.004 Q2168.11 286.832 2170.98 286.832 Q2174.43 286.832 2176.42 284.633 Q2178.43 282.434 2178.43 278.638 L2178.43 263.939 L2182.69 263.939 L2182.69 289.865 L2178.43 289.865 L2178.43 285.883 Q2176.88 288.244 2174.82 289.402 Q2172.78 290.536 2170.08 290.536 Q2165.61 290.536 2163.29 287.758 Q2160.98 284.98 2160.98 279.633 M2171.7 263.314 L2171.7 263.314 Z" fill="#000000" fill-rule="evenodd" fill-opacity="1" /><path clip-path="url(#clip660)" d="M2195.68 256.578 L2195.68 263.939 L2204.45 263.939 L2204.45 267.249 L2195.68 267.249 L2195.68 281.323 Q2195.68 284.494 2196.53 285.397 Q2197.41 286.3 2200.08 286.3 L2204.45 286.3 L2204.45 289.865 L2200.08 289.865 Q2195.15 289.865 2193.27 288.036 Q2191.4 286.184 2191.4 281.323 L2191.4 267.249 L2188.27 267.249 L2188.27 263.939 L2191.4 263.939 L2191.4 256.578 L2195.68 256.578 Z" fill="#000000" fill-rule="evenodd" fill-opacity="1" /><path clip-path="url(#clip660)" d="M2231.6 274.217 L2231.6 289.865 L2227.34 289.865 L2227.34 274.355 Q2227.34 270.675 2225.91 268.846 Q2224.47 267.018 2221.6 267.018 Q2218.15 267.018 2216.16 269.217 Q2214.17 271.416 2214.17 275.212 L2214.17 289.865 L2209.89 289.865 L2209.89 253.846 L2214.17 253.846 L2214.17 267.967 Q2215.7 265.629 2217.76 264.471 Q2219.84 263.314 2222.55 263.314 Q2227.02 263.314 2229.31 266.092 Q2231.6 268.846 2231.6 274.217 Z" fill="#000000" fill-rule="evenodd" fill-opacity="1" /></svg>
