<?xml version="1.0" encoding="utf-8"?>
<svg xmlns="http://www.w3.org/2000/svg" xmlns:xlink="http://www.w3.org/1999/xlink" width="600" height="400" viewBox="0 0 2400 1600">
<defs>
  <clipPath id="clip630">
    <rect x="0" y="0" width="2400" height="1600"/>
  </clipPath>
</defs>
<path clip-path="url(#clip630)" d="
M0 1600 L2400 1600 L2400 0 L0 0  Z
  " fill="#ffffff" fill-rule="evenodd" fill-opacity="1"/>
<defs>
  <clipPath id="clip631">
    <rect x="480" y="0" width="1681" height="1600"/>
  </clipPath>
</defs>
<path clip-path="url(#clip630)" d="
M172.015 1486.45 L2352.76 1486.45 L2352.76 123.472 L172.015 123.472  Z
  " fill="#ffffff" fill-rule="evenodd" fill-opacity="1"/>
<defs>
  <clipPath id="clip632">
    <rect x="172" y="123" width="2182" height="1364"/>
  </clipPath>
</defs>
<polyline clip-path="url(#clip632)" style="stroke:#000000; stroke-linecap:butt; stroke-linejoin:round; stroke-width:2; stroke-opacity:0.1; fill:none" points="
  233.734,1486.45 233.734,123.472 
  "/>
<polyline clip-path="url(#clip632)" style="stroke:#000000; stroke-linecap:butt; stroke-linejoin:round; stroke-width:2; stroke-opacity:0.1; fill:none" points="
  576.618,1486.45 576.618,123.472 
  "/>
<polyline clip-path="url(#clip632)" style="stroke:#000000; stroke-linecap:butt; stroke-linejoin:round; stroke-width:2; stroke-opacity:0.1; fill:none" points="
  919.502,1486.45 919.502,123.472 
  "/>
<polyline clip-path="url(#clip632)" style="stroke:#000000; stroke-linecap:butt; stroke-linejoin:round; stroke-width:2; stroke-opacity:0.1; fill:none" points="
  1262.39,1486.45 1262.39,123.472 
  "/>
<polyline clip-path="url(#clip632)" style="stroke:#000000; stroke-linecap:butt; stroke-linejoin:round; stroke-width:2; stroke-opacity:0.1; fill:none" points="
  1605.27,1486.45 1605.27,123.472 
  "/>
<polyline clip-path="url(#clip632)" style="stroke:#000000; stroke-linecap:butt; stroke-linejoin:round; stroke-width:2; stroke-opacity:0.1; fill:none" points="
  1948.15,1486.45 1948.15,123.472 
  "/>
<polyline clip-path="url(#clip632)" style="stroke:#000000; stroke-linecap:butt; stroke-linejoin:round; stroke-width:2; stroke-opacity:0.1; fill:none" points="
  2291.04,1486.45 2291.04,123.472 
  "/>
<polyline clip-path="url(#clip630)" style="stroke:#000000; stroke-linecap:butt; stroke-linejoin:round; stroke-width:4; stroke-opacity:1; fill:none" points="
  172.015,1486.45 2352.76,1486.45 
  "/>
<polyline clip-path="url(#clip630)" style="stroke:#000000; stroke-linecap:butt; stroke-linejoin:round; stroke-width:4; stroke-opacity:1; fill:none" points="
  233.734,1486.45 233.734,1467.55 
  "/>
<polyline clip-path="url(#clip630)" style="stroke:#000000; stroke-linecap:butt; stroke-linejoin:round; stroke-width:4; stroke-opacity:1; fill:none" points="
  576.618,1486.45 576.618,1467.55 
  "/>
<polyline clip-path="url(#clip630)" style="stroke:#000000; stroke-linecap:butt; stroke-linejoin:round; stroke-width:4; stroke-opacity:1; fill:none" points="
  919.502,1486.45 919.502,1467.55 
  "/>
<polyline clip-path="url(#clip630)" style="stroke:#000000; stroke-linecap:butt; stroke-linejoin:round; stroke-width:4; stroke-opacity:1; fill:none" points="
  1262.39,1486.45 1262.39,1467.55 
  "/>
<polyline clip-path="url(#clip630)" style="stroke:#000000; stroke-linecap:butt; stroke-linejoin:round; stroke-width:4; stroke-opacity:1; fill:none" points="
  1605.27,1486.45 1605.27,1467.55 
  "/>
<polyline clip-path="url(#clip630)" style="stroke:#000000; stroke-linecap:butt; stroke-linejoin:round; stroke-width:4; stroke-opacity:1; fill:none" points="
  1948.15,1486.45 1948.15,1467.55 
  "/>
<polyline clip-path="url(#clip630)" style="stroke:#000000; stroke-linecap:butt; stroke-linejoin:round; stroke-width:4; stroke-opacity:1; fill:none" points="
  2291.04,1486.45 2291.04,1467.55 
  "/>
<path clip-path="url(#clip630)" d="M203.676 1530.29 L233.352 1530.29 L233.352 1534.23 L203.676 1534.23 L203.676 1530.29 Z" fill="#000000" fill-rule="evenodd" fill-opacity="1" /><path clip-path="url(#clip630)" d="M247.472 1543.18 L263.792 1543.18 L263.792 1547.12 L241.847 1547.12 L241.847 1543.18 Q244.509 1540.43 249.093 1535.8 Q253.699 1531.15 254.88 1529.81 Q257.125 1527.28 258.005 1525.55 Q258.907 1523.79 258.907 1522.1 Q258.907 1519.34 256.963 1517.61 Q255.042 1515.87 251.94 1515.87 Q249.741 1515.87 247.287 1516.63 Q244.857 1517.4 242.079 1518.95 L242.079 1514.23 Q244.903 1513.09 247.357 1512.51 Q249.81 1511.93 251.847 1511.93 Q257.218 1511.93 260.412 1514.62 Q263.606 1517.31 263.606 1521.8 Q263.606 1523.93 262.796 1525.85 Q262.009 1527.74 259.903 1530.34 Q259.324 1531.01 256.222 1534.23 Q253.12 1537.42 247.472 1543.18 Z" fill="#000000" fill-rule="evenodd" fill-opacity="1" /><path clip-path="url(#clip630)" d="M546.375 1530.29 L576.051 1530.29 L576.051 1534.23 L546.375 1534.23 L546.375 1530.29 Z" fill="#000000" fill-rule="evenodd" fill-opacity="1" /><path clip-path="url(#clip630)" d="M586.953 1543.18 L594.592 1543.18 L594.592 1516.82 L586.282 1518.49 L586.282 1514.23 L594.546 1512.56 L599.222 1512.56 L599.222 1543.18 L606.861 1543.18 L606.861 1547.12 L586.953 1547.12 L586.953 1543.18 Z" fill="#000000" fill-rule="evenodd" fill-opacity="1" /><path clip-path="url(#clip630)" d="M919.502 1515.64 Q915.89 1515.64 914.062 1519.2 Q912.256 1522.75 912.256 1529.87 Q912.256 1536.98 914.062 1540.55 Q915.89 1544.09 919.502 1544.09 Q923.136 1544.09 924.941 1540.55 Q926.77 1536.98 926.77 1529.87 Q926.77 1522.75 924.941 1519.2 Q923.136 1515.64 919.502 1515.64 M919.502 1511.93 Q925.312 1511.93 928.367 1516.54 Q931.446 1521.12 931.446 1529.87 Q931.446 1538.6 928.367 1543.21 Q925.312 1547.79 919.502 1547.79 Q913.691 1547.79 910.613 1543.21 Q907.557 1538.6 907.557 1529.87 Q907.557 1521.12 910.613 1516.54 Q913.691 1511.93 919.502 1511.93 Z" fill="#000000" fill-rule="evenodd" fill-opacity="1" /><path clip-path="url(#clip630)" d="M1252.77 1543.18 L1260.41 1543.18 L1260.41 1516.82 L1252.1 1518.49 L1252.1 1514.23 L1260.36 1512.56 L1265.04 1512.56 L1265.04 1543.18 L1272.67 1543.18 L1272.67 1547.12 L1252.77 1547.12 L1252.77 1543.18 Z" fill="#000000" fill-rule="evenodd" fill-opacity="1" /><path clip-path="url(#clip630)" d="M1599.92 1543.18 L1616.24 1543.18 L1616.24 1547.12 L1594.3 1547.12 L1594.3 1543.18 Q1596.96 1540.43 1601.54 1535.8 Q1606.15 1531.15 1607.33 1529.81 Q1609.57 1527.28 1610.45 1525.55 Q1611.36 1523.79 1611.36 1522.1 Q1611.36 1519.34 1609.41 1517.61 Q1607.49 1515.87 1604.39 1515.87 Q1602.19 1515.87 1599.74 1516.63 Q1597.31 1517.4 1594.53 1518.95 L1594.53 1514.23 Q1597.35 1513.09 1599.81 1512.51 Q1602.26 1511.93 1604.3 1511.93 Q1609.67 1511.93 1612.86 1514.62 Q1616.06 1517.31 1616.06 1521.8 Q1616.06 1523.93 1615.25 1525.85 Q1614.46 1527.74 1612.35 1530.34 Q1611.77 1531.01 1608.67 1534.23 Q1605.57 1537.42 1599.92 1543.18 Z" fill="#000000" fill-rule="evenodd" fill-opacity="1" /><path clip-path="url(#clip630)" d="M1952.4 1528.49 Q1955.76 1529.2 1957.63 1531.47 Q1959.53 1533.74 1959.53 1537.07 Q1959.53 1542.19 1956.01 1544.99 Q1952.49 1547.79 1946.01 1547.79 Q1943.84 1547.79 1941.52 1547.35 Q1939.23 1546.93 1936.78 1546.08 L1936.78 1541.56 Q1938.72 1542.7 1941.03 1543.28 Q1943.35 1543.86 1945.87 1543.86 Q1950.27 1543.86 1952.56 1542.12 Q1954.88 1540.38 1954.88 1537.07 Q1954.88 1534.02 1952.72 1532.31 Q1950.6 1530.57 1946.78 1530.57 L1942.75 1530.57 L1942.75 1526.73 L1946.96 1526.73 Q1950.41 1526.73 1952.24 1525.36 Q1954.07 1523.97 1954.07 1521.38 Q1954.07 1518.72 1952.17 1517.31 Q1950.29 1515.87 1946.78 1515.87 Q1944.85 1515.87 1942.66 1516.29 Q1940.46 1516.7 1937.82 1517.58 L1937.82 1513.42 Q1940.48 1512.68 1942.79 1512.31 Q1945.13 1511.93 1947.19 1511.93 Q1952.52 1511.93 1955.62 1514.37 Q1958.72 1516.77 1958.72 1520.89 Q1958.72 1523.76 1957.08 1525.75 Q1955.43 1527.72 1952.4 1528.49 Z" fill="#000000" fill-rule="evenodd" fill-opacity="1" /><path clip-path="url(#clip630)" d="M2294.05 1516.63 L2282.24 1535.08 L2294.05 1535.08 L2294.05 1516.63 M2292.82 1512.56 L2298.7 1512.56 L2298.7 1535.08 L2303.63 1535.08 L2303.63 1538.97 L2298.7 1538.97 L2298.7 1547.12 L2294.05 1547.12 L2294.05 1538.97 L2278.44 1538.97 L2278.44 1534.46 L2292.82 1512.56 Z" fill="#000000" fill-rule="evenodd" fill-opacity="1" /><polyline clip-path="url(#clip632)" style="stroke:#000000; stroke-linecap:butt; stroke-linejoin:round; stroke-width:2; stroke-opacity:0.1; fill:none" points="
  172.015,1447.87 2352.76,1447.87 
  "/>
<polyline clip-path="url(#clip632)" style="stroke:#000000; stroke-linecap:butt; stroke-linejoin:round; stroke-width:2; stroke-opacity:0.1; fill:none" points="
  172.015,1168.35 2352.76,1168.35 
  "/>
<polyline clip-path="url(#clip632)" style="stroke:#000000; stroke-linecap:butt; stroke-linejoin:round; stroke-width:2; stroke-opacity:0.1; fill:none" points="
  172.015,888.818 2352.76,888.818 
  "/>
<polyline clip-path="url(#clip632)" style="stroke:#000000; stroke-linecap:butt; stroke-linejoin:round; stroke-width:2; stroke-opacity:0.1; fill:none" points="
  172.015,609.291 2352.76,609.291 
  "/>
<polyline clip-path="url(#clip632)" style="stroke:#000000; stroke-linecap:butt; stroke-linejoin:round; stroke-width:2; stroke-opacity:0.1; fill:none" points="
  172.015,329.763 2352.76,329.763 
  "/>
<polyline clip-path="url(#clip630)" style="stroke:#000000; stroke-linecap:butt; stroke-linejoin:round; stroke-width:4; stroke-opacity:1; fill:none" points="
  172.015,1486.45 172.015,123.472 
  "/>
<polyline clip-path="url(#clip630)" style="stroke:#000000; stroke-linecap:butt; stroke-linejoin:round; stroke-width:4; stroke-opacity:1; fill:none" points="
  172.015,1447.87 190.912,1447.87 
  "/>
<polyline clip-path="url(#clip630)" style="stroke:#000000; stroke-linecap:butt; stroke-linejoin:round; stroke-width:4; stroke-opacity:1; fill:none" points="
  172.015,1168.35 190.912,1168.35 
  "/>
<polyline clip-path="url(#clip630)" style="stroke:#000000; stroke-linecap:butt; stroke-linejoin:round; stroke-width:4; stroke-opacity:1; fill:none" points="
  172.015,888.818 190.912,888.818 
  "/>
<polyline clip-path="url(#clip630)" style="stroke:#000000; stroke-linecap:butt; stroke-linejoin:round; stroke-width:4; stroke-opacity:1; fill:none" points="
  172.015,609.291 190.912,609.291 
  "/>
<polyline clip-path="url(#clip630)" style="stroke:#000000; stroke-linecap:butt; stroke-linejoin:round; stroke-width:4; stroke-opacity:1; fill:none" points="
  172.015,329.763 190.912,329.763 
  "/>
<path clip-path="url(#clip630)" d="M124.07 1433.67 Q120.459 1433.67 118.631 1437.24 Q116.825 1440.78 116.825 1447.91 Q116.825 1455.01 118.631 1458.58 Q120.459 1462.12 124.07 1462.12 Q127.705 1462.12 129.51 1458.58 Q131.339 1455.01 131.339 1447.91 Q131.339 1440.78 129.51 1437.24 Q127.705 1433.67 124.07 1433.67 M124.07 1429.97 Q129.881 1429.97 132.936 1434.57 Q136.015 1439.16 136.015 1447.91 Q136.015 1456.63 132.936 1461.24 Q129.881 1465.82 124.07 1465.82 Q118.26 1465.82 115.182 1461.24 Q112.126 1456.63 112.126 1447.91 Q112.126 1439.16 115.182 1434.57 Q118.26 1429.97 124.07 1429.97 Z" fill="#000000" fill-rule="evenodd" fill-opacity="1" /><path clip-path="url(#clip630)" d="M57.7745 1181.69 L74.0939 1181.69 L74.0939 1185.63 L52.1495 1185.63 L52.1495 1181.69 Q54.8115 1178.94 59.3949 1174.31 Q64.0013 1169.65 65.1819 1168.31 Q67.4272 1165.79 68.3068 1164.05 Q69.2096 1162.29 69.2096 1160.6 Q69.2096 1157.85 67.2652 1156.11 Q65.3439 1154.38 62.2421 1154.38 Q60.043 1154.38 57.5893 1155.14 Q55.1588 1155.9 52.381 1157.45 L52.381 1152.73 Q55.2051 1151.6 57.6588 1151.02 Q60.1124 1150.44 62.1495 1150.44 Q67.5198 1150.44 70.7142 1153.13 Q73.9087 1155.81 73.9087 1160.3 Q73.9087 1162.43 73.0985 1164.35 Q72.3115 1166.25 70.205 1168.84 Q69.6263 1169.51 66.5245 1172.73 Q63.4226 1175.93 57.7745 1181.69 Z" fill="#000000" fill-rule="evenodd" fill-opacity="1" /><path clip-path="url(#clip630)" d="M93.9086 1154.14 Q90.2975 1154.14 88.4688 1157.71 Q86.6632 1161.25 86.6632 1168.38 Q86.6632 1175.49 88.4688 1179.05 Q90.2975 1182.59 93.9086 1182.59 Q97.5428 1182.59 99.3483 1179.05 Q101.177 1175.49 101.177 1168.38 Q101.177 1161.25 99.3483 1157.71 Q97.5428 1154.14 93.9086 1154.14 M93.9086 1150.44 Q99.7187 1150.44 102.774 1155.05 Q105.853 1159.63 105.853 1168.38 Q105.853 1177.11 102.774 1181.71 Q99.7187 1186.3 93.9086 1186.3 Q88.0984 1186.3 85.0197 1181.71 Q81.9642 1177.11 81.9642 1168.38 Q81.9642 1159.63 85.0197 1155.05 Q88.0984 1150.44 93.9086 1150.44 Z" fill="#000000" fill-rule="evenodd" fill-opacity="1" /><path clip-path="url(#clip630)" d="M124.07 1154.14 Q120.459 1154.14 118.631 1157.71 Q116.825 1161.25 116.825 1168.38 Q116.825 1175.49 118.631 1179.05 Q120.459 1182.59 124.07 1182.59 Q127.705 1182.59 129.51 1179.05 Q131.339 1175.49 131.339 1168.38 Q131.339 1161.25 129.51 1157.71 Q127.705 1154.14 124.07 1154.14 M124.07 1150.44 Q129.881 1150.44 132.936 1155.05 Q136.015 1159.63 136.015 1168.38 Q136.015 1177.11 132.936 1181.71 Q129.881 1186.3 124.07 1186.3 Q118.26 1186.3 115.182 1181.71 Q112.126 1177.11 112.126 1168.38 Q112.126 1159.63 115.182 1155.05 Q118.26 1150.44 124.07 1150.44 Z" fill="#000000" fill-rule="evenodd" fill-opacity="1" /><path clip-path="url(#clip630)" d="M66.5939 875.612 L54.7884 894.061 L66.5939 894.061 L66.5939 875.612 M65.367 871.538 L71.2466 871.538 L71.2466 894.061 L76.1772 894.061 L76.1772 897.95 L71.2466 897.95 L71.2466 906.098 L66.5939 906.098 L66.5939 897.95 L50.9921 897.95 L50.9921 893.436 L65.367 871.538 Z" fill="#000000" fill-rule="evenodd" fill-opacity="1" /><path clip-path="url(#clip630)" d="M93.9086 874.617 Q90.2975 874.617 88.4688 878.182 Q86.6632 881.723 86.6632 888.853 Q86.6632 895.959 88.4688 899.524 Q90.2975 903.066 93.9086 903.066 Q97.5428 903.066 99.3483 899.524 Q101.177 895.959 101.177 888.853 Q101.177 881.723 99.3483 878.182 Q97.5428 874.617 93.9086 874.617 M93.9086 870.913 Q99.7187 870.913 102.774 875.52 Q105.853 880.103 105.853 888.853 Q105.853 897.58 102.774 902.186 Q99.7187 906.77 93.9086 906.77 Q88.0984 906.77 85.0197 902.186 Q81.9642 897.58 81.9642 888.853 Q81.9642 880.103 85.0197 875.52 Q88.0984 870.913 93.9086 870.913 Z" fill="#000000" fill-rule="evenodd" fill-opacity="1" /><path clip-path="url(#clip630)" d="M124.07 874.617 Q120.459 874.617 118.631 878.182 Q116.825 881.723 116.825 888.853 Q116.825 895.959 118.631 899.524 Q120.459 903.066 124.07 903.066 Q127.705 903.066 129.51 899.524 Q131.339 895.959 131.339 888.853 Q131.339 881.723 129.51 878.182 Q127.705 874.617 124.07 874.617 M124.07 870.913 Q129.881 870.913 132.936 875.52 Q136.015 880.103 136.015 888.853 Q136.015 897.58 132.936 902.186 Q129.881 906.77 124.07 906.77 Q118.26 906.77 115.182 902.186 Q112.126 897.58 112.126 888.853 Q112.126 880.103 115.182 875.52 Q118.26 870.913 124.07 870.913 Z" fill="#000000" fill-rule="evenodd" fill-opacity="1" /><path clip-path="url(#clip630)" d="M64.3254 607.427 Q61.1773 607.427 59.3254 609.58 Q57.4967 611.733 57.4967 615.483 Q57.4967 619.21 59.3254 621.386 Q61.1773 623.538 64.3254 623.538 Q67.4735 623.538 69.3022 621.386 Q71.1541 619.21 71.1541 615.483 Q71.1541 611.733 69.3022 609.58 Q67.4735 607.427 64.3254 607.427 M73.6077 592.775 L73.6077 597.034 Q71.8485 596.201 70.0429 595.761 Q68.2606 595.321 66.5013 595.321 Q61.8717 595.321 59.418 598.446 Q56.9875 601.571 56.6402 607.89 Q58.006 605.876 60.0662 604.812 Q62.1263 603.724 64.6032 603.724 Q69.8115 603.724 72.8207 606.895 Q75.8531 610.043 75.8531 615.483 Q75.8531 620.807 72.705 624.025 Q69.5568 627.242 64.3254 627.242 Q58.33 627.242 55.1588 622.659 Q51.9875 618.052 51.9875 609.326 Q51.9875 601.131 55.8764 596.27 Q59.7652 591.386 66.3161 591.386 Q68.0754 591.386 69.8578 591.733 Q71.6633 592.08 73.6077 592.775 Z" fill="#000000" fill-rule="evenodd" fill-opacity="1" /><path clip-path="url(#clip630)" d="M93.9086 595.089 Q90.2975 595.089 88.4688 598.654 Q86.6632 602.196 86.6632 609.326 Q86.6632 616.432 88.4688 619.997 Q90.2975 623.538 93.9086 623.538 Q97.5428 623.538 99.3483 619.997 Q101.177 616.432 101.177 609.326 Q101.177 602.196 99.3483 598.654 Q97.5428 595.089 93.9086 595.089 M93.9086 591.386 Q99.7187 591.386 102.774 595.992 Q105.853 600.576 105.853 609.326 Q105.853 618.052 102.774 622.659 Q99.7187 627.242 93.9086 627.242 Q88.0984 627.242 85.0197 622.659 Q81.9642 618.052 81.9642 609.326 Q81.9642 600.576 85.0197 595.992 Q88.0984 591.386 93.9086 591.386 Z" fill="#000000" fill-rule="evenodd" fill-opacity="1" /><path clip-path="url(#clip630)" d="M124.07 595.089 Q120.459 595.089 118.631 598.654 Q116.825 602.196 116.825 609.326 Q116.825 616.432 118.631 619.997 Q120.459 623.538 124.07 623.538 Q127.705 623.538 129.51 619.997 Q131.339 616.432 131.339 609.326 Q131.339 602.196 129.51 598.654 Q127.705 595.089 124.07 595.089 M124.07 591.386 Q129.881 591.386 132.936 595.992 Q136.015 600.576 136.015 609.326 Q136.015 618.052 132.936 622.659 Q129.881 627.242 124.07 627.242 Q118.26 627.242 115.182 622.659 Q112.126 618.052 112.126 609.326 Q112.126 600.576 115.182 595.992 Q118.26 591.386 124.07 591.386 Z" fill="#000000" fill-rule="evenodd" fill-opacity="1" /><path clip-path="url(#clip630)" d="M63.7467 330.631 Q60.4134 330.631 58.4921 332.414 Q56.5939 334.196 56.5939 337.321 Q56.5939 340.446 58.4921 342.229 Q60.4134 344.011 63.7467 344.011 Q67.08 344.011 69.0013 342.229 Q70.9226 340.423 70.9226 337.321 Q70.9226 334.196 69.0013 332.414 Q67.1032 330.631 63.7467 330.631 M59.0708 328.641 Q56.0615 327.9 54.3717 325.84 Q52.7051 323.78 52.7051 320.817 Q52.7051 316.673 55.6449 314.266 Q58.6078 311.858 63.7467 311.858 Q68.9087 311.858 71.8485 314.266 Q74.7883 316.673 74.7883 320.817 Q74.7883 323.78 73.0985 325.84 Q71.4318 327.9 68.4457 328.641 Q71.8253 329.428 73.7003 331.719 Q75.5985 334.011 75.5985 337.321 Q75.5985 342.344 72.5198 345.029 Q69.4642 347.715 63.7467 347.715 Q58.0291 347.715 54.9504 345.029 Q51.8949 342.344 51.8949 337.321 Q51.8949 334.011 53.793 331.719 Q55.6912 329.428 59.0708 328.641 M57.3578 321.256 Q57.3578 323.942 59.0245 325.446 Q60.7143 326.951 63.7467 326.951 Q66.7559 326.951 68.4457 325.446 Q70.1587 323.942 70.1587 321.256 Q70.1587 318.571 68.4457 317.067 Q66.7559 315.562 63.7467 315.562 Q60.7143 315.562 59.0245 317.067 Q57.3578 318.571 57.3578 321.256 Z" fill="#000000" fill-rule="evenodd" fill-opacity="1" /><path clip-path="url(#clip630)" d="M93.9086 315.562 Q90.2975 315.562 88.4688 319.127 Q86.6632 322.668 86.6632 329.798 Q86.6632 336.905 88.4688 340.469 Q90.2975 344.011 93.9086 344.011 Q97.5428 344.011 99.3483 340.469 Q101.177 336.905 101.177 329.798 Q101.177 322.668 99.3483 319.127 Q97.5428 315.562 93.9086 315.562 M93.9086 311.858 Q99.7187 311.858 102.774 316.465 Q105.853 321.048 105.853 329.798 Q105.853 338.525 102.774 343.131 Q99.7187 347.715 93.9086 347.715 Q88.0984 347.715 85.0197 343.131 Q81.9642 338.525 81.9642 329.798 Q81.9642 321.048 85.0197 316.465 Q88.0984 311.858 93.9086 311.858 Z" fill="#000000" fill-rule="evenodd" fill-opacity="1" /><path clip-path="url(#clip630)" d="M124.07 315.562 Q120.459 315.562 118.631 319.127 Q116.825 322.668 116.825 329.798 Q116.825 336.905 118.631 340.469 Q120.459 344.011 124.07 344.011 Q127.705 344.011 129.51 340.469 Q131.339 336.905 131.339 329.798 Q131.339 322.668 129.51 319.127 Q127.705 315.562 124.07 315.562 M124.07 311.858 Q129.881 311.858 132.936 316.465 Q136.015 321.048 136.015 329.798 Q136.015 338.525 132.936 343.131 Q129.881 347.715 124.07 347.715 Q118.26 347.715 115.182 343.131 Q112.126 338.525 112.126 329.798 Q112.126 321.048 115.182 316.465 Q118.26 311.858 124.07 311.858 Z" fill="#000000" fill-rule="evenodd" fill-opacity="1" /><path clip-path="url(#clip630)" d="M1179.36 18.8205 L1179.36 65.8515 L1189.25 65.8515 Q1201.76 65.8515 1207.56 60.1802 Q1213.39 54.509 1213.39 42.2752 Q1213.39 30.1225 1207.56 24.4918 Q1201.76 18.8205 1189.25 18.8205 L1179.36 18.8205 M1171.18 12.096 L1187.99 12.096 Q1205.57 12.096 1213.79 19.4281 Q1222.02 26.7198 1222.02 42.2752 Q1222.02 57.9117 1213.75 65.2439 Q1205.49 72.576 1187.99 72.576 L1171.18 72.576 L1171.18 12.096 Z" fill="#000000" fill-rule="evenodd" fill-opacity="1" /><path clip-path="url(#clip630)" d="M1255.36 49.7694 Q1246.32 49.7694 1242.84 51.8354 Q1239.36 53.9013 1239.36 58.8839 Q1239.36 62.8538 1241.95 65.2034 Q1244.58 67.5124 1249.08 67.5124 Q1255.28 67.5124 1259 63.1374 Q1262.77 58.7219 1262.77 51.4303 L1262.77 49.7694 L1255.36 49.7694 M1270.22 46.6907 L1270.22 72.576 L1262.77 72.576 L1262.77 65.6895 Q1260.22 69.8214 1256.41 71.8063 Q1252.6 73.7508 1247.09 73.7508 Q1240.13 73.7508 1235.99 69.8619 Q1231.9 65.9325 1231.9 59.3701 Q1231.9 51.7138 1237.01 47.825 Q1242.15 43.9361 1252.32 43.9361 L1262.77 43.9361 L1262.77 43.2069 Q1262.77 38.0623 1259.37 35.2672 Q1256.01 32.4315 1249.89 32.4315 Q1246 32.4315 1242.31 33.3632 Q1238.63 34.295 1235.22 36.1584 L1235.22 29.2718 Q1239.32 27.692 1243.16 26.9223 Q1247.01 26.1121 1250.66 26.1121 Q1260.5 26.1121 1265.36 31.2163 Q1270.22 36.3204 1270.22 46.6907 Z" fill="#000000" fill-rule="evenodd" fill-opacity="1" /><path clip-path="url(#clip630)" d="M1292.95 14.324 L1292.95 27.2059 L1308.3 27.2059 L1308.3 32.9987 L1292.95 32.9987 L1292.95 57.6282 Q1292.95 63.1779 1294.45 64.7578 Q1295.99 66.3376 1300.65 66.3376 L1308.3 66.3376 L1308.3 72.576 L1300.65 72.576 Q1292.02 72.576 1288.74 69.3758 Q1285.46 66.1351 1285.46 57.6282 L1285.46 32.9987 L1279.99 32.9987 L1279.99 27.2059 L1285.46 27.2059 L1285.46 14.324 L1292.95 14.324 Z" fill="#000000" fill-rule="evenodd" fill-opacity="1" /><path clip-path="url(#clip630)" d="M1338.72 49.7694 Q1329.69 49.7694 1326.21 51.8354 Q1322.72 53.9013 1322.72 58.8839 Q1322.72 62.8538 1325.32 65.2034 Q1327.95 67.5124 1332.45 67.5124 Q1338.64 67.5124 1342.37 63.1374 Q1346.14 58.7219 1346.14 51.4303 L1346.14 49.7694 L1338.72 49.7694 M1353.59 46.6907 L1353.59 72.576 L1346.14 72.576 L1346.14 65.6895 Q1343.59 69.8214 1339.78 71.8063 Q1335.97 73.7508 1330.46 73.7508 Q1323.49 73.7508 1319.36 69.8619 Q1315.27 65.9325 1315.27 59.3701 Q1315.27 51.7138 1320.37 47.825 Q1325.52 43.9361 1335.69 43.9361 L1346.14 43.9361 L1346.14 43.2069 Q1346.14 38.0623 1342.74 35.2672 Q1339.37 32.4315 1333.26 32.4315 Q1329.37 32.4315 1325.68 33.3632 Q1321.99 34.295 1318.59 36.1584 L1318.59 29.2718 Q1322.68 27.692 1326.53 26.9223 Q1330.38 26.1121 1334.03 26.1121 Q1343.87 26.1121 1348.73 31.2163 Q1353.59 36.3204 1353.59 46.6907 Z" fill="#000000" fill-rule="evenodd" fill-opacity="1" /><polyline clip-path="url(#clip632)" style="stroke:#009af9; stroke-linecap:butt; stroke-linejoin:round; stroke-width:4; stroke-opacity:1; fill:none" points="
  233.734,1447.87 233.734,1405.94 268.022,1405.94 268.022,1308.11 302.311,1308.11 302.311,1294.13 336.599,1294.13 336.599,1210.27 370.887,1210.27 370.887,1112.44 
  405.176,1112.44 405.176,1182.32 439.464,1182.32 439.464,1154.37 473.753,1154.37 473.753,1028.58 508.041,1028.58 508.041,972.676 542.329,972.676 542.329,818.936 
  576.618,818.936 576.618,846.889 610.906,846.889 610.906,707.125 645.194,707.125 645.194,986.653 679.483,986.653 679.483,1000.63 713.771,1000.63 713.771,986.653 
  748.06,986.653 748.06,1196.3 782.348,1196.3 782.348,1210.27 816.636,1210.27 816.636,1336.06 850.925,1336.06 850.925,1238.23 885.213,1238.23 885.213,1405.94 
  919.502,1405.94 919.502,1336.06 953.79,1336.06 953.79,1405.94 988.078,1405.94 988.078,1433.9 1022.37,1433.9 1022.37,1419.92 1056.66,1419.92 1056.66,1433.9 
  1090.94,1433.9 1125.23,1433.9 1125.23,1391.97 1159.52,1391.97 1159.52,1419.92 1193.81,1419.92 1193.81,1322.09 1228.1,1322.09 1228.1,1377.99 
  1262.39,1377.99 1262.39,1280.16 1296.67,1280.16 1296.67,1182.32 1330.96,1182.32 1330.96,1056.53 1365.25,1056.53 1365.25,1042.56 1399.54,1042.56 1399.54,944.724 
  1433.83,944.724 1433.83,665.196 1468.12,665.196 1468.12,539.409 1502.4,539.409 1536.69,539.409 1536.69,399.645 1570.98,399.645 1570.98,162.047 
  1605.27,162.047 1605.27,413.622 1639.56,413.622 1639.56,371.692 1673.85,371.692 1673.85,399.645 1708.13,399.645 1708.13,609.291 1742.42,609.291 1742.42,679.173 
  1776.71,679.173 1776.71,874.842 1811,874.842 1845.29,874.842 1845.29,1154.37 1879.58,1154.37 1879.58,1126.42 1913.86,1126.42 1913.86,1252.2 
  1948.15,1252.2 1948.15,1391.97 1982.44,1391.97 1982.44,1336.06 2016.73,1336.06 2016.73,1391.97 2051.02,1391.97 2051.02,1433.9 2085.31,1433.9 
  2119.59,1433.9 2119.59,1419.92 2153.88,1419.92 2153.88,1447.87 2188.17,1447.87 2222.46,1447.87 2256.75,1447.87 
  2291.04,1447.87 
  "/>
<path clip-path="url(#clip630)" d="
M1933.52 272.585 L2280.06 272.585 L2280.06 168.905 L1933.52 168.905  Z
  " fill="#ffffff" fill-rule="evenodd" fill-opacity="1"/>
<polyline clip-path="url(#clip630)" style="stroke:#000000; stroke-linecap:butt; stroke-linejoin:round; stroke-width:4; stroke-opacity:1; fill:none" points="
  1933.52,272.585 2280.06,272.585 2280.06,168.905 1933.52,168.905 1933.52,272.585 
  "/>
<polyline clip-path="url(#clip630)" style="stroke:#009af9; stroke-linecap:butt; stroke-linejoin:round; stroke-width:4; stroke-opacity:1; fill:none" points="
  1957.75,220.745 2103.14,220.745 
  "/>
<path clip-path="url(#clip630)" d="M2132.04 207.307 L2132.04 234.182 L2137.69 234.182 Q2144.84 234.182 2148.15 230.941 Q2151.49 227.701 2151.49 220.71 Q2151.49 213.766 2148.15 210.548 Q2144.84 207.307 2137.69 207.307 L2132.04 207.307 M2127.37 203.465 L2136.97 203.465 Q2147.02 203.465 2151.72 207.654 Q2156.42 211.821 2156.42 220.71 Q2156.42 229.645 2151.7 233.835 Q2146.97 238.025 2136.97 238.025 L2127.37 238.025 L2127.37 203.465 Z" fill="#000000" fill-rule="evenodd" fill-opacity="1" /><path clip-path="url(#clip630)" d="M2175.47 224.992 Q2170.31 224.992 2168.32 226.173 Q2166.33 227.353 2166.33 230.201 Q2166.33 232.469 2167.81 233.812 Q2169.31 235.131 2171.88 235.131 Q2175.42 235.131 2177.55 232.631 Q2179.71 230.108 2179.71 225.941 L2179.71 224.992 L2175.47 224.992 M2183.96 223.233 L2183.96 238.025 L2179.71 238.025 L2179.71 234.089 Q2178.25 236.451 2176.07 237.585 Q2173.9 238.696 2170.75 238.696 Q2166.77 238.696 2164.4 236.474 Q2162.07 234.228 2162.07 230.478 Q2162.07 226.103 2164.98 223.881 Q2167.92 221.659 2173.73 221.659 L2179.71 221.659 L2179.71 221.242 Q2179.71 218.303 2177.76 216.705 Q2175.84 215.085 2172.34 215.085 Q2170.12 215.085 2168.02 215.617 Q2165.91 216.15 2163.97 217.215 L2163.97 213.279 Q2166.3 212.377 2168.5 211.937 Q2170.7 211.474 2172.78 211.474 Q2178.41 211.474 2181.19 214.391 Q2183.96 217.307 2183.96 223.233 Z" fill="#000000" fill-rule="evenodd" fill-opacity="1" /><path clip-path="url(#clip630)" d="M2196.95 204.738 L2196.95 212.099 L2205.72 212.099 L2205.72 215.409 L2196.95 215.409 L2196.95 229.483 Q2196.95 232.654 2197.81 233.557 Q2198.69 234.46 2201.35 234.46 L2205.72 234.46 L2205.72 238.025 L2201.35 238.025 Q2196.42 238.025 2194.54 236.196 Q2192.67 234.344 2192.67 229.483 L2192.67 215.409 L2189.54 215.409 L2189.54 212.099 L2192.67 212.099 L2192.67 204.738 L2196.95 204.738 Z" fill="#000000" fill-rule="evenodd" fill-opacity="1" /><path clip-path="url(#clip630)" d="M2223.11 224.992 Q2217.95 224.992 2215.96 226.173 Q2213.96 227.353 2213.96 230.201 Q2213.96 232.469 2215.45 233.812 Q2216.95 235.131 2219.52 235.131 Q2223.06 235.131 2225.19 232.631 Q2227.34 230.108 2227.34 225.941 L2227.34 224.992 L2223.11 224.992 M2231.6 223.233 L2231.6 238.025 L2227.34 238.025 L2227.34 234.089 Q2225.89 236.451 2223.71 237.585 Q2221.53 238.696 2218.39 238.696 Q2214.4 238.696 2212.04 236.474 Q2209.71 234.228 2209.71 230.478 Q2209.71 226.103 2212.62 223.881 Q2215.56 221.659 2221.37 221.659 L2227.34 221.659 L2227.34 221.242 Q2227.34 218.303 2225.4 216.705 Q2223.48 215.085 2219.98 215.085 Q2217.76 215.085 2215.65 215.617 Q2213.55 216.15 2211.6 217.215 L2211.6 213.279 Q2213.94 212.377 2216.14 211.937 Q2218.34 211.474 2220.42 211.474 Q2226.05 211.474 2228.83 214.391 Q2231.6 217.307 2231.6 223.233 Z" fill="#000000" fill-rule="evenodd" fill-opacity="1" /></svg>
