<?xml version="1.0" encoding="utf-8"?>
<svg xmlns="http://www.w3.org/2000/svg" xmlns:xlink="http://www.w3.org/1999/xlink" width="600" height="400" viewBox="0 0 2400 1600">
<defs>
  <clipPath id="clip4900">
    <rect x="0" y="0" width="2400" height="1600"/>
  </clipPath>
</defs>
<path clip-path="url(#clip4900)" d="
M0 1600 L2400 1600 L2400 0 L0 0  Z
  " fill="#ffffff" fill-rule="evenodd" fill-opacity="1"/>
<defs>
  <clipPath id="clip4901">
    <rect x="480" y="0" width="1681" height="1600"/>
  </clipPath>
</defs>
<path clip-path="url(#clip4900)" d="
M167.279 1487.47 L2352.76 1487.47 L2352.76 121.675 L167.279 121.675  Z
  " fill="#ffffff" fill-rule="evenodd" fill-opacity="1"/>
<defs>
  <clipPath id="clip4902">
    <rect x="167" y="121" width="2186" height="1367"/>
  </clipPath>
</defs>
<polyline clip-path="url(#clip4902)" style="stroke:#000000; stroke-width:2; stroke-opacity:0.1; fill:none" points="
  229.132,1487.47 229.132,121.675 
  "/>
<polyline clip-path="url(#clip4902)" style="stroke:#000000; stroke-width:2; stroke-opacity:0.1; fill:none" points="
  744.575,1487.47 744.575,121.675 
  "/>
<polyline clip-path="url(#clip4902)" style="stroke:#000000; stroke-width:2; stroke-opacity:0.1; fill:none" points="
  1260.02,1487.47 1260.02,121.675 
  "/>
<polyline clip-path="url(#clip4902)" style="stroke:#000000; stroke-width:2; stroke-opacity:0.1; fill:none" points="
  1775.46,1487.47 1775.46,121.675 
  "/>
<polyline clip-path="url(#clip4902)" style="stroke:#000000; stroke-width:2; stroke-opacity:0.1; fill:none" points="
  2290.9,1487.47 2290.9,121.675 
  "/>
<polyline clip-path="url(#clip4902)" style="stroke:#000000; stroke-width:2; stroke-opacity:0.1; fill:none" points="
  167.279,1448.82 2352.76,1448.82 
  "/>
<polyline clip-path="url(#clip4902)" style="stroke:#000000; stroke-width:2; stroke-opacity:0.1; fill:none" points="
  167.279,1168.71 2352.76,1168.71 
  "/>
<polyline clip-path="url(#clip4902)" style="stroke:#000000; stroke-width:2; stroke-opacity:0.1; fill:none" points="
  167.279,888.607 2352.76,888.607 
  "/>
<polyline clip-path="url(#clip4902)" style="stroke:#000000; stroke-width:2; stroke-opacity:0.1; fill:none" points="
  167.279,608.5 2352.76,608.5 
  "/>
<polyline clip-path="url(#clip4902)" style="stroke:#000000; stroke-width:2; stroke-opacity:0.1; fill:none" points="
  167.279,328.394 2352.76,328.394 
  "/>
<polyline clip-path="url(#clip4900)" style="stroke:#000000; stroke-width:4; stroke-opacity:1; fill:none" points="
  167.279,1487.47 2352.76,1487.47 
  "/>
<polyline clip-path="url(#clip4900)" style="stroke:#000000; stroke-width:4; stroke-opacity:1; fill:none" points="
  167.279,1487.47 167.279,121.675 
  "/>
<polyline clip-path="url(#clip4900)" style="stroke:#000000; stroke-width:4; stroke-opacity:1; fill:none" points="
  229.132,1487.47 229.132,1466.99 
  "/>
<polyline clip-path="url(#clip4900)" style="stroke:#000000; stroke-width:4; stroke-opacity:1; fill:none" points="
  744.575,1487.47 744.575,1466.99 
  "/>
<polyline clip-path="url(#clip4900)" style="stroke:#000000; stroke-width:4; stroke-opacity:1; fill:none" points="
  1260.02,1487.47 1260.02,1466.99 
  "/>
<polyline clip-path="url(#clip4900)" style="stroke:#000000; stroke-width:4; stroke-opacity:1; fill:none" points="
  1775.46,1487.47 1775.46,1466.99 
  "/>
<polyline clip-path="url(#clip4900)" style="stroke:#000000; stroke-width:4; stroke-opacity:1; fill:none" points="
  2290.9,1487.47 2290.9,1466.99 
  "/>
<polyline clip-path="url(#clip4900)" style="stroke:#000000; stroke-width:4; stroke-opacity:1; fill:none" points="
  167.279,1448.82 200.061,1448.82 
  "/>
<polyline clip-path="url(#clip4900)" style="stroke:#000000; stroke-width:4; stroke-opacity:1; fill:none" points="
  167.279,1168.71 200.061,1168.71 
  "/>
<polyline clip-path="url(#clip4900)" style="stroke:#000000; stroke-width:4; stroke-opacity:1; fill:none" points="
  167.279,888.607 200.061,888.607 
  "/>
<polyline clip-path="url(#clip4900)" style="stroke:#000000; stroke-width:4; stroke-opacity:1; fill:none" points="
  167.279,608.5 200.061,608.5 
  "/>
<polyline clip-path="url(#clip4900)" style="stroke:#000000; stroke-width:4; stroke-opacity:1; fill:none" points="
  167.279,328.394 200.061,328.394 
  "/>
<g clip-path="url(#clip4900)">
<text style="fill:#000000; fill-opacity:1; font-family:Arial,Helvetica Neue,Helvetica,sans-serif; font-size:48px; text-anchor:middle;" transform="rotate(0, 229.132, 1541.47)" x="229.132" y="1541.47">-4</text>
</g>
<g clip-path="url(#clip4900)">
<text style="fill:#000000; fill-opacity:1; font-family:Arial,Helvetica Neue,Helvetica,sans-serif; font-size:48px; text-anchor:middle;" transform="rotate(0, 744.575, 1541.47)" x="744.575" y="1541.47">-2</text>
</g>
<g clip-path="url(#clip4900)">
<text style="fill:#000000; fill-opacity:1; font-family:Arial,Helvetica Neue,Helvetica,sans-serif; font-size:48px; text-anchor:middle;" transform="rotate(0, 1260.02, 1541.47)" x="1260.02" y="1541.47">0</text>
</g>
<g clip-path="url(#clip4900)">
<text style="fill:#000000; fill-opacity:1; font-family:Arial,Helvetica Neue,Helvetica,sans-serif; font-size:48px; text-anchor:middle;" transform="rotate(0, 1775.46, 1541.47)" x="1775.46" y="1541.47">2</text>
</g>
<g clip-path="url(#clip4900)">
<text style="fill:#000000; fill-opacity:1; font-family:Arial,Helvetica Neue,Helvetica,sans-serif; font-size:48px; text-anchor:middle;" transform="rotate(0, 2290.9, 1541.47)" x="2290.9" y="1541.47">4</text>
</g>
<g clip-path="url(#clip4900)">
<text style="fill:#000000; fill-opacity:1; font-family:Arial,Helvetica Neue,Helvetica,sans-serif; font-size:48px; text-anchor:end;" transform="rotate(0, 143.279, 1466.32)" x="143.279" y="1466.32">0</text>
</g>
<g clip-path="url(#clip4900)">
<text style="fill:#000000; fill-opacity:1; font-family:Arial,Helvetica Neue,Helvetica,sans-serif; font-size:48px; text-anchor:end;" transform="rotate(0, 143.279, 1186.21)" x="143.279" y="1186.21">200</text>
</g>
<g clip-path="url(#clip4900)">
<text style="fill:#000000; fill-opacity:1; font-family:Arial,Helvetica Neue,Helvetica,sans-serif; font-size:48px; text-anchor:end;" transform="rotate(0, 143.279, 906.107)" x="143.279" y="906.107">400</text>
</g>
<g clip-path="url(#clip4900)">
<text style="fill:#000000; fill-opacity:1; font-family:Arial,Helvetica Neue,Helvetica,sans-serif; font-size:48px; text-anchor:end;" transform="rotate(0, 143.279, 626)" x="143.279" y="626">600</text>
</g>
<g clip-path="url(#clip4900)">
<text style="fill:#000000; fill-opacity:1; font-family:Arial,Helvetica Neue,Helvetica,sans-serif; font-size:48px; text-anchor:end;" transform="rotate(0, 143.279, 345.894)" x="143.279" y="345.894">800</text>
</g>
<g clip-path="url(#clip4900)">
<text style="fill:#000000; fill-opacity:1; font-family:Arial,Helvetica Neue,Helvetica,sans-serif; font-size:84px; text-anchor:middle;" transform="rotate(0, 1260.02, 73.2)" x="1260.02" y="73.2">Data and True Statistical Model</text>
</g>
<polyline clip-path="url(#clip4902)" style="stroke:#009af9; stroke-width:4; stroke-opacity:1; fill:none" points="
  744.575,1448.82 744.575,1378.79 770.347,1378.79 770.347,1294.76 796.119,1294.76 796.119,1280.76 821.891,1280.76 821.891,1196.72 847.663,1196.72 847.663,1084.68 
  873.436,1084.68 873.436,1126.7 899.208,1126.7 899.208,1000.65 924.98,1000.65 924.98,972.639 950.752,972.639 950.752,1056.67 976.524,1056.67 976.524,790.57 
  1002.3,790.57 1002.3,804.575 1028.07,804.575 1028.07,832.586 1053.84,832.586 1053.84,944.628 1079.61,944.628 1079.61,1000.65 1105.38,1000.65 1105.38,1196.72 
  1131.16,1196.72 1131.16,1000.65 1156.93,1000.65 1156.93,1238.74 1182.7,1238.74 1182.7,1266.75 1208.47,1266.75 1208.47,1294.76 1234.25,1294.76 1234.25,1406.8 
  1260.02,1406.8 1260.02,1392.8 1285.79,1392.8 1311.56,1392.8 1311.56,1420.81 1337.33,1420.81 1337.33,1434.81 1363.11,1434.81 1363.11,1448.82 
  1388.88,1448.82 1388.88,1434.81 1414.65,1434.81 1414.65,1406.8 1440.42,1406.8 1466.19,1406.8 1466.19,1266.75 1491.97,1266.75 1491.97,1322.77 
  1517.74,1322.77 1517.74,1308.77 1543.51,1308.77 1543.51,1112.69 1569.28,1112.69 1569.28,1014.65 1595.06,1014.65 1595.06,1000.65 1620.83,1000.65 1620.83,762.559 
  1646.6,762.559 1646.6,650.516 1672.37,650.516 1672.37,594.495 1698.14,594.495 1698.14,552.479 1723.92,552.479 1723.92,300.383 1749.69,300.383 1749.69,202.346 
  1775.46,202.346 1775.46,636.511 1801.23,636.511 1801.23,160.33 1827,160.33 1827,580.49 1852.78,580.49 1852.78,538.474 1878.55,538.474 1878.55,804.575 
  1904.32,804.575 1904.32,1070.68 1930.09,1070.68 1930.09,958.634 1955.87,958.634 1955.87,1000.65 1981.64,1000.65 1981.64,1196.72 2007.41,1196.72 2007.41,1182.72 
  2033.18,1182.72 2033.18,1378.79 2058.95,1378.79 2084.73,1378.79 2084.73,1406.8 2110.5,1406.8 2110.5,1420.81 2136.27,1420.81 2136.27,1448.82 
  2162.04,1448.82 2162.04,1434.81 2187.81,1434.81 2187.81,1448.82 2213.59,1448.82 2239.36,1448.82 2265.13,1448.82 2265.13,1434.81 
  2290.9,1434.81 2290.9,1448.82 
  "/>
<polyline clip-path="url(#clip4902)" style="stroke:#e26f46; stroke-width:4; stroke-opacity:1; fill:none" points="
  229.132,1448.82 231.709,1448.82 234.287,1448.82 236.864,1448.82 239.441,1448.82 242.018,1448.82 244.596,1448.82 247.173,1448.82 249.75,1448.82 252.327,1448.82 
  254.904,1448.82 257.482,1448.82 260.059,1448.82 262.636,1448.82 265.213,1448.82 267.79,1448.82 270.368,1448.82 272.945,1448.82 275.522,1448.82 278.099,1448.82 
  280.677,1448.82 283.254,1448.82 285.831,1448.82 288.408,1448.82 290.985,1448.82 293.563,1448.82 296.14,1448.82 298.717,1448.82 301.294,1448.82 303.871,1448.82 
  306.449,1448.82 309.026,1448.82 311.603,1448.82 314.18,1448.82 316.758,1448.82 319.335,1448.82 321.912,1448.82 324.489,1448.82 327.066,1448.82 329.644,1448.82 
  332.221,1448.82 334.798,1448.82 337.375,1448.82 339.952,1448.82 342.53,1448.82 345.107,1448.82 347.684,1448.82 350.261,1448.82 352.838,1448.82 355.416,1448.82 
  357.993,1448.82 360.57,1448.82 363.147,1448.82 365.725,1448.82 368.302,1448.82 370.879,1448.82 373.456,1448.82 376.033,1448.82 378.611,1448.82 381.188,1448.81 
  383.765,1448.81 386.342,1448.81 388.919,1448.81 391.497,1448.81 394.074,1448.81 396.651,1448.81 399.228,1448.81 401.806,1448.81 404.383,1448.81 406.96,1448.81 
  409.537,1448.81 412.114,1448.8 414.692,1448.8 417.269,1448.8 419.846,1448.8 422.423,1448.8 425,1448.8 427.578,1448.79 430.155,1448.79 432.732,1448.79 
  435.309,1448.79 437.887,1448.78 440.464,1448.78 443.041,1448.77 445.618,1448.77 448.195,1448.77 450.773,1448.76 453.35,1448.76 455.927,1448.75 458.504,1448.74 
  461.081,1448.74 463.659,1448.73 466.236,1448.72 468.813,1448.71 471.39,1448.7 473.968,1448.7 476.545,1448.68 479.122,1448.67 481.699,1448.66 484.276,1448.65 
  486.854,1448.63 489.431,1448.62 492.008,1448.6 494.585,1448.58 497.162,1448.56 499.74,1448.54 502.317,1448.52 504.894,1448.5 507.471,1448.47 510.048,1448.44 
  512.626,1448.41 515.203,1448.38 517.78,1448.34 520.357,1448.31 522.935,1448.27 525.512,1448.23 528.089,1448.18 530.666,1448.13 533.243,1448.08 535.821,1448.02 
  538.398,1447.96 540.975,1447.9 543.552,1447.83 546.129,1447.76 548.707,1447.68 551.284,1447.6 553.861,1447.51 556.438,1447.42 559.016,1447.31 561.593,1447.21 
  564.17,1447.09 566.747,1446.97 569.324,1446.84 571.902,1446.71 574.479,1446.56 577.056,1446.41 579.633,1446.24 582.21,1446.07 584.788,1445.88 587.365,1445.69 
  589.942,1445.48 592.519,1445.26 595.097,1445.03 597.674,1444.78 600.251,1444.52 602.828,1444.24 605.405,1443.95 607.983,1443.64 610.56,1443.32 613.137,1442.98 
  615.714,1442.61 618.291,1442.23 620.869,1441.83 623.446,1441.4 626.023,1440.95 628.6,1440.48 631.178,1439.99 633.755,1439.47 636.332,1438.92 638.909,1438.34 
  641.486,1437.73 644.064,1437.1 646.641,1436.43 649.218,1435.73 651.795,1435 654.372,1434.23 656.95,1433.42 659.527,1432.57 662.104,1431.69 664.681,1430.76 
  667.258,1429.8 669.836,1428.79 672.413,1427.73 674.99,1426.62 677.567,1425.47 680.145,1424.27 682.722,1423.02 685.299,1421.71 687.876,1420.35 690.453,1418.93 
  693.031,1417.46 695.608,1415.92 698.185,1414.32 700.762,1412.66 703.339,1410.94 705.917,1409.15 708.494,1407.29 711.071,1405.36 713.648,1403.36 716.226,1401.28 
  718.803,1399.14 721.38,1396.91 723.957,1394.61 726.534,1392.23 729.112,1389.77 731.689,1387.22 734.266,1384.59 736.843,1381.88 739.42,1379.07 741.998,1376.18 
  744.575,1373.2 747.152,1370.13 749.729,1366.97 752.307,1363.72 754.884,1360.37 757.461,1356.92 760.038,1353.38 762.615,1349.75 765.193,1346.01 767.77,1342.18 
  770.347,1338.25 772.924,1334.22 775.501,1330.09 778.079,1325.86 780.656,1321.53 783.233,1317.1 785.81,1312.57 788.388,1307.95 790.965,1303.22 793.542,1298.39 
  796.119,1293.47 798.696,1288.45 801.274,1283.34 803.851,1278.13 806.428,1272.82 809.005,1267.43 811.582,1261.94 814.16,1256.36 816.737,1250.7 819.314,1244.95 
  821.891,1239.12 824.469,1233.21 827.046,1227.22 829.623,1221.16 832.2,1215.02 834.777,1208.81 837.355,1202.54 839.932,1196.2 842.509,1189.81 845.086,1183.36 
  847.663,1176.86 850.241,1170.31 852.818,1163.71 855.395,1157.08 857.972,1150.41 860.549,1143.71 863.127,1136.99 865.704,1130.24 868.281,1123.48 870.858,1116.71 
  873.436,1109.93 876.013,1103.16 878.59,1096.38 881.167,1089.62 883.744,1082.88 886.322,1076.16 888.899,1069.47 891.476,1062.81 894.053,1056.19 896.63,1049.62 
  899.208,1043.1 901.785,1036.64 904.362,1030.24 906.939,1023.91 909.517,1017.66 912.094,1011.5 914.671,1005.42 917.248,999.44 919.825,993.56 922.403,987.787 
  924.98,982.128 927.557,976.588 930.134,971.174 932.711,965.891 935.289,960.745 937.866,955.741 940.443,950.885 943.02,946.182 945.598,941.638 948.175,937.258 
  950.752,933.046 953.329,929.007 955.906,925.146 958.484,921.467 961.061,917.975 963.638,914.674 966.215,911.567 968.792,908.658 971.37,905.95 973.947,903.447 
  976.524,901.152 979.101,899.067 981.679,897.194 984.256,895.537 986.833,894.097 989.41,892.875 991.987,891.873 994.565,891.093 997.142,890.535 999.719,890.2 
  1002.3,890.088 1004.87,890.2 1007.45,890.535 1010.03,891.093 1012.61,891.873 1015.18,892.875 1017.76,894.097 1020.34,895.537 1022.91,897.194 1025.49,899.067 
  1028.07,901.152 1030.65,903.447 1033.22,905.95 1035.8,908.658 1038.38,911.567 1040.95,914.674 1043.53,917.975 1046.11,921.467 1048.69,925.146 1051.26,929.007 
  1053.84,933.045 1056.42,937.257 1058.99,941.638 1061.57,946.182 1064.15,950.885 1066.73,955.741 1069.3,960.744 1071.88,965.891 1074.46,971.174 1077.04,976.588 
  1079.61,982.128 1082.19,987.787 1084.77,993.559 1087.34,999.439 1089.92,1005.42 1092.5,1011.5 1095.08,1017.66 1097.65,1023.91 1100.23,1030.24 1102.81,1036.63 
  1105.38,1043.1 1107.96,1049.62 1110.54,1056.19 1113.12,1062.81 1115.69,1069.46 1118.27,1076.16 1120.85,1082.88 1123.43,1089.62 1126,1096.38 1128.58,1103.15 
  1131.16,1109.93 1133.73,1116.7 1136.31,1123.48 1138.89,1130.24 1141.47,1136.98 1144.04,1143.7 1146.62,1150.4 1149.2,1157.07 1151.77,1163.7 1154.35,1170.3 
  1156.93,1176.84 1159.51,1183.35 1162.08,1189.8 1164.66,1196.19 1167.24,1202.52 1169.82,1208.79 1172.39,1215 1174.97,1221.13 1177.55,1227.2 1180.12,1233.18 
  1182.7,1239.09 1185.28,1244.92 1187.86,1250.67 1190.43,1256.33 1193.01,1261.9 1195.59,1267.38 1198.16,1272.77 1200.74,1278.07 1203.32,1283.28 1205.9,1288.39 
  1208.47,1293.4 1211.05,1298.32 1213.63,1303.14 1216.2,1307.85 1218.78,1312.47 1221.36,1316.99 1223.94,1321.41 1226.51,1325.73 1229.09,1329.95 1231.67,1334.07 
  1234.25,1338.08 1236.82,1342 1239.4,1345.82 1241.98,1349.53 1244.55,1353.15 1247.13,1356.67 1249.71,1360.1 1252.29,1363.42 1254.86,1366.65 1257.44,1369.79 
  1260.02,1372.83 1262.59,1375.78 1265.17,1378.63 1267.75,1381.4 1270.33,1384.08 1272.9,1386.66 1275.48,1389.16 1278.06,1391.58 1280.64,1393.91 1283.21,1396.15 
  1285.79,1398.32 1288.37,1400.4 1290.94,1402.41 1293.52,1404.33 1296.1,1406.18 1298.68,1407.96 1301.25,1409.66 1303.83,1411.28 1306.41,1412.84 1308.98,1414.33 
  1311.56,1415.74 1314.14,1417.09 1316.72,1418.37 1319.29,1419.59 1321.87,1420.74 1324.45,1421.83 1327.03,1422.85 1329.6,1423.82 1332.18,1424.72 1334.76,1425.56 
  1337.33,1426.35 1339.91,1427.07 1342.49,1427.74 1345.07,1428.35 1347.64,1428.9 1350.22,1429.4 1352.8,1429.84 1355.37,1430.23 1357.95,1430.56 1360.53,1430.84 
  1363.11,1431.06 1365.68,1431.22 1368.26,1431.33 1370.84,1431.39 1373.41,1431.39 1375.99,1431.33 1378.57,1431.22 1381.15,1431.05 1383.72,1430.83 1386.3,1430.54 
  1388.88,1430.2 1391.46,1429.8 1394.03,1429.33 1396.61,1428.81 1399.19,1428.22 1401.76,1427.57 1404.34,1426.86 1406.92,1426.07 1409.5,1425.22 1412.07,1424.3 
  1414.65,1423.31 1417.23,1422.24 1419.8,1421.11 1422.38,1419.89 1424.96,1418.59 1427.54,1417.22 1430.11,1415.76 1432.69,1414.21 1435.27,1412.58 1437.85,1410.86 
  1440.42,1409.05 1443,1407.14 1445.58,1405.13 1448.15,1403.03 1450.73,1400.82 1453.31,1398.5 1455.89,1396.08 1458.46,1393.54 1461.04,1390.89 1463.62,1388.12 
  1466.19,1385.23 1468.77,1382.22 1471.35,1379.08 1473.93,1375.82 1476.5,1372.42 1479.08,1368.88 1481.66,1365.2 1484.24,1361.38 1486.81,1357.42 1489.39,1353.31 
  1491.97,1349.04 1494.54,1344.63 1497.12,1340.05 1499.7,1335.31 1502.28,1330.41 1504.85,1325.34 1507.43,1320.1 1510.01,1314.69 1512.58,1309.11 1515.16,1303.34 
  1517.74,1297.4 1520.32,1291.27 1522.89,1284.96 1525.47,1278.47 1528.05,1271.78 1530.62,1264.9 1533.2,1257.83 1535.78,1250.57 1538.36,1243.11 1540.93,1235.45 
  1543.51,1227.59 1546.09,1219.54 1548.67,1211.29 1551.24,1202.83 1553.82,1194.18 1556.4,1185.33 1558.97,1176.28 1561.55,1167.03 1564.13,1157.58 1566.71,1147.93 
  1569.28,1138.09 1571.86,1128.05 1574.44,1117.82 1577.01,1107.41 1579.59,1096.8 1582.17,1086.01 1584.75,1075.04 1587.32,1063.89 1589.9,1052.56 1592.48,1041.07 
  1595.06,1029.41 1597.63,1017.59 1600.21,1005.61 1602.79,993.482 1605.36,981.209 1607.94,968.796 1610.52,956.252 1613.1,943.581 1615.67,930.792 1618.25,917.891 
  1620.83,904.887 1623.4,891.786 1625.98,878.599 1628.56,865.332 1631.14,851.996 1633.71,838.598 1636.29,825.15 1638.87,811.66 1641.45,798.138 1644.02,784.596 
  1646.6,771.042 1649.18,757.489 1651.75,743.946 1654.33,730.426 1656.91,716.939 1659.49,703.497 1662.06,690.111 1664.64,676.794 1667.22,663.558 1669.79,650.414 
  1672.37,637.374 1674.95,624.452 1677.53,611.658 1680.1,599.006 1682.68,586.508 1685.26,574.176 1687.83,562.022 1690.41,550.059 1692.99,538.299 1695.57,526.754 
  1698.14,515.436 1700.72,504.357 1703.3,493.528 1705.88,482.962 1708.45,472.669 1711.03,462.662 1713.61,452.95 1716.18,443.545 1718.76,434.456 1721.34,425.695 
  1723.92,417.271 1726.49,409.194 1729.07,401.472 1731.65,394.115 1734.22,387.131 1736.8,380.528 1739.38,374.314 1741.96,368.496 1744.53,363.08 1747.11,358.075 
  1749.69,353.484 1752.27,349.314 1754.84,345.569 1757.42,342.254 1760,339.373 1762.57,336.93 1765.15,334.927 1767.73,333.366 1770.31,332.25 1772.88,331.58 
  1775.46,331.357 1778.04,331.58 1780.61,332.25 1783.19,333.366 1785.77,334.927 1788.35,336.93 1790.92,339.373 1793.5,342.254 1796.08,345.569 1798.66,349.314 
  1801.23,353.484 1803.81,358.075 1806.39,363.08 1808.96,368.496 1811.54,374.314 1814.12,380.528 1816.7,387.131 1819.27,394.115 1821.85,401.472 1824.43,409.194 
  1827,417.271 1829.58,425.695 1832.16,434.456 1834.74,443.545 1837.31,452.95 1839.89,462.662 1842.47,472.67 1845.04,482.962 1847.62,493.528 1850.2,504.357 
  1852.78,515.436 1855.35,526.754 1857.93,538.299 1860.51,550.059 1863.09,562.023 1865.66,574.176 1868.24,586.508 1870.82,599.007 1873.39,611.659 1875.97,624.452 
  1878.55,637.375 1881.13,650.414 1883.7,663.559 1886.28,676.795 1888.86,690.112 1891.43,703.498 1894.01,716.94 1896.59,730.427 1899.17,743.948 1901.74,757.49 
  1904.32,771.044 1906.9,784.598 1909.48,798.141 1912.05,811.663 1914.63,825.153 1917.21,838.602 1919.78,851.999 1922.36,865.336 1924.94,878.603 1927.52,891.791 
  1930.09,904.892 1932.67,917.897 1935.25,930.799 1937.82,943.589 1940.4,956.26 1942.98,968.805 1945.56,981.218 1948.13,993.493 1950.71,1005.62 1953.29,1017.6 
  1955.87,1029.42 1958.44,1041.09 1961.02,1052.58 1963.6,1063.91 1966.17,1075.06 1968.75,1086.03 1971.33,1096.83 1973.91,1107.43 1976.48,1117.85 1979.06,1128.08 
  1981.64,1138.12 1984.21,1147.97 1986.79,1157.62 1989.37,1167.07 1991.95,1176.33 1994.52,1185.38 1997.1,1194.24 1999.68,1202.9 2002.25,1211.36 2004.83,1219.62 
  2007.41,1227.68 2009.99,1235.54 2012.56,1243.2 2015.14,1250.67 2017.72,1257.95 2020.3,1265.03 2022.87,1271.91 2025.45,1278.61 2028.03,1285.12 2030.6,1291.45 
  2033.18,1297.59 2035.76,1303.55 2038.34,1309.33 2040.91,1314.93 2043.49,1320.36 2046.07,1325.62 2048.64,1330.71 2051.22,1335.64 2053.8,1340.4 2056.38,1345 
  2058.95,1349.45 2061.53,1353.75 2064.11,1357.9 2066.69,1361.9 2069.26,1365.76 2071.84,1369.47 2074.42,1373.06 2076.99,1376.51 2079.57,1379.83 2082.15,1383.02 
  2084.73,1386.09 2087.3,1389.04 2089.88,1391.88 2092.46,1394.6 2095.03,1397.22 2097.61,1399.72 2100.19,1402.13 2102.77,1404.43 2105.34,1406.64 2107.92,1408.75 
  2110.5,1410.77 2113.08,1412.71 2115.65,1414.56 2118.23,1416.33 2120.81,1418.02 2123.38,1419.63 2125.96,1421.17 2128.54,1422.64 2131.12,1424.04 2133.69,1425.38 
  2136.27,1426.65 2138.85,1427.86 2141.42,1429.01 2144,1430.11 2146.58,1431.15 2149.16,1432.15 2151.73,1433.09 2154.31,1433.98 2156.89,1434.83 2159.46,1435.64 
  2162.04,1436.41 2164.62,1437.13 2167.2,1437.82 2169.77,1438.47 2172.35,1439.09 2174.93,1439.67 2177.51,1440.22 2180.08,1440.74 2182.66,1441.24 2185.24,1441.7 
  2187.81,1442.14 2190.39,1442.56 2192.97,1442.95 2195.55,1443.32 2198.12,1443.67 2200.7,1443.99 2203.28,1444.3 2205.85,1444.6 2208.43,1444.87 2211.01,1445.13 
  2213.59,1445.37 2216.16,1445.6 2218.74,1445.81 2221.32,1446.01 2223.9,1446.2 2226.47,1446.38 2229.05,1446.54 2231.63,1446.7 2234.2,1446.84 2236.78,1446.98 
  2239.36,1447.11 2241.94,1447.23 2244.51,1447.34 2247.09,1447.44 2249.67,1447.54 2252.24,1447.63 2254.82,1447.72 2257.4,1447.79 2259.98,1447.87 2262.55,1447.94 
  2265.13,1448 2267.71,1448.06 2270.29,1448.12 2272.86,1448.17 2275.44,1448.22 2278.02,1448.26 2280.59,1448.31 2283.17,1448.34 2285.75,1448.38 2288.33,1448.41 
  2290.9,1448.45 
  "/>
<path clip-path="url(#clip4900)" d="
M1928.41 386.635 L2280.76 386.635 L2280.76 205.195 L1928.41 205.195  Z
  " fill="#ffffff" fill-rule="evenodd" fill-opacity="1"/>
<polyline clip-path="url(#clip4900)" style="stroke:#000000; stroke-width:4; stroke-opacity:1; fill:none" points="
  1928.41,386.635 2280.76,386.635 2280.76,205.195 1928.41,205.195 1928.41,386.635 
  "/>
<polyline clip-path="url(#clip4900)" style="stroke:#009af9; stroke-width:4; stroke-opacity:1; fill:none" points="
  1952.41,265.675 2096.41,265.675 
  "/>
<g clip-path="url(#clip4900)">
<text style="fill:#000000; fill-opacity:1; font-family:Arial,Helvetica Neue,Helvetica,sans-serif; font-size:48px; text-anchor:start;" transform="rotate(0, 2120.41, 283.175)" x="2120.41" y="283.175">Data</text>
</g>
<polyline clip-path="url(#clip4900)" style="stroke:#e26f46; stroke-width:4; stroke-opacity:1; fill:none" points="
  1952.41,326.155 2096.41,326.155 
  "/>
<g clip-path="url(#clip4900)">
<text style="fill:#000000; fill-opacity:1; font-family:Arial,Helvetica Neue,Helvetica,sans-serif; font-size:48px; text-anchor:start;" transform="rotate(0, 2120.41, 343.655)" x="2120.41" y="343.655">Truth</text>
</g>
</svg>
