<?xml version="1.0" encoding="utf-8"?>
<svg xmlns="http://www.w3.org/2000/svg" xmlns:xlink="http://www.w3.org/1999/xlink" width="600" height="400" viewBox="0 0 2400 1600">
<defs>
  <clipPath id="clip580">
    <rect x="0" y="0" width="2400" height="1600"/>
  </clipPath>
</defs>
<path clip-path="url(#clip580)" d="
M0 1600 L2400 1600 L2400 0 L0 0  Z
  " fill="#ffffff" fill-rule="evenodd" fill-opacity="1"/>
<defs>
  <clipPath id="clip581">
    <rect x="480" y="0" width="1681" height="1600"/>
  </clipPath>
</defs>
<path clip-path="url(#clip580)" d="
M166.205 1486.45 L2352.76 1486.45 L2352.76 123.472 L166.205 123.472  Z
  " fill="#ffffff" fill-rule="evenodd" fill-opacity="1"/>
<defs>
  <clipPath id="clip582">
    <rect x="166" y="123" width="2188" height="1364"/>
  </clipPath>
</defs>
<polyline clip-path="url(#clip582)" style="stroke:#000000; stroke-width:2; stroke-opacity:0.1; fill:none" points="
  228.088,1486.45 228.088,123.472 
  "/>
<polyline clip-path="url(#clip582)" style="stroke:#000000; stroke-width:2; stroke-opacity:0.1; fill:none" points="
  571.886,1486.45 571.886,123.472 
  "/>
<polyline clip-path="url(#clip582)" style="stroke:#000000; stroke-width:2; stroke-opacity:0.1; fill:none" points="
  915.683,1486.45 915.683,123.472 
  "/>
<polyline clip-path="url(#clip582)" style="stroke:#000000; stroke-width:2; stroke-opacity:0.1; fill:none" points="
  1259.48,1486.45 1259.48,123.472 
  "/>
<polyline clip-path="url(#clip582)" style="stroke:#000000; stroke-width:2; stroke-opacity:0.1; fill:none" points="
  1603.28,1486.45 1603.28,123.472 
  "/>
<polyline clip-path="url(#clip582)" style="stroke:#000000; stroke-width:2; stroke-opacity:0.1; fill:none" points="
  1947.08,1486.45 1947.08,123.472 
  "/>
<polyline clip-path="url(#clip582)" style="stroke:#000000; stroke-width:2; stroke-opacity:0.1; fill:none" points="
  2290.87,1486.45 2290.87,123.472 
  "/>
<polyline clip-path="url(#clip582)" style="stroke:#000000; stroke-width:2; stroke-opacity:0.1; fill:none" points="
  166.205,1447.87 2352.76,1447.87 
  "/>
<polyline clip-path="url(#clip582)" style="stroke:#000000; stroke-width:2; stroke-opacity:0.1; fill:none" points="
  166.205,1122.35 2352.76,1122.35 
  "/>
<polyline clip-path="url(#clip582)" style="stroke:#000000; stroke-width:2; stroke-opacity:0.1; fill:none" points="
  166.205,796.822 2352.76,796.822 
  "/>
<polyline clip-path="url(#clip582)" style="stroke:#000000; stroke-width:2; stroke-opacity:0.1; fill:none" points="
  166.205,471.296 2352.76,471.296 
  "/>
<polyline clip-path="url(#clip582)" style="stroke:#000000; stroke-width:2; stroke-opacity:0.1; fill:none" points="
  166.205,145.771 2352.76,145.771 
  "/>
<polyline clip-path="url(#clip580)" style="stroke:#000000; stroke-width:4; stroke-opacity:1; fill:none" points="
  166.205,1486.45 2352.76,1486.45 
  "/>
<polyline clip-path="url(#clip580)" style="stroke:#000000; stroke-width:4; stroke-opacity:1; fill:none" points="
  166.205,1486.45 166.205,123.472 
  "/>
<polyline clip-path="url(#clip580)" style="stroke:#000000; stroke-width:4; stroke-opacity:1; fill:none" points="
  228.088,1486.45 228.088,1470.09 
  "/>
<polyline clip-path="url(#clip580)" style="stroke:#000000; stroke-width:4; stroke-opacity:1; fill:none" points="
  571.886,1486.45 571.886,1470.09 
  "/>
<polyline clip-path="url(#clip580)" style="stroke:#000000; stroke-width:4; stroke-opacity:1; fill:none" points="
  915.683,1486.45 915.683,1470.09 
  "/>
<polyline clip-path="url(#clip580)" style="stroke:#000000; stroke-width:4; stroke-opacity:1; fill:none" points="
  1259.48,1486.45 1259.48,1470.09 
  "/>
<polyline clip-path="url(#clip580)" style="stroke:#000000; stroke-width:4; stroke-opacity:1; fill:none" points="
  1603.28,1486.45 1603.28,1470.09 
  "/>
<polyline clip-path="url(#clip580)" style="stroke:#000000; stroke-width:4; stroke-opacity:1; fill:none" points="
  1947.08,1486.45 1947.08,1470.09 
  "/>
<polyline clip-path="url(#clip580)" style="stroke:#000000; stroke-width:4; stroke-opacity:1; fill:none" points="
  2290.87,1486.45 2290.87,1470.09 
  "/>
<polyline clip-path="url(#clip580)" style="stroke:#000000; stroke-width:4; stroke-opacity:1; fill:none" points="
  166.205,1447.87 192.443,1447.87 
  "/>
<polyline clip-path="url(#clip580)" style="stroke:#000000; stroke-width:4; stroke-opacity:1; fill:none" points="
  166.205,1122.35 192.443,1122.35 
  "/>
<polyline clip-path="url(#clip580)" style="stroke:#000000; stroke-width:4; stroke-opacity:1; fill:none" points="
  166.205,796.822 192.443,796.822 
  "/>
<polyline clip-path="url(#clip580)" style="stroke:#000000; stroke-width:4; stroke-opacity:1; fill:none" points="
  166.205,471.296 192.443,471.296 
  "/>
<polyline clip-path="url(#clip580)" style="stroke:#000000; stroke-width:4; stroke-opacity:1; fill:none" points="
  166.205,145.771 192.443,145.771 
  "/>
<path clip-path="url(#clip580)" d="M 0 0 M209.142 1525.04 L221.618 1525.04 L221.618 1528.83 L209.142 1528.83 L209.142 1525.04 Z" fill="#000000" fill-rule="evenodd" fill-opacity="1" /><path clip-path="url(#clip580)" d="M 0 0 M230.715 1535.98 L247.035 1535.98 L247.035 1539.92 L225.091 1539.92 L225.091 1535.98 Q227.753 1533.23 232.336 1528.6 Q236.942 1523.95 238.123 1522.61 Q240.368 1520.08 241.248 1518.35 Q242.151 1516.59 242.151 1514.9 Q242.151 1512.14 240.206 1510.41 Q238.285 1508.67 235.183 1508.67 Q232.984 1508.67 230.53 1509.43 Q228.1 1510.2 225.322 1511.75 L225.322 1507.03 Q228.146 1505.89 230.6 1505.31 Q233.053 1504.73 235.09 1504.73 Q240.461 1504.73 243.655 1507.42 Q246.85 1510.11 246.85 1514.6 Q246.85 1516.73 246.039 1518.65 Q245.252 1520.54 243.146 1523.14 Q242.567 1523.81 239.465 1527.03 Q236.364 1530.22 230.715 1535.98 Z" fill="#000000" fill-rule="evenodd" fill-opacity="1" /><path clip-path="url(#clip580)" d="M 0 0 M552.754 1525.04 L565.23 1525.04 L565.23 1528.83 L552.754 1528.83 L552.754 1525.04 Z" fill="#000000" fill-rule="evenodd" fill-opacity="1" /><path clip-path="url(#clip580)" d="M 0 0 M571.11 1535.98 L578.749 1535.98 L578.749 1509.62 L570.439 1511.29 L570.439 1507.03 L578.703 1505.36 L583.379 1505.36 L583.379 1535.98 L591.017 1535.98 L591.017 1539.92 L571.11 1539.92 L571.11 1535.98 Z" fill="#000000" fill-rule="evenodd" fill-opacity="1" /><path clip-path="url(#clip580)" d="M 0 0 M915.683 1508.44 Q912.072 1508.44 910.243 1512 Q908.438 1515.55 908.438 1522.67 Q908.438 1529.78 910.243 1533.35 Q912.072 1536.89 915.683 1536.89 Q919.317 1536.89 921.123 1533.35 Q922.951 1529.78 922.951 1522.67 Q922.951 1515.55 921.123 1512 Q919.317 1508.44 915.683 1508.44 M915.683 1504.73 Q921.493 1504.73 924.549 1509.34 Q927.627 1513.92 927.627 1522.67 Q927.627 1531.4 924.549 1536.01 Q921.493 1540.59 915.683 1540.59 Q909.873 1540.59 906.794 1536.01 Q903.739 1531.4 903.739 1522.67 Q903.739 1513.92 906.794 1509.34 Q909.873 1504.73 915.683 1504.73 Z" fill="#000000" fill-rule="evenodd" fill-opacity="1" /><path clip-path="url(#clip580)" d="M 0 0 M1249.86 1535.98 L1257.5 1535.98 L1257.5 1509.62 L1249.19 1511.29 L1249.19 1507.03 L1257.45 1505.36 L1262.13 1505.36 L1262.13 1535.98 L1269.77 1535.98 L1269.77 1539.92 L1249.86 1539.92 L1249.86 1535.98 Z" fill="#000000" fill-rule="evenodd" fill-opacity="1" /><path clip-path="url(#clip580)" d="M 0 0 M1597.93 1535.98 L1614.25 1535.98 L1614.25 1539.92 L1592.31 1539.92 L1592.31 1535.98 Q1594.97 1533.23 1599.55 1528.6 Q1604.16 1523.95 1605.34 1522.61 Q1607.58 1520.08 1608.46 1518.35 Q1609.37 1516.59 1609.37 1514.9 Q1609.37 1512.14 1607.42 1510.41 Q1605.5 1508.67 1602.4 1508.67 Q1600.2 1508.67 1597.75 1509.43 Q1595.31 1510.2 1592.54 1511.75 L1592.54 1507.03 Q1595.36 1505.89 1597.81 1505.31 Q1600.27 1504.73 1602.31 1504.73 Q1607.68 1504.73 1610.87 1507.42 Q1614.06 1510.11 1614.06 1514.6 Q1614.06 1516.73 1613.25 1518.65 Q1612.47 1520.54 1610.36 1523.14 Q1609.78 1523.81 1606.68 1527.03 Q1603.58 1530.22 1597.93 1535.98 Z" fill="#000000" fill-rule="evenodd" fill-opacity="1" /><path clip-path="url(#clip580)" d="M 0 0 M1951.32 1521.29 Q1954.68 1522 1956.55 1524.27 Q1958.45 1526.54 1958.45 1529.87 Q1958.45 1534.99 1954.93 1537.79 Q1951.42 1540.59 1944.93 1540.59 Q1942.76 1540.59 1940.44 1540.15 Q1938.15 1539.73 1935.7 1538.88 L1935.7 1534.36 Q1937.64 1535.5 1939.96 1536.08 Q1942.27 1536.66 1944.79 1536.66 Q1949.19 1536.66 1951.48 1534.92 Q1953.8 1533.18 1953.8 1529.87 Q1953.8 1526.82 1951.65 1525.11 Q1949.52 1523.37 1945.7 1523.37 L1941.67 1523.37 L1941.67 1519.53 L1945.88 1519.53 Q1949.33 1519.53 1951.16 1518.16 Q1952.99 1516.77 1952.99 1514.18 Q1952.99 1511.52 1951.09 1510.11 Q1949.22 1508.67 1945.7 1508.67 Q1943.78 1508.67 1941.58 1509.09 Q1939.38 1509.5 1936.74 1510.38 L1936.74 1506.22 Q1939.4 1505.48 1941.72 1505.11 Q1944.05 1504.73 1946.11 1504.73 Q1951.44 1504.73 1954.54 1507.17 Q1957.64 1509.57 1957.64 1513.69 Q1957.64 1516.56 1956 1518.55 Q1954.36 1520.52 1951.32 1521.29 Z" fill="#000000" fill-rule="evenodd" fill-opacity="1" /><path clip-path="url(#clip580)" d="M 0 0 M2293.88 1509.43 L2282.08 1527.88 L2293.88 1527.88 L2293.88 1509.43 M2292.65 1505.36 L2298.53 1505.36 L2298.53 1527.88 L2303.46 1527.88 L2303.46 1531.77 L2298.53 1531.77 L2298.53 1539.92 L2293.88 1539.92 L2293.88 1531.77 L2278.28 1531.77 L2278.28 1527.26 L2292.65 1505.36 Z" fill="#000000" fill-rule="evenodd" fill-opacity="1" /><path clip-path="url(#clip580)" d="M 0 0 M130.26 1433.67 Q126.649 1433.67 124.82 1437.24 Q123.015 1440.78 123.015 1447.91 Q123.015 1455.01 124.82 1458.58 Q126.649 1462.12 130.26 1462.12 Q133.895 1462.12 135.7 1458.58 Q137.529 1455.01 137.529 1447.91 Q137.529 1440.78 135.7 1437.24 Q133.895 1433.67 130.26 1433.67 M130.26 1429.97 Q136.07 1429.97 139.126 1434.57 Q142.205 1439.16 142.205 1447.91 Q142.205 1456.63 139.126 1461.24 Q136.07 1465.82 130.26 1465.82 Q124.45 1465.82 121.371 1461.24 Q118.316 1456.63 118.316 1447.91 Q118.316 1439.16 121.371 1434.57 Q124.45 1429.97 130.26 1429.97 Z" fill="#000000" fill-rule="evenodd" fill-opacity="1" /><path clip-path="url(#clip580)" d="M 0 0 M71.8578 1135.69 L88.1772 1135.69 L88.1772 1139.63 L66.2328 1139.63 L66.2328 1135.69 Q68.8949 1132.94 73.4782 1128.31 Q78.0846 1123.66 79.2652 1122.31 Q81.5105 1119.79 82.3902 1118.05 Q83.2929 1116.29 83.2929 1114.6 Q83.2929 1111.85 81.3485 1110.11 Q79.4272 1108.38 76.3254 1108.38 Q74.1263 1108.38 71.6726 1109.14 Q69.2421 1109.91 66.4643 1111.46 L66.4643 1106.73 Q69.2884 1105.6 71.7421 1105.02 Q74.1958 1104.44 76.2328 1104.44 Q81.6031 1104.44 84.7976 1107.13 Q87.992 1109.81 87.992 1114.3 Q87.992 1116.43 87.1818 1118.35 Q86.3948 1120.25 84.2883 1122.85 Q83.7096 1123.52 80.6078 1126.73 Q77.5059 1129.93 71.8578 1135.69 Z" fill="#000000" fill-rule="evenodd" fill-opacity="1" /><path clip-path="url(#clip580)" d="M 0 0 M103.247 1108.15 Q99.6354 1108.15 97.8068 1111.71 Q96.0012 1115.25 96.0012 1122.38 Q96.0012 1129.49 97.8068 1133.05 Q99.6354 1136.6 103.247 1136.6 Q106.881 1136.6 108.686 1133.05 Q110.515 1129.49 110.515 1122.38 Q110.515 1115.25 108.686 1111.71 Q106.881 1108.15 103.247 1108.15 M103.247 1104.44 Q109.057 1104.44 112.112 1109.05 Q115.191 1113.63 115.191 1122.38 Q115.191 1131.11 112.112 1135.72 Q109.057 1140.3 103.247 1140.3 Q97.4364 1140.3 94.3577 1135.72 Q91.3022 1131.11 91.3022 1122.38 Q91.3022 1113.63 94.3577 1109.05 Q97.4364 1104.44 103.247 1104.44 Z" fill="#000000" fill-rule="evenodd" fill-opacity="1" /><path clip-path="url(#clip580)" d="M 0 0 M130.26 1108.15 Q126.649 1108.15 124.82 1111.71 Q123.015 1115.25 123.015 1122.38 Q123.015 1129.49 124.82 1133.05 Q126.649 1136.6 130.26 1136.6 Q133.895 1136.6 135.7 1133.05 Q137.529 1129.49 137.529 1122.38 Q137.529 1115.25 135.7 1111.71 Q133.895 1108.15 130.26 1108.15 M130.26 1104.44 Q136.07 1104.44 139.126 1109.05 Q142.205 1113.63 142.205 1122.38 Q142.205 1131.11 139.126 1135.72 Q136.07 1140.3 130.26 1140.3 Q124.45 1140.3 121.371 1135.72 Q118.316 1131.11 118.316 1122.38 Q118.316 1113.63 121.371 1109.05 Q124.45 1104.44 130.26 1104.44 Z" fill="#000000" fill-rule="evenodd" fill-opacity="1" /><path clip-path="url(#clip580)" d="M 0 0 M78.5939 783.616 L66.7884 802.065 L78.5939 802.065 L78.5939 783.616 M77.367 779.542 L83.2466 779.542 L83.2466 802.065 L88.1772 802.065 L88.1772 805.954 L83.2466 805.954 L83.2466 814.102 L78.5939 814.102 L78.5939 805.954 L62.9921 805.954 L62.9921 801.44 L77.367 779.542 Z" fill="#000000" fill-rule="evenodd" fill-opacity="1" /><path clip-path="url(#clip580)" d="M 0 0 M103.247 782.621 Q99.6354 782.621 97.8068 786.185 Q96.0012 789.727 96.0012 796.857 Q96.0012 803.963 97.8068 807.528 Q99.6354 811.069 103.247 811.069 Q106.881 811.069 108.686 807.528 Q110.515 803.963 110.515 796.857 Q110.515 789.727 108.686 786.185 Q106.881 782.621 103.247 782.621 M103.247 778.917 Q109.057 778.917 112.112 783.523 Q115.191 788.107 115.191 796.857 Q115.191 805.583 112.112 810.19 Q109.057 814.773 103.247 814.773 Q97.4364 814.773 94.3577 810.19 Q91.3022 805.583 91.3022 796.857 Q91.3022 788.107 94.3577 783.523 Q97.4364 778.917 103.247 778.917 Z" fill="#000000" fill-rule="evenodd" fill-opacity="1" /><path clip-path="url(#clip580)" d="M 0 0 M130.26 782.621 Q126.649 782.621 124.82 786.185 Q123.015 789.727 123.015 796.857 Q123.015 803.963 124.82 807.528 Q126.649 811.069 130.26 811.069 Q133.895 811.069 135.7 807.528 Q137.529 803.963 137.529 796.857 Q137.529 789.727 135.7 786.185 Q133.895 782.621 130.26 782.621 M130.26 778.917 Q136.07 778.917 139.126 783.523 Q142.205 788.107 142.205 796.857 Q142.205 805.583 139.126 810.19 Q136.07 814.773 130.26 814.773 Q124.45 814.773 121.371 810.19 Q118.316 805.583 118.316 796.857 Q118.316 788.107 121.371 783.523 Q124.45 778.917 130.26 778.917 Z" fill="#000000" fill-rule="evenodd" fill-opacity="1" /><path clip-path="url(#clip580)" d="M 0 0 M76.6495 469.433 Q73.5013 469.433 71.6495 471.586 Q69.8208 473.738 69.8208 477.488 Q69.8208 481.215 71.6495 483.391 Q73.5013 485.544 76.6495 485.544 Q79.7976 485.544 81.6263 483.391 Q83.4781 481.215 83.4781 477.488 Q83.4781 473.738 81.6263 471.586 Q79.7976 469.433 76.6495 469.433 M85.9318 454.78 L85.9318 459.039 Q84.1726 458.206 82.367 457.766 Q80.5846 457.326 78.8254 457.326 Q74.1958 457.326 71.7421 460.451 Q69.3115 463.576 68.9643 469.896 Q70.33 467.882 72.3902 466.817 Q74.4504 465.729 76.9272 465.729 Q82.1355 465.729 85.1448 468.9 Q88.1772 472.049 88.1772 477.488 Q88.1772 482.812 85.029 486.03 Q81.8809 489.248 76.6495 489.248 Q70.6541 489.248 67.4828 484.664 Q64.3116 480.058 64.3116 471.331 Q64.3116 463.137 68.2004 458.275 Q72.0893 453.391 78.6402 453.391 Q80.3994 453.391 82.1818 453.738 Q83.9874 454.086 85.9318 454.78 Z" fill="#000000" fill-rule="evenodd" fill-opacity="1" /><path clip-path="url(#clip580)" d="M 0 0 M103.247 457.095 Q99.6354 457.095 97.8068 460.66 Q96.0012 464.201 96.0012 471.331 Q96.0012 478.437 97.8068 482.002 Q99.6354 485.544 103.247 485.544 Q106.881 485.544 108.686 482.002 Q110.515 478.437 110.515 471.331 Q110.515 464.201 108.686 460.66 Q106.881 457.095 103.247 457.095 M103.247 453.391 Q109.057 453.391 112.112 457.998 Q115.191 462.581 115.191 471.331 Q115.191 480.058 112.112 484.664 Q109.057 489.248 103.247 489.248 Q97.4364 489.248 94.3577 484.664 Q91.3022 480.058 91.3022 471.331 Q91.3022 462.581 94.3577 457.998 Q97.4364 453.391 103.247 453.391 Z" fill="#000000" fill-rule="evenodd" fill-opacity="1" /><path clip-path="url(#clip580)" d="M 0 0 M130.26 457.095 Q126.649 457.095 124.82 460.66 Q123.015 464.201 123.015 471.331 Q123.015 478.437 124.82 482.002 Q126.649 485.544 130.26 485.544 Q133.895 485.544 135.7 482.002 Q137.529 478.437 137.529 471.331 Q137.529 464.201 135.7 460.66 Q133.895 457.095 130.26 457.095 M130.26 453.391 Q136.07 453.391 139.126 457.998 Q142.205 462.581 142.205 471.331 Q142.205 480.058 139.126 484.664 Q136.07 489.248 130.26 489.248 Q124.45 489.248 121.371 484.664 Q118.316 480.058 118.316 471.331 Q118.316 462.581 121.371 457.998 Q124.45 453.391 130.26 453.391 Z" fill="#000000" fill-rule="evenodd" fill-opacity="1" /><path clip-path="url(#clip580)" d="M 0 0 M76.3254 146.639 Q72.9921 146.639 71.0708 148.421 Q69.1726 150.203 69.1726 153.328 Q69.1726 156.453 71.0708 158.236 Q72.9921 160.018 76.3254 160.018 Q79.6587 160.018 81.58 158.236 Q83.5013 156.43 83.5013 153.328 Q83.5013 150.203 81.58 148.421 Q79.6819 146.639 76.3254 146.639 M71.6495 144.648 Q68.6402 143.907 66.9504 141.847 Q65.2838 139.787 65.2838 136.824 Q65.2838 132.68 68.2236 130.273 Q71.1865 127.866 76.3254 127.866 Q81.4874 127.866 84.4272 130.273 Q87.367 132.68 87.367 136.824 Q87.367 139.787 85.6772 141.847 Q84.0105 143.907 81.0244 144.648 Q84.404 145.435 86.279 147.727 Q88.1772 150.018 88.1772 153.328 Q88.1772 158.352 85.0985 161.037 Q82.0429 163.722 76.3254 163.722 Q70.6078 163.722 67.5291 161.037 Q64.4736 158.352 64.4736 153.328 Q64.4736 150.018 66.3717 147.727 Q68.2699 145.435 71.6495 144.648 M69.9365 137.264 Q69.9365 139.949 71.6032 141.454 Q73.293 142.958 76.3254 142.958 Q79.3346 142.958 81.0244 141.454 Q82.7374 139.949 82.7374 137.264 Q82.7374 134.579 81.0244 133.074 Q79.3346 131.569 76.3254 131.569 Q73.293 131.569 71.6032 133.074 Q69.9365 134.579 69.9365 137.264 Z" fill="#000000" fill-rule="evenodd" fill-opacity="1" /><path clip-path="url(#clip580)" d="M 0 0 M103.247 131.569 Q99.6354 131.569 97.8068 135.134 Q96.0012 138.676 96.0012 145.805 Q96.0012 152.912 97.8068 156.477 Q99.6354 160.018 103.247 160.018 Q106.881 160.018 108.686 156.477 Q110.515 152.912 110.515 145.805 Q110.515 138.676 108.686 135.134 Q106.881 131.569 103.247 131.569 M103.247 127.866 Q109.057 127.866 112.112 132.472 Q115.191 137.055 115.191 145.805 Q115.191 154.532 112.112 159.139 Q109.057 163.722 103.247 163.722 Q97.4364 163.722 94.3577 159.139 Q91.3022 154.532 91.3022 145.805 Q91.3022 137.055 94.3577 132.472 Q97.4364 127.866 103.247 127.866 Z" fill="#000000" fill-rule="evenodd" fill-opacity="1" /><path clip-path="url(#clip580)" d="M 0 0 M130.26 131.569 Q126.649 131.569 124.82 135.134 Q123.015 138.676 123.015 145.805 Q123.015 152.912 124.82 156.477 Q126.649 160.018 130.26 160.018 Q133.895 160.018 135.7 156.477 Q137.529 152.912 137.529 145.805 Q137.529 138.676 135.7 135.134 Q133.895 131.569 130.26 131.569 M130.26 127.866 Q136.07 127.866 139.126 132.472 Q142.205 137.055 142.205 145.805 Q142.205 154.532 139.126 159.139 Q136.07 163.722 130.26 163.722 Q124.45 163.722 121.371 159.139 Q118.316 154.532 118.316 145.805 Q118.316 137.055 121.371 132.472 Q124.45 127.866 130.26 127.866 Z" fill="#000000" fill-rule="evenodd" fill-opacity="1" /><path clip-path="url(#clip580)" d="M 0 0 M1183.67 18.8205 L1183.67 65.8515 L1193.55 65.8515 Q1206.07 65.8515 1211.86 60.1802 Q1217.7 54.509 1217.7 42.2752 Q1217.7 30.1225 1211.86 24.4918 Q1206.07 18.8205 1193.55 18.8205 L1183.67 18.8205 M1175.48 12.096 L1192.3 12.096 Q1209.88 12.096 1218.1 19.4281 Q1226.32 26.7198 1226.32 42.2752 Q1226.32 57.9117 1218.06 65.2439 Q1209.8 72.576 1192.3 72.576 L1175.48 72.576 L1175.48 12.096 Z" fill="#000000" fill-rule="evenodd" fill-opacity="1" /><path clip-path="url(#clip580)" d="M 0 0 M1254.76 49.7694 Q1245.73 49.7694 1242.24 51.8354 Q1238.76 53.9013 1238.76 58.8839 Q1238.76 62.8538 1241.35 65.2034 Q1243.99 67.5124 1248.48 67.5124 Q1254.68 67.5124 1258.41 63.1374 Q1262.17 58.7219 1262.17 51.4303 L1262.17 49.7694 L1254.76 49.7694 M1269.63 46.6907 L1269.63 72.576 L1262.17 72.576 L1262.17 65.6895 Q1259.62 69.8214 1255.81 71.8063 Q1252.01 73.7508 1246.5 73.7508 Q1239.53 73.7508 1235.4 69.8619 Q1231.31 65.9325 1231.31 59.3701 Q1231.31 51.7138 1236.41 47.825 Q1241.56 43.9361 1251.72 43.9361 L1262.17 43.9361 L1262.17 43.2069 Q1262.17 38.0623 1258.77 35.2672 Q1255.41 32.4315 1249.29 32.4315 Q1245.4 32.4315 1241.72 33.3632 Q1238.03 34.295 1234.63 36.1584 L1234.63 29.2718 Q1238.72 27.692 1242.57 26.9223 Q1246.42 26.1121 1250.06 26.1121 Q1259.91 26.1121 1264.77 31.2163 Q1269.63 36.3204 1269.63 46.6907 Z" fill="#000000" fill-rule="evenodd" fill-opacity="1" /><path clip-path="url(#clip580)" d="M 0 0 M1284.82 14.324 L1284.82 27.2059 L1300.17 27.2059 L1300.17 32.9987 L1284.82 32.9987 L1284.82 57.6282 Q1284.82 63.1779 1286.32 64.7578 Q1287.86 66.3376 1292.52 66.3376 L1300.17 66.3376 L1300.17 72.576 L1292.52 72.576 Q1283.89 72.576 1280.61 69.3758 Q1277.32 66.1351 1277.32 57.6282 L1277.32 32.9987 L1271.86 32.9987 L1271.86 27.2059 L1277.32 27.2059 L1277.32 14.324 L1284.82 14.324 Z" fill="#000000" fill-rule="evenodd" fill-opacity="1" /><path clip-path="url(#clip580)" d="M 0 0 M1328.61 49.7694 Q1319.58 49.7694 1316.09 51.8354 Q1312.61 53.9013 1312.61 58.8839 Q1312.61 62.8538 1315.2 65.2034 Q1317.83 67.5124 1322.33 67.5124 Q1328.53 67.5124 1332.25 63.1374 Q1336.02 58.7219 1336.02 51.4303 L1336.02 49.7694 L1328.61 49.7694 M1343.48 46.6907 L1343.48 72.576 L1336.02 72.576 L1336.02 65.6895 Q1333.47 69.8214 1329.66 71.8063 Q1325.85 73.7508 1320.35 73.7508 Q1313.38 73.7508 1309.25 69.8619 Q1305.15 65.9325 1305.15 59.3701 Q1305.15 51.7138 1310.26 47.825 Q1315.4 43.9361 1325.57 43.9361 L1336.02 43.9361 L1336.02 43.2069 Q1336.02 38.0623 1332.62 35.2672 Q1329.26 32.4315 1323.14 32.4315 Q1319.25 32.4315 1315.57 33.3632 Q1311.88 34.295 1308.48 36.1584 L1308.48 29.2718 Q1312.57 27.692 1316.42 26.9223 Q1320.26 26.1121 1323.91 26.1121 Q1333.75 26.1121 1338.61 31.2163 Q1343.48 36.3204 1343.48 46.6907 Z" fill="#000000" fill-rule="evenodd" fill-opacity="1" /><polyline clip-path="url(#clip582)" style="stroke:#009af9; stroke-width:4; stroke-opacity:1; fill:none" points="
  228.088,1447.87 228.088,1317.66 262.468,1317.66 262.468,1301.39 296.848,1301.39 296.848,1203.73 331.227,1203.73 365.607,1203.73 365.607,1171.18 
  399.987,1171.18 399.987,1008.41 434.367,1008.41 434.367,1089.79 468.746,1089.79 468.746,959.585 503.126,959.585 503.126,796.822 537.506,796.822 537.506,699.164 
  571.886,699.164 571.886,927.032 606.265,927.032 606.265,878.203 640.645,878.203 640.645,747.993 675.025,747.993 675.025,829.374 709.405,829.374 709.405,959.585 
  743.784,959.585 743.784,1106.07 778.164,1106.07 778.164,1203.73 812.544,1203.73 812.544,1220.01 846.923,1220.01 846.923,1285.11 881.303,1285.11 881.303,1366.49 
  915.683,1366.49 915.683,1382.77 950.063,1382.77 950.063,1333.94 984.442,1333.94 984.442,1415.32 1018.82,1415.32 1018.82,1447.87 1053.2,1447.87 
  1087.58,1447.87 1087.58,1415.32 1121.96,1415.32 1156.34,1415.32 1156.34,1382.77 1190.72,1382.77 1190.72,1399.04 1225.1,1399.04 1225.1,1252.56 
  1259.48,1252.56 1293.86,1252.56 1293.86,1024.69 1328.24,1024.69 1328.24,1008.41 1362.62,1008.41 1362.62,845.651 1397,845.651 
  1431.38,845.651 1431.38,585.23 1465.76,585.23 1465.76,162.047 1500.14,162.047 1500.14,259.705 1534.52,259.705 1534.52,210.876 1568.9,210.876 
  1603.28,210.876 1603.28,162.047 1637.66,162.047 1637.66,292.257 1672.04,292.257 1672.04,210.876 1706.42,210.876 1706.42,438.744 1740.8,438.744 1740.8,552.678 
  1775.18,552.678 1775.18,747.993 1809.56,747.993 1809.56,975.861 1843.94,975.861 1843.94,1089.79 1878.32,1089.79 1878.32,1203.73 1912.7,1203.73 1912.7,1285.11 
  1947.08,1285.11 1947.08,1382.77 1981.45,1382.77 1981.45,1366.49 2015.83,1366.49 2015.83,1382.77 2050.21,1382.77 2050.21,1399.04 2084.59,1399.04 2084.59,1431.6 
  2118.97,1431.6 2118.97,1415.32 2153.35,1415.32 2153.35,1447.87 2187.73,1447.87 2222.11,1447.87 2256.49,1447.87 
  2290.87,1447.87 
  "/>
<path clip-path="url(#clip580)" d="
M1944.76 327.952 L2280.76 327.952 L2280.76 206.992 L1944.76 206.992  Z
  " fill="#ffffff" fill-rule="evenodd" fill-opacity="1"/>
<polyline clip-path="url(#clip580)" style="stroke:#000000; stroke-width:4; stroke-opacity:1; fill:none" points="
  1944.76,327.952 2280.76,327.952 2280.76,206.992 1944.76,206.992 1944.76,327.952 
  "/>
<polyline clip-path="url(#clip580)" style="stroke:#009af9; stroke-width:4; stroke-opacity:1; fill:none" points="
  1968.76,267.472 2112.76,267.472 
  "/>
<path clip-path="url(#clip580)" d="M 0 0 M2141.44 254.035 L2141.44 280.91 L2147.09 280.91 Q2154.24 280.91 2157.55 277.669 Q2160.88 274.428 2160.88 267.437 Q2160.88 260.493 2157.55 257.275 Q2154.24 254.035 2147.09 254.035 L2141.44 254.035 M2136.76 250.192 L2146.37 250.192 Q2156.41 250.192 2161.11 254.382 Q2165.81 258.549 2165.81 267.437 Q2165.81 276.373 2161.09 280.562 Q2156.37 284.752 2146.37 284.752 L2136.76 284.752 L2136.76 250.192 Z" fill="#000000" fill-rule="evenodd" fill-opacity="1" /><path clip-path="url(#clip580)" d="M 0 0 M2182.06 271.72 Q2176.9 271.72 2174.91 272.9 Q2172.92 274.081 2172.92 276.928 Q2172.92 279.197 2174.4 280.539 Q2175.9 281.859 2178.47 281.859 Q2182.02 281.859 2184.15 279.359 Q2186.3 276.836 2186.3 272.669 L2186.3 271.72 L2182.06 271.72 M2190.56 269.961 L2190.56 284.752 L2186.3 284.752 L2186.3 280.817 Q2184.84 283.178 2182.66 284.312 Q2180.49 285.423 2177.34 285.423 Q2173.36 285.423 2171 283.201 Q2168.66 280.956 2168.66 277.206 Q2168.66 272.831 2171.58 270.609 Q2174.52 268.386 2180.33 268.386 L2186.3 268.386 L2186.3 267.97 Q2186.3 265.03 2184.35 263.433 Q2182.43 261.812 2178.94 261.812 Q2176.71 261.812 2174.61 262.345 Q2172.5 262.877 2170.56 263.942 L2170.56 260.007 Q2172.9 259.104 2175.09 258.664 Q2177.29 258.201 2179.38 258.201 Q2185 258.201 2187.78 261.118 Q2190.56 264.035 2190.56 269.961 Z" fill="#000000" fill-rule="evenodd" fill-opacity="1" /><path clip-path="url(#clip580)" d="M 0 0 M2199.24 251.465 L2199.24 258.826 L2208.01 258.826 L2208.01 262.137 L2199.24 262.137 L2199.24 276.211 Q2199.24 279.382 2200.09 280.285 Q2200.97 281.187 2203.64 281.187 L2208.01 281.187 L2208.01 284.752 L2203.64 284.752 Q2198.71 284.752 2196.83 282.923 Q2194.96 281.072 2194.96 276.211 L2194.96 262.137 L2191.83 262.137 L2191.83 258.826 L2194.96 258.826 L2194.96 251.465 L2199.24 251.465 Z" fill="#000000" fill-rule="evenodd" fill-opacity="1" /><path clip-path="url(#clip580)" d="M 0 0 M2224.26 271.72 Q2219.1 271.72 2217.11 272.9 Q2215.12 274.081 2215.12 276.928 Q2215.12 279.197 2216.6 280.539 Q2218.1 281.859 2220.67 281.859 Q2224.21 281.859 2226.34 279.359 Q2228.5 276.836 2228.5 272.669 L2228.5 271.72 L2224.26 271.72 M2232.76 269.961 L2232.76 284.752 L2228.5 284.752 L2228.5 280.817 Q2227.04 283.178 2224.86 284.312 Q2222.69 285.423 2219.54 285.423 Q2215.56 285.423 2213.2 283.201 Q2210.86 280.956 2210.86 277.206 Q2210.86 272.831 2213.77 270.609 Q2216.71 268.386 2222.52 268.386 L2228.5 268.386 L2228.5 267.97 Q2228.5 265.03 2226.55 263.433 Q2224.63 261.812 2221.14 261.812 Q2218.91 261.812 2216.81 262.345 Q2214.7 262.877 2212.76 263.942 L2212.76 260.007 Q2215.09 259.104 2217.29 258.664 Q2219.49 258.201 2221.58 258.201 Q2227.2 258.201 2229.98 261.118 Q2232.76 264.035 2232.76 269.961 Z" fill="#000000" fill-rule="evenodd" fill-opacity="1" /></svg>
