<?xml version="1.0" encoding="utf-8"?>
<svg xmlns="http://www.w3.org/2000/svg" xmlns:xlink="http://www.w3.org/1999/xlink" width="600" height="400" viewBox="0 0 2400 1600">
<defs>
  <clipPath id="clip730">
    <rect x="0" y="0" width="2400" height="1600"/>
  </clipPath>
</defs>
<path clip-path="url(#clip730)" d="
M0 1600 L2400 1600 L2400 0 L0 0  Z
  " fill="#ffffff" fill-rule="evenodd" fill-opacity="1"/>
<defs>
  <clipPath id="clip731">
    <rect x="480" y="0" width="1681" height="1600"/>
  </clipPath>
</defs>
<path clip-path="url(#clip730)" d="
M166.205 1486.45 L2352.76 1486.45 L2352.76 123.472 L166.205 123.472  Z
  " fill="#ffffff" fill-rule="evenodd" fill-opacity="1"/>
<defs>
  <clipPath id="clip732">
    <rect x="166" y="123" width="2188" height="1364"/>
  </clipPath>
</defs>
<polyline clip-path="url(#clip732)" style="stroke:#000000; stroke-width:2; stroke-opacity:0.1; fill:none" points="
  228.088,1486.45 228.088,123.472 
  "/>
<polyline clip-path="url(#clip732)" style="stroke:#000000; stroke-width:2; stroke-opacity:0.1; fill:none" points="
  743.784,1486.45 743.784,123.472 
  "/>
<polyline clip-path="url(#clip732)" style="stroke:#000000; stroke-width:2; stroke-opacity:0.1; fill:none" points="
  1259.48,1486.45 1259.48,123.472 
  "/>
<polyline clip-path="url(#clip732)" style="stroke:#000000; stroke-width:2; stroke-opacity:0.1; fill:none" points="
  1775.18,1486.45 1775.18,123.472 
  "/>
<polyline clip-path="url(#clip732)" style="stroke:#000000; stroke-width:2; stroke-opacity:0.1; fill:none" points="
  2290.87,1486.45 2290.87,123.472 
  "/>
<polyline clip-path="url(#clip732)" style="stroke:#000000; stroke-width:2; stroke-opacity:0.1; fill:none" points="
  166.205,1447.87 2352.76,1447.87 
  "/>
<polyline clip-path="url(#clip732)" style="stroke:#000000; stroke-width:2; stroke-opacity:0.1; fill:none" points="
  166.205,1129.58 2352.76,1129.58 
  "/>
<polyline clip-path="url(#clip732)" style="stroke:#000000; stroke-width:2; stroke-opacity:0.1; fill:none" points="
  166.205,811.287 2352.76,811.287 
  "/>
<polyline clip-path="url(#clip732)" style="stroke:#000000; stroke-width:2; stroke-opacity:0.1; fill:none" points="
  166.205,492.994 2352.76,492.994 
  "/>
<polyline clip-path="url(#clip732)" style="stroke:#000000; stroke-width:2; stroke-opacity:0.1; fill:none" points="
  166.205,174.7 2352.76,174.7 
  "/>
<polyline clip-path="url(#clip730)" style="stroke:#000000; stroke-width:4; stroke-opacity:1; fill:none" points="
  166.205,1486.45 2352.76,1486.45 
  "/>
<polyline clip-path="url(#clip730)" style="stroke:#000000; stroke-width:4; stroke-opacity:1; fill:none" points="
  166.205,1486.45 166.205,123.472 
  "/>
<polyline clip-path="url(#clip730)" style="stroke:#000000; stroke-width:4; stroke-opacity:1; fill:none" points="
  228.088,1486.45 228.088,1470.09 
  "/>
<polyline clip-path="url(#clip730)" style="stroke:#000000; stroke-width:4; stroke-opacity:1; fill:none" points="
  743.784,1486.45 743.784,1470.09 
  "/>
<polyline clip-path="url(#clip730)" style="stroke:#000000; stroke-width:4; stroke-opacity:1; fill:none" points="
  1259.48,1486.45 1259.48,1470.09 
  "/>
<polyline clip-path="url(#clip730)" style="stroke:#000000; stroke-width:4; stroke-opacity:1; fill:none" points="
  1775.18,1486.45 1775.18,1470.09 
  "/>
<polyline clip-path="url(#clip730)" style="stroke:#000000; stroke-width:4; stroke-opacity:1; fill:none" points="
  2290.87,1486.45 2290.87,1470.09 
  "/>
<polyline clip-path="url(#clip730)" style="stroke:#000000; stroke-width:4; stroke-opacity:1; fill:none" points="
  166.205,1447.87 192.443,1447.87 
  "/>
<polyline clip-path="url(#clip730)" style="stroke:#000000; stroke-width:4; stroke-opacity:1; fill:none" points="
  166.205,1129.58 192.443,1129.58 
  "/>
<polyline clip-path="url(#clip730)" style="stroke:#000000; stroke-width:4; stroke-opacity:1; fill:none" points="
  166.205,811.287 192.443,811.287 
  "/>
<polyline clip-path="url(#clip730)" style="stroke:#000000; stroke-width:4; stroke-opacity:1; fill:none" points="
  166.205,492.994 192.443,492.994 
  "/>
<polyline clip-path="url(#clip730)" style="stroke:#000000; stroke-width:4; stroke-opacity:1; fill:none" points="
  166.205,174.7 192.443,174.7 
  "/>
<path clip-path="url(#clip730)" d="M 0 0 M208.1 1525.04 L220.577 1525.04 L220.577 1528.83 L208.1 1528.83 L208.1 1525.04 Z" fill="#000000" fill-rule="evenodd" fill-opacity="1" /><path clip-path="url(#clip730)" d="M 0 0 M238.493 1509.43 L226.688 1527.88 L238.493 1527.88 L238.493 1509.43 M237.266 1505.36 L243.146 1505.36 L243.146 1527.88 L248.077 1527.88 L248.077 1531.77 L243.146 1531.77 L243.146 1539.92 L238.493 1539.92 L238.493 1531.77 L222.891 1531.77 L222.891 1527.26 L237.266 1505.36 Z" fill="#000000" fill-rule="evenodd" fill-opacity="1" /><path clip-path="url(#clip730)" d="M 0 0 M724.838 1525.04 L737.314 1525.04 L737.314 1528.83 L724.838 1528.83 L724.838 1525.04 Z" fill="#000000" fill-rule="evenodd" fill-opacity="1" /><path clip-path="url(#clip730)" d="M 0 0 M746.412 1535.98 L762.731 1535.98 L762.731 1539.92 L740.787 1539.92 L740.787 1535.98 Q743.449 1533.23 748.032 1528.6 Q752.638 1523.95 753.819 1522.61 Q756.064 1520.08 756.944 1518.35 Q757.847 1516.59 757.847 1514.9 Q757.847 1512.14 755.902 1510.41 Q753.981 1508.67 750.879 1508.67 Q748.68 1508.67 746.226 1509.43 Q743.796 1510.2 741.018 1511.75 L741.018 1507.03 Q743.842 1505.89 746.296 1505.31 Q748.749 1504.73 750.787 1504.73 Q756.157 1504.73 759.351 1507.42 Q762.546 1510.11 762.546 1514.6 Q762.546 1516.73 761.736 1518.65 Q760.948 1520.54 758.842 1523.14 Q758.263 1523.81 755.161 1527.03 Q752.06 1530.22 746.412 1535.98 Z" fill="#000000" fill-rule="evenodd" fill-opacity="1" /><path clip-path="url(#clip730)" d="M 0 0 M1259.48 1508.44 Q1255.87 1508.44 1254.04 1512 Q1252.23 1515.55 1252.23 1522.67 Q1252.23 1529.78 1254.04 1533.35 Q1255.87 1536.89 1259.48 1536.89 Q1263.11 1536.89 1264.92 1533.35 Q1266.75 1529.78 1266.75 1522.67 Q1266.75 1515.55 1264.92 1512 Q1263.11 1508.44 1259.48 1508.44 M1259.48 1504.73 Q1265.29 1504.73 1268.35 1509.34 Q1271.42 1513.92 1271.42 1522.67 Q1271.42 1531.4 1268.35 1536.01 Q1265.29 1540.59 1259.48 1540.59 Q1253.67 1540.59 1250.59 1536.01 Q1247.54 1531.4 1247.54 1522.67 Q1247.54 1513.92 1250.59 1509.34 Q1253.67 1504.73 1259.48 1504.73 Z" fill="#000000" fill-rule="evenodd" fill-opacity="1" /><path clip-path="url(#clip730)" d="M 0 0 M1769.83 1535.98 L1786.15 1535.98 L1786.15 1539.92 L1764.2 1539.92 L1764.2 1535.98 Q1766.87 1533.23 1771.45 1528.6 Q1776.06 1523.95 1777.24 1522.61 Q1779.48 1520.08 1780.36 1518.35 Q1781.26 1516.59 1781.26 1514.9 Q1781.26 1512.14 1779.32 1510.41 Q1777.4 1508.67 1774.3 1508.67 Q1772.1 1508.67 1769.64 1509.43 Q1767.21 1510.2 1764.44 1511.75 L1764.44 1507.03 Q1767.26 1505.89 1769.71 1505.31 Q1772.17 1504.73 1774.2 1504.73 Q1779.57 1504.73 1782.77 1507.42 Q1785.96 1510.11 1785.96 1514.6 Q1785.96 1516.73 1785.15 1518.65 Q1784.37 1520.54 1782.26 1523.14 Q1781.68 1523.81 1778.58 1527.03 Q1775.48 1530.22 1769.83 1535.98 Z" fill="#000000" fill-rule="evenodd" fill-opacity="1" /><path clip-path="url(#clip730)" d="M 0 0 M2293.88 1509.43 L2282.08 1527.88 L2293.88 1527.88 L2293.88 1509.43 M2292.65 1505.36 L2298.53 1505.36 L2298.53 1527.88 L2303.46 1527.88 L2303.46 1531.77 L2298.53 1531.77 L2298.53 1539.92 L2293.88 1539.92 L2293.88 1531.77 L2278.28 1531.77 L2278.28 1527.26 L2292.65 1505.36 Z" fill="#000000" fill-rule="evenodd" fill-opacity="1" /><path clip-path="url(#clip730)" d="M 0 0 M130.26 1433.67 Q126.649 1433.67 124.82 1437.24 Q123.015 1440.78 123.015 1447.91 Q123.015 1455.01 124.82 1458.58 Q126.649 1462.12 130.26 1462.12 Q133.895 1462.12 135.7 1458.58 Q137.529 1455.01 137.529 1447.91 Q137.529 1440.78 135.7 1437.24 Q133.895 1433.67 130.26 1433.67 M130.26 1429.97 Q136.07 1429.97 139.126 1434.57 Q142.205 1439.16 142.205 1447.91 Q142.205 1456.63 139.126 1461.24 Q136.07 1465.82 130.26 1465.82 Q124.45 1465.82 121.371 1461.24 Q118.316 1456.63 118.316 1447.91 Q118.316 1439.16 121.371 1434.57 Q124.45 1429.97 130.26 1429.97 Z" fill="#000000" fill-rule="evenodd" fill-opacity="1" /><path clip-path="url(#clip730)" d="M 0 0 M71.8578 1142.92 L88.1772 1142.92 L88.1772 1146.86 L66.2328 1146.86 L66.2328 1142.92 Q68.8949 1140.17 73.4782 1135.54 Q78.0846 1130.89 79.2652 1129.55 Q81.5105 1127.02 82.3902 1125.29 Q83.2929 1123.53 83.2929 1121.84 Q83.2929 1119.08 81.3485 1117.35 Q79.4272 1115.61 76.3254 1115.61 Q74.1263 1115.61 71.6726 1116.37 Q69.2421 1117.14 66.4643 1118.69 L66.4643 1113.97 Q69.2884 1112.83 71.7421 1112.25 Q74.1958 1111.67 76.2328 1111.67 Q81.6031 1111.67 84.7976 1114.36 Q87.992 1117.05 87.992 1121.54 Q87.992 1123.67 87.1818 1125.59 Q86.3948 1127.48 84.2883 1130.08 Q83.7096 1130.75 80.6078 1133.97 Q77.5059 1137.16 71.8578 1142.92 Z" fill="#000000" fill-rule="evenodd" fill-opacity="1" /><path clip-path="url(#clip730)" d="M 0 0 M103.247 1115.38 Q99.6354 1115.38 97.8068 1118.94 Q96.0012 1122.49 96.0012 1129.61 Q96.0012 1136.72 97.8068 1140.29 Q99.6354 1143.83 103.247 1143.83 Q106.881 1143.83 108.686 1140.29 Q110.515 1136.72 110.515 1129.61 Q110.515 1122.49 108.686 1118.94 Q106.881 1115.38 103.247 1115.38 M103.247 1111.67 Q109.057 1111.67 112.112 1116.28 Q115.191 1120.86 115.191 1129.61 Q115.191 1138.34 112.112 1142.95 Q109.057 1147.53 103.247 1147.53 Q97.4364 1147.53 94.3577 1142.95 Q91.3022 1138.34 91.3022 1129.61 Q91.3022 1120.86 94.3577 1116.28 Q97.4364 1111.67 103.247 1111.67 Z" fill="#000000" fill-rule="evenodd" fill-opacity="1" /><path clip-path="url(#clip730)" d="M 0 0 M130.26 1115.38 Q126.649 1115.38 124.82 1118.94 Q123.015 1122.49 123.015 1129.61 Q123.015 1136.72 124.82 1140.29 Q126.649 1143.83 130.26 1143.83 Q133.895 1143.83 135.7 1140.29 Q137.529 1136.72 137.529 1129.61 Q137.529 1122.49 135.7 1118.94 Q133.895 1115.38 130.26 1115.38 M130.26 1111.67 Q136.07 1111.67 139.126 1116.28 Q142.205 1120.86 142.205 1129.61 Q142.205 1138.34 139.126 1142.95 Q136.07 1147.53 130.26 1147.53 Q124.45 1147.53 121.371 1142.95 Q118.316 1138.34 118.316 1129.61 Q118.316 1120.86 121.371 1116.28 Q124.45 1111.67 130.26 1111.67 Z" fill="#000000" fill-rule="evenodd" fill-opacity="1" /><path clip-path="url(#clip730)" d="M 0 0 M78.5939 798.081 L66.7884 816.53 L78.5939 816.53 L78.5939 798.081 M77.367 794.007 L83.2466 794.007 L83.2466 816.53 L88.1772 816.53 L88.1772 820.419 L83.2466 820.419 L83.2466 828.567 L78.5939 828.567 L78.5939 820.419 L62.9921 820.419 L62.9921 815.905 L77.367 794.007 Z" fill="#000000" fill-rule="evenodd" fill-opacity="1" /><path clip-path="url(#clip730)" d="M 0 0 M103.247 797.085 Q99.6354 797.085 97.8068 800.65 Q96.0012 804.192 96.0012 811.321 Q96.0012 818.428 97.8068 821.993 Q99.6354 825.534 103.247 825.534 Q106.881 825.534 108.686 821.993 Q110.515 818.428 110.515 811.321 Q110.515 804.192 108.686 800.65 Q106.881 797.085 103.247 797.085 M103.247 793.382 Q109.057 793.382 112.112 797.988 Q115.191 802.571 115.191 811.321 Q115.191 820.048 112.112 824.655 Q109.057 829.238 103.247 829.238 Q97.4364 829.238 94.3577 824.655 Q91.3022 820.048 91.3022 811.321 Q91.3022 802.571 94.3577 797.988 Q97.4364 793.382 103.247 793.382 Z" fill="#000000" fill-rule="evenodd" fill-opacity="1" /><path clip-path="url(#clip730)" d="M 0 0 M130.26 797.085 Q126.649 797.085 124.82 800.65 Q123.015 804.192 123.015 811.321 Q123.015 818.428 124.82 821.993 Q126.649 825.534 130.26 825.534 Q133.895 825.534 135.7 821.993 Q137.529 818.428 137.529 811.321 Q137.529 804.192 135.7 800.65 Q133.895 797.085 130.26 797.085 M130.26 793.382 Q136.07 793.382 139.126 797.988 Q142.205 802.571 142.205 811.321 Q142.205 820.048 139.126 824.655 Q136.07 829.238 130.26 829.238 Q124.45 829.238 121.371 824.655 Q118.316 820.048 118.316 811.321 Q118.316 802.571 121.371 797.988 Q124.45 793.382 130.26 793.382 Z" fill="#000000" fill-rule="evenodd" fill-opacity="1" /><path clip-path="url(#clip730)" d="M 0 0 M76.6495 491.13 Q73.5013 491.13 71.6495 493.283 Q69.8208 495.436 69.8208 499.186 Q69.8208 502.912 71.6495 505.088 Q73.5013 507.241 76.6495 507.241 Q79.7976 507.241 81.6263 505.088 Q83.4781 502.912 83.4781 499.186 Q83.4781 495.436 81.6263 493.283 Q79.7976 491.13 76.6495 491.13 M85.9318 476.477 L85.9318 480.737 Q84.1726 479.903 82.367 479.463 Q80.5846 479.024 78.8254 479.024 Q74.1958 479.024 71.7421 482.149 Q69.3115 485.274 68.9643 491.593 Q70.33 489.579 72.3902 488.514 Q74.4504 487.426 76.9272 487.426 Q82.1355 487.426 85.1448 490.598 Q88.1772 493.746 88.1772 499.186 Q88.1772 504.51 85.029 507.727 Q81.8809 510.945 76.6495 510.945 Q70.6541 510.945 67.4828 506.361 Q64.3116 501.755 64.3116 493.028 Q64.3116 484.834 68.2004 479.973 Q72.0893 475.089 78.6402 475.089 Q80.3994 475.089 82.1818 475.436 Q83.9874 475.783 85.9318 476.477 Z" fill="#000000" fill-rule="evenodd" fill-opacity="1" /><path clip-path="url(#clip730)" d="M 0 0 M103.247 478.792 Q99.6354 478.792 97.8068 482.357 Q96.0012 485.899 96.0012 493.028 Q96.0012 500.135 97.8068 503.699 Q99.6354 507.241 103.247 507.241 Q106.881 507.241 108.686 503.699 Q110.515 500.135 110.515 493.028 Q110.515 485.899 108.686 482.357 Q106.881 478.792 103.247 478.792 M103.247 475.089 Q109.057 475.089 112.112 479.695 Q115.191 484.278 115.191 493.028 Q115.191 501.755 112.112 506.361 Q109.057 510.945 103.247 510.945 Q97.4364 510.945 94.3577 506.361 Q91.3022 501.755 91.3022 493.028 Q91.3022 484.278 94.3577 479.695 Q97.4364 475.089 103.247 475.089 Z" fill="#000000" fill-rule="evenodd" fill-opacity="1" /><path clip-path="url(#clip730)" d="M 0 0 M130.26 478.792 Q126.649 478.792 124.82 482.357 Q123.015 485.899 123.015 493.028 Q123.015 500.135 124.82 503.699 Q126.649 507.241 130.26 507.241 Q133.895 507.241 135.7 503.699 Q137.529 500.135 137.529 493.028 Q137.529 485.899 135.7 482.357 Q133.895 478.792 130.26 478.792 M130.26 475.089 Q136.07 475.089 139.126 479.695 Q142.205 484.278 142.205 493.028 Q142.205 501.755 139.126 506.361 Q136.07 510.945 130.26 510.945 Q124.45 510.945 121.371 506.361 Q118.316 501.755 118.316 493.028 Q118.316 484.278 121.371 479.695 Q124.45 475.089 130.26 475.089 Z" fill="#000000" fill-rule="evenodd" fill-opacity="1" /><path clip-path="url(#clip730)" d="M 0 0 M76.3254 175.568 Q72.9921 175.568 71.0708 177.351 Q69.1726 179.133 69.1726 182.258 Q69.1726 185.383 71.0708 187.166 Q72.9921 188.948 76.3254 188.948 Q79.6587 188.948 81.58 187.166 Q83.5013 185.36 83.5013 182.258 Q83.5013 179.133 81.58 177.351 Q79.6819 175.568 76.3254 175.568 M71.6495 173.578 Q68.6402 172.837 66.9504 170.777 Q65.2838 168.717 65.2838 165.754 Q65.2838 161.61 68.2236 159.203 Q71.1865 156.795 76.3254 156.795 Q81.4874 156.795 84.4272 159.203 Q87.367 161.61 87.367 165.754 Q87.367 168.717 85.6772 170.777 Q84.0105 172.837 81.0244 173.578 Q84.404 174.365 86.279 176.656 Q88.1772 178.948 88.1772 182.258 Q88.1772 187.281 85.0985 189.966 Q82.0429 192.652 76.3254 192.652 Q70.6078 192.652 67.5291 189.966 Q64.4736 187.281 64.4736 182.258 Q64.4736 178.948 66.3717 176.656 Q68.2699 174.365 71.6495 173.578 M69.9365 166.193 Q69.9365 168.879 71.6032 170.383 Q73.293 171.888 76.3254 171.888 Q79.3346 171.888 81.0244 170.383 Q82.7374 168.879 82.7374 166.193 Q82.7374 163.508 81.0244 162.004 Q79.3346 160.499 76.3254 160.499 Q73.293 160.499 71.6032 162.004 Q69.9365 163.508 69.9365 166.193 Z" fill="#000000" fill-rule="evenodd" fill-opacity="1" /><path clip-path="url(#clip730)" d="M 0 0 M103.247 160.499 Q99.6354 160.499 97.8068 164.064 Q96.0012 167.605 96.0012 174.735 Q96.0012 181.841 97.8068 185.406 Q99.6354 188.948 103.247 188.948 Q106.881 188.948 108.686 185.406 Q110.515 181.841 110.515 174.735 Q110.515 167.605 108.686 164.064 Q106.881 160.499 103.247 160.499 M103.247 156.795 Q109.057 156.795 112.112 161.402 Q115.191 165.985 115.191 174.735 Q115.191 183.462 112.112 188.068 Q109.057 192.652 103.247 192.652 Q97.4364 192.652 94.3577 188.068 Q91.3022 183.462 91.3022 174.735 Q91.3022 165.985 94.3577 161.402 Q97.4364 156.795 103.247 156.795 Z" fill="#000000" fill-rule="evenodd" fill-opacity="1" /><path clip-path="url(#clip730)" d="M 0 0 M130.26 160.499 Q126.649 160.499 124.82 164.064 Q123.015 167.605 123.015 174.735 Q123.015 181.841 124.82 185.406 Q126.649 188.948 130.26 188.948 Q133.895 188.948 135.7 185.406 Q137.529 181.841 137.529 174.735 Q137.529 167.605 135.7 164.064 Q133.895 160.499 130.26 160.499 M130.26 156.795 Q136.07 156.795 139.126 161.402 Q142.205 165.985 142.205 174.735 Q142.205 183.462 139.126 188.068 Q136.07 192.652 130.26 192.652 Q124.45 192.652 121.371 188.068 Q118.316 183.462 118.316 174.735 Q118.316 165.985 121.371 161.402 Q124.45 156.795 130.26 156.795 Z" fill="#000000" fill-rule="evenodd" fill-opacity="1" /><path clip-path="url(#clip730)" d="M 0 0 M725.976 18.8205 L725.976 65.8515 L735.86 65.8515 Q748.378 65.8515 754.17 60.1802 Q760.004 54.509 760.004 42.2752 Q760.004 30.1225 754.17 24.4918 Q748.378 18.8205 735.86 18.8205 L725.976 18.8205 M717.793 12.096 L734.605 12.096 Q752.186 12.096 760.409 19.4281 Q768.632 26.7198 768.632 42.2752 Q768.632 57.9117 760.368 65.2439 Q752.105 72.576 734.605 72.576 L717.793 72.576 L717.793 12.096 Z" fill="#000000" fill-rule="evenodd" fill-opacity="1" /><path clip-path="url(#clip730)" d="M 0 0 M797.07 49.7694 Q788.036 49.7694 784.552 51.8354 Q781.068 53.9013 781.068 58.8839 Q781.068 62.8538 783.661 65.2034 Q786.294 67.5124 790.791 67.5124 Q796.989 67.5124 800.715 63.1374 Q804.483 58.7219 804.483 51.4303 L804.483 49.7694 L797.07 49.7694 M811.936 46.6907 L811.936 72.576 L804.483 72.576 L804.483 65.6895 Q801.931 69.8214 798.123 71.8063 Q794.315 73.7508 788.806 73.7508 Q781.838 73.7508 777.706 69.8619 Q773.615 65.9325 773.615 59.3701 Q773.615 51.7138 778.719 47.825 Q783.864 43.9361 794.031 43.9361 L804.483 43.9361 L804.483 43.2069 Q804.483 38.0623 801.08 35.2672 Q797.718 32.4315 791.601 32.4315 Q787.712 32.4315 784.026 33.3632 Q780.339 34.295 776.937 36.1584 L776.937 29.2718 Q781.028 27.692 784.876 26.9223 Q788.725 26.1121 792.371 26.1121 Q802.214 26.1121 807.075 31.2163 Q811.936 36.3204 811.936 46.6907 Z" fill="#000000" fill-rule="evenodd" fill-opacity="1" /><path clip-path="url(#clip730)" d="M 0 0 M827.127 14.324 L827.127 27.2059 L842.48 27.2059 L842.48 32.9987 L827.127 32.9987 L827.127 57.6282 Q827.127 63.1779 828.626 64.7578 Q830.165 66.3376 834.824 66.3376 L842.48 66.3376 L842.48 72.576 L834.824 72.576 Q826.196 72.576 822.914 69.3758 Q819.633 66.1351 819.633 57.6282 L819.633 32.9987 L814.164 32.9987 L814.164 27.2059 L819.633 27.2059 L819.633 14.324 L827.127 14.324 Z" fill="#000000" fill-rule="evenodd" fill-opacity="1" /><path clip-path="url(#clip730)" d="M 0 0 M870.918 49.7694 Q861.884 49.7694 858.4 51.8354 Q854.916 53.9013 854.916 58.8839 Q854.916 62.8538 857.509 65.2034 Q860.142 67.5124 864.639 67.5124 Q870.837 67.5124 874.563 63.1374 Q878.331 58.7219 878.331 51.4303 L878.331 49.7694 L870.918 49.7694 M885.784 46.6907 L885.784 72.576 L878.331 72.576 L878.331 65.6895 Q875.779 69.8214 871.971 71.8063 Q868.163 73.7508 862.654 73.7508 Q855.686 73.7508 851.554 69.8619 Q847.463 65.9325 847.463 59.3701 Q847.463 51.7138 852.567 47.825 Q857.712 43.9361 867.879 43.9361 L878.331 43.9361 L878.331 43.2069 Q878.331 38.0623 874.928 35.2672 Q871.566 32.4315 865.449 32.4315 Q861.56 32.4315 857.874 33.3632 Q854.187 34.295 850.785 36.1584 L850.785 29.2718 Q854.876 27.692 858.724 26.9223 Q862.573 26.1121 866.219 26.1121 Q876.062 26.1121 880.923 31.2163 Q885.784 36.3204 885.784 46.6907 Z" fill="#000000" fill-rule="evenodd" fill-opacity="1" /><path clip-path="url(#clip730)" d="M 0 0 M895.507 62.2867 L904.054 62.2867 L904.054 69.2543 L897.41 82.2172 L892.185 82.2172 L895.507 69.2543 L895.507 62.2867 Z" fill="#000000" fill-rule="evenodd" fill-opacity="1" /><path clip-path="url(#clip730)" d="M 0 0 M930.182 12.096 L981.345 12.096 L981.345 18.9825 L959.875 18.9825 L959.875 72.576 L951.652 72.576 L951.652 18.9825 L930.182 18.9825 L930.182 12.096 Z" fill="#000000" fill-rule="evenodd" fill-opacity="1" /><path clip-path="url(#clip730)" d="M 0 0 M1003.26 34.1734 Q1002 33.4443 1000.51 33.1202 Q999.048 32.7556 997.265 32.7556 Q990.946 32.7556 987.543 36.8875 Q984.181 40.9789 984.181 48.6757 L984.181 72.576 L976.687 72.576 L976.687 27.2059 L984.181 27.2059 L984.181 34.2544 Q986.53 30.1225 990.298 28.1376 Q994.065 26.1121 999.453 26.1121 Q1000.22 26.1121 1001.15 26.2337 Q1002.09 26.3147 1003.22 26.5172 L1003.26 34.1734 Z" fill="#000000" fill-rule="evenodd" fill-opacity="1" /><path clip-path="url(#clip730)" d="M 0 0 M1010.31 54.671 L1010.31 27.2059 L1017.76 27.2059 L1017.76 54.3874 Q1017.76 60.8284 1020.27 64.0691 Q1022.79 67.2693 1027.81 67.2693 Q1033.84 67.2693 1037.33 63.421 Q1040.85 59.5726 1040.85 52.9291 L1040.85 27.2059 L1048.31 27.2059 L1048.31 72.576 L1040.85 72.576 L1040.85 65.6084 Q1038.14 69.7404 1034.53 71.7658 Q1030.97 73.7508 1026.23 73.7508 Q1018.41 73.7508 1014.36 68.8897 Q1010.31 64.0286 1010.31 54.671 M1029.06 26.1121 L1029.06 26.1121 Z" fill="#000000" fill-rule="evenodd" fill-opacity="1" /><path clip-path="url(#clip730)" d="M 0 0 M1094.93 48.0275 L1094.93 51.6733 L1060.66 51.6733 Q1061.15 59.3701 1065.28 63.421 Q1069.45 67.4314 1076.87 67.4314 Q1081.16 67.4314 1085.17 66.3781 Q1089.22 65.3249 1093.19 63.2184 L1093.19 70.267 Q1089.18 71.9684 1084.97 72.8596 Q1080.75 73.7508 1076.42 73.7508 Q1065.56 73.7508 1059.2 67.4314 Q1052.88 61.1119 1052.88 50.3365 Q1052.88 39.1965 1058.88 32.6746 Q1064.92 26.1121 1075.12 26.1121 Q1084.28 26.1121 1089.59 32.0264 Q1094.93 37.9003 1094.93 48.0275 M1087.48 45.84 Q1087.4 39.7232 1084.04 36.0774 Q1080.71 32.4315 1075.2 32.4315 Q1068.97 32.4315 1065.2 35.9558 Q1061.47 39.4801 1060.9 45.8805 L1087.48 45.84 Z" fill="#000000" fill-rule="evenodd" fill-opacity="1" /><path clip-path="url(#clip730)" d="M 0 0 M1129.45 12.096 L1141.64 12.096 L1157.07 53.2532 L1172.59 12.096 L1184.78 12.096 L1184.78 72.576 L1176.8 72.576 L1176.8 19.4686 L1161.21 60.9499 L1152.98 60.9499 L1137.39 19.4686 L1137.39 72.576 L1129.45 72.576 L1129.45 12.096 Z" fill="#000000" fill-rule="evenodd" fill-opacity="1" /><path clip-path="url(#clip730)" d="M 0 0 M1210.18 32.4315 Q1204.19 32.4315 1200.7 37.1306 Q1197.22 41.7891 1197.22 49.9314 Q1197.22 58.0738 1200.66 62.7728 Q1204.14 67.4314 1210.18 67.4314 Q1216.14 67.4314 1219.62 62.7323 Q1223.1 58.0333 1223.1 49.9314 Q1223.1 41.8701 1219.62 37.1711 Q1216.14 32.4315 1210.18 32.4315 M1210.18 26.1121 Q1219.9 26.1121 1225.45 32.4315 Q1231 38.7509 1231 49.9314 Q1231 61.0714 1225.45 67.4314 Q1219.9 73.7508 1210.18 73.7508 Q1200.42 73.7508 1194.87 67.4314 Q1189.36 61.0714 1189.36 49.9314 Q1189.36 38.7509 1194.87 32.4315 Q1200.42 26.1121 1210.18 26.1121 Z" fill="#000000" fill-rule="evenodd" fill-opacity="1" /><path clip-path="url(#clip730)" d="M 0 0 M1268.68 34.0924 L1268.68 9.54393 L1276.13 9.54393 L1276.13 72.576 L1268.68 72.576 L1268.68 65.7705 Q1266.33 69.8214 1262.72 71.8063 Q1259.16 73.7508 1254.13 73.7508 Q1245.91 73.7508 1240.72 67.1883 Q1235.58 60.6258 1235.58 49.9314 Q1235.58 39.2371 1240.72 32.6746 Q1245.91 26.1121 1254.13 26.1121 Q1259.16 26.1121 1262.72 28.0971 Q1266.33 30.0415 1268.68 34.0924 M1243.28 49.9314 Q1243.28 58.1548 1246.64 62.8538 Q1250.04 67.5124 1255.96 67.5124 Q1261.87 67.5124 1265.27 62.8538 Q1268.68 58.1548 1268.68 49.9314 Q1268.68 41.7081 1265.27 37.0496 Q1261.87 32.3505 1255.96 32.3505 Q1250.04 32.3505 1246.64 37.0496 Q1243.28 41.7081 1243.28 49.9314 Z" fill="#000000" fill-rule="evenodd" fill-opacity="1" /><path clip-path="url(#clip730)" d="M 0 0 M1322.76 48.0275 L1322.76 51.6733 L1288.48 51.6733 Q1288.97 59.3701 1293.1 63.421 Q1297.28 67.4314 1304.69 67.4314 Q1308.98 67.4314 1312.99 66.3781 Q1317.04 65.3249 1321.01 63.2184 L1321.01 70.267 Q1317 71.9684 1312.79 72.8596 Q1308.58 73.7508 1304.24 73.7508 Q1293.39 73.7508 1287.03 67.4314 Q1280.71 61.1119 1280.71 50.3365 Q1280.71 39.1965 1286.7 32.6746 Q1292.74 26.1121 1302.95 26.1121 Q1312.1 26.1121 1317.41 32.0264 Q1322.76 37.9003 1322.76 48.0275 M1315.3 45.84 Q1315.22 39.7232 1311.86 36.0774 Q1308.54 32.4315 1303.03 32.4315 Q1296.79 32.4315 1293.02 35.9558 Q1289.29 39.4801 1288.73 45.8805 L1315.3 45.84 Z" fill="#000000" fill-rule="evenodd" fill-opacity="1" /><path clip-path="url(#clip730)" d="M 0 0 M1330.57 9.54393 L1338.03 9.54393 L1338.03 72.576 L1330.57 72.576 L1330.57 9.54393 Z" fill="#000000" fill-rule="evenodd" fill-opacity="1" /><path clip-path="url(#clip730)" d="M 0 0 M1392.84 49.7694 Q1383.8 49.7694 1380.32 51.8354 Q1376.83 53.9013 1376.83 58.8839 Q1376.83 62.8538 1379.43 65.2034 Q1382.06 67.5124 1386.56 67.5124 Q1392.76 67.5124 1396.48 63.1374 Q1400.25 58.7219 1400.25 51.4303 L1400.25 49.7694 L1392.84 49.7694 M1407.7 46.6907 L1407.7 72.576 L1400.25 72.576 L1400.25 65.6895 Q1397.7 69.8214 1393.89 71.8063 Q1390.08 73.7508 1384.57 73.7508 Q1377.6 73.7508 1373.47 69.8619 Q1369.38 65.9325 1369.38 59.3701 Q1369.38 51.7138 1374.49 47.825 Q1379.63 43.9361 1389.8 43.9361 L1400.25 43.9361 L1400.25 43.2069 Q1400.25 38.0623 1396.85 35.2672 Q1393.48 32.4315 1387.37 32.4315 Q1383.48 32.4315 1379.79 33.3632 Q1376.11 34.295 1372.7 36.1584 L1372.7 29.2718 Q1376.79 27.692 1380.64 26.9223 Q1384.49 26.1121 1388.14 26.1121 Q1397.98 26.1121 1402.84 31.2163 Q1407.7 36.3204 1407.7 46.6907 Z" fill="#000000" fill-rule="evenodd" fill-opacity="1" /><path clip-path="url(#clip730)" d="M 0 0 M1453.24 45.1919 L1453.24 72.576 L1445.78 72.576 L1445.78 45.4349 Q1445.78 38.994 1443.27 35.7938 Q1440.76 32.5936 1435.74 32.5936 Q1429.7 32.5936 1426.22 36.4419 Q1422.73 40.2903 1422.73 46.9338 L1422.73 72.576 L1415.24 72.576 L1415.24 27.2059 L1422.73 27.2059 L1422.73 34.2544 Q1425.41 30.163 1429.01 28.1376 Q1432.66 26.1121 1437.4 26.1121 Q1445.21 26.1121 1449.22 30.9732 Q1453.24 35.7938 1453.24 45.1919 Z" fill="#000000" fill-rule="evenodd" fill-opacity="1" /><path clip-path="url(#clip730)" d="M 0 0 M1490.91 34.0924 L1490.91 9.54393 L1498.36 9.54393 L1498.36 72.576 L1490.91 72.576 L1490.91 65.7705 Q1488.56 69.8214 1484.95 71.8063 Q1481.39 73.7508 1476.37 73.7508 Q1468.14 73.7508 1462.96 67.1883 Q1457.81 60.6258 1457.81 49.9314 Q1457.81 39.2371 1462.96 32.6746 Q1468.14 26.1121 1476.37 26.1121 Q1481.39 26.1121 1484.95 28.0971 Q1488.56 30.0415 1490.91 34.0924 M1465.51 49.9314 Q1465.51 58.1548 1468.87 62.8538 Q1472.27 67.5124 1478.19 67.5124 Q1484.1 67.5124 1487.51 62.8538 Q1490.91 58.1548 1490.91 49.9314 Q1490.91 41.7081 1487.51 37.0496 Q1484.1 32.3505 1478.19 32.3505 Q1472.27 32.3505 1468.87 37.0496 Q1465.51 41.7081 1465.51 49.9314 Z" fill="#000000" fill-rule="evenodd" fill-opacity="1" /><path clip-path="url(#clip730)" d="M 0 0 M1541.06 43.6931 L1541.06 65.8515 L1554.18 65.8515 Q1560.79 65.8515 1563.95 63.1374 Q1567.15 60.3828 1567.15 54.752 Q1567.15 49.0808 1563.95 46.4072 Q1560.79 43.6931 1554.18 43.6931 L1541.06 43.6931 M1541.06 18.8205 L1541.06 37.0496 L1553.17 37.0496 Q1559.17 37.0496 1562.08 34.8216 Q1565.04 32.5531 1565.04 27.935 Q1565.04 23.3575 1562.08 21.089 Q1559.17 18.8205 1553.17 18.8205 L1541.06 18.8205 M1532.88 12.096 L1553.78 12.096 Q1563.14 12.096 1568.2 15.9849 Q1573.26 19.8737 1573.26 27.0438 Q1573.26 32.5936 1570.67 35.8748 Q1568.08 39.156 1563.06 39.9662 Q1569.09 41.2625 1572.41 45.3944 Q1575.77 49.4858 1575.77 55.6432 Q1575.77 63.745 1570.27 68.1605 Q1564.76 72.576 1554.59 72.576 L1532.88 72.576 L1532.88 12.096 Z" fill="#000000" fill-rule="evenodd" fill-opacity="1" /><path clip-path="url(#clip730)" d="M 0 0 M1622.4 48.0275 L1622.4 51.6733 L1588.13 51.6733 Q1588.62 59.3701 1592.75 63.421 Q1596.92 67.4314 1604.33 67.4314 Q1608.63 67.4314 1612.64 66.3781 Q1616.69 65.3249 1620.66 63.2184 L1620.66 70.267 Q1616.65 71.9684 1612.44 72.8596 Q1608.22 73.7508 1603.89 73.7508 Q1593.03 73.7508 1586.67 67.4314 Q1580.35 61.1119 1580.35 50.3365 Q1580.35 39.1965 1586.35 32.6746 Q1592.38 26.1121 1602.59 26.1121 Q1611.75 26.1121 1617.05 32.0264 Q1622.4 37.9003 1622.4 48.0275 M1614.95 45.84 Q1614.87 39.7232 1611.5 36.0774 Q1608.18 32.4315 1602.67 32.4315 Q1596.43 32.4315 1592.67 35.9558 Q1588.94 39.4801 1588.37 45.8805 L1614.95 45.84 Z" fill="#000000" fill-rule="evenodd" fill-opacity="1" /><path clip-path="url(#clip730)" d="M 0 0 M1659.14 28.5427 L1659.14 35.5912 Q1655.98 33.9709 1652.58 33.1607 Q1649.18 32.3505 1645.53 32.3505 Q1639.98 32.3505 1637.19 34.0519 Q1634.43 35.7533 1634.43 39.156 Q1634.43 41.7486 1636.42 43.2475 Q1638.4 44.7058 1644.4 46.0426 L1646.95 46.6097 Q1654.89 48.3111 1658.21 51.4303 Q1661.57 54.509 1661.57 60.0587 Q1661.57 66.3781 1656.55 70.0644 Q1651.57 73.7508 1642.82 73.7508 Q1639.17 73.7508 1635.2 73.0216 Q1631.27 72.3329 1626.9 70.9151 L1626.9 63.2184 Q1631.03 65.3654 1635.04 66.4591 Q1639.05 67.5124 1642.98 67.5124 Q1648.25 67.5124 1651.08 65.73 Q1653.92 63.9071 1653.92 60.6258 Q1653.92 57.5877 1651.85 55.9673 Q1649.83 54.3469 1642.9 52.8481 L1640.31 52.2405 Q1633.38 50.7821 1630.3 47.7845 Q1627.22 44.7463 1627.22 39.4801 Q1627.22 33.0797 1631.76 29.5959 Q1636.3 26.1121 1644.64 26.1121 Q1648.77 26.1121 1652.42 26.7198 Q1656.06 27.3274 1659.14 28.5427 Z" fill="#000000" fill-rule="evenodd" fill-opacity="1" /><path clip-path="url(#clip730)" d="M 0 0 M1676.76 14.324 L1676.76 27.2059 L1692.12 27.2059 L1692.12 32.9987 L1676.76 32.9987 L1676.76 57.6282 Q1676.76 63.1779 1678.26 64.7578 Q1679.8 66.3376 1684.46 66.3376 L1692.12 66.3376 L1692.12 72.576 L1684.46 72.576 Q1675.83 72.576 1672.55 69.3758 Q1669.27 66.1351 1669.27 57.6282 L1669.27 32.9987 L1663.8 32.9987 L1663.8 27.2059 L1669.27 27.2059 L1669.27 14.324 L1676.76 14.324 Z" fill="#000000" fill-rule="evenodd" fill-opacity="1" /><path clip-path="url(#clip730)" d="M 0 0 M1726.63 12.096 L1761.39 12.096 L1761.39 18.9825 L1734.81 18.9825 L1734.81 36.8065 L1758.79 36.8065 L1758.79 43.6931 L1734.81 43.6931 L1734.81 72.576 L1726.63 72.576 L1726.63 12.096 Z" fill="#000000" fill-rule="evenodd" fill-opacity="1" /><path clip-path="url(#clip730)" d="M 0 0 M1763.17 27.2059 L1770.62 27.2059 L1770.62 72.576 L1763.17 72.576 L1763.17 27.2059 M1763.17 9.54393 L1770.62 9.54393 L1770.62 18.9825 L1763.17 18.9825 L1763.17 9.54393 Z" fill="#000000" fill-rule="evenodd" fill-opacity="1" /><path clip-path="url(#clip730)" d="M 0 0 M1785.81 14.324 L1785.81 27.2059 L1801.17 27.2059 L1801.17 32.9987 L1785.81 32.9987 L1785.81 57.6282 Q1785.81 63.1779 1787.31 64.7578 Q1788.85 66.3376 1793.51 66.3376 L1801.17 66.3376 L1801.17 72.576 L1793.51 72.576 Q1784.88 72.576 1781.6 69.3758 Q1778.32 66.1351 1778.32 57.6282 L1778.32 32.9987 L1772.85 32.9987 L1772.85 27.2059 L1778.32 27.2059 L1778.32 14.324 L1785.81 14.324 Z" fill="#000000" fill-rule="evenodd" fill-opacity="1" /><polyline clip-path="url(#clip732)" style="stroke:#009af9; stroke-width:4; stroke-opacity:1; fill:none" points="
  743.784,1447.87 743.784,1320.56 769.569,1320.56 769.569,1304.64 795.354,1304.64 795.354,1209.15 821.139,1209.15 846.923,1209.15 846.923,1177.32 
  872.708,1177.32 872.708,1018.18 898.493,1018.18 898.493,1097.75 924.278,1097.75 924.278,970.433 950.063,970.433 950.063,811.287 975.847,811.287 975.847,715.799 
  1001.63,715.799 1001.63,938.604 1027.42,938.604 1027.42,890.86 1053.2,890.86 1053.2,763.543 1078.99,763.543 1078.99,843.116 1104.77,843.116 1104.77,970.433 
  1130.56,970.433 1130.56,1113.67 1156.34,1113.67 1156.34,1209.15 1182.13,1209.15 1182.13,1225.07 1207.91,1225.07 1207.91,1288.73 1233.7,1288.73 1233.7,1368.3 
  1259.48,1368.3 1259.48,1384.21 1285.27,1384.21 1285.27,1336.47 1311.05,1336.47 1311.05,1416.04 1336.83,1416.04 1336.83,1447.87 1362.62,1447.87 
  1388.4,1447.87 1388.4,1416.04 1414.19,1416.04 1439.97,1416.04 1439.97,1384.21 1465.76,1384.21 1465.76,1400.13 1491.54,1400.13 1491.54,1256.9 
  1517.33,1256.9 1543.11,1256.9 1543.11,1034.09 1568.9,1034.09 1568.9,1018.18 1594.68,1018.18 1594.68,859.031 1620.47,859.031 
  1646.25,859.031 1646.25,604.396 1672.04,604.396 1672.04,190.615 1697.82,190.615 1697.82,286.103 1723.61,286.103 1723.61,238.359 1749.39,238.359 
  1775.18,238.359 1775.18,190.615 1800.96,190.615 1800.96,317.932 1826.75,317.932 1826.75,238.359 1852.53,238.359 1852.53,461.164 1878.32,461.164 1878.32,572.567 
  1904.1,572.567 1904.1,763.543 1929.89,763.543 1929.89,986.348 1955.67,986.348 1955.67,1097.75 1981.45,1097.75 1981.45,1209.15 2007.24,1209.15 2007.24,1288.73 
  2033.02,1288.73 2033.02,1384.21 2058.81,1384.21 2058.81,1368.3 2084.59,1368.3 2084.59,1384.21 2110.38,1384.21 2110.38,1400.13 2136.16,1400.13 2136.16,1431.96 
  2161.95,1431.96 2161.95,1416.04 2187.73,1416.04 2187.73,1447.87 2213.52,1447.87 2239.3,1447.87 2265.09,1447.87 
  2290.87,1447.87 
  "/>
<polyline clip-path="url(#clip732)" style="stroke:#e26f46; stroke-width:4; stroke-opacity:1; fill:none" points="
  228.088,1447.87 230.667,1447.87 233.245,1447.87 235.824,1447.87 238.402,1447.87 240.981,1447.87 243.559,1447.87 246.138,1447.87 248.716,1447.87 251.295,1447.87 
  253.873,1447.87 256.451,1447.87 259.03,1447.87 261.608,1447.87 264.187,1447.87 266.765,1447.87 269.344,1447.87 271.922,1447.87 274.501,1447.87 277.079,1447.87 
  279.658,1447.87 282.236,1447.87 284.815,1447.87 287.393,1447.87 289.972,1447.87 292.55,1447.87 295.129,1447.87 297.707,1447.87 300.286,1447.87 302.864,1447.87 
  305.443,1447.87 308.021,1447.87 310.6,1447.87 313.178,1447.87 315.757,1447.87 318.335,1447.87 320.913,1447.87 323.492,1447.87 326.07,1447.87 328.649,1447.87 
  331.227,1447.87 333.806,1447.87 336.384,1447.87 338.963,1447.87 341.541,1447.87 344.12,1447.87 346.698,1447.87 349.277,1447.87 351.855,1447.87 354.434,1447.87 
  357.012,1447.87 359.591,1447.87 362.169,1447.87 364.748,1447.87 367.326,1447.87 369.905,1447.87 372.483,1447.87 375.062,1447.87 377.64,1447.87 380.219,1447.87 
  382.797,1447.87 385.375,1447.87 387.954,1447.87 390.532,1447.86 393.111,1447.86 395.689,1447.86 398.268,1447.86 400.846,1447.86 403.425,1447.86 406.003,1447.86 
  408.582,1447.86 411.16,1447.86 413.739,1447.85 416.317,1447.85 418.896,1447.85 421.474,1447.85 424.053,1447.85 426.631,1447.84 429.21,1447.84 431.788,1447.84 
  434.367,1447.83 436.945,1447.83 439.524,1447.83 442.102,1447.82 444.681,1447.82 447.259,1447.81 449.837,1447.81 452.416,1447.8 454.994,1447.79 457.573,1447.79 
  460.151,1447.78 462.73,1447.77 465.308,1447.76 467.887,1447.75 470.465,1447.74 473.044,1447.73 475.622,1447.72 478.201,1447.71 480.779,1447.69 483.358,1447.68 
  485.936,1447.66 488.515,1447.64 491.093,1447.62 493.672,1447.6 496.25,1447.58 498.829,1447.56 501.407,1447.53 503.986,1447.5 506.564,1447.47 509.143,1447.44 
  511.721,1447.41 514.299,1447.37 516.878,1447.33 519.456,1447.29 522.035,1447.25 524.613,1447.2 527.192,1447.15 529.77,1447.09 532.349,1447.03 534.927,1446.97 
  537.506,1446.9 540.084,1446.83 542.663,1446.75 545.241,1446.67 547.82,1446.58 550.398,1446.48 552.977,1446.38 555.555,1446.28 558.134,1446.16 560.712,1446.04 
  563.291,1445.91 565.869,1445.77 568.448,1445.63 571.026,1445.47 573.605,1445.31 576.183,1445.13 578.762,1444.95 581.34,1444.75 583.918,1444.54 586.497,1444.31 
  589.075,1444.08 591.654,1443.83 594.232,1443.56 596.811,1443.28 599.389,1442.99 601.968,1442.67 604.546,1442.34 607.125,1441.99 609.703,1441.62 612.282,1441.23 
  614.86,1440.82 617.439,1440.39 620.017,1439.93 622.596,1439.44 625.174,1438.94 627.753,1438.4 630.331,1437.84 632.91,1437.24 635.488,1436.62 638.067,1435.96 
  640.645,1435.28 643.224,1434.55 645.802,1433.79 648.38,1433 650.959,1432.16 653.537,1431.29 656.116,1430.37 658.694,1429.41 661.273,1428.41 663.851,1427.36 
  666.43,1426.26 669.008,1425.11 671.587,1423.91 674.165,1422.65 676.744,1421.34 679.322,1419.98 681.901,1418.55 684.479,1417.07 687.058,1415.52 689.636,1413.91 
  692.215,1412.23 694.793,1410.49 697.372,1408.67 699.95,1406.79 702.529,1404.83 705.107,1402.79 707.686,1400.68 710.264,1398.49 712.842,1396.21 715.421,1393.86 
  717.999,1391.42 720.578,1388.89 723.156,1386.27 725.735,1383.57 728.313,1380.77 730.892,1377.87 733.47,1374.89 736.049,1371.8 738.627,1368.62 741.206,1365.33 
  743.784,1361.95 746.363,1358.46 748.941,1354.87 751.52,1351.17 754.098,1347.36 756.677,1343.45 759.255,1339.42 761.834,1335.29 764.412,1331.05 766.991,1326.69 
  769.569,1322.23 772.148,1317.65 774.726,1312.95 777.304,1308.15 779.883,1303.23 782.461,1298.2 785.04,1293.05 787.618,1287.79 790.197,1282.42 792.775,1276.94 
  795.354,1271.35 797.932,1265.64 800.511,1259.83 803.089,1253.91 805.668,1247.88 808.246,1241.75 810.825,1235.52 813.403,1229.18 815.982,1222.74 818.56,1216.21 
  821.139,1209.59 823.717,1202.87 826.296,1196.06 828.874,1189.17 831.453,1182.2 834.031,1175.15 836.61,1168.02 839.188,1160.82 841.766,1153.55 844.345,1146.22 
  846.923,1138.83 849.502,1131.39 852.08,1123.9 854.659,1116.36 857.237,1108.78 859.816,1101.17 862.394,1093.53 864.973,1085.86 867.551,1078.18 870.13,1070.49 
  872.708,1062.78 875.287,1055.08 877.865,1047.39 880.444,1039.71 883.022,1032.04 885.601,1024.41 888.179,1016.8 890.758,1009.24 893.336,1001.72 895.915,994.247 
  898.493,986.839 901.072,979.497 903.65,972.228 906.228,965.039 908.807,957.938 911.385,950.932 913.964,944.026 916.542,937.229 919.121,930.548 921.699,923.988 
  924.278,917.557 926.856,911.263 929.435,905.11 932.013,899.107 934.592,893.259 937.17,887.573 939.749,882.055 942.327,876.711 944.906,871.548 947.484,866.57 
  950.063,861.784 952.641,857.194 955.22,852.807 957.798,848.627 960.377,844.659 962.955,840.907 965.534,837.377 968.112,834.071 970.69,830.994 973.269,828.15 
  975.847,825.542 978.426,823.173 981.004,821.045 983.583,819.162 986.161,817.525 988.74,816.137 991.318,814.998 993.897,814.112 996.475,813.478 999.054,813.097 
  1001.63,812.97 1004.21,813.097 1006.79,813.478 1009.37,814.112 1011.95,814.998 1014.52,816.137 1017.1,817.525 1019.68,819.162 1022.26,821.045 1024.84,823.173 
  1027.42,825.542 1030,828.15 1032.57,830.994 1035.15,834.071 1037.73,837.377 1040.31,840.907 1042.89,844.659 1045.47,848.627 1048.04,852.807 1050.62,857.194 
  1053.2,861.783 1055.78,866.57 1058.36,871.548 1060.94,876.711 1063.52,882.055 1066.09,887.573 1068.67,893.259 1071.25,899.107 1073.83,905.11 1076.41,911.262 
  1078.99,917.557 1081.57,923.987 1084.14,930.547 1086.72,937.228 1089.3,944.025 1091.88,950.931 1094.46,957.937 1097.04,965.038 1099.61,972.226 1102.19,979.495 
  1104.77,986.837 1107.35,994.246 1109.93,1001.71 1112.51,1009.23 1115.09,1016.8 1117.66,1024.4 1120.24,1032.04 1122.82,1039.7 1125.4,1047.39 1127.98,1055.08 
  1130.56,1062.78 1133.13,1070.48 1135.71,1078.17 1138.29,1085.86 1140.87,1093.52 1143.45,1101.16 1146.03,1108.77 1148.61,1116.35 1151.18,1123.89 1153.76,1131.38 
  1156.34,1138.82 1158.92,1146.21 1161.5,1153.54 1164.08,1160.8 1166.65,1168 1169.23,1175.13 1171.81,1182.18 1174.39,1189.15 1176.97,1196.04 1179.55,1202.84 
  1182.13,1209.55 1184.7,1216.18 1187.28,1222.71 1189.86,1229.14 1192.44,1235.47 1195.02,1241.7 1197.6,1247.83 1200.18,1253.85 1202.75,1259.76 1205.33,1265.57 
  1207.91,1271.27 1210.49,1276.85 1213.07,1282.33 1215.65,1287.69 1218.22,1292.94 1220.8,1298.07 1223.38,1303.1 1225.96,1308 1228.54,1312.8 1231.12,1317.47 
  1233.7,1322.04 1236.27,1326.49 1238.85,1330.83 1241.43,1335.05 1244.01,1339.16 1246.59,1343.16 1249.17,1347.05 1251.74,1350.83 1254.32,1354.5 1256.9,1358.07 
  1259.48,1361.52 1262.06,1364.87 1264.64,1368.12 1267.22,1371.26 1269.79,1374.3 1272.37,1377.24 1274.95,1380.08 1277.53,1382.83 1280.11,1385.47 1282.69,1388.03 
  1285.27,1390.49 1287.84,1392.86 1290.42,1395.13 1293,1397.32 1295.58,1399.42 1298.16,1401.44 1300.74,1403.37 1303.31,1405.22 1305.89,1406.99 1308.47,1408.68 
  1311.05,1410.29 1313.63,1411.82 1316.21,1413.27 1318.79,1414.66 1321.36,1415.96 1323.94,1417.2 1326.52,1418.36 1329.1,1419.46 1331.68,1420.49 1334.26,1421.44 
  1336.83,1422.33 1339.41,1423.16 1341.99,1423.92 1344.57,1424.61 1347.15,1425.24 1349.73,1425.81 1352.31,1426.31 1354.88,1426.75 1357.46,1427.12 1360.04,1427.44 
  1362.62,1427.69 1365.2,1427.88 1367.78,1428 1370.35,1428.07 1372.93,1428.07 1375.51,1428 1378.09,1427.87 1380.67,1427.68 1383.25,1427.43 1385.83,1427.1 
  1388.4,1426.71 1390.98,1426.26 1393.56,1425.73 1396.14,1425.13 1398.72,1424.47 1401.3,1423.73 1403.88,1422.91 1406.45,1422.02 1409.03,1421.06 1411.61,1420.01 
  1414.19,1418.88 1416.77,1417.67 1419.35,1416.38 1421.92,1415 1424.5,1413.53 1427.08,1411.96 1429.66,1410.3 1432.24,1408.55 1434.82,1406.7 1437.4,1404.74 
  1439.97,1402.68 1442.55,1400.51 1445.13,1398.23 1447.71,1395.84 1450.29,1393.32 1452.87,1390.69 1455.44,1387.94 1458.02,1385.06 1460.6,1382.05 1463.18,1378.9 
  1465.76,1375.62 1468.34,1372.2 1470.92,1368.63 1473.49,1364.92 1476.07,1361.05 1478.65,1357.03 1481.23,1352.86 1483.81,1348.52 1486.39,1344.01 1488.97,1339.34 
  1491.54,1334.5 1494.12,1329.47 1496.7,1324.27 1499.28,1318.89 1501.86,1313.32 1504.44,1307.56 1507.01,1301.61 1509.59,1295.46 1512.17,1289.11 1514.75,1282.56 
  1517.33,1275.81 1519.91,1268.85 1522.49,1261.68 1525.06,1254.29 1527.64,1246.7 1530.22,1238.88 1532.8,1230.85 1535.38,1222.59 1537.96,1214.11 1540.53,1205.41 
  1543.11,1196.49 1545.69,1187.33 1548.27,1177.96 1550.85,1168.35 1553.43,1158.52 1556.01,1148.46 1558.58,1138.17 1561.16,1127.66 1563.74,1116.92 1566.32,1105.96 
  1568.9,1094.78 1571.48,1083.38 1574.05,1071.75 1576.63,1059.91 1579.21,1047.86 1581.79,1035.6 1584.37,1023.13 1586.95,1010.46 1589.53,997.596 1592.1,984.535 
  1594.68,971.285 1597.26,957.851 1599.84,944.241 1602.42,930.459 1605,916.513 1607.58,902.408 1610.15,888.153 1612.73,873.756 1615.31,859.223 1617.89,844.563 
  1620.47,829.786 1623.05,814.9 1625.62,799.914 1628.2,784.839 1630.78,769.684 1633.36,754.461 1635.94,739.179 1638.52,723.85 1641.1,708.485 1643.67,693.096 
  1646.25,677.694 1648.83,662.293 1651.41,646.904 1653.99,631.541 1656.57,616.215 1659.14,600.94 1661.72,585.73 1664.3,570.598 1666.88,555.557 1669.46,540.621 
  1672.04,525.804 1674.62,511.119 1677.19,496.582 1679.77,482.205 1682.35,468.003 1684.93,453.99 1687.51,440.179 1690.09,426.585 1692.66,413.222 1695.24,400.103 
  1697.82,387.242 1700.4,374.652 1702.98,362.347 1705.56,350.341 1708.14,338.645 1710.71,327.273 1713.29,316.237 1715.87,305.55 1718.45,295.222 1721.03,285.267 
  1723.61,275.694 1726.19,266.515 1728.76,257.741 1731.34,249.381 1733.92,241.445 1736.5,233.942 1739.08,226.88 1741.66,220.269 1744.23,214.116 1746.81,208.427 
  1749.39,203.211 1751.97,198.472 1754.55,194.217 1757.13,190.45 1759.71,187.177 1762.28,184.4 1764.86,182.124 1767.44,180.351 1770.02,179.082 1772.6,178.321 
  1775.18,178.067 1777.75,178.321 1780.33,179.082 1782.91,180.351 1785.49,182.124 1788.07,184.4 1790.65,187.177 1793.23,190.45 1795.8,194.217 1798.38,198.472 
  1800.96,203.211 1803.54,208.427 1806.12,214.116 1808.7,220.269 1811.28,226.88 1813.85,233.942 1816.43,241.445 1819.01,249.381 1821.59,257.741 1824.17,266.516 
  1826.75,275.694 1829.32,285.267 1831.9,295.222 1834.48,305.55 1837.06,316.237 1839.64,327.273 1842.22,338.645 1844.8,350.341 1847.37,362.348 1849.95,374.652 
  1852.53,387.242 1855.11,400.103 1857.69,413.222 1860.27,426.585 1862.84,440.179 1865.42,453.99 1868,468.003 1870.58,482.206 1873.16,496.583 1875.74,511.12 
  1878.32,525.805 1880.89,540.622 1883.47,555.558 1886.05,570.599 1888.63,585.732 1891.21,600.942 1893.79,616.217 1896.36,631.542 1898.94,646.906 1901.52,662.295 
  1904.1,677.697 1906.68,693.098 1909.26,708.488 1911.84,723.853 1914.41,739.182 1916.99,754.464 1919.57,769.688 1922.15,784.844 1924.73,799.919 1927.31,814.905 
  1929.89,829.792 1932.46,844.57 1935.04,859.23 1937.62,873.764 1940.2,888.163 1942.78,902.419 1945.36,916.524 1947.93,930.471 1950.51,944.254 1953.09,957.866 
  1955.67,971.301 1958.25,984.552 1960.83,997.616 1963.41,1010.49 1965.98,1023.16 1968.56,1035.63 1971.14,1047.89 1973.72,1059.95 1976.3,1071.79 1978.88,1083.41 
  1981.45,1094.82 1984.03,1106.01 1986.61,1116.97 1989.19,1127.71 1991.77,1138.23 1994.35,1148.52 1996.93,1158.59 1999.5,1168.42 2002.08,1178.04 2004.66,1187.42 
  2007.24,1196.58 2009.82,1205.51 2012.4,1214.22 2014.97,1222.71 2017.55,1230.98 2020.13,1239.02 2022.71,1246.85 2025.29,1254.46 2027.87,1261.86 2030.45,1269.05 
  2033.02,1276.02 2035.6,1282.79 2038.18,1289.36 2040.76,1295.73 2043.34,1301.9 2045.92,1307.88 2048.5,1313.66 2051.07,1319.26 2053.65,1324.67 2056.23,1329.9 
  2058.81,1334.96 2061.39,1339.84 2063.97,1344.55 2066.54,1349.1 2069.12,1353.48 2071.7,1357.71 2074.28,1361.78 2076.86,1365.7 2079.44,1369.47 2082.02,1373.1 
  2084.59,1376.59 2087.17,1379.95 2089.75,1383.17 2092.33,1386.26 2094.91,1389.23 2097.49,1392.08 2100.06,1394.81 2102.64,1397.43 2105.22,1399.94 2107.8,1402.34 
  2110.38,1404.64 2112.96,1406.84 2115.54,1408.94 2118.11,1410.95 2120.69,1412.87 2123.27,1414.7 2125.85,1416.45 2128.43,1418.12 2131.01,1419.72 2133.59,1421.23 
  2136.16,1422.68 2138.74,1424.06 2141.32,1425.37 2143.9,1426.61 2146.48,1427.8 2149.06,1428.93 2151.63,1430 2154.21,1431.02 2156.79,1431.98 2159.37,1432.9 
  2161.95,1433.77 2164.53,1434.59 2167.11,1435.37 2169.68,1436.11 2172.26,1436.81 2174.84,1437.48 2177.42,1438.1 2180,1438.69 2182.58,1439.26 2185.15,1439.78 
  2187.73,1440.28 2190.31,1440.76 2192.89,1441.2 2195.47,1441.62 2198.05,1442.02 2200.63,1442.39 2203.2,1442.74 2205.78,1443.07 2208.36,1443.38 2210.94,1443.68 
  2213.52,1443.95 2216.1,1444.21 2218.67,1444.45 2221.25,1444.68 2223.83,1444.89 2226.41,1445.1 2228.99,1445.28 2231.57,1445.46 2234.15,1445.63 2236.72,1445.78 
  2239.3,1445.93 2241.88,1446.06 2244.46,1446.19 2247.04,1446.31 2249.62,1446.42 2252.2,1446.52 2254.77,1446.62 2257.35,1446.71 2259.93,1446.79 2262.51,1446.87 
  2265.09,1446.94 2267.67,1447.01 2270.24,1447.08 2272.82,1447.13 2275.4,1447.19 2277.98,1447.24 2280.56,1447.29 2283.14,1447.33 2285.72,1447.37 2288.29,1447.41 
  2290.87,1447.45 
  "/>
<polyline clip-path="url(#clip732)" style="stroke:#3da44d; stroke-width:4; stroke-opacity:1; fill:none" points="
  228.088,1447.87 230.667,1447.87 233.245,1447.87 235.824,1447.87 238.402,1447.87 240.981,1447.87 243.559,1447.87 246.138,1447.87 248.716,1447.87 251.295,1447.87 
  253.873,1447.87 256.451,1447.87 259.03,1447.87 261.608,1447.87 264.187,1447.87 266.765,1447.87 269.344,1447.87 271.922,1447.87 274.501,1447.87 277.079,1447.87 
  279.658,1447.87 282.236,1447.87 284.815,1447.87 287.393,1447.87 289.972,1447.87 292.55,1447.87 295.129,1447.87 297.707,1447.87 300.286,1447.87 302.864,1447.87 
  305.443,1447.87 308.021,1447.87 310.6,1447.87 313.178,1447.87 315.757,1447.87 318.335,1447.87 320.913,1447.87 323.492,1447.87 326.07,1447.87 328.649,1447.87 
  331.227,1447.87 333.806,1447.87 336.384,1447.87 338.963,1447.87 341.541,1447.87 344.12,1447.87 346.698,1447.87 349.277,1447.87 351.855,1447.87 354.434,1447.87 
  357.012,1447.87 359.591,1447.87 362.169,1447.87 364.748,1447.87 367.326,1447.87 369.905,1447.87 372.483,1447.87 375.062,1447.87 377.64,1447.87 380.219,1447.87 
  382.797,1447.87 385.375,1447.87 387.954,1447.87 390.532,1447.87 393.111,1447.87 395.689,1447.87 398.268,1447.87 400.846,1447.87 403.425,1447.87 406.003,1447.86 
  408.582,1447.86 411.16,1447.86 413.739,1447.86 416.317,1447.86 418.896,1447.86 421.474,1447.86 424.053,1447.86 426.631,1447.85 429.21,1447.85 431.788,1447.85 
  434.367,1447.85 436.945,1447.85 439.524,1447.84 442.102,1447.84 444.681,1447.84 447.259,1447.83 449.837,1447.83 452.416,1447.83 454.994,1447.82 457.573,1447.82 
  460.151,1447.81 462.73,1447.81 465.308,1447.8 467.887,1447.8 470.465,1447.79 473.044,1447.78 475.622,1447.77 478.201,1447.76 480.779,1447.75 483.358,1447.74 
  485.936,1447.73 488.515,1447.72 491.093,1447.71 493.672,1447.69 496.25,1447.68 498.829,1447.66 501.407,1447.64 503.986,1447.62 506.564,1447.6 509.143,1447.58 
  511.721,1447.56 514.299,1447.53 516.878,1447.5 519.456,1447.47 522.035,1447.44 524.613,1447.41 527.192,1447.37 529.77,1447.33 532.349,1447.29 534.927,1447.24 
  537.506,1447.19 540.084,1447.14 542.663,1447.08 545.241,1447.02 547.82,1446.96 550.398,1446.89 552.977,1446.81 555.555,1446.73 558.134,1446.65 560.712,1446.56 
  563.291,1446.46 565.869,1446.36 568.448,1446.25 571.026,1446.13 573.605,1446.01 576.183,1445.87 578.762,1445.73 581.34,1445.58 583.918,1445.42 586.497,1445.25 
  589.075,1445.07 591.654,1444.87 594.232,1444.67 596.811,1444.45 599.389,1444.22 601.968,1443.97 604.546,1443.72 607.125,1443.44 609.703,1443.15 612.282,1442.84 
  614.86,1442.51 617.439,1442.17 620.017,1441.8 622.596,1441.42 625.174,1441.01 627.753,1440.58 630.331,1440.13 632.91,1439.65 635.488,1439.15 638.067,1438.61 
  640.645,1438.05 643.224,1437.46 645.802,1436.84 648.38,1436.19 650.959,1435.5 653.537,1434.78 656.116,1434.03 658.694,1433.23 661.273,1432.4 663.851,1431.52 
  666.43,1430.6 669.008,1429.64 671.587,1428.63 674.165,1427.58 676.744,1426.47 679.322,1425.32 681.901,1424.11 684.479,1422.85 687.058,1421.53 689.636,1420.16 
  692.215,1418.72 694.793,1417.22 697.372,1415.66 699.95,1414.03 702.529,1412.34 705.107,1410.58 707.686,1408.74 710.264,1406.83 712.842,1404.85 715.421,1402.78 
  717.999,1400.64 720.578,1398.42 723.156,1396.11 725.735,1393.72 728.313,1391.24 730.892,1388.67 733.47,1386.01 736.049,1383.26 738.627,1380.41 741.206,1377.47 
  743.784,1374.43 746.363,1371.29 748.941,1368.04 751.52,1364.7 754.098,1361.24 756.677,1357.69 759.255,1354.02 761.834,1350.25 764.412,1346.36 766.991,1342.37 
  769.569,1338.26 772.148,1334.04 774.726,1329.7 777.304,1325.25 779.883,1320.69 782.461,1316 785.04,1311.21 787.618,1306.29 790.197,1301.26 792.775,1296.12 
  795.354,1290.85 797.932,1285.47 800.511,1279.98 803.089,1274.37 805.668,1268.65 808.246,1262.81 810.825,1256.87 813.403,1250.81 815.982,1244.64 818.56,1238.37 
  821.139,1231.99 823.717,1225.51 826.296,1218.93 828.874,1212.25 831.453,1205.48 834.031,1198.61 836.61,1191.65 839.188,1184.61 841.766,1177.49 844.345,1170.28 
  846.923,1163 849.502,1155.65 852.08,1148.24 854.659,1140.76 857.237,1133.22 859.816,1125.63 862.394,1118 864.973,1110.32 867.551,1102.6 870.13,1094.85 
  872.708,1087.08 875.287,1079.29 877.865,1071.48 880.444,1063.67 883.022,1055.85 885.601,1048.04 888.179,1040.24 890.758,1032.46 893.336,1024.71 895.915,1016.98 
  898.493,1009.3 901.072,1001.66 903.65,994.077 906.228,986.553 908.807,979.097 911.385,971.715 913.964,964.416 916.542,957.206 919.121,950.093 921.699,943.085 
  924.278,936.187 926.856,929.408 929.435,922.755 932.013,916.235 934.592,909.855 937.17,903.621 939.749,897.542 942.327,891.622 944.906,885.87 947.484,880.291 
  950.063,874.892 952.641,869.679 955.22,864.658 957.798,859.835 960.377,855.215 962.955,850.804 965.534,846.607 968.112,842.629 970.69,838.875 973.269,835.349 
  975.847,832.055 978.426,828.997 981.004,826.18 983.583,823.606 986.161,821.278 988.74,819.2 991.318,817.374 993.897,815.802 996.475,814.486 999.054,813.428 
  1001.63,812.629 1004.21,812.09 1006.79,811.811 1009.37,811.794 1011.95,812.037 1014.52,812.541 1017.1,813.306 1019.68,814.329 1022.26,815.61 1024.84,817.148 
  1027.42,818.94 1030,820.985 1032.57,823.279 1035.15,825.82 1037.73,828.605 1040.31,831.63 1042.89,834.892 1045.47,838.388 1048.04,842.111 1050.62,846.06 
  1053.2,850.228 1055.78,854.61 1058.36,859.202 1060.94,863.998 1063.52,868.993 1066.09,874.18 1068.67,879.555 1071.25,885.11 1073.83,890.839 1076.41,896.736 
  1078.99,902.795 1081.57,909.008 1084.14,915.369 1086.72,921.871 1089.3,928.506 1091.88,935.268 1094.46,942.15 1097.04,949.144 1099.61,956.243 1102.19,963.44 
  1104.77,970.728 1107.35,978.099 1109.93,985.545 1112.51,993.06 1115.09,1000.64 1117.66,1008.27 1120.24,1015.95 1122.82,1023.66 1125.4,1031.41 1127.98,1039.19 
  1130.56,1046.99 1133.13,1054.8 1135.71,1062.61 1138.29,1070.43 1140.87,1078.23 1143.45,1086.03 1146.03,1093.8 1148.61,1101.55 1151.18,1109.27 1153.76,1116.96 
  1156.34,1124.6 1158.92,1132.19 1161.5,1139.73 1164.08,1147.22 1166.65,1154.64 1169.23,1162 1171.81,1169.29 1174.39,1176.5 1176.97,1183.63 1179.55,1190.68 
  1182.13,1197.65 1184.7,1204.53 1187.28,1211.31 1189.86,1218 1192.44,1224.59 1195.02,1231.08 1197.6,1237.47 1200.18,1243.75 1202.75,1249.92 1205.33,1255.99 
  1207.91,1261.94 1210.49,1267.79 1213.07,1273.52 1215.65,1279.13 1218.22,1284.63 1220.8,1290.02 1223.38,1295.28 1225.96,1300.43 1228.54,1305.47 1231.12,1310.38 
  1233.7,1315.18 1236.27,1319.86 1238.85,1324.42 1241.43,1328.87 1244.01,1333.2 1246.59,1337.41 1249.17,1341.51 1251.74,1345.5 1254.32,1349.37 1256.9,1353.12 
  1259.48,1356.77 1262.06,1360.31 1264.64,1363.73 1267.22,1367.05 1269.79,1370.27 1272.37,1373.37 1274.95,1376.38 1277.53,1379.28 1280.11,1382.08 1282.69,1384.77 
  1285.27,1387.38 1287.84,1389.88 1290.42,1392.29 1293,1394.61 1295.58,1396.83 1298.16,1398.97 1300.74,1401.01 1303.31,1402.97 1305.89,1404.84 1308.47,1406.63 
  1311.05,1408.34 1313.63,1409.96 1316.21,1411.5 1318.79,1412.97 1321.36,1414.35 1323.94,1415.66 1326.52,1416.9 1329.1,1418.06 1331.68,1419.15 1334.26,1420.16 
  1336.83,1421.11 1339.41,1421.98 1341.99,1422.79 1344.57,1423.52 1347.15,1424.19 1349.73,1424.79 1352.31,1425.32 1354.88,1425.79 1357.46,1426.19 1360.04,1426.52 
  1362.62,1426.79 1365.2,1426.99 1367.78,1427.12 1370.35,1427.19 1372.93,1427.19 1375.51,1427.12 1378.09,1426.99 1380.67,1426.78 1383.25,1426.51 1385.83,1426.17 
  1388.4,1425.75 1390.98,1425.27 1393.56,1424.71 1396.14,1424.08 1398.72,1423.37 1401.3,1422.58 1403.88,1421.72 1406.45,1420.77 1409.03,1419.74 1411.61,1418.63 
  1414.19,1417.43 1416.77,1416.14 1419.35,1414.77 1421.92,1413.3 1424.5,1411.73 1427.08,1410.07 1429.66,1408.3 1432.24,1406.43 1434.82,1404.46 1437.4,1402.38 
  1439.97,1400.18 1442.55,1397.87 1445.13,1395.45 1447.71,1392.9 1450.29,1390.22 1452.87,1387.42 1455.44,1384.48 1458.02,1381.42 1460.6,1378.21 1463.18,1374.86 
  1465.76,1371.36 1468.34,1367.71 1470.92,1363.92 1473.49,1359.96 1476.07,1355.84 1478.65,1351.56 1481.23,1347.11 1483.81,1342.49 1486.39,1337.69 1488.97,1332.71 
  1491.54,1327.55 1494.12,1322.21 1496.7,1316.67 1499.28,1310.94 1501.86,1305.01 1504.44,1298.88 1507.01,1292.54 1509.59,1286 1512.17,1279.25 1514.75,1272.29 
  1517.33,1265.1 1519.91,1257.7 1522.49,1250.08 1525.06,1242.24 1527.64,1234.17 1530.22,1225.87 1532.8,1217.34 1535.38,1208.58 1537.96,1199.58 1540.53,1190.35 
  1543.11,1180.89 1545.69,1171.19 1548.27,1161.26 1550.85,1151.09 1553.43,1140.68 1556.01,1130.04 1558.58,1119.17 1561.16,1108.06 1563.74,1096.72 1566.32,1085.14 
  1568.9,1073.34 1571.48,1061.32 1574.05,1049.07 1576.63,1036.6 1579.21,1023.92 1581.79,1011.02 1584.37,997.913 1586.95,984.604 1589.53,971.097 1592.1,957.398 
  1594.68,943.511 1597.26,929.444 1599.84,915.204 1602.42,900.796 1605,886.229 1607.58,871.511 1610.15,856.649 1612.73,841.653 1615.31,826.532 1617.89,811.294 
  1620.47,795.951 1623.05,780.511 1625.62,764.986 1628.2,749.387 1630.78,733.724 1633.36,718.01 1635.94,702.256 1638.52,686.474 1641.1,670.677 1643.67,654.878 
  1646.25,639.09 1648.83,623.326 1651.41,607.6 1653.99,591.925 1656.57,576.315 1659.14,560.785 1661.72,545.349 1664.3,530.02 1666.88,514.815 1669.46,499.746 
  1672.04,484.83 1674.62,470.081 1677.19,455.512 1679.77,441.14 1682.35,426.979 1684.93,413.044 1687.51,399.349 1690.09,385.908 1692.66,372.737 1695.24,359.849 
  1697.82,347.258 1700.4,334.978 1702.98,323.023 1705.56,311.406 1708.14,300.14 1710.71,289.239 1713.29,278.713 1715.87,268.576 1718.45,258.84 1721.03,249.515 
  1723.61,240.612 1726.19,232.142 1728.76,224.115 1731.34,216.541 1733.92,209.428 1736.5,202.785 1739.08,196.62 1741.66,190.941 1744.23,185.754 1746.81,181.066 
  1749.39,176.882 1751.97,173.207 1754.55,170.046 1757.13,167.403 1759.71,165.281 1762.28,163.683 1764.86,162.611 1767.44,162.065 1770.02,162.047 1772.6,162.556 
  1775.18,163.593 1777.75,165.155 1780.33,167.241 1782.91,169.849 1785.49,172.974 1788.07,176.614 1790.65,180.763 1793.23,185.417 1795.8,190.57 1798.38,196.216 
  1800.96,202.348 1803.54,208.959 1806.12,216.039 1808.7,223.583 1811.28,231.579 1813.85,240.019 1816.43,248.892 1819.01,258.189 1821.59,267.897 1824.17,278.007 
  1826.75,288.507 1829.32,299.383 1831.9,310.624 1834.48,322.218 1837.06,334.15 1839.64,346.408 1842.22,358.978 1844.8,371.846 1847.37,384.999 1849.95,398.421 
  1852.53,412.1 1855.11,426.019 1857.69,440.165 1860.27,454.523 1862.84,469.079 1865.42,483.816 1868,498.722 1870.58,513.78 1873.16,528.977 1875.74,544.297 
  1878.32,559.727 1880.89,575.251 1883.47,590.856 1886.05,606.527 1888.63,622.251 1891.21,638.013 1893.79,653.8 1896.36,669.599 1898.94,685.396 1901.52,701.18 
  1904.1,716.937 1906.68,732.654 1909.26,748.321 1911.84,763.926 1914.41,779.457 1916.99,794.903 1919.57,810.254 1922.15,825.5 1924.73,840.63 1927.31,855.636 
  1929.89,870.508 1932.46,885.237 1935.04,899.816 1937.62,914.236 1940.2,928.49 1942.78,942.57 1945.36,956.471 1947.93,970.185 1950.51,983.707 1953.09,997.031 
  1955.67,1010.15 1958.25,1023.07 1960.83,1035.77 1963.41,1048.25 1965.98,1060.52 1968.56,1072.57 1971.14,1084.39 1973.72,1095.98 1976.3,1107.34 1978.88,1118.47 
  1981.45,1129.37 1984.03,1140.03 1986.61,1150.46 1989.19,1160.65 1991.77,1170.61 1994.35,1180.33 1996.93,1189.82 1999.5,1199.07 2002.08,1208.09 2004.66,1216.87 
  2007.24,1225.43 2009.82,1233.76 2012.4,1241.86 2014.97,1249.73 2017.55,1257.39 2020.13,1264.82 2022.71,1272.03 2025.29,1279.03 2027.87,1285.82 2030.45,1292.4 
  2033.02,1298.77 2035.6,1304.94 2038.18,1310.91 2040.76,1316.68 2043.34,1322.27 2045.92,1327.66 2048.5,1332.87 2051.07,1337.9 2053.65,1342.76 2056.23,1347.44 
  2058.81,1351.95 2061.39,1356.29 2063.97,1360.48 2066.54,1364.51 2069.12,1368.38 2071.7,1372.11 2074.28,1375.69 2076.86,1379.13 2079.44,1382.43 2082.02,1385.6 
  2084.59,1388.64 2087.17,1391.56 2089.75,1394.35 2092.33,1397.02 2094.91,1399.59 2097.49,1402.04 2100.06,1404.38 2102.64,1406.63 2105.22,1408.77 2107.8,1410.81 
  2110.38,1412.77 2112.96,1414.63 2115.54,1416.41 2118.11,1418.11 2120.69,1419.72 2123.27,1421.26 2125.85,1422.73 2128.43,1424.12 2131.01,1425.45 2133.59,1426.71 
  2136.16,1427.9 2138.74,1429.04 2141.32,1430.12 2143.9,1431.15 2146.48,1432.12 2149.06,1433.04 2151.63,1433.92 2154.21,1434.74 2156.79,1435.53 2159.37,1436.27 
  2161.95,1436.97 2164.53,1437.63 2167.11,1438.26 2169.68,1438.85 2172.26,1439.41 2174.84,1439.94 2177.42,1440.44 2180,1440.91 2182.58,1441.35 2185.15,1441.77 
  2187.73,1442.16 2190.31,1442.53 2192.89,1442.88 2195.47,1443.2 2198.05,1443.51 2200.63,1443.8 2203.2,1444.07 2205.78,1444.33 2208.36,1444.57 2210.94,1444.79 
  2213.52,1445 2216.1,1445.2 2218.67,1445.38 2221.25,1445.55 2223.83,1445.72 2226.41,1445.87 2228.99,1446.01 2231.57,1446.14 2234.15,1446.26 2236.72,1446.38 
  2239.3,1446.49 2241.88,1446.59 2244.46,1446.68 2247.04,1446.77 2249.62,1446.85 2252.2,1446.92 2254.77,1446.99 2257.35,1447.06 2259.93,1447.12 2262.51,1447.18 
  2265.09,1447.23 2267.67,1447.28 2270.24,1447.32 2272.82,1447.37 2275.4,1447.41 2277.98,1447.44 2280.56,1447.48 2283.14,1447.51 2285.72,1447.54 2288.29,1447.56 
  2290.87,1447.59 
  "/>
<path clip-path="url(#clip730)" d="
M1890.92 448.912 L2280.76 448.912 L2280.76 206.992 L1890.92 206.992  Z
  " fill="#ffffff" fill-rule="evenodd" fill-opacity="1"/>
<polyline clip-path="url(#clip730)" style="stroke:#000000; stroke-width:4; stroke-opacity:1; fill:none" points="
  1890.92,448.912 2280.76,448.912 2280.76,206.992 1890.92,206.992 1890.92,448.912 
  "/>
<polyline clip-path="url(#clip730)" style="stroke:#009af9; stroke-width:4; stroke-opacity:1; fill:none" points="
  1914.92,267.472 2058.92,267.472 
  "/>
<path clip-path="url(#clip730)" d="M 0 0 M2087.59 254.035 L2087.59 280.91 L2093.24 280.91 Q2100.4 280.91 2103.71 277.669 Q2107.04 274.428 2107.04 267.437 Q2107.04 260.493 2103.71 257.275 Q2100.4 254.035 2093.24 254.035 L2087.59 254.035 M2082.92 250.192 L2092.53 250.192 Q2102.57 250.192 2107.27 254.382 Q2111.97 258.549 2111.97 267.437 Q2111.97 276.373 2107.25 280.562 Q2102.53 284.752 2092.53 284.752 L2082.92 284.752 L2082.92 250.192 Z" fill="#000000" fill-rule="evenodd" fill-opacity="1" /><path clip-path="url(#clip730)" d="M 0 0 M2128.22 271.72 Q2123.06 271.72 2121.07 272.9 Q2119.08 274.081 2119.08 276.928 Q2119.08 279.197 2120.56 280.539 Q2122.06 281.859 2124.63 281.859 Q2128.17 281.859 2130.3 279.359 Q2132.46 276.836 2132.46 272.669 L2132.46 271.72 L2128.22 271.72 M2136.71 269.961 L2136.71 284.752 L2132.46 284.752 L2132.46 280.817 Q2131 283.178 2128.82 284.312 Q2126.65 285.423 2123.5 285.423 Q2119.52 285.423 2117.15 283.201 Q2114.82 280.956 2114.82 277.206 Q2114.82 272.831 2117.73 270.609 Q2120.67 268.386 2126.48 268.386 L2132.46 268.386 L2132.46 267.97 Q2132.46 265.03 2130.51 263.433 Q2128.59 261.812 2125.09 261.812 Q2122.87 261.812 2120.77 262.345 Q2118.66 262.877 2116.71 263.942 L2116.71 260.007 Q2119.05 259.104 2121.25 258.664 Q2123.45 258.201 2125.53 258.201 Q2131.16 258.201 2133.94 261.118 Q2136.71 264.035 2136.71 269.961 Z" fill="#000000" fill-rule="evenodd" fill-opacity="1" /><path clip-path="url(#clip730)" d="M 0 0 M2145.4 251.465 L2145.4 258.826 L2154.17 258.826 L2154.17 262.137 L2145.4 262.137 L2145.4 276.211 Q2145.4 279.382 2146.25 280.285 Q2147.13 281.187 2149.79 281.187 L2154.17 281.187 L2154.17 284.752 L2149.79 284.752 Q2144.86 284.752 2142.99 282.923 Q2141.11 281.072 2141.11 276.211 L2141.11 262.137 L2137.99 262.137 L2137.99 258.826 L2141.11 258.826 L2141.11 251.465 L2145.4 251.465 Z" fill="#000000" fill-rule="evenodd" fill-opacity="1" /><path clip-path="url(#clip730)" d="M 0 0 M2170.42 271.72 Q2165.26 271.72 2163.27 272.9 Q2161.27 274.081 2161.27 276.928 Q2161.27 279.197 2162.76 280.539 Q2164.26 281.859 2166.83 281.859 Q2170.37 281.859 2172.5 279.359 Q2174.65 276.836 2174.65 272.669 L2174.65 271.72 L2170.42 271.72 M2178.91 269.961 L2178.91 284.752 L2174.65 284.752 L2174.65 280.817 Q2173.2 283.178 2171.02 284.312 Q2168.84 285.423 2165.7 285.423 Q2161.71 285.423 2159.35 283.201 Q2157.02 280.956 2157.02 277.206 Q2157.02 272.831 2159.93 270.609 Q2162.87 268.386 2168.68 268.386 L2174.65 268.386 L2174.65 267.97 Q2174.65 265.03 2172.71 263.433 Q2170.79 261.812 2167.29 261.812 Q2165.07 261.812 2162.96 262.345 Q2160.86 262.877 2158.91 263.942 L2158.91 260.007 Q2161.25 259.104 2163.45 258.664 Q2165.65 258.201 2167.73 258.201 Q2173.36 258.201 2176.14 261.118 Q2178.91 264.035 2178.91 269.961 Z" fill="#000000" fill-rule="evenodd" fill-opacity="1" /><polyline clip-path="url(#clip730)" style="stroke:#e26f46; stroke-width:4; stroke-opacity:1; fill:none" points="
  1914.92,327.952 2058.92,327.952 
  "/>
<path clip-path="url(#clip730)" d="M 0 0 M2082.92 310.672 L2112.15 310.672 L2112.15 314.607 L2099.89 314.607 L2099.89 345.232 L2095.19 345.232 L2095.19 314.607 L2082.92 314.607 L2082.92 310.672 Z" fill="#000000" fill-rule="evenodd" fill-opacity="1" /><path clip-path="url(#clip730)" d="M 0 0 M2124.68 323.288 Q2123.96 322.871 2123.1 322.686 Q2122.27 322.478 2121.25 322.478 Q2117.64 322.478 2115.7 324.839 Q2113.78 327.177 2113.78 331.575 L2113.78 345.232 L2109.49 345.232 L2109.49 319.306 L2113.78 319.306 L2113.78 323.334 Q2115.12 320.973 2117.27 319.839 Q2119.42 318.681 2122.5 318.681 Q2122.94 318.681 2123.47 318.751 Q2124.01 318.797 2124.65 318.913 L2124.68 323.288 Z" fill="#000000" fill-rule="evenodd" fill-opacity="1" /><path clip-path="url(#clip730)" d="M 0 0 M2128.71 335.001 L2128.71 319.306 L2132.96 319.306 L2132.96 334.839 Q2132.96 338.519 2134.4 340.371 Q2135.84 342.2 2138.71 342.2 Q2142.15 342.2 2144.15 340.001 Q2146.16 337.802 2146.16 334.005 L2146.16 319.306 L2150.42 319.306 L2150.42 345.232 L2146.16 345.232 L2146.16 341.251 Q2144.61 343.612 2142.55 344.769 Q2140.51 345.903 2137.8 345.903 Q2133.34 345.903 2131.02 343.126 Q2128.71 340.348 2128.71 335.001 M2139.42 318.681 L2139.42 318.681 Z" fill="#000000" fill-rule="evenodd" fill-opacity="1" /><path clip-path="url(#clip730)" d="M 0 0 M2159.1 311.945 L2159.1 319.306 L2167.87 319.306 L2167.87 322.617 L2159.1 322.617 L2159.1 336.691 Q2159.1 339.862 2159.96 340.765 Q2160.83 341.667 2163.5 341.667 L2167.87 341.667 L2167.87 345.232 L2163.5 345.232 Q2158.57 345.232 2156.69 343.403 Q2154.82 341.552 2154.82 336.691 L2154.82 322.617 L2151.69 322.617 L2151.69 319.306 L2154.82 319.306 L2154.82 311.945 L2159.1 311.945 Z" fill="#000000" fill-rule="evenodd" fill-opacity="1" /><path clip-path="url(#clip730)" d="M 0 0 M2193.89 329.584 L2193.89 345.232 L2189.63 345.232 L2189.63 329.723 Q2189.63 326.042 2188.2 324.214 Q2186.76 322.385 2183.89 322.385 Q2180.44 322.385 2178.45 324.584 Q2176.46 326.783 2176.46 330.579 L2176.46 345.232 L2172.18 345.232 L2172.18 309.214 L2176.46 309.214 L2176.46 323.334 Q2177.99 320.996 2180.05 319.839 Q2182.13 318.681 2184.84 318.681 Q2189.31 318.681 2191.6 321.459 Q2193.89 324.214 2193.89 329.584 Z" fill="#000000" fill-rule="evenodd" fill-opacity="1" /><polyline clip-path="url(#clip730)" style="stroke:#3da44d; stroke-width:4; stroke-opacity:1; fill:none" points="
  1914.92,388.432 2058.92,388.432 
  "/>
<path clip-path="url(#clip730)" d="M 0 0 M2087.59 389.208 L2087.59 401.87 L2095.09 401.87 Q2098.87 401.87 2100.67 400.319 Q2102.5 398.745 2102.5 395.527 Q2102.5 392.286 2100.67 390.759 Q2098.87 389.208 2095.09 389.208 L2087.59 389.208 M2087.59 374.995 L2087.59 385.411 L2094.52 385.411 Q2097.94 385.411 2099.61 384.138 Q2101.3 382.842 2101.3 380.203 Q2101.3 377.587 2099.61 376.291 Q2097.94 374.995 2094.52 374.995 L2087.59 374.995 M2082.92 371.152 L2094.86 371.152 Q2100.21 371.152 2103.1 373.374 Q2106 375.597 2106 379.694 Q2106 382.865 2104.52 384.74 Q2103.03 386.615 2100.16 387.078 Q2103.61 387.819 2105.51 390.18 Q2107.43 392.518 2107.43 396.036 Q2107.43 400.666 2104.28 403.189 Q2101.14 405.712 2095.33 405.712 L2082.92 405.712 L2082.92 371.152 Z" fill="#000000" fill-rule="evenodd" fill-opacity="1" /><path clip-path="url(#clip730)" d="M 0 0 M2134.08 391.684 L2134.08 393.768 L2114.49 393.768 Q2114.77 398.166 2117.13 400.481 Q2119.52 402.772 2123.75 402.772 Q2126.21 402.772 2128.5 402.17 Q2130.81 401.569 2133.08 400.365 L2133.08 404.393 Q2130.79 405.365 2128.38 405.874 Q2125.97 406.383 2123.5 406.383 Q2117.29 406.383 2113.66 402.772 Q2110.05 399.161 2110.05 393.004 Q2110.05 386.638 2113.47 382.911 Q2116.92 379.161 2122.76 379.161 Q2127.99 379.161 2131.02 382.541 Q2134.08 385.897 2134.08 391.684 M2129.82 390.434 Q2129.77 386.939 2127.85 384.856 Q2125.95 382.772 2122.8 382.772 Q2119.24 382.772 2117.09 384.786 Q2114.96 386.8 2114.63 390.458 L2129.82 390.434 Z" fill="#000000" fill-rule="evenodd" fill-opacity="1" /><path clip-path="url(#clip730)" d="M 0 0 M2155.07 380.55 L2155.07 384.578 Q2153.27 383.652 2151.32 383.189 Q2149.38 382.726 2147.29 382.726 Q2144.12 382.726 2142.52 383.698 Q2140.95 384.671 2140.95 386.615 Q2140.95 388.096 2142.09 388.953 Q2143.22 389.786 2146.65 390.55 L2148.1 390.874 Q2152.64 391.846 2154.54 393.629 Q2156.46 395.388 2156.46 398.559 Q2156.46 402.17 2153.59 404.277 Q2150.74 406.383 2145.74 406.383 Q2143.66 406.383 2141.39 405.967 Q2139.15 405.573 2136.65 404.763 L2136.65 400.365 Q2139.01 401.592 2141.3 402.217 Q2143.59 402.819 2145.84 402.819 Q2148.84 402.819 2150.46 401.8 Q2152.09 400.758 2152.09 398.883 Q2152.09 397.147 2150.9 396.221 Q2149.75 395.296 2145.79 394.439 L2144.31 394.092 Q2140.35 393.258 2138.59 391.546 Q2136.83 389.809 2136.83 386.8 Q2136.83 383.143 2139.42 381.152 Q2142.02 379.161 2146.78 379.161 Q2149.15 379.161 2151.23 379.509 Q2153.31 379.856 2155.07 380.55 Z" fill="#000000" fill-rule="evenodd" fill-opacity="1" /><path clip-path="url(#clip730)" d="M 0 0 M2165.14 372.425 L2165.14 379.786 L2173.91 379.786 L2173.91 383.097 L2165.14 383.097 L2165.14 397.171 Q2165.14 400.342 2166 401.245 Q2166.88 402.147 2169.54 402.147 L2173.91 402.147 L2173.91 405.712 L2169.54 405.712 Q2164.61 405.712 2162.73 403.883 Q2160.86 402.032 2160.86 397.171 L2160.86 383.097 L2157.73 383.097 L2157.73 379.786 L2160.86 379.786 L2160.86 372.425 L2165.14 372.425 Z" fill="#000000" fill-rule="evenodd" fill-opacity="1" /><path clip-path="url(#clip730)" d="M 0 0 M2206.58 369.694 L2206.58 373.235 L2202.5 373.235 Q2200.21 373.235 2199.31 374.161 Q2198.43 375.087 2198.43 377.495 L2198.43 379.786 L2205.44 379.786 L2205.44 383.097 L2198.43 383.097 L2198.43 405.712 L2194.15 405.712 L2194.15 383.097 L2190.07 383.097 L2190.07 379.786 L2194.15 379.786 L2194.15 377.981 Q2194.15 373.652 2196.16 371.685 Q2198.17 369.694 2202.55 369.694 L2206.58 369.694 Z" fill="#000000" fill-rule="evenodd" fill-opacity="1" /><path clip-path="url(#clip730)" d="M 0 0 M2211.04 379.786 L2215.3 379.786 L2215.3 405.712 L2211.04 405.712 L2211.04 379.786 M2211.04 369.694 L2215.3 369.694 L2215.3 375.087 L2211.04 375.087 L2211.04 369.694 Z" fill="#000000" fill-rule="evenodd" fill-opacity="1" /><path clip-path="url(#clip730)" d="M 0 0 M2223.98 372.425 L2223.98 379.786 L2232.76 379.786 L2232.76 383.097 L2223.98 383.097 L2223.98 397.171 Q2223.98 400.342 2224.84 401.245 Q2225.72 402.147 2228.38 402.147 L2232.76 402.147 L2232.76 405.712 L2228.38 405.712 Q2223.45 405.712 2221.58 403.883 Q2219.7 402.032 2219.7 397.171 L2219.7 383.097 L2216.58 383.097 L2216.58 379.786 L2219.7 379.786 L2219.7 372.425 L2223.98 372.425 Z" fill="#000000" fill-rule="evenodd" fill-opacity="1" /></svg>
