<?xml version="1.0" encoding="utf-8"?>
<svg xmlns="http://www.w3.org/2000/svg" xmlns:xlink="http://www.w3.org/1999/xlink" width="600" height="400" viewBox="0 0 2400 1600">
<defs>
  <clipPath id="clip590">
    <rect x="0" y="0" width="2400" height="1600"/>
  </clipPath>
</defs>
<path clip-path="url(#clip590)" d="
M0 1600 L2400 1600 L2400 0 L0 0  Z
  " fill="#ffffff" fill-rule="evenodd" fill-opacity="1"/>
<defs>
  <clipPath id="clip591">
    <rect x="480" y="0" width="1681" height="1600"/>
  </clipPath>
</defs>
<path clip-path="url(#clip590)" d="
M172.015 1486.45 L2352.76 1486.45 L2352.76 123.472 L172.015 123.472  Z
  " fill="#ffffff" fill-rule="evenodd" fill-opacity="1"/>
<defs>
  <clipPath id="clip592">
    <rect x="172" y="123" width="2182" height="1364"/>
  </clipPath>
</defs>
<polyline clip-path="url(#clip592)" style="stroke:#000000; stroke-linecap:butt; stroke-linejoin:round; stroke-width:2; stroke-opacity:0.1; fill:none" points="
  233.734,1486.45 233.734,123.472 
  "/>
<polyline clip-path="url(#clip592)" style="stroke:#000000; stroke-linecap:butt; stroke-linejoin:round; stroke-width:2; stroke-opacity:0.1; fill:none" points="
  748.06,1486.45 748.06,123.472 
  "/>
<polyline clip-path="url(#clip592)" style="stroke:#000000; stroke-linecap:butt; stroke-linejoin:round; stroke-width:2; stroke-opacity:0.1; fill:none" points="
  1262.39,1486.45 1262.39,123.472 
  "/>
<polyline clip-path="url(#clip592)" style="stroke:#000000; stroke-linecap:butt; stroke-linejoin:round; stroke-width:2; stroke-opacity:0.1; fill:none" points="
  1776.71,1486.45 1776.71,123.472 
  "/>
<polyline clip-path="url(#clip592)" style="stroke:#000000; stroke-linecap:butt; stroke-linejoin:round; stroke-width:2; stroke-opacity:0.1; fill:none" points="
  2291.04,1486.45 2291.04,123.472 
  "/>
<polyline clip-path="url(#clip590)" style="stroke:#000000; stroke-linecap:butt; stroke-linejoin:round; stroke-width:4; stroke-opacity:1; fill:none" points="
  172.015,1486.45 2352.76,1486.45 
  "/>
<polyline clip-path="url(#clip590)" style="stroke:#000000; stroke-linecap:butt; stroke-linejoin:round; stroke-width:4; stroke-opacity:1; fill:none" points="
  233.734,1486.45 233.734,1467.55 
  "/>
<polyline clip-path="url(#clip590)" style="stroke:#000000; stroke-linecap:butt; stroke-linejoin:round; stroke-width:4; stroke-opacity:1; fill:none" points="
  748.06,1486.45 748.06,1467.55 
  "/>
<polyline clip-path="url(#clip590)" style="stroke:#000000; stroke-linecap:butt; stroke-linejoin:round; stroke-width:4; stroke-opacity:1; fill:none" points="
  1262.39,1486.45 1262.39,1467.55 
  "/>
<polyline clip-path="url(#clip590)" style="stroke:#000000; stroke-linecap:butt; stroke-linejoin:round; stroke-width:4; stroke-opacity:1; fill:none" points="
  1776.71,1486.45 1776.71,1467.55 
  "/>
<polyline clip-path="url(#clip590)" style="stroke:#000000; stroke-linecap:butt; stroke-linejoin:round; stroke-width:4; stroke-opacity:1; fill:none" points="
  2291.04,1486.45 2291.04,1467.55 
  "/>
<path clip-path="url(#clip590)" d="M202.635 1532.02 L232.31 1532.02 L232.31 1535.95 L202.635 1535.95 L202.635 1532.02 Z" fill="#000000" fill-rule="evenodd" fill-opacity="1" /><path clip-path="url(#clip590)" d="M255.25 1518.36 L243.445 1536.81 L255.25 1536.81 L255.25 1518.36 M254.023 1514.29 L259.903 1514.29 L259.903 1536.81 L264.833 1536.81 L264.833 1540.7 L259.903 1540.7 L259.903 1548.85 L255.25 1548.85 L255.25 1540.7 L239.648 1540.7 L239.648 1536.19 L254.023 1514.29 Z" fill="#000000" fill-rule="evenodd" fill-opacity="1" /><path clip-path="url(#clip590)" d="M718.002 1532.02 L747.678 1532.02 L747.678 1535.95 L718.002 1535.95 L718.002 1532.02 Z" fill="#000000" fill-rule="evenodd" fill-opacity="1" /><path clip-path="url(#clip590)" d="M761.798 1544.91 L778.117 1544.91 L778.117 1548.85 L756.173 1548.85 L756.173 1544.91 Q758.835 1542.16 763.418 1537.53 Q768.025 1532.88 769.205 1531.53 Q771.451 1529.01 772.33 1527.27 Q773.233 1525.51 773.233 1523.82 Q773.233 1521.07 771.289 1519.33 Q769.367 1517.6 766.266 1517.6 Q764.066 1517.6 761.613 1518.36 Q759.182 1519.13 756.404 1520.68 L756.404 1515.95 Q759.229 1514.82 761.682 1514.24 Q764.136 1513.66 766.173 1513.66 Q771.543 1513.66 774.738 1516.35 Q777.932 1519.03 777.932 1523.52 Q777.932 1525.65 777.122 1527.57 Q776.335 1529.47 774.228 1532.07 Q773.65 1532.74 770.548 1535.95 Q767.446 1539.15 761.798 1544.91 Z" fill="#000000" fill-rule="evenodd" fill-opacity="1" /><path clip-path="url(#clip590)" d="M1262.39 1517.37 Q1258.77 1517.37 1256.95 1520.93 Q1255.14 1524.47 1255.14 1531.6 Q1255.14 1538.71 1256.95 1542.27 Q1258.77 1545.82 1262.39 1545.82 Q1266.02 1545.82 1267.83 1542.27 Q1269.65 1538.71 1269.65 1531.6 Q1269.65 1524.47 1267.83 1520.93 Q1266.02 1517.37 1262.39 1517.37 M1262.39 1513.66 Q1268.2 1513.66 1271.25 1518.27 Q1274.33 1522.85 1274.33 1531.6 Q1274.33 1540.33 1271.25 1544.94 Q1268.2 1549.52 1262.39 1549.52 Q1256.58 1549.52 1253.5 1544.94 Q1250.44 1540.33 1250.44 1531.6 Q1250.44 1522.85 1253.5 1518.27 Q1256.58 1513.66 1262.39 1513.66 Z" fill="#000000" fill-rule="evenodd" fill-opacity="1" /><path clip-path="url(#clip590)" d="M1771.36 1544.91 L1787.68 1544.91 L1787.68 1548.85 L1765.74 1548.85 L1765.74 1544.91 Q1768.4 1542.16 1772.98 1537.53 Q1777.59 1532.88 1778.77 1531.53 Q1781.02 1529.01 1781.9 1527.27 Q1782.8 1525.51 1782.8 1523.82 Q1782.8 1521.07 1780.85 1519.33 Q1778.93 1517.6 1775.83 1517.6 Q1773.63 1517.6 1771.18 1518.36 Q1768.75 1519.13 1765.97 1520.68 L1765.97 1515.95 Q1768.79 1514.82 1771.25 1514.24 Q1773.7 1513.66 1775.74 1513.66 Q1781.11 1513.66 1784.3 1516.35 Q1787.5 1519.03 1787.5 1523.52 Q1787.5 1525.65 1786.69 1527.57 Q1785.9 1529.47 1783.79 1532.07 Q1783.22 1532.74 1780.11 1535.95 Q1777.01 1539.15 1771.36 1544.91 Z" fill="#000000" fill-rule="evenodd" fill-opacity="1" /><path clip-path="url(#clip590)" d="M2294.05 1518.36 L2282.24 1536.81 L2294.05 1536.81 L2294.05 1518.36 M2292.82 1514.29 L2298.7 1514.29 L2298.7 1536.81 L2303.63 1536.81 L2303.63 1540.7 L2298.7 1540.7 L2298.7 1548.85 L2294.05 1548.85 L2294.05 1540.7 L2278.44 1540.7 L2278.44 1536.19 L2292.82 1514.29 Z" fill="#000000" fill-rule="evenodd" fill-opacity="1" /><polyline clip-path="url(#clip592)" style="stroke:#000000; stroke-linecap:butt; stroke-linejoin:round; stroke-width:2; stroke-opacity:0.1; fill:none" points="
  172.015,1447.87 2352.76,1447.87 
  "/>
<polyline clip-path="url(#clip592)" style="stroke:#000000; stroke-linecap:butt; stroke-linejoin:round; stroke-width:2; stroke-opacity:0.1; fill:none" points="
  172.015,1162.13 2352.76,1162.13 
  "/>
<polyline clip-path="url(#clip592)" style="stroke:#000000; stroke-linecap:butt; stroke-linejoin:round; stroke-width:2; stroke-opacity:0.1; fill:none" points="
  172.015,876.395 2352.76,876.395 
  "/>
<polyline clip-path="url(#clip592)" style="stroke:#000000; stroke-linecap:butt; stroke-linejoin:round; stroke-width:2; stroke-opacity:0.1; fill:none" points="
  172.015,590.656 2352.76,590.656 
  "/>
<polyline clip-path="url(#clip592)" style="stroke:#000000; stroke-linecap:butt; stroke-linejoin:round; stroke-width:2; stroke-opacity:0.1; fill:none" points="
  172.015,304.916 2352.76,304.916 
  "/>
<polyline clip-path="url(#clip590)" style="stroke:#000000; stroke-linecap:butt; stroke-linejoin:round; stroke-width:4; stroke-opacity:1; fill:none" points="
  172.015,1486.45 172.015,123.472 
  "/>
<polyline clip-path="url(#clip590)" style="stroke:#000000; stroke-linecap:butt; stroke-linejoin:round; stroke-width:4; stroke-opacity:1; fill:none" points="
  172.015,1447.87 190.912,1447.87 
  "/>
<polyline clip-path="url(#clip590)" style="stroke:#000000; stroke-linecap:butt; stroke-linejoin:round; stroke-width:4; stroke-opacity:1; fill:none" points="
  172.015,1162.13 190.912,1162.13 
  "/>
<polyline clip-path="url(#clip590)" style="stroke:#000000; stroke-linecap:butt; stroke-linejoin:round; stroke-width:4; stroke-opacity:1; fill:none" points="
  172.015,876.395 190.912,876.395 
  "/>
<polyline clip-path="url(#clip590)" style="stroke:#000000; stroke-linecap:butt; stroke-linejoin:round; stroke-width:4; stroke-opacity:1; fill:none" points="
  172.015,590.656 190.912,590.656 
  "/>
<polyline clip-path="url(#clip590)" style="stroke:#000000; stroke-linecap:butt; stroke-linejoin:round; stroke-width:4; stroke-opacity:1; fill:none" points="
  172.015,304.916 190.912,304.916 
  "/>
<path clip-path="url(#clip590)" d="M124.07 1433.67 Q120.459 1433.67 118.631 1437.24 Q116.825 1440.78 116.825 1447.91 Q116.825 1455.01 118.631 1458.58 Q120.459 1462.12 124.07 1462.12 Q127.705 1462.12 129.51 1458.58 Q131.339 1455.01 131.339 1447.91 Q131.339 1440.78 129.51 1437.24 Q127.705 1433.67 124.07 1433.67 M124.07 1429.97 Q129.881 1429.97 132.936 1434.57 Q136.015 1439.16 136.015 1447.91 Q136.015 1456.63 132.936 1461.24 Q129.881 1465.82 124.07 1465.82 Q118.26 1465.82 115.182 1461.24 Q112.126 1456.63 112.126 1447.91 Q112.126 1439.16 115.182 1434.57 Q118.26 1429.97 124.07 1429.97 Z" fill="#000000" fill-rule="evenodd" fill-opacity="1" /><path clip-path="url(#clip590)" d="M57.7745 1175.48 L74.0939 1175.48 L74.0939 1179.41 L52.1495 1179.41 L52.1495 1175.48 Q54.8115 1172.72 59.3949 1168.09 Q64.0013 1163.44 65.1819 1162.1 Q67.4272 1159.58 68.3068 1157.84 Q69.2096 1156.08 69.2096 1154.39 Q69.2096 1151.64 67.2652 1149.9 Q65.3439 1148.16 62.2421 1148.16 Q60.043 1148.16 57.5893 1148.93 Q55.1588 1149.69 52.381 1151.24 L52.381 1146.52 Q55.2051 1145.39 57.6588 1144.81 Q60.1124 1144.23 62.1495 1144.23 Q67.5198 1144.23 70.7142 1146.91 Q73.9087 1149.6 73.9087 1154.09 Q73.9087 1156.22 73.0985 1158.14 Q72.3115 1160.04 70.205 1162.63 Q69.6263 1163.3 66.5245 1166.52 Q63.4226 1169.71 57.7745 1175.48 Z" fill="#000000" fill-rule="evenodd" fill-opacity="1" /><path clip-path="url(#clip590)" d="M93.9086 1147.93 Q90.2975 1147.93 88.4688 1151.5 Q86.6632 1155.04 86.6632 1162.17 Q86.6632 1169.28 88.4688 1172.84 Q90.2975 1176.38 93.9086 1176.38 Q97.5428 1176.38 99.3483 1172.84 Q101.177 1169.28 101.177 1162.17 Q101.177 1155.04 99.3483 1151.5 Q97.5428 1147.93 93.9086 1147.93 M93.9086 1144.23 Q99.7187 1144.23 102.774 1148.84 Q105.853 1153.42 105.853 1162.17 Q105.853 1170.9 102.774 1175.5 Q99.7187 1180.09 93.9086 1180.09 Q88.0984 1180.09 85.0197 1175.5 Q81.9642 1170.9 81.9642 1162.17 Q81.9642 1153.42 85.0197 1148.84 Q88.0984 1144.23 93.9086 1144.23 Z" fill="#000000" fill-rule="evenodd" fill-opacity="1" /><path clip-path="url(#clip590)" d="M124.07 1147.93 Q120.459 1147.93 118.631 1151.5 Q116.825 1155.04 116.825 1162.17 Q116.825 1169.28 118.631 1172.84 Q120.459 1176.38 124.07 1176.38 Q127.705 1176.38 129.51 1172.84 Q131.339 1169.28 131.339 1162.17 Q131.339 1155.04 129.51 1151.5 Q127.705 1147.93 124.07 1147.93 M124.07 1144.23 Q129.881 1144.23 132.936 1148.84 Q136.015 1153.42 136.015 1162.17 Q136.015 1170.9 132.936 1175.5 Q129.881 1180.09 124.07 1180.09 Q118.26 1180.09 115.182 1175.5 Q112.126 1170.9 112.126 1162.17 Q112.126 1153.42 115.182 1148.84 Q118.26 1144.23 124.07 1144.23 Z" fill="#000000" fill-rule="evenodd" fill-opacity="1" /><path clip-path="url(#clip590)" d="M66.5939 863.189 L54.7884 881.638 L66.5939 881.638 L66.5939 863.189 M65.367 859.115 L71.2466 859.115 L71.2466 881.638 L76.1772 881.638 L76.1772 885.527 L71.2466 885.527 L71.2466 893.675 L66.5939 893.675 L66.5939 885.527 L50.9921 885.527 L50.9921 881.013 L65.367 859.115 Z" fill="#000000" fill-rule="evenodd" fill-opacity="1" /><path clip-path="url(#clip590)" d="M93.9086 862.193 Q90.2975 862.193 88.4688 865.758 Q86.6632 869.3 86.6632 876.43 Q86.6632 883.536 88.4688 887.101 Q90.2975 890.642 93.9086 890.642 Q97.5428 890.642 99.3483 887.101 Q101.177 883.536 101.177 876.43 Q101.177 869.3 99.3483 865.758 Q97.5428 862.193 93.9086 862.193 M93.9086 858.49 Q99.7187 858.49 102.774 863.096 Q105.853 867.68 105.853 876.43 Q105.853 885.156 102.774 889.763 Q99.7187 894.346 93.9086 894.346 Q88.0984 894.346 85.0197 889.763 Q81.9642 885.156 81.9642 876.43 Q81.9642 867.68 85.0197 863.096 Q88.0984 858.49 93.9086 858.49 Z" fill="#000000" fill-rule="evenodd" fill-opacity="1" /><path clip-path="url(#clip590)" d="M124.07 862.193 Q120.459 862.193 118.631 865.758 Q116.825 869.3 116.825 876.43 Q116.825 883.536 118.631 887.101 Q120.459 890.642 124.07 890.642 Q127.705 890.642 129.51 887.101 Q131.339 883.536 131.339 876.43 Q131.339 869.3 129.51 865.758 Q127.705 862.193 124.07 862.193 M124.07 858.49 Q129.881 858.49 132.936 863.096 Q136.015 867.68 136.015 876.43 Q136.015 885.156 132.936 889.763 Q129.881 894.346 124.07 894.346 Q118.26 894.346 115.182 889.763 Q112.126 885.156 112.126 876.43 Q112.126 867.68 115.182 863.096 Q118.26 858.49 124.07 858.49 Z" fill="#000000" fill-rule="evenodd" fill-opacity="1" /><path clip-path="url(#clip590)" d="M64.3254 588.792 Q61.1773 588.792 59.3254 590.945 Q57.4967 593.098 57.4967 596.848 Q57.4967 600.575 59.3254 602.75 Q61.1773 604.903 64.3254 604.903 Q67.4735 604.903 69.3022 602.75 Q71.1541 600.575 71.1541 596.848 Q71.1541 593.098 69.3022 590.945 Q67.4735 588.792 64.3254 588.792 M73.6077 574.14 L73.6077 578.399 Q71.8485 577.565 70.0429 577.126 Q68.2606 576.686 66.5013 576.686 Q61.8717 576.686 59.418 579.811 Q56.9875 582.936 56.6402 589.255 Q58.006 587.241 60.0662 586.176 Q62.1263 585.089 64.6032 585.089 Q69.8115 585.089 72.8207 588.26 Q75.8531 591.408 75.8531 596.848 Q75.8531 602.172 72.705 605.389 Q69.5568 608.607 64.3254 608.607 Q58.33 608.607 55.1588 604.024 Q51.9875 599.417 51.9875 590.69 Q51.9875 582.496 55.8764 577.635 Q59.7652 572.751 66.3161 572.751 Q68.0754 572.751 69.8578 573.098 Q71.6633 573.445 73.6077 574.14 Z" fill="#000000" fill-rule="evenodd" fill-opacity="1" /><path clip-path="url(#clip590)" d="M93.9086 576.454 Q90.2975 576.454 88.4688 580.019 Q86.6632 583.561 86.6632 590.69 Q86.6632 597.797 88.4688 601.362 Q90.2975 604.903 93.9086 604.903 Q97.5428 604.903 99.3483 601.362 Q101.177 597.797 101.177 590.69 Q101.177 583.561 99.3483 580.019 Q97.5428 576.454 93.9086 576.454 M93.9086 572.751 Q99.7187 572.751 102.774 577.357 Q105.853 581.94 105.853 590.69 Q105.853 599.417 102.774 604.024 Q99.7187 608.607 93.9086 608.607 Q88.0984 608.607 85.0197 604.024 Q81.9642 599.417 81.9642 590.69 Q81.9642 581.94 85.0197 577.357 Q88.0984 572.751 93.9086 572.751 Z" fill="#000000" fill-rule="evenodd" fill-opacity="1" /><path clip-path="url(#clip590)" d="M124.07 576.454 Q120.459 576.454 118.631 580.019 Q116.825 583.561 116.825 590.69 Q116.825 597.797 118.631 601.362 Q120.459 604.903 124.07 604.903 Q127.705 604.903 129.51 601.362 Q131.339 597.797 131.339 590.69 Q131.339 583.561 129.51 580.019 Q127.705 576.454 124.07 576.454 M124.07 572.751 Q129.881 572.751 132.936 577.357 Q136.015 581.94 136.015 590.69 Q136.015 599.417 132.936 604.024 Q129.881 608.607 124.07 608.607 Q118.26 608.607 115.182 604.024 Q112.126 599.417 112.126 590.69 Q112.126 581.94 115.182 577.357 Q118.26 572.751 124.07 572.751 Z" fill="#000000" fill-rule="evenodd" fill-opacity="1" /><path clip-path="url(#clip590)" d="M63.7467 305.785 Q60.4134 305.785 58.4921 307.567 Q56.5939 309.349 56.5939 312.474 Q56.5939 315.599 58.4921 317.382 Q60.4134 319.164 63.7467 319.164 Q67.08 319.164 69.0013 317.382 Q70.9226 315.576 70.9226 312.474 Q70.9226 309.349 69.0013 307.567 Q67.1032 305.785 63.7467 305.785 M59.0708 303.794 Q56.0615 303.053 54.3717 300.993 Q52.7051 298.933 52.7051 295.97 Q52.7051 291.826 55.6449 289.419 Q58.6078 287.011 63.7467 287.011 Q68.9087 287.011 71.8485 289.419 Q74.7883 291.826 74.7883 295.97 Q74.7883 298.933 73.0985 300.993 Q71.4318 303.053 68.4457 303.794 Q71.8253 304.581 73.7003 306.872 Q75.5985 309.164 75.5985 312.474 Q75.5985 317.497 72.5198 320.183 Q69.4642 322.868 63.7467 322.868 Q58.0291 322.868 54.9504 320.183 Q51.8949 317.497 51.8949 312.474 Q51.8949 309.164 53.793 306.872 Q55.6912 304.581 59.0708 303.794 M57.3578 296.41 Q57.3578 299.095 59.0245 300.599 Q60.7143 302.104 63.7467 302.104 Q66.7559 302.104 68.4457 300.599 Q70.1587 299.095 70.1587 296.41 Q70.1587 293.724 68.4457 292.22 Q66.7559 290.715 63.7467 290.715 Q60.7143 290.715 59.0245 292.22 Q57.3578 293.724 57.3578 296.41 Z" fill="#000000" fill-rule="evenodd" fill-opacity="1" /><path clip-path="url(#clip590)" d="M93.9086 290.715 Q90.2975 290.715 88.4688 294.28 Q86.6632 297.822 86.6632 304.951 Q86.6632 312.058 88.4688 315.622 Q90.2975 319.164 93.9086 319.164 Q97.5428 319.164 99.3483 315.622 Q101.177 312.058 101.177 304.951 Q101.177 297.822 99.3483 294.28 Q97.5428 290.715 93.9086 290.715 M93.9086 287.011 Q99.7187 287.011 102.774 291.618 Q105.853 296.201 105.853 304.951 Q105.853 313.678 102.774 318.284 Q99.7187 322.868 93.9086 322.868 Q88.0984 322.868 85.0197 318.284 Q81.9642 313.678 81.9642 304.951 Q81.9642 296.201 85.0197 291.618 Q88.0984 287.011 93.9086 287.011 Z" fill="#000000" fill-rule="evenodd" fill-opacity="1" /><path clip-path="url(#clip590)" d="M124.07 290.715 Q120.459 290.715 118.631 294.28 Q116.825 297.822 116.825 304.951 Q116.825 312.058 118.631 315.622 Q120.459 319.164 124.07 319.164 Q127.705 319.164 129.51 315.622 Q131.339 312.058 131.339 304.951 Q131.339 297.822 129.51 294.28 Q127.705 290.715 124.07 290.715 M124.07 287.011 Q129.881 287.011 132.936 291.618 Q136.015 296.201 136.015 304.951 Q136.015 313.678 132.936 318.284 Q129.881 322.868 124.07 322.868 Q118.26 322.868 115.182 318.284 Q112.126 313.678 112.126 304.951 Q112.126 296.201 115.182 291.618 Q118.26 287.011 124.07 287.011 Z" fill="#000000" fill-rule="evenodd" fill-opacity="1" /><path clip-path="url(#clip590)" d="M631.092 18.8205 L631.092 65.8515 L640.977 65.8515 Q653.494 65.8515 659.287 60.1802 Q665.12 54.509 665.12 42.2752 Q665.12 30.1225 659.287 24.4918 Q653.494 18.8205 640.977 18.8205 L631.092 18.8205 M622.91 12.096 L639.721 12.096 Q657.302 12.096 665.525 19.4281 Q673.748 26.7198 673.748 42.2752 Q673.748 57.9117 665.485 65.2439 Q657.221 72.576 639.721 72.576 L622.91 72.576 L622.91 12.096 Z" fill="#000000" fill-rule="evenodd" fill-opacity="1" /><path clip-path="url(#clip590)" d="M707.087 49.7694 Q698.054 49.7694 694.57 51.8354 Q691.086 53.9013 691.086 58.8839 Q691.086 62.8538 693.679 65.2034 Q696.312 67.5124 700.809 67.5124 Q707.006 67.5124 710.733 63.1374 Q714.501 58.7219 714.501 51.4303 L714.501 49.7694 L707.087 49.7694 M721.954 46.6907 L721.954 72.576 L714.501 72.576 L714.501 65.6895 Q711.948 69.8214 708.141 71.8063 Q704.333 73.7508 698.824 73.7508 Q691.856 73.7508 687.724 69.8619 Q683.633 65.9325 683.633 59.3701 Q683.633 51.7138 688.737 47.825 Q693.881 43.9361 704.049 43.9361 L714.501 43.9361 L714.501 43.2069 Q714.501 38.0623 711.098 35.2672 Q707.736 32.4315 701.619 32.4315 Q697.73 32.4315 694.044 33.3632 Q690.357 34.295 686.954 36.1584 L686.954 29.2718 Q691.046 27.692 694.894 26.9223 Q698.743 26.1121 702.388 26.1121 Q712.232 26.1121 717.093 31.2163 Q721.954 36.3204 721.954 46.6907 Z" fill="#000000" fill-rule="evenodd" fill-opacity="1" /><path clip-path="url(#clip590)" d="M744.68 14.324 L744.68 27.2059 L760.033 27.2059 L760.033 32.9987 L744.68 32.9987 L744.68 57.6282 Q744.68 63.1779 746.179 64.7578 Q747.718 66.3376 752.377 66.3376 L760.033 66.3376 L760.033 72.576 L752.377 72.576 Q743.748 72.576 740.467 69.3758 Q737.186 66.1351 737.186 57.6282 L737.186 32.9987 L731.717 32.9987 L731.717 27.2059 L737.186 27.2059 L737.186 14.324 L744.68 14.324 Z" fill="#000000" fill-rule="evenodd" fill-opacity="1" /><path clip-path="url(#clip590)" d="M790.455 49.7694 Q781.422 49.7694 777.938 51.8354 Q774.454 53.9013 774.454 58.8839 Q774.454 62.8538 777.047 65.2034 Q779.68 67.5124 784.176 67.5124 Q790.374 67.5124 794.101 63.1374 Q797.868 58.7219 797.868 51.4303 L797.868 49.7694 L790.455 49.7694 M805.322 46.6907 L805.322 72.576 L797.868 72.576 L797.868 65.6895 Q795.316 69.8214 791.508 71.8063 Q787.7 73.7508 782.191 73.7508 Q775.224 73.7508 771.092 69.8619 Q767 65.9325 767 59.3701 Q767 51.7138 772.104 47.825 Q777.249 43.9361 787.417 43.9361 L797.868 43.9361 L797.868 43.2069 Q797.868 38.0623 794.465 35.2672 Q791.103 32.4315 784.986 32.4315 Q781.097 32.4315 777.411 33.3632 Q773.725 34.295 770.322 36.1584 L770.322 29.2718 Q774.413 27.692 778.262 26.9223 Q782.11 26.1121 785.756 26.1121 Q795.6 26.1121 800.461 31.2163 Q805.322 36.3204 805.322 46.6907 Z" fill="#000000" fill-rule="evenodd" fill-opacity="1" /><path clip-path="url(#clip590)" d="M867.665 49.7694 Q858.632 49.7694 855.148 51.8354 Q851.664 53.9013 851.664 58.8839 Q851.664 62.8538 854.257 65.2034 Q856.89 67.5124 861.386 67.5124 Q867.584 67.5124 871.311 63.1374 Q875.078 58.7219 875.078 51.4303 L875.078 49.7694 L867.665 49.7694 M882.532 46.6907 L882.532 72.576 L875.078 72.576 L875.078 65.6895 Q872.526 69.8214 868.718 71.8063 Q864.911 73.7508 859.401 73.7508 Q852.434 73.7508 848.302 69.8619 Q844.211 65.9325 844.211 59.3701 Q844.211 51.7138 849.315 47.825 Q854.459 43.9361 864.627 43.9361 L875.078 43.9361 L875.078 43.2069 Q875.078 38.0623 871.676 35.2672 Q868.313 32.4315 862.197 32.4315 Q858.308 32.4315 854.621 33.3632 Q850.935 34.295 847.532 36.1584 L847.532 29.2718 Q851.624 27.692 855.472 26.9223 Q859.32 26.1121 862.966 26.1121 Q872.81 26.1121 877.671 31.2163 Q882.532 36.3204 882.532 46.6907 Z" fill="#000000" fill-rule="evenodd" fill-opacity="1" /><path clip-path="url(#clip590)" d="M935.599 45.1919 L935.599 72.576 L928.145 72.576 L928.145 45.4349 Q928.145 38.994 925.634 35.7938 Q923.122 32.5936 918.099 32.5936 Q912.063 32.5936 908.579 36.4419 Q905.096 40.2903 905.096 46.9338 L905.096 72.576 L897.601 72.576 L897.601 27.2059 L905.096 27.2059 L905.096 34.2544 Q907.769 30.163 911.375 28.1376 Q915.02 26.1121 919.76 26.1121 Q927.578 26.1121 931.589 30.9732 Q935.599 35.7938 935.599 45.1919 Z" fill="#000000" fill-rule="evenodd" fill-opacity="1" /><path clip-path="url(#clip590)" d="M980.321 34.0924 L980.321 9.54393 L987.775 9.54393 L987.775 72.576 L980.321 72.576 L980.321 65.7705 Q977.971 69.8214 974.366 71.8063 Q970.801 73.7508 965.778 73.7508 Q957.555 73.7508 952.37 67.1883 Q947.225 60.6258 947.225 49.9314 Q947.225 39.2371 952.37 32.6746 Q957.555 26.1121 965.778 26.1121 Q970.801 26.1121 974.366 28.0971 Q977.971 30.0415 980.321 34.0924 M954.922 49.9314 Q954.922 58.1548 958.284 62.8538 Q961.687 67.5124 967.601 67.5124 Q973.515 67.5124 976.918 62.8538 Q980.321 58.1548 980.321 49.9314 Q980.321 41.7081 976.918 37.0496 Q973.515 32.3505 967.601 32.3505 Q961.687 32.3505 958.284 37.0496 Q954.922 41.7081 954.922 49.9314 Z" fill="#000000" fill-rule="evenodd" fill-opacity="1" /><path clip-path="url(#clip590)" d="M1021.44 12.096 L1072.6 12.096 L1072.6 18.9825 L1051.13 18.9825 L1051.13 72.576 L1042.91 72.576 L1042.91 18.9825 L1021.44 18.9825 L1021.44 12.096 Z" fill="#000000" fill-rule="evenodd" fill-opacity="1" /><path clip-path="url(#clip590)" d="M1094.27 34.1734 Q1093.02 33.4443 1091.52 33.1202 Q1090.06 32.7556 1088.28 32.7556 Q1081.96 32.7556 1078.56 36.8875 Q1075.19 40.9789 1075.19 48.6757 L1075.19 72.576 L1067.7 72.576 L1067.7 27.2059 L1075.19 27.2059 L1075.19 34.2544 Q1077.54 30.1225 1081.31 28.1376 Q1085.08 26.1121 1090.46 26.1121 Q1091.23 26.1121 1092.17 26.2337 Q1093.1 26.3147 1094.23 26.5172 L1094.27 34.1734 Z" fill="#000000" fill-rule="evenodd" fill-opacity="1" /><path clip-path="url(#clip590)" d="M1101.32 54.671 L1101.32 27.2059 L1108.78 27.2059 L1108.78 54.3874 Q1108.78 60.8284 1111.29 64.0691 Q1113.8 67.2693 1118.82 67.2693 Q1124.86 67.2693 1128.34 63.421 Q1131.87 59.5726 1131.87 52.9291 L1131.87 27.2059 L1139.32 27.2059 L1139.32 72.576 L1131.87 72.576 L1131.87 65.6084 Q1129.15 69.7404 1125.55 71.7658 Q1121.98 73.7508 1117.24 73.7508 Q1109.42 73.7508 1105.37 68.8897 Q1101.32 64.0286 1101.32 54.671 M1120.08 26.1121 L1120.08 26.1121 Z" fill="#000000" fill-rule="evenodd" fill-opacity="1" /><path clip-path="url(#clip590)" d="M1193.48 48.0275 L1193.48 51.6733 L1159.21 51.6733 Q1159.69 59.3701 1163.83 63.421 Q1168 67.4314 1175.41 67.4314 Q1179.71 67.4314 1183.72 66.3781 Q1187.77 65.3249 1191.74 63.2184 L1191.74 70.267 Q1187.73 71.9684 1183.51 72.8596 Q1179.3 73.7508 1174.97 73.7508 Q1164.11 73.7508 1157.75 67.4314 Q1151.43 61.1119 1151.43 50.3365 Q1151.43 39.1965 1157.43 32.6746 Q1163.46 26.1121 1173.67 26.1121 Q1182.83 26.1121 1188.13 32.0264 Q1193.48 37.9003 1193.48 48.0275 M1186.03 45.84 Q1185.94 39.7232 1182.58 36.0774 Q1179.26 32.4315 1173.75 32.4315 Q1167.51 32.4315 1163.75 35.9558 Q1160.02 39.4801 1159.45 45.8805 L1186.03 45.84 Z" fill="#000000" fill-rule="evenodd" fill-opacity="1" /><path clip-path="url(#clip590)" d="M1268.66 14.0809 L1268.66 22.0612 Q1264.01 19.8332 1259.87 18.7395 Q1255.74 17.6457 1251.89 17.6457 Q1245.21 17.6457 1241.56 20.2383 Q1237.96 22.8309 1237.96 27.611 Q1237.96 31.6214 1240.35 33.6873 Q1242.78 35.7128 1249.5 36.9686 L1254.45 37.9813 Q1263.6 39.7232 1267.94 44.1387 Q1272.31 48.5136 1272.31 55.8863 Q1272.31 64.6767 1266.4 69.2137 Q1260.52 73.7508 1249.14 73.7508 Q1244.84 73.7508 1239.98 72.7785 Q1235.16 71.8063 1229.98 69.9024 L1229.98 61.4765 Q1234.96 64.2716 1239.74 65.6895 Q1244.52 67.1073 1249.14 67.1073 Q1256.15 67.1073 1259.95 64.3527 Q1263.76 61.598 1263.76 56.4939 Q1263.76 52.0379 1261.01 49.5264 Q1258.29 47.0148 1252.06 45.759 L1247.07 44.7868 Q1237.92 42.9639 1233.83 39.075 Q1229.74 35.1862 1229.74 28.2591 Q1229.74 20.2383 1235.37 15.6203 Q1241.04 11.0023 1250.96 11.0023 Q1255.22 11.0023 1259.63 11.7719 Q1264.05 12.5416 1268.66 14.0809 Z" fill="#000000" fill-rule="evenodd" fill-opacity="1" /><path clip-path="url(#clip590)" d="M1292.12 14.324 L1292.12 27.2059 L1307.47 27.2059 L1307.47 32.9987 L1292.12 32.9987 L1292.12 57.6282 Q1292.12 63.1779 1293.62 64.7578 Q1295.16 66.3376 1299.82 66.3376 L1307.47 66.3376 L1307.47 72.576 L1299.82 72.576 Q1291.19 72.576 1287.91 69.3758 Q1284.62 66.1351 1284.62 57.6282 L1284.62 32.9987 L1279.16 32.9987 L1279.16 27.2059 L1284.62 27.2059 L1284.62 14.324 L1292.12 14.324 Z" fill="#000000" fill-rule="evenodd" fill-opacity="1" /><path clip-path="url(#clip590)" d="M1337.89 49.7694 Q1328.86 49.7694 1325.38 51.8354 Q1321.89 53.9013 1321.89 58.8839 Q1321.89 62.8538 1324.49 65.2034 Q1327.12 67.5124 1331.62 67.5124 Q1337.81 67.5124 1341.54 63.1374 Q1345.31 58.7219 1345.31 51.4303 L1345.31 49.7694 L1337.89 49.7694 M1352.76 46.6907 L1352.76 72.576 L1345.31 72.576 L1345.31 65.6895 Q1342.76 69.8214 1338.95 71.8063 Q1335.14 73.7508 1329.63 73.7508 Q1322.66 73.7508 1318.53 69.8619 Q1314.44 65.9325 1314.44 59.3701 Q1314.44 51.7138 1319.54 47.825 Q1324.69 43.9361 1334.86 43.9361 L1345.31 43.9361 L1345.31 43.2069 Q1345.31 38.0623 1341.9 35.2672 Q1338.54 32.4315 1332.43 32.4315 Q1328.54 32.4315 1324.85 33.3632 Q1321.16 34.295 1317.76 36.1584 L1317.76 29.2718 Q1321.85 27.692 1325.7 26.9223 Q1329.55 26.1121 1333.2 26.1121 Q1343.04 26.1121 1347.9 31.2163 Q1352.76 36.3204 1352.76 46.6907 Z" fill="#000000" fill-rule="evenodd" fill-opacity="1" /><path clip-path="url(#clip590)" d="M1375.49 14.324 L1375.49 27.2059 L1390.84 27.2059 L1390.84 32.9987 L1375.49 32.9987 L1375.49 57.6282 Q1375.49 63.1779 1376.99 64.7578 Q1378.52 66.3376 1383.18 66.3376 L1390.84 66.3376 L1390.84 72.576 L1383.18 72.576 Q1374.55 72.576 1371.27 69.3758 Q1367.99 66.1351 1367.99 57.6282 L1367.99 32.9987 L1362.52 32.9987 L1362.52 27.2059 L1367.99 27.2059 L1367.99 14.324 L1375.49 14.324 Z" fill="#000000" fill-rule="evenodd" fill-opacity="1" /><path clip-path="url(#clip590)" d="M1400.64 27.2059 L1408.1 27.2059 L1408.1 72.576 L1400.64 72.576 L1400.64 27.2059 M1400.64 9.54393 L1408.1 9.54393 L1408.1 18.9825 L1400.64 18.9825 L1400.64 9.54393 Z" fill="#000000" fill-rule="evenodd" fill-opacity="1" /><path clip-path="url(#clip590)" d="M1452.62 28.5427 L1452.62 35.5912 Q1449.46 33.9709 1446.05 33.1607 Q1442.65 32.3505 1439 32.3505 Q1433.46 32.3505 1430.66 34.0519 Q1427.91 35.7533 1427.91 39.156 Q1427.91 41.7486 1429.89 43.2475 Q1431.88 44.7058 1437.87 46.0426 L1440.42 46.6097 Q1448.36 48.3111 1451.68 51.4303 Q1455.05 54.509 1455.05 60.0587 Q1455.05 66.3781 1450.02 70.0644 Q1445.04 73.7508 1436.29 73.7508 Q1432.64 73.7508 1428.67 73.0216 Q1424.75 72.3329 1420.37 70.9151 L1420.37 63.2184 Q1424.5 65.3654 1428.51 66.4591 Q1432.52 67.5124 1436.45 67.5124 Q1441.72 67.5124 1444.55 65.73 Q1447.39 63.9071 1447.39 60.6258 Q1447.39 57.5877 1445.32 55.9673 Q1443.3 54.3469 1436.37 52.8481 L1433.78 52.2405 Q1426.85 50.7821 1423.77 47.7845 Q1420.69 44.7463 1420.69 39.4801 Q1420.69 33.0797 1425.23 29.5959 Q1429.77 26.1121 1438.11 26.1121 Q1442.25 26.1121 1445.89 26.7198 Q1449.54 27.3274 1452.62 28.5427 Z" fill="#000000" fill-rule="evenodd" fill-opacity="1" /><path clip-path="url(#clip590)" d="M1474.29 14.324 L1474.29 27.2059 L1489.64 27.2059 L1489.64 32.9987 L1474.29 32.9987 L1474.29 57.6282 Q1474.29 63.1779 1475.79 64.7578 Q1477.33 66.3376 1481.98 66.3376 L1489.64 66.3376 L1489.64 72.576 L1481.98 72.576 Q1473.36 72.576 1470.08 69.3758 Q1466.79 66.1351 1466.79 57.6282 L1466.79 32.9987 L1461.33 32.9987 L1461.33 27.2059 L1466.79 27.2059 L1466.79 14.324 L1474.29 14.324 Z" fill="#000000" fill-rule="evenodd" fill-opacity="1" /><path clip-path="url(#clip590)" d="M1499.44 27.2059 L1506.9 27.2059 L1506.9 72.576 L1499.44 72.576 L1499.44 27.2059 M1499.44 9.54393 L1506.9 9.54393 L1506.9 18.9825 L1499.44 18.9825 L1499.44 9.54393 Z" fill="#000000" fill-rule="evenodd" fill-opacity="1" /><path clip-path="url(#clip590)" d="M1555.14 28.9478 L1555.14 35.9153 Q1551.98 34.1734 1548.78 33.3227 Q1545.62 32.4315 1542.38 32.4315 Q1535.13 32.4315 1531.12 37.0496 Q1527.11 41.6271 1527.11 49.9314 Q1527.11 58.2358 1531.12 62.8538 Q1535.13 67.4314 1542.38 67.4314 Q1545.62 67.4314 1548.78 66.5807 Q1551.98 65.6895 1555.14 63.9476 L1555.14 70.8341 Q1552.03 72.2924 1548.66 73.0216 Q1545.34 73.7508 1541.57 73.7508 Q1531.32 73.7508 1525.29 67.3098 Q1519.25 60.8689 1519.25 49.9314 Q1519.25 38.832 1525.33 32.472 Q1531.45 26.1121 1542.06 26.1121 Q1545.5 26.1121 1548.78 26.8413 Q1552.07 27.5299 1555.14 28.9478 Z" fill="#000000" fill-rule="evenodd" fill-opacity="1" /><path clip-path="url(#clip590)" d="M1588.73 49.7694 Q1579.69 49.7694 1576.21 51.8354 Q1572.73 53.9013 1572.73 58.8839 Q1572.73 62.8538 1575.32 65.2034 Q1577.95 67.5124 1582.45 67.5124 Q1588.65 67.5124 1592.37 63.1374 Q1596.14 58.7219 1596.14 51.4303 L1596.14 49.7694 L1588.73 49.7694 M1603.59 46.6907 L1603.59 72.576 L1596.14 72.576 L1596.14 65.6895 Q1593.59 69.8214 1589.78 71.8063 Q1585.97 73.7508 1580.46 73.7508 Q1573.49 73.7508 1569.36 69.8619 Q1565.27 65.9325 1565.27 59.3701 Q1565.27 51.7138 1570.38 47.825 Q1575.52 43.9361 1585.69 43.9361 L1596.14 43.9361 L1596.14 43.2069 Q1596.14 38.0623 1592.74 35.2672 Q1589.37 32.4315 1583.26 32.4315 Q1579.37 32.4315 1575.68 33.3632 Q1572 34.295 1568.59 36.1584 L1568.59 29.2718 Q1572.68 27.692 1576.53 26.9223 Q1580.38 26.1121 1584.03 26.1121 Q1593.87 26.1121 1598.73 31.2163 Q1603.59 36.3204 1603.59 46.6907 Z" fill="#000000" fill-rule="evenodd" fill-opacity="1" /><path clip-path="url(#clip590)" d="M1618.95 9.54393 L1626.4 9.54393 L1626.4 72.576 L1618.95 72.576 L1618.95 9.54393 Z" fill="#000000" fill-rule="evenodd" fill-opacity="1" /><path clip-path="url(#clip590)" d="M1668.69 12.096 L1680.88 12.096 L1696.32 53.2532 L1711.83 12.096 L1724.03 12.096 L1724.03 72.576 L1716.05 72.576 L1716.05 19.4686 L1700.45 60.9499 L1692.23 60.9499 L1676.63 19.4686 L1676.63 72.576 L1668.69 72.576 L1668.69 12.096 Z" fill="#000000" fill-rule="evenodd" fill-opacity="1" /><path clip-path="url(#clip590)" d="M1757.53 32.4315 Q1751.53 32.4315 1748.05 37.1306 Q1744.56 41.7891 1744.56 49.9314 Q1744.56 58.0738 1748.01 62.7728 Q1751.49 67.4314 1757.53 67.4314 Q1763.48 67.4314 1766.97 62.7323 Q1770.45 58.0333 1770.45 49.9314 Q1770.45 41.8701 1766.97 37.1711 Q1763.48 32.4315 1757.53 32.4315 M1757.53 26.1121 Q1767.25 26.1121 1772.8 32.4315 Q1778.35 38.7509 1778.35 49.9314 Q1778.35 61.0714 1772.8 67.4314 Q1767.25 73.7508 1757.53 73.7508 Q1747.76 73.7508 1742.21 67.4314 Q1736.71 61.0714 1736.71 49.9314 Q1736.71 38.7509 1742.21 32.4315 Q1747.76 26.1121 1757.53 26.1121 Z" fill="#000000" fill-rule="evenodd" fill-opacity="1" /><path clip-path="url(#clip590)" d="M1820.56 34.0924 L1820.56 9.54393 L1828.01 9.54393 L1828.01 72.576 L1820.56 72.576 L1820.56 65.7705 Q1818.21 69.8214 1814.6 71.8063 Q1811.04 73.7508 1806.02 73.7508 Q1797.79 73.7508 1792.61 67.1883 Q1787.46 60.6258 1787.46 49.9314 Q1787.46 39.2371 1792.61 32.6746 Q1797.79 26.1121 1806.02 26.1121 Q1811.04 26.1121 1814.6 28.0971 Q1818.21 30.0415 1820.56 34.0924 M1795.16 49.9314 Q1795.16 58.1548 1798.52 62.8538 Q1801.93 67.5124 1807.84 67.5124 Q1813.75 67.5124 1817.16 62.8538 Q1820.56 58.1548 1820.56 49.9314 Q1820.56 41.7081 1817.16 37.0496 Q1813.75 32.3505 1807.84 32.3505 Q1801.93 32.3505 1798.52 37.0496 Q1795.16 41.7081 1795.16 49.9314 Z" fill="#000000" fill-rule="evenodd" fill-opacity="1" /><path clip-path="url(#clip590)" d="M1882.17 48.0275 L1882.17 51.6733 L1847.9 51.6733 Q1848.39 59.3701 1852.52 63.421 Q1856.69 67.4314 1864.11 67.4314 Q1868.4 67.4314 1872.41 66.3781 Q1876.46 65.3249 1880.43 63.2184 L1880.43 70.267 Q1876.42 71.9684 1872.21 72.8596 Q1868 73.7508 1863.66 73.7508 Q1852.8 73.7508 1846.44 67.4314 Q1840.13 61.1119 1840.13 50.3365 Q1840.13 39.1965 1846.12 32.6746 Q1852.16 26.1121 1862.36 26.1121 Q1871.52 26.1121 1876.83 32.0264 Q1882.17 37.9003 1882.17 48.0275 M1874.72 45.84 Q1874.64 39.7232 1871.28 36.0774 Q1867.96 32.4315 1862.45 32.4315 Q1856.21 32.4315 1852.44 35.9558 Q1848.71 39.4801 1848.15 45.8805 L1874.72 45.84 Z" fill="#000000" fill-rule="evenodd" fill-opacity="1" /><path clip-path="url(#clip590)" d="M1894.41 9.54393 L1901.86 9.54393 L1901.86 72.576 L1894.41 72.576 L1894.41 9.54393 Z" fill="#000000" fill-rule="evenodd" fill-opacity="1" /><polyline clip-path="url(#clip592)" style="stroke:#009af9; stroke-linecap:butt; stroke-linejoin:round; stroke-width:4; stroke-opacity:1; fill:none" points="
  748.06,1447.87 748.06,1347.86 773.776,1347.86 773.776,1333.58 799.492,1333.58 799.492,1219.28 825.208,1219.28 825.208,1176.42 850.925,1176.42 850.925,1119.27 
  876.641,1119.27 902.357,1119.27 902.357,1076.41 928.074,1076.41 928.074,804.96 953.79,804.96 953.79,1004.98 979.506,1004.98 979.506,847.821 
  1005.22,847.821 1005.22,962.117 1030.94,962.117 1056.66,962.117 1056.66,833.534 1082.37,833.534 1082.37,1033.55 1108.09,1033.55 1108.09,1076.41 
  1133.8,1076.41 1133.8,1204.99 1159.52,1204.99 1159.52,1176.42 1185.24,1176.42 1185.24,1290.72 1210.95,1290.72 1210.95,1305 1236.67,1305 1236.67,1376.44 
  1262.39,1376.44 1262.39,1319.29 1288.1,1319.29 1288.1,1419.3 1313.82,1419.3 1313.82,1447.87 1339.53,1447.87 1339.53,1405.01 1365.25,1405.01 1365.25,1447.87 
  1390.97,1447.87 1416.68,1447.87 1416.68,1390.73 1442.4,1390.73 1442.4,1347.86 1468.12,1347.86 1468.12,1333.58 1493.83,1333.58 1493.83,1305 
  1519.55,1305 1519.55,1247.86 1545.26,1247.86 1545.26,1204.99 1570.98,1204.99 1570.98,1076.41 1596.7,1076.41 1596.7,904.969 1622.41,904.969 1622.41,833.534 
  1648.13,833.534 1648.13,562.082 1673.85,562.082 1673.85,647.803 1699.56,647.803 1699.56,576.369 1725.28,576.369 1725.28,190.621 1750.99,190.621 1750.99,219.195 
  1776.71,219.195 1776.71,319.203 1802.43,319.203 1802.43,162.047 1828.14,162.047 1828.14,704.951 1853.86,704.951 1853.86,619.23 1879.58,619.23 1879.58,704.951 
  1905.29,704.951 1905.29,833.534 1931.01,833.534 1931.01,1004.98 1956.73,1004.98 1956.73,1076.41 1982.44,1076.41 1982.44,1176.42 2008.16,1176.42 2008.16,1319.29 
  2033.87,1319.29 2033.87,1347.86 2059.59,1347.86 2059.59,1362.15 2085.31,1362.15 2085.31,1419.3 2111.02,1419.3 2111.02,1405.01 2136.74,1405.01 2136.74,1447.87 
  2162.46,1447.87 2188.17,1447.87 2188.17,1433.59 2213.89,1433.59 2239.6,1433.59 2239.6,1447.87 2265.32,1447.87 
  2291.04,1447.87 
  "/>
<polyline clip-path="url(#clip592)" style="stroke:#e26f46; stroke-linecap:butt; stroke-linejoin:round; stroke-width:4; stroke-opacity:1; fill:none" points="
  233.734,1447.87 236.306,1447.87 238.877,1447.87 241.449,1447.87 244.02,1447.87 246.592,1447.87 249.164,1447.87 251.735,1447.87 254.307,1447.87 256.879,1447.87 
  259.45,1447.87 262.022,1447.87 264.593,1447.87 267.165,1447.87 269.737,1447.87 272.308,1447.87 274.88,1447.87 277.452,1447.87 280.023,1447.87 282.595,1447.87 
  285.166,1447.87 287.738,1447.87 290.31,1447.87 292.881,1447.87 295.453,1447.87 298.025,1447.87 300.596,1447.87 303.168,1447.87 305.74,1447.87 308.311,1447.87 
  310.883,1447.87 313.454,1447.87 316.026,1447.87 318.598,1447.87 321.169,1447.87 323.741,1447.87 326.313,1447.87 328.884,1447.87 331.456,1447.87 334.027,1447.87 
  336.599,1447.87 339.171,1447.87 341.742,1447.87 344.314,1447.87 346.886,1447.87 349.457,1447.87 352.029,1447.87 354.6,1447.87 357.172,1447.87 359.744,1447.87 
  362.315,1447.87 364.887,1447.87 367.459,1447.87 370.03,1447.87 372.602,1447.87 375.173,1447.87 377.745,1447.87 380.317,1447.87 382.888,1447.87 385.46,1447.87 
  388.032,1447.87 390.603,1447.87 393.175,1447.87 395.747,1447.87 398.318,1447.86 400.89,1447.86 403.461,1447.86 406.033,1447.86 408.605,1447.86 411.176,1447.86 
  413.748,1447.86 416.32,1447.86 418.891,1447.86 421.463,1447.85 424.034,1447.85 426.606,1447.85 429.178,1447.85 431.749,1447.85 434.321,1447.84 436.893,1447.84 
  439.464,1447.84 442.036,1447.83 444.607,1447.83 447.179,1447.83 449.751,1447.82 452.322,1447.82 454.894,1447.81 457.466,1447.81 460.037,1447.8 462.609,1447.8 
  465.18,1447.79 467.752,1447.78 470.324,1447.77 472.895,1447.76 475.467,1447.76 478.039,1447.75 480.61,1447.73 483.182,1447.72 485.754,1447.71 488.325,1447.7 
  490.897,1447.68 493.468,1447.67 496.04,1447.65 498.612,1447.63 501.183,1447.61 503.755,1447.59 506.327,1447.57 508.898,1447.54 511.47,1447.52 514.041,1447.49 
  516.613,1447.46 519.185,1447.42 521.756,1447.39 524.328,1447.35 526.9,1447.31 529.471,1447.27 532.043,1447.22 534.614,1447.17 537.186,1447.12 539.758,1447.06 
  542.329,1447 544.901,1446.93 547.473,1446.86 550.044,1446.79 552.616,1446.71 555.187,1446.63 557.759,1446.54 560.331,1446.44 562.902,1446.34 565.474,1446.23 
  568.046,1446.11 570.617,1445.99 573.189,1445.86 575.761,1445.72 578.332,1445.57 580.904,1445.41 583.475,1445.24 586.047,1445.07 588.619,1444.88 591.19,1444.68 
  593.762,1444.47 596.334,1444.24 598.905,1444 601.477,1443.75 604.048,1443.49 606.62,1443.21 609.192,1442.91 611.763,1442.59 614.335,1442.26 616.907,1441.91 
  619.478,1441.54 622.05,1441.15 624.621,1440.74 627.193,1440.31 629.765,1439.85 632.336,1439.37 634.908,1438.86 637.48,1438.33 640.051,1437.77 642.623,1437.18 
  645.194,1436.56 647.766,1435.92 650.338,1435.23 652.909,1434.52 655.481,1433.77 658.053,1432.98 660.624,1432.16 663.196,1431.3 665.768,1430.4 668.339,1429.45 
  670.911,1428.47 673.482,1427.44 676.054,1426.36 678.626,1425.23 681.197,1424.06 683.769,1422.83 686.341,1421.55 688.912,1420.22 691.484,1418.83 694.055,1417.38 
  696.627,1415.88 699.199,1414.31 701.77,1412.68 704.342,1410.99 706.914,1409.23 709.485,1407.4 712.057,1405.51 714.628,1403.54 717.2,1401.5 719.772,1399.38 
  722.343,1397.19 724.915,1394.92 727.487,1392.57 730.058,1390.14 732.63,1387.63 735.201,1385.03 737.773,1382.35 740.345,1379.58 742.916,1376.72 745.488,1373.78 
  748.06,1370.74 750.631,1367.6 753.203,1364.38 755.775,1361.06 758.346,1357.64 760.918,1354.13 763.489,1350.52 766.061,1346.81 768.633,1343 771.204,1339.09 
  773.776,1335.08 776.348,1330.97 778.919,1326.75 781.491,1322.44 784.062,1318.02 786.634,1313.51 789.206,1308.89 791.777,1304.17 794.349,1299.34 796.921,1294.42 
  799.492,1289.4 802.064,1284.28 804.635,1279.06 807.207,1273.75 809.779,1268.34 812.35,1262.83 814.922,1257.23 817.494,1251.55 820.065,1245.77 822.637,1239.91 
  825.208,1233.96 827.78,1227.93 830.352,1221.82 832.923,1215.63 835.495,1209.37 838.067,1203.04 840.638,1196.64 843.21,1190.18 845.782,1183.65 848.353,1177.07 
  850.925,1170.44 853.496,1163.76 856.068,1157.03 858.64,1150.26 861.211,1143.46 863.783,1136.63 866.355,1129.77 868.926,1122.89 871.498,1115.99 874.069,1109.08 
  876.641,1102.17 879.213,1095.26 881.784,1088.35 884.356,1081.45 886.928,1074.57 889.499,1067.72 892.071,1060.89 894.642,1054.1 897.214,1047.35 899.786,1040.64 
  902.357,1033.99 904.929,1027.4 907.501,1020.88 910.072,1014.42 912.644,1008.05 915.215,1001.76 917.787,995.558 920.359,989.456 922.93,983.458 925.502,977.569 
  928.074,971.797 930.645,966.146 933.217,960.622 935.789,955.233 938.36,949.983 940.932,944.879 943.503,939.925 946.075,935.128 948.647,930.493 951.218,926.024 
  953.79,921.727 956.362,917.607 958.933,913.669 961.505,909.916 964.076,906.354 966.648,902.986 969.22,899.816 971.791,896.849 974.363,894.087 976.935,891.534 
  979.506,889.192 982.078,887.065 984.649,885.155 987.221,883.464 989.793,881.995 992.364,880.749 994.936,879.727 997.508,878.931 1000.08,878.362 1002.65,878.02 
  1005.22,877.906 1007.79,878.02 1010.37,878.362 1012.94,878.931 1015.51,879.727 1018.08,880.749 1020.65,881.995 1023.22,883.464 1025.8,885.155 1028.37,887.065 
  1030.94,889.192 1033.51,891.534 1036.08,894.087 1038.65,896.849 1041.23,899.816 1043.8,902.986 1046.37,906.354 1048.94,909.916 1051.51,913.668 1054.08,917.607 
  1056.66,921.727 1059.23,926.024 1061.8,930.492 1064.37,935.128 1066.94,939.925 1069.51,944.879 1072.08,949.983 1074.66,955.233 1077.23,960.622 1079.8,966.145 
  1082.37,971.796 1084.94,977.569 1087.51,983.457 1090.09,989.456 1092.66,995.557 1095.23,1001.76 1097.8,1008.05 1100.37,1014.42 1102.94,1020.87 1105.52,1027.4 
  1108.09,1033.99 1110.66,1040.64 1113.23,1047.35 1115.8,1054.1 1118.37,1060.89 1120.95,1067.72 1123.52,1074.57 1126.09,1081.45 1128.66,1088.35 1131.23,1095.25 
  1133.8,1102.17 1136.38,1109.08 1138.95,1115.99 1141.52,1122.88 1144.09,1129.76 1146.66,1136.62 1149.23,1143.45 1151.81,1150.26 1154.38,1157.02 1156.95,1163.75 
  1159.52,1170.43 1162.09,1177.06 1164.66,1183.64 1167.24,1190.16 1169.81,1196.62 1172.38,1203.02 1174.95,1209.35 1177.52,1215.61 1180.09,1221.79 1182.66,1227.9 
  1185.24,1233.93 1187.81,1239.87 1190.38,1245.74 1192.95,1251.51 1195.52,1257.19 1198.09,1262.79 1200.67,1268.29 1203.24,1273.69 1205.81,1279 1208.38,1284.22 
  1210.95,1289.33 1213.52,1294.34 1216.1,1299.26 1218.67,1304.07 1221.24,1308.79 1223.81,1313.4 1226.38,1317.9 1228.95,1322.31 1231.53,1326.61 1234.1,1330.81 
  1236.67,1334.91 1239.24,1338.9 1241.81,1342.8 1244.38,1346.59 1246.96,1350.28 1249.53,1353.87 1252.1,1357.36 1254.67,1360.76 1257.24,1364.05 1259.81,1367.25 
  1262.39,1370.35 1264.96,1373.36 1267.53,1376.28 1270.1,1379.1 1272.67,1381.83 1275.24,1384.47 1277.82,1387.02 1280.39,1389.48 1282.96,1391.86 1285.53,1394.15 
  1288.1,1396.36 1290.67,1398.48 1293.24,1400.53 1295.82,1402.49 1298.39,1404.38 1300.96,1406.19 1303.53,1407.92 1306.1,1409.58 1308.67,1411.17 1311.25,1412.68 
  1313.82,1414.13 1316.39,1415.51 1318.96,1416.81 1321.53,1418.05 1324.1,1419.23 1326.68,1420.34 1329.25,1421.38 1331.82,1422.37 1334.39,1423.29 1336.96,1424.15 
  1339.53,1424.95 1342.11,1425.69 1344.68,1426.37 1347.25,1426.99 1349.82,1427.56 1352.39,1428.06 1354.96,1428.51 1357.54,1428.91 1360.11,1429.25 1362.68,1429.53 
  1365.25,1429.75 1367.82,1429.92 1370.39,1430.03 1372.97,1430.09 1375.54,1430.09 1378.11,1430.03 1380.68,1429.92 1383.25,1429.75 1385.82,1429.52 1388.4,1429.23 
  1390.97,1428.88 1393.54,1428.47 1396.11,1428 1398.68,1427.46 1401.25,1426.86 1403.82,1426.2 1406.4,1425.47 1408.97,1424.67 1411.54,1423.8 1414.11,1422.86 
  1416.68,1421.85 1419.25,1420.76 1421.83,1419.6 1424.4,1418.36 1426.97,1417.04 1429.54,1415.64 1432.11,1414.15 1434.68,1412.57 1437.26,1410.91 1439.83,1409.15 
  1442.4,1407.3 1444.97,1405.35 1447.54,1403.31 1450.11,1401.16 1452.69,1398.9 1455.26,1396.54 1457.83,1394.07 1460.4,1391.48 1462.97,1388.78 1465.54,1385.96 
  1468.12,1383.01 1470.69,1379.94 1473.26,1376.74 1475.83,1373.4 1478.4,1369.93 1480.97,1366.32 1483.55,1362.57 1486.12,1358.68 1488.69,1354.64 1491.26,1350.44 
  1493.83,1346.09 1496.4,1341.58 1498.98,1336.91 1501.55,1332.08 1504.12,1327.08 1506.69,1321.91 1509.26,1316.57 1511.83,1311.05 1514.4,1305.35 1516.98,1299.47 
  1519.55,1293.41 1522.12,1287.16 1524.69,1280.72 1527.26,1274.09 1529.83,1267.27 1532.41,1260.26 1534.98,1253.04 1537.55,1245.63 1540.12,1238.02 1542.69,1230.21 
  1545.26,1222.2 1547.84,1213.98 1550.41,1205.56 1552.98,1196.94 1555.55,1188.11 1558.12,1179.08 1560.69,1169.85 1563.27,1160.41 1565.84,1150.77 1568.41,1140.93 
  1570.98,1130.89 1573.55,1120.66 1576.12,1110.22 1578.7,1099.59 1581.27,1088.78 1583.84,1077.77 1586.41,1066.58 1588.98,1055.2 1591.55,1043.65 1594.13,1031.92 
  1596.7,1020.03 1599.27,1007.97 1601.84,995.751 1604.41,983.379 1606.98,970.859 1609.56,958.197 1612.13,945.4 1614.7,932.475 1617.27,919.428 1619.84,906.268 
  1622.41,893.002 1624.99,879.638 1627.56,866.185 1630.13,852.652 1632.7,839.047 1635.27,825.381 1637.84,811.662 1640.41,797.9 1642.99,784.107 1645.56,770.292 
  1648.13,756.466 1650.7,742.64 1653.27,728.825 1655.84,715.033 1658.42,701.274 1660.99,687.562 1663.56,673.908 1666.13,660.323 1668.7,646.82 1671.27,633.412 
  1673.85,620.11 1676.42,606.928 1678.99,593.877 1681.56,580.971 1684.13,568.221 1686.7,555.641 1689.28,543.243 1691.85,531.039 1694.42,519.043 1696.99,507.265 
  1699.56,495.72 1702.13,484.418 1704.71,473.372 1707.28,462.593 1709.85,452.093 1712.42,441.884 1714.99,431.977 1717.56,422.383 1720.14,413.112 1722.71,404.175 
  1725.28,395.581 1727.85,387.341 1730.42,379.464 1732.99,371.959 1735.57,364.834 1738.14,358.099 1740.71,351.76 1743.28,345.825 1745.85,340.301 1748.42,335.194 
  1750.99,330.511 1753.57,326.257 1756.14,322.437 1758.71,319.056 1761.28,316.117 1763.85,313.624 1766.42,311.581 1769,309.989 1771.57,308.85 1774.14,308.167 
  1776.71,307.939 1779.28,308.167 1781.85,308.85 1784.43,309.989 1787,311.581 1789.57,313.624 1792.14,316.117 1794.71,319.056 1797.28,322.437 1799.86,326.257 
  1802.43,330.511 1805,335.194 1807.57,340.301 1810.14,345.825 1812.71,351.76 1815.29,358.099 1817.86,364.834 1820.43,371.959 1823,379.464 1825.57,387.341 
  1828.14,395.581 1830.72,404.175 1833.29,413.112 1835.86,422.383 1838.43,431.977 1841,441.885 1843.57,452.094 1846.15,462.593 1848.72,473.372 1851.29,484.418 
  1853.86,495.72 1856.43,507.266 1859,519.043 1861.57,531.04 1864.15,543.243 1866.72,555.641 1869.29,568.222 1871.86,580.971 1874.43,593.878 1877,606.928 
  1879.58,620.111 1882.15,633.413 1884.72,646.821 1887.29,660.324 1889.86,673.909 1892.43,687.563 1895.01,701.276 1897.58,715.034 1900.15,728.827 1902.72,742.642 
  1905.29,756.468 1907.86,770.294 1910.44,784.11 1913.01,797.903 1915.58,811.665 1918.15,825.384 1920.72,839.051 1923.29,852.656 1925.87,866.19 1928.44,879.643 
  1931.01,893.008 1933.58,906.274 1936.15,919.435 1938.72,932.482 1941.3,945.408 1943.87,958.206 1946.44,970.869 1949.01,983.39 1951.58,995.763 1954.15,1007.98 
  1956.73,1020.04 1959.3,1031.94 1961.87,1043.67 1964.44,1055.22 1967.01,1066.6 1969.58,1077.79 1972.15,1088.8 1974.73,1099.62 1977.3,1110.25 1979.87,1120.69 
  1982.44,1130.93 1985.01,1140.97 1987.58,1150.82 1990.16,1160.46 1992.73,1169.9 1995.3,1179.14 1997.87,1188.17 2000.44,1197.01 2003.01,1205.63 2005.59,1214.06 
  2008.16,1222.28 2010.73,1230.3 2013.3,1238.12 2015.87,1245.74 2018.44,1253.16 2021.02,1260.38 2023.59,1267.41 2026.16,1274.24 2028.73,1280.88 2031.3,1287.34 
  2033.87,1293.6 2036.45,1299.68 2039.02,1305.57 2041.59,1311.29 2044.16,1316.83 2046.73,1322.19 2049.3,1327.39 2051.88,1332.41 2054.45,1337.27 2057.02,1341.97 
  2059.59,1346.51 2062.16,1350.89 2064.73,1355.12 2067.31,1359.2 2069.88,1363.14 2072.45,1366.93 2075.02,1370.59 2077.59,1374.11 2080.16,1377.49 2082.73,1380.75 
  2085.31,1383.88 2087.88,1386.89 2090.45,1389.79 2093.02,1392.56 2095.59,1395.23 2098.16,1397.79 2100.74,1400.24 2103.31,1402.59 2105.88,1404.84 2108.45,1407 
  2111.02,1409.06 2113.59,1411.04 2116.17,1412.92 2118.74,1414.73 2121.31,1416.45 2123.88,1418.1 2126.45,1419.67 2129.02,1421.17 2131.6,1422.6 2134.17,1423.96 
  2136.74,1425.26 2139.31,1426.49 2141.88,1427.67 2144.45,1428.79 2147.03,1429.85 2149.6,1430.86 2152.17,1431.83 2154.74,1432.74 2157.31,1433.61 2159.88,1434.43 
  2162.46,1435.21 2165.03,1435.95 2167.6,1436.65 2170.17,1437.31 2172.74,1437.94 2175.31,1438.54 2177.89,1439.1 2180.46,1439.63 2183.03,1440.14 2185.6,1440.61 
  2188.17,1441.06 2190.74,1441.48 2193.31,1441.88 2195.89,1442.26 2198.46,1442.62 2201.03,1442.95 2203.6,1443.27 2206.17,1443.56 2208.74,1443.84 2211.32,1444.11 
  2213.89,1444.35 2216.46,1444.58 2219.03,1444.8 2221.6,1445.01 2224.17,1445.2 2226.75,1445.38 2229.32,1445.55 2231.89,1445.71 2234.46,1445.86 2237.03,1445.99 
  2239.6,1446.12 2242.18,1446.25 2244.75,1446.36 2247.32,1446.47 2249.89,1446.57 2252.46,1446.66 2255.03,1446.75 2257.61,1446.83 2260.18,1446.9 2262.75,1446.97 
  2265.32,1447.04 2267.89,1447.1 2270.46,1447.16 2273.04,1447.21 2275.61,1447.26 2278.18,1447.31 2280.75,1447.35 2283.32,1447.39 2285.89,1447.42 2288.47,1447.46 
  2291.04,1447.49 
  "/>
<path clip-path="url(#clip590)" d="
M1921.49 324.425 L2280.06 324.425 L2280.06 168.905 L1921.49 168.905  Z
  " fill="#ffffff" fill-rule="evenodd" fill-opacity="1"/>
<polyline clip-path="url(#clip590)" style="stroke:#000000; stroke-linecap:butt; stroke-linejoin:round; stroke-width:4; stroke-opacity:1; fill:none" points="
  1921.49,324.425 2280.06,324.425 2280.06,168.905 1921.49,168.905 1921.49,324.425 
  "/>
<polyline clip-path="url(#clip590)" style="stroke:#009af9; stroke-linecap:butt; stroke-linejoin:round; stroke-width:4; stroke-opacity:1; fill:none" points="
  1945.72,220.745 2091.1,220.745 
  "/>
<path clip-path="url(#clip590)" d="M2120.01 207.307 L2120.01 234.182 L2125.66 234.182 Q2132.81 234.182 2136.12 230.941 Q2139.45 227.701 2139.45 220.71 Q2139.45 213.766 2136.12 210.548 Q2132.81 207.307 2125.66 207.307 L2120.01 207.307 M2115.33 203.465 L2124.94 203.465 Q2134.98 203.465 2139.68 207.654 Q2144.38 211.821 2144.38 220.71 Q2144.38 229.645 2139.66 233.835 Q2134.94 238.025 2124.94 238.025 L2115.33 238.025 L2115.33 203.465 Z" fill="#000000" fill-rule="evenodd" fill-opacity="1" /><path clip-path="url(#clip590)" d="M2163.43 224.992 Q2158.27 224.992 2156.28 226.173 Q2154.29 227.353 2154.29 230.201 Q2154.29 232.469 2155.77 233.812 Q2157.28 235.131 2159.84 235.131 Q2163.39 235.131 2165.52 232.631 Q2167.67 230.108 2167.67 225.941 L2167.67 224.992 L2163.43 224.992 M2171.93 223.233 L2171.93 238.025 L2167.67 238.025 L2167.67 234.089 Q2166.21 236.451 2164.03 237.585 Q2161.86 238.696 2158.71 238.696 Q2154.73 238.696 2152.37 236.474 Q2150.03 234.228 2150.03 230.478 Q2150.03 226.103 2152.95 223.881 Q2155.89 221.659 2161.7 221.659 L2167.67 221.659 L2167.67 221.242 Q2167.67 218.303 2165.72 216.705 Q2163.8 215.085 2160.31 215.085 Q2158.09 215.085 2155.98 215.617 Q2153.87 216.15 2151.93 217.215 L2151.93 213.279 Q2154.27 212.377 2156.47 211.937 Q2158.66 211.474 2160.75 211.474 Q2166.37 211.474 2169.15 214.391 Q2171.93 217.307 2171.93 223.233 Z" fill="#000000" fill-rule="evenodd" fill-opacity="1" /><path clip-path="url(#clip590)" d="M2184.91 204.738 L2184.91 212.099 L2193.69 212.099 L2193.69 215.409 L2184.91 215.409 L2184.91 229.483 Q2184.91 232.654 2185.77 233.557 Q2186.65 234.46 2189.31 234.46 L2193.69 234.46 L2193.69 238.025 L2189.31 238.025 Q2184.38 238.025 2182.51 236.196 Q2180.63 234.344 2180.63 229.483 L2180.63 215.409 L2177.51 215.409 L2177.51 212.099 L2180.63 212.099 L2180.63 204.738 L2184.91 204.738 Z" fill="#000000" fill-rule="evenodd" fill-opacity="1" /><path clip-path="url(#clip590)" d="M2211.07 224.992 Q2205.91 224.992 2203.92 226.173 Q2201.93 227.353 2201.93 230.201 Q2201.93 232.469 2203.41 233.812 Q2204.91 235.131 2207.48 235.131 Q2211.03 235.131 2213.15 232.631 Q2215.31 230.108 2215.31 225.941 L2215.31 224.992 L2211.07 224.992 M2219.57 223.233 L2219.57 238.025 L2215.31 238.025 L2215.31 234.089 Q2213.85 236.451 2211.67 237.585 Q2209.5 238.696 2206.35 238.696 Q2202.37 238.696 2200.01 236.474 Q2197.67 234.228 2197.67 230.478 Q2197.67 226.103 2200.59 223.881 Q2203.53 221.659 2209.34 221.659 L2215.31 221.659 L2215.31 221.242 Q2215.31 218.303 2213.36 216.705 Q2211.44 215.085 2207.95 215.085 Q2205.72 215.085 2203.62 215.617 Q2201.51 216.15 2199.57 217.215 L2199.57 213.279 Q2201.9 212.377 2204.1 211.937 Q2206.3 211.474 2208.39 211.474 Q2214.01 211.474 2216.79 214.391 Q2219.57 217.307 2219.57 223.233 Z" fill="#000000" fill-rule="evenodd" fill-opacity="1" /><polyline clip-path="url(#clip590)" style="stroke:#e26f46; stroke-linecap:butt; stroke-linejoin:round; stroke-width:4; stroke-opacity:1; fill:none" points="
  1945.72,272.585 2091.1,272.585 
  "/>
<path clip-path="url(#clip590)" d="M2115.33 255.305 L2144.57 255.305 L2144.57 259.24 L2132.3 259.24 L2132.3 289.865 L2127.6 289.865 L2127.6 259.24 L2115.33 259.24 L2115.33 255.305 Z" fill="#000000" fill-rule="evenodd" fill-opacity="1" /><path clip-path="url(#clip590)" d="M2156.95 267.92 Q2156.23 267.504 2155.38 267.318 Q2154.54 267.11 2153.53 267.11 Q2149.91 267.11 2147.97 269.471 Q2146.05 271.809 2146.05 276.207 L2146.05 289.865 L2141.77 289.865 L2141.77 263.939 L2146.05 263.939 L2146.05 267.967 Q2147.39 265.606 2149.54 264.471 Q2151.7 263.314 2154.78 263.314 Q2155.22 263.314 2155.75 263.383 Q2156.28 263.43 2156.93 263.545 L2156.95 267.92 Z" fill="#000000" fill-rule="evenodd" fill-opacity="1" /><path clip-path="url(#clip590)" d="M2160.98 279.633 L2160.98 263.939 L2165.24 263.939 L2165.24 279.471 Q2165.24 283.152 2166.67 285.004 Q2168.11 286.832 2170.98 286.832 Q2174.43 286.832 2176.42 284.633 Q2178.43 282.434 2178.43 278.638 L2178.43 263.939 L2182.69 263.939 L2182.69 289.865 L2178.43 289.865 L2178.43 285.883 Q2176.88 288.244 2174.82 289.402 Q2172.78 290.536 2170.08 290.536 Q2165.61 290.536 2163.29 287.758 Q2160.98 284.98 2160.98 279.633 M2171.7 263.314 L2171.7 263.314 Z" fill="#000000" fill-rule="evenodd" fill-opacity="1" /><path clip-path="url(#clip590)" d="M2195.68 256.578 L2195.68 263.939 L2204.45 263.939 L2204.45 267.249 L2195.68 267.249 L2195.68 281.323 Q2195.68 284.494 2196.53 285.397 Q2197.41 286.3 2200.08 286.3 L2204.45 286.3 L2204.45 289.865 L2200.08 289.865 Q2195.15 289.865 2193.27 288.036 Q2191.4 286.184 2191.4 281.323 L2191.4 267.249 L2188.27 267.249 L2188.27 263.939 L2191.4 263.939 L2191.4 256.578 L2195.68 256.578 Z" fill="#000000" fill-rule="evenodd" fill-opacity="1" /><path clip-path="url(#clip590)" d="M2231.6 274.217 L2231.6 289.865 L2227.34 289.865 L2227.34 274.355 Q2227.34 270.675 2225.91 268.846 Q2224.47 267.018 2221.6 267.018 Q2218.15 267.018 2216.16 269.217 Q2214.17 271.416 2214.17 275.212 L2214.17 289.865 L2209.89 289.865 L2209.89 253.846 L2214.17 253.846 L2214.17 267.967 Q2215.7 265.629 2217.76 264.471 Q2219.84 263.314 2222.55 263.314 Q2227.02 263.314 2229.31 266.092 Q2231.6 268.846 2231.6 274.217 Z" fill="#000000" fill-rule="evenodd" fill-opacity="1" /></svg>
