<?xml version="1.0" encoding="utf-8"?>
<svg xmlns="http://www.w3.org/2000/svg" xmlns:xlink="http://www.w3.org/1999/xlink" width="600" height="400" viewBox="0 0 2400 1600">
<defs>
  <clipPath id="clip6400">
    <rect x="0" y="0" width="2400" height="1600"/>
  </clipPath>
</defs>
<path clip-path="url(#clip6400)" d="
M0 1600 L2400 1600 L2400 0 L0 0  Z
  " fill="#ffffff" fill-rule="evenodd" fill-opacity="1"/>
<defs>
  <clipPath id="clip6401">
    <rect x="480" y="0" width="1681" height="1600"/>
  </clipPath>
</defs>
<path clip-path="url(#clip6400)" d="
M202.373 1425.62 L2352.76 1425.62 L2352.76 121.675 L202.373 121.675  Z
  " fill="#ffffff" fill-rule="evenodd" fill-opacity="1"/>
<defs>
  <clipPath id="clip6402">
    <rect x="202" y="121" width="2151" height="1305"/>
  </clipPath>
</defs>
<polyline clip-path="url(#clip6402)" style="stroke:#000000; stroke-width:2; stroke-opacity:0.1; fill:none" points="
  415.383,1425.62 415.383,121.675 
  "/>
<polyline clip-path="url(#clip6402)" style="stroke:#000000; stroke-width:2; stroke-opacity:0.1; fill:none" points="
  922.548,1425.62 922.548,121.675 
  "/>
<polyline clip-path="url(#clip6402)" style="stroke:#000000; stroke-width:2; stroke-opacity:0.1; fill:none" points="
  1429.71,1425.62 1429.71,121.675 
  "/>
<polyline clip-path="url(#clip6402)" style="stroke:#000000; stroke-width:2; stroke-opacity:0.1; fill:none" points="
  1936.88,1425.62 1936.88,121.675 
  "/>
<polyline clip-path="url(#clip6402)" style="stroke:#000000; stroke-width:2; stroke-opacity:0.1; fill:none" points="
  202.373,1388.71 2352.76,1388.71 
  "/>
<polyline clip-path="url(#clip6402)" style="stroke:#000000; stroke-width:2; stroke-opacity:0.1; fill:none" points="
  202.373,1033.11 2352.76,1033.11 
  "/>
<polyline clip-path="url(#clip6402)" style="stroke:#000000; stroke-width:2; stroke-opacity:0.1; fill:none" points="
  202.373,677.499 2352.76,677.499 
  "/>
<polyline clip-path="url(#clip6402)" style="stroke:#000000; stroke-width:2; stroke-opacity:0.1; fill:none" points="
  202.373,321.891 2352.76,321.891 
  "/>
<polyline clip-path="url(#clip6400)" style="stroke:#000000; stroke-width:4; stroke-opacity:1; fill:none" points="
  202.373,1425.62 2352.76,1425.62 
  "/>
<polyline clip-path="url(#clip6400)" style="stroke:#000000; stroke-width:4; stroke-opacity:1; fill:none" points="
  202.373,1425.62 202.373,121.675 
  "/>
<polyline clip-path="url(#clip6400)" style="stroke:#000000; stroke-width:4; stroke-opacity:1; fill:none" points="
  415.383,1425.62 415.383,1406.06 
  "/>
<polyline clip-path="url(#clip6400)" style="stroke:#000000; stroke-width:4; stroke-opacity:1; fill:none" points="
  922.548,1425.62 922.548,1406.06 
  "/>
<polyline clip-path="url(#clip6400)" style="stroke:#000000; stroke-width:4; stroke-opacity:1; fill:none" points="
  1429.71,1425.62 1429.71,1406.06 
  "/>
<polyline clip-path="url(#clip6400)" style="stroke:#000000; stroke-width:4; stroke-opacity:1; fill:none" points="
  1936.88,1425.62 1936.88,1406.06 
  "/>
<polyline clip-path="url(#clip6400)" style="stroke:#000000; stroke-width:4; stroke-opacity:1; fill:none" points="
  202.373,1388.71 234.629,1388.71 
  "/>
<polyline clip-path="url(#clip6400)" style="stroke:#000000; stroke-width:4; stroke-opacity:1; fill:none" points="
  202.373,1033.11 234.629,1033.11 
  "/>
<polyline clip-path="url(#clip6400)" style="stroke:#000000; stroke-width:4; stroke-opacity:1; fill:none" points="
  202.373,677.499 234.629,677.499 
  "/>
<polyline clip-path="url(#clip6400)" style="stroke:#000000; stroke-width:4; stroke-opacity:1; fill:none" points="
  202.373,321.891 234.629,321.891 
  "/>
<g clip-path="url(#clip6400)">
<text style="fill:#000000; fill-opacity:1; font-family:Arial,Helvetica Neue,Helvetica,sans-serif; font-size:48px; text-anchor:middle;" transform="rotate(0, 415.383, 1479.62)" x="415.383" y="1479.62">-1.05</text>
</g>
<g clip-path="url(#clip6400)">
<text style="fill:#000000; fill-opacity:1; font-family:Arial,Helvetica Neue,Helvetica,sans-serif; font-size:48px; text-anchor:middle;" transform="rotate(0, 922.548, 1479.62)" x="922.548" y="1479.62">-1.00</text>
</g>
<g clip-path="url(#clip6400)">
<text style="fill:#000000; fill-opacity:1; font-family:Arial,Helvetica Neue,Helvetica,sans-serif; font-size:48px; text-anchor:middle;" transform="rotate(0, 1429.71, 1479.62)" x="1429.71" y="1479.62">-0.95</text>
</g>
<g clip-path="url(#clip6400)">
<text style="fill:#000000; fill-opacity:1; font-family:Arial,Helvetica Neue,Helvetica,sans-serif; font-size:48px; text-anchor:middle;" transform="rotate(0, 1936.88, 1479.62)" x="1936.88" y="1479.62">-0.90</text>
</g>
<g clip-path="url(#clip6400)">
<text style="fill:#000000; fill-opacity:1; font-family:Arial,Helvetica Neue,Helvetica,sans-serif; font-size:48px; text-anchor:end;" transform="rotate(0, 178.373, 1406.21)" x="178.373" y="1406.21">0</text>
</g>
<g clip-path="url(#clip6400)">
<text style="fill:#000000; fill-opacity:1; font-family:Arial,Helvetica Neue,Helvetica,sans-serif; font-size:48px; text-anchor:end;" transform="rotate(0, 178.373, 1050.61)" x="178.373" y="1050.61">5</text>
</g>
<g clip-path="url(#clip6400)">
<text style="fill:#000000; fill-opacity:1; font-family:Arial,Helvetica Neue,Helvetica,sans-serif; font-size:48px; text-anchor:end;" transform="rotate(0, 178.373, 694.999)" x="178.373" y="694.999">10</text>
</g>
<g clip-path="url(#clip6400)">
<text style="fill:#000000; fill-opacity:1; font-family:Arial,Helvetica Neue,Helvetica,sans-serif; font-size:48px; text-anchor:end;" transform="rotate(0, 178.373, 339.391)" x="178.373" y="339.391">15</text>
</g>
<g clip-path="url(#clip6400)">
<text style="fill:#000000; fill-opacity:1; font-family:Arial,Helvetica Neue,Helvetica,sans-serif; font-size:84px; text-anchor:middle;" transform="rotate(0, 1277.56, 73.2)" x="1277.56" y="73.2">Marginalized Distribution for mu_1</text>
</g>
<g clip-path="url(#clip6400)">
<text style="fill:#000000; fill-opacity:1; font-family:Arial,Helvetica Neue,Helvetica,sans-serif; font-size:66px; text-anchor:middle;" transform="rotate(0, 1277.56, 1559.48)" x="1277.56" y="1559.48">mu_1</text>
</g>
<g clip-path="url(#clip6400)">
<text style="fill:#000000; fill-opacity:1; font-family:Arial,Helvetica Neue,Helvetica,sans-serif; font-size:66px; text-anchor:middle;" transform="rotate(-90, 89.2861, 773.647)" x="89.2861" y="773.647">P(mu_1)</text>
</g>
<path clip-path="url(#clip6402)" d="
M263.233 1388.71 L313.949 1388.71 L313.949 1388.71 L364.666 1388.71 L364.666 1388.71 L415.383 1388.71 L415.383 1388.71 L466.099 1388.71 L466.099 1388.71 L516.816 1388.71 
  L516.816 1388.71 L567.532 1388.71 L567.532 1373.36 L618.249 1373.36 L618.249 1357.72 L668.965 1357.72 L668.965 1339.43 L719.682 1339.43 L719.682 1309.8 L770.399 1309.8 
  L770.399 1248.3 L821.115 1248.3 L821.115 1197.16 L871.832 1197.16 L871.832 1123.43 L922.548 1123.43 L922.548 994.361 L973.265 994.361 L973.265 906.748 L1023.98 906.748 
  L1023.98 711.38 L1074.7 711.38 L1074.7 596.096 L1125.41 596.096 L1125.41 452.943 L1176.13 452.943 L1176.13 345.872 L1226.85 345.872 L1226.85 220.614 L1277.56 220.614 
  L1277.56 194.408 L1328.28 194.408 L1328.28 218.658 L1379 218.658 L1379 268.136 L1429.71 268.136 L1429.71 346.459 L1480.43 346.459 L1480.43 577.615 L1531.15 577.615 
  L1531.15 688.304 L1581.86 688.304 L1581.86 816.594 L1632.58 816.594 L1632.58 947.719 L1683.3 947.719 L1683.3 1067.01 L1734.01 1067.01 L1734.01 1163.03 L1784.73 1163.03 
  L1784.73 1244.68 L1835.45 1244.68 L1835.45 1303.74 L1886.16 1303.74 L1886.16 1334.93 L1936.88 1334.93 L1936.88 1359.28 L1987.6 1359.28 L1987.6 1372.48 L2038.31 1372.48 
  L2038.31 1388.71 L2089.03 1388.71 L2089.03 1388.71 L2139.75 1388.71 L2139.75 1388.71 L2190.46 1388.71 L2190.46 1388.71 L2241.18 1388.71 L2241.18 1388.71 L2291.9 1388.71 
  L2291.9 1388.71 L2291.9 1388.71 L2291.9 1388.71 L2241.18 1388.71 L2241.18 1388.71 L2190.46 1388.71 L2190.46 1388.71 L2139.75 1388.71 L2139.75 1388.71 L2089.03 1388.71 
  L2089.03 1388.71 L2038.31 1388.71 L2038.31 1388.71 L1987.6 1388.71 L1987.6 1388.71 L1936.88 1388.71 L1936.88 1388.71 L1886.16 1388.71 L1886.16 1388.71 L1835.45 1388.71 
  L1835.45 1388.71 L1784.73 1388.71 L1784.73 1388.71 L1734.01 1388.71 L1734.01 1388.71 L1683.3 1388.71 L1683.3 1388.71 L1632.58 1388.71 L1632.58 1388.71 L1581.86 1388.71 
  L1581.86 1388.71 L1531.15 1388.71 L1531.15 1388.71 L1480.43 1388.71 L1480.43 1388.71 L1429.71 1388.71 L1429.71 1388.71 L1379 1388.71 L1379 1388.71 L1328.28 1388.71 
  L1328.28 1388.71 L1277.56 1388.71 L1277.56 1388.71 L1226.85 1388.71 L1226.85 1388.71 L1176.13 1388.71 L1176.13 1388.71 L1125.41 1388.71 L1125.41 1388.71 L1074.7 1388.71 
  L1074.7 1388.71 L1023.98 1388.71 L1023.98 1388.71 L973.265 1388.71 L973.265 1388.71 L922.548 1388.71 L922.548 1388.71 L871.832 1388.71 L871.832 1388.71 L821.115 1388.71 
  L821.115 1388.71 L770.399 1388.71 L770.399 1388.71 L719.682 1388.71 L719.682 1388.71 L668.965 1388.71 L668.965 1388.71 L618.249 1388.71 L618.249 1388.71 L567.532 1388.71 
  L567.532 1388.71 L516.816 1388.71 L516.816 1388.71 L466.099 1388.71 L466.099 1388.71 L415.383 1388.71 L415.383 1388.71 L364.666 1388.71 L364.666 1388.71 L313.949 1388.71 
  L313.949 1388.71 L263.233 1388.71  Z
  " fill="#ff0000" fill-rule="evenodd" fill-opacity="1"/>
<polyline clip-path="url(#clip6402)" style="stroke:#009af9; stroke-width:0; stroke-opacity:1; fill:none" points="
  263.233,1388.71 313.949,1388.71 364.666,1388.71 415.383,1388.71 466.099,1388.71 516.816,1388.71 
  567.532,1388.71 567.532,1373.36 618.249,1373.36 618.249,1357.72 668.965,1357.72 668.965,1339.43 719.682,1339.43 719.682,1309.8 770.399,1309.8 
  770.399,1248.3 821.115,1248.3 821.115,1197.16 871.832,1197.16 871.832,1123.43 922.548,1123.43 922.548,994.361 973.265,994.361 973.265,906.748 1023.98,906.748 
  1023.98,711.38 1074.7,711.38 1074.7,596.096 1125.41,596.096 1125.41,452.943 1176.13,452.943 1176.13,345.872 1226.85,345.872 1226.85,220.614 1277.56,220.614 
  1277.56,194.408 1328.28,194.408 1328.28,218.658 1379,218.658 1379,268.136 1429.71,268.136 1429.71,346.459 1480.43,346.459 1480.43,577.615 1531.15,577.615 
  1531.15,688.304 1581.86,688.304 1581.86,816.594 1632.58,816.594 1632.58,947.719 1683.3,947.719 1683.3,1067.01 1734.01,1067.01 1734.01,1163.03 1784.73,1163.03 
  1784.73,1244.68 1835.45,1244.68 1835.45,1303.74 1886.16,1303.74 1886.16,1334.93 1936.88,1334.93 1936.88,1359.28 1987.6,1359.28 1987.6,1372.48 2038.31,1372.48 
  2038.31,1388.71 2089.03,1388.71 2139.75,1388.71 2190.46,1388.71 2241.18,1388.71 2291.9,1388.71 
  
  "/>
<path clip-path="url(#clip6402)" d="
M263.233 1388.71 L313.949 1388.71 L313.949 1388.71 L364.666 1388.71 L364.666 1388.71 L415.383 1388.71 L415.383 1388.71 L466.099 1388.71 L466.099 1388.71 L516.816 1388.71 
  L516.816 1388.71 L567.532 1388.71 L567.532 1388.71 L618.249 1388.71 L618.249 1388.71 L668.965 1388.71 L668.965 1388.71 L719.682 1388.71 L719.682 1388.71 L770.399 1388.71 
  L770.399 1388.71 L821.115 1388.71 L821.115 1197.16 L871.832 1197.16 L871.832 1123.43 L922.548 1123.43 L922.548 994.361 L973.265 994.361 L973.265 906.748 L1023.98 906.748 
  L1023.98 711.38 L1074.7 711.38 L1074.7 596.096 L1125.41 596.096 L1125.41 452.943 L1176.13 452.943 L1176.13 345.872 L1226.85 345.872 L1226.85 220.614 L1277.56 220.614 
  L1277.56 194.408 L1328.28 194.408 L1328.28 218.658 L1379 218.658 L1379 268.136 L1429.71 268.136 L1429.71 346.459 L1480.43 346.459 L1480.43 577.615 L1531.15 577.615 
  L1531.15 688.304 L1581.86 688.304 L1581.86 816.594 L1632.58 816.594 L1632.58 947.719 L1683.3 947.719 L1683.3 1067.01 L1734.01 1067.01 L1734.01 1163.03 L1784.73 1163.03 
  L1784.73 1244.68 L1835.45 1244.68 L1835.45 1388.71 L1886.16 1388.71 L1886.16 1388.71 L1936.88 1388.71 L1936.88 1388.71 L1987.6 1388.71 L1987.6 1388.71 L2038.31 1388.71 
  L2038.31 1388.71 L2089.03 1388.71 L2089.03 1388.71 L2139.75 1388.71 L2139.75 1388.71 L2190.46 1388.71 L2190.46 1388.71 L2241.18 1388.71 L2241.18 1388.71 L2291.9 1388.71 
  L2291.9 1388.71 L2291.9 1388.71 L2291.9 1388.71 L2241.18 1388.71 L2241.18 1388.71 L2190.46 1388.71 L2190.46 1388.71 L2139.75 1388.71 L2139.75 1388.71 L2089.03 1388.71 
  L2089.03 1388.71 L2038.31 1388.71 L2038.31 1388.71 L1987.6 1388.71 L1987.6 1388.71 L1936.88 1388.71 L1936.88 1388.71 L1886.16 1388.71 L1886.16 1388.71 L1835.45 1388.71 
  L1835.45 1388.71 L1784.73 1388.71 L1784.73 1388.71 L1734.01 1388.71 L1734.01 1388.71 L1683.3 1388.71 L1683.3 1388.71 L1632.58 1388.71 L1632.58 1388.71 L1581.86 1388.71 
  L1581.86 1388.71 L1531.15 1388.71 L1531.15 1388.71 L1480.43 1388.71 L1480.43 1388.71 L1429.71 1388.71 L1429.71 1388.71 L1379 1388.71 L1379 1388.71 L1328.28 1388.71 
  L1328.28 1388.71 L1277.56 1388.71 L1277.56 1388.71 L1226.85 1388.71 L1226.85 1388.71 L1176.13 1388.71 L1176.13 1388.71 L1125.41 1388.71 L1125.41 1388.71 L1074.7 1388.71 
  L1074.7 1388.71 L1023.98 1388.71 L1023.98 1388.71 L973.265 1388.71 L973.265 1388.71 L922.548 1388.71 L922.548 1388.71 L871.832 1388.71 L871.832 1388.71 L821.115 1388.71 
  L821.115 1388.71 L770.399 1388.71 L770.399 1388.71 L719.682 1388.71 L719.682 1388.71 L668.965 1388.71 L668.965 1388.71 L618.249 1388.71 L618.249 1388.71 L567.532 1388.71 
  L567.532 1388.71 L516.816 1388.71 L516.816 1388.71 L466.099 1388.71 L466.099 1388.71 L415.383 1388.71 L415.383 1388.71 L364.666 1388.71 L364.666 1388.71 L313.949 1388.71 
  L313.949 1388.71 L263.233 1388.71  Z
  " fill="#ffff00" fill-rule="evenodd" fill-opacity="1"/>
<polyline clip-path="url(#clip6402)" style="stroke:#e26f46; stroke-width:0; stroke-opacity:1; fill:none" points="
  263.233,1388.71 313.949,1388.71 364.666,1388.71 415.383,1388.71 466.099,1388.71 516.816,1388.71 
  567.532,1388.71 618.249,1388.71 668.965,1388.71 719.682,1388.71 770.399,1388.71 
  821.115,1388.71 821.115,1197.16 871.832,1197.16 871.832,1123.43 922.548,1123.43 922.548,994.361 973.265,994.361 973.265,906.748 1023.98,906.748 
  1023.98,711.38 1074.7,711.38 1074.7,596.096 1125.41,596.096 1125.41,452.943 1176.13,452.943 1176.13,345.872 1226.85,345.872 1226.85,220.614 1277.56,220.614 
  1277.56,194.408 1328.28,194.408 1328.28,218.658 1379,218.658 1379,268.136 1429.71,268.136 1429.71,346.459 1480.43,346.459 1480.43,577.615 1531.15,577.615 
  1531.15,688.304 1581.86,688.304 1581.86,816.594 1632.58,816.594 1632.58,947.719 1683.3,947.719 1683.3,1067.01 1734.01,1067.01 1734.01,1163.03 1784.73,1163.03 
  1784.73,1244.68 1835.45,1244.68 1835.45,1388.71 1886.16,1388.71 1936.88,1388.71 1987.6,1388.71 2038.31,1388.71 
  2089.03,1388.71 2139.75,1388.71 2190.46,1388.71 2241.18,1388.71 2291.9,1388.71 
  
  "/>
<path clip-path="url(#clip6402)" d="
M263.233 1388.71 L313.949 1388.71 L313.949 1388.71 L364.666 1388.71 L364.666 1388.71 L415.383 1388.71 L415.383 1388.71 L466.099 1388.71 L466.099 1388.71 L516.816 1388.71 
  L516.816 1388.71 L567.532 1388.71 L567.532 1388.71 L618.249 1388.71 L618.249 1388.71 L668.965 1388.71 L668.965 1388.71 L719.682 1388.71 L719.682 1388.71 L770.399 1388.71 
  L770.399 1388.71 L821.115 1388.71 L821.115 1388.71 L871.832 1388.71 L871.832 1388.71 L922.548 1388.71 L922.548 1388.71 L973.265 1388.71 L973.265 1388.71 L1023.98 1388.71 
  L1023.98 1388.71 L1074.7 1388.71 L1074.7 596.096 L1125.41 596.096 L1125.41 452.943 L1176.13 452.943 L1176.13 345.872 L1226.85 345.872 L1226.85 220.614 L1277.56 220.614 
  L1277.56 194.408 L1328.28 194.408 L1328.28 218.658 L1379 218.658 L1379 268.136 L1429.71 268.136 L1429.71 346.459 L1480.43 346.459 L1480.43 577.615 L1531.15 577.615 
  L1531.15 688.304 L1581.86 688.304 L1581.86 1388.71 L1632.58 1388.71 L1632.58 1388.71 L1683.3 1388.71 L1683.3 1388.71 L1734.01 1388.71 L1734.01 1388.71 L1784.73 1388.71 
  L1784.73 1388.71 L1835.45 1388.71 L1835.45 1388.71 L1886.16 1388.71 L1886.16 1388.71 L1936.88 1388.71 L1936.88 1388.71 L1987.6 1388.71 L1987.6 1388.71 L2038.31 1388.71 
  L2038.31 1388.71 L2089.03 1388.71 L2089.03 1388.71 L2139.75 1388.71 L2139.75 1388.71 L2190.46 1388.71 L2190.46 1388.71 L2241.18 1388.71 L2241.18 1388.71 L2291.9 1388.71 
  L2291.9 1388.71 L2291.9 1388.71 L2291.9 1388.71 L2241.18 1388.71 L2241.18 1388.71 L2190.46 1388.71 L2190.46 1388.71 L2139.75 1388.71 L2139.75 1388.71 L2089.03 1388.71 
  L2089.03 1388.71 L2038.31 1388.71 L2038.31 1388.71 L1987.6 1388.71 L1987.6 1388.71 L1936.88 1388.71 L1936.88 1388.71 L1886.16 1388.71 L1886.16 1388.71 L1835.45 1388.71 
  L1835.45 1388.71 L1784.73 1388.71 L1784.73 1388.71 L1734.01 1388.71 L1734.01 1388.71 L1683.3 1388.71 L1683.3 1388.71 L1632.58 1388.71 L1632.58 1388.71 L1581.86 1388.71 
  L1581.86 1388.71 L1531.15 1388.71 L1531.15 1388.71 L1480.43 1388.71 L1480.43 1388.71 L1429.71 1388.71 L1429.71 1388.71 L1379 1388.71 L1379 1388.71 L1328.28 1388.71 
  L1328.28 1388.71 L1277.56 1388.71 L1277.56 1388.71 L1226.85 1388.71 L1226.85 1388.71 L1176.13 1388.71 L1176.13 1388.71 L1125.41 1388.71 L1125.41 1388.71 L1074.7 1388.71 
  L1074.7 1388.71 L1023.98 1388.71 L1023.98 1388.71 L973.265 1388.71 L973.265 1388.71 L922.548 1388.71 L922.548 1388.71 L871.832 1388.71 L871.832 1388.71 L821.115 1388.71 
  L821.115 1388.71 L770.399 1388.71 L770.399 1388.71 L719.682 1388.71 L719.682 1388.71 L668.965 1388.71 L668.965 1388.71 L618.249 1388.71 L618.249 1388.71 L567.532 1388.71 
  L567.532 1388.71 L516.816 1388.71 L516.816 1388.71 L466.099 1388.71 L466.099 1388.71 L415.383 1388.71 L415.383 1388.71 L364.666 1388.71 L364.666 1388.71 L313.949 1388.71 
  L313.949 1388.71 L263.233 1388.71  Z
  " fill="#76ee00" fill-rule="evenodd" fill-opacity="1"/>
<polyline clip-path="url(#clip6402)" style="stroke:#3da44d; stroke-width:0; stroke-opacity:1; fill:none" points="
  263.233,1388.71 313.949,1388.71 364.666,1388.71 415.383,1388.71 466.099,1388.71 516.816,1388.71 
  567.532,1388.71 618.249,1388.71 668.965,1388.71 719.682,1388.71 770.399,1388.71 
  821.115,1388.71 871.832,1388.71 922.548,1388.71 973.265,1388.71 1023.98,1388.71 
  1074.7,1388.71 1074.7,596.096 1125.41,596.096 1125.41,452.943 1176.13,452.943 1176.13,345.872 1226.85,345.872 1226.85,220.614 1277.56,220.614 
  1277.56,194.408 1328.28,194.408 1328.28,218.658 1379,218.658 1379,268.136 1429.71,268.136 1429.71,346.459 1480.43,346.459 1480.43,577.615 1531.15,577.615 
  1531.15,688.304 1581.86,688.304 1581.86,1388.71 1632.58,1388.71 1683.3,1388.71 1734.01,1388.71 1784.73,1388.71 
  1835.45,1388.71 1886.16,1388.71 1936.88,1388.71 1987.6,1388.71 2038.31,1388.71 
  2089.03,1388.71 2139.75,1388.71 2190.46,1388.71 2241.18,1388.71 2291.9,1388.71 
  
  "/>
<polyline clip-path="url(#clip6402)" style="stroke:#000000; stroke-width:2.8; stroke-opacity:1; fill:none" points="
  263.233,1388.32 313.949,1388.32 313.949,1386.37 364.666,1386.37 364.666,1388.23 415.383,1388.23 415.383,1387.64 466.099,1387.64 466.099,1384.8 516.816,1384.8 
  516.816,1382.65 567.532,1382.65 567.532,1373.36 618.249,1373.36 618.249,1357.72 668.965,1357.72 668.965,1339.43 719.682,1339.43 719.682,1309.8 770.399,1309.8 
  770.399,1248.3 821.115,1248.3 821.115,1197.16 871.832,1197.16 871.832,1123.43 922.548,1123.43 922.548,994.361 973.265,994.361 973.265,906.748 1023.98,906.748 
  1023.98,711.38 1074.7,711.38 1074.7,596.096 1125.41,596.096 1125.41,452.943 1176.13,452.943 1176.13,345.872 1226.85,345.872 1226.85,220.614 1277.56,220.614 
  1277.56,194.408 1328.28,194.408 1328.28,218.658 1379,218.658 1379,268.136 1429.71,268.136 1429.71,346.459 1480.43,346.459 1480.43,577.615 1531.15,577.615 
  1531.15,688.304 1581.86,688.304 1581.86,816.594 1632.58,816.594 1632.58,947.719 1683.3,947.719 1683.3,1067.01 1734.01,1067.01 1734.01,1163.03 1784.73,1163.03 
  1784.73,1244.68 1835.45,1244.68 1835.45,1303.74 1886.16,1303.74 1886.16,1334.93 1936.88,1334.93 1936.88,1359.28 1987.6,1359.28 1987.6,1372.48 2038.31,1372.48 
  2038.31,1380.79 2089.03,1380.79 2089.03,1385.68 2139.75,1385.68 2139.75,1383.83 2190.46,1383.83 2190.46,1387.93 2241.18,1387.93 2241.18,1387.83 2291.9,1387.83 
  2291.9,1388.62 
  "/>
<path clip-path="url(#clip6402)" d="
M1069.12 1388.71 L1554.57 1388.71 L1554.57 158.579 L1069.12 158.579 L1069.12 1388.71  Z
  " fill="#808080" fill-rule="evenodd" fill-opacity="0.5"/>
<polyline clip-path="url(#clip6402)" style="stroke:#000000; stroke-width:0; stroke-opacity:1; fill:none" points="
  1069.12,1388.71 1554.57,1388.71 1554.57,158.579 1069.12,158.579 1069.12,1388.71 
  "/>
<polyline clip-path="url(#clip6402)" style="stroke:#696969; stroke-width:4; stroke-opacity:1; fill:none" points="
  1311.85,1388.71 1311.85,158.579 
  "/>
<polyline clip-path="url(#clip6402)" style="stroke:#000000; stroke-width:4; stroke-opacity:1; fill:none" stroke-dasharray="16, 10" points="
  1305.81,1388.71 1305.81,158.579 
  "/>
<polyline clip-path="url(#clip6402)" style="stroke:#000000; stroke-width:4; stroke-opacity:1; fill:none" stroke-dasharray="2, 4" points="
  1302.92,1388.71 1302.92,158.579 
  "/>
<path clip-path="url(#clip6400)" d="
M1463.01 689.035 L2280.76 689.035 L2280.76 205.195 L1463.01 205.195  Z
  " fill="#ffffff" fill-rule="evenodd" fill-opacity="1"/>
<polyline clip-path="url(#clip6400)" style="stroke:#000000; stroke-width:4; stroke-opacity:1; fill:none" points="
  1463.01,689.035 2280.76,689.035 2280.76,205.195 1463.01,205.195 1463.01,689.035 
  "/>
<path clip-path="url(#clip6400)" d="
M1487.01 289.867 L1631.01 289.867 L1631.01 241.483 L1487.01 241.483 L1487.01 289.867  Z
  " fill="#ff0000" fill-rule="evenodd" fill-opacity="1"/>
<polyline clip-path="url(#clip6400)" style="stroke:#009af9; stroke-width:0; stroke-opacity:1; fill:none" points="
  1487.01,241.483 1631.01,241.483 
  "/>
<g clip-path="url(#clip6400)">
<text style="fill:#000000; fill-opacity:1; font-family:Arial,Helvetica Neue,Helvetica,sans-serif; font-size:48px; text-anchor:start;" transform="rotate(0, 1655.01, 283.175)" x="1655.01" y="283.175">smallest 99.78% interval(s)</text>
</g>
<path clip-path="url(#clip6400)" d="
M1487.01 350.347 L1631.01 350.347 L1631.01 301.963 L1487.01 301.963 L1487.01 350.347  Z
  " fill="#ffff00" fill-rule="evenodd" fill-opacity="1"/>
<polyline clip-path="url(#clip6400)" style="stroke:#e26f46; stroke-width:0; stroke-opacity:1; fill:none" points="
  1487.01,301.963 1631.01,301.963 
  "/>
<g clip-path="url(#clip6400)">
<text style="fill:#000000; fill-opacity:1; font-family:Arial,Helvetica Neue,Helvetica,sans-serif; font-size:48px; text-anchor:start;" transform="rotate(0, 1655.01, 343.655)" x="1655.01" y="343.655">smallest 96.27% interval(s)</text>
</g>
<path clip-path="url(#clip6400)" d="
M1487.01 410.827 L1631.01 410.827 L1631.01 362.443 L1487.01 362.443 L1487.01 410.827  Z
  " fill="#76ee00" fill-rule="evenodd" fill-opacity="1"/>
<polyline clip-path="url(#clip6400)" style="stroke:#3da44d; stroke-width:0; stroke-opacity:1; fill:none" points="
  1487.01,362.443 1631.01,362.443 
  "/>
<g clip-path="url(#clip6400)">
<text style="fill:#000000; fill-opacity:1; font-family:Arial,Helvetica Neue,Helvetica,sans-serif; font-size:48px; text-anchor:start;" transform="rotate(0, 1655.01, 404.135)" x="1655.01" y="404.135">smallest 70.15% interval(s)</text>
</g>
<path clip-path="url(#clip6400)" d="
M1487.01 471.307 L1631.01 471.307 L1631.01 422.923 L1487.01 422.923 L1487.01 471.307  Z
  " fill="#808080" fill-rule="evenodd" fill-opacity="0.5"/>
<polyline clip-path="url(#clip6400)" style="stroke:#000000; stroke-width:0; stroke-opacity:1; fill:none" points="
  1487.01,471.307 1631.01,471.307 1631.01,422.923 1487.01,422.923 1487.01,471.307 
  "/>
<g clip-path="url(#clip6400)">
<text style="fill:#000000; fill-opacity:1; font-family:Arial,Helvetica Neue,Helvetica,sans-serif; font-size:48px; text-anchor:start;" transform="rotate(0, 1655.01, 464.615)" x="1655.01" y="464.615">std. dev.</text>
</g>
<polyline clip-path="url(#clip6400)" style="stroke:#696969; stroke-width:4; stroke-opacity:1; fill:none" points="
  1487.01,507.595 1631.01,507.595 
  "/>
<g clip-path="url(#clip6400)">
<text style="fill:#000000; fill-opacity:1; font-family:Arial,Helvetica Neue,Helvetica,sans-serif; font-size:48px; text-anchor:start;" transform="rotate(0, 1655.01, 525.095)" x="1655.01" y="525.095">mean</text>
</g>
<polyline clip-path="url(#clip6400)" style="stroke:#000000; stroke-width:4; stroke-opacity:1; fill:none" stroke-dasharray="16, 10" points="
  1487.01,568.075 1631.01,568.075 
  "/>
<g clip-path="url(#clip6400)">
<text style="fill:#000000; fill-opacity:1; font-family:Arial,Helvetica Neue,Helvetica,sans-serif; font-size:48px; text-anchor:start;" transform="rotate(0, 1655.01, 585.575)" x="1655.01" y="585.575">global mode</text>
</g>
<polyline clip-path="url(#clip6400)" style="stroke:#000000; stroke-width:4; stroke-opacity:1; fill:none" stroke-dasharray="2, 4" points="
  1487.01,628.555 1631.01,628.555 
  "/>
<g clip-path="url(#clip6400)">
<text style="fill:#000000; fill-opacity:1; font-family:Arial,Helvetica Neue,Helvetica,sans-serif; font-size:48px; text-anchor:start;" transform="rotate(0, 1655.01, 646.055)" x="1655.01" y="646.055">local mode</text>
</g>
</svg>
