<?xml version="1.0" encoding="utf-8"?>
<svg xmlns="http://www.w3.org/2000/svg" xmlns:xlink="http://www.w3.org/1999/xlink" width="600" height="400" viewBox="0 0 2400 1600">
<defs>
  <clipPath id="clip7300">
    <rect x="0" y="0" width="2400" height="1600"/>
  </clipPath>
</defs>
<path clip-path="url(#clip7300)" d="
M0 1600 L2400 1600 L2400 0 L0 0  Z
  " fill="#ffffff" fill-rule="evenodd" fill-opacity="1"/>
<defs>
  <clipPath id="clip7301">
    <rect x="480" y="0" width="1681" height="1600"/>
  </clipPath>
</defs>
<path clip-path="url(#clip7300)" d="
M167.279 1487.47 L2352.76 1487.47 L2352.76 121.675 L167.279 121.675  Z
  " fill="#ffffff" fill-rule="evenodd" fill-opacity="1"/>
<defs>
  <clipPath id="clip7302">
    <rect x="167" y="121" width="2186" height="1367"/>
  </clipPath>
</defs>
<polyline clip-path="url(#clip7302)" style="stroke:#000000; stroke-width:2; stroke-opacity:0.1; fill:none" points="
  229.132,1487.47 229.132,121.675 
  "/>
<polyline clip-path="url(#clip7302)" style="stroke:#000000; stroke-width:2; stroke-opacity:0.1; fill:none" points="
  744.575,1487.47 744.575,121.675 
  "/>
<polyline clip-path="url(#clip7302)" style="stroke:#000000; stroke-width:2; stroke-opacity:0.1; fill:none" points="
  1260.02,1487.47 1260.02,121.675 
  "/>
<polyline clip-path="url(#clip7302)" style="stroke:#000000; stroke-width:2; stroke-opacity:0.1; fill:none" points="
  1775.46,1487.47 1775.46,121.675 
  "/>
<polyline clip-path="url(#clip7302)" style="stroke:#000000; stroke-width:2; stroke-opacity:0.1; fill:none" points="
  2290.9,1487.47 2290.9,121.675 
  "/>
<polyline clip-path="url(#clip7302)" style="stroke:#000000; stroke-width:2; stroke-opacity:0.1; fill:none" points="
  167.279,1448.82 2352.76,1448.82 
  "/>
<polyline clip-path="url(#clip7302)" style="stroke:#000000; stroke-width:2; stroke-opacity:0.1; fill:none" points="
  167.279,1162.49 2352.76,1162.49 
  "/>
<polyline clip-path="url(#clip7302)" style="stroke:#000000; stroke-width:2; stroke-opacity:0.1; fill:none" points="
  167.279,876.158 2352.76,876.158 
  "/>
<polyline clip-path="url(#clip7302)" style="stroke:#000000; stroke-width:2; stroke-opacity:0.1; fill:none" points="
  167.279,589.827 2352.76,589.827 
  "/>
<polyline clip-path="url(#clip7302)" style="stroke:#000000; stroke-width:2; stroke-opacity:0.1; fill:none" points="
  167.279,303.495 2352.76,303.495 
  "/>
<polyline clip-path="url(#clip7300)" style="stroke:#000000; stroke-width:4; stroke-opacity:1; fill:none" points="
  167.279,1487.47 2352.76,1487.47 
  "/>
<polyline clip-path="url(#clip7300)" style="stroke:#000000; stroke-width:4; stroke-opacity:1; fill:none" points="
  167.279,1487.47 167.279,121.675 
  "/>
<polyline clip-path="url(#clip7300)" style="stroke:#000000; stroke-width:4; stroke-opacity:1; fill:none" points="
  229.132,1487.47 229.132,1466.99 
  "/>
<polyline clip-path="url(#clip7300)" style="stroke:#000000; stroke-width:4; stroke-opacity:1; fill:none" points="
  744.575,1487.47 744.575,1466.99 
  "/>
<polyline clip-path="url(#clip7300)" style="stroke:#000000; stroke-width:4; stroke-opacity:1; fill:none" points="
  1260.02,1487.47 1260.02,1466.99 
  "/>
<polyline clip-path="url(#clip7300)" style="stroke:#000000; stroke-width:4; stroke-opacity:1; fill:none" points="
  1775.46,1487.47 1775.46,1466.99 
  "/>
<polyline clip-path="url(#clip7300)" style="stroke:#000000; stroke-width:4; stroke-opacity:1; fill:none" points="
  2290.9,1487.47 2290.9,1466.99 
  "/>
<polyline clip-path="url(#clip7300)" style="stroke:#000000; stroke-width:4; stroke-opacity:1; fill:none" points="
  167.279,1448.82 200.061,1448.82 
  "/>
<polyline clip-path="url(#clip7300)" style="stroke:#000000; stroke-width:4; stroke-opacity:1; fill:none" points="
  167.279,1162.49 200.061,1162.49 
  "/>
<polyline clip-path="url(#clip7300)" style="stroke:#000000; stroke-width:4; stroke-opacity:1; fill:none" points="
  167.279,876.158 200.061,876.158 
  "/>
<polyline clip-path="url(#clip7300)" style="stroke:#000000; stroke-width:4; stroke-opacity:1; fill:none" points="
  167.279,589.827 200.061,589.827 
  "/>
<polyline clip-path="url(#clip7300)" style="stroke:#000000; stroke-width:4; stroke-opacity:1; fill:none" points="
  167.279,303.495 200.061,303.495 
  "/>
<g clip-path="url(#clip7300)">
<text style="fill:#000000; fill-opacity:1; font-family:Arial,Helvetica Neue,Helvetica,sans-serif; font-size:48px; text-anchor:middle;" transform="rotate(0, 229.132, 1541.47)" x="229.132" y="1541.47">-4</text>
</g>
<g clip-path="url(#clip7300)">
<text style="fill:#000000; fill-opacity:1; font-family:Arial,Helvetica Neue,Helvetica,sans-serif; font-size:48px; text-anchor:middle;" transform="rotate(0, 744.575, 1541.47)" x="744.575" y="1541.47">-2</text>
</g>
<g clip-path="url(#clip7300)">
<text style="fill:#000000; fill-opacity:1; font-family:Arial,Helvetica Neue,Helvetica,sans-serif; font-size:48px; text-anchor:middle;" transform="rotate(0, 1260.02, 1541.47)" x="1260.02" y="1541.47">0</text>
</g>
<g clip-path="url(#clip7300)">
<text style="fill:#000000; fill-opacity:1; font-family:Arial,Helvetica Neue,Helvetica,sans-serif; font-size:48px; text-anchor:middle;" transform="rotate(0, 1775.46, 1541.47)" x="1775.46" y="1541.47">2</text>
</g>
<g clip-path="url(#clip7300)">
<text style="fill:#000000; fill-opacity:1; font-family:Arial,Helvetica Neue,Helvetica,sans-serif; font-size:48px; text-anchor:middle;" transform="rotate(0, 2290.9, 1541.47)" x="2290.9" y="1541.47">4</text>
</g>
<g clip-path="url(#clip7300)">
<text style="fill:#000000; fill-opacity:1; font-family:Arial,Helvetica Neue,Helvetica,sans-serif; font-size:48px; text-anchor:end;" transform="rotate(0, 143.279, 1466.32)" x="143.279" y="1466.32">0</text>
</g>
<g clip-path="url(#clip7300)">
<text style="fill:#000000; fill-opacity:1; font-family:Arial,Helvetica Neue,Helvetica,sans-serif; font-size:48px; text-anchor:end;" transform="rotate(0, 143.279, 1179.99)" x="143.279" y="1179.99">200</text>
</g>
<g clip-path="url(#clip7300)">
<text style="fill:#000000; fill-opacity:1; font-family:Arial,Helvetica Neue,Helvetica,sans-serif; font-size:48px; text-anchor:end;" transform="rotate(0, 143.279, 893.658)" x="143.279" y="893.658">400</text>
</g>
<g clip-path="url(#clip7300)">
<text style="fill:#000000; fill-opacity:1; font-family:Arial,Helvetica Neue,Helvetica,sans-serif; font-size:48px; text-anchor:end;" transform="rotate(0, 143.279, 607.327)" x="143.279" y="607.327">600</text>
</g>
<g clip-path="url(#clip7300)">
<text style="fill:#000000; fill-opacity:1; font-family:Arial,Helvetica Neue,Helvetica,sans-serif; font-size:48px; text-anchor:end;" transform="rotate(0, 143.279, 320.995)" x="143.279" y="320.995">800</text>
</g>
<g clip-path="url(#clip7300)">
<text style="fill:#000000; fill-opacity:1; font-family:Arial,Helvetica Neue,Helvetica,sans-serif; font-size:84px; text-anchor:middle;" transform="rotate(0, 1260.02, 73.2)" x="1260.02" y="73.2">Data, True Model and Best Fit</text>
</g>
<polyline clip-path="url(#clip7302)" style="stroke:#009af9; stroke-width:4; stroke-opacity:1; fill:none" points="
  744.575,1448.82 744.575,1405.87 770.347,1405.87 770.347,1305.65 796.119,1305.65 796.119,1291.34 821.891,1291.34 847.663,1291.34 847.663,1176.81 
  873.436,1176.81 873.436,1047.96 899.208,1047.96 899.208,1019.32 924.98,1019.32 924.98,861.841 950.752,861.841 976.524,861.841 976.524,947.741 
  1002.3,947.741 1002.3,919.107 1028.07,919.107 1028.07,861.841 1053.84,861.841 1053.84,904.791 1079.61,904.791 1079.61,1148.17 1105.38,1148.17 1105.38,1005.01 
  1131.16,1005.01 1131.16,1047.96 1156.93,1047.96 1156.93,1148.17 1182.7,1148.17 1182.7,1191.12 1208.47,1191.12 1208.47,1362.92 1234.25,1362.92 
  1260.02,1362.92 1285.79,1362.92 1285.79,1434.5 1311.56,1434.5 1311.56,1405.87 1337.33,1405.87 1363.11,1405.87 1363.11,1434.5 
  1388.88,1434.5 1388.88,1420.19 1414.65,1420.19 1414.65,1448.82 1440.42,1448.82 1440.42,1434.5 1466.19,1434.5 1466.19,1405.87 1491.97,1405.87 1491.97,1277.02 
  1517.74,1277.02 1517.74,1191.12 1543.51,1191.12 1569.28,1191.12 1569.28,1033.64 1595.06,1033.64 1595.06,1005.01 1620.83,1005.01 1620.83,876.158 
  1646.6,876.158 1646.6,604.143 1672.37,604.143 1672.37,690.042 1698.14,690.042 1698.14,389.395 1723.92,389.395 1723.92,518.244 1749.69,518.244 1749.69,160.33 
  1775.46,160.33 1775.46,375.078 1801.23,375.078 1801.23,575.51 1827,575.51 1827,260.546 1852.78,260.546 1852.78,561.193 1878.55,561.193 1878.55,618.46 
  1904.32,618.46 1904.32,732.992 1930.09,732.992 1930.09,861.841 1955.87,861.841 1955.87,1119.54 1981.64,1119.54 1981.64,1191.12 2007.41,1191.12 2007.41,1262.7 
  2033.18,1262.7 2033.18,1305.65 2058.95,1305.65 2058.95,1391.55 2084.73,1391.55 2084.73,1405.87 2110.5,1405.87 2110.5,1420.19 2136.27,1420.19 2136.27,1434.5 
  2162.04,1434.5 2162.04,1448.82 2187.81,1448.82 2213.59,1448.82 2239.36,1448.82 2265.13,1448.82 
  2290.9,1448.82 
  "/>
<polyline clip-path="url(#clip7302)" style="stroke:#e26f46; stroke-width:4; stroke-opacity:1; fill:none" points="
  229.132,1448.82 231.709,1448.82 234.287,1448.82 236.864,1448.82 239.441,1448.82 242.018,1448.82 244.596,1448.82 247.173,1448.82 249.75,1448.82 252.327,1448.82 
  254.904,1448.82 257.482,1448.82 260.059,1448.82 262.636,1448.82 265.213,1448.82 267.79,1448.82 270.368,1448.82 272.945,1448.82 275.522,1448.82 278.099,1448.82 
  280.677,1448.82 283.254,1448.82 285.831,1448.82 288.408,1448.82 290.985,1448.82 293.563,1448.82 296.14,1448.82 298.717,1448.82 301.294,1448.82 303.871,1448.82 
  306.449,1448.82 309.026,1448.82 311.603,1448.82 314.18,1448.82 316.758,1448.82 319.335,1448.82 321.912,1448.82 324.489,1448.82 327.066,1448.82 329.644,1448.82 
  332.221,1448.82 334.798,1448.82 337.375,1448.82 339.952,1448.82 342.53,1448.82 345.107,1448.82 347.684,1448.82 350.261,1448.82 352.838,1448.82 355.416,1448.82 
  357.993,1448.82 360.57,1448.82 363.147,1448.82 365.725,1448.82 368.302,1448.82 370.879,1448.82 373.456,1448.82 376.033,1448.82 378.611,1448.82 381.188,1448.81 
  383.765,1448.81 386.342,1448.81 388.919,1448.81 391.497,1448.81 394.074,1448.81 396.651,1448.81 399.228,1448.81 401.806,1448.81 404.383,1448.81 406.96,1448.81 
  409.537,1448.81 412.114,1448.8 414.692,1448.8 417.269,1448.8 419.846,1448.8 422.423,1448.8 425,1448.79 427.578,1448.79 430.155,1448.79 432.732,1448.79 
  435.309,1448.78 437.887,1448.78 440.464,1448.78 443.041,1448.77 445.618,1448.77 448.195,1448.76 450.773,1448.76 453.35,1448.75 455.927,1448.75 458.504,1448.74 
  461.081,1448.74 463.659,1448.73 466.236,1448.72 468.813,1448.71 471.39,1448.7 473.968,1448.69 476.545,1448.68 479.122,1448.67 481.699,1448.66 484.276,1448.64 
  486.854,1448.63 489.431,1448.61 492.008,1448.6 494.585,1448.58 497.162,1448.56 499.74,1448.54 502.317,1448.51 504.894,1448.49 507.471,1448.46 510.048,1448.43 
  512.626,1448.4 515.203,1448.37 517.78,1448.33 520.357,1448.3 522.935,1448.26 525.512,1448.21 528.089,1448.17 530.666,1448.12 533.243,1448.06 535.821,1448.01 
  538.398,1447.94 540.975,1447.88 543.552,1447.81 546.129,1447.73 548.707,1447.66 551.284,1447.57 553.861,1447.48 556.438,1447.38 559.016,1447.28 561.593,1447.17 
  564.17,1447.06 566.747,1446.93 569.324,1446.8 571.902,1446.66 574.479,1446.51 577.056,1446.35 579.633,1446.19 582.21,1446.01 584.788,1445.82 587.365,1445.62 
  589.942,1445.41 592.519,1445.18 595.097,1444.94 597.674,1444.69 600.251,1444.43 602.828,1444.14 605.405,1443.84 607.983,1443.53 610.56,1443.2 613.137,1442.85 
  615.714,1442.48 618.291,1442.08 620.869,1441.67 623.446,1441.24 626.023,1440.78 628.6,1440.3 631.178,1439.79 633.755,1439.26 636.332,1438.7 638.909,1438.11 
  641.486,1437.49 644.064,1436.84 646.641,1436.15 649.218,1435.44 651.795,1434.69 654.372,1433.9 656.95,1433.08 659.527,1432.21 662.104,1431.31 664.681,1430.36 
  667.258,1429.37 669.836,1428.34 672.413,1427.26 674.99,1426.13 677.567,1424.95 680.145,1423.73 682.722,1422.44 685.299,1421.11 687.876,1419.72 690.453,1418.27 
  693.031,1416.76 695.608,1415.19 698.185,1413.56 700.762,1411.86 703.339,1410.1 705.917,1408.27 708.494,1406.36 711.071,1404.39 713.648,1402.35 716.226,1400.23 
  718.803,1398.03 721.38,1395.76 723.957,1393.41 726.534,1390.97 729.112,1388.45 731.689,1385.85 734.266,1383.16 736.843,1380.39 739.42,1377.52 741.998,1374.57 
  744.575,1371.52 747.152,1368.39 749.729,1365.15 752.307,1361.83 754.884,1358.4 757.461,1354.88 760.038,1351.26 762.615,1347.54 765.193,1343.73 767.77,1339.81 
  770.347,1335.79 772.924,1331.67 775.501,1327.45 778.079,1323.13 780.656,1318.7 783.233,1314.17 785.81,1309.55 788.388,1304.81 790.965,1299.98 793.542,1295.05 
  796.119,1290.02 798.696,1284.89 801.274,1279.66 803.851,1274.33 806.428,1268.91 809.005,1263.4 811.582,1257.79 814.16,1252.09 816.737,1246.3 819.314,1240.42 
  821.891,1234.46 824.469,1228.42 827.046,1222.3 829.623,1216.1 832.2,1209.82 834.777,1203.48 837.355,1197.07 839.932,1190.59 842.509,1184.05 845.086,1177.46 
  847.663,1170.81 850.241,1164.12 852.818,1157.38 855.395,1150.59 857.972,1143.78 860.549,1136.93 863.127,1130.06 865.704,1123.16 868.281,1116.25 870.858,1109.33 
  873.436,1102.4 876.013,1095.47 878.59,1088.55 881.167,1081.64 883.744,1074.75 886.322,1067.88 888.899,1061.04 891.476,1054.23 894.053,1047.46 896.63,1040.75 
  899.208,1034.08 901.785,1027.48 904.362,1020.94 906.939,1014.47 909.517,1008.08 912.094,1001.78 914.671,995.568 917.248,989.454 919.825,983.443 922.403,977.542 
  924.98,971.757 927.557,966.094 930.134,960.56 932.711,955.159 935.289,949.899 937.866,944.784 940.443,939.82 943.02,935.013 945.598,930.368 948.175,925.89 
  950.752,921.584 953.329,917.455 955.906,913.509 958.484,909.748 961.061,906.179 963.638,902.804 966.215,899.628 968.792,896.654 971.37,893.886 973.947,891.328 
  976.524,888.981 979.101,886.85 981.679,884.936 984.256,883.242 986.833,881.769 989.41,880.521 991.987,879.497 994.565,878.699 997.142,878.129 999.719,877.786 
  1002.3,877.672 1004.87,877.786 1007.45,878.129 1010.03,878.699 1012.61,879.497 1015.18,880.521 1017.76,881.769 1020.34,883.242 1022.91,884.936 1025.49,886.85 
  1028.07,888.981 1030.65,891.328 1033.22,893.886 1035.8,896.654 1038.38,899.628 1040.95,902.804 1043.53,906.179 1046.11,909.748 1048.69,913.509 1051.26,917.455 
  1053.84,921.584 1056.42,925.889 1058.99,930.367 1061.57,935.012 1064.15,939.82 1066.73,944.783 1069.3,949.898 1071.88,955.159 1074.46,960.559 1077.04,966.094 
  1079.61,971.757 1082.19,977.541 1084.77,983.442 1087.34,989.453 1089.92,995.567 1092.5,1001.78 1095.08,1008.08 1097.65,1014.47 1100.23,1020.94 1102.81,1027.48 
  1105.38,1034.08 1107.96,1040.74 1110.54,1047.46 1113.12,1054.23 1115.69,1061.03 1118.27,1067.87 1120.85,1074.75 1123.43,1081.64 1126,1088.55 1128.58,1095.47 
  1131.16,1102.4 1133.73,1109.32 1136.31,1116.25 1138.89,1123.16 1141.47,1130.05 1144.04,1136.92 1146.62,1143.77 1149.2,1150.59 1151.77,1157.37 1154.35,1164.11 
  1156.93,1170.8 1159.51,1177.45 1162.08,1184.04 1164.66,1190.58 1167.24,1197.05 1169.82,1203.46 1172.39,1209.8 1174.97,1216.08 1177.55,1222.27 1180.12,1228.39 
  1182.7,1234.43 1185.28,1240.39 1187.86,1246.26 1190.43,1252.05 1193.01,1257.74 1195.59,1263.35 1198.16,1268.86 1200.74,1274.28 1203.32,1279.6 1205.9,1284.82 
  1208.47,1289.95 1211.05,1294.97 1213.63,1299.9 1216.2,1304.72 1218.78,1309.44 1221.36,1314.06 1223.94,1318.58 1226.51,1323 1229.09,1327.31 1231.67,1331.52 
  1234.25,1335.62 1236.82,1339.63 1239.4,1343.53 1241.98,1347.33 1244.55,1351.03 1247.13,1354.63 1249.71,1358.12 1252.29,1361.52 1254.86,1364.83 1257.44,1368.03 
  1260.02,1371.14 1262.59,1374.15 1265.17,1377.07 1267.75,1379.9 1270.33,1382.64 1272.9,1385.28 1275.48,1387.84 1278.06,1390.31 1280.64,1392.69 1283.21,1394.98 
  1285.79,1397.2 1288.37,1399.33 1290.94,1401.38 1293.52,1403.34 1296.1,1405.24 1298.68,1407.05 1301.25,1408.79 1303.83,1410.45 1306.41,1412.04 1308.98,1413.56 
  1311.56,1415.01 1314.14,1416.38 1316.72,1417.69 1319.29,1418.94 1321.87,1420.11 1324.45,1421.23 1327.03,1422.27 1329.6,1423.26 1332.18,1424.18 1334.76,1425.04 
  1337.33,1425.85 1339.91,1426.59 1342.49,1427.27 1345.07,1427.89 1347.64,1428.46 1350.22,1428.97 1352.8,1429.42 1355.37,1429.82 1357.95,1430.15 1360.53,1430.44 
  1363.11,1430.66 1365.68,1430.83 1368.26,1430.94 1370.84,1431 1373.41,1431 1375.99,1430.94 1378.57,1430.83 1381.15,1430.66 1383.72,1430.43 1386.3,1430.14 
  1388.88,1429.79 1391.46,1429.37 1394.03,1428.9 1396.61,1428.36 1399.19,1427.76 1401.76,1427.1 1404.34,1426.37 1406.92,1425.57 1409.5,1424.7 1412.07,1423.76 
  1414.65,1422.74 1417.23,1421.65 1419.8,1420.49 1422.38,1419.25 1424.96,1417.92 1427.54,1416.52 1430.11,1415.02 1432.69,1413.45 1435.27,1411.78 1437.85,1410.02 
  1440.42,1408.16 1443,1406.21 1445.58,1404.16 1448.15,1402.01 1450.73,1399.75 1453.31,1397.38 1455.89,1394.9 1458.46,1392.31 1461.04,1389.6 1463.62,1386.77 
  1466.19,1383.82 1468.77,1380.74 1471.35,1377.54 1473.93,1374.19 1476.5,1370.72 1479.08,1367.1 1481.66,1363.35 1484.24,1359.44 1486.81,1355.39 1489.39,1351.19 
  1491.97,1346.83 1494.54,1342.31 1497.12,1337.63 1499.7,1332.79 1502.28,1327.78 1504.85,1322.6 1507.43,1317.24 1510.01,1311.71 1512.58,1306 1515.16,1300.11 
  1517.74,1294.04 1520.32,1287.77 1522.89,1281.32 1525.47,1274.68 1528.05,1267.84 1530.62,1260.81 1533.2,1253.59 1535.78,1246.16 1538.36,1238.53 1540.93,1230.71 
  1543.51,1222.68 1546.09,1214.44 1548.67,1206.01 1551.24,1197.37 1553.82,1188.52 1556.4,1179.47 1558.97,1170.22 1561.55,1160.76 1564.13,1151.1 1566.71,1141.24 
  1569.28,1131.18 1571.86,1120.92 1574.44,1110.47 1577.01,1099.82 1579.59,1088.98 1582.17,1077.95 1584.75,1066.73 1587.32,1055.33 1589.9,1043.76 1592.48,1032.01 
  1595.06,1020.09 1597.63,1008 1600.21,995.761 1602.79,983.363 1605.36,970.817 1607.94,958.129 1610.52,945.306 1613.1,932.354 1615.67,919.28 1618.25,906.093 
  1620.83,892.799 1623.4,879.408 1625.98,865.927 1628.56,852.366 1631.14,838.733 1633.71,825.038 1636.29,811.291 1638.87,797.501 1641.45,783.679 1644.02,769.835 
  1646.6,755.98 1649.18,742.126 1651.75,728.282 1654.33,714.461 1656.91,700.675 1659.49,686.934 1662.06,673.251 1664.64,659.638 1667.22,646.107 1669.79,632.671 
  1672.37,619.342 1674.95,606.132 1677.53,593.055 1680.1,580.121 1682.68,567.345 1685.26,554.739 1687.83,542.315 1690.41,530.087 1692.99,518.065 1695.57,506.263 
  1698.14,494.694 1700.72,483.369 1703.3,472.299 1705.88,461.498 1708.45,450.977 1711.03,440.747 1713.61,430.82 1716.18,421.205 1718.76,411.915 1721.34,402.959 
  1723.92,394.348 1726.49,386.091 1729.07,378.197 1731.65,370.677 1734.22,363.537 1736.8,356.788 1739.38,350.436 1741.96,344.488 1744.53,338.953 1747.11,333.836 
  1749.69,329.143 1752.27,324.88 1754.84,321.052 1757.42,317.664 1760,314.719 1762.57,312.221 1765.15,310.173 1767.73,308.578 1770.31,307.437 1772.88,306.752 
  1775.46,306.524 1778.04,306.752 1780.61,307.437 1783.19,308.578 1785.77,310.173 1788.35,312.221 1790.92,314.719 1793.5,317.664 1796.08,321.052 1798.66,324.88 
  1801.23,329.143 1803.81,333.836 1806.39,338.953 1808.96,344.488 1811.54,350.436 1814.12,356.788 1816.7,363.538 1819.27,370.677 1821.85,378.197 1824.43,386.091 
  1827,394.348 1829.58,402.959 1832.16,411.915 1834.74,421.205 1837.31,430.82 1839.89,440.747 1842.47,450.977 1845.04,461.499 1847.62,472.3 1850.2,483.369 
  1852.78,494.694 1855.35,506.264 1857.93,518.065 1860.51,530.087 1863.09,542.316 1865.66,554.74 1868.24,567.346 1870.82,580.122 1873.39,593.055 1875.97,606.133 
  1878.55,619.343 1881.13,632.672 1883.7,646.108 1886.28,659.639 1888.86,673.252 1891.43,686.935 1894.01,700.676 1896.59,714.463 1899.17,728.284 1901.74,742.128 
  1904.32,755.982 1906.9,769.837 1909.48,783.681 1912.05,797.504 1914.63,811.294 1917.21,825.041 1919.78,838.737 1922.36,852.37 1924.94,865.932 1927.52,879.413 
  1930.09,892.805 1932.67,906.099 1935.25,919.287 1937.82,932.361 1940.4,945.314 1942.98,958.138 1945.56,970.827 1948.13,983.374 1950.71,995.773 1953.29,1008.02 
  1955.87,1020.1 1958.44,1032.02 1961.02,1043.78 1963.6,1055.35 1966.17,1066.75 1968.75,1077.97 1971.33,1089 1973.91,1099.85 1976.48,1110.5 1979.06,1120.96 
  1981.64,1131.22 1984.21,1141.28 1986.79,1151.15 1989.37,1160.81 1991.95,1170.27 1994.52,1179.53 1997.1,1188.58 1999.68,1197.43 2002.25,1206.08 2004.83,1214.52 
  2007.41,1222.76 2009.99,1230.8 2012.56,1238.63 2015.14,1246.27 2017.72,1253.7 2020.3,1260.94 2022.87,1267.98 2025.45,1274.83 2028.03,1281.49 2030.6,1287.95 
  2033.18,1294.23 2035.76,1300.32 2038.34,1306.23 2040.91,1311.95 2043.49,1317.51 2046.07,1322.88 2048.64,1328.09 2051.22,1333.12 2053.8,1337.99 2056.38,1342.7 
  2058.95,1347.25 2061.53,1351.64 2064.11,1355.88 2066.69,1359.97 2069.26,1363.91 2071.84,1367.71 2074.42,1371.37 2076.99,1374.9 2079.57,1378.29 2082.15,1381.56 
  2084.73,1384.7 2087.3,1387.71 2089.88,1390.61 2092.46,1393.4 2095.03,1396.07 2097.61,1398.63 2100.19,1401.09 2102.77,1403.44 2105.34,1405.7 2107.92,1407.86 
  2110.5,1409.93 2113.08,1411.91 2115.65,1413.8 2118.23,1415.61 2120.81,1417.33 2123.38,1418.98 2125.96,1420.56 2128.54,1422.06 2131.12,1423.49 2133.69,1424.85 
  2136.27,1426.16 2138.85,1427.39 2141.42,1428.57 2144,1429.7 2146.58,1430.76 2149.16,1431.78 2151.73,1432.74 2154.31,1433.65 2156.89,1434.52 2159.46,1435.35 
  2162.04,1436.13 2164.62,1436.87 2167.2,1437.57 2169.77,1438.24 2172.35,1438.87 2174.93,1439.47 2177.51,1440.03 2180.08,1440.56 2182.66,1441.07 2185.24,1441.54 
  2187.81,1441.99 2190.39,1442.42 2192.97,1442.82 2195.55,1443.2 2198.12,1443.55 2200.7,1443.89 2203.28,1444.2 2205.85,1444.5 2208.43,1444.78 2211.01,1445.04 
  2213.59,1445.29 2216.16,1445.52 2218.74,1445.74 2221.32,1445.95 2223.9,1446.14 2226.47,1446.32 2229.05,1446.49 2231.63,1446.65 2234.2,1446.8 2236.78,1446.94 
  2239.36,1447.07 2241.94,1447.19 2244.51,1447.3 2247.09,1447.41 2249.67,1447.51 2252.24,1447.6 2254.82,1447.69 2257.4,1447.77 2259.98,1447.85 2262.55,1447.92 
  2265.13,1447.98 2267.71,1448.05 2270.29,1448.1 2272.86,1448.16 2275.44,1448.21 2278.02,1448.25 2280.59,1448.29 2283.17,1448.33 2285.75,1448.37 2288.33,1448.4 
  2290.9,1448.44 
  "/>
<polyline clip-path="url(#clip7302)" style="stroke:#3da44d; stroke-width:4; stroke-opacity:1; fill:none" points="
  229.132,1448.82 231.709,1448.82 234.287,1448.82 236.864,1448.82 239.441,1448.82 242.018,1448.82 244.596,1448.82 247.173,1448.82 249.75,1448.82 252.327,1448.82 
  254.904,1448.82 257.482,1448.82 260.059,1448.82 262.636,1448.82 265.213,1448.82 267.79,1448.82 270.368,1448.82 272.945,1448.82 275.522,1448.82 278.099,1448.82 
  280.677,1448.82 283.254,1448.82 285.831,1448.82 288.408,1448.82 290.985,1448.82 293.563,1448.82 296.14,1448.82 298.717,1448.82 301.294,1448.82 303.871,1448.82 
  306.449,1448.82 309.026,1448.82 311.603,1448.82 314.18,1448.82 316.758,1448.82 319.335,1448.82 321.912,1448.82 324.489,1448.82 327.066,1448.82 329.644,1448.82 
  332.221,1448.82 334.798,1448.82 337.375,1448.82 339.952,1448.82 342.53,1448.82 345.107,1448.82 347.684,1448.82 350.261,1448.82 352.838,1448.82 355.416,1448.82 
  357.993,1448.82 360.57,1448.82 363.147,1448.82 365.725,1448.82 368.302,1448.82 370.879,1448.82 373.456,1448.82 376.033,1448.82 378.611,1448.82 381.188,1448.82 
  383.765,1448.82 386.342,1448.82 388.919,1448.82 391.497,1448.82 394.074,1448.82 396.651,1448.82 399.228,1448.81 401.806,1448.81 404.383,1448.81 406.96,1448.81 
  409.537,1448.81 412.114,1448.81 414.692,1448.81 417.269,1448.81 419.846,1448.81 422.423,1448.81 425,1448.81 427.578,1448.81 430.155,1448.8 432.732,1448.8 
  435.309,1448.8 437.887,1448.8 440.464,1448.8 443.041,1448.79 445.618,1448.79 448.195,1448.79 450.773,1448.79 453.35,1448.78 455.927,1448.78 458.504,1448.78 
  461.081,1448.77 463.659,1448.77 466.236,1448.76 468.813,1448.76 471.39,1448.75 473.968,1448.75 476.545,1448.74 479.122,1448.73 481.699,1448.73 484.276,1448.72 
  486.854,1448.71 489.431,1448.7 492.008,1448.69 494.585,1448.68 497.162,1448.66 499.74,1448.65 502.317,1448.64 504.894,1448.62 507.471,1448.6 510.048,1448.59 
  512.626,1448.57 515.203,1448.54 517.78,1448.52 520.357,1448.5 522.935,1448.47 525.512,1448.44 528.089,1448.41 530.666,1448.38 533.243,1448.34 535.821,1448.31 
  538.398,1448.27 540.975,1448.22 543.552,1448.18 546.129,1448.13 548.707,1448.07 551.284,1448.02 553.861,1447.95 556.438,1447.89 559.016,1447.82 561.593,1447.74 
  564.17,1447.66 566.747,1447.58 569.324,1447.49 571.902,1447.39 574.479,1447.29 577.056,1447.17 579.633,1447.06 582.21,1446.93 584.788,1446.8 587.365,1446.65 
  589.942,1446.5 592.519,1446.34 595.097,1446.17 597.674,1445.99 600.251,1445.79 602.828,1445.59 605.405,1445.37 607.983,1445.14 610.56,1444.9 613.137,1444.64 
  615.714,1444.36 618.291,1444.07 620.869,1443.77 623.446,1443.44 626.023,1443.1 628.6,1442.73 631.178,1442.35 633.755,1441.95 636.332,1441.52 638.909,1441.07 
  641.486,1440.6 644.064,1440.1 646.641,1439.57 649.218,1439.01 651.795,1438.43 654.372,1437.82 656.95,1437.17 659.527,1436.5 662.104,1435.78 664.681,1435.04 
  667.258,1434.25 669.836,1433.43 672.413,1432.57 674.99,1431.67 677.567,1430.72 680.145,1429.73 682.722,1428.7 685.299,1427.61 687.876,1426.48 690.453,1425.3 
  693.031,1424.06 695.608,1422.77 698.185,1421.43 700.762,1420.02 703.339,1418.56 705.917,1417.04 708.494,1415.45 711.071,1413.8 713.648,1412.08 716.226,1410.3 
  718.803,1408.44 721.38,1406.51 723.957,1404.51 726.534,1402.43 729.112,1400.27 731.689,1398.04 734.266,1395.72 736.843,1393.32 739.42,1390.84 741.998,1388.27 
  744.575,1385.61 747.152,1382.87 749.729,1380.03 752.307,1377.1 754.884,1374.08 757.461,1370.96 760.038,1367.74 762.615,1364.43 765.193,1361.01 767.77,1357.5 
  770.347,1353.88 772.924,1350.16 775.501,1346.34 778.079,1342.42 780.656,1338.38 783.233,1334.25 785.81,1330.01 788.388,1325.66 790.965,1321.2 793.542,1316.64 
  796.119,1311.97 798.696,1307.2 801.274,1302.31 803.851,1297.33 806.428,1292.23 809.005,1287.04 811.582,1281.74 814.16,1276.33 816.737,1270.83 819.314,1265.22 
  821.891,1259.52 824.469,1253.72 827.046,1247.82 829.623,1241.83 832.2,1235.76 834.777,1229.59 837.355,1223.34 839.932,1217 842.509,1210.58 845.086,1204.09 
  847.663,1197.53 850.241,1190.89 852.818,1184.19 855.395,1177.43 857.972,1170.6 860.549,1163.73 863.127,1156.8 865.704,1149.83 868.281,1142.82 870.858,1135.77 
  873.436,1128.7 876.013,1121.59 878.59,1114.47 881.167,1107.33 883.744,1100.19 886.322,1093.04 888.899,1085.9 891.476,1078.76 894.053,1071.64 896.63,1064.54 
  899.208,1057.47 901.785,1050.43 904.362,1043.43 906.939,1036.48 909.517,1029.58 912.094,1022.74 914.671,1015.97 917.248,1009.28 919.825,1002.66 922.403,996.129 
  924.98,989.692 927.557,983.356 930.134,977.127 932.711,971.011 935.289,965.015 937.866,959.145 940.443,953.409 943.02,947.811 945.598,942.359 948.175,937.059 
  950.752,931.916 953.329,926.936 955.906,922.125 958.484,917.489 961.061,913.033 963.638,908.762 966.215,904.681 968.792,900.794 971.37,897.108 973.947,893.625 
  976.524,890.35 979.101,887.288 981.679,884.441 984.256,881.813 986.833,879.408 989.41,877.227 991.987,875.275 994.565,873.553 997.142,872.064 999.719,870.808 
  1002.3,869.789 1004.87,869.007 1007.45,868.462 1010.03,868.157 1012.61,868.09 1015.18,868.263 1017.76,868.674 1020.34,869.324 1022.91,870.211 1025.49,871.336 
  1028.07,872.695 1030.65,874.288 1033.22,876.112 1035.8,878.165 1038.38,880.446 1040.95,882.95 1043.53,885.675 1046.11,888.618 1048.69,891.775 1051.26,895.142 
  1053.84,898.716 1056.42,902.492 1058.99,906.465 1061.57,910.631 1064.15,914.984 1066.73,919.521 1069.3,924.235 1071.88,929.121 1074.46,934.174 1077.04,939.388 
  1079.61,944.756 1082.19,950.273 1084.77,955.933 1087.34,961.729 1089.92,967.655 1092.5,973.705 1095.08,979.872 1097.65,986.15 1100.23,992.531 1102.81,999.01 
  1105.38,1005.58 1107.96,1012.23 1110.54,1018.96 1113.12,1025.76 1115.69,1032.63 1118.27,1039.55 1120.85,1046.52 1123.43,1053.54 1126,1060.59 1128.58,1067.68 
  1131.16,1074.79 1133.73,1081.92 1136.31,1089.06 1138.89,1096.2 1141.47,1103.35 1144.04,1110.49 1146.62,1117.62 1149.2,1124.74 1151.77,1131.83 1154.35,1138.89 
  1156.93,1145.92 1159.51,1152.92 1162.08,1159.87 1164.66,1166.77 1167.24,1173.62 1169.82,1180.42 1172.39,1187.15 1174.97,1193.82 1177.55,1200.43 1180.12,1206.96 
  1182.7,1213.42 1185.28,1219.8 1187.86,1226.09 1190.43,1232.3 1193.01,1238.43 1195.59,1244.47 1198.16,1250.41 1200.74,1256.26 1203.32,1262.02 1205.9,1267.67 
  1208.47,1273.23 1211.05,1278.68 1213.63,1284.04 1216.2,1289.29 1218.78,1294.43 1221.36,1299.47 1223.94,1304.4 1226.51,1309.23 1229.09,1313.95 1231.67,1318.56 
  1234.25,1323.07 1236.82,1327.46 1239.4,1331.75 1241.98,1335.93 1244.55,1340.01 1247.13,1343.98 1249.71,1347.84 1252.29,1351.6 1254.86,1355.25 1257.44,1358.8 
  1260.02,1362.25 1262.59,1365.6 1265.17,1368.84 1267.75,1371.98 1270.33,1375.03 1272.9,1377.98 1275.48,1380.83 1278.06,1383.59 1280.64,1386.26 1283.21,1388.83 
  1285.79,1391.31 1288.37,1393.7 1290.94,1396.01 1293.52,1398.23 1296.1,1400.36 1298.68,1402.41 1301.25,1404.38 1303.83,1406.27 1306.41,1408.08 1308.98,1409.82 
  1311.56,1411.47 1314.14,1413.06 1316.72,1414.56 1319.29,1416 1321.87,1417.37 1324.45,1418.66 1327.03,1419.89 1329.6,1421.05 1332.18,1422.15 1334.76,1423.18 
  1337.33,1424.15 1339.91,1425.05 1342.49,1425.89 1345.07,1426.67 1347.64,1427.39 1350.22,1428.05 1352.8,1428.65 1355.37,1429.2 1357.95,1429.68 1360.53,1430.11 
  1363.11,1430.48 1365.68,1430.79 1368.26,1431.05 1370.84,1431.24 1373.41,1431.38 1375.99,1431.47 1378.57,1431.5 1381.15,1431.47 1383.72,1431.38 1386.3,1431.23 
  1388.88,1431.02 1391.46,1430.76 1394.03,1430.43 1396.61,1430.05 1399.19,1429.6 1401.76,1429.08 1404.34,1428.51 1406.92,1427.86 1409.5,1427.15 1412.07,1426.37 
  1414.65,1425.53 1417.23,1424.6 1419.8,1423.61 1422.38,1422.54 1424.96,1421.4 1427.54,1420.17 1430.11,1418.86 1432.69,1417.47 1435.27,1416 1437.85,1414.43 
  1440.42,1412.78 1443,1411.03 1445.58,1409.18 1448.15,1407.24 1450.73,1405.2 1453.31,1403.05 1455.89,1400.79 1458.46,1398.42 1461.04,1395.95 1463.62,1393.35 
  1466.19,1390.63 1468.77,1387.8 1471.35,1384.83 1473.93,1381.74 1476.5,1378.51 1479.08,1375.15 1481.66,1371.65 1484.24,1368 1486.81,1364.21 1489.39,1360.27 
  1491.97,1356.18 1494.54,1351.93 1497.12,1347.52 1499.7,1342.95 1502.28,1338.21 1504.85,1333.3 1507.43,1328.22 1510.01,1322.96 1512.58,1317.52 1515.16,1311.9 
  1517.74,1306.1 1520.32,1300.1 1522.89,1293.92 1525.47,1287.54 1528.05,1280.96 1530.62,1274.19 1533.2,1267.22 1535.78,1260.04 1538.36,1252.66 1540.93,1245.08 
  1543.51,1237.28 1546.09,1229.28 1548.67,1221.06 1551.24,1212.64 1553.82,1204 1556.4,1195.15 1558.97,1186.09 1561.55,1176.81 1564.13,1167.33 1566.71,1157.63 
  1569.28,1147.72 1571.86,1137.6 1574.44,1127.27 1577.01,1116.74 1579.59,1106 1582.17,1095.06 1584.75,1083.92 1587.32,1072.59 1589.9,1061.06 1592.48,1049.35 
  1595.06,1037.44 1597.63,1025.36 1600.21,1013.11 1602.79,1000.68 1605.36,988.086 1607.94,975.335 1610.52,962.431 1613.1,949.381 1615.67,936.192 1618.25,922.871 
  1620.83,909.426 1623.4,895.865 1625.98,882.197 1628.56,868.43 1631.14,854.573 1633.71,840.635 1636.29,826.627 1638.87,812.559 1641.45,798.44 1644.02,784.281 
  1646.6,770.094 1649.18,755.89 1651.75,741.679 1654.33,727.474 1656.91,713.287 1659.49,699.13 1662.06,685.014 1664.64,670.954 1667.22,656.96 1669.79,643.047 
  1672.37,629.228 1674.95,615.514 1677.53,601.92 1680.1,588.458 1682.68,575.142 1685.26,561.986 1687.83,549.002 1690.41,536.204 1692.99,523.605 1695.57,511.219 
  1698.14,499.057 1700.72,487.135 1703.3,475.463 1705.88,464.056 1708.45,452.925 1711.03,442.083 1713.61,431.542 1716.18,421.314 1718.76,411.411 1721.34,401.843 
  1723.92,392.623 1726.49,383.759 1729.07,375.264 1731.65,367.147 1734.22,359.417 1736.8,352.083 1739.38,345.155 1741.96,338.64 1744.53,332.547 1747.11,326.883 
  1749.69,321.654 1752.27,316.867 1754.84,312.527 1757.42,308.641 1760,305.213 1762.57,302.247 1765.15,299.746 1767.73,297.714 1770.31,296.154 1772.88,295.066 
  1775.46,294.453 1778.04,294.316 1780.61,294.654 1783.19,295.466 1785.77,296.753 1788.35,298.513 1790.92,300.742 1793.5,303.439 1796.08,306.6 1798.66,310.222 
  1801.23,314.3 1803.81,318.828 1806.39,323.802 1808.96,329.215 1811.54,335.061 1814.12,341.332 1816.7,348.022 1819.27,355.122 1821.85,362.624 1824.43,370.518 
  1827,378.796 1829.58,387.447 1832.16,396.462 1834.74,405.83 1837.31,415.541 1839.89,425.582 1842.47,435.943 1845.04,446.612 1847.62,457.577 1850.2,468.826 
  1852.78,480.346 1855.35,492.125 1857.93,504.15 1860.51,516.408 1863.09,528.885 1865.66,541.57 1868.24,554.448 1870.82,567.506 1873.39,580.731 1875.97,594.11 
  1878.55,607.629 1881.13,621.275 1883.7,635.035 1886.28,648.896 1888.86,662.844 1891.43,676.868 1894.01,690.953 1896.59,705.088 1899.17,719.259 1901.74,733.455 
  1904.32,747.664 1906.9,761.874 1909.48,776.073 1912.05,790.249 1914.63,804.393 1917.21,818.492 1919.78,832.537 1922.36,846.516 1924.94,860.422 1927.52,874.242 
  1930.09,887.97 1932.67,901.594 1935.25,915.108 1937.82,928.502 1940.4,941.769 1942.98,954.901 1945.56,967.891 1948.13,980.733 1950.71,993.419 1953.29,1005.94 
  1955.87,1018.3 1958.44,1030.49 1961.02,1042.49 1963.6,1054.32 1966.17,1065.96 1968.75,1077.41 1971.33,1088.66 1973.91,1099.72 1976.48,1110.58 1979.06,1121.23 
  1981.64,1131.68 1984.21,1141.92 1986.79,1151.96 1989.37,1161.78 1991.95,1171.4 1994.52,1180.8 1997.1,1189.99 1999.68,1198.96 2002.25,1207.73 2004.83,1216.28 
  2007.41,1224.63 2009.99,1232.76 2012.56,1240.68 2015.14,1248.4 2017.72,1255.91 2020.3,1263.21 2022.87,1270.31 2025.45,1277.21 2028.03,1283.91 2030.6,1290.42 
  2033.18,1296.73 2035.76,1302.85 2038.34,1308.78 2040.91,1314.52 2043.49,1320.09 2046.07,1325.47 2048.64,1330.68 2051.22,1335.71 2053.8,1340.57 2056.38,1345.27 
  2058.95,1349.8 2061.53,1354.18 2064.11,1358.4 2066.69,1362.46 2069.26,1366.38 2071.84,1370.15 2074.42,1373.78 2076.99,1377.28 2079.57,1380.63 2082.15,1383.86 
  2084.73,1386.96 2087.3,1389.94 2089.88,1392.79 2092.46,1395.53 2095.03,1398.16 2097.61,1400.67 2100.19,1403.08 2102.77,1405.39 2105.34,1407.6 2107.92,1409.71 
  2110.5,1411.73 2113.08,1413.66 2115.65,1415.5 2118.23,1417.26 2120.81,1418.94 2123.38,1420.54 2125.96,1422.07 2128.54,1423.52 2131.12,1424.91 2133.69,1426.23 
  2136.27,1427.48 2138.85,1428.67 2141.42,1429.81 2144,1430.89 2146.58,1431.91 2149.16,1432.88 2151.73,1433.8 2154.31,1434.68 2156.89,1435.51 2159.46,1436.29 
  2162.04,1437.04 2164.62,1437.74 2167.2,1438.41 2169.77,1439.04 2172.35,1439.64 2174.93,1440.2 2177.51,1440.73 2180.08,1441.23 2182.66,1441.71 2185.24,1442.16 
  2187.81,1442.58 2190.39,1442.97 2192.97,1443.35 2195.55,1443.7 2198.12,1444.03 2200.7,1444.35 2203.28,1444.64 2205.85,1444.91 2208.43,1445.17 2211.01,1445.42 
  2213.59,1445.65 2216.16,1445.86 2218.74,1446.06 2221.32,1446.25 2223.9,1446.43 2226.47,1446.59 2229.05,1446.75 2231.63,1446.89 2234.2,1447.03 2236.78,1447.15 
  2239.36,1447.27 2241.94,1447.38 2244.51,1447.48 2247.09,1447.58 2249.67,1447.67 2252.24,1447.75 2254.82,1447.83 2257.4,1447.91 2259.98,1447.97 2262.55,1448.04 
  2265.13,1448.09 2267.71,1448.15 2270.29,1448.2 2272.86,1448.25 2275.44,1448.29 2278.02,1448.33 2280.59,1448.37 2283.17,1448.4 2285.75,1448.44 2288.33,1448.47 
  2290.9,1448.49 
  "/>
<path clip-path="url(#clip7300)" d="
M1893.61 447.115 L2280.76 447.115 L2280.76 205.195 L1893.61 205.195  Z
  " fill="#ffffff" fill-rule="evenodd" fill-opacity="1"/>
<polyline clip-path="url(#clip7300)" style="stroke:#000000; stroke-width:4; stroke-opacity:1; fill:none" points="
  1893.61,447.115 2280.76,447.115 2280.76,205.195 1893.61,205.195 1893.61,447.115 
  "/>
<polyline clip-path="url(#clip7300)" style="stroke:#009af9; stroke-width:4; stroke-opacity:1; fill:none" points="
  1917.61,265.675 2061.61,265.675 
  "/>
<g clip-path="url(#clip7300)">
<text style="fill:#000000; fill-opacity:1; font-family:Arial,Helvetica Neue,Helvetica,sans-serif; font-size:48px; text-anchor:start;" transform="rotate(0, 2085.61, 283.175)" x="2085.61" y="283.175">Data</text>
</g>
<polyline clip-path="url(#clip7300)" style="stroke:#e26f46; stroke-width:4; stroke-opacity:1; fill:none" points="
  1917.61,326.155 2061.61,326.155 
  "/>
<g clip-path="url(#clip7300)">
<text style="fill:#000000; fill-opacity:1; font-family:Arial,Helvetica Neue,Helvetica,sans-serif; font-size:48px; text-anchor:start;" transform="rotate(0, 2085.61, 343.655)" x="2085.61" y="343.655">Truth</text>
</g>
<polyline clip-path="url(#clip7300)" style="stroke:#3da44d; stroke-width:4; stroke-opacity:1; fill:none" points="
  1917.61,386.635 2061.61,386.635 
  "/>
<g clip-path="url(#clip7300)">
<text style="fill:#000000; fill-opacity:1; font-family:Arial,Helvetica Neue,Helvetica,sans-serif; font-size:48px; text-anchor:start;" transform="rotate(0, 2085.61, 404.135)" x="2085.61" y="404.135">Best fit</text>
</g>
</svg>
