<?xml version="1.0" encoding="utf-8"?>
<svg xmlns="http://www.w3.org/2000/svg" xmlns:xlink="http://www.w3.org/1999/xlink" width="600" height="400" viewBox="0 0 2400 1600">
<defs>
  <clipPath id="clip900">
    <rect x="0" y="0" width="2400" height="1600"/>
  </clipPath>
</defs>
<path clip-path="url(#clip900)" d="
M0 1600 L2400 1600 L2400 0 L0 0  Z
  " fill="#ffffff" fill-rule="evenodd" fill-opacity="1"/>
<defs>
  <clipPath id="clip901">
    <rect x="480" y="0" width="1681" height="1600"/>
  </clipPath>
</defs>
<path clip-path="url(#clip900)" d="
M166.205 1486.45 L2352.76 1486.45 L2352.76 123.472 L166.205 123.472  Z
  " fill="#ffffff" fill-rule="evenodd" fill-opacity="1"/>
<defs>
  <clipPath id="clip902">
    <rect x="166" y="123" width="2188" height="1364"/>
  </clipPath>
</defs>
<polyline clip-path="url(#clip902)" style="stroke:#000000; stroke-width:2; stroke-opacity:0.1; fill:none" points="
  228.088,1486.45 228.088,123.472 
  "/>
<polyline clip-path="url(#clip902)" style="stroke:#000000; stroke-width:2; stroke-opacity:0.1; fill:none" points="
  571.886,1486.45 571.886,123.472 
  "/>
<polyline clip-path="url(#clip902)" style="stroke:#000000; stroke-width:2; stroke-opacity:0.1; fill:none" points="
  915.683,1486.45 915.683,123.472 
  "/>
<polyline clip-path="url(#clip902)" style="stroke:#000000; stroke-width:2; stroke-opacity:0.1; fill:none" points="
  1259.48,1486.45 1259.48,123.472 
  "/>
<polyline clip-path="url(#clip902)" style="stroke:#000000; stroke-width:2; stroke-opacity:0.1; fill:none" points="
  1603.28,1486.45 1603.28,123.472 
  "/>
<polyline clip-path="url(#clip902)" style="stroke:#000000; stroke-width:2; stroke-opacity:0.1; fill:none" points="
  1947.08,1486.45 1947.08,123.472 
  "/>
<polyline clip-path="url(#clip902)" style="stroke:#000000; stroke-width:2; stroke-opacity:0.1; fill:none" points="
  2290.87,1486.45 2290.87,123.472 
  "/>
<polyline clip-path="url(#clip900)" style="stroke:#000000; stroke-width:4; stroke-opacity:1; fill:none" points="
  166.205,1486.45 2352.76,1486.45 
  "/>
<polyline clip-path="url(#clip900)" style="stroke:#000000; stroke-width:4; stroke-opacity:1; fill:none" points="
  228.088,1486.45 228.088,1470.09 
  "/>
<polyline clip-path="url(#clip900)" style="stroke:#000000; stroke-width:4; stroke-opacity:1; fill:none" points="
  571.886,1486.45 571.886,1470.09 
  "/>
<polyline clip-path="url(#clip900)" style="stroke:#000000; stroke-width:4; stroke-opacity:1; fill:none" points="
  915.683,1486.45 915.683,1470.09 
  "/>
<polyline clip-path="url(#clip900)" style="stroke:#000000; stroke-width:4; stroke-opacity:1; fill:none" points="
  1259.48,1486.45 1259.48,1470.09 
  "/>
<polyline clip-path="url(#clip900)" style="stroke:#000000; stroke-width:4; stroke-opacity:1; fill:none" points="
  1603.28,1486.45 1603.28,1470.09 
  "/>
<polyline clip-path="url(#clip900)" style="stroke:#000000; stroke-width:4; stroke-opacity:1; fill:none" points="
  1947.08,1486.45 1947.08,1470.09 
  "/>
<polyline clip-path="url(#clip900)" style="stroke:#000000; stroke-width:4; stroke-opacity:1; fill:none" points="
  2290.87,1486.45 2290.87,1470.09 
  "/>
<path clip-path="url(#clip900)" d="M 0 0 M200.542 1530.29 L230.218 1530.29 L230.218 1534.23 L200.542 1534.23 L200.542 1530.29 Z" fill="#000000" fill-rule="evenodd" fill-opacity="1" /><path clip-path="url(#clip900)" d="M 0 0 M239.315 1543.18 L255.634 1543.18 L255.634 1547.12 L233.69 1547.12 L233.69 1543.18 Q236.352 1540.43 240.935 1535.8 Q245.542 1531.15 246.722 1529.81 Q248.968 1527.28 249.847 1525.55 Q250.75 1523.79 250.75 1522.1 Q250.75 1519.34 248.806 1517.61 Q246.884 1515.87 243.783 1515.87 Q241.583 1515.87 239.13 1516.63 Q236.699 1517.4 233.921 1518.95 L233.921 1514.23 Q236.746 1513.09 239.199 1512.51 Q241.653 1511.93 243.69 1511.93 Q249.06 1511.93 252.255 1514.62 Q255.449 1517.31 255.449 1521.8 Q255.449 1523.93 254.639 1525.85 Q253.852 1527.74 251.745 1530.34 Q251.167 1531.01 248.065 1534.23 Q244.963 1537.42 239.315 1543.18 Z" fill="#000000" fill-rule="evenodd" fill-opacity="1" /><path clip-path="url(#clip900)" d="M 0 0 M544.154 1530.29 L573.83 1530.29 L573.83 1534.23 L544.154 1534.23 L544.154 1530.29 Z" fill="#000000" fill-rule="evenodd" fill-opacity="1" /><path clip-path="url(#clip900)" d="M 0 0 M579.71 1543.18 L587.348 1543.18 L587.348 1516.82 L579.038 1518.49 L579.038 1514.23 L587.302 1512.56 L591.978 1512.56 L591.978 1543.18 L599.617 1543.18 L599.617 1547.12 L579.71 1547.12 L579.71 1543.18 Z" fill="#000000" fill-rule="evenodd" fill-opacity="1" /><path clip-path="url(#clip900)" d="M 0 0 M915.683 1515.64 Q912.072 1515.64 910.243 1519.2 Q908.438 1522.75 908.438 1529.87 Q908.438 1536.98 910.243 1540.55 Q912.072 1544.09 915.683 1544.09 Q919.317 1544.09 921.123 1540.55 Q922.951 1536.98 922.951 1529.87 Q922.951 1522.75 921.123 1519.2 Q919.317 1515.64 915.683 1515.64 M915.683 1511.93 Q921.493 1511.93 924.549 1516.54 Q927.627 1521.12 927.627 1529.87 Q927.627 1538.6 924.549 1543.21 Q921.493 1547.79 915.683 1547.79 Q909.873 1547.79 906.794 1543.21 Q903.739 1538.6 903.739 1529.87 Q903.739 1521.12 906.794 1516.54 Q909.873 1511.93 915.683 1511.93 Z" fill="#000000" fill-rule="evenodd" fill-opacity="1" /><path clip-path="url(#clip900)" d="M 0 0 M1249.86 1543.18 L1257.5 1543.18 L1257.5 1516.82 L1249.19 1518.49 L1249.19 1514.23 L1257.45 1512.56 L1262.13 1512.56 L1262.13 1543.18 L1269.77 1543.18 L1269.77 1547.12 L1249.86 1547.12 L1249.86 1543.18 Z" fill="#000000" fill-rule="evenodd" fill-opacity="1" /><path clip-path="url(#clip900)" d="M 0 0 M1597.93 1543.18 L1614.25 1543.18 L1614.25 1547.12 L1592.31 1547.12 L1592.31 1543.18 Q1594.97 1540.43 1599.55 1535.8 Q1604.16 1531.15 1605.34 1529.81 Q1607.58 1527.28 1608.46 1525.55 Q1609.37 1523.79 1609.37 1522.1 Q1609.37 1519.34 1607.42 1517.61 Q1605.5 1515.87 1602.4 1515.87 Q1600.2 1515.87 1597.75 1516.63 Q1595.31 1517.4 1592.54 1518.95 L1592.54 1514.23 Q1595.36 1513.09 1597.81 1512.51 Q1600.27 1511.93 1602.31 1511.93 Q1607.68 1511.93 1610.87 1514.62 Q1614.06 1517.31 1614.06 1521.8 Q1614.06 1523.93 1613.25 1525.85 Q1612.47 1527.74 1610.36 1530.34 Q1609.78 1531.01 1606.68 1534.23 Q1603.58 1537.42 1597.93 1543.18 Z" fill="#000000" fill-rule="evenodd" fill-opacity="1" /><path clip-path="url(#clip900)" d="M 0 0 M1951.32 1528.49 Q1954.68 1529.2 1956.55 1531.47 Q1958.45 1533.74 1958.45 1537.07 Q1958.45 1542.19 1954.93 1544.99 Q1951.42 1547.79 1944.93 1547.79 Q1942.76 1547.79 1940.44 1547.35 Q1938.15 1546.93 1935.7 1546.08 L1935.7 1541.56 Q1937.64 1542.7 1939.96 1543.28 Q1942.27 1543.86 1944.79 1543.86 Q1949.19 1543.86 1951.48 1542.12 Q1953.8 1540.38 1953.8 1537.07 Q1953.8 1534.02 1951.65 1532.31 Q1949.52 1530.57 1945.7 1530.57 L1941.67 1530.57 L1941.67 1526.73 L1945.88 1526.73 Q1949.33 1526.73 1951.16 1525.36 Q1952.99 1523.97 1952.99 1521.38 Q1952.99 1518.72 1951.09 1517.31 Q1949.22 1515.87 1945.7 1515.87 Q1943.78 1515.87 1941.58 1516.29 Q1939.38 1516.7 1936.74 1517.58 L1936.74 1513.42 Q1939.4 1512.68 1941.72 1512.31 Q1944.05 1511.93 1946.11 1511.93 Q1951.44 1511.93 1954.54 1514.37 Q1957.64 1516.77 1957.64 1520.89 Q1957.64 1523.76 1956 1525.75 Q1954.36 1527.72 1951.32 1528.49 Z" fill="#000000" fill-rule="evenodd" fill-opacity="1" /><path clip-path="url(#clip900)" d="M 0 0 M2293.88 1516.63 L2282.08 1535.08 L2293.88 1535.08 L2293.88 1516.63 M2292.65 1512.56 L2298.53 1512.56 L2298.53 1535.08 L2303.46 1535.08 L2303.46 1538.97 L2298.53 1538.97 L2298.53 1547.12 L2293.88 1547.12 L2293.88 1538.97 L2278.28 1538.97 L2278.28 1534.46 L2292.65 1512.56 Z" fill="#000000" fill-rule="evenodd" fill-opacity="1" /><polyline clip-path="url(#clip902)" style="stroke:#000000; stroke-width:2; stroke-opacity:0.1; fill:none" points="
  166.205,1447.87 2352.76,1447.87 
  "/>
<polyline clip-path="url(#clip902)" style="stroke:#000000; stroke-width:2; stroke-opacity:0.1; fill:none" points="
  166.205,1165.27 2352.76,1165.27 
  "/>
<polyline clip-path="url(#clip902)" style="stroke:#000000; stroke-width:2; stroke-opacity:0.1; fill:none" points="
  166.205,882.675 2352.76,882.675 
  "/>
<polyline clip-path="url(#clip902)" style="stroke:#000000; stroke-width:2; stroke-opacity:0.1; fill:none" points="
  166.205,600.076 2352.76,600.076 
  "/>
<polyline clip-path="url(#clip902)" style="stroke:#000000; stroke-width:2; stroke-opacity:0.1; fill:none" points="
  166.205,317.476 2352.76,317.476 
  "/>
<polyline clip-path="url(#clip900)" style="stroke:#000000; stroke-width:4; stroke-opacity:1; fill:none" points="
  166.205,1486.45 166.205,123.472 
  "/>
<polyline clip-path="url(#clip900)" style="stroke:#000000; stroke-width:4; stroke-opacity:1; fill:none" points="
  166.205,1447.87 192.443,1447.87 
  "/>
<polyline clip-path="url(#clip900)" style="stroke:#000000; stroke-width:4; stroke-opacity:1; fill:none" points="
  166.205,1165.27 192.443,1165.27 
  "/>
<polyline clip-path="url(#clip900)" style="stroke:#000000; stroke-width:4; stroke-opacity:1; fill:none" points="
  166.205,882.675 192.443,882.675 
  "/>
<polyline clip-path="url(#clip900)" style="stroke:#000000; stroke-width:4; stroke-opacity:1; fill:none" points="
  166.205,600.076 192.443,600.076 
  "/>
<polyline clip-path="url(#clip900)" style="stroke:#000000; stroke-width:4; stroke-opacity:1; fill:none" points="
  166.205,317.476 192.443,317.476 
  "/>
<path clip-path="url(#clip900)" d="M 0 0 M118.26 1433.67 Q114.649 1433.67 112.82 1437.24 Q111.015 1440.78 111.015 1447.91 Q111.015 1455.01 112.82 1458.58 Q114.649 1462.12 118.26 1462.12 Q121.895 1462.12 123.7 1458.58 Q125.529 1455.01 125.529 1447.91 Q125.529 1440.78 123.7 1437.24 Q121.895 1433.67 118.26 1433.67 M118.26 1429.97 Q124.07 1429.97 127.126 1434.57 Q130.205 1439.16 130.205 1447.91 Q130.205 1456.63 127.126 1461.24 Q124.07 1465.82 118.26 1465.82 Q112.45 1465.82 109.371 1461.24 Q106.316 1456.63 106.316 1447.91 Q106.316 1439.16 109.371 1434.57 Q112.45 1429.97 118.26 1429.97 Z" fill="#000000" fill-rule="evenodd" fill-opacity="1" /><path clip-path="url(#clip900)" d="M 0 0 M59.8578 1178.62 L76.1772 1178.62 L76.1772 1182.55 L54.2328 1182.55 L54.2328 1178.62 Q56.8949 1175.86 61.4782 1171.23 Q66.0846 1166.58 67.2652 1165.24 Q69.5105 1162.72 70.3902 1160.98 Q71.2929 1159.22 71.2929 1157.53 Q71.2929 1154.78 69.3485 1153.04 Q67.4272 1151.3 64.3254 1151.3 Q62.1263 1151.3 59.6726 1152.07 Q57.2421 1152.83 54.4643 1154.38 L54.4643 1149.66 Q57.2884 1148.53 59.7421 1147.95 Q62.1958 1147.37 64.2328 1147.37 Q69.6031 1147.37 72.7976 1150.05 Q75.992 1152.74 75.992 1157.23 Q75.992 1159.36 75.1818 1161.28 Q74.3948 1163.18 72.2883 1165.77 Q71.7096 1166.44 68.6078 1169.66 Q65.5059 1172.85 59.8578 1178.62 Z" fill="#000000" fill-rule="evenodd" fill-opacity="1" /><path clip-path="url(#clip900)" d="M 0 0 M91.2465 1151.07 Q87.6354 1151.07 85.8068 1154.64 Q84.0012 1158.18 84.0012 1165.31 Q84.0012 1172.42 85.8068 1175.98 Q87.6354 1179.52 91.2465 1179.52 Q94.8808 1179.52 96.6863 1175.98 Q98.515 1172.42 98.515 1165.31 Q98.515 1158.18 96.6863 1154.64 Q94.8808 1151.07 91.2465 1151.07 M91.2465 1147.37 Q97.0567 1147.37 100.112 1151.98 Q103.191 1156.56 103.191 1165.31 Q103.191 1174.04 100.112 1178.64 Q97.0567 1183.23 91.2465 1183.23 Q85.4364 1183.23 82.3577 1178.64 Q79.3022 1174.04 79.3022 1165.31 Q79.3022 1156.56 82.3577 1151.98 Q85.4364 1147.37 91.2465 1147.37 Z" fill="#000000" fill-rule="evenodd" fill-opacity="1" /><path clip-path="url(#clip900)" d="M 0 0 M118.26 1151.07 Q114.649 1151.07 112.82 1154.64 Q111.015 1158.18 111.015 1165.31 Q111.015 1172.42 112.82 1175.98 Q114.649 1179.52 118.26 1179.52 Q121.895 1179.52 123.7 1175.98 Q125.529 1172.42 125.529 1165.31 Q125.529 1158.18 123.7 1154.64 Q121.895 1151.07 118.26 1151.07 M118.26 1147.37 Q124.07 1147.37 127.126 1151.98 Q130.205 1156.56 130.205 1165.31 Q130.205 1174.04 127.126 1178.64 Q124.07 1183.23 118.26 1183.23 Q112.45 1183.23 109.371 1178.64 Q106.316 1174.04 106.316 1165.31 Q106.316 1156.56 109.371 1151.98 Q112.45 1147.37 118.26 1147.37 Z" fill="#000000" fill-rule="evenodd" fill-opacity="1" /><path clip-path="url(#clip900)" d="M 0 0 M66.5939 869.469 L54.7884 887.918 L66.5939 887.918 L66.5939 869.469 M65.367 865.395 L71.2466 865.395 L71.2466 887.918 L76.1772 887.918 L76.1772 891.807 L71.2466 891.807 L71.2466 899.955 L66.5939 899.955 L66.5939 891.807 L50.9921 891.807 L50.9921 887.293 L65.367 865.395 Z" fill="#000000" fill-rule="evenodd" fill-opacity="1" /><path clip-path="url(#clip900)" d="M 0 0 M91.2465 868.473 Q87.6354 868.473 85.8068 872.038 Q84.0012 875.58 84.0012 882.709 Q84.0012 889.816 85.8068 893.381 Q87.6354 896.922 91.2465 896.922 Q94.8808 896.922 96.6863 893.381 Q98.515 889.816 98.515 882.709 Q98.515 875.58 96.6863 872.038 Q94.8808 868.473 91.2465 868.473 M91.2465 864.77 Q97.0567 864.77 100.112 869.376 Q103.191 873.96 103.191 882.709 Q103.191 891.436 100.112 896.043 Q97.0567 900.626 91.2465 900.626 Q85.4364 900.626 82.3577 896.043 Q79.3022 891.436 79.3022 882.709 Q79.3022 873.96 82.3577 869.376 Q85.4364 864.77 91.2465 864.77 Z" fill="#000000" fill-rule="evenodd" fill-opacity="1" /><path clip-path="url(#clip900)" d="M 0 0 M118.26 868.473 Q114.649 868.473 112.82 872.038 Q111.015 875.58 111.015 882.709 Q111.015 889.816 112.82 893.381 Q114.649 896.922 118.26 896.922 Q121.895 896.922 123.7 893.381 Q125.529 889.816 125.529 882.709 Q125.529 875.58 123.7 872.038 Q121.895 868.473 118.26 868.473 M118.26 864.77 Q124.07 864.77 127.126 869.376 Q130.205 873.96 130.205 882.709 Q130.205 891.436 127.126 896.043 Q124.07 900.626 118.26 900.626 Q112.45 900.626 109.371 896.043 Q106.316 891.436 106.316 882.709 Q106.316 873.96 109.371 869.376 Q112.45 864.77 118.26 864.77 Z" fill="#000000" fill-rule="evenodd" fill-opacity="1" /><path clip-path="url(#clip900)" d="M 0 0 M64.6495 598.212 Q61.5013 598.212 59.6495 600.365 Q57.8208 602.518 57.8208 606.268 Q57.8208 609.995 59.6495 612.17 Q61.5013 614.323 64.6495 614.323 Q67.7976 614.323 69.6263 612.17 Q71.4781 609.995 71.4781 606.268 Q71.4781 602.518 69.6263 600.365 Q67.7976 598.212 64.6495 598.212 M73.9318 583.559 L73.9318 587.819 Q72.1726 586.985 70.367 586.546 Q68.5846 586.106 66.8254 586.106 Q62.1958 586.106 59.7421 589.231 Q57.3115 592.356 56.9643 598.675 Q58.33 596.661 60.3902 595.596 Q62.4504 594.509 64.9272 594.509 Q70.1355 594.509 73.1448 597.68 Q76.1772 600.828 76.1772 606.268 Q76.1772 611.592 73.029 614.809 Q69.8809 618.027 64.6495 618.027 Q58.6541 618.027 55.4828 613.444 Q52.3116 608.837 52.3116 600.11 Q52.3116 591.916 56.2004 587.055 Q60.0893 582.171 66.6402 582.171 Q68.3994 582.171 70.1818 582.518 Q71.9874 582.865 73.9318 583.559 Z" fill="#000000" fill-rule="evenodd" fill-opacity="1" /><path clip-path="url(#clip900)" d="M 0 0 M91.2465 585.874 Q87.6354 585.874 85.8068 589.439 Q84.0012 592.981 84.0012 600.11 Q84.0012 607.217 85.8068 610.782 Q87.6354 614.323 91.2465 614.323 Q94.8808 614.323 96.6863 610.782 Q98.515 607.217 98.515 600.11 Q98.515 592.981 96.6863 589.439 Q94.8808 585.874 91.2465 585.874 M91.2465 582.171 Q97.0567 582.171 100.112 586.777 Q103.191 591.36 103.191 600.11 Q103.191 608.837 100.112 613.444 Q97.0567 618.027 91.2465 618.027 Q85.4364 618.027 82.3577 613.444 Q79.3022 608.837 79.3022 600.11 Q79.3022 591.36 82.3577 586.777 Q85.4364 582.171 91.2465 582.171 Z" fill="#000000" fill-rule="evenodd" fill-opacity="1" /><path clip-path="url(#clip900)" d="M 0 0 M118.26 585.874 Q114.649 585.874 112.82 589.439 Q111.015 592.981 111.015 600.11 Q111.015 607.217 112.82 610.782 Q114.649 614.323 118.26 614.323 Q121.895 614.323 123.7 610.782 Q125.529 607.217 125.529 600.11 Q125.529 592.981 123.7 589.439 Q121.895 585.874 118.26 585.874 M118.26 582.171 Q124.07 582.171 127.126 586.777 Q130.205 591.36 130.205 600.11 Q130.205 608.837 127.126 613.444 Q124.07 618.027 118.26 618.027 Q112.45 618.027 109.371 613.444 Q106.316 608.837 106.316 600.11 Q106.316 591.36 109.371 586.777 Q112.45 582.171 118.26 582.171 Z" fill="#000000" fill-rule="evenodd" fill-opacity="1" /><path clip-path="url(#clip900)" d="M 0 0 M64.3254 318.345 Q60.9921 318.345 59.0708 320.127 Q57.1726 321.909 57.1726 325.034 Q57.1726 328.159 59.0708 329.942 Q60.9921 331.724 64.3254 331.724 Q67.6587 331.724 69.58 329.942 Q71.5013 328.136 71.5013 325.034 Q71.5013 321.909 69.58 320.127 Q67.6819 318.345 64.3254 318.345 M59.6495 316.354 Q56.6402 315.613 54.9504 313.553 Q53.2838 311.493 53.2838 308.53 Q53.2838 304.386 56.2236 301.979 Q59.1865 299.571 64.3254 299.571 Q69.4874 299.571 72.4272 301.979 Q75.367 304.386 75.367 308.53 Q75.367 311.493 73.6772 313.553 Q72.0105 315.613 69.0244 316.354 Q72.404 317.141 74.279 319.432 Q76.1772 321.724 76.1772 325.034 Q76.1772 330.057 73.0985 332.743 Q70.0429 335.428 64.3254 335.428 Q58.6078 335.428 55.5291 332.743 Q52.4736 330.057 52.4736 325.034 Q52.4736 321.724 54.3717 319.432 Q56.2699 317.141 59.6495 316.354 M57.9365 308.97 Q57.9365 311.655 59.6032 313.159 Q61.293 314.664 64.3254 314.664 Q67.3346 314.664 69.0244 313.159 Q70.7374 311.655 70.7374 308.97 Q70.7374 306.284 69.0244 304.78 Q67.3346 303.275 64.3254 303.275 Q61.293 303.275 59.6032 304.78 Q57.9365 306.284 57.9365 308.97 Z" fill="#000000" fill-rule="evenodd" fill-opacity="1" /><path clip-path="url(#clip900)" d="M 0 0 M91.2465 303.275 Q87.6354 303.275 85.8068 306.84 Q84.0012 310.382 84.0012 317.511 Q84.0012 324.618 85.8068 328.182 Q87.6354 331.724 91.2465 331.724 Q94.8808 331.724 96.6863 328.182 Q98.515 324.618 98.515 317.511 Q98.515 310.382 96.6863 306.84 Q94.8808 303.275 91.2465 303.275 M91.2465 299.571 Q97.0567 299.571 100.112 304.178 Q103.191 308.761 103.191 317.511 Q103.191 326.238 100.112 330.844 Q97.0567 335.428 91.2465 335.428 Q85.4364 335.428 82.3577 330.844 Q79.3022 326.238 79.3022 317.511 Q79.3022 308.761 82.3577 304.178 Q85.4364 299.571 91.2465 299.571 Z" fill="#000000" fill-rule="evenodd" fill-opacity="1" /><path clip-path="url(#clip900)" d="M 0 0 M118.26 303.275 Q114.649 303.275 112.82 306.84 Q111.015 310.382 111.015 317.511 Q111.015 324.618 112.82 328.182 Q114.649 331.724 118.26 331.724 Q121.895 331.724 123.7 328.182 Q125.529 324.618 125.529 317.511 Q125.529 310.382 123.7 306.84 Q121.895 303.275 118.26 303.275 M118.26 299.571 Q124.07 299.571 127.126 304.178 Q130.205 308.761 130.205 317.511 Q130.205 326.238 127.126 330.844 Q124.07 335.428 118.26 335.428 Q112.45 335.428 109.371 330.844 Q106.316 326.238 106.316 317.511 Q106.316 308.761 109.371 304.178 Q112.45 299.571 118.26 299.571 Z" fill="#000000" fill-rule="evenodd" fill-opacity="1" /><path clip-path="url(#clip900)" d="M 0 0 M1183.67 18.8205 L1183.67 65.8515 L1193.55 65.8515 Q1206.07 65.8515 1211.86 60.1802 Q1217.7 54.509 1217.7 42.2752 Q1217.7 30.1225 1211.86 24.4918 Q1206.07 18.8205 1193.55 18.8205 L1183.67 18.8205 M1175.48 12.096 L1192.3 12.096 Q1209.88 12.096 1218.1 19.4281 Q1226.32 26.7198 1226.32 42.2752 Q1226.32 57.9117 1218.06 65.2439 Q1209.8 72.576 1192.3 72.576 L1175.48 72.576 L1175.48 12.096 Z" fill="#000000" fill-rule="evenodd" fill-opacity="1" /><path clip-path="url(#clip900)" d="M 0 0 M1254.76 49.7694 Q1245.73 49.7694 1242.24 51.8354 Q1238.76 53.9013 1238.76 58.8839 Q1238.76 62.8538 1241.35 65.2034 Q1243.99 67.5124 1248.48 67.5124 Q1254.68 67.5124 1258.41 63.1374 Q1262.17 58.7219 1262.17 51.4303 L1262.17 49.7694 L1254.76 49.7694 M1269.63 46.6907 L1269.63 72.576 L1262.17 72.576 L1262.17 65.6895 Q1259.62 69.8214 1255.81 71.8063 Q1252.01 73.7508 1246.5 73.7508 Q1239.53 73.7508 1235.4 69.8619 Q1231.31 65.9325 1231.31 59.3701 Q1231.31 51.7138 1236.41 47.825 Q1241.56 43.9361 1251.72 43.9361 L1262.17 43.9361 L1262.17 43.2069 Q1262.17 38.0623 1258.77 35.2672 Q1255.41 32.4315 1249.29 32.4315 Q1245.4 32.4315 1241.72 33.3632 Q1238.03 34.295 1234.63 36.1584 L1234.63 29.2718 Q1238.72 27.692 1242.57 26.9223 Q1246.42 26.1121 1250.06 26.1121 Q1259.91 26.1121 1264.77 31.2163 Q1269.63 36.3204 1269.63 46.6907 Z" fill="#000000" fill-rule="evenodd" fill-opacity="1" /><path clip-path="url(#clip900)" d="M 0 0 M1284.82 14.324 L1284.82 27.2059 L1300.17 27.2059 L1300.17 32.9987 L1284.82 32.9987 L1284.82 57.6282 Q1284.82 63.1779 1286.32 64.7578 Q1287.86 66.3376 1292.52 66.3376 L1300.17 66.3376 L1300.17 72.576 L1292.52 72.576 Q1283.89 72.576 1280.61 69.3758 Q1277.32 66.1351 1277.32 57.6282 L1277.32 32.9987 L1271.86 32.9987 L1271.86 27.2059 L1277.32 27.2059 L1277.32 14.324 L1284.82 14.324 Z" fill="#000000" fill-rule="evenodd" fill-opacity="1" /><path clip-path="url(#clip900)" d="M 0 0 M1328.61 49.7694 Q1319.58 49.7694 1316.09 51.8354 Q1312.61 53.9013 1312.61 58.8839 Q1312.61 62.8538 1315.2 65.2034 Q1317.83 67.5124 1322.33 67.5124 Q1328.53 67.5124 1332.25 63.1374 Q1336.02 58.7219 1336.02 51.4303 L1336.02 49.7694 L1328.61 49.7694 M1343.48 46.6907 L1343.48 72.576 L1336.02 72.576 L1336.02 65.6895 Q1333.47 69.8214 1329.66 71.8063 Q1325.85 73.7508 1320.35 73.7508 Q1313.38 73.7508 1309.25 69.8619 Q1305.15 65.9325 1305.15 59.3701 Q1305.15 51.7138 1310.26 47.825 Q1315.4 43.9361 1325.57 43.9361 L1336.02 43.9361 L1336.02 43.2069 Q1336.02 38.0623 1332.62 35.2672 Q1329.26 32.4315 1323.14 32.4315 Q1319.25 32.4315 1315.57 33.3632 Q1311.88 34.295 1308.48 36.1584 L1308.48 29.2718 Q1312.57 27.692 1316.42 26.9223 Q1320.26 26.1121 1323.91 26.1121 Q1333.75 26.1121 1338.61 31.2163 Q1343.48 36.3204 1343.48 46.6907 Z" fill="#000000" fill-rule="evenodd" fill-opacity="1" /><polyline clip-path="url(#clip902)" style="stroke:#009af9; stroke-width:4; stroke-opacity:1; fill:none" points="
  228.088,1447.87 228.088,1278.31 262.468,1278.31 262.468,1320.7 296.848,1320.7 296.848,1348.96 331.227,1348.96 331.227,1052.23 365.607,1052.23 365.607,1108.75 
  399.987,1108.75 399.987,981.584 434.367,981.584 434.367,1151.14 468.746,1151.14 468.746,1023.97 503.126,1023.97 503.126,981.584 537.506,981.584 537.506,826.155 
  571.886,826.155 571.886,812.025 606.265,812.025 606.265,1023.97 640.645,1023.97 640.645,953.325 675.025,953.325 709.405,953.325 709.405,1052.23 
  743.784,1052.23 743.784,1250.05 778.164,1250.05 778.164,1207.66 812.544,1207.66 846.923,1207.66 846.923,1320.7 881.303,1320.7 881.303,1348.96 
  915.683,1348.96 915.683,1391.35 950.063,1391.35 984.442,1391.35 984.442,1433.74 1018.82,1433.74 1018.82,1419.61 1053.2,1419.61 1053.2,1405.48 
  1087.58,1405.48 1087.58,1419.61 1121.96,1419.61 1156.34,1419.61 1156.34,1433.74 1190.72,1433.74 1190.72,1377.22 1225.1,1377.22 1225.1,1306.57 
  1259.48,1306.57 1259.48,1250.05 1293.86,1250.05 1293.86,1235.92 1328.24,1235.92 1328.24,1066.36 1362.62,1066.36 1397,1066.36 1397,698.985 
  1431.38,698.985 1431.38,487.036 1465.76,487.036 1465.76,628.336 1500.14,628.336 1500.14,472.906 1534.52,472.906 1534.52,585.946 1568.9,585.946 1568.9,444.646 
  1603.28,444.646 1603.28,162.047 1637.66,162.047 1637.66,373.996 1672.04,373.996 1672.04,501.166 1706.42,501.166 1706.42,458.776 1740.8,458.776 1740.8,727.245 
  1775.18,727.245 1775.18,840.285 1809.56,840.285 1809.56,1009.84 1843.94,1009.84 1843.94,1038.1 1878.32,1038.1 1878.32,1165.27 1912.7,1165.27 1912.7,1221.79 
  1947.08,1221.79 1947.08,1348.96 1981.45,1348.96 1981.45,1334.83 2015.83,1334.83 2015.83,1447.87 2050.21,1447.87 2050.21,1433.74 2084.59,1433.74 
  2118.97,1433.74 2118.97,1447.87 2153.35,1447.87 2187.73,1447.87 2222.11,1447.87 2256.49,1447.87 
  2290.87,1447.87 
  "/>
<path clip-path="url(#clip900)" d="
M1940.93 289.865 L2279.87 289.865 L2279.87 168.905 L1940.93 168.905  Z
  " fill="#ffffff" fill-rule="evenodd" fill-opacity="1"/>
<polyline clip-path="url(#clip900)" style="stroke:#000000; stroke-width:4; stroke-opacity:1; fill:none" points="
  1940.93,289.865 2279.87,289.865 2279.87,168.905 1940.93,168.905 1940.93,289.865 
  "/>
<polyline clip-path="url(#clip900)" style="stroke:#009af9; stroke-width:4; stroke-opacity:1; fill:none" points="
  1965.22,229.385 2110.99,229.385 
  "/>
<path clip-path="url(#clip900)" d="M 0 0 M2139.96 215.947 L2139.96 242.822 L2145.61 242.822 Q2152.76 242.822 2156.07 239.581 Q2159.41 236.341 2159.41 229.35 Q2159.41 222.406 2156.07 219.188 Q2152.76 215.947 2145.61 215.947 L2139.96 215.947 M2135.29 212.105 L2144.89 212.105 Q2154.94 212.105 2159.64 216.294 Q2164.34 220.461 2164.34 229.35 Q2164.34 238.285 2159.61 242.475 Q2154.89 246.665 2144.89 246.665 L2135.29 246.665 L2135.29 212.105 Z" fill="#000000" fill-rule="evenodd" fill-opacity="1" /><path clip-path="url(#clip900)" d="M 0 0 M2180.59 233.632 Q2175.42 233.632 2173.43 234.813 Q2171.44 235.993 2171.44 238.841 Q2171.44 241.109 2172.92 242.452 Q2174.43 243.771 2177 243.771 Q2180.54 243.771 2182.67 241.271 Q2184.82 238.748 2184.82 234.581 L2184.82 233.632 L2180.59 233.632 M2189.08 231.873 L2189.08 246.665 L2184.82 246.665 L2184.82 242.729 Q2183.36 245.091 2181.19 246.225 Q2179.01 247.336 2175.86 247.336 Q2171.88 247.336 2169.52 245.114 Q2167.18 242.868 2167.18 239.118 Q2167.18 234.743 2170.1 232.521 Q2173.04 230.299 2178.85 230.299 L2184.82 230.299 L2184.82 229.882 Q2184.82 226.943 2182.88 225.345 Q2180.96 223.725 2177.46 223.725 Q2175.24 223.725 2173.13 224.257 Q2171.03 224.79 2169.08 225.855 L2169.08 221.919 Q2171.42 221.017 2173.62 220.577 Q2175.82 220.114 2177.9 220.114 Q2183.53 220.114 2186.3 223.031 Q2189.08 225.947 2189.08 231.873 Z" fill="#000000" fill-rule="evenodd" fill-opacity="1" /><path clip-path="url(#clip900)" d="M 0 0 M2197.76 213.378 L2197.76 220.739 L2206.54 220.739 L2206.54 224.049 L2197.76 224.049 L2197.76 238.123 Q2197.76 241.294 2198.62 242.197 Q2199.5 243.1 2202.16 243.1 L2206.54 243.1 L2206.54 246.665 L2202.16 246.665 Q2197.23 246.665 2195.36 244.836 Q2193.48 242.984 2193.48 238.123 L2193.48 224.049 L2190.36 224.049 L2190.36 220.739 L2193.48 220.739 L2193.48 213.378 L2197.76 213.378 Z" fill="#000000" fill-rule="evenodd" fill-opacity="1" /><path clip-path="url(#clip900)" d="M 0 0 M2222.79 233.632 Q2217.62 233.632 2215.63 234.813 Q2213.64 235.993 2213.64 238.841 Q2213.64 241.109 2215.12 242.452 Q2216.63 243.771 2219.2 243.771 Q2222.74 243.771 2224.87 241.271 Q2227.02 238.748 2227.02 234.581 L2227.02 233.632 L2222.79 233.632 M2231.28 231.873 L2231.28 246.665 L2227.02 246.665 L2227.02 242.729 Q2225.56 245.091 2223.39 246.225 Q2221.21 247.336 2218.06 247.336 Q2214.08 247.336 2211.72 245.114 Q2209.38 242.868 2209.38 239.118 Q2209.38 234.743 2212.3 232.521 Q2215.24 230.299 2221.05 230.299 L2227.02 230.299 L2227.02 229.882 Q2227.02 226.943 2225.08 225.345 Q2223.16 223.725 2219.66 223.725 Q2217.44 223.725 2215.33 224.257 Q2213.23 224.79 2211.28 225.855 L2211.28 221.919 Q2213.62 221.017 2215.82 220.577 Q2218.02 220.114 2220.1 220.114 Q2225.73 220.114 2228.5 223.031 Q2231.28 225.947 2231.28 231.873 Z" fill="#000000" fill-rule="evenodd" fill-opacity="1" /></svg>
