<?xml version="1.0" encoding="utf-8"?>
<svg xmlns="http://www.w3.org/2000/svg" xmlns:xlink="http://www.w3.org/1999/xlink" width="600" height="400" viewBox="0 0 2400 1600">
<defs>
  <clipPath id="clip160">
    <rect x="0" y="0" width="2400" height="1600"/>
  </clipPath>
</defs>
<path clip-path="url(#clip160)" d="
M0 1600 L2400 1600 L2400 0 L0 0  Z
  " fill="#ffffff" fill-rule="evenodd" fill-opacity="1"/>
<defs>
  <clipPath id="clip161">
    <rect x="480" y="0" width="1681" height="1600"/>
  </clipPath>
</defs>
<path clip-path="url(#clip160)" d="
M166.205 1486.45 L2352.76 1486.45 L2352.76 123.472 L166.205 123.472  Z
  " fill="#ffffff" fill-rule="evenodd" fill-opacity="1"/>
<defs>
  <clipPath id="clip162">
    <rect x="166" y="123" width="2188" height="1364"/>
  </clipPath>
</defs>
<polyline clip-path="url(#clip162)" style="stroke:#000000; stroke-width:2; stroke-opacity:0.1; fill:none" points="
  228.088,1486.45 228.088,123.472 
  "/>
<polyline clip-path="url(#clip162)" style="stroke:#000000; stroke-width:2; stroke-opacity:0.1; fill:none" points="
  571.886,1486.45 571.886,123.472 
  "/>
<polyline clip-path="url(#clip162)" style="stroke:#000000; stroke-width:2; stroke-opacity:0.1; fill:none" points="
  915.683,1486.45 915.683,123.472 
  "/>
<polyline clip-path="url(#clip162)" style="stroke:#000000; stroke-width:2; stroke-opacity:0.1; fill:none" points="
  1259.48,1486.45 1259.48,123.472 
  "/>
<polyline clip-path="url(#clip162)" style="stroke:#000000; stroke-width:2; stroke-opacity:0.1; fill:none" points="
  1603.28,1486.45 1603.28,123.472 
  "/>
<polyline clip-path="url(#clip162)" style="stroke:#000000; stroke-width:2; stroke-opacity:0.1; fill:none" points="
  1947.08,1486.45 1947.08,123.472 
  "/>
<polyline clip-path="url(#clip162)" style="stroke:#000000; stroke-width:2; stroke-opacity:0.1; fill:none" points="
  2290.87,1486.45 2290.87,123.472 
  "/>
<polyline clip-path="url(#clip162)" style="stroke:#000000; stroke-width:2; stroke-opacity:0.1; fill:none" points="
  166.205,1447.87 2352.76,1447.87 
  "/>
<polyline clip-path="url(#clip162)" style="stroke:#000000; stroke-width:2; stroke-opacity:0.1; fill:none" points="
  166.205,1155.64 2352.76,1155.64 
  "/>
<polyline clip-path="url(#clip162)" style="stroke:#000000; stroke-width:2; stroke-opacity:0.1; fill:none" points="
  166.205,863.407 2352.76,863.407 
  "/>
<polyline clip-path="url(#clip162)" style="stroke:#000000; stroke-width:2; stroke-opacity:0.1; fill:none" points="
  166.205,571.173 2352.76,571.173 
  "/>
<polyline clip-path="url(#clip162)" style="stroke:#000000; stroke-width:2; stroke-opacity:0.1; fill:none" points="
  166.205,278.94 2352.76,278.94 
  "/>
<polyline clip-path="url(#clip160)" style="stroke:#000000; stroke-width:4; stroke-opacity:1; fill:none" points="
  166.205,1486.45 2352.76,1486.45 
  "/>
<polyline clip-path="url(#clip160)" style="stroke:#000000; stroke-width:4; stroke-opacity:1; fill:none" points="
  166.205,1486.45 166.205,123.472 
  "/>
<polyline clip-path="url(#clip160)" style="stroke:#000000; stroke-width:4; stroke-opacity:1; fill:none" points="
  228.088,1486.45 228.088,1470.09 
  "/>
<polyline clip-path="url(#clip160)" style="stroke:#000000; stroke-width:4; stroke-opacity:1; fill:none" points="
  571.886,1486.45 571.886,1470.09 
  "/>
<polyline clip-path="url(#clip160)" style="stroke:#000000; stroke-width:4; stroke-opacity:1; fill:none" points="
  915.683,1486.45 915.683,1470.09 
  "/>
<polyline clip-path="url(#clip160)" style="stroke:#000000; stroke-width:4; stroke-opacity:1; fill:none" points="
  1259.48,1486.45 1259.48,1470.09 
  "/>
<polyline clip-path="url(#clip160)" style="stroke:#000000; stroke-width:4; stroke-opacity:1; fill:none" points="
  1603.28,1486.45 1603.28,1470.09 
  "/>
<polyline clip-path="url(#clip160)" style="stroke:#000000; stroke-width:4; stroke-opacity:1; fill:none" points="
  1947.08,1486.45 1947.08,1470.09 
  "/>
<polyline clip-path="url(#clip160)" style="stroke:#000000; stroke-width:4; stroke-opacity:1; fill:none" points="
  2290.87,1486.45 2290.87,1470.09 
  "/>
<polyline clip-path="url(#clip160)" style="stroke:#000000; stroke-width:4; stroke-opacity:1; fill:none" points="
  166.205,1447.87 192.443,1447.87 
  "/>
<polyline clip-path="url(#clip160)" style="stroke:#000000; stroke-width:4; stroke-opacity:1; fill:none" points="
  166.205,1155.64 192.443,1155.64 
  "/>
<polyline clip-path="url(#clip160)" style="stroke:#000000; stroke-width:4; stroke-opacity:1; fill:none" points="
  166.205,863.407 192.443,863.407 
  "/>
<polyline clip-path="url(#clip160)" style="stroke:#000000; stroke-width:4; stroke-opacity:1; fill:none" points="
  166.205,571.173 192.443,571.173 
  "/>
<polyline clip-path="url(#clip160)" style="stroke:#000000; stroke-width:4; stroke-opacity:1; fill:none" points="
  166.205,278.94 192.443,278.94 
  "/>
<path clip-path="url(#clip160)" d="M 0 0 M209.142 1525.04 L221.618 1525.04 L221.618 1528.83 L209.142 1528.83 L209.142 1525.04 Z" fill="#000000" fill-rule="evenodd" fill-opacity="1" /><path clip-path="url(#clip160)" d="M 0 0 M230.715 1535.98 L247.035 1535.98 L247.035 1539.92 L225.091 1539.92 L225.091 1535.98 Q227.753 1533.23 232.336 1528.6 Q236.942 1523.95 238.123 1522.61 Q240.368 1520.08 241.248 1518.35 Q242.151 1516.59 242.151 1514.9 Q242.151 1512.14 240.206 1510.41 Q238.285 1508.67 235.183 1508.67 Q232.984 1508.67 230.53 1509.43 Q228.1 1510.2 225.322 1511.75 L225.322 1507.03 Q228.146 1505.89 230.6 1505.31 Q233.053 1504.73 235.09 1504.73 Q240.461 1504.73 243.655 1507.42 Q246.85 1510.11 246.85 1514.6 Q246.85 1516.73 246.039 1518.65 Q245.252 1520.54 243.146 1523.14 Q242.567 1523.81 239.465 1527.03 Q236.364 1530.22 230.715 1535.98 Z" fill="#000000" fill-rule="evenodd" fill-opacity="1" /><path clip-path="url(#clip160)" d="M 0 0 M552.754 1525.04 L565.23 1525.04 L565.23 1528.83 L552.754 1528.83 L552.754 1525.04 Z" fill="#000000" fill-rule="evenodd" fill-opacity="1" /><path clip-path="url(#clip160)" d="M 0 0 M571.11 1535.98 L578.749 1535.98 L578.749 1509.62 L570.439 1511.29 L570.439 1507.03 L578.703 1505.36 L583.379 1505.36 L583.379 1535.98 L591.017 1535.98 L591.017 1539.92 L571.11 1539.92 L571.11 1535.98 Z" fill="#000000" fill-rule="evenodd" fill-opacity="1" /><path clip-path="url(#clip160)" d="M 0 0 M915.683 1508.44 Q912.072 1508.44 910.243 1512 Q908.438 1515.55 908.438 1522.67 Q908.438 1529.78 910.243 1533.35 Q912.072 1536.89 915.683 1536.89 Q919.317 1536.89 921.123 1533.35 Q922.951 1529.78 922.951 1522.67 Q922.951 1515.55 921.123 1512 Q919.317 1508.44 915.683 1508.44 M915.683 1504.73 Q921.493 1504.73 924.549 1509.34 Q927.627 1513.92 927.627 1522.67 Q927.627 1531.4 924.549 1536.01 Q921.493 1540.59 915.683 1540.59 Q909.873 1540.59 906.794 1536.01 Q903.739 1531.4 903.739 1522.67 Q903.739 1513.92 906.794 1509.34 Q909.873 1504.73 915.683 1504.73 Z" fill="#000000" fill-rule="evenodd" fill-opacity="1" /><path clip-path="url(#clip160)" d="M 0 0 M1249.86 1535.98 L1257.5 1535.98 L1257.5 1509.62 L1249.19 1511.29 L1249.19 1507.03 L1257.45 1505.36 L1262.13 1505.36 L1262.13 1535.98 L1269.77 1535.98 L1269.77 1539.92 L1249.86 1539.92 L1249.86 1535.98 Z" fill="#000000" fill-rule="evenodd" fill-opacity="1" /><path clip-path="url(#clip160)" d="M 0 0 M1597.93 1535.98 L1614.25 1535.98 L1614.25 1539.92 L1592.31 1539.92 L1592.31 1535.98 Q1594.97 1533.23 1599.55 1528.6 Q1604.16 1523.95 1605.34 1522.61 Q1607.58 1520.08 1608.46 1518.35 Q1609.37 1516.59 1609.37 1514.9 Q1609.37 1512.14 1607.42 1510.41 Q1605.5 1508.67 1602.4 1508.67 Q1600.2 1508.67 1597.75 1509.43 Q1595.31 1510.2 1592.54 1511.75 L1592.54 1507.03 Q1595.36 1505.89 1597.81 1505.31 Q1600.27 1504.73 1602.31 1504.73 Q1607.68 1504.73 1610.87 1507.42 Q1614.06 1510.11 1614.06 1514.6 Q1614.06 1516.73 1613.25 1518.65 Q1612.47 1520.54 1610.36 1523.14 Q1609.78 1523.81 1606.68 1527.03 Q1603.58 1530.22 1597.93 1535.98 Z" fill="#000000" fill-rule="evenodd" fill-opacity="1" /><path clip-path="url(#clip160)" d="M 0 0 M1951.32 1521.29 Q1954.68 1522 1956.55 1524.27 Q1958.45 1526.54 1958.45 1529.87 Q1958.45 1534.99 1954.93 1537.79 Q1951.42 1540.59 1944.93 1540.59 Q1942.76 1540.59 1940.44 1540.15 Q1938.15 1539.73 1935.7 1538.88 L1935.7 1534.36 Q1937.64 1535.5 1939.96 1536.08 Q1942.27 1536.66 1944.79 1536.66 Q1949.19 1536.66 1951.48 1534.92 Q1953.8 1533.18 1953.8 1529.87 Q1953.8 1526.82 1951.65 1525.11 Q1949.52 1523.37 1945.7 1523.37 L1941.67 1523.37 L1941.67 1519.53 L1945.88 1519.53 Q1949.33 1519.53 1951.16 1518.16 Q1952.99 1516.77 1952.99 1514.18 Q1952.99 1511.52 1951.09 1510.11 Q1949.22 1508.67 1945.7 1508.67 Q1943.78 1508.67 1941.58 1509.09 Q1939.38 1509.5 1936.74 1510.38 L1936.74 1506.22 Q1939.4 1505.48 1941.72 1505.11 Q1944.05 1504.73 1946.11 1504.73 Q1951.44 1504.73 1954.54 1507.17 Q1957.64 1509.57 1957.64 1513.69 Q1957.64 1516.56 1956 1518.55 Q1954.36 1520.52 1951.32 1521.29 Z" fill="#000000" fill-rule="evenodd" fill-opacity="1" /><path clip-path="url(#clip160)" d="M 0 0 M2293.88 1509.43 L2282.08 1527.88 L2293.88 1527.88 L2293.88 1509.43 M2292.65 1505.36 L2298.53 1505.36 L2298.53 1527.88 L2303.46 1527.88 L2303.46 1531.77 L2298.53 1531.77 L2298.53 1539.92 L2293.88 1539.92 L2293.88 1531.77 L2278.28 1531.77 L2278.28 1527.26 L2292.65 1505.36 Z" fill="#000000" fill-rule="evenodd" fill-opacity="1" /><path clip-path="url(#clip160)" d="M 0 0 M130.26 1433.67 Q126.649 1433.67 124.82 1437.24 Q123.015 1440.78 123.015 1447.91 Q123.015 1455.01 124.82 1458.58 Q126.649 1462.12 130.26 1462.12 Q133.895 1462.12 135.7 1458.58 Q137.529 1455.01 137.529 1447.91 Q137.529 1440.78 135.7 1437.24 Q133.895 1433.67 130.26 1433.67 M130.26 1429.97 Q136.07 1429.97 139.126 1434.57 Q142.205 1439.16 142.205 1447.91 Q142.205 1456.63 139.126 1461.24 Q136.07 1465.82 130.26 1465.82 Q124.45 1465.82 121.371 1461.24 Q118.316 1456.63 118.316 1447.91 Q118.316 1439.16 121.371 1434.57 Q124.45 1429.97 130.26 1429.97 Z" fill="#000000" fill-rule="evenodd" fill-opacity="1" /><path clip-path="url(#clip160)" d="M 0 0 M71.8578 1168.98 L88.1772 1168.98 L88.1772 1172.92 L66.2328 1172.92 L66.2328 1168.98 Q68.8949 1166.23 73.4782 1161.6 Q78.0846 1156.95 79.2652 1155.61 Q81.5105 1153.08 82.3902 1151.35 Q83.2929 1149.59 83.2929 1147.9 Q83.2929 1145.14 81.3485 1143.41 Q79.4272 1141.67 76.3254 1141.67 Q74.1263 1141.67 71.6726 1142.43 Q69.2421 1143.2 66.4643 1144.75 L66.4643 1140.03 Q69.2884 1138.89 71.7421 1138.31 Q74.1958 1137.73 76.2328 1137.73 Q81.6031 1137.73 84.7976 1140.42 Q87.992 1143.11 87.992 1147.6 Q87.992 1149.73 87.1818 1151.65 Q86.3948 1153.54 84.2883 1156.14 Q83.7096 1156.81 80.6078 1160.03 Q77.5059 1163.22 71.8578 1168.98 Z" fill="#000000" fill-rule="evenodd" fill-opacity="1" /><path clip-path="url(#clip160)" d="M 0 0 M103.247 1141.44 Q99.6354 1141.44 97.8068 1145 Q96.0012 1148.54 96.0012 1155.67 Q96.0012 1162.78 97.8068 1166.35 Q99.6354 1169.89 103.247 1169.89 Q106.881 1169.89 108.686 1166.35 Q110.515 1162.78 110.515 1155.67 Q110.515 1148.54 108.686 1145 Q106.881 1141.44 103.247 1141.44 M103.247 1137.73 Q109.057 1137.73 112.112 1142.34 Q115.191 1146.92 115.191 1155.67 Q115.191 1164.4 112.112 1169.01 Q109.057 1173.59 103.247 1173.59 Q97.4364 1173.59 94.3577 1169.01 Q91.3022 1164.4 91.3022 1155.67 Q91.3022 1146.92 94.3577 1142.34 Q97.4364 1137.73 103.247 1137.73 Z" fill="#000000" fill-rule="evenodd" fill-opacity="1" /><path clip-path="url(#clip160)" d="M 0 0 M130.26 1141.44 Q126.649 1141.44 124.82 1145 Q123.015 1148.54 123.015 1155.67 Q123.015 1162.78 124.82 1166.35 Q126.649 1169.89 130.26 1169.89 Q133.895 1169.89 135.7 1166.35 Q137.529 1162.78 137.529 1155.67 Q137.529 1148.54 135.7 1145 Q133.895 1141.44 130.26 1141.44 M130.26 1137.73 Q136.07 1137.73 139.126 1142.34 Q142.205 1146.92 142.205 1155.67 Q142.205 1164.4 139.126 1169.01 Q136.07 1173.59 130.26 1173.59 Q124.45 1173.59 121.371 1169.01 Q118.316 1164.4 118.316 1155.67 Q118.316 1146.92 121.371 1142.34 Q124.45 1137.73 130.26 1137.73 Z" fill="#000000" fill-rule="evenodd" fill-opacity="1" /><path clip-path="url(#clip160)" d="M 0 0 M78.5939 850.201 L66.7884 868.65 L78.5939 868.65 L78.5939 850.201 M77.367 846.127 L83.2466 846.127 L83.2466 868.65 L88.1772 868.65 L88.1772 872.539 L83.2466 872.539 L83.2466 880.687 L78.5939 880.687 L78.5939 872.539 L62.9921 872.539 L62.9921 868.025 L77.367 846.127 Z" fill="#000000" fill-rule="evenodd" fill-opacity="1" /><path clip-path="url(#clip160)" d="M 0 0 M103.247 849.205 Q99.6354 849.205 97.8068 852.77 Q96.0012 856.312 96.0012 863.441 Q96.0012 870.548 97.8068 874.113 Q99.6354 877.654 103.247 877.654 Q106.881 877.654 108.686 874.113 Q110.515 870.548 110.515 863.441 Q110.515 856.312 108.686 852.77 Q106.881 849.205 103.247 849.205 M103.247 845.502 Q109.057 845.502 112.112 850.108 Q115.191 854.691 115.191 863.441 Q115.191 872.168 112.112 876.775 Q109.057 881.358 103.247 881.358 Q97.4364 881.358 94.3577 876.775 Q91.3022 872.168 91.3022 863.441 Q91.3022 854.691 94.3577 850.108 Q97.4364 845.502 103.247 845.502 Z" fill="#000000" fill-rule="evenodd" fill-opacity="1" /><path clip-path="url(#clip160)" d="M 0 0 M130.26 849.205 Q126.649 849.205 124.82 852.77 Q123.015 856.312 123.015 863.441 Q123.015 870.548 124.82 874.113 Q126.649 877.654 130.26 877.654 Q133.895 877.654 135.7 874.113 Q137.529 870.548 137.529 863.441 Q137.529 856.312 135.7 852.77 Q133.895 849.205 130.26 849.205 M130.26 845.502 Q136.07 845.502 139.126 850.108 Q142.205 854.691 142.205 863.441 Q142.205 872.168 139.126 876.775 Q136.07 881.358 130.26 881.358 Q124.45 881.358 121.371 876.775 Q118.316 872.168 118.316 863.441 Q118.316 854.691 121.371 850.108 Q124.45 845.502 130.26 845.502 Z" fill="#000000" fill-rule="evenodd" fill-opacity="1" /><path clip-path="url(#clip160)" d="M 0 0 M76.6495 569.31 Q73.5013 569.31 71.6495 571.463 Q69.8208 573.616 69.8208 577.366 Q69.8208 581.092 71.6495 583.268 Q73.5013 585.421 76.6495 585.421 Q79.7976 585.421 81.6263 583.268 Q83.4781 581.092 83.4781 577.366 Q83.4781 573.616 81.6263 571.463 Q79.7976 569.31 76.6495 569.31 M85.9318 554.657 L85.9318 558.917 Q84.1726 558.083 82.367 557.643 Q80.5846 557.204 78.8254 557.204 Q74.1958 557.204 71.7421 560.329 Q69.3115 563.454 68.9643 569.773 Q70.33 567.759 72.3902 566.694 Q74.4504 565.606 76.9272 565.606 Q82.1355 565.606 85.1448 568.778 Q88.1772 571.926 88.1772 577.366 Q88.1772 582.69 85.029 585.907 Q81.8809 589.125 76.6495 589.125 Q70.6541 589.125 67.4828 584.541 Q64.3116 579.935 64.3116 571.208 Q64.3116 563.014 68.2004 558.153 Q72.0893 553.268 78.6402 553.268 Q80.3994 553.268 82.1818 553.616 Q83.9874 553.963 85.9318 554.657 Z" fill="#000000" fill-rule="evenodd" fill-opacity="1" /><path clip-path="url(#clip160)" d="M 0 0 M103.247 556.972 Q99.6354 556.972 97.8068 560.537 Q96.0012 564.079 96.0012 571.208 Q96.0012 578.315 97.8068 581.879 Q99.6354 585.421 103.247 585.421 Q106.881 585.421 108.686 581.879 Q110.515 578.315 110.515 571.208 Q110.515 564.079 108.686 560.537 Q106.881 556.972 103.247 556.972 M103.247 553.268 Q109.057 553.268 112.112 557.875 Q115.191 562.458 115.191 571.208 Q115.191 579.935 112.112 584.541 Q109.057 589.125 103.247 589.125 Q97.4364 589.125 94.3577 584.541 Q91.3022 579.935 91.3022 571.208 Q91.3022 562.458 94.3577 557.875 Q97.4364 553.268 103.247 553.268 Z" fill="#000000" fill-rule="evenodd" fill-opacity="1" /><path clip-path="url(#clip160)" d="M 0 0 M130.26 556.972 Q126.649 556.972 124.82 560.537 Q123.015 564.079 123.015 571.208 Q123.015 578.315 124.82 581.879 Q126.649 585.421 130.26 585.421 Q133.895 585.421 135.7 581.879 Q137.529 578.315 137.529 571.208 Q137.529 564.079 135.7 560.537 Q133.895 556.972 130.26 556.972 M130.26 553.268 Q136.07 553.268 139.126 557.875 Q142.205 562.458 142.205 571.208 Q142.205 579.935 139.126 584.541 Q136.07 589.125 130.26 589.125 Q124.45 589.125 121.371 584.541 Q118.316 579.935 118.316 571.208 Q118.316 562.458 121.371 557.875 Q124.45 553.268 130.26 553.268 Z" fill="#000000" fill-rule="evenodd" fill-opacity="1" /><path clip-path="url(#clip160)" d="M 0 0 M76.3254 279.808 Q72.9921 279.808 71.0708 281.591 Q69.1726 283.373 69.1726 286.498 Q69.1726 289.623 71.0708 291.405 Q72.9921 293.188 76.3254 293.188 Q79.6587 293.188 81.58 291.405 Q83.5013 289.6 83.5013 286.498 Q83.5013 283.373 81.58 281.591 Q79.6819 279.808 76.3254 279.808 M71.6495 277.818 Q68.6402 277.077 66.9504 275.017 Q65.2838 272.956 65.2838 269.993 Q65.2838 265.85 68.2236 263.443 Q71.1865 261.035 76.3254 261.035 Q81.4874 261.035 84.4272 263.443 Q87.367 265.85 87.367 269.993 Q87.367 272.956 85.6772 275.017 Q84.0105 277.077 81.0244 277.818 Q84.404 278.605 86.279 280.896 Q88.1772 283.188 88.1772 286.498 Q88.1772 291.521 85.0985 294.206 Q82.0429 296.891 76.3254 296.891 Q70.6078 296.891 67.5291 294.206 Q64.4736 291.521 64.4736 286.498 Q64.4736 283.188 66.3717 280.896 Q68.2699 278.605 71.6495 277.818 M69.9365 270.433 Q69.9365 273.118 71.6032 274.623 Q73.293 276.128 76.3254 276.128 Q79.3346 276.128 81.0244 274.623 Q82.7374 273.118 82.7374 270.433 Q82.7374 267.748 81.0244 266.244 Q79.3346 264.739 76.3254 264.739 Q73.293 264.739 71.6032 266.244 Q69.9365 267.748 69.9365 270.433 Z" fill="#000000" fill-rule="evenodd" fill-opacity="1" /><path clip-path="url(#clip160)" d="M 0 0 M103.247 264.739 Q99.6354 264.739 97.8068 268.304 Q96.0012 271.845 96.0012 278.975 Q96.0012 286.081 97.8068 289.646 Q99.6354 293.188 103.247 293.188 Q106.881 293.188 108.686 289.646 Q110.515 286.081 110.515 278.975 Q110.515 271.845 108.686 268.304 Q106.881 264.739 103.247 264.739 M103.247 261.035 Q109.057 261.035 112.112 265.642 Q115.191 270.225 115.191 278.975 Q115.191 287.702 112.112 292.308 Q109.057 296.891 103.247 296.891 Q97.4364 296.891 94.3577 292.308 Q91.3022 287.702 91.3022 278.975 Q91.3022 270.225 94.3577 265.642 Q97.4364 261.035 103.247 261.035 Z" fill="#000000" fill-rule="evenodd" fill-opacity="1" /><path clip-path="url(#clip160)" d="M 0 0 M130.26 264.739 Q126.649 264.739 124.82 268.304 Q123.015 271.845 123.015 278.975 Q123.015 286.081 124.82 289.646 Q126.649 293.188 130.26 293.188 Q133.895 293.188 135.7 289.646 Q137.529 286.081 137.529 278.975 Q137.529 271.845 135.7 268.304 Q133.895 264.739 130.26 264.739 M130.26 261.035 Q136.07 261.035 139.126 265.642 Q142.205 270.225 142.205 278.975 Q142.205 287.702 139.126 292.308 Q136.07 296.891 130.26 296.891 Q124.45 296.891 121.371 292.308 Q118.316 287.702 118.316 278.975 Q118.316 270.225 121.371 265.642 Q124.45 261.035 130.26 261.035 Z" fill="#000000" fill-rule="evenodd" fill-opacity="1" /><path clip-path="url(#clip160)" d="M 0 0 M1183.67 18.8205 L1183.67 65.8515 L1193.55 65.8515 Q1206.07 65.8515 1211.86 60.1802 Q1217.7 54.509 1217.7 42.2752 Q1217.7 30.1225 1211.86 24.4918 Q1206.07 18.8205 1193.55 18.8205 L1183.67 18.8205 M1175.48 12.096 L1192.3 12.096 Q1209.88 12.096 1218.1 19.4281 Q1226.32 26.7198 1226.32 42.2752 Q1226.32 57.9117 1218.06 65.2439 Q1209.8 72.576 1192.3 72.576 L1175.48 72.576 L1175.48 12.096 Z" fill="#000000" fill-rule="evenodd" fill-opacity="1" /><path clip-path="url(#clip160)" d="M 0 0 M1254.76 49.7694 Q1245.73 49.7694 1242.24 51.8354 Q1238.76 53.9013 1238.76 58.8839 Q1238.76 62.8538 1241.35 65.2034 Q1243.99 67.5124 1248.48 67.5124 Q1254.68 67.5124 1258.41 63.1374 Q1262.17 58.7219 1262.17 51.4303 L1262.17 49.7694 L1254.76 49.7694 M1269.63 46.6907 L1269.63 72.576 L1262.17 72.576 L1262.17 65.6895 Q1259.62 69.8214 1255.81 71.8063 Q1252.01 73.7508 1246.5 73.7508 Q1239.53 73.7508 1235.4 69.8619 Q1231.31 65.9325 1231.31 59.3701 Q1231.31 51.7138 1236.41 47.825 Q1241.56 43.9361 1251.72 43.9361 L1262.17 43.9361 L1262.17 43.2069 Q1262.17 38.0623 1258.77 35.2672 Q1255.41 32.4315 1249.29 32.4315 Q1245.4 32.4315 1241.72 33.3632 Q1238.03 34.295 1234.63 36.1584 L1234.63 29.2718 Q1238.72 27.692 1242.57 26.9223 Q1246.42 26.1121 1250.06 26.1121 Q1259.91 26.1121 1264.77 31.2163 Q1269.63 36.3204 1269.63 46.6907 Z" fill="#000000" fill-rule="evenodd" fill-opacity="1" /><path clip-path="url(#clip160)" d="M 0 0 M1284.82 14.324 L1284.82 27.2059 L1300.17 27.2059 L1300.17 32.9987 L1284.82 32.9987 L1284.82 57.6282 Q1284.82 63.1779 1286.32 64.7578 Q1287.86 66.3376 1292.52 66.3376 L1300.17 66.3376 L1300.17 72.576 L1292.52 72.576 Q1283.89 72.576 1280.61 69.3758 Q1277.32 66.1351 1277.32 57.6282 L1277.32 32.9987 L1271.86 32.9987 L1271.86 27.2059 L1277.32 27.2059 L1277.32 14.324 L1284.82 14.324 Z" fill="#000000" fill-rule="evenodd" fill-opacity="1" /><path clip-path="url(#clip160)" d="M 0 0 M1328.61 49.7694 Q1319.58 49.7694 1316.09 51.8354 Q1312.61 53.9013 1312.61 58.8839 Q1312.61 62.8538 1315.2 65.2034 Q1317.83 67.5124 1322.33 67.5124 Q1328.53 67.5124 1332.25 63.1374 Q1336.02 58.7219 1336.02 51.4303 L1336.02 49.7694 L1328.61 49.7694 M1343.48 46.6907 L1343.48 72.576 L1336.02 72.576 L1336.02 65.6895 Q1333.47 69.8214 1329.66 71.8063 Q1325.85 73.7508 1320.35 73.7508 Q1313.38 73.7508 1309.25 69.8619 Q1305.15 65.9325 1305.15 59.3701 Q1305.15 51.7138 1310.26 47.825 Q1315.4 43.9361 1325.57 43.9361 L1336.02 43.9361 L1336.02 43.2069 Q1336.02 38.0623 1332.62 35.2672 Q1329.26 32.4315 1323.14 32.4315 Q1319.25 32.4315 1315.57 33.3632 Q1311.88 34.295 1308.48 36.1584 L1308.48 29.2718 Q1312.57 27.692 1316.42 26.9223 Q1320.26 26.1121 1323.91 26.1121 Q1333.75 26.1121 1338.61 31.2163 Q1343.48 36.3204 1343.48 46.6907 Z" fill="#000000" fill-rule="evenodd" fill-opacity="1" /><polyline clip-path="url(#clip162)" style="stroke:#009af9; stroke-width:4; stroke-opacity:1; fill:none" points="
  228.088,1447.87 228.088,1374.81 262.468,1374.81 262.468,1360.2 296.848,1360.2 296.848,1214.09 331.227,1214.09 365.607,1214.09 365.607,1111.8 
  399.987,1111.8 399.987,1067.97 434.367,1067.97 434.367,892.63 468.746,892.63 468.746,848.795 503.126,848.795 537.506,848.795 537.506,761.125 
  571.886,761.125 571.886,804.96 606.265,804.96 606.265,1038.75 640.645,1038.75 640.645,1082.58 675.025,1082.58 709.405,1082.58 709.405,1053.36 
  743.784,1053.36 743.784,1111.8 778.164,1111.8 778.164,1214.09 812.544,1214.09 812.544,1316.37 846.923,1316.37 846.923,1301.76 881.303,1301.76 
  915.683,1301.76 915.683,1404.04 950.063,1404.04 950.063,1374.81 984.442,1374.81 984.442,1433.26 1018.82,1433.26 1018.82,1418.65 1053.2,1418.65 1053.2,1433.26 
  1087.58,1433.26 1121.96,1433.26 1156.34,1433.26 1156.34,1374.81 1190.72,1374.81 1190.72,1345.59 1225.1,1345.59 1225.1,1287.14 
  1259.48,1287.14 1259.48,1214.09 1293.86,1214.09 1328.24,1214.09 1328.24,1038.75 1362.62,1038.75 1362.62,965.688 1397,965.688 1397,848.795 
  1431.38,848.795 1431.38,644.232 1465.76,644.232 1465.76,425.057 1500.14,425.057 1500.14,337.387 1534.52,337.387 1534.52,162.047 1568.9,162.047 1568.9,176.659 
  1603.28,176.659 1603.28,425.057 1637.66,425.057 1637.66,483.503 1672.04,483.503 1672.04,381.222 1706.42,381.222 1706.42,615.008 1740.8,615.008 1740.8,688.067 
  1775.18,688.067 1775.18,848.795 1809.56,848.795 1809.56,951.077 1843.94,951.077 1843.94,1097.19 1878.32,1097.19 1878.32,1257.92 1912.7,1257.92 1912.7,1301.76 
  1947.08,1301.76 1947.08,1243.31 1981.45,1243.31 1981.45,1360.2 2015.83,1360.2 2015.83,1418.65 2050.21,1418.65 2050.21,1447.87 2084.59,1447.87 
  2118.97,1447.87 2118.97,1433.26 2153.35,1433.26 2153.35,1447.87 2187.73,1447.87 2222.11,1447.87 2256.49,1447.87 
  2290.87,1447.87 
  "/>
<path clip-path="url(#clip160)" d="
M1944.76 327.952 L2280.76 327.952 L2280.76 206.992 L1944.76 206.992  Z
  " fill="#ffffff" fill-rule="evenodd" fill-opacity="1"/>
<polyline clip-path="url(#clip160)" style="stroke:#000000; stroke-width:4; stroke-opacity:1; fill:none" points="
  1944.76,327.952 2280.76,327.952 2280.76,206.992 1944.76,206.992 1944.76,327.952 
  "/>
<polyline clip-path="url(#clip160)" style="stroke:#009af9; stroke-width:4; stroke-opacity:1; fill:none" points="
  1968.76,267.472 2112.76,267.472 
  "/>
<path clip-path="url(#clip160)" d="M 0 0 M2141.44 254.035 L2141.44 280.91 L2147.09 280.91 Q2154.24 280.91 2157.55 277.669 Q2160.88 274.428 2160.88 267.437 Q2160.88 260.493 2157.55 257.275 Q2154.24 254.035 2147.09 254.035 L2141.44 254.035 M2136.76 250.192 L2146.37 250.192 Q2156.41 250.192 2161.11 254.382 Q2165.81 258.549 2165.81 267.437 Q2165.81 276.373 2161.09 280.562 Q2156.37 284.752 2146.37 284.752 L2136.76 284.752 L2136.76 250.192 Z" fill="#000000" fill-rule="evenodd" fill-opacity="1" /><path clip-path="url(#clip160)" d="M 0 0 M2182.06 271.72 Q2176.9 271.72 2174.91 272.9 Q2172.92 274.081 2172.92 276.928 Q2172.92 279.197 2174.4 280.539 Q2175.9 281.859 2178.47 281.859 Q2182.02 281.859 2184.15 279.359 Q2186.3 276.836 2186.3 272.669 L2186.3 271.72 L2182.06 271.72 M2190.56 269.961 L2190.56 284.752 L2186.3 284.752 L2186.3 280.817 Q2184.84 283.178 2182.66 284.312 Q2180.49 285.423 2177.34 285.423 Q2173.36 285.423 2171 283.201 Q2168.66 280.956 2168.66 277.206 Q2168.66 272.831 2171.58 270.609 Q2174.52 268.386 2180.33 268.386 L2186.3 268.386 L2186.3 267.97 Q2186.3 265.03 2184.35 263.433 Q2182.43 261.812 2178.94 261.812 Q2176.71 261.812 2174.61 262.345 Q2172.5 262.877 2170.56 263.942 L2170.56 260.007 Q2172.9 259.104 2175.09 258.664 Q2177.29 258.201 2179.38 258.201 Q2185 258.201 2187.78 261.118 Q2190.56 264.035 2190.56 269.961 Z" fill="#000000" fill-rule="evenodd" fill-opacity="1" /><path clip-path="url(#clip160)" d="M 0 0 M2199.24 251.465 L2199.24 258.826 L2208.01 258.826 L2208.01 262.137 L2199.24 262.137 L2199.24 276.211 Q2199.24 279.382 2200.09 280.285 Q2200.97 281.187 2203.64 281.187 L2208.01 281.187 L2208.01 284.752 L2203.64 284.752 Q2198.71 284.752 2196.83 282.923 Q2194.96 281.072 2194.96 276.211 L2194.96 262.137 L2191.83 262.137 L2191.83 258.826 L2194.96 258.826 L2194.96 251.465 L2199.24 251.465 Z" fill="#000000" fill-rule="evenodd" fill-opacity="1" /><path clip-path="url(#clip160)" d="M 0 0 M2224.26 271.72 Q2219.1 271.72 2217.11 272.9 Q2215.12 274.081 2215.12 276.928 Q2215.12 279.197 2216.6 280.539 Q2218.1 281.859 2220.67 281.859 Q2224.21 281.859 2226.34 279.359 Q2228.5 276.836 2228.5 272.669 L2228.5 271.72 L2224.26 271.72 M2232.76 269.961 L2232.76 284.752 L2228.5 284.752 L2228.5 280.817 Q2227.04 283.178 2224.86 284.312 Q2222.69 285.423 2219.54 285.423 Q2215.56 285.423 2213.2 283.201 Q2210.86 280.956 2210.86 277.206 Q2210.86 272.831 2213.77 270.609 Q2216.71 268.386 2222.52 268.386 L2228.5 268.386 L2228.5 267.97 Q2228.5 265.03 2226.55 263.433 Q2224.63 261.812 2221.14 261.812 Q2218.91 261.812 2216.81 262.345 Q2214.7 262.877 2212.76 263.942 L2212.76 260.007 Q2215.09 259.104 2217.29 258.664 Q2219.49 258.201 2221.58 258.201 Q2227.2 258.201 2229.98 261.118 Q2232.76 264.035 2232.76 269.961 Z" fill="#000000" fill-rule="evenodd" fill-opacity="1" /></svg>
