<?xml version="1.0" encoding="utf-8"?>
<svg xmlns="http://www.w3.org/2000/svg" xmlns:xlink="http://www.w3.org/1999/xlink" width="600" height="400" viewBox="0 0 2400 1600">
<defs>
  <clipPath id="clip920">
    <rect x="0" y="0" width="2400" height="1600"/>
  </clipPath>
</defs>
<path clip-path="url(#clip920)" d="
M0 1600 L2400 1600 L2400 0 L0 0  Z
  " fill="#ffffff" fill-rule="evenodd" fill-opacity="1"/>
<defs>
  <clipPath id="clip921">
    <rect x="480" y="0" width="1681" height="1600"/>
  </clipPath>
</defs>
<path clip-path="url(#clip920)" d="
M166.205 1486.45 L2352.76 1486.45 L2352.76 123.472 L166.205 123.472  Z
  " fill="#ffffff" fill-rule="evenodd" fill-opacity="1"/>
<defs>
  <clipPath id="clip922">
    <rect x="166" y="123" width="2188" height="1364"/>
  </clipPath>
</defs>
<polyline clip-path="url(#clip922)" style="stroke:#000000; stroke-width:2; stroke-opacity:0.1; fill:none" points="
  228.088,1486.45 228.088,123.472 
  "/>
<polyline clip-path="url(#clip922)" style="stroke:#000000; stroke-width:2; stroke-opacity:0.1; fill:none" points="
  571.886,1486.45 571.886,123.472 
  "/>
<polyline clip-path="url(#clip922)" style="stroke:#000000; stroke-width:2; stroke-opacity:0.1; fill:none" points="
  915.683,1486.45 915.683,123.472 
  "/>
<polyline clip-path="url(#clip922)" style="stroke:#000000; stroke-width:2; stroke-opacity:0.1; fill:none" points="
  1259.48,1486.45 1259.48,123.472 
  "/>
<polyline clip-path="url(#clip922)" style="stroke:#000000; stroke-width:2; stroke-opacity:0.1; fill:none" points="
  1603.28,1486.45 1603.28,123.472 
  "/>
<polyline clip-path="url(#clip922)" style="stroke:#000000; stroke-width:2; stroke-opacity:0.1; fill:none" points="
  1947.08,1486.45 1947.08,123.472 
  "/>
<polyline clip-path="url(#clip922)" style="stroke:#000000; stroke-width:2; stroke-opacity:0.1; fill:none" points="
  2290.87,1486.45 2290.87,123.472 
  "/>
<polyline clip-path="url(#clip920)" style="stroke:#000000; stroke-width:4; stroke-opacity:1; fill:none" points="
  166.205,1486.45 2352.76,1486.45 
  "/>
<polyline clip-path="url(#clip920)" style="stroke:#000000; stroke-width:4; stroke-opacity:1; fill:none" points="
  228.088,1486.45 228.088,1470.09 
  "/>
<polyline clip-path="url(#clip920)" style="stroke:#000000; stroke-width:4; stroke-opacity:1; fill:none" points="
  571.886,1486.45 571.886,1470.09 
  "/>
<polyline clip-path="url(#clip920)" style="stroke:#000000; stroke-width:4; stroke-opacity:1; fill:none" points="
  915.683,1486.45 915.683,1470.09 
  "/>
<polyline clip-path="url(#clip920)" style="stroke:#000000; stroke-width:4; stroke-opacity:1; fill:none" points="
  1259.48,1486.45 1259.48,1470.09 
  "/>
<polyline clip-path="url(#clip920)" style="stroke:#000000; stroke-width:4; stroke-opacity:1; fill:none" points="
  1603.28,1486.45 1603.28,1470.09 
  "/>
<polyline clip-path="url(#clip920)" style="stroke:#000000; stroke-width:4; stroke-opacity:1; fill:none" points="
  1947.08,1486.45 1947.08,1470.09 
  "/>
<polyline clip-path="url(#clip920)" style="stroke:#000000; stroke-width:4; stroke-opacity:1; fill:none" points="
  2290.87,1486.45 2290.87,1470.09 
  "/>
<path clip-path="url(#clip920)" d="M 0 0 M200.542 1530.29 L230.218 1530.29 L230.218 1534.23 L200.542 1534.23 L200.542 1530.29 Z" fill="#000000" fill-rule="evenodd" fill-opacity="1" /><path clip-path="url(#clip920)" d="M 0 0 M239.315 1543.18 L255.634 1543.18 L255.634 1547.12 L233.69 1547.12 L233.69 1543.18 Q236.352 1540.43 240.935 1535.8 Q245.542 1531.15 246.722 1529.81 Q248.968 1527.28 249.847 1525.55 Q250.75 1523.79 250.75 1522.1 Q250.75 1519.34 248.806 1517.61 Q246.884 1515.87 243.783 1515.87 Q241.583 1515.87 239.13 1516.63 Q236.699 1517.4 233.921 1518.95 L233.921 1514.23 Q236.746 1513.09 239.199 1512.51 Q241.653 1511.93 243.69 1511.93 Q249.06 1511.93 252.255 1514.62 Q255.449 1517.31 255.449 1521.8 Q255.449 1523.93 254.639 1525.85 Q253.852 1527.74 251.745 1530.34 Q251.167 1531.01 248.065 1534.23 Q244.963 1537.42 239.315 1543.18 Z" fill="#000000" fill-rule="evenodd" fill-opacity="1" /><path clip-path="url(#clip920)" d="M 0 0 M544.154 1530.29 L573.83 1530.29 L573.83 1534.23 L544.154 1534.23 L544.154 1530.29 Z" fill="#000000" fill-rule="evenodd" fill-opacity="1" /><path clip-path="url(#clip920)" d="M 0 0 M579.71 1543.18 L587.348 1543.18 L587.348 1516.82 L579.038 1518.49 L579.038 1514.23 L587.302 1512.56 L591.978 1512.56 L591.978 1543.18 L599.617 1543.18 L599.617 1547.12 L579.71 1547.12 L579.71 1543.18 Z" fill="#000000" fill-rule="evenodd" fill-opacity="1" /><path clip-path="url(#clip920)" d="M 0 0 M915.683 1515.64 Q912.072 1515.64 910.243 1519.2 Q908.438 1522.75 908.438 1529.87 Q908.438 1536.98 910.243 1540.55 Q912.072 1544.09 915.683 1544.09 Q919.317 1544.09 921.123 1540.55 Q922.951 1536.98 922.951 1529.87 Q922.951 1522.75 921.123 1519.2 Q919.317 1515.64 915.683 1515.64 M915.683 1511.93 Q921.493 1511.93 924.549 1516.54 Q927.627 1521.12 927.627 1529.87 Q927.627 1538.6 924.549 1543.21 Q921.493 1547.79 915.683 1547.79 Q909.873 1547.79 906.794 1543.21 Q903.739 1538.6 903.739 1529.87 Q903.739 1521.12 906.794 1516.54 Q909.873 1511.93 915.683 1511.93 Z" fill="#000000" fill-rule="evenodd" fill-opacity="1" /><path clip-path="url(#clip920)" d="M 0 0 M1249.86 1543.18 L1257.5 1543.18 L1257.5 1516.82 L1249.19 1518.49 L1249.19 1514.23 L1257.45 1512.56 L1262.13 1512.56 L1262.13 1543.18 L1269.77 1543.18 L1269.77 1547.12 L1249.86 1547.12 L1249.86 1543.18 Z" fill="#000000" fill-rule="evenodd" fill-opacity="1" /><path clip-path="url(#clip920)" d="M 0 0 M1597.93 1543.18 L1614.25 1543.18 L1614.25 1547.12 L1592.31 1547.12 L1592.31 1543.18 Q1594.97 1540.43 1599.55 1535.8 Q1604.16 1531.15 1605.34 1529.81 Q1607.58 1527.28 1608.46 1525.55 Q1609.37 1523.79 1609.37 1522.1 Q1609.37 1519.34 1607.42 1517.61 Q1605.5 1515.87 1602.4 1515.87 Q1600.2 1515.87 1597.75 1516.63 Q1595.31 1517.4 1592.54 1518.95 L1592.54 1514.23 Q1595.36 1513.09 1597.81 1512.51 Q1600.27 1511.93 1602.31 1511.93 Q1607.68 1511.93 1610.87 1514.62 Q1614.06 1517.31 1614.06 1521.8 Q1614.06 1523.93 1613.25 1525.85 Q1612.47 1527.74 1610.36 1530.34 Q1609.78 1531.01 1606.68 1534.23 Q1603.58 1537.42 1597.93 1543.18 Z" fill="#000000" fill-rule="evenodd" fill-opacity="1" /><path clip-path="url(#clip920)" d="M 0 0 M1951.32 1528.49 Q1954.68 1529.2 1956.55 1531.47 Q1958.45 1533.74 1958.45 1537.07 Q1958.45 1542.19 1954.93 1544.99 Q1951.42 1547.79 1944.93 1547.79 Q1942.76 1547.79 1940.44 1547.35 Q1938.15 1546.93 1935.7 1546.08 L1935.7 1541.56 Q1937.64 1542.7 1939.96 1543.28 Q1942.27 1543.86 1944.79 1543.86 Q1949.19 1543.86 1951.48 1542.12 Q1953.8 1540.38 1953.8 1537.07 Q1953.8 1534.02 1951.65 1532.31 Q1949.52 1530.57 1945.7 1530.57 L1941.67 1530.57 L1941.67 1526.73 L1945.88 1526.73 Q1949.33 1526.73 1951.16 1525.36 Q1952.99 1523.97 1952.99 1521.38 Q1952.99 1518.72 1951.09 1517.31 Q1949.22 1515.87 1945.7 1515.87 Q1943.78 1515.87 1941.58 1516.29 Q1939.38 1516.7 1936.74 1517.58 L1936.74 1513.42 Q1939.4 1512.68 1941.72 1512.31 Q1944.05 1511.93 1946.11 1511.93 Q1951.44 1511.93 1954.54 1514.37 Q1957.64 1516.77 1957.64 1520.89 Q1957.64 1523.76 1956 1525.75 Q1954.36 1527.72 1951.32 1528.49 Z" fill="#000000" fill-rule="evenodd" fill-opacity="1" /><path clip-path="url(#clip920)" d="M 0 0 M2293.88 1516.63 L2282.08 1535.08 L2293.88 1535.08 L2293.88 1516.63 M2292.65 1512.56 L2298.53 1512.56 L2298.53 1535.08 L2303.46 1535.08 L2303.46 1538.97 L2298.53 1538.97 L2298.53 1547.12 L2293.88 1547.12 L2293.88 1538.97 L2278.28 1538.97 L2278.28 1534.46 L2292.65 1512.56 Z" fill="#000000" fill-rule="evenodd" fill-opacity="1" /><polyline clip-path="url(#clip922)" style="stroke:#000000; stroke-width:2; stroke-opacity:0.1; fill:none" points="
  166.205,1447.87 2352.76,1447.87 
  "/>
<polyline clip-path="url(#clip922)" style="stroke:#000000; stroke-width:2; stroke-opacity:0.1; fill:none" points="
  166.205,1162.13 2352.76,1162.13 
  "/>
<polyline clip-path="url(#clip922)" style="stroke:#000000; stroke-width:2; stroke-opacity:0.1; fill:none" points="
  166.205,876.395 2352.76,876.395 
  "/>
<polyline clip-path="url(#clip922)" style="stroke:#000000; stroke-width:2; stroke-opacity:0.1; fill:none" points="
  166.205,590.656 2352.76,590.656 
  "/>
<polyline clip-path="url(#clip922)" style="stroke:#000000; stroke-width:2; stroke-opacity:0.1; fill:none" points="
  166.205,304.916 2352.76,304.916 
  "/>
<polyline clip-path="url(#clip920)" style="stroke:#000000; stroke-width:4; stroke-opacity:1; fill:none" points="
  166.205,1486.45 166.205,123.472 
  "/>
<polyline clip-path="url(#clip920)" style="stroke:#000000; stroke-width:4; stroke-opacity:1; fill:none" points="
  166.205,1447.87 192.443,1447.87 
  "/>
<polyline clip-path="url(#clip920)" style="stroke:#000000; stroke-width:4; stroke-opacity:1; fill:none" points="
  166.205,1162.13 192.443,1162.13 
  "/>
<polyline clip-path="url(#clip920)" style="stroke:#000000; stroke-width:4; stroke-opacity:1; fill:none" points="
  166.205,876.395 192.443,876.395 
  "/>
<polyline clip-path="url(#clip920)" style="stroke:#000000; stroke-width:4; stroke-opacity:1; fill:none" points="
  166.205,590.656 192.443,590.656 
  "/>
<polyline clip-path="url(#clip920)" style="stroke:#000000; stroke-width:4; stroke-opacity:1; fill:none" points="
  166.205,304.916 192.443,304.916 
  "/>
<path clip-path="url(#clip920)" d="M 0 0 M118.26 1433.67 Q114.649 1433.67 112.82 1437.24 Q111.015 1440.78 111.015 1447.91 Q111.015 1455.01 112.82 1458.58 Q114.649 1462.12 118.26 1462.12 Q121.895 1462.12 123.7 1458.58 Q125.529 1455.01 125.529 1447.91 Q125.529 1440.78 123.7 1437.24 Q121.895 1433.67 118.26 1433.67 M118.26 1429.97 Q124.07 1429.97 127.126 1434.57 Q130.205 1439.16 130.205 1447.91 Q130.205 1456.63 127.126 1461.24 Q124.07 1465.82 118.26 1465.82 Q112.45 1465.82 109.371 1461.24 Q106.316 1456.63 106.316 1447.91 Q106.316 1439.16 109.371 1434.57 Q112.45 1429.97 118.26 1429.97 Z" fill="#000000" fill-rule="evenodd" fill-opacity="1" /><path clip-path="url(#clip920)" d="M 0 0 M59.8578 1175.48 L76.1772 1175.48 L76.1772 1179.41 L54.2328 1179.41 L54.2328 1175.48 Q56.8949 1172.72 61.4782 1168.09 Q66.0846 1163.44 67.2652 1162.1 Q69.5105 1159.58 70.3902 1157.84 Q71.2929 1156.08 71.2929 1154.39 Q71.2929 1151.64 69.3485 1149.9 Q67.4272 1148.16 64.3254 1148.16 Q62.1263 1148.16 59.6726 1148.93 Q57.2421 1149.69 54.4643 1151.24 L54.4643 1146.52 Q57.2884 1145.39 59.7421 1144.81 Q62.1958 1144.23 64.2328 1144.23 Q69.6031 1144.23 72.7976 1146.91 Q75.992 1149.6 75.992 1154.09 Q75.992 1156.22 75.1818 1158.14 Q74.3948 1160.04 72.2883 1162.63 Q71.7096 1163.3 68.6078 1166.52 Q65.5059 1169.71 59.8578 1175.48 Z" fill="#000000" fill-rule="evenodd" fill-opacity="1" /><path clip-path="url(#clip920)" d="M 0 0 M91.2465 1147.93 Q87.6354 1147.93 85.8068 1151.5 Q84.0012 1155.04 84.0012 1162.17 Q84.0012 1169.28 85.8068 1172.84 Q87.6354 1176.38 91.2465 1176.38 Q94.8808 1176.38 96.6863 1172.84 Q98.515 1169.28 98.515 1162.17 Q98.515 1155.04 96.6863 1151.5 Q94.8808 1147.93 91.2465 1147.93 M91.2465 1144.23 Q97.0567 1144.23 100.112 1148.84 Q103.191 1153.42 103.191 1162.17 Q103.191 1170.9 100.112 1175.5 Q97.0567 1180.09 91.2465 1180.09 Q85.4364 1180.09 82.3577 1175.5 Q79.3022 1170.9 79.3022 1162.17 Q79.3022 1153.42 82.3577 1148.84 Q85.4364 1144.23 91.2465 1144.23 Z" fill="#000000" fill-rule="evenodd" fill-opacity="1" /><path clip-path="url(#clip920)" d="M 0 0 M118.26 1147.93 Q114.649 1147.93 112.82 1151.5 Q111.015 1155.04 111.015 1162.17 Q111.015 1169.28 112.82 1172.84 Q114.649 1176.38 118.26 1176.38 Q121.895 1176.38 123.7 1172.84 Q125.529 1169.28 125.529 1162.17 Q125.529 1155.04 123.7 1151.5 Q121.895 1147.93 118.26 1147.93 M118.26 1144.23 Q124.07 1144.23 127.126 1148.84 Q130.205 1153.42 130.205 1162.17 Q130.205 1170.9 127.126 1175.5 Q124.07 1180.09 118.26 1180.09 Q112.45 1180.09 109.371 1175.5 Q106.316 1170.9 106.316 1162.17 Q106.316 1153.42 109.371 1148.84 Q112.45 1144.23 118.26 1144.23 Z" fill="#000000" fill-rule="evenodd" fill-opacity="1" /><path clip-path="url(#clip920)" d="M 0 0 M66.5939 863.189 L54.7884 881.638 L66.5939 881.638 L66.5939 863.189 M65.367 859.115 L71.2466 859.115 L71.2466 881.638 L76.1772 881.638 L76.1772 885.527 L71.2466 885.527 L71.2466 893.675 L66.5939 893.675 L66.5939 885.527 L50.9921 885.527 L50.9921 881.013 L65.367 859.115 Z" fill="#000000" fill-rule="evenodd" fill-opacity="1" /><path clip-path="url(#clip920)" d="M 0 0 M91.2465 862.193 Q87.6354 862.193 85.8068 865.758 Q84.0012 869.3 84.0012 876.43 Q84.0012 883.536 85.8068 887.101 Q87.6354 890.642 91.2465 890.642 Q94.8808 890.642 96.6863 887.101 Q98.515 883.536 98.515 876.43 Q98.515 869.3 96.6863 865.758 Q94.8808 862.193 91.2465 862.193 M91.2465 858.49 Q97.0567 858.49 100.112 863.096 Q103.191 867.68 103.191 876.43 Q103.191 885.156 100.112 889.763 Q97.0567 894.346 91.2465 894.346 Q85.4364 894.346 82.3577 889.763 Q79.3022 885.156 79.3022 876.43 Q79.3022 867.68 82.3577 863.096 Q85.4364 858.49 91.2465 858.49 Z" fill="#000000" fill-rule="evenodd" fill-opacity="1" /><path clip-path="url(#clip920)" d="M 0 0 M118.26 862.193 Q114.649 862.193 112.82 865.758 Q111.015 869.3 111.015 876.43 Q111.015 883.536 112.82 887.101 Q114.649 890.642 118.26 890.642 Q121.895 890.642 123.7 887.101 Q125.529 883.536 125.529 876.43 Q125.529 869.3 123.7 865.758 Q121.895 862.193 118.26 862.193 M118.26 858.49 Q124.07 858.49 127.126 863.096 Q130.205 867.68 130.205 876.43 Q130.205 885.156 127.126 889.763 Q124.07 894.346 118.26 894.346 Q112.45 894.346 109.371 889.763 Q106.316 885.156 106.316 876.43 Q106.316 867.68 109.371 863.096 Q112.45 858.49 118.26 858.49 Z" fill="#000000" fill-rule="evenodd" fill-opacity="1" /><path clip-path="url(#clip920)" d="M 0 0 M64.6495 588.792 Q61.5013 588.792 59.6495 590.945 Q57.8208 593.098 57.8208 596.848 Q57.8208 600.575 59.6495 602.75 Q61.5013 604.903 64.6495 604.903 Q67.7976 604.903 69.6263 602.75 Q71.4781 600.575 71.4781 596.848 Q71.4781 593.098 69.6263 590.945 Q67.7976 588.792 64.6495 588.792 M73.9318 574.14 L73.9318 578.399 Q72.1726 577.565 70.367 577.126 Q68.5846 576.686 66.8254 576.686 Q62.1958 576.686 59.7421 579.811 Q57.3115 582.936 56.9643 589.255 Q58.33 587.241 60.3902 586.176 Q62.4504 585.089 64.9272 585.089 Q70.1355 585.089 73.1448 588.26 Q76.1772 591.408 76.1772 596.848 Q76.1772 602.172 73.029 605.389 Q69.8809 608.607 64.6495 608.607 Q58.6541 608.607 55.4828 604.024 Q52.3116 599.417 52.3116 590.69 Q52.3116 582.496 56.2004 577.635 Q60.0893 572.751 66.6402 572.751 Q68.3994 572.751 70.1818 573.098 Q71.9874 573.445 73.9318 574.14 Z" fill="#000000" fill-rule="evenodd" fill-opacity="1" /><path clip-path="url(#clip920)" d="M 0 0 M91.2465 576.454 Q87.6354 576.454 85.8068 580.019 Q84.0012 583.561 84.0012 590.69 Q84.0012 597.797 85.8068 601.362 Q87.6354 604.903 91.2465 604.903 Q94.8808 604.903 96.6863 601.362 Q98.515 597.797 98.515 590.69 Q98.515 583.561 96.6863 580.019 Q94.8808 576.454 91.2465 576.454 M91.2465 572.751 Q97.0567 572.751 100.112 577.357 Q103.191 581.94 103.191 590.69 Q103.191 599.417 100.112 604.024 Q97.0567 608.607 91.2465 608.607 Q85.4364 608.607 82.3577 604.024 Q79.3022 599.417 79.3022 590.69 Q79.3022 581.94 82.3577 577.357 Q85.4364 572.751 91.2465 572.751 Z" fill="#000000" fill-rule="evenodd" fill-opacity="1" /><path clip-path="url(#clip920)" d="M 0 0 M118.26 576.454 Q114.649 576.454 112.82 580.019 Q111.015 583.561 111.015 590.69 Q111.015 597.797 112.82 601.362 Q114.649 604.903 118.26 604.903 Q121.895 604.903 123.7 601.362 Q125.529 597.797 125.529 590.69 Q125.529 583.561 123.7 580.019 Q121.895 576.454 118.26 576.454 M118.26 572.751 Q124.07 572.751 127.126 577.357 Q130.205 581.94 130.205 590.69 Q130.205 599.417 127.126 604.024 Q124.07 608.607 118.26 608.607 Q112.45 608.607 109.371 604.024 Q106.316 599.417 106.316 590.69 Q106.316 581.94 109.371 577.357 Q112.45 572.751 118.26 572.751 Z" fill="#000000" fill-rule="evenodd" fill-opacity="1" /><path clip-path="url(#clip920)" d="M 0 0 M64.3254 305.785 Q60.9921 305.785 59.0708 307.567 Q57.1726 309.349 57.1726 312.474 Q57.1726 315.599 59.0708 317.382 Q60.9921 319.164 64.3254 319.164 Q67.6587 319.164 69.58 317.382 Q71.5013 315.576 71.5013 312.474 Q71.5013 309.349 69.58 307.567 Q67.6819 305.785 64.3254 305.785 M59.6495 303.794 Q56.6402 303.053 54.9504 300.993 Q53.2838 298.933 53.2838 295.97 Q53.2838 291.826 56.2236 289.419 Q59.1865 287.011 64.3254 287.011 Q69.4874 287.011 72.4272 289.419 Q75.367 291.826 75.367 295.97 Q75.367 298.933 73.6772 300.993 Q72.0105 303.053 69.0244 303.794 Q72.404 304.581 74.279 306.872 Q76.1772 309.164 76.1772 312.474 Q76.1772 317.497 73.0985 320.183 Q70.0429 322.868 64.3254 322.868 Q58.6078 322.868 55.5291 320.183 Q52.4736 317.497 52.4736 312.474 Q52.4736 309.164 54.3717 306.872 Q56.2699 304.581 59.6495 303.794 M57.9365 296.41 Q57.9365 299.095 59.6032 300.599 Q61.293 302.104 64.3254 302.104 Q67.3346 302.104 69.0244 300.599 Q70.7374 299.095 70.7374 296.41 Q70.7374 293.724 69.0244 292.22 Q67.3346 290.715 64.3254 290.715 Q61.293 290.715 59.6032 292.22 Q57.9365 293.724 57.9365 296.41 Z" fill="#000000" fill-rule="evenodd" fill-opacity="1" /><path clip-path="url(#clip920)" d="M 0 0 M91.2465 290.715 Q87.6354 290.715 85.8068 294.28 Q84.0012 297.822 84.0012 304.951 Q84.0012 312.058 85.8068 315.622 Q87.6354 319.164 91.2465 319.164 Q94.8808 319.164 96.6863 315.622 Q98.515 312.058 98.515 304.951 Q98.515 297.822 96.6863 294.28 Q94.8808 290.715 91.2465 290.715 M91.2465 287.011 Q97.0567 287.011 100.112 291.618 Q103.191 296.201 103.191 304.951 Q103.191 313.678 100.112 318.284 Q97.0567 322.868 91.2465 322.868 Q85.4364 322.868 82.3577 318.284 Q79.3022 313.678 79.3022 304.951 Q79.3022 296.201 82.3577 291.618 Q85.4364 287.011 91.2465 287.011 Z" fill="#000000" fill-rule="evenodd" fill-opacity="1" /><path clip-path="url(#clip920)" d="M 0 0 M118.26 290.715 Q114.649 290.715 112.82 294.28 Q111.015 297.822 111.015 304.951 Q111.015 312.058 112.82 315.622 Q114.649 319.164 118.26 319.164 Q121.895 319.164 123.7 315.622 Q125.529 312.058 125.529 304.951 Q125.529 297.822 123.7 294.28 Q121.895 290.715 118.26 290.715 M118.26 287.011 Q124.07 287.011 127.126 291.618 Q130.205 296.201 130.205 304.951 Q130.205 313.678 127.126 318.284 Q124.07 322.868 118.26 322.868 Q112.45 322.868 109.371 318.284 Q106.316 313.678 106.316 304.951 Q106.316 296.201 109.371 291.618 Q112.45 287.011 118.26 287.011 Z" fill="#000000" fill-rule="evenodd" fill-opacity="1" /><path clip-path="url(#clip920)" d="M 0 0 M1183.67 18.8205 L1183.67 65.8515 L1193.55 65.8515 Q1206.07 65.8515 1211.86 60.1802 Q1217.7 54.509 1217.7 42.2752 Q1217.7 30.1225 1211.86 24.4918 Q1206.07 18.8205 1193.55 18.8205 L1183.67 18.8205 M1175.48 12.096 L1192.3 12.096 Q1209.88 12.096 1218.1 19.4281 Q1226.32 26.7198 1226.32 42.2752 Q1226.32 57.9117 1218.06 65.2439 Q1209.8 72.576 1192.3 72.576 L1175.48 72.576 L1175.48 12.096 Z" fill="#000000" fill-rule="evenodd" fill-opacity="1" /><path clip-path="url(#clip920)" d="M 0 0 M1254.76 49.7694 Q1245.73 49.7694 1242.24 51.8354 Q1238.76 53.9013 1238.76 58.8839 Q1238.76 62.8538 1241.35 65.2034 Q1243.99 67.5124 1248.48 67.5124 Q1254.68 67.5124 1258.41 63.1374 Q1262.17 58.7219 1262.17 51.4303 L1262.17 49.7694 L1254.76 49.7694 M1269.63 46.6907 L1269.63 72.576 L1262.17 72.576 L1262.17 65.6895 Q1259.62 69.8214 1255.81 71.8063 Q1252.01 73.7508 1246.5 73.7508 Q1239.53 73.7508 1235.4 69.8619 Q1231.31 65.9325 1231.31 59.3701 Q1231.31 51.7138 1236.41 47.825 Q1241.56 43.9361 1251.72 43.9361 L1262.17 43.9361 L1262.17 43.2069 Q1262.17 38.0623 1258.77 35.2672 Q1255.41 32.4315 1249.29 32.4315 Q1245.4 32.4315 1241.72 33.3632 Q1238.03 34.295 1234.63 36.1584 L1234.63 29.2718 Q1238.72 27.692 1242.57 26.9223 Q1246.42 26.1121 1250.06 26.1121 Q1259.91 26.1121 1264.77 31.2163 Q1269.63 36.3204 1269.63 46.6907 Z" fill="#000000" fill-rule="evenodd" fill-opacity="1" /><path clip-path="url(#clip920)" d="M 0 0 M1284.82 14.324 L1284.82 27.2059 L1300.17 27.2059 L1300.17 32.9987 L1284.82 32.9987 L1284.82 57.6282 Q1284.82 63.1779 1286.32 64.7578 Q1287.86 66.3376 1292.52 66.3376 L1300.17 66.3376 L1300.17 72.576 L1292.52 72.576 Q1283.89 72.576 1280.61 69.3758 Q1277.32 66.1351 1277.32 57.6282 L1277.32 32.9987 L1271.86 32.9987 L1271.86 27.2059 L1277.32 27.2059 L1277.32 14.324 L1284.82 14.324 Z" fill="#000000" fill-rule="evenodd" fill-opacity="1" /><path clip-path="url(#clip920)" d="M 0 0 M1328.61 49.7694 Q1319.58 49.7694 1316.09 51.8354 Q1312.61 53.9013 1312.61 58.8839 Q1312.61 62.8538 1315.2 65.2034 Q1317.83 67.5124 1322.33 67.5124 Q1328.53 67.5124 1332.25 63.1374 Q1336.02 58.7219 1336.02 51.4303 L1336.02 49.7694 L1328.61 49.7694 M1343.48 46.6907 L1343.48 72.576 L1336.02 72.576 L1336.02 65.6895 Q1333.47 69.8214 1329.66 71.8063 Q1325.85 73.7508 1320.35 73.7508 Q1313.38 73.7508 1309.25 69.8619 Q1305.15 65.9325 1305.15 59.3701 Q1305.15 51.7138 1310.26 47.825 Q1315.4 43.9361 1325.57 43.9361 L1336.02 43.9361 L1336.02 43.2069 Q1336.02 38.0623 1332.62 35.2672 Q1329.26 32.4315 1323.14 32.4315 Q1319.25 32.4315 1315.57 33.3632 Q1311.88 34.295 1308.48 36.1584 L1308.48 29.2718 Q1312.57 27.692 1316.42 26.9223 Q1320.26 26.1121 1323.91 26.1121 Q1333.75 26.1121 1338.61 31.2163 Q1343.48 36.3204 1343.48 46.6907 Z" fill="#000000" fill-rule="evenodd" fill-opacity="1" /><polyline clip-path="url(#clip922)" style="stroke:#009af9; stroke-width:4; stroke-opacity:1; fill:none" points="
  228.088,1447.87 228.088,1347.86 262.468,1347.86 296.848,1347.86 296.848,1290.72 331.227,1290.72 331.227,1233.57 365.607,1233.57 365.607,1090.7 
  399.987,1090.7 399.987,1190.71 434.367,1190.71 434.367,862.108 468.746,862.108 468.746,976.403 503.126,976.403 503.126,819.247 537.506,819.247 537.506,747.812 
  571.886,747.812 571.886,819.247 606.265,819.247 606.265,947.83 640.645,947.83 640.645,976.403 675.025,976.403 675.025,1033.55 709.405,1033.55 
  743.784,1033.55 743.784,1104.99 778.164,1104.99 778.164,1204.99 812.544,1204.99 812.544,1276.43 846.923,1276.43 846.923,1405.01 881.303,1405.01 881.303,1347.86 
  915.683,1347.86 915.683,1405.01 950.063,1405.01 950.063,1419.3 984.442,1419.3 984.442,1447.87 1018.82,1447.87 1018.82,1419.3 1053.2,1419.3 1053.2,1433.59 
  1087.58,1433.59 1087.58,1405.01 1121.96,1405.01 1156.34,1405.01 1156.34,1376.44 1190.72,1376.44 1190.72,1390.73 1225.1,1390.73 1225.1,1305 
  1259.48,1305 1259.48,1233.57 1293.86,1233.57 1293.86,1219.28 1328.24,1219.28 1328.24,1076.41 1362.62,1076.41 1362.62,990.69 1397,990.69 1397,833.534 
  1431.38,833.534 1431.38,690.664 1465.76,690.664 1465.76,490.647 1500.14,490.647 1500.14,533.508 1534.52,533.508 1534.52,404.925 1568.9,404.925 1568.9,190.621 
  1603.28,190.621 1603.28,162.047 1637.66,162.047 1637.66,476.36 1672.04,476.36 1672.04,447.786 1706.42,447.786 1706.42,562.082 1740.8,562.082 1740.8,762.099 
  1775.18,762.099 1775.18,833.534 1809.56,833.534 1809.56,990.69 1843.94,990.69 1843.94,1104.99 1878.32,1104.99 1878.32,1176.42 1912.7,1176.42 1912.7,1247.86 
  1947.08,1247.86 1947.08,1290.72 1981.45,1290.72 1981.45,1305 2015.83,1305 2015.83,1419.3 2050.21,1419.3 2084.59,1419.3 
  2118.97,1419.3 2118.97,1447.87 2153.35,1447.87 2187.73,1447.87 2222.11,1447.87 2256.49,1447.87 
  2290.87,1447.87 
  "/>
<path clip-path="url(#clip920)" d="
M1940.93 289.865 L2279.87 289.865 L2279.87 168.905 L1940.93 168.905  Z
  " fill="#ffffff" fill-rule="evenodd" fill-opacity="1"/>
<polyline clip-path="url(#clip920)" style="stroke:#000000; stroke-width:4; stroke-opacity:1; fill:none" points="
  1940.93,289.865 2279.87,289.865 2279.87,168.905 1940.93,168.905 1940.93,289.865 
  "/>
<polyline clip-path="url(#clip920)" style="stroke:#009af9; stroke-width:4; stroke-opacity:1; fill:none" points="
  1965.22,229.385 2110.99,229.385 
  "/>
<path clip-path="url(#clip920)" d="M 0 0 M2139.96 215.947 L2139.96 242.822 L2145.61 242.822 Q2152.76 242.822 2156.07 239.581 Q2159.41 236.341 2159.41 229.35 Q2159.41 222.406 2156.07 219.188 Q2152.76 215.947 2145.61 215.947 L2139.96 215.947 M2135.29 212.105 L2144.89 212.105 Q2154.94 212.105 2159.64 216.294 Q2164.34 220.461 2164.34 229.35 Q2164.34 238.285 2159.61 242.475 Q2154.89 246.665 2144.89 246.665 L2135.29 246.665 L2135.29 212.105 Z" fill="#000000" fill-rule="evenodd" fill-opacity="1" /><path clip-path="url(#clip920)" d="M 0 0 M2180.59 233.632 Q2175.42 233.632 2173.43 234.813 Q2171.44 235.993 2171.44 238.841 Q2171.44 241.109 2172.92 242.452 Q2174.43 243.771 2177 243.771 Q2180.54 243.771 2182.67 241.271 Q2184.82 238.748 2184.82 234.581 L2184.82 233.632 L2180.59 233.632 M2189.08 231.873 L2189.08 246.665 L2184.82 246.665 L2184.82 242.729 Q2183.36 245.091 2181.19 246.225 Q2179.01 247.336 2175.86 247.336 Q2171.88 247.336 2169.52 245.114 Q2167.18 242.868 2167.18 239.118 Q2167.18 234.743 2170.1 232.521 Q2173.04 230.299 2178.85 230.299 L2184.82 230.299 L2184.82 229.882 Q2184.82 226.943 2182.88 225.345 Q2180.96 223.725 2177.46 223.725 Q2175.24 223.725 2173.13 224.257 Q2171.03 224.79 2169.08 225.855 L2169.08 221.919 Q2171.42 221.017 2173.62 220.577 Q2175.82 220.114 2177.9 220.114 Q2183.53 220.114 2186.3 223.031 Q2189.08 225.947 2189.08 231.873 Z" fill="#000000" fill-rule="evenodd" fill-opacity="1" /><path clip-path="url(#clip920)" d="M 0 0 M2197.76 213.378 L2197.76 220.739 L2206.54 220.739 L2206.54 224.049 L2197.76 224.049 L2197.76 238.123 Q2197.76 241.294 2198.62 242.197 Q2199.5 243.1 2202.16 243.1 L2206.54 243.1 L2206.54 246.665 L2202.16 246.665 Q2197.23 246.665 2195.36 244.836 Q2193.48 242.984 2193.48 238.123 L2193.48 224.049 L2190.36 224.049 L2190.36 220.739 L2193.48 220.739 L2193.48 213.378 L2197.76 213.378 Z" fill="#000000" fill-rule="evenodd" fill-opacity="1" /><path clip-path="url(#clip920)" d="M 0 0 M2222.79 233.632 Q2217.62 233.632 2215.63 234.813 Q2213.64 235.993 2213.64 238.841 Q2213.64 241.109 2215.12 242.452 Q2216.63 243.771 2219.2 243.771 Q2222.74 243.771 2224.87 241.271 Q2227.02 238.748 2227.02 234.581 L2227.02 233.632 L2222.79 233.632 M2231.28 231.873 L2231.28 246.665 L2227.02 246.665 L2227.02 242.729 Q2225.56 245.091 2223.39 246.225 Q2221.21 247.336 2218.06 247.336 Q2214.08 247.336 2211.72 245.114 Q2209.38 242.868 2209.38 239.118 Q2209.38 234.743 2212.3 232.521 Q2215.24 230.299 2221.05 230.299 L2227.02 230.299 L2227.02 229.882 Q2227.02 226.943 2225.08 225.345 Q2223.16 223.725 2219.66 223.725 Q2217.44 223.725 2215.33 224.257 Q2213.23 224.79 2211.28 225.855 L2211.28 221.919 Q2213.62 221.017 2215.82 220.577 Q2218.02 220.114 2220.1 220.114 Q2225.73 220.114 2228.5 223.031 Q2231.28 225.947 2231.28 231.873 Z" fill="#000000" fill-rule="evenodd" fill-opacity="1" /></svg>
