<?xml version="1.0" encoding="utf-8"?>
<svg xmlns="http://www.w3.org/2000/svg" xmlns:xlink="http://www.w3.org/1999/xlink" width="600" height="400" viewBox="0 0 2400 1600">
<defs>
  <clipPath id="clip4800">
    <rect x="0" y="0" width="2400" height="1600"/>
  </clipPath>
</defs>
<polygon clip-path="url(#clip4800)" points="
0,1600 2400,1600 2400,0 0,0 
  " fill="#ffffff" fill-rule="evenodd" fill-opacity="1"/>
<defs>
  <clipPath id="clip4801">
    <rect x="480" y="0" width="1681" height="1600"/>
  </clipPath>
</defs>
<polygon clip-path="url(#clip4800)" points="
167.279,1487.47 2352.76,1487.47 2352.76,121.675 167.279,121.675 
  " fill="#ffffff" fill-rule="evenodd" fill-opacity="1"/>
<defs>
  <clipPath id="clip4802">
    <rect x="167" y="121" width="2186" height="1367"/>
  </clipPath>
</defs>
<polyline clip-path="url(#clip4802)" style="stroke:#000000; stroke-width:2; stroke-opacity:0.1; fill:none" points="
  229.132,1487.47 229.132,121.675 
  "/>
<polyline clip-path="url(#clip4802)" style="stroke:#000000; stroke-width:2; stroke-opacity:0.1; fill:none" points="
  744.575,1487.47 744.575,121.675 
  "/>
<polyline clip-path="url(#clip4802)" style="stroke:#000000; stroke-width:2; stroke-opacity:0.1; fill:none" points="
  1260.02,1487.47 1260.02,121.675 
  "/>
<polyline clip-path="url(#clip4802)" style="stroke:#000000; stroke-width:2; stroke-opacity:0.1; fill:none" points="
  1775.46,1487.47 1775.46,121.675 
  "/>
<polyline clip-path="url(#clip4802)" style="stroke:#000000; stroke-width:2; stroke-opacity:0.1; fill:none" points="
  2290.9,1487.47 2290.9,121.675 
  "/>
<polyline clip-path="url(#clip4802)" style="stroke:#000000; stroke-width:2; stroke-opacity:0.1; fill:none" points="
  167.279,1448.82 2352.76,1448.82 
  "/>
<polyline clip-path="url(#clip4802)" style="stroke:#000000; stroke-width:2; stroke-opacity:0.1; fill:none" points="
  167.279,1125.84 2352.76,1125.84 
  "/>
<polyline clip-path="url(#clip4802)" style="stroke:#000000; stroke-width:2; stroke-opacity:0.1; fill:none" points="
  167.279,802.867 2352.76,802.867 
  "/>
<polyline clip-path="url(#clip4802)" style="stroke:#000000; stroke-width:2; stroke-opacity:0.1; fill:none" points="
  167.279,479.89 2352.76,479.89 
  "/>
<polyline clip-path="url(#clip4802)" style="stroke:#000000; stroke-width:2; stroke-opacity:0.1; fill:none" points="
  167.279,156.914 2352.76,156.914 
  "/>
<polyline clip-path="url(#clip4800)" style="stroke:#000000; stroke-width:4; stroke-opacity:1; fill:none" points="
  167.279,1487.47 2352.76,1487.47 
  "/>
<polyline clip-path="url(#clip4800)" style="stroke:#000000; stroke-width:4; stroke-opacity:1; fill:none" points="
  167.279,1487.47 167.279,121.675 
  "/>
<polyline clip-path="url(#clip4800)" style="stroke:#000000; stroke-width:4; stroke-opacity:1; fill:none" points="
  229.132,1487.47 229.132,1466.99 
  "/>
<polyline clip-path="url(#clip4800)" style="stroke:#000000; stroke-width:4; stroke-opacity:1; fill:none" points="
  744.575,1487.47 744.575,1466.99 
  "/>
<polyline clip-path="url(#clip4800)" style="stroke:#000000; stroke-width:4; stroke-opacity:1; fill:none" points="
  1260.02,1487.47 1260.02,1466.99 
  "/>
<polyline clip-path="url(#clip4800)" style="stroke:#000000; stroke-width:4; stroke-opacity:1; fill:none" points="
  1775.46,1487.47 1775.46,1466.99 
  "/>
<polyline clip-path="url(#clip4800)" style="stroke:#000000; stroke-width:4; stroke-opacity:1; fill:none" points="
  2290.9,1487.47 2290.9,1466.99 
  "/>
<polyline clip-path="url(#clip4800)" style="stroke:#000000; stroke-width:4; stroke-opacity:1; fill:none" points="
  167.279,1448.82 200.061,1448.82 
  "/>
<polyline clip-path="url(#clip4800)" style="stroke:#000000; stroke-width:4; stroke-opacity:1; fill:none" points="
  167.279,1125.84 200.061,1125.84 
  "/>
<polyline clip-path="url(#clip4800)" style="stroke:#000000; stroke-width:4; stroke-opacity:1; fill:none" points="
  167.279,802.867 200.061,802.867 
  "/>
<polyline clip-path="url(#clip4800)" style="stroke:#000000; stroke-width:4; stroke-opacity:1; fill:none" points="
  167.279,479.89 200.061,479.89 
  "/>
<polyline clip-path="url(#clip4800)" style="stroke:#000000; stroke-width:4; stroke-opacity:1; fill:none" points="
  167.279,156.914 200.061,156.914 
  "/>
<g clip-path="url(#clip4800)">
<text style="fill:#000000; fill-opacity:1; font-family:Arial,Helvetica Neue,Helvetica,sans-serif; font-size:48px; text-anchor:middle;" transform="rotate(0, 229.132, 1541.47)" x="229.132" y="1541.47">-4</text>
</g>
<g clip-path="url(#clip4800)">
<text style="fill:#000000; fill-opacity:1; font-family:Arial,Helvetica Neue,Helvetica,sans-serif; font-size:48px; text-anchor:middle;" transform="rotate(0, 744.575, 1541.47)" x="744.575" y="1541.47">-2</text>
</g>
<g clip-path="url(#clip4800)">
<text style="fill:#000000; fill-opacity:1; font-family:Arial,Helvetica Neue,Helvetica,sans-serif; font-size:48px; text-anchor:middle;" transform="rotate(0, 1260.02, 1541.47)" x="1260.02" y="1541.47">0</text>
</g>
<g clip-path="url(#clip4800)">
<text style="fill:#000000; fill-opacity:1; font-family:Arial,Helvetica Neue,Helvetica,sans-serif; font-size:48px; text-anchor:middle;" transform="rotate(0, 1775.46, 1541.47)" x="1775.46" y="1541.47">2</text>
</g>
<g clip-path="url(#clip4800)">
<text style="fill:#000000; fill-opacity:1; font-family:Arial,Helvetica Neue,Helvetica,sans-serif; font-size:48px; text-anchor:middle;" transform="rotate(0, 2290.9, 1541.47)" x="2290.9" y="1541.47">4</text>
</g>
<g clip-path="url(#clip4800)">
<text style="fill:#000000; fill-opacity:1; font-family:Arial,Helvetica Neue,Helvetica,sans-serif; font-size:48px; text-anchor:end;" transform="rotate(0, 143.279, 1466.32)" x="143.279" y="1466.32">0</text>
</g>
<g clip-path="url(#clip4800)">
<text style="fill:#000000; fill-opacity:1; font-family:Arial,Helvetica Neue,Helvetica,sans-serif; font-size:48px; text-anchor:end;" transform="rotate(0, 143.279, 1143.34)" x="143.279" y="1143.34">200</text>
</g>
<g clip-path="url(#clip4800)">
<text style="fill:#000000; fill-opacity:1; font-family:Arial,Helvetica Neue,Helvetica,sans-serif; font-size:48px; text-anchor:end;" transform="rotate(0, 143.279, 820.367)" x="143.279" y="820.367">400</text>
</g>
<g clip-path="url(#clip4800)">
<text style="fill:#000000; fill-opacity:1; font-family:Arial,Helvetica Neue,Helvetica,sans-serif; font-size:48px; text-anchor:end;" transform="rotate(0, 143.279, 497.39)" x="143.279" y="497.39">600</text>
</g>
<g clip-path="url(#clip4800)">
<text style="fill:#000000; fill-opacity:1; font-family:Arial,Helvetica Neue,Helvetica,sans-serif; font-size:48px; text-anchor:end;" transform="rotate(0, 143.279, 174.414)" x="143.279" y="174.414">800</text>
</g>
<g clip-path="url(#clip4800)">
<text style="fill:#000000; fill-opacity:1; font-family:Arial,Helvetica Neue,Helvetica,sans-serif; font-size:84px; text-anchor:middle;" transform="rotate(0, 1260.02, 73.2)" x="1260.02" y="73.2">Data and True Statistical Model</text>
</g>
<polyline clip-path="url(#clip4802)" style="stroke:#009af9; stroke-width:4; stroke-opacity:1; fill:none" points="
  744.575,1448.82 744.575,1319.63 770.347,1319.63 770.347,1384.22 796.119,1384.22 796.119,1303.48 821.891,1303.48 821.891,1238.89 847.663,1238.89 847.663,996.653 
  873.436,996.653 873.436,1109.69 899.208,1109.69 899.208,1012.8 924.98,1012.8 924.98,770.569 950.752,770.569 950.752,802.867 976.524,802.867 976.524,883.611 
  1002.3,883.611 1002.3,705.974 1028.07,705.974 1028.07,867.462 1053.84,867.462 1053.84,819.016 1079.61,819.016 1079.61,899.76 1105.38,899.76 1105.38,1093.55 
  1131.16,1093.55 1131.16,1174.29 1156.93,1174.29 1156.93,1158.14 1182.7,1158.14 1182.7,1206.59 1208.47,1206.59 1208.47,1238.89 1234.25,1238.89 1234.25,1287.33 
  1260.02,1287.33 1260.02,1384.22 1285.79,1384.22 1285.79,1400.37 1311.56,1400.37 1311.56,1432.67 1337.33,1432.67 1337.33,1416.52 1363.11,1416.52 1363.11,1448.82 
  1388.88,1448.82 1388.88,1384.22 1414.65,1384.22 1414.65,1432.67 1440.42,1432.67 1440.42,1400.37 1466.19,1400.37 1466.19,1368.08 1491.97,1368.08 1491.97,1351.93 
  1517.74,1351.93 1517.74,1190.44 1543.51,1190.44 1543.51,1093.55 1569.28,1093.55 1569.28,1061.25 1595.06,1061.25 1595.06,802.867 1620.83,802.867 1620.83,641.379 
  1646.6,641.379 1646.6,625.23 1672.37,625.23 1672.37,334.551 1698.14,334.551 1698.14,173.062 1723.92,173.062 1723.92,366.848 1749.69,366.848 1749.69,302.253 
  1775.46,302.253 1775.46,399.146 1801.23,399.146 1801.23,237.658 1827,237.658 1827,269.955 1852.78,269.955 1852.78,512.188 1878.55,512.188 1878.55,447.593 
  1904.32,447.593 1904.32,835.165 1930.09,835.165 1930.09,802.867 1955.87,802.867 1955.87,883.611 1981.64,883.611 1981.64,1190.44 2007.41,1190.44 2007.41,1287.33 
  2033.18,1287.33 2033.18,1351.93 2058.95,1351.93 2058.95,1384.22 2084.73,1384.22 2110.5,1384.22 2110.5,1432.67 2136.27,1432.67 2136.27,1400.37 
  2162.04,1400.37 2162.04,1432.67 2187.81,1432.67 2187.81,1448.82 2213.59,1448.82 2239.36,1448.82 2265.13,1448.82 
  2290.9,1448.82 
  "/>
<polyline clip-path="url(#clip4802)" style="stroke:#e26f46; stroke-width:4; stroke-opacity:1; fill:none" points="
  229.132,1448.82 231.709,1448.82 234.287,1448.82 236.864,1448.82 239.441,1448.82 242.018,1448.82 244.596,1448.82 247.173,1448.82 249.75,1448.82 252.327,1448.82 
  254.904,1448.82 257.482,1448.82 260.059,1448.82 262.636,1448.82 265.213,1448.82 267.79,1448.82 270.368,1448.82 272.945,1448.82 275.522,1448.82 278.099,1448.82 
  280.677,1448.82 283.254,1448.82 285.831,1448.82 288.408,1448.82 290.985,1448.82 293.563,1448.82 296.14,1448.82 298.717,1448.82 301.294,1448.82 303.871,1448.82 
  306.449,1448.82 309.026,1448.82 311.603,1448.82 314.18,1448.82 316.758,1448.82 319.335,1448.82 321.912,1448.82 324.489,1448.82 327.066,1448.82 329.644,1448.82 
  332.221,1448.82 334.798,1448.82 337.375,1448.82 339.952,1448.82 342.53,1448.82 345.107,1448.82 347.684,1448.82 350.261,1448.82 352.838,1448.82 355.416,1448.82 
  357.993,1448.82 360.57,1448.82 363.147,1448.82 365.725,1448.82 368.302,1448.82 370.879,1448.82 373.456,1448.82 376.033,1448.82 378.611,1448.81 381.188,1448.81 
  383.765,1448.81 386.342,1448.81 388.919,1448.81 391.497,1448.81 394.074,1448.81 396.651,1448.81 399.228,1448.81 401.806,1448.81 404.383,1448.81 406.96,1448.81 
  409.537,1448.8 412.114,1448.8 414.692,1448.8 417.269,1448.8 419.846,1448.8 422.423,1448.79 425,1448.79 427.578,1448.79 430.155,1448.79 432.732,1448.78 
  435.309,1448.78 437.887,1448.78 440.464,1448.77 443.041,1448.77 445.618,1448.76 448.195,1448.76 450.773,1448.75 453.35,1448.75 455.927,1448.74 458.504,1448.73 
  461.081,1448.72 463.659,1448.72 466.236,1448.71 468.813,1448.7 471.39,1448.69 473.968,1448.68 476.545,1448.66 479.122,1448.65 481.699,1448.64 484.276,1448.62 
  486.854,1448.6 489.431,1448.59 492.008,1448.57 494.585,1448.55 497.162,1448.52 499.74,1448.5 502.317,1448.47 504.894,1448.45 507.471,1448.42 510.048,1448.38 
  512.626,1448.35 515.203,1448.31 517.78,1448.27 520.357,1448.23 522.935,1448.18 525.512,1448.13 528.089,1448.08 530.666,1448.03 533.243,1447.97 535.821,1447.9 
  538.398,1447.83 540.975,1447.76 543.552,1447.68 546.129,1447.6 548.707,1447.51 551.284,1447.41 553.861,1447.31 556.438,1447.2 559.016,1447.08 561.593,1446.96 
  564.17,1446.83 566.747,1446.69 569.324,1446.54 571.902,1446.38 574.479,1446.22 577.056,1446.04 579.633,1445.85 582.21,1445.65 584.788,1445.44 587.365,1445.21 
  589.942,1444.97 592.519,1444.72 595.097,1444.45 597.674,1444.16 600.251,1443.86 602.828,1443.54 605.405,1443.21 607.983,1442.85 610.56,1442.48 613.137,1442.08 
  615.714,1441.66 618.291,1441.22 620.869,1440.76 623.446,1440.27 626.023,1439.75 628.6,1439.21 631.178,1438.64 633.755,1438.03 636.332,1437.4 638.909,1436.74 
  641.486,1436.04 644.064,1435.3 646.641,1434.53 649.218,1433.73 651.795,1432.88 654.372,1431.99 656.95,1431.06 659.527,1430.09 662.104,1429.07 664.681,1428 
  667.258,1426.89 669.836,1425.72 672.413,1424.5 674.99,1423.23 677.567,1421.9 680.145,1420.51 682.722,1419.07 685.299,1417.56 687.876,1415.99 690.453,1414.36 
  693.031,1412.66 695.608,1410.88 698.185,1409.04 700.762,1407.13 703.339,1405.14 705.917,1403.08 708.494,1400.93 711.071,1398.71 713.648,1396.4 716.226,1394.01 
  718.803,1391.53 721.38,1388.97 723.957,1386.31 726.534,1383.57 729.112,1380.73 731.689,1377.79 734.266,1374.76 736.843,1371.63 739.42,1368.4 741.998,1365.07 
  744.575,1361.63 747.152,1358.09 749.729,1354.44 752.307,1350.69 754.884,1346.83 757.461,1342.86 760.038,1338.78 762.615,1334.58 765.193,1330.28 767.77,1325.86 
  770.347,1321.32 772.924,1316.68 775.501,1311.92 778.079,1307.04 780.656,1302.05 783.233,1296.94 785.81,1291.72 788.388,1286.38 790.965,1280.94 793.542,1275.37 
  796.119,1269.7 798.696,1263.91 801.274,1258.01 803.851,1252 806.428,1245.89 809.005,1239.66 811.582,1233.34 814.16,1226.91 816.737,1220.38 819.314,1213.75 
  821.891,1207.03 824.469,1200.21 827.046,1193.31 829.623,1186.31 832.2,1179.24 834.777,1172.08 837.355,1164.85 839.932,1157.54 842.509,1150.17 845.086,1142.73 
  847.663,1135.23 850.241,1127.68 852.818,1120.08 855.395,1112.43 857.972,1104.74 860.549,1097.01 863.127,1089.26 865.704,1081.48 868.281,1073.69 870.858,1065.88 
  873.436,1058.07 876.013,1050.25 878.59,1042.44 881.167,1034.65 883.744,1026.87 886.322,1019.12 888.899,1011.41 891.476,1003.73 894.053,996.098 896.63,988.52 
  899.208,981.002 901.785,973.552 904.362,966.176 906.939,958.882 909.517,951.676 912.094,944.566 914.671,937.56 917.248,930.663 919.825,923.883 922.403,917.226 
  924.98,910.701 927.557,904.314 930.134,898.071 932.711,891.979 935.289,886.045 937.866,880.276 940.443,874.677 943.02,869.254 945.598,864.015 948.175,858.964 
  950.752,854.107 953.329,849.45 955.906,844.998 958.484,840.757 961.061,836.73 963.638,832.923 966.215,829.341 968.792,825.987 971.37,822.865 973.947,819.979 
  976.524,817.332 979.101,814.928 981.679,812.769 984.256,810.858 986.833,809.197 989.41,807.788 991.987,806.633 994.565,805.734 997.142,805.09 999.719,804.704 
  1002.3,804.575 1004.87,804.704 1007.45,805.09 1010.03,805.734 1012.61,806.633 1015.18,807.788 1017.76,809.197 1020.34,810.858 1022.91,812.769 1025.49,814.928 
  1028.07,817.332 1030.65,819.978 1033.22,822.864 1035.8,825.986 1038.38,829.341 1040.95,832.923 1043.53,836.73 1046.11,840.756 1048.69,844.998 1051.26,849.45 
  1053.84,854.107 1056.42,858.963 1058.99,864.014 1061.57,869.254 1064.15,874.676 1066.73,880.275 1069.3,886.045 1071.88,891.979 1074.46,898.071 1077.04,904.313 
  1079.61,910.701 1082.19,917.226 1084.77,923.882 1087.34,930.662 1089.92,937.559 1092.5,944.565 1095.08,951.675 1097.65,958.881 1100.23,966.175 1102.81,973.55 
  1105.38,981 1107.96,988.518 1110.54,996.095 1113.12,1003.73 1115.69,1011.4 1118.27,1019.12 1120.85,1026.87 1123.43,1034.65 1126,1042.44 1128.58,1050.25 
  1131.16,1058.06 1133.73,1065.87 1136.31,1073.68 1138.89,1081.48 1141.47,1089.25 1144.04,1097.01 1146.62,1104.73 1149.2,1112.42 1151.77,1120.07 1154.35,1127.67 
  1156.93,1135.22 1159.51,1142.72 1162.08,1150.15 1164.66,1157.52 1167.24,1164.83 1169.82,1172.06 1172.39,1179.21 1174.97,1186.29 1177.55,1193.28 1180.12,1200.18 
  1182.7,1206.99 1185.28,1213.72 1187.86,1220.34 1190.43,1226.87 1193.01,1233.29 1195.59,1239.61 1198.16,1245.83 1200.74,1251.94 1203.32,1257.94 1205.9,1263.83 
  1208.47,1269.62 1211.05,1275.28 1213.63,1280.84 1216.2,1286.28 1218.78,1291.61 1221.36,1296.82 1223.94,1301.91 1226.51,1306.89 1229.09,1311.76 1231.67,1316.5 
  1234.25,1321.13 1236.82,1325.65 1239.4,1330.05 1241.98,1334.34 1244.55,1338.51 1247.13,1342.57 1249.71,1346.52 1252.29,1350.35 1254.86,1354.08 1257.44,1357.69 
  1260.02,1361.2 1262.59,1364.6 1265.17,1367.89 1267.75,1371.08 1270.33,1374.17 1272.9,1377.15 1275.48,1380.03 1278.06,1382.82 1280.64,1385.5 1283.21,1388.09 
  1285.79,1390.59 1288.37,1392.99 1290.94,1395.3 1293.52,1397.52 1296.1,1399.66 1298.68,1401.7 1301.25,1403.66 1303.83,1405.54 1306.41,1407.33 1308.98,1409.05 
  1311.56,1410.68 1314.14,1412.23 1316.72,1413.71 1319.29,1415.11 1321.87,1416.44 1324.45,1417.7 1327.03,1418.88 1329.6,1419.99 1332.18,1421.03 1334.76,1422 
  1337.33,1422.91 1339.91,1423.74 1342.49,1424.51 1345.07,1425.22 1347.64,1425.85 1350.22,1426.43 1352.8,1426.94 1355.37,1427.38 1357.95,1427.76 1360.53,1428.08 
  1363.11,1428.34 1365.68,1428.53 1368.26,1428.66 1370.84,1428.72 1373.41,1428.72 1375.99,1428.66 1378.57,1428.53 1381.15,1428.33 1383.72,1428.07 1386.3,1427.74 
  1388.88,1427.35 1391.46,1426.89 1394.03,1426.35 1396.61,1425.75 1399.19,1425.07 1401.76,1424.32 1404.34,1423.49 1406.92,1422.59 1409.5,1421.61 1412.07,1420.55 
  1414.65,1419.4 1417.23,1418.18 1419.8,1416.86 1422.38,1415.46 1424.96,1413.97 1427.54,1412.38 1430.11,1410.7 1432.69,1408.92 1435.27,1407.04 1437.85,1405.05 
  1440.42,1402.96 1443,1400.76 1445.58,1398.45 1448.15,1396.02 1450.73,1393.47 1453.31,1390.8 1455.89,1388 1458.46,1385.08 1461.04,1382.02 1463.62,1378.83 
  1466.19,1375.5 1468.77,1372.03 1471.35,1368.41 1473.93,1364.64 1476.5,1360.72 1479.08,1356.64 1481.66,1352.41 1484.24,1348 1486.81,1343.43 1489.39,1338.69 
  1491.97,1333.77 1494.54,1328.68 1497.12,1323.4 1499.7,1317.94 1502.28,1312.29 1504.85,1306.44 1507.43,1300.4 1510.01,1294.16 1512.58,1287.72 1515.16,1281.08 
  1517.74,1274.23 1520.32,1267.16 1522.89,1259.89 1525.47,1252.39 1528.05,1244.68 1530.62,1236.75 1533.2,1228.6 1535.78,1220.22 1538.36,1211.62 1540.93,1202.79 
  1543.51,1193.73 1546.09,1184.45 1548.67,1174.93 1551.24,1165.19 1553.82,1155.21 1556.4,1145 1558.97,1134.56 1561.55,1123.9 1564.13,1113 1566.71,1101.88 
  1569.28,1090.53 1571.86,1078.96 1574.44,1067.17 1577.01,1055.15 1579.59,1042.92 1582.17,1030.48 1584.75,1017.83 1587.32,1004.98 1589.9,991.918 1592.48,978.664 
  1595.06,965.219 1597.63,951.588 1600.21,937.777 1602.79,923.793 1605.36,909.641 1607.94,895.329 1610.52,880.865 1613.1,866.255 1615.67,851.508 1618.25,836.633 
  1620.83,821.638 1623.4,806.533 1625.98,791.327 1628.56,776.03 1631.14,760.652 1633.71,745.205 1636.29,729.698 1638.87,714.143 1641.45,698.552 1644.02,682.937 
  1646.6,667.309 1649.18,651.681 1651.75,636.066 1654.33,620.476 1656.91,604.925 1659.49,589.426 1662.06,573.991 1664.64,558.636 1667.22,543.374 1669.79,528.218 
  1672.37,513.183 1674.95,498.283 1677.53,483.531 1680.1,468.943 1682.68,454.532 1685.26,440.312 1687.83,426.299 1690.41,412.505 1692.99,398.945 1695.57,385.633 
  1698.14,372.582 1700.72,359.807 1703.3,347.322 1705.88,335.138 1708.45,323.271 1711.03,311.731 1713.61,300.533 1716.18,289.688 1718.76,279.209 1721.34,269.107 
  1723.92,259.394 1726.49,250.08 1729.07,241.176 1731.65,232.693 1734.22,224.64 1736.8,217.027 1739.38,209.861 1741.96,203.153 1744.53,196.909 1747.11,191.137 
  1749.69,185.844 1752.27,181.035 1754.84,176.717 1757.42,172.895 1760,169.574 1762.57,166.756 1765.15,164.446 1767.73,162.647 1770.31,161.36 1772.88,160.588 
  1775.46,160.33 1778.04,160.588 1780.61,161.36 1783.19,162.647 1785.77,164.446 1788.35,166.756 1790.92,169.574 1793.5,172.895 1796.08,176.717 1798.66,181.035 
  1801.23,185.844 1803.81,191.137 1806.39,196.909 1808.96,203.153 1811.54,209.861 1814.12,217.027 1816.7,224.64 1819.27,232.693 1821.85,241.176 1824.43,250.08 
  1827,259.394 1829.58,269.107 1832.16,279.209 1834.74,289.688 1837.31,300.533 1839.89,311.731 1842.47,323.271 1845.04,335.139 1847.62,347.322 1850.2,359.808 
  1852.78,372.583 1855.35,385.633 1857.93,398.945 1860.51,412.505 1863.09,426.299 1865.66,440.313 1868.24,454.533 1870.82,468.944 1873.39,483.532 1875.97,498.284 
  1878.55,513.184 1881.13,528.219 1883.7,543.375 1886.28,558.638 1888.86,573.993 1891.43,589.427 1894.01,604.926 1896.59,620.478 1899.17,636.068 1901.74,651.683 
  1904.32,667.311 1906.9,682.939 1909.48,698.555 1912.05,714.146 1914.63,729.701 1917.21,745.208 1919.78,760.657 1922.36,776.035 1924.94,791.332 1927.52,806.539 
  1930.09,821.645 1932.67,836.64 1935.25,851.516 1937.82,866.263 1940.4,880.874 1942.98,895.34 1945.56,909.652 1948.13,923.805 1950.71,937.791 1953.29,951.603 
  1955.87,965.235 1958.44,978.682 1961.02,991.937 1963.6,1005 1966.17,1017.86 1968.75,1030.51 1971.33,1042.95 1973.91,1055.18 1976.48,1067.2 1979.06,1079 
  1981.64,1090.57 1984.21,1101.92 1986.79,1113.05 1989.37,1123.95 1991.95,1134.62 1994.52,1145.06 1997.1,1155.28 1999.68,1165.26 2002.25,1175.01 2004.83,1184.54 
  2007.41,1193.83 2009.99,1202.9 2012.56,1211.73 2015.14,1220.35 2017.72,1228.73 2020.3,1236.9 2022.87,1244.84 2025.45,1252.56 2028.03,1260.07 2030.6,1267.36 
  2033.18,1274.44 2035.76,1281.31 2038.34,1287.98 2040.91,1294.44 2043.49,1300.7 2046.07,1306.76 2048.64,1312.63 2051.22,1318.31 2053.8,1323.81 2056.38,1329.12 
  2058.95,1334.25 2061.53,1339.2 2064.11,1343.98 2066.69,1348.59 2069.26,1353.04 2071.84,1357.33 2074.42,1361.46 2076.99,1365.44 2079.57,1369.27 2082.15,1372.95 
  2084.73,1376.49 2087.3,1379.89 2089.88,1383.16 2092.46,1386.3 2095.03,1389.32 2097.61,1392.21 2100.19,1394.98 2102.77,1397.64 2105.34,1400.18 2107.92,1402.62 
  2110.5,1404.95 2113.08,1407.18 2115.65,1409.32 2118.23,1411.35 2120.81,1413.3 2123.38,1415.16 2125.96,1416.94 2128.54,1418.63 2131.12,1420.25 2133.69,1421.79 
  2136.27,1423.25 2138.85,1424.65 2141.42,1425.98 2144,1427.25 2146.58,1428.45 2149.16,1429.59 2151.73,1430.68 2154.31,1431.71 2156.89,1432.69 2159.46,1433.62 
  2162.04,1434.51 2164.62,1435.34 2167.2,1436.13 2169.77,1436.89 2172.35,1437.6 2174.93,1438.27 2177.51,1438.91 2180.08,1439.51 2182.66,1440.08 2185.24,1440.61 
  2187.81,1441.12 2190.39,1441.6 2192.97,1442.05 2195.55,1442.48 2198.12,1442.88 2200.7,1443.26 2203.28,1443.61 2205.85,1443.95 2208.43,1444.26 2211.01,1444.56 
  2213.59,1444.84 2216.16,1445.1 2218.74,1445.35 2221.32,1445.58 2223.9,1445.8 2226.47,1446 2229.05,1446.19 2231.63,1446.37 2234.2,1446.54 2236.78,1446.7 
  2239.36,1446.84 2241.94,1446.98 2244.51,1447.11 2247.09,1447.23 2249.67,1447.34 2252.24,1447.45 2254.82,1447.55 2257.4,1447.64 2259.98,1447.72 2262.55,1447.8 
  2265.13,1447.88 2267.71,1447.95 2270.29,1448.01 2272.86,1448.07 2275.44,1448.13 2278.02,1448.18 2280.59,1448.23 2283.17,1448.27 2285.75,1448.31 2288.33,1448.35 
  2290.9,1448.39 
  "/>
<polygon clip-path="url(#clip4800)" points="
1928.41,386.635 2280.76,386.635 2280.76,205.195 1928.41,205.195 
  " fill="#ffffff" fill-rule="evenodd" fill-opacity="1"/>
<polyline clip-path="url(#clip4800)" style="stroke:#000000; stroke-width:4; stroke-opacity:1; fill:none" points="
  1928.41,386.635 2280.76,386.635 2280.76,205.195 1928.41,205.195 1928.41,386.635 
  "/>
<polyline clip-path="url(#clip4800)" style="stroke:#009af9; stroke-width:4; stroke-opacity:1; fill:none" points="
  1952.41,265.675 2096.41,265.675 
  "/>
<g clip-path="url(#clip4800)">
<text style="fill:#000000; fill-opacity:1; font-family:Arial,Helvetica Neue,Helvetica,sans-serif; font-size:48px; text-anchor:start;" transform="rotate(0, 2120.41, 283.175)" x="2120.41" y="283.175">Data</text>
</g>
<polyline clip-path="url(#clip4800)" style="stroke:#e26f46; stroke-width:4; stroke-opacity:1; fill:none" points="
  1952.41,326.155 2096.41,326.155 
  "/>
<g clip-path="url(#clip4800)">
<text style="fill:#000000; fill-opacity:1; font-family:Arial,Helvetica Neue,Helvetica,sans-serif; font-size:48px; text-anchor:start;" transform="rotate(0, 2120.41, 343.655)" x="2120.41" y="343.655">Truth</text>
</g>
</svg>
