<?xml version="1.0" encoding="utf-8"?>
<svg xmlns="http://www.w3.org/2000/svg" xmlns:xlink="http://www.w3.org/1999/xlink" width="600" height="400" viewBox="0 0 2400 1600">
<defs>
  <clipPath id="clip5100">
    <rect x="0" y="0" width="2400" height="1600"/>
  </clipPath>
</defs>
<polygon clip-path="url(#clip5100)" points="
0,1600 2400,1600 2400,0 0,0 
  " fill="#ffffff" fill-rule="evenodd" fill-opacity="1"/>
<defs>
  <clipPath id="clip5101">
    <rect x="480" y="0" width="1681" height="1600"/>
  </clipPath>
</defs>
<polygon clip-path="url(#clip5100)" points="
202.373,1425.62 2352.76,1425.62 2352.76,121.675 202.373,121.675 
  " fill="#ffffff" fill-rule="evenodd" fill-opacity="1"/>
<defs>
  <clipPath id="clip5102">
    <rect x="202" y="121" width="2151" height="1305"/>
  </clipPath>
</defs>
<polyline clip-path="url(#clip5102)" style="stroke:#000000; stroke-width:2; stroke-opacity:0.1; fill:none" points="
  476.776,1425.62 476.776,121.675 
  "/>
<polyline clip-path="url(#clip5102)" style="stroke:#000000; stroke-width:2; stroke-opacity:0.1; fill:none" points="
  1010.64,1425.62 1010.64,121.675 
  "/>
<polyline clip-path="url(#clip5102)" style="stroke:#000000; stroke-width:2; stroke-opacity:0.1; fill:none" points="
  1544.49,1425.62 1544.49,121.675 
  "/>
<polyline clip-path="url(#clip5102)" style="stroke:#000000; stroke-width:2; stroke-opacity:0.1; fill:none" points="
  2078.35,1425.62 2078.35,121.675 
  "/>
<polyline clip-path="url(#clip5102)" style="stroke:#000000; stroke-width:2; stroke-opacity:0.1; fill:none" points="
  202.373,1388.71 2352.76,1388.71 
  "/>
<polyline clip-path="url(#clip5102)" style="stroke:#000000; stroke-width:2; stroke-opacity:0.1; fill:none" points="
  202.373,1005.33 2352.76,1005.33 
  "/>
<polyline clip-path="url(#clip5102)" style="stroke:#000000; stroke-width:2; stroke-opacity:0.1; fill:none" points="
  202.373,621.937 2352.76,621.937 
  "/>
<polyline clip-path="url(#clip5102)" style="stroke:#000000; stroke-width:2; stroke-opacity:0.1; fill:none" points="
  202.373,238.548 2352.76,238.548 
  "/>
<polyline clip-path="url(#clip5100)" style="stroke:#000000; stroke-width:4; stroke-opacity:1; fill:none" points="
  202.373,1425.62 2352.76,1425.62 
  "/>
<polyline clip-path="url(#clip5100)" style="stroke:#000000; stroke-width:4; stroke-opacity:1; fill:none" points="
  202.373,1425.62 202.373,121.675 
  "/>
<polyline clip-path="url(#clip5100)" style="stroke:#000000; stroke-width:4; stroke-opacity:1; fill:none" points="
  476.776,1425.62 476.776,1406.06 
  "/>
<polyline clip-path="url(#clip5100)" style="stroke:#000000; stroke-width:4; stroke-opacity:1; fill:none" points="
  1010.64,1425.62 1010.64,1406.06 
  "/>
<polyline clip-path="url(#clip5100)" style="stroke:#000000; stroke-width:4; stroke-opacity:1; fill:none" points="
  1544.49,1425.62 1544.49,1406.06 
  "/>
<polyline clip-path="url(#clip5100)" style="stroke:#000000; stroke-width:4; stroke-opacity:1; fill:none" points="
  2078.35,1425.62 2078.35,1406.06 
  "/>
<polyline clip-path="url(#clip5100)" style="stroke:#000000; stroke-width:4; stroke-opacity:1; fill:none" points="
  202.373,1388.71 234.629,1388.71 
  "/>
<polyline clip-path="url(#clip5100)" style="stroke:#000000; stroke-width:4; stroke-opacity:1; fill:none" points="
  202.373,1005.33 234.629,1005.33 
  "/>
<polyline clip-path="url(#clip5100)" style="stroke:#000000; stroke-width:4; stroke-opacity:1; fill:none" points="
  202.373,621.937 234.629,621.937 
  "/>
<polyline clip-path="url(#clip5100)" style="stroke:#000000; stroke-width:4; stroke-opacity:1; fill:none" points="
  202.373,238.548 234.629,238.548 
  "/>
<g clip-path="url(#clip5100)">
<text style="fill:#000000; fill-opacity:1; font-family:Arial,Helvetica Neue,Helvetica,sans-serif; font-size:48px; text-anchor:middle;" transform="rotate(0, 476.776, 1479.62)" x="476.776" y="1479.62">-1.05</text>
</g>
<g clip-path="url(#clip5100)">
<text style="fill:#000000; fill-opacity:1; font-family:Arial,Helvetica Neue,Helvetica,sans-serif; font-size:48px; text-anchor:middle;" transform="rotate(0, 1010.64, 1479.62)" x="1010.64" y="1479.62">-1.00</text>
</g>
<g clip-path="url(#clip5100)">
<text style="fill:#000000; fill-opacity:1; font-family:Arial,Helvetica Neue,Helvetica,sans-serif; font-size:48px; text-anchor:middle;" transform="rotate(0, 1544.49, 1479.62)" x="1544.49" y="1479.62">-0.95</text>
</g>
<g clip-path="url(#clip5100)">
<text style="fill:#000000; fill-opacity:1; font-family:Arial,Helvetica Neue,Helvetica,sans-serif; font-size:48px; text-anchor:middle;" transform="rotate(0, 2078.35, 1479.62)" x="2078.35" y="1479.62">-0.90</text>
</g>
<g clip-path="url(#clip5100)">
<text style="fill:#000000; fill-opacity:1; font-family:Arial,Helvetica Neue,Helvetica,sans-serif; font-size:48px; text-anchor:end;" transform="rotate(0, 178.373, 1406.21)" x="178.373" y="1406.21">0</text>
</g>
<g clip-path="url(#clip5100)">
<text style="fill:#000000; fill-opacity:1; font-family:Arial,Helvetica Neue,Helvetica,sans-serif; font-size:48px; text-anchor:end;" transform="rotate(0, 178.373, 1022.83)" x="178.373" y="1022.83">5</text>
</g>
<g clip-path="url(#clip5100)">
<text style="fill:#000000; fill-opacity:1; font-family:Arial,Helvetica Neue,Helvetica,sans-serif; font-size:48px; text-anchor:end;" transform="rotate(0, 178.373, 639.437)" x="178.373" y="639.437">10</text>
</g>
<g clip-path="url(#clip5100)">
<text style="fill:#000000; fill-opacity:1; font-family:Arial,Helvetica Neue,Helvetica,sans-serif; font-size:48px; text-anchor:end;" transform="rotate(0, 178.373, 256.048)" x="178.373" y="256.048">15</text>
</g>
<g clip-path="url(#clip5100)">
<text style="fill:#000000; fill-opacity:1; font-family:Arial,Helvetica Neue,Helvetica,sans-serif; font-size:84px; text-anchor:middle;" transform="rotate(0, 1277.56, 73.2)" x="1277.56" y="73.2">Marginalized Distribution for mu_1</text>
</g>
<g clip-path="url(#clip5100)">
<text style="fill:#000000; fill-opacity:1; font-family:Arial,Helvetica Neue,Helvetica,sans-serif; font-size:66px; text-anchor:middle;" transform="rotate(0, 1277.56, 1559.48)" x="1277.56" y="1559.48">mu_1</text>
</g>
<g clip-path="url(#clip5100)">
<text style="fill:#000000; fill-opacity:1; font-family:Arial,Helvetica Neue,Helvetica,sans-serif; font-size:66px; text-anchor:middle;" transform="rotate(-90, 89.2861, 773.647)" x="89.2861" y="773.647">P(mu_1)</text>
</g>
<polygon clip-path="url(#clip5102)" points="
263.233,1388.71 316.619,1388.71 316.619,1388.71 370.005,1388.71 370.005,1388.71 423.39,1388.71 423.39,1388.71 476.776,1388.71 476.776,1388.71 530.162,1388.71 
  530.162,1367.27 583.548,1367.27 583.548,1348.66 636.934,1348.66 636.934,1306.51 690.32,1306.51 690.32,1258.93 743.706,1258.93 743.706,1198.66 797.092,1198.66 
  797.092,1130.26 850.477,1130.26 850.477,1049.65 903.863,1049.65 903.863,946.735 957.249,946.735 957.249,836.795 1010.64,836.795 1010.64,714.036 1064.02,714.036 
  1064.02,508.453 1117.41,508.453 1117.41,347.856 1170.79,347.856 1170.79,301.267 1224.18,301.267 1224.18,230.768 1277.56,230.768 1277.56,219.675 1330.95,219.675 
  1330.95,194.408 1384.34,194.408 1384.34,242.723 1437.72,242.723 1437.72,319.755 1491.11,319.755 1491.11,413.549 1544.49,413.549 1544.49,575.378 1597.88,575.378 
  1597.88,741.768 1651.27,741.768 1651.27,869.826 1704.65,869.826 1704.65,1050.02 1758.04,1050.02 1758.04,1178.69 1811.42,1178.69 1811.42,1235.88 1864.81,1235.88 
  1864.81,1298.62 1918.19,1298.62 1918.19,1347.67 1971.58,1347.67 1971.58,1366.9 2024.97,1366.9 2024.97,1375.28 2078.35,1375.28 2078.35,1388.71 2131.74,1388.71 
  2131.74,1388.71 2185.12,1388.71 2185.12,1388.71 2238.51,1388.71 2238.51,1388.71 2291.9,1388.71 2291.9,1388.71 2291.9,1388.71 2291.9,1388.71 2238.51,1388.71 
  2238.51,1388.71 2185.12,1388.71 2185.12,1388.71 2131.74,1388.71 2131.74,1388.71 2078.35,1388.71 2078.35,1388.71 2024.97,1388.71 2024.97,1388.71 1971.58,1388.71 
  1971.58,1388.71 1918.19,1388.71 1918.19,1388.71 1864.81,1388.71 1864.81,1388.71 1811.42,1388.71 1811.42,1388.71 1758.04,1388.71 1758.04,1388.71 1704.65,1388.71 
  1704.65,1388.71 1651.27,1388.71 1651.27,1388.71 1597.88,1388.71 1597.88,1388.71 1544.49,1388.71 1544.49,1388.71 1491.11,1388.71 1491.11,1388.71 1437.72,1388.71 
  1437.72,1388.71 1384.34,1388.71 1384.34,1388.71 1330.95,1388.71 1330.95,1388.71 1277.56,1388.71 1277.56,1388.71 1224.18,1388.71 1224.18,1388.71 1170.79,1388.71 
  1170.79,1388.71 1117.41,1388.71 1117.41,1388.71 1064.02,1388.71 1064.02,1388.71 1010.64,1388.71 1010.64,1388.71 957.249,1388.71 957.249,1388.71 903.863,1388.71 
  903.863,1388.71 850.477,1388.71 850.477,1388.71 797.092,1388.71 797.092,1388.71 743.706,1388.71 743.706,1388.71 690.32,1388.71 690.32,1388.71 636.934,1388.71 
  636.934,1388.71 583.548,1388.71 583.548,1388.71 530.162,1388.71 530.162,1388.71 476.776,1388.71 476.776,1388.71 423.39,1388.71 423.39,1388.71 370.005,1388.71 
  370.005,1388.71 316.619,1388.71 316.619,1388.71 263.233,1388.71 
  " fill="#ff0000" fill-rule="evenodd" fill-opacity="1"/>
<polyline clip-path="url(#clip5102)" style="stroke:#009af9; stroke-width:0; stroke-opacity:1; fill:none" points="
  263.233,1388.71 316.619,1388.71 370.005,1388.71 423.39,1388.71 476.776,1388.71 530.162,1388.71 
  530.162,1367.27 583.548,1367.27 583.548,1348.66 636.934,1348.66 636.934,1306.51 690.32,1306.51 690.32,1258.93 743.706,1258.93 743.706,1198.66 797.092,1198.66 
  797.092,1130.26 850.477,1130.26 850.477,1049.65 903.863,1049.65 903.863,946.735 957.249,946.735 957.249,836.795 1010.64,836.795 1010.64,714.036 1064.02,714.036 
  1064.02,508.453 1117.41,508.453 1117.41,347.856 1170.79,347.856 1170.79,301.267 1224.18,301.267 1224.18,230.768 1277.56,230.768 1277.56,219.675 1330.95,219.675 
  1330.95,194.408 1384.34,194.408 1384.34,242.723 1437.72,242.723 1437.72,319.755 1491.11,319.755 1491.11,413.549 1544.49,413.549 1544.49,575.378 1597.88,575.378 
  1597.88,741.768 1651.27,741.768 1651.27,869.826 1704.65,869.826 1704.65,1050.02 1758.04,1050.02 1758.04,1178.69 1811.42,1178.69 1811.42,1235.88 1864.81,1235.88 
  1864.81,1298.62 1918.19,1298.62 1918.19,1347.67 1971.58,1347.67 1971.58,1366.9 2024.97,1366.9 2024.97,1375.28 2078.35,1375.28 2078.35,1388.71 2131.74,1388.71 
  2185.12,1388.71 2238.51,1388.71 2291.9,1388.71 
  "/>
<polygon clip-path="url(#clip5102)" points="
263.233,1388.71 316.619,1388.71 316.619,1388.71 370.005,1388.71 370.005,1388.71 423.39,1388.71 423.39,1388.71 476.776,1388.71 476.776,1388.71 530.162,1388.71 
  530.162,1388.71 583.548,1388.71 583.548,1388.71 636.934,1388.71 636.934,1388.71 690.32,1388.71 690.32,1388.71 743.706,1388.71 743.706,1198.66 797.092,1198.66 
  797.092,1130.26 850.477,1130.26 850.477,1049.65 903.863,1049.65 903.863,946.735 957.249,946.735 957.249,836.795 1010.64,836.795 1010.64,714.036 1064.02,714.036 
  1064.02,508.453 1117.41,508.453 1117.41,347.856 1170.79,347.856 1170.79,301.267 1224.18,301.267 1224.18,230.768 1277.56,230.768 1277.56,219.675 1330.95,219.675 
  1330.95,194.408 1384.34,194.408 1384.34,242.723 1437.72,242.723 1437.72,319.755 1491.11,319.755 1491.11,413.549 1544.49,413.549 1544.49,575.378 1597.88,575.378 
  1597.88,741.768 1651.27,741.768 1651.27,869.826 1704.65,869.826 1704.65,1050.02 1758.04,1050.02 1758.04,1178.69 1811.42,1178.69 1811.42,1388.71 1864.81,1388.71 
  1864.81,1388.71 1918.19,1388.71 1918.19,1388.71 1971.58,1388.71 1971.58,1388.71 2024.97,1388.71 2024.97,1388.71 2078.35,1388.71 2078.35,1388.71 2131.74,1388.71 
  2131.74,1388.71 2185.12,1388.71 2185.12,1388.71 2238.51,1388.71 2238.51,1388.71 2291.9,1388.71 2291.9,1388.71 2291.9,1388.71 2291.9,1388.71 2238.51,1388.71 
  2238.51,1388.71 2185.12,1388.71 2185.12,1388.71 2131.74,1388.71 2131.74,1388.71 2078.35,1388.71 2078.35,1388.71 2024.97,1388.71 2024.97,1388.71 1971.58,1388.71 
  1971.58,1388.71 1918.19,1388.71 1918.19,1388.71 1864.81,1388.71 1864.81,1388.71 1811.42,1388.71 1811.42,1388.71 1758.04,1388.71 1758.04,1388.71 1704.65,1388.71 
  1704.65,1388.71 1651.27,1388.71 1651.27,1388.71 1597.88,1388.71 1597.88,1388.71 1544.49,1388.71 1544.49,1388.71 1491.11,1388.71 1491.11,1388.71 1437.72,1388.71 
  1437.72,1388.71 1384.34,1388.71 1384.34,1388.71 1330.95,1388.71 1330.95,1388.71 1277.56,1388.71 1277.56,1388.71 1224.18,1388.71 1224.18,1388.71 1170.79,1388.71 
  1170.79,1388.71 1117.41,1388.71 1117.41,1388.71 1064.02,1388.71 1064.02,1388.71 1010.64,1388.71 1010.64,1388.71 957.249,1388.71 957.249,1388.71 903.863,1388.71 
  903.863,1388.71 850.477,1388.71 850.477,1388.71 797.092,1388.71 797.092,1388.71 743.706,1388.71 743.706,1388.71 690.32,1388.71 690.32,1388.71 636.934,1388.71 
  636.934,1388.71 583.548,1388.71 583.548,1388.71 530.162,1388.71 530.162,1388.71 476.776,1388.71 476.776,1388.71 423.39,1388.71 423.39,1388.71 370.005,1388.71 
  370.005,1388.71 316.619,1388.71 316.619,1388.71 263.233,1388.71 
  " fill="#ffff00" fill-rule="evenodd" fill-opacity="1"/>
<polyline clip-path="url(#clip5102)" style="stroke:#e26f46; stroke-width:0; stroke-opacity:1; fill:none" points="
  263.233,1388.71 316.619,1388.71 370.005,1388.71 423.39,1388.71 476.776,1388.71 530.162,1388.71 
  583.548,1388.71 636.934,1388.71 690.32,1388.71 743.706,1388.71 743.706,1198.66 797.092,1198.66 
  797.092,1130.26 850.477,1130.26 850.477,1049.65 903.863,1049.65 903.863,946.735 957.249,946.735 957.249,836.795 1010.64,836.795 1010.64,714.036 1064.02,714.036 
  1064.02,508.453 1117.41,508.453 1117.41,347.856 1170.79,347.856 1170.79,301.267 1224.18,301.267 1224.18,230.768 1277.56,230.768 1277.56,219.675 1330.95,219.675 
  1330.95,194.408 1384.34,194.408 1384.34,242.723 1437.72,242.723 1437.72,319.755 1491.11,319.755 1491.11,413.549 1544.49,413.549 1544.49,575.378 1597.88,575.378 
  1597.88,741.768 1651.27,741.768 1651.27,869.826 1704.65,869.826 1704.65,1050.02 1758.04,1050.02 1758.04,1178.69 1811.42,1178.69 1811.42,1388.71 1864.81,1388.71 
  1918.19,1388.71 1971.58,1388.71 2024.97,1388.71 2078.35,1388.71 2131.74,1388.71 
  2185.12,1388.71 2238.51,1388.71 2291.9,1388.71 
  "/>
<polygon clip-path="url(#clip5102)" points="
263.233,1388.71 316.619,1388.71 316.619,1388.71 370.005,1388.71 370.005,1388.71 423.39,1388.71 423.39,1388.71 476.776,1388.71 476.776,1388.71 530.162,1388.71 
  530.162,1388.71 583.548,1388.71 583.548,1388.71 636.934,1388.71 636.934,1388.71 690.32,1388.71 690.32,1388.71 743.706,1388.71 743.706,1388.71 797.092,1388.71 
  797.092,1388.71 850.477,1388.71 850.477,1388.71 903.863,1388.71 903.863,1388.71 957.249,1388.71 957.249,1388.71 1010.64,1388.71 1010.64,1388.71 1064.02,1388.71 
  1064.02,508.453 1117.41,508.453 1117.41,347.856 1170.79,347.856 1170.79,301.267 1224.18,301.267 1224.18,230.768 1277.56,230.768 1277.56,219.675 1330.95,219.675 
  1330.95,194.408 1384.34,194.408 1384.34,242.723 1437.72,242.723 1437.72,319.755 1491.11,319.755 1491.11,413.549 1544.49,413.549 1544.49,575.378 1597.88,575.378 
  1597.88,1388.71 1651.27,1388.71 1651.27,1388.71 1704.65,1388.71 1704.65,1388.71 1758.04,1388.71 1758.04,1388.71 1811.42,1388.71 1811.42,1388.71 1864.81,1388.71 
  1864.81,1388.71 1918.19,1388.71 1918.19,1388.71 1971.58,1388.71 1971.58,1388.71 2024.97,1388.71 2024.97,1388.71 2078.35,1388.71 2078.35,1388.71 2131.74,1388.71 
  2131.74,1388.71 2185.12,1388.71 2185.12,1388.71 2238.51,1388.71 2238.51,1388.71 2291.9,1388.71 2291.9,1388.71 2291.9,1388.71 2291.9,1388.71 2238.51,1388.71 
  2238.51,1388.71 2185.12,1388.71 2185.12,1388.71 2131.74,1388.71 2131.74,1388.71 2078.35,1388.71 2078.35,1388.71 2024.97,1388.71 2024.97,1388.71 1971.58,1388.71 
  1971.58,1388.71 1918.19,1388.71 1918.19,1388.71 1864.81,1388.71 1864.81,1388.71 1811.42,1388.71 1811.42,1388.71 1758.04,1388.71 1758.04,1388.71 1704.65,1388.71 
  1704.65,1388.71 1651.27,1388.71 1651.27,1388.71 1597.88,1388.71 1597.88,1388.71 1544.49,1388.71 1544.49,1388.71 1491.11,1388.71 1491.11,1388.71 1437.72,1388.71 
  1437.72,1388.71 1384.34,1388.71 1384.34,1388.71 1330.95,1388.71 1330.95,1388.71 1277.56,1388.71 1277.56,1388.71 1224.18,1388.71 1224.18,1388.71 1170.79,1388.71 
  1170.79,1388.71 1117.41,1388.71 1117.41,1388.71 1064.02,1388.71 1064.02,1388.71 1010.64,1388.71 1010.64,1388.71 957.249,1388.71 957.249,1388.71 903.863,1388.71 
  903.863,1388.71 850.477,1388.71 850.477,1388.71 797.092,1388.71 797.092,1388.71 743.706,1388.71 743.706,1388.71 690.32,1388.71 690.32,1388.71 636.934,1388.71 
  636.934,1388.71 583.548,1388.71 583.548,1388.71 530.162,1388.71 530.162,1388.71 476.776,1388.71 476.776,1388.71 423.39,1388.71 423.39,1388.71 370.005,1388.71 
  370.005,1388.71 316.619,1388.71 316.619,1388.71 263.233,1388.71 
  " fill="#76ee00" fill-rule="evenodd" fill-opacity="1"/>
<polyline clip-path="url(#clip5102)" style="stroke:#3da44d; stroke-width:0; stroke-opacity:1; fill:none" points="
  263.233,1388.71 316.619,1388.71 370.005,1388.71 423.39,1388.71 476.776,1388.71 530.162,1388.71 
  583.548,1388.71 636.934,1388.71 690.32,1388.71 743.706,1388.71 797.092,1388.71 
  850.477,1388.71 903.863,1388.71 957.249,1388.71 1010.64,1388.71 1064.02,1388.71 
  1064.02,508.453 1117.41,508.453 1117.41,347.856 1170.79,347.856 1170.79,301.267 1224.18,301.267 1224.18,230.768 1277.56,230.768 1277.56,219.675 1330.95,219.675 
  1330.95,194.408 1384.34,194.408 1384.34,242.723 1437.72,242.723 1437.72,319.755 1491.11,319.755 1491.11,413.549 1544.49,413.549 1544.49,575.378 1597.88,575.378 
  1597.88,1388.71 1651.27,1388.71 1704.65,1388.71 1758.04,1388.71 1811.42,1388.71 1864.81,1388.71 
  1918.19,1388.71 1971.58,1388.71 2024.97,1388.71 2078.35,1388.71 2131.74,1388.71 
  2185.12,1388.71 2238.51,1388.71 2291.9,1388.71 
  "/>
<polyline clip-path="url(#clip5102)" style="stroke:#000000; stroke-width:2.8; stroke-opacity:1; fill:none" points="
  263.233,1387.85 316.619,1387.85 316.619,1386.74 370.005,1386.74 370.005,1385.76 423.39,1385.76 423.39,1382.68 476.776,1382.68 476.776,1377.5 530.162,1377.5 
  530.162,1367.27 583.548,1367.27 583.548,1348.66 636.934,1348.66 636.934,1306.51 690.32,1306.51 690.32,1258.93 743.706,1258.93 743.706,1198.66 797.092,1198.66 
  797.092,1130.26 850.477,1130.26 850.477,1049.65 903.863,1049.65 903.863,946.735 957.249,946.735 957.249,836.795 1010.64,836.795 1010.64,714.036 1064.02,714.036 
  1064.02,508.453 1117.41,508.453 1117.41,347.856 1170.79,347.856 1170.79,301.267 1224.18,301.267 1224.18,230.768 1277.56,230.768 1277.56,219.675 1330.95,219.675 
  1330.95,194.408 1384.34,194.408 1384.34,242.723 1437.72,242.723 1437.72,319.755 1491.11,319.755 1491.11,413.549 1544.49,413.549 1544.49,575.378 1597.88,575.378 
  1597.88,741.768 1651.27,741.768 1651.27,869.826 1704.65,869.826 1704.65,1050.02 1758.04,1050.02 1758.04,1178.69 1811.42,1178.69 1811.42,1235.88 1864.81,1235.88 
  1864.81,1298.62 1918.19,1298.62 1918.19,1347.67 1971.58,1347.67 1971.58,1366.9 2024.97,1366.9 2024.97,1375.28 2078.35,1375.28 2078.35,1380.83 2131.74,1380.83 
  2131.74,1385.63 2185.12,1385.63 2185.12,1385.26 2238.51,1385.26 2238.51,1387.73 2291.9,1387.73 2291.9,1388.34 
  "/>
<polygon clip-path="url(#clip5102)" points="
1041.82,1388.71 1568.52,1388.71 1568.52,158.579 1041.82,158.579 1041.82,1388.71 
  " fill="#808080" fill-rule="evenodd" fill-opacity="0.5"/>
<polyline clip-path="url(#clip5102)" style="stroke:#000000; stroke-width:0; stroke-opacity:1; fill:none" points="
  1041.82,1388.71 1568.52,1388.71 1568.52,158.579 1041.82,158.579 1041.82,1388.71 
  "/>
<polyline clip-path="url(#clip5102)" style="stroke:#696969; stroke-width:4; stroke-opacity:1; fill:none" points="
  1305.17,1388.71 1305.17,158.579 
  "/>
<polyline clip-path="url(#clip5102)" style="stroke:#000000; stroke-width:4; stroke-opacity:1; fill:none" stroke-dasharray="16, 10" points="
  1299.1,1388.71 1299.1,158.579 
  "/>
<polyline clip-path="url(#clip5102)" style="stroke:#000000; stroke-width:4; stroke-opacity:1; fill:none" stroke-dasharray="2, 4" points="
  1357.64,1388.71 1357.64,158.579 
  "/>
<polygon clip-path="url(#clip5100)" points="
1463.01,689.035 2280.76,689.035 2280.76,205.195 1463.01,205.195 
  " fill="#ffffff" fill-rule="evenodd" fill-opacity="1"/>
<polyline clip-path="url(#clip5100)" style="stroke:#000000; stroke-width:4; stroke-opacity:1; fill:none" points="
  1463.01,689.035 2280.76,689.035 2280.76,205.195 1463.01,205.195 1463.01,689.035 
  "/>
<polygon clip-path="url(#clip5100)" points="
1487.01,289.867 1631.01,289.867 1631.01,241.483 1487.01,241.483 1487.01,289.867 
  " fill="#ff0000" fill-rule="evenodd" fill-opacity="1"/>
<polyline clip-path="url(#clip5100)" style="stroke:#009af9; stroke-width:0; stroke-opacity:1; fill:none" points="
  1487.01,241.483 1631.01,241.483 
  "/>
<g clip-path="url(#clip5100)">
<text style="fill:#000000; fill-opacity:1; font-family:Arial,Helvetica Neue,Helvetica,sans-serif; font-size:48px; text-anchor:start;" transform="rotate(0, 1655.01, 283.175)" x="1655.01" y="283.175">smallest 99.75% interval(s)</text>
</g>
<polygon clip-path="url(#clip5100)" points="
1487.01,350.347 1631.01,350.347 1631.01,301.963 1487.01,301.963 1487.01,350.347 
  " fill="#ffff00" fill-rule="evenodd" fill-opacity="1"/>
<polyline clip-path="url(#clip5100)" style="stroke:#e26f46; stroke-width:0; stroke-opacity:1; fill:none" points="
  1487.01,301.963 1631.01,301.963 
  "/>
<g clip-path="url(#clip5100)">
<text style="fill:#000000; fill-opacity:1; font-family:Arial,Helvetica Neue,Helvetica,sans-serif; font-size:48px; text-anchor:start;" transform="rotate(0, 1655.01, 343.655)" x="1655.01" y="343.655">smallest 95.88% interval(s)</text>
</g>
<polygon clip-path="url(#clip5100)" points="
1487.01,410.827 1631.01,410.827 1631.01,362.443 1487.01,362.443 1487.01,410.827 
  " fill="#76ee00" fill-rule="evenodd" fill-opacity="1"/>
<polyline clip-path="url(#clip5100)" style="stroke:#3da44d; stroke-width:0; stroke-opacity:1; fill:none" points="
  1487.01,362.443 1631.01,362.443 
  "/>
<g clip-path="url(#clip5100)">
<text style="fill:#000000; fill-opacity:1; font-family:Arial,Helvetica Neue,Helvetica,sans-serif; font-size:48px; text-anchor:start;" transform="rotate(0, 1655.01, 404.135)" x="1655.01" y="404.135">smallest 68.69% interval(s)</text>
</g>
<polygon clip-path="url(#clip5100)" points="
1487.01,471.307 1631.01,471.307 1631.01,422.923 1487.01,422.923 1487.01,471.307 
  " fill="#808080" fill-rule="evenodd" fill-opacity="0.5"/>
<polyline clip-path="url(#clip5100)" style="stroke:#000000; stroke-width:0; stroke-opacity:1; fill:none" points="
  1487.01,471.307 1631.01,471.307 1631.01,422.923 1487.01,422.923 1487.01,471.307 
  "/>
<g clip-path="url(#clip5100)">
<text style="fill:#000000; fill-opacity:1; font-family:Arial,Helvetica Neue,Helvetica,sans-serif; font-size:48px; text-anchor:start;" transform="rotate(0, 1655.01, 464.615)" x="1655.01" y="464.615">std. dev.</text>
</g>
<polyline clip-path="url(#clip5100)" style="stroke:#696969; stroke-width:4; stroke-opacity:1; fill:none" points="
  1487.01,507.595 1631.01,507.595 
  "/>
<g clip-path="url(#clip5100)">
<text style="fill:#000000; fill-opacity:1; font-family:Arial,Helvetica Neue,Helvetica,sans-serif; font-size:48px; text-anchor:start;" transform="rotate(0, 1655.01, 525.095)" x="1655.01" y="525.095">mean</text>
</g>
<polyline clip-path="url(#clip5100)" style="stroke:#000000; stroke-width:4; stroke-opacity:1; fill:none" stroke-dasharray="16, 10" points="
  1487.01,568.075 1631.01,568.075 
  "/>
<g clip-path="url(#clip5100)">
<text style="fill:#000000; fill-opacity:1; font-family:Arial,Helvetica Neue,Helvetica,sans-serif; font-size:48px; text-anchor:start;" transform="rotate(0, 1655.01, 585.575)" x="1655.01" y="585.575">global mode</text>
</g>
<polyline clip-path="url(#clip5100)" style="stroke:#000000; stroke-width:4; stroke-opacity:1; fill:none" stroke-dasharray="2, 4" points="
  1487.01,628.555 1631.01,628.555 
  "/>
<g clip-path="url(#clip5100)">
<text style="fill:#000000; fill-opacity:1; font-family:Arial,Helvetica Neue,Helvetica,sans-serif; font-size:48px; text-anchor:start;" transform="rotate(0, 1655.01, 646.055)" x="1655.01" y="646.055">local mode</text>
</g>
</svg>
