<?xml version="1.0" encoding="utf-8"?>
<svg xmlns="http://www.w3.org/2000/svg" xmlns:xlink="http://www.w3.org/1999/xlink" width="600" height="400" viewBox="0 0 2400 1600">
<defs>
  <clipPath id="clip6400">
    <rect x="0" y="0" width="2400" height="1600"/>
  </clipPath>
</defs>
<path clip-path="url(#clip6400)" d="
M0 1600 L2400 1600 L2400 0 L0 0  Z
  " fill="#ffffff" fill-rule="evenodd" fill-opacity="1"/>
<defs>
  <clipPath id="clip6401">
    <rect x="480" y="0" width="1681" height="1600"/>
  </clipPath>
</defs>
<path clip-path="url(#clip6400)" d="
M202.373 1425.62 L2352.76 1425.62 L2352.76 121.675 L202.373 121.675  Z
  " fill="#ffffff" fill-rule="evenodd" fill-opacity="1"/>
<defs>
  <clipPath id="clip6402">
    <rect x="202" y="121" width="2151" height="1305"/>
  </clipPath>
</defs>
<polyline clip-path="url(#clip6402)" style="stroke:#000000; stroke-width:2; stroke-opacity:0.1; fill:none" points="
  263.233,1425.62 263.233,121.675 
  "/>
<polyline clip-path="url(#clip6402)" style="stroke:#000000; stroke-width:2; stroke-opacity:0.1; fill:none" points="
  842.851,1425.62 842.851,121.675 
  "/>
<polyline clip-path="url(#clip6402)" style="stroke:#000000; stroke-width:2; stroke-opacity:0.1; fill:none" points="
  1422.47,1425.62 1422.47,121.675 
  "/>
<polyline clip-path="url(#clip6402)" style="stroke:#000000; stroke-width:2; stroke-opacity:0.1; fill:none" points="
  2002.09,1425.62 2002.09,121.675 
  "/>
<polyline clip-path="url(#clip6402)" style="stroke:#000000; stroke-width:2; stroke-opacity:0.1; fill:none" points="
  202.373,1388.71 2352.76,1388.71 
  "/>
<polyline clip-path="url(#clip6402)" style="stroke:#000000; stroke-width:2; stroke-opacity:0.1; fill:none" points="
  202.373,1048.85 2352.76,1048.85 
  "/>
<polyline clip-path="url(#clip6402)" style="stroke:#000000; stroke-width:2; stroke-opacity:0.1; fill:none" points="
  202.373,708.995 2352.76,708.995 
  "/>
<polyline clip-path="url(#clip6402)" style="stroke:#000000; stroke-width:2; stroke-opacity:0.1; fill:none" points="
  202.373,369.136 2352.76,369.136 
  "/>
<polyline clip-path="url(#clip6400)" style="stroke:#000000; stroke-width:4; stroke-opacity:1; fill:none" points="
  202.373,1425.62 2352.76,1425.62 
  "/>
<polyline clip-path="url(#clip6400)" style="stroke:#000000; stroke-width:4; stroke-opacity:1; fill:none" points="
  202.373,1425.62 202.373,121.675 
  "/>
<polyline clip-path="url(#clip6400)" style="stroke:#000000; stroke-width:4; stroke-opacity:1; fill:none" points="
  263.233,1425.62 263.233,1406.06 
  "/>
<polyline clip-path="url(#clip6400)" style="stroke:#000000; stroke-width:4; stroke-opacity:1; fill:none" points="
  842.851,1425.62 842.851,1406.06 
  "/>
<polyline clip-path="url(#clip6400)" style="stroke:#000000; stroke-width:4; stroke-opacity:1; fill:none" points="
  1422.47,1425.62 1422.47,1406.06 
  "/>
<polyline clip-path="url(#clip6400)" style="stroke:#000000; stroke-width:4; stroke-opacity:1; fill:none" points="
  2002.09,1425.62 2002.09,1406.06 
  "/>
<polyline clip-path="url(#clip6400)" style="stroke:#000000; stroke-width:4; stroke-opacity:1; fill:none" points="
  202.373,1388.71 234.629,1388.71 
  "/>
<polyline clip-path="url(#clip6400)" style="stroke:#000000; stroke-width:4; stroke-opacity:1; fill:none" points="
  202.373,1048.85 234.629,1048.85 
  "/>
<polyline clip-path="url(#clip6400)" style="stroke:#000000; stroke-width:4; stroke-opacity:1; fill:none" points="
  202.373,708.995 234.629,708.995 
  "/>
<polyline clip-path="url(#clip6400)" style="stroke:#000000; stroke-width:4; stroke-opacity:1; fill:none" points="
  202.373,369.136 234.629,369.136 
  "/>
<g clip-path="url(#clip6400)">
<text style="fill:#000000; fill-opacity:1; font-family:Arial,Helvetica Neue,Helvetica,sans-serif; font-size:48px; text-anchor:middle;" transform="rotate(0, 263.233, 1479.62)" x="263.233" y="1479.62">-1.10</text>
</g>
<g clip-path="url(#clip6400)">
<text style="fill:#000000; fill-opacity:1; font-family:Arial,Helvetica Neue,Helvetica,sans-serif; font-size:48px; text-anchor:middle;" transform="rotate(0, 842.851, 1479.62)" x="842.851" y="1479.62">-1.05</text>
</g>
<g clip-path="url(#clip6400)">
<text style="fill:#000000; fill-opacity:1; font-family:Arial,Helvetica Neue,Helvetica,sans-serif; font-size:48px; text-anchor:middle;" transform="rotate(0, 1422.47, 1479.62)" x="1422.47" y="1479.62">-1.00</text>
</g>
<g clip-path="url(#clip6400)">
<text style="fill:#000000; fill-opacity:1; font-family:Arial,Helvetica Neue,Helvetica,sans-serif; font-size:48px; text-anchor:middle;" transform="rotate(0, 2002.09, 1479.62)" x="2002.09" y="1479.62">-0.95</text>
</g>
<g clip-path="url(#clip6400)">
<text style="fill:#000000; fill-opacity:1; font-family:Arial,Helvetica Neue,Helvetica,sans-serif; font-size:48px; text-anchor:end;" transform="rotate(0, 178.373, 1406.21)" x="178.373" y="1406.21">0</text>
</g>
<g clip-path="url(#clip6400)">
<text style="fill:#000000; fill-opacity:1; font-family:Arial,Helvetica Neue,Helvetica,sans-serif; font-size:48px; text-anchor:end;" transform="rotate(0, 178.373, 1066.35)" x="178.373" y="1066.35">5</text>
</g>
<g clip-path="url(#clip6400)">
<text style="fill:#000000; fill-opacity:1; font-family:Arial,Helvetica Neue,Helvetica,sans-serif; font-size:48px; text-anchor:end;" transform="rotate(0, 178.373, 726.495)" x="178.373" y="726.495">10</text>
</g>
<g clip-path="url(#clip6400)">
<text style="fill:#000000; fill-opacity:1; font-family:Arial,Helvetica Neue,Helvetica,sans-serif; font-size:48px; text-anchor:end;" transform="rotate(0, 178.373, 386.636)" x="178.373" y="386.636">15</text>
</g>
<g clip-path="url(#clip6400)">
<text style="fill:#000000; fill-opacity:1; font-family:Arial,Helvetica Neue,Helvetica,sans-serif; font-size:84px; text-anchor:middle;" transform="rotate(0, 1277.56, 73.2)" x="1277.56" y="73.2">Marginalized Distribution for mu_1</text>
</g>
<g clip-path="url(#clip6400)">
<text style="fill:#000000; fill-opacity:1; font-family:Arial,Helvetica Neue,Helvetica,sans-serif; font-size:66px; text-anchor:middle;" transform="rotate(0, 1277.56, 1559.48)" x="1277.56" y="1559.48">mu_1</text>
</g>
<g clip-path="url(#clip6400)">
<text style="fill:#000000; fill-opacity:1; font-family:Arial,Helvetica Neue,Helvetica,sans-serif; font-size:66px; text-anchor:middle;" transform="rotate(-90, 89.2861, 773.647)" x="89.2861" y="773.647">P(mu_1)</text>
</g>
<path clip-path="url(#clip6402)" d="
M263.233 1388.71 L321.195 1388.71 L321.195 1388.71 L379.156 1388.71 L379.156 1388.71 L437.118 1388.71 L437.118 1375.26 L495.08 1375.26 L495.08 1356.67 L553.042 1356.67 
  L553.042 1342.81 L611.004 1342.81 L611.004 1328.63 L668.965 1328.63 L668.965 1276.87 L726.927 1276.87 L726.927 1252.23 L784.889 1252.23 L784.889 1186.7 L842.851 1186.7 
  L842.851 1105.16 L900.813 1105.16 L900.813 964.458 L958.774 964.458 L958.774 860.114 L1016.74 860.114 L1016.74 727.733 L1074.7 727.733 L1074.7 585.287 L1132.66 585.287 
  L1132.66 465.641 L1190.62 465.641 L1190.62 326.481 L1248.58 326.481 L1248.58 266.402 L1306.55 266.402 L1306.55 194.408 L1364.51 194.408 L1364.51 218.543 L1422.47 218.543 
  L1422.47 306.558 L1480.43 306.558 L1480.43 523.359 L1538.39 523.359 L1538.39 597.098 L1596.35 597.098 L1596.35 763.781 L1654.32 763.781 L1654.32 900.476 L1712.28 900.476 
  L1712.28 1040.15 L1770.24 1040.15 L1770.24 1179.31 L1828.2 1179.31 L1828.2 1246.27 L1886.16 1246.27 L1886.16 1290.84 L1944.13 1290.84 L1944.13 1319.6 L2002.09 1319.6 
  L2002.09 1347.53 L2060.05 1347.53 L2060.05 1364.07 L2118.01 1364.07 L2118.01 1388.71 L2175.97 1388.71 L2175.97 1388.71 L2233.93 1388.71 L2233.93 1388.71 L2291.9 1388.71 
  L2291.9 1388.71 L2291.9 1388.71 L2291.9 1388.71 L2233.93 1388.71 L2233.93 1388.71 L2175.97 1388.71 L2175.97 1388.71 L2118.01 1388.71 L2118.01 1388.71 L2060.05 1388.71 
  L2060.05 1388.71 L2002.09 1388.71 L2002.09 1388.71 L1944.13 1388.71 L1944.13 1388.71 L1886.16 1388.71 L1886.16 1388.71 L1828.2 1388.71 L1828.2 1388.71 L1770.24 1388.71 
  L1770.24 1388.71 L1712.28 1388.71 L1712.28 1388.71 L1654.32 1388.71 L1654.32 1388.71 L1596.35 1388.71 L1596.35 1388.71 L1538.39 1388.71 L1538.39 1388.71 L1480.43 1388.71 
  L1480.43 1388.71 L1422.47 1388.71 L1422.47 1388.71 L1364.51 1388.71 L1364.51 1388.71 L1306.55 1388.71 L1306.55 1388.71 L1248.58 1388.71 L1248.58 1388.71 L1190.62 1388.71 
  L1190.62 1388.71 L1132.66 1388.71 L1132.66 1388.71 L1074.7 1388.71 L1074.7 1388.71 L1016.74 1388.71 L1016.74 1388.71 L958.774 1388.71 L958.774 1388.71 L900.813 1388.71 
  L900.813 1388.71 L842.851 1388.71 L842.851 1388.71 L784.889 1388.71 L784.889 1388.71 L726.927 1388.71 L726.927 1388.71 L668.965 1388.71 L668.965 1388.71 L611.004 1388.71 
  L611.004 1388.71 L553.042 1388.71 L553.042 1388.71 L495.08 1388.71 L495.08 1388.71 L437.118 1388.71 L437.118 1388.71 L379.156 1388.71 L379.156 1388.71 L321.195 1388.71 
  L321.195 1388.71 L263.233 1388.71  Z
  " fill="#ff0000" fill-rule="evenodd" fill-opacity="1"/>
<polyline clip-path="url(#clip6402)" style="stroke:#009af9; stroke-width:0; stroke-opacity:1; fill:none" points="
  263.233,1388.71 321.195,1388.71 379.156,1388.71 437.118,1388.71 437.118,1375.26 495.08,1375.26 495.08,1356.67 553.042,1356.67 
  553.042,1342.81 611.004,1342.81 611.004,1328.63 668.965,1328.63 668.965,1276.87 726.927,1276.87 726.927,1252.23 784.889,1252.23 784.889,1186.7 842.851,1186.7 
  842.851,1105.16 900.813,1105.16 900.813,964.458 958.774,964.458 958.774,860.114 1016.74,860.114 1016.74,727.733 1074.7,727.733 1074.7,585.287 1132.66,585.287 
  1132.66,465.641 1190.62,465.641 1190.62,326.481 1248.58,326.481 1248.58,266.402 1306.55,266.402 1306.55,194.408 1364.51,194.408 1364.51,218.543 1422.47,218.543 
  1422.47,306.558 1480.43,306.558 1480.43,523.359 1538.39,523.359 1538.39,597.098 1596.35,597.098 1596.35,763.781 1654.32,763.781 1654.32,900.476 1712.28,900.476 
  1712.28,1040.15 1770.24,1040.15 1770.24,1179.31 1828.2,1179.31 1828.2,1246.27 1886.16,1246.27 1886.16,1290.84 1944.13,1290.84 1944.13,1319.6 2002.09,1319.6 
  2002.09,1347.53 2060.05,1347.53 2060.05,1364.07 2118.01,1364.07 2118.01,1388.71 2175.97,1388.71 2233.93,1388.71 2291.9,1388.71 
  
  "/>
<path clip-path="url(#clip6402)" d="
M263.233 1388.71 L321.195 1388.71 L321.195 1388.71 L379.156 1388.71 L379.156 1388.71 L437.118 1388.71 L437.118 1388.71 L495.08 1388.71 L495.08 1388.71 L553.042 1388.71 
  L553.042 1388.71 L611.004 1388.71 L611.004 1388.71 L668.965 1388.71 L668.965 1388.71 L726.927 1388.71 L726.927 1252.23 L784.889 1252.23 L784.889 1186.7 L842.851 1186.7 
  L842.851 1105.16 L900.813 1105.16 L900.813 964.458 L958.774 964.458 L958.774 860.114 L1016.74 860.114 L1016.74 727.733 L1074.7 727.733 L1074.7 585.287 L1132.66 585.287 
  L1132.66 465.641 L1190.62 465.641 L1190.62 326.481 L1248.58 326.481 L1248.58 266.402 L1306.55 266.402 L1306.55 194.408 L1364.51 194.408 L1364.51 218.543 L1422.47 218.543 
  L1422.47 306.558 L1480.43 306.558 L1480.43 523.359 L1538.39 523.359 L1538.39 597.098 L1596.35 597.098 L1596.35 763.781 L1654.32 763.781 L1654.32 900.476 L1712.28 900.476 
  L1712.28 1040.15 L1770.24 1040.15 L1770.24 1179.31 L1828.2 1179.31 L1828.2 1246.27 L1886.16 1246.27 L1886.16 1388.71 L1944.13 1388.71 L1944.13 1388.71 L2002.09 1388.71 
  L2002.09 1388.71 L2060.05 1388.71 L2060.05 1388.71 L2118.01 1388.71 L2118.01 1388.71 L2175.97 1388.71 L2175.97 1388.71 L2233.93 1388.71 L2233.93 1388.71 L2291.9 1388.71 
  L2291.9 1388.71 L2291.9 1388.71 L2291.9 1388.71 L2233.93 1388.71 L2233.93 1388.71 L2175.97 1388.71 L2175.97 1388.71 L2118.01 1388.71 L2118.01 1388.71 L2060.05 1388.71 
  L2060.05 1388.71 L2002.09 1388.71 L2002.09 1388.71 L1944.13 1388.71 L1944.13 1388.71 L1886.16 1388.71 L1886.16 1388.71 L1828.2 1388.71 L1828.2 1388.71 L1770.24 1388.71 
  L1770.24 1388.71 L1712.28 1388.71 L1712.28 1388.71 L1654.32 1388.71 L1654.32 1388.71 L1596.35 1388.71 L1596.35 1388.71 L1538.39 1388.71 L1538.39 1388.71 L1480.43 1388.71 
  L1480.43 1388.71 L1422.47 1388.71 L1422.47 1388.71 L1364.51 1388.71 L1364.51 1388.71 L1306.55 1388.71 L1306.55 1388.71 L1248.58 1388.71 L1248.58 1388.71 L1190.62 1388.71 
  L1190.62 1388.71 L1132.66 1388.71 L1132.66 1388.71 L1074.7 1388.71 L1074.7 1388.71 L1016.74 1388.71 L1016.74 1388.71 L958.774 1388.71 L958.774 1388.71 L900.813 1388.71 
  L900.813 1388.71 L842.851 1388.71 L842.851 1388.71 L784.889 1388.71 L784.889 1388.71 L726.927 1388.71 L726.927 1388.71 L668.965 1388.71 L668.965 1388.71 L611.004 1388.71 
  L611.004 1388.71 L553.042 1388.71 L553.042 1388.71 L495.08 1388.71 L495.08 1388.71 L437.118 1388.71 L437.118 1388.71 L379.156 1388.71 L379.156 1388.71 L321.195 1388.71 
  L321.195 1388.71 L263.233 1388.71  Z
  " fill="#ffff00" fill-rule="evenodd" fill-opacity="1"/>
<polyline clip-path="url(#clip6402)" style="stroke:#e26f46; stroke-width:0; stroke-opacity:1; fill:none" points="
  263.233,1388.71 321.195,1388.71 379.156,1388.71 437.118,1388.71 495.08,1388.71 553.042,1388.71 
  611.004,1388.71 668.965,1388.71 726.927,1388.71 726.927,1252.23 784.889,1252.23 784.889,1186.7 842.851,1186.7 
  842.851,1105.16 900.813,1105.16 900.813,964.458 958.774,964.458 958.774,860.114 1016.74,860.114 1016.74,727.733 1074.7,727.733 1074.7,585.287 1132.66,585.287 
  1132.66,465.641 1190.62,465.641 1190.62,326.481 1248.58,326.481 1248.58,266.402 1306.55,266.402 1306.55,194.408 1364.51,194.408 1364.51,218.543 1422.47,218.543 
  1422.47,306.558 1480.43,306.558 1480.43,523.359 1538.39,523.359 1538.39,597.098 1596.35,597.098 1596.35,763.781 1654.32,763.781 1654.32,900.476 1712.28,900.476 
  1712.28,1040.15 1770.24,1040.15 1770.24,1179.31 1828.2,1179.31 1828.2,1246.27 1886.16,1246.27 1886.16,1388.71 1944.13,1388.71 2002.09,1388.71 
  2060.05,1388.71 2118.01,1388.71 2175.97,1388.71 2233.93,1388.71 2291.9,1388.71 
  
  "/>
<path clip-path="url(#clip6402)" d="
M263.233 1388.71 L321.195 1388.71 L321.195 1388.71 L379.156 1388.71 L379.156 1388.71 L437.118 1388.71 L437.118 1388.71 L495.08 1388.71 L495.08 1388.71 L553.042 1388.71 
  L553.042 1388.71 L611.004 1388.71 L611.004 1388.71 L668.965 1388.71 L668.965 1388.71 L726.927 1388.71 L726.927 1388.71 L784.889 1388.71 L784.889 1388.71 L842.851 1388.71 
  L842.851 1388.71 L900.813 1388.71 L900.813 1388.71 L958.774 1388.71 L958.774 1388.71 L1016.74 1388.71 L1016.74 727.733 L1074.7 727.733 L1074.7 585.287 L1132.66 585.287 
  L1132.66 465.641 L1190.62 465.641 L1190.62 326.481 L1248.58 326.481 L1248.58 266.402 L1306.55 266.402 L1306.55 194.408 L1364.51 194.408 L1364.51 218.543 L1422.47 218.543 
  L1422.47 306.558 L1480.43 306.558 L1480.43 523.359 L1538.39 523.359 L1538.39 597.098 L1596.35 597.098 L1596.35 1388.71 L1654.32 1388.71 L1654.32 1388.71 L1712.28 1388.71 
  L1712.28 1388.71 L1770.24 1388.71 L1770.24 1388.71 L1828.2 1388.71 L1828.2 1388.71 L1886.16 1388.71 L1886.16 1388.71 L1944.13 1388.71 L1944.13 1388.71 L2002.09 1388.71 
  L2002.09 1388.71 L2060.05 1388.71 L2060.05 1388.71 L2118.01 1388.71 L2118.01 1388.71 L2175.97 1388.71 L2175.97 1388.71 L2233.93 1388.71 L2233.93 1388.71 L2291.9 1388.71 
  L2291.9 1388.71 L2291.9 1388.71 L2291.9 1388.71 L2233.93 1388.71 L2233.93 1388.71 L2175.97 1388.71 L2175.97 1388.71 L2118.01 1388.71 L2118.01 1388.71 L2060.05 1388.71 
  L2060.05 1388.71 L2002.09 1388.71 L2002.09 1388.71 L1944.13 1388.71 L1944.13 1388.71 L1886.16 1388.71 L1886.16 1388.71 L1828.2 1388.71 L1828.2 1388.71 L1770.24 1388.71 
  L1770.24 1388.71 L1712.28 1388.71 L1712.28 1388.71 L1654.32 1388.71 L1654.32 1388.71 L1596.35 1388.71 L1596.35 1388.71 L1538.39 1388.71 L1538.39 1388.71 L1480.43 1388.71 
  L1480.43 1388.71 L1422.47 1388.71 L1422.47 1388.71 L1364.51 1388.71 L1364.51 1388.71 L1306.55 1388.71 L1306.55 1388.71 L1248.58 1388.71 L1248.58 1388.71 L1190.62 1388.71 
  L1190.62 1388.71 L1132.66 1388.71 L1132.66 1388.71 L1074.7 1388.71 L1074.7 1388.71 L1016.74 1388.71 L1016.74 1388.71 L958.774 1388.71 L958.774 1388.71 L900.813 1388.71 
  L900.813 1388.71 L842.851 1388.71 L842.851 1388.71 L784.889 1388.71 L784.889 1388.71 L726.927 1388.71 L726.927 1388.71 L668.965 1388.71 L668.965 1388.71 L611.004 1388.71 
  L611.004 1388.71 L553.042 1388.71 L553.042 1388.71 L495.08 1388.71 L495.08 1388.71 L437.118 1388.71 L437.118 1388.71 L379.156 1388.71 L379.156 1388.71 L321.195 1388.71 
  L321.195 1388.71 L263.233 1388.71  Z
  " fill="#76ee00" fill-rule="evenodd" fill-opacity="1"/>
<polyline clip-path="url(#clip6402)" style="stroke:#3da44d; stroke-width:0; stroke-opacity:1; fill:none" points="
  263.233,1388.71 321.195,1388.71 379.156,1388.71 437.118,1388.71 495.08,1388.71 553.042,1388.71 
  611.004,1388.71 668.965,1388.71 726.927,1388.71 784.889,1388.71 842.851,1388.71 
  900.813,1388.71 958.774,1388.71 1016.74,1388.71 1016.74,727.733 1074.7,727.733 1074.7,585.287 1132.66,585.287 
  1132.66,465.641 1190.62,465.641 1190.62,326.481 1248.58,326.481 1248.58,266.402 1306.55,266.402 1306.55,194.408 1364.51,194.408 1364.51,218.543 1422.47,218.543 
  1422.47,306.558 1480.43,306.558 1480.43,523.359 1538.39,523.359 1538.39,597.098 1596.35,597.098 1596.35,1388.71 1654.32,1388.71 1712.28,1388.71 
  1770.24,1388.71 1828.2,1388.71 1886.16,1388.71 1944.13,1388.71 2002.09,1388.71 
  2060.05,1388.71 2118.01,1388.71 2175.97,1388.71 2233.93,1388.71 2291.9,1388.71 
  
  "/>
<polyline clip-path="url(#clip6402)" style="stroke:#000000; stroke-width:2.8; stroke-opacity:1; fill:none" points="
  263.233,1388.41 321.195,1388.41 321.195,1385.74 379.156,1385.74 379.156,1378.34 437.118,1378.34 437.118,1375.26 495.08,1375.26 495.08,1356.67 553.042,1356.67 
  553.042,1342.81 611.004,1342.81 611.004,1328.63 668.965,1328.63 668.965,1276.87 726.927,1276.87 726.927,1252.23 784.889,1252.23 784.889,1186.7 842.851,1186.7 
  842.851,1105.16 900.813,1105.16 900.813,964.458 958.774,964.458 958.774,860.114 1016.74,860.114 1016.74,727.733 1074.7,727.733 1074.7,585.287 1132.66,585.287 
  1132.66,465.641 1190.62,465.641 1190.62,326.481 1248.58,326.481 1248.58,266.402 1306.55,266.402 1306.55,194.408 1364.51,194.408 1364.51,218.543 1422.47,218.543 
  1422.47,306.558 1480.43,306.558 1480.43,523.359 1538.39,523.359 1538.39,597.098 1596.35,597.098 1596.35,763.781 1654.32,763.781 1654.32,900.476 1712.28,900.476 
  1712.28,1040.15 1770.24,1040.15 1770.24,1179.31 1828.2,1179.31 1828.2,1246.27 1886.16,1246.27 1886.16,1290.84 1944.13,1290.84 1944.13,1319.6 2002.09,1319.6 
  2002.09,1347.53 2060.05,1347.53 2060.05,1364.07 2118.01,1364.07 2118.01,1376.9 2175.97,1376.9 2175.97,1382.55 2233.93,1382.55 2233.93,1387.58 2291.9,1387.58 
  2291.9,1387.38 
  "/>
<path clip-path="url(#clip6402)" d="
M1043.27 1388.71 L1592.66 1388.71 L1592.66 158.579 L1043.27 158.579 L1043.27 1388.71  Z
  " fill="#808080" fill-rule="evenodd" fill-opacity="0.5"/>
<polyline clip-path="url(#clip6402)" style="stroke:#000000; stroke-width:0; stroke-opacity:1; fill:none" points="
  1043.27,1388.71 1592.66,1388.71 1592.66,158.579 1043.27,158.579 1043.27,1388.71 
  "/>
<polyline clip-path="url(#clip6402)" style="stroke:#696969; stroke-width:4; stroke-opacity:1; fill:none" points="
  1317.96,1388.71 1317.96,158.579 
  "/>
<polyline clip-path="url(#clip6402)" style="stroke:#000000; stroke-width:4; stroke-opacity:1; fill:none" stroke-dasharray="16, 10" points="
  1271.76,1388.71 1271.76,158.579 
  "/>
<polyline clip-path="url(#clip6402)" style="stroke:#000000; stroke-width:4; stroke-opacity:1; fill:none" stroke-dasharray="2, 4" points="
  1335.53,1388.71 1335.53,158.579 
  "/>
<path clip-path="url(#clip6400)" d="
M1463.01 689.035 L2280.76 689.035 L2280.76 205.195 L1463.01 205.195  Z
  " fill="#ffffff" fill-rule="evenodd" fill-opacity="1"/>
<polyline clip-path="url(#clip6400)" style="stroke:#000000; stroke-width:4; stroke-opacity:1; fill:none" points="
  1463.01,689.035 2280.76,689.035 2280.76,205.195 1463.01,205.195 1463.01,689.035 
  "/>
<path clip-path="url(#clip6400)" d="
M1487.01 289.867 L1631.01 289.867 L1631.01 241.483 L1487.01 241.483 L1487.01 289.867  Z
  " fill="#ff0000" fill-rule="evenodd" fill-opacity="1"/>
<polyline clip-path="url(#clip6400)" style="stroke:#009af9; stroke-width:0; stroke-opacity:1; fill:none" points="
  1487.01,241.483 1631.01,241.483 
  "/>
<g clip-path="url(#clip6400)">
<text style="fill:#000000; fill-opacity:1; font-family:Arial,Helvetica Neue,Helvetica,sans-serif; font-size:48px; text-anchor:start;" transform="rotate(0, 1655.01, 283.175)" x="1655.01" y="283.175">smallest 99.75% interval(s)</text>
</g>
<path clip-path="url(#clip6400)" d="
M1487.01 350.347 L1631.01 350.347 L1631.01 301.963 L1487.01 301.963 L1487.01 350.347  Z
  " fill="#ffff00" fill-rule="evenodd" fill-opacity="1"/>
<polyline clip-path="url(#clip6400)" style="stroke:#e26f46; stroke-width:0; stroke-opacity:1; fill:none" points="
  1487.01,301.963 1631.01,301.963 
  "/>
<g clip-path="url(#clip6400)">
<text style="fill:#000000; fill-opacity:1; font-family:Arial,Helvetica Neue,Helvetica,sans-serif; font-size:48px; text-anchor:start;" transform="rotate(0, 1655.01, 343.655)" x="1655.01" y="343.655">smallest 96.10% interval(s)</text>
</g>
<path clip-path="url(#clip6400)" d="
M1487.01 410.827 L1631.01 410.827 L1631.01 362.443 L1487.01 362.443 L1487.01 410.827  Z
  " fill="#76ee00" fill-rule="evenodd" fill-opacity="1"/>
<polyline clip-path="url(#clip6400)" style="stroke:#3da44d; stroke-width:0; stroke-opacity:1; fill:none" points="
  1487.01,362.443 1631.01,362.443 
  "/>
<g clip-path="url(#clip6400)">
<text style="fill:#000000; fill-opacity:1; font-family:Arial,Helvetica Neue,Helvetica,sans-serif; font-size:48px; text-anchor:start;" transform="rotate(0, 1655.01, 404.135)" x="1655.01" y="404.135">smallest 71.17% interval(s)</text>
</g>
<path clip-path="url(#clip6400)" d="
M1487.01 471.307 L1631.01 471.307 L1631.01 422.923 L1487.01 422.923 L1487.01 471.307  Z
  " fill="#808080" fill-rule="evenodd" fill-opacity="0.5"/>
<polyline clip-path="url(#clip6400)" style="stroke:#000000; stroke-width:0; stroke-opacity:1; fill:none" points="
  1487.01,471.307 1631.01,471.307 1631.01,422.923 1487.01,422.923 1487.01,471.307 
  "/>
<g clip-path="url(#clip6400)">
<text style="fill:#000000; fill-opacity:1; font-family:Arial,Helvetica Neue,Helvetica,sans-serif; font-size:48px; text-anchor:start;" transform="rotate(0, 1655.01, 464.615)" x="1655.01" y="464.615">std. dev.</text>
</g>
<polyline clip-path="url(#clip6400)" style="stroke:#696969; stroke-width:4; stroke-opacity:1; fill:none" points="
  1487.01,507.595 1631.01,507.595 
  "/>
<g clip-path="url(#clip6400)">
<text style="fill:#000000; fill-opacity:1; font-family:Arial,Helvetica Neue,Helvetica,sans-serif; font-size:48px; text-anchor:start;" transform="rotate(0, 1655.01, 525.095)" x="1655.01" y="525.095">mean</text>
</g>
<polyline clip-path="url(#clip6400)" style="stroke:#000000; stroke-width:4; stroke-opacity:1; fill:none" stroke-dasharray="16, 10" points="
  1487.01,568.075 1631.01,568.075 
  "/>
<g clip-path="url(#clip6400)">
<text style="fill:#000000; fill-opacity:1; font-family:Arial,Helvetica Neue,Helvetica,sans-serif; font-size:48px; text-anchor:start;" transform="rotate(0, 1655.01, 585.575)" x="1655.01" y="585.575">global mode</text>
</g>
<polyline clip-path="url(#clip6400)" style="stroke:#000000; stroke-width:4; stroke-opacity:1; fill:none" stroke-dasharray="2, 4" points="
  1487.01,628.555 1631.01,628.555 
  "/>
<g clip-path="url(#clip6400)">
<text style="fill:#000000; fill-opacity:1; font-family:Arial,Helvetica Neue,Helvetica,sans-serif; font-size:48px; text-anchor:start;" transform="rotate(0, 1655.01, 646.055)" x="1655.01" y="646.055">local mode</text>
</g>
</svg>
