<?xml version="1.0" encoding="utf-8"?>
<svg xmlns="http://www.w3.org/2000/svg" xmlns:xlink="http://www.w3.org/1999/xlink" width="600" height="400" viewBox="0 0 2400 1600">
<defs>
  <clipPath id="clip6100">
    <rect x="0" y="0" width="2400" height="1600"/>
  </clipPath>
</defs>
<path clip-path="url(#clip6100)" d="
M0 1600 L2400 1600 L2400 0 L0 0  Z
  " fill="#ffffff" fill-rule="evenodd" fill-opacity="1"/>
<defs>
  <clipPath id="clip6101">
    <rect x="480" y="0" width="1681" height="1600"/>
  </clipPath>
</defs>
<path clip-path="url(#clip6100)" d="
M167.279 1487.47 L2352.76 1487.47 L2352.76 121.675 L167.279 121.675  Z
  " fill="#ffffff" fill-rule="evenodd" fill-opacity="1"/>
<defs>
  <clipPath id="clip6102">
    <rect x="167" y="121" width="2186" height="1367"/>
  </clipPath>
</defs>
<polyline clip-path="url(#clip6102)" style="stroke:#000000; stroke-width:2; stroke-opacity:0.1; fill:none" points="
  229.132,1487.47 229.132,121.675 
  "/>
<polyline clip-path="url(#clip6102)" style="stroke:#000000; stroke-width:2; stroke-opacity:0.1; fill:none" points="
  744.575,1487.47 744.575,121.675 
  "/>
<polyline clip-path="url(#clip6102)" style="stroke:#000000; stroke-width:2; stroke-opacity:0.1; fill:none" points="
  1260.02,1487.47 1260.02,121.675 
  "/>
<polyline clip-path="url(#clip6102)" style="stroke:#000000; stroke-width:2; stroke-opacity:0.1; fill:none" points="
  1775.46,1487.47 1775.46,121.675 
  "/>
<polyline clip-path="url(#clip6102)" style="stroke:#000000; stroke-width:2; stroke-opacity:0.1; fill:none" points="
  2290.9,1487.47 2290.9,121.675 
  "/>
<polyline clip-path="url(#clip6102)" style="stroke:#000000; stroke-width:2; stroke-opacity:0.1; fill:none" points="
  167.279,1448.82 2352.76,1448.82 
  "/>
<polyline clip-path="url(#clip6102)" style="stroke:#000000; stroke-width:2; stroke-opacity:0.1; fill:none" points="
  167.279,1155.98 2352.76,1155.98 
  "/>
<polyline clip-path="url(#clip6102)" style="stroke:#000000; stroke-width:2; stroke-opacity:0.1; fill:none" points="
  167.279,863.143 2352.76,863.143 
  "/>
<polyline clip-path="url(#clip6102)" style="stroke:#000000; stroke-width:2; stroke-opacity:0.1; fill:none" points="
  167.279,570.304 2352.76,570.304 
  "/>
<polyline clip-path="url(#clip6102)" style="stroke:#000000; stroke-width:2; stroke-opacity:0.1; fill:none" points="
  167.279,277.465 2352.76,277.465 
  "/>
<polyline clip-path="url(#clip6100)" style="stroke:#000000; stroke-width:4; stroke-opacity:1; fill:none" points="
  167.279,1487.47 2352.76,1487.47 
  "/>
<polyline clip-path="url(#clip6100)" style="stroke:#000000; stroke-width:4; stroke-opacity:1; fill:none" points="
  167.279,1487.47 167.279,121.675 
  "/>
<polyline clip-path="url(#clip6100)" style="stroke:#000000; stroke-width:4; stroke-opacity:1; fill:none" points="
  229.132,1487.47 229.132,1466.99 
  "/>
<polyline clip-path="url(#clip6100)" style="stroke:#000000; stroke-width:4; stroke-opacity:1; fill:none" points="
  744.575,1487.47 744.575,1466.99 
  "/>
<polyline clip-path="url(#clip6100)" style="stroke:#000000; stroke-width:4; stroke-opacity:1; fill:none" points="
  1260.02,1487.47 1260.02,1466.99 
  "/>
<polyline clip-path="url(#clip6100)" style="stroke:#000000; stroke-width:4; stroke-opacity:1; fill:none" points="
  1775.46,1487.47 1775.46,1466.99 
  "/>
<polyline clip-path="url(#clip6100)" style="stroke:#000000; stroke-width:4; stroke-opacity:1; fill:none" points="
  2290.9,1487.47 2290.9,1466.99 
  "/>
<polyline clip-path="url(#clip6100)" style="stroke:#000000; stroke-width:4; stroke-opacity:1; fill:none" points="
  167.279,1448.82 200.061,1448.82 
  "/>
<polyline clip-path="url(#clip6100)" style="stroke:#000000; stroke-width:4; stroke-opacity:1; fill:none" points="
  167.279,1155.98 200.061,1155.98 
  "/>
<polyline clip-path="url(#clip6100)" style="stroke:#000000; stroke-width:4; stroke-opacity:1; fill:none" points="
  167.279,863.143 200.061,863.143 
  "/>
<polyline clip-path="url(#clip6100)" style="stroke:#000000; stroke-width:4; stroke-opacity:1; fill:none" points="
  167.279,570.304 200.061,570.304 
  "/>
<polyline clip-path="url(#clip6100)" style="stroke:#000000; stroke-width:4; stroke-opacity:1; fill:none" points="
  167.279,277.465 200.061,277.465 
  "/>
<g clip-path="url(#clip6100)">
<text style="fill:#000000; fill-opacity:1; font-family:Arial,Helvetica Neue,Helvetica,sans-serif; font-size:48px; text-anchor:middle;" transform="rotate(0, 229.132, 1541.47)" x="229.132" y="1541.47">-4</text>
</g>
<g clip-path="url(#clip6100)">
<text style="fill:#000000; fill-opacity:1; font-family:Arial,Helvetica Neue,Helvetica,sans-serif; font-size:48px; text-anchor:middle;" transform="rotate(0, 744.575, 1541.47)" x="744.575" y="1541.47">-2</text>
</g>
<g clip-path="url(#clip6100)">
<text style="fill:#000000; fill-opacity:1; font-family:Arial,Helvetica Neue,Helvetica,sans-serif; font-size:48px; text-anchor:middle;" transform="rotate(0, 1260.02, 1541.47)" x="1260.02" y="1541.47">0</text>
</g>
<g clip-path="url(#clip6100)">
<text style="fill:#000000; fill-opacity:1; font-family:Arial,Helvetica Neue,Helvetica,sans-serif; font-size:48px; text-anchor:middle;" transform="rotate(0, 1775.46, 1541.47)" x="1775.46" y="1541.47">2</text>
</g>
<g clip-path="url(#clip6100)">
<text style="fill:#000000; fill-opacity:1; font-family:Arial,Helvetica Neue,Helvetica,sans-serif; font-size:48px; text-anchor:middle;" transform="rotate(0, 2290.9, 1541.47)" x="2290.9" y="1541.47">4</text>
</g>
<g clip-path="url(#clip6100)">
<text style="fill:#000000; fill-opacity:1; font-family:Arial,Helvetica Neue,Helvetica,sans-serif; font-size:48px; text-anchor:end;" transform="rotate(0, 143.279, 1466.32)" x="143.279" y="1466.32">0</text>
</g>
<g clip-path="url(#clip6100)">
<text style="fill:#000000; fill-opacity:1; font-family:Arial,Helvetica Neue,Helvetica,sans-serif; font-size:48px; text-anchor:end;" transform="rotate(0, 143.279, 1173.48)" x="143.279" y="1173.48">200</text>
</g>
<g clip-path="url(#clip6100)">
<text style="fill:#000000; fill-opacity:1; font-family:Arial,Helvetica Neue,Helvetica,sans-serif; font-size:48px; text-anchor:end;" transform="rotate(0, 143.279, 880.643)" x="143.279" y="880.643">400</text>
</g>
<g clip-path="url(#clip6100)">
<text style="fill:#000000; fill-opacity:1; font-family:Arial,Helvetica Neue,Helvetica,sans-serif; font-size:48px; text-anchor:end;" transform="rotate(0, 143.279, 587.804)" x="143.279" y="587.804">600</text>
</g>
<g clip-path="url(#clip6100)">
<text style="fill:#000000; fill-opacity:1; font-family:Arial,Helvetica Neue,Helvetica,sans-serif; font-size:48px; text-anchor:end;" transform="rotate(0, 143.279, 294.965)" x="143.279" y="294.965">800</text>
</g>
<g clip-path="url(#clip6100)">
<text style="fill:#000000; fill-opacity:1; font-family:Arial,Helvetica Neue,Helvetica,sans-serif; font-size:84px; text-anchor:middle;" transform="rotate(0, 1260.02, 73.2)" x="1260.02" y="73.2">Data and True Statistical Model</text>
</g>
<polyline clip-path="url(#clip6102)" style="stroke:#009af9; stroke-width:4; stroke-opacity:1; fill:none" points="
  744.575,1448.82 744.575,1273.12 770.347,1273.12 770.347,1346.33 796.119,1346.33 796.119,1287.76 821.891,1287.76 821.891,1273.12 847.663,1273.12 847.663,1097.41 
  873.436,1097.41 873.436,1038.85 899.208,1038.85 899.208,877.785 924.98,877.785 924.98,1068.13 950.752,1068.13 950.752,965.636 976.524,965.636 976.524,760.649 
  1002.3,760.649 1002.3,892.427 1028.07,892.427 1028.07,804.575 1053.84,804.575 1053.84,848.501 1079.61,848.501 1079.61,994.92 1105.38,994.92 
  1131.16,994.92 1131.16,1155.98 1156.93,1155.98 1156.93,1331.68 1182.7,1331.68 1182.7,1302.4 1208.47,1302.4 1208.47,1317.04 1234.25,1317.04 1234.25,1331.68 
  1260.02,1331.68 1260.02,1390.25 1285.79,1390.25 1285.79,1404.89 1311.56,1404.89 1311.56,1434.18 1337.33,1434.18 1337.33,1419.54 1363.11,1419.54 1363.11,1448.82 
  1388.88,1448.82 1414.65,1448.82 1414.65,1375.61 1440.42,1375.61 1440.42,1404.89 1466.19,1404.89 1466.19,1375.61 1491.97,1375.61 1491.97,1287.76 
  1517.74,1287.76 1517.74,1331.68 1543.51,1331.68 1543.51,1214.55 1569.28,1214.55 1569.28,1097.41 1595.06,1097.41 1595.06,980.278 1620.83,980.278 1620.83,907.068 
  1646.6,907.068 1646.6,731.365 1672.37,731.365 1672.37,541.02 1698.14,541.02 1698.14,482.452 1723.92,482.452 1723.92,321.391 1749.69,321.391 1749.69,160.33 
  1775.46,160.33 1801.23,160.33 1801.23,379.959 1827,379.959 1827,306.749 1852.78,306.749 1852.78,453.169 1878.55,453.169 1878.55,687.439 
  1904.32,687.439 1904.32,789.933 1930.09,789.933 1930.09,980.278 1955.87,980.278 1955.87,1068.13 1981.64,1068.13 1981.64,1097.41 2007.41,1097.41 2007.41,1214.55 
  2033.18,1214.55 2033.18,1360.97 2058.95,1360.97 2084.73,1360.97 2084.73,1419.54 2110.5,1419.54 2110.5,1448.82 2136.27,1448.82 
  2162.04,1448.82 2187.81,1448.82 2187.81,1434.18 2213.59,1434.18 2213.59,1448.82 2239.36,1448.82 2265.13,1448.82 
  2290.9,1448.82 
  "/>
<polyline clip-path="url(#clip6102)" style="stroke:#e26f46; stroke-width:4; stroke-opacity:1; fill:none" points="
  229.132,1448.82 231.709,1448.82 234.287,1448.82 236.864,1448.82 239.441,1448.82 242.018,1448.82 244.596,1448.82 247.173,1448.82 249.75,1448.82 252.327,1448.82 
  254.904,1448.82 257.482,1448.82 260.059,1448.82 262.636,1448.82 265.213,1448.82 267.79,1448.82 270.368,1448.82 272.945,1448.82 275.522,1448.82 278.099,1448.82 
  280.677,1448.82 283.254,1448.82 285.831,1448.82 288.408,1448.82 290.985,1448.82 293.563,1448.82 296.14,1448.82 298.717,1448.82 301.294,1448.82 303.871,1448.82 
  306.449,1448.82 309.026,1448.82 311.603,1448.82 314.18,1448.82 316.758,1448.82 319.335,1448.82 321.912,1448.82 324.489,1448.82 327.066,1448.82 329.644,1448.82 
  332.221,1448.82 334.798,1448.82 337.375,1448.82 339.952,1448.82 342.53,1448.82 345.107,1448.82 347.684,1448.82 350.261,1448.82 352.838,1448.82 355.416,1448.82 
  357.993,1448.82 360.57,1448.82 363.147,1448.82 365.725,1448.82 368.302,1448.82 370.879,1448.82 373.456,1448.82 376.033,1448.82 378.611,1448.82 381.188,1448.81 
  383.765,1448.81 386.342,1448.81 388.919,1448.81 391.497,1448.81 394.074,1448.81 396.651,1448.81 399.228,1448.81 401.806,1448.81 404.383,1448.81 406.96,1448.81 
  409.537,1448.81 412.114,1448.8 414.692,1448.8 417.269,1448.8 419.846,1448.8 422.423,1448.8 425,1448.79 427.578,1448.79 430.155,1448.79 432.732,1448.79 
  435.309,1448.78 437.887,1448.78 440.464,1448.78 443.041,1448.77 445.618,1448.77 448.195,1448.76 450.773,1448.76 453.35,1448.75 455.927,1448.75 458.504,1448.74 
  461.081,1448.73 463.659,1448.73 466.236,1448.72 468.813,1448.71 471.39,1448.7 473.968,1448.69 476.545,1448.68 479.122,1448.67 481.699,1448.65 484.276,1448.64 
  486.854,1448.62 489.431,1448.61 492.008,1448.59 494.585,1448.57 497.162,1448.55 499.74,1448.53 502.317,1448.51 504.894,1448.48 507.471,1448.45 510.048,1448.42 
  512.626,1448.39 515.203,1448.36 517.78,1448.32 520.357,1448.28 522.935,1448.24 525.512,1448.2 528.089,1448.15 530.666,1448.1 533.243,1448.04 535.821,1447.99 
  538.398,1447.92 540.975,1447.86 543.552,1447.79 546.129,1447.71 548.707,1447.63 551.284,1447.54 553.861,1447.45 556.438,1447.35 559.016,1447.25 561.593,1447.13 
  564.17,1447.02 566.747,1446.89 569.324,1446.75 571.902,1446.61 574.479,1446.46 577.056,1446.3 579.633,1446.13 582.21,1445.94 584.788,1445.75 587.365,1445.55 
  589.942,1445.33 592.519,1445.1 595.097,1444.86 597.674,1444.6 600.251,1444.33 602.828,1444.04 605.405,1443.73 607.983,1443.41 610.56,1443.07 613.137,1442.71 
  615.714,1442.33 618.291,1441.93 620.869,1441.51 623.446,1441.07 626.023,1440.6 628.6,1440.1 631.178,1439.59 633.755,1439.04 636.332,1438.47 638.909,1437.86 
  641.486,1437.23 644.064,1436.57 646.641,1435.87 649.218,1435.13 651.795,1434.37 654.372,1433.56 656.95,1432.72 659.527,1431.84 662.104,1430.91 664.681,1429.94 
  667.258,1428.93 669.836,1427.87 672.413,1426.77 674.99,1425.62 677.567,1424.41 680.145,1423.16 682.722,1421.84 685.299,1420.48 687.876,1419.06 690.453,1417.57 
  693.031,1416.03 695.608,1414.42 698.185,1412.76 700.762,1411.02 703.339,1409.22 705.917,1407.34 708.494,1405.4 711.071,1403.38 713.648,1401.29 716.226,1399.12 
  718.803,1396.88 721.38,1394.55 723.957,1392.15 726.534,1389.66 729.112,1387.08 731.689,1384.42 734.266,1381.67 736.843,1378.83 739.42,1375.9 741.998,1372.88 
  744.575,1369.77 747.152,1366.56 749.729,1363.25 752.307,1359.85 754.884,1356.35 757.461,1352.75 760.038,1349.04 762.615,1345.24 765.193,1341.34 767.77,1337.33 
  770.347,1333.22 772.924,1329.01 775.501,1324.69 778.079,1320.27 780.656,1315.74 783.233,1311.11 785.81,1306.38 788.388,1301.54 790.965,1296.6 793.542,1291.56 
  796.119,1286.41 798.696,1281.16 801.274,1275.81 803.851,1270.37 806.428,1264.82 809.005,1259.18 811.582,1253.44 814.16,1247.62 816.737,1241.7 819.314,1235.69 
  821.891,1229.59 824.469,1223.41 827.046,1217.15 829.623,1210.81 832.2,1204.39 834.777,1197.9 837.355,1191.35 839.932,1184.72 842.509,1178.04 845.086,1171.29 
  847.663,1164.49 850.241,1157.65 852.818,1150.75 855.395,1143.82 857.972,1136.85 860.549,1129.84 863.127,1122.81 865.704,1115.76 868.281,1108.69 870.858,1101.61 
  873.436,1094.53 876.013,1087.44 878.59,1080.36 881.167,1073.3 883.744,1066.25 886.322,1059.22 888.899,1052.22 891.476,1045.26 894.053,1038.34 896.63,1031.47 
  899.208,1024.66 901.785,1017.9 904.362,1011.21 906.939,1004.6 909.517,998.066 912.094,991.62 914.671,985.267 917.248,979.013 919.825,972.866 922.403,966.831 
  924.98,960.915 927.557,955.123 930.134,949.463 932.711,943.94 935.289,938.56 937.866,933.328 940.443,928.252 943.02,923.335 945.598,918.585 948.175,914.005 
  950.752,909.601 953.329,905.379 955.906,901.343 958.484,897.497 961.061,893.846 963.638,890.395 966.215,887.146 968.792,884.105 971.37,881.274 973.947,878.658 
  976.524,876.258 979.101,874.078 981.679,872.121 984.256,870.388 986.833,868.882 989.41,867.605 991.987,866.558 994.565,865.742 997.142,865.158 999.719,864.808 
  1002.3,864.691 1004.87,864.808 1007.45,865.158 1010.03,865.742 1012.61,866.558 1015.18,867.605 1017.76,868.882 1020.34,870.388 1022.91,872.121 1025.49,874.078 
  1028.07,876.258 1030.65,878.658 1033.22,881.274 1035.8,884.105 1038.38,887.146 1040.95,890.394 1043.53,893.846 1046.11,897.497 1048.69,901.342 1051.26,905.379 
  1053.84,909.601 1056.42,914.005 1058.99,918.584 1061.57,923.335 1064.15,928.251 1066.73,933.328 1069.3,938.559 1071.88,943.939 1074.46,949.463 1077.04,955.123 
  1079.61,960.914 1082.19,966.83 1084.77,972.865 1087.34,979.013 1089.92,985.266 1092.5,991.619 1095.08,998.065 1097.65,1004.6 1100.23,1011.21 1102.81,1017.9 
  1105.38,1024.65 1107.96,1031.47 1110.54,1038.34 1113.12,1045.26 1115.69,1052.22 1118.27,1059.22 1120.85,1066.24 1123.43,1073.29 1126,1080.36 1128.58,1087.44 
  1131.16,1094.52 1133.73,1101.61 1136.31,1108.69 1138.89,1115.75 1141.47,1122.81 1144.04,1129.84 1146.62,1136.84 1149.2,1143.81 1151.77,1150.74 1154.35,1157.64 
  1156.93,1164.48 1159.51,1171.28 1162.08,1178.02 1164.66,1184.71 1167.24,1191.33 1169.82,1197.88 1172.39,1204.37 1174.97,1210.79 1177.55,1217.12 1180.12,1223.38 
  1182.7,1229.56 1185.28,1235.65 1187.86,1241.66 1190.43,1247.58 1193.01,1253.4 1195.59,1259.13 1198.16,1264.77 1200.74,1270.31 1203.32,1275.75 1205.9,1281.1 
  1208.47,1286.34 1211.05,1291.48 1213.63,1296.51 1216.2,1301.45 1218.78,1306.28 1221.36,1311 1223.94,1315.62 1226.51,1320.14 1229.09,1324.55 1231.67,1328.85 
  1234.25,1333.05 1236.82,1337.14 1239.4,1341.13 1241.98,1345.02 1244.55,1348.8 1247.13,1352.48 1249.71,1356.06 1252.29,1359.54 1254.86,1362.92 1257.44,1366.2 
  1260.02,1369.37 1262.59,1372.46 1265.17,1375.44 1267.75,1378.33 1270.33,1381.13 1272.9,1383.84 1275.48,1386.45 1278.06,1388.98 1280.64,1391.41 1283.21,1393.76 
  1285.79,1396.02 1288.37,1398.2 1290.94,1400.3 1293.52,1402.31 1296.1,1404.25 1298.68,1406.1 1301.25,1407.88 1303.83,1409.58 1306.41,1411.2 1308.98,1412.76 
  1311.56,1414.24 1314.14,1415.65 1316.72,1416.99 1319.29,1418.26 1321.87,1419.46 1324.45,1420.6 1327.03,1421.67 1329.6,1422.68 1332.18,1423.62 1334.76,1424.5 
  1337.33,1425.32 1339.91,1426.08 1342.49,1426.78 1345.07,1427.42 1347.64,1428 1350.22,1428.52 1352.8,1428.98 1355.37,1429.38 1357.95,1429.73 1360.53,1430.02 
  1363.11,1430.25 1365.68,1430.42 1368.26,1430.54 1370.84,1430.6 1373.41,1430.6 1375.99,1430.54 1378.57,1430.42 1381.15,1430.24 1383.72,1430.01 1386.3,1429.71 
  1388.88,1429.35 1391.46,1428.93 1394.03,1428.45 1396.61,1427.9 1399.19,1427.29 1401.76,1426.61 1404.34,1425.86 1406.92,1425.04 1409.5,1424.15 1412.07,1423.19 
  1414.65,1422.15 1417.23,1421.04 1419.8,1419.85 1422.38,1418.57 1424.96,1417.22 1427.54,1415.78 1430.11,1414.26 1432.69,1412.64 1435.27,1410.94 1437.85,1409.14 
  1440.42,1407.24 1443,1405.24 1445.58,1403.15 1448.15,1400.94 1450.73,1398.63 1453.31,1396.21 1455.89,1393.68 1458.46,1391.03 1461.04,1388.26 1463.62,1385.36 
  1466.19,1382.34 1468.77,1379.2 1471.35,1375.91 1473.93,1372.5 1476.5,1368.94 1479.08,1365.25 1481.66,1361.4 1484.24,1357.41 1486.81,1353.27 1489.39,1348.97 
  1491.97,1344.51 1494.54,1339.89 1497.12,1335.1 1499.7,1330.15 1502.28,1325.03 1504.85,1319.73 1507.43,1314.25 1510.01,1308.6 1512.58,1302.76 1515.16,1296.73 
  1517.74,1290.52 1520.32,1284.11 1522.89,1277.52 1525.47,1270.72 1528.05,1263.73 1530.62,1256.54 1533.2,1249.15 1535.78,1241.55 1538.36,1233.75 1540.93,1225.75 
  1543.51,1217.54 1546.09,1209.12 1548.67,1200.49 1551.24,1191.65 1553.82,1182.61 1556.4,1173.35 1558.97,1163.89 1561.55,1154.22 1564.13,1144.34 1566.71,1134.25 
  1569.28,1123.96 1571.86,1113.47 1574.44,1102.78 1577.01,1091.89 1579.59,1080.8 1582.17,1069.52 1584.75,1058.05 1587.32,1046.39 1589.9,1034.55 1592.48,1022.54 
  1595.06,1010.35 1597.63,997.986 1600.21,985.464 1602.79,972.785 1605.36,959.954 1607.94,946.977 1610.52,933.862 1613.1,920.616 1615.67,907.245 1618.25,893.758 
  1620.83,880.162 1623.4,866.467 1625.98,852.679 1628.56,838.81 1631.14,824.867 1633.71,810.861 1636.29,796.801 1638.87,782.698 1641.45,768.562 1644.02,754.404 
  1646.6,740.234 1649.18,726.064 1651.75,711.906 1654.33,697.771 1656.91,683.671 1659.49,669.618 1662.06,655.624 1664.64,641.702 1667.22,627.864 1669.79,614.122 
  1672.37,600.49 1674.95,586.98 1677.53,573.605 1680.1,560.378 1682.68,547.312 1685.26,534.419 1687.83,521.713 1690.41,509.206 1692.99,496.912 1695.57,484.842 
  1698.14,473.009 1700.72,461.426 1703.3,450.106 1705.88,439.059 1708.45,428.299 1711.03,417.836 1713.61,407.683 1716.18,397.85 1718.76,388.349 1721.34,379.19 
  1723.92,370.383 1726.49,361.938 1729.07,353.865 1731.65,346.174 1734.22,338.872 1736.8,331.969 1739.38,325.472 1741.96,319.39 1744.53,313.729 1747.11,308.495 
  1749.69,303.696 1752.27,299.336 1754.84,295.421 1757.42,291.956 1760,288.944 1762.57,286.389 1765.15,284.295 1767.73,282.664 1770.31,281.497 1772.88,280.796 
  1775.46,280.563 1778.04,280.796 1780.61,281.497 1783.19,282.664 1785.77,284.295 1788.35,286.389 1790.92,288.944 1793.5,291.956 1796.08,295.421 1798.66,299.336 
  1801.23,303.696 1803.81,308.495 1806.39,313.729 1808.96,319.39 1811.54,325.472 1814.12,331.969 1816.7,338.872 1819.27,346.174 1821.85,353.865 1824.43,361.938 
  1827,370.383 1829.58,379.19 1832.16,388.349 1834.74,397.85 1837.31,407.683 1839.89,417.837 1842.47,428.299 1845.04,439.06 1847.62,450.106 1850.2,461.427 
  1852.78,473.01 1855.35,484.842 1857.93,496.912 1860.51,509.207 1863.09,521.714 1865.66,534.42 1868.24,547.312 1870.82,560.379 1873.39,573.606 1875.97,586.981 
  1878.55,600.491 1881.13,614.123 1883.7,627.865 1886.28,641.703 1888.86,655.626 1891.43,669.619 1894.01,683.673 1896.59,697.773 1899.17,711.908 1901.74,726.066 
  1904.32,740.236 1906.9,754.406 1909.48,768.565 1912.05,782.701 1914.63,796.804 1917.21,810.865 1919.78,824.871 1922.36,838.814 1924.94,852.684 1927.52,866.472 
  1930.09,880.168 1932.67,893.764 1935.25,907.252 1937.82,920.623 1940.4,933.871 1942.98,946.987 1945.56,959.964 1948.13,972.796 1950.71,985.477 1953.29,998 
  1955.87,1010.36 1958.44,1022.55 1961.02,1034.57 1963.6,1046.41 1966.17,1058.07 1968.75,1069.54 1971.33,1080.83 1973.91,1091.92 1976.48,1102.81 1979.06,1113.51 
  1981.64,1124 1984.21,1134.29 1986.79,1144.38 1989.37,1154.26 1991.95,1163.94 1994.52,1173.41 1997.1,1182.67 1999.68,1191.72 2002.25,1200.56 2004.83,1209.2 
  2007.41,1217.62 2009.99,1225.84 2012.56,1233.86 2015.14,1241.66 2017.72,1249.27 2020.3,1256.67 2022.87,1263.87 2025.45,1270.88 2028.03,1277.68 2030.6,1284.29 
  2033.18,1290.71 2035.76,1296.94 2038.34,1302.99 2040.91,1308.84 2043.49,1314.52 2046.07,1320.02 2048.64,1325.34 2051.22,1330.49 2053.8,1335.47 2056.38,1340.29 
  2058.95,1344.94 2061.53,1349.43 2064.11,1353.76 2066.69,1357.95 2069.26,1361.98 2071.84,1365.87 2074.42,1369.61 2076.99,1373.22 2079.57,1376.69 2082.15,1380.03 
  2084.73,1383.24 2087.3,1386.33 2089.88,1389.29 2092.46,1392.14 2095.03,1394.87 2097.61,1397.49 2100.19,1400 2102.77,1402.41 2105.34,1404.72 2107.92,1406.93 
  2110.5,1409.04 2113.08,1411.07 2115.65,1413 2118.23,1414.85 2120.81,1416.62 2123.38,1418.3 2125.96,1419.91 2128.54,1421.45 2131.12,1422.91 2133.69,1424.31 
  2136.27,1425.64 2138.85,1426.91 2141.42,1428.11 2144,1429.26 2146.58,1430.35 2149.16,1431.39 2151.73,1432.37 2154.31,1433.31 2156.89,1434.2 2159.46,1435.04 
  2162.04,1435.84 2164.62,1436.6 2167.2,1437.32 2169.77,1438 2172.35,1438.64 2174.93,1439.25 2177.51,1439.83 2180.08,1440.38 2182.66,1440.89 2185.24,1441.38 
  2187.81,1441.84 2190.39,1442.27 2192.97,1442.68 2195.55,1443.07 2198.12,1443.43 2200.7,1443.78 2203.28,1444.1 2205.85,1444.4 2208.43,1444.69 2211.01,1444.96 
  2213.59,1445.21 2216.16,1445.45 2218.74,1445.67 2221.32,1445.88 2223.9,1446.08 2226.47,1446.26 2229.05,1446.44 2231.63,1446.6 2234.2,1446.75 2236.78,1446.89 
  2239.36,1447.03 2241.94,1447.15 2244.51,1447.27 2247.09,1447.38 2249.67,1447.48 2252.24,1447.58 2254.82,1447.67 2257.4,1447.75 2259.98,1447.83 2262.55,1447.9 
  2265.13,1447.97 2267.71,1448.03 2270.29,1448.09 2272.86,1448.14 2275.44,1448.19 2278.02,1448.24 2280.59,1448.28 2283.17,1448.32 2285.75,1448.36 2288.33,1448.4 
  2290.9,1448.43 
  "/>
<path clip-path="url(#clip6100)" d="
M1928.41 386.635 L2280.76 386.635 L2280.76 205.195 L1928.41 205.195  Z
  " fill="#ffffff" fill-rule="evenodd" fill-opacity="1"/>
<polyline clip-path="url(#clip6100)" style="stroke:#000000; stroke-width:4; stroke-opacity:1; fill:none" points="
  1928.41,386.635 2280.76,386.635 2280.76,205.195 1928.41,205.195 1928.41,386.635 
  "/>
<polyline clip-path="url(#clip6100)" style="stroke:#009af9; stroke-width:4; stroke-opacity:1; fill:none" points="
  1952.41,265.675 2096.41,265.675 
  "/>
<g clip-path="url(#clip6100)">
<text style="fill:#000000; fill-opacity:1; font-family:Arial,Helvetica Neue,Helvetica,sans-serif; font-size:48px; text-anchor:start;" transform="rotate(0, 2120.41, 283.175)" x="2120.41" y="283.175">Data</text>
</g>
<polyline clip-path="url(#clip6100)" style="stroke:#e26f46; stroke-width:4; stroke-opacity:1; fill:none" points="
  1952.41,326.155 2096.41,326.155 
  "/>
<g clip-path="url(#clip6100)">
<text style="fill:#000000; fill-opacity:1; font-family:Arial,Helvetica Neue,Helvetica,sans-serif; font-size:48px; text-anchor:start;" transform="rotate(0, 2120.41, 343.655)" x="2120.41" y="343.655">Truth</text>
</g>
</svg>
