<?xml version="1.0" encoding="utf-8"?>
<svg xmlns="http://www.w3.org/2000/svg" xmlns:xlink="http://www.w3.org/1999/xlink" width="600" height="400" viewBox="0 0 2400 1600">
<defs>
  <clipPath id="clip950">
    <rect x="0" y="0" width="2400" height="1600"/>
  </clipPath>
</defs>
<path clip-path="url(#clip950)" d="
M0 1600 L2400 1600 L2400 0 L0 0  Z
  " fill="#ffffff" fill-rule="evenodd" fill-opacity="1"/>
<defs>
  <clipPath id="clip951">
    <rect x="480" y="0" width="1681" height="1600"/>
  </clipPath>
</defs>
<path clip-path="url(#clip950)" d="
M166.205 1486.45 L2352.76 1486.45 L2352.76 123.472 L166.205 123.472  Z
  " fill="#ffffff" fill-rule="evenodd" fill-opacity="1"/>
<defs>
  <clipPath id="clip952">
    <rect x="166" y="123" width="2188" height="1364"/>
  </clipPath>
</defs>
<polyline clip-path="url(#clip952)" style="stroke:#000000; stroke-width:2; stroke-opacity:0.1; fill:none" points="
  228.088,1486.45 228.088,123.472 
  "/>
<polyline clip-path="url(#clip952)" style="stroke:#000000; stroke-width:2; stroke-opacity:0.1; fill:none" points="
  571.886,1486.45 571.886,123.472 
  "/>
<polyline clip-path="url(#clip952)" style="stroke:#000000; stroke-width:2; stroke-opacity:0.1; fill:none" points="
  915.683,1486.45 915.683,123.472 
  "/>
<polyline clip-path="url(#clip952)" style="stroke:#000000; stroke-width:2; stroke-opacity:0.1; fill:none" points="
  1259.48,1486.45 1259.48,123.472 
  "/>
<polyline clip-path="url(#clip952)" style="stroke:#000000; stroke-width:2; stroke-opacity:0.1; fill:none" points="
  1603.28,1486.45 1603.28,123.472 
  "/>
<polyline clip-path="url(#clip952)" style="stroke:#000000; stroke-width:2; stroke-opacity:0.1; fill:none" points="
  1947.08,1486.45 1947.08,123.472 
  "/>
<polyline clip-path="url(#clip952)" style="stroke:#000000; stroke-width:2; stroke-opacity:0.1; fill:none" points="
  2290.87,1486.45 2290.87,123.472 
  "/>
<polyline clip-path="url(#clip952)" style="stroke:#000000; stroke-width:2; stroke-opacity:0.1; fill:none" points="
  166.205,1447.87 2352.76,1447.87 
  "/>
<polyline clip-path="url(#clip952)" style="stroke:#000000; stroke-width:2; stroke-opacity:0.1; fill:none" points="
  166.205,1130.39 2352.76,1130.39 
  "/>
<polyline clip-path="url(#clip952)" style="stroke:#000000; stroke-width:2; stroke-opacity:0.1; fill:none" points="
  166.205,812.897 2352.76,812.897 
  "/>
<polyline clip-path="url(#clip952)" style="stroke:#000000; stroke-width:2; stroke-opacity:0.1; fill:none" points="
  166.205,495.409 2352.76,495.409 
  "/>
<polyline clip-path="url(#clip952)" style="stroke:#000000; stroke-width:2; stroke-opacity:0.1; fill:none" points="
  166.205,177.921 2352.76,177.921 
  "/>
<polyline clip-path="url(#clip950)" style="stroke:#000000; stroke-width:4; stroke-opacity:1; fill:none" points="
  166.205,1486.45 2352.76,1486.45 
  "/>
<polyline clip-path="url(#clip950)" style="stroke:#000000; stroke-width:4; stroke-opacity:1; fill:none" points="
  166.205,1486.45 166.205,123.472 
  "/>
<polyline clip-path="url(#clip950)" style="stroke:#000000; stroke-width:4; stroke-opacity:1; fill:none" points="
  228.088,1486.45 228.088,1470.09 
  "/>
<polyline clip-path="url(#clip950)" style="stroke:#000000; stroke-width:4; stroke-opacity:1; fill:none" points="
  571.886,1486.45 571.886,1470.09 
  "/>
<polyline clip-path="url(#clip950)" style="stroke:#000000; stroke-width:4; stroke-opacity:1; fill:none" points="
  915.683,1486.45 915.683,1470.09 
  "/>
<polyline clip-path="url(#clip950)" style="stroke:#000000; stroke-width:4; stroke-opacity:1; fill:none" points="
  1259.48,1486.45 1259.48,1470.09 
  "/>
<polyline clip-path="url(#clip950)" style="stroke:#000000; stroke-width:4; stroke-opacity:1; fill:none" points="
  1603.28,1486.45 1603.28,1470.09 
  "/>
<polyline clip-path="url(#clip950)" style="stroke:#000000; stroke-width:4; stroke-opacity:1; fill:none" points="
  1947.08,1486.45 1947.08,1470.09 
  "/>
<polyline clip-path="url(#clip950)" style="stroke:#000000; stroke-width:4; stroke-opacity:1; fill:none" points="
  2290.87,1486.45 2290.87,1470.09 
  "/>
<polyline clip-path="url(#clip950)" style="stroke:#000000; stroke-width:4; stroke-opacity:1; fill:none" points="
  166.205,1447.87 192.443,1447.87 
  "/>
<polyline clip-path="url(#clip950)" style="stroke:#000000; stroke-width:4; stroke-opacity:1; fill:none" points="
  166.205,1130.39 192.443,1130.39 
  "/>
<polyline clip-path="url(#clip950)" style="stroke:#000000; stroke-width:4; stroke-opacity:1; fill:none" points="
  166.205,812.897 192.443,812.897 
  "/>
<polyline clip-path="url(#clip950)" style="stroke:#000000; stroke-width:4; stroke-opacity:1; fill:none" points="
  166.205,495.409 192.443,495.409 
  "/>
<polyline clip-path="url(#clip950)" style="stroke:#000000; stroke-width:4; stroke-opacity:1; fill:none" points="
  166.205,177.921 192.443,177.921 
  "/>
<path clip-path="url(#clip950)" d="M 0 0 M209.142 1525.04 L221.618 1525.04 L221.618 1528.83 L209.142 1528.83 L209.142 1525.04 Z" fill="#000000" fill-rule="evenodd" fill-opacity="1" /><path clip-path="url(#clip950)" d="M 0 0 M230.715 1535.98 L247.035 1535.98 L247.035 1539.92 L225.091 1539.92 L225.091 1535.98 Q227.753 1533.23 232.336 1528.6 Q236.942 1523.95 238.123 1522.61 Q240.368 1520.08 241.248 1518.35 Q242.151 1516.59 242.151 1514.9 Q242.151 1512.14 240.206 1510.41 Q238.285 1508.67 235.183 1508.67 Q232.984 1508.67 230.53 1509.43 Q228.1 1510.2 225.322 1511.75 L225.322 1507.03 Q228.146 1505.89 230.6 1505.31 Q233.053 1504.73 235.09 1504.73 Q240.461 1504.73 243.655 1507.42 Q246.85 1510.11 246.85 1514.6 Q246.85 1516.73 246.039 1518.65 Q245.252 1520.54 243.146 1523.14 Q242.567 1523.81 239.465 1527.03 Q236.364 1530.22 230.715 1535.98 Z" fill="#000000" fill-rule="evenodd" fill-opacity="1" /><path clip-path="url(#clip950)" d="M 0 0 M552.754 1525.04 L565.23 1525.04 L565.23 1528.83 L552.754 1528.83 L552.754 1525.04 Z" fill="#000000" fill-rule="evenodd" fill-opacity="1" /><path clip-path="url(#clip950)" d="M 0 0 M571.11 1535.98 L578.749 1535.98 L578.749 1509.62 L570.439 1511.29 L570.439 1507.03 L578.703 1505.36 L583.379 1505.36 L583.379 1535.98 L591.017 1535.98 L591.017 1539.92 L571.11 1539.92 L571.11 1535.98 Z" fill="#000000" fill-rule="evenodd" fill-opacity="1" /><path clip-path="url(#clip950)" d="M 0 0 M915.683 1508.44 Q912.072 1508.44 910.243 1512 Q908.438 1515.55 908.438 1522.67 Q908.438 1529.78 910.243 1533.35 Q912.072 1536.89 915.683 1536.89 Q919.317 1536.89 921.123 1533.35 Q922.951 1529.78 922.951 1522.67 Q922.951 1515.55 921.123 1512 Q919.317 1508.44 915.683 1508.44 M915.683 1504.73 Q921.493 1504.73 924.549 1509.34 Q927.627 1513.92 927.627 1522.67 Q927.627 1531.4 924.549 1536.01 Q921.493 1540.59 915.683 1540.59 Q909.873 1540.59 906.794 1536.01 Q903.739 1531.4 903.739 1522.67 Q903.739 1513.92 906.794 1509.34 Q909.873 1504.73 915.683 1504.73 Z" fill="#000000" fill-rule="evenodd" fill-opacity="1" /><path clip-path="url(#clip950)" d="M 0 0 M1249.86 1535.98 L1257.5 1535.98 L1257.5 1509.62 L1249.19 1511.29 L1249.19 1507.03 L1257.45 1505.36 L1262.13 1505.36 L1262.13 1535.98 L1269.77 1535.98 L1269.77 1539.92 L1249.86 1539.92 L1249.86 1535.98 Z" fill="#000000" fill-rule="evenodd" fill-opacity="1" /><path clip-path="url(#clip950)" d="M 0 0 M1597.93 1535.98 L1614.25 1535.98 L1614.25 1539.92 L1592.31 1539.92 L1592.31 1535.98 Q1594.97 1533.23 1599.55 1528.6 Q1604.16 1523.95 1605.34 1522.61 Q1607.58 1520.08 1608.46 1518.35 Q1609.37 1516.59 1609.37 1514.9 Q1609.37 1512.14 1607.42 1510.41 Q1605.5 1508.67 1602.4 1508.67 Q1600.2 1508.67 1597.75 1509.43 Q1595.31 1510.2 1592.54 1511.75 L1592.54 1507.03 Q1595.36 1505.89 1597.81 1505.31 Q1600.27 1504.73 1602.31 1504.73 Q1607.68 1504.73 1610.87 1507.42 Q1614.06 1510.11 1614.06 1514.6 Q1614.06 1516.73 1613.25 1518.65 Q1612.47 1520.54 1610.36 1523.14 Q1609.78 1523.81 1606.68 1527.03 Q1603.58 1530.22 1597.93 1535.98 Z" fill="#000000" fill-rule="evenodd" fill-opacity="1" /><path clip-path="url(#clip950)" d="M 0 0 M1951.32 1521.29 Q1954.68 1522 1956.55 1524.27 Q1958.45 1526.54 1958.45 1529.87 Q1958.45 1534.99 1954.93 1537.79 Q1951.42 1540.59 1944.93 1540.59 Q1942.76 1540.59 1940.44 1540.15 Q1938.15 1539.73 1935.7 1538.88 L1935.7 1534.36 Q1937.64 1535.5 1939.96 1536.08 Q1942.27 1536.66 1944.79 1536.66 Q1949.19 1536.66 1951.48 1534.92 Q1953.8 1533.18 1953.8 1529.87 Q1953.8 1526.82 1951.65 1525.11 Q1949.52 1523.37 1945.7 1523.37 L1941.67 1523.37 L1941.67 1519.53 L1945.88 1519.53 Q1949.33 1519.53 1951.16 1518.16 Q1952.99 1516.77 1952.99 1514.18 Q1952.99 1511.52 1951.09 1510.11 Q1949.22 1508.67 1945.7 1508.67 Q1943.78 1508.67 1941.58 1509.09 Q1939.38 1509.5 1936.74 1510.38 L1936.74 1506.22 Q1939.4 1505.48 1941.72 1505.11 Q1944.05 1504.73 1946.11 1504.73 Q1951.44 1504.73 1954.54 1507.17 Q1957.64 1509.57 1957.64 1513.69 Q1957.64 1516.56 1956 1518.55 Q1954.36 1520.52 1951.32 1521.29 Z" fill="#000000" fill-rule="evenodd" fill-opacity="1" /><path clip-path="url(#clip950)" d="M 0 0 M2293.88 1509.43 L2282.08 1527.88 L2293.88 1527.88 L2293.88 1509.43 M2292.65 1505.36 L2298.53 1505.36 L2298.53 1527.88 L2303.46 1527.88 L2303.46 1531.77 L2298.53 1531.77 L2298.53 1539.92 L2293.88 1539.92 L2293.88 1531.77 L2278.28 1531.77 L2278.28 1527.26 L2292.65 1505.36 Z" fill="#000000" fill-rule="evenodd" fill-opacity="1" /><path clip-path="url(#clip950)" d="M 0 0 M130.26 1433.67 Q126.649 1433.67 124.82 1437.24 Q123.015 1440.78 123.015 1447.91 Q123.015 1455.01 124.82 1458.58 Q126.649 1462.12 130.26 1462.12 Q133.895 1462.12 135.7 1458.58 Q137.529 1455.01 137.529 1447.91 Q137.529 1440.78 135.7 1437.24 Q133.895 1433.67 130.26 1433.67 M130.26 1429.97 Q136.07 1429.97 139.126 1434.57 Q142.205 1439.16 142.205 1447.91 Q142.205 1456.63 139.126 1461.24 Q136.07 1465.82 130.26 1465.82 Q124.45 1465.82 121.371 1461.24 Q118.316 1456.63 118.316 1447.91 Q118.316 1439.16 121.371 1434.57 Q124.45 1429.97 130.26 1429.97 Z" fill="#000000" fill-rule="evenodd" fill-opacity="1" /><path clip-path="url(#clip950)" d="M 0 0 M71.8578 1143.73 L88.1772 1143.73 L88.1772 1147.67 L66.2328 1147.67 L66.2328 1143.73 Q68.8949 1140.98 73.4782 1136.35 Q78.0846 1131.69 79.2652 1130.35 Q81.5105 1127.83 82.3902 1126.09 Q83.2929 1124.33 83.2929 1122.64 Q83.2929 1119.89 81.3485 1118.15 Q79.4272 1116.42 76.3254 1116.42 Q74.1263 1116.42 71.6726 1117.18 Q69.2421 1117.94 66.4643 1119.49 L66.4643 1114.77 Q69.2884 1113.64 71.7421 1113.06 Q74.1958 1112.48 76.2328 1112.48 Q81.6031 1112.48 84.7976 1115.17 Q87.992 1117.85 87.992 1122.34 Q87.992 1124.47 87.1818 1126.39 Q86.3948 1128.29 84.2883 1130.88 Q83.7096 1131.55 80.6078 1134.77 Q77.5059 1137.97 71.8578 1143.73 Z" fill="#000000" fill-rule="evenodd" fill-opacity="1" /><path clip-path="url(#clip950)" d="M 0 0 M103.247 1116.18 Q99.6354 1116.18 97.8068 1119.75 Q96.0012 1123.29 96.0012 1130.42 Q96.0012 1137.53 97.8068 1141.09 Q99.6354 1144.63 103.247 1144.63 Q106.881 1144.63 108.686 1141.09 Q110.515 1137.53 110.515 1130.42 Q110.515 1123.29 108.686 1119.75 Q106.881 1116.18 103.247 1116.18 M103.247 1112.48 Q109.057 1112.48 112.112 1117.09 Q115.191 1121.67 115.191 1130.42 Q115.191 1139.15 112.112 1143.75 Q109.057 1148.34 103.247 1148.34 Q97.4364 1148.34 94.3577 1143.75 Q91.3022 1139.15 91.3022 1130.42 Q91.3022 1121.67 94.3577 1117.09 Q97.4364 1112.48 103.247 1112.48 Z" fill="#000000" fill-rule="evenodd" fill-opacity="1" /><path clip-path="url(#clip950)" d="M 0 0 M130.26 1116.18 Q126.649 1116.18 124.82 1119.75 Q123.015 1123.29 123.015 1130.42 Q123.015 1137.53 124.82 1141.09 Q126.649 1144.63 130.26 1144.63 Q133.895 1144.63 135.7 1141.09 Q137.529 1137.53 137.529 1130.42 Q137.529 1123.29 135.7 1119.75 Q133.895 1116.18 130.26 1116.18 M130.26 1112.48 Q136.07 1112.48 139.126 1117.09 Q142.205 1121.67 142.205 1130.42 Q142.205 1139.15 139.126 1143.75 Q136.07 1148.34 130.26 1148.34 Q124.45 1148.34 121.371 1143.75 Q118.316 1139.15 118.316 1130.42 Q118.316 1121.67 121.371 1117.09 Q124.45 1112.48 130.26 1112.48 Z" fill="#000000" fill-rule="evenodd" fill-opacity="1" /><path clip-path="url(#clip950)" d="M 0 0 M78.5939 799.691 L66.7884 818.14 L78.5939 818.14 L78.5939 799.691 M77.367 795.617 L83.2466 795.617 L83.2466 818.14 L88.1772 818.14 L88.1772 822.029 L83.2466 822.029 L83.2466 830.177 L78.5939 830.177 L78.5939 822.029 L62.9921 822.029 L62.9921 817.515 L77.367 795.617 Z" fill="#000000" fill-rule="evenodd" fill-opacity="1" /><path clip-path="url(#clip950)" d="M 0 0 M103.247 798.696 Q99.6354 798.696 97.8068 802.261 Q96.0012 805.802 96.0012 812.932 Q96.0012 820.038 97.8068 823.603 Q99.6354 827.145 103.247 827.145 Q106.881 827.145 108.686 823.603 Q110.515 820.038 110.515 812.932 Q110.515 805.802 108.686 802.261 Q106.881 798.696 103.247 798.696 M103.247 794.992 Q109.057 794.992 112.112 799.599 Q115.191 804.182 115.191 812.932 Q115.191 821.659 112.112 826.265 Q109.057 830.848 103.247 830.848 Q97.4364 830.848 94.3577 826.265 Q91.3022 821.659 91.3022 812.932 Q91.3022 804.182 94.3577 799.599 Q97.4364 794.992 103.247 794.992 Z" fill="#000000" fill-rule="evenodd" fill-opacity="1" /><path clip-path="url(#clip950)" d="M 0 0 M130.26 798.696 Q126.649 798.696 124.82 802.261 Q123.015 805.802 123.015 812.932 Q123.015 820.038 124.82 823.603 Q126.649 827.145 130.26 827.145 Q133.895 827.145 135.7 823.603 Q137.529 820.038 137.529 812.932 Q137.529 805.802 135.7 802.261 Q133.895 798.696 130.26 798.696 M130.26 794.992 Q136.07 794.992 139.126 799.599 Q142.205 804.182 142.205 812.932 Q142.205 821.659 139.126 826.265 Q136.07 830.848 130.26 830.848 Q124.45 830.848 121.371 826.265 Q118.316 821.659 118.316 812.932 Q118.316 804.182 121.371 799.599 Q124.45 794.992 130.26 794.992 Z" fill="#000000" fill-rule="evenodd" fill-opacity="1" /><path clip-path="url(#clip950)" d="M 0 0 M76.6495 493.546 Q73.5013 493.546 71.6495 495.699 Q69.8208 497.851 69.8208 501.601 Q69.8208 505.328 71.6495 507.504 Q73.5013 509.657 76.6495 509.657 Q79.7976 509.657 81.6263 507.504 Q83.4781 505.328 83.4781 501.601 Q83.4781 497.851 81.6263 495.699 Q79.7976 493.546 76.6495 493.546 M85.9318 478.893 L85.9318 483.152 Q84.1726 482.319 82.367 481.879 Q80.5846 481.439 78.8254 481.439 Q74.1958 481.439 71.7421 484.564 Q69.3115 487.689 68.9643 494.009 Q70.33 491.995 72.3902 490.93 Q74.4504 489.842 76.9272 489.842 Q82.1355 489.842 85.1448 493.013 Q88.1772 496.162 88.1772 501.601 Q88.1772 506.925 85.029 510.143 Q81.8809 513.361 76.6495 513.361 Q70.6541 513.361 67.4828 508.777 Q64.3116 504.171 64.3116 495.444 Q64.3116 487.25 68.2004 482.388 Q72.0893 477.504 78.6402 477.504 Q80.3994 477.504 82.1818 477.851 Q83.9874 478.199 85.9318 478.893 Z" fill="#000000" fill-rule="evenodd" fill-opacity="1" /><path clip-path="url(#clip950)" d="M 0 0 M103.247 481.208 Q99.6354 481.208 97.8068 484.773 Q96.0012 488.314 96.0012 495.444 Q96.0012 502.55 97.8068 506.115 Q99.6354 509.657 103.247 509.657 Q106.881 509.657 108.686 506.115 Q110.515 502.55 110.515 495.444 Q110.515 488.314 108.686 484.773 Q106.881 481.208 103.247 481.208 M103.247 477.504 Q109.057 477.504 112.112 482.111 Q115.191 486.694 115.191 495.444 Q115.191 504.171 112.112 508.777 Q109.057 513.361 103.247 513.361 Q97.4364 513.361 94.3577 508.777 Q91.3022 504.171 91.3022 495.444 Q91.3022 486.694 94.3577 482.111 Q97.4364 477.504 103.247 477.504 Z" fill="#000000" fill-rule="evenodd" fill-opacity="1" /><path clip-path="url(#clip950)" d="M 0 0 M130.26 481.208 Q126.649 481.208 124.82 484.773 Q123.015 488.314 123.015 495.444 Q123.015 502.55 124.82 506.115 Q126.649 509.657 130.26 509.657 Q133.895 509.657 135.7 506.115 Q137.529 502.55 137.529 495.444 Q137.529 488.314 135.7 484.773 Q133.895 481.208 130.26 481.208 M130.26 477.504 Q136.07 477.504 139.126 482.111 Q142.205 486.694 142.205 495.444 Q142.205 504.171 139.126 508.777 Q136.07 513.361 130.26 513.361 Q124.45 513.361 121.371 508.777 Q118.316 504.171 118.316 495.444 Q118.316 486.694 121.371 482.111 Q124.45 477.504 130.26 477.504 Z" fill="#000000" fill-rule="evenodd" fill-opacity="1" /><path clip-path="url(#clip950)" d="M 0 0 M76.3254 178.789 Q72.9921 178.789 71.0708 180.572 Q69.1726 182.354 69.1726 185.479 Q69.1726 188.604 71.0708 190.387 Q72.9921 192.169 76.3254 192.169 Q79.6587 192.169 81.58 190.387 Q83.5013 188.581 83.5013 185.479 Q83.5013 182.354 81.58 180.572 Q79.6819 178.789 76.3254 178.789 M71.6495 176.799 Q68.6402 176.058 66.9504 173.998 Q65.2838 171.938 65.2838 168.975 Q65.2838 164.831 68.2236 162.424 Q71.1865 160.016 76.3254 160.016 Q81.4874 160.016 84.4272 162.424 Q87.367 164.831 87.367 168.975 Q87.367 171.938 85.6772 173.998 Q84.0105 176.058 81.0244 176.799 Q84.404 177.586 86.279 179.877 Q88.1772 182.169 88.1772 185.479 Q88.1772 190.502 85.0985 193.187 Q82.0429 195.873 76.3254 195.873 Q70.6078 195.873 67.5291 193.187 Q64.4736 190.502 64.4736 185.479 Q64.4736 182.169 66.3717 179.877 Q68.2699 177.586 71.6495 176.799 M69.9365 169.414 Q69.9365 172.1 71.6032 173.604 Q73.293 175.109 76.3254 175.109 Q79.3346 175.109 81.0244 173.604 Q82.7374 172.1 82.7374 169.414 Q82.7374 166.729 81.0244 165.225 Q79.3346 163.72 76.3254 163.72 Q73.293 163.72 71.6032 165.225 Q69.9365 166.729 69.9365 169.414 Z" fill="#000000" fill-rule="evenodd" fill-opacity="1" /><path clip-path="url(#clip950)" d="M 0 0 M103.247 163.72 Q99.6354 163.72 97.8068 167.285 Q96.0012 170.826 96.0012 177.956 Q96.0012 185.062 97.8068 188.627 Q99.6354 192.169 103.247 192.169 Q106.881 192.169 108.686 188.627 Q110.515 185.062 110.515 177.956 Q110.515 170.826 108.686 167.285 Q106.881 163.72 103.247 163.72 M103.247 160.016 Q109.057 160.016 112.112 164.623 Q115.191 169.206 115.191 177.956 Q115.191 186.683 112.112 191.289 Q109.057 195.873 103.247 195.873 Q97.4364 195.873 94.3577 191.289 Q91.3022 186.683 91.3022 177.956 Q91.3022 169.206 94.3577 164.623 Q97.4364 160.016 103.247 160.016 Z" fill="#000000" fill-rule="evenodd" fill-opacity="1" /><path clip-path="url(#clip950)" d="M 0 0 M130.26 163.72 Q126.649 163.72 124.82 167.285 Q123.015 170.826 123.015 177.956 Q123.015 185.062 124.82 188.627 Q126.649 192.169 130.26 192.169 Q133.895 192.169 135.7 188.627 Q137.529 185.062 137.529 177.956 Q137.529 170.826 135.7 167.285 Q133.895 163.72 130.26 163.72 M130.26 160.016 Q136.07 160.016 139.126 164.623 Q142.205 169.206 142.205 177.956 Q142.205 186.683 139.126 191.289 Q136.07 195.873 130.26 195.873 Q124.45 195.873 121.371 191.289 Q118.316 186.683 118.316 177.956 Q118.316 169.206 121.371 164.623 Q124.45 160.016 130.26 160.016 Z" fill="#000000" fill-rule="evenodd" fill-opacity="1" /><path clip-path="url(#clip950)" d="M 0 0 M1183.67 18.8205 L1183.67 65.8515 L1193.55 65.8515 Q1206.07 65.8515 1211.86 60.1802 Q1217.7 54.509 1217.7 42.2752 Q1217.7 30.1225 1211.86 24.4918 Q1206.07 18.8205 1193.55 18.8205 L1183.67 18.8205 M1175.48 12.096 L1192.3 12.096 Q1209.88 12.096 1218.1 19.4281 Q1226.32 26.7198 1226.32 42.2752 Q1226.32 57.9117 1218.06 65.2439 Q1209.8 72.576 1192.3 72.576 L1175.48 72.576 L1175.48 12.096 Z" fill="#000000" fill-rule="evenodd" fill-opacity="1" /><path clip-path="url(#clip950)" d="M 0 0 M1254.76 49.7694 Q1245.73 49.7694 1242.24 51.8354 Q1238.76 53.9013 1238.76 58.8839 Q1238.76 62.8538 1241.35 65.2034 Q1243.99 67.5124 1248.48 67.5124 Q1254.68 67.5124 1258.41 63.1374 Q1262.17 58.7219 1262.17 51.4303 L1262.17 49.7694 L1254.76 49.7694 M1269.63 46.6907 L1269.63 72.576 L1262.17 72.576 L1262.17 65.6895 Q1259.62 69.8214 1255.81 71.8063 Q1252.01 73.7508 1246.5 73.7508 Q1239.53 73.7508 1235.4 69.8619 Q1231.31 65.9325 1231.31 59.3701 Q1231.31 51.7138 1236.41 47.825 Q1241.56 43.9361 1251.72 43.9361 L1262.17 43.9361 L1262.17 43.2069 Q1262.17 38.0623 1258.77 35.2672 Q1255.41 32.4315 1249.29 32.4315 Q1245.4 32.4315 1241.72 33.3632 Q1238.03 34.295 1234.63 36.1584 L1234.63 29.2718 Q1238.72 27.692 1242.57 26.9223 Q1246.42 26.1121 1250.06 26.1121 Q1259.91 26.1121 1264.77 31.2163 Q1269.63 36.3204 1269.63 46.6907 Z" fill="#000000" fill-rule="evenodd" fill-opacity="1" /><path clip-path="url(#clip950)" d="M 0 0 M1284.82 14.324 L1284.82 27.2059 L1300.17 27.2059 L1300.17 32.9987 L1284.82 32.9987 L1284.82 57.6282 Q1284.82 63.1779 1286.32 64.7578 Q1287.86 66.3376 1292.52 66.3376 L1300.17 66.3376 L1300.17 72.576 L1292.52 72.576 Q1283.89 72.576 1280.61 69.3758 Q1277.32 66.1351 1277.32 57.6282 L1277.32 32.9987 L1271.86 32.9987 L1271.86 27.2059 L1277.32 27.2059 L1277.32 14.324 L1284.82 14.324 Z" fill="#000000" fill-rule="evenodd" fill-opacity="1" /><path clip-path="url(#clip950)" d="M 0 0 M1328.61 49.7694 Q1319.58 49.7694 1316.09 51.8354 Q1312.61 53.9013 1312.61 58.8839 Q1312.61 62.8538 1315.2 65.2034 Q1317.83 67.5124 1322.33 67.5124 Q1328.53 67.5124 1332.25 63.1374 Q1336.02 58.7219 1336.02 51.4303 L1336.02 49.7694 L1328.61 49.7694 M1343.48 46.6907 L1343.48 72.576 L1336.02 72.576 L1336.02 65.6895 Q1333.47 69.8214 1329.66 71.8063 Q1325.85 73.7508 1320.35 73.7508 Q1313.38 73.7508 1309.25 69.8619 Q1305.15 65.9325 1305.15 59.3701 Q1305.15 51.7138 1310.26 47.825 Q1315.4 43.9361 1325.57 43.9361 L1336.02 43.9361 L1336.02 43.2069 Q1336.02 38.0623 1332.62 35.2672 Q1329.26 32.4315 1323.14 32.4315 Q1319.25 32.4315 1315.57 33.3632 Q1311.88 34.295 1308.48 36.1584 L1308.48 29.2718 Q1312.57 27.692 1316.42 26.9223 Q1320.26 26.1121 1323.91 26.1121 Q1333.75 26.1121 1338.61 31.2163 Q1343.48 36.3204 1343.48 46.6907 Z" fill="#000000" fill-rule="evenodd" fill-opacity="1" /><polyline clip-path="url(#clip952)" style="stroke:#009af9; stroke-width:4; stroke-opacity:1; fill:none" points="
  228.088,1447.87 228.088,1257.38 262.468,1257.38 262.468,1336.75 296.848,1336.75 296.848,1193.88 331.227,1193.88 365.607,1193.88 365.607,1209.76 
  399.987,1209.76 399.987,1082.76 434.367,1082.76 434.367,781.148 468.746,781.148 468.746,939.892 503.126,939.892 503.126,876.395 537.506,876.395 537.506,844.646 
  571.886,844.646 571.886,590.656 606.265,590.656 606.265,797.023 640.645,797.023 640.645,1051.01 675.025,1051.01 675.025,844.646 709.405,844.646 709.405,987.516 
  743.784,987.516 743.784,1066.89 778.164,1066.89 778.164,1336.75 812.544,1336.75 812.544,1320.88 846.923,1320.88 846.923,1273.25 881.303,1273.25 881.303,1416.12 
  915.683,1416.12 915.683,1352.63 950.063,1352.63 950.063,1384.38 984.442,1384.38 984.442,1416.12 1018.82,1416.12 1018.82,1432 1053.2,1432 
  1087.58,1432 1087.58,1384.38 1121.96,1384.38 1121.96,1416.12 1156.34,1416.12 1156.34,1384.38 1190.72,1384.38 1190.72,1352.63 1225.1,1352.63 1225.1,1336.75 
  1259.48,1336.75 1259.48,1162.13 1293.86,1162.13 1293.86,1193.88 1328.24,1193.88 1328.24,1035.14 1362.62,1035.14 1362.62,924.018 1397,924.018 1397,431.912 
  1431.38,431.912 1431.38,511.284 1465.76,511.284 1465.76,463.66 1500.14,463.66 1500.14,670.028 1534.52,670.028 1534.52,193.796 1568.9,193.796 1568.9,289.042 
  1603.28,289.042 1603.28,193.796 1637.66,193.796 1637.66,162.047 1672.04,162.047 1672.04,257.293 1706.42,257.293 1706.42,543.032 1740.8,543.032 1740.8,638.279 
  1775.18,638.279 1775.18,844.646 1809.56,844.646 1809.56,939.892 1843.94,939.892 1878.32,939.892 1878.32,1162.13 1912.7,1162.13 1912.7,1225.63 
  1947.08,1225.63 1947.08,1336.75 1981.45,1336.75 1981.45,1305 2015.83,1305 2015.83,1400.25 2050.21,1400.25 2050.21,1447.87 2084.59,1447.87 
  2118.97,1447.87 2118.97,1432 2153.35,1432 2153.35,1447.87 2187.73,1447.87 2222.11,1447.87 2256.49,1447.87 
  2290.87,1447.87 
  "/>
<path clip-path="url(#clip950)" d="
M1944.76 327.952 L2280.76 327.952 L2280.76 206.992 L1944.76 206.992  Z
  " fill="#ffffff" fill-rule="evenodd" fill-opacity="1"/>
<polyline clip-path="url(#clip950)" style="stroke:#000000; stroke-width:4; stroke-opacity:1; fill:none" points="
  1944.76,327.952 2280.76,327.952 2280.76,206.992 1944.76,206.992 1944.76,327.952 
  "/>
<polyline clip-path="url(#clip950)" style="stroke:#009af9; stroke-width:4; stroke-opacity:1; fill:none" points="
  1968.76,267.472 2112.76,267.472 
  "/>
<path clip-path="url(#clip950)" d="M 0 0 M2141.44 254.035 L2141.44 280.91 L2147.09 280.91 Q2154.24 280.91 2157.55 277.669 Q2160.88 274.428 2160.88 267.437 Q2160.88 260.493 2157.55 257.275 Q2154.24 254.035 2147.09 254.035 L2141.44 254.035 M2136.76 250.192 L2146.37 250.192 Q2156.41 250.192 2161.11 254.382 Q2165.81 258.549 2165.81 267.437 Q2165.81 276.373 2161.09 280.562 Q2156.37 284.752 2146.37 284.752 L2136.76 284.752 L2136.76 250.192 Z" fill="#000000" fill-rule="evenodd" fill-opacity="1" /><path clip-path="url(#clip950)" d="M 0 0 M2182.06 271.72 Q2176.9 271.72 2174.91 272.9 Q2172.92 274.081 2172.92 276.928 Q2172.92 279.197 2174.4 280.539 Q2175.9 281.859 2178.47 281.859 Q2182.02 281.859 2184.15 279.359 Q2186.3 276.836 2186.3 272.669 L2186.3 271.72 L2182.06 271.72 M2190.56 269.961 L2190.56 284.752 L2186.3 284.752 L2186.3 280.817 Q2184.84 283.178 2182.66 284.312 Q2180.49 285.423 2177.34 285.423 Q2173.36 285.423 2171 283.201 Q2168.66 280.956 2168.66 277.206 Q2168.66 272.831 2171.58 270.609 Q2174.52 268.386 2180.33 268.386 L2186.3 268.386 L2186.3 267.97 Q2186.3 265.03 2184.35 263.433 Q2182.43 261.812 2178.94 261.812 Q2176.71 261.812 2174.61 262.345 Q2172.5 262.877 2170.56 263.942 L2170.56 260.007 Q2172.9 259.104 2175.09 258.664 Q2177.29 258.201 2179.38 258.201 Q2185 258.201 2187.78 261.118 Q2190.56 264.035 2190.56 269.961 Z" fill="#000000" fill-rule="evenodd" fill-opacity="1" /><path clip-path="url(#clip950)" d="M 0 0 M2199.24 251.465 L2199.24 258.826 L2208.01 258.826 L2208.01 262.137 L2199.24 262.137 L2199.24 276.211 Q2199.24 279.382 2200.09 280.285 Q2200.97 281.187 2203.64 281.187 L2208.01 281.187 L2208.01 284.752 L2203.64 284.752 Q2198.71 284.752 2196.83 282.923 Q2194.96 281.072 2194.96 276.211 L2194.96 262.137 L2191.83 262.137 L2191.83 258.826 L2194.96 258.826 L2194.96 251.465 L2199.24 251.465 Z" fill="#000000" fill-rule="evenodd" fill-opacity="1" /><path clip-path="url(#clip950)" d="M 0 0 M2224.26 271.72 Q2219.1 271.72 2217.11 272.9 Q2215.12 274.081 2215.12 276.928 Q2215.12 279.197 2216.6 280.539 Q2218.1 281.859 2220.67 281.859 Q2224.21 281.859 2226.34 279.359 Q2228.5 276.836 2228.5 272.669 L2228.5 271.72 L2224.26 271.72 M2232.76 269.961 L2232.76 284.752 L2228.5 284.752 L2228.5 280.817 Q2227.04 283.178 2224.86 284.312 Q2222.69 285.423 2219.54 285.423 Q2215.56 285.423 2213.2 283.201 Q2210.86 280.956 2210.86 277.206 Q2210.86 272.831 2213.77 270.609 Q2216.71 268.386 2222.52 268.386 L2228.5 268.386 L2228.5 267.97 Q2228.5 265.03 2226.55 263.433 Q2224.63 261.812 2221.14 261.812 Q2218.91 261.812 2216.81 262.345 Q2214.7 262.877 2212.76 263.942 L2212.76 260.007 Q2215.09 259.104 2217.29 258.664 Q2219.49 258.201 2221.58 258.201 Q2227.2 258.201 2229.98 261.118 Q2232.76 264.035 2232.76 269.961 Z" fill="#000000" fill-rule="evenodd" fill-opacity="1" /></svg>
