<?xml version="1.0" encoding="utf-8"?>
<svg xmlns="http://www.w3.org/2000/svg" xmlns:xlink="http://www.w3.org/1999/xlink" width="600" height="400" viewBox="0 0 2400 1600">
<defs>
  <clipPath id="clip010">
    <rect x="0" y="0" width="2400" height="1600"/>
  </clipPath>
</defs>
<path clip-path="url(#clip010)" d="
M0 1600 L2400 1600 L2400 0 L0 0  Z
  " fill="#ffffff" fill-rule="evenodd" fill-opacity="1"/>
<defs>
  <clipPath id="clip011">
    <rect x="480" y="0" width="1681" height="1600"/>
  </clipPath>
</defs>
<path clip-path="url(#clip010)" d="
M166.205 1486.45 L2352.76 1486.45 L2352.76 123.472 L166.205 123.472  Z
  " fill="#ffffff" fill-rule="evenodd" fill-opacity="1"/>
<defs>
  <clipPath id="clip012">
    <rect x="166" y="123" width="2188" height="1364"/>
  </clipPath>
</defs>
<polyline clip-path="url(#clip012)" style="stroke:#000000; stroke-width:2; stroke-opacity:0.1; fill:none" points="
  228.088,1486.45 228.088,123.472 
  "/>
<polyline clip-path="url(#clip012)" style="stroke:#000000; stroke-width:2; stroke-opacity:0.1; fill:none" points="
  743.784,1486.45 743.784,123.472 
  "/>
<polyline clip-path="url(#clip012)" style="stroke:#000000; stroke-width:2; stroke-opacity:0.1; fill:none" points="
  1259.48,1486.45 1259.48,123.472 
  "/>
<polyline clip-path="url(#clip012)" style="stroke:#000000; stroke-width:2; stroke-opacity:0.1; fill:none" points="
  1775.18,1486.45 1775.18,123.472 
  "/>
<polyline clip-path="url(#clip012)" style="stroke:#000000; stroke-width:2; stroke-opacity:0.1; fill:none" points="
  2290.87,1486.45 2290.87,123.472 
  "/>
<polyline clip-path="url(#clip010)" style="stroke:#000000; stroke-width:4; stroke-opacity:1; fill:none" points="
  166.205,1486.45 2352.76,1486.45 
  "/>
<polyline clip-path="url(#clip010)" style="stroke:#000000; stroke-width:4; stroke-opacity:1; fill:none" points="
  228.088,1486.45 228.088,1470.09 
  "/>
<polyline clip-path="url(#clip010)" style="stroke:#000000; stroke-width:4; stroke-opacity:1; fill:none" points="
  743.784,1486.45 743.784,1470.09 
  "/>
<polyline clip-path="url(#clip010)" style="stroke:#000000; stroke-width:4; stroke-opacity:1; fill:none" points="
  1259.48,1486.45 1259.48,1470.09 
  "/>
<polyline clip-path="url(#clip010)" style="stroke:#000000; stroke-width:4; stroke-opacity:1; fill:none" points="
  1775.18,1486.45 1775.18,1470.09 
  "/>
<polyline clip-path="url(#clip010)" style="stroke:#000000; stroke-width:4; stroke-opacity:1; fill:none" points="
  2290.87,1486.45 2290.87,1470.09 
  "/>
<path clip-path="url(#clip010)" d="M 0 0 M199.5 1530.29 L229.176 1530.29 L229.176 1534.23 L199.5 1534.23 L199.5 1530.29 Z" fill="#000000" fill-rule="evenodd" fill-opacity="1" /><path clip-path="url(#clip010)" d="M 0 0 M247.093 1516.63 L235.287 1535.08 L247.093 1535.08 L247.093 1516.63 M245.866 1512.56 L251.745 1512.56 L251.745 1535.08 L256.676 1535.08 L256.676 1538.97 L251.745 1538.97 L251.745 1547.12 L247.093 1547.12 L247.093 1538.97 L231.491 1538.97 L231.491 1534.46 L245.866 1512.56 Z" fill="#000000" fill-rule="evenodd" fill-opacity="1" /><path clip-path="url(#clip010)" d="M 0 0 M716.238 1530.29 L745.914 1530.29 L745.914 1534.23 L716.238 1534.23 L716.238 1530.29 Z" fill="#000000" fill-rule="evenodd" fill-opacity="1" /><path clip-path="url(#clip010)" d="M 0 0 M755.011 1543.18 L771.33 1543.18 L771.33 1547.12 L749.386 1547.12 L749.386 1543.18 Q752.048 1540.43 756.631 1535.8 Q761.238 1531.15 762.418 1529.81 Q764.664 1527.28 765.543 1525.55 Q766.446 1523.79 766.446 1522.1 Q766.446 1519.34 764.502 1517.61 Q762.58 1515.87 759.479 1515.87 Q757.28 1515.87 754.826 1516.63 Q752.395 1517.4 749.618 1518.95 L749.618 1514.23 Q752.442 1513.09 754.895 1512.51 Q757.349 1511.93 759.386 1511.93 Q764.756 1511.93 767.951 1514.62 Q771.145 1517.31 771.145 1521.8 Q771.145 1523.93 770.335 1525.85 Q769.548 1527.74 767.442 1530.34 Q766.863 1531.01 763.761 1534.23 Q760.659 1537.42 755.011 1543.18 Z" fill="#000000" fill-rule="evenodd" fill-opacity="1" /><path clip-path="url(#clip010)" d="M 0 0 M1259.48 1515.64 Q1255.87 1515.64 1254.04 1519.2 Q1252.23 1522.75 1252.23 1529.87 Q1252.23 1536.98 1254.04 1540.55 Q1255.87 1544.09 1259.48 1544.09 Q1263.11 1544.09 1264.92 1540.55 Q1266.75 1536.98 1266.75 1529.87 Q1266.75 1522.75 1264.92 1519.2 Q1263.11 1515.64 1259.48 1515.64 M1259.48 1511.93 Q1265.29 1511.93 1268.35 1516.54 Q1271.42 1521.12 1271.42 1529.87 Q1271.42 1538.6 1268.35 1543.21 Q1265.29 1547.79 1259.48 1547.79 Q1253.67 1547.79 1250.59 1543.21 Q1247.54 1538.6 1247.54 1529.87 Q1247.54 1521.12 1250.59 1516.54 Q1253.67 1511.93 1259.48 1511.93 Z" fill="#000000" fill-rule="evenodd" fill-opacity="1" /><path clip-path="url(#clip010)" d="M 0 0 M1769.83 1543.18 L1786.15 1543.18 L1786.15 1547.12 L1764.2 1547.12 L1764.2 1543.18 Q1766.87 1540.43 1771.45 1535.8 Q1776.06 1531.15 1777.24 1529.81 Q1779.48 1527.28 1780.36 1525.55 Q1781.26 1523.79 1781.26 1522.1 Q1781.26 1519.34 1779.32 1517.61 Q1777.4 1515.87 1774.3 1515.87 Q1772.1 1515.87 1769.64 1516.63 Q1767.21 1517.4 1764.44 1518.95 L1764.44 1514.23 Q1767.26 1513.09 1769.71 1512.51 Q1772.17 1511.93 1774.2 1511.93 Q1779.57 1511.93 1782.77 1514.62 Q1785.96 1517.31 1785.96 1521.8 Q1785.96 1523.93 1785.15 1525.85 Q1784.37 1527.74 1782.26 1530.34 Q1781.68 1531.01 1778.58 1534.23 Q1775.48 1537.42 1769.83 1543.18 Z" fill="#000000" fill-rule="evenodd" fill-opacity="1" /><path clip-path="url(#clip010)" d="M 0 0 M2293.88 1516.63 L2282.08 1535.08 L2293.88 1535.08 L2293.88 1516.63 M2292.65 1512.56 L2298.53 1512.56 L2298.53 1535.08 L2303.46 1535.08 L2303.46 1538.97 L2298.53 1538.97 L2298.53 1547.12 L2293.88 1547.12 L2293.88 1538.97 L2278.28 1538.97 L2278.28 1534.46 L2292.65 1512.56 Z" fill="#000000" fill-rule="evenodd" fill-opacity="1" /><polyline clip-path="url(#clip012)" style="stroke:#000000; stroke-width:2; stroke-opacity:0.1; fill:none" points="
  166.205,1447.87 2352.76,1447.87 
  "/>
<polyline clip-path="url(#clip012)" style="stroke:#000000; stroke-width:2; stroke-opacity:0.1; fill:none" points="
  166.205,1152.28 2352.76,1152.28 
  "/>
<polyline clip-path="url(#clip012)" style="stroke:#000000; stroke-width:2; stroke-opacity:0.1; fill:none" points="
  166.205,856.689 2352.76,856.689 
  "/>
<polyline clip-path="url(#clip012)" style="stroke:#000000; stroke-width:2; stroke-opacity:0.1; fill:none" points="
  166.205,561.096 2352.76,561.096 
  "/>
<polyline clip-path="url(#clip012)" style="stroke:#000000; stroke-width:2; stroke-opacity:0.1; fill:none" points="
  166.205,265.504 2352.76,265.504 
  "/>
<polyline clip-path="url(#clip010)" style="stroke:#000000; stroke-width:4; stroke-opacity:1; fill:none" points="
  166.205,1486.45 166.205,123.472 
  "/>
<polyline clip-path="url(#clip010)" style="stroke:#000000; stroke-width:4; stroke-opacity:1; fill:none" points="
  166.205,1447.87 192.443,1447.87 
  "/>
<polyline clip-path="url(#clip010)" style="stroke:#000000; stroke-width:4; stroke-opacity:1; fill:none" points="
  166.205,1152.28 192.443,1152.28 
  "/>
<polyline clip-path="url(#clip010)" style="stroke:#000000; stroke-width:4; stroke-opacity:1; fill:none" points="
  166.205,856.689 192.443,856.689 
  "/>
<polyline clip-path="url(#clip010)" style="stroke:#000000; stroke-width:4; stroke-opacity:1; fill:none" points="
  166.205,561.096 192.443,561.096 
  "/>
<polyline clip-path="url(#clip010)" style="stroke:#000000; stroke-width:4; stroke-opacity:1; fill:none" points="
  166.205,265.504 192.443,265.504 
  "/>
<path clip-path="url(#clip010)" d="M 0 0 M118.26 1433.67 Q114.649 1433.67 112.82 1437.24 Q111.015 1440.78 111.015 1447.91 Q111.015 1455.01 112.82 1458.58 Q114.649 1462.12 118.26 1462.12 Q121.895 1462.12 123.7 1458.58 Q125.529 1455.01 125.529 1447.91 Q125.529 1440.78 123.7 1437.24 Q121.895 1433.67 118.26 1433.67 M118.26 1429.97 Q124.07 1429.97 127.126 1434.57 Q130.205 1439.16 130.205 1447.91 Q130.205 1456.63 127.126 1461.24 Q124.07 1465.82 118.26 1465.82 Q112.45 1465.82 109.371 1461.24 Q106.316 1456.63 106.316 1447.91 Q106.316 1439.16 109.371 1434.57 Q112.45 1429.97 118.26 1429.97 Z" fill="#000000" fill-rule="evenodd" fill-opacity="1" /><path clip-path="url(#clip010)" d="M 0 0 M59.8578 1165.63 L76.1772 1165.63 L76.1772 1169.56 L54.2328 1169.56 L54.2328 1165.63 Q56.8949 1162.87 61.4782 1158.24 Q66.0846 1153.59 67.2652 1152.25 Q69.5105 1149.72 70.3902 1147.99 Q71.2929 1146.23 71.2929 1144.54 Q71.2929 1141.78 69.3485 1140.05 Q67.4272 1138.31 64.3254 1138.31 Q62.1263 1138.31 59.6726 1139.07 Q57.2421 1139.84 54.4643 1141.39 L54.4643 1136.67 Q57.2884 1135.53 59.7421 1134.95 Q62.1958 1134.38 64.2328 1134.38 Q69.6031 1134.38 72.7976 1137.06 Q75.992 1139.75 75.992 1144.24 Q75.992 1146.37 75.1818 1148.29 Q74.3948 1150.19 72.2883 1152.78 Q71.7096 1153.45 68.6078 1156.67 Q65.5059 1159.86 59.8578 1165.63 Z" fill="#000000" fill-rule="evenodd" fill-opacity="1" /><path clip-path="url(#clip010)" d="M 0 0 M91.2465 1138.08 Q87.6354 1138.08 85.8068 1141.64 Q84.0012 1145.19 84.0012 1152.32 Q84.0012 1159.42 85.8068 1162.99 Q87.6354 1166.53 91.2465 1166.53 Q94.8808 1166.53 96.6863 1162.99 Q98.515 1159.42 98.515 1152.32 Q98.515 1145.19 96.6863 1141.64 Q94.8808 1138.08 91.2465 1138.08 M91.2465 1134.38 Q97.0567 1134.38 100.112 1138.98 Q103.191 1143.57 103.191 1152.32 Q103.191 1161.04 100.112 1165.65 Q97.0567 1170.23 91.2465 1170.23 Q85.4364 1170.23 82.3577 1165.65 Q79.3022 1161.04 79.3022 1152.32 Q79.3022 1143.57 82.3577 1138.98 Q85.4364 1134.38 91.2465 1134.38 Z" fill="#000000" fill-rule="evenodd" fill-opacity="1" /><path clip-path="url(#clip010)" d="M 0 0 M118.26 1138.08 Q114.649 1138.08 112.82 1141.64 Q111.015 1145.19 111.015 1152.32 Q111.015 1159.42 112.82 1162.99 Q114.649 1166.53 118.26 1166.53 Q121.895 1166.53 123.7 1162.99 Q125.529 1159.42 125.529 1152.32 Q125.529 1145.19 123.7 1141.64 Q121.895 1138.08 118.26 1138.08 M118.26 1134.38 Q124.07 1134.38 127.126 1138.98 Q130.205 1143.57 130.205 1152.32 Q130.205 1161.04 127.126 1165.65 Q124.07 1170.23 118.26 1170.23 Q112.45 1170.23 109.371 1165.65 Q106.316 1161.04 106.316 1152.32 Q106.316 1143.57 109.371 1138.98 Q112.45 1134.38 118.26 1134.38 Z" fill="#000000" fill-rule="evenodd" fill-opacity="1" /><path clip-path="url(#clip010)" d="M 0 0 M66.5939 843.483 L54.7884 861.932 L66.5939 861.932 L66.5939 843.483 M65.367 839.409 L71.2466 839.409 L71.2466 861.932 L76.1772 861.932 L76.1772 865.821 L71.2466 865.821 L71.2466 873.969 L66.5939 873.969 L66.5939 865.821 L50.9921 865.821 L50.9921 861.307 L65.367 839.409 Z" fill="#000000" fill-rule="evenodd" fill-opacity="1" /><path clip-path="url(#clip010)" d="M 0 0 M91.2465 842.487 Q87.6354 842.487 85.8068 846.052 Q84.0012 849.594 84.0012 856.723 Q84.0012 863.83 85.8068 867.395 Q87.6354 870.936 91.2465 870.936 Q94.8808 870.936 96.6863 867.395 Q98.515 863.83 98.515 856.723 Q98.515 849.594 96.6863 846.052 Q94.8808 842.487 91.2465 842.487 M91.2465 838.784 Q97.0567 838.784 100.112 843.39 Q103.191 847.973 103.191 856.723 Q103.191 865.45 100.112 870.057 Q97.0567 874.64 91.2465 874.64 Q85.4364 874.64 82.3577 870.057 Q79.3022 865.45 79.3022 856.723 Q79.3022 847.973 82.3577 843.39 Q85.4364 838.784 91.2465 838.784 Z" fill="#000000" fill-rule="evenodd" fill-opacity="1" /><path clip-path="url(#clip010)" d="M 0 0 M118.26 842.487 Q114.649 842.487 112.82 846.052 Q111.015 849.594 111.015 856.723 Q111.015 863.83 112.82 867.395 Q114.649 870.936 118.26 870.936 Q121.895 870.936 123.7 867.395 Q125.529 863.83 125.529 856.723 Q125.529 849.594 123.7 846.052 Q121.895 842.487 118.26 842.487 M118.26 838.784 Q124.07 838.784 127.126 843.39 Q130.205 847.973 130.205 856.723 Q130.205 865.45 127.126 870.057 Q124.07 874.64 118.26 874.64 Q112.45 874.64 109.371 870.057 Q106.316 865.45 106.316 856.723 Q106.316 847.973 109.371 843.39 Q112.45 838.784 118.26 838.784 Z" fill="#000000" fill-rule="evenodd" fill-opacity="1" /><path clip-path="url(#clip010)" d="M 0 0 M64.6495 559.233 Q61.5013 559.233 59.6495 561.386 Q57.8208 563.539 57.8208 567.289 Q57.8208 571.015 59.6495 573.191 Q61.5013 575.344 64.6495 575.344 Q67.7976 575.344 69.6263 573.191 Q71.4781 571.015 71.4781 567.289 Q71.4781 563.539 69.6263 561.386 Q67.7976 559.233 64.6495 559.233 M73.9318 544.58 L73.9318 548.84 Q72.1726 548.006 70.367 547.566 Q68.5846 547.127 66.8254 547.127 Q62.1958 547.127 59.7421 550.252 Q57.3115 553.377 56.9643 559.696 Q58.33 557.682 60.3902 556.617 Q62.4504 555.529 64.9272 555.529 Q70.1355 555.529 73.1448 558.701 Q76.1772 561.849 76.1772 567.289 Q76.1772 572.613 73.029 575.83 Q69.8809 579.048 64.6495 579.048 Q58.6541 579.048 55.4828 574.464 Q52.3116 569.858 52.3116 561.131 Q52.3116 552.937 56.2004 548.076 Q60.0893 543.191 66.6402 543.191 Q68.3994 543.191 70.1818 543.539 Q71.9874 543.886 73.9318 544.58 Z" fill="#000000" fill-rule="evenodd" fill-opacity="1" /><path clip-path="url(#clip010)" d="M 0 0 M91.2465 546.895 Q87.6354 546.895 85.8068 550.46 Q84.0012 554.002 84.0012 561.131 Q84.0012 568.238 85.8068 571.802 Q87.6354 575.344 91.2465 575.344 Q94.8808 575.344 96.6863 571.802 Q98.515 568.238 98.515 561.131 Q98.515 554.002 96.6863 550.46 Q94.8808 546.895 91.2465 546.895 M91.2465 543.191 Q97.0567 543.191 100.112 547.798 Q103.191 552.381 103.191 561.131 Q103.191 569.858 100.112 574.464 Q97.0567 579.048 91.2465 579.048 Q85.4364 579.048 82.3577 574.464 Q79.3022 569.858 79.3022 561.131 Q79.3022 552.381 82.3577 547.798 Q85.4364 543.191 91.2465 543.191 Z" fill="#000000" fill-rule="evenodd" fill-opacity="1" /><path clip-path="url(#clip010)" d="M 0 0 M118.26 546.895 Q114.649 546.895 112.82 550.46 Q111.015 554.002 111.015 561.131 Q111.015 568.238 112.82 571.802 Q114.649 575.344 118.26 575.344 Q121.895 575.344 123.7 571.802 Q125.529 568.238 125.529 561.131 Q125.529 554.002 123.7 550.46 Q121.895 546.895 118.26 546.895 M118.26 543.191 Q124.07 543.191 127.126 547.798 Q130.205 552.381 130.205 561.131 Q130.205 569.858 127.126 574.464 Q124.07 579.048 118.26 579.048 Q112.45 579.048 109.371 574.464 Q106.316 569.858 106.316 561.131 Q106.316 552.381 109.371 547.798 Q112.45 543.191 118.26 543.191 Z" fill="#000000" fill-rule="evenodd" fill-opacity="1" /><path clip-path="url(#clip010)" d="M 0 0 M64.3254 266.372 Q60.9921 266.372 59.0708 268.155 Q57.1726 269.937 57.1726 273.062 Q57.1726 276.187 59.0708 277.969 Q60.9921 279.752 64.3254 279.752 Q67.6587 279.752 69.58 277.969 Q71.5013 276.164 71.5013 273.062 Q71.5013 269.937 69.58 268.155 Q67.6819 266.372 64.3254 266.372 M59.6495 264.382 Q56.6402 263.641 54.9504 261.581 Q53.2838 259.52 53.2838 256.557 Q53.2838 252.414 56.2236 250.007 Q59.1865 247.599 64.3254 247.599 Q69.4874 247.599 72.4272 250.007 Q75.367 252.414 75.367 256.557 Q75.367 259.52 73.6772 261.581 Q72.0105 263.641 69.0244 264.382 Q72.404 265.169 74.279 267.46 Q76.1772 269.752 76.1772 273.062 Q76.1772 278.085 73.0985 280.77 Q70.0429 283.455 64.3254 283.455 Q58.6078 283.455 55.5291 280.77 Q52.4736 278.085 52.4736 273.062 Q52.4736 269.752 54.3717 267.46 Q56.2699 265.169 59.6495 264.382 M57.9365 256.997 Q57.9365 259.682 59.6032 261.187 Q61.293 262.692 64.3254 262.692 Q67.3346 262.692 69.0244 261.187 Q70.7374 259.682 70.7374 256.997 Q70.7374 254.312 69.0244 252.807 Q67.3346 251.303 64.3254 251.303 Q61.293 251.303 59.6032 252.807 Q57.9365 254.312 57.9365 256.997 Z" fill="#000000" fill-rule="evenodd" fill-opacity="1" /><path clip-path="url(#clip010)" d="M 0 0 M91.2465 251.303 Q87.6354 251.303 85.8068 254.868 Q84.0012 258.409 84.0012 265.539 Q84.0012 272.645 85.8068 276.21 Q87.6354 279.752 91.2465 279.752 Q94.8808 279.752 96.6863 276.21 Q98.515 272.645 98.515 265.539 Q98.515 258.409 96.6863 254.868 Q94.8808 251.303 91.2465 251.303 M91.2465 247.599 Q97.0567 247.599 100.112 252.206 Q103.191 256.789 103.191 265.539 Q103.191 274.266 100.112 278.872 Q97.0567 283.455 91.2465 283.455 Q85.4364 283.455 82.3577 278.872 Q79.3022 274.266 79.3022 265.539 Q79.3022 256.789 82.3577 252.206 Q85.4364 247.599 91.2465 247.599 Z" fill="#000000" fill-rule="evenodd" fill-opacity="1" /><path clip-path="url(#clip010)" d="M 0 0 M118.26 251.303 Q114.649 251.303 112.82 254.868 Q111.015 258.409 111.015 265.539 Q111.015 272.645 112.82 276.21 Q114.649 279.752 118.26 279.752 Q121.895 279.752 123.7 276.21 Q125.529 272.645 125.529 265.539 Q125.529 258.409 123.7 254.868 Q121.895 251.303 118.26 251.303 M118.26 247.599 Q124.07 247.599 127.126 252.206 Q130.205 256.789 130.205 265.539 Q130.205 274.266 127.126 278.872 Q124.07 283.455 118.26 283.455 Q112.45 283.455 109.371 278.872 Q106.316 274.266 106.316 265.539 Q106.316 256.789 109.371 252.206 Q112.45 247.599 118.26 247.599 Z" fill="#000000" fill-rule="evenodd" fill-opacity="1" /><path clip-path="url(#clip010)" d="M 0 0 M697.458 18.8205 L697.458 65.8515 L707.342 65.8515 Q719.859 65.8515 725.652 60.1802 Q731.485 54.509 731.485 42.2752 Q731.485 30.1225 725.652 24.4918 Q719.859 18.8205 707.342 18.8205 L697.458 18.8205 M689.275 12.096 L706.086 12.096 Q723.667 12.096 731.891 19.4281 Q740.114 26.7198 740.114 42.2752 Q740.114 57.9117 731.85 65.2439 Q723.586 72.576 706.086 72.576 L689.275 72.576 L689.275 12.096 Z" fill="#000000" fill-rule="evenodd" fill-opacity="1" /><path clip-path="url(#clip010)" d="M 0 0 M768.551 49.7694 Q759.518 49.7694 756.034 51.8354 Q752.55 53.9013 752.55 58.8839 Q752.55 62.8538 755.143 65.2034 Q757.776 67.5124 762.272 67.5124 Q768.47 67.5124 772.197 63.1374 Q775.964 58.7219 775.964 51.4303 L775.964 49.7694 L768.551 49.7694 M783.418 46.6907 L783.418 72.576 L775.964 72.576 L775.964 65.6895 Q773.412 69.8214 769.604 71.8063 Q765.797 73.7508 760.287 73.7508 Q753.32 73.7508 749.188 69.8619 Q745.096 65.9325 745.096 59.3701 Q745.096 51.7138 750.201 47.825 Q755.345 43.9361 765.513 43.9361 L775.964 43.9361 L775.964 43.2069 Q775.964 38.0623 772.562 35.2672 Q769.199 32.4315 763.082 32.4315 Q759.194 32.4315 755.507 33.3632 Q751.821 34.295 748.418 36.1584 L748.418 29.2718 Q752.51 27.692 756.358 26.9223 Q760.206 26.1121 763.852 26.1121 Q773.696 26.1121 778.557 31.2163 Q783.418 36.3204 783.418 46.6907 Z" fill="#000000" fill-rule="evenodd" fill-opacity="1" /><path clip-path="url(#clip010)" d="M 0 0 M798.609 14.324 L798.609 27.2059 L813.962 27.2059 L813.962 32.9987 L798.609 32.9987 L798.609 57.6282 Q798.609 63.1779 800.108 64.7578 Q801.647 66.3376 806.306 66.3376 L813.962 66.3376 L813.962 72.576 L806.306 72.576 Q797.677 72.576 794.396 69.3758 Q791.115 66.1351 791.115 57.6282 L791.115 32.9987 L785.646 32.9987 L785.646 27.2059 L791.115 27.2059 L791.115 14.324 L798.609 14.324 Z" fill="#000000" fill-rule="evenodd" fill-opacity="1" /><path clip-path="url(#clip010)" d="M 0 0 M842.399 49.7694 Q833.366 49.7694 829.882 51.8354 Q826.398 53.9013 826.398 58.8839 Q826.398 62.8538 828.991 65.2034 Q831.624 67.5124 836.12 67.5124 Q842.318 67.5124 846.045 63.1374 Q849.812 58.7219 849.812 51.4303 L849.812 49.7694 L842.399 49.7694 M857.266 46.6907 L857.266 72.576 L849.812 72.576 L849.812 65.6895 Q847.26 69.8214 843.452 71.8063 Q839.645 73.7508 834.135 73.7508 Q827.168 73.7508 823.036 69.8619 Q818.944 65.9325 818.944 59.3701 Q818.944 51.7138 824.049 47.825 Q829.193 43.9361 839.361 43.9361 L849.812 43.9361 L849.812 43.2069 Q849.812 38.0623 846.41 35.2672 Q843.047 32.4315 836.93 32.4315 Q833.042 32.4315 829.355 33.3632 Q825.669 34.295 822.266 36.1584 L822.266 29.2718 Q826.358 27.692 830.206 26.9223 Q834.054 26.1121 837.7 26.1121 Q847.544 26.1121 852.405 31.2163 Q857.266 36.3204 857.266 46.6907 Z" fill="#000000" fill-rule="evenodd" fill-opacity="1" /><path clip-path="url(#clip010)" d="M 0 0 M912.075 49.7694 Q903.041 49.7694 899.557 51.8354 Q896.074 53.9013 896.074 58.8839 Q896.074 62.8538 898.666 65.2034 Q901.299 67.5124 905.796 67.5124 Q911.994 67.5124 915.721 63.1374 Q919.488 58.7219 919.488 51.4303 L919.488 49.7694 L912.075 49.7694 M926.942 46.6907 L926.942 72.576 L919.488 72.576 L919.488 65.6895 Q916.936 69.8214 913.128 71.8063 Q909.32 73.7508 903.811 73.7508 Q896.843 73.7508 892.711 69.8619 Q888.62 65.9325 888.62 59.3701 Q888.62 51.7138 893.724 47.825 Q898.869 43.9361 909.037 43.9361 L919.488 43.9361 L919.488 43.2069 Q919.488 38.0623 916.085 35.2672 Q912.723 32.4315 906.606 32.4315 Q902.717 32.4315 899.031 33.3632 Q895.345 34.295 891.942 36.1584 L891.942 29.2718 Q896.033 27.692 899.882 26.9223 Q903.73 26.1121 907.376 26.1121 Q917.219 26.1121 922.08 31.2163 Q926.942 36.3204 926.942 46.6907 Z" fill="#000000" fill-rule="evenodd" fill-opacity="1" /><path clip-path="url(#clip010)" d="M 0 0 M972.474 45.1919 L972.474 72.576 L965.02 72.576 L965.02 45.4349 Q965.02 38.994 962.508 35.7938 Q959.997 32.5936 954.974 32.5936 Q948.938 32.5936 945.454 36.4419 Q941.97 40.2903 941.97 46.9338 L941.97 72.576 L934.476 72.576 L934.476 27.2059 L941.97 27.2059 L941.97 34.2544 Q944.644 30.163 948.249 28.1376 Q951.895 26.1121 956.635 26.1121 Q964.453 26.1121 968.463 30.9732 Q972.474 35.7938 972.474 45.1919 Z" fill="#000000" fill-rule="evenodd" fill-opacity="1" /><path clip-path="url(#clip010)" d="M 0 0 M1010.15 34.0924 L1010.15 9.54393 L1017.6 9.54393 L1017.6 72.576 L1010.15 72.576 L1010.15 65.7705 Q1007.8 69.8214 1004.19 71.8063 Q1000.63 73.7508 995.604 73.7508 Q987.381 73.7508 982.196 67.1883 Q977.051 60.6258 977.051 49.9314 Q977.051 39.2371 982.196 32.6746 Q987.381 26.1121 995.604 26.1121 Q1000.63 26.1121 1004.19 28.0971 Q1007.8 30.0415 1010.15 34.0924 M984.748 49.9314 Q984.748 58.1548 988.11 62.8538 Q991.513 67.5124 997.427 67.5124 Q1003.34 67.5124 1006.74 62.8538 Q1010.15 58.1548 1010.15 49.9314 Q1010.15 41.7081 1006.74 37.0496 Q1003.34 32.3505 997.427 32.3505 Q991.513 32.3505 988.11 37.0496 Q984.748 41.7081 984.748 49.9314 Z" fill="#000000" fill-rule="evenodd" fill-opacity="1" /><path clip-path="url(#clip010)" d="M 0 0 M1043.73 12.096 L1094.89 12.096 L1094.89 18.9825 L1073.42 18.9825 L1073.42 72.576 L1065.2 72.576 L1065.2 18.9825 L1043.73 18.9825 L1043.73 12.096 Z" fill="#000000" fill-rule="evenodd" fill-opacity="1" /><path clip-path="url(#clip010)" d="M 0 0 M1116.81 34.1734 Q1115.55 33.4443 1114.05 33.1202 Q1112.59 32.7556 1110.81 32.7556 Q1104.49 32.7556 1101.09 36.8875 Q1097.73 40.9789 1097.73 48.6757 L1097.73 72.576 L1090.23 72.576 L1090.23 27.2059 L1097.73 27.2059 L1097.73 34.2544 Q1100.08 30.1225 1103.84 28.1376 Q1107.61 26.1121 1113 26.1121 Q1113.77 26.1121 1114.7 26.2337 Q1115.63 26.3147 1116.77 26.5172 L1116.81 34.1734 Z" fill="#000000" fill-rule="evenodd" fill-opacity="1" /><path clip-path="url(#clip010)" d="M 0 0 M1123.86 54.671 L1123.86 27.2059 L1131.31 27.2059 L1131.31 54.3874 Q1131.31 60.8284 1133.82 64.0691 Q1136.33 67.2693 1141.36 67.2693 Q1147.39 67.2693 1150.88 63.421 Q1154.4 59.5726 1154.4 52.9291 L1154.4 27.2059 L1161.85 27.2059 L1161.85 72.576 L1154.4 72.576 L1154.4 65.6084 Q1151.69 69.7404 1148.08 71.7658 Q1144.52 73.7508 1139.78 73.7508 Q1131.96 73.7508 1127.91 68.8897 Q1123.86 64.0286 1123.86 54.671 M1142.61 26.1121 L1142.61 26.1121 Z" fill="#000000" fill-rule="evenodd" fill-opacity="1" /><path clip-path="url(#clip010)" d="M 0 0 M1208.48 48.0275 L1208.48 51.6733 L1174.21 51.6733 Q1174.69 59.3701 1178.83 63.421 Q1183 67.4314 1190.41 67.4314 Q1194.71 67.4314 1198.72 66.3781 Q1202.77 65.3249 1206.74 63.2184 L1206.74 70.267 Q1202.73 71.9684 1198.51 72.8596 Q1194.3 73.7508 1189.97 73.7508 Q1179.11 73.7508 1172.75 67.4314 Q1166.43 61.1119 1166.43 50.3365 Q1166.43 39.1965 1172.43 32.6746 Q1178.46 26.1121 1188.67 26.1121 Q1197.83 26.1121 1203.13 32.0264 Q1208.48 37.9003 1208.48 48.0275 M1201.03 45.84 Q1200.94 39.7232 1197.58 36.0774 Q1194.26 32.4315 1188.75 32.4315 Q1182.51 32.4315 1178.75 35.9558 Q1175.02 39.4801 1174.45 45.8805 L1201.03 45.84 Z" fill="#000000" fill-rule="evenodd" fill-opacity="1" /><path clip-path="url(#clip010)" d="M 0 0 M1279.25 14.0809 L1279.25 22.0612 Q1274.59 19.8332 1270.46 18.7395 Q1266.33 17.6457 1262.48 17.6457 Q1255.79 17.6457 1252.15 20.2383 Q1248.54 22.8309 1248.54 27.611 Q1248.54 31.6214 1250.93 33.6873 Q1253.36 35.7128 1260.09 36.9686 L1265.03 37.9813 Q1274.19 39.7232 1278.52 44.1387 Q1282.89 48.5136 1282.89 55.8863 Q1282.89 64.6767 1276.98 69.2137 Q1271.11 73.7508 1259.72 73.7508 Q1255.43 73.7508 1250.57 72.7785 Q1245.75 71.8063 1240.56 69.9024 L1240.56 61.4765 Q1245.55 64.2716 1250.33 65.6895 Q1255.11 67.1073 1259.72 67.1073 Q1266.73 67.1073 1270.54 64.3527 Q1274.35 61.598 1274.35 56.4939 Q1274.35 52.0379 1271.59 49.5264 Q1268.88 47.0148 1262.64 45.759 L1257.66 44.7868 Q1248.5 42.9639 1244.41 39.075 Q1240.32 35.1862 1240.32 28.2591 Q1240.32 20.2383 1245.95 15.6203 Q1251.62 11.0023 1261.55 11.0023 Q1265.8 11.0023 1270.22 11.7719 Q1274.63 12.5416 1279.25 14.0809 Z" fill="#000000" fill-rule="evenodd" fill-opacity="1" /><path clip-path="url(#clip010)" d="M 0 0 M1298.09 14.324 L1298.09 27.2059 L1313.44 27.2059 L1313.44 32.9987 L1298.09 32.9987 L1298.09 57.6282 Q1298.09 63.1779 1299.58 64.7578 Q1301.12 66.3376 1305.78 66.3376 L1313.44 66.3376 L1313.44 72.576 L1305.78 72.576 Q1297.15 72.576 1293.87 69.3758 Q1290.59 66.1351 1290.59 57.6282 L1290.59 32.9987 L1285.12 32.9987 L1285.12 27.2059 L1290.59 27.2059 L1290.59 14.324 L1298.09 14.324 Z" fill="#000000" fill-rule="evenodd" fill-opacity="1" /><path clip-path="url(#clip010)" d="M 0 0 M1341.88 49.7694 Q1332.84 49.7694 1329.36 51.8354 Q1325.87 53.9013 1325.87 58.8839 Q1325.87 62.8538 1328.47 65.2034 Q1331.1 67.5124 1335.6 67.5124 Q1341.79 67.5124 1345.52 63.1374 Q1349.29 58.7219 1349.29 51.4303 L1349.29 49.7694 L1341.88 49.7694 M1356.74 46.6907 L1356.74 72.576 L1349.29 72.576 L1349.29 65.6895 Q1346.74 69.8214 1342.93 71.8063 Q1339.12 73.7508 1333.61 73.7508 Q1326.64 73.7508 1322.51 69.8619 Q1318.42 65.9325 1318.42 59.3701 Q1318.42 51.7138 1323.53 47.825 Q1328.67 43.9361 1338.84 43.9361 L1349.29 43.9361 L1349.29 43.2069 Q1349.29 38.0623 1345.89 35.2672 Q1342.52 32.4315 1336.41 32.4315 Q1332.52 32.4315 1328.83 33.3632 Q1325.15 34.295 1321.74 36.1584 L1321.74 29.2718 Q1325.83 27.692 1329.68 26.9223 Q1333.53 26.1121 1337.18 26.1121 Q1347.02 26.1121 1351.88 31.2163 Q1356.74 36.3204 1356.74 46.6907 Z" fill="#000000" fill-rule="evenodd" fill-opacity="1" /><path clip-path="url(#clip010)" d="M 0 0 M1371.93 14.324 L1371.93 27.2059 L1387.29 27.2059 L1387.29 32.9987 L1371.93 32.9987 L1371.93 57.6282 Q1371.93 63.1779 1373.43 64.7578 Q1374.97 66.3376 1379.63 66.3376 L1387.29 66.3376 L1387.29 72.576 L1379.63 72.576 Q1371 72.576 1367.72 69.3758 Q1364.44 66.1351 1364.44 57.6282 L1364.44 32.9987 L1358.97 32.9987 L1358.97 27.2059 L1364.44 27.2059 L1364.44 14.324 L1371.93 14.324 Z" fill="#000000" fill-rule="evenodd" fill-opacity="1" /><path clip-path="url(#clip010)" d="M 0 0 M1395.1 27.2059 L1402.56 27.2059 L1402.56 72.576 L1395.1 72.576 L1395.1 27.2059 M1395.1 9.54393 L1402.56 9.54393 L1402.56 18.9825 L1395.1 18.9825 L1395.1 9.54393 Z" fill="#000000" fill-rule="evenodd" fill-opacity="1" /><path clip-path="url(#clip010)" d="M 0 0 M1439.3 28.5427 L1439.3 35.5912 Q1436.14 33.9709 1432.74 33.1607 Q1429.33 32.3505 1425.69 32.3505 Q1420.14 32.3505 1417.34 34.0519 Q1414.59 35.7533 1414.59 39.156 Q1414.59 41.7486 1416.57 43.2475 Q1418.56 44.7058 1424.55 46.0426 L1427.11 46.6097 Q1435.05 48.3111 1438.37 51.4303 Q1441.73 54.509 1441.73 60.0587 Q1441.73 66.3781 1436.71 70.0644 Q1431.72 73.7508 1422.97 73.7508 Q1419.33 73.7508 1415.36 73.0216 Q1411.43 72.3329 1407.05 70.9151 L1407.05 63.2184 Q1411.19 65.3654 1415.2 66.4591 Q1419.21 67.5124 1423.14 67.5124 Q1428.4 67.5124 1431.24 65.73 Q1434.07 63.9071 1434.07 60.6258 Q1434.07 57.5877 1432.01 55.9673 Q1429.98 54.3469 1423.06 52.8481 L1420.46 52.2405 Q1413.54 50.7821 1410.46 47.7845 Q1407.38 44.7463 1407.38 39.4801 Q1407.38 33.0797 1411.92 29.5959 Q1416.45 26.1121 1424.8 26.1121 Q1428.93 26.1121 1432.58 26.7198 Q1436.22 27.3274 1439.3 28.5427 Z" fill="#000000" fill-rule="evenodd" fill-opacity="1" /><path clip-path="url(#clip010)" d="M 0 0 M1456.92 14.324 L1456.92 27.2059 L1472.27 27.2059 L1472.27 32.9987 L1456.92 32.9987 L1456.92 57.6282 Q1456.92 63.1779 1458.42 64.7578 Q1459.96 66.3376 1464.62 66.3376 L1472.27 66.3376 L1472.27 72.576 L1464.62 72.576 Q1455.99 72.576 1452.71 69.3758 Q1449.43 66.1351 1449.43 57.6282 L1449.43 32.9987 L1443.96 32.9987 L1443.96 27.2059 L1449.43 27.2059 L1449.43 14.324 L1456.92 14.324 Z" fill="#000000" fill-rule="evenodd" fill-opacity="1" /><path clip-path="url(#clip010)" d="M 0 0 M1480.09 27.2059 L1487.55 27.2059 L1487.55 72.576 L1480.09 72.576 L1480.09 27.2059 M1480.09 9.54393 L1487.55 9.54393 L1487.55 18.9825 L1480.09 18.9825 L1480.09 9.54393 Z" fill="#000000" fill-rule="evenodd" fill-opacity="1" /><path clip-path="url(#clip010)" d="M 0 0 M1528.01 28.9478 L1528.01 35.9153 Q1524.86 34.1734 1521.65 33.3227 Q1518.5 32.4315 1515.25 32.4315 Q1508 32.4315 1503.99 37.0496 Q1499.98 41.6271 1499.98 49.9314 Q1499.98 58.2358 1503.99 62.8538 Q1508 67.4314 1515.25 67.4314 Q1518.5 67.4314 1521.65 66.5807 Q1524.86 65.6895 1528.01 63.9476 L1528.01 70.8341 Q1524.9 72.2924 1521.53 73.0216 Q1518.21 73.7508 1514.44 73.7508 Q1504.2 73.7508 1498.16 67.3098 Q1492.12 60.8689 1492.12 49.9314 Q1492.12 38.832 1498.2 32.472 Q1504.32 26.1121 1514.93 26.1121 Q1518.37 26.1121 1521.65 26.8413 Q1524.94 27.5299 1528.01 28.9478 Z" fill="#000000" fill-rule="evenodd" fill-opacity="1" /><path clip-path="url(#clip010)" d="M 0 0 M1556.45 49.7694 Q1547.42 49.7694 1543.93 51.8354 Q1540.45 53.9013 1540.45 58.8839 Q1540.45 62.8538 1543.04 65.2034 Q1545.68 67.5124 1550.17 67.5124 Q1556.37 67.5124 1560.1 63.1374 Q1563.87 58.7219 1563.87 51.4303 L1563.87 49.7694 L1556.45 49.7694 M1571.32 46.6907 L1571.32 72.576 L1563.87 72.576 L1563.87 65.6895 Q1561.31 69.8214 1557.51 71.8063 Q1553.7 73.7508 1548.19 73.7508 Q1541.22 73.7508 1537.09 69.8619 Q1533 65.9325 1533 59.3701 Q1533 51.7138 1538.1 47.825 Q1543.25 43.9361 1553.41 43.9361 L1563.87 43.9361 L1563.87 43.2069 Q1563.87 38.0623 1560.46 35.2672 Q1557.1 32.4315 1550.98 32.4315 Q1547.09 32.4315 1543.41 33.3632 Q1539.72 34.295 1536.32 36.1584 L1536.32 29.2718 Q1540.41 27.692 1544.26 26.9223 Q1548.11 26.1121 1551.75 26.1121 Q1561.6 26.1121 1566.46 31.2163 Q1571.32 36.3204 1571.32 46.6907 Z" fill="#000000" fill-rule="evenodd" fill-opacity="1" /><path clip-path="url(#clip010)" d="M 0 0 M1579.14 9.54393 L1586.59 9.54393 L1586.59 72.576 L1579.14 72.576 L1579.14 9.54393 Z" fill="#000000" fill-rule="evenodd" fill-opacity="1" /><path clip-path="url(#clip010)" d="M 0 0 M1621.1 12.096 L1633.3 12.096 L1648.73 53.2532 L1664.25 12.096 L1676.44 12.096 L1676.44 72.576 L1668.46 72.576 L1668.46 19.4686 L1652.86 60.9499 L1644.64 60.9499 L1629.04 19.4686 L1629.04 72.576 L1621.1 72.576 L1621.1 12.096 Z" fill="#000000" fill-rule="evenodd" fill-opacity="1" /><path clip-path="url(#clip010)" d="M 0 0 M1701.84 32.4315 Q1695.84 32.4315 1692.36 37.1306 Q1688.88 41.7891 1688.88 49.9314 Q1688.88 58.0738 1692.32 62.7728 Q1695.8 67.4314 1701.84 67.4314 Q1707.79 67.4314 1711.28 62.7323 Q1714.76 58.0333 1714.76 49.9314 Q1714.76 41.8701 1711.28 37.1711 Q1707.79 32.4315 1701.84 32.4315 M1701.84 26.1121 Q1711.56 26.1121 1717.11 32.4315 Q1722.66 38.7509 1722.66 49.9314 Q1722.66 61.0714 1717.11 67.4314 Q1711.56 73.7508 1701.84 73.7508 Q1692.08 73.7508 1686.53 67.4314 Q1681.02 61.0714 1681.02 49.9314 Q1681.02 38.7509 1686.53 32.4315 Q1692.08 26.1121 1701.84 26.1121 Z" fill="#000000" fill-rule="evenodd" fill-opacity="1" /><path clip-path="url(#clip010)" d="M 0 0 M1760.33 34.0924 L1760.33 9.54393 L1767.79 9.54393 L1767.79 72.576 L1760.33 72.576 L1760.33 65.7705 Q1757.98 69.8214 1754.38 71.8063 Q1750.81 73.7508 1745.79 73.7508 Q1737.57 73.7508 1732.38 67.1883 Q1727.24 60.6258 1727.24 49.9314 Q1727.24 39.2371 1732.38 32.6746 Q1737.57 26.1121 1745.79 26.1121 Q1750.81 26.1121 1754.38 28.0971 Q1757.98 30.0415 1760.33 34.0924 M1734.93 49.9314 Q1734.93 58.1548 1738.3 62.8538 Q1741.7 67.5124 1747.61 67.5124 Q1753.53 67.5124 1756.93 62.8538 Q1760.33 58.1548 1760.33 49.9314 Q1760.33 41.7081 1756.93 37.0496 Q1753.53 32.3505 1747.61 32.3505 Q1741.7 32.3505 1738.3 37.0496 Q1734.93 41.7081 1734.93 49.9314 Z" fill="#000000" fill-rule="evenodd" fill-opacity="1" /><path clip-path="url(#clip010)" d="M 0 0 M1814.41 48.0275 L1814.41 51.6733 L1780.14 51.6733 Q1780.63 59.3701 1784.76 63.421 Q1788.93 67.4314 1796.35 67.4314 Q1800.64 67.4314 1804.65 66.3781 Q1808.7 65.3249 1812.67 63.2184 L1812.67 70.267 Q1808.66 71.9684 1804.45 72.8596 Q1800.24 73.7508 1795.9 73.7508 Q1785.04 73.7508 1778.68 67.4314 Q1772.37 61.1119 1772.37 50.3365 Q1772.37 39.1965 1778.36 32.6746 Q1784.4 26.1121 1794.6 26.1121 Q1803.76 26.1121 1809.07 32.0264 Q1814.41 37.9003 1814.41 48.0275 M1806.96 45.84 Q1806.88 39.7232 1803.52 36.0774 Q1800.19 32.4315 1794.69 32.4315 Q1788.45 32.4315 1784.68 35.9558 Q1780.95 39.4801 1780.39 45.8805 L1806.96 45.84 Z" fill="#000000" fill-rule="evenodd" fill-opacity="1" /><path clip-path="url(#clip010)" d="M 0 0 M1822.23 9.54393 L1829.69 9.54393 L1829.69 72.576 L1822.23 72.576 L1822.23 9.54393 Z" fill="#000000" fill-rule="evenodd" fill-opacity="1" /><polyline clip-path="url(#clip012)" style="stroke:#009af9; stroke-width:4; stroke-opacity:1; fill:none" points="
  743.784,1447.87 743.784,1344.42 769.569,1344.42 769.569,1388.75 795.354,1388.75 795.354,1255.74 821.139,1255.74 821.139,1226.18 846.923,1226.18 846.923,1167.06 
  872.708,1167.06 872.708,945.366 898.493,945.366 898.493,1048.82 924.278,1048.82 924.278,782.791 950.063,782.791 950.063,974.926 975.847,974.926 975.847,708.893 
  1001.63,708.893 1001.63,1093.16 1027.42,1093.16 1027.42,886.248 1053.2,886.248 1053.2,974.926 1078.99,974.926 1078.99,1004.48 1104.77,1004.48 1104.77,974.926 
  1130.56,974.926 1130.56,1048.82 1156.34,1048.82 1156.34,1314.86 1182.13,1314.86 1182.13,1255.74 1207.91,1255.74 1207.91,1285.3 1233.7,1285.3 1233.7,1314.86 
  1259.48,1314.86 1259.48,1433.09 1285.27,1433.09 1285.27,1388.75 1311.05,1388.75 1311.05,1418.31 1336.83,1418.31 1336.83,1433.09 1362.62,1433.09 1362.62,1447.87 
  1388.4,1447.87 1388.4,1433.09 1414.19,1433.09 1414.19,1403.53 1439.97,1403.53 1465.76,1403.53 1491.54,1403.53 1491.54,1255.74 
  1517.33,1255.74 1517.33,1107.94 1543.11,1107.94 1543.11,1181.84 1568.9,1181.84 1568.9,1063.6 1594.68,1063.6 1594.68,1048.82 1620.47,1048.82 1620.47,694.113 
  1646.25,694.113 1646.25,797.57 1672.04,797.57 1672.04,428.08 1697.82,428.08 1697.82,516.758 1723.61,516.758 1749.39,516.758 1749.39,162.047 
  1775.18,162.047 1775.18,250.725 1800.96,250.725 1800.96,235.945 1826.75,235.945 1826.75,428.08 1852.53,428.08 1852.53,413.3 1878.32,413.3 1878.32,649.774 
  1904.1,649.774 1904.1,841.909 1929.89,841.909 1929.89,886.248 1955.67,886.248 1955.67,1019.26 1981.45,1019.26 1981.45,1226.18 2007.24,1226.18 2007.24,1314.86 
  2033.02,1314.86 2033.02,1300.08 2058.81,1300.08 2058.81,1359.2 2084.59,1359.2 2084.59,1433.09 2110.38,1433.09 2136.16,1433.09 2136.16,1447.87 
  2161.95,1447.87 2187.73,1447.87 2213.52,1447.87 2239.3,1447.87 2265.09,1447.87 
  2290.87,1447.87 
  "/>
<polyline clip-path="url(#clip012)" style="stroke:#e26f46; stroke-width:4; stroke-opacity:1; fill:none" points="
  228.088,1447.87 230.667,1447.87 233.245,1447.87 235.824,1447.87 238.402,1447.87 240.981,1447.87 243.559,1447.87 246.138,1447.87 248.716,1447.87 251.295,1447.87 
  253.873,1447.87 256.451,1447.87 259.03,1447.87 261.608,1447.87 264.187,1447.87 266.765,1447.87 269.344,1447.87 271.922,1447.87 274.501,1447.87 277.079,1447.87 
  279.658,1447.87 282.236,1447.87 284.815,1447.87 287.393,1447.87 289.972,1447.87 292.55,1447.87 295.129,1447.87 297.707,1447.87 300.286,1447.87 302.864,1447.87 
  305.443,1447.87 308.021,1447.87 310.6,1447.87 313.178,1447.87 315.757,1447.87 318.335,1447.87 320.913,1447.87 323.492,1447.87 326.07,1447.87 328.649,1447.87 
  331.227,1447.87 333.806,1447.87 336.384,1447.87 338.963,1447.87 341.541,1447.87 344.12,1447.87 346.698,1447.87 349.277,1447.87 351.855,1447.87 354.434,1447.87 
  357.012,1447.87 359.591,1447.87 362.169,1447.87 364.748,1447.87 367.326,1447.87 369.905,1447.87 372.483,1447.87 375.062,1447.87 377.64,1447.87 380.219,1447.87 
  382.797,1447.87 385.375,1447.87 387.954,1447.87 390.532,1447.87 393.111,1447.86 395.689,1447.86 398.268,1447.86 400.846,1447.86 403.425,1447.86 406.003,1447.86 
  408.582,1447.86 411.16,1447.86 413.739,1447.86 416.317,1447.85 418.896,1447.85 421.474,1447.85 424.053,1447.85 426.631,1447.84 429.21,1447.84 431.788,1447.84 
  434.367,1447.84 436.945,1447.83 439.524,1447.83 442.102,1447.83 444.681,1447.82 447.259,1447.82 449.837,1447.81 452.416,1447.81 454.994,1447.8 457.573,1447.79 
  460.151,1447.79 462.73,1447.78 465.308,1447.77 467.887,1447.76 470.465,1447.75 473.044,1447.74 475.622,1447.73 478.201,1447.72 480.779,1447.7 483.358,1447.69 
  485.936,1447.68 488.515,1447.66 491.093,1447.64 493.672,1447.62 496.25,1447.6 498.829,1447.58 501.407,1447.56 503.986,1447.53 506.564,1447.5 509.143,1447.47 
  511.721,1447.44 514.299,1447.41 516.878,1447.37 519.456,1447.33 522.035,1447.29 524.613,1447.25 527.192,1447.2 529.77,1447.15 532.349,1447.09 534.927,1447.03 
  537.506,1446.97 540.084,1446.9 542.663,1446.83 545.241,1446.75 547.82,1446.67 550.398,1446.58 552.977,1446.49 555.555,1446.39 558.134,1446.28 560.712,1446.17 
  563.291,1446.05 565.869,1445.92 568.448,1445.79 571.026,1445.64 573.605,1445.49 576.183,1445.33 578.762,1445.15 581.34,1444.97 583.918,1444.78 586.497,1444.57 
  589.075,1444.35 591.654,1444.12 594.232,1443.87 596.811,1443.61 599.389,1443.34 601.968,1443.04 604.546,1442.74 607.125,1442.41 609.703,1442.07 612.282,1441.71 
  614.86,1441.32 617.439,1440.92 620.017,1440.49 622.596,1440.05 625.174,1439.57 627.753,1439.08 630.331,1438.55 632.91,1438 635.488,1437.42 638.067,1436.81 
  640.645,1436.17 643.224,1435.5 645.802,1434.8 648.38,1434.06 650.959,1433.28 653.537,1432.47 656.116,1431.62 658.694,1430.73 661.273,1429.8 663.851,1428.82 
  666.43,1427.8 669.008,1426.73 671.587,1425.62 674.165,1424.45 676.744,1423.24 679.322,1421.97 681.901,1420.64 684.479,1419.27 687.058,1417.83 689.636,1416.33 
  692.215,1414.77 694.793,1413.15 697.372,1411.47 699.95,1409.72 702.529,1407.9 705.107,1406.01 707.686,1404.04 710.264,1402.01 712.842,1399.9 715.421,1397.71 
  717.999,1395.44 720.578,1393.1 723.156,1390.67 725.735,1388.15 728.313,1385.55 730.892,1382.87 733.47,1380.09 736.049,1377.23 738.627,1374.27 741.206,1371.22 
  743.784,1368.08 746.363,1364.84 748.941,1361.5 751.52,1358.06 754.098,1354.53 756.677,1350.9 759.255,1347.16 761.834,1343.32 764.412,1339.38 766.991,1335.34 
  769.569,1331.19 772.148,1326.93 774.726,1322.58 777.304,1318.11 779.883,1313.55 782.461,1308.87 785.04,1304.09 787.618,1299.21 790.197,1294.22 792.775,1289.13 
  795.354,1283.94 797.932,1278.64 800.511,1273.24 803.089,1267.74 805.668,1262.15 808.246,1256.45 810.825,1250.66 813.403,1244.78 815.982,1238.8 818.56,1232.73 
  821.139,1226.58 823.717,1220.34 826.296,1214.02 828.874,1207.62 831.453,1201.15 834.031,1194.6 836.61,1187.98 839.188,1181.29 841.766,1174.54 844.345,1167.74 
  846.923,1160.87 849.502,1153.96 852.08,1147 854.659,1140 857.237,1132.97 859.816,1125.9 862.394,1118.8 864.973,1111.68 867.551,1104.55 870.13,1097.4 
  872.708,1090.25 875.287,1083.1 877.865,1075.95 880.444,1068.82 883.022,1061.7 885.601,1054.61 888.179,1047.55 890.758,1040.52 893.336,1033.54 895.915,1026.6 
  898.493,1019.72 901.072,1012.9 903.65,1006.15 906.228,999.476 908.807,992.881 911.385,986.374 913.964,979.961 916.542,973.649 919.121,967.444 921.699,961.352 
  924.278,955.38 926.856,949.534 929.435,943.821 932.013,938.245 934.592,932.815 937.17,927.534 939.749,922.41 942.327,917.447 944.906,912.652 947.484,908.029 
  950.063,903.584 952.641,899.322 955.22,895.248 957.798,891.366 960.377,887.681 962.955,884.197 965.534,880.918 968.112,877.848 970.69,874.991 973.269,872.349 
  975.847,869.927 978.426,867.727 981.004,865.751 983.583,864.002 986.161,862.482 988.74,861.193 991.318,860.136 993.897,859.312 996.475,858.723 999.054,858.37 
  1001.63,858.252 1004.21,858.37 1006.79,858.723 1009.37,859.312 1011.95,860.136 1014.52,861.193 1017.1,862.482 1019.68,864.002 1022.26,865.751 1024.84,867.727 
  1027.42,869.927 1030,872.349 1032.57,874.991 1035.15,877.848 1037.73,880.918 1040.31,884.197 1042.89,887.681 1045.47,891.366 1048.04,895.248 1050.62,899.322 
  1053.2,903.584 1055.78,908.029 1058.36,912.652 1060.94,917.447 1063.52,922.41 1066.09,927.534 1068.67,932.814 1071.25,938.245 1073.83,943.82 1076.41,949.534 
  1078.99,955.38 1081.57,961.351 1084.14,967.443 1086.72,973.648 1089.3,979.96 1091.88,986.373 1094.46,992.88 1097.04,999.474 1099.61,1006.15 1102.19,1012.9 
  1104.77,1019.72 1107.35,1026.6 1109.93,1033.53 1112.51,1040.52 1115.09,1047.54 1117.66,1054.61 1120.24,1061.7 1122.82,1068.82 1125.4,1075.95 1127.98,1083.09 
  1130.56,1090.25 1133.13,1097.4 1135.71,1104.54 1138.29,1111.68 1140.87,1118.79 1143.45,1125.89 1146.03,1132.96 1148.61,1139.99 1151.18,1146.99 1153.76,1153.95 
  1156.34,1160.86 1158.92,1167.72 1161.5,1174.53 1164.08,1181.28 1166.65,1187.96 1169.23,1194.58 1171.81,1201.13 1174.39,1207.6 1176.97,1214 1179.55,1220.32 
  1182.13,1226.55 1184.7,1232.7 1187.28,1238.76 1189.86,1244.74 1192.44,1250.62 1195.02,1256.4 1197.6,1262.09 1200.18,1267.69 1202.75,1273.18 1205.33,1278.57 
  1207.91,1283.86 1210.49,1289.05 1213.07,1294.13 1215.65,1299.11 1218.22,1303.99 1220.8,1308.76 1223.38,1313.42 1225.96,1317.98 1228.54,1322.43 1231.12,1326.77 
  1233.7,1331.01 1236.27,1335.15 1238.85,1339.17 1241.43,1343.1 1244.01,1346.92 1246.59,1350.63 1249.17,1354.24 1251.74,1357.75 1254.32,1361.16 1256.9,1364.47 
  1259.48,1367.68 1262.06,1370.79 1264.64,1373.81 1267.22,1376.73 1269.79,1379.55 1272.37,1382.28 1274.95,1384.92 1277.53,1387.47 1280.11,1389.93 1282.69,1392.3 
  1285.27,1394.58 1287.84,1396.78 1290.42,1398.89 1293,1400.93 1295.58,1402.88 1298.16,1404.75 1300.74,1406.55 1303.31,1408.26 1305.89,1409.9 1308.47,1411.47 
  1311.05,1412.97 1313.63,1414.39 1316.21,1415.74 1318.79,1417.02 1321.36,1418.24 1323.94,1419.39 1326.52,1420.47 1329.1,1421.49 1331.68,1422.44 1334.26,1423.33 
  1336.83,1424.16 1339.41,1424.92 1341.99,1425.63 1344.57,1426.27 1347.15,1426.85 1349.73,1427.38 1352.31,1427.85 1354.88,1428.25 1357.46,1428.6 1360.04,1428.89 
  1362.62,1429.13 1365.2,1429.3 1367.78,1429.42 1370.35,1429.48 1372.93,1429.48 1375.51,1429.42 1378.09,1429.3 1380.67,1429.12 1383.25,1428.88 1385.83,1428.58 
  1388.4,1428.22 1390.98,1427.8 1393.56,1427.31 1396.14,1426.76 1398.72,1426.14 1401.3,1425.45 1403.88,1424.69 1406.45,1423.87 1409.03,1422.97 1411.61,1422 
  1414.19,1420.95 1416.77,1419.83 1419.35,1418.63 1421.92,1417.34 1424.5,1415.98 1427.08,1414.52 1429.66,1412.98 1432.24,1411.35 1434.82,1409.63 1437.4,1407.82 
  1439.97,1405.9 1442.55,1403.89 1445.13,1401.77 1447.71,1399.55 1450.29,1397.21 1452.87,1394.77 1455.44,1392.21 1458.02,1389.54 1460.6,1386.74 1463.18,1383.82 
  1465.76,1380.77 1468.34,1377.59 1470.92,1374.28 1473.49,1370.83 1476.07,1367.25 1478.65,1363.51 1481.23,1359.63 1483.81,1355.6 1486.39,1351.42 1488.97,1347.08 
  1491.54,1342.58 1494.12,1337.92 1496.7,1333.09 1499.28,1328.09 1501.86,1322.92 1504.44,1317.57 1507.01,1312.04 1509.59,1306.33 1512.17,1300.44 1514.75,1294.35 
  1517.33,1288.08 1519.91,1281.62 1522.49,1274.96 1525.06,1268.1 1527.64,1261.04 1530.22,1253.79 1532.8,1246.32 1535.38,1238.66 1537.96,1230.79 1540.53,1222.7 
  1543.11,1214.42 1545.69,1205.92 1548.27,1197.21 1550.85,1188.29 1553.43,1179.16 1556.01,1169.81 1558.58,1160.26 1561.16,1150.5 1563.74,1140.53 1566.32,1130.35 
  1568.9,1119.96 1571.48,1109.37 1574.05,1098.58 1576.63,1087.58 1579.21,1076.39 1581.79,1065.01 1584.37,1053.43 1586.95,1041.66 1589.53,1029.71 1592.1,1017.58 
  1594.68,1005.28 1597.26,992.8 1599.84,980.16 1602.42,967.362 1605,954.41 1607.58,941.311 1610.15,928.073 1612.73,914.702 1615.31,901.206 1617.89,887.592 
  1620.47,873.868 1623.05,860.044 1625.62,846.127 1628.2,832.127 1630.78,818.053 1633.36,803.915 1635.94,789.723 1638.52,775.488 1641.1,761.219 1643.67,746.927 
  1646.25,732.624 1648.83,718.321 1651.41,704.03 1653.99,689.762 1656.57,675.53 1659.14,661.344 1661.72,647.219 1664.3,633.166 1666.88,619.198 1669.46,605.327 
  1672.04,591.567 1674.62,577.93 1677.19,564.429 1679.77,551.077 1682.35,537.888 1684.93,524.874 1687.51,512.049 1690.09,499.424 1692.66,487.014 1695.24,474.831 
  1697.82,462.887 1700.4,451.195 1702.98,439.768 1705.56,428.618 1708.14,417.756 1710.71,407.195 1713.29,396.946 1715.87,387.021 1718.45,377.43 1721.03,368.185 
  1723.61,359.295 1726.19,350.771 1728.76,342.622 1731.34,334.858 1733.92,327.488 1736.5,320.52 1739.08,313.963 1741.66,307.823 1744.23,302.108 1746.81,296.826 
  1749.39,291.981 1751.97,287.581 1754.55,283.629 1757.13,280.131 1759.71,277.091 1762.28,274.512 1764.86,272.398 1767.44,270.751 1770.02,269.574 1772.6,268.867 
  1775.18,268.631 1777.75,268.867 1780.33,269.574 1782.91,270.751 1785.49,272.398 1788.07,274.512 1790.65,277.091 1793.23,280.131 1795.8,283.629 1798.38,287.581 
  1800.96,291.981 1803.54,296.826 1806.12,302.109 1808.7,307.823 1811.28,313.963 1813.85,320.52 1816.43,327.488 1819.01,334.859 1821.59,342.622 1824.17,350.771 
  1826.75,359.295 1829.32,368.185 1831.9,377.431 1834.48,387.021 1837.06,396.947 1839.64,407.195 1842.22,417.756 1844.8,428.618 1847.37,439.768 1849.95,451.195 
  1852.53,462.887 1855.11,474.831 1857.69,487.014 1860.27,499.425 1862.84,512.049 1865.42,524.875 1868,537.889 1870.58,551.078 1873.16,564.429 1875.74,577.93 
  1878.32,591.567 1880.89,605.328 1883.47,619.199 1886.05,633.167 1888.63,647.22 1891.21,661.346 1893.79,675.531 1896.36,689.764 1898.94,704.032 1901.52,718.323 
  1904.1,732.626 1906.68,746.929 1909.26,761.221 1911.84,775.491 1914.41,789.727 1916.99,803.919 1919.57,818.057 1922.15,832.131 1924.73,846.132 1927.31,860.049 
  1929.89,873.874 1932.46,887.598 1935.04,901.213 1937.62,914.71 1940.2,928.082 1942.78,941.321 1945.36,954.42 1947.93,967.373 1950.51,980.173 1953.09,992.814 
  1955.67,1005.29 1958.25,1017.6 1960.83,1029.73 1963.41,1041.68 1965.98,1053.45 1968.56,1065.03 1971.14,1076.42 1973.72,1087.61 1976.3,1098.61 1978.88,1109.41 
  1981.45,1120 1984.03,1130.39 1986.61,1140.57 1989.19,1150.55 1991.77,1160.31 1994.35,1169.87 1996.93,1179.22 1999.5,1188.35 2002.08,1197.28 2004.66,1206 
  2007.24,1214.5 2009.82,1222.8 2012.4,1230.89 2014.97,1238.77 2017.55,1246.45 2020.13,1253.92 2022.71,1261.19 2025.29,1268.26 2027.87,1275.13 2030.45,1281.8 
  2033.02,1288.28 2035.6,1294.57 2038.18,1300.67 2040.76,1306.58 2043.34,1312.31 2045.92,1317.86 2048.5,1323.23 2051.07,1328.43 2053.65,1333.46 2056.23,1338.32 
  2058.81,1343.01 2061.39,1347.55 2063.97,1351.92 2066.54,1356.15 2069.12,1360.22 2071.7,1364.14 2074.28,1367.92 2076.86,1371.56 2079.44,1375.06 2082.02,1378.44 
  2084.59,1381.68 2087.17,1384.79 2089.75,1387.78 2092.33,1390.66 2094.91,1393.42 2097.49,1396.06 2100.06,1398.6 2102.64,1401.03 2105.22,1403.36 2107.8,1405.59 
  2110.38,1407.72 2112.96,1409.76 2115.54,1411.72 2118.11,1413.58 2120.69,1415.37 2123.27,1417.07 2125.85,1418.69 2128.43,1420.25 2131.01,1421.72 2133.59,1423.13 
  2136.16,1424.48 2138.74,1425.75 2141.32,1426.97 2143.9,1428.13 2146.48,1429.23 2149.06,1430.28 2151.63,1431.27 2154.21,1432.22 2156.79,1433.11 2159.37,1433.97 
  2161.95,1434.77 2164.53,1435.54 2167.11,1436.26 2169.68,1436.95 2172.26,1437.6 2174.84,1438.22 2177.42,1438.8 2180,1439.35 2182.58,1439.87 2185.15,1440.36 
  2187.73,1440.83 2190.31,1441.26 2192.89,1441.68 2195.47,1442.07 2198.05,1442.44 2200.63,1442.78 2203.2,1443.11 2205.78,1443.41 2208.36,1443.7 2210.94,1443.98 
  2213.52,1444.23 2216.1,1444.47 2218.67,1444.7 2221.25,1444.91 2223.83,1445.11 2226.41,1445.29 2228.99,1445.47 2231.57,1445.63 2234.15,1445.79 2236.72,1445.93 
  2239.3,1446.06 2241.88,1446.19 2244.46,1446.31 2247.04,1446.42 2249.62,1446.52 2252.2,1446.62 2254.77,1446.71 2257.35,1446.79 2259.93,1446.87 2262.51,1446.94 
  2265.09,1447.01 2267.67,1447.07 2270.24,1447.13 2272.82,1447.19 2275.4,1447.24 2277.98,1447.29 2280.56,1447.33 2283.14,1447.37 2285.72,1447.41 2288.29,1447.44 
  2290.87,1447.48 
  "/>
<path clip-path="url(#clip010)" d="
M1925.95 350.345 L2279.87 350.345 L2279.87 168.905 L1925.95 168.905  Z
  " fill="#ffffff" fill-rule="evenodd" fill-opacity="1"/>
<polyline clip-path="url(#clip010)" style="stroke:#000000; stroke-width:4; stroke-opacity:1; fill:none" points="
  1925.95,350.345 2279.87,350.345 2279.87,168.905 1925.95,168.905 1925.95,350.345 
  "/>
<polyline clip-path="url(#clip010)" style="stroke:#009af9; stroke-width:4; stroke-opacity:1; fill:none" points="
  1950.24,229.385 2096.01,229.385 
  "/>
<path clip-path="url(#clip010)" d="M 0 0 M2124.99 215.947 L2124.99 242.822 L2130.63 242.822 Q2137.79 242.822 2141.1 239.581 Q2144.43 236.341 2144.43 229.35 Q2144.43 222.406 2141.1 219.188 Q2137.79 215.947 2130.63 215.947 L2124.99 215.947 M2120.31 212.105 L2129.92 212.105 Q2139.96 212.105 2144.66 216.294 Q2149.36 220.461 2149.36 229.35 Q2149.36 238.285 2144.64 242.475 Q2139.92 246.665 2129.92 246.665 L2120.31 246.665 L2120.31 212.105 Z" fill="#000000" fill-rule="evenodd" fill-opacity="1" /><path clip-path="url(#clip010)" d="M 0 0 M2165.61 233.632 Q2160.45 233.632 2158.46 234.813 Q2156.47 235.993 2156.47 238.841 Q2156.47 241.109 2157.95 242.452 Q2159.45 243.771 2162.02 243.771 Q2165.56 243.771 2167.69 241.271 Q2169.85 238.748 2169.85 234.581 L2169.85 233.632 L2165.61 233.632 M2174.11 231.873 L2174.11 246.665 L2169.85 246.665 L2169.85 242.729 Q2168.39 245.091 2166.21 246.225 Q2164.04 247.336 2160.89 247.336 Q2156.91 247.336 2154.55 245.114 Q2152.21 242.868 2152.21 239.118 Q2152.21 234.743 2155.12 232.521 Q2158.06 230.299 2163.87 230.299 L2169.85 230.299 L2169.85 229.882 Q2169.85 226.943 2167.9 225.345 Q2165.98 223.725 2162.48 223.725 Q2160.26 223.725 2158.16 224.257 Q2156.05 224.79 2154.11 225.855 L2154.11 221.919 Q2156.44 221.017 2158.64 220.577 Q2160.84 220.114 2162.92 220.114 Q2168.55 220.114 2171.33 223.031 Q2174.11 225.947 2174.11 231.873 Z" fill="#000000" fill-rule="evenodd" fill-opacity="1" /><path clip-path="url(#clip010)" d="M 0 0 M2182.79 213.378 L2182.79 220.739 L2191.56 220.739 L2191.56 224.049 L2182.79 224.049 L2182.79 238.123 Q2182.79 241.294 2183.64 242.197 Q2184.52 243.1 2187.18 243.1 L2191.56 243.1 L2191.56 246.665 L2187.18 246.665 Q2182.25 246.665 2180.38 244.836 Q2178.5 242.984 2178.5 238.123 L2178.5 224.049 L2175.38 224.049 L2175.38 220.739 L2178.5 220.739 L2178.5 213.378 L2182.79 213.378 Z" fill="#000000" fill-rule="evenodd" fill-opacity="1" /><path clip-path="url(#clip010)" d="M 0 0 M2207.81 233.632 Q2202.65 233.632 2200.66 234.813 Q2198.67 235.993 2198.67 238.841 Q2198.67 241.109 2200.15 242.452 Q2201.65 243.771 2204.22 243.771 Q2207.76 243.771 2209.89 241.271 Q2212.04 238.748 2212.04 234.581 L2212.04 233.632 L2207.81 233.632 M2216.3 231.873 L2216.3 246.665 L2212.04 246.665 L2212.04 242.729 Q2210.59 245.091 2208.41 246.225 Q2206.23 247.336 2203.09 247.336 Q2199.11 247.336 2196.74 245.114 Q2194.41 242.868 2194.41 239.118 Q2194.41 234.743 2197.32 232.521 Q2200.26 230.299 2206.07 230.299 L2212.04 230.299 L2212.04 229.882 Q2212.04 226.943 2210.1 225.345 Q2208.18 223.725 2204.68 223.725 Q2202.46 223.725 2200.36 224.257 Q2198.25 224.79 2196.3 225.855 L2196.3 221.919 Q2198.64 221.017 2200.84 220.577 Q2203.04 220.114 2205.12 220.114 Q2210.75 220.114 2213.53 223.031 Q2216.3 225.947 2216.3 231.873 Z" fill="#000000" fill-rule="evenodd" fill-opacity="1" /><polyline clip-path="url(#clip010)" style="stroke:#e26f46; stroke-width:4; stroke-opacity:1; fill:none" points="
  1950.24,289.865 2096.01,289.865 
  "/>
<path clip-path="url(#clip010)" d="M 0 0 M2120.31 272.585 L2149.55 272.585 L2149.55 276.52 L2137.28 276.52 L2137.28 307.145 L2132.58 307.145 L2132.58 276.52 L2120.31 276.52 L2120.31 272.585 Z" fill="#000000" fill-rule="evenodd" fill-opacity="1" /><path clip-path="url(#clip010)" d="M 0 0 M2162.07 285.2 Q2161.35 284.784 2160.49 284.598 Q2159.66 284.39 2158.64 284.39 Q2155.03 284.39 2153.09 286.751 Q2151.17 289.089 2151.17 293.487 L2151.17 307.145 L2146.88 307.145 L2146.88 281.219 L2151.17 281.219 L2151.17 285.247 Q2152.51 282.886 2154.66 281.751 Q2156.81 280.594 2159.89 280.594 Q2160.33 280.594 2160.86 280.663 Q2161.4 280.71 2162.05 280.825 L2162.07 285.2 Z" fill="#000000" fill-rule="evenodd" fill-opacity="1" /><path clip-path="url(#clip010)" d="M 0 0 M2166.1 296.913 L2166.1 281.219 L2170.36 281.219 L2170.36 296.751 Q2170.36 300.432 2171.79 302.284 Q2173.23 304.112 2176.1 304.112 Q2179.55 304.112 2181.54 301.913 Q2183.55 299.714 2183.55 295.918 L2183.55 281.219 L2187.81 281.219 L2187.81 307.145 L2183.55 307.145 L2183.55 303.163 Q2182 305.524 2179.94 306.682 Q2177.9 307.816 2175.19 307.816 Q2170.73 307.816 2168.41 305.038 Q2166.1 302.26 2166.1 296.913 M2176.81 280.594 L2176.81 280.594 Z" fill="#000000" fill-rule="evenodd" fill-opacity="1" /><path clip-path="url(#clip010)" d="M 0 0 M2196.49 273.858 L2196.49 281.219 L2205.26 281.219 L2205.26 284.529 L2196.49 284.529 L2196.49 298.603 Q2196.49 301.774 2197.35 302.677 Q2198.23 303.58 2200.89 303.58 L2205.26 303.58 L2205.26 307.145 L2200.89 307.145 Q2195.96 307.145 2194.08 305.316 Q2192.21 303.464 2192.21 298.603 L2192.21 284.529 L2189.08 284.529 L2189.08 281.219 L2192.21 281.219 L2192.21 273.858 L2196.49 273.858 Z" fill="#000000" fill-rule="evenodd" fill-opacity="1" /><path clip-path="url(#clip010)" d="M 0 0 M2231.28 291.497 L2231.28 307.145 L2227.02 307.145 L2227.02 291.635 Q2227.02 287.955 2225.59 286.126 Q2224.15 284.298 2221.28 284.298 Q2217.83 284.298 2215.84 286.497 Q2213.85 288.696 2213.85 292.492 L2213.85 307.145 L2209.57 307.145 L2209.57 271.126 L2213.85 271.126 L2213.85 285.247 Q2215.38 282.909 2217.44 281.751 Q2219.52 280.594 2222.23 280.594 Q2226.7 280.594 2228.99 283.372 Q2231.28 286.126 2231.28 291.497 Z" fill="#000000" fill-rule="evenodd" fill-opacity="1" /></svg>
