<?xml version="1.0" encoding="utf-8"?>
<svg xmlns="http://www.w3.org/2000/svg" xmlns:xlink="http://www.w3.org/1999/xlink" width="600" height="400" viewBox="0 0 2400 1600">
<defs>
  <clipPath id="clip020">
    <rect x="0" y="0" width="2400" height="1600"/>
  </clipPath>
</defs>
<path clip-path="url(#clip020)" d="
M0 1600 L2400 1600 L2400 0 L0 0  Z
  " fill="#ffffff" fill-rule="evenodd" fill-opacity="1"/>
<defs>
  <clipPath id="clip021">
    <rect x="480" y="0" width="1681" height="1600"/>
  </clipPath>
</defs>
<path clip-path="url(#clip020)" d="
M172.015 1486.45 L2352.76 1486.45 L2352.76 123.472 L172.015 123.472  Z
  " fill="#ffffff" fill-rule="evenodd" fill-opacity="1"/>
<defs>
  <clipPath id="clip022">
    <rect x="172" y="123" width="2182" height="1364"/>
  </clipPath>
</defs>
<polyline clip-path="url(#clip022)" style="stroke:#000000; stroke-linecap:butt; stroke-linejoin:round; stroke-width:2; stroke-opacity:0.1; fill:none" points="
  233.734,1486.45 233.734,123.472 
  "/>
<polyline clip-path="url(#clip022)" style="stroke:#000000; stroke-linecap:butt; stroke-linejoin:round; stroke-width:2; stroke-opacity:0.1; fill:none" points="
  748.06,1486.45 748.06,123.472 
  "/>
<polyline clip-path="url(#clip022)" style="stroke:#000000; stroke-linecap:butt; stroke-linejoin:round; stroke-width:2; stroke-opacity:0.1; fill:none" points="
  1262.39,1486.45 1262.39,123.472 
  "/>
<polyline clip-path="url(#clip022)" style="stroke:#000000; stroke-linecap:butt; stroke-linejoin:round; stroke-width:2; stroke-opacity:0.1; fill:none" points="
  1776.71,1486.45 1776.71,123.472 
  "/>
<polyline clip-path="url(#clip022)" style="stroke:#000000; stroke-linecap:butt; stroke-linejoin:round; stroke-width:2; stroke-opacity:0.1; fill:none" points="
  2291.04,1486.45 2291.04,123.472 
  "/>
<polyline clip-path="url(#clip020)" style="stroke:#000000; stroke-linecap:butt; stroke-linejoin:round; stroke-width:4; stroke-opacity:1; fill:none" points="
  172.015,1486.45 2352.76,1486.45 
  "/>
<polyline clip-path="url(#clip020)" style="stroke:#000000; stroke-linecap:butt; stroke-linejoin:round; stroke-width:4; stroke-opacity:1; fill:none" points="
  233.734,1486.45 233.734,1467.55 
  "/>
<polyline clip-path="url(#clip020)" style="stroke:#000000; stroke-linecap:butt; stroke-linejoin:round; stroke-width:4; stroke-opacity:1; fill:none" points="
  748.06,1486.45 748.06,1467.55 
  "/>
<polyline clip-path="url(#clip020)" style="stroke:#000000; stroke-linecap:butt; stroke-linejoin:round; stroke-width:4; stroke-opacity:1; fill:none" points="
  1262.39,1486.45 1262.39,1467.55 
  "/>
<polyline clip-path="url(#clip020)" style="stroke:#000000; stroke-linecap:butt; stroke-linejoin:round; stroke-width:4; stroke-opacity:1; fill:none" points="
  1776.71,1486.45 1776.71,1467.55 
  "/>
<polyline clip-path="url(#clip020)" style="stroke:#000000; stroke-linecap:butt; stroke-linejoin:round; stroke-width:4; stroke-opacity:1; fill:none" points="
  2291.04,1486.45 2291.04,1467.55 
  "/>
<path clip-path="url(#clip020)" d="M202.635 1532.02 L232.31 1532.02 L232.31 1535.95 L202.635 1535.95 L202.635 1532.02 Z" fill="#000000" fill-rule="evenodd" fill-opacity="1" /><path clip-path="url(#clip020)" d="M255.25 1518.36 L243.445 1536.81 L255.25 1536.81 L255.25 1518.36 M254.023 1514.29 L259.903 1514.29 L259.903 1536.81 L264.833 1536.81 L264.833 1540.7 L259.903 1540.7 L259.903 1548.85 L255.25 1548.85 L255.25 1540.7 L239.648 1540.7 L239.648 1536.19 L254.023 1514.29 Z" fill="#000000" fill-rule="evenodd" fill-opacity="1" /><path clip-path="url(#clip020)" d="M718.002 1532.02 L747.678 1532.02 L747.678 1535.95 L718.002 1535.95 L718.002 1532.02 Z" fill="#000000" fill-rule="evenodd" fill-opacity="1" /><path clip-path="url(#clip020)" d="M761.798 1544.91 L778.117 1544.91 L778.117 1548.85 L756.173 1548.85 L756.173 1544.91 Q758.835 1542.16 763.418 1537.53 Q768.025 1532.88 769.205 1531.53 Q771.451 1529.01 772.33 1527.27 Q773.233 1525.51 773.233 1523.82 Q773.233 1521.07 771.289 1519.33 Q769.367 1517.6 766.266 1517.6 Q764.066 1517.6 761.613 1518.36 Q759.182 1519.13 756.404 1520.68 L756.404 1515.95 Q759.229 1514.82 761.682 1514.24 Q764.136 1513.66 766.173 1513.66 Q771.543 1513.66 774.738 1516.35 Q777.932 1519.03 777.932 1523.52 Q777.932 1525.65 777.122 1527.57 Q776.335 1529.47 774.228 1532.07 Q773.65 1532.74 770.548 1535.95 Q767.446 1539.15 761.798 1544.91 Z" fill="#000000" fill-rule="evenodd" fill-opacity="1" /><path clip-path="url(#clip020)" d="M1262.39 1517.37 Q1258.77 1517.37 1256.95 1520.93 Q1255.14 1524.47 1255.14 1531.6 Q1255.14 1538.71 1256.95 1542.27 Q1258.77 1545.82 1262.39 1545.82 Q1266.02 1545.82 1267.83 1542.27 Q1269.65 1538.71 1269.65 1531.6 Q1269.65 1524.47 1267.83 1520.93 Q1266.02 1517.37 1262.39 1517.37 M1262.39 1513.66 Q1268.2 1513.66 1271.25 1518.27 Q1274.33 1522.85 1274.33 1531.6 Q1274.33 1540.33 1271.25 1544.94 Q1268.2 1549.52 1262.39 1549.52 Q1256.58 1549.52 1253.5 1544.94 Q1250.44 1540.33 1250.44 1531.6 Q1250.44 1522.85 1253.5 1518.27 Q1256.58 1513.66 1262.39 1513.66 Z" fill="#000000" fill-rule="evenodd" fill-opacity="1" /><path clip-path="url(#clip020)" d="M1771.36 1544.91 L1787.68 1544.91 L1787.68 1548.85 L1765.74 1548.85 L1765.74 1544.91 Q1768.4 1542.16 1772.98 1537.53 Q1777.59 1532.88 1778.77 1531.53 Q1781.02 1529.01 1781.9 1527.27 Q1782.8 1525.51 1782.8 1523.82 Q1782.8 1521.07 1780.85 1519.33 Q1778.93 1517.6 1775.83 1517.6 Q1773.63 1517.6 1771.18 1518.36 Q1768.75 1519.13 1765.97 1520.68 L1765.97 1515.95 Q1768.79 1514.82 1771.25 1514.24 Q1773.7 1513.66 1775.74 1513.66 Q1781.11 1513.66 1784.3 1516.35 Q1787.5 1519.03 1787.5 1523.52 Q1787.5 1525.65 1786.69 1527.57 Q1785.9 1529.47 1783.79 1532.07 Q1783.22 1532.74 1780.11 1535.95 Q1777.01 1539.15 1771.36 1544.91 Z" fill="#000000" fill-rule="evenodd" fill-opacity="1" /><path clip-path="url(#clip020)" d="M2294.05 1518.36 L2282.24 1536.81 L2294.05 1536.81 L2294.05 1518.36 M2292.82 1514.29 L2298.7 1514.29 L2298.7 1536.81 L2303.63 1536.81 L2303.63 1540.7 L2298.7 1540.7 L2298.7 1548.85 L2294.05 1548.85 L2294.05 1540.7 L2278.44 1540.7 L2278.44 1536.19 L2292.82 1514.29 Z" fill="#000000" fill-rule="evenodd" fill-opacity="1" /><polyline clip-path="url(#clip022)" style="stroke:#000000; stroke-linecap:butt; stroke-linejoin:round; stroke-width:2; stroke-opacity:0.1; fill:none" points="
  172.015,1447.87 2352.76,1447.87 
  "/>
<polyline clip-path="url(#clip022)" style="stroke:#000000; stroke-linecap:butt; stroke-linejoin:round; stroke-width:2; stroke-opacity:0.1; fill:none" points="
  172.015,1179.99 2352.76,1179.99 
  "/>
<polyline clip-path="url(#clip022)" style="stroke:#000000; stroke-linecap:butt; stroke-linejoin:round; stroke-width:2; stroke-opacity:0.1; fill:none" points="
  172.015,912.112 2352.76,912.112 
  "/>
<polyline clip-path="url(#clip022)" style="stroke:#000000; stroke-linecap:butt; stroke-linejoin:round; stroke-width:2; stroke-opacity:0.1; fill:none" points="
  172.015,644.232 2352.76,644.232 
  "/>
<polyline clip-path="url(#clip022)" style="stroke:#000000; stroke-linecap:butt; stroke-linejoin:round; stroke-width:2; stroke-opacity:0.1; fill:none" points="
  172.015,376.351 2352.76,376.351 
  "/>
<polyline clip-path="url(#clip020)" style="stroke:#000000; stroke-linecap:butt; stroke-linejoin:round; stroke-width:4; stroke-opacity:1; fill:none" points="
  172.015,1486.45 172.015,123.472 
  "/>
<polyline clip-path="url(#clip020)" style="stroke:#000000; stroke-linecap:butt; stroke-linejoin:round; stroke-width:4; stroke-opacity:1; fill:none" points="
  172.015,1447.87 190.912,1447.87 
  "/>
<polyline clip-path="url(#clip020)" style="stroke:#000000; stroke-linecap:butt; stroke-linejoin:round; stroke-width:4; stroke-opacity:1; fill:none" points="
  172.015,1179.99 190.912,1179.99 
  "/>
<polyline clip-path="url(#clip020)" style="stroke:#000000; stroke-linecap:butt; stroke-linejoin:round; stroke-width:4; stroke-opacity:1; fill:none" points="
  172.015,912.112 190.912,912.112 
  "/>
<polyline clip-path="url(#clip020)" style="stroke:#000000; stroke-linecap:butt; stroke-linejoin:round; stroke-width:4; stroke-opacity:1; fill:none" points="
  172.015,644.232 190.912,644.232 
  "/>
<polyline clip-path="url(#clip020)" style="stroke:#000000; stroke-linecap:butt; stroke-linejoin:round; stroke-width:4; stroke-opacity:1; fill:none" points="
  172.015,376.351 190.912,376.351 
  "/>
<path clip-path="url(#clip020)" d="M124.07 1433.67 Q120.459 1433.67 118.631 1437.24 Q116.825 1440.78 116.825 1447.91 Q116.825 1455.01 118.631 1458.58 Q120.459 1462.12 124.07 1462.12 Q127.705 1462.12 129.51 1458.58 Q131.339 1455.01 131.339 1447.91 Q131.339 1440.78 129.51 1437.24 Q127.705 1433.67 124.07 1433.67 M124.07 1429.97 Q129.881 1429.97 132.936 1434.57 Q136.015 1439.16 136.015 1447.91 Q136.015 1456.63 132.936 1461.24 Q129.881 1465.82 124.07 1465.82 Q118.26 1465.82 115.182 1461.24 Q112.126 1456.63 112.126 1447.91 Q112.126 1439.16 115.182 1434.57 Q118.26 1429.97 124.07 1429.97 Z" fill="#000000" fill-rule="evenodd" fill-opacity="1" /><path clip-path="url(#clip020)" d="M57.7745 1193.34 L74.0939 1193.34 L74.0939 1197.27 L52.1495 1197.27 L52.1495 1193.34 Q54.8115 1190.58 59.3949 1185.95 Q64.0013 1181.3 65.1819 1179.96 Q67.4272 1177.43 68.3068 1175.7 Q69.2096 1173.94 69.2096 1172.25 Q69.2096 1169.5 67.2652 1167.76 Q65.3439 1166.02 62.2421 1166.02 Q60.043 1166.02 57.5893 1166.79 Q55.1588 1167.55 52.381 1169.1 L52.381 1164.38 Q55.2051 1163.25 57.6588 1162.67 Q60.1124 1162.09 62.1495 1162.09 Q67.5198 1162.09 70.7142 1164.77 Q73.9087 1167.46 73.9087 1171.95 Q73.9087 1174.08 73.0985 1176 Q72.3115 1177.9 70.205 1180.49 Q69.6263 1181.16 66.5245 1184.38 Q63.4226 1187.57 57.7745 1193.34 Z" fill="#000000" fill-rule="evenodd" fill-opacity="1" /><path clip-path="url(#clip020)" d="M93.9086 1165.79 Q90.2975 1165.79 88.4688 1169.36 Q86.6632 1172.9 86.6632 1180.03 Q86.6632 1187.13 88.4688 1190.7 Q90.2975 1194.24 93.9086 1194.24 Q97.5428 1194.24 99.3483 1190.7 Q101.177 1187.13 101.177 1180.03 Q101.177 1172.9 99.3483 1169.36 Q97.5428 1165.79 93.9086 1165.79 M93.9086 1162.09 Q99.7187 1162.09 102.774 1166.69 Q105.853 1171.28 105.853 1180.03 Q105.853 1188.75 102.774 1193.36 Q99.7187 1197.94 93.9086 1197.94 Q88.0984 1197.94 85.0197 1193.36 Q81.9642 1188.75 81.9642 1180.03 Q81.9642 1171.28 85.0197 1166.69 Q88.0984 1162.09 93.9086 1162.09 Z" fill="#000000" fill-rule="evenodd" fill-opacity="1" /><path clip-path="url(#clip020)" d="M124.07 1165.79 Q120.459 1165.79 118.631 1169.36 Q116.825 1172.9 116.825 1180.03 Q116.825 1187.13 118.631 1190.7 Q120.459 1194.24 124.07 1194.24 Q127.705 1194.24 129.51 1190.7 Q131.339 1187.13 131.339 1180.03 Q131.339 1172.9 129.51 1169.36 Q127.705 1165.79 124.07 1165.79 M124.07 1162.09 Q129.881 1162.09 132.936 1166.69 Q136.015 1171.28 136.015 1180.03 Q136.015 1188.75 132.936 1193.36 Q129.881 1197.94 124.07 1197.94 Q118.26 1197.94 115.182 1193.36 Q112.126 1188.75 112.126 1180.03 Q112.126 1171.28 115.182 1166.69 Q118.26 1162.09 124.07 1162.09 Z" fill="#000000" fill-rule="evenodd" fill-opacity="1" /><path clip-path="url(#clip020)" d="M66.5939 898.906 L54.7884 917.355 L66.5939 917.355 L66.5939 898.906 M65.367 894.832 L71.2466 894.832 L71.2466 917.355 L76.1772 917.355 L76.1772 921.244 L71.2466 921.244 L71.2466 929.392 L66.5939 929.392 L66.5939 921.244 L50.9921 921.244 L50.9921 916.73 L65.367 894.832 Z" fill="#000000" fill-rule="evenodd" fill-opacity="1" /><path clip-path="url(#clip020)" d="M93.9086 897.911 Q90.2975 897.911 88.4688 901.476 Q86.6632 905.017 86.6632 912.147 Q86.6632 919.253 88.4688 922.818 Q90.2975 926.36 93.9086 926.36 Q97.5428 926.36 99.3483 922.818 Q101.177 919.253 101.177 912.147 Q101.177 905.017 99.3483 901.476 Q97.5428 897.911 93.9086 897.911 M93.9086 894.207 Q99.7187 894.207 102.774 898.814 Q105.853 903.397 105.853 912.147 Q105.853 920.874 102.774 925.48 Q99.7187 930.063 93.9086 930.063 Q88.0984 930.063 85.0197 925.48 Q81.9642 920.874 81.9642 912.147 Q81.9642 903.397 85.0197 898.814 Q88.0984 894.207 93.9086 894.207 Z" fill="#000000" fill-rule="evenodd" fill-opacity="1" /><path clip-path="url(#clip020)" d="M124.07 897.911 Q120.459 897.911 118.631 901.476 Q116.825 905.017 116.825 912.147 Q116.825 919.253 118.631 922.818 Q120.459 926.36 124.07 926.36 Q127.705 926.36 129.51 922.818 Q131.339 919.253 131.339 912.147 Q131.339 905.017 129.51 901.476 Q127.705 897.911 124.07 897.911 M124.07 894.207 Q129.881 894.207 132.936 898.814 Q136.015 903.397 136.015 912.147 Q136.015 920.874 132.936 925.48 Q129.881 930.063 124.07 930.063 Q118.26 930.063 115.182 925.48 Q112.126 920.874 112.126 912.147 Q112.126 903.397 115.182 898.814 Q118.26 894.207 124.07 894.207 Z" fill="#000000" fill-rule="evenodd" fill-opacity="1" /><path clip-path="url(#clip020)" d="M64.3254 642.368 Q61.1773 642.368 59.3254 644.521 Q57.4967 646.674 57.4967 650.424 Q57.4967 654.151 59.3254 656.327 Q61.1773 658.479 64.3254 658.479 Q67.4735 658.479 69.3022 656.327 Q71.1541 654.151 71.1541 650.424 Q71.1541 646.674 69.3022 644.521 Q67.4735 642.368 64.3254 642.368 M73.6077 627.716 L73.6077 631.975 Q71.8485 631.142 70.0429 630.702 Q68.2606 630.262 66.5013 630.262 Q61.8717 630.262 59.418 633.387 Q56.9875 636.512 56.6402 642.831 Q58.006 640.817 60.0662 639.753 Q62.1263 638.665 64.6032 638.665 Q69.8115 638.665 72.8207 641.836 Q75.8531 644.984 75.8531 650.424 Q75.8531 655.748 72.705 658.965 Q69.5568 662.183 64.3254 662.183 Q58.33 662.183 55.1588 657.6 Q51.9875 652.993 51.9875 644.266 Q51.9875 636.072 55.8764 631.211 Q59.7652 626.327 66.3161 626.327 Q68.0754 626.327 69.8578 626.674 Q71.6633 627.021 73.6077 627.716 Z" fill="#000000" fill-rule="evenodd" fill-opacity="1" /><path clip-path="url(#clip020)" d="M93.9086 630.03 Q90.2975 630.03 88.4688 633.595 Q86.6632 637.137 86.6632 644.266 Q86.6632 651.373 88.4688 654.938 Q90.2975 658.479 93.9086 658.479 Q97.5428 658.479 99.3483 654.938 Q101.177 651.373 101.177 644.266 Q101.177 637.137 99.3483 633.595 Q97.5428 630.03 93.9086 630.03 M93.9086 626.327 Q99.7187 626.327 102.774 630.933 Q105.853 635.516 105.853 644.266 Q105.853 652.993 102.774 657.6 Q99.7187 662.183 93.9086 662.183 Q88.0984 662.183 85.0197 657.6 Q81.9642 652.993 81.9642 644.266 Q81.9642 635.516 85.0197 630.933 Q88.0984 626.327 93.9086 626.327 Z" fill="#000000" fill-rule="evenodd" fill-opacity="1" /><path clip-path="url(#clip020)" d="M124.07 630.03 Q120.459 630.03 118.631 633.595 Q116.825 637.137 116.825 644.266 Q116.825 651.373 118.631 654.938 Q120.459 658.479 124.07 658.479 Q127.705 658.479 129.51 654.938 Q131.339 651.373 131.339 644.266 Q131.339 637.137 129.51 633.595 Q127.705 630.03 124.07 630.03 M124.07 626.327 Q129.881 626.327 132.936 630.933 Q136.015 635.516 136.015 644.266 Q136.015 652.993 132.936 657.6 Q129.881 662.183 124.07 662.183 Q118.26 662.183 115.182 657.6 Q112.126 652.993 112.126 644.266 Q112.126 635.516 115.182 630.933 Q118.26 626.327 124.07 626.327 Z" fill="#000000" fill-rule="evenodd" fill-opacity="1" /><path clip-path="url(#clip020)" d="M63.7467 377.219 Q60.4134 377.219 58.4921 379.002 Q56.5939 380.784 56.5939 383.909 Q56.5939 387.034 58.4921 388.816 Q60.4134 390.599 63.7467 390.599 Q67.08 390.599 69.0013 388.816 Q70.9226 387.011 70.9226 383.909 Q70.9226 380.784 69.0013 379.002 Q67.1032 377.219 63.7467 377.219 M59.0708 375.229 Q56.0615 374.488 54.3717 372.428 Q52.7051 370.368 52.7051 367.405 Q52.7051 363.261 55.6449 360.854 Q58.6078 358.446 63.7467 358.446 Q68.9087 358.446 71.8485 360.854 Q74.7883 363.261 74.7883 367.405 Q74.7883 370.368 73.0985 372.428 Q71.4318 374.488 68.4457 375.229 Q71.8253 376.016 73.7003 378.307 Q75.5985 380.599 75.5985 383.909 Q75.5985 388.932 72.5198 391.617 Q69.4642 394.303 63.7467 394.303 Q58.0291 394.303 54.9504 391.617 Q51.8949 388.932 51.8949 383.909 Q51.8949 380.599 53.793 378.307 Q55.6912 376.016 59.0708 375.229 M57.3578 367.844 Q57.3578 370.53 59.0245 372.034 Q60.7143 373.539 63.7467 373.539 Q66.7559 373.539 68.4457 372.034 Q70.1587 370.53 70.1587 367.844 Q70.1587 365.159 68.4457 363.655 Q66.7559 362.15 63.7467 362.15 Q60.7143 362.15 59.0245 363.655 Q57.3578 365.159 57.3578 367.844 Z" fill="#000000" fill-rule="evenodd" fill-opacity="1" /><path clip-path="url(#clip020)" d="M93.9086 362.15 Q90.2975 362.15 88.4688 365.715 Q86.6632 369.256 86.6632 376.386 Q86.6632 383.492 88.4688 387.057 Q90.2975 390.599 93.9086 390.599 Q97.5428 390.599 99.3483 387.057 Q101.177 383.492 101.177 376.386 Q101.177 369.256 99.3483 365.715 Q97.5428 362.15 93.9086 362.15 M93.9086 358.446 Q99.7187 358.446 102.774 363.053 Q105.853 367.636 105.853 376.386 Q105.853 385.113 102.774 389.719 Q99.7187 394.303 93.9086 394.303 Q88.0984 394.303 85.0197 389.719 Q81.9642 385.113 81.9642 376.386 Q81.9642 367.636 85.0197 363.053 Q88.0984 358.446 93.9086 358.446 Z" fill="#000000" fill-rule="evenodd" fill-opacity="1" /><path clip-path="url(#clip020)" d="M124.07 362.15 Q120.459 362.15 118.631 365.715 Q116.825 369.256 116.825 376.386 Q116.825 383.492 118.631 387.057 Q120.459 390.599 124.07 390.599 Q127.705 390.599 129.51 387.057 Q131.339 383.492 131.339 376.386 Q131.339 369.256 129.51 365.715 Q127.705 362.15 124.07 362.15 M124.07 358.446 Q129.881 358.446 132.936 363.053 Q136.015 367.636 136.015 376.386 Q136.015 385.113 132.936 389.719 Q129.881 394.303 124.07 394.303 Q118.26 394.303 115.182 389.719 Q112.126 385.113 112.126 376.386 Q112.126 367.636 115.182 363.053 Q118.26 358.446 124.07 358.446 Z" fill="#000000" fill-rule="evenodd" fill-opacity="1" /><path clip-path="url(#clip020)" d="M631.092 18.8205 L631.092 65.8515 L640.977 65.8515 Q653.494 65.8515 659.287 60.1802 Q665.12 54.509 665.12 42.2752 Q665.12 30.1225 659.287 24.4918 Q653.494 18.8205 640.977 18.8205 L631.092 18.8205 M622.91 12.096 L639.721 12.096 Q657.302 12.096 665.525 19.4281 Q673.748 26.7198 673.748 42.2752 Q673.748 57.9117 665.485 65.2439 Q657.221 72.576 639.721 72.576 L622.91 72.576 L622.91 12.096 Z" fill="#000000" fill-rule="evenodd" fill-opacity="1" /><path clip-path="url(#clip020)" d="M707.087 49.7694 Q698.054 49.7694 694.57 51.8354 Q691.086 53.9013 691.086 58.8839 Q691.086 62.8538 693.679 65.2034 Q696.312 67.5124 700.809 67.5124 Q707.006 67.5124 710.733 63.1374 Q714.501 58.7219 714.501 51.4303 L714.501 49.7694 L707.087 49.7694 M721.954 46.6907 L721.954 72.576 L714.501 72.576 L714.501 65.6895 Q711.948 69.8214 708.141 71.8063 Q704.333 73.7508 698.824 73.7508 Q691.856 73.7508 687.724 69.8619 Q683.633 65.9325 683.633 59.3701 Q683.633 51.7138 688.737 47.825 Q693.881 43.9361 704.049 43.9361 L714.501 43.9361 L714.501 43.2069 Q714.501 38.0623 711.098 35.2672 Q707.736 32.4315 701.619 32.4315 Q697.73 32.4315 694.044 33.3632 Q690.357 34.295 686.954 36.1584 L686.954 29.2718 Q691.046 27.692 694.894 26.9223 Q698.743 26.1121 702.388 26.1121 Q712.232 26.1121 717.093 31.2163 Q721.954 36.3204 721.954 46.6907 Z" fill="#000000" fill-rule="evenodd" fill-opacity="1" /><path clip-path="url(#clip020)" d="M744.68 14.324 L744.68 27.2059 L760.033 27.2059 L760.033 32.9987 L744.68 32.9987 L744.68 57.6282 Q744.68 63.1779 746.179 64.7578 Q747.718 66.3376 752.377 66.3376 L760.033 66.3376 L760.033 72.576 L752.377 72.576 Q743.748 72.576 740.467 69.3758 Q737.186 66.1351 737.186 57.6282 L737.186 32.9987 L731.717 32.9987 L731.717 27.2059 L737.186 27.2059 L737.186 14.324 L744.68 14.324 Z" fill="#000000" fill-rule="evenodd" fill-opacity="1" /><path clip-path="url(#clip020)" d="M790.455 49.7694 Q781.422 49.7694 777.938 51.8354 Q774.454 53.9013 774.454 58.8839 Q774.454 62.8538 777.047 65.2034 Q779.68 67.5124 784.176 67.5124 Q790.374 67.5124 794.101 63.1374 Q797.868 58.7219 797.868 51.4303 L797.868 49.7694 L790.455 49.7694 M805.322 46.6907 L805.322 72.576 L797.868 72.576 L797.868 65.6895 Q795.316 69.8214 791.508 71.8063 Q787.7 73.7508 782.191 73.7508 Q775.224 73.7508 771.092 69.8619 Q767 65.9325 767 59.3701 Q767 51.7138 772.104 47.825 Q777.249 43.9361 787.417 43.9361 L797.868 43.9361 L797.868 43.2069 Q797.868 38.0623 794.465 35.2672 Q791.103 32.4315 784.986 32.4315 Q781.097 32.4315 777.411 33.3632 Q773.725 34.295 770.322 36.1584 L770.322 29.2718 Q774.413 27.692 778.262 26.9223 Q782.11 26.1121 785.756 26.1121 Q795.6 26.1121 800.461 31.2163 Q805.322 36.3204 805.322 46.6907 Z" fill="#000000" fill-rule="evenodd" fill-opacity="1" /><path clip-path="url(#clip020)" d="M867.665 49.7694 Q858.632 49.7694 855.148 51.8354 Q851.664 53.9013 851.664 58.8839 Q851.664 62.8538 854.257 65.2034 Q856.89 67.5124 861.386 67.5124 Q867.584 67.5124 871.311 63.1374 Q875.078 58.7219 875.078 51.4303 L875.078 49.7694 L867.665 49.7694 M882.532 46.6907 L882.532 72.576 L875.078 72.576 L875.078 65.6895 Q872.526 69.8214 868.718 71.8063 Q864.911 73.7508 859.401 73.7508 Q852.434 73.7508 848.302 69.8619 Q844.211 65.9325 844.211 59.3701 Q844.211 51.7138 849.315 47.825 Q854.459 43.9361 864.627 43.9361 L875.078 43.9361 L875.078 43.2069 Q875.078 38.0623 871.676 35.2672 Q868.313 32.4315 862.197 32.4315 Q858.308 32.4315 854.621 33.3632 Q850.935 34.295 847.532 36.1584 L847.532 29.2718 Q851.624 27.692 855.472 26.9223 Q859.32 26.1121 862.966 26.1121 Q872.81 26.1121 877.671 31.2163 Q882.532 36.3204 882.532 46.6907 Z" fill="#000000" fill-rule="evenodd" fill-opacity="1" /><path clip-path="url(#clip020)" d="M935.599 45.1919 L935.599 72.576 L928.145 72.576 L928.145 45.4349 Q928.145 38.994 925.634 35.7938 Q923.122 32.5936 918.099 32.5936 Q912.063 32.5936 908.579 36.4419 Q905.096 40.2903 905.096 46.9338 L905.096 72.576 L897.601 72.576 L897.601 27.2059 L905.096 27.2059 L905.096 34.2544 Q907.769 30.163 911.375 28.1376 Q915.02 26.1121 919.76 26.1121 Q927.578 26.1121 931.589 30.9732 Q935.599 35.7938 935.599 45.1919 Z" fill="#000000" fill-rule="evenodd" fill-opacity="1" /><path clip-path="url(#clip020)" d="M980.321 34.0924 L980.321 9.54393 L987.775 9.54393 L987.775 72.576 L980.321 72.576 L980.321 65.7705 Q977.971 69.8214 974.366 71.8063 Q970.801 73.7508 965.778 73.7508 Q957.555 73.7508 952.37 67.1883 Q947.225 60.6258 947.225 49.9314 Q947.225 39.2371 952.37 32.6746 Q957.555 26.1121 965.778 26.1121 Q970.801 26.1121 974.366 28.0971 Q977.971 30.0415 980.321 34.0924 M954.922 49.9314 Q954.922 58.1548 958.284 62.8538 Q961.687 67.5124 967.601 67.5124 Q973.515 67.5124 976.918 62.8538 Q980.321 58.1548 980.321 49.9314 Q980.321 41.7081 976.918 37.0496 Q973.515 32.3505 967.601 32.3505 Q961.687 32.3505 958.284 37.0496 Q954.922 41.7081 954.922 49.9314 Z" fill="#000000" fill-rule="evenodd" fill-opacity="1" /><path clip-path="url(#clip020)" d="M1021.44 12.096 L1072.6 12.096 L1072.6 18.9825 L1051.13 18.9825 L1051.13 72.576 L1042.91 72.576 L1042.91 18.9825 L1021.44 18.9825 L1021.44 12.096 Z" fill="#000000" fill-rule="evenodd" fill-opacity="1" /><path clip-path="url(#clip020)" d="M1094.27 34.1734 Q1093.02 33.4443 1091.52 33.1202 Q1090.06 32.7556 1088.28 32.7556 Q1081.96 32.7556 1078.56 36.8875 Q1075.19 40.9789 1075.19 48.6757 L1075.19 72.576 L1067.7 72.576 L1067.7 27.2059 L1075.19 27.2059 L1075.19 34.2544 Q1077.54 30.1225 1081.31 28.1376 Q1085.08 26.1121 1090.46 26.1121 Q1091.23 26.1121 1092.17 26.2337 Q1093.1 26.3147 1094.23 26.5172 L1094.27 34.1734 Z" fill="#000000" fill-rule="evenodd" fill-opacity="1" /><path clip-path="url(#clip020)" d="M1101.32 54.671 L1101.32 27.2059 L1108.78 27.2059 L1108.78 54.3874 Q1108.78 60.8284 1111.29 64.0691 Q1113.8 67.2693 1118.82 67.2693 Q1124.86 67.2693 1128.34 63.421 Q1131.87 59.5726 1131.87 52.9291 L1131.87 27.2059 L1139.32 27.2059 L1139.32 72.576 L1131.87 72.576 L1131.87 65.6084 Q1129.15 69.7404 1125.55 71.7658 Q1121.98 73.7508 1117.24 73.7508 Q1109.42 73.7508 1105.37 68.8897 Q1101.32 64.0286 1101.32 54.671 M1120.08 26.1121 L1120.08 26.1121 Z" fill="#000000" fill-rule="evenodd" fill-opacity="1" /><path clip-path="url(#clip020)" d="M1193.48 48.0275 L1193.48 51.6733 L1159.21 51.6733 Q1159.69 59.3701 1163.83 63.421 Q1168 67.4314 1175.41 67.4314 Q1179.71 67.4314 1183.72 66.3781 Q1187.77 65.3249 1191.74 63.2184 L1191.74 70.267 Q1187.73 71.9684 1183.51 72.8596 Q1179.3 73.7508 1174.97 73.7508 Q1164.11 73.7508 1157.75 67.4314 Q1151.43 61.1119 1151.43 50.3365 Q1151.43 39.1965 1157.43 32.6746 Q1163.46 26.1121 1173.67 26.1121 Q1182.83 26.1121 1188.13 32.0264 Q1193.48 37.9003 1193.48 48.0275 M1186.03 45.84 Q1185.94 39.7232 1182.58 36.0774 Q1179.26 32.4315 1173.75 32.4315 Q1167.51 32.4315 1163.75 35.9558 Q1160.02 39.4801 1159.45 45.8805 L1186.03 45.84 Z" fill="#000000" fill-rule="evenodd" fill-opacity="1" /><path clip-path="url(#clip020)" d="M1268.66 14.0809 L1268.66 22.0612 Q1264.01 19.8332 1259.87 18.7395 Q1255.74 17.6457 1251.89 17.6457 Q1245.21 17.6457 1241.56 20.2383 Q1237.96 22.8309 1237.96 27.611 Q1237.96 31.6214 1240.35 33.6873 Q1242.78 35.7128 1249.5 36.9686 L1254.45 37.9813 Q1263.6 39.7232 1267.94 44.1387 Q1272.31 48.5136 1272.31 55.8863 Q1272.31 64.6767 1266.4 69.2137 Q1260.52 73.7508 1249.14 73.7508 Q1244.84 73.7508 1239.98 72.7785 Q1235.16 71.8063 1229.98 69.9024 L1229.98 61.4765 Q1234.96 64.2716 1239.74 65.6895 Q1244.52 67.1073 1249.14 67.1073 Q1256.15 67.1073 1259.95 64.3527 Q1263.76 61.598 1263.76 56.4939 Q1263.76 52.0379 1261.01 49.5264 Q1258.29 47.0148 1252.06 45.759 L1247.07 44.7868 Q1237.92 42.9639 1233.83 39.075 Q1229.74 35.1862 1229.74 28.2591 Q1229.74 20.2383 1235.37 15.6203 Q1241.04 11.0023 1250.96 11.0023 Q1255.22 11.0023 1259.63 11.7719 Q1264.05 12.5416 1268.66 14.0809 Z" fill="#000000" fill-rule="evenodd" fill-opacity="1" /><path clip-path="url(#clip020)" d="M1292.12 14.324 L1292.12 27.2059 L1307.47 27.2059 L1307.47 32.9987 L1292.12 32.9987 L1292.12 57.6282 Q1292.12 63.1779 1293.62 64.7578 Q1295.16 66.3376 1299.82 66.3376 L1307.47 66.3376 L1307.47 72.576 L1299.82 72.576 Q1291.19 72.576 1287.91 69.3758 Q1284.62 66.1351 1284.62 57.6282 L1284.62 32.9987 L1279.16 32.9987 L1279.16 27.2059 L1284.62 27.2059 L1284.62 14.324 L1292.12 14.324 Z" fill="#000000" fill-rule="evenodd" fill-opacity="1" /><path clip-path="url(#clip020)" d="M1337.89 49.7694 Q1328.86 49.7694 1325.38 51.8354 Q1321.89 53.9013 1321.89 58.8839 Q1321.89 62.8538 1324.49 65.2034 Q1327.12 67.5124 1331.62 67.5124 Q1337.81 67.5124 1341.54 63.1374 Q1345.31 58.7219 1345.31 51.4303 L1345.31 49.7694 L1337.89 49.7694 M1352.76 46.6907 L1352.76 72.576 L1345.31 72.576 L1345.31 65.6895 Q1342.76 69.8214 1338.95 71.8063 Q1335.14 73.7508 1329.63 73.7508 Q1322.66 73.7508 1318.53 69.8619 Q1314.44 65.9325 1314.44 59.3701 Q1314.44 51.7138 1319.54 47.825 Q1324.69 43.9361 1334.86 43.9361 L1345.31 43.9361 L1345.31 43.2069 Q1345.31 38.0623 1341.9 35.2672 Q1338.54 32.4315 1332.43 32.4315 Q1328.54 32.4315 1324.85 33.3632 Q1321.16 34.295 1317.76 36.1584 L1317.76 29.2718 Q1321.85 27.692 1325.7 26.9223 Q1329.55 26.1121 1333.2 26.1121 Q1343.04 26.1121 1347.9 31.2163 Q1352.76 36.3204 1352.76 46.6907 Z" fill="#000000" fill-rule="evenodd" fill-opacity="1" /><path clip-path="url(#clip020)" d="M1375.49 14.324 L1375.49 27.2059 L1390.84 27.2059 L1390.84 32.9987 L1375.49 32.9987 L1375.49 57.6282 Q1375.49 63.1779 1376.99 64.7578 Q1378.52 66.3376 1383.18 66.3376 L1390.84 66.3376 L1390.84 72.576 L1383.18 72.576 Q1374.55 72.576 1371.27 69.3758 Q1367.99 66.1351 1367.99 57.6282 L1367.99 32.9987 L1362.52 32.9987 L1362.52 27.2059 L1367.99 27.2059 L1367.99 14.324 L1375.49 14.324 Z" fill="#000000" fill-rule="evenodd" fill-opacity="1" /><path clip-path="url(#clip020)" d="M1400.64 27.2059 L1408.1 27.2059 L1408.1 72.576 L1400.64 72.576 L1400.64 27.2059 M1400.64 9.54393 L1408.1 9.54393 L1408.1 18.9825 L1400.64 18.9825 L1400.64 9.54393 Z" fill="#000000" fill-rule="evenodd" fill-opacity="1" /><path clip-path="url(#clip020)" d="M1452.62 28.5427 L1452.62 35.5912 Q1449.46 33.9709 1446.05 33.1607 Q1442.65 32.3505 1439 32.3505 Q1433.46 32.3505 1430.66 34.0519 Q1427.91 35.7533 1427.91 39.156 Q1427.91 41.7486 1429.89 43.2475 Q1431.88 44.7058 1437.87 46.0426 L1440.42 46.6097 Q1448.36 48.3111 1451.68 51.4303 Q1455.05 54.509 1455.05 60.0587 Q1455.05 66.3781 1450.02 70.0644 Q1445.04 73.7508 1436.29 73.7508 Q1432.64 73.7508 1428.67 73.0216 Q1424.75 72.3329 1420.37 70.9151 L1420.37 63.2184 Q1424.5 65.3654 1428.51 66.4591 Q1432.52 67.5124 1436.45 67.5124 Q1441.72 67.5124 1444.55 65.73 Q1447.39 63.9071 1447.39 60.6258 Q1447.39 57.5877 1445.32 55.9673 Q1443.3 54.3469 1436.37 52.8481 L1433.78 52.2405 Q1426.85 50.7821 1423.77 47.7845 Q1420.69 44.7463 1420.69 39.4801 Q1420.69 33.0797 1425.23 29.5959 Q1429.77 26.1121 1438.11 26.1121 Q1442.25 26.1121 1445.89 26.7198 Q1449.54 27.3274 1452.62 28.5427 Z" fill="#000000" fill-rule="evenodd" fill-opacity="1" /><path clip-path="url(#clip020)" d="M1474.29 14.324 L1474.29 27.2059 L1489.64 27.2059 L1489.64 32.9987 L1474.29 32.9987 L1474.29 57.6282 Q1474.29 63.1779 1475.79 64.7578 Q1477.33 66.3376 1481.98 66.3376 L1489.64 66.3376 L1489.64 72.576 L1481.98 72.576 Q1473.36 72.576 1470.08 69.3758 Q1466.79 66.1351 1466.79 57.6282 L1466.79 32.9987 L1461.33 32.9987 L1461.33 27.2059 L1466.79 27.2059 L1466.79 14.324 L1474.29 14.324 Z" fill="#000000" fill-rule="evenodd" fill-opacity="1" /><path clip-path="url(#clip020)" d="M1499.44 27.2059 L1506.9 27.2059 L1506.9 72.576 L1499.44 72.576 L1499.44 27.2059 M1499.44 9.54393 L1506.9 9.54393 L1506.9 18.9825 L1499.44 18.9825 L1499.44 9.54393 Z" fill="#000000" fill-rule="evenodd" fill-opacity="1" /><path clip-path="url(#clip020)" d="M1555.14 28.9478 L1555.14 35.9153 Q1551.98 34.1734 1548.78 33.3227 Q1545.62 32.4315 1542.38 32.4315 Q1535.13 32.4315 1531.12 37.0496 Q1527.11 41.6271 1527.11 49.9314 Q1527.11 58.2358 1531.12 62.8538 Q1535.13 67.4314 1542.38 67.4314 Q1545.62 67.4314 1548.78 66.5807 Q1551.98 65.6895 1555.14 63.9476 L1555.14 70.8341 Q1552.03 72.2924 1548.66 73.0216 Q1545.34 73.7508 1541.57 73.7508 Q1531.32 73.7508 1525.29 67.3098 Q1519.25 60.8689 1519.25 49.9314 Q1519.25 38.832 1525.33 32.472 Q1531.45 26.1121 1542.06 26.1121 Q1545.5 26.1121 1548.78 26.8413 Q1552.07 27.5299 1555.14 28.9478 Z" fill="#000000" fill-rule="evenodd" fill-opacity="1" /><path clip-path="url(#clip020)" d="M1588.73 49.7694 Q1579.69 49.7694 1576.21 51.8354 Q1572.73 53.9013 1572.73 58.8839 Q1572.73 62.8538 1575.32 65.2034 Q1577.95 67.5124 1582.45 67.5124 Q1588.65 67.5124 1592.37 63.1374 Q1596.14 58.7219 1596.14 51.4303 L1596.14 49.7694 L1588.73 49.7694 M1603.59 46.6907 L1603.59 72.576 L1596.14 72.576 L1596.14 65.6895 Q1593.59 69.8214 1589.78 71.8063 Q1585.97 73.7508 1580.46 73.7508 Q1573.49 73.7508 1569.36 69.8619 Q1565.27 65.9325 1565.27 59.3701 Q1565.27 51.7138 1570.38 47.825 Q1575.52 43.9361 1585.69 43.9361 L1596.14 43.9361 L1596.14 43.2069 Q1596.14 38.0623 1592.74 35.2672 Q1589.37 32.4315 1583.26 32.4315 Q1579.37 32.4315 1575.68 33.3632 Q1572 34.295 1568.59 36.1584 L1568.59 29.2718 Q1572.68 27.692 1576.53 26.9223 Q1580.38 26.1121 1584.03 26.1121 Q1593.87 26.1121 1598.73 31.2163 Q1603.59 36.3204 1603.59 46.6907 Z" fill="#000000" fill-rule="evenodd" fill-opacity="1" /><path clip-path="url(#clip020)" d="M1618.95 9.54393 L1626.4 9.54393 L1626.4 72.576 L1618.95 72.576 L1618.95 9.54393 Z" fill="#000000" fill-rule="evenodd" fill-opacity="1" /><path clip-path="url(#clip020)" d="M1668.69 12.096 L1680.88 12.096 L1696.32 53.2532 L1711.83 12.096 L1724.03 12.096 L1724.03 72.576 L1716.05 72.576 L1716.05 19.4686 L1700.45 60.9499 L1692.23 60.9499 L1676.63 19.4686 L1676.63 72.576 L1668.69 72.576 L1668.69 12.096 Z" fill="#000000" fill-rule="evenodd" fill-opacity="1" /><path clip-path="url(#clip020)" d="M1757.53 32.4315 Q1751.53 32.4315 1748.05 37.1306 Q1744.56 41.7891 1744.56 49.9314 Q1744.56 58.0738 1748.01 62.7728 Q1751.49 67.4314 1757.53 67.4314 Q1763.48 67.4314 1766.97 62.7323 Q1770.45 58.0333 1770.45 49.9314 Q1770.45 41.8701 1766.97 37.1711 Q1763.48 32.4315 1757.53 32.4315 M1757.53 26.1121 Q1767.25 26.1121 1772.8 32.4315 Q1778.35 38.7509 1778.35 49.9314 Q1778.35 61.0714 1772.8 67.4314 Q1767.25 73.7508 1757.53 73.7508 Q1747.76 73.7508 1742.21 67.4314 Q1736.71 61.0714 1736.71 49.9314 Q1736.71 38.7509 1742.21 32.4315 Q1747.76 26.1121 1757.53 26.1121 Z" fill="#000000" fill-rule="evenodd" fill-opacity="1" /><path clip-path="url(#clip020)" d="M1820.56 34.0924 L1820.56 9.54393 L1828.01 9.54393 L1828.01 72.576 L1820.56 72.576 L1820.56 65.7705 Q1818.21 69.8214 1814.6 71.8063 Q1811.04 73.7508 1806.02 73.7508 Q1797.79 73.7508 1792.61 67.1883 Q1787.46 60.6258 1787.46 49.9314 Q1787.46 39.2371 1792.61 32.6746 Q1797.79 26.1121 1806.02 26.1121 Q1811.04 26.1121 1814.6 28.0971 Q1818.21 30.0415 1820.56 34.0924 M1795.16 49.9314 Q1795.16 58.1548 1798.52 62.8538 Q1801.93 67.5124 1807.84 67.5124 Q1813.75 67.5124 1817.16 62.8538 Q1820.56 58.1548 1820.56 49.9314 Q1820.56 41.7081 1817.16 37.0496 Q1813.75 32.3505 1807.84 32.3505 Q1801.93 32.3505 1798.52 37.0496 Q1795.16 41.7081 1795.16 49.9314 Z" fill="#000000" fill-rule="evenodd" fill-opacity="1" /><path clip-path="url(#clip020)" d="M1882.17 48.0275 L1882.17 51.6733 L1847.9 51.6733 Q1848.39 59.3701 1852.52 63.421 Q1856.69 67.4314 1864.11 67.4314 Q1868.4 67.4314 1872.41 66.3781 Q1876.46 65.3249 1880.43 63.2184 L1880.43 70.267 Q1876.42 71.9684 1872.21 72.8596 Q1868 73.7508 1863.66 73.7508 Q1852.8 73.7508 1846.44 67.4314 Q1840.13 61.1119 1840.13 50.3365 Q1840.13 39.1965 1846.12 32.6746 Q1852.16 26.1121 1862.36 26.1121 Q1871.52 26.1121 1876.83 32.0264 Q1882.17 37.9003 1882.17 48.0275 M1874.72 45.84 Q1874.64 39.7232 1871.28 36.0774 Q1867.96 32.4315 1862.45 32.4315 Q1856.21 32.4315 1852.44 35.9558 Q1848.71 39.4801 1848.15 45.8805 L1874.72 45.84 Z" fill="#000000" fill-rule="evenodd" fill-opacity="1" /><path clip-path="url(#clip020)" d="M1894.41 9.54393 L1901.86 9.54393 L1901.86 72.576 L1894.41 72.576 L1894.41 9.54393 Z" fill="#000000" fill-rule="evenodd" fill-opacity="1" /><polyline clip-path="url(#clip022)" style="stroke:#009af9; stroke-linecap:butt; stroke-linejoin:round; stroke-width:4; stroke-opacity:1; fill:none" points="
  748.06,1447.87 748.06,1354.11 773.776,1354.11 773.776,1313.93 799.492,1313.93 799.492,1300.54 825.208,1300.54 825.208,1220.17 850.925,1220.17 850.925,1153.2 
  876.641,1153.2 876.641,1072.84 902.357,1072.84 902.357,1059.45 928.074,1059.45 928.074,938.9 953.79,938.9 953.79,952.294 979.506,952.294 979.506,992.476 
  1005.22,992.476 1005.22,885.324 1030.94,885.324 1030.94,737.99 1056.66,737.99 1056.66,1005.87 1082.37,1005.87 1082.37,1099.63 1108.09,1099.63 1108.09,1046.05 
  1133.8,1046.05 1133.8,1206.78 1159.52,1206.78 1159.52,1287.14 1185.24,1287.14 1185.24,1260.36 1210.95,1260.36 1210.95,1327.33 1236.67,1327.33 1236.67,1354.11 
  1262.39,1354.11 1262.39,1394.3 1288.1,1394.3 1313.82,1394.3 1313.82,1434.48 1339.53,1434.48 1339.53,1447.87 1365.25,1447.87 1365.25,1434.48 
  1390.97,1434.48 1416.68,1434.48 1416.68,1421.09 1442.4,1421.09 1442.4,1394.3 1468.12,1394.3 1468.12,1354.11 1493.83,1354.11 1493.83,1327.33 
  1519.55,1327.33 1519.55,1287.14 1545.26,1287.14 1545.26,1300.54 1570.98,1300.54 1570.98,1072.84 1596.7,1072.84 1596.7,938.9 1622.41,938.9 1622.41,871.93 
  1648.13,871.93 1648.13,764.778 1673.85,764.778 1673.85,550.474 1699.56,550.474 1699.56,443.321 1725.28,443.321 1725.28,162.047 1750.99,162.047 1750.99,577.262 
  1776.71,577.262 1776.71,470.109 1802.43,470.109 1802.43,362.957 1828.14,362.957 1828.14,537.08 1853.86,537.08 1853.86,456.715 1879.58,456.715 1879.58,885.324 
  1905.29,885.324 1905.29,979.082 1931.01,979.082 1931.01,992.476 1956.73,992.476 1956.73,965.688 1982.44,965.688 1982.44,1246.96 2008.16,1246.96 
  2033.87,1246.96 2033.87,1327.33 2059.59,1327.33 2059.59,1407.69 2085.31,1407.69 2111.02,1407.69 2111.02,1421.09 2136.74,1421.09 2136.74,1434.48 
  2162.46,1434.48 2162.46,1447.87 2188.17,1447.87 2213.89,1447.87 2239.6,1447.87 2265.32,1447.87 
  2291.04,1447.87 
  "/>
<polyline clip-path="url(#clip022)" style="stroke:#e26f46; stroke-linecap:butt; stroke-linejoin:round; stroke-width:4; stroke-opacity:1; fill:none" points="
  233.734,1447.87 236.306,1447.87 238.877,1447.87 241.449,1447.87 244.02,1447.87 246.592,1447.87 249.164,1447.87 251.735,1447.87 254.307,1447.87 256.879,1447.87 
  259.45,1447.87 262.022,1447.87 264.593,1447.87 267.165,1447.87 269.737,1447.87 272.308,1447.87 274.88,1447.87 277.452,1447.87 280.023,1447.87 282.595,1447.87 
  285.166,1447.87 287.738,1447.87 290.31,1447.87 292.881,1447.87 295.453,1447.87 298.025,1447.87 300.596,1447.87 303.168,1447.87 305.74,1447.87 308.311,1447.87 
  310.883,1447.87 313.454,1447.87 316.026,1447.87 318.598,1447.87 321.169,1447.87 323.741,1447.87 326.313,1447.87 328.884,1447.87 331.456,1447.87 334.027,1447.87 
  336.599,1447.87 339.171,1447.87 341.742,1447.87 344.314,1447.87 346.886,1447.87 349.457,1447.87 352.029,1447.87 354.6,1447.87 357.172,1447.87 359.744,1447.87 
  362.315,1447.87 364.887,1447.87 367.459,1447.87 370.03,1447.87 372.602,1447.87 375.173,1447.87 377.745,1447.87 380.317,1447.87 382.888,1447.87 385.46,1447.87 
  388.032,1447.87 390.603,1447.87 393.175,1447.87 395.747,1447.87 398.318,1447.87 400.89,1447.86 403.461,1447.86 406.033,1447.86 408.605,1447.86 411.176,1447.86 
  413.748,1447.86 416.32,1447.86 418.891,1447.86 421.463,1447.86 424.034,1447.85 426.606,1447.85 429.178,1447.85 431.749,1447.85 434.321,1447.85 436.893,1447.84 
  439.464,1447.84 442.036,1447.84 444.607,1447.83 447.179,1447.83 449.751,1447.83 452.322,1447.82 454.894,1447.82 457.466,1447.81 460.037,1447.81 462.609,1447.8 
  465.18,1447.79 467.752,1447.79 470.324,1447.78 472.895,1447.77 475.467,1447.76 478.039,1447.75 480.61,1447.74 483.182,1447.73 485.754,1447.72 488.325,1447.71 
  490.897,1447.69 493.468,1447.68 496.04,1447.66 498.612,1447.65 501.183,1447.63 503.755,1447.61 506.327,1447.59 508.898,1447.56 511.47,1447.54 514.041,1447.51 
  516.613,1447.48 519.185,1447.45 521.756,1447.42 524.328,1447.38 526.9,1447.34 529.471,1447.3 532.043,1447.26 534.614,1447.21 537.186,1447.16 539.758,1447.11 
  542.329,1447.05 544.901,1446.99 547.473,1446.93 550.044,1446.86 552.616,1446.78 555.187,1446.7 557.759,1446.62 560.331,1446.53 562.902,1446.43 565.474,1446.33 
  568.046,1446.22 570.617,1446.11 573.189,1445.98 575.761,1445.85 578.332,1445.71 580.904,1445.57 583.475,1445.41 586.047,1445.24 588.619,1445.07 591.19,1444.88 
  593.762,1444.68 596.334,1444.47 598.905,1444.25 601.477,1444.01 604.048,1443.76 606.62,1443.5 609.192,1443.22 611.763,1442.92 614.335,1442.61 616.907,1442.28 
  619.478,1441.94 622.05,1441.57 624.621,1441.19 627.193,1440.78 629.765,1440.35 632.336,1439.9 634.908,1439.43 637.48,1438.93 640.051,1438.4 642.623,1437.85 
  645.194,1437.27 647.766,1436.66 650.338,1436.02 652.909,1435.35 655.481,1434.65 658.053,1433.92 660.624,1433.14 663.196,1432.34 665.768,1431.49 668.339,1430.61 
  670.911,1429.68 673.482,1428.71 676.054,1427.7 678.626,1426.65 681.197,1425.55 683.769,1424.4 686.341,1423.2 688.912,1421.95 691.484,1420.65 694.055,1419.29 
  696.627,1417.88 699.199,1416.41 701.77,1414.88 704.342,1413.29 706.914,1411.64 709.485,1409.93 712.057,1408.15 714.628,1406.31 717.2,1404.4 719.772,1402.41 
  722.343,1400.36 724.915,1398.23 727.487,1396.03 730.058,1393.75 732.63,1391.4 735.201,1388.96 737.773,1386.45 740.345,1383.85 742.916,1381.17 745.488,1378.41 
  748.06,1375.56 750.631,1372.62 753.203,1369.6 755.775,1366.48 758.346,1363.28 760.918,1359.99 763.489,1356.6 766.061,1353.12 768.633,1349.55 771.204,1345.89 
  773.776,1342.13 776.348,1338.27 778.919,1334.32 781.491,1330.28 784.062,1326.14 786.634,1321.9 789.206,1317.57 791.777,1313.15 794.349,1308.63 796.921,1304.01 
  799.492,1299.31 802.064,1294.51 804.635,1289.61 807.207,1284.63 809.779,1279.56 812.35,1274.4 814.922,1269.15 817.494,1263.82 820.065,1258.4 822.637,1252.9 
  825.208,1247.33 827.78,1241.67 830.352,1235.95 832.923,1230.15 835.495,1224.28 838.067,1218.34 840.638,1212.34 843.21,1206.28 845.782,1200.17 848.353,1194 
  850.925,1187.78 853.496,1181.52 856.068,1175.21 858.64,1168.87 861.211,1162.49 863.783,1156.08 866.355,1149.65 868.926,1143.2 871.498,1136.73 874.069,1130.26 
  876.641,1123.78 879.213,1117.3 881.784,1110.82 884.356,1104.35 886.928,1097.91 889.499,1091.48 892.071,1085.08 894.642,1078.71 897.214,1072.38 899.786,1066.09 
  902.357,1059.86 904.929,1053.68 907.501,1047.56 910.072,1041.51 912.644,1035.54 915.215,1029.64 917.787,1023.83 920.359,1018.11 922.93,1012.48 925.502,1006.96 
  928.074,1001.55 930.645,996.254 933.217,991.076 935.789,986.023 938.36,981.101 940.932,976.316 943.503,971.672 946.075,967.175 948.647,962.829 951.218,958.639 
  953.79,954.611 956.362,950.749 958.933,947.056 961.505,943.538 964.076,940.199 966.648,937.041 969.22,934.07 971.791,931.288 974.363,928.699 976.935,926.305 
  979.506,924.11 982.078,922.116 984.649,920.325 987.221,918.74 989.793,917.362 992.364,916.194 994.936,915.236 997.508,914.49 1000.08,913.956 1002.65,913.636 
  1005.22,913.529 1007.79,913.636 1010.37,913.956 1012.94,914.49 1015.51,915.236 1018.08,916.194 1020.65,917.362 1023.22,918.74 1025.8,920.325 1028.37,922.115 
  1030.94,924.11 1033.51,926.305 1036.08,928.698 1038.65,931.288 1041.23,934.07 1043.8,937.041 1046.37,940.199 1048.94,943.538 1051.51,947.056 1054.08,950.749 
  1056.66,954.611 1059.23,958.639 1061.8,962.829 1064.37,967.174 1066.94,971.672 1069.51,976.316 1072.08,981.101 1074.66,986.023 1077.23,991.075 1079.8,996.253 
  1082.37,1001.55 1084.94,1006.96 1087.51,1012.48 1090.09,1018.11 1092.66,1023.83 1095.23,1029.64 1097.8,1035.54 1100.37,1041.51 1102.94,1047.56 1105.52,1053.68 
  1108.09,1059.86 1110.66,1066.09 1113.23,1072.38 1115.8,1078.71 1118.37,1085.08 1120.95,1091.48 1123.52,1097.9 1126.09,1104.35 1128.66,1110.82 1131.23,1117.29 
  1133.8,1123.77 1136.38,1130.25 1138.95,1136.73 1141.52,1143.19 1144.09,1149.64 1146.66,1156.07 1149.23,1162.48 1151.81,1168.86 1154.38,1175.2 1156.95,1181.51 
  1159.52,1187.77 1162.09,1193.99 1164.66,1200.15 1167.24,1206.27 1169.81,1212.33 1172.38,1218.32 1174.95,1224.26 1177.52,1230.13 1180.09,1235.92 1182.66,1241.65 
  1185.24,1247.3 1187.81,1252.87 1190.38,1258.37 1192.95,1263.78 1195.52,1269.11 1198.09,1274.35 1200.67,1279.51 1203.24,1284.58 1205.81,1289.56 1208.38,1294.44 
  1210.95,1299.24 1213.52,1303.94 1216.1,1308.55 1218.67,1313.06 1221.24,1317.48 1223.81,1321.8 1226.38,1326.03 1228.95,1330.16 1231.53,1334.19 1234.1,1338.13 
  1236.67,1341.97 1239.24,1345.71 1241.81,1349.37 1244.38,1352.92 1246.96,1356.38 1249.53,1359.75 1252.1,1363.02 1254.67,1366.2 1257.24,1369.29 1259.81,1372.29 
  1262.39,1375.2 1264.96,1378.02 1267.53,1380.75 1270.1,1383.4 1272.67,1385.95 1275.24,1388.43 1277.82,1390.82 1280.39,1393.13 1282.96,1395.36 1285.53,1397.51 
  1288.1,1399.58 1290.67,1401.57 1293.24,1403.49 1295.82,1405.33 1298.39,1407.1 1300.96,1408.79 1303.53,1410.42 1306.1,1411.98 1308.67,1413.46 1311.25,1414.88 
  1313.82,1416.24 1316.39,1417.53 1318.96,1418.75 1321.53,1419.92 1324.1,1421.02 1326.68,1422.06 1329.25,1423.04 1331.82,1423.96 1334.39,1424.82 1336.96,1425.63 
  1339.53,1426.38 1342.11,1427.07 1344.68,1427.71 1347.25,1428.3 1349.82,1428.82 1352.39,1429.3 1354.96,1429.72 1357.54,1430.09 1360.11,1430.41 1362.68,1430.67 
  1365.25,1430.88 1367.82,1431.04 1370.39,1431.15 1372.97,1431.2 1375.54,1431.2 1378.11,1431.15 1380.68,1431.04 1383.25,1430.88 1385.82,1430.66 1388.4,1430.39 
  1390.97,1430.07 1393.54,1429.68 1396.11,1429.24 1398.68,1428.74 1401.25,1428.17 1403.82,1427.55 1406.4,1426.87 1408.97,1426.12 1411.54,1425.3 1414.11,1424.42 
  1416.68,1423.48 1419.25,1422.46 1421.83,1421.37 1424.4,1420.2 1426.97,1418.97 1429.54,1417.65 1432.11,1416.26 1434.68,1414.78 1437.26,1413.22 1439.83,1411.57 
  1442.4,1409.84 1444.97,1408.01 1447.54,1406.09 1450.11,1404.08 1452.69,1401.96 1455.26,1399.75 1457.83,1397.43 1460.4,1395.01 1462.97,1392.47 1465.54,1389.82 
  1468.12,1387.06 1470.69,1384.18 1473.26,1381.18 1475.83,1378.06 1478.4,1374.8 1480.97,1371.42 1483.55,1367.91 1486.12,1364.25 1488.69,1360.46 1491.26,1356.53 
  1493.83,1352.45 1496.4,1348.23 1498.98,1343.85 1501.55,1339.32 1504.12,1334.63 1506.69,1329.78 1509.26,1324.77 1511.83,1319.6 1514.4,1314.26 1516.98,1308.75 
  1519.55,1303.06 1522.12,1297.2 1524.69,1291.17 1527.26,1284.95 1529.83,1278.56 1532.41,1271.98 1534.98,1265.22 1537.55,1258.27 1540.12,1251.14 1542.69,1243.81 
  1545.26,1236.3 1547.84,1228.6 1550.41,1220.71 1552.98,1212.62 1555.55,1204.35 1558.12,1195.88 1560.69,1187.23 1563.27,1178.38 1565.84,1169.34 1568.41,1160.12 
  1570.98,1150.7 1573.55,1141.11 1576.12,1131.32 1578.7,1121.36 1581.27,1111.22 1583.84,1100.9 1586.41,1090.41 1588.98,1079.74 1591.55,1068.91 1594.13,1057.92 
  1596.7,1046.77 1599.27,1035.46 1601.84,1024.01 1604.41,1012.41 1606.98,1000.67 1609.56,988.802 1612.13,976.804 1614.7,964.687 1617.27,952.456 1619.84,940.118 
  1622.41,927.681 1624.99,915.153 1627.56,902.541 1630.13,889.853 1632.7,877.099 1635.27,864.286 1637.84,851.425 1640.41,838.524 1642.99,825.592 1645.56,812.641 
  1648.13,799.679 1650.7,786.717 1653.27,773.765 1655.84,760.835 1658.42,747.937 1660.99,735.082 1663.56,722.28 1666.13,709.545 1668.7,696.886 1671.27,684.316 
  1673.85,671.845 1676.42,659.487 1678.99,647.252 1681.56,635.152 1684.13,623.199 1686.7,611.405 1689.28,599.782 1691.85,588.341 1694.42,577.095 1696.99,566.053 
  1699.56,555.229 1702.13,544.634 1704.71,534.278 1707.28,524.173 1709.85,514.33 1712.42,504.759 1714.99,495.471 1717.56,486.476 1720.14,477.784 1722.71,469.406 
  1725.28,461.349 1727.85,453.624 1730.42,446.24 1732.99,439.204 1735.57,432.524 1738.14,426.21 1740.71,420.267 1743.28,414.703 1745.85,409.524 1748.42,404.737 
  1750.99,400.346 1753.57,396.358 1756.14,392.777 1758.71,389.607 1761.28,386.852 1763.85,384.515 1766.42,382.599 1769,381.107 1771.57,380.039 1774.14,379.398 
  1776.71,379.185 1779.28,379.398 1781.85,380.039 1784.43,381.107 1787,382.599 1789.57,384.515 1792.14,386.852 1794.71,389.607 1797.28,392.777 1799.86,396.358 
  1802.43,400.346 1805,404.737 1807.57,409.524 1810.14,414.703 1812.71,420.267 1815.29,426.21 1817.86,432.524 1820.43,439.204 1823,446.24 1825.57,453.624 
  1828.14,461.349 1830.72,469.406 1833.29,477.785 1835.86,486.476 1838.43,495.471 1841,504.759 1843.57,514.33 1846.15,524.173 1848.72,534.278 1851.29,544.634 
  1853.86,555.23 1856.43,566.054 1859,577.095 1861.57,588.342 1864.15,599.783 1866.72,611.406 1869.29,623.2 1871.86,635.152 1874.43,647.252 1877,659.487 
  1879.58,671.846 1882.15,684.316 1884.72,696.887 1887.29,709.546 1889.86,722.281 1892.43,735.083 1895.01,747.938 1897.58,760.837 1900.15,773.767 1902.72,786.719 
  1905.29,799.681 1907.86,812.643 1910.44,825.595 1913.01,838.526 1915.58,851.428 1918.15,864.29 1920.72,877.102 1923.29,889.857 1925.87,902.545 1928.44,915.158 
  1931.01,927.687 1933.58,940.124 1936.15,952.462 1938.72,964.694 1941.3,976.812 1943.87,988.81 1946.44,1000.68 1949.01,1012.42 1951.58,1024.02 1954.15,1035.48 
  1956.73,1046.78 1959.3,1057.94 1961.87,1068.93 1964.44,1079.76 1967.01,1090.43 1969.58,1100.92 1972.15,1111.24 1974.73,1121.39 1977.3,1131.35 1979.87,1141.14 
  1982.44,1150.74 1985.01,1160.15 1987.58,1169.38 1990.16,1178.42 1992.73,1187.27 1995.3,1195.93 1997.87,1204.4 2000.44,1212.68 2003.01,1220.77 2005.59,1228.67 
  2008.16,1236.38 2010.73,1243.9 2013.3,1251.23 2015.87,1258.37 2018.44,1265.33 2021.02,1272.1 2023.59,1278.69 2026.16,1285.1 2028.73,1291.32 2031.3,1297.37 
  2033.87,1303.24 2036.45,1308.94 2039.02,1314.47 2041.59,1319.83 2044.16,1325.02 2046.73,1330.05 2049.3,1334.92 2051.88,1339.63 2054.45,1344.18 2057.02,1348.59 
  2059.59,1352.84 2062.16,1356.95 2064.73,1360.92 2067.31,1364.74 2069.88,1368.43 2072.45,1371.99 2075.02,1375.42 2077.59,1378.72 2080.16,1381.89 2082.73,1384.95 
  2085.31,1387.88 2087.88,1390.71 2090.45,1393.42 2093.02,1396.02 2095.59,1398.52 2098.16,1400.92 2100.74,1403.22 2103.31,1405.42 2105.88,1407.53 2108.45,1409.55 
  2111.02,1411.49 2113.59,1413.34 2116.17,1415.11 2118.74,1416.8 2121.31,1418.41 2123.88,1419.96 2126.45,1421.43 2129.02,1422.84 2131.6,1424.18 2134.17,1425.45 
  2136.74,1426.67 2139.31,1427.83 2141.88,1428.93 2144.45,1429.98 2147.03,1430.98 2149.6,1431.93 2152.17,1432.83 2154.74,1433.69 2157.31,1434.5 2159.88,1435.27 
  2162.46,1436 2165.03,1436.69 2167.6,1437.35 2170.17,1437.97 2172.74,1438.56 2175.31,1439.12 2177.89,1439.65 2180.46,1440.15 2183.03,1440.62 2185.6,1441.07 
  2188.17,1441.49 2190.74,1441.88 2193.31,1442.26 2195.89,1442.61 2198.46,1442.94 2201.03,1443.26 2203.6,1443.55 2206.17,1443.83 2208.74,1444.09 2211.32,1444.34 
  2213.89,1444.57 2216.46,1444.79 2219.03,1444.99 2221.6,1445.19 2224.17,1445.37 2226.75,1445.54 2229.32,1445.69 2231.89,1445.84 2234.46,1445.98 2237.03,1446.11 
  2239.6,1446.23 2242.18,1446.35 2244.75,1446.45 2247.32,1446.55 2249.89,1446.65 2252.46,1446.74 2255.03,1446.82 2257.61,1446.89 2260.18,1446.96 2262.75,1447.03 
  2265.32,1447.09 2267.89,1447.15 2270.46,1447.2 2273.04,1447.25 2275.61,1447.3 2278.18,1447.34 2280.75,1447.38 2283.32,1447.42 2285.89,1447.45 2288.47,1447.48 
  2291.04,1447.51 
  "/>
<path clip-path="url(#clip020)" d="
M1923.79 324.425 L2280.06 324.425 L2280.06 168.905 L1923.79 168.905  Z
  " fill="#ffffff" fill-rule="evenodd" fill-opacity="1"/>
<polyline clip-path="url(#clip020)" style="stroke:#000000; stroke-linecap:butt; stroke-linejoin:round; stroke-width:4; stroke-opacity:1; fill:none" points="
  1923.79,324.425 2280.06,324.425 2280.06,168.905 1923.79,168.905 1923.79,324.425 
  "/>
<polyline clip-path="url(#clip020)" style="stroke:#009af9; stroke-linecap:butt; stroke-linejoin:round; stroke-width:4; stroke-opacity:1; fill:none" points="
  1947.79,220.745 2091.79,220.745 
  "/>
<path clip-path="url(#clip020)" d="M2120.47 207.307 L2120.47 234.182 L2126.12 234.182 Q2133.27 234.182 2136.58 230.941 Q2139.91 227.701 2139.91 220.71 Q2139.91 213.766 2136.58 210.548 Q2133.27 207.307 2126.12 207.307 L2120.47 207.307 M2115.79 203.465 L2125.4 203.465 Q2135.44 203.465 2140.14 207.654 Q2144.84 211.821 2144.84 220.71 Q2144.84 229.645 2140.12 233.835 Q2135.4 238.025 2125.4 238.025 L2115.79 238.025 L2115.79 203.465 Z" fill="#000000" fill-rule="evenodd" fill-opacity="1" /><path clip-path="url(#clip020)" d="M2163.89 224.992 Q2158.73 224.992 2156.74 226.173 Q2154.75 227.353 2154.75 230.201 Q2154.75 232.469 2156.23 233.812 Q2157.74 235.131 2160.31 235.131 Q2163.85 235.131 2165.98 232.631 Q2168.13 230.108 2168.13 225.941 L2168.13 224.992 L2163.89 224.992 M2172.39 223.233 L2172.39 238.025 L2168.13 238.025 L2168.13 234.089 Q2166.67 236.451 2164.5 237.585 Q2162.32 238.696 2159.17 238.696 Q2155.19 238.696 2152.83 236.474 Q2150.49 234.228 2150.49 230.478 Q2150.49 226.103 2153.41 223.881 Q2156.35 221.659 2162.16 221.659 L2168.13 221.659 L2168.13 221.242 Q2168.13 218.303 2166.19 216.705 Q2164.26 215.085 2160.77 215.085 Q2158.55 215.085 2156.44 215.617 Q2154.33 216.15 2152.39 217.215 L2152.39 213.279 Q2154.73 212.377 2156.93 211.937 Q2159.13 211.474 2161.21 211.474 Q2166.83 211.474 2169.61 214.391 Q2172.39 217.307 2172.39 223.233 Z" fill="#000000" fill-rule="evenodd" fill-opacity="1" /><path clip-path="url(#clip020)" d="M2185.37 204.738 L2185.37 212.099 L2194.15 212.099 L2194.15 215.409 L2185.37 215.409 L2185.37 229.483 Q2185.37 232.654 2186.23 233.557 Q2187.11 234.46 2189.77 234.46 L2194.15 234.46 L2194.15 238.025 L2189.77 238.025 Q2184.84 238.025 2182.97 236.196 Q2181.09 234.344 2181.09 229.483 L2181.09 215.409 L2177.97 215.409 L2177.97 212.099 L2181.09 212.099 L2181.09 204.738 L2185.37 204.738 Z" fill="#000000" fill-rule="evenodd" fill-opacity="1" /><path clip-path="url(#clip020)" d="M2211.53 224.992 Q2206.37 224.992 2204.38 226.173 Q2202.39 227.353 2202.39 230.201 Q2202.39 232.469 2203.87 233.812 Q2205.37 235.131 2207.94 235.131 Q2211.49 235.131 2213.62 232.631 Q2215.77 230.108 2215.77 225.941 L2215.77 224.992 L2211.53 224.992 M2220.03 223.233 L2220.03 238.025 L2215.77 238.025 L2215.77 234.089 Q2214.31 236.451 2212.13 237.585 Q2209.96 238.696 2206.81 238.696 Q2202.83 238.696 2200.47 236.474 Q2198.13 234.228 2198.13 230.478 Q2198.13 226.103 2201.05 223.881 Q2203.99 221.659 2209.8 221.659 L2215.77 221.659 L2215.77 221.242 Q2215.77 218.303 2213.82 216.705 Q2211.9 215.085 2208.41 215.085 Q2206.19 215.085 2204.08 215.617 Q2201.97 216.15 2200.03 217.215 L2200.03 213.279 Q2202.37 212.377 2204.56 211.937 Q2206.76 211.474 2208.85 211.474 Q2214.47 211.474 2217.25 214.391 Q2220.03 217.307 2220.03 223.233 Z" fill="#000000" fill-rule="evenodd" fill-opacity="1" /><polyline clip-path="url(#clip020)" style="stroke:#e26f46; stroke-linecap:butt; stroke-linejoin:round; stroke-width:4; stroke-opacity:1; fill:none" points="
  1947.79,272.585 2091.79,272.585 
  "/>
<path clip-path="url(#clip020)" d="M2115.79 255.305 L2145.03 255.305 L2145.03 259.24 L2132.76 259.24 L2132.76 289.865 L2128.06 289.865 L2128.06 259.24 L2115.79 259.24 L2115.79 255.305 Z" fill="#000000" fill-rule="evenodd" fill-opacity="1" /><path clip-path="url(#clip020)" d="M2157.41 267.92 Q2156.69 267.504 2155.84 267.318 Q2155 267.11 2153.99 267.11 Q2150.38 267.11 2148.43 269.471 Q2146.51 271.809 2146.51 276.207 L2146.51 289.865 L2142.23 289.865 L2142.23 263.939 L2146.51 263.939 L2146.51 267.967 Q2147.85 265.606 2150 264.471 Q2152.16 263.314 2155.24 263.314 Q2155.68 263.314 2156.21 263.383 Q2156.74 263.43 2157.39 263.545 L2157.41 267.92 Z" fill="#000000" fill-rule="evenodd" fill-opacity="1" /><path clip-path="url(#clip020)" d="M2161.44 279.633 L2161.44 263.939 L2165.7 263.939 L2165.7 279.471 Q2165.7 283.152 2167.13 285.004 Q2168.57 286.832 2171.44 286.832 Q2174.89 286.832 2176.88 284.633 Q2178.89 282.434 2178.89 278.638 L2178.89 263.939 L2183.15 263.939 L2183.15 289.865 L2178.89 289.865 L2178.89 285.883 Q2177.34 288.244 2175.28 289.402 Q2173.25 290.536 2170.54 290.536 Q2166.07 290.536 2163.75 287.758 Q2161.44 284.98 2161.44 279.633 M2172.16 263.314 L2172.16 263.314 Z" fill="#000000" fill-rule="evenodd" fill-opacity="1" /><path clip-path="url(#clip020)" d="M2196.14 256.578 L2196.14 263.939 L2204.91 263.939 L2204.91 267.249 L2196.14 267.249 L2196.14 281.323 Q2196.14 284.494 2197 285.397 Q2197.87 286.3 2200.54 286.3 L2204.91 286.3 L2204.91 289.865 L2200.54 289.865 Q2195.61 289.865 2193.73 288.036 Q2191.86 286.184 2191.86 281.323 L2191.86 267.249 L2188.73 267.249 L2188.73 263.939 L2191.86 263.939 L2191.86 256.578 L2196.14 256.578 Z" fill="#000000" fill-rule="evenodd" fill-opacity="1" /><path clip-path="url(#clip020)" d="M2232.06 274.217 L2232.06 289.865 L2227.81 289.865 L2227.81 274.355 Q2227.81 270.675 2226.37 268.846 Q2224.93 267.018 2222.06 267.018 Q2218.62 267.018 2216.62 269.217 Q2214.63 271.416 2214.63 275.212 L2214.63 289.865 L2210.35 289.865 L2210.35 253.846 L2214.63 253.846 L2214.63 267.967 Q2216.16 265.629 2218.22 264.471 Q2220.31 263.314 2223.01 263.314 Q2227.48 263.314 2229.77 266.092 Q2232.06 268.846 2232.06 274.217 Z" fill="#000000" fill-rule="evenodd" fill-opacity="1" /></svg>
