<?xml version="1.0" encoding="utf-8"?>
<svg xmlns="http://www.w3.org/2000/svg" xmlns:xlink="http://www.w3.org/1999/xlink" width="600" height="400" viewBox="0 0 2400 1600">
<defs>
  <clipPath id="clip990">
    <rect x="0" y="0" width="2400" height="1600"/>
  </clipPath>
</defs>
<path clip-path="url(#clip990)" d="
M0 1600 L2400 1600 L2400 0 L0 0  Z
  " fill="#ffffff" fill-rule="evenodd" fill-opacity="1"/>
<defs>
  <clipPath id="clip991">
    <rect x="480" y="0" width="1681" height="1600"/>
  </clipPath>
</defs>
<path clip-path="url(#clip990)" d="
M172.015 1486.45 L2352.76 1486.45 L2352.76 123.472 L172.015 123.472  Z
  " fill="#ffffff" fill-rule="evenodd" fill-opacity="1"/>
<defs>
  <clipPath id="clip992">
    <rect x="172" y="123" width="2182" height="1364"/>
  </clipPath>
</defs>
<polyline clip-path="url(#clip992)" style="stroke:#000000; stroke-linecap:butt; stroke-linejoin:round; stroke-width:2; stroke-opacity:0.1; fill:none" points="
  233.734,1486.45 233.734,123.472 
  "/>
<polyline clip-path="url(#clip992)" style="stroke:#000000; stroke-linecap:butt; stroke-linejoin:round; stroke-width:2; stroke-opacity:0.1; fill:none" points="
  576.618,1486.45 576.618,123.472 
  "/>
<polyline clip-path="url(#clip992)" style="stroke:#000000; stroke-linecap:butt; stroke-linejoin:round; stroke-width:2; stroke-opacity:0.1; fill:none" points="
  919.502,1486.45 919.502,123.472 
  "/>
<polyline clip-path="url(#clip992)" style="stroke:#000000; stroke-linecap:butt; stroke-linejoin:round; stroke-width:2; stroke-opacity:0.1; fill:none" points="
  1262.39,1486.45 1262.39,123.472 
  "/>
<polyline clip-path="url(#clip992)" style="stroke:#000000; stroke-linecap:butt; stroke-linejoin:round; stroke-width:2; stroke-opacity:0.1; fill:none" points="
  1605.27,1486.45 1605.27,123.472 
  "/>
<polyline clip-path="url(#clip992)" style="stroke:#000000; stroke-linecap:butt; stroke-linejoin:round; stroke-width:2; stroke-opacity:0.1; fill:none" points="
  1948.15,1486.45 1948.15,123.472 
  "/>
<polyline clip-path="url(#clip992)" style="stroke:#000000; stroke-linecap:butt; stroke-linejoin:round; stroke-width:2; stroke-opacity:0.1; fill:none" points="
  2291.04,1486.45 2291.04,123.472 
  "/>
<polyline clip-path="url(#clip990)" style="stroke:#000000; stroke-linecap:butt; stroke-linejoin:round; stroke-width:4; stroke-opacity:1; fill:none" points="
  172.015,1486.45 2352.76,1486.45 
  "/>
<polyline clip-path="url(#clip990)" style="stroke:#000000; stroke-linecap:butt; stroke-linejoin:round; stroke-width:4; stroke-opacity:1; fill:none" points="
  233.734,1486.45 233.734,1467.55 
  "/>
<polyline clip-path="url(#clip990)" style="stroke:#000000; stroke-linecap:butt; stroke-linejoin:round; stroke-width:4; stroke-opacity:1; fill:none" points="
  576.618,1486.45 576.618,1467.55 
  "/>
<polyline clip-path="url(#clip990)" style="stroke:#000000; stroke-linecap:butt; stroke-linejoin:round; stroke-width:4; stroke-opacity:1; fill:none" points="
  919.502,1486.45 919.502,1467.55 
  "/>
<polyline clip-path="url(#clip990)" style="stroke:#000000; stroke-linecap:butt; stroke-linejoin:round; stroke-width:4; stroke-opacity:1; fill:none" points="
  1262.39,1486.45 1262.39,1467.55 
  "/>
<polyline clip-path="url(#clip990)" style="stroke:#000000; stroke-linecap:butt; stroke-linejoin:round; stroke-width:4; stroke-opacity:1; fill:none" points="
  1605.27,1486.45 1605.27,1467.55 
  "/>
<polyline clip-path="url(#clip990)" style="stroke:#000000; stroke-linecap:butt; stroke-linejoin:round; stroke-width:4; stroke-opacity:1; fill:none" points="
  1948.15,1486.45 1948.15,1467.55 
  "/>
<polyline clip-path="url(#clip990)" style="stroke:#000000; stroke-linecap:butt; stroke-linejoin:round; stroke-width:4; stroke-opacity:1; fill:none" points="
  2291.04,1486.45 2291.04,1467.55 
  "/>
<path clip-path="url(#clip990)" d="M203.676 1532.02 L233.352 1532.02 L233.352 1535.95 L203.676 1535.95 L203.676 1532.02 Z" fill="#000000" fill-rule="evenodd" fill-opacity="1" /><path clip-path="url(#clip990)" d="M247.472 1544.91 L263.792 1544.91 L263.792 1548.85 L241.847 1548.85 L241.847 1544.91 Q244.509 1542.16 249.093 1537.53 Q253.699 1532.88 254.88 1531.53 Q257.125 1529.01 258.005 1527.27 Q258.907 1525.51 258.907 1523.82 Q258.907 1521.07 256.963 1519.33 Q255.042 1517.6 251.94 1517.6 Q249.741 1517.6 247.287 1518.36 Q244.857 1519.13 242.079 1520.68 L242.079 1515.95 Q244.903 1514.82 247.357 1514.24 Q249.81 1513.66 251.847 1513.66 Q257.218 1513.66 260.412 1516.35 Q263.606 1519.03 263.606 1523.52 Q263.606 1525.65 262.796 1527.57 Q262.009 1529.47 259.903 1532.07 Q259.324 1532.74 256.222 1535.95 Q253.12 1539.15 247.472 1544.91 Z" fill="#000000" fill-rule="evenodd" fill-opacity="1" /><path clip-path="url(#clip990)" d="M546.375 1532.02 L576.051 1532.02 L576.051 1535.95 L546.375 1535.95 L546.375 1532.02 Z" fill="#000000" fill-rule="evenodd" fill-opacity="1" /><path clip-path="url(#clip990)" d="M586.953 1544.91 L594.592 1544.91 L594.592 1518.55 L586.282 1520.21 L586.282 1515.95 L594.546 1514.29 L599.222 1514.29 L599.222 1544.91 L606.861 1544.91 L606.861 1548.85 L586.953 1548.85 L586.953 1544.91 Z" fill="#000000" fill-rule="evenodd" fill-opacity="1" /><path clip-path="url(#clip990)" d="M919.502 1517.37 Q915.89 1517.37 914.062 1520.93 Q912.256 1524.47 912.256 1531.6 Q912.256 1538.71 914.062 1542.27 Q915.89 1545.82 919.502 1545.82 Q923.136 1545.82 924.941 1542.27 Q926.77 1538.71 926.77 1531.6 Q926.77 1524.47 924.941 1520.93 Q923.136 1517.37 919.502 1517.37 M919.502 1513.66 Q925.312 1513.66 928.367 1518.27 Q931.446 1522.85 931.446 1531.6 Q931.446 1540.33 928.367 1544.94 Q925.312 1549.52 919.502 1549.52 Q913.691 1549.52 910.613 1544.94 Q907.557 1540.33 907.557 1531.6 Q907.557 1522.85 910.613 1518.27 Q913.691 1513.66 919.502 1513.66 Z" fill="#000000" fill-rule="evenodd" fill-opacity="1" /><path clip-path="url(#clip990)" d="M1252.77 1544.91 L1260.41 1544.91 L1260.41 1518.55 L1252.1 1520.21 L1252.1 1515.95 L1260.36 1514.29 L1265.04 1514.29 L1265.04 1544.91 L1272.67 1544.91 L1272.67 1548.85 L1252.77 1548.85 L1252.77 1544.91 Z" fill="#000000" fill-rule="evenodd" fill-opacity="1" /><path clip-path="url(#clip990)" d="M1599.92 1544.91 L1616.24 1544.91 L1616.24 1548.85 L1594.3 1548.85 L1594.3 1544.91 Q1596.96 1542.16 1601.54 1537.53 Q1606.15 1532.88 1607.33 1531.53 Q1609.57 1529.01 1610.45 1527.27 Q1611.36 1525.51 1611.36 1523.82 Q1611.36 1521.07 1609.41 1519.33 Q1607.49 1517.6 1604.39 1517.6 Q1602.19 1517.6 1599.74 1518.36 Q1597.31 1519.13 1594.53 1520.68 L1594.53 1515.95 Q1597.35 1514.82 1599.81 1514.24 Q1602.26 1513.66 1604.3 1513.66 Q1609.67 1513.66 1612.86 1516.35 Q1616.06 1519.03 1616.06 1523.52 Q1616.06 1525.65 1615.25 1527.57 Q1614.46 1529.47 1612.35 1532.07 Q1611.77 1532.74 1608.67 1535.95 Q1605.57 1539.15 1599.92 1544.91 Z" fill="#000000" fill-rule="evenodd" fill-opacity="1" /><path clip-path="url(#clip990)" d="M1952.4 1530.21 Q1955.76 1530.93 1957.63 1533.2 Q1959.53 1535.47 1959.53 1538.8 Q1959.53 1543.92 1956.01 1546.72 Q1952.49 1549.52 1946.01 1549.52 Q1943.84 1549.52 1941.52 1549.08 Q1939.23 1548.66 1936.78 1547.81 L1936.78 1543.29 Q1938.72 1544.43 1941.03 1545.01 Q1943.35 1545.58 1945.87 1545.58 Q1950.27 1545.58 1952.56 1543.85 Q1954.88 1542.11 1954.88 1538.8 Q1954.88 1535.75 1952.72 1534.03 Q1950.6 1532.3 1946.78 1532.3 L1942.75 1532.3 L1942.75 1528.45 L1946.96 1528.45 Q1950.41 1528.45 1952.24 1527.09 Q1954.07 1525.7 1954.07 1523.11 Q1954.07 1520.45 1952.17 1519.03 Q1950.29 1517.6 1946.78 1517.6 Q1944.85 1517.6 1942.66 1518.01 Q1940.46 1518.43 1937.82 1519.31 L1937.82 1515.14 Q1940.48 1514.4 1942.79 1514.03 Q1945.13 1513.66 1947.19 1513.66 Q1952.52 1513.66 1955.62 1516.09 Q1958.72 1518.5 1958.72 1522.62 Q1958.72 1525.49 1957.08 1527.48 Q1955.43 1529.45 1952.4 1530.21 Z" fill="#000000" fill-rule="evenodd" fill-opacity="1" /><path clip-path="url(#clip990)" d="M2294.05 1518.36 L2282.24 1536.81 L2294.05 1536.81 L2294.05 1518.36 M2292.82 1514.29 L2298.7 1514.29 L2298.7 1536.81 L2303.63 1536.81 L2303.63 1540.7 L2298.7 1540.7 L2298.7 1548.85 L2294.05 1548.85 L2294.05 1540.7 L2278.44 1540.7 L2278.44 1536.19 L2292.82 1514.29 Z" fill="#000000" fill-rule="evenodd" fill-opacity="1" /><polyline clip-path="url(#clip992)" style="stroke:#000000; stroke-linecap:butt; stroke-linejoin:round; stroke-width:2; stroke-opacity:0.1; fill:none" points="
  172.015,1447.87 2352.76,1447.87 
  "/>
<polyline clip-path="url(#clip992)" style="stroke:#000000; stroke-linecap:butt; stroke-linejoin:round; stroke-width:2; stroke-opacity:0.1; fill:none" points="
  172.015,1179.99 2352.76,1179.99 
  "/>
<polyline clip-path="url(#clip992)" style="stroke:#000000; stroke-linecap:butt; stroke-linejoin:round; stroke-width:2; stroke-opacity:0.1; fill:none" points="
  172.015,912.112 2352.76,912.112 
  "/>
<polyline clip-path="url(#clip992)" style="stroke:#000000; stroke-linecap:butt; stroke-linejoin:round; stroke-width:2; stroke-opacity:0.1; fill:none" points="
  172.015,644.232 2352.76,644.232 
  "/>
<polyline clip-path="url(#clip992)" style="stroke:#000000; stroke-linecap:butt; stroke-linejoin:round; stroke-width:2; stroke-opacity:0.1; fill:none" points="
  172.015,376.351 2352.76,376.351 
  "/>
<polyline clip-path="url(#clip990)" style="stroke:#000000; stroke-linecap:butt; stroke-linejoin:round; stroke-width:4; stroke-opacity:1; fill:none" points="
  172.015,1486.45 172.015,123.472 
  "/>
<polyline clip-path="url(#clip990)" style="stroke:#000000; stroke-linecap:butt; stroke-linejoin:round; stroke-width:4; stroke-opacity:1; fill:none" points="
  172.015,1447.87 190.912,1447.87 
  "/>
<polyline clip-path="url(#clip990)" style="stroke:#000000; stroke-linecap:butt; stroke-linejoin:round; stroke-width:4; stroke-opacity:1; fill:none" points="
  172.015,1179.99 190.912,1179.99 
  "/>
<polyline clip-path="url(#clip990)" style="stroke:#000000; stroke-linecap:butt; stroke-linejoin:round; stroke-width:4; stroke-opacity:1; fill:none" points="
  172.015,912.112 190.912,912.112 
  "/>
<polyline clip-path="url(#clip990)" style="stroke:#000000; stroke-linecap:butt; stroke-linejoin:round; stroke-width:4; stroke-opacity:1; fill:none" points="
  172.015,644.232 190.912,644.232 
  "/>
<polyline clip-path="url(#clip990)" style="stroke:#000000; stroke-linecap:butt; stroke-linejoin:round; stroke-width:4; stroke-opacity:1; fill:none" points="
  172.015,376.351 190.912,376.351 
  "/>
<path clip-path="url(#clip990)" d="M124.07 1433.67 Q120.459 1433.67 118.631 1437.24 Q116.825 1440.78 116.825 1447.91 Q116.825 1455.01 118.631 1458.58 Q120.459 1462.12 124.07 1462.12 Q127.705 1462.12 129.51 1458.58 Q131.339 1455.01 131.339 1447.91 Q131.339 1440.78 129.51 1437.24 Q127.705 1433.67 124.07 1433.67 M124.07 1429.97 Q129.881 1429.97 132.936 1434.57 Q136.015 1439.16 136.015 1447.91 Q136.015 1456.63 132.936 1461.24 Q129.881 1465.82 124.07 1465.82 Q118.26 1465.82 115.182 1461.24 Q112.126 1456.63 112.126 1447.91 Q112.126 1439.16 115.182 1434.57 Q118.26 1429.97 124.07 1429.97 Z" fill="#000000" fill-rule="evenodd" fill-opacity="1" /><path clip-path="url(#clip990)" d="M57.7745 1193.34 L74.0939 1193.34 L74.0939 1197.27 L52.1495 1197.27 L52.1495 1193.34 Q54.8115 1190.58 59.3949 1185.95 Q64.0013 1181.3 65.1819 1179.96 Q67.4272 1177.43 68.3068 1175.7 Q69.2096 1173.94 69.2096 1172.25 Q69.2096 1169.5 67.2652 1167.76 Q65.3439 1166.02 62.2421 1166.02 Q60.043 1166.02 57.5893 1166.79 Q55.1588 1167.55 52.381 1169.1 L52.381 1164.38 Q55.2051 1163.25 57.6588 1162.67 Q60.1124 1162.09 62.1495 1162.09 Q67.5198 1162.09 70.7142 1164.77 Q73.9087 1167.46 73.9087 1171.95 Q73.9087 1174.08 73.0985 1176 Q72.3115 1177.9 70.205 1180.49 Q69.6263 1181.16 66.5245 1184.38 Q63.4226 1187.57 57.7745 1193.34 Z" fill="#000000" fill-rule="evenodd" fill-opacity="1" /><path clip-path="url(#clip990)" d="M93.9086 1165.79 Q90.2975 1165.79 88.4688 1169.36 Q86.6632 1172.9 86.6632 1180.03 Q86.6632 1187.13 88.4688 1190.7 Q90.2975 1194.24 93.9086 1194.24 Q97.5428 1194.24 99.3483 1190.7 Q101.177 1187.13 101.177 1180.03 Q101.177 1172.9 99.3483 1169.36 Q97.5428 1165.79 93.9086 1165.79 M93.9086 1162.09 Q99.7187 1162.09 102.774 1166.69 Q105.853 1171.28 105.853 1180.03 Q105.853 1188.75 102.774 1193.36 Q99.7187 1197.94 93.9086 1197.94 Q88.0984 1197.94 85.0197 1193.36 Q81.9642 1188.75 81.9642 1180.03 Q81.9642 1171.28 85.0197 1166.69 Q88.0984 1162.09 93.9086 1162.09 Z" fill="#000000" fill-rule="evenodd" fill-opacity="1" /><path clip-path="url(#clip990)" d="M124.07 1165.79 Q120.459 1165.79 118.631 1169.36 Q116.825 1172.9 116.825 1180.03 Q116.825 1187.13 118.631 1190.7 Q120.459 1194.24 124.07 1194.24 Q127.705 1194.24 129.51 1190.7 Q131.339 1187.13 131.339 1180.03 Q131.339 1172.9 129.51 1169.36 Q127.705 1165.79 124.07 1165.79 M124.07 1162.09 Q129.881 1162.09 132.936 1166.69 Q136.015 1171.28 136.015 1180.03 Q136.015 1188.75 132.936 1193.36 Q129.881 1197.94 124.07 1197.94 Q118.26 1197.94 115.182 1193.36 Q112.126 1188.75 112.126 1180.03 Q112.126 1171.28 115.182 1166.69 Q118.26 1162.09 124.07 1162.09 Z" fill="#000000" fill-rule="evenodd" fill-opacity="1" /><path clip-path="url(#clip990)" d="M66.5939 898.906 L54.7884 917.355 L66.5939 917.355 L66.5939 898.906 M65.367 894.832 L71.2466 894.832 L71.2466 917.355 L76.1772 917.355 L76.1772 921.244 L71.2466 921.244 L71.2466 929.392 L66.5939 929.392 L66.5939 921.244 L50.9921 921.244 L50.9921 916.73 L65.367 894.832 Z" fill="#000000" fill-rule="evenodd" fill-opacity="1" /><path clip-path="url(#clip990)" d="M93.9086 897.911 Q90.2975 897.911 88.4688 901.476 Q86.6632 905.017 86.6632 912.147 Q86.6632 919.253 88.4688 922.818 Q90.2975 926.36 93.9086 926.36 Q97.5428 926.36 99.3483 922.818 Q101.177 919.253 101.177 912.147 Q101.177 905.017 99.3483 901.476 Q97.5428 897.911 93.9086 897.911 M93.9086 894.207 Q99.7187 894.207 102.774 898.814 Q105.853 903.397 105.853 912.147 Q105.853 920.874 102.774 925.48 Q99.7187 930.063 93.9086 930.063 Q88.0984 930.063 85.0197 925.48 Q81.9642 920.874 81.9642 912.147 Q81.9642 903.397 85.0197 898.814 Q88.0984 894.207 93.9086 894.207 Z" fill="#000000" fill-rule="evenodd" fill-opacity="1" /><path clip-path="url(#clip990)" d="M124.07 897.911 Q120.459 897.911 118.631 901.476 Q116.825 905.017 116.825 912.147 Q116.825 919.253 118.631 922.818 Q120.459 926.36 124.07 926.36 Q127.705 926.36 129.51 922.818 Q131.339 919.253 131.339 912.147 Q131.339 905.017 129.51 901.476 Q127.705 897.911 124.07 897.911 M124.07 894.207 Q129.881 894.207 132.936 898.814 Q136.015 903.397 136.015 912.147 Q136.015 920.874 132.936 925.48 Q129.881 930.063 124.07 930.063 Q118.26 930.063 115.182 925.48 Q112.126 920.874 112.126 912.147 Q112.126 903.397 115.182 898.814 Q118.26 894.207 124.07 894.207 Z" fill="#000000" fill-rule="evenodd" fill-opacity="1" /><path clip-path="url(#clip990)" d="M64.3254 642.368 Q61.1773 642.368 59.3254 644.521 Q57.4967 646.674 57.4967 650.424 Q57.4967 654.151 59.3254 656.327 Q61.1773 658.479 64.3254 658.479 Q67.4735 658.479 69.3022 656.327 Q71.1541 654.151 71.1541 650.424 Q71.1541 646.674 69.3022 644.521 Q67.4735 642.368 64.3254 642.368 M73.6077 627.716 L73.6077 631.975 Q71.8485 631.142 70.0429 630.702 Q68.2606 630.262 66.5013 630.262 Q61.8717 630.262 59.418 633.387 Q56.9875 636.512 56.6402 642.831 Q58.006 640.817 60.0662 639.753 Q62.1263 638.665 64.6032 638.665 Q69.8115 638.665 72.8207 641.836 Q75.8531 644.984 75.8531 650.424 Q75.8531 655.748 72.705 658.965 Q69.5568 662.183 64.3254 662.183 Q58.33 662.183 55.1588 657.6 Q51.9875 652.993 51.9875 644.266 Q51.9875 636.072 55.8764 631.211 Q59.7652 626.327 66.3161 626.327 Q68.0754 626.327 69.8578 626.674 Q71.6633 627.021 73.6077 627.716 Z" fill="#000000" fill-rule="evenodd" fill-opacity="1" /><path clip-path="url(#clip990)" d="M93.9086 630.03 Q90.2975 630.03 88.4688 633.595 Q86.6632 637.137 86.6632 644.266 Q86.6632 651.373 88.4688 654.938 Q90.2975 658.479 93.9086 658.479 Q97.5428 658.479 99.3483 654.938 Q101.177 651.373 101.177 644.266 Q101.177 637.137 99.3483 633.595 Q97.5428 630.03 93.9086 630.03 M93.9086 626.327 Q99.7187 626.327 102.774 630.933 Q105.853 635.516 105.853 644.266 Q105.853 652.993 102.774 657.6 Q99.7187 662.183 93.9086 662.183 Q88.0984 662.183 85.0197 657.6 Q81.9642 652.993 81.9642 644.266 Q81.9642 635.516 85.0197 630.933 Q88.0984 626.327 93.9086 626.327 Z" fill="#000000" fill-rule="evenodd" fill-opacity="1" /><path clip-path="url(#clip990)" d="M124.07 630.03 Q120.459 630.03 118.631 633.595 Q116.825 637.137 116.825 644.266 Q116.825 651.373 118.631 654.938 Q120.459 658.479 124.07 658.479 Q127.705 658.479 129.51 654.938 Q131.339 651.373 131.339 644.266 Q131.339 637.137 129.51 633.595 Q127.705 630.03 124.07 630.03 M124.07 626.327 Q129.881 626.327 132.936 630.933 Q136.015 635.516 136.015 644.266 Q136.015 652.993 132.936 657.6 Q129.881 662.183 124.07 662.183 Q118.26 662.183 115.182 657.6 Q112.126 652.993 112.126 644.266 Q112.126 635.516 115.182 630.933 Q118.26 626.327 124.07 626.327 Z" fill="#000000" fill-rule="evenodd" fill-opacity="1" /><path clip-path="url(#clip990)" d="M63.7467 377.219 Q60.4134 377.219 58.4921 379.002 Q56.5939 380.784 56.5939 383.909 Q56.5939 387.034 58.4921 388.816 Q60.4134 390.599 63.7467 390.599 Q67.08 390.599 69.0013 388.816 Q70.9226 387.011 70.9226 383.909 Q70.9226 380.784 69.0013 379.002 Q67.1032 377.219 63.7467 377.219 M59.0708 375.229 Q56.0615 374.488 54.3717 372.428 Q52.7051 370.368 52.7051 367.405 Q52.7051 363.261 55.6449 360.854 Q58.6078 358.446 63.7467 358.446 Q68.9087 358.446 71.8485 360.854 Q74.7883 363.261 74.7883 367.405 Q74.7883 370.368 73.0985 372.428 Q71.4318 374.488 68.4457 375.229 Q71.8253 376.016 73.7003 378.307 Q75.5985 380.599 75.5985 383.909 Q75.5985 388.932 72.5198 391.617 Q69.4642 394.303 63.7467 394.303 Q58.0291 394.303 54.9504 391.617 Q51.8949 388.932 51.8949 383.909 Q51.8949 380.599 53.793 378.307 Q55.6912 376.016 59.0708 375.229 M57.3578 367.844 Q57.3578 370.53 59.0245 372.034 Q60.7143 373.539 63.7467 373.539 Q66.7559 373.539 68.4457 372.034 Q70.1587 370.53 70.1587 367.844 Q70.1587 365.159 68.4457 363.655 Q66.7559 362.15 63.7467 362.15 Q60.7143 362.15 59.0245 363.655 Q57.3578 365.159 57.3578 367.844 Z" fill="#000000" fill-rule="evenodd" fill-opacity="1" /><path clip-path="url(#clip990)" d="M93.9086 362.15 Q90.2975 362.15 88.4688 365.715 Q86.6632 369.256 86.6632 376.386 Q86.6632 383.492 88.4688 387.057 Q90.2975 390.599 93.9086 390.599 Q97.5428 390.599 99.3483 387.057 Q101.177 383.492 101.177 376.386 Q101.177 369.256 99.3483 365.715 Q97.5428 362.15 93.9086 362.15 M93.9086 358.446 Q99.7187 358.446 102.774 363.053 Q105.853 367.636 105.853 376.386 Q105.853 385.113 102.774 389.719 Q99.7187 394.303 93.9086 394.303 Q88.0984 394.303 85.0197 389.719 Q81.9642 385.113 81.9642 376.386 Q81.9642 367.636 85.0197 363.053 Q88.0984 358.446 93.9086 358.446 Z" fill="#000000" fill-rule="evenodd" fill-opacity="1" /><path clip-path="url(#clip990)" d="M124.07 362.15 Q120.459 362.15 118.631 365.715 Q116.825 369.256 116.825 376.386 Q116.825 383.492 118.631 387.057 Q120.459 390.599 124.07 390.599 Q127.705 390.599 129.51 387.057 Q131.339 383.492 131.339 376.386 Q131.339 369.256 129.51 365.715 Q127.705 362.15 124.07 362.15 M124.07 358.446 Q129.881 358.446 132.936 363.053 Q136.015 367.636 136.015 376.386 Q136.015 385.113 132.936 389.719 Q129.881 394.303 124.07 394.303 Q118.26 394.303 115.182 389.719 Q112.126 385.113 112.126 376.386 Q112.126 367.636 115.182 363.053 Q118.26 358.446 124.07 358.446 Z" fill="#000000" fill-rule="evenodd" fill-opacity="1" /><path clip-path="url(#clip990)" d="M1179.36 18.8205 L1179.36 65.8515 L1189.25 65.8515 Q1201.76 65.8515 1207.56 60.1802 Q1213.39 54.509 1213.39 42.2752 Q1213.39 30.1225 1207.56 24.4918 Q1201.76 18.8205 1189.25 18.8205 L1179.36 18.8205 M1171.18 12.096 L1187.99 12.096 Q1205.57 12.096 1213.79 19.4281 Q1222.02 26.7198 1222.02 42.2752 Q1222.02 57.9117 1213.75 65.2439 Q1205.49 72.576 1187.99 72.576 L1171.18 72.576 L1171.18 12.096 Z" fill="#000000" fill-rule="evenodd" fill-opacity="1" /><path clip-path="url(#clip990)" d="M1255.36 49.7694 Q1246.32 49.7694 1242.84 51.8354 Q1239.36 53.9013 1239.36 58.8839 Q1239.36 62.8538 1241.95 65.2034 Q1244.58 67.5124 1249.08 67.5124 Q1255.28 67.5124 1259 63.1374 Q1262.77 58.7219 1262.77 51.4303 L1262.77 49.7694 L1255.36 49.7694 M1270.22 46.6907 L1270.22 72.576 L1262.77 72.576 L1262.77 65.6895 Q1260.22 69.8214 1256.41 71.8063 Q1252.6 73.7508 1247.09 73.7508 Q1240.13 73.7508 1235.99 69.8619 Q1231.9 65.9325 1231.9 59.3701 Q1231.9 51.7138 1237.01 47.825 Q1242.15 43.9361 1252.32 43.9361 L1262.77 43.9361 L1262.77 43.2069 Q1262.77 38.0623 1259.37 35.2672 Q1256.01 32.4315 1249.89 32.4315 Q1246 32.4315 1242.31 33.3632 Q1238.63 34.295 1235.22 36.1584 L1235.22 29.2718 Q1239.32 27.692 1243.16 26.9223 Q1247.01 26.1121 1250.66 26.1121 Q1260.5 26.1121 1265.36 31.2163 Q1270.22 36.3204 1270.22 46.6907 Z" fill="#000000" fill-rule="evenodd" fill-opacity="1" /><path clip-path="url(#clip990)" d="M1292.95 14.324 L1292.95 27.2059 L1308.3 27.2059 L1308.3 32.9987 L1292.95 32.9987 L1292.95 57.6282 Q1292.95 63.1779 1294.45 64.7578 Q1295.99 66.3376 1300.65 66.3376 L1308.3 66.3376 L1308.3 72.576 L1300.65 72.576 Q1292.02 72.576 1288.74 69.3758 Q1285.46 66.1351 1285.46 57.6282 L1285.46 32.9987 L1279.99 32.9987 L1279.99 27.2059 L1285.46 27.2059 L1285.46 14.324 L1292.95 14.324 Z" fill="#000000" fill-rule="evenodd" fill-opacity="1" /><path clip-path="url(#clip990)" d="M1338.72 49.7694 Q1329.69 49.7694 1326.21 51.8354 Q1322.72 53.9013 1322.72 58.8839 Q1322.72 62.8538 1325.32 65.2034 Q1327.95 67.5124 1332.45 67.5124 Q1338.64 67.5124 1342.37 63.1374 Q1346.14 58.7219 1346.14 51.4303 L1346.14 49.7694 L1338.72 49.7694 M1353.59 46.6907 L1353.59 72.576 L1346.14 72.576 L1346.14 65.6895 Q1343.59 69.8214 1339.78 71.8063 Q1335.97 73.7508 1330.46 73.7508 Q1323.49 73.7508 1319.36 69.8619 Q1315.27 65.9325 1315.27 59.3701 Q1315.27 51.7138 1320.37 47.825 Q1325.52 43.9361 1335.69 43.9361 L1346.14 43.9361 L1346.14 43.2069 Q1346.14 38.0623 1342.74 35.2672 Q1339.37 32.4315 1333.26 32.4315 Q1329.37 32.4315 1325.68 33.3632 Q1321.99 34.295 1318.59 36.1584 L1318.59 29.2718 Q1322.68 27.692 1326.53 26.9223 Q1330.38 26.1121 1334.03 26.1121 Q1343.87 26.1121 1348.73 31.2163 Q1353.59 36.3204 1353.59 46.6907 Z" fill="#000000" fill-rule="evenodd" fill-opacity="1" /><polyline clip-path="url(#clip992)" style="stroke:#009af9; stroke-linecap:butt; stroke-linejoin:round; stroke-width:4; stroke-opacity:1; fill:none" points="
  233.734,1447.87 233.734,1354.11 268.022,1354.11 268.022,1313.93 302.311,1313.93 302.311,1300.54 336.599,1300.54 336.599,1220.17 370.887,1220.17 370.887,1153.2 
  405.176,1153.2 405.176,1072.84 439.464,1072.84 439.464,1059.45 473.753,1059.45 473.753,938.9 508.041,938.9 508.041,952.294 542.329,952.294 542.329,992.476 
  576.618,992.476 576.618,885.324 610.906,885.324 610.906,737.99 645.194,737.99 645.194,1005.87 679.483,1005.87 679.483,1099.63 713.771,1099.63 713.771,1046.05 
  748.06,1046.05 748.06,1206.78 782.348,1206.78 782.348,1287.14 816.636,1287.14 816.636,1260.36 850.925,1260.36 850.925,1327.33 885.213,1327.33 885.213,1354.11 
  919.502,1354.11 919.502,1394.3 953.79,1394.3 988.078,1394.3 988.078,1434.48 1022.37,1434.48 1022.37,1447.87 1056.66,1447.87 1056.66,1434.48 
  1090.94,1434.48 1125.23,1434.48 1125.23,1421.09 1159.52,1421.09 1159.52,1394.3 1193.81,1394.3 1193.81,1354.11 1228.1,1354.11 1228.1,1327.33 
  1262.39,1327.33 1262.39,1287.14 1296.67,1287.14 1296.67,1300.54 1330.96,1300.54 1330.96,1072.84 1365.25,1072.84 1365.25,938.9 1399.54,938.9 1399.54,871.93 
  1433.83,871.93 1433.83,764.778 1468.12,764.778 1468.12,550.474 1502.4,550.474 1502.4,443.321 1536.69,443.321 1536.69,162.047 1570.98,162.047 1570.98,577.262 
  1605.27,577.262 1605.27,470.109 1639.56,470.109 1639.56,362.957 1673.85,362.957 1673.85,537.08 1708.13,537.08 1708.13,456.715 1742.42,456.715 1742.42,885.324 
  1776.71,885.324 1776.71,979.082 1811,979.082 1811,992.476 1845.29,992.476 1845.29,965.688 1879.58,965.688 1879.58,1246.96 1913.86,1246.96 
  1948.15,1246.96 1948.15,1327.33 1982.44,1327.33 1982.44,1407.69 2016.73,1407.69 2051.02,1407.69 2051.02,1421.09 2085.31,1421.09 2085.31,1434.48 
  2119.59,1434.48 2119.59,1447.87 2153.88,1447.87 2188.17,1447.87 2222.46,1447.87 2256.75,1447.87 
  2291.04,1447.87 
  "/>
<path clip-path="url(#clip990)" d="
M1935.83 272.585 L2280.06 272.585 L2280.06 168.905 L1935.83 168.905  Z
  " fill="#ffffff" fill-rule="evenodd" fill-opacity="1"/>
<polyline clip-path="url(#clip990)" style="stroke:#000000; stroke-linecap:butt; stroke-linejoin:round; stroke-width:4; stroke-opacity:1; fill:none" points="
  1935.83,272.585 2280.06,272.585 2280.06,168.905 1935.83,168.905 1935.83,272.585 
  "/>
<polyline clip-path="url(#clip990)" style="stroke:#009af9; stroke-linecap:butt; stroke-linejoin:round; stroke-width:4; stroke-opacity:1; fill:none" points="
  1959.83,220.745 2103.83,220.745 
  "/>
<path clip-path="url(#clip990)" d="M2132.5 207.307 L2132.5 234.182 L2138.15 234.182 Q2145.31 234.182 2148.62 230.941 Q2151.95 227.701 2151.95 220.71 Q2151.95 213.766 2148.62 210.548 Q2145.31 207.307 2138.15 207.307 L2132.5 207.307 M2127.83 203.465 L2137.44 203.465 Q2147.48 203.465 2152.18 207.654 Q2156.88 211.821 2156.88 220.71 Q2156.88 229.645 2152.16 233.835 Q2147.44 238.025 2137.44 238.025 L2127.83 238.025 L2127.83 203.465 Z" fill="#000000" fill-rule="evenodd" fill-opacity="1" /><path clip-path="url(#clip990)" d="M2175.93 224.992 Q2170.77 224.992 2168.78 226.173 Q2166.79 227.353 2166.79 230.201 Q2166.79 232.469 2168.27 233.812 Q2169.77 235.131 2172.34 235.131 Q2175.88 235.131 2178.01 232.631 Q2180.17 230.108 2180.17 225.941 L2180.17 224.992 L2175.93 224.992 M2184.43 223.233 L2184.43 238.025 L2180.17 238.025 L2180.17 234.089 Q2178.71 236.451 2176.53 237.585 Q2174.36 238.696 2171.21 238.696 Q2167.23 238.696 2164.87 236.474 Q2162.53 234.228 2162.53 230.478 Q2162.53 226.103 2165.44 223.881 Q2168.38 221.659 2174.19 221.659 L2180.17 221.659 L2180.17 221.242 Q2180.17 218.303 2178.22 216.705 Q2176.3 215.085 2172.81 215.085 Q2170.58 215.085 2168.48 215.617 Q2166.37 216.15 2164.43 217.215 L2164.43 213.279 Q2166.76 212.377 2168.96 211.937 Q2171.16 211.474 2173.25 211.474 Q2178.87 211.474 2181.65 214.391 Q2184.43 217.307 2184.43 223.233 Z" fill="#000000" fill-rule="evenodd" fill-opacity="1" /><path clip-path="url(#clip990)" d="M2197.41 204.738 L2197.41 212.099 L2206.19 212.099 L2206.19 215.409 L2197.41 215.409 L2197.41 229.483 Q2197.41 232.654 2198.27 233.557 Q2199.15 234.46 2201.81 234.46 L2206.19 234.46 L2206.19 238.025 L2201.81 238.025 Q2196.88 238.025 2195 236.196 Q2193.13 234.344 2193.13 229.483 L2193.13 215.409 L2190 215.409 L2190 212.099 L2193.13 212.099 L2193.13 204.738 L2197.41 204.738 Z" fill="#000000" fill-rule="evenodd" fill-opacity="1" /><path clip-path="url(#clip990)" d="M2223.57 224.992 Q2218.41 224.992 2216.42 226.173 Q2214.43 227.353 2214.43 230.201 Q2214.43 232.469 2215.91 233.812 Q2217.41 235.131 2219.98 235.131 Q2223.52 235.131 2225.65 232.631 Q2227.81 230.108 2227.81 225.941 L2227.81 224.992 L2223.57 224.992 M2232.06 223.233 L2232.06 238.025 L2227.81 238.025 L2227.81 234.089 Q2226.35 236.451 2224.17 237.585 Q2222 238.696 2218.85 238.696 Q2214.87 238.696 2212.5 236.474 Q2210.17 234.228 2210.17 230.478 Q2210.17 226.103 2213.08 223.881 Q2216.02 221.659 2221.83 221.659 L2227.81 221.659 L2227.81 221.242 Q2227.81 218.303 2225.86 216.705 Q2223.94 215.085 2220.44 215.085 Q2218.22 215.085 2216.12 215.617 Q2214.01 216.15 2212.06 217.215 L2212.06 213.279 Q2214.4 212.377 2216.6 211.937 Q2218.8 211.474 2220.88 211.474 Q2226.51 211.474 2229.29 214.391 Q2232.06 217.307 2232.06 223.233 Z" fill="#000000" fill-rule="evenodd" fill-opacity="1" /></svg>
