<?xml version="1.0" encoding="utf-8"?>
<svg xmlns="http://www.w3.org/2000/svg" xmlns:xlink="http://www.w3.org/1999/xlink" width="600" height="400" viewBox="0 0 2400 1600">
<defs>
  <clipPath id="clip610">
    <rect x="0" y="0" width="2400" height="1600"/>
  </clipPath>
</defs>
<path clip-path="url(#clip610)" d="M0 1600 L2400 1600 L2400 0 L0 0  Z" fill="#ffffff" fill-rule="evenodd" fill-opacity="1"/>
<defs>
  <clipPath id="clip611">
    <rect x="480" y="0" width="1681" height="1600"/>
  </clipPath>
</defs>
<path clip-path="url(#clip610)" d="M199.283 1486.45 L2352.76 1486.45 L2352.76 123.472 L199.283 123.472  Z" fill="#ffffff" fill-rule="evenodd" fill-opacity="1"/>
<defs>
  <clipPath id="clip612">
    <rect x="199" y="123" width="2154" height="1364"/>
  </clipPath>
</defs>
<polyline clip-path="url(#clip612)" style="stroke:#000000; stroke-linecap:round; stroke-linejoin:round; stroke-width:2; stroke-opacity:0.1; fill:none" points="260.231,1486.45 260.231,123.472 "/>
<polyline clip-path="url(#clip612)" style="stroke:#000000; stroke-linecap:round; stroke-linejoin:round; stroke-width:2; stroke-opacity:0.1; fill:none" points="598.827,1486.45 598.827,123.472 "/>
<polyline clip-path="url(#clip612)" style="stroke:#000000; stroke-linecap:round; stroke-linejoin:round; stroke-width:2; stroke-opacity:0.1; fill:none" points="937.423,1486.45 937.423,123.472 "/>
<polyline clip-path="url(#clip612)" style="stroke:#000000; stroke-linecap:round; stroke-linejoin:round; stroke-width:2; stroke-opacity:0.1; fill:none" points="1276.02,1486.45 1276.02,123.472 "/>
<polyline clip-path="url(#clip612)" style="stroke:#000000; stroke-linecap:round; stroke-linejoin:round; stroke-width:2; stroke-opacity:0.1; fill:none" points="1614.62,1486.45 1614.62,123.472 "/>
<polyline clip-path="url(#clip612)" style="stroke:#000000; stroke-linecap:round; stroke-linejoin:round; stroke-width:2; stroke-opacity:0.1; fill:none" points="1953.21,1486.45 1953.21,123.472 "/>
<polyline clip-path="url(#clip612)" style="stroke:#000000; stroke-linecap:round; stroke-linejoin:round; stroke-width:2; stroke-opacity:0.1; fill:none" points="2291.81,1486.45 2291.81,123.472 "/>
<polyline clip-path="url(#clip612)" style="stroke:#000000; stroke-linecap:round; stroke-linejoin:round; stroke-width:2; stroke-opacity:0.1; fill:none" points="199.283,1447.87 2352.76,1447.87 "/>
<polyline clip-path="url(#clip612)" style="stroke:#000000; stroke-linecap:round; stroke-linejoin:round; stroke-width:2; stroke-opacity:0.1; fill:none" points="199.283,1132.72 2352.76,1132.72 "/>
<polyline clip-path="url(#clip612)" style="stroke:#000000; stroke-linecap:round; stroke-linejoin:round; stroke-width:2; stroke-opacity:0.1; fill:none" points="199.283,817.566 2352.76,817.566 "/>
<polyline clip-path="url(#clip612)" style="stroke:#000000; stroke-linecap:round; stroke-linejoin:round; stroke-width:2; stroke-opacity:0.1; fill:none" points="199.283,502.413 2352.76,502.413 "/>
<polyline clip-path="url(#clip612)" style="stroke:#000000; stroke-linecap:round; stroke-linejoin:round; stroke-width:2; stroke-opacity:0.1; fill:none" points="199.283,187.259 2352.76,187.259 "/>
<polyline clip-path="url(#clip610)" style="stroke:#000000; stroke-linecap:round; stroke-linejoin:round; stroke-width:4; stroke-opacity:1; fill:none" points="199.283,1486.45 2352.76,1486.45 "/>
<polyline clip-path="url(#clip610)" style="stroke:#000000; stroke-linecap:round; stroke-linejoin:round; stroke-width:4; stroke-opacity:1; fill:none" points="260.231,1486.45 260.231,1467.55 "/>
<polyline clip-path="url(#clip610)" style="stroke:#000000; stroke-linecap:round; stroke-linejoin:round; stroke-width:4; stroke-opacity:1; fill:none" points="598.827,1486.45 598.827,1467.55 "/>
<polyline clip-path="url(#clip610)" style="stroke:#000000; stroke-linecap:round; stroke-linejoin:round; stroke-width:4; stroke-opacity:1; fill:none" points="937.423,1486.45 937.423,1467.55 "/>
<polyline clip-path="url(#clip610)" style="stroke:#000000; stroke-linecap:round; stroke-linejoin:round; stroke-width:4; stroke-opacity:1; fill:none" points="1276.02,1486.45 1276.02,1467.55 "/>
<polyline clip-path="url(#clip610)" style="stroke:#000000; stroke-linecap:round; stroke-linejoin:round; stroke-width:4; stroke-opacity:1; fill:none" points="1614.62,1486.45 1614.62,1467.55 "/>
<polyline clip-path="url(#clip610)" style="stroke:#000000; stroke-linecap:round; stroke-linejoin:round; stroke-width:4; stroke-opacity:1; fill:none" points="1953.21,1486.45 1953.21,1467.55 "/>
<polyline clip-path="url(#clip610)" style="stroke:#000000; stroke-linecap:round; stroke-linejoin:round; stroke-width:4; stroke-opacity:1; fill:none" points="2291.81,1486.45 2291.81,1467.55 "/>
<path clip-path="url(#clip610)" d="M230.173 1532.02 L259.849 1532.02 L259.849 1535.95 L230.173 1535.95 L230.173 1532.02 Z" fill="#000000" fill-rule="nonzero" fill-opacity="1" /><path clip-path="url(#clip610)" d="M273.969 1544.91 L290.288 1544.91 L290.288 1548.85 L268.344 1548.85 L268.344 1544.91 Q271.006 1542.16 275.589 1537.53 Q280.196 1532.88 281.376 1531.53 Q283.622 1529.01 284.501 1527.27 Q285.404 1525.51 285.404 1523.82 Q285.404 1521.07 283.46 1519.33 Q281.538 1517.6 278.436 1517.6 Q276.237 1517.6 273.784 1518.36 Q271.353 1519.13 268.575 1520.68 L268.575 1515.95 Q271.399 1514.82 273.853 1514.24 Q276.307 1513.66 278.344 1513.66 Q283.714 1513.66 286.909 1516.35 Q290.103 1519.03 290.103 1523.52 Q290.103 1525.65 289.293 1527.57 Q288.506 1529.47 286.399 1532.07 Q285.821 1532.74 282.719 1535.95 Q279.617 1539.15 273.969 1544.91 Z" fill="#000000" fill-rule="nonzero" fill-opacity="1" /><path clip-path="url(#clip610)" d="M568.584 1532.02 L598.26 1532.02 L598.26 1535.95 L568.584 1535.95 L568.584 1532.02 Z" fill="#000000" fill-rule="nonzero" fill-opacity="1" /><path clip-path="url(#clip610)" d="M609.162 1544.91 L616.801 1544.91 L616.801 1518.55 L608.491 1520.21 L608.491 1515.95 L616.755 1514.29 L621.431 1514.29 L621.431 1544.91 L629.07 1544.91 L629.07 1548.85 L609.162 1548.85 L609.162 1544.91 Z" fill="#000000" fill-rule="nonzero" fill-opacity="1" /><path clip-path="url(#clip610)" d="M937.423 1517.37 Q933.812 1517.37 931.983 1520.93 Q930.178 1524.47 930.178 1531.6 Q930.178 1538.71 931.983 1542.27 Q933.812 1545.82 937.423 1545.82 Q941.057 1545.82 942.863 1542.27 Q944.692 1538.71 944.692 1531.6 Q944.692 1524.47 942.863 1520.93 Q941.057 1517.37 937.423 1517.37 M937.423 1513.66 Q943.233 1513.66 946.289 1518.27 Q949.368 1522.85 949.368 1531.6 Q949.368 1540.33 946.289 1544.94 Q943.233 1549.52 937.423 1549.52 Q931.613 1549.52 928.534 1544.94 Q925.479 1540.33 925.479 1531.6 Q925.479 1522.85 928.534 1518.27 Q931.613 1513.66 937.423 1513.66 Z" fill="#000000" fill-rule="nonzero" fill-opacity="1" /><path clip-path="url(#clip610)" d="M1266.4 1544.91 L1274.04 1544.91 L1274.04 1518.55 L1265.73 1520.21 L1265.73 1515.95 L1273.99 1514.29 L1278.67 1514.29 L1278.67 1544.91 L1286.31 1544.91 L1286.31 1548.85 L1266.4 1548.85 L1266.4 1544.91 Z" fill="#000000" fill-rule="nonzero" fill-opacity="1" /><path clip-path="url(#clip610)" d="M1609.27 1544.91 L1625.59 1544.91 L1625.59 1548.85 L1603.64 1548.85 L1603.64 1544.91 Q1606.31 1542.16 1610.89 1537.53 Q1615.5 1532.88 1616.68 1531.53 Q1618.92 1529.01 1619.8 1527.27 Q1620.7 1525.51 1620.7 1523.82 Q1620.7 1521.07 1618.76 1519.33 Q1616.84 1517.6 1613.74 1517.6 Q1611.54 1517.6 1609.08 1518.36 Q1606.65 1519.13 1603.88 1520.68 L1603.88 1515.95 Q1606.7 1514.82 1609.15 1514.24 Q1611.61 1513.66 1613.64 1513.66 Q1619.01 1513.66 1622.21 1516.35 Q1625.4 1519.03 1625.4 1523.52 Q1625.4 1525.65 1624.59 1527.57 Q1623.81 1529.47 1621.7 1532.07 Q1621.12 1532.74 1618.02 1535.95 Q1614.92 1539.15 1609.27 1544.91 Z" fill="#000000" fill-rule="nonzero" fill-opacity="1" /><path clip-path="url(#clip610)" d="M1957.46 1530.21 Q1960.82 1530.93 1962.69 1533.2 Q1964.59 1535.47 1964.59 1538.8 Q1964.59 1543.92 1961.07 1546.72 Q1957.55 1549.52 1951.07 1549.52 Q1948.9 1549.52 1946.58 1549.08 Q1944.29 1548.66 1941.83 1547.81 L1941.83 1543.29 Q1943.78 1544.43 1946.09 1545.01 Q1948.41 1545.58 1950.93 1545.58 Q1955.33 1545.58 1957.62 1543.85 Q1959.94 1542.11 1959.94 1538.8 Q1959.94 1535.75 1957.78 1534.03 Q1955.65 1532.3 1951.83 1532.3 L1947.81 1532.3 L1947.81 1528.45 L1952.02 1528.45 Q1955.47 1528.45 1957.3 1527.09 Q1959.13 1525.7 1959.13 1523.11 Q1959.13 1520.45 1957.23 1519.03 Q1955.35 1517.6 1951.83 1517.6 Q1949.91 1517.6 1947.71 1518.01 Q1945.52 1518.43 1942.88 1519.31 L1942.88 1515.14 Q1945.54 1514.4 1947.85 1514.03 Q1950.19 1513.66 1952.25 1513.66 Q1957.58 1513.66 1960.68 1516.09 Q1963.78 1518.5 1963.78 1522.62 Q1963.78 1525.49 1962.14 1527.48 Q1960.49 1529.45 1957.46 1530.21 Z" fill="#000000" fill-rule="nonzero" fill-opacity="1" /><path clip-path="url(#clip610)" d="M2294.82 1518.36 L2283.01 1536.81 L2294.82 1536.81 L2294.82 1518.36 M2293.59 1514.29 L2299.47 1514.29 L2299.47 1536.81 L2304.4 1536.81 L2304.4 1540.7 L2299.47 1540.7 L2299.47 1548.85 L2294.82 1548.85 L2294.82 1540.7 L2279.22 1540.7 L2279.22 1536.19 L2293.59 1514.29 Z" fill="#000000" fill-rule="nonzero" fill-opacity="1" /><polyline clip-path="url(#clip610)" style="stroke:#000000; stroke-linecap:round; stroke-linejoin:round; stroke-width:4; stroke-opacity:1; fill:none" points="199.283,1486.45 199.283,123.472 "/>
<polyline clip-path="url(#clip610)" style="stroke:#000000; stroke-linecap:round; stroke-linejoin:round; stroke-width:4; stroke-opacity:1; fill:none" points="199.283,1447.87 218.181,1447.87 "/>
<polyline clip-path="url(#clip610)" style="stroke:#000000; stroke-linecap:round; stroke-linejoin:round; stroke-width:4; stroke-opacity:1; fill:none" points="199.283,1132.72 218.181,1132.72 "/>
<polyline clip-path="url(#clip610)" style="stroke:#000000; stroke-linecap:round; stroke-linejoin:round; stroke-width:4; stroke-opacity:1; fill:none" points="199.283,817.566 218.181,817.566 "/>
<polyline clip-path="url(#clip610)" style="stroke:#000000; stroke-linecap:round; stroke-linejoin:round; stroke-width:4; stroke-opacity:1; fill:none" points="199.283,502.413 218.181,502.413 "/>
<polyline clip-path="url(#clip610)" style="stroke:#000000; stroke-linecap:round; stroke-linejoin:round; stroke-width:4; stroke-opacity:1; fill:none" points="199.283,187.259 218.181,187.259 "/>
<path clip-path="url(#clip610)" d="M151.339 1433.67 Q147.728 1433.67 145.899 1437.24 Q144.093 1440.78 144.093 1447.91 Q144.093 1455.01 145.899 1458.58 Q147.728 1462.12 151.339 1462.12 Q154.973 1462.12 156.779 1458.58 Q158.607 1455.01 158.607 1447.91 Q158.607 1440.78 156.779 1437.24 Q154.973 1433.67 151.339 1433.67 M151.339 1429.97 Q157.149 1429.97 160.205 1434.57 Q163.283 1439.16 163.283 1447.91 Q163.283 1456.63 160.205 1461.24 Q157.149 1465.82 151.339 1465.82 Q145.529 1465.82 142.45 1461.24 Q139.394 1456.63 139.394 1447.91 Q139.394 1439.16 142.45 1434.57 Q145.529 1429.97 151.339 1429.97 Z" fill="#000000" fill-rule="nonzero" fill-opacity="1" /><path clip-path="url(#clip610)" d="M85.0429 1146.06 L101.362 1146.06 L101.362 1150 L79.4179 1150 L79.4179 1146.06 Q82.0799 1143.31 86.6632 1138.68 Q91.2697 1134.03 92.4502 1132.68 Q94.6956 1130.16 95.5752 1128.43 Q96.478 1126.67 96.478 1124.98 Q96.478 1122.22 94.5336 1120.49 Q92.6123 1118.75 89.5104 1118.75 Q87.3114 1118.75 84.8577 1119.51 Q82.4271 1120.28 79.6494 1121.83 L79.6494 1117.11 Q82.4734 1115.97 84.9271 1115.39 Q87.3808 1114.81 89.4178 1114.81 Q94.7882 1114.81 97.9826 1117.5 Q101.177 1120.18 101.177 1124.68 Q101.177 1126.81 100.367 1128.73 Q99.5798 1130.62 97.4734 1133.22 Q96.8947 1133.89 93.7928 1137.11 Q90.691 1140.3 85.0429 1146.06 Z" fill="#000000" fill-rule="nonzero" fill-opacity="1" /><path clip-path="url(#clip610)" d="M111.223 1115.44 L129.58 1115.44 L129.58 1119.37 L115.506 1119.37 L115.506 1127.85 Q116.524 1127.5 117.543 1127.34 Q118.561 1127.15 119.58 1127.15 Q125.367 1127.15 128.746 1130.32 Q132.126 1133.5 132.126 1138.91 Q132.126 1144.49 128.654 1147.59 Q125.182 1150.67 118.862 1150.67 Q116.686 1150.67 114.418 1150.3 Q112.172 1149.93 109.765 1149.19 L109.765 1144.49 Q111.848 1145.62 114.07 1146.18 Q116.293 1146.74 118.77 1146.74 Q122.774 1146.74 125.112 1144.63 Q127.45 1142.52 127.45 1138.91 Q127.45 1135.3 125.112 1133.19 Q122.774 1131.09 118.77 1131.09 Q116.895 1131.09 115.02 1131.5 Q113.168 1131.92 111.223 1132.8 L111.223 1115.44 Z" fill="#000000" fill-rule="nonzero" fill-opacity="1" /><path clip-path="url(#clip610)" d="M151.339 1118.52 Q147.728 1118.52 145.899 1122.08 Q144.093 1125.62 144.093 1132.75 Q144.093 1139.86 145.899 1143.43 Q147.728 1146.97 151.339 1146.97 Q154.973 1146.97 156.779 1143.43 Q158.607 1139.86 158.607 1132.75 Q158.607 1125.62 156.779 1122.08 Q154.973 1118.52 151.339 1118.52 M151.339 1114.81 Q157.149 1114.81 160.205 1119.42 Q163.283 1124 163.283 1132.75 Q163.283 1141.48 160.205 1146.09 Q157.149 1150.67 151.339 1150.67 Q145.529 1150.67 142.45 1146.09 Q139.394 1141.48 139.394 1132.75 Q139.394 1124 142.45 1119.42 Q145.529 1114.81 151.339 1114.81 Z" fill="#000000" fill-rule="nonzero" fill-opacity="1" /><path clip-path="url(#clip610)" d="M81.0614 800.286 L99.4178 800.286 L99.4178 804.221 L85.3438 804.221 L85.3438 812.693 Q86.3623 812.346 87.3808 812.184 Q88.3993 811.999 89.4178 811.999 Q95.2049 811.999 98.5845 815.17 Q101.964 818.342 101.964 823.758 Q101.964 829.337 98.4919 832.439 Q95.0197 835.517 88.7003 835.517 Q86.5243 835.517 84.2558 835.147 Q82.0105 834.777 79.6031 834.036 L79.6031 829.337 Q81.6864 830.471 83.9086 831.027 Q86.1308 831.582 88.6077 831.582 Q92.6123 831.582 94.9502 829.476 Q97.2882 827.369 97.2882 823.758 Q97.2882 820.147 94.9502 818.041 Q92.6123 815.934 88.6077 815.934 Q86.7327 815.934 84.8577 816.351 Q83.0058 816.768 81.0614 817.647 L81.0614 800.286 Z" fill="#000000" fill-rule="nonzero" fill-opacity="1" /><path clip-path="url(#clip610)" d="M121.177 803.365 Q117.566 803.365 115.737 806.93 Q113.932 810.471 113.932 817.601 Q113.932 824.707 115.737 828.272 Q117.566 831.814 121.177 831.814 Q124.811 831.814 126.617 828.272 Q128.445 824.707 128.445 817.601 Q128.445 810.471 126.617 806.93 Q124.811 803.365 121.177 803.365 M121.177 799.661 Q126.987 799.661 130.043 804.268 Q133.121 808.851 133.121 817.601 Q133.121 826.328 130.043 830.934 Q126.987 835.517 121.177 835.517 Q115.367 835.517 112.288 830.934 Q109.233 826.328 109.233 817.601 Q109.233 808.851 112.288 804.268 Q115.367 799.661 121.177 799.661 Z" fill="#000000" fill-rule="nonzero" fill-opacity="1" /><path clip-path="url(#clip610)" d="M151.339 803.365 Q147.728 803.365 145.899 806.93 Q144.093 810.471 144.093 817.601 Q144.093 824.707 145.899 828.272 Q147.728 831.814 151.339 831.814 Q154.973 831.814 156.779 828.272 Q158.607 824.707 158.607 817.601 Q158.607 810.471 156.779 806.93 Q154.973 803.365 151.339 803.365 M151.339 799.661 Q157.149 799.661 160.205 804.268 Q163.283 808.851 163.283 817.601 Q163.283 826.328 160.205 830.934 Q157.149 835.517 151.339 835.517 Q145.529 835.517 142.45 830.934 Q139.394 826.328 139.394 817.601 Q139.394 808.851 142.45 804.268 Q145.529 799.661 151.339 799.661 Z" fill="#000000" fill-rule="nonzero" fill-opacity="1" /><path clip-path="url(#clip610)" d="M79.8346 485.133 L102.057 485.133 L102.057 487.123 L89.5104 519.693 L84.6262 519.693 L96.4317 489.068 L79.8346 489.068 L79.8346 485.133 Z" fill="#000000" fill-rule="nonzero" fill-opacity="1" /><path clip-path="url(#clip610)" d="M111.223 485.133 L129.58 485.133 L129.58 489.068 L115.506 489.068 L115.506 497.54 Q116.524 497.193 117.543 497.031 Q118.561 496.846 119.58 496.846 Q125.367 496.846 128.746 500.017 Q132.126 503.188 132.126 508.605 Q132.126 514.183 128.654 517.285 Q125.182 520.364 118.862 520.364 Q116.686 520.364 114.418 519.994 Q112.172 519.623 109.765 518.882 L109.765 514.183 Q111.848 515.318 114.07 515.873 Q116.293 516.429 118.77 516.429 Q122.774 516.429 125.112 514.322 Q127.45 512.216 127.45 508.605 Q127.45 504.994 125.112 502.887 Q122.774 500.781 118.77 500.781 Q116.895 500.781 115.02 501.197 Q113.168 501.614 111.223 502.494 L111.223 485.133 Z" fill="#000000" fill-rule="nonzero" fill-opacity="1" /><path clip-path="url(#clip610)" d="M151.339 488.211 Q147.728 488.211 145.899 491.776 Q144.093 495.318 144.093 502.447 Q144.093 509.554 145.899 513.119 Q147.728 516.66 151.339 516.66 Q154.973 516.66 156.779 513.119 Q158.607 509.554 158.607 502.447 Q158.607 495.318 156.779 491.776 Q154.973 488.211 151.339 488.211 M151.339 484.508 Q157.149 484.508 160.205 489.114 Q163.283 493.697 163.283 502.447 Q163.283 511.174 160.205 515.781 Q157.149 520.364 151.339 520.364 Q145.529 520.364 142.45 515.781 Q139.394 511.174 139.394 502.447 Q139.394 493.697 142.45 489.114 Q145.529 484.508 151.339 484.508 Z" fill="#000000" fill-rule="nonzero" fill-opacity="1" /><path clip-path="url(#clip610)" d="M51.6634 200.604 L59.3023 200.604 L59.3023 174.238 L50.9921 175.905 L50.9921 171.646 L59.256 169.979 L63.9319 169.979 L63.9319 200.604 L71.5707 200.604 L71.5707 204.539 L51.6634 204.539 L51.6634 200.604 Z" fill="#000000" fill-rule="nonzero" fill-opacity="1" /><path clip-path="url(#clip610)" d="M91.0151 173.058 Q87.404 173.058 85.5753 176.623 Q83.7697 180.164 83.7697 187.294 Q83.7697 194.4 85.5753 197.965 Q87.404 201.507 91.0151 201.507 Q94.6493 201.507 96.4548 197.965 Q98.2835 194.4 98.2835 187.294 Q98.2835 180.164 96.4548 176.623 Q94.6493 173.058 91.0151 173.058 M91.0151 169.354 Q96.8252 169.354 99.8808 173.961 Q102.959 178.544 102.959 187.294 Q102.959 196.021 99.8808 200.627 Q96.8252 205.21 91.0151 205.21 Q85.2049 205.21 82.1262 200.627 Q79.0707 196.021 79.0707 187.294 Q79.0707 178.544 82.1262 173.961 Q85.2049 169.354 91.0151 169.354 Z" fill="#000000" fill-rule="nonzero" fill-opacity="1" /><path clip-path="url(#clip610)" d="M121.177 173.058 Q117.566 173.058 115.737 176.623 Q113.932 180.164 113.932 187.294 Q113.932 194.4 115.737 197.965 Q117.566 201.507 121.177 201.507 Q124.811 201.507 126.617 197.965 Q128.445 194.4 128.445 187.294 Q128.445 180.164 126.617 176.623 Q124.811 173.058 121.177 173.058 M121.177 169.354 Q126.987 169.354 130.043 173.961 Q133.121 178.544 133.121 187.294 Q133.121 196.021 130.043 200.627 Q126.987 205.21 121.177 205.21 Q115.367 205.21 112.288 200.627 Q109.233 196.021 109.233 187.294 Q109.233 178.544 112.288 173.961 Q115.367 169.354 121.177 169.354 Z" fill="#000000" fill-rule="nonzero" fill-opacity="1" /><path clip-path="url(#clip610)" d="M151.339 173.058 Q147.728 173.058 145.899 176.623 Q144.093 180.164 144.093 187.294 Q144.093 194.4 145.899 197.965 Q147.728 201.507 151.339 201.507 Q154.973 201.507 156.779 197.965 Q158.607 194.4 158.607 187.294 Q158.607 180.164 156.779 176.623 Q154.973 173.058 151.339 173.058 M151.339 169.354 Q157.149 169.354 160.205 173.961 Q163.283 178.544 163.283 187.294 Q163.283 196.021 160.205 200.627 Q157.149 205.21 151.339 205.21 Q145.529 205.21 142.45 200.627 Q139.394 196.021 139.394 187.294 Q139.394 178.544 142.45 173.961 Q145.529 169.354 151.339 169.354 Z" fill="#000000" fill-rule="nonzero" fill-opacity="1" /><path clip-path="url(#clip610)" d="M1193 18.8205 L1193 65.8515 L1202.88 65.8515 Q1215.4 65.8515 1221.19 60.1802 Q1227.02 54.509 1227.02 42.2752 Q1227.02 30.1225 1221.19 24.4918 Q1215.4 18.8205 1202.88 18.8205 L1193 18.8205 M1184.81 12.096 L1201.62 12.096 Q1219.21 12.096 1227.43 19.4281 Q1235.65 26.7198 1235.65 42.2752 Q1235.65 57.9117 1227.39 65.2439 Q1219.12 72.576 1201.62 72.576 L1184.81 72.576 L1184.81 12.096 Z" fill="#000000" fill-rule="nonzero" fill-opacity="1" /><path clip-path="url(#clip610)" d="M1268.99 49.7694 Q1259.96 49.7694 1256.47 51.8354 Q1252.99 53.9013 1252.99 58.8839 Q1252.99 62.8538 1255.58 65.2034 Q1258.22 67.5124 1262.71 67.5124 Q1268.91 67.5124 1272.64 63.1374 Q1276.4 58.7219 1276.4 51.4303 L1276.4 49.7694 L1268.99 49.7694 M1283.86 46.6907 L1283.86 72.576 L1276.4 72.576 L1276.4 65.6895 Q1273.85 69.8214 1270.04 71.8063 Q1266.24 73.7508 1260.73 73.7508 Q1253.76 73.7508 1249.63 69.8619 Q1245.54 65.9325 1245.54 59.3701 Q1245.54 51.7138 1250.64 47.825 Q1255.79 43.9361 1265.95 43.9361 L1276.4 43.9361 L1276.4 43.2069 Q1276.4 38.0623 1273 35.2672 Q1269.64 32.4315 1263.52 32.4315 Q1259.63 32.4315 1255.95 33.3632 Q1252.26 34.295 1248.86 36.1584 L1248.86 29.2718 Q1252.95 27.692 1256.8 26.9223 Q1260.65 26.1121 1264.29 26.1121 Q1274.14 26.1121 1279 31.2163 Q1283.86 36.3204 1283.86 46.6907 Z" fill="#000000" fill-rule="nonzero" fill-opacity="1" /><path clip-path="url(#clip610)" d="M1306.58 14.324 L1306.58 27.2059 L1321.94 27.2059 L1321.94 32.9987 L1306.58 32.9987 L1306.58 57.6282 Q1306.58 63.1779 1308.08 64.7578 Q1309.62 66.3376 1314.28 66.3376 L1321.94 66.3376 L1321.94 72.576 L1314.28 72.576 Q1305.65 72.576 1302.37 69.3758 Q1299.09 66.1351 1299.09 57.6282 L1299.09 32.9987 L1293.62 32.9987 L1293.62 27.2059 L1299.09 27.2059 L1299.09 14.324 L1306.58 14.324 Z" fill="#000000" fill-rule="nonzero" fill-opacity="1" /><path clip-path="url(#clip610)" d="M1352.36 49.7694 Q1343.33 49.7694 1339.84 51.8354 Q1336.36 53.9013 1336.36 58.8839 Q1336.36 62.8538 1338.95 65.2034 Q1341.58 67.5124 1346.08 67.5124 Q1352.28 67.5124 1356 63.1374 Q1359.77 58.7219 1359.77 51.4303 L1359.77 49.7694 L1352.36 49.7694 M1367.23 46.6907 L1367.23 72.576 L1359.77 72.576 L1359.77 65.6895 Q1357.22 69.8214 1353.41 71.8063 Q1349.6 73.7508 1344.09 73.7508 Q1337.13 73.7508 1333 69.8619 Q1328.9 65.9325 1328.9 59.3701 Q1328.9 51.7138 1334.01 47.825 Q1339.15 43.9361 1349.32 43.9361 L1359.77 43.9361 L1359.77 43.2069 Q1359.77 38.0623 1356.37 35.2672 Q1353.01 32.4315 1346.89 32.4315 Q1343 32.4315 1339.31 33.3632 Q1335.63 34.295 1332.23 36.1584 L1332.23 29.2718 Q1336.32 27.692 1340.17 26.9223 Q1344.01 26.1121 1347.66 26.1121 Q1357.5 26.1121 1362.36 31.2163 Q1367.23 36.3204 1367.23 46.6907 Z" fill="#000000" fill-rule="nonzero" fill-opacity="1" /><polyline clip-path="url(#clip612)" style="stroke:#009af9; stroke-linecap:round; stroke-linejoin:round; stroke-width:4; stroke-opacity:1; fill:none" points="260.231,1447.87 260.231,1422.66 294.09,1422.66 294.09,1359.63 327.95,1359.63 327.95,1347.02 361.809,1347.02 361.809,1296.6 395.669,1296.6 395.669,1233.57 429.529,1233.57 429.529,1132.72 463.388,1132.72 463.388,1006.66 497.248,1006.66 531.108,1006.66 531.108,994.052 564.967,994.052 564.967,867.991 598.827,867.991 598.827,918.415 632.687,918.415 632.687,905.809 666.546,905.809 666.546,1044.48 700.406,1044.48 700.406,981.446 734.265,981.446 734.265,1082.3 768.125,1082.3 768.125,1145.33 801.985,1145.33 801.985,1195.75 835.844,1195.75 835.844,1309.21 869.704,1309.21 869.704,1258.78 903.564,1258.78 903.564,1422.66 937.423,1422.66 937.423,1359.63 971.283,1359.63 971.283,1397.45 1005.14,1397.45 1039,1397.45 1039,1447.87 1072.86,1447.87 1072.86,1410.05 1106.72,1410.05 1106.72,1447.87 1140.58,1447.87 1140.58,1397.45 1174.44,1397.45 1174.44,1435.27 1208.3,1435.27 1208.3,1384.84 1242.16,1384.84 1242.16,1283.99 1276.02,1283.99 1276.02,1258.78 1309.88,1258.78 1343.74,1258.78 1343.74,1157.93 1377.6,1157.93 1377.6,1107.51 1411.46,1107.51 1411.46,981.446 1445.32,981.446 1445.32,704.111 1479.18,704.111 1479.18,716.717 1513.04,716.717 1513.04,615.868 1546.9,615.868 1546.9,603.262 1580.76,603.262 1580.76,237.684 1614.62,237.684 1614.62,162.047 1648.48,162.047 1648.48,464.594 1682.34,464.594 1682.34,502.413 1716.19,502.413 1716.19,615.868 1750.05,615.868 1750.05,792.354 1783.91,792.354 1783.91,905.809 1817.77,905.809 1817.77,1057.08 1851.63,1057.08 1851.63,1195.75 1885.49,1195.75 1919.35,1195.75 1919.35,1334.42 1953.21,1334.42 1953.21,1410.05 1987.07,1410.05 1987.07,1372.24 2020.93,1372.24 2020.93,1397.45 2054.79,1397.45 2054.79,1447.87 2088.65,1447.87 2088.65,1410.05 2122.51,1410.05 2122.51,1447.87 2156.37,1447.87 2190.23,1447.87 2224.09,1447.87 2257.95,1447.87 2291.81,1447.87 "/>
<path clip-path="url(#clip610)" d="M1961.39 272.585 L2280.97 272.585 L2280.97 168.905 L1961.39 168.905  Z" fill="#ffffff" fill-rule="evenodd" fill-opacity="1"/>
<polyline clip-path="url(#clip610)" style="stroke:#000000; stroke-linecap:round; stroke-linejoin:round; stroke-width:4; stroke-opacity:1; fill:none" points="1961.39,272.585 2280.97,272.585 2280.97,168.905 1961.39,168.905 1961.39,272.585 "/>
<polyline clip-path="url(#clip610)" style="stroke:#009af9; stroke-linecap:round; stroke-linejoin:round; stroke-width:4; stroke-opacity:1; fill:none" points="1985.32,220.745 2128.88,220.745 "/>
<path clip-path="url(#clip610)" d="M2157.49 207.307 L2157.49 234.182 L2163.13 234.182 Q2170.29 234.182 2173.6 230.941 Q2176.93 227.701 2176.93 220.71 Q2176.93 213.766 2173.6 210.548 Q2170.29 207.307 2163.13 207.307 L2157.49 207.307 M2152.81 203.465 L2162.42 203.465 Q2172.46 203.465 2177.16 207.654 Q2181.86 211.821 2181.86 220.71 Q2181.86 229.645 2177.14 233.835 Q2172.42 238.025 2162.42 238.025 L2152.81 238.025 L2152.81 203.465 Z" fill="#000000" fill-rule="nonzero" fill-opacity="1" /><path clip-path="url(#clip610)" d="M2200.91 224.992 Q2195.75 224.992 2193.76 226.173 Q2191.77 227.353 2191.77 230.201 Q2191.77 232.469 2193.25 233.812 Q2194.75 235.131 2197.32 235.131 Q2200.87 235.131 2203 232.631 Q2205.15 230.108 2205.15 225.941 L2205.15 224.992 L2200.91 224.992 M2209.41 223.233 L2209.41 238.025 L2205.15 238.025 L2205.15 234.089 Q2203.69 236.451 2201.51 237.585 Q2199.34 238.696 2196.19 238.696 Q2192.21 238.696 2189.85 236.474 Q2187.51 234.228 2187.51 230.478 Q2187.51 226.103 2190.43 223.881 Q2193.37 221.659 2199.18 221.659 L2205.15 221.659 L2205.15 221.242 Q2205.15 218.303 2203.2 216.705 Q2201.28 215.085 2197.79 215.085 Q2195.56 215.085 2193.46 215.617 Q2191.35 216.15 2189.41 217.215 L2189.41 213.279 Q2191.75 212.377 2193.94 211.937 Q2196.14 211.474 2198.23 211.474 Q2203.85 211.474 2206.63 214.391 Q2209.41 217.307 2209.41 223.233 Z" fill="#000000" fill-rule="nonzero" fill-opacity="1" /><path clip-path="url(#clip610)" d="M2222.39 204.738 L2222.39 212.099 L2231.17 212.099 L2231.17 215.409 L2222.39 215.409 L2222.39 229.483 Q2222.39 232.654 2223.25 233.557 Q2224.13 234.46 2226.79 234.46 L2231.17 234.46 L2231.17 238.025 L2226.79 238.025 Q2221.86 238.025 2219.99 236.196 Q2218.11 234.344 2218.11 229.483 L2218.11 215.409 L2214.99 215.409 L2214.99 212.099 L2218.11 212.099 L2218.11 204.738 L2222.39 204.738 Z" fill="#000000" fill-rule="nonzero" fill-opacity="1" /><path clip-path="url(#clip610)" d="M2248.55 224.992 Q2243.39 224.992 2241.4 226.173 Q2239.41 227.353 2239.41 230.201 Q2239.41 232.469 2240.89 233.812 Q2242.39 235.131 2244.96 235.131 Q2248.5 235.131 2250.63 232.631 Q2252.79 230.108 2252.79 225.941 L2252.79 224.992 L2248.55 224.992 M2257.05 223.233 L2257.05 238.025 L2252.79 238.025 L2252.79 234.089 Q2251.33 236.451 2249.15 237.585 Q2246.98 238.696 2243.83 238.696 Q2239.85 238.696 2237.49 236.474 Q2235.15 234.228 2235.15 230.478 Q2235.15 226.103 2238.06 223.881 Q2241 221.659 2246.81 221.659 L2252.79 221.659 L2252.79 221.242 Q2252.79 218.303 2250.84 216.705 Q2248.92 215.085 2245.43 215.085 Q2243.2 215.085 2241.1 215.617 Q2238.99 216.15 2237.05 217.215 L2237.05 213.279 Q2239.38 212.377 2241.58 211.937 Q2243.78 211.474 2245.87 211.474 Q2251.49 211.474 2254.27 214.391 Q2257.05 217.307 2257.05 223.233 Z" fill="#000000" fill-rule="nonzero" fill-opacity="1" /></svg>
