<?xml version="1.0" encoding="utf-8"?>
<svg xmlns="http://www.w3.org/2000/svg" xmlns:xlink="http://www.w3.org/1999/xlink" width="600" height="400" viewBox="0 0 2400 1600">
<defs>
  <clipPath id="clip130">
    <rect x="0" y="0" width="2400" height="1600"/>
  </clipPath>
</defs>
<path clip-path="url(#clip130)" d="
M0 1600 L2400 1600 L2400 0 L0 0  Z
  " fill="#ffffff" fill-rule="evenodd" fill-opacity="1"/>
<defs>
  <clipPath id="clip131">
    <rect x="480" y="0" width="1681" height="1600"/>
  </clipPath>
</defs>
<path clip-path="url(#clip130)" d="
M166.205 1486.45 L2352.76 1486.45 L2352.76 123.472 L166.205 123.472  Z
  " fill="#ffffff" fill-rule="evenodd" fill-opacity="1"/>
<defs>
  <clipPath id="clip132">
    <rect x="166" y="123" width="2188" height="1364"/>
  </clipPath>
</defs>
<polyline clip-path="url(#clip132)" style="stroke:#000000; stroke-width:2; stroke-opacity:0.1; fill:none" points="
  228.088,1486.45 228.088,123.472 
  "/>
<polyline clip-path="url(#clip132)" style="stroke:#000000; stroke-width:2; stroke-opacity:0.1; fill:none" points="
  743.784,1486.45 743.784,123.472 
  "/>
<polyline clip-path="url(#clip132)" style="stroke:#000000; stroke-width:2; stroke-opacity:0.1; fill:none" points="
  1259.48,1486.45 1259.48,123.472 
  "/>
<polyline clip-path="url(#clip132)" style="stroke:#000000; stroke-width:2; stroke-opacity:0.1; fill:none" points="
  1775.18,1486.45 1775.18,123.472 
  "/>
<polyline clip-path="url(#clip132)" style="stroke:#000000; stroke-width:2; stroke-opacity:0.1; fill:none" points="
  2290.87,1486.45 2290.87,123.472 
  "/>
<polyline clip-path="url(#clip130)" style="stroke:#000000; stroke-width:4; stroke-opacity:1; fill:none" points="
  166.205,1486.45 2352.76,1486.45 
  "/>
<polyline clip-path="url(#clip130)" style="stroke:#000000; stroke-width:4; stroke-opacity:1; fill:none" points="
  228.088,1486.45 228.088,1470.09 
  "/>
<polyline clip-path="url(#clip130)" style="stroke:#000000; stroke-width:4; stroke-opacity:1; fill:none" points="
  743.784,1486.45 743.784,1470.09 
  "/>
<polyline clip-path="url(#clip130)" style="stroke:#000000; stroke-width:4; stroke-opacity:1; fill:none" points="
  1259.48,1486.45 1259.48,1470.09 
  "/>
<polyline clip-path="url(#clip130)" style="stroke:#000000; stroke-width:4; stroke-opacity:1; fill:none" points="
  1775.18,1486.45 1775.18,1470.09 
  "/>
<polyline clip-path="url(#clip130)" style="stroke:#000000; stroke-width:4; stroke-opacity:1; fill:none" points="
  2290.87,1486.45 2290.87,1470.09 
  "/>
<path clip-path="url(#clip130)" d="M 0 0 M199.5 1530.29 L229.176 1530.29 L229.176 1534.23 L199.5 1534.23 L199.5 1530.29 Z" fill="#000000" fill-rule="evenodd" fill-opacity="1" /><path clip-path="url(#clip130)" d="M 0 0 M247.093 1516.63 L235.287 1535.08 L247.093 1535.08 L247.093 1516.63 M245.866 1512.56 L251.745 1512.56 L251.745 1535.08 L256.676 1535.08 L256.676 1538.97 L251.745 1538.97 L251.745 1547.12 L247.093 1547.12 L247.093 1538.97 L231.491 1538.97 L231.491 1534.46 L245.866 1512.56 Z" fill="#000000" fill-rule="evenodd" fill-opacity="1" /><path clip-path="url(#clip130)" d="M 0 0 M716.238 1530.29 L745.914 1530.29 L745.914 1534.23 L716.238 1534.23 L716.238 1530.29 Z" fill="#000000" fill-rule="evenodd" fill-opacity="1" /><path clip-path="url(#clip130)" d="M 0 0 M755.011 1543.18 L771.33 1543.18 L771.33 1547.12 L749.386 1547.12 L749.386 1543.18 Q752.048 1540.43 756.631 1535.8 Q761.238 1531.15 762.418 1529.81 Q764.664 1527.28 765.543 1525.55 Q766.446 1523.79 766.446 1522.1 Q766.446 1519.34 764.502 1517.61 Q762.58 1515.87 759.479 1515.87 Q757.28 1515.87 754.826 1516.63 Q752.395 1517.4 749.618 1518.95 L749.618 1514.23 Q752.442 1513.09 754.895 1512.51 Q757.349 1511.93 759.386 1511.93 Q764.756 1511.93 767.951 1514.62 Q771.145 1517.31 771.145 1521.8 Q771.145 1523.93 770.335 1525.85 Q769.548 1527.74 767.442 1530.34 Q766.863 1531.01 763.761 1534.23 Q760.659 1537.42 755.011 1543.18 Z" fill="#000000" fill-rule="evenodd" fill-opacity="1" /><path clip-path="url(#clip130)" d="M 0 0 M1259.48 1515.64 Q1255.87 1515.64 1254.04 1519.2 Q1252.23 1522.75 1252.23 1529.87 Q1252.23 1536.98 1254.04 1540.55 Q1255.87 1544.09 1259.48 1544.09 Q1263.11 1544.09 1264.92 1540.55 Q1266.75 1536.98 1266.75 1529.87 Q1266.75 1522.75 1264.92 1519.2 Q1263.11 1515.64 1259.48 1515.64 M1259.48 1511.93 Q1265.29 1511.93 1268.35 1516.54 Q1271.42 1521.12 1271.42 1529.87 Q1271.42 1538.6 1268.35 1543.21 Q1265.29 1547.79 1259.48 1547.79 Q1253.67 1547.79 1250.59 1543.21 Q1247.54 1538.6 1247.54 1529.87 Q1247.54 1521.12 1250.59 1516.54 Q1253.67 1511.93 1259.48 1511.93 Z" fill="#000000" fill-rule="evenodd" fill-opacity="1" /><path clip-path="url(#clip130)" d="M 0 0 M1769.83 1543.18 L1786.15 1543.18 L1786.15 1547.12 L1764.2 1547.12 L1764.2 1543.18 Q1766.87 1540.43 1771.45 1535.8 Q1776.06 1531.15 1777.24 1529.81 Q1779.48 1527.28 1780.36 1525.55 Q1781.26 1523.79 1781.26 1522.1 Q1781.26 1519.34 1779.32 1517.61 Q1777.4 1515.87 1774.3 1515.87 Q1772.1 1515.87 1769.64 1516.63 Q1767.21 1517.4 1764.44 1518.95 L1764.44 1514.23 Q1767.26 1513.09 1769.71 1512.51 Q1772.17 1511.93 1774.2 1511.93 Q1779.57 1511.93 1782.77 1514.62 Q1785.96 1517.31 1785.96 1521.8 Q1785.96 1523.93 1785.15 1525.85 Q1784.37 1527.74 1782.26 1530.34 Q1781.68 1531.01 1778.58 1534.23 Q1775.48 1537.42 1769.83 1543.18 Z" fill="#000000" fill-rule="evenodd" fill-opacity="1" /><path clip-path="url(#clip130)" d="M 0 0 M2293.88 1516.63 L2282.08 1535.08 L2293.88 1535.08 L2293.88 1516.63 M2292.65 1512.56 L2298.53 1512.56 L2298.53 1535.08 L2303.46 1535.08 L2303.46 1538.97 L2298.53 1538.97 L2298.53 1547.12 L2293.88 1547.12 L2293.88 1538.97 L2278.28 1538.97 L2278.28 1534.46 L2292.65 1512.56 Z" fill="#000000" fill-rule="evenodd" fill-opacity="1" /><polyline clip-path="url(#clip132)" style="stroke:#000000; stroke-width:2; stroke-opacity:0.1; fill:none" points="
  166.205,1447.87 2352.76,1447.87 
  "/>
<polyline clip-path="url(#clip132)" style="stroke:#000000; stroke-width:2; stroke-opacity:0.1; fill:none" points="
  166.205,1125.56 2352.76,1125.56 
  "/>
<polyline clip-path="url(#clip132)" style="stroke:#000000; stroke-width:2; stroke-opacity:0.1; fill:none" points="
  166.205,803.255 2352.76,803.255 
  "/>
<polyline clip-path="url(#clip132)" style="stroke:#000000; stroke-width:2; stroke-opacity:0.1; fill:none" points="
  166.205,480.947 2352.76,480.947 
  "/>
<polyline clip-path="url(#clip132)" style="stroke:#000000; stroke-width:2; stroke-opacity:0.1; fill:none" points="
  166.205,158.638 2352.76,158.638 
  "/>
<polyline clip-path="url(#clip130)" style="stroke:#000000; stroke-width:4; stroke-opacity:1; fill:none" points="
  166.205,1486.45 166.205,123.472 
  "/>
<polyline clip-path="url(#clip130)" style="stroke:#000000; stroke-width:4; stroke-opacity:1; fill:none" points="
  166.205,1447.87 192.443,1447.87 
  "/>
<polyline clip-path="url(#clip130)" style="stroke:#000000; stroke-width:4; stroke-opacity:1; fill:none" points="
  166.205,1125.56 192.443,1125.56 
  "/>
<polyline clip-path="url(#clip130)" style="stroke:#000000; stroke-width:4; stroke-opacity:1; fill:none" points="
  166.205,803.255 192.443,803.255 
  "/>
<polyline clip-path="url(#clip130)" style="stroke:#000000; stroke-width:4; stroke-opacity:1; fill:none" points="
  166.205,480.947 192.443,480.947 
  "/>
<polyline clip-path="url(#clip130)" style="stroke:#000000; stroke-width:4; stroke-opacity:1; fill:none" points="
  166.205,158.638 192.443,158.638 
  "/>
<path clip-path="url(#clip130)" d="M 0 0 M118.26 1433.67 Q114.649 1433.67 112.82 1437.24 Q111.015 1440.78 111.015 1447.91 Q111.015 1455.01 112.82 1458.58 Q114.649 1462.12 118.26 1462.12 Q121.895 1462.12 123.7 1458.58 Q125.529 1455.01 125.529 1447.91 Q125.529 1440.78 123.7 1437.24 Q121.895 1433.67 118.26 1433.67 M118.26 1429.97 Q124.07 1429.97 127.126 1434.57 Q130.205 1439.16 130.205 1447.91 Q130.205 1456.63 127.126 1461.24 Q124.07 1465.82 118.26 1465.82 Q112.45 1465.82 109.371 1461.24 Q106.316 1456.63 106.316 1447.91 Q106.316 1439.16 109.371 1434.57 Q112.45 1429.97 118.26 1429.97 Z" fill="#000000" fill-rule="evenodd" fill-opacity="1" /><path clip-path="url(#clip130)" d="M 0 0 M59.8578 1138.91 L76.1772 1138.91 L76.1772 1142.84 L54.2328 1142.84 L54.2328 1138.91 Q56.8949 1136.15 61.4782 1131.52 Q66.0846 1126.87 67.2652 1125.53 Q69.5105 1123.01 70.3902 1121.27 Q71.2929 1119.51 71.2929 1117.82 Q71.2929 1115.07 69.3485 1113.33 Q67.4272 1111.59 64.3254 1111.59 Q62.1263 1111.59 59.6726 1112.36 Q57.2421 1113.12 54.4643 1114.67 L54.4643 1109.95 Q57.2884 1108.82 59.7421 1108.24 Q62.1958 1107.66 64.2328 1107.66 Q69.6031 1107.66 72.7976 1110.34 Q75.992 1113.03 75.992 1117.52 Q75.992 1119.65 75.1818 1121.57 Q74.3948 1123.47 72.2883 1126.06 Q71.7096 1126.73 68.6078 1129.95 Q65.5059 1133.15 59.8578 1138.91 Z" fill="#000000" fill-rule="evenodd" fill-opacity="1" /><path clip-path="url(#clip130)" d="M 0 0 M91.2465 1111.36 Q87.6354 1111.36 85.8068 1114.93 Q84.0012 1118.47 84.0012 1125.6 Q84.0012 1132.71 85.8068 1136.27 Q87.6354 1139.81 91.2465 1139.81 Q94.8808 1139.81 96.6863 1136.27 Q98.515 1132.71 98.515 1125.6 Q98.515 1118.47 96.6863 1114.93 Q94.8808 1111.36 91.2465 1111.36 M91.2465 1107.66 Q97.0567 1107.66 100.112 1112.27 Q103.191 1116.85 103.191 1125.6 Q103.191 1134.33 100.112 1138.93 Q97.0567 1143.52 91.2465 1143.52 Q85.4364 1143.52 82.3577 1138.93 Q79.3022 1134.33 79.3022 1125.6 Q79.3022 1116.85 82.3577 1112.27 Q85.4364 1107.66 91.2465 1107.66 Z" fill="#000000" fill-rule="evenodd" fill-opacity="1" /><path clip-path="url(#clip130)" d="M 0 0 M118.26 1111.36 Q114.649 1111.36 112.82 1114.93 Q111.015 1118.47 111.015 1125.6 Q111.015 1132.71 112.82 1136.27 Q114.649 1139.81 118.26 1139.81 Q121.895 1139.81 123.7 1136.27 Q125.529 1132.71 125.529 1125.6 Q125.529 1118.47 123.7 1114.93 Q121.895 1111.36 118.26 1111.36 M118.26 1107.66 Q124.07 1107.66 127.126 1112.27 Q130.205 1116.85 130.205 1125.6 Q130.205 1134.33 127.126 1138.93 Q124.07 1143.52 118.26 1143.52 Q112.45 1143.52 109.371 1138.93 Q106.316 1134.33 106.316 1125.6 Q106.316 1116.85 109.371 1112.27 Q112.45 1107.66 118.26 1107.66 Z" fill="#000000" fill-rule="evenodd" fill-opacity="1" /><path clip-path="url(#clip130)" d="M 0 0 M66.5939 790.049 L54.7884 808.498 L66.5939 808.498 L66.5939 790.049 M65.367 785.975 L71.2466 785.975 L71.2466 808.498 L76.1772 808.498 L76.1772 812.387 L71.2466 812.387 L71.2466 820.535 L66.5939 820.535 L66.5939 812.387 L50.9921 812.387 L50.9921 807.873 L65.367 785.975 Z" fill="#000000" fill-rule="evenodd" fill-opacity="1" /><path clip-path="url(#clip130)" d="M 0 0 M91.2465 789.054 Q87.6354 789.054 85.8068 792.619 Q84.0012 796.161 84.0012 803.29 Q84.0012 810.397 85.8068 813.961 Q87.6354 817.503 91.2465 817.503 Q94.8808 817.503 96.6863 813.961 Q98.515 810.397 98.515 803.29 Q98.515 796.161 96.6863 792.619 Q94.8808 789.054 91.2465 789.054 M91.2465 785.35 Q97.0567 785.35 100.112 789.957 Q103.191 794.54 103.191 803.29 Q103.191 812.017 100.112 816.623 Q97.0567 821.207 91.2465 821.207 Q85.4364 821.207 82.3577 816.623 Q79.3022 812.017 79.3022 803.29 Q79.3022 794.54 82.3577 789.957 Q85.4364 785.35 91.2465 785.35 Z" fill="#000000" fill-rule="evenodd" fill-opacity="1" /><path clip-path="url(#clip130)" d="M 0 0 M118.26 789.054 Q114.649 789.054 112.82 792.619 Q111.015 796.161 111.015 803.29 Q111.015 810.397 112.82 813.961 Q114.649 817.503 118.26 817.503 Q121.895 817.503 123.7 813.961 Q125.529 810.397 125.529 803.29 Q125.529 796.161 123.7 792.619 Q121.895 789.054 118.26 789.054 M118.26 785.35 Q124.07 785.35 127.126 789.957 Q130.205 794.54 130.205 803.29 Q130.205 812.017 127.126 816.623 Q124.07 821.207 118.26 821.207 Q112.45 821.207 109.371 816.623 Q106.316 812.017 106.316 803.29 Q106.316 794.54 109.371 789.957 Q112.45 785.35 118.26 785.35 Z" fill="#000000" fill-rule="evenodd" fill-opacity="1" /><path clip-path="url(#clip130)" d="M 0 0 M64.6495 479.083 Q61.5013 479.083 59.6495 481.236 Q57.8208 483.389 57.8208 487.139 Q57.8208 490.866 59.6495 493.041 Q61.5013 495.194 64.6495 495.194 Q67.7976 495.194 69.6263 493.041 Q71.4781 490.866 71.4781 487.139 Q71.4781 483.389 69.6263 481.236 Q67.7976 479.083 64.6495 479.083 M73.9318 464.431 L73.9318 468.69 Q72.1726 467.856 70.367 467.417 Q68.5846 466.977 66.8254 466.977 Q62.1958 466.977 59.7421 470.102 Q57.3115 473.227 56.9643 479.546 Q58.33 477.532 60.3902 476.467 Q62.4504 475.38 64.9272 475.38 Q70.1355 475.38 73.1448 478.551 Q76.1772 481.699 76.1772 487.139 Q76.1772 492.463 73.029 495.68 Q69.8809 498.898 64.6495 498.898 Q58.6541 498.898 55.4828 494.315 Q52.3116 489.708 52.3116 480.981 Q52.3116 472.787 56.2004 467.926 Q60.0893 463.042 66.6402 463.042 Q68.3994 463.042 70.1818 463.389 Q71.9874 463.736 73.9318 464.431 Z" fill="#000000" fill-rule="evenodd" fill-opacity="1" /><path clip-path="url(#clip130)" d="M 0 0 M91.2465 466.745 Q87.6354 466.745 85.8068 470.31 Q84.0012 473.852 84.0012 480.981 Q84.0012 488.088 85.8068 491.653 Q87.6354 495.194 91.2465 495.194 Q94.8808 495.194 96.6863 491.653 Q98.515 488.088 98.515 480.981 Q98.515 473.852 96.6863 470.31 Q94.8808 466.745 91.2465 466.745 M91.2465 463.042 Q97.0567 463.042 100.112 467.648 Q103.191 472.231 103.191 480.981 Q103.191 489.708 100.112 494.315 Q97.0567 498.898 91.2465 498.898 Q85.4364 498.898 82.3577 494.315 Q79.3022 489.708 79.3022 480.981 Q79.3022 472.231 82.3577 467.648 Q85.4364 463.042 91.2465 463.042 Z" fill="#000000" fill-rule="evenodd" fill-opacity="1" /><path clip-path="url(#clip130)" d="M 0 0 M118.26 466.745 Q114.649 466.745 112.82 470.31 Q111.015 473.852 111.015 480.981 Q111.015 488.088 112.82 491.653 Q114.649 495.194 118.26 495.194 Q121.895 495.194 123.7 491.653 Q125.529 488.088 125.529 480.981 Q125.529 473.852 123.7 470.31 Q121.895 466.745 118.26 466.745 M118.26 463.042 Q124.07 463.042 127.126 467.648 Q130.205 472.231 130.205 480.981 Q130.205 489.708 127.126 494.315 Q124.07 498.898 118.26 498.898 Q112.45 498.898 109.371 494.315 Q106.316 489.708 106.316 480.981 Q106.316 472.231 109.371 467.648 Q112.45 463.042 118.26 463.042 Z" fill="#000000" fill-rule="evenodd" fill-opacity="1" /><path clip-path="url(#clip130)" d="M 0 0 M64.3254 159.506 Q60.9921 159.506 59.0708 161.288 Q57.1726 163.071 57.1726 166.196 Q57.1726 169.321 59.0708 171.103 Q60.9921 172.885 64.3254 172.885 Q67.6587 172.885 69.58 171.103 Q71.5013 169.297 71.5013 166.196 Q71.5013 163.071 69.58 161.288 Q67.6819 159.506 64.3254 159.506 M59.6495 157.515 Q56.6402 156.774 54.9504 154.714 Q53.2838 152.654 53.2838 149.691 Q53.2838 145.548 56.2236 143.14 Q59.1865 140.733 64.3254 140.733 Q69.4874 140.733 72.4272 143.14 Q75.367 145.548 75.367 149.691 Q75.367 152.654 73.6772 154.714 Q72.0105 156.774 69.0244 157.515 Q72.404 158.302 74.279 160.594 Q76.1772 162.885 76.1772 166.196 Q76.1772 171.219 73.0985 173.904 Q70.0429 176.589 64.3254 176.589 Q58.6078 176.589 55.5291 173.904 Q52.4736 171.219 52.4736 166.196 Q52.4736 162.885 54.3717 160.594 Q56.2699 158.302 59.6495 157.515 M57.9365 150.131 Q57.9365 152.816 59.6032 154.321 Q61.293 155.825 64.3254 155.825 Q67.3346 155.825 69.0244 154.321 Q70.7374 152.816 70.7374 150.131 Q70.7374 147.446 69.0244 145.941 Q67.3346 144.436 64.3254 144.436 Q61.293 144.436 59.6032 145.941 Q57.9365 147.446 57.9365 150.131 Z" fill="#000000" fill-rule="evenodd" fill-opacity="1" /><path clip-path="url(#clip130)" d="M 0 0 M91.2465 144.436 Q87.6354 144.436 85.8068 148.001 Q84.0012 151.543 84.0012 158.673 Q84.0012 165.779 85.8068 169.344 Q87.6354 172.885 91.2465 172.885 Q94.8808 172.885 96.6863 169.344 Q98.515 165.779 98.515 158.673 Q98.515 151.543 96.6863 148.001 Q94.8808 144.436 91.2465 144.436 M91.2465 140.733 Q97.0567 140.733 100.112 145.339 Q103.191 149.923 103.191 158.673 Q103.191 167.399 100.112 172.006 Q97.0567 176.589 91.2465 176.589 Q85.4364 176.589 82.3577 172.006 Q79.3022 167.399 79.3022 158.673 Q79.3022 149.923 82.3577 145.339 Q85.4364 140.733 91.2465 140.733 Z" fill="#000000" fill-rule="evenodd" fill-opacity="1" /><path clip-path="url(#clip130)" d="M 0 0 M118.26 144.436 Q114.649 144.436 112.82 148.001 Q111.015 151.543 111.015 158.673 Q111.015 165.779 112.82 169.344 Q114.649 172.885 118.26 172.885 Q121.895 172.885 123.7 169.344 Q125.529 165.779 125.529 158.673 Q125.529 151.543 123.7 148.001 Q121.895 144.436 118.26 144.436 M118.26 140.733 Q124.07 140.733 127.126 145.339 Q130.205 149.923 130.205 158.673 Q130.205 167.399 127.126 172.006 Q124.07 176.589 118.26 176.589 Q112.45 176.589 109.371 172.006 Q106.316 167.399 106.316 158.673 Q106.316 149.923 109.371 145.339 Q112.45 140.733 118.26 140.733 Z" fill="#000000" fill-rule="evenodd" fill-opacity="1" /><path clip-path="url(#clip130)" d="M 0 0 M697.458 18.8205 L697.458 65.8515 L707.342 65.8515 Q719.859 65.8515 725.652 60.1802 Q731.485 54.509 731.485 42.2752 Q731.485 30.1225 725.652 24.4918 Q719.859 18.8205 707.342 18.8205 L697.458 18.8205 M689.275 12.096 L706.086 12.096 Q723.667 12.096 731.891 19.4281 Q740.114 26.7198 740.114 42.2752 Q740.114 57.9117 731.85 65.2439 Q723.586 72.576 706.086 72.576 L689.275 72.576 L689.275 12.096 Z" fill="#000000" fill-rule="evenodd" fill-opacity="1" /><path clip-path="url(#clip130)" d="M 0 0 M768.551 49.7694 Q759.518 49.7694 756.034 51.8354 Q752.55 53.9013 752.55 58.8839 Q752.55 62.8538 755.143 65.2034 Q757.776 67.5124 762.272 67.5124 Q768.47 67.5124 772.197 63.1374 Q775.964 58.7219 775.964 51.4303 L775.964 49.7694 L768.551 49.7694 M783.418 46.6907 L783.418 72.576 L775.964 72.576 L775.964 65.6895 Q773.412 69.8214 769.604 71.8063 Q765.797 73.7508 760.287 73.7508 Q753.32 73.7508 749.188 69.8619 Q745.096 65.9325 745.096 59.3701 Q745.096 51.7138 750.201 47.825 Q755.345 43.9361 765.513 43.9361 L775.964 43.9361 L775.964 43.2069 Q775.964 38.0623 772.562 35.2672 Q769.199 32.4315 763.082 32.4315 Q759.194 32.4315 755.507 33.3632 Q751.821 34.295 748.418 36.1584 L748.418 29.2718 Q752.51 27.692 756.358 26.9223 Q760.206 26.1121 763.852 26.1121 Q773.696 26.1121 778.557 31.2163 Q783.418 36.3204 783.418 46.6907 Z" fill="#000000" fill-rule="evenodd" fill-opacity="1" /><path clip-path="url(#clip130)" d="M 0 0 M798.609 14.324 L798.609 27.2059 L813.962 27.2059 L813.962 32.9987 L798.609 32.9987 L798.609 57.6282 Q798.609 63.1779 800.108 64.7578 Q801.647 66.3376 806.306 66.3376 L813.962 66.3376 L813.962 72.576 L806.306 72.576 Q797.677 72.576 794.396 69.3758 Q791.115 66.1351 791.115 57.6282 L791.115 32.9987 L785.646 32.9987 L785.646 27.2059 L791.115 27.2059 L791.115 14.324 L798.609 14.324 Z" fill="#000000" fill-rule="evenodd" fill-opacity="1" /><path clip-path="url(#clip130)" d="M 0 0 M842.399 49.7694 Q833.366 49.7694 829.882 51.8354 Q826.398 53.9013 826.398 58.8839 Q826.398 62.8538 828.991 65.2034 Q831.624 67.5124 836.12 67.5124 Q842.318 67.5124 846.045 63.1374 Q849.812 58.7219 849.812 51.4303 L849.812 49.7694 L842.399 49.7694 M857.266 46.6907 L857.266 72.576 L849.812 72.576 L849.812 65.6895 Q847.26 69.8214 843.452 71.8063 Q839.645 73.7508 834.135 73.7508 Q827.168 73.7508 823.036 69.8619 Q818.944 65.9325 818.944 59.3701 Q818.944 51.7138 824.049 47.825 Q829.193 43.9361 839.361 43.9361 L849.812 43.9361 L849.812 43.2069 Q849.812 38.0623 846.41 35.2672 Q843.047 32.4315 836.93 32.4315 Q833.042 32.4315 829.355 33.3632 Q825.669 34.295 822.266 36.1584 L822.266 29.2718 Q826.358 27.692 830.206 26.9223 Q834.054 26.1121 837.7 26.1121 Q847.544 26.1121 852.405 31.2163 Q857.266 36.3204 857.266 46.6907 Z" fill="#000000" fill-rule="evenodd" fill-opacity="1" /><path clip-path="url(#clip130)" d="M 0 0 M912.075 49.7694 Q903.041 49.7694 899.557 51.8354 Q896.074 53.9013 896.074 58.8839 Q896.074 62.8538 898.666 65.2034 Q901.299 67.5124 905.796 67.5124 Q911.994 67.5124 915.721 63.1374 Q919.488 58.7219 919.488 51.4303 L919.488 49.7694 L912.075 49.7694 M926.942 46.6907 L926.942 72.576 L919.488 72.576 L919.488 65.6895 Q916.936 69.8214 913.128 71.8063 Q909.32 73.7508 903.811 73.7508 Q896.843 73.7508 892.711 69.8619 Q888.62 65.9325 888.62 59.3701 Q888.62 51.7138 893.724 47.825 Q898.869 43.9361 909.037 43.9361 L919.488 43.9361 L919.488 43.2069 Q919.488 38.0623 916.085 35.2672 Q912.723 32.4315 906.606 32.4315 Q902.717 32.4315 899.031 33.3632 Q895.345 34.295 891.942 36.1584 L891.942 29.2718 Q896.033 27.692 899.882 26.9223 Q903.73 26.1121 907.376 26.1121 Q917.219 26.1121 922.08 31.2163 Q926.942 36.3204 926.942 46.6907 Z" fill="#000000" fill-rule="evenodd" fill-opacity="1" /><path clip-path="url(#clip130)" d="M 0 0 M972.474 45.1919 L972.474 72.576 L965.02 72.576 L965.02 45.4349 Q965.02 38.994 962.508 35.7938 Q959.997 32.5936 954.974 32.5936 Q948.938 32.5936 945.454 36.4419 Q941.97 40.2903 941.97 46.9338 L941.97 72.576 L934.476 72.576 L934.476 27.2059 L941.97 27.2059 L941.97 34.2544 Q944.644 30.163 948.249 28.1376 Q951.895 26.1121 956.635 26.1121 Q964.453 26.1121 968.463 30.9732 Q972.474 35.7938 972.474 45.1919 Z" fill="#000000" fill-rule="evenodd" fill-opacity="1" /><path clip-path="url(#clip130)" d="M 0 0 M1010.15 34.0924 L1010.15 9.54393 L1017.6 9.54393 L1017.6 72.576 L1010.15 72.576 L1010.15 65.7705 Q1007.8 69.8214 1004.19 71.8063 Q1000.63 73.7508 995.604 73.7508 Q987.381 73.7508 982.196 67.1883 Q977.051 60.6258 977.051 49.9314 Q977.051 39.2371 982.196 32.6746 Q987.381 26.1121 995.604 26.1121 Q1000.63 26.1121 1004.19 28.0971 Q1007.8 30.0415 1010.15 34.0924 M984.748 49.9314 Q984.748 58.1548 988.11 62.8538 Q991.513 67.5124 997.427 67.5124 Q1003.34 67.5124 1006.74 62.8538 Q1010.15 58.1548 1010.15 49.9314 Q1010.15 41.7081 1006.74 37.0496 Q1003.34 32.3505 997.427 32.3505 Q991.513 32.3505 988.11 37.0496 Q984.748 41.7081 984.748 49.9314 Z" fill="#000000" fill-rule="evenodd" fill-opacity="1" /><path clip-path="url(#clip130)" d="M 0 0 M1043.73 12.096 L1094.89 12.096 L1094.89 18.9825 L1073.42 18.9825 L1073.42 72.576 L1065.2 72.576 L1065.2 18.9825 L1043.73 18.9825 L1043.73 12.096 Z" fill="#000000" fill-rule="evenodd" fill-opacity="1" /><path clip-path="url(#clip130)" d="M 0 0 M1116.81 34.1734 Q1115.55 33.4443 1114.05 33.1202 Q1112.59 32.7556 1110.81 32.7556 Q1104.49 32.7556 1101.09 36.8875 Q1097.73 40.9789 1097.73 48.6757 L1097.73 72.576 L1090.23 72.576 L1090.23 27.2059 L1097.73 27.2059 L1097.73 34.2544 Q1100.08 30.1225 1103.84 28.1376 Q1107.61 26.1121 1113 26.1121 Q1113.77 26.1121 1114.7 26.2337 Q1115.63 26.3147 1116.77 26.5172 L1116.81 34.1734 Z" fill="#000000" fill-rule="evenodd" fill-opacity="1" /><path clip-path="url(#clip130)" d="M 0 0 M1123.86 54.671 L1123.86 27.2059 L1131.31 27.2059 L1131.31 54.3874 Q1131.31 60.8284 1133.82 64.0691 Q1136.33 67.2693 1141.36 67.2693 Q1147.39 67.2693 1150.88 63.421 Q1154.4 59.5726 1154.4 52.9291 L1154.4 27.2059 L1161.85 27.2059 L1161.85 72.576 L1154.4 72.576 L1154.4 65.6084 Q1151.69 69.7404 1148.08 71.7658 Q1144.52 73.7508 1139.78 73.7508 Q1131.96 73.7508 1127.91 68.8897 Q1123.86 64.0286 1123.86 54.671 M1142.61 26.1121 L1142.61 26.1121 Z" fill="#000000" fill-rule="evenodd" fill-opacity="1" /><path clip-path="url(#clip130)" d="M 0 0 M1208.48 48.0275 L1208.48 51.6733 L1174.21 51.6733 Q1174.69 59.3701 1178.83 63.421 Q1183 67.4314 1190.41 67.4314 Q1194.71 67.4314 1198.72 66.3781 Q1202.77 65.3249 1206.74 63.2184 L1206.74 70.267 Q1202.73 71.9684 1198.51 72.8596 Q1194.3 73.7508 1189.97 73.7508 Q1179.11 73.7508 1172.75 67.4314 Q1166.43 61.1119 1166.43 50.3365 Q1166.43 39.1965 1172.43 32.6746 Q1178.46 26.1121 1188.67 26.1121 Q1197.83 26.1121 1203.13 32.0264 Q1208.48 37.9003 1208.48 48.0275 M1201.03 45.84 Q1200.94 39.7232 1197.58 36.0774 Q1194.26 32.4315 1188.75 32.4315 Q1182.51 32.4315 1178.75 35.9558 Q1175.02 39.4801 1174.45 45.8805 L1201.03 45.84 Z" fill="#000000" fill-rule="evenodd" fill-opacity="1" /><path clip-path="url(#clip130)" d="M 0 0 M1279.25 14.0809 L1279.25 22.0612 Q1274.59 19.8332 1270.46 18.7395 Q1266.33 17.6457 1262.48 17.6457 Q1255.79 17.6457 1252.15 20.2383 Q1248.54 22.8309 1248.54 27.611 Q1248.54 31.6214 1250.93 33.6873 Q1253.36 35.7128 1260.09 36.9686 L1265.03 37.9813 Q1274.19 39.7232 1278.52 44.1387 Q1282.89 48.5136 1282.89 55.8863 Q1282.89 64.6767 1276.98 69.2137 Q1271.11 73.7508 1259.72 73.7508 Q1255.43 73.7508 1250.57 72.7785 Q1245.75 71.8063 1240.56 69.9024 L1240.56 61.4765 Q1245.55 64.2716 1250.33 65.6895 Q1255.11 67.1073 1259.72 67.1073 Q1266.73 67.1073 1270.54 64.3527 Q1274.35 61.598 1274.35 56.4939 Q1274.35 52.0379 1271.59 49.5264 Q1268.88 47.0148 1262.64 45.759 L1257.66 44.7868 Q1248.5 42.9639 1244.41 39.075 Q1240.32 35.1862 1240.32 28.2591 Q1240.32 20.2383 1245.95 15.6203 Q1251.62 11.0023 1261.55 11.0023 Q1265.8 11.0023 1270.22 11.7719 Q1274.63 12.5416 1279.25 14.0809 Z" fill="#000000" fill-rule="evenodd" fill-opacity="1" /><path clip-path="url(#clip130)" d="M 0 0 M1298.09 14.324 L1298.09 27.2059 L1313.44 27.2059 L1313.44 32.9987 L1298.09 32.9987 L1298.09 57.6282 Q1298.09 63.1779 1299.58 64.7578 Q1301.12 66.3376 1305.78 66.3376 L1313.44 66.3376 L1313.44 72.576 L1305.78 72.576 Q1297.15 72.576 1293.87 69.3758 Q1290.59 66.1351 1290.59 57.6282 L1290.59 32.9987 L1285.12 32.9987 L1285.12 27.2059 L1290.59 27.2059 L1290.59 14.324 L1298.09 14.324 Z" fill="#000000" fill-rule="evenodd" fill-opacity="1" /><path clip-path="url(#clip130)" d="M 0 0 M1341.88 49.7694 Q1332.84 49.7694 1329.36 51.8354 Q1325.87 53.9013 1325.87 58.8839 Q1325.87 62.8538 1328.47 65.2034 Q1331.1 67.5124 1335.6 67.5124 Q1341.79 67.5124 1345.52 63.1374 Q1349.29 58.7219 1349.29 51.4303 L1349.29 49.7694 L1341.88 49.7694 M1356.74 46.6907 L1356.74 72.576 L1349.29 72.576 L1349.29 65.6895 Q1346.74 69.8214 1342.93 71.8063 Q1339.12 73.7508 1333.61 73.7508 Q1326.64 73.7508 1322.51 69.8619 Q1318.42 65.9325 1318.42 59.3701 Q1318.42 51.7138 1323.53 47.825 Q1328.67 43.9361 1338.84 43.9361 L1349.29 43.9361 L1349.29 43.2069 Q1349.29 38.0623 1345.89 35.2672 Q1342.52 32.4315 1336.41 32.4315 Q1332.52 32.4315 1328.83 33.3632 Q1325.15 34.295 1321.74 36.1584 L1321.74 29.2718 Q1325.83 27.692 1329.68 26.9223 Q1333.53 26.1121 1337.18 26.1121 Q1347.02 26.1121 1351.88 31.2163 Q1356.74 36.3204 1356.74 46.6907 Z" fill="#000000" fill-rule="evenodd" fill-opacity="1" /><path clip-path="url(#clip130)" d="M 0 0 M1371.93 14.324 L1371.93 27.2059 L1387.29 27.2059 L1387.29 32.9987 L1371.93 32.9987 L1371.93 57.6282 Q1371.93 63.1779 1373.43 64.7578 Q1374.97 66.3376 1379.63 66.3376 L1387.29 66.3376 L1387.29 72.576 L1379.63 72.576 Q1371 72.576 1367.72 69.3758 Q1364.44 66.1351 1364.44 57.6282 L1364.44 32.9987 L1358.97 32.9987 L1358.97 27.2059 L1364.44 27.2059 L1364.44 14.324 L1371.93 14.324 Z" fill="#000000" fill-rule="evenodd" fill-opacity="1" /><path clip-path="url(#clip130)" d="M 0 0 M1395.1 27.2059 L1402.56 27.2059 L1402.56 72.576 L1395.1 72.576 L1395.1 27.2059 M1395.1 9.54393 L1402.56 9.54393 L1402.56 18.9825 L1395.1 18.9825 L1395.1 9.54393 Z" fill="#000000" fill-rule="evenodd" fill-opacity="1" /><path clip-path="url(#clip130)" d="M 0 0 M1439.3 28.5427 L1439.3 35.5912 Q1436.14 33.9709 1432.74 33.1607 Q1429.33 32.3505 1425.69 32.3505 Q1420.14 32.3505 1417.34 34.0519 Q1414.59 35.7533 1414.59 39.156 Q1414.59 41.7486 1416.57 43.2475 Q1418.56 44.7058 1424.55 46.0426 L1427.11 46.6097 Q1435.05 48.3111 1438.37 51.4303 Q1441.73 54.509 1441.73 60.0587 Q1441.73 66.3781 1436.71 70.0644 Q1431.72 73.7508 1422.97 73.7508 Q1419.33 73.7508 1415.36 73.0216 Q1411.43 72.3329 1407.05 70.9151 L1407.05 63.2184 Q1411.19 65.3654 1415.2 66.4591 Q1419.21 67.5124 1423.14 67.5124 Q1428.4 67.5124 1431.24 65.73 Q1434.07 63.9071 1434.07 60.6258 Q1434.07 57.5877 1432.01 55.9673 Q1429.98 54.3469 1423.06 52.8481 L1420.46 52.2405 Q1413.54 50.7821 1410.46 47.7845 Q1407.38 44.7463 1407.38 39.4801 Q1407.38 33.0797 1411.92 29.5959 Q1416.45 26.1121 1424.8 26.1121 Q1428.93 26.1121 1432.58 26.7198 Q1436.22 27.3274 1439.3 28.5427 Z" fill="#000000" fill-rule="evenodd" fill-opacity="1" /><path clip-path="url(#clip130)" d="M 0 0 M1456.92 14.324 L1456.92 27.2059 L1472.27 27.2059 L1472.27 32.9987 L1456.92 32.9987 L1456.92 57.6282 Q1456.92 63.1779 1458.42 64.7578 Q1459.96 66.3376 1464.62 66.3376 L1472.27 66.3376 L1472.27 72.576 L1464.62 72.576 Q1455.99 72.576 1452.71 69.3758 Q1449.43 66.1351 1449.43 57.6282 L1449.43 32.9987 L1443.96 32.9987 L1443.96 27.2059 L1449.43 27.2059 L1449.43 14.324 L1456.92 14.324 Z" fill="#000000" fill-rule="evenodd" fill-opacity="1" /><path clip-path="url(#clip130)" d="M 0 0 M1480.09 27.2059 L1487.55 27.2059 L1487.55 72.576 L1480.09 72.576 L1480.09 27.2059 M1480.09 9.54393 L1487.55 9.54393 L1487.55 18.9825 L1480.09 18.9825 L1480.09 9.54393 Z" fill="#000000" fill-rule="evenodd" fill-opacity="1" /><path clip-path="url(#clip130)" d="M 0 0 M1528.01 28.9478 L1528.01 35.9153 Q1524.86 34.1734 1521.65 33.3227 Q1518.5 32.4315 1515.25 32.4315 Q1508 32.4315 1503.99 37.0496 Q1499.98 41.6271 1499.98 49.9314 Q1499.98 58.2358 1503.99 62.8538 Q1508 67.4314 1515.25 67.4314 Q1518.5 67.4314 1521.65 66.5807 Q1524.86 65.6895 1528.01 63.9476 L1528.01 70.8341 Q1524.9 72.2924 1521.53 73.0216 Q1518.21 73.7508 1514.44 73.7508 Q1504.2 73.7508 1498.16 67.3098 Q1492.12 60.8689 1492.12 49.9314 Q1492.12 38.832 1498.2 32.472 Q1504.32 26.1121 1514.93 26.1121 Q1518.37 26.1121 1521.65 26.8413 Q1524.94 27.5299 1528.01 28.9478 Z" fill="#000000" fill-rule="evenodd" fill-opacity="1" /><path clip-path="url(#clip130)" d="M 0 0 M1556.45 49.7694 Q1547.42 49.7694 1543.93 51.8354 Q1540.45 53.9013 1540.45 58.8839 Q1540.45 62.8538 1543.04 65.2034 Q1545.68 67.5124 1550.17 67.5124 Q1556.37 67.5124 1560.1 63.1374 Q1563.87 58.7219 1563.87 51.4303 L1563.87 49.7694 L1556.45 49.7694 M1571.32 46.6907 L1571.32 72.576 L1563.87 72.576 L1563.87 65.6895 Q1561.31 69.8214 1557.51 71.8063 Q1553.7 73.7508 1548.19 73.7508 Q1541.22 73.7508 1537.09 69.8619 Q1533 65.9325 1533 59.3701 Q1533 51.7138 1538.1 47.825 Q1543.25 43.9361 1553.41 43.9361 L1563.87 43.9361 L1563.87 43.2069 Q1563.87 38.0623 1560.46 35.2672 Q1557.1 32.4315 1550.98 32.4315 Q1547.09 32.4315 1543.41 33.3632 Q1539.72 34.295 1536.32 36.1584 L1536.32 29.2718 Q1540.41 27.692 1544.26 26.9223 Q1548.11 26.1121 1551.75 26.1121 Q1561.6 26.1121 1566.46 31.2163 Q1571.32 36.3204 1571.32 46.6907 Z" fill="#000000" fill-rule="evenodd" fill-opacity="1" /><path clip-path="url(#clip130)" d="M 0 0 M1579.14 9.54393 L1586.59 9.54393 L1586.59 72.576 L1579.14 72.576 L1579.14 9.54393 Z" fill="#000000" fill-rule="evenodd" fill-opacity="1" /><path clip-path="url(#clip130)" d="M 0 0 M1621.1 12.096 L1633.3 12.096 L1648.73 53.2532 L1664.25 12.096 L1676.44 12.096 L1676.44 72.576 L1668.46 72.576 L1668.46 19.4686 L1652.86 60.9499 L1644.64 60.9499 L1629.04 19.4686 L1629.04 72.576 L1621.1 72.576 L1621.1 12.096 Z" fill="#000000" fill-rule="evenodd" fill-opacity="1" /><path clip-path="url(#clip130)" d="M 0 0 M1701.84 32.4315 Q1695.84 32.4315 1692.36 37.1306 Q1688.88 41.7891 1688.88 49.9314 Q1688.88 58.0738 1692.32 62.7728 Q1695.8 67.4314 1701.84 67.4314 Q1707.79 67.4314 1711.28 62.7323 Q1714.76 58.0333 1714.76 49.9314 Q1714.76 41.8701 1711.28 37.1711 Q1707.79 32.4315 1701.84 32.4315 M1701.84 26.1121 Q1711.56 26.1121 1717.11 32.4315 Q1722.66 38.7509 1722.66 49.9314 Q1722.66 61.0714 1717.11 67.4314 Q1711.56 73.7508 1701.84 73.7508 Q1692.08 73.7508 1686.53 67.4314 Q1681.02 61.0714 1681.02 49.9314 Q1681.02 38.7509 1686.53 32.4315 Q1692.08 26.1121 1701.84 26.1121 Z" fill="#000000" fill-rule="evenodd" fill-opacity="1" /><path clip-path="url(#clip130)" d="M 0 0 M1760.33 34.0924 L1760.33 9.54393 L1767.79 9.54393 L1767.79 72.576 L1760.33 72.576 L1760.33 65.7705 Q1757.98 69.8214 1754.38 71.8063 Q1750.81 73.7508 1745.79 73.7508 Q1737.57 73.7508 1732.38 67.1883 Q1727.24 60.6258 1727.24 49.9314 Q1727.24 39.2371 1732.38 32.6746 Q1737.57 26.1121 1745.79 26.1121 Q1750.81 26.1121 1754.38 28.0971 Q1757.98 30.0415 1760.33 34.0924 M1734.93 49.9314 Q1734.93 58.1548 1738.3 62.8538 Q1741.7 67.5124 1747.61 67.5124 Q1753.53 67.5124 1756.93 62.8538 Q1760.33 58.1548 1760.33 49.9314 Q1760.33 41.7081 1756.93 37.0496 Q1753.53 32.3505 1747.61 32.3505 Q1741.7 32.3505 1738.3 37.0496 Q1734.93 41.7081 1734.93 49.9314 Z" fill="#000000" fill-rule="evenodd" fill-opacity="1" /><path clip-path="url(#clip130)" d="M 0 0 M1814.41 48.0275 L1814.41 51.6733 L1780.14 51.6733 Q1780.63 59.3701 1784.76 63.421 Q1788.93 67.4314 1796.35 67.4314 Q1800.64 67.4314 1804.65 66.3781 Q1808.7 65.3249 1812.67 63.2184 L1812.67 70.267 Q1808.66 71.9684 1804.45 72.8596 Q1800.24 73.7508 1795.9 73.7508 Q1785.04 73.7508 1778.68 67.4314 Q1772.37 61.1119 1772.37 50.3365 Q1772.37 39.1965 1778.36 32.6746 Q1784.4 26.1121 1794.6 26.1121 Q1803.76 26.1121 1809.07 32.0264 Q1814.41 37.9003 1814.41 48.0275 M1806.96 45.84 Q1806.88 39.7232 1803.52 36.0774 Q1800.19 32.4315 1794.69 32.4315 Q1788.45 32.4315 1784.68 35.9558 Q1780.95 39.4801 1780.39 45.8805 L1806.96 45.84 Z" fill="#000000" fill-rule="evenodd" fill-opacity="1" /><path clip-path="url(#clip130)" d="M 0 0 M1822.23 9.54393 L1829.69 9.54393 L1829.69 72.576 L1822.23 72.576 L1822.23 9.54393 Z" fill="#000000" fill-rule="evenodd" fill-opacity="1" /><polyline clip-path="url(#clip132)" style="stroke:#009af9; stroke-width:4; stroke-opacity:1; fill:none" points="
  743.784,1447.87 743.784,1318.95 769.569,1318.95 795.354,1318.95 795.354,1302.83 821.139,1302.83 821.139,1173.91 846.923,1173.91 846.923,1044.99 
  872.708,1044.99 872.708,1061.1 898.493,1061.1 898.493,964.41 924.278,964.41 924.278,851.602 950.063,851.602 975.847,851.602 975.847,835.486 
  1001.63,835.486 1001.63,771.025 1027.42,771.025 1053.2,771.025 1053.2,964.41 1078.99,964.41 1078.99,996.641 1104.77,996.641 1104.77,980.525 
  1130.56,980.525 1130.56,1012.76 1156.34,1012.76 1156.34,1109.45 1182.13,1109.45 1182.13,1270.6 1207.91,1270.6 1207.91,1286.72 1233.7,1286.72 1233.7,1254.49 
  1259.48,1254.49 1259.48,1367.3 1285.27,1367.3 1285.27,1415.64 1311.05,1415.64 1311.05,1431.76 1336.83,1431.76 1336.83,1415.64 1362.62,1415.64 1362.62,1431.76 
  1388.4,1431.76 1388.4,1415.64 1414.19,1415.64 1414.19,1399.53 1439.97,1399.53 1439.97,1383.41 1465.76,1383.41 1465.76,1367.3 1491.54,1367.3 1491.54,1270.6 
  1517.33,1270.6 1517.33,1238.37 1543.11,1238.37 1543.11,1125.56 1568.9,1125.56 1568.9,948.294 1594.68,948.294 1594.68,1061.1 1620.47,1061.1 1620.47,609.87 
  1646.25,609.87 1646.25,561.524 1672.04,561.524 1672.04,287.561 1697.82,287.561 1697.82,255.33 1723.61,255.33 1723.61,223.1 1749.39,223.1 1749.39,206.984 
  1775.18,206.984 1775.18,303.677 1800.96,303.677 1800.96,190.869 1826.75,190.869 1826.75,480.947 1852.53,480.947 1852.53,416.485 1878.32,416.485 1878.32,577.639 
  1904.1,577.639 1904.1,754.909 1929.89,754.909 1929.89,899.948 1955.67,899.948 1955.67,1109.45 1981.45,1109.45 1981.45,1093.33 2007.24,1093.33 2007.24,1318.95 
  2033.02,1318.95 2033.02,1351.18 2058.81,1351.18 2058.81,1335.07 2084.59,1335.07 2084.59,1351.18 2110.38,1351.18 2110.38,1399.53 2136.16,1399.53 2136.16,1447.87 
  2161.95,1447.87 2161.95,1415.64 2187.73,1415.64 2187.73,1447.87 2213.52,1447.87 2239.3,1447.87 2265.09,1447.87 
  2290.87,1447.87 
  "/>
<polyline clip-path="url(#clip132)" style="stroke:#e26f46; stroke-width:4; stroke-opacity:1; fill:none" points="
  228.088,1447.87 230.667,1447.87 233.245,1447.87 235.824,1447.87 238.402,1447.87 240.981,1447.87 243.559,1447.87 246.138,1447.87 248.716,1447.87 251.295,1447.87 
  253.873,1447.87 256.451,1447.87 259.03,1447.87 261.608,1447.87 264.187,1447.87 266.765,1447.87 269.344,1447.87 271.922,1447.87 274.501,1447.87 277.079,1447.87 
  279.658,1447.87 282.236,1447.87 284.815,1447.87 287.393,1447.87 289.972,1447.87 292.55,1447.87 295.129,1447.87 297.707,1447.87 300.286,1447.87 302.864,1447.87 
  305.443,1447.87 308.021,1447.87 310.6,1447.87 313.178,1447.87 315.757,1447.87 318.335,1447.87 320.913,1447.87 323.492,1447.87 326.07,1447.87 328.649,1447.87 
  331.227,1447.87 333.806,1447.87 336.384,1447.87 338.963,1447.87 341.541,1447.87 344.12,1447.87 346.698,1447.87 349.277,1447.87 351.855,1447.87 354.434,1447.87 
  357.012,1447.87 359.591,1447.87 362.169,1447.87 364.748,1447.87 367.326,1447.87 369.905,1447.87 372.483,1447.87 375.062,1447.87 377.64,1447.87 380.219,1447.87 
  382.797,1447.87 385.375,1447.87 387.954,1447.87 390.532,1447.86 393.111,1447.86 395.689,1447.86 398.268,1447.86 400.846,1447.86 403.425,1447.86 406.003,1447.86 
  408.582,1447.86 411.16,1447.86 413.739,1447.85 416.317,1447.85 418.896,1447.85 421.474,1447.85 424.053,1447.84 426.631,1447.84 429.21,1447.84 431.788,1447.84 
  434.367,1447.83 436.945,1447.83 439.524,1447.83 442.102,1447.82 444.681,1447.82 447.259,1447.81 449.837,1447.81 452.416,1447.8 454.994,1447.79 457.573,1447.79 
  460.151,1447.78 462.73,1447.77 465.308,1447.76 467.887,1447.75 470.465,1447.74 473.044,1447.73 475.622,1447.72 478.201,1447.7 480.779,1447.69 483.358,1447.67 
  485.936,1447.66 488.515,1447.64 491.093,1447.62 493.672,1447.6 496.25,1447.58 498.829,1447.55 501.407,1447.53 503.986,1447.5 506.564,1447.47 509.143,1447.44 
  511.721,1447.4 514.299,1447.37 516.878,1447.33 519.456,1447.28 522.035,1447.24 524.613,1447.19 527.192,1447.14 529.77,1447.08 532.349,1447.02 534.927,1446.96 
  537.506,1446.89 540.084,1446.81 542.663,1446.74 545.241,1446.65 547.82,1446.56 550.398,1446.47 552.977,1446.37 555.555,1446.26 558.134,1446.14 560.712,1446.02 
  563.291,1445.89 565.869,1445.75 568.448,1445.6 571.026,1445.44 573.605,1445.27 576.183,1445.1 578.762,1444.91 581.34,1444.71 583.918,1444.5 586.497,1444.27 
  589.075,1444.03 591.654,1443.78 594.232,1443.51 596.811,1443.23 599.389,1442.93 601.968,1442.61 604.546,1442.27 607.125,1441.92 609.703,1441.54 612.282,1441.15 
  614.86,1440.73 617.439,1440.29 620.017,1439.83 622.596,1439.34 625.174,1438.82 627.753,1438.28 630.331,1437.71 632.91,1437.11 635.488,1436.48 638.067,1435.81 
  640.645,1435.12 643.224,1434.38 645.802,1433.62 648.38,1432.81 650.959,1431.97 653.537,1431.08 656.116,1430.15 658.694,1429.18 661.273,1428.16 663.851,1427.1 
  666.43,1425.98 669.008,1424.82 671.587,1423.6 674.165,1422.33 676.744,1421.01 679.322,1419.63 681.901,1418.18 684.479,1416.68 687.058,1415.11 689.636,1413.48 
  692.215,1411.78 694.793,1410.02 697.372,1408.18 699.95,1406.27 702.529,1404.28 705.107,1402.22 707.686,1400.08 710.264,1397.86 712.842,1395.56 715.421,1393.18 
  717.999,1390.7 720.578,1388.14 723.156,1385.5 725.735,1382.75 728.313,1379.92 730.892,1376.99 733.47,1373.97 736.049,1370.84 738.627,1367.62 741.206,1364.29 
  743.784,1360.86 746.363,1357.33 748.941,1353.69 751.52,1349.95 754.098,1346.09 756.677,1342.13 759.255,1338.06 761.834,1333.87 764.412,1329.57 766.991,1325.16 
  769.569,1320.64 772.148,1316 774.726,1311.25 777.304,1306.39 779.883,1301.4 782.461,1296.31 785.04,1291.1 787.618,1285.77 790.197,1280.34 792.775,1274.78 
  795.354,1269.12 797.932,1263.34 800.511,1257.46 803.089,1251.46 805.668,1245.36 808.246,1239.15 810.825,1232.84 813.403,1226.42 815.982,1219.9 818.56,1213.29 
  821.139,1206.58 823.717,1199.78 826.296,1192.89 828.874,1185.91 831.453,1178.85 834.031,1171.71 836.61,1164.49 839.188,1157.2 841.766,1149.84 844.345,1142.42 
  846.923,1134.93 849.502,1127.4 852.08,1119.81 854.659,1112.18 857.237,1104.5 859.816,1096.79 862.394,1089.06 864.973,1081.3 867.551,1073.52 870.13,1065.72 
  872.708,1057.93 875.287,1050.13 877.865,1042.34 880.444,1034.56 883.022,1026.8 885.601,1019.06 888.179,1011.36 890.758,1003.7 893.336,996.087 895.915,988.524 
  898.493,981.022 901.072,973.588 903.65,966.227 906.228,958.948 908.807,951.757 911.385,944.662 913.964,937.67 916.542,930.787 919.121,924.021 921.699,917.379 
  924.278,910.867 926.856,904.493 929.435,898.263 932.013,892.184 934.592,886.262 937.17,880.504 939.749,874.917 942.327,869.506 944.906,864.277 947.484,859.236 
  950.063,854.39 952.641,849.742 955.22,845.3 957.798,841.067 960.377,837.049 962.955,833.25 965.534,829.675 968.112,826.327 970.69,823.212 973.269,820.332 
  975.847,817.691 978.426,815.291 981.004,813.137 983.583,811.23 986.161,809.572 988.74,808.167 991.318,807.014 993.897,806.116 996.475,805.474 999.054,805.089 
  1001.63,804.96 1004.21,805.089 1006.79,805.474 1009.37,806.116 1011.95,807.014 1014.52,808.167 1017.1,809.572 1019.68,811.23 1022.26,813.137 1024.84,815.291 
  1027.42,817.69 1030,820.332 1032.57,823.212 1035.15,826.327 1037.73,829.675 1040.31,833.25 1042.89,837.049 1045.47,841.067 1048.04,845.299 1050.62,849.742 
  1053.2,854.389 1055.78,859.236 1058.36,864.277 1060.94,869.505 1063.52,874.916 1066.09,880.504 1068.67,886.262 1071.25,892.183 1073.83,898.262 1076.41,904.492 
  1078.99,910.866 1081.57,917.378 1084.14,924.02 1086.72,930.786 1089.3,937.669 1091.88,944.661 1094.46,951.756 1097.04,958.947 1099.61,966.226 1102.19,973.586 
  1104.77,981.021 1107.35,988.523 1109.93,996.085 1112.51,1003.7 1115.09,1011.36 1117.66,1019.06 1120.24,1026.8 1122.82,1034.55 1125.4,1042.33 1127.98,1050.12 
  1130.56,1057.92 1133.13,1065.72 1135.71,1073.51 1138.29,1081.29 1140.87,1089.05 1143.45,1096.79 1146.03,1104.49 1148.61,1112.17 1151.18,1119.8 1153.76,1127.38 
  1156.34,1134.92 1158.92,1142.4 1161.5,1149.82 1164.08,1157.18 1166.65,1164.47 1169.23,1171.68 1171.81,1178.82 1174.39,1185.88 1176.97,1192.86 1179.55,1199.75 
  1182.13,1206.55 1184.7,1213.25 1187.28,1219.86 1189.86,1226.38 1192.44,1232.79 1195.02,1239.1 1197.6,1245.3 1200.18,1251.4 1202.75,1257.39 1205.33,1263.27 
  1207.91,1269.04 1210.49,1274.7 1213.07,1280.24 1215.65,1285.67 1218.22,1290.98 1220.8,1296.18 1223.38,1301.27 1225.96,1306.24 1228.54,1311.09 1231.12,1315.83 
  1233.7,1320.45 1236.27,1324.96 1238.85,1329.35 1241.43,1333.63 1244.01,1337.79 1246.59,1341.84 1249.17,1345.78 1251.74,1349.61 1254.32,1353.33 1256.9,1356.93 
  1259.48,1360.43 1262.06,1363.83 1264.64,1367.11 1267.22,1370.29 1269.79,1373.37 1272.37,1376.35 1274.95,1379.23 1277.53,1382.01 1280.11,1384.69 1282.69,1387.27 
  1285.27,1389.76 1287.84,1392.16 1290.42,1394.47 1293,1396.68 1295.58,1398.81 1298.16,1400.85 1300.74,1402.81 1303.31,1404.68 1305.89,1406.47 1308.47,1408.18 
  1311.05,1409.81 1313.63,1411.36 1316.21,1412.84 1318.79,1414.24 1321.36,1415.56 1323.94,1416.81 1326.52,1417.99 1329.1,1419.1 1331.68,1420.14 1334.26,1421.11 
  1336.83,1422.01 1339.41,1422.85 1341.99,1423.61 1344.57,1424.32 1347.15,1424.95 1349.73,1425.53 1352.31,1426.04 1354.88,1426.48 1357.46,1426.86 1360.04,1427.18 
  1362.62,1427.43 1365.2,1427.62 1367.78,1427.75 1370.35,1427.82 1372.93,1427.82 1375.51,1427.75 1378.09,1427.62 1380.67,1427.43 1383.25,1427.17 1385.83,1426.84 
  1388.4,1426.45 1390.98,1425.98 1393.56,1425.45 1396.14,1424.85 1398.72,1424.17 1401.3,1423.42 1403.88,1422.6 1406.45,1421.7 1409.03,1420.72 1411.61,1419.66 
  1414.19,1418.52 1416.77,1417.29 1419.35,1415.98 1421.92,1414.58 1424.5,1413.09 1427.08,1411.51 1429.66,1409.83 1432.24,1408.05 1434.82,1406.18 1437.4,1404.2 
  1439.97,1402.11 1442.55,1399.91 1445.13,1397.6 1447.71,1395.18 1450.29,1392.64 1452.87,1389.97 1455.44,1387.18 1458.02,1384.26 1460.6,1381.22 1463.18,1378.03 
  1465.76,1374.71 1468.34,1371.24 1470.92,1367.63 1473.49,1363.87 1476.07,1359.96 1478.65,1355.89 1481.23,1351.66 1483.81,1347.26 1486.39,1342.7 1488.97,1337.97 
  1491.54,1333.06 1494.12,1327.98 1496.7,1322.71 1499.28,1317.26 1501.86,1311.62 1504.44,1305.79 1507.01,1299.76 1509.59,1293.54 1512.17,1287.11 1514.75,1280.48 
  1517.33,1273.64 1519.91,1266.59 1522.49,1259.33 1525.06,1251.85 1527.64,1244.16 1530.22,1236.24 1532.8,1228.11 1535.38,1219.75 1537.96,1211.16 1540.53,1202.35 
  1543.11,1193.31 1545.69,1184.05 1548.27,1174.55 1550.85,1164.82 1553.43,1154.87 1556.01,1144.68 1558.58,1134.27 1561.16,1123.62 1563.74,1112.75 1566.32,1101.65 
  1568.9,1090.33 1571.48,1078.78 1574.05,1067.01 1576.63,1055.02 1579.21,1042.82 1581.79,1030.4 1584.37,1017.78 1586.95,1004.95 1589.53,991.916 1592.1,978.689 
  1594.68,965.272 1597.26,951.669 1599.84,937.887 1602.42,923.931 1605,909.809 1607.58,895.527 1610.15,881.092 1612.73,866.512 1615.31,851.796 1617.89,836.952 
  1620.47,821.988 1623.05,806.914 1625.62,791.739 1628.2,776.474 1630.78,761.128 1633.36,745.712 1635.94,730.238 1638.52,714.715 1641.1,699.156 1643.67,683.573 
  1646.25,667.978 1648.83,652.382 1651.41,636.799 1653.99,621.242 1656.57,605.723 1659.14,590.255 1661.72,574.853 1664.3,559.53 1666.88,544.299 1669.46,529.175 
  1672.04,514.171 1674.62,499.301 1677.19,484.58 1679.77,470.022 1682.35,455.641 1684.93,441.451 1687.51,427.466 1690.09,413.7 1692.66,400.168 1695.24,386.884 
  1697.82,373.86 1700.4,361.112 1702.98,348.652 1705.56,336.494 1708.14,324.651 1710.71,313.135 1713.29,301.96 1715.87,291.138 1718.45,280.68 1721.03,270.599 
  1723.61,260.906 1726.19,251.611 1728.76,242.726 1731.34,234.261 1733.92,226.224 1736.5,218.626 1739.08,211.476 1741.66,204.782 1744.23,198.55 1746.81,192.79 
  1749.39,187.508 1751.97,182.709 1754.55,178.401 1757.13,174.586 1759.71,171.272 1762.28,168.46 1764.86,166.155 1767.44,164.359 1770.02,163.075 1772.6,162.304 
  1775.18,162.047 1777.75,162.304 1780.33,163.075 1782.91,164.359 1785.49,166.155 1788.07,168.46 1790.65,171.272 1793.23,174.586 1795.8,178.401 1798.38,182.709 
  1800.96,187.508 1803.54,192.79 1806.12,198.551 1808.7,204.782 1811.28,211.476 1813.85,218.627 1816.43,226.224 1819.01,234.261 1821.59,242.726 1824.17,251.611 
  1826.75,260.906 1829.32,270.599 1831.9,280.68 1834.48,291.138 1837.06,301.96 1839.64,313.135 1842.22,324.651 1844.8,336.494 1847.37,348.652 1849.95,361.112 
  1852.53,373.861 1855.11,386.884 1857.69,400.169 1860.27,413.701 1862.84,427.466 1865.42,441.451 1868,455.641 1870.58,470.023 1873.16,484.581 1875.74,499.302 
  1878.32,514.172 1880.89,529.176 1883.47,544.3 1886.05,559.531 1888.63,574.855 1891.21,590.257 1893.79,605.724 1896.36,621.243 1898.94,636.801 1901.52,652.384 
  1904.1,667.98 1906.68,683.576 1909.26,699.159 1911.84,714.718 1914.41,730.241 1916.99,745.716 1919.57,761.132 1922.15,776.479 1924.73,791.745 1927.31,806.92 
  1929.89,821.994 1932.46,836.959 1935.04,851.804 1937.62,866.521 1940.2,881.101 1942.78,895.537 1945.36,909.82 1947.93,923.944 1950.51,937.901 1953.09,951.684 
  1955.67,965.288 1958.25,978.707 1960.83,991.935 1963.41,1004.97 1965.98,1017.8 1968.56,1030.43 1971.14,1042.84 1973.72,1055.05 1976.3,1067.04 1978.88,1078.81 
  1981.45,1090.37 1984.03,1101.69 1986.61,1112.8 1989.19,1123.67 1991.77,1134.32 1994.35,1144.74 1996.93,1154.94 1999.5,1164.9 2002.08,1174.63 2004.66,1184.13 
  2007.24,1193.41 2009.82,1202.46 2012.4,1211.28 2014.97,1219.87 2017.55,1228.24 2020.13,1236.39 2022.71,1244.31 2025.29,1252.02 2027.87,1259.51 2030.45,1266.79 
  2033.02,1273.86 2035.6,1280.71 2038.18,1287.36 2040.76,1293.81 2043.34,1300.06 2045.92,1306.11 2048.5,1311.97 2051.07,1317.64 2053.65,1323.12 2056.23,1328.42 
  2058.81,1333.54 2061.39,1338.48 2063.97,1343.25 2066.54,1347.85 2069.12,1352.29 2071.7,1356.57 2074.28,1360.69 2076.86,1364.66 2079.44,1368.48 2082.02,1372.16 
  2084.59,1375.69 2087.17,1379.09 2089.75,1382.35 2092.33,1385.49 2094.91,1388.49 2097.49,1391.38 2100.06,1394.14 2102.64,1396.79 2105.22,1399.33 2107.8,1401.77 
  2110.38,1404.09 2112.96,1406.32 2115.54,1408.45 2118.11,1410.48 2120.69,1412.43 2123.27,1414.29 2125.85,1416.06 2128.43,1417.75 2131.01,1419.36 2133.59,1420.9 
  2136.16,1422.36 2138.74,1423.76 2141.32,1425.08 2143.9,1426.35 2146.48,1427.55 2149.06,1428.69 2151.63,1429.77 2154.21,1430.8 2156.79,1431.78 2159.37,1432.71 
  2161.95,1433.59 2164.53,1434.42 2167.11,1435.21 2169.68,1435.96 2172.26,1436.67 2174.84,1437.34 2177.42,1437.98 2180,1438.58 2182.58,1439.15 2185.15,1439.68 
  2187.73,1440.19 2190.31,1440.67 2192.89,1441.12 2195.47,1441.54 2198.05,1441.94 2200.63,1442.32 2203.2,1442.68 2205.78,1443.01 2208.36,1443.33 2210.94,1443.62 
  2213.52,1443.9 2216.1,1444.16 2218.67,1444.41 2221.25,1444.64 2223.83,1444.86 2226.41,1445.06 2228.99,1445.25 2231.57,1445.43 2234.15,1445.6 2236.72,1445.75 
  2239.3,1445.9 2241.88,1446.04 2244.46,1446.17 2247.04,1446.29 2249.62,1446.4 2252.2,1446.5 2254.77,1446.6 2257.35,1446.69 2259.93,1446.78 2262.51,1446.86 
  2265.09,1446.93 2267.67,1447 2270.24,1447.07 2272.82,1447.13 2275.4,1447.18 2277.98,1447.23 2280.56,1447.28 2283.14,1447.33 2285.72,1447.37 2288.29,1447.41 
  2290.87,1447.44 
  "/>
<path clip-path="url(#clip130)" d="
M1925.95 350.345 L2279.87 350.345 L2279.87 168.905 L1925.95 168.905  Z
  " fill="#ffffff" fill-rule="evenodd" fill-opacity="1"/>
<polyline clip-path="url(#clip130)" style="stroke:#000000; stroke-width:4; stroke-opacity:1; fill:none" points="
  1925.95,350.345 2279.87,350.345 2279.87,168.905 1925.95,168.905 1925.95,350.345 
  "/>
<polyline clip-path="url(#clip130)" style="stroke:#009af9; stroke-width:4; stroke-opacity:1; fill:none" points="
  1950.24,229.385 2096.01,229.385 
  "/>
<path clip-path="url(#clip130)" d="M 0 0 M2124.99 215.947 L2124.99 242.822 L2130.63 242.822 Q2137.79 242.822 2141.1 239.581 Q2144.43 236.341 2144.43 229.35 Q2144.43 222.406 2141.1 219.188 Q2137.79 215.947 2130.63 215.947 L2124.99 215.947 M2120.31 212.105 L2129.92 212.105 Q2139.96 212.105 2144.66 216.294 Q2149.36 220.461 2149.36 229.35 Q2149.36 238.285 2144.64 242.475 Q2139.92 246.665 2129.92 246.665 L2120.31 246.665 L2120.31 212.105 Z" fill="#000000" fill-rule="evenodd" fill-opacity="1" /><path clip-path="url(#clip130)" d="M 0 0 M2165.61 233.632 Q2160.45 233.632 2158.46 234.813 Q2156.47 235.993 2156.47 238.841 Q2156.47 241.109 2157.95 242.452 Q2159.45 243.771 2162.02 243.771 Q2165.56 243.771 2167.69 241.271 Q2169.85 238.748 2169.85 234.581 L2169.85 233.632 L2165.61 233.632 M2174.11 231.873 L2174.11 246.665 L2169.85 246.665 L2169.85 242.729 Q2168.39 245.091 2166.21 246.225 Q2164.04 247.336 2160.89 247.336 Q2156.91 247.336 2154.55 245.114 Q2152.21 242.868 2152.21 239.118 Q2152.21 234.743 2155.12 232.521 Q2158.06 230.299 2163.87 230.299 L2169.85 230.299 L2169.85 229.882 Q2169.85 226.943 2167.9 225.345 Q2165.98 223.725 2162.48 223.725 Q2160.26 223.725 2158.16 224.257 Q2156.05 224.79 2154.11 225.855 L2154.11 221.919 Q2156.44 221.017 2158.64 220.577 Q2160.84 220.114 2162.92 220.114 Q2168.55 220.114 2171.33 223.031 Q2174.11 225.947 2174.11 231.873 Z" fill="#000000" fill-rule="evenodd" fill-opacity="1" /><path clip-path="url(#clip130)" d="M 0 0 M2182.79 213.378 L2182.79 220.739 L2191.56 220.739 L2191.56 224.049 L2182.79 224.049 L2182.79 238.123 Q2182.79 241.294 2183.64 242.197 Q2184.52 243.1 2187.18 243.1 L2191.56 243.1 L2191.56 246.665 L2187.18 246.665 Q2182.25 246.665 2180.38 244.836 Q2178.5 242.984 2178.5 238.123 L2178.5 224.049 L2175.38 224.049 L2175.38 220.739 L2178.5 220.739 L2178.5 213.378 L2182.79 213.378 Z" fill="#000000" fill-rule="evenodd" fill-opacity="1" /><path clip-path="url(#clip130)" d="M 0 0 M2207.81 233.632 Q2202.65 233.632 2200.66 234.813 Q2198.67 235.993 2198.67 238.841 Q2198.67 241.109 2200.15 242.452 Q2201.65 243.771 2204.22 243.771 Q2207.76 243.771 2209.89 241.271 Q2212.04 238.748 2212.04 234.581 L2212.04 233.632 L2207.81 233.632 M2216.3 231.873 L2216.3 246.665 L2212.04 246.665 L2212.04 242.729 Q2210.59 245.091 2208.41 246.225 Q2206.23 247.336 2203.09 247.336 Q2199.11 247.336 2196.74 245.114 Q2194.41 242.868 2194.41 239.118 Q2194.41 234.743 2197.32 232.521 Q2200.26 230.299 2206.07 230.299 L2212.04 230.299 L2212.04 229.882 Q2212.04 226.943 2210.1 225.345 Q2208.18 223.725 2204.68 223.725 Q2202.46 223.725 2200.36 224.257 Q2198.25 224.79 2196.3 225.855 L2196.3 221.919 Q2198.64 221.017 2200.84 220.577 Q2203.04 220.114 2205.12 220.114 Q2210.75 220.114 2213.53 223.031 Q2216.3 225.947 2216.3 231.873 Z" fill="#000000" fill-rule="evenodd" fill-opacity="1" /><polyline clip-path="url(#clip130)" style="stroke:#e26f46; stroke-width:4; stroke-opacity:1; fill:none" points="
  1950.24,289.865 2096.01,289.865 
  "/>
<path clip-path="url(#clip130)" d="M 0 0 M2120.31 272.585 L2149.55 272.585 L2149.55 276.52 L2137.28 276.52 L2137.28 307.145 L2132.58 307.145 L2132.58 276.52 L2120.31 276.52 L2120.31 272.585 Z" fill="#000000" fill-rule="evenodd" fill-opacity="1" /><path clip-path="url(#clip130)" d="M 0 0 M2162.07 285.2 Q2161.35 284.784 2160.49 284.598 Q2159.66 284.39 2158.64 284.39 Q2155.03 284.39 2153.09 286.751 Q2151.17 289.089 2151.17 293.487 L2151.17 307.145 L2146.88 307.145 L2146.88 281.219 L2151.17 281.219 L2151.17 285.247 Q2152.51 282.886 2154.66 281.751 Q2156.81 280.594 2159.89 280.594 Q2160.33 280.594 2160.86 280.663 Q2161.4 280.71 2162.05 280.825 L2162.07 285.2 Z" fill="#000000" fill-rule="evenodd" fill-opacity="1" /><path clip-path="url(#clip130)" d="M 0 0 M2166.1 296.913 L2166.1 281.219 L2170.36 281.219 L2170.36 296.751 Q2170.36 300.432 2171.79 302.284 Q2173.23 304.112 2176.1 304.112 Q2179.55 304.112 2181.54 301.913 Q2183.55 299.714 2183.55 295.918 L2183.55 281.219 L2187.81 281.219 L2187.81 307.145 L2183.55 307.145 L2183.55 303.163 Q2182 305.524 2179.94 306.682 Q2177.9 307.816 2175.19 307.816 Q2170.73 307.816 2168.41 305.038 Q2166.1 302.26 2166.1 296.913 M2176.81 280.594 L2176.81 280.594 Z" fill="#000000" fill-rule="evenodd" fill-opacity="1" /><path clip-path="url(#clip130)" d="M 0 0 M2196.49 273.858 L2196.49 281.219 L2205.26 281.219 L2205.26 284.529 L2196.49 284.529 L2196.49 298.603 Q2196.49 301.774 2197.35 302.677 Q2198.23 303.58 2200.89 303.58 L2205.26 303.58 L2205.26 307.145 L2200.89 307.145 Q2195.96 307.145 2194.08 305.316 Q2192.21 303.464 2192.21 298.603 L2192.21 284.529 L2189.08 284.529 L2189.08 281.219 L2192.21 281.219 L2192.21 273.858 L2196.49 273.858 Z" fill="#000000" fill-rule="evenodd" fill-opacity="1" /><path clip-path="url(#clip130)" d="M 0 0 M2231.28 291.497 L2231.28 307.145 L2227.02 307.145 L2227.02 291.635 Q2227.02 287.955 2225.59 286.126 Q2224.15 284.298 2221.28 284.298 Q2217.83 284.298 2215.84 286.497 Q2213.85 288.696 2213.85 292.492 L2213.85 307.145 L2209.57 307.145 L2209.57 271.126 L2213.85 271.126 L2213.85 285.247 Q2215.38 282.909 2217.44 281.751 Q2219.52 280.594 2222.23 280.594 Q2226.7 280.594 2228.99 283.372 Q2231.28 286.126 2231.28 291.497 Z" fill="#000000" fill-rule="evenodd" fill-opacity="1" /></svg>
