<?xml version="1.0" encoding="utf-8"?>
<svg xmlns="http://www.w3.org/2000/svg" xmlns:xlink="http://www.w3.org/1999/xlink" width="600" height="400" viewBox="0 0 2400 1600">
<defs>
  <clipPath id="clip100">
    <rect x="0" y="0" width="2400" height="1600"/>
  </clipPath>
</defs>
<path clip-path="url(#clip100)" d="
M0 1600 L2400 1600 L2400 0 L0 0  Z
  " fill="#ffffff" fill-rule="evenodd" fill-opacity="1"/>
<defs>
  <clipPath id="clip101">
    <rect x="480" y="0" width="1681" height="1600"/>
  </clipPath>
</defs>
<path clip-path="url(#clip100)" d="
M166.205 1486.45 L2352.76 1486.45 L2352.76 123.472 L166.205 123.472  Z
  " fill="#ffffff" fill-rule="evenodd" fill-opacity="1"/>
<defs>
  <clipPath id="clip102">
    <rect x="166" y="123" width="2188" height="1364"/>
  </clipPath>
</defs>
<polyline clip-path="url(#clip102)" style="stroke:#000000; stroke-width:2; stroke-opacity:0.1; fill:none" points="
  228.088,1486.45 228.088,123.472 
  "/>
<polyline clip-path="url(#clip102)" style="stroke:#000000; stroke-width:2; stroke-opacity:0.1; fill:none" points="
  571.886,1486.45 571.886,123.472 
  "/>
<polyline clip-path="url(#clip102)" style="stroke:#000000; stroke-width:2; stroke-opacity:0.1; fill:none" points="
  915.683,1486.45 915.683,123.472 
  "/>
<polyline clip-path="url(#clip102)" style="stroke:#000000; stroke-width:2; stroke-opacity:0.1; fill:none" points="
  1259.48,1486.45 1259.48,123.472 
  "/>
<polyline clip-path="url(#clip102)" style="stroke:#000000; stroke-width:2; stroke-opacity:0.1; fill:none" points="
  1603.28,1486.45 1603.28,123.472 
  "/>
<polyline clip-path="url(#clip102)" style="stroke:#000000; stroke-width:2; stroke-opacity:0.1; fill:none" points="
  1947.08,1486.45 1947.08,123.472 
  "/>
<polyline clip-path="url(#clip102)" style="stroke:#000000; stroke-width:2; stroke-opacity:0.1; fill:none" points="
  2290.87,1486.45 2290.87,123.472 
  "/>
<polyline clip-path="url(#clip100)" style="stroke:#000000; stroke-width:4; stroke-opacity:1; fill:none" points="
  166.205,1486.45 2352.76,1486.45 
  "/>
<polyline clip-path="url(#clip100)" style="stroke:#000000; stroke-width:4; stroke-opacity:1; fill:none" points="
  228.088,1486.45 228.088,1470.09 
  "/>
<polyline clip-path="url(#clip100)" style="stroke:#000000; stroke-width:4; stroke-opacity:1; fill:none" points="
  571.886,1486.45 571.886,1470.09 
  "/>
<polyline clip-path="url(#clip100)" style="stroke:#000000; stroke-width:4; stroke-opacity:1; fill:none" points="
  915.683,1486.45 915.683,1470.09 
  "/>
<polyline clip-path="url(#clip100)" style="stroke:#000000; stroke-width:4; stroke-opacity:1; fill:none" points="
  1259.48,1486.45 1259.48,1470.09 
  "/>
<polyline clip-path="url(#clip100)" style="stroke:#000000; stroke-width:4; stroke-opacity:1; fill:none" points="
  1603.28,1486.45 1603.28,1470.09 
  "/>
<polyline clip-path="url(#clip100)" style="stroke:#000000; stroke-width:4; stroke-opacity:1; fill:none" points="
  1947.08,1486.45 1947.08,1470.09 
  "/>
<polyline clip-path="url(#clip100)" style="stroke:#000000; stroke-width:4; stroke-opacity:1; fill:none" points="
  2290.87,1486.45 2290.87,1470.09 
  "/>
<path clip-path="url(#clip100)" d="M 0 0 M200.542 1530.29 L230.218 1530.29 L230.218 1534.23 L200.542 1534.23 L200.542 1530.29 Z" fill="#000000" fill-rule="evenodd" fill-opacity="1" /><path clip-path="url(#clip100)" d="M 0 0 M239.315 1543.18 L255.634 1543.18 L255.634 1547.12 L233.69 1547.12 L233.69 1543.18 Q236.352 1540.43 240.935 1535.8 Q245.542 1531.15 246.722 1529.81 Q248.968 1527.28 249.847 1525.55 Q250.75 1523.79 250.75 1522.1 Q250.75 1519.34 248.806 1517.61 Q246.884 1515.87 243.783 1515.87 Q241.583 1515.87 239.13 1516.63 Q236.699 1517.4 233.921 1518.95 L233.921 1514.23 Q236.746 1513.09 239.199 1512.51 Q241.653 1511.93 243.69 1511.93 Q249.06 1511.93 252.255 1514.62 Q255.449 1517.31 255.449 1521.8 Q255.449 1523.93 254.639 1525.85 Q253.852 1527.74 251.745 1530.34 Q251.167 1531.01 248.065 1534.23 Q244.963 1537.42 239.315 1543.18 Z" fill="#000000" fill-rule="evenodd" fill-opacity="1" /><path clip-path="url(#clip100)" d="M 0 0 M544.154 1530.29 L573.83 1530.29 L573.83 1534.23 L544.154 1534.23 L544.154 1530.29 Z" fill="#000000" fill-rule="evenodd" fill-opacity="1" /><path clip-path="url(#clip100)" d="M 0 0 M579.71 1543.18 L587.348 1543.18 L587.348 1516.82 L579.038 1518.49 L579.038 1514.23 L587.302 1512.56 L591.978 1512.56 L591.978 1543.18 L599.617 1543.18 L599.617 1547.12 L579.71 1547.12 L579.71 1543.18 Z" fill="#000000" fill-rule="evenodd" fill-opacity="1" /><path clip-path="url(#clip100)" d="M 0 0 M915.683 1515.64 Q912.072 1515.64 910.243 1519.2 Q908.438 1522.75 908.438 1529.87 Q908.438 1536.98 910.243 1540.55 Q912.072 1544.09 915.683 1544.09 Q919.317 1544.09 921.123 1540.55 Q922.951 1536.98 922.951 1529.87 Q922.951 1522.75 921.123 1519.2 Q919.317 1515.64 915.683 1515.64 M915.683 1511.93 Q921.493 1511.93 924.549 1516.54 Q927.627 1521.12 927.627 1529.87 Q927.627 1538.6 924.549 1543.21 Q921.493 1547.79 915.683 1547.79 Q909.873 1547.79 906.794 1543.21 Q903.739 1538.6 903.739 1529.87 Q903.739 1521.12 906.794 1516.54 Q909.873 1511.93 915.683 1511.93 Z" fill="#000000" fill-rule="evenodd" fill-opacity="1" /><path clip-path="url(#clip100)" d="M 0 0 M1249.86 1543.18 L1257.5 1543.18 L1257.5 1516.82 L1249.19 1518.49 L1249.19 1514.23 L1257.45 1512.56 L1262.13 1512.56 L1262.13 1543.18 L1269.77 1543.18 L1269.77 1547.12 L1249.86 1547.12 L1249.86 1543.18 Z" fill="#000000" fill-rule="evenodd" fill-opacity="1" /><path clip-path="url(#clip100)" d="M 0 0 M1597.93 1543.18 L1614.25 1543.18 L1614.25 1547.12 L1592.31 1547.12 L1592.31 1543.18 Q1594.97 1540.43 1599.55 1535.8 Q1604.16 1531.15 1605.34 1529.81 Q1607.58 1527.28 1608.46 1525.55 Q1609.37 1523.79 1609.37 1522.1 Q1609.37 1519.34 1607.42 1517.61 Q1605.5 1515.87 1602.4 1515.87 Q1600.2 1515.87 1597.75 1516.63 Q1595.31 1517.4 1592.54 1518.95 L1592.54 1514.23 Q1595.36 1513.09 1597.81 1512.51 Q1600.27 1511.93 1602.31 1511.93 Q1607.68 1511.93 1610.87 1514.62 Q1614.06 1517.31 1614.06 1521.8 Q1614.06 1523.93 1613.25 1525.85 Q1612.47 1527.74 1610.36 1530.34 Q1609.78 1531.01 1606.68 1534.23 Q1603.58 1537.42 1597.93 1543.18 Z" fill="#000000" fill-rule="evenodd" fill-opacity="1" /><path clip-path="url(#clip100)" d="M 0 0 M1951.32 1528.49 Q1954.68 1529.2 1956.55 1531.47 Q1958.45 1533.74 1958.45 1537.07 Q1958.45 1542.19 1954.93 1544.99 Q1951.42 1547.79 1944.93 1547.79 Q1942.76 1547.79 1940.44 1547.35 Q1938.15 1546.93 1935.7 1546.08 L1935.7 1541.56 Q1937.64 1542.7 1939.96 1543.28 Q1942.27 1543.86 1944.79 1543.86 Q1949.19 1543.86 1951.48 1542.12 Q1953.8 1540.38 1953.8 1537.07 Q1953.8 1534.02 1951.65 1532.31 Q1949.52 1530.57 1945.7 1530.57 L1941.67 1530.57 L1941.67 1526.73 L1945.88 1526.73 Q1949.33 1526.73 1951.16 1525.36 Q1952.99 1523.97 1952.99 1521.38 Q1952.99 1518.72 1951.09 1517.31 Q1949.22 1515.87 1945.7 1515.87 Q1943.78 1515.87 1941.58 1516.29 Q1939.38 1516.7 1936.74 1517.58 L1936.74 1513.42 Q1939.4 1512.68 1941.72 1512.31 Q1944.05 1511.93 1946.11 1511.93 Q1951.44 1511.93 1954.54 1514.37 Q1957.64 1516.77 1957.64 1520.89 Q1957.64 1523.76 1956 1525.75 Q1954.36 1527.72 1951.32 1528.49 Z" fill="#000000" fill-rule="evenodd" fill-opacity="1" /><path clip-path="url(#clip100)" d="M 0 0 M2293.88 1516.63 L2282.08 1535.08 L2293.88 1535.08 L2293.88 1516.63 M2292.65 1512.56 L2298.53 1512.56 L2298.53 1535.08 L2303.46 1535.08 L2303.46 1538.97 L2298.53 1538.97 L2298.53 1547.12 L2293.88 1547.12 L2293.88 1538.97 L2278.28 1538.97 L2278.28 1534.46 L2292.65 1512.56 Z" fill="#000000" fill-rule="evenodd" fill-opacity="1" /><polyline clip-path="url(#clip102)" style="stroke:#000000; stroke-width:2; stroke-opacity:0.1; fill:none" points="
  166.205,1447.87 2352.76,1447.87 
  "/>
<polyline clip-path="url(#clip102)" style="stroke:#000000; stroke-width:2; stroke-opacity:0.1; fill:none" points="
  166.205,1118.17 2352.76,1118.17 
  "/>
<polyline clip-path="url(#clip102)" style="stroke:#000000; stroke-width:2; stroke-opacity:0.1; fill:none" points="
  166.205,788.475 2352.76,788.475 
  "/>
<polyline clip-path="url(#clip102)" style="stroke:#000000; stroke-width:2; stroke-opacity:0.1; fill:none" points="
  166.205,458.776 2352.76,458.776 
  "/>
<polyline clip-path="url(#clip102)" style="stroke:#000000; stroke-width:2; stroke-opacity:0.1; fill:none" points="
  166.205,129.077 2352.76,129.077 
  "/>
<polyline clip-path="url(#clip100)" style="stroke:#000000; stroke-width:4; stroke-opacity:1; fill:none" points="
  166.205,1486.45 166.205,123.472 
  "/>
<polyline clip-path="url(#clip100)" style="stroke:#000000; stroke-width:4; stroke-opacity:1; fill:none" points="
  166.205,1447.87 192.443,1447.87 
  "/>
<polyline clip-path="url(#clip100)" style="stroke:#000000; stroke-width:4; stroke-opacity:1; fill:none" points="
  166.205,1118.17 192.443,1118.17 
  "/>
<polyline clip-path="url(#clip100)" style="stroke:#000000; stroke-width:4; stroke-opacity:1; fill:none" points="
  166.205,788.475 192.443,788.475 
  "/>
<polyline clip-path="url(#clip100)" style="stroke:#000000; stroke-width:4; stroke-opacity:1; fill:none" points="
  166.205,458.776 192.443,458.776 
  "/>
<polyline clip-path="url(#clip100)" style="stroke:#000000; stroke-width:4; stroke-opacity:1; fill:none" points="
  166.205,129.077 192.443,129.077 
  "/>
<path clip-path="url(#clip100)" d="M 0 0 M118.26 1433.67 Q114.649 1433.67 112.82 1437.24 Q111.015 1440.78 111.015 1447.91 Q111.015 1455.01 112.82 1458.58 Q114.649 1462.12 118.26 1462.12 Q121.895 1462.12 123.7 1458.58 Q125.529 1455.01 125.529 1447.91 Q125.529 1440.78 123.7 1437.24 Q121.895 1433.67 118.26 1433.67 M118.26 1429.97 Q124.07 1429.97 127.126 1434.57 Q130.205 1439.16 130.205 1447.91 Q130.205 1456.63 127.126 1461.24 Q124.07 1465.82 118.26 1465.82 Q112.45 1465.82 109.371 1461.24 Q106.316 1456.63 106.316 1447.91 Q106.316 1439.16 109.371 1434.57 Q112.45 1429.97 118.26 1429.97 Z" fill="#000000" fill-rule="evenodd" fill-opacity="1" /><path clip-path="url(#clip100)" d="M 0 0 M59.8578 1131.52 L76.1772 1131.52 L76.1772 1135.45 L54.2328 1135.45 L54.2328 1131.52 Q56.8949 1128.76 61.4782 1124.13 Q66.0846 1119.48 67.2652 1118.14 Q69.5105 1115.62 70.3902 1113.88 Q71.2929 1112.12 71.2929 1110.43 Q71.2929 1107.68 69.3485 1105.94 Q67.4272 1104.2 64.3254 1104.2 Q62.1263 1104.2 59.6726 1104.97 Q57.2421 1105.73 54.4643 1107.28 L54.4643 1102.56 Q57.2884 1101.43 59.7421 1100.85 Q62.1958 1100.27 64.2328 1100.27 Q69.6031 1100.27 72.7976 1102.95 Q75.992 1105.64 75.992 1110.13 Q75.992 1112.26 75.1818 1114.18 Q74.3948 1116.08 72.2883 1118.67 Q71.7096 1119.34 68.6078 1122.56 Q65.5059 1125.76 59.8578 1131.52 Z" fill="#000000" fill-rule="evenodd" fill-opacity="1" /><path clip-path="url(#clip100)" d="M 0 0 M91.2465 1103.97 Q87.6354 1103.97 85.8068 1107.54 Q84.0012 1111.08 84.0012 1118.21 Q84.0012 1125.32 85.8068 1128.88 Q87.6354 1132.42 91.2465 1132.42 Q94.8808 1132.42 96.6863 1128.88 Q98.515 1125.32 98.515 1118.21 Q98.515 1111.08 96.6863 1107.54 Q94.8808 1103.97 91.2465 1103.97 M91.2465 1100.27 Q97.0567 1100.27 100.112 1104.88 Q103.191 1109.46 103.191 1118.21 Q103.191 1126.94 100.112 1131.54 Q97.0567 1136.13 91.2465 1136.13 Q85.4364 1136.13 82.3577 1131.54 Q79.3022 1126.94 79.3022 1118.21 Q79.3022 1109.46 82.3577 1104.88 Q85.4364 1100.27 91.2465 1100.27 Z" fill="#000000" fill-rule="evenodd" fill-opacity="1" /><path clip-path="url(#clip100)" d="M 0 0 M118.26 1103.97 Q114.649 1103.97 112.82 1107.54 Q111.015 1111.08 111.015 1118.21 Q111.015 1125.32 112.82 1128.88 Q114.649 1132.42 118.26 1132.42 Q121.895 1132.42 123.7 1128.88 Q125.529 1125.32 125.529 1118.21 Q125.529 1111.08 123.7 1107.54 Q121.895 1103.97 118.26 1103.97 M118.26 1100.27 Q124.07 1100.27 127.126 1104.88 Q130.205 1109.46 130.205 1118.21 Q130.205 1126.94 127.126 1131.54 Q124.07 1136.13 118.26 1136.13 Q112.45 1136.13 109.371 1131.54 Q106.316 1126.94 106.316 1118.21 Q106.316 1109.46 109.371 1104.88 Q112.45 1100.27 118.26 1100.27 Z" fill="#000000" fill-rule="evenodd" fill-opacity="1" /><path clip-path="url(#clip100)" d="M 0 0 M66.5939 775.269 L54.7884 793.718 L66.5939 793.718 L66.5939 775.269 M65.367 771.195 L71.2466 771.195 L71.2466 793.718 L76.1772 793.718 L76.1772 797.607 L71.2466 797.607 L71.2466 805.755 L66.5939 805.755 L66.5939 797.607 L50.9921 797.607 L50.9921 793.093 L65.367 771.195 Z" fill="#000000" fill-rule="evenodd" fill-opacity="1" /><path clip-path="url(#clip100)" d="M 0 0 M91.2465 774.274 Q87.6354 774.274 85.8068 777.839 Q84.0012 781.38 84.0012 788.51 Q84.0012 795.616 85.8068 799.181 Q87.6354 802.723 91.2465 802.723 Q94.8808 802.723 96.6863 799.181 Q98.515 795.616 98.515 788.51 Q98.515 781.38 96.6863 777.839 Q94.8808 774.274 91.2465 774.274 M91.2465 770.57 Q97.0567 770.57 100.112 775.177 Q103.191 779.76 103.191 788.51 Q103.191 797.237 100.112 801.843 Q97.0567 806.426 91.2465 806.426 Q85.4364 806.426 82.3577 801.843 Q79.3022 797.237 79.3022 788.51 Q79.3022 779.76 82.3577 775.177 Q85.4364 770.57 91.2465 770.57 Z" fill="#000000" fill-rule="evenodd" fill-opacity="1" /><path clip-path="url(#clip100)" d="M 0 0 M118.26 774.274 Q114.649 774.274 112.82 777.839 Q111.015 781.38 111.015 788.51 Q111.015 795.616 112.82 799.181 Q114.649 802.723 118.26 802.723 Q121.895 802.723 123.7 799.181 Q125.529 795.616 125.529 788.51 Q125.529 781.38 123.7 777.839 Q121.895 774.274 118.26 774.274 M118.26 770.57 Q124.07 770.57 127.126 775.177 Q130.205 779.76 130.205 788.51 Q130.205 797.237 127.126 801.843 Q124.07 806.426 118.26 806.426 Q112.45 806.426 109.371 801.843 Q106.316 797.237 106.316 788.51 Q106.316 779.76 109.371 775.177 Q112.45 770.57 118.26 770.57 Z" fill="#000000" fill-rule="evenodd" fill-opacity="1" /><path clip-path="url(#clip100)" d="M 0 0 M64.6495 456.913 Q61.5013 456.913 59.6495 459.065 Q57.8208 461.218 57.8208 464.968 Q57.8208 468.695 59.6495 470.871 Q61.5013 473.024 64.6495 473.024 Q67.7976 473.024 69.6263 470.871 Q71.4781 468.695 71.4781 464.968 Q71.4781 461.218 69.6263 459.065 Q67.7976 456.913 64.6495 456.913 M73.9318 442.26 L73.9318 446.519 Q72.1726 445.686 70.367 445.246 Q68.5846 444.806 66.8254 444.806 Q62.1958 444.806 59.7421 447.931 Q57.3115 451.056 56.9643 457.376 Q58.33 455.362 60.3902 454.297 Q62.4504 453.209 64.9272 453.209 Q70.1355 453.209 73.1448 456.38 Q76.1772 459.528 76.1772 464.968 Q76.1772 470.292 73.029 473.51 Q69.8809 476.727 64.6495 476.727 Q58.6541 476.727 55.4828 472.144 Q52.3116 467.538 52.3116 458.811 Q52.3116 450.616 56.2004 445.755 Q60.0893 440.871 66.6402 440.871 Q68.3994 440.871 70.1818 441.218 Q71.9874 441.565 73.9318 442.26 Z" fill="#000000" fill-rule="evenodd" fill-opacity="1" /><path clip-path="url(#clip100)" d="M 0 0 M91.2465 444.575 Q87.6354 444.575 85.8068 448.14 Q84.0012 451.681 84.0012 458.811 Q84.0012 465.917 85.8068 469.482 Q87.6354 473.024 91.2465 473.024 Q94.8808 473.024 96.6863 469.482 Q98.515 465.917 98.515 458.811 Q98.515 451.681 96.6863 448.14 Q94.8808 444.575 91.2465 444.575 M91.2465 440.871 Q97.0567 440.871 100.112 445.477 Q103.191 450.061 103.191 458.811 Q103.191 467.538 100.112 472.144 Q97.0567 476.727 91.2465 476.727 Q85.4364 476.727 82.3577 472.144 Q79.3022 467.538 79.3022 458.811 Q79.3022 450.061 82.3577 445.477 Q85.4364 440.871 91.2465 440.871 Z" fill="#000000" fill-rule="evenodd" fill-opacity="1" /><path clip-path="url(#clip100)" d="M 0 0 M118.26 444.575 Q114.649 444.575 112.82 448.14 Q111.015 451.681 111.015 458.811 Q111.015 465.917 112.82 469.482 Q114.649 473.024 118.26 473.024 Q121.895 473.024 123.7 469.482 Q125.529 465.917 125.529 458.811 Q125.529 451.681 123.7 448.14 Q121.895 444.575 118.26 444.575 M118.26 440.871 Q124.07 440.871 127.126 445.477 Q130.205 450.061 130.205 458.811 Q130.205 467.538 127.126 472.144 Q124.07 476.727 118.26 476.727 Q112.45 476.727 109.371 472.144 Q106.316 467.538 106.316 458.811 Q106.316 450.061 109.371 445.477 Q112.45 440.871 118.26 440.871 Z" fill="#000000" fill-rule="evenodd" fill-opacity="1" /><path clip-path="url(#clip100)" d="M 0 0 M64.3254 129.945 Q60.9921 129.945 59.0708 131.727 Q57.1726 133.51 57.1726 136.635 Q57.1726 139.76 59.0708 141.542 Q60.9921 143.325 64.3254 143.325 Q67.6587 143.325 69.58 141.542 Q71.5013 139.737 71.5013 136.635 Q71.5013 133.51 69.58 131.727 Q67.6819 129.945 64.3254 129.945 M59.6495 127.954 Q56.6402 127.214 54.9504 125.153 Q53.2838 123.093 53.2838 120.13 Q53.2838 115.987 56.2236 113.579 Q59.1865 111.172 64.3254 111.172 Q69.4874 111.172 72.4272 113.579 Q75.367 115.987 75.367 120.13 Q75.367 123.093 73.6772 125.153 Q72.0105 127.214 69.0244 127.954 Q72.404 128.741 74.279 131.033 Q76.1772 133.325 76.1772 136.635 Q76.1772 141.658 73.0985 144.343 Q70.0429 147.028 64.3254 147.028 Q58.6078 147.028 55.5291 144.343 Q52.4736 141.658 52.4736 136.635 Q52.4736 133.325 54.3717 131.033 Q56.2699 128.741 59.6495 127.954 M57.9365 120.57 Q57.9365 123.255 59.6032 124.76 Q61.293 126.265 64.3254 126.265 Q67.3346 126.265 69.0244 124.76 Q70.7374 123.255 70.7374 120.57 Q70.7374 117.885 69.0244 116.38 Q67.3346 114.876 64.3254 114.876 Q61.293 114.876 59.6032 116.38 Q57.9365 117.885 57.9365 120.57 Z" fill="#000000" fill-rule="evenodd" fill-opacity="1" /><path clip-path="url(#clip100)" d="M 0 0 M91.2465 114.876 Q87.6354 114.876 85.8068 118.44 Q84.0012 121.982 84.0012 129.112 Q84.0012 136.218 85.8068 139.783 Q87.6354 143.325 91.2465 143.325 Q94.8808 143.325 96.6863 139.783 Q98.515 136.218 98.515 129.112 Q98.515 121.982 96.6863 118.44 Q94.8808 114.876 91.2465 114.876 M91.2465 111.172 Q97.0567 111.172 100.112 115.778 Q103.191 120.362 103.191 129.112 Q103.191 137.839 100.112 142.445 Q97.0567 147.028 91.2465 147.028 Q85.4364 147.028 82.3577 142.445 Q79.3022 137.839 79.3022 129.112 Q79.3022 120.362 82.3577 115.778 Q85.4364 111.172 91.2465 111.172 Z" fill="#000000" fill-rule="evenodd" fill-opacity="1" /><path clip-path="url(#clip100)" d="M 0 0 M118.26 114.876 Q114.649 114.876 112.82 118.44 Q111.015 121.982 111.015 129.112 Q111.015 136.218 112.82 139.783 Q114.649 143.325 118.26 143.325 Q121.895 143.325 123.7 139.783 Q125.529 136.218 125.529 129.112 Q125.529 121.982 123.7 118.44 Q121.895 114.876 118.26 114.876 M118.26 111.172 Q124.07 111.172 127.126 115.778 Q130.205 120.362 130.205 129.112 Q130.205 137.839 127.126 142.445 Q124.07 147.028 118.26 147.028 Q112.45 147.028 109.371 142.445 Q106.316 137.839 106.316 129.112 Q106.316 120.362 109.371 115.778 Q112.45 111.172 118.26 111.172 Z" fill="#000000" fill-rule="evenodd" fill-opacity="1" /><path clip-path="url(#clip100)" d="M 0 0 M1183.67 18.8205 L1183.67 65.8515 L1193.55 65.8515 Q1206.07 65.8515 1211.86 60.1802 Q1217.7 54.509 1217.7 42.2752 Q1217.7 30.1225 1211.86 24.4918 Q1206.07 18.8205 1193.55 18.8205 L1183.67 18.8205 M1175.48 12.096 L1192.3 12.096 Q1209.88 12.096 1218.1 19.4281 Q1226.32 26.7198 1226.32 42.2752 Q1226.32 57.9117 1218.06 65.2439 Q1209.8 72.576 1192.3 72.576 L1175.48 72.576 L1175.48 12.096 Z" fill="#000000" fill-rule="evenodd" fill-opacity="1" /><path clip-path="url(#clip100)" d="M 0 0 M1254.76 49.7694 Q1245.73 49.7694 1242.24 51.8354 Q1238.76 53.9013 1238.76 58.8839 Q1238.76 62.8538 1241.35 65.2034 Q1243.99 67.5124 1248.48 67.5124 Q1254.68 67.5124 1258.41 63.1374 Q1262.17 58.7219 1262.17 51.4303 L1262.17 49.7694 L1254.76 49.7694 M1269.63 46.6907 L1269.63 72.576 L1262.17 72.576 L1262.17 65.6895 Q1259.62 69.8214 1255.81 71.8063 Q1252.01 73.7508 1246.5 73.7508 Q1239.53 73.7508 1235.4 69.8619 Q1231.31 65.9325 1231.31 59.3701 Q1231.31 51.7138 1236.41 47.825 Q1241.56 43.9361 1251.72 43.9361 L1262.17 43.9361 L1262.17 43.2069 Q1262.17 38.0623 1258.77 35.2672 Q1255.41 32.4315 1249.29 32.4315 Q1245.4 32.4315 1241.72 33.3632 Q1238.03 34.295 1234.63 36.1584 L1234.63 29.2718 Q1238.72 27.692 1242.57 26.9223 Q1246.42 26.1121 1250.06 26.1121 Q1259.91 26.1121 1264.77 31.2163 Q1269.63 36.3204 1269.63 46.6907 Z" fill="#000000" fill-rule="evenodd" fill-opacity="1" /><path clip-path="url(#clip100)" d="M 0 0 M1284.82 14.324 L1284.82 27.2059 L1300.17 27.2059 L1300.17 32.9987 L1284.82 32.9987 L1284.82 57.6282 Q1284.82 63.1779 1286.32 64.7578 Q1287.86 66.3376 1292.52 66.3376 L1300.17 66.3376 L1300.17 72.576 L1292.52 72.576 Q1283.89 72.576 1280.61 69.3758 Q1277.32 66.1351 1277.32 57.6282 L1277.32 32.9987 L1271.86 32.9987 L1271.86 27.2059 L1277.32 27.2059 L1277.32 14.324 L1284.82 14.324 Z" fill="#000000" fill-rule="evenodd" fill-opacity="1" /><path clip-path="url(#clip100)" d="M 0 0 M1328.61 49.7694 Q1319.58 49.7694 1316.09 51.8354 Q1312.61 53.9013 1312.61 58.8839 Q1312.61 62.8538 1315.2 65.2034 Q1317.83 67.5124 1322.33 67.5124 Q1328.53 67.5124 1332.25 63.1374 Q1336.02 58.7219 1336.02 51.4303 L1336.02 49.7694 L1328.61 49.7694 M1343.48 46.6907 L1343.48 72.576 L1336.02 72.576 L1336.02 65.6895 Q1333.47 69.8214 1329.66 71.8063 Q1325.85 73.7508 1320.35 73.7508 Q1313.38 73.7508 1309.25 69.8619 Q1305.15 65.9325 1305.15 59.3701 Q1305.15 51.7138 1310.26 47.825 Q1315.4 43.9361 1325.57 43.9361 L1336.02 43.9361 L1336.02 43.2069 Q1336.02 38.0623 1332.62 35.2672 Q1329.26 32.4315 1323.14 32.4315 Q1319.25 32.4315 1315.57 33.3632 Q1311.88 34.295 1308.48 36.1584 L1308.48 29.2718 Q1312.57 27.692 1316.42 26.9223 Q1320.26 26.1121 1323.91 26.1121 Q1333.75 26.1121 1338.61 31.2163 Q1343.48 36.3204 1343.48 46.6907 Z" fill="#000000" fill-rule="evenodd" fill-opacity="1" /><polyline clip-path="url(#clip102)" style="stroke:#009af9; stroke-width:4; stroke-opacity:1; fill:none" points="
  228.088,1447.87 228.088,1315.99 262.468,1315.99 296.848,1315.99 296.848,1299.51 331.227,1299.51 331.227,1167.63 365.607,1167.63 365.607,1035.75 
  399.987,1035.75 399.987,1052.23 434.367,1052.23 434.367,953.325 468.746,953.325 468.746,837.93 503.126,837.93 537.506,837.93 537.506,821.445 
  571.886,821.445 571.886,755.505 606.265,755.505 640.645,755.505 640.645,953.325 675.025,953.325 675.025,986.294 709.405,986.294 709.405,969.81 
  743.784,969.81 743.784,1002.78 778.164,1002.78 778.164,1101.69 812.544,1101.69 812.544,1266.54 846.923,1266.54 846.923,1283.02 881.303,1283.02 881.303,1250.05 
  915.683,1250.05 915.683,1365.45 950.063,1365.45 950.063,1414.9 984.442,1414.9 984.442,1431.39 1018.82,1431.39 1018.82,1414.9 1053.2,1414.9 1053.2,1431.39 
  1087.58,1431.39 1087.58,1414.9 1121.96,1414.9 1121.96,1398.42 1156.34,1398.42 1156.34,1381.93 1190.72,1381.93 1190.72,1365.45 1225.1,1365.45 1225.1,1266.54 
  1259.48,1266.54 1259.48,1233.57 1293.86,1233.57 1293.86,1118.17 1328.24,1118.17 1328.24,936.84 1362.62,936.84 1362.62,1052.23 1397,1052.23 1397,590.656 
  1431.38,590.656 1431.38,541.201 1465.76,541.201 1465.76,260.957 1500.14,260.957 1500.14,227.987 1534.52,227.987 1534.52,195.017 1568.9,195.017 1568.9,178.532 
  1603.28,178.532 1603.28,277.442 1637.66,277.442 1637.66,162.047 1672.04,162.047 1672.04,458.776 1706.42,458.776 1706.42,392.836 1740.8,392.836 1740.8,557.686 
  1775.18,557.686 1775.18,739.02 1809.56,739.02 1809.56,887.385 1843.94,887.385 1843.94,1101.69 1878.32,1101.69 1878.32,1085.2 1912.7,1085.2 1912.7,1315.99 
  1947.08,1315.99 1947.08,1348.96 1981.45,1348.96 1981.45,1332.48 2015.83,1332.48 2015.83,1348.96 2050.21,1348.96 2050.21,1398.42 2084.59,1398.42 2084.59,1447.87 
  2118.97,1447.87 2118.97,1414.9 2153.35,1414.9 2153.35,1447.87 2187.73,1447.87 2222.11,1447.87 2256.49,1447.87 
  2290.87,1447.87 
  "/>
<path clip-path="url(#clip100)" d="
M1940.93 289.865 L2279.87 289.865 L2279.87 168.905 L1940.93 168.905  Z
  " fill="#ffffff" fill-rule="evenodd" fill-opacity="1"/>
<polyline clip-path="url(#clip100)" style="stroke:#000000; stroke-width:4; stroke-opacity:1; fill:none" points="
  1940.93,289.865 2279.87,289.865 2279.87,168.905 1940.93,168.905 1940.93,289.865 
  "/>
<polyline clip-path="url(#clip100)" style="stroke:#009af9; stroke-width:4; stroke-opacity:1; fill:none" points="
  1965.22,229.385 2110.99,229.385 
  "/>
<path clip-path="url(#clip100)" d="M 0 0 M2139.96 215.947 L2139.96 242.822 L2145.61 242.822 Q2152.76 242.822 2156.07 239.581 Q2159.41 236.341 2159.41 229.35 Q2159.41 222.406 2156.07 219.188 Q2152.76 215.947 2145.61 215.947 L2139.96 215.947 M2135.29 212.105 L2144.89 212.105 Q2154.94 212.105 2159.64 216.294 Q2164.34 220.461 2164.34 229.35 Q2164.34 238.285 2159.61 242.475 Q2154.89 246.665 2144.89 246.665 L2135.29 246.665 L2135.29 212.105 Z" fill="#000000" fill-rule="evenodd" fill-opacity="1" /><path clip-path="url(#clip100)" d="M 0 0 M2180.59 233.632 Q2175.42 233.632 2173.43 234.813 Q2171.44 235.993 2171.44 238.841 Q2171.44 241.109 2172.92 242.452 Q2174.43 243.771 2177 243.771 Q2180.54 243.771 2182.67 241.271 Q2184.82 238.748 2184.82 234.581 L2184.82 233.632 L2180.59 233.632 M2189.08 231.873 L2189.08 246.665 L2184.82 246.665 L2184.82 242.729 Q2183.36 245.091 2181.19 246.225 Q2179.01 247.336 2175.86 247.336 Q2171.88 247.336 2169.52 245.114 Q2167.18 242.868 2167.18 239.118 Q2167.18 234.743 2170.1 232.521 Q2173.04 230.299 2178.85 230.299 L2184.82 230.299 L2184.82 229.882 Q2184.82 226.943 2182.88 225.345 Q2180.96 223.725 2177.46 223.725 Q2175.24 223.725 2173.13 224.257 Q2171.03 224.79 2169.08 225.855 L2169.08 221.919 Q2171.42 221.017 2173.62 220.577 Q2175.82 220.114 2177.9 220.114 Q2183.53 220.114 2186.3 223.031 Q2189.08 225.947 2189.08 231.873 Z" fill="#000000" fill-rule="evenodd" fill-opacity="1" /><path clip-path="url(#clip100)" d="M 0 0 M2197.76 213.378 L2197.76 220.739 L2206.54 220.739 L2206.54 224.049 L2197.76 224.049 L2197.76 238.123 Q2197.76 241.294 2198.62 242.197 Q2199.5 243.1 2202.16 243.1 L2206.54 243.1 L2206.54 246.665 L2202.16 246.665 Q2197.23 246.665 2195.36 244.836 Q2193.48 242.984 2193.48 238.123 L2193.48 224.049 L2190.36 224.049 L2190.36 220.739 L2193.48 220.739 L2193.48 213.378 L2197.76 213.378 Z" fill="#000000" fill-rule="evenodd" fill-opacity="1" /><path clip-path="url(#clip100)" d="M 0 0 M2222.79 233.632 Q2217.62 233.632 2215.63 234.813 Q2213.64 235.993 2213.64 238.841 Q2213.64 241.109 2215.12 242.452 Q2216.63 243.771 2219.2 243.771 Q2222.74 243.771 2224.87 241.271 Q2227.02 238.748 2227.02 234.581 L2227.02 233.632 L2222.79 233.632 M2231.28 231.873 L2231.28 246.665 L2227.02 246.665 L2227.02 242.729 Q2225.56 245.091 2223.39 246.225 Q2221.21 247.336 2218.06 247.336 Q2214.08 247.336 2211.72 245.114 Q2209.38 242.868 2209.38 239.118 Q2209.38 234.743 2212.3 232.521 Q2215.24 230.299 2221.05 230.299 L2227.02 230.299 L2227.02 229.882 Q2227.02 226.943 2225.08 225.345 Q2223.16 223.725 2219.66 223.725 Q2217.44 223.725 2215.33 224.257 Q2213.23 224.79 2211.28 225.855 L2211.28 221.919 Q2213.62 221.017 2215.82 220.577 Q2218.02 220.114 2220.1 220.114 Q2225.73 220.114 2228.5 223.031 Q2231.28 225.947 2231.28 231.873 Z" fill="#000000" fill-rule="evenodd" fill-opacity="1" /></svg>
