<?xml version="1.0" encoding="utf-8"?>
<svg xmlns="http://www.w3.org/2000/svg" xmlns:xlink="http://www.w3.org/1999/xlink" width="600" height="400" viewBox="0 0 2400 1600">
<defs>
  <clipPath id="clip6400">
    <rect x="0" y="0" width="2400" height="1600"/>
  </clipPath>
</defs>
<path clip-path="url(#clip6400)" d="
M0 1600 L2400 1600 L2400 0 L0 0  Z
  " fill="#ffffff" fill-rule="evenodd" fill-opacity="1"/>
<defs>
  <clipPath id="clip6401">
    <rect x="480" y="0" width="1681" height="1600"/>
  </clipPath>
</defs>
<path clip-path="url(#clip6400)" d="
M202.373 1425.62 L2352.76 1425.62 L2352.76 121.675 L202.373 121.675  Z
  " fill="#ffffff" fill-rule="evenodd" fill-opacity="1"/>
<defs>
  <clipPath id="clip6402">
    <rect x="202" y="121" width="2151" height="1305"/>
  </clipPath>
</defs>
<polyline clip-path="url(#clip6402)" style="stroke:#000000; stroke-width:2; stroke-opacity:0.1; fill:none" points="
  357.589,1425.62 357.589,121.675 
  "/>
<polyline clip-path="url(#clip6402)" style="stroke:#000000; stroke-width:2; stroke-opacity:0.1; fill:none" points="
  829.371,1425.62 829.371,121.675 
  "/>
<polyline clip-path="url(#clip6402)" style="stroke:#000000; stroke-width:2; stroke-opacity:0.1; fill:none" points="
  1301.15,1425.62 1301.15,121.675 
  "/>
<polyline clip-path="url(#clip6402)" style="stroke:#000000; stroke-width:2; stroke-opacity:0.1; fill:none" points="
  1772.94,1425.62 1772.94,121.675 
  "/>
<polyline clip-path="url(#clip6402)" style="stroke:#000000; stroke-width:2; stroke-opacity:0.1; fill:none" points="
  2244.72,1425.62 2244.72,121.675 
  "/>
<polyline clip-path="url(#clip6402)" style="stroke:#000000; stroke-width:2; stroke-opacity:0.1; fill:none" points="
  202.373,1388.71 2352.76,1388.71 
  "/>
<polyline clip-path="url(#clip6402)" style="stroke:#000000; stroke-width:2; stroke-opacity:0.1; fill:none" points="
  202.373,1002.92 2352.76,1002.92 
  "/>
<polyline clip-path="url(#clip6402)" style="stroke:#000000; stroke-width:2; stroke-opacity:0.1; fill:none" points="
  202.373,617.121 2352.76,617.121 
  "/>
<polyline clip-path="url(#clip6402)" style="stroke:#000000; stroke-width:2; stroke-opacity:0.1; fill:none" points="
  202.373,231.324 2352.76,231.324 
  "/>
<polyline clip-path="url(#clip6400)" style="stroke:#000000; stroke-width:4; stroke-opacity:1; fill:none" points="
  202.373,1425.62 2352.76,1425.62 
  "/>
<polyline clip-path="url(#clip6400)" style="stroke:#000000; stroke-width:4; stroke-opacity:1; fill:none" points="
  202.373,1425.62 202.373,121.675 
  "/>
<polyline clip-path="url(#clip6400)" style="stroke:#000000; stroke-width:4; stroke-opacity:1; fill:none" points="
  357.589,1425.62 357.589,1406.06 
  "/>
<polyline clip-path="url(#clip6400)" style="stroke:#000000; stroke-width:4; stroke-opacity:1; fill:none" points="
  829.371,1425.62 829.371,1406.06 
  "/>
<polyline clip-path="url(#clip6400)" style="stroke:#000000; stroke-width:4; stroke-opacity:1; fill:none" points="
  1301.15,1425.62 1301.15,1406.06 
  "/>
<polyline clip-path="url(#clip6400)" style="stroke:#000000; stroke-width:4; stroke-opacity:1; fill:none" points="
  1772.94,1425.62 1772.94,1406.06 
  "/>
<polyline clip-path="url(#clip6400)" style="stroke:#000000; stroke-width:4; stroke-opacity:1; fill:none" points="
  2244.72,1425.62 2244.72,1406.06 
  "/>
<polyline clip-path="url(#clip6400)" style="stroke:#000000; stroke-width:4; stroke-opacity:1; fill:none" points="
  202.373,1388.71 234.629,1388.71 
  "/>
<polyline clip-path="url(#clip6400)" style="stroke:#000000; stroke-width:4; stroke-opacity:1; fill:none" points="
  202.373,1002.92 234.629,1002.92 
  "/>
<polyline clip-path="url(#clip6400)" style="stroke:#000000; stroke-width:4; stroke-opacity:1; fill:none" points="
  202.373,617.121 234.629,617.121 
  "/>
<polyline clip-path="url(#clip6400)" style="stroke:#000000; stroke-width:4; stroke-opacity:1; fill:none" points="
  202.373,231.324 234.629,231.324 
  "/>
<g clip-path="url(#clip6400)">
<text style="fill:#000000; fill-opacity:1; font-family:Arial,Helvetica Neue,Helvetica,sans-serif; font-size:48px; text-anchor:middle;" transform="rotate(0, 357.589, 1479.62)" x="357.589" y="1479.62">-1.10</text>
</g>
<g clip-path="url(#clip6400)">
<text style="fill:#000000; fill-opacity:1; font-family:Arial,Helvetica Neue,Helvetica,sans-serif; font-size:48px; text-anchor:middle;" transform="rotate(0, 829.371, 1479.62)" x="829.371" y="1479.62">-1.05</text>
</g>
<g clip-path="url(#clip6400)">
<text style="fill:#000000; fill-opacity:1; font-family:Arial,Helvetica Neue,Helvetica,sans-serif; font-size:48px; text-anchor:middle;" transform="rotate(0, 1301.15, 1479.62)" x="1301.15" y="1479.62">-1.00</text>
</g>
<g clip-path="url(#clip6400)">
<text style="fill:#000000; fill-opacity:1; font-family:Arial,Helvetica Neue,Helvetica,sans-serif; font-size:48px; text-anchor:middle;" transform="rotate(0, 1772.94, 1479.62)" x="1772.94" y="1479.62">-0.95</text>
</g>
<g clip-path="url(#clip6400)">
<text style="fill:#000000; fill-opacity:1; font-family:Arial,Helvetica Neue,Helvetica,sans-serif; font-size:48px; text-anchor:middle;" transform="rotate(0, 2244.72, 1479.62)" x="2244.72" y="1479.62">-0.90</text>
</g>
<g clip-path="url(#clip6400)">
<text style="fill:#000000; fill-opacity:1; font-family:Arial,Helvetica Neue,Helvetica,sans-serif; font-size:48px; text-anchor:end;" transform="rotate(0, 178.373, 1406.21)" x="178.373" y="1406.21">0</text>
</g>
<g clip-path="url(#clip6400)">
<text style="fill:#000000; fill-opacity:1; font-family:Arial,Helvetica Neue,Helvetica,sans-serif; font-size:48px; text-anchor:end;" transform="rotate(0, 178.373, 1020.42)" x="178.373" y="1020.42">5</text>
</g>
<g clip-path="url(#clip6400)">
<text style="fill:#000000; fill-opacity:1; font-family:Arial,Helvetica Neue,Helvetica,sans-serif; font-size:48px; text-anchor:end;" transform="rotate(0, 178.373, 634.621)" x="178.373" y="634.621">10</text>
</g>
<g clip-path="url(#clip6400)">
<text style="fill:#000000; fill-opacity:1; font-family:Arial,Helvetica Neue,Helvetica,sans-serif; font-size:48px; text-anchor:end;" transform="rotate(0, 178.373, 248.824)" x="178.373" y="248.824">15</text>
</g>
<g clip-path="url(#clip6400)">
<text style="fill:#000000; fill-opacity:1; font-family:Arial,Helvetica Neue,Helvetica,sans-serif; font-size:84px; text-anchor:middle;" transform="rotate(0, 1277.56, 73.2)" x="1277.56" y="73.2">Marginalized Distribution for mu_1</text>
</g>
<g clip-path="url(#clip6400)">
<text style="fill:#000000; fill-opacity:1; font-family:Arial,Helvetica Neue,Helvetica,sans-serif; font-size:66px; text-anchor:middle;" transform="rotate(0, 1277.56, 1559.48)" x="1277.56" y="1559.48">mu_1</text>
</g>
<g clip-path="url(#clip6400)">
<text style="fill:#000000; fill-opacity:1; font-family:Arial,Helvetica Neue,Helvetica,sans-serif; font-size:66px; text-anchor:middle;" transform="rotate(-90, 89.2861, 773.647)" x="89.2861" y="773.647">P(mu_1)</text>
</g>
<path clip-path="url(#clip6402)" d="
M263.233 1388.71 L310.411 1388.71 L310.411 1388.71 L357.589 1388.71 L357.589 1388.71 L404.767 1388.71 L404.767 1388.71 L451.946 1388.71 L451.946 1388.71 L499.124 1388.71 
  L499.124 1388.71 L546.302 1388.71 L546.302 1388.71 L593.48 1388.71 L593.48 1388.71 L640.659 1388.71 L640.659 1368.42 L687.837 1368.42 L687.837 1345.14 L735.015 1345.14 
  L735.015 1325.1 L782.193 1325.1 L782.193 1300.83 L829.371 1300.83 L829.371 1262.74 L876.55 1262.74 L876.55 1191.03 L923.728 1191.03 L923.728 1125.93 L970.906 1125.93 
  L970.906 990.488 L1018.08 990.488 L1018.08 878.701 L1065.26 878.701 L1065.26 713.883 L1112.44 713.883 L1112.44 565.871 L1159.62 565.871 L1159.62 476.615 L1206.8 476.615 
  L1206.8 336.445 L1253.98 336.445 L1253.98 247.937 L1301.15 247.937 L1301.15 194.408 L1348.33 194.408 L1348.33 220.924 L1395.51 220.924 L1395.51 227.646 L1442.69 227.646 
  L1442.69 306.445 L1489.87 306.445 L1489.87 436.407 L1537.04 436.407 L1537.04 534.501 L1584.22 534.501 L1584.22 688.613 L1631.4 688.613 L1631.4 839.364 L1678.58 839.364 
  L1678.58 952.769 L1725.76 952.769 L1725.76 1050.37 L1772.94 1050.37 L1772.94 1155.43 L1820.11 1155.43 L1820.11 1213.81 L1867.29 1213.81 L1867.29 1294.98 L1914.47 1294.98 
  L1914.47 1316.39 L1961.65 1316.39 L1961.65 1342.78 L2008.83 1342.78 L2008.83 1367.8 L2056 1367.8 L2056 1388.71 L2103.18 1388.71 L2103.18 1388.71 L2150.36 1388.71 
  L2150.36 1388.71 L2197.54 1388.71 L2197.54 1388.71 L2244.72 1388.71 L2244.72 1388.71 L2291.9 1388.71 L2291.9 1388.71 L2291.9 1388.71 L2291.9 1388.71 L2244.72 1388.71 
  L2244.72 1388.71 L2197.54 1388.71 L2197.54 1388.71 L2150.36 1388.71 L2150.36 1388.71 L2103.18 1388.71 L2103.18 1388.71 L2056 1388.71 L2056 1388.71 L2008.83 1388.71 
  L2008.83 1388.71 L1961.65 1388.71 L1961.65 1388.71 L1914.47 1388.71 L1914.47 1388.71 L1867.29 1388.71 L1867.29 1388.71 L1820.11 1388.71 L1820.11 1388.71 L1772.94 1388.71 
  L1772.94 1388.71 L1725.76 1388.71 L1725.76 1388.71 L1678.58 1388.71 L1678.58 1388.71 L1631.4 1388.71 L1631.4 1388.71 L1584.22 1388.71 L1584.22 1388.71 L1537.04 1388.71 
  L1537.04 1388.71 L1489.87 1388.71 L1489.87 1388.71 L1442.69 1388.71 L1442.69 1388.71 L1395.51 1388.71 L1395.51 1388.71 L1348.33 1388.71 L1348.33 1388.71 L1301.15 1388.71 
  L1301.15 1388.71 L1253.98 1388.71 L1253.98 1388.71 L1206.8 1388.71 L1206.8 1388.71 L1159.62 1388.71 L1159.62 1388.71 L1112.44 1388.71 L1112.44 1388.71 L1065.26 1388.71 
  L1065.26 1388.71 L1018.08 1388.71 L1018.08 1388.71 L970.906 1388.71 L970.906 1388.71 L923.728 1388.71 L923.728 1388.71 L876.55 1388.71 L876.55 1388.71 L829.371 1388.71 
  L829.371 1388.71 L782.193 1388.71 L782.193 1388.71 L735.015 1388.71 L735.015 1388.71 L687.837 1388.71 L687.837 1388.71 L640.659 1388.71 L640.659 1388.71 L593.48 1388.71 
  L593.48 1388.71 L546.302 1388.71 L546.302 1388.71 L499.124 1388.71 L499.124 1388.71 L451.946 1388.71 L451.946 1388.71 L404.767 1388.71 L404.767 1388.71 L357.589 1388.71 
  L357.589 1388.71 L310.411 1388.71 L310.411 1388.71 L263.233 1388.71  Z
  " fill="#ff0000" fill-rule="evenodd" fill-opacity="1"/>
<polyline clip-path="url(#clip6402)" style="stroke:#009af9; stroke-width:0; stroke-opacity:1; fill:none" points="
  263.233,1388.71 310.411,1388.71 357.589,1388.71 404.767,1388.71 451.946,1388.71 499.124,1388.71 
  546.302,1388.71 593.48,1388.71 640.659,1388.71 640.659,1368.42 687.837,1368.42 687.837,1345.14 735.015,1345.14 
  735.015,1325.1 782.193,1325.1 782.193,1300.83 829.371,1300.83 829.371,1262.74 876.55,1262.74 876.55,1191.03 923.728,1191.03 923.728,1125.93 970.906,1125.93 
  970.906,990.488 1018.08,990.488 1018.08,878.701 1065.26,878.701 1065.26,713.883 1112.44,713.883 1112.44,565.871 1159.62,565.871 1159.62,476.615 1206.8,476.615 
  1206.8,336.445 1253.98,336.445 1253.98,247.937 1301.15,247.937 1301.15,194.408 1348.33,194.408 1348.33,220.924 1395.51,220.924 1395.51,227.646 1442.69,227.646 
  1442.69,306.445 1489.87,306.445 1489.87,436.407 1537.04,436.407 1537.04,534.501 1584.22,534.501 1584.22,688.613 1631.4,688.613 1631.4,839.364 1678.58,839.364 
  1678.58,952.769 1725.76,952.769 1725.76,1050.37 1772.94,1050.37 1772.94,1155.43 1820.11,1155.43 1820.11,1213.81 1867.29,1213.81 1867.29,1294.98 1914.47,1294.98 
  1914.47,1316.39 1961.65,1316.39 1961.65,1342.78 2008.83,1342.78 2008.83,1367.8 2056,1367.8 2056,1388.71 2103.18,1388.71 2150.36,1388.71 
  2197.54,1388.71 2244.72,1388.71 2291.9,1388.71 
  "/>
<path clip-path="url(#clip6402)" d="
M263.233 1388.71 L310.411 1388.71 L310.411 1388.71 L357.589 1388.71 L357.589 1388.71 L404.767 1388.71 L404.767 1388.71 L451.946 1388.71 L451.946 1388.71 L499.124 1388.71 
  L499.124 1388.71 L546.302 1388.71 L546.302 1388.71 L593.48 1388.71 L593.48 1388.71 L640.659 1388.71 L640.659 1388.71 L687.837 1388.71 L687.837 1388.71 L735.015 1388.71 
  L735.015 1388.71 L782.193 1388.71 L782.193 1388.71 L829.371 1388.71 L829.371 1388.71 L876.55 1388.71 L876.55 1191.03 L923.728 1191.03 L923.728 1125.93 L970.906 1125.93 
  L970.906 990.488 L1018.08 990.488 L1018.08 878.701 L1065.26 878.701 L1065.26 713.883 L1112.44 713.883 L1112.44 565.871 L1159.62 565.871 L1159.62 476.615 L1206.8 476.615 
  L1206.8 336.445 L1253.98 336.445 L1253.98 247.937 L1301.15 247.937 L1301.15 194.408 L1348.33 194.408 L1348.33 220.924 L1395.51 220.924 L1395.51 227.646 L1442.69 227.646 
  L1442.69 306.445 L1489.87 306.445 L1489.87 436.407 L1537.04 436.407 L1537.04 534.501 L1584.22 534.501 L1584.22 688.613 L1631.4 688.613 L1631.4 839.364 L1678.58 839.364 
  L1678.58 952.769 L1725.76 952.769 L1725.76 1050.37 L1772.94 1050.37 L1772.94 1155.43 L1820.11 1155.43 L1820.11 1213.81 L1867.29 1213.81 L1867.29 1388.71 L1914.47 1388.71 
  L1914.47 1388.71 L1961.65 1388.71 L1961.65 1388.71 L2008.83 1388.71 L2008.83 1388.71 L2056 1388.71 L2056 1388.71 L2103.18 1388.71 L2103.18 1388.71 L2150.36 1388.71 
  L2150.36 1388.71 L2197.54 1388.71 L2197.54 1388.71 L2244.72 1388.71 L2244.72 1388.71 L2291.9 1388.71 L2291.9 1388.71 L2291.9 1388.71 L2291.9 1388.71 L2244.72 1388.71 
  L2244.72 1388.71 L2197.54 1388.71 L2197.54 1388.71 L2150.36 1388.71 L2150.36 1388.71 L2103.18 1388.71 L2103.18 1388.71 L2056 1388.71 L2056 1388.71 L2008.83 1388.71 
  L2008.83 1388.71 L1961.65 1388.71 L1961.65 1388.71 L1914.47 1388.71 L1914.47 1388.71 L1867.29 1388.71 L1867.29 1388.71 L1820.11 1388.71 L1820.11 1388.71 L1772.94 1388.71 
  L1772.94 1388.71 L1725.76 1388.71 L1725.76 1388.71 L1678.58 1388.71 L1678.58 1388.71 L1631.4 1388.71 L1631.4 1388.71 L1584.22 1388.71 L1584.22 1388.71 L1537.04 1388.71 
  L1537.04 1388.71 L1489.87 1388.71 L1489.87 1388.71 L1442.69 1388.71 L1442.69 1388.71 L1395.51 1388.71 L1395.51 1388.71 L1348.33 1388.71 L1348.33 1388.71 L1301.15 1388.71 
  L1301.15 1388.71 L1253.98 1388.71 L1253.98 1388.71 L1206.8 1388.71 L1206.8 1388.71 L1159.62 1388.71 L1159.62 1388.71 L1112.44 1388.71 L1112.44 1388.71 L1065.26 1388.71 
  L1065.26 1388.71 L1018.08 1388.71 L1018.08 1388.71 L970.906 1388.71 L970.906 1388.71 L923.728 1388.71 L923.728 1388.71 L876.55 1388.71 L876.55 1388.71 L829.371 1388.71 
  L829.371 1388.71 L782.193 1388.71 L782.193 1388.71 L735.015 1388.71 L735.015 1388.71 L687.837 1388.71 L687.837 1388.71 L640.659 1388.71 L640.659 1388.71 L593.48 1388.71 
  L593.48 1388.71 L546.302 1388.71 L546.302 1388.71 L499.124 1388.71 L499.124 1388.71 L451.946 1388.71 L451.946 1388.71 L404.767 1388.71 L404.767 1388.71 L357.589 1388.71 
  L357.589 1388.71 L310.411 1388.71 L310.411 1388.71 L263.233 1388.71  Z
  " fill="#ffff00" fill-rule="evenodd" fill-opacity="1"/>
<polyline clip-path="url(#clip6402)" style="stroke:#e26f46; stroke-width:0; stroke-opacity:1; fill:none" points="
  263.233,1388.71 310.411,1388.71 357.589,1388.71 404.767,1388.71 451.946,1388.71 499.124,1388.71 
  546.302,1388.71 593.48,1388.71 640.659,1388.71 687.837,1388.71 735.015,1388.71 
  782.193,1388.71 829.371,1388.71 876.55,1388.71 876.55,1191.03 923.728,1191.03 923.728,1125.93 970.906,1125.93 
  970.906,990.488 1018.08,990.488 1018.08,878.701 1065.26,878.701 1065.26,713.883 1112.44,713.883 1112.44,565.871 1159.62,565.871 1159.62,476.615 1206.8,476.615 
  1206.8,336.445 1253.98,336.445 1253.98,247.937 1301.15,247.937 1301.15,194.408 1348.33,194.408 1348.33,220.924 1395.51,220.924 1395.51,227.646 1442.69,227.646 
  1442.69,306.445 1489.87,306.445 1489.87,436.407 1537.04,436.407 1537.04,534.501 1584.22,534.501 1584.22,688.613 1631.4,688.613 1631.4,839.364 1678.58,839.364 
  1678.58,952.769 1725.76,952.769 1725.76,1050.37 1772.94,1050.37 1772.94,1155.43 1820.11,1155.43 1820.11,1213.81 1867.29,1213.81 1867.29,1388.71 1914.47,1388.71 
  1961.65,1388.71 2008.83,1388.71 2056,1388.71 2103.18,1388.71 2150.36,1388.71 
  2197.54,1388.71 2244.72,1388.71 2291.9,1388.71 
  "/>
<path clip-path="url(#clip6402)" d="
M263.233 1388.71 L310.411 1388.71 L310.411 1388.71 L357.589 1388.71 L357.589 1388.71 L404.767 1388.71 L404.767 1388.71 L451.946 1388.71 L451.946 1388.71 L499.124 1388.71 
  L499.124 1388.71 L546.302 1388.71 L546.302 1388.71 L593.48 1388.71 L593.48 1388.71 L640.659 1388.71 L640.659 1388.71 L687.837 1388.71 L687.837 1388.71 L735.015 1388.71 
  L735.015 1388.71 L782.193 1388.71 L782.193 1388.71 L829.371 1388.71 L829.371 1388.71 L876.55 1388.71 L876.55 1388.71 L923.728 1388.71 L923.728 1388.71 L970.906 1388.71 
  L970.906 1388.71 L1018.08 1388.71 L1018.08 1388.71 L1065.26 1388.71 L1065.26 1388.71 L1112.44 1388.71 L1112.44 565.871 L1159.62 565.871 L1159.62 476.615 L1206.8 476.615 
  L1206.8 336.445 L1253.98 336.445 L1253.98 247.937 L1301.15 247.937 L1301.15 194.408 L1348.33 194.408 L1348.33 220.924 L1395.51 220.924 L1395.51 227.646 L1442.69 227.646 
  L1442.69 306.445 L1489.87 306.445 L1489.87 436.407 L1537.04 436.407 L1537.04 534.501 L1584.22 534.501 L1584.22 688.613 L1631.4 688.613 L1631.4 1388.71 L1678.58 1388.71 
  L1678.58 1388.71 L1725.76 1388.71 L1725.76 1388.71 L1772.94 1388.71 L1772.94 1388.71 L1820.11 1388.71 L1820.11 1388.71 L1867.29 1388.71 L1867.29 1388.71 L1914.47 1388.71 
  L1914.47 1388.71 L1961.65 1388.71 L1961.65 1388.71 L2008.83 1388.71 L2008.83 1388.71 L2056 1388.71 L2056 1388.71 L2103.18 1388.71 L2103.18 1388.71 L2150.36 1388.71 
  L2150.36 1388.71 L2197.54 1388.71 L2197.54 1388.71 L2244.72 1388.71 L2244.72 1388.71 L2291.9 1388.71 L2291.9 1388.71 L2291.9 1388.71 L2291.9 1388.71 L2244.72 1388.71 
  L2244.72 1388.71 L2197.54 1388.71 L2197.54 1388.71 L2150.36 1388.71 L2150.36 1388.71 L2103.18 1388.71 L2103.18 1388.71 L2056 1388.71 L2056 1388.71 L2008.83 1388.71 
  L2008.83 1388.71 L1961.65 1388.71 L1961.65 1388.71 L1914.47 1388.71 L1914.47 1388.71 L1867.29 1388.71 L1867.29 1388.71 L1820.11 1388.71 L1820.11 1388.71 L1772.94 1388.71 
  L1772.94 1388.71 L1725.76 1388.71 L1725.76 1388.71 L1678.58 1388.71 L1678.58 1388.71 L1631.4 1388.71 L1631.4 1388.71 L1584.22 1388.71 L1584.22 1388.71 L1537.04 1388.71 
  L1537.04 1388.71 L1489.87 1388.71 L1489.87 1388.71 L1442.69 1388.71 L1442.69 1388.71 L1395.51 1388.71 L1395.51 1388.71 L1348.33 1388.71 L1348.33 1388.71 L1301.15 1388.71 
  L1301.15 1388.71 L1253.98 1388.71 L1253.98 1388.71 L1206.8 1388.71 L1206.8 1388.71 L1159.62 1388.71 L1159.62 1388.71 L1112.44 1388.71 L1112.44 1388.71 L1065.26 1388.71 
  L1065.26 1388.71 L1018.08 1388.71 L1018.08 1388.71 L970.906 1388.71 L970.906 1388.71 L923.728 1388.71 L923.728 1388.71 L876.55 1388.71 L876.55 1388.71 L829.371 1388.71 
  L829.371 1388.71 L782.193 1388.71 L782.193 1388.71 L735.015 1388.71 L735.015 1388.71 L687.837 1388.71 L687.837 1388.71 L640.659 1388.71 L640.659 1388.71 L593.48 1388.71 
  L593.48 1388.71 L546.302 1388.71 L546.302 1388.71 L499.124 1388.71 L499.124 1388.71 L451.946 1388.71 L451.946 1388.71 L404.767 1388.71 L404.767 1388.71 L357.589 1388.71 
  L357.589 1388.71 L310.411 1388.71 L310.411 1388.71 L263.233 1388.71  Z
  " fill="#76ee00" fill-rule="evenodd" fill-opacity="1"/>
<polyline clip-path="url(#clip6402)" style="stroke:#3da44d; stroke-width:0; stroke-opacity:1; fill:none" points="
  263.233,1388.71 310.411,1388.71 357.589,1388.71 404.767,1388.71 451.946,1388.71 499.124,1388.71 
  546.302,1388.71 593.48,1388.71 640.659,1388.71 687.837,1388.71 735.015,1388.71 
  782.193,1388.71 829.371,1388.71 876.55,1388.71 923.728,1388.71 970.906,1388.71 
  1018.08,1388.71 1065.26,1388.71 1112.44,1388.71 1112.44,565.871 1159.62,565.871 1159.62,476.615 1206.8,476.615 
  1206.8,336.445 1253.98,336.445 1253.98,247.937 1301.15,247.937 1301.15,194.408 1348.33,194.408 1348.33,220.924 1395.51,220.924 1395.51,227.646 1442.69,227.646 
  1442.69,306.445 1489.87,306.445 1489.87,436.407 1537.04,436.407 1537.04,534.501 1584.22,534.501 1584.22,688.613 1631.4,688.613 1631.4,1388.71 1678.58,1388.71 
  1725.76,1388.71 1772.94,1388.71 1820.11,1388.71 1867.29,1388.71 1914.47,1388.71 
  1961.65,1388.71 2008.83,1388.71 2056,1388.71 2103.18,1388.71 2150.36,1388.71 
  2197.54,1388.71 2244.72,1388.71 2291.9,1388.71 
  "/>
<polyline clip-path="url(#clip6402)" style="stroke:#000000; stroke-width:2.8; stroke-opacity:1; fill:none" points="
  263.233,1388.47 310.411,1388.47 310.411,1388.59 357.589,1388.59 404.767,1388.59 404.767,1387.97 451.946,1387.97 499.124,1387.97 
  499.124,1384.48 546.302,1384.48 546.302,1380.87 593.48,1380.87 593.48,1374.4 640.659,1374.4 640.659,1368.42 687.837,1368.42 687.837,1345.14 735.015,1345.14 
  735.015,1325.1 782.193,1325.1 782.193,1300.83 829.371,1300.83 829.371,1262.74 876.55,1262.74 876.55,1191.03 923.728,1191.03 923.728,1125.93 970.906,1125.93 
  970.906,990.488 1018.08,990.488 1018.08,878.701 1065.26,878.701 1065.26,713.883 1112.44,713.883 1112.44,565.871 1159.62,565.871 1159.62,476.615 1206.8,476.615 
  1206.8,336.445 1253.98,336.445 1253.98,247.937 1301.15,247.937 1301.15,194.408 1348.33,194.408 1348.33,220.924 1395.51,220.924 1395.51,227.646 1442.69,227.646 
  1442.69,306.445 1489.87,306.445 1489.87,436.407 1537.04,436.407 1537.04,534.501 1584.22,534.501 1584.22,688.613 1631.4,688.613 1631.4,839.364 1678.58,839.364 
  1678.58,952.769 1725.76,952.769 1725.76,1050.37 1772.94,1050.37 1772.94,1155.43 1820.11,1155.43 1820.11,1213.81 1867.29,1213.81 1867.29,1294.98 1914.47,1294.98 
  1914.47,1316.39 1961.65,1316.39 1961.65,1342.78 2008.83,1342.78 2008.83,1367.8 2056,1367.8 2056,1381.49 2103.18,1381.49 2103.18,1385.35 2150.36,1385.35 
  2150.36,1387.1 2197.54,1387.1 2197.54,1387.84 2244.72,1387.84 2244.72,1388.22 2291.9,1388.22 2291.9,1388.47 
  "/>
<path clip-path="url(#clip6402)" d="
M1114.7 1388.71 L1597.84 1388.71 L1597.84 158.579 L1114.7 158.579 L1114.7 1388.71  Z
  " fill="#808080" fill-rule="evenodd" fill-opacity="0.5"/>
<polyline clip-path="url(#clip6402)" style="stroke:#000000; stroke-width:0; stroke-opacity:1; fill:none" points="
  1114.7,1388.71 1597.84,1388.71 1597.84,158.579 1114.7,158.579 1114.7,1388.71 
  "/>
<polyline clip-path="url(#clip6402)" style="stroke:#696969; stroke-width:4; stroke-opacity:1; fill:none" points="
  1356.27,1388.71 1356.27,158.579 
  "/>
<polyline clip-path="url(#clip6402)" style="stroke:#000000; stroke-width:4; stroke-opacity:1; fill:none" stroke-dasharray="16, 10" points="
  1359.57,1388.71 1359.57,158.579 
  "/>
<polyline clip-path="url(#clip6402)" style="stroke:#000000; stroke-width:4; stroke-opacity:1; fill:none" stroke-dasharray="2, 4" points="
  1324.74,1388.71 1324.74,158.579 
  "/>
<path clip-path="url(#clip6400)" d="
M1463.01 689.035 L2280.76 689.035 L2280.76 205.195 L1463.01 205.195  Z
  " fill="#ffffff" fill-rule="evenodd" fill-opacity="1"/>
<polyline clip-path="url(#clip6400)" style="stroke:#000000; stroke-width:4; stroke-opacity:1; fill:none" points="
  1463.01,689.035 2280.76,689.035 2280.76,205.195 1463.01,205.195 1463.01,689.035 
  "/>
<path clip-path="url(#clip6400)" d="
M1487.01 289.867 L1631.01 289.867 L1631.01 241.483 L1487.01 241.483 L1487.01 289.867  Z
  " fill="#ff0000" fill-rule="evenodd" fill-opacity="1"/>
<polyline clip-path="url(#clip6400)" style="stroke:#009af9; stroke-width:0; stroke-opacity:1; fill:none" points="
  1487.01,241.483 1631.01,241.483 
  "/>
<g clip-path="url(#clip6400)">
<text style="fill:#000000; fill-opacity:1; font-family:Arial,Helvetica Neue,Helvetica,sans-serif; font-size:48px; text-anchor:start;" transform="rotate(0, 1655.01, 283.175)" x="1655.01" y="283.175">smallest 99.73% interval(s)</text>
</g>
<path clip-path="url(#clip6400)" d="
M1487.01 350.347 L1631.01 350.347 L1631.01 301.963 L1487.01 301.963 L1487.01 350.347  Z
  " fill="#ffff00" fill-rule="evenodd" fill-opacity="1"/>
<polyline clip-path="url(#clip6400)" style="stroke:#e26f46; stroke-width:0; stroke-opacity:1; fill:none" points="
  1487.01,301.963 1631.01,301.963 
  "/>
<g clip-path="url(#clip6400)">
<text style="fill:#000000; fill-opacity:1; font-family:Arial,Helvetica Neue,Helvetica,sans-serif; font-size:48px; text-anchor:start;" transform="rotate(0, 1655.01, 343.655)" x="1655.01" y="343.655">smallest 96.01% interval(s)</text>
</g>
<path clip-path="url(#clip6400)" d="
M1487.01 410.827 L1631.01 410.827 L1631.01 362.443 L1487.01 362.443 L1487.01 410.827  Z
  " fill="#76ee00" fill-rule="evenodd" fill-opacity="1"/>
<polyline clip-path="url(#clip6400)" style="stroke:#3da44d; stroke-width:0; stroke-opacity:1; fill:none" points="
  1487.01,362.443 1631.01,362.443 
  "/>
<g clip-path="url(#clip6400)">
<text style="fill:#000000; fill-opacity:1; font-family:Arial,Helvetica Neue,Helvetica,sans-serif; font-size:48px; text-anchor:start;" transform="rotate(0, 1655.01, 404.135)" x="1655.01" y="404.135">smallest 71.54% interval(s)</text>
</g>
<path clip-path="url(#clip6400)" d="
M1487.01 471.307 L1631.01 471.307 L1631.01 422.923 L1487.01 422.923 L1487.01 471.307  Z
  " fill="#808080" fill-rule="evenodd" fill-opacity="0.5"/>
<polyline clip-path="url(#clip6400)" style="stroke:#000000; stroke-width:0; stroke-opacity:1; fill:none" points="
  1487.01,471.307 1631.01,471.307 1631.01,422.923 1487.01,422.923 1487.01,471.307 
  "/>
<g clip-path="url(#clip6400)">
<text style="fill:#000000; fill-opacity:1; font-family:Arial,Helvetica Neue,Helvetica,sans-serif; font-size:48px; text-anchor:start;" transform="rotate(0, 1655.01, 464.615)" x="1655.01" y="464.615">std. dev.</text>
</g>
<polyline clip-path="url(#clip6400)" style="stroke:#696969; stroke-width:4; stroke-opacity:1; fill:none" points="
  1487.01,507.595 1631.01,507.595 
  "/>
<g clip-path="url(#clip6400)">
<text style="fill:#000000; fill-opacity:1; font-family:Arial,Helvetica Neue,Helvetica,sans-serif; font-size:48px; text-anchor:start;" transform="rotate(0, 1655.01, 525.095)" x="1655.01" y="525.095">mean</text>
</g>
<polyline clip-path="url(#clip6400)" style="stroke:#000000; stroke-width:4; stroke-opacity:1; fill:none" stroke-dasharray="16, 10" points="
  1487.01,568.075 1631.01,568.075 
  "/>
<g clip-path="url(#clip6400)">
<text style="fill:#000000; fill-opacity:1; font-family:Arial,Helvetica Neue,Helvetica,sans-serif; font-size:48px; text-anchor:start;" transform="rotate(0, 1655.01, 585.575)" x="1655.01" y="585.575">global mode</text>
</g>
<polyline clip-path="url(#clip6400)" style="stroke:#000000; stroke-width:4; stroke-opacity:1; fill:none" stroke-dasharray="2, 4" points="
  1487.01,628.555 1631.01,628.555 
  "/>
<g clip-path="url(#clip6400)">
<text style="fill:#000000; fill-opacity:1; font-family:Arial,Helvetica Neue,Helvetica,sans-serif; font-size:48px; text-anchor:start;" transform="rotate(0, 1655.01, 646.055)" x="1655.01" y="646.055">local mode</text>
</g>
</svg>
