<?xml version="1.0" encoding="utf-8"?>
<svg xmlns="http://www.w3.org/2000/svg" xmlns:xlink="http://www.w3.org/1999/xlink" width="600" height="400" viewBox="0 0 2400 1600">
<defs>
  <clipPath id="clip5800">
    <rect x="0" y="0" width="2400" height="1600"/>
  </clipPath>
</defs>
<path clip-path="url(#clip5800)" d="
M0 1600 L2400 1600 L2400 0 L0 0  Z
  " fill="#ffffff" fill-rule="evenodd" fill-opacity="1"/>
<defs>
  <clipPath id="clip5801">
    <rect x="480" y="0" width="1681" height="1600"/>
  </clipPath>
</defs>
<path clip-path="url(#clip5800)" d="
M167.279 1487.47 L2352.76 1487.47 L2352.76 121.675 L167.279 121.675  Z
  " fill="#ffffff" fill-rule="evenodd" fill-opacity="1"/>
<defs>
  <clipPath id="clip5802">
    <rect x="167" y="121" width="2186" height="1367"/>
  </clipPath>
</defs>
<polyline clip-path="url(#clip5802)" style="stroke:#000000; stroke-width:2; stroke-opacity:0.1; fill:none" points="
  229.132,1487.47 229.132,121.675 
  "/>
<polyline clip-path="url(#clip5802)" style="stroke:#000000; stroke-width:2; stroke-opacity:0.1; fill:none" points="
  572.761,1487.47 572.761,121.675 
  "/>
<polyline clip-path="url(#clip5802)" style="stroke:#000000; stroke-width:2; stroke-opacity:0.1; fill:none" points="
  916.389,1487.47 916.389,121.675 
  "/>
<polyline clip-path="url(#clip5802)" style="stroke:#000000; stroke-width:2; stroke-opacity:0.1; fill:none" points="
  1260.02,1487.47 1260.02,121.675 
  "/>
<polyline clip-path="url(#clip5802)" style="stroke:#000000; stroke-width:2; stroke-opacity:0.1; fill:none" points="
  1603.65,1487.47 1603.65,121.675 
  "/>
<polyline clip-path="url(#clip5802)" style="stroke:#000000; stroke-width:2; stroke-opacity:0.1; fill:none" points="
  1947.27,1487.47 1947.27,121.675 
  "/>
<polyline clip-path="url(#clip5802)" style="stroke:#000000; stroke-width:2; stroke-opacity:0.1; fill:none" points="
  2290.9,1487.47 2290.9,121.675 
  "/>
<polyline clip-path="url(#clip5802)" style="stroke:#000000; stroke-width:2; stroke-opacity:0.1; fill:none" points="
  167.279,1448.82 2352.76,1448.82 
  "/>
<polyline clip-path="url(#clip5802)" style="stroke:#000000; stroke-width:2; stroke-opacity:0.1; fill:none" points="
  167.279,1174.67 2352.76,1174.67 
  "/>
<polyline clip-path="url(#clip5802)" style="stroke:#000000; stroke-width:2; stroke-opacity:0.1; fill:none" points="
  167.279,900.526 2352.76,900.526 
  "/>
<polyline clip-path="url(#clip5802)" style="stroke:#000000; stroke-width:2; stroke-opacity:0.1; fill:none" points="
  167.279,626.379 2352.76,626.379 
  "/>
<polyline clip-path="url(#clip5802)" style="stroke:#000000; stroke-width:2; stroke-opacity:0.1; fill:none" points="
  167.279,352.233 2352.76,352.233 
  "/>
<polyline clip-path="url(#clip5800)" style="stroke:#000000; stroke-width:4; stroke-opacity:1; fill:none" points="
  167.279,1487.47 2352.76,1487.47 
  "/>
<polyline clip-path="url(#clip5800)" style="stroke:#000000; stroke-width:4; stroke-opacity:1; fill:none" points="
  167.279,1487.47 167.279,121.675 
  "/>
<polyline clip-path="url(#clip5800)" style="stroke:#000000; stroke-width:4; stroke-opacity:1; fill:none" points="
  229.132,1487.47 229.132,1466.99 
  "/>
<polyline clip-path="url(#clip5800)" style="stroke:#000000; stroke-width:4; stroke-opacity:1; fill:none" points="
  572.761,1487.47 572.761,1466.99 
  "/>
<polyline clip-path="url(#clip5800)" style="stroke:#000000; stroke-width:4; stroke-opacity:1; fill:none" points="
  916.389,1487.47 916.389,1466.99 
  "/>
<polyline clip-path="url(#clip5800)" style="stroke:#000000; stroke-width:4; stroke-opacity:1; fill:none" points="
  1260.02,1487.47 1260.02,1466.99 
  "/>
<polyline clip-path="url(#clip5800)" style="stroke:#000000; stroke-width:4; stroke-opacity:1; fill:none" points="
  1603.65,1487.47 1603.65,1466.99 
  "/>
<polyline clip-path="url(#clip5800)" style="stroke:#000000; stroke-width:4; stroke-opacity:1; fill:none" points="
  1947.27,1487.47 1947.27,1466.99 
  "/>
<polyline clip-path="url(#clip5800)" style="stroke:#000000; stroke-width:4; stroke-opacity:1; fill:none" points="
  2290.9,1487.47 2290.9,1466.99 
  "/>
<polyline clip-path="url(#clip5800)" style="stroke:#000000; stroke-width:4; stroke-opacity:1; fill:none" points="
  167.279,1448.82 200.061,1448.82 
  "/>
<polyline clip-path="url(#clip5800)" style="stroke:#000000; stroke-width:4; stroke-opacity:1; fill:none" points="
  167.279,1174.67 200.061,1174.67 
  "/>
<polyline clip-path="url(#clip5800)" style="stroke:#000000; stroke-width:4; stroke-opacity:1; fill:none" points="
  167.279,900.526 200.061,900.526 
  "/>
<polyline clip-path="url(#clip5800)" style="stroke:#000000; stroke-width:4; stroke-opacity:1; fill:none" points="
  167.279,626.379 200.061,626.379 
  "/>
<polyline clip-path="url(#clip5800)" style="stroke:#000000; stroke-width:4; stroke-opacity:1; fill:none" points="
  167.279,352.233 200.061,352.233 
  "/>
<g clip-path="url(#clip5800)">
<text style="fill:#000000; fill-opacity:1; font-family:Arial,Helvetica Neue,Helvetica,sans-serif; font-size:48px; text-anchor:middle;" transform="rotate(0, 229.132, 1541.47)" x="229.132" y="1541.47">-2</text>
</g>
<g clip-path="url(#clip5800)">
<text style="fill:#000000; fill-opacity:1; font-family:Arial,Helvetica Neue,Helvetica,sans-serif; font-size:48px; text-anchor:middle;" transform="rotate(0, 572.761, 1541.47)" x="572.761" y="1541.47">-1</text>
</g>
<g clip-path="url(#clip5800)">
<text style="fill:#000000; fill-opacity:1; font-family:Arial,Helvetica Neue,Helvetica,sans-serif; font-size:48px; text-anchor:middle;" transform="rotate(0, 916.389, 1541.47)" x="916.389" y="1541.47">0</text>
</g>
<g clip-path="url(#clip5800)">
<text style="fill:#000000; fill-opacity:1; font-family:Arial,Helvetica Neue,Helvetica,sans-serif; font-size:48px; text-anchor:middle;" transform="rotate(0, 1260.02, 1541.47)" x="1260.02" y="1541.47">1</text>
</g>
<g clip-path="url(#clip5800)">
<text style="fill:#000000; fill-opacity:1; font-family:Arial,Helvetica Neue,Helvetica,sans-serif; font-size:48px; text-anchor:middle;" transform="rotate(0, 1603.65, 1541.47)" x="1603.65" y="1541.47">2</text>
</g>
<g clip-path="url(#clip5800)">
<text style="fill:#000000; fill-opacity:1; font-family:Arial,Helvetica Neue,Helvetica,sans-serif; font-size:48px; text-anchor:middle;" transform="rotate(0, 1947.27, 1541.47)" x="1947.27" y="1541.47">3</text>
</g>
<g clip-path="url(#clip5800)">
<text style="fill:#000000; fill-opacity:1; font-family:Arial,Helvetica Neue,Helvetica,sans-serif; font-size:48px; text-anchor:middle;" transform="rotate(0, 2290.9, 1541.47)" x="2290.9" y="1541.47">4</text>
</g>
<g clip-path="url(#clip5800)">
<text style="fill:#000000; fill-opacity:1; font-family:Arial,Helvetica Neue,Helvetica,sans-serif; font-size:48px; text-anchor:end;" transform="rotate(0, 143.279, 1466.32)" x="143.279" y="1466.32">0</text>
</g>
<g clip-path="url(#clip5800)">
<text style="fill:#000000; fill-opacity:1; font-family:Arial,Helvetica Neue,Helvetica,sans-serif; font-size:48px; text-anchor:end;" transform="rotate(0, 143.279, 1192.17)" x="143.279" y="1192.17">200</text>
</g>
<g clip-path="url(#clip5800)">
<text style="fill:#000000; fill-opacity:1; font-family:Arial,Helvetica Neue,Helvetica,sans-serif; font-size:48px; text-anchor:end;" transform="rotate(0, 143.279, 918.026)" x="143.279" y="918.026">400</text>
</g>
<g clip-path="url(#clip5800)">
<text style="fill:#000000; fill-opacity:1; font-family:Arial,Helvetica Neue,Helvetica,sans-serif; font-size:48px; text-anchor:end;" transform="rotate(0, 143.279, 643.879)" x="143.279" y="643.879">600</text>
</g>
<g clip-path="url(#clip5800)">
<text style="fill:#000000; fill-opacity:1; font-family:Arial,Helvetica Neue,Helvetica,sans-serif; font-size:48px; text-anchor:end;" transform="rotate(0, 143.279, 369.733)" x="143.279" y="369.733">800</text>
</g>
<g clip-path="url(#clip5800)">
<text style="fill:#000000; fill-opacity:1; font-family:Arial,Helvetica Neue,Helvetica,sans-serif; font-size:84px; text-anchor:middle;" transform="rotate(0, 1260.02, 73.2)" x="1260.02" y="73.2">Data</text>
</g>
<polyline clip-path="url(#clip5802)" style="stroke:#009af9; stroke-width:4; stroke-opacity:1; fill:none" points="
  229.132,1448.82 229.132,1352.87 263.495,1352.87 263.495,1380.28 297.858,1380.28 297.858,1284.33 332.221,1284.33 332.221,1174.67 366.584,1174.67 
  400.946,1174.67 400.946,1119.84 435.309,1119.84 435.309,969.063 469.672,969.063 469.672,996.478 504.035,996.478 504.035,914.234 538.398,914.234 538.398,941.648 
  572.761,941.648 572.761,777.16 607.124,777.16 607.124,927.941 641.486,927.941 641.486,1023.89 675.849,1023.89 675.849,996.478 710.212,996.478 710.212,1078.72 
  744.575,1078.72 744.575,1065.01 778.938,1065.01 778.938,1256.92 813.301,1256.92 813.301,1325.45 847.663,1325.45 847.663,1339.16 882.026,1339.16 882.026,1352.87 
  916.389,1352.87 916.389,1407.7 950.752,1407.7 950.752,1393.99 985.115,1393.99 985.115,1421.41 1019.48,1421.41 1019.48,1393.99 1053.84,1393.99 1053.84,1435.11 
  1088.2,1435.11 1088.2,1421.41 1122.57,1421.41 1156.93,1421.41 1191.29,1421.41 1191.29,1352.87 1225.65,1352.87 1225.65,1243.21 
  1260.02,1243.21 1260.02,1366.58 1294.38,1366.58 1294.38,1215.8 1328.74,1215.8 1328.74,1010.19 1363.11,1010.19 1363.11,955.356 1397.47,955.356 1397.47,763.453 
  1431.83,763.453 1431.83,845.697 1466.19,845.697 1466.19,694.916 1500.56,694.916 1500.56,667.502 1534.92,667.502 1534.92,489.306 1569.28,489.306 1569.28,160.33 
  1603.65,160.33 1603.65,434.477 1638.01,434.477 1638.01,352.233 1672.37,352.233 1672.37,557.843 1706.73,557.843 1706.73,544.135 1741.1,544.135 1741.1,708.624 
  1775.46,708.624 1775.46,736.038 1809.82,736.038 1809.82,1037.6 1844.19,1037.6 1844.19,1065.01 1878.55,1065.01 1878.55,1133.55 1912.91,1133.55 1912.91,1284.33 
  1947.27,1284.33 1947.27,1298.04 1981.64,1298.04 1981.64,1407.7 2016,1407.7 2016,1393.99 2050.36,1393.99 2050.36,1380.28 2084.73,1380.28 2084.73,1435.11 
  2119.09,1435.11 2153.45,1435.11 2153.45,1448.82 2187.81,1448.82 2222.18,1448.82 2256.54,1448.82 
  2290.9,1448.82 
  "/>
<path clip-path="url(#clip5800)" d="
M1939.1 326.155 L2280.76 326.155 L2280.76 205.195 L1939.1 205.195  Z
  " fill="#ffffff" fill-rule="evenodd" fill-opacity="1"/>
<polyline clip-path="url(#clip5800)" style="stroke:#000000; stroke-width:4; stroke-opacity:1; fill:none" points="
  1939.1,326.155 2280.76,326.155 2280.76,205.195 1939.1,205.195 1939.1,326.155 
  "/>
<polyline clip-path="url(#clip5800)" style="stroke:#009af9; stroke-width:4; stroke-opacity:1; fill:none" points="
  1963.1,265.675 2107.1,265.675 
  "/>
<g clip-path="url(#clip5800)">
<text style="fill:#000000; fill-opacity:1; font-family:Arial,Helvetica Neue,Helvetica,sans-serif; font-size:48px; text-anchor:start;" transform="rotate(0, 2131.1, 283.175)" x="2131.1" y="283.175">Data</text>
</g>
</svg>
