<?xml version="1.0" encoding="utf-8"?>
<svg xmlns="http://www.w3.org/2000/svg" xmlns:xlink="http://www.w3.org/1999/xlink" width="600" height="400" viewBox="0 0 2400 1600">
<defs>
  <clipPath id="clip710">
    <rect x="0" y="0" width="2400" height="1600"/>
  </clipPath>
</defs>
<path clip-path="url(#clip710)" d="M0 1600 L2400 1600 L2400 0 L0 0  Z" fill="#ffffff" fill-rule="evenodd" fill-opacity="1"/>
<defs>
  <clipPath id="clip711">
    <rect x="480" y="0" width="1681" height="1600"/>
  </clipPath>
</defs>
<path clip-path="url(#clip710)" d="M172.015 1486.45 L2352.76 1486.45 L2352.76 123.472 L172.015 123.472  Z" fill="#ffffff" fill-rule="evenodd" fill-opacity="1"/>
<defs>
  <clipPath id="clip712">
    <rect x="172" y="123" width="2182" height="1364"/>
  </clipPath>
</defs>
<polyline clip-path="url(#clip712)" style="stroke:#000000; stroke-linecap:round; stroke-linejoin:round; stroke-width:2; stroke-opacity:0.1; fill:none" points="233.734,1486.45 233.734,123.472 "/>
<polyline clip-path="url(#clip712)" style="stroke:#000000; stroke-linecap:round; stroke-linejoin:round; stroke-width:2; stroke-opacity:0.1; fill:none" points="576.618,1486.45 576.618,123.472 "/>
<polyline clip-path="url(#clip712)" style="stroke:#000000; stroke-linecap:round; stroke-linejoin:round; stroke-width:2; stroke-opacity:0.1; fill:none" points="919.502,1486.45 919.502,123.472 "/>
<polyline clip-path="url(#clip712)" style="stroke:#000000; stroke-linecap:round; stroke-linejoin:round; stroke-width:2; stroke-opacity:0.1; fill:none" points="1262.39,1486.45 1262.39,123.472 "/>
<polyline clip-path="url(#clip712)" style="stroke:#000000; stroke-linecap:round; stroke-linejoin:round; stroke-width:2; stroke-opacity:0.1; fill:none" points="1605.27,1486.45 1605.27,123.472 "/>
<polyline clip-path="url(#clip712)" style="stroke:#000000; stroke-linecap:round; stroke-linejoin:round; stroke-width:2; stroke-opacity:0.1; fill:none" points="1948.15,1486.45 1948.15,123.472 "/>
<polyline clip-path="url(#clip712)" style="stroke:#000000; stroke-linecap:round; stroke-linejoin:round; stroke-width:2; stroke-opacity:0.1; fill:none" points="2291.04,1486.45 2291.04,123.472 "/>
<polyline clip-path="url(#clip712)" style="stroke:#000000; stroke-linecap:round; stroke-linejoin:round; stroke-width:2; stroke-opacity:0.1; fill:none" points="172.015,1447.87 2352.76,1447.87 "/>
<polyline clip-path="url(#clip712)" style="stroke:#000000; stroke-linecap:round; stroke-linejoin:round; stroke-width:2; stroke-opacity:0.1; fill:none" points="172.015,1152.28 2352.76,1152.28 "/>
<polyline clip-path="url(#clip712)" style="stroke:#000000; stroke-linecap:round; stroke-linejoin:round; stroke-width:2; stroke-opacity:0.1; fill:none" points="172.015,856.689 2352.76,856.689 "/>
<polyline clip-path="url(#clip712)" style="stroke:#000000; stroke-linecap:round; stroke-linejoin:round; stroke-width:2; stroke-opacity:0.1; fill:none" points="172.015,561.096 2352.76,561.096 "/>
<polyline clip-path="url(#clip712)" style="stroke:#000000; stroke-linecap:round; stroke-linejoin:round; stroke-width:2; stroke-opacity:0.1; fill:none" points="172.015,265.504 2352.76,265.504 "/>
<polyline clip-path="url(#clip710)" style="stroke:#000000; stroke-linecap:round; stroke-linejoin:round; stroke-width:4; stroke-opacity:1; fill:none" points="172.015,1486.45 2352.76,1486.45 "/>
<polyline clip-path="url(#clip710)" style="stroke:#000000; stroke-linecap:round; stroke-linejoin:round; stroke-width:4; stroke-opacity:1; fill:none" points="233.734,1486.45 233.734,1467.55 "/>
<polyline clip-path="url(#clip710)" style="stroke:#000000; stroke-linecap:round; stroke-linejoin:round; stroke-width:4; stroke-opacity:1; fill:none" points="576.618,1486.45 576.618,1467.55 "/>
<polyline clip-path="url(#clip710)" style="stroke:#000000; stroke-linecap:round; stroke-linejoin:round; stroke-width:4; stroke-opacity:1; fill:none" points="919.502,1486.45 919.502,1467.55 "/>
<polyline clip-path="url(#clip710)" style="stroke:#000000; stroke-linecap:round; stroke-linejoin:round; stroke-width:4; stroke-opacity:1; fill:none" points="1262.39,1486.45 1262.39,1467.55 "/>
<polyline clip-path="url(#clip710)" style="stroke:#000000; stroke-linecap:round; stroke-linejoin:round; stroke-width:4; stroke-opacity:1; fill:none" points="1605.27,1486.45 1605.27,1467.55 "/>
<polyline clip-path="url(#clip710)" style="stroke:#000000; stroke-linecap:round; stroke-linejoin:round; stroke-width:4; stroke-opacity:1; fill:none" points="1948.15,1486.45 1948.15,1467.55 "/>
<polyline clip-path="url(#clip710)" style="stroke:#000000; stroke-linecap:round; stroke-linejoin:round; stroke-width:4; stroke-opacity:1; fill:none" points="2291.04,1486.45 2291.04,1467.55 "/>
<path clip-path="url(#clip710)" d="M203.676 1532.02 L233.352 1532.02 L233.352 1535.95 L203.676 1535.95 L203.676 1532.02 Z" fill="#000000" fill-rule="nonzero" fill-opacity="1" /><path clip-path="url(#clip710)" d="M247.472 1544.91 L263.792 1544.91 L263.792 1548.85 L241.847 1548.85 L241.847 1544.91 Q244.509 1542.16 249.093 1537.53 Q253.699 1532.88 254.88 1531.53 Q257.125 1529.01 258.005 1527.27 Q258.907 1525.51 258.907 1523.82 Q258.907 1521.07 256.963 1519.33 Q255.042 1517.6 251.94 1517.6 Q249.741 1517.6 247.287 1518.36 Q244.857 1519.13 242.079 1520.68 L242.079 1515.95 Q244.903 1514.82 247.357 1514.24 Q249.81 1513.66 251.847 1513.66 Q257.218 1513.66 260.412 1516.35 Q263.606 1519.03 263.606 1523.52 Q263.606 1525.65 262.796 1527.57 Q262.009 1529.47 259.903 1532.07 Q259.324 1532.74 256.222 1535.95 Q253.12 1539.15 247.472 1544.91 Z" fill="#000000" fill-rule="nonzero" fill-opacity="1" /><path clip-path="url(#clip710)" d="M546.375 1532.02 L576.051 1532.02 L576.051 1535.95 L546.375 1535.95 L546.375 1532.02 Z" fill="#000000" fill-rule="nonzero" fill-opacity="1" /><path clip-path="url(#clip710)" d="M586.953 1544.91 L594.592 1544.91 L594.592 1518.55 L586.282 1520.21 L586.282 1515.95 L594.546 1514.29 L599.222 1514.29 L599.222 1544.91 L606.861 1544.91 L606.861 1548.85 L586.953 1548.85 L586.953 1544.91 Z" fill="#000000" fill-rule="nonzero" fill-opacity="1" /><path clip-path="url(#clip710)" d="M919.502 1517.37 Q915.89 1517.37 914.062 1520.93 Q912.256 1524.47 912.256 1531.6 Q912.256 1538.71 914.062 1542.27 Q915.89 1545.82 919.502 1545.82 Q923.136 1545.82 924.941 1542.27 Q926.77 1538.71 926.77 1531.6 Q926.77 1524.47 924.941 1520.93 Q923.136 1517.37 919.502 1517.37 M919.502 1513.66 Q925.312 1513.66 928.367 1518.27 Q931.446 1522.85 931.446 1531.6 Q931.446 1540.33 928.367 1544.94 Q925.312 1549.52 919.502 1549.52 Q913.691 1549.52 910.613 1544.94 Q907.557 1540.33 907.557 1531.6 Q907.557 1522.85 910.613 1518.27 Q913.691 1513.66 919.502 1513.66 Z" fill="#000000" fill-rule="nonzero" fill-opacity="1" /><path clip-path="url(#clip710)" d="M1252.77 1544.91 L1260.41 1544.91 L1260.41 1518.55 L1252.1 1520.21 L1252.1 1515.95 L1260.36 1514.29 L1265.04 1514.29 L1265.04 1544.91 L1272.67 1544.91 L1272.67 1548.85 L1252.77 1548.85 L1252.77 1544.91 Z" fill="#000000" fill-rule="nonzero" fill-opacity="1" /><path clip-path="url(#clip710)" d="M1599.92 1544.91 L1616.24 1544.91 L1616.24 1548.85 L1594.3 1548.85 L1594.3 1544.91 Q1596.96 1542.16 1601.54 1537.53 Q1606.15 1532.88 1607.33 1531.53 Q1609.57 1529.01 1610.45 1527.27 Q1611.36 1525.51 1611.36 1523.82 Q1611.36 1521.07 1609.41 1519.33 Q1607.49 1517.6 1604.39 1517.6 Q1602.19 1517.6 1599.74 1518.36 Q1597.31 1519.13 1594.53 1520.68 L1594.53 1515.95 Q1597.35 1514.82 1599.81 1514.24 Q1602.26 1513.66 1604.3 1513.66 Q1609.67 1513.66 1612.86 1516.35 Q1616.06 1519.03 1616.06 1523.52 Q1616.06 1525.65 1615.25 1527.57 Q1614.46 1529.47 1612.35 1532.07 Q1611.77 1532.74 1608.67 1535.95 Q1605.57 1539.15 1599.92 1544.91 Z" fill="#000000" fill-rule="nonzero" fill-opacity="1" /><path clip-path="url(#clip710)" d="M1952.4 1530.21 Q1955.76 1530.93 1957.63 1533.2 Q1959.53 1535.47 1959.53 1538.8 Q1959.53 1543.92 1956.01 1546.72 Q1952.49 1549.52 1946.01 1549.52 Q1943.84 1549.52 1941.52 1549.08 Q1939.23 1548.66 1936.78 1547.81 L1936.78 1543.29 Q1938.72 1544.43 1941.03 1545.01 Q1943.35 1545.58 1945.87 1545.58 Q1950.27 1545.58 1952.56 1543.85 Q1954.88 1542.11 1954.88 1538.8 Q1954.88 1535.75 1952.72 1534.03 Q1950.6 1532.3 1946.78 1532.3 L1942.75 1532.3 L1942.75 1528.45 L1946.96 1528.45 Q1950.41 1528.45 1952.24 1527.09 Q1954.07 1525.7 1954.07 1523.11 Q1954.07 1520.45 1952.17 1519.03 Q1950.29 1517.6 1946.78 1517.6 Q1944.85 1517.6 1942.66 1518.01 Q1940.46 1518.43 1937.82 1519.31 L1937.82 1515.14 Q1940.48 1514.4 1942.79 1514.03 Q1945.13 1513.66 1947.19 1513.66 Q1952.52 1513.66 1955.62 1516.09 Q1958.72 1518.5 1958.72 1522.62 Q1958.72 1525.49 1957.08 1527.48 Q1955.43 1529.45 1952.4 1530.21 Z" fill="#000000" fill-rule="nonzero" fill-opacity="1" /><path clip-path="url(#clip710)" d="M2294.05 1518.36 L2282.24 1536.81 L2294.05 1536.81 L2294.05 1518.36 M2292.82 1514.29 L2298.7 1514.29 L2298.7 1536.81 L2303.63 1536.81 L2303.63 1540.7 L2298.7 1540.7 L2298.7 1548.85 L2294.05 1548.85 L2294.05 1540.7 L2278.44 1540.7 L2278.44 1536.19 L2292.82 1514.29 Z" fill="#000000" fill-rule="nonzero" fill-opacity="1" /><polyline clip-path="url(#clip710)" style="stroke:#000000; stroke-linecap:round; stroke-linejoin:round; stroke-width:4; stroke-opacity:1; fill:none" points="172.015,1486.45 172.015,123.472 "/>
<polyline clip-path="url(#clip710)" style="stroke:#000000; stroke-linecap:round; stroke-linejoin:round; stroke-width:4; stroke-opacity:1; fill:none" points="172.015,1447.87 190.912,1447.87 "/>
<polyline clip-path="url(#clip710)" style="stroke:#000000; stroke-linecap:round; stroke-linejoin:round; stroke-width:4; stroke-opacity:1; fill:none" points="172.015,1152.28 190.912,1152.28 "/>
<polyline clip-path="url(#clip710)" style="stroke:#000000; stroke-linecap:round; stroke-linejoin:round; stroke-width:4; stroke-opacity:1; fill:none" points="172.015,856.689 190.912,856.689 "/>
<polyline clip-path="url(#clip710)" style="stroke:#000000; stroke-linecap:round; stroke-linejoin:round; stroke-width:4; stroke-opacity:1; fill:none" points="172.015,561.096 190.912,561.096 "/>
<polyline clip-path="url(#clip710)" style="stroke:#000000; stroke-linecap:round; stroke-linejoin:round; stroke-width:4; stroke-opacity:1; fill:none" points="172.015,265.504 190.912,265.504 "/>
<path clip-path="url(#clip710)" d="M124.07 1433.67 Q120.459 1433.67 118.631 1437.24 Q116.825 1440.78 116.825 1447.91 Q116.825 1455.01 118.631 1458.58 Q120.459 1462.12 124.07 1462.12 Q127.705 1462.12 129.51 1458.58 Q131.339 1455.01 131.339 1447.91 Q131.339 1440.78 129.51 1437.24 Q127.705 1433.67 124.07 1433.67 M124.07 1429.97 Q129.881 1429.97 132.936 1434.57 Q136.015 1439.16 136.015 1447.91 Q136.015 1456.63 132.936 1461.24 Q129.881 1465.82 124.07 1465.82 Q118.26 1465.82 115.182 1461.24 Q112.126 1456.63 112.126 1447.91 Q112.126 1439.16 115.182 1434.57 Q118.26 1429.97 124.07 1429.97 Z" fill="#000000" fill-rule="nonzero" fill-opacity="1" /><path clip-path="url(#clip710)" d="M57.7745 1165.63 L74.0939 1165.63 L74.0939 1169.56 L52.1495 1169.56 L52.1495 1165.63 Q54.8115 1162.87 59.3949 1158.24 Q64.0013 1153.59 65.1819 1152.25 Q67.4272 1149.72 68.3068 1147.99 Q69.2096 1146.23 69.2096 1144.54 Q69.2096 1141.78 67.2652 1140.05 Q65.3439 1138.31 62.2421 1138.31 Q60.043 1138.31 57.5893 1139.07 Q55.1588 1139.84 52.381 1141.39 L52.381 1136.67 Q55.2051 1135.53 57.6588 1134.95 Q60.1124 1134.38 62.1495 1134.38 Q67.5198 1134.38 70.7142 1137.06 Q73.9087 1139.75 73.9087 1144.24 Q73.9087 1146.37 73.0985 1148.29 Q72.3115 1150.19 70.205 1152.78 Q69.6263 1153.45 66.5245 1156.67 Q63.4226 1159.86 57.7745 1165.63 Z" fill="#000000" fill-rule="nonzero" fill-opacity="1" /><path clip-path="url(#clip710)" d="M93.9086 1138.08 Q90.2975 1138.08 88.4688 1141.64 Q86.6632 1145.19 86.6632 1152.32 Q86.6632 1159.42 88.4688 1162.99 Q90.2975 1166.53 93.9086 1166.53 Q97.5428 1166.53 99.3483 1162.99 Q101.177 1159.42 101.177 1152.32 Q101.177 1145.19 99.3483 1141.64 Q97.5428 1138.08 93.9086 1138.08 M93.9086 1134.38 Q99.7187 1134.38 102.774 1138.98 Q105.853 1143.57 105.853 1152.32 Q105.853 1161.04 102.774 1165.65 Q99.7187 1170.23 93.9086 1170.23 Q88.0984 1170.23 85.0197 1165.65 Q81.9642 1161.04 81.9642 1152.32 Q81.9642 1143.57 85.0197 1138.98 Q88.0984 1134.38 93.9086 1134.38 Z" fill="#000000" fill-rule="nonzero" fill-opacity="1" /><path clip-path="url(#clip710)" d="M124.07 1138.08 Q120.459 1138.08 118.631 1141.64 Q116.825 1145.19 116.825 1152.32 Q116.825 1159.42 118.631 1162.99 Q120.459 1166.53 124.07 1166.53 Q127.705 1166.53 129.51 1162.99 Q131.339 1159.42 131.339 1152.32 Q131.339 1145.19 129.51 1141.64 Q127.705 1138.08 124.07 1138.08 M124.07 1134.38 Q129.881 1134.38 132.936 1138.98 Q136.015 1143.57 136.015 1152.32 Q136.015 1161.04 132.936 1165.65 Q129.881 1170.23 124.07 1170.23 Q118.26 1170.23 115.182 1165.65 Q112.126 1161.04 112.126 1152.32 Q112.126 1143.57 115.182 1138.98 Q118.26 1134.38 124.07 1134.38 Z" fill="#000000" fill-rule="nonzero" fill-opacity="1" /><path clip-path="url(#clip710)" d="M66.5939 843.483 L54.7884 861.932 L66.5939 861.932 L66.5939 843.483 M65.367 839.409 L71.2466 839.409 L71.2466 861.932 L76.1772 861.932 L76.1772 865.821 L71.2466 865.821 L71.2466 873.969 L66.5939 873.969 L66.5939 865.821 L50.9921 865.821 L50.9921 861.307 L65.367 839.409 Z" fill="#000000" fill-rule="nonzero" fill-opacity="1" /><path clip-path="url(#clip710)" d="M93.9086 842.487 Q90.2975 842.487 88.4688 846.052 Q86.6632 849.594 86.6632 856.723 Q86.6632 863.83 88.4688 867.395 Q90.2975 870.936 93.9086 870.936 Q97.5428 870.936 99.3483 867.395 Q101.177 863.83 101.177 856.723 Q101.177 849.594 99.3483 846.052 Q97.5428 842.487 93.9086 842.487 M93.9086 838.784 Q99.7187 838.784 102.774 843.39 Q105.853 847.973 105.853 856.723 Q105.853 865.45 102.774 870.057 Q99.7187 874.64 93.9086 874.64 Q88.0984 874.64 85.0197 870.057 Q81.9642 865.45 81.9642 856.723 Q81.9642 847.973 85.0197 843.39 Q88.0984 838.784 93.9086 838.784 Z" fill="#000000" fill-rule="nonzero" fill-opacity="1" /><path clip-path="url(#clip710)" d="M124.07 842.487 Q120.459 842.487 118.631 846.052 Q116.825 849.594 116.825 856.723 Q116.825 863.83 118.631 867.395 Q120.459 870.936 124.07 870.936 Q127.705 870.936 129.51 867.395 Q131.339 863.83 131.339 856.723 Q131.339 849.594 129.51 846.052 Q127.705 842.487 124.07 842.487 M124.07 838.784 Q129.881 838.784 132.936 843.39 Q136.015 847.973 136.015 856.723 Q136.015 865.45 132.936 870.057 Q129.881 874.64 124.07 874.64 Q118.26 874.64 115.182 870.057 Q112.126 865.45 112.126 856.723 Q112.126 847.973 115.182 843.39 Q118.26 838.784 124.07 838.784 Z" fill="#000000" fill-rule="nonzero" fill-opacity="1" /><path clip-path="url(#clip710)" d="M64.3254 559.233 Q61.1773 559.233 59.3254 561.386 Q57.4967 563.539 57.4967 567.289 Q57.4967 571.015 59.3254 573.191 Q61.1773 575.344 64.3254 575.344 Q67.4735 575.344 69.3022 573.191 Q71.1541 571.015 71.1541 567.289 Q71.1541 563.539 69.3022 561.386 Q67.4735 559.233 64.3254 559.233 M73.6077 544.58 L73.6077 548.84 Q71.8485 548.006 70.0429 547.566 Q68.2606 547.127 66.5013 547.127 Q61.8717 547.127 59.418 550.252 Q56.9875 553.377 56.6402 559.696 Q58.006 557.682 60.0662 556.617 Q62.1263 555.529 64.6032 555.529 Q69.8115 555.529 72.8207 558.701 Q75.8531 561.849 75.8531 567.289 Q75.8531 572.613 72.705 575.83 Q69.5568 579.048 64.3254 579.048 Q58.33 579.048 55.1588 574.464 Q51.9875 569.858 51.9875 561.131 Q51.9875 552.937 55.8764 548.076 Q59.7652 543.191 66.3161 543.191 Q68.0754 543.191 69.8578 543.539 Q71.6633 543.886 73.6077 544.58 Z" fill="#000000" fill-rule="nonzero" fill-opacity="1" /><path clip-path="url(#clip710)" d="M93.9086 546.895 Q90.2975 546.895 88.4688 550.46 Q86.6632 554.002 86.6632 561.131 Q86.6632 568.238 88.4688 571.802 Q90.2975 575.344 93.9086 575.344 Q97.5428 575.344 99.3483 571.802 Q101.177 568.238 101.177 561.131 Q101.177 554.002 99.3483 550.46 Q97.5428 546.895 93.9086 546.895 M93.9086 543.191 Q99.7187 543.191 102.774 547.798 Q105.853 552.381 105.853 561.131 Q105.853 569.858 102.774 574.464 Q99.7187 579.048 93.9086 579.048 Q88.0984 579.048 85.0197 574.464 Q81.9642 569.858 81.9642 561.131 Q81.9642 552.381 85.0197 547.798 Q88.0984 543.191 93.9086 543.191 Z" fill="#000000" fill-rule="nonzero" fill-opacity="1" /><path clip-path="url(#clip710)" d="M124.07 546.895 Q120.459 546.895 118.631 550.46 Q116.825 554.002 116.825 561.131 Q116.825 568.238 118.631 571.802 Q120.459 575.344 124.07 575.344 Q127.705 575.344 129.51 571.802 Q131.339 568.238 131.339 561.131 Q131.339 554.002 129.51 550.46 Q127.705 546.895 124.07 546.895 M124.07 543.191 Q129.881 543.191 132.936 547.798 Q136.015 552.381 136.015 561.131 Q136.015 569.858 132.936 574.464 Q129.881 579.048 124.07 579.048 Q118.26 579.048 115.182 574.464 Q112.126 569.858 112.126 561.131 Q112.126 552.381 115.182 547.798 Q118.26 543.191 124.07 543.191 Z" fill="#000000" fill-rule="nonzero" fill-opacity="1" /><path clip-path="url(#clip710)" d="M63.7467 266.372 Q60.4134 266.372 58.4921 268.155 Q56.5939 269.937 56.5939 273.062 Q56.5939 276.187 58.4921 277.969 Q60.4134 279.752 63.7467 279.752 Q67.08 279.752 69.0013 277.969 Q70.9226 276.164 70.9226 273.062 Q70.9226 269.937 69.0013 268.155 Q67.1032 266.372 63.7467 266.372 M59.0708 264.382 Q56.0615 263.641 54.3717 261.581 Q52.7051 259.52 52.7051 256.557 Q52.7051 252.414 55.6449 250.007 Q58.6078 247.599 63.7467 247.599 Q68.9087 247.599 71.8485 250.007 Q74.7883 252.414 74.7883 256.557 Q74.7883 259.52 73.0985 261.581 Q71.4318 263.641 68.4457 264.382 Q71.8253 265.169 73.7003 267.46 Q75.5985 269.752 75.5985 273.062 Q75.5985 278.085 72.5198 280.77 Q69.4642 283.455 63.7467 283.455 Q58.0291 283.455 54.9504 280.77 Q51.8949 278.085 51.8949 273.062 Q51.8949 269.752 53.793 267.46 Q55.6912 265.169 59.0708 264.382 M57.3578 256.997 Q57.3578 259.682 59.0245 261.187 Q60.7143 262.692 63.7467 262.692 Q66.7559 262.692 68.4457 261.187 Q70.1587 259.682 70.1587 256.997 Q70.1587 254.312 68.4457 252.807 Q66.7559 251.303 63.7467 251.303 Q60.7143 251.303 59.0245 252.807 Q57.3578 254.312 57.3578 256.997 Z" fill="#000000" fill-rule="nonzero" fill-opacity="1" /><path clip-path="url(#clip710)" d="M93.9086 251.303 Q90.2975 251.303 88.4688 254.868 Q86.6632 258.409 86.6632 265.539 Q86.6632 272.645 88.4688 276.21 Q90.2975 279.752 93.9086 279.752 Q97.5428 279.752 99.3483 276.21 Q101.177 272.645 101.177 265.539 Q101.177 258.409 99.3483 254.868 Q97.5428 251.303 93.9086 251.303 M93.9086 247.599 Q99.7187 247.599 102.774 252.206 Q105.853 256.789 105.853 265.539 Q105.853 274.266 102.774 278.872 Q99.7187 283.455 93.9086 283.455 Q88.0984 283.455 85.0197 278.872 Q81.9642 274.266 81.9642 265.539 Q81.9642 256.789 85.0197 252.206 Q88.0984 247.599 93.9086 247.599 Z" fill="#000000" fill-rule="nonzero" fill-opacity="1" /><path clip-path="url(#clip710)" d="M124.07 251.303 Q120.459 251.303 118.631 254.868 Q116.825 258.409 116.825 265.539 Q116.825 272.645 118.631 276.21 Q120.459 279.752 124.07 279.752 Q127.705 279.752 129.51 276.21 Q131.339 272.645 131.339 265.539 Q131.339 258.409 129.51 254.868 Q127.705 251.303 124.07 251.303 M124.07 247.599 Q129.881 247.599 132.936 252.206 Q136.015 256.789 136.015 265.539 Q136.015 274.266 132.936 278.872 Q129.881 283.455 124.07 283.455 Q118.26 283.455 115.182 278.872 Q112.126 274.266 112.126 265.539 Q112.126 256.789 115.182 252.206 Q118.26 247.599 124.07 247.599 Z" fill="#000000" fill-rule="nonzero" fill-opacity="1" /><path clip-path="url(#clip710)" d="M1179.36 18.8205 L1179.36 65.8515 L1189.25 65.8515 Q1201.76 65.8515 1207.56 60.1802 Q1213.39 54.509 1213.39 42.2752 Q1213.39 30.1225 1207.56 24.4918 Q1201.76 18.8205 1189.25 18.8205 L1179.36 18.8205 M1171.18 12.096 L1187.99 12.096 Q1205.57 12.096 1213.79 19.4281 Q1222.02 26.7198 1222.02 42.2752 Q1222.02 57.9117 1213.75 65.2439 Q1205.49 72.576 1187.99 72.576 L1171.18 72.576 L1171.18 12.096 Z" fill="#000000" fill-rule="nonzero" fill-opacity="1" /><path clip-path="url(#clip710)" d="M1255.36 49.7694 Q1246.32 49.7694 1242.84 51.8354 Q1239.36 53.9013 1239.36 58.8839 Q1239.36 62.8538 1241.95 65.2034 Q1244.58 67.5124 1249.08 67.5124 Q1255.28 67.5124 1259 63.1374 Q1262.77 58.7219 1262.77 51.4303 L1262.77 49.7694 L1255.36 49.7694 M1270.22 46.6907 L1270.22 72.576 L1262.77 72.576 L1262.77 65.6895 Q1260.22 69.8214 1256.41 71.8063 Q1252.6 73.7508 1247.09 73.7508 Q1240.13 73.7508 1235.99 69.8619 Q1231.9 65.9325 1231.9 59.3701 Q1231.9 51.7138 1237.01 47.825 Q1242.15 43.9361 1252.32 43.9361 L1262.77 43.9361 L1262.77 43.2069 Q1262.77 38.0623 1259.37 35.2672 Q1256.01 32.4315 1249.89 32.4315 Q1246 32.4315 1242.31 33.3632 Q1238.63 34.295 1235.22 36.1584 L1235.22 29.2718 Q1239.32 27.692 1243.16 26.9223 Q1247.01 26.1121 1250.66 26.1121 Q1260.5 26.1121 1265.36 31.2163 Q1270.22 36.3204 1270.22 46.6907 Z" fill="#000000" fill-rule="nonzero" fill-opacity="1" /><path clip-path="url(#clip710)" d="M1292.95 14.324 L1292.95 27.2059 L1308.3 27.2059 L1308.3 32.9987 L1292.95 32.9987 L1292.95 57.6282 Q1292.95 63.1779 1294.45 64.7578 Q1295.99 66.3376 1300.65 66.3376 L1308.3 66.3376 L1308.3 72.576 L1300.65 72.576 Q1292.02 72.576 1288.74 69.3758 Q1285.46 66.1351 1285.46 57.6282 L1285.46 32.9987 L1279.99 32.9987 L1279.99 27.2059 L1285.46 27.2059 L1285.46 14.324 L1292.95 14.324 Z" fill="#000000" fill-rule="nonzero" fill-opacity="1" /><path clip-path="url(#clip710)" d="M1338.72 49.7694 Q1329.69 49.7694 1326.21 51.8354 Q1322.72 53.9013 1322.72 58.8839 Q1322.72 62.8538 1325.32 65.2034 Q1327.95 67.5124 1332.45 67.5124 Q1338.64 67.5124 1342.37 63.1374 Q1346.14 58.7219 1346.14 51.4303 L1346.14 49.7694 L1338.72 49.7694 M1353.59 46.6907 L1353.59 72.576 L1346.14 72.576 L1346.14 65.6895 Q1343.59 69.8214 1339.78 71.8063 Q1335.97 73.7508 1330.46 73.7508 Q1323.49 73.7508 1319.36 69.8619 Q1315.27 65.9325 1315.27 59.3701 Q1315.27 51.7138 1320.37 47.825 Q1325.52 43.9361 1335.69 43.9361 L1346.14 43.9361 L1346.14 43.2069 Q1346.14 38.0623 1342.74 35.2672 Q1339.37 32.4315 1333.26 32.4315 Q1329.37 32.4315 1325.68 33.3632 Q1321.99 34.295 1318.59 36.1584 L1318.59 29.2718 Q1322.68 27.692 1326.53 26.9223 Q1330.38 26.1121 1334.03 26.1121 Q1343.87 26.1121 1348.73 31.2163 Q1353.59 36.3204 1353.59 46.6907 Z" fill="#000000" fill-rule="nonzero" fill-opacity="1" /><polyline clip-path="url(#clip712)" style="stroke:#009af9; stroke-linecap:round; stroke-linejoin:round; stroke-width:4; stroke-opacity:1; fill:none" points="233.734,1447.87 233.734,1373.98 268.022,1373.98 268.022,1344.42 302.311,1344.42 302.311,1285.3 336.599,1285.3 336.599,1255.74 370.887,1255.74 370.887,1063.6 405.176,1063.6 405.176,1034.04 439.464,1034.04 439.464,1063.6 473.753,1063.6 473.753,974.926 508.041,974.926 508.041,930.587 542.329,930.587 542.329,915.807 576.618,915.807 576.618,989.705 610.906,989.705 610.906,812.35 645.194,812.35 645.194,856.689 679.483,856.689 679.483,1004.48 713.771,1004.48 748.06,1004.48 748.06,1048.82 782.348,1048.82 782.348,1137.5 816.636,1137.5 816.636,1300.08 850.925,1300.08 850.925,1359.2 885.213,1359.2 885.213,1344.42 919.502,1344.42 953.79,1344.42 953.79,1373.98 988.078,1373.98 988.078,1418.31 1022.37,1418.31 1022.37,1433.09 1056.66,1433.09 1056.66,1447.87 1090.94,1447.87 1090.94,1403.53 1125.23,1403.53 1125.23,1433.09 1159.52,1433.09 1159.52,1388.75 1193.81,1388.75 1193.81,1359.2 1228.1,1359.2 1228.1,1300.08 1262.39,1300.08 1262.39,1181.84 1296.67,1181.84 1296.67,1211.4 1330.96,1211.4 1330.96,960.146 1365.25,960.146 1365.25,886.248 1399.54,886.248 1399.54,738.452 1433.83,738.452 1433.83,797.57 1468.12,797.57 1468.12,634.994 1502.4,634.994 1502.4,176.827 1536.69,176.827 1536.69,398.521 1570.98,398.521 1570.98,339.402 1605.27,339.402 1605.27,398.521 1639.56,398.521 1639.56,162.047 1673.85,162.047 1673.85,620.215 1708.13,620.215 1708.13,605.435 1742.42,605.435 1742.42,753.231 1776.71,753.231 1776.71,694.113 1811,694.113 1811,989.705 1845.29,989.705 1845.29,930.587 1879.58,930.587 1879.58,1122.72 1913.86,1122.72 1913.86,1285.3 1948.15,1285.3 1948.15,1359.2 1982.44,1359.2 1982.44,1373.98 2016.73,1373.98 2051.02,1373.98 2051.02,1418.31 2085.31,1418.31 2119.59,1418.31 2119.59,1447.87 2153.88,1447.87 2188.17,1447.87 2222.46,1447.87 2222.46,1433.09 2256.75,1433.09 2256.75,1447.87 2291.04,1447.87 "/>
<path clip-path="url(#clip710)" d="M1957.75 272.585 L2280.06 272.585 L2280.06 168.905 L1957.75 168.905  Z" fill="#ffffff" fill-rule="evenodd" fill-opacity="1"/>
<polyline clip-path="url(#clip710)" style="stroke:#000000; stroke-linecap:round; stroke-linejoin:round; stroke-width:4; stroke-opacity:1; fill:none" points="1957.75,272.585 2280.06,272.585 2280.06,168.905 1957.75,168.905 1957.75,272.585 "/>
<polyline clip-path="url(#clip710)" style="stroke:#009af9; stroke-linecap:round; stroke-linejoin:round; stroke-width:4; stroke-opacity:1; fill:none" points="1981.99,220.745 2127.37,220.745 "/>
<path clip-path="url(#clip710)" d="M2156.27 207.307 L2156.27 234.182 L2161.92 234.182 Q2169.08 234.182 2172.39 230.941 Q2175.72 227.701 2175.72 220.71 Q2175.72 213.766 2172.39 210.548 Q2169.08 207.307 2161.92 207.307 L2156.27 207.307 M2151.6 203.465 L2161.2 203.465 Q2171.25 203.465 2175.95 207.654 Q2180.65 211.821 2180.65 220.71 Q2180.65 229.645 2175.93 233.835 Q2171.2 238.025 2161.2 238.025 L2151.6 238.025 L2151.6 203.465 Z" fill="#000000" fill-rule="nonzero" fill-opacity="1" /><path clip-path="url(#clip710)" d="M2199.7 224.992 Q2194.54 224.992 2192.55 226.173 Q2190.56 227.353 2190.56 230.201 Q2190.56 232.469 2192.04 233.812 Q2193.54 235.131 2196.11 235.131 Q2199.65 235.131 2201.78 232.631 Q2203.94 230.108 2203.94 225.941 L2203.94 224.992 L2199.7 224.992 M2208.2 223.233 L2208.2 238.025 L2203.94 238.025 L2203.94 234.089 Q2202.48 236.451 2200.3 237.585 Q2198.13 238.696 2194.98 238.696 Q2191 238.696 2188.64 236.474 Q2186.3 234.228 2186.3 230.478 Q2186.3 226.103 2189.21 223.881 Q2192.15 221.659 2197.96 221.659 L2203.94 221.659 L2203.94 221.242 Q2203.94 218.303 2201.99 216.705 Q2200.07 215.085 2196.58 215.085 Q2194.35 215.085 2192.25 215.617 Q2190.14 216.15 2188.2 217.215 L2188.2 213.279 Q2190.53 212.377 2192.73 211.937 Q2194.93 211.474 2197.01 211.474 Q2202.64 211.474 2205.42 214.391 Q2208.2 217.307 2208.2 223.233 Z" fill="#000000" fill-rule="nonzero" fill-opacity="1" /><path clip-path="url(#clip710)" d="M2221.18 204.738 L2221.18 212.099 L2229.95 212.099 L2229.95 215.409 L2221.18 215.409 L2221.18 229.483 Q2221.18 232.654 2222.04 233.557 Q2222.92 234.46 2225.58 234.46 L2229.95 234.46 L2229.95 238.025 L2225.58 238.025 Q2220.65 238.025 2218.77 236.196 Q2216.9 234.344 2216.9 229.483 L2216.9 215.409 L2213.77 215.409 L2213.77 212.099 L2216.9 212.099 L2216.9 204.738 L2221.18 204.738 Z" fill="#000000" fill-rule="nonzero" fill-opacity="1" /><path clip-path="url(#clip710)" d="M2247.34 224.992 Q2242.18 224.992 2240.19 226.173 Q2238.2 227.353 2238.2 230.201 Q2238.2 232.469 2239.68 233.812 Q2241.18 235.131 2243.75 235.131 Q2247.29 235.131 2249.42 232.631 Q2251.57 230.108 2251.57 225.941 L2251.57 224.992 L2247.34 224.992 M2255.83 223.233 L2255.83 238.025 L2251.57 238.025 L2251.57 234.089 Q2250.12 236.451 2247.94 237.585 Q2245.76 238.696 2242.62 238.696 Q2238.64 238.696 2236.27 236.474 Q2233.94 234.228 2233.94 230.478 Q2233.94 226.103 2236.85 223.881 Q2239.79 221.659 2245.6 221.659 L2251.57 221.659 L2251.57 221.242 Q2251.57 218.303 2249.63 216.705 Q2247.71 215.085 2244.21 215.085 Q2241.99 215.085 2239.89 215.617 Q2237.78 216.15 2235.83 217.215 L2235.83 213.279 Q2238.17 212.377 2240.37 211.937 Q2242.57 211.474 2244.65 211.474 Q2250.28 211.474 2253.06 214.391 Q2255.83 217.307 2255.83 223.233 Z" fill="#000000" fill-rule="nonzero" fill-opacity="1" /></svg>
