<?xml version="1.0" encoding="utf-8"?>
<svg xmlns="http://www.w3.org/2000/svg" xmlns:xlink="http://www.w3.org/1999/xlink" width="600" height="400" viewBox="0 0 2400 1600">
<defs>
  <clipPath id="clip110">
    <rect x="0" y="0" width="2400" height="1600"/>
  </clipPath>
</defs>
<path clip-path="url(#clip110)" d="
M0 1600 L2400 1600 L2400 0 L0 0  Z
  " fill="#ffffff" fill-rule="evenodd" fill-opacity="1"/>
<defs>
  <clipPath id="clip111">
    <rect x="480" y="0" width="1681" height="1600"/>
  </clipPath>
</defs>
<path clip-path="url(#clip110)" d="
M166.205 1486.45 L2352.76 1486.45 L2352.76 123.472 L166.205 123.472  Z
  " fill="#ffffff" fill-rule="evenodd" fill-opacity="1"/>
<defs>
  <clipPath id="clip112">
    <rect x="166" y="123" width="2188" height="1364"/>
  </clipPath>
</defs>
<polyline clip-path="url(#clip112)" style="stroke:#000000; stroke-width:2; stroke-opacity:0.1; fill:none" points="
  228.088,1486.45 228.088,123.472 
  "/>
<polyline clip-path="url(#clip112)" style="stroke:#000000; stroke-width:2; stroke-opacity:0.1; fill:none" points="
  571.886,1486.45 571.886,123.472 
  "/>
<polyline clip-path="url(#clip112)" style="stroke:#000000; stroke-width:2; stroke-opacity:0.1; fill:none" points="
  915.683,1486.45 915.683,123.472 
  "/>
<polyline clip-path="url(#clip112)" style="stroke:#000000; stroke-width:2; stroke-opacity:0.1; fill:none" points="
  1259.48,1486.45 1259.48,123.472 
  "/>
<polyline clip-path="url(#clip112)" style="stroke:#000000; stroke-width:2; stroke-opacity:0.1; fill:none" points="
  1603.28,1486.45 1603.28,123.472 
  "/>
<polyline clip-path="url(#clip112)" style="stroke:#000000; stroke-width:2; stroke-opacity:0.1; fill:none" points="
  1947.08,1486.45 1947.08,123.472 
  "/>
<polyline clip-path="url(#clip112)" style="stroke:#000000; stroke-width:2; stroke-opacity:0.1; fill:none" points="
  2290.87,1486.45 2290.87,123.472 
  "/>
<polyline clip-path="url(#clip110)" style="stroke:#000000; stroke-width:4; stroke-opacity:1; fill:none" points="
  166.205,1486.45 2352.76,1486.45 
  "/>
<polyline clip-path="url(#clip110)" style="stroke:#000000; stroke-width:4; stroke-opacity:1; fill:none" points="
  228.088,1486.45 228.088,1470.09 
  "/>
<polyline clip-path="url(#clip110)" style="stroke:#000000; stroke-width:4; stroke-opacity:1; fill:none" points="
  571.886,1486.45 571.886,1470.09 
  "/>
<polyline clip-path="url(#clip110)" style="stroke:#000000; stroke-width:4; stroke-opacity:1; fill:none" points="
  915.683,1486.45 915.683,1470.09 
  "/>
<polyline clip-path="url(#clip110)" style="stroke:#000000; stroke-width:4; stroke-opacity:1; fill:none" points="
  1259.48,1486.45 1259.48,1470.09 
  "/>
<polyline clip-path="url(#clip110)" style="stroke:#000000; stroke-width:4; stroke-opacity:1; fill:none" points="
  1603.28,1486.45 1603.28,1470.09 
  "/>
<polyline clip-path="url(#clip110)" style="stroke:#000000; stroke-width:4; stroke-opacity:1; fill:none" points="
  1947.08,1486.45 1947.08,1470.09 
  "/>
<polyline clip-path="url(#clip110)" style="stroke:#000000; stroke-width:4; stroke-opacity:1; fill:none" points="
  2290.87,1486.45 2290.87,1470.09 
  "/>
<path clip-path="url(#clip110)" d="M 0 0 M200.542 1530.29 L230.218 1530.29 L230.218 1534.23 L200.542 1534.23 L200.542 1530.29 Z" fill="#000000" fill-rule="evenodd" fill-opacity="1" /><path clip-path="url(#clip110)" d="M 0 0 M239.315 1543.18 L255.634 1543.18 L255.634 1547.12 L233.69 1547.12 L233.69 1543.18 Q236.352 1540.43 240.935 1535.8 Q245.542 1531.15 246.722 1529.81 Q248.968 1527.28 249.847 1525.55 Q250.75 1523.79 250.75 1522.1 Q250.75 1519.34 248.806 1517.61 Q246.884 1515.87 243.783 1515.87 Q241.583 1515.87 239.13 1516.63 Q236.699 1517.4 233.921 1518.95 L233.921 1514.23 Q236.746 1513.09 239.199 1512.51 Q241.653 1511.93 243.69 1511.93 Q249.06 1511.93 252.255 1514.62 Q255.449 1517.31 255.449 1521.8 Q255.449 1523.93 254.639 1525.85 Q253.852 1527.74 251.745 1530.34 Q251.167 1531.01 248.065 1534.23 Q244.963 1537.42 239.315 1543.18 Z" fill="#000000" fill-rule="evenodd" fill-opacity="1" /><path clip-path="url(#clip110)" d="M 0 0 M544.154 1530.29 L573.83 1530.29 L573.83 1534.23 L544.154 1534.23 L544.154 1530.29 Z" fill="#000000" fill-rule="evenodd" fill-opacity="1" /><path clip-path="url(#clip110)" d="M 0 0 M579.71 1543.18 L587.348 1543.18 L587.348 1516.82 L579.038 1518.49 L579.038 1514.23 L587.302 1512.56 L591.978 1512.56 L591.978 1543.18 L599.617 1543.18 L599.617 1547.12 L579.71 1547.12 L579.71 1543.18 Z" fill="#000000" fill-rule="evenodd" fill-opacity="1" /><path clip-path="url(#clip110)" d="M 0 0 M915.683 1515.64 Q912.072 1515.64 910.243 1519.2 Q908.438 1522.75 908.438 1529.87 Q908.438 1536.98 910.243 1540.55 Q912.072 1544.09 915.683 1544.09 Q919.317 1544.09 921.123 1540.55 Q922.951 1536.98 922.951 1529.87 Q922.951 1522.75 921.123 1519.2 Q919.317 1515.64 915.683 1515.64 M915.683 1511.93 Q921.493 1511.93 924.549 1516.54 Q927.627 1521.12 927.627 1529.87 Q927.627 1538.6 924.549 1543.21 Q921.493 1547.79 915.683 1547.79 Q909.873 1547.79 906.794 1543.21 Q903.739 1538.6 903.739 1529.87 Q903.739 1521.12 906.794 1516.54 Q909.873 1511.93 915.683 1511.93 Z" fill="#000000" fill-rule="evenodd" fill-opacity="1" /><path clip-path="url(#clip110)" d="M 0 0 M1249.86 1543.18 L1257.5 1543.18 L1257.5 1516.82 L1249.19 1518.49 L1249.19 1514.23 L1257.45 1512.56 L1262.13 1512.56 L1262.13 1543.18 L1269.77 1543.18 L1269.77 1547.12 L1249.86 1547.12 L1249.86 1543.18 Z" fill="#000000" fill-rule="evenodd" fill-opacity="1" /><path clip-path="url(#clip110)" d="M 0 0 M1597.93 1543.18 L1614.25 1543.18 L1614.25 1547.12 L1592.31 1547.12 L1592.31 1543.18 Q1594.97 1540.43 1599.55 1535.8 Q1604.16 1531.15 1605.34 1529.81 Q1607.58 1527.28 1608.46 1525.55 Q1609.37 1523.79 1609.37 1522.1 Q1609.37 1519.34 1607.42 1517.61 Q1605.5 1515.87 1602.4 1515.87 Q1600.2 1515.87 1597.75 1516.63 Q1595.31 1517.4 1592.54 1518.95 L1592.54 1514.23 Q1595.36 1513.09 1597.81 1512.51 Q1600.27 1511.93 1602.31 1511.93 Q1607.68 1511.93 1610.87 1514.62 Q1614.06 1517.31 1614.06 1521.8 Q1614.06 1523.93 1613.25 1525.85 Q1612.47 1527.74 1610.36 1530.34 Q1609.78 1531.01 1606.68 1534.23 Q1603.58 1537.42 1597.93 1543.18 Z" fill="#000000" fill-rule="evenodd" fill-opacity="1" /><path clip-path="url(#clip110)" d="M 0 0 M1951.32 1528.49 Q1954.68 1529.2 1956.55 1531.47 Q1958.45 1533.74 1958.45 1537.07 Q1958.45 1542.19 1954.93 1544.99 Q1951.42 1547.79 1944.93 1547.79 Q1942.76 1547.79 1940.44 1547.35 Q1938.15 1546.93 1935.7 1546.08 L1935.7 1541.56 Q1937.64 1542.7 1939.96 1543.28 Q1942.27 1543.86 1944.79 1543.86 Q1949.19 1543.86 1951.48 1542.12 Q1953.8 1540.38 1953.8 1537.07 Q1953.8 1534.02 1951.65 1532.31 Q1949.52 1530.57 1945.7 1530.57 L1941.67 1530.57 L1941.67 1526.73 L1945.88 1526.73 Q1949.33 1526.73 1951.16 1525.36 Q1952.99 1523.97 1952.99 1521.38 Q1952.99 1518.72 1951.09 1517.31 Q1949.22 1515.87 1945.7 1515.87 Q1943.78 1515.87 1941.58 1516.29 Q1939.38 1516.7 1936.74 1517.58 L1936.74 1513.42 Q1939.4 1512.68 1941.72 1512.31 Q1944.05 1511.93 1946.11 1511.93 Q1951.44 1511.93 1954.54 1514.37 Q1957.64 1516.77 1957.64 1520.89 Q1957.64 1523.76 1956 1525.75 Q1954.36 1527.72 1951.32 1528.49 Z" fill="#000000" fill-rule="evenodd" fill-opacity="1" /><path clip-path="url(#clip110)" d="M 0 0 M2293.88 1516.63 L2282.08 1535.08 L2293.88 1535.08 L2293.88 1516.63 M2292.65 1512.56 L2298.53 1512.56 L2298.53 1535.08 L2303.46 1535.08 L2303.46 1538.97 L2298.53 1538.97 L2298.53 1547.12 L2293.88 1547.12 L2293.88 1538.97 L2278.28 1538.97 L2278.28 1534.46 L2292.65 1512.56 Z" fill="#000000" fill-rule="evenodd" fill-opacity="1" /><polyline clip-path="url(#clip112)" style="stroke:#000000; stroke-width:2; stroke-opacity:0.1; fill:none" points="
  166.205,1447.87 2352.76,1447.87 
  "/>
<polyline clip-path="url(#clip112)" style="stroke:#000000; stroke-width:2; stroke-opacity:0.1; fill:none" points="
  166.205,1126.42 2352.76,1126.42 
  "/>
<polyline clip-path="url(#clip112)" style="stroke:#000000; stroke-width:2; stroke-opacity:0.1; fill:none" points="
  166.205,804.96 2352.76,804.96 
  "/>
<polyline clip-path="url(#clip112)" style="stroke:#000000; stroke-width:2; stroke-opacity:0.1; fill:none" points="
  166.205,483.503 2352.76,483.503 
  "/>
<polyline clip-path="url(#clip112)" style="stroke:#000000; stroke-width:2; stroke-opacity:0.1; fill:none" points="
  166.205,162.047 2352.76,162.047 
  "/>
<polyline clip-path="url(#clip110)" style="stroke:#000000; stroke-width:4; stroke-opacity:1; fill:none" points="
  166.205,1486.45 166.205,123.472 
  "/>
<polyline clip-path="url(#clip110)" style="stroke:#000000; stroke-width:4; stroke-opacity:1; fill:none" points="
  166.205,1447.87 192.443,1447.87 
  "/>
<polyline clip-path="url(#clip110)" style="stroke:#000000; stroke-width:4; stroke-opacity:1; fill:none" points="
  166.205,1126.42 192.443,1126.42 
  "/>
<polyline clip-path="url(#clip110)" style="stroke:#000000; stroke-width:4; stroke-opacity:1; fill:none" points="
  166.205,804.96 192.443,804.96 
  "/>
<polyline clip-path="url(#clip110)" style="stroke:#000000; stroke-width:4; stroke-opacity:1; fill:none" points="
  166.205,483.503 192.443,483.503 
  "/>
<polyline clip-path="url(#clip110)" style="stroke:#000000; stroke-width:4; stroke-opacity:1; fill:none" points="
  166.205,162.047 192.443,162.047 
  "/>
<path clip-path="url(#clip110)" d="M 0 0 M118.26 1433.67 Q114.649 1433.67 112.82 1437.24 Q111.015 1440.78 111.015 1447.91 Q111.015 1455.01 112.82 1458.58 Q114.649 1462.12 118.26 1462.12 Q121.895 1462.12 123.7 1458.58 Q125.529 1455.01 125.529 1447.91 Q125.529 1440.78 123.7 1437.24 Q121.895 1433.67 118.26 1433.67 M118.26 1429.97 Q124.07 1429.97 127.126 1434.57 Q130.205 1439.16 130.205 1447.91 Q130.205 1456.63 127.126 1461.24 Q124.07 1465.82 118.26 1465.82 Q112.45 1465.82 109.371 1461.24 Q106.316 1456.63 106.316 1447.91 Q106.316 1439.16 109.371 1434.57 Q112.45 1429.97 118.26 1429.97 Z" fill="#000000" fill-rule="evenodd" fill-opacity="1" /><path clip-path="url(#clip110)" d="M 0 0 M59.8578 1139.76 L76.1772 1139.76 L76.1772 1143.7 L54.2328 1143.7 L54.2328 1139.76 Q56.8949 1137.01 61.4782 1132.38 Q66.0846 1127.72 67.2652 1126.38 Q69.5105 1123.86 70.3902 1122.12 Q71.2929 1120.36 71.2929 1118.67 Q71.2929 1115.92 69.3485 1114.18 Q67.4272 1112.45 64.3254 1112.45 Q62.1263 1112.45 59.6726 1113.21 Q57.2421 1113.97 54.4643 1115.53 L54.4643 1110.8 Q57.2884 1109.67 59.7421 1109.09 Q62.1958 1108.51 64.2328 1108.51 Q69.6031 1108.51 72.7976 1111.2 Q75.992 1113.88 75.992 1118.37 Q75.992 1120.5 75.1818 1122.42 Q74.3948 1124.32 72.2883 1126.91 Q71.7096 1127.59 68.6078 1130.8 Q65.5059 1134 59.8578 1139.76 Z" fill="#000000" fill-rule="evenodd" fill-opacity="1" /><path clip-path="url(#clip110)" d="M 0 0 M91.2465 1112.22 Q87.6354 1112.22 85.8068 1115.78 Q84.0012 1119.32 84.0012 1126.45 Q84.0012 1133.56 85.8068 1137.12 Q87.6354 1140.66 91.2465 1140.66 Q94.8808 1140.66 96.6863 1137.12 Q98.515 1133.56 98.515 1126.45 Q98.515 1119.32 96.6863 1115.78 Q94.8808 1112.22 91.2465 1112.22 M91.2465 1108.51 Q97.0567 1108.51 100.112 1113.12 Q103.191 1117.7 103.191 1126.45 Q103.191 1135.18 100.112 1139.78 Q97.0567 1144.37 91.2465 1144.37 Q85.4364 1144.37 82.3577 1139.78 Q79.3022 1135.18 79.3022 1126.45 Q79.3022 1117.7 82.3577 1113.12 Q85.4364 1108.51 91.2465 1108.51 Z" fill="#000000" fill-rule="evenodd" fill-opacity="1" /><path clip-path="url(#clip110)" d="M 0 0 M118.26 1112.22 Q114.649 1112.22 112.82 1115.78 Q111.015 1119.32 111.015 1126.45 Q111.015 1133.56 112.82 1137.12 Q114.649 1140.66 118.26 1140.66 Q121.895 1140.66 123.7 1137.12 Q125.529 1133.56 125.529 1126.45 Q125.529 1119.32 123.7 1115.78 Q121.895 1112.22 118.26 1112.22 M118.26 1108.51 Q124.07 1108.51 127.126 1113.12 Q130.205 1117.7 130.205 1126.45 Q130.205 1135.18 127.126 1139.78 Q124.07 1144.37 118.26 1144.37 Q112.45 1144.37 109.371 1139.78 Q106.316 1135.18 106.316 1126.45 Q106.316 1117.7 109.371 1113.12 Q112.45 1108.51 118.26 1108.51 Z" fill="#000000" fill-rule="evenodd" fill-opacity="1" /><path clip-path="url(#clip110)" d="M 0 0 M66.5939 791.754 L54.7884 810.203 L66.5939 810.203 L66.5939 791.754 M65.367 787.68 L71.2466 787.68 L71.2466 810.203 L76.1772 810.203 L76.1772 814.092 L71.2466 814.092 L71.2466 822.24 L66.5939 822.24 L66.5939 814.092 L50.9921 814.092 L50.9921 809.578 L65.367 787.68 Z" fill="#000000" fill-rule="evenodd" fill-opacity="1" /><path clip-path="url(#clip110)" d="M 0 0 M91.2465 790.759 Q87.6354 790.759 85.8068 794.323 Q84.0012 797.865 84.0012 804.995 Q84.0012 812.101 85.8068 815.666 Q87.6354 819.208 91.2465 819.208 Q94.8808 819.208 96.6863 815.666 Q98.515 812.101 98.515 804.995 Q98.515 797.865 96.6863 794.323 Q94.8808 790.759 91.2465 790.759 M91.2465 787.055 Q97.0567 787.055 100.112 791.661 Q103.191 796.245 103.191 804.995 Q103.191 813.722 100.112 818.328 Q97.0567 822.911 91.2465 822.911 Q85.4364 822.911 82.3577 818.328 Q79.3022 813.722 79.3022 804.995 Q79.3022 796.245 82.3577 791.661 Q85.4364 787.055 91.2465 787.055 Z" fill="#000000" fill-rule="evenodd" fill-opacity="1" /><path clip-path="url(#clip110)" d="M 0 0 M118.26 790.759 Q114.649 790.759 112.82 794.323 Q111.015 797.865 111.015 804.995 Q111.015 812.101 112.82 815.666 Q114.649 819.208 118.26 819.208 Q121.895 819.208 123.7 815.666 Q125.529 812.101 125.529 804.995 Q125.529 797.865 123.7 794.323 Q121.895 790.759 118.26 790.759 M118.26 787.055 Q124.07 787.055 127.126 791.661 Q130.205 796.245 130.205 804.995 Q130.205 813.722 127.126 818.328 Q124.07 822.911 118.26 822.911 Q112.45 822.911 109.371 818.328 Q106.316 813.722 106.316 804.995 Q106.316 796.245 109.371 791.661 Q112.45 787.055 118.26 787.055 Z" fill="#000000" fill-rule="evenodd" fill-opacity="1" /><path clip-path="url(#clip110)" d="M 0 0 M64.6495 481.64 Q61.5013 481.64 59.6495 483.793 Q57.8208 485.946 57.8208 489.696 Q57.8208 493.422 59.6495 495.598 Q61.5013 497.751 64.6495 497.751 Q67.7976 497.751 69.6263 495.598 Q71.4781 493.422 71.4781 489.696 Q71.4781 485.946 69.6263 483.793 Q67.7976 481.64 64.6495 481.64 M73.9318 466.987 L73.9318 471.247 Q72.1726 470.413 70.367 469.973 Q68.5846 469.534 66.8254 469.534 Q62.1958 469.534 59.7421 472.659 Q57.3115 475.784 56.9643 482.103 Q58.33 480.089 60.3902 479.024 Q62.4504 477.936 64.9272 477.936 Q70.1355 477.936 73.1448 481.108 Q76.1772 484.256 76.1772 489.696 Q76.1772 495.02 73.029 498.237 Q69.8809 501.455 64.6495 501.455 Q58.6541 501.455 55.4828 496.871 Q52.3116 492.265 52.3116 483.538 Q52.3116 475.344 56.2004 470.483 Q60.0893 465.598 66.6402 465.598 Q68.3994 465.598 70.1818 465.946 Q71.9874 466.293 73.9318 466.987 Z" fill="#000000" fill-rule="evenodd" fill-opacity="1" /><path clip-path="url(#clip110)" d="M 0 0 M91.2465 469.302 Q87.6354 469.302 85.8068 472.867 Q84.0012 476.409 84.0012 483.538 Q84.0012 490.645 85.8068 494.209 Q87.6354 497.751 91.2465 497.751 Q94.8808 497.751 96.6863 494.209 Q98.515 490.645 98.515 483.538 Q98.515 476.409 96.6863 472.867 Q94.8808 469.302 91.2465 469.302 M91.2465 465.598 Q97.0567 465.598 100.112 470.205 Q103.191 474.788 103.191 483.538 Q103.191 492.265 100.112 496.871 Q97.0567 501.455 91.2465 501.455 Q85.4364 501.455 82.3577 496.871 Q79.3022 492.265 79.3022 483.538 Q79.3022 474.788 82.3577 470.205 Q85.4364 465.598 91.2465 465.598 Z" fill="#000000" fill-rule="evenodd" fill-opacity="1" /><path clip-path="url(#clip110)" d="M 0 0 M118.26 469.302 Q114.649 469.302 112.82 472.867 Q111.015 476.409 111.015 483.538 Q111.015 490.645 112.82 494.209 Q114.649 497.751 118.26 497.751 Q121.895 497.751 123.7 494.209 Q125.529 490.645 125.529 483.538 Q125.529 476.409 123.7 472.867 Q121.895 469.302 118.26 469.302 M118.26 465.598 Q124.07 465.598 127.126 470.205 Q130.205 474.788 130.205 483.538 Q130.205 492.265 127.126 496.871 Q124.07 501.455 118.26 501.455 Q112.45 501.455 109.371 496.871 Q106.316 492.265 106.316 483.538 Q106.316 474.788 109.371 470.205 Q112.45 465.598 118.26 465.598 Z" fill="#000000" fill-rule="evenodd" fill-opacity="1" /><path clip-path="url(#clip110)" d="M 0 0 M64.3254 162.915 Q60.9921 162.915 59.0708 164.697 Q57.1726 166.48 57.1726 169.605 Q57.1726 172.73 59.0708 174.512 Q60.9921 176.295 64.3254 176.295 Q67.6587 176.295 69.58 174.512 Q71.5013 172.707 71.5013 169.605 Q71.5013 166.48 69.58 164.697 Q67.6819 162.915 64.3254 162.915 M59.6495 160.924 Q56.6402 160.183 54.9504 158.123 Q53.2838 156.063 53.2838 153.1 Q53.2838 148.957 56.2236 146.549 Q59.1865 144.142 64.3254 144.142 Q69.4874 144.142 72.4272 146.549 Q75.367 148.957 75.367 153.1 Q75.367 156.063 73.6772 158.123 Q72.0105 160.183 69.0244 160.924 Q72.404 161.711 74.279 164.003 Q76.1772 166.295 76.1772 169.605 Q76.1772 174.628 73.0985 177.313 Q70.0429 179.998 64.3254 179.998 Q58.6078 179.998 55.5291 177.313 Q52.4736 174.628 52.4736 169.605 Q52.4736 166.295 54.3717 164.003 Q56.2699 161.711 59.6495 160.924 M57.9365 153.54 Q57.9365 156.225 59.6032 157.73 Q61.293 159.234 64.3254 159.234 Q67.3346 159.234 69.0244 157.73 Q70.7374 156.225 70.7374 153.54 Q70.7374 150.855 69.0244 149.35 Q67.3346 147.846 64.3254 147.846 Q61.293 147.846 59.6032 149.35 Q57.9365 150.855 57.9365 153.54 Z" fill="#000000" fill-rule="evenodd" fill-opacity="1" /><path clip-path="url(#clip110)" d="M 0 0 M91.2465 147.846 Q87.6354 147.846 85.8068 151.41 Q84.0012 154.952 84.0012 162.082 Q84.0012 169.188 85.8068 172.753 Q87.6354 176.295 91.2465 176.295 Q94.8808 176.295 96.6863 172.753 Q98.515 169.188 98.515 162.082 Q98.515 154.952 96.6863 151.41 Q94.8808 147.846 91.2465 147.846 M91.2465 144.142 Q97.0567 144.142 100.112 148.748 Q103.191 153.332 103.191 162.082 Q103.191 170.808 100.112 175.415 Q97.0567 179.998 91.2465 179.998 Q85.4364 179.998 82.3577 175.415 Q79.3022 170.808 79.3022 162.082 Q79.3022 153.332 82.3577 148.748 Q85.4364 144.142 91.2465 144.142 Z" fill="#000000" fill-rule="evenodd" fill-opacity="1" /><path clip-path="url(#clip110)" d="M 0 0 M118.26 147.846 Q114.649 147.846 112.82 151.41 Q111.015 154.952 111.015 162.082 Q111.015 169.188 112.82 172.753 Q114.649 176.295 118.26 176.295 Q121.895 176.295 123.7 172.753 Q125.529 169.188 125.529 162.082 Q125.529 154.952 123.7 151.41 Q121.895 147.846 118.26 147.846 M118.26 144.142 Q124.07 144.142 127.126 148.748 Q130.205 153.332 130.205 162.082 Q130.205 170.808 127.126 175.415 Q124.07 179.998 118.26 179.998 Q112.45 179.998 109.371 175.415 Q106.316 170.808 106.316 162.082 Q106.316 153.332 109.371 148.748 Q112.45 144.142 118.26 144.142 Z" fill="#000000" fill-rule="evenodd" fill-opacity="1" /><path clip-path="url(#clip110)" d="M 0 0 M1183.67 18.8205 L1183.67 65.8515 L1193.55 65.8515 Q1206.07 65.8515 1211.86 60.1802 Q1217.7 54.509 1217.7 42.2752 Q1217.7 30.1225 1211.86 24.4918 Q1206.07 18.8205 1193.55 18.8205 L1183.67 18.8205 M1175.48 12.096 L1192.3 12.096 Q1209.88 12.096 1218.1 19.4281 Q1226.32 26.7198 1226.32 42.2752 Q1226.32 57.9117 1218.06 65.2439 Q1209.8 72.576 1192.3 72.576 L1175.48 72.576 L1175.48 12.096 Z" fill="#000000" fill-rule="evenodd" fill-opacity="1" /><path clip-path="url(#clip110)" d="M 0 0 M1254.76 49.7694 Q1245.73 49.7694 1242.24 51.8354 Q1238.76 53.9013 1238.76 58.8839 Q1238.76 62.8538 1241.35 65.2034 Q1243.99 67.5124 1248.48 67.5124 Q1254.68 67.5124 1258.41 63.1374 Q1262.17 58.7219 1262.17 51.4303 L1262.17 49.7694 L1254.76 49.7694 M1269.63 46.6907 L1269.63 72.576 L1262.17 72.576 L1262.17 65.6895 Q1259.62 69.8214 1255.81 71.8063 Q1252.01 73.7508 1246.5 73.7508 Q1239.53 73.7508 1235.4 69.8619 Q1231.31 65.9325 1231.31 59.3701 Q1231.31 51.7138 1236.41 47.825 Q1241.56 43.9361 1251.72 43.9361 L1262.17 43.9361 L1262.17 43.2069 Q1262.17 38.0623 1258.77 35.2672 Q1255.41 32.4315 1249.29 32.4315 Q1245.4 32.4315 1241.72 33.3632 Q1238.03 34.295 1234.63 36.1584 L1234.63 29.2718 Q1238.72 27.692 1242.57 26.9223 Q1246.42 26.1121 1250.06 26.1121 Q1259.91 26.1121 1264.77 31.2163 Q1269.63 36.3204 1269.63 46.6907 Z" fill="#000000" fill-rule="evenodd" fill-opacity="1" /><path clip-path="url(#clip110)" d="M 0 0 M1284.82 14.324 L1284.82 27.2059 L1300.17 27.2059 L1300.17 32.9987 L1284.82 32.9987 L1284.82 57.6282 Q1284.82 63.1779 1286.32 64.7578 Q1287.86 66.3376 1292.52 66.3376 L1300.17 66.3376 L1300.17 72.576 L1292.52 72.576 Q1283.89 72.576 1280.61 69.3758 Q1277.32 66.1351 1277.32 57.6282 L1277.32 32.9987 L1271.86 32.9987 L1271.86 27.2059 L1277.32 27.2059 L1277.32 14.324 L1284.82 14.324 Z" fill="#000000" fill-rule="evenodd" fill-opacity="1" /><path clip-path="url(#clip110)" d="M 0 0 M1328.61 49.7694 Q1319.58 49.7694 1316.09 51.8354 Q1312.61 53.9013 1312.61 58.8839 Q1312.61 62.8538 1315.2 65.2034 Q1317.83 67.5124 1322.33 67.5124 Q1328.53 67.5124 1332.25 63.1374 Q1336.02 58.7219 1336.02 51.4303 L1336.02 49.7694 L1328.61 49.7694 M1343.48 46.6907 L1343.48 72.576 L1336.02 72.576 L1336.02 65.6895 Q1333.47 69.8214 1329.66 71.8063 Q1325.85 73.7508 1320.35 73.7508 Q1313.38 73.7508 1309.25 69.8619 Q1305.15 65.9325 1305.15 59.3701 Q1305.15 51.7138 1310.26 47.825 Q1315.4 43.9361 1325.57 43.9361 L1336.02 43.9361 L1336.02 43.2069 Q1336.02 38.0623 1332.62 35.2672 Q1329.26 32.4315 1323.14 32.4315 Q1319.25 32.4315 1315.57 33.3632 Q1311.88 34.295 1308.48 36.1584 L1308.48 29.2718 Q1312.57 27.692 1316.42 26.9223 Q1320.26 26.1121 1323.91 26.1121 Q1333.75 26.1121 1338.61 31.2163 Q1343.48 36.3204 1343.48 46.6907 Z" fill="#000000" fill-rule="evenodd" fill-opacity="1" /><polyline clip-path="url(#clip112)" style="stroke:#009af9; stroke-width:4; stroke-opacity:1; fill:none" points="
  228.088,1447.87 228.088,1351.44 262.468,1351.44 262.468,1287.14 296.848,1287.14 331.227,1287.14 331.227,1110.34 365.607,1110.34 365.607,1078.2 
  399.987,1078.2 399.987,1029.98 434.367,1029.98 434.367,917.47 468.746,917.47 468.746,821.033 503.126,821.033 503.126,804.96 537.506,804.96 537.506,821.033 
  571.886,821.033 571.886,869.251 606.265,869.251 606.265,740.669 640.645,740.669 640.645,821.033 675.025,821.033 675.025,1110.34 709.405,1110.34 709.405,1158.56 
  743.784,1158.56 743.784,1094.27 778.164,1094.27 778.164,1158.56 812.544,1158.56 812.544,1222.85 846.923,1222.85 846.923,1238.93 881.303,1238.93 881.303,1351.44 
  915.683,1351.44 950.063,1351.44 984.442,1351.44 984.442,1415.73 1018.82,1415.73 1018.82,1447.87 1053.2,1447.87 
  1087.58,1447.87 1087.58,1415.73 1121.96,1415.73 1121.96,1367.51 1156.34,1367.51 1156.34,1351.44 1190.72,1351.44 1225.1,1351.44 1225.1,1319.29 
  1259.48,1319.29 1259.48,1255 1293.86,1255 1293.86,1126.42 1328.24,1126.42 1328.24,949.615 1362.62,949.615 1362.62,885.324 1397,885.324 1397,531.722 
  1431.38,531.722 1431.38,628.159 1465.76,628.159 1465.76,547.795 1500.14,547.795 1500.14,306.702 1534.52,306.702 1534.52,354.921 1568.9,354.921 1568.9,162.047 
  1603.28,162.047 1637.66,162.047 1637.66,354.921 1672.04,354.921 1706.42,354.921 1706.42,531.722 1740.8,531.722 1740.8,692.45 
  1775.18,692.45 1775.18,740.669 1809.56,740.669 1809.56,885.324 1843.94,885.324 1843.94,917.47 1878.32,917.47 1878.32,1206.78 1912.7,1206.78 1912.7,1190.71 
  1947.08,1190.71 1947.08,1222.85 1981.45,1222.85 1981.45,1367.51 2015.83,1367.51 2015.83,1383.58 2050.21,1383.58 2050.21,1399.65 2084.59,1399.65 2084.59,1415.73 
  2118.97,1415.73 2118.97,1447.87 2153.35,1447.87 2187.73,1447.87 2187.73,1431.8 2222.11,1431.8 2222.11,1447.87 2256.49,1447.87 
  2290.87,1447.87 
  "/>
<path clip-path="url(#clip110)" d="
M1940.93 289.865 L2279.87 289.865 L2279.87 168.905 L1940.93 168.905  Z
  " fill="#ffffff" fill-rule="evenodd" fill-opacity="1"/>
<polyline clip-path="url(#clip110)" style="stroke:#000000; stroke-width:4; stroke-opacity:1; fill:none" points="
  1940.93,289.865 2279.87,289.865 2279.87,168.905 1940.93,168.905 1940.93,289.865 
  "/>
<polyline clip-path="url(#clip110)" style="stroke:#009af9; stroke-width:4; stroke-opacity:1; fill:none" points="
  1965.22,229.385 2110.99,229.385 
  "/>
<path clip-path="url(#clip110)" d="M 0 0 M2139.96 215.947 L2139.96 242.822 L2145.61 242.822 Q2152.76 242.822 2156.07 239.581 Q2159.41 236.341 2159.41 229.35 Q2159.41 222.406 2156.07 219.188 Q2152.76 215.947 2145.61 215.947 L2139.96 215.947 M2135.29 212.105 L2144.89 212.105 Q2154.94 212.105 2159.64 216.294 Q2164.34 220.461 2164.34 229.35 Q2164.34 238.285 2159.61 242.475 Q2154.89 246.665 2144.89 246.665 L2135.29 246.665 L2135.29 212.105 Z" fill="#000000" fill-rule="evenodd" fill-opacity="1" /><path clip-path="url(#clip110)" d="M 0 0 M2180.59 233.632 Q2175.42 233.632 2173.43 234.813 Q2171.44 235.993 2171.44 238.841 Q2171.44 241.109 2172.92 242.452 Q2174.43 243.771 2177 243.771 Q2180.54 243.771 2182.67 241.271 Q2184.82 238.748 2184.82 234.581 L2184.82 233.632 L2180.59 233.632 M2189.08 231.873 L2189.08 246.665 L2184.82 246.665 L2184.82 242.729 Q2183.36 245.091 2181.19 246.225 Q2179.01 247.336 2175.86 247.336 Q2171.88 247.336 2169.52 245.114 Q2167.18 242.868 2167.18 239.118 Q2167.18 234.743 2170.1 232.521 Q2173.04 230.299 2178.85 230.299 L2184.82 230.299 L2184.82 229.882 Q2184.82 226.943 2182.88 225.345 Q2180.96 223.725 2177.46 223.725 Q2175.24 223.725 2173.13 224.257 Q2171.03 224.79 2169.08 225.855 L2169.08 221.919 Q2171.42 221.017 2173.62 220.577 Q2175.82 220.114 2177.9 220.114 Q2183.53 220.114 2186.3 223.031 Q2189.08 225.947 2189.08 231.873 Z" fill="#000000" fill-rule="evenodd" fill-opacity="1" /><path clip-path="url(#clip110)" d="M 0 0 M2197.76 213.378 L2197.76 220.739 L2206.54 220.739 L2206.54 224.049 L2197.76 224.049 L2197.76 238.123 Q2197.76 241.294 2198.62 242.197 Q2199.5 243.1 2202.16 243.1 L2206.54 243.1 L2206.54 246.665 L2202.16 246.665 Q2197.23 246.665 2195.36 244.836 Q2193.48 242.984 2193.48 238.123 L2193.48 224.049 L2190.36 224.049 L2190.36 220.739 L2193.48 220.739 L2193.48 213.378 L2197.76 213.378 Z" fill="#000000" fill-rule="evenodd" fill-opacity="1" /><path clip-path="url(#clip110)" d="M 0 0 M2222.79 233.632 Q2217.62 233.632 2215.63 234.813 Q2213.64 235.993 2213.64 238.841 Q2213.64 241.109 2215.12 242.452 Q2216.63 243.771 2219.2 243.771 Q2222.74 243.771 2224.87 241.271 Q2227.02 238.748 2227.02 234.581 L2227.02 233.632 L2222.79 233.632 M2231.28 231.873 L2231.28 246.665 L2227.02 246.665 L2227.02 242.729 Q2225.56 245.091 2223.39 246.225 Q2221.21 247.336 2218.06 247.336 Q2214.08 247.336 2211.72 245.114 Q2209.38 242.868 2209.38 239.118 Q2209.38 234.743 2212.3 232.521 Q2215.24 230.299 2221.05 230.299 L2227.02 230.299 L2227.02 229.882 Q2227.02 226.943 2225.08 225.345 Q2223.16 223.725 2219.66 223.725 Q2217.44 223.725 2215.33 224.257 Q2213.23 224.79 2211.28 225.855 L2211.28 221.919 Q2213.62 221.017 2215.82 220.577 Q2218.02 220.114 2220.1 220.114 Q2225.73 220.114 2228.5 223.031 Q2231.28 225.947 2231.28 231.873 Z" fill="#000000" fill-rule="evenodd" fill-opacity="1" /></svg>
