<?xml version="1.0" encoding="utf-8"?>
<svg xmlns="http://www.w3.org/2000/svg" xmlns:xlink="http://www.w3.org/1999/xlink" width="600" height="400" viewBox="0 0 2400 1600">
<defs>
  <clipPath id="clip140">
    <rect x="0" y="0" width="2400" height="1600"/>
  </clipPath>
</defs>
<path clip-path="url(#clip140)" d="
M0 1600 L2400 1600 L2400 0 L0 0  Z
  " fill="#ffffff" fill-rule="evenodd" fill-opacity="1"/>
<defs>
  <clipPath id="clip141">
    <rect x="480" y="0" width="1681" height="1600"/>
  </clipPath>
</defs>
<path clip-path="url(#clip140)" d="
M166.205 1486.45 L2352.76 1486.45 L2352.76 123.472 L166.205 123.472  Z
  " fill="#ffffff" fill-rule="evenodd" fill-opacity="1"/>
<defs>
  <clipPath id="clip142">
    <rect x="166" y="123" width="2188" height="1364"/>
  </clipPath>
</defs>
<polyline clip-path="url(#clip142)" style="stroke:#000000; stroke-width:2; stroke-opacity:0.1; fill:none" points="
  228.088,1486.45 228.088,123.472 
  "/>
<polyline clip-path="url(#clip142)" style="stroke:#000000; stroke-width:2; stroke-opacity:0.1; fill:none" points="
  743.784,1486.45 743.784,123.472 
  "/>
<polyline clip-path="url(#clip142)" style="stroke:#000000; stroke-width:2; stroke-opacity:0.1; fill:none" points="
  1259.48,1486.45 1259.48,123.472 
  "/>
<polyline clip-path="url(#clip142)" style="stroke:#000000; stroke-width:2; stroke-opacity:0.1; fill:none" points="
  1775.18,1486.45 1775.18,123.472 
  "/>
<polyline clip-path="url(#clip142)" style="stroke:#000000; stroke-width:2; stroke-opacity:0.1; fill:none" points="
  2290.87,1486.45 2290.87,123.472 
  "/>
<polyline clip-path="url(#clip140)" style="stroke:#000000; stroke-width:4; stroke-opacity:1; fill:none" points="
  166.205,1486.45 2352.76,1486.45 
  "/>
<polyline clip-path="url(#clip140)" style="stroke:#000000; stroke-width:4; stroke-opacity:1; fill:none" points="
  228.088,1486.45 228.088,1470.09 
  "/>
<polyline clip-path="url(#clip140)" style="stroke:#000000; stroke-width:4; stroke-opacity:1; fill:none" points="
  743.784,1486.45 743.784,1470.09 
  "/>
<polyline clip-path="url(#clip140)" style="stroke:#000000; stroke-width:4; stroke-opacity:1; fill:none" points="
  1259.48,1486.45 1259.48,1470.09 
  "/>
<polyline clip-path="url(#clip140)" style="stroke:#000000; stroke-width:4; stroke-opacity:1; fill:none" points="
  1775.18,1486.45 1775.18,1470.09 
  "/>
<polyline clip-path="url(#clip140)" style="stroke:#000000; stroke-width:4; stroke-opacity:1; fill:none" points="
  2290.87,1486.45 2290.87,1470.09 
  "/>
<path clip-path="url(#clip140)" d="M 0 0 M199.5 1530.29 L229.176 1530.29 L229.176 1534.23 L199.5 1534.23 L199.5 1530.29 Z" fill="#000000" fill-rule="evenodd" fill-opacity="1" /><path clip-path="url(#clip140)" d="M 0 0 M247.093 1516.63 L235.287 1535.08 L247.093 1535.08 L247.093 1516.63 M245.866 1512.56 L251.745 1512.56 L251.745 1535.08 L256.676 1535.08 L256.676 1538.97 L251.745 1538.97 L251.745 1547.12 L247.093 1547.12 L247.093 1538.97 L231.491 1538.97 L231.491 1534.46 L245.866 1512.56 Z" fill="#000000" fill-rule="evenodd" fill-opacity="1" /><path clip-path="url(#clip140)" d="M 0 0 M716.238 1530.29 L745.914 1530.29 L745.914 1534.23 L716.238 1534.23 L716.238 1530.29 Z" fill="#000000" fill-rule="evenodd" fill-opacity="1" /><path clip-path="url(#clip140)" d="M 0 0 M755.011 1543.18 L771.33 1543.18 L771.33 1547.12 L749.386 1547.12 L749.386 1543.18 Q752.048 1540.43 756.631 1535.8 Q761.238 1531.15 762.418 1529.81 Q764.664 1527.28 765.543 1525.55 Q766.446 1523.79 766.446 1522.1 Q766.446 1519.34 764.502 1517.61 Q762.58 1515.87 759.479 1515.87 Q757.28 1515.87 754.826 1516.63 Q752.395 1517.4 749.618 1518.95 L749.618 1514.23 Q752.442 1513.09 754.895 1512.51 Q757.349 1511.93 759.386 1511.93 Q764.756 1511.93 767.951 1514.62 Q771.145 1517.31 771.145 1521.8 Q771.145 1523.93 770.335 1525.85 Q769.548 1527.74 767.442 1530.34 Q766.863 1531.01 763.761 1534.23 Q760.659 1537.42 755.011 1543.18 Z" fill="#000000" fill-rule="evenodd" fill-opacity="1" /><path clip-path="url(#clip140)" d="M 0 0 M1259.48 1515.64 Q1255.87 1515.64 1254.04 1519.2 Q1252.23 1522.75 1252.23 1529.87 Q1252.23 1536.98 1254.04 1540.55 Q1255.87 1544.09 1259.48 1544.09 Q1263.11 1544.09 1264.92 1540.55 Q1266.75 1536.98 1266.75 1529.87 Q1266.75 1522.75 1264.92 1519.2 Q1263.11 1515.64 1259.48 1515.64 M1259.48 1511.93 Q1265.29 1511.93 1268.35 1516.54 Q1271.42 1521.12 1271.42 1529.87 Q1271.42 1538.6 1268.35 1543.21 Q1265.29 1547.79 1259.48 1547.79 Q1253.67 1547.79 1250.59 1543.21 Q1247.54 1538.6 1247.54 1529.87 Q1247.54 1521.12 1250.59 1516.54 Q1253.67 1511.93 1259.48 1511.93 Z" fill="#000000" fill-rule="evenodd" fill-opacity="1" /><path clip-path="url(#clip140)" d="M 0 0 M1769.83 1543.18 L1786.15 1543.18 L1786.15 1547.12 L1764.2 1547.12 L1764.2 1543.18 Q1766.87 1540.43 1771.45 1535.8 Q1776.06 1531.15 1777.24 1529.81 Q1779.48 1527.28 1780.36 1525.55 Q1781.26 1523.79 1781.26 1522.1 Q1781.26 1519.34 1779.32 1517.61 Q1777.4 1515.87 1774.3 1515.87 Q1772.1 1515.87 1769.64 1516.63 Q1767.21 1517.4 1764.44 1518.95 L1764.44 1514.23 Q1767.26 1513.09 1769.71 1512.51 Q1772.17 1511.93 1774.2 1511.93 Q1779.57 1511.93 1782.77 1514.62 Q1785.96 1517.31 1785.96 1521.8 Q1785.96 1523.93 1785.15 1525.85 Q1784.37 1527.74 1782.26 1530.34 Q1781.68 1531.01 1778.58 1534.23 Q1775.48 1537.42 1769.83 1543.18 Z" fill="#000000" fill-rule="evenodd" fill-opacity="1" /><path clip-path="url(#clip140)" d="M 0 0 M2293.88 1516.63 L2282.08 1535.08 L2293.88 1535.08 L2293.88 1516.63 M2292.65 1512.56 L2298.53 1512.56 L2298.53 1535.08 L2303.46 1535.08 L2303.46 1538.97 L2298.53 1538.97 L2298.53 1547.12 L2293.88 1547.12 L2293.88 1538.97 L2278.28 1538.97 L2278.28 1534.46 L2292.65 1512.56 Z" fill="#000000" fill-rule="evenodd" fill-opacity="1" /><polyline clip-path="url(#clip142)" style="stroke:#000000; stroke-width:2; stroke-opacity:0.1; fill:none" points="
  166.205,1447.87 2352.76,1447.87 
  "/>
<polyline clip-path="url(#clip142)" style="stroke:#000000; stroke-width:2; stroke-opacity:0.1; fill:none" points="
  166.205,1126.42 2352.76,1126.42 
  "/>
<polyline clip-path="url(#clip142)" style="stroke:#000000; stroke-width:2; stroke-opacity:0.1; fill:none" points="
  166.205,804.96 2352.76,804.96 
  "/>
<polyline clip-path="url(#clip142)" style="stroke:#000000; stroke-width:2; stroke-opacity:0.1; fill:none" points="
  166.205,483.503 2352.76,483.503 
  "/>
<polyline clip-path="url(#clip142)" style="stroke:#000000; stroke-width:2; stroke-opacity:0.1; fill:none" points="
  166.205,162.047 2352.76,162.047 
  "/>
<polyline clip-path="url(#clip140)" style="stroke:#000000; stroke-width:4; stroke-opacity:1; fill:none" points="
  166.205,1486.45 166.205,123.472 
  "/>
<polyline clip-path="url(#clip140)" style="stroke:#000000; stroke-width:4; stroke-opacity:1; fill:none" points="
  166.205,1447.87 192.443,1447.87 
  "/>
<polyline clip-path="url(#clip140)" style="stroke:#000000; stroke-width:4; stroke-opacity:1; fill:none" points="
  166.205,1126.42 192.443,1126.42 
  "/>
<polyline clip-path="url(#clip140)" style="stroke:#000000; stroke-width:4; stroke-opacity:1; fill:none" points="
  166.205,804.96 192.443,804.96 
  "/>
<polyline clip-path="url(#clip140)" style="stroke:#000000; stroke-width:4; stroke-opacity:1; fill:none" points="
  166.205,483.503 192.443,483.503 
  "/>
<polyline clip-path="url(#clip140)" style="stroke:#000000; stroke-width:4; stroke-opacity:1; fill:none" points="
  166.205,162.047 192.443,162.047 
  "/>
<path clip-path="url(#clip140)" d="M 0 0 M118.26 1433.67 Q114.649 1433.67 112.82 1437.24 Q111.015 1440.78 111.015 1447.91 Q111.015 1455.01 112.82 1458.58 Q114.649 1462.12 118.26 1462.12 Q121.895 1462.12 123.7 1458.58 Q125.529 1455.01 125.529 1447.91 Q125.529 1440.78 123.7 1437.24 Q121.895 1433.67 118.26 1433.67 M118.26 1429.97 Q124.07 1429.97 127.126 1434.57 Q130.205 1439.16 130.205 1447.91 Q130.205 1456.63 127.126 1461.24 Q124.07 1465.82 118.26 1465.82 Q112.45 1465.82 109.371 1461.24 Q106.316 1456.63 106.316 1447.91 Q106.316 1439.16 109.371 1434.57 Q112.45 1429.97 118.26 1429.97 Z" fill="#000000" fill-rule="evenodd" fill-opacity="1" /><path clip-path="url(#clip140)" d="M 0 0 M59.8578 1139.76 L76.1772 1139.76 L76.1772 1143.7 L54.2328 1143.7 L54.2328 1139.76 Q56.8949 1137.01 61.4782 1132.38 Q66.0846 1127.72 67.2652 1126.38 Q69.5105 1123.86 70.3902 1122.12 Q71.2929 1120.36 71.2929 1118.67 Q71.2929 1115.92 69.3485 1114.18 Q67.4272 1112.45 64.3254 1112.45 Q62.1263 1112.45 59.6726 1113.21 Q57.2421 1113.97 54.4643 1115.53 L54.4643 1110.8 Q57.2884 1109.67 59.7421 1109.09 Q62.1958 1108.51 64.2328 1108.51 Q69.6031 1108.51 72.7976 1111.2 Q75.992 1113.88 75.992 1118.37 Q75.992 1120.5 75.1818 1122.42 Q74.3948 1124.32 72.2883 1126.91 Q71.7096 1127.59 68.6078 1130.8 Q65.5059 1134 59.8578 1139.76 Z" fill="#000000" fill-rule="evenodd" fill-opacity="1" /><path clip-path="url(#clip140)" d="M 0 0 M91.2465 1112.22 Q87.6354 1112.22 85.8068 1115.78 Q84.0012 1119.32 84.0012 1126.45 Q84.0012 1133.56 85.8068 1137.12 Q87.6354 1140.66 91.2465 1140.66 Q94.8808 1140.66 96.6863 1137.12 Q98.515 1133.56 98.515 1126.45 Q98.515 1119.32 96.6863 1115.78 Q94.8808 1112.22 91.2465 1112.22 M91.2465 1108.51 Q97.0567 1108.51 100.112 1113.12 Q103.191 1117.7 103.191 1126.45 Q103.191 1135.18 100.112 1139.78 Q97.0567 1144.37 91.2465 1144.37 Q85.4364 1144.37 82.3577 1139.78 Q79.3022 1135.18 79.3022 1126.45 Q79.3022 1117.7 82.3577 1113.12 Q85.4364 1108.51 91.2465 1108.51 Z" fill="#000000" fill-rule="evenodd" fill-opacity="1" /><path clip-path="url(#clip140)" d="M 0 0 M118.26 1112.22 Q114.649 1112.22 112.82 1115.78 Q111.015 1119.32 111.015 1126.45 Q111.015 1133.56 112.82 1137.12 Q114.649 1140.66 118.26 1140.66 Q121.895 1140.66 123.7 1137.12 Q125.529 1133.56 125.529 1126.45 Q125.529 1119.32 123.7 1115.78 Q121.895 1112.22 118.26 1112.22 M118.26 1108.51 Q124.07 1108.51 127.126 1113.12 Q130.205 1117.7 130.205 1126.45 Q130.205 1135.18 127.126 1139.78 Q124.07 1144.37 118.26 1144.37 Q112.45 1144.37 109.371 1139.78 Q106.316 1135.18 106.316 1126.45 Q106.316 1117.7 109.371 1113.12 Q112.45 1108.51 118.26 1108.51 Z" fill="#000000" fill-rule="evenodd" fill-opacity="1" /><path clip-path="url(#clip140)" d="M 0 0 M66.5939 791.754 L54.7884 810.203 L66.5939 810.203 L66.5939 791.754 M65.367 787.68 L71.2466 787.68 L71.2466 810.203 L76.1772 810.203 L76.1772 814.092 L71.2466 814.092 L71.2466 822.24 L66.5939 822.24 L66.5939 814.092 L50.9921 814.092 L50.9921 809.578 L65.367 787.68 Z" fill="#000000" fill-rule="evenodd" fill-opacity="1" /><path clip-path="url(#clip140)" d="M 0 0 M91.2465 790.759 Q87.6354 790.759 85.8068 794.323 Q84.0012 797.865 84.0012 804.995 Q84.0012 812.101 85.8068 815.666 Q87.6354 819.208 91.2465 819.208 Q94.8808 819.208 96.6863 815.666 Q98.515 812.101 98.515 804.995 Q98.515 797.865 96.6863 794.323 Q94.8808 790.759 91.2465 790.759 M91.2465 787.055 Q97.0567 787.055 100.112 791.661 Q103.191 796.245 103.191 804.995 Q103.191 813.722 100.112 818.328 Q97.0567 822.911 91.2465 822.911 Q85.4364 822.911 82.3577 818.328 Q79.3022 813.722 79.3022 804.995 Q79.3022 796.245 82.3577 791.661 Q85.4364 787.055 91.2465 787.055 Z" fill="#000000" fill-rule="evenodd" fill-opacity="1" /><path clip-path="url(#clip140)" d="M 0 0 M118.26 790.759 Q114.649 790.759 112.82 794.323 Q111.015 797.865 111.015 804.995 Q111.015 812.101 112.82 815.666 Q114.649 819.208 118.26 819.208 Q121.895 819.208 123.7 815.666 Q125.529 812.101 125.529 804.995 Q125.529 797.865 123.7 794.323 Q121.895 790.759 118.26 790.759 M118.26 787.055 Q124.07 787.055 127.126 791.661 Q130.205 796.245 130.205 804.995 Q130.205 813.722 127.126 818.328 Q124.07 822.911 118.26 822.911 Q112.45 822.911 109.371 818.328 Q106.316 813.722 106.316 804.995 Q106.316 796.245 109.371 791.661 Q112.45 787.055 118.26 787.055 Z" fill="#000000" fill-rule="evenodd" fill-opacity="1" /><path clip-path="url(#clip140)" d="M 0 0 M64.6495 481.64 Q61.5013 481.64 59.6495 483.793 Q57.8208 485.946 57.8208 489.696 Q57.8208 493.422 59.6495 495.598 Q61.5013 497.751 64.6495 497.751 Q67.7976 497.751 69.6263 495.598 Q71.4781 493.422 71.4781 489.696 Q71.4781 485.946 69.6263 483.793 Q67.7976 481.64 64.6495 481.64 M73.9318 466.987 L73.9318 471.247 Q72.1726 470.413 70.367 469.973 Q68.5846 469.534 66.8254 469.534 Q62.1958 469.534 59.7421 472.659 Q57.3115 475.784 56.9643 482.103 Q58.33 480.089 60.3902 479.024 Q62.4504 477.936 64.9272 477.936 Q70.1355 477.936 73.1448 481.108 Q76.1772 484.256 76.1772 489.696 Q76.1772 495.02 73.029 498.237 Q69.8809 501.455 64.6495 501.455 Q58.6541 501.455 55.4828 496.871 Q52.3116 492.265 52.3116 483.538 Q52.3116 475.344 56.2004 470.483 Q60.0893 465.598 66.6402 465.598 Q68.3994 465.598 70.1818 465.946 Q71.9874 466.293 73.9318 466.987 Z" fill="#000000" fill-rule="evenodd" fill-opacity="1" /><path clip-path="url(#clip140)" d="M 0 0 M91.2465 469.302 Q87.6354 469.302 85.8068 472.867 Q84.0012 476.409 84.0012 483.538 Q84.0012 490.645 85.8068 494.209 Q87.6354 497.751 91.2465 497.751 Q94.8808 497.751 96.6863 494.209 Q98.515 490.645 98.515 483.538 Q98.515 476.409 96.6863 472.867 Q94.8808 469.302 91.2465 469.302 M91.2465 465.598 Q97.0567 465.598 100.112 470.205 Q103.191 474.788 103.191 483.538 Q103.191 492.265 100.112 496.871 Q97.0567 501.455 91.2465 501.455 Q85.4364 501.455 82.3577 496.871 Q79.3022 492.265 79.3022 483.538 Q79.3022 474.788 82.3577 470.205 Q85.4364 465.598 91.2465 465.598 Z" fill="#000000" fill-rule="evenodd" fill-opacity="1" /><path clip-path="url(#clip140)" d="M 0 0 M118.26 469.302 Q114.649 469.302 112.82 472.867 Q111.015 476.409 111.015 483.538 Q111.015 490.645 112.82 494.209 Q114.649 497.751 118.26 497.751 Q121.895 497.751 123.7 494.209 Q125.529 490.645 125.529 483.538 Q125.529 476.409 123.7 472.867 Q121.895 469.302 118.26 469.302 M118.26 465.598 Q124.07 465.598 127.126 470.205 Q130.205 474.788 130.205 483.538 Q130.205 492.265 127.126 496.871 Q124.07 501.455 118.26 501.455 Q112.45 501.455 109.371 496.871 Q106.316 492.265 106.316 483.538 Q106.316 474.788 109.371 470.205 Q112.45 465.598 118.26 465.598 Z" fill="#000000" fill-rule="evenodd" fill-opacity="1" /><path clip-path="url(#clip140)" d="M 0 0 M64.3254 162.915 Q60.9921 162.915 59.0708 164.697 Q57.1726 166.48 57.1726 169.605 Q57.1726 172.73 59.0708 174.512 Q60.9921 176.295 64.3254 176.295 Q67.6587 176.295 69.58 174.512 Q71.5013 172.707 71.5013 169.605 Q71.5013 166.48 69.58 164.697 Q67.6819 162.915 64.3254 162.915 M59.6495 160.924 Q56.6402 160.183 54.9504 158.123 Q53.2838 156.063 53.2838 153.1 Q53.2838 148.957 56.2236 146.549 Q59.1865 144.142 64.3254 144.142 Q69.4874 144.142 72.4272 146.549 Q75.367 148.957 75.367 153.1 Q75.367 156.063 73.6772 158.123 Q72.0105 160.183 69.0244 160.924 Q72.404 161.711 74.279 164.003 Q76.1772 166.295 76.1772 169.605 Q76.1772 174.628 73.0985 177.313 Q70.0429 179.998 64.3254 179.998 Q58.6078 179.998 55.5291 177.313 Q52.4736 174.628 52.4736 169.605 Q52.4736 166.295 54.3717 164.003 Q56.2699 161.711 59.6495 160.924 M57.9365 153.54 Q57.9365 156.225 59.6032 157.73 Q61.293 159.234 64.3254 159.234 Q67.3346 159.234 69.0244 157.73 Q70.7374 156.225 70.7374 153.54 Q70.7374 150.855 69.0244 149.35 Q67.3346 147.846 64.3254 147.846 Q61.293 147.846 59.6032 149.35 Q57.9365 150.855 57.9365 153.54 Z" fill="#000000" fill-rule="evenodd" fill-opacity="1" /><path clip-path="url(#clip140)" d="M 0 0 M91.2465 147.846 Q87.6354 147.846 85.8068 151.41 Q84.0012 154.952 84.0012 162.082 Q84.0012 169.188 85.8068 172.753 Q87.6354 176.295 91.2465 176.295 Q94.8808 176.295 96.6863 172.753 Q98.515 169.188 98.515 162.082 Q98.515 154.952 96.6863 151.41 Q94.8808 147.846 91.2465 147.846 M91.2465 144.142 Q97.0567 144.142 100.112 148.748 Q103.191 153.332 103.191 162.082 Q103.191 170.808 100.112 175.415 Q97.0567 179.998 91.2465 179.998 Q85.4364 179.998 82.3577 175.415 Q79.3022 170.808 79.3022 162.082 Q79.3022 153.332 82.3577 148.748 Q85.4364 144.142 91.2465 144.142 Z" fill="#000000" fill-rule="evenodd" fill-opacity="1" /><path clip-path="url(#clip140)" d="M 0 0 M118.26 147.846 Q114.649 147.846 112.82 151.41 Q111.015 154.952 111.015 162.082 Q111.015 169.188 112.82 172.753 Q114.649 176.295 118.26 176.295 Q121.895 176.295 123.7 172.753 Q125.529 169.188 125.529 162.082 Q125.529 154.952 123.7 151.41 Q121.895 147.846 118.26 147.846 M118.26 144.142 Q124.07 144.142 127.126 148.748 Q130.205 153.332 130.205 162.082 Q130.205 170.808 127.126 175.415 Q124.07 179.998 118.26 179.998 Q112.45 179.998 109.371 175.415 Q106.316 170.808 106.316 162.082 Q106.316 153.332 109.371 148.748 Q112.45 144.142 118.26 144.142 Z" fill="#000000" fill-rule="evenodd" fill-opacity="1" /><path clip-path="url(#clip140)" d="M 0 0 M697.458 18.8205 L697.458 65.8515 L707.342 65.8515 Q719.859 65.8515 725.652 60.1802 Q731.485 54.509 731.485 42.2752 Q731.485 30.1225 725.652 24.4918 Q719.859 18.8205 707.342 18.8205 L697.458 18.8205 M689.275 12.096 L706.086 12.096 Q723.667 12.096 731.891 19.4281 Q740.114 26.7198 740.114 42.2752 Q740.114 57.9117 731.85 65.2439 Q723.586 72.576 706.086 72.576 L689.275 72.576 L689.275 12.096 Z" fill="#000000" fill-rule="evenodd" fill-opacity="1" /><path clip-path="url(#clip140)" d="M 0 0 M768.551 49.7694 Q759.518 49.7694 756.034 51.8354 Q752.55 53.9013 752.55 58.8839 Q752.55 62.8538 755.143 65.2034 Q757.776 67.5124 762.272 67.5124 Q768.47 67.5124 772.197 63.1374 Q775.964 58.7219 775.964 51.4303 L775.964 49.7694 L768.551 49.7694 M783.418 46.6907 L783.418 72.576 L775.964 72.576 L775.964 65.6895 Q773.412 69.8214 769.604 71.8063 Q765.797 73.7508 760.287 73.7508 Q753.32 73.7508 749.188 69.8619 Q745.096 65.9325 745.096 59.3701 Q745.096 51.7138 750.201 47.825 Q755.345 43.9361 765.513 43.9361 L775.964 43.9361 L775.964 43.2069 Q775.964 38.0623 772.562 35.2672 Q769.199 32.4315 763.082 32.4315 Q759.194 32.4315 755.507 33.3632 Q751.821 34.295 748.418 36.1584 L748.418 29.2718 Q752.51 27.692 756.358 26.9223 Q760.206 26.1121 763.852 26.1121 Q773.696 26.1121 778.557 31.2163 Q783.418 36.3204 783.418 46.6907 Z" fill="#000000" fill-rule="evenodd" fill-opacity="1" /><path clip-path="url(#clip140)" d="M 0 0 M798.609 14.324 L798.609 27.2059 L813.962 27.2059 L813.962 32.9987 L798.609 32.9987 L798.609 57.6282 Q798.609 63.1779 800.108 64.7578 Q801.647 66.3376 806.306 66.3376 L813.962 66.3376 L813.962 72.576 L806.306 72.576 Q797.677 72.576 794.396 69.3758 Q791.115 66.1351 791.115 57.6282 L791.115 32.9987 L785.646 32.9987 L785.646 27.2059 L791.115 27.2059 L791.115 14.324 L798.609 14.324 Z" fill="#000000" fill-rule="evenodd" fill-opacity="1" /><path clip-path="url(#clip140)" d="M 0 0 M842.399 49.7694 Q833.366 49.7694 829.882 51.8354 Q826.398 53.9013 826.398 58.8839 Q826.398 62.8538 828.991 65.2034 Q831.624 67.5124 836.12 67.5124 Q842.318 67.5124 846.045 63.1374 Q849.812 58.7219 849.812 51.4303 L849.812 49.7694 L842.399 49.7694 M857.266 46.6907 L857.266 72.576 L849.812 72.576 L849.812 65.6895 Q847.26 69.8214 843.452 71.8063 Q839.645 73.7508 834.135 73.7508 Q827.168 73.7508 823.036 69.8619 Q818.944 65.9325 818.944 59.3701 Q818.944 51.7138 824.049 47.825 Q829.193 43.9361 839.361 43.9361 L849.812 43.9361 L849.812 43.2069 Q849.812 38.0623 846.41 35.2672 Q843.047 32.4315 836.93 32.4315 Q833.042 32.4315 829.355 33.3632 Q825.669 34.295 822.266 36.1584 L822.266 29.2718 Q826.358 27.692 830.206 26.9223 Q834.054 26.1121 837.7 26.1121 Q847.544 26.1121 852.405 31.2163 Q857.266 36.3204 857.266 46.6907 Z" fill="#000000" fill-rule="evenodd" fill-opacity="1" /><path clip-path="url(#clip140)" d="M 0 0 M912.075 49.7694 Q903.041 49.7694 899.557 51.8354 Q896.074 53.9013 896.074 58.8839 Q896.074 62.8538 898.666 65.2034 Q901.299 67.5124 905.796 67.5124 Q911.994 67.5124 915.721 63.1374 Q919.488 58.7219 919.488 51.4303 L919.488 49.7694 L912.075 49.7694 M926.942 46.6907 L926.942 72.576 L919.488 72.576 L919.488 65.6895 Q916.936 69.8214 913.128 71.8063 Q909.32 73.7508 903.811 73.7508 Q896.843 73.7508 892.711 69.8619 Q888.62 65.9325 888.62 59.3701 Q888.62 51.7138 893.724 47.825 Q898.869 43.9361 909.037 43.9361 L919.488 43.9361 L919.488 43.2069 Q919.488 38.0623 916.085 35.2672 Q912.723 32.4315 906.606 32.4315 Q902.717 32.4315 899.031 33.3632 Q895.345 34.295 891.942 36.1584 L891.942 29.2718 Q896.033 27.692 899.882 26.9223 Q903.73 26.1121 907.376 26.1121 Q917.219 26.1121 922.08 31.2163 Q926.942 36.3204 926.942 46.6907 Z" fill="#000000" fill-rule="evenodd" fill-opacity="1" /><path clip-path="url(#clip140)" d="M 0 0 M972.474 45.1919 L972.474 72.576 L965.02 72.576 L965.02 45.4349 Q965.02 38.994 962.508 35.7938 Q959.997 32.5936 954.974 32.5936 Q948.938 32.5936 945.454 36.4419 Q941.97 40.2903 941.97 46.9338 L941.97 72.576 L934.476 72.576 L934.476 27.2059 L941.97 27.2059 L941.97 34.2544 Q944.644 30.163 948.249 28.1376 Q951.895 26.1121 956.635 26.1121 Q964.453 26.1121 968.463 30.9732 Q972.474 35.7938 972.474 45.1919 Z" fill="#000000" fill-rule="evenodd" fill-opacity="1" /><path clip-path="url(#clip140)" d="M 0 0 M1010.15 34.0924 L1010.15 9.54393 L1017.6 9.54393 L1017.6 72.576 L1010.15 72.576 L1010.15 65.7705 Q1007.8 69.8214 1004.19 71.8063 Q1000.63 73.7508 995.604 73.7508 Q987.381 73.7508 982.196 67.1883 Q977.051 60.6258 977.051 49.9314 Q977.051 39.2371 982.196 32.6746 Q987.381 26.1121 995.604 26.1121 Q1000.63 26.1121 1004.19 28.0971 Q1007.8 30.0415 1010.15 34.0924 M984.748 49.9314 Q984.748 58.1548 988.11 62.8538 Q991.513 67.5124 997.427 67.5124 Q1003.34 67.5124 1006.74 62.8538 Q1010.15 58.1548 1010.15 49.9314 Q1010.15 41.7081 1006.74 37.0496 Q1003.34 32.3505 997.427 32.3505 Q991.513 32.3505 988.11 37.0496 Q984.748 41.7081 984.748 49.9314 Z" fill="#000000" fill-rule="evenodd" fill-opacity="1" /><path clip-path="url(#clip140)" d="M 0 0 M1043.73 12.096 L1094.89 12.096 L1094.89 18.9825 L1073.42 18.9825 L1073.42 72.576 L1065.2 72.576 L1065.2 18.9825 L1043.73 18.9825 L1043.73 12.096 Z" fill="#000000" fill-rule="evenodd" fill-opacity="1" /><path clip-path="url(#clip140)" d="M 0 0 M1116.81 34.1734 Q1115.55 33.4443 1114.05 33.1202 Q1112.59 32.7556 1110.81 32.7556 Q1104.49 32.7556 1101.09 36.8875 Q1097.73 40.9789 1097.73 48.6757 L1097.73 72.576 L1090.23 72.576 L1090.23 27.2059 L1097.73 27.2059 L1097.73 34.2544 Q1100.08 30.1225 1103.84 28.1376 Q1107.61 26.1121 1113 26.1121 Q1113.77 26.1121 1114.7 26.2337 Q1115.63 26.3147 1116.77 26.5172 L1116.81 34.1734 Z" fill="#000000" fill-rule="evenodd" fill-opacity="1" /><path clip-path="url(#clip140)" d="M 0 0 M1123.86 54.671 L1123.86 27.2059 L1131.31 27.2059 L1131.31 54.3874 Q1131.31 60.8284 1133.82 64.0691 Q1136.33 67.2693 1141.36 67.2693 Q1147.39 67.2693 1150.88 63.421 Q1154.4 59.5726 1154.4 52.9291 L1154.4 27.2059 L1161.85 27.2059 L1161.85 72.576 L1154.4 72.576 L1154.4 65.6084 Q1151.69 69.7404 1148.08 71.7658 Q1144.52 73.7508 1139.78 73.7508 Q1131.96 73.7508 1127.91 68.8897 Q1123.86 64.0286 1123.86 54.671 M1142.61 26.1121 L1142.61 26.1121 Z" fill="#000000" fill-rule="evenodd" fill-opacity="1" /><path clip-path="url(#clip140)" d="M 0 0 M1208.48 48.0275 L1208.48 51.6733 L1174.21 51.6733 Q1174.69 59.3701 1178.83 63.421 Q1183 67.4314 1190.41 67.4314 Q1194.71 67.4314 1198.72 66.3781 Q1202.77 65.3249 1206.74 63.2184 L1206.74 70.267 Q1202.73 71.9684 1198.51 72.8596 Q1194.3 73.7508 1189.97 73.7508 Q1179.11 73.7508 1172.75 67.4314 Q1166.43 61.1119 1166.43 50.3365 Q1166.43 39.1965 1172.43 32.6746 Q1178.46 26.1121 1188.67 26.1121 Q1197.83 26.1121 1203.13 32.0264 Q1208.48 37.9003 1208.48 48.0275 M1201.03 45.84 Q1200.94 39.7232 1197.58 36.0774 Q1194.26 32.4315 1188.75 32.4315 Q1182.51 32.4315 1178.75 35.9558 Q1175.02 39.4801 1174.45 45.8805 L1201.03 45.84 Z" fill="#000000" fill-rule="evenodd" fill-opacity="1" /><path clip-path="url(#clip140)" d="M 0 0 M1279.25 14.0809 L1279.25 22.0612 Q1274.59 19.8332 1270.46 18.7395 Q1266.33 17.6457 1262.48 17.6457 Q1255.79 17.6457 1252.15 20.2383 Q1248.54 22.8309 1248.54 27.611 Q1248.54 31.6214 1250.93 33.6873 Q1253.36 35.7128 1260.09 36.9686 L1265.03 37.9813 Q1274.19 39.7232 1278.52 44.1387 Q1282.89 48.5136 1282.89 55.8863 Q1282.89 64.6767 1276.98 69.2137 Q1271.11 73.7508 1259.72 73.7508 Q1255.43 73.7508 1250.57 72.7785 Q1245.75 71.8063 1240.56 69.9024 L1240.56 61.4765 Q1245.55 64.2716 1250.33 65.6895 Q1255.11 67.1073 1259.72 67.1073 Q1266.73 67.1073 1270.54 64.3527 Q1274.35 61.598 1274.35 56.4939 Q1274.35 52.0379 1271.59 49.5264 Q1268.88 47.0148 1262.64 45.759 L1257.66 44.7868 Q1248.5 42.9639 1244.41 39.075 Q1240.32 35.1862 1240.32 28.2591 Q1240.32 20.2383 1245.95 15.6203 Q1251.62 11.0023 1261.55 11.0023 Q1265.8 11.0023 1270.22 11.7719 Q1274.63 12.5416 1279.25 14.0809 Z" fill="#000000" fill-rule="evenodd" fill-opacity="1" /><path clip-path="url(#clip140)" d="M 0 0 M1298.09 14.324 L1298.09 27.2059 L1313.44 27.2059 L1313.44 32.9987 L1298.09 32.9987 L1298.09 57.6282 Q1298.09 63.1779 1299.58 64.7578 Q1301.12 66.3376 1305.78 66.3376 L1313.44 66.3376 L1313.44 72.576 L1305.78 72.576 Q1297.15 72.576 1293.87 69.3758 Q1290.59 66.1351 1290.59 57.6282 L1290.59 32.9987 L1285.12 32.9987 L1285.12 27.2059 L1290.59 27.2059 L1290.59 14.324 L1298.09 14.324 Z" fill="#000000" fill-rule="evenodd" fill-opacity="1" /><path clip-path="url(#clip140)" d="M 0 0 M1341.88 49.7694 Q1332.84 49.7694 1329.36 51.8354 Q1325.87 53.9013 1325.87 58.8839 Q1325.87 62.8538 1328.47 65.2034 Q1331.1 67.5124 1335.6 67.5124 Q1341.79 67.5124 1345.52 63.1374 Q1349.29 58.7219 1349.29 51.4303 L1349.29 49.7694 L1341.88 49.7694 M1356.74 46.6907 L1356.74 72.576 L1349.29 72.576 L1349.29 65.6895 Q1346.74 69.8214 1342.93 71.8063 Q1339.12 73.7508 1333.61 73.7508 Q1326.64 73.7508 1322.51 69.8619 Q1318.42 65.9325 1318.42 59.3701 Q1318.42 51.7138 1323.53 47.825 Q1328.67 43.9361 1338.84 43.9361 L1349.29 43.9361 L1349.29 43.2069 Q1349.29 38.0623 1345.89 35.2672 Q1342.52 32.4315 1336.41 32.4315 Q1332.52 32.4315 1328.83 33.3632 Q1325.15 34.295 1321.74 36.1584 L1321.74 29.2718 Q1325.83 27.692 1329.68 26.9223 Q1333.53 26.1121 1337.18 26.1121 Q1347.02 26.1121 1351.88 31.2163 Q1356.74 36.3204 1356.74 46.6907 Z" fill="#000000" fill-rule="evenodd" fill-opacity="1" /><path clip-path="url(#clip140)" d="M 0 0 M1371.93 14.324 L1371.93 27.2059 L1387.29 27.2059 L1387.29 32.9987 L1371.93 32.9987 L1371.93 57.6282 Q1371.93 63.1779 1373.43 64.7578 Q1374.97 66.3376 1379.63 66.3376 L1387.29 66.3376 L1387.29 72.576 L1379.63 72.576 Q1371 72.576 1367.72 69.3758 Q1364.44 66.1351 1364.44 57.6282 L1364.44 32.9987 L1358.97 32.9987 L1358.97 27.2059 L1364.44 27.2059 L1364.44 14.324 L1371.93 14.324 Z" fill="#000000" fill-rule="evenodd" fill-opacity="1" /><path clip-path="url(#clip140)" d="M 0 0 M1395.1 27.2059 L1402.56 27.2059 L1402.56 72.576 L1395.1 72.576 L1395.1 27.2059 M1395.1 9.54393 L1402.56 9.54393 L1402.56 18.9825 L1395.1 18.9825 L1395.1 9.54393 Z" fill="#000000" fill-rule="evenodd" fill-opacity="1" /><path clip-path="url(#clip140)" d="M 0 0 M1439.3 28.5427 L1439.3 35.5912 Q1436.14 33.9709 1432.74 33.1607 Q1429.33 32.3505 1425.69 32.3505 Q1420.14 32.3505 1417.34 34.0519 Q1414.59 35.7533 1414.59 39.156 Q1414.59 41.7486 1416.57 43.2475 Q1418.56 44.7058 1424.55 46.0426 L1427.11 46.6097 Q1435.05 48.3111 1438.37 51.4303 Q1441.73 54.509 1441.73 60.0587 Q1441.73 66.3781 1436.71 70.0644 Q1431.72 73.7508 1422.97 73.7508 Q1419.33 73.7508 1415.36 73.0216 Q1411.43 72.3329 1407.05 70.9151 L1407.05 63.2184 Q1411.19 65.3654 1415.2 66.4591 Q1419.21 67.5124 1423.14 67.5124 Q1428.4 67.5124 1431.24 65.73 Q1434.07 63.9071 1434.07 60.6258 Q1434.07 57.5877 1432.01 55.9673 Q1429.98 54.3469 1423.06 52.8481 L1420.46 52.2405 Q1413.54 50.7821 1410.46 47.7845 Q1407.38 44.7463 1407.38 39.4801 Q1407.38 33.0797 1411.92 29.5959 Q1416.45 26.1121 1424.8 26.1121 Q1428.93 26.1121 1432.58 26.7198 Q1436.22 27.3274 1439.3 28.5427 Z" fill="#000000" fill-rule="evenodd" fill-opacity="1" /><path clip-path="url(#clip140)" d="M 0 0 M1456.92 14.324 L1456.92 27.2059 L1472.27 27.2059 L1472.27 32.9987 L1456.92 32.9987 L1456.92 57.6282 Q1456.92 63.1779 1458.42 64.7578 Q1459.96 66.3376 1464.62 66.3376 L1472.27 66.3376 L1472.27 72.576 L1464.62 72.576 Q1455.99 72.576 1452.71 69.3758 Q1449.43 66.1351 1449.43 57.6282 L1449.43 32.9987 L1443.96 32.9987 L1443.96 27.2059 L1449.43 27.2059 L1449.43 14.324 L1456.92 14.324 Z" fill="#000000" fill-rule="evenodd" fill-opacity="1" /><path clip-path="url(#clip140)" d="M 0 0 M1480.09 27.2059 L1487.55 27.2059 L1487.55 72.576 L1480.09 72.576 L1480.09 27.2059 M1480.09 9.54393 L1487.55 9.54393 L1487.55 18.9825 L1480.09 18.9825 L1480.09 9.54393 Z" fill="#000000" fill-rule="evenodd" fill-opacity="1" /><path clip-path="url(#clip140)" d="M 0 0 M1528.01 28.9478 L1528.01 35.9153 Q1524.86 34.1734 1521.65 33.3227 Q1518.5 32.4315 1515.25 32.4315 Q1508 32.4315 1503.99 37.0496 Q1499.98 41.6271 1499.98 49.9314 Q1499.98 58.2358 1503.99 62.8538 Q1508 67.4314 1515.25 67.4314 Q1518.5 67.4314 1521.65 66.5807 Q1524.86 65.6895 1528.01 63.9476 L1528.01 70.8341 Q1524.9 72.2924 1521.53 73.0216 Q1518.21 73.7508 1514.44 73.7508 Q1504.2 73.7508 1498.16 67.3098 Q1492.12 60.8689 1492.12 49.9314 Q1492.12 38.832 1498.2 32.472 Q1504.32 26.1121 1514.93 26.1121 Q1518.37 26.1121 1521.65 26.8413 Q1524.94 27.5299 1528.01 28.9478 Z" fill="#000000" fill-rule="evenodd" fill-opacity="1" /><path clip-path="url(#clip140)" d="M 0 0 M1556.45 49.7694 Q1547.42 49.7694 1543.93 51.8354 Q1540.45 53.9013 1540.45 58.8839 Q1540.45 62.8538 1543.04 65.2034 Q1545.68 67.5124 1550.17 67.5124 Q1556.37 67.5124 1560.1 63.1374 Q1563.87 58.7219 1563.87 51.4303 L1563.87 49.7694 L1556.45 49.7694 M1571.32 46.6907 L1571.32 72.576 L1563.87 72.576 L1563.87 65.6895 Q1561.31 69.8214 1557.51 71.8063 Q1553.7 73.7508 1548.19 73.7508 Q1541.22 73.7508 1537.09 69.8619 Q1533 65.9325 1533 59.3701 Q1533 51.7138 1538.1 47.825 Q1543.25 43.9361 1553.41 43.9361 L1563.87 43.9361 L1563.87 43.2069 Q1563.87 38.0623 1560.46 35.2672 Q1557.1 32.4315 1550.98 32.4315 Q1547.09 32.4315 1543.41 33.3632 Q1539.72 34.295 1536.32 36.1584 L1536.32 29.2718 Q1540.41 27.692 1544.26 26.9223 Q1548.11 26.1121 1551.75 26.1121 Q1561.6 26.1121 1566.46 31.2163 Q1571.32 36.3204 1571.32 46.6907 Z" fill="#000000" fill-rule="evenodd" fill-opacity="1" /><path clip-path="url(#clip140)" d="M 0 0 M1579.14 9.54393 L1586.59 9.54393 L1586.59 72.576 L1579.14 72.576 L1579.14 9.54393 Z" fill="#000000" fill-rule="evenodd" fill-opacity="1" /><path clip-path="url(#clip140)" d="M 0 0 M1621.1 12.096 L1633.3 12.096 L1648.73 53.2532 L1664.25 12.096 L1676.44 12.096 L1676.44 72.576 L1668.46 72.576 L1668.46 19.4686 L1652.86 60.9499 L1644.64 60.9499 L1629.04 19.4686 L1629.04 72.576 L1621.1 72.576 L1621.1 12.096 Z" fill="#000000" fill-rule="evenodd" fill-opacity="1" /><path clip-path="url(#clip140)" d="M 0 0 M1701.84 32.4315 Q1695.84 32.4315 1692.36 37.1306 Q1688.88 41.7891 1688.88 49.9314 Q1688.88 58.0738 1692.32 62.7728 Q1695.8 67.4314 1701.84 67.4314 Q1707.79 67.4314 1711.28 62.7323 Q1714.76 58.0333 1714.76 49.9314 Q1714.76 41.8701 1711.28 37.1711 Q1707.79 32.4315 1701.84 32.4315 M1701.84 26.1121 Q1711.56 26.1121 1717.11 32.4315 Q1722.66 38.7509 1722.66 49.9314 Q1722.66 61.0714 1717.11 67.4314 Q1711.56 73.7508 1701.84 73.7508 Q1692.08 73.7508 1686.53 67.4314 Q1681.02 61.0714 1681.02 49.9314 Q1681.02 38.7509 1686.53 32.4315 Q1692.08 26.1121 1701.84 26.1121 Z" fill="#000000" fill-rule="evenodd" fill-opacity="1" /><path clip-path="url(#clip140)" d="M 0 0 M1760.33 34.0924 L1760.33 9.54393 L1767.79 9.54393 L1767.79 72.576 L1760.33 72.576 L1760.33 65.7705 Q1757.98 69.8214 1754.38 71.8063 Q1750.81 73.7508 1745.79 73.7508 Q1737.57 73.7508 1732.38 67.1883 Q1727.24 60.6258 1727.24 49.9314 Q1727.24 39.2371 1732.38 32.6746 Q1737.57 26.1121 1745.79 26.1121 Q1750.81 26.1121 1754.38 28.0971 Q1757.98 30.0415 1760.33 34.0924 M1734.93 49.9314 Q1734.93 58.1548 1738.3 62.8538 Q1741.7 67.5124 1747.61 67.5124 Q1753.53 67.5124 1756.93 62.8538 Q1760.33 58.1548 1760.33 49.9314 Q1760.33 41.7081 1756.93 37.0496 Q1753.53 32.3505 1747.61 32.3505 Q1741.7 32.3505 1738.3 37.0496 Q1734.93 41.7081 1734.93 49.9314 Z" fill="#000000" fill-rule="evenodd" fill-opacity="1" /><path clip-path="url(#clip140)" d="M 0 0 M1814.41 48.0275 L1814.41 51.6733 L1780.14 51.6733 Q1780.63 59.3701 1784.76 63.421 Q1788.93 67.4314 1796.35 67.4314 Q1800.64 67.4314 1804.65 66.3781 Q1808.7 65.3249 1812.67 63.2184 L1812.67 70.267 Q1808.66 71.9684 1804.45 72.8596 Q1800.24 73.7508 1795.9 73.7508 Q1785.04 73.7508 1778.68 67.4314 Q1772.37 61.1119 1772.37 50.3365 Q1772.37 39.1965 1778.36 32.6746 Q1784.4 26.1121 1794.6 26.1121 Q1803.76 26.1121 1809.07 32.0264 Q1814.41 37.9003 1814.41 48.0275 M1806.96 45.84 Q1806.88 39.7232 1803.52 36.0774 Q1800.19 32.4315 1794.69 32.4315 Q1788.45 32.4315 1784.68 35.9558 Q1780.95 39.4801 1780.39 45.8805 L1806.96 45.84 Z" fill="#000000" fill-rule="evenodd" fill-opacity="1" /><path clip-path="url(#clip140)" d="M 0 0 M1822.23 9.54393 L1829.69 9.54393 L1829.69 72.576 L1822.23 72.576 L1822.23 9.54393 Z" fill="#000000" fill-rule="evenodd" fill-opacity="1" /><polyline clip-path="url(#clip142)" style="stroke:#009af9; stroke-width:4; stroke-opacity:1; fill:none" points="
  743.784,1447.87 743.784,1351.44 769.569,1351.44 769.569,1287.14 795.354,1287.14 821.139,1287.14 821.139,1110.34 846.923,1110.34 846.923,1078.2 
  872.708,1078.2 872.708,1029.98 898.493,1029.98 898.493,917.47 924.278,917.47 924.278,821.033 950.063,821.033 950.063,804.96 975.847,804.96 975.847,821.033 
  1001.63,821.033 1001.63,869.251 1027.42,869.251 1027.42,740.669 1053.2,740.669 1053.2,821.033 1078.99,821.033 1078.99,1110.34 1104.77,1110.34 1104.77,1158.56 
  1130.56,1158.56 1130.56,1094.27 1156.34,1094.27 1156.34,1158.56 1182.13,1158.56 1182.13,1222.85 1207.91,1222.85 1207.91,1238.93 1233.7,1238.93 1233.7,1351.44 
  1259.48,1351.44 1285.27,1351.44 1311.05,1351.44 1311.05,1415.73 1336.83,1415.73 1336.83,1447.87 1362.62,1447.87 
  1388.4,1447.87 1388.4,1415.73 1414.19,1415.73 1414.19,1367.51 1439.97,1367.51 1439.97,1351.44 1465.76,1351.44 1491.54,1351.44 1491.54,1319.29 
  1517.33,1319.29 1517.33,1255 1543.11,1255 1543.11,1126.42 1568.9,1126.42 1568.9,949.615 1594.68,949.615 1594.68,885.324 1620.47,885.324 1620.47,531.722 
  1646.25,531.722 1646.25,628.159 1672.04,628.159 1672.04,547.795 1697.82,547.795 1697.82,306.702 1723.61,306.702 1723.61,354.921 1749.39,354.921 1749.39,162.047 
  1775.18,162.047 1800.96,162.047 1800.96,354.921 1826.75,354.921 1852.53,354.921 1852.53,531.722 1878.32,531.722 1878.32,692.45 
  1904.1,692.45 1904.1,740.669 1929.89,740.669 1929.89,885.324 1955.67,885.324 1955.67,917.47 1981.45,917.47 1981.45,1206.78 2007.24,1206.78 2007.24,1190.71 
  2033.02,1190.71 2033.02,1222.85 2058.81,1222.85 2058.81,1367.51 2084.59,1367.51 2084.59,1383.58 2110.38,1383.58 2110.38,1399.65 2136.16,1399.65 2136.16,1415.73 
  2161.95,1415.73 2161.95,1447.87 2187.73,1447.87 2213.52,1447.87 2213.52,1431.8 2239.3,1431.8 2239.3,1447.87 2265.09,1447.87 
  2290.87,1447.87 
  "/>
<polyline clip-path="url(#clip142)" style="stroke:#e26f46; stroke-width:4; stroke-opacity:1; fill:none" points="
  228.088,1447.87 230.667,1447.87 233.245,1447.87 235.824,1447.87 238.402,1447.87 240.981,1447.87 243.559,1447.87 246.138,1447.87 248.716,1447.87 251.295,1447.87 
  253.873,1447.87 256.451,1447.87 259.03,1447.87 261.608,1447.87 264.187,1447.87 266.765,1447.87 269.344,1447.87 271.922,1447.87 274.501,1447.87 277.079,1447.87 
  279.658,1447.87 282.236,1447.87 284.815,1447.87 287.393,1447.87 289.972,1447.87 292.55,1447.87 295.129,1447.87 297.707,1447.87 300.286,1447.87 302.864,1447.87 
  305.443,1447.87 308.021,1447.87 310.6,1447.87 313.178,1447.87 315.757,1447.87 318.335,1447.87 320.913,1447.87 323.492,1447.87 326.07,1447.87 328.649,1447.87 
  331.227,1447.87 333.806,1447.87 336.384,1447.87 338.963,1447.87 341.541,1447.87 344.12,1447.87 346.698,1447.87 349.277,1447.87 351.855,1447.87 354.434,1447.87 
  357.012,1447.87 359.591,1447.87 362.169,1447.87 364.748,1447.87 367.326,1447.87 369.905,1447.87 372.483,1447.87 375.062,1447.87 377.64,1447.87 380.219,1447.87 
  382.797,1447.87 385.375,1447.87 387.954,1447.87 390.532,1447.86 393.111,1447.86 395.689,1447.86 398.268,1447.86 400.846,1447.86 403.425,1447.86 406.003,1447.86 
  408.582,1447.86 411.16,1447.86 413.739,1447.85 416.317,1447.85 418.896,1447.85 421.474,1447.85 424.053,1447.84 426.631,1447.84 429.21,1447.84 431.788,1447.84 
  434.367,1447.83 436.945,1447.83 439.524,1447.83 442.102,1447.82 444.681,1447.82 447.259,1447.81 449.837,1447.81 452.416,1447.8 454.994,1447.79 457.573,1447.79 
  460.151,1447.78 462.73,1447.77 465.308,1447.76 467.887,1447.75 470.465,1447.74 473.044,1447.73 475.622,1447.72 478.201,1447.7 480.779,1447.69 483.358,1447.67 
  485.936,1447.66 488.515,1447.64 491.093,1447.62 493.672,1447.6 496.25,1447.58 498.829,1447.55 501.407,1447.53 503.986,1447.5 506.564,1447.47 509.143,1447.44 
  511.721,1447.4 514.299,1447.37 516.878,1447.33 519.456,1447.28 522.035,1447.24 524.613,1447.19 527.192,1447.14 529.77,1447.08 532.349,1447.02 534.927,1446.96 
  537.506,1446.89 540.084,1446.82 542.663,1446.74 545.241,1446.65 547.82,1446.57 550.398,1446.47 552.977,1446.37 555.555,1446.26 558.134,1446.15 560.712,1446.02 
  563.291,1445.89 565.869,1445.75 568.448,1445.61 571.026,1445.45 573.605,1445.28 576.183,1445.1 578.762,1444.92 581.34,1444.72 583.918,1444.5 586.497,1444.28 
  589.075,1444.04 591.654,1443.79 594.232,1443.52 596.811,1443.24 599.389,1442.94 601.968,1442.62 604.546,1442.29 607.125,1441.93 609.703,1441.56 612.282,1441.17 
  614.86,1440.75 617.439,1440.31 620.017,1439.85 622.596,1439.36 625.174,1438.85 627.753,1438.31 630.331,1437.74 632.91,1437.14 635.488,1436.51 638.067,1435.85 
  640.645,1435.15 643.224,1434.42 645.802,1433.65 648.38,1432.85 650.959,1432.01 653.537,1431.12 656.116,1430.2 658.694,1429.23 661.273,1428.21 663.851,1427.15 
  666.43,1426.04 669.008,1424.88 671.587,1423.67 674.165,1422.4 676.744,1421.08 679.322,1419.7 681.901,1418.26 684.479,1416.76 687.058,1415.2 689.636,1413.57 
  692.215,1411.88 694.793,1410.12 697.372,1408.28 699.95,1406.38 702.529,1404.4 705.107,1402.34 707.686,1400.21 710.264,1398 712.842,1395.7 715.421,1393.32 
  717.999,1390.86 720.578,1388.3 723.156,1385.66 725.735,1382.93 728.313,1380.1 730.892,1377.18 733.47,1374.16 736.049,1371.05 738.627,1367.83 741.206,1364.51 
  743.784,1361.09 746.363,1357.57 748.941,1353.94 751.52,1350.21 754.098,1346.36 756.677,1342.41 759.255,1338.35 761.834,1334.17 764.412,1329.89 766.991,1325.49 
  769.569,1320.98 772.148,1316.35 774.726,1311.61 777.304,1306.76 779.883,1301.79 782.461,1296.71 785.04,1291.51 787.618,1286.2 790.197,1280.78 792.775,1275.24 
  795.354,1269.59 797.932,1263.83 800.511,1257.96 803.089,1251.98 805.668,1245.89 808.246,1239.7 810.825,1233.4 813.403,1227.01 815.982,1220.51 818.56,1213.91 
  821.139,1207.22 823.717,1200.43 826.296,1193.56 828.874,1186.6 831.453,1179.56 834.031,1172.44 836.61,1165.24 839.188,1157.97 841.766,1150.63 844.345,1143.22 
  846.923,1135.76 849.502,1128.24 852.08,1120.68 854.659,1113.06 857.237,1105.41 859.816,1097.72 862.394,1090.01 864.973,1082.27 867.551,1074.51 870.13,1066.73 
  872.708,1058.96 875.287,1051.18 877.865,1043.41 880.444,1035.65 883.022,1027.91 885.601,1020.2 888.179,1012.52 890.758,1004.88 893.336,997.281 895.915,989.739 
  898.493,982.257 901.072,974.842 903.65,967.501 906.228,960.241 908.807,953.069 911.385,945.993 913.964,939.019 916.542,932.154 919.121,925.406 921.699,918.781 
  924.278,912.287 926.856,905.93 929.435,899.716 932.013,893.653 934.592,887.747 937.17,882.005 939.749,876.432 942.327,871.035 944.906,865.82 947.484,860.793 
  950.063,855.959 952.641,851.324 955.22,846.893 957.798,842.671 960.377,838.664 962.955,834.875 965.534,831.309 968.112,827.971 970.69,824.864 973.269,821.991 
  975.847,819.357 978.426,816.964 981.004,814.815 983.583,812.913 986.161,811.26 988.74,809.858 991.318,808.709 993.897,807.813 996.475,807.173 999.054,806.788 
  1001.63,806.66 1004.21,806.788 1006.79,807.173 1009.37,807.813 1011.95,808.709 1014.52,809.858 1017.1,811.26 1019.68,812.913 1022.26,814.815 1024.84,816.964 
  1027.42,819.357 1030,821.991 1032.57,824.864 1035.15,827.971 1037.73,831.309 1040.31,834.875 1042.89,838.664 1045.47,842.671 1048.04,846.893 1050.62,851.324 
  1053.2,855.959 1055.78,860.792 1058.36,865.82 1060.94,871.035 1063.52,876.431 1066.09,882.004 1068.67,887.747 1071.25,893.653 1073.83,899.716 1076.41,905.929 
  1078.99,912.286 1081.57,918.781 1084.14,925.405 1086.72,932.153 1089.3,939.018 1091.88,945.992 1094.46,953.068 1097.04,960.239 1099.61,967.499 1102.19,974.84 
  1104.77,982.255 1107.35,989.737 1109.93,997.279 1112.51,1004.87 1115.09,1012.52 1117.66,1020.2 1120.24,1027.91 1122.82,1035.65 1125.4,1043.41 1127.98,1051.18 
  1130.56,1058.95 1133.13,1066.73 1135.71,1074.5 1138.29,1082.26 1140.87,1090 1143.45,1097.72 1146.03,1105.4 1148.61,1113.05 1151.18,1120.67 1153.76,1128.23 
  1156.34,1135.75 1158.92,1143.21 1161.5,1150.61 1164.08,1157.95 1166.65,1165.22 1169.23,1172.41 1171.81,1179.54 1174.39,1186.58 1176.97,1193.53 1179.55,1200.4 
  1182.13,1207.19 1184.7,1213.87 1187.28,1220.47 1189.86,1226.96 1192.44,1233.36 1195.02,1239.65 1197.6,1245.84 1200.18,1251.92 1202.75,1257.89 1205.33,1263.76 
  1207.91,1269.51 1210.49,1275.15 1213.07,1280.68 1215.65,1286.1 1218.22,1291.4 1220.8,1296.59 1223.38,1301.66 1225.96,1306.61 1228.54,1311.45 1231.12,1316.18 
  1233.7,1320.79 1236.27,1325.28 1238.85,1329.66 1241.43,1333.93 1244.01,1338.08 1246.59,1342.12 1249.17,1346.05 1251.74,1349.87 1254.32,1353.58 1256.9,1357.17 
  1259.48,1360.66 1262.06,1364.05 1264.64,1367.33 1267.22,1370.5 1269.79,1373.57 1272.37,1376.54 1274.95,1379.41 1277.53,1382.18 1280.11,1384.85 1282.69,1387.43 
  1285.27,1389.92 1287.84,1392.31 1290.42,1394.61 1293,1396.82 1295.58,1398.94 1298.16,1400.98 1300.74,1402.93 1303.31,1404.8 1305.89,1406.58 1308.47,1408.29 
  1311.05,1409.91 1313.63,1411.46 1316.21,1412.93 1318.79,1414.33 1321.36,1415.65 1323.94,1416.89 1326.52,1418.07 1329.1,1419.18 1331.68,1420.21 1334.26,1421.18 
  1336.83,1422.08 1339.41,1422.91 1341.99,1423.68 1344.57,1424.38 1347.15,1425.02 1349.73,1425.59 1352.31,1426.09 1354.88,1426.54 1357.46,1426.92 1360.04,1427.23 
  1362.62,1427.49 1365.2,1427.68 1367.78,1427.8 1370.35,1427.87 1372.93,1427.87 1375.51,1427.8 1378.09,1427.68 1380.67,1427.48 1383.25,1427.22 1385.83,1426.9 
  1388.4,1426.5 1390.98,1426.04 1393.56,1425.51 1396.14,1424.91 1398.72,1424.23 1401.3,1423.49 1403.88,1422.67 1406.45,1421.77 1409.03,1420.79 1411.61,1419.73 
  1414.19,1418.6 1416.77,1417.37 1419.35,1416.07 1421.92,1414.67 1424.5,1413.18 1427.08,1411.61 1429.66,1409.93 1432.24,1408.16 1434.82,1406.29 1437.4,1404.31 
  1439.97,1402.23 1442.55,1400.04 1445.13,1397.74 1447.71,1395.32 1450.29,1392.78 1452.87,1390.12 1455.44,1387.34 1458.02,1384.43 1460.6,1381.39 1463.18,1378.22 
  1465.76,1374.9 1468.34,1371.44 1470.92,1367.84 1473.49,1364.09 1476.07,1360.19 1478.65,1356.13 1481.23,1351.91 1483.81,1347.53 1486.39,1342.98 1488.97,1338.26 
  1491.54,1333.37 1494.12,1328.3 1496.7,1323.04 1499.28,1317.61 1501.86,1311.98 1504.44,1306.17 1507.01,1300.15 1509.59,1293.95 1512.17,1287.54 1514.75,1280.92 
  1517.33,1274.1 1519.91,1267.07 1522.49,1259.83 1525.06,1252.37 1527.64,1244.7 1530.22,1236.8 1532.8,1228.69 1535.38,1220.35 1537.96,1211.79 1540.53,1203 
  1543.11,1193.99 1545.69,1184.75 1548.27,1175.27 1550.85,1165.57 1553.43,1155.64 1556.01,1145.48 1558.58,1135.1 1561.16,1124.48 1563.74,1113.64 1566.32,1102.57 
  1568.9,1091.27 1571.48,1079.75 1574.05,1068.02 1576.63,1056.06 1579.21,1043.89 1581.79,1031.5 1584.37,1018.91 1586.95,1006.12 1589.53,993.121 1592.1,979.93 
  1594.68,966.548 1597.26,952.981 1599.84,939.236 1602.42,925.317 1605,911.232 1607.58,896.987 1610.15,882.591 1612.73,868.05 1615.31,853.372 1617.89,838.567 
  1620.47,823.643 1623.05,808.609 1625.62,793.474 1628.2,778.249 1630.78,762.944 1633.36,747.569 1635.94,732.135 1638.52,716.654 1641.1,701.136 1643.67,685.594 
  1646.25,670.04 1648.83,654.486 1651.41,638.944 1653.99,623.428 1656.57,607.95 1659.14,592.523 1661.72,577.162 1664.3,561.879 1666.88,546.689 1669.46,531.604 
  1672.04,516.64 1674.62,501.81 1677.19,487.127 1679.77,472.608 1682.35,458.264 1684.93,444.112 1687.51,430.164 1690.09,416.435 1692.66,402.939 1695.24,389.689 
  1697.82,376.7 1700.4,363.986 1702.98,351.559 1705.56,339.433 1708.14,327.621 1710.71,316.136 1713.29,304.99 1715.87,294.197 1718.45,283.767 1721.03,273.712 
  1723.61,264.045 1726.19,254.775 1728.76,245.913 1731.34,237.47 1733.92,229.455 1736.5,221.877 1739.08,214.746 1741.66,208.069 1744.23,201.854 1746.81,196.109 
  1749.39,190.841 1751.97,186.055 1754.55,181.757 1757.13,177.953 1759.71,174.647 1762.28,171.843 1764.86,169.544 1767.44,167.753 1770.02,166.473 1772.6,165.703 
  1775.18,165.447 1777.75,165.703 1780.33,166.473 1782.91,167.753 1785.49,169.544 1788.07,171.843 1790.65,174.647 1793.23,177.953 1795.8,181.757 1798.38,186.055 
  1800.96,190.841 1803.54,196.109 1806.12,201.854 1808.7,208.069 1811.28,214.746 1813.85,221.877 1816.43,229.455 1819.01,237.47 1821.59,245.913 1824.17,254.775 
  1826.75,264.045 1829.32,273.712 1831.9,283.767 1834.48,294.197 1837.06,304.991 1839.64,316.136 1842.22,327.621 1844.8,339.433 1847.37,351.559 1849.95,363.986 
  1852.53,376.701 1855.11,389.69 1857.69,402.939 1860.27,416.435 1862.84,430.164 1865.42,444.112 1868,458.265 1870.58,472.608 1873.16,487.128 1875.74,501.81 
  1878.32,516.641 1880.89,531.605 1883.47,546.69 1886.05,561.88 1888.63,577.163 1891.21,592.525 1893.79,607.951 1896.36,623.429 1898.94,638.946 1901.52,654.488 
  1904.1,670.042 1906.68,685.597 1909.26,701.139 1911.84,716.657 1914.41,732.139 1916.99,747.573 1919.57,762.948 1922.15,778.254 1924.73,793.48 1927.31,808.615 
  1929.89,823.649 1932.46,838.574 1935.04,853.38 1937.62,868.058 1940.2,882.6 1942.78,896.998 1945.36,911.243 1947.93,925.329 1950.51,939.249 1953.09,952.996 
  1955.67,966.564 1958.25,979.948 1960.83,993.141 1963.41,1006.14 1965.98,1018.94 1968.56,1031.53 1971.14,1043.92 1973.72,1056.09 1976.3,1068.05 1978.88,1079.79 
  1981.45,1091.31 1984.03,1102.61 1986.61,1113.68 1989.19,1124.53 1991.77,1135.15 1994.35,1145.55 1996.93,1155.71 1999.5,1165.65 2002.08,1175.35 2004.66,1184.83 
  2007.24,1194.08 2009.82,1203.11 2012.4,1211.9 2014.97,1220.47 2017.55,1228.82 2020.13,1236.95 2022.71,1244.85 2025.29,1252.54 2027.87,1260.01 2030.45,1267.27 
  2033.02,1274.32 2035.6,1281.15 2038.18,1287.79 2040.76,1294.22 2043.34,1300.45 2045.92,1306.48 2048.5,1312.33 2051.07,1317.98 2053.65,1323.45 2056.23,1328.73 
  2058.81,1333.84 2061.39,1338.77 2063.97,1343.53 2066.54,1348.12 2069.12,1352.55 2071.7,1356.81 2074.28,1360.93 2076.86,1364.88 2079.44,1368.69 2082.02,1372.36 
  2084.59,1375.88 2087.17,1379.27 2089.75,1382.53 2092.33,1385.65 2094.91,1388.65 2097.49,1391.53 2100.06,1394.29 2102.64,1396.93 2105.22,1399.46 2107.8,1401.89 
  2110.38,1404.21 2112.96,1406.43 2115.54,1408.55 2118.11,1410.58 2120.69,1412.52 2123.27,1414.37 2125.85,1416.14 2128.43,1417.83 2131.01,1419.44 2133.59,1420.97 
  2136.16,1422.43 2138.74,1423.82 2141.32,1425.14 2143.9,1426.4 2146.48,1427.6 2149.06,1428.74 2151.63,1429.82 2154.21,1430.85 2156.79,1431.82 2159.37,1432.75 
  2161.95,1433.63 2164.53,1434.46 2167.11,1435.25 2169.68,1435.99 2172.26,1436.7 2174.84,1437.37 2177.42,1438 2180,1438.6 2182.58,1439.17 2185.15,1439.7 
  2187.73,1440.21 2190.31,1440.69 2192.89,1441.14 2195.47,1441.56 2198.05,1441.96 2200.63,1442.34 2203.2,1442.69 2205.78,1443.02 2208.36,1443.34 2210.94,1443.63 
  2213.52,1443.91 2216.1,1444.17 2218.67,1444.42 2221.25,1444.65 2223.83,1444.86 2226.41,1445.07 2228.99,1445.26 2231.57,1445.44 2234.15,1445.6 2236.72,1445.76 
  2239.3,1445.91 2241.88,1446.04 2244.46,1446.17 2247.04,1446.29 2249.62,1446.4 2252.2,1446.51 2254.77,1446.61 2257.35,1446.7 2259.93,1446.78 2262.51,1446.86 
  2265.09,1446.93 2267.67,1447 2270.24,1447.07 2272.82,1447.13 2275.4,1447.18 2277.98,1447.23 2280.56,1447.28 2283.14,1447.33 2285.72,1447.37 2288.29,1447.41 
  2290.87,1447.44 
  "/>
<path clip-path="url(#clip140)" d="
M1925.95 350.345 L2279.87 350.345 L2279.87 168.905 L1925.95 168.905  Z
  " fill="#ffffff" fill-rule="evenodd" fill-opacity="1"/>
<polyline clip-path="url(#clip140)" style="stroke:#000000; stroke-width:4; stroke-opacity:1; fill:none" points="
  1925.95,350.345 2279.87,350.345 2279.87,168.905 1925.95,168.905 1925.95,350.345 
  "/>
<polyline clip-path="url(#clip140)" style="stroke:#009af9; stroke-width:4; stroke-opacity:1; fill:none" points="
  1950.24,229.385 2096.01,229.385 
  "/>
<path clip-path="url(#clip140)" d="M 0 0 M2124.99 215.947 L2124.99 242.822 L2130.63 242.822 Q2137.79 242.822 2141.1 239.581 Q2144.43 236.341 2144.43 229.35 Q2144.43 222.406 2141.1 219.188 Q2137.79 215.947 2130.63 215.947 L2124.99 215.947 M2120.31 212.105 L2129.92 212.105 Q2139.96 212.105 2144.66 216.294 Q2149.36 220.461 2149.36 229.35 Q2149.36 238.285 2144.64 242.475 Q2139.92 246.665 2129.92 246.665 L2120.31 246.665 L2120.31 212.105 Z" fill="#000000" fill-rule="evenodd" fill-opacity="1" /><path clip-path="url(#clip140)" d="M 0 0 M2165.61 233.632 Q2160.45 233.632 2158.46 234.813 Q2156.47 235.993 2156.47 238.841 Q2156.47 241.109 2157.95 242.452 Q2159.45 243.771 2162.02 243.771 Q2165.56 243.771 2167.69 241.271 Q2169.85 238.748 2169.85 234.581 L2169.85 233.632 L2165.61 233.632 M2174.11 231.873 L2174.11 246.665 L2169.85 246.665 L2169.85 242.729 Q2168.39 245.091 2166.21 246.225 Q2164.04 247.336 2160.89 247.336 Q2156.91 247.336 2154.55 245.114 Q2152.21 242.868 2152.21 239.118 Q2152.21 234.743 2155.12 232.521 Q2158.06 230.299 2163.87 230.299 L2169.85 230.299 L2169.85 229.882 Q2169.85 226.943 2167.9 225.345 Q2165.98 223.725 2162.48 223.725 Q2160.26 223.725 2158.16 224.257 Q2156.05 224.79 2154.11 225.855 L2154.11 221.919 Q2156.44 221.017 2158.64 220.577 Q2160.84 220.114 2162.92 220.114 Q2168.55 220.114 2171.33 223.031 Q2174.11 225.947 2174.11 231.873 Z" fill="#000000" fill-rule="evenodd" fill-opacity="1" /><path clip-path="url(#clip140)" d="M 0 0 M2182.79 213.378 L2182.79 220.739 L2191.56 220.739 L2191.56 224.049 L2182.79 224.049 L2182.79 238.123 Q2182.79 241.294 2183.64 242.197 Q2184.52 243.1 2187.18 243.1 L2191.56 243.1 L2191.56 246.665 L2187.18 246.665 Q2182.25 246.665 2180.38 244.836 Q2178.5 242.984 2178.5 238.123 L2178.5 224.049 L2175.38 224.049 L2175.38 220.739 L2178.5 220.739 L2178.5 213.378 L2182.79 213.378 Z" fill="#000000" fill-rule="evenodd" fill-opacity="1" /><path clip-path="url(#clip140)" d="M 0 0 M2207.81 233.632 Q2202.65 233.632 2200.66 234.813 Q2198.67 235.993 2198.67 238.841 Q2198.67 241.109 2200.15 242.452 Q2201.65 243.771 2204.22 243.771 Q2207.76 243.771 2209.89 241.271 Q2212.04 238.748 2212.04 234.581 L2212.04 233.632 L2207.81 233.632 M2216.3 231.873 L2216.3 246.665 L2212.04 246.665 L2212.04 242.729 Q2210.59 245.091 2208.41 246.225 Q2206.23 247.336 2203.09 247.336 Q2199.11 247.336 2196.74 245.114 Q2194.41 242.868 2194.41 239.118 Q2194.41 234.743 2197.32 232.521 Q2200.26 230.299 2206.07 230.299 L2212.04 230.299 L2212.04 229.882 Q2212.04 226.943 2210.1 225.345 Q2208.18 223.725 2204.68 223.725 Q2202.46 223.725 2200.36 224.257 Q2198.25 224.79 2196.3 225.855 L2196.3 221.919 Q2198.64 221.017 2200.84 220.577 Q2203.04 220.114 2205.12 220.114 Q2210.75 220.114 2213.53 223.031 Q2216.3 225.947 2216.3 231.873 Z" fill="#000000" fill-rule="evenodd" fill-opacity="1" /><polyline clip-path="url(#clip140)" style="stroke:#e26f46; stroke-width:4; stroke-opacity:1; fill:none" points="
  1950.24,289.865 2096.01,289.865 
  "/>
<path clip-path="url(#clip140)" d="M 0 0 M2120.31 272.585 L2149.55 272.585 L2149.55 276.52 L2137.28 276.52 L2137.28 307.145 L2132.58 307.145 L2132.58 276.52 L2120.31 276.52 L2120.31 272.585 Z" fill="#000000" fill-rule="evenodd" fill-opacity="1" /><path clip-path="url(#clip140)" d="M 0 0 M2162.07 285.2 Q2161.35 284.784 2160.49 284.598 Q2159.66 284.39 2158.64 284.39 Q2155.03 284.39 2153.09 286.751 Q2151.17 289.089 2151.17 293.487 L2151.17 307.145 L2146.88 307.145 L2146.88 281.219 L2151.17 281.219 L2151.17 285.247 Q2152.51 282.886 2154.66 281.751 Q2156.81 280.594 2159.89 280.594 Q2160.33 280.594 2160.86 280.663 Q2161.4 280.71 2162.05 280.825 L2162.07 285.2 Z" fill="#000000" fill-rule="evenodd" fill-opacity="1" /><path clip-path="url(#clip140)" d="M 0 0 M2166.1 296.913 L2166.1 281.219 L2170.36 281.219 L2170.36 296.751 Q2170.36 300.432 2171.79 302.284 Q2173.23 304.112 2176.1 304.112 Q2179.55 304.112 2181.54 301.913 Q2183.55 299.714 2183.55 295.918 L2183.55 281.219 L2187.81 281.219 L2187.81 307.145 L2183.55 307.145 L2183.55 303.163 Q2182 305.524 2179.94 306.682 Q2177.9 307.816 2175.19 307.816 Q2170.73 307.816 2168.41 305.038 Q2166.1 302.26 2166.1 296.913 M2176.81 280.594 L2176.81 280.594 Z" fill="#000000" fill-rule="evenodd" fill-opacity="1" /><path clip-path="url(#clip140)" d="M 0 0 M2196.49 273.858 L2196.49 281.219 L2205.26 281.219 L2205.26 284.529 L2196.49 284.529 L2196.49 298.603 Q2196.49 301.774 2197.35 302.677 Q2198.23 303.58 2200.89 303.58 L2205.26 303.58 L2205.26 307.145 L2200.89 307.145 Q2195.96 307.145 2194.08 305.316 Q2192.21 303.464 2192.21 298.603 L2192.21 284.529 L2189.08 284.529 L2189.08 281.219 L2192.21 281.219 L2192.21 273.858 L2196.49 273.858 Z" fill="#000000" fill-rule="evenodd" fill-opacity="1" /><path clip-path="url(#clip140)" d="M 0 0 M2231.28 291.497 L2231.28 307.145 L2227.02 307.145 L2227.02 291.635 Q2227.02 287.955 2225.59 286.126 Q2224.15 284.298 2221.28 284.298 Q2217.83 284.298 2215.84 286.497 Q2213.85 288.696 2213.85 292.492 L2213.85 307.145 L2209.57 307.145 L2209.57 271.126 L2213.85 271.126 L2213.85 285.247 Q2215.38 282.909 2217.44 281.751 Q2219.52 280.594 2222.23 280.594 Q2226.7 280.594 2228.99 283.372 Q2231.28 286.126 2231.28 291.497 Z" fill="#000000" fill-rule="evenodd" fill-opacity="1" /></svg>
