<?xml version="1.0" encoding="utf-8"?>
<svg xmlns="http://www.w3.org/2000/svg" xmlns:xlink="http://www.w3.org/1999/xlink" width="600" height="400" viewBox="0 0 2400 1600">
<defs>
  <clipPath id="clip940">
    <rect x="0" y="0" width="2400" height="1600"/>
  </clipPath>
</defs>
<path clip-path="url(#clip940)" d="M0 1600 L2400 1600 L2400 0 L0 0  Z" fill="#ffffff" fill-rule="evenodd" fill-opacity="1"/>
<defs>
  <clipPath id="clip941">
    <rect x="480" y="0" width="1681" height="1600"/>
  </clipPath>
</defs>
<path clip-path="url(#clip940)" d="M172.015 1486.45 L2352.76 1486.45 L2352.76 123.472 L172.015 123.472  Z" fill="#ffffff" fill-rule="evenodd" fill-opacity="1"/>
<defs>
  <clipPath id="clip942">
    <rect x="172" y="123" width="2182" height="1364"/>
  </clipPath>
</defs>
<polyline clip-path="url(#clip942)" style="stroke:#000000; stroke-linecap:round; stroke-linejoin:round; stroke-width:2; stroke-opacity:0.1; fill:none" points="233.734,1486.45 233.734,123.472 "/>
<polyline clip-path="url(#clip942)" style="stroke:#000000; stroke-linecap:round; stroke-linejoin:round; stroke-width:2; stroke-opacity:0.1; fill:none" points="576.618,1486.45 576.618,123.472 "/>
<polyline clip-path="url(#clip942)" style="stroke:#000000; stroke-linecap:round; stroke-linejoin:round; stroke-width:2; stroke-opacity:0.1; fill:none" points="919.502,1486.45 919.502,123.472 "/>
<polyline clip-path="url(#clip942)" style="stroke:#000000; stroke-linecap:round; stroke-linejoin:round; stroke-width:2; stroke-opacity:0.1; fill:none" points="1262.39,1486.45 1262.39,123.472 "/>
<polyline clip-path="url(#clip942)" style="stroke:#000000; stroke-linecap:round; stroke-linejoin:round; stroke-width:2; stroke-opacity:0.1; fill:none" points="1605.27,1486.45 1605.27,123.472 "/>
<polyline clip-path="url(#clip942)" style="stroke:#000000; stroke-linecap:round; stroke-linejoin:round; stroke-width:2; stroke-opacity:0.1; fill:none" points="1948.15,1486.45 1948.15,123.472 "/>
<polyline clip-path="url(#clip942)" style="stroke:#000000; stroke-linecap:round; stroke-linejoin:round; stroke-width:2; stroke-opacity:0.1; fill:none" points="2291.04,1486.45 2291.04,123.472 "/>
<polyline clip-path="url(#clip942)" style="stroke:#000000; stroke-linecap:round; stroke-linejoin:round; stroke-width:2; stroke-opacity:0.1; fill:none" points="172.015,1447.87 2352.76,1447.87 "/>
<polyline clip-path="url(#clip942)" style="stroke:#000000; stroke-linecap:round; stroke-linejoin:round; stroke-width:2; stroke-opacity:0.1; fill:none" points="172.015,1134.26 2352.76,1134.26 "/>
<polyline clip-path="url(#clip942)" style="stroke:#000000; stroke-linecap:round; stroke-linejoin:round; stroke-width:2; stroke-opacity:0.1; fill:none" points="172.015,820.641 2352.76,820.641 "/>
<polyline clip-path="url(#clip942)" style="stroke:#000000; stroke-linecap:round; stroke-linejoin:round; stroke-width:2; stroke-opacity:0.1; fill:none" points="172.015,507.025 2352.76,507.025 "/>
<polyline clip-path="url(#clip942)" style="stroke:#000000; stroke-linecap:round; stroke-linejoin:round; stroke-width:2; stroke-opacity:0.1; fill:none" points="172.015,193.409 2352.76,193.409 "/>
<polyline clip-path="url(#clip940)" style="stroke:#000000; stroke-linecap:round; stroke-linejoin:round; stroke-width:4; stroke-opacity:1; fill:none" points="172.015,1486.45 2352.76,1486.45 "/>
<polyline clip-path="url(#clip940)" style="stroke:#000000; stroke-linecap:round; stroke-linejoin:round; stroke-width:4; stroke-opacity:1; fill:none" points="233.734,1486.45 233.734,1467.55 "/>
<polyline clip-path="url(#clip940)" style="stroke:#000000; stroke-linecap:round; stroke-linejoin:round; stroke-width:4; stroke-opacity:1; fill:none" points="576.618,1486.45 576.618,1467.55 "/>
<polyline clip-path="url(#clip940)" style="stroke:#000000; stroke-linecap:round; stroke-linejoin:round; stroke-width:4; stroke-opacity:1; fill:none" points="919.502,1486.45 919.502,1467.55 "/>
<polyline clip-path="url(#clip940)" style="stroke:#000000; stroke-linecap:round; stroke-linejoin:round; stroke-width:4; stroke-opacity:1; fill:none" points="1262.39,1486.45 1262.39,1467.55 "/>
<polyline clip-path="url(#clip940)" style="stroke:#000000; stroke-linecap:round; stroke-linejoin:round; stroke-width:4; stroke-opacity:1; fill:none" points="1605.27,1486.45 1605.27,1467.55 "/>
<polyline clip-path="url(#clip940)" style="stroke:#000000; stroke-linecap:round; stroke-linejoin:round; stroke-width:4; stroke-opacity:1; fill:none" points="1948.15,1486.45 1948.15,1467.55 "/>
<polyline clip-path="url(#clip940)" style="stroke:#000000; stroke-linecap:round; stroke-linejoin:round; stroke-width:4; stroke-opacity:1; fill:none" points="2291.04,1486.45 2291.04,1467.55 "/>
<path clip-path="url(#clip940)" d="M203.676 1532.02 L233.352 1532.02 L233.352 1535.95 L203.676 1535.95 L203.676 1532.02 Z" fill="#000000" fill-rule="nonzero" fill-opacity="1" /><path clip-path="url(#clip940)" d="M247.472 1544.91 L263.792 1544.91 L263.792 1548.85 L241.847 1548.85 L241.847 1544.91 Q244.509 1542.16 249.093 1537.53 Q253.699 1532.88 254.88 1531.53 Q257.125 1529.01 258.005 1527.27 Q258.907 1525.51 258.907 1523.82 Q258.907 1521.07 256.963 1519.33 Q255.042 1517.6 251.94 1517.6 Q249.741 1517.6 247.287 1518.36 Q244.857 1519.13 242.079 1520.68 L242.079 1515.95 Q244.903 1514.82 247.357 1514.24 Q249.81 1513.66 251.847 1513.66 Q257.218 1513.66 260.412 1516.35 Q263.606 1519.03 263.606 1523.52 Q263.606 1525.65 262.796 1527.57 Q262.009 1529.47 259.903 1532.07 Q259.324 1532.74 256.222 1535.95 Q253.12 1539.15 247.472 1544.91 Z" fill="#000000" fill-rule="nonzero" fill-opacity="1" /><path clip-path="url(#clip940)" d="M546.375 1532.02 L576.051 1532.02 L576.051 1535.95 L546.375 1535.95 L546.375 1532.02 Z" fill="#000000" fill-rule="nonzero" fill-opacity="1" /><path clip-path="url(#clip940)" d="M586.953 1544.91 L594.592 1544.91 L594.592 1518.55 L586.282 1520.21 L586.282 1515.95 L594.546 1514.29 L599.222 1514.29 L599.222 1544.91 L606.861 1544.91 L606.861 1548.85 L586.953 1548.85 L586.953 1544.91 Z" fill="#000000" fill-rule="nonzero" fill-opacity="1" /><path clip-path="url(#clip940)" d="M919.502 1517.37 Q915.89 1517.37 914.062 1520.93 Q912.256 1524.47 912.256 1531.6 Q912.256 1538.71 914.062 1542.27 Q915.89 1545.82 919.502 1545.82 Q923.136 1545.82 924.941 1542.27 Q926.77 1538.71 926.77 1531.6 Q926.77 1524.47 924.941 1520.93 Q923.136 1517.37 919.502 1517.37 M919.502 1513.66 Q925.312 1513.66 928.367 1518.27 Q931.446 1522.85 931.446 1531.6 Q931.446 1540.33 928.367 1544.94 Q925.312 1549.52 919.502 1549.52 Q913.691 1549.52 910.613 1544.94 Q907.557 1540.33 907.557 1531.6 Q907.557 1522.85 910.613 1518.27 Q913.691 1513.66 919.502 1513.66 Z" fill="#000000" fill-rule="nonzero" fill-opacity="1" /><path clip-path="url(#clip940)" d="M1252.77 1544.91 L1260.41 1544.91 L1260.41 1518.55 L1252.1 1520.21 L1252.1 1515.95 L1260.36 1514.29 L1265.04 1514.29 L1265.04 1544.91 L1272.67 1544.91 L1272.67 1548.85 L1252.77 1548.85 L1252.77 1544.91 Z" fill="#000000" fill-rule="nonzero" fill-opacity="1" /><path clip-path="url(#clip940)" d="M1599.92 1544.91 L1616.24 1544.91 L1616.24 1548.85 L1594.3 1548.85 L1594.3 1544.91 Q1596.96 1542.16 1601.54 1537.53 Q1606.15 1532.88 1607.33 1531.53 Q1609.57 1529.01 1610.45 1527.27 Q1611.36 1525.51 1611.36 1523.82 Q1611.36 1521.07 1609.41 1519.33 Q1607.49 1517.6 1604.39 1517.6 Q1602.19 1517.6 1599.74 1518.36 Q1597.31 1519.13 1594.53 1520.68 L1594.53 1515.95 Q1597.35 1514.82 1599.81 1514.24 Q1602.26 1513.66 1604.3 1513.66 Q1609.67 1513.66 1612.86 1516.35 Q1616.06 1519.03 1616.06 1523.52 Q1616.06 1525.65 1615.25 1527.57 Q1614.46 1529.47 1612.35 1532.07 Q1611.77 1532.74 1608.67 1535.95 Q1605.57 1539.15 1599.92 1544.91 Z" fill="#000000" fill-rule="nonzero" fill-opacity="1" /><path clip-path="url(#clip940)" d="M1952.4 1530.21 Q1955.76 1530.93 1957.63 1533.2 Q1959.53 1535.47 1959.53 1538.8 Q1959.53 1543.92 1956.01 1546.72 Q1952.49 1549.52 1946.01 1549.52 Q1943.84 1549.52 1941.52 1549.08 Q1939.23 1548.66 1936.78 1547.81 L1936.78 1543.29 Q1938.72 1544.43 1941.03 1545.01 Q1943.35 1545.58 1945.87 1545.58 Q1950.27 1545.58 1952.56 1543.85 Q1954.88 1542.11 1954.88 1538.8 Q1954.88 1535.75 1952.72 1534.03 Q1950.6 1532.3 1946.78 1532.3 L1942.75 1532.3 L1942.75 1528.45 L1946.96 1528.45 Q1950.41 1528.45 1952.24 1527.09 Q1954.07 1525.7 1954.07 1523.11 Q1954.07 1520.45 1952.17 1519.03 Q1950.29 1517.6 1946.78 1517.6 Q1944.85 1517.6 1942.66 1518.01 Q1940.46 1518.43 1937.82 1519.31 L1937.82 1515.14 Q1940.48 1514.4 1942.79 1514.03 Q1945.13 1513.66 1947.19 1513.66 Q1952.52 1513.66 1955.62 1516.09 Q1958.72 1518.5 1958.72 1522.62 Q1958.72 1525.49 1957.08 1527.48 Q1955.43 1529.45 1952.4 1530.21 Z" fill="#000000" fill-rule="nonzero" fill-opacity="1" /><path clip-path="url(#clip940)" d="M2294.05 1518.36 L2282.24 1536.81 L2294.05 1536.81 L2294.05 1518.36 M2292.82 1514.29 L2298.7 1514.29 L2298.7 1536.81 L2303.63 1536.81 L2303.63 1540.7 L2298.7 1540.7 L2298.7 1548.85 L2294.05 1548.85 L2294.05 1540.7 L2278.44 1540.7 L2278.44 1536.19 L2292.82 1514.29 Z" fill="#000000" fill-rule="nonzero" fill-opacity="1" /><polyline clip-path="url(#clip940)" style="stroke:#000000; stroke-linecap:round; stroke-linejoin:round; stroke-width:4; stroke-opacity:1; fill:none" points="172.015,1486.45 172.015,123.472 "/>
<polyline clip-path="url(#clip940)" style="stroke:#000000; stroke-linecap:round; stroke-linejoin:round; stroke-width:4; stroke-opacity:1; fill:none" points="172.015,1447.87 190.912,1447.87 "/>
<polyline clip-path="url(#clip940)" style="stroke:#000000; stroke-linecap:round; stroke-linejoin:round; stroke-width:4; stroke-opacity:1; fill:none" points="172.015,1134.26 190.912,1134.26 "/>
<polyline clip-path="url(#clip940)" style="stroke:#000000; stroke-linecap:round; stroke-linejoin:round; stroke-width:4; stroke-opacity:1; fill:none" points="172.015,820.641 190.912,820.641 "/>
<polyline clip-path="url(#clip940)" style="stroke:#000000; stroke-linecap:round; stroke-linejoin:round; stroke-width:4; stroke-opacity:1; fill:none" points="172.015,507.025 190.912,507.025 "/>
<polyline clip-path="url(#clip940)" style="stroke:#000000; stroke-linecap:round; stroke-linejoin:round; stroke-width:4; stroke-opacity:1; fill:none" points="172.015,193.409 190.912,193.409 "/>
<path clip-path="url(#clip940)" d="M124.07 1433.67 Q120.459 1433.67 118.631 1437.24 Q116.825 1440.78 116.825 1447.91 Q116.825 1455.01 118.631 1458.58 Q120.459 1462.12 124.07 1462.12 Q127.705 1462.12 129.51 1458.58 Q131.339 1455.01 131.339 1447.91 Q131.339 1440.78 129.51 1437.24 Q127.705 1433.67 124.07 1433.67 M124.07 1429.97 Q129.881 1429.97 132.936 1434.57 Q136.015 1439.16 136.015 1447.91 Q136.015 1456.63 132.936 1461.24 Q129.881 1465.82 124.07 1465.82 Q118.26 1465.82 115.182 1461.24 Q112.126 1456.63 112.126 1447.91 Q112.126 1439.16 115.182 1434.57 Q118.26 1429.97 124.07 1429.97 Z" fill="#000000" fill-rule="nonzero" fill-opacity="1" /><path clip-path="url(#clip940)" d="M57.7745 1147.6 L74.0939 1147.6 L74.0939 1151.54 L52.1495 1151.54 L52.1495 1147.6 Q54.8115 1144.85 59.3949 1140.22 Q64.0013 1135.56 65.1819 1134.22 Q67.4272 1131.7 68.3068 1129.96 Q69.2096 1128.2 69.2096 1126.51 Q69.2096 1123.76 67.2652 1122.02 Q65.3439 1120.29 62.2421 1120.29 Q60.043 1120.29 57.5893 1121.05 Q55.1588 1121.81 52.381 1123.37 L52.381 1118.64 Q55.2051 1117.51 57.6588 1116.93 Q60.1124 1116.35 62.1495 1116.35 Q67.5198 1116.35 70.7142 1119.04 Q73.9087 1121.72 73.9087 1126.21 Q73.9087 1128.34 73.0985 1130.26 Q72.3115 1132.16 70.205 1134.75 Q69.6263 1135.43 66.5245 1138.64 Q63.4226 1141.84 57.7745 1147.6 Z" fill="#000000" fill-rule="nonzero" fill-opacity="1" /><path clip-path="url(#clip940)" d="M93.9086 1120.06 Q90.2975 1120.06 88.4688 1123.62 Q86.6632 1127.16 86.6632 1134.29 Q86.6632 1141.4 88.4688 1144.96 Q90.2975 1148.5 93.9086 1148.5 Q97.5428 1148.5 99.3483 1144.96 Q101.177 1141.4 101.177 1134.29 Q101.177 1127.16 99.3483 1123.62 Q97.5428 1120.06 93.9086 1120.06 M93.9086 1116.35 Q99.7187 1116.35 102.774 1120.96 Q105.853 1125.54 105.853 1134.29 Q105.853 1143.02 102.774 1147.62 Q99.7187 1152.21 93.9086 1152.21 Q88.0984 1152.21 85.0197 1147.62 Q81.9642 1143.02 81.9642 1134.29 Q81.9642 1125.54 85.0197 1120.96 Q88.0984 1116.35 93.9086 1116.35 Z" fill="#000000" fill-rule="nonzero" fill-opacity="1" /><path clip-path="url(#clip940)" d="M124.07 1120.06 Q120.459 1120.06 118.631 1123.62 Q116.825 1127.16 116.825 1134.29 Q116.825 1141.4 118.631 1144.96 Q120.459 1148.5 124.07 1148.5 Q127.705 1148.5 129.51 1144.96 Q131.339 1141.4 131.339 1134.29 Q131.339 1127.16 129.51 1123.62 Q127.705 1120.06 124.07 1120.06 M124.07 1116.35 Q129.881 1116.35 132.936 1120.96 Q136.015 1125.54 136.015 1134.29 Q136.015 1143.02 132.936 1147.62 Q129.881 1152.21 124.07 1152.21 Q118.26 1152.21 115.182 1147.62 Q112.126 1143.02 112.126 1134.29 Q112.126 1125.54 115.182 1120.96 Q118.26 1116.35 124.07 1116.35 Z" fill="#000000" fill-rule="nonzero" fill-opacity="1" /><path clip-path="url(#clip940)" d="M66.5939 807.435 L54.7884 825.884 L66.5939 825.884 L66.5939 807.435 M65.367 803.361 L71.2466 803.361 L71.2466 825.884 L76.1772 825.884 L76.1772 829.773 L71.2466 829.773 L71.2466 837.921 L66.5939 837.921 L66.5939 829.773 L50.9921 829.773 L50.9921 825.259 L65.367 803.361 Z" fill="#000000" fill-rule="nonzero" fill-opacity="1" /><path clip-path="url(#clip940)" d="M93.9086 806.439 Q90.2975 806.439 88.4688 810.004 Q86.6632 813.546 86.6632 820.676 Q86.6632 827.782 88.4688 831.347 Q90.2975 834.888 93.9086 834.888 Q97.5428 834.888 99.3483 831.347 Q101.177 827.782 101.177 820.676 Q101.177 813.546 99.3483 810.004 Q97.5428 806.439 93.9086 806.439 M93.9086 802.736 Q99.7187 802.736 102.774 807.342 Q105.853 811.926 105.853 820.676 Q105.853 829.402 102.774 834.009 Q99.7187 838.592 93.9086 838.592 Q88.0984 838.592 85.0197 834.009 Q81.9642 829.402 81.9642 820.676 Q81.9642 811.926 85.0197 807.342 Q88.0984 802.736 93.9086 802.736 Z" fill="#000000" fill-rule="nonzero" fill-opacity="1" /><path clip-path="url(#clip940)" d="M124.07 806.439 Q120.459 806.439 118.631 810.004 Q116.825 813.546 116.825 820.676 Q116.825 827.782 118.631 831.347 Q120.459 834.888 124.07 834.888 Q127.705 834.888 129.51 831.347 Q131.339 827.782 131.339 820.676 Q131.339 813.546 129.51 810.004 Q127.705 806.439 124.07 806.439 M124.07 802.736 Q129.881 802.736 132.936 807.342 Q136.015 811.926 136.015 820.676 Q136.015 829.402 132.936 834.009 Q129.881 838.592 124.07 838.592 Q118.26 838.592 115.182 834.009 Q112.126 829.402 112.126 820.676 Q112.126 811.926 115.182 807.342 Q118.26 802.736 124.07 802.736 Z" fill="#000000" fill-rule="nonzero" fill-opacity="1" /><path clip-path="url(#clip940)" d="M64.3254 505.161 Q61.1773 505.161 59.3254 507.314 Q57.4967 509.467 57.4967 513.217 Q57.4967 516.944 59.3254 519.12 Q61.1773 521.272 64.3254 521.272 Q67.4735 521.272 69.3022 519.12 Q71.1541 516.944 71.1541 513.217 Q71.1541 509.467 69.3022 507.314 Q67.4735 505.161 64.3254 505.161 M73.6077 490.509 L73.6077 494.768 Q71.8485 493.934 70.0429 493.495 Q68.2606 493.055 66.5013 493.055 Q61.8717 493.055 59.418 496.18 Q56.9875 499.305 56.6402 505.624 Q58.006 503.61 60.0662 502.546 Q62.1263 501.458 64.6032 501.458 Q69.8115 501.458 72.8207 504.629 Q75.8531 507.777 75.8531 513.217 Q75.8531 518.541 72.705 521.758 Q69.5568 524.976 64.3254 524.976 Q58.33 524.976 55.1588 520.393 Q51.9875 515.786 51.9875 507.059 Q51.9875 498.865 55.8764 494.004 Q59.7652 489.12 66.3161 489.12 Q68.0754 489.12 69.8578 489.467 Q71.6633 489.814 73.6077 490.509 Z" fill="#000000" fill-rule="nonzero" fill-opacity="1" /><path clip-path="url(#clip940)" d="M93.9086 492.823 Q90.2975 492.823 88.4688 496.388 Q86.6632 499.93 86.6632 507.059 Q86.6632 514.166 88.4688 517.731 Q90.2975 521.272 93.9086 521.272 Q97.5428 521.272 99.3483 517.731 Q101.177 514.166 101.177 507.059 Q101.177 499.93 99.3483 496.388 Q97.5428 492.823 93.9086 492.823 M93.9086 489.12 Q99.7187 489.12 102.774 493.726 Q105.853 498.309 105.853 507.059 Q105.853 515.786 102.774 520.393 Q99.7187 524.976 93.9086 524.976 Q88.0984 524.976 85.0197 520.393 Q81.9642 515.786 81.9642 507.059 Q81.9642 498.309 85.0197 493.726 Q88.0984 489.12 93.9086 489.12 Z" fill="#000000" fill-rule="nonzero" fill-opacity="1" /><path clip-path="url(#clip940)" d="M124.07 492.823 Q120.459 492.823 118.631 496.388 Q116.825 499.93 116.825 507.059 Q116.825 514.166 118.631 517.731 Q120.459 521.272 124.07 521.272 Q127.705 521.272 129.51 517.731 Q131.339 514.166 131.339 507.059 Q131.339 499.93 129.51 496.388 Q127.705 492.823 124.07 492.823 M124.07 489.12 Q129.881 489.12 132.936 493.726 Q136.015 498.309 136.015 507.059 Q136.015 515.786 132.936 520.393 Q129.881 524.976 124.07 524.976 Q118.26 524.976 115.182 520.393 Q112.126 515.786 112.126 507.059 Q112.126 498.309 115.182 493.726 Q118.26 489.12 124.07 489.12 Z" fill="#000000" fill-rule="nonzero" fill-opacity="1" /><path clip-path="url(#clip940)" d="M63.7467 194.277 Q60.4134 194.277 58.4921 196.059 Q56.5939 197.841 56.5939 200.966 Q56.5939 204.091 58.4921 205.874 Q60.4134 207.656 63.7467 207.656 Q67.08 207.656 69.0013 205.874 Q70.9226 204.068 70.9226 200.966 Q70.9226 197.841 69.0013 196.059 Q67.1032 194.277 63.7467 194.277 M59.0708 192.286 Q56.0615 191.545 54.3717 189.485 Q52.7051 187.425 52.7051 184.462 Q52.7051 180.318 55.6449 177.911 Q58.6078 175.504 63.7467 175.504 Q68.9087 175.504 71.8485 177.911 Q74.7883 180.318 74.7883 184.462 Q74.7883 187.425 73.0985 189.485 Q71.4318 191.545 68.4457 192.286 Q71.8253 193.073 73.7003 195.365 Q75.5985 197.656 75.5985 200.966 Q75.5985 205.989 72.5198 208.675 Q69.4642 211.36 63.7467 211.36 Q58.0291 211.36 54.9504 208.675 Q51.8949 205.989 51.8949 200.966 Q51.8949 197.656 53.793 195.365 Q55.6912 193.073 59.0708 192.286 M57.3578 184.902 Q57.3578 187.587 59.0245 189.091 Q60.7143 190.596 63.7467 190.596 Q66.7559 190.596 68.4457 189.091 Q70.1587 187.587 70.1587 184.902 Q70.1587 182.216 68.4457 180.712 Q66.7559 179.207 63.7467 179.207 Q60.7143 179.207 59.0245 180.712 Q57.3578 182.216 57.3578 184.902 Z" fill="#000000" fill-rule="nonzero" fill-opacity="1" /><path clip-path="url(#clip940)" d="M93.9086 179.207 Q90.2975 179.207 88.4688 182.772 Q86.6632 186.314 86.6632 193.443 Q86.6632 200.55 88.4688 204.114 Q90.2975 207.656 93.9086 207.656 Q97.5428 207.656 99.3483 204.114 Q101.177 200.55 101.177 193.443 Q101.177 186.314 99.3483 182.772 Q97.5428 179.207 93.9086 179.207 M93.9086 175.504 Q99.7187 175.504 102.774 180.11 Q105.853 184.693 105.853 193.443 Q105.853 202.17 102.774 206.777 Q99.7187 211.36 93.9086 211.36 Q88.0984 211.36 85.0197 206.777 Q81.9642 202.17 81.9642 193.443 Q81.9642 184.693 85.0197 180.11 Q88.0984 175.504 93.9086 175.504 Z" fill="#000000" fill-rule="nonzero" fill-opacity="1" /><path clip-path="url(#clip940)" d="M124.07 179.207 Q120.459 179.207 118.631 182.772 Q116.825 186.314 116.825 193.443 Q116.825 200.55 118.631 204.114 Q120.459 207.656 124.07 207.656 Q127.705 207.656 129.51 204.114 Q131.339 200.55 131.339 193.443 Q131.339 186.314 129.51 182.772 Q127.705 179.207 124.07 179.207 M124.07 175.504 Q129.881 175.504 132.936 180.11 Q136.015 184.693 136.015 193.443 Q136.015 202.17 132.936 206.777 Q129.881 211.36 124.07 211.36 Q118.26 211.36 115.182 206.777 Q112.126 202.17 112.126 193.443 Q112.126 184.693 115.182 180.11 Q118.26 175.504 124.07 175.504 Z" fill="#000000" fill-rule="nonzero" fill-opacity="1" /><path clip-path="url(#clip940)" d="M1179.36 18.8205 L1179.36 65.8515 L1189.25 65.8515 Q1201.76 65.8515 1207.56 60.1802 Q1213.39 54.509 1213.39 42.2752 Q1213.39 30.1225 1207.56 24.4918 Q1201.76 18.8205 1189.25 18.8205 L1179.36 18.8205 M1171.18 12.096 L1187.99 12.096 Q1205.57 12.096 1213.79 19.4281 Q1222.02 26.7198 1222.02 42.2752 Q1222.02 57.9117 1213.75 65.2439 Q1205.49 72.576 1187.99 72.576 L1171.18 72.576 L1171.18 12.096 Z" fill="#000000" fill-rule="nonzero" fill-opacity="1" /><path clip-path="url(#clip940)" d="M1255.36 49.7694 Q1246.32 49.7694 1242.84 51.8354 Q1239.36 53.9013 1239.36 58.8839 Q1239.36 62.8538 1241.95 65.2034 Q1244.58 67.5124 1249.08 67.5124 Q1255.28 67.5124 1259 63.1374 Q1262.77 58.7219 1262.77 51.4303 L1262.77 49.7694 L1255.36 49.7694 M1270.22 46.6907 L1270.22 72.576 L1262.77 72.576 L1262.77 65.6895 Q1260.22 69.8214 1256.41 71.8063 Q1252.6 73.7508 1247.09 73.7508 Q1240.13 73.7508 1235.99 69.8619 Q1231.9 65.9325 1231.9 59.3701 Q1231.9 51.7138 1237.01 47.825 Q1242.15 43.9361 1252.32 43.9361 L1262.77 43.9361 L1262.77 43.2069 Q1262.77 38.0623 1259.37 35.2672 Q1256.01 32.4315 1249.89 32.4315 Q1246 32.4315 1242.31 33.3632 Q1238.63 34.295 1235.22 36.1584 L1235.22 29.2718 Q1239.32 27.692 1243.16 26.9223 Q1247.01 26.1121 1250.66 26.1121 Q1260.5 26.1121 1265.36 31.2163 Q1270.22 36.3204 1270.22 46.6907 Z" fill="#000000" fill-rule="nonzero" fill-opacity="1" /><path clip-path="url(#clip940)" d="M1292.95 14.324 L1292.95 27.2059 L1308.3 27.2059 L1308.3 32.9987 L1292.95 32.9987 L1292.95 57.6282 Q1292.95 63.1779 1294.45 64.7578 Q1295.99 66.3376 1300.65 66.3376 L1308.3 66.3376 L1308.3 72.576 L1300.65 72.576 Q1292.02 72.576 1288.74 69.3758 Q1285.46 66.1351 1285.46 57.6282 L1285.46 32.9987 L1279.99 32.9987 L1279.99 27.2059 L1285.46 27.2059 L1285.46 14.324 L1292.95 14.324 Z" fill="#000000" fill-rule="nonzero" fill-opacity="1" /><path clip-path="url(#clip940)" d="M1338.72 49.7694 Q1329.69 49.7694 1326.21 51.8354 Q1322.72 53.9013 1322.72 58.8839 Q1322.72 62.8538 1325.32 65.2034 Q1327.95 67.5124 1332.45 67.5124 Q1338.64 67.5124 1342.37 63.1374 Q1346.14 58.7219 1346.14 51.4303 L1346.14 49.7694 L1338.72 49.7694 M1353.59 46.6907 L1353.59 72.576 L1346.14 72.576 L1346.14 65.6895 Q1343.59 69.8214 1339.78 71.8063 Q1335.97 73.7508 1330.46 73.7508 Q1323.49 73.7508 1319.36 69.8619 Q1315.27 65.9325 1315.27 59.3701 Q1315.27 51.7138 1320.37 47.825 Q1325.52 43.9361 1335.69 43.9361 L1346.14 43.9361 L1346.14 43.2069 Q1346.14 38.0623 1342.74 35.2672 Q1339.37 32.4315 1333.26 32.4315 Q1329.37 32.4315 1325.68 33.3632 Q1321.99 34.295 1318.59 36.1584 L1318.59 29.2718 Q1322.68 27.692 1326.53 26.9223 Q1330.38 26.1121 1334.03 26.1121 Q1343.87 26.1121 1348.73 31.2163 Q1353.59 36.3204 1353.59 46.6907 Z" fill="#000000" fill-rule="nonzero" fill-opacity="1" /><polyline clip-path="url(#clip942)" style="stroke:#009af9; stroke-linecap:round; stroke-linejoin:round; stroke-width:4; stroke-opacity:1; fill:none" points="233.734,1447.87 233.734,1369.47 268.022,1369.47 268.022,1322.43 302.311,1322.43 302.311,1291.07 336.599,1291.07 336.599,1071.53 370.887,1071.53 370.887,1149.94 405.176,1149.94 439.464,1149.94 439.464,1134.26 473.753,1134.26 473.753,867.683 508.041,867.683 508.041,852.002 542.329,852.002 542.329,742.237 576.618,742.237 576.618,804.96 610.906,804.96 645.194,804.96 645.194,820.641 679.483,820.641 679.483,930.406 713.771,930.406 713.771,977.449 748.06,977.449 748.06,1071.53 782.348,1071.53 782.348,1181.3 816.636,1181.3 816.636,1259.7 850.925,1259.7 850.925,1322.43 885.213,1322.43 885.213,1353.79 919.502,1353.79 919.502,1385.15 953.79,1385.15 953.79,1447.87 988.078,1447.87 988.078,1416.51 1022.37,1416.51 1022.37,1432.19 1056.66,1432.19 1056.66,1416.51 1090.94,1416.51 1125.23,1416.51 1125.23,1385.15 1159.52,1385.15 1159.52,1400.83 1193.81,1400.83 1193.81,1385.15 1228.1,1385.15 1228.1,1291.07 1262.39,1291.07 1262.39,1306.75 1296.67,1306.75 1296.67,1118.58 1330.96,1118.58 1330.96,977.449 1365.25,977.449 1365.25,852.002 1399.54,852.002 1399.54,757.918 1433.83,757.918 1433.83,585.429 1468.12,585.429 1468.12,397.259 1502.4,397.259 1502.4,209.089 1536.69,209.089 1536.69,365.897 1570.98,365.897 1570.98,162.047 1605.27,162.047 1605.27,224.77 1639.56,224.77 1639.56,271.813 1673.85,271.813 1673.85,459.982 1708.13,459.982 1708.13,303.174 1742.42,303.174 1742.42,616.79 1776.71,616.79 1776.71,836.322 1811,836.322 1811,1040.17 1845.29,1040.17 1845.29,1118.58 1879.58,1118.58 1879.58,1165.62 1913.86,1165.62 1913.86,1212.66 1948.15,1212.66 1948.15,1306.75 1982.44,1306.75 1982.44,1400.83 2016.73,1400.83 2016.73,1385.15 2051.02,1385.15 2051.02,1416.51 2085.31,1416.51 2085.31,1432.19 2119.59,1432.19 2119.59,1447.87 2153.88,1447.87 2188.17,1447.87 2222.46,1447.87 2256.75,1447.87 2291.04,1447.87 "/>
<path clip-path="url(#clip940)" d="M1957.75 272.585 L2280.06 272.585 L2280.06 168.905 L1957.75 168.905  Z" fill="#ffffff" fill-rule="evenodd" fill-opacity="1"/>
<polyline clip-path="url(#clip940)" style="stroke:#000000; stroke-linecap:round; stroke-linejoin:round; stroke-width:4; stroke-opacity:1; fill:none" points="1957.75,272.585 2280.06,272.585 2280.06,168.905 1957.75,168.905 1957.75,272.585 "/>
<polyline clip-path="url(#clip940)" style="stroke:#009af9; stroke-linecap:round; stroke-linejoin:round; stroke-width:4; stroke-opacity:1; fill:none" points="1981.99,220.745 2127.37,220.745 "/>
<path clip-path="url(#clip940)" d="M2156.27 207.307 L2156.27 234.182 L2161.92 234.182 Q2169.08 234.182 2172.39 230.941 Q2175.72 227.701 2175.72 220.71 Q2175.72 213.766 2172.39 210.548 Q2169.08 207.307 2161.92 207.307 L2156.27 207.307 M2151.6 203.465 L2161.2 203.465 Q2171.25 203.465 2175.95 207.654 Q2180.65 211.821 2180.65 220.71 Q2180.65 229.645 2175.93 233.835 Q2171.2 238.025 2161.2 238.025 L2151.6 238.025 L2151.6 203.465 Z" fill="#000000" fill-rule="nonzero" fill-opacity="1" /><path clip-path="url(#clip940)" d="M2199.7 224.992 Q2194.54 224.992 2192.55 226.173 Q2190.56 227.353 2190.56 230.201 Q2190.56 232.469 2192.04 233.812 Q2193.54 235.131 2196.11 235.131 Q2199.65 235.131 2201.78 232.631 Q2203.94 230.108 2203.94 225.941 L2203.94 224.992 L2199.7 224.992 M2208.2 223.233 L2208.2 238.025 L2203.94 238.025 L2203.94 234.089 Q2202.48 236.451 2200.3 237.585 Q2198.13 238.696 2194.98 238.696 Q2191 238.696 2188.64 236.474 Q2186.3 234.228 2186.3 230.478 Q2186.3 226.103 2189.21 223.881 Q2192.15 221.659 2197.96 221.659 L2203.94 221.659 L2203.94 221.242 Q2203.94 218.303 2201.99 216.705 Q2200.07 215.085 2196.58 215.085 Q2194.35 215.085 2192.25 215.617 Q2190.14 216.15 2188.2 217.215 L2188.2 213.279 Q2190.53 212.377 2192.73 211.937 Q2194.93 211.474 2197.01 211.474 Q2202.64 211.474 2205.42 214.391 Q2208.2 217.307 2208.2 223.233 Z" fill="#000000" fill-rule="nonzero" fill-opacity="1" /><path clip-path="url(#clip940)" d="M2221.18 204.738 L2221.18 212.099 L2229.95 212.099 L2229.95 215.409 L2221.18 215.409 L2221.18 229.483 Q2221.18 232.654 2222.04 233.557 Q2222.92 234.46 2225.58 234.46 L2229.95 234.46 L2229.95 238.025 L2225.58 238.025 Q2220.65 238.025 2218.77 236.196 Q2216.9 234.344 2216.9 229.483 L2216.9 215.409 L2213.77 215.409 L2213.77 212.099 L2216.9 212.099 L2216.9 204.738 L2221.18 204.738 Z" fill="#000000" fill-rule="nonzero" fill-opacity="1" /><path clip-path="url(#clip940)" d="M2247.34 224.992 Q2242.18 224.992 2240.19 226.173 Q2238.2 227.353 2238.2 230.201 Q2238.2 232.469 2239.68 233.812 Q2241.18 235.131 2243.75 235.131 Q2247.29 235.131 2249.42 232.631 Q2251.57 230.108 2251.57 225.941 L2251.57 224.992 L2247.34 224.992 M2255.83 223.233 L2255.83 238.025 L2251.57 238.025 L2251.57 234.089 Q2250.12 236.451 2247.94 237.585 Q2245.76 238.696 2242.62 238.696 Q2238.64 238.696 2236.27 236.474 Q2233.94 234.228 2233.94 230.478 Q2233.94 226.103 2236.85 223.881 Q2239.79 221.659 2245.6 221.659 L2251.57 221.659 L2251.57 221.242 Q2251.57 218.303 2249.63 216.705 Q2247.71 215.085 2244.21 215.085 Q2241.99 215.085 2239.89 215.617 Q2237.78 216.15 2235.83 217.215 L2235.83 213.279 Q2238.17 212.377 2240.37 211.937 Q2242.57 211.474 2244.65 211.474 Q2250.28 211.474 2253.06 214.391 Q2255.83 217.307 2255.83 223.233 Z" fill="#000000" fill-rule="nonzero" fill-opacity="1" /></svg>
