<?xml version="1.0" encoding="utf-8"?>
<svg xmlns="http://www.w3.org/2000/svg" xmlns:xlink="http://www.w3.org/1999/xlink" width="600" height="400" viewBox="0 0 2400 1600">
<defs>
  <clipPath id="clip820">
    <rect x="0" y="0" width="2400" height="1600"/>
  </clipPath>
</defs>
<path clip-path="url(#clip820)" d="
M0 1600 L2400 1600 L2400 0 L0 0  Z
  " fill="#ffffff" fill-rule="evenodd" fill-opacity="1"/>
<defs>
  <clipPath id="clip821">
    <rect x="480" y="0" width="1681" height="1600"/>
  </clipPath>
</defs>
<path clip-path="url(#clip820)" d="
M172.015 1486.45 L2352.76 1486.45 L2352.76 123.472 L172.015 123.472  Z
  " fill="#ffffff" fill-rule="evenodd" fill-opacity="1"/>
<defs>
  <clipPath id="clip822">
    <rect x="172" y="123" width="2182" height="1364"/>
  </clipPath>
</defs>
<polyline clip-path="url(#clip822)" style="stroke:#000000; stroke-linecap:butt; stroke-linejoin:round; stroke-width:2; stroke-opacity:0.1; fill:none" points="
  233.734,1486.45 233.734,123.472 
  "/>
<polyline clip-path="url(#clip822)" style="stroke:#000000; stroke-linecap:butt; stroke-linejoin:round; stroke-width:2; stroke-opacity:0.1; fill:none" points="
  576.618,1486.45 576.618,123.472 
  "/>
<polyline clip-path="url(#clip822)" style="stroke:#000000; stroke-linecap:butt; stroke-linejoin:round; stroke-width:2; stroke-opacity:0.1; fill:none" points="
  919.502,1486.45 919.502,123.472 
  "/>
<polyline clip-path="url(#clip822)" style="stroke:#000000; stroke-linecap:butt; stroke-linejoin:round; stroke-width:2; stroke-opacity:0.1; fill:none" points="
  1262.39,1486.45 1262.39,123.472 
  "/>
<polyline clip-path="url(#clip822)" style="stroke:#000000; stroke-linecap:butt; stroke-linejoin:round; stroke-width:2; stroke-opacity:0.1; fill:none" points="
  1605.27,1486.45 1605.27,123.472 
  "/>
<polyline clip-path="url(#clip822)" style="stroke:#000000; stroke-linecap:butt; stroke-linejoin:round; stroke-width:2; stroke-opacity:0.1; fill:none" points="
  1948.15,1486.45 1948.15,123.472 
  "/>
<polyline clip-path="url(#clip822)" style="stroke:#000000; stroke-linecap:butt; stroke-linejoin:round; stroke-width:2; stroke-opacity:0.1; fill:none" points="
  2291.04,1486.45 2291.04,123.472 
  "/>
<polyline clip-path="url(#clip820)" style="stroke:#000000; stroke-linecap:butt; stroke-linejoin:round; stroke-width:4; stroke-opacity:1; fill:none" points="
  172.015,1486.45 2352.76,1486.45 
  "/>
<polyline clip-path="url(#clip820)" style="stroke:#000000; stroke-linecap:butt; stroke-linejoin:round; stroke-width:4; stroke-opacity:1; fill:none" points="
  233.734,1486.45 233.734,1467.55 
  "/>
<polyline clip-path="url(#clip820)" style="stroke:#000000; stroke-linecap:butt; stroke-linejoin:round; stroke-width:4; stroke-opacity:1; fill:none" points="
  576.618,1486.45 576.618,1467.55 
  "/>
<polyline clip-path="url(#clip820)" style="stroke:#000000; stroke-linecap:butt; stroke-linejoin:round; stroke-width:4; stroke-opacity:1; fill:none" points="
  919.502,1486.45 919.502,1467.55 
  "/>
<polyline clip-path="url(#clip820)" style="stroke:#000000; stroke-linecap:butt; stroke-linejoin:round; stroke-width:4; stroke-opacity:1; fill:none" points="
  1262.39,1486.45 1262.39,1467.55 
  "/>
<polyline clip-path="url(#clip820)" style="stroke:#000000; stroke-linecap:butt; stroke-linejoin:round; stroke-width:4; stroke-opacity:1; fill:none" points="
  1605.27,1486.45 1605.27,1467.55 
  "/>
<polyline clip-path="url(#clip820)" style="stroke:#000000; stroke-linecap:butt; stroke-linejoin:round; stroke-width:4; stroke-opacity:1; fill:none" points="
  1948.15,1486.45 1948.15,1467.55 
  "/>
<polyline clip-path="url(#clip820)" style="stroke:#000000; stroke-linecap:butt; stroke-linejoin:round; stroke-width:4; stroke-opacity:1; fill:none" points="
  2291.04,1486.45 2291.04,1467.55 
  "/>
<path clip-path="url(#clip820)" d="M203.676 1532.02 L233.352 1532.02 L233.352 1535.95 L203.676 1535.95 L203.676 1532.02 Z" fill="#000000" fill-rule="evenodd" fill-opacity="1" /><path clip-path="url(#clip820)" d="M247.472 1544.91 L263.792 1544.91 L263.792 1548.85 L241.847 1548.85 L241.847 1544.91 Q244.509 1542.16 249.093 1537.53 Q253.699 1532.88 254.88 1531.53 Q257.125 1529.01 258.005 1527.27 Q258.907 1525.51 258.907 1523.82 Q258.907 1521.07 256.963 1519.33 Q255.042 1517.6 251.94 1517.6 Q249.741 1517.6 247.287 1518.36 Q244.857 1519.13 242.079 1520.68 L242.079 1515.95 Q244.903 1514.82 247.357 1514.24 Q249.81 1513.66 251.847 1513.66 Q257.218 1513.66 260.412 1516.35 Q263.606 1519.03 263.606 1523.52 Q263.606 1525.65 262.796 1527.57 Q262.009 1529.47 259.903 1532.07 Q259.324 1532.74 256.222 1535.95 Q253.12 1539.15 247.472 1544.91 Z" fill="#000000" fill-rule="evenodd" fill-opacity="1" /><path clip-path="url(#clip820)" d="M546.375 1532.02 L576.051 1532.02 L576.051 1535.95 L546.375 1535.95 L546.375 1532.02 Z" fill="#000000" fill-rule="evenodd" fill-opacity="1" /><path clip-path="url(#clip820)" d="M586.953 1544.91 L594.592 1544.91 L594.592 1518.55 L586.282 1520.21 L586.282 1515.95 L594.546 1514.29 L599.222 1514.29 L599.222 1544.91 L606.861 1544.91 L606.861 1548.85 L586.953 1548.85 L586.953 1544.91 Z" fill="#000000" fill-rule="evenodd" fill-opacity="1" /><path clip-path="url(#clip820)" d="M919.502 1517.37 Q915.89 1517.37 914.062 1520.93 Q912.256 1524.47 912.256 1531.6 Q912.256 1538.71 914.062 1542.27 Q915.89 1545.82 919.502 1545.82 Q923.136 1545.82 924.941 1542.27 Q926.77 1538.71 926.77 1531.6 Q926.77 1524.47 924.941 1520.93 Q923.136 1517.37 919.502 1517.37 M919.502 1513.66 Q925.312 1513.66 928.367 1518.27 Q931.446 1522.85 931.446 1531.6 Q931.446 1540.33 928.367 1544.94 Q925.312 1549.52 919.502 1549.52 Q913.691 1549.52 910.613 1544.94 Q907.557 1540.33 907.557 1531.6 Q907.557 1522.85 910.613 1518.27 Q913.691 1513.66 919.502 1513.66 Z" fill="#000000" fill-rule="evenodd" fill-opacity="1" /><path clip-path="url(#clip820)" d="M1252.77 1544.91 L1260.41 1544.91 L1260.41 1518.55 L1252.1 1520.21 L1252.1 1515.95 L1260.36 1514.29 L1265.04 1514.29 L1265.04 1544.91 L1272.67 1544.91 L1272.67 1548.85 L1252.77 1548.85 L1252.77 1544.91 Z" fill="#000000" fill-rule="evenodd" fill-opacity="1" /><path clip-path="url(#clip820)" d="M1599.92 1544.91 L1616.24 1544.91 L1616.24 1548.85 L1594.3 1548.85 L1594.3 1544.91 Q1596.96 1542.16 1601.54 1537.53 Q1606.15 1532.88 1607.33 1531.53 Q1609.57 1529.01 1610.45 1527.27 Q1611.36 1525.51 1611.36 1523.82 Q1611.36 1521.07 1609.41 1519.33 Q1607.49 1517.6 1604.39 1517.6 Q1602.19 1517.6 1599.74 1518.36 Q1597.31 1519.13 1594.53 1520.68 L1594.53 1515.95 Q1597.35 1514.82 1599.81 1514.24 Q1602.26 1513.66 1604.3 1513.66 Q1609.67 1513.66 1612.86 1516.35 Q1616.06 1519.03 1616.06 1523.52 Q1616.06 1525.65 1615.25 1527.57 Q1614.46 1529.47 1612.35 1532.07 Q1611.77 1532.74 1608.67 1535.95 Q1605.57 1539.15 1599.92 1544.91 Z" fill="#000000" fill-rule="evenodd" fill-opacity="1" /><path clip-path="url(#clip820)" d="M1952.4 1530.21 Q1955.76 1530.93 1957.63 1533.2 Q1959.53 1535.47 1959.53 1538.8 Q1959.53 1543.92 1956.01 1546.72 Q1952.49 1549.52 1946.01 1549.52 Q1943.84 1549.52 1941.52 1549.08 Q1939.23 1548.66 1936.78 1547.81 L1936.78 1543.29 Q1938.72 1544.43 1941.03 1545.01 Q1943.35 1545.58 1945.87 1545.58 Q1950.27 1545.58 1952.56 1543.85 Q1954.88 1542.11 1954.88 1538.8 Q1954.88 1535.75 1952.72 1534.03 Q1950.6 1532.3 1946.78 1532.3 L1942.75 1532.3 L1942.75 1528.45 L1946.96 1528.45 Q1950.41 1528.45 1952.24 1527.09 Q1954.07 1525.7 1954.07 1523.11 Q1954.07 1520.45 1952.17 1519.03 Q1950.29 1517.6 1946.78 1517.6 Q1944.85 1517.6 1942.66 1518.01 Q1940.46 1518.43 1937.82 1519.31 L1937.82 1515.14 Q1940.48 1514.4 1942.79 1514.03 Q1945.13 1513.66 1947.19 1513.66 Q1952.52 1513.66 1955.62 1516.09 Q1958.72 1518.5 1958.72 1522.62 Q1958.72 1525.49 1957.08 1527.48 Q1955.43 1529.45 1952.4 1530.21 Z" fill="#000000" fill-rule="evenodd" fill-opacity="1" /><path clip-path="url(#clip820)" d="M2294.05 1518.36 L2282.24 1536.81 L2294.05 1536.81 L2294.05 1518.36 M2292.82 1514.29 L2298.7 1514.29 L2298.7 1536.81 L2303.63 1536.81 L2303.63 1540.7 L2298.7 1540.7 L2298.7 1548.85 L2294.05 1548.85 L2294.05 1540.7 L2278.44 1540.7 L2278.44 1536.19 L2292.82 1514.29 Z" fill="#000000" fill-rule="evenodd" fill-opacity="1" /><polyline clip-path="url(#clip822)" style="stroke:#000000; stroke-linecap:butt; stroke-linejoin:round; stroke-width:2; stroke-opacity:0.1; fill:none" points="
  172.015,1447.87 2352.76,1447.87 
  "/>
<polyline clip-path="url(#clip822)" style="stroke:#000000; stroke-linecap:butt; stroke-linejoin:round; stroke-width:2; stroke-opacity:0.1; fill:none" points="
  172.015,1171.35 2352.76,1171.35 
  "/>
<polyline clip-path="url(#clip822)" style="stroke:#000000; stroke-linecap:butt; stroke-linejoin:round; stroke-width:2; stroke-opacity:0.1; fill:none" points="
  172.015,894.83 2352.76,894.83 
  "/>
<polyline clip-path="url(#clip822)" style="stroke:#000000; stroke-linecap:butt; stroke-linejoin:round; stroke-width:2; stroke-opacity:0.1; fill:none" points="
  172.015,618.308 2352.76,618.308 
  "/>
<polyline clip-path="url(#clip822)" style="stroke:#000000; stroke-linecap:butt; stroke-linejoin:round; stroke-width:2; stroke-opacity:0.1; fill:none" points="
  172.015,341.786 2352.76,341.786 
  "/>
<polyline clip-path="url(#clip820)" style="stroke:#000000; stroke-linecap:butt; stroke-linejoin:round; stroke-width:4; stroke-opacity:1; fill:none" points="
  172.015,1486.45 172.015,123.472 
  "/>
<polyline clip-path="url(#clip820)" style="stroke:#000000; stroke-linecap:butt; stroke-linejoin:round; stroke-width:4; stroke-opacity:1; fill:none" points="
  172.015,1447.87 190.912,1447.87 
  "/>
<polyline clip-path="url(#clip820)" style="stroke:#000000; stroke-linecap:butt; stroke-linejoin:round; stroke-width:4; stroke-opacity:1; fill:none" points="
  172.015,1171.35 190.912,1171.35 
  "/>
<polyline clip-path="url(#clip820)" style="stroke:#000000; stroke-linecap:butt; stroke-linejoin:round; stroke-width:4; stroke-opacity:1; fill:none" points="
  172.015,894.83 190.912,894.83 
  "/>
<polyline clip-path="url(#clip820)" style="stroke:#000000; stroke-linecap:butt; stroke-linejoin:round; stroke-width:4; stroke-opacity:1; fill:none" points="
  172.015,618.308 190.912,618.308 
  "/>
<polyline clip-path="url(#clip820)" style="stroke:#000000; stroke-linecap:butt; stroke-linejoin:round; stroke-width:4; stroke-opacity:1; fill:none" points="
  172.015,341.786 190.912,341.786 
  "/>
<path clip-path="url(#clip820)" d="M124.07 1433.67 Q120.459 1433.67 118.631 1437.24 Q116.825 1440.78 116.825 1447.91 Q116.825 1455.01 118.631 1458.58 Q120.459 1462.12 124.07 1462.12 Q127.705 1462.12 129.51 1458.58 Q131.339 1455.01 131.339 1447.91 Q131.339 1440.78 129.51 1437.24 Q127.705 1433.67 124.07 1433.67 M124.07 1429.97 Q129.881 1429.97 132.936 1434.57 Q136.015 1439.16 136.015 1447.91 Q136.015 1456.63 132.936 1461.24 Q129.881 1465.82 124.07 1465.82 Q118.26 1465.82 115.182 1461.24 Q112.126 1456.63 112.126 1447.91 Q112.126 1439.16 115.182 1434.57 Q118.26 1429.97 124.07 1429.97 Z" fill="#000000" fill-rule="evenodd" fill-opacity="1" /><path clip-path="url(#clip820)" d="M57.7745 1184.7 L74.0939 1184.7 L74.0939 1188.63 L52.1495 1188.63 L52.1495 1184.7 Q54.8115 1181.94 59.3949 1177.31 Q64.0013 1172.66 65.1819 1171.32 Q67.4272 1168.79 68.3068 1167.06 Q69.2096 1165.3 69.2096 1163.61 Q69.2096 1160.85 67.2652 1159.12 Q65.3439 1157.38 62.2421 1157.38 Q60.043 1157.38 57.5893 1158.15 Q55.1588 1158.91 52.381 1160.46 L52.381 1155.74 Q55.2051 1154.6 57.6588 1154.03 Q60.1124 1153.45 62.1495 1153.45 Q67.5198 1153.45 70.7142 1156.13 Q73.9087 1158.82 73.9087 1163.31 Q73.9087 1165.44 73.0985 1167.36 Q72.3115 1169.26 70.205 1171.85 Q69.6263 1172.52 66.5245 1175.74 Q63.4226 1178.93 57.7745 1184.7 Z" fill="#000000" fill-rule="evenodd" fill-opacity="1" /><path clip-path="url(#clip820)" d="M93.9086 1157.15 Q90.2975 1157.15 88.4688 1160.71 Q86.6632 1164.26 86.6632 1171.39 Q86.6632 1178.49 88.4688 1182.06 Q90.2975 1185.6 93.9086 1185.6 Q97.5428 1185.6 99.3483 1182.06 Q101.177 1178.49 101.177 1171.39 Q101.177 1164.26 99.3483 1160.71 Q97.5428 1157.15 93.9086 1157.15 M93.9086 1153.45 Q99.7187 1153.45 102.774 1158.05 Q105.853 1162.64 105.853 1171.39 Q105.853 1180.11 102.774 1184.72 Q99.7187 1189.3 93.9086 1189.3 Q88.0984 1189.3 85.0197 1184.72 Q81.9642 1180.11 81.9642 1171.39 Q81.9642 1162.64 85.0197 1158.05 Q88.0984 1153.45 93.9086 1153.45 Z" fill="#000000" fill-rule="evenodd" fill-opacity="1" /><path clip-path="url(#clip820)" d="M124.07 1157.15 Q120.459 1157.15 118.631 1160.71 Q116.825 1164.26 116.825 1171.39 Q116.825 1178.49 118.631 1182.06 Q120.459 1185.6 124.07 1185.6 Q127.705 1185.6 129.51 1182.06 Q131.339 1178.49 131.339 1171.39 Q131.339 1164.26 129.51 1160.71 Q127.705 1157.15 124.07 1157.15 M124.07 1153.45 Q129.881 1153.45 132.936 1158.05 Q136.015 1162.64 136.015 1171.39 Q136.015 1180.11 132.936 1184.72 Q129.881 1189.3 124.07 1189.3 Q118.26 1189.3 115.182 1184.72 Q112.126 1180.11 112.126 1171.39 Q112.126 1162.64 115.182 1158.05 Q118.26 1153.45 124.07 1153.45 Z" fill="#000000" fill-rule="evenodd" fill-opacity="1" /><path clip-path="url(#clip820)" d="M66.5939 881.624 L54.7884 900.073 L66.5939 900.073 L66.5939 881.624 M65.367 877.55 L71.2466 877.55 L71.2466 900.073 L76.1772 900.073 L76.1772 903.961 L71.2466 903.961 L71.2466 912.11 L66.5939 912.11 L66.5939 903.961 L50.9921 903.961 L50.9921 899.448 L65.367 877.55 Z" fill="#000000" fill-rule="evenodd" fill-opacity="1" /><path clip-path="url(#clip820)" d="M93.9086 880.628 Q90.2975 880.628 88.4688 884.193 Q86.6632 887.735 86.6632 894.864 Q86.6632 901.971 88.4688 905.536 Q90.2975 909.077 93.9086 909.077 Q97.5428 909.077 99.3483 905.536 Q101.177 901.971 101.177 894.864 Q101.177 887.735 99.3483 884.193 Q97.5428 880.628 93.9086 880.628 M93.9086 876.925 Q99.7187 876.925 102.774 881.531 Q105.853 886.114 105.853 894.864 Q105.853 903.591 102.774 908.198 Q99.7187 912.781 93.9086 912.781 Q88.0984 912.781 85.0197 908.198 Q81.9642 903.591 81.9642 894.864 Q81.9642 886.114 85.0197 881.531 Q88.0984 876.925 93.9086 876.925 Z" fill="#000000" fill-rule="evenodd" fill-opacity="1" /><path clip-path="url(#clip820)" d="M124.07 880.628 Q120.459 880.628 118.631 884.193 Q116.825 887.735 116.825 894.864 Q116.825 901.971 118.631 905.536 Q120.459 909.077 124.07 909.077 Q127.705 909.077 129.51 905.536 Q131.339 901.971 131.339 894.864 Q131.339 887.735 129.51 884.193 Q127.705 880.628 124.07 880.628 M124.07 876.925 Q129.881 876.925 132.936 881.531 Q136.015 886.114 136.015 894.864 Q136.015 903.591 132.936 908.198 Q129.881 912.781 124.07 912.781 Q118.26 912.781 115.182 908.198 Q112.126 903.591 112.126 894.864 Q112.126 886.114 115.182 881.531 Q118.26 876.925 124.07 876.925 Z" fill="#000000" fill-rule="evenodd" fill-opacity="1" /><path clip-path="url(#clip820)" d="M64.3254 616.444 Q61.1773 616.444 59.3254 618.597 Q57.4967 620.75 57.4967 624.5 Q57.4967 628.227 59.3254 630.403 Q61.1773 632.555 64.3254 632.555 Q67.4735 632.555 69.3022 630.403 Q71.1541 628.227 71.1541 624.5 Q71.1541 620.75 69.3022 618.597 Q67.4735 616.444 64.3254 616.444 M73.6077 601.792 L73.6077 606.051 Q71.8485 605.218 70.0429 604.778 Q68.2606 604.338 66.5013 604.338 Q61.8717 604.338 59.418 607.463 Q56.9875 610.588 56.6402 616.907 Q58.006 614.893 60.0662 613.829 Q62.1263 612.741 64.6032 612.741 Q69.8115 612.741 72.8207 615.912 Q75.8531 619.06 75.8531 624.5 Q75.8531 629.824 72.705 633.042 Q69.5568 636.259 64.3254 636.259 Q58.33 636.259 55.1588 631.676 Q51.9875 627.069 51.9875 618.343 Q51.9875 610.148 55.8764 605.287 Q59.7652 600.403 66.3161 600.403 Q68.0754 600.403 69.8578 600.75 Q71.6633 601.097 73.6077 601.792 Z" fill="#000000" fill-rule="evenodd" fill-opacity="1" /><path clip-path="url(#clip820)" d="M93.9086 604.107 Q90.2975 604.107 88.4688 607.671 Q86.6632 611.213 86.6632 618.343 Q86.6632 625.449 88.4688 629.014 Q90.2975 632.555 93.9086 632.555 Q97.5428 632.555 99.3483 629.014 Q101.177 625.449 101.177 618.343 Q101.177 611.213 99.3483 607.671 Q97.5428 604.107 93.9086 604.107 M93.9086 600.403 Q99.7187 600.403 102.774 605.009 Q105.853 609.593 105.853 618.343 Q105.853 627.069 102.774 631.676 Q99.7187 636.259 93.9086 636.259 Q88.0984 636.259 85.0197 631.676 Q81.9642 627.069 81.9642 618.343 Q81.9642 609.593 85.0197 605.009 Q88.0984 600.403 93.9086 600.403 Z" fill="#000000" fill-rule="evenodd" fill-opacity="1" /><path clip-path="url(#clip820)" d="M124.07 604.107 Q120.459 604.107 118.631 607.671 Q116.825 611.213 116.825 618.343 Q116.825 625.449 118.631 629.014 Q120.459 632.555 124.07 632.555 Q127.705 632.555 129.51 629.014 Q131.339 625.449 131.339 618.343 Q131.339 611.213 129.51 607.671 Q127.705 604.107 124.07 604.107 M124.07 600.403 Q129.881 600.403 132.936 605.009 Q136.015 609.593 136.015 618.343 Q136.015 627.069 132.936 631.676 Q129.881 636.259 124.07 636.259 Q118.26 636.259 115.182 631.676 Q112.126 627.069 112.126 618.343 Q112.126 609.593 115.182 605.009 Q118.26 600.403 124.07 600.403 Z" fill="#000000" fill-rule="evenodd" fill-opacity="1" /><path clip-path="url(#clip820)" d="M63.7467 342.654 Q60.4134 342.654 58.4921 344.437 Q56.5939 346.219 56.5939 349.344 Q56.5939 352.469 58.4921 354.251 Q60.4134 356.034 63.7467 356.034 Q67.08 356.034 69.0013 354.251 Q70.9226 352.446 70.9226 349.344 Q70.9226 346.219 69.0013 344.437 Q67.1032 342.654 63.7467 342.654 M59.0708 340.663 Q56.0615 339.923 54.3717 337.862 Q52.7051 335.802 52.7051 332.839 Q52.7051 328.696 55.6449 326.288 Q58.6078 323.881 63.7467 323.881 Q68.9087 323.881 71.8485 326.288 Q74.7883 328.696 74.7883 332.839 Q74.7883 335.802 73.0985 337.862 Q71.4318 339.923 68.4457 340.663 Q71.8253 341.45 73.7003 343.742 Q75.5985 346.034 75.5985 349.344 Q75.5985 354.367 72.5198 357.052 Q69.4642 359.737 63.7467 359.737 Q58.0291 359.737 54.9504 357.052 Q51.8949 354.367 51.8949 349.344 Q51.8949 346.034 53.793 343.742 Q55.6912 341.45 59.0708 340.663 M57.3578 333.279 Q57.3578 335.964 59.0245 337.469 Q60.7143 338.974 63.7467 338.974 Q66.7559 338.974 68.4457 337.469 Q70.1587 335.964 70.1587 333.279 Q70.1587 330.594 68.4457 329.089 Q66.7559 327.585 63.7467 327.585 Q60.7143 327.585 59.0245 329.089 Q57.3578 330.594 57.3578 333.279 Z" fill="#000000" fill-rule="evenodd" fill-opacity="1" /><path clip-path="url(#clip820)" d="M93.9086 327.585 Q90.2975 327.585 88.4688 331.15 Q86.6632 334.691 86.6632 341.821 Q86.6632 348.927 88.4688 352.492 Q90.2975 356.034 93.9086 356.034 Q97.5428 356.034 99.3483 352.492 Q101.177 348.927 101.177 341.821 Q101.177 334.691 99.3483 331.15 Q97.5428 327.585 93.9086 327.585 M93.9086 323.881 Q99.7187 323.881 102.774 328.488 Q105.853 333.071 105.853 341.821 Q105.853 350.548 102.774 355.154 Q99.7187 359.737 93.9086 359.737 Q88.0984 359.737 85.0197 355.154 Q81.9642 350.548 81.9642 341.821 Q81.9642 333.071 85.0197 328.488 Q88.0984 323.881 93.9086 323.881 Z" fill="#000000" fill-rule="evenodd" fill-opacity="1" /><path clip-path="url(#clip820)" d="M124.07 327.585 Q120.459 327.585 118.631 331.15 Q116.825 334.691 116.825 341.821 Q116.825 348.927 118.631 352.492 Q120.459 356.034 124.07 356.034 Q127.705 356.034 129.51 352.492 Q131.339 348.927 131.339 341.821 Q131.339 334.691 129.51 331.15 Q127.705 327.585 124.07 327.585 M124.07 323.881 Q129.881 323.881 132.936 328.488 Q136.015 333.071 136.015 341.821 Q136.015 350.548 132.936 355.154 Q129.881 359.737 124.07 359.737 Q118.26 359.737 115.182 355.154 Q112.126 350.548 112.126 341.821 Q112.126 333.071 115.182 328.488 Q118.26 323.881 124.07 323.881 Z" fill="#000000" fill-rule="evenodd" fill-opacity="1" /><path clip-path="url(#clip820)" d="M1179.36 18.8205 L1179.36 65.8515 L1189.25 65.8515 Q1201.76 65.8515 1207.56 60.1802 Q1213.39 54.509 1213.39 42.2752 Q1213.39 30.1225 1207.56 24.4918 Q1201.76 18.8205 1189.25 18.8205 L1179.36 18.8205 M1171.18 12.096 L1187.99 12.096 Q1205.57 12.096 1213.79 19.4281 Q1222.02 26.7198 1222.02 42.2752 Q1222.02 57.9117 1213.75 65.2439 Q1205.49 72.576 1187.99 72.576 L1171.18 72.576 L1171.18 12.096 Z" fill="#000000" fill-rule="evenodd" fill-opacity="1" /><path clip-path="url(#clip820)" d="M1255.36 49.7694 Q1246.32 49.7694 1242.84 51.8354 Q1239.36 53.9013 1239.36 58.8839 Q1239.36 62.8538 1241.95 65.2034 Q1244.58 67.5124 1249.08 67.5124 Q1255.28 67.5124 1259 63.1374 Q1262.77 58.7219 1262.77 51.4303 L1262.77 49.7694 L1255.36 49.7694 M1270.22 46.6907 L1270.22 72.576 L1262.77 72.576 L1262.77 65.6895 Q1260.22 69.8214 1256.41 71.8063 Q1252.6 73.7508 1247.09 73.7508 Q1240.13 73.7508 1235.99 69.8619 Q1231.9 65.9325 1231.9 59.3701 Q1231.9 51.7138 1237.01 47.825 Q1242.15 43.9361 1252.32 43.9361 L1262.77 43.9361 L1262.77 43.2069 Q1262.77 38.0623 1259.37 35.2672 Q1256.01 32.4315 1249.89 32.4315 Q1246 32.4315 1242.31 33.3632 Q1238.63 34.295 1235.22 36.1584 L1235.22 29.2718 Q1239.32 27.692 1243.16 26.9223 Q1247.01 26.1121 1250.66 26.1121 Q1260.5 26.1121 1265.36 31.2163 Q1270.22 36.3204 1270.22 46.6907 Z" fill="#000000" fill-rule="evenodd" fill-opacity="1" /><path clip-path="url(#clip820)" d="M1292.95 14.324 L1292.95 27.2059 L1308.3 27.2059 L1308.3 32.9987 L1292.95 32.9987 L1292.95 57.6282 Q1292.95 63.1779 1294.45 64.7578 Q1295.99 66.3376 1300.65 66.3376 L1308.3 66.3376 L1308.3 72.576 L1300.65 72.576 Q1292.02 72.576 1288.74 69.3758 Q1285.46 66.1351 1285.46 57.6282 L1285.46 32.9987 L1279.99 32.9987 L1279.99 27.2059 L1285.46 27.2059 L1285.46 14.324 L1292.95 14.324 Z" fill="#000000" fill-rule="evenodd" fill-opacity="1" /><path clip-path="url(#clip820)" d="M1338.72 49.7694 Q1329.69 49.7694 1326.21 51.8354 Q1322.72 53.9013 1322.72 58.8839 Q1322.72 62.8538 1325.32 65.2034 Q1327.95 67.5124 1332.45 67.5124 Q1338.64 67.5124 1342.37 63.1374 Q1346.14 58.7219 1346.14 51.4303 L1346.14 49.7694 L1338.72 49.7694 M1353.59 46.6907 L1353.59 72.576 L1346.14 72.576 L1346.14 65.6895 Q1343.59 69.8214 1339.78 71.8063 Q1335.97 73.7508 1330.46 73.7508 Q1323.49 73.7508 1319.36 69.8619 Q1315.27 65.9325 1315.27 59.3701 Q1315.27 51.7138 1320.37 47.825 Q1325.52 43.9361 1335.69 43.9361 L1346.14 43.9361 L1346.14 43.2069 Q1346.14 38.0623 1342.74 35.2672 Q1339.37 32.4315 1333.26 32.4315 Q1329.37 32.4315 1325.68 33.3632 Q1321.99 34.295 1318.59 36.1584 L1318.59 29.2718 Q1322.68 27.692 1326.53 26.9223 Q1330.38 26.1121 1334.03 26.1121 Q1343.87 26.1121 1348.73 31.2163 Q1353.59 36.3204 1353.59 46.6907 Z" fill="#000000" fill-rule="evenodd" fill-opacity="1" /><polyline clip-path="url(#clip822)" style="stroke:#009af9; stroke-linecap:butt; stroke-linejoin:round; stroke-width:4; stroke-opacity:1; fill:none" points="
  233.734,1447.87 233.734,1378.74 268.022,1378.74 268.022,1240.48 302.311,1240.48 302.311,1254.31 336.599,1254.31 336.599,1199 370.887,1199 370.887,1226.66 
  405.176,1226.66 405.176,1074.57 439.464,1074.57 473.753,1074.57 473.753,991.612 508.041,991.612 508.041,922.482 542.329,922.482 542.329,839.525 
  576.618,839.525 576.618,784.221 610.906,784.221 610.906,908.656 645.194,908.656 645.194,977.786 679.483,977.786 679.483,963.96 713.771,963.96 713.771,1129.87 
  748.06,1129.87 748.06,1185.18 782.348,1185.18 816.636,1185.18 816.636,1254.31 850.925,1254.31 850.925,1337.26 885.213,1337.26 885.213,1323.44 
  919.502,1323.44 919.502,1406.39 953.79,1406.39 953.79,1434.05 988.078,1434.05 1022.37,1434.05 1056.66,1434.05 1056.66,1392.57 
  1090.94,1392.57 1090.94,1434.05 1125.23,1434.05 1125.23,1447.87 1159.52,1447.87 1159.52,1420.22 1193.81,1420.22 1193.81,1309.61 1228.1,1309.61 1228.1,1268.13 
  1262.39,1268.13 1262.39,1309.61 1296.67,1309.61 1296.67,1157.53 1330.96,1157.53 1330.96,1199 1365.25,1199 1365.25,963.96 1399.54,963.96 1399.54,728.917 
  1433.83,728.917 1433.83,770.395 1468.12,770.395 1468.12,507.699 1502.4,507.699 1502.4,424.743 1536.69,424.743 1536.69,286.482 1570.98,286.482 1570.98,576.83 
  1605.27,576.83 1605.27,521.525 1639.56,521.525 1639.56,162.047 1673.85,162.047 1673.85,341.786 1708.13,341.786 1708.13,604.482 1742.42,604.482 1742.42,687.438 
  1776.71,687.438 1776.71,963.96 1811,963.96 1811,1033.09 1845.29,1033.09 1845.29,1240.48 1879.58,1240.48 1913.86,1240.48 1913.86,1212.83 
  1948.15,1212.83 1948.15,1295.79 1982.44,1295.79 1982.44,1281.96 2016.73,1281.96 2016.73,1434.05 2051.02,1434.05 2051.02,1392.57 2085.31,1392.57 2085.31,1447.87 
  2119.59,1447.87 2119.59,1420.22 2153.88,1420.22 2153.88,1447.87 2188.17,1447.87 2222.46,1447.87 2256.75,1447.87 
  2291.04,1447.87 
  "/>
<path clip-path="url(#clip820)" d="
M1933.52 272.585 L2280.06 272.585 L2280.06 168.905 L1933.52 168.905  Z
  " fill="#ffffff" fill-rule="evenodd" fill-opacity="1"/>
<polyline clip-path="url(#clip820)" style="stroke:#000000; stroke-linecap:butt; stroke-linejoin:round; stroke-width:4; stroke-opacity:1; fill:none" points="
  1933.52,272.585 2280.06,272.585 2280.06,168.905 1933.52,168.905 1933.52,272.585 
  "/>
<polyline clip-path="url(#clip820)" style="stroke:#009af9; stroke-linecap:butt; stroke-linejoin:round; stroke-width:4; stroke-opacity:1; fill:none" points="
  1957.75,220.745 2103.14,220.745 
  "/>
<path clip-path="url(#clip820)" d="M2132.04 207.307 L2132.04 234.182 L2137.69 234.182 Q2144.84 234.182 2148.15 230.941 Q2151.49 227.701 2151.49 220.71 Q2151.49 213.766 2148.15 210.548 Q2144.84 207.307 2137.69 207.307 L2132.04 207.307 M2127.37 203.465 L2136.97 203.465 Q2147.02 203.465 2151.72 207.654 Q2156.42 211.821 2156.42 220.71 Q2156.42 229.645 2151.7 233.835 Q2146.97 238.025 2136.97 238.025 L2127.37 238.025 L2127.37 203.465 Z" fill="#000000" fill-rule="evenodd" fill-opacity="1" /><path clip-path="url(#clip820)" d="M2175.47 224.992 Q2170.31 224.992 2168.32 226.173 Q2166.33 227.353 2166.33 230.201 Q2166.33 232.469 2167.81 233.812 Q2169.31 235.131 2171.88 235.131 Q2175.42 235.131 2177.55 232.631 Q2179.71 230.108 2179.71 225.941 L2179.71 224.992 L2175.47 224.992 M2183.96 223.233 L2183.96 238.025 L2179.71 238.025 L2179.71 234.089 Q2178.25 236.451 2176.07 237.585 Q2173.9 238.696 2170.75 238.696 Q2166.77 238.696 2164.4 236.474 Q2162.07 234.228 2162.07 230.478 Q2162.07 226.103 2164.98 223.881 Q2167.92 221.659 2173.73 221.659 L2179.71 221.659 L2179.71 221.242 Q2179.71 218.303 2177.76 216.705 Q2175.84 215.085 2172.34 215.085 Q2170.12 215.085 2168.02 215.617 Q2165.91 216.15 2163.97 217.215 L2163.97 213.279 Q2166.3 212.377 2168.5 211.937 Q2170.7 211.474 2172.78 211.474 Q2178.41 211.474 2181.19 214.391 Q2183.96 217.307 2183.96 223.233 Z" fill="#000000" fill-rule="evenodd" fill-opacity="1" /><path clip-path="url(#clip820)" d="M2196.95 204.738 L2196.95 212.099 L2205.72 212.099 L2205.72 215.409 L2196.95 215.409 L2196.95 229.483 Q2196.95 232.654 2197.81 233.557 Q2198.69 234.46 2201.35 234.46 L2205.72 234.46 L2205.72 238.025 L2201.35 238.025 Q2196.42 238.025 2194.54 236.196 Q2192.67 234.344 2192.67 229.483 L2192.67 215.409 L2189.54 215.409 L2189.54 212.099 L2192.67 212.099 L2192.67 204.738 L2196.95 204.738 Z" fill="#000000" fill-rule="evenodd" fill-opacity="1" /><path clip-path="url(#clip820)" d="M2223.11 224.992 Q2217.95 224.992 2215.96 226.173 Q2213.96 227.353 2213.96 230.201 Q2213.96 232.469 2215.45 233.812 Q2216.95 235.131 2219.52 235.131 Q2223.06 235.131 2225.19 232.631 Q2227.34 230.108 2227.34 225.941 L2227.34 224.992 L2223.11 224.992 M2231.6 223.233 L2231.6 238.025 L2227.34 238.025 L2227.34 234.089 Q2225.89 236.451 2223.71 237.585 Q2221.53 238.696 2218.39 238.696 Q2214.4 238.696 2212.04 236.474 Q2209.71 234.228 2209.71 230.478 Q2209.71 226.103 2212.62 223.881 Q2215.56 221.659 2221.37 221.659 L2227.34 221.659 L2227.34 221.242 Q2227.34 218.303 2225.4 216.705 Q2223.48 215.085 2219.98 215.085 Q2217.76 215.085 2215.65 215.617 Q2213.55 216.15 2211.6 217.215 L2211.6 213.279 Q2213.94 212.377 2216.14 211.937 Q2218.34 211.474 2220.42 211.474 Q2226.05 211.474 2228.83 214.391 Q2231.6 217.307 2231.6 223.233 Z" fill="#000000" fill-rule="evenodd" fill-opacity="1" /></svg>
