<?xml version="1.0" encoding="utf-8"?>
<svg xmlns="http://www.w3.org/2000/svg" xmlns:xlink="http://www.w3.org/1999/xlink" width="600" height="400" viewBox="0 0 2400 1600">
<defs>
  <clipPath id="clip990">
    <rect x="0" y="0" width="2400" height="1600"/>
  </clipPath>
</defs>
<path clip-path="url(#clip990)" d="
M0 1600 L2400 1600 L2400 0 L0 0  Z
  " fill="#ffffff" fill-rule="evenodd" fill-opacity="1"/>
<defs>
  <clipPath id="clip991">
    <rect x="480" y="0" width="1681" height="1600"/>
  </clipPath>
</defs>
<path clip-path="url(#clip990)" d="
M166.205 1486.45 L2352.76 1486.45 L2352.76 123.472 L166.205 123.472  Z
  " fill="#ffffff" fill-rule="evenodd" fill-opacity="1"/>
<defs>
  <clipPath id="clip992">
    <rect x="166" y="123" width="2188" height="1364"/>
  </clipPath>
</defs>
<polyline clip-path="url(#clip992)" style="stroke:#000000; stroke-width:2; stroke-opacity:0.1; fill:none" points="
  228.088,1486.45 228.088,123.472 
  "/>
<polyline clip-path="url(#clip992)" style="stroke:#000000; stroke-width:2; stroke-opacity:0.1; fill:none" points="
  743.784,1486.45 743.784,123.472 
  "/>
<polyline clip-path="url(#clip992)" style="stroke:#000000; stroke-width:2; stroke-opacity:0.1; fill:none" points="
  1259.48,1486.45 1259.48,123.472 
  "/>
<polyline clip-path="url(#clip992)" style="stroke:#000000; stroke-width:2; stroke-opacity:0.1; fill:none" points="
  1775.18,1486.45 1775.18,123.472 
  "/>
<polyline clip-path="url(#clip992)" style="stroke:#000000; stroke-width:2; stroke-opacity:0.1; fill:none" points="
  2290.87,1486.45 2290.87,123.472 
  "/>
<polyline clip-path="url(#clip992)" style="stroke:#000000; stroke-width:2; stroke-opacity:0.1; fill:none" points="
  166.205,1447.87 2352.76,1447.87 
  "/>
<polyline clip-path="url(#clip992)" style="stroke:#000000; stroke-width:2; stroke-opacity:0.1; fill:none" points="
  166.205,1179.99 2352.76,1179.99 
  "/>
<polyline clip-path="url(#clip992)" style="stroke:#000000; stroke-width:2; stroke-opacity:0.1; fill:none" points="
  166.205,912.112 2352.76,912.112 
  "/>
<polyline clip-path="url(#clip992)" style="stroke:#000000; stroke-width:2; stroke-opacity:0.1; fill:none" points="
  166.205,644.232 2352.76,644.232 
  "/>
<polyline clip-path="url(#clip992)" style="stroke:#000000; stroke-width:2; stroke-opacity:0.1; fill:none" points="
  166.205,376.351 2352.76,376.351 
  "/>
<polyline clip-path="url(#clip990)" style="stroke:#000000; stroke-width:4; stroke-opacity:1; fill:none" points="
  166.205,1486.45 2352.76,1486.45 
  "/>
<polyline clip-path="url(#clip990)" style="stroke:#000000; stroke-width:4; stroke-opacity:1; fill:none" points="
  166.205,1486.45 166.205,123.472 
  "/>
<polyline clip-path="url(#clip990)" style="stroke:#000000; stroke-width:4; stroke-opacity:1; fill:none" points="
  228.088,1486.45 228.088,1470.09 
  "/>
<polyline clip-path="url(#clip990)" style="stroke:#000000; stroke-width:4; stroke-opacity:1; fill:none" points="
  743.784,1486.45 743.784,1470.09 
  "/>
<polyline clip-path="url(#clip990)" style="stroke:#000000; stroke-width:4; stroke-opacity:1; fill:none" points="
  1259.48,1486.45 1259.48,1470.09 
  "/>
<polyline clip-path="url(#clip990)" style="stroke:#000000; stroke-width:4; stroke-opacity:1; fill:none" points="
  1775.18,1486.45 1775.18,1470.09 
  "/>
<polyline clip-path="url(#clip990)" style="stroke:#000000; stroke-width:4; stroke-opacity:1; fill:none" points="
  2290.87,1486.45 2290.87,1470.09 
  "/>
<polyline clip-path="url(#clip990)" style="stroke:#000000; stroke-width:4; stroke-opacity:1; fill:none" points="
  166.205,1447.87 192.443,1447.87 
  "/>
<polyline clip-path="url(#clip990)" style="stroke:#000000; stroke-width:4; stroke-opacity:1; fill:none" points="
  166.205,1179.99 192.443,1179.99 
  "/>
<polyline clip-path="url(#clip990)" style="stroke:#000000; stroke-width:4; stroke-opacity:1; fill:none" points="
  166.205,912.112 192.443,912.112 
  "/>
<polyline clip-path="url(#clip990)" style="stroke:#000000; stroke-width:4; stroke-opacity:1; fill:none" points="
  166.205,644.232 192.443,644.232 
  "/>
<polyline clip-path="url(#clip990)" style="stroke:#000000; stroke-width:4; stroke-opacity:1; fill:none" points="
  166.205,376.351 192.443,376.351 
  "/>
<path clip-path="url(#clip990)" d="M 0 0 M208.1 1525.04 L220.577 1525.04 L220.577 1528.83 L208.1 1528.83 L208.1 1525.04 Z" fill="#000000" fill-rule="evenodd" fill-opacity="1" /><path clip-path="url(#clip990)" d="M 0 0 M238.493 1509.43 L226.688 1527.88 L238.493 1527.88 L238.493 1509.43 M237.266 1505.36 L243.146 1505.36 L243.146 1527.88 L248.077 1527.88 L248.077 1531.77 L243.146 1531.77 L243.146 1539.92 L238.493 1539.92 L238.493 1531.77 L222.891 1531.77 L222.891 1527.26 L237.266 1505.36 Z" fill="#000000" fill-rule="evenodd" fill-opacity="1" /><path clip-path="url(#clip990)" d="M 0 0 M724.838 1525.04 L737.314 1525.04 L737.314 1528.83 L724.838 1528.83 L724.838 1525.04 Z" fill="#000000" fill-rule="evenodd" fill-opacity="1" /><path clip-path="url(#clip990)" d="M 0 0 M746.412 1535.98 L762.731 1535.98 L762.731 1539.92 L740.787 1539.92 L740.787 1535.98 Q743.449 1533.23 748.032 1528.6 Q752.638 1523.95 753.819 1522.61 Q756.064 1520.08 756.944 1518.35 Q757.847 1516.59 757.847 1514.9 Q757.847 1512.14 755.902 1510.41 Q753.981 1508.67 750.879 1508.67 Q748.68 1508.67 746.226 1509.43 Q743.796 1510.2 741.018 1511.75 L741.018 1507.03 Q743.842 1505.89 746.296 1505.31 Q748.749 1504.73 750.787 1504.73 Q756.157 1504.73 759.351 1507.42 Q762.546 1510.11 762.546 1514.6 Q762.546 1516.73 761.736 1518.65 Q760.948 1520.54 758.842 1523.14 Q758.263 1523.81 755.161 1527.03 Q752.06 1530.22 746.412 1535.98 Z" fill="#000000" fill-rule="evenodd" fill-opacity="1" /><path clip-path="url(#clip990)" d="M 0 0 M1259.48 1508.44 Q1255.87 1508.44 1254.04 1512 Q1252.23 1515.55 1252.23 1522.67 Q1252.23 1529.78 1254.04 1533.35 Q1255.87 1536.89 1259.48 1536.89 Q1263.11 1536.89 1264.92 1533.35 Q1266.75 1529.78 1266.75 1522.67 Q1266.75 1515.55 1264.92 1512 Q1263.11 1508.44 1259.48 1508.44 M1259.48 1504.73 Q1265.29 1504.73 1268.35 1509.34 Q1271.42 1513.92 1271.42 1522.67 Q1271.42 1531.4 1268.35 1536.01 Q1265.29 1540.59 1259.48 1540.59 Q1253.67 1540.59 1250.59 1536.01 Q1247.54 1531.4 1247.54 1522.67 Q1247.54 1513.92 1250.59 1509.34 Q1253.67 1504.73 1259.48 1504.73 Z" fill="#000000" fill-rule="evenodd" fill-opacity="1" /><path clip-path="url(#clip990)" d="M 0 0 M1769.83 1535.98 L1786.15 1535.98 L1786.15 1539.92 L1764.2 1539.92 L1764.2 1535.98 Q1766.87 1533.23 1771.45 1528.6 Q1776.06 1523.95 1777.24 1522.61 Q1779.48 1520.08 1780.36 1518.35 Q1781.26 1516.59 1781.26 1514.9 Q1781.26 1512.14 1779.32 1510.41 Q1777.4 1508.67 1774.3 1508.67 Q1772.1 1508.67 1769.64 1509.43 Q1767.21 1510.2 1764.44 1511.75 L1764.44 1507.03 Q1767.26 1505.89 1769.71 1505.31 Q1772.17 1504.73 1774.2 1504.73 Q1779.57 1504.73 1782.77 1507.42 Q1785.96 1510.11 1785.96 1514.6 Q1785.96 1516.73 1785.15 1518.65 Q1784.37 1520.54 1782.26 1523.14 Q1781.68 1523.81 1778.58 1527.03 Q1775.48 1530.22 1769.83 1535.98 Z" fill="#000000" fill-rule="evenodd" fill-opacity="1" /><path clip-path="url(#clip990)" d="M 0 0 M2293.88 1509.43 L2282.08 1527.88 L2293.88 1527.88 L2293.88 1509.43 M2292.65 1505.36 L2298.53 1505.36 L2298.53 1527.88 L2303.46 1527.88 L2303.46 1531.77 L2298.53 1531.77 L2298.53 1539.92 L2293.88 1539.92 L2293.88 1531.77 L2278.28 1531.77 L2278.28 1527.26 L2292.65 1505.36 Z" fill="#000000" fill-rule="evenodd" fill-opacity="1" /><path clip-path="url(#clip990)" d="M 0 0 M130.26 1433.67 Q126.649 1433.67 124.82 1437.24 Q123.015 1440.78 123.015 1447.91 Q123.015 1455.01 124.82 1458.58 Q126.649 1462.12 130.26 1462.12 Q133.895 1462.12 135.7 1458.58 Q137.529 1455.01 137.529 1447.91 Q137.529 1440.78 135.7 1437.24 Q133.895 1433.67 130.26 1433.67 M130.26 1429.97 Q136.07 1429.97 139.126 1434.57 Q142.205 1439.16 142.205 1447.91 Q142.205 1456.63 139.126 1461.24 Q136.07 1465.82 130.26 1465.82 Q124.45 1465.82 121.371 1461.24 Q118.316 1456.63 118.316 1447.91 Q118.316 1439.16 121.371 1434.57 Q124.45 1429.97 130.26 1429.97 Z" fill="#000000" fill-rule="evenodd" fill-opacity="1" /><path clip-path="url(#clip990)" d="M 0 0 M71.8578 1193.34 L88.1772 1193.34 L88.1772 1197.27 L66.2328 1197.27 L66.2328 1193.34 Q68.8949 1190.58 73.4782 1185.95 Q78.0846 1181.3 79.2652 1179.96 Q81.5105 1177.43 82.3902 1175.7 Q83.2929 1173.94 83.2929 1172.25 Q83.2929 1169.5 81.3485 1167.76 Q79.4272 1166.02 76.3254 1166.02 Q74.1263 1166.02 71.6726 1166.79 Q69.2421 1167.55 66.4643 1169.1 L66.4643 1164.38 Q69.2884 1163.25 71.7421 1162.67 Q74.1958 1162.09 76.2328 1162.09 Q81.6031 1162.09 84.7976 1164.77 Q87.992 1167.46 87.992 1171.95 Q87.992 1174.08 87.1818 1176 Q86.3948 1177.9 84.2883 1180.49 Q83.7096 1181.16 80.6078 1184.38 Q77.5059 1187.57 71.8578 1193.34 Z" fill="#000000" fill-rule="evenodd" fill-opacity="1" /><path clip-path="url(#clip990)" d="M 0 0 M103.247 1165.79 Q99.6354 1165.79 97.8068 1169.36 Q96.0012 1172.9 96.0012 1180.03 Q96.0012 1187.13 97.8068 1190.7 Q99.6354 1194.24 103.247 1194.24 Q106.881 1194.24 108.686 1190.7 Q110.515 1187.13 110.515 1180.03 Q110.515 1172.9 108.686 1169.36 Q106.881 1165.79 103.247 1165.79 M103.247 1162.09 Q109.057 1162.09 112.112 1166.69 Q115.191 1171.28 115.191 1180.03 Q115.191 1188.75 112.112 1193.36 Q109.057 1197.94 103.247 1197.94 Q97.4364 1197.94 94.3577 1193.36 Q91.3022 1188.75 91.3022 1180.03 Q91.3022 1171.28 94.3577 1166.69 Q97.4364 1162.09 103.247 1162.09 Z" fill="#000000" fill-rule="evenodd" fill-opacity="1" /><path clip-path="url(#clip990)" d="M 0 0 M130.26 1165.79 Q126.649 1165.79 124.82 1169.36 Q123.015 1172.9 123.015 1180.03 Q123.015 1187.13 124.82 1190.7 Q126.649 1194.24 130.26 1194.24 Q133.895 1194.24 135.7 1190.7 Q137.529 1187.13 137.529 1180.03 Q137.529 1172.9 135.7 1169.36 Q133.895 1165.79 130.26 1165.79 M130.26 1162.09 Q136.07 1162.09 139.126 1166.69 Q142.205 1171.28 142.205 1180.03 Q142.205 1188.75 139.126 1193.36 Q136.07 1197.94 130.26 1197.94 Q124.45 1197.94 121.371 1193.36 Q118.316 1188.75 118.316 1180.03 Q118.316 1171.28 121.371 1166.69 Q124.45 1162.09 130.26 1162.09 Z" fill="#000000" fill-rule="evenodd" fill-opacity="1" /><path clip-path="url(#clip990)" d="M 0 0 M78.5939 898.906 L66.7884 917.355 L78.5939 917.355 L78.5939 898.906 M77.367 894.832 L83.2466 894.832 L83.2466 917.355 L88.1772 917.355 L88.1772 921.244 L83.2466 921.244 L83.2466 929.392 L78.5939 929.392 L78.5939 921.244 L62.9921 921.244 L62.9921 916.73 L77.367 894.832 Z" fill="#000000" fill-rule="evenodd" fill-opacity="1" /><path clip-path="url(#clip990)" d="M 0 0 M103.247 897.911 Q99.6354 897.911 97.8068 901.476 Q96.0012 905.017 96.0012 912.147 Q96.0012 919.253 97.8068 922.818 Q99.6354 926.36 103.247 926.36 Q106.881 926.36 108.686 922.818 Q110.515 919.253 110.515 912.147 Q110.515 905.017 108.686 901.476 Q106.881 897.911 103.247 897.911 M103.247 894.207 Q109.057 894.207 112.112 898.814 Q115.191 903.397 115.191 912.147 Q115.191 920.874 112.112 925.48 Q109.057 930.063 103.247 930.063 Q97.4364 930.063 94.3577 925.48 Q91.3022 920.874 91.3022 912.147 Q91.3022 903.397 94.3577 898.814 Q97.4364 894.207 103.247 894.207 Z" fill="#000000" fill-rule="evenodd" fill-opacity="1" /><path clip-path="url(#clip990)" d="M 0 0 M130.26 897.911 Q126.649 897.911 124.82 901.476 Q123.015 905.017 123.015 912.147 Q123.015 919.253 124.82 922.818 Q126.649 926.36 130.26 926.36 Q133.895 926.36 135.7 922.818 Q137.529 919.253 137.529 912.147 Q137.529 905.017 135.7 901.476 Q133.895 897.911 130.26 897.911 M130.26 894.207 Q136.07 894.207 139.126 898.814 Q142.205 903.397 142.205 912.147 Q142.205 920.874 139.126 925.48 Q136.07 930.063 130.26 930.063 Q124.45 930.063 121.371 925.48 Q118.316 920.874 118.316 912.147 Q118.316 903.397 121.371 898.814 Q124.45 894.207 130.26 894.207 Z" fill="#000000" fill-rule="evenodd" fill-opacity="1" /><path clip-path="url(#clip990)" d="M 0 0 M76.6495 642.368 Q73.5013 642.368 71.6495 644.521 Q69.8208 646.674 69.8208 650.424 Q69.8208 654.151 71.6495 656.327 Q73.5013 658.479 76.6495 658.479 Q79.7976 658.479 81.6263 656.327 Q83.4781 654.151 83.4781 650.424 Q83.4781 646.674 81.6263 644.521 Q79.7976 642.368 76.6495 642.368 M85.9318 627.716 L85.9318 631.975 Q84.1726 631.142 82.367 630.702 Q80.5846 630.262 78.8254 630.262 Q74.1958 630.262 71.7421 633.387 Q69.3115 636.512 68.9643 642.831 Q70.33 640.817 72.3902 639.753 Q74.4504 638.665 76.9272 638.665 Q82.1355 638.665 85.1448 641.836 Q88.1772 644.984 88.1772 650.424 Q88.1772 655.748 85.029 658.965 Q81.8809 662.183 76.6495 662.183 Q70.6541 662.183 67.4828 657.6 Q64.3116 652.993 64.3116 644.266 Q64.3116 636.072 68.2004 631.211 Q72.0893 626.327 78.6402 626.327 Q80.3994 626.327 82.1818 626.674 Q83.9874 627.021 85.9318 627.716 Z" fill="#000000" fill-rule="evenodd" fill-opacity="1" /><path clip-path="url(#clip990)" d="M 0 0 M103.247 630.03 Q99.6354 630.03 97.8068 633.595 Q96.0012 637.137 96.0012 644.266 Q96.0012 651.373 97.8068 654.938 Q99.6354 658.479 103.247 658.479 Q106.881 658.479 108.686 654.938 Q110.515 651.373 110.515 644.266 Q110.515 637.137 108.686 633.595 Q106.881 630.03 103.247 630.03 M103.247 626.327 Q109.057 626.327 112.112 630.933 Q115.191 635.516 115.191 644.266 Q115.191 652.993 112.112 657.6 Q109.057 662.183 103.247 662.183 Q97.4364 662.183 94.3577 657.6 Q91.3022 652.993 91.3022 644.266 Q91.3022 635.516 94.3577 630.933 Q97.4364 626.327 103.247 626.327 Z" fill="#000000" fill-rule="evenodd" fill-opacity="1" /><path clip-path="url(#clip990)" d="M 0 0 M130.26 630.03 Q126.649 630.03 124.82 633.595 Q123.015 637.137 123.015 644.266 Q123.015 651.373 124.82 654.938 Q126.649 658.479 130.26 658.479 Q133.895 658.479 135.7 654.938 Q137.529 651.373 137.529 644.266 Q137.529 637.137 135.7 633.595 Q133.895 630.03 130.26 630.03 M130.26 626.327 Q136.07 626.327 139.126 630.933 Q142.205 635.516 142.205 644.266 Q142.205 652.993 139.126 657.6 Q136.07 662.183 130.26 662.183 Q124.45 662.183 121.371 657.6 Q118.316 652.993 118.316 644.266 Q118.316 635.516 121.371 630.933 Q124.45 626.327 130.26 626.327 Z" fill="#000000" fill-rule="evenodd" fill-opacity="1" /><path clip-path="url(#clip990)" d="M 0 0 M76.3254 377.219 Q72.9921 377.219 71.0708 379.002 Q69.1726 380.784 69.1726 383.909 Q69.1726 387.034 71.0708 388.816 Q72.9921 390.599 76.3254 390.599 Q79.6587 390.599 81.58 388.816 Q83.5013 387.011 83.5013 383.909 Q83.5013 380.784 81.58 379.002 Q79.6819 377.219 76.3254 377.219 M71.6495 375.229 Q68.6402 374.488 66.9504 372.428 Q65.2838 370.368 65.2838 367.405 Q65.2838 363.261 68.2236 360.854 Q71.1865 358.446 76.3254 358.446 Q81.4874 358.446 84.4272 360.854 Q87.367 363.261 87.367 367.405 Q87.367 370.368 85.6772 372.428 Q84.0105 374.488 81.0244 375.229 Q84.404 376.016 86.279 378.307 Q88.1772 380.599 88.1772 383.909 Q88.1772 388.932 85.0985 391.617 Q82.0429 394.303 76.3254 394.303 Q70.6078 394.303 67.5291 391.617 Q64.4736 388.932 64.4736 383.909 Q64.4736 380.599 66.3717 378.307 Q68.2699 376.016 71.6495 375.229 M69.9365 367.844 Q69.9365 370.53 71.6032 372.034 Q73.293 373.539 76.3254 373.539 Q79.3346 373.539 81.0244 372.034 Q82.7374 370.53 82.7374 367.844 Q82.7374 365.159 81.0244 363.655 Q79.3346 362.15 76.3254 362.15 Q73.293 362.15 71.6032 363.655 Q69.9365 365.159 69.9365 367.844 Z" fill="#000000" fill-rule="evenodd" fill-opacity="1" /><path clip-path="url(#clip990)" d="M 0 0 M103.247 362.15 Q99.6354 362.15 97.8068 365.715 Q96.0012 369.256 96.0012 376.386 Q96.0012 383.492 97.8068 387.057 Q99.6354 390.599 103.247 390.599 Q106.881 390.599 108.686 387.057 Q110.515 383.492 110.515 376.386 Q110.515 369.256 108.686 365.715 Q106.881 362.15 103.247 362.15 M103.247 358.446 Q109.057 358.446 112.112 363.053 Q115.191 367.636 115.191 376.386 Q115.191 385.113 112.112 389.719 Q109.057 394.303 103.247 394.303 Q97.4364 394.303 94.3577 389.719 Q91.3022 385.113 91.3022 376.386 Q91.3022 367.636 94.3577 363.053 Q97.4364 358.446 103.247 358.446 Z" fill="#000000" fill-rule="evenodd" fill-opacity="1" /><path clip-path="url(#clip990)" d="M 0 0 M130.26 362.15 Q126.649 362.15 124.82 365.715 Q123.015 369.256 123.015 376.386 Q123.015 383.492 124.82 387.057 Q126.649 390.599 130.26 390.599 Q133.895 390.599 135.7 387.057 Q137.529 383.492 137.529 376.386 Q137.529 369.256 135.7 365.715 Q133.895 362.15 130.26 362.15 M130.26 358.446 Q136.07 358.446 139.126 363.053 Q142.205 367.636 142.205 376.386 Q142.205 385.113 139.126 389.719 Q136.07 394.303 130.26 394.303 Q124.45 394.303 121.371 389.719 Q118.316 385.113 118.316 376.386 Q118.316 367.636 121.371 363.053 Q124.45 358.446 130.26 358.446 Z" fill="#000000" fill-rule="evenodd" fill-opacity="1" /><path clip-path="url(#clip990)" d="M 0 0 M697.458 18.8205 L697.458 65.8515 L707.342 65.8515 Q719.859 65.8515 725.652 60.1802 Q731.485 54.509 731.485 42.2752 Q731.485 30.1225 725.652 24.4918 Q719.859 18.8205 707.342 18.8205 L697.458 18.8205 M689.275 12.096 L706.086 12.096 Q723.667 12.096 731.891 19.4281 Q740.114 26.7198 740.114 42.2752 Q740.114 57.9117 731.85 65.2439 Q723.586 72.576 706.086 72.576 L689.275 72.576 L689.275 12.096 Z" fill="#000000" fill-rule="evenodd" fill-opacity="1" /><path clip-path="url(#clip990)" d="M 0 0 M768.551 49.7694 Q759.518 49.7694 756.034 51.8354 Q752.55 53.9013 752.55 58.8839 Q752.55 62.8538 755.143 65.2034 Q757.776 67.5124 762.272 67.5124 Q768.47 67.5124 772.197 63.1374 Q775.964 58.7219 775.964 51.4303 L775.964 49.7694 L768.551 49.7694 M783.418 46.6907 L783.418 72.576 L775.964 72.576 L775.964 65.6895 Q773.412 69.8214 769.604 71.8063 Q765.797 73.7508 760.287 73.7508 Q753.32 73.7508 749.188 69.8619 Q745.096 65.9325 745.096 59.3701 Q745.096 51.7138 750.201 47.825 Q755.345 43.9361 765.513 43.9361 L775.964 43.9361 L775.964 43.2069 Q775.964 38.0623 772.562 35.2672 Q769.199 32.4315 763.082 32.4315 Q759.194 32.4315 755.507 33.3632 Q751.821 34.295 748.418 36.1584 L748.418 29.2718 Q752.51 27.692 756.358 26.9223 Q760.206 26.1121 763.852 26.1121 Q773.696 26.1121 778.557 31.2163 Q783.418 36.3204 783.418 46.6907 Z" fill="#000000" fill-rule="evenodd" fill-opacity="1" /><path clip-path="url(#clip990)" d="M 0 0 M798.609 14.324 L798.609 27.2059 L813.962 27.2059 L813.962 32.9987 L798.609 32.9987 L798.609 57.6282 Q798.609 63.1779 800.108 64.7578 Q801.647 66.3376 806.306 66.3376 L813.962 66.3376 L813.962 72.576 L806.306 72.576 Q797.677 72.576 794.396 69.3758 Q791.115 66.1351 791.115 57.6282 L791.115 32.9987 L785.646 32.9987 L785.646 27.2059 L791.115 27.2059 L791.115 14.324 L798.609 14.324 Z" fill="#000000" fill-rule="evenodd" fill-opacity="1" /><path clip-path="url(#clip990)" d="M 0 0 M842.399 49.7694 Q833.366 49.7694 829.882 51.8354 Q826.398 53.9013 826.398 58.8839 Q826.398 62.8538 828.991 65.2034 Q831.624 67.5124 836.12 67.5124 Q842.318 67.5124 846.045 63.1374 Q849.812 58.7219 849.812 51.4303 L849.812 49.7694 L842.399 49.7694 M857.266 46.6907 L857.266 72.576 L849.812 72.576 L849.812 65.6895 Q847.26 69.8214 843.452 71.8063 Q839.645 73.7508 834.135 73.7508 Q827.168 73.7508 823.036 69.8619 Q818.944 65.9325 818.944 59.3701 Q818.944 51.7138 824.049 47.825 Q829.193 43.9361 839.361 43.9361 L849.812 43.9361 L849.812 43.2069 Q849.812 38.0623 846.41 35.2672 Q843.047 32.4315 836.93 32.4315 Q833.042 32.4315 829.355 33.3632 Q825.669 34.295 822.266 36.1584 L822.266 29.2718 Q826.358 27.692 830.206 26.9223 Q834.054 26.1121 837.7 26.1121 Q847.544 26.1121 852.405 31.2163 Q857.266 36.3204 857.266 46.6907 Z" fill="#000000" fill-rule="evenodd" fill-opacity="1" /><path clip-path="url(#clip990)" d="M 0 0 M912.075 49.7694 Q903.041 49.7694 899.557 51.8354 Q896.074 53.9013 896.074 58.8839 Q896.074 62.8538 898.666 65.2034 Q901.299 67.5124 905.796 67.5124 Q911.994 67.5124 915.721 63.1374 Q919.488 58.7219 919.488 51.4303 L919.488 49.7694 L912.075 49.7694 M926.942 46.6907 L926.942 72.576 L919.488 72.576 L919.488 65.6895 Q916.936 69.8214 913.128 71.8063 Q909.32 73.7508 903.811 73.7508 Q896.843 73.7508 892.711 69.8619 Q888.62 65.9325 888.62 59.3701 Q888.62 51.7138 893.724 47.825 Q898.869 43.9361 909.037 43.9361 L919.488 43.9361 L919.488 43.2069 Q919.488 38.0623 916.085 35.2672 Q912.723 32.4315 906.606 32.4315 Q902.717 32.4315 899.031 33.3632 Q895.345 34.295 891.942 36.1584 L891.942 29.2718 Q896.033 27.692 899.882 26.9223 Q903.73 26.1121 907.376 26.1121 Q917.219 26.1121 922.08 31.2163 Q926.942 36.3204 926.942 46.6907 Z" fill="#000000" fill-rule="evenodd" fill-opacity="1" /><path clip-path="url(#clip990)" d="M 0 0 M972.474 45.1919 L972.474 72.576 L965.02 72.576 L965.02 45.4349 Q965.02 38.994 962.508 35.7938 Q959.997 32.5936 954.974 32.5936 Q948.938 32.5936 945.454 36.4419 Q941.97 40.2903 941.97 46.9338 L941.97 72.576 L934.476 72.576 L934.476 27.2059 L941.97 27.2059 L941.97 34.2544 Q944.644 30.163 948.249 28.1376 Q951.895 26.1121 956.635 26.1121 Q964.453 26.1121 968.463 30.9732 Q972.474 35.7938 972.474 45.1919 Z" fill="#000000" fill-rule="evenodd" fill-opacity="1" /><path clip-path="url(#clip990)" d="M 0 0 M1010.15 34.0924 L1010.15 9.54393 L1017.6 9.54393 L1017.6 72.576 L1010.15 72.576 L1010.15 65.7705 Q1007.8 69.8214 1004.19 71.8063 Q1000.63 73.7508 995.604 73.7508 Q987.381 73.7508 982.196 67.1883 Q977.051 60.6258 977.051 49.9314 Q977.051 39.2371 982.196 32.6746 Q987.381 26.1121 995.604 26.1121 Q1000.63 26.1121 1004.19 28.0971 Q1007.8 30.0415 1010.15 34.0924 M984.748 49.9314 Q984.748 58.1548 988.11 62.8538 Q991.513 67.5124 997.427 67.5124 Q1003.34 67.5124 1006.74 62.8538 Q1010.15 58.1548 1010.15 49.9314 Q1010.15 41.7081 1006.74 37.0496 Q1003.34 32.3505 997.427 32.3505 Q991.513 32.3505 988.11 37.0496 Q984.748 41.7081 984.748 49.9314 Z" fill="#000000" fill-rule="evenodd" fill-opacity="1" /><path clip-path="url(#clip990)" d="M 0 0 M1043.73 12.096 L1094.89 12.096 L1094.89 18.9825 L1073.42 18.9825 L1073.42 72.576 L1065.2 72.576 L1065.2 18.9825 L1043.73 18.9825 L1043.73 12.096 Z" fill="#000000" fill-rule="evenodd" fill-opacity="1" /><path clip-path="url(#clip990)" d="M 0 0 M1116.81 34.1734 Q1115.55 33.4443 1114.05 33.1202 Q1112.59 32.7556 1110.81 32.7556 Q1104.49 32.7556 1101.09 36.8875 Q1097.73 40.9789 1097.73 48.6757 L1097.73 72.576 L1090.23 72.576 L1090.23 27.2059 L1097.73 27.2059 L1097.73 34.2544 Q1100.08 30.1225 1103.84 28.1376 Q1107.61 26.1121 1113 26.1121 Q1113.77 26.1121 1114.7 26.2337 Q1115.63 26.3147 1116.77 26.5172 L1116.81 34.1734 Z" fill="#000000" fill-rule="evenodd" fill-opacity="1" /><path clip-path="url(#clip990)" d="M 0 0 M1123.86 54.671 L1123.86 27.2059 L1131.31 27.2059 L1131.31 54.3874 Q1131.31 60.8284 1133.82 64.0691 Q1136.33 67.2693 1141.36 67.2693 Q1147.39 67.2693 1150.88 63.421 Q1154.4 59.5726 1154.4 52.9291 L1154.4 27.2059 L1161.85 27.2059 L1161.85 72.576 L1154.4 72.576 L1154.4 65.6084 Q1151.69 69.7404 1148.08 71.7658 Q1144.52 73.7508 1139.78 73.7508 Q1131.96 73.7508 1127.91 68.8897 Q1123.86 64.0286 1123.86 54.671 M1142.61 26.1121 L1142.61 26.1121 Z" fill="#000000" fill-rule="evenodd" fill-opacity="1" /><path clip-path="url(#clip990)" d="M 0 0 M1208.48 48.0275 L1208.48 51.6733 L1174.21 51.6733 Q1174.69 59.3701 1178.83 63.421 Q1183 67.4314 1190.41 67.4314 Q1194.71 67.4314 1198.72 66.3781 Q1202.77 65.3249 1206.74 63.2184 L1206.74 70.267 Q1202.73 71.9684 1198.51 72.8596 Q1194.3 73.7508 1189.97 73.7508 Q1179.11 73.7508 1172.75 67.4314 Q1166.43 61.1119 1166.43 50.3365 Q1166.43 39.1965 1172.43 32.6746 Q1178.46 26.1121 1188.67 26.1121 Q1197.83 26.1121 1203.13 32.0264 Q1208.48 37.9003 1208.48 48.0275 M1201.03 45.84 Q1200.94 39.7232 1197.58 36.0774 Q1194.26 32.4315 1188.75 32.4315 Q1182.51 32.4315 1178.75 35.9558 Q1175.02 39.4801 1174.45 45.8805 L1201.03 45.84 Z" fill="#000000" fill-rule="evenodd" fill-opacity="1" /><path clip-path="url(#clip990)" d="M 0 0 M1279.25 14.0809 L1279.25 22.0612 Q1274.59 19.8332 1270.46 18.7395 Q1266.33 17.6457 1262.48 17.6457 Q1255.79 17.6457 1252.15 20.2383 Q1248.54 22.8309 1248.54 27.611 Q1248.54 31.6214 1250.93 33.6873 Q1253.36 35.7128 1260.09 36.9686 L1265.03 37.9813 Q1274.19 39.7232 1278.52 44.1387 Q1282.89 48.5136 1282.89 55.8863 Q1282.89 64.6767 1276.98 69.2137 Q1271.11 73.7508 1259.72 73.7508 Q1255.43 73.7508 1250.57 72.7785 Q1245.75 71.8063 1240.56 69.9024 L1240.56 61.4765 Q1245.55 64.2716 1250.33 65.6895 Q1255.11 67.1073 1259.72 67.1073 Q1266.73 67.1073 1270.54 64.3527 Q1274.35 61.598 1274.35 56.4939 Q1274.35 52.0379 1271.59 49.5264 Q1268.88 47.0148 1262.64 45.759 L1257.66 44.7868 Q1248.5 42.9639 1244.41 39.075 Q1240.32 35.1862 1240.32 28.2591 Q1240.32 20.2383 1245.95 15.6203 Q1251.62 11.0023 1261.55 11.0023 Q1265.8 11.0023 1270.22 11.7719 Q1274.63 12.5416 1279.25 14.0809 Z" fill="#000000" fill-rule="evenodd" fill-opacity="1" /><path clip-path="url(#clip990)" d="M 0 0 M1298.09 14.324 L1298.09 27.2059 L1313.44 27.2059 L1313.44 32.9987 L1298.09 32.9987 L1298.09 57.6282 Q1298.09 63.1779 1299.58 64.7578 Q1301.12 66.3376 1305.78 66.3376 L1313.44 66.3376 L1313.44 72.576 L1305.78 72.576 Q1297.15 72.576 1293.87 69.3758 Q1290.59 66.1351 1290.59 57.6282 L1290.59 32.9987 L1285.12 32.9987 L1285.12 27.2059 L1290.59 27.2059 L1290.59 14.324 L1298.09 14.324 Z" fill="#000000" fill-rule="evenodd" fill-opacity="1" /><path clip-path="url(#clip990)" d="M 0 0 M1341.88 49.7694 Q1332.84 49.7694 1329.36 51.8354 Q1325.87 53.9013 1325.87 58.8839 Q1325.87 62.8538 1328.47 65.2034 Q1331.1 67.5124 1335.6 67.5124 Q1341.79 67.5124 1345.52 63.1374 Q1349.29 58.7219 1349.29 51.4303 L1349.29 49.7694 L1341.88 49.7694 M1356.74 46.6907 L1356.74 72.576 L1349.29 72.576 L1349.29 65.6895 Q1346.74 69.8214 1342.93 71.8063 Q1339.12 73.7508 1333.61 73.7508 Q1326.64 73.7508 1322.51 69.8619 Q1318.42 65.9325 1318.42 59.3701 Q1318.42 51.7138 1323.53 47.825 Q1328.67 43.9361 1338.84 43.9361 L1349.29 43.9361 L1349.29 43.2069 Q1349.29 38.0623 1345.89 35.2672 Q1342.52 32.4315 1336.41 32.4315 Q1332.52 32.4315 1328.83 33.3632 Q1325.15 34.295 1321.74 36.1584 L1321.74 29.2718 Q1325.83 27.692 1329.68 26.9223 Q1333.53 26.1121 1337.18 26.1121 Q1347.02 26.1121 1351.88 31.2163 Q1356.74 36.3204 1356.74 46.6907 Z" fill="#000000" fill-rule="evenodd" fill-opacity="1" /><path clip-path="url(#clip990)" d="M 0 0 M1371.93 14.324 L1371.93 27.2059 L1387.29 27.2059 L1387.29 32.9987 L1371.93 32.9987 L1371.93 57.6282 Q1371.93 63.1779 1373.43 64.7578 Q1374.97 66.3376 1379.63 66.3376 L1387.29 66.3376 L1387.29 72.576 L1379.63 72.576 Q1371 72.576 1367.72 69.3758 Q1364.44 66.1351 1364.44 57.6282 L1364.44 32.9987 L1358.97 32.9987 L1358.97 27.2059 L1364.44 27.2059 L1364.44 14.324 L1371.93 14.324 Z" fill="#000000" fill-rule="evenodd" fill-opacity="1" /><path clip-path="url(#clip990)" d="M 0 0 M1395.1 27.2059 L1402.56 27.2059 L1402.56 72.576 L1395.1 72.576 L1395.1 27.2059 M1395.1 9.54393 L1402.56 9.54393 L1402.56 18.9825 L1395.1 18.9825 L1395.1 9.54393 Z" fill="#000000" fill-rule="evenodd" fill-opacity="1" /><path clip-path="url(#clip990)" d="M 0 0 M1439.3 28.5427 L1439.3 35.5912 Q1436.14 33.9709 1432.74 33.1607 Q1429.33 32.3505 1425.69 32.3505 Q1420.14 32.3505 1417.34 34.0519 Q1414.59 35.7533 1414.59 39.156 Q1414.59 41.7486 1416.57 43.2475 Q1418.56 44.7058 1424.55 46.0426 L1427.11 46.6097 Q1435.05 48.3111 1438.37 51.4303 Q1441.73 54.509 1441.73 60.0587 Q1441.73 66.3781 1436.71 70.0644 Q1431.72 73.7508 1422.97 73.7508 Q1419.33 73.7508 1415.36 73.0216 Q1411.43 72.3329 1407.05 70.9151 L1407.05 63.2184 Q1411.19 65.3654 1415.2 66.4591 Q1419.21 67.5124 1423.14 67.5124 Q1428.4 67.5124 1431.24 65.73 Q1434.07 63.9071 1434.07 60.6258 Q1434.07 57.5877 1432.01 55.9673 Q1429.98 54.3469 1423.06 52.8481 L1420.46 52.2405 Q1413.54 50.7821 1410.46 47.7845 Q1407.38 44.7463 1407.38 39.4801 Q1407.38 33.0797 1411.92 29.5959 Q1416.45 26.1121 1424.8 26.1121 Q1428.93 26.1121 1432.58 26.7198 Q1436.22 27.3274 1439.3 28.5427 Z" fill="#000000" fill-rule="evenodd" fill-opacity="1" /><path clip-path="url(#clip990)" d="M 0 0 M1456.92 14.324 L1456.92 27.2059 L1472.27 27.2059 L1472.27 32.9987 L1456.92 32.9987 L1456.92 57.6282 Q1456.92 63.1779 1458.42 64.7578 Q1459.96 66.3376 1464.62 66.3376 L1472.27 66.3376 L1472.27 72.576 L1464.62 72.576 Q1455.99 72.576 1452.71 69.3758 Q1449.43 66.1351 1449.43 57.6282 L1449.43 32.9987 L1443.96 32.9987 L1443.96 27.2059 L1449.43 27.2059 L1449.43 14.324 L1456.92 14.324 Z" fill="#000000" fill-rule="evenodd" fill-opacity="1" /><path clip-path="url(#clip990)" d="M 0 0 M1480.09 27.2059 L1487.55 27.2059 L1487.55 72.576 L1480.09 72.576 L1480.09 27.2059 M1480.09 9.54393 L1487.55 9.54393 L1487.55 18.9825 L1480.09 18.9825 L1480.09 9.54393 Z" fill="#000000" fill-rule="evenodd" fill-opacity="1" /><path clip-path="url(#clip990)" d="M 0 0 M1528.01 28.9478 L1528.01 35.9153 Q1524.86 34.1734 1521.65 33.3227 Q1518.5 32.4315 1515.25 32.4315 Q1508 32.4315 1503.99 37.0496 Q1499.98 41.6271 1499.98 49.9314 Q1499.98 58.2358 1503.99 62.8538 Q1508 67.4314 1515.25 67.4314 Q1518.5 67.4314 1521.65 66.5807 Q1524.86 65.6895 1528.01 63.9476 L1528.01 70.8341 Q1524.9 72.2924 1521.53 73.0216 Q1518.21 73.7508 1514.44 73.7508 Q1504.2 73.7508 1498.16 67.3098 Q1492.12 60.8689 1492.12 49.9314 Q1492.12 38.832 1498.2 32.472 Q1504.32 26.1121 1514.93 26.1121 Q1518.37 26.1121 1521.65 26.8413 Q1524.94 27.5299 1528.01 28.9478 Z" fill="#000000" fill-rule="evenodd" fill-opacity="1" /><path clip-path="url(#clip990)" d="M 0 0 M1556.45 49.7694 Q1547.42 49.7694 1543.93 51.8354 Q1540.45 53.9013 1540.45 58.8839 Q1540.45 62.8538 1543.04 65.2034 Q1545.68 67.5124 1550.17 67.5124 Q1556.37 67.5124 1560.1 63.1374 Q1563.87 58.7219 1563.87 51.4303 L1563.87 49.7694 L1556.45 49.7694 M1571.32 46.6907 L1571.32 72.576 L1563.87 72.576 L1563.87 65.6895 Q1561.31 69.8214 1557.51 71.8063 Q1553.7 73.7508 1548.19 73.7508 Q1541.22 73.7508 1537.09 69.8619 Q1533 65.9325 1533 59.3701 Q1533 51.7138 1538.1 47.825 Q1543.25 43.9361 1553.41 43.9361 L1563.87 43.9361 L1563.87 43.2069 Q1563.87 38.0623 1560.46 35.2672 Q1557.1 32.4315 1550.98 32.4315 Q1547.09 32.4315 1543.41 33.3632 Q1539.72 34.295 1536.32 36.1584 L1536.32 29.2718 Q1540.41 27.692 1544.26 26.9223 Q1548.11 26.1121 1551.75 26.1121 Q1561.6 26.1121 1566.46 31.2163 Q1571.32 36.3204 1571.32 46.6907 Z" fill="#000000" fill-rule="evenodd" fill-opacity="1" /><path clip-path="url(#clip990)" d="M 0 0 M1579.14 9.54393 L1586.59 9.54393 L1586.59 72.576 L1579.14 72.576 L1579.14 9.54393 Z" fill="#000000" fill-rule="evenodd" fill-opacity="1" /><path clip-path="url(#clip990)" d="M 0 0 M1621.1 12.096 L1633.3 12.096 L1648.73 53.2532 L1664.25 12.096 L1676.44 12.096 L1676.44 72.576 L1668.46 72.576 L1668.46 19.4686 L1652.86 60.9499 L1644.64 60.9499 L1629.04 19.4686 L1629.04 72.576 L1621.1 72.576 L1621.1 12.096 Z" fill="#000000" fill-rule="evenodd" fill-opacity="1" /><path clip-path="url(#clip990)" d="M 0 0 M1701.84 32.4315 Q1695.84 32.4315 1692.36 37.1306 Q1688.88 41.7891 1688.88 49.9314 Q1688.88 58.0738 1692.32 62.7728 Q1695.8 67.4314 1701.84 67.4314 Q1707.79 67.4314 1711.28 62.7323 Q1714.76 58.0333 1714.76 49.9314 Q1714.76 41.8701 1711.28 37.1711 Q1707.79 32.4315 1701.84 32.4315 M1701.84 26.1121 Q1711.56 26.1121 1717.11 32.4315 Q1722.66 38.7509 1722.66 49.9314 Q1722.66 61.0714 1717.11 67.4314 Q1711.56 73.7508 1701.84 73.7508 Q1692.08 73.7508 1686.53 67.4314 Q1681.02 61.0714 1681.02 49.9314 Q1681.02 38.7509 1686.53 32.4315 Q1692.08 26.1121 1701.84 26.1121 Z" fill="#000000" fill-rule="evenodd" fill-opacity="1" /><path clip-path="url(#clip990)" d="M 0 0 M1760.33 34.0924 L1760.33 9.54393 L1767.79 9.54393 L1767.79 72.576 L1760.33 72.576 L1760.33 65.7705 Q1757.98 69.8214 1754.38 71.8063 Q1750.81 73.7508 1745.79 73.7508 Q1737.57 73.7508 1732.38 67.1883 Q1727.24 60.6258 1727.24 49.9314 Q1727.24 39.2371 1732.38 32.6746 Q1737.57 26.1121 1745.79 26.1121 Q1750.81 26.1121 1754.38 28.0971 Q1757.98 30.0415 1760.33 34.0924 M1734.93 49.9314 Q1734.93 58.1548 1738.3 62.8538 Q1741.7 67.5124 1747.61 67.5124 Q1753.53 67.5124 1756.93 62.8538 Q1760.33 58.1548 1760.33 49.9314 Q1760.33 41.7081 1756.93 37.0496 Q1753.53 32.3505 1747.61 32.3505 Q1741.7 32.3505 1738.3 37.0496 Q1734.93 41.7081 1734.93 49.9314 Z" fill="#000000" fill-rule="evenodd" fill-opacity="1" /><path clip-path="url(#clip990)" d="M 0 0 M1814.41 48.0275 L1814.41 51.6733 L1780.14 51.6733 Q1780.63 59.3701 1784.76 63.421 Q1788.93 67.4314 1796.35 67.4314 Q1800.64 67.4314 1804.65 66.3781 Q1808.7 65.3249 1812.67 63.2184 L1812.67 70.267 Q1808.66 71.9684 1804.45 72.8596 Q1800.24 73.7508 1795.9 73.7508 Q1785.04 73.7508 1778.68 67.4314 Q1772.37 61.1119 1772.37 50.3365 Q1772.37 39.1965 1778.36 32.6746 Q1784.4 26.1121 1794.6 26.1121 Q1803.76 26.1121 1809.07 32.0264 Q1814.41 37.9003 1814.41 48.0275 M1806.96 45.84 Q1806.88 39.7232 1803.52 36.0774 Q1800.19 32.4315 1794.69 32.4315 Q1788.45 32.4315 1784.68 35.9558 Q1780.95 39.4801 1780.39 45.8805 L1806.96 45.84 Z" fill="#000000" fill-rule="evenodd" fill-opacity="1" /><path clip-path="url(#clip990)" d="M 0 0 M1822.23 9.54393 L1829.69 9.54393 L1829.69 72.576 L1822.23 72.576 L1822.23 9.54393 Z" fill="#000000" fill-rule="evenodd" fill-opacity="1" /><polyline clip-path="url(#clip992)" style="stroke:#009af9; stroke-width:4; stroke-opacity:1; fill:none" points="
  743.784,1447.87 743.784,1340.72 769.569,1340.72 769.569,1287.14 795.354,1287.14 795.354,1327.33 821.139,1327.33 821.139,1260.36 846.923,1260.36 846.923,1166.6 
  872.708,1166.6 872.708,1113.02 898.493,1113.02 898.493,1086.23 924.278,1086.23 924.278,938.9 950.063,938.9 975.847,938.9 975.847,804.96 
  1001.63,804.96 1001.63,1072.84 1027.42,1072.84 1027.42,831.748 1053.2,831.748 1053.2,979.082 1078.99,979.082 1078.99,1005.87 1104.77,1005.87 1104.77,1059.45 
  1130.56,1059.45 1130.56,1099.63 1156.34,1099.63 1156.34,1166.6 1182.13,1166.6 1182.13,1354.11 1207.91,1354.11 1207.91,1287.14 1233.7,1287.14 1233.7,1340.72 
  1259.48,1340.72 1259.48,1394.3 1285.27,1394.3 1285.27,1434.48 1311.05,1434.48 1311.05,1421.09 1336.83,1421.09 1336.83,1434.48 1362.62,1434.48 
  1388.4,1434.48 1388.4,1447.87 1414.19,1447.87 1414.19,1434.48 1439.97,1434.48 1439.97,1367.51 1465.76,1367.51 1465.76,1380.9 1491.54,1380.9 1491.54,1367.51 
  1517.33,1367.51 1517.33,1327.33 1543.11,1327.33 1543.11,1153.2 1568.9,1153.2 1568.9,1113.02 1594.68,1113.02 1594.68,925.506 1620.47,925.506 1620.47,871.93 
  1646.25,871.93 1646.25,523.686 1672.04,523.686 1672.04,590.656 1697.82,590.656 1697.82,751.384 1723.61,751.384 1723.61,470.109 1749.39,470.109 1749.39,389.745 
  1775.18,389.745 1775.18,162.047 1800.96,162.047 1800.96,590.656 1826.75,590.656 1826.75,362.957 1852.53,362.957 1852.53,590.656 1878.32,590.656 1878.32,630.838 
  1904.1,630.838 1904.1,938.9 1929.89,938.9 1929.89,1086.23 1955.67,1086.23 1955.67,1019.26 1981.45,1019.26 1981.45,1260.36 2007.24,1260.36 2007.24,1367.51 
  2033.02,1367.51 2033.02,1300.54 2058.81,1300.54 2058.81,1367.51 2084.59,1367.51 2084.59,1407.69 2110.38,1407.69 2110.38,1421.09 2136.16,1421.09 2136.16,1434.48 
  2161.95,1434.48 2187.73,1434.48 2187.73,1447.87 2213.52,1447.87 2239.3,1447.87 2265.09,1447.87 
  2290.87,1447.87 
  "/>
<polyline clip-path="url(#clip992)" style="stroke:#e26f46; stroke-width:4; stroke-opacity:1; fill:none" points="
  228.088,1447.87 230.667,1447.87 233.245,1447.87 235.824,1447.87 238.402,1447.87 240.981,1447.87 243.559,1447.87 246.138,1447.87 248.716,1447.87 251.295,1447.87 
  253.873,1447.87 256.451,1447.87 259.03,1447.87 261.608,1447.87 264.187,1447.87 266.765,1447.87 269.344,1447.87 271.922,1447.87 274.501,1447.87 277.079,1447.87 
  279.658,1447.87 282.236,1447.87 284.815,1447.87 287.393,1447.87 289.972,1447.87 292.55,1447.87 295.129,1447.87 297.707,1447.87 300.286,1447.87 302.864,1447.87 
  305.443,1447.87 308.021,1447.87 310.6,1447.87 313.178,1447.87 315.757,1447.87 318.335,1447.87 320.913,1447.87 323.492,1447.87 326.07,1447.87 328.649,1447.87 
  331.227,1447.87 333.806,1447.87 336.384,1447.87 338.963,1447.87 341.541,1447.87 344.12,1447.87 346.698,1447.87 349.277,1447.87 351.855,1447.87 354.434,1447.87 
  357.012,1447.87 359.591,1447.87 362.169,1447.87 364.748,1447.87 367.326,1447.87 369.905,1447.87 372.483,1447.87 375.062,1447.87 377.64,1447.87 380.219,1447.87 
  382.797,1447.87 385.375,1447.87 387.954,1447.87 390.532,1447.87 393.111,1447.87 395.689,1447.86 398.268,1447.86 400.846,1447.86 403.425,1447.86 406.003,1447.86 
  408.582,1447.86 411.16,1447.86 413.739,1447.86 416.317,1447.86 418.896,1447.85 421.474,1447.85 424.053,1447.85 426.631,1447.85 429.21,1447.85 431.788,1447.84 
  434.367,1447.84 436.945,1447.84 439.524,1447.83 442.102,1447.83 444.681,1447.83 447.259,1447.82 449.837,1447.82 452.416,1447.81 454.994,1447.81 457.573,1447.8 
  460.151,1447.79 462.73,1447.79 465.308,1447.78 467.887,1447.77 470.465,1447.76 473.044,1447.75 475.622,1447.74 478.201,1447.73 480.779,1447.72 483.358,1447.71 
  485.936,1447.69 488.515,1447.68 491.093,1447.66 493.672,1447.65 496.25,1447.63 498.829,1447.61 501.407,1447.59 503.986,1447.56 506.564,1447.54 509.143,1447.51 
  511.721,1447.48 514.299,1447.45 516.878,1447.42 519.456,1447.38 522.035,1447.34 524.613,1447.3 527.192,1447.26 529.77,1447.21 532.349,1447.16 534.927,1447.11 
  537.506,1447.05 540.084,1446.99 542.663,1446.93 545.241,1446.86 547.82,1446.78 550.398,1446.7 552.977,1446.62 555.555,1446.53 558.134,1446.43 560.712,1446.33 
  563.291,1446.22 565.869,1446.11 568.448,1445.98 571.026,1445.85 573.605,1445.71 576.183,1445.57 578.762,1445.41 581.34,1445.24 583.918,1445.07 586.497,1444.88 
  589.075,1444.68 591.654,1444.47 594.232,1444.25 596.811,1444.01 599.389,1443.76 601.968,1443.5 604.546,1443.22 607.125,1442.92 609.703,1442.61 612.282,1442.28 
  614.86,1441.94 617.439,1441.57 620.017,1441.19 622.596,1440.78 625.174,1440.35 627.753,1439.9 630.331,1439.43 632.91,1438.93 635.488,1438.4 638.067,1437.85 
  640.645,1437.27 643.224,1436.66 645.802,1436.02 648.38,1435.35 650.959,1434.65 653.537,1433.92 656.116,1433.14 658.694,1432.34 661.273,1431.49 663.851,1430.61 
  666.43,1429.68 669.008,1428.71 671.587,1427.7 674.165,1426.65 676.744,1425.55 679.322,1424.4 681.901,1423.2 684.479,1421.95 687.058,1420.65 689.636,1419.29 
  692.215,1417.88 694.793,1416.41 697.372,1414.88 699.95,1413.29 702.529,1411.64 705.107,1409.93 707.686,1408.15 710.264,1406.31 712.842,1404.4 715.421,1402.41 
  717.999,1400.36 720.578,1398.23 723.156,1396.03 725.735,1393.75 728.313,1391.4 730.892,1388.96 733.47,1386.45 736.049,1383.85 738.627,1381.17 741.206,1378.41 
  743.784,1375.56 746.363,1372.62 748.941,1369.6 751.52,1366.48 754.098,1363.28 756.677,1359.99 759.255,1356.6 761.834,1353.12 764.412,1349.55 766.991,1345.89 
  769.569,1342.13 772.148,1338.27 774.726,1334.32 777.304,1330.28 779.883,1326.14 782.461,1321.9 785.04,1317.57 787.618,1313.15 790.197,1308.63 792.775,1304.01 
  795.354,1299.31 797.932,1294.51 800.511,1289.61 803.089,1284.63 805.668,1279.56 808.246,1274.4 810.825,1269.15 813.403,1263.82 815.982,1258.4 818.56,1252.9 
  821.139,1247.33 823.717,1241.67 826.296,1235.95 828.874,1230.15 831.453,1224.28 834.031,1218.34 836.61,1212.34 839.188,1206.28 841.766,1200.17 844.345,1194 
  846.923,1187.78 849.502,1181.52 852.08,1175.21 854.659,1168.87 857.237,1162.49 859.816,1156.08 862.394,1149.65 864.973,1143.2 867.551,1136.73 870.13,1130.26 
  872.708,1123.78 875.287,1117.3 877.865,1110.82 880.444,1104.35 883.022,1097.91 885.601,1091.48 888.179,1085.08 890.758,1078.71 893.336,1072.38 895.915,1066.09 
  898.493,1059.86 901.072,1053.68 903.65,1047.56 906.228,1041.51 908.807,1035.54 911.385,1029.64 913.964,1023.83 916.542,1018.11 919.121,1012.48 921.699,1006.96 
  924.278,1001.55 926.856,996.254 929.435,991.076 932.013,986.023 934.592,981.101 937.17,976.316 939.749,971.672 942.327,967.175 944.906,962.829 947.484,958.639 
  950.063,954.611 952.641,950.749 955.22,947.056 957.798,943.538 960.377,940.199 962.955,937.041 965.534,934.07 968.112,931.288 970.69,928.699 973.269,926.305 
  975.847,924.11 978.426,922.116 981.004,920.325 983.583,918.74 986.161,917.362 988.74,916.194 991.318,915.236 993.897,914.49 996.475,913.956 999.054,913.636 
  1001.63,913.529 1004.21,913.636 1006.79,913.956 1009.37,914.49 1011.95,915.236 1014.52,916.194 1017.1,917.362 1019.68,918.74 1022.26,920.325 1024.84,922.115 
  1027.42,924.11 1030,926.305 1032.57,928.698 1035.15,931.288 1037.73,934.07 1040.31,937.041 1042.89,940.199 1045.47,943.538 1048.04,947.056 1050.62,950.749 
  1053.2,954.611 1055.78,958.639 1058.36,962.829 1060.94,967.174 1063.52,971.672 1066.09,976.316 1068.67,981.101 1071.25,986.023 1073.83,991.075 1076.41,996.253 
  1078.99,1001.55 1081.57,1006.96 1084.14,1012.48 1086.72,1018.11 1089.3,1023.83 1091.88,1029.64 1094.46,1035.54 1097.04,1041.51 1099.61,1047.56 1102.19,1053.68 
  1104.77,1059.86 1107.35,1066.09 1109.93,1072.38 1112.51,1078.71 1115.09,1085.08 1117.66,1091.48 1120.24,1097.9 1122.82,1104.35 1125.4,1110.82 1127.98,1117.29 
  1130.56,1123.77 1133.13,1130.25 1135.71,1136.73 1138.29,1143.19 1140.87,1149.64 1143.45,1156.07 1146.03,1162.48 1148.61,1168.86 1151.18,1175.2 1153.76,1181.51 
  1156.34,1187.77 1158.92,1193.99 1161.5,1200.15 1164.08,1206.27 1166.65,1212.33 1169.23,1218.32 1171.81,1224.26 1174.39,1230.13 1176.97,1235.92 1179.55,1241.65 
  1182.13,1247.3 1184.7,1252.87 1187.28,1258.37 1189.86,1263.78 1192.44,1269.11 1195.02,1274.35 1197.6,1279.51 1200.18,1284.58 1202.75,1289.56 1205.33,1294.44 
  1207.91,1299.24 1210.49,1303.94 1213.07,1308.55 1215.65,1313.06 1218.22,1317.48 1220.8,1321.8 1223.38,1326.03 1225.96,1330.16 1228.54,1334.19 1231.12,1338.13 
  1233.7,1341.97 1236.27,1345.71 1238.85,1349.37 1241.43,1352.92 1244.01,1356.38 1246.59,1359.75 1249.17,1363.02 1251.74,1366.2 1254.32,1369.29 1256.9,1372.29 
  1259.48,1375.2 1262.06,1378.02 1264.64,1380.75 1267.22,1383.4 1269.79,1385.95 1272.37,1388.43 1274.95,1390.82 1277.53,1393.13 1280.11,1395.36 1282.69,1397.51 
  1285.27,1399.58 1287.84,1401.57 1290.42,1403.49 1293,1405.33 1295.58,1407.1 1298.16,1408.79 1300.74,1410.42 1303.31,1411.98 1305.89,1413.46 1308.47,1414.88 
  1311.05,1416.24 1313.63,1417.53 1316.21,1418.75 1318.79,1419.92 1321.36,1421.02 1323.94,1422.06 1326.52,1423.04 1329.1,1423.96 1331.68,1424.82 1334.26,1425.63 
  1336.83,1426.38 1339.41,1427.07 1341.99,1427.71 1344.57,1428.3 1347.15,1428.82 1349.73,1429.3 1352.31,1429.72 1354.88,1430.09 1357.46,1430.41 1360.04,1430.67 
  1362.62,1430.88 1365.2,1431.04 1367.78,1431.15 1370.35,1431.2 1372.93,1431.2 1375.51,1431.15 1378.09,1431.04 1380.67,1430.88 1383.25,1430.66 1385.83,1430.39 
  1388.4,1430.07 1390.98,1429.68 1393.56,1429.24 1396.14,1428.74 1398.72,1428.17 1401.3,1427.55 1403.88,1426.87 1406.45,1426.12 1409.03,1425.3 1411.61,1424.42 
  1414.19,1423.48 1416.77,1422.46 1419.35,1421.37 1421.92,1420.2 1424.5,1418.97 1427.08,1417.65 1429.66,1416.26 1432.24,1414.78 1434.82,1413.22 1437.4,1411.57 
  1439.97,1409.84 1442.55,1408.01 1445.13,1406.09 1447.71,1404.08 1450.29,1401.96 1452.87,1399.75 1455.44,1397.43 1458.02,1395.01 1460.6,1392.47 1463.18,1389.82 
  1465.76,1387.06 1468.34,1384.18 1470.92,1381.18 1473.49,1378.06 1476.07,1374.8 1478.65,1371.42 1481.23,1367.91 1483.81,1364.25 1486.39,1360.46 1488.97,1356.53 
  1491.54,1352.45 1494.12,1348.23 1496.7,1343.85 1499.28,1339.32 1501.86,1334.63 1504.44,1329.78 1507.01,1324.77 1509.59,1319.6 1512.17,1314.26 1514.75,1308.75 
  1517.33,1303.06 1519.91,1297.2 1522.49,1291.17 1525.06,1284.95 1527.64,1278.56 1530.22,1271.98 1532.8,1265.22 1535.38,1258.27 1537.96,1251.14 1540.53,1243.81 
  1543.11,1236.3 1545.69,1228.6 1548.27,1220.71 1550.85,1212.62 1553.43,1204.35 1556.01,1195.88 1558.58,1187.23 1561.16,1178.38 1563.74,1169.34 1566.32,1160.12 
  1568.9,1150.7 1571.48,1141.11 1574.05,1131.32 1576.63,1121.36 1579.21,1111.22 1581.79,1100.9 1584.37,1090.41 1586.95,1079.74 1589.53,1068.91 1592.1,1057.92 
  1594.68,1046.77 1597.26,1035.46 1599.84,1024.01 1602.42,1012.41 1605,1000.67 1607.58,988.802 1610.15,976.804 1612.73,964.687 1615.31,952.456 1617.89,940.118 
  1620.47,927.681 1623.05,915.153 1625.62,902.541 1628.2,889.853 1630.78,877.099 1633.36,864.286 1635.94,851.425 1638.52,838.524 1641.1,825.592 1643.67,812.641 
  1646.25,799.679 1648.83,786.717 1651.41,773.765 1653.99,760.835 1656.57,747.937 1659.14,735.082 1661.72,722.28 1664.3,709.545 1666.88,696.886 1669.46,684.316 
  1672.04,671.845 1674.62,659.487 1677.19,647.252 1679.77,635.152 1682.35,623.199 1684.93,611.405 1687.51,599.782 1690.09,588.341 1692.66,577.095 1695.24,566.053 
  1697.82,555.229 1700.4,544.634 1702.98,534.278 1705.56,524.173 1708.14,514.33 1710.71,504.759 1713.29,495.471 1715.87,486.476 1718.45,477.784 1721.03,469.406 
  1723.61,461.349 1726.19,453.624 1728.76,446.24 1731.34,439.204 1733.92,432.524 1736.5,426.21 1739.08,420.267 1741.66,414.703 1744.23,409.524 1746.81,404.737 
  1749.39,400.346 1751.97,396.358 1754.55,392.777 1757.13,389.607 1759.71,386.852 1762.28,384.515 1764.86,382.599 1767.44,381.107 1770.02,380.039 1772.6,379.398 
  1775.18,379.185 1777.75,379.398 1780.33,380.039 1782.91,381.107 1785.49,382.599 1788.07,384.515 1790.65,386.852 1793.23,389.607 1795.8,392.777 1798.38,396.358 
  1800.96,400.346 1803.54,404.737 1806.12,409.524 1808.7,414.703 1811.28,420.267 1813.85,426.21 1816.43,432.524 1819.01,439.204 1821.59,446.24 1824.17,453.624 
  1826.75,461.349 1829.32,469.406 1831.9,477.785 1834.48,486.476 1837.06,495.471 1839.64,504.759 1842.22,514.33 1844.8,524.173 1847.37,534.278 1849.95,544.634 
  1852.53,555.23 1855.11,566.054 1857.69,577.095 1860.27,588.342 1862.84,599.783 1865.42,611.406 1868,623.2 1870.58,635.152 1873.16,647.252 1875.74,659.487 
  1878.32,671.846 1880.89,684.316 1883.47,696.887 1886.05,709.546 1888.63,722.281 1891.21,735.083 1893.79,747.938 1896.36,760.837 1898.94,773.767 1901.52,786.719 
  1904.1,799.681 1906.68,812.643 1909.26,825.595 1911.84,838.526 1914.41,851.428 1916.99,864.29 1919.57,877.102 1922.15,889.857 1924.73,902.545 1927.31,915.158 
  1929.89,927.687 1932.46,940.124 1935.04,952.462 1937.62,964.694 1940.2,976.812 1942.78,988.81 1945.36,1000.68 1947.93,1012.42 1950.51,1024.02 1953.09,1035.48 
  1955.67,1046.78 1958.25,1057.94 1960.83,1068.93 1963.41,1079.76 1965.98,1090.43 1968.56,1100.92 1971.14,1111.24 1973.72,1121.39 1976.3,1131.35 1978.88,1141.14 
  1981.45,1150.74 1984.03,1160.15 1986.61,1169.38 1989.19,1178.42 1991.77,1187.27 1994.35,1195.93 1996.93,1204.4 1999.5,1212.68 2002.08,1220.77 2004.66,1228.67 
  2007.24,1236.38 2009.82,1243.9 2012.4,1251.23 2014.97,1258.37 2017.55,1265.33 2020.13,1272.1 2022.71,1278.69 2025.29,1285.1 2027.87,1291.32 2030.45,1297.37 
  2033.02,1303.24 2035.6,1308.94 2038.18,1314.47 2040.76,1319.83 2043.34,1325.02 2045.92,1330.05 2048.5,1334.92 2051.07,1339.63 2053.65,1344.18 2056.23,1348.59 
  2058.81,1352.84 2061.39,1356.95 2063.97,1360.92 2066.54,1364.74 2069.12,1368.43 2071.7,1371.99 2074.28,1375.42 2076.86,1378.72 2079.44,1381.89 2082.02,1384.95 
  2084.59,1387.88 2087.17,1390.71 2089.75,1393.42 2092.33,1396.02 2094.91,1398.52 2097.49,1400.92 2100.06,1403.22 2102.64,1405.42 2105.22,1407.53 2107.8,1409.55 
  2110.38,1411.49 2112.96,1413.34 2115.54,1415.11 2118.11,1416.8 2120.69,1418.41 2123.27,1419.96 2125.85,1421.43 2128.43,1422.84 2131.01,1424.18 2133.59,1425.45 
  2136.16,1426.67 2138.74,1427.83 2141.32,1428.93 2143.9,1429.98 2146.48,1430.98 2149.06,1431.93 2151.63,1432.83 2154.21,1433.69 2156.79,1434.5 2159.37,1435.27 
  2161.95,1436 2164.53,1436.69 2167.11,1437.35 2169.68,1437.97 2172.26,1438.56 2174.84,1439.12 2177.42,1439.65 2180,1440.15 2182.58,1440.62 2185.15,1441.07 
  2187.73,1441.49 2190.31,1441.88 2192.89,1442.26 2195.47,1442.61 2198.05,1442.94 2200.63,1443.26 2203.2,1443.55 2205.78,1443.83 2208.36,1444.09 2210.94,1444.34 
  2213.52,1444.57 2216.1,1444.79 2218.67,1444.99 2221.25,1445.19 2223.83,1445.37 2226.41,1445.54 2228.99,1445.69 2231.57,1445.84 2234.15,1445.98 2236.72,1446.11 
  2239.3,1446.23 2241.88,1446.35 2244.46,1446.45 2247.04,1446.55 2249.62,1446.65 2252.2,1446.74 2254.77,1446.82 2257.35,1446.89 2259.93,1446.96 2262.51,1447.03 
  2265.09,1447.09 2267.67,1447.15 2270.24,1447.2 2272.82,1447.25 2275.4,1447.3 2277.98,1447.34 2280.56,1447.38 2283.14,1447.42 2285.72,1447.45 2288.29,1447.48 
  2290.87,1447.51 
  "/>
<path clip-path="url(#clip990)" d="
M1925.95 350.345 L2279.87 350.345 L2279.87 168.905 L1925.95 168.905  Z
  " fill="#ffffff" fill-rule="evenodd" fill-opacity="1"/>
<polyline clip-path="url(#clip990)" style="stroke:#000000; stroke-width:4; stroke-opacity:1; fill:none" points="
  1925.95,350.345 2279.87,350.345 2279.87,168.905 1925.95,168.905 1925.95,350.345 
  "/>
<polyline clip-path="url(#clip990)" style="stroke:#009af9; stroke-width:4; stroke-opacity:1; fill:none" points="
  1950.24,229.385 2096.01,229.385 
  "/>
<path clip-path="url(#clip990)" d="M 0 0 M2124.99 215.947 L2124.99 242.822 L2130.63 242.822 Q2137.79 242.822 2141.1 239.581 Q2144.43 236.341 2144.43 229.35 Q2144.43 222.406 2141.1 219.188 Q2137.79 215.947 2130.63 215.947 L2124.99 215.947 M2120.31 212.105 L2129.92 212.105 Q2139.96 212.105 2144.66 216.294 Q2149.36 220.461 2149.36 229.35 Q2149.36 238.285 2144.64 242.475 Q2139.92 246.665 2129.92 246.665 L2120.31 246.665 L2120.31 212.105 Z" fill="#000000" fill-rule="evenodd" fill-opacity="1" /><path clip-path="url(#clip990)" d="M 0 0 M2165.61 233.632 Q2160.45 233.632 2158.46 234.813 Q2156.47 235.993 2156.47 238.841 Q2156.47 241.109 2157.95 242.452 Q2159.45 243.771 2162.02 243.771 Q2165.56 243.771 2167.69 241.271 Q2169.85 238.748 2169.85 234.581 L2169.85 233.632 L2165.61 233.632 M2174.11 231.873 L2174.11 246.665 L2169.85 246.665 L2169.85 242.729 Q2168.39 245.091 2166.21 246.225 Q2164.04 247.336 2160.89 247.336 Q2156.91 247.336 2154.55 245.114 Q2152.21 242.868 2152.21 239.118 Q2152.21 234.743 2155.12 232.521 Q2158.06 230.299 2163.87 230.299 L2169.85 230.299 L2169.85 229.882 Q2169.85 226.943 2167.9 225.345 Q2165.98 223.725 2162.48 223.725 Q2160.26 223.725 2158.16 224.257 Q2156.05 224.79 2154.11 225.855 L2154.11 221.919 Q2156.44 221.017 2158.64 220.577 Q2160.84 220.114 2162.92 220.114 Q2168.55 220.114 2171.33 223.031 Q2174.11 225.947 2174.11 231.873 Z" fill="#000000" fill-rule="evenodd" fill-opacity="1" /><path clip-path="url(#clip990)" d="M 0 0 M2182.79 213.378 L2182.79 220.739 L2191.56 220.739 L2191.56 224.049 L2182.79 224.049 L2182.79 238.123 Q2182.79 241.294 2183.64 242.197 Q2184.52 243.1 2187.18 243.1 L2191.56 243.1 L2191.56 246.665 L2187.18 246.665 Q2182.25 246.665 2180.38 244.836 Q2178.5 242.984 2178.5 238.123 L2178.5 224.049 L2175.38 224.049 L2175.38 220.739 L2178.5 220.739 L2178.5 213.378 L2182.79 213.378 Z" fill="#000000" fill-rule="evenodd" fill-opacity="1" /><path clip-path="url(#clip990)" d="M 0 0 M2207.81 233.632 Q2202.65 233.632 2200.66 234.813 Q2198.67 235.993 2198.67 238.841 Q2198.67 241.109 2200.15 242.452 Q2201.65 243.771 2204.22 243.771 Q2207.76 243.771 2209.89 241.271 Q2212.04 238.748 2212.04 234.581 L2212.04 233.632 L2207.81 233.632 M2216.3 231.873 L2216.3 246.665 L2212.04 246.665 L2212.04 242.729 Q2210.59 245.091 2208.41 246.225 Q2206.23 247.336 2203.09 247.336 Q2199.11 247.336 2196.74 245.114 Q2194.41 242.868 2194.41 239.118 Q2194.41 234.743 2197.32 232.521 Q2200.26 230.299 2206.07 230.299 L2212.04 230.299 L2212.04 229.882 Q2212.04 226.943 2210.1 225.345 Q2208.18 223.725 2204.68 223.725 Q2202.46 223.725 2200.36 224.257 Q2198.25 224.79 2196.3 225.855 L2196.3 221.919 Q2198.64 221.017 2200.84 220.577 Q2203.04 220.114 2205.12 220.114 Q2210.75 220.114 2213.53 223.031 Q2216.3 225.947 2216.3 231.873 Z" fill="#000000" fill-rule="evenodd" fill-opacity="1" /><polyline clip-path="url(#clip990)" style="stroke:#e26f46; stroke-width:4; stroke-opacity:1; fill:none" points="
  1950.24,289.865 2096.01,289.865 
  "/>
<path clip-path="url(#clip990)" d="M 0 0 M2120.31 272.585 L2149.55 272.585 L2149.55 276.52 L2137.28 276.52 L2137.28 307.145 L2132.58 307.145 L2132.58 276.52 L2120.31 276.52 L2120.31 272.585 Z" fill="#000000" fill-rule="evenodd" fill-opacity="1" /><path clip-path="url(#clip990)" d="M 0 0 M2162.07 285.2 Q2161.35 284.784 2160.49 284.598 Q2159.66 284.39 2158.64 284.39 Q2155.03 284.39 2153.09 286.751 Q2151.17 289.089 2151.17 293.487 L2151.17 307.145 L2146.88 307.145 L2146.88 281.219 L2151.17 281.219 L2151.17 285.247 Q2152.51 282.886 2154.66 281.751 Q2156.81 280.594 2159.89 280.594 Q2160.33 280.594 2160.86 280.663 Q2161.4 280.71 2162.05 280.825 L2162.07 285.2 Z" fill="#000000" fill-rule="evenodd" fill-opacity="1" /><path clip-path="url(#clip990)" d="M 0 0 M2166.1 296.913 L2166.1 281.219 L2170.36 281.219 L2170.36 296.751 Q2170.36 300.432 2171.79 302.284 Q2173.23 304.112 2176.1 304.112 Q2179.55 304.112 2181.54 301.913 Q2183.55 299.714 2183.55 295.918 L2183.55 281.219 L2187.81 281.219 L2187.81 307.145 L2183.55 307.145 L2183.55 303.163 Q2182 305.524 2179.94 306.682 Q2177.9 307.816 2175.19 307.816 Q2170.73 307.816 2168.41 305.038 Q2166.1 302.26 2166.1 296.913 M2176.81 280.594 L2176.81 280.594 Z" fill="#000000" fill-rule="evenodd" fill-opacity="1" /><path clip-path="url(#clip990)" d="M 0 0 M2196.49 273.858 L2196.49 281.219 L2205.26 281.219 L2205.26 284.529 L2196.49 284.529 L2196.49 298.603 Q2196.49 301.774 2197.35 302.677 Q2198.23 303.58 2200.89 303.58 L2205.26 303.58 L2205.26 307.145 L2200.89 307.145 Q2195.96 307.145 2194.08 305.316 Q2192.21 303.464 2192.21 298.603 L2192.21 284.529 L2189.08 284.529 L2189.08 281.219 L2192.21 281.219 L2192.21 273.858 L2196.49 273.858 Z" fill="#000000" fill-rule="evenodd" fill-opacity="1" /><path clip-path="url(#clip990)" d="M 0 0 M2231.28 291.497 L2231.28 307.145 L2227.02 307.145 L2227.02 291.635 Q2227.02 287.955 2225.59 286.126 Q2224.15 284.298 2221.28 284.298 Q2217.83 284.298 2215.84 286.497 Q2213.85 288.696 2213.85 292.492 L2213.85 307.145 L2209.57 307.145 L2209.57 271.126 L2213.85 271.126 L2213.85 285.247 Q2215.38 282.909 2217.44 281.751 Q2219.52 280.594 2222.23 280.594 Q2226.7 280.594 2228.99 283.372 Q2231.28 286.126 2231.28 291.497 Z" fill="#000000" fill-rule="evenodd" fill-opacity="1" /></svg>
