<?xml version="1.0" encoding="utf-8"?>
<svg xmlns="http://www.w3.org/2000/svg" xmlns:xlink="http://www.w3.org/1999/xlink" width="600" height="400" viewBox="0 0 2400 1600">
<defs>
  <clipPath id="clip960">
    <rect x="0" y="0" width="2400" height="1600"/>
  </clipPath>
</defs>
<path clip-path="url(#clip960)" d="
M0 1600 L2400 1600 L2400 0 L0 0  Z
  " fill="#ffffff" fill-rule="evenodd" fill-opacity="1"/>
<defs>
  <clipPath id="clip961">
    <rect x="480" y="0" width="1681" height="1600"/>
  </clipPath>
</defs>
<path clip-path="url(#clip960)" d="
M166.205 1486.45 L2352.76 1486.45 L2352.76 123.472 L166.205 123.472  Z
  " fill="#ffffff" fill-rule="evenodd" fill-opacity="1"/>
<defs>
  <clipPath id="clip962">
    <rect x="166" y="123" width="2188" height="1364"/>
  </clipPath>
</defs>
<polyline clip-path="url(#clip962)" style="stroke:#000000; stroke-width:2; stroke-opacity:0.1; fill:none" points="
  228.088,1486.45 228.088,123.472 
  "/>
<polyline clip-path="url(#clip962)" style="stroke:#000000; stroke-width:2; stroke-opacity:0.1; fill:none" points="
  571.886,1486.45 571.886,123.472 
  "/>
<polyline clip-path="url(#clip962)" style="stroke:#000000; stroke-width:2; stroke-opacity:0.1; fill:none" points="
  915.683,1486.45 915.683,123.472 
  "/>
<polyline clip-path="url(#clip962)" style="stroke:#000000; stroke-width:2; stroke-opacity:0.1; fill:none" points="
  1259.48,1486.45 1259.48,123.472 
  "/>
<polyline clip-path="url(#clip962)" style="stroke:#000000; stroke-width:2; stroke-opacity:0.1; fill:none" points="
  1603.28,1486.45 1603.28,123.472 
  "/>
<polyline clip-path="url(#clip962)" style="stroke:#000000; stroke-width:2; stroke-opacity:0.1; fill:none" points="
  1947.08,1486.45 1947.08,123.472 
  "/>
<polyline clip-path="url(#clip962)" style="stroke:#000000; stroke-width:2; stroke-opacity:0.1; fill:none" points="
  2290.87,1486.45 2290.87,123.472 
  "/>
<polyline clip-path="url(#clip962)" style="stroke:#000000; stroke-width:2; stroke-opacity:0.1; fill:none" points="
  166.205,1447.87 2352.76,1447.87 
  "/>
<polyline clip-path="url(#clip962)" style="stroke:#000000; stroke-width:2; stroke-opacity:0.1; fill:none" points="
  166.205,1179.99 2352.76,1179.99 
  "/>
<polyline clip-path="url(#clip962)" style="stroke:#000000; stroke-width:2; stroke-opacity:0.1; fill:none" points="
  166.205,912.112 2352.76,912.112 
  "/>
<polyline clip-path="url(#clip962)" style="stroke:#000000; stroke-width:2; stroke-opacity:0.1; fill:none" points="
  166.205,644.232 2352.76,644.232 
  "/>
<polyline clip-path="url(#clip962)" style="stroke:#000000; stroke-width:2; stroke-opacity:0.1; fill:none" points="
  166.205,376.351 2352.76,376.351 
  "/>
<polyline clip-path="url(#clip960)" style="stroke:#000000; stroke-width:4; stroke-opacity:1; fill:none" points="
  166.205,1486.45 2352.76,1486.45 
  "/>
<polyline clip-path="url(#clip960)" style="stroke:#000000; stroke-width:4; stroke-opacity:1; fill:none" points="
  166.205,1486.45 166.205,123.472 
  "/>
<polyline clip-path="url(#clip960)" style="stroke:#000000; stroke-width:4; stroke-opacity:1; fill:none" points="
  228.088,1486.45 228.088,1470.09 
  "/>
<polyline clip-path="url(#clip960)" style="stroke:#000000; stroke-width:4; stroke-opacity:1; fill:none" points="
  571.886,1486.45 571.886,1470.09 
  "/>
<polyline clip-path="url(#clip960)" style="stroke:#000000; stroke-width:4; stroke-opacity:1; fill:none" points="
  915.683,1486.45 915.683,1470.09 
  "/>
<polyline clip-path="url(#clip960)" style="stroke:#000000; stroke-width:4; stroke-opacity:1; fill:none" points="
  1259.48,1486.45 1259.48,1470.09 
  "/>
<polyline clip-path="url(#clip960)" style="stroke:#000000; stroke-width:4; stroke-opacity:1; fill:none" points="
  1603.28,1486.45 1603.28,1470.09 
  "/>
<polyline clip-path="url(#clip960)" style="stroke:#000000; stroke-width:4; stroke-opacity:1; fill:none" points="
  1947.08,1486.45 1947.08,1470.09 
  "/>
<polyline clip-path="url(#clip960)" style="stroke:#000000; stroke-width:4; stroke-opacity:1; fill:none" points="
  2290.87,1486.45 2290.87,1470.09 
  "/>
<polyline clip-path="url(#clip960)" style="stroke:#000000; stroke-width:4; stroke-opacity:1; fill:none" points="
  166.205,1447.87 192.443,1447.87 
  "/>
<polyline clip-path="url(#clip960)" style="stroke:#000000; stroke-width:4; stroke-opacity:1; fill:none" points="
  166.205,1179.99 192.443,1179.99 
  "/>
<polyline clip-path="url(#clip960)" style="stroke:#000000; stroke-width:4; stroke-opacity:1; fill:none" points="
  166.205,912.112 192.443,912.112 
  "/>
<polyline clip-path="url(#clip960)" style="stroke:#000000; stroke-width:4; stroke-opacity:1; fill:none" points="
  166.205,644.232 192.443,644.232 
  "/>
<polyline clip-path="url(#clip960)" style="stroke:#000000; stroke-width:4; stroke-opacity:1; fill:none" points="
  166.205,376.351 192.443,376.351 
  "/>
<path clip-path="url(#clip960)" d="M 0 0 M209.142 1525.04 L221.618 1525.04 L221.618 1528.83 L209.142 1528.83 L209.142 1525.04 Z" fill="#000000" fill-rule="evenodd" fill-opacity="1" /><path clip-path="url(#clip960)" d="M 0 0 M230.715 1535.98 L247.035 1535.98 L247.035 1539.92 L225.091 1539.92 L225.091 1535.98 Q227.753 1533.23 232.336 1528.6 Q236.942 1523.95 238.123 1522.61 Q240.368 1520.08 241.248 1518.35 Q242.151 1516.59 242.151 1514.9 Q242.151 1512.14 240.206 1510.41 Q238.285 1508.67 235.183 1508.67 Q232.984 1508.67 230.53 1509.43 Q228.1 1510.2 225.322 1511.75 L225.322 1507.03 Q228.146 1505.89 230.6 1505.31 Q233.053 1504.73 235.09 1504.73 Q240.461 1504.73 243.655 1507.42 Q246.85 1510.11 246.85 1514.6 Q246.85 1516.73 246.039 1518.65 Q245.252 1520.54 243.146 1523.14 Q242.567 1523.81 239.465 1527.03 Q236.364 1530.22 230.715 1535.98 Z" fill="#000000" fill-rule="evenodd" fill-opacity="1" /><path clip-path="url(#clip960)" d="M 0 0 M552.754 1525.04 L565.23 1525.04 L565.23 1528.83 L552.754 1528.83 L552.754 1525.04 Z" fill="#000000" fill-rule="evenodd" fill-opacity="1" /><path clip-path="url(#clip960)" d="M 0 0 M571.11 1535.98 L578.749 1535.98 L578.749 1509.62 L570.439 1511.29 L570.439 1507.03 L578.703 1505.36 L583.379 1505.36 L583.379 1535.98 L591.017 1535.98 L591.017 1539.92 L571.11 1539.92 L571.11 1535.98 Z" fill="#000000" fill-rule="evenodd" fill-opacity="1" /><path clip-path="url(#clip960)" d="M 0 0 M915.683 1508.44 Q912.072 1508.44 910.243 1512 Q908.438 1515.55 908.438 1522.67 Q908.438 1529.78 910.243 1533.35 Q912.072 1536.89 915.683 1536.89 Q919.317 1536.89 921.123 1533.35 Q922.951 1529.78 922.951 1522.67 Q922.951 1515.55 921.123 1512 Q919.317 1508.44 915.683 1508.44 M915.683 1504.73 Q921.493 1504.73 924.549 1509.34 Q927.627 1513.92 927.627 1522.67 Q927.627 1531.4 924.549 1536.01 Q921.493 1540.59 915.683 1540.59 Q909.873 1540.59 906.794 1536.01 Q903.739 1531.4 903.739 1522.67 Q903.739 1513.92 906.794 1509.34 Q909.873 1504.73 915.683 1504.73 Z" fill="#000000" fill-rule="evenodd" fill-opacity="1" /><path clip-path="url(#clip960)" d="M 0 0 M1249.86 1535.98 L1257.5 1535.98 L1257.5 1509.62 L1249.19 1511.29 L1249.19 1507.03 L1257.45 1505.36 L1262.13 1505.36 L1262.13 1535.98 L1269.77 1535.98 L1269.77 1539.92 L1249.86 1539.92 L1249.86 1535.98 Z" fill="#000000" fill-rule="evenodd" fill-opacity="1" /><path clip-path="url(#clip960)" d="M 0 0 M1597.93 1535.98 L1614.25 1535.98 L1614.25 1539.92 L1592.31 1539.92 L1592.31 1535.98 Q1594.97 1533.23 1599.55 1528.6 Q1604.16 1523.95 1605.34 1522.61 Q1607.58 1520.08 1608.46 1518.35 Q1609.37 1516.59 1609.37 1514.9 Q1609.37 1512.14 1607.42 1510.41 Q1605.5 1508.67 1602.4 1508.67 Q1600.2 1508.67 1597.75 1509.43 Q1595.31 1510.2 1592.54 1511.75 L1592.54 1507.03 Q1595.36 1505.89 1597.81 1505.31 Q1600.27 1504.73 1602.31 1504.73 Q1607.68 1504.73 1610.87 1507.42 Q1614.06 1510.11 1614.06 1514.6 Q1614.06 1516.73 1613.25 1518.65 Q1612.47 1520.54 1610.36 1523.14 Q1609.78 1523.81 1606.68 1527.03 Q1603.58 1530.22 1597.93 1535.98 Z" fill="#000000" fill-rule="evenodd" fill-opacity="1" /><path clip-path="url(#clip960)" d="M 0 0 M1951.32 1521.29 Q1954.68 1522 1956.55 1524.27 Q1958.45 1526.54 1958.45 1529.87 Q1958.45 1534.99 1954.93 1537.79 Q1951.42 1540.59 1944.93 1540.59 Q1942.76 1540.59 1940.44 1540.15 Q1938.15 1539.73 1935.7 1538.88 L1935.7 1534.36 Q1937.64 1535.5 1939.96 1536.08 Q1942.27 1536.66 1944.79 1536.66 Q1949.19 1536.66 1951.48 1534.92 Q1953.8 1533.18 1953.8 1529.87 Q1953.8 1526.82 1951.65 1525.11 Q1949.52 1523.37 1945.7 1523.37 L1941.67 1523.37 L1941.67 1519.53 L1945.88 1519.53 Q1949.33 1519.53 1951.16 1518.16 Q1952.99 1516.77 1952.99 1514.18 Q1952.99 1511.52 1951.09 1510.11 Q1949.22 1508.67 1945.7 1508.67 Q1943.78 1508.67 1941.58 1509.09 Q1939.38 1509.5 1936.74 1510.38 L1936.74 1506.22 Q1939.4 1505.48 1941.72 1505.11 Q1944.05 1504.73 1946.11 1504.73 Q1951.44 1504.73 1954.54 1507.17 Q1957.64 1509.57 1957.64 1513.69 Q1957.64 1516.56 1956 1518.55 Q1954.36 1520.52 1951.32 1521.29 Z" fill="#000000" fill-rule="evenodd" fill-opacity="1" /><path clip-path="url(#clip960)" d="M 0 0 M2293.88 1509.43 L2282.08 1527.88 L2293.88 1527.88 L2293.88 1509.43 M2292.65 1505.36 L2298.53 1505.36 L2298.53 1527.88 L2303.46 1527.88 L2303.46 1531.77 L2298.53 1531.77 L2298.53 1539.92 L2293.88 1539.92 L2293.88 1531.77 L2278.28 1531.77 L2278.28 1527.26 L2292.65 1505.36 Z" fill="#000000" fill-rule="evenodd" fill-opacity="1" /><path clip-path="url(#clip960)" d="M 0 0 M130.26 1433.67 Q126.649 1433.67 124.82 1437.24 Q123.015 1440.78 123.015 1447.91 Q123.015 1455.01 124.82 1458.58 Q126.649 1462.12 130.26 1462.12 Q133.895 1462.12 135.7 1458.58 Q137.529 1455.01 137.529 1447.91 Q137.529 1440.78 135.7 1437.24 Q133.895 1433.67 130.26 1433.67 M130.26 1429.97 Q136.07 1429.97 139.126 1434.57 Q142.205 1439.16 142.205 1447.91 Q142.205 1456.63 139.126 1461.24 Q136.07 1465.82 130.26 1465.82 Q124.45 1465.82 121.371 1461.24 Q118.316 1456.63 118.316 1447.91 Q118.316 1439.16 121.371 1434.57 Q124.45 1429.97 130.26 1429.97 Z" fill="#000000" fill-rule="evenodd" fill-opacity="1" /><path clip-path="url(#clip960)" d="M 0 0 M71.8578 1193.34 L88.1772 1193.34 L88.1772 1197.27 L66.2328 1197.27 L66.2328 1193.34 Q68.8949 1190.58 73.4782 1185.95 Q78.0846 1181.3 79.2652 1179.96 Q81.5105 1177.43 82.3902 1175.7 Q83.2929 1173.94 83.2929 1172.25 Q83.2929 1169.5 81.3485 1167.76 Q79.4272 1166.02 76.3254 1166.02 Q74.1263 1166.02 71.6726 1166.79 Q69.2421 1167.55 66.4643 1169.1 L66.4643 1164.38 Q69.2884 1163.25 71.7421 1162.67 Q74.1958 1162.09 76.2328 1162.09 Q81.6031 1162.09 84.7976 1164.77 Q87.992 1167.46 87.992 1171.95 Q87.992 1174.08 87.1818 1176 Q86.3948 1177.9 84.2883 1180.49 Q83.7096 1181.16 80.6078 1184.38 Q77.5059 1187.57 71.8578 1193.34 Z" fill="#000000" fill-rule="evenodd" fill-opacity="1" /><path clip-path="url(#clip960)" d="M 0 0 M103.247 1165.79 Q99.6354 1165.79 97.8068 1169.36 Q96.0012 1172.9 96.0012 1180.03 Q96.0012 1187.13 97.8068 1190.7 Q99.6354 1194.24 103.247 1194.24 Q106.881 1194.24 108.686 1190.7 Q110.515 1187.13 110.515 1180.03 Q110.515 1172.9 108.686 1169.36 Q106.881 1165.79 103.247 1165.79 M103.247 1162.09 Q109.057 1162.09 112.112 1166.69 Q115.191 1171.28 115.191 1180.03 Q115.191 1188.75 112.112 1193.36 Q109.057 1197.94 103.247 1197.94 Q97.4364 1197.94 94.3577 1193.36 Q91.3022 1188.75 91.3022 1180.03 Q91.3022 1171.28 94.3577 1166.69 Q97.4364 1162.09 103.247 1162.09 Z" fill="#000000" fill-rule="evenodd" fill-opacity="1" /><path clip-path="url(#clip960)" d="M 0 0 M130.26 1165.79 Q126.649 1165.79 124.82 1169.36 Q123.015 1172.9 123.015 1180.03 Q123.015 1187.13 124.82 1190.7 Q126.649 1194.24 130.26 1194.24 Q133.895 1194.24 135.7 1190.7 Q137.529 1187.13 137.529 1180.03 Q137.529 1172.9 135.7 1169.36 Q133.895 1165.79 130.26 1165.79 M130.26 1162.09 Q136.07 1162.09 139.126 1166.69 Q142.205 1171.28 142.205 1180.03 Q142.205 1188.75 139.126 1193.36 Q136.07 1197.94 130.26 1197.94 Q124.45 1197.94 121.371 1193.36 Q118.316 1188.75 118.316 1180.03 Q118.316 1171.28 121.371 1166.69 Q124.45 1162.09 130.26 1162.09 Z" fill="#000000" fill-rule="evenodd" fill-opacity="1" /><path clip-path="url(#clip960)" d="M 0 0 M78.5939 898.906 L66.7884 917.355 L78.5939 917.355 L78.5939 898.906 M77.367 894.832 L83.2466 894.832 L83.2466 917.355 L88.1772 917.355 L88.1772 921.244 L83.2466 921.244 L83.2466 929.392 L78.5939 929.392 L78.5939 921.244 L62.9921 921.244 L62.9921 916.73 L77.367 894.832 Z" fill="#000000" fill-rule="evenodd" fill-opacity="1" /><path clip-path="url(#clip960)" d="M 0 0 M103.247 897.911 Q99.6354 897.911 97.8068 901.476 Q96.0012 905.017 96.0012 912.147 Q96.0012 919.253 97.8068 922.818 Q99.6354 926.36 103.247 926.36 Q106.881 926.36 108.686 922.818 Q110.515 919.253 110.515 912.147 Q110.515 905.017 108.686 901.476 Q106.881 897.911 103.247 897.911 M103.247 894.207 Q109.057 894.207 112.112 898.814 Q115.191 903.397 115.191 912.147 Q115.191 920.874 112.112 925.48 Q109.057 930.063 103.247 930.063 Q97.4364 930.063 94.3577 925.48 Q91.3022 920.874 91.3022 912.147 Q91.3022 903.397 94.3577 898.814 Q97.4364 894.207 103.247 894.207 Z" fill="#000000" fill-rule="evenodd" fill-opacity="1" /><path clip-path="url(#clip960)" d="M 0 0 M130.26 897.911 Q126.649 897.911 124.82 901.476 Q123.015 905.017 123.015 912.147 Q123.015 919.253 124.82 922.818 Q126.649 926.36 130.26 926.36 Q133.895 926.36 135.7 922.818 Q137.529 919.253 137.529 912.147 Q137.529 905.017 135.7 901.476 Q133.895 897.911 130.26 897.911 M130.26 894.207 Q136.07 894.207 139.126 898.814 Q142.205 903.397 142.205 912.147 Q142.205 920.874 139.126 925.48 Q136.07 930.063 130.26 930.063 Q124.45 930.063 121.371 925.48 Q118.316 920.874 118.316 912.147 Q118.316 903.397 121.371 898.814 Q124.45 894.207 130.26 894.207 Z" fill="#000000" fill-rule="evenodd" fill-opacity="1" /><path clip-path="url(#clip960)" d="M 0 0 M76.6495 642.368 Q73.5013 642.368 71.6495 644.521 Q69.8208 646.674 69.8208 650.424 Q69.8208 654.151 71.6495 656.327 Q73.5013 658.479 76.6495 658.479 Q79.7976 658.479 81.6263 656.327 Q83.4781 654.151 83.4781 650.424 Q83.4781 646.674 81.6263 644.521 Q79.7976 642.368 76.6495 642.368 M85.9318 627.716 L85.9318 631.975 Q84.1726 631.142 82.367 630.702 Q80.5846 630.262 78.8254 630.262 Q74.1958 630.262 71.7421 633.387 Q69.3115 636.512 68.9643 642.831 Q70.33 640.817 72.3902 639.753 Q74.4504 638.665 76.9272 638.665 Q82.1355 638.665 85.1448 641.836 Q88.1772 644.984 88.1772 650.424 Q88.1772 655.748 85.029 658.965 Q81.8809 662.183 76.6495 662.183 Q70.6541 662.183 67.4828 657.6 Q64.3116 652.993 64.3116 644.266 Q64.3116 636.072 68.2004 631.211 Q72.0893 626.327 78.6402 626.327 Q80.3994 626.327 82.1818 626.674 Q83.9874 627.021 85.9318 627.716 Z" fill="#000000" fill-rule="evenodd" fill-opacity="1" /><path clip-path="url(#clip960)" d="M 0 0 M103.247 630.03 Q99.6354 630.03 97.8068 633.595 Q96.0012 637.137 96.0012 644.266 Q96.0012 651.373 97.8068 654.938 Q99.6354 658.479 103.247 658.479 Q106.881 658.479 108.686 654.938 Q110.515 651.373 110.515 644.266 Q110.515 637.137 108.686 633.595 Q106.881 630.03 103.247 630.03 M103.247 626.327 Q109.057 626.327 112.112 630.933 Q115.191 635.516 115.191 644.266 Q115.191 652.993 112.112 657.6 Q109.057 662.183 103.247 662.183 Q97.4364 662.183 94.3577 657.6 Q91.3022 652.993 91.3022 644.266 Q91.3022 635.516 94.3577 630.933 Q97.4364 626.327 103.247 626.327 Z" fill="#000000" fill-rule="evenodd" fill-opacity="1" /><path clip-path="url(#clip960)" d="M 0 0 M130.26 630.03 Q126.649 630.03 124.82 633.595 Q123.015 637.137 123.015 644.266 Q123.015 651.373 124.82 654.938 Q126.649 658.479 130.26 658.479 Q133.895 658.479 135.7 654.938 Q137.529 651.373 137.529 644.266 Q137.529 637.137 135.7 633.595 Q133.895 630.03 130.26 630.03 M130.26 626.327 Q136.07 626.327 139.126 630.933 Q142.205 635.516 142.205 644.266 Q142.205 652.993 139.126 657.6 Q136.07 662.183 130.26 662.183 Q124.45 662.183 121.371 657.6 Q118.316 652.993 118.316 644.266 Q118.316 635.516 121.371 630.933 Q124.45 626.327 130.26 626.327 Z" fill="#000000" fill-rule="evenodd" fill-opacity="1" /><path clip-path="url(#clip960)" d="M 0 0 M76.3254 377.219 Q72.9921 377.219 71.0708 379.002 Q69.1726 380.784 69.1726 383.909 Q69.1726 387.034 71.0708 388.816 Q72.9921 390.599 76.3254 390.599 Q79.6587 390.599 81.58 388.816 Q83.5013 387.011 83.5013 383.909 Q83.5013 380.784 81.58 379.002 Q79.6819 377.219 76.3254 377.219 M71.6495 375.229 Q68.6402 374.488 66.9504 372.428 Q65.2838 370.368 65.2838 367.405 Q65.2838 363.261 68.2236 360.854 Q71.1865 358.446 76.3254 358.446 Q81.4874 358.446 84.4272 360.854 Q87.367 363.261 87.367 367.405 Q87.367 370.368 85.6772 372.428 Q84.0105 374.488 81.0244 375.229 Q84.404 376.016 86.279 378.307 Q88.1772 380.599 88.1772 383.909 Q88.1772 388.932 85.0985 391.617 Q82.0429 394.303 76.3254 394.303 Q70.6078 394.303 67.5291 391.617 Q64.4736 388.932 64.4736 383.909 Q64.4736 380.599 66.3717 378.307 Q68.2699 376.016 71.6495 375.229 M69.9365 367.844 Q69.9365 370.53 71.6032 372.034 Q73.293 373.539 76.3254 373.539 Q79.3346 373.539 81.0244 372.034 Q82.7374 370.53 82.7374 367.844 Q82.7374 365.159 81.0244 363.655 Q79.3346 362.15 76.3254 362.15 Q73.293 362.15 71.6032 363.655 Q69.9365 365.159 69.9365 367.844 Z" fill="#000000" fill-rule="evenodd" fill-opacity="1" /><path clip-path="url(#clip960)" d="M 0 0 M103.247 362.15 Q99.6354 362.15 97.8068 365.715 Q96.0012 369.256 96.0012 376.386 Q96.0012 383.492 97.8068 387.057 Q99.6354 390.599 103.247 390.599 Q106.881 390.599 108.686 387.057 Q110.515 383.492 110.515 376.386 Q110.515 369.256 108.686 365.715 Q106.881 362.15 103.247 362.15 M103.247 358.446 Q109.057 358.446 112.112 363.053 Q115.191 367.636 115.191 376.386 Q115.191 385.113 112.112 389.719 Q109.057 394.303 103.247 394.303 Q97.4364 394.303 94.3577 389.719 Q91.3022 385.113 91.3022 376.386 Q91.3022 367.636 94.3577 363.053 Q97.4364 358.446 103.247 358.446 Z" fill="#000000" fill-rule="evenodd" fill-opacity="1" /><path clip-path="url(#clip960)" d="M 0 0 M130.26 362.15 Q126.649 362.15 124.82 365.715 Q123.015 369.256 123.015 376.386 Q123.015 383.492 124.82 387.057 Q126.649 390.599 130.26 390.599 Q133.895 390.599 135.7 387.057 Q137.529 383.492 137.529 376.386 Q137.529 369.256 135.7 365.715 Q133.895 362.15 130.26 362.15 M130.26 358.446 Q136.07 358.446 139.126 363.053 Q142.205 367.636 142.205 376.386 Q142.205 385.113 139.126 389.719 Q136.07 394.303 130.26 394.303 Q124.45 394.303 121.371 389.719 Q118.316 385.113 118.316 376.386 Q118.316 367.636 121.371 363.053 Q124.45 358.446 130.26 358.446 Z" fill="#000000" fill-rule="evenodd" fill-opacity="1" /><path clip-path="url(#clip960)" d="M 0 0 M1183.67 18.8205 L1183.67 65.8515 L1193.55 65.8515 Q1206.07 65.8515 1211.86 60.1802 Q1217.7 54.509 1217.7 42.2752 Q1217.7 30.1225 1211.86 24.4918 Q1206.07 18.8205 1193.55 18.8205 L1183.67 18.8205 M1175.48 12.096 L1192.3 12.096 Q1209.88 12.096 1218.1 19.4281 Q1226.32 26.7198 1226.32 42.2752 Q1226.32 57.9117 1218.06 65.2439 Q1209.8 72.576 1192.3 72.576 L1175.48 72.576 L1175.48 12.096 Z" fill="#000000" fill-rule="evenodd" fill-opacity="1" /><path clip-path="url(#clip960)" d="M 0 0 M1254.76 49.7694 Q1245.73 49.7694 1242.24 51.8354 Q1238.76 53.9013 1238.76 58.8839 Q1238.76 62.8538 1241.35 65.2034 Q1243.99 67.5124 1248.48 67.5124 Q1254.68 67.5124 1258.41 63.1374 Q1262.17 58.7219 1262.17 51.4303 L1262.17 49.7694 L1254.76 49.7694 M1269.63 46.6907 L1269.63 72.576 L1262.17 72.576 L1262.17 65.6895 Q1259.62 69.8214 1255.81 71.8063 Q1252.01 73.7508 1246.5 73.7508 Q1239.53 73.7508 1235.4 69.8619 Q1231.31 65.9325 1231.31 59.3701 Q1231.31 51.7138 1236.41 47.825 Q1241.56 43.9361 1251.72 43.9361 L1262.17 43.9361 L1262.17 43.2069 Q1262.17 38.0623 1258.77 35.2672 Q1255.41 32.4315 1249.29 32.4315 Q1245.4 32.4315 1241.72 33.3632 Q1238.03 34.295 1234.63 36.1584 L1234.63 29.2718 Q1238.72 27.692 1242.57 26.9223 Q1246.42 26.1121 1250.06 26.1121 Q1259.91 26.1121 1264.77 31.2163 Q1269.63 36.3204 1269.63 46.6907 Z" fill="#000000" fill-rule="evenodd" fill-opacity="1" /><path clip-path="url(#clip960)" d="M 0 0 M1284.82 14.324 L1284.82 27.2059 L1300.17 27.2059 L1300.17 32.9987 L1284.82 32.9987 L1284.82 57.6282 Q1284.82 63.1779 1286.32 64.7578 Q1287.86 66.3376 1292.52 66.3376 L1300.17 66.3376 L1300.17 72.576 L1292.52 72.576 Q1283.89 72.576 1280.61 69.3758 Q1277.32 66.1351 1277.32 57.6282 L1277.32 32.9987 L1271.86 32.9987 L1271.86 27.2059 L1277.32 27.2059 L1277.32 14.324 L1284.82 14.324 Z" fill="#000000" fill-rule="evenodd" fill-opacity="1" /><path clip-path="url(#clip960)" d="M 0 0 M1328.61 49.7694 Q1319.58 49.7694 1316.09 51.8354 Q1312.61 53.9013 1312.61 58.8839 Q1312.61 62.8538 1315.2 65.2034 Q1317.83 67.5124 1322.33 67.5124 Q1328.53 67.5124 1332.25 63.1374 Q1336.02 58.7219 1336.02 51.4303 L1336.02 49.7694 L1328.61 49.7694 M1343.48 46.6907 L1343.48 72.576 L1336.02 72.576 L1336.02 65.6895 Q1333.47 69.8214 1329.66 71.8063 Q1325.85 73.7508 1320.35 73.7508 Q1313.38 73.7508 1309.25 69.8619 Q1305.15 65.9325 1305.15 59.3701 Q1305.15 51.7138 1310.26 47.825 Q1315.4 43.9361 1325.57 43.9361 L1336.02 43.9361 L1336.02 43.2069 Q1336.02 38.0623 1332.62 35.2672 Q1329.26 32.4315 1323.14 32.4315 Q1319.25 32.4315 1315.57 33.3632 Q1311.88 34.295 1308.48 36.1584 L1308.48 29.2718 Q1312.57 27.692 1316.42 26.9223 Q1320.26 26.1121 1323.91 26.1121 Q1333.75 26.1121 1338.61 31.2163 Q1343.48 36.3204 1343.48 46.6907 Z" fill="#000000" fill-rule="evenodd" fill-opacity="1" /><polyline clip-path="url(#clip962)" style="stroke:#009af9; stroke-width:4; stroke-opacity:1; fill:none" points="
  228.088,1447.87 228.088,1340.72 262.468,1340.72 262.468,1287.14 296.848,1287.14 296.848,1327.33 331.227,1327.33 331.227,1260.36 365.607,1260.36 365.607,1166.6 
  399.987,1166.6 399.987,1113.02 434.367,1113.02 434.367,1086.23 468.746,1086.23 468.746,938.9 503.126,938.9 537.506,938.9 537.506,804.96 
  571.886,804.96 571.886,1072.84 606.265,1072.84 606.265,831.748 640.645,831.748 640.645,979.082 675.025,979.082 675.025,1005.87 709.405,1005.87 709.405,1059.45 
  743.784,1059.45 743.784,1099.63 778.164,1099.63 778.164,1166.6 812.544,1166.6 812.544,1354.11 846.923,1354.11 846.923,1287.14 881.303,1287.14 881.303,1340.72 
  915.683,1340.72 915.683,1394.3 950.063,1394.3 950.063,1434.48 984.442,1434.48 984.442,1421.09 1018.82,1421.09 1018.82,1434.48 1053.2,1434.48 
  1087.58,1434.48 1087.58,1447.87 1121.96,1447.87 1121.96,1434.48 1156.34,1434.48 1156.34,1367.51 1190.72,1367.51 1190.72,1380.9 1225.1,1380.9 1225.1,1367.51 
  1259.48,1367.51 1259.48,1327.33 1293.86,1327.33 1293.86,1153.2 1328.24,1153.2 1328.24,1113.02 1362.62,1113.02 1362.62,925.506 1397,925.506 1397,871.93 
  1431.38,871.93 1431.38,523.686 1465.76,523.686 1465.76,590.656 1500.14,590.656 1500.14,751.384 1534.52,751.384 1534.52,470.109 1568.9,470.109 1568.9,389.745 
  1603.28,389.745 1603.28,162.047 1637.66,162.047 1637.66,590.656 1672.04,590.656 1672.04,362.957 1706.42,362.957 1706.42,590.656 1740.8,590.656 1740.8,630.838 
  1775.18,630.838 1775.18,938.9 1809.56,938.9 1809.56,1086.23 1843.94,1086.23 1843.94,1019.26 1878.32,1019.26 1878.32,1260.36 1912.7,1260.36 1912.7,1367.51 
  1947.08,1367.51 1947.08,1300.54 1981.45,1300.54 1981.45,1367.51 2015.83,1367.51 2015.83,1407.69 2050.21,1407.69 2050.21,1421.09 2084.59,1421.09 2084.59,1434.48 
  2118.97,1434.48 2153.35,1434.48 2153.35,1447.87 2187.73,1447.87 2222.11,1447.87 2256.49,1447.87 
  2290.87,1447.87 
  "/>
<path clip-path="url(#clip960)" d="
M1940.93 289.865 L2279.87 289.865 L2279.87 168.905 L1940.93 168.905  Z
  " fill="#ffffff" fill-rule="evenodd" fill-opacity="1"/>
<polyline clip-path="url(#clip960)" style="stroke:#000000; stroke-width:4; stroke-opacity:1; fill:none" points="
  1940.93,289.865 2279.87,289.865 2279.87,168.905 1940.93,168.905 1940.93,289.865 
  "/>
<polyline clip-path="url(#clip960)" style="stroke:#009af9; stroke-width:4; stroke-opacity:1; fill:none" points="
  1965.22,229.385 2110.99,229.385 
  "/>
<path clip-path="url(#clip960)" d="M 0 0 M2139.96 215.947 L2139.96 242.822 L2145.61 242.822 Q2152.76 242.822 2156.07 239.581 Q2159.41 236.341 2159.41 229.35 Q2159.41 222.406 2156.07 219.188 Q2152.76 215.947 2145.61 215.947 L2139.96 215.947 M2135.29 212.105 L2144.89 212.105 Q2154.94 212.105 2159.64 216.294 Q2164.34 220.461 2164.34 229.35 Q2164.34 238.285 2159.61 242.475 Q2154.89 246.665 2144.89 246.665 L2135.29 246.665 L2135.29 212.105 Z" fill="#000000" fill-rule="evenodd" fill-opacity="1" /><path clip-path="url(#clip960)" d="M 0 0 M2180.59 233.632 Q2175.42 233.632 2173.43 234.813 Q2171.44 235.993 2171.44 238.841 Q2171.44 241.109 2172.92 242.452 Q2174.43 243.771 2177 243.771 Q2180.54 243.771 2182.67 241.271 Q2184.82 238.748 2184.82 234.581 L2184.82 233.632 L2180.59 233.632 M2189.08 231.873 L2189.08 246.665 L2184.82 246.665 L2184.82 242.729 Q2183.36 245.091 2181.19 246.225 Q2179.01 247.336 2175.86 247.336 Q2171.88 247.336 2169.52 245.114 Q2167.18 242.868 2167.18 239.118 Q2167.18 234.743 2170.1 232.521 Q2173.04 230.299 2178.85 230.299 L2184.82 230.299 L2184.82 229.882 Q2184.82 226.943 2182.88 225.345 Q2180.96 223.725 2177.46 223.725 Q2175.24 223.725 2173.13 224.257 Q2171.03 224.79 2169.08 225.855 L2169.08 221.919 Q2171.42 221.017 2173.62 220.577 Q2175.82 220.114 2177.9 220.114 Q2183.53 220.114 2186.3 223.031 Q2189.08 225.947 2189.08 231.873 Z" fill="#000000" fill-rule="evenodd" fill-opacity="1" /><path clip-path="url(#clip960)" d="M 0 0 M2197.76 213.378 L2197.76 220.739 L2206.54 220.739 L2206.54 224.049 L2197.76 224.049 L2197.76 238.123 Q2197.76 241.294 2198.62 242.197 Q2199.5 243.1 2202.16 243.1 L2206.54 243.1 L2206.54 246.665 L2202.16 246.665 Q2197.23 246.665 2195.36 244.836 Q2193.48 242.984 2193.48 238.123 L2193.48 224.049 L2190.36 224.049 L2190.36 220.739 L2193.48 220.739 L2193.48 213.378 L2197.76 213.378 Z" fill="#000000" fill-rule="evenodd" fill-opacity="1" /><path clip-path="url(#clip960)" d="M 0 0 M2222.79 233.632 Q2217.62 233.632 2215.63 234.813 Q2213.64 235.993 2213.64 238.841 Q2213.64 241.109 2215.12 242.452 Q2216.63 243.771 2219.2 243.771 Q2222.74 243.771 2224.87 241.271 Q2227.02 238.748 2227.02 234.581 L2227.02 233.632 L2222.79 233.632 M2231.28 231.873 L2231.28 246.665 L2227.02 246.665 L2227.02 242.729 Q2225.56 245.091 2223.39 246.225 Q2221.21 247.336 2218.06 247.336 Q2214.08 247.336 2211.72 245.114 Q2209.38 242.868 2209.38 239.118 Q2209.38 234.743 2212.3 232.521 Q2215.24 230.299 2221.05 230.299 L2227.02 230.299 L2227.02 229.882 Q2227.02 226.943 2225.08 225.345 Q2223.16 223.725 2219.66 223.725 Q2217.44 223.725 2215.33 224.257 Q2213.23 224.79 2211.28 225.855 L2211.28 221.919 Q2213.62 221.017 2215.82 220.577 Q2218.02 220.114 2220.1 220.114 Q2225.73 220.114 2228.5 223.031 Q2231.28 225.947 2231.28 231.873 Z" fill="#000000" fill-rule="evenodd" fill-opacity="1" /></svg>
