<?xml version="1.0" encoding="utf-8"?>
<svg xmlns="http://www.w3.org/2000/svg" xmlns:xlink="http://www.w3.org/1999/xlink" width="600" height="400" viewBox="0 0 2400 1600">
<defs>
  <clipPath id="clip530">
    <rect x="0" y="0" width="2400" height="1600"/>
  </clipPath>
</defs>
<path clip-path="url(#clip530)" d="
M0 1600 L2400 1600 L2400 0 L0 0  Z
  " fill="#ffffff" fill-rule="evenodd" fill-opacity="1"/>
<defs>
  <clipPath id="clip531">
    <rect x="480" y="0" width="1681" height="1600"/>
  </clipPath>
</defs>
<path clip-path="url(#clip530)" d="
M166.205 1486.45 L2352.76 1486.45 L2352.76 123.472 L166.205 123.472  Z
  " fill="#ffffff" fill-rule="evenodd" fill-opacity="1"/>
<defs>
  <clipPath id="clip532">
    <rect x="166" y="123" width="2188" height="1364"/>
  </clipPath>
</defs>
<polyline clip-path="url(#clip532)" style="stroke:#000000; stroke-width:2; stroke-opacity:0.1; fill:none" points="
  228.088,1486.45 228.088,123.472 
  "/>
<polyline clip-path="url(#clip532)" style="stroke:#000000; stroke-width:2; stroke-opacity:0.1; fill:none" points="
  571.886,1486.45 571.886,123.472 
  "/>
<polyline clip-path="url(#clip532)" style="stroke:#000000; stroke-width:2; stroke-opacity:0.1; fill:none" points="
  915.683,1486.45 915.683,123.472 
  "/>
<polyline clip-path="url(#clip532)" style="stroke:#000000; stroke-width:2; stroke-opacity:0.1; fill:none" points="
  1259.48,1486.45 1259.48,123.472 
  "/>
<polyline clip-path="url(#clip532)" style="stroke:#000000; stroke-width:2; stroke-opacity:0.1; fill:none" points="
  1603.28,1486.45 1603.28,123.472 
  "/>
<polyline clip-path="url(#clip532)" style="stroke:#000000; stroke-width:2; stroke-opacity:0.1; fill:none" points="
  1947.08,1486.45 1947.08,123.472 
  "/>
<polyline clip-path="url(#clip532)" style="stroke:#000000; stroke-width:2; stroke-opacity:0.1; fill:none" points="
  2290.87,1486.45 2290.87,123.472 
  "/>
<polyline clip-path="url(#clip530)" style="stroke:#000000; stroke-width:4; stroke-opacity:1; fill:none" points="
  166.205,1486.45 2352.76,1486.45 
  "/>
<polyline clip-path="url(#clip530)" style="stroke:#000000; stroke-width:4; stroke-opacity:1; fill:none" points="
  228.088,1486.45 228.088,1470.09 
  "/>
<polyline clip-path="url(#clip530)" style="stroke:#000000; stroke-width:4; stroke-opacity:1; fill:none" points="
  571.886,1486.45 571.886,1470.09 
  "/>
<polyline clip-path="url(#clip530)" style="stroke:#000000; stroke-width:4; stroke-opacity:1; fill:none" points="
  915.683,1486.45 915.683,1470.09 
  "/>
<polyline clip-path="url(#clip530)" style="stroke:#000000; stroke-width:4; stroke-opacity:1; fill:none" points="
  1259.48,1486.45 1259.48,1470.09 
  "/>
<polyline clip-path="url(#clip530)" style="stroke:#000000; stroke-width:4; stroke-opacity:1; fill:none" points="
  1603.28,1486.45 1603.28,1470.09 
  "/>
<polyline clip-path="url(#clip530)" style="stroke:#000000; stroke-width:4; stroke-opacity:1; fill:none" points="
  1947.08,1486.45 1947.08,1470.09 
  "/>
<polyline clip-path="url(#clip530)" style="stroke:#000000; stroke-width:4; stroke-opacity:1; fill:none" points="
  2290.87,1486.45 2290.87,1470.09 
  "/>
<path clip-path="url(#clip530)" d="M 0 0 M200.542 1530.29 L230.218 1530.29 L230.218 1534.23 L200.542 1534.23 L200.542 1530.29 Z" fill="#000000" fill-rule="evenodd" fill-opacity="1" /><path clip-path="url(#clip530)" d="M 0 0 M239.315 1543.18 L255.634 1543.18 L255.634 1547.12 L233.69 1547.12 L233.69 1543.18 Q236.352 1540.43 240.935 1535.8 Q245.542 1531.15 246.722 1529.81 Q248.968 1527.28 249.847 1525.55 Q250.75 1523.79 250.75 1522.1 Q250.75 1519.34 248.806 1517.61 Q246.884 1515.87 243.783 1515.87 Q241.583 1515.87 239.13 1516.63 Q236.699 1517.4 233.921 1518.95 L233.921 1514.23 Q236.746 1513.09 239.199 1512.51 Q241.653 1511.93 243.69 1511.93 Q249.06 1511.93 252.255 1514.62 Q255.449 1517.31 255.449 1521.8 Q255.449 1523.93 254.639 1525.85 Q253.852 1527.74 251.745 1530.34 Q251.167 1531.01 248.065 1534.23 Q244.963 1537.42 239.315 1543.18 Z" fill="#000000" fill-rule="evenodd" fill-opacity="1" /><path clip-path="url(#clip530)" d="M 0 0 M544.154 1530.29 L573.83 1530.29 L573.83 1534.23 L544.154 1534.23 L544.154 1530.29 Z" fill="#000000" fill-rule="evenodd" fill-opacity="1" /><path clip-path="url(#clip530)" d="M 0 0 M579.71 1543.18 L587.348 1543.18 L587.348 1516.82 L579.038 1518.49 L579.038 1514.23 L587.302 1512.56 L591.978 1512.56 L591.978 1543.18 L599.617 1543.18 L599.617 1547.12 L579.71 1547.12 L579.71 1543.18 Z" fill="#000000" fill-rule="evenodd" fill-opacity="1" /><path clip-path="url(#clip530)" d="M 0 0 M915.683 1515.64 Q912.072 1515.64 910.243 1519.2 Q908.438 1522.75 908.438 1529.87 Q908.438 1536.98 910.243 1540.55 Q912.072 1544.09 915.683 1544.09 Q919.317 1544.09 921.123 1540.55 Q922.951 1536.98 922.951 1529.87 Q922.951 1522.75 921.123 1519.2 Q919.317 1515.64 915.683 1515.64 M915.683 1511.93 Q921.493 1511.93 924.549 1516.54 Q927.627 1521.12 927.627 1529.87 Q927.627 1538.6 924.549 1543.21 Q921.493 1547.79 915.683 1547.79 Q909.873 1547.79 906.794 1543.21 Q903.739 1538.6 903.739 1529.87 Q903.739 1521.12 906.794 1516.54 Q909.873 1511.93 915.683 1511.93 Z" fill="#000000" fill-rule="evenodd" fill-opacity="1" /><path clip-path="url(#clip530)" d="M 0 0 M1249.86 1543.18 L1257.5 1543.18 L1257.5 1516.82 L1249.19 1518.49 L1249.19 1514.23 L1257.45 1512.56 L1262.13 1512.56 L1262.13 1543.18 L1269.77 1543.18 L1269.77 1547.12 L1249.86 1547.12 L1249.86 1543.18 Z" fill="#000000" fill-rule="evenodd" fill-opacity="1" /><path clip-path="url(#clip530)" d="M 0 0 M1597.93 1543.18 L1614.25 1543.18 L1614.25 1547.12 L1592.31 1547.12 L1592.31 1543.18 Q1594.97 1540.43 1599.55 1535.8 Q1604.16 1531.15 1605.34 1529.81 Q1607.58 1527.28 1608.46 1525.55 Q1609.37 1523.79 1609.37 1522.1 Q1609.37 1519.34 1607.42 1517.61 Q1605.5 1515.87 1602.4 1515.87 Q1600.2 1515.87 1597.75 1516.63 Q1595.31 1517.4 1592.54 1518.95 L1592.54 1514.23 Q1595.36 1513.09 1597.81 1512.51 Q1600.27 1511.93 1602.31 1511.93 Q1607.68 1511.93 1610.87 1514.62 Q1614.06 1517.31 1614.06 1521.8 Q1614.06 1523.93 1613.25 1525.85 Q1612.47 1527.74 1610.36 1530.34 Q1609.78 1531.01 1606.68 1534.23 Q1603.58 1537.42 1597.93 1543.18 Z" fill="#000000" fill-rule="evenodd" fill-opacity="1" /><path clip-path="url(#clip530)" d="M 0 0 M1951.32 1528.49 Q1954.68 1529.2 1956.55 1531.47 Q1958.45 1533.74 1958.45 1537.07 Q1958.45 1542.19 1954.93 1544.99 Q1951.42 1547.79 1944.93 1547.79 Q1942.76 1547.79 1940.44 1547.35 Q1938.15 1546.93 1935.7 1546.08 L1935.7 1541.56 Q1937.64 1542.7 1939.96 1543.28 Q1942.27 1543.86 1944.79 1543.86 Q1949.19 1543.86 1951.48 1542.12 Q1953.8 1540.38 1953.8 1537.07 Q1953.8 1534.02 1951.65 1532.31 Q1949.52 1530.57 1945.7 1530.57 L1941.67 1530.57 L1941.67 1526.73 L1945.88 1526.73 Q1949.33 1526.73 1951.16 1525.36 Q1952.99 1523.97 1952.99 1521.38 Q1952.99 1518.72 1951.09 1517.31 Q1949.22 1515.87 1945.7 1515.87 Q1943.78 1515.87 1941.58 1516.29 Q1939.38 1516.7 1936.74 1517.58 L1936.74 1513.42 Q1939.4 1512.68 1941.72 1512.31 Q1944.05 1511.93 1946.11 1511.93 Q1951.44 1511.93 1954.54 1514.37 Q1957.64 1516.77 1957.64 1520.89 Q1957.64 1523.76 1956 1525.75 Q1954.36 1527.72 1951.32 1528.49 Z" fill="#000000" fill-rule="evenodd" fill-opacity="1" /><path clip-path="url(#clip530)" d="M 0 0 M2293.88 1516.63 L2282.08 1535.08 L2293.88 1535.08 L2293.88 1516.63 M2292.65 1512.56 L2298.53 1512.56 L2298.53 1535.08 L2303.46 1535.08 L2303.46 1538.97 L2298.53 1538.97 L2298.53 1547.12 L2293.88 1547.12 L2293.88 1538.97 L2278.28 1538.97 L2278.28 1534.46 L2292.65 1512.56 Z" fill="#000000" fill-rule="evenodd" fill-opacity="1" /><polyline clip-path="url(#clip532)" style="stroke:#000000; stroke-width:2; stroke-opacity:0.1; fill:none" points="
  166.205,1447.87 2352.76,1447.87 
  "/>
<polyline clip-path="url(#clip532)" style="stroke:#000000; stroke-width:2; stroke-opacity:0.1; fill:none" points="
  166.205,1145.33 2352.76,1145.33 
  "/>
<polyline clip-path="url(#clip532)" style="stroke:#000000; stroke-width:2; stroke-opacity:0.1; fill:none" points="
  166.205,842.778 2352.76,842.778 
  "/>
<polyline clip-path="url(#clip532)" style="stroke:#000000; stroke-width:2; stroke-opacity:0.1; fill:none" points="
  166.205,540.231 2352.76,540.231 
  "/>
<polyline clip-path="url(#clip532)" style="stroke:#000000; stroke-width:2; stroke-opacity:0.1; fill:none" points="
  166.205,237.684 2352.76,237.684 
  "/>
<polyline clip-path="url(#clip530)" style="stroke:#000000; stroke-width:4; stroke-opacity:1; fill:none" points="
  166.205,1486.45 166.205,123.472 
  "/>
<polyline clip-path="url(#clip530)" style="stroke:#000000; stroke-width:4; stroke-opacity:1; fill:none" points="
  166.205,1447.87 192.443,1447.87 
  "/>
<polyline clip-path="url(#clip530)" style="stroke:#000000; stroke-width:4; stroke-opacity:1; fill:none" points="
  166.205,1145.33 192.443,1145.33 
  "/>
<polyline clip-path="url(#clip530)" style="stroke:#000000; stroke-width:4; stroke-opacity:1; fill:none" points="
  166.205,842.778 192.443,842.778 
  "/>
<polyline clip-path="url(#clip530)" style="stroke:#000000; stroke-width:4; stroke-opacity:1; fill:none" points="
  166.205,540.231 192.443,540.231 
  "/>
<polyline clip-path="url(#clip530)" style="stroke:#000000; stroke-width:4; stroke-opacity:1; fill:none" points="
  166.205,237.684 192.443,237.684 
  "/>
<path clip-path="url(#clip530)" d="M 0 0 M118.26 1433.67 Q114.649 1433.67 112.82 1437.24 Q111.015 1440.78 111.015 1447.91 Q111.015 1455.01 112.82 1458.58 Q114.649 1462.12 118.26 1462.12 Q121.895 1462.12 123.7 1458.58 Q125.529 1455.01 125.529 1447.91 Q125.529 1440.78 123.7 1437.24 Q121.895 1433.67 118.26 1433.67 M118.26 1429.97 Q124.07 1429.97 127.126 1434.57 Q130.205 1439.16 130.205 1447.91 Q130.205 1456.63 127.126 1461.24 Q124.07 1465.82 118.26 1465.82 Q112.45 1465.82 109.371 1461.24 Q106.316 1456.63 106.316 1447.91 Q106.316 1439.16 109.371 1434.57 Q112.45 1429.97 118.26 1429.97 Z" fill="#000000" fill-rule="evenodd" fill-opacity="1" /><path clip-path="url(#clip530)" d="M 0 0 M59.8578 1158.67 L76.1772 1158.67 L76.1772 1162.61 L54.2328 1162.61 L54.2328 1158.67 Q56.8949 1155.92 61.4782 1151.29 Q66.0846 1146.63 67.2652 1145.29 Q69.5105 1142.77 70.3902 1141.03 Q71.2929 1139.27 71.2929 1137.58 Q71.2929 1134.83 69.3485 1133.09 Q67.4272 1131.36 64.3254 1131.36 Q62.1263 1131.36 59.6726 1132.12 Q57.2421 1132.88 54.4643 1134.43 L54.4643 1129.71 Q57.2884 1128.58 59.7421 1128 Q62.1958 1127.42 64.2328 1127.42 Q69.6031 1127.42 72.7976 1130.11 Q75.992 1132.79 75.992 1137.28 Q75.992 1139.41 75.1818 1141.33 Q74.3948 1143.23 72.2883 1145.82 Q71.7096 1146.49 68.6078 1149.71 Q65.5059 1152.91 59.8578 1158.67 Z" fill="#000000" fill-rule="evenodd" fill-opacity="1" /><path clip-path="url(#clip530)" d="M 0 0 M91.2465 1131.12 Q87.6354 1131.12 85.8068 1134.69 Q84.0012 1138.23 84.0012 1145.36 Q84.0012 1152.47 85.8068 1156.03 Q87.6354 1159.57 91.2465 1159.57 Q94.8808 1159.57 96.6863 1156.03 Q98.515 1152.47 98.515 1145.36 Q98.515 1138.23 96.6863 1134.69 Q94.8808 1131.12 91.2465 1131.12 M91.2465 1127.42 Q97.0567 1127.42 100.112 1132.03 Q103.191 1136.61 103.191 1145.36 Q103.191 1154.09 100.112 1158.69 Q97.0567 1163.28 91.2465 1163.28 Q85.4364 1163.28 82.3577 1158.69 Q79.3022 1154.09 79.3022 1145.36 Q79.3022 1136.61 82.3577 1132.03 Q85.4364 1127.42 91.2465 1127.42 Z" fill="#000000" fill-rule="evenodd" fill-opacity="1" /><path clip-path="url(#clip530)" d="M 0 0 M118.26 1131.12 Q114.649 1131.12 112.82 1134.69 Q111.015 1138.23 111.015 1145.36 Q111.015 1152.47 112.82 1156.03 Q114.649 1159.57 118.26 1159.57 Q121.895 1159.57 123.7 1156.03 Q125.529 1152.47 125.529 1145.36 Q125.529 1138.23 123.7 1134.69 Q121.895 1131.12 118.26 1131.12 M118.26 1127.42 Q124.07 1127.42 127.126 1132.03 Q130.205 1136.61 130.205 1145.36 Q130.205 1154.09 127.126 1158.69 Q124.07 1163.28 118.26 1163.28 Q112.45 1163.28 109.371 1158.69 Q106.316 1154.09 106.316 1145.36 Q106.316 1136.61 109.371 1132.03 Q112.45 1127.42 118.26 1127.42 Z" fill="#000000" fill-rule="evenodd" fill-opacity="1" /><path clip-path="url(#clip530)" d="M 0 0 M66.5939 829.572 L54.7884 848.021 L66.5939 848.021 L66.5939 829.572 M65.367 825.498 L71.2466 825.498 L71.2466 848.021 L76.1772 848.021 L76.1772 851.91 L71.2466 851.91 L71.2466 860.058 L66.5939 860.058 L66.5939 851.91 L50.9921 851.91 L50.9921 847.396 L65.367 825.498 Z" fill="#000000" fill-rule="evenodd" fill-opacity="1" /><path clip-path="url(#clip530)" d="M 0 0 M91.2465 828.577 Q87.6354 828.577 85.8068 832.142 Q84.0012 835.684 84.0012 842.813 Q84.0012 849.92 85.8068 853.484 Q87.6354 857.026 91.2465 857.026 Q94.8808 857.026 96.6863 853.484 Q98.515 849.92 98.515 842.813 Q98.515 835.684 96.6863 832.142 Q94.8808 828.577 91.2465 828.577 M91.2465 824.873 Q97.0567 824.873 100.112 829.48 Q103.191 834.063 103.191 842.813 Q103.191 851.54 100.112 856.146 Q97.0567 860.73 91.2465 860.73 Q85.4364 860.73 82.3577 856.146 Q79.3022 851.54 79.3022 842.813 Q79.3022 834.063 82.3577 829.48 Q85.4364 824.873 91.2465 824.873 Z" fill="#000000" fill-rule="evenodd" fill-opacity="1" /><path clip-path="url(#clip530)" d="M 0 0 M118.26 828.577 Q114.649 828.577 112.82 832.142 Q111.015 835.684 111.015 842.813 Q111.015 849.92 112.82 853.484 Q114.649 857.026 118.26 857.026 Q121.895 857.026 123.7 853.484 Q125.529 849.92 125.529 842.813 Q125.529 835.684 123.7 832.142 Q121.895 828.577 118.26 828.577 M118.26 824.873 Q124.07 824.873 127.126 829.48 Q130.205 834.063 130.205 842.813 Q130.205 851.54 127.126 856.146 Q124.07 860.73 118.26 860.73 Q112.45 860.73 109.371 856.146 Q106.316 851.54 106.316 842.813 Q106.316 834.063 109.371 829.48 Q112.45 824.873 118.26 824.873 Z" fill="#000000" fill-rule="evenodd" fill-opacity="1" /><path clip-path="url(#clip530)" d="M 0 0 M64.6495 538.368 Q61.5013 538.368 59.6495 540.52 Q57.8208 542.673 57.8208 546.423 Q57.8208 550.15 59.6495 552.326 Q61.5013 554.479 64.6495 554.479 Q67.7976 554.479 69.6263 552.326 Q71.4781 550.15 71.4781 546.423 Q71.4781 542.673 69.6263 540.52 Q67.7976 538.368 64.6495 538.368 M73.9318 523.715 L73.9318 527.974 Q72.1726 527.141 70.367 526.701 Q68.5846 526.261 66.8254 526.261 Q62.1958 526.261 59.7421 529.386 Q57.3115 532.511 56.9643 538.831 Q58.33 536.817 60.3902 535.752 Q62.4504 534.664 64.9272 534.664 Q70.1355 534.664 73.1448 537.835 Q76.1772 540.983 76.1772 546.423 Q76.1772 551.747 73.029 554.965 Q69.8809 558.182 64.6495 558.182 Q58.6541 558.182 55.4828 553.599 Q52.3116 548.993 52.3116 540.266 Q52.3116 532.071 56.2004 527.21 Q60.0893 522.326 66.6402 522.326 Q68.3994 522.326 70.1818 522.673 Q71.9874 523.021 73.9318 523.715 Z" fill="#000000" fill-rule="evenodd" fill-opacity="1" /><path clip-path="url(#clip530)" d="M 0 0 M91.2465 526.03 Q87.6354 526.03 85.8068 529.595 Q84.0012 533.136 84.0012 540.266 Q84.0012 547.372 85.8068 550.937 Q87.6354 554.479 91.2465 554.479 Q94.8808 554.479 96.6863 550.937 Q98.515 547.372 98.515 540.266 Q98.515 533.136 96.6863 529.595 Q94.8808 526.03 91.2465 526.03 M91.2465 522.326 Q97.0567 522.326 100.112 526.933 Q103.191 531.516 103.191 540.266 Q103.191 548.993 100.112 553.599 Q97.0567 558.182 91.2465 558.182 Q85.4364 558.182 82.3577 553.599 Q79.3022 548.993 79.3022 540.266 Q79.3022 531.516 82.3577 526.933 Q85.4364 522.326 91.2465 522.326 Z" fill="#000000" fill-rule="evenodd" fill-opacity="1" /><path clip-path="url(#clip530)" d="M 0 0 M118.26 526.03 Q114.649 526.03 112.82 529.595 Q111.015 533.136 111.015 540.266 Q111.015 547.372 112.82 550.937 Q114.649 554.479 118.26 554.479 Q121.895 554.479 123.7 550.937 Q125.529 547.372 125.529 540.266 Q125.529 533.136 123.7 529.595 Q121.895 526.03 118.26 526.03 M118.26 522.326 Q124.07 522.326 127.126 526.933 Q130.205 531.516 130.205 540.266 Q130.205 548.993 127.126 553.599 Q124.07 558.182 118.26 558.182 Q112.45 558.182 109.371 553.599 Q106.316 548.993 106.316 540.266 Q106.316 531.516 109.371 526.933 Q112.45 522.326 118.26 522.326 Z" fill="#000000" fill-rule="evenodd" fill-opacity="1" /><path clip-path="url(#clip530)" d="M 0 0 M64.3254 238.552 Q60.9921 238.552 59.0708 240.334 Q57.1726 242.117 57.1726 245.242 Q57.1726 248.367 59.0708 250.149 Q60.9921 251.931 64.3254 251.931 Q67.6587 251.931 69.58 250.149 Q71.5013 248.343 71.5013 245.242 Q71.5013 242.117 69.58 240.334 Q67.6819 238.552 64.3254 238.552 M59.6495 236.561 Q56.6402 235.82 54.9504 233.76 Q53.2838 231.7 53.2838 228.737 Q53.2838 224.594 56.2236 222.186 Q59.1865 219.779 64.3254 219.779 Q69.4874 219.779 72.4272 222.186 Q75.367 224.594 75.367 228.737 Q75.367 231.7 73.6772 233.76 Q72.0105 235.82 69.0244 236.561 Q72.404 237.348 74.279 239.64 Q76.1772 241.931 76.1772 245.242 Q76.1772 250.265 73.0985 252.95 Q70.0429 255.635 64.3254 255.635 Q58.6078 255.635 55.5291 252.95 Q52.4736 250.265 52.4736 245.242 Q52.4736 241.931 54.3717 239.64 Q56.2699 237.348 59.6495 236.561 M57.9365 229.177 Q57.9365 231.862 59.6032 233.367 Q61.293 234.871 64.3254 234.871 Q67.3346 234.871 69.0244 233.367 Q70.7374 231.862 70.7374 229.177 Q70.7374 226.492 69.0244 224.987 Q67.3346 223.482 64.3254 223.482 Q61.293 223.482 59.6032 224.987 Q57.9365 226.492 57.9365 229.177 Z" fill="#000000" fill-rule="evenodd" fill-opacity="1" /><path clip-path="url(#clip530)" d="M 0 0 M91.2465 223.482 Q87.6354 223.482 85.8068 227.047 Q84.0012 230.589 84.0012 237.718 Q84.0012 244.825 85.8068 248.39 Q87.6354 251.931 91.2465 251.931 Q94.8808 251.931 96.6863 248.39 Q98.515 244.825 98.515 237.718 Q98.515 230.589 96.6863 227.047 Q94.8808 223.482 91.2465 223.482 M91.2465 219.779 Q97.0567 219.779 100.112 224.385 Q103.191 228.969 103.191 237.718 Q103.191 246.445 100.112 251.052 Q97.0567 255.635 91.2465 255.635 Q85.4364 255.635 82.3577 251.052 Q79.3022 246.445 79.3022 237.718 Q79.3022 228.969 82.3577 224.385 Q85.4364 219.779 91.2465 219.779 Z" fill="#000000" fill-rule="evenodd" fill-opacity="1" /><path clip-path="url(#clip530)" d="M 0 0 M118.26 223.482 Q114.649 223.482 112.82 227.047 Q111.015 230.589 111.015 237.718 Q111.015 244.825 112.82 248.39 Q114.649 251.931 118.26 251.931 Q121.895 251.931 123.7 248.39 Q125.529 244.825 125.529 237.718 Q125.529 230.589 123.7 227.047 Q121.895 223.482 118.26 223.482 M118.26 219.779 Q124.07 219.779 127.126 224.385 Q130.205 228.969 130.205 237.718 Q130.205 246.445 127.126 251.052 Q124.07 255.635 118.26 255.635 Q112.45 255.635 109.371 251.052 Q106.316 246.445 106.316 237.718 Q106.316 228.969 109.371 224.385 Q112.45 219.779 118.26 219.779 Z" fill="#000000" fill-rule="evenodd" fill-opacity="1" /><path clip-path="url(#clip530)" d="M 0 0 M1183.67 18.8205 L1183.67 65.8515 L1193.55 65.8515 Q1206.07 65.8515 1211.86 60.1802 Q1217.7 54.509 1217.7 42.2752 Q1217.7 30.1225 1211.86 24.4918 Q1206.07 18.8205 1193.55 18.8205 L1183.67 18.8205 M1175.48 12.096 L1192.3 12.096 Q1209.88 12.096 1218.1 19.4281 Q1226.32 26.7198 1226.32 42.2752 Q1226.32 57.9117 1218.06 65.2439 Q1209.8 72.576 1192.3 72.576 L1175.48 72.576 L1175.48 12.096 Z" fill="#000000" fill-rule="evenodd" fill-opacity="1" /><path clip-path="url(#clip530)" d="M 0 0 M1254.76 49.7694 Q1245.73 49.7694 1242.24 51.8354 Q1238.76 53.9013 1238.76 58.8839 Q1238.76 62.8538 1241.35 65.2034 Q1243.99 67.5124 1248.48 67.5124 Q1254.68 67.5124 1258.41 63.1374 Q1262.17 58.7219 1262.17 51.4303 L1262.17 49.7694 L1254.76 49.7694 M1269.63 46.6907 L1269.63 72.576 L1262.17 72.576 L1262.17 65.6895 Q1259.62 69.8214 1255.81 71.8063 Q1252.01 73.7508 1246.5 73.7508 Q1239.53 73.7508 1235.4 69.8619 Q1231.31 65.9325 1231.31 59.3701 Q1231.31 51.7138 1236.41 47.825 Q1241.56 43.9361 1251.72 43.9361 L1262.17 43.9361 L1262.17 43.2069 Q1262.17 38.0623 1258.77 35.2672 Q1255.41 32.4315 1249.29 32.4315 Q1245.4 32.4315 1241.72 33.3632 Q1238.03 34.295 1234.63 36.1584 L1234.63 29.2718 Q1238.72 27.692 1242.57 26.9223 Q1246.42 26.1121 1250.06 26.1121 Q1259.91 26.1121 1264.77 31.2163 Q1269.63 36.3204 1269.63 46.6907 Z" fill="#000000" fill-rule="evenodd" fill-opacity="1" /><path clip-path="url(#clip530)" d="M 0 0 M1284.82 14.324 L1284.82 27.2059 L1300.17 27.2059 L1300.17 32.9987 L1284.82 32.9987 L1284.82 57.6282 Q1284.82 63.1779 1286.32 64.7578 Q1287.86 66.3376 1292.52 66.3376 L1300.17 66.3376 L1300.17 72.576 L1292.52 72.576 Q1283.89 72.576 1280.61 69.3758 Q1277.32 66.1351 1277.32 57.6282 L1277.32 32.9987 L1271.86 32.9987 L1271.86 27.2059 L1277.32 27.2059 L1277.32 14.324 L1284.82 14.324 Z" fill="#000000" fill-rule="evenodd" fill-opacity="1" /><path clip-path="url(#clip530)" d="M 0 0 M1328.61 49.7694 Q1319.58 49.7694 1316.09 51.8354 Q1312.61 53.9013 1312.61 58.8839 Q1312.61 62.8538 1315.2 65.2034 Q1317.83 67.5124 1322.33 67.5124 Q1328.53 67.5124 1332.25 63.1374 Q1336.02 58.7219 1336.02 51.4303 L1336.02 49.7694 L1328.61 49.7694 M1343.48 46.6907 L1343.48 72.576 L1336.02 72.576 L1336.02 65.6895 Q1333.47 69.8214 1329.66 71.8063 Q1325.85 73.7508 1320.35 73.7508 Q1313.38 73.7508 1309.25 69.8619 Q1305.15 65.9325 1305.15 59.3701 Q1305.15 51.7138 1310.26 47.825 Q1315.4 43.9361 1325.57 43.9361 L1336.02 43.9361 L1336.02 43.2069 Q1336.02 38.0623 1332.62 35.2672 Q1329.26 32.4315 1323.14 32.4315 Q1319.25 32.4315 1315.57 33.3632 Q1311.88 34.295 1308.48 36.1584 L1308.48 29.2718 Q1312.57 27.692 1316.42 26.9223 Q1320.26 26.1121 1323.91 26.1121 Q1333.75 26.1121 1338.61 31.2163 Q1343.48 36.3204 1343.48 46.6907 Z" fill="#000000" fill-rule="evenodd" fill-opacity="1" /><polyline clip-path="url(#clip532)" style="stroke:#009af9; stroke-width:4; stroke-opacity:1; fill:none" points="
  228.088,1447.87 228.088,1387.36 262.468,1387.36 262.468,1326.85 296.848,1326.85 296.848,1251.22 331.227,1251.22 331.227,1175.58 365.607,1175.58 
  399.987,1175.58 399.987,1039.43 434.367,1039.43 434.367,994.052 468.746,994.052 468.746,1054.56 503.126,1054.56 503.126,797.396 537.506,797.396 537.506,767.142 
  571.886,767.142 571.886,888.161 606.265,888.161 606.265,903.288 640.645,903.288 640.645,933.543 675.025,933.543 675.025,963.797 709.405,963.797 709.405,978.925 
  743.784,978.925 743.784,1175.58 778.164,1175.58 778.164,1190.71 812.544,1190.71 812.544,1099.94 846.923,1099.94 846.923,1311.73 881.303,1311.73 881.303,1387.36 
  915.683,1387.36 915.683,1372.24 950.063,1372.24 950.063,1402.49 984.442,1402.49 984.442,1432.75 1018.82,1432.75 1018.82,1417.62 1053.2,1417.62 1053.2,1432.75 
  1087.58,1432.75 1087.58,1447.87 1121.96,1447.87 1121.96,1372.24 1156.34,1372.24 1156.34,1417.62 1190.72,1417.62 1190.72,1296.6 1225.1,1296.6 1225.1,1417.62 
  1259.48,1417.62 1259.48,1220.96 1293.86,1220.96 1293.86,1099.94 1328.24,1099.94 1328.24,994.052 1362.62,994.052 1362.62,873.033 1397,873.033 1397,691.505 
  1431.38,691.505 1431.38,525.104 1465.76,525.104 1465.76,782.269 1500.14,782.269 1500.14,162.047 1534.52,162.047 1534.52,298.193 1568.9,298.193 1568.9,222.556 
  1603.28,222.556 1603.28,252.811 1637.66,252.811 1637.66,222.556 1672.04,222.556 1672.04,434.34 1706.42,434.34 1706.42,479.722 1740.8,479.722 1740.8,691.505 
  1775.18,691.505 1775.18,752.014 1809.56,752.014 1809.56,1009.18 1843.94,1009.18 1843.94,1160.45 1878.32,1160.45 1878.32,1266.34 1912.7,1266.34 
  1947.08,1266.34 1947.08,1296.6 1981.45,1296.6 1981.45,1387.36 2015.83,1387.36 2015.83,1417.62 2050.21,1417.62 2050.21,1447.87 2084.59,1447.87 2084.59,1432.75 
  2118.97,1432.75 2118.97,1417.62 2153.35,1417.62 2153.35,1447.87 2187.73,1447.87 2222.11,1447.87 2256.49,1447.87 
  2290.87,1447.87 
  "/>
<path clip-path="url(#clip530)" d="
M1940.93 289.865 L2279.87 289.865 L2279.87 168.905 L1940.93 168.905  Z
  " fill="#ffffff" fill-rule="evenodd" fill-opacity="1"/>
<polyline clip-path="url(#clip530)" style="stroke:#000000; stroke-width:4; stroke-opacity:1; fill:none" points="
  1940.93,289.865 2279.87,289.865 2279.87,168.905 1940.93,168.905 1940.93,289.865 
  "/>
<polyline clip-path="url(#clip530)" style="stroke:#009af9; stroke-width:4; stroke-opacity:1; fill:none" points="
  1965.22,229.385 2110.99,229.385 
  "/>
<path clip-path="url(#clip530)" d="M 0 0 M2139.96 215.947 L2139.96 242.822 L2145.61 242.822 Q2152.76 242.822 2156.07 239.581 Q2159.41 236.341 2159.41 229.35 Q2159.41 222.406 2156.07 219.188 Q2152.76 215.947 2145.61 215.947 L2139.96 215.947 M2135.29 212.105 L2144.89 212.105 Q2154.94 212.105 2159.64 216.294 Q2164.34 220.461 2164.34 229.35 Q2164.34 238.285 2159.61 242.475 Q2154.89 246.665 2144.89 246.665 L2135.29 246.665 L2135.29 212.105 Z" fill="#000000" fill-rule="evenodd" fill-opacity="1" /><path clip-path="url(#clip530)" d="M 0 0 M2180.59 233.632 Q2175.42 233.632 2173.43 234.813 Q2171.44 235.993 2171.44 238.841 Q2171.44 241.109 2172.92 242.452 Q2174.43 243.771 2177 243.771 Q2180.54 243.771 2182.67 241.271 Q2184.82 238.748 2184.82 234.581 L2184.82 233.632 L2180.59 233.632 M2189.08 231.873 L2189.08 246.665 L2184.82 246.665 L2184.82 242.729 Q2183.36 245.091 2181.19 246.225 Q2179.01 247.336 2175.86 247.336 Q2171.88 247.336 2169.52 245.114 Q2167.18 242.868 2167.18 239.118 Q2167.18 234.743 2170.1 232.521 Q2173.04 230.299 2178.85 230.299 L2184.82 230.299 L2184.82 229.882 Q2184.82 226.943 2182.88 225.345 Q2180.96 223.725 2177.46 223.725 Q2175.24 223.725 2173.13 224.257 Q2171.03 224.79 2169.08 225.855 L2169.08 221.919 Q2171.42 221.017 2173.62 220.577 Q2175.82 220.114 2177.9 220.114 Q2183.53 220.114 2186.3 223.031 Q2189.08 225.947 2189.08 231.873 Z" fill="#000000" fill-rule="evenodd" fill-opacity="1" /><path clip-path="url(#clip530)" d="M 0 0 M2197.76 213.378 L2197.76 220.739 L2206.54 220.739 L2206.54 224.049 L2197.76 224.049 L2197.76 238.123 Q2197.76 241.294 2198.62 242.197 Q2199.5 243.1 2202.16 243.1 L2206.54 243.1 L2206.54 246.665 L2202.16 246.665 Q2197.23 246.665 2195.36 244.836 Q2193.48 242.984 2193.48 238.123 L2193.48 224.049 L2190.36 224.049 L2190.36 220.739 L2193.48 220.739 L2193.48 213.378 L2197.76 213.378 Z" fill="#000000" fill-rule="evenodd" fill-opacity="1" /><path clip-path="url(#clip530)" d="M 0 0 M2222.79 233.632 Q2217.62 233.632 2215.63 234.813 Q2213.64 235.993 2213.64 238.841 Q2213.64 241.109 2215.12 242.452 Q2216.63 243.771 2219.2 243.771 Q2222.74 243.771 2224.87 241.271 Q2227.02 238.748 2227.02 234.581 L2227.02 233.632 L2222.79 233.632 M2231.28 231.873 L2231.28 246.665 L2227.02 246.665 L2227.02 242.729 Q2225.56 245.091 2223.39 246.225 Q2221.21 247.336 2218.06 247.336 Q2214.08 247.336 2211.72 245.114 Q2209.38 242.868 2209.38 239.118 Q2209.38 234.743 2212.3 232.521 Q2215.24 230.299 2221.05 230.299 L2227.02 230.299 L2227.02 229.882 Q2227.02 226.943 2225.08 225.345 Q2223.16 223.725 2219.66 223.725 Q2217.44 223.725 2215.33 224.257 Q2213.23 224.79 2211.28 225.855 L2211.28 221.919 Q2213.62 221.017 2215.82 220.577 Q2218.02 220.114 2220.1 220.114 Q2225.73 220.114 2228.5 223.031 Q2231.28 225.947 2231.28 231.873 Z" fill="#000000" fill-rule="evenodd" fill-opacity="1" /></svg>
