<?xml version="1.0" encoding="utf-8"?>
<svg xmlns="http://www.w3.org/2000/svg" xmlns:xlink="http://www.w3.org/1999/xlink" width="600" height="400" viewBox="0 0 2400 1600">
<defs>
  <clipPath id="clip560">
    <rect x="0" y="0" width="2400" height="1600"/>
  </clipPath>
</defs>
<path clip-path="url(#clip560)" d="
M0 1600 L2400 1600 L2400 0 L0 0  Z
  " fill="#ffffff" fill-rule="evenodd" fill-opacity="1"/>
<defs>
  <clipPath id="clip561">
    <rect x="480" y="0" width="1681" height="1600"/>
  </clipPath>
</defs>
<path clip-path="url(#clip560)" d="
M166.205 1486.45 L2352.76 1486.45 L2352.76 123.472 L166.205 123.472  Z
  " fill="#ffffff" fill-rule="evenodd" fill-opacity="1"/>
<defs>
  <clipPath id="clip562">
    <rect x="166" y="123" width="2188" height="1364"/>
  </clipPath>
</defs>
<polyline clip-path="url(#clip562)" style="stroke:#000000; stroke-width:2; stroke-opacity:0.1; fill:none" points="
  228.088,1486.45 228.088,123.472 
  "/>
<polyline clip-path="url(#clip562)" style="stroke:#000000; stroke-width:2; stroke-opacity:0.1; fill:none" points="
  743.784,1486.45 743.784,123.472 
  "/>
<polyline clip-path="url(#clip562)" style="stroke:#000000; stroke-width:2; stroke-opacity:0.1; fill:none" points="
  1259.48,1486.45 1259.48,123.472 
  "/>
<polyline clip-path="url(#clip562)" style="stroke:#000000; stroke-width:2; stroke-opacity:0.1; fill:none" points="
  1775.18,1486.45 1775.18,123.472 
  "/>
<polyline clip-path="url(#clip562)" style="stroke:#000000; stroke-width:2; stroke-opacity:0.1; fill:none" points="
  2290.87,1486.45 2290.87,123.472 
  "/>
<polyline clip-path="url(#clip560)" style="stroke:#000000; stroke-width:4; stroke-opacity:1; fill:none" points="
  166.205,1486.45 2352.76,1486.45 
  "/>
<polyline clip-path="url(#clip560)" style="stroke:#000000; stroke-width:4; stroke-opacity:1; fill:none" points="
  228.088,1486.45 228.088,1470.09 
  "/>
<polyline clip-path="url(#clip560)" style="stroke:#000000; stroke-width:4; stroke-opacity:1; fill:none" points="
  743.784,1486.45 743.784,1470.09 
  "/>
<polyline clip-path="url(#clip560)" style="stroke:#000000; stroke-width:4; stroke-opacity:1; fill:none" points="
  1259.48,1486.45 1259.48,1470.09 
  "/>
<polyline clip-path="url(#clip560)" style="stroke:#000000; stroke-width:4; stroke-opacity:1; fill:none" points="
  1775.18,1486.45 1775.18,1470.09 
  "/>
<polyline clip-path="url(#clip560)" style="stroke:#000000; stroke-width:4; stroke-opacity:1; fill:none" points="
  2290.87,1486.45 2290.87,1470.09 
  "/>
<path clip-path="url(#clip560)" d="M 0 0 M199.5 1530.29 L229.176 1530.29 L229.176 1534.23 L199.5 1534.23 L199.5 1530.29 Z" fill="#000000" fill-rule="evenodd" fill-opacity="1" /><path clip-path="url(#clip560)" d="M 0 0 M247.093 1516.63 L235.287 1535.08 L247.093 1535.08 L247.093 1516.63 M245.866 1512.56 L251.745 1512.56 L251.745 1535.08 L256.676 1535.08 L256.676 1538.97 L251.745 1538.97 L251.745 1547.12 L247.093 1547.12 L247.093 1538.97 L231.491 1538.97 L231.491 1534.46 L245.866 1512.56 Z" fill="#000000" fill-rule="evenodd" fill-opacity="1" /><path clip-path="url(#clip560)" d="M 0 0 M716.238 1530.29 L745.914 1530.29 L745.914 1534.23 L716.238 1534.23 L716.238 1530.29 Z" fill="#000000" fill-rule="evenodd" fill-opacity="1" /><path clip-path="url(#clip560)" d="M 0 0 M755.011 1543.18 L771.33 1543.18 L771.33 1547.12 L749.386 1547.12 L749.386 1543.18 Q752.048 1540.43 756.631 1535.8 Q761.238 1531.15 762.418 1529.81 Q764.664 1527.28 765.543 1525.55 Q766.446 1523.79 766.446 1522.1 Q766.446 1519.34 764.502 1517.61 Q762.58 1515.87 759.479 1515.87 Q757.28 1515.87 754.826 1516.63 Q752.395 1517.4 749.618 1518.95 L749.618 1514.23 Q752.442 1513.09 754.895 1512.51 Q757.349 1511.93 759.386 1511.93 Q764.756 1511.93 767.951 1514.62 Q771.145 1517.31 771.145 1521.8 Q771.145 1523.93 770.335 1525.85 Q769.548 1527.74 767.442 1530.34 Q766.863 1531.01 763.761 1534.23 Q760.659 1537.42 755.011 1543.18 Z" fill="#000000" fill-rule="evenodd" fill-opacity="1" /><path clip-path="url(#clip560)" d="M 0 0 M1259.48 1515.64 Q1255.87 1515.64 1254.04 1519.2 Q1252.23 1522.75 1252.23 1529.87 Q1252.23 1536.98 1254.04 1540.55 Q1255.87 1544.09 1259.48 1544.09 Q1263.11 1544.09 1264.92 1540.55 Q1266.75 1536.98 1266.75 1529.87 Q1266.75 1522.75 1264.92 1519.2 Q1263.11 1515.64 1259.48 1515.64 M1259.48 1511.93 Q1265.29 1511.93 1268.35 1516.54 Q1271.42 1521.12 1271.42 1529.87 Q1271.42 1538.6 1268.35 1543.21 Q1265.29 1547.79 1259.48 1547.79 Q1253.67 1547.79 1250.59 1543.21 Q1247.54 1538.6 1247.54 1529.87 Q1247.54 1521.12 1250.59 1516.54 Q1253.67 1511.93 1259.48 1511.93 Z" fill="#000000" fill-rule="evenodd" fill-opacity="1" /><path clip-path="url(#clip560)" d="M 0 0 M1769.83 1543.18 L1786.15 1543.18 L1786.15 1547.12 L1764.2 1547.12 L1764.2 1543.18 Q1766.87 1540.43 1771.45 1535.8 Q1776.06 1531.15 1777.24 1529.81 Q1779.48 1527.28 1780.36 1525.55 Q1781.26 1523.79 1781.26 1522.1 Q1781.26 1519.34 1779.32 1517.61 Q1777.4 1515.87 1774.3 1515.87 Q1772.1 1515.87 1769.64 1516.63 Q1767.21 1517.4 1764.44 1518.95 L1764.44 1514.23 Q1767.26 1513.09 1769.71 1512.51 Q1772.17 1511.93 1774.2 1511.93 Q1779.57 1511.93 1782.77 1514.62 Q1785.96 1517.31 1785.96 1521.8 Q1785.96 1523.93 1785.15 1525.85 Q1784.37 1527.74 1782.26 1530.34 Q1781.68 1531.01 1778.58 1534.23 Q1775.48 1537.42 1769.83 1543.18 Z" fill="#000000" fill-rule="evenodd" fill-opacity="1" /><path clip-path="url(#clip560)" d="M 0 0 M2293.88 1516.63 L2282.08 1535.08 L2293.88 1535.08 L2293.88 1516.63 M2292.65 1512.56 L2298.53 1512.56 L2298.53 1535.08 L2303.46 1535.08 L2303.46 1538.97 L2298.53 1538.97 L2298.53 1547.12 L2293.88 1547.12 L2293.88 1538.97 L2278.28 1538.97 L2278.28 1534.46 L2292.65 1512.56 Z" fill="#000000" fill-rule="evenodd" fill-opacity="1" /><polyline clip-path="url(#clip562)" style="stroke:#000000; stroke-width:2; stroke-opacity:0.1; fill:none" points="
  166.205,1447.87 2352.76,1447.87 
  "/>
<polyline clip-path="url(#clip562)" style="stroke:#000000; stroke-width:2; stroke-opacity:0.1; fill:none" points="
  166.205,1145.33 2352.76,1145.33 
  "/>
<polyline clip-path="url(#clip562)" style="stroke:#000000; stroke-width:2; stroke-opacity:0.1; fill:none" points="
  166.205,842.778 2352.76,842.778 
  "/>
<polyline clip-path="url(#clip562)" style="stroke:#000000; stroke-width:2; stroke-opacity:0.1; fill:none" points="
  166.205,540.231 2352.76,540.231 
  "/>
<polyline clip-path="url(#clip562)" style="stroke:#000000; stroke-width:2; stroke-opacity:0.1; fill:none" points="
  166.205,237.684 2352.76,237.684 
  "/>
<polyline clip-path="url(#clip560)" style="stroke:#000000; stroke-width:4; stroke-opacity:1; fill:none" points="
  166.205,1486.45 166.205,123.472 
  "/>
<polyline clip-path="url(#clip560)" style="stroke:#000000; stroke-width:4; stroke-opacity:1; fill:none" points="
  166.205,1447.87 192.443,1447.87 
  "/>
<polyline clip-path="url(#clip560)" style="stroke:#000000; stroke-width:4; stroke-opacity:1; fill:none" points="
  166.205,1145.33 192.443,1145.33 
  "/>
<polyline clip-path="url(#clip560)" style="stroke:#000000; stroke-width:4; stroke-opacity:1; fill:none" points="
  166.205,842.778 192.443,842.778 
  "/>
<polyline clip-path="url(#clip560)" style="stroke:#000000; stroke-width:4; stroke-opacity:1; fill:none" points="
  166.205,540.231 192.443,540.231 
  "/>
<polyline clip-path="url(#clip560)" style="stroke:#000000; stroke-width:4; stroke-opacity:1; fill:none" points="
  166.205,237.684 192.443,237.684 
  "/>
<path clip-path="url(#clip560)" d="M 0 0 M118.26 1433.67 Q114.649 1433.67 112.82 1437.24 Q111.015 1440.78 111.015 1447.91 Q111.015 1455.01 112.82 1458.58 Q114.649 1462.12 118.26 1462.12 Q121.895 1462.12 123.7 1458.58 Q125.529 1455.01 125.529 1447.91 Q125.529 1440.78 123.7 1437.24 Q121.895 1433.67 118.26 1433.67 M118.26 1429.97 Q124.07 1429.97 127.126 1434.57 Q130.205 1439.16 130.205 1447.91 Q130.205 1456.63 127.126 1461.24 Q124.07 1465.82 118.26 1465.82 Q112.45 1465.82 109.371 1461.24 Q106.316 1456.63 106.316 1447.91 Q106.316 1439.16 109.371 1434.57 Q112.45 1429.97 118.26 1429.97 Z" fill="#000000" fill-rule="evenodd" fill-opacity="1" /><path clip-path="url(#clip560)" d="M 0 0 M59.8578 1158.67 L76.1772 1158.67 L76.1772 1162.61 L54.2328 1162.61 L54.2328 1158.67 Q56.8949 1155.92 61.4782 1151.29 Q66.0846 1146.63 67.2652 1145.29 Q69.5105 1142.77 70.3902 1141.03 Q71.2929 1139.27 71.2929 1137.58 Q71.2929 1134.83 69.3485 1133.09 Q67.4272 1131.36 64.3254 1131.36 Q62.1263 1131.36 59.6726 1132.12 Q57.2421 1132.88 54.4643 1134.43 L54.4643 1129.71 Q57.2884 1128.58 59.7421 1128 Q62.1958 1127.42 64.2328 1127.42 Q69.6031 1127.42 72.7976 1130.11 Q75.992 1132.79 75.992 1137.28 Q75.992 1139.41 75.1818 1141.33 Q74.3948 1143.23 72.2883 1145.82 Q71.7096 1146.49 68.6078 1149.71 Q65.5059 1152.91 59.8578 1158.67 Z" fill="#000000" fill-rule="evenodd" fill-opacity="1" /><path clip-path="url(#clip560)" d="M 0 0 M91.2465 1131.12 Q87.6354 1131.12 85.8068 1134.69 Q84.0012 1138.23 84.0012 1145.36 Q84.0012 1152.47 85.8068 1156.03 Q87.6354 1159.57 91.2465 1159.57 Q94.8808 1159.57 96.6863 1156.03 Q98.515 1152.47 98.515 1145.36 Q98.515 1138.23 96.6863 1134.69 Q94.8808 1131.12 91.2465 1131.12 M91.2465 1127.42 Q97.0567 1127.42 100.112 1132.03 Q103.191 1136.61 103.191 1145.36 Q103.191 1154.09 100.112 1158.69 Q97.0567 1163.28 91.2465 1163.28 Q85.4364 1163.28 82.3577 1158.69 Q79.3022 1154.09 79.3022 1145.36 Q79.3022 1136.61 82.3577 1132.03 Q85.4364 1127.42 91.2465 1127.42 Z" fill="#000000" fill-rule="evenodd" fill-opacity="1" /><path clip-path="url(#clip560)" d="M 0 0 M118.26 1131.12 Q114.649 1131.12 112.82 1134.69 Q111.015 1138.23 111.015 1145.36 Q111.015 1152.47 112.82 1156.03 Q114.649 1159.57 118.26 1159.57 Q121.895 1159.57 123.7 1156.03 Q125.529 1152.47 125.529 1145.36 Q125.529 1138.23 123.7 1134.69 Q121.895 1131.12 118.26 1131.12 M118.26 1127.42 Q124.07 1127.42 127.126 1132.03 Q130.205 1136.61 130.205 1145.36 Q130.205 1154.09 127.126 1158.69 Q124.07 1163.28 118.26 1163.28 Q112.45 1163.28 109.371 1158.69 Q106.316 1154.09 106.316 1145.36 Q106.316 1136.61 109.371 1132.03 Q112.45 1127.42 118.26 1127.42 Z" fill="#000000" fill-rule="evenodd" fill-opacity="1" /><path clip-path="url(#clip560)" d="M 0 0 M66.5939 829.572 L54.7884 848.021 L66.5939 848.021 L66.5939 829.572 M65.367 825.498 L71.2466 825.498 L71.2466 848.021 L76.1772 848.021 L76.1772 851.91 L71.2466 851.91 L71.2466 860.058 L66.5939 860.058 L66.5939 851.91 L50.9921 851.91 L50.9921 847.396 L65.367 825.498 Z" fill="#000000" fill-rule="evenodd" fill-opacity="1" /><path clip-path="url(#clip560)" d="M 0 0 M91.2465 828.577 Q87.6354 828.577 85.8068 832.142 Q84.0012 835.684 84.0012 842.813 Q84.0012 849.92 85.8068 853.484 Q87.6354 857.026 91.2465 857.026 Q94.8808 857.026 96.6863 853.484 Q98.515 849.92 98.515 842.813 Q98.515 835.684 96.6863 832.142 Q94.8808 828.577 91.2465 828.577 M91.2465 824.873 Q97.0567 824.873 100.112 829.48 Q103.191 834.063 103.191 842.813 Q103.191 851.54 100.112 856.146 Q97.0567 860.73 91.2465 860.73 Q85.4364 860.73 82.3577 856.146 Q79.3022 851.54 79.3022 842.813 Q79.3022 834.063 82.3577 829.48 Q85.4364 824.873 91.2465 824.873 Z" fill="#000000" fill-rule="evenodd" fill-opacity="1" /><path clip-path="url(#clip560)" d="M 0 0 M118.26 828.577 Q114.649 828.577 112.82 832.142 Q111.015 835.684 111.015 842.813 Q111.015 849.92 112.82 853.484 Q114.649 857.026 118.26 857.026 Q121.895 857.026 123.7 853.484 Q125.529 849.92 125.529 842.813 Q125.529 835.684 123.7 832.142 Q121.895 828.577 118.26 828.577 M118.26 824.873 Q124.07 824.873 127.126 829.48 Q130.205 834.063 130.205 842.813 Q130.205 851.54 127.126 856.146 Q124.07 860.73 118.26 860.73 Q112.45 860.73 109.371 856.146 Q106.316 851.54 106.316 842.813 Q106.316 834.063 109.371 829.48 Q112.45 824.873 118.26 824.873 Z" fill="#000000" fill-rule="evenodd" fill-opacity="1" /><path clip-path="url(#clip560)" d="M 0 0 M64.6495 538.368 Q61.5013 538.368 59.6495 540.52 Q57.8208 542.673 57.8208 546.423 Q57.8208 550.15 59.6495 552.326 Q61.5013 554.479 64.6495 554.479 Q67.7976 554.479 69.6263 552.326 Q71.4781 550.15 71.4781 546.423 Q71.4781 542.673 69.6263 540.52 Q67.7976 538.368 64.6495 538.368 M73.9318 523.715 L73.9318 527.974 Q72.1726 527.141 70.367 526.701 Q68.5846 526.261 66.8254 526.261 Q62.1958 526.261 59.7421 529.386 Q57.3115 532.511 56.9643 538.831 Q58.33 536.817 60.3902 535.752 Q62.4504 534.664 64.9272 534.664 Q70.1355 534.664 73.1448 537.835 Q76.1772 540.983 76.1772 546.423 Q76.1772 551.747 73.029 554.965 Q69.8809 558.182 64.6495 558.182 Q58.6541 558.182 55.4828 553.599 Q52.3116 548.993 52.3116 540.266 Q52.3116 532.071 56.2004 527.21 Q60.0893 522.326 66.6402 522.326 Q68.3994 522.326 70.1818 522.673 Q71.9874 523.021 73.9318 523.715 Z" fill="#000000" fill-rule="evenodd" fill-opacity="1" /><path clip-path="url(#clip560)" d="M 0 0 M91.2465 526.03 Q87.6354 526.03 85.8068 529.595 Q84.0012 533.136 84.0012 540.266 Q84.0012 547.372 85.8068 550.937 Q87.6354 554.479 91.2465 554.479 Q94.8808 554.479 96.6863 550.937 Q98.515 547.372 98.515 540.266 Q98.515 533.136 96.6863 529.595 Q94.8808 526.03 91.2465 526.03 M91.2465 522.326 Q97.0567 522.326 100.112 526.933 Q103.191 531.516 103.191 540.266 Q103.191 548.993 100.112 553.599 Q97.0567 558.182 91.2465 558.182 Q85.4364 558.182 82.3577 553.599 Q79.3022 548.993 79.3022 540.266 Q79.3022 531.516 82.3577 526.933 Q85.4364 522.326 91.2465 522.326 Z" fill="#000000" fill-rule="evenodd" fill-opacity="1" /><path clip-path="url(#clip560)" d="M 0 0 M118.26 526.03 Q114.649 526.03 112.82 529.595 Q111.015 533.136 111.015 540.266 Q111.015 547.372 112.82 550.937 Q114.649 554.479 118.26 554.479 Q121.895 554.479 123.7 550.937 Q125.529 547.372 125.529 540.266 Q125.529 533.136 123.7 529.595 Q121.895 526.03 118.26 526.03 M118.26 522.326 Q124.07 522.326 127.126 526.933 Q130.205 531.516 130.205 540.266 Q130.205 548.993 127.126 553.599 Q124.07 558.182 118.26 558.182 Q112.45 558.182 109.371 553.599 Q106.316 548.993 106.316 540.266 Q106.316 531.516 109.371 526.933 Q112.45 522.326 118.26 522.326 Z" fill="#000000" fill-rule="evenodd" fill-opacity="1" /><path clip-path="url(#clip560)" d="M 0 0 M64.3254 238.552 Q60.9921 238.552 59.0708 240.334 Q57.1726 242.117 57.1726 245.242 Q57.1726 248.367 59.0708 250.149 Q60.9921 251.931 64.3254 251.931 Q67.6587 251.931 69.58 250.149 Q71.5013 248.343 71.5013 245.242 Q71.5013 242.117 69.58 240.334 Q67.6819 238.552 64.3254 238.552 M59.6495 236.561 Q56.6402 235.82 54.9504 233.76 Q53.2838 231.7 53.2838 228.737 Q53.2838 224.594 56.2236 222.186 Q59.1865 219.779 64.3254 219.779 Q69.4874 219.779 72.4272 222.186 Q75.367 224.594 75.367 228.737 Q75.367 231.7 73.6772 233.76 Q72.0105 235.82 69.0244 236.561 Q72.404 237.348 74.279 239.64 Q76.1772 241.931 76.1772 245.242 Q76.1772 250.265 73.0985 252.95 Q70.0429 255.635 64.3254 255.635 Q58.6078 255.635 55.5291 252.95 Q52.4736 250.265 52.4736 245.242 Q52.4736 241.931 54.3717 239.64 Q56.2699 237.348 59.6495 236.561 M57.9365 229.177 Q57.9365 231.862 59.6032 233.367 Q61.293 234.871 64.3254 234.871 Q67.3346 234.871 69.0244 233.367 Q70.7374 231.862 70.7374 229.177 Q70.7374 226.492 69.0244 224.987 Q67.3346 223.482 64.3254 223.482 Q61.293 223.482 59.6032 224.987 Q57.9365 226.492 57.9365 229.177 Z" fill="#000000" fill-rule="evenodd" fill-opacity="1" /><path clip-path="url(#clip560)" d="M 0 0 M91.2465 223.482 Q87.6354 223.482 85.8068 227.047 Q84.0012 230.589 84.0012 237.718 Q84.0012 244.825 85.8068 248.39 Q87.6354 251.931 91.2465 251.931 Q94.8808 251.931 96.6863 248.39 Q98.515 244.825 98.515 237.718 Q98.515 230.589 96.6863 227.047 Q94.8808 223.482 91.2465 223.482 M91.2465 219.779 Q97.0567 219.779 100.112 224.385 Q103.191 228.969 103.191 237.718 Q103.191 246.445 100.112 251.052 Q97.0567 255.635 91.2465 255.635 Q85.4364 255.635 82.3577 251.052 Q79.3022 246.445 79.3022 237.718 Q79.3022 228.969 82.3577 224.385 Q85.4364 219.779 91.2465 219.779 Z" fill="#000000" fill-rule="evenodd" fill-opacity="1" /><path clip-path="url(#clip560)" d="M 0 0 M118.26 223.482 Q114.649 223.482 112.82 227.047 Q111.015 230.589 111.015 237.718 Q111.015 244.825 112.82 248.39 Q114.649 251.931 118.26 251.931 Q121.895 251.931 123.7 248.39 Q125.529 244.825 125.529 237.718 Q125.529 230.589 123.7 227.047 Q121.895 223.482 118.26 223.482 M118.26 219.779 Q124.07 219.779 127.126 224.385 Q130.205 228.969 130.205 237.718 Q130.205 246.445 127.126 251.052 Q124.07 255.635 118.26 255.635 Q112.45 255.635 109.371 251.052 Q106.316 246.445 106.316 237.718 Q106.316 228.969 109.371 224.385 Q112.45 219.779 118.26 219.779 Z" fill="#000000" fill-rule="evenodd" fill-opacity="1" /><path clip-path="url(#clip560)" d="M 0 0 M697.458 18.8205 L697.458 65.8515 L707.342 65.8515 Q719.859 65.8515 725.652 60.1802 Q731.485 54.509 731.485 42.2752 Q731.485 30.1225 725.652 24.4918 Q719.859 18.8205 707.342 18.8205 L697.458 18.8205 M689.275 12.096 L706.086 12.096 Q723.667 12.096 731.891 19.4281 Q740.114 26.7198 740.114 42.2752 Q740.114 57.9117 731.85 65.2439 Q723.586 72.576 706.086 72.576 L689.275 72.576 L689.275 12.096 Z" fill="#000000" fill-rule="evenodd" fill-opacity="1" /><path clip-path="url(#clip560)" d="M 0 0 M768.551 49.7694 Q759.518 49.7694 756.034 51.8354 Q752.55 53.9013 752.55 58.8839 Q752.55 62.8538 755.143 65.2034 Q757.776 67.5124 762.272 67.5124 Q768.47 67.5124 772.197 63.1374 Q775.964 58.7219 775.964 51.4303 L775.964 49.7694 L768.551 49.7694 M783.418 46.6907 L783.418 72.576 L775.964 72.576 L775.964 65.6895 Q773.412 69.8214 769.604 71.8063 Q765.797 73.7508 760.287 73.7508 Q753.32 73.7508 749.188 69.8619 Q745.096 65.9325 745.096 59.3701 Q745.096 51.7138 750.201 47.825 Q755.345 43.9361 765.513 43.9361 L775.964 43.9361 L775.964 43.2069 Q775.964 38.0623 772.562 35.2672 Q769.199 32.4315 763.082 32.4315 Q759.194 32.4315 755.507 33.3632 Q751.821 34.295 748.418 36.1584 L748.418 29.2718 Q752.51 27.692 756.358 26.9223 Q760.206 26.1121 763.852 26.1121 Q773.696 26.1121 778.557 31.2163 Q783.418 36.3204 783.418 46.6907 Z" fill="#000000" fill-rule="evenodd" fill-opacity="1" /><path clip-path="url(#clip560)" d="M 0 0 M798.609 14.324 L798.609 27.2059 L813.962 27.2059 L813.962 32.9987 L798.609 32.9987 L798.609 57.6282 Q798.609 63.1779 800.108 64.7578 Q801.647 66.3376 806.306 66.3376 L813.962 66.3376 L813.962 72.576 L806.306 72.576 Q797.677 72.576 794.396 69.3758 Q791.115 66.1351 791.115 57.6282 L791.115 32.9987 L785.646 32.9987 L785.646 27.2059 L791.115 27.2059 L791.115 14.324 L798.609 14.324 Z" fill="#000000" fill-rule="evenodd" fill-opacity="1" /><path clip-path="url(#clip560)" d="M 0 0 M842.399 49.7694 Q833.366 49.7694 829.882 51.8354 Q826.398 53.9013 826.398 58.8839 Q826.398 62.8538 828.991 65.2034 Q831.624 67.5124 836.12 67.5124 Q842.318 67.5124 846.045 63.1374 Q849.812 58.7219 849.812 51.4303 L849.812 49.7694 L842.399 49.7694 M857.266 46.6907 L857.266 72.576 L849.812 72.576 L849.812 65.6895 Q847.26 69.8214 843.452 71.8063 Q839.645 73.7508 834.135 73.7508 Q827.168 73.7508 823.036 69.8619 Q818.944 65.9325 818.944 59.3701 Q818.944 51.7138 824.049 47.825 Q829.193 43.9361 839.361 43.9361 L849.812 43.9361 L849.812 43.2069 Q849.812 38.0623 846.41 35.2672 Q843.047 32.4315 836.93 32.4315 Q833.042 32.4315 829.355 33.3632 Q825.669 34.295 822.266 36.1584 L822.266 29.2718 Q826.358 27.692 830.206 26.9223 Q834.054 26.1121 837.7 26.1121 Q847.544 26.1121 852.405 31.2163 Q857.266 36.3204 857.266 46.6907 Z" fill="#000000" fill-rule="evenodd" fill-opacity="1" /><path clip-path="url(#clip560)" d="M 0 0 M912.075 49.7694 Q903.041 49.7694 899.557 51.8354 Q896.074 53.9013 896.074 58.8839 Q896.074 62.8538 898.666 65.2034 Q901.299 67.5124 905.796 67.5124 Q911.994 67.5124 915.721 63.1374 Q919.488 58.7219 919.488 51.4303 L919.488 49.7694 L912.075 49.7694 M926.942 46.6907 L926.942 72.576 L919.488 72.576 L919.488 65.6895 Q916.936 69.8214 913.128 71.8063 Q909.32 73.7508 903.811 73.7508 Q896.843 73.7508 892.711 69.8619 Q888.62 65.9325 888.62 59.3701 Q888.62 51.7138 893.724 47.825 Q898.869 43.9361 909.037 43.9361 L919.488 43.9361 L919.488 43.2069 Q919.488 38.0623 916.085 35.2672 Q912.723 32.4315 906.606 32.4315 Q902.717 32.4315 899.031 33.3632 Q895.345 34.295 891.942 36.1584 L891.942 29.2718 Q896.033 27.692 899.882 26.9223 Q903.73 26.1121 907.376 26.1121 Q917.219 26.1121 922.08 31.2163 Q926.942 36.3204 926.942 46.6907 Z" fill="#000000" fill-rule="evenodd" fill-opacity="1" /><path clip-path="url(#clip560)" d="M 0 0 M972.474 45.1919 L972.474 72.576 L965.02 72.576 L965.02 45.4349 Q965.02 38.994 962.508 35.7938 Q959.997 32.5936 954.974 32.5936 Q948.938 32.5936 945.454 36.4419 Q941.97 40.2903 941.97 46.9338 L941.97 72.576 L934.476 72.576 L934.476 27.2059 L941.97 27.2059 L941.97 34.2544 Q944.644 30.163 948.249 28.1376 Q951.895 26.1121 956.635 26.1121 Q964.453 26.1121 968.463 30.9732 Q972.474 35.7938 972.474 45.1919 Z" fill="#000000" fill-rule="evenodd" fill-opacity="1" /><path clip-path="url(#clip560)" d="M 0 0 M1010.15 34.0924 L1010.15 9.54393 L1017.6 9.54393 L1017.6 72.576 L1010.15 72.576 L1010.15 65.7705 Q1007.8 69.8214 1004.19 71.8063 Q1000.63 73.7508 995.604 73.7508 Q987.381 73.7508 982.196 67.1883 Q977.051 60.6258 977.051 49.9314 Q977.051 39.2371 982.196 32.6746 Q987.381 26.1121 995.604 26.1121 Q1000.63 26.1121 1004.19 28.0971 Q1007.8 30.0415 1010.15 34.0924 M984.748 49.9314 Q984.748 58.1548 988.11 62.8538 Q991.513 67.5124 997.427 67.5124 Q1003.34 67.5124 1006.74 62.8538 Q1010.15 58.1548 1010.15 49.9314 Q1010.15 41.7081 1006.74 37.0496 Q1003.34 32.3505 997.427 32.3505 Q991.513 32.3505 988.11 37.0496 Q984.748 41.7081 984.748 49.9314 Z" fill="#000000" fill-rule="evenodd" fill-opacity="1" /><path clip-path="url(#clip560)" d="M 0 0 M1043.73 12.096 L1094.89 12.096 L1094.89 18.9825 L1073.42 18.9825 L1073.42 72.576 L1065.2 72.576 L1065.2 18.9825 L1043.73 18.9825 L1043.73 12.096 Z" fill="#000000" fill-rule="evenodd" fill-opacity="1" /><path clip-path="url(#clip560)" d="M 0 0 M1116.81 34.1734 Q1115.55 33.4443 1114.05 33.1202 Q1112.59 32.7556 1110.81 32.7556 Q1104.49 32.7556 1101.09 36.8875 Q1097.73 40.9789 1097.73 48.6757 L1097.73 72.576 L1090.23 72.576 L1090.23 27.2059 L1097.73 27.2059 L1097.73 34.2544 Q1100.08 30.1225 1103.84 28.1376 Q1107.61 26.1121 1113 26.1121 Q1113.77 26.1121 1114.7 26.2337 Q1115.63 26.3147 1116.77 26.5172 L1116.81 34.1734 Z" fill="#000000" fill-rule="evenodd" fill-opacity="1" /><path clip-path="url(#clip560)" d="M 0 0 M1123.86 54.671 L1123.86 27.2059 L1131.31 27.2059 L1131.31 54.3874 Q1131.31 60.8284 1133.82 64.0691 Q1136.33 67.2693 1141.36 67.2693 Q1147.39 67.2693 1150.88 63.421 Q1154.4 59.5726 1154.4 52.9291 L1154.4 27.2059 L1161.85 27.2059 L1161.85 72.576 L1154.4 72.576 L1154.4 65.6084 Q1151.69 69.7404 1148.08 71.7658 Q1144.52 73.7508 1139.78 73.7508 Q1131.96 73.7508 1127.91 68.8897 Q1123.86 64.0286 1123.86 54.671 M1142.61 26.1121 L1142.61 26.1121 Z" fill="#000000" fill-rule="evenodd" fill-opacity="1" /><path clip-path="url(#clip560)" d="M 0 0 M1208.48 48.0275 L1208.48 51.6733 L1174.21 51.6733 Q1174.69 59.3701 1178.83 63.421 Q1183 67.4314 1190.41 67.4314 Q1194.71 67.4314 1198.72 66.3781 Q1202.77 65.3249 1206.74 63.2184 L1206.74 70.267 Q1202.73 71.9684 1198.51 72.8596 Q1194.3 73.7508 1189.97 73.7508 Q1179.11 73.7508 1172.75 67.4314 Q1166.43 61.1119 1166.43 50.3365 Q1166.43 39.1965 1172.43 32.6746 Q1178.46 26.1121 1188.67 26.1121 Q1197.83 26.1121 1203.13 32.0264 Q1208.48 37.9003 1208.48 48.0275 M1201.03 45.84 Q1200.94 39.7232 1197.58 36.0774 Q1194.26 32.4315 1188.75 32.4315 Q1182.51 32.4315 1178.75 35.9558 Q1175.02 39.4801 1174.45 45.8805 L1201.03 45.84 Z" fill="#000000" fill-rule="evenodd" fill-opacity="1" /><path clip-path="url(#clip560)" d="M 0 0 M1279.25 14.0809 L1279.25 22.0612 Q1274.59 19.8332 1270.46 18.7395 Q1266.33 17.6457 1262.48 17.6457 Q1255.79 17.6457 1252.15 20.2383 Q1248.54 22.8309 1248.54 27.611 Q1248.54 31.6214 1250.93 33.6873 Q1253.36 35.7128 1260.09 36.9686 L1265.03 37.9813 Q1274.19 39.7232 1278.52 44.1387 Q1282.89 48.5136 1282.89 55.8863 Q1282.89 64.6767 1276.98 69.2137 Q1271.11 73.7508 1259.72 73.7508 Q1255.43 73.7508 1250.57 72.7785 Q1245.75 71.8063 1240.56 69.9024 L1240.56 61.4765 Q1245.55 64.2716 1250.33 65.6895 Q1255.11 67.1073 1259.72 67.1073 Q1266.73 67.1073 1270.54 64.3527 Q1274.35 61.598 1274.35 56.4939 Q1274.35 52.0379 1271.59 49.5264 Q1268.88 47.0148 1262.64 45.759 L1257.66 44.7868 Q1248.5 42.9639 1244.41 39.075 Q1240.32 35.1862 1240.32 28.2591 Q1240.32 20.2383 1245.95 15.6203 Q1251.62 11.0023 1261.55 11.0023 Q1265.8 11.0023 1270.22 11.7719 Q1274.63 12.5416 1279.25 14.0809 Z" fill="#000000" fill-rule="evenodd" fill-opacity="1" /><path clip-path="url(#clip560)" d="M 0 0 M1298.09 14.324 L1298.09 27.2059 L1313.44 27.2059 L1313.44 32.9987 L1298.09 32.9987 L1298.09 57.6282 Q1298.09 63.1779 1299.58 64.7578 Q1301.12 66.3376 1305.78 66.3376 L1313.44 66.3376 L1313.44 72.576 L1305.78 72.576 Q1297.15 72.576 1293.87 69.3758 Q1290.59 66.1351 1290.59 57.6282 L1290.59 32.9987 L1285.12 32.9987 L1285.12 27.2059 L1290.59 27.2059 L1290.59 14.324 L1298.09 14.324 Z" fill="#000000" fill-rule="evenodd" fill-opacity="1" /><path clip-path="url(#clip560)" d="M 0 0 M1341.88 49.7694 Q1332.84 49.7694 1329.36 51.8354 Q1325.87 53.9013 1325.87 58.8839 Q1325.87 62.8538 1328.47 65.2034 Q1331.1 67.5124 1335.6 67.5124 Q1341.79 67.5124 1345.52 63.1374 Q1349.29 58.7219 1349.29 51.4303 L1349.29 49.7694 L1341.88 49.7694 M1356.74 46.6907 L1356.74 72.576 L1349.29 72.576 L1349.29 65.6895 Q1346.74 69.8214 1342.93 71.8063 Q1339.12 73.7508 1333.61 73.7508 Q1326.64 73.7508 1322.51 69.8619 Q1318.42 65.9325 1318.42 59.3701 Q1318.42 51.7138 1323.53 47.825 Q1328.67 43.9361 1338.84 43.9361 L1349.29 43.9361 L1349.29 43.2069 Q1349.29 38.0623 1345.89 35.2672 Q1342.52 32.4315 1336.41 32.4315 Q1332.52 32.4315 1328.83 33.3632 Q1325.15 34.295 1321.74 36.1584 L1321.74 29.2718 Q1325.83 27.692 1329.68 26.9223 Q1333.53 26.1121 1337.18 26.1121 Q1347.02 26.1121 1351.88 31.2163 Q1356.74 36.3204 1356.74 46.6907 Z" fill="#000000" fill-rule="evenodd" fill-opacity="1" /><path clip-path="url(#clip560)" d="M 0 0 M1371.93 14.324 L1371.93 27.2059 L1387.29 27.2059 L1387.29 32.9987 L1371.93 32.9987 L1371.93 57.6282 Q1371.93 63.1779 1373.43 64.7578 Q1374.97 66.3376 1379.63 66.3376 L1387.29 66.3376 L1387.29 72.576 L1379.63 72.576 Q1371 72.576 1367.72 69.3758 Q1364.44 66.1351 1364.44 57.6282 L1364.44 32.9987 L1358.97 32.9987 L1358.97 27.2059 L1364.44 27.2059 L1364.44 14.324 L1371.93 14.324 Z" fill="#000000" fill-rule="evenodd" fill-opacity="1" /><path clip-path="url(#clip560)" d="M 0 0 M1395.1 27.2059 L1402.56 27.2059 L1402.56 72.576 L1395.1 72.576 L1395.1 27.2059 M1395.1 9.54393 L1402.56 9.54393 L1402.56 18.9825 L1395.1 18.9825 L1395.1 9.54393 Z" fill="#000000" fill-rule="evenodd" fill-opacity="1" /><path clip-path="url(#clip560)" d="M 0 0 M1439.3 28.5427 L1439.3 35.5912 Q1436.14 33.9709 1432.74 33.1607 Q1429.33 32.3505 1425.69 32.3505 Q1420.14 32.3505 1417.34 34.0519 Q1414.59 35.7533 1414.59 39.156 Q1414.59 41.7486 1416.57 43.2475 Q1418.56 44.7058 1424.55 46.0426 L1427.11 46.6097 Q1435.05 48.3111 1438.37 51.4303 Q1441.73 54.509 1441.73 60.0587 Q1441.73 66.3781 1436.71 70.0644 Q1431.72 73.7508 1422.97 73.7508 Q1419.33 73.7508 1415.36 73.0216 Q1411.43 72.3329 1407.05 70.9151 L1407.05 63.2184 Q1411.19 65.3654 1415.2 66.4591 Q1419.21 67.5124 1423.14 67.5124 Q1428.4 67.5124 1431.24 65.73 Q1434.07 63.9071 1434.07 60.6258 Q1434.07 57.5877 1432.01 55.9673 Q1429.98 54.3469 1423.06 52.8481 L1420.46 52.2405 Q1413.54 50.7821 1410.46 47.7845 Q1407.38 44.7463 1407.38 39.4801 Q1407.38 33.0797 1411.92 29.5959 Q1416.45 26.1121 1424.8 26.1121 Q1428.93 26.1121 1432.58 26.7198 Q1436.22 27.3274 1439.3 28.5427 Z" fill="#000000" fill-rule="evenodd" fill-opacity="1" /><path clip-path="url(#clip560)" d="M 0 0 M1456.92 14.324 L1456.92 27.2059 L1472.27 27.2059 L1472.27 32.9987 L1456.92 32.9987 L1456.92 57.6282 Q1456.92 63.1779 1458.42 64.7578 Q1459.96 66.3376 1464.62 66.3376 L1472.27 66.3376 L1472.27 72.576 L1464.62 72.576 Q1455.99 72.576 1452.71 69.3758 Q1449.43 66.1351 1449.43 57.6282 L1449.43 32.9987 L1443.96 32.9987 L1443.96 27.2059 L1449.43 27.2059 L1449.43 14.324 L1456.92 14.324 Z" fill="#000000" fill-rule="evenodd" fill-opacity="1" /><path clip-path="url(#clip560)" d="M 0 0 M1480.09 27.2059 L1487.55 27.2059 L1487.55 72.576 L1480.09 72.576 L1480.09 27.2059 M1480.09 9.54393 L1487.55 9.54393 L1487.55 18.9825 L1480.09 18.9825 L1480.09 9.54393 Z" fill="#000000" fill-rule="evenodd" fill-opacity="1" /><path clip-path="url(#clip560)" d="M 0 0 M1528.01 28.9478 L1528.01 35.9153 Q1524.86 34.1734 1521.65 33.3227 Q1518.5 32.4315 1515.25 32.4315 Q1508 32.4315 1503.99 37.0496 Q1499.98 41.6271 1499.98 49.9314 Q1499.98 58.2358 1503.99 62.8538 Q1508 67.4314 1515.25 67.4314 Q1518.5 67.4314 1521.65 66.5807 Q1524.86 65.6895 1528.01 63.9476 L1528.01 70.8341 Q1524.9 72.2924 1521.53 73.0216 Q1518.21 73.7508 1514.44 73.7508 Q1504.2 73.7508 1498.16 67.3098 Q1492.12 60.8689 1492.12 49.9314 Q1492.12 38.832 1498.2 32.472 Q1504.32 26.1121 1514.93 26.1121 Q1518.37 26.1121 1521.65 26.8413 Q1524.94 27.5299 1528.01 28.9478 Z" fill="#000000" fill-rule="evenodd" fill-opacity="1" /><path clip-path="url(#clip560)" d="M 0 0 M1556.45 49.7694 Q1547.42 49.7694 1543.93 51.8354 Q1540.45 53.9013 1540.45 58.8839 Q1540.45 62.8538 1543.04 65.2034 Q1545.68 67.5124 1550.17 67.5124 Q1556.37 67.5124 1560.1 63.1374 Q1563.87 58.7219 1563.87 51.4303 L1563.87 49.7694 L1556.45 49.7694 M1571.32 46.6907 L1571.32 72.576 L1563.87 72.576 L1563.87 65.6895 Q1561.31 69.8214 1557.51 71.8063 Q1553.7 73.7508 1548.19 73.7508 Q1541.22 73.7508 1537.09 69.8619 Q1533 65.9325 1533 59.3701 Q1533 51.7138 1538.1 47.825 Q1543.25 43.9361 1553.41 43.9361 L1563.87 43.9361 L1563.87 43.2069 Q1563.87 38.0623 1560.46 35.2672 Q1557.1 32.4315 1550.98 32.4315 Q1547.09 32.4315 1543.41 33.3632 Q1539.72 34.295 1536.32 36.1584 L1536.32 29.2718 Q1540.41 27.692 1544.26 26.9223 Q1548.11 26.1121 1551.75 26.1121 Q1561.6 26.1121 1566.46 31.2163 Q1571.32 36.3204 1571.32 46.6907 Z" fill="#000000" fill-rule="evenodd" fill-opacity="1" /><path clip-path="url(#clip560)" d="M 0 0 M1579.14 9.54393 L1586.59 9.54393 L1586.59 72.576 L1579.14 72.576 L1579.14 9.54393 Z" fill="#000000" fill-rule="evenodd" fill-opacity="1" /><path clip-path="url(#clip560)" d="M 0 0 M1621.1 12.096 L1633.3 12.096 L1648.73 53.2532 L1664.25 12.096 L1676.44 12.096 L1676.44 72.576 L1668.46 72.576 L1668.46 19.4686 L1652.86 60.9499 L1644.64 60.9499 L1629.04 19.4686 L1629.04 72.576 L1621.1 72.576 L1621.1 12.096 Z" fill="#000000" fill-rule="evenodd" fill-opacity="1" /><path clip-path="url(#clip560)" d="M 0 0 M1701.84 32.4315 Q1695.84 32.4315 1692.36 37.1306 Q1688.88 41.7891 1688.88 49.9314 Q1688.88 58.0738 1692.32 62.7728 Q1695.8 67.4314 1701.84 67.4314 Q1707.79 67.4314 1711.28 62.7323 Q1714.76 58.0333 1714.76 49.9314 Q1714.76 41.8701 1711.28 37.1711 Q1707.79 32.4315 1701.84 32.4315 M1701.84 26.1121 Q1711.56 26.1121 1717.11 32.4315 Q1722.66 38.7509 1722.66 49.9314 Q1722.66 61.0714 1717.11 67.4314 Q1711.56 73.7508 1701.84 73.7508 Q1692.08 73.7508 1686.53 67.4314 Q1681.02 61.0714 1681.02 49.9314 Q1681.02 38.7509 1686.53 32.4315 Q1692.08 26.1121 1701.84 26.1121 Z" fill="#000000" fill-rule="evenodd" fill-opacity="1" /><path clip-path="url(#clip560)" d="M 0 0 M1760.33 34.0924 L1760.33 9.54393 L1767.79 9.54393 L1767.79 72.576 L1760.33 72.576 L1760.33 65.7705 Q1757.98 69.8214 1754.38 71.8063 Q1750.81 73.7508 1745.79 73.7508 Q1737.57 73.7508 1732.38 67.1883 Q1727.24 60.6258 1727.24 49.9314 Q1727.24 39.2371 1732.38 32.6746 Q1737.57 26.1121 1745.79 26.1121 Q1750.81 26.1121 1754.38 28.0971 Q1757.98 30.0415 1760.33 34.0924 M1734.93 49.9314 Q1734.93 58.1548 1738.3 62.8538 Q1741.7 67.5124 1747.61 67.5124 Q1753.53 67.5124 1756.93 62.8538 Q1760.33 58.1548 1760.33 49.9314 Q1760.33 41.7081 1756.93 37.0496 Q1753.53 32.3505 1747.61 32.3505 Q1741.7 32.3505 1738.3 37.0496 Q1734.93 41.7081 1734.93 49.9314 Z" fill="#000000" fill-rule="evenodd" fill-opacity="1" /><path clip-path="url(#clip560)" d="M 0 0 M1814.41 48.0275 L1814.41 51.6733 L1780.14 51.6733 Q1780.63 59.3701 1784.76 63.421 Q1788.93 67.4314 1796.35 67.4314 Q1800.64 67.4314 1804.65 66.3781 Q1808.7 65.3249 1812.67 63.2184 L1812.67 70.267 Q1808.66 71.9684 1804.45 72.8596 Q1800.24 73.7508 1795.9 73.7508 Q1785.04 73.7508 1778.68 67.4314 Q1772.37 61.1119 1772.37 50.3365 Q1772.37 39.1965 1778.36 32.6746 Q1784.4 26.1121 1794.6 26.1121 Q1803.76 26.1121 1809.07 32.0264 Q1814.41 37.9003 1814.41 48.0275 M1806.96 45.84 Q1806.88 39.7232 1803.52 36.0774 Q1800.19 32.4315 1794.69 32.4315 Q1788.45 32.4315 1784.68 35.9558 Q1780.95 39.4801 1780.39 45.8805 L1806.96 45.84 Z" fill="#000000" fill-rule="evenodd" fill-opacity="1" /><path clip-path="url(#clip560)" d="M 0 0 M1822.23 9.54393 L1829.69 9.54393 L1829.69 72.576 L1822.23 72.576 L1822.23 9.54393 Z" fill="#000000" fill-rule="evenodd" fill-opacity="1" /><polyline clip-path="url(#clip562)" style="stroke:#009af9; stroke-width:4; stroke-opacity:1; fill:none" points="
  743.784,1447.87 743.784,1387.36 769.569,1387.36 769.569,1326.85 795.354,1326.85 795.354,1251.22 821.139,1251.22 821.139,1175.58 846.923,1175.58 
  872.708,1175.58 872.708,1039.43 898.493,1039.43 898.493,994.052 924.278,994.052 924.278,1054.56 950.063,1054.56 950.063,797.396 975.847,797.396 975.847,767.142 
  1001.63,767.142 1001.63,888.161 1027.42,888.161 1027.42,903.288 1053.2,903.288 1053.2,933.543 1078.99,933.543 1078.99,963.797 1104.77,963.797 1104.77,978.925 
  1130.56,978.925 1130.56,1175.58 1156.34,1175.58 1156.34,1190.71 1182.13,1190.71 1182.13,1099.94 1207.91,1099.94 1207.91,1311.73 1233.7,1311.73 1233.7,1387.36 
  1259.48,1387.36 1259.48,1372.24 1285.27,1372.24 1285.27,1402.49 1311.05,1402.49 1311.05,1432.75 1336.83,1432.75 1336.83,1417.62 1362.62,1417.62 1362.62,1432.75 
  1388.4,1432.75 1388.4,1447.87 1414.19,1447.87 1414.19,1372.24 1439.97,1372.24 1439.97,1417.62 1465.76,1417.62 1465.76,1296.6 1491.54,1296.6 1491.54,1417.62 
  1517.33,1417.62 1517.33,1220.96 1543.11,1220.96 1543.11,1099.94 1568.9,1099.94 1568.9,994.052 1594.68,994.052 1594.68,873.033 1620.47,873.033 1620.47,691.505 
  1646.25,691.505 1646.25,525.104 1672.04,525.104 1672.04,782.269 1697.82,782.269 1697.82,162.047 1723.61,162.047 1723.61,298.193 1749.39,298.193 1749.39,222.556 
  1775.18,222.556 1775.18,252.811 1800.96,252.811 1800.96,222.556 1826.75,222.556 1826.75,434.34 1852.53,434.34 1852.53,479.722 1878.32,479.722 1878.32,691.505 
  1904.1,691.505 1904.1,752.014 1929.89,752.014 1929.89,1009.18 1955.67,1009.18 1955.67,1160.45 1981.45,1160.45 1981.45,1266.34 2007.24,1266.34 
  2033.02,1266.34 2033.02,1296.6 2058.81,1296.6 2058.81,1387.36 2084.59,1387.36 2084.59,1417.62 2110.38,1417.62 2110.38,1447.87 2136.16,1447.87 2136.16,1432.75 
  2161.95,1432.75 2161.95,1417.62 2187.73,1417.62 2187.73,1447.87 2213.52,1447.87 2239.3,1447.87 2265.09,1447.87 
  2290.87,1447.87 
  "/>
<polyline clip-path="url(#clip562)" style="stroke:#e26f46; stroke-width:4; stroke-opacity:1; fill:none" points="
  228.088,1447.87 230.667,1447.87 233.245,1447.87 235.824,1447.87 238.402,1447.87 240.981,1447.87 243.559,1447.87 246.138,1447.87 248.716,1447.87 251.295,1447.87 
  253.873,1447.87 256.451,1447.87 259.03,1447.87 261.608,1447.87 264.187,1447.87 266.765,1447.87 269.344,1447.87 271.922,1447.87 274.501,1447.87 277.079,1447.87 
  279.658,1447.87 282.236,1447.87 284.815,1447.87 287.393,1447.87 289.972,1447.87 292.55,1447.87 295.129,1447.87 297.707,1447.87 300.286,1447.87 302.864,1447.87 
  305.443,1447.87 308.021,1447.87 310.6,1447.87 313.178,1447.87 315.757,1447.87 318.335,1447.87 320.913,1447.87 323.492,1447.87 326.07,1447.87 328.649,1447.87 
  331.227,1447.87 333.806,1447.87 336.384,1447.87 338.963,1447.87 341.541,1447.87 344.12,1447.87 346.698,1447.87 349.277,1447.87 351.855,1447.87 354.434,1447.87 
  357.012,1447.87 359.591,1447.87 362.169,1447.87 364.748,1447.87 367.326,1447.87 369.905,1447.87 372.483,1447.87 375.062,1447.87 377.64,1447.87 380.219,1447.87 
  382.797,1447.87 385.375,1447.87 387.954,1447.87 390.532,1447.87 393.111,1447.86 395.689,1447.86 398.268,1447.86 400.846,1447.86 403.425,1447.86 406.003,1447.86 
  408.582,1447.86 411.16,1447.86 413.739,1447.85 416.317,1447.85 418.896,1447.85 421.474,1447.85 424.053,1447.85 426.631,1447.84 429.21,1447.84 431.788,1447.84 
  434.367,1447.84 436.945,1447.83 439.524,1447.83 442.102,1447.82 444.681,1447.82 447.259,1447.81 449.837,1447.81 452.416,1447.8 454.994,1447.8 457.573,1447.79 
  460.151,1447.78 462.73,1447.78 465.308,1447.77 467.887,1447.76 470.465,1447.75 473.044,1447.74 475.622,1447.73 478.201,1447.71 480.779,1447.7 483.358,1447.69 
  485.936,1447.67 488.515,1447.65 491.093,1447.64 493.672,1447.62 496.25,1447.6 498.829,1447.57 501.407,1447.55 503.986,1447.52 506.564,1447.49 509.143,1447.46 
  511.721,1447.43 514.299,1447.4 516.878,1447.36 519.456,1447.32 522.035,1447.28 524.613,1447.23 527.192,1447.18 529.77,1447.13 532.349,1447.07 534.927,1447.01 
  537.506,1446.95 540.084,1446.88 542.663,1446.8 545.241,1446.73 547.82,1446.64 550.398,1446.55 552.977,1446.46 555.555,1446.36 558.134,1446.25 560.712,1446.13 
  563.291,1446.01 565.869,1445.88 568.448,1445.74 571.026,1445.59 573.605,1445.43 576.183,1445.27 578.762,1445.09 581.34,1444.9 583.918,1444.7 586.497,1444.49 
  589.075,1444.27 591.654,1444.03 594.232,1443.78 596.811,1443.51 599.389,1443.23 601.968,1442.93 604.546,1442.62 607.125,1442.28 609.703,1441.93 612.282,1441.56 
  614.86,1441.17 617.439,1440.76 620.017,1440.32 622.596,1439.86 625.174,1439.38 627.753,1438.87 630.331,1438.33 632.91,1437.77 635.488,1437.18 638.067,1436.55 
  640.645,1435.9 643.224,1435.21 645.802,1434.49 648.38,1433.73 650.959,1432.94 653.537,1432.11 656.116,1431.24 658.694,1430.33 661.273,1429.37 663.851,1428.37 
  666.43,1427.33 669.008,1426.23 671.587,1425.09 674.165,1423.9 676.744,1422.66 679.322,1421.36 681.901,1420 684.479,1418.59 687.058,1417.12 689.636,1415.59 
  692.215,1414 694.793,1412.34 697.372,1410.61 699.95,1408.82 702.529,1406.96 705.107,1405.02 707.686,1403.01 710.264,1400.93 712.842,1398.77 715.421,1396.53 
  717.999,1394.21 720.578,1391.81 723.156,1389.32 725.735,1386.75 728.313,1384.09 730.892,1381.34 733.47,1378.5 736.049,1375.56 738.627,1372.54 741.206,1369.42 
  743.784,1366.2 746.363,1362.88 748.941,1359.47 751.52,1355.95 754.098,1352.33 756.677,1348.61 759.255,1344.79 761.834,1340.86 764.412,1336.83 766.991,1332.69 
  769.569,1328.44 772.148,1324.09 774.726,1319.63 777.304,1315.06 779.883,1310.39 782.461,1305.6 785.04,1300.71 787.618,1295.71 790.197,1290.61 792.775,1285.4 
  795.354,1280.08 797.932,1274.66 800.511,1269.13 803.089,1263.5 805.668,1257.78 808.246,1251.95 810.825,1246.02 813.403,1240 815.982,1233.88 818.56,1227.67 
  821.139,1221.37 823.717,1214.99 826.296,1208.52 828.874,1201.97 831.453,1195.34 834.031,1188.64 836.61,1181.86 839.188,1175.02 841.766,1168.11 844.345,1161.14 
  846.923,1154.12 849.502,1147.05 852.08,1139.92 854.659,1132.76 857.237,1125.56 859.816,1118.32 862.394,1111.06 864.973,1103.77 867.551,1096.47 870.13,1089.15 
  872.708,1081.84 875.287,1074.52 877.865,1067.2 880.444,1059.9 883.022,1052.62 885.601,1045.36 888.179,1038.13 890.758,1030.94 893.336,1023.79 895.915,1016.69 
  898.493,1009.65 901.072,1002.67 903.65,995.758 906.228,988.925 908.807,982.175 911.385,975.515 913.964,968.951 916.542,962.491 919.121,956.139 921.699,949.904 
  924.278,943.792 926.856,937.809 929.435,931.961 932.013,926.254 934.592,920.696 937.17,915.291 939.749,910.046 942.327,904.967 944.906,900.058 947.484,895.327 
  950.063,890.777 952.641,886.415 955.22,882.245 957.798,878.272 960.377,874.5 962.955,870.934 965.534,867.578 968.112,864.436 970.69,861.511 973.269,858.808 
  975.847,856.328 978.426,854.076 981.004,852.054 983.583,850.264 986.161,848.708 988.74,847.388 991.318,846.307 993.897,845.464 996.475,844.861 999.054,844.499 
  1001.63,844.378 1004.21,844.499 1006.79,844.861 1009.37,845.464 1011.95,846.307 1014.52,847.388 1017.1,848.708 1019.68,850.264 1022.26,852.054 1024.84,854.076 
  1027.42,856.328 1030,858.808 1032.57,861.511 1035.15,864.436 1037.73,867.578 1040.31,870.934 1042.89,874.5 1045.47,878.271 1048.04,882.245 1050.62,886.415 
  1053.2,890.777 1055.78,895.327 1058.36,900.058 1060.94,904.966 1063.52,910.046 1066.09,915.291 1068.67,920.695 1071.25,926.254 1073.83,931.96 1076.41,937.808 
  1078.99,943.791 1081.57,949.904 1084.14,956.139 1086.72,962.49 1089.3,968.951 1091.88,975.514 1094.46,982.174 1097.04,988.924 1099.61,995.757 1102.19,1002.67 
  1104.77,1009.64 1107.35,1016.69 1109.93,1023.78 1112.51,1030.93 1115.09,1038.12 1117.66,1045.35 1120.24,1052.61 1122.82,1059.9 1125.4,1067.2 1127.98,1074.51 
  1130.56,1081.83 1133.13,1089.15 1135.71,1096.46 1138.29,1103.77 1140.87,1111.05 1143.45,1118.31 1146.03,1125.55 1148.61,1132.75 1151.18,1139.91 1153.76,1147.03 
  1156.34,1154.11 1158.92,1161.13 1161.5,1168.1 1164.08,1175 1166.65,1181.84 1169.23,1188.62 1171.81,1195.32 1174.39,1201.95 1176.97,1208.5 1179.55,1214.96 
  1182.13,1221.34 1184.7,1227.64 1187.28,1233.84 1189.86,1239.96 1192.44,1245.98 1195.02,1251.9 1197.6,1257.72 1200.18,1263.45 1202.75,1269.07 1205.33,1274.59 
  1207.91,1280 1210.49,1285.31 1213.07,1290.52 1215.65,1295.61 1218.22,1300.6 1220.8,1305.49 1223.38,1310.26 1225.96,1314.92 1228.54,1319.48 1231.12,1323.93 
  1233.7,1328.26 1236.27,1332.49 1238.85,1336.62 1241.43,1340.63 1244.01,1344.54 1246.59,1348.34 1249.17,1352.04 1251.74,1355.63 1254.32,1359.12 1256.9,1362.51 
  1259.48,1365.79 1262.06,1368.98 1264.64,1372.06 1267.22,1375.05 1269.79,1377.94 1272.37,1380.74 1274.95,1383.44 1277.53,1386.05 1280.11,1388.56 1282.69,1390.99 
  1285.27,1393.33 1287.84,1395.58 1290.42,1397.74 1293,1399.82 1295.58,1401.82 1298.16,1403.74 1300.74,1405.57 1303.31,1407.33 1305.89,1409.01 1308.47,1410.62 
  1311.05,1412.14 1313.63,1413.6 1316.21,1414.99 1318.79,1416.3 1321.36,1417.54 1323.94,1418.72 1326.52,1419.82 1329.1,1420.87 1331.68,1421.84 1334.26,1422.75 
  1336.83,1423.6 1339.41,1424.38 1341.99,1425.1 1344.57,1425.76 1347.15,1426.36 1349.73,1426.9 1352.31,1427.37 1354.88,1427.79 1357.46,1428.15 1360.04,1428.45 
  1362.62,1428.69 1365.2,1428.87 1367.78,1428.98 1370.35,1429.04 1372.93,1429.05 1375.51,1428.98 1378.09,1428.86 1380.67,1428.68 1383.25,1428.44 1385.83,1428.13 
  1388.4,1427.76 1390.98,1427.33 1393.56,1426.83 1396.14,1426.26 1398.72,1425.63 1401.3,1424.92 1403.88,1424.15 1406.45,1423.3 1409.03,1422.38 1411.61,1421.39 
  1414.19,1420.32 1416.77,1419.17 1419.35,1417.94 1421.92,1416.62 1424.5,1415.23 1427.08,1413.74 1429.66,1412.16 1432.24,1410.5 1434.82,1408.73 1437.4,1406.87 
  1439.97,1404.91 1442.55,1402.85 1445.13,1400.68 1447.71,1398.41 1450.29,1396.02 1452.87,1393.52 1455.44,1390.9 1458.02,1388.16 1460.6,1385.3 1463.18,1382.31 
  1465.76,1379.19 1468.34,1375.94 1470.92,1372.55 1473.49,1369.02 1476.07,1365.35 1478.65,1361.53 1481.23,1357.56 1483.81,1353.43 1486.39,1349.15 1488.97,1344.71 
  1491.54,1340.1 1494.12,1335.33 1496.7,1330.39 1499.28,1325.27 1501.86,1319.98 1504.44,1314.5 1507.01,1308.84 1509.59,1303 1512.17,1296.97 1514.75,1290.74 
  1517.33,1284.32 1519.91,1277.71 1522.49,1270.89 1525.06,1263.87 1527.64,1256.65 1530.22,1249.22 1532.8,1241.58 1535.38,1233.74 1537.96,1225.68 1540.53,1217.41 
  1543.11,1208.92 1545.69,1200.22 1548.27,1191.31 1550.85,1182.18 1553.43,1172.83 1556.01,1163.27 1558.58,1153.49 1561.16,1143.5 1563.74,1133.3 1566.32,1122.88 
  1568.9,1112.25 1571.48,1101.41 1574.05,1090.36 1576.63,1079.11 1579.21,1067.65 1581.79,1056 1584.37,1044.15 1586.95,1032.1 1589.53,1019.87 1592.1,1007.46 
  1594.68,994.861 1597.26,982.093 1599.84,969.155 1602.42,956.055 1605,942.799 1607.58,929.392 1610.15,915.843 1612.73,902.157 1615.31,888.343 1617.89,874.409 
  1620.47,860.362 1623.05,846.213 1625.62,831.968 1628.2,817.639 1630.78,803.234 1633.36,788.763 1635.94,774.238 1638.52,759.667 1641.1,745.062 1643.67,730.434 
  1646.25,715.795 1648.83,701.156 1651.41,686.528 1653.99,671.924 1656.57,657.357 1659.14,642.838 1661.72,628.38 1664.3,613.996 1666.88,599.699 1669.46,585.502 
  1672.04,571.418 1674.62,557.46 1677.19,543.642 1679.77,529.976 1682.35,516.477 1684.93,503.157 1687.51,490.029 1690.09,477.108 1692.66,464.406 1695.24,451.935 
  1697.82,439.711 1700.4,427.744 1702.98,416.048 1705.56,404.635 1708.14,393.518 1710.71,382.709 1713.29,372.219 1715.87,362.06 1718.45,352.244 1721.03,342.78 
  1723.61,333.681 1726.19,324.957 1728.76,316.616 1731.34,308.67 1733.92,301.126 1736.5,293.994 1739.08,287.282 1741.66,280.998 1744.23,275.149 1746.81,269.742 
  1749.39,264.784 1751.97,260.28 1754.55,256.235 1757.13,252.655 1759.71,249.543 1762.28,246.904 1764.86,244.74 1767.44,243.054 1770.02,241.849 1772.6,241.125 
  1775.18,240.884 1777.75,241.125 1780.33,241.849 1782.91,243.054 1785.49,244.74 1788.07,246.904 1790.65,249.543 1793.23,252.655 1795.8,256.235 1798.38,260.28 
  1800.96,264.784 1803.54,269.742 1806.12,275.149 1808.7,280.998 1811.28,287.282 1813.85,293.994 1816.43,301.126 1819.01,308.67 1821.59,316.617 1824.17,324.957 
  1826.75,333.682 1829.32,342.781 1831.9,352.244 1834.48,362.06 1837.06,372.219 1839.64,382.709 1842.22,393.518 1844.8,404.635 1847.37,416.048 1849.95,427.744 
  1852.53,439.711 1855.11,451.936 1857.69,464.406 1860.27,477.108 1862.84,490.03 1865.42,503.157 1868,516.477 1870.58,529.977 1873.16,543.643 1875.74,557.461 
  1878.32,571.419 1880.89,585.503 1883.47,599.7 1886.05,613.997 1888.63,628.381 1891.21,642.839 1893.79,657.358 1896.36,671.926 1898.94,686.53 1901.52,701.158 
  1904.1,715.797 1906.68,730.437 1909.26,745.065 1911.84,759.67 1914.41,774.241 1916.99,788.767 1919.57,803.238 1922.15,817.643 1924.73,831.973 1927.31,846.218 
  1929.89,860.368 1932.46,874.415 1935.04,888.35 1937.62,902.165 1940.2,915.851 1942.78,929.402 1945.36,942.81 1947.93,956.067 1950.51,969.168 1953.09,982.107 
  1955.67,994.877 1958.25,1007.47 1960.83,1019.89 1963.41,1032.12 1965.98,1044.17 1968.56,1056.02 1971.14,1067.68 1973.72,1079.14 1976.3,1090.39 1978.88,1101.44 
  1981.45,1112.29 1984.03,1122.92 1986.61,1133.34 1989.19,1143.55 1991.77,1153.55 1994.35,1163.33 1996.93,1172.9 1999.5,1182.25 2002.08,1191.38 2004.66,1200.31 
  2007.24,1209.01 2009.82,1217.5 2012.4,1225.78 2014.97,1233.85 2017.55,1241.71 2020.13,1249.35 2022.71,1256.79 2025.29,1264.03 2027.87,1271.06 2030.45,1277.89 
  2033.02,1284.52 2035.6,1290.96 2038.18,1297.2 2040.76,1303.26 2043.34,1309.12 2045.92,1314.8 2048.5,1320.3 2051.07,1325.62 2053.65,1330.77 2056.23,1335.74 
  2058.81,1340.55 2061.39,1345.19 2063.97,1349.67 2066.54,1353.99 2069.12,1358.15 2071.7,1362.17 2074.28,1366.04 2076.86,1369.77 2079.44,1373.35 2082.02,1376.8 
  2084.59,1380.12 2087.17,1383.31 2089.75,1386.37 2092.33,1389.31 2094.91,1392.13 2097.49,1394.84 2100.06,1397.44 2102.64,1399.93 2105.22,1402.31 2107.8,1404.59 
  2110.38,1406.78 2112.96,1408.87 2115.54,1410.87 2118.11,1412.78 2120.69,1414.6 2123.27,1416.34 2125.85,1418.01 2128.43,1419.6 2131.01,1421.11 2133.59,1422.55 
  2136.16,1423.93 2138.74,1425.23 2141.32,1426.48 2143.9,1427.66 2146.48,1428.79 2149.06,1429.86 2151.63,1430.88 2154.21,1431.85 2156.79,1432.77 2159.37,1433.64 
  2161.95,1434.46 2164.53,1435.25 2167.11,1435.99 2169.68,1436.69 2172.26,1437.36 2174.84,1437.99 2177.42,1438.59 2180,1439.15 2182.58,1439.68 2185.15,1440.18 
  2187.73,1440.66 2190.31,1441.11 2192.89,1441.53 2195.47,1441.93 2198.05,1442.31 2200.63,1442.66 2203.2,1443 2205.78,1443.31 2208.36,1443.61 2210.94,1443.88 
  2213.52,1444.15 2216.1,1444.39 2218.67,1444.62 2221.25,1444.84 2223.83,1445.04 2226.41,1445.23 2228.99,1445.41 2231.57,1445.58 2234.15,1445.74 2236.72,1445.88 
  2239.3,1446.02 2241.88,1446.15 2244.46,1446.27 2247.04,1446.38 2249.62,1446.49 2252.2,1446.59 2254.77,1446.68 2257.35,1446.77 2259.93,1446.85 2262.51,1446.92 
  2265.09,1446.99 2267.67,1447.05 2270.24,1447.11 2272.82,1447.17 2275.4,1447.22 2277.98,1447.27 2280.56,1447.32 2283.14,1447.36 2285.72,1447.4 2288.29,1447.43 
  2290.87,1447.47 
  "/>
<path clip-path="url(#clip560)" d="
M1925.95 350.345 L2279.87 350.345 L2279.87 168.905 L1925.95 168.905  Z
  " fill="#ffffff" fill-rule="evenodd" fill-opacity="1"/>
<polyline clip-path="url(#clip560)" style="stroke:#000000; stroke-width:4; stroke-opacity:1; fill:none" points="
  1925.95,350.345 2279.87,350.345 2279.87,168.905 1925.95,168.905 1925.95,350.345 
  "/>
<polyline clip-path="url(#clip560)" style="stroke:#009af9; stroke-width:4; stroke-opacity:1; fill:none" points="
  1950.24,229.385 2096.01,229.385 
  "/>
<path clip-path="url(#clip560)" d="M 0 0 M2124.99 215.947 L2124.99 242.822 L2130.63 242.822 Q2137.79 242.822 2141.1 239.581 Q2144.43 236.341 2144.43 229.35 Q2144.43 222.406 2141.1 219.188 Q2137.79 215.947 2130.63 215.947 L2124.99 215.947 M2120.31 212.105 L2129.92 212.105 Q2139.96 212.105 2144.66 216.294 Q2149.36 220.461 2149.36 229.35 Q2149.36 238.285 2144.64 242.475 Q2139.92 246.665 2129.92 246.665 L2120.31 246.665 L2120.31 212.105 Z" fill="#000000" fill-rule="evenodd" fill-opacity="1" /><path clip-path="url(#clip560)" d="M 0 0 M2165.61 233.632 Q2160.45 233.632 2158.46 234.813 Q2156.47 235.993 2156.47 238.841 Q2156.47 241.109 2157.95 242.452 Q2159.45 243.771 2162.02 243.771 Q2165.56 243.771 2167.69 241.271 Q2169.85 238.748 2169.85 234.581 L2169.85 233.632 L2165.61 233.632 M2174.11 231.873 L2174.11 246.665 L2169.85 246.665 L2169.85 242.729 Q2168.39 245.091 2166.21 246.225 Q2164.04 247.336 2160.89 247.336 Q2156.91 247.336 2154.55 245.114 Q2152.21 242.868 2152.21 239.118 Q2152.21 234.743 2155.12 232.521 Q2158.06 230.299 2163.87 230.299 L2169.85 230.299 L2169.85 229.882 Q2169.85 226.943 2167.9 225.345 Q2165.98 223.725 2162.48 223.725 Q2160.26 223.725 2158.16 224.257 Q2156.05 224.79 2154.11 225.855 L2154.11 221.919 Q2156.44 221.017 2158.64 220.577 Q2160.84 220.114 2162.92 220.114 Q2168.55 220.114 2171.33 223.031 Q2174.11 225.947 2174.11 231.873 Z" fill="#000000" fill-rule="evenodd" fill-opacity="1" /><path clip-path="url(#clip560)" d="M 0 0 M2182.79 213.378 L2182.79 220.739 L2191.56 220.739 L2191.56 224.049 L2182.79 224.049 L2182.79 238.123 Q2182.79 241.294 2183.64 242.197 Q2184.52 243.1 2187.18 243.1 L2191.56 243.1 L2191.56 246.665 L2187.18 246.665 Q2182.25 246.665 2180.38 244.836 Q2178.5 242.984 2178.5 238.123 L2178.5 224.049 L2175.38 224.049 L2175.38 220.739 L2178.5 220.739 L2178.5 213.378 L2182.79 213.378 Z" fill="#000000" fill-rule="evenodd" fill-opacity="1" /><path clip-path="url(#clip560)" d="M 0 0 M2207.81 233.632 Q2202.65 233.632 2200.66 234.813 Q2198.67 235.993 2198.67 238.841 Q2198.67 241.109 2200.15 242.452 Q2201.65 243.771 2204.22 243.771 Q2207.76 243.771 2209.89 241.271 Q2212.04 238.748 2212.04 234.581 L2212.04 233.632 L2207.81 233.632 M2216.3 231.873 L2216.3 246.665 L2212.04 246.665 L2212.04 242.729 Q2210.59 245.091 2208.41 246.225 Q2206.23 247.336 2203.09 247.336 Q2199.11 247.336 2196.74 245.114 Q2194.41 242.868 2194.41 239.118 Q2194.41 234.743 2197.32 232.521 Q2200.26 230.299 2206.07 230.299 L2212.04 230.299 L2212.04 229.882 Q2212.04 226.943 2210.1 225.345 Q2208.18 223.725 2204.68 223.725 Q2202.46 223.725 2200.36 224.257 Q2198.25 224.79 2196.3 225.855 L2196.3 221.919 Q2198.64 221.017 2200.84 220.577 Q2203.04 220.114 2205.12 220.114 Q2210.75 220.114 2213.53 223.031 Q2216.3 225.947 2216.3 231.873 Z" fill="#000000" fill-rule="evenodd" fill-opacity="1" /><polyline clip-path="url(#clip560)" style="stroke:#e26f46; stroke-width:4; stroke-opacity:1; fill:none" points="
  1950.24,289.865 2096.01,289.865 
  "/>
<path clip-path="url(#clip560)" d="M 0 0 M2120.31 272.585 L2149.55 272.585 L2149.55 276.52 L2137.28 276.52 L2137.28 307.145 L2132.58 307.145 L2132.58 276.52 L2120.31 276.52 L2120.31 272.585 Z" fill="#000000" fill-rule="evenodd" fill-opacity="1" /><path clip-path="url(#clip560)" d="M 0 0 M2162.07 285.2 Q2161.35 284.784 2160.49 284.598 Q2159.66 284.39 2158.64 284.39 Q2155.03 284.39 2153.09 286.751 Q2151.17 289.089 2151.17 293.487 L2151.17 307.145 L2146.88 307.145 L2146.88 281.219 L2151.17 281.219 L2151.17 285.247 Q2152.51 282.886 2154.66 281.751 Q2156.81 280.594 2159.89 280.594 Q2160.33 280.594 2160.86 280.663 Q2161.4 280.71 2162.05 280.825 L2162.07 285.2 Z" fill="#000000" fill-rule="evenodd" fill-opacity="1" /><path clip-path="url(#clip560)" d="M 0 0 M2166.1 296.913 L2166.1 281.219 L2170.36 281.219 L2170.36 296.751 Q2170.36 300.432 2171.79 302.284 Q2173.23 304.112 2176.1 304.112 Q2179.55 304.112 2181.54 301.913 Q2183.55 299.714 2183.55 295.918 L2183.55 281.219 L2187.81 281.219 L2187.81 307.145 L2183.55 307.145 L2183.55 303.163 Q2182 305.524 2179.94 306.682 Q2177.9 307.816 2175.19 307.816 Q2170.73 307.816 2168.41 305.038 Q2166.1 302.26 2166.1 296.913 M2176.81 280.594 L2176.81 280.594 Z" fill="#000000" fill-rule="evenodd" fill-opacity="1" /><path clip-path="url(#clip560)" d="M 0 0 M2196.49 273.858 L2196.49 281.219 L2205.26 281.219 L2205.26 284.529 L2196.49 284.529 L2196.49 298.603 Q2196.49 301.774 2197.35 302.677 Q2198.23 303.58 2200.89 303.58 L2205.26 303.58 L2205.26 307.145 L2200.89 307.145 Q2195.96 307.145 2194.08 305.316 Q2192.21 303.464 2192.21 298.603 L2192.21 284.529 L2189.08 284.529 L2189.08 281.219 L2192.21 281.219 L2192.21 273.858 L2196.49 273.858 Z" fill="#000000" fill-rule="evenodd" fill-opacity="1" /><path clip-path="url(#clip560)" d="M 0 0 M2231.28 291.497 L2231.28 307.145 L2227.02 307.145 L2227.02 291.635 Q2227.02 287.955 2225.59 286.126 Q2224.15 284.298 2221.28 284.298 Q2217.83 284.298 2215.84 286.497 Q2213.85 288.696 2213.85 292.492 L2213.85 307.145 L2209.57 307.145 L2209.57 271.126 L2213.85 271.126 L2213.85 285.247 Q2215.38 282.909 2217.44 281.751 Q2219.52 280.594 2222.23 280.594 Q2226.7 280.594 2228.99 283.372 Q2231.28 286.126 2231.28 291.497 Z" fill="#000000" fill-rule="evenodd" fill-opacity="1" /></svg>
