<?xml version="1.0" encoding="utf-8"?>
<svg xmlns="http://www.w3.org/2000/svg" xmlns:xlink="http://www.w3.org/1999/xlink" width="600" height="400" viewBox="0 0 2400 1600">
<defs>
  <clipPath id="clip5500">
    <rect x="0" y="0" width="2400" height="1600"/>
  </clipPath>
</defs>
<polygon clip-path="url(#clip5500)" points="
0,1600 2400,1600 2400,0 0,0 
  " fill="#ffffff" fill-rule="evenodd" fill-opacity="1"/>
<defs>
  <clipPath id="clip5501">
    <rect x="480" y="0" width="1681" height="1600"/>
  </clipPath>
</defs>
<polygon clip-path="url(#clip5500)" points="
86.9921,1521.01 2352.76,1521.01 2352.76,62.9921 86.9921,62.9921 
  " fill="#ffffff" fill-rule="evenodd" fill-opacity="1"/>
<defs>
  <clipPath id="clip5502">
    <rect x="86" y="62" width="2267" height="1459"/>
  </clipPath>
</defs>
<polyline clip-path="url(#clip5502)" style="stroke:#000000; stroke-width:2; stroke-opacity:0.1; fill:none" points="
  151.118,1521.01 151.118,62.9921 
  "/>
<polyline clip-path="url(#clip5502)" style="stroke:#000000; stroke-width:2; stroke-opacity:0.1; fill:none" points="
  507.37,1521.01 507.37,62.9921 
  "/>
<polyline clip-path="url(#clip5502)" style="stroke:#000000; stroke-width:2; stroke-opacity:0.1; fill:none" points="
  863.622,1521.01 863.622,62.9921 
  "/>
<polyline clip-path="url(#clip5502)" style="stroke:#000000; stroke-width:2; stroke-opacity:0.1; fill:none" points="
  1219.87,1521.01 1219.87,62.9921 
  "/>
<polyline clip-path="url(#clip5502)" style="stroke:#000000; stroke-width:2; stroke-opacity:0.1; fill:none" points="
  1576.13,1521.01 1576.13,62.9921 
  "/>
<polyline clip-path="url(#clip5502)" style="stroke:#000000; stroke-width:2; stroke-opacity:0.1; fill:none" points="
  1932.38,1521.01 1932.38,62.9921 
  "/>
<polyline clip-path="url(#clip5502)" style="stroke:#000000; stroke-width:2; stroke-opacity:0.1; fill:none" points="
  2288.63,1521.01 2288.63,62.9921 
  "/>
<polyline clip-path="url(#clip5502)" style="stroke:#000000; stroke-width:2; stroke-opacity:0.1; fill:none" points="
  86.9921,1479.74 2352.76,1479.74 
  "/>
<polyline clip-path="url(#clip5502)" style="stroke:#000000; stroke-width:2; stroke-opacity:0.1; fill:none" points="
  86.9921,1190.17 2352.76,1190.17 
  "/>
<polyline clip-path="url(#clip5502)" style="stroke:#000000; stroke-width:2; stroke-opacity:0.1; fill:none" points="
  86.9921,900.591 2352.76,900.591 
  "/>
<polyline clip-path="url(#clip5502)" style="stroke:#000000; stroke-width:2; stroke-opacity:0.1; fill:none" points="
  86.9921,611.015 2352.76,611.015 
  "/>
<polyline clip-path="url(#clip5502)" style="stroke:#000000; stroke-width:2; stroke-opacity:0.1; fill:none" points="
  86.9921,321.439 2352.76,321.439 
  "/>
<polyline clip-path="url(#clip5500)" style="stroke:#000000; stroke-width:4; stroke-opacity:1; fill:none" points="
  86.9921,1521.01 2352.76,1521.01 
  "/>
<polyline clip-path="url(#clip5500)" style="stroke:#000000; stroke-width:4; stroke-opacity:1; fill:none" points="
  86.9921,1521.01 86.9921,62.9921 
  "/>
<polyline clip-path="url(#clip5500)" style="stroke:#000000; stroke-width:4; stroke-opacity:1; fill:none" points="
  151.118,1521.01 151.118,1499.14 
  "/>
<polyline clip-path="url(#clip5500)" style="stroke:#000000; stroke-width:4; stroke-opacity:1; fill:none" points="
  507.37,1521.01 507.37,1499.14 
  "/>
<polyline clip-path="url(#clip5500)" style="stroke:#000000; stroke-width:4; stroke-opacity:1; fill:none" points="
  863.622,1521.01 863.622,1499.14 
  "/>
<polyline clip-path="url(#clip5500)" style="stroke:#000000; stroke-width:4; stroke-opacity:1; fill:none" points="
  1219.87,1521.01 1219.87,1499.14 
  "/>
<polyline clip-path="url(#clip5500)" style="stroke:#000000; stroke-width:4; stroke-opacity:1; fill:none" points="
  1576.13,1521.01 1576.13,1499.14 
  "/>
<polyline clip-path="url(#clip5500)" style="stroke:#000000; stroke-width:4; stroke-opacity:1; fill:none" points="
  1932.38,1521.01 1932.38,1499.14 
  "/>
<polyline clip-path="url(#clip5500)" style="stroke:#000000; stroke-width:4; stroke-opacity:1; fill:none" points="
  2288.63,1521.01 2288.63,1499.14 
  "/>
<polyline clip-path="url(#clip5500)" style="stroke:#000000; stroke-width:4; stroke-opacity:1; fill:none" points="
  86.9921,1479.74 120.979,1479.74 
  "/>
<polyline clip-path="url(#clip5500)" style="stroke:#000000; stroke-width:4; stroke-opacity:1; fill:none" points="
  86.9921,1190.17 120.979,1190.17 
  "/>
<polyline clip-path="url(#clip5500)" style="stroke:#000000; stroke-width:4; stroke-opacity:1; fill:none" points="
  86.9921,900.591 120.979,900.591 
  "/>
<polyline clip-path="url(#clip5500)" style="stroke:#000000; stroke-width:4; stroke-opacity:1; fill:none" points="
  86.9921,611.015 120.979,611.015 
  "/>
<polyline clip-path="url(#clip5500)" style="stroke:#000000; stroke-width:4; stroke-opacity:1; fill:none" points="
  86.9921,321.439 120.979,321.439 
  "/>
<g clip-path="url(#clip5500)">
<text style="fill:#000000; fill-opacity:1; font-family:Arial,Helvetica Neue,Helvetica,sans-serif; font-size:48px; text-anchor:middle;" transform="rotate(0, 151.118, 1575.01)" x="151.118" y="1575.01">-2</text>
</g>
<g clip-path="url(#clip5500)">
<text style="fill:#000000; fill-opacity:1; font-family:Arial,Helvetica Neue,Helvetica,sans-serif; font-size:48px; text-anchor:middle;" transform="rotate(0, 507.37, 1575.01)" x="507.37" y="1575.01">-1</text>
</g>
<g clip-path="url(#clip5500)">
<text style="fill:#000000; fill-opacity:1; font-family:Arial,Helvetica Neue,Helvetica,sans-serif; font-size:48px; text-anchor:middle;" transform="rotate(0, 863.622, 1575.01)" x="863.622" y="1575.01">0</text>
</g>
<g clip-path="url(#clip5500)">
<text style="fill:#000000; fill-opacity:1; font-family:Arial,Helvetica Neue,Helvetica,sans-serif; font-size:48px; text-anchor:middle;" transform="rotate(0, 1219.87, 1575.01)" x="1219.87" y="1575.01">1</text>
</g>
<g clip-path="url(#clip5500)">
<text style="fill:#000000; fill-opacity:1; font-family:Arial,Helvetica Neue,Helvetica,sans-serif; font-size:48px; text-anchor:middle;" transform="rotate(0, 1576.13, 1575.01)" x="1576.13" y="1575.01">2</text>
</g>
<g clip-path="url(#clip5500)">
<text style="fill:#000000; fill-opacity:1; font-family:Arial,Helvetica Neue,Helvetica,sans-serif; font-size:48px; text-anchor:middle;" transform="rotate(0, 1932.38, 1575.01)" x="1932.38" y="1575.01">3</text>
</g>
<g clip-path="url(#clip5500)">
<text style="fill:#000000; fill-opacity:1; font-family:Arial,Helvetica Neue,Helvetica,sans-serif; font-size:48px; text-anchor:middle;" transform="rotate(0, 2288.63, 1575.01)" x="2288.63" y="1575.01">4</text>
</g>
<g clip-path="url(#clip5500)">
<text style="fill:#000000; fill-opacity:1; font-family:Arial,Helvetica Neue,Helvetica,sans-serif; font-size:48px; text-anchor:end;" transform="rotate(0, 62.9921, 1497.24)" x="62.9921" y="1497.24">0</text>
</g>
<g clip-path="url(#clip5500)">
<text style="fill:#000000; fill-opacity:1; font-family:Arial,Helvetica Neue,Helvetica,sans-serif; font-size:48px; text-anchor:end;" transform="rotate(0, 62.9921, 1207.67)" x="62.9921" y="1207.67">200</text>
</g>
<g clip-path="url(#clip5500)">
<text style="fill:#000000; fill-opacity:1; font-family:Arial,Helvetica Neue,Helvetica,sans-serif; font-size:48px; text-anchor:end;" transform="rotate(0, 62.9921, 918.091)" x="62.9921" y="918.091">400</text>
</g>
<g clip-path="url(#clip5500)">
<text style="fill:#000000; fill-opacity:1; font-family:Arial,Helvetica Neue,Helvetica,sans-serif; font-size:48px; text-anchor:end;" transform="rotate(0, 62.9921, 628.515)" x="62.9921" y="628.515">600</text>
</g>
<g clip-path="url(#clip5500)">
<text style="fill:#000000; fill-opacity:1; font-family:Arial,Helvetica Neue,Helvetica,sans-serif; font-size:48px; text-anchor:end;" transform="rotate(0, 62.9921, 338.939)" x="62.9921" y="338.939">800</text>
</g>
<g clip-path="url(#clip5500)">
<text style="fill:#000000; fill-opacity:1; font-family:Arial,Helvetica Neue,Helvetica,sans-serif; font-size:84px; text-anchor:middle;" transform="rotate(0, 1219.87, 73.2)" x="1219.87" y="73.2">Data</text>
</g>
<polyline clip-path="url(#clip5502)" style="stroke:#009af9; stroke-width:4; stroke-opacity:1; fill:none" points="
  151.118,1479.74 151.118,1363.91 186.743,1363.91 186.743,1334.96 222.368,1334.96 222.368,1248.08 257.993,1248.08 257.993,1175.69 293.618,1175.69 293.618,1117.77 
  329.244,1117.77 329.244,1059.86 364.869,1059.86 364.869,1088.82 400.494,1088.82 400.494,886.112 436.119,886.112 436.119,770.282 471.744,770.282 471.744,1146.73 
  507.37,1146.73 507.37,1016.42 542.995,1016.42 542.995,958.506 578.62,958.506 578.62,900.591 614.245,900.591 614.245,1045.38 649.871,1045.38 649.871,1146.73 
  685.496,1146.73 685.496,1132.25 721.121,1132.25 721.121,1277.04 756.746,1277.04 756.746,1320.48 792.371,1320.48 792.371,1349.43 827.997,1349.43 827.997,1421.83 
  863.622,1421.83 863.622,1363.91 899.247,1363.91 899.247,1479.74 934.872,1479.74 934.872,1450.79 970.497,1450.79 970.497,1436.31 1006.12,1436.31 1006.12,1450.79 
  1041.75,1450.79 1077.37,1450.79 1113,1450.79 1113,1421.83 1148.62,1421.83 1148.62,1436.31 1184.25,1436.31 1184.25,1306 
  1219.87,1306 1255.5,1306 1255.5,1320.48 1291.12,1320.48 1291.12,1074.34 1326.75,1074.34 1362.37,1074.34 1362.37,886.112 
  1398,886.112 1398,683.409 1433.63,683.409 1433.63,451.748 1469.25,451.748 1469.25,437.269 1504.88,437.269 1504.88,451.748 1540.5,451.748 1540.5,118.736 
  1576.13,118.736 1576.13,104.257 1611.75,104.257 1611.75,553.1 1647.38,553.1 1647.38,393.833 1683,393.833 1683,422.79 1718.63,422.79 1718.63,857.155 
  1754.25,857.155 1754.25,958.506 1789.88,958.506 1789.88,944.027 1825.5,944.027 1825.5,1146.73 1861.13,1146.73 1861.13,1277.04 1896.75,1277.04 1896.75,1262.56 
  1932.38,1262.56 1932.38,1349.43 1968,1349.43 1968,1450.79 2003.63,1450.79 2039.25,1450.79 2074.88,1450.79 
  2110.5,1450.79 2110.5,1465.26 2146.13,1465.26 2146.13,1479.74 2181.75,1479.74 2217.38,1479.74 2253.01,1479.74 
  2288.63,1479.74 
  "/>
<polygon clip-path="url(#clip5500)" points="
1939.1,267.472 2280.76,267.472 2280.76,146.512 1939.1,146.512 
  " fill="#ffffff" fill-rule="evenodd" fill-opacity="1"/>
<polyline clip-path="url(#clip5500)" style="stroke:#000000; stroke-width:4; stroke-opacity:1; fill:none" points="
  1939.1,267.472 2280.76,267.472 2280.76,146.512 1939.1,146.512 1939.1,267.472 
  "/>
<polyline clip-path="url(#clip5500)" style="stroke:#009af9; stroke-width:4; stroke-opacity:1; fill:none" points="
  1963.1,206.992 2107.1,206.992 
  "/>
<g clip-path="url(#clip5500)">
<text style="fill:#000000; fill-opacity:1; font-family:Arial,Helvetica Neue,Helvetica,sans-serif; font-size:48px; text-anchor:start;" transform="rotate(0, 2131.1, 224.492)" x="2131.1" y="224.492">Data</text>
</g>
</svg>
