<?xml version="1.0" encoding="utf-8"?>
<svg xmlns="http://www.w3.org/2000/svg" xmlns:xlink="http://www.w3.org/1999/xlink" width="600" height="400" viewBox="0 0 2400 1600">
<defs>
  <clipPath id="clip7000">
    <rect x="0" y="0" width="2400" height="1600"/>
  </clipPath>
</defs>
<polygon clip-path="url(#clip7000)" points="
0,1600 2400,1600 2400,0 0,0 
  " fill="#ffffff" fill-rule="evenodd" fill-opacity="1"/>
<defs>
  <clipPath id="clip7001">
    <rect x="480" y="0" width="1681" height="1600"/>
  </clipPath>
</defs>
<polygon clip-path="url(#clip7000)" points="
86.9921,1521.01 2352.76,1521.01 2352.76,62.9921 86.9921,62.9921 
  " fill="#ffffff" fill-rule="evenodd" fill-opacity="1"/>
<defs>
  <clipPath id="clip7002">
    <rect x="86" y="62" width="2267" height="1459"/>
  </clipPath>
</defs>
<polyline clip-path="url(#clip7002)" style="stroke:#000000; stroke-width:2; stroke-opacity:0.1; fill:none" points="
  151.118,1521.01 151.118,62.9921 
  "/>
<polyline clip-path="url(#clip7002)" style="stroke:#000000; stroke-width:2; stroke-opacity:0.1; fill:none" points="
  685.496,1521.01 685.496,62.9921 
  "/>
<polyline clip-path="url(#clip7002)" style="stroke:#000000; stroke-width:2; stroke-opacity:0.1; fill:none" points="
  1219.87,1521.01 1219.87,62.9921 
  "/>
<polyline clip-path="url(#clip7002)" style="stroke:#000000; stroke-width:2; stroke-opacity:0.1; fill:none" points="
  1754.25,1521.01 1754.25,62.9921 
  "/>
<polyline clip-path="url(#clip7002)" style="stroke:#000000; stroke-width:2; stroke-opacity:0.1; fill:none" points="
  2288.63,1521.01 2288.63,62.9921 
  "/>
<polyline clip-path="url(#clip7002)" style="stroke:#000000; stroke-width:2; stroke-opacity:0.1; fill:none" points="
  86.9921,1479.74 2352.76,1479.74 
  "/>
<polyline clip-path="url(#clip7002)" style="stroke:#000000; stroke-width:2; stroke-opacity:0.1; fill:none" points="
  86.9921,1190.17 2352.76,1190.17 
  "/>
<polyline clip-path="url(#clip7002)" style="stroke:#000000; stroke-width:2; stroke-opacity:0.1; fill:none" points="
  86.9921,900.591 2352.76,900.591 
  "/>
<polyline clip-path="url(#clip7002)" style="stroke:#000000; stroke-width:2; stroke-opacity:0.1; fill:none" points="
  86.9921,611.015 2352.76,611.015 
  "/>
<polyline clip-path="url(#clip7002)" style="stroke:#000000; stroke-width:2; stroke-opacity:0.1; fill:none" points="
  86.9921,321.439 2352.76,321.439 
  "/>
<polyline clip-path="url(#clip7000)" style="stroke:#000000; stroke-width:4; stroke-opacity:1; fill:none" points="
  86.9921,1521.01 2352.76,1521.01 
  "/>
<polyline clip-path="url(#clip7000)" style="stroke:#000000; stroke-width:4; stroke-opacity:1; fill:none" points="
  86.9921,1521.01 86.9921,62.9921 
  "/>
<polyline clip-path="url(#clip7000)" style="stroke:#000000; stroke-width:4; stroke-opacity:1; fill:none" points="
  151.118,1521.01 151.118,1499.14 
  "/>
<polyline clip-path="url(#clip7000)" style="stroke:#000000; stroke-width:4; stroke-opacity:1; fill:none" points="
  685.496,1521.01 685.496,1499.14 
  "/>
<polyline clip-path="url(#clip7000)" style="stroke:#000000; stroke-width:4; stroke-opacity:1; fill:none" points="
  1219.87,1521.01 1219.87,1499.14 
  "/>
<polyline clip-path="url(#clip7000)" style="stroke:#000000; stroke-width:4; stroke-opacity:1; fill:none" points="
  1754.25,1521.01 1754.25,1499.14 
  "/>
<polyline clip-path="url(#clip7000)" style="stroke:#000000; stroke-width:4; stroke-opacity:1; fill:none" points="
  2288.63,1521.01 2288.63,1499.14 
  "/>
<polyline clip-path="url(#clip7000)" style="stroke:#000000; stroke-width:4; stroke-opacity:1; fill:none" points="
  86.9921,1479.74 120.979,1479.74 
  "/>
<polyline clip-path="url(#clip7000)" style="stroke:#000000; stroke-width:4; stroke-opacity:1; fill:none" points="
  86.9921,1190.17 120.979,1190.17 
  "/>
<polyline clip-path="url(#clip7000)" style="stroke:#000000; stroke-width:4; stroke-opacity:1; fill:none" points="
  86.9921,900.591 120.979,900.591 
  "/>
<polyline clip-path="url(#clip7000)" style="stroke:#000000; stroke-width:4; stroke-opacity:1; fill:none" points="
  86.9921,611.015 120.979,611.015 
  "/>
<polyline clip-path="url(#clip7000)" style="stroke:#000000; stroke-width:4; stroke-opacity:1; fill:none" points="
  86.9921,321.439 120.979,321.439 
  "/>
<g clip-path="url(#clip7000)">
<text style="fill:#000000; fill-opacity:1; font-family:Arial,Helvetica Neue,Helvetica,sans-serif; font-size:48px; text-anchor:middle;" transform="rotate(0, 151.118, 1575.01)" x="151.118" y="1575.01">-4</text>
</g>
<g clip-path="url(#clip7000)">
<text style="fill:#000000; fill-opacity:1; font-family:Arial,Helvetica Neue,Helvetica,sans-serif; font-size:48px; text-anchor:middle;" transform="rotate(0, 685.496, 1575.01)" x="685.496" y="1575.01">-2</text>
</g>
<g clip-path="url(#clip7000)">
<text style="fill:#000000; fill-opacity:1; font-family:Arial,Helvetica Neue,Helvetica,sans-serif; font-size:48px; text-anchor:middle;" transform="rotate(0, 1219.87, 1575.01)" x="1219.87" y="1575.01">0</text>
</g>
<g clip-path="url(#clip7000)">
<text style="fill:#000000; fill-opacity:1; font-family:Arial,Helvetica Neue,Helvetica,sans-serif; font-size:48px; text-anchor:middle;" transform="rotate(0, 1754.25, 1575.01)" x="1754.25" y="1575.01">2</text>
</g>
<g clip-path="url(#clip7000)">
<text style="fill:#000000; fill-opacity:1; font-family:Arial,Helvetica Neue,Helvetica,sans-serif; font-size:48px; text-anchor:middle;" transform="rotate(0, 2288.63, 1575.01)" x="2288.63" y="1575.01">4</text>
</g>
<g clip-path="url(#clip7000)">
<text style="fill:#000000; fill-opacity:1; font-family:Arial,Helvetica Neue,Helvetica,sans-serif; font-size:48px; text-anchor:end;" transform="rotate(0, 62.9921, 1497.24)" x="62.9921" y="1497.24">0</text>
</g>
<g clip-path="url(#clip7000)">
<text style="fill:#000000; fill-opacity:1; font-family:Arial,Helvetica Neue,Helvetica,sans-serif; font-size:48px; text-anchor:end;" transform="rotate(0, 62.9921, 1207.67)" x="62.9921" y="1207.67">200</text>
</g>
<g clip-path="url(#clip7000)">
<text style="fill:#000000; fill-opacity:1; font-family:Arial,Helvetica Neue,Helvetica,sans-serif; font-size:48px; text-anchor:end;" transform="rotate(0, 62.9921, 918.091)" x="62.9921" y="918.091">400</text>
</g>
<g clip-path="url(#clip7000)">
<text style="fill:#000000; fill-opacity:1; font-family:Arial,Helvetica Neue,Helvetica,sans-serif; font-size:48px; text-anchor:end;" transform="rotate(0, 62.9921, 628.515)" x="62.9921" y="628.515">600</text>
</g>
<g clip-path="url(#clip7000)">
<text style="fill:#000000; fill-opacity:1; font-family:Arial,Helvetica Neue,Helvetica,sans-serif; font-size:48px; text-anchor:end;" transform="rotate(0, 62.9921, 338.939)" x="62.9921" y="338.939">800</text>
</g>
<g clip-path="url(#clip7000)">
<text style="fill:#000000; fill-opacity:1; font-family:Arial,Helvetica Neue,Helvetica,sans-serif; font-size:84px; text-anchor:middle;" transform="rotate(0, 1219.87, 73.2)" x="1219.87" y="73.2">Data, True Model and Best Fit</text>
</g>
<polyline clip-path="url(#clip7002)" style="stroke:#009af9; stroke-width:4; stroke-opacity:1; fill:none" points="
  685.496,1479.74 685.496,1363.91 712.215,1363.91 712.215,1334.96 738.934,1334.96 738.934,1248.08 765.653,1248.08 765.653,1175.69 792.371,1175.69 792.371,1117.77 
  819.09,1117.77 819.09,1059.86 845.809,1059.86 845.809,1088.82 872.528,1088.82 872.528,886.112 899.247,886.112 899.247,770.282 925.966,770.282 925.966,1146.73 
  952.685,1146.73 952.685,1016.42 979.404,1016.42 979.404,958.506 1006.12,958.506 1006.12,900.591 1032.84,900.591 1032.84,1045.38 1059.56,1045.38 1059.56,1146.73 
  1086.28,1146.73 1086.28,1132.25 1113,1132.25 1113,1277.04 1139.72,1277.04 1139.72,1320.48 1166.44,1320.48 1166.44,1349.43 1193.16,1349.43 1193.16,1421.83 
  1219.87,1421.83 1219.87,1363.91 1246.59,1363.91 1246.59,1479.74 1273.31,1479.74 1273.31,1450.79 1300.03,1450.79 1300.03,1436.31 1326.75,1436.31 1326.75,1450.79 
  1353.47,1450.79 1380.19,1450.79 1406.91,1450.79 1406.91,1421.83 1433.63,1421.83 1433.63,1436.31 1460.34,1436.31 1460.34,1306 
  1487.06,1306 1513.78,1306 1513.78,1320.48 1540.5,1320.48 1540.5,1074.34 1567.22,1074.34 1593.94,1074.34 1593.94,886.112 
  1620.66,886.112 1620.66,683.409 1647.38,683.409 1647.38,451.748 1674.1,451.748 1674.1,437.269 1700.81,437.269 1700.81,451.748 1727.53,451.748 1727.53,118.736 
  1754.25,118.736 1754.25,104.257 1780.97,104.257 1780.97,553.1 1807.69,553.1 1807.69,393.833 1834.41,393.833 1834.41,422.79 1861.13,422.79 1861.13,857.155 
  1887.85,857.155 1887.85,958.506 1914.57,958.506 1914.57,944.027 1941.28,944.027 1941.28,1146.73 1968,1146.73 1968,1277.04 1994.72,1277.04 1994.72,1262.56 
  2021.44,1262.56 2021.44,1349.43 2048.16,1349.43 2048.16,1450.79 2074.88,1450.79 2101.6,1450.79 2128.32,1450.79 
  2155.04,1450.79 2155.04,1465.26 2181.75,1465.26 2181.75,1479.74 2208.47,1479.74 2235.19,1479.74 2261.91,1479.74 
  2288.63,1479.74 
  "/>
<polyline clip-path="url(#clip7002)" style="stroke:#e26f46; stroke-width:4; stroke-opacity:1; fill:none" points="
  151.118,1479.74 153.789,1479.74 156.461,1479.74 159.133,1479.74 161.805,1479.74 164.477,1479.74 167.149,1479.74 169.821,1479.74 172.493,1479.74 175.165,1479.74 
  177.836,1479.74 180.508,1479.74 183.18,1479.74 185.852,1479.74 188.524,1479.74 191.196,1479.74 193.868,1479.74 196.54,1479.74 199.212,1479.74 201.883,1479.74 
  204.555,1479.74 207.227,1479.74 209.899,1479.74 212.571,1479.74 215.243,1479.74 217.915,1479.74 220.587,1479.74 223.259,1479.74 225.93,1479.74 228.602,1479.74 
  231.274,1479.74 233.946,1479.74 236.618,1479.74 239.29,1479.74 241.962,1479.74 244.634,1479.74 247.306,1479.74 249.977,1479.74 252.649,1479.74 255.321,1479.74 
  257.993,1479.74 260.665,1479.74 263.337,1479.74 266.009,1479.74 268.681,1479.74 271.353,1479.74 274.025,1479.74 276.696,1479.74 279.368,1479.74 282.04,1479.74 
  284.712,1479.74 287.384,1479.74 290.056,1479.74 292.728,1479.74 295.4,1479.74 298.072,1479.74 300.743,1479.74 303.415,1479.74 306.087,1479.74 308.759,1479.74 
  311.431,1479.74 314.103,1479.74 316.775,1479.74 319.447,1479.74 322.119,1479.73 324.79,1479.73 327.462,1479.73 330.134,1479.73 332.806,1479.73 335.478,1479.73 
  338.15,1479.73 340.822,1479.73 343.494,1479.73 346.166,1479.72 348.837,1479.72 351.509,1479.72 354.181,1479.72 356.853,1479.72 359.525,1479.71 362.197,1479.71 
  364.869,1479.71 367.541,1479.7 370.213,1479.7 372.884,1479.7 375.556,1479.69 378.228,1479.69 380.9,1479.68 383.572,1479.68 386.244,1479.67 388.916,1479.66 
  391.588,1479.66 394.26,1479.65 396.932,1479.64 399.603,1479.63 402.275,1479.62 404.947,1479.61 407.619,1479.6 410.291,1479.59 412.963,1479.58 415.635,1479.56 
  418.307,1479.55 420.979,1479.53 423.65,1479.52 426.322,1479.5 428.994,1479.48 431.666,1479.46 434.338,1479.43 437.01,1479.41 439.682,1479.38 442.354,1479.35 
  445.026,1479.32 447.697,1479.29 450.369,1479.25 453.041,1479.21 455.713,1479.17 458.385,1479.13 461.057,1479.08 463.729,1479.03 466.401,1478.98 469.073,1478.92 
  471.744,1478.86 474.416,1478.79 477.088,1478.72 479.76,1478.65 482.432,1478.57 485.104,1478.48 487.776,1478.39 490.448,1478.29 493.12,1478.19 495.791,1478.08 
  498.463,1477.96 501.135,1477.83 503.807,1477.7 506.479,1477.56 509.151,1477.41 511.823,1477.25 514.495,1477.08 517.167,1476.9 519.839,1476.71 522.51,1476.51 
  525.182,1476.29 527.854,1476.06 530.526,1475.82 533.198,1475.57 535.87,1475.3 538.542,1475.01 541.214,1474.71 543.886,1474.39 546.557,1474.06 549.229,1473.7 
  551.901,1473.33 554.573,1472.93 557.245,1472.51 559.917,1472.07 562.589,1471.61 565.261,1471.12 567.933,1470.61 570.604,1470.07 573.276,1469.51 575.948,1468.91 
  578.62,1468.28 581.292,1467.62 583.964,1466.93 586.636,1466.21 589.308,1465.45 591.98,1464.66 594.651,1463.82 597.323,1462.95 599.995,1462.03 602.667,1461.08 
  605.339,1460.08 608.011,1459.03 610.683,1457.94 613.355,1456.8 616.027,1455.61 618.698,1454.36 621.37,1453.07 624.042,1451.72 626.714,1450.31 629.386,1448.84 
  632.058,1447.32 634.73,1445.73 637.402,1444.08 640.074,1442.36 642.746,1440.58 645.417,1438.73 648.089,1436.81 650.761,1434.81 653.433,1432.74 656.105,1430.6 
  658.777,1428.38 661.449,1426.08 664.121,1423.7 666.793,1421.24 669.464,1418.69 672.136,1416.06 674.808,1413.34 677.48,1410.54 680.152,1407.64 682.824,1404.65 
  685.496,1401.57 688.168,1398.4 690.84,1395.13 693.511,1391.76 696.183,1388.3 698.855,1384.74 701.527,1381.08 704.199,1377.32 706.871,1373.46 709.543,1369.5 
  712.215,1365.43 714.887,1361.27 717.558,1357 720.23,1352.63 722.902,1348.15 725.574,1343.57 728.246,1338.89 730.918,1334.11 733.59,1329.22 736.262,1324.23 
  738.934,1319.14 741.605,1313.95 744.277,1308.67 746.949,1303.28 749.621,1297.8 752.293,1292.22 754.965,1286.54 757.637,1280.78 760.309,1274.93 762.981,1268.98 
  765.653,1262.96 768.324,1256.84 770.996,1250.65 773.668,1244.38 776.34,1238.04 779.012,1231.62 781.684,1225.14 784.356,1218.59 787.028,1211.98 789.7,1205.31 
  792.371,1198.59 795.043,1191.81 797.715,1185 800.387,1178.14 803.059,1171.24 805.731,1164.32 808.403,1157.37 811.075,1150.39 813.747,1143.4 816.418,1136.4 
  819.09,1129.4 821.762,1122.39 824.434,1115.39 827.106,1108.4 829.778,1101.43 832.45,1094.48 835.122,1087.56 837.794,1080.68 840.465,1073.84 843.137,1067.04 
  845.809,1060.3 848.481,1053.62 851.153,1047.01 853.825,1040.47 856.497,1034.01 859.169,1027.64 861.841,1021.35 864.512,1015.17 867.184,1009.09 869.856,1003.12 
  872.528,997.274 875.2,991.547 877.872,985.95 880.544,980.488 883.216,975.168 885.888,969.995 888.56,964.975 891.231,960.113 893.903,955.415 896.575,950.887 
  899.247,946.532 901.919,942.357 904.591,938.365 907.263,934.562 909.935,930.952 912.607,927.539 915.278,924.327 917.95,921.32 920.622,918.521 923.294,915.933 
  925.966,913.56 928.638,911.405 931.31,909.469 933.982,907.756 936.654,906.266 939.325,905.003 941.997,903.968 944.669,903.161 947.341,902.584 950.013,902.238 
  952.685,902.122 955.357,902.238 958.029,902.584 960.701,903.161 963.372,903.968 966.044,905.003 968.716,906.266 971.388,907.755 974.06,909.469 976.732,911.405 
  979.404,913.56 982.076,915.933 984.748,918.521 987.419,921.32 990.091,924.327 992.763,927.539 995.435,930.952 998.107,934.562 1000.78,938.365 1003.45,942.357 
  1006.12,946.532 1008.79,950.886 1011.47,955.415 1014.14,960.113 1016.81,964.974 1019.48,969.994 1022.15,975.167 1024.83,980.488 1027.5,985.949 1030.17,991.547 
  1032.84,997.273 1035.51,1003.12 1038.19,1009.09 1040.86,1015.17 1043.53,1021.35 1046.2,1027.64 1048.87,1034.01 1051.54,1040.47 1054.22,1047.01 1056.89,1053.62 
  1059.56,1060.3 1062.23,1067.04 1064.9,1073.84 1067.58,1080.68 1070.25,1087.56 1072.92,1094.48 1075.59,1101.43 1078.26,1108.4 1080.94,1115.39 1083.61,1122.39 
  1086.28,1129.39 1088.95,1136.4 1091.62,1143.4 1094.3,1150.39 1096.97,1157.36 1099.64,1164.31 1102.31,1171.24 1104.98,1178.13 1107.65,1184.99 1110.33,1191.8 
  1113,1198.57 1115.67,1205.29 1118.34,1211.96 1121.01,1218.57 1123.69,1225.12 1126.36,1231.6 1129.03,1238.02 1131.7,1244.36 1134.37,1250.63 1137.05,1256.82 
  1139.72,1262.93 1142.39,1268.95 1145.06,1274.89 1147.73,1280.74 1150.4,1286.5 1153.08,1292.17 1155.75,1297.75 1158.42,1303.22 1161.09,1308.61 1163.76,1313.89 
  1166.44,1319.07 1169.11,1324.15 1171.78,1329.13 1174.45,1334.01 1177.12,1338.79 1179.8,1343.46 1182.47,1348.03 1185.14,1352.49 1187.81,1356.85 1190.48,1361.11 
  1193.16,1365.26 1195.83,1369.31 1198.5,1373.26 1201.17,1377.1 1203.84,1380.84 1206.51,1384.48 1209.19,1388.02 1211.86,1391.46 1214.53,1394.8 1217.2,1398.04 
  1219.87,1401.18 1222.55,1404.23 1225.22,1407.18 1227.89,1410.04 1230.56,1412.81 1233.23,1415.49 1235.91,1418.07 1238.58,1420.57 1241.25,1422.97 1243.92,1425.3 
  1246.59,1427.53 1249.26,1429.69 1251.94,1431.76 1254.61,1433.75 1257.28,1435.66 1259.95,1437.5 1262.62,1439.26 1265.3,1440.94 1267.97,1442.55 1270.64,1444.08 
  1273.31,1445.55 1275.98,1446.94 1278.66,1448.27 1281.33,1449.52 1284,1450.71 1286.67,1451.84 1289.34,1452.9 1292.02,1453.89 1294.69,1454.83 1297.36,1455.7 
  1300.03,1456.51 1302.7,1457.26 1305.37,1457.95 1308.05,1458.58 1310.72,1459.15 1313.39,1459.67 1316.06,1460.12 1318.73,1460.52 1321.41,1460.87 1324.08,1461.15 
  1326.75,1461.38 1329.42,1461.55 1332.09,1461.66 1334.77,1461.72 1337.44,1461.72 1340.11,1461.66 1342.78,1461.55 1345.45,1461.37 1348.12,1461.14 1350.8,1460.85 
  1353.47,1460.49 1356.14,1460.08 1358.81,1459.6 1361.48,1459.06 1364.16,1458.45 1366.83,1457.78 1369.5,1457.04 1372.17,1456.23 1374.84,1455.35 1377.52,1454.4 
  1380.19,1453.37 1382.86,1452.27 1385.53,1451.09 1388.2,1449.83 1390.88,1448.5 1393.55,1447.07 1396.22,1445.56 1398.89,1443.97 1401.56,1442.28 1404.23,1440.5 
  1406.91,1438.63 1409.58,1436.65 1412.25,1434.58 1414.92,1432.4 1417.59,1430.12 1420.27,1427.72 1422.94,1425.22 1425.61,1422.59 1428.28,1419.85 1430.95,1416.99 
  1433.63,1414.01 1436.3,1410.89 1438.97,1407.65 1441.64,1404.27 1444.31,1400.76 1446.98,1397.1 1449.66,1393.3 1452.33,1389.35 1455,1385.25 1457.67,1381 
  1460.34,1376.59 1463.02,1372.03 1465.69,1367.29 1468.36,1362.4 1471.03,1357.33 1473.7,1352.09 1476.38,1346.67 1479.05,1341.08 1481.72,1335.31 1484.39,1329.35 
  1487.06,1323.2 1489.74,1316.87 1492.41,1310.35 1495.08,1303.63 1497.75,1296.72 1500.42,1289.61 1503.09,1282.3 1505.77,1274.79 1508.44,1267.07 1511.11,1259.16 
  1513.78,1251.04 1516.45,1242.71 1519.13,1234.18 1521.8,1225.44 1524.47,1216.5 1527.14,1207.34 1529.81,1197.99 1532.49,1188.42 1535.16,1178.65 1537.83,1168.68 
  1540.5,1158.51 1543.17,1148.13 1545.84,1137.56 1548.52,1126.79 1551.19,1115.82 1553.86,1104.67 1556.53,1093.33 1559.2,1081.8 1561.88,1070.09 1564.55,1058.21 
  1567.22,1046.15 1569.89,1033.93 1572.56,1021.55 1575.24,1009.01 1577.91,996.323 1580.58,983.492 1583.25,970.523 1585.92,957.424 1588.6,944.202 1591.27,930.865 
  1593.94,917.421 1596.61,903.878 1599.28,890.244 1601.95,876.529 1604.63,862.742 1607.3,848.892 1609.97,834.989 1612.64,821.043 1615.31,807.064 1617.99,793.063 
  1620.66,779.052 1623.33,765.04 1626,751.04 1628.67,737.062 1631.35,723.119 1634.02,709.223 1636.69,695.385 1639.36,681.618 1642.03,667.934 1644.7,654.345 
  1647.38,640.865 1650.05,627.506 1652.72,614.28 1655.39,601.2 1658.06,588.279 1660.74,575.53 1663.41,562.965 1666.08,550.598 1668.75,538.44 1671.42,526.505 
  1674.1,514.804 1676.77,503.35 1679.44,492.156 1682.11,481.233 1684.78,470.592 1687.45,460.246 1690.13,450.206 1692.8,440.483 1695.47,431.087 1698.14,422.03 
  1700.81,413.321 1703.49,404.97 1706.16,396.987 1708.83,389.382 1711.5,382.161 1714.17,375.335 1716.85,368.911 1719.52,362.896 1722.19,357.298 1724.86,352.123 
  1727.53,347.377 1730.21,343.066 1732.88,339.195 1735.55,335.768 1738.22,332.79 1740.89,330.263 1743.56,328.193 1746.24,326.579 1748.91,325.426 1751.58,324.733 
  1754.25,324.502 1756.92,324.733 1759.6,325.426 1762.27,326.579 1764.94,328.193 1767.61,330.264 1770.28,332.79 1772.96,335.768 1775.63,339.195 1778.3,343.066 
  1780.97,347.377 1783.64,352.123 1786.31,357.298 1788.99,362.896 1791.66,368.911 1794.33,375.335 1797,382.161 1799.67,389.382 1802.35,396.987 1805.02,404.97 
  1807.69,413.321 1810.36,422.03 1813.03,431.087 1815.71,440.483 1818.38,450.206 1821.05,460.246 1823.72,470.592 1826.39,481.233 1829.07,492.156 1831.74,503.351 
  1834.41,514.804 1837.08,526.505 1839.75,538.441 1842.42,550.598 1845.1,562.966 1847.77,575.53 1850.44,588.28 1853.11,601.2 1855.78,614.28 1858.46,627.506 
  1861.13,640.866 1863.8,654.346 1866.47,667.935 1869.14,681.619 1871.82,695.386 1874.49,709.224 1877.16,723.121 1879.83,737.064 1882.5,751.041 1885.17,765.042 
  1887.85,779.054 1890.52,793.066 1893.19,807.067 1895.86,821.046 1898.53,834.992 1901.21,848.895 1903.88,862.746 1906.55,876.534 1909.22,890.249 1911.89,903.883 
  1914.57,917.427 1917.24,930.872 1919.91,944.209 1922.58,957.431 1925.25,970.531 1927.93,983.501 1930.6,996.333 1933.27,1009.02 1935.94,1021.56 1938.61,1033.95 
  1941.28,1046.17 1943.96,1058.22 1946.63,1070.11 1949.3,1081.82 1951.97,1093.35 1954.64,1104.69 1957.32,1115.85 1959.99,1126.82 1962.66,1137.59 1965.33,1148.16 
  1968,1158.54 1970.68,1168.72 1973.35,1178.7 1976.02,1188.47 1978.69,1198.04 1981.36,1207.4 1984.03,1216.56 1986.71,1225.51 1989.38,1234.25 1992.05,1242.79 
  1994.72,1251.12 1997.39,1259.25 2000.07,1267.17 2002.74,1274.9 2005.41,1282.42 2008.08,1289.74 2010.75,1296.86 2013.43,1303.78 2016.1,1310.51 2018.77,1317.05 
  2021.44,1323.4 2024.11,1329.56 2026.79,1335.53 2029.46,1341.33 2032.13,1346.94 2034.8,1352.38 2037.47,1357.64 2040.14,1362.73 2042.82,1367.66 2045.49,1372.42 
  2048.16,1377.02 2050.83,1381.46 2053.5,1385.75 2056.18,1389.88 2058.85,1393.87 2061.52,1397.71 2064.19,1401.42 2066.86,1404.98 2069.54,1408.42 2072.21,1411.72 
  2074.88,1414.89 2077.55,1417.95 2080.22,1420.88 2082.89,1423.69 2085.57,1426.39 2088.24,1428.99 2090.91,1431.47 2093.58,1433.85 2096.25,1436.13 2098.93,1438.32 
  2101.6,1440.41 2104.27,1442.41 2106.94,1444.32 2109.61,1446.15 2112.29,1447.9 2114.96,1449.57 2117.63,1451.16 2120.3,1452.68 2122.97,1454.13 2125.65,1455.51 
  2128.32,1456.82 2130.99,1458.07 2133.66,1459.27 2136.33,1460.4 2139,1461.48 2141.68,1462.51 2144.35,1463.48 2147.02,1464.41 2149.69,1465.29 2152.36,1466.12 
  2155.04,1466.91 2157.71,1467.66 2160.38,1468.37 2163.05,1469.04 2165.72,1469.68 2168.4,1470.28 2171.07,1470.85 2173.74,1471.39 2176.41,1471.9 2179.08,1472.38 
  2181.75,1472.84 2184.43,1473.27 2187.1,1473.67 2189.77,1474.06 2192.44,1474.42 2195.11,1474.76 2197.79,1475.07 2200.46,1475.38 2203.13,1475.66 2205.8,1475.92 
  2208.47,1476.18 2211.15,1476.41 2213.82,1476.63 2216.49,1476.84 2219.16,1477.03 2221.83,1477.22 2224.51,1477.39 2227.18,1477.55 2229.85,1477.7 2232.52,1477.84 
  2235.19,1477.97 2237.86,1478.09 2240.54,1478.21 2243.21,1478.32 2245.88,1478.42 2248.55,1478.51 2251.22,1478.6 2253.9,1478.68 2256.57,1478.76 2259.24,1478.83 
  2261.91,1478.9 2264.58,1478.96 2267.26,1479.02 2269.93,1479.07 2272.6,1479.12 2275.27,1479.17 2277.94,1479.21 2280.61,1479.25 2283.29,1479.29 2285.96,1479.32 
  2288.63,1479.36 
  "/>
<polyline clip-path="url(#clip7002)" style="stroke:#3da44d; stroke-width:4; stroke-opacity:1; fill:none" points="
  151.118,1479.74 153.789,1479.74 156.461,1479.74 159.133,1479.74 161.805,1479.74 164.477,1479.74 167.149,1479.74 169.821,1479.74 172.493,1479.74 175.165,1479.74 
  177.836,1479.74 180.508,1479.74 183.18,1479.74 185.852,1479.74 188.524,1479.74 191.196,1479.74 193.868,1479.74 196.54,1479.74 199.212,1479.74 201.883,1479.74 
  204.555,1479.74 207.227,1479.74 209.899,1479.74 212.571,1479.74 215.243,1479.74 217.915,1479.74 220.587,1479.74 223.259,1479.74 225.93,1479.74 228.602,1479.74 
  231.274,1479.74 233.946,1479.74 236.618,1479.74 239.29,1479.74 241.962,1479.74 244.634,1479.74 247.306,1479.74 249.977,1479.74 252.649,1479.74 255.321,1479.74 
  257.993,1479.74 260.665,1479.74 263.337,1479.74 266.009,1479.74 268.681,1479.74 271.353,1479.74 274.025,1479.74 276.696,1479.74 279.368,1479.74 282.04,1479.74 
  284.712,1479.74 287.384,1479.74 290.056,1479.74 292.728,1479.74 295.4,1479.74 298.072,1479.74 300.743,1479.74 303.415,1479.74 306.087,1479.74 308.759,1479.74 
  311.431,1479.74 314.103,1479.74 316.775,1479.74 319.447,1479.73 322.119,1479.73 324.79,1479.73 327.462,1479.73 330.134,1479.73 332.806,1479.73 335.478,1479.73 
  338.15,1479.73 340.822,1479.73 343.494,1479.72 346.166,1479.72 348.837,1479.72 351.509,1479.72 354.181,1479.72 356.853,1479.71 359.525,1479.71 362.197,1479.71 
  364.869,1479.7 367.541,1479.7 370.213,1479.7 372.884,1479.69 375.556,1479.69 378.228,1479.68 380.9,1479.68 383.572,1479.67 386.244,1479.66 388.916,1479.66 
  391.588,1479.65 394.26,1479.64 396.932,1479.63 399.603,1479.62 402.275,1479.61 404.947,1479.6 407.619,1479.59 410.291,1479.57 412.963,1479.56 415.635,1479.54 
  418.307,1479.53 420.979,1479.51 423.65,1479.49 426.322,1479.47 428.994,1479.45 431.666,1479.42 434.338,1479.4 437.01,1479.37 439.682,1479.34 442.354,1479.3 
  445.026,1479.27 447.697,1479.23 450.369,1479.19 453.041,1479.15 455.713,1479.1 458.385,1479.05 461.057,1479 463.729,1478.94 466.401,1478.88 469.073,1478.82 
  471.744,1478.75 474.416,1478.68 477.088,1478.6 479.76,1478.51 482.432,1478.42 485.104,1478.33 487.776,1478.22 490.448,1478.11 493.12,1478 495.791,1477.87 
  498.463,1477.74 501.135,1477.6 503.807,1477.45 506.479,1477.29 509.151,1477.12 511.823,1476.94 514.495,1476.75 517.167,1476.55 519.839,1476.33 522.51,1476.11 
  525.182,1475.87 527.854,1475.61 530.526,1475.34 533.198,1475.05 535.87,1474.75 538.542,1474.43 541.214,1474.09 543.886,1473.74 546.557,1473.36 549.229,1472.96 
  551.901,1472.54 554.573,1472.1 557.245,1471.63 559.917,1471.14 562.589,1470.62 565.261,1470.07 567.933,1469.5 570.604,1468.9 573.276,1468.26 575.948,1467.6 
  578.62,1466.9 581.292,1466.16 583.964,1465.39 586.636,1464.58 589.308,1463.74 591.98,1462.85 594.651,1461.92 597.323,1460.94 599.995,1459.93 602.667,1458.86 
  605.339,1457.75 608.011,1456.59 610.683,1455.37 613.355,1454.1 616.027,1452.78 618.698,1451.4 621.37,1449.97 624.042,1448.47 626.714,1446.91 629.386,1445.29 
  632.058,1443.6 634.73,1441.84 637.402,1440.02 640.074,1438.12 642.746,1436.15 645.417,1434.11 648.089,1431.99 650.761,1429.79 653.433,1427.52 656.105,1425.16 
  658.777,1422.72 661.449,1420.19 664.121,1417.58 666.793,1414.88 669.464,1412.09 672.136,1409.21 674.808,1406.24 677.48,1403.17 680.152,1400 682.824,1396.74 
  685.496,1393.39 688.168,1389.93 690.84,1386.37 693.511,1382.71 696.183,1378.95 698.855,1375.09 701.527,1371.12 704.199,1367.05 706.871,1362.87 709.543,1358.59 
  712.215,1354.2 714.887,1349.71 717.558,1345.11 720.23,1340.4 722.902,1335.59 725.574,1330.68 728.246,1325.66 730.918,1320.53 733.59,1315.3 736.262,1309.97 
  738.934,1304.54 741.605,1299.01 744.277,1293.38 746.949,1287.66 749.621,1281.84 752.293,1275.92 754.965,1269.92 757.637,1263.83 760.309,1257.65 762.981,1251.38 
  765.653,1245.04 768.324,1238.62 770.996,1232.12 773.668,1225.56 776.34,1218.92 779.012,1212.22 781.684,1205.47 784.356,1198.65 787.028,1191.79 789.7,1184.87 
  792.371,1177.92 795.043,1170.93 797.715,1163.9 800.387,1156.85 803.059,1149.77 805.731,1142.68 808.403,1135.57 811.075,1128.46 813.747,1121.35 816.418,1114.24 
  819.09,1107.15 821.762,1100.07 824.434,1093.02 827.106,1086 829.778,1079.01 832.45,1072.06 835.122,1065.17 837.794,1058.33 840.465,1051.55 843.137,1044.84 
  845.809,1038.21 848.481,1031.66 851.153,1025.2 853.825,1018.83 856.497,1012.56 859.169,1006.41 861.841,1000.36 864.512,994.442 867.184,988.648 869.856,982.989 
  872.528,977.47 875.2,972.097 877.872,966.876 880.544,961.813 883.216,956.914 885.888,952.184 888.56,947.629 891.231,943.255 893.903,939.065 896.575,935.065 
  899.247,931.26 901.919,927.654 904.591,924.251 907.263,921.056 909.935,918.072 912.607,915.303 915.278,912.753 917.95,910.423 920.622,908.317 923.294,906.438 
  925.966,904.788 928.638,903.369 931.31,902.183 933.982,901.23 936.654,900.513 939.325,900.032 941.997,899.788 944.669,899.781 947.341,900.01 950.013,900.477 
  952.685,901.179 955.357,902.117 958.029,903.29 960.701,904.694 963.372,906.33 966.044,908.195 968.716,910.287 971.388,912.603 974.06,915.14 976.732,917.896 
  979.404,920.867 982.076,924.049 984.748,927.439 987.419,931.032 990.091,934.825 992.763,938.813 995.435,942.991 998.107,947.355 1000.78,951.899 1003.45,956.618 
  1006.12,961.507 1008.79,966.56 1011.47,971.771 1014.14,977.135 1016.81,982.645 1019.48,988.296 1022.15,994.081 1024.83,999.995 1027.5,1006.03 1030.17,1012.18 
  1032.84,1018.44 1035.51,1024.8 1038.19,1031.26 1040.86,1037.8 1043.53,1044.43 1046.2,1051.14 1048.87,1057.91 1051.54,1064.74 1054.22,1071.64 1056.89,1078.58 
  1059.56,1085.56 1062.23,1092.58 1064.9,1099.64 1067.58,1106.71 1070.25,1113.81 1072.92,1120.91 1075.59,1128.02 1078.26,1135.13 1080.94,1142.24 1083.61,1149.33 
  1086.28,1156.41 1088.95,1163.46 1091.62,1170.49 1094.3,1177.48 1096.97,1184.44 1099.64,1191.36 1102.31,1198.22 1104.98,1205.04 1107.65,1211.8 1110.33,1218.5 
  1113,1225.14 1115.67,1231.71 1118.34,1238.21 1121.01,1244.63 1123.69,1250.98 1126.36,1257.25 1129.03,1263.43 1131.7,1269.53 1134.37,1275.54 1137.05,1281.45 
  1139.72,1287.28 1142.39,1293.01 1145.06,1298.64 1147.73,1304.17 1150.4,1309.61 1153.08,1314.94 1155.75,1320.17 1158.42,1325.29 1161.09,1330.32 1163.76,1335.23 
  1166.44,1340.04 1169.11,1344.75 1171.78,1349.35 1174.45,1353.84 1177.12,1358.23 1179.8,1362.51 1182.47,1366.68 1185.14,1370.75 1187.81,1374.72 1190.48,1378.57 
  1193.16,1382.33 1195.83,1385.98 1198.5,1389.53 1201.17,1392.98 1203.84,1396.32 1206.51,1399.57 1209.19,1402.72 1211.86,1405.77 1214.53,1408.73 1217.2,1411.59 
  1219.87,1414.36 1222.55,1417.03 1225.22,1419.62 1227.89,1422.11 1230.56,1424.52 1233.23,1426.84 1235.91,1429.08 1238.58,1431.24 1241.25,1433.31 1243.92,1435.3 
  1246.59,1437.22 1249.26,1439.05 1251.94,1440.81 1254.61,1442.5 1257.28,1444.12 1259.95,1445.66 1262.62,1447.13 1265.3,1448.54 1267.97,1449.88 1270.64,1451.15 
  1273.31,1452.36 1275.98,1453.5 1278.66,1454.58 1281.33,1455.61 1284,1456.57 1286.67,1457.47 1289.34,1458.31 1292.02,1459.1 1294.69,1459.83 1297.36,1460.51 
  1300.03,1461.13 1302.7,1461.7 1305.37,1462.22 1308.05,1462.68 1310.72,1463.09 1313.39,1463.45 1316.06,1463.75 1318.73,1464.01 1321.41,1464.21 1324.08,1464.36 
  1326.75,1464.46 1329.42,1464.51 1332.09,1464.51 1334.77,1464.45 1337.44,1464.34 1340.11,1464.18 1342.78,1463.97 1345.45,1463.7 1348.12,1463.38 1350.8,1463 
  1353.47,1462.56 1356.14,1462.07 1358.81,1461.51 1361.48,1460.9 1364.16,1460.22 1366.83,1459.49 1369.5,1458.68 1372.17,1457.82 1374.84,1456.88 1377.52,1455.87 
  1380.19,1454.8 1382.86,1453.65 1385.53,1452.42 1388.2,1451.12 1390.88,1449.73 1393.55,1448.27 1396.22,1446.71 1398.89,1445.08 1401.56,1443.35 1404.23,1441.53 
  1406.91,1439.61 1409.58,1437.6 1412.25,1435.48 1414.92,1433.26 1417.59,1430.94 1420.27,1428.5 1422.94,1425.95 1425.61,1423.28 1428.28,1420.5 1430.95,1417.59 
  1433.63,1414.55 1436.3,1411.39 1438.97,1408.09 1441.64,1404.65 1444.31,1401.08 1446.98,1397.36 1449.66,1393.49 1452.33,1389.48 1455,1385.31 1457.67,1380.98 
  1460.34,1376.49 1463.02,1371.84 1465.69,1367.02 1468.36,1362.03 1471.03,1356.86 1473.7,1351.52 1476.38,1346 1479.05,1340.29 1481.72,1334.39 1484.39,1328.31 
  1487.06,1322.03 1489.74,1315.56 1492.41,1308.9 1495.08,1302.03 1497.75,1294.96 1500.42,1287.68 1503.09,1280.2 1505.77,1272.52 1508.44,1264.62 1511.11,1256.51 
  1513.78,1248.19 1516.45,1239.66 1519.13,1230.91 1521.8,1221.95 1524.47,1212.78 1527.14,1203.39 1529.81,1193.79 1532.49,1183.98 1535.16,1173.95 1537.83,1163.71 
  1540.5,1153.26 1543.17,1142.61 1545.84,1131.75 1548.52,1120.68 1551.19,1109.42 1553.86,1097.95 1556.53,1086.3 1559.2,1074.45 1561.88,1062.41 1564.55,1050.2 
  1567.22,1037.8 1569.89,1025.24 1572.56,1012.51 1575.24,999.617 1577.91,986.571 1580.58,973.378 1583.25,960.044 1585.92,946.577 1588.6,932.985 1591.27,919.275 
  1593.94,905.456 1596.61,891.536 1599.28,877.526 1601.95,863.434 1604.63,849.27 1607.3,835.043 1609.97,820.765 1612.64,806.447 1615.31,792.098 1617.99,777.73 
  1620.66,763.355 1623.33,748.985 1626,734.631 1628.67,720.305 1631.35,706.02 1634.02,691.789 1636.69,677.624 1639.36,663.538 1642.03,649.544 1644.7,635.655 
  1647.38,621.885 1650.05,608.246 1652.72,594.753 1655.39,581.417 1658.06,568.254 1660.74,555.275 1663.41,542.495 1666.08,529.926 1668.75,517.583 1671.42,505.477 
  1674.1,493.622 1676.77,482.031 1679.44,470.716 1682.11,459.689 1684.78,448.964 1687.45,438.552 1690.13,428.464 1692.8,418.713 1695.47,409.308 1698.14,400.262 
  1700.81,391.584 1703.49,383.284 1706.16,375.373 1708.83,367.859 1711.5,360.752 1714.17,354.059 1716.85,347.79 1719.52,341.95 1722.19,336.548 1724.86,331.59 
  1727.53,327.081 1730.21,323.028 1732.88,319.434 1735.55,316.306 1738.22,313.645 1740.89,311.456 1743.56,309.742 1746.24,308.504 1748.91,307.743 1751.58,307.462 
  1754.25,307.659 1756.92,308.336 1759.6,309.49 1762.27,311.122 1764.94,313.227 1767.61,315.805 1770.28,318.852 1772.96,322.364 1775.63,326.338 1778.3,330.767 
  1780.97,335.647 1783.64,340.972 1786.31,346.735 1788.99,352.93 1791.66,359.549 1794.33,366.584 1797,374.027 1799.67,381.869 1802.35,390.101 1805.02,398.714 
  1807.69,407.696 1810.36,417.039 1813.03,426.73 1815.71,436.76 1818.38,447.116 1821.05,457.787 1823.72,468.762 1826.39,480.027 1829.07,491.571 1831.74,503.38 
  1834.41,515.443 1837.08,527.746 1839.75,540.276 1842.42,553.02 1845.1,565.965 1847.77,579.097 1850.44,592.403 1853.11,605.87 1855.78,619.485 1858.46,633.233 
  1861.13,647.102 1863.8,661.079 1866.47,675.149 1869.14,689.302 1871.82,703.522 1874.49,717.799 1877.16,732.118 1879.83,746.468 1882.5,760.837 1885.17,775.212 
  1887.85,789.582 1890.52,803.935 1893.19,818.26 1895.86,832.546 1898.53,846.782 1901.21,860.958 1903.88,875.064 1906.55,889.09 1909.22,903.026 1911.89,916.863 
  1914.57,930.593 1917.24,944.208 1919.91,957.698 1922.58,971.056 1925.25,984.275 1927.93,997.347 1930.6,1010.27 1933.27,1023.03 1935.94,1035.62 1938.61,1048.05 
  1941.28,1060.3 1943.96,1072.36 1946.63,1084.24 1949.3,1095.94 1951.97,1107.44 1954.64,1118.74 1957.32,1129.84 1959.99,1140.74 1962.66,1151.43 1965.33,1161.92 
  1968,1172.2 1970.68,1182.26 1973.35,1192.12 1976.02,1201.76 1978.69,1211.19 1981.36,1220.4 1984.03,1229.4 1986.71,1238.19 1989.38,1246.76 1992.05,1255.12 
  1994.72,1263.27 1997.39,1271.21 2000.07,1278.94 2002.74,1286.47 2005.41,1293.78 2008.08,1300.9 2010.75,1307.81 2013.43,1314.52 2016.1,1321.04 2018.77,1327.36 
  2021.44,1333.48 2024.11,1339.42 2026.79,1345.18 2029.46,1350.75 2032.13,1356.14 2034.8,1361.35 2037.47,1366.39 2040.14,1371.26 2042.82,1375.96 2045.49,1380.5 
  2048.16,1384.88 2050.83,1389.1 2053.5,1393.17 2056.18,1397.1 2058.85,1400.87 2061.52,1404.51 2064.19,1408 2066.86,1411.36 2069.54,1414.6 2072.21,1417.7 
  2074.88,1420.68 2077.55,1423.54 2080.22,1426.28 2082.89,1428.91 2085.57,1431.43 2088.24,1433.85 2090.91,1436.16 2093.58,1438.37 2096.25,1440.49 2098.93,1442.51 
  2101.6,1444.44 2104.27,1446.29 2106.94,1448.05 2109.61,1449.73 2112.29,1451.34 2114.96,1452.87 2117.63,1454.32 2120.3,1455.71 2122.97,1457.03 2125.65,1458.29 
  2128.32,1459.49 2130.99,1460.63 2133.66,1461.71 2136.33,1462.73 2139,1463.71 2141.68,1464.64 2144.35,1465.51 2147.02,1466.34 2149.69,1467.13 2152.36,1467.88 
  2155.04,1468.59 2157.71,1469.26 2160.38,1469.89 2163.05,1470.49 2165.72,1471.06 2168.4,1471.59 2171.07,1472.1 2173.74,1472.57 2176.41,1473.02 2179.08,1473.45 
  2181.75,1473.85 2184.43,1474.22 2187.1,1474.58 2189.77,1474.91 2192.44,1475.22 2195.11,1475.52 2197.79,1475.8 2200.46,1476.06 2203.13,1476.3 2205.8,1476.53 
  2208.47,1476.75 2211.15,1476.95 2213.82,1477.14 2216.49,1477.32 2219.16,1477.49 2221.83,1477.64 2224.51,1477.79 2227.18,1477.93 2229.85,1478.05 2232.52,1478.17 
  2235.19,1478.28 2237.86,1478.39 2240.54,1478.49 2243.21,1478.58 2245.88,1478.66 2248.55,1478.74 2251.22,1478.81 2253.9,1478.88 2256.57,1478.95 2259.24,1479.01 
  2261.91,1479.06 2264.58,1479.11 2267.26,1479.16 2269.93,1479.2 2272.6,1479.25 2275.27,1479.28 2277.94,1479.32 2280.61,1479.35 2283.29,1479.38 2285.96,1479.41 
  2288.63,1479.44 
  "/>
<polygon clip-path="url(#clip7000)" points="
1893.61,388.432 2280.76,388.432 2280.76,146.512 1893.61,146.512 
  " fill="#ffffff" fill-rule="evenodd" fill-opacity="1"/>
<polyline clip-path="url(#clip7000)" style="stroke:#000000; stroke-width:4; stroke-opacity:1; fill:none" points="
  1893.61,388.432 2280.76,388.432 2280.76,146.512 1893.61,146.512 1893.61,388.432 
  "/>
<polyline clip-path="url(#clip7000)" style="stroke:#009af9; stroke-width:4; stroke-opacity:1; fill:none" points="
  1917.61,206.992 2061.61,206.992 
  "/>
<g clip-path="url(#clip7000)">
<text style="fill:#000000; fill-opacity:1; font-family:Arial,Helvetica Neue,Helvetica,sans-serif; font-size:48px; text-anchor:start;" transform="rotate(0, 2085.61, 224.492)" x="2085.61" y="224.492">Data</text>
</g>
<polyline clip-path="url(#clip7000)" style="stroke:#e26f46; stroke-width:4; stroke-opacity:1; fill:none" points="
  1917.61,267.472 2061.61,267.472 
  "/>
<g clip-path="url(#clip7000)">
<text style="fill:#000000; fill-opacity:1; font-family:Arial,Helvetica Neue,Helvetica,sans-serif; font-size:48px; text-anchor:start;" transform="rotate(0, 2085.61, 284.972)" x="2085.61" y="284.972">Truth</text>
</g>
<polyline clip-path="url(#clip7000)" style="stroke:#3da44d; stroke-width:4; stroke-opacity:1; fill:none" points="
  1917.61,327.952 2061.61,327.952 
  "/>
<g clip-path="url(#clip7000)">
<text style="fill:#000000; fill-opacity:1; font-family:Arial,Helvetica Neue,Helvetica,sans-serif; font-size:48px; text-anchor:start;" transform="rotate(0, 2085.61, 345.452)" x="2085.61" y="345.452">Best fit</text>
</g>
</svg>
