<?xml version="1.0" encoding="utf-8"?>
<svg xmlns="http://www.w3.org/2000/svg" xmlns:xlink="http://www.w3.org/1999/xlink" width="600" height="400" viewBox="0 0 2400 1600">
<defs>
  <clipPath id="clip6100">
    <rect x="0" y="0" width="2400" height="1600"/>
  </clipPath>
</defs>
<polygon clip-path="url(#clip6100)" points="
0,1600 2400,1600 2400,0 0,0 
  " fill="#ffffff" fill-rule="evenodd" fill-opacity="1"/>
<defs>
  <clipPath id="clip6101">
    <rect x="480" y="0" width="1681" height="1600"/>
  </clipPath>
</defs>
<polygon clip-path="url(#clip6100)" points="
102.74,1505.26 2352.76,1505.26 2352.76,62.9921 102.74,62.9921 
  " fill="#ffffff" fill-rule="evenodd" fill-opacity="1"/>
<defs>
  <clipPath id="clip6102">
    <rect x="102" y="62" width="2251" height="1443"/>
  </clipPath>
</defs>
<polyline clip-path="url(#clip6102)" style="stroke:#000000; stroke-width:2; stroke-opacity:0.1; fill:none" points="
  601.837,1505.26 601.837,62.9921 
  "/>
<polyline clip-path="url(#clip6102)" style="stroke:#000000; stroke-width:2; stroke-opacity:0.1; fill:none" points="
  1146.11,1505.26 1146.11,62.9921 
  "/>
<polyline clip-path="url(#clip6102)" style="stroke:#000000; stroke-width:2; stroke-opacity:0.1; fill:none" points="
  1690.38,1505.26 1690.38,62.9921 
  "/>
<polyline clip-path="url(#clip6102)" style="stroke:#000000; stroke-width:2; stroke-opacity:0.1; fill:none" points="
  2234.65,1505.26 2234.65,62.9921 
  "/>
<polyline clip-path="url(#clip6102)" style="stroke:#000000; stroke-width:2; stroke-opacity:0.1; fill:none" points="
  102.74,1464.44 2352.76,1464.44 
  "/>
<polyline clip-path="url(#clip6102)" style="stroke:#000000; stroke-width:2; stroke-opacity:0.1; fill:none" points="
  102.74,1043.68 2352.76,1043.68 
  "/>
<polyline clip-path="url(#clip6102)" style="stroke:#000000; stroke-width:2; stroke-opacity:0.1; fill:none" points="
  102.74,622.922 2352.76,622.922 
  "/>
<polyline clip-path="url(#clip6102)" style="stroke:#000000; stroke-width:2; stroke-opacity:0.1; fill:none" points="
  102.74,202.163 2352.76,202.163 
  "/>
<polyline clip-path="url(#clip6100)" style="stroke:#000000; stroke-width:4; stroke-opacity:1; fill:none" points="
  102.74,1505.26 2352.76,1505.26 
  "/>
<polyline clip-path="url(#clip6100)" style="stroke:#000000; stroke-width:4; stroke-opacity:1; fill:none" points="
  102.74,1505.26 102.74,62.9921 
  "/>
<polyline clip-path="url(#clip6100)" style="stroke:#000000; stroke-width:4; stroke-opacity:1; fill:none" points="
  601.837,1505.26 601.837,1483.63 
  "/>
<polyline clip-path="url(#clip6100)" style="stroke:#000000; stroke-width:4; stroke-opacity:1; fill:none" points="
  1146.11,1505.26 1146.11,1483.63 
  "/>
<polyline clip-path="url(#clip6100)" style="stroke:#000000; stroke-width:4; stroke-opacity:1; fill:none" points="
  1690.38,1505.26 1690.38,1483.63 
  "/>
<polyline clip-path="url(#clip6100)" style="stroke:#000000; stroke-width:4; stroke-opacity:1; fill:none" points="
  2234.65,1505.26 2234.65,1483.63 
  "/>
<polyline clip-path="url(#clip6100)" style="stroke:#000000; stroke-width:4; stroke-opacity:1; fill:none" points="
  102.74,1464.44 136.49,1464.44 
  "/>
<polyline clip-path="url(#clip6100)" style="stroke:#000000; stroke-width:4; stroke-opacity:1; fill:none" points="
  102.74,1043.68 136.49,1043.68 
  "/>
<polyline clip-path="url(#clip6100)" style="stroke:#000000; stroke-width:4; stroke-opacity:1; fill:none" points="
  102.74,622.922 136.49,622.922 
  "/>
<polyline clip-path="url(#clip6100)" style="stroke:#000000; stroke-width:4; stroke-opacity:1; fill:none" points="
  102.74,202.163 136.49,202.163 
  "/>
<g clip-path="url(#clip6100)">
<text style="fill:#000000; fill-opacity:1; font-family:Arial,Helvetica Neue,Helvetica,sans-serif; font-size:48px; text-anchor:middle;" transform="rotate(0, 601.837, 1559.26)" x="601.837" y="1559.26">-1.10</text>
</g>
<g clip-path="url(#clip6100)">
<text style="fill:#000000; fill-opacity:1; font-family:Arial,Helvetica Neue,Helvetica,sans-serif; font-size:48px; text-anchor:middle;" transform="rotate(0, 1146.11, 1559.26)" x="1146.11" y="1559.26">-1.05</text>
</g>
<g clip-path="url(#clip6100)">
<text style="fill:#000000; fill-opacity:1; font-family:Arial,Helvetica Neue,Helvetica,sans-serif; font-size:48px; text-anchor:middle;" transform="rotate(0, 1690.38, 1559.26)" x="1690.38" y="1559.26">-1.00</text>
</g>
<g clip-path="url(#clip6100)">
<text style="fill:#000000; fill-opacity:1; font-family:Arial,Helvetica Neue,Helvetica,sans-serif; font-size:48px; text-anchor:middle;" transform="rotate(0, 2234.65, 1559.26)" x="2234.65" y="1559.26">-0.95</text>
</g>
<g clip-path="url(#clip6100)">
<text style="fill:#000000; fill-opacity:1; font-family:Arial,Helvetica Neue,Helvetica,sans-serif; font-size:48px; text-anchor:end;" transform="rotate(0, 78.7402, 1481.94)" x="78.7402" y="1481.94">0</text>
</g>
<g clip-path="url(#clip6100)">
<text style="fill:#000000; fill-opacity:1; font-family:Arial,Helvetica Neue,Helvetica,sans-serif; font-size:48px; text-anchor:end;" transform="rotate(0, 78.7402, 1061.18)" x="78.7402" y="1061.18">5</text>
</g>
<g clip-path="url(#clip6100)">
<text style="fill:#000000; fill-opacity:1; font-family:Arial,Helvetica Neue,Helvetica,sans-serif; font-size:48px; text-anchor:end;" transform="rotate(0, 78.7402, 640.422)" x="78.7402" y="640.422">10</text>
</g>
<g clip-path="url(#clip6100)">
<text style="fill:#000000; fill-opacity:1; font-family:Arial,Helvetica Neue,Helvetica,sans-serif; font-size:48px; text-anchor:end;" transform="rotate(0, 78.7402, 219.663)" x="78.7402" y="219.663">15</text>
</g>
<g clip-path="url(#clip6100)">
<text style="fill:#000000; fill-opacity:1; font-family:Arial,Helvetica Neue,Helvetica,sans-serif; font-size:84px; text-anchor:middle;" transform="rotate(0, 1227.75, 73.2)" x="1227.75" y="73.2">Marginalized Distribution for mu_1</text>
</g>
<g clip-path="url(#clip6100)">
<text style="fill:#000000; fill-opacity:1; font-family:Arial,Helvetica Neue,Helvetica,sans-serif; font-size:66px; text-anchor:middle;" transform="rotate(0, 1227.75, 1639.12)" x="1227.75" y="1639.12">mu_1</text>
</g>
<g clip-path="url(#clip6100)">
<text style="fill:#000000; fill-opacity:1; font-family:Arial,Helvetica Neue,Helvetica,sans-serif; font-size:66px; text-anchor:middle;" transform="rotate(-90, -10.3466, 784.126)" x="-10.3466" y="784.126">P(mu_1)</text>
</g>
<polygon clip-path="url(#clip6102)" points="
166.42,1464.44 220.847,1464.44 220.847,1464.44 275.274,1464.44 275.274,1464.44 329.701,1464.44 329.701,1464.44 384.128,1464.44 384.128,1464.44 438.555,1464.44 
  438.555,1464.44 492.982,1464.44 492.982,1447.56 547.409,1447.56 547.409,1441.58 601.837,1441.58 601.837,1408.59 656.264,1408.59 656.264,1406 710.691,1406 
  710.691,1348.85 765.118,1348.85 765.118,1268.97 819.545,1268.97 819.545,1162.08 873.972,1162.08 873.972,1106.62 928.399,1106.62 928.399,968.433 982.826,968.433 
  982.826,735.819 1037.25,735.819 1037.25,616.85 1091.68,616.85 1091.68,486.841 1146.11,486.841 1146.11,296.309 1200.53,296.309 1200.53,144.48 1254.96,144.48 
  1254.96,192.795 1309.39,192.795 1309.39,158.377 1363.82,158.377 1363.82,143.441 1418.24,143.441 1418.24,245.656 1472.67,245.656 1472.67,345.533 1527.1,345.533 
  1527.1,469.178 1581.52,469.178 1581.52,647.372 1635.95,647.372 1635.95,851.412 1690.38,851.412 1690.38,967.394 1744.81,967.394 1744.81,1127.66 1799.23,1127.66 
  1799.23,1226.63 1853.66,1226.63 1853.66,1301.7 1908.09,1301.7 1908.09,1371.32 1962.51,1371.32 1962.51,1386.38 2016.94,1386.38 2016.94,1422.49 2071.37,1422.49 
  2071.37,1440.93 2125.79,1440.93 2125.79,1464.44 2180.22,1464.44 2180.22,1464.44 2234.65,1464.44 2234.65,1464.44 2289.08,1464.44 2289.08,1464.44 2289.08,1464.44 
  2289.08,1464.44 2234.65,1464.44 2234.65,1464.44 2180.22,1464.44 2180.22,1464.44 2125.79,1464.44 2125.79,1464.44 2071.37,1464.44 2071.37,1464.44 2016.94,1464.44 
  2016.94,1464.44 1962.51,1464.44 1962.51,1464.44 1908.09,1464.44 1908.09,1464.44 1853.66,1464.44 1853.66,1464.44 1799.23,1464.44 1799.23,1464.44 1744.81,1464.44 
  1744.81,1464.44 1690.38,1464.44 1690.38,1464.44 1635.95,1464.44 1635.95,1464.44 1581.52,1464.44 1581.52,1464.44 1527.1,1464.44 1527.1,1464.44 1472.67,1464.44 
  1472.67,1464.44 1418.24,1464.44 1418.24,1464.44 1363.82,1464.44 1363.82,1464.44 1309.39,1464.44 1309.39,1464.44 1254.96,1464.44 1254.96,1464.44 1200.53,1464.44 
  1200.53,1464.44 1146.11,1464.44 1146.11,1464.44 1091.68,1464.44 1091.68,1464.44 1037.25,1464.44 1037.25,1464.44 982.826,1464.44 982.826,1464.44 928.399,1464.44 
  928.399,1464.44 873.972,1464.44 873.972,1464.44 819.545,1464.44 819.545,1464.44 765.118,1464.44 765.118,1464.44 710.691,1464.44 710.691,1464.44 656.264,1464.44 
  656.264,1464.44 601.837,1464.44 601.837,1464.44 547.409,1464.44 547.409,1464.44 492.982,1464.44 492.982,1464.44 438.555,1464.44 438.555,1464.44 384.128,1464.44 
  384.128,1464.44 329.701,1464.44 329.701,1464.44 275.274,1464.44 275.274,1464.44 220.847,1464.44 220.847,1464.44 166.42,1464.44 
  " fill="#ff0000" fill-rule="evenodd" fill-opacity="1"/>
<polyline clip-path="url(#clip6102)" style="stroke:#009af9; stroke-width:0; stroke-opacity:1; fill:none" points="
  166.42,1464.44 220.847,1464.44 275.274,1464.44 329.701,1464.44 384.128,1464.44 438.555,1464.44 
  492.982,1464.44 492.982,1447.56 547.409,1447.56 547.409,1441.58 601.837,1441.58 601.837,1408.59 656.264,1408.59 656.264,1406 710.691,1406 
  710.691,1348.85 765.118,1348.85 765.118,1268.97 819.545,1268.97 819.545,1162.08 873.972,1162.08 873.972,1106.62 928.399,1106.62 928.399,968.433 982.826,968.433 
  982.826,735.819 1037.25,735.819 1037.25,616.85 1091.68,616.85 1091.68,486.841 1146.11,486.841 1146.11,296.309 1200.53,296.309 1200.53,144.48 1254.96,144.48 
  1254.96,192.795 1309.39,192.795 1309.39,158.377 1363.82,158.377 1363.82,143.441 1418.24,143.441 1418.24,245.656 1472.67,245.656 1472.67,345.533 1527.1,345.533 
  1527.1,469.178 1581.52,469.178 1581.52,647.372 1635.95,647.372 1635.95,851.412 1690.38,851.412 1690.38,967.394 1744.81,967.394 1744.81,1127.66 1799.23,1127.66 
  1799.23,1226.63 1853.66,1226.63 1853.66,1301.7 1908.09,1301.7 1908.09,1371.32 1962.51,1371.32 1962.51,1386.38 2016.94,1386.38 2016.94,1422.49 2071.37,1422.49 
  2071.37,1440.93 2125.79,1440.93 2125.79,1464.44 2180.22,1464.44 2234.65,1464.44 2289.08,1464.44 
  "/>
<polygon clip-path="url(#clip6102)" points="
166.42,1464.44 220.847,1464.44 220.847,1464.44 275.274,1464.44 275.274,1464.44 329.701,1464.44 329.701,1464.44 384.128,1464.44 384.128,1464.44 438.555,1464.44 
  438.555,1464.44 492.982,1464.44 492.982,1464.44 547.409,1464.44 547.409,1464.44 601.837,1464.44 601.837,1464.44 656.264,1464.44 656.264,1464.44 710.691,1464.44 
  710.691,1464.44 765.118,1464.44 765.118,1268.97 819.545,1268.97 819.545,1162.08 873.972,1162.08 873.972,1106.62 928.399,1106.62 928.399,968.433 982.826,968.433 
  982.826,735.819 1037.25,735.819 1037.25,616.85 1091.68,616.85 1091.68,486.841 1146.11,486.841 1146.11,296.309 1200.53,296.309 1200.53,144.48 1254.96,144.48 
  1254.96,192.795 1309.39,192.795 1309.39,158.377 1363.82,158.377 1363.82,143.441 1418.24,143.441 1418.24,245.656 1472.67,245.656 1472.67,345.533 1527.1,345.533 
  1527.1,469.178 1581.52,469.178 1581.52,647.372 1635.95,647.372 1635.95,851.412 1690.38,851.412 1690.38,967.394 1744.81,967.394 1744.81,1127.66 1799.23,1127.66 
  1799.23,1226.63 1853.66,1226.63 1853.66,1464.44 1908.09,1464.44 1908.09,1464.44 1962.51,1464.44 1962.51,1464.44 2016.94,1464.44 2016.94,1464.44 2071.37,1464.44 
  2071.37,1464.44 2125.79,1464.44 2125.79,1464.44 2180.22,1464.44 2180.22,1464.44 2234.65,1464.44 2234.65,1464.44 2289.08,1464.44 2289.08,1464.44 2289.08,1464.44 
  2289.08,1464.44 2234.65,1464.44 2234.65,1464.44 2180.22,1464.44 2180.22,1464.44 2125.79,1464.44 2125.79,1464.44 2071.37,1464.44 2071.37,1464.44 2016.94,1464.44 
  2016.94,1464.44 1962.51,1464.44 1962.51,1464.44 1908.09,1464.44 1908.09,1464.44 1853.66,1464.44 1853.66,1464.44 1799.23,1464.44 1799.23,1464.44 1744.81,1464.44 
  1744.81,1464.44 1690.38,1464.44 1690.38,1464.44 1635.95,1464.44 1635.95,1464.44 1581.52,1464.44 1581.52,1464.44 1527.1,1464.44 1527.1,1464.44 1472.67,1464.44 
  1472.67,1464.44 1418.24,1464.44 1418.24,1464.44 1363.82,1464.44 1363.82,1464.44 1309.39,1464.44 1309.39,1464.44 1254.96,1464.44 1254.96,1464.44 1200.53,1464.44 
  1200.53,1464.44 1146.11,1464.44 1146.11,1464.44 1091.68,1464.44 1091.68,1464.44 1037.25,1464.44 1037.25,1464.44 982.826,1464.44 982.826,1464.44 928.399,1464.44 
  928.399,1464.44 873.972,1464.44 873.972,1464.44 819.545,1464.44 819.545,1464.44 765.118,1464.44 765.118,1464.44 710.691,1464.44 710.691,1464.44 656.264,1464.44 
  656.264,1464.44 601.837,1464.44 601.837,1464.44 547.409,1464.44 547.409,1464.44 492.982,1464.44 492.982,1464.44 438.555,1464.44 438.555,1464.44 384.128,1464.44 
  384.128,1464.44 329.701,1464.44 329.701,1464.44 275.274,1464.44 275.274,1464.44 220.847,1464.44 220.847,1464.44 166.42,1464.44 
  " fill="#ffff00" fill-rule="evenodd" fill-opacity="1"/>
<polyline clip-path="url(#clip6102)" style="stroke:#e26f46; stroke-width:0; stroke-opacity:1; fill:none" points="
  166.42,1464.44 220.847,1464.44 275.274,1464.44 329.701,1464.44 384.128,1464.44 438.555,1464.44 
  492.982,1464.44 547.409,1464.44 601.837,1464.44 656.264,1464.44 710.691,1464.44 
  765.118,1464.44 765.118,1268.97 819.545,1268.97 819.545,1162.08 873.972,1162.08 873.972,1106.62 928.399,1106.62 928.399,968.433 982.826,968.433 
  982.826,735.819 1037.25,735.819 1037.25,616.85 1091.68,616.85 1091.68,486.841 1146.11,486.841 1146.11,296.309 1200.53,296.309 1200.53,144.48 1254.96,144.48 
  1254.96,192.795 1309.39,192.795 1309.39,158.377 1363.82,158.377 1363.82,143.441 1418.24,143.441 1418.24,245.656 1472.67,245.656 1472.67,345.533 1527.1,345.533 
  1527.1,469.178 1581.52,469.178 1581.52,647.372 1635.95,647.372 1635.95,851.412 1690.38,851.412 1690.38,967.394 1744.81,967.394 1744.81,1127.66 1799.23,1127.66 
  1799.23,1226.63 1853.66,1226.63 1853.66,1464.44 1908.09,1464.44 1962.51,1464.44 2016.94,1464.44 2071.37,1464.44 
  2125.79,1464.44 2180.22,1464.44 2234.65,1464.44 2289.08,1464.44 
  "/>
<polygon clip-path="url(#clip6102)" points="
166.42,1464.44 220.847,1464.44 220.847,1464.44 275.274,1464.44 275.274,1464.44 329.701,1464.44 329.701,1464.44 384.128,1464.44 384.128,1464.44 438.555,1464.44 
  438.555,1464.44 492.982,1464.44 492.982,1464.44 547.409,1464.44 547.409,1464.44 601.837,1464.44 601.837,1464.44 656.264,1464.44 656.264,1464.44 710.691,1464.44 
  710.691,1464.44 765.118,1464.44 765.118,1464.44 819.545,1464.44 819.545,1464.44 873.972,1464.44 873.972,1464.44 928.399,1464.44 928.399,1464.44 982.826,1464.44 
  982.826,1464.44 1037.25,1464.44 1037.25,616.85 1091.68,616.85 1091.68,486.841 1146.11,486.841 1146.11,296.309 1200.53,296.309 1200.53,144.48 1254.96,144.48 
  1254.96,192.795 1309.39,192.795 1309.39,158.377 1363.82,158.377 1363.82,143.441 1418.24,143.441 1418.24,245.656 1472.67,245.656 1472.67,345.533 1527.1,345.533 
  1527.1,469.178 1581.52,469.178 1581.52,1464.44 1635.95,1464.44 1635.95,1464.44 1690.38,1464.44 1690.38,1464.44 1744.81,1464.44 1744.81,1464.44 1799.23,1464.44 
  1799.23,1464.44 1853.66,1464.44 1853.66,1464.44 1908.09,1464.44 1908.09,1464.44 1962.51,1464.44 1962.51,1464.44 2016.94,1464.44 2016.94,1464.44 2071.37,1464.44 
  2071.37,1464.44 2125.79,1464.44 2125.79,1464.44 2180.22,1464.44 2180.22,1464.44 2234.65,1464.44 2234.65,1464.44 2289.08,1464.44 2289.08,1464.44 2289.08,1464.44 
  2289.08,1464.44 2234.65,1464.44 2234.65,1464.44 2180.22,1464.44 2180.22,1464.44 2125.79,1464.44 2125.79,1464.44 2071.37,1464.44 2071.37,1464.44 2016.94,1464.44 
  2016.94,1464.44 1962.51,1464.44 1962.51,1464.44 1908.09,1464.44 1908.09,1464.44 1853.66,1464.44 1853.66,1464.44 1799.23,1464.44 1799.23,1464.44 1744.81,1464.44 
  1744.81,1464.44 1690.38,1464.44 1690.38,1464.44 1635.95,1464.44 1635.95,1464.44 1581.52,1464.44 1581.52,1464.44 1527.1,1464.44 1527.1,1464.44 1472.67,1464.44 
  1472.67,1464.44 1418.24,1464.44 1418.24,1464.44 1363.82,1464.44 1363.82,1464.44 1309.39,1464.44 1309.39,1464.44 1254.96,1464.44 1254.96,1464.44 1200.53,1464.44 
  1200.53,1464.44 1146.11,1464.44 1146.11,1464.44 1091.68,1464.44 1091.68,1464.44 1037.25,1464.44 1037.25,1464.44 982.826,1464.44 982.826,1464.44 928.399,1464.44 
  928.399,1464.44 873.972,1464.44 873.972,1464.44 819.545,1464.44 819.545,1464.44 765.118,1464.44 765.118,1464.44 710.691,1464.44 710.691,1464.44 656.264,1464.44 
  656.264,1464.44 601.837,1464.44 601.837,1464.44 547.409,1464.44 547.409,1464.44 492.982,1464.44 492.982,1464.44 438.555,1464.44 438.555,1464.44 384.128,1464.44 
  384.128,1464.44 329.701,1464.44 329.701,1464.44 275.274,1464.44 275.274,1464.44 220.847,1464.44 220.847,1464.44 166.42,1464.44 
  " fill="#76ee00" fill-rule="evenodd" fill-opacity="1"/>
<polyline clip-path="url(#clip6102)" style="stroke:#3da44d; stroke-width:0; stroke-opacity:1; fill:none" points="
  166.42,1464.44 220.847,1464.44 275.274,1464.44 329.701,1464.44 384.128,1464.44 438.555,1464.44 
  492.982,1464.44 547.409,1464.44 601.837,1464.44 656.264,1464.44 710.691,1464.44 
  765.118,1464.44 819.545,1464.44 873.972,1464.44 928.399,1464.44 982.826,1464.44 
  1037.25,1464.44 1037.25,616.85 1091.68,616.85 1091.68,486.841 1146.11,486.841 1146.11,296.309 1200.53,296.309 1200.53,144.48 1254.96,144.48 
  1254.96,192.795 1309.39,192.795 1309.39,158.377 1363.82,158.377 1363.82,143.441 1418.24,143.441 1418.24,245.656 1472.67,245.656 1472.67,345.533 1527.1,345.533 
  1527.1,469.178 1581.52,469.178 1581.52,1464.44 1635.95,1464.44 1690.38,1464.44 1744.81,1464.44 1799.23,1464.44 
  1853.66,1464.44 1908.09,1464.44 1962.51,1464.44 2016.94,1464.44 2071.37,1464.44 
  2125.79,1464.44 2180.22,1464.44 2234.65,1464.44 2289.08,1464.44 
  "/>
<polyline clip-path="url(#clip6102)" style="stroke:#000000; stroke-width:2.8; stroke-opacity:1; fill:none" points="
  166.42,1464.18 220.847,1464.18 220.847,1463.79 275.274,1463.79 275.274,1461.84 329.701,1461.84 329.701,1459.12 384.128,1459.12 384.128,1461.84 438.555,1461.84 
  438.555,1458.08 492.982,1458.08 492.982,1447.56 547.409,1447.56 547.409,1441.58 601.837,1441.58 601.837,1408.59 656.264,1408.59 656.264,1406 710.691,1406 
  710.691,1348.85 765.118,1348.85 765.118,1268.97 819.545,1268.97 819.545,1162.08 873.972,1162.08 873.972,1106.62 928.399,1106.62 928.399,968.433 982.826,968.433 
  982.826,735.819 1037.25,735.819 1037.25,616.85 1091.68,616.85 1091.68,486.841 1146.11,486.841 1146.11,296.309 1200.53,296.309 1200.53,144.48 1254.96,144.48 
  1254.96,192.795 1309.39,192.795 1309.39,158.377 1363.82,158.377 1363.82,143.441 1418.24,143.441 1418.24,245.656 1472.67,245.656 1472.67,345.533 1527.1,345.533 
  1527.1,469.178 1581.52,469.178 1581.52,647.372 1635.95,647.372 1635.95,851.412 1690.38,851.412 1690.38,967.394 1744.81,967.394 1744.81,1127.66 1799.23,1127.66 
  1799.23,1226.63 1853.66,1226.63 1853.66,1301.7 1908.09,1301.7 1908.09,1371.32 1962.51,1371.32 1962.51,1386.38 2016.94,1386.38 2016.94,1422.49 2071.37,1422.49 
  2071.37,1440.93 2125.79,1440.93 2125.79,1455.22 2180.22,1455.22 2180.22,1458.99 2234.65,1458.99 2234.65,1462.62 2289.08,1462.62 2289.08,1464.31 
  "/>
<polygon clip-path="url(#clip6102)" points="
1059.74,1464.44 1596.59,1464.44 1596.59,103.811 1059.74,103.811 1059.74,1464.44 
  " fill="#808080" fill-rule="evenodd" fill-opacity="0.5"/>
<polyline clip-path="url(#clip6102)" style="stroke:#000000; stroke-width:0; stroke-opacity:1; fill:none" points="
  1059.74,1464.44 1596.59,1464.44 1596.59,103.811 1059.74,103.811 1059.74,1464.44 
  "/>
<polyline clip-path="url(#clip6102)" style="stroke:#696969; stroke-width:4; stroke-opacity:1; fill:none" points="
  1328.16,1464.44 1328.16,103.811 
  "/>
<polyline clip-path="url(#clip6102)" style="stroke:#000000; stroke-width:4; stroke-opacity:1; fill:none" stroke-dasharray="16, 10" points="
  1312.74,1464.44 1312.74,103.811 
  "/>
<polyline clip-path="url(#clip6102)" style="stroke:#000000; stroke-width:4; stroke-opacity:1; fill:none" stroke-dasharray="2, 4" points="
  1391.03,1464.44 1391.03,103.811 
  "/>
<polygon clip-path="url(#clip6100)" points="
1463.01,630.352 2280.76,630.352 2280.76,146.512 1463.01,146.512 
  " fill="#ffffff" fill-rule="evenodd" fill-opacity="1"/>
<polyline clip-path="url(#clip6100)" style="stroke:#000000; stroke-width:4; stroke-opacity:1; fill:none" points="
  1463.01,630.352 2280.76,630.352 2280.76,146.512 1463.01,146.512 1463.01,630.352 
  "/>
<polygon clip-path="url(#clip6100)" points="
1487.01,231.184 1631.01,231.184 1631.01,182.8 1487.01,182.8 1487.01,231.184 
  " fill="#ff0000" fill-rule="evenodd" fill-opacity="1"/>
<polyline clip-path="url(#clip6100)" style="stroke:#009af9; stroke-width:0; stroke-opacity:1; fill:none" points="
  1487.01,182.8 1631.01,182.8 
  "/>
<g clip-path="url(#clip6100)">
<text style="fill:#000000; fill-opacity:1; font-family:Arial,Helvetica Neue,Helvetica,sans-serif; font-size:48px; text-anchor:start;" transform="rotate(0, 1655.01, 224.492)" x="1655.01" y="224.492">smallest 99.80% interval(s)</text>
</g>
<polygon clip-path="url(#clip6100)" points="
1487.01,291.664 1631.01,291.664 1631.01,243.28 1487.01,243.28 1487.01,291.664 
  " fill="#ffff00" fill-rule="evenodd" fill-opacity="1"/>
<polyline clip-path="url(#clip6100)" style="stroke:#e26f46; stroke-width:0; stroke-opacity:1; fill:none" points="
  1487.01,243.28 1631.01,243.28 
  "/>
<g clip-path="url(#clip6100)">
<text style="fill:#000000; fill-opacity:1; font-family:Arial,Helvetica Neue,Helvetica,sans-serif; font-size:48px; text-anchor:start;" transform="rotate(0, 1655.01, 284.972)" x="1655.01" y="284.972">smallest 95.82% interval(s)</text>
</g>
<polygon clip-path="url(#clip6100)" points="
1487.01,352.144 1631.01,352.144 1631.01,303.76 1487.01,303.76 1487.01,352.144 
  " fill="#76ee00" fill-rule="evenodd" fill-opacity="1"/>
<polyline clip-path="url(#clip6100)" style="stroke:#3da44d; stroke-width:0; stroke-opacity:1; fill:none" points="
  1487.01,303.76 1631.01,303.76 
  "/>
<g clip-path="url(#clip6100)">
<text style="fill:#000000; fill-opacity:1; font-family:Arial,Helvetica Neue,Helvetica,sans-serif; font-size:48px; text-anchor:start;" transform="rotate(0, 1655.01, 345.452)" x="1655.01" y="345.452">smallest 68.60% interval(s)</text>
</g>
<polygon clip-path="url(#clip6100)" points="
1487.01,412.624 1631.01,412.624 1631.01,364.24 1487.01,364.24 1487.01,412.624 
  " fill="#808080" fill-rule="evenodd" fill-opacity="0.5"/>
<polyline clip-path="url(#clip6100)" style="stroke:#000000; stroke-width:0; stroke-opacity:1; fill:none" points="
  1487.01,412.624 1631.01,412.624 1631.01,364.24 1487.01,364.24 1487.01,412.624 
  "/>
<g clip-path="url(#clip6100)">
<text style="fill:#000000; fill-opacity:1; font-family:Arial,Helvetica Neue,Helvetica,sans-serif; font-size:48px; text-anchor:start;" transform="rotate(0, 1655.01, 405.932)" x="1655.01" y="405.932">std. dev.</text>
</g>
<polyline clip-path="url(#clip6100)" style="stroke:#696969; stroke-width:4; stroke-opacity:1; fill:none" points="
  1487.01,448.912 1631.01,448.912 
  "/>
<g clip-path="url(#clip6100)">
<text style="fill:#000000; fill-opacity:1; font-family:Arial,Helvetica Neue,Helvetica,sans-serif; font-size:48px; text-anchor:start;" transform="rotate(0, 1655.01, 466.412)" x="1655.01" y="466.412">mean</text>
</g>
<polyline clip-path="url(#clip6100)" style="stroke:#000000; stroke-width:4; stroke-opacity:1; fill:none" stroke-dasharray="16, 10" points="
  1487.01,509.392 1631.01,509.392 
  "/>
<g clip-path="url(#clip6100)">
<text style="fill:#000000; fill-opacity:1; font-family:Arial,Helvetica Neue,Helvetica,sans-serif; font-size:48px; text-anchor:start;" transform="rotate(0, 1655.01, 526.892)" x="1655.01" y="526.892">global mode</text>
</g>
<polyline clip-path="url(#clip6100)" style="stroke:#000000; stroke-width:4; stroke-opacity:1; fill:none" stroke-dasharray="2, 4" points="
  1487.01,569.872 1631.01,569.872 
  "/>
<g clip-path="url(#clip6100)">
<text style="fill:#000000; fill-opacity:1; font-family:Arial,Helvetica Neue,Helvetica,sans-serif; font-size:48px; text-anchor:start;" transform="rotate(0, 1655.01, 587.372)" x="1655.01" y="587.372">local mode</text>
</g>
</svg>
