<?xml version="1.0" encoding="utf-8"?>
<svg xmlns="http://www.w3.org/2000/svg" xmlns:xlink="http://www.w3.org/1999/xlink" width="600" height="400" viewBox="0 0 2400 1600">
<defs>
  <clipPath id="clip240">
    <rect x="0" y="0" width="2400" height="1600"/>
  </clipPath>
</defs>
<path clip-path="url(#clip240)" d="M0 1600 L2400 1600 L2400 0 L0 0  Z" fill="#ffffff" fill-rule="evenodd" fill-opacity="1"/>
<defs>
  <clipPath id="clip241">
    <rect x="480" y="0" width="1681" height="1600"/>
  </clipPath>
</defs>
<path clip-path="url(#clip240)" d="M172.015 1486.45 L2352.76 1486.45 L2352.76 123.472 L172.015 123.472  Z" fill="#ffffff" fill-rule="evenodd" fill-opacity="1"/>
<defs>
  <clipPath id="clip242">
    <rect x="172" y="123" width="2182" height="1364"/>
  </clipPath>
</defs>
<polyline clip-path="url(#clip242)" style="stroke:#000000; stroke-linecap:round; stroke-linejoin:round; stroke-width:2; stroke-opacity:0.1; fill:none" points="233.734,1486.45 233.734,123.472 "/>
<polyline clip-path="url(#clip242)" style="stroke:#000000; stroke-linecap:round; stroke-linejoin:round; stroke-width:2; stroke-opacity:0.1; fill:none" points="576.618,1486.45 576.618,123.472 "/>
<polyline clip-path="url(#clip242)" style="stroke:#000000; stroke-linecap:round; stroke-linejoin:round; stroke-width:2; stroke-opacity:0.1; fill:none" points="919.502,1486.45 919.502,123.472 "/>
<polyline clip-path="url(#clip242)" style="stroke:#000000; stroke-linecap:round; stroke-linejoin:round; stroke-width:2; stroke-opacity:0.1; fill:none" points="1262.39,1486.45 1262.39,123.472 "/>
<polyline clip-path="url(#clip242)" style="stroke:#000000; stroke-linecap:round; stroke-linejoin:round; stroke-width:2; stroke-opacity:0.1; fill:none" points="1605.27,1486.45 1605.27,123.472 "/>
<polyline clip-path="url(#clip242)" style="stroke:#000000; stroke-linecap:round; stroke-linejoin:round; stroke-width:2; stroke-opacity:0.1; fill:none" points="1948.15,1486.45 1948.15,123.472 "/>
<polyline clip-path="url(#clip242)" style="stroke:#000000; stroke-linecap:round; stroke-linejoin:round; stroke-width:2; stroke-opacity:0.1; fill:none" points="2291.04,1486.45 2291.04,123.472 "/>
<polyline clip-path="url(#clip242)" style="stroke:#000000; stroke-linecap:round; stroke-linejoin:round; stroke-width:2; stroke-opacity:0.1; fill:none" points="172.015,1447.87 2352.76,1447.87 "/>
<polyline clip-path="url(#clip242)" style="stroke:#000000; stroke-linecap:round; stroke-linejoin:round; stroke-width:2; stroke-opacity:0.1; fill:none" points="172.015,1138.04 2352.76,1138.04 "/>
<polyline clip-path="url(#clip242)" style="stroke:#000000; stroke-linecap:round; stroke-linejoin:round; stroke-width:2; stroke-opacity:0.1; fill:none" points="172.015,828.198 2352.76,828.198 "/>
<polyline clip-path="url(#clip242)" style="stroke:#000000; stroke-linecap:round; stroke-linejoin:round; stroke-width:2; stroke-opacity:0.1; fill:none" points="172.015,518.36 2352.76,518.36 "/>
<polyline clip-path="url(#clip242)" style="stroke:#000000; stroke-linecap:round; stroke-linejoin:round; stroke-width:2; stroke-opacity:0.1; fill:none" points="172.015,208.523 2352.76,208.523 "/>
<polyline clip-path="url(#clip240)" style="stroke:#000000; stroke-linecap:round; stroke-linejoin:round; stroke-width:4; stroke-opacity:1; fill:none" points="172.015,1486.45 2352.76,1486.45 "/>
<polyline clip-path="url(#clip240)" style="stroke:#000000; stroke-linecap:round; stroke-linejoin:round; stroke-width:4; stroke-opacity:1; fill:none" points="233.734,1486.45 233.734,1467.55 "/>
<polyline clip-path="url(#clip240)" style="stroke:#000000; stroke-linecap:round; stroke-linejoin:round; stroke-width:4; stroke-opacity:1; fill:none" points="576.618,1486.45 576.618,1467.55 "/>
<polyline clip-path="url(#clip240)" style="stroke:#000000; stroke-linecap:round; stroke-linejoin:round; stroke-width:4; stroke-opacity:1; fill:none" points="919.502,1486.45 919.502,1467.55 "/>
<polyline clip-path="url(#clip240)" style="stroke:#000000; stroke-linecap:round; stroke-linejoin:round; stroke-width:4; stroke-opacity:1; fill:none" points="1262.39,1486.45 1262.39,1467.55 "/>
<polyline clip-path="url(#clip240)" style="stroke:#000000; stroke-linecap:round; stroke-linejoin:round; stroke-width:4; stroke-opacity:1; fill:none" points="1605.27,1486.45 1605.27,1467.55 "/>
<polyline clip-path="url(#clip240)" style="stroke:#000000; stroke-linecap:round; stroke-linejoin:round; stroke-width:4; stroke-opacity:1; fill:none" points="1948.15,1486.45 1948.15,1467.55 "/>
<polyline clip-path="url(#clip240)" style="stroke:#000000; stroke-linecap:round; stroke-linejoin:round; stroke-width:4; stroke-opacity:1; fill:none" points="2291.04,1486.45 2291.04,1467.55 "/>
<path clip-path="url(#clip240)" d="M203.676 1532.02 L233.352 1532.02 L233.352 1535.95 L203.676 1535.95 L203.676 1532.02 Z" fill="#000000" fill-rule="nonzero" fill-opacity="1" /><path clip-path="url(#clip240)" d="M247.472 1544.91 L263.792 1544.91 L263.792 1548.85 L241.847 1548.85 L241.847 1544.91 Q244.509 1542.16 249.093 1537.53 Q253.699 1532.88 254.88 1531.53 Q257.125 1529.01 258.005 1527.27 Q258.907 1525.51 258.907 1523.82 Q258.907 1521.07 256.963 1519.33 Q255.042 1517.6 251.94 1517.6 Q249.741 1517.6 247.287 1518.36 Q244.857 1519.13 242.079 1520.68 L242.079 1515.95 Q244.903 1514.82 247.357 1514.24 Q249.81 1513.66 251.847 1513.66 Q257.218 1513.66 260.412 1516.35 Q263.606 1519.03 263.606 1523.52 Q263.606 1525.65 262.796 1527.57 Q262.009 1529.47 259.903 1532.07 Q259.324 1532.74 256.222 1535.95 Q253.12 1539.15 247.472 1544.91 Z" fill="#000000" fill-rule="nonzero" fill-opacity="1" /><path clip-path="url(#clip240)" d="M546.375 1532.02 L576.051 1532.02 L576.051 1535.95 L546.375 1535.95 L546.375 1532.02 Z" fill="#000000" fill-rule="nonzero" fill-opacity="1" /><path clip-path="url(#clip240)" d="M586.953 1544.91 L594.592 1544.91 L594.592 1518.55 L586.282 1520.21 L586.282 1515.95 L594.546 1514.29 L599.222 1514.29 L599.222 1544.91 L606.861 1544.91 L606.861 1548.85 L586.953 1548.85 L586.953 1544.91 Z" fill="#000000" fill-rule="nonzero" fill-opacity="1" /><path clip-path="url(#clip240)" d="M919.502 1517.37 Q915.89 1517.37 914.062 1520.93 Q912.256 1524.47 912.256 1531.6 Q912.256 1538.71 914.062 1542.27 Q915.89 1545.82 919.502 1545.82 Q923.136 1545.82 924.941 1542.27 Q926.77 1538.71 926.77 1531.6 Q926.77 1524.47 924.941 1520.93 Q923.136 1517.37 919.502 1517.37 M919.502 1513.66 Q925.312 1513.66 928.367 1518.27 Q931.446 1522.85 931.446 1531.6 Q931.446 1540.33 928.367 1544.94 Q925.312 1549.52 919.502 1549.52 Q913.691 1549.52 910.613 1544.94 Q907.557 1540.33 907.557 1531.6 Q907.557 1522.85 910.613 1518.27 Q913.691 1513.66 919.502 1513.66 Z" fill="#000000" fill-rule="nonzero" fill-opacity="1" /><path clip-path="url(#clip240)" d="M1252.77 1544.91 L1260.41 1544.91 L1260.41 1518.55 L1252.1 1520.21 L1252.1 1515.95 L1260.36 1514.29 L1265.04 1514.29 L1265.04 1544.91 L1272.67 1544.91 L1272.67 1548.85 L1252.77 1548.85 L1252.77 1544.91 Z" fill="#000000" fill-rule="nonzero" fill-opacity="1" /><path clip-path="url(#clip240)" d="M1599.92 1544.91 L1616.24 1544.91 L1616.24 1548.85 L1594.3 1548.85 L1594.3 1544.91 Q1596.96 1542.16 1601.54 1537.53 Q1606.15 1532.88 1607.33 1531.53 Q1609.57 1529.01 1610.45 1527.27 Q1611.36 1525.51 1611.36 1523.82 Q1611.36 1521.07 1609.41 1519.33 Q1607.49 1517.6 1604.39 1517.6 Q1602.19 1517.6 1599.74 1518.36 Q1597.31 1519.13 1594.53 1520.68 L1594.53 1515.95 Q1597.35 1514.82 1599.81 1514.24 Q1602.26 1513.66 1604.3 1513.66 Q1609.67 1513.66 1612.86 1516.35 Q1616.06 1519.03 1616.06 1523.52 Q1616.06 1525.65 1615.25 1527.57 Q1614.46 1529.47 1612.35 1532.07 Q1611.77 1532.74 1608.67 1535.95 Q1605.57 1539.15 1599.92 1544.91 Z" fill="#000000" fill-rule="nonzero" fill-opacity="1" /><path clip-path="url(#clip240)" d="M1952.4 1530.21 Q1955.76 1530.93 1957.63 1533.2 Q1959.53 1535.47 1959.53 1538.8 Q1959.53 1543.92 1956.01 1546.72 Q1952.49 1549.52 1946.01 1549.52 Q1943.84 1549.52 1941.52 1549.08 Q1939.23 1548.66 1936.78 1547.81 L1936.78 1543.29 Q1938.72 1544.43 1941.03 1545.01 Q1943.35 1545.58 1945.87 1545.58 Q1950.27 1545.58 1952.56 1543.85 Q1954.88 1542.11 1954.88 1538.8 Q1954.88 1535.75 1952.72 1534.03 Q1950.6 1532.3 1946.78 1532.3 L1942.75 1532.3 L1942.75 1528.45 L1946.96 1528.45 Q1950.41 1528.45 1952.24 1527.09 Q1954.07 1525.7 1954.07 1523.11 Q1954.07 1520.45 1952.17 1519.03 Q1950.29 1517.6 1946.78 1517.6 Q1944.85 1517.6 1942.66 1518.01 Q1940.46 1518.43 1937.82 1519.31 L1937.82 1515.14 Q1940.48 1514.4 1942.79 1514.03 Q1945.13 1513.66 1947.19 1513.66 Q1952.52 1513.66 1955.62 1516.09 Q1958.72 1518.5 1958.72 1522.62 Q1958.72 1525.49 1957.08 1527.48 Q1955.43 1529.45 1952.4 1530.21 Z" fill="#000000" fill-rule="nonzero" fill-opacity="1" /><path clip-path="url(#clip240)" d="M2294.05 1518.36 L2282.24 1536.81 L2294.05 1536.81 L2294.05 1518.36 M2292.82 1514.29 L2298.7 1514.29 L2298.7 1536.81 L2303.63 1536.81 L2303.63 1540.7 L2298.7 1540.7 L2298.7 1548.85 L2294.05 1548.85 L2294.05 1540.7 L2278.44 1540.7 L2278.44 1536.19 L2292.82 1514.29 Z" fill="#000000" fill-rule="nonzero" fill-opacity="1" /><polyline clip-path="url(#clip240)" style="stroke:#000000; stroke-linecap:round; stroke-linejoin:round; stroke-width:4; stroke-opacity:1; fill:none" points="172.015,1486.45 172.015,123.472 "/>
<polyline clip-path="url(#clip240)" style="stroke:#000000; stroke-linecap:round; stroke-linejoin:round; stroke-width:4; stroke-opacity:1; fill:none" points="172.015,1447.87 190.912,1447.87 "/>
<polyline clip-path="url(#clip240)" style="stroke:#000000; stroke-linecap:round; stroke-linejoin:round; stroke-width:4; stroke-opacity:1; fill:none" points="172.015,1138.04 190.912,1138.04 "/>
<polyline clip-path="url(#clip240)" style="stroke:#000000; stroke-linecap:round; stroke-linejoin:round; stroke-width:4; stroke-opacity:1; fill:none" points="172.015,828.198 190.912,828.198 "/>
<polyline clip-path="url(#clip240)" style="stroke:#000000; stroke-linecap:round; stroke-linejoin:round; stroke-width:4; stroke-opacity:1; fill:none" points="172.015,518.36 190.912,518.36 "/>
<polyline clip-path="url(#clip240)" style="stroke:#000000; stroke-linecap:round; stroke-linejoin:round; stroke-width:4; stroke-opacity:1; fill:none" points="172.015,208.523 190.912,208.523 "/>
<path clip-path="url(#clip240)" d="M124.07 1433.67 Q120.459 1433.67 118.631 1437.24 Q116.825 1440.78 116.825 1447.91 Q116.825 1455.01 118.631 1458.58 Q120.459 1462.12 124.07 1462.12 Q127.705 1462.12 129.51 1458.58 Q131.339 1455.01 131.339 1447.91 Q131.339 1440.78 129.51 1437.24 Q127.705 1433.67 124.07 1433.67 M124.07 1429.97 Q129.881 1429.97 132.936 1434.57 Q136.015 1439.16 136.015 1447.91 Q136.015 1456.63 132.936 1461.24 Q129.881 1465.82 124.07 1465.82 Q118.26 1465.82 115.182 1461.24 Q112.126 1456.63 112.126 1447.91 Q112.126 1439.16 115.182 1434.57 Q118.26 1429.97 124.07 1429.97 Z" fill="#000000" fill-rule="nonzero" fill-opacity="1" /><path clip-path="url(#clip240)" d="M57.7745 1151.38 L74.0939 1151.38 L74.0939 1155.32 L52.1495 1155.32 L52.1495 1151.38 Q54.8115 1148.63 59.3949 1144 Q64.0013 1139.34 65.1819 1138 Q67.4272 1135.48 68.3068 1133.74 Q69.2096 1131.98 69.2096 1130.29 Q69.2096 1127.54 67.2652 1125.8 Q65.3439 1124.07 62.2421 1124.07 Q60.043 1124.07 57.5893 1124.83 Q55.1588 1125.59 52.381 1127.14 L52.381 1122.42 Q55.2051 1121.29 57.6588 1120.71 Q60.1124 1120.13 62.1495 1120.13 Q67.5198 1120.13 70.7142 1122.82 Q73.9087 1125.5 73.9087 1129.99 Q73.9087 1132.12 73.0985 1134.04 Q72.3115 1135.94 70.205 1138.53 Q69.6263 1139.2 66.5245 1142.42 Q63.4226 1145.62 57.7745 1151.38 Z" fill="#000000" fill-rule="nonzero" fill-opacity="1" /><path clip-path="url(#clip240)" d="M93.9086 1123.83 Q90.2975 1123.83 88.4688 1127.4 Q86.6632 1130.94 86.6632 1138.07 Q86.6632 1145.18 88.4688 1148.74 Q90.2975 1152.28 93.9086 1152.28 Q97.5428 1152.28 99.3483 1148.74 Q101.177 1145.18 101.177 1138.07 Q101.177 1130.94 99.3483 1127.4 Q97.5428 1123.83 93.9086 1123.83 M93.9086 1120.13 Q99.7187 1120.13 102.774 1124.74 Q105.853 1129.32 105.853 1138.07 Q105.853 1146.8 102.774 1151.4 Q99.7187 1155.99 93.9086 1155.99 Q88.0984 1155.99 85.0197 1151.4 Q81.9642 1146.8 81.9642 1138.07 Q81.9642 1129.32 85.0197 1124.74 Q88.0984 1120.13 93.9086 1120.13 Z" fill="#000000" fill-rule="nonzero" fill-opacity="1" /><path clip-path="url(#clip240)" d="M124.07 1123.83 Q120.459 1123.83 118.631 1127.4 Q116.825 1130.94 116.825 1138.07 Q116.825 1145.18 118.631 1148.74 Q120.459 1152.28 124.07 1152.28 Q127.705 1152.28 129.51 1148.74 Q131.339 1145.18 131.339 1138.07 Q131.339 1130.94 129.51 1127.4 Q127.705 1123.83 124.07 1123.83 M124.07 1120.13 Q129.881 1120.13 132.936 1124.74 Q136.015 1129.32 136.015 1138.07 Q136.015 1146.8 132.936 1151.4 Q129.881 1155.99 124.07 1155.99 Q118.26 1155.99 115.182 1151.4 Q112.126 1146.8 112.126 1138.07 Q112.126 1129.32 115.182 1124.74 Q118.26 1120.13 124.07 1120.13 Z" fill="#000000" fill-rule="nonzero" fill-opacity="1" /><path clip-path="url(#clip240)" d="M66.5939 814.992 L54.7884 833.441 L66.5939 833.441 L66.5939 814.992 M65.367 810.918 L71.2466 810.918 L71.2466 833.441 L76.1772 833.441 L76.1772 837.33 L71.2466 837.33 L71.2466 845.478 L66.5939 845.478 L66.5939 837.33 L50.9921 837.33 L50.9921 832.816 L65.367 810.918 Z" fill="#000000" fill-rule="nonzero" fill-opacity="1" /><path clip-path="url(#clip240)" d="M93.9086 813.997 Q90.2975 813.997 88.4688 817.561 Q86.6632 821.103 86.6632 828.233 Q86.6632 835.339 88.4688 838.904 Q90.2975 842.445 93.9086 842.445 Q97.5428 842.445 99.3483 838.904 Q101.177 835.339 101.177 828.233 Q101.177 821.103 99.3483 817.561 Q97.5428 813.997 93.9086 813.997 M93.9086 810.293 Q99.7187 810.293 102.774 814.899 Q105.853 819.483 105.853 828.233 Q105.853 836.959 102.774 841.566 Q99.7187 846.149 93.9086 846.149 Q88.0984 846.149 85.0197 841.566 Q81.9642 836.959 81.9642 828.233 Q81.9642 819.483 85.0197 814.899 Q88.0984 810.293 93.9086 810.293 Z" fill="#000000" fill-rule="nonzero" fill-opacity="1" /><path clip-path="url(#clip240)" d="M124.07 813.997 Q120.459 813.997 118.631 817.561 Q116.825 821.103 116.825 828.233 Q116.825 835.339 118.631 838.904 Q120.459 842.445 124.07 842.445 Q127.705 842.445 129.51 838.904 Q131.339 835.339 131.339 828.233 Q131.339 821.103 129.51 817.561 Q127.705 813.997 124.07 813.997 M124.07 810.293 Q129.881 810.293 132.936 814.899 Q136.015 819.483 136.015 828.233 Q136.015 836.959 132.936 841.566 Q129.881 846.149 124.07 846.149 Q118.26 846.149 115.182 841.566 Q112.126 836.959 112.126 828.233 Q112.126 819.483 115.182 814.899 Q118.26 810.293 124.07 810.293 Z" fill="#000000" fill-rule="nonzero" fill-opacity="1" /><path clip-path="url(#clip240)" d="M64.3254 516.497 Q61.1773 516.497 59.3254 518.65 Q57.4967 520.802 57.4967 524.552 Q57.4967 528.279 59.3254 530.455 Q61.1773 532.608 64.3254 532.608 Q67.4735 532.608 69.3022 530.455 Q71.1541 528.279 71.1541 524.552 Q71.1541 520.802 69.3022 518.65 Q67.4735 516.497 64.3254 516.497 M73.6077 501.844 L73.6077 506.103 Q71.8485 505.27 70.0429 504.83 Q68.2606 504.39 66.5013 504.39 Q61.8717 504.39 59.418 507.515 Q56.9875 510.64 56.6402 516.96 Q58.006 514.946 60.0662 513.881 Q62.1263 512.793 64.6032 512.793 Q69.8115 512.793 72.8207 515.964 Q75.8531 519.113 75.8531 524.552 Q75.8531 529.876 72.705 533.094 Q69.5568 536.311 64.3254 536.311 Q58.33 536.311 55.1588 531.728 Q51.9875 527.122 51.9875 518.395 Q51.9875 510.201 55.8764 505.339 Q59.7652 500.455 66.3161 500.455 Q68.0754 500.455 69.8578 500.802 Q71.6633 501.15 73.6077 501.844 Z" fill="#000000" fill-rule="nonzero" fill-opacity="1" /><path clip-path="url(#clip240)" d="M93.9086 504.159 Q90.2975 504.159 88.4688 507.724 Q86.6632 511.265 86.6632 518.395 Q86.6632 525.501 88.4688 529.066 Q90.2975 532.608 93.9086 532.608 Q97.5428 532.608 99.3483 529.066 Q101.177 525.501 101.177 518.395 Q101.177 511.265 99.3483 507.724 Q97.5428 504.159 93.9086 504.159 M93.9086 500.455 Q99.7187 500.455 102.774 505.062 Q105.853 509.645 105.853 518.395 Q105.853 527.122 102.774 531.728 Q99.7187 536.311 93.9086 536.311 Q88.0984 536.311 85.0197 531.728 Q81.9642 527.122 81.9642 518.395 Q81.9642 509.645 85.0197 505.062 Q88.0984 500.455 93.9086 500.455 Z" fill="#000000" fill-rule="nonzero" fill-opacity="1" /><path clip-path="url(#clip240)" d="M124.07 504.159 Q120.459 504.159 118.631 507.724 Q116.825 511.265 116.825 518.395 Q116.825 525.501 118.631 529.066 Q120.459 532.608 124.07 532.608 Q127.705 532.608 129.51 529.066 Q131.339 525.501 131.339 518.395 Q131.339 511.265 129.51 507.724 Q127.705 504.159 124.07 504.159 M124.07 500.455 Q129.881 500.455 132.936 505.062 Q136.015 509.645 136.015 518.395 Q136.015 527.122 132.936 531.728 Q129.881 536.311 124.07 536.311 Q118.26 536.311 115.182 531.728 Q112.126 527.122 112.126 518.395 Q112.126 509.645 115.182 505.062 Q118.26 500.455 124.07 500.455 Z" fill="#000000" fill-rule="nonzero" fill-opacity="1" /><path clip-path="url(#clip240)" d="M63.7467 209.391 Q60.4134 209.391 58.4921 211.173 Q56.5939 212.955 56.5939 216.08 Q56.5939 219.205 58.4921 220.988 Q60.4134 222.77 63.7467 222.77 Q67.08 222.77 69.0013 220.988 Q70.9226 219.182 70.9226 216.08 Q70.9226 212.955 69.0013 211.173 Q67.1032 209.391 63.7467 209.391 M59.0708 207.4 Q56.0615 206.659 54.3717 204.599 Q52.7051 202.539 52.7051 199.576 Q52.7051 195.432 55.6449 193.025 Q58.6078 190.618 63.7467 190.618 Q68.9087 190.618 71.8485 193.025 Q74.7883 195.432 74.7883 199.576 Q74.7883 202.539 73.0985 204.599 Q71.4318 206.659 68.4457 207.4 Q71.8253 208.187 73.7003 210.479 Q75.5985 212.77 75.5985 216.08 Q75.5985 221.104 72.5198 223.789 Q69.4642 226.474 63.7467 226.474 Q58.0291 226.474 54.9504 223.789 Q51.8949 221.104 51.8949 216.08 Q51.8949 212.77 53.793 210.479 Q55.6912 208.187 59.0708 207.4 M57.3578 200.016 Q57.3578 202.701 59.0245 204.205 Q60.7143 205.71 63.7467 205.71 Q66.7559 205.71 68.4457 204.205 Q70.1587 202.701 70.1587 200.016 Q70.1587 197.33 68.4457 195.826 Q66.7559 194.321 63.7467 194.321 Q60.7143 194.321 59.0245 195.826 Q57.3578 197.33 57.3578 200.016 Z" fill="#000000" fill-rule="nonzero" fill-opacity="1" /><path clip-path="url(#clip240)" d="M93.9086 194.321 Q90.2975 194.321 88.4688 197.886 Q86.6632 201.428 86.6632 208.557 Q86.6632 215.664 88.4688 219.229 Q90.2975 222.77 93.9086 222.77 Q97.5428 222.77 99.3483 219.229 Q101.177 215.664 101.177 208.557 Q101.177 201.428 99.3483 197.886 Q97.5428 194.321 93.9086 194.321 M93.9086 190.618 Q99.7187 190.618 102.774 195.224 Q105.853 199.807 105.853 208.557 Q105.853 217.284 102.774 221.891 Q99.7187 226.474 93.9086 226.474 Q88.0984 226.474 85.0197 221.891 Q81.9642 217.284 81.9642 208.557 Q81.9642 199.807 85.0197 195.224 Q88.0984 190.618 93.9086 190.618 Z" fill="#000000" fill-rule="nonzero" fill-opacity="1" /><path clip-path="url(#clip240)" d="M124.07 194.321 Q120.459 194.321 118.631 197.886 Q116.825 201.428 116.825 208.557 Q116.825 215.664 118.631 219.229 Q120.459 222.77 124.07 222.77 Q127.705 222.77 129.51 219.229 Q131.339 215.664 131.339 208.557 Q131.339 201.428 129.51 197.886 Q127.705 194.321 124.07 194.321 M124.07 190.618 Q129.881 190.618 132.936 195.224 Q136.015 199.807 136.015 208.557 Q136.015 217.284 132.936 221.891 Q129.881 226.474 124.07 226.474 Q118.26 226.474 115.182 221.891 Q112.126 217.284 112.126 208.557 Q112.126 199.807 115.182 195.224 Q118.26 190.618 124.07 190.618 Z" fill="#000000" fill-rule="nonzero" fill-opacity="1" /><path clip-path="url(#clip240)" d="M1179.36 18.8205 L1179.36 65.8515 L1189.25 65.8515 Q1201.76 65.8515 1207.56 60.1802 Q1213.39 54.509 1213.39 42.2752 Q1213.39 30.1225 1207.56 24.4918 Q1201.76 18.8205 1189.25 18.8205 L1179.36 18.8205 M1171.18 12.096 L1187.99 12.096 Q1205.57 12.096 1213.79 19.4281 Q1222.02 26.7198 1222.02 42.2752 Q1222.02 57.9117 1213.75 65.2439 Q1205.49 72.576 1187.99 72.576 L1171.18 72.576 L1171.18 12.096 Z" fill="#000000" fill-rule="nonzero" fill-opacity="1" /><path clip-path="url(#clip240)" d="M1255.36 49.7694 Q1246.32 49.7694 1242.84 51.8354 Q1239.36 53.9013 1239.36 58.8839 Q1239.36 62.8538 1241.95 65.2034 Q1244.58 67.5124 1249.08 67.5124 Q1255.28 67.5124 1259 63.1374 Q1262.77 58.7219 1262.77 51.4303 L1262.77 49.7694 L1255.36 49.7694 M1270.22 46.6907 L1270.22 72.576 L1262.77 72.576 L1262.77 65.6895 Q1260.22 69.8214 1256.41 71.8063 Q1252.6 73.7508 1247.09 73.7508 Q1240.13 73.7508 1235.99 69.8619 Q1231.9 65.9325 1231.9 59.3701 Q1231.9 51.7138 1237.01 47.825 Q1242.15 43.9361 1252.32 43.9361 L1262.77 43.9361 L1262.77 43.2069 Q1262.77 38.0623 1259.37 35.2672 Q1256.01 32.4315 1249.89 32.4315 Q1246 32.4315 1242.31 33.3632 Q1238.63 34.295 1235.22 36.1584 L1235.22 29.2718 Q1239.32 27.692 1243.16 26.9223 Q1247.01 26.1121 1250.66 26.1121 Q1260.5 26.1121 1265.36 31.2163 Q1270.22 36.3204 1270.22 46.6907 Z" fill="#000000" fill-rule="nonzero" fill-opacity="1" /><path clip-path="url(#clip240)" d="M1292.95 14.324 L1292.95 27.2059 L1308.3 27.2059 L1308.3 32.9987 L1292.95 32.9987 L1292.95 57.6282 Q1292.95 63.1779 1294.45 64.7578 Q1295.99 66.3376 1300.65 66.3376 L1308.3 66.3376 L1308.3 72.576 L1300.65 72.576 Q1292.02 72.576 1288.74 69.3758 Q1285.46 66.1351 1285.46 57.6282 L1285.46 32.9987 L1279.99 32.9987 L1279.99 27.2059 L1285.46 27.2059 L1285.46 14.324 L1292.95 14.324 Z" fill="#000000" fill-rule="nonzero" fill-opacity="1" /><path clip-path="url(#clip240)" d="M1338.72 49.7694 Q1329.69 49.7694 1326.21 51.8354 Q1322.72 53.9013 1322.72 58.8839 Q1322.72 62.8538 1325.32 65.2034 Q1327.95 67.5124 1332.45 67.5124 Q1338.64 67.5124 1342.37 63.1374 Q1346.14 58.7219 1346.14 51.4303 L1346.14 49.7694 L1338.72 49.7694 M1353.59 46.6907 L1353.59 72.576 L1346.14 72.576 L1346.14 65.6895 Q1343.59 69.8214 1339.78 71.8063 Q1335.97 73.7508 1330.46 73.7508 Q1323.49 73.7508 1319.36 69.8619 Q1315.27 65.9325 1315.27 59.3701 Q1315.27 51.7138 1320.37 47.825 Q1325.52 43.9361 1335.69 43.9361 L1346.14 43.9361 L1346.14 43.2069 Q1346.14 38.0623 1342.74 35.2672 Q1339.37 32.4315 1333.26 32.4315 Q1329.37 32.4315 1325.68 33.3632 Q1321.99 34.295 1318.59 36.1584 L1318.59 29.2718 Q1322.68 27.692 1326.53 26.9223 Q1330.38 26.1121 1334.03 26.1121 Q1343.87 26.1121 1348.73 31.2163 Q1353.59 36.3204 1353.59 46.6907 Z" fill="#000000" fill-rule="nonzero" fill-opacity="1" /><polyline clip-path="url(#clip242)" style="stroke:#009af9; stroke-linecap:round; stroke-linejoin:round; stroke-width:4; stroke-opacity:1; fill:none" points="233.734,1447.87 233.734,1401.4 268.022,1401.4 268.022,1246.48 302.311,1246.48 302.311,1277.46 336.599,1277.46 336.599,1076.07 370.887,1076.07 370.887,921.149 405.176,921.149 405.176,998.609 439.464,998.609 439.464,1060.58 473.753,1060.58 473.753,952.133 508.041,952.133 508.041,905.657 542.329,905.657 542.329,735.247 576.618,735.247 576.618,766.23 610.906,766.23 645.194,766.23 645.194,874.673 679.483,874.673 679.483,1169.02 713.771,1169.02 713.771,1215.49 748.06,1215.49 748.06,998.609 782.348,998.609 782.348,1230.99 816.636,1230.99 816.636,1277.46 850.925,1277.46 850.925,1308.45 885.213,1308.45 919.502,1308.45 919.502,1354.92 953.79,1354.92 953.79,1432.38 988.078,1432.38 988.078,1416.89 1022.37,1416.89 1022.37,1432.38 1056.66,1432.38 1056.66,1416.89 1090.94,1416.89 1090.94,1401.4 1125.23,1401.4 1125.23,1370.41 1159.52,1370.41 1159.52,1401.4 1193.81,1401.4 1193.81,1385.91 1228.1,1385.91 1228.1,1292.95 1262.39,1292.95 1262.39,1261.97 1296.67,1261.97 1296.67,1076.07 1330.96,1076.07 1330.96,1060.58 1365.25,1060.58 1365.25,843.69 1399.54,843.69 1399.54,828.198 1433.83,828.198 1433.83,564.836 1468.12,564.836 1468.12,378.933 1502.4,378.933 1502.4,316.966 1536.69,316.966 1536.69,409.917 1570.98,409.917 1570.98,162.047 1605.27,162.047 1605.27,347.949 1639.56,347.949 1639.56,239.506 1673.85,239.506 1673.85,549.344 1708.13,549.344 1708.13,409.917 1742.42,409.917 1742.42,626.803 1776.71,626.803 1776.71,781.722 1811,781.722 1811,766.23 1845.29,766.23 1845.29,1107.05 1879.58,1107.05 1879.58,1261.97 1913.86,1261.97 1913.86,1200 1948.15,1200 1948.15,1308.45 1982.44,1308.45 1982.44,1385.91 2016.73,1385.91 2016.73,1401.4 2051.02,1401.4 2085.31,1401.4 2085.31,1432.38 2119.59,1432.38 2153.88,1432.38 2153.88,1447.87 2188.17,1447.87 2222.46,1447.87 2256.75,1447.87 2291.04,1447.87 "/>
<path clip-path="url(#clip240)" d="M1957.75 272.585 L2280.06 272.585 L2280.06 168.905 L1957.75 168.905  Z" fill="#ffffff" fill-rule="evenodd" fill-opacity="1"/>
<polyline clip-path="url(#clip240)" style="stroke:#000000; stroke-linecap:round; stroke-linejoin:round; stroke-width:4; stroke-opacity:1; fill:none" points="1957.75,272.585 2280.06,272.585 2280.06,168.905 1957.75,168.905 1957.75,272.585 "/>
<polyline clip-path="url(#clip240)" style="stroke:#009af9; stroke-linecap:round; stroke-linejoin:round; stroke-width:4; stroke-opacity:1; fill:none" points="1981.99,220.745 2127.37,220.745 "/>
<path clip-path="url(#clip240)" d="M2156.27 207.307 L2156.27 234.182 L2161.92 234.182 Q2169.08 234.182 2172.39 230.941 Q2175.72 227.701 2175.72 220.71 Q2175.72 213.766 2172.39 210.548 Q2169.08 207.307 2161.92 207.307 L2156.27 207.307 M2151.6 203.465 L2161.2 203.465 Q2171.25 203.465 2175.95 207.654 Q2180.65 211.821 2180.65 220.71 Q2180.65 229.645 2175.93 233.835 Q2171.2 238.025 2161.2 238.025 L2151.6 238.025 L2151.6 203.465 Z" fill="#000000" fill-rule="nonzero" fill-opacity="1" /><path clip-path="url(#clip240)" d="M2199.7 224.992 Q2194.54 224.992 2192.55 226.173 Q2190.56 227.353 2190.56 230.201 Q2190.56 232.469 2192.04 233.812 Q2193.54 235.131 2196.11 235.131 Q2199.65 235.131 2201.78 232.631 Q2203.94 230.108 2203.94 225.941 L2203.94 224.992 L2199.7 224.992 M2208.2 223.233 L2208.2 238.025 L2203.94 238.025 L2203.94 234.089 Q2202.48 236.451 2200.3 237.585 Q2198.13 238.696 2194.98 238.696 Q2191 238.696 2188.64 236.474 Q2186.3 234.228 2186.3 230.478 Q2186.3 226.103 2189.21 223.881 Q2192.15 221.659 2197.96 221.659 L2203.94 221.659 L2203.94 221.242 Q2203.94 218.303 2201.99 216.705 Q2200.07 215.085 2196.58 215.085 Q2194.35 215.085 2192.25 215.617 Q2190.14 216.15 2188.2 217.215 L2188.2 213.279 Q2190.53 212.377 2192.73 211.937 Q2194.93 211.474 2197.01 211.474 Q2202.64 211.474 2205.42 214.391 Q2208.2 217.307 2208.2 223.233 Z" fill="#000000" fill-rule="nonzero" fill-opacity="1" /><path clip-path="url(#clip240)" d="M2221.18 204.738 L2221.18 212.099 L2229.95 212.099 L2229.95 215.409 L2221.18 215.409 L2221.18 229.483 Q2221.18 232.654 2222.04 233.557 Q2222.92 234.46 2225.58 234.46 L2229.95 234.46 L2229.95 238.025 L2225.58 238.025 Q2220.65 238.025 2218.77 236.196 Q2216.9 234.344 2216.9 229.483 L2216.9 215.409 L2213.77 215.409 L2213.77 212.099 L2216.9 212.099 L2216.9 204.738 L2221.18 204.738 Z" fill="#000000" fill-rule="nonzero" fill-opacity="1" /><path clip-path="url(#clip240)" d="M2247.34 224.992 Q2242.18 224.992 2240.19 226.173 Q2238.2 227.353 2238.2 230.201 Q2238.2 232.469 2239.68 233.812 Q2241.18 235.131 2243.75 235.131 Q2247.29 235.131 2249.42 232.631 Q2251.57 230.108 2251.57 225.941 L2251.57 224.992 L2247.34 224.992 M2255.83 223.233 L2255.83 238.025 L2251.57 238.025 L2251.57 234.089 Q2250.12 236.451 2247.94 237.585 Q2245.76 238.696 2242.62 238.696 Q2238.64 238.696 2236.27 236.474 Q2233.94 234.228 2233.94 230.478 Q2233.94 226.103 2236.85 223.881 Q2239.79 221.659 2245.6 221.659 L2251.57 221.659 L2251.57 221.242 Q2251.57 218.303 2249.63 216.705 Q2247.71 215.085 2244.21 215.085 Q2241.99 215.085 2239.89 215.617 Q2237.78 216.15 2235.83 217.215 L2235.83 213.279 Q2238.17 212.377 2240.37 211.937 Q2242.57 211.474 2244.65 211.474 Q2250.28 211.474 2253.06 214.391 Q2255.83 217.307 2255.83 223.233 Z" fill="#000000" fill-rule="nonzero" fill-opacity="1" /></svg>
