<?xml version="1.0" encoding="utf-8"?>
<svg xmlns="http://www.w3.org/2000/svg" xmlns:xlink="http://www.w3.org/1999/xlink" width="600" height="400" viewBox="0 0 2400 1600">
<defs>
  <clipPath id="clip090">
    <rect x="0" y="0" width="2400" height="1600"/>
  </clipPath>
</defs>
<path clip-path="url(#clip090)" d="M0 1600 L2400 1600 L2400 0 L0 0  Z" fill="#ffffff" fill-rule="evenodd" fill-opacity="1"/>
<defs>
  <clipPath id="clip091">
    <rect x="480" y="0" width="1681" height="1600"/>
  </clipPath>
</defs>
<path clip-path="url(#clip090)" d="M172.015 1486.45 L2352.76 1486.45 L2352.76 123.472 L172.015 123.472  Z" fill="#ffffff" fill-rule="evenodd" fill-opacity="1"/>
<defs>
  <clipPath id="clip092">
    <rect x="172" y="123" width="2182" height="1364"/>
  </clipPath>
</defs>
<polyline clip-path="url(#clip092)" style="stroke:#000000; stroke-linecap:round; stroke-linejoin:round; stroke-width:2; stroke-opacity:0.1; fill:none" points="233.734,1486.45 233.734,123.472 "/>
<polyline clip-path="url(#clip092)" style="stroke:#000000; stroke-linecap:round; stroke-linejoin:round; stroke-width:2; stroke-opacity:0.1; fill:none" points="576.618,1486.45 576.618,123.472 "/>
<polyline clip-path="url(#clip092)" style="stroke:#000000; stroke-linecap:round; stroke-linejoin:round; stroke-width:2; stroke-opacity:0.1; fill:none" points="919.502,1486.45 919.502,123.472 "/>
<polyline clip-path="url(#clip092)" style="stroke:#000000; stroke-linecap:round; stroke-linejoin:round; stroke-width:2; stroke-opacity:0.1; fill:none" points="1262.39,1486.45 1262.39,123.472 "/>
<polyline clip-path="url(#clip092)" style="stroke:#000000; stroke-linecap:round; stroke-linejoin:round; stroke-width:2; stroke-opacity:0.1; fill:none" points="1605.27,1486.45 1605.27,123.472 "/>
<polyline clip-path="url(#clip092)" style="stroke:#000000; stroke-linecap:round; stroke-linejoin:round; stroke-width:2; stroke-opacity:0.1; fill:none" points="1948.15,1486.45 1948.15,123.472 "/>
<polyline clip-path="url(#clip092)" style="stroke:#000000; stroke-linecap:round; stroke-linejoin:round; stroke-width:2; stroke-opacity:0.1; fill:none" points="2291.04,1486.45 2291.04,123.472 "/>
<polyline clip-path="url(#clip090)" style="stroke:#000000; stroke-linecap:round; stroke-linejoin:round; stroke-width:4; stroke-opacity:1; fill:none" points="172.015,1486.45 2352.76,1486.45 "/>
<polyline clip-path="url(#clip090)" style="stroke:#000000; stroke-linecap:round; stroke-linejoin:round; stroke-width:4; stroke-opacity:1; fill:none" points="233.734,1486.45 233.734,1467.55 "/>
<polyline clip-path="url(#clip090)" style="stroke:#000000; stroke-linecap:round; stroke-linejoin:round; stroke-width:4; stroke-opacity:1; fill:none" points="576.618,1486.45 576.618,1467.55 "/>
<polyline clip-path="url(#clip090)" style="stroke:#000000; stroke-linecap:round; stroke-linejoin:round; stroke-width:4; stroke-opacity:1; fill:none" points="919.502,1486.45 919.502,1467.55 "/>
<polyline clip-path="url(#clip090)" style="stroke:#000000; stroke-linecap:round; stroke-linejoin:round; stroke-width:4; stroke-opacity:1; fill:none" points="1262.39,1486.45 1262.39,1467.55 "/>
<polyline clip-path="url(#clip090)" style="stroke:#000000; stroke-linecap:round; stroke-linejoin:round; stroke-width:4; stroke-opacity:1; fill:none" points="1605.27,1486.45 1605.27,1467.55 "/>
<polyline clip-path="url(#clip090)" style="stroke:#000000; stroke-linecap:round; stroke-linejoin:round; stroke-width:4; stroke-opacity:1; fill:none" points="1948.15,1486.45 1948.15,1467.55 "/>
<polyline clip-path="url(#clip090)" style="stroke:#000000; stroke-linecap:round; stroke-linejoin:round; stroke-width:4; stroke-opacity:1; fill:none" points="2291.04,1486.45 2291.04,1467.55 "/>
<path clip-path="url(#clip090)" d="M203.676 1532.02 L233.352 1532.02 L233.352 1535.95 L203.676 1535.95 L203.676 1532.02 Z" fill="#000000" fill-rule="nonzero" fill-opacity="1" /><path clip-path="url(#clip090)" d="M247.472 1544.91 L263.792 1544.91 L263.792 1548.85 L241.847 1548.85 L241.847 1544.91 Q244.509 1542.16 249.093 1537.53 Q253.699 1532.88 254.88 1531.53 Q257.125 1529.01 258.005 1527.27 Q258.907 1525.51 258.907 1523.82 Q258.907 1521.07 256.963 1519.33 Q255.042 1517.6 251.94 1517.6 Q249.741 1517.6 247.287 1518.36 Q244.857 1519.13 242.079 1520.68 L242.079 1515.95 Q244.903 1514.82 247.357 1514.24 Q249.81 1513.66 251.847 1513.66 Q257.218 1513.66 260.412 1516.35 Q263.606 1519.03 263.606 1523.52 Q263.606 1525.65 262.796 1527.57 Q262.009 1529.47 259.903 1532.07 Q259.324 1532.74 256.222 1535.95 Q253.12 1539.15 247.472 1544.91 Z" fill="#000000" fill-rule="nonzero" fill-opacity="1" /><path clip-path="url(#clip090)" d="M546.375 1532.02 L576.051 1532.02 L576.051 1535.95 L546.375 1535.95 L546.375 1532.02 Z" fill="#000000" fill-rule="nonzero" fill-opacity="1" /><path clip-path="url(#clip090)" d="M586.953 1544.91 L594.592 1544.91 L594.592 1518.55 L586.282 1520.21 L586.282 1515.95 L594.546 1514.29 L599.222 1514.29 L599.222 1544.91 L606.861 1544.91 L606.861 1548.85 L586.953 1548.85 L586.953 1544.91 Z" fill="#000000" fill-rule="nonzero" fill-opacity="1" /><path clip-path="url(#clip090)" d="M919.502 1517.37 Q915.89 1517.37 914.062 1520.93 Q912.256 1524.47 912.256 1531.6 Q912.256 1538.71 914.062 1542.27 Q915.89 1545.82 919.502 1545.82 Q923.136 1545.82 924.941 1542.27 Q926.77 1538.71 926.77 1531.6 Q926.77 1524.47 924.941 1520.93 Q923.136 1517.37 919.502 1517.37 M919.502 1513.66 Q925.312 1513.66 928.367 1518.27 Q931.446 1522.85 931.446 1531.6 Q931.446 1540.33 928.367 1544.94 Q925.312 1549.52 919.502 1549.52 Q913.691 1549.52 910.613 1544.94 Q907.557 1540.33 907.557 1531.6 Q907.557 1522.85 910.613 1518.27 Q913.691 1513.66 919.502 1513.66 Z" fill="#000000" fill-rule="nonzero" fill-opacity="1" /><path clip-path="url(#clip090)" d="M1252.77 1544.91 L1260.41 1544.91 L1260.41 1518.55 L1252.1 1520.21 L1252.1 1515.95 L1260.36 1514.29 L1265.04 1514.29 L1265.04 1544.91 L1272.67 1544.91 L1272.67 1548.85 L1252.77 1548.85 L1252.77 1544.91 Z" fill="#000000" fill-rule="nonzero" fill-opacity="1" /><path clip-path="url(#clip090)" d="M1599.92 1544.91 L1616.24 1544.91 L1616.24 1548.85 L1594.3 1548.85 L1594.3 1544.91 Q1596.96 1542.16 1601.54 1537.53 Q1606.15 1532.88 1607.33 1531.53 Q1609.57 1529.01 1610.45 1527.27 Q1611.36 1525.51 1611.36 1523.82 Q1611.36 1521.07 1609.41 1519.33 Q1607.49 1517.6 1604.39 1517.6 Q1602.19 1517.6 1599.74 1518.36 Q1597.31 1519.13 1594.53 1520.68 L1594.53 1515.95 Q1597.35 1514.82 1599.81 1514.24 Q1602.26 1513.66 1604.3 1513.66 Q1609.67 1513.66 1612.86 1516.35 Q1616.06 1519.03 1616.06 1523.52 Q1616.06 1525.65 1615.25 1527.57 Q1614.46 1529.47 1612.35 1532.07 Q1611.77 1532.74 1608.67 1535.95 Q1605.57 1539.15 1599.92 1544.91 Z" fill="#000000" fill-rule="nonzero" fill-opacity="1" /><path clip-path="url(#clip090)" d="M1952.4 1530.21 Q1955.76 1530.93 1957.63 1533.2 Q1959.53 1535.47 1959.53 1538.8 Q1959.53 1543.92 1956.01 1546.72 Q1952.49 1549.52 1946.01 1549.52 Q1943.84 1549.52 1941.52 1549.08 Q1939.23 1548.66 1936.78 1547.81 L1936.78 1543.29 Q1938.72 1544.43 1941.03 1545.01 Q1943.35 1545.58 1945.87 1545.58 Q1950.27 1545.58 1952.56 1543.85 Q1954.88 1542.11 1954.88 1538.8 Q1954.88 1535.75 1952.72 1534.03 Q1950.6 1532.3 1946.78 1532.3 L1942.75 1532.3 L1942.75 1528.45 L1946.96 1528.45 Q1950.41 1528.45 1952.24 1527.09 Q1954.07 1525.7 1954.07 1523.11 Q1954.07 1520.45 1952.17 1519.03 Q1950.29 1517.6 1946.78 1517.6 Q1944.85 1517.6 1942.66 1518.01 Q1940.46 1518.43 1937.82 1519.31 L1937.82 1515.14 Q1940.48 1514.4 1942.79 1514.03 Q1945.13 1513.66 1947.19 1513.66 Q1952.52 1513.66 1955.62 1516.09 Q1958.72 1518.5 1958.72 1522.62 Q1958.72 1525.49 1957.08 1527.48 Q1955.43 1529.45 1952.4 1530.21 Z" fill="#000000" fill-rule="nonzero" fill-opacity="1" /><path clip-path="url(#clip090)" d="M2294.05 1518.36 L2282.24 1536.81 L2294.05 1536.81 L2294.05 1518.36 M2292.82 1514.29 L2298.7 1514.29 L2298.7 1536.81 L2303.63 1536.81 L2303.63 1540.7 L2298.7 1540.7 L2298.7 1548.85 L2294.05 1548.85 L2294.05 1540.7 L2278.44 1540.7 L2278.44 1536.19 L2292.82 1514.29 Z" fill="#000000" fill-rule="nonzero" fill-opacity="1" /><polyline clip-path="url(#clip092)" style="stroke:#000000; stroke-linecap:round; stroke-linejoin:round; stroke-width:2; stroke-opacity:0.1; fill:none" points="172.015,1447.87 2352.76,1447.87 "/>
<polyline clip-path="url(#clip092)" style="stroke:#000000; stroke-linecap:round; stroke-linejoin:round; stroke-width:2; stroke-opacity:0.1; fill:none" points="172.015,1118.17 2352.76,1118.17 "/>
<polyline clip-path="url(#clip092)" style="stroke:#000000; stroke-linecap:round; stroke-linejoin:round; stroke-width:2; stroke-opacity:0.1; fill:none" points="172.015,788.475 2352.76,788.475 "/>
<polyline clip-path="url(#clip092)" style="stroke:#000000; stroke-linecap:round; stroke-linejoin:round; stroke-width:2; stroke-opacity:0.1; fill:none" points="172.015,458.776 2352.76,458.776 "/>
<polyline clip-path="url(#clip092)" style="stroke:#000000; stroke-linecap:round; stroke-linejoin:round; stroke-width:2; stroke-opacity:0.1; fill:none" points="172.015,129.077 2352.76,129.077 "/>
<polyline clip-path="url(#clip090)" style="stroke:#000000; stroke-linecap:round; stroke-linejoin:round; stroke-width:4; stroke-opacity:1; fill:none" points="172.015,1486.45 172.015,123.472 "/>
<polyline clip-path="url(#clip090)" style="stroke:#000000; stroke-linecap:round; stroke-linejoin:round; stroke-width:4; stroke-opacity:1; fill:none" points="172.015,1447.87 190.912,1447.87 "/>
<polyline clip-path="url(#clip090)" style="stroke:#000000; stroke-linecap:round; stroke-linejoin:round; stroke-width:4; stroke-opacity:1; fill:none" points="172.015,1118.17 190.912,1118.17 "/>
<polyline clip-path="url(#clip090)" style="stroke:#000000; stroke-linecap:round; stroke-linejoin:round; stroke-width:4; stroke-opacity:1; fill:none" points="172.015,788.475 190.912,788.475 "/>
<polyline clip-path="url(#clip090)" style="stroke:#000000; stroke-linecap:round; stroke-linejoin:round; stroke-width:4; stroke-opacity:1; fill:none" points="172.015,458.776 190.912,458.776 "/>
<polyline clip-path="url(#clip090)" style="stroke:#000000; stroke-linecap:round; stroke-linejoin:round; stroke-width:4; stroke-opacity:1; fill:none" points="172.015,129.077 190.912,129.077 "/>
<path clip-path="url(#clip090)" d="M124.07 1433.67 Q120.459 1433.67 118.631 1437.24 Q116.825 1440.78 116.825 1447.91 Q116.825 1455.01 118.631 1458.58 Q120.459 1462.12 124.07 1462.12 Q127.705 1462.12 129.51 1458.58 Q131.339 1455.01 131.339 1447.91 Q131.339 1440.78 129.51 1437.24 Q127.705 1433.67 124.07 1433.67 M124.07 1429.97 Q129.881 1429.97 132.936 1434.57 Q136.015 1439.16 136.015 1447.91 Q136.015 1456.63 132.936 1461.24 Q129.881 1465.82 124.07 1465.82 Q118.26 1465.82 115.182 1461.24 Q112.126 1456.63 112.126 1447.91 Q112.126 1439.16 115.182 1434.57 Q118.26 1429.97 124.07 1429.97 Z" fill="#000000" fill-rule="nonzero" fill-opacity="1" /><path clip-path="url(#clip090)" d="M57.7745 1131.52 L74.0939 1131.52 L74.0939 1135.45 L52.1495 1135.45 L52.1495 1131.52 Q54.8115 1128.76 59.3949 1124.13 Q64.0013 1119.48 65.1819 1118.14 Q67.4272 1115.62 68.3068 1113.88 Q69.2096 1112.12 69.2096 1110.43 Q69.2096 1107.68 67.2652 1105.94 Q65.3439 1104.2 62.2421 1104.2 Q60.043 1104.2 57.5893 1104.97 Q55.1588 1105.73 52.381 1107.28 L52.381 1102.56 Q55.2051 1101.43 57.6588 1100.85 Q60.1124 1100.27 62.1495 1100.27 Q67.5198 1100.27 70.7142 1102.95 Q73.9087 1105.64 73.9087 1110.13 Q73.9087 1112.26 73.0985 1114.18 Q72.3115 1116.08 70.205 1118.67 Q69.6263 1119.34 66.5245 1122.56 Q63.4226 1125.76 57.7745 1131.52 Z" fill="#000000" fill-rule="nonzero" fill-opacity="1" /><path clip-path="url(#clip090)" d="M93.9086 1103.97 Q90.2975 1103.97 88.4688 1107.54 Q86.6632 1111.08 86.6632 1118.21 Q86.6632 1125.32 88.4688 1128.88 Q90.2975 1132.42 93.9086 1132.42 Q97.5428 1132.42 99.3483 1128.88 Q101.177 1125.32 101.177 1118.21 Q101.177 1111.08 99.3483 1107.54 Q97.5428 1103.97 93.9086 1103.97 M93.9086 1100.27 Q99.7187 1100.27 102.774 1104.88 Q105.853 1109.46 105.853 1118.21 Q105.853 1126.94 102.774 1131.54 Q99.7187 1136.13 93.9086 1136.13 Q88.0984 1136.13 85.0197 1131.54 Q81.9642 1126.94 81.9642 1118.21 Q81.9642 1109.46 85.0197 1104.88 Q88.0984 1100.27 93.9086 1100.27 Z" fill="#000000" fill-rule="nonzero" fill-opacity="1" /><path clip-path="url(#clip090)" d="M124.07 1103.97 Q120.459 1103.97 118.631 1107.54 Q116.825 1111.08 116.825 1118.21 Q116.825 1125.32 118.631 1128.88 Q120.459 1132.42 124.07 1132.42 Q127.705 1132.42 129.51 1128.88 Q131.339 1125.32 131.339 1118.21 Q131.339 1111.08 129.51 1107.54 Q127.705 1103.97 124.07 1103.97 M124.07 1100.27 Q129.881 1100.27 132.936 1104.88 Q136.015 1109.46 136.015 1118.21 Q136.015 1126.94 132.936 1131.54 Q129.881 1136.13 124.07 1136.13 Q118.26 1136.13 115.182 1131.54 Q112.126 1126.94 112.126 1118.21 Q112.126 1109.46 115.182 1104.88 Q118.26 1100.27 124.07 1100.27 Z" fill="#000000" fill-rule="nonzero" fill-opacity="1" /><path clip-path="url(#clip090)" d="M66.5939 775.269 L54.7884 793.718 L66.5939 793.718 L66.5939 775.269 M65.367 771.195 L71.2466 771.195 L71.2466 793.718 L76.1772 793.718 L76.1772 797.607 L71.2466 797.607 L71.2466 805.755 L66.5939 805.755 L66.5939 797.607 L50.9921 797.607 L50.9921 793.093 L65.367 771.195 Z" fill="#000000" fill-rule="nonzero" fill-opacity="1" /><path clip-path="url(#clip090)" d="M93.9086 774.274 Q90.2975 774.274 88.4688 777.839 Q86.6632 781.38 86.6632 788.51 Q86.6632 795.616 88.4688 799.181 Q90.2975 802.723 93.9086 802.723 Q97.5428 802.723 99.3483 799.181 Q101.177 795.616 101.177 788.51 Q101.177 781.38 99.3483 777.839 Q97.5428 774.274 93.9086 774.274 M93.9086 770.57 Q99.7187 770.57 102.774 775.177 Q105.853 779.76 105.853 788.51 Q105.853 797.237 102.774 801.843 Q99.7187 806.426 93.9086 806.426 Q88.0984 806.426 85.0197 801.843 Q81.9642 797.237 81.9642 788.51 Q81.9642 779.76 85.0197 775.177 Q88.0984 770.57 93.9086 770.57 Z" fill="#000000" fill-rule="nonzero" fill-opacity="1" /><path clip-path="url(#clip090)" d="M124.07 774.274 Q120.459 774.274 118.631 777.839 Q116.825 781.38 116.825 788.51 Q116.825 795.616 118.631 799.181 Q120.459 802.723 124.07 802.723 Q127.705 802.723 129.51 799.181 Q131.339 795.616 131.339 788.51 Q131.339 781.38 129.51 777.839 Q127.705 774.274 124.07 774.274 M124.07 770.57 Q129.881 770.57 132.936 775.177 Q136.015 779.76 136.015 788.51 Q136.015 797.237 132.936 801.843 Q129.881 806.426 124.07 806.426 Q118.26 806.426 115.182 801.843 Q112.126 797.237 112.126 788.51 Q112.126 779.76 115.182 775.177 Q118.26 770.57 124.07 770.57 Z" fill="#000000" fill-rule="nonzero" fill-opacity="1" /><path clip-path="url(#clip090)" d="M64.3254 456.913 Q61.1773 456.913 59.3254 459.065 Q57.4967 461.218 57.4967 464.968 Q57.4967 468.695 59.3254 470.871 Q61.1773 473.024 64.3254 473.024 Q67.4735 473.024 69.3022 470.871 Q71.1541 468.695 71.1541 464.968 Q71.1541 461.218 69.3022 459.065 Q67.4735 456.913 64.3254 456.913 M73.6077 442.26 L73.6077 446.519 Q71.8485 445.686 70.0429 445.246 Q68.2606 444.806 66.5013 444.806 Q61.8717 444.806 59.418 447.931 Q56.9875 451.056 56.6402 457.376 Q58.006 455.362 60.0662 454.297 Q62.1263 453.209 64.6032 453.209 Q69.8115 453.209 72.8207 456.38 Q75.8531 459.528 75.8531 464.968 Q75.8531 470.292 72.705 473.51 Q69.5568 476.727 64.3254 476.727 Q58.33 476.727 55.1588 472.144 Q51.9875 467.538 51.9875 458.811 Q51.9875 450.616 55.8764 445.755 Q59.7652 440.871 66.3161 440.871 Q68.0754 440.871 69.8578 441.218 Q71.6633 441.565 73.6077 442.26 Z" fill="#000000" fill-rule="nonzero" fill-opacity="1" /><path clip-path="url(#clip090)" d="M93.9086 444.575 Q90.2975 444.575 88.4688 448.14 Q86.6632 451.681 86.6632 458.811 Q86.6632 465.917 88.4688 469.482 Q90.2975 473.024 93.9086 473.024 Q97.5428 473.024 99.3483 469.482 Q101.177 465.917 101.177 458.811 Q101.177 451.681 99.3483 448.14 Q97.5428 444.575 93.9086 444.575 M93.9086 440.871 Q99.7187 440.871 102.774 445.477 Q105.853 450.061 105.853 458.811 Q105.853 467.538 102.774 472.144 Q99.7187 476.727 93.9086 476.727 Q88.0984 476.727 85.0197 472.144 Q81.9642 467.538 81.9642 458.811 Q81.9642 450.061 85.0197 445.477 Q88.0984 440.871 93.9086 440.871 Z" fill="#000000" fill-rule="nonzero" fill-opacity="1" /><path clip-path="url(#clip090)" d="M124.07 444.575 Q120.459 444.575 118.631 448.14 Q116.825 451.681 116.825 458.811 Q116.825 465.917 118.631 469.482 Q120.459 473.024 124.07 473.024 Q127.705 473.024 129.51 469.482 Q131.339 465.917 131.339 458.811 Q131.339 451.681 129.51 448.14 Q127.705 444.575 124.07 444.575 M124.07 440.871 Q129.881 440.871 132.936 445.477 Q136.015 450.061 136.015 458.811 Q136.015 467.538 132.936 472.144 Q129.881 476.727 124.07 476.727 Q118.26 476.727 115.182 472.144 Q112.126 467.538 112.126 458.811 Q112.126 450.061 115.182 445.477 Q118.26 440.871 124.07 440.871 Z" fill="#000000" fill-rule="nonzero" fill-opacity="1" /><path clip-path="url(#clip090)" d="M63.7467 129.945 Q60.4134 129.945 58.4921 131.727 Q56.5939 133.51 56.5939 136.635 Q56.5939 139.76 58.4921 141.542 Q60.4134 143.325 63.7467 143.325 Q67.08 143.325 69.0013 141.542 Q70.9226 139.737 70.9226 136.635 Q70.9226 133.51 69.0013 131.727 Q67.1032 129.945 63.7467 129.945 M59.0708 127.954 Q56.0615 127.214 54.3717 125.153 Q52.7051 123.093 52.7051 120.13 Q52.7051 115.987 55.6449 113.579 Q58.6078 111.172 63.7467 111.172 Q68.9087 111.172 71.8485 113.579 Q74.7883 115.987 74.7883 120.13 Q74.7883 123.093 73.0985 125.153 Q71.4318 127.214 68.4457 127.954 Q71.8253 128.741 73.7003 131.033 Q75.5985 133.325 75.5985 136.635 Q75.5985 141.658 72.5198 144.343 Q69.4642 147.028 63.7467 147.028 Q58.0291 147.028 54.9504 144.343 Q51.8949 141.658 51.8949 136.635 Q51.8949 133.325 53.793 131.033 Q55.6912 128.741 59.0708 127.954 M57.3578 120.57 Q57.3578 123.255 59.0245 124.76 Q60.7143 126.265 63.7467 126.265 Q66.7559 126.265 68.4457 124.76 Q70.1587 123.255 70.1587 120.57 Q70.1587 117.885 68.4457 116.38 Q66.7559 114.876 63.7467 114.876 Q60.7143 114.876 59.0245 116.38 Q57.3578 117.885 57.3578 120.57 Z" fill="#000000" fill-rule="nonzero" fill-opacity="1" /><path clip-path="url(#clip090)" d="M93.9086 114.876 Q90.2975 114.876 88.4688 118.44 Q86.6632 121.982 86.6632 129.112 Q86.6632 136.218 88.4688 139.783 Q90.2975 143.325 93.9086 143.325 Q97.5428 143.325 99.3483 139.783 Q101.177 136.218 101.177 129.112 Q101.177 121.982 99.3483 118.44 Q97.5428 114.876 93.9086 114.876 M93.9086 111.172 Q99.7187 111.172 102.774 115.778 Q105.853 120.362 105.853 129.112 Q105.853 137.839 102.774 142.445 Q99.7187 147.028 93.9086 147.028 Q88.0984 147.028 85.0197 142.445 Q81.9642 137.839 81.9642 129.112 Q81.9642 120.362 85.0197 115.778 Q88.0984 111.172 93.9086 111.172 Z" fill="#000000" fill-rule="nonzero" fill-opacity="1" /><path clip-path="url(#clip090)" d="M124.07 114.876 Q120.459 114.876 118.631 118.44 Q116.825 121.982 116.825 129.112 Q116.825 136.218 118.631 139.783 Q120.459 143.325 124.07 143.325 Q127.705 143.325 129.51 139.783 Q131.339 136.218 131.339 129.112 Q131.339 121.982 129.51 118.44 Q127.705 114.876 124.07 114.876 M124.07 111.172 Q129.881 111.172 132.936 115.778 Q136.015 120.362 136.015 129.112 Q136.015 137.839 132.936 142.445 Q129.881 147.028 124.07 147.028 Q118.26 147.028 115.182 142.445 Q112.126 137.839 112.126 129.112 Q112.126 120.362 115.182 115.778 Q118.26 111.172 124.07 111.172 Z" fill="#000000" fill-rule="nonzero" fill-opacity="1" /><path clip-path="url(#clip090)" d="M1179.36 18.8205 L1179.36 65.8515 L1189.25 65.8515 Q1201.76 65.8515 1207.56 60.1802 Q1213.39 54.509 1213.39 42.2752 Q1213.39 30.1225 1207.56 24.4918 Q1201.76 18.8205 1189.25 18.8205 L1179.36 18.8205 M1171.18 12.096 L1187.99 12.096 Q1205.57 12.096 1213.79 19.4281 Q1222.02 26.7198 1222.02 42.2752 Q1222.02 57.9117 1213.75 65.2439 Q1205.49 72.576 1187.99 72.576 L1171.18 72.576 L1171.18 12.096 Z" fill="#000000" fill-rule="nonzero" fill-opacity="1" /><path clip-path="url(#clip090)" d="M1255.36 49.7694 Q1246.32 49.7694 1242.84 51.8354 Q1239.36 53.9013 1239.36 58.8839 Q1239.36 62.8538 1241.95 65.2034 Q1244.58 67.5124 1249.08 67.5124 Q1255.28 67.5124 1259 63.1374 Q1262.77 58.7219 1262.77 51.4303 L1262.77 49.7694 L1255.36 49.7694 M1270.22 46.6907 L1270.22 72.576 L1262.77 72.576 L1262.77 65.6895 Q1260.22 69.8214 1256.41 71.8063 Q1252.6 73.7508 1247.09 73.7508 Q1240.13 73.7508 1235.99 69.8619 Q1231.9 65.9325 1231.9 59.3701 Q1231.9 51.7138 1237.01 47.825 Q1242.15 43.9361 1252.32 43.9361 L1262.77 43.9361 L1262.77 43.2069 Q1262.77 38.0623 1259.37 35.2672 Q1256.01 32.4315 1249.89 32.4315 Q1246 32.4315 1242.31 33.3632 Q1238.63 34.295 1235.22 36.1584 L1235.22 29.2718 Q1239.32 27.692 1243.16 26.9223 Q1247.01 26.1121 1250.66 26.1121 Q1260.5 26.1121 1265.36 31.2163 Q1270.22 36.3204 1270.22 46.6907 Z" fill="#000000" fill-rule="nonzero" fill-opacity="1" /><path clip-path="url(#clip090)" d="M1292.95 14.324 L1292.95 27.2059 L1308.3 27.2059 L1308.3 32.9987 L1292.95 32.9987 L1292.95 57.6282 Q1292.95 63.1779 1294.45 64.7578 Q1295.99 66.3376 1300.65 66.3376 L1308.3 66.3376 L1308.3 72.576 L1300.65 72.576 Q1292.02 72.576 1288.74 69.3758 Q1285.46 66.1351 1285.46 57.6282 L1285.46 32.9987 L1279.99 32.9987 L1279.99 27.2059 L1285.46 27.2059 L1285.46 14.324 L1292.95 14.324 Z" fill="#000000" fill-rule="nonzero" fill-opacity="1" /><path clip-path="url(#clip090)" d="M1338.72 49.7694 Q1329.69 49.7694 1326.21 51.8354 Q1322.72 53.9013 1322.72 58.8839 Q1322.72 62.8538 1325.32 65.2034 Q1327.95 67.5124 1332.45 67.5124 Q1338.64 67.5124 1342.37 63.1374 Q1346.14 58.7219 1346.14 51.4303 L1346.14 49.7694 L1338.72 49.7694 M1353.59 46.6907 L1353.59 72.576 L1346.14 72.576 L1346.14 65.6895 Q1343.59 69.8214 1339.78 71.8063 Q1335.97 73.7508 1330.46 73.7508 Q1323.49 73.7508 1319.36 69.8619 Q1315.27 65.9325 1315.27 59.3701 Q1315.27 51.7138 1320.37 47.825 Q1325.52 43.9361 1335.69 43.9361 L1346.14 43.9361 L1346.14 43.2069 Q1346.14 38.0623 1342.74 35.2672 Q1339.37 32.4315 1333.26 32.4315 Q1329.37 32.4315 1325.68 33.3632 Q1321.99 34.295 1318.59 36.1584 L1318.59 29.2718 Q1322.68 27.692 1326.53 26.9223 Q1330.38 26.1121 1334.03 26.1121 Q1343.87 26.1121 1348.73 31.2163 Q1353.59 36.3204 1353.59 46.6907 Z" fill="#000000" fill-rule="nonzero" fill-opacity="1" /><polyline clip-path="url(#clip092)" style="stroke:#009af9; stroke-linecap:round; stroke-linejoin:round; stroke-width:4; stroke-opacity:1; fill:none" points="233.734,1447.87 233.734,1381.93 268.022,1381.93 268.022,1315.99 302.311,1315.99 302.311,1266.54 336.599,1266.54 336.599,1019.26 370.887,1019.26 370.887,1134.66 405.176,1134.66 405.176,1035.75 439.464,1035.75 439.464,953.325 473.753,953.325 473.753,788.475 508.041,788.475 508.041,804.96 542.329,804.96 542.329,969.81 576.618,969.81 576.618,689.565 610.906,689.565 610.906,821.445 645.194,821.445 645.194,887.385 679.483,887.385 679.483,1035.75 713.771,1035.75 713.771,1118.17 748.06,1118.17 748.06,1035.75 782.348,1035.75 782.348,1052.23 816.636,1052.23 816.636,1315.99 850.925,1315.99 850.925,1217.08 885.213,1217.08 885.213,1332.48 919.502,1332.48 919.502,1414.9 953.79,1414.9 953.79,1398.42 988.078,1398.42 988.078,1431.39 1022.37,1431.39 1022.37,1398.42 1056.66,1398.42 1056.66,1431.39 1090.94,1431.39 1090.94,1414.9 1125.23,1414.9 1125.23,1398.42 1159.52,1398.42 1159.52,1381.93 1193.81,1381.93 1193.81,1365.45 1228.1,1365.45 1228.1,1348.96 1262.39,1348.96 1262.39,1217.08 1296.67,1217.08 1296.67,1101.69 1330.96,1101.69 1330.96,854.415 1365.25,854.415 1365.25,936.84 1399.54,936.84 1399.54,673.08 1433.83,673.08 1433.83,425.806 1468.12,425.806 1468.12,508.231 1502.4,508.231 1502.4,326.896 1536.69,326.896 1536.69,178.532 1570.98,178.532 1570.98,162.047 1605.27,162.047 1605.27,277.442 1639.56,277.442 1639.56,162.047 1673.85,162.047 1673.85,195.017 1708.13,195.017 1708.13,524.716 1742.42,524.716 1742.42,557.686 1776.71,557.686 1776.71,804.96 1811,804.96 1811,854.415 1845.29,854.415 1845.29,1085.2 1879.58,1085.2 1879.58,1167.63 1913.86,1167.63 1913.86,1217.08 1948.15,1217.08 1948.15,1283.02 1982.44,1283.02 1982.44,1332.48 2016.73,1332.48 2016.73,1381.93 2051.02,1381.93 2051.02,1365.45 2085.31,1365.45 2085.31,1447.87 2119.59,1447.87 2153.88,1447.87 2188.17,1447.87 2222.46,1447.87 2256.75,1447.87 2291.04,1447.87 "/>
<path clip-path="url(#clip090)" d="M1957.75 272.585 L2280.06 272.585 L2280.06 168.905 L1957.75 168.905  Z" fill="#ffffff" fill-rule="evenodd" fill-opacity="1"/>
<polyline clip-path="url(#clip090)" style="stroke:#000000; stroke-linecap:round; stroke-linejoin:round; stroke-width:4; stroke-opacity:1; fill:none" points="1957.75,272.585 2280.06,272.585 2280.06,168.905 1957.75,168.905 1957.75,272.585 "/>
<polyline clip-path="url(#clip090)" style="stroke:#009af9; stroke-linecap:round; stroke-linejoin:round; stroke-width:4; stroke-opacity:1; fill:none" points="1981.99,220.745 2127.37,220.745 "/>
<path clip-path="url(#clip090)" d="M2156.27 207.307 L2156.27 234.182 L2161.92 234.182 Q2169.08 234.182 2172.39 230.941 Q2175.72 227.701 2175.72 220.71 Q2175.72 213.766 2172.39 210.548 Q2169.08 207.307 2161.92 207.307 L2156.27 207.307 M2151.6 203.465 L2161.2 203.465 Q2171.25 203.465 2175.95 207.654 Q2180.65 211.821 2180.65 220.71 Q2180.65 229.645 2175.93 233.835 Q2171.2 238.025 2161.2 238.025 L2151.6 238.025 L2151.6 203.465 Z" fill="#000000" fill-rule="nonzero" fill-opacity="1" /><path clip-path="url(#clip090)" d="M2199.7 224.992 Q2194.54 224.992 2192.55 226.173 Q2190.56 227.353 2190.56 230.201 Q2190.56 232.469 2192.04 233.812 Q2193.54 235.131 2196.11 235.131 Q2199.65 235.131 2201.78 232.631 Q2203.94 230.108 2203.94 225.941 L2203.94 224.992 L2199.7 224.992 M2208.2 223.233 L2208.2 238.025 L2203.94 238.025 L2203.94 234.089 Q2202.48 236.451 2200.3 237.585 Q2198.13 238.696 2194.98 238.696 Q2191 238.696 2188.64 236.474 Q2186.3 234.228 2186.3 230.478 Q2186.3 226.103 2189.21 223.881 Q2192.15 221.659 2197.96 221.659 L2203.94 221.659 L2203.94 221.242 Q2203.94 218.303 2201.99 216.705 Q2200.07 215.085 2196.58 215.085 Q2194.35 215.085 2192.25 215.617 Q2190.14 216.15 2188.2 217.215 L2188.2 213.279 Q2190.53 212.377 2192.73 211.937 Q2194.93 211.474 2197.01 211.474 Q2202.64 211.474 2205.42 214.391 Q2208.2 217.307 2208.2 223.233 Z" fill="#000000" fill-rule="nonzero" fill-opacity="1" /><path clip-path="url(#clip090)" d="M2221.18 204.738 L2221.18 212.099 L2229.95 212.099 L2229.95 215.409 L2221.18 215.409 L2221.18 229.483 Q2221.18 232.654 2222.04 233.557 Q2222.92 234.46 2225.58 234.46 L2229.95 234.46 L2229.95 238.025 L2225.58 238.025 Q2220.65 238.025 2218.77 236.196 Q2216.9 234.344 2216.9 229.483 L2216.9 215.409 L2213.77 215.409 L2213.77 212.099 L2216.9 212.099 L2216.9 204.738 L2221.18 204.738 Z" fill="#000000" fill-rule="nonzero" fill-opacity="1" /><path clip-path="url(#clip090)" d="M2247.34 224.992 Q2242.18 224.992 2240.19 226.173 Q2238.2 227.353 2238.2 230.201 Q2238.2 232.469 2239.68 233.812 Q2241.18 235.131 2243.75 235.131 Q2247.29 235.131 2249.42 232.631 Q2251.57 230.108 2251.57 225.941 L2251.57 224.992 L2247.34 224.992 M2255.83 223.233 L2255.83 238.025 L2251.57 238.025 L2251.57 234.089 Q2250.12 236.451 2247.94 237.585 Q2245.76 238.696 2242.62 238.696 Q2238.64 238.696 2236.27 236.474 Q2233.94 234.228 2233.94 230.478 Q2233.94 226.103 2236.85 223.881 Q2239.79 221.659 2245.6 221.659 L2251.57 221.659 L2251.57 221.242 Q2251.57 218.303 2249.63 216.705 Q2247.71 215.085 2244.21 215.085 Q2241.99 215.085 2239.89 215.617 Q2237.78 216.15 2235.83 217.215 L2235.83 213.279 Q2238.17 212.377 2240.37 211.937 Q2242.57 211.474 2244.65 211.474 Q2250.28 211.474 2253.06 214.391 Q2255.83 217.307 2255.83 223.233 Z" fill="#000000" fill-rule="nonzero" fill-opacity="1" /></svg>
