<?xml version="1.0" encoding="utf-8"?>
<svg xmlns="http://www.w3.org/2000/svg" xmlns:xlink="http://www.w3.org/1999/xlink" width="600" height="400" viewBox="0 0 2400 1600">
<defs>
  <clipPath id="clip1900">
    <rect x="0" y="0" width="2400" height="1600"/>
  </clipPath>
</defs>
<path clip-path="url(#clip1900)" d="
M0 1600 L2400 1600 L2400 0 L0 0  Z
  " fill="#ffffff" fill-rule="evenodd" fill-opacity="1"/>
<defs>
  <clipPath id="clip1901">
    <rect x="480" y="0" width="1681" height="1600"/>
  </clipPath>
</defs>
<path clip-path="url(#clip1900)" d="
M202.373 1425.62 L2352.76 1425.62 L2352.76 121.675 L202.373 121.675  Z
  " fill="#ffffff" fill-rule="evenodd" fill-opacity="1"/>
<defs>
  <clipPath id="clip1902">
    <rect x="202" y="121" width="2151" height="1305"/>
  </clipPath>
</defs>
<polyline clip-path="url(#clip1902)" style="stroke:#000000; stroke-width:2; stroke-opacity:0.1; fill:none" points="
  567.532,1425.62 567.532,121.675 
  "/>
<polyline clip-path="url(#clip1902)" style="stroke:#000000; stroke-width:2; stroke-opacity:0.1; fill:none" points="
  1074.7,1425.62 1074.7,121.675 
  "/>
<polyline clip-path="url(#clip1902)" style="stroke:#000000; stroke-width:2; stroke-opacity:0.1; fill:none" points="
  1581.86,1425.62 1581.86,121.675 
  "/>
<polyline clip-path="url(#clip1902)" style="stroke:#000000; stroke-width:2; stroke-opacity:0.1; fill:none" points="
  2089.03,1425.62 2089.03,121.675 
  "/>
<polyline clip-path="url(#clip1902)" style="stroke:#000000; stroke-width:2; stroke-opacity:0.1; fill:none" points="
  202.373,1388.71 2352.76,1388.71 
  "/>
<polyline clip-path="url(#clip1902)" style="stroke:#000000; stroke-width:2; stroke-opacity:0.1; fill:none" points="
  202.373,1020.61 2352.76,1020.61 
  "/>
<polyline clip-path="url(#clip1902)" style="stroke:#000000; stroke-width:2; stroke-opacity:0.1; fill:none" points="
  202.373,652.499 2352.76,652.499 
  "/>
<polyline clip-path="url(#clip1902)" style="stroke:#000000; stroke-width:2; stroke-opacity:0.1; fill:none" points="
  202.373,284.391 2352.76,284.391 
  "/>
<polyline clip-path="url(#clip1900)" style="stroke:#000000; stroke-width:4; stroke-opacity:1; fill:none" points="
  202.373,1425.62 2352.76,1425.62 
  "/>
<polyline clip-path="url(#clip1900)" style="stroke:#000000; stroke-width:4; stroke-opacity:1; fill:none" points="
  202.373,1425.62 202.373,121.675 
  "/>
<polyline clip-path="url(#clip1900)" style="stroke:#000000; stroke-width:4; stroke-opacity:1; fill:none" points="
  567.532,1425.62 567.532,1409.97 
  "/>
<polyline clip-path="url(#clip1900)" style="stroke:#000000; stroke-width:4; stroke-opacity:1; fill:none" points="
  1074.7,1425.62 1074.7,1409.97 
  "/>
<polyline clip-path="url(#clip1900)" style="stroke:#000000; stroke-width:4; stroke-opacity:1; fill:none" points="
  1581.86,1425.62 1581.86,1409.97 
  "/>
<polyline clip-path="url(#clip1900)" style="stroke:#000000; stroke-width:4; stroke-opacity:1; fill:none" points="
  2089.03,1425.62 2089.03,1409.97 
  "/>
<polyline clip-path="url(#clip1900)" style="stroke:#000000; stroke-width:4; stroke-opacity:1; fill:none" points="
  202.373,1388.71 228.178,1388.71 
  "/>
<polyline clip-path="url(#clip1900)" style="stroke:#000000; stroke-width:4; stroke-opacity:1; fill:none" points="
  202.373,1020.61 228.178,1020.61 
  "/>
<polyline clip-path="url(#clip1900)" style="stroke:#000000; stroke-width:4; stroke-opacity:1; fill:none" points="
  202.373,652.499 228.178,652.499 
  "/>
<polyline clip-path="url(#clip1900)" style="stroke:#000000; stroke-width:4; stroke-opacity:1; fill:none" points="
  202.373,284.391 228.178,284.391 
  "/>
<g clip-path="url(#clip1900)">
<text style="fill:#000000; fill-opacity:1; font-family:Arial,Helvetica Neue,Helvetica,sans-serif; font-size:48px; text-anchor:middle;" transform="rotate(0, 567.532, 1479.62)" x="567.532" y="1479.62">-1.05</text>
</g>
<g clip-path="url(#clip1900)">
<text style="fill:#000000; fill-opacity:1; font-family:Arial,Helvetica Neue,Helvetica,sans-serif; font-size:48px; text-anchor:middle;" transform="rotate(0, 1074.7, 1479.62)" x="1074.7" y="1479.62">-1.00</text>
</g>
<g clip-path="url(#clip1900)">
<text style="fill:#000000; fill-opacity:1; font-family:Arial,Helvetica Neue,Helvetica,sans-serif; font-size:48px; text-anchor:middle;" transform="rotate(0, 1581.86, 1479.62)" x="1581.86" y="1479.62">-0.95</text>
</g>
<g clip-path="url(#clip1900)">
<text style="fill:#000000; fill-opacity:1; font-family:Arial,Helvetica Neue,Helvetica,sans-serif; font-size:48px; text-anchor:middle;" transform="rotate(0, 2089.03, 1479.62)" x="2089.03" y="1479.62">-0.90</text>
</g>
<g clip-path="url(#clip1900)">
<text style="fill:#000000; fill-opacity:1; font-family:Arial,Helvetica Neue,Helvetica,sans-serif; font-size:48px; text-anchor:end;" transform="rotate(0, 178.373, 1406.21)" x="178.373" y="1406.21">0</text>
</g>
<g clip-path="url(#clip1900)">
<text style="fill:#000000; fill-opacity:1; font-family:Arial,Helvetica Neue,Helvetica,sans-serif; font-size:48px; text-anchor:end;" transform="rotate(0, 178.373, 1038.11)" x="178.373" y="1038.11">5</text>
</g>
<g clip-path="url(#clip1900)">
<text style="fill:#000000; fill-opacity:1; font-family:Arial,Helvetica Neue,Helvetica,sans-serif; font-size:48px; text-anchor:end;" transform="rotate(0, 178.373, 669.999)" x="178.373" y="669.999">10</text>
</g>
<g clip-path="url(#clip1900)">
<text style="fill:#000000; fill-opacity:1; font-family:Arial,Helvetica Neue,Helvetica,sans-serif; font-size:48px; text-anchor:end;" transform="rotate(0, 178.373, 301.891)" x="178.373" y="301.891">15</text>
</g>
<g clip-path="url(#clip1900)">
<text style="fill:#000000; fill-opacity:1; font-family:Arial,Helvetica Neue,Helvetica,sans-serif; font-size:84px; text-anchor:middle;" transform="rotate(0, 1277.56, 73.2)" x="1277.56" y="73.2">Marginalized Distribution for mu_1</text>
</g>
<g clip-path="url(#clip1900)">
<text style="fill:#000000; fill-opacity:1; font-family:Arial,Helvetica Neue,Helvetica,sans-serif; font-size:66px; text-anchor:middle;" transform="rotate(0, 1277.56, 1559.48)" x="1277.56" y="1559.48">mu_1</text>
</g>
<g clip-path="url(#clip1900)">
<text style="fill:#000000; fill-opacity:1; font-family:Arial,Helvetica Neue,Helvetica,sans-serif; font-size:66px; text-anchor:middle;" transform="rotate(-90, 89.2861, 773.647)" x="89.2861" y="773.647">P(mu_1)</text>
</g>
<path clip-path="url(#clip1902)" d="
M263.233 1388.71 L313.949 1388.71 L313.949 1388.71 L364.666 1388.71 L364.666 1388.71 L415.383 1388.71 L415.383 1388.71 L466.099 1388.71 L466.099 1388.71 L516.816 1388.71 
  L516.816 1388.71 L567.532 1388.71 L567.532 1377.73 L618.249 1377.73 L618.249 1357.17 L668.965 1357.17 L668.965 1343.15 L719.682 1343.15 L719.682 1300.62 L770.399 1300.62 
  L770.399 1245.02 L821.115 1245.02 L821.115 1189.41 L871.832 1189.41 L871.832 1098.76 L922.548 1098.76 L922.548 1017.01 L973.265 1017.01 L973.265 882.309 L1023.98 882.309 
  L1023.98 731.789 L1074.7 731.789 L1074.7 610.919 L1125.41 610.919 L1125.41 501.605 L1176.13 501.605 L1176.13 397.217 L1226.85 397.217 L1226.85 268.389 L1277.56 268.389 
  L1277.56 194.408 L1328.28 194.408 L1328.28 271.515 L1379 271.515 L1379 232.583 L1429.71 232.583 L1429.71 371.736 L1480.43 371.736 L1480.43 465.609 L1531.15 465.609 
  L1531.15 586.574 L1581.86 586.574 L1581.86 742.967 L1632.58 742.967 L1632.58 862.701 L1683.3 862.701 L1683.3 984.613 L1734.01 984.613 L1734.01 1084.64 L1784.73 1084.64 
  L1784.73 1205.14 L1835.45 1205.14 L1835.45 1263.58 L1886.16 1263.58 L1886.16 1314.35 L1936.88 1314.35 L1936.88 1344.57 L1987.6 1344.57 L1987.6 1352.72 L2038.31 1352.72 
  L2038.31 1373.75 L2089.03 1373.75 L2089.03 1388.71 L2139.75 1388.71 L2139.75 1388.71 L2190.46 1388.71 L2190.46 1388.71 L2241.18 1388.71 L2241.18 1388.71 L2291.9 1388.71 
  L2291.9 1388.71 L2291.9 1388.71 L2291.9 1388.71 L2241.18 1388.71 L2241.18 1388.71 L2190.46 1388.71 L2190.46 1388.71 L2139.75 1388.71 L2139.75 1388.71 L2089.03 1388.71 
  L2089.03 1388.71 L2038.31 1388.71 L2038.31 1388.71 L1987.6 1388.71 L1987.6 1388.71 L1936.88 1388.71 L1936.88 1388.71 L1886.16 1388.71 L1886.16 1388.71 L1835.45 1388.71 
  L1835.45 1388.71 L1784.73 1388.71 L1784.73 1388.71 L1734.01 1388.71 L1734.01 1388.71 L1683.3 1388.71 L1683.3 1388.71 L1632.58 1388.71 L1632.58 1388.71 L1581.86 1388.71 
  L1581.86 1388.71 L1531.15 1388.71 L1531.15 1388.71 L1480.43 1388.71 L1480.43 1388.71 L1429.71 1388.71 L1429.71 1388.71 L1379 1388.71 L1379 1388.71 L1328.28 1388.71 
  L1328.28 1388.71 L1277.56 1388.71 L1277.56 1388.71 L1226.85 1388.71 L1226.85 1388.71 L1176.13 1388.71 L1176.13 1388.71 L1125.41 1388.71 L1125.41 1388.71 L1074.7 1388.71 
  L1074.7 1388.71 L1023.98 1388.71 L1023.98 1388.71 L973.265 1388.71 L973.265 1388.71 L922.548 1388.71 L922.548 1388.71 L871.832 1388.71 L871.832 1388.71 L821.115 1388.71 
  L821.115 1388.71 L770.399 1388.71 L770.399 1388.71 L719.682 1388.71 L719.682 1388.71 L668.965 1388.71 L668.965 1388.71 L618.249 1388.71 L618.249 1388.71 L567.532 1388.71 
  L567.532 1388.71 L516.816 1388.71 L516.816 1388.71 L466.099 1388.71 L466.099 1388.71 L415.383 1388.71 L415.383 1388.71 L364.666 1388.71 L364.666 1388.71 L313.949 1388.71 
  L313.949 1388.71 L263.233 1388.71  Z
  " fill="#ff0000" fill-rule="evenodd" fill-opacity="1"/>
<polyline clip-path="url(#clip1902)" style="stroke:#009af9; stroke-width:0; stroke-opacity:1; fill:none" points="
  263.233,1388.71 313.949,1388.71 364.666,1388.71 415.383,1388.71 466.099,1388.71 516.816,1388.71 
  567.532,1388.71 567.532,1377.73 618.249,1377.73 618.249,1357.17 668.965,1357.17 668.965,1343.15 719.682,1343.15 719.682,1300.62 770.399,1300.62 
  770.399,1245.02 821.115,1245.02 821.115,1189.41 871.832,1189.41 871.832,1098.76 922.548,1098.76 922.548,1017.01 973.265,1017.01 973.265,882.309 1023.98,882.309 
  1023.98,731.789 1074.7,731.789 1074.7,610.919 1125.41,610.919 1125.41,501.605 1176.13,501.605 1176.13,397.217 1226.85,397.217 1226.85,268.389 1277.56,268.389 
  1277.56,194.408 1328.28,194.408 1328.28,271.515 1379,271.515 1379,232.583 1429.71,232.583 1429.71,371.736 1480.43,371.736 1480.43,465.609 1531.15,465.609 
  1531.15,586.574 1581.86,586.574 1581.86,742.967 1632.58,742.967 1632.58,862.701 1683.3,862.701 1683.3,984.613 1734.01,984.613 1734.01,1084.64 1784.73,1084.64 
  1784.73,1205.14 1835.45,1205.14 1835.45,1263.58 1886.16,1263.58 1886.16,1314.35 1936.88,1314.35 1936.88,1344.57 1987.6,1344.57 1987.6,1352.72 2038.31,1352.72 
  2038.31,1373.75 2089.03,1373.75 2089.03,1388.71 2139.75,1388.71 2190.46,1388.71 2241.18,1388.71 2291.9,1388.71 
  
  "/>
<path clip-path="url(#clip1902)" d="
M263.233 1388.71 L313.949 1388.71 L313.949 1388.71 L364.666 1388.71 L364.666 1388.71 L415.383 1388.71 L415.383 1388.71 L466.099 1388.71 L466.099 1388.71 L516.816 1388.71 
  L516.816 1388.71 L567.532 1388.71 L567.532 1388.71 L618.249 1388.71 L618.249 1388.71 L668.965 1388.71 L668.965 1388.71 L719.682 1388.71 L719.682 1388.71 L770.399 1388.71 
  L770.399 1388.71 L821.115 1388.71 L821.115 1189.41 L871.832 1189.41 L871.832 1098.76 L922.548 1098.76 L922.548 1017.01 L973.265 1017.01 L973.265 882.309 L1023.98 882.309 
  L1023.98 731.789 L1074.7 731.789 L1074.7 610.919 L1125.41 610.919 L1125.41 501.605 L1176.13 501.605 L1176.13 397.217 L1226.85 397.217 L1226.85 268.389 L1277.56 268.389 
  L1277.56 194.408 L1328.28 194.408 L1328.28 271.515 L1379 271.515 L1379 232.583 L1429.71 232.583 L1429.71 371.736 L1480.43 371.736 L1480.43 465.609 L1531.15 465.609 
  L1531.15 586.574 L1581.86 586.574 L1581.86 742.967 L1632.58 742.967 L1632.58 862.701 L1683.3 862.701 L1683.3 984.613 L1734.01 984.613 L1734.01 1084.64 L1784.73 1084.64 
  L1784.73 1205.14 L1835.45 1205.14 L1835.45 1388.71 L1886.16 1388.71 L1886.16 1388.71 L1936.88 1388.71 L1936.88 1388.71 L1987.6 1388.71 L1987.6 1388.71 L2038.31 1388.71 
  L2038.31 1388.71 L2089.03 1388.71 L2089.03 1388.71 L2139.75 1388.71 L2139.75 1388.71 L2190.46 1388.71 L2190.46 1388.71 L2241.18 1388.71 L2241.18 1388.71 L2291.9 1388.71 
  L2291.9 1388.71 L2291.9 1388.71 L2291.9 1388.71 L2241.18 1388.71 L2241.18 1388.71 L2190.46 1388.71 L2190.46 1388.71 L2139.75 1388.71 L2139.75 1388.71 L2089.03 1388.71 
  L2089.03 1388.71 L2038.31 1388.71 L2038.31 1388.71 L1987.6 1388.71 L1987.6 1388.71 L1936.88 1388.71 L1936.88 1388.71 L1886.16 1388.71 L1886.16 1388.71 L1835.45 1388.71 
  L1835.45 1388.71 L1784.73 1388.71 L1784.73 1388.71 L1734.01 1388.71 L1734.01 1388.71 L1683.3 1388.71 L1683.3 1388.71 L1632.58 1388.71 L1632.58 1388.71 L1581.86 1388.71 
  L1581.86 1388.71 L1531.15 1388.71 L1531.15 1388.71 L1480.43 1388.71 L1480.43 1388.71 L1429.71 1388.71 L1429.71 1388.71 L1379 1388.71 L1379 1388.71 L1328.28 1388.71 
  L1328.28 1388.71 L1277.56 1388.71 L1277.56 1388.71 L1226.85 1388.71 L1226.85 1388.71 L1176.13 1388.71 L1176.13 1388.71 L1125.41 1388.71 L1125.41 1388.71 L1074.7 1388.71 
  L1074.7 1388.71 L1023.98 1388.71 L1023.98 1388.71 L973.265 1388.71 L973.265 1388.71 L922.548 1388.71 L922.548 1388.71 L871.832 1388.71 L871.832 1388.71 L821.115 1388.71 
  L821.115 1388.71 L770.399 1388.71 L770.399 1388.71 L719.682 1388.71 L719.682 1388.71 L668.965 1388.71 L668.965 1388.71 L618.249 1388.71 L618.249 1388.71 L567.532 1388.71 
  L567.532 1388.71 L516.816 1388.71 L516.816 1388.71 L466.099 1388.71 L466.099 1388.71 L415.383 1388.71 L415.383 1388.71 L364.666 1388.71 L364.666 1388.71 L313.949 1388.71 
  L313.949 1388.71 L263.233 1388.71  Z
  " fill="#ffff00" fill-rule="evenodd" fill-opacity="1"/>
<polyline clip-path="url(#clip1902)" style="stroke:#e26f46; stroke-width:0; stroke-opacity:1; fill:none" points="
  263.233,1388.71 313.949,1388.71 364.666,1388.71 415.383,1388.71 466.099,1388.71 516.816,1388.71 
  567.532,1388.71 618.249,1388.71 668.965,1388.71 719.682,1388.71 770.399,1388.71 
  821.115,1388.71 821.115,1189.41 871.832,1189.41 871.832,1098.76 922.548,1098.76 922.548,1017.01 973.265,1017.01 973.265,882.309 1023.98,882.309 
  1023.98,731.789 1074.7,731.789 1074.7,610.919 1125.41,610.919 1125.41,501.605 1176.13,501.605 1176.13,397.217 1226.85,397.217 1226.85,268.389 1277.56,268.389 
  1277.56,194.408 1328.28,194.408 1328.28,271.515 1379,271.515 1379,232.583 1429.71,232.583 1429.71,371.736 1480.43,371.736 1480.43,465.609 1531.15,465.609 
  1531.15,586.574 1581.86,586.574 1581.86,742.967 1632.58,742.967 1632.58,862.701 1683.3,862.701 1683.3,984.613 1734.01,984.613 1734.01,1084.64 1784.73,1084.64 
  1784.73,1205.14 1835.45,1205.14 1835.45,1388.71 1886.16,1388.71 1936.88,1388.71 1987.6,1388.71 2038.31,1388.71 
  2089.03,1388.71 2139.75,1388.71 2190.46,1388.71 2241.18,1388.71 2291.9,1388.71 
  
  "/>
<path clip-path="url(#clip1902)" d="
M263.233 1388.71 L313.949 1388.71 L313.949 1388.71 L364.666 1388.71 L364.666 1388.71 L415.383 1388.71 L415.383 1388.71 L466.099 1388.71 L466.099 1388.71 L516.816 1388.71 
  L516.816 1388.71 L567.532 1388.71 L567.532 1388.71 L618.249 1388.71 L618.249 1388.71 L668.965 1388.71 L668.965 1388.71 L719.682 1388.71 L719.682 1388.71 L770.399 1388.71 
  L770.399 1388.71 L821.115 1388.71 L821.115 1388.71 L871.832 1388.71 L871.832 1388.71 L922.548 1388.71 L922.548 1388.71 L973.265 1388.71 L973.265 1388.71 L1023.98 1388.71 
  L1023.98 731.789 L1074.7 731.789 L1074.7 610.919 L1125.41 610.919 L1125.41 501.605 L1176.13 501.605 L1176.13 397.217 L1226.85 397.217 L1226.85 268.389 L1277.56 268.389 
  L1277.56 194.408 L1328.28 194.408 L1328.28 271.515 L1379 271.515 L1379 232.583 L1429.71 232.583 L1429.71 371.736 L1480.43 371.736 L1480.43 465.609 L1531.15 465.609 
  L1531.15 586.574 L1581.86 586.574 L1581.86 1388.71 L1632.58 1388.71 L1632.58 1388.71 L1683.3 1388.71 L1683.3 1388.71 L1734.01 1388.71 L1734.01 1388.71 L1784.73 1388.71 
  L1784.73 1388.71 L1835.45 1388.71 L1835.45 1388.71 L1886.16 1388.71 L1886.16 1388.71 L1936.88 1388.71 L1936.88 1388.71 L1987.6 1388.71 L1987.6 1388.71 L2038.31 1388.71 
  L2038.31 1388.71 L2089.03 1388.71 L2089.03 1388.71 L2139.75 1388.71 L2139.75 1388.71 L2190.46 1388.71 L2190.46 1388.71 L2241.18 1388.71 L2241.18 1388.71 L2291.9 1388.71 
  L2291.9 1388.71 L2291.9 1388.71 L2291.9 1388.71 L2241.18 1388.71 L2241.18 1388.71 L2190.46 1388.71 L2190.46 1388.71 L2139.75 1388.71 L2139.75 1388.71 L2089.03 1388.71 
  L2089.03 1388.71 L2038.31 1388.71 L2038.31 1388.71 L1987.6 1388.71 L1987.6 1388.71 L1936.88 1388.71 L1936.88 1388.71 L1886.16 1388.71 L1886.16 1388.71 L1835.45 1388.71 
  L1835.45 1388.71 L1784.73 1388.71 L1784.73 1388.71 L1734.01 1388.71 L1734.01 1388.71 L1683.3 1388.71 L1683.3 1388.71 L1632.58 1388.71 L1632.58 1388.71 L1581.86 1388.71 
  L1581.86 1388.71 L1531.15 1388.71 L1531.15 1388.71 L1480.43 1388.71 L1480.43 1388.71 L1429.71 1388.71 L1429.71 1388.71 L1379 1388.71 L1379 1388.71 L1328.28 1388.71 
  L1328.28 1388.71 L1277.56 1388.71 L1277.56 1388.71 L1226.85 1388.71 L1226.85 1388.71 L1176.13 1388.71 L1176.13 1388.71 L1125.41 1388.71 L1125.41 1388.71 L1074.7 1388.71 
  L1074.7 1388.71 L1023.98 1388.71 L1023.98 1388.71 L973.265 1388.71 L973.265 1388.71 L922.548 1388.71 L922.548 1388.71 L871.832 1388.71 L871.832 1388.71 L821.115 1388.71 
  L821.115 1388.71 L770.399 1388.71 L770.399 1388.71 L719.682 1388.71 L719.682 1388.71 L668.965 1388.71 L668.965 1388.71 L618.249 1388.71 L618.249 1388.71 L567.532 1388.71 
  L567.532 1388.71 L516.816 1388.71 L516.816 1388.71 L466.099 1388.71 L466.099 1388.71 L415.383 1388.71 L415.383 1388.71 L364.666 1388.71 L364.666 1388.71 L313.949 1388.71 
  L313.949 1388.71 L263.233 1388.71  Z
  " fill="#76ee00" fill-rule="evenodd" fill-opacity="1"/>
<polyline clip-path="url(#clip1902)" style="stroke:#3da44d; stroke-width:0; stroke-opacity:1; fill:none" points="
  263.233,1388.71 313.949,1388.71 364.666,1388.71 415.383,1388.71 466.099,1388.71 516.816,1388.71 
  567.532,1388.71 618.249,1388.71 668.965,1388.71 719.682,1388.71 770.399,1388.71 
  821.115,1388.71 871.832,1388.71 922.548,1388.71 973.265,1388.71 1023.98,1388.71 
  1023.98,731.789 1074.7,731.789 1074.7,610.919 1125.41,610.919 1125.41,501.605 1176.13,501.605 1176.13,397.217 1226.85,397.217 1226.85,268.389 1277.56,268.389 
  1277.56,194.408 1328.28,194.408 1328.28,271.515 1379,271.515 1379,232.583 1429.71,232.583 1429.71,371.736 1480.43,371.736 1480.43,465.609 1531.15,465.609 
  1531.15,586.574 1581.86,586.574 1581.86,1388.71 1632.58,1388.71 1683.3,1388.71 1734.01,1388.71 1784.73,1388.71 
  1835.45,1388.71 1886.16,1388.71 1936.88,1388.71 1987.6,1388.71 2038.31,1388.71 
  2089.03,1388.71 2139.75,1388.71 2190.46,1388.71 2241.18,1388.71 2291.9,1388.71 
  
  "/>
<polyline clip-path="url(#clip1902)" style="stroke:#000000; stroke-width:2.8; stroke-opacity:1; fill:none" points="
  263.233,1387.67 313.949,1387.67 313.949,1387.77 364.666,1387.77 364.666,1387.86 415.383,1387.86 415.383,1385.68 466.099,1385.68 466.099,1383.6 516.816,1383.6 
  516.816,1379.91 567.532,1379.91 567.532,1377.73 618.249,1377.73 618.249,1357.17 668.965,1357.17 668.965,1343.15 719.682,1343.15 719.682,1300.62 770.399,1300.62 
  770.399,1245.02 821.115,1245.02 821.115,1189.41 871.832,1189.41 871.832,1098.76 922.548,1098.76 922.548,1017.01 973.265,1017.01 973.265,882.309 1023.98,882.309 
  1023.98,731.789 1074.7,731.789 1074.7,610.919 1125.41,610.919 1125.41,501.605 1176.13,501.605 1176.13,397.217 1226.85,397.217 1226.85,268.389 1277.56,268.389 
  1277.56,194.408 1328.28,194.408 1328.28,271.515 1379,271.515 1379,232.583 1429.71,232.583 1429.71,371.736 1480.43,371.736 1480.43,465.609 1531.15,465.609 
  1531.15,586.574 1581.86,586.574 1581.86,742.967 1632.58,742.967 1632.58,862.701 1683.3,862.701 1683.3,984.613 1734.01,984.613 1734.01,1084.64 1784.73,1084.64 
  1784.73,1205.14 1835.45,1205.14 1835.45,1263.58 1886.16,1263.58 1886.16,1314.35 1936.88,1314.35 1936.88,1344.57 1987.6,1344.57 1987.6,1352.72 2038.31,1352.72 
  2038.31,1373.75 2089.03,1373.75 2089.03,1380.19 2139.75,1380.19 2139.75,1385.4 2190.46,1385.4 2190.46,1385.68 2241.18,1385.68 2241.18,1388.05 2291.9,1388.05 
  2291.9,1388.62 
  "/>
<path clip-path="url(#clip1902)" d="
M1075.59 1388.71 L1582.7 1388.71 L1582.7 158.579 L1075.59 158.579 L1075.59 1388.71  Z
  " fill="#808080" fill-rule="evenodd" fill-opacity="0.5"/>
<polyline clip-path="url(#clip1902)" style="stroke:#000000; stroke-width:0; stroke-opacity:1; fill:none" points="
  1075.59,1388.71 1582.7,1388.71 1582.7,158.579 1075.59,158.579 1075.59,1388.71 
  "/>
<polyline clip-path="url(#clip1902)" style="stroke:#696969; stroke-width:4; stroke-opacity:1; fill:none" points="
  1329.14,1388.71 1329.14,158.579 
  "/>
<polyline clip-path="url(#clip1902)" style="stroke:#000000; stroke-width:4; stroke-opacity:1; fill:none" stroke-dasharray="16, 10" points="
  1336.35,1388.71 1336.35,158.579 
  "/>
<polyline clip-path="url(#clip1902)" style="stroke:#000000; stroke-width:4; stroke-opacity:1; fill:none" stroke-dasharray="2, 4" points="
  1302.92,1388.71 1302.92,158.579 
  "/>
<path clip-path="url(#clip1900)" d="
M1463.01 689.035 L2280.76 689.035 L2280.76 205.195 L1463.01 205.195  Z
  " fill="#ffffff" fill-rule="evenodd" fill-opacity="1"/>
<polyline clip-path="url(#clip1900)" style="stroke:#000000; stroke-width:4; stroke-opacity:1; fill:none" points="
  1463.01,689.035 2280.76,689.035 2280.76,205.195 1463.01,205.195 1463.01,689.035 
  "/>
<path clip-path="url(#clip1900)" d="
M1487.01 289.867 L1631.01 289.867 L1631.01 241.483 L1487.01 241.483 L1487.01 289.867  Z
  " fill="#ff0000" fill-rule="evenodd" fill-opacity="1"/>
<polyline clip-path="url(#clip1900)" style="stroke:#009af9; stroke-width:0; stroke-opacity:1; fill:none" points="
  1487.01,241.483 1631.01,241.483 
  "/>
<g clip-path="url(#clip1900)">
<text style="fill:#000000; fill-opacity:1; font-family:Arial,Helvetica Neue,Helvetica,sans-serif; font-size:48px; text-anchor:start;" transform="rotate(0, 1655.01, 283.175)" x="1655.01" y="283.175">smallest 99.76% interval(s)</text>
</g>
<path clip-path="url(#clip1900)" d="
M1487.01 350.347 L1631.01 350.347 L1631.01 301.963 L1487.01 301.963 L1487.01 350.347  Z
  " fill="#ffff00" fill-rule="evenodd" fill-opacity="1"/>
<polyline clip-path="url(#clip1900)" style="stroke:#e26f46; stroke-width:0; stroke-opacity:1; fill:none" points="
  1487.01,301.963 1631.01,301.963 
  "/>
<g clip-path="url(#clip1900)">
<text style="fill:#000000; fill-opacity:1; font-family:Arial,Helvetica Neue,Helvetica,sans-serif; font-size:48px; text-anchor:start;" transform="rotate(0, 1655.01, 343.655)" x="1655.01" y="343.655">smallest 95.59% interval(s)</text>
</g>
<path clip-path="url(#clip1900)" d="
M1487.01 410.827 L1631.01 410.827 L1631.01 362.443 L1487.01 362.443 L1487.01 410.827  Z
  " fill="#76ee00" fill-rule="evenodd" fill-opacity="1"/>
<polyline clip-path="url(#clip1900)" style="stroke:#3da44d; stroke-width:0; stroke-opacity:1; fill:none" points="
  1487.01,362.443 1631.01,362.443 
  "/>
<g clip-path="url(#clip1900)">
<text style="fill:#000000; fill-opacity:1; font-family:Arial,Helvetica Neue,Helvetica,sans-serif; font-size:48px; text-anchor:start;" transform="rotate(0, 1655.01, 404.135)" x="1655.01" y="404.135">smallest 72.29% interval(s)</text>
</g>
<path clip-path="url(#clip1900)" d="
M1487.01 471.307 L1631.01 471.307 L1631.01 422.923 L1487.01 422.923 L1487.01 471.307  Z
  " fill="#808080" fill-rule="evenodd" fill-opacity="0.5"/>
<polyline clip-path="url(#clip1900)" style="stroke:#000000; stroke-width:0; stroke-opacity:1; fill:none" points="
  1487.01,471.307 1631.01,471.307 1631.01,422.923 1487.01,422.923 1487.01,471.307 
  "/>
<g clip-path="url(#clip1900)">
<text style="fill:#000000; fill-opacity:1; font-family:Arial,Helvetica Neue,Helvetica,sans-serif; font-size:48px; text-anchor:start;" transform="rotate(0, 1655.01, 464.615)" x="1655.01" y="464.615">std. dev.</text>
</g>
<polyline clip-path="url(#clip1900)" style="stroke:#696969; stroke-width:4; stroke-opacity:1; fill:none" points="
  1487.01,507.595 1631.01,507.595 
  "/>
<g clip-path="url(#clip1900)">
<text style="fill:#000000; fill-opacity:1; font-family:Arial,Helvetica Neue,Helvetica,sans-serif; font-size:48px; text-anchor:start;" transform="rotate(0, 1655.01, 525.095)" x="1655.01" y="525.095">mean</text>
</g>
<polyline clip-path="url(#clip1900)" style="stroke:#000000; stroke-width:4; stroke-opacity:1; fill:none" stroke-dasharray="16, 10" points="
  1487.01,568.075 1631.01,568.075 
  "/>
<g clip-path="url(#clip1900)">
<text style="fill:#000000; fill-opacity:1; font-family:Arial,Helvetica Neue,Helvetica,sans-serif; font-size:48px; text-anchor:start;" transform="rotate(0, 1655.01, 585.575)" x="1655.01" y="585.575">global mode</text>
</g>
<polyline clip-path="url(#clip1900)" style="stroke:#000000; stroke-width:4; stroke-opacity:1; fill:none" stroke-dasharray="2, 4" points="
  1487.01,628.555 1631.01,628.555 
  "/>
<g clip-path="url(#clip1900)">
<text style="fill:#000000; fill-opacity:1; font-family:Arial,Helvetica Neue,Helvetica,sans-serif; font-size:48px; text-anchor:start;" transform="rotate(0, 1655.01, 646.055)" x="1655.01" y="646.055">local mode</text>
</g>
</svg>
