<?xml version="1.0" encoding="utf-8"?>
<svg xmlns="http://www.w3.org/2000/svg" xmlns:xlink="http://www.w3.org/1999/xlink" width="600" height="400" viewBox="0 0 2400 1600">
<defs>
  <clipPath id="clip6500">
    <rect x="0" y="0" width="2400" height="1600"/>
  </clipPath>
</defs>
<path clip-path="url(#clip6500)" d="
M0 1600 L2400 1600 L2400 0 L0 0  Z
  " fill="#ffffff" fill-rule="evenodd" fill-opacity="1"/>
<defs>
  <clipPath id="clip6501">
    <rect x="480" y="0" width="1681" height="1600"/>
  </clipPath>
</defs>
<path clip-path="url(#clip6500)" d="
M167.279 1487.47 L2352.76 1487.47 L2352.76 121.675 L167.279 121.675  Z
  " fill="#ffffff" fill-rule="evenodd" fill-opacity="1"/>
<defs>
  <clipPath id="clip6502">
    <rect x="167" y="121" width="2186" height="1367"/>
  </clipPath>
</defs>
<polyline clip-path="url(#clip6502)" style="stroke:#000000; stroke-width:2; stroke-opacity:0.1; fill:none" points="
  229.132,1487.47 229.132,121.675 
  "/>
<polyline clip-path="url(#clip6502)" style="stroke:#000000; stroke-width:2; stroke-opacity:0.1; fill:none" points="
  744.575,1487.47 744.575,121.675 
  "/>
<polyline clip-path="url(#clip6502)" style="stroke:#000000; stroke-width:2; stroke-opacity:0.1; fill:none" points="
  1260.02,1487.47 1260.02,121.675 
  "/>
<polyline clip-path="url(#clip6502)" style="stroke:#000000; stroke-width:2; stroke-opacity:0.1; fill:none" points="
  1775.46,1487.47 1775.46,121.675 
  "/>
<polyline clip-path="url(#clip6502)" style="stroke:#000000; stroke-width:2; stroke-opacity:0.1; fill:none" points="
  2290.9,1487.47 2290.9,121.675 
  "/>
<polyline clip-path="url(#clip6502)" style="stroke:#000000; stroke-width:2; stroke-opacity:0.1; fill:none" points="
  167.279,1448.82 2352.76,1448.82 
  "/>
<polyline clip-path="url(#clip6502)" style="stroke:#000000; stroke-width:2; stroke-opacity:0.1; fill:none" points="
  167.279,1171.73 2352.76,1171.73 
  "/>
<polyline clip-path="url(#clip6502)" style="stroke:#000000; stroke-width:2; stroke-opacity:0.1; fill:none" points="
  167.279,894.631 2352.76,894.631 
  "/>
<polyline clip-path="url(#clip6502)" style="stroke:#000000; stroke-width:2; stroke-opacity:0.1; fill:none" points="
  167.279,617.536 2352.76,617.536 
  "/>
<polyline clip-path="url(#clip6502)" style="stroke:#000000; stroke-width:2; stroke-opacity:0.1; fill:none" points="
  167.279,340.441 2352.76,340.441 
  "/>
<polyline clip-path="url(#clip6500)" style="stroke:#000000; stroke-width:4; stroke-opacity:1; fill:none" points="
  167.279,1487.47 2352.76,1487.47 
  "/>
<polyline clip-path="url(#clip6500)" style="stroke:#000000; stroke-width:4; stroke-opacity:1; fill:none" points="
  167.279,1487.47 167.279,121.675 
  "/>
<polyline clip-path="url(#clip6500)" style="stroke:#000000; stroke-width:4; stroke-opacity:1; fill:none" points="
  229.132,1487.47 229.132,1471.09 
  "/>
<polyline clip-path="url(#clip6500)" style="stroke:#000000; stroke-width:4; stroke-opacity:1; fill:none" points="
  744.575,1487.47 744.575,1471.09 
  "/>
<polyline clip-path="url(#clip6500)" style="stroke:#000000; stroke-width:4; stroke-opacity:1; fill:none" points="
  1260.02,1487.47 1260.02,1471.09 
  "/>
<polyline clip-path="url(#clip6500)" style="stroke:#000000; stroke-width:4; stroke-opacity:1; fill:none" points="
  1775.46,1487.47 1775.46,1471.09 
  "/>
<polyline clip-path="url(#clip6500)" style="stroke:#000000; stroke-width:4; stroke-opacity:1; fill:none" points="
  2290.9,1487.47 2290.9,1471.09 
  "/>
<polyline clip-path="url(#clip6500)" style="stroke:#000000; stroke-width:4; stroke-opacity:1; fill:none" points="
  167.279,1448.82 193.505,1448.82 
  "/>
<polyline clip-path="url(#clip6500)" style="stroke:#000000; stroke-width:4; stroke-opacity:1; fill:none" points="
  167.279,1171.73 193.505,1171.73 
  "/>
<polyline clip-path="url(#clip6500)" style="stroke:#000000; stroke-width:4; stroke-opacity:1; fill:none" points="
  167.279,894.631 193.505,894.631 
  "/>
<polyline clip-path="url(#clip6500)" style="stroke:#000000; stroke-width:4; stroke-opacity:1; fill:none" points="
  167.279,617.536 193.505,617.536 
  "/>
<polyline clip-path="url(#clip6500)" style="stroke:#000000; stroke-width:4; stroke-opacity:1; fill:none" points="
  167.279,340.441 193.505,340.441 
  "/>
<g clip-path="url(#clip6500)">
<text style="fill:#000000; fill-opacity:1; font-family:Arial,Helvetica Neue,Helvetica,sans-serif; font-size:48px; text-anchor:middle;" transform="rotate(0, 229.132, 1541.47)" x="229.132" y="1541.47">-4</text>
</g>
<g clip-path="url(#clip6500)">
<text style="fill:#000000; fill-opacity:1; font-family:Arial,Helvetica Neue,Helvetica,sans-serif; font-size:48px; text-anchor:middle;" transform="rotate(0, 744.575, 1541.47)" x="744.575" y="1541.47">-2</text>
</g>
<g clip-path="url(#clip6500)">
<text style="fill:#000000; fill-opacity:1; font-family:Arial,Helvetica Neue,Helvetica,sans-serif; font-size:48px; text-anchor:middle;" transform="rotate(0, 1260.02, 1541.47)" x="1260.02" y="1541.47">0</text>
</g>
<g clip-path="url(#clip6500)">
<text style="fill:#000000; fill-opacity:1; font-family:Arial,Helvetica Neue,Helvetica,sans-serif; font-size:48px; text-anchor:middle;" transform="rotate(0, 1775.46, 1541.47)" x="1775.46" y="1541.47">2</text>
</g>
<g clip-path="url(#clip6500)">
<text style="fill:#000000; fill-opacity:1; font-family:Arial,Helvetica Neue,Helvetica,sans-serif; font-size:48px; text-anchor:middle;" transform="rotate(0, 2290.9, 1541.47)" x="2290.9" y="1541.47">4</text>
</g>
<g clip-path="url(#clip6500)">
<text style="fill:#000000; fill-opacity:1; font-family:Arial,Helvetica Neue,Helvetica,sans-serif; font-size:48px; text-anchor:end;" transform="rotate(0, 143.279, 1466.32)" x="143.279" y="1466.32">0</text>
</g>
<g clip-path="url(#clip6500)">
<text style="fill:#000000; fill-opacity:1; font-family:Arial,Helvetica Neue,Helvetica,sans-serif; font-size:48px; text-anchor:end;" transform="rotate(0, 143.279, 1189.23)" x="143.279" y="1189.23">200</text>
</g>
<g clip-path="url(#clip6500)">
<text style="fill:#000000; fill-opacity:1; font-family:Arial,Helvetica Neue,Helvetica,sans-serif; font-size:48px; text-anchor:end;" transform="rotate(0, 143.279, 912.131)" x="143.279" y="912.131">400</text>
</g>
<g clip-path="url(#clip6500)">
<text style="fill:#000000; fill-opacity:1; font-family:Arial,Helvetica Neue,Helvetica,sans-serif; font-size:48px; text-anchor:end;" transform="rotate(0, 143.279, 635.036)" x="143.279" y="635.036">600</text>
</g>
<g clip-path="url(#clip6500)">
<text style="fill:#000000; fill-opacity:1; font-family:Arial,Helvetica Neue,Helvetica,sans-serif; font-size:48px; text-anchor:end;" transform="rotate(0, 143.279, 357.941)" x="143.279" y="357.941">800</text>
</g>
<g clip-path="url(#clip6500)">
<text style="fill:#000000; fill-opacity:1; font-family:Arial,Helvetica Neue,Helvetica,sans-serif; font-size:84px; text-anchor:middle;" transform="rotate(0, 1260.02, 73.2)" x="1260.02" y="73.2">Data, True Model and Best Fit</text>
</g>
<polyline clip-path="url(#clip6502)" style="stroke:#009af9; stroke-width:4; stroke-opacity:1; fill:none" points="
  744.575,1448.82 744.575,1379.55 770.347,1379.55 770.347,1337.98 796.119,1337.98 796.119,1282.56 821.891,1282.56 821.891,1199.43 847.663,1199.43 847.663,1088.6 
  873.436,1088.6 873.436,1102.45 899.208,1102.45 899.208,936.195 924.98,936.195 924.98,991.614 950.752,991.614 976.524,991.614 976.524,936.195 
  1002.3,936.195 1002.3,866.921 1028.07,866.921 1028.07,950.05 1053.84,950.05 1053.84,1033.18 1079.61,1033.18 1079.61,950.05 1105.38,950.05 1105.38,1060.89 
  1131.16,1060.89 1131.16,1102.45 1156.93,1102.45 1156.93,1185.58 1182.7,1185.58 1182.7,1337.98 1208.47,1337.98 1208.47,1324.13 1234.25,1324.13 1234.25,1407.26 
  1260.02,1407.26 1260.02,1296.42 1285.79,1296.42 1285.79,1393.4 1311.56,1393.4 1311.56,1421.11 1337.33,1421.11 1337.33,1448.82 1363.11,1448.82 1363.11,1407.26 
  1388.88,1407.26 1388.88,1448.82 1414.65,1448.82 1414.65,1393.4 1440.42,1393.4 1440.42,1421.11 1466.19,1421.11 1466.19,1379.55 1491.97,1379.55 1491.97,1310.27 
  1517.74,1310.27 1517.74,1282.56 1543.51,1282.56 1543.51,1144.02 1569.28,1144.02 1595.06,1144.02 1595.06,1005.47 1620.83,1005.47 1620.83,769.938 
  1646.6,769.938 1646.6,756.083 1672.37,756.083 1672.37,645.245 1698.14,645.245 1698.14,451.279 1723.92,451.279 1723.92,382.006 1749.69,382.006 1749.69,437.425 
  1775.46,437.425 1775.46,423.57 1801.23,423.57 1801.23,160.33 1827,160.33 1827,478.989 1852.78,478.989 1852.78,548.262 1878.55,548.262 1878.55,839.212 
  1904.32,839.212 1904.32,686.81 1930.09,686.81 1930.09,950.05 1955.87,950.05 1955.87,1130.16 1981.64,1130.16 1981.64,1171.73 2007.41,1171.73 2007.41,1351.84 
  2033.18,1351.84 2033.18,1268.71 2058.95,1268.71 2058.95,1407.26 2084.73,1407.26 2110.5,1407.26 2110.5,1421.11 2136.27,1421.11 2136.27,1434.97 
  2162.04,1434.97 2162.04,1448.82 2187.81,1448.82 2213.59,1448.82 2239.36,1448.82 2265.13,1448.82 
  2290.9,1448.82 
  "/>
<polyline clip-path="url(#clip6502)" style="stroke:#e26f46; stroke-width:4; stroke-opacity:1; fill:none" points="
  229.132,1448.82 231.709,1448.82 234.287,1448.82 236.864,1448.82 239.441,1448.82 242.018,1448.82 244.596,1448.82 247.173,1448.82 249.75,1448.82 252.327,1448.82 
  254.904,1448.82 257.482,1448.82 260.059,1448.82 262.636,1448.82 265.213,1448.82 267.79,1448.82 270.368,1448.82 272.945,1448.82 275.522,1448.82 278.099,1448.82 
  280.677,1448.82 283.254,1448.82 285.831,1448.82 288.408,1448.82 290.985,1448.82 293.563,1448.82 296.14,1448.82 298.717,1448.82 301.294,1448.82 303.871,1448.82 
  306.449,1448.82 309.026,1448.82 311.603,1448.82 314.18,1448.82 316.758,1448.82 319.335,1448.82 321.912,1448.82 324.489,1448.82 327.066,1448.82 329.644,1448.82 
  332.221,1448.82 334.798,1448.82 337.375,1448.82 339.952,1448.82 342.53,1448.82 345.107,1448.82 347.684,1448.82 350.261,1448.82 352.838,1448.82 355.416,1448.82 
  357.993,1448.82 360.57,1448.82 363.147,1448.82 365.725,1448.82 368.302,1448.82 370.879,1448.82 373.456,1448.82 376.033,1448.82 378.611,1448.82 381.188,1448.82 
  383.765,1448.81 386.342,1448.81 388.919,1448.81 391.497,1448.81 394.074,1448.81 396.651,1448.81 399.228,1448.81 401.806,1448.81 404.383,1448.81 406.96,1448.81 
  409.537,1448.81 412.114,1448.8 414.692,1448.8 417.269,1448.8 419.846,1448.8 422.423,1448.8 425,1448.8 427.578,1448.79 430.155,1448.79 432.732,1448.79 
  435.309,1448.79 437.887,1448.78 440.464,1448.78 443.041,1448.78 445.618,1448.77 448.195,1448.77 450.773,1448.76 453.35,1448.76 455.927,1448.75 458.504,1448.74 
  461.081,1448.74 463.659,1448.73 466.236,1448.72 468.813,1448.72 471.39,1448.71 473.968,1448.7 476.545,1448.69 479.122,1448.67 481.699,1448.66 484.276,1448.65 
  486.854,1448.63 489.431,1448.62 492.008,1448.6 494.585,1448.58 497.162,1448.57 499.74,1448.54 502.317,1448.52 504.894,1448.5 507.471,1448.47 510.048,1448.45 
  512.626,1448.42 515.203,1448.38 517.78,1448.35 520.357,1448.31 522.935,1448.27 525.512,1448.23 528.089,1448.19 530.666,1448.14 533.243,1448.09 535.821,1448.03 
  538.398,1447.97 540.975,1447.91 543.552,1447.84 546.129,1447.77 548.707,1447.69 551.284,1447.61 553.861,1447.52 556.438,1447.43 559.016,1447.33 561.593,1447.23 
  564.17,1447.11 566.747,1446.99 569.324,1446.87 571.902,1446.73 574.479,1446.59 577.056,1446.43 579.633,1446.27 582.21,1446.1 584.788,1445.92 587.365,1445.72 
  589.942,1445.52 592.519,1445.3 595.097,1445.07 597.674,1444.82 600.251,1444.57 602.828,1444.29 605.405,1444.01 607.983,1443.7 610.56,1443.38 613.137,1443.04 
  615.714,1442.68 618.291,1442.3 620.869,1441.9 623.446,1441.48 626.023,1441.04 628.6,1440.57 631.178,1440.08 633.755,1439.57 636.332,1439.02 638.909,1438.45 
  641.486,1437.85 644.064,1437.22 646.641,1436.56 649.218,1435.87 651.795,1435.14 654.372,1434.38 656.95,1433.58 659.527,1432.75 662.104,1431.87 664.681,1430.96 
  667.258,1430 669.836,1429 672.413,1427.96 674.99,1426.86 677.567,1425.72 680.145,1424.54 682.722,1423.3 685.299,1422 687.876,1420.66 690.453,1419.25 
  693.031,1417.79 695.608,1416.27 698.185,1414.69 700.762,1413.05 703.339,1411.35 705.917,1409.57 708.494,1407.73 711.071,1405.83 713.648,1403.85 716.226,1401.8 
  718.803,1399.67 721.38,1397.47 723.957,1395.19 726.534,1392.84 729.112,1390.4 731.689,1387.88 734.266,1385.28 736.843,1382.59 739.42,1379.82 741.998,1376.96 
  744.575,1374.02 747.152,1370.98 749.729,1367.85 752.307,1364.63 754.884,1361.32 757.461,1357.91 760.038,1354.41 762.615,1350.81 765.193,1347.12 767.77,1343.33 
  770.347,1339.44 772.924,1335.45 775.501,1331.36 778.079,1327.18 780.656,1322.9 783.233,1318.52 785.81,1314.04 788.388,1309.46 790.965,1304.78 793.542,1300.01 
  796.119,1295.14 798.696,1290.18 801.274,1285.12 803.851,1279.96 806.428,1274.72 809.005,1269.38 811.582,1263.95 814.16,1258.43 816.737,1252.83 819.314,1247.14 
  821.891,1241.38 824.469,1235.53 827.046,1229.6 829.623,1223.6 832.2,1217.53 834.777,1211.39 837.355,1205.19 839.932,1198.92 842.509,1192.59 845.086,1186.21 
  847.663,1179.78 850.241,1173.3 852.818,1166.78 855.395,1160.22 857.972,1153.62 860.549,1146.99 863.127,1140.34 865.704,1133.67 868.281,1126.98 870.858,1120.28 
  873.436,1113.58 876.013,1106.87 878.59,1100.17 881.167,1093.49 883.744,1086.81 886.322,1080.17 888.899,1073.55 891.476,1066.96 894.053,1060.41 896.63,1053.91 
  899.208,1047.46 901.785,1041.07 904.362,1034.74 906.939,1028.48 909.517,1022.3 912.094,1016.2 914.671,1010.19 917.248,1004.27 919.825,998.455 922.403,992.744 
  924.98,987.146 927.557,981.666 930.134,976.31 932.711,971.084 935.289,965.993 937.866,961.043 940.443,956.239 943.02,951.587 945.598,947.092 948.175,942.758 
  950.752,938.592 953.329,934.596 955.906,930.777 958.484,927.138 961.061,923.683 963.638,920.417 966.215,917.344 968.792,914.466 971.37,911.788 973.947,909.312 
  976.524,907.041 979.101,904.978 981.679,903.126 984.256,901.486 986.833,900.061 989.41,898.853 991.987,897.862 994.565,897.09 997.142,896.538 999.719,896.207 
  1002.3,896.096 1004.87,896.207 1007.45,896.538 1010.03,897.09 1012.61,897.862 1015.18,898.853 1017.76,900.061 1020.34,901.486 1022.91,903.126 1025.49,904.978 
  1028.07,907.041 1030.65,909.311 1033.22,911.787 1035.8,914.466 1038.38,917.344 1040.95,920.417 1043.53,923.683 1046.11,927.138 1048.69,930.777 1051.26,934.596 
  1053.84,938.591 1056.42,942.758 1058.99,947.092 1061.57,951.587 1064.15,956.239 1066.73,961.043 1069.3,965.993 1071.88,971.084 1074.46,976.31 1077.04,981.666 
  1079.61,987.146 1082.19,992.744 1084.77,998.454 1087.34,1004.27 1089.92,1010.19 1092.5,1016.2 1095.08,1022.3 1097.65,1028.48 1100.23,1034.74 1102.81,1041.07 
  1105.38,1047.46 1107.96,1053.91 1110.54,1060.41 1113.12,1066.96 1115.69,1073.54 1118.27,1080.16 1120.85,1086.81 1123.43,1093.48 1126,1100.17 1128.58,1106.87 
  1131.16,1113.57 1133.73,1120.28 1136.31,1126.97 1138.89,1133.66 1141.47,1140.33 1144.04,1146.98 1146.62,1153.61 1149.2,1160.21 1151.77,1166.77 1154.35,1173.29 
  1156.93,1179.77 1159.51,1186.2 1162.08,1192.58 1164.66,1198.91 1167.24,1205.17 1169.82,1211.38 1172.39,1217.51 1174.97,1223.58 1177.55,1229.58 1180.12,1235.5 
  1182.7,1241.35 1185.28,1247.11 1187.86,1252.8 1190.43,1258.4 1193.01,1263.91 1195.59,1269.33 1198.16,1274.67 1200.74,1279.91 1203.32,1285.06 1205.9,1290.11 
  1208.47,1295.07 1211.05,1299.94 1213.63,1304.7 1216.2,1309.37 1218.78,1313.94 1221.36,1318.41 1223.94,1322.78 1226.51,1327.05 1229.09,1331.23 1231.67,1335.3 
  1234.25,1339.27 1236.82,1343.15 1239.4,1346.92 1241.98,1350.6 1244.55,1354.18 1247.13,1357.66 1249.71,1361.05 1252.29,1364.34 1254.86,1367.54 1257.44,1370.64 
  1260.02,1373.65 1262.59,1376.56 1265.17,1379.39 1267.75,1382.12 1270.33,1384.77 1272.9,1387.33 1275.48,1389.81 1278.06,1392.19 1280.64,1394.5 1283.21,1396.72 
  1285.79,1398.86 1288.37,1400.92 1290.94,1402.91 1293.52,1404.81 1296.1,1406.64 1298.68,1408.4 1301.25,1410.08 1303.83,1411.69 1306.41,1413.23 1308.98,1414.7 
  1311.56,1416.1 1314.14,1417.43 1316.72,1418.7 1319.29,1419.9 1321.87,1421.04 1324.45,1422.12 1327.03,1423.13 1329.6,1424.08 1332.18,1424.98 1334.76,1425.81 
  1337.33,1426.59 1339.91,1427.3 1342.49,1427.96 1345.07,1428.57 1347.64,1429.12 1350.22,1429.61 1352.8,1430.05 1355.37,1430.43 1357.95,1430.76 1360.53,1431.03 
  1363.11,1431.25 1365.68,1431.41 1368.26,1431.52 1370.84,1431.58 1373.41,1431.58 1375.99,1431.52 1378.57,1431.41 1381.15,1431.24 1383.72,1431.02 1386.3,1430.74 
  1388.88,1430.4 1391.46,1430 1394.03,1429.54 1396.61,1429.02 1399.19,1428.44 1401.76,1427.8 1404.34,1427.09 1406.92,1426.32 1409.5,1425.48 1412.07,1424.56 
  1414.65,1423.58 1417.23,1422.53 1419.8,1421.4 1422.38,1420.2 1424.96,1418.92 1427.54,1417.56 1430.11,1416.11 1432.69,1414.59 1435.27,1412.97 1437.85,1411.27 
  1440.42,1409.48 1443,1407.59 1445.58,1405.6 1448.15,1403.52 1450.73,1401.33 1453.31,1399.04 1455.89,1396.64 1458.46,1394.13 1461.04,1391.51 1463.62,1388.78 
  1466.19,1385.92 1468.77,1382.94 1471.35,1379.83 1473.93,1376.6 1476.5,1373.24 1479.08,1369.74 1481.66,1366.1 1484.24,1362.33 1486.81,1358.4 1489.39,1354.34 
  1491.97,1350.12 1494.54,1345.75 1497.12,1341.22 1499.7,1336.53 1502.28,1331.68 1504.85,1326.67 1507.43,1321.49 1510.01,1316.13 1512.58,1310.61 1515.16,1304.91 
  1517.74,1299.03 1520.32,1292.97 1522.89,1286.73 1525.47,1280.3 1528.05,1273.68 1530.62,1266.88 1533.2,1259.88 1535.78,1252.7 1538.36,1245.32 1540.93,1237.74 
  1543.51,1229.97 1546.09,1222 1548.67,1213.84 1551.24,1205.48 1553.82,1196.92 1556.4,1188.16 1558.97,1179.21 1561.55,1170.06 1564.13,1160.71 1566.71,1151.17 
  1569.28,1141.43 1571.86,1131.5 1574.44,1121.38 1577.01,1111.08 1579.59,1100.59 1582.17,1089.91 1584.75,1079.06 1587.32,1068.03 1589.9,1056.83 1592.48,1045.45 
  1595.06,1033.92 1597.63,1022.22 1600.21,1010.38 1602.79,998.378 1605.36,986.237 1607.94,973.958 1610.52,961.548 1613.1,949.014 1615.67,936.362 1618.25,923.6 
  1620.83,910.735 1623.4,897.776 1625.98,884.73 1628.56,871.606 1631.14,858.413 1633.71,845.16 1636.29,831.856 1638.87,818.511 1641.45,805.135 1644.02,791.738 
  1646.6,778.33 1649.18,764.922 1651.75,751.525 1654.33,738.15 1656.91,724.808 1659.49,711.511 1662.06,698.269 1664.64,685.096 1667.22,672.001 1669.79,658.999 
  1672.37,646.099 1674.95,633.316 1677.53,620.66 1680.1,608.144 1682.68,595.78 1685.26,583.581 1687.83,571.558 1690.41,559.723 1692.99,548.09 1695.57,536.669 
  1698.14,525.472 1700.72,514.512 1703.3,503.8 1705.88,493.348 1708.45,483.166 1711.03,473.266 1713.61,463.658 1716.18,454.354 1718.76,445.363 1721.34,436.697 
  1723.92,428.363 1726.49,420.372 1729.07,412.734 1731.65,405.456 1734.22,398.547 1736.8,392.015 1739.38,385.867 1741.96,380.112 1744.53,374.755 1747.11,369.803 
  1749.69,365.262 1752.27,361.136 1754.84,357.432 1757.42,354.153 1760,351.303 1762.57,348.886 1765.15,346.904 1767.73,345.36 1770.31,344.256 1772.88,343.593 
  1775.46,343.372 1778.04,343.593 1780.61,344.256 1783.19,345.36 1785.77,346.904 1788.35,348.886 1790.92,351.303 1793.5,354.153 1796.08,357.432 1798.66,361.136 
  1801.23,365.262 1803.81,369.803 1806.39,374.755 1808.96,380.112 1811.54,385.867 1814.12,392.015 1816.7,398.547 1819.27,405.456 1821.85,412.734 1824.43,420.372 
  1827,428.363 1829.58,436.697 1832.16,445.364 1834.74,454.354 1837.31,463.658 1839.89,473.266 1842.47,483.166 1845.04,493.348 1847.62,503.8 1850.2,514.512 
  1852.78,525.472 1855.35,536.669 1857.93,548.09 1860.51,559.724 1863.09,571.558 1865.66,583.581 1868.24,595.781 1870.82,608.145 1873.39,620.661 1875.97,633.316 
  1878.55,646.1 1881.13,658.999 1883.7,672.002 1886.28,685.097 1888.86,698.27 1891.43,711.512 1894.01,724.81 1896.59,738.152 1899.17,751.527 1901.74,764.924 
  1904.32,778.332 1906.9,791.74 1909.48,805.137 1912.05,818.514 1914.63,831.859 1917.21,845.163 1919.78,858.417 1922.36,871.61 1924.94,884.735 1927.52,897.781 
  1930.09,910.741 1932.67,923.606 1935.25,936.369 1937.82,949.021 1940.4,961.556 1942.98,973.967 1945.56,986.246 1948.13,998.389 1950.71,1010.39 1953.29,1022.24 
  1955.87,1033.93 1958.44,1045.47 1961.02,1056.84 1963.6,1068.05 1966.17,1079.08 1968.75,1089.93 1971.33,1100.61 1973.91,1111.1 1976.48,1121.41 1979.06,1131.53 
  1981.64,1141.46 1984.21,1151.2 1986.79,1160.75 1989.37,1170.1 1991.95,1179.26 1994.52,1188.22 1997.1,1196.98 1999.68,1205.54 2002.25,1213.91 2004.83,1222.08 
  2007.41,1230.05 2009.99,1237.83 2012.56,1245.41 2015.14,1252.8 2017.72,1260 2020.3,1267 2022.87,1273.82 2025.45,1280.44 2028.03,1286.88 2030.6,1293.14 
  2033.18,1299.21 2035.76,1305.11 2038.34,1310.83 2040.91,1316.37 2043.49,1321.74 2046.07,1326.94 2048.64,1331.98 2051.22,1336.85 2053.8,1341.57 2056.38,1346.12 
  2058.95,1350.52 2061.53,1354.77 2064.11,1358.87 2066.69,1362.83 2069.26,1366.65 2071.84,1370.33 2074.42,1373.87 2076.99,1377.28 2079.57,1380.57 2082.15,1383.73 
  2084.73,1386.77 2087.3,1389.69 2089.88,1392.49 2092.46,1395.18 2095.03,1397.77 2097.61,1400.25 2100.19,1402.63 2102.77,1404.91 2105.34,1407.09 2107.92,1409.18 
  2110.5,1411.18 2113.08,1413.1 2115.65,1414.93 2118.23,1416.68 2120.81,1418.35 2123.38,1419.94 2125.96,1421.47 2128.54,1422.92 2131.12,1424.31 2133.69,1425.63 
  2136.27,1426.89 2138.85,1428.09 2141.42,1429.23 2144,1430.31 2146.58,1431.34 2149.16,1432.33 2151.73,1433.26 2154.31,1434.14 2156.89,1434.98 2159.46,1435.78 
  2162.04,1436.54 2164.62,1437.26 2167.2,1437.94 2169.77,1438.58 2172.35,1439.19 2174.93,1439.77 2177.51,1440.31 2180.08,1440.83 2182.66,1441.32 2185.24,1441.78 
  2187.81,1442.21 2190.39,1442.62 2192.97,1443.01 2195.55,1443.38 2198.12,1443.72 2200.7,1444.05 2203.28,1444.35 2205.85,1444.64 2208.43,1444.91 2211.01,1445.17 
  2213.59,1445.41 2216.16,1445.63 2218.74,1445.84 2221.32,1446.04 2223.9,1446.23 2226.47,1446.4 2229.05,1446.57 2231.63,1446.72 2234.2,1446.86 2236.78,1447 
  2239.36,1447.12 2241.94,1447.24 2244.51,1447.35 2247.09,1447.46 2249.67,1447.55 2252.24,1447.64 2254.82,1447.73 2257.4,1447.81 2259.98,1447.88 2262.55,1447.95 
  2265.13,1448.01 2267.71,1448.07 2270.29,1448.13 2272.86,1448.18 2275.44,1448.23 2278.02,1448.27 2280.59,1448.31 2283.17,1448.35 2285.75,1448.39 2288.33,1448.42 
  2290.9,1448.45 
  "/>
<polyline clip-path="url(#clip6502)" style="stroke:#3da44d; stroke-width:4; stroke-opacity:1; fill:none" points="
  229.132,1448.82 231.709,1448.82 234.287,1448.82 236.864,1448.82 239.441,1448.82 242.018,1448.82 244.596,1448.82 247.173,1448.82 249.75,1448.82 252.327,1448.82 
  254.904,1448.82 257.482,1448.82 260.059,1448.82 262.636,1448.82 265.213,1448.82 267.79,1448.82 270.368,1448.82 272.945,1448.82 275.522,1448.82 278.099,1448.82 
  280.677,1448.82 283.254,1448.82 285.831,1448.82 288.408,1448.82 290.985,1448.82 293.563,1448.82 296.14,1448.82 298.717,1448.82 301.294,1448.82 303.871,1448.82 
  306.449,1448.82 309.026,1448.82 311.603,1448.82 314.18,1448.82 316.758,1448.82 319.335,1448.82 321.912,1448.82 324.489,1448.82 327.066,1448.82 329.644,1448.82 
  332.221,1448.82 334.798,1448.82 337.375,1448.82 339.952,1448.82 342.53,1448.82 345.107,1448.82 347.684,1448.82 350.261,1448.82 352.838,1448.82 355.416,1448.82 
  357.993,1448.82 360.57,1448.82 363.147,1448.82 365.725,1448.82 368.302,1448.82 370.879,1448.82 373.456,1448.82 376.033,1448.82 378.611,1448.82 381.188,1448.82 
  383.765,1448.82 386.342,1448.82 388.919,1448.82 391.497,1448.81 394.074,1448.81 396.651,1448.81 399.228,1448.81 401.806,1448.81 404.383,1448.81 406.96,1448.81 
  409.537,1448.81 412.114,1448.81 414.692,1448.81 417.269,1448.81 419.846,1448.81 422.423,1448.8 425,1448.8 427.578,1448.8 430.155,1448.8 432.732,1448.8 
  435.309,1448.79 437.887,1448.79 440.464,1448.79 443.041,1448.79 445.618,1448.78 448.195,1448.78 450.773,1448.78 453.35,1448.77 455.927,1448.77 458.504,1448.76 
  461.081,1448.76 463.659,1448.75 466.236,1448.75 468.813,1448.74 471.39,1448.73 473.968,1448.72 476.545,1448.72 479.122,1448.71 481.699,1448.7 484.276,1448.69 
  486.854,1448.68 489.431,1448.66 492.008,1448.65 494.585,1448.63 497.162,1448.62 499.74,1448.6 502.317,1448.58 504.894,1448.57 507.471,1448.54 510.048,1448.52 
  512.626,1448.5 515.203,1448.47 517.78,1448.44 520.357,1448.41 522.935,1448.38 525.512,1448.35 528.089,1448.31 530.666,1448.27 533.243,1448.23 535.821,1448.18 
  538.398,1448.13 540.975,1448.08 543.552,1448.02 546.129,1447.96 548.707,1447.9 551.284,1447.83 553.861,1447.75 556.438,1447.68 559.016,1447.59 561.593,1447.5 
  564.17,1447.41 566.747,1447.3 569.324,1447.2 571.902,1447.08 574.479,1446.96 577.056,1446.83 579.633,1446.69 582.21,1446.54 584.788,1446.38 587.365,1446.21 
  589.942,1446.04 592.519,1445.85 595.097,1445.65 597.674,1445.44 600.251,1445.21 602.828,1444.97 605.405,1444.72 607.983,1444.45 610.56,1444.17 613.137,1443.87 
  615.714,1443.56 618.291,1443.23 620.869,1442.87 623.446,1442.5 626.023,1442.11 628.6,1441.7 631.178,1441.26 633.755,1440.8 636.332,1440.32 638.909,1439.81 
  641.486,1439.27 644.064,1438.71 646.641,1438.11 649.218,1437.49 651.795,1436.84 654.372,1436.15 656.95,1435.43 659.527,1434.67 662.104,1433.88 664.681,1433.05 
  667.258,1432.18 669.836,1431.27 672.413,1430.32 674.99,1429.32 677.567,1428.28 680.145,1427.19 682.722,1426.05 685.299,1424.86 687.876,1423.62 690.453,1422.33 
  693.031,1420.98 695.608,1419.58 698.185,1418.12 700.762,1416.6 703.339,1415.01 705.917,1413.36 708.494,1411.65 711.071,1409.87 713.648,1408.02 716.226,1406.1 
  718.803,1404.11 721.38,1402.05 723.957,1399.91 726.534,1397.69 729.112,1395.4 731.689,1393.02 734.266,1390.57 736.843,1388.03 739.42,1385.4 741.998,1382.69 
  744.575,1379.89 747.152,1377 749.729,1374.02 752.307,1370.95 754.884,1367.78 757.461,1364.52 760.038,1361.17 762.615,1357.72 765.193,1354.17 767.77,1350.52 
  770.347,1346.78 772.924,1342.93 775.501,1338.99 778.079,1334.94 780.656,1330.8 783.233,1326.55 785.81,1322.2 788.388,1317.75 790.965,1313.2 793.542,1308.55 
  796.119,1303.8 798.696,1298.95 801.274,1294 803.851,1288.95 806.428,1283.8 809.005,1278.56 811.582,1273.22 814.16,1267.79 816.737,1262.27 819.314,1256.65 
  821.891,1250.95 824.469,1245.16 827.046,1239.29 829.623,1233.34 832.2,1227.31 834.777,1221.2 837.355,1215.02 839.932,1208.77 842.509,1202.45 845.086,1196.07 
  847.663,1189.63 850.241,1183.13 852.818,1176.58 855.395,1169.99 857.972,1163.35 860.549,1156.67 863.127,1149.96 865.704,1143.21 868.281,1136.45 870.858,1129.66 
  873.436,1122.86 876.013,1116.05 878.59,1109.23 881.167,1102.42 883.744,1095.61 886.322,1088.82 888.899,1082.05 891.476,1075.3 894.053,1068.58 896.63,1061.9 
  899.208,1055.26 901.785,1048.67 904.362,1042.14 906.939,1035.67 909.517,1029.27 912.094,1022.94 914.671,1016.69 917.248,1010.53 919.825,1004.46 922.403,998.491 
  924.98,992.628 927.557,986.878 930.134,981.245 932.711,975.737 935.289,970.359 937.866,965.117 940.443,960.017 943.02,955.065 945.598,950.266 948.175,945.625 
  950.752,941.148 953.329,936.84 955.906,932.705 958.484,928.75 961.061,924.977 963.638,921.392 966.215,918 968.792,914.803 971.37,911.805 973.947,909.011 
  976.524,906.424 979.101,904.046 981.679,901.881 984.256,899.931 986.833,898.199 989.41,896.686 991.987,895.395 994.565,894.327 997.142,893.483 999.719,892.864 
  1002.3,892.472 1004.87,892.306 1007.45,892.367 1010.03,892.655 1012.61,893.169 1015.18,893.909 1017.76,894.874 1020.34,896.062 1022.91,897.473 1025.49,899.104 
  1028.07,900.954 1030.65,903.02 1033.22,905.3 1035.8,907.791 1038.38,910.49 1040.95,913.394 1043.53,916.499 1046.11,919.802 1048.69,923.299 1051.26,926.985 
  1053.84,930.856 1056.42,934.909 1058.99,939.137 1061.57,943.537 1064.15,948.103 1066.73,952.83 1069.3,957.712 1071.88,962.745 1074.46,967.922 1077.04,973.238 
  1079.61,978.686 1082.19,984.262 1084.77,989.959 1087.34,995.77 1089.92,1001.69 1092.5,1007.71 1095.08,1013.83 1097.65,1020.04 1100.23,1026.33 1102.81,1032.7 
  1105.38,1039.14 1107.96,1045.65 1110.54,1052.21 1113.12,1058.83 1115.69,1065.49 1118.27,1072.19 1120.85,1078.93 1123.43,1085.69 1126,1092.47 1128.58,1099.27 
  1131.16,1106.08 1133.73,1112.9 1136.31,1119.71 1138.89,1126.52 1141.47,1133.31 1144.04,1140.09 1146.62,1146.84 1149.2,1153.57 1151.77,1160.26 1154.35,1166.92 
  1156.93,1173.53 1159.51,1180.1 1162.08,1186.62 1164.66,1193.09 1167.24,1199.5 1169.82,1205.84 1172.39,1212.12 1174.97,1218.34 1177.55,1224.48 1180.12,1230.54 
  1182.7,1236.53 1185.28,1242.44 1187.86,1248.26 1190.43,1254 1193.01,1259.65 1195.59,1265.21 1198.16,1270.69 1200.74,1276.06 1203.32,1281.35 1205.9,1286.53 
  1208.47,1291.62 1211.05,1296.61 1213.63,1301.5 1216.2,1306.3 1218.78,1310.99 1221.36,1315.58 1223.94,1320.06 1226.51,1324.45 1229.09,1328.73 1231.67,1332.92 
  1234.25,1337 1236.82,1340.97 1239.4,1344.85 1241.98,1348.63 1244.55,1352.3 1247.13,1355.88 1249.71,1359.36 1252.29,1362.74 1254.86,1366.02 1257.44,1369.2 
  1260.02,1372.29 1262.59,1375.29 1265.17,1378.19 1267.75,1381 1270.33,1383.72 1272.9,1386.35 1275.48,1388.89 1278.06,1391.34 1280.64,1393.71 1283.21,1395.99 
  1285.79,1398.19 1288.37,1400.31 1290.94,1402.34 1293.52,1404.3 1296.1,1406.18 1298.68,1407.99 1301.25,1409.72 1303.83,1411.37 1306.41,1412.96 1308.98,1414.47 
  1311.56,1415.92 1314.14,1417.29 1316.72,1418.6 1319.29,1419.84 1321.87,1421.02 1324.45,1422.13 1327.03,1423.19 1329.6,1424.18 1332.18,1425.11 1334.76,1425.98 
  1337.33,1426.79 1339.91,1427.54 1342.49,1428.24 1345.07,1428.88 1347.64,1429.46 1350.22,1429.99 1352.8,1430.46 1355.37,1430.88 1357.95,1431.24 1360.53,1431.55 
  1363.11,1431.81 1365.68,1432.01 1368.26,1432.15 1370.84,1432.25 1373.41,1432.29 1375.99,1432.27 1378.57,1432.2 1381.15,1432.08 1383.72,1431.9 1386.3,1431.66 
  1388.88,1431.37 1391.46,1431.02 1394.03,1430.61 1396.61,1430.14 1399.19,1429.61 1401.76,1429.02 1404.34,1428.36 1406.92,1427.64 1409.5,1426.85 1412.07,1426 
  1414.65,1425.08 1417.23,1424.09 1419.8,1423.02 1422.38,1421.88 1424.96,1420.67 1427.54,1419.37 1430.11,1418 1432.69,1416.54 1435.27,1415 1437.85,1413.36 
  1440.42,1411.64 1443,1409.83 1445.58,1407.92 1448.15,1405.92 1450.73,1403.81 1453.31,1401.6 1455.89,1399.28 1458.46,1396.86 1461.04,1394.32 1463.62,1391.67 
  1466.19,1388.9 1468.77,1386 1471.35,1382.99 1473.93,1379.84 1476.5,1376.57 1479.08,1373.15 1481.66,1369.61 1484.24,1365.92 1486.81,1362.09 1489.39,1358.11 
  1491.97,1353.98 1494.54,1349.69 1497.12,1345.25 1499.7,1340.65 1502.28,1335.89 1504.85,1330.96 1507.43,1325.86 1510.01,1320.59 1512.58,1315.14 1515.16,1309.52 
  1517.74,1303.71 1520.32,1297.72 1522.89,1291.55 1525.47,1285.19 1528.05,1278.64 1530.62,1271.9 1533.2,1264.96 1535.78,1257.83 1538.36,1250.5 1540.93,1242.97 
  1543.51,1235.24 1546.09,1227.31 1548.67,1219.18 1551.24,1210.84 1553.82,1202.3 1556.4,1193.56 1558.97,1184.62 1561.55,1175.48 1564.13,1166.13 1566.71,1156.58 
  1569.28,1146.83 1571.86,1136.88 1574.44,1126.74 1577.01,1116.4 1579.59,1105.87 1582.17,1095.15 1584.75,1084.24 1587.32,1073.15 1589.9,1061.87 1592.48,1050.43 
  1595.06,1038.81 1597.63,1027.02 1600.21,1015.07 1602.79,1002.97 1605.36,990.71 1607.94,978.308 1610.52,965.767 1613.1,953.094 1615.67,940.295 1618.25,927.379 
  1620.83,914.352 1623.4,901.223 1625.98,888 1628.56,874.692 1631.14,861.308 1633.71,847.856 1636.29,834.347 1638.87,820.79 1641.45,807.196 1644.02,793.575 
  1646.6,779.937 1649.18,766.294 1651.75,752.656 1654.33,739.035 1656.91,725.442 1659.49,711.889 1662.06,698.389 1664.64,684.952 1667.22,671.592 1669.79,658.32 
  1672.37,645.15 1674.95,632.093 1677.53,619.162 1680.1,606.37 1682.68,593.729 1685.26,581.252 1687.83,568.952 1690.41,556.841 1692.99,544.932 1695.57,533.238 
  1698.14,521.769 1700.72,510.54 1703.3,499.562 1705.88,488.847 1708.45,478.406 1711.03,468.252 1713.61,458.395 1716.18,448.847 1718.76,439.618 1721.34,430.719 
  1723.92,422.161 1726.49,413.952 1729.07,406.102 1731.65,398.622 1734.22,391.518 1736.8,384.801 1739.38,378.477 1741.96,372.555 1744.53,367.04 1747.11,361.941 
  1749.69,357.262 1752.27,353.01 1754.84,349.19 1757.42,345.807 1760,342.863 1762.57,340.364 1765.15,338.312 1767.73,336.71 1770.31,335.559 1772.88,334.861 
  1775.46,334.617 1778.04,334.827 1780.61,335.491 1783.19,336.608 1785.77,338.177 1788.35,340.195 1790.92,342.661 1793.5,345.571 1796.08,348.922 1798.66,352.71 
  1801.23,356.93 1803.81,361.576 1806.39,366.645 1808.96,372.128 1811.54,378.02 1814.12,384.314 1816.7,391.003 1819.27,398.078 1821.85,405.53 1824.43,413.352 
  1827,421.535 1829.58,430.068 1832.16,438.941 1834.74,448.146 1837.31,457.671 1839.89,467.505 1842.47,477.637 1845.04,488.057 1847.62,498.752 1850.2,509.711 
  1852.78,520.922 1855.35,532.372 1857.93,544.051 1860.51,555.944 1863.09,568.04 1865.66,580.327 1868.24,592.791 1870.82,605.42 1873.39,618.201 1875.97,631.122 
  1878.55,644.17 1881.13,657.333 1883.7,670.597 1886.28,683.951 1888.86,697.383 1891.43,710.879 1894.01,724.428 1896.59,738.018 1899.17,751.638 1901.74,765.275 
  1904.32,778.919 1906.9,792.558 1909.48,806.181 1912.05,819.778 1914.63,833.338 1917.21,846.851 1919.78,860.308 1922.36,873.698 1924.94,887.012 1927.52,900.242 
  1930.09,913.379 1932.67,926.414 1935.25,939.339 1937.82,952.148 1940.4,964.831 1942.98,977.383 1945.56,989.796 1948.13,1002.07 1950.71,1014.18 1953.29,1026.14 
  1955.87,1037.94 1958.44,1049.58 1961.02,1061.04 1963.6,1072.33 1966.17,1083.43 1968.75,1094.36 1971.33,1105.09 1973.91,1115.64 1976.48,1126 1979.06,1136.16 
  1981.64,1146.12 1984.21,1155.89 1986.79,1165.46 1989.37,1174.83 1991.95,1183.99 1994.52,1192.95 1997.1,1201.71 1999.68,1210.27 2002.25,1218.62 2004.83,1226.78 
  2007.41,1234.73 2009.99,1242.48 2012.56,1250.03 2015.14,1257.38 2017.72,1264.54 2020.3,1271.5 2022.87,1278.27 2025.45,1284.84 2028.03,1291.23 2030.6,1297.43 
  2033.18,1303.45 2035.76,1309.28 2038.34,1314.93 2040.91,1320.41 2043.49,1325.71 2046.07,1330.84 2048.64,1335.81 2051.22,1340.61 2053.8,1345.25 2056.38,1349.72 
  2058.95,1354.05 2061.53,1358.22 2064.11,1362.25 2066.69,1366.12 2069.26,1369.86 2071.84,1373.46 2074.42,1376.93 2076.99,1380.26 2079.57,1383.46 2082.15,1386.55 
  2084.73,1389.51 2087.3,1392.35 2089.88,1395.08 2092.46,1397.69 2095.03,1400.2 2097.61,1402.61 2100.19,1404.91 2102.77,1407.12 2105.34,1409.23 2107.92,1411.25 
  2110.5,1413.18 2113.08,1415.03 2115.65,1416.79 2118.23,1418.47 2120.81,1420.08 2123.38,1421.61 2125.96,1423.07 2128.54,1424.47 2131.12,1425.79 2133.69,1427.06 
  2136.27,1428.26 2138.85,1429.4 2141.42,1430.49 2144,1431.53 2146.58,1432.51 2149.16,1433.44 2151.73,1434.33 2154.31,1435.17 2156.89,1435.96 2159.46,1436.72 
  2162.04,1437.43 2164.62,1438.11 2167.2,1438.75 2169.77,1439.36 2172.35,1439.93 2174.93,1440.47 2177.51,1440.99 2180.08,1441.47 2182.66,1441.93 2185.24,1442.36 
  2187.81,1442.77 2190.39,1443.15 2192.97,1443.51 2195.55,1443.85 2198.12,1444.17 2200.7,1444.47 2203.28,1444.76 2205.85,1445.02 2208.43,1445.27 2211.01,1445.51 
  2213.59,1445.73 2216.16,1445.94 2218.74,1446.13 2221.32,1446.31 2223.9,1446.49 2226.47,1446.65 2229.05,1446.8 2231.63,1446.94 2234.2,1447.07 2236.78,1447.19 
  2239.36,1447.31 2241.94,1447.41 2244.51,1447.51 2247.09,1447.61 2249.67,1447.69 2252.24,1447.78 2254.82,1447.85 2257.4,1447.92 2259.98,1447.99 2262.55,1448.05 
  2265.13,1448.11 2267.71,1448.16 2270.29,1448.21 2272.86,1448.26 2275.44,1448.3 2278.02,1448.34 2280.59,1448.38 2283.17,1448.41 2285.75,1448.44 2288.33,1448.47 
  2290.9,1448.5 
  "/>
<path clip-path="url(#clip6500)" d="
M1893.61 447.115 L2280.76 447.115 L2280.76 205.195 L1893.61 205.195  Z
  " fill="#ffffff" fill-rule="evenodd" fill-opacity="1"/>
<polyline clip-path="url(#clip6500)" style="stroke:#000000; stroke-width:4; stroke-opacity:1; fill:none" points="
  1893.61,447.115 2280.76,447.115 2280.76,205.195 1893.61,205.195 1893.61,447.115 
  "/>
<polyline clip-path="url(#clip6500)" style="stroke:#009af9; stroke-width:4; stroke-opacity:1; fill:none" points="
  1917.61,265.675 2061.61,265.675 
  "/>
<g clip-path="url(#clip6500)">
<text style="fill:#000000; fill-opacity:1; font-family:Arial,Helvetica Neue,Helvetica,sans-serif; font-size:48px; text-anchor:start;" transform="rotate(0, 2085.61, 283.175)" x="2085.61" y="283.175">Data</text>
</g>
<polyline clip-path="url(#clip6500)" style="stroke:#e26f46; stroke-width:4; stroke-opacity:1; fill:none" points="
  1917.61,326.155 2061.61,326.155 
  "/>
<g clip-path="url(#clip6500)">
<text style="fill:#000000; fill-opacity:1; font-family:Arial,Helvetica Neue,Helvetica,sans-serif; font-size:48px; text-anchor:start;" transform="rotate(0, 2085.61, 343.655)" x="2085.61" y="343.655">Truth</text>
</g>
<polyline clip-path="url(#clip6500)" style="stroke:#3da44d; stroke-width:4; stroke-opacity:1; fill:none" points="
  1917.61,386.635 2061.61,386.635 
  "/>
<g clip-path="url(#clip6500)">
<text style="fill:#000000; fill-opacity:1; font-family:Arial,Helvetica Neue,Helvetica,sans-serif; font-size:48px; text-anchor:start;" transform="rotate(0, 2085.61, 404.135)" x="2085.61" y="404.135">Best fit</text>
</g>
</svg>
