<?xml version="1.0" encoding="utf-8"?>
<svg xmlns="http://www.w3.org/2000/svg" xmlns:xlink="http://www.w3.org/1999/xlink" width="600" height="400" viewBox="0 0 2400 1600">
<defs>
  <clipPath id="clip5600">
    <rect x="0" y="0" width="2400" height="1600"/>
  </clipPath>
</defs>
<path clip-path="url(#clip5600)" d="
M0 1600 L2400 1600 L2400 0 L0 0  Z
  " fill="#ffffff" fill-rule="evenodd" fill-opacity="1"/>
<defs>
  <clipPath id="clip5601">
    <rect x="480" y="0" width="1681" height="1600"/>
  </clipPath>
</defs>
<path clip-path="url(#clip5600)" d="
M202.373 1425.62 L2352.76 1425.62 L2352.76 121.675 L202.373 121.675  Z
  " fill="#ffffff" fill-rule="evenodd" fill-opacity="1"/>
<defs>
  <clipPath id="clip5602">
    <rect x="202" y="121" width="2151" height="1305"/>
  </clipPath>
</defs>
<polyline clip-path="url(#clip5602)" style="stroke:#000000; stroke-width:2; stroke-opacity:0.1; fill:none" points="
  659.07,1425.62 659.07,121.675 
  "/>
<polyline clip-path="url(#clip5602)" style="stroke:#000000; stroke-width:2; stroke-opacity:0.1; fill:none" points="
  1153.87,1425.62 1153.87,121.675 
  "/>
<polyline clip-path="url(#clip5602)" style="stroke:#000000; stroke-width:2; stroke-opacity:0.1; fill:none" points="
  1648.66,1425.62 1648.66,121.675 
  "/>
<polyline clip-path="url(#clip5602)" style="stroke:#000000; stroke-width:2; stroke-opacity:0.1; fill:none" points="
  2143.46,1425.62 2143.46,121.675 
  "/>
<polyline clip-path="url(#clip5602)" style="stroke:#000000; stroke-width:2; stroke-opacity:0.1; fill:none" points="
  202.373,1388.71 2352.76,1388.71 
  "/>
<polyline clip-path="url(#clip5602)" style="stroke:#000000; stroke-width:2; stroke-opacity:0.1; fill:none" points="
  202.373,1035.24 2352.76,1035.24 
  "/>
<polyline clip-path="url(#clip5602)" style="stroke:#000000; stroke-width:2; stroke-opacity:0.1; fill:none" points="
  202.373,681.765 2352.76,681.765 
  "/>
<polyline clip-path="url(#clip5602)" style="stroke:#000000; stroke-width:2; stroke-opacity:0.1; fill:none" points="
  202.373,328.29 2352.76,328.29 
  "/>
<polyline clip-path="url(#clip5600)" style="stroke:#000000; stroke-width:4; stroke-opacity:1; fill:none" points="
  202.373,1425.62 2352.76,1425.62 
  "/>
<polyline clip-path="url(#clip5600)" style="stroke:#000000; stroke-width:4; stroke-opacity:1; fill:none" points="
  202.373,1425.62 202.373,121.675 
  "/>
<polyline clip-path="url(#clip5600)" style="stroke:#000000; stroke-width:4; stroke-opacity:1; fill:none" points="
  659.07,1425.62 659.07,1409.97 
  "/>
<polyline clip-path="url(#clip5600)" style="stroke:#000000; stroke-width:4; stroke-opacity:1; fill:none" points="
  1153.87,1425.62 1153.87,1409.97 
  "/>
<polyline clip-path="url(#clip5600)" style="stroke:#000000; stroke-width:4; stroke-opacity:1; fill:none" points="
  1648.66,1425.62 1648.66,1409.97 
  "/>
<polyline clip-path="url(#clip5600)" style="stroke:#000000; stroke-width:4; stroke-opacity:1; fill:none" points="
  2143.46,1425.62 2143.46,1409.97 
  "/>
<polyline clip-path="url(#clip5600)" style="stroke:#000000; stroke-width:4; stroke-opacity:1; fill:none" points="
  202.373,1388.71 228.178,1388.71 
  "/>
<polyline clip-path="url(#clip5600)" style="stroke:#000000; stroke-width:4; stroke-opacity:1; fill:none" points="
  202.373,1035.24 228.178,1035.24 
  "/>
<polyline clip-path="url(#clip5600)" style="stroke:#000000; stroke-width:4; stroke-opacity:1; fill:none" points="
  202.373,681.765 228.178,681.765 
  "/>
<polyline clip-path="url(#clip5600)" style="stroke:#000000; stroke-width:4; stroke-opacity:1; fill:none" points="
  202.373,328.29 228.178,328.29 
  "/>
<g clip-path="url(#clip5600)">
<text style="fill:#000000; fill-opacity:1; font-family:Arial,Helvetica Neue,Helvetica,sans-serif; font-size:48px; text-anchor:middle;" transform="rotate(0, 659.07, 1479.62)" x="659.07" y="1479.62">-1.05</text>
</g>
<g clip-path="url(#clip5600)">
<text style="fill:#000000; fill-opacity:1; font-family:Arial,Helvetica Neue,Helvetica,sans-serif; font-size:48px; text-anchor:middle;" transform="rotate(0, 1153.87, 1479.62)" x="1153.87" y="1479.62">-1.00</text>
</g>
<g clip-path="url(#clip5600)">
<text style="fill:#000000; fill-opacity:1; font-family:Arial,Helvetica Neue,Helvetica,sans-serif; font-size:48px; text-anchor:middle;" transform="rotate(0, 1648.66, 1479.62)" x="1648.66" y="1479.62">-0.95</text>
</g>
<g clip-path="url(#clip5600)">
<text style="fill:#000000; fill-opacity:1; font-family:Arial,Helvetica Neue,Helvetica,sans-serif; font-size:48px; text-anchor:middle;" transform="rotate(0, 2143.46, 1479.62)" x="2143.46" y="1479.62">-0.90</text>
</g>
<g clip-path="url(#clip5600)">
<text style="fill:#000000; fill-opacity:1; font-family:Arial,Helvetica Neue,Helvetica,sans-serif; font-size:48px; text-anchor:end;" transform="rotate(0, 178.373, 1406.21)" x="178.373" y="1406.21">0</text>
</g>
<g clip-path="url(#clip5600)">
<text style="fill:#000000; fill-opacity:1; font-family:Arial,Helvetica Neue,Helvetica,sans-serif; font-size:48px; text-anchor:end;" transform="rotate(0, 178.373, 1052.74)" x="178.373" y="1052.74">5</text>
</g>
<g clip-path="url(#clip5600)">
<text style="fill:#000000; fill-opacity:1; font-family:Arial,Helvetica Neue,Helvetica,sans-serif; font-size:48px; text-anchor:end;" transform="rotate(0, 178.373, 699.265)" x="178.373" y="699.265">10</text>
</g>
<g clip-path="url(#clip5600)">
<text style="fill:#000000; fill-opacity:1; font-family:Arial,Helvetica Neue,Helvetica,sans-serif; font-size:48px; text-anchor:end;" transform="rotate(0, 178.373, 345.79)" x="178.373" y="345.79">15</text>
</g>
<g clip-path="url(#clip5600)">
<text style="fill:#000000; fill-opacity:1; font-family:Arial,Helvetica Neue,Helvetica,sans-serif; font-size:84px; text-anchor:middle;" transform="rotate(0, 1277.56, 73.2)" x="1277.56" y="73.2">Marginalized Distribution for mu_1</text>
</g>
<g clip-path="url(#clip5600)">
<text style="fill:#000000; fill-opacity:1; font-family:Arial,Helvetica Neue,Helvetica,sans-serif; font-size:66px; text-anchor:middle;" transform="rotate(0, 1277.56, 1559.48)" x="1277.56" y="1559.48">mu_1</text>
</g>
<g clip-path="url(#clip5600)">
<text style="fill:#000000; fill-opacity:1; font-family:Arial,Helvetica Neue,Helvetica,sans-serif; font-size:66px; text-anchor:middle;" transform="rotate(-90, 89.2861, 773.647)" x="89.2861" y="773.647">P(mu_1)</text>
</g>
<path clip-path="url(#clip5602)" d="
M263.233 1388.71 L312.712 1388.71 L312.712 1388.71 L362.192 1388.71 L362.192 1388.71 L411.672 1388.71 L411.672 1388.71 L461.151 1388.71 L461.151 1388.71 L510.631 1388.71 
  L510.631 1388.71 L560.11 1388.71 L560.11 1372.66 L609.59 1372.66 L609.59 1347.75 L659.07 1347.75 L659.07 1330.13 L708.549 1330.13 L708.549 1297.75 L758.029 1297.75 
  L758.029 1226.93 L807.508 1226.93 L807.508 1181.53 L856.988 1181.53 L856.988 1074.34 L906.467 1074.34 L906.467 987.459 L955.947 987.459 L955.947 885.821 L1005.43 885.821 
  L1005.43 654.077 L1054.91 654.077 L1054.91 555.825 L1104.39 555.825 L1104.39 433.009 L1153.87 433.009 L1153.87 275.475 L1203.35 275.475 L1203.35 211.681 L1252.82 211.681 
  L1252.82 235.289 L1302.3 235.289 L1302.3 194.408 L1351.78 194.408 L1351.78 323.213 L1401.26 323.213 L1401.26 444.293 L1450.74 444.293 L1450.74 579.173 L1500.22 579.173 
  L1500.22 742.956 L1549.7 742.956 L1549.7 866.119 L1599.18 866.119 L1599.18 984.595 L1648.66 984.595 L1648.66 1093.7 L1698.14 1093.7 L1698.14 1206.96 L1747.62 1206.96 
  L1747.62 1274.75 L1797.1 1274.75 L1797.1 1305.91 L1846.58 1305.91 L1846.58 1336.55 L1896.06 1336.55 L1896.06 1369.36 L1945.54 1369.36 L1945.54 1373 L1995.02 1373 
  L1995.02 1388.71 L2044.5 1388.71 L2044.5 1388.71 L2093.98 1388.71 L2093.98 1388.71 L2143.46 1388.71 L2143.46 1388.71 L2192.94 1388.71 L2192.94 1388.71 L2242.42 1388.71 
  L2242.42 1388.71 L2291.9 1388.71 L2291.9 1388.71 L2291.9 1388.71 L2291.9 1388.71 L2242.42 1388.71 L2242.42 1388.71 L2192.94 1388.71 L2192.94 1388.71 L2143.46 1388.71 
  L2143.46 1388.71 L2093.98 1388.71 L2093.98 1388.71 L2044.5 1388.71 L2044.5 1388.71 L1995.02 1388.71 L1995.02 1388.71 L1945.54 1388.71 L1945.54 1388.71 L1896.06 1388.71 
  L1896.06 1388.71 L1846.58 1388.71 L1846.58 1388.71 L1797.1 1388.71 L1797.1 1388.71 L1747.62 1388.71 L1747.62 1388.71 L1698.14 1388.71 L1698.14 1388.71 L1648.66 1388.71 
  L1648.66 1388.71 L1599.18 1388.71 L1599.18 1388.71 L1549.7 1388.71 L1549.7 1388.71 L1500.22 1388.71 L1500.22 1388.71 L1450.74 1388.71 L1450.74 1388.71 L1401.26 1388.71 
  L1401.26 1388.71 L1351.78 1388.71 L1351.78 1388.71 L1302.3 1388.71 L1302.3 1388.71 L1252.82 1388.71 L1252.82 1388.71 L1203.35 1388.71 L1203.35 1388.71 L1153.87 1388.71 
  L1153.87 1388.71 L1104.39 1388.71 L1104.39 1388.71 L1054.91 1388.71 L1054.91 1388.71 L1005.43 1388.71 L1005.43 1388.71 L955.947 1388.71 L955.947 1388.71 L906.467 1388.71 
  L906.467 1388.71 L856.988 1388.71 L856.988 1388.71 L807.508 1388.71 L807.508 1388.71 L758.029 1388.71 L758.029 1388.71 L708.549 1388.71 L708.549 1388.71 L659.07 1388.71 
  L659.07 1388.71 L609.59 1388.71 L609.59 1388.71 L560.11 1388.71 L560.11 1388.71 L510.631 1388.71 L510.631 1388.71 L461.151 1388.71 L461.151 1388.71 L411.672 1388.71 
  L411.672 1388.71 L362.192 1388.71 L362.192 1388.71 L312.712 1388.71 L312.712 1388.71 L263.233 1388.71  Z
  " fill="#ff0000" fill-rule="evenodd" fill-opacity="1"/>
<polyline clip-path="url(#clip5602)" style="stroke:#009af9; stroke-width:0; stroke-opacity:1; fill:none" points="
  263.233,1388.71 312.712,1388.71 362.192,1388.71 411.672,1388.71 461.151,1388.71 510.631,1388.71 
  560.11,1388.71 560.11,1372.66 609.59,1372.66 609.59,1347.75 659.07,1347.75 659.07,1330.13 708.549,1330.13 708.549,1297.75 758.029,1297.75 
  758.029,1226.93 807.508,1226.93 807.508,1181.53 856.988,1181.53 856.988,1074.34 906.467,1074.34 906.467,987.459 955.947,987.459 955.947,885.821 1005.43,885.821 
  1005.43,654.077 1054.91,654.077 1054.91,555.825 1104.39,555.825 1104.39,433.009 1153.87,433.009 1153.87,275.475 1203.35,275.475 1203.35,211.681 1252.82,211.681 
  1252.82,235.289 1302.3,235.289 1302.3,194.408 1351.78,194.408 1351.78,323.213 1401.26,323.213 1401.26,444.293 1450.74,444.293 1450.74,579.173 1500.22,579.173 
  1500.22,742.956 1549.7,742.956 1549.7,866.119 1599.18,866.119 1599.18,984.595 1648.66,984.595 1648.66,1093.7 1698.14,1093.7 1698.14,1206.96 1747.62,1206.96 
  1747.62,1274.75 1797.1,1274.75 1797.1,1305.91 1846.58,1305.91 1846.58,1336.55 1896.06,1336.55 1896.06,1369.36 1945.54,1369.36 1945.54,1373 1995.02,1373 
  1995.02,1388.71 2044.5,1388.71 2093.98,1388.71 2143.46,1388.71 2192.94,1388.71 2242.42,1388.71 
  2291.9,1388.71 
  "/>
<path clip-path="url(#clip5602)" d="
M263.233 1388.71 L312.712 1388.71 L312.712 1388.71 L362.192 1388.71 L362.192 1388.71 L411.672 1388.71 L411.672 1388.71 L461.151 1388.71 L461.151 1388.71 L510.631 1388.71 
  L510.631 1388.71 L560.11 1388.71 L560.11 1388.71 L609.59 1388.71 L609.59 1388.71 L659.07 1388.71 L659.07 1388.71 L708.549 1388.71 L708.549 1388.71 L758.029 1388.71 
  L758.029 1226.93 L807.508 1226.93 L807.508 1181.53 L856.988 1181.53 L856.988 1074.34 L906.467 1074.34 L906.467 987.459 L955.947 987.459 L955.947 885.821 L1005.43 885.821 
  L1005.43 654.077 L1054.91 654.077 L1054.91 555.825 L1104.39 555.825 L1104.39 433.009 L1153.87 433.009 L1153.87 275.475 L1203.35 275.475 L1203.35 211.681 L1252.82 211.681 
  L1252.82 235.289 L1302.3 235.289 L1302.3 194.408 L1351.78 194.408 L1351.78 323.213 L1401.26 323.213 L1401.26 444.293 L1450.74 444.293 L1450.74 579.173 L1500.22 579.173 
  L1500.22 742.956 L1549.7 742.956 L1549.7 866.119 L1599.18 866.119 L1599.18 984.595 L1648.66 984.595 L1648.66 1093.7 L1698.14 1093.7 L1698.14 1206.96 L1747.62 1206.96 
  L1747.62 1388.71 L1797.1 1388.71 L1797.1 1388.71 L1846.58 1388.71 L1846.58 1388.71 L1896.06 1388.71 L1896.06 1388.71 L1945.54 1388.71 L1945.54 1388.71 L1995.02 1388.71 
  L1995.02 1388.71 L2044.5 1388.71 L2044.5 1388.71 L2093.98 1388.71 L2093.98 1388.71 L2143.46 1388.71 L2143.46 1388.71 L2192.94 1388.71 L2192.94 1388.71 L2242.42 1388.71 
  L2242.42 1388.71 L2291.9 1388.71 L2291.9 1388.71 L2291.9 1388.71 L2291.9 1388.71 L2242.42 1388.71 L2242.42 1388.71 L2192.94 1388.71 L2192.94 1388.71 L2143.46 1388.71 
  L2143.46 1388.71 L2093.98 1388.71 L2093.98 1388.71 L2044.5 1388.71 L2044.5 1388.71 L1995.02 1388.71 L1995.02 1388.71 L1945.54 1388.71 L1945.54 1388.71 L1896.06 1388.71 
  L1896.06 1388.71 L1846.58 1388.71 L1846.58 1388.71 L1797.1 1388.71 L1797.1 1388.71 L1747.62 1388.71 L1747.62 1388.71 L1698.14 1388.71 L1698.14 1388.71 L1648.66 1388.71 
  L1648.66 1388.71 L1599.18 1388.71 L1599.18 1388.71 L1549.7 1388.71 L1549.7 1388.71 L1500.22 1388.71 L1500.22 1388.71 L1450.74 1388.71 L1450.74 1388.71 L1401.26 1388.71 
  L1401.26 1388.71 L1351.78 1388.71 L1351.78 1388.71 L1302.3 1388.71 L1302.3 1388.71 L1252.82 1388.71 L1252.82 1388.71 L1203.35 1388.71 L1203.35 1388.71 L1153.87 1388.71 
  L1153.87 1388.71 L1104.39 1388.71 L1104.39 1388.71 L1054.91 1388.71 L1054.91 1388.71 L1005.43 1388.71 L1005.43 1388.71 L955.947 1388.71 L955.947 1388.71 L906.467 1388.71 
  L906.467 1388.71 L856.988 1388.71 L856.988 1388.71 L807.508 1388.71 L807.508 1388.71 L758.029 1388.71 L758.029 1388.71 L708.549 1388.71 L708.549 1388.71 L659.07 1388.71 
  L659.07 1388.71 L609.59 1388.71 L609.59 1388.71 L560.11 1388.71 L560.11 1388.71 L510.631 1388.71 L510.631 1388.71 L461.151 1388.71 L461.151 1388.71 L411.672 1388.71 
  L411.672 1388.71 L362.192 1388.71 L362.192 1388.71 L312.712 1388.71 L312.712 1388.71 L263.233 1388.71  Z
  " fill="#ffff00" fill-rule="evenodd" fill-opacity="1"/>
<polyline clip-path="url(#clip5602)" style="stroke:#e26f46; stroke-width:0; stroke-opacity:1; fill:none" points="
  263.233,1388.71 312.712,1388.71 362.192,1388.71 411.672,1388.71 461.151,1388.71 510.631,1388.71 
  560.11,1388.71 609.59,1388.71 659.07,1388.71 708.549,1388.71 758.029,1388.71 
  758.029,1226.93 807.508,1226.93 807.508,1181.53 856.988,1181.53 856.988,1074.34 906.467,1074.34 906.467,987.459 955.947,987.459 955.947,885.821 1005.43,885.821 
  1005.43,654.077 1054.91,654.077 1054.91,555.825 1104.39,555.825 1104.39,433.009 1153.87,433.009 1153.87,275.475 1203.35,275.475 1203.35,211.681 1252.82,211.681 
  1252.82,235.289 1302.3,235.289 1302.3,194.408 1351.78,194.408 1351.78,323.213 1401.26,323.213 1401.26,444.293 1450.74,444.293 1450.74,579.173 1500.22,579.173 
  1500.22,742.956 1549.7,742.956 1549.7,866.119 1599.18,866.119 1599.18,984.595 1648.66,984.595 1648.66,1093.7 1698.14,1093.7 1698.14,1206.96 1747.62,1206.96 
  1747.62,1388.71 1797.1,1388.71 1846.58,1388.71 1896.06,1388.71 1945.54,1388.71 1995.02,1388.71 
  2044.5,1388.71 2093.98,1388.71 2143.46,1388.71 2192.94,1388.71 2242.42,1388.71 
  2291.9,1388.71 
  "/>
<path clip-path="url(#clip5602)" d="
M263.233 1388.71 L312.712 1388.71 L312.712 1388.71 L362.192 1388.71 L362.192 1388.71 L411.672 1388.71 L411.672 1388.71 L461.151 1388.71 L461.151 1388.71 L510.631 1388.71 
  L510.631 1388.71 L560.11 1388.71 L560.11 1388.71 L609.59 1388.71 L609.59 1388.71 L659.07 1388.71 L659.07 1388.71 L708.549 1388.71 L708.549 1388.71 L758.029 1388.71 
  L758.029 1388.71 L807.508 1388.71 L807.508 1388.71 L856.988 1388.71 L856.988 1388.71 L906.467 1388.71 L906.467 1388.71 L955.947 1388.71 L955.947 1388.71 L1005.43 1388.71 
  L1005.43 654.077 L1054.91 654.077 L1054.91 555.825 L1104.39 555.825 L1104.39 433.009 L1153.87 433.009 L1153.87 275.475 L1203.35 275.475 L1203.35 211.681 L1252.82 211.681 
  L1252.82 235.289 L1302.3 235.289 L1302.3 194.408 L1351.78 194.408 L1351.78 323.213 L1401.26 323.213 L1401.26 444.293 L1450.74 444.293 L1450.74 579.173 L1500.22 579.173 
  L1500.22 1388.71 L1549.7 1388.71 L1549.7 1388.71 L1599.18 1388.71 L1599.18 1388.71 L1648.66 1388.71 L1648.66 1388.71 L1698.14 1388.71 L1698.14 1388.71 L1747.62 1388.71 
  L1747.62 1388.71 L1797.1 1388.71 L1797.1 1388.71 L1846.58 1388.71 L1846.58 1388.71 L1896.06 1388.71 L1896.06 1388.71 L1945.54 1388.71 L1945.54 1388.71 L1995.02 1388.71 
  L1995.02 1388.71 L2044.5 1388.71 L2044.5 1388.71 L2093.98 1388.71 L2093.98 1388.71 L2143.46 1388.71 L2143.46 1388.71 L2192.94 1388.71 L2192.94 1388.71 L2242.42 1388.71 
  L2242.42 1388.71 L2291.9 1388.71 L2291.9 1388.71 L2291.9 1388.71 L2291.9 1388.71 L2242.42 1388.71 L2242.42 1388.71 L2192.94 1388.71 L2192.94 1388.71 L2143.46 1388.71 
  L2143.46 1388.71 L2093.98 1388.71 L2093.98 1388.71 L2044.5 1388.71 L2044.5 1388.71 L1995.02 1388.71 L1995.02 1388.71 L1945.54 1388.71 L1945.54 1388.71 L1896.06 1388.71 
  L1896.06 1388.71 L1846.58 1388.71 L1846.58 1388.71 L1797.1 1388.71 L1797.1 1388.71 L1747.62 1388.71 L1747.62 1388.71 L1698.14 1388.71 L1698.14 1388.71 L1648.66 1388.71 
  L1648.66 1388.71 L1599.18 1388.71 L1599.18 1388.71 L1549.7 1388.71 L1549.7 1388.71 L1500.22 1388.71 L1500.22 1388.71 L1450.74 1388.71 L1450.74 1388.71 L1401.26 1388.71 
  L1401.26 1388.71 L1351.78 1388.71 L1351.78 1388.71 L1302.3 1388.71 L1302.3 1388.71 L1252.82 1388.71 L1252.82 1388.71 L1203.35 1388.71 L1203.35 1388.71 L1153.87 1388.71 
  L1153.87 1388.71 L1104.39 1388.71 L1104.39 1388.71 L1054.91 1388.71 L1054.91 1388.71 L1005.43 1388.71 L1005.43 1388.71 L955.947 1388.71 L955.947 1388.71 L906.467 1388.71 
  L906.467 1388.71 L856.988 1388.71 L856.988 1388.71 L807.508 1388.71 L807.508 1388.71 L758.029 1388.71 L758.029 1388.71 L708.549 1388.71 L708.549 1388.71 L659.07 1388.71 
  L659.07 1388.71 L609.59 1388.71 L609.59 1388.71 L560.11 1388.71 L560.11 1388.71 L510.631 1388.71 L510.631 1388.71 L461.151 1388.71 L461.151 1388.71 L411.672 1388.71 
  L411.672 1388.71 L362.192 1388.71 L362.192 1388.71 L312.712 1388.71 L312.712 1388.71 L263.233 1388.71  Z
  " fill="#76ee00" fill-rule="evenodd" fill-opacity="1"/>
<polyline clip-path="url(#clip5602)" style="stroke:#3da44d; stroke-width:0; stroke-opacity:1; fill:none" points="
  263.233,1388.71 312.712,1388.71 362.192,1388.71 411.672,1388.71 461.151,1388.71 510.631,1388.71 
  560.11,1388.71 609.59,1388.71 659.07,1388.71 708.549,1388.71 758.029,1388.71 
  807.508,1388.71 856.988,1388.71 906.467,1388.71 955.947,1388.71 1005.43,1388.71 
  1005.43,654.077 1054.91,654.077 1054.91,555.825 1104.39,555.825 1104.39,433.009 1153.87,433.009 1153.87,275.475 1203.35,275.475 1203.35,211.681 1252.82,211.681 
  1252.82,235.289 1302.3,235.289 1302.3,194.408 1351.78,194.408 1351.78,323.213 1401.26,323.213 1401.26,444.293 1450.74,444.293 1450.74,579.173 1500.22,579.173 
  1500.22,1388.71 1549.7,1388.71 1599.18,1388.71 1648.66,1388.71 1698.14,1388.71 1747.62,1388.71 
  1797.1,1388.71 1846.58,1388.71 1896.06,1388.71 1945.54,1388.71 1995.02,1388.71 
  2044.5,1388.71 2093.98,1388.71 2143.46,1388.71 2192.94,1388.71 2242.42,1388.71 
  2291.9,1388.71 
  "/>
<polyline clip-path="url(#clip5602)" style="stroke:#000000; stroke-width:2.8; stroke-opacity:1; fill:none" points="
  263.233,1388.37 312.712,1388.37 312.712,1388.71 362.192,1388.71 362.192,1387.93 411.672,1387.93 461.151,1387.93 461.151,1385.33 510.631,1385.33 
  510.631,1377.95 560.11,1377.95 560.11,1372.66 609.59,1372.66 609.59,1347.75 659.07,1347.75 659.07,1330.13 708.549,1330.13 708.549,1297.75 758.029,1297.75 
  758.029,1226.93 807.508,1226.93 807.508,1181.53 856.988,1181.53 856.988,1074.34 906.467,1074.34 906.467,987.459 955.947,987.459 955.947,885.821 1005.43,885.821 
  1005.43,654.077 1054.91,654.077 1054.91,555.825 1104.39,555.825 1104.39,433.009 1153.87,433.009 1153.87,275.475 1203.35,275.475 1203.35,211.681 1252.82,211.681 
  1252.82,235.289 1302.3,235.289 1302.3,194.408 1351.78,194.408 1351.78,323.213 1401.26,323.213 1401.26,444.293 1450.74,444.293 1450.74,579.173 1500.22,579.173 
  1500.22,742.956 1549.7,742.956 1549.7,866.119 1599.18,866.119 1599.18,984.595 1648.66,984.595 1648.66,1093.7 1698.14,1093.7 1698.14,1206.96 1747.62,1206.96 
  1747.62,1274.75 1797.1,1274.75 1797.1,1305.91 1846.58,1305.91 1846.58,1336.55 1896.06,1336.55 1896.06,1369.36 1945.54,1369.36 1945.54,1373 1995.02,1373 
  1995.02,1381.86 2044.5,1381.86 2044.5,1383.94 2093.98,1383.94 2093.98,1385.85 2143.46,1385.85 2143.46,1388.54 2192.94,1388.54 2192.94,1388.71 2242.42,1388.71 
  2291.9,1388.71 2291.9,1388.45 
  "/>
<path clip-path="url(#clip5602)" d="
M1034.71 1388.71 L1507.72 1388.71 L1507.72 158.579 L1034.71 158.579 L1034.71 1388.71  Z
  " fill="#808080" fill-rule="evenodd" fill-opacity="0.5"/>
<polyline clip-path="url(#clip5602)" style="stroke:#000000; stroke-width:0; stroke-opacity:1; fill:none" points="
  1034.71,1388.71 1507.72,1388.71 1507.72,158.579 1034.71,158.579 1034.71,1388.71 
  "/>
<polyline clip-path="url(#clip5602)" style="stroke:#696969; stroke-width:4; stroke-opacity:1; fill:none" points="
  1271.21,1388.71 1271.21,158.579 
  "/>
<polyline clip-path="url(#clip5602)" style="stroke:#000000; stroke-width:4; stroke-opacity:1; fill:none" stroke-dasharray="16, 10" points="
  1273.08,1388.71 1273.08,158.579 
  "/>
<polyline clip-path="url(#clip5602)" style="stroke:#000000; stroke-width:4; stroke-opacity:1; fill:none" stroke-dasharray="2, 4" points="
  1327.04,1388.71 1327.04,158.579 
  "/>
<path clip-path="url(#clip5600)" d="
M1463.01 689.035 L2280.76 689.035 L2280.76 205.195 L1463.01 205.195  Z
  " fill="#ffffff" fill-rule="evenodd" fill-opacity="1"/>
<polyline clip-path="url(#clip5600)" style="stroke:#000000; stroke-width:4; stroke-opacity:1; fill:none" points="
  1463.01,689.035 2280.76,689.035 2280.76,205.195 1463.01,205.195 1463.01,689.035 
  "/>
<path clip-path="url(#clip5600)" d="
M1487.01 289.867 L1631.01 289.867 L1631.01 241.483 L1487.01 241.483 L1487.01 289.867  Z
  " fill="#ff0000" fill-rule="evenodd" fill-opacity="1"/>
<polyline clip-path="url(#clip5600)" style="stroke:#009af9; stroke-width:0; stroke-opacity:1; fill:none" points="
  1487.01,241.483 1631.01,241.483 
  "/>
<g clip-path="url(#clip5600)">
<text style="fill:#000000; fill-opacity:1; font-family:Arial,Helvetica Neue,Helvetica,sans-serif; font-size:48px; text-anchor:start;" transform="rotate(0, 1655.01, 283.175)" x="1655.01" y="283.175">smallest 99.78% interval(s)</text>
</g>
<path clip-path="url(#clip5600)" d="
M1487.01 350.347 L1631.01 350.347 L1631.01 301.963 L1487.01 301.963 L1487.01 350.347  Z
  " fill="#ffff00" fill-rule="evenodd" fill-opacity="1"/>
<polyline clip-path="url(#clip5600)" style="stroke:#e26f46; stroke-width:0; stroke-opacity:1; fill:none" points="
  1487.01,301.963 1631.01,301.963 
  "/>
<g clip-path="url(#clip5600)">
<text style="fill:#000000; fill-opacity:1; font-family:Arial,Helvetica Neue,Helvetica,sans-serif; font-size:48px; text-anchor:start;" transform="rotate(0, 1655.01, 343.655)" x="1655.01" y="343.655">smallest 96.31% interval(s)</text>
</g>
<path clip-path="url(#clip5600)" d="
M1487.01 410.827 L1631.01 410.827 L1631.01 362.443 L1487.01 362.443 L1487.01 410.827  Z
  " fill="#76ee00" fill-rule="evenodd" fill-opacity="1"/>
<polyline clip-path="url(#clip5600)" style="stroke:#3da44d; stroke-width:0; stroke-opacity:1; fill:none" points="
  1487.01,362.443 1631.01,362.443 
  "/>
<g clip-path="url(#clip5600)">
<text style="fill:#000000; fill-opacity:1; font-family:Arial,Helvetica Neue,Helvetica,sans-serif; font-size:48px; text-anchor:start;" transform="rotate(0, 1655.01, 404.135)" x="1655.01" y="404.135">smallest 70.59% interval(s)</text>
</g>
<path clip-path="url(#clip5600)" d="
M1487.01 471.307 L1631.01 471.307 L1631.01 422.923 L1487.01 422.923 L1487.01 471.307  Z
  " fill="#808080" fill-rule="evenodd" fill-opacity="0.5"/>
<polyline clip-path="url(#clip5600)" style="stroke:#000000; stroke-width:0; stroke-opacity:1; fill:none" points="
  1487.01,471.307 1631.01,471.307 1631.01,422.923 1487.01,422.923 1487.01,471.307 
  "/>
<g clip-path="url(#clip5600)">
<text style="fill:#000000; fill-opacity:1; font-family:Arial,Helvetica Neue,Helvetica,sans-serif; font-size:48px; text-anchor:start;" transform="rotate(0, 1655.01, 464.615)" x="1655.01" y="464.615">std. dev.</text>
</g>
<polyline clip-path="url(#clip5600)" style="stroke:#696969; stroke-width:4; stroke-opacity:1; fill:none" points="
  1487.01,507.595 1631.01,507.595 
  "/>
<g clip-path="url(#clip5600)">
<text style="fill:#000000; fill-opacity:1; font-family:Arial,Helvetica Neue,Helvetica,sans-serif; font-size:48px; text-anchor:start;" transform="rotate(0, 1655.01, 525.095)" x="1655.01" y="525.095">mean</text>
</g>
<polyline clip-path="url(#clip5600)" style="stroke:#000000; stroke-width:4; stroke-opacity:1; fill:none" stroke-dasharray="16, 10" points="
  1487.01,568.075 1631.01,568.075 
  "/>
<g clip-path="url(#clip5600)">
<text style="fill:#000000; fill-opacity:1; font-family:Arial,Helvetica Neue,Helvetica,sans-serif; font-size:48px; text-anchor:start;" transform="rotate(0, 1655.01, 585.575)" x="1655.01" y="585.575">global mode</text>
</g>
<polyline clip-path="url(#clip5600)" style="stroke:#000000; stroke-width:4; stroke-opacity:1; fill:none" stroke-dasharray="2, 4" points="
  1487.01,628.555 1631.01,628.555 
  "/>
<g clip-path="url(#clip5600)">
<text style="fill:#000000; fill-opacity:1; font-family:Arial,Helvetica Neue,Helvetica,sans-serif; font-size:48px; text-anchor:start;" transform="rotate(0, 1655.01, 646.055)" x="1655.01" y="646.055">local mode</text>
</g>
</svg>
