<?xml version="1.0" encoding="utf-8"?>
<svg xmlns="http://www.w3.org/2000/svg" xmlns:xlink="http://www.w3.org/1999/xlink" width="600" height="400" viewBox="0 0 2400 1600">
<defs>
  <clipPath id="clip350">
    <rect x="0" y="0" width="2400" height="1600"/>
  </clipPath>
</defs>
<path clip-path="url(#clip350)" d="
M0 1600 L2400 1600 L2400 0 L0 0  Z
  " fill="#ffffff" fill-rule="evenodd" fill-opacity="1"/>
<defs>
  <clipPath id="clip351">
    <rect x="480" y="0" width="1681" height="1600"/>
  </clipPath>
</defs>
<path clip-path="url(#clip350)" d="
M166.205 1486.45 L2352.76 1486.45 L2352.76 123.472 L166.205 123.472  Z
  " fill="#ffffff" fill-rule="evenodd" fill-opacity="1"/>
<defs>
  <clipPath id="clip352">
    <rect x="166" y="123" width="2188" height="1364"/>
  </clipPath>
</defs>
<polyline clip-path="url(#clip352)" style="stroke:#000000; stroke-width:2; stroke-opacity:0.1; fill:none" points="
  228.088,1486.45 228.088,123.472 
  "/>
<polyline clip-path="url(#clip352)" style="stroke:#000000; stroke-width:2; stroke-opacity:0.1; fill:none" points="
  743.784,1486.45 743.784,123.472 
  "/>
<polyline clip-path="url(#clip352)" style="stroke:#000000; stroke-width:2; stroke-opacity:0.1; fill:none" points="
  1259.48,1486.45 1259.48,123.472 
  "/>
<polyline clip-path="url(#clip352)" style="stroke:#000000; stroke-width:2; stroke-opacity:0.1; fill:none" points="
  1775.18,1486.45 1775.18,123.472 
  "/>
<polyline clip-path="url(#clip352)" style="stroke:#000000; stroke-width:2; stroke-opacity:0.1; fill:none" points="
  2290.87,1486.45 2290.87,123.472 
  "/>
<polyline clip-path="url(#clip350)" style="stroke:#000000; stroke-width:4; stroke-opacity:1; fill:none" points="
  166.205,1486.45 2352.76,1486.45 
  "/>
<polyline clip-path="url(#clip350)" style="stroke:#000000; stroke-width:4; stroke-opacity:1; fill:none" points="
  228.088,1486.45 228.088,1470.09 
  "/>
<polyline clip-path="url(#clip350)" style="stroke:#000000; stroke-width:4; stroke-opacity:1; fill:none" points="
  743.784,1486.45 743.784,1470.09 
  "/>
<polyline clip-path="url(#clip350)" style="stroke:#000000; stroke-width:4; stroke-opacity:1; fill:none" points="
  1259.48,1486.45 1259.48,1470.09 
  "/>
<polyline clip-path="url(#clip350)" style="stroke:#000000; stroke-width:4; stroke-opacity:1; fill:none" points="
  1775.18,1486.45 1775.18,1470.09 
  "/>
<polyline clip-path="url(#clip350)" style="stroke:#000000; stroke-width:4; stroke-opacity:1; fill:none" points="
  2290.87,1486.45 2290.87,1470.09 
  "/>
<path clip-path="url(#clip350)" d="M 0 0 M199.5 1530.29 L229.176 1530.29 L229.176 1534.23 L199.5 1534.23 L199.5 1530.29 Z" fill="#000000" fill-rule="evenodd" fill-opacity="1" /><path clip-path="url(#clip350)" d="M 0 0 M247.093 1516.63 L235.287 1535.08 L247.093 1535.08 L247.093 1516.63 M245.866 1512.56 L251.745 1512.56 L251.745 1535.08 L256.676 1535.08 L256.676 1538.97 L251.745 1538.97 L251.745 1547.12 L247.093 1547.12 L247.093 1538.97 L231.491 1538.97 L231.491 1534.46 L245.866 1512.56 Z" fill="#000000" fill-rule="evenodd" fill-opacity="1" /><path clip-path="url(#clip350)" d="M 0 0 M716.238 1530.29 L745.914 1530.29 L745.914 1534.23 L716.238 1534.23 L716.238 1530.29 Z" fill="#000000" fill-rule="evenodd" fill-opacity="1" /><path clip-path="url(#clip350)" d="M 0 0 M755.011 1543.18 L771.33 1543.18 L771.33 1547.12 L749.386 1547.12 L749.386 1543.18 Q752.048 1540.43 756.631 1535.8 Q761.238 1531.15 762.418 1529.81 Q764.664 1527.28 765.543 1525.55 Q766.446 1523.79 766.446 1522.1 Q766.446 1519.34 764.502 1517.61 Q762.58 1515.87 759.479 1515.87 Q757.28 1515.87 754.826 1516.63 Q752.395 1517.4 749.618 1518.95 L749.618 1514.23 Q752.442 1513.09 754.895 1512.51 Q757.349 1511.93 759.386 1511.93 Q764.756 1511.93 767.951 1514.62 Q771.145 1517.31 771.145 1521.8 Q771.145 1523.93 770.335 1525.85 Q769.548 1527.74 767.442 1530.34 Q766.863 1531.01 763.761 1534.23 Q760.659 1537.42 755.011 1543.18 Z" fill="#000000" fill-rule="evenodd" fill-opacity="1" /><path clip-path="url(#clip350)" d="M 0 0 M1259.48 1515.64 Q1255.87 1515.64 1254.04 1519.2 Q1252.23 1522.75 1252.23 1529.87 Q1252.23 1536.98 1254.04 1540.55 Q1255.87 1544.09 1259.48 1544.09 Q1263.11 1544.09 1264.92 1540.55 Q1266.75 1536.98 1266.75 1529.87 Q1266.75 1522.75 1264.92 1519.2 Q1263.11 1515.64 1259.48 1515.64 M1259.48 1511.93 Q1265.29 1511.93 1268.35 1516.54 Q1271.42 1521.12 1271.42 1529.87 Q1271.42 1538.6 1268.35 1543.21 Q1265.29 1547.79 1259.48 1547.79 Q1253.67 1547.79 1250.59 1543.21 Q1247.54 1538.6 1247.54 1529.87 Q1247.54 1521.12 1250.59 1516.54 Q1253.67 1511.93 1259.48 1511.93 Z" fill="#000000" fill-rule="evenodd" fill-opacity="1" /><path clip-path="url(#clip350)" d="M 0 0 M1769.83 1543.18 L1786.15 1543.18 L1786.15 1547.12 L1764.2 1547.12 L1764.2 1543.18 Q1766.87 1540.43 1771.45 1535.8 Q1776.06 1531.15 1777.24 1529.81 Q1779.48 1527.28 1780.36 1525.55 Q1781.26 1523.79 1781.26 1522.1 Q1781.26 1519.34 1779.32 1517.61 Q1777.4 1515.87 1774.3 1515.87 Q1772.1 1515.87 1769.64 1516.63 Q1767.21 1517.4 1764.44 1518.95 L1764.44 1514.23 Q1767.26 1513.09 1769.71 1512.51 Q1772.17 1511.93 1774.2 1511.93 Q1779.57 1511.93 1782.77 1514.62 Q1785.96 1517.31 1785.96 1521.8 Q1785.96 1523.93 1785.15 1525.85 Q1784.37 1527.74 1782.26 1530.34 Q1781.68 1531.01 1778.58 1534.23 Q1775.48 1537.42 1769.83 1543.18 Z" fill="#000000" fill-rule="evenodd" fill-opacity="1" /><path clip-path="url(#clip350)" d="M 0 0 M2293.88 1516.63 L2282.08 1535.08 L2293.88 1535.08 L2293.88 1516.63 M2292.65 1512.56 L2298.53 1512.56 L2298.53 1535.08 L2303.46 1535.08 L2303.46 1538.97 L2298.53 1538.97 L2298.53 1547.12 L2293.88 1547.12 L2293.88 1538.97 L2278.28 1538.97 L2278.28 1534.46 L2292.65 1512.56 Z" fill="#000000" fill-rule="evenodd" fill-opacity="1" /><polyline clip-path="url(#clip352)" style="stroke:#000000; stroke-width:2; stroke-opacity:0.1; fill:none" points="
  166.205,1447.87 2352.76,1447.87 
  "/>
<polyline clip-path="url(#clip352)" style="stroke:#000000; stroke-width:2; stroke-opacity:0.1; fill:none" points="
  166.205,1141.72 2352.76,1141.72 
  "/>
<polyline clip-path="url(#clip352)" style="stroke:#000000; stroke-width:2; stroke-opacity:0.1; fill:none" points="
  166.205,835.575 2352.76,835.575 
  "/>
<polyline clip-path="url(#clip352)" style="stroke:#000000; stroke-width:2; stroke-opacity:0.1; fill:none" points="
  166.205,529.426 2352.76,529.426 
  "/>
<polyline clip-path="url(#clip352)" style="stroke:#000000; stroke-width:2; stroke-opacity:0.1; fill:none" points="
  166.205,223.277 2352.76,223.277 
  "/>
<polyline clip-path="url(#clip350)" style="stroke:#000000; stroke-width:4; stroke-opacity:1; fill:none" points="
  166.205,1486.45 166.205,123.472 
  "/>
<polyline clip-path="url(#clip350)" style="stroke:#000000; stroke-width:4; stroke-opacity:1; fill:none" points="
  166.205,1447.87 192.443,1447.87 
  "/>
<polyline clip-path="url(#clip350)" style="stroke:#000000; stroke-width:4; stroke-opacity:1; fill:none" points="
  166.205,1141.72 192.443,1141.72 
  "/>
<polyline clip-path="url(#clip350)" style="stroke:#000000; stroke-width:4; stroke-opacity:1; fill:none" points="
  166.205,835.575 192.443,835.575 
  "/>
<polyline clip-path="url(#clip350)" style="stroke:#000000; stroke-width:4; stroke-opacity:1; fill:none" points="
  166.205,529.426 192.443,529.426 
  "/>
<polyline clip-path="url(#clip350)" style="stroke:#000000; stroke-width:4; stroke-opacity:1; fill:none" points="
  166.205,223.277 192.443,223.277 
  "/>
<path clip-path="url(#clip350)" d="M 0 0 M118.26 1433.67 Q114.649 1433.67 112.82 1437.24 Q111.015 1440.78 111.015 1447.91 Q111.015 1455.01 112.82 1458.58 Q114.649 1462.12 118.26 1462.12 Q121.895 1462.12 123.7 1458.58 Q125.529 1455.01 125.529 1447.91 Q125.529 1440.78 123.7 1437.24 Q121.895 1433.67 118.26 1433.67 M118.26 1429.97 Q124.07 1429.97 127.126 1434.57 Q130.205 1439.16 130.205 1447.91 Q130.205 1456.63 127.126 1461.24 Q124.07 1465.82 118.26 1465.82 Q112.45 1465.82 109.371 1461.24 Q106.316 1456.63 106.316 1447.91 Q106.316 1439.16 109.371 1434.57 Q112.45 1429.97 118.26 1429.97 Z" fill="#000000" fill-rule="evenodd" fill-opacity="1" /><path clip-path="url(#clip350)" d="M 0 0 M59.8578 1155.07 L76.1772 1155.07 L76.1772 1159 L54.2328 1159 L54.2328 1155.07 Q56.8949 1152.31 61.4782 1147.68 Q66.0846 1143.03 67.2652 1141.69 Q69.5105 1139.17 70.3902 1137.43 Q71.2929 1135.67 71.2929 1133.98 Q71.2929 1131.23 69.3485 1129.49 Q67.4272 1127.75 64.3254 1127.75 Q62.1263 1127.75 59.6726 1128.52 Q57.2421 1129.28 54.4643 1130.83 L54.4643 1126.11 Q57.2884 1124.98 59.7421 1124.4 Q62.1958 1123.82 64.2328 1123.82 Q69.6031 1123.82 72.7976 1126.5 Q75.992 1129.19 75.992 1133.68 Q75.992 1135.81 75.1818 1137.73 Q74.3948 1139.63 72.2883 1142.22 Q71.7096 1142.89 68.6078 1146.11 Q65.5059 1149.3 59.8578 1155.07 Z" fill="#000000" fill-rule="evenodd" fill-opacity="1" /><path clip-path="url(#clip350)" d="M 0 0 M91.2465 1127.52 Q87.6354 1127.52 85.8068 1131.09 Q84.0012 1134.63 84.0012 1141.76 Q84.0012 1148.87 85.8068 1152.43 Q87.6354 1155.97 91.2465 1155.97 Q94.8808 1155.97 96.6863 1152.43 Q98.515 1148.87 98.515 1141.76 Q98.515 1134.63 96.6863 1131.09 Q94.8808 1127.52 91.2465 1127.52 M91.2465 1123.82 Q97.0567 1123.82 100.112 1128.43 Q103.191 1133.01 103.191 1141.76 Q103.191 1150.49 100.112 1155.09 Q97.0567 1159.68 91.2465 1159.68 Q85.4364 1159.68 82.3577 1155.09 Q79.3022 1150.49 79.3022 1141.76 Q79.3022 1133.01 82.3577 1128.43 Q85.4364 1123.82 91.2465 1123.82 Z" fill="#000000" fill-rule="evenodd" fill-opacity="1" /><path clip-path="url(#clip350)" d="M 0 0 M118.26 1127.52 Q114.649 1127.52 112.82 1131.09 Q111.015 1134.63 111.015 1141.76 Q111.015 1148.87 112.82 1152.43 Q114.649 1155.97 118.26 1155.97 Q121.895 1155.97 123.7 1152.43 Q125.529 1148.87 125.529 1141.76 Q125.529 1134.63 123.7 1131.09 Q121.895 1127.52 118.26 1127.52 M118.26 1123.82 Q124.07 1123.82 127.126 1128.43 Q130.205 1133.01 130.205 1141.76 Q130.205 1150.49 127.126 1155.09 Q124.07 1159.68 118.26 1159.68 Q112.45 1159.68 109.371 1155.09 Q106.316 1150.49 106.316 1141.76 Q106.316 1133.01 109.371 1128.43 Q112.45 1123.82 118.26 1123.82 Z" fill="#000000" fill-rule="evenodd" fill-opacity="1" /><path clip-path="url(#clip350)" d="M 0 0 M66.5939 822.369 L54.7884 840.818 L66.5939 840.818 L66.5939 822.369 M65.367 818.295 L71.2466 818.295 L71.2466 840.818 L76.1772 840.818 L76.1772 844.707 L71.2466 844.707 L71.2466 852.855 L66.5939 852.855 L66.5939 844.707 L50.9921 844.707 L50.9921 840.193 L65.367 818.295 Z" fill="#000000" fill-rule="evenodd" fill-opacity="1" /><path clip-path="url(#clip350)" d="M 0 0 M91.2465 821.374 Q87.6354 821.374 85.8068 824.938 Q84.0012 828.48 84.0012 835.61 Q84.0012 842.716 85.8068 846.281 Q87.6354 849.823 91.2465 849.823 Q94.8808 849.823 96.6863 846.281 Q98.515 842.716 98.515 835.61 Q98.515 828.48 96.6863 824.938 Q94.8808 821.374 91.2465 821.374 M91.2465 817.67 Q97.0567 817.67 100.112 822.276 Q103.191 826.86 103.191 835.61 Q103.191 844.336 100.112 848.943 Q97.0567 853.526 91.2465 853.526 Q85.4364 853.526 82.3577 848.943 Q79.3022 844.336 79.3022 835.61 Q79.3022 826.86 82.3577 822.276 Q85.4364 817.67 91.2465 817.67 Z" fill="#000000" fill-rule="evenodd" fill-opacity="1" /><path clip-path="url(#clip350)" d="M 0 0 M118.26 821.374 Q114.649 821.374 112.82 824.938 Q111.015 828.48 111.015 835.61 Q111.015 842.716 112.82 846.281 Q114.649 849.823 118.26 849.823 Q121.895 849.823 123.7 846.281 Q125.529 842.716 125.529 835.61 Q125.529 828.48 123.7 824.938 Q121.895 821.374 118.26 821.374 M118.26 817.67 Q124.07 817.67 127.126 822.276 Q130.205 826.86 130.205 835.61 Q130.205 844.336 127.126 848.943 Q124.07 853.526 118.26 853.526 Q112.45 853.526 109.371 848.943 Q106.316 844.336 106.316 835.61 Q106.316 826.86 109.371 822.276 Q112.45 817.67 118.26 817.67 Z" fill="#000000" fill-rule="evenodd" fill-opacity="1" /><path clip-path="url(#clip350)" d="M 0 0 M64.6495 527.562 Q61.5013 527.562 59.6495 529.715 Q57.8208 531.868 57.8208 535.618 Q57.8208 539.345 59.6495 541.521 Q61.5013 543.673 64.6495 543.673 Q67.7976 543.673 69.6263 541.521 Q71.4781 539.345 71.4781 535.618 Q71.4781 531.868 69.6263 529.715 Q67.7976 527.562 64.6495 527.562 M73.9318 512.91 L73.9318 517.169 Q72.1726 516.336 70.367 515.896 Q68.5846 515.456 66.8254 515.456 Q62.1958 515.456 59.7421 518.581 Q57.3115 521.706 56.9643 528.025 Q58.33 526.011 60.3902 524.947 Q62.4504 523.859 64.9272 523.859 Q70.1355 523.859 73.1448 527.03 Q76.1772 530.178 76.1772 535.618 Q76.1772 540.942 73.029 544.16 Q69.8809 547.377 64.6495 547.377 Q58.6541 547.377 55.4828 542.794 Q52.3116 538.187 52.3116 529.461 Q52.3116 521.266 56.2004 516.405 Q60.0893 511.521 66.6402 511.521 Q68.3994 511.521 70.1818 511.868 Q71.9874 512.215 73.9318 512.91 Z" fill="#000000" fill-rule="evenodd" fill-opacity="1" /><path clip-path="url(#clip350)" d="M 0 0 M91.2465 515.225 Q87.6354 515.225 85.8068 518.789 Q84.0012 522.331 84.0012 529.461 Q84.0012 536.567 85.8068 540.132 Q87.6354 543.673 91.2465 543.673 Q94.8808 543.673 96.6863 540.132 Q98.515 536.567 98.515 529.461 Q98.515 522.331 96.6863 518.789 Q94.8808 515.225 91.2465 515.225 M91.2465 511.521 Q97.0567 511.521 100.112 516.127 Q103.191 520.711 103.191 529.461 Q103.191 538.187 100.112 542.794 Q97.0567 547.377 91.2465 547.377 Q85.4364 547.377 82.3577 542.794 Q79.3022 538.187 79.3022 529.461 Q79.3022 520.711 82.3577 516.127 Q85.4364 511.521 91.2465 511.521 Z" fill="#000000" fill-rule="evenodd" fill-opacity="1" /><path clip-path="url(#clip350)" d="M 0 0 M118.26 515.225 Q114.649 515.225 112.82 518.789 Q111.015 522.331 111.015 529.461 Q111.015 536.567 112.82 540.132 Q114.649 543.673 118.26 543.673 Q121.895 543.673 123.7 540.132 Q125.529 536.567 125.529 529.461 Q125.529 522.331 123.7 518.789 Q121.895 515.225 118.26 515.225 M118.26 511.521 Q124.07 511.521 127.126 516.127 Q130.205 520.711 130.205 529.461 Q130.205 538.187 127.126 542.794 Q124.07 547.377 118.26 547.377 Q112.45 547.377 109.371 542.794 Q106.316 538.187 106.316 529.461 Q106.316 520.711 109.371 516.127 Q112.45 511.521 118.26 511.521 Z" fill="#000000" fill-rule="evenodd" fill-opacity="1" /><path clip-path="url(#clip350)" d="M 0 0 M64.3254 224.145 Q60.9921 224.145 59.0708 225.927 Q57.1726 227.71 57.1726 230.835 Q57.1726 233.96 59.0708 235.742 Q60.9921 237.524 64.3254 237.524 Q67.6587 237.524 69.58 235.742 Q71.5013 233.936 71.5013 230.835 Q71.5013 227.71 69.58 225.927 Q67.6819 224.145 64.3254 224.145 M59.6495 222.154 Q56.6402 221.413 54.9504 219.353 Q53.2838 217.293 53.2838 214.33 Q53.2838 210.187 56.2236 207.779 Q59.1865 205.372 64.3254 205.372 Q69.4874 205.372 72.4272 207.779 Q75.367 210.187 75.367 214.33 Q75.367 217.293 73.6772 219.353 Q72.0105 221.413 69.0244 222.154 Q72.404 222.941 74.279 225.233 Q76.1772 227.524 76.1772 230.835 Q76.1772 235.858 73.0985 238.543 Q70.0429 241.228 64.3254 241.228 Q58.6078 241.228 55.5291 238.543 Q52.4736 235.858 52.4736 230.835 Q52.4736 227.524 54.3717 225.233 Q56.2699 222.941 59.6495 222.154 M57.9365 214.77 Q57.9365 217.455 59.6032 218.96 Q61.293 220.464 64.3254 220.464 Q67.3346 220.464 69.0244 218.96 Q70.7374 217.455 70.7374 214.77 Q70.7374 212.085 69.0244 210.58 Q67.3346 209.075 64.3254 209.075 Q61.293 209.075 59.6032 210.58 Q57.9365 212.085 57.9365 214.77 Z" fill="#000000" fill-rule="evenodd" fill-opacity="1" /><path clip-path="url(#clip350)" d="M 0 0 M91.2465 209.075 Q87.6354 209.075 85.8068 212.64 Q84.0012 216.182 84.0012 223.311 Q84.0012 230.418 85.8068 233.983 Q87.6354 237.524 91.2465 237.524 Q94.8808 237.524 96.6863 233.983 Q98.515 230.418 98.515 223.311 Q98.515 216.182 96.6863 212.64 Q94.8808 209.075 91.2465 209.075 M91.2465 205.372 Q97.0567 205.372 100.112 209.978 Q103.191 214.561 103.191 223.311 Q103.191 232.038 100.112 236.645 Q97.0567 241.228 91.2465 241.228 Q85.4364 241.228 82.3577 236.645 Q79.3022 232.038 79.3022 223.311 Q79.3022 214.561 82.3577 209.978 Q85.4364 205.372 91.2465 205.372 Z" fill="#000000" fill-rule="evenodd" fill-opacity="1" /><path clip-path="url(#clip350)" d="M 0 0 M118.26 209.075 Q114.649 209.075 112.82 212.64 Q111.015 216.182 111.015 223.311 Q111.015 230.418 112.82 233.983 Q114.649 237.524 118.26 237.524 Q121.895 237.524 123.7 233.983 Q125.529 230.418 125.529 223.311 Q125.529 216.182 123.7 212.64 Q121.895 209.075 118.26 209.075 M118.26 205.372 Q124.07 205.372 127.126 209.978 Q130.205 214.561 130.205 223.311 Q130.205 232.038 127.126 236.645 Q124.07 241.228 118.26 241.228 Q112.45 241.228 109.371 236.645 Q106.316 232.038 106.316 223.311 Q106.316 214.561 109.371 209.978 Q112.45 205.372 118.26 205.372 Z" fill="#000000" fill-rule="evenodd" fill-opacity="1" /><path clip-path="url(#clip350)" d="M 0 0 M697.458 18.8205 L697.458 65.8515 L707.342 65.8515 Q719.859 65.8515 725.652 60.1802 Q731.485 54.509 731.485 42.2752 Q731.485 30.1225 725.652 24.4918 Q719.859 18.8205 707.342 18.8205 L697.458 18.8205 M689.275 12.096 L706.086 12.096 Q723.667 12.096 731.891 19.4281 Q740.114 26.7198 740.114 42.2752 Q740.114 57.9117 731.85 65.2439 Q723.586 72.576 706.086 72.576 L689.275 72.576 L689.275 12.096 Z" fill="#000000" fill-rule="evenodd" fill-opacity="1" /><path clip-path="url(#clip350)" d="M 0 0 M768.551 49.7694 Q759.518 49.7694 756.034 51.8354 Q752.55 53.9013 752.55 58.8839 Q752.55 62.8538 755.143 65.2034 Q757.776 67.5124 762.272 67.5124 Q768.47 67.5124 772.197 63.1374 Q775.964 58.7219 775.964 51.4303 L775.964 49.7694 L768.551 49.7694 M783.418 46.6907 L783.418 72.576 L775.964 72.576 L775.964 65.6895 Q773.412 69.8214 769.604 71.8063 Q765.797 73.7508 760.287 73.7508 Q753.32 73.7508 749.188 69.8619 Q745.096 65.9325 745.096 59.3701 Q745.096 51.7138 750.201 47.825 Q755.345 43.9361 765.513 43.9361 L775.964 43.9361 L775.964 43.2069 Q775.964 38.0623 772.562 35.2672 Q769.199 32.4315 763.082 32.4315 Q759.194 32.4315 755.507 33.3632 Q751.821 34.295 748.418 36.1584 L748.418 29.2718 Q752.51 27.692 756.358 26.9223 Q760.206 26.1121 763.852 26.1121 Q773.696 26.1121 778.557 31.2163 Q783.418 36.3204 783.418 46.6907 Z" fill="#000000" fill-rule="evenodd" fill-opacity="1" /><path clip-path="url(#clip350)" d="M 0 0 M798.609 14.324 L798.609 27.2059 L813.962 27.2059 L813.962 32.9987 L798.609 32.9987 L798.609 57.6282 Q798.609 63.1779 800.108 64.7578 Q801.647 66.3376 806.306 66.3376 L813.962 66.3376 L813.962 72.576 L806.306 72.576 Q797.677 72.576 794.396 69.3758 Q791.115 66.1351 791.115 57.6282 L791.115 32.9987 L785.646 32.9987 L785.646 27.2059 L791.115 27.2059 L791.115 14.324 L798.609 14.324 Z" fill="#000000" fill-rule="evenodd" fill-opacity="1" /><path clip-path="url(#clip350)" d="M 0 0 M842.399 49.7694 Q833.366 49.7694 829.882 51.8354 Q826.398 53.9013 826.398 58.8839 Q826.398 62.8538 828.991 65.2034 Q831.624 67.5124 836.12 67.5124 Q842.318 67.5124 846.045 63.1374 Q849.812 58.7219 849.812 51.4303 L849.812 49.7694 L842.399 49.7694 M857.266 46.6907 L857.266 72.576 L849.812 72.576 L849.812 65.6895 Q847.26 69.8214 843.452 71.8063 Q839.645 73.7508 834.135 73.7508 Q827.168 73.7508 823.036 69.8619 Q818.944 65.9325 818.944 59.3701 Q818.944 51.7138 824.049 47.825 Q829.193 43.9361 839.361 43.9361 L849.812 43.9361 L849.812 43.2069 Q849.812 38.0623 846.41 35.2672 Q843.047 32.4315 836.93 32.4315 Q833.042 32.4315 829.355 33.3632 Q825.669 34.295 822.266 36.1584 L822.266 29.2718 Q826.358 27.692 830.206 26.9223 Q834.054 26.1121 837.7 26.1121 Q847.544 26.1121 852.405 31.2163 Q857.266 36.3204 857.266 46.6907 Z" fill="#000000" fill-rule="evenodd" fill-opacity="1" /><path clip-path="url(#clip350)" d="M 0 0 M912.075 49.7694 Q903.041 49.7694 899.557 51.8354 Q896.074 53.9013 896.074 58.8839 Q896.074 62.8538 898.666 65.2034 Q901.299 67.5124 905.796 67.5124 Q911.994 67.5124 915.721 63.1374 Q919.488 58.7219 919.488 51.4303 L919.488 49.7694 L912.075 49.7694 M926.942 46.6907 L926.942 72.576 L919.488 72.576 L919.488 65.6895 Q916.936 69.8214 913.128 71.8063 Q909.32 73.7508 903.811 73.7508 Q896.843 73.7508 892.711 69.8619 Q888.62 65.9325 888.62 59.3701 Q888.62 51.7138 893.724 47.825 Q898.869 43.9361 909.037 43.9361 L919.488 43.9361 L919.488 43.2069 Q919.488 38.0623 916.085 35.2672 Q912.723 32.4315 906.606 32.4315 Q902.717 32.4315 899.031 33.3632 Q895.345 34.295 891.942 36.1584 L891.942 29.2718 Q896.033 27.692 899.882 26.9223 Q903.73 26.1121 907.376 26.1121 Q917.219 26.1121 922.08 31.2163 Q926.942 36.3204 926.942 46.6907 Z" fill="#000000" fill-rule="evenodd" fill-opacity="1" /><path clip-path="url(#clip350)" d="M 0 0 M972.474 45.1919 L972.474 72.576 L965.02 72.576 L965.02 45.4349 Q965.02 38.994 962.508 35.7938 Q959.997 32.5936 954.974 32.5936 Q948.938 32.5936 945.454 36.4419 Q941.97 40.2903 941.97 46.9338 L941.97 72.576 L934.476 72.576 L934.476 27.2059 L941.97 27.2059 L941.97 34.2544 Q944.644 30.163 948.249 28.1376 Q951.895 26.1121 956.635 26.1121 Q964.453 26.1121 968.463 30.9732 Q972.474 35.7938 972.474 45.1919 Z" fill="#000000" fill-rule="evenodd" fill-opacity="1" /><path clip-path="url(#clip350)" d="M 0 0 M1010.15 34.0924 L1010.15 9.54393 L1017.6 9.54393 L1017.6 72.576 L1010.15 72.576 L1010.15 65.7705 Q1007.8 69.8214 1004.19 71.8063 Q1000.63 73.7508 995.604 73.7508 Q987.381 73.7508 982.196 67.1883 Q977.051 60.6258 977.051 49.9314 Q977.051 39.2371 982.196 32.6746 Q987.381 26.1121 995.604 26.1121 Q1000.63 26.1121 1004.19 28.0971 Q1007.8 30.0415 1010.15 34.0924 M984.748 49.9314 Q984.748 58.1548 988.11 62.8538 Q991.513 67.5124 997.427 67.5124 Q1003.34 67.5124 1006.74 62.8538 Q1010.15 58.1548 1010.15 49.9314 Q1010.15 41.7081 1006.74 37.0496 Q1003.34 32.3505 997.427 32.3505 Q991.513 32.3505 988.11 37.0496 Q984.748 41.7081 984.748 49.9314 Z" fill="#000000" fill-rule="evenodd" fill-opacity="1" /><path clip-path="url(#clip350)" d="M 0 0 M1043.73 12.096 L1094.89 12.096 L1094.89 18.9825 L1073.42 18.9825 L1073.42 72.576 L1065.2 72.576 L1065.2 18.9825 L1043.73 18.9825 L1043.73 12.096 Z" fill="#000000" fill-rule="evenodd" fill-opacity="1" /><path clip-path="url(#clip350)" d="M 0 0 M1116.81 34.1734 Q1115.55 33.4443 1114.05 33.1202 Q1112.59 32.7556 1110.81 32.7556 Q1104.49 32.7556 1101.09 36.8875 Q1097.73 40.9789 1097.73 48.6757 L1097.73 72.576 L1090.23 72.576 L1090.23 27.2059 L1097.73 27.2059 L1097.73 34.2544 Q1100.08 30.1225 1103.84 28.1376 Q1107.61 26.1121 1113 26.1121 Q1113.77 26.1121 1114.7 26.2337 Q1115.63 26.3147 1116.77 26.5172 L1116.81 34.1734 Z" fill="#000000" fill-rule="evenodd" fill-opacity="1" /><path clip-path="url(#clip350)" d="M 0 0 M1123.86 54.671 L1123.86 27.2059 L1131.31 27.2059 L1131.31 54.3874 Q1131.31 60.8284 1133.82 64.0691 Q1136.33 67.2693 1141.36 67.2693 Q1147.39 67.2693 1150.88 63.421 Q1154.4 59.5726 1154.4 52.9291 L1154.4 27.2059 L1161.85 27.2059 L1161.85 72.576 L1154.4 72.576 L1154.4 65.6084 Q1151.69 69.7404 1148.08 71.7658 Q1144.52 73.7508 1139.78 73.7508 Q1131.96 73.7508 1127.91 68.8897 Q1123.86 64.0286 1123.86 54.671 M1142.61 26.1121 L1142.61 26.1121 Z" fill="#000000" fill-rule="evenodd" fill-opacity="1" /><path clip-path="url(#clip350)" d="M 0 0 M1208.48 48.0275 L1208.48 51.6733 L1174.21 51.6733 Q1174.69 59.3701 1178.83 63.421 Q1183 67.4314 1190.41 67.4314 Q1194.71 67.4314 1198.72 66.3781 Q1202.77 65.3249 1206.74 63.2184 L1206.74 70.267 Q1202.73 71.9684 1198.51 72.8596 Q1194.3 73.7508 1189.97 73.7508 Q1179.11 73.7508 1172.75 67.4314 Q1166.43 61.1119 1166.43 50.3365 Q1166.43 39.1965 1172.43 32.6746 Q1178.46 26.1121 1188.67 26.1121 Q1197.83 26.1121 1203.13 32.0264 Q1208.48 37.9003 1208.48 48.0275 M1201.03 45.84 Q1200.94 39.7232 1197.58 36.0774 Q1194.26 32.4315 1188.75 32.4315 Q1182.51 32.4315 1178.75 35.9558 Q1175.02 39.4801 1174.45 45.8805 L1201.03 45.84 Z" fill="#000000" fill-rule="evenodd" fill-opacity="1" /><path clip-path="url(#clip350)" d="M 0 0 M1279.25 14.0809 L1279.25 22.0612 Q1274.59 19.8332 1270.46 18.7395 Q1266.33 17.6457 1262.48 17.6457 Q1255.79 17.6457 1252.15 20.2383 Q1248.54 22.8309 1248.54 27.611 Q1248.54 31.6214 1250.93 33.6873 Q1253.36 35.7128 1260.09 36.9686 L1265.03 37.9813 Q1274.19 39.7232 1278.52 44.1387 Q1282.89 48.5136 1282.89 55.8863 Q1282.89 64.6767 1276.98 69.2137 Q1271.11 73.7508 1259.72 73.7508 Q1255.43 73.7508 1250.57 72.7785 Q1245.75 71.8063 1240.56 69.9024 L1240.56 61.4765 Q1245.55 64.2716 1250.33 65.6895 Q1255.11 67.1073 1259.72 67.1073 Q1266.73 67.1073 1270.54 64.3527 Q1274.35 61.598 1274.35 56.4939 Q1274.35 52.0379 1271.59 49.5264 Q1268.88 47.0148 1262.64 45.759 L1257.66 44.7868 Q1248.5 42.9639 1244.41 39.075 Q1240.32 35.1862 1240.32 28.2591 Q1240.32 20.2383 1245.95 15.6203 Q1251.62 11.0023 1261.55 11.0023 Q1265.8 11.0023 1270.22 11.7719 Q1274.63 12.5416 1279.25 14.0809 Z" fill="#000000" fill-rule="evenodd" fill-opacity="1" /><path clip-path="url(#clip350)" d="M 0 0 M1298.09 14.324 L1298.09 27.2059 L1313.44 27.2059 L1313.44 32.9987 L1298.09 32.9987 L1298.09 57.6282 Q1298.09 63.1779 1299.58 64.7578 Q1301.12 66.3376 1305.78 66.3376 L1313.44 66.3376 L1313.44 72.576 L1305.78 72.576 Q1297.15 72.576 1293.87 69.3758 Q1290.59 66.1351 1290.59 57.6282 L1290.59 32.9987 L1285.12 32.9987 L1285.12 27.2059 L1290.59 27.2059 L1290.59 14.324 L1298.09 14.324 Z" fill="#000000" fill-rule="evenodd" fill-opacity="1" /><path clip-path="url(#clip350)" d="M 0 0 M1341.88 49.7694 Q1332.84 49.7694 1329.36 51.8354 Q1325.87 53.9013 1325.87 58.8839 Q1325.87 62.8538 1328.47 65.2034 Q1331.1 67.5124 1335.6 67.5124 Q1341.79 67.5124 1345.52 63.1374 Q1349.29 58.7219 1349.29 51.4303 L1349.29 49.7694 L1341.88 49.7694 M1356.74 46.6907 L1356.74 72.576 L1349.29 72.576 L1349.29 65.6895 Q1346.74 69.8214 1342.93 71.8063 Q1339.12 73.7508 1333.61 73.7508 Q1326.64 73.7508 1322.51 69.8619 Q1318.42 65.9325 1318.42 59.3701 Q1318.42 51.7138 1323.53 47.825 Q1328.67 43.9361 1338.84 43.9361 L1349.29 43.9361 L1349.29 43.2069 Q1349.29 38.0623 1345.89 35.2672 Q1342.52 32.4315 1336.41 32.4315 Q1332.52 32.4315 1328.83 33.3632 Q1325.15 34.295 1321.74 36.1584 L1321.74 29.2718 Q1325.83 27.692 1329.68 26.9223 Q1333.53 26.1121 1337.18 26.1121 Q1347.02 26.1121 1351.88 31.2163 Q1356.74 36.3204 1356.74 46.6907 Z" fill="#000000" fill-rule="evenodd" fill-opacity="1" /><path clip-path="url(#clip350)" d="M 0 0 M1371.93 14.324 L1371.93 27.2059 L1387.29 27.2059 L1387.29 32.9987 L1371.93 32.9987 L1371.93 57.6282 Q1371.93 63.1779 1373.43 64.7578 Q1374.97 66.3376 1379.63 66.3376 L1387.29 66.3376 L1387.29 72.576 L1379.63 72.576 Q1371 72.576 1367.72 69.3758 Q1364.44 66.1351 1364.44 57.6282 L1364.44 32.9987 L1358.97 32.9987 L1358.97 27.2059 L1364.44 27.2059 L1364.44 14.324 L1371.93 14.324 Z" fill="#000000" fill-rule="evenodd" fill-opacity="1" /><path clip-path="url(#clip350)" d="M 0 0 M1395.1 27.2059 L1402.56 27.2059 L1402.56 72.576 L1395.1 72.576 L1395.1 27.2059 M1395.1 9.54393 L1402.56 9.54393 L1402.56 18.9825 L1395.1 18.9825 L1395.1 9.54393 Z" fill="#000000" fill-rule="evenodd" fill-opacity="1" /><path clip-path="url(#clip350)" d="M 0 0 M1439.3 28.5427 L1439.3 35.5912 Q1436.14 33.9709 1432.74 33.1607 Q1429.33 32.3505 1425.69 32.3505 Q1420.14 32.3505 1417.34 34.0519 Q1414.59 35.7533 1414.59 39.156 Q1414.59 41.7486 1416.57 43.2475 Q1418.56 44.7058 1424.55 46.0426 L1427.11 46.6097 Q1435.05 48.3111 1438.37 51.4303 Q1441.73 54.509 1441.73 60.0587 Q1441.73 66.3781 1436.71 70.0644 Q1431.72 73.7508 1422.97 73.7508 Q1419.33 73.7508 1415.36 73.0216 Q1411.43 72.3329 1407.05 70.9151 L1407.05 63.2184 Q1411.19 65.3654 1415.2 66.4591 Q1419.21 67.5124 1423.14 67.5124 Q1428.4 67.5124 1431.24 65.73 Q1434.07 63.9071 1434.07 60.6258 Q1434.07 57.5877 1432.01 55.9673 Q1429.98 54.3469 1423.06 52.8481 L1420.46 52.2405 Q1413.54 50.7821 1410.46 47.7845 Q1407.38 44.7463 1407.38 39.4801 Q1407.38 33.0797 1411.92 29.5959 Q1416.45 26.1121 1424.8 26.1121 Q1428.93 26.1121 1432.58 26.7198 Q1436.22 27.3274 1439.3 28.5427 Z" fill="#000000" fill-rule="evenodd" fill-opacity="1" /><path clip-path="url(#clip350)" d="M 0 0 M1456.92 14.324 L1456.92 27.2059 L1472.27 27.2059 L1472.27 32.9987 L1456.92 32.9987 L1456.92 57.6282 Q1456.92 63.1779 1458.42 64.7578 Q1459.96 66.3376 1464.62 66.3376 L1472.27 66.3376 L1472.27 72.576 L1464.62 72.576 Q1455.99 72.576 1452.71 69.3758 Q1449.43 66.1351 1449.43 57.6282 L1449.43 32.9987 L1443.96 32.9987 L1443.96 27.2059 L1449.43 27.2059 L1449.43 14.324 L1456.92 14.324 Z" fill="#000000" fill-rule="evenodd" fill-opacity="1" /><path clip-path="url(#clip350)" d="M 0 0 M1480.09 27.2059 L1487.55 27.2059 L1487.55 72.576 L1480.09 72.576 L1480.09 27.2059 M1480.09 9.54393 L1487.55 9.54393 L1487.55 18.9825 L1480.09 18.9825 L1480.09 9.54393 Z" fill="#000000" fill-rule="evenodd" fill-opacity="1" /><path clip-path="url(#clip350)" d="M 0 0 M1528.01 28.9478 L1528.01 35.9153 Q1524.86 34.1734 1521.65 33.3227 Q1518.5 32.4315 1515.25 32.4315 Q1508 32.4315 1503.99 37.0496 Q1499.98 41.6271 1499.98 49.9314 Q1499.98 58.2358 1503.99 62.8538 Q1508 67.4314 1515.25 67.4314 Q1518.5 67.4314 1521.65 66.5807 Q1524.86 65.6895 1528.01 63.9476 L1528.01 70.8341 Q1524.9 72.2924 1521.53 73.0216 Q1518.21 73.7508 1514.44 73.7508 Q1504.2 73.7508 1498.16 67.3098 Q1492.12 60.8689 1492.12 49.9314 Q1492.12 38.832 1498.2 32.472 Q1504.32 26.1121 1514.93 26.1121 Q1518.37 26.1121 1521.65 26.8413 Q1524.94 27.5299 1528.01 28.9478 Z" fill="#000000" fill-rule="evenodd" fill-opacity="1" /><path clip-path="url(#clip350)" d="M 0 0 M1556.45 49.7694 Q1547.42 49.7694 1543.93 51.8354 Q1540.45 53.9013 1540.45 58.8839 Q1540.45 62.8538 1543.04 65.2034 Q1545.68 67.5124 1550.17 67.5124 Q1556.37 67.5124 1560.1 63.1374 Q1563.87 58.7219 1563.87 51.4303 L1563.87 49.7694 L1556.45 49.7694 M1571.32 46.6907 L1571.32 72.576 L1563.87 72.576 L1563.87 65.6895 Q1561.31 69.8214 1557.51 71.8063 Q1553.7 73.7508 1548.19 73.7508 Q1541.22 73.7508 1537.09 69.8619 Q1533 65.9325 1533 59.3701 Q1533 51.7138 1538.1 47.825 Q1543.25 43.9361 1553.41 43.9361 L1563.87 43.9361 L1563.87 43.2069 Q1563.87 38.0623 1560.46 35.2672 Q1557.1 32.4315 1550.98 32.4315 Q1547.09 32.4315 1543.41 33.3632 Q1539.72 34.295 1536.32 36.1584 L1536.32 29.2718 Q1540.41 27.692 1544.26 26.9223 Q1548.11 26.1121 1551.75 26.1121 Q1561.6 26.1121 1566.46 31.2163 Q1571.32 36.3204 1571.32 46.6907 Z" fill="#000000" fill-rule="evenodd" fill-opacity="1" /><path clip-path="url(#clip350)" d="M 0 0 M1579.14 9.54393 L1586.59 9.54393 L1586.59 72.576 L1579.14 72.576 L1579.14 9.54393 Z" fill="#000000" fill-rule="evenodd" fill-opacity="1" /><path clip-path="url(#clip350)" d="M 0 0 M1621.1 12.096 L1633.3 12.096 L1648.73 53.2532 L1664.25 12.096 L1676.44 12.096 L1676.44 72.576 L1668.46 72.576 L1668.46 19.4686 L1652.86 60.9499 L1644.64 60.9499 L1629.04 19.4686 L1629.04 72.576 L1621.1 72.576 L1621.1 12.096 Z" fill="#000000" fill-rule="evenodd" fill-opacity="1" /><path clip-path="url(#clip350)" d="M 0 0 M1701.84 32.4315 Q1695.84 32.4315 1692.36 37.1306 Q1688.88 41.7891 1688.88 49.9314 Q1688.88 58.0738 1692.32 62.7728 Q1695.8 67.4314 1701.84 67.4314 Q1707.79 67.4314 1711.28 62.7323 Q1714.76 58.0333 1714.76 49.9314 Q1714.76 41.8701 1711.28 37.1711 Q1707.79 32.4315 1701.84 32.4315 M1701.84 26.1121 Q1711.56 26.1121 1717.11 32.4315 Q1722.66 38.7509 1722.66 49.9314 Q1722.66 61.0714 1717.11 67.4314 Q1711.56 73.7508 1701.84 73.7508 Q1692.08 73.7508 1686.53 67.4314 Q1681.02 61.0714 1681.02 49.9314 Q1681.02 38.7509 1686.53 32.4315 Q1692.08 26.1121 1701.84 26.1121 Z" fill="#000000" fill-rule="evenodd" fill-opacity="1" /><path clip-path="url(#clip350)" d="M 0 0 M1760.33 34.0924 L1760.33 9.54393 L1767.79 9.54393 L1767.79 72.576 L1760.33 72.576 L1760.33 65.7705 Q1757.98 69.8214 1754.38 71.8063 Q1750.81 73.7508 1745.79 73.7508 Q1737.57 73.7508 1732.38 67.1883 Q1727.24 60.6258 1727.24 49.9314 Q1727.24 39.2371 1732.38 32.6746 Q1737.57 26.1121 1745.79 26.1121 Q1750.81 26.1121 1754.38 28.0971 Q1757.98 30.0415 1760.33 34.0924 M1734.93 49.9314 Q1734.93 58.1548 1738.3 62.8538 Q1741.7 67.5124 1747.61 67.5124 Q1753.53 67.5124 1756.93 62.8538 Q1760.33 58.1548 1760.33 49.9314 Q1760.33 41.7081 1756.93 37.0496 Q1753.53 32.3505 1747.61 32.3505 Q1741.7 32.3505 1738.3 37.0496 Q1734.93 41.7081 1734.93 49.9314 Z" fill="#000000" fill-rule="evenodd" fill-opacity="1" /><path clip-path="url(#clip350)" d="M 0 0 M1814.41 48.0275 L1814.41 51.6733 L1780.14 51.6733 Q1780.63 59.3701 1784.76 63.421 Q1788.93 67.4314 1796.35 67.4314 Q1800.64 67.4314 1804.65 66.3781 Q1808.7 65.3249 1812.67 63.2184 L1812.67 70.267 Q1808.66 71.9684 1804.45 72.8596 Q1800.24 73.7508 1795.9 73.7508 Q1785.04 73.7508 1778.68 67.4314 Q1772.37 61.1119 1772.37 50.3365 Q1772.37 39.1965 1778.36 32.6746 Q1784.4 26.1121 1794.6 26.1121 Q1803.76 26.1121 1809.07 32.0264 Q1814.41 37.9003 1814.41 48.0275 M1806.96 45.84 Q1806.88 39.7232 1803.52 36.0774 Q1800.19 32.4315 1794.69 32.4315 Q1788.45 32.4315 1784.68 35.9558 Q1780.95 39.4801 1780.39 45.8805 L1806.96 45.84 Z" fill="#000000" fill-rule="evenodd" fill-opacity="1" /><path clip-path="url(#clip350)" d="M 0 0 M1822.23 9.54393 L1829.69 9.54393 L1829.69 72.576 L1822.23 72.576 L1822.23 9.54393 Z" fill="#000000" fill-rule="evenodd" fill-opacity="1" /><polyline clip-path="url(#clip352)" style="stroke:#009af9; stroke-width:4; stroke-opacity:1; fill:none" points="
  743.784,1447.87 743.784,1310.11 769.569,1310.11 795.354,1310.11 795.354,1356.03 821.139,1356.03 821.139,1294.8 846.923,1294.8 846.923,1003.96 
  872.708,1003.96 872.708,1157.03 898.493,1157.03 898.493,958.035 924.278,958.035 924.278,912.112 950.063,912.112 975.847,912.112 975.847,820.267 
  1001.63,820.267 1027.42,820.267 1027.42,850.882 1053.2,850.882 1053.2,896.805 1078.99,896.805 1104.77,896.805 1104.77,1034.57 
  1130.56,1034.57 1130.56,1049.88 1156.34,1049.88 1156.34,1233.57 1182.13,1233.57 1182.13,1264.18 1207.91,1264.18 1233.7,1264.18 1233.7,1417.26 
  1259.48,1417.26 1259.48,1356.03 1285.27,1356.03 1285.27,1371.34 1311.05,1371.34 1311.05,1417.26 1336.83,1417.26 1336.83,1432.57 1362.62,1432.57 1362.62,1401.95 
  1388.4,1401.95 1414.19,1401.95 1414.19,1432.57 1439.97,1432.57 1439.97,1417.26 1465.76,1417.26 1465.76,1310.11 1491.54,1310.11 1491.54,1340.72 
  1517.33,1340.72 1517.33,1202.95 1543.11,1202.95 1543.11,1126.42 1568.9,1126.42 1568.9,1019.26 1594.68,1019.26 1594.68,820.267 1620.47,820.267 1620.47,881.497 
  1646.25,881.497 1646.25,804.96 1672.04,804.96 1672.04,452.889 1697.82,452.889 1697.82,284.507 1723.61,284.507 1723.61,483.503 1749.39,483.503 1749.39,162.047 
  1775.18,162.047 1775.18,422.274 1800.96,422.274 1800.96,560.041 1826.75,560.041 1826.75,345.736 1852.53,345.736 1852.53,269.199 1878.32,269.199 1878.32,605.963 
  1904.1,605.963 1904.1,636.578 1929.89,636.578 1929.89,820.267 1955.67,820.267 1955.67,1003.96 1981.45,1003.96 1981.45,1172.34 2007.24,1172.34 2007.24,1202.95 
  2033.02,1202.95 2033.02,1386.64 2058.81,1386.64 2058.81,1340.72 2084.59,1340.72 2084.59,1371.34 2110.38,1371.34 2110.38,1417.26 2136.16,1417.26 2136.16,1447.87 
  2161.95,1447.87 2187.73,1447.87 2213.52,1447.87 2239.3,1447.87 2239.3,1432.57 2265.09,1432.57 2265.09,1447.87 
  2290.87,1447.87 
  "/>
<polyline clip-path="url(#clip352)" style="stroke:#e26f46; stroke-width:4; stroke-opacity:1; fill:none" points="
  228.088,1447.87 230.667,1447.87 233.245,1447.87 235.824,1447.87 238.402,1447.87 240.981,1447.87 243.559,1447.87 246.138,1447.87 248.716,1447.87 251.295,1447.87 
  253.873,1447.87 256.451,1447.87 259.03,1447.87 261.608,1447.87 264.187,1447.87 266.765,1447.87 269.344,1447.87 271.922,1447.87 274.501,1447.87 277.079,1447.87 
  279.658,1447.87 282.236,1447.87 284.815,1447.87 287.393,1447.87 289.972,1447.87 292.55,1447.87 295.129,1447.87 297.707,1447.87 300.286,1447.87 302.864,1447.87 
  305.443,1447.87 308.021,1447.87 310.6,1447.87 313.178,1447.87 315.757,1447.87 318.335,1447.87 320.913,1447.87 323.492,1447.87 326.07,1447.87 328.649,1447.87 
  331.227,1447.87 333.806,1447.87 336.384,1447.87 338.963,1447.87 341.541,1447.87 344.12,1447.87 346.698,1447.87 349.277,1447.87 351.855,1447.87 354.434,1447.87 
  357.012,1447.87 359.591,1447.87 362.169,1447.87 364.748,1447.87 367.326,1447.87 369.905,1447.87 372.483,1447.87 375.062,1447.87 377.64,1447.87 380.219,1447.87 
  382.797,1447.87 385.375,1447.87 387.954,1447.87 390.532,1447.87 393.111,1447.86 395.689,1447.86 398.268,1447.86 400.846,1447.86 403.425,1447.86 406.003,1447.86 
  408.582,1447.86 411.16,1447.86 413.739,1447.85 416.317,1447.85 418.896,1447.85 421.474,1447.85 424.053,1447.85 426.631,1447.84 429.21,1447.84 431.788,1447.84 
  434.367,1447.83 436.945,1447.83 439.524,1447.83 442.102,1447.82 444.681,1447.82 447.259,1447.81 449.837,1447.81 452.416,1447.8 454.994,1447.8 457.573,1447.79 
  460.151,1447.78 462.73,1447.77 465.308,1447.77 467.887,1447.76 470.465,1447.75 473.044,1447.74 475.622,1447.72 478.201,1447.71 480.779,1447.7 483.358,1447.68 
  485.936,1447.67 488.515,1447.65 491.093,1447.63 493.672,1447.61 496.25,1447.59 498.829,1447.57 501.407,1447.54 503.986,1447.52 506.564,1447.49 509.143,1447.46 
  511.721,1447.43 514.299,1447.39 516.878,1447.35 519.456,1447.31 522.035,1447.27 524.613,1447.22 527.192,1447.17 529.77,1447.12 532.349,1447.06 534.927,1447 
  537.506,1446.94 540.084,1446.87 542.663,1446.79 545.241,1446.71 547.82,1446.63 550.398,1446.54 552.977,1446.44 555.555,1446.34 558.134,1446.23 560.712,1446.11 
  563.291,1445.99 565.869,1445.85 568.448,1445.71 571.026,1445.56 573.605,1445.41 576.183,1445.24 578.762,1445.06 581.34,1444.87 583.918,1444.66 586.497,1444.45 
  589.075,1444.22 591.654,1443.98 594.232,1443.73 596.811,1443.46 599.389,1443.17 601.968,1442.87 604.546,1442.55 607.125,1442.22 609.703,1441.86 612.282,1441.49 
  614.86,1441.09 617.439,1440.67 620.017,1440.23 622.596,1439.77 625.174,1439.28 627.753,1438.76 630.331,1438.22 632.91,1437.65 635.488,1437.05 638.067,1436.42 
  640.645,1435.76 643.224,1435.06 645.802,1434.33 648.38,1433.57 650.959,1432.76 653.537,1431.92 656.116,1431.04 658.694,1430.12 661.273,1429.15 663.851,1428.14 
  666.43,1427.08 669.008,1425.98 671.587,1424.82 674.165,1423.61 676.744,1422.36 679.322,1421.04 681.901,1419.67 684.479,1418.24 687.058,1416.76 689.636,1415.21 
  692.215,1413.59 694.793,1411.91 697.372,1410.17 699.95,1408.35 702.529,1406.47 705.107,1404.51 707.686,1402.48 710.264,1400.37 712.842,1398.18 715.421,1395.92 
  717.999,1393.57 720.578,1391.14 723.156,1388.62 725.735,1386.02 728.313,1383.33 730.892,1380.55 733.47,1377.67 736.049,1374.7 738.627,1371.64 741.206,1368.48 
  743.784,1365.23 746.363,1361.87 748.941,1358.41 751.52,1354.86 754.098,1351.2 756.677,1347.43 759.255,1343.56 761.834,1339.59 764.412,1335.51 766.991,1331.32 
  769.569,1327.02 772.148,1322.62 774.726,1318.1 777.304,1313.48 779.883,1308.75 782.461,1303.91 785.04,1298.96 787.618,1293.9 790.197,1288.74 792.775,1283.46 
  795.354,1278.08 797.932,1272.6 800.511,1267 803.089,1261.31 805.668,1255.51 808.246,1249.61 810.825,1243.62 813.403,1237.52 815.982,1231.33 818.56,1225.05 
  821.139,1218.68 823.717,1212.22 826.296,1205.67 828.874,1199.04 831.453,1192.33 834.031,1185.55 836.61,1178.7 839.188,1171.77 841.766,1164.78 844.345,1157.73 
  846.923,1150.62 849.502,1143.46 852.08,1136.26 854.659,1129.01 857.237,1121.72 859.816,1114.4 862.394,1107.05 864.973,1099.67 867.551,1092.29 870.13,1084.88 
  872.708,1077.48 875.287,1070.07 877.865,1062.67 880.444,1055.28 883.022,1047.91 885.601,1040.56 888.179,1033.25 890.758,1025.97 893.336,1018.74 895.915,1011.55 
  898.493,1004.43 901.072,997.367 903.65,990.376 906.228,983.461 908.807,976.631 911.385,969.892 913.964,963.25 916.542,956.712 919.121,950.286 921.699,943.976 
  924.278,937.791 926.856,931.736 929.435,925.819 932.013,920.045 934.592,914.42 937.17,908.951 939.749,903.643 942.327,898.503 944.906,893.537 947.484,888.749 
  950.063,884.145 952.641,879.731 955.22,875.511 957.798,871.491 960.377,867.674 962.955,864.065 965.534,860.669 968.112,857.49 970.69,854.531 973.269,851.795 
  975.847,849.286 978.426,847.007 981.004,844.961 983.583,843.149 986.161,841.575 988.74,840.24 991.318,839.145 993.897,838.292 996.475,837.682 999.054,837.316 
  1001.63,837.194 1004.21,837.316 1006.79,837.682 1009.37,838.292 1011.95,839.145 1014.52,840.24 1017.1,841.575 1019.68,843.149 1022.26,844.961 1024.84,847.007 
  1027.42,849.286 1030,851.795 1032.57,854.531 1035.15,857.49 1037.73,860.669 1040.31,864.065 1042.89,867.674 1045.47,871.49 1048.04,875.511 1050.62,879.731 
  1053.2,884.145 1055.78,888.749 1058.36,893.537 1060.94,898.503 1063.52,903.643 1066.09,908.95 1068.67,914.419 1071.25,920.044 1073.83,925.818 1076.41,931.736 
  1078.99,937.79 1081.57,943.976 1084.14,950.285 1086.72,956.711 1089.3,963.249 1091.88,969.891 1094.46,976.63 1097.04,983.46 1099.61,990.374 1102.19,997.366 
  1104.77,1004.43 1107.35,1011.55 1109.93,1018.74 1112.51,1025.97 1115.09,1033.25 1117.66,1040.56 1120.24,1047.91 1122.82,1055.28 1125.4,1062.67 1127.98,1070.07 
  1130.56,1077.47 1133.13,1084.88 1135.71,1092.28 1138.29,1099.67 1140.87,1107.04 1143.45,1114.39 1146.03,1121.71 1148.61,1129 1151.18,1136.25 1153.76,1143.45 
  1156.34,1150.61 1158.92,1157.72 1161.5,1164.77 1164.08,1171.75 1166.65,1178.68 1169.23,1185.53 1171.81,1192.31 1174.39,1199.02 1176.97,1205.65 1179.55,1212.19 
  1182.13,1218.65 1184.7,1225.02 1187.28,1231.3 1189.86,1237.48 1192.44,1243.57 1195.02,1249.57 1197.6,1255.46 1200.18,1261.25 1202.75,1266.94 1205.33,1272.53 
  1207.91,1278.01 1210.49,1283.38 1213.07,1288.64 1215.65,1293.8 1218.22,1298.85 1220.8,1303.79 1223.38,1308.62 1225.96,1313.34 1228.54,1317.95 1231.12,1322.45 
  1233.7,1326.84 1236.27,1331.12 1238.85,1335.29 1241.43,1339.36 1244.01,1343.31 1246.59,1347.16 1249.17,1350.9 1251.74,1354.54 1254.32,1358.07 1256.9,1361.49 
  1259.48,1364.82 1262.06,1368.04 1264.64,1371.16 1267.22,1374.18 1269.79,1377.11 1272.37,1379.94 1274.95,1382.67 1277.53,1385.31 1280.11,1387.86 1282.69,1390.31 
  1285.27,1392.68 1287.84,1394.95 1290.42,1397.14 1293,1399.25 1295.58,1401.27 1298.16,1403.21 1300.74,1405.07 1303.31,1406.85 1305.89,1408.55 1308.47,1410.17 
  1311.05,1411.72 1313.63,1413.19 1316.21,1414.59 1318.79,1415.92 1321.36,1417.18 1323.94,1418.37 1326.52,1419.49 1329.1,1420.54 1331.68,1421.53 1334.26,1422.45 
  1336.83,1423.31 1339.41,1424.1 1341.99,1424.83 1344.57,1425.5 1347.15,1426.1 1349.73,1426.65 1352.31,1427.13 1354.88,1427.55 1357.46,1427.91 1360.04,1428.22 
  1362.62,1428.46 1365.2,1428.64 1367.78,1428.76 1370.35,1428.82 1372.93,1428.82 1375.51,1428.76 1378.09,1428.64 1380.67,1428.45 1383.25,1428.21 1385.83,1427.9 
  1388.4,1427.52 1390.98,1427.08 1393.56,1426.58 1396.14,1426 1398.72,1425.36 1401.3,1424.65 1403.88,1423.87 1406.45,1423.01 1409.03,1422.08 1411.61,1421.07 
  1414.19,1419.99 1416.77,1418.83 1419.35,1417.58 1421.92,1416.25 1424.5,1414.84 1427.08,1413.33 1429.66,1411.74 1432.24,1410.05 1434.82,1408.27 1437.4,1406.39 
  1439.97,1404.4 1442.55,1402.32 1445.13,1400.12 1447.71,1397.82 1450.29,1395.41 1452.87,1392.87 1455.44,1390.22 1458.02,1387.45 1460.6,1384.56 1463.18,1381.53 
  1465.76,1378.38 1468.34,1375.08 1470.92,1371.65 1473.49,1368.08 1476.07,1364.37 1478.65,1360.5 1481.23,1356.48 1483.81,1352.31 1486.39,1347.98 1488.97,1343.48 
  1491.54,1338.82 1494.12,1333.99 1496.7,1328.99 1499.28,1323.81 1501.86,1318.45 1504.44,1312.91 1507.01,1307.19 1509.59,1301.28 1512.17,1295.17 1514.75,1288.87 
  1517.33,1282.38 1519.91,1275.68 1522.49,1268.78 1525.06,1261.68 1527.64,1254.37 1530.22,1246.85 1532.8,1239.13 1535.38,1231.19 1537.96,1223.03 1540.53,1214.66 
  1543.11,1206.08 1545.69,1197.28 1548.27,1188.25 1550.85,1179.02 1553.43,1169.56 1556.01,1159.88 1558.58,1149.99 1561.16,1139.88 1563.74,1129.55 1566.32,1119.01 
  1568.9,1108.25 1571.48,1097.28 1574.05,1086.1 1576.63,1074.72 1579.21,1063.13 1581.79,1051.33 1584.37,1039.34 1586.95,1027.15 1589.53,1014.78 1592.1,1002.21 
  1594.68,989.468 1597.26,976.548 1599.84,963.456 1602.42,950.201 1605,936.786 1607.58,923.22 1610.15,909.509 1612.73,895.66 1615.31,881.682 1617.89,867.582 
  1620.47,853.368 1623.05,839.05 1625.62,824.636 1628.2,810.136 1630.78,795.56 1633.36,780.917 1635.94,766.218 1638.52,751.474 1641.1,736.695 1643.67,721.893 
  1646.25,707.08 1648.83,692.266 1651.41,677.464 1653.99,662.687 1656.57,647.946 1659.14,633.254 1661.72,618.624 1664.3,604.069 1666.88,589.602 1669.46,575.236 
  1672.04,560.984 1674.62,546.86 1677.19,532.877 1679.77,519.049 1682.35,505.389 1684.93,491.91 1687.51,478.626 1690.09,465.551 1692.66,452.698 1695.24,440.079 
  1697.82,427.709 1700.4,415.6 1702.98,403.764 1705.56,392.216 1708.14,380.966 1710.71,370.028 1713.29,359.413 1715.87,349.134 1718.45,339.2 1721.03,329.625 
  1723.61,320.417 1726.19,311.589 1728.76,303.149 1731.34,295.108 1733.92,287.475 1736.5,280.258 1739.08,273.466 1741.66,267.107 1744.23,261.188 1746.81,255.717 
  1749.39,250.699 1751.97,246.141 1754.55,242.049 1757.13,238.426 1759.71,235.277 1762.28,232.606 1764.86,230.417 1767.44,228.711 1770.02,227.492 1772.6,226.759 
  1775.18,226.515 1777.75,226.759 1780.33,227.492 1782.91,228.711 1785.49,230.417 1788.07,232.606 1790.65,235.277 1793.23,238.426 1795.8,242.049 1798.38,246.142 
  1800.96,250.699 1803.54,255.717 1806.12,261.188 1808.7,267.107 1811.28,273.466 1813.85,280.258 1816.43,287.475 1819.01,295.108 1821.59,303.149 1824.17,311.589 
  1826.75,320.417 1829.32,329.625 1831.9,339.2 1834.48,349.134 1837.06,359.413 1839.64,370.028 1842.22,380.966 1844.8,392.216 1847.37,403.765 1849.95,415.6 
  1852.53,427.709 1855.11,440.079 1857.69,452.698 1860.27,465.551 1862.84,478.627 1865.42,491.911 1868,505.389 1870.58,519.05 1873.16,532.878 1875.74,546.861 
  1878.32,560.985 1880.89,575.237 1883.47,589.603 1886.05,604.07 1888.63,618.626 1891.21,633.256 1893.79,647.947 1896.36,662.689 1898.94,677.466 1901.52,692.268 
  1904.1,707.082 1906.68,721.896 1909.26,736.698 1911.84,751.477 1914.41,766.221 1916.99,780.921 1919.57,795.564 1922.15,810.141 1924.73,824.641 1927.31,839.055 
  1929.89,853.374 1932.46,867.588 1935.04,881.689 1937.62,895.668 1940.2,909.518 1942.78,923.23 1945.36,936.797 1947.93,950.212 1950.51,963.469 1953.09,976.562 
  1955.67,989.484 1958.25,1002.23 1960.83,1014.79 1963.41,1027.17 1965.98,1039.36 1968.56,1051.36 1971.14,1063.15 1973.72,1074.75 1976.3,1086.14 1978.88,1097.32 
  1981.45,1108.29 1984.03,1119.05 1986.61,1129.6 1989.19,1139.93 1991.77,1150.04 1994.35,1159.94 1996.93,1169.62 1999.5,1179.09 2002.08,1188.33 2004.66,1197.36 
  2007.24,1206.17 2009.82,1214.76 2012.4,1223.14 2014.97,1231.3 2017.55,1239.25 2020.13,1246.99 2022.71,1254.52 2025.29,1261.84 2027.87,1268.96 2030.45,1275.87 
  2033.02,1282.58 2035.6,1289.09 2038.18,1295.41 2040.76,1301.54 2043.34,1307.47 2045.92,1313.22 2048.5,1318.78 2051.07,1324.17 2053.65,1329.37 2056.23,1334.41 
  2058.81,1339.27 2061.39,1343.96 2063.97,1348.5 2066.54,1352.87 2069.12,1357.09 2071.7,1361.15 2074.28,1365.07 2076.86,1368.84 2079.44,1372.46 2082.02,1375.96 
  2084.59,1379.31 2087.17,1382.54 2089.75,1385.64 2092.33,1388.61 2094.91,1391.47 2097.49,1394.21 2100.06,1396.84 2102.64,1399.36 2105.22,1401.77 2107.8,1404.08 
  2110.38,1406.29 2112.96,1408.4 2115.54,1410.43 2118.11,1412.36 2120.69,1414.21 2123.27,1415.97 2125.85,1417.65 2128.43,1419.26 2131.01,1420.79 2133.59,1422.25 
  2136.16,1423.64 2138.74,1424.96 2141.32,1426.22 2143.9,1427.42 2146.48,1428.57 2149.06,1429.65 2151.63,1430.68 2154.21,1431.66 2156.79,1432.59 2159.37,1433.47 
  2161.95,1434.31 2164.53,1435.1 2167.11,1435.85 2169.68,1436.56 2172.26,1437.23 2174.84,1437.87 2177.42,1438.47 2180,1439.05 2182.58,1439.58 2185.15,1440.09 
  2187.73,1440.57 2190.31,1441.03 2192.89,1441.46 2195.47,1441.86 2198.05,1442.24 2200.63,1442.6 2203.2,1442.94 2205.78,1443.26 2208.36,1443.55 2210.94,1443.84 
  2213.52,1444.1 2216.1,1444.35 2218.67,1444.58 2221.25,1444.8 2223.83,1445.01 2226.41,1445.2 2228.99,1445.38 2231.57,1445.55 2234.15,1445.71 2236.72,1445.86 
  2239.3,1446 2241.88,1446.13 2244.46,1446.25 2247.04,1446.37 2249.62,1446.47 2252.2,1446.57 2254.77,1446.67 2257.35,1446.75 2259.93,1446.83 2262.51,1446.91 
  2265.09,1446.98 2267.67,1447.04 2270.24,1447.11 2272.82,1447.16 2275.4,1447.22 2277.98,1447.26 2280.56,1447.31 2283.14,1447.35 2285.72,1447.39 2288.29,1447.43 
  2290.87,1447.46 
  "/>
<path clip-path="url(#clip350)" d="
M1925.95 350.345 L2279.87 350.345 L2279.87 168.905 L1925.95 168.905  Z
  " fill="#ffffff" fill-rule="evenodd" fill-opacity="1"/>
<polyline clip-path="url(#clip350)" style="stroke:#000000; stroke-width:4; stroke-opacity:1; fill:none" points="
  1925.95,350.345 2279.87,350.345 2279.87,168.905 1925.95,168.905 1925.95,350.345 
  "/>
<polyline clip-path="url(#clip350)" style="stroke:#009af9; stroke-width:4; stroke-opacity:1; fill:none" points="
  1950.24,229.385 2096.01,229.385 
  "/>
<path clip-path="url(#clip350)" d="M 0 0 M2124.99 215.947 L2124.99 242.822 L2130.63 242.822 Q2137.79 242.822 2141.1 239.581 Q2144.43 236.341 2144.43 229.35 Q2144.43 222.406 2141.1 219.188 Q2137.79 215.947 2130.63 215.947 L2124.99 215.947 M2120.31 212.105 L2129.92 212.105 Q2139.96 212.105 2144.66 216.294 Q2149.36 220.461 2149.36 229.35 Q2149.36 238.285 2144.64 242.475 Q2139.92 246.665 2129.92 246.665 L2120.31 246.665 L2120.31 212.105 Z" fill="#000000" fill-rule="evenodd" fill-opacity="1" /><path clip-path="url(#clip350)" d="M 0 0 M2165.61 233.632 Q2160.45 233.632 2158.46 234.813 Q2156.47 235.993 2156.47 238.841 Q2156.47 241.109 2157.95 242.452 Q2159.45 243.771 2162.02 243.771 Q2165.56 243.771 2167.69 241.271 Q2169.85 238.748 2169.85 234.581 L2169.85 233.632 L2165.61 233.632 M2174.11 231.873 L2174.11 246.665 L2169.85 246.665 L2169.85 242.729 Q2168.39 245.091 2166.21 246.225 Q2164.04 247.336 2160.89 247.336 Q2156.91 247.336 2154.55 245.114 Q2152.21 242.868 2152.21 239.118 Q2152.21 234.743 2155.12 232.521 Q2158.06 230.299 2163.87 230.299 L2169.85 230.299 L2169.85 229.882 Q2169.85 226.943 2167.9 225.345 Q2165.98 223.725 2162.48 223.725 Q2160.26 223.725 2158.16 224.257 Q2156.05 224.79 2154.11 225.855 L2154.11 221.919 Q2156.44 221.017 2158.64 220.577 Q2160.84 220.114 2162.92 220.114 Q2168.55 220.114 2171.33 223.031 Q2174.11 225.947 2174.11 231.873 Z" fill="#000000" fill-rule="evenodd" fill-opacity="1" /><path clip-path="url(#clip350)" d="M 0 0 M2182.79 213.378 L2182.79 220.739 L2191.56 220.739 L2191.56 224.049 L2182.79 224.049 L2182.79 238.123 Q2182.79 241.294 2183.64 242.197 Q2184.52 243.1 2187.18 243.1 L2191.56 243.1 L2191.56 246.665 L2187.18 246.665 Q2182.25 246.665 2180.38 244.836 Q2178.5 242.984 2178.5 238.123 L2178.5 224.049 L2175.38 224.049 L2175.38 220.739 L2178.5 220.739 L2178.5 213.378 L2182.79 213.378 Z" fill="#000000" fill-rule="evenodd" fill-opacity="1" /><path clip-path="url(#clip350)" d="M 0 0 M2207.81 233.632 Q2202.65 233.632 2200.66 234.813 Q2198.67 235.993 2198.67 238.841 Q2198.67 241.109 2200.15 242.452 Q2201.65 243.771 2204.22 243.771 Q2207.76 243.771 2209.89 241.271 Q2212.04 238.748 2212.04 234.581 L2212.04 233.632 L2207.81 233.632 M2216.3 231.873 L2216.3 246.665 L2212.04 246.665 L2212.04 242.729 Q2210.59 245.091 2208.41 246.225 Q2206.23 247.336 2203.09 247.336 Q2199.11 247.336 2196.74 245.114 Q2194.41 242.868 2194.41 239.118 Q2194.41 234.743 2197.32 232.521 Q2200.26 230.299 2206.07 230.299 L2212.04 230.299 L2212.04 229.882 Q2212.04 226.943 2210.1 225.345 Q2208.18 223.725 2204.68 223.725 Q2202.46 223.725 2200.36 224.257 Q2198.25 224.79 2196.3 225.855 L2196.3 221.919 Q2198.64 221.017 2200.84 220.577 Q2203.04 220.114 2205.12 220.114 Q2210.75 220.114 2213.53 223.031 Q2216.3 225.947 2216.3 231.873 Z" fill="#000000" fill-rule="evenodd" fill-opacity="1" /><polyline clip-path="url(#clip350)" style="stroke:#e26f46; stroke-width:4; stroke-opacity:1; fill:none" points="
  1950.24,289.865 2096.01,289.865 
  "/>
<path clip-path="url(#clip350)" d="M 0 0 M2120.31 272.585 L2149.55 272.585 L2149.55 276.52 L2137.28 276.52 L2137.28 307.145 L2132.58 307.145 L2132.58 276.52 L2120.31 276.52 L2120.31 272.585 Z" fill="#000000" fill-rule="evenodd" fill-opacity="1" /><path clip-path="url(#clip350)" d="M 0 0 M2162.07 285.2 Q2161.35 284.784 2160.49 284.598 Q2159.66 284.39 2158.64 284.39 Q2155.03 284.39 2153.09 286.751 Q2151.17 289.089 2151.17 293.487 L2151.17 307.145 L2146.88 307.145 L2146.88 281.219 L2151.17 281.219 L2151.17 285.247 Q2152.51 282.886 2154.66 281.751 Q2156.81 280.594 2159.89 280.594 Q2160.33 280.594 2160.86 280.663 Q2161.4 280.71 2162.05 280.825 L2162.07 285.2 Z" fill="#000000" fill-rule="evenodd" fill-opacity="1" /><path clip-path="url(#clip350)" d="M 0 0 M2166.1 296.913 L2166.1 281.219 L2170.36 281.219 L2170.36 296.751 Q2170.36 300.432 2171.79 302.284 Q2173.23 304.112 2176.1 304.112 Q2179.55 304.112 2181.54 301.913 Q2183.55 299.714 2183.55 295.918 L2183.55 281.219 L2187.81 281.219 L2187.81 307.145 L2183.55 307.145 L2183.55 303.163 Q2182 305.524 2179.94 306.682 Q2177.9 307.816 2175.19 307.816 Q2170.73 307.816 2168.41 305.038 Q2166.1 302.26 2166.1 296.913 M2176.81 280.594 L2176.81 280.594 Z" fill="#000000" fill-rule="evenodd" fill-opacity="1" /><path clip-path="url(#clip350)" d="M 0 0 M2196.49 273.858 L2196.49 281.219 L2205.26 281.219 L2205.26 284.529 L2196.49 284.529 L2196.49 298.603 Q2196.49 301.774 2197.35 302.677 Q2198.23 303.58 2200.89 303.58 L2205.26 303.58 L2205.26 307.145 L2200.89 307.145 Q2195.96 307.145 2194.08 305.316 Q2192.21 303.464 2192.21 298.603 L2192.21 284.529 L2189.08 284.529 L2189.08 281.219 L2192.21 281.219 L2192.21 273.858 L2196.49 273.858 Z" fill="#000000" fill-rule="evenodd" fill-opacity="1" /><path clip-path="url(#clip350)" d="M 0 0 M2231.28 291.497 L2231.28 307.145 L2227.02 307.145 L2227.02 291.635 Q2227.02 287.955 2225.59 286.126 Q2224.15 284.298 2221.28 284.298 Q2217.83 284.298 2215.84 286.497 Q2213.85 288.696 2213.85 292.492 L2213.85 307.145 L2209.57 307.145 L2209.57 271.126 L2213.85 271.126 L2213.85 285.247 Q2215.38 282.909 2217.44 281.751 Q2219.52 280.594 2222.23 280.594 Q2226.7 280.594 2228.99 283.372 Q2231.28 286.126 2231.28 291.497 Z" fill="#000000" fill-rule="evenodd" fill-opacity="1" /></svg>
