<?xml version="1.0" encoding="utf-8"?>
<svg xmlns="http://www.w3.org/2000/svg" xmlns:xlink="http://www.w3.org/1999/xlink" width="600" height="400" viewBox="0 0 2400 1600">
<defs>
  <clipPath id="clip800">
    <rect x="0" y="0" width="2400" height="1600"/>
  </clipPath>
</defs>
<path clip-path="url(#clip800)" d="
M0 1600 L2400 1600 L2400 0 L0 0  Z
  " fill="#ffffff" fill-rule="evenodd" fill-opacity="1"/>
<defs>
  <clipPath id="clip801">
    <rect x="480" y="0" width="1681" height="1600"/>
  </clipPath>
</defs>
<path clip-path="url(#clip800)" d="
M172.015 1486.45 L2352.76 1486.45 L2352.76 123.472 L172.015 123.472  Z
  " fill="#ffffff" fill-rule="evenodd" fill-opacity="1"/>
<defs>
  <clipPath id="clip802">
    <rect x="172" y="123" width="2182" height="1364"/>
  </clipPath>
</defs>
<polyline clip-path="url(#clip802)" style="stroke:#000000; stroke-linecap:butt; stroke-linejoin:round; stroke-width:2; stroke-opacity:0.1; fill:none" points="
  233.734,1486.45 233.734,123.472 
  "/>
<polyline clip-path="url(#clip802)" style="stroke:#000000; stroke-linecap:butt; stroke-linejoin:round; stroke-width:2; stroke-opacity:0.1; fill:none" points="
  748.06,1486.45 748.06,123.472 
  "/>
<polyline clip-path="url(#clip802)" style="stroke:#000000; stroke-linecap:butt; stroke-linejoin:round; stroke-width:2; stroke-opacity:0.1; fill:none" points="
  1262.39,1486.45 1262.39,123.472 
  "/>
<polyline clip-path="url(#clip802)" style="stroke:#000000; stroke-linecap:butt; stroke-linejoin:round; stroke-width:2; stroke-opacity:0.1; fill:none" points="
  1776.71,1486.45 1776.71,123.472 
  "/>
<polyline clip-path="url(#clip802)" style="stroke:#000000; stroke-linecap:butt; stroke-linejoin:round; stroke-width:2; stroke-opacity:0.1; fill:none" points="
  2291.04,1486.45 2291.04,123.472 
  "/>
<polyline clip-path="url(#clip800)" style="stroke:#000000; stroke-linecap:butt; stroke-linejoin:round; stroke-width:4; stroke-opacity:1; fill:none" points="
  172.015,1486.45 2352.76,1486.45 
  "/>
<polyline clip-path="url(#clip800)" style="stroke:#000000; stroke-linecap:butt; stroke-linejoin:round; stroke-width:4; stroke-opacity:1; fill:none" points="
  233.734,1486.45 233.734,1470.09 
  "/>
<polyline clip-path="url(#clip800)" style="stroke:#000000; stroke-linecap:butt; stroke-linejoin:round; stroke-width:4; stroke-opacity:1; fill:none" points="
  748.06,1486.45 748.06,1470.09 
  "/>
<polyline clip-path="url(#clip800)" style="stroke:#000000; stroke-linecap:butt; stroke-linejoin:round; stroke-width:4; stroke-opacity:1; fill:none" points="
  1262.39,1486.45 1262.39,1470.09 
  "/>
<polyline clip-path="url(#clip800)" style="stroke:#000000; stroke-linecap:butt; stroke-linejoin:round; stroke-width:4; stroke-opacity:1; fill:none" points="
  1776.71,1486.45 1776.71,1470.09 
  "/>
<polyline clip-path="url(#clip800)" style="stroke:#000000; stroke-linecap:butt; stroke-linejoin:round; stroke-width:4; stroke-opacity:1; fill:none" points="
  2291.04,1486.45 2291.04,1470.09 
  "/>
<path clip-path="url(#clip800)" d="M202.635 1530.29 L232.31 1530.29 L232.31 1534.23 L202.635 1534.23 L202.635 1530.29 Z" fill="#000000" fill-rule="evenodd" fill-opacity="1" /><path clip-path="url(#clip800)" d="M255.25 1516.63 L243.445 1535.08 L255.25 1535.08 L255.25 1516.63 M254.023 1512.56 L259.903 1512.56 L259.903 1535.08 L264.833 1535.08 L264.833 1538.97 L259.903 1538.97 L259.903 1547.12 L255.25 1547.12 L255.25 1538.97 L239.648 1538.97 L239.648 1534.46 L254.023 1512.56 Z" fill="#000000" fill-rule="evenodd" fill-opacity="1" /><path clip-path="url(#clip800)" d="M718.002 1530.29 L747.678 1530.29 L747.678 1534.23 L718.002 1534.23 L718.002 1530.29 Z" fill="#000000" fill-rule="evenodd" fill-opacity="1" /><path clip-path="url(#clip800)" d="M761.798 1543.18 L778.117 1543.18 L778.117 1547.12 L756.173 1547.12 L756.173 1543.18 Q758.835 1540.43 763.418 1535.8 Q768.025 1531.15 769.205 1529.81 Q771.451 1527.28 772.33 1525.55 Q773.233 1523.79 773.233 1522.1 Q773.233 1519.34 771.289 1517.61 Q769.367 1515.87 766.266 1515.87 Q764.066 1515.87 761.613 1516.63 Q759.182 1517.4 756.404 1518.95 L756.404 1514.23 Q759.229 1513.09 761.682 1512.51 Q764.136 1511.93 766.173 1511.93 Q771.543 1511.93 774.738 1514.62 Q777.932 1517.31 777.932 1521.8 Q777.932 1523.93 777.122 1525.85 Q776.335 1527.74 774.228 1530.34 Q773.65 1531.01 770.548 1534.23 Q767.446 1537.42 761.798 1543.18 Z" fill="#000000" fill-rule="evenodd" fill-opacity="1" /><path clip-path="url(#clip800)" d="M1262.39 1515.64 Q1258.77 1515.64 1256.95 1519.2 Q1255.14 1522.75 1255.14 1529.87 Q1255.14 1536.98 1256.95 1540.55 Q1258.77 1544.09 1262.39 1544.09 Q1266.02 1544.09 1267.83 1540.55 Q1269.65 1536.98 1269.65 1529.87 Q1269.65 1522.75 1267.83 1519.2 Q1266.02 1515.64 1262.39 1515.64 M1262.39 1511.93 Q1268.2 1511.93 1271.25 1516.54 Q1274.33 1521.12 1274.33 1529.87 Q1274.33 1538.6 1271.25 1543.21 Q1268.2 1547.79 1262.39 1547.79 Q1256.58 1547.79 1253.5 1543.21 Q1250.44 1538.6 1250.44 1529.87 Q1250.44 1521.12 1253.5 1516.54 Q1256.58 1511.93 1262.39 1511.93 Z" fill="#000000" fill-rule="evenodd" fill-opacity="1" /><path clip-path="url(#clip800)" d="M1771.36 1543.18 L1787.68 1543.18 L1787.68 1547.12 L1765.74 1547.12 L1765.74 1543.18 Q1768.4 1540.43 1772.98 1535.8 Q1777.59 1531.15 1778.77 1529.81 Q1781.02 1527.28 1781.9 1525.55 Q1782.8 1523.79 1782.8 1522.1 Q1782.8 1519.34 1780.85 1517.61 Q1778.93 1515.87 1775.83 1515.87 Q1773.63 1515.87 1771.18 1516.63 Q1768.75 1517.4 1765.97 1518.95 L1765.97 1514.23 Q1768.79 1513.09 1771.25 1512.51 Q1773.7 1511.93 1775.74 1511.93 Q1781.11 1511.93 1784.3 1514.62 Q1787.5 1517.31 1787.5 1521.8 Q1787.5 1523.93 1786.69 1525.85 Q1785.9 1527.74 1783.79 1530.34 Q1783.22 1531.01 1780.11 1534.23 Q1777.01 1537.42 1771.36 1543.18 Z" fill="#000000" fill-rule="evenodd" fill-opacity="1" /><path clip-path="url(#clip800)" d="M2294.05 1516.63 L2282.24 1535.08 L2294.05 1535.08 L2294.05 1516.63 M2292.82 1512.56 L2298.7 1512.56 L2298.7 1535.08 L2303.63 1535.08 L2303.63 1538.97 L2298.7 1538.97 L2298.7 1547.12 L2294.05 1547.12 L2294.05 1538.97 L2278.44 1538.97 L2278.44 1534.46 L2292.82 1512.56 Z" fill="#000000" fill-rule="evenodd" fill-opacity="1" /><polyline clip-path="url(#clip802)" style="stroke:#000000; stroke-linecap:butt; stroke-linejoin:round; stroke-width:2; stroke-opacity:0.1; fill:none" points="
  172.015,1447.87 2352.76,1447.87 
  "/>
<polyline clip-path="url(#clip802)" style="stroke:#000000; stroke-linecap:butt; stroke-linejoin:round; stroke-width:2; stroke-opacity:0.1; fill:none" points="
  172.015,1125.56 2352.76,1125.56 
  "/>
<polyline clip-path="url(#clip802)" style="stroke:#000000; stroke-linecap:butt; stroke-linejoin:round; stroke-width:2; stroke-opacity:0.1; fill:none" points="
  172.015,803.255 2352.76,803.255 
  "/>
<polyline clip-path="url(#clip802)" style="stroke:#000000; stroke-linecap:butt; stroke-linejoin:round; stroke-width:2; stroke-opacity:0.1; fill:none" points="
  172.015,480.947 2352.76,480.947 
  "/>
<polyline clip-path="url(#clip802)" style="stroke:#000000; stroke-linecap:butt; stroke-linejoin:round; stroke-width:2; stroke-opacity:0.1; fill:none" points="
  172.015,158.638 2352.76,158.638 
  "/>
<polyline clip-path="url(#clip800)" style="stroke:#000000; stroke-linecap:butt; stroke-linejoin:round; stroke-width:4; stroke-opacity:1; fill:none" points="
  172.015,1486.45 172.015,123.472 
  "/>
<polyline clip-path="url(#clip800)" style="stroke:#000000; stroke-linecap:butt; stroke-linejoin:round; stroke-width:4; stroke-opacity:1; fill:none" points="
  172.015,1447.87 198.184,1447.87 
  "/>
<polyline clip-path="url(#clip800)" style="stroke:#000000; stroke-linecap:butt; stroke-linejoin:round; stroke-width:4; stroke-opacity:1; fill:none" points="
  172.015,1125.56 198.184,1125.56 
  "/>
<polyline clip-path="url(#clip800)" style="stroke:#000000; stroke-linecap:butt; stroke-linejoin:round; stroke-width:4; stroke-opacity:1; fill:none" points="
  172.015,803.255 198.184,803.255 
  "/>
<polyline clip-path="url(#clip800)" style="stroke:#000000; stroke-linecap:butt; stroke-linejoin:round; stroke-width:4; stroke-opacity:1; fill:none" points="
  172.015,480.947 198.184,480.947 
  "/>
<polyline clip-path="url(#clip800)" style="stroke:#000000; stroke-linecap:butt; stroke-linejoin:round; stroke-width:4; stroke-opacity:1; fill:none" points="
  172.015,158.638 198.184,158.638 
  "/>
<path clip-path="url(#clip800)" d="M124.07 1433.67 Q120.459 1433.67 118.631 1437.24 Q116.825 1440.78 116.825 1447.91 Q116.825 1455.01 118.631 1458.58 Q120.459 1462.12 124.07 1462.12 Q127.705 1462.12 129.51 1458.58 Q131.339 1455.01 131.339 1447.91 Q131.339 1440.78 129.51 1437.24 Q127.705 1433.67 124.07 1433.67 M124.07 1429.97 Q129.881 1429.97 132.936 1434.57 Q136.015 1439.16 136.015 1447.91 Q136.015 1456.63 132.936 1461.24 Q129.881 1465.82 124.07 1465.82 Q118.26 1465.82 115.182 1461.24 Q112.126 1456.63 112.126 1447.91 Q112.126 1439.16 115.182 1434.57 Q118.26 1429.97 124.07 1429.97 Z" fill="#000000" fill-rule="evenodd" fill-opacity="1" /><path clip-path="url(#clip800)" d="M57.7745 1138.91 L74.0939 1138.91 L74.0939 1142.84 L52.1495 1142.84 L52.1495 1138.91 Q54.8115 1136.15 59.3949 1131.52 Q64.0013 1126.87 65.1819 1125.53 Q67.4272 1123.01 68.3068 1121.27 Q69.2096 1119.51 69.2096 1117.82 Q69.2096 1115.07 67.2652 1113.33 Q65.3439 1111.59 62.2421 1111.59 Q60.043 1111.59 57.5893 1112.36 Q55.1588 1113.12 52.381 1114.67 L52.381 1109.95 Q55.2051 1108.82 57.6588 1108.24 Q60.1124 1107.66 62.1495 1107.66 Q67.5198 1107.66 70.7142 1110.34 Q73.9087 1113.03 73.9087 1117.52 Q73.9087 1119.65 73.0985 1121.57 Q72.3115 1123.47 70.205 1126.06 Q69.6263 1126.73 66.5245 1129.95 Q63.4226 1133.15 57.7745 1138.91 Z" fill="#000000" fill-rule="evenodd" fill-opacity="1" /><path clip-path="url(#clip800)" d="M93.9086 1111.36 Q90.2975 1111.36 88.4688 1114.93 Q86.6632 1118.47 86.6632 1125.6 Q86.6632 1132.71 88.4688 1136.27 Q90.2975 1139.81 93.9086 1139.81 Q97.5428 1139.81 99.3483 1136.27 Q101.177 1132.71 101.177 1125.6 Q101.177 1118.47 99.3483 1114.93 Q97.5428 1111.36 93.9086 1111.36 M93.9086 1107.66 Q99.7187 1107.66 102.774 1112.27 Q105.853 1116.85 105.853 1125.6 Q105.853 1134.33 102.774 1138.93 Q99.7187 1143.52 93.9086 1143.52 Q88.0984 1143.52 85.0197 1138.93 Q81.9642 1134.33 81.9642 1125.6 Q81.9642 1116.85 85.0197 1112.27 Q88.0984 1107.66 93.9086 1107.66 Z" fill="#000000" fill-rule="evenodd" fill-opacity="1" /><path clip-path="url(#clip800)" d="M124.07 1111.36 Q120.459 1111.36 118.631 1114.93 Q116.825 1118.47 116.825 1125.6 Q116.825 1132.71 118.631 1136.27 Q120.459 1139.81 124.07 1139.81 Q127.705 1139.81 129.51 1136.27 Q131.339 1132.71 131.339 1125.6 Q131.339 1118.47 129.51 1114.93 Q127.705 1111.36 124.07 1111.36 M124.07 1107.66 Q129.881 1107.66 132.936 1112.27 Q136.015 1116.85 136.015 1125.6 Q136.015 1134.33 132.936 1138.93 Q129.881 1143.52 124.07 1143.52 Q118.26 1143.52 115.182 1138.93 Q112.126 1134.33 112.126 1125.6 Q112.126 1116.85 115.182 1112.27 Q118.26 1107.66 124.07 1107.66 Z" fill="#000000" fill-rule="evenodd" fill-opacity="1" /><path clip-path="url(#clip800)" d="M66.5939 790.049 L54.7884 808.498 L66.5939 808.498 L66.5939 790.049 M65.367 785.975 L71.2466 785.975 L71.2466 808.498 L76.1772 808.498 L76.1772 812.387 L71.2466 812.387 L71.2466 820.535 L66.5939 820.535 L66.5939 812.387 L50.9921 812.387 L50.9921 807.873 L65.367 785.975 Z" fill="#000000" fill-rule="evenodd" fill-opacity="1" /><path clip-path="url(#clip800)" d="M93.9086 789.054 Q90.2975 789.054 88.4688 792.619 Q86.6632 796.161 86.6632 803.29 Q86.6632 810.397 88.4688 813.961 Q90.2975 817.503 93.9086 817.503 Q97.5428 817.503 99.3483 813.961 Q101.177 810.397 101.177 803.29 Q101.177 796.161 99.3483 792.619 Q97.5428 789.054 93.9086 789.054 M93.9086 785.35 Q99.7187 785.35 102.774 789.957 Q105.853 794.54 105.853 803.29 Q105.853 812.017 102.774 816.623 Q99.7187 821.207 93.9086 821.207 Q88.0984 821.207 85.0197 816.623 Q81.9642 812.017 81.9642 803.29 Q81.9642 794.54 85.0197 789.957 Q88.0984 785.35 93.9086 785.35 Z" fill="#000000" fill-rule="evenodd" fill-opacity="1" /><path clip-path="url(#clip800)" d="M124.07 789.054 Q120.459 789.054 118.631 792.619 Q116.825 796.161 116.825 803.29 Q116.825 810.397 118.631 813.961 Q120.459 817.503 124.07 817.503 Q127.705 817.503 129.51 813.961 Q131.339 810.397 131.339 803.29 Q131.339 796.161 129.51 792.619 Q127.705 789.054 124.07 789.054 M124.07 785.35 Q129.881 785.35 132.936 789.957 Q136.015 794.54 136.015 803.29 Q136.015 812.017 132.936 816.623 Q129.881 821.207 124.07 821.207 Q118.26 821.207 115.182 816.623 Q112.126 812.017 112.126 803.29 Q112.126 794.54 115.182 789.957 Q118.26 785.35 124.07 785.35 Z" fill="#000000" fill-rule="evenodd" fill-opacity="1" /><path clip-path="url(#clip800)" d="M64.3254 479.083 Q61.1773 479.083 59.3254 481.236 Q57.4967 483.389 57.4967 487.139 Q57.4967 490.866 59.3254 493.041 Q61.1773 495.194 64.3254 495.194 Q67.4735 495.194 69.3022 493.041 Q71.1541 490.866 71.1541 487.139 Q71.1541 483.389 69.3022 481.236 Q67.4735 479.083 64.3254 479.083 M73.6077 464.431 L73.6077 468.69 Q71.8485 467.856 70.0429 467.417 Q68.2606 466.977 66.5013 466.977 Q61.8717 466.977 59.418 470.102 Q56.9875 473.227 56.6402 479.546 Q58.006 477.532 60.0662 476.467 Q62.1263 475.38 64.6032 475.38 Q69.8115 475.38 72.8207 478.551 Q75.8531 481.699 75.8531 487.139 Q75.8531 492.463 72.705 495.68 Q69.5568 498.898 64.3254 498.898 Q58.33 498.898 55.1588 494.315 Q51.9875 489.708 51.9875 480.981 Q51.9875 472.787 55.8764 467.926 Q59.7652 463.042 66.3161 463.042 Q68.0754 463.042 69.8578 463.389 Q71.6633 463.736 73.6077 464.431 Z" fill="#000000" fill-rule="evenodd" fill-opacity="1" /><path clip-path="url(#clip800)" d="M93.9086 466.745 Q90.2975 466.745 88.4688 470.31 Q86.6632 473.852 86.6632 480.981 Q86.6632 488.088 88.4688 491.653 Q90.2975 495.194 93.9086 495.194 Q97.5428 495.194 99.3483 491.653 Q101.177 488.088 101.177 480.981 Q101.177 473.852 99.3483 470.31 Q97.5428 466.745 93.9086 466.745 M93.9086 463.042 Q99.7187 463.042 102.774 467.648 Q105.853 472.231 105.853 480.981 Q105.853 489.708 102.774 494.315 Q99.7187 498.898 93.9086 498.898 Q88.0984 498.898 85.0197 494.315 Q81.9642 489.708 81.9642 480.981 Q81.9642 472.231 85.0197 467.648 Q88.0984 463.042 93.9086 463.042 Z" fill="#000000" fill-rule="evenodd" fill-opacity="1" /><path clip-path="url(#clip800)" d="M124.07 466.745 Q120.459 466.745 118.631 470.31 Q116.825 473.852 116.825 480.981 Q116.825 488.088 118.631 491.653 Q120.459 495.194 124.07 495.194 Q127.705 495.194 129.51 491.653 Q131.339 488.088 131.339 480.981 Q131.339 473.852 129.51 470.31 Q127.705 466.745 124.07 466.745 M124.07 463.042 Q129.881 463.042 132.936 467.648 Q136.015 472.231 136.015 480.981 Q136.015 489.708 132.936 494.315 Q129.881 498.898 124.07 498.898 Q118.26 498.898 115.182 494.315 Q112.126 489.708 112.126 480.981 Q112.126 472.231 115.182 467.648 Q118.26 463.042 124.07 463.042 Z" fill="#000000" fill-rule="evenodd" fill-opacity="1" /><path clip-path="url(#clip800)" d="M63.7467 159.506 Q60.4134 159.506 58.4921 161.288 Q56.5939 163.071 56.5939 166.196 Q56.5939 169.321 58.4921 171.103 Q60.4134 172.885 63.7467 172.885 Q67.08 172.885 69.0013 171.103 Q70.9226 169.297 70.9226 166.196 Q70.9226 163.071 69.0013 161.288 Q67.1032 159.506 63.7467 159.506 M59.0708 157.515 Q56.0615 156.774 54.3717 154.714 Q52.7051 152.654 52.7051 149.691 Q52.7051 145.548 55.6449 143.14 Q58.6078 140.733 63.7467 140.733 Q68.9087 140.733 71.8485 143.14 Q74.7883 145.548 74.7883 149.691 Q74.7883 152.654 73.0985 154.714 Q71.4318 156.774 68.4457 157.515 Q71.8253 158.302 73.7003 160.594 Q75.5985 162.885 75.5985 166.196 Q75.5985 171.219 72.5198 173.904 Q69.4642 176.589 63.7467 176.589 Q58.0291 176.589 54.9504 173.904 Q51.8949 171.219 51.8949 166.196 Q51.8949 162.885 53.793 160.594 Q55.6912 158.302 59.0708 157.515 M57.3578 150.131 Q57.3578 152.816 59.0245 154.321 Q60.7143 155.825 63.7467 155.825 Q66.7559 155.825 68.4457 154.321 Q70.1587 152.816 70.1587 150.131 Q70.1587 147.446 68.4457 145.941 Q66.7559 144.436 63.7467 144.436 Q60.7143 144.436 59.0245 145.941 Q57.3578 147.446 57.3578 150.131 Z" fill="#000000" fill-rule="evenodd" fill-opacity="1" /><path clip-path="url(#clip800)" d="M93.9086 144.436 Q90.2975 144.436 88.4688 148.001 Q86.6632 151.543 86.6632 158.673 Q86.6632 165.779 88.4688 169.344 Q90.2975 172.885 93.9086 172.885 Q97.5428 172.885 99.3483 169.344 Q101.177 165.779 101.177 158.673 Q101.177 151.543 99.3483 148.001 Q97.5428 144.436 93.9086 144.436 M93.9086 140.733 Q99.7187 140.733 102.774 145.339 Q105.853 149.923 105.853 158.673 Q105.853 167.399 102.774 172.006 Q99.7187 176.589 93.9086 176.589 Q88.0984 176.589 85.0197 172.006 Q81.9642 167.399 81.9642 158.673 Q81.9642 149.923 85.0197 145.339 Q88.0984 140.733 93.9086 140.733 Z" fill="#000000" fill-rule="evenodd" fill-opacity="1" /><path clip-path="url(#clip800)" d="M124.07 144.436 Q120.459 144.436 118.631 148.001 Q116.825 151.543 116.825 158.673 Q116.825 165.779 118.631 169.344 Q120.459 172.885 124.07 172.885 Q127.705 172.885 129.51 169.344 Q131.339 165.779 131.339 158.673 Q131.339 151.543 129.51 148.001 Q127.705 144.436 124.07 144.436 M124.07 140.733 Q129.881 140.733 132.936 145.339 Q136.015 149.923 136.015 158.673 Q136.015 167.399 132.936 172.006 Q129.881 176.589 124.07 176.589 Q118.26 176.589 115.182 172.006 Q112.126 167.399 112.126 158.673 Q112.126 149.923 115.182 145.339 Q118.26 140.733 124.07 140.733 Z" fill="#000000" fill-rule="evenodd" fill-opacity="1" /><path clip-path="url(#clip800)" d="M631.092 18.8205 L631.092 65.8515 L640.977 65.8515 Q653.494 65.8515 659.287 60.1802 Q665.12 54.509 665.12 42.2752 Q665.12 30.1225 659.287 24.4918 Q653.494 18.8205 640.977 18.8205 L631.092 18.8205 M622.91 12.096 L639.721 12.096 Q657.302 12.096 665.525 19.4281 Q673.748 26.7198 673.748 42.2752 Q673.748 57.9117 665.485 65.2439 Q657.221 72.576 639.721 72.576 L622.91 72.576 L622.91 12.096 Z" fill="#000000" fill-rule="evenodd" fill-opacity="1" /><path clip-path="url(#clip800)" d="M707.087 49.7694 Q698.054 49.7694 694.57 51.8354 Q691.086 53.9013 691.086 58.8839 Q691.086 62.8538 693.679 65.2034 Q696.312 67.5124 700.809 67.5124 Q707.006 67.5124 710.733 63.1374 Q714.501 58.7219 714.501 51.4303 L714.501 49.7694 L707.087 49.7694 M721.954 46.6907 L721.954 72.576 L714.501 72.576 L714.501 65.6895 Q711.948 69.8214 708.141 71.8063 Q704.333 73.7508 698.824 73.7508 Q691.856 73.7508 687.724 69.8619 Q683.633 65.9325 683.633 59.3701 Q683.633 51.7138 688.737 47.825 Q693.881 43.9361 704.049 43.9361 L714.501 43.9361 L714.501 43.2069 Q714.501 38.0623 711.098 35.2672 Q707.736 32.4315 701.619 32.4315 Q697.73 32.4315 694.044 33.3632 Q690.357 34.295 686.954 36.1584 L686.954 29.2718 Q691.046 27.692 694.894 26.9223 Q698.743 26.1121 702.388 26.1121 Q712.232 26.1121 717.093 31.2163 Q721.954 36.3204 721.954 46.6907 Z" fill="#000000" fill-rule="evenodd" fill-opacity="1" /><path clip-path="url(#clip800)" d="M744.68 14.324 L744.68 27.2059 L760.033 27.2059 L760.033 32.9987 L744.68 32.9987 L744.68 57.6282 Q744.68 63.1779 746.179 64.7578 Q747.718 66.3376 752.377 66.3376 L760.033 66.3376 L760.033 72.576 L752.377 72.576 Q743.748 72.576 740.467 69.3758 Q737.186 66.1351 737.186 57.6282 L737.186 32.9987 L731.717 32.9987 L731.717 27.2059 L737.186 27.2059 L737.186 14.324 L744.68 14.324 Z" fill="#000000" fill-rule="evenodd" fill-opacity="1" /><path clip-path="url(#clip800)" d="M790.455 49.7694 Q781.422 49.7694 777.938 51.8354 Q774.454 53.9013 774.454 58.8839 Q774.454 62.8538 777.047 65.2034 Q779.68 67.5124 784.176 67.5124 Q790.374 67.5124 794.101 63.1374 Q797.868 58.7219 797.868 51.4303 L797.868 49.7694 L790.455 49.7694 M805.322 46.6907 L805.322 72.576 L797.868 72.576 L797.868 65.6895 Q795.316 69.8214 791.508 71.8063 Q787.7 73.7508 782.191 73.7508 Q775.224 73.7508 771.092 69.8619 Q767 65.9325 767 59.3701 Q767 51.7138 772.104 47.825 Q777.249 43.9361 787.417 43.9361 L797.868 43.9361 L797.868 43.2069 Q797.868 38.0623 794.465 35.2672 Q791.103 32.4315 784.986 32.4315 Q781.097 32.4315 777.411 33.3632 Q773.725 34.295 770.322 36.1584 L770.322 29.2718 Q774.413 27.692 778.262 26.9223 Q782.11 26.1121 785.756 26.1121 Q795.6 26.1121 800.461 31.2163 Q805.322 36.3204 805.322 46.6907 Z" fill="#000000" fill-rule="evenodd" fill-opacity="1" /><path clip-path="url(#clip800)" d="M867.665 49.7694 Q858.632 49.7694 855.148 51.8354 Q851.664 53.9013 851.664 58.8839 Q851.664 62.8538 854.257 65.2034 Q856.89 67.5124 861.386 67.5124 Q867.584 67.5124 871.311 63.1374 Q875.078 58.7219 875.078 51.4303 L875.078 49.7694 L867.665 49.7694 M882.532 46.6907 L882.532 72.576 L875.078 72.576 L875.078 65.6895 Q872.526 69.8214 868.718 71.8063 Q864.911 73.7508 859.401 73.7508 Q852.434 73.7508 848.302 69.8619 Q844.211 65.9325 844.211 59.3701 Q844.211 51.7138 849.315 47.825 Q854.459 43.9361 864.627 43.9361 L875.078 43.9361 L875.078 43.2069 Q875.078 38.0623 871.676 35.2672 Q868.313 32.4315 862.197 32.4315 Q858.308 32.4315 854.621 33.3632 Q850.935 34.295 847.532 36.1584 L847.532 29.2718 Q851.624 27.692 855.472 26.9223 Q859.32 26.1121 862.966 26.1121 Q872.81 26.1121 877.671 31.2163 Q882.532 36.3204 882.532 46.6907 Z" fill="#000000" fill-rule="evenodd" fill-opacity="1" /><path clip-path="url(#clip800)" d="M935.599 45.1919 L935.599 72.576 L928.145 72.576 L928.145 45.4349 Q928.145 38.994 925.634 35.7938 Q923.122 32.5936 918.099 32.5936 Q912.063 32.5936 908.579 36.4419 Q905.096 40.2903 905.096 46.9338 L905.096 72.576 L897.601 72.576 L897.601 27.2059 L905.096 27.2059 L905.096 34.2544 Q907.769 30.163 911.375 28.1376 Q915.02 26.1121 919.76 26.1121 Q927.578 26.1121 931.589 30.9732 Q935.599 35.7938 935.599 45.1919 Z" fill="#000000" fill-rule="evenodd" fill-opacity="1" /><path clip-path="url(#clip800)" d="M980.321 34.0924 L980.321 9.54393 L987.775 9.54393 L987.775 72.576 L980.321 72.576 L980.321 65.7705 Q977.971 69.8214 974.366 71.8063 Q970.801 73.7508 965.778 73.7508 Q957.555 73.7508 952.37 67.1883 Q947.225 60.6258 947.225 49.9314 Q947.225 39.2371 952.37 32.6746 Q957.555 26.1121 965.778 26.1121 Q970.801 26.1121 974.366 28.0971 Q977.971 30.0415 980.321 34.0924 M954.922 49.9314 Q954.922 58.1548 958.284 62.8538 Q961.687 67.5124 967.601 67.5124 Q973.515 67.5124 976.918 62.8538 Q980.321 58.1548 980.321 49.9314 Q980.321 41.7081 976.918 37.0496 Q973.515 32.3505 967.601 32.3505 Q961.687 32.3505 958.284 37.0496 Q954.922 41.7081 954.922 49.9314 Z" fill="#000000" fill-rule="evenodd" fill-opacity="1" /><path clip-path="url(#clip800)" d="M1021.44 12.096 L1072.6 12.096 L1072.6 18.9825 L1051.13 18.9825 L1051.13 72.576 L1042.91 72.576 L1042.91 18.9825 L1021.44 18.9825 L1021.44 12.096 Z" fill="#000000" fill-rule="evenodd" fill-opacity="1" /><path clip-path="url(#clip800)" d="M1094.27 34.1734 Q1093.02 33.4443 1091.52 33.1202 Q1090.06 32.7556 1088.28 32.7556 Q1081.96 32.7556 1078.56 36.8875 Q1075.19 40.9789 1075.19 48.6757 L1075.19 72.576 L1067.7 72.576 L1067.7 27.2059 L1075.19 27.2059 L1075.19 34.2544 Q1077.54 30.1225 1081.31 28.1376 Q1085.08 26.1121 1090.46 26.1121 Q1091.23 26.1121 1092.17 26.2337 Q1093.1 26.3147 1094.23 26.5172 L1094.27 34.1734 Z" fill="#000000" fill-rule="evenodd" fill-opacity="1" /><path clip-path="url(#clip800)" d="M1101.32 54.671 L1101.32 27.2059 L1108.78 27.2059 L1108.78 54.3874 Q1108.78 60.8284 1111.29 64.0691 Q1113.8 67.2693 1118.82 67.2693 Q1124.86 67.2693 1128.34 63.421 Q1131.87 59.5726 1131.87 52.9291 L1131.87 27.2059 L1139.32 27.2059 L1139.32 72.576 L1131.87 72.576 L1131.87 65.6084 Q1129.15 69.7404 1125.55 71.7658 Q1121.98 73.7508 1117.24 73.7508 Q1109.42 73.7508 1105.37 68.8897 Q1101.32 64.0286 1101.32 54.671 M1120.08 26.1121 L1120.08 26.1121 Z" fill="#000000" fill-rule="evenodd" fill-opacity="1" /><path clip-path="url(#clip800)" d="M1193.48 48.0275 L1193.48 51.6733 L1159.21 51.6733 Q1159.69 59.3701 1163.83 63.421 Q1168 67.4314 1175.41 67.4314 Q1179.71 67.4314 1183.72 66.3781 Q1187.77 65.3249 1191.74 63.2184 L1191.74 70.267 Q1187.73 71.9684 1183.51 72.8596 Q1179.3 73.7508 1174.97 73.7508 Q1164.11 73.7508 1157.75 67.4314 Q1151.43 61.1119 1151.43 50.3365 Q1151.43 39.1965 1157.43 32.6746 Q1163.46 26.1121 1173.67 26.1121 Q1182.83 26.1121 1188.13 32.0264 Q1193.48 37.9003 1193.48 48.0275 M1186.03 45.84 Q1185.94 39.7232 1182.58 36.0774 Q1179.26 32.4315 1173.75 32.4315 Q1167.51 32.4315 1163.75 35.9558 Q1160.02 39.4801 1159.45 45.8805 L1186.03 45.84 Z" fill="#000000" fill-rule="evenodd" fill-opacity="1" /><path clip-path="url(#clip800)" d="M1268.66 14.0809 L1268.66 22.0612 Q1264.01 19.8332 1259.87 18.7395 Q1255.74 17.6457 1251.89 17.6457 Q1245.21 17.6457 1241.56 20.2383 Q1237.96 22.8309 1237.96 27.611 Q1237.96 31.6214 1240.35 33.6873 Q1242.78 35.7128 1249.5 36.9686 L1254.45 37.9813 Q1263.6 39.7232 1267.94 44.1387 Q1272.31 48.5136 1272.31 55.8863 Q1272.31 64.6767 1266.4 69.2137 Q1260.52 73.7508 1249.14 73.7508 Q1244.84 73.7508 1239.98 72.7785 Q1235.16 71.8063 1229.98 69.9024 L1229.98 61.4765 Q1234.96 64.2716 1239.74 65.6895 Q1244.52 67.1073 1249.14 67.1073 Q1256.15 67.1073 1259.95 64.3527 Q1263.76 61.598 1263.76 56.4939 Q1263.76 52.0379 1261.01 49.5264 Q1258.29 47.0148 1252.06 45.759 L1247.07 44.7868 Q1237.92 42.9639 1233.83 39.075 Q1229.74 35.1862 1229.74 28.2591 Q1229.74 20.2383 1235.37 15.6203 Q1241.04 11.0023 1250.96 11.0023 Q1255.22 11.0023 1259.63 11.7719 Q1264.05 12.5416 1268.66 14.0809 Z" fill="#000000" fill-rule="evenodd" fill-opacity="1" /><path clip-path="url(#clip800)" d="M1292.12 14.324 L1292.12 27.2059 L1307.47 27.2059 L1307.47 32.9987 L1292.12 32.9987 L1292.12 57.6282 Q1292.12 63.1779 1293.62 64.7578 Q1295.16 66.3376 1299.82 66.3376 L1307.47 66.3376 L1307.47 72.576 L1299.82 72.576 Q1291.19 72.576 1287.91 69.3758 Q1284.62 66.1351 1284.62 57.6282 L1284.62 32.9987 L1279.16 32.9987 L1279.16 27.2059 L1284.62 27.2059 L1284.62 14.324 L1292.12 14.324 Z" fill="#000000" fill-rule="evenodd" fill-opacity="1" /><path clip-path="url(#clip800)" d="M1337.89 49.7694 Q1328.86 49.7694 1325.38 51.8354 Q1321.89 53.9013 1321.89 58.8839 Q1321.89 62.8538 1324.49 65.2034 Q1327.12 67.5124 1331.62 67.5124 Q1337.81 67.5124 1341.54 63.1374 Q1345.31 58.7219 1345.31 51.4303 L1345.31 49.7694 L1337.89 49.7694 M1352.76 46.6907 L1352.76 72.576 L1345.31 72.576 L1345.31 65.6895 Q1342.76 69.8214 1338.95 71.8063 Q1335.14 73.7508 1329.63 73.7508 Q1322.66 73.7508 1318.53 69.8619 Q1314.44 65.9325 1314.44 59.3701 Q1314.44 51.7138 1319.54 47.825 Q1324.69 43.9361 1334.86 43.9361 L1345.31 43.9361 L1345.31 43.2069 Q1345.31 38.0623 1341.9 35.2672 Q1338.54 32.4315 1332.43 32.4315 Q1328.54 32.4315 1324.85 33.3632 Q1321.16 34.295 1317.76 36.1584 L1317.76 29.2718 Q1321.85 27.692 1325.7 26.9223 Q1329.55 26.1121 1333.2 26.1121 Q1343.04 26.1121 1347.9 31.2163 Q1352.76 36.3204 1352.76 46.6907 Z" fill="#000000" fill-rule="evenodd" fill-opacity="1" /><path clip-path="url(#clip800)" d="M1375.49 14.324 L1375.49 27.2059 L1390.84 27.2059 L1390.84 32.9987 L1375.49 32.9987 L1375.49 57.6282 Q1375.49 63.1779 1376.99 64.7578 Q1378.52 66.3376 1383.18 66.3376 L1390.84 66.3376 L1390.84 72.576 L1383.18 72.576 Q1374.55 72.576 1371.27 69.3758 Q1367.99 66.1351 1367.99 57.6282 L1367.99 32.9987 L1362.52 32.9987 L1362.52 27.2059 L1367.99 27.2059 L1367.99 14.324 L1375.49 14.324 Z" fill="#000000" fill-rule="evenodd" fill-opacity="1" /><path clip-path="url(#clip800)" d="M1400.64 27.2059 L1408.1 27.2059 L1408.1 72.576 L1400.64 72.576 L1400.64 27.2059 M1400.64 9.54393 L1408.1 9.54393 L1408.1 18.9825 L1400.64 18.9825 L1400.64 9.54393 Z" fill="#000000" fill-rule="evenodd" fill-opacity="1" /><path clip-path="url(#clip800)" d="M1452.62 28.5427 L1452.62 35.5912 Q1449.46 33.9709 1446.05 33.1607 Q1442.65 32.3505 1439 32.3505 Q1433.46 32.3505 1430.66 34.0519 Q1427.91 35.7533 1427.91 39.156 Q1427.91 41.7486 1429.89 43.2475 Q1431.88 44.7058 1437.87 46.0426 L1440.42 46.6097 Q1448.36 48.3111 1451.68 51.4303 Q1455.05 54.509 1455.05 60.0587 Q1455.05 66.3781 1450.02 70.0644 Q1445.04 73.7508 1436.29 73.7508 Q1432.64 73.7508 1428.67 73.0216 Q1424.75 72.3329 1420.37 70.9151 L1420.37 63.2184 Q1424.5 65.3654 1428.51 66.4591 Q1432.52 67.5124 1436.45 67.5124 Q1441.72 67.5124 1444.55 65.73 Q1447.39 63.9071 1447.39 60.6258 Q1447.39 57.5877 1445.32 55.9673 Q1443.3 54.3469 1436.37 52.8481 L1433.78 52.2405 Q1426.85 50.7821 1423.77 47.7845 Q1420.69 44.7463 1420.69 39.4801 Q1420.69 33.0797 1425.23 29.5959 Q1429.77 26.1121 1438.11 26.1121 Q1442.25 26.1121 1445.89 26.7198 Q1449.54 27.3274 1452.62 28.5427 Z" fill="#000000" fill-rule="evenodd" fill-opacity="1" /><path clip-path="url(#clip800)" d="M1474.29 14.324 L1474.29 27.2059 L1489.64 27.2059 L1489.64 32.9987 L1474.29 32.9987 L1474.29 57.6282 Q1474.29 63.1779 1475.79 64.7578 Q1477.33 66.3376 1481.98 66.3376 L1489.64 66.3376 L1489.64 72.576 L1481.98 72.576 Q1473.36 72.576 1470.08 69.3758 Q1466.79 66.1351 1466.79 57.6282 L1466.79 32.9987 L1461.33 32.9987 L1461.33 27.2059 L1466.79 27.2059 L1466.79 14.324 L1474.29 14.324 Z" fill="#000000" fill-rule="evenodd" fill-opacity="1" /><path clip-path="url(#clip800)" d="M1499.44 27.2059 L1506.9 27.2059 L1506.9 72.576 L1499.44 72.576 L1499.44 27.2059 M1499.44 9.54393 L1506.9 9.54393 L1506.9 18.9825 L1499.44 18.9825 L1499.44 9.54393 Z" fill="#000000" fill-rule="evenodd" fill-opacity="1" /><path clip-path="url(#clip800)" d="M1555.14 28.9478 L1555.14 35.9153 Q1551.98 34.1734 1548.78 33.3227 Q1545.62 32.4315 1542.38 32.4315 Q1535.13 32.4315 1531.12 37.0496 Q1527.11 41.6271 1527.11 49.9314 Q1527.11 58.2358 1531.12 62.8538 Q1535.13 67.4314 1542.38 67.4314 Q1545.62 67.4314 1548.78 66.5807 Q1551.98 65.6895 1555.14 63.9476 L1555.14 70.8341 Q1552.03 72.2924 1548.66 73.0216 Q1545.34 73.7508 1541.57 73.7508 Q1531.32 73.7508 1525.29 67.3098 Q1519.25 60.8689 1519.25 49.9314 Q1519.25 38.832 1525.33 32.472 Q1531.45 26.1121 1542.06 26.1121 Q1545.5 26.1121 1548.78 26.8413 Q1552.07 27.5299 1555.14 28.9478 Z" fill="#000000" fill-rule="evenodd" fill-opacity="1" /><path clip-path="url(#clip800)" d="M1588.73 49.7694 Q1579.69 49.7694 1576.21 51.8354 Q1572.73 53.9013 1572.73 58.8839 Q1572.73 62.8538 1575.32 65.2034 Q1577.95 67.5124 1582.45 67.5124 Q1588.65 67.5124 1592.37 63.1374 Q1596.14 58.7219 1596.14 51.4303 L1596.14 49.7694 L1588.73 49.7694 M1603.59 46.6907 L1603.59 72.576 L1596.14 72.576 L1596.14 65.6895 Q1593.59 69.8214 1589.78 71.8063 Q1585.97 73.7508 1580.46 73.7508 Q1573.49 73.7508 1569.36 69.8619 Q1565.27 65.9325 1565.27 59.3701 Q1565.27 51.7138 1570.38 47.825 Q1575.52 43.9361 1585.69 43.9361 L1596.14 43.9361 L1596.14 43.2069 Q1596.14 38.0623 1592.74 35.2672 Q1589.37 32.4315 1583.26 32.4315 Q1579.37 32.4315 1575.68 33.3632 Q1572 34.295 1568.59 36.1584 L1568.59 29.2718 Q1572.68 27.692 1576.53 26.9223 Q1580.38 26.1121 1584.03 26.1121 Q1593.87 26.1121 1598.73 31.2163 Q1603.59 36.3204 1603.59 46.6907 Z" fill="#000000" fill-rule="evenodd" fill-opacity="1" /><path clip-path="url(#clip800)" d="M1618.95 9.54393 L1626.4 9.54393 L1626.4 72.576 L1618.95 72.576 L1618.95 9.54393 Z" fill="#000000" fill-rule="evenodd" fill-opacity="1" /><path clip-path="url(#clip800)" d="M1668.69 12.096 L1680.88 12.096 L1696.32 53.2532 L1711.83 12.096 L1724.03 12.096 L1724.03 72.576 L1716.05 72.576 L1716.05 19.4686 L1700.45 60.9499 L1692.23 60.9499 L1676.63 19.4686 L1676.63 72.576 L1668.69 72.576 L1668.69 12.096 Z" fill="#000000" fill-rule="evenodd" fill-opacity="1" /><path clip-path="url(#clip800)" d="M1757.53 32.4315 Q1751.53 32.4315 1748.05 37.1306 Q1744.56 41.7891 1744.56 49.9314 Q1744.56 58.0738 1748.01 62.7728 Q1751.49 67.4314 1757.53 67.4314 Q1763.48 67.4314 1766.97 62.7323 Q1770.45 58.0333 1770.45 49.9314 Q1770.45 41.8701 1766.97 37.1711 Q1763.48 32.4315 1757.53 32.4315 M1757.53 26.1121 Q1767.25 26.1121 1772.8 32.4315 Q1778.35 38.7509 1778.35 49.9314 Q1778.35 61.0714 1772.8 67.4314 Q1767.25 73.7508 1757.53 73.7508 Q1747.76 73.7508 1742.21 67.4314 Q1736.71 61.0714 1736.71 49.9314 Q1736.71 38.7509 1742.21 32.4315 Q1747.76 26.1121 1757.53 26.1121 Z" fill="#000000" fill-rule="evenodd" fill-opacity="1" /><path clip-path="url(#clip800)" d="M1820.56 34.0924 L1820.56 9.54393 L1828.01 9.54393 L1828.01 72.576 L1820.56 72.576 L1820.56 65.7705 Q1818.21 69.8214 1814.6 71.8063 Q1811.04 73.7508 1806.02 73.7508 Q1797.79 73.7508 1792.61 67.1883 Q1787.46 60.6258 1787.46 49.9314 Q1787.46 39.2371 1792.61 32.6746 Q1797.79 26.1121 1806.02 26.1121 Q1811.04 26.1121 1814.6 28.0971 Q1818.21 30.0415 1820.56 34.0924 M1795.16 49.9314 Q1795.16 58.1548 1798.52 62.8538 Q1801.93 67.5124 1807.84 67.5124 Q1813.75 67.5124 1817.16 62.8538 Q1820.56 58.1548 1820.56 49.9314 Q1820.56 41.7081 1817.16 37.0496 Q1813.75 32.3505 1807.84 32.3505 Q1801.93 32.3505 1798.52 37.0496 Q1795.16 41.7081 1795.16 49.9314 Z" fill="#000000" fill-rule="evenodd" fill-opacity="1" /><path clip-path="url(#clip800)" d="M1882.17 48.0275 L1882.17 51.6733 L1847.9 51.6733 Q1848.39 59.3701 1852.52 63.421 Q1856.69 67.4314 1864.11 67.4314 Q1868.4 67.4314 1872.41 66.3781 Q1876.46 65.3249 1880.43 63.2184 L1880.43 70.267 Q1876.42 71.9684 1872.21 72.8596 Q1868 73.7508 1863.66 73.7508 Q1852.8 73.7508 1846.44 67.4314 Q1840.13 61.1119 1840.13 50.3365 Q1840.13 39.1965 1846.12 32.6746 Q1852.16 26.1121 1862.36 26.1121 Q1871.52 26.1121 1876.83 32.0264 Q1882.17 37.9003 1882.17 48.0275 M1874.72 45.84 Q1874.64 39.7232 1871.28 36.0774 Q1867.96 32.4315 1862.45 32.4315 Q1856.21 32.4315 1852.44 35.9558 Q1848.71 39.4801 1848.15 45.8805 L1874.72 45.84 Z" fill="#000000" fill-rule="evenodd" fill-opacity="1" /><path clip-path="url(#clip800)" d="M1894.41 9.54393 L1901.86 9.54393 L1901.86 72.576 L1894.41 72.576 L1894.41 9.54393 Z" fill="#000000" fill-rule="evenodd" fill-opacity="1" /><polyline clip-path="url(#clip802)" style="stroke:#009af9; stroke-linecap:butt; stroke-linejoin:round; stroke-width:4; stroke-opacity:1; fill:none" points="
  748.06,1447.87 748.06,1302.83 773.776,1302.83 773.776,1335.07 799.492,1335.07 799.492,1238.37 825.208,1238.37 825.208,1109.45 850.925,1109.45 850.925,996.641 
  876.641,996.641 902.357,996.641 902.357,1028.87 928.074,1028.87 928.074,787.14 953.79,787.14 953.79,851.602 979.506,851.602 979.506,867.717 
  1005.22,867.717 1005.22,803.255 1030.94,803.255 1030.94,932.179 1056.66,932.179 1056.66,1044.99 1082.37,1044.99 1082.37,964.41 1108.09,964.41 1108.09,1093.33 
  1133.8,1093.33 1133.8,1157.8 1159.52,1157.8 1159.52,1206.14 1185.24,1206.14 1185.24,1141.68 1210.95,1141.68 1210.95,1302.83 1236.67,1302.83 1236.67,1238.37 
  1262.39,1238.37 1262.39,1351.18 1288.1,1351.18 1288.1,1399.53 1313.82,1399.53 1339.53,1399.53 1339.53,1431.76 1365.25,1431.76 
  1390.97,1431.76 1390.97,1383.41 1416.68,1383.41 1416.68,1415.64 1442.4,1415.64 1442.4,1367.3 1468.12,1367.3 1468.12,1286.72 1493.83,1286.72 1493.83,1351.18 
  1519.55,1351.18 1519.55,1302.83 1545.26,1302.83 1545.26,1141.68 1570.98,1141.68 1570.98,1061.1 1596.7,1061.1 1596.7,899.948 1622.41,899.948 1622.41,577.639 
  1648.13,577.639 1648.13,464.831 1673.85,464.831 1673.85,513.178 1699.56,513.178 1699.56,190.869 1725.28,190.869 1725.28,335.908 1750.99,335.908 1750.99,255.33 
  1776.71,255.33 1776.71,190.869 1802.43,190.869 1802.43,352.023 1828.14,352.023 1828.14,223.1 1853.86,223.1 1853.86,480.947 1879.58,480.947 1879.58,529.293 
  1905.29,529.293 1905.29,851.602 1931.01,851.602 1931.01,980.525 1956.73,980.525 1956.73,996.641 1982.44,996.641 1982.44,1141.68 2008.16,1141.68 2008.16,1206.14 
  2033.87,1206.14 2033.87,1238.37 2059.59,1238.37 2059.59,1351.18 2085.31,1351.18 2085.31,1399.53 2111.02,1399.53 2111.02,1415.64 2136.74,1415.64 2136.74,1447.87 
  2162.46,1447.87 2162.46,1431.76 2188.17,1431.76 2188.17,1447.87 2213.89,1447.87 2239.6,1447.87 2265.32,1447.87 2265.32,1431.76 
  2291.04,1431.76 2291.04,1447.87 
  "/>
<polyline clip-path="url(#clip802)" style="stroke:#e26f46; stroke-linecap:butt; stroke-linejoin:round; stroke-width:4; stroke-opacity:1; fill:none" points="
  233.734,1447.87 236.306,1447.87 238.877,1447.87 241.449,1447.87 244.02,1447.87 246.592,1447.87 249.164,1447.87 251.735,1447.87 254.307,1447.87 256.879,1447.87 
  259.45,1447.87 262.022,1447.87 264.593,1447.87 267.165,1447.87 269.737,1447.87 272.308,1447.87 274.88,1447.87 277.452,1447.87 280.023,1447.87 282.595,1447.87 
  285.166,1447.87 287.738,1447.87 290.31,1447.87 292.881,1447.87 295.453,1447.87 298.025,1447.87 300.596,1447.87 303.168,1447.87 305.74,1447.87 308.311,1447.87 
  310.883,1447.87 313.454,1447.87 316.026,1447.87 318.598,1447.87 321.169,1447.87 323.741,1447.87 326.313,1447.87 328.884,1447.87 331.456,1447.87 334.027,1447.87 
  336.599,1447.87 339.171,1447.87 341.742,1447.87 344.314,1447.87 346.886,1447.87 349.457,1447.87 352.029,1447.87 354.6,1447.87 357.172,1447.87 359.744,1447.87 
  362.315,1447.87 364.887,1447.87 367.459,1447.87 370.03,1447.87 372.602,1447.87 375.173,1447.87 377.745,1447.87 380.317,1447.87 382.888,1447.87 385.46,1447.87 
  388.032,1447.87 390.603,1447.87 393.175,1447.87 395.747,1447.86 398.318,1447.86 400.89,1447.86 403.461,1447.86 406.033,1447.86 408.605,1447.86 411.176,1447.86 
  413.748,1447.86 416.32,1447.86 418.891,1447.85 421.463,1447.85 424.034,1447.85 426.606,1447.85 429.178,1447.84 431.749,1447.84 434.321,1447.84 436.893,1447.84 
  439.464,1447.83 442.036,1447.83 444.607,1447.83 447.179,1447.82 449.751,1447.82 452.322,1447.81 454.894,1447.81 457.466,1447.8 460.037,1447.79 462.609,1447.79 
  465.18,1447.78 467.752,1447.77 470.324,1447.76 472.895,1447.75 475.467,1447.74 478.039,1447.73 480.61,1447.72 483.182,1447.7 485.754,1447.69 488.325,1447.67 
  490.897,1447.66 493.468,1447.64 496.04,1447.62 498.612,1447.6 501.183,1447.58 503.755,1447.55 506.327,1447.53 508.898,1447.5 511.47,1447.47 514.041,1447.44 
  516.613,1447.4 519.185,1447.37 521.756,1447.33 524.328,1447.28 526.9,1447.24 529.471,1447.19 532.043,1447.14 534.614,1447.08 537.186,1447.02 539.758,1446.96 
  542.329,1446.89 544.901,1446.81 547.473,1446.74 550.044,1446.65 552.616,1446.56 555.187,1446.47 557.759,1446.37 560.331,1446.26 562.902,1446.14 565.474,1446.02 
  568.046,1445.89 570.617,1445.75 573.189,1445.6 575.761,1445.44 578.332,1445.27 580.904,1445.1 583.475,1444.91 586.047,1444.71 588.619,1444.5 591.19,1444.27 
  593.762,1444.03 596.334,1443.78 598.905,1443.51 601.477,1443.23 604.048,1442.93 606.62,1442.61 609.192,1442.27 611.763,1441.92 614.335,1441.54 616.907,1441.15 
  619.478,1440.73 622.05,1440.29 624.621,1439.83 627.193,1439.34 629.765,1438.82 632.336,1438.28 634.908,1437.71 637.48,1437.11 640.051,1436.48 642.623,1435.81 
  645.194,1435.12 647.766,1434.38 650.338,1433.62 652.909,1432.81 655.481,1431.97 658.053,1431.08 660.624,1430.15 663.196,1429.18 665.768,1428.16 668.339,1427.1 
  670.911,1425.98 673.482,1424.82 676.054,1423.6 678.626,1422.33 681.197,1421.01 683.769,1419.63 686.341,1418.18 688.912,1416.68 691.484,1415.11 694.055,1413.48 
  696.627,1411.78 699.199,1410.02 701.77,1408.18 704.342,1406.27 706.914,1404.28 709.485,1402.22 712.057,1400.08 714.628,1397.86 717.2,1395.56 719.772,1393.18 
  722.343,1390.7 724.915,1388.14 727.487,1385.5 730.058,1382.75 732.63,1379.92 735.201,1376.99 737.773,1373.97 740.345,1370.84 742.916,1367.62 745.488,1364.29 
  748.06,1360.86 750.631,1357.33 753.203,1353.69 755.775,1349.95 758.346,1346.09 760.918,1342.13 763.489,1338.06 766.061,1333.87 768.633,1329.57 771.204,1325.16 
  773.776,1320.64 776.348,1316 778.919,1311.25 781.491,1306.39 784.062,1301.4 786.634,1296.31 789.206,1291.1 791.777,1285.77 794.349,1280.34 796.921,1274.78 
  799.492,1269.12 802.064,1263.34 804.635,1257.46 807.207,1251.46 809.779,1245.36 812.35,1239.15 814.922,1232.84 817.494,1226.42 820.065,1219.9 822.637,1213.29 
  825.208,1206.58 827.78,1199.78 830.352,1192.89 832.923,1185.91 835.495,1178.85 838.067,1171.71 840.638,1164.49 843.21,1157.2 845.782,1149.84 848.353,1142.42 
  850.925,1134.93 853.496,1127.4 856.068,1119.81 858.64,1112.18 861.211,1104.5 863.783,1096.79 866.355,1089.06 868.926,1081.3 871.498,1073.52 874.069,1065.72 
  876.641,1057.93 879.213,1050.13 881.784,1042.34 884.356,1034.56 886.928,1026.8 889.499,1019.06 892.071,1011.36 894.642,1003.7 897.214,996.087 899.786,988.524 
  902.357,981.022 904.929,973.588 907.501,966.227 910.072,958.948 912.644,951.757 915.215,944.662 917.787,937.67 920.359,930.787 922.93,924.021 925.502,917.379 
  928.074,910.867 930.645,904.493 933.217,898.263 935.789,892.184 938.36,886.262 940.932,880.504 943.503,874.917 946.075,869.506 948.647,864.277 951.218,859.236 
  953.79,854.39 956.362,849.742 958.933,845.3 961.505,841.067 964.076,837.049 966.648,833.25 969.22,829.675 971.791,826.327 974.363,823.212 976.935,820.332 
  979.506,817.691 982.078,815.291 984.649,813.137 987.221,811.23 989.793,809.572 992.364,808.167 994.936,807.014 997.508,806.116 1000.08,805.474 1002.65,805.089 
  1005.22,804.96 1007.79,805.089 1010.37,805.474 1012.94,806.116 1015.51,807.014 1018.08,808.167 1020.65,809.572 1023.22,811.23 1025.8,813.137 1028.37,815.291 
  1030.94,817.69 1033.51,820.332 1036.08,823.212 1038.65,826.327 1041.23,829.675 1043.8,833.25 1046.37,837.049 1048.94,841.067 1051.51,845.299 1054.08,849.742 
  1056.66,854.389 1059.23,859.236 1061.8,864.277 1064.37,869.505 1066.94,874.916 1069.51,880.504 1072.08,886.262 1074.66,892.183 1077.23,898.262 1079.8,904.492 
  1082.37,910.866 1084.94,917.378 1087.51,924.02 1090.09,930.786 1092.66,937.669 1095.23,944.661 1097.8,951.756 1100.37,958.947 1102.94,966.226 1105.52,973.586 
  1108.09,981.021 1110.66,988.523 1113.23,996.085 1115.8,1003.7 1118.37,1011.36 1120.95,1019.06 1123.52,1026.8 1126.09,1034.55 1128.66,1042.33 1131.23,1050.12 
  1133.8,1057.92 1136.38,1065.72 1138.95,1073.51 1141.52,1081.29 1144.09,1089.05 1146.66,1096.79 1149.23,1104.49 1151.81,1112.17 1154.38,1119.8 1156.95,1127.38 
  1159.52,1134.92 1162.09,1142.4 1164.66,1149.82 1167.24,1157.18 1169.81,1164.47 1172.38,1171.68 1174.95,1178.82 1177.52,1185.88 1180.09,1192.86 1182.66,1199.75 
  1185.24,1206.55 1187.81,1213.25 1190.38,1219.86 1192.95,1226.38 1195.52,1232.79 1198.09,1239.1 1200.67,1245.3 1203.24,1251.4 1205.81,1257.39 1208.38,1263.27 
  1210.95,1269.04 1213.52,1274.7 1216.1,1280.24 1218.67,1285.67 1221.24,1290.98 1223.81,1296.18 1226.38,1301.27 1228.95,1306.24 1231.53,1311.09 1234.1,1315.83 
  1236.67,1320.45 1239.24,1324.96 1241.81,1329.35 1244.38,1333.63 1246.96,1337.79 1249.53,1341.84 1252.1,1345.78 1254.67,1349.61 1257.24,1353.33 1259.81,1356.93 
  1262.39,1360.43 1264.96,1363.83 1267.53,1367.11 1270.1,1370.29 1272.67,1373.37 1275.24,1376.35 1277.82,1379.23 1280.39,1382.01 1282.96,1384.69 1285.53,1387.27 
  1288.1,1389.76 1290.67,1392.16 1293.24,1394.47 1295.82,1396.68 1298.39,1398.81 1300.96,1400.85 1303.53,1402.81 1306.1,1404.68 1308.67,1406.47 1311.25,1408.18 
  1313.82,1409.81 1316.39,1411.36 1318.96,1412.84 1321.53,1414.24 1324.1,1415.56 1326.68,1416.81 1329.25,1417.99 1331.82,1419.1 1334.39,1420.14 1336.96,1421.11 
  1339.53,1422.01 1342.11,1422.85 1344.68,1423.61 1347.25,1424.32 1349.82,1424.95 1352.39,1425.53 1354.96,1426.04 1357.54,1426.48 1360.11,1426.86 1362.68,1427.18 
  1365.25,1427.43 1367.82,1427.62 1370.39,1427.75 1372.97,1427.82 1375.54,1427.82 1378.11,1427.75 1380.68,1427.62 1383.25,1427.43 1385.82,1427.17 1388.4,1426.84 
  1390.97,1426.45 1393.54,1425.98 1396.11,1425.45 1398.68,1424.85 1401.25,1424.17 1403.82,1423.42 1406.4,1422.6 1408.97,1421.7 1411.54,1420.72 1414.11,1419.66 
  1416.68,1418.52 1419.25,1417.29 1421.83,1415.98 1424.4,1414.58 1426.97,1413.09 1429.54,1411.51 1432.11,1409.83 1434.68,1408.05 1437.26,1406.18 1439.83,1404.2 
  1442.4,1402.11 1444.97,1399.91 1447.54,1397.6 1450.11,1395.18 1452.69,1392.64 1455.26,1389.97 1457.83,1387.18 1460.4,1384.26 1462.97,1381.22 1465.54,1378.03 
  1468.12,1374.71 1470.69,1371.24 1473.26,1367.63 1475.83,1363.87 1478.4,1359.96 1480.97,1355.89 1483.55,1351.66 1486.12,1347.26 1488.69,1342.7 1491.26,1337.97 
  1493.83,1333.06 1496.4,1327.98 1498.98,1322.71 1501.55,1317.26 1504.12,1311.62 1506.69,1305.79 1509.26,1299.76 1511.83,1293.54 1514.4,1287.11 1516.98,1280.48 
  1519.55,1273.64 1522.12,1266.59 1524.69,1259.33 1527.26,1251.85 1529.83,1244.16 1532.41,1236.24 1534.98,1228.11 1537.55,1219.75 1540.12,1211.16 1542.69,1202.35 
  1545.26,1193.31 1547.84,1184.05 1550.41,1174.55 1552.98,1164.82 1555.55,1154.87 1558.12,1144.68 1560.69,1134.27 1563.27,1123.62 1565.84,1112.75 1568.41,1101.65 
  1570.98,1090.33 1573.55,1078.78 1576.12,1067.01 1578.7,1055.02 1581.27,1042.82 1583.84,1030.4 1586.41,1017.78 1588.98,1004.95 1591.55,991.916 1594.13,978.689 
  1596.7,965.272 1599.27,951.669 1601.84,937.887 1604.41,923.931 1606.98,909.809 1609.56,895.527 1612.13,881.092 1614.7,866.512 1617.27,851.796 1619.84,836.952 
  1622.41,821.988 1624.99,806.914 1627.56,791.739 1630.13,776.474 1632.7,761.128 1635.27,745.712 1637.84,730.238 1640.41,714.715 1642.99,699.156 1645.56,683.573 
  1648.13,667.978 1650.7,652.382 1653.27,636.799 1655.84,621.242 1658.42,605.723 1660.99,590.255 1663.56,574.853 1666.13,559.53 1668.7,544.299 1671.27,529.175 
  1673.85,514.171 1676.42,499.301 1678.99,484.58 1681.56,470.022 1684.13,455.641 1686.7,441.451 1689.28,427.466 1691.85,413.7 1694.42,400.168 1696.99,386.884 
  1699.56,373.86 1702.13,361.112 1704.71,348.652 1707.28,336.494 1709.85,324.651 1712.42,313.135 1714.99,301.96 1717.56,291.138 1720.14,280.68 1722.71,270.599 
  1725.28,260.906 1727.85,251.611 1730.42,242.726 1732.99,234.261 1735.57,226.224 1738.14,218.626 1740.71,211.476 1743.28,204.782 1745.85,198.55 1748.42,192.79 
  1750.99,187.508 1753.57,182.709 1756.14,178.401 1758.71,174.586 1761.28,171.272 1763.85,168.46 1766.42,166.155 1769,164.359 1771.57,163.075 1774.14,162.304 
  1776.71,162.047 1779.28,162.304 1781.85,163.075 1784.43,164.359 1787,166.155 1789.57,168.46 1792.14,171.272 1794.71,174.586 1797.28,178.401 1799.86,182.709 
  1802.43,187.508 1805,192.79 1807.57,198.551 1810.14,204.782 1812.71,211.476 1815.29,218.627 1817.86,226.224 1820.43,234.261 1823,242.726 1825.57,251.611 
  1828.14,260.906 1830.72,270.599 1833.29,280.68 1835.86,291.138 1838.43,301.96 1841,313.135 1843.57,324.651 1846.15,336.494 1848.72,348.652 1851.29,361.112 
  1853.86,373.861 1856.43,386.884 1859,400.169 1861.57,413.701 1864.15,427.466 1866.72,441.451 1869.29,455.641 1871.86,470.023 1874.43,484.581 1877,499.302 
  1879.58,514.172 1882.15,529.176 1884.72,544.3 1887.29,559.531 1889.86,574.855 1892.43,590.257 1895.01,605.724 1897.58,621.243 1900.15,636.801 1902.72,652.384 
  1905.29,667.98 1907.86,683.576 1910.44,699.159 1913.01,714.718 1915.58,730.241 1918.15,745.716 1920.72,761.132 1923.29,776.479 1925.87,791.745 1928.44,806.92 
  1931.01,821.994 1933.58,836.959 1936.15,851.804 1938.72,866.521 1941.3,881.101 1943.87,895.537 1946.44,909.82 1949.01,923.944 1951.58,937.901 1954.15,951.684 
  1956.73,965.288 1959.3,978.707 1961.87,991.935 1964.44,1004.97 1967.01,1017.8 1969.58,1030.43 1972.15,1042.84 1974.73,1055.05 1977.3,1067.04 1979.87,1078.81 
  1982.44,1090.37 1985.01,1101.69 1987.58,1112.8 1990.16,1123.67 1992.73,1134.32 1995.3,1144.74 1997.87,1154.94 2000.44,1164.9 2003.01,1174.63 2005.59,1184.13 
  2008.16,1193.41 2010.73,1202.46 2013.3,1211.28 2015.87,1219.87 2018.44,1228.24 2021.02,1236.39 2023.59,1244.31 2026.16,1252.02 2028.73,1259.51 2031.3,1266.79 
  2033.87,1273.86 2036.45,1280.71 2039.02,1287.36 2041.59,1293.81 2044.16,1300.06 2046.73,1306.11 2049.3,1311.97 2051.88,1317.64 2054.45,1323.12 2057.02,1328.42 
  2059.59,1333.54 2062.16,1338.48 2064.73,1343.25 2067.31,1347.85 2069.88,1352.29 2072.45,1356.57 2075.02,1360.69 2077.59,1364.66 2080.16,1368.48 2082.73,1372.16 
  2085.31,1375.69 2087.88,1379.09 2090.45,1382.35 2093.02,1385.49 2095.59,1388.49 2098.16,1391.38 2100.74,1394.14 2103.31,1396.79 2105.88,1399.33 2108.45,1401.77 
  2111.02,1404.09 2113.59,1406.32 2116.17,1408.45 2118.74,1410.48 2121.31,1412.43 2123.88,1414.29 2126.45,1416.06 2129.02,1417.75 2131.6,1419.36 2134.17,1420.9 
  2136.74,1422.36 2139.31,1423.76 2141.88,1425.08 2144.45,1426.35 2147.03,1427.55 2149.6,1428.69 2152.17,1429.77 2154.74,1430.8 2157.31,1431.78 2159.88,1432.71 
  2162.46,1433.59 2165.03,1434.42 2167.6,1435.21 2170.17,1435.96 2172.74,1436.67 2175.31,1437.34 2177.89,1437.98 2180.46,1438.58 2183.03,1439.15 2185.6,1439.68 
  2188.17,1440.19 2190.74,1440.67 2193.31,1441.12 2195.89,1441.54 2198.46,1441.94 2201.03,1442.32 2203.6,1442.68 2206.17,1443.01 2208.74,1443.33 2211.32,1443.62 
  2213.89,1443.9 2216.46,1444.16 2219.03,1444.41 2221.6,1444.64 2224.17,1444.86 2226.75,1445.06 2229.32,1445.25 2231.89,1445.43 2234.46,1445.6 2237.03,1445.75 
  2239.6,1445.9 2242.18,1446.04 2244.75,1446.17 2247.32,1446.29 2249.89,1446.4 2252.46,1446.5 2255.03,1446.6 2257.61,1446.69 2260.18,1446.78 2262.75,1446.86 
  2265.32,1446.93 2267.89,1447 2270.46,1447.07 2273.04,1447.13 2275.61,1447.18 2278.18,1447.23 2280.75,1447.28 2283.32,1447.33 2285.89,1447.37 2288.47,1447.41 
  2291.04,1447.44 
  "/>
<path clip-path="url(#clip800)" d="
M1921.49 350.345 L2280.06 350.345 L2280.06 168.905 L1921.49 168.905  Z
  " fill="#ffffff" fill-rule="evenodd" fill-opacity="1"/>
<polyline clip-path="url(#clip800)" style="stroke:#000000; stroke-linecap:butt; stroke-linejoin:round; stroke-width:4; stroke-opacity:1; fill:none" points="
  1921.49,350.345 2280.06,350.345 2280.06,168.905 1921.49,168.905 1921.49,350.345 
  "/>
<polyline clip-path="url(#clip800)" style="stroke:#009af9; stroke-linecap:butt; stroke-linejoin:round; stroke-width:4; stroke-opacity:1; fill:none" points="
  1945.72,229.385 2091.1,229.385 
  "/>
<path clip-path="url(#clip800)" d="M2120.01 215.947 L2120.01 242.822 L2125.66 242.822 Q2132.81 242.822 2136.12 239.581 Q2139.45 236.341 2139.45 229.35 Q2139.45 222.406 2136.12 219.188 Q2132.81 215.947 2125.66 215.947 L2120.01 215.947 M2115.33 212.105 L2124.94 212.105 Q2134.98 212.105 2139.68 216.294 Q2144.38 220.461 2144.38 229.35 Q2144.38 238.285 2139.66 242.475 Q2134.94 246.665 2124.94 246.665 L2115.33 246.665 L2115.33 212.105 Z" fill="#000000" fill-rule="evenodd" fill-opacity="1" /><path clip-path="url(#clip800)" d="M2163.43 233.632 Q2158.27 233.632 2156.28 234.813 Q2154.29 235.993 2154.29 238.841 Q2154.29 241.109 2155.77 242.452 Q2157.28 243.771 2159.84 243.771 Q2163.39 243.771 2165.52 241.271 Q2167.67 238.748 2167.67 234.581 L2167.67 233.632 L2163.43 233.632 M2171.93 231.873 L2171.93 246.665 L2167.67 246.665 L2167.67 242.729 Q2166.21 245.091 2164.03 246.225 Q2161.86 247.336 2158.71 247.336 Q2154.73 247.336 2152.37 245.114 Q2150.03 242.868 2150.03 239.118 Q2150.03 234.743 2152.95 232.521 Q2155.89 230.299 2161.7 230.299 L2167.67 230.299 L2167.67 229.882 Q2167.67 226.943 2165.72 225.345 Q2163.8 223.725 2160.31 223.725 Q2158.09 223.725 2155.98 224.257 Q2153.87 224.79 2151.93 225.855 L2151.93 221.919 Q2154.27 221.017 2156.47 220.577 Q2158.66 220.114 2160.75 220.114 Q2166.37 220.114 2169.15 223.031 Q2171.93 225.947 2171.93 231.873 Z" fill="#000000" fill-rule="evenodd" fill-opacity="1" /><path clip-path="url(#clip800)" d="M2184.91 213.378 L2184.91 220.739 L2193.69 220.739 L2193.69 224.049 L2184.91 224.049 L2184.91 238.123 Q2184.91 241.294 2185.77 242.197 Q2186.65 243.1 2189.31 243.1 L2193.69 243.1 L2193.69 246.665 L2189.31 246.665 Q2184.38 246.665 2182.51 244.836 Q2180.63 242.984 2180.63 238.123 L2180.63 224.049 L2177.51 224.049 L2177.51 220.739 L2180.63 220.739 L2180.63 213.378 L2184.91 213.378 Z" fill="#000000" fill-rule="evenodd" fill-opacity="1" /><path clip-path="url(#clip800)" d="M2211.07 233.632 Q2205.91 233.632 2203.92 234.813 Q2201.93 235.993 2201.93 238.841 Q2201.93 241.109 2203.41 242.452 Q2204.91 243.771 2207.48 243.771 Q2211.03 243.771 2213.15 241.271 Q2215.31 238.748 2215.31 234.581 L2215.31 233.632 L2211.07 233.632 M2219.57 231.873 L2219.57 246.665 L2215.31 246.665 L2215.31 242.729 Q2213.85 245.091 2211.67 246.225 Q2209.5 247.336 2206.35 247.336 Q2202.37 247.336 2200.01 245.114 Q2197.67 242.868 2197.67 239.118 Q2197.67 234.743 2200.59 232.521 Q2203.53 230.299 2209.34 230.299 L2215.31 230.299 L2215.31 229.882 Q2215.31 226.943 2213.36 225.345 Q2211.44 223.725 2207.95 223.725 Q2205.72 223.725 2203.62 224.257 Q2201.51 224.79 2199.57 225.855 L2199.57 221.919 Q2201.9 221.017 2204.1 220.577 Q2206.3 220.114 2208.39 220.114 Q2214.01 220.114 2216.79 223.031 Q2219.57 225.947 2219.57 231.873 Z" fill="#000000" fill-rule="evenodd" fill-opacity="1" /><polyline clip-path="url(#clip800)" style="stroke:#e26f46; stroke-linecap:butt; stroke-linejoin:round; stroke-width:4; stroke-opacity:1; fill:none" points="
  1945.72,289.865 2091.1,289.865 
  "/>
<path clip-path="url(#clip800)" d="M2115.33 272.585 L2144.57 272.585 L2144.57 276.52 L2132.3 276.52 L2132.3 307.145 L2127.6 307.145 L2127.6 276.52 L2115.33 276.52 L2115.33 272.585 Z" fill="#000000" fill-rule="evenodd" fill-opacity="1" /><path clip-path="url(#clip800)" d="M2156.95 285.2 Q2156.23 284.784 2155.38 284.598 Q2154.54 284.39 2153.53 284.39 Q2149.91 284.39 2147.97 286.751 Q2146.05 289.089 2146.05 293.487 L2146.05 307.145 L2141.77 307.145 L2141.77 281.219 L2146.05 281.219 L2146.05 285.247 Q2147.39 282.886 2149.54 281.751 Q2151.7 280.594 2154.78 280.594 Q2155.22 280.594 2155.75 280.663 Q2156.28 280.71 2156.93 280.825 L2156.95 285.2 Z" fill="#000000" fill-rule="evenodd" fill-opacity="1" /><path clip-path="url(#clip800)" d="M2160.98 296.913 L2160.98 281.219 L2165.24 281.219 L2165.24 296.751 Q2165.24 300.432 2166.67 302.284 Q2168.11 304.112 2170.98 304.112 Q2174.43 304.112 2176.42 301.913 Q2178.43 299.714 2178.43 295.918 L2178.43 281.219 L2182.69 281.219 L2182.69 307.145 L2178.43 307.145 L2178.43 303.163 Q2176.88 305.524 2174.82 306.682 Q2172.78 307.816 2170.08 307.816 Q2165.61 307.816 2163.29 305.038 Q2160.98 302.26 2160.98 296.913 M2171.7 280.594 L2171.7 280.594 Z" fill="#000000" fill-rule="evenodd" fill-opacity="1" /><path clip-path="url(#clip800)" d="M2195.68 273.858 L2195.68 281.219 L2204.45 281.219 L2204.45 284.529 L2195.68 284.529 L2195.68 298.603 Q2195.68 301.774 2196.53 302.677 Q2197.41 303.58 2200.08 303.58 L2204.45 303.58 L2204.45 307.145 L2200.08 307.145 Q2195.15 307.145 2193.27 305.316 Q2191.4 303.464 2191.4 298.603 L2191.4 284.529 L2188.27 284.529 L2188.27 281.219 L2191.4 281.219 L2191.4 273.858 L2195.68 273.858 Z" fill="#000000" fill-rule="evenodd" fill-opacity="1" /><path clip-path="url(#clip800)" d="M2231.6 291.497 L2231.6 307.145 L2227.34 307.145 L2227.34 291.635 Q2227.34 287.955 2225.91 286.126 Q2224.47 284.298 2221.6 284.298 Q2218.15 284.298 2216.16 286.497 Q2214.17 288.696 2214.17 292.492 L2214.17 307.145 L2209.89 307.145 L2209.89 271.126 L2214.17 271.126 L2214.17 285.247 Q2215.7 282.909 2217.76 281.751 Q2219.84 280.594 2222.55 280.594 Q2227.02 280.594 2229.31 283.372 Q2231.6 286.126 2231.6 291.497 Z" fill="#000000" fill-rule="evenodd" fill-opacity="1" /></svg>
