<?xml version="1.0" encoding="utf-8"?>
<svg xmlns="http://www.w3.org/2000/svg" xmlns:xlink="http://www.w3.org/1999/xlink" width="600" height="400" viewBox="0 0 2400 1600">
<defs>
  <clipPath id="clip770">
    <rect x="0" y="0" width="2400" height="1600"/>
  </clipPath>
</defs>
<path clip-path="url(#clip770)" d="
M0 1600 L2400 1600 L2400 0 L0 0  Z
  " fill="#ffffff" fill-rule="evenodd" fill-opacity="1"/>
<defs>
  <clipPath id="clip771">
    <rect x="480" y="0" width="1681" height="1600"/>
  </clipPath>
</defs>
<path clip-path="url(#clip770)" d="
M172.015 1486.45 L2352.76 1486.45 L2352.76 123.472 L172.015 123.472  Z
  " fill="#ffffff" fill-rule="evenodd" fill-opacity="1"/>
<defs>
  <clipPath id="clip772">
    <rect x="172" y="123" width="2182" height="1364"/>
  </clipPath>
</defs>
<polyline clip-path="url(#clip772)" style="stroke:#000000; stroke-linecap:butt; stroke-linejoin:round; stroke-width:2; stroke-opacity:0.1; fill:none" points="
  233.734,1486.45 233.734,123.472 
  "/>
<polyline clip-path="url(#clip772)" style="stroke:#000000; stroke-linecap:butt; stroke-linejoin:round; stroke-width:2; stroke-opacity:0.1; fill:none" points="
  576.618,1486.45 576.618,123.472 
  "/>
<polyline clip-path="url(#clip772)" style="stroke:#000000; stroke-linecap:butt; stroke-linejoin:round; stroke-width:2; stroke-opacity:0.1; fill:none" points="
  919.502,1486.45 919.502,123.472 
  "/>
<polyline clip-path="url(#clip772)" style="stroke:#000000; stroke-linecap:butt; stroke-linejoin:round; stroke-width:2; stroke-opacity:0.1; fill:none" points="
  1262.39,1486.45 1262.39,123.472 
  "/>
<polyline clip-path="url(#clip772)" style="stroke:#000000; stroke-linecap:butt; stroke-linejoin:round; stroke-width:2; stroke-opacity:0.1; fill:none" points="
  1605.27,1486.45 1605.27,123.472 
  "/>
<polyline clip-path="url(#clip772)" style="stroke:#000000; stroke-linecap:butt; stroke-linejoin:round; stroke-width:2; stroke-opacity:0.1; fill:none" points="
  1948.15,1486.45 1948.15,123.472 
  "/>
<polyline clip-path="url(#clip772)" style="stroke:#000000; stroke-linecap:butt; stroke-linejoin:round; stroke-width:2; stroke-opacity:0.1; fill:none" points="
  2291.04,1486.45 2291.04,123.472 
  "/>
<polyline clip-path="url(#clip770)" style="stroke:#000000; stroke-linecap:butt; stroke-linejoin:round; stroke-width:4; stroke-opacity:1; fill:none" points="
  172.015,1486.45 2352.76,1486.45 
  "/>
<polyline clip-path="url(#clip770)" style="stroke:#000000; stroke-linecap:butt; stroke-linejoin:round; stroke-width:4; stroke-opacity:1; fill:none" points="
  233.734,1486.45 233.734,1470.09 
  "/>
<polyline clip-path="url(#clip770)" style="stroke:#000000; stroke-linecap:butt; stroke-linejoin:round; stroke-width:4; stroke-opacity:1; fill:none" points="
  576.618,1486.45 576.618,1470.09 
  "/>
<polyline clip-path="url(#clip770)" style="stroke:#000000; stroke-linecap:butt; stroke-linejoin:round; stroke-width:4; stroke-opacity:1; fill:none" points="
  919.502,1486.45 919.502,1470.09 
  "/>
<polyline clip-path="url(#clip770)" style="stroke:#000000; stroke-linecap:butt; stroke-linejoin:round; stroke-width:4; stroke-opacity:1; fill:none" points="
  1262.39,1486.45 1262.39,1470.09 
  "/>
<polyline clip-path="url(#clip770)" style="stroke:#000000; stroke-linecap:butt; stroke-linejoin:round; stroke-width:4; stroke-opacity:1; fill:none" points="
  1605.27,1486.45 1605.27,1470.09 
  "/>
<polyline clip-path="url(#clip770)" style="stroke:#000000; stroke-linecap:butt; stroke-linejoin:round; stroke-width:4; stroke-opacity:1; fill:none" points="
  1948.15,1486.45 1948.15,1470.09 
  "/>
<polyline clip-path="url(#clip770)" style="stroke:#000000; stroke-linecap:butt; stroke-linejoin:round; stroke-width:4; stroke-opacity:1; fill:none" points="
  2291.04,1486.45 2291.04,1470.09 
  "/>
<path clip-path="url(#clip770)" d="M203.676 1530.29 L233.352 1530.29 L233.352 1534.23 L203.676 1534.23 L203.676 1530.29 Z" fill="#000000" fill-rule="evenodd" fill-opacity="1" /><path clip-path="url(#clip770)" d="M247.472 1543.18 L263.792 1543.18 L263.792 1547.12 L241.847 1547.12 L241.847 1543.18 Q244.509 1540.43 249.093 1535.8 Q253.699 1531.15 254.88 1529.81 Q257.125 1527.28 258.005 1525.55 Q258.907 1523.79 258.907 1522.1 Q258.907 1519.34 256.963 1517.61 Q255.042 1515.87 251.94 1515.87 Q249.741 1515.87 247.287 1516.63 Q244.857 1517.4 242.079 1518.95 L242.079 1514.23 Q244.903 1513.09 247.357 1512.51 Q249.81 1511.93 251.847 1511.93 Q257.218 1511.93 260.412 1514.62 Q263.606 1517.31 263.606 1521.8 Q263.606 1523.93 262.796 1525.85 Q262.009 1527.74 259.903 1530.34 Q259.324 1531.01 256.222 1534.23 Q253.12 1537.42 247.472 1543.18 Z" fill="#000000" fill-rule="evenodd" fill-opacity="1" /><path clip-path="url(#clip770)" d="M546.375 1530.29 L576.051 1530.29 L576.051 1534.23 L546.375 1534.23 L546.375 1530.29 Z" fill="#000000" fill-rule="evenodd" fill-opacity="1" /><path clip-path="url(#clip770)" d="M586.953 1543.18 L594.592 1543.18 L594.592 1516.82 L586.282 1518.49 L586.282 1514.23 L594.546 1512.56 L599.222 1512.56 L599.222 1543.18 L606.861 1543.18 L606.861 1547.12 L586.953 1547.12 L586.953 1543.18 Z" fill="#000000" fill-rule="evenodd" fill-opacity="1" /><path clip-path="url(#clip770)" d="M919.502 1515.64 Q915.89 1515.64 914.062 1519.2 Q912.256 1522.75 912.256 1529.87 Q912.256 1536.98 914.062 1540.55 Q915.89 1544.09 919.502 1544.09 Q923.136 1544.09 924.941 1540.55 Q926.77 1536.98 926.77 1529.87 Q926.77 1522.75 924.941 1519.2 Q923.136 1515.64 919.502 1515.64 M919.502 1511.93 Q925.312 1511.93 928.367 1516.54 Q931.446 1521.12 931.446 1529.87 Q931.446 1538.6 928.367 1543.21 Q925.312 1547.79 919.502 1547.79 Q913.691 1547.79 910.613 1543.21 Q907.557 1538.6 907.557 1529.87 Q907.557 1521.12 910.613 1516.54 Q913.691 1511.93 919.502 1511.93 Z" fill="#000000" fill-rule="evenodd" fill-opacity="1" /><path clip-path="url(#clip770)" d="M1252.77 1543.18 L1260.41 1543.18 L1260.41 1516.82 L1252.1 1518.49 L1252.1 1514.23 L1260.36 1512.56 L1265.04 1512.56 L1265.04 1543.18 L1272.67 1543.18 L1272.67 1547.12 L1252.77 1547.12 L1252.77 1543.18 Z" fill="#000000" fill-rule="evenodd" fill-opacity="1" /><path clip-path="url(#clip770)" d="M1599.92 1543.18 L1616.24 1543.18 L1616.24 1547.12 L1594.3 1547.12 L1594.3 1543.18 Q1596.96 1540.43 1601.54 1535.8 Q1606.15 1531.15 1607.33 1529.81 Q1609.57 1527.28 1610.45 1525.55 Q1611.36 1523.79 1611.36 1522.1 Q1611.36 1519.34 1609.41 1517.61 Q1607.49 1515.87 1604.39 1515.87 Q1602.19 1515.87 1599.74 1516.63 Q1597.31 1517.4 1594.53 1518.95 L1594.53 1514.23 Q1597.35 1513.09 1599.81 1512.51 Q1602.26 1511.93 1604.3 1511.93 Q1609.67 1511.93 1612.86 1514.62 Q1616.06 1517.31 1616.06 1521.8 Q1616.06 1523.93 1615.25 1525.85 Q1614.46 1527.74 1612.35 1530.34 Q1611.77 1531.01 1608.67 1534.23 Q1605.57 1537.42 1599.92 1543.18 Z" fill="#000000" fill-rule="evenodd" fill-opacity="1" /><path clip-path="url(#clip770)" d="M1952.4 1528.49 Q1955.76 1529.2 1957.63 1531.47 Q1959.53 1533.74 1959.53 1537.07 Q1959.53 1542.19 1956.01 1544.99 Q1952.49 1547.79 1946.01 1547.79 Q1943.84 1547.79 1941.52 1547.35 Q1939.23 1546.93 1936.78 1546.08 L1936.78 1541.56 Q1938.72 1542.7 1941.03 1543.28 Q1943.35 1543.86 1945.87 1543.86 Q1950.27 1543.86 1952.56 1542.12 Q1954.88 1540.38 1954.88 1537.07 Q1954.88 1534.02 1952.72 1532.31 Q1950.6 1530.57 1946.78 1530.57 L1942.75 1530.57 L1942.75 1526.73 L1946.96 1526.73 Q1950.41 1526.73 1952.24 1525.36 Q1954.07 1523.97 1954.07 1521.38 Q1954.07 1518.72 1952.17 1517.31 Q1950.29 1515.87 1946.78 1515.87 Q1944.85 1515.87 1942.66 1516.29 Q1940.46 1516.7 1937.82 1517.58 L1937.82 1513.42 Q1940.48 1512.68 1942.79 1512.31 Q1945.13 1511.93 1947.19 1511.93 Q1952.52 1511.93 1955.62 1514.37 Q1958.72 1516.77 1958.72 1520.89 Q1958.72 1523.76 1957.08 1525.75 Q1955.43 1527.72 1952.4 1528.49 Z" fill="#000000" fill-rule="evenodd" fill-opacity="1" /><path clip-path="url(#clip770)" d="M2294.05 1516.63 L2282.24 1535.08 L2294.05 1535.08 L2294.05 1516.63 M2292.82 1512.56 L2298.7 1512.56 L2298.7 1535.08 L2303.63 1535.08 L2303.63 1538.97 L2298.7 1538.97 L2298.7 1547.12 L2294.05 1547.12 L2294.05 1538.97 L2278.44 1538.97 L2278.44 1534.46 L2292.82 1512.56 Z" fill="#000000" fill-rule="evenodd" fill-opacity="1" /><polyline clip-path="url(#clip772)" style="stroke:#000000; stroke-linecap:butt; stroke-linejoin:round; stroke-width:2; stroke-opacity:0.1; fill:none" points="
  172.015,1447.87 2352.76,1447.87 
  "/>
<polyline clip-path="url(#clip772)" style="stroke:#000000; stroke-linecap:butt; stroke-linejoin:round; stroke-width:2; stroke-opacity:0.1; fill:none" points="
  172.015,1118.17 2352.76,1118.17 
  "/>
<polyline clip-path="url(#clip772)" style="stroke:#000000; stroke-linecap:butt; stroke-linejoin:round; stroke-width:2; stroke-opacity:0.1; fill:none" points="
  172.015,788.475 2352.76,788.475 
  "/>
<polyline clip-path="url(#clip772)" style="stroke:#000000; stroke-linecap:butt; stroke-linejoin:round; stroke-width:2; stroke-opacity:0.1; fill:none" points="
  172.015,458.776 2352.76,458.776 
  "/>
<polyline clip-path="url(#clip772)" style="stroke:#000000; stroke-linecap:butt; stroke-linejoin:round; stroke-width:2; stroke-opacity:0.1; fill:none" points="
  172.015,129.077 2352.76,129.077 
  "/>
<polyline clip-path="url(#clip770)" style="stroke:#000000; stroke-linecap:butt; stroke-linejoin:round; stroke-width:4; stroke-opacity:1; fill:none" points="
  172.015,1486.45 172.015,123.472 
  "/>
<polyline clip-path="url(#clip770)" style="stroke:#000000; stroke-linecap:butt; stroke-linejoin:round; stroke-width:4; stroke-opacity:1; fill:none" points="
  172.015,1447.87 198.184,1447.87 
  "/>
<polyline clip-path="url(#clip770)" style="stroke:#000000; stroke-linecap:butt; stroke-linejoin:round; stroke-width:4; stroke-opacity:1; fill:none" points="
  172.015,1118.17 198.184,1118.17 
  "/>
<polyline clip-path="url(#clip770)" style="stroke:#000000; stroke-linecap:butt; stroke-linejoin:round; stroke-width:4; stroke-opacity:1; fill:none" points="
  172.015,788.475 198.184,788.475 
  "/>
<polyline clip-path="url(#clip770)" style="stroke:#000000; stroke-linecap:butt; stroke-linejoin:round; stroke-width:4; stroke-opacity:1; fill:none" points="
  172.015,458.776 198.184,458.776 
  "/>
<polyline clip-path="url(#clip770)" style="stroke:#000000; stroke-linecap:butt; stroke-linejoin:round; stroke-width:4; stroke-opacity:1; fill:none" points="
  172.015,129.077 198.184,129.077 
  "/>
<path clip-path="url(#clip770)" d="M124.07 1433.67 Q120.459 1433.67 118.631 1437.24 Q116.825 1440.78 116.825 1447.91 Q116.825 1455.01 118.631 1458.58 Q120.459 1462.12 124.07 1462.12 Q127.705 1462.12 129.51 1458.58 Q131.339 1455.01 131.339 1447.91 Q131.339 1440.78 129.51 1437.24 Q127.705 1433.67 124.07 1433.67 M124.07 1429.97 Q129.881 1429.97 132.936 1434.57 Q136.015 1439.16 136.015 1447.91 Q136.015 1456.63 132.936 1461.24 Q129.881 1465.82 124.07 1465.82 Q118.26 1465.82 115.182 1461.24 Q112.126 1456.63 112.126 1447.91 Q112.126 1439.16 115.182 1434.57 Q118.26 1429.97 124.07 1429.97 Z" fill="#000000" fill-rule="evenodd" fill-opacity="1" /><path clip-path="url(#clip770)" d="M57.7745 1131.52 L74.0939 1131.52 L74.0939 1135.45 L52.1495 1135.45 L52.1495 1131.52 Q54.8115 1128.76 59.3949 1124.13 Q64.0013 1119.48 65.1819 1118.14 Q67.4272 1115.62 68.3068 1113.88 Q69.2096 1112.12 69.2096 1110.43 Q69.2096 1107.68 67.2652 1105.94 Q65.3439 1104.2 62.2421 1104.2 Q60.043 1104.2 57.5893 1104.97 Q55.1588 1105.73 52.381 1107.28 L52.381 1102.56 Q55.2051 1101.43 57.6588 1100.85 Q60.1124 1100.27 62.1495 1100.27 Q67.5198 1100.27 70.7142 1102.95 Q73.9087 1105.64 73.9087 1110.13 Q73.9087 1112.26 73.0985 1114.18 Q72.3115 1116.08 70.205 1118.67 Q69.6263 1119.34 66.5245 1122.56 Q63.4226 1125.76 57.7745 1131.52 Z" fill="#000000" fill-rule="evenodd" fill-opacity="1" /><path clip-path="url(#clip770)" d="M93.9086 1103.97 Q90.2975 1103.97 88.4688 1107.54 Q86.6632 1111.08 86.6632 1118.21 Q86.6632 1125.32 88.4688 1128.88 Q90.2975 1132.42 93.9086 1132.42 Q97.5428 1132.42 99.3483 1128.88 Q101.177 1125.32 101.177 1118.21 Q101.177 1111.08 99.3483 1107.54 Q97.5428 1103.97 93.9086 1103.97 M93.9086 1100.27 Q99.7187 1100.27 102.774 1104.88 Q105.853 1109.46 105.853 1118.21 Q105.853 1126.94 102.774 1131.54 Q99.7187 1136.13 93.9086 1136.13 Q88.0984 1136.13 85.0197 1131.54 Q81.9642 1126.94 81.9642 1118.21 Q81.9642 1109.46 85.0197 1104.88 Q88.0984 1100.27 93.9086 1100.27 Z" fill="#000000" fill-rule="evenodd" fill-opacity="1" /><path clip-path="url(#clip770)" d="M124.07 1103.97 Q120.459 1103.97 118.631 1107.54 Q116.825 1111.08 116.825 1118.21 Q116.825 1125.32 118.631 1128.88 Q120.459 1132.42 124.07 1132.42 Q127.705 1132.42 129.51 1128.88 Q131.339 1125.32 131.339 1118.21 Q131.339 1111.08 129.51 1107.54 Q127.705 1103.97 124.07 1103.97 M124.07 1100.27 Q129.881 1100.27 132.936 1104.88 Q136.015 1109.46 136.015 1118.21 Q136.015 1126.94 132.936 1131.54 Q129.881 1136.13 124.07 1136.13 Q118.26 1136.13 115.182 1131.54 Q112.126 1126.94 112.126 1118.21 Q112.126 1109.46 115.182 1104.88 Q118.26 1100.27 124.07 1100.27 Z" fill="#000000" fill-rule="evenodd" fill-opacity="1" /><path clip-path="url(#clip770)" d="M66.5939 775.269 L54.7884 793.718 L66.5939 793.718 L66.5939 775.269 M65.367 771.195 L71.2466 771.195 L71.2466 793.718 L76.1772 793.718 L76.1772 797.607 L71.2466 797.607 L71.2466 805.755 L66.5939 805.755 L66.5939 797.607 L50.9921 797.607 L50.9921 793.093 L65.367 771.195 Z" fill="#000000" fill-rule="evenodd" fill-opacity="1" /><path clip-path="url(#clip770)" d="M93.9086 774.274 Q90.2975 774.274 88.4688 777.839 Q86.6632 781.38 86.6632 788.51 Q86.6632 795.616 88.4688 799.181 Q90.2975 802.723 93.9086 802.723 Q97.5428 802.723 99.3483 799.181 Q101.177 795.616 101.177 788.51 Q101.177 781.38 99.3483 777.839 Q97.5428 774.274 93.9086 774.274 M93.9086 770.57 Q99.7187 770.57 102.774 775.177 Q105.853 779.76 105.853 788.51 Q105.853 797.237 102.774 801.843 Q99.7187 806.426 93.9086 806.426 Q88.0984 806.426 85.0197 801.843 Q81.9642 797.237 81.9642 788.51 Q81.9642 779.76 85.0197 775.177 Q88.0984 770.57 93.9086 770.57 Z" fill="#000000" fill-rule="evenodd" fill-opacity="1" /><path clip-path="url(#clip770)" d="M124.07 774.274 Q120.459 774.274 118.631 777.839 Q116.825 781.38 116.825 788.51 Q116.825 795.616 118.631 799.181 Q120.459 802.723 124.07 802.723 Q127.705 802.723 129.51 799.181 Q131.339 795.616 131.339 788.51 Q131.339 781.38 129.51 777.839 Q127.705 774.274 124.07 774.274 M124.07 770.57 Q129.881 770.57 132.936 775.177 Q136.015 779.76 136.015 788.51 Q136.015 797.237 132.936 801.843 Q129.881 806.426 124.07 806.426 Q118.26 806.426 115.182 801.843 Q112.126 797.237 112.126 788.51 Q112.126 779.76 115.182 775.177 Q118.26 770.57 124.07 770.57 Z" fill="#000000" fill-rule="evenodd" fill-opacity="1" /><path clip-path="url(#clip770)" d="M64.3254 456.913 Q61.1773 456.913 59.3254 459.065 Q57.4967 461.218 57.4967 464.968 Q57.4967 468.695 59.3254 470.871 Q61.1773 473.024 64.3254 473.024 Q67.4735 473.024 69.3022 470.871 Q71.1541 468.695 71.1541 464.968 Q71.1541 461.218 69.3022 459.065 Q67.4735 456.913 64.3254 456.913 M73.6077 442.26 L73.6077 446.519 Q71.8485 445.686 70.0429 445.246 Q68.2606 444.806 66.5013 444.806 Q61.8717 444.806 59.418 447.931 Q56.9875 451.056 56.6402 457.376 Q58.006 455.362 60.0662 454.297 Q62.1263 453.209 64.6032 453.209 Q69.8115 453.209 72.8207 456.38 Q75.8531 459.528 75.8531 464.968 Q75.8531 470.292 72.705 473.51 Q69.5568 476.727 64.3254 476.727 Q58.33 476.727 55.1588 472.144 Q51.9875 467.538 51.9875 458.811 Q51.9875 450.616 55.8764 445.755 Q59.7652 440.871 66.3161 440.871 Q68.0754 440.871 69.8578 441.218 Q71.6633 441.565 73.6077 442.26 Z" fill="#000000" fill-rule="evenodd" fill-opacity="1" /><path clip-path="url(#clip770)" d="M93.9086 444.575 Q90.2975 444.575 88.4688 448.14 Q86.6632 451.681 86.6632 458.811 Q86.6632 465.917 88.4688 469.482 Q90.2975 473.024 93.9086 473.024 Q97.5428 473.024 99.3483 469.482 Q101.177 465.917 101.177 458.811 Q101.177 451.681 99.3483 448.14 Q97.5428 444.575 93.9086 444.575 M93.9086 440.871 Q99.7187 440.871 102.774 445.477 Q105.853 450.061 105.853 458.811 Q105.853 467.538 102.774 472.144 Q99.7187 476.727 93.9086 476.727 Q88.0984 476.727 85.0197 472.144 Q81.9642 467.538 81.9642 458.811 Q81.9642 450.061 85.0197 445.477 Q88.0984 440.871 93.9086 440.871 Z" fill="#000000" fill-rule="evenodd" fill-opacity="1" /><path clip-path="url(#clip770)" d="M124.07 444.575 Q120.459 444.575 118.631 448.14 Q116.825 451.681 116.825 458.811 Q116.825 465.917 118.631 469.482 Q120.459 473.024 124.07 473.024 Q127.705 473.024 129.51 469.482 Q131.339 465.917 131.339 458.811 Q131.339 451.681 129.51 448.14 Q127.705 444.575 124.07 444.575 M124.07 440.871 Q129.881 440.871 132.936 445.477 Q136.015 450.061 136.015 458.811 Q136.015 467.538 132.936 472.144 Q129.881 476.727 124.07 476.727 Q118.26 476.727 115.182 472.144 Q112.126 467.538 112.126 458.811 Q112.126 450.061 115.182 445.477 Q118.26 440.871 124.07 440.871 Z" fill="#000000" fill-rule="evenodd" fill-opacity="1" /><path clip-path="url(#clip770)" d="M63.7467 129.945 Q60.4134 129.945 58.4921 131.727 Q56.5939 133.51 56.5939 136.635 Q56.5939 139.76 58.4921 141.542 Q60.4134 143.325 63.7467 143.325 Q67.08 143.325 69.0013 141.542 Q70.9226 139.737 70.9226 136.635 Q70.9226 133.51 69.0013 131.727 Q67.1032 129.945 63.7467 129.945 M59.0708 127.954 Q56.0615 127.214 54.3717 125.153 Q52.7051 123.093 52.7051 120.13 Q52.7051 115.987 55.6449 113.579 Q58.6078 111.172 63.7467 111.172 Q68.9087 111.172 71.8485 113.579 Q74.7883 115.987 74.7883 120.13 Q74.7883 123.093 73.0985 125.153 Q71.4318 127.214 68.4457 127.954 Q71.8253 128.741 73.7003 131.033 Q75.5985 133.325 75.5985 136.635 Q75.5985 141.658 72.5198 144.343 Q69.4642 147.028 63.7467 147.028 Q58.0291 147.028 54.9504 144.343 Q51.8949 141.658 51.8949 136.635 Q51.8949 133.325 53.793 131.033 Q55.6912 128.741 59.0708 127.954 M57.3578 120.57 Q57.3578 123.255 59.0245 124.76 Q60.7143 126.265 63.7467 126.265 Q66.7559 126.265 68.4457 124.76 Q70.1587 123.255 70.1587 120.57 Q70.1587 117.885 68.4457 116.38 Q66.7559 114.876 63.7467 114.876 Q60.7143 114.876 59.0245 116.38 Q57.3578 117.885 57.3578 120.57 Z" fill="#000000" fill-rule="evenodd" fill-opacity="1" /><path clip-path="url(#clip770)" d="M93.9086 114.876 Q90.2975 114.876 88.4688 118.44 Q86.6632 121.982 86.6632 129.112 Q86.6632 136.218 88.4688 139.783 Q90.2975 143.325 93.9086 143.325 Q97.5428 143.325 99.3483 139.783 Q101.177 136.218 101.177 129.112 Q101.177 121.982 99.3483 118.44 Q97.5428 114.876 93.9086 114.876 M93.9086 111.172 Q99.7187 111.172 102.774 115.778 Q105.853 120.362 105.853 129.112 Q105.853 137.839 102.774 142.445 Q99.7187 147.028 93.9086 147.028 Q88.0984 147.028 85.0197 142.445 Q81.9642 137.839 81.9642 129.112 Q81.9642 120.362 85.0197 115.778 Q88.0984 111.172 93.9086 111.172 Z" fill="#000000" fill-rule="evenodd" fill-opacity="1" /><path clip-path="url(#clip770)" d="M124.07 114.876 Q120.459 114.876 118.631 118.44 Q116.825 121.982 116.825 129.112 Q116.825 136.218 118.631 139.783 Q120.459 143.325 124.07 143.325 Q127.705 143.325 129.51 139.783 Q131.339 136.218 131.339 129.112 Q131.339 121.982 129.51 118.44 Q127.705 114.876 124.07 114.876 M124.07 111.172 Q129.881 111.172 132.936 115.778 Q136.015 120.362 136.015 129.112 Q136.015 137.839 132.936 142.445 Q129.881 147.028 124.07 147.028 Q118.26 147.028 115.182 142.445 Q112.126 137.839 112.126 129.112 Q112.126 120.362 115.182 115.778 Q118.26 111.172 124.07 111.172 Z" fill="#000000" fill-rule="evenodd" fill-opacity="1" /><path clip-path="url(#clip770)" d="M1179.36 18.8205 L1179.36 65.8515 L1189.25 65.8515 Q1201.76 65.8515 1207.56 60.1802 Q1213.39 54.509 1213.39 42.2752 Q1213.39 30.1225 1207.56 24.4918 Q1201.76 18.8205 1189.25 18.8205 L1179.36 18.8205 M1171.18 12.096 L1187.99 12.096 Q1205.57 12.096 1213.79 19.4281 Q1222.02 26.7198 1222.02 42.2752 Q1222.02 57.9117 1213.75 65.2439 Q1205.49 72.576 1187.99 72.576 L1171.18 72.576 L1171.18 12.096 Z" fill="#000000" fill-rule="evenodd" fill-opacity="1" /><path clip-path="url(#clip770)" d="M1255.36 49.7694 Q1246.32 49.7694 1242.84 51.8354 Q1239.36 53.9013 1239.36 58.8839 Q1239.36 62.8538 1241.95 65.2034 Q1244.58 67.5124 1249.08 67.5124 Q1255.28 67.5124 1259 63.1374 Q1262.77 58.7219 1262.77 51.4303 L1262.77 49.7694 L1255.36 49.7694 M1270.22 46.6907 L1270.22 72.576 L1262.77 72.576 L1262.77 65.6895 Q1260.22 69.8214 1256.41 71.8063 Q1252.6 73.7508 1247.09 73.7508 Q1240.13 73.7508 1235.99 69.8619 Q1231.9 65.9325 1231.9 59.3701 Q1231.9 51.7138 1237.01 47.825 Q1242.15 43.9361 1252.32 43.9361 L1262.77 43.9361 L1262.77 43.2069 Q1262.77 38.0623 1259.37 35.2672 Q1256.01 32.4315 1249.89 32.4315 Q1246 32.4315 1242.31 33.3632 Q1238.63 34.295 1235.22 36.1584 L1235.22 29.2718 Q1239.32 27.692 1243.16 26.9223 Q1247.01 26.1121 1250.66 26.1121 Q1260.5 26.1121 1265.36 31.2163 Q1270.22 36.3204 1270.22 46.6907 Z" fill="#000000" fill-rule="evenodd" fill-opacity="1" /><path clip-path="url(#clip770)" d="M1292.95 14.324 L1292.95 27.2059 L1308.3 27.2059 L1308.3 32.9987 L1292.95 32.9987 L1292.95 57.6282 Q1292.95 63.1779 1294.45 64.7578 Q1295.99 66.3376 1300.65 66.3376 L1308.3 66.3376 L1308.3 72.576 L1300.65 72.576 Q1292.02 72.576 1288.74 69.3758 Q1285.46 66.1351 1285.46 57.6282 L1285.46 32.9987 L1279.99 32.9987 L1279.99 27.2059 L1285.46 27.2059 L1285.46 14.324 L1292.95 14.324 Z" fill="#000000" fill-rule="evenodd" fill-opacity="1" /><path clip-path="url(#clip770)" d="M1338.72 49.7694 Q1329.69 49.7694 1326.21 51.8354 Q1322.72 53.9013 1322.72 58.8839 Q1322.72 62.8538 1325.32 65.2034 Q1327.95 67.5124 1332.45 67.5124 Q1338.64 67.5124 1342.37 63.1374 Q1346.14 58.7219 1346.14 51.4303 L1346.14 49.7694 L1338.72 49.7694 M1353.59 46.6907 L1353.59 72.576 L1346.14 72.576 L1346.14 65.6895 Q1343.59 69.8214 1339.78 71.8063 Q1335.97 73.7508 1330.46 73.7508 Q1323.49 73.7508 1319.36 69.8619 Q1315.27 65.9325 1315.27 59.3701 Q1315.27 51.7138 1320.37 47.825 Q1325.52 43.9361 1335.69 43.9361 L1346.14 43.9361 L1346.14 43.2069 Q1346.14 38.0623 1342.74 35.2672 Q1339.37 32.4315 1333.26 32.4315 Q1329.37 32.4315 1325.68 33.3632 Q1321.99 34.295 1318.59 36.1584 L1318.59 29.2718 Q1322.68 27.692 1326.53 26.9223 Q1330.38 26.1121 1334.03 26.1121 Q1343.87 26.1121 1348.73 31.2163 Q1353.59 36.3204 1353.59 46.6907 Z" fill="#000000" fill-rule="evenodd" fill-opacity="1" /><polyline clip-path="url(#clip772)" style="stroke:#009af9; stroke-linecap:butt; stroke-linejoin:round; stroke-width:4; stroke-opacity:1; fill:none" points="
  233.734,1447.87 233.734,1299.51 268.022,1299.51 268.022,1332.48 302.311,1332.48 302.311,1233.57 336.599,1233.57 336.599,1101.69 370.887,1101.69 370.887,986.294 
  405.176,986.294 439.464,986.294 439.464,1019.26 473.753,1019.26 473.753,771.99 508.041,771.99 508.041,837.93 542.329,837.93 542.329,854.415 
  576.618,854.415 576.618,788.475 610.906,788.475 610.906,920.355 645.194,920.355 645.194,1035.75 679.483,1035.75 679.483,953.325 713.771,953.325 713.771,1085.2 
  748.06,1085.2 748.06,1151.14 782.348,1151.14 782.348,1200.6 816.636,1200.6 816.636,1134.66 850.925,1134.66 850.925,1299.51 885.213,1299.51 885.213,1233.57 
  919.502,1233.57 919.502,1348.96 953.79,1348.96 953.79,1398.42 988.078,1398.42 1022.37,1398.42 1022.37,1431.39 1056.66,1431.39 
  1090.94,1431.39 1090.94,1381.93 1125.23,1381.93 1125.23,1414.9 1159.52,1414.9 1159.52,1365.45 1193.81,1365.45 1193.81,1283.02 1228.1,1283.02 1228.1,1348.96 
  1262.39,1348.96 1262.39,1299.51 1296.67,1299.51 1296.67,1134.66 1330.96,1134.66 1330.96,1052.23 1365.25,1052.23 1365.25,887.385 1399.54,887.385 1399.54,557.686 
  1433.83,557.686 1433.83,442.291 1468.12,442.291 1468.12,491.746 1502.4,491.746 1502.4,162.047 1536.69,162.047 1536.69,310.411 1570.98,310.411 1570.98,227.987 
  1605.27,227.987 1605.27,162.047 1639.56,162.047 1639.56,326.896 1673.85,326.896 1673.85,195.017 1708.13,195.017 1708.13,458.776 1742.42,458.776 1742.42,508.231 
  1776.71,508.231 1776.71,837.93 1811,837.93 1811,969.81 1845.29,969.81 1845.29,986.294 1879.58,986.294 1879.58,1134.66 1913.86,1134.66 1913.86,1200.6 
  1948.15,1200.6 1948.15,1233.57 1982.44,1233.57 1982.44,1348.96 2016.73,1348.96 2016.73,1398.42 2051.02,1398.42 2051.02,1414.9 2085.31,1414.9 2085.31,1447.87 
  2119.59,1447.87 2119.59,1431.39 2153.88,1431.39 2153.88,1447.87 2188.17,1447.87 2222.46,1447.87 2256.75,1447.87 2256.75,1431.39 
  2291.04,1431.39 2291.04,1447.87 
  "/>
<path clip-path="url(#clip770)" d="
M1933.52 289.865 L2280.06 289.865 L2280.06 168.905 L1933.52 168.905  Z
  " fill="#ffffff" fill-rule="evenodd" fill-opacity="1"/>
<polyline clip-path="url(#clip770)" style="stroke:#000000; stroke-linecap:butt; stroke-linejoin:round; stroke-width:4; stroke-opacity:1; fill:none" points="
  1933.52,289.865 2280.06,289.865 2280.06,168.905 1933.52,168.905 1933.52,289.865 
  "/>
<polyline clip-path="url(#clip770)" style="stroke:#009af9; stroke-linecap:butt; stroke-linejoin:round; stroke-width:4; stroke-opacity:1; fill:none" points="
  1957.75,229.385 2103.14,229.385 
  "/>
<path clip-path="url(#clip770)" d="M2132.04 215.947 L2132.04 242.822 L2137.69 242.822 Q2144.84 242.822 2148.15 239.581 Q2151.49 236.341 2151.49 229.35 Q2151.49 222.406 2148.15 219.188 Q2144.84 215.947 2137.69 215.947 L2132.04 215.947 M2127.37 212.105 L2136.97 212.105 Q2147.02 212.105 2151.72 216.294 Q2156.42 220.461 2156.42 229.35 Q2156.42 238.285 2151.7 242.475 Q2146.97 246.665 2136.97 246.665 L2127.37 246.665 L2127.37 212.105 Z" fill="#000000" fill-rule="evenodd" fill-opacity="1" /><path clip-path="url(#clip770)" d="M2175.47 233.632 Q2170.31 233.632 2168.32 234.813 Q2166.33 235.993 2166.33 238.841 Q2166.33 241.109 2167.81 242.452 Q2169.31 243.771 2171.88 243.771 Q2175.42 243.771 2177.55 241.271 Q2179.71 238.748 2179.71 234.581 L2179.71 233.632 L2175.47 233.632 M2183.96 231.873 L2183.96 246.665 L2179.71 246.665 L2179.71 242.729 Q2178.25 245.091 2176.07 246.225 Q2173.9 247.336 2170.75 247.336 Q2166.77 247.336 2164.4 245.114 Q2162.07 242.868 2162.07 239.118 Q2162.07 234.743 2164.98 232.521 Q2167.92 230.299 2173.73 230.299 L2179.71 230.299 L2179.71 229.882 Q2179.71 226.943 2177.76 225.345 Q2175.84 223.725 2172.34 223.725 Q2170.12 223.725 2168.02 224.257 Q2165.91 224.79 2163.97 225.855 L2163.97 221.919 Q2166.3 221.017 2168.5 220.577 Q2170.7 220.114 2172.78 220.114 Q2178.41 220.114 2181.19 223.031 Q2183.96 225.947 2183.96 231.873 Z" fill="#000000" fill-rule="evenodd" fill-opacity="1" /><path clip-path="url(#clip770)" d="M2196.95 213.378 L2196.95 220.739 L2205.72 220.739 L2205.72 224.049 L2196.95 224.049 L2196.95 238.123 Q2196.95 241.294 2197.81 242.197 Q2198.69 243.1 2201.35 243.1 L2205.72 243.1 L2205.72 246.665 L2201.35 246.665 Q2196.42 246.665 2194.54 244.836 Q2192.67 242.984 2192.67 238.123 L2192.67 224.049 L2189.54 224.049 L2189.54 220.739 L2192.67 220.739 L2192.67 213.378 L2196.95 213.378 Z" fill="#000000" fill-rule="evenodd" fill-opacity="1" /><path clip-path="url(#clip770)" d="M2223.11 233.632 Q2217.95 233.632 2215.96 234.813 Q2213.96 235.993 2213.96 238.841 Q2213.96 241.109 2215.45 242.452 Q2216.95 243.771 2219.52 243.771 Q2223.06 243.771 2225.19 241.271 Q2227.34 238.748 2227.34 234.581 L2227.34 233.632 L2223.11 233.632 M2231.6 231.873 L2231.6 246.665 L2227.34 246.665 L2227.34 242.729 Q2225.89 245.091 2223.71 246.225 Q2221.53 247.336 2218.39 247.336 Q2214.4 247.336 2212.04 245.114 Q2209.71 242.868 2209.71 239.118 Q2209.71 234.743 2212.62 232.521 Q2215.56 230.299 2221.37 230.299 L2227.34 230.299 L2227.34 229.882 Q2227.34 226.943 2225.4 225.345 Q2223.48 223.725 2219.98 223.725 Q2217.76 223.725 2215.65 224.257 Q2213.55 224.79 2211.6 225.855 L2211.6 221.919 Q2213.94 221.017 2216.14 220.577 Q2218.34 220.114 2220.42 220.114 Q2226.05 220.114 2228.83 223.031 Q2231.6 225.947 2231.6 231.873 Z" fill="#000000" fill-rule="evenodd" fill-opacity="1" /></svg>
