<?xml version="1.0" encoding="utf-8"?>
<svg xmlns="http://www.w3.org/2000/svg" xmlns:xlink="http://www.w3.org/1999/xlink" width="600" height="400" viewBox="0 0 2400 1600">
<defs>
  <clipPath id="clip0900">
    <rect x="0" y="0" width="2400" height="1600"/>
  </clipPath>
</defs>
<path clip-path="url(#clip0900)" d="
M0 1600 L2400 1600 L2400 0 L0 0  Z
  " fill="#ffffff" fill-rule="evenodd" fill-opacity="1"/>
<defs>
  <clipPath id="clip0901">
    <rect x="480" y="0" width="1681" height="1600"/>
  </clipPath>
</defs>
<path clip-path="url(#clip0900)" d="
M194.041 1487.47 L2352.76 1487.47 L2352.76 121.675 L194.041 121.675  Z
  " fill="#ffffff" fill-rule="evenodd" fill-opacity="1"/>
<defs>
  <clipPath id="clip0902">
    <rect x="194" y="121" width="2160" height="1367"/>
  </clipPath>
</defs>
<polyline clip-path="url(#clip0902)" style="stroke:#000000; stroke-width:2; stroke-opacity:0.1; fill:none" points="
  255.137,1487.47 255.137,121.675 
  "/>
<polyline clip-path="url(#clip0902)" style="stroke:#000000; stroke-width:2; stroke-opacity:0.1; fill:none" points="
  764.268,1487.47 764.268,121.675 
  "/>
<polyline clip-path="url(#clip0902)" style="stroke:#000000; stroke-width:2; stroke-opacity:0.1; fill:none" points="
  1273.4,1487.47 1273.4,121.675 
  "/>
<polyline clip-path="url(#clip0902)" style="stroke:#000000; stroke-width:2; stroke-opacity:0.1; fill:none" points="
  1782.53,1487.47 1782.53,121.675 
  "/>
<polyline clip-path="url(#clip0902)" style="stroke:#000000; stroke-width:2; stroke-opacity:0.1; fill:none" points="
  2291.66,1487.47 2291.66,121.675 
  "/>
<polyline clip-path="url(#clip0902)" style="stroke:#000000; stroke-width:2; stroke-opacity:0.1; fill:none" points="
  194.041,1448.82 2352.76,1448.82 
  "/>
<polyline clip-path="url(#clip0902)" style="stroke:#000000; stroke-width:2; stroke-opacity:0.1; fill:none" points="
  194.041,1123.44 2352.76,1123.44 
  "/>
<polyline clip-path="url(#clip0902)" style="stroke:#000000; stroke-width:2; stroke-opacity:0.1; fill:none" points="
  194.041,798.067 2352.76,798.067 
  "/>
<polyline clip-path="url(#clip0902)" style="stroke:#000000; stroke-width:2; stroke-opacity:0.1; fill:none" points="
  194.041,472.691 2352.76,472.691 
  "/>
<polyline clip-path="url(#clip0902)" style="stroke:#000000; stroke-width:2; stroke-opacity:0.1; fill:none" points="
  194.041,147.315 2352.76,147.315 
  "/>
<polyline clip-path="url(#clip0900)" style="stroke:#000000; stroke-width:4; stroke-opacity:1; fill:none" points="
  194.041,1487.47 2352.76,1487.47 
  "/>
<polyline clip-path="url(#clip0900)" style="stroke:#000000; stroke-width:4; stroke-opacity:1; fill:none" points="
  194.041,1487.47 194.041,121.675 
  "/>
<polyline clip-path="url(#clip0900)" style="stroke:#000000; stroke-width:4; stroke-opacity:1; fill:none" points="
  255.137,1487.47 255.137,1471.09 
  "/>
<polyline clip-path="url(#clip0900)" style="stroke:#000000; stroke-width:4; stroke-opacity:1; fill:none" points="
  764.268,1487.47 764.268,1471.09 
  "/>
<polyline clip-path="url(#clip0900)" style="stroke:#000000; stroke-width:4; stroke-opacity:1; fill:none" points="
  1273.4,1487.47 1273.4,1471.09 
  "/>
<polyline clip-path="url(#clip0900)" style="stroke:#000000; stroke-width:4; stroke-opacity:1; fill:none" points="
  1782.53,1487.47 1782.53,1471.09 
  "/>
<polyline clip-path="url(#clip0900)" style="stroke:#000000; stroke-width:4; stroke-opacity:1; fill:none" points="
  2291.66,1487.47 2291.66,1471.09 
  "/>
<polyline clip-path="url(#clip0900)" style="stroke:#000000; stroke-width:4; stroke-opacity:1; fill:none" points="
  194.041,1448.82 219.946,1448.82 
  "/>
<polyline clip-path="url(#clip0900)" style="stroke:#000000; stroke-width:4; stroke-opacity:1; fill:none" points="
  194.041,1123.44 219.946,1123.44 
  "/>
<polyline clip-path="url(#clip0900)" style="stroke:#000000; stroke-width:4; stroke-opacity:1; fill:none" points="
  194.041,798.067 219.946,798.067 
  "/>
<polyline clip-path="url(#clip0900)" style="stroke:#000000; stroke-width:4; stroke-opacity:1; fill:none" points="
  194.041,472.691 219.946,472.691 
  "/>
<polyline clip-path="url(#clip0900)" style="stroke:#000000; stroke-width:4; stroke-opacity:1; fill:none" points="
  194.041,147.315 219.946,147.315 
  "/>
<g clip-path="url(#clip0900)">
<text style="fill:#000000; fill-opacity:1; font-family:Arial,Helvetica Neue,Helvetica,sans-serif; font-size:48px; text-anchor:middle;" transform="rotate(0, 255.137, 1541.47)" x="255.137" y="1541.47">-4</text>
</g>
<g clip-path="url(#clip0900)">
<text style="fill:#000000; fill-opacity:1; font-family:Arial,Helvetica Neue,Helvetica,sans-serif; font-size:48px; text-anchor:middle;" transform="rotate(0, 764.268, 1541.47)" x="764.268" y="1541.47">-2</text>
</g>
<g clip-path="url(#clip0900)">
<text style="fill:#000000; fill-opacity:1; font-family:Arial,Helvetica Neue,Helvetica,sans-serif; font-size:48px; text-anchor:middle;" transform="rotate(0, 1273.4, 1541.47)" x="1273.4" y="1541.47">0</text>
</g>
<g clip-path="url(#clip0900)">
<text style="fill:#000000; fill-opacity:1; font-family:Arial,Helvetica Neue,Helvetica,sans-serif; font-size:48px; text-anchor:middle;" transform="rotate(0, 1782.53, 1541.47)" x="1782.53" y="1541.47">2</text>
</g>
<g clip-path="url(#clip0900)">
<text style="fill:#000000; fill-opacity:1; font-family:Arial,Helvetica Neue,Helvetica,sans-serif; font-size:48px; text-anchor:middle;" transform="rotate(0, 2291.66, 1541.47)" x="2291.66" y="1541.47">4</text>
</g>
<g clip-path="url(#clip0900)">
<text style="fill:#000000; fill-opacity:1; font-family:Arial,Helvetica Neue,Helvetica,sans-serif; font-size:48px; text-anchor:end;" transform="rotate(0, 170.041, 1466.32)" x="170.041" y="1466.32">0</text>
</g>
<g clip-path="url(#clip0900)">
<text style="fill:#000000; fill-opacity:1; font-family:Arial,Helvetica Neue,Helvetica,sans-serif; font-size:48px; text-anchor:end;" transform="rotate(0, 170.041, 1140.94)" x="170.041" y="1140.94">250</text>
</g>
<g clip-path="url(#clip0900)">
<text style="fill:#000000; fill-opacity:1; font-family:Arial,Helvetica Neue,Helvetica,sans-serif; font-size:48px; text-anchor:end;" transform="rotate(0, 170.041, 815.567)" x="170.041" y="815.567">500</text>
</g>
<g clip-path="url(#clip0900)">
<text style="fill:#000000; fill-opacity:1; font-family:Arial,Helvetica Neue,Helvetica,sans-serif; font-size:48px; text-anchor:end;" transform="rotate(0, 170.041, 490.191)" x="170.041" y="490.191">750</text>
</g>
<g clip-path="url(#clip0900)">
<text style="fill:#000000; fill-opacity:1; font-family:Arial,Helvetica Neue,Helvetica,sans-serif; font-size:48px; text-anchor:end;" transform="rotate(0, 170.041, 164.815)" x="170.041" y="164.815">1000</text>
</g>
<g clip-path="url(#clip0900)">
<text style="fill:#000000; fill-opacity:1; font-family:Arial,Helvetica Neue,Helvetica,sans-serif; font-size:84px; text-anchor:middle;" transform="rotate(0, 1273.4, 73.2)" x="1273.4" y="73.2">Data and True Statistical Model</text>
</g>
<polyline clip-path="url(#clip0902)" style="stroke:#009af9; stroke-width:4; stroke-opacity:1; fill:none" points="
  764.268,1448.82 764.268,1370.73 789.724,1370.73 789.724,1383.74 815.181,1383.74 815.181,1318.67 840.638,1318.67 840.638,1253.59 866.094,1253.59 866.094,1188.52 
  891.551,1188.52 891.551,1253.59 917.007,1253.59 917.007,863.143 942.464,863.143 942.464,1006.31 967.92,1006.31 967.92,850.128 993.377,850.128 993.377,798.067 
  1018.83,798.067 1044.29,798.067 1044.29,941.233 1069.75,941.233 1069.75,967.263 1095.2,967.263 1095.2,1201.53 1120.66,1201.53 1120.66,1032.34 
  1146.12,1032.34 1146.12,1279.62 1171.57,1279.62 1171.57,1318.67 1197.03,1318.67 1197.03,1279.62 1222.49,1279.62 1222.49,1266.61 1247.94,1266.61 1247.94,1357.71 
  1273.4,1357.71 1273.4,1409.77 1298.86,1409.77 1298.86,1396.76 1324.31,1396.76 1324.31,1435.8 1349.77,1435.8 1349.77,1422.79 1375.22,1422.79 1375.22,1409.77 
  1400.68,1409.77 1400.68,1435.8 1426.14,1435.8 1426.14,1396.76 1451.59,1396.76 1451.59,1383.74 1477.05,1383.74 1477.05,1357.71 1502.51,1357.71 
  1527.96,1357.71 1527.96,1344.7 1553.42,1344.7 1553.42,1149.47 1578.88,1149.47 1578.88,1123.44 1604.33,1123.44 1604.33,993.293 1629.79,993.293 1629.79,967.263 
  1655.25,967.263 1655.25,837.113 1680.7,837.113 1680.7,602.842 1706.16,602.842 1706.16,628.872 1731.62,628.872 1731.62,160.33 1757.07,160.33 1757.07,368.571 
  1782.53,368.571 1782.53,537.766 1807.99,537.766 1807.99,511.736 1833.44,511.736 1858.9,511.736 1858.9,420.631 1884.36,420.631 1884.36,902.188 
  1909.81,902.188 1909.81,967.263 1935.27,967.263 1935.27,980.278 1960.73,980.278 1960.73,1097.41 1986.18,1097.41 2011.64,1097.41 2011.64,1318.67 
  2037.09,1318.67 2037.09,1370.73 2062.55,1370.73 2062.55,1396.76 2088.01,1396.76 2088.01,1383.74 2113.46,1383.74 2113.46,1448.82 2138.92,1448.82 2138.92,1409.77 
  2164.38,1409.77 2164.38,1448.82 2189.83,1448.82 2215.29,1448.82 2240.75,1448.82 2266.2,1448.82 
  2291.66,1448.82 
  "/>
<polyline clip-path="url(#clip0902)" style="stroke:#e26f46; stroke-width:4; stroke-opacity:1; fill:none" points="
  255.137,1448.82 257.683,1448.82 260.228,1448.82 262.774,1448.82 265.32,1448.82 267.865,1448.82 270.411,1448.82 272.957,1448.82 275.502,1448.82 278.048,1448.82 
  280.594,1448.82 283.139,1448.82 285.685,1448.82 288.231,1448.82 290.776,1448.82 293.322,1448.82 295.868,1448.82 298.413,1448.82 300.959,1448.82 303.505,1448.82 
  306.05,1448.82 308.596,1448.82 311.142,1448.82 313.687,1448.82 316.233,1448.82 318.779,1448.82 321.324,1448.82 323.87,1448.82 326.415,1448.82 328.961,1448.82 
  331.507,1448.82 334.052,1448.82 336.598,1448.82 339.144,1448.82 341.689,1448.82 344.235,1448.82 346.781,1448.82 349.326,1448.82 351.872,1448.82 354.418,1448.82 
  356.963,1448.82 359.509,1448.82 362.055,1448.82 364.6,1448.82 367.146,1448.82 369.692,1448.82 372.237,1448.82 374.783,1448.82 377.329,1448.82 379.874,1448.82 
  382.42,1448.82 384.966,1448.82 387.511,1448.82 390.057,1448.82 392.602,1448.82 395.148,1448.82 397.694,1448.82 400.239,1448.82 402.785,1448.82 405.331,1448.82 
  407.876,1448.81 410.422,1448.81 412.968,1448.81 415.513,1448.81 418.059,1448.81 420.605,1448.81 423.15,1448.81 425.696,1448.81 428.242,1448.81 430.787,1448.81 
  433.333,1448.81 435.879,1448.81 438.424,1448.8 440.97,1448.8 443.516,1448.8 446.061,1448.8 448.607,1448.8 451.153,1448.8 453.698,1448.79 456.244,1448.79 
  458.789,1448.79 461.335,1448.78 463.881,1448.78 466.426,1448.78 468.972,1448.77 471.518,1448.77 474.063,1448.77 476.609,1448.76 479.155,1448.76 481.7,1448.75 
  484.246,1448.74 486.792,1448.74 489.337,1448.73 491.883,1448.72 494.429,1448.71 496.974,1448.7 499.52,1448.69 502.066,1448.68 504.611,1448.67 507.157,1448.66 
  509.703,1448.65 512.248,1448.63 514.794,1448.62 517.34,1448.6 519.885,1448.58 522.431,1448.56 524.976,1448.54 527.522,1448.52 530.068,1448.49 532.613,1448.47 
  535.159,1448.44 537.705,1448.41 540.25,1448.38 542.796,1448.34 545.342,1448.31 547.887,1448.27 550.433,1448.22 552.979,1448.18 555.524,1448.13 558.07,1448.08 
  560.616,1448.02 563.161,1447.96 565.707,1447.9 568.253,1447.83 570.798,1447.76 573.344,1447.68 575.89,1447.6 578.435,1447.51 580.981,1447.42 583.527,1447.32 
  586.072,1447.22 588.618,1447.1 591.163,1446.98 593.709,1446.86 596.255,1446.72 598.8,1446.58 601.346,1446.43 603.892,1446.26 606.437,1446.09 608.983,1445.91 
  611.529,1445.72 614.074,1445.51 616.62,1445.3 619.166,1445.07 621.711,1444.82 624.257,1444.57 626.803,1444.3 629.348,1444.01 631.894,1443.71 634.44,1443.39 
  636.985,1443.05 639.531,1442.7 642.077,1442.32 644.622,1441.93 647.168,1441.51 649.714,1441.07 652.259,1440.61 654.805,1440.13 657.35,1439.62 659.896,1439.08 
  662.442,1438.52 664.987,1437.93 667.533,1437.31 670.079,1436.66 672.624,1435.97 675.17,1435.26 677.716,1434.51 680.261,1433.72 682.807,1432.9 685.353,1432.04 
  687.898,1431.14 690.444,1430.2 692.99,1429.22 695.535,1428.19 698.081,1427.12 700.627,1426.01 703.172,1424.84 705.718,1423.63 708.264,1422.36 710.809,1421.04 
  713.355,1419.67 715.901,1418.25 718.446,1416.76 720.992,1415.22 723.537,1413.62 726.083,1411.95 728.629,1410.22 731.174,1408.43 733.72,1406.57 736.266,1404.65 
  738.811,1402.65 741.357,1400.58 743.903,1398.44 746.448,1396.23 748.994,1393.94 751.54,1391.58 754.085,1389.13 756.631,1386.61 759.177,1384 761.722,1381.32 
  764.268,1378.55 766.814,1375.7 769.359,1372.76 771.905,1369.73 774.451,1366.62 776.996,1363.42 779.542,1360.13 782.088,1356.75 784.633,1353.28 787.179,1349.72 
  789.724,1346.07 792.27,1342.32 794.816,1338.48 797.361,1334.55 799.907,1330.53 802.453,1326.41 804.998,1322.21 807.544,1317.91 810.09,1313.51 812.635,1309.03 
  815.181,1304.46 817.727,1299.79 820.272,1295.04 822.818,1290.2 825.364,1285.27 827.909,1280.25 830.455,1275.15 833.001,1269.97 835.546,1264.71 838.092,1259.37 
  840.638,1253.95 843.183,1248.46 845.729,1242.89 848.275,1237.25 850.82,1231.55 853.366,1225.78 855.911,1219.95 858.457,1214.07 861.003,1208.12 863.548,1202.13 
  866.094,1196.09 868.64,1190 871.185,1183.87 873.731,1177.71 876.277,1171.51 878.822,1165.28 881.368,1159.04 883.914,1152.77 886.459,1146.48 889.005,1140.19 
  891.551,1133.89 894.096,1127.6 896.642,1121.3 899.188,1115.02 901.733,1108.75 904.279,1102.51 906.825,1096.29 909.37,1090.1 911.916,1083.95 914.462,1077.84 
  917.007,1071.78 919.553,1065.78 922.098,1059.84 924.644,1053.96 927.19,1048.15 929.735,1042.42 932.281,1036.77 934.827,1031.21 937.372,1025.75 939.918,1020.39 
  942.464,1015.13 945.009,1009.98 947.555,1004.95 950.101,1000.04 952.646,995.255 955.192,990.605 957.738,986.093 960.283,981.722 962.829,977.5 965.375,973.429 
  967.92,969.515 970.466,965.761 973.012,962.173 975.557,958.755 978.103,955.51 980.649,952.442 983.194,949.554 985.74,946.851 988.285,944.335 990.831,942.009 
  993.377,939.876 995.922,937.938 998.468,936.198 1001.01,934.658 1003.56,933.32 1006.11,932.184 1008.65,931.253 1011.2,930.528 1013.74,930.01 1016.29,929.698 
  1018.83,929.595 1021.38,929.698 1023.92,930.01 1026.47,930.528 1029.02,931.253 1031.56,932.184 1034.11,933.32 1036.65,934.658 1039.2,936.198 1041.74,937.938 
  1044.29,939.876 1046.84,942.009 1049.38,944.335 1051.93,946.851 1054.47,949.554 1057.02,952.442 1059.56,955.51 1062.11,958.755 1064.66,962.173 1067.2,965.761 
  1069.75,969.514 1072.29,973.429 1074.84,977.499 1077.38,981.722 1079.93,986.092 1082.47,990.605 1085.02,995.255 1087.57,1000.04 1090.11,1004.95 1092.66,1009.98 
  1095.2,1015.13 1097.75,1020.38 1100.29,1025.75 1102.84,1031.21 1105.39,1036.77 1107.93,1042.42 1110.48,1048.15 1113.02,1053.96 1115.57,1059.83 1118.11,1065.78 
  1120.66,1071.78 1123.21,1077.84 1125.75,1083.95 1128.3,1090.1 1130.84,1096.29 1133.39,1102.51 1135.93,1108.75 1138.48,1115.02 1141.02,1121.3 1143.57,1127.59 
  1146.12,1133.89 1148.66,1140.19 1151.21,1146.48 1153.75,1152.76 1156.3,1159.03 1158.84,1165.28 1161.39,1171.5 1163.94,1177.7 1166.48,1183.86 1169.03,1189.99 
  1171.57,1196.08 1174.12,1202.12 1176.66,1208.11 1179.21,1214.05 1181.76,1219.94 1184.3,1225.77 1186.85,1231.53 1189.39,1237.23 1191.94,1242.87 1194.48,1248.43 
  1197.03,1253.92 1199.57,1259.34 1202.12,1264.68 1204.67,1269.94 1207.21,1275.12 1209.76,1280.21 1212.3,1285.22 1214.85,1290.15 1217.39,1294.98 1219.94,1299.73 
  1222.49,1304.39 1225.03,1308.96 1227.58,1313.44 1230.12,1317.82 1232.67,1322.11 1235.21,1326.31 1237.76,1330.42 1240.31,1334.43 1242.85,1338.35 1245.4,1342.18 
  1247.94,1345.91 1250.49,1349.55 1253.03,1353.1 1255.58,1356.55 1258.12,1359.92 1260.67,1363.19 1263.22,1366.37 1265.76,1369.46 1268.31,1372.46 1270.85,1375.38 
  1273.4,1378.2 1275.94,1380.94 1278.49,1383.6 1281.04,1386.17 1283.58,1388.65 1286.13,1391.06 1288.67,1393.38 1291.22,1395.63 1293.76,1397.79 1296.31,1399.88 
  1298.86,1401.89 1301.4,1403.83 1303.95,1405.69 1306.49,1407.48 1309.04,1409.2 1311.58,1410.85 1314.13,1412.43 1316.67,1413.94 1319.22,1415.38 1321.77,1416.76 
  1324.31,1418.08 1326.86,1419.33 1329.4,1420.52 1331.95,1421.65 1334.49,1422.72 1337.04,1423.74 1339.59,1424.69 1342.13,1425.58 1344.68,1426.42 1347.22,1427.21 
  1349.77,1427.93 1352.31,1428.61 1354.86,1429.23 1357.41,1429.8 1359.95,1430.31 1362.5,1430.77 1365.04,1431.18 1367.59,1431.54 1370.13,1431.85 1372.68,1432.11 
  1375.22,1432.31 1377.77,1432.47 1380.32,1432.57 1382.86,1432.62 1385.41,1432.62 1387.95,1432.57 1390.5,1432.47 1393.04,1432.31 1395.59,1432.1 1398.14,1431.83 
  1400.68,1431.52 1403.23,1431.14 1405.77,1430.71 1408.32,1430.22 1410.86,1429.68 1413.41,1429.07 1415.96,1428.41 1418.5,1427.68 1421.05,1426.89 1423.59,1426.03 
  1426.14,1425.11 1428.68,1424.12 1431.23,1423.06 1433.77,1421.93 1436.32,1420.73 1438.87,1419.45 1441.41,1418.1 1443.96,1416.66 1446.5,1415.15 1449.05,1413.55 
  1451.59,1411.86 1454.14,1410.09 1456.69,1408.22 1459.23,1406.26 1461.78,1404.21 1464.32,1402.06 1466.87,1399.81 1469.41,1397.45 1471.96,1394.99 1474.51,1392.41 
  1477.05,1389.73 1479.6,1386.93 1482.14,1384.02 1484.69,1380.98 1487.23,1377.82 1489.78,1374.53 1492.32,1371.12 1494.87,1367.57 1497.42,1363.88 1499.96,1360.06 
  1502.51,1356.1 1505.05,1351.99 1507.6,1347.74 1510.14,1343.34 1512.69,1338.78 1515.24,1334.07 1517.78,1329.2 1520.33,1324.18 1522.87,1318.99 1525.42,1313.63 
  1527.96,1308.11 1530.51,1302.41 1533.06,1296.55 1535.6,1290.51 1538.15,1284.3 1540.69,1277.91 1543.24,1271.33 1545.78,1264.58 1548.33,1257.65 1550.87,1250.53 
  1553.42,1243.24 1555.97,1235.75 1558.51,1228.08 1561.06,1220.23 1563.6,1212.19 1566.15,1203.96 1568.69,1195.55 1571.24,1186.95 1573.79,1178.17 1576.33,1169.21 
  1578.88,1160.06 1581.42,1150.73 1583.97,1141.23 1586.51,1131.55 1589.06,1121.69 1591.61,1111.66 1594.15,1101.47 1596.7,1091.11 1599.24,1080.58 1601.79,1069.9 
  1604.33,1059.06 1606.88,1048.08 1609.42,1036.95 1611.97,1025.68 1614.52,1014.27 1617.06,1002.74 1619.61,991.08 1622.15,979.305 1624.7,967.42 1627.24,955.432 
  1629.79,943.347 1632.34,931.173 1634.88,918.917 1637.43,906.589 1639.97,894.195 1642.52,881.745 1645.06,869.248 1647.61,856.712 1650.16,844.146 1652.7,831.561 
  1655.25,818.966 1657.79,806.371 1660.34,793.786 1662.88,781.221 1665.43,768.688 1667.98,756.196 1670.52,743.757 1673.07,731.382 1675.61,719.081 1678.16,706.867 
  1680.7,694.749 1683.25,682.74 1685.79,670.851 1688.34,659.094 1690.89,647.48 1693.43,636.019 1695.98,624.725 1698.52,613.608 1701.07,602.679 1703.61,591.95 
  1706.16,581.433 1708.71,571.137 1711.25,561.074 1713.8,551.255 1716.34,541.69 1718.89,532.39 1721.43,523.365 1723.98,514.625 1726.53,506.179 1729.07,498.037 
  1731.62,490.209 1734.16,482.703 1736.71,475.527 1739.25,468.69 1741.8,462.2 1744.34,456.063 1746.89,450.289 1749.44,444.882 1751.98,439.85 1754.53,435.198 
  1757.07,430.932 1759.62,427.056 1762.16,423.577 1764.71,420.496 1767.26,417.819 1769.8,415.548 1772.35,413.687 1774.89,412.237 1777.44,411.2 1779.98,410.577 
  1782.53,410.369 1785.08,410.577 1787.62,411.2 1790.17,412.237 1792.71,413.687 1795.26,415.548 1797.8,417.819 1800.35,420.496 1802.89,423.577 1805.44,427.056 
  1807.99,430.932 1810.53,435.198 1813.08,439.85 1815.62,444.882 1818.17,450.289 1820.71,456.064 1823.26,462.2 1825.81,468.69 1828.35,475.527 1830.9,482.703 
  1833.44,490.209 1835.99,498.037 1838.53,506.179 1841.08,514.625 1843.63,523.365 1846.17,532.39 1848.72,541.69 1851.26,551.255 1853.81,561.074 1856.35,571.137 
  1858.9,581.433 1861.44,591.951 1863.99,602.68 1866.54,613.608 1869.08,624.725 1871.63,636.02 1874.17,647.48 1876.72,659.095 1879.26,670.852 1881.81,682.741 
  1884.36,694.75 1886.9,706.867 1889.45,719.082 1891.99,731.383 1894.54,743.758 1897.08,756.197 1899.63,768.689 1902.18,781.223 1904.72,793.787 1907.27,806.372 
  1909.81,818.968 1912.36,831.563 1914.9,844.148 1917.45,856.714 1919.99,869.251 1922.54,881.749 1925.09,894.199 1927.63,906.593 1930.18,918.922 1932.72,931.177 
  1935.27,943.352 1937.81,955.437 1940.36,967.426 1942.91,979.312 1945.45,991.087 1948,1002.75 1950.54,1014.28 1953.09,1025.69 1955.63,1036.96 1958.18,1048.09 
  1960.73,1059.08 1963.27,1069.92 1965.82,1080.6 1968.36,1091.12 1970.91,1101.49 1973.45,1111.68 1976,1121.71 1978.54,1131.57 1981.09,1141.26 1983.64,1150.76 
  1986.18,1160.09 1988.73,1169.24 1991.27,1178.21 1993.82,1186.99 1996.36,1195.59 1998.91,1204.01 2001.46,1212.24 2004,1220.29 2006.55,1228.15 2009.09,1235.82 
  2011.64,1243.31 2014.18,1250.62 2016.73,1257.74 2019.28,1264.68 2021.82,1271.44 2024.37,1278.02 2026.91,1284.42 2029.46,1290.65 2032,1296.7 2034.55,1302.57 
  2037.09,1308.28 2039.64,1313.82 2042.19,1319.19 2044.73,1324.4 2047.28,1329.44 2049.82,1334.33 2052.37,1339.06 2054.91,1343.64 2057.46,1348.07 2060.01,1352.34 
  2062.55,1356.48 2065.1,1360.47 2067.64,1364.33 2070.19,1368.04 2072.73,1371.63 2075.28,1375.08 2077.83,1378.41 2080.37,1381.62 2082.92,1384.7 2085.46,1387.67 
  2088.01,1390.53 2090.55,1393.27 2093.1,1395.91 2095.64,1398.44 2098.19,1400.86 2100.74,1403.19 2103.28,1405.43 2105.83,1407.57 2108.37,1409.62 2110.92,1411.58 
  2113.46,1413.46 2116.01,1415.26 2118.56,1416.98 2121.1,1418.62 2123.65,1420.19 2126.19,1421.69 2128.74,1423.13 2131.28,1424.49 2133.83,1425.79 2136.38,1427.03 
  2138.92,1428.22 2141.47,1429.34 2144.01,1430.41 2146.56,1431.43 2149.1,1432.4 2151.65,1433.33 2154.19,1434.2 2156.74,1435.03 2159.29,1435.82 2161.83,1436.57 
  2164.38,1437.28 2166.92,1437.96 2169.47,1438.6 2172.01,1439.2 2174.56,1439.77 2177.11,1440.32 2179.65,1440.83 2182.2,1441.31 2184.74,1441.77 2187.29,1442.21 
  2189.83,1442.61 2192.38,1443 2194.93,1443.36 2197.47,1443.71 2200.02,1444.03 2202.56,1444.34 2205.11,1444.62 2207.65,1444.89 2210.2,1445.15 2212.74,1445.39 
  2215.29,1445.61 2217.84,1445.82 2220.38,1446.02 2222.93,1446.21 2225.47,1446.38 2228.02,1446.55 2230.56,1446.7 2233.11,1446.85 2235.66,1446.98 2238.2,1447.11 
  2240.75,1447.23 2243.29,1447.34 2245.84,1447.44 2248.38,1447.54 2250.93,1447.63 2253.48,1447.71 2256.02,1447.79 2258.57,1447.87 2261.11,1447.94 2263.66,1448 
  2266.2,1448.06 2268.75,1448.12 2271.29,1448.17 2273.84,1448.22 2276.39,1448.26 2278.93,1448.3 2281.48,1448.34 2284.02,1448.38 2286.57,1448.41 2289.11,1448.44 
  2291.66,1448.47 
  "/>
<path clip-path="url(#clip0900)" d="
M1928.41 386.635 L2280.76 386.635 L2280.76 205.195 L1928.41 205.195  Z
  " fill="#ffffff" fill-rule="evenodd" fill-opacity="1"/>
<polyline clip-path="url(#clip0900)" style="stroke:#000000; stroke-width:4; stroke-opacity:1; fill:none" points="
  1928.41,386.635 2280.76,386.635 2280.76,205.195 1928.41,205.195 1928.41,386.635 
  "/>
<polyline clip-path="url(#clip0900)" style="stroke:#009af9; stroke-width:4; stroke-opacity:1; fill:none" points="
  1952.41,265.675 2096.41,265.675 
  "/>
<g clip-path="url(#clip0900)">
<text style="fill:#000000; fill-opacity:1; font-family:Arial,Helvetica Neue,Helvetica,sans-serif; font-size:48px; text-anchor:start;" transform="rotate(0, 2120.41, 283.175)" x="2120.41" y="283.175">Data</text>
</g>
<polyline clip-path="url(#clip0900)" style="stroke:#e26f46; stroke-width:4; stroke-opacity:1; fill:none" points="
  1952.41,326.155 2096.41,326.155 
  "/>
<g clip-path="url(#clip0900)">
<text style="fill:#000000; fill-opacity:1; font-family:Arial,Helvetica Neue,Helvetica,sans-serif; font-size:48px; text-anchor:start;" transform="rotate(0, 2120.41, 343.655)" x="2120.41" y="343.655">Truth</text>
</g>
</svg>
