<?xml version="1.0" encoding="utf-8"?>
<svg xmlns="http://www.w3.org/2000/svg" xmlns:xlink="http://www.w3.org/1999/xlink" width="600" height="400" viewBox="0 0 2400 1600">
<defs>
  <clipPath id="clip0600">
    <rect x="0" y="0" width="2400" height="1600"/>
  </clipPath>
</defs>
<path clip-path="url(#clip0600)" d="
M0 1600 L2400 1600 L2400 0 L0 0  Z
  " fill="#ffffff" fill-rule="evenodd" fill-opacity="1"/>
<defs>
  <clipPath id="clip0601">
    <rect x="480" y="0" width="1681" height="1600"/>
  </clipPath>
</defs>
<path clip-path="url(#clip0600)" d="
M194.041 1487.47 L2352.76 1487.47 L2352.76 121.675 L194.041 121.675  Z
  " fill="#ffffff" fill-rule="evenodd" fill-opacity="1"/>
<defs>
  <clipPath id="clip0602">
    <rect x="194" y="121" width="2160" height="1367"/>
  </clipPath>
</defs>
<polyline clip-path="url(#clip0602)" style="stroke:#000000; stroke-width:2; stroke-opacity:0.1; fill:none" points="
  255.137,1487.47 255.137,121.675 
  "/>
<polyline clip-path="url(#clip0602)" style="stroke:#000000; stroke-width:2; stroke-opacity:0.1; fill:none" points="
  594.558,1487.47 594.558,121.675 
  "/>
<polyline clip-path="url(#clip0602)" style="stroke:#000000; stroke-width:2; stroke-opacity:0.1; fill:none" points="
  933.978,1487.47 933.978,121.675 
  "/>
<polyline clip-path="url(#clip0602)" style="stroke:#000000; stroke-width:2; stroke-opacity:0.1; fill:none" points="
  1273.4,1487.47 1273.4,121.675 
  "/>
<polyline clip-path="url(#clip0602)" style="stroke:#000000; stroke-width:2; stroke-opacity:0.1; fill:none" points="
  1612.82,1487.47 1612.82,121.675 
  "/>
<polyline clip-path="url(#clip0602)" style="stroke:#000000; stroke-width:2; stroke-opacity:0.1; fill:none" points="
  1952.24,1487.47 1952.24,121.675 
  "/>
<polyline clip-path="url(#clip0602)" style="stroke:#000000; stroke-width:2; stroke-opacity:0.1; fill:none" points="
  2291.66,1487.47 2291.66,121.675 
  "/>
<polyline clip-path="url(#clip0602)" style="stroke:#000000; stroke-width:2; stroke-opacity:0.1; fill:none" points="
  194.041,1448.82 2352.76,1448.82 
  "/>
<polyline clip-path="url(#clip0602)" style="stroke:#000000; stroke-width:2; stroke-opacity:0.1; fill:none" points="
  194.041,1123.44 2352.76,1123.44 
  "/>
<polyline clip-path="url(#clip0602)" style="stroke:#000000; stroke-width:2; stroke-opacity:0.1; fill:none" points="
  194.041,798.067 2352.76,798.067 
  "/>
<polyline clip-path="url(#clip0602)" style="stroke:#000000; stroke-width:2; stroke-opacity:0.1; fill:none" points="
  194.041,472.691 2352.76,472.691 
  "/>
<polyline clip-path="url(#clip0602)" style="stroke:#000000; stroke-width:2; stroke-opacity:0.1; fill:none" points="
  194.041,147.315 2352.76,147.315 
  "/>
<polyline clip-path="url(#clip0600)" style="stroke:#000000; stroke-width:4; stroke-opacity:1; fill:none" points="
  194.041,1487.47 2352.76,1487.47 
  "/>
<polyline clip-path="url(#clip0600)" style="stroke:#000000; stroke-width:4; stroke-opacity:1; fill:none" points="
  194.041,1487.47 194.041,121.675 
  "/>
<polyline clip-path="url(#clip0600)" style="stroke:#000000; stroke-width:4; stroke-opacity:1; fill:none" points="
  255.137,1487.47 255.137,1471.09 
  "/>
<polyline clip-path="url(#clip0600)" style="stroke:#000000; stroke-width:4; stroke-opacity:1; fill:none" points="
  594.558,1487.47 594.558,1471.09 
  "/>
<polyline clip-path="url(#clip0600)" style="stroke:#000000; stroke-width:4; stroke-opacity:1; fill:none" points="
  933.978,1487.47 933.978,1471.09 
  "/>
<polyline clip-path="url(#clip0600)" style="stroke:#000000; stroke-width:4; stroke-opacity:1; fill:none" points="
  1273.4,1487.47 1273.4,1471.09 
  "/>
<polyline clip-path="url(#clip0600)" style="stroke:#000000; stroke-width:4; stroke-opacity:1; fill:none" points="
  1612.82,1487.47 1612.82,1471.09 
  "/>
<polyline clip-path="url(#clip0600)" style="stroke:#000000; stroke-width:4; stroke-opacity:1; fill:none" points="
  1952.24,1487.47 1952.24,1471.09 
  "/>
<polyline clip-path="url(#clip0600)" style="stroke:#000000; stroke-width:4; stroke-opacity:1; fill:none" points="
  2291.66,1487.47 2291.66,1471.09 
  "/>
<polyline clip-path="url(#clip0600)" style="stroke:#000000; stroke-width:4; stroke-opacity:1; fill:none" points="
  194.041,1448.82 219.946,1448.82 
  "/>
<polyline clip-path="url(#clip0600)" style="stroke:#000000; stroke-width:4; stroke-opacity:1; fill:none" points="
  194.041,1123.44 219.946,1123.44 
  "/>
<polyline clip-path="url(#clip0600)" style="stroke:#000000; stroke-width:4; stroke-opacity:1; fill:none" points="
  194.041,798.067 219.946,798.067 
  "/>
<polyline clip-path="url(#clip0600)" style="stroke:#000000; stroke-width:4; stroke-opacity:1; fill:none" points="
  194.041,472.691 219.946,472.691 
  "/>
<polyline clip-path="url(#clip0600)" style="stroke:#000000; stroke-width:4; stroke-opacity:1; fill:none" points="
  194.041,147.315 219.946,147.315 
  "/>
<g clip-path="url(#clip0600)">
<text style="fill:#000000; fill-opacity:1; font-family:Arial,Helvetica Neue,Helvetica,sans-serif; font-size:48px; text-anchor:middle;" transform="rotate(0, 255.137, 1541.47)" x="255.137" y="1541.47">-2</text>
</g>
<g clip-path="url(#clip0600)">
<text style="fill:#000000; fill-opacity:1; font-family:Arial,Helvetica Neue,Helvetica,sans-serif; font-size:48px; text-anchor:middle;" transform="rotate(0, 594.558, 1541.47)" x="594.558" y="1541.47">-1</text>
</g>
<g clip-path="url(#clip0600)">
<text style="fill:#000000; fill-opacity:1; font-family:Arial,Helvetica Neue,Helvetica,sans-serif; font-size:48px; text-anchor:middle;" transform="rotate(0, 933.978, 1541.47)" x="933.978" y="1541.47">0</text>
</g>
<g clip-path="url(#clip0600)">
<text style="fill:#000000; fill-opacity:1; font-family:Arial,Helvetica Neue,Helvetica,sans-serif; font-size:48px; text-anchor:middle;" transform="rotate(0, 1273.4, 1541.47)" x="1273.4" y="1541.47">1</text>
</g>
<g clip-path="url(#clip0600)">
<text style="fill:#000000; fill-opacity:1; font-family:Arial,Helvetica Neue,Helvetica,sans-serif; font-size:48px; text-anchor:middle;" transform="rotate(0, 1612.82, 1541.47)" x="1612.82" y="1541.47">2</text>
</g>
<g clip-path="url(#clip0600)">
<text style="fill:#000000; fill-opacity:1; font-family:Arial,Helvetica Neue,Helvetica,sans-serif; font-size:48px; text-anchor:middle;" transform="rotate(0, 1952.24, 1541.47)" x="1952.24" y="1541.47">3</text>
</g>
<g clip-path="url(#clip0600)">
<text style="fill:#000000; fill-opacity:1; font-family:Arial,Helvetica Neue,Helvetica,sans-serif; font-size:48px; text-anchor:middle;" transform="rotate(0, 2291.66, 1541.47)" x="2291.66" y="1541.47">4</text>
</g>
<g clip-path="url(#clip0600)">
<text style="fill:#000000; fill-opacity:1; font-family:Arial,Helvetica Neue,Helvetica,sans-serif; font-size:48px; text-anchor:end;" transform="rotate(0, 170.041, 1466.32)" x="170.041" y="1466.32">0</text>
</g>
<g clip-path="url(#clip0600)">
<text style="fill:#000000; fill-opacity:1; font-family:Arial,Helvetica Neue,Helvetica,sans-serif; font-size:48px; text-anchor:end;" transform="rotate(0, 170.041, 1140.94)" x="170.041" y="1140.94">250</text>
</g>
<g clip-path="url(#clip0600)">
<text style="fill:#000000; fill-opacity:1; font-family:Arial,Helvetica Neue,Helvetica,sans-serif; font-size:48px; text-anchor:end;" transform="rotate(0, 170.041, 815.567)" x="170.041" y="815.567">500</text>
</g>
<g clip-path="url(#clip0600)">
<text style="fill:#000000; fill-opacity:1; font-family:Arial,Helvetica Neue,Helvetica,sans-serif; font-size:48px; text-anchor:end;" transform="rotate(0, 170.041, 490.191)" x="170.041" y="490.191">750</text>
</g>
<g clip-path="url(#clip0600)">
<text style="fill:#000000; fill-opacity:1; font-family:Arial,Helvetica Neue,Helvetica,sans-serif; font-size:48px; text-anchor:end;" transform="rotate(0, 170.041, 164.815)" x="170.041" y="164.815">1000</text>
</g>
<g clip-path="url(#clip0600)">
<text style="fill:#000000; fill-opacity:1; font-family:Arial,Helvetica Neue,Helvetica,sans-serif; font-size:84px; text-anchor:middle;" transform="rotate(0, 1273.4, 73.2)" x="1273.4" y="73.2">Data</text>
</g>
<polyline clip-path="url(#clip0602)" style="stroke:#009af9; stroke-width:4; stroke-opacity:1; fill:none" points="
  255.137,1448.82 255.137,1370.73 289.079,1370.73 289.079,1383.74 323.021,1383.74 323.021,1318.67 356.963,1318.67 356.963,1253.59 390.905,1253.59 390.905,1188.52 
  424.847,1188.52 424.847,1253.59 458.789,1253.59 458.789,863.143 492.732,863.143 492.732,1006.31 526.674,1006.31 526.674,850.128 560.616,850.128 560.616,798.067 
  594.558,798.067 628.5,798.067 628.5,941.233 662.442,941.233 662.442,967.263 696.384,967.263 696.384,1201.53 730.326,1201.53 730.326,1032.34 
  764.268,1032.34 764.268,1279.62 798.21,1279.62 798.21,1318.67 832.152,1318.67 832.152,1279.62 866.094,1279.62 866.094,1266.61 900.036,1266.61 900.036,1357.71 
  933.978,1357.71 933.978,1409.77 967.92,1409.77 967.92,1396.76 1001.86,1396.76 1001.86,1435.8 1035.8,1435.8 1035.8,1422.79 1069.75,1422.79 1069.75,1409.77 
  1103.69,1409.77 1103.69,1435.8 1137.63,1435.8 1137.63,1396.76 1171.57,1396.76 1171.57,1383.74 1205.51,1383.74 1205.51,1357.71 1239.46,1357.71 
  1273.4,1357.71 1273.4,1344.7 1307.34,1344.7 1307.34,1149.47 1341.28,1149.47 1341.28,1123.44 1375.22,1123.44 1375.22,993.293 1409.17,993.293 1409.17,967.263 
  1443.11,967.263 1443.11,837.113 1477.05,837.113 1477.05,602.842 1510.99,602.842 1510.99,628.872 1544.94,628.872 1544.94,160.33 1578.88,160.33 1578.88,368.571 
  1612.82,368.571 1612.82,537.766 1646.76,537.766 1646.76,511.736 1680.7,511.736 1714.65,511.736 1714.65,420.631 1748.59,420.631 1748.59,902.188 
  1782.53,902.188 1782.53,967.263 1816.47,967.263 1816.47,980.278 1850.41,980.278 1850.41,1097.41 1884.36,1097.41 1918.3,1097.41 1918.3,1318.67 
  1952.24,1318.67 1952.24,1370.73 1986.18,1370.73 1986.18,1396.76 2020.12,1396.76 2020.12,1383.74 2054.07,1383.74 2054.07,1448.82 2088.01,1448.82 2088.01,1409.77 
  2121.95,1409.77 2121.95,1448.82 2155.89,1448.82 2189.83,1448.82 2223.78,1448.82 2257.72,1448.82 
  2291.66,1448.82 
  "/>
<path clip-path="url(#clip0600)" d="
M1939.1 326.155 L2280.76 326.155 L2280.76 205.195 L1939.1 205.195  Z
  " fill="#ffffff" fill-rule="evenodd" fill-opacity="1"/>
<polyline clip-path="url(#clip0600)" style="stroke:#000000; stroke-width:4; stroke-opacity:1; fill:none" points="
  1939.1,326.155 2280.76,326.155 2280.76,205.195 1939.1,205.195 1939.1,326.155 
  "/>
<polyline clip-path="url(#clip0600)" style="stroke:#009af9; stroke-width:4; stroke-opacity:1; fill:none" points="
  1963.1,265.675 2107.1,265.675 
  "/>
<g clip-path="url(#clip0600)">
<text style="fill:#000000; fill-opacity:1; font-family:Arial,Helvetica Neue,Helvetica,sans-serif; font-size:48px; text-anchor:start;" transform="rotate(0, 2131.1, 283.175)" x="2131.1" y="283.175">Data</text>
</g>
</svg>
