<?xml version="1.0" encoding="utf-8"?>
<svg xmlns="http://www.w3.org/2000/svg" xmlns:xlink="http://www.w3.org/1999/xlink" width="600" height="400" viewBox="0 0 2400 1600">
<defs>
  <clipPath id="clip1200">
    <rect x="0" y="0" width="2400" height="1600"/>
  </clipPath>
</defs>
<path clip-path="url(#clip1200)" d="
M0 1600 L2400 1600 L2400 0 L0 0  Z
  " fill="#ffffff" fill-rule="evenodd" fill-opacity="1"/>
<defs>
  <clipPath id="clip1201">
    <rect x="480" y="0" width="1681" height="1600"/>
  </clipPath>
</defs>
<path clip-path="url(#clip1200)" d="
M202.373 1425.62 L2352.76 1425.62 L2352.76 121.675 L202.373 121.675  Z
  " fill="#ffffff" fill-rule="evenodd" fill-opacity="1"/>
<defs>
  <clipPath id="clip1202">
    <rect x="202" y="121" width="2151" height="1305"/>
  </clipPath>
</defs>
<polyline clip-path="url(#clip1202)" style="stroke:#000000; stroke-width:2; stroke-opacity:0.1; fill:none" points="
  636.934,1425.62 636.934,121.675 
  "/>
<polyline clip-path="url(#clip1202)" style="stroke:#000000; stroke-width:2; stroke-opacity:0.1; fill:none" points="
  1170.79,1425.62 1170.79,121.675 
  "/>
<polyline clip-path="url(#clip1202)" style="stroke:#000000; stroke-width:2; stroke-opacity:0.1; fill:none" points="
  1704.65,1425.62 1704.65,121.675 
  "/>
<polyline clip-path="url(#clip1202)" style="stroke:#000000; stroke-width:2; stroke-opacity:0.1; fill:none" points="
  2238.51,1425.62 2238.51,121.675 
  "/>
<polyline clip-path="url(#clip1202)" style="stroke:#000000; stroke-width:2; stroke-opacity:0.1; fill:none" points="
  202.373,1388.71 2352.76,1388.71 
  "/>
<polyline clip-path="url(#clip1202)" style="stroke:#000000; stroke-width:2; stroke-opacity:0.1; fill:none" points="
  202.373,1022.6 2352.76,1022.6 
  "/>
<polyline clip-path="url(#clip1202)" style="stroke:#000000; stroke-width:2; stroke-opacity:0.1; fill:none" points="
  202.373,656.478 2352.76,656.478 
  "/>
<polyline clip-path="url(#clip1202)" style="stroke:#000000; stroke-width:2; stroke-opacity:0.1; fill:none" points="
  202.373,290.359 2352.76,290.359 
  "/>
<polyline clip-path="url(#clip1200)" style="stroke:#000000; stroke-width:4; stroke-opacity:1; fill:none" points="
  202.373,1425.62 2352.76,1425.62 
  "/>
<polyline clip-path="url(#clip1200)" style="stroke:#000000; stroke-width:4; stroke-opacity:1; fill:none" points="
  202.373,1425.62 202.373,121.675 
  "/>
<polyline clip-path="url(#clip1200)" style="stroke:#000000; stroke-width:4; stroke-opacity:1; fill:none" points="
  636.934,1425.62 636.934,1409.97 
  "/>
<polyline clip-path="url(#clip1200)" style="stroke:#000000; stroke-width:4; stroke-opacity:1; fill:none" points="
  1170.79,1425.62 1170.79,1409.97 
  "/>
<polyline clip-path="url(#clip1200)" style="stroke:#000000; stroke-width:4; stroke-opacity:1; fill:none" points="
  1704.65,1425.62 1704.65,1409.97 
  "/>
<polyline clip-path="url(#clip1200)" style="stroke:#000000; stroke-width:4; stroke-opacity:1; fill:none" points="
  2238.51,1425.62 2238.51,1409.97 
  "/>
<polyline clip-path="url(#clip1200)" style="stroke:#000000; stroke-width:4; stroke-opacity:1; fill:none" points="
  202.373,1388.71 228.178,1388.71 
  "/>
<polyline clip-path="url(#clip1200)" style="stroke:#000000; stroke-width:4; stroke-opacity:1; fill:none" points="
  202.373,1022.6 228.178,1022.6 
  "/>
<polyline clip-path="url(#clip1200)" style="stroke:#000000; stroke-width:4; stroke-opacity:1; fill:none" points="
  202.373,656.478 228.178,656.478 
  "/>
<polyline clip-path="url(#clip1200)" style="stroke:#000000; stroke-width:4; stroke-opacity:1; fill:none" points="
  202.373,290.359 228.178,290.359 
  "/>
<g clip-path="url(#clip1200)">
<text style="fill:#000000; fill-opacity:1; font-family:Arial,Helvetica Neue,Helvetica,sans-serif; font-size:48px; text-anchor:middle;" transform="rotate(0, 636.934, 1479.62)" x="636.934" y="1479.62">-1.05</text>
</g>
<g clip-path="url(#clip1200)">
<text style="fill:#000000; fill-opacity:1; font-family:Arial,Helvetica Neue,Helvetica,sans-serif; font-size:48px; text-anchor:middle;" transform="rotate(0, 1170.79, 1479.62)" x="1170.79" y="1479.62">-1.00</text>
</g>
<g clip-path="url(#clip1200)">
<text style="fill:#000000; fill-opacity:1; font-family:Arial,Helvetica Neue,Helvetica,sans-serif; font-size:48px; text-anchor:middle;" transform="rotate(0, 1704.65, 1479.62)" x="1704.65" y="1479.62">-0.95</text>
</g>
<g clip-path="url(#clip1200)">
<text style="fill:#000000; fill-opacity:1; font-family:Arial,Helvetica Neue,Helvetica,sans-serif; font-size:48px; text-anchor:middle;" transform="rotate(0, 2238.51, 1479.62)" x="2238.51" y="1479.62">-0.90</text>
</g>
<g clip-path="url(#clip1200)">
<text style="fill:#000000; fill-opacity:1; font-family:Arial,Helvetica Neue,Helvetica,sans-serif; font-size:48px; text-anchor:end;" transform="rotate(0, 178.373, 1406.21)" x="178.373" y="1406.21">0</text>
</g>
<g clip-path="url(#clip1200)">
<text style="fill:#000000; fill-opacity:1; font-family:Arial,Helvetica Neue,Helvetica,sans-serif; font-size:48px; text-anchor:end;" transform="rotate(0, 178.373, 1040.1)" x="178.373" y="1040.1">5</text>
</g>
<g clip-path="url(#clip1200)">
<text style="fill:#000000; fill-opacity:1; font-family:Arial,Helvetica Neue,Helvetica,sans-serif; font-size:48px; text-anchor:end;" transform="rotate(0, 178.373, 673.978)" x="178.373" y="673.978">10</text>
</g>
<g clip-path="url(#clip1200)">
<text style="fill:#000000; fill-opacity:1; font-family:Arial,Helvetica Neue,Helvetica,sans-serif; font-size:48px; text-anchor:end;" transform="rotate(0, 178.373, 307.859)" x="178.373" y="307.859">15</text>
</g>
<g clip-path="url(#clip1200)">
<text style="fill:#000000; fill-opacity:1; font-family:Arial,Helvetica Neue,Helvetica,sans-serif; font-size:84px; text-anchor:middle;" transform="rotate(0, 1277.56, 73.2)" x="1277.56" y="73.2">Marginalized Distribution for mu_1</text>
</g>
<g clip-path="url(#clip1200)">
<text style="fill:#000000; fill-opacity:1; font-family:Arial,Helvetica Neue,Helvetica,sans-serif; font-size:66px; text-anchor:middle;" transform="rotate(0, 1277.56, 1559.48)" x="1277.56" y="1559.48">mu_1</text>
</g>
<g clip-path="url(#clip1200)">
<text style="fill:#000000; fill-opacity:1; font-family:Arial,Helvetica Neue,Helvetica,sans-serif; font-size:66px; text-anchor:middle;" transform="rotate(-90, 89.2861, 773.647)" x="89.2861" y="773.647">P(mu_1)</text>
</g>
<path clip-path="url(#clip1202)" d="
M263.233 1388.71 L316.619 1388.71 L316.619 1388.71 L370.005 1388.71 L370.005 1388.71 L423.39 1388.71 L423.39 1388.71 L476.776 1388.71 L476.776 1374.1 L530.162 1374.1 
  L530.162 1351.67 L583.548 1351.67 L583.548 1346.3 L636.934 1346.3 L636.934 1297.89 L690.32 1297.89 L690.32 1259.23 L743.706 1259.23 L743.706 1175 L797.092 1175 
  L797.092 1083.57 L850.477 1083.57 L850.477 971.737 L903.863 971.737 L903.863 838.698 L957.249 838.698 L957.249 705.355 L1010.64 705.355 L1010.64 550.904 L1064.02 550.904 
  L1064.02 434.711 L1117.41 434.711 L1117.41 269.198 L1170.79 269.198 L1170.79 207.905 L1224.18 207.905 L1224.18 194.408 L1277.56 194.408 L1277.56 243.321 L1330.95 243.321 
  L1330.95 246.264 L1384.34 246.264 L1384.34 395.235 L1437.72 395.235 L1437.72 505.847 L1491.11 505.847 L1491.11 668.518 L1544.49 668.518 L1544.49 776.492 L1597.88 776.492 
  L1597.88 896.44 L1651.27 896.44 L1651.27 1061.24 L1704.65 1061.24 L1704.65 1173.17 L1758.04 1173.17 L1758.04 1251.82 L1811.42 1251.82 L1811.42 1307.63 L1864.81 1307.63 
  L1864.81 1341.73 L1918.19 1341.73 L1918.19 1362.13 L1971.58 1362.13 L1971.58 1369.74 L2024.97 1369.74 L2024.97 1388.71 L2078.35 1388.71 L2078.35 1388.71 L2131.74 1388.71 
  L2131.74 1388.71 L2185.12 1388.71 L2185.12 1388.71 L2238.51 1388.71 L2238.51 1388.71 L2291.9 1388.71 L2291.9 1388.71 L2291.9 1388.71 L2291.9 1388.71 L2238.51 1388.71 
  L2238.51 1388.71 L2185.12 1388.71 L2185.12 1388.71 L2131.74 1388.71 L2131.74 1388.71 L2078.35 1388.71 L2078.35 1388.71 L2024.97 1388.71 L2024.97 1388.71 L1971.58 1388.71 
  L1971.58 1388.71 L1918.19 1388.71 L1918.19 1388.71 L1864.81 1388.71 L1864.81 1388.71 L1811.42 1388.71 L1811.42 1388.71 L1758.04 1388.71 L1758.04 1388.71 L1704.65 1388.71 
  L1704.65 1388.71 L1651.27 1388.71 L1651.27 1388.71 L1597.88 1388.71 L1597.88 1388.71 L1544.49 1388.71 L1544.49 1388.71 L1491.11 1388.71 L1491.11 1388.71 L1437.72 1388.71 
  L1437.72 1388.71 L1384.34 1388.71 L1384.34 1388.71 L1330.95 1388.71 L1330.95 1388.71 L1277.56 1388.71 L1277.56 1388.71 L1224.18 1388.71 L1224.18 1388.71 L1170.79 1388.71 
  L1170.79 1388.71 L1117.41 1388.71 L1117.41 1388.71 L1064.02 1388.71 L1064.02 1388.71 L1010.64 1388.71 L1010.64 1388.71 L957.249 1388.71 L957.249 1388.71 L903.863 1388.71 
  L903.863 1388.71 L850.477 1388.71 L850.477 1388.71 L797.092 1388.71 L797.092 1388.71 L743.706 1388.71 L743.706 1388.71 L690.32 1388.71 L690.32 1388.71 L636.934 1388.71 
  L636.934 1388.71 L583.548 1388.71 L583.548 1388.71 L530.162 1388.71 L530.162 1388.71 L476.776 1388.71 L476.776 1388.71 L423.39 1388.71 L423.39 1388.71 L370.005 1388.71 
  L370.005 1388.71 L316.619 1388.71 L316.619 1388.71 L263.233 1388.71  Z
  " fill="#ff0000" fill-rule="evenodd" fill-opacity="1"/>
<polyline clip-path="url(#clip1202)" style="stroke:#009af9; stroke-width:0; stroke-opacity:1; fill:none" points="
  263.233,1388.71 316.619,1388.71 370.005,1388.71 423.39,1388.71 476.776,1388.71 476.776,1374.1 530.162,1374.1 
  530.162,1351.67 583.548,1351.67 583.548,1346.3 636.934,1346.3 636.934,1297.89 690.32,1297.89 690.32,1259.23 743.706,1259.23 743.706,1175 797.092,1175 
  797.092,1083.57 850.477,1083.57 850.477,971.737 903.863,971.737 903.863,838.698 957.249,838.698 957.249,705.355 1010.64,705.355 1010.64,550.904 1064.02,550.904 
  1064.02,434.711 1117.41,434.711 1117.41,269.198 1170.79,269.198 1170.79,207.905 1224.18,207.905 1224.18,194.408 1277.56,194.408 1277.56,243.321 1330.95,243.321 
  1330.95,246.264 1384.34,246.264 1384.34,395.235 1437.72,395.235 1437.72,505.847 1491.11,505.847 1491.11,668.518 1544.49,668.518 1544.49,776.492 1597.88,776.492 
  1597.88,896.44 1651.27,896.44 1651.27,1061.24 1704.65,1061.24 1704.65,1173.17 1758.04,1173.17 1758.04,1251.82 1811.42,1251.82 1811.42,1307.63 1864.81,1307.63 
  1864.81,1341.73 1918.19,1341.73 1918.19,1362.13 1971.58,1362.13 1971.58,1369.74 2024.97,1369.74 2024.97,1388.71 2078.35,1388.71 2131.74,1388.71 
  2185.12,1388.71 2238.51,1388.71 2291.9,1388.71 
  "/>
<path clip-path="url(#clip1202)" d="
M263.233 1388.71 L316.619 1388.71 L316.619 1388.71 L370.005 1388.71 L370.005 1388.71 L423.39 1388.71 L423.39 1388.71 L476.776 1388.71 L476.776 1388.71 L530.162 1388.71 
  L530.162 1388.71 L583.548 1388.71 L583.548 1388.71 L636.934 1388.71 L636.934 1388.71 L690.32 1388.71 L690.32 1388.71 L743.706 1388.71 L743.706 1175 L797.092 1175 
  L797.092 1083.57 L850.477 1083.57 L850.477 971.737 L903.863 971.737 L903.863 838.698 L957.249 838.698 L957.249 705.355 L1010.64 705.355 L1010.64 550.904 L1064.02 550.904 
  L1064.02 434.711 L1117.41 434.711 L1117.41 269.198 L1170.79 269.198 L1170.79 207.905 L1224.18 207.905 L1224.18 194.408 L1277.56 194.408 L1277.56 243.321 L1330.95 243.321 
  L1330.95 246.264 L1384.34 246.264 L1384.34 395.235 L1437.72 395.235 L1437.72 505.847 L1491.11 505.847 L1491.11 668.518 L1544.49 668.518 L1544.49 776.492 L1597.88 776.492 
  L1597.88 896.44 L1651.27 896.44 L1651.27 1061.24 L1704.65 1061.24 L1704.65 1173.17 L1758.04 1173.17 L1758.04 1388.71 L1811.42 1388.71 L1811.42 1388.71 L1864.81 1388.71 
  L1864.81 1388.71 L1918.19 1388.71 L1918.19 1388.71 L1971.58 1388.71 L1971.58 1388.71 L2024.97 1388.71 L2024.97 1388.71 L2078.35 1388.71 L2078.35 1388.71 L2131.74 1388.71 
  L2131.74 1388.71 L2185.12 1388.71 L2185.12 1388.71 L2238.51 1388.71 L2238.51 1388.71 L2291.9 1388.71 L2291.9 1388.71 L2291.9 1388.71 L2291.9 1388.71 L2238.51 1388.71 
  L2238.51 1388.71 L2185.12 1388.71 L2185.12 1388.71 L2131.74 1388.71 L2131.74 1388.71 L2078.35 1388.71 L2078.35 1388.71 L2024.97 1388.71 L2024.97 1388.71 L1971.58 1388.71 
  L1971.58 1388.71 L1918.19 1388.71 L1918.19 1388.71 L1864.81 1388.71 L1864.81 1388.71 L1811.42 1388.71 L1811.42 1388.71 L1758.04 1388.71 L1758.04 1388.71 L1704.65 1388.71 
  L1704.65 1388.71 L1651.27 1388.71 L1651.27 1388.71 L1597.88 1388.71 L1597.88 1388.71 L1544.49 1388.71 L1544.49 1388.71 L1491.11 1388.71 L1491.11 1388.71 L1437.72 1388.71 
  L1437.72 1388.71 L1384.34 1388.71 L1384.34 1388.71 L1330.95 1388.71 L1330.95 1388.71 L1277.56 1388.71 L1277.56 1388.71 L1224.18 1388.71 L1224.18 1388.71 L1170.79 1388.71 
  L1170.79 1388.71 L1117.41 1388.71 L1117.41 1388.71 L1064.02 1388.71 L1064.02 1388.71 L1010.64 1388.71 L1010.64 1388.71 L957.249 1388.71 L957.249 1388.71 L903.863 1388.71 
  L903.863 1388.71 L850.477 1388.71 L850.477 1388.71 L797.092 1388.71 L797.092 1388.71 L743.706 1388.71 L743.706 1388.71 L690.32 1388.71 L690.32 1388.71 L636.934 1388.71 
  L636.934 1388.71 L583.548 1388.71 L583.548 1388.71 L530.162 1388.71 L530.162 1388.71 L476.776 1388.71 L476.776 1388.71 L423.39 1388.71 L423.39 1388.71 L370.005 1388.71 
  L370.005 1388.71 L316.619 1388.71 L316.619 1388.71 L263.233 1388.71  Z
  " fill="#ffff00" fill-rule="evenodd" fill-opacity="1"/>
<polyline clip-path="url(#clip1202)" style="stroke:#e26f46; stroke-width:0; stroke-opacity:1; fill:none" points="
  263.233,1388.71 316.619,1388.71 370.005,1388.71 423.39,1388.71 476.776,1388.71 530.162,1388.71 
  583.548,1388.71 636.934,1388.71 690.32,1388.71 743.706,1388.71 743.706,1175 797.092,1175 
  797.092,1083.57 850.477,1083.57 850.477,971.737 903.863,971.737 903.863,838.698 957.249,838.698 957.249,705.355 1010.64,705.355 1010.64,550.904 1064.02,550.904 
  1064.02,434.711 1117.41,434.711 1117.41,269.198 1170.79,269.198 1170.79,207.905 1224.18,207.905 1224.18,194.408 1277.56,194.408 1277.56,243.321 1330.95,243.321 
  1330.95,246.264 1384.34,246.264 1384.34,395.235 1437.72,395.235 1437.72,505.847 1491.11,505.847 1491.11,668.518 1544.49,668.518 1544.49,776.492 1597.88,776.492 
  1597.88,896.44 1651.27,896.44 1651.27,1061.24 1704.65,1061.24 1704.65,1173.17 1758.04,1173.17 1758.04,1388.71 1811.42,1388.71 1864.81,1388.71 
  1918.19,1388.71 1971.58,1388.71 2024.97,1388.71 2078.35,1388.71 2131.74,1388.71 
  2185.12,1388.71 2238.51,1388.71 2291.9,1388.71 
  "/>
<path clip-path="url(#clip1202)" d="
M263.233 1388.71 L316.619 1388.71 L316.619 1388.71 L370.005 1388.71 L370.005 1388.71 L423.39 1388.71 L423.39 1388.71 L476.776 1388.71 L476.776 1388.71 L530.162 1388.71 
  L530.162 1388.71 L583.548 1388.71 L583.548 1388.71 L636.934 1388.71 L636.934 1388.71 L690.32 1388.71 L690.32 1388.71 L743.706 1388.71 L743.706 1388.71 L797.092 1388.71 
  L797.092 1388.71 L850.477 1388.71 L850.477 1388.71 L903.863 1388.71 L903.863 1388.71 L957.249 1388.71 L957.249 1388.71 L1010.64 1388.71 L1010.64 550.904 L1064.02 550.904 
  L1064.02 434.711 L1117.41 434.711 L1117.41 269.198 L1170.79 269.198 L1170.79 207.905 L1224.18 207.905 L1224.18 194.408 L1277.56 194.408 L1277.56 243.321 L1330.95 243.321 
  L1330.95 246.264 L1384.34 246.264 L1384.34 395.235 L1437.72 395.235 L1437.72 505.847 L1491.11 505.847 L1491.11 668.518 L1544.49 668.518 L1544.49 1388.71 L1597.88 1388.71 
  L1597.88 1388.71 L1651.27 1388.71 L1651.27 1388.71 L1704.65 1388.71 L1704.65 1388.71 L1758.04 1388.71 L1758.04 1388.71 L1811.42 1388.71 L1811.42 1388.71 L1864.81 1388.71 
  L1864.81 1388.71 L1918.19 1388.71 L1918.19 1388.71 L1971.58 1388.71 L1971.58 1388.71 L2024.97 1388.71 L2024.97 1388.71 L2078.35 1388.71 L2078.35 1388.71 L2131.74 1388.71 
  L2131.74 1388.71 L2185.12 1388.71 L2185.12 1388.71 L2238.51 1388.71 L2238.51 1388.71 L2291.9 1388.71 L2291.9 1388.71 L2291.9 1388.71 L2291.9 1388.71 L2238.51 1388.71 
  L2238.51 1388.71 L2185.12 1388.71 L2185.12 1388.71 L2131.74 1388.71 L2131.74 1388.71 L2078.35 1388.71 L2078.35 1388.71 L2024.97 1388.71 L2024.97 1388.71 L1971.58 1388.71 
  L1971.58 1388.71 L1918.19 1388.71 L1918.19 1388.71 L1864.81 1388.71 L1864.81 1388.71 L1811.42 1388.71 L1811.42 1388.71 L1758.04 1388.71 L1758.04 1388.71 L1704.65 1388.71 
  L1704.65 1388.71 L1651.27 1388.71 L1651.27 1388.71 L1597.88 1388.71 L1597.88 1388.71 L1544.49 1388.71 L1544.49 1388.71 L1491.11 1388.71 L1491.11 1388.71 L1437.72 1388.71 
  L1437.72 1388.71 L1384.34 1388.71 L1384.34 1388.71 L1330.95 1388.71 L1330.95 1388.71 L1277.56 1388.71 L1277.56 1388.71 L1224.18 1388.71 L1224.18 1388.71 L1170.79 1388.71 
  L1170.79 1388.71 L1117.41 1388.71 L1117.41 1388.71 L1064.02 1388.71 L1064.02 1388.71 L1010.64 1388.71 L1010.64 1388.71 L957.249 1388.71 L957.249 1388.71 L903.863 1388.71 
  L903.863 1388.71 L850.477 1388.71 L850.477 1388.71 L797.092 1388.71 L797.092 1388.71 L743.706 1388.71 L743.706 1388.71 L690.32 1388.71 L690.32 1388.71 L636.934 1388.71 
  L636.934 1388.71 L583.548 1388.71 L583.548 1388.71 L530.162 1388.71 L530.162 1388.71 L476.776 1388.71 L476.776 1388.71 L423.39 1388.71 L423.39 1388.71 L370.005 1388.71 
  L370.005 1388.71 L316.619 1388.71 L316.619 1388.71 L263.233 1388.71  Z
  " fill="#76ee00" fill-rule="evenodd" fill-opacity="1"/>
<polyline clip-path="url(#clip1202)" style="stroke:#3da44d; stroke-width:0; stroke-opacity:1; fill:none" points="
  263.233,1388.71 316.619,1388.71 370.005,1388.71 423.39,1388.71 476.776,1388.71 530.162,1388.71 
  583.548,1388.71 636.934,1388.71 690.32,1388.71 743.706,1388.71 797.092,1388.71 
  850.477,1388.71 903.863,1388.71 957.249,1388.71 1010.64,1388.71 1010.64,550.904 1064.02,550.904 
  1064.02,434.711 1117.41,434.711 1117.41,269.198 1170.79,269.198 1170.79,207.905 1224.18,207.905 1224.18,194.408 1277.56,194.408 1277.56,243.321 1330.95,243.321 
  1330.95,246.264 1384.34,246.264 1384.34,395.235 1437.72,395.235 1437.72,505.847 1491.11,505.847 1491.11,668.518 1544.49,668.518 1544.49,1388.71 1597.88,1388.71 
  1651.27,1388.71 1704.65,1388.71 1758.04,1388.71 1811.42,1388.71 1864.81,1388.71 
  1918.19,1388.71 1971.58,1388.71 2024.97,1388.71 2078.35,1388.71 2131.74,1388.71 
  2185.12,1388.71 2238.51,1388.71 2291.9,1388.71 
  "/>
<polyline clip-path="url(#clip1202)" style="stroke:#000000; stroke-width:2.8; stroke-opacity:1; fill:none" points="
  263.233,1388.21 316.619,1388.21 316.619,1385.06 370.005,1385.06 370.005,1383.13 423.39,1383.13 423.39,1379.07 476.776,1379.07 476.776,1374.1 530.162,1374.1 
  530.162,1351.67 583.548,1351.67 583.548,1346.3 636.934,1346.3 636.934,1297.89 690.32,1297.89 690.32,1259.23 743.706,1259.23 743.706,1175 797.092,1175 
  797.092,1083.57 850.477,1083.57 850.477,971.737 903.863,971.737 903.863,838.698 957.249,838.698 957.249,705.355 1010.64,705.355 1010.64,550.904 1064.02,550.904 
  1064.02,434.711 1117.41,434.711 1117.41,269.198 1170.79,269.198 1170.79,207.905 1224.18,207.905 1224.18,194.408 1277.56,194.408 1277.56,243.321 1330.95,243.321 
  1330.95,246.264 1384.34,246.264 1384.34,395.235 1437.72,395.235 1437.72,505.847 1491.11,505.847 1491.11,668.518 1544.49,668.518 1544.49,776.492 1597.88,776.492 
  1597.88,896.44 1651.27,896.44 1651.27,1061.24 1704.65,1061.24 1704.65,1173.17 1758.04,1173.17 1758.04,1251.82 1811.42,1251.82 1811.42,1307.63 1864.81,1307.63 
  1864.81,1341.73 1918.19,1341.73 1918.19,1362.13 1971.58,1362.13 1971.58,1369.74 2024.97,1369.74 2024.97,1383.13 2078.35,1383.13 2078.35,1386.18 2131.74,1386.18 
  2131.74,1385.57 2185.12,1385.57 2185.12,1387.7 2238.51,1387.7 2238.51,1388.51 2291.9,1388.51 2291.9,1388.31 
  "/>
<path clip-path="url(#clip1202)" d="
M999.607 1388.71 L1512.49 1388.71 L1512.49 158.579 L999.607 158.579 L999.607 1388.71  Z
  " fill="#808080" fill-rule="evenodd" fill-opacity="0.5"/>
<polyline clip-path="url(#clip1202)" style="stroke:#000000; stroke-width:0; stroke-opacity:1; fill:none" points="
  999.607,1388.71 1512.49,1388.71 1512.49,158.579 999.607,158.579 999.607,1388.71 
  "/>
<polyline clip-path="url(#clip1202)" style="stroke:#696969; stroke-width:4; stroke-opacity:1; fill:none" points="
  1256.05,1388.71 1256.05,158.579 
  "/>
<polyline clip-path="url(#clip1202)" style="stroke:#000000; stroke-width:4; stroke-opacity:1; fill:none" stroke-dasharray="16, 10" points="
  1304.59,1388.71 1304.59,158.579 
  "/>
<polyline clip-path="url(#clip1202)" style="stroke:#000000; stroke-width:4; stroke-opacity:1; fill:none" stroke-dasharray="2, 4" points="
  1250.87,1388.71 1250.87,158.579 
  "/>
<path clip-path="url(#clip1200)" d="
M1463.01 689.035 L2280.76 689.035 L2280.76 205.195 L1463.01 205.195  Z
  " fill="#ffffff" fill-rule="evenodd" fill-opacity="1"/>
<polyline clip-path="url(#clip1200)" style="stroke:#000000; stroke-width:4; stroke-opacity:1; fill:none" points="
  1463.01,689.035 2280.76,689.035 2280.76,205.195 1463.01,205.195 1463.01,689.035 
  "/>
<path clip-path="url(#clip1200)" d="
M1487.01 289.867 L1631.01 289.867 L1631.01 241.483 L1487.01 241.483 L1487.01 289.867  Z
  " fill="#ff0000" fill-rule="evenodd" fill-opacity="1"/>
<polyline clip-path="url(#clip1200)" style="stroke:#009af9; stroke-width:0; stroke-opacity:1; fill:none" points="
  1487.01,241.483 1631.01,241.483 
  "/>
<g clip-path="url(#clip1200)">
<text style="fill:#000000; fill-opacity:1; font-family:Arial,Helvetica Neue,Helvetica,sans-serif; font-size:48px; text-anchor:start;" transform="rotate(0, 1655.01, 283.175)" x="1655.01" y="283.175">smallest 99.78% interval(s)</text>
</g>
<path clip-path="url(#clip1200)" d="
M1487.01 350.347 L1631.01 350.347 L1631.01 301.963 L1487.01 301.963 L1487.01 350.347  Z
  " fill="#ffff00" fill-rule="evenodd" fill-opacity="1"/>
<polyline clip-path="url(#clip1200)" style="stroke:#e26f46; stroke-width:0; stroke-opacity:1; fill:none" points="
  1487.01,301.963 1631.01,301.963 
  "/>
<g clip-path="url(#clip1200)">
<text style="fill:#000000; fill-opacity:1; font-family:Arial,Helvetica Neue,Helvetica,sans-serif; font-size:48px; text-anchor:start;" transform="rotate(0, 1655.01, 343.655)" x="1655.01" y="343.655">smallest 95.51% interval(s)</text>
</g>
<path clip-path="url(#clip1200)" d="
M1487.01 410.827 L1631.01 410.827 L1631.01 362.443 L1487.01 362.443 L1487.01 410.827  Z
  " fill="#76ee00" fill-rule="evenodd" fill-opacity="1"/>
<polyline clip-path="url(#clip1200)" style="stroke:#3da44d; stroke-width:0; stroke-opacity:1; fill:none" points="
  1487.01,362.443 1631.01,362.443 
  "/>
<g clip-path="url(#clip1200)">
<text style="fill:#000000; fill-opacity:1; font-family:Arial,Helvetica Neue,Helvetica,sans-serif; font-size:48px; text-anchor:start;" transform="rotate(0, 1655.01, 404.135)" x="1655.01" y="404.135">smallest 69.45% interval(s)</text>
</g>
<path clip-path="url(#clip1200)" d="
M1487.01 471.307 L1631.01 471.307 L1631.01 422.923 L1487.01 422.923 L1487.01 471.307  Z
  " fill="#808080" fill-rule="evenodd" fill-opacity="0.5"/>
<polyline clip-path="url(#clip1200)" style="stroke:#000000; stroke-width:0; stroke-opacity:1; fill:none" points="
  1487.01,471.307 1631.01,471.307 1631.01,422.923 1487.01,422.923 1487.01,471.307 
  "/>
<g clip-path="url(#clip1200)">
<text style="fill:#000000; fill-opacity:1; font-family:Arial,Helvetica Neue,Helvetica,sans-serif; font-size:48px; text-anchor:start;" transform="rotate(0, 1655.01, 464.615)" x="1655.01" y="464.615">std. dev.</text>
</g>
<polyline clip-path="url(#clip1200)" style="stroke:#696969; stroke-width:4; stroke-opacity:1; fill:none" points="
  1487.01,507.595 1631.01,507.595 
  "/>
<g clip-path="url(#clip1200)">
<text style="fill:#000000; fill-opacity:1; font-family:Arial,Helvetica Neue,Helvetica,sans-serif; font-size:48px; text-anchor:start;" transform="rotate(0, 1655.01, 525.095)" x="1655.01" y="525.095">mean</text>
</g>
<polyline clip-path="url(#clip1200)" style="stroke:#000000; stroke-width:4; stroke-opacity:1; fill:none" stroke-dasharray="16, 10" points="
  1487.01,568.075 1631.01,568.075 
  "/>
<g clip-path="url(#clip1200)">
<text style="fill:#000000; fill-opacity:1; font-family:Arial,Helvetica Neue,Helvetica,sans-serif; font-size:48px; text-anchor:start;" transform="rotate(0, 1655.01, 585.575)" x="1655.01" y="585.575">global mode</text>
</g>
<polyline clip-path="url(#clip1200)" style="stroke:#000000; stroke-width:4; stroke-opacity:1; fill:none" stroke-dasharray="2, 4" points="
  1487.01,628.555 1631.01,628.555 
  "/>
<g clip-path="url(#clip1200)">
<text style="fill:#000000; fill-opacity:1; font-family:Arial,Helvetica Neue,Helvetica,sans-serif; font-size:48px; text-anchor:start;" transform="rotate(0, 1655.01, 646.055)" x="1655.01" y="646.055">local mode</text>
</g>
</svg>
