<?xml version="1.0" encoding="utf-8"?>
<svg xmlns="http://www.w3.org/2000/svg" xmlns:xlink="http://www.w3.org/1999/xlink" width="600" height="400" viewBox="0 0 2400 1600">
<defs>
  <clipPath id="clip5900">
    <rect x="0" y="0" width="2400" height="1600"/>
  </clipPath>
</defs>
<polygon clip-path="url(#clip5900)" points="
0,1600 2400,1600 2400,0 0,0 
  " fill="#ffffff" fill-rule="evenodd" fill-opacity="1"/>
<defs>
  <clipPath id="clip5901">
    <rect x="480" y="0" width="1681" height="1600"/>
  </clipPath>
</defs>
<polygon clip-path="url(#clip5900)" points="
167.279,1487.47 2352.76,1487.47 2352.76,121.675 167.279,121.675 
  " fill="#ffffff" fill-rule="evenodd" fill-opacity="1"/>
<defs>
  <clipPath id="clip5902">
    <rect x="167" y="121" width="2186" height="1367"/>
  </clipPath>
</defs>
<polyline clip-path="url(#clip5902)" style="stroke:#000000; stroke-width:2; stroke-opacity:0.1; fill:none" points="
  229.132,1487.47 229.132,121.675 
  "/>
<polyline clip-path="url(#clip5902)" style="stroke:#000000; stroke-width:2; stroke-opacity:0.1; fill:none" points="
  744.575,1487.47 744.575,121.675 
  "/>
<polyline clip-path="url(#clip5902)" style="stroke:#000000; stroke-width:2; stroke-opacity:0.1; fill:none" points="
  1260.02,1487.47 1260.02,121.675 
  "/>
<polyline clip-path="url(#clip5902)" style="stroke:#000000; stroke-width:2; stroke-opacity:0.1; fill:none" points="
  1775.46,1487.47 1775.46,121.675 
  "/>
<polyline clip-path="url(#clip5902)" style="stroke:#000000; stroke-width:2; stroke-opacity:0.1; fill:none" points="
  2290.9,1487.47 2290.9,121.675 
  "/>
<polyline clip-path="url(#clip5902)" style="stroke:#000000; stroke-width:2; stroke-opacity:0.1; fill:none" points="
  167.279,1448.82 2352.76,1448.82 
  "/>
<polyline clip-path="url(#clip5902)" style="stroke:#000000; stroke-width:2; stroke-opacity:0.1; fill:none" points="
  167.279,1174.67 2352.76,1174.67 
  "/>
<polyline clip-path="url(#clip5902)" style="stroke:#000000; stroke-width:2; stroke-opacity:0.1; fill:none" points="
  167.279,900.526 2352.76,900.526 
  "/>
<polyline clip-path="url(#clip5902)" style="stroke:#000000; stroke-width:2; stroke-opacity:0.1; fill:none" points="
  167.279,626.379 2352.76,626.379 
  "/>
<polyline clip-path="url(#clip5902)" style="stroke:#000000; stroke-width:2; stroke-opacity:0.1; fill:none" points="
  167.279,352.233 2352.76,352.233 
  "/>
<polyline clip-path="url(#clip5900)" style="stroke:#000000; stroke-width:4; stroke-opacity:1; fill:none" points="
  167.279,1487.47 2352.76,1487.47 
  "/>
<polyline clip-path="url(#clip5900)" style="stroke:#000000; stroke-width:4; stroke-opacity:1; fill:none" points="
  167.279,1487.47 167.279,121.675 
  "/>
<polyline clip-path="url(#clip5900)" style="stroke:#000000; stroke-width:4; stroke-opacity:1; fill:none" points="
  229.132,1487.47 229.132,1466.99 
  "/>
<polyline clip-path="url(#clip5900)" style="stroke:#000000; stroke-width:4; stroke-opacity:1; fill:none" points="
  744.575,1487.47 744.575,1466.99 
  "/>
<polyline clip-path="url(#clip5900)" style="stroke:#000000; stroke-width:4; stroke-opacity:1; fill:none" points="
  1260.02,1487.47 1260.02,1466.99 
  "/>
<polyline clip-path="url(#clip5900)" style="stroke:#000000; stroke-width:4; stroke-opacity:1; fill:none" points="
  1775.46,1487.47 1775.46,1466.99 
  "/>
<polyline clip-path="url(#clip5900)" style="stroke:#000000; stroke-width:4; stroke-opacity:1; fill:none" points="
  2290.9,1487.47 2290.9,1466.99 
  "/>
<polyline clip-path="url(#clip5900)" style="stroke:#000000; stroke-width:4; stroke-opacity:1; fill:none" points="
  167.279,1448.82 200.061,1448.82 
  "/>
<polyline clip-path="url(#clip5900)" style="stroke:#000000; stroke-width:4; stroke-opacity:1; fill:none" points="
  167.279,1174.67 200.061,1174.67 
  "/>
<polyline clip-path="url(#clip5900)" style="stroke:#000000; stroke-width:4; stroke-opacity:1; fill:none" points="
  167.279,900.526 200.061,900.526 
  "/>
<polyline clip-path="url(#clip5900)" style="stroke:#000000; stroke-width:4; stroke-opacity:1; fill:none" points="
  167.279,626.379 200.061,626.379 
  "/>
<polyline clip-path="url(#clip5900)" style="stroke:#000000; stroke-width:4; stroke-opacity:1; fill:none" points="
  167.279,352.233 200.061,352.233 
  "/>
<g clip-path="url(#clip5900)">
<text style="fill:#000000; fill-opacity:1; font-family:Arial,Helvetica Neue,Helvetica,sans-serif; font-size:48px; text-anchor:middle;" transform="rotate(0, 229.132, 1541.47)" x="229.132" y="1541.47">-4</text>
</g>
<g clip-path="url(#clip5900)">
<text style="fill:#000000; fill-opacity:1; font-family:Arial,Helvetica Neue,Helvetica,sans-serif; font-size:48px; text-anchor:middle;" transform="rotate(0, 744.575, 1541.47)" x="744.575" y="1541.47">-2</text>
</g>
<g clip-path="url(#clip5900)">
<text style="fill:#000000; fill-opacity:1; font-family:Arial,Helvetica Neue,Helvetica,sans-serif; font-size:48px; text-anchor:middle;" transform="rotate(0, 1260.02, 1541.47)" x="1260.02" y="1541.47">0</text>
</g>
<g clip-path="url(#clip5900)">
<text style="fill:#000000; fill-opacity:1; font-family:Arial,Helvetica Neue,Helvetica,sans-serif; font-size:48px; text-anchor:middle;" transform="rotate(0, 1775.46, 1541.47)" x="1775.46" y="1541.47">2</text>
</g>
<g clip-path="url(#clip5900)">
<text style="fill:#000000; fill-opacity:1; font-family:Arial,Helvetica Neue,Helvetica,sans-serif; font-size:48px; text-anchor:middle;" transform="rotate(0, 2290.9, 1541.47)" x="2290.9" y="1541.47">4</text>
</g>
<g clip-path="url(#clip5900)">
<text style="fill:#000000; fill-opacity:1; font-family:Arial,Helvetica Neue,Helvetica,sans-serif; font-size:48px; text-anchor:end;" transform="rotate(0, 143.279, 1466.32)" x="143.279" y="1466.32">0</text>
</g>
<g clip-path="url(#clip5900)">
<text style="fill:#000000; fill-opacity:1; font-family:Arial,Helvetica Neue,Helvetica,sans-serif; font-size:48px; text-anchor:end;" transform="rotate(0, 143.279, 1192.17)" x="143.279" y="1192.17">200</text>
</g>
<g clip-path="url(#clip5900)">
<text style="fill:#000000; fill-opacity:1; font-family:Arial,Helvetica Neue,Helvetica,sans-serif; font-size:48px; text-anchor:end;" transform="rotate(0, 143.279, 918.026)" x="143.279" y="918.026">400</text>
</g>
<g clip-path="url(#clip5900)">
<text style="fill:#000000; fill-opacity:1; font-family:Arial,Helvetica Neue,Helvetica,sans-serif; font-size:48px; text-anchor:end;" transform="rotate(0, 143.279, 643.879)" x="143.279" y="643.879">600</text>
</g>
<g clip-path="url(#clip5900)">
<text style="fill:#000000; fill-opacity:1; font-family:Arial,Helvetica Neue,Helvetica,sans-serif; font-size:48px; text-anchor:end;" transform="rotate(0, 143.279, 369.733)" x="143.279" y="369.733">800</text>
</g>
<g clip-path="url(#clip5900)">
<text style="fill:#000000; fill-opacity:1; font-family:Arial,Helvetica Neue,Helvetica,sans-serif; font-size:84px; text-anchor:middle;" transform="rotate(0, 1260.02, 73.2)" x="1260.02" y="73.2">Data and True Statistical Model</text>
</g>
<polyline clip-path="url(#clip5902)" style="stroke:#009af9; stroke-width:4; stroke-opacity:1; fill:none" points="
  744.575,1448.82 744.575,1393.99 770.347,1393.99 770.347,1339.16 796.119,1339.16 796.119,1188.38 821.891,1188.38 821.891,1284.33 847.663,1284.33 847.663,1147.26 
  873.436,1147.26 873.436,1078.72 899.208,1078.72 899.208,969.063 924.98,969.063 924.98,927.941 950.752,927.941 976.524,927.941 976.524,1037.6 
  1002.3,1037.6 1002.3,845.697 1028.07,845.697 1028.07,955.356 1053.84,955.356 1053.84,1023.89 1079.61,1023.89 1079.61,1010.19 1105.38,1010.19 1105.38,1119.84 
  1131.16,1119.84 1131.16,1037.6 1156.93,1037.6 1156.93,1202.09 1182.7,1202.09 1182.7,1311.75 1208.47,1311.75 1208.47,1284.33 1234.25,1284.33 1234.25,1407.7 
  1260.02,1407.7 1260.02,1421.41 1285.79,1421.41 1285.79,1352.87 1311.56,1352.87 1311.56,1421.41 1337.33,1421.41 1337.33,1407.7 1363.11,1407.7 1363.11,1435.11 
  1388.88,1435.11 1388.88,1448.82 1414.65,1448.82 1414.65,1421.41 1440.42,1421.41 1440.42,1407.7 1466.19,1407.7 1466.19,1352.87 1491.97,1352.87 1491.97,1393.99 
  1517.74,1393.99 1517.74,1311.75 1543.51,1311.75 1543.51,1160.97 1569.28,1160.97 1569.28,1133.55 1595.06,1133.55 1595.06,969.063 1620.83,969.063 1620.83,859.404 
  1646.6,859.404 1646.6,489.306 1672.37,489.306 1672.37,694.916 1698.14,694.916 1698.14,379.647 1723.92,379.647 1723.92,571.55 1749.69,571.55 1749.69,160.33 
  1775.46,160.33 1775.46,379.647 1801.23,379.647 1801.23,489.306 1827,489.306 1827,640.087 1852.78,640.087 1852.78,489.306 1878.55,489.306 1878.55,722.331 
  1904.32,722.331 1904.32,777.16 1930.09,777.16 1930.09,1078.72 1955.87,1078.72 1981.64,1078.72 1981.64,1160.97 2007.41,1160.97 2007.41,1325.45 
  2033.18,1325.45 2033.18,1298.04 2058.95,1298.04 2058.95,1352.87 2084.73,1352.87 2084.73,1380.28 2110.5,1380.28 2110.5,1448.82 2136.27,1448.82 2136.27,1435.11 
  2162.04,1435.11 2187.81,1435.11 2213.59,1435.11 2213.59,1448.82 2239.36,1448.82 2265.13,1448.82 
  2290.9,1448.82 
  "/>
<polyline clip-path="url(#clip5902)" style="stroke:#e26f46; stroke-width:4; stroke-opacity:1; fill:none" points="
  229.132,1448.82 231.709,1448.82 234.287,1448.82 236.864,1448.82 239.441,1448.82 242.018,1448.82 244.596,1448.82 247.173,1448.82 249.75,1448.82 252.327,1448.82 
  254.904,1448.82 257.482,1448.82 260.059,1448.82 262.636,1448.82 265.213,1448.82 267.79,1448.82 270.368,1448.82 272.945,1448.82 275.522,1448.82 278.099,1448.82 
  280.677,1448.82 283.254,1448.82 285.831,1448.82 288.408,1448.82 290.985,1448.82 293.563,1448.82 296.14,1448.82 298.717,1448.82 301.294,1448.82 303.871,1448.82 
  306.449,1448.82 309.026,1448.82 311.603,1448.82 314.18,1448.82 316.758,1448.82 319.335,1448.82 321.912,1448.82 324.489,1448.82 327.066,1448.82 329.644,1448.82 
  332.221,1448.82 334.798,1448.82 337.375,1448.82 339.952,1448.82 342.53,1448.82 345.107,1448.82 347.684,1448.82 350.261,1448.82 352.838,1448.82 355.416,1448.82 
  357.993,1448.82 360.57,1448.82 363.147,1448.82 365.725,1448.82 368.302,1448.82 370.879,1448.82 373.456,1448.82 376.033,1448.82 378.611,1448.82 381.188,1448.82 
  383.765,1448.81 386.342,1448.81 388.919,1448.81 391.497,1448.81 394.074,1448.81 396.651,1448.81 399.228,1448.81 401.806,1448.81 404.383,1448.81 406.96,1448.81 
  409.537,1448.81 412.114,1448.8 414.692,1448.8 417.269,1448.8 419.846,1448.8 422.423,1448.8 425,1448.8 427.578,1448.79 430.155,1448.79 432.732,1448.79 
  435.309,1448.79 437.887,1448.78 440.464,1448.78 443.041,1448.78 445.618,1448.77 448.195,1448.77 450.773,1448.76 453.35,1448.76 455.927,1448.75 458.504,1448.75 
  461.081,1448.74 463.659,1448.73 466.236,1448.72 468.813,1448.72 471.39,1448.71 473.968,1448.7 476.545,1448.69 479.122,1448.68 481.699,1448.66 484.276,1448.65 
  486.854,1448.64 489.431,1448.62 492.008,1448.6 494.585,1448.59 497.162,1448.57 499.74,1448.55 502.317,1448.53 504.894,1448.5 507.471,1448.48 510.048,1448.45 
  512.626,1448.42 515.203,1448.39 517.78,1448.35 520.357,1448.32 522.935,1448.28 525.512,1448.24 528.089,1448.19 530.666,1448.15 533.243,1448.09 535.821,1448.04 
  538.398,1447.98 540.975,1447.92 543.552,1447.85 546.129,1447.78 548.707,1447.7 551.284,1447.62 553.861,1447.54 556.438,1447.45 559.016,1447.35 561.593,1447.24 
  564.17,1447.13 566.747,1447.01 569.324,1446.89 571.902,1446.75 574.479,1446.61 577.056,1446.46 579.633,1446.3 582.21,1446.13 584.788,1445.95 587.365,1445.76 
  589.942,1445.55 592.519,1445.34 595.097,1445.11 597.674,1444.87 600.251,1444.61 602.828,1444.34 605.405,1444.06 607.983,1443.75 610.56,1443.44 613.137,1443.1 
  615.714,1442.75 618.291,1442.37 620.869,1441.98 623.446,1441.56 626.023,1441.12 628.6,1440.66 631.178,1440.18 633.755,1439.66 636.332,1439.13 638.909,1438.56 
  641.486,1437.97 644.064,1437.35 646.641,1436.69 649.218,1436.01 651.795,1435.29 654.372,1434.54 656.95,1433.75 659.527,1432.92 662.104,1432.05 664.681,1431.15 
  667.258,1430.2 669.836,1429.21 672.413,1428.18 674.99,1427.1 677.567,1425.97 680.145,1424.79 682.722,1423.57 685.299,1422.29 687.876,1420.96 690.453,1419.57 
  693.031,1418.12 695.608,1416.62 698.185,1415.06 700.762,1413.43 703.339,1411.74 705.917,1409.99 708.494,1408.17 711.071,1406.28 713.648,1404.33 716.226,1402.3 
  718.803,1400.19 721.38,1398.02 723.957,1395.76 726.534,1393.43 729.112,1391.02 731.689,1388.53 734.266,1385.96 736.843,1383.3 739.42,1380.56 741.998,1377.73 
  744.575,1374.81 747.152,1371.81 749.729,1368.71 752.307,1365.53 754.884,1362.25 757.461,1358.88 760.038,1355.41 762.615,1351.85 765.193,1348.2 767.77,1344.45 
  770.347,1340.6 772.924,1336.66 775.501,1332.61 778.079,1328.47 780.656,1324.24 783.233,1319.9 785.81,1315.47 788.388,1310.94 790.965,1306.32 793.542,1301.59 
  796.119,1296.78 798.696,1291.86 801.274,1286.86 803.851,1281.76 806.428,1276.57 809.005,1271.29 811.582,1265.92 814.16,1260.46 816.737,1254.92 819.314,1249.29 
  821.891,1243.58 824.469,1237.8 827.046,1231.94 829.623,1226 832.2,1219.99 834.777,1213.92 837.355,1207.78 839.932,1201.58 842.509,1195.32 845.086,1189.01 
  847.663,1182.64 850.241,1176.23 852.818,1169.78 855.395,1163.29 857.972,1156.76 860.549,1150.2 863.127,1143.62 865.704,1137.02 868.281,1130.4 870.858,1123.78 
  873.436,1117.14 876.013,1110.51 878.59,1103.88 881.167,1097.27 883.744,1090.67 886.322,1084.09 888.899,1077.54 891.476,1071.02 894.053,1064.54 896.63,1058.11 
  899.208,1051.73 901.785,1045.41 904.362,1039.15 906.939,1032.95 909.517,1026.84 912.094,1020.8 914.671,1014.86 917.248,1009 919.825,1003.25 922.403,997.596 
  924.98,992.058 927.557,986.636 930.134,981.337 932.711,976.166 935.289,971.129 937.866,966.232 940.443,961.479 943.02,956.877 945.598,952.429 948.175,948.142 
  950.752,944.02 953.329,940.067 955.906,936.288 958.484,932.688 961.061,929.27 963.638,926.039 966.215,922.998 968.792,920.151 971.37,917.501 973.947,915.051 
  976.524,912.804 979.101,910.764 981.679,908.931 984.256,907.309 986.833,905.899 989.41,904.704 991.987,903.723 994.565,902.96 997.142,902.413 999.719,902.086 
  1002.3,901.976 1004.87,902.086 1007.45,902.413 1010.03,902.96 1012.61,903.723 1015.18,904.704 1017.76,905.899 1020.34,907.309 1022.91,908.931 1025.49,910.764 
  1028.07,912.804 1030.65,915.051 1033.22,917.501 1035.8,920.151 1038.38,922.998 1040.95,926.039 1043.53,929.27 1046.11,932.688 1048.69,936.288 1051.26,940.067 
  1053.84,944.019 1056.42,948.142 1058.99,952.429 1061.57,956.877 1064.15,961.479 1066.73,966.232 1069.3,971.129 1071.88,976.166 1074.46,981.336 1077.04,986.635 
  1079.61,992.057 1082.19,997.596 1084.77,1003.25 1087.34,1009 1089.92,1014.85 1092.5,1020.8 1095.08,1026.84 1097.65,1032.95 1100.23,1039.14 1102.81,1045.4 
  1105.38,1051.73 1107.96,1058.11 1110.54,1064.54 1113.12,1071.02 1115.69,1077.54 1118.27,1084.09 1120.85,1090.66 1123.43,1097.26 1126,1103.88 1128.58,1110.51 
  1131.16,1117.14 1133.73,1123.77 1136.31,1130.4 1138.89,1137.01 1141.47,1143.62 1144.04,1150.2 1146.62,1156.75 1149.2,1163.28 1151.77,1169.77 1154.35,1176.22 
  1156.93,1182.63 1159.51,1188.99 1162.08,1195.31 1164.66,1201.56 1167.24,1207.76 1169.82,1213.9 1172.39,1219.97 1174.97,1225.98 1177.55,1231.91 1180.12,1237.77 
  1182.7,1243.56 1185.28,1249.26 1187.86,1254.88 1190.43,1260.42 1193.01,1265.88 1195.59,1271.24 1198.16,1276.52 1200.74,1281.71 1203.32,1286.8 1205.9,1291.8 
  1208.47,1296.71 1211.05,1301.52 1213.63,1306.24 1216.2,1310.85 1218.78,1315.37 1221.36,1319.8 1223.94,1324.12 1226.51,1328.35 1229.09,1332.48 1231.67,1336.51 
  1234.25,1340.44 1236.82,1344.27 1239.4,1348.01 1241.98,1351.65 1244.55,1355.19 1247.13,1358.63 1249.71,1361.98 1252.29,1365.24 1254.86,1368.4 1257.44,1371.47 
  1260.02,1374.45 1262.59,1377.33 1265.17,1380.13 1267.75,1382.83 1270.33,1385.45 1272.9,1387.99 1275.48,1390.43 1278.06,1392.8 1280.64,1395.08 1283.21,1397.27 
  1285.79,1399.39 1288.37,1401.43 1290.94,1403.39 1293.52,1405.28 1296.1,1407.09 1298.68,1408.83 1301.25,1410.49 1303.83,1412.08 1306.41,1413.61 1308.98,1415.06 
  1311.56,1416.45 1314.14,1417.77 1316.72,1419.02 1319.29,1420.21 1321.87,1421.34 1324.45,1422.4 1327.03,1423.4 1329.6,1424.35 1332.18,1425.23 1334.76,1426.06 
  1337.33,1426.82 1339.91,1427.53 1342.49,1428.19 1345.07,1428.78 1347.64,1429.33 1350.22,1429.81 1352.8,1430.25 1355.37,1430.62 1357.95,1430.95 1360.53,1431.22 
  1363.11,1431.43 1365.68,1431.6 1368.26,1431.7 1370.84,1431.76 1373.41,1431.76 1375.99,1431.7 1378.57,1431.6 1381.15,1431.43 1383.72,1431.21 1386.3,1430.93 
  1388.88,1430.6 1391.46,1430.2 1394.03,1429.75 1396.61,1429.24 1399.19,1428.66 1401.76,1428.02 1404.34,1427.32 1406.92,1426.56 1409.5,1425.72 1412.07,1424.82 
  1414.65,1423.85 1417.23,1422.81 1419.8,1421.69 1422.38,1420.5 1424.96,1419.24 1427.54,1417.89 1430.11,1416.46 1432.69,1414.95 1435.27,1413.35 1437.85,1411.67 
  1440.42,1409.89 1443,1408.03 1445.58,1406.06 1448.15,1404 1450.73,1401.84 1453.31,1399.57 1455.89,1397.2 1458.46,1394.72 1461.04,1392.12 1463.62,1389.41 
  1466.19,1386.59 1468.77,1383.64 1471.35,1380.57 1473.93,1377.37 1476.5,1374.04 1479.08,1370.58 1481.66,1366.98 1484.24,1363.25 1486.81,1359.37 1489.39,1355.34 
  1491.97,1351.17 1494.54,1346.84 1497.12,1342.36 1499.7,1337.73 1502.28,1332.93 1504.85,1327.97 1507.43,1322.84 1510.01,1317.55 1512.58,1312.08 1515.16,1306.44 
  1517.74,1300.62 1520.32,1294.63 1522.89,1288.45 1525.47,1282.09 1528.05,1275.55 1530.62,1268.81 1533.2,1261.89 1535.78,1254.78 1538.36,1247.48 1540.93,1239.99 
  1543.51,1232.3 1546.09,1224.42 1548.67,1216.34 1551.24,1208.07 1553.82,1199.6 1556.4,1190.93 1558.97,1182.08 1561.55,1173.02 1564.13,1163.77 1566.71,1154.33 
  1569.28,1144.7 1571.86,1134.88 1574.44,1124.87 1577.01,1114.67 1579.59,1104.29 1582.17,1093.73 1584.75,1082.99 1587.32,1072.08 1589.9,1061 1592.48,1049.75 
  1595.06,1038.33 1597.63,1026.76 1600.21,1015.04 1602.79,1003.17 1605.36,991.158 1607.94,979.01 1610.52,966.732 1613.1,954.331 1615.67,941.814 1618.25,929.187 
  1620.83,916.46 1623.4,903.638 1625.98,890.731 1628.56,877.747 1631.14,864.694 1633.71,851.582 1636.29,838.419 1638.87,825.216 1641.45,811.983 1644.02,798.728 
  1646.6,785.463 1649.18,772.198 1651.75,758.943 1654.33,745.711 1656.91,732.511 1659.49,719.354 1662.06,706.254 1664.64,693.22 1667.22,680.265 1669.79,667.401 
  1672.37,654.639 1674.95,641.991 1677.53,629.47 1680.1,617.087 1682.68,604.855 1685.26,592.785 1687.83,580.89 1690.41,569.182 1692.99,557.672 1695.57,546.372 
  1698.14,535.295 1700.72,524.452 1703.3,513.854 1705.88,503.512 1708.45,493.439 1711.03,483.644 1713.61,474.139 1716.18,464.933 1718.76,456.039 1721.34,447.464 
  1723.92,439.219 1726.49,431.313 1729.07,423.756 1731.65,416.555 1734.22,409.72 1736.8,403.257 1739.38,397.175 1741.96,391.481 1744.53,386.181 1747.11,381.282 
  1749.69,376.789 1752.27,372.707 1754.84,369.042 1757.42,365.798 1760,362.979 1762.57,360.587 1765.15,358.627 1767.73,357.099 1770.31,356.007 1772.88,355.351 
  1775.46,355.132 1778.04,355.351 1780.61,356.007 1783.19,357.099 1785.77,358.627 1788.35,360.587 1790.92,362.979 1793.5,365.798 1796.08,369.042 1798.66,372.707 
  1801.23,376.789 1803.81,381.282 1806.39,386.181 1808.96,391.481 1811.54,397.175 1814.12,403.257 1816.7,409.72 1819.27,416.555 1821.85,423.756 1824.43,431.313 
  1827,439.219 1829.58,447.464 1832.16,456.039 1834.74,464.934 1837.31,474.139 1839.89,483.644 1842.47,493.439 1845.04,503.512 1847.62,513.854 1850.2,524.452 
  1852.78,535.295 1855.35,546.373 1857.93,557.672 1860.51,569.182 1863.09,580.891 1865.66,592.786 1868.24,604.855 1870.82,617.088 1873.39,629.471 1875.97,641.992 
  1878.55,654.64 1881.13,667.402 1883.7,680.266 1886.28,693.221 1888.86,706.255 1891.43,719.356 1894.01,732.512 1896.59,745.712 1899.17,758.945 1901.74,772.2 
  1904.32,785.465 1906.9,798.73 1909.48,811.985 1912.05,825.219 1914.63,838.422 1917.21,851.585 1919.78,864.698 1922.36,877.751 1924.94,890.735 1927.52,903.643 
  1930.09,916.465 1932.67,929.193 1935.25,941.82 1937.82,954.338 1940.4,966.74 1942.98,979.018 1945.56,991.167 1948.13,1003.18 1950.71,1015.05 1953.29,1026.78 
  1955.87,1038.35 1958.44,1049.76 1961.02,1061.01 1963.6,1072.1 1966.17,1083.01 1968.75,1093.75 1971.33,1104.31 1973.91,1114.7 1976.48,1124.9 1979.06,1134.91 
  1981.64,1144.73 1984.21,1154.37 1986.79,1163.81 1989.37,1173.07 1991.95,1182.12 1994.52,1190.99 1997.1,1199.66 1999.68,1208.13 2002.25,1216.41 2004.83,1224.49 
  2007.41,1232.38 2009.99,1240.08 2012.56,1247.58 2015.14,1254.89 2017.72,1262.01 2020.3,1268.94 2022.87,1275.68 2025.45,1282.23 2028.03,1288.61 2030.6,1294.8 
  2033.18,1300.81 2035.76,1306.64 2038.34,1312.29 2040.91,1317.78 2043.49,1323.09 2046.07,1328.24 2048.64,1333.22 2051.22,1338.04 2053.8,1342.71 2056.38,1347.21 
  2058.95,1351.57 2061.53,1355.77 2064.11,1359.83 2066.69,1363.75 2069.26,1367.52 2071.84,1371.16 2074.42,1374.67 2076.99,1378.04 2079.57,1381.29 2082.15,1384.42 
  2084.73,1387.43 2087.3,1390.32 2089.88,1393.09 2092.46,1395.76 2095.03,1398.31 2097.61,1400.77 2100.19,1403.12 2102.77,1405.37 2105.34,1407.53 2107.92,1409.6 
  2110.5,1411.58 2113.08,1413.48 2115.65,1415.29 2118.23,1417.02 2120.81,1418.67 2123.38,1420.25 2125.96,1421.76 2128.54,1423.2 2131.12,1424.57 2133.69,1425.87 
  2136.27,1427.12 2138.85,1428.31 2141.42,1429.43 2144,1430.51 2146.58,1431.53 2149.16,1432.5 2151.73,1433.42 2154.31,1434.3 2156.89,1435.13 2159.46,1435.92 
  2162.04,1436.67 2164.62,1437.38 2167.2,1438.05 2169.77,1438.69 2172.35,1439.29 2174.93,1439.86 2177.51,1440.4 2180.08,1440.91 2182.66,1441.4 2185.24,1441.85 
  2187.81,1442.28 2190.39,1442.69 2192.97,1443.07 2195.55,1443.44 2198.12,1443.78 2200.7,1444.1 2203.28,1444.4 2205.85,1444.68 2208.43,1444.95 2211.01,1445.2 
  2213.59,1445.44 2216.16,1445.66 2218.74,1445.87 2221.32,1446.07 2223.9,1446.25 2226.47,1446.43 2229.05,1446.59 2231.63,1446.74 2234.2,1446.88 2236.78,1447.02 
  2239.36,1447.14 2241.94,1447.26 2244.51,1447.37 2247.09,1447.47 2249.67,1447.57 2252.24,1447.66 2254.82,1447.74 2257.4,1447.82 2259.98,1447.89 2262.55,1447.96 
  2265.13,1448.02 2267.71,1448.08 2270.29,1448.13 2272.86,1448.18 2275.44,1448.23 2278.02,1448.28 2280.59,1448.32 2283.17,1448.35 2285.75,1448.39 2288.33,1448.42 
  2290.9,1448.45 
  "/>
<polygon clip-path="url(#clip5900)" points="
1928.41,386.635 2280.76,386.635 2280.76,205.195 1928.41,205.195 
  " fill="#ffffff" fill-rule="evenodd" fill-opacity="1"/>
<polyline clip-path="url(#clip5900)" style="stroke:#000000; stroke-width:4; stroke-opacity:1; fill:none" points="
  1928.41,386.635 2280.76,386.635 2280.76,205.195 1928.41,205.195 1928.41,386.635 
  "/>
<polyline clip-path="url(#clip5900)" style="stroke:#009af9; stroke-width:4; stroke-opacity:1; fill:none" points="
  1952.41,265.675 2096.41,265.675 
  "/>
<g clip-path="url(#clip5900)">
<text style="fill:#000000; fill-opacity:1; font-family:Arial,Helvetica Neue,Helvetica,sans-serif; font-size:48px; text-anchor:start;" transform="rotate(0, 2120.41, 283.175)" x="2120.41" y="283.175">Data</text>
</g>
<polyline clip-path="url(#clip5900)" style="stroke:#e26f46; stroke-width:4; stroke-opacity:1; fill:none" points="
  1952.41,326.155 2096.41,326.155 
  "/>
<g clip-path="url(#clip5900)">
<text style="fill:#000000; fill-opacity:1; font-family:Arial,Helvetica Neue,Helvetica,sans-serif; font-size:48px; text-anchor:start;" transform="rotate(0, 2120.41, 343.655)" x="2120.41" y="343.655">Truth</text>
</g>
</svg>
