<?xml version="1.0" encoding="utf-8"?>
<svg xmlns="http://www.w3.org/2000/svg" xmlns:xlink="http://www.w3.org/1999/xlink" width="600" height="400" viewBox="0 0 2400 1600">
<defs>
  <clipPath id="clip6200">
    <rect x="0" y="0" width="2400" height="1600"/>
  </clipPath>
</defs>
<polygon clip-path="url(#clip6200)" points="
0,1600 2400,1600 2400,0 0,0 
  " fill="#ffffff" fill-rule="evenodd" fill-opacity="1"/>
<defs>
  <clipPath id="clip6201">
    <rect x="480" y="0" width="1681" height="1600"/>
  </clipPath>
</defs>
<polygon clip-path="url(#clip6200)" points="
202.373,1425.62 2352.76,1425.62 2352.76,121.675 202.373,121.675 
  " fill="#ffffff" fill-rule="evenodd" fill-opacity="1"/>
<defs>
  <clipPath id="clip6202">
    <rect x="202" y="121" width="2151" height="1305"/>
  </clipPath>
</defs>
<polyline clip-path="url(#clip6202)" style="stroke:#000000; stroke-width:2; stroke-opacity:0.1; fill:none" points="
  690.32,1425.62 690.32,121.675 
  "/>
<polyline clip-path="url(#clip6202)" style="stroke:#000000; stroke-width:2; stroke-opacity:0.1; fill:none" points="
  1224.18,1425.62 1224.18,121.675 
  "/>
<polyline clip-path="url(#clip6202)" style="stroke:#000000; stroke-width:2; stroke-opacity:0.1; fill:none" points="
  1758.04,1425.62 1758.04,121.675 
  "/>
<polyline clip-path="url(#clip6202)" style="stroke:#000000; stroke-width:2; stroke-opacity:0.1; fill:none" points="
  2291.9,1425.62 2291.9,121.675 
  "/>
<polyline clip-path="url(#clip6202)" style="stroke:#000000; stroke-width:2; stroke-opacity:0.1; fill:none" points="
  202.373,1388.71 2352.76,1388.71 
  "/>
<polyline clip-path="url(#clip6202)" style="stroke:#000000; stroke-width:2; stroke-opacity:0.1; fill:none" points="
  202.373,1017.92 2352.76,1017.92 
  "/>
<polyline clip-path="url(#clip6202)" style="stroke:#000000; stroke-width:2; stroke-opacity:0.1; fill:none" points="
  202.373,647.132 2352.76,647.132 
  "/>
<polyline clip-path="url(#clip6202)" style="stroke:#000000; stroke-width:2; stroke-opacity:0.1; fill:none" points="
  202.373,276.341 2352.76,276.341 
  "/>
<polyline clip-path="url(#clip6200)" style="stroke:#000000; stroke-width:4; stroke-opacity:1; fill:none" points="
  202.373,1425.62 2352.76,1425.62 
  "/>
<polyline clip-path="url(#clip6200)" style="stroke:#000000; stroke-width:4; stroke-opacity:1; fill:none" points="
  202.373,1425.62 202.373,121.675 
  "/>
<polyline clip-path="url(#clip6200)" style="stroke:#000000; stroke-width:4; stroke-opacity:1; fill:none" points="
  690.32,1425.62 690.32,1406.06 
  "/>
<polyline clip-path="url(#clip6200)" style="stroke:#000000; stroke-width:4; stroke-opacity:1; fill:none" points="
  1224.18,1425.62 1224.18,1406.06 
  "/>
<polyline clip-path="url(#clip6200)" style="stroke:#000000; stroke-width:4; stroke-opacity:1; fill:none" points="
  1758.04,1425.62 1758.04,1406.06 
  "/>
<polyline clip-path="url(#clip6200)" style="stroke:#000000; stroke-width:4; stroke-opacity:1; fill:none" points="
  2291.9,1425.62 2291.9,1406.06 
  "/>
<polyline clip-path="url(#clip6200)" style="stroke:#000000; stroke-width:4; stroke-opacity:1; fill:none" points="
  202.373,1388.71 234.629,1388.71 
  "/>
<polyline clip-path="url(#clip6200)" style="stroke:#000000; stroke-width:4; stroke-opacity:1; fill:none" points="
  202.373,1017.92 234.629,1017.92 
  "/>
<polyline clip-path="url(#clip6200)" style="stroke:#000000; stroke-width:4; stroke-opacity:1; fill:none" points="
  202.373,647.132 234.629,647.132 
  "/>
<polyline clip-path="url(#clip6200)" style="stroke:#000000; stroke-width:4; stroke-opacity:1; fill:none" points="
  202.373,276.341 234.629,276.341 
  "/>
<g clip-path="url(#clip6200)">
<text style="fill:#000000; fill-opacity:1; font-family:Arial,Helvetica Neue,Helvetica,sans-serif; font-size:48px; text-anchor:middle;" transform="rotate(0, 690.32, 1479.62)" x="690.32" y="1479.62">-1.05</text>
</g>
<g clip-path="url(#clip6200)">
<text style="fill:#000000; fill-opacity:1; font-family:Arial,Helvetica Neue,Helvetica,sans-serif; font-size:48px; text-anchor:middle;" transform="rotate(0, 1224.18, 1479.62)" x="1224.18" y="1479.62">-1.00</text>
</g>
<g clip-path="url(#clip6200)">
<text style="fill:#000000; fill-opacity:1; font-family:Arial,Helvetica Neue,Helvetica,sans-serif; font-size:48px; text-anchor:middle;" transform="rotate(0, 1758.04, 1479.62)" x="1758.04" y="1479.62">-0.95</text>
</g>
<g clip-path="url(#clip6200)">
<text style="fill:#000000; fill-opacity:1; font-family:Arial,Helvetica Neue,Helvetica,sans-serif; font-size:48px; text-anchor:middle;" transform="rotate(0, 2291.9, 1479.62)" x="2291.9" y="1479.62">-0.90</text>
</g>
<g clip-path="url(#clip6200)">
<text style="fill:#000000; fill-opacity:1; font-family:Arial,Helvetica Neue,Helvetica,sans-serif; font-size:48px; text-anchor:end;" transform="rotate(0, 178.373, 1406.21)" x="178.373" y="1406.21">0</text>
</g>
<g clip-path="url(#clip6200)">
<text style="fill:#000000; fill-opacity:1; font-family:Arial,Helvetica Neue,Helvetica,sans-serif; font-size:48px; text-anchor:end;" transform="rotate(0, 178.373, 1035.42)" x="178.373" y="1035.42">5</text>
</g>
<g clip-path="url(#clip6200)">
<text style="fill:#000000; fill-opacity:1; font-family:Arial,Helvetica Neue,Helvetica,sans-serif; font-size:48px; text-anchor:end;" transform="rotate(0, 178.373, 664.632)" x="178.373" y="664.632">10</text>
</g>
<g clip-path="url(#clip6200)">
<text style="fill:#000000; fill-opacity:1; font-family:Arial,Helvetica Neue,Helvetica,sans-serif; font-size:48px; text-anchor:end;" transform="rotate(0, 178.373, 293.841)" x="178.373" y="293.841">15</text>
</g>
<g clip-path="url(#clip6200)">
<text style="fill:#000000; fill-opacity:1; font-family:Arial,Helvetica Neue,Helvetica,sans-serif; font-size:84px; text-anchor:middle;" transform="rotate(0, 1277.56, 73.2)" x="1277.56" y="73.2">Marginalized Distribution for mu_1</text>
</g>
<g clip-path="url(#clip6200)">
<text style="fill:#000000; fill-opacity:1; font-family:Arial,Helvetica Neue,Helvetica,sans-serif; font-size:66px; text-anchor:middle;" transform="rotate(0, 1277.56, 1559.48)" x="1277.56" y="1559.48">mu_1</text>
</g>
<g clip-path="url(#clip6200)">
<text style="fill:#000000; fill-opacity:1; font-family:Arial,Helvetica Neue,Helvetica,sans-serif; font-size:66px; text-anchor:middle;" transform="rotate(-90, 89.2861, 773.647)" x="89.2861" y="773.647">P(mu_1)</text>
</g>
<polygon clip-path="url(#clip6202)" points="
263.233,1388.71 316.619,1388.71 316.619,1388.71 370.005,1388.71 370.005,1388.71 423.39,1388.71 423.39,1388.71 476.776,1388.71 476.776,1366.46 530.162,1366.46 
  530.162,1388.71 583.548,1388.71 583.548,1341.61 636.934,1341.61 636.934,1311.57 690.32,1311.57 690.32,1280.41 743.706,1280.41 743.706,1259.27 797.092,1259.27 
  797.092,1195.85 850.477,1195.85 850.477,1131.31 903.863,1131.31 903.863,940.293 957.249,940.293 957.249,807.51 1010.64,807.51 1010.64,688.821 1064.02,688.821 
  1064.02,650.619 1117.41,650.619 1117.41,326.45 1170.79,326.45 1170.79,334.98 1224.18,334.98 1224.18,241.513 1277.56,241.513 1277.56,194.408 1330.95,194.408 
  1330.95,199.23 1384.34,199.23 1384.34,287.876 1437.72,287.876 1437.72,265.993 1491.11,265.993 1491.11,568.278 1544.49,568.278 1544.49,692.16 1597.88,692.16 
  1597.88,723.686 1651.27,723.686 1651.27,906.17 1704.65,906.17 1704.65,1116.84 1758.04,1116.84 1758.04,1182.86 1811.42,1182.86 1811.42,1188.43 1864.81,1188.43 
  1864.81,1299.33 1918.19,1299.33 1918.19,1294.13 1971.58,1294.13 1971.58,1339.76 2024.97,1339.76 2024.97,1356.45 2078.35,1356.45 2078.35,1370.91 2131.74,1370.91 
  2131.74,1388.71 2185.12,1388.71 2185.12,1388.71 2238.51,1388.71 2238.51,1388.71 2291.9,1388.71 2291.9,1388.71 2291.9,1388.71 2291.9,1388.71 2238.51,1388.71 
  2238.51,1388.71 2185.12,1388.71 2185.12,1388.71 2131.74,1388.71 2131.74,1388.71 2078.35,1388.71 2078.35,1388.71 2024.97,1388.71 2024.97,1388.71 1971.58,1388.71 
  1971.58,1388.71 1918.19,1388.71 1918.19,1388.71 1864.81,1388.71 1864.81,1388.71 1811.42,1388.71 1811.42,1388.71 1758.04,1388.71 1758.04,1388.71 1704.65,1388.71 
  1704.65,1388.71 1651.27,1388.71 1651.27,1388.71 1597.88,1388.71 1597.88,1388.71 1544.49,1388.71 1544.49,1388.71 1491.11,1388.71 1491.11,1388.71 1437.72,1388.71 
  1437.72,1388.71 1384.34,1388.71 1384.34,1388.71 1330.95,1388.71 1330.95,1388.71 1277.56,1388.71 1277.56,1388.71 1224.18,1388.71 1224.18,1388.71 1170.79,1388.71 
  1170.79,1388.71 1117.41,1388.71 1117.41,1388.71 1064.02,1388.71 1064.02,1388.71 1010.64,1388.71 1010.64,1388.71 957.249,1388.71 957.249,1388.71 903.863,1388.71 
  903.863,1388.71 850.477,1388.71 850.477,1388.71 797.092,1388.71 797.092,1388.71 743.706,1388.71 743.706,1388.71 690.32,1388.71 690.32,1388.71 636.934,1388.71 
  636.934,1388.71 583.548,1388.71 583.548,1388.71 530.162,1388.71 530.162,1388.71 476.776,1388.71 476.776,1388.71 423.39,1388.71 423.39,1388.71 370.005,1388.71 
  370.005,1388.71 316.619,1388.71 316.619,1388.71 263.233,1388.71 
  " fill="#ff0000" fill-rule="evenodd" fill-opacity="1"/>
<polyline clip-path="url(#clip6202)" style="stroke:#009af9; stroke-width:0; stroke-opacity:1; fill:none" points="
  263.233,1388.71 316.619,1388.71 370.005,1388.71 423.39,1388.71 476.776,1388.71 476.776,1366.46 530.162,1366.46 
  530.162,1388.71 583.548,1388.71 583.548,1341.61 636.934,1341.61 636.934,1311.57 690.32,1311.57 690.32,1280.41 743.706,1280.41 743.706,1259.27 797.092,1259.27 
  797.092,1195.85 850.477,1195.85 850.477,1131.31 903.863,1131.31 903.863,940.293 957.249,940.293 957.249,807.51 1010.64,807.51 1010.64,688.821 1064.02,688.821 
  1064.02,650.619 1117.41,650.619 1117.41,326.45 1170.79,326.45 1170.79,334.98 1224.18,334.98 1224.18,241.513 1277.56,241.513 1277.56,194.408 1330.95,194.408 
  1330.95,199.23 1384.34,199.23 1384.34,287.876 1437.72,287.876 1437.72,265.993 1491.11,265.993 1491.11,568.278 1544.49,568.278 1544.49,692.16 1597.88,692.16 
  1597.88,723.686 1651.27,723.686 1651.27,906.17 1704.65,906.17 1704.65,1116.84 1758.04,1116.84 1758.04,1182.86 1811.42,1182.86 1811.42,1188.43 1864.81,1188.43 
  1864.81,1299.33 1918.19,1299.33 1918.19,1294.13 1971.58,1294.13 1971.58,1339.76 2024.97,1339.76 2024.97,1356.45 2078.35,1356.45 2078.35,1370.91 2131.74,1370.91 
  2131.74,1388.71 2185.12,1388.71 2238.51,1388.71 2291.9,1388.71 
  "/>
<polygon clip-path="url(#clip6202)" points="
263.233,1388.71 316.619,1388.71 316.619,1388.71 370.005,1388.71 370.005,1388.71 423.39,1388.71 423.39,1388.71 476.776,1388.71 476.776,1388.71 530.162,1388.71 
  530.162,1388.71 583.548,1388.71 583.548,1388.71 636.934,1388.71 636.934,1388.71 690.32,1388.71 690.32,1388.71 743.706,1388.71 743.706,1259.27 797.092,1259.27 
  797.092,1195.85 850.477,1195.85 850.477,1131.31 903.863,1131.31 903.863,940.293 957.249,940.293 957.249,807.51 1010.64,807.51 1010.64,688.821 1064.02,688.821 
  1064.02,650.619 1117.41,650.619 1117.41,326.45 1170.79,326.45 1170.79,334.98 1224.18,334.98 1224.18,241.513 1277.56,241.513 1277.56,194.408 1330.95,194.408 
  1330.95,199.23 1384.34,199.23 1384.34,287.876 1437.72,287.876 1437.72,265.993 1491.11,265.993 1491.11,568.278 1544.49,568.278 1544.49,692.16 1597.88,692.16 
  1597.88,723.686 1651.27,723.686 1651.27,906.17 1704.65,906.17 1704.65,1116.84 1758.04,1116.84 1758.04,1182.86 1811.42,1182.86 1811.42,1188.43 1864.81,1188.43 
  1864.81,1388.71 1918.19,1388.71 1918.19,1388.71 1971.58,1388.71 1971.58,1388.71 2024.97,1388.71 2024.97,1388.71 2078.35,1388.71 2078.35,1388.71 2131.74,1388.71 
  2131.74,1388.71 2185.12,1388.71 2185.12,1388.71 2238.51,1388.71 2238.51,1388.71 2291.9,1388.71 2291.9,1388.71 2291.9,1388.71 2291.9,1388.71 2238.51,1388.71 
  2238.51,1388.71 2185.12,1388.71 2185.12,1388.71 2131.74,1388.71 2131.74,1388.71 2078.35,1388.71 2078.35,1388.71 2024.97,1388.71 2024.97,1388.71 1971.58,1388.71 
  1971.58,1388.71 1918.19,1388.71 1918.19,1388.71 1864.81,1388.71 1864.81,1388.71 1811.42,1388.71 1811.42,1388.71 1758.04,1388.71 1758.04,1388.71 1704.65,1388.71 
  1704.65,1388.71 1651.27,1388.71 1651.27,1388.71 1597.88,1388.71 1597.88,1388.71 1544.49,1388.71 1544.49,1388.71 1491.11,1388.71 1491.11,1388.71 1437.72,1388.71 
  1437.72,1388.71 1384.34,1388.71 1384.34,1388.71 1330.95,1388.71 1330.95,1388.71 1277.56,1388.71 1277.56,1388.71 1224.18,1388.71 1224.18,1388.71 1170.79,1388.71 
  1170.79,1388.71 1117.41,1388.71 1117.41,1388.71 1064.02,1388.71 1064.02,1388.71 1010.64,1388.71 1010.64,1388.71 957.249,1388.71 957.249,1388.71 903.863,1388.71 
  903.863,1388.71 850.477,1388.71 850.477,1388.71 797.092,1388.71 797.092,1388.71 743.706,1388.71 743.706,1388.71 690.32,1388.71 690.32,1388.71 636.934,1388.71 
  636.934,1388.71 583.548,1388.71 583.548,1388.71 530.162,1388.71 530.162,1388.71 476.776,1388.71 476.776,1388.71 423.39,1388.71 423.39,1388.71 370.005,1388.71 
  370.005,1388.71 316.619,1388.71 316.619,1388.71 263.233,1388.71 
  " fill="#ffff00" fill-rule="evenodd" fill-opacity="1"/>
<polyline clip-path="url(#clip6202)" style="stroke:#e26f46; stroke-width:0; stroke-opacity:1; fill:none" points="
  263.233,1388.71 316.619,1388.71 370.005,1388.71 423.39,1388.71 476.776,1388.71 530.162,1388.71 
  583.548,1388.71 636.934,1388.71 690.32,1388.71 743.706,1388.71 743.706,1259.27 797.092,1259.27 
  797.092,1195.85 850.477,1195.85 850.477,1131.31 903.863,1131.31 903.863,940.293 957.249,940.293 957.249,807.51 1010.64,807.51 1010.64,688.821 1064.02,688.821 
  1064.02,650.619 1117.41,650.619 1117.41,326.45 1170.79,326.45 1170.79,334.98 1224.18,334.98 1224.18,241.513 1277.56,241.513 1277.56,194.408 1330.95,194.408 
  1330.95,199.23 1384.34,199.23 1384.34,287.876 1437.72,287.876 1437.72,265.993 1491.11,265.993 1491.11,568.278 1544.49,568.278 1544.49,692.16 1597.88,692.16 
  1597.88,723.686 1651.27,723.686 1651.27,906.17 1704.65,906.17 1704.65,1116.84 1758.04,1116.84 1758.04,1182.86 1811.42,1182.86 1811.42,1188.43 1864.81,1188.43 
  1864.81,1388.71 1918.19,1388.71 1971.58,1388.71 2024.97,1388.71 2078.35,1388.71 2131.74,1388.71 
  2185.12,1388.71 2238.51,1388.71 2291.9,1388.71 
  "/>
<polygon clip-path="url(#clip6202)" points="
263.233,1388.71 316.619,1388.71 316.619,1388.71 370.005,1388.71 370.005,1388.71 423.39,1388.71 423.39,1388.71 476.776,1388.71 476.776,1388.71 530.162,1388.71 
  530.162,1388.71 583.548,1388.71 583.548,1388.71 636.934,1388.71 636.934,1388.71 690.32,1388.71 690.32,1388.71 743.706,1388.71 743.706,1388.71 797.092,1388.71 
  797.092,1388.71 850.477,1388.71 850.477,1388.71 903.863,1388.71 903.863,1388.71 957.249,1388.71 957.249,1388.71 1010.64,1388.71 1010.64,688.821 1064.02,688.821 
  1064.02,650.619 1117.41,650.619 1117.41,326.45 1170.79,326.45 1170.79,334.98 1224.18,334.98 1224.18,241.513 1277.56,241.513 1277.56,194.408 1330.95,194.408 
  1330.95,199.23 1384.34,199.23 1384.34,287.876 1437.72,287.876 1437.72,265.993 1491.11,265.993 1491.11,568.278 1544.49,568.278 1544.49,692.16 1597.88,692.16 
  1597.88,1388.71 1651.27,1388.71 1651.27,1388.71 1704.65,1388.71 1704.65,1388.71 1758.04,1388.71 1758.04,1388.71 1811.42,1388.71 1811.42,1388.71 1864.81,1388.71 
  1864.81,1388.71 1918.19,1388.71 1918.19,1388.71 1971.58,1388.71 1971.58,1388.71 2024.97,1388.71 2024.97,1388.71 2078.35,1388.71 2078.35,1388.71 2131.74,1388.71 
  2131.74,1388.71 2185.12,1388.71 2185.12,1388.71 2238.51,1388.71 2238.51,1388.71 2291.9,1388.71 2291.9,1388.71 2291.9,1388.71 2291.9,1388.71 2238.51,1388.71 
  2238.51,1388.71 2185.12,1388.71 2185.12,1388.71 2131.74,1388.71 2131.74,1388.71 2078.35,1388.71 2078.35,1388.71 2024.97,1388.71 2024.97,1388.71 1971.58,1388.71 
  1971.58,1388.71 1918.19,1388.71 1918.19,1388.71 1864.81,1388.71 1864.81,1388.71 1811.42,1388.71 1811.42,1388.71 1758.04,1388.71 1758.04,1388.71 1704.65,1388.71 
  1704.65,1388.71 1651.27,1388.71 1651.27,1388.71 1597.88,1388.71 1597.88,1388.71 1544.49,1388.71 1544.49,1388.71 1491.11,1388.71 1491.11,1388.71 1437.72,1388.71 
  1437.72,1388.71 1384.34,1388.71 1384.34,1388.71 1330.95,1388.71 1330.95,1388.71 1277.56,1388.71 1277.56,1388.71 1224.18,1388.71 1224.18,1388.71 1170.79,1388.71 
  1170.79,1388.71 1117.41,1388.71 1117.41,1388.71 1064.02,1388.71 1064.02,1388.71 1010.64,1388.71 1010.64,1388.71 957.249,1388.71 957.249,1388.71 903.863,1388.71 
  903.863,1388.71 850.477,1388.71 850.477,1388.71 797.092,1388.71 797.092,1388.71 743.706,1388.71 743.706,1388.71 690.32,1388.71 690.32,1388.71 636.934,1388.71 
  636.934,1388.71 583.548,1388.71 583.548,1388.71 530.162,1388.71 530.162,1388.71 476.776,1388.71 476.776,1388.71 423.39,1388.71 423.39,1388.71 370.005,1388.71 
  370.005,1388.71 316.619,1388.71 316.619,1388.71 263.233,1388.71 
  " fill="#76ee00" fill-rule="evenodd" fill-opacity="1"/>
<polyline clip-path="url(#clip6202)" style="stroke:#3da44d; stroke-width:0; stroke-opacity:1; fill:none" points="
  263.233,1388.71 316.619,1388.71 370.005,1388.71 423.39,1388.71 476.776,1388.71 530.162,1388.71 
  583.548,1388.71 636.934,1388.71 690.32,1388.71 743.706,1388.71 797.092,1388.71 
  850.477,1388.71 903.863,1388.71 957.249,1388.71 1010.64,1388.71 1010.64,688.821 1064.02,688.821 
  1064.02,650.619 1117.41,650.619 1117.41,326.45 1170.79,326.45 1170.79,334.98 1224.18,334.98 1224.18,241.513 1277.56,241.513 1277.56,194.408 1330.95,194.408 
  1330.95,199.23 1384.34,199.23 1384.34,287.876 1437.72,287.876 1437.72,265.993 1491.11,265.993 1491.11,568.278 1544.49,568.278 1544.49,692.16 1597.88,692.16 
  1597.88,1388.71 1651.27,1388.71 1704.65,1388.71 1758.04,1388.71 1811.42,1388.71 1864.81,1388.71 
  1918.19,1388.71 1971.58,1388.71 2024.97,1388.71 2078.35,1388.71 2131.74,1388.71 
  2185.12,1388.71 2238.51,1388.71 2291.9,1388.71 
  "/>
<polyline clip-path="url(#clip6202)" style="stroke:#000000; stroke-width:2.8; stroke-opacity:1; fill:none" points="
  263.233,1388.34 316.619,1388.34 316.619,1387.97 370.005,1387.97 370.005,1383.15 423.39,1383.15 423.39,1386.49 476.776,1386.49 476.776,1366.46 530.162,1366.46 
  530.162,1379.07 583.548,1379.07 583.548,1341.61 636.934,1341.61 636.934,1311.57 690.32,1311.57 690.32,1280.41 743.706,1280.41 743.706,1259.27 797.092,1259.27 
  797.092,1195.85 850.477,1195.85 850.477,1131.31 903.863,1131.31 903.863,940.293 957.249,940.293 957.249,807.51 1010.64,807.51 1010.64,688.821 1064.02,688.821 
  1064.02,650.619 1117.41,650.619 1117.41,326.45 1170.79,326.45 1170.79,334.98 1224.18,334.98 1224.18,241.513 1277.56,241.513 1277.56,194.408 1330.95,194.408 
  1330.95,199.23 1384.34,199.23 1384.34,287.876 1437.72,287.876 1437.72,265.993 1491.11,265.993 1491.11,568.278 1544.49,568.278 1544.49,692.16 1597.88,692.16 
  1597.88,723.686 1651.27,723.686 1651.27,906.17 1704.65,906.17 1704.65,1116.84 1758.04,1116.84 1758.04,1182.86 1811.42,1182.86 1811.42,1188.43 1864.81,1188.43 
  1864.81,1299.33 1918.19,1299.33 1918.19,1294.13 1971.58,1294.13 1971.58,1339.76 2024.97,1339.76 2024.97,1356.45 2078.35,1356.45 2078.35,1370.91 2131.74,1370.91 
  2131.74,1379.44 2185.12,1379.44 2185.12,1388.71 2238.51,1388.71 2238.51,1383.89 2291.9,1383.89 2291.9,1387.97 
  "/>
<polygon clip-path="url(#clip6202)" points="
1049.11,1388.71 1579.69,1388.71 1579.69,158.579 1049.11,158.579 1049.11,1388.71 
  " fill="#808080" fill-rule="evenodd" fill-opacity="0.5"/>
<polyline clip-path="url(#clip6202)" style="stroke:#000000; stroke-width:0; stroke-opacity:1; fill:none" points="
  1049.11,1388.71 1579.69,1388.71 1579.69,158.579 1049.11,158.579 1049.11,1388.71 
  "/>
<polyline clip-path="url(#clip6202)" style="stroke:#696969; stroke-width:4; stroke-opacity:1; fill:none" points="
  1314.4,1388.71 1314.4,158.579 
  "/>
<polyline clip-path="url(#clip6202)" style="stroke:#000000; stroke-width:4; stroke-opacity:1; fill:none" stroke-dasharray="16, 10" points="
  1282.07,1388.71 1282.07,158.579 
  "/>
<polyline clip-path="url(#clip6202)" style="stroke:#000000; stroke-width:4; stroke-opacity:1; fill:none" stroke-dasharray="2, 4" points="
  1304.26,1388.71 1304.26,158.579 
  "/>
<polygon clip-path="url(#clip6200)" points="
1463.01,689.035 2280.76,689.035 2280.76,205.195 1463.01,205.195 
  " fill="#ffffff" fill-rule="evenodd" fill-opacity="1"/>
<polyline clip-path="url(#clip6200)" style="stroke:#000000; stroke-width:4; stroke-opacity:1; fill:none" points="
  1463.01,689.035 2280.76,689.035 2280.76,205.195 1463.01,205.195 1463.01,689.035 
  "/>
<polygon clip-path="url(#clip6200)" points="
1487.01,289.867 1631.01,289.867 1631.01,241.483 1487.01,241.483 1487.01,289.867 
  " fill="#ff0000" fill-rule="evenodd" fill-opacity="1"/>
<polyline clip-path="url(#clip6200)" style="stroke:#009af9; stroke-width:0; stroke-opacity:1; fill:none" points="
  1487.01,241.483 1631.01,241.483 
  "/>
<g clip-path="url(#clip6200)">
<text style="fill:#000000; fill-opacity:1; font-family:Arial,Helvetica Neue,Helvetica,sans-serif; font-size:48px; text-anchor:start;" transform="rotate(0, 1655.01, 283.175)" x="1655.01" y="283.175">smallest 99.77% interval(s)</text>
</g>
<polygon clip-path="url(#clip6200)" points="
1487.01,350.347 1631.01,350.347 1631.01,301.963 1487.01,301.963 1487.01,350.347 
  " fill="#ffff00" fill-rule="evenodd" fill-opacity="1"/>
<polyline clip-path="url(#clip6200)" style="stroke:#e26f46; stroke-width:0; stroke-opacity:1; fill:none" points="
  1487.01,301.963 1631.01,301.963 
  "/>
<g clip-path="url(#clip6200)">
<text style="fill:#000000; fill-opacity:1; font-family:Arial,Helvetica Neue,Helvetica,sans-serif; font-size:48px; text-anchor:start;" transform="rotate(0, 1655.01, 343.655)" x="1655.01" y="343.655">smallest 96.15% interval(s)</text>
</g>
<polygon clip-path="url(#clip6200)" points="
1487.01,410.827 1631.01,410.827 1631.01,362.443 1487.01,362.443 1487.01,410.827 
  " fill="#76ee00" fill-rule="evenodd" fill-opacity="1"/>
<polyline clip-path="url(#clip6200)" style="stroke:#3da44d; stroke-width:0; stroke-opacity:1; fill:none" points="
  1487.01,362.443 1631.01,362.443 
  "/>
<g clip-path="url(#clip6200)">
<text style="fill:#000000; fill-opacity:1; font-family:Arial,Helvetica Neue,Helvetica,sans-serif; font-size:48px; text-anchor:start;" transform="rotate(0, 1655.01, 404.135)" x="1655.01" y="404.135">smallest 72.99% interval(s)</text>
</g>
<polygon clip-path="url(#clip6200)" points="
1487.01,471.307 1631.01,471.307 1631.01,422.923 1487.01,422.923 1487.01,471.307 
  " fill="#808080" fill-rule="evenodd" fill-opacity="0.5"/>
<polyline clip-path="url(#clip6200)" style="stroke:#000000; stroke-width:0; stroke-opacity:1; fill:none" points="
  1487.01,471.307 1631.01,471.307 1631.01,422.923 1487.01,422.923 1487.01,471.307 
  "/>
<g clip-path="url(#clip6200)">
<text style="fill:#000000; fill-opacity:1; font-family:Arial,Helvetica Neue,Helvetica,sans-serif; font-size:48px; text-anchor:start;" transform="rotate(0, 1655.01, 464.615)" x="1655.01" y="464.615">std. dev.</text>
</g>
<polyline clip-path="url(#clip6200)" style="stroke:#696969; stroke-width:4; stroke-opacity:1; fill:none" points="
  1487.01,507.595 1631.01,507.595 
  "/>
<g clip-path="url(#clip6200)">
<text style="fill:#000000; fill-opacity:1; font-family:Arial,Helvetica Neue,Helvetica,sans-serif; font-size:48px; text-anchor:start;" transform="rotate(0, 1655.01, 525.095)" x="1655.01" y="525.095">mean</text>
</g>
<polyline clip-path="url(#clip6200)" style="stroke:#000000; stroke-width:4; stroke-opacity:1; fill:none" stroke-dasharray="16, 10" points="
  1487.01,568.075 1631.01,568.075 
  "/>
<g clip-path="url(#clip6200)">
<text style="fill:#000000; fill-opacity:1; font-family:Arial,Helvetica Neue,Helvetica,sans-serif; font-size:48px; text-anchor:start;" transform="rotate(0, 1655.01, 585.575)" x="1655.01" y="585.575">global mode</text>
</g>
<polyline clip-path="url(#clip6200)" style="stroke:#000000; stroke-width:4; stroke-opacity:1; fill:none" stroke-dasharray="2, 4" points="
  1487.01,628.555 1631.01,628.555 
  "/>
<g clip-path="url(#clip6200)">
<text style="fill:#000000; fill-opacity:1; font-family:Arial,Helvetica Neue,Helvetica,sans-serif; font-size:48px; text-anchor:start;" transform="rotate(0, 1655.01, 646.055)" x="1655.01" y="646.055">local mode</text>
</g>
</svg>
