<?xml version="1.0" encoding="utf-8"?>
<svg xmlns="http://www.w3.org/2000/svg" xmlns:xlink="http://www.w3.org/1999/xlink" width="600" height="400" viewBox="0 0 2400 1600">
<defs>
  <clipPath id="clip0800">
    <rect x="0" y="0" width="2400" height="1600"/>
  </clipPath>
</defs>
<path clip-path="url(#clip0800)" d="
M0 1600 L2400 1600 L2400 0 L0 0  Z
  " fill="#ffffff" fill-rule="evenodd" fill-opacity="1"/>
<defs>
  <clipPath id="clip0801">
    <rect x="480" y="0" width="1681" height="1600"/>
  </clipPath>
</defs>
<path clip-path="url(#clip0800)" d="
M167.279 1487.47 L2352.76 1487.47 L2352.76 121.675 L167.279 121.675  Z
  " fill="#ffffff" fill-rule="evenodd" fill-opacity="1"/>
<defs>
  <clipPath id="clip0802">
    <rect x="167" y="121" width="2186" height="1367"/>
  </clipPath>
</defs>
<polyline clip-path="url(#clip0802)" style="stroke:#000000; stroke-width:2; stroke-opacity:0.1; fill:none" points="
  229.132,1487.47 229.132,121.675 
  "/>
<polyline clip-path="url(#clip0802)" style="stroke:#000000; stroke-width:2; stroke-opacity:0.1; fill:none" points="
  744.575,1487.47 744.575,121.675 
  "/>
<polyline clip-path="url(#clip0802)" style="stroke:#000000; stroke-width:2; stroke-opacity:0.1; fill:none" points="
  1260.02,1487.47 1260.02,121.675 
  "/>
<polyline clip-path="url(#clip0802)" style="stroke:#000000; stroke-width:2; stroke-opacity:0.1; fill:none" points="
  1775.46,1487.47 1775.46,121.675 
  "/>
<polyline clip-path="url(#clip0802)" style="stroke:#000000; stroke-width:2; stroke-opacity:0.1; fill:none" points="
  2290.9,1487.47 2290.9,121.675 
  "/>
<polyline clip-path="url(#clip0802)" style="stroke:#000000; stroke-width:2; stroke-opacity:0.1; fill:none" points="
  167.279,1448.82 2352.76,1448.82 
  "/>
<polyline clip-path="url(#clip0802)" style="stroke:#000000; stroke-width:2; stroke-opacity:0.1; fill:none" points="
  167.279,1142.04 2352.76,1142.04 
  "/>
<polyline clip-path="url(#clip0802)" style="stroke:#000000; stroke-width:2; stroke-opacity:0.1; fill:none" points="
  167.279,835.253 2352.76,835.253 
  "/>
<polyline clip-path="url(#clip0802)" style="stroke:#000000; stroke-width:2; stroke-opacity:0.1; fill:none" points="
  167.279,528.47 2352.76,528.47 
  "/>
<polyline clip-path="url(#clip0802)" style="stroke:#000000; stroke-width:2; stroke-opacity:0.1; fill:none" points="
  167.279,221.687 2352.76,221.687 
  "/>
<polyline clip-path="url(#clip0800)" style="stroke:#000000; stroke-width:4; stroke-opacity:1; fill:none" points="
  167.279,1487.47 2352.76,1487.47 
  "/>
<polyline clip-path="url(#clip0800)" style="stroke:#000000; stroke-width:4; stroke-opacity:1; fill:none" points="
  167.279,1487.47 167.279,121.675 
  "/>
<polyline clip-path="url(#clip0800)" style="stroke:#000000; stroke-width:4; stroke-opacity:1; fill:none" points="
  229.132,1487.47 229.132,1466.99 
  "/>
<polyline clip-path="url(#clip0800)" style="stroke:#000000; stroke-width:4; stroke-opacity:1; fill:none" points="
  744.575,1487.47 744.575,1466.99 
  "/>
<polyline clip-path="url(#clip0800)" style="stroke:#000000; stroke-width:4; stroke-opacity:1; fill:none" points="
  1260.02,1487.47 1260.02,1466.99 
  "/>
<polyline clip-path="url(#clip0800)" style="stroke:#000000; stroke-width:4; stroke-opacity:1; fill:none" points="
  1775.46,1487.47 1775.46,1466.99 
  "/>
<polyline clip-path="url(#clip0800)" style="stroke:#000000; stroke-width:4; stroke-opacity:1; fill:none" points="
  2290.9,1487.47 2290.9,1466.99 
  "/>
<polyline clip-path="url(#clip0800)" style="stroke:#000000; stroke-width:4; stroke-opacity:1; fill:none" points="
  167.279,1448.82 200.061,1448.82 
  "/>
<polyline clip-path="url(#clip0800)" style="stroke:#000000; stroke-width:4; stroke-opacity:1; fill:none" points="
  167.279,1142.04 200.061,1142.04 
  "/>
<polyline clip-path="url(#clip0800)" style="stroke:#000000; stroke-width:4; stroke-opacity:1; fill:none" points="
  167.279,835.253 200.061,835.253 
  "/>
<polyline clip-path="url(#clip0800)" style="stroke:#000000; stroke-width:4; stroke-opacity:1; fill:none" points="
  167.279,528.47 200.061,528.47 
  "/>
<polyline clip-path="url(#clip0800)" style="stroke:#000000; stroke-width:4; stroke-opacity:1; fill:none" points="
  167.279,221.687 200.061,221.687 
  "/>
<g clip-path="url(#clip0800)">
<text style="fill:#000000; fill-opacity:1; font-family:Arial,Helvetica Neue,Helvetica,sans-serif; font-size:48px; text-anchor:middle;" transform="rotate(0, 229.132, 1541.47)" x="229.132" y="1541.47">-4</text>
</g>
<g clip-path="url(#clip0800)">
<text style="fill:#000000; fill-opacity:1; font-family:Arial,Helvetica Neue,Helvetica,sans-serif; font-size:48px; text-anchor:middle;" transform="rotate(0, 744.575, 1541.47)" x="744.575" y="1541.47">-2</text>
</g>
<g clip-path="url(#clip0800)">
<text style="fill:#000000; fill-opacity:1; font-family:Arial,Helvetica Neue,Helvetica,sans-serif; font-size:48px; text-anchor:middle;" transform="rotate(0, 1260.02, 1541.47)" x="1260.02" y="1541.47">0</text>
</g>
<g clip-path="url(#clip0800)">
<text style="fill:#000000; fill-opacity:1; font-family:Arial,Helvetica Neue,Helvetica,sans-serif; font-size:48px; text-anchor:middle;" transform="rotate(0, 1775.46, 1541.47)" x="1775.46" y="1541.47">2</text>
</g>
<g clip-path="url(#clip0800)">
<text style="fill:#000000; fill-opacity:1; font-family:Arial,Helvetica Neue,Helvetica,sans-serif; font-size:48px; text-anchor:middle;" transform="rotate(0, 2290.9, 1541.47)" x="2290.9" y="1541.47">4</text>
</g>
<g clip-path="url(#clip0800)">
<text style="fill:#000000; fill-opacity:1; font-family:Arial,Helvetica Neue,Helvetica,sans-serif; font-size:48px; text-anchor:end;" transform="rotate(0, 143.279, 1466.32)" x="143.279" y="1466.32">0</text>
</g>
<g clip-path="url(#clip0800)">
<text style="fill:#000000; fill-opacity:1; font-family:Arial,Helvetica Neue,Helvetica,sans-serif; font-size:48px; text-anchor:end;" transform="rotate(0, 143.279, 1159.54)" x="143.279" y="1159.54">200</text>
</g>
<g clip-path="url(#clip0800)">
<text style="fill:#000000; fill-opacity:1; font-family:Arial,Helvetica Neue,Helvetica,sans-serif; font-size:48px; text-anchor:end;" transform="rotate(0, 143.279, 852.753)" x="143.279" y="852.753">400</text>
</g>
<g clip-path="url(#clip0800)">
<text style="fill:#000000; fill-opacity:1; font-family:Arial,Helvetica Neue,Helvetica,sans-serif; font-size:48px; text-anchor:end;" transform="rotate(0, 143.279, 545.97)" x="143.279" y="545.97">600</text>
</g>
<g clip-path="url(#clip0800)">
<text style="fill:#000000; fill-opacity:1; font-family:Arial,Helvetica Neue,Helvetica,sans-serif; font-size:48px; text-anchor:end;" transform="rotate(0, 143.279, 239.187)" x="143.279" y="239.187">800</text>
</g>
<g clip-path="url(#clip0800)">
<text style="fill:#000000; fill-opacity:1; font-family:Arial,Helvetica Neue,Helvetica,sans-serif; font-size:84px; text-anchor:middle;" transform="rotate(0, 1260.02, 73.2)" x="1260.02" y="73.2">Data, True Model and Best Fit</text>
</g>
<polyline clip-path="url(#clip0802)" style="stroke:#009af9; stroke-width:4; stroke-opacity:1; fill:none" points="
  744.575,1448.82 744.575,1387.46 770.347,1387.46 770.347,1310.77 796.119,1310.77 796.119,1249.41 821.891,1249.41 821.891,1264.75 847.663,1264.75 847.663,1157.38 
  873.436,1157.38 873.436,1019.32 899.208,1019.32 899.208,942.627 924.98,942.627 924.98,957.967 950.752,957.967 950.752,850.592 976.524,850.592 976.524,927.288 
  1002.3,927.288 1002.3,804.575 1028.07,804.575 1028.07,1080.68 1053.84,1080.68 1053.84,620.505 1079.61,620.505 1079.61,957.967 1105.38,957.967 1105.38,1034.66 
  1131.16,1034.66 1131.16,1142.04 1156.93,1142.04 1156.93,1218.73 1182.7,1218.73 1182.7,1188.05 1208.47,1188.05 1208.47,1218.73 1234.25,1218.73 1234.25,1372.12 
  1260.02,1372.12 1260.02,1341.45 1285.79,1341.45 1285.79,1402.8 1311.56,1402.8 1311.56,1433.48 1337.33,1433.48 1337.33,1418.14 1363.11,1418.14 
  1388.88,1418.14 1414.65,1418.14 1440.42,1418.14 1440.42,1433.48 1466.19,1433.48 1466.19,1372.12 1491.97,1372.12 1491.97,1295.43 
  1517.74,1295.43 1517.74,1249.41 1543.51,1249.41 1543.51,1172.71 1569.28,1172.71 1569.28,1034.66 1595.06,1034.66 1595.06,957.967 1620.83,957.967 1620.83,911.949 
  1646.6,911.949 1646.6,528.47 1672.37,528.47 1672.37,482.452 1698.14,482.452 1698.14,344.4 1723.92,344.4 1723.92,160.33 1749.69,160.33 1749.69,651.183 
  1775.46,651.183 1775.46,237.026 1801.23,237.026 1801.23,298.382 1827,298.382 1827,589.827 1852.78,589.827 1852.78,329.061 1878.55,329.061 1878.55,451.774 
  1904.32,451.774 1904.32,666.522 1930.09,666.522 1930.09,819.914 1955.87,819.914 1955.87,973.306 1981.64,973.306 1981.64,1188.05 2007.41,1188.05 2007.41,1326.11 
  2033.18,1326.11 2033.18,1280.09 2058.95,1280.09 2058.95,1341.45 2084.73,1341.45 2084.73,1387.46 2110.5,1387.46 2110.5,1402.8 2136.27,1402.8 2136.27,1418.14 
  2162.04,1418.14 2162.04,1448.82 2187.81,1448.82 2213.59,1448.82 2239.36,1448.82 2265.13,1448.82 
  2290.9,1448.82 
  "/>
<polyline clip-path="url(#clip0802)" style="stroke:#e26f46; stroke-width:4; stroke-opacity:1; fill:none" points="
  229.132,1448.82 231.709,1448.82 234.287,1448.82 236.864,1448.82 239.441,1448.82 242.018,1448.82 244.596,1448.82 247.173,1448.82 249.75,1448.82 252.327,1448.82 
  254.904,1448.82 257.482,1448.82 260.059,1448.82 262.636,1448.82 265.213,1448.82 267.79,1448.82 270.368,1448.82 272.945,1448.82 275.522,1448.82 278.099,1448.82 
  280.677,1448.82 283.254,1448.82 285.831,1448.82 288.408,1448.82 290.985,1448.82 293.563,1448.82 296.14,1448.82 298.717,1448.82 301.294,1448.82 303.871,1448.82 
  306.449,1448.82 309.026,1448.82 311.603,1448.82 314.18,1448.82 316.758,1448.82 319.335,1448.82 321.912,1448.82 324.489,1448.82 327.066,1448.82 329.644,1448.82 
  332.221,1448.82 334.798,1448.82 337.375,1448.82 339.952,1448.82 342.53,1448.82 345.107,1448.82 347.684,1448.82 350.261,1448.82 352.838,1448.82 355.416,1448.82 
  357.993,1448.82 360.57,1448.82 363.147,1448.82 365.725,1448.82 368.302,1448.82 370.879,1448.82 373.456,1448.82 376.033,1448.82 378.611,1448.82 381.188,1448.81 
  383.765,1448.81 386.342,1448.81 388.919,1448.81 391.497,1448.81 394.074,1448.81 396.651,1448.81 399.228,1448.81 401.806,1448.81 404.383,1448.81 406.96,1448.81 
  409.537,1448.8 412.114,1448.8 414.692,1448.8 417.269,1448.8 419.846,1448.8 422.423,1448.8 425,1448.79 427.578,1448.79 430.155,1448.79 432.732,1448.78 
  435.309,1448.78 437.887,1448.78 440.464,1448.77 443.041,1448.77 445.618,1448.77 448.195,1448.76 450.773,1448.76 453.35,1448.75 455.927,1448.74 458.504,1448.74 
  461.081,1448.73 463.659,1448.72 466.236,1448.71 468.813,1448.7 471.39,1448.69 473.968,1448.68 476.545,1448.67 479.122,1448.66 481.699,1448.65 484.276,1448.63 
  486.854,1448.61 489.431,1448.6 492.008,1448.58 494.585,1448.56 497.162,1448.54 499.74,1448.52 502.317,1448.49 504.894,1448.46 507.471,1448.44 510.048,1448.41 
  512.626,1448.37 515.203,1448.34 517.78,1448.3 520.357,1448.26 522.935,1448.22 525.512,1448.17 528.089,1448.12 530.666,1448.07 533.243,1448.01 535.821,1447.95 
  538.398,1447.88 540.975,1447.81 543.552,1447.74 546.129,1447.66 548.707,1447.57 551.284,1447.48 553.861,1447.38 556.438,1447.28 559.016,1447.17 561.593,1447.05 
  564.17,1446.93 566.747,1446.8 569.324,1446.66 571.902,1446.51 574.479,1446.35 577.056,1446.18 579.633,1446 582.21,1445.81 584.788,1445.6 587.365,1445.39 
  589.942,1445.16 592.519,1444.92 595.097,1444.67 597.674,1444.4 600.251,1444.11 602.828,1443.81 605.405,1443.49 607.983,1443.15 610.56,1442.8 613.137,1442.42 
  615.714,1442.02 618.291,1441.6 620.869,1441.16 623.446,1440.7 626.023,1440.21 628.6,1439.69 631.178,1439.15 633.755,1438.57 636.332,1437.97 638.909,1437.34 
  641.486,1436.68 644.064,1435.98 646.641,1435.25 649.218,1434.48 651.795,1433.68 654.372,1432.84 656.95,1431.95 659.527,1431.03 662.104,1430.06 664.681,1429.04 
  667.258,1427.98 669.836,1426.88 672.413,1425.72 674.99,1424.51 677.567,1423.25 680.145,1421.93 682.722,1420.56 685.299,1419.13 687.876,1417.64 690.453,1416.09 
  693.031,1414.47 695.608,1412.79 698.185,1411.04 700.762,1409.22 703.339,1407.33 705.917,1405.37 708.494,1403.33 711.071,1401.22 713.648,1399.03 716.226,1396.76 
  718.803,1394.4 721.38,1391.97 723.957,1389.45 726.534,1386.84 729.112,1384.14 731.689,1381.35 734.266,1378.47 736.843,1375.5 739.42,1372.43 741.998,1369.27 
  744.575,1366 747.152,1362.64 749.729,1359.18 752.307,1355.61 754.884,1351.94 757.461,1348.17 760.038,1344.29 762.615,1340.31 765.193,1336.22 767.77,1332.02 
  770.347,1327.72 772.924,1323.3 775.501,1318.78 778.079,1314.15 780.656,1309.41 783.233,1304.56 785.81,1299.6 788.388,1294.53 790.965,1289.35 793.542,1284.07 
  796.119,1278.68 798.696,1273.18 801.274,1267.58 803.851,1261.87 806.428,1256.06 809.005,1250.15 811.582,1244.14 814.16,1238.03 816.737,1231.83 819.314,1225.54 
  821.891,1219.15 824.469,1212.68 827.046,1206.12 829.623,1199.47 832.2,1192.75 834.777,1185.95 837.355,1179.08 839.932,1172.15 842.509,1165.14 845.086,1158.08 
  847.663,1150.95 850.241,1143.78 852.818,1136.56 855.395,1129.29 857.972,1121.99 860.549,1114.65 863.127,1107.29 865.704,1099.9 868.281,1092.5 870.858,1085.08 
  873.436,1077.66 876.013,1070.23 878.59,1062.82 881.167,1055.41 883.744,1048.03 886.322,1040.67 888.899,1033.34 891.476,1026.04 894.053,1018.8 896.63,1011.6 
  899.208,1004.46 901.785,997.381 904.362,990.375 906.939,983.446 909.517,976.602 912.094,969.848 914.671,963.193 917.248,956.642 919.825,950.202 922.403,943.879 
  924.98,937.681 927.557,931.614 930.134,925.684 932.711,919.898 935.289,914.261 937.866,908.781 940.443,903.463 943.02,898.312 945.598,893.335 948.175,888.537 
  950.752,883.924 953.329,879.501 955.906,875.272 958.484,871.243 961.061,867.419 963.638,863.803 966.215,860.4 968.792,857.214 971.37,854.248 973.947,851.507 
  976.524,848.993 979.101,846.709 981.679,844.659 984.256,842.843 986.833,841.266 989.41,839.928 991.987,838.831 994.565,837.976 997.142,837.365 999.719,836.998 
  1002.3,836.876 1004.87,836.998 1007.45,837.365 1010.03,837.976 1012.61,838.831 1015.18,839.928 1017.76,841.266 1020.34,842.843 1022.91,844.659 1025.49,846.709 
  1028.07,848.993 1030.65,851.507 1033.22,854.248 1035.8,857.214 1038.38,860.4 1040.95,863.803 1043.53,867.419 1046.11,871.243 1048.69,875.272 1051.26,879.501 
  1053.84,883.924 1056.42,888.537 1058.99,893.335 1061.57,898.312 1064.15,903.462 1066.73,908.781 1069.3,914.261 1071.88,919.897 1074.46,925.684 1077.04,931.614 
  1079.61,937.681 1082.19,943.879 1084.77,950.201 1087.34,956.641 1089.92,963.192 1092.5,969.847 1095.08,976.601 1097.65,983.445 1100.23,990.373 1102.81,997.379 
  1105.38,1004.46 1107.96,1011.6 1110.54,1018.79 1113.12,1026.04 1115.69,1033.33 1118.27,1040.66 1120.85,1048.03 1123.43,1055.41 1126,1062.81 1128.58,1070.23 
  1131.16,1077.65 1133.73,1085.07 1136.31,1092.49 1138.89,1099.89 1141.47,1107.28 1144.04,1114.65 1146.62,1121.98 1149.2,1129.28 1151.77,1136.55 1154.35,1143.77 
  1156.93,1150.94 1159.51,1158.06 1162.08,1165.13 1164.66,1172.13 1167.24,1179.07 1169.82,1185.94 1172.39,1192.73 1174.97,1199.45 1177.55,1206.09 1180.12,1212.65 
  1182.7,1219.12 1185.28,1225.5 1187.86,1231.79 1190.43,1237.99 1193.01,1244.1 1195.59,1250.1 1198.16,1256.01 1200.74,1261.81 1203.32,1267.51 1205.9,1273.11 
  1208.47,1278.6 1211.05,1283.98 1213.63,1289.26 1216.2,1294.43 1218.78,1299.49 1221.36,1304.44 1223.94,1309.28 1226.51,1314.01 1229.09,1318.63 1231.67,1323.14 
  1234.25,1327.54 1236.82,1331.83 1239.4,1336.01 1241.98,1340.08 1244.55,1344.04 1247.13,1347.9 1249.71,1351.65 1252.29,1355.29 1254.86,1358.83 1257.44,1362.26 
  1260.02,1365.59 1262.59,1368.82 1265.17,1371.95 1267.75,1374.98 1270.33,1377.91 1272.9,1380.74 1275.48,1383.48 1278.06,1386.13 1280.64,1388.68 1283.21,1391.14 
  1285.79,1393.51 1288.37,1395.79 1290.94,1397.99 1293.52,1400.1 1296.1,1402.12 1298.68,1404.07 1301.25,1405.93 1303.83,1407.71 1306.41,1409.41 1308.98,1411.04 
  1311.56,1412.59 1314.14,1414.07 1316.72,1415.47 1319.29,1416.8 1321.87,1418.06 1324.45,1419.26 1327.03,1420.38 1329.6,1421.43 1332.18,1422.42 1334.76,1423.35 
  1337.33,1424.2 1339.91,1425 1342.49,1425.73 1345.07,1426.4 1347.64,1427.01 1350.22,1427.55 1352.8,1428.03 1355.37,1428.46 1357.95,1428.82 1360.53,1429.12 
  1363.11,1429.36 1365.68,1429.55 1368.26,1429.67 1370.84,1429.73 1373.41,1429.73 1375.99,1429.67 1378.57,1429.54 1381.15,1429.36 1383.72,1429.11 1386.3,1428.8 
  1388.88,1428.43 1391.46,1427.99 1394.03,1427.48 1396.61,1426.9 1399.19,1426.26 1401.76,1425.55 1404.34,1424.76 1406.92,1423.91 1409.5,1422.97 1412.07,1421.97 
  1414.65,1420.88 1417.23,1419.71 1419.8,1418.47 1422.38,1417.13 1424.96,1415.71 1427.54,1414.21 1430.11,1412.61 1432.69,1410.92 1435.27,1409.13 1437.85,1407.25 
  1440.42,1405.26 1443,1403.17 1445.58,1400.97 1448.15,1398.66 1450.73,1396.24 1453.31,1393.71 1455.89,1391.05 1458.46,1388.28 1461.04,1385.37 1463.62,1382.34 
  1466.19,1379.18 1468.77,1375.88 1471.35,1372.44 1473.93,1368.86 1476.5,1365.14 1479.08,1361.27 1481.66,1357.24 1484.24,1353.06 1486.81,1348.72 1489.39,1344.21 
  1491.97,1339.54 1494.54,1334.7 1497.12,1329.69 1499.7,1324.5 1502.28,1319.13 1504.85,1313.58 1507.43,1307.84 1510.01,1301.92 1512.58,1295.8 1515.16,1289.49 
  1517.74,1282.98 1520.32,1276.27 1522.89,1269.36 1525.47,1262.24 1528.05,1254.92 1530.62,1247.38 1533.2,1239.64 1535.78,1231.68 1538.36,1223.51 1540.93,1215.13 
  1543.51,1206.52 1546.09,1197.7 1548.67,1188.66 1551.24,1179.41 1553.82,1169.93 1556.4,1160.23 1558.97,1150.32 1561.55,1140.19 1564.13,1129.84 1566.71,1119.27 
  1569.28,1108.5 1571.86,1097.5 1574.44,1086.3 1577.01,1074.89 1579.59,1063.27 1582.17,1051.46 1584.75,1039.44 1587.32,1027.23 1589.9,1014.83 1592.48,1002.24 
  1595.06,989.465 1597.63,976.518 1600.21,963.4 1602.79,950.116 1605.36,936.674 1607.94,923.08 1610.52,909.34 1613.1,895.463 1615.67,881.456 1618.25,867.326 
  1620.83,853.083 1623.4,838.736 1625.98,824.292 1628.56,809.762 1631.14,795.155 1633.71,780.482 1636.29,765.753 1638.87,750.978 1641.45,736.169 1644.02,721.336 
  1646.6,706.492 1649.18,691.647 1651.75,676.815 1654.33,662.007 1656.91,647.236 1659.49,632.513 1662.06,617.853 1664.64,603.268 1667.22,588.771 1669.79,574.375 
  1672.37,560.094 1674.95,545.94 1677.53,531.928 1680.1,518.072 1682.68,504.383 1685.26,490.876 1687.83,477.565 1690.41,464.463 1692.99,451.583 1695.57,438.938 
  1698.14,426.542 1700.72,414.408 1703.3,402.548 1705.88,390.976 1708.45,379.703 1711.03,368.742 1713.61,358.105 1716.18,347.804 1718.76,337.85 1721.34,328.255 
  1723.92,319.028 1726.49,310.182 1729.07,301.724 1731.65,293.667 1734.22,286.017 1736.8,278.786 1739.38,271.98 1741.96,265.608 1744.53,259.677 1747.11,254.194 
  1749.69,249.166 1752.27,244.599 1754.84,240.497 1757.42,236.867 1760,233.712 1762.57,231.036 1765.15,228.842 1767.73,227.132 1770.31,225.91 1772.88,225.176 
  1775.46,224.931 1778.04,225.176 1780.61,225.91 1783.19,227.132 1785.77,228.842 1788.35,231.036 1790.92,233.712 1793.5,236.867 1796.08,240.497 1798.66,244.599 
  1801.23,249.166 1803.81,254.194 1806.39,259.677 1808.96,265.608 1811.54,271.98 1814.12,278.786 1816.7,286.017 1819.27,293.667 1821.85,301.724 1824.43,310.182 
  1827,319.028 1829.58,328.255 1832.16,337.85 1834.74,347.804 1837.31,358.105 1839.89,368.742 1842.47,379.703 1845.04,390.976 1847.62,402.548 1850.2,414.408 
  1852.78,426.542 1855.35,438.938 1857.93,451.583 1860.51,464.463 1863.09,477.566 1865.66,490.877 1868.24,504.384 1870.82,518.072 1873.39,531.929 1875.97,545.941 
  1878.55,560.094 1881.13,574.376 1883.7,588.772 1886.28,603.269 1888.86,617.854 1891.43,632.515 1894.01,647.237 1896.59,662.009 1899.17,676.817 1901.74,691.65 
  1904.32,706.494 1906.9,721.339 1909.48,736.171 1912.05,750.981 1914.63,765.756 1917.21,780.486 1919.78,795.159 1922.36,809.766 1924.94,824.297 1927.52,838.741 
  1930.09,853.089 1932.67,867.333 1935.25,881.463 1937.82,895.471 1940.4,909.349 1942.98,923.09 1945.56,936.685 1948.13,950.128 1950.71,963.413 1953.29,976.532 
  1955.87,989.481 1958.44,1002.25 1961.02,1014.84 1963.6,1027.25 1966.17,1039.46 1968.75,1051.48 1971.33,1063.3 1973.91,1074.92 1976.48,1086.33 1979.06,1097.54 
  1981.64,1108.53 1984.21,1119.32 1986.79,1129.88 1989.37,1140.24 1991.95,1150.37 1994.52,1160.29 1997.1,1169.99 1999.68,1179.48 2002.25,1188.74 2004.83,1197.79 
  2007.41,1206.61 2009.99,1215.23 2012.56,1223.62 2015.14,1231.8 2017.72,1239.77 2020.3,1247.52 2022.87,1255.07 2025.45,1262.4 2028.03,1269.53 2030.6,1276.46 
  2033.18,1283.18 2035.76,1289.71 2038.34,1296.04 2040.91,1302.18 2043.49,1308.13 2046.07,1313.89 2048.64,1319.46 2051.22,1324.86 2053.8,1330.07 2056.38,1335.12 
  2058.95,1339.99 2061.53,1344.7 2064.11,1349.24 2066.69,1353.62 2069.26,1357.84 2071.84,1361.92 2074.42,1365.84 2076.99,1369.62 2079.57,1373.26 2082.15,1376.75 
  2084.73,1380.12 2087.3,1383.35 2089.88,1386.46 2092.46,1389.44 2095.03,1392.3 2097.61,1395.05 2100.19,1397.68 2102.77,1400.2 2105.34,1402.62 2107.92,1404.93 
  2110.5,1407.15 2113.08,1409.27 2115.65,1411.3 2118.23,1413.23 2120.81,1415.08 2123.38,1416.85 2125.96,1418.54 2128.54,1420.15 2131.12,1421.68 2133.69,1423.14 
  2136.27,1424.54 2138.85,1425.86 2141.42,1427.13 2144,1428.33 2146.58,1429.47 2149.16,1430.56 2151.73,1431.59 2154.31,1432.57 2156.89,1433.5 2159.46,1434.39 
  2162.04,1435.22 2164.62,1436.02 2167.2,1436.77 2169.77,1437.48 2172.35,1438.16 2174.93,1438.8 2177.51,1439.4 2180.08,1439.97 2182.66,1440.51 2185.24,1441.02 
  2187.81,1441.51 2190.39,1441.96 2192.97,1442.39 2195.55,1442.79 2198.12,1443.18 2200.7,1443.54 2203.28,1443.87 2205.85,1444.19 2208.43,1444.49 2211.01,1444.77 
  2213.59,1445.04 2216.16,1445.29 2218.74,1445.52 2221.32,1445.74 2223.9,1445.95 2226.47,1446.14 2229.05,1446.32 2231.63,1446.49 2234.2,1446.65 2236.78,1446.8 
  2239.36,1446.94 2241.94,1447.07 2244.51,1447.2 2247.09,1447.31 2249.67,1447.42 2252.24,1447.52 2254.82,1447.61 2257.4,1447.7 2259.98,1447.78 2262.55,1447.85 
  2265.13,1447.92 2267.71,1447.99 2270.29,1448.05 2272.86,1448.11 2275.44,1448.16 2278.02,1448.21 2280.59,1448.26 2283.17,1448.3 2285.75,1448.34 2288.33,1448.38 
  2290.9,1448.41 
  "/>
<polyline clip-path="url(#clip0802)" style="stroke:#3da44d; stroke-width:4; stroke-opacity:1; fill:none" points="
  229.132,1448.82 231.709,1448.82 234.287,1448.82 236.864,1448.82 239.441,1448.82 242.018,1448.82 244.596,1448.82 247.173,1448.82 249.75,1448.82 252.327,1448.82 
  254.904,1448.82 257.482,1448.82 260.059,1448.82 262.636,1448.82 265.213,1448.82 267.79,1448.82 270.368,1448.82 272.945,1448.82 275.522,1448.82 278.099,1448.82 
  280.677,1448.82 283.254,1448.82 285.831,1448.82 288.408,1448.82 290.985,1448.82 293.563,1448.82 296.14,1448.82 298.717,1448.82 301.294,1448.82 303.871,1448.82 
  306.449,1448.82 309.026,1448.82 311.603,1448.82 314.18,1448.82 316.758,1448.82 319.335,1448.82 321.912,1448.82 324.489,1448.82 327.066,1448.82 329.644,1448.82 
  332.221,1448.82 334.798,1448.82 337.375,1448.82 339.952,1448.82 342.53,1448.82 345.107,1448.82 347.684,1448.82 350.261,1448.82 352.838,1448.82 355.416,1448.82 
  357.993,1448.82 360.57,1448.82 363.147,1448.82 365.725,1448.82 368.302,1448.82 370.879,1448.82 373.456,1448.82 376.033,1448.82 378.611,1448.82 381.188,1448.82 
  383.765,1448.82 386.342,1448.81 388.919,1448.81 391.497,1448.81 394.074,1448.81 396.651,1448.81 399.228,1448.81 401.806,1448.81 404.383,1448.81 406.96,1448.81 
  409.537,1448.81 412.114,1448.81 414.692,1448.81 417.269,1448.8 419.846,1448.8 422.423,1448.8 425,1448.8 427.578,1448.8 430.155,1448.79 432.732,1448.79 
  435.309,1448.79 437.887,1448.79 440.464,1448.78 443.041,1448.78 445.618,1448.78 448.195,1448.77 450.773,1448.77 453.35,1448.77 455.927,1448.76 458.504,1448.75 
  461.081,1448.75 463.659,1448.74 466.236,1448.74 468.813,1448.73 471.39,1448.72 473.968,1448.71 476.545,1448.7 479.122,1448.69 481.699,1448.68 484.276,1448.67 
  486.854,1448.66 489.431,1448.64 492.008,1448.63 494.585,1448.61 497.162,1448.6 499.74,1448.58 502.317,1448.56 504.894,1448.54 507.471,1448.51 510.048,1448.49 
  512.626,1448.46 515.203,1448.44 517.78,1448.41 520.357,1448.37 522.935,1448.34 525.512,1448.3 528.089,1448.26 530.666,1448.22 533.243,1448.17 535.821,1448.12 
  538.398,1448.07 540.975,1448.01 543.552,1447.95 546.129,1447.89 548.707,1447.82 551.284,1447.74 553.861,1447.67 556.438,1447.58 559.016,1447.49 561.593,1447.4 
  564.17,1447.3 566.747,1447.19 569.324,1447.07 571.902,1446.95 574.479,1446.82 577.056,1446.68 579.633,1446.53 582.21,1446.38 584.788,1446.21 587.365,1446.03 
  589.942,1445.85 592.519,1445.65 595.097,1445.44 597.674,1445.21 600.251,1444.98 602.828,1444.73 605.405,1444.46 607.983,1444.18 610.56,1443.89 613.137,1443.58 
  615.714,1443.25 618.291,1442.9 620.869,1442.53 623.446,1442.14 626.023,1441.73 628.6,1441.3 631.178,1440.85 633.755,1440.37 636.332,1439.86 638.909,1439.33 
  641.486,1438.78 644.064,1438.19 646.641,1437.57 649.218,1436.93 651.795,1436.25 654.372,1435.54 656.95,1434.79 659.527,1434 662.104,1433.18 664.681,1432.32 
  667.258,1431.42 669.836,1430.48 672.413,1429.49 674.99,1428.46 677.567,1427.39 680.145,1426.26 682.722,1425.08 685.299,1423.86 687.876,1422.58 690.453,1421.24 
  693.031,1419.85 695.608,1418.4 698.185,1416.89 700.762,1415.32 703.339,1413.69 705.917,1411.99 708.494,1410.22 711.071,1408.39 713.648,1406.48 716.226,1404.51 
  718.803,1402.46 721.38,1400.33 723.957,1398.12 726.534,1395.84 729.112,1393.47 731.689,1391.03 734.266,1388.49 736.843,1385.87 739.42,1383.17 741.998,1380.37 
  744.575,1377.49 747.152,1374.51 749.729,1371.43 752.307,1368.27 754.884,1365 757.461,1361.64 760.038,1358.18 762.615,1354.62 765.193,1350.95 767.77,1347.19 
  770.347,1343.32 772.924,1339.35 775.501,1335.27 778.079,1331.09 780.656,1326.8 783.233,1322.4 785.81,1317.9 788.388,1313.29 790.965,1308.58 793.542,1303.76 
  796.119,1298.83 798.696,1293.8 801.274,1288.66 803.851,1283.41 806.428,1278.06 809.005,1272.61 811.582,1267.06 814.16,1261.4 816.737,1255.65 819.314,1249.79 
  821.891,1243.84 824.469,1237.8 827.046,1231.66 829.623,1225.44 832.2,1219.12 834.777,1212.72 837.355,1206.24 839.932,1199.68 842.509,1193.04 845.086,1186.33 
  847.663,1179.55 850.241,1172.7 852.818,1165.79 855.395,1158.82 857.972,1151.8 860.549,1144.73 863.127,1137.61 865.704,1130.45 868.281,1123.26 870.858,1116.04 
  873.436,1108.78 876.013,1101.51 878.59,1094.23 881.167,1086.93 883.744,1079.63 886.322,1072.33 888.899,1065.03 891.476,1057.75 894.053,1050.49 896.63,1043.26 
  899.208,1036.06 901.785,1028.89 904.362,1021.77 906.939,1014.7 909.517,1007.69 912.094,1000.74 914.671,993.861 917.248,987.059 919.825,980.341 922.403,973.712 
  924.98,967.181 927.557,960.752 930.134,954.433 932.711,948.229 935.289,942.149 937.866,936.196 940.443,930.379 943.02,924.703 945.598,919.174 948.175,913.798 
  950.752,908.58 953.329,903.528 955.906,898.645 958.484,893.938 961.061,889.412 963.638,885.072 966.215,880.922 968.792,876.968 971.37,873.214 973.947,869.663 
  976.524,866.321 979.101,863.192 981.679,860.278 984.256,857.583 986.833,855.11 989.41,852.862 991.987,850.842 994.565,849.053 997.142,847.495 999.719,846.172 
  1002.3,845.084 1004.87,844.233 1007.45,843.62 1010.03,843.246 1012.61,843.11 1015.18,843.214 1017.76,843.558 1020.34,844.139 1022.91,844.959 1025.49,846.016 
  1028.07,847.309 1030.65,848.836 1033.22,850.596 1035.8,852.586 1038.38,854.804 1040.95,857.247 1043.53,859.913 1046.11,862.799 1048.69,865.901 1051.26,869.215 
  1053.84,872.739 1056.42,876.466 1058.99,880.395 1061.57,884.519 1064.15,888.835 1066.73,893.337 1069.3,898.021 1071.88,902.881 1074.46,907.911 1077.04,913.107 
  1079.61,918.463 1082.19,923.972 1084.77,929.63 1087.34,935.429 1089.92,941.364 1092.5,947.428 1095.08,953.616 1097.65,959.92 1100.23,966.335 1102.81,972.853 
  1105.38,979.469 1107.96,986.176 1110.54,992.967 1113.12,999.836 1115.69,1006.78 1118.27,1013.78 1120.85,1020.84 1123.43,1027.96 1126,1035.12 1128.58,1042.31 
  1131.16,1049.54 1133.73,1056.8 1136.31,1064.08 1138.89,1071.37 1141.47,1078.67 1144.04,1085.97 1146.62,1093.27 1149.2,1100.55 1151.77,1107.83 1154.35,1115.08 
  1156.93,1122.31 1159.51,1129.51 1162.08,1136.67 1164.66,1143.79 1167.24,1150.86 1169.82,1157.89 1172.39,1164.86 1174.97,1171.78 1177.55,1178.63 1180.12,1185.42 
  1182.7,1192.14 1185.28,1198.78 1187.86,1205.35 1190.43,1211.84 1193.01,1218.25 1195.59,1224.57 1198.16,1230.81 1200.74,1236.95 1203.32,1243 1205.9,1248.96 
  1208.47,1254.82 1211.05,1260.58 1213.63,1266.24 1216.2,1271.8 1218.78,1277.26 1221.36,1282.61 1223.94,1287.86 1226.51,1293 1229.09,1298.04 1231.67,1302.97 
  1234.25,1307.79 1236.82,1312.5 1239.4,1317.11 1241.98,1321.61 1244.55,1326 1247.13,1330.28 1249.71,1334.45 1252.29,1338.52 1254.86,1342.48 1257.44,1346.34 
  1260.02,1350.09 1262.59,1353.73 1265.17,1357.27 1267.75,1360.71 1270.33,1364.05 1272.9,1367.28 1275.48,1370.42 1278.06,1373.45 1280.64,1376.39 1283.21,1379.23 
  1285.79,1381.98 1288.37,1384.63 1290.94,1387.19 1293.52,1389.66 1296.1,1392.04 1298.68,1394.33 1301.25,1396.53 1303.83,1398.65 1306.41,1400.68 1308.98,1402.63 
  1311.56,1404.49 1314.14,1406.28 1316.72,1407.99 1319.29,1409.61 1321.87,1411.16 1324.45,1412.64 1327.03,1414.04 1329.6,1415.36 1332.18,1416.62 1334.76,1417.8 
  1337.33,1418.91 1339.91,1419.95 1342.49,1420.93 1345.07,1421.83 1347.64,1422.67 1350.22,1423.44 1352.8,1424.14 1355.37,1424.78 1357.95,1425.36 1360.53,1425.87 
  1363.11,1426.31 1365.68,1426.69 1368.26,1427.01 1370.84,1427.26 1373.41,1427.45 1375.99,1427.57 1378.57,1427.63 1381.15,1427.62 1383.72,1427.55 1386.3,1427.42 
  1388.88,1427.22 1391.46,1426.95 1394.03,1426.61 1396.61,1426.2 1399.19,1425.73 1401.76,1425.18 1404.34,1424.57 1406.92,1423.88 1409.5,1423.11 1412.07,1422.27 
  1414.65,1421.35 1417.23,1420.36 1419.8,1419.28 1422.38,1418.12 1424.96,1416.88 1427.54,1415.55 1430.11,1414.13 1432.69,1412.62 1435.27,1411.01 1437.85,1409.32 
  1440.42,1407.52 1443,1405.62 1445.58,1403.62 1448.15,1401.52 1450.73,1399.31 1453.31,1396.98 1455.89,1394.54 1458.46,1391.99 1461.04,1389.31 1463.62,1386.51 
  1466.19,1383.59 1468.77,1380.53 1471.35,1377.35 1473.93,1374.02 1476.5,1370.56 1479.08,1366.96 1481.66,1363.21 1484.24,1359.31 1486.81,1355.26 1489.39,1351.05 
  1491.97,1346.68 1494.54,1342.15 1497.12,1337.46 1499.7,1332.6 1502.28,1327.56 1504.85,1322.35 1507.43,1316.96 1510.01,1311.39 1512.58,1305.64 1515.16,1299.7 
  1517.74,1293.57 1520.32,1287.24 1522.89,1280.72 1525.47,1274.01 1528.05,1267.09 1530.62,1259.97 1533.2,1252.65 1535.78,1245.12 1538.36,1237.38 1540.93,1229.43 
  1543.51,1221.27 1546.09,1212.9 1548.67,1204.32 1551.24,1195.52 1553.82,1186.51 1556.4,1177.28 1558.97,1167.84 1561.55,1158.18 1564.13,1148.31 1566.71,1138.22 
  1569.28,1127.93 1571.86,1117.42 1574.44,1106.7 1577.01,1095.77 1579.59,1084.64 1582.17,1073.3 1584.75,1061.77 1587.32,1050.03 1589.9,1038.11 1592.48,1025.99 
  1595.06,1013.69 1597.63,1001.2 1600.21,988.539 1602.79,975.706 1605.36,962.707 1607.94,949.548 1610.52,936.235 1613.1,922.774 1615.67,909.173 1618.25,895.439 
  1620.83,881.579 1623.4,867.602 1625.98,853.515 1628.56,839.328 1631.14,825.049 1633.71,810.687 1636.29,796.253 1638.87,781.755 1641.45,767.205 1644.02,752.612 
  1646.6,737.987 1649.18,723.342 1651.75,708.688 1654.33,694.036 1656.91,679.398 1659.49,664.785 1662.06,650.211 1664.64,635.686 1667.22,621.225 1669.79,606.839 
  1672.37,592.542 1674.95,578.345 1677.53,564.263 1680.1,550.308 1682.68,536.493 1685.26,522.831 1687.83,509.336 1690.41,496.021 1692.99,482.899 1695.57,469.983 
  1698.14,457.286 1700.72,444.821 1703.3,432.6 1705.88,420.637 1708.45,408.945 1711.03,397.534 1713.61,386.419 1716.18,375.609 1718.76,365.118 1721.34,354.957 
  1723.92,345.136 1726.49,335.667 1729.07,326.56 1731.65,317.825 1734.22,309.473 1736.8,301.512 1739.38,293.952 1741.96,286.802 1744.53,280.069 1747.11,273.761 
  1749.69,267.885 1752.27,262.449 1754.84,257.459 1757.42,252.92 1760,248.838 1762.57,245.218 1765.15,242.063 1767.73,239.379 1770.31,237.166 1772.88,235.43 
  1775.46,234.17 1778.04,233.39 1780.61,233.09 1783.19,233.269 1785.77,233.929 1788.35,235.068 1790.92,236.685 1793.5,238.777 1796.08,241.343 1798.66,244.38 
  1801.23,247.884 1803.81,251.85 1806.39,256.274 1808.96,261.151 1811.54,266.476 1814.12,272.241 1816.7,278.441 1819.27,285.068 1821.85,292.114 1824.43,299.572 
  1827,307.433 1829.58,315.687 1832.16,324.327 1834.74,333.341 1837.31,342.72 1839.89,352.453 1842.47,362.53 1845.04,372.939 1847.62,383.669 1850.2,394.709 
  1852.78,406.047 1855.35,417.669 1857.93,429.566 1860.51,441.722 1863.09,454.127 1865.66,466.767 1868.24,479.629 1870.82,492.701 1873.39,505.969 1875.97,519.42 
  1878.55,533.041 1881.13,546.818 1883.7,560.74 1886.28,574.791 1888.86,588.961 1891.43,603.234 1894.01,617.599 1896.59,632.043 1899.17,646.553 1901.74,661.116 
  1904.32,675.72 1906.9,690.353 1909.48,705.003 1912.05,719.659 1914.63,734.307 1917.21,748.938 1919.78,763.541 1922.36,778.103 1924.94,792.616 1927.52,807.068 
  1930.09,821.449 1932.67,835.751 1935.25,849.963 1937.82,864.076 1940.4,878.083 1942.98,891.974 1945.56,905.741 1948.13,919.378 1950.71,932.875 1953.29,946.228 
  1955.87,959.428 1958.44,972.469 1961.02,985.347 1963.6,998.054 1966.17,1010.59 1968.75,1022.94 1971.33,1035.1 1973.91,1047.08 1976.48,1058.87 1979.06,1070.46 
  1981.64,1081.85 1984.21,1093.03 1986.79,1104.02 1989.37,1114.79 1991.95,1125.36 1994.52,1135.72 1997.1,1145.86 1999.68,1155.79 2002.25,1165.51 2004.83,1175.01 
  2007.41,1184.3 2009.99,1193.38 2012.56,1202.24 2015.14,1210.89 2017.72,1219.32 2020.3,1227.55 2022.87,1235.56 2025.45,1243.36 2028.03,1250.96 2030.6,1258.35 
  2033.18,1265.54 2035.76,1272.52 2038.34,1279.31 2040.91,1285.9 2043.49,1292.3 2046.07,1298.5 2048.64,1304.51 2051.22,1310.34 2053.8,1315.99 2056.38,1321.46 
  2058.95,1326.74 2061.53,1331.86 2064.11,1336.81 2066.69,1341.59 2069.26,1346.2 2071.84,1350.66 2074.42,1354.96 2076.99,1359.1 2079.57,1363.1 2082.15,1366.95 
  2084.73,1370.66 2087.3,1374.23 2089.88,1377.67 2092.46,1380.97 2095.03,1384.15 2097.61,1387.2 2100.19,1390.13 2102.77,1392.94 2105.34,1395.64 2107.92,1398.23 
  2110.5,1400.72 2113.08,1403.1 2115.65,1405.37 2118.23,1407.55 2120.81,1409.64 2123.38,1411.64 2125.96,1413.55 2128.54,1415.37 2131.12,1417.11 2133.69,1418.77 
  2136.27,1420.36 2138.85,1421.88 2141.42,1423.32 2144,1424.69 2146.58,1426 2149.16,1427.25 2151.73,1428.44 2154.31,1429.57 2156.89,1430.64 2159.46,1431.67 
  2162.04,1432.64 2164.62,1433.56 2167.2,1434.43 2169.77,1435.26 2172.35,1436.05 2174.93,1436.79 2177.51,1437.5 2180.08,1438.17 2182.66,1438.8 2185.24,1439.4 
  2187.81,1439.97 2190.39,1440.51 2192.97,1441.02 2195.55,1441.5 2198.12,1441.95 2200.7,1442.37 2203.28,1442.78 2205.85,1443.16 2208.43,1443.52 2211.01,1443.85 
  2213.59,1444.17 2216.16,1444.47 2218.74,1444.75 2221.32,1445.02 2223.9,1445.27 2226.47,1445.5 2229.05,1445.72 2231.63,1445.93 2234.2,1446.12 2236.78,1446.3 
  2239.36,1446.47 2241.94,1446.63 2244.51,1446.78 2247.09,1446.92 2249.67,1447.05 2252.24,1447.18 2254.82,1447.29 2257.4,1447.4 2259.98,1447.5 2262.55,1447.59 
  2265.13,1447.68 2267.71,1447.76 2270.29,1447.84 2272.86,1447.91 2275.44,1447.98 2278.02,1448.04 2280.59,1448.09 2283.17,1448.15 2285.75,1448.2 2288.33,1448.24 
  2290.9,1448.29 
  "/>
<path clip-path="url(#clip0800)" d="
M1893.61 447.115 L2280.76 447.115 L2280.76 205.195 L1893.61 205.195  Z
  " fill="#ffffff" fill-rule="evenodd" fill-opacity="1"/>
<polyline clip-path="url(#clip0800)" style="stroke:#000000; stroke-width:4; stroke-opacity:1; fill:none" points="
  1893.61,447.115 2280.76,447.115 2280.76,205.195 1893.61,205.195 1893.61,447.115 
  "/>
<polyline clip-path="url(#clip0800)" style="stroke:#009af9; stroke-width:4; stroke-opacity:1; fill:none" points="
  1917.61,265.675 2061.61,265.675 
  "/>
<g clip-path="url(#clip0800)">
<text style="fill:#000000; fill-opacity:1; font-family:Arial,Helvetica Neue,Helvetica,sans-serif; font-size:48px; text-anchor:start;" transform="rotate(0, 2085.61, 283.175)" x="2085.61" y="283.175">Data</text>
</g>
<polyline clip-path="url(#clip0800)" style="stroke:#e26f46; stroke-width:4; stroke-opacity:1; fill:none" points="
  1917.61,326.155 2061.61,326.155 
  "/>
<g clip-path="url(#clip0800)">
<text style="fill:#000000; fill-opacity:1; font-family:Arial,Helvetica Neue,Helvetica,sans-serif; font-size:48px; text-anchor:start;" transform="rotate(0, 2085.61, 343.655)" x="2085.61" y="343.655">Truth</text>
</g>
<polyline clip-path="url(#clip0800)" style="stroke:#3da44d; stroke-width:4; stroke-opacity:1; fill:none" points="
  1917.61,386.635 2061.61,386.635 
  "/>
<g clip-path="url(#clip0800)">
<text style="fill:#000000; fill-opacity:1; font-family:Arial,Helvetica Neue,Helvetica,sans-serif; font-size:48px; text-anchor:start;" transform="rotate(0, 2085.61, 404.135)" x="2085.61" y="404.135">Best fit</text>
</g>
</svg>
