<?xml version="1.0" encoding="utf-8"?>
<svg xmlns="http://www.w3.org/2000/svg" xmlns:xlink="http://www.w3.org/1999/xlink" width="600" height="400" viewBox="0 0 2400 1600">
<defs>
  <clipPath id="clip9900">
    <rect x="0" y="0" width="2400" height="1600"/>
  </clipPath>
</defs>
<path clip-path="url(#clip9900)" d="
M0 1600 L2400 1600 L2400 0 L0 0  Z
  " fill="#ffffff" fill-rule="evenodd" fill-opacity="1"/>
<defs>
  <clipPath id="clip9901">
    <rect x="480" y="0" width="1681" height="1600"/>
  </clipPath>
</defs>
<path clip-path="url(#clip9900)" d="
M202.373 1425.62 L2352.76 1425.62 L2352.76 121.675 L202.373 121.675  Z
  " fill="#ffffff" fill-rule="evenodd" fill-opacity="1"/>
<defs>
  <clipPath id="clip9902">
    <rect x="202" y="121" width="2151" height="1305"/>
  </clipPath>
</defs>
<polyline clip-path="url(#clip9902)" style="stroke:#000000; stroke-width:2; stroke-opacity:0.1; fill:none" points="
  219.131,1425.62 219.131,121.675 
  "/>
<polyline clip-path="url(#clip9902)" style="stroke:#000000; stroke-width:2; stroke-opacity:0.1; fill:none" points="
  660.145,1425.62 660.145,121.675 
  "/>
<polyline clip-path="url(#clip9902)" style="stroke:#000000; stroke-width:2; stroke-opacity:0.1; fill:none" points="
  1101.16,1425.62 1101.16,121.675 
  "/>
<polyline clip-path="url(#clip9902)" style="stroke:#000000; stroke-width:2; stroke-opacity:0.1; fill:none" points="
  1542.17,1425.62 1542.17,121.675 
  "/>
<polyline clip-path="url(#clip9902)" style="stroke:#000000; stroke-width:2; stroke-opacity:0.1; fill:none" points="
  1983.19,1425.62 1983.19,121.675 
  "/>
<polyline clip-path="url(#clip9902)" style="stroke:#000000; stroke-width:2; stroke-opacity:0.1; fill:none" points="
  202.373,1388.71 2352.76,1388.71 
  "/>
<polyline clip-path="url(#clip9902)" style="stroke:#000000; stroke-width:2; stroke-opacity:0.1; fill:none" points="
  202.373,1036.49 2352.76,1036.49 
  "/>
<polyline clip-path="url(#clip9902)" style="stroke:#000000; stroke-width:2; stroke-opacity:0.1; fill:none" points="
  202.373,684.258 2352.76,684.258 
  "/>
<polyline clip-path="url(#clip9902)" style="stroke:#000000; stroke-width:2; stroke-opacity:0.1; fill:none" points="
  202.373,332.03 2352.76,332.03 
  "/>
<polyline clip-path="url(#clip9900)" style="stroke:#000000; stroke-width:4; stroke-opacity:1; fill:none" points="
  202.373,1425.62 2352.76,1425.62 
  "/>
<polyline clip-path="url(#clip9900)" style="stroke:#000000; stroke-width:4; stroke-opacity:1; fill:none" points="
  202.373,1425.62 202.373,121.675 
  "/>
<polyline clip-path="url(#clip9900)" style="stroke:#000000; stroke-width:4; stroke-opacity:1; fill:none" points="
  219.131,1425.62 219.131,1406.06 
  "/>
<polyline clip-path="url(#clip9900)" style="stroke:#000000; stroke-width:4; stroke-opacity:1; fill:none" points="
  660.145,1425.62 660.145,1406.06 
  "/>
<polyline clip-path="url(#clip9900)" style="stroke:#000000; stroke-width:4; stroke-opacity:1; fill:none" points="
  1101.16,1425.62 1101.16,1406.06 
  "/>
<polyline clip-path="url(#clip9900)" style="stroke:#000000; stroke-width:4; stroke-opacity:1; fill:none" points="
  1542.17,1425.62 1542.17,1406.06 
  "/>
<polyline clip-path="url(#clip9900)" style="stroke:#000000; stroke-width:4; stroke-opacity:1; fill:none" points="
  1983.19,1425.62 1983.19,1406.06 
  "/>
<polyline clip-path="url(#clip9900)" style="stroke:#000000; stroke-width:4; stroke-opacity:1; fill:none" points="
  202.373,1388.71 234.629,1388.71 
  "/>
<polyline clip-path="url(#clip9900)" style="stroke:#000000; stroke-width:4; stroke-opacity:1; fill:none" points="
  202.373,1036.49 234.629,1036.49 
  "/>
<polyline clip-path="url(#clip9900)" style="stroke:#000000; stroke-width:4; stroke-opacity:1; fill:none" points="
  202.373,684.258 234.629,684.258 
  "/>
<polyline clip-path="url(#clip9900)" style="stroke:#000000; stroke-width:4; stroke-opacity:1; fill:none" points="
  202.373,332.03 234.629,332.03 
  "/>
<g clip-path="url(#clip9900)">
<text style="fill:#000000; fill-opacity:1; font-family:Arial,Helvetica Neue,Helvetica,sans-serif; font-size:48px; text-anchor:middle;" transform="rotate(0, 219.131, 1479.62)" x="219.131" y="1479.62">-1.10</text>
</g>
<g clip-path="url(#clip9900)">
<text style="fill:#000000; fill-opacity:1; font-family:Arial,Helvetica Neue,Helvetica,sans-serif; font-size:48px; text-anchor:middle;" transform="rotate(0, 660.145, 1479.62)" x="660.145" y="1479.62">-1.05</text>
</g>
<g clip-path="url(#clip9900)">
<text style="fill:#000000; fill-opacity:1; font-family:Arial,Helvetica Neue,Helvetica,sans-serif; font-size:48px; text-anchor:middle;" transform="rotate(0, 1101.16, 1479.62)" x="1101.16" y="1479.62">-1.00</text>
</g>
<g clip-path="url(#clip9900)">
<text style="fill:#000000; fill-opacity:1; font-family:Arial,Helvetica Neue,Helvetica,sans-serif; font-size:48px; text-anchor:middle;" transform="rotate(0, 1542.17, 1479.62)" x="1542.17" y="1479.62">-0.95</text>
</g>
<g clip-path="url(#clip9900)">
<text style="fill:#000000; fill-opacity:1; font-family:Arial,Helvetica Neue,Helvetica,sans-serif; font-size:48px; text-anchor:middle;" transform="rotate(0, 1983.19, 1479.62)" x="1983.19" y="1479.62">-0.90</text>
</g>
<g clip-path="url(#clip9900)">
<text style="fill:#000000; fill-opacity:1; font-family:Arial,Helvetica Neue,Helvetica,sans-serif; font-size:48px; text-anchor:end;" transform="rotate(0, 178.373, 1406.21)" x="178.373" y="1406.21">0</text>
</g>
<g clip-path="url(#clip9900)">
<text style="fill:#000000; fill-opacity:1; font-family:Arial,Helvetica Neue,Helvetica,sans-serif; font-size:48px; text-anchor:end;" transform="rotate(0, 178.373, 1053.99)" x="178.373" y="1053.99">5</text>
</g>
<g clip-path="url(#clip9900)">
<text style="fill:#000000; fill-opacity:1; font-family:Arial,Helvetica Neue,Helvetica,sans-serif; font-size:48px; text-anchor:end;" transform="rotate(0, 178.373, 701.758)" x="178.373" y="701.758">10</text>
</g>
<g clip-path="url(#clip9900)">
<text style="fill:#000000; fill-opacity:1; font-family:Arial,Helvetica Neue,Helvetica,sans-serif; font-size:48px; text-anchor:end;" transform="rotate(0, 178.373, 349.53)" x="178.373" y="349.53">15</text>
</g>
<g clip-path="url(#clip9900)">
<text style="fill:#000000; fill-opacity:1; font-family:Arial,Helvetica Neue,Helvetica,sans-serif; font-size:84px; text-anchor:middle;" transform="rotate(0, 1277.56, 73.2)" x="1277.56" y="73.2">Marginalized Distribution for mu_1</text>
</g>
<g clip-path="url(#clip9900)">
<text style="fill:#000000; fill-opacity:1; font-family:Arial,Helvetica Neue,Helvetica,sans-serif; font-size:66px; text-anchor:middle;" transform="rotate(0, 1277.56, 1559.48)" x="1277.56" y="1559.48">mu_1</text>
</g>
<g clip-path="url(#clip9900)">
<text style="fill:#000000; fill-opacity:1; font-family:Arial,Helvetica Neue,Helvetica,sans-serif; font-size:66px; text-anchor:middle;" transform="rotate(-90, 89.2861, 773.647)" x="89.2861" y="773.647">P(mu_1)</text>
</g>
<path clip-path="url(#clip9902)" d="
M263.233 1388.71 L307.334 1388.71 L307.334 1388.71 L351.436 1388.71 L351.436 1388.71 L395.537 1388.71 L395.537 1388.71 L439.638 1388.71 L439.638 1388.71 L483.74 1388.71 
  L483.74 1388.71 L527.841 1388.71 L527.841 1388.71 L571.942 1388.71 L571.942 1388.71 L616.044 1388.71 L616.044 1388.71 L660.145 1388.71 L660.145 1388.71 L704.247 1388.71 
  L704.247 1388.71 L748.348 1388.71 L748.348 1388.71 L792.449 1388.71 L792.449 1374.25 L836.551 1374.25 L836.551 1355.31 L880.652 1355.31 L880.652 1336.55 L924.753 1336.55 
  L924.753 1315.59 L968.855 1315.59 L968.855 1266.62 L1012.96 1266.62 L1012.96 1221.04 L1057.06 1221.04 L1057.06 1141.51 L1101.16 1141.51 L1101.16 1054.56 L1145.26 1054.56 
  L1145.26 914.159 L1189.36 914.159 L1189.36 792.065 L1233.46 792.065 L1233.46 664.845 L1277.56 664.845 L1277.56 500.742 L1321.67 500.742 L1321.67 359.885 L1365.77 359.885 
  L1365.77 315.587 L1409.87 315.587 L1409.87 194.408 L1453.97 194.408 L1453.97 222.415 L1498.07 222.415 L1498.07 277.787 L1542.17 277.787 L1542.17 375.078 L1586.27 375.078 
  L1586.27 523.531 L1630.38 523.531 L1630.38 661.825 L1674.48 661.825 L1674.48 775.041 L1718.58 775.041 L1718.58 911.779 L1762.68 911.779 L1762.68 1042.38 L1806.78 1042.38 
  L1806.78 1130.34 L1850.88 1130.34 L1850.88 1221.77 L1894.98 1221.77 L1894.98 1259.02 L1939.09 1259.02 L1939.09 1313.02 L1983.19 1313.02 L1983.19 1345.7 L2027.29 1345.7 
  L2027.29 1363.45 L2071.39 1363.45 L2071.39 1377.27 L2115.49 1377.27 L2115.49 1388.71 L2159.59 1388.71 L2159.59 1388.71 L2203.69 1388.71 L2203.69 1388.71 L2247.79 1388.71 
  L2247.79 1388.71 L2291.9 1388.71 L2291.9 1388.71 L2291.9 1388.71 L2291.9 1388.71 L2247.79 1388.71 L2247.79 1388.71 L2203.69 1388.71 L2203.69 1388.71 L2159.59 1388.71 
  L2159.59 1388.71 L2115.49 1388.71 L2115.49 1388.71 L2071.39 1388.71 L2071.39 1388.71 L2027.29 1388.71 L2027.29 1388.71 L1983.19 1388.71 L1983.19 1388.71 L1939.09 1388.71 
  L1939.09 1388.71 L1894.98 1388.71 L1894.98 1388.71 L1850.88 1388.71 L1850.88 1388.71 L1806.78 1388.71 L1806.78 1388.71 L1762.68 1388.71 L1762.68 1388.71 L1718.58 1388.71 
  L1718.58 1388.71 L1674.48 1388.71 L1674.48 1388.71 L1630.38 1388.71 L1630.38 1388.71 L1586.27 1388.71 L1586.27 1388.71 L1542.17 1388.71 L1542.17 1388.71 L1498.07 1388.71 
  L1498.07 1388.71 L1453.97 1388.71 L1453.97 1388.71 L1409.87 1388.71 L1409.87 1388.71 L1365.77 1388.71 L1365.77 1388.71 L1321.67 1388.71 L1321.67 1388.71 L1277.56 1388.71 
  L1277.56 1388.71 L1233.46 1388.71 L1233.46 1388.71 L1189.36 1388.71 L1189.36 1388.71 L1145.26 1388.71 L1145.26 1388.71 L1101.16 1388.71 L1101.16 1388.71 L1057.06 1388.71 
  L1057.06 1388.71 L1012.96 1388.71 L1012.96 1388.71 L968.855 1388.71 L968.855 1388.71 L924.753 1388.71 L924.753 1388.71 L880.652 1388.71 L880.652 1388.71 L836.551 1388.71 
  L836.551 1388.71 L792.449 1388.71 L792.449 1388.71 L748.348 1388.71 L748.348 1388.71 L704.247 1388.71 L704.247 1388.71 L660.145 1388.71 L660.145 1388.71 L616.044 1388.71 
  L616.044 1388.71 L571.942 1388.71 L571.942 1388.71 L527.841 1388.71 L527.841 1388.71 L483.74 1388.71 L483.74 1388.71 L439.638 1388.71 L439.638 1388.71 L395.537 1388.71 
  L395.537 1388.71 L351.436 1388.71 L351.436 1388.71 L307.334 1388.71 L307.334 1388.71 L263.233 1388.71  Z
  " fill="#ff0000" fill-rule="evenodd" fill-opacity="1"/>
<polyline clip-path="url(#clip9902)" style="stroke:#009af9; stroke-width:0; stroke-opacity:1; fill:none" points="
  263.233,1388.71 307.334,1388.71 351.436,1388.71 395.537,1388.71 439.638,1388.71 483.74,1388.71 
  527.841,1388.71 571.942,1388.71 616.044,1388.71 660.145,1388.71 704.247,1388.71 
  748.348,1388.71 792.449,1388.71 792.449,1374.25 836.551,1374.25 836.551,1355.31 880.652,1355.31 880.652,1336.55 924.753,1336.55 
  924.753,1315.59 968.855,1315.59 968.855,1266.62 1012.96,1266.62 1012.96,1221.04 1057.06,1221.04 1057.06,1141.51 1101.16,1141.51 1101.16,1054.56 1145.26,1054.56 
  1145.26,914.159 1189.36,914.159 1189.36,792.065 1233.46,792.065 1233.46,664.845 1277.56,664.845 1277.56,500.742 1321.67,500.742 1321.67,359.885 1365.77,359.885 
  1365.77,315.587 1409.87,315.587 1409.87,194.408 1453.97,194.408 1453.97,222.415 1498.07,222.415 1498.07,277.787 1542.17,277.787 1542.17,375.078 1586.27,375.078 
  1586.27,523.531 1630.38,523.531 1630.38,661.825 1674.48,661.825 1674.48,775.041 1718.58,775.041 1718.58,911.779 1762.68,911.779 1762.68,1042.38 1806.78,1042.38 
  1806.78,1130.34 1850.88,1130.34 1850.88,1221.77 1894.98,1221.77 1894.98,1259.02 1939.09,1259.02 1939.09,1313.02 1983.19,1313.02 1983.19,1345.7 2027.29,1345.7 
  2027.29,1363.45 2071.39,1363.45 2071.39,1377.27 2115.49,1377.27 2115.49,1388.71 2159.59,1388.71 2203.69,1388.71 2247.79,1388.71 
  2291.9,1388.71 
  "/>
<path clip-path="url(#clip9902)" d="
M263.233 1388.71 L307.334 1388.71 L307.334 1388.71 L351.436 1388.71 L351.436 1388.71 L395.537 1388.71 L395.537 1388.71 L439.638 1388.71 L439.638 1388.71 L483.74 1388.71 
  L483.74 1388.71 L527.841 1388.71 L527.841 1388.71 L571.942 1388.71 L571.942 1388.71 L616.044 1388.71 L616.044 1388.71 L660.145 1388.71 L660.145 1388.71 L704.247 1388.71 
  L704.247 1388.71 L748.348 1388.71 L748.348 1388.71 L792.449 1388.71 L792.449 1388.71 L836.551 1388.71 L836.551 1388.71 L880.652 1388.71 L880.652 1388.71 L924.753 1388.71 
  L924.753 1388.71 L968.855 1388.71 L968.855 1388.71 L1012.96 1388.71 L1012.96 1221.04 L1057.06 1221.04 L1057.06 1141.51 L1101.16 1141.51 L1101.16 1054.56 L1145.26 1054.56 
  L1145.26 914.159 L1189.36 914.159 L1189.36 792.065 L1233.46 792.065 L1233.46 664.845 L1277.56 664.845 L1277.56 500.742 L1321.67 500.742 L1321.67 359.885 L1365.77 359.885 
  L1365.77 315.587 L1409.87 315.587 L1409.87 194.408 L1453.97 194.408 L1453.97 222.415 L1498.07 222.415 L1498.07 277.787 L1542.17 277.787 L1542.17 375.078 L1586.27 375.078 
  L1586.27 523.531 L1630.38 523.531 L1630.38 661.825 L1674.48 661.825 L1674.48 775.041 L1718.58 775.041 L1718.58 911.779 L1762.68 911.779 L1762.68 1042.38 L1806.78 1042.38 
  L1806.78 1130.34 L1850.88 1130.34 L1850.88 1221.77 L1894.98 1221.77 L1894.98 1388.71 L1939.09 1388.71 L1939.09 1388.71 L1983.19 1388.71 L1983.19 1388.71 L2027.29 1388.71 
  L2027.29 1388.71 L2071.39 1388.71 L2071.39 1388.71 L2115.49 1388.71 L2115.49 1388.71 L2159.59 1388.71 L2159.59 1388.71 L2203.69 1388.71 L2203.69 1388.71 L2247.79 1388.71 
  L2247.79 1388.71 L2291.9 1388.71 L2291.9 1388.71 L2291.9 1388.71 L2291.9 1388.71 L2247.79 1388.71 L2247.79 1388.71 L2203.69 1388.71 L2203.69 1388.71 L2159.59 1388.71 
  L2159.59 1388.71 L2115.49 1388.71 L2115.49 1388.71 L2071.39 1388.71 L2071.39 1388.71 L2027.29 1388.71 L2027.29 1388.71 L1983.19 1388.71 L1983.19 1388.71 L1939.09 1388.71 
  L1939.09 1388.71 L1894.98 1388.71 L1894.98 1388.71 L1850.88 1388.71 L1850.88 1388.71 L1806.78 1388.71 L1806.78 1388.71 L1762.68 1388.71 L1762.68 1388.71 L1718.58 1388.71 
  L1718.58 1388.71 L1674.48 1388.71 L1674.48 1388.71 L1630.38 1388.71 L1630.38 1388.71 L1586.27 1388.71 L1586.27 1388.71 L1542.17 1388.71 L1542.17 1388.71 L1498.07 1388.71 
  L1498.07 1388.71 L1453.97 1388.71 L1453.97 1388.71 L1409.87 1388.71 L1409.87 1388.71 L1365.77 1388.71 L1365.77 1388.71 L1321.67 1388.71 L1321.67 1388.71 L1277.56 1388.71 
  L1277.56 1388.71 L1233.46 1388.71 L1233.46 1388.71 L1189.36 1388.71 L1189.36 1388.71 L1145.26 1388.71 L1145.26 1388.71 L1101.16 1388.71 L1101.16 1388.71 L1057.06 1388.71 
  L1057.06 1388.71 L1012.96 1388.71 L1012.96 1388.71 L968.855 1388.71 L968.855 1388.71 L924.753 1388.71 L924.753 1388.71 L880.652 1388.71 L880.652 1388.71 L836.551 1388.71 
  L836.551 1388.71 L792.449 1388.71 L792.449 1388.71 L748.348 1388.71 L748.348 1388.71 L704.247 1388.71 L704.247 1388.71 L660.145 1388.71 L660.145 1388.71 L616.044 1388.71 
  L616.044 1388.71 L571.942 1388.71 L571.942 1388.71 L527.841 1388.71 L527.841 1388.71 L483.74 1388.71 L483.74 1388.71 L439.638 1388.71 L439.638 1388.71 L395.537 1388.71 
  L395.537 1388.71 L351.436 1388.71 L351.436 1388.71 L307.334 1388.71 L307.334 1388.71 L263.233 1388.71  Z
  " fill="#ffff00" fill-rule="evenodd" fill-opacity="1"/>
<polyline clip-path="url(#clip9902)" style="stroke:#e26f46; stroke-width:0; stroke-opacity:1; fill:none" points="
  263.233,1388.71 307.334,1388.71 351.436,1388.71 395.537,1388.71 439.638,1388.71 483.74,1388.71 
  527.841,1388.71 571.942,1388.71 616.044,1388.71 660.145,1388.71 704.247,1388.71 
  748.348,1388.71 792.449,1388.71 836.551,1388.71 880.652,1388.71 924.753,1388.71 
  968.855,1388.71 1012.96,1388.71 1012.96,1221.04 1057.06,1221.04 1057.06,1141.51 1101.16,1141.51 1101.16,1054.56 1145.26,1054.56 
  1145.26,914.159 1189.36,914.159 1189.36,792.065 1233.46,792.065 1233.46,664.845 1277.56,664.845 1277.56,500.742 1321.67,500.742 1321.67,359.885 1365.77,359.885 
  1365.77,315.587 1409.87,315.587 1409.87,194.408 1453.97,194.408 1453.97,222.415 1498.07,222.415 1498.07,277.787 1542.17,277.787 1542.17,375.078 1586.27,375.078 
  1586.27,523.531 1630.38,523.531 1630.38,661.825 1674.48,661.825 1674.48,775.041 1718.58,775.041 1718.58,911.779 1762.68,911.779 1762.68,1042.38 1806.78,1042.38 
  1806.78,1130.34 1850.88,1130.34 1850.88,1221.77 1894.98,1221.77 1894.98,1388.71 1939.09,1388.71 1983.19,1388.71 2027.29,1388.71 
  2071.39,1388.71 2115.49,1388.71 2159.59,1388.71 2203.69,1388.71 2247.79,1388.71 
  2291.9,1388.71 
  "/>
<path clip-path="url(#clip9902)" d="
M263.233 1388.71 L307.334 1388.71 L307.334 1388.71 L351.436 1388.71 L351.436 1388.71 L395.537 1388.71 L395.537 1388.71 L439.638 1388.71 L439.638 1388.71 L483.74 1388.71 
  L483.74 1388.71 L527.841 1388.71 L527.841 1388.71 L571.942 1388.71 L571.942 1388.71 L616.044 1388.71 L616.044 1388.71 L660.145 1388.71 L660.145 1388.71 L704.247 1388.71 
  L704.247 1388.71 L748.348 1388.71 L748.348 1388.71 L792.449 1388.71 L792.449 1388.71 L836.551 1388.71 L836.551 1388.71 L880.652 1388.71 L880.652 1388.71 L924.753 1388.71 
  L924.753 1388.71 L968.855 1388.71 L968.855 1388.71 L1012.96 1388.71 L1012.96 1388.71 L1057.06 1388.71 L1057.06 1388.71 L1101.16 1388.71 L1101.16 1388.71 L1145.26 1388.71 
  L1145.26 1388.71 L1189.36 1388.71 L1189.36 1388.71 L1233.46 1388.71 L1233.46 664.845 L1277.56 664.845 L1277.56 500.742 L1321.67 500.742 L1321.67 359.885 L1365.77 359.885 
  L1365.77 315.587 L1409.87 315.587 L1409.87 194.408 L1453.97 194.408 L1453.97 222.415 L1498.07 222.415 L1498.07 277.787 L1542.17 277.787 L1542.17 375.078 L1586.27 375.078 
  L1586.27 523.531 L1630.38 523.531 L1630.38 661.825 L1674.48 661.825 L1674.48 1388.71 L1718.58 1388.71 L1718.58 1388.71 L1762.68 1388.71 L1762.68 1388.71 L1806.78 1388.71 
  L1806.78 1388.71 L1850.88 1388.71 L1850.88 1388.71 L1894.98 1388.71 L1894.98 1388.71 L1939.09 1388.71 L1939.09 1388.71 L1983.19 1388.71 L1983.19 1388.71 L2027.29 1388.71 
  L2027.29 1388.71 L2071.39 1388.71 L2071.39 1388.71 L2115.49 1388.71 L2115.49 1388.71 L2159.59 1388.71 L2159.59 1388.71 L2203.69 1388.71 L2203.69 1388.71 L2247.79 1388.71 
  L2247.79 1388.71 L2291.9 1388.71 L2291.9 1388.71 L2291.9 1388.71 L2291.9 1388.71 L2247.79 1388.71 L2247.79 1388.71 L2203.69 1388.71 L2203.69 1388.71 L2159.59 1388.71 
  L2159.59 1388.71 L2115.49 1388.71 L2115.49 1388.71 L2071.39 1388.71 L2071.39 1388.71 L2027.29 1388.71 L2027.29 1388.71 L1983.19 1388.71 L1983.19 1388.71 L1939.09 1388.71 
  L1939.09 1388.71 L1894.98 1388.71 L1894.98 1388.71 L1850.88 1388.71 L1850.88 1388.71 L1806.78 1388.71 L1806.78 1388.71 L1762.68 1388.71 L1762.68 1388.71 L1718.58 1388.71 
  L1718.58 1388.71 L1674.48 1388.71 L1674.48 1388.71 L1630.38 1388.71 L1630.38 1388.71 L1586.27 1388.71 L1586.27 1388.71 L1542.17 1388.71 L1542.17 1388.71 L1498.07 1388.71 
  L1498.07 1388.71 L1453.97 1388.71 L1453.97 1388.71 L1409.87 1388.71 L1409.87 1388.71 L1365.77 1388.71 L1365.77 1388.71 L1321.67 1388.71 L1321.67 1388.71 L1277.56 1388.71 
  L1277.56 1388.71 L1233.46 1388.71 L1233.46 1388.71 L1189.36 1388.71 L1189.36 1388.71 L1145.26 1388.71 L1145.26 1388.71 L1101.16 1388.71 L1101.16 1388.71 L1057.06 1388.71 
  L1057.06 1388.71 L1012.96 1388.71 L1012.96 1388.71 L968.855 1388.71 L968.855 1388.71 L924.753 1388.71 L924.753 1388.71 L880.652 1388.71 L880.652 1388.71 L836.551 1388.71 
  L836.551 1388.71 L792.449 1388.71 L792.449 1388.71 L748.348 1388.71 L748.348 1388.71 L704.247 1388.71 L704.247 1388.71 L660.145 1388.71 L660.145 1388.71 L616.044 1388.71 
  L616.044 1388.71 L571.942 1388.71 L571.942 1388.71 L527.841 1388.71 L527.841 1388.71 L483.74 1388.71 L483.74 1388.71 L439.638 1388.71 L439.638 1388.71 L395.537 1388.71 
  L395.537 1388.71 L351.436 1388.71 L351.436 1388.71 L307.334 1388.71 L307.334 1388.71 L263.233 1388.71  Z
  " fill="#76ee00" fill-rule="evenodd" fill-opacity="1"/>
<polyline clip-path="url(#clip9902)" style="stroke:#3da44d; stroke-width:0; stroke-opacity:1; fill:none" points="
  263.233,1388.71 307.334,1388.71 351.436,1388.71 395.537,1388.71 439.638,1388.71 483.74,1388.71 
  527.841,1388.71 571.942,1388.71 616.044,1388.71 660.145,1388.71 704.247,1388.71 
  748.348,1388.71 792.449,1388.71 836.551,1388.71 880.652,1388.71 924.753,1388.71 
  968.855,1388.71 1012.96,1388.71 1057.06,1388.71 1101.16,1388.71 1145.26,1388.71 
  1189.36,1388.71 1233.46,1388.71 1233.46,664.845 1277.56,664.845 1277.56,500.742 1321.67,500.742 1321.67,359.885 1365.77,359.885 
  1365.77,315.587 1409.87,315.587 1409.87,194.408 1453.97,194.408 1453.97,222.415 1498.07,222.415 1498.07,277.787 1542.17,277.787 1542.17,375.078 1586.27,375.078 
  1586.27,523.531 1630.38,523.531 1630.38,661.825 1674.48,661.825 1674.48,1388.71 1718.58,1388.71 1762.68,1388.71 1806.78,1388.71 
  1850.88,1388.71 1894.98,1388.71 1939.09,1388.71 1983.19,1388.71 2027.29,1388.71 
  2071.39,1388.71 2115.49,1388.71 2159.59,1388.71 2203.69,1388.71 2247.79,1388.71 
  2291.9,1388.71 
  "/>
<polyline clip-path="url(#clip9902)" style="stroke:#000000; stroke-width:2.8; stroke-opacity:1; fill:none" points="
  263.233,1388.53 307.334,1388.53 307.334,1388.62 351.436,1388.62 351.436,1388.71 395.537,1388.71 439.638,1388.71 483.74,1388.71 
  527.841,1388.71 571.942,1388.71 571.942,1388.44 616.044,1388.44 616.044,1387.25 660.145,1387.25 660.145,1383.13 704.247,1383.13 
  704.247,1382.31 748.348,1382.31 748.348,1379.01 792.449,1379.01 792.449,1374.25 836.551,1374.25 836.551,1355.31 880.652,1355.31 880.652,1336.55 924.753,1336.55 
  924.753,1315.59 968.855,1315.59 968.855,1266.62 1012.96,1266.62 1012.96,1221.04 1057.06,1221.04 1057.06,1141.51 1101.16,1141.51 1101.16,1054.56 1145.26,1054.56 
  1145.26,914.159 1189.36,914.159 1189.36,792.065 1233.46,792.065 1233.46,664.845 1277.56,664.845 1277.56,500.742 1321.67,500.742 1321.67,359.885 1365.77,359.885 
  1365.77,315.587 1409.87,315.587 1409.87,194.408 1453.97,194.408 1453.97,222.415 1498.07,222.415 1498.07,277.787 1542.17,277.787 1542.17,375.078 1586.27,375.078 
  1586.27,523.531 1630.38,523.531 1630.38,661.825 1674.48,661.825 1674.48,775.041 1718.58,775.041 1718.58,911.779 1762.68,911.779 1762.68,1042.38 1806.78,1042.38 
  1806.78,1130.34 1850.88,1130.34 1850.88,1221.77 1894.98,1221.77 1894.98,1259.02 1939.09,1259.02 1939.09,1313.02 1983.19,1313.02 1983.19,1345.7 2027.29,1345.7 
  2027.29,1363.45 2071.39,1363.45 2071.39,1377.27 2115.49,1377.27 2115.49,1379.93 2159.59,1379.93 2159.59,1386.79 2203.69,1386.79 2203.69,1388.17 2247.79,1388.17 
  2247.79,1388.53 2291.9,1388.53 2291.9,1388.62 
  "/>
<path clip-path="url(#clip9902)" d="
M1237.78 1388.71 L1669.54 1388.71 L1669.54 158.579 L1237.78 158.579 L1237.78 1388.71  Z
  " fill="#808080" fill-rule="evenodd" fill-opacity="0.5"/>
<polyline clip-path="url(#clip9902)" style="stroke:#000000; stroke-width:0; stroke-opacity:1; fill:none" points="
  1237.78,1388.71 1669.54,1388.71 1669.54,158.579 1237.78,158.579 1237.78,1388.71 
  "/>
<polyline clip-path="url(#clip9902)" style="stroke:#696969; stroke-width:4; stroke-opacity:1; fill:none" points="
  1453.66,1388.71 1453.66,158.579 
  "/>
<polyline clip-path="url(#clip9902)" style="stroke:#000000; stroke-width:4; stroke-opacity:1; fill:none" stroke-dasharray="16, 10" points="
  1435.3,1388.71 1435.3,158.579 
  "/>
<polyline clip-path="url(#clip9902)" style="stroke:#000000; stroke-width:4; stroke-opacity:1; fill:none" stroke-dasharray="2, 4" points="
  1431.92,1388.71 1431.92,158.579 
  "/>
<path clip-path="url(#clip9900)" d="
M1463.01 689.035 L2280.76 689.035 L2280.76 205.195 L1463.01 205.195  Z
  " fill="#ffffff" fill-rule="evenodd" fill-opacity="1"/>
<polyline clip-path="url(#clip9900)" style="stroke:#000000; stroke-width:4; stroke-opacity:1; fill:none" points="
  1463.01,689.035 2280.76,689.035 2280.76,205.195 1463.01,205.195 1463.01,689.035 
  "/>
<path clip-path="url(#clip9900)" d="
M1487.01 289.867 L1631.01 289.867 L1631.01 241.483 L1487.01 241.483 L1487.01 289.867  Z
  " fill="#ff0000" fill-rule="evenodd" fill-opacity="1"/>
<polyline clip-path="url(#clip9900)" style="stroke:#009af9; stroke-width:0; stroke-opacity:1; fill:none" points="
  1487.01,241.483 1631.01,241.483 
  "/>
<g clip-path="url(#clip9900)">
<text style="fill:#000000; fill-opacity:1; font-family:Arial,Helvetica Neue,Helvetica,sans-serif; font-size:48px; text-anchor:start;" transform="rotate(0, 1655.01, 283.175)" x="1655.01" y="283.175">smallest 99.75% interval(s)</text>
</g>
<path clip-path="url(#clip9900)" d="
M1487.01 350.347 L1631.01 350.347 L1631.01 301.963 L1487.01 301.963 L1487.01 350.347  Z
  " fill="#ffff00" fill-rule="evenodd" fill-opacity="1"/>
<polyline clip-path="url(#clip9900)" style="stroke:#e26f46; stroke-width:0; stroke-opacity:1; fill:none" points="
  1487.01,301.963 1631.01,301.963 
  "/>
<g clip-path="url(#clip9900)">
<text style="fill:#000000; fill-opacity:1; font-family:Arial,Helvetica Neue,Helvetica,sans-serif; font-size:48px; text-anchor:start;" transform="rotate(0, 1655.01, 343.655)" x="1655.01" y="343.655">smallest 95.63% interval(s)</text>
</g>
<path clip-path="url(#clip9900)" d="
M1487.01 410.827 L1631.01 410.827 L1631.01 362.443 L1487.01 362.443 L1487.01 410.827  Z
  " fill="#76ee00" fill-rule="evenodd" fill-opacity="1"/>
<polyline clip-path="url(#clip9900)" style="stroke:#3da44d; stroke-width:0; stroke-opacity:1; fill:none" points="
  1487.01,362.443 1631.01,362.443 
  "/>
<g clip-path="url(#clip9900)">
<text style="fill:#000000; fill-opacity:1; font-family:Arial,Helvetica Neue,Helvetica,sans-serif; font-size:48px; text-anchor:start;" transform="rotate(0, 1655.01, 404.135)" x="1655.01" y="404.135">smallest 69.49% interval(s)</text>
</g>
<path clip-path="url(#clip9900)" d="
M1487.01 471.307 L1631.01 471.307 L1631.01 422.923 L1487.01 422.923 L1487.01 471.307  Z
  " fill="#808080" fill-rule="evenodd" fill-opacity="0.5"/>
<polyline clip-path="url(#clip9900)" style="stroke:#000000; stroke-width:0; stroke-opacity:1; fill:none" points="
  1487.01,471.307 1631.01,471.307 1631.01,422.923 1487.01,422.923 1487.01,471.307 
  "/>
<g clip-path="url(#clip9900)">
<text style="fill:#000000; fill-opacity:1; font-family:Arial,Helvetica Neue,Helvetica,sans-serif; font-size:48px; text-anchor:start;" transform="rotate(0, 1655.01, 464.615)" x="1655.01" y="464.615">std. dev.</text>
</g>
<polyline clip-path="url(#clip9900)" style="stroke:#696969; stroke-width:4; stroke-opacity:1; fill:none" points="
  1487.01,507.595 1631.01,507.595 
  "/>
<g clip-path="url(#clip9900)">
<text style="fill:#000000; fill-opacity:1; font-family:Arial,Helvetica Neue,Helvetica,sans-serif; font-size:48px; text-anchor:start;" transform="rotate(0, 1655.01, 525.095)" x="1655.01" y="525.095">mean</text>
</g>
<polyline clip-path="url(#clip9900)" style="stroke:#000000; stroke-width:4; stroke-opacity:1; fill:none" stroke-dasharray="16, 10" points="
  1487.01,568.075 1631.01,568.075 
  "/>
<g clip-path="url(#clip9900)">
<text style="fill:#000000; fill-opacity:1; font-family:Arial,Helvetica Neue,Helvetica,sans-serif; font-size:48px; text-anchor:start;" transform="rotate(0, 1655.01, 585.575)" x="1655.01" y="585.575">global mode</text>
</g>
<polyline clip-path="url(#clip9900)" style="stroke:#000000; stroke-width:4; stroke-opacity:1; fill:none" stroke-dasharray="2, 4" points="
  1487.01,628.555 1631.01,628.555 
  "/>
<g clip-path="url(#clip9900)">
<text style="fill:#000000; fill-opacity:1; font-family:Arial,Helvetica Neue,Helvetica,sans-serif; font-size:48px; text-anchor:start;" transform="rotate(0, 1655.01, 646.055)" x="1655.01" y="646.055">local mode</text>
</g>
</svg>
