<?xml version="1.0" encoding="utf-8"?>
<svg xmlns="http://www.w3.org/2000/svg" xmlns:xlink="http://www.w3.org/1999/xlink" width="600" height="400" viewBox="0 0 2400 1600">
<defs>
  <clipPath id="clip9300">
    <rect x="0" y="0" width="2400" height="1600"/>
  </clipPath>
</defs>
<path clip-path="url(#clip9300)" d="
M0 1600 L2400 1600 L2400 0 L0 0  Z
  " fill="#ffffff" fill-rule="evenodd" fill-opacity="1"/>
<defs>
  <clipPath id="clip9301">
    <rect x="480" y="0" width="1681" height="1600"/>
  </clipPath>
</defs>
<path clip-path="url(#clip9300)" d="
M167.279 1487.47 L2352.76 1487.47 L2352.76 121.675 L167.279 121.675  Z
  " fill="#ffffff" fill-rule="evenodd" fill-opacity="1"/>
<defs>
  <clipPath id="clip9302">
    <rect x="167" y="121" width="2186" height="1367"/>
  </clipPath>
</defs>
<polyline clip-path="url(#clip9302)" style="stroke:#000000; stroke-width:2; stroke-opacity:0.1; fill:none" points="
  229.132,1487.47 229.132,121.675 
  "/>
<polyline clip-path="url(#clip9302)" style="stroke:#000000; stroke-width:2; stroke-opacity:0.1; fill:none" points="
  572.761,1487.47 572.761,121.675 
  "/>
<polyline clip-path="url(#clip9302)" style="stroke:#000000; stroke-width:2; stroke-opacity:0.1; fill:none" points="
  916.389,1487.47 916.389,121.675 
  "/>
<polyline clip-path="url(#clip9302)" style="stroke:#000000; stroke-width:2; stroke-opacity:0.1; fill:none" points="
  1260.02,1487.47 1260.02,121.675 
  "/>
<polyline clip-path="url(#clip9302)" style="stroke:#000000; stroke-width:2; stroke-opacity:0.1; fill:none" points="
  1603.65,1487.47 1603.65,121.675 
  "/>
<polyline clip-path="url(#clip9302)" style="stroke:#000000; stroke-width:2; stroke-opacity:0.1; fill:none" points="
  1947.27,1487.47 1947.27,121.675 
  "/>
<polyline clip-path="url(#clip9302)" style="stroke:#000000; stroke-width:2; stroke-opacity:0.1; fill:none" points="
  2290.9,1487.47 2290.9,121.675 
  "/>
<polyline clip-path="url(#clip9302)" style="stroke:#000000; stroke-width:2; stroke-opacity:0.1; fill:none" points="
  167.279,1448.82 2352.76,1448.82 
  "/>
<polyline clip-path="url(#clip9302)" style="stroke:#000000; stroke-width:2; stroke-opacity:0.1; fill:none" points="
  167.279,1142.04 2352.76,1142.04 
  "/>
<polyline clip-path="url(#clip9302)" style="stroke:#000000; stroke-width:2; stroke-opacity:0.1; fill:none" points="
  167.279,835.253 2352.76,835.253 
  "/>
<polyline clip-path="url(#clip9302)" style="stroke:#000000; stroke-width:2; stroke-opacity:0.1; fill:none" points="
  167.279,528.47 2352.76,528.47 
  "/>
<polyline clip-path="url(#clip9302)" style="stroke:#000000; stroke-width:2; stroke-opacity:0.1; fill:none" points="
  167.279,221.687 2352.76,221.687 
  "/>
<polyline clip-path="url(#clip9300)" style="stroke:#000000; stroke-width:4; stroke-opacity:1; fill:none" points="
  167.279,1487.47 2352.76,1487.47 
  "/>
<polyline clip-path="url(#clip9300)" style="stroke:#000000; stroke-width:4; stroke-opacity:1; fill:none" points="
  167.279,1487.47 167.279,121.675 
  "/>
<polyline clip-path="url(#clip9300)" style="stroke:#000000; stroke-width:4; stroke-opacity:1; fill:none" points="
  229.132,1487.47 229.132,1466.99 
  "/>
<polyline clip-path="url(#clip9300)" style="stroke:#000000; stroke-width:4; stroke-opacity:1; fill:none" points="
  572.761,1487.47 572.761,1466.99 
  "/>
<polyline clip-path="url(#clip9300)" style="stroke:#000000; stroke-width:4; stroke-opacity:1; fill:none" points="
  916.389,1487.47 916.389,1466.99 
  "/>
<polyline clip-path="url(#clip9300)" style="stroke:#000000; stroke-width:4; stroke-opacity:1; fill:none" points="
  1260.02,1487.47 1260.02,1466.99 
  "/>
<polyline clip-path="url(#clip9300)" style="stroke:#000000; stroke-width:4; stroke-opacity:1; fill:none" points="
  1603.65,1487.47 1603.65,1466.99 
  "/>
<polyline clip-path="url(#clip9300)" style="stroke:#000000; stroke-width:4; stroke-opacity:1; fill:none" points="
  1947.27,1487.47 1947.27,1466.99 
  "/>
<polyline clip-path="url(#clip9300)" style="stroke:#000000; stroke-width:4; stroke-opacity:1; fill:none" points="
  2290.9,1487.47 2290.9,1466.99 
  "/>
<polyline clip-path="url(#clip9300)" style="stroke:#000000; stroke-width:4; stroke-opacity:1; fill:none" points="
  167.279,1448.82 200.061,1448.82 
  "/>
<polyline clip-path="url(#clip9300)" style="stroke:#000000; stroke-width:4; stroke-opacity:1; fill:none" points="
  167.279,1142.04 200.061,1142.04 
  "/>
<polyline clip-path="url(#clip9300)" style="stroke:#000000; stroke-width:4; stroke-opacity:1; fill:none" points="
  167.279,835.253 200.061,835.253 
  "/>
<polyline clip-path="url(#clip9300)" style="stroke:#000000; stroke-width:4; stroke-opacity:1; fill:none" points="
  167.279,528.47 200.061,528.47 
  "/>
<polyline clip-path="url(#clip9300)" style="stroke:#000000; stroke-width:4; stroke-opacity:1; fill:none" points="
  167.279,221.687 200.061,221.687 
  "/>
<g clip-path="url(#clip9300)">
<text style="fill:#000000; fill-opacity:1; font-family:Arial,Helvetica Neue,Helvetica,sans-serif; font-size:48px; text-anchor:middle;" transform="rotate(0, 229.132, 1541.47)" x="229.132" y="1541.47">-2</text>
</g>
<g clip-path="url(#clip9300)">
<text style="fill:#000000; fill-opacity:1; font-family:Arial,Helvetica Neue,Helvetica,sans-serif; font-size:48px; text-anchor:middle;" transform="rotate(0, 572.761, 1541.47)" x="572.761" y="1541.47">-1</text>
</g>
<g clip-path="url(#clip9300)">
<text style="fill:#000000; fill-opacity:1; font-family:Arial,Helvetica Neue,Helvetica,sans-serif; font-size:48px; text-anchor:middle;" transform="rotate(0, 916.389, 1541.47)" x="916.389" y="1541.47">0</text>
</g>
<g clip-path="url(#clip9300)">
<text style="fill:#000000; fill-opacity:1; font-family:Arial,Helvetica Neue,Helvetica,sans-serif; font-size:48px; text-anchor:middle;" transform="rotate(0, 1260.02, 1541.47)" x="1260.02" y="1541.47">1</text>
</g>
<g clip-path="url(#clip9300)">
<text style="fill:#000000; fill-opacity:1; font-family:Arial,Helvetica Neue,Helvetica,sans-serif; font-size:48px; text-anchor:middle;" transform="rotate(0, 1603.65, 1541.47)" x="1603.65" y="1541.47">2</text>
</g>
<g clip-path="url(#clip9300)">
<text style="fill:#000000; fill-opacity:1; font-family:Arial,Helvetica Neue,Helvetica,sans-serif; font-size:48px; text-anchor:middle;" transform="rotate(0, 1947.27, 1541.47)" x="1947.27" y="1541.47">3</text>
</g>
<g clip-path="url(#clip9300)">
<text style="fill:#000000; fill-opacity:1; font-family:Arial,Helvetica Neue,Helvetica,sans-serif; font-size:48px; text-anchor:middle;" transform="rotate(0, 2290.9, 1541.47)" x="2290.9" y="1541.47">4</text>
</g>
<g clip-path="url(#clip9300)">
<text style="fill:#000000; fill-opacity:1; font-family:Arial,Helvetica Neue,Helvetica,sans-serif; font-size:48px; text-anchor:end;" transform="rotate(0, 143.279, 1466.32)" x="143.279" y="1466.32">0</text>
</g>
<g clip-path="url(#clip9300)">
<text style="fill:#000000; fill-opacity:1; font-family:Arial,Helvetica Neue,Helvetica,sans-serif; font-size:48px; text-anchor:end;" transform="rotate(0, 143.279, 1159.54)" x="143.279" y="1159.54">200</text>
</g>
<g clip-path="url(#clip9300)">
<text style="fill:#000000; fill-opacity:1; font-family:Arial,Helvetica Neue,Helvetica,sans-serif; font-size:48px; text-anchor:end;" transform="rotate(0, 143.279, 852.753)" x="143.279" y="852.753">400</text>
</g>
<g clip-path="url(#clip9300)">
<text style="fill:#000000; fill-opacity:1; font-family:Arial,Helvetica Neue,Helvetica,sans-serif; font-size:48px; text-anchor:end;" transform="rotate(0, 143.279, 545.97)" x="143.279" y="545.97">600</text>
</g>
<g clip-path="url(#clip9300)">
<text style="fill:#000000; fill-opacity:1; font-family:Arial,Helvetica Neue,Helvetica,sans-serif; font-size:48px; text-anchor:end;" transform="rotate(0, 143.279, 239.187)" x="143.279" y="239.187">800</text>
</g>
<g clip-path="url(#clip9300)">
<text style="fill:#000000; fill-opacity:1; font-family:Arial,Helvetica Neue,Helvetica,sans-serif; font-size:84px; text-anchor:middle;" transform="rotate(0, 1260.02, 73.2)" x="1260.02" y="73.2">Data</text>
</g>
<polyline clip-path="url(#clip9302)" style="stroke:#009af9; stroke-width:4; stroke-opacity:1; fill:none" points="
  229.132,1448.82 229.132,1387.46 263.495,1387.46 263.495,1310.77 297.858,1310.77 297.858,1249.41 332.221,1249.41 332.221,1264.75 366.584,1264.75 366.584,1157.38 
  400.946,1157.38 400.946,1019.32 435.309,1019.32 435.309,942.627 469.672,942.627 469.672,957.967 504.035,957.967 504.035,850.592 538.398,850.592 538.398,927.288 
  572.761,927.288 572.761,804.575 607.124,804.575 607.124,1080.68 641.486,1080.68 641.486,620.505 675.849,620.505 675.849,957.967 710.212,957.967 710.212,1034.66 
  744.575,1034.66 744.575,1142.04 778.938,1142.04 778.938,1218.73 813.301,1218.73 813.301,1188.05 847.663,1188.05 847.663,1218.73 882.026,1218.73 882.026,1372.12 
  916.389,1372.12 916.389,1341.45 950.752,1341.45 950.752,1402.8 985.115,1402.8 985.115,1433.48 1019.48,1433.48 1019.48,1418.14 1053.84,1418.14 
  1088.2,1418.14 1122.57,1418.14 1156.93,1418.14 1156.93,1433.48 1191.29,1433.48 1191.29,1372.12 1225.65,1372.12 1225.65,1295.43 
  1260.02,1295.43 1260.02,1249.41 1294.38,1249.41 1294.38,1172.71 1328.74,1172.71 1328.74,1034.66 1363.11,1034.66 1363.11,957.967 1397.47,957.967 1397.47,911.949 
  1431.83,911.949 1431.83,528.47 1466.19,528.47 1466.19,482.452 1500.56,482.452 1500.56,344.4 1534.92,344.4 1534.92,160.33 1569.28,160.33 1569.28,651.183 
  1603.65,651.183 1603.65,237.026 1638.01,237.026 1638.01,298.382 1672.37,298.382 1672.37,589.827 1706.73,589.827 1706.73,329.061 1741.1,329.061 1741.1,451.774 
  1775.46,451.774 1775.46,666.522 1809.82,666.522 1809.82,819.914 1844.19,819.914 1844.19,973.306 1878.55,973.306 1878.55,1188.05 1912.91,1188.05 1912.91,1326.11 
  1947.27,1326.11 1947.27,1280.09 1981.64,1280.09 1981.64,1341.45 2016,1341.45 2016,1387.46 2050.36,1387.46 2050.36,1402.8 2084.73,1402.8 2084.73,1418.14 
  2119.09,1418.14 2119.09,1448.82 2153.45,1448.82 2187.81,1448.82 2222.18,1448.82 2256.54,1448.82 
  2290.9,1448.82 
  "/>
<path clip-path="url(#clip9300)" d="
M1939.1 326.155 L2280.76 326.155 L2280.76 205.195 L1939.1 205.195  Z
  " fill="#ffffff" fill-rule="evenodd" fill-opacity="1"/>
<polyline clip-path="url(#clip9300)" style="stroke:#000000; stroke-width:4; stroke-opacity:1; fill:none" points="
  1939.1,326.155 2280.76,326.155 2280.76,205.195 1939.1,205.195 1939.1,326.155 
  "/>
<polyline clip-path="url(#clip9300)" style="stroke:#009af9; stroke-width:4; stroke-opacity:1; fill:none" points="
  1963.1,265.675 2107.1,265.675 
  "/>
<g clip-path="url(#clip9300)">
<text style="fill:#000000; fill-opacity:1; font-family:Arial,Helvetica Neue,Helvetica,sans-serif; font-size:48px; text-anchor:start;" transform="rotate(0, 2131.1, 283.175)" x="2131.1" y="283.175">Data</text>
</g>
</svg>
