<?xml version="1.0" encoding="utf-8"?>
<svg xmlns="http://www.w3.org/2000/svg" xmlns:xlink="http://www.w3.org/1999/xlink" width="600" height="400" viewBox="0 0 2400 1600">
<defs>
  <clipPath id="clip350">
    <rect x="0" y="0" width="2400" height="1600"/>
  </clipPath>
</defs>
<path clip-path="url(#clip350)" d="
M0 1600 L2400 1600 L2400 0 L0 0  Z
  " fill="#ffffff" fill-rule="evenodd" fill-opacity="1"/>
<defs>
  <clipPath id="clip351">
    <rect x="480" y="0" width="1681" height="1600"/>
  </clipPath>
</defs>
<path clip-path="url(#clip350)" d="
M166.205 1486.45 L2352.76 1486.45 L2352.76 123.472 L166.205 123.472  Z
  " fill="#ffffff" fill-rule="evenodd" fill-opacity="1"/>
<defs>
  <clipPath id="clip352">
    <rect x="166" y="123" width="2188" height="1364"/>
  </clipPath>
</defs>
<polyline clip-path="url(#clip352)" style="stroke:#000000; stroke-width:2; stroke-opacity:0.1; fill:none" points="
  228.088,1486.45 228.088,123.472 
  "/>
<polyline clip-path="url(#clip352)" style="stroke:#000000; stroke-width:2; stroke-opacity:0.1; fill:none" points="
  571.886,1486.45 571.886,123.472 
  "/>
<polyline clip-path="url(#clip352)" style="stroke:#000000; stroke-width:2; stroke-opacity:0.1; fill:none" points="
  915.683,1486.45 915.683,123.472 
  "/>
<polyline clip-path="url(#clip352)" style="stroke:#000000; stroke-width:2; stroke-opacity:0.1; fill:none" points="
  1259.48,1486.45 1259.48,123.472 
  "/>
<polyline clip-path="url(#clip352)" style="stroke:#000000; stroke-width:2; stroke-opacity:0.1; fill:none" points="
  1603.28,1486.45 1603.28,123.472 
  "/>
<polyline clip-path="url(#clip352)" style="stroke:#000000; stroke-width:2; stroke-opacity:0.1; fill:none" points="
  1947.08,1486.45 1947.08,123.472 
  "/>
<polyline clip-path="url(#clip352)" style="stroke:#000000; stroke-width:2; stroke-opacity:0.1; fill:none" points="
  2290.87,1486.45 2290.87,123.472 
  "/>
<polyline clip-path="url(#clip352)" style="stroke:#000000; stroke-width:2; stroke-opacity:0.1; fill:none" points="
  166.205,1447.87 2352.76,1447.87 
  "/>
<polyline clip-path="url(#clip352)" style="stroke:#000000; stroke-width:2; stroke-opacity:0.1; fill:none" points="
  166.205,1148.84 2352.76,1148.84 
  "/>
<polyline clip-path="url(#clip352)" style="stroke:#000000; stroke-width:2; stroke-opacity:0.1; fill:none" points="
  166.205,849.814 2352.76,849.814 
  "/>
<polyline clip-path="url(#clip352)" style="stroke:#000000; stroke-width:2; stroke-opacity:0.1; fill:none" points="
  166.205,550.785 2352.76,550.785 
  "/>
<polyline clip-path="url(#clip352)" style="stroke:#000000; stroke-width:2; stroke-opacity:0.1; fill:none" points="
  166.205,251.756 2352.76,251.756 
  "/>
<polyline clip-path="url(#clip350)" style="stroke:#000000; stroke-width:4; stroke-opacity:1; fill:none" points="
  166.205,1486.45 2352.76,1486.45 
  "/>
<polyline clip-path="url(#clip350)" style="stroke:#000000; stroke-width:4; stroke-opacity:1; fill:none" points="
  166.205,1486.45 166.205,123.472 
  "/>
<polyline clip-path="url(#clip350)" style="stroke:#000000; stroke-width:4; stroke-opacity:1; fill:none" points="
  228.088,1486.45 228.088,1470.09 
  "/>
<polyline clip-path="url(#clip350)" style="stroke:#000000; stroke-width:4; stroke-opacity:1; fill:none" points="
  571.886,1486.45 571.886,1470.09 
  "/>
<polyline clip-path="url(#clip350)" style="stroke:#000000; stroke-width:4; stroke-opacity:1; fill:none" points="
  915.683,1486.45 915.683,1470.09 
  "/>
<polyline clip-path="url(#clip350)" style="stroke:#000000; stroke-width:4; stroke-opacity:1; fill:none" points="
  1259.48,1486.45 1259.48,1470.09 
  "/>
<polyline clip-path="url(#clip350)" style="stroke:#000000; stroke-width:4; stroke-opacity:1; fill:none" points="
  1603.28,1486.45 1603.28,1470.09 
  "/>
<polyline clip-path="url(#clip350)" style="stroke:#000000; stroke-width:4; stroke-opacity:1; fill:none" points="
  1947.08,1486.45 1947.08,1470.09 
  "/>
<polyline clip-path="url(#clip350)" style="stroke:#000000; stroke-width:4; stroke-opacity:1; fill:none" points="
  2290.87,1486.45 2290.87,1470.09 
  "/>
<polyline clip-path="url(#clip350)" style="stroke:#000000; stroke-width:4; stroke-opacity:1; fill:none" points="
  166.205,1447.87 192.443,1447.87 
  "/>
<polyline clip-path="url(#clip350)" style="stroke:#000000; stroke-width:4; stroke-opacity:1; fill:none" points="
  166.205,1148.84 192.443,1148.84 
  "/>
<polyline clip-path="url(#clip350)" style="stroke:#000000; stroke-width:4; stroke-opacity:1; fill:none" points="
  166.205,849.814 192.443,849.814 
  "/>
<polyline clip-path="url(#clip350)" style="stroke:#000000; stroke-width:4; stroke-opacity:1; fill:none" points="
  166.205,550.785 192.443,550.785 
  "/>
<polyline clip-path="url(#clip350)" style="stroke:#000000; stroke-width:4; stroke-opacity:1; fill:none" points="
  166.205,251.756 192.443,251.756 
  "/>
<path clip-path="url(#clip350)" d="M 0 0 M209.142 1525.04 L221.618 1525.04 L221.618 1528.83 L209.142 1528.83 L209.142 1525.04 Z" fill="#000000" fill-rule="evenodd" fill-opacity="1" /><path clip-path="url(#clip350)" d="M 0 0 M230.715 1535.98 L247.035 1535.98 L247.035 1539.92 L225.091 1539.92 L225.091 1535.98 Q227.753 1533.23 232.336 1528.6 Q236.942 1523.95 238.123 1522.61 Q240.368 1520.08 241.248 1518.35 Q242.151 1516.59 242.151 1514.9 Q242.151 1512.14 240.206 1510.41 Q238.285 1508.67 235.183 1508.67 Q232.984 1508.67 230.53 1509.43 Q228.1 1510.2 225.322 1511.75 L225.322 1507.03 Q228.146 1505.89 230.6 1505.31 Q233.053 1504.73 235.09 1504.73 Q240.461 1504.73 243.655 1507.42 Q246.85 1510.11 246.85 1514.6 Q246.85 1516.73 246.039 1518.65 Q245.252 1520.54 243.146 1523.14 Q242.567 1523.81 239.465 1527.03 Q236.364 1530.22 230.715 1535.98 Z" fill="#000000" fill-rule="evenodd" fill-opacity="1" /><path clip-path="url(#clip350)" d="M 0 0 M552.754 1525.04 L565.23 1525.04 L565.23 1528.83 L552.754 1528.83 L552.754 1525.04 Z" fill="#000000" fill-rule="evenodd" fill-opacity="1" /><path clip-path="url(#clip350)" d="M 0 0 M571.11 1535.98 L578.749 1535.98 L578.749 1509.62 L570.439 1511.29 L570.439 1507.03 L578.703 1505.36 L583.379 1505.36 L583.379 1535.98 L591.017 1535.98 L591.017 1539.92 L571.11 1539.92 L571.11 1535.98 Z" fill="#000000" fill-rule="evenodd" fill-opacity="1" /><path clip-path="url(#clip350)" d="M 0 0 M915.683 1508.44 Q912.072 1508.44 910.243 1512 Q908.438 1515.55 908.438 1522.67 Q908.438 1529.78 910.243 1533.35 Q912.072 1536.89 915.683 1536.89 Q919.317 1536.89 921.123 1533.35 Q922.951 1529.78 922.951 1522.67 Q922.951 1515.55 921.123 1512 Q919.317 1508.44 915.683 1508.44 M915.683 1504.73 Q921.493 1504.73 924.549 1509.34 Q927.627 1513.92 927.627 1522.67 Q927.627 1531.4 924.549 1536.01 Q921.493 1540.59 915.683 1540.59 Q909.873 1540.59 906.794 1536.01 Q903.739 1531.4 903.739 1522.67 Q903.739 1513.92 906.794 1509.34 Q909.873 1504.73 915.683 1504.73 Z" fill="#000000" fill-rule="evenodd" fill-opacity="1" /><path clip-path="url(#clip350)" d="M 0 0 M1249.86 1535.98 L1257.5 1535.98 L1257.5 1509.62 L1249.19 1511.29 L1249.19 1507.03 L1257.45 1505.36 L1262.13 1505.36 L1262.13 1535.98 L1269.77 1535.98 L1269.77 1539.92 L1249.86 1539.92 L1249.86 1535.98 Z" fill="#000000" fill-rule="evenodd" fill-opacity="1" /><path clip-path="url(#clip350)" d="M 0 0 M1597.93 1535.98 L1614.25 1535.98 L1614.25 1539.92 L1592.31 1539.92 L1592.31 1535.98 Q1594.97 1533.23 1599.55 1528.6 Q1604.16 1523.95 1605.34 1522.61 Q1607.58 1520.08 1608.46 1518.35 Q1609.37 1516.59 1609.37 1514.9 Q1609.37 1512.14 1607.42 1510.41 Q1605.5 1508.67 1602.4 1508.67 Q1600.2 1508.67 1597.75 1509.43 Q1595.31 1510.2 1592.54 1511.75 L1592.54 1507.03 Q1595.36 1505.89 1597.81 1505.31 Q1600.27 1504.73 1602.31 1504.73 Q1607.68 1504.73 1610.87 1507.42 Q1614.06 1510.11 1614.06 1514.6 Q1614.06 1516.73 1613.25 1518.65 Q1612.47 1520.54 1610.36 1523.14 Q1609.78 1523.81 1606.68 1527.03 Q1603.58 1530.22 1597.93 1535.98 Z" fill="#000000" fill-rule="evenodd" fill-opacity="1" /><path clip-path="url(#clip350)" d="M 0 0 M1951.32 1521.29 Q1954.68 1522 1956.55 1524.27 Q1958.45 1526.54 1958.45 1529.87 Q1958.45 1534.99 1954.93 1537.79 Q1951.42 1540.59 1944.93 1540.59 Q1942.76 1540.59 1940.44 1540.15 Q1938.15 1539.73 1935.7 1538.88 L1935.7 1534.36 Q1937.64 1535.5 1939.96 1536.08 Q1942.27 1536.66 1944.79 1536.66 Q1949.19 1536.66 1951.48 1534.92 Q1953.8 1533.18 1953.8 1529.87 Q1953.8 1526.82 1951.65 1525.11 Q1949.52 1523.37 1945.7 1523.37 L1941.67 1523.37 L1941.67 1519.53 L1945.88 1519.53 Q1949.33 1519.53 1951.16 1518.16 Q1952.99 1516.77 1952.99 1514.18 Q1952.99 1511.52 1951.09 1510.11 Q1949.22 1508.67 1945.7 1508.67 Q1943.78 1508.67 1941.58 1509.09 Q1939.38 1509.5 1936.74 1510.38 L1936.74 1506.22 Q1939.4 1505.48 1941.72 1505.11 Q1944.05 1504.73 1946.11 1504.73 Q1951.44 1504.73 1954.54 1507.17 Q1957.64 1509.57 1957.64 1513.69 Q1957.64 1516.56 1956 1518.55 Q1954.36 1520.52 1951.32 1521.29 Z" fill="#000000" fill-rule="evenodd" fill-opacity="1" /><path clip-path="url(#clip350)" d="M 0 0 M2293.88 1509.43 L2282.08 1527.88 L2293.88 1527.88 L2293.88 1509.43 M2292.65 1505.36 L2298.53 1505.36 L2298.53 1527.88 L2303.46 1527.88 L2303.46 1531.77 L2298.53 1531.77 L2298.53 1539.92 L2293.88 1539.92 L2293.88 1531.77 L2278.28 1531.77 L2278.28 1527.26 L2292.65 1505.36 Z" fill="#000000" fill-rule="evenodd" fill-opacity="1" /><path clip-path="url(#clip350)" d="M 0 0 M130.26 1433.67 Q126.649 1433.67 124.82 1437.24 Q123.015 1440.78 123.015 1447.91 Q123.015 1455.01 124.82 1458.58 Q126.649 1462.12 130.26 1462.12 Q133.895 1462.12 135.7 1458.58 Q137.529 1455.01 137.529 1447.91 Q137.529 1440.78 135.7 1437.24 Q133.895 1433.67 130.26 1433.67 M130.26 1429.97 Q136.07 1429.97 139.126 1434.57 Q142.205 1439.16 142.205 1447.91 Q142.205 1456.63 139.126 1461.24 Q136.07 1465.82 130.26 1465.82 Q124.45 1465.82 121.371 1461.24 Q118.316 1456.63 118.316 1447.91 Q118.316 1439.16 121.371 1434.57 Q124.45 1429.97 130.26 1429.97 Z" fill="#000000" fill-rule="evenodd" fill-opacity="1" /><path clip-path="url(#clip350)" d="M 0 0 M71.8578 1162.19 L88.1772 1162.19 L88.1772 1166.12 L66.2328 1166.12 L66.2328 1162.19 Q68.8949 1159.43 73.4782 1154.8 Q78.0846 1150.15 79.2652 1148.81 Q81.5105 1146.29 82.3902 1144.55 Q83.2929 1142.79 83.2929 1141.1 Q83.2929 1138.35 81.3485 1136.61 Q79.4272 1134.87 76.3254 1134.87 Q74.1263 1134.87 71.6726 1135.64 Q69.2421 1136.4 66.4643 1137.95 L66.4643 1133.23 Q69.2884 1132.1 71.7421 1131.52 Q74.1958 1130.94 76.2328 1130.94 Q81.6031 1130.94 84.7976 1133.62 Q87.992 1136.31 87.992 1140.8 Q87.992 1142.93 87.1818 1144.85 Q86.3948 1146.75 84.2883 1149.34 Q83.7096 1150.01 80.6078 1153.23 Q77.5059 1156.42 71.8578 1162.19 Z" fill="#000000" fill-rule="evenodd" fill-opacity="1" /><path clip-path="url(#clip350)" d="M 0 0 M103.247 1134.64 Q99.6354 1134.64 97.8068 1138.21 Q96.0012 1141.75 96.0012 1148.88 Q96.0012 1155.98 97.8068 1159.55 Q99.6354 1163.09 103.247 1163.09 Q106.881 1163.09 108.686 1159.55 Q110.515 1155.98 110.515 1148.88 Q110.515 1141.75 108.686 1138.21 Q106.881 1134.64 103.247 1134.64 M103.247 1130.94 Q109.057 1130.94 112.112 1135.55 Q115.191 1140.13 115.191 1148.88 Q115.191 1157.61 112.112 1162.21 Q109.057 1166.8 103.247 1166.8 Q97.4364 1166.8 94.3577 1162.21 Q91.3022 1157.61 91.3022 1148.88 Q91.3022 1140.13 94.3577 1135.55 Q97.4364 1130.94 103.247 1130.94 Z" fill="#000000" fill-rule="evenodd" fill-opacity="1" /><path clip-path="url(#clip350)" d="M 0 0 M130.26 1134.64 Q126.649 1134.64 124.82 1138.21 Q123.015 1141.75 123.015 1148.88 Q123.015 1155.98 124.82 1159.55 Q126.649 1163.09 130.26 1163.09 Q133.895 1163.09 135.7 1159.55 Q137.529 1155.98 137.529 1148.88 Q137.529 1141.75 135.7 1138.21 Q133.895 1134.64 130.26 1134.64 M130.26 1130.94 Q136.07 1130.94 139.126 1135.55 Q142.205 1140.13 142.205 1148.88 Q142.205 1157.61 139.126 1162.21 Q136.07 1166.8 130.26 1166.8 Q124.45 1166.8 121.371 1162.21 Q118.316 1157.61 118.316 1148.88 Q118.316 1140.13 121.371 1135.55 Q124.45 1130.94 130.26 1130.94 Z" fill="#000000" fill-rule="evenodd" fill-opacity="1" /><path clip-path="url(#clip350)" d="M 0 0 M78.5939 836.608 L66.7884 855.057 L78.5939 855.057 L78.5939 836.608 M77.367 832.534 L83.2466 832.534 L83.2466 855.057 L88.1772 855.057 L88.1772 858.946 L83.2466 858.946 L83.2466 867.094 L78.5939 867.094 L78.5939 858.946 L62.9921 858.946 L62.9921 854.432 L77.367 832.534 Z" fill="#000000" fill-rule="evenodd" fill-opacity="1" /><path clip-path="url(#clip350)" d="M 0 0 M103.247 835.613 Q99.6354 835.613 97.8068 839.178 Q96.0012 842.72 96.0012 849.849 Q96.0012 856.956 97.8068 860.52 Q99.6354 864.062 103.247 864.062 Q106.881 864.062 108.686 860.52 Q110.515 856.956 110.515 849.849 Q110.515 842.72 108.686 839.178 Q106.881 835.613 103.247 835.613 M103.247 831.909 Q109.057 831.909 112.112 836.516 Q115.191 841.099 115.191 849.849 Q115.191 858.576 112.112 863.182 Q109.057 867.766 103.247 867.766 Q97.4364 867.766 94.3577 863.182 Q91.3022 858.576 91.3022 849.849 Q91.3022 841.099 94.3577 836.516 Q97.4364 831.909 103.247 831.909 Z" fill="#000000" fill-rule="evenodd" fill-opacity="1" /><path clip-path="url(#clip350)" d="M 0 0 M130.26 835.613 Q126.649 835.613 124.82 839.178 Q123.015 842.72 123.015 849.849 Q123.015 856.956 124.82 860.52 Q126.649 864.062 130.26 864.062 Q133.895 864.062 135.7 860.52 Q137.529 856.956 137.529 849.849 Q137.529 842.72 135.7 839.178 Q133.895 835.613 130.26 835.613 M130.26 831.909 Q136.07 831.909 139.126 836.516 Q142.205 841.099 142.205 849.849 Q142.205 858.576 139.126 863.182 Q136.07 867.766 130.26 867.766 Q124.45 867.766 121.371 863.182 Q118.316 858.576 118.316 849.849 Q118.316 841.099 121.371 836.516 Q124.45 831.909 130.26 831.909 Z" fill="#000000" fill-rule="evenodd" fill-opacity="1" /><path clip-path="url(#clip350)" d="M 0 0 M76.6495 548.922 Q73.5013 548.922 71.6495 551.074 Q69.8208 553.227 69.8208 556.977 Q69.8208 560.704 71.6495 562.88 Q73.5013 565.033 76.6495 565.033 Q79.7976 565.033 81.6263 562.88 Q83.4781 560.704 83.4781 556.977 Q83.4781 553.227 81.6263 551.074 Q79.7976 548.922 76.6495 548.922 M85.9318 534.269 L85.9318 538.528 Q84.1726 537.695 82.367 537.255 Q80.5846 536.815 78.8254 536.815 Q74.1958 536.815 71.7421 539.94 Q69.3115 543.065 68.9643 549.385 Q70.33 547.371 72.3902 546.306 Q74.4504 545.218 76.9272 545.218 Q82.1355 545.218 85.1448 548.389 Q88.1772 551.537 88.1772 556.977 Q88.1772 562.301 85.029 565.519 Q81.8809 568.736 76.6495 568.736 Q70.6541 568.736 67.4828 564.153 Q64.3116 559.547 64.3116 550.82 Q64.3116 542.625 68.2004 537.764 Q72.0893 532.88 78.6402 532.88 Q80.3994 532.88 82.1818 533.227 Q83.9874 533.575 85.9318 534.269 Z" fill="#000000" fill-rule="evenodd" fill-opacity="1" /><path clip-path="url(#clip350)" d="M 0 0 M103.247 536.584 Q99.6354 536.584 97.8068 540.149 Q96.0012 543.69 96.0012 550.82 Q96.0012 557.926 97.8068 561.491 Q99.6354 565.033 103.247 565.033 Q106.881 565.033 108.686 561.491 Q110.515 557.926 110.515 550.82 Q110.515 543.69 108.686 540.149 Q106.881 536.584 103.247 536.584 M103.247 532.88 Q109.057 532.88 112.112 537.487 Q115.191 542.07 115.191 550.82 Q115.191 559.547 112.112 564.153 Q109.057 568.736 103.247 568.736 Q97.4364 568.736 94.3577 564.153 Q91.3022 559.547 91.3022 550.82 Q91.3022 542.07 94.3577 537.487 Q97.4364 532.88 103.247 532.88 Z" fill="#000000" fill-rule="evenodd" fill-opacity="1" /><path clip-path="url(#clip350)" d="M 0 0 M130.26 536.584 Q126.649 536.584 124.82 540.149 Q123.015 543.69 123.015 550.82 Q123.015 557.926 124.82 561.491 Q126.649 565.033 130.26 565.033 Q133.895 565.033 135.7 561.491 Q137.529 557.926 137.529 550.82 Q137.529 543.69 135.7 540.149 Q133.895 536.584 130.26 536.584 M130.26 532.88 Q136.07 532.88 139.126 537.487 Q142.205 542.07 142.205 550.82 Q142.205 559.547 139.126 564.153 Q136.07 568.736 130.26 568.736 Q124.45 568.736 121.371 564.153 Q118.316 559.547 118.316 550.82 Q118.316 542.07 121.371 537.487 Q124.45 532.88 130.26 532.88 Z" fill="#000000" fill-rule="evenodd" fill-opacity="1" /><path clip-path="url(#clip350)" d="M 0 0 M76.3254 252.624 Q72.9921 252.624 71.0708 254.406 Q69.1726 256.189 69.1726 259.314 Q69.1726 262.439 71.0708 264.221 Q72.9921 266.003 76.3254 266.003 Q79.6587 266.003 81.58 264.221 Q83.5013 262.415 83.5013 259.314 Q83.5013 256.189 81.58 254.406 Q79.6819 252.624 76.3254 252.624 M71.6495 250.633 Q68.6402 249.892 66.9504 247.832 Q65.2838 245.772 65.2838 242.809 Q65.2838 238.666 68.2236 236.258 Q71.1865 233.851 76.3254 233.851 Q81.4874 233.851 84.4272 236.258 Q87.367 238.666 87.367 242.809 Q87.367 245.772 85.6772 247.832 Q84.0105 249.892 81.0244 250.633 Q84.404 251.42 86.279 253.712 Q88.1772 256.003 88.1772 259.314 Q88.1772 264.337 85.0985 267.022 Q82.0429 269.707 76.3254 269.707 Q70.6078 269.707 67.5291 267.022 Q64.4736 264.337 64.4736 259.314 Q64.4736 256.003 66.3717 253.712 Q68.2699 251.42 71.6495 250.633 M69.9365 243.249 Q69.9365 245.934 71.6032 247.439 Q73.293 248.943 76.3254 248.943 Q79.3346 248.943 81.0244 247.439 Q82.7374 245.934 82.7374 243.249 Q82.7374 240.564 81.0244 239.059 Q79.3346 237.554 76.3254 237.554 Q73.293 237.554 71.6032 239.059 Q69.9365 240.564 69.9365 243.249 Z" fill="#000000" fill-rule="evenodd" fill-opacity="1" /><path clip-path="url(#clip350)" d="M 0 0 M103.247 237.554 Q99.6354 237.554 97.8068 241.119 Q96.0012 244.661 96.0012 251.79 Q96.0012 258.897 97.8068 262.462 Q99.6354 266.003 103.247 266.003 Q106.881 266.003 108.686 262.462 Q110.515 258.897 110.515 251.79 Q110.515 244.661 108.686 241.119 Q106.881 237.554 103.247 237.554 M103.247 233.851 Q109.057 233.851 112.112 238.457 Q115.191 243.04 115.191 251.79 Q115.191 260.517 112.112 265.124 Q109.057 269.707 103.247 269.707 Q97.4364 269.707 94.3577 265.124 Q91.3022 260.517 91.3022 251.79 Q91.3022 243.04 94.3577 238.457 Q97.4364 233.851 103.247 233.851 Z" fill="#000000" fill-rule="evenodd" fill-opacity="1" /><path clip-path="url(#clip350)" d="M 0 0 M130.26 237.554 Q126.649 237.554 124.82 241.119 Q123.015 244.661 123.015 251.79 Q123.015 258.897 124.82 262.462 Q126.649 266.003 130.26 266.003 Q133.895 266.003 135.7 262.462 Q137.529 258.897 137.529 251.79 Q137.529 244.661 135.7 241.119 Q133.895 237.554 130.26 237.554 M130.26 233.851 Q136.07 233.851 139.126 238.457 Q142.205 243.04 142.205 251.79 Q142.205 260.517 139.126 265.124 Q136.07 269.707 130.26 269.707 Q124.45 269.707 121.371 265.124 Q118.316 260.517 118.316 251.79 Q118.316 243.04 121.371 238.457 Q124.45 233.851 130.26 233.851 Z" fill="#000000" fill-rule="evenodd" fill-opacity="1" /><path clip-path="url(#clip350)" d="M 0 0 M1183.67 18.8205 L1183.67 65.8515 L1193.55 65.8515 Q1206.07 65.8515 1211.86 60.1802 Q1217.7 54.509 1217.7 42.2752 Q1217.7 30.1225 1211.86 24.4918 Q1206.07 18.8205 1193.55 18.8205 L1183.67 18.8205 M1175.48 12.096 L1192.3 12.096 Q1209.88 12.096 1218.1 19.4281 Q1226.32 26.7198 1226.32 42.2752 Q1226.32 57.9117 1218.06 65.2439 Q1209.8 72.576 1192.3 72.576 L1175.48 72.576 L1175.48 12.096 Z" fill="#000000" fill-rule="evenodd" fill-opacity="1" /><path clip-path="url(#clip350)" d="M 0 0 M1254.76 49.7694 Q1245.73 49.7694 1242.24 51.8354 Q1238.76 53.9013 1238.76 58.8839 Q1238.76 62.8538 1241.35 65.2034 Q1243.99 67.5124 1248.48 67.5124 Q1254.68 67.5124 1258.41 63.1374 Q1262.17 58.7219 1262.17 51.4303 L1262.17 49.7694 L1254.76 49.7694 M1269.63 46.6907 L1269.63 72.576 L1262.17 72.576 L1262.17 65.6895 Q1259.62 69.8214 1255.81 71.8063 Q1252.01 73.7508 1246.5 73.7508 Q1239.53 73.7508 1235.4 69.8619 Q1231.31 65.9325 1231.31 59.3701 Q1231.31 51.7138 1236.41 47.825 Q1241.56 43.9361 1251.72 43.9361 L1262.17 43.9361 L1262.17 43.2069 Q1262.17 38.0623 1258.77 35.2672 Q1255.41 32.4315 1249.29 32.4315 Q1245.4 32.4315 1241.72 33.3632 Q1238.03 34.295 1234.63 36.1584 L1234.63 29.2718 Q1238.72 27.692 1242.57 26.9223 Q1246.42 26.1121 1250.06 26.1121 Q1259.91 26.1121 1264.77 31.2163 Q1269.63 36.3204 1269.63 46.6907 Z" fill="#000000" fill-rule="evenodd" fill-opacity="1" /><path clip-path="url(#clip350)" d="M 0 0 M1284.82 14.324 L1284.82 27.2059 L1300.17 27.2059 L1300.17 32.9987 L1284.82 32.9987 L1284.82 57.6282 Q1284.82 63.1779 1286.32 64.7578 Q1287.86 66.3376 1292.52 66.3376 L1300.17 66.3376 L1300.17 72.576 L1292.52 72.576 Q1283.89 72.576 1280.61 69.3758 Q1277.32 66.1351 1277.32 57.6282 L1277.32 32.9987 L1271.86 32.9987 L1271.86 27.2059 L1277.32 27.2059 L1277.32 14.324 L1284.82 14.324 Z" fill="#000000" fill-rule="evenodd" fill-opacity="1" /><path clip-path="url(#clip350)" d="M 0 0 M1328.61 49.7694 Q1319.58 49.7694 1316.09 51.8354 Q1312.61 53.9013 1312.61 58.8839 Q1312.61 62.8538 1315.2 65.2034 Q1317.83 67.5124 1322.33 67.5124 Q1328.53 67.5124 1332.25 63.1374 Q1336.02 58.7219 1336.02 51.4303 L1336.02 49.7694 L1328.61 49.7694 M1343.48 46.6907 L1343.48 72.576 L1336.02 72.576 L1336.02 65.6895 Q1333.47 69.8214 1329.66 71.8063 Q1325.85 73.7508 1320.35 73.7508 Q1313.38 73.7508 1309.25 69.8619 Q1305.15 65.9325 1305.15 59.3701 Q1305.15 51.7138 1310.26 47.825 Q1315.4 43.9361 1325.57 43.9361 L1336.02 43.9361 L1336.02 43.2069 Q1336.02 38.0623 1332.62 35.2672 Q1329.26 32.4315 1323.14 32.4315 Q1319.25 32.4315 1315.57 33.3632 Q1311.88 34.295 1308.48 36.1584 L1308.48 29.2718 Q1312.57 27.692 1316.42 26.9223 Q1320.26 26.1121 1323.91 26.1121 Q1333.75 26.1121 1338.61 31.2163 Q1343.48 36.3204 1343.48 46.6907 Z" fill="#000000" fill-rule="evenodd" fill-opacity="1" /><polyline clip-path="url(#clip352)" style="stroke:#009af9; stroke-width:4; stroke-opacity:1; fill:none" points="
  228.088,1447.87 228.088,1313.31 262.468,1313.31 262.468,1328.26 296.848,1328.26 296.848,1343.21 331.227,1343.21 331.227,1193.7 365.607,1193.7 365.607,1178.75 
  399.987,1178.75 399.987,879.717 434.367,879.717 434.367,849.814 468.746,849.814 468.746,939.523 503.126,939.523 503.126,834.863 537.506,834.863 537.506,969.426 
  571.886,969.426 571.886,909.62 606.265,909.62 606.265,864.766 640.645,864.766 640.645,939.523 675.025,939.523 675.025,1044.18 709.405,1044.18 709.405,1148.84 
  743.784,1148.84 778.164,1148.84 778.164,1103.99 812.544,1103.99 812.544,1268.46 846.923,1268.46 846.923,1283.41 881.303,1283.41 881.303,1373.12 
  915.683,1373.12 915.683,1403.02 950.063,1403.02 950.063,1373.12 984.442,1373.12 984.442,1403.02 1018.82,1403.02 1018.82,1432.92 1053.2,1432.92 1053.2,1447.87 
  1087.58,1447.87 1087.58,1388.07 1121.96,1388.07 1121.96,1417.97 1156.34,1417.97 1156.34,1373.12 1190.72,1373.12 1190.72,1388.07 1225.1,1388.07 1225.1,1328.26 
  1259.48,1328.26 1259.48,1238.55 1293.86,1238.55 1293.86,1193.7 1328.24,1193.7 1328.24,1059.13 1362.62,1059.13 1362.62,954.475 1397,954.475 1397,864.766 
  1431.38,864.766 1431.38,685.348 1465.76,685.348 1465.76,401.27 1500.14,401.27 1534.52,401.27 1534.52,311.562 1568.9,311.562 1568.9,162.047 
  1603.28,162.047 1603.28,446.125 1637.66,446.125 1637.66,505.931 1672.04,505.931 1706.42,505.931 1706.42,386.319 1740.8,386.319 1740.8,670.397 
  1775.18,670.397 1775.18,715.251 1809.56,715.251 1809.56,924.572 1843.94,924.572 1843.94,1074.09 1878.32,1074.09 1878.32,1133.89 1912.7,1133.89 1912.7,1163.8 
  1947.08,1163.8 1947.08,1283.41 1981.45,1283.41 1981.45,1358.16 2015.83,1358.16 2015.83,1403.02 2050.21,1403.02 2050.21,1388.07 2084.59,1388.07 
  2118.97,1388.07 2118.97,1447.87 2153.35,1447.87 2153.35,1432.92 2187.73,1432.92 2187.73,1447.87 2222.11,1447.87 2256.49,1447.87 
  2290.87,1447.87 
  "/>
<path clip-path="url(#clip350)" d="
M1944.76 327.952 L2280.76 327.952 L2280.76 206.992 L1944.76 206.992  Z
  " fill="#ffffff" fill-rule="evenodd" fill-opacity="1"/>
<polyline clip-path="url(#clip350)" style="stroke:#000000; stroke-width:4; stroke-opacity:1; fill:none" points="
  1944.76,327.952 2280.76,327.952 2280.76,206.992 1944.76,206.992 1944.76,327.952 
  "/>
<polyline clip-path="url(#clip350)" style="stroke:#009af9; stroke-width:4; stroke-opacity:1; fill:none" points="
  1968.76,267.472 2112.76,267.472 
  "/>
<path clip-path="url(#clip350)" d="M 0 0 M2141.44 254.035 L2141.44 280.91 L2147.09 280.91 Q2154.24 280.91 2157.55 277.669 Q2160.88 274.428 2160.88 267.437 Q2160.88 260.493 2157.55 257.275 Q2154.24 254.035 2147.09 254.035 L2141.44 254.035 M2136.76 250.192 L2146.37 250.192 Q2156.41 250.192 2161.11 254.382 Q2165.81 258.549 2165.81 267.437 Q2165.81 276.373 2161.09 280.562 Q2156.37 284.752 2146.37 284.752 L2136.76 284.752 L2136.76 250.192 Z" fill="#000000" fill-rule="evenodd" fill-opacity="1" /><path clip-path="url(#clip350)" d="M 0 0 M2182.06 271.72 Q2176.9 271.72 2174.91 272.9 Q2172.92 274.081 2172.92 276.928 Q2172.92 279.197 2174.4 280.539 Q2175.9 281.859 2178.47 281.859 Q2182.02 281.859 2184.15 279.359 Q2186.3 276.836 2186.3 272.669 L2186.3 271.72 L2182.06 271.72 M2190.56 269.961 L2190.56 284.752 L2186.3 284.752 L2186.3 280.817 Q2184.84 283.178 2182.66 284.312 Q2180.49 285.423 2177.34 285.423 Q2173.36 285.423 2171 283.201 Q2168.66 280.956 2168.66 277.206 Q2168.66 272.831 2171.58 270.609 Q2174.52 268.386 2180.33 268.386 L2186.3 268.386 L2186.3 267.97 Q2186.3 265.03 2184.35 263.433 Q2182.43 261.812 2178.94 261.812 Q2176.71 261.812 2174.61 262.345 Q2172.5 262.877 2170.56 263.942 L2170.56 260.007 Q2172.9 259.104 2175.09 258.664 Q2177.29 258.201 2179.38 258.201 Q2185 258.201 2187.78 261.118 Q2190.56 264.035 2190.56 269.961 Z" fill="#000000" fill-rule="evenodd" fill-opacity="1" /><path clip-path="url(#clip350)" d="M 0 0 M2199.24 251.465 L2199.24 258.826 L2208.01 258.826 L2208.01 262.137 L2199.24 262.137 L2199.24 276.211 Q2199.24 279.382 2200.09 280.285 Q2200.97 281.187 2203.64 281.187 L2208.01 281.187 L2208.01 284.752 L2203.64 284.752 Q2198.71 284.752 2196.83 282.923 Q2194.96 281.072 2194.96 276.211 L2194.96 262.137 L2191.83 262.137 L2191.83 258.826 L2194.96 258.826 L2194.96 251.465 L2199.24 251.465 Z" fill="#000000" fill-rule="evenodd" fill-opacity="1" /><path clip-path="url(#clip350)" d="M 0 0 M2224.26 271.72 Q2219.1 271.72 2217.11 272.9 Q2215.12 274.081 2215.12 276.928 Q2215.12 279.197 2216.6 280.539 Q2218.1 281.859 2220.67 281.859 Q2224.21 281.859 2226.34 279.359 Q2228.5 276.836 2228.5 272.669 L2228.5 271.72 L2224.26 271.72 M2232.76 269.961 L2232.76 284.752 L2228.5 284.752 L2228.5 280.817 Q2227.04 283.178 2224.86 284.312 Q2222.69 285.423 2219.54 285.423 Q2215.56 285.423 2213.2 283.201 Q2210.86 280.956 2210.86 277.206 Q2210.86 272.831 2213.77 270.609 Q2216.71 268.386 2222.52 268.386 L2228.5 268.386 L2228.5 267.97 Q2228.5 265.03 2226.55 263.433 Q2224.63 261.812 2221.14 261.812 Q2218.91 261.812 2216.81 262.345 Q2214.7 262.877 2212.76 263.942 L2212.76 260.007 Q2215.09 259.104 2217.29 258.664 Q2219.49 258.201 2221.58 258.201 Q2227.2 258.201 2229.98 261.118 Q2232.76 264.035 2232.76 269.961 Z" fill="#000000" fill-rule="evenodd" fill-opacity="1" /></svg>
