<?xml version="1.0" encoding="utf-8"?>
<svg xmlns="http://www.w3.org/2000/svg" xmlns:xlink="http://www.w3.org/1999/xlink" width="600" height="400" viewBox="0 0 2400 1600">
<defs>
  <clipPath id="clip6700">
    <rect x="0" y="0" width="2400" height="1600"/>
  </clipPath>
</defs>
<path clip-path="url(#clip6700)" d="
M0 1600 L2400 1600 L2400 0 L0 0  Z
  " fill="#ffffff" fill-rule="evenodd" fill-opacity="1"/>
<defs>
  <clipPath id="clip6701">
    <rect x="480" y="0" width="1681" height="1600"/>
  </clipPath>
</defs>
<path clip-path="url(#clip6700)" d="
M167.279 1487.47 L2352.76 1487.47 L2352.76 121.675 L167.279 121.675  Z
  " fill="#ffffff" fill-rule="evenodd" fill-opacity="1"/>
<defs>
  <clipPath id="clip6702">
    <rect x="167" y="121" width="2186" height="1367"/>
  </clipPath>
</defs>
<polyline clip-path="url(#clip6702)" style="stroke:#000000; stroke-width:2; stroke-opacity:0.1; fill:none" points="
  229.132,1487.47 229.132,121.675 
  "/>
<polyline clip-path="url(#clip6702)" style="stroke:#000000; stroke-width:2; stroke-opacity:0.1; fill:none" points="
  744.575,1487.47 744.575,121.675 
  "/>
<polyline clip-path="url(#clip6702)" style="stroke:#000000; stroke-width:2; stroke-opacity:0.1; fill:none" points="
  1260.02,1487.47 1260.02,121.675 
  "/>
<polyline clip-path="url(#clip6702)" style="stroke:#000000; stroke-width:2; stroke-opacity:0.1; fill:none" points="
  1775.46,1487.47 1775.46,121.675 
  "/>
<polyline clip-path="url(#clip6702)" style="stroke:#000000; stroke-width:2; stroke-opacity:0.1; fill:none" points="
  2290.9,1487.47 2290.9,121.675 
  "/>
<polyline clip-path="url(#clip6702)" style="stroke:#000000; stroke-width:2; stroke-opacity:0.1; fill:none" points="
  167.279,1448.82 2352.76,1448.82 
  "/>
<polyline clip-path="url(#clip6702)" style="stroke:#000000; stroke-width:2; stroke-opacity:0.1; fill:none" points="
  167.279,1152.62 2352.76,1152.62 
  "/>
<polyline clip-path="url(#clip6702)" style="stroke:#000000; stroke-width:2; stroke-opacity:0.1; fill:none" points="
  167.279,856.411 2352.76,856.411 
  "/>
<polyline clip-path="url(#clip6702)" style="stroke:#000000; stroke-width:2; stroke-opacity:0.1; fill:none" points="
  167.279,560.206 2352.76,560.206 
  "/>
<polyline clip-path="url(#clip6702)" style="stroke:#000000; stroke-width:2; stroke-opacity:0.1; fill:none" points="
  167.279,264.001 2352.76,264.001 
  "/>
<polyline clip-path="url(#clip6700)" style="stroke:#000000; stroke-width:4; stroke-opacity:1; fill:none" points="
  167.279,1487.47 2352.76,1487.47 
  "/>
<polyline clip-path="url(#clip6700)" style="stroke:#000000; stroke-width:4; stroke-opacity:1; fill:none" points="
  167.279,1487.47 167.279,121.675 
  "/>
<polyline clip-path="url(#clip6700)" style="stroke:#000000; stroke-width:4; stroke-opacity:1; fill:none" points="
  229.132,1487.47 229.132,1471.09 
  "/>
<polyline clip-path="url(#clip6700)" style="stroke:#000000; stroke-width:4; stroke-opacity:1; fill:none" points="
  744.575,1487.47 744.575,1471.09 
  "/>
<polyline clip-path="url(#clip6700)" style="stroke:#000000; stroke-width:4; stroke-opacity:1; fill:none" points="
  1260.02,1487.47 1260.02,1471.09 
  "/>
<polyline clip-path="url(#clip6700)" style="stroke:#000000; stroke-width:4; stroke-opacity:1; fill:none" points="
  1775.46,1487.47 1775.46,1471.09 
  "/>
<polyline clip-path="url(#clip6700)" style="stroke:#000000; stroke-width:4; stroke-opacity:1; fill:none" points="
  2290.9,1487.47 2290.9,1471.09 
  "/>
<polyline clip-path="url(#clip6700)" style="stroke:#000000; stroke-width:4; stroke-opacity:1; fill:none" points="
  167.279,1448.82 193.505,1448.82 
  "/>
<polyline clip-path="url(#clip6700)" style="stroke:#000000; stroke-width:4; stroke-opacity:1; fill:none" points="
  167.279,1152.62 193.505,1152.62 
  "/>
<polyline clip-path="url(#clip6700)" style="stroke:#000000; stroke-width:4; stroke-opacity:1; fill:none" points="
  167.279,856.411 193.505,856.411 
  "/>
<polyline clip-path="url(#clip6700)" style="stroke:#000000; stroke-width:4; stroke-opacity:1; fill:none" points="
  167.279,560.206 193.505,560.206 
  "/>
<polyline clip-path="url(#clip6700)" style="stroke:#000000; stroke-width:4; stroke-opacity:1; fill:none" points="
  167.279,264.001 193.505,264.001 
  "/>
<g clip-path="url(#clip6700)">
<text style="fill:#000000; fill-opacity:1; font-family:Arial,Helvetica Neue,Helvetica,sans-serif; font-size:48px; text-anchor:middle;" transform="rotate(0, 229.132, 1541.47)" x="229.132" y="1541.47">-4</text>
</g>
<g clip-path="url(#clip6700)">
<text style="fill:#000000; fill-opacity:1; font-family:Arial,Helvetica Neue,Helvetica,sans-serif; font-size:48px; text-anchor:middle;" transform="rotate(0, 744.575, 1541.47)" x="744.575" y="1541.47">-2</text>
</g>
<g clip-path="url(#clip6700)">
<text style="fill:#000000; fill-opacity:1; font-family:Arial,Helvetica Neue,Helvetica,sans-serif; font-size:48px; text-anchor:middle;" transform="rotate(0, 1260.02, 1541.47)" x="1260.02" y="1541.47">0</text>
</g>
<g clip-path="url(#clip6700)">
<text style="fill:#000000; fill-opacity:1; font-family:Arial,Helvetica Neue,Helvetica,sans-serif; font-size:48px; text-anchor:middle;" transform="rotate(0, 1775.46, 1541.47)" x="1775.46" y="1541.47">2</text>
</g>
<g clip-path="url(#clip6700)">
<text style="fill:#000000; fill-opacity:1; font-family:Arial,Helvetica Neue,Helvetica,sans-serif; font-size:48px; text-anchor:middle;" transform="rotate(0, 2290.9, 1541.47)" x="2290.9" y="1541.47">4</text>
</g>
<g clip-path="url(#clip6700)">
<text style="fill:#000000; fill-opacity:1; font-family:Arial,Helvetica Neue,Helvetica,sans-serif; font-size:48px; text-anchor:end;" transform="rotate(0, 143.279, 1466.32)" x="143.279" y="1466.32">0</text>
</g>
<g clip-path="url(#clip6700)">
<text style="fill:#000000; fill-opacity:1; font-family:Arial,Helvetica Neue,Helvetica,sans-serif; font-size:48px; text-anchor:end;" transform="rotate(0, 143.279, 1170.12)" x="143.279" y="1170.12">200</text>
</g>
<g clip-path="url(#clip6700)">
<text style="fill:#000000; fill-opacity:1; font-family:Arial,Helvetica Neue,Helvetica,sans-serif; font-size:48px; text-anchor:end;" transform="rotate(0, 143.279, 873.911)" x="143.279" y="873.911">400</text>
</g>
<g clip-path="url(#clip6700)">
<text style="fill:#000000; fill-opacity:1; font-family:Arial,Helvetica Neue,Helvetica,sans-serif; font-size:48px; text-anchor:end;" transform="rotate(0, 143.279, 577.706)" x="143.279" y="577.706">600</text>
</g>
<g clip-path="url(#clip6700)">
<text style="fill:#000000; fill-opacity:1; font-family:Arial,Helvetica Neue,Helvetica,sans-serif; font-size:48px; text-anchor:end;" transform="rotate(0, 143.279, 281.501)" x="143.279" y="281.501">800</text>
</g>
<g clip-path="url(#clip6700)">
<text style="fill:#000000; fill-opacity:1; font-family:Arial,Helvetica Neue,Helvetica,sans-serif; font-size:84px; text-anchor:middle;" transform="rotate(0, 1260.02, 73.2)" x="1260.02" y="73.2">Data and True Statistical Model</text>
</g>
<polyline clip-path="url(#clip6702)" style="stroke:#009af9; stroke-width:4; stroke-opacity:1; fill:none" points="
  744.575,1448.82 744.575,1359.96 770.347,1359.96 770.347,1241.48 796.119,1241.48 796.119,1315.53 821.891,1315.53 821.891,1108.18 847.663,1108.18 847.663,1137.81 
  873.436,1137.81 873.436,1122.99 899.208,1122.99 899.208,1078.56 924.98,1078.56 924.98,811.98 950.752,811.98 950.752,886.031 976.524,886.031 976.524,930.462 
  1002.3,930.462 1002.3,886.031 1028.07,886.031 1028.07,871.221 1053.84,871.221 1053.84,1019.32 1079.61,1019.32 1079.61,960.082 1105.38,960.082 
  1131.16,960.082 1131.16,1182.24 1156.93,1182.24 1156.93,1226.67 1182.7,1226.67 1182.7,1300.72 1208.47,1300.72 1208.47,1285.91 1234.25,1285.91 1234.25,1330.34 
  1260.02,1330.34 1260.02,1374.77 1285.79,1374.77 1285.79,1434.01 1311.56,1434.01 1311.56,1389.58 1337.33,1389.58 1337.33,1419.2 1363.11,1419.2 1363.11,1404.39 
  1388.88,1404.39 1388.88,1434.01 1414.65,1434.01 1440.42,1434.01 1440.42,1404.39 1466.19,1404.39 1466.19,1315.53 1491.97,1315.53 1491.97,1330.34 
  1517.74,1330.34 1517.74,1211.86 1543.51,1211.86 1543.51,1241.48 1569.28,1241.48 1569.28,1004.51 1595.06,1004.51 1595.06,886.031 1620.83,886.031 1620.83,797.17 
  1646.6,797.17 1646.6,678.688 1672.37,678.688 1672.37,575.016 1698.14,575.016 1698.14,160.33 1723.92,160.33 1723.92,397.294 1749.69,397.294 1749.69,293.622 
  1775.46,293.622 1775.46,189.95 1801.23,189.95 1801.23,441.724 1827,441.724 1827,500.965 1852.78,500.965 1852.78,367.673 1878.55,367.673 1878.55,826.79 
  1904.32,826.79 1904.32,841.601 1930.09,841.601 1930.09,974.893 1955.87,974.893 1955.87,1078.56 1981.64,1078.56 1981.64,1182.24 2007.41,1182.24 2007.41,1211.86 
  2033.18,1211.86 2033.18,1271.1 2058.95,1271.1 2058.95,1359.96 2084.73,1359.96 2084.73,1419.2 2110.5,1419.2 2110.5,1389.58 2136.27,1389.58 2136.27,1448.82 
  2162.04,1448.82 2187.81,1448.82 2187.81,1434.01 2213.59,1434.01 2213.59,1448.82 2239.36,1448.82 2265.13,1448.82 
  2290.9,1448.82 
  "/>
<polyline clip-path="url(#clip6702)" style="stroke:#e26f46; stroke-width:4; stroke-opacity:1; fill:none" points="
  229.132,1448.82 231.709,1448.82 234.287,1448.82 236.864,1448.82 239.441,1448.82 242.018,1448.82 244.596,1448.82 247.173,1448.82 249.75,1448.82 252.327,1448.82 
  254.904,1448.82 257.482,1448.82 260.059,1448.82 262.636,1448.82 265.213,1448.82 267.79,1448.82 270.368,1448.82 272.945,1448.82 275.522,1448.82 278.099,1448.82 
  280.677,1448.82 283.254,1448.82 285.831,1448.82 288.408,1448.82 290.985,1448.82 293.563,1448.82 296.14,1448.82 298.717,1448.82 301.294,1448.82 303.871,1448.82 
  306.449,1448.82 309.026,1448.82 311.603,1448.82 314.18,1448.82 316.758,1448.82 319.335,1448.82 321.912,1448.82 324.489,1448.82 327.066,1448.82 329.644,1448.82 
  332.221,1448.82 334.798,1448.82 337.375,1448.82 339.952,1448.82 342.53,1448.82 345.107,1448.82 347.684,1448.82 350.261,1448.82 352.838,1448.82 355.416,1448.82 
  357.993,1448.82 360.57,1448.82 363.147,1448.82 365.725,1448.82 368.302,1448.82 370.879,1448.82 373.456,1448.82 376.033,1448.82 378.611,1448.82 381.188,1448.81 
  383.765,1448.81 386.342,1448.81 388.919,1448.81 391.497,1448.81 394.074,1448.81 396.651,1448.81 399.228,1448.81 401.806,1448.81 404.383,1448.81 406.96,1448.81 
  409.537,1448.81 412.114,1448.8 414.692,1448.8 417.269,1448.8 419.846,1448.8 422.423,1448.8 425,1448.79 427.578,1448.79 430.155,1448.79 432.732,1448.79 
  435.309,1448.78 437.887,1448.78 440.464,1448.78 443.041,1448.77 445.618,1448.77 448.195,1448.76 450.773,1448.76 453.35,1448.75 455.927,1448.75 458.504,1448.74 
  461.081,1448.73 463.659,1448.73 466.236,1448.72 468.813,1448.71 471.39,1448.7 473.968,1448.69 476.545,1448.68 479.122,1448.66 481.699,1448.65 484.276,1448.64 
  486.854,1448.62 489.431,1448.61 492.008,1448.59 494.585,1448.57 497.162,1448.55 499.74,1448.53 502.317,1448.5 504.894,1448.48 507.471,1448.45 510.048,1448.42 
  512.626,1448.39 515.203,1448.35 517.78,1448.32 520.357,1448.28 522.935,1448.24 525.512,1448.19 528.089,1448.14 530.666,1448.09 533.243,1448.04 535.821,1447.98 
  538.398,1447.91 540.975,1447.85 543.552,1447.77 546.129,1447.7 548.707,1447.62 551.284,1447.53 553.861,1447.43 556.438,1447.33 559.016,1447.23 561.593,1447.12 
  564.17,1447 566.747,1446.87 569.324,1446.73 571.902,1446.59 574.479,1446.43 577.056,1446.27 579.633,1446.1 582.21,1445.91 584.788,1445.72 587.365,1445.51 
  589.942,1445.29 592.519,1445.06 595.097,1444.81 597.674,1444.55 600.251,1444.27 602.828,1443.98 605.405,1443.67 607.983,1443.35 610.56,1443 613.137,1442.64 
  615.714,1442.26 618.291,1441.85 620.869,1441.43 623.446,1440.98 626.023,1440.5 628.6,1440 631.178,1439.48 633.755,1438.93 636.332,1438.35 638.909,1437.74 
  641.486,1437.1 644.064,1436.42 646.641,1435.72 649.218,1434.98 651.795,1434.2 654.372,1433.39 656.95,1432.53 659.527,1431.64 662.104,1430.7 664.681,1429.73 
  667.258,1428.7 669.836,1427.63 672.413,1426.52 674.99,1425.35 677.567,1424.13 680.145,1422.86 682.722,1421.53 685.299,1420.15 687.876,1418.71 690.453,1417.21 
  693.031,1415.65 695.608,1414.03 698.185,1412.34 700.762,1410.59 703.339,1408.76 705.917,1406.87 708.494,1404.9 711.071,1402.86 713.648,1400.75 716.226,1398.55 
  718.803,1396.28 721.38,1393.93 723.957,1391.49 726.534,1388.98 729.112,1386.37 731.689,1383.68 734.266,1380.9 736.843,1378.03 739.42,1375.06 741.998,1372.01 
  744.575,1368.86 747.152,1365.61 749.729,1362.27 752.307,1358.83 754.884,1355.28 757.461,1351.64 760.038,1347.9 762.615,1344.05 765.193,1340.1 767.77,1336.05 
  770.347,1331.89 772.924,1327.63 775.501,1323.26 778.079,1318.79 780.656,1314.21 783.233,1309.53 785.81,1304.74 788.388,1299.85 790.965,1294.85 793.542,1289.75 
  796.119,1284.54 798.696,1279.24 801.274,1273.83 803.851,1268.32 806.428,1262.71 809.005,1257 811.582,1251.2 814.16,1245.3 816.737,1239.31 819.314,1233.24 
  821.891,1227.07 824.469,1220.82 827.046,1214.49 829.623,1208.07 832.2,1201.58 834.777,1195.02 837.355,1188.39 839.932,1181.69 842.509,1174.92 845.086,1168.1 
  847.663,1161.23 850.241,1154.3 852.818,1147.33 855.395,1140.31 857.972,1133.26 860.549,1126.18 863.127,1119.07 865.704,1111.93 868.281,1104.78 870.858,1097.62 
  873.436,1090.46 876.013,1083.29 878.59,1076.13 881.167,1068.98 883.744,1061.85 886.322,1054.74 888.899,1047.66 891.476,1040.62 894.053,1033.62 896.63,1026.67 
  899.208,1019.78 901.785,1012.95 904.362,1006.18 906.939,999.493 909.517,992.885 912.094,986.365 914.671,979.939 917.248,973.613 919.825,967.395 922.403,961.291 
  924.98,955.307 927.557,949.449 930.134,943.723 932.711,938.137 935.289,932.695 937.866,927.403 940.443,922.268 943.02,917.295 945.598,912.49 948.175,907.858 
  950.752,903.403 953.329,899.133 955.906,895.05 958.484,891.16 961.061,887.467 963.638,883.976 966.215,880.69 968.792,877.614 971.37,874.751 973.947,872.104 
  976.524,869.677 979.101,867.472 981.679,865.492 984.256,863.739 986.833,862.216 989.41,860.924 991.987,859.865 994.565,859.04 997.142,858.45 999.719,858.095 
  1002.3,857.977 1004.87,858.095 1007.45,858.45 1010.03,859.04 1012.61,859.865 1015.18,860.924 1017.76,862.216 1020.34,863.739 1022.91,865.492 1025.49,867.472 
  1028.07,869.677 1030.65,872.104 1033.22,874.751 1035.8,877.614 1038.38,880.69 1040.95,883.976 1043.53,887.467 1046.11,891.16 1048.69,895.05 1051.26,899.132 
  1053.84,903.403 1056.42,907.857 1058.99,912.49 1061.57,917.295 1064.15,922.268 1066.73,927.403 1069.3,932.694 1071.88,938.136 1074.46,943.723 1077.04,949.448 
  1079.61,955.306 1082.19,961.29 1084.77,967.395 1087.34,973.613 1089.92,979.938 1092.5,986.364 1095.08,992.884 1097.65,999.492 1100.23,1006.18 1102.81,1012.95 
  1105.38,1019.78 1107.96,1026.67 1110.54,1033.62 1113.12,1040.62 1115.69,1047.66 1118.27,1054.74 1120.85,1061.85 1123.43,1068.98 1126,1076.13 1128.58,1083.29 
  1131.16,1090.45 1133.73,1097.62 1136.31,1104.78 1138.89,1111.93 1141.47,1119.06 1144.04,1126.17 1146.62,1133.25 1149.2,1140.3 1151.77,1147.32 1154.35,1154.29 
  1156.93,1161.21 1159.51,1168.09 1162.08,1174.91 1164.66,1181.67 1167.24,1188.37 1169.82,1195 1172.39,1201.56 1174.97,1208.05 1177.55,1214.46 1180.12,1220.79 
  1182.7,1227.04 1185.28,1233.2 1187.86,1239.28 1190.43,1245.26 1193.01,1251.16 1195.59,1256.95 1198.16,1262.66 1200.74,1268.26 1203.32,1273.76 1205.9,1279.17 
  1208.47,1284.47 1211.05,1289.67 1213.63,1294.76 1216.2,1299.75 1218.78,1304.64 1221.36,1309.42 1223.94,1314.09 1226.51,1318.66 1229.09,1323.12 1231.67,1327.47 
  1234.25,1331.72 1236.82,1335.86 1239.4,1339.9 1241.98,1343.83 1244.55,1347.65 1247.13,1351.38 1249.71,1355 1252.29,1358.51 1254.86,1361.93 1257.44,1365.25 
  1260.02,1368.46 1262.59,1371.58 1265.17,1374.6 1267.75,1377.52 1270.33,1380.35 1272.9,1383.09 1275.48,1385.74 1278.06,1388.29 1280.64,1390.75 1283.21,1393.13 
  1285.79,1395.42 1288.37,1397.62 1290.94,1399.74 1293.52,1401.78 1296.1,1403.73 1298.68,1405.61 1301.25,1407.41 1303.83,1409.13 1306.41,1410.77 1308.98,1412.34 
  1311.56,1413.84 1314.14,1415.27 1316.72,1416.62 1319.29,1417.91 1321.87,1419.12 1324.45,1420.28 1327.03,1421.36 1329.6,1422.38 1332.18,1423.33 1334.76,1424.22 
  1337.33,1425.05 1339.91,1425.82 1342.49,1426.53 1345.07,1427.17 1347.64,1427.76 1350.22,1428.28 1352.8,1428.75 1355.37,1429.16 1357.95,1429.51 1360.53,1429.8 
  1363.11,1430.04 1365.68,1430.21 1368.26,1430.33 1370.84,1430.39 1373.41,1430.39 1375.99,1430.33 1378.57,1430.21 1381.15,1430.03 1383.72,1429.79 1386.3,1429.49 
  1388.88,1429.13 1391.46,1428.7 1394.03,1428.21 1396.61,1427.66 1399.19,1427.04 1401.76,1426.35 1404.34,1425.59 1406.92,1424.76 1409.5,1423.87 1412.07,1422.89 
  1414.65,1421.84 1417.23,1420.72 1419.8,1419.51 1422.38,1418.23 1424.96,1416.86 1427.54,1415.4 1430.11,1413.86 1432.69,1412.23 1435.27,1410.5 1437.85,1408.68 
  1440.42,1406.76 1443,1404.74 1445.58,1402.62 1448.15,1400.39 1450.73,1398.06 1453.31,1395.61 1455.89,1393.04 1458.46,1390.36 1461.04,1387.56 1463.62,1384.63 
  1466.19,1381.58 1468.77,1378.4 1471.35,1375.08 1473.93,1371.62 1476.5,1368.03 1479.08,1364.28 1481.66,1360.4 1484.24,1356.36 1486.81,1352.17 1489.39,1347.82 
  1491.97,1343.31 1494.54,1338.64 1497.12,1333.8 1499.7,1328.79 1502.28,1323.6 1504.85,1318.24 1507.43,1312.71 1510.01,1306.98 1512.58,1301.08 1515.16,1294.98 
  1517.74,1288.7 1520.32,1282.22 1522.89,1275.55 1525.47,1268.68 1528.05,1261.6 1530.62,1254.33 1533.2,1246.85 1535.78,1239.17 1538.36,1231.28 1540.93,1223.19 
  1543.51,1214.88 1546.09,1206.36 1548.67,1197.63 1551.24,1188.7 1553.82,1179.55 1556.4,1170.19 1558.97,1160.61 1561.55,1150.83 1564.13,1140.84 1566.71,1130.64 
  1569.28,1120.23 1571.86,1109.62 1574.44,1098.8 1577.01,1087.78 1579.59,1076.57 1582.17,1065.16 1584.75,1053.56 1587.32,1041.77 1589.9,1029.79 1592.48,1017.64 
  1595.06,1005.31 1597.63,992.804 1600.21,980.138 1602.79,967.313 1605.36,954.334 1607.94,941.209 1610.52,927.943 1613.1,914.544 1615.67,901.02 1618.25,887.378 
  1620.83,873.626 1623.4,859.773 1625.98,845.827 1628.56,831.798 1631.14,817.695 1633.71,803.528 1636.29,789.307 1638.87,775.041 1641.45,760.743 1644.02,746.422 
  1646.6,732.089 1649.18,717.757 1651.75,703.436 1654.33,689.139 1656.91,674.876 1659.49,660.662 1662.06,646.507 1664.64,632.425 1667.22,618.428 1669.79,604.528 
  1672.37,590.739 1674.95,577.074 1677.53,563.545 1680.1,550.166 1682.68,536.95 1685.26,523.909 1687.83,511.057 1690.41,498.406 1692.99,485.97 1695.57,473.762 
  1698.14,461.793 1700.72,450.077 1703.3,438.626 1705.88,427.453 1708.45,416.569 1711.03,405.986 1713.61,395.716 1716.18,385.77 1718.76,376.16 1721.34,366.895 
  1723.92,357.987 1726.49,349.445 1729.07,341.279 1731.65,333.499 1734.22,326.114 1736.8,319.132 1739.38,312.56 1741.96,306.408 1744.53,300.682 1747.11,295.388 
  1749.69,290.533 1752.27,286.124 1754.84,282.164 1757.42,278.658 1760,275.612 1762.57,273.028 1765.15,270.91 1767.73,269.26 1770.31,268.079 1772.88,267.371 
  1775.46,267.134 1778.04,267.371 1780.61,268.079 1783.19,269.26 1785.77,270.91 1788.35,273.028 1790.92,275.612 1793.5,278.658 1796.08,282.164 1798.66,286.124 
  1801.23,290.533 1803.81,295.388 1806.39,300.682 1808.96,306.408 1811.54,312.56 1814.12,319.132 1816.7,326.114 1819.27,333.499 1821.85,341.279 1824.43,349.445 
  1827,357.987 1829.58,366.895 1832.16,376.16 1834.74,385.77 1837.31,395.716 1839.89,405.986 1842.47,416.569 1845.04,427.453 1847.62,438.627 1850.2,450.077 
  1852.78,461.793 1855.35,473.762 1857.93,485.971 1860.51,498.407 1863.09,511.057 1865.66,523.909 1868.24,536.95 1870.82,550.167 1873.39,563.546 1875.97,577.075 
  1878.55,590.74 1881.13,604.529 1883.7,618.429 1886.28,632.426 1888.86,646.508 1891.43,660.663 1894.01,674.878 1896.59,689.14 1899.17,703.438 1901.74,717.759 
  1904.32,732.092 1906.9,746.424 1909.48,760.746 1912.05,775.044 1914.63,789.31 1917.21,803.532 1919.78,817.699 1922.36,831.803 1924.94,845.832 1927.52,859.778 
  1930.09,873.632 1932.67,887.384 1935.25,901.027 1937.82,914.552 1940.4,927.952 1942.98,941.218 1945.56,954.345 1948.13,967.324 1950.71,980.151 1953.29,992.818 
  1955.87,1005.32 1958.44,1017.65 1961.02,1029.81 1963.6,1041.79 1966.17,1053.58 1968.75,1065.18 1971.33,1076.6 1973.91,1087.81 1976.48,1098.83 1979.06,1109.65 
  1981.64,1120.27 1984.21,1130.68 1986.79,1140.88 1989.37,1150.88 1991.95,1160.67 1994.52,1170.24 1997.1,1179.61 1999.68,1188.76 2002.25,1197.71 2004.83,1206.44 
  2007.41,1214.97 2009.99,1223.28 2012.56,1231.39 2015.14,1239.28 2017.72,1246.98 2020.3,1254.46 2022.87,1261.75 2025.45,1268.83 2028.03,1275.72 2030.6,1282.4 
  2033.18,1288.9 2035.76,1295.2 2038.34,1301.31 2040.91,1307.24 2043.49,1312.98 2046.07,1318.54 2048.64,1323.92 2051.22,1329.13 2053.8,1334.17 2056.38,1339.04 
  2058.95,1343.74 2061.53,1348.29 2064.11,1352.67 2066.69,1356.9 2069.26,1360.98 2071.84,1364.91 2074.42,1368.7 2076.99,1372.35 2079.57,1375.86 2082.15,1379.24 
  2084.73,1382.49 2087.3,1385.61 2089.88,1388.61 2092.46,1391.49 2095.03,1394.25 2097.61,1396.9 2100.19,1399.44 2102.77,1401.88 2105.34,1404.21 2107.92,1406.45 
  2110.5,1408.59 2113.08,1410.63 2115.65,1412.59 2118.23,1414.46 2120.81,1416.25 2123.38,1417.95 2125.96,1419.58 2128.54,1421.13 2131.12,1422.62 2133.69,1424.03 
  2136.27,1425.37 2138.85,1426.66 2141.42,1427.88 2144,1429.04 2146.58,1430.14 2149.16,1431.19 2151.73,1432.19 2154.31,1433.13 2156.89,1434.03 2159.46,1434.88 
  2162.04,1435.69 2164.62,1436.46 2167.2,1437.19 2169.77,1437.87 2172.35,1438.53 2174.93,1439.14 2177.51,1439.73 2180.08,1440.28 2182.66,1440.8 2185.24,1441.29 
  2187.81,1441.76 2190.39,1442.2 2192.97,1442.61 2195.55,1443 2198.12,1443.37 2200.7,1443.72 2203.28,1444.04 2205.85,1444.35 2208.43,1444.64 2211.01,1444.91 
  2213.59,1445.17 2216.16,1445.41 2218.74,1445.64 2221.32,1445.85 2223.9,1446.05 2226.47,1446.24 2229.05,1446.41 2231.63,1446.57 2234.2,1446.73 2236.78,1446.87 
  2239.36,1447.01 2241.94,1447.13 2244.51,1447.25 2247.09,1447.36 2249.67,1447.47 2252.24,1447.56 2254.82,1447.65 2257.4,1447.74 2259.98,1447.81 2262.55,1447.89 
  2265.13,1447.96 2267.71,1448.02 2270.29,1448.08 2272.86,1448.13 2275.44,1448.18 2278.02,1448.23 2280.59,1448.28 2283.17,1448.32 2285.75,1448.36 2288.33,1448.39 
  2290.9,1448.42 
  "/>
<path clip-path="url(#clip6700)" d="
M1928.41 386.635 L2280.76 386.635 L2280.76 205.195 L1928.41 205.195  Z
  " fill="#ffffff" fill-rule="evenodd" fill-opacity="1"/>
<polyline clip-path="url(#clip6700)" style="stroke:#000000; stroke-width:4; stroke-opacity:1; fill:none" points="
  1928.41,386.635 2280.76,386.635 2280.76,205.195 1928.41,205.195 1928.41,386.635 
  "/>
<polyline clip-path="url(#clip6700)" style="stroke:#009af9; stroke-width:4; stroke-opacity:1; fill:none" points="
  1952.41,265.675 2096.41,265.675 
  "/>
<g clip-path="url(#clip6700)">
<text style="fill:#000000; fill-opacity:1; font-family:Arial,Helvetica Neue,Helvetica,sans-serif; font-size:48px; text-anchor:start;" transform="rotate(0, 2120.41, 283.175)" x="2120.41" y="283.175">Data</text>
</g>
<polyline clip-path="url(#clip6700)" style="stroke:#e26f46; stroke-width:4; stroke-opacity:1; fill:none" points="
  1952.41,326.155 2096.41,326.155 
  "/>
<g clip-path="url(#clip6700)">
<text style="fill:#000000; fill-opacity:1; font-family:Arial,Helvetica Neue,Helvetica,sans-serif; font-size:48px; text-anchor:start;" transform="rotate(0, 2120.41, 343.655)" x="2120.41" y="343.655">Truth</text>
</g>
</svg>
