<?xml version="1.0" encoding="utf-8"?>
<svg xmlns="http://www.w3.org/2000/svg" xmlns:xlink="http://www.w3.org/1999/xlink" width="600" height="400" viewBox="0 0 2400 1600">
<defs>
  <clipPath id="clip7000">
    <rect x="0" y="0" width="2400" height="1600"/>
  </clipPath>
</defs>
<path clip-path="url(#clip7000)" d="
M0 1600 L2400 1600 L2400 0 L0 0  Z
  " fill="#ffffff" fill-rule="evenodd" fill-opacity="1"/>
<defs>
  <clipPath id="clip7001">
    <rect x="480" y="0" width="1681" height="1600"/>
  </clipPath>
</defs>
<path clip-path="url(#clip7000)" d="
M202.373 1425.62 L2352.76 1425.62 L2352.76 121.675 L202.373 121.675  Z
  " fill="#ffffff" fill-rule="evenodd" fill-opacity="1"/>
<defs>
  <clipPath id="clip7002">
    <rect x="202" y="121" width="2151" height="1305"/>
  </clipPath>
</defs>
<polyline clip-path="url(#clip7002)" style="stroke:#000000; stroke-width:2; stroke-opacity:0.1; fill:none" points="
  311.534,1425.62 311.534,121.675 
  "/>
<polyline clip-path="url(#clip7002)" style="stroke:#000000; stroke-width:2; stroke-opacity:0.1; fill:none" points="
  794.549,1425.62 794.549,121.675 
  "/>
<polyline clip-path="url(#clip7002)" style="stroke:#000000; stroke-width:2; stroke-opacity:0.1; fill:none" points="
  1277.56,1425.62 1277.56,121.675 
  "/>
<polyline clip-path="url(#clip7002)" style="stroke:#000000; stroke-width:2; stroke-opacity:0.1; fill:none" points="
  1760.58,1425.62 1760.58,121.675 
  "/>
<polyline clip-path="url(#clip7002)" style="stroke:#000000; stroke-width:2; stroke-opacity:0.1; fill:none" points="
  2243.59,1425.62 2243.59,121.675 
  "/>
<polyline clip-path="url(#clip7002)" style="stroke:#000000; stroke-width:2; stroke-opacity:0.1; fill:none" points="
  202.373,1388.71 2352.76,1388.71 
  "/>
<polyline clip-path="url(#clip7002)" style="stroke:#000000; stroke-width:2; stroke-opacity:0.1; fill:none" points="
  202.373,1015.76 2352.76,1015.76 
  "/>
<polyline clip-path="url(#clip7002)" style="stroke:#000000; stroke-width:2; stroke-opacity:0.1; fill:none" points="
  202.373,642.814 2352.76,642.814 
  "/>
<polyline clip-path="url(#clip7002)" style="stroke:#000000; stroke-width:2; stroke-opacity:0.1; fill:none" points="
  202.373,269.864 2352.76,269.864 
  "/>
<polyline clip-path="url(#clip7000)" style="stroke:#000000; stroke-width:4; stroke-opacity:1; fill:none" points="
  202.373,1425.62 2352.76,1425.62 
  "/>
<polyline clip-path="url(#clip7000)" style="stroke:#000000; stroke-width:4; stroke-opacity:1; fill:none" points="
  202.373,1425.62 202.373,121.675 
  "/>
<polyline clip-path="url(#clip7000)" style="stroke:#000000; stroke-width:4; stroke-opacity:1; fill:none" points="
  311.534,1425.62 311.534,1409.97 
  "/>
<polyline clip-path="url(#clip7000)" style="stroke:#000000; stroke-width:4; stroke-opacity:1; fill:none" points="
  794.549,1425.62 794.549,1409.97 
  "/>
<polyline clip-path="url(#clip7000)" style="stroke:#000000; stroke-width:4; stroke-opacity:1; fill:none" points="
  1277.56,1425.62 1277.56,1409.97 
  "/>
<polyline clip-path="url(#clip7000)" style="stroke:#000000; stroke-width:4; stroke-opacity:1; fill:none" points="
  1760.58,1425.62 1760.58,1409.97 
  "/>
<polyline clip-path="url(#clip7000)" style="stroke:#000000; stroke-width:4; stroke-opacity:1; fill:none" points="
  2243.59,1425.62 2243.59,1409.97 
  "/>
<polyline clip-path="url(#clip7000)" style="stroke:#000000; stroke-width:4; stroke-opacity:1; fill:none" points="
  202.373,1388.71 228.178,1388.71 
  "/>
<polyline clip-path="url(#clip7000)" style="stroke:#000000; stroke-width:4; stroke-opacity:1; fill:none" points="
  202.373,1015.76 228.178,1015.76 
  "/>
<polyline clip-path="url(#clip7000)" style="stroke:#000000; stroke-width:4; stroke-opacity:1; fill:none" points="
  202.373,642.814 228.178,642.814 
  "/>
<polyline clip-path="url(#clip7000)" style="stroke:#000000; stroke-width:4; stroke-opacity:1; fill:none" points="
  202.373,269.864 228.178,269.864 
  "/>
<g clip-path="url(#clip7000)">
<text style="fill:#000000; fill-opacity:1; font-family:Arial,Helvetica Neue,Helvetica,sans-serif; font-size:48px; text-anchor:middle;" transform="rotate(0, 311.534, 1479.62)" x="311.534" y="1479.62">-1.10</text>
</g>
<g clip-path="url(#clip7000)">
<text style="fill:#000000; fill-opacity:1; font-family:Arial,Helvetica Neue,Helvetica,sans-serif; font-size:48px; text-anchor:middle;" transform="rotate(0, 794.549, 1479.62)" x="794.549" y="1479.62">-1.05</text>
</g>
<g clip-path="url(#clip7000)">
<text style="fill:#000000; fill-opacity:1; font-family:Arial,Helvetica Neue,Helvetica,sans-serif; font-size:48px; text-anchor:middle;" transform="rotate(0, 1277.56, 1479.62)" x="1277.56" y="1479.62">-1.00</text>
</g>
<g clip-path="url(#clip7000)">
<text style="fill:#000000; fill-opacity:1; font-family:Arial,Helvetica Neue,Helvetica,sans-serif; font-size:48px; text-anchor:middle;" transform="rotate(0, 1760.58, 1479.62)" x="1760.58" y="1479.62">-0.95</text>
</g>
<g clip-path="url(#clip7000)">
<text style="fill:#000000; fill-opacity:1; font-family:Arial,Helvetica Neue,Helvetica,sans-serif; font-size:48px; text-anchor:middle;" transform="rotate(0, 2243.59, 1479.62)" x="2243.59" y="1479.62">-0.90</text>
</g>
<g clip-path="url(#clip7000)">
<text style="fill:#000000; fill-opacity:1; font-family:Arial,Helvetica Neue,Helvetica,sans-serif; font-size:48px; text-anchor:end;" transform="rotate(0, 178.373, 1406.21)" x="178.373" y="1406.21">0</text>
</g>
<g clip-path="url(#clip7000)">
<text style="fill:#000000; fill-opacity:1; font-family:Arial,Helvetica Neue,Helvetica,sans-serif; font-size:48px; text-anchor:end;" transform="rotate(0, 178.373, 1033.26)" x="178.373" y="1033.26">5</text>
</g>
<g clip-path="url(#clip7000)">
<text style="fill:#000000; fill-opacity:1; font-family:Arial,Helvetica Neue,Helvetica,sans-serif; font-size:48px; text-anchor:end;" transform="rotate(0, 178.373, 660.314)" x="178.373" y="660.314">10</text>
</g>
<g clip-path="url(#clip7000)">
<text style="fill:#000000; fill-opacity:1; font-family:Arial,Helvetica Neue,Helvetica,sans-serif; font-size:48px; text-anchor:end;" transform="rotate(0, 178.373, 287.364)" x="178.373" y="287.364">15</text>
</g>
<g clip-path="url(#clip7000)">
<text style="fill:#000000; fill-opacity:1; font-family:Arial,Helvetica Neue,Helvetica,sans-serif; font-size:84px; text-anchor:middle;" transform="rotate(0, 1277.56, 73.2)" x="1277.56" y="73.2">Marginalized Distribution for mu_1</text>
</g>
<g clip-path="url(#clip7000)">
<text style="fill:#000000; fill-opacity:1; font-family:Arial,Helvetica Neue,Helvetica,sans-serif; font-size:66px; text-anchor:middle;" transform="rotate(0, 1277.56, 1559.48)" x="1277.56" y="1559.48">mu_1</text>
</g>
<g clip-path="url(#clip7000)">
<text style="fill:#000000; fill-opacity:1; font-family:Arial,Helvetica Neue,Helvetica,sans-serif; font-size:66px; text-anchor:middle;" transform="rotate(-90, 89.2861, 773.647)" x="89.2861" y="773.647">P(mu_1)</text>
</g>
<path clip-path="url(#clip7002)" d="
M263.233 1388.71 L311.534 1388.71 L311.534 1388.71 L359.836 1388.71 L359.836 1388.71 L408.137 1388.71 L408.137 1388.71 L456.439 1388.71 L456.439 1372.3 L504.74 1372.3 
  L504.74 1367.8 L553.042 1367.8 L553.042 1360.04 L601.343 1360.04 L601.343 1333.35 L649.645 1333.35 L649.645 1305.04 L697.946 1305.04 L697.946 1238.41 L746.248 1238.41 
  L746.248 1191.26 L794.549 1191.26 L794.549 1112.27 L842.851 1112.27 L842.851 1034.19 L891.152 1034.19 L891.152 912.471 L939.454 912.471 L939.454 774.34 L987.755 774.34 
  L987.755 636.3 L1036.06 636.3 L1036.06 519.809 L1084.36 519.809 L1084.36 391.326 L1132.66 391.326 L1132.66 300.892 L1180.96 300.892 L1180.96 286.646 L1229.26 286.646 
  L1229.26 194.408 L1277.56 194.408 L1277.56 210.187 L1325.87 210.187 L1325.87 359.137 L1374.17 359.137 L1374.17 411.342 L1422.47 411.342 L1422.47 549.112 L1470.77 549.112 
  L1470.77 713.841 L1519.07 713.841 L1519.07 860.086 L1567.37 860.086 L1567.37 937.085 L1615.67 937.085 L1615.67 1038.52 L1663.98 1038.52 L1663.98 1191.89 L1712.28 1191.89 
  L1712.28 1231.2 L1760.58 1231.2 L1760.58 1299.99 L1808.88 1299.99 L1808.88 1325.6 L1857.18 1325.6 L1857.18 1348.77 L1905.48 1348.77 L1905.48 1365.18 L1953.79 1365.18 
  L1953.79 1388.71 L2002.09 1388.71 L2002.09 1388.71 L2050.39 1388.71 L2050.39 1388.71 L2098.69 1388.71 L2098.69 1388.71 L2146.99 1388.71 L2146.99 1388.71 L2195.29 1388.71 
  L2195.29 1388.71 L2243.59 1388.71 L2243.59 1388.71 L2291.9 1388.71 L2291.9 1388.71 L2291.9 1388.71 L2291.9 1388.71 L2243.59 1388.71 L2243.59 1388.71 L2195.29 1388.71 
  L2195.29 1388.71 L2146.99 1388.71 L2146.99 1388.71 L2098.69 1388.71 L2098.69 1388.71 L2050.39 1388.71 L2050.39 1388.71 L2002.09 1388.71 L2002.09 1388.71 L1953.79 1388.71 
  L1953.79 1388.71 L1905.48 1388.71 L1905.48 1388.71 L1857.18 1388.71 L1857.18 1388.71 L1808.88 1388.71 L1808.88 1388.71 L1760.58 1388.71 L1760.58 1388.71 L1712.28 1388.71 
  L1712.28 1388.71 L1663.98 1388.71 L1663.98 1388.71 L1615.67 1388.71 L1615.67 1388.71 L1567.37 1388.71 L1567.37 1388.71 L1519.07 1388.71 L1519.07 1388.71 L1470.77 1388.71 
  L1470.77 1388.71 L1422.47 1388.71 L1422.47 1388.71 L1374.17 1388.71 L1374.17 1388.71 L1325.87 1388.71 L1325.87 1388.71 L1277.56 1388.71 L1277.56 1388.71 L1229.26 1388.71 
  L1229.26 1388.71 L1180.96 1388.71 L1180.96 1388.71 L1132.66 1388.71 L1132.66 1388.71 L1084.36 1388.71 L1084.36 1388.71 L1036.06 1388.71 L1036.06 1388.71 L987.755 1388.71 
  L987.755 1388.71 L939.454 1388.71 L939.454 1388.71 L891.152 1388.71 L891.152 1388.71 L842.851 1388.71 L842.851 1388.71 L794.549 1388.71 L794.549 1388.71 L746.248 1388.71 
  L746.248 1388.71 L697.946 1388.71 L697.946 1388.71 L649.645 1388.71 L649.645 1388.71 L601.343 1388.71 L601.343 1388.71 L553.042 1388.71 L553.042 1388.71 L504.74 1388.71 
  L504.74 1388.71 L456.439 1388.71 L456.439 1388.71 L408.137 1388.71 L408.137 1388.71 L359.836 1388.71 L359.836 1388.71 L311.534 1388.71 L311.534 1388.71 L263.233 1388.71 
   Z
  " fill="#ff0000" fill-rule="evenodd" fill-opacity="1"/>
<polyline clip-path="url(#clip7002)" style="stroke:#009af9; stroke-width:0; stroke-opacity:1; fill:none" points="
  263.233,1388.71 311.534,1388.71 359.836,1388.71 408.137,1388.71 456.439,1388.71 456.439,1372.3 504.74,1372.3 
  504.74,1367.8 553.042,1367.8 553.042,1360.04 601.343,1360.04 601.343,1333.35 649.645,1333.35 649.645,1305.04 697.946,1305.04 697.946,1238.41 746.248,1238.41 
  746.248,1191.26 794.549,1191.26 794.549,1112.27 842.851,1112.27 842.851,1034.19 891.152,1034.19 891.152,912.471 939.454,912.471 939.454,774.34 987.755,774.34 
  987.755,636.3 1036.06,636.3 1036.06,519.809 1084.36,519.809 1084.36,391.326 1132.66,391.326 1132.66,300.892 1180.96,300.892 1180.96,286.646 1229.26,286.646 
  1229.26,194.408 1277.56,194.408 1277.56,210.187 1325.87,210.187 1325.87,359.137 1374.17,359.137 1374.17,411.342 1422.47,411.342 1422.47,549.112 1470.77,549.112 
  1470.77,713.841 1519.07,713.841 1519.07,860.086 1567.37,860.086 1567.37,937.085 1615.67,937.085 1615.67,1038.52 1663.98,1038.52 1663.98,1191.89 1712.28,1191.89 
  1712.28,1231.2 1760.58,1231.2 1760.58,1299.99 1808.88,1299.99 1808.88,1325.6 1857.18,1325.6 1857.18,1348.77 1905.48,1348.77 1905.48,1365.18 1953.79,1365.18 
  1953.79,1388.71 2002.09,1388.71 2050.39,1388.71 2098.69,1388.71 2146.99,1388.71 2195.29,1388.71 
  2243.59,1388.71 2291.9,1388.71 
  "/>
<path clip-path="url(#clip7002)" d="
M263.233 1388.71 L311.534 1388.71 L311.534 1388.71 L359.836 1388.71 L359.836 1388.71 L408.137 1388.71 L408.137 1388.71 L456.439 1388.71 L456.439 1388.71 L504.74 1388.71 
  L504.74 1388.71 L553.042 1388.71 L553.042 1388.71 L601.343 1388.71 L601.343 1388.71 L649.645 1388.71 L649.645 1388.71 L697.946 1388.71 L697.946 1388.71 L746.248 1388.71 
  L746.248 1191.26 L794.549 1191.26 L794.549 1112.27 L842.851 1112.27 L842.851 1034.19 L891.152 1034.19 L891.152 912.471 L939.454 912.471 L939.454 774.34 L987.755 774.34 
  L987.755 636.3 L1036.06 636.3 L1036.06 519.809 L1084.36 519.809 L1084.36 391.326 L1132.66 391.326 L1132.66 300.892 L1180.96 300.892 L1180.96 286.646 L1229.26 286.646 
  L1229.26 194.408 L1277.56 194.408 L1277.56 210.187 L1325.87 210.187 L1325.87 359.137 L1374.17 359.137 L1374.17 411.342 L1422.47 411.342 L1422.47 549.112 L1470.77 549.112 
  L1470.77 713.841 L1519.07 713.841 L1519.07 860.086 L1567.37 860.086 L1567.37 937.085 L1615.67 937.085 L1615.67 1038.52 L1663.98 1038.52 L1663.98 1191.89 L1712.28 1191.89 
  L1712.28 1231.2 L1760.58 1231.2 L1760.58 1388.71 L1808.88 1388.71 L1808.88 1388.71 L1857.18 1388.71 L1857.18 1388.71 L1905.48 1388.71 L1905.48 1388.71 L1953.79 1388.71 
  L1953.79 1388.71 L2002.09 1388.71 L2002.09 1388.71 L2050.39 1388.71 L2050.39 1388.71 L2098.69 1388.71 L2098.69 1388.71 L2146.99 1388.71 L2146.99 1388.71 L2195.29 1388.71 
  L2195.29 1388.71 L2243.59 1388.71 L2243.59 1388.71 L2291.9 1388.71 L2291.9 1388.71 L2291.9 1388.71 L2291.9 1388.71 L2243.59 1388.71 L2243.59 1388.71 L2195.29 1388.71 
  L2195.29 1388.71 L2146.99 1388.71 L2146.99 1388.71 L2098.69 1388.71 L2098.69 1388.71 L2050.39 1388.71 L2050.39 1388.71 L2002.09 1388.71 L2002.09 1388.71 L1953.79 1388.71 
  L1953.79 1388.71 L1905.48 1388.71 L1905.48 1388.71 L1857.18 1388.71 L1857.18 1388.71 L1808.88 1388.71 L1808.88 1388.71 L1760.58 1388.71 L1760.58 1388.71 L1712.28 1388.71 
  L1712.28 1388.71 L1663.98 1388.71 L1663.98 1388.71 L1615.67 1388.71 L1615.67 1388.71 L1567.37 1388.71 L1567.37 1388.71 L1519.07 1388.71 L1519.07 1388.71 L1470.77 1388.71 
  L1470.77 1388.71 L1422.47 1388.71 L1422.47 1388.71 L1374.17 1388.71 L1374.17 1388.71 L1325.87 1388.71 L1325.87 1388.71 L1277.56 1388.71 L1277.56 1388.71 L1229.26 1388.71 
  L1229.26 1388.71 L1180.96 1388.71 L1180.96 1388.71 L1132.66 1388.71 L1132.66 1388.71 L1084.36 1388.71 L1084.36 1388.71 L1036.06 1388.71 L1036.06 1388.71 L987.755 1388.71 
  L987.755 1388.71 L939.454 1388.71 L939.454 1388.71 L891.152 1388.71 L891.152 1388.71 L842.851 1388.71 L842.851 1388.71 L794.549 1388.71 L794.549 1388.71 L746.248 1388.71 
  L746.248 1388.71 L697.946 1388.71 L697.946 1388.71 L649.645 1388.71 L649.645 1388.71 L601.343 1388.71 L601.343 1388.71 L553.042 1388.71 L553.042 1388.71 L504.74 1388.71 
  L504.74 1388.71 L456.439 1388.71 L456.439 1388.71 L408.137 1388.71 L408.137 1388.71 L359.836 1388.71 L359.836 1388.71 L311.534 1388.71 L311.534 1388.71 L263.233 1388.71 
   Z
  " fill="#ffff00" fill-rule="evenodd" fill-opacity="1"/>
<polyline clip-path="url(#clip7002)" style="stroke:#e26f46; stroke-width:0; stroke-opacity:1; fill:none" points="
  263.233,1388.71 311.534,1388.71 359.836,1388.71 408.137,1388.71 456.439,1388.71 504.74,1388.71 
  553.042,1388.71 601.343,1388.71 649.645,1388.71 697.946,1388.71 746.248,1388.71 
  746.248,1191.26 794.549,1191.26 794.549,1112.27 842.851,1112.27 842.851,1034.19 891.152,1034.19 891.152,912.471 939.454,912.471 939.454,774.34 987.755,774.34 
  987.755,636.3 1036.06,636.3 1036.06,519.809 1084.36,519.809 1084.36,391.326 1132.66,391.326 1132.66,300.892 1180.96,300.892 1180.96,286.646 1229.26,286.646 
  1229.26,194.408 1277.56,194.408 1277.56,210.187 1325.87,210.187 1325.87,359.137 1374.17,359.137 1374.17,411.342 1422.47,411.342 1422.47,549.112 1470.77,549.112 
  1470.77,713.841 1519.07,713.841 1519.07,860.086 1567.37,860.086 1567.37,937.085 1615.67,937.085 1615.67,1038.52 1663.98,1038.52 1663.98,1191.89 1712.28,1191.89 
  1712.28,1231.2 1760.58,1231.2 1760.58,1388.71 1808.88,1388.71 1857.18,1388.71 1905.48,1388.71 1953.79,1388.71 
  2002.09,1388.71 2050.39,1388.71 2098.69,1388.71 2146.99,1388.71 2195.29,1388.71 
  2243.59,1388.71 2291.9,1388.71 
  "/>
<path clip-path="url(#clip7002)" d="
M263.233 1388.71 L311.534 1388.71 L311.534 1388.71 L359.836 1388.71 L359.836 1388.71 L408.137 1388.71 L408.137 1388.71 L456.439 1388.71 L456.439 1388.71 L504.74 1388.71 
  L504.74 1388.71 L553.042 1388.71 L553.042 1388.71 L601.343 1388.71 L601.343 1388.71 L649.645 1388.71 L649.645 1388.71 L697.946 1388.71 L697.946 1388.71 L746.248 1388.71 
  L746.248 1388.71 L794.549 1388.71 L794.549 1388.71 L842.851 1388.71 L842.851 1388.71 L891.152 1388.71 L891.152 1388.71 L939.454 1388.71 L939.454 1388.71 L987.755 1388.71 
  L987.755 636.3 L1036.06 636.3 L1036.06 519.809 L1084.36 519.809 L1084.36 391.326 L1132.66 391.326 L1132.66 300.892 L1180.96 300.892 L1180.96 286.646 L1229.26 286.646 
  L1229.26 194.408 L1277.56 194.408 L1277.56 210.187 L1325.87 210.187 L1325.87 359.137 L1374.17 359.137 L1374.17 411.342 L1422.47 411.342 L1422.47 549.112 L1470.77 549.112 
  L1470.77 713.841 L1519.07 713.841 L1519.07 1388.71 L1567.37 1388.71 L1567.37 1388.71 L1615.67 1388.71 L1615.67 1388.71 L1663.98 1388.71 L1663.98 1388.71 L1712.28 1388.71 
  L1712.28 1388.71 L1760.58 1388.71 L1760.58 1388.71 L1808.88 1388.71 L1808.88 1388.71 L1857.18 1388.71 L1857.18 1388.71 L1905.48 1388.71 L1905.48 1388.71 L1953.79 1388.71 
  L1953.79 1388.71 L2002.09 1388.71 L2002.09 1388.71 L2050.39 1388.71 L2050.39 1388.71 L2098.69 1388.71 L2098.69 1388.71 L2146.99 1388.71 L2146.99 1388.71 L2195.29 1388.71 
  L2195.29 1388.71 L2243.59 1388.71 L2243.59 1388.71 L2291.9 1388.71 L2291.9 1388.71 L2291.9 1388.71 L2291.9 1388.71 L2243.59 1388.71 L2243.59 1388.71 L2195.29 1388.71 
  L2195.29 1388.71 L2146.99 1388.71 L2146.99 1388.71 L2098.69 1388.71 L2098.69 1388.71 L2050.39 1388.71 L2050.39 1388.71 L2002.09 1388.71 L2002.09 1388.71 L1953.79 1388.71 
  L1953.79 1388.71 L1905.48 1388.71 L1905.48 1388.71 L1857.18 1388.71 L1857.18 1388.71 L1808.88 1388.71 L1808.88 1388.71 L1760.58 1388.71 L1760.58 1388.71 L1712.28 1388.71 
  L1712.28 1388.71 L1663.98 1388.71 L1663.98 1388.71 L1615.67 1388.71 L1615.67 1388.71 L1567.37 1388.71 L1567.37 1388.71 L1519.07 1388.71 L1519.07 1388.71 L1470.77 1388.71 
  L1470.77 1388.71 L1422.47 1388.71 L1422.47 1388.71 L1374.17 1388.71 L1374.17 1388.71 L1325.87 1388.71 L1325.87 1388.71 L1277.56 1388.71 L1277.56 1388.71 L1229.26 1388.71 
  L1229.26 1388.71 L1180.96 1388.71 L1180.96 1388.71 L1132.66 1388.71 L1132.66 1388.71 L1084.36 1388.71 L1084.36 1388.71 L1036.06 1388.71 L1036.06 1388.71 L987.755 1388.71 
  L987.755 1388.71 L939.454 1388.71 L939.454 1388.71 L891.152 1388.71 L891.152 1388.71 L842.851 1388.71 L842.851 1388.71 L794.549 1388.71 L794.549 1388.71 L746.248 1388.71 
  L746.248 1388.71 L697.946 1388.71 L697.946 1388.71 L649.645 1388.71 L649.645 1388.71 L601.343 1388.71 L601.343 1388.71 L553.042 1388.71 L553.042 1388.71 L504.74 1388.71 
  L504.74 1388.71 L456.439 1388.71 L456.439 1388.71 L408.137 1388.71 L408.137 1388.71 L359.836 1388.71 L359.836 1388.71 L311.534 1388.71 L311.534 1388.71 L263.233 1388.71 
   Z
  " fill="#76ee00" fill-rule="evenodd" fill-opacity="1"/>
<polyline clip-path="url(#clip7002)" style="stroke:#3da44d; stroke-width:0; stroke-opacity:1; fill:none" points="
  263.233,1388.71 311.534,1388.71 359.836,1388.71 408.137,1388.71 456.439,1388.71 504.74,1388.71 
  553.042,1388.71 601.343,1388.71 649.645,1388.71 697.946,1388.71 746.248,1388.71 
  794.549,1388.71 842.851,1388.71 891.152,1388.71 939.454,1388.71 987.755,1388.71 
  987.755,636.3 1036.06,636.3 1036.06,519.809 1084.36,519.809 1084.36,391.326 1132.66,391.326 1132.66,300.892 1180.96,300.892 1180.96,286.646 1229.26,286.646 
  1229.26,194.408 1277.56,194.408 1277.56,210.187 1325.87,210.187 1325.87,359.137 1374.17,359.137 1374.17,411.342 1422.47,411.342 1422.47,549.112 1470.77,549.112 
  1470.77,713.841 1519.07,713.841 1519.07,1388.71 1567.37,1388.71 1615.67,1388.71 1663.98,1388.71 1712.28,1388.71 
  1760.58,1388.71 1808.88,1388.71 1857.18,1388.71 1905.48,1388.71 1953.79,1388.71 
  2002.09,1388.71 2050.39,1388.71 2098.69,1388.71 2146.99,1388.71 2195.29,1388.71 
  2243.59,1388.71 2291.9,1388.71 
  "/>
<polyline clip-path="url(#clip7002)" style="stroke:#000000; stroke-width:2.8; stroke-opacity:1; fill:none" points="
  263.233,1388.53 311.534,1388.53 311.534,1387 359.836,1387 359.836,1386.46 408.137,1386.46 408.137,1383.67 456.439,1383.67 456.439,1372.3 504.74,1372.3 
  504.74,1367.8 553.042,1367.8 553.042,1360.04 601.343,1360.04 601.343,1333.35 649.645,1333.35 649.645,1305.04 697.946,1305.04 697.946,1238.41 746.248,1238.41 
  746.248,1191.26 794.549,1191.26 794.549,1112.27 842.851,1112.27 842.851,1034.19 891.152,1034.19 891.152,912.471 939.454,912.471 939.454,774.34 987.755,774.34 
  987.755,636.3 1036.06,636.3 1036.06,519.809 1084.36,519.809 1084.36,391.326 1132.66,391.326 1132.66,300.892 1180.96,300.892 1180.96,286.646 1229.26,286.646 
  1229.26,194.408 1277.56,194.408 1277.56,210.187 1325.87,210.187 1325.87,359.137 1374.17,359.137 1374.17,411.342 1422.47,411.342 1422.47,549.112 1470.77,549.112 
  1470.77,713.841 1519.07,713.841 1519.07,860.086 1567.37,860.086 1567.37,937.085 1615.67,937.085 1615.67,1038.52 1663.98,1038.52 1663.98,1191.89 1712.28,1191.89 
  1712.28,1231.2 1760.58,1231.2 1760.58,1299.99 1808.88,1299.99 1808.88,1325.6 1857.18,1325.6 1857.18,1348.77 1905.48,1348.77 1905.48,1365.18 1953.79,1365.18 
  1953.79,1378.35 2002.09,1378.35 2002.09,1381.86 2050.39,1381.86 2050.39,1380.78 2098.69,1380.78 2098.69,1386.91 2146.99,1386.91 2146.99,1386.1 2195.29,1386.1 
  2195.29,1388.71 2243.59,1388.71 2243.59,1387.72 2291.9,1387.72 2291.9,1387.81 
  "/>
<path clip-path="url(#clip7002)" d="
M993.351 1388.71 L1488.7 1388.71 L1488.7 158.579 L993.351 158.579 L993.351 1388.71  Z
  " fill="#808080" fill-rule="evenodd" fill-opacity="0.5"/>
<polyline clip-path="url(#clip7002)" style="stroke:#000000; stroke-width:0; stroke-opacity:1; fill:none" points="
  993.351,1388.71 1488.7,1388.71 1488.7,158.579 993.351,158.579 993.351,1388.71 
  "/>
<polyline clip-path="url(#clip7002)" style="stroke:#696969; stroke-width:4; stroke-opacity:1; fill:none" points="
  1241.03,1388.71 1241.03,158.579 
  "/>
<polyline clip-path="url(#clip7002)" style="stroke:#000000; stroke-width:4; stroke-opacity:1; fill:none" stroke-dasharray="16, 10" points="
  1280.08,1388.71 1280.08,158.579 
  "/>
<polyline clip-path="url(#clip7002)" style="stroke:#000000; stroke-width:4; stroke-opacity:1; fill:none" stroke-dasharray="2, 4" points="
  1253.41,1388.71 1253.41,158.579 
  "/>
<path clip-path="url(#clip7000)" d="
M1463.01 689.035 L2280.76 689.035 L2280.76 205.195 L1463.01 205.195  Z
  " fill="#ffffff" fill-rule="evenodd" fill-opacity="1"/>
<polyline clip-path="url(#clip7000)" style="stroke:#000000; stroke-width:4; stroke-opacity:1; fill:none" points="
  1463.01,689.035 2280.76,689.035 2280.76,205.195 1463.01,205.195 1463.01,689.035 
  "/>
<path clip-path="url(#clip7000)" d="
M1487.01 289.867 L1631.01 289.867 L1631.01 241.483 L1487.01 241.483 L1487.01 289.867  Z
  " fill="#ff0000" fill-rule="evenodd" fill-opacity="1"/>
<polyline clip-path="url(#clip7000)" style="stroke:#009af9; stroke-width:0; stroke-opacity:1; fill:none" points="
  1487.01,241.483 1631.01,241.483 
  "/>
<g clip-path="url(#clip7000)">
<text style="fill:#000000; fill-opacity:1; font-family:Arial,Helvetica Neue,Helvetica,sans-serif; font-size:48px; text-anchor:start;" transform="rotate(0, 1655.01, 283.175)" x="1655.01" y="283.175">smallest 99.73% interval(s)</text>
</g>
<path clip-path="url(#clip7000)" d="
M1487.01 350.347 L1631.01 350.347 L1631.01 301.963 L1487.01 301.963 L1487.01 350.347  Z
  " fill="#ffff00" fill-rule="evenodd" fill-opacity="1"/>
<polyline clip-path="url(#clip7000)" style="stroke:#e26f46; stroke-width:0; stroke-opacity:1; fill:none" points="
  1487.01,301.963 1631.01,301.963 
  "/>
<g clip-path="url(#clip7000)">
<text style="fill:#000000; fill-opacity:1; font-family:Arial,Helvetica Neue,Helvetica,sans-serif; font-size:48px; text-anchor:start;" transform="rotate(0, 1655.01, 343.655)" x="1655.01" y="343.655">smallest 95.90% interval(s)</text>
</g>
<path clip-path="url(#clip7000)" d="
M1487.01 410.827 L1631.01 410.827 L1631.01 362.443 L1487.01 362.443 L1487.01 410.827  Z
  " fill="#76ee00" fill-rule="evenodd" fill-opacity="1"/>
<polyline clip-path="url(#clip7000)" style="stroke:#3da44d; stroke-width:0; stroke-opacity:1; fill:none" points="
  1487.01,362.443 1631.01,362.443 
  "/>
<g clip-path="url(#clip7000)">
<text style="fill:#000000; fill-opacity:1; font-family:Arial,Helvetica Neue,Helvetica,sans-serif; font-size:48px; text-anchor:start;" transform="rotate(0, 1655.01, 404.135)" x="1655.01" y="404.135">smallest 71.74% interval(s)</text>
</g>
<path clip-path="url(#clip7000)" d="
M1487.01 471.307 L1631.01 471.307 L1631.01 422.923 L1487.01 422.923 L1487.01 471.307  Z
  " fill="#808080" fill-rule="evenodd" fill-opacity="0.5"/>
<polyline clip-path="url(#clip7000)" style="stroke:#000000; stroke-width:0; stroke-opacity:1; fill:none" points="
  1487.01,471.307 1631.01,471.307 1631.01,422.923 1487.01,422.923 1487.01,471.307 
  "/>
<g clip-path="url(#clip7000)">
<text style="fill:#000000; fill-opacity:1; font-family:Arial,Helvetica Neue,Helvetica,sans-serif; font-size:48px; text-anchor:start;" transform="rotate(0, 1655.01, 464.615)" x="1655.01" y="464.615">std. dev.</text>
</g>
<polyline clip-path="url(#clip7000)" style="stroke:#696969; stroke-width:4; stroke-opacity:1; fill:none" points="
  1487.01,507.595 1631.01,507.595 
  "/>
<g clip-path="url(#clip7000)">
<text style="fill:#000000; fill-opacity:1; font-family:Arial,Helvetica Neue,Helvetica,sans-serif; font-size:48px; text-anchor:start;" transform="rotate(0, 1655.01, 525.095)" x="1655.01" y="525.095">mean</text>
</g>
<polyline clip-path="url(#clip7000)" style="stroke:#000000; stroke-width:4; stroke-opacity:1; fill:none" stroke-dasharray="16, 10" points="
  1487.01,568.075 1631.01,568.075 
  "/>
<g clip-path="url(#clip7000)">
<text style="fill:#000000; fill-opacity:1; font-family:Arial,Helvetica Neue,Helvetica,sans-serif; font-size:48px; text-anchor:start;" transform="rotate(0, 1655.01, 585.575)" x="1655.01" y="585.575">global mode</text>
</g>
<polyline clip-path="url(#clip7000)" style="stroke:#000000; stroke-width:4; stroke-opacity:1; fill:none" stroke-dasharray="2, 4" points="
  1487.01,628.555 1631.01,628.555 
  "/>
<g clip-path="url(#clip7000)">
<text style="fill:#000000; fill-opacity:1; font-family:Arial,Helvetica Neue,Helvetica,sans-serif; font-size:48px; text-anchor:start;" transform="rotate(0, 1655.01, 646.055)" x="1655.01" y="646.055">local mode</text>
</g>
</svg>
