<?xml version="1.0" encoding="utf-8"?>
<svg xmlns="http://www.w3.org/2000/svg" xmlns:xlink="http://www.w3.org/1999/xlink" width="600" height="400" viewBox="0 0 2400 1600">
<defs>
  <clipPath id="clip660">
    <rect x="0" y="0" width="2400" height="1600"/>
  </clipPath>
</defs>
<path clip-path="url(#clip660)" d="
M0 1600 L2400 1600 L2400 0 L0 0  Z
  " fill="#ffffff" fill-rule="evenodd" fill-opacity="1"/>
<defs>
  <clipPath id="clip661">
    <rect x="480" y="0" width="1681" height="1600"/>
  </clipPath>
</defs>
<path clip-path="url(#clip660)" d="
M166.205 1486.45 L2352.76 1486.45 L2352.76 123.472 L166.205 123.472  Z
  " fill="#ffffff" fill-rule="evenodd" fill-opacity="1"/>
<defs>
  <clipPath id="clip662">
    <rect x="166" y="123" width="2188" height="1364"/>
  </clipPath>
</defs>
<polyline clip-path="url(#clip662)" style="stroke:#000000; stroke-width:2; stroke-opacity:0.1; fill:none" points="
  228.088,1486.45 228.088,123.472 
  "/>
<polyline clip-path="url(#clip662)" style="stroke:#000000; stroke-width:2; stroke-opacity:0.1; fill:none" points="
  571.886,1486.45 571.886,123.472 
  "/>
<polyline clip-path="url(#clip662)" style="stroke:#000000; stroke-width:2; stroke-opacity:0.1; fill:none" points="
  915.683,1486.45 915.683,123.472 
  "/>
<polyline clip-path="url(#clip662)" style="stroke:#000000; stroke-width:2; stroke-opacity:0.1; fill:none" points="
  1259.48,1486.45 1259.48,123.472 
  "/>
<polyline clip-path="url(#clip662)" style="stroke:#000000; stroke-width:2; stroke-opacity:0.1; fill:none" points="
  1603.28,1486.45 1603.28,123.472 
  "/>
<polyline clip-path="url(#clip662)" style="stroke:#000000; stroke-width:2; stroke-opacity:0.1; fill:none" points="
  1947.08,1486.45 1947.08,123.472 
  "/>
<polyline clip-path="url(#clip662)" style="stroke:#000000; stroke-width:2; stroke-opacity:0.1; fill:none" points="
  2290.87,1486.45 2290.87,123.472 
  "/>
<polyline clip-path="url(#clip662)" style="stroke:#000000; stroke-width:2; stroke-opacity:0.1; fill:none" points="
  166.205,1447.87 2352.76,1447.87 
  "/>
<polyline clip-path="url(#clip662)" style="stroke:#000000; stroke-width:2; stroke-opacity:0.1; fill:none" points="
  166.205,1182.75 2352.76,1182.75 
  "/>
<polyline clip-path="url(#clip662)" style="stroke:#000000; stroke-width:2; stroke-opacity:0.1; fill:none" points="
  166.205,917.635 2352.76,917.635 
  "/>
<polyline clip-path="url(#clip662)" style="stroke:#000000; stroke-width:2; stroke-opacity:0.1; fill:none" points="
  166.205,652.517 2352.76,652.517 
  "/>
<polyline clip-path="url(#clip662)" style="stroke:#000000; stroke-width:2; stroke-opacity:0.1; fill:none" points="
  166.205,387.398 2352.76,387.398 
  "/>
<polyline clip-path="url(#clip660)" style="stroke:#000000; stroke-width:4; stroke-opacity:1; fill:none" points="
  166.205,1486.45 2352.76,1486.45 
  "/>
<polyline clip-path="url(#clip660)" style="stroke:#000000; stroke-width:4; stroke-opacity:1; fill:none" points="
  166.205,1486.45 166.205,123.472 
  "/>
<polyline clip-path="url(#clip660)" style="stroke:#000000; stroke-width:4; stroke-opacity:1; fill:none" points="
  228.088,1486.45 228.088,1470.09 
  "/>
<polyline clip-path="url(#clip660)" style="stroke:#000000; stroke-width:4; stroke-opacity:1; fill:none" points="
  571.886,1486.45 571.886,1470.09 
  "/>
<polyline clip-path="url(#clip660)" style="stroke:#000000; stroke-width:4; stroke-opacity:1; fill:none" points="
  915.683,1486.45 915.683,1470.09 
  "/>
<polyline clip-path="url(#clip660)" style="stroke:#000000; stroke-width:4; stroke-opacity:1; fill:none" points="
  1259.48,1486.45 1259.48,1470.09 
  "/>
<polyline clip-path="url(#clip660)" style="stroke:#000000; stroke-width:4; stroke-opacity:1; fill:none" points="
  1603.28,1486.45 1603.28,1470.09 
  "/>
<polyline clip-path="url(#clip660)" style="stroke:#000000; stroke-width:4; stroke-opacity:1; fill:none" points="
  1947.08,1486.45 1947.08,1470.09 
  "/>
<polyline clip-path="url(#clip660)" style="stroke:#000000; stroke-width:4; stroke-opacity:1; fill:none" points="
  2290.87,1486.45 2290.87,1470.09 
  "/>
<polyline clip-path="url(#clip660)" style="stroke:#000000; stroke-width:4; stroke-opacity:1; fill:none" points="
  166.205,1447.87 192.443,1447.87 
  "/>
<polyline clip-path="url(#clip660)" style="stroke:#000000; stroke-width:4; stroke-opacity:1; fill:none" points="
  166.205,1182.75 192.443,1182.75 
  "/>
<polyline clip-path="url(#clip660)" style="stroke:#000000; stroke-width:4; stroke-opacity:1; fill:none" points="
  166.205,917.635 192.443,917.635 
  "/>
<polyline clip-path="url(#clip660)" style="stroke:#000000; stroke-width:4; stroke-opacity:1; fill:none" points="
  166.205,652.517 192.443,652.517 
  "/>
<polyline clip-path="url(#clip660)" style="stroke:#000000; stroke-width:4; stroke-opacity:1; fill:none" points="
  166.205,387.398 192.443,387.398 
  "/>
<path clip-path="url(#clip660)" d="M 0 0 M209.142 1525.04 L221.618 1525.04 L221.618 1528.83 L209.142 1528.83 L209.142 1525.04 Z" fill="#000000" fill-rule="evenodd" fill-opacity="1" /><path clip-path="url(#clip660)" d="M 0 0 M230.715 1535.98 L247.035 1535.98 L247.035 1539.92 L225.091 1539.92 L225.091 1535.98 Q227.753 1533.23 232.336 1528.6 Q236.942 1523.95 238.123 1522.61 Q240.368 1520.08 241.248 1518.35 Q242.151 1516.59 242.151 1514.9 Q242.151 1512.14 240.206 1510.41 Q238.285 1508.67 235.183 1508.67 Q232.984 1508.67 230.53 1509.43 Q228.1 1510.2 225.322 1511.75 L225.322 1507.03 Q228.146 1505.89 230.6 1505.31 Q233.053 1504.73 235.09 1504.73 Q240.461 1504.73 243.655 1507.42 Q246.85 1510.11 246.85 1514.6 Q246.85 1516.73 246.039 1518.65 Q245.252 1520.54 243.146 1523.14 Q242.567 1523.81 239.465 1527.03 Q236.364 1530.22 230.715 1535.98 Z" fill="#000000" fill-rule="evenodd" fill-opacity="1" /><path clip-path="url(#clip660)" d="M 0 0 M552.754 1525.04 L565.23 1525.04 L565.23 1528.83 L552.754 1528.83 L552.754 1525.04 Z" fill="#000000" fill-rule="evenodd" fill-opacity="1" /><path clip-path="url(#clip660)" d="M 0 0 M571.11 1535.98 L578.749 1535.98 L578.749 1509.62 L570.439 1511.29 L570.439 1507.03 L578.703 1505.36 L583.379 1505.36 L583.379 1535.98 L591.017 1535.98 L591.017 1539.92 L571.11 1539.92 L571.11 1535.98 Z" fill="#000000" fill-rule="evenodd" fill-opacity="1" /><path clip-path="url(#clip660)" d="M 0 0 M915.683 1508.44 Q912.072 1508.44 910.243 1512 Q908.438 1515.55 908.438 1522.67 Q908.438 1529.78 910.243 1533.35 Q912.072 1536.89 915.683 1536.89 Q919.317 1536.89 921.123 1533.35 Q922.951 1529.78 922.951 1522.67 Q922.951 1515.55 921.123 1512 Q919.317 1508.44 915.683 1508.44 M915.683 1504.73 Q921.493 1504.73 924.549 1509.34 Q927.627 1513.92 927.627 1522.67 Q927.627 1531.4 924.549 1536.01 Q921.493 1540.59 915.683 1540.59 Q909.873 1540.59 906.794 1536.01 Q903.739 1531.4 903.739 1522.67 Q903.739 1513.92 906.794 1509.34 Q909.873 1504.73 915.683 1504.73 Z" fill="#000000" fill-rule="evenodd" fill-opacity="1" /><path clip-path="url(#clip660)" d="M 0 0 M1249.86 1535.98 L1257.5 1535.98 L1257.5 1509.62 L1249.19 1511.29 L1249.19 1507.03 L1257.45 1505.36 L1262.13 1505.36 L1262.13 1535.98 L1269.77 1535.98 L1269.77 1539.92 L1249.86 1539.92 L1249.86 1535.98 Z" fill="#000000" fill-rule="evenodd" fill-opacity="1" /><path clip-path="url(#clip660)" d="M 0 0 M1597.93 1535.98 L1614.25 1535.98 L1614.25 1539.92 L1592.31 1539.92 L1592.31 1535.98 Q1594.97 1533.23 1599.55 1528.6 Q1604.16 1523.95 1605.34 1522.61 Q1607.58 1520.08 1608.46 1518.35 Q1609.37 1516.59 1609.37 1514.9 Q1609.37 1512.14 1607.42 1510.41 Q1605.5 1508.67 1602.4 1508.67 Q1600.2 1508.67 1597.75 1509.43 Q1595.31 1510.2 1592.54 1511.75 L1592.54 1507.03 Q1595.36 1505.89 1597.81 1505.31 Q1600.27 1504.73 1602.31 1504.73 Q1607.68 1504.73 1610.87 1507.42 Q1614.06 1510.11 1614.06 1514.6 Q1614.06 1516.73 1613.25 1518.65 Q1612.47 1520.54 1610.36 1523.14 Q1609.78 1523.81 1606.68 1527.03 Q1603.58 1530.22 1597.93 1535.98 Z" fill="#000000" fill-rule="evenodd" fill-opacity="1" /><path clip-path="url(#clip660)" d="M 0 0 M1951.32 1521.29 Q1954.68 1522 1956.55 1524.27 Q1958.45 1526.54 1958.45 1529.87 Q1958.45 1534.99 1954.93 1537.79 Q1951.42 1540.59 1944.93 1540.59 Q1942.76 1540.59 1940.44 1540.15 Q1938.15 1539.73 1935.7 1538.88 L1935.7 1534.36 Q1937.64 1535.5 1939.96 1536.08 Q1942.27 1536.66 1944.79 1536.66 Q1949.19 1536.66 1951.48 1534.92 Q1953.8 1533.18 1953.8 1529.87 Q1953.8 1526.82 1951.65 1525.11 Q1949.52 1523.37 1945.7 1523.37 L1941.67 1523.37 L1941.67 1519.53 L1945.88 1519.53 Q1949.33 1519.53 1951.16 1518.16 Q1952.99 1516.77 1952.99 1514.18 Q1952.99 1511.52 1951.09 1510.11 Q1949.22 1508.67 1945.7 1508.67 Q1943.78 1508.67 1941.58 1509.09 Q1939.38 1509.5 1936.74 1510.38 L1936.74 1506.22 Q1939.4 1505.48 1941.72 1505.11 Q1944.05 1504.73 1946.11 1504.73 Q1951.44 1504.73 1954.54 1507.17 Q1957.64 1509.57 1957.64 1513.69 Q1957.64 1516.56 1956 1518.55 Q1954.36 1520.52 1951.32 1521.29 Z" fill="#000000" fill-rule="evenodd" fill-opacity="1" /><path clip-path="url(#clip660)" d="M 0 0 M2293.88 1509.43 L2282.08 1527.88 L2293.88 1527.88 L2293.88 1509.43 M2292.65 1505.36 L2298.53 1505.36 L2298.53 1527.88 L2303.46 1527.88 L2303.46 1531.77 L2298.53 1531.77 L2298.53 1539.92 L2293.88 1539.92 L2293.88 1531.77 L2278.28 1531.77 L2278.28 1527.26 L2292.65 1505.36 Z" fill="#000000" fill-rule="evenodd" fill-opacity="1" /><path clip-path="url(#clip660)" d="M 0 0 M130.26 1433.67 Q126.649 1433.67 124.82 1437.24 Q123.015 1440.78 123.015 1447.91 Q123.015 1455.01 124.82 1458.58 Q126.649 1462.12 130.26 1462.12 Q133.895 1462.12 135.7 1458.58 Q137.529 1455.01 137.529 1447.91 Q137.529 1440.78 135.7 1437.24 Q133.895 1433.67 130.26 1433.67 M130.26 1429.97 Q136.07 1429.97 139.126 1434.57 Q142.205 1439.16 142.205 1447.91 Q142.205 1456.63 139.126 1461.24 Q136.07 1465.82 130.26 1465.82 Q124.45 1465.82 121.371 1461.24 Q118.316 1456.63 118.316 1447.91 Q118.316 1439.16 121.371 1434.57 Q124.45 1429.97 130.26 1429.97 Z" fill="#000000" fill-rule="evenodd" fill-opacity="1" /><path clip-path="url(#clip660)" d="M 0 0 M71.8578 1196.1 L88.1772 1196.1 L88.1772 1200.03 L66.2328 1200.03 L66.2328 1196.1 Q68.8949 1193.34 73.4782 1188.71 Q78.0846 1184.06 79.2652 1182.72 Q81.5105 1180.2 82.3902 1178.46 Q83.2929 1176.7 83.2929 1175.01 Q83.2929 1172.26 81.3485 1170.52 Q79.4272 1168.78 76.3254 1168.78 Q74.1263 1168.78 71.6726 1169.55 Q69.2421 1170.31 66.4643 1171.86 L66.4643 1167.14 Q69.2884 1166.01 71.7421 1165.43 Q74.1958 1164.85 76.2328 1164.85 Q81.6031 1164.85 84.7976 1167.53 Q87.992 1170.22 87.992 1174.71 Q87.992 1176.84 87.1818 1178.76 Q86.3948 1180.66 84.2883 1183.25 Q83.7096 1183.92 80.6078 1187.14 Q77.5059 1190.34 71.8578 1196.1 Z" fill="#000000" fill-rule="evenodd" fill-opacity="1" /><path clip-path="url(#clip660)" d="M 0 0 M103.247 1168.55 Q99.6354 1168.55 97.8068 1172.12 Q96.0012 1175.66 96.0012 1182.79 Q96.0012 1189.9 97.8068 1193.46 Q99.6354 1197 103.247 1197 Q106.881 1197 108.686 1193.46 Q110.515 1189.9 110.515 1182.79 Q110.515 1175.66 108.686 1172.12 Q106.881 1168.55 103.247 1168.55 M103.247 1164.85 Q109.057 1164.85 112.112 1169.46 Q115.191 1174.04 115.191 1182.79 Q115.191 1191.52 112.112 1196.12 Q109.057 1200.71 103.247 1200.71 Q97.4364 1200.71 94.3577 1196.12 Q91.3022 1191.52 91.3022 1182.79 Q91.3022 1174.04 94.3577 1169.46 Q97.4364 1164.85 103.247 1164.85 Z" fill="#000000" fill-rule="evenodd" fill-opacity="1" /><path clip-path="url(#clip660)" d="M 0 0 M130.26 1168.55 Q126.649 1168.55 124.82 1172.12 Q123.015 1175.66 123.015 1182.79 Q123.015 1189.9 124.82 1193.46 Q126.649 1197 130.26 1197 Q133.895 1197 135.7 1193.46 Q137.529 1189.9 137.529 1182.79 Q137.529 1175.66 135.7 1172.12 Q133.895 1168.55 130.26 1168.55 M130.26 1164.85 Q136.07 1164.85 139.126 1169.46 Q142.205 1174.04 142.205 1182.79 Q142.205 1191.52 139.126 1196.12 Q136.07 1200.71 130.26 1200.71 Q124.45 1200.71 121.371 1196.12 Q118.316 1191.52 118.316 1182.79 Q118.316 1174.04 121.371 1169.46 Q124.45 1164.85 130.26 1164.85 Z" fill="#000000" fill-rule="evenodd" fill-opacity="1" /><path clip-path="url(#clip660)" d="M 0 0 M78.5939 904.43 L66.7884 922.879 L78.5939 922.879 L78.5939 904.43 M77.367 900.355 L83.2466 900.355 L83.2466 922.879 L88.1772 922.879 L88.1772 926.767 L83.2466 926.767 L83.2466 934.915 L78.5939 934.915 L78.5939 926.767 L62.9921 926.767 L62.9921 922.254 L77.367 900.355 Z" fill="#000000" fill-rule="evenodd" fill-opacity="1" /><path clip-path="url(#clip660)" d="M 0 0 M103.247 903.434 Q99.6354 903.434 97.8068 906.999 Q96.0012 910.541 96.0012 917.67 Q96.0012 924.777 97.8068 928.341 Q99.6354 931.883 103.247 931.883 Q106.881 931.883 108.686 928.341 Q110.515 924.777 110.515 917.67 Q110.515 910.541 108.686 906.999 Q106.881 903.434 103.247 903.434 M103.247 899.73 Q109.057 899.73 112.112 904.337 Q115.191 908.92 115.191 917.67 Q115.191 926.397 112.112 931.003 Q109.057 935.587 103.247 935.587 Q97.4364 935.587 94.3577 931.003 Q91.3022 926.397 91.3022 917.67 Q91.3022 908.92 94.3577 904.337 Q97.4364 899.73 103.247 899.73 Z" fill="#000000" fill-rule="evenodd" fill-opacity="1" /><path clip-path="url(#clip660)" d="M 0 0 M130.26 903.434 Q126.649 903.434 124.82 906.999 Q123.015 910.541 123.015 917.67 Q123.015 924.777 124.82 928.341 Q126.649 931.883 130.26 931.883 Q133.895 931.883 135.7 928.341 Q137.529 924.777 137.529 917.67 Q137.529 910.541 135.7 906.999 Q133.895 903.434 130.26 903.434 M130.26 899.73 Q136.07 899.73 139.126 904.337 Q142.205 908.92 142.205 917.67 Q142.205 926.397 139.126 931.003 Q136.07 935.587 130.26 935.587 Q124.45 935.587 121.371 931.003 Q118.316 926.397 118.316 917.67 Q118.316 908.92 121.371 904.337 Q124.45 899.73 130.26 899.73 Z" fill="#000000" fill-rule="evenodd" fill-opacity="1" /><path clip-path="url(#clip660)" d="M 0 0 M76.6495 650.653 Q73.5013 650.653 71.6495 652.806 Q69.8208 654.959 69.8208 658.709 Q69.8208 662.436 71.6495 664.612 Q73.5013 666.764 76.6495 666.764 Q79.7976 666.764 81.6263 664.612 Q83.4781 662.436 83.4781 658.709 Q83.4781 654.959 81.6263 652.806 Q79.7976 650.653 76.6495 650.653 M85.9318 636.001 L85.9318 640.26 Q84.1726 639.426 82.367 638.987 Q80.5846 638.547 78.8254 638.547 Q74.1958 638.547 71.7421 641.672 Q69.3115 644.797 68.9643 651.116 Q70.33 649.102 72.3902 648.038 Q74.4504 646.95 76.9272 646.95 Q82.1355 646.95 85.1448 650.121 Q88.1772 653.269 88.1772 658.709 Q88.1772 664.033 85.029 667.25 Q81.8809 670.468 76.6495 670.468 Q70.6541 670.468 67.4828 665.885 Q64.3116 661.278 64.3116 652.551 Q64.3116 644.357 68.2004 639.496 Q72.0893 634.612 78.6402 634.612 Q80.3994 634.612 82.1818 634.959 Q83.9874 635.306 85.9318 636.001 Z" fill="#000000" fill-rule="evenodd" fill-opacity="1" /><path clip-path="url(#clip660)" d="M 0 0 M103.247 638.315 Q99.6354 638.315 97.8068 641.88 Q96.0012 645.422 96.0012 652.551 Q96.0012 659.658 97.8068 663.223 Q99.6354 666.764 103.247 666.764 Q106.881 666.764 108.686 663.223 Q110.515 659.658 110.515 652.551 Q110.515 645.422 108.686 641.88 Q106.881 638.315 103.247 638.315 M103.247 634.612 Q109.057 634.612 112.112 639.218 Q115.191 643.801 115.191 652.551 Q115.191 661.278 112.112 665.885 Q109.057 670.468 103.247 670.468 Q97.4364 670.468 94.3577 665.885 Q91.3022 661.278 91.3022 652.551 Q91.3022 643.801 94.3577 639.218 Q97.4364 634.612 103.247 634.612 Z" fill="#000000" fill-rule="evenodd" fill-opacity="1" /><path clip-path="url(#clip660)" d="M 0 0 M130.26 638.315 Q126.649 638.315 124.82 641.88 Q123.015 645.422 123.015 652.551 Q123.015 659.658 124.82 663.223 Q126.649 666.764 130.26 666.764 Q133.895 666.764 135.7 663.223 Q137.529 659.658 137.529 652.551 Q137.529 645.422 135.7 641.88 Q133.895 638.315 130.26 638.315 M130.26 634.612 Q136.07 634.612 139.126 639.218 Q142.205 643.801 142.205 652.551 Q142.205 661.278 139.126 665.885 Q136.07 670.468 130.26 670.468 Q124.45 670.468 121.371 665.885 Q118.316 661.278 118.316 652.551 Q118.316 643.801 121.371 639.218 Q124.45 634.612 130.26 634.612 Z" fill="#000000" fill-rule="evenodd" fill-opacity="1" /><path clip-path="url(#clip660)" d="M 0 0 M76.3254 388.266 Q72.9921 388.266 71.0708 390.048 Q69.1726 391.831 69.1726 394.956 Q69.1726 398.081 71.0708 399.863 Q72.9921 401.645 76.3254 401.645 Q79.6587 401.645 81.58 399.863 Q83.5013 398.058 83.5013 394.956 Q83.5013 391.831 81.58 390.048 Q79.6819 388.266 76.3254 388.266 M71.6495 386.275 Q68.6402 385.534 66.9504 383.474 Q65.2838 381.414 65.2838 378.451 Q65.2838 374.308 68.2236 371.9 Q71.1865 369.493 76.3254 369.493 Q81.4874 369.493 84.4272 371.9 Q87.367 374.308 87.367 378.451 Q87.367 381.414 85.6772 383.474 Q84.0105 385.534 81.0244 386.275 Q84.404 387.062 86.279 389.354 Q88.1772 391.646 88.1772 394.956 Q88.1772 399.979 85.0985 402.664 Q82.0429 405.349 76.3254 405.349 Q70.6078 405.349 67.5291 402.664 Q64.4736 399.979 64.4736 394.956 Q64.4736 391.646 66.3717 389.354 Q68.2699 387.062 71.6495 386.275 M69.9365 378.891 Q69.9365 381.576 71.6032 383.081 Q73.293 384.585 76.3254 384.585 Q79.3346 384.585 81.0244 383.081 Q82.7374 381.576 82.7374 378.891 Q82.7374 376.206 81.0244 374.701 Q79.3346 373.197 76.3254 373.197 Q73.293 373.197 71.6032 374.701 Q69.9365 376.206 69.9365 378.891 Z" fill="#000000" fill-rule="evenodd" fill-opacity="1" /><path clip-path="url(#clip660)" d="M 0 0 M103.247 373.197 Q99.6354 373.197 97.8068 376.761 Q96.0012 380.303 96.0012 387.433 Q96.0012 394.539 97.8068 398.104 Q99.6354 401.645 103.247 401.645 Q106.881 401.645 108.686 398.104 Q110.515 394.539 110.515 387.433 Q110.515 380.303 108.686 376.761 Q106.881 373.197 103.247 373.197 M103.247 369.493 Q109.057 369.493 112.112 374.099 Q115.191 378.683 115.191 387.433 Q115.191 396.159 112.112 400.766 Q109.057 405.349 103.247 405.349 Q97.4364 405.349 94.3577 400.766 Q91.3022 396.159 91.3022 387.433 Q91.3022 378.683 94.3577 374.099 Q97.4364 369.493 103.247 369.493 Z" fill="#000000" fill-rule="evenodd" fill-opacity="1" /><path clip-path="url(#clip660)" d="M 0 0 M130.26 373.197 Q126.649 373.197 124.82 376.761 Q123.015 380.303 123.015 387.433 Q123.015 394.539 124.82 398.104 Q126.649 401.645 130.26 401.645 Q133.895 401.645 135.7 398.104 Q137.529 394.539 137.529 387.433 Q137.529 380.303 135.7 376.761 Q133.895 373.197 130.26 373.197 M130.26 369.493 Q136.07 369.493 139.126 374.099 Q142.205 378.683 142.205 387.433 Q142.205 396.159 139.126 400.766 Q136.07 405.349 130.26 405.349 Q124.45 405.349 121.371 400.766 Q118.316 396.159 118.316 387.433 Q118.316 378.683 121.371 374.099 Q124.45 369.493 130.26 369.493 Z" fill="#000000" fill-rule="evenodd" fill-opacity="1" /><path clip-path="url(#clip660)" d="M 0 0 M1183.67 18.8205 L1183.67 65.8515 L1193.55 65.8515 Q1206.07 65.8515 1211.86 60.1802 Q1217.7 54.509 1217.7 42.2752 Q1217.7 30.1225 1211.86 24.4918 Q1206.07 18.8205 1193.55 18.8205 L1183.67 18.8205 M1175.48 12.096 L1192.3 12.096 Q1209.88 12.096 1218.1 19.4281 Q1226.32 26.7198 1226.32 42.2752 Q1226.32 57.9117 1218.06 65.2439 Q1209.8 72.576 1192.3 72.576 L1175.48 72.576 L1175.48 12.096 Z" fill="#000000" fill-rule="evenodd" fill-opacity="1" /><path clip-path="url(#clip660)" d="M 0 0 M1254.76 49.7694 Q1245.73 49.7694 1242.24 51.8354 Q1238.76 53.9013 1238.76 58.8839 Q1238.76 62.8538 1241.35 65.2034 Q1243.99 67.5124 1248.48 67.5124 Q1254.68 67.5124 1258.41 63.1374 Q1262.17 58.7219 1262.17 51.4303 L1262.17 49.7694 L1254.76 49.7694 M1269.63 46.6907 L1269.63 72.576 L1262.17 72.576 L1262.17 65.6895 Q1259.62 69.8214 1255.81 71.8063 Q1252.01 73.7508 1246.5 73.7508 Q1239.53 73.7508 1235.4 69.8619 Q1231.31 65.9325 1231.31 59.3701 Q1231.31 51.7138 1236.41 47.825 Q1241.56 43.9361 1251.72 43.9361 L1262.17 43.9361 L1262.17 43.2069 Q1262.17 38.0623 1258.77 35.2672 Q1255.41 32.4315 1249.29 32.4315 Q1245.4 32.4315 1241.72 33.3632 Q1238.03 34.295 1234.63 36.1584 L1234.63 29.2718 Q1238.72 27.692 1242.57 26.9223 Q1246.42 26.1121 1250.06 26.1121 Q1259.91 26.1121 1264.77 31.2163 Q1269.63 36.3204 1269.63 46.6907 Z" fill="#000000" fill-rule="evenodd" fill-opacity="1" /><path clip-path="url(#clip660)" d="M 0 0 M1284.82 14.324 L1284.82 27.2059 L1300.17 27.2059 L1300.17 32.9987 L1284.82 32.9987 L1284.82 57.6282 Q1284.82 63.1779 1286.32 64.7578 Q1287.86 66.3376 1292.52 66.3376 L1300.17 66.3376 L1300.17 72.576 L1292.52 72.576 Q1283.89 72.576 1280.61 69.3758 Q1277.32 66.1351 1277.32 57.6282 L1277.32 32.9987 L1271.86 32.9987 L1271.86 27.2059 L1277.32 27.2059 L1277.32 14.324 L1284.82 14.324 Z" fill="#000000" fill-rule="evenodd" fill-opacity="1" /><path clip-path="url(#clip660)" d="M 0 0 M1328.61 49.7694 Q1319.58 49.7694 1316.09 51.8354 Q1312.61 53.9013 1312.61 58.8839 Q1312.61 62.8538 1315.2 65.2034 Q1317.83 67.5124 1322.33 67.5124 Q1328.53 67.5124 1332.25 63.1374 Q1336.02 58.7219 1336.02 51.4303 L1336.02 49.7694 L1328.61 49.7694 M1343.48 46.6907 L1343.48 72.576 L1336.02 72.576 L1336.02 65.6895 Q1333.47 69.8214 1329.66 71.8063 Q1325.85 73.7508 1320.35 73.7508 Q1313.38 73.7508 1309.25 69.8619 Q1305.15 65.9325 1305.15 59.3701 Q1305.15 51.7138 1310.26 47.825 Q1315.4 43.9361 1325.57 43.9361 L1336.02 43.9361 L1336.02 43.2069 Q1336.02 38.0623 1332.62 35.2672 Q1329.26 32.4315 1323.14 32.4315 Q1319.25 32.4315 1315.57 33.3632 Q1311.88 34.295 1308.48 36.1584 L1308.48 29.2718 Q1312.57 27.692 1316.42 26.9223 Q1320.26 26.1121 1323.91 26.1121 Q1333.75 26.1121 1338.61 31.2163 Q1343.48 36.3204 1343.48 46.6907 Z" fill="#000000" fill-rule="evenodd" fill-opacity="1" /><polyline clip-path="url(#clip662)" style="stroke:#009af9; stroke-width:4; stroke-opacity:1; fill:none" points="
  228.088,1447.87 228.088,1381.59 262.468,1381.59 262.468,1302.06 296.848,1302.06 296.848,1315.31 331.227,1315.31 331.227,1169.5 365.607,1169.5 
  399.987,1169.5 399.987,1089.96 434.367,1089.96 434.367,1036.94 468.746,1036.94 468.746,1023.68 503.126,1023.68 503.126,997.171 537.506,997.171 537.506,983.915 
  571.886,983.915 571.886,957.403 606.265,957.403 640.645,957.403 640.645,891.124 675.025,891.124 675.025,930.891 709.405,930.891 709.405,1129.73 
  743.784,1129.73 743.784,1103.22 778.164,1103.22 778.164,1235.78 812.544,1235.78 812.544,1368.34 846.923,1368.34 846.923,1275.55 881.303,1275.55 881.303,1315.31 
  915.683,1315.31 915.683,1408.11 950.063,1408.11 950.063,1394.85 984.442,1394.85 984.442,1434.62 1018.82,1434.62 1053.2,1434.62 1053.2,1408.11 
  1087.58,1408.11 1087.58,1421.36 1121.96,1421.36 1156.34,1421.36 1156.34,1394.85 1190.72,1394.85 1190.72,1408.11 1225.1,1408.11 1225.1,1315.31 
  1259.48,1315.31 1259.48,1222.52 1293.86,1222.52 1293.86,1262.29 1328.24,1262.29 1328.24,1103.22 1362.62,1103.22 1362.62,1050.19 1397,1050.19 1397,904.38 
  1431.38,904.38 1431.38,599.493 1465.76,599.493 1465.76,533.213 1500.14,533.213 1500.14,453.678 1534.52,453.678 1534.52,533.213 1568.9,533.213 1568.9,413.91 
  1603.28,413.91 1603.28,493.445 1637.66,493.445 1637.66,546.469 1672.04,546.469 1672.04,162.047 1706.42,162.047 1706.42,758.564 1740.8,758.564 1740.8,864.612 
  1775.18,864.612 1775.18,692.285 1809.56,692.285 1809.56,997.171 1843.94,997.171 1843.94,1196.01 1878.32,1196.01 1878.32,1249.03 1912.7,1249.03 1912.7,1275.55 
  1947.08,1275.55 1947.08,1355.08 1981.45,1355.08 1981.45,1341.83 2015.83,1341.83 2015.83,1408.11 2050.21,1408.11 2050.21,1394.85 2084.59,1394.85 2084.59,1434.62 
  2118.97,1434.62 2118.97,1447.87 2153.35,1447.87 2153.35,1434.62 2187.73,1434.62 2187.73,1447.87 2222.11,1447.87 2256.49,1447.87 
  2290.87,1447.87 
  "/>
<path clip-path="url(#clip660)" d="
M1940.93 289.865 L2279.87 289.865 L2279.87 168.905 L1940.93 168.905  Z
  " fill="#ffffff" fill-rule="evenodd" fill-opacity="1"/>
<polyline clip-path="url(#clip660)" style="stroke:#000000; stroke-width:4; stroke-opacity:1; fill:none" points="
  1940.93,289.865 2279.87,289.865 2279.87,168.905 1940.93,168.905 1940.93,289.865 
  "/>
<polyline clip-path="url(#clip660)" style="stroke:#009af9; stroke-width:4; stroke-opacity:1; fill:none" points="
  1965.22,229.385 2110.99,229.385 
  "/>
<path clip-path="url(#clip660)" d="M 0 0 M2139.96 215.947 L2139.96 242.822 L2145.61 242.822 Q2152.76 242.822 2156.07 239.581 Q2159.41 236.341 2159.41 229.35 Q2159.41 222.406 2156.07 219.188 Q2152.76 215.947 2145.61 215.947 L2139.96 215.947 M2135.29 212.105 L2144.89 212.105 Q2154.94 212.105 2159.64 216.294 Q2164.34 220.461 2164.34 229.35 Q2164.34 238.285 2159.61 242.475 Q2154.89 246.665 2144.89 246.665 L2135.29 246.665 L2135.29 212.105 Z" fill="#000000" fill-rule="evenodd" fill-opacity="1" /><path clip-path="url(#clip660)" d="M 0 0 M2180.59 233.632 Q2175.42 233.632 2173.43 234.813 Q2171.44 235.993 2171.44 238.841 Q2171.44 241.109 2172.92 242.452 Q2174.43 243.771 2177 243.771 Q2180.54 243.771 2182.67 241.271 Q2184.82 238.748 2184.82 234.581 L2184.82 233.632 L2180.59 233.632 M2189.08 231.873 L2189.08 246.665 L2184.82 246.665 L2184.82 242.729 Q2183.36 245.091 2181.19 246.225 Q2179.01 247.336 2175.86 247.336 Q2171.88 247.336 2169.52 245.114 Q2167.18 242.868 2167.18 239.118 Q2167.18 234.743 2170.1 232.521 Q2173.04 230.299 2178.85 230.299 L2184.82 230.299 L2184.82 229.882 Q2184.82 226.943 2182.88 225.345 Q2180.96 223.725 2177.46 223.725 Q2175.24 223.725 2173.13 224.257 Q2171.03 224.79 2169.08 225.855 L2169.08 221.919 Q2171.42 221.017 2173.62 220.577 Q2175.82 220.114 2177.9 220.114 Q2183.53 220.114 2186.3 223.031 Q2189.08 225.947 2189.08 231.873 Z" fill="#000000" fill-rule="evenodd" fill-opacity="1" /><path clip-path="url(#clip660)" d="M 0 0 M2197.76 213.378 L2197.76 220.739 L2206.54 220.739 L2206.54 224.049 L2197.76 224.049 L2197.76 238.123 Q2197.76 241.294 2198.62 242.197 Q2199.5 243.1 2202.16 243.1 L2206.54 243.1 L2206.54 246.665 L2202.16 246.665 Q2197.23 246.665 2195.36 244.836 Q2193.48 242.984 2193.48 238.123 L2193.48 224.049 L2190.36 224.049 L2190.36 220.739 L2193.48 220.739 L2193.48 213.378 L2197.76 213.378 Z" fill="#000000" fill-rule="evenodd" fill-opacity="1" /><path clip-path="url(#clip660)" d="M 0 0 M2222.79 233.632 Q2217.62 233.632 2215.63 234.813 Q2213.64 235.993 2213.64 238.841 Q2213.64 241.109 2215.12 242.452 Q2216.63 243.771 2219.2 243.771 Q2222.74 243.771 2224.87 241.271 Q2227.02 238.748 2227.02 234.581 L2227.02 233.632 L2222.79 233.632 M2231.28 231.873 L2231.28 246.665 L2227.02 246.665 L2227.02 242.729 Q2225.56 245.091 2223.39 246.225 Q2221.21 247.336 2218.06 247.336 Q2214.08 247.336 2211.72 245.114 Q2209.38 242.868 2209.38 239.118 Q2209.38 234.743 2212.3 232.521 Q2215.24 230.299 2221.05 230.299 L2227.02 230.299 L2227.02 229.882 Q2227.02 226.943 2225.08 225.345 Q2223.16 223.725 2219.66 223.725 Q2217.44 223.725 2215.33 224.257 Q2213.23 224.79 2211.28 225.855 L2211.28 221.919 Q2213.62 221.017 2215.82 220.577 Q2218.02 220.114 2220.1 220.114 Q2225.73 220.114 2228.5 223.031 Q2231.28 225.947 2231.28 231.873 Z" fill="#000000" fill-rule="evenodd" fill-opacity="1" /></svg>
