<?xml version="1.0" encoding="utf-8"?>
<svg xmlns="http://www.w3.org/2000/svg" xmlns:xlink="http://www.w3.org/1999/xlink" width="600" height="400" viewBox="0 0 2400 1600">
<defs>
  <clipPath id="clip590">
    <rect x="0" y="0" width="2400" height="1600"/>
  </clipPath>
</defs>
<path clip-path="url(#clip590)" d="
M0 1600 L2400 1600 L2400 0 L0 0  Z
  " fill="#ffffff" fill-rule="evenodd" fill-opacity="1"/>
<defs>
  <clipPath id="clip591">
    <rect x="480" y="0" width="1681" height="1600"/>
  </clipPath>
</defs>
<path clip-path="url(#clip590)" d="
M172.015 1486.45 L2352.76 1486.45 L2352.76 123.472 L172.015 123.472  Z
  " fill="#ffffff" fill-rule="evenodd" fill-opacity="1"/>
<defs>
  <clipPath id="clip592">
    <rect x="172" y="123" width="2182" height="1364"/>
  </clipPath>
</defs>
<polyline clip-path="url(#clip592)" style="stroke:#000000; stroke-linecap:butt; stroke-linejoin:round; stroke-width:2; stroke-opacity:0.1; fill:none" points="
  233.734,1486.45 233.734,123.472 
  "/>
<polyline clip-path="url(#clip592)" style="stroke:#000000; stroke-linecap:butt; stroke-linejoin:round; stroke-width:2; stroke-opacity:0.1; fill:none" points="
  748.06,1486.45 748.06,123.472 
  "/>
<polyline clip-path="url(#clip592)" style="stroke:#000000; stroke-linecap:butt; stroke-linejoin:round; stroke-width:2; stroke-opacity:0.1; fill:none" points="
  1262.39,1486.45 1262.39,123.472 
  "/>
<polyline clip-path="url(#clip592)" style="stroke:#000000; stroke-linecap:butt; stroke-linejoin:round; stroke-width:2; stroke-opacity:0.1; fill:none" points="
  1776.71,1486.45 1776.71,123.472 
  "/>
<polyline clip-path="url(#clip592)" style="stroke:#000000; stroke-linecap:butt; stroke-linejoin:round; stroke-width:2; stroke-opacity:0.1; fill:none" points="
  2291.04,1486.45 2291.04,123.472 
  "/>
<polyline clip-path="url(#clip590)" style="stroke:#000000; stroke-linecap:butt; stroke-linejoin:round; stroke-width:4; stroke-opacity:1; fill:none" points="
  172.015,1486.45 2352.76,1486.45 
  "/>
<polyline clip-path="url(#clip590)" style="stroke:#000000; stroke-linecap:butt; stroke-linejoin:round; stroke-width:4; stroke-opacity:1; fill:none" points="
  233.734,1486.45 233.734,1470.09 
  "/>
<polyline clip-path="url(#clip590)" style="stroke:#000000; stroke-linecap:butt; stroke-linejoin:round; stroke-width:4; stroke-opacity:1; fill:none" points="
  748.06,1486.45 748.06,1470.09 
  "/>
<polyline clip-path="url(#clip590)" style="stroke:#000000; stroke-linecap:butt; stroke-linejoin:round; stroke-width:4; stroke-opacity:1; fill:none" points="
  1262.39,1486.45 1262.39,1470.09 
  "/>
<polyline clip-path="url(#clip590)" style="stroke:#000000; stroke-linecap:butt; stroke-linejoin:round; stroke-width:4; stroke-opacity:1; fill:none" points="
  1776.71,1486.45 1776.71,1470.09 
  "/>
<polyline clip-path="url(#clip590)" style="stroke:#000000; stroke-linecap:butt; stroke-linejoin:round; stroke-width:4; stroke-opacity:1; fill:none" points="
  2291.04,1486.45 2291.04,1470.09 
  "/>
<path clip-path="url(#clip590)" d="M202.635 1530.29 L232.31 1530.29 L232.31 1534.23 L202.635 1534.23 L202.635 1530.29 Z" fill="#000000" fill-rule="evenodd" fill-opacity="1" /><path clip-path="url(#clip590)" d="M255.25 1516.63 L243.445 1535.08 L255.25 1535.08 L255.25 1516.63 M254.023 1512.56 L259.903 1512.56 L259.903 1535.08 L264.833 1535.08 L264.833 1538.97 L259.903 1538.97 L259.903 1547.12 L255.25 1547.12 L255.25 1538.97 L239.648 1538.97 L239.648 1534.46 L254.023 1512.56 Z" fill="#000000" fill-rule="evenodd" fill-opacity="1" /><path clip-path="url(#clip590)" d="M718.002 1530.29 L747.678 1530.29 L747.678 1534.23 L718.002 1534.23 L718.002 1530.29 Z" fill="#000000" fill-rule="evenodd" fill-opacity="1" /><path clip-path="url(#clip590)" d="M761.798 1543.18 L778.117 1543.18 L778.117 1547.12 L756.173 1547.12 L756.173 1543.18 Q758.835 1540.43 763.418 1535.8 Q768.025 1531.15 769.205 1529.81 Q771.451 1527.28 772.33 1525.55 Q773.233 1523.79 773.233 1522.1 Q773.233 1519.34 771.289 1517.61 Q769.367 1515.87 766.266 1515.87 Q764.066 1515.87 761.613 1516.63 Q759.182 1517.4 756.404 1518.95 L756.404 1514.23 Q759.229 1513.09 761.682 1512.51 Q764.136 1511.93 766.173 1511.93 Q771.543 1511.93 774.738 1514.62 Q777.932 1517.31 777.932 1521.8 Q777.932 1523.93 777.122 1525.85 Q776.335 1527.74 774.228 1530.34 Q773.65 1531.01 770.548 1534.23 Q767.446 1537.42 761.798 1543.18 Z" fill="#000000" fill-rule="evenodd" fill-opacity="1" /><path clip-path="url(#clip590)" d="M1262.39 1515.64 Q1258.77 1515.64 1256.95 1519.2 Q1255.14 1522.75 1255.14 1529.87 Q1255.14 1536.98 1256.95 1540.55 Q1258.77 1544.09 1262.39 1544.09 Q1266.02 1544.09 1267.83 1540.55 Q1269.65 1536.98 1269.65 1529.87 Q1269.65 1522.75 1267.83 1519.2 Q1266.02 1515.64 1262.39 1515.64 M1262.39 1511.93 Q1268.2 1511.93 1271.25 1516.54 Q1274.33 1521.12 1274.33 1529.87 Q1274.33 1538.6 1271.25 1543.21 Q1268.2 1547.79 1262.39 1547.79 Q1256.58 1547.79 1253.5 1543.21 Q1250.44 1538.6 1250.44 1529.87 Q1250.44 1521.12 1253.5 1516.54 Q1256.58 1511.93 1262.39 1511.93 Z" fill="#000000" fill-rule="evenodd" fill-opacity="1" /><path clip-path="url(#clip590)" d="M1771.36 1543.18 L1787.68 1543.18 L1787.68 1547.12 L1765.74 1547.12 L1765.74 1543.18 Q1768.4 1540.43 1772.98 1535.8 Q1777.59 1531.15 1778.77 1529.81 Q1781.02 1527.28 1781.9 1525.55 Q1782.8 1523.79 1782.8 1522.1 Q1782.8 1519.34 1780.85 1517.61 Q1778.93 1515.87 1775.83 1515.87 Q1773.63 1515.87 1771.18 1516.63 Q1768.75 1517.4 1765.97 1518.95 L1765.97 1514.23 Q1768.79 1513.09 1771.25 1512.51 Q1773.7 1511.93 1775.74 1511.93 Q1781.11 1511.93 1784.3 1514.62 Q1787.5 1517.31 1787.5 1521.8 Q1787.5 1523.93 1786.69 1525.85 Q1785.9 1527.74 1783.79 1530.34 Q1783.22 1531.01 1780.11 1534.23 Q1777.01 1537.42 1771.36 1543.18 Z" fill="#000000" fill-rule="evenodd" fill-opacity="1" /><path clip-path="url(#clip590)" d="M2294.05 1516.63 L2282.24 1535.08 L2294.05 1535.08 L2294.05 1516.63 M2292.82 1512.56 L2298.7 1512.56 L2298.7 1535.08 L2303.63 1535.08 L2303.63 1538.97 L2298.7 1538.97 L2298.7 1547.12 L2294.05 1547.12 L2294.05 1538.97 L2278.44 1538.97 L2278.44 1534.46 L2292.82 1512.56 Z" fill="#000000" fill-rule="evenodd" fill-opacity="1" /><polyline clip-path="url(#clip592)" style="stroke:#000000; stroke-linecap:butt; stroke-linejoin:round; stroke-width:2; stroke-opacity:0.1; fill:none" points="
  172.015,1447.87 2352.76,1447.87 
  "/>
<polyline clip-path="url(#clip592)" style="stroke:#000000; stroke-linecap:butt; stroke-linejoin:round; stroke-width:2; stroke-opacity:0.1; fill:none" points="
  172.015,1171.35 2352.76,1171.35 
  "/>
<polyline clip-path="url(#clip592)" style="stroke:#000000; stroke-linecap:butt; stroke-linejoin:round; stroke-width:2; stroke-opacity:0.1; fill:none" points="
  172.015,894.83 2352.76,894.83 
  "/>
<polyline clip-path="url(#clip592)" style="stroke:#000000; stroke-linecap:butt; stroke-linejoin:round; stroke-width:2; stroke-opacity:0.1; fill:none" points="
  172.015,618.308 2352.76,618.308 
  "/>
<polyline clip-path="url(#clip592)" style="stroke:#000000; stroke-linecap:butt; stroke-linejoin:round; stroke-width:2; stroke-opacity:0.1; fill:none" points="
  172.015,341.786 2352.76,341.786 
  "/>
<polyline clip-path="url(#clip590)" style="stroke:#000000; stroke-linecap:butt; stroke-linejoin:round; stroke-width:4; stroke-opacity:1; fill:none" points="
  172.015,1486.45 172.015,123.472 
  "/>
<polyline clip-path="url(#clip590)" style="stroke:#000000; stroke-linecap:butt; stroke-linejoin:round; stroke-width:4; stroke-opacity:1; fill:none" points="
  172.015,1447.87 198.184,1447.87 
  "/>
<polyline clip-path="url(#clip590)" style="stroke:#000000; stroke-linecap:butt; stroke-linejoin:round; stroke-width:4; stroke-opacity:1; fill:none" points="
  172.015,1171.35 198.184,1171.35 
  "/>
<polyline clip-path="url(#clip590)" style="stroke:#000000; stroke-linecap:butt; stroke-linejoin:round; stroke-width:4; stroke-opacity:1; fill:none" points="
  172.015,894.83 198.184,894.83 
  "/>
<polyline clip-path="url(#clip590)" style="stroke:#000000; stroke-linecap:butt; stroke-linejoin:round; stroke-width:4; stroke-opacity:1; fill:none" points="
  172.015,618.308 198.184,618.308 
  "/>
<polyline clip-path="url(#clip590)" style="stroke:#000000; stroke-linecap:butt; stroke-linejoin:round; stroke-width:4; stroke-opacity:1; fill:none" points="
  172.015,341.786 198.184,341.786 
  "/>
<path clip-path="url(#clip590)" d="M124.07 1433.67 Q120.459 1433.67 118.631 1437.24 Q116.825 1440.78 116.825 1447.91 Q116.825 1455.01 118.631 1458.58 Q120.459 1462.12 124.07 1462.12 Q127.705 1462.12 129.51 1458.58 Q131.339 1455.01 131.339 1447.91 Q131.339 1440.78 129.51 1437.24 Q127.705 1433.67 124.07 1433.67 M124.07 1429.97 Q129.881 1429.97 132.936 1434.57 Q136.015 1439.16 136.015 1447.91 Q136.015 1456.63 132.936 1461.24 Q129.881 1465.82 124.07 1465.82 Q118.26 1465.82 115.182 1461.24 Q112.126 1456.63 112.126 1447.91 Q112.126 1439.16 115.182 1434.57 Q118.26 1429.97 124.07 1429.97 Z" fill="#000000" fill-rule="evenodd" fill-opacity="1" /><path clip-path="url(#clip590)" d="M57.7745 1184.7 L74.0939 1184.7 L74.0939 1188.63 L52.1495 1188.63 L52.1495 1184.7 Q54.8115 1181.94 59.3949 1177.31 Q64.0013 1172.66 65.1819 1171.32 Q67.4272 1168.79 68.3068 1167.06 Q69.2096 1165.3 69.2096 1163.61 Q69.2096 1160.85 67.2652 1159.12 Q65.3439 1157.38 62.2421 1157.38 Q60.043 1157.38 57.5893 1158.15 Q55.1588 1158.91 52.381 1160.46 L52.381 1155.74 Q55.2051 1154.6 57.6588 1154.03 Q60.1124 1153.45 62.1495 1153.45 Q67.5198 1153.45 70.7142 1156.13 Q73.9087 1158.82 73.9087 1163.31 Q73.9087 1165.44 73.0985 1167.36 Q72.3115 1169.26 70.205 1171.85 Q69.6263 1172.52 66.5245 1175.74 Q63.4226 1178.93 57.7745 1184.7 Z" fill="#000000" fill-rule="evenodd" fill-opacity="1" /><path clip-path="url(#clip590)" d="M93.9086 1157.15 Q90.2975 1157.15 88.4688 1160.71 Q86.6632 1164.26 86.6632 1171.39 Q86.6632 1178.49 88.4688 1182.06 Q90.2975 1185.6 93.9086 1185.6 Q97.5428 1185.6 99.3483 1182.06 Q101.177 1178.49 101.177 1171.39 Q101.177 1164.26 99.3483 1160.71 Q97.5428 1157.15 93.9086 1157.15 M93.9086 1153.45 Q99.7187 1153.45 102.774 1158.05 Q105.853 1162.64 105.853 1171.39 Q105.853 1180.11 102.774 1184.72 Q99.7187 1189.3 93.9086 1189.3 Q88.0984 1189.3 85.0197 1184.72 Q81.9642 1180.11 81.9642 1171.39 Q81.9642 1162.64 85.0197 1158.05 Q88.0984 1153.45 93.9086 1153.45 Z" fill="#000000" fill-rule="evenodd" fill-opacity="1" /><path clip-path="url(#clip590)" d="M124.07 1157.15 Q120.459 1157.15 118.631 1160.71 Q116.825 1164.26 116.825 1171.39 Q116.825 1178.49 118.631 1182.06 Q120.459 1185.6 124.07 1185.6 Q127.705 1185.6 129.51 1182.06 Q131.339 1178.49 131.339 1171.39 Q131.339 1164.26 129.51 1160.71 Q127.705 1157.15 124.07 1157.15 M124.07 1153.45 Q129.881 1153.45 132.936 1158.05 Q136.015 1162.64 136.015 1171.39 Q136.015 1180.11 132.936 1184.72 Q129.881 1189.3 124.07 1189.3 Q118.26 1189.3 115.182 1184.72 Q112.126 1180.11 112.126 1171.39 Q112.126 1162.64 115.182 1158.05 Q118.26 1153.45 124.07 1153.45 Z" fill="#000000" fill-rule="evenodd" fill-opacity="1" /><path clip-path="url(#clip590)" d="M66.5939 881.624 L54.7884 900.073 L66.5939 900.073 L66.5939 881.624 M65.367 877.55 L71.2466 877.55 L71.2466 900.073 L76.1772 900.073 L76.1772 903.961 L71.2466 903.961 L71.2466 912.11 L66.5939 912.11 L66.5939 903.961 L50.9921 903.961 L50.9921 899.448 L65.367 877.55 Z" fill="#000000" fill-rule="evenodd" fill-opacity="1" /><path clip-path="url(#clip590)" d="M93.9086 880.628 Q90.2975 880.628 88.4688 884.193 Q86.6632 887.735 86.6632 894.864 Q86.6632 901.971 88.4688 905.536 Q90.2975 909.077 93.9086 909.077 Q97.5428 909.077 99.3483 905.536 Q101.177 901.971 101.177 894.864 Q101.177 887.735 99.3483 884.193 Q97.5428 880.628 93.9086 880.628 M93.9086 876.925 Q99.7187 876.925 102.774 881.531 Q105.853 886.114 105.853 894.864 Q105.853 903.591 102.774 908.198 Q99.7187 912.781 93.9086 912.781 Q88.0984 912.781 85.0197 908.198 Q81.9642 903.591 81.9642 894.864 Q81.9642 886.114 85.0197 881.531 Q88.0984 876.925 93.9086 876.925 Z" fill="#000000" fill-rule="evenodd" fill-opacity="1" /><path clip-path="url(#clip590)" d="M124.07 880.628 Q120.459 880.628 118.631 884.193 Q116.825 887.735 116.825 894.864 Q116.825 901.971 118.631 905.536 Q120.459 909.077 124.07 909.077 Q127.705 909.077 129.51 905.536 Q131.339 901.971 131.339 894.864 Q131.339 887.735 129.51 884.193 Q127.705 880.628 124.07 880.628 M124.07 876.925 Q129.881 876.925 132.936 881.531 Q136.015 886.114 136.015 894.864 Q136.015 903.591 132.936 908.198 Q129.881 912.781 124.07 912.781 Q118.26 912.781 115.182 908.198 Q112.126 903.591 112.126 894.864 Q112.126 886.114 115.182 881.531 Q118.26 876.925 124.07 876.925 Z" fill="#000000" fill-rule="evenodd" fill-opacity="1" /><path clip-path="url(#clip590)" d="M64.3254 616.444 Q61.1773 616.444 59.3254 618.597 Q57.4967 620.75 57.4967 624.5 Q57.4967 628.227 59.3254 630.403 Q61.1773 632.555 64.3254 632.555 Q67.4735 632.555 69.3022 630.403 Q71.1541 628.227 71.1541 624.5 Q71.1541 620.75 69.3022 618.597 Q67.4735 616.444 64.3254 616.444 M73.6077 601.792 L73.6077 606.051 Q71.8485 605.218 70.0429 604.778 Q68.2606 604.338 66.5013 604.338 Q61.8717 604.338 59.418 607.463 Q56.9875 610.588 56.6402 616.907 Q58.006 614.893 60.0662 613.829 Q62.1263 612.741 64.6032 612.741 Q69.8115 612.741 72.8207 615.912 Q75.8531 619.06 75.8531 624.5 Q75.8531 629.824 72.705 633.042 Q69.5568 636.259 64.3254 636.259 Q58.33 636.259 55.1588 631.676 Q51.9875 627.069 51.9875 618.343 Q51.9875 610.148 55.8764 605.287 Q59.7652 600.403 66.3161 600.403 Q68.0754 600.403 69.8578 600.75 Q71.6633 601.097 73.6077 601.792 Z" fill="#000000" fill-rule="evenodd" fill-opacity="1" /><path clip-path="url(#clip590)" d="M93.9086 604.107 Q90.2975 604.107 88.4688 607.671 Q86.6632 611.213 86.6632 618.343 Q86.6632 625.449 88.4688 629.014 Q90.2975 632.555 93.9086 632.555 Q97.5428 632.555 99.3483 629.014 Q101.177 625.449 101.177 618.343 Q101.177 611.213 99.3483 607.671 Q97.5428 604.107 93.9086 604.107 M93.9086 600.403 Q99.7187 600.403 102.774 605.009 Q105.853 609.593 105.853 618.343 Q105.853 627.069 102.774 631.676 Q99.7187 636.259 93.9086 636.259 Q88.0984 636.259 85.0197 631.676 Q81.9642 627.069 81.9642 618.343 Q81.9642 609.593 85.0197 605.009 Q88.0984 600.403 93.9086 600.403 Z" fill="#000000" fill-rule="evenodd" fill-opacity="1" /><path clip-path="url(#clip590)" d="M124.07 604.107 Q120.459 604.107 118.631 607.671 Q116.825 611.213 116.825 618.343 Q116.825 625.449 118.631 629.014 Q120.459 632.555 124.07 632.555 Q127.705 632.555 129.51 629.014 Q131.339 625.449 131.339 618.343 Q131.339 611.213 129.51 607.671 Q127.705 604.107 124.07 604.107 M124.07 600.403 Q129.881 600.403 132.936 605.009 Q136.015 609.593 136.015 618.343 Q136.015 627.069 132.936 631.676 Q129.881 636.259 124.07 636.259 Q118.26 636.259 115.182 631.676 Q112.126 627.069 112.126 618.343 Q112.126 609.593 115.182 605.009 Q118.26 600.403 124.07 600.403 Z" fill="#000000" fill-rule="evenodd" fill-opacity="1" /><path clip-path="url(#clip590)" d="M63.7467 342.654 Q60.4134 342.654 58.4921 344.437 Q56.5939 346.219 56.5939 349.344 Q56.5939 352.469 58.4921 354.251 Q60.4134 356.034 63.7467 356.034 Q67.08 356.034 69.0013 354.251 Q70.9226 352.446 70.9226 349.344 Q70.9226 346.219 69.0013 344.437 Q67.1032 342.654 63.7467 342.654 M59.0708 340.663 Q56.0615 339.923 54.3717 337.862 Q52.7051 335.802 52.7051 332.839 Q52.7051 328.696 55.6449 326.288 Q58.6078 323.881 63.7467 323.881 Q68.9087 323.881 71.8485 326.288 Q74.7883 328.696 74.7883 332.839 Q74.7883 335.802 73.0985 337.862 Q71.4318 339.923 68.4457 340.663 Q71.8253 341.45 73.7003 343.742 Q75.5985 346.034 75.5985 349.344 Q75.5985 354.367 72.5198 357.052 Q69.4642 359.737 63.7467 359.737 Q58.0291 359.737 54.9504 357.052 Q51.8949 354.367 51.8949 349.344 Q51.8949 346.034 53.793 343.742 Q55.6912 341.45 59.0708 340.663 M57.3578 333.279 Q57.3578 335.964 59.0245 337.469 Q60.7143 338.974 63.7467 338.974 Q66.7559 338.974 68.4457 337.469 Q70.1587 335.964 70.1587 333.279 Q70.1587 330.594 68.4457 329.089 Q66.7559 327.585 63.7467 327.585 Q60.7143 327.585 59.0245 329.089 Q57.3578 330.594 57.3578 333.279 Z" fill="#000000" fill-rule="evenodd" fill-opacity="1" /><path clip-path="url(#clip590)" d="M93.9086 327.585 Q90.2975 327.585 88.4688 331.15 Q86.6632 334.691 86.6632 341.821 Q86.6632 348.927 88.4688 352.492 Q90.2975 356.034 93.9086 356.034 Q97.5428 356.034 99.3483 352.492 Q101.177 348.927 101.177 341.821 Q101.177 334.691 99.3483 331.15 Q97.5428 327.585 93.9086 327.585 M93.9086 323.881 Q99.7187 323.881 102.774 328.488 Q105.853 333.071 105.853 341.821 Q105.853 350.548 102.774 355.154 Q99.7187 359.737 93.9086 359.737 Q88.0984 359.737 85.0197 355.154 Q81.9642 350.548 81.9642 341.821 Q81.9642 333.071 85.0197 328.488 Q88.0984 323.881 93.9086 323.881 Z" fill="#000000" fill-rule="evenodd" fill-opacity="1" /><path clip-path="url(#clip590)" d="M124.07 327.585 Q120.459 327.585 118.631 331.15 Q116.825 334.691 116.825 341.821 Q116.825 348.927 118.631 352.492 Q120.459 356.034 124.07 356.034 Q127.705 356.034 129.51 352.492 Q131.339 348.927 131.339 341.821 Q131.339 334.691 129.51 331.15 Q127.705 327.585 124.07 327.585 M124.07 323.881 Q129.881 323.881 132.936 328.488 Q136.015 333.071 136.015 341.821 Q136.015 350.548 132.936 355.154 Q129.881 359.737 124.07 359.737 Q118.26 359.737 115.182 355.154 Q112.126 350.548 112.126 341.821 Q112.126 333.071 115.182 328.488 Q118.26 323.881 124.07 323.881 Z" fill="#000000" fill-rule="evenodd" fill-opacity="1" /><path clip-path="url(#clip590)" d="M631.092 18.8205 L631.092 65.8515 L640.977 65.8515 Q653.494 65.8515 659.287 60.1802 Q665.12 54.509 665.12 42.2752 Q665.12 30.1225 659.287 24.4918 Q653.494 18.8205 640.977 18.8205 L631.092 18.8205 M622.91 12.096 L639.721 12.096 Q657.302 12.096 665.525 19.4281 Q673.748 26.7198 673.748 42.2752 Q673.748 57.9117 665.485 65.2439 Q657.221 72.576 639.721 72.576 L622.91 72.576 L622.91 12.096 Z" fill="#000000" fill-rule="evenodd" fill-opacity="1" /><path clip-path="url(#clip590)" d="M707.087 49.7694 Q698.054 49.7694 694.57 51.8354 Q691.086 53.9013 691.086 58.8839 Q691.086 62.8538 693.679 65.2034 Q696.312 67.5124 700.809 67.5124 Q707.006 67.5124 710.733 63.1374 Q714.501 58.7219 714.501 51.4303 L714.501 49.7694 L707.087 49.7694 M721.954 46.6907 L721.954 72.576 L714.501 72.576 L714.501 65.6895 Q711.948 69.8214 708.141 71.8063 Q704.333 73.7508 698.824 73.7508 Q691.856 73.7508 687.724 69.8619 Q683.633 65.9325 683.633 59.3701 Q683.633 51.7138 688.737 47.825 Q693.881 43.9361 704.049 43.9361 L714.501 43.9361 L714.501 43.2069 Q714.501 38.0623 711.098 35.2672 Q707.736 32.4315 701.619 32.4315 Q697.73 32.4315 694.044 33.3632 Q690.357 34.295 686.954 36.1584 L686.954 29.2718 Q691.046 27.692 694.894 26.9223 Q698.743 26.1121 702.388 26.1121 Q712.232 26.1121 717.093 31.2163 Q721.954 36.3204 721.954 46.6907 Z" fill="#000000" fill-rule="evenodd" fill-opacity="1" /><path clip-path="url(#clip590)" d="M744.68 14.324 L744.68 27.2059 L760.033 27.2059 L760.033 32.9987 L744.68 32.9987 L744.68 57.6282 Q744.68 63.1779 746.179 64.7578 Q747.718 66.3376 752.377 66.3376 L760.033 66.3376 L760.033 72.576 L752.377 72.576 Q743.748 72.576 740.467 69.3758 Q737.186 66.1351 737.186 57.6282 L737.186 32.9987 L731.717 32.9987 L731.717 27.2059 L737.186 27.2059 L737.186 14.324 L744.68 14.324 Z" fill="#000000" fill-rule="evenodd" fill-opacity="1" /><path clip-path="url(#clip590)" d="M790.455 49.7694 Q781.422 49.7694 777.938 51.8354 Q774.454 53.9013 774.454 58.8839 Q774.454 62.8538 777.047 65.2034 Q779.68 67.5124 784.176 67.5124 Q790.374 67.5124 794.101 63.1374 Q797.868 58.7219 797.868 51.4303 L797.868 49.7694 L790.455 49.7694 M805.322 46.6907 L805.322 72.576 L797.868 72.576 L797.868 65.6895 Q795.316 69.8214 791.508 71.8063 Q787.7 73.7508 782.191 73.7508 Q775.224 73.7508 771.092 69.8619 Q767 65.9325 767 59.3701 Q767 51.7138 772.104 47.825 Q777.249 43.9361 787.417 43.9361 L797.868 43.9361 L797.868 43.2069 Q797.868 38.0623 794.465 35.2672 Q791.103 32.4315 784.986 32.4315 Q781.097 32.4315 777.411 33.3632 Q773.725 34.295 770.322 36.1584 L770.322 29.2718 Q774.413 27.692 778.262 26.9223 Q782.11 26.1121 785.756 26.1121 Q795.6 26.1121 800.461 31.2163 Q805.322 36.3204 805.322 46.6907 Z" fill="#000000" fill-rule="evenodd" fill-opacity="1" /><path clip-path="url(#clip590)" d="M867.665 49.7694 Q858.632 49.7694 855.148 51.8354 Q851.664 53.9013 851.664 58.8839 Q851.664 62.8538 854.257 65.2034 Q856.89 67.5124 861.386 67.5124 Q867.584 67.5124 871.311 63.1374 Q875.078 58.7219 875.078 51.4303 L875.078 49.7694 L867.665 49.7694 M882.532 46.6907 L882.532 72.576 L875.078 72.576 L875.078 65.6895 Q872.526 69.8214 868.718 71.8063 Q864.911 73.7508 859.401 73.7508 Q852.434 73.7508 848.302 69.8619 Q844.211 65.9325 844.211 59.3701 Q844.211 51.7138 849.315 47.825 Q854.459 43.9361 864.627 43.9361 L875.078 43.9361 L875.078 43.2069 Q875.078 38.0623 871.676 35.2672 Q868.313 32.4315 862.197 32.4315 Q858.308 32.4315 854.621 33.3632 Q850.935 34.295 847.532 36.1584 L847.532 29.2718 Q851.624 27.692 855.472 26.9223 Q859.32 26.1121 862.966 26.1121 Q872.81 26.1121 877.671 31.2163 Q882.532 36.3204 882.532 46.6907 Z" fill="#000000" fill-rule="evenodd" fill-opacity="1" /><path clip-path="url(#clip590)" d="M935.599 45.1919 L935.599 72.576 L928.145 72.576 L928.145 45.4349 Q928.145 38.994 925.634 35.7938 Q923.122 32.5936 918.099 32.5936 Q912.063 32.5936 908.579 36.4419 Q905.096 40.2903 905.096 46.9338 L905.096 72.576 L897.601 72.576 L897.601 27.2059 L905.096 27.2059 L905.096 34.2544 Q907.769 30.163 911.375 28.1376 Q915.02 26.1121 919.76 26.1121 Q927.578 26.1121 931.589 30.9732 Q935.599 35.7938 935.599 45.1919 Z" fill="#000000" fill-rule="evenodd" fill-opacity="1" /><path clip-path="url(#clip590)" d="M980.321 34.0924 L980.321 9.54393 L987.775 9.54393 L987.775 72.576 L980.321 72.576 L980.321 65.7705 Q977.971 69.8214 974.366 71.8063 Q970.801 73.7508 965.778 73.7508 Q957.555 73.7508 952.37 67.1883 Q947.225 60.6258 947.225 49.9314 Q947.225 39.2371 952.37 32.6746 Q957.555 26.1121 965.778 26.1121 Q970.801 26.1121 974.366 28.0971 Q977.971 30.0415 980.321 34.0924 M954.922 49.9314 Q954.922 58.1548 958.284 62.8538 Q961.687 67.5124 967.601 67.5124 Q973.515 67.5124 976.918 62.8538 Q980.321 58.1548 980.321 49.9314 Q980.321 41.7081 976.918 37.0496 Q973.515 32.3505 967.601 32.3505 Q961.687 32.3505 958.284 37.0496 Q954.922 41.7081 954.922 49.9314 Z" fill="#000000" fill-rule="evenodd" fill-opacity="1" /><path clip-path="url(#clip590)" d="M1021.44 12.096 L1072.6 12.096 L1072.6 18.9825 L1051.13 18.9825 L1051.13 72.576 L1042.91 72.576 L1042.91 18.9825 L1021.44 18.9825 L1021.44 12.096 Z" fill="#000000" fill-rule="evenodd" fill-opacity="1" /><path clip-path="url(#clip590)" d="M1094.27 34.1734 Q1093.02 33.4443 1091.52 33.1202 Q1090.06 32.7556 1088.28 32.7556 Q1081.96 32.7556 1078.56 36.8875 Q1075.19 40.9789 1075.19 48.6757 L1075.19 72.576 L1067.7 72.576 L1067.7 27.2059 L1075.19 27.2059 L1075.19 34.2544 Q1077.54 30.1225 1081.31 28.1376 Q1085.08 26.1121 1090.46 26.1121 Q1091.23 26.1121 1092.17 26.2337 Q1093.1 26.3147 1094.23 26.5172 L1094.27 34.1734 Z" fill="#000000" fill-rule="evenodd" fill-opacity="1" /><path clip-path="url(#clip590)" d="M1101.32 54.671 L1101.32 27.2059 L1108.78 27.2059 L1108.78 54.3874 Q1108.78 60.8284 1111.29 64.0691 Q1113.8 67.2693 1118.82 67.2693 Q1124.86 67.2693 1128.34 63.421 Q1131.87 59.5726 1131.87 52.9291 L1131.87 27.2059 L1139.32 27.2059 L1139.32 72.576 L1131.87 72.576 L1131.87 65.6084 Q1129.15 69.7404 1125.55 71.7658 Q1121.98 73.7508 1117.24 73.7508 Q1109.42 73.7508 1105.37 68.8897 Q1101.32 64.0286 1101.32 54.671 M1120.08 26.1121 L1120.08 26.1121 Z" fill="#000000" fill-rule="evenodd" fill-opacity="1" /><path clip-path="url(#clip590)" d="M1193.48 48.0275 L1193.48 51.6733 L1159.21 51.6733 Q1159.69 59.3701 1163.83 63.421 Q1168 67.4314 1175.41 67.4314 Q1179.71 67.4314 1183.72 66.3781 Q1187.77 65.3249 1191.74 63.2184 L1191.74 70.267 Q1187.73 71.9684 1183.51 72.8596 Q1179.3 73.7508 1174.97 73.7508 Q1164.11 73.7508 1157.75 67.4314 Q1151.43 61.1119 1151.43 50.3365 Q1151.43 39.1965 1157.43 32.6746 Q1163.46 26.1121 1173.67 26.1121 Q1182.83 26.1121 1188.13 32.0264 Q1193.48 37.9003 1193.48 48.0275 M1186.03 45.84 Q1185.94 39.7232 1182.58 36.0774 Q1179.26 32.4315 1173.75 32.4315 Q1167.51 32.4315 1163.75 35.9558 Q1160.02 39.4801 1159.45 45.8805 L1186.03 45.84 Z" fill="#000000" fill-rule="evenodd" fill-opacity="1" /><path clip-path="url(#clip590)" d="M1268.66 14.0809 L1268.66 22.0612 Q1264.01 19.8332 1259.87 18.7395 Q1255.74 17.6457 1251.89 17.6457 Q1245.21 17.6457 1241.56 20.2383 Q1237.96 22.8309 1237.96 27.611 Q1237.96 31.6214 1240.35 33.6873 Q1242.78 35.7128 1249.5 36.9686 L1254.45 37.9813 Q1263.6 39.7232 1267.94 44.1387 Q1272.31 48.5136 1272.31 55.8863 Q1272.31 64.6767 1266.4 69.2137 Q1260.52 73.7508 1249.14 73.7508 Q1244.84 73.7508 1239.98 72.7785 Q1235.16 71.8063 1229.98 69.9024 L1229.98 61.4765 Q1234.96 64.2716 1239.74 65.6895 Q1244.52 67.1073 1249.14 67.1073 Q1256.15 67.1073 1259.95 64.3527 Q1263.76 61.598 1263.76 56.4939 Q1263.76 52.0379 1261.01 49.5264 Q1258.29 47.0148 1252.06 45.759 L1247.07 44.7868 Q1237.92 42.9639 1233.83 39.075 Q1229.74 35.1862 1229.74 28.2591 Q1229.74 20.2383 1235.37 15.6203 Q1241.04 11.0023 1250.96 11.0023 Q1255.22 11.0023 1259.63 11.7719 Q1264.05 12.5416 1268.66 14.0809 Z" fill="#000000" fill-rule="evenodd" fill-opacity="1" /><path clip-path="url(#clip590)" d="M1292.12 14.324 L1292.12 27.2059 L1307.47 27.2059 L1307.47 32.9987 L1292.12 32.9987 L1292.12 57.6282 Q1292.12 63.1779 1293.62 64.7578 Q1295.16 66.3376 1299.82 66.3376 L1307.47 66.3376 L1307.47 72.576 L1299.82 72.576 Q1291.19 72.576 1287.91 69.3758 Q1284.62 66.1351 1284.62 57.6282 L1284.62 32.9987 L1279.16 32.9987 L1279.16 27.2059 L1284.62 27.2059 L1284.62 14.324 L1292.12 14.324 Z" fill="#000000" fill-rule="evenodd" fill-opacity="1" /><path clip-path="url(#clip590)" d="M1337.89 49.7694 Q1328.86 49.7694 1325.38 51.8354 Q1321.89 53.9013 1321.89 58.8839 Q1321.89 62.8538 1324.49 65.2034 Q1327.12 67.5124 1331.62 67.5124 Q1337.81 67.5124 1341.54 63.1374 Q1345.31 58.7219 1345.31 51.4303 L1345.31 49.7694 L1337.89 49.7694 M1352.76 46.6907 L1352.76 72.576 L1345.31 72.576 L1345.31 65.6895 Q1342.76 69.8214 1338.95 71.8063 Q1335.14 73.7508 1329.63 73.7508 Q1322.66 73.7508 1318.53 69.8619 Q1314.44 65.9325 1314.44 59.3701 Q1314.44 51.7138 1319.54 47.825 Q1324.69 43.9361 1334.86 43.9361 L1345.31 43.9361 L1345.31 43.2069 Q1345.31 38.0623 1341.9 35.2672 Q1338.54 32.4315 1332.43 32.4315 Q1328.54 32.4315 1324.85 33.3632 Q1321.16 34.295 1317.76 36.1584 L1317.76 29.2718 Q1321.85 27.692 1325.7 26.9223 Q1329.55 26.1121 1333.2 26.1121 Q1343.04 26.1121 1347.9 31.2163 Q1352.76 36.3204 1352.76 46.6907 Z" fill="#000000" fill-rule="evenodd" fill-opacity="1" /><path clip-path="url(#clip590)" d="M1375.49 14.324 L1375.49 27.2059 L1390.84 27.2059 L1390.84 32.9987 L1375.49 32.9987 L1375.49 57.6282 Q1375.49 63.1779 1376.99 64.7578 Q1378.52 66.3376 1383.18 66.3376 L1390.84 66.3376 L1390.84 72.576 L1383.18 72.576 Q1374.55 72.576 1371.27 69.3758 Q1367.99 66.1351 1367.99 57.6282 L1367.99 32.9987 L1362.52 32.9987 L1362.52 27.2059 L1367.99 27.2059 L1367.99 14.324 L1375.49 14.324 Z" fill="#000000" fill-rule="evenodd" fill-opacity="1" /><path clip-path="url(#clip590)" d="M1400.64 27.2059 L1408.1 27.2059 L1408.1 72.576 L1400.64 72.576 L1400.64 27.2059 M1400.64 9.54393 L1408.1 9.54393 L1408.1 18.9825 L1400.64 18.9825 L1400.64 9.54393 Z" fill="#000000" fill-rule="evenodd" fill-opacity="1" /><path clip-path="url(#clip590)" d="M1452.62 28.5427 L1452.62 35.5912 Q1449.46 33.9709 1446.05 33.1607 Q1442.65 32.3505 1439 32.3505 Q1433.46 32.3505 1430.66 34.0519 Q1427.91 35.7533 1427.91 39.156 Q1427.91 41.7486 1429.89 43.2475 Q1431.88 44.7058 1437.87 46.0426 L1440.42 46.6097 Q1448.36 48.3111 1451.68 51.4303 Q1455.05 54.509 1455.05 60.0587 Q1455.05 66.3781 1450.02 70.0644 Q1445.04 73.7508 1436.29 73.7508 Q1432.64 73.7508 1428.67 73.0216 Q1424.75 72.3329 1420.37 70.9151 L1420.37 63.2184 Q1424.5 65.3654 1428.51 66.4591 Q1432.52 67.5124 1436.45 67.5124 Q1441.72 67.5124 1444.55 65.73 Q1447.39 63.9071 1447.39 60.6258 Q1447.39 57.5877 1445.32 55.9673 Q1443.3 54.3469 1436.37 52.8481 L1433.78 52.2405 Q1426.85 50.7821 1423.77 47.7845 Q1420.69 44.7463 1420.69 39.4801 Q1420.69 33.0797 1425.23 29.5959 Q1429.77 26.1121 1438.11 26.1121 Q1442.25 26.1121 1445.89 26.7198 Q1449.54 27.3274 1452.62 28.5427 Z" fill="#000000" fill-rule="evenodd" fill-opacity="1" /><path clip-path="url(#clip590)" d="M1474.29 14.324 L1474.29 27.2059 L1489.64 27.2059 L1489.64 32.9987 L1474.29 32.9987 L1474.29 57.6282 Q1474.29 63.1779 1475.79 64.7578 Q1477.33 66.3376 1481.98 66.3376 L1489.64 66.3376 L1489.64 72.576 L1481.98 72.576 Q1473.36 72.576 1470.08 69.3758 Q1466.79 66.1351 1466.79 57.6282 L1466.79 32.9987 L1461.33 32.9987 L1461.33 27.2059 L1466.79 27.2059 L1466.79 14.324 L1474.29 14.324 Z" fill="#000000" fill-rule="evenodd" fill-opacity="1" /><path clip-path="url(#clip590)" d="M1499.44 27.2059 L1506.9 27.2059 L1506.9 72.576 L1499.44 72.576 L1499.44 27.2059 M1499.44 9.54393 L1506.9 9.54393 L1506.9 18.9825 L1499.44 18.9825 L1499.44 9.54393 Z" fill="#000000" fill-rule="evenodd" fill-opacity="1" /><path clip-path="url(#clip590)" d="M1555.14 28.9478 L1555.14 35.9153 Q1551.98 34.1734 1548.78 33.3227 Q1545.62 32.4315 1542.38 32.4315 Q1535.13 32.4315 1531.12 37.0496 Q1527.11 41.6271 1527.11 49.9314 Q1527.11 58.2358 1531.12 62.8538 Q1535.13 67.4314 1542.38 67.4314 Q1545.62 67.4314 1548.78 66.5807 Q1551.98 65.6895 1555.14 63.9476 L1555.14 70.8341 Q1552.03 72.2924 1548.66 73.0216 Q1545.34 73.7508 1541.57 73.7508 Q1531.32 73.7508 1525.29 67.3098 Q1519.25 60.8689 1519.25 49.9314 Q1519.25 38.832 1525.33 32.472 Q1531.45 26.1121 1542.06 26.1121 Q1545.5 26.1121 1548.78 26.8413 Q1552.07 27.5299 1555.14 28.9478 Z" fill="#000000" fill-rule="evenodd" fill-opacity="1" /><path clip-path="url(#clip590)" d="M1588.73 49.7694 Q1579.69 49.7694 1576.21 51.8354 Q1572.73 53.9013 1572.73 58.8839 Q1572.73 62.8538 1575.32 65.2034 Q1577.95 67.5124 1582.45 67.5124 Q1588.65 67.5124 1592.37 63.1374 Q1596.14 58.7219 1596.14 51.4303 L1596.14 49.7694 L1588.73 49.7694 M1603.59 46.6907 L1603.59 72.576 L1596.14 72.576 L1596.14 65.6895 Q1593.59 69.8214 1589.78 71.8063 Q1585.97 73.7508 1580.46 73.7508 Q1573.49 73.7508 1569.36 69.8619 Q1565.27 65.9325 1565.27 59.3701 Q1565.27 51.7138 1570.38 47.825 Q1575.52 43.9361 1585.69 43.9361 L1596.14 43.9361 L1596.14 43.2069 Q1596.14 38.0623 1592.74 35.2672 Q1589.37 32.4315 1583.26 32.4315 Q1579.37 32.4315 1575.68 33.3632 Q1572 34.295 1568.59 36.1584 L1568.59 29.2718 Q1572.68 27.692 1576.53 26.9223 Q1580.38 26.1121 1584.03 26.1121 Q1593.87 26.1121 1598.73 31.2163 Q1603.59 36.3204 1603.59 46.6907 Z" fill="#000000" fill-rule="evenodd" fill-opacity="1" /><path clip-path="url(#clip590)" d="M1618.95 9.54393 L1626.4 9.54393 L1626.4 72.576 L1618.95 72.576 L1618.95 9.54393 Z" fill="#000000" fill-rule="evenodd" fill-opacity="1" /><path clip-path="url(#clip590)" d="M1668.69 12.096 L1680.88 12.096 L1696.32 53.2532 L1711.83 12.096 L1724.03 12.096 L1724.03 72.576 L1716.05 72.576 L1716.05 19.4686 L1700.45 60.9499 L1692.23 60.9499 L1676.63 19.4686 L1676.63 72.576 L1668.69 72.576 L1668.69 12.096 Z" fill="#000000" fill-rule="evenodd" fill-opacity="1" /><path clip-path="url(#clip590)" d="M1757.53 32.4315 Q1751.53 32.4315 1748.05 37.1306 Q1744.56 41.7891 1744.56 49.9314 Q1744.56 58.0738 1748.01 62.7728 Q1751.49 67.4314 1757.53 67.4314 Q1763.48 67.4314 1766.97 62.7323 Q1770.45 58.0333 1770.45 49.9314 Q1770.45 41.8701 1766.97 37.1711 Q1763.48 32.4315 1757.53 32.4315 M1757.53 26.1121 Q1767.25 26.1121 1772.8 32.4315 Q1778.35 38.7509 1778.35 49.9314 Q1778.35 61.0714 1772.8 67.4314 Q1767.25 73.7508 1757.53 73.7508 Q1747.76 73.7508 1742.21 67.4314 Q1736.71 61.0714 1736.71 49.9314 Q1736.71 38.7509 1742.21 32.4315 Q1747.76 26.1121 1757.53 26.1121 Z" fill="#000000" fill-rule="evenodd" fill-opacity="1" /><path clip-path="url(#clip590)" d="M1820.56 34.0924 L1820.56 9.54393 L1828.01 9.54393 L1828.01 72.576 L1820.56 72.576 L1820.56 65.7705 Q1818.21 69.8214 1814.6 71.8063 Q1811.04 73.7508 1806.02 73.7508 Q1797.79 73.7508 1792.61 67.1883 Q1787.46 60.6258 1787.46 49.9314 Q1787.46 39.2371 1792.61 32.6746 Q1797.79 26.1121 1806.02 26.1121 Q1811.04 26.1121 1814.6 28.0971 Q1818.21 30.0415 1820.56 34.0924 M1795.16 49.9314 Q1795.16 58.1548 1798.52 62.8538 Q1801.93 67.5124 1807.84 67.5124 Q1813.75 67.5124 1817.16 62.8538 Q1820.56 58.1548 1820.56 49.9314 Q1820.56 41.7081 1817.16 37.0496 Q1813.75 32.3505 1807.84 32.3505 Q1801.93 32.3505 1798.52 37.0496 Q1795.16 41.7081 1795.16 49.9314 Z" fill="#000000" fill-rule="evenodd" fill-opacity="1" /><path clip-path="url(#clip590)" d="M1882.17 48.0275 L1882.17 51.6733 L1847.9 51.6733 Q1848.39 59.3701 1852.52 63.421 Q1856.69 67.4314 1864.11 67.4314 Q1868.4 67.4314 1872.41 66.3781 Q1876.46 65.3249 1880.43 63.2184 L1880.43 70.267 Q1876.42 71.9684 1872.21 72.8596 Q1868 73.7508 1863.66 73.7508 Q1852.8 73.7508 1846.44 67.4314 Q1840.13 61.1119 1840.13 50.3365 Q1840.13 39.1965 1846.12 32.6746 Q1852.16 26.1121 1862.36 26.1121 Q1871.52 26.1121 1876.83 32.0264 Q1882.17 37.9003 1882.17 48.0275 M1874.72 45.84 Q1874.64 39.7232 1871.28 36.0774 Q1867.96 32.4315 1862.45 32.4315 Q1856.21 32.4315 1852.44 35.9558 Q1848.71 39.4801 1848.15 45.8805 L1874.72 45.84 Z" fill="#000000" fill-rule="evenodd" fill-opacity="1" /><path clip-path="url(#clip590)" d="M1894.41 9.54393 L1901.86 9.54393 L1901.86 72.576 L1894.41 72.576 L1894.41 9.54393 Z" fill="#000000" fill-rule="evenodd" fill-opacity="1" /><polyline clip-path="url(#clip592)" style="stroke:#009af9; stroke-linecap:butt; stroke-linejoin:round; stroke-width:4; stroke-opacity:1; fill:none" points="
  748.06,1447.87 748.06,1378.74 773.776,1378.74 773.776,1392.57 799.492,1392.57 799.492,1323.44 825.208,1323.44 825.208,1171.35 850.925,1171.35 850.925,1143.7 
  876.641,1143.7 876.641,1157.53 902.357,1157.53 902.357,1060.74 928.074,1060.74 928.074,1033.09 953.79,1033.09 953.79,1074.57 979.506,1074.57 979.506,867.177 
  1005.22,867.177 1005.22,839.525 1030.94,839.525 1030.94,853.351 1056.66,853.351 1056.66,936.308 1082.37,936.308 1082.37,1060.74 1108.09,1060.74 1108.09,1046.92 
  1133.8,1046.92 1133.8,1171.35 1159.52,1171.35 1159.52,1116.05 1185.24,1116.05 1185.24,1254.31 1210.95,1254.31 1210.95,1240.48 1236.67,1240.48 1236.67,1212.83 
  1262.39,1212.83 1262.39,1364.92 1288.1,1364.92 1288.1,1434.05 1313.82,1434.05 1313.82,1420.22 1339.53,1420.22 1339.53,1447.87 1365.25,1447.87 1365.25,1406.39 
  1390.97,1406.39 1390.97,1434.05 1416.68,1434.05 1416.68,1406.39 1442.4,1406.39 1442.4,1420.22 1468.12,1420.22 1468.12,1351.09 1493.83,1351.09 1493.83,1337.26 
  1519.55,1337.26 1519.55,1309.61 1545.26,1309.61 1545.26,1240.48 1570.98,1240.48 1570.98,1171.35 1596.7,1171.35 1596.7,894.83 1622.41,894.83 1622.41,742.743 
  1648.13,742.743 1648.13,867.177 1673.85,867.177 1673.85,383.264 1699.56,383.264 1699.56,673.612 1725.28,673.612 1725.28,327.96 1750.99,327.96 1750.99,300.308 
  1776.71,300.308 1776.71,563.003 1802.43,563.003 1802.43,162.047 1828.14,162.047 1828.14,341.786 1853.86,341.786 1853.86,632.134 1879.58,632.134 1879.58,659.786 
  1905.29,659.786 1905.29,798.047 1931.01,798.047 1931.01,1033.09 1956.73,1033.09 1956.73,1171.35 1982.44,1171.35 1982.44,1226.66 2008.16,1226.66 2008.16,1199 
  2033.87,1199 2033.87,1351.09 2059.59,1351.09 2059.59,1364.92 2085.31,1364.92 2085.31,1420.22 2111.02,1420.22 2111.02,1434.05 2136.74,1434.05 2136.74,1447.87 
  2162.46,1447.87 2188.17,1447.87 2213.89,1447.87 2213.89,1434.05 2239.6,1434.05 2239.6,1447.87 2265.32,1447.87 
  2291.04,1447.87 
  "/>
<polyline clip-path="url(#clip592)" style="stroke:#e26f46; stroke-linecap:butt; stroke-linejoin:round; stroke-width:4; stroke-opacity:1; fill:none" points="
  233.734,1447.87 236.306,1447.87 238.877,1447.87 241.449,1447.87 244.02,1447.87 246.592,1447.87 249.164,1447.87 251.735,1447.87 254.307,1447.87 256.879,1447.87 
  259.45,1447.87 262.022,1447.87 264.593,1447.87 267.165,1447.87 269.737,1447.87 272.308,1447.87 274.88,1447.87 277.452,1447.87 280.023,1447.87 282.595,1447.87 
  285.166,1447.87 287.738,1447.87 290.31,1447.87 292.881,1447.87 295.453,1447.87 298.025,1447.87 300.596,1447.87 303.168,1447.87 305.74,1447.87 308.311,1447.87 
  310.883,1447.87 313.454,1447.87 316.026,1447.87 318.598,1447.87 321.169,1447.87 323.741,1447.87 326.313,1447.87 328.884,1447.87 331.456,1447.87 334.027,1447.87 
  336.599,1447.87 339.171,1447.87 341.742,1447.87 344.314,1447.87 346.886,1447.87 349.457,1447.87 352.029,1447.87 354.6,1447.87 357.172,1447.87 359.744,1447.87 
  362.315,1447.87 364.887,1447.87 367.459,1447.87 370.03,1447.87 372.602,1447.87 375.173,1447.87 377.745,1447.87 380.317,1447.87 382.888,1447.87 385.46,1447.87 
  388.032,1447.87 390.603,1447.87 393.175,1447.87 395.747,1447.87 398.318,1447.87 400.89,1447.86 403.461,1447.86 406.033,1447.86 408.605,1447.86 411.176,1447.86 
  413.748,1447.86 416.32,1447.86 418.891,1447.86 421.463,1447.85 424.034,1447.85 426.606,1447.85 429.178,1447.85 431.749,1447.85 434.321,1447.84 436.893,1447.84 
  439.464,1447.84 442.036,1447.84 444.607,1447.83 447.179,1447.83 449.751,1447.82 452.322,1447.82 454.894,1447.82 457.466,1447.81 460.037,1447.8 462.609,1447.8 
  465.18,1447.79 467.752,1447.78 470.324,1447.78 472.895,1447.77 475.467,1447.76 478.039,1447.75 480.61,1447.74 483.182,1447.73 485.754,1447.72 488.325,1447.7 
  490.897,1447.69 493.468,1447.67 496.04,1447.66 498.612,1447.64 501.183,1447.62 503.755,1447.6 506.327,1447.58 508.898,1447.55 511.47,1447.53 514.041,1447.5 
  516.613,1447.47 519.185,1447.44 521.756,1447.4 524.328,1447.37 526.9,1447.33 529.471,1447.29 532.043,1447.24 534.614,1447.19 537.186,1447.14 539.758,1447.09 
  542.329,1447.03 544.901,1446.96 547.473,1446.9 550.044,1446.82 552.616,1446.75 555.187,1446.67 557.759,1446.58 560.331,1446.49 562.902,1446.39 565.474,1446.28 
  568.046,1446.17 570.617,1446.05 573.189,1445.92 575.761,1445.79 578.332,1445.64 580.904,1445.49 583.475,1445.33 586.047,1445.16 588.619,1444.98 591.19,1444.78 
  593.762,1444.58 596.334,1444.36 598.905,1444.13 601.477,1443.89 604.048,1443.63 606.62,1443.36 609.192,1443.07 611.763,1442.76 614.335,1442.44 616.907,1442.1 
  619.478,1441.75 622.05,1441.37 624.621,1440.97 627.193,1440.55 629.765,1440.11 632.336,1439.64 634.908,1439.15 637.48,1438.64 640.051,1438.1 642.623,1437.53 
  645.194,1436.93 647.766,1436.3 650.338,1435.64 652.909,1434.95 655.481,1434.23 658.053,1433.47 660.624,1432.67 663.196,1431.83 665.768,1430.96 668.339,1430.05 
  670.911,1429.09 673.482,1428.09 676.054,1427.05 678.626,1425.96 681.197,1424.82 683.769,1423.64 686.341,1422.4 688.912,1421.11 691.484,1419.77 694.055,1418.37 
  696.627,1416.91 699.199,1415.39 701.77,1413.82 704.342,1412.18 706.914,1410.48 709.485,1408.71 712.057,1406.87 714.628,1404.97 717.2,1402.99 719.772,1400.95 
  722.343,1398.83 724.915,1396.63 727.487,1394.36 730.058,1392.01 732.63,1389.57 735.201,1387.06 737.773,1384.47 740.345,1381.78 742.916,1379.02 745.488,1376.17 
  748.06,1373.22 750.631,1370.19 753.203,1367.07 755.775,1363.86 758.346,1360.55 760.918,1357.15 763.489,1353.66 766.061,1350.07 768.633,1346.38 771.204,1342.6 
  773.776,1338.72 776.348,1334.74 778.919,1330.66 781.491,1326.49 784.062,1322.21 786.634,1317.84 789.206,1313.37 791.777,1308.8 794.349,1304.14 796.921,1299.37 
  799.492,1294.51 802.064,1289.56 804.635,1284.51 807.207,1279.36 809.779,1274.13 812.35,1268.8 814.922,1263.38 817.494,1257.88 820.065,1252.29 822.637,1246.61 
  825.208,1240.86 827.78,1235.02 830.352,1229.11 832.923,1223.12 835.495,1217.06 838.067,1210.94 840.638,1204.74 843.21,1198.49 845.782,1192.18 848.353,1185.81 
  850.925,1179.39 853.496,1172.92 856.068,1166.41 858.64,1159.86 861.211,1153.28 863.783,1146.67 866.355,1140.03 868.926,1133.37 871.498,1126.7 874.069,1120.01 
  876.641,1113.32 879.213,1106.63 881.784,1099.95 884.356,1093.27 886.928,1086.62 889.499,1079.98 892.071,1073.37 894.642,1066.8 897.214,1060.27 899.786,1053.78 
  902.357,1047.34 904.929,1040.96 907.501,1034.65 910.072,1028.4 912.644,1022.24 915.215,1016.15 917.787,1010.15 920.359,1004.24 922.93,998.439 925.502,992.74 
  928.074,987.154 930.645,981.685 933.217,976.34 935.789,971.125 938.36,966.044 940.932,961.104 943.503,956.311 946.075,951.668 948.647,947.182 951.218,942.858 
  953.79,938.7 956.362,934.712 958.933,930.901 961.505,927.269 964.076,923.822 966.648,920.563 969.22,917.496 971.791,914.624 974.363,911.951 976.935,909.48 
  979.506,907.214 982.078,905.156 984.649,903.307 987.221,901.671 989.793,900.249 992.364,899.043 994.936,898.054 997.508,897.284 1000.08,896.733 1002.65,896.402 
  1005.22,896.292 1007.79,896.402 1010.37,896.733 1012.94,897.284 1015.51,898.054 1018.08,899.043 1020.65,900.249 1023.22,901.671 1025.8,903.307 1028.37,905.156 
  1030.94,907.214 1033.51,909.48 1036.08,911.951 1038.65,914.624 1041.23,917.496 1043.8,920.563 1046.37,923.822 1048.94,927.269 1051.51,930.901 1054.08,934.712 
  1056.66,938.699 1059.23,942.858 1061.8,947.182 1064.37,951.668 1066.94,956.31 1069.51,961.104 1072.08,966.044 1074.66,971.124 1077.23,976.34 1079.8,981.685 
  1082.37,987.153 1084.94,992.74 1087.51,998.439 1090.09,1004.24 1092.66,1010.15 1095.23,1016.15 1097.8,1022.23 1100.37,1028.4 1102.94,1034.65 1105.52,1040.96 
  1108.09,1047.34 1110.66,1053.78 1113.23,1060.27 1115.8,1066.8 1118.37,1073.37 1120.95,1079.98 1123.52,1086.61 1126.09,1093.27 1128.66,1099.94 1131.23,1106.63 
  1133.8,1113.32 1136.38,1120.01 1138.95,1126.69 1141.52,1133.37 1144.09,1140.02 1146.66,1146.66 1149.23,1153.27 1151.81,1159.86 1154.38,1166.4 1156.95,1172.91 
  1159.52,1179.38 1162.09,1185.8 1164.66,1192.16 1167.24,1198.48 1169.81,1204.73 1172.38,1210.92 1174.95,1217.05 1177.52,1223.1 1180.09,1229.09 1182.66,1235 
  1185.24,1240.83 1187.81,1246.58 1190.38,1252.26 1192.95,1257.84 1195.52,1263.34 1198.09,1268.76 1200.67,1274.08 1203.24,1279.31 1205.81,1284.45 1208.38,1289.49 
  1210.95,1294.44 1213.52,1299.3 1216.1,1304.05 1218.67,1308.71 1221.24,1313.27 1223.81,1317.73 1226.38,1322.1 1228.95,1326.36 1231.53,1330.52 1234.1,1334.59 
  1236.67,1338.55 1239.24,1342.42 1241.81,1346.19 1244.38,1349.86 1246.96,1353.43 1249.53,1356.91 1252.1,1360.28 1254.67,1363.57 1257.24,1366.76 1259.81,1369.85 
  1262.39,1372.85 1264.96,1375.77 1267.53,1378.59 1270.1,1381.32 1272.67,1383.96 1275.24,1386.51 1277.82,1388.98 1280.39,1391.36 1282.96,1393.66 1285.53,1395.88 
  1288.1,1398.02 1290.67,1400.08 1293.24,1402.05 1295.82,1403.96 1298.39,1405.78 1300.96,1407.53 1303.53,1409.21 1306.1,1410.82 1308.67,1412.35 1311.25,1413.82 
  1313.82,1415.22 1316.39,1416.55 1318.96,1417.81 1321.53,1419.01 1324.1,1420.15 1326.68,1421.23 1329.25,1422.24 1331.82,1423.19 1334.39,1424.08 1336.96,1424.91 
  1339.53,1425.69 1342.11,1426.4 1344.68,1427.06 1347.25,1427.66 1349.82,1428.21 1352.39,1428.7 1354.96,1429.14 1357.54,1429.52 1360.11,1429.85 1362.68,1430.12 
  1365.25,1430.34 1367.82,1430.5 1370.39,1430.61 1372.97,1430.66 1375.54,1430.66 1378.11,1430.61 1380.68,1430.5 1383.25,1430.33 1385.82,1430.11 1388.4,1429.83 
  1390.97,1429.49 1393.54,1429.09 1396.11,1428.64 1398.68,1428.12 1401.25,1427.54 1403.82,1426.9 1406.4,1426.19 1408.97,1425.42 1411.54,1424.58 1414.11,1423.67 
  1416.68,1422.69 1419.25,1421.64 1421.83,1420.51 1424.4,1419.31 1426.97,1418.03 1429.54,1416.68 1432.11,1415.24 1434.68,1413.71 1437.26,1412.1 1439.83,1410.4 
  1442.4,1408.61 1444.97,1406.72 1447.54,1404.74 1450.11,1402.66 1452.69,1400.48 1455.26,1398.2 1457.83,1395.8 1460.4,1393.3 1462.97,1390.68 1465.54,1387.95 
  1468.12,1385.1 1470.69,1382.13 1473.26,1379.03 1475.83,1375.8 1478.4,1372.45 1480.97,1368.96 1483.55,1365.33 1486.12,1361.56 1488.69,1357.64 1491.26,1353.58 
  1493.83,1349.37 1496.4,1345.01 1498.98,1340.49 1501.55,1335.82 1504.12,1330.98 1506.69,1325.97 1509.26,1320.8 1511.83,1315.46 1514.4,1309.95 1516.98,1304.26 
  1519.55,1298.39 1522.12,1292.34 1524.69,1286.11 1527.26,1279.7 1529.83,1273.1 1532.41,1266.31 1534.98,1259.33 1537.55,1252.16 1540.12,1244.79 1542.69,1237.23 
  1545.26,1229.48 1547.84,1221.53 1550.41,1213.38 1552.98,1205.03 1555.55,1196.49 1558.12,1187.75 1560.69,1178.82 1563.27,1169.69 1565.84,1160.36 1568.41,1150.83 
  1570.98,1141.12 1573.55,1131.21 1576.12,1121.11 1578.7,1110.83 1581.27,1100.36 1583.84,1089.71 1586.41,1078.88 1588.98,1067.87 1591.55,1056.69 1594.13,1045.34 
  1596.7,1033.83 1599.27,1022.16 1601.84,1010.34 1604.41,998.362 1606.98,986.246 1609.56,973.993 1612.13,961.609 1614.7,949.1 1617.27,936.475 1619.84,923.739 
  1622.41,910.901 1624.99,897.968 1627.56,884.949 1630.13,871.853 1632.7,858.687 1635.27,845.461 1637.84,832.185 1640.41,818.867 1642.99,805.519 1645.56,792.149 
  1648.13,778.769 1650.7,765.389 1653.27,752.02 1655.84,738.673 1658.42,725.358 1660.99,712.088 1663.56,698.874 1666.13,685.728 1668.7,672.661 1671.27,659.685 
  1673.85,646.812 1676.42,634.055 1678.99,621.425 1681.56,608.935 1684.13,596.597 1686.7,584.423 1689.28,572.424 1691.85,560.615 1694.42,549.005 1696.99,537.608 
  1699.56,526.434 1702.13,515.497 1704.71,504.807 1707.28,494.376 1709.85,484.215 1712.42,474.336 1714.99,464.748 1717.56,455.463 1720.14,446.491 1722.71,437.842 
  1725.28,429.526 1727.85,421.552 1730.42,413.929 1732.99,406.666 1735.57,399.771 1738.14,393.253 1740.71,387.118 1743.28,381.375 1745.85,376.029 1748.42,371.087 
  1750.99,366.555 1753.57,362.438 1756.14,358.741 1758.71,355.469 1761.28,352.625 1763.85,350.213 1766.42,348.235 1769,346.695 1771.57,345.593 1774.14,344.931 
  1776.71,344.711 1779.28,344.931 1781.85,345.593 1784.43,346.695 1787,348.235 1789.57,350.213 1792.14,352.625 1794.71,355.469 1797.28,358.741 1799.86,362.438 
  1802.43,366.555 1805,371.087 1807.57,376.029 1810.14,381.375 1812.71,387.118 1815.29,393.253 1817.86,399.771 1820.43,406.666 1823,413.929 1825.57,421.552 
  1828.14,429.526 1830.72,437.842 1833.29,446.491 1835.86,455.463 1838.43,464.748 1841,474.336 1843.57,484.215 1846.15,494.376 1848.72,504.807 1851.29,515.497 
  1853.86,526.435 1856.43,537.608 1859,549.005 1861.57,560.615 1864.15,572.425 1866.72,584.423 1869.29,596.597 1871.86,608.936 1874.43,621.426 1877,634.056 
  1879.58,646.813 1882.15,659.686 1884.72,672.661 1887.29,685.729 1889.86,698.875 1892.43,712.089 1895.01,725.36 1897.58,738.674 1900.15,752.022 1902.72,765.391 
  1905.29,778.771 1907.86,792.152 1910.44,805.521 1913.01,818.87 1915.58,832.188 1918.15,845.464 1920.72,858.691 1923.29,871.857 1925.87,884.954 1928.44,897.973 
  1931.01,910.906 1933.58,923.745 1936.15,936.481 1938.72,949.108 1941.3,961.617 1943.87,974.002 1946.44,986.256 1949.01,998.373 1951.58,1010.35 1954.15,1022.17 
  1956.73,1033.84 1959.3,1045.36 1961.87,1056.71 1964.44,1067.89 1967.01,1078.9 1969.58,1089.73 1972.15,1100.38 1974.73,1110.86 1977.3,1121.14 1979.87,1131.24 
  1982.44,1141.15 1985.01,1150.87 1987.58,1160.4 1990.16,1169.73 1992.73,1178.87 1995.3,1187.81 1997.87,1196.55 2000.44,1205.1 2003.01,1213.45 2005.59,1221.6 
  2008.16,1229.56 2010.73,1237.32 2013.3,1244.89 2015.87,1252.26 2018.44,1259.44 2021.02,1266.43 2023.59,1273.23 2026.16,1279.84 2028.73,1286.27 2031.3,1292.51 
  2033.87,1298.58 2036.45,1304.46 2039.02,1310.17 2041.59,1315.7 2044.16,1321.06 2046.73,1326.25 2049.3,1331.27 2051.88,1336.14 2054.45,1340.84 2057.02,1345.39 
  2059.59,1349.78 2062.16,1354.02 2064.73,1358.11 2067.31,1362.06 2069.88,1365.87 2072.45,1369.54 2075.02,1373.08 2077.59,1376.48 2080.16,1379.76 2082.73,1382.92 
  2085.31,1385.95 2087.88,1388.86 2090.45,1391.66 2093.02,1394.35 2095.59,1396.93 2098.16,1399.4 2100.74,1401.78 2103.31,1404.05 2105.88,1406.23 2108.45,1408.32 
  2111.02,1410.31 2113.59,1412.22 2116.17,1414.05 2118.74,1415.8 2121.31,1417.46 2123.88,1419.06 2126.45,1420.58 2129.02,1422.03 2131.6,1423.41 2134.17,1424.73 
  2136.74,1425.99 2139.31,1427.18 2141.88,1428.32 2144.45,1429.4 2147.03,1430.43 2149.6,1431.41 2152.17,1432.34 2154.74,1433.23 2157.31,1434.07 2159.88,1434.86 
  2162.46,1435.62 2165.03,1436.33 2167.6,1437.01 2170.17,1437.66 2172.74,1438.26 2175.31,1438.84 2177.89,1439.38 2180.46,1439.9 2183.03,1440.39 2185.6,1440.85 
  2188.17,1441.28 2190.74,1441.69 2193.31,1442.08 2195.89,1442.44 2198.46,1442.79 2201.03,1443.11 2203.6,1443.41 2206.17,1443.7 2208.74,1443.97 2211.32,1444.23 
  2213.89,1444.47 2216.46,1444.69 2219.03,1444.9 2221.6,1445.1 2224.17,1445.29 2226.75,1445.46 2229.32,1445.62 2231.89,1445.78 2234.46,1445.92 2237.03,1446.06 
  2239.6,1446.18 2242.18,1446.3 2244.75,1446.41 2247.32,1446.51 2249.89,1446.61 2252.46,1446.7 2255.03,1446.78 2257.61,1446.86 2260.18,1446.93 2262.75,1447 
  2265.32,1447.07 2267.89,1447.13 2270.46,1447.18 2273.04,1447.23 2275.61,1447.28 2278.18,1447.32 2280.75,1447.37 2283.32,1447.4 2285.89,1447.44 2288.47,1447.47 
  2291.04,1447.5 
  "/>
<path clip-path="url(#clip590)" d="
M1921.49 350.345 L2280.06 350.345 L2280.06 168.905 L1921.49 168.905  Z
  " fill="#ffffff" fill-rule="evenodd" fill-opacity="1"/>
<polyline clip-path="url(#clip590)" style="stroke:#000000; stroke-linecap:butt; stroke-linejoin:round; stroke-width:4; stroke-opacity:1; fill:none" points="
  1921.49,350.345 2280.06,350.345 2280.06,168.905 1921.49,168.905 1921.49,350.345 
  "/>
<polyline clip-path="url(#clip590)" style="stroke:#009af9; stroke-linecap:butt; stroke-linejoin:round; stroke-width:4; stroke-opacity:1; fill:none" points="
  1945.72,229.385 2091.1,229.385 
  "/>
<path clip-path="url(#clip590)" d="M2120.01 215.947 L2120.01 242.822 L2125.66 242.822 Q2132.81 242.822 2136.12 239.581 Q2139.45 236.341 2139.45 229.35 Q2139.45 222.406 2136.12 219.188 Q2132.81 215.947 2125.66 215.947 L2120.01 215.947 M2115.33 212.105 L2124.94 212.105 Q2134.98 212.105 2139.68 216.294 Q2144.38 220.461 2144.38 229.35 Q2144.38 238.285 2139.66 242.475 Q2134.94 246.665 2124.94 246.665 L2115.33 246.665 L2115.33 212.105 Z" fill="#000000" fill-rule="evenodd" fill-opacity="1" /><path clip-path="url(#clip590)" d="M2163.43 233.632 Q2158.27 233.632 2156.28 234.813 Q2154.29 235.993 2154.29 238.841 Q2154.29 241.109 2155.77 242.452 Q2157.28 243.771 2159.84 243.771 Q2163.39 243.771 2165.52 241.271 Q2167.67 238.748 2167.67 234.581 L2167.67 233.632 L2163.43 233.632 M2171.93 231.873 L2171.93 246.665 L2167.67 246.665 L2167.67 242.729 Q2166.21 245.091 2164.03 246.225 Q2161.86 247.336 2158.71 247.336 Q2154.73 247.336 2152.37 245.114 Q2150.03 242.868 2150.03 239.118 Q2150.03 234.743 2152.95 232.521 Q2155.89 230.299 2161.7 230.299 L2167.67 230.299 L2167.67 229.882 Q2167.67 226.943 2165.72 225.345 Q2163.8 223.725 2160.31 223.725 Q2158.09 223.725 2155.98 224.257 Q2153.87 224.79 2151.93 225.855 L2151.93 221.919 Q2154.27 221.017 2156.47 220.577 Q2158.66 220.114 2160.75 220.114 Q2166.37 220.114 2169.15 223.031 Q2171.93 225.947 2171.93 231.873 Z" fill="#000000" fill-rule="evenodd" fill-opacity="1" /><path clip-path="url(#clip590)" d="M2184.91 213.378 L2184.91 220.739 L2193.69 220.739 L2193.69 224.049 L2184.91 224.049 L2184.91 238.123 Q2184.91 241.294 2185.77 242.197 Q2186.65 243.1 2189.31 243.1 L2193.69 243.1 L2193.69 246.665 L2189.31 246.665 Q2184.38 246.665 2182.51 244.836 Q2180.63 242.984 2180.63 238.123 L2180.63 224.049 L2177.51 224.049 L2177.51 220.739 L2180.63 220.739 L2180.63 213.378 L2184.91 213.378 Z" fill="#000000" fill-rule="evenodd" fill-opacity="1" /><path clip-path="url(#clip590)" d="M2211.07 233.632 Q2205.91 233.632 2203.92 234.813 Q2201.93 235.993 2201.93 238.841 Q2201.93 241.109 2203.41 242.452 Q2204.91 243.771 2207.48 243.771 Q2211.03 243.771 2213.15 241.271 Q2215.31 238.748 2215.31 234.581 L2215.31 233.632 L2211.07 233.632 M2219.57 231.873 L2219.57 246.665 L2215.31 246.665 L2215.31 242.729 Q2213.85 245.091 2211.67 246.225 Q2209.5 247.336 2206.35 247.336 Q2202.37 247.336 2200.01 245.114 Q2197.67 242.868 2197.67 239.118 Q2197.67 234.743 2200.59 232.521 Q2203.53 230.299 2209.34 230.299 L2215.31 230.299 L2215.31 229.882 Q2215.31 226.943 2213.36 225.345 Q2211.44 223.725 2207.95 223.725 Q2205.72 223.725 2203.62 224.257 Q2201.51 224.79 2199.57 225.855 L2199.57 221.919 Q2201.9 221.017 2204.1 220.577 Q2206.3 220.114 2208.39 220.114 Q2214.01 220.114 2216.79 223.031 Q2219.57 225.947 2219.57 231.873 Z" fill="#000000" fill-rule="evenodd" fill-opacity="1" /><polyline clip-path="url(#clip590)" style="stroke:#e26f46; stroke-linecap:butt; stroke-linejoin:round; stroke-width:4; stroke-opacity:1; fill:none" points="
  1945.72,289.865 2091.1,289.865 
  "/>
<path clip-path="url(#clip590)" d="M2115.33 272.585 L2144.57 272.585 L2144.57 276.52 L2132.3 276.52 L2132.3 307.145 L2127.6 307.145 L2127.6 276.52 L2115.33 276.52 L2115.33 272.585 Z" fill="#000000" fill-rule="evenodd" fill-opacity="1" /><path clip-path="url(#clip590)" d="M2156.95 285.2 Q2156.23 284.784 2155.38 284.598 Q2154.54 284.39 2153.53 284.39 Q2149.91 284.39 2147.97 286.751 Q2146.05 289.089 2146.05 293.487 L2146.05 307.145 L2141.77 307.145 L2141.77 281.219 L2146.05 281.219 L2146.05 285.247 Q2147.39 282.886 2149.54 281.751 Q2151.7 280.594 2154.78 280.594 Q2155.22 280.594 2155.75 280.663 Q2156.28 280.71 2156.93 280.825 L2156.95 285.2 Z" fill="#000000" fill-rule="evenodd" fill-opacity="1" /><path clip-path="url(#clip590)" d="M2160.98 296.913 L2160.98 281.219 L2165.24 281.219 L2165.24 296.751 Q2165.24 300.432 2166.67 302.284 Q2168.11 304.112 2170.98 304.112 Q2174.43 304.112 2176.42 301.913 Q2178.43 299.714 2178.43 295.918 L2178.43 281.219 L2182.69 281.219 L2182.69 307.145 L2178.43 307.145 L2178.43 303.163 Q2176.88 305.524 2174.82 306.682 Q2172.78 307.816 2170.08 307.816 Q2165.61 307.816 2163.29 305.038 Q2160.98 302.26 2160.98 296.913 M2171.7 280.594 L2171.7 280.594 Z" fill="#000000" fill-rule="evenodd" fill-opacity="1" /><path clip-path="url(#clip590)" d="M2195.68 273.858 L2195.68 281.219 L2204.45 281.219 L2204.45 284.529 L2195.68 284.529 L2195.68 298.603 Q2195.68 301.774 2196.53 302.677 Q2197.41 303.58 2200.08 303.58 L2204.45 303.58 L2204.45 307.145 L2200.08 307.145 Q2195.15 307.145 2193.27 305.316 Q2191.4 303.464 2191.4 298.603 L2191.4 284.529 L2188.27 284.529 L2188.27 281.219 L2191.4 281.219 L2191.4 273.858 L2195.68 273.858 Z" fill="#000000" fill-rule="evenodd" fill-opacity="1" /><path clip-path="url(#clip590)" d="M2231.6 291.497 L2231.6 307.145 L2227.34 307.145 L2227.34 291.635 Q2227.34 287.955 2225.91 286.126 Q2224.47 284.298 2221.6 284.298 Q2218.15 284.298 2216.16 286.497 Q2214.17 288.696 2214.17 292.492 L2214.17 307.145 L2209.89 307.145 L2209.89 271.126 L2214.17 271.126 L2214.17 285.247 Q2215.7 282.909 2217.76 281.751 Q2219.84 280.594 2222.55 280.594 Q2227.02 280.594 2229.31 283.372 Q2231.6 286.126 2231.6 291.497 Z" fill="#000000" fill-rule="evenodd" fill-opacity="1" /></svg>
