<?xml version="1.0" encoding="utf-8"?>
<svg xmlns="http://www.w3.org/2000/svg" xmlns:xlink="http://www.w3.org/1999/xlink" width="600" height="400" viewBox="0 0 2400 1600">
<defs>
  <clipPath id="clip130">
    <rect x="0" y="0" width="2400" height="1600"/>
  </clipPath>
</defs>
<path clip-path="url(#clip130)" d="
M0 1600 L2400 1600 L2400 0 L0 0  Z
  " fill="#ffffff" fill-rule="evenodd" fill-opacity="1"/>
<defs>
  <clipPath id="clip131">
    <rect x="480" y="0" width="1681" height="1600"/>
  </clipPath>
</defs>
<path clip-path="url(#clip130)" d="
M172.015 1486.45 L2352.76 1486.45 L2352.76 123.472 L172.015 123.472  Z
  " fill="#ffffff" fill-rule="evenodd" fill-opacity="1"/>
<defs>
  <clipPath id="clip132">
    <rect x="172" y="123" width="2182" height="1364"/>
  </clipPath>
</defs>
<polyline clip-path="url(#clip132)" style="stroke:#000000; stroke-linecap:butt; stroke-linejoin:round; stroke-width:2; stroke-opacity:0.1; fill:none" points="
  233.734,1486.45 233.734,123.472 
  "/>
<polyline clip-path="url(#clip132)" style="stroke:#000000; stroke-linecap:butt; stroke-linejoin:round; stroke-width:2; stroke-opacity:0.1; fill:none" points="
  748.06,1486.45 748.06,123.472 
  "/>
<polyline clip-path="url(#clip132)" style="stroke:#000000; stroke-linecap:butt; stroke-linejoin:round; stroke-width:2; stroke-opacity:0.1; fill:none" points="
  1262.39,1486.45 1262.39,123.472 
  "/>
<polyline clip-path="url(#clip132)" style="stroke:#000000; stroke-linecap:butt; stroke-linejoin:round; stroke-width:2; stroke-opacity:0.1; fill:none" points="
  1776.71,1486.45 1776.71,123.472 
  "/>
<polyline clip-path="url(#clip132)" style="stroke:#000000; stroke-linecap:butt; stroke-linejoin:round; stroke-width:2; stroke-opacity:0.1; fill:none" points="
  2291.04,1486.45 2291.04,123.472 
  "/>
<polyline clip-path="url(#clip130)" style="stroke:#000000; stroke-linecap:butt; stroke-linejoin:round; stroke-width:4; stroke-opacity:1; fill:none" points="
  172.015,1486.45 2352.76,1486.45 
  "/>
<polyline clip-path="url(#clip130)" style="stroke:#000000; stroke-linecap:butt; stroke-linejoin:round; stroke-width:4; stroke-opacity:1; fill:none" points="
  233.734,1486.45 233.734,1467.55 
  "/>
<polyline clip-path="url(#clip130)" style="stroke:#000000; stroke-linecap:butt; stroke-linejoin:round; stroke-width:4; stroke-opacity:1; fill:none" points="
  748.06,1486.45 748.06,1467.55 
  "/>
<polyline clip-path="url(#clip130)" style="stroke:#000000; stroke-linecap:butt; stroke-linejoin:round; stroke-width:4; stroke-opacity:1; fill:none" points="
  1262.39,1486.45 1262.39,1467.55 
  "/>
<polyline clip-path="url(#clip130)" style="stroke:#000000; stroke-linecap:butt; stroke-linejoin:round; stroke-width:4; stroke-opacity:1; fill:none" points="
  1776.71,1486.45 1776.71,1467.55 
  "/>
<polyline clip-path="url(#clip130)" style="stroke:#000000; stroke-linecap:butt; stroke-linejoin:round; stroke-width:4; stroke-opacity:1; fill:none" points="
  2291.04,1486.45 2291.04,1467.55 
  "/>
<path clip-path="url(#clip130)" d="M202.635 1532.02 L232.31 1532.02 L232.31 1535.95 L202.635 1535.95 L202.635 1532.02 Z" fill="#000000" fill-rule="evenodd" fill-opacity="1" /><path clip-path="url(#clip130)" d="M255.25 1518.36 L243.445 1536.81 L255.25 1536.81 L255.25 1518.36 M254.023 1514.29 L259.903 1514.29 L259.903 1536.81 L264.833 1536.81 L264.833 1540.7 L259.903 1540.7 L259.903 1548.85 L255.25 1548.85 L255.25 1540.7 L239.648 1540.7 L239.648 1536.19 L254.023 1514.29 Z" fill="#000000" fill-rule="evenodd" fill-opacity="1" /><path clip-path="url(#clip130)" d="M718.002 1532.02 L747.678 1532.02 L747.678 1535.95 L718.002 1535.95 L718.002 1532.02 Z" fill="#000000" fill-rule="evenodd" fill-opacity="1" /><path clip-path="url(#clip130)" d="M761.798 1544.91 L778.117 1544.91 L778.117 1548.85 L756.173 1548.85 L756.173 1544.91 Q758.835 1542.16 763.418 1537.53 Q768.025 1532.88 769.205 1531.53 Q771.451 1529.01 772.33 1527.27 Q773.233 1525.51 773.233 1523.82 Q773.233 1521.07 771.289 1519.33 Q769.367 1517.6 766.266 1517.6 Q764.066 1517.6 761.613 1518.36 Q759.182 1519.13 756.404 1520.68 L756.404 1515.95 Q759.229 1514.82 761.682 1514.24 Q764.136 1513.66 766.173 1513.66 Q771.543 1513.66 774.738 1516.35 Q777.932 1519.03 777.932 1523.52 Q777.932 1525.65 777.122 1527.57 Q776.335 1529.47 774.228 1532.07 Q773.65 1532.74 770.548 1535.95 Q767.446 1539.15 761.798 1544.91 Z" fill="#000000" fill-rule="evenodd" fill-opacity="1" /><path clip-path="url(#clip130)" d="M1262.39 1517.37 Q1258.77 1517.37 1256.95 1520.93 Q1255.14 1524.47 1255.14 1531.6 Q1255.14 1538.71 1256.95 1542.27 Q1258.77 1545.82 1262.39 1545.82 Q1266.02 1545.82 1267.83 1542.27 Q1269.65 1538.71 1269.65 1531.6 Q1269.65 1524.47 1267.83 1520.93 Q1266.02 1517.37 1262.39 1517.37 M1262.39 1513.66 Q1268.2 1513.66 1271.25 1518.27 Q1274.33 1522.85 1274.33 1531.6 Q1274.33 1540.33 1271.25 1544.94 Q1268.2 1549.52 1262.39 1549.52 Q1256.58 1549.52 1253.5 1544.94 Q1250.44 1540.33 1250.44 1531.6 Q1250.44 1522.85 1253.5 1518.27 Q1256.58 1513.66 1262.39 1513.66 Z" fill="#000000" fill-rule="evenodd" fill-opacity="1" /><path clip-path="url(#clip130)" d="M1771.36 1544.91 L1787.68 1544.91 L1787.68 1548.85 L1765.74 1548.85 L1765.74 1544.91 Q1768.4 1542.16 1772.98 1537.53 Q1777.59 1532.88 1778.77 1531.53 Q1781.02 1529.01 1781.9 1527.27 Q1782.8 1525.51 1782.8 1523.82 Q1782.8 1521.07 1780.85 1519.33 Q1778.93 1517.6 1775.83 1517.6 Q1773.63 1517.6 1771.18 1518.36 Q1768.75 1519.13 1765.97 1520.68 L1765.97 1515.95 Q1768.79 1514.82 1771.25 1514.24 Q1773.7 1513.66 1775.74 1513.66 Q1781.11 1513.66 1784.3 1516.35 Q1787.5 1519.03 1787.5 1523.52 Q1787.5 1525.65 1786.69 1527.57 Q1785.9 1529.47 1783.79 1532.07 Q1783.22 1532.74 1780.11 1535.95 Q1777.01 1539.15 1771.36 1544.91 Z" fill="#000000" fill-rule="evenodd" fill-opacity="1" /><path clip-path="url(#clip130)" d="M2294.05 1518.36 L2282.24 1536.81 L2294.05 1536.81 L2294.05 1518.36 M2292.82 1514.29 L2298.7 1514.29 L2298.7 1536.81 L2303.63 1536.81 L2303.63 1540.7 L2298.7 1540.7 L2298.7 1548.85 L2294.05 1548.85 L2294.05 1540.7 L2278.44 1540.7 L2278.44 1536.19 L2292.82 1514.29 Z" fill="#000000" fill-rule="evenodd" fill-opacity="1" /><polyline clip-path="url(#clip132)" style="stroke:#000000; stroke-linecap:butt; stroke-linejoin:round; stroke-width:2; stroke-opacity:0.1; fill:none" points="
  172.015,1447.87 2352.76,1447.87 
  "/>
<polyline clip-path="url(#clip132)" style="stroke:#000000; stroke-linecap:butt; stroke-linejoin:round; stroke-width:2; stroke-opacity:0.1; fill:none" points="
  172.015,1165.27 2352.76,1165.27 
  "/>
<polyline clip-path="url(#clip132)" style="stroke:#000000; stroke-linecap:butt; stroke-linejoin:round; stroke-width:2; stroke-opacity:0.1; fill:none" points="
  172.015,882.675 2352.76,882.675 
  "/>
<polyline clip-path="url(#clip132)" style="stroke:#000000; stroke-linecap:butt; stroke-linejoin:round; stroke-width:2; stroke-opacity:0.1; fill:none" points="
  172.015,600.076 2352.76,600.076 
  "/>
<polyline clip-path="url(#clip132)" style="stroke:#000000; stroke-linecap:butt; stroke-linejoin:round; stroke-width:2; stroke-opacity:0.1; fill:none" points="
  172.015,317.476 2352.76,317.476 
  "/>
<polyline clip-path="url(#clip130)" style="stroke:#000000; stroke-linecap:butt; stroke-linejoin:round; stroke-width:4; stroke-opacity:1; fill:none" points="
  172.015,1486.45 172.015,123.472 
  "/>
<polyline clip-path="url(#clip130)" style="stroke:#000000; stroke-linecap:butt; stroke-linejoin:round; stroke-width:4; stroke-opacity:1; fill:none" points="
  172.015,1447.87 190.912,1447.87 
  "/>
<polyline clip-path="url(#clip130)" style="stroke:#000000; stroke-linecap:butt; stroke-linejoin:round; stroke-width:4; stroke-opacity:1; fill:none" points="
  172.015,1165.27 190.912,1165.27 
  "/>
<polyline clip-path="url(#clip130)" style="stroke:#000000; stroke-linecap:butt; stroke-linejoin:round; stroke-width:4; stroke-opacity:1; fill:none" points="
  172.015,882.675 190.912,882.675 
  "/>
<polyline clip-path="url(#clip130)" style="stroke:#000000; stroke-linecap:butt; stroke-linejoin:round; stroke-width:4; stroke-opacity:1; fill:none" points="
  172.015,600.076 190.912,600.076 
  "/>
<polyline clip-path="url(#clip130)" style="stroke:#000000; stroke-linecap:butt; stroke-linejoin:round; stroke-width:4; stroke-opacity:1; fill:none" points="
  172.015,317.476 190.912,317.476 
  "/>
<path clip-path="url(#clip130)" d="M124.07 1433.67 Q120.459 1433.67 118.631 1437.24 Q116.825 1440.78 116.825 1447.91 Q116.825 1455.01 118.631 1458.58 Q120.459 1462.12 124.07 1462.12 Q127.705 1462.12 129.51 1458.58 Q131.339 1455.01 131.339 1447.91 Q131.339 1440.78 129.51 1437.24 Q127.705 1433.67 124.07 1433.67 M124.07 1429.97 Q129.881 1429.97 132.936 1434.57 Q136.015 1439.16 136.015 1447.91 Q136.015 1456.63 132.936 1461.24 Q129.881 1465.82 124.07 1465.82 Q118.26 1465.82 115.182 1461.24 Q112.126 1456.63 112.126 1447.91 Q112.126 1439.16 115.182 1434.57 Q118.26 1429.97 124.07 1429.97 Z" fill="#000000" fill-rule="evenodd" fill-opacity="1" /><path clip-path="url(#clip130)" d="M57.7745 1178.62 L74.0939 1178.62 L74.0939 1182.55 L52.1495 1182.55 L52.1495 1178.62 Q54.8115 1175.86 59.3949 1171.23 Q64.0013 1166.58 65.1819 1165.24 Q67.4272 1162.72 68.3068 1160.98 Q69.2096 1159.22 69.2096 1157.53 Q69.2096 1154.78 67.2652 1153.04 Q65.3439 1151.3 62.2421 1151.3 Q60.043 1151.3 57.5893 1152.07 Q55.1588 1152.83 52.381 1154.38 L52.381 1149.66 Q55.2051 1148.53 57.6588 1147.95 Q60.1124 1147.37 62.1495 1147.37 Q67.5198 1147.37 70.7142 1150.05 Q73.9087 1152.74 73.9087 1157.23 Q73.9087 1159.36 73.0985 1161.28 Q72.3115 1163.18 70.205 1165.77 Q69.6263 1166.44 66.5245 1169.66 Q63.4226 1172.85 57.7745 1178.62 Z" fill="#000000" fill-rule="evenodd" fill-opacity="1" /><path clip-path="url(#clip130)" d="M93.9086 1151.07 Q90.2975 1151.07 88.4688 1154.64 Q86.6632 1158.18 86.6632 1165.31 Q86.6632 1172.42 88.4688 1175.98 Q90.2975 1179.52 93.9086 1179.52 Q97.5428 1179.52 99.3483 1175.98 Q101.177 1172.42 101.177 1165.31 Q101.177 1158.18 99.3483 1154.64 Q97.5428 1151.07 93.9086 1151.07 M93.9086 1147.37 Q99.7187 1147.37 102.774 1151.98 Q105.853 1156.56 105.853 1165.31 Q105.853 1174.04 102.774 1178.64 Q99.7187 1183.23 93.9086 1183.23 Q88.0984 1183.23 85.0197 1178.64 Q81.9642 1174.04 81.9642 1165.31 Q81.9642 1156.56 85.0197 1151.98 Q88.0984 1147.37 93.9086 1147.37 Z" fill="#000000" fill-rule="evenodd" fill-opacity="1" /><path clip-path="url(#clip130)" d="M124.07 1151.07 Q120.459 1151.07 118.631 1154.64 Q116.825 1158.18 116.825 1165.31 Q116.825 1172.42 118.631 1175.98 Q120.459 1179.52 124.07 1179.52 Q127.705 1179.52 129.51 1175.98 Q131.339 1172.42 131.339 1165.31 Q131.339 1158.18 129.51 1154.64 Q127.705 1151.07 124.07 1151.07 M124.07 1147.37 Q129.881 1147.37 132.936 1151.98 Q136.015 1156.56 136.015 1165.31 Q136.015 1174.04 132.936 1178.64 Q129.881 1183.23 124.07 1183.23 Q118.26 1183.23 115.182 1178.64 Q112.126 1174.04 112.126 1165.31 Q112.126 1156.56 115.182 1151.98 Q118.26 1147.37 124.07 1147.37 Z" fill="#000000" fill-rule="evenodd" fill-opacity="1" /><path clip-path="url(#clip130)" d="M66.5939 869.469 L54.7884 887.918 L66.5939 887.918 L66.5939 869.469 M65.367 865.395 L71.2466 865.395 L71.2466 887.918 L76.1772 887.918 L76.1772 891.807 L71.2466 891.807 L71.2466 899.955 L66.5939 899.955 L66.5939 891.807 L50.9921 891.807 L50.9921 887.293 L65.367 865.395 Z" fill="#000000" fill-rule="evenodd" fill-opacity="1" /><path clip-path="url(#clip130)" d="M93.9086 868.473 Q90.2975 868.473 88.4688 872.038 Q86.6632 875.58 86.6632 882.709 Q86.6632 889.816 88.4688 893.381 Q90.2975 896.922 93.9086 896.922 Q97.5428 896.922 99.3483 893.381 Q101.177 889.816 101.177 882.709 Q101.177 875.58 99.3483 872.038 Q97.5428 868.473 93.9086 868.473 M93.9086 864.77 Q99.7187 864.77 102.774 869.376 Q105.853 873.96 105.853 882.709 Q105.853 891.436 102.774 896.043 Q99.7187 900.626 93.9086 900.626 Q88.0984 900.626 85.0197 896.043 Q81.9642 891.436 81.9642 882.709 Q81.9642 873.96 85.0197 869.376 Q88.0984 864.77 93.9086 864.77 Z" fill="#000000" fill-rule="evenodd" fill-opacity="1" /><path clip-path="url(#clip130)" d="M124.07 868.473 Q120.459 868.473 118.631 872.038 Q116.825 875.58 116.825 882.709 Q116.825 889.816 118.631 893.381 Q120.459 896.922 124.07 896.922 Q127.705 896.922 129.51 893.381 Q131.339 889.816 131.339 882.709 Q131.339 875.58 129.51 872.038 Q127.705 868.473 124.07 868.473 M124.07 864.77 Q129.881 864.77 132.936 869.376 Q136.015 873.96 136.015 882.709 Q136.015 891.436 132.936 896.043 Q129.881 900.626 124.07 900.626 Q118.26 900.626 115.182 896.043 Q112.126 891.436 112.126 882.709 Q112.126 873.96 115.182 869.376 Q118.26 864.77 124.07 864.77 Z" fill="#000000" fill-rule="evenodd" fill-opacity="1" /><path clip-path="url(#clip130)" d="M64.3254 598.212 Q61.1773 598.212 59.3254 600.365 Q57.4967 602.518 57.4967 606.268 Q57.4967 609.995 59.3254 612.17 Q61.1773 614.323 64.3254 614.323 Q67.4735 614.323 69.3022 612.17 Q71.1541 609.995 71.1541 606.268 Q71.1541 602.518 69.3022 600.365 Q67.4735 598.212 64.3254 598.212 M73.6077 583.559 L73.6077 587.819 Q71.8485 586.985 70.0429 586.546 Q68.2606 586.106 66.5013 586.106 Q61.8717 586.106 59.418 589.231 Q56.9875 592.356 56.6402 598.675 Q58.006 596.661 60.0662 595.596 Q62.1263 594.509 64.6032 594.509 Q69.8115 594.509 72.8207 597.68 Q75.8531 600.828 75.8531 606.268 Q75.8531 611.592 72.705 614.809 Q69.5568 618.027 64.3254 618.027 Q58.33 618.027 55.1588 613.444 Q51.9875 608.837 51.9875 600.11 Q51.9875 591.916 55.8764 587.055 Q59.7652 582.171 66.3161 582.171 Q68.0754 582.171 69.8578 582.518 Q71.6633 582.865 73.6077 583.559 Z" fill="#000000" fill-rule="evenodd" fill-opacity="1" /><path clip-path="url(#clip130)" d="M93.9086 585.874 Q90.2975 585.874 88.4688 589.439 Q86.6632 592.981 86.6632 600.11 Q86.6632 607.217 88.4688 610.782 Q90.2975 614.323 93.9086 614.323 Q97.5428 614.323 99.3483 610.782 Q101.177 607.217 101.177 600.11 Q101.177 592.981 99.3483 589.439 Q97.5428 585.874 93.9086 585.874 M93.9086 582.171 Q99.7187 582.171 102.774 586.777 Q105.853 591.36 105.853 600.11 Q105.853 608.837 102.774 613.444 Q99.7187 618.027 93.9086 618.027 Q88.0984 618.027 85.0197 613.444 Q81.9642 608.837 81.9642 600.11 Q81.9642 591.36 85.0197 586.777 Q88.0984 582.171 93.9086 582.171 Z" fill="#000000" fill-rule="evenodd" fill-opacity="1" /><path clip-path="url(#clip130)" d="M124.07 585.874 Q120.459 585.874 118.631 589.439 Q116.825 592.981 116.825 600.11 Q116.825 607.217 118.631 610.782 Q120.459 614.323 124.07 614.323 Q127.705 614.323 129.51 610.782 Q131.339 607.217 131.339 600.11 Q131.339 592.981 129.51 589.439 Q127.705 585.874 124.07 585.874 M124.07 582.171 Q129.881 582.171 132.936 586.777 Q136.015 591.36 136.015 600.11 Q136.015 608.837 132.936 613.444 Q129.881 618.027 124.07 618.027 Q118.26 618.027 115.182 613.444 Q112.126 608.837 112.126 600.11 Q112.126 591.36 115.182 586.777 Q118.26 582.171 124.07 582.171 Z" fill="#000000" fill-rule="evenodd" fill-opacity="1" /><path clip-path="url(#clip130)" d="M63.7467 318.345 Q60.4134 318.345 58.4921 320.127 Q56.5939 321.909 56.5939 325.034 Q56.5939 328.159 58.4921 329.942 Q60.4134 331.724 63.7467 331.724 Q67.08 331.724 69.0013 329.942 Q70.9226 328.136 70.9226 325.034 Q70.9226 321.909 69.0013 320.127 Q67.1032 318.345 63.7467 318.345 M59.0708 316.354 Q56.0615 315.613 54.3717 313.553 Q52.7051 311.493 52.7051 308.53 Q52.7051 304.386 55.6449 301.979 Q58.6078 299.571 63.7467 299.571 Q68.9087 299.571 71.8485 301.979 Q74.7883 304.386 74.7883 308.53 Q74.7883 311.493 73.0985 313.553 Q71.4318 315.613 68.4457 316.354 Q71.8253 317.141 73.7003 319.432 Q75.5985 321.724 75.5985 325.034 Q75.5985 330.057 72.5198 332.743 Q69.4642 335.428 63.7467 335.428 Q58.0291 335.428 54.9504 332.743 Q51.8949 330.057 51.8949 325.034 Q51.8949 321.724 53.793 319.432 Q55.6912 317.141 59.0708 316.354 M57.3578 308.97 Q57.3578 311.655 59.0245 313.159 Q60.7143 314.664 63.7467 314.664 Q66.7559 314.664 68.4457 313.159 Q70.1587 311.655 70.1587 308.97 Q70.1587 306.284 68.4457 304.78 Q66.7559 303.275 63.7467 303.275 Q60.7143 303.275 59.0245 304.78 Q57.3578 306.284 57.3578 308.97 Z" fill="#000000" fill-rule="evenodd" fill-opacity="1" /><path clip-path="url(#clip130)" d="M93.9086 303.275 Q90.2975 303.275 88.4688 306.84 Q86.6632 310.382 86.6632 317.511 Q86.6632 324.618 88.4688 328.182 Q90.2975 331.724 93.9086 331.724 Q97.5428 331.724 99.3483 328.182 Q101.177 324.618 101.177 317.511 Q101.177 310.382 99.3483 306.84 Q97.5428 303.275 93.9086 303.275 M93.9086 299.571 Q99.7187 299.571 102.774 304.178 Q105.853 308.761 105.853 317.511 Q105.853 326.238 102.774 330.844 Q99.7187 335.428 93.9086 335.428 Q88.0984 335.428 85.0197 330.844 Q81.9642 326.238 81.9642 317.511 Q81.9642 308.761 85.0197 304.178 Q88.0984 299.571 93.9086 299.571 Z" fill="#000000" fill-rule="evenodd" fill-opacity="1" /><path clip-path="url(#clip130)" d="M124.07 303.275 Q120.459 303.275 118.631 306.84 Q116.825 310.382 116.825 317.511 Q116.825 324.618 118.631 328.182 Q120.459 331.724 124.07 331.724 Q127.705 331.724 129.51 328.182 Q131.339 324.618 131.339 317.511 Q131.339 310.382 129.51 306.84 Q127.705 303.275 124.07 303.275 M124.07 299.571 Q129.881 299.571 132.936 304.178 Q136.015 308.761 136.015 317.511 Q136.015 326.238 132.936 330.844 Q129.881 335.428 124.07 335.428 Q118.26 335.428 115.182 330.844 Q112.126 326.238 112.126 317.511 Q112.126 308.761 115.182 304.178 Q118.26 299.571 124.07 299.571 Z" fill="#000000" fill-rule="evenodd" fill-opacity="1" /><path clip-path="url(#clip130)" d="M631.092 18.8205 L631.092 65.8515 L640.977 65.8515 Q653.494 65.8515 659.287 60.1802 Q665.12 54.509 665.12 42.2752 Q665.12 30.1225 659.287 24.4918 Q653.494 18.8205 640.977 18.8205 L631.092 18.8205 M622.91 12.096 L639.721 12.096 Q657.302 12.096 665.525 19.4281 Q673.748 26.7198 673.748 42.2752 Q673.748 57.9117 665.485 65.2439 Q657.221 72.576 639.721 72.576 L622.91 72.576 L622.91 12.096 Z" fill="#000000" fill-rule="evenodd" fill-opacity="1" /><path clip-path="url(#clip130)" d="M707.087 49.7694 Q698.054 49.7694 694.57 51.8354 Q691.086 53.9013 691.086 58.8839 Q691.086 62.8538 693.679 65.2034 Q696.312 67.5124 700.809 67.5124 Q707.006 67.5124 710.733 63.1374 Q714.501 58.7219 714.501 51.4303 L714.501 49.7694 L707.087 49.7694 M721.954 46.6907 L721.954 72.576 L714.501 72.576 L714.501 65.6895 Q711.948 69.8214 708.141 71.8063 Q704.333 73.7508 698.824 73.7508 Q691.856 73.7508 687.724 69.8619 Q683.633 65.9325 683.633 59.3701 Q683.633 51.7138 688.737 47.825 Q693.881 43.9361 704.049 43.9361 L714.501 43.9361 L714.501 43.2069 Q714.501 38.0623 711.098 35.2672 Q707.736 32.4315 701.619 32.4315 Q697.73 32.4315 694.044 33.3632 Q690.357 34.295 686.954 36.1584 L686.954 29.2718 Q691.046 27.692 694.894 26.9223 Q698.743 26.1121 702.388 26.1121 Q712.232 26.1121 717.093 31.2163 Q721.954 36.3204 721.954 46.6907 Z" fill="#000000" fill-rule="evenodd" fill-opacity="1" /><path clip-path="url(#clip130)" d="M744.68 14.324 L744.68 27.2059 L760.033 27.2059 L760.033 32.9987 L744.68 32.9987 L744.68 57.6282 Q744.68 63.1779 746.179 64.7578 Q747.718 66.3376 752.377 66.3376 L760.033 66.3376 L760.033 72.576 L752.377 72.576 Q743.748 72.576 740.467 69.3758 Q737.186 66.1351 737.186 57.6282 L737.186 32.9987 L731.717 32.9987 L731.717 27.2059 L737.186 27.2059 L737.186 14.324 L744.68 14.324 Z" fill="#000000" fill-rule="evenodd" fill-opacity="1" /><path clip-path="url(#clip130)" d="M790.455 49.7694 Q781.422 49.7694 777.938 51.8354 Q774.454 53.9013 774.454 58.8839 Q774.454 62.8538 777.047 65.2034 Q779.68 67.5124 784.176 67.5124 Q790.374 67.5124 794.101 63.1374 Q797.868 58.7219 797.868 51.4303 L797.868 49.7694 L790.455 49.7694 M805.322 46.6907 L805.322 72.576 L797.868 72.576 L797.868 65.6895 Q795.316 69.8214 791.508 71.8063 Q787.7 73.7508 782.191 73.7508 Q775.224 73.7508 771.092 69.8619 Q767 65.9325 767 59.3701 Q767 51.7138 772.104 47.825 Q777.249 43.9361 787.417 43.9361 L797.868 43.9361 L797.868 43.2069 Q797.868 38.0623 794.465 35.2672 Q791.103 32.4315 784.986 32.4315 Q781.097 32.4315 777.411 33.3632 Q773.725 34.295 770.322 36.1584 L770.322 29.2718 Q774.413 27.692 778.262 26.9223 Q782.11 26.1121 785.756 26.1121 Q795.6 26.1121 800.461 31.2163 Q805.322 36.3204 805.322 46.6907 Z" fill="#000000" fill-rule="evenodd" fill-opacity="1" /><path clip-path="url(#clip130)" d="M867.665 49.7694 Q858.632 49.7694 855.148 51.8354 Q851.664 53.9013 851.664 58.8839 Q851.664 62.8538 854.257 65.2034 Q856.89 67.5124 861.386 67.5124 Q867.584 67.5124 871.311 63.1374 Q875.078 58.7219 875.078 51.4303 L875.078 49.7694 L867.665 49.7694 M882.532 46.6907 L882.532 72.576 L875.078 72.576 L875.078 65.6895 Q872.526 69.8214 868.718 71.8063 Q864.911 73.7508 859.401 73.7508 Q852.434 73.7508 848.302 69.8619 Q844.211 65.9325 844.211 59.3701 Q844.211 51.7138 849.315 47.825 Q854.459 43.9361 864.627 43.9361 L875.078 43.9361 L875.078 43.2069 Q875.078 38.0623 871.676 35.2672 Q868.313 32.4315 862.197 32.4315 Q858.308 32.4315 854.621 33.3632 Q850.935 34.295 847.532 36.1584 L847.532 29.2718 Q851.624 27.692 855.472 26.9223 Q859.32 26.1121 862.966 26.1121 Q872.81 26.1121 877.671 31.2163 Q882.532 36.3204 882.532 46.6907 Z" fill="#000000" fill-rule="evenodd" fill-opacity="1" /><path clip-path="url(#clip130)" d="M935.599 45.1919 L935.599 72.576 L928.145 72.576 L928.145 45.4349 Q928.145 38.994 925.634 35.7938 Q923.122 32.5936 918.099 32.5936 Q912.063 32.5936 908.579 36.4419 Q905.096 40.2903 905.096 46.9338 L905.096 72.576 L897.601 72.576 L897.601 27.2059 L905.096 27.2059 L905.096 34.2544 Q907.769 30.163 911.375 28.1376 Q915.02 26.1121 919.76 26.1121 Q927.578 26.1121 931.589 30.9732 Q935.599 35.7938 935.599 45.1919 Z" fill="#000000" fill-rule="evenodd" fill-opacity="1" /><path clip-path="url(#clip130)" d="M980.321 34.0924 L980.321 9.54393 L987.775 9.54393 L987.775 72.576 L980.321 72.576 L980.321 65.7705 Q977.971 69.8214 974.366 71.8063 Q970.801 73.7508 965.778 73.7508 Q957.555 73.7508 952.37 67.1883 Q947.225 60.6258 947.225 49.9314 Q947.225 39.2371 952.37 32.6746 Q957.555 26.1121 965.778 26.1121 Q970.801 26.1121 974.366 28.0971 Q977.971 30.0415 980.321 34.0924 M954.922 49.9314 Q954.922 58.1548 958.284 62.8538 Q961.687 67.5124 967.601 67.5124 Q973.515 67.5124 976.918 62.8538 Q980.321 58.1548 980.321 49.9314 Q980.321 41.7081 976.918 37.0496 Q973.515 32.3505 967.601 32.3505 Q961.687 32.3505 958.284 37.0496 Q954.922 41.7081 954.922 49.9314 Z" fill="#000000" fill-rule="evenodd" fill-opacity="1" /><path clip-path="url(#clip130)" d="M1021.44 12.096 L1072.6 12.096 L1072.6 18.9825 L1051.13 18.9825 L1051.13 72.576 L1042.91 72.576 L1042.91 18.9825 L1021.44 18.9825 L1021.44 12.096 Z" fill="#000000" fill-rule="evenodd" fill-opacity="1" /><path clip-path="url(#clip130)" d="M1094.27 34.1734 Q1093.02 33.4443 1091.52 33.1202 Q1090.06 32.7556 1088.28 32.7556 Q1081.96 32.7556 1078.56 36.8875 Q1075.19 40.9789 1075.19 48.6757 L1075.19 72.576 L1067.7 72.576 L1067.7 27.2059 L1075.19 27.2059 L1075.19 34.2544 Q1077.54 30.1225 1081.31 28.1376 Q1085.08 26.1121 1090.46 26.1121 Q1091.23 26.1121 1092.17 26.2337 Q1093.1 26.3147 1094.23 26.5172 L1094.27 34.1734 Z" fill="#000000" fill-rule="evenodd" fill-opacity="1" /><path clip-path="url(#clip130)" d="M1101.32 54.671 L1101.32 27.2059 L1108.78 27.2059 L1108.78 54.3874 Q1108.78 60.8284 1111.29 64.0691 Q1113.8 67.2693 1118.82 67.2693 Q1124.86 67.2693 1128.34 63.421 Q1131.87 59.5726 1131.87 52.9291 L1131.87 27.2059 L1139.32 27.2059 L1139.32 72.576 L1131.87 72.576 L1131.87 65.6084 Q1129.15 69.7404 1125.55 71.7658 Q1121.98 73.7508 1117.24 73.7508 Q1109.42 73.7508 1105.37 68.8897 Q1101.32 64.0286 1101.32 54.671 M1120.08 26.1121 L1120.08 26.1121 Z" fill="#000000" fill-rule="evenodd" fill-opacity="1" /><path clip-path="url(#clip130)" d="M1193.48 48.0275 L1193.48 51.6733 L1159.21 51.6733 Q1159.69 59.3701 1163.83 63.421 Q1168 67.4314 1175.41 67.4314 Q1179.71 67.4314 1183.72 66.3781 Q1187.77 65.3249 1191.74 63.2184 L1191.74 70.267 Q1187.73 71.9684 1183.51 72.8596 Q1179.3 73.7508 1174.97 73.7508 Q1164.11 73.7508 1157.75 67.4314 Q1151.43 61.1119 1151.43 50.3365 Q1151.43 39.1965 1157.43 32.6746 Q1163.46 26.1121 1173.67 26.1121 Q1182.83 26.1121 1188.13 32.0264 Q1193.48 37.9003 1193.48 48.0275 M1186.03 45.84 Q1185.94 39.7232 1182.58 36.0774 Q1179.26 32.4315 1173.75 32.4315 Q1167.51 32.4315 1163.75 35.9558 Q1160.02 39.4801 1159.45 45.8805 L1186.03 45.84 Z" fill="#000000" fill-rule="evenodd" fill-opacity="1" /><path clip-path="url(#clip130)" d="M1268.66 14.0809 L1268.66 22.0612 Q1264.01 19.8332 1259.87 18.7395 Q1255.74 17.6457 1251.89 17.6457 Q1245.21 17.6457 1241.56 20.2383 Q1237.96 22.8309 1237.96 27.611 Q1237.96 31.6214 1240.35 33.6873 Q1242.78 35.7128 1249.5 36.9686 L1254.45 37.9813 Q1263.6 39.7232 1267.94 44.1387 Q1272.31 48.5136 1272.31 55.8863 Q1272.31 64.6767 1266.4 69.2137 Q1260.52 73.7508 1249.14 73.7508 Q1244.84 73.7508 1239.98 72.7785 Q1235.16 71.8063 1229.98 69.9024 L1229.98 61.4765 Q1234.96 64.2716 1239.74 65.6895 Q1244.52 67.1073 1249.14 67.1073 Q1256.15 67.1073 1259.95 64.3527 Q1263.76 61.598 1263.76 56.4939 Q1263.76 52.0379 1261.01 49.5264 Q1258.29 47.0148 1252.06 45.759 L1247.07 44.7868 Q1237.92 42.9639 1233.83 39.075 Q1229.74 35.1862 1229.74 28.2591 Q1229.74 20.2383 1235.37 15.6203 Q1241.04 11.0023 1250.96 11.0023 Q1255.22 11.0023 1259.63 11.7719 Q1264.05 12.5416 1268.66 14.0809 Z" fill="#000000" fill-rule="evenodd" fill-opacity="1" /><path clip-path="url(#clip130)" d="M1292.12 14.324 L1292.12 27.2059 L1307.47 27.2059 L1307.47 32.9987 L1292.12 32.9987 L1292.12 57.6282 Q1292.12 63.1779 1293.62 64.7578 Q1295.16 66.3376 1299.82 66.3376 L1307.47 66.3376 L1307.47 72.576 L1299.82 72.576 Q1291.19 72.576 1287.91 69.3758 Q1284.62 66.1351 1284.62 57.6282 L1284.62 32.9987 L1279.16 32.9987 L1279.16 27.2059 L1284.62 27.2059 L1284.62 14.324 L1292.12 14.324 Z" fill="#000000" fill-rule="evenodd" fill-opacity="1" /><path clip-path="url(#clip130)" d="M1337.89 49.7694 Q1328.86 49.7694 1325.38 51.8354 Q1321.89 53.9013 1321.89 58.8839 Q1321.89 62.8538 1324.49 65.2034 Q1327.12 67.5124 1331.62 67.5124 Q1337.81 67.5124 1341.54 63.1374 Q1345.31 58.7219 1345.31 51.4303 L1345.31 49.7694 L1337.89 49.7694 M1352.76 46.6907 L1352.76 72.576 L1345.31 72.576 L1345.31 65.6895 Q1342.76 69.8214 1338.95 71.8063 Q1335.14 73.7508 1329.63 73.7508 Q1322.66 73.7508 1318.53 69.8619 Q1314.44 65.9325 1314.44 59.3701 Q1314.44 51.7138 1319.54 47.825 Q1324.69 43.9361 1334.86 43.9361 L1345.31 43.9361 L1345.31 43.2069 Q1345.31 38.0623 1341.9 35.2672 Q1338.54 32.4315 1332.43 32.4315 Q1328.54 32.4315 1324.85 33.3632 Q1321.16 34.295 1317.76 36.1584 L1317.76 29.2718 Q1321.85 27.692 1325.7 26.9223 Q1329.55 26.1121 1333.2 26.1121 Q1343.04 26.1121 1347.9 31.2163 Q1352.76 36.3204 1352.76 46.6907 Z" fill="#000000" fill-rule="evenodd" fill-opacity="1" /><path clip-path="url(#clip130)" d="M1375.49 14.324 L1375.49 27.2059 L1390.84 27.2059 L1390.84 32.9987 L1375.49 32.9987 L1375.49 57.6282 Q1375.49 63.1779 1376.99 64.7578 Q1378.52 66.3376 1383.18 66.3376 L1390.84 66.3376 L1390.84 72.576 L1383.18 72.576 Q1374.55 72.576 1371.27 69.3758 Q1367.99 66.1351 1367.99 57.6282 L1367.99 32.9987 L1362.52 32.9987 L1362.52 27.2059 L1367.99 27.2059 L1367.99 14.324 L1375.49 14.324 Z" fill="#000000" fill-rule="evenodd" fill-opacity="1" /><path clip-path="url(#clip130)" d="M1400.64 27.2059 L1408.1 27.2059 L1408.1 72.576 L1400.64 72.576 L1400.64 27.2059 M1400.64 9.54393 L1408.1 9.54393 L1408.1 18.9825 L1400.64 18.9825 L1400.64 9.54393 Z" fill="#000000" fill-rule="evenodd" fill-opacity="1" /><path clip-path="url(#clip130)" d="M1452.62 28.5427 L1452.62 35.5912 Q1449.46 33.9709 1446.05 33.1607 Q1442.65 32.3505 1439 32.3505 Q1433.46 32.3505 1430.66 34.0519 Q1427.91 35.7533 1427.91 39.156 Q1427.91 41.7486 1429.89 43.2475 Q1431.88 44.7058 1437.87 46.0426 L1440.42 46.6097 Q1448.36 48.3111 1451.68 51.4303 Q1455.05 54.509 1455.05 60.0587 Q1455.05 66.3781 1450.02 70.0644 Q1445.04 73.7508 1436.29 73.7508 Q1432.64 73.7508 1428.67 73.0216 Q1424.75 72.3329 1420.37 70.9151 L1420.37 63.2184 Q1424.5 65.3654 1428.51 66.4591 Q1432.52 67.5124 1436.45 67.5124 Q1441.72 67.5124 1444.55 65.73 Q1447.39 63.9071 1447.39 60.6258 Q1447.39 57.5877 1445.32 55.9673 Q1443.3 54.3469 1436.37 52.8481 L1433.78 52.2405 Q1426.85 50.7821 1423.77 47.7845 Q1420.69 44.7463 1420.69 39.4801 Q1420.69 33.0797 1425.23 29.5959 Q1429.77 26.1121 1438.11 26.1121 Q1442.25 26.1121 1445.89 26.7198 Q1449.54 27.3274 1452.62 28.5427 Z" fill="#000000" fill-rule="evenodd" fill-opacity="1" /><path clip-path="url(#clip130)" d="M1474.29 14.324 L1474.29 27.2059 L1489.64 27.2059 L1489.64 32.9987 L1474.29 32.9987 L1474.29 57.6282 Q1474.29 63.1779 1475.79 64.7578 Q1477.33 66.3376 1481.98 66.3376 L1489.64 66.3376 L1489.64 72.576 L1481.98 72.576 Q1473.36 72.576 1470.08 69.3758 Q1466.79 66.1351 1466.79 57.6282 L1466.79 32.9987 L1461.33 32.9987 L1461.33 27.2059 L1466.79 27.2059 L1466.79 14.324 L1474.29 14.324 Z" fill="#000000" fill-rule="evenodd" fill-opacity="1" /><path clip-path="url(#clip130)" d="M1499.44 27.2059 L1506.9 27.2059 L1506.9 72.576 L1499.44 72.576 L1499.44 27.2059 M1499.44 9.54393 L1506.9 9.54393 L1506.9 18.9825 L1499.44 18.9825 L1499.44 9.54393 Z" fill="#000000" fill-rule="evenodd" fill-opacity="1" /><path clip-path="url(#clip130)" d="M1555.14 28.9478 L1555.14 35.9153 Q1551.98 34.1734 1548.78 33.3227 Q1545.62 32.4315 1542.38 32.4315 Q1535.13 32.4315 1531.12 37.0496 Q1527.11 41.6271 1527.11 49.9314 Q1527.11 58.2358 1531.12 62.8538 Q1535.13 67.4314 1542.38 67.4314 Q1545.62 67.4314 1548.78 66.5807 Q1551.98 65.6895 1555.14 63.9476 L1555.14 70.8341 Q1552.03 72.2924 1548.66 73.0216 Q1545.34 73.7508 1541.57 73.7508 Q1531.32 73.7508 1525.29 67.3098 Q1519.25 60.8689 1519.25 49.9314 Q1519.25 38.832 1525.33 32.472 Q1531.45 26.1121 1542.06 26.1121 Q1545.5 26.1121 1548.78 26.8413 Q1552.07 27.5299 1555.14 28.9478 Z" fill="#000000" fill-rule="evenodd" fill-opacity="1" /><path clip-path="url(#clip130)" d="M1588.73 49.7694 Q1579.69 49.7694 1576.21 51.8354 Q1572.73 53.9013 1572.73 58.8839 Q1572.73 62.8538 1575.32 65.2034 Q1577.95 67.5124 1582.45 67.5124 Q1588.65 67.5124 1592.37 63.1374 Q1596.14 58.7219 1596.14 51.4303 L1596.14 49.7694 L1588.73 49.7694 M1603.59 46.6907 L1603.59 72.576 L1596.14 72.576 L1596.14 65.6895 Q1593.59 69.8214 1589.78 71.8063 Q1585.97 73.7508 1580.46 73.7508 Q1573.49 73.7508 1569.36 69.8619 Q1565.27 65.9325 1565.27 59.3701 Q1565.27 51.7138 1570.38 47.825 Q1575.52 43.9361 1585.69 43.9361 L1596.14 43.9361 L1596.14 43.2069 Q1596.14 38.0623 1592.74 35.2672 Q1589.37 32.4315 1583.26 32.4315 Q1579.37 32.4315 1575.68 33.3632 Q1572 34.295 1568.59 36.1584 L1568.59 29.2718 Q1572.68 27.692 1576.53 26.9223 Q1580.38 26.1121 1584.03 26.1121 Q1593.87 26.1121 1598.73 31.2163 Q1603.59 36.3204 1603.59 46.6907 Z" fill="#000000" fill-rule="evenodd" fill-opacity="1" /><path clip-path="url(#clip130)" d="M1618.95 9.54393 L1626.4 9.54393 L1626.4 72.576 L1618.95 72.576 L1618.95 9.54393 Z" fill="#000000" fill-rule="evenodd" fill-opacity="1" /><path clip-path="url(#clip130)" d="M1668.69 12.096 L1680.88 12.096 L1696.32 53.2532 L1711.83 12.096 L1724.03 12.096 L1724.03 72.576 L1716.05 72.576 L1716.05 19.4686 L1700.45 60.9499 L1692.23 60.9499 L1676.63 19.4686 L1676.63 72.576 L1668.69 72.576 L1668.69 12.096 Z" fill="#000000" fill-rule="evenodd" fill-opacity="1" /><path clip-path="url(#clip130)" d="M1757.53 32.4315 Q1751.53 32.4315 1748.05 37.1306 Q1744.56 41.7891 1744.56 49.9314 Q1744.56 58.0738 1748.01 62.7728 Q1751.49 67.4314 1757.53 67.4314 Q1763.48 67.4314 1766.97 62.7323 Q1770.45 58.0333 1770.45 49.9314 Q1770.45 41.8701 1766.97 37.1711 Q1763.48 32.4315 1757.53 32.4315 M1757.53 26.1121 Q1767.25 26.1121 1772.8 32.4315 Q1778.35 38.7509 1778.35 49.9314 Q1778.35 61.0714 1772.8 67.4314 Q1767.25 73.7508 1757.53 73.7508 Q1747.76 73.7508 1742.21 67.4314 Q1736.71 61.0714 1736.71 49.9314 Q1736.71 38.7509 1742.21 32.4315 Q1747.76 26.1121 1757.53 26.1121 Z" fill="#000000" fill-rule="evenodd" fill-opacity="1" /><path clip-path="url(#clip130)" d="M1820.56 34.0924 L1820.56 9.54393 L1828.01 9.54393 L1828.01 72.576 L1820.56 72.576 L1820.56 65.7705 Q1818.21 69.8214 1814.6 71.8063 Q1811.04 73.7508 1806.02 73.7508 Q1797.79 73.7508 1792.61 67.1883 Q1787.46 60.6258 1787.46 49.9314 Q1787.46 39.2371 1792.61 32.6746 Q1797.79 26.1121 1806.02 26.1121 Q1811.04 26.1121 1814.6 28.0971 Q1818.21 30.0415 1820.56 34.0924 M1795.16 49.9314 Q1795.16 58.1548 1798.52 62.8538 Q1801.93 67.5124 1807.84 67.5124 Q1813.75 67.5124 1817.16 62.8538 Q1820.56 58.1548 1820.56 49.9314 Q1820.56 41.7081 1817.16 37.0496 Q1813.75 32.3505 1807.84 32.3505 Q1801.93 32.3505 1798.52 37.0496 Q1795.16 41.7081 1795.16 49.9314 Z" fill="#000000" fill-rule="evenodd" fill-opacity="1" /><path clip-path="url(#clip130)" d="M1882.17 48.0275 L1882.17 51.6733 L1847.9 51.6733 Q1848.39 59.3701 1852.52 63.421 Q1856.69 67.4314 1864.11 67.4314 Q1868.4 67.4314 1872.41 66.3781 Q1876.46 65.3249 1880.43 63.2184 L1880.43 70.267 Q1876.42 71.9684 1872.21 72.8596 Q1868 73.7508 1863.66 73.7508 Q1852.8 73.7508 1846.44 67.4314 Q1840.13 61.1119 1840.13 50.3365 Q1840.13 39.1965 1846.12 32.6746 Q1852.16 26.1121 1862.36 26.1121 Q1871.52 26.1121 1876.83 32.0264 Q1882.17 37.9003 1882.17 48.0275 M1874.72 45.84 Q1874.64 39.7232 1871.28 36.0774 Q1867.96 32.4315 1862.45 32.4315 Q1856.21 32.4315 1852.44 35.9558 Q1848.71 39.4801 1848.15 45.8805 L1874.72 45.84 Z" fill="#000000" fill-rule="evenodd" fill-opacity="1" /><path clip-path="url(#clip130)" d="M1894.41 9.54393 L1901.86 9.54393 L1901.86 72.576 L1894.41 72.576 L1894.41 9.54393 Z" fill="#000000" fill-rule="evenodd" fill-opacity="1" /><polyline clip-path="url(#clip132)" style="stroke:#009af9; stroke-linecap:butt; stroke-linejoin:round; stroke-width:4; stroke-opacity:1; fill:none" points="
  748.06,1447.87 748.06,1377.22 773.776,1377.22 773.776,1292.44 799.492,1292.44 799.492,1221.79 825.208,1221.79 825.208,1137.01 850.925,1137.01 850.925,1165.27 
  876.641,1165.27 876.641,1108.75 902.357,1108.75 902.357,967.455 928.074,967.455 928.074,1009.84 953.79,1009.84 953.79,967.455 979.506,967.455 979.506,939.195 
  1005.22,939.195 1005.22,826.155 1030.94,826.155 1030.94,953.325 1056.66,953.325 1056.66,896.805 1082.37,896.805 1082.37,1023.97 1108.09,1023.97 1108.09,967.455 
  1133.8,967.455 1133.8,1137.01 1159.52,1137.01 1159.52,1179.4 1185.24,1179.4 1185.24,1363.09 1210.95,1363.09 1210.95,1348.96 1236.67,1348.96 1236.67,1363.09 
  1262.39,1363.09 1262.39,1391.35 1288.1,1391.35 1288.1,1363.09 1313.82,1363.09 1313.82,1433.74 1339.53,1433.74 1365.25,1433.74 1365.25,1419.61 
  1390.97,1419.61 1390.97,1405.48 1416.68,1405.48 1442.4,1405.48 1442.4,1377.22 1468.12,1377.22 1468.12,1447.87 1493.83,1447.87 1493.83,1334.83 
  1519.55,1334.83 1519.55,1278.31 1545.26,1278.31 1545.26,1193.53 1570.98,1193.53 1570.98,995.714 1596.7,995.714 1596.7,1052.23 1622.41,1052.23 1622.41,953.325 
  1648.13,953.325 1648.13,670.725 1673.85,670.725 1673.85,529.426 1699.56,529.426 1699.56,232.697 1725.28,232.697 1725.28,162.047 1750.99,162.047 1750.99,388.126 
  1776.71,388.126 1776.71,501.166 1802.43,501.166 1802.43,430.516 1828.14,430.516 1828.14,246.827 1853.86,246.827 1853.86,543.556 1879.58,543.556 1879.58,755.505 
  1905.29,755.505 1905.29,896.805 1931.01,896.805 1931.01,953.325 1956.73,953.325 1956.73,1066.36 1982.44,1066.36 1982.44,1207.66 2008.16,1207.66 2008.16,1292.44 
  2033.87,1292.44 2033.87,1363.09 2059.59,1363.09 2059.59,1377.22 2085.31,1377.22 2085.31,1419.61 2111.02,1419.61 2111.02,1433.74 2136.74,1433.74 2136.74,1419.61 
  2162.46,1419.61 2162.46,1433.74 2188.17,1433.74 2188.17,1447.87 2213.89,1447.87 2239.6,1447.87 2265.32,1447.87 
  2291.04,1447.87 
  "/>
<polyline clip-path="url(#clip132)" style="stroke:#e26f46; stroke-linecap:butt; stroke-linejoin:round; stroke-width:4; stroke-opacity:1; fill:none" points="
  233.734,1447.87 236.306,1447.87 238.877,1447.87 241.449,1447.87 244.02,1447.87 246.592,1447.87 249.164,1447.87 251.735,1447.87 254.307,1447.87 256.879,1447.87 
  259.45,1447.87 262.022,1447.87 264.593,1447.87 267.165,1447.87 269.737,1447.87 272.308,1447.87 274.88,1447.87 277.452,1447.87 280.023,1447.87 282.595,1447.87 
  285.166,1447.87 287.738,1447.87 290.31,1447.87 292.881,1447.87 295.453,1447.87 298.025,1447.87 300.596,1447.87 303.168,1447.87 305.74,1447.87 308.311,1447.87 
  310.883,1447.87 313.454,1447.87 316.026,1447.87 318.598,1447.87 321.169,1447.87 323.741,1447.87 326.313,1447.87 328.884,1447.87 331.456,1447.87 334.027,1447.87 
  336.599,1447.87 339.171,1447.87 341.742,1447.87 344.314,1447.87 346.886,1447.87 349.457,1447.87 352.029,1447.87 354.6,1447.87 357.172,1447.87 359.744,1447.87 
  362.315,1447.87 364.887,1447.87 367.459,1447.87 370.03,1447.87 372.602,1447.87 375.173,1447.87 377.745,1447.87 380.317,1447.87 382.888,1447.87 385.46,1447.87 
  388.032,1447.87 390.603,1447.87 393.175,1447.87 395.747,1447.87 398.318,1447.86 400.89,1447.86 403.461,1447.86 406.033,1447.86 408.605,1447.86 411.176,1447.86 
  413.748,1447.86 416.32,1447.86 418.891,1447.86 421.463,1447.85 424.034,1447.85 426.606,1447.85 429.178,1447.85 431.749,1447.85 434.321,1447.84 436.893,1447.84 
  439.464,1447.84 442.036,1447.83 444.607,1447.83 447.179,1447.83 449.751,1447.82 452.322,1447.82 454.894,1447.81 457.466,1447.81 460.037,1447.8 462.609,1447.8 
  465.18,1447.79 467.752,1447.78 470.324,1447.77 472.895,1447.77 475.467,1447.76 478.039,1447.75 480.61,1447.74 483.182,1447.72 485.754,1447.71 488.325,1447.7 
  490.897,1447.68 493.468,1447.67 496.04,1447.65 498.612,1447.63 501.183,1447.61 503.755,1447.59 506.327,1447.57 508.898,1447.55 511.47,1447.52 514.041,1447.49 
  516.613,1447.46 519.185,1447.43 521.756,1447.39 524.328,1447.36 526.9,1447.32 529.471,1447.27 532.043,1447.23 534.614,1447.18 537.186,1447.13 539.758,1447.07 
  542.329,1447.01 544.901,1446.94 547.473,1446.88 550.044,1446.8 552.616,1446.72 555.187,1446.64 557.759,1446.55 560.331,1446.46 562.902,1446.35 565.474,1446.25 
  568.046,1446.13 570.617,1446.01 573.189,1445.88 575.761,1445.74 578.332,1445.6 580.904,1445.44 583.475,1445.27 586.047,1445.1 588.619,1444.91 591.19,1444.71 
  593.762,1444.5 596.334,1444.28 598.905,1444.05 601.477,1443.8 604.048,1443.54 606.62,1443.26 609.192,1442.96 611.763,1442.65 614.335,1442.32 616.907,1441.98 
  619.478,1441.61 622.05,1441.23 624.621,1440.82 627.193,1440.39 629.765,1439.94 632.336,1439.46 634.908,1438.96 637.48,1438.44 640.051,1437.88 642.623,1437.3 
  645.194,1436.69 647.766,1436.05 650.338,1435.37 652.909,1434.67 655.481,1433.93 658.053,1433.15 660.624,1432.33 663.196,1431.48 665.768,1430.59 668.339,1429.66 
  670.911,1428.68 673.482,1427.66 676.054,1426.59 678.626,1425.48 681.197,1424.32 683.769,1423.11 686.341,1421.84 688.912,1420.52 691.484,1419.15 694.055,1417.72 
  696.627,1416.23 699.199,1414.68 701.77,1413.07 704.342,1411.39 706.914,1409.65 709.485,1407.85 712.057,1405.97 714.628,1404.03 717.2,1402.01 719.772,1399.91 
  722.343,1397.75 724.915,1395.5 727.487,1393.18 730.058,1390.78 732.63,1388.29 735.201,1385.72 737.773,1383.07 740.345,1380.33 742.916,1377.51 745.488,1374.59 
  748.06,1371.58 750.631,1368.49 753.203,1365.3 755.775,1362.01 758.346,1358.63 760.918,1355.16 763.489,1351.59 766.061,1347.92 768.633,1344.15 771.204,1340.28 
  773.776,1336.32 776.348,1332.25 778.919,1328.08 781.491,1323.82 784.062,1319.45 786.634,1314.98 789.206,1310.41 791.777,1305.74 794.349,1300.98 796.921,1296.11 
  799.492,1291.14 802.064,1286.08 804.635,1280.92 807.207,1275.66 809.779,1270.31 812.35,1264.87 814.922,1259.33 817.494,1253.7 820.065,1247.99 822.637,1242.19 
  825.208,1236.31 827.78,1230.34 830.352,1224.3 832.923,1218.18 835.495,1211.99 838.067,1205.73 840.638,1199.4 843.21,1193.01 845.782,1186.56 848.353,1180.05 
  850.925,1173.49 853.496,1166.88 856.068,1160.23 858.64,1153.54 861.211,1146.81 863.783,1140.05 866.355,1133.26 868.926,1126.46 871.498,1119.64 874.069,1112.81 
  876.641,1105.97 879.213,1099.13 881.784,1092.3 884.356,1085.48 886.928,1078.68 889.499,1071.9 892.071,1065.14 894.642,1058.43 897.214,1051.75 899.786,1045.12 
  902.357,1038.54 904.929,1032.02 907.501,1025.57 910.072,1019.19 912.644,1012.88 915.215,1006.66 917.787,1000.53 920.359,994.494 922.93,988.561 925.502,982.738 
  928.074,977.028 930.645,971.439 933.217,965.977 935.789,960.647 938.36,955.455 940.932,950.406 943.503,945.507 946.075,940.763 948.647,936.178 951.218,931.758 
  953.79,927.509 956.362,923.434 958.933,919.539 961.505,915.828 964.076,912.305 966.648,908.974 969.22,905.839 971.791,902.904 974.363,900.172 976.935,897.647 
  979.506,895.331 982.078,893.228 984.649,891.339 987.221,889.667 989.793,888.213 992.364,886.981 994.936,885.97 997.508,885.183 1000.08,884.62 1002.65,884.282 
  1005.22,884.169 1007.79,884.282 1010.37,884.62 1012.94,885.183 1015.51,885.97 1018.08,886.981 1020.65,888.213 1023.22,889.667 1025.8,891.339 1028.37,893.228 
  1030.94,895.331 1033.51,897.647 1036.08,900.172 1038.65,902.904 1041.23,905.839 1043.8,908.974 1046.37,912.304 1048.94,915.828 1051.51,919.539 1054.08,923.434 
  1056.66,927.509 1059.23,931.758 1061.8,936.178 1064.37,940.762 1066.94,945.507 1069.51,950.406 1072.08,955.454 1074.66,960.646 1077.23,965.976 1079.8,971.439 
  1082.37,977.028 1084.94,982.737 1087.51,988.561 1090.09,994.493 1092.66,1000.53 1095.23,1006.66 1097.8,1012.88 1100.37,1019.18 1102.94,1025.57 1105.52,1032.02 
  1108.09,1038.54 1110.66,1045.12 1113.23,1051.75 1115.8,1058.42 1118.37,1065.14 1120.95,1071.89 1123.52,1078.67 1126.09,1085.48 1128.66,1092.3 1131.23,1099.13 
  1133.8,1105.97 1136.38,1112.8 1138.95,1119.63 1141.52,1126.45 1144.09,1133.26 1146.66,1140.04 1149.23,1146.8 1151.81,1153.53 1154.38,1160.22 1156.95,1166.87 
  1159.52,1173.48 1162.09,1180.04 1164.66,1186.54 1167.24,1192.99 1169.81,1199.39 1172.38,1205.71 1174.95,1211.97 1177.52,1218.16 1180.09,1224.28 1182.66,1230.32 
  1185.24,1236.28 1187.81,1242.16 1190.38,1247.96 1192.95,1253.67 1195.52,1259.29 1198.09,1264.82 1200.67,1270.26 1203.24,1275.61 1205.81,1280.86 1208.38,1286.01 
  1210.95,1291.07 1213.52,1296.03 1216.1,1300.89 1218.67,1305.65 1221.24,1310.31 1223.81,1314.87 1226.38,1319.33 1228.95,1323.69 1231.53,1327.94 1234.1,1332.1 
  1236.67,1336.15 1239.24,1340.1 1241.81,1343.95 1244.38,1347.7 1246.96,1351.35 1249.53,1354.91 1252.1,1358.36 1254.67,1361.72 1257.24,1364.97 1259.81,1368.14 
  1262.39,1371.21 1264.96,1374.18 1267.53,1377.06 1270.1,1379.85 1272.67,1382.55 1275.24,1385.16 1277.82,1387.69 1280.39,1390.12 1282.96,1392.47 1285.53,1394.74 
  1288.1,1396.92 1290.67,1399.02 1293.24,1401.05 1295.82,1402.99 1298.39,1404.86 1300.96,1406.65 1303.53,1408.36 1306.1,1410 1308.67,1411.57 1311.25,1413.07 
  1313.82,1414.5 1316.39,1415.86 1318.96,1417.15 1321.53,1418.38 1324.1,1419.54 1326.68,1420.64 1329.25,1421.67 1331.82,1422.65 1334.39,1423.56 1336.96,1424.41 
  1339.53,1425.2 1342.11,1425.93 1344.68,1426.6 1347.25,1427.22 1349.82,1427.78 1352.39,1428.28 1354.96,1428.73 1357.54,1429.12 1360.11,1429.45 1362.68,1429.73 
  1365.25,1429.95 1367.82,1430.12 1370.39,1430.23 1372.97,1430.29 1375.54,1430.29 1378.11,1430.23 1380.68,1430.12 1383.25,1429.95 1385.82,1429.72 1388.4,1429.43 
  1390.97,1429.09 1393.54,1428.68 1396.11,1428.21 1398.68,1427.68 1401.25,1427.09 1403.82,1426.44 1406.4,1425.71 1408.97,1424.92 1411.54,1424.06 1414.11,1423.14 
  1416.68,1422.14 1419.25,1421.06 1421.83,1419.91 1424.4,1418.68 1426.97,1417.38 1429.54,1415.99 1432.11,1414.52 1434.68,1412.96 1437.26,1411.31 1439.83,1409.58 
  1442.4,1407.75 1444.97,1405.82 1447.54,1403.8 1450.11,1401.67 1452.69,1399.44 1455.26,1397.11 1457.83,1394.66 1460.4,1392.1 1462.97,1389.43 1465.54,1386.64 
  1468.12,1383.72 1470.69,1380.68 1473.26,1377.52 1475.83,1374.22 1478.4,1370.79 1480.97,1367.22 1483.55,1363.51 1486.12,1359.66 1488.69,1355.66 1491.26,1351.51 
  1493.83,1347.21 1496.4,1342.75 1498.98,1338.13 1501.55,1333.35 1504.12,1328.41 1506.69,1323.3 1509.26,1318.01 1511.83,1312.55 1514.4,1306.92 1516.98,1301.1 
  1519.55,1295.11 1522.12,1288.93 1524.69,1282.56 1527.26,1276 1529.83,1269.26 1532.41,1262.32 1534.98,1255.18 1537.55,1247.85 1540.12,1240.33 1542.69,1232.6 
  1545.26,1224.68 1547.84,1216.55 1550.41,1208.23 1552.98,1199.7 1555.55,1190.97 1558.12,1182.04 1560.69,1172.9 1563.27,1163.57 1565.84,1154.04 1568.41,1144.31 
  1570.98,1134.38 1573.55,1124.25 1576.12,1113.93 1578.7,1103.42 1581.27,1092.72 1583.84,1081.83 1586.41,1070.77 1588.98,1059.52 1591.55,1048.09 1594.13,1036.49 
  1596.7,1024.73 1599.27,1012.8 1601.84,1000.72 1604.41,988.483 1606.98,976.101 1609.56,963.578 1612.13,950.922 1614.7,938.138 1617.27,925.235 1619.84,912.22 
  1622.41,899.099 1624.99,885.883 1627.56,872.577 1630.13,859.193 1632.7,845.738 1635.27,832.221 1637.84,818.653 1640.41,805.043 1642.99,791.401 1645.56,777.738 
  1648.13,764.064 1650.7,750.39 1653.27,736.727 1655.84,723.086 1658.42,709.479 1660.99,695.917 1663.56,682.413 1666.13,668.977 1668.7,655.623 1671.27,642.362 
  1673.85,629.206 1676.42,616.169 1678.99,603.262 1681.56,590.497 1684.13,577.888 1686.7,565.446 1689.28,553.184 1691.85,541.114 1694.42,529.25 1696.99,517.602 
  1699.56,506.183 1702.13,495.005 1704.71,484.08 1707.28,473.42 1709.85,463.036 1712.42,452.939 1714.99,443.141 1717.56,433.652 1720.14,424.483 1722.71,415.644 
  1725.28,407.145 1727.85,398.995 1730.42,391.205 1732.99,383.782 1735.57,376.736 1738.14,370.074 1740.71,363.805 1743.28,357.935 1745.85,352.472 1748.42,347.421 
  1750.99,342.79 1753.57,338.582 1756.14,334.804 1758.71,331.46 1761.28,328.554 1763.85,326.089 1766.42,324.067 1769,322.493 1771.57,321.367 1774.14,320.691 
  1776.71,320.466 1779.28,320.691 1781.85,321.367 1784.43,322.493 1787,324.067 1789.57,326.089 1792.14,328.554 1794.71,331.46 1797.28,334.804 1799.86,338.582 
  1802.43,342.79 1805,347.421 1807.57,352.472 1810.14,357.935 1812.71,363.805 1815.29,370.074 1817.86,376.736 1820.43,383.782 1823,391.205 1825.57,398.995 
  1828.14,407.145 1830.72,415.644 1833.29,424.483 1835.86,433.652 1838.43,443.141 1841,452.939 1843.57,463.036 1846.15,473.42 1848.72,484.081 1851.29,495.005 
  1853.86,506.183 1856.43,517.602 1859,529.25 1861.57,541.115 1864.15,553.184 1866.72,565.446 1869.29,577.888 1871.86,590.498 1874.43,603.262 1877,616.17 
  1879.58,629.207 1882.15,642.363 1884.72,655.624 1887.29,668.978 1889.86,682.414 1892.43,695.918 1895.01,709.48 1897.58,723.087 1900.15,736.728 1902.72,750.392 
  1905.29,764.066 1907.86,777.74 1910.44,791.404 1913.01,805.046 1915.58,818.656 1918.15,832.225 1920.72,845.741 1923.29,859.197 1925.87,872.582 1928.44,885.888 
  1931.01,899.105 1933.58,912.226 1936.15,925.242 1938.72,938.146 1941.3,950.93 1943.87,963.587 1946.44,976.11 1949.01,988.494 1951.58,1000.73 1954.15,1012.82 
  1956.73,1024.74 1959.3,1036.51 1961.87,1048.11 1964.44,1059.54 1967.01,1070.79 1969.58,1081.86 1972.15,1092.75 1974.73,1103.45 1977.3,1113.96 1979.87,1124.28 
  1982.44,1134.41 1985.01,1144.34 1987.58,1154.08 1990.16,1163.62 1992.73,1172.95 1995.3,1182.09 1997.87,1191.03 2000.44,1199.76 2003.01,1208.3 2005.59,1216.63 
  2008.16,1224.76 2010.73,1232.69 2013.3,1240.43 2015.87,1247.96 2018.44,1255.3 2021.02,1262.44 2023.59,1269.39 2026.16,1276.15 2028.73,1282.72 2031.3,1289.1 
  2033.87,1295.3 2036.45,1301.31 2039.02,1307.14 2041.59,1312.79 2044.16,1318.27 2046.73,1323.58 2049.3,1328.71 2051.88,1333.68 2054.45,1338.49 2057.02,1343.13 
  2059.59,1347.62 2062.16,1351.96 2064.73,1356.14 2067.31,1360.18 2069.88,1364.07 2072.45,1367.82 2075.02,1371.44 2077.59,1374.92 2080.16,1378.27 2082.73,1381.49 
  2085.31,1384.59 2087.88,1387.56 2090.45,1390.43 2093.02,1393.17 2095.59,1395.81 2098.16,1398.34 2100.74,1400.76 2103.31,1403.09 2105.88,1405.31 2108.45,1407.45 
  2111.02,1409.49 2113.59,1411.44 2116.17,1413.31 2118.74,1415.09 2121.31,1416.8 2123.88,1418.42 2126.45,1419.98 2129.02,1421.46 2131.6,1422.87 2134.17,1424.22 
  2136.74,1425.5 2139.31,1426.73 2141.88,1427.89 2144.45,1429 2147.03,1430.05 2149.6,1431.05 2152.17,1432 2154.74,1432.91 2157.31,1433.76 2159.88,1434.58 
  2162.46,1435.35 2165.03,1436.08 2167.6,1436.77 2170.17,1437.43 2172.74,1438.05 2175.31,1438.64 2177.89,1439.2 2180.46,1439.72 2183.03,1440.22 2185.6,1440.69 
  2188.17,1441.14 2190.74,1441.55 2193.31,1441.95 2195.89,1442.32 2198.46,1442.67 2201.03,1443.01 2203.6,1443.32 2206.17,1443.61 2208.74,1443.89 2211.32,1444.15 
  2213.89,1444.39 2216.46,1444.62 2219.03,1444.84 2221.6,1445.04 2224.17,1445.23 2226.75,1445.41 2229.32,1445.57 2231.89,1445.73 2234.46,1445.88 2237.03,1446.02 
  2239.6,1446.14 2242.18,1446.26 2244.75,1446.38 2247.32,1446.48 2249.89,1446.58 2252.46,1446.67 2255.03,1446.76 2257.61,1446.84 2260.18,1446.91 2262.75,1446.98 
  2265.32,1447.05 2267.89,1447.11 2270.46,1447.16 2273.04,1447.22 2275.61,1447.27 2278.18,1447.31 2280.75,1447.35 2283.32,1447.39 2285.89,1447.43 2288.47,1447.46 
  2291.04,1447.49 
  "/>
<path clip-path="url(#clip130)" d="
M1921.49 324.425 L2280.06 324.425 L2280.06 168.905 L1921.49 168.905  Z
  " fill="#ffffff" fill-rule="evenodd" fill-opacity="1"/>
<polyline clip-path="url(#clip130)" style="stroke:#000000; stroke-linecap:butt; stroke-linejoin:round; stroke-width:4; stroke-opacity:1; fill:none" points="
  1921.49,324.425 2280.06,324.425 2280.06,168.905 1921.49,168.905 1921.49,324.425 
  "/>
<polyline clip-path="url(#clip130)" style="stroke:#009af9; stroke-linecap:butt; stroke-linejoin:round; stroke-width:4; stroke-opacity:1; fill:none" points="
  1945.72,220.745 2091.1,220.745 
  "/>
<path clip-path="url(#clip130)" d="M2120.01 207.307 L2120.01 234.182 L2125.66 234.182 Q2132.81 234.182 2136.12 230.941 Q2139.45 227.701 2139.45 220.71 Q2139.45 213.766 2136.12 210.548 Q2132.81 207.307 2125.66 207.307 L2120.01 207.307 M2115.33 203.465 L2124.94 203.465 Q2134.98 203.465 2139.68 207.654 Q2144.38 211.821 2144.38 220.71 Q2144.38 229.645 2139.66 233.835 Q2134.94 238.025 2124.94 238.025 L2115.33 238.025 L2115.33 203.465 Z" fill="#000000" fill-rule="evenodd" fill-opacity="1" /><path clip-path="url(#clip130)" d="M2163.43 224.992 Q2158.27 224.992 2156.28 226.173 Q2154.29 227.353 2154.29 230.201 Q2154.29 232.469 2155.77 233.812 Q2157.28 235.131 2159.84 235.131 Q2163.39 235.131 2165.52 232.631 Q2167.67 230.108 2167.67 225.941 L2167.67 224.992 L2163.43 224.992 M2171.93 223.233 L2171.93 238.025 L2167.67 238.025 L2167.67 234.089 Q2166.21 236.451 2164.03 237.585 Q2161.86 238.696 2158.71 238.696 Q2154.73 238.696 2152.37 236.474 Q2150.03 234.228 2150.03 230.478 Q2150.03 226.103 2152.95 223.881 Q2155.89 221.659 2161.7 221.659 L2167.67 221.659 L2167.67 221.242 Q2167.67 218.303 2165.72 216.705 Q2163.8 215.085 2160.31 215.085 Q2158.09 215.085 2155.98 215.617 Q2153.87 216.15 2151.93 217.215 L2151.93 213.279 Q2154.27 212.377 2156.47 211.937 Q2158.66 211.474 2160.75 211.474 Q2166.37 211.474 2169.15 214.391 Q2171.93 217.307 2171.93 223.233 Z" fill="#000000" fill-rule="evenodd" fill-opacity="1" /><path clip-path="url(#clip130)" d="M2184.91 204.738 L2184.91 212.099 L2193.69 212.099 L2193.69 215.409 L2184.91 215.409 L2184.91 229.483 Q2184.91 232.654 2185.77 233.557 Q2186.65 234.46 2189.31 234.46 L2193.69 234.46 L2193.69 238.025 L2189.31 238.025 Q2184.38 238.025 2182.51 236.196 Q2180.63 234.344 2180.63 229.483 L2180.63 215.409 L2177.51 215.409 L2177.51 212.099 L2180.63 212.099 L2180.63 204.738 L2184.91 204.738 Z" fill="#000000" fill-rule="evenodd" fill-opacity="1" /><path clip-path="url(#clip130)" d="M2211.07 224.992 Q2205.91 224.992 2203.92 226.173 Q2201.93 227.353 2201.93 230.201 Q2201.93 232.469 2203.41 233.812 Q2204.91 235.131 2207.48 235.131 Q2211.03 235.131 2213.15 232.631 Q2215.31 230.108 2215.31 225.941 L2215.31 224.992 L2211.07 224.992 M2219.57 223.233 L2219.57 238.025 L2215.31 238.025 L2215.31 234.089 Q2213.85 236.451 2211.67 237.585 Q2209.5 238.696 2206.35 238.696 Q2202.37 238.696 2200.01 236.474 Q2197.67 234.228 2197.67 230.478 Q2197.67 226.103 2200.59 223.881 Q2203.53 221.659 2209.34 221.659 L2215.31 221.659 L2215.31 221.242 Q2215.31 218.303 2213.36 216.705 Q2211.44 215.085 2207.95 215.085 Q2205.72 215.085 2203.62 215.617 Q2201.51 216.15 2199.57 217.215 L2199.57 213.279 Q2201.9 212.377 2204.1 211.937 Q2206.3 211.474 2208.39 211.474 Q2214.01 211.474 2216.79 214.391 Q2219.57 217.307 2219.57 223.233 Z" fill="#000000" fill-rule="evenodd" fill-opacity="1" /><polyline clip-path="url(#clip130)" style="stroke:#e26f46; stroke-linecap:butt; stroke-linejoin:round; stroke-width:4; stroke-opacity:1; fill:none" points="
  1945.72,272.585 2091.1,272.585 
  "/>
<path clip-path="url(#clip130)" d="M2115.33 255.305 L2144.57 255.305 L2144.57 259.24 L2132.3 259.24 L2132.3 289.865 L2127.6 289.865 L2127.6 259.24 L2115.33 259.24 L2115.33 255.305 Z" fill="#000000" fill-rule="evenodd" fill-opacity="1" /><path clip-path="url(#clip130)" d="M2156.95 267.92 Q2156.23 267.504 2155.38 267.318 Q2154.54 267.11 2153.53 267.11 Q2149.91 267.11 2147.97 269.471 Q2146.05 271.809 2146.05 276.207 L2146.05 289.865 L2141.77 289.865 L2141.77 263.939 L2146.05 263.939 L2146.05 267.967 Q2147.39 265.606 2149.54 264.471 Q2151.7 263.314 2154.78 263.314 Q2155.22 263.314 2155.75 263.383 Q2156.28 263.43 2156.93 263.545 L2156.95 267.92 Z" fill="#000000" fill-rule="evenodd" fill-opacity="1" /><path clip-path="url(#clip130)" d="M2160.98 279.633 L2160.98 263.939 L2165.24 263.939 L2165.24 279.471 Q2165.24 283.152 2166.67 285.004 Q2168.11 286.832 2170.98 286.832 Q2174.43 286.832 2176.42 284.633 Q2178.43 282.434 2178.43 278.638 L2178.43 263.939 L2182.69 263.939 L2182.69 289.865 L2178.43 289.865 L2178.43 285.883 Q2176.88 288.244 2174.82 289.402 Q2172.78 290.536 2170.08 290.536 Q2165.61 290.536 2163.29 287.758 Q2160.98 284.98 2160.98 279.633 M2171.7 263.314 L2171.7 263.314 Z" fill="#000000" fill-rule="evenodd" fill-opacity="1" /><path clip-path="url(#clip130)" d="M2195.68 256.578 L2195.68 263.939 L2204.45 263.939 L2204.45 267.249 L2195.68 267.249 L2195.68 281.323 Q2195.68 284.494 2196.53 285.397 Q2197.41 286.3 2200.08 286.3 L2204.45 286.3 L2204.45 289.865 L2200.08 289.865 Q2195.15 289.865 2193.27 288.036 Q2191.4 286.184 2191.4 281.323 L2191.4 267.249 L2188.27 267.249 L2188.27 263.939 L2191.4 263.939 L2191.4 256.578 L2195.68 256.578 Z" fill="#000000" fill-rule="evenodd" fill-opacity="1" /><path clip-path="url(#clip130)" d="M2231.6 274.217 L2231.6 289.865 L2227.34 289.865 L2227.34 274.355 Q2227.34 270.675 2225.91 268.846 Q2224.47 267.018 2221.6 267.018 Q2218.15 267.018 2216.16 269.217 Q2214.17 271.416 2214.17 275.212 L2214.17 289.865 L2209.89 289.865 L2209.89 253.846 L2214.17 253.846 L2214.17 267.967 Q2215.7 265.629 2217.76 264.471 Q2219.84 263.314 2222.55 263.314 Q2227.02 263.314 2229.31 266.092 Q2231.6 268.846 2231.6 274.217 Z" fill="#000000" fill-rule="evenodd" fill-opacity="1" /></svg>
