<?xml version="1.0" encoding="utf-8"?>
<svg xmlns="http://www.w3.org/2000/svg" xmlns:xlink="http://www.w3.org/1999/xlink" width="600" height="400" viewBox="0 0 2400 1600">
<defs>
  <clipPath id="clip100">
    <rect x="0" y="0" width="2400" height="1600"/>
  </clipPath>
</defs>
<path clip-path="url(#clip100)" d="
M0 1600 L2400 1600 L2400 0 L0 0  Z
  " fill="#ffffff" fill-rule="evenodd" fill-opacity="1"/>
<defs>
  <clipPath id="clip101">
    <rect x="480" y="0" width="1681" height="1600"/>
  </clipPath>
</defs>
<path clip-path="url(#clip100)" d="
M172.015 1486.45 L2352.76 1486.45 L2352.76 123.472 L172.015 123.472  Z
  " fill="#ffffff" fill-rule="evenodd" fill-opacity="1"/>
<defs>
  <clipPath id="clip102">
    <rect x="172" y="123" width="2182" height="1364"/>
  </clipPath>
</defs>
<polyline clip-path="url(#clip102)" style="stroke:#000000; stroke-linecap:butt; stroke-linejoin:round; stroke-width:2; stroke-opacity:0.1; fill:none" points="
  233.734,1486.45 233.734,123.472 
  "/>
<polyline clip-path="url(#clip102)" style="stroke:#000000; stroke-linecap:butt; stroke-linejoin:round; stroke-width:2; stroke-opacity:0.1; fill:none" points="
  576.618,1486.45 576.618,123.472 
  "/>
<polyline clip-path="url(#clip102)" style="stroke:#000000; stroke-linecap:butt; stroke-linejoin:round; stroke-width:2; stroke-opacity:0.1; fill:none" points="
  919.502,1486.45 919.502,123.472 
  "/>
<polyline clip-path="url(#clip102)" style="stroke:#000000; stroke-linecap:butt; stroke-linejoin:round; stroke-width:2; stroke-opacity:0.1; fill:none" points="
  1262.39,1486.45 1262.39,123.472 
  "/>
<polyline clip-path="url(#clip102)" style="stroke:#000000; stroke-linecap:butt; stroke-linejoin:round; stroke-width:2; stroke-opacity:0.1; fill:none" points="
  1605.27,1486.45 1605.27,123.472 
  "/>
<polyline clip-path="url(#clip102)" style="stroke:#000000; stroke-linecap:butt; stroke-linejoin:round; stroke-width:2; stroke-opacity:0.1; fill:none" points="
  1948.15,1486.45 1948.15,123.472 
  "/>
<polyline clip-path="url(#clip102)" style="stroke:#000000; stroke-linecap:butt; stroke-linejoin:round; stroke-width:2; stroke-opacity:0.1; fill:none" points="
  2291.04,1486.45 2291.04,123.472 
  "/>
<polyline clip-path="url(#clip100)" style="stroke:#000000; stroke-linecap:butt; stroke-linejoin:round; stroke-width:4; stroke-opacity:1; fill:none" points="
  172.015,1486.45 2352.76,1486.45 
  "/>
<polyline clip-path="url(#clip100)" style="stroke:#000000; stroke-linecap:butt; stroke-linejoin:round; stroke-width:4; stroke-opacity:1; fill:none" points="
  233.734,1486.45 233.734,1467.55 
  "/>
<polyline clip-path="url(#clip100)" style="stroke:#000000; stroke-linecap:butt; stroke-linejoin:round; stroke-width:4; stroke-opacity:1; fill:none" points="
  576.618,1486.45 576.618,1467.55 
  "/>
<polyline clip-path="url(#clip100)" style="stroke:#000000; stroke-linecap:butt; stroke-linejoin:round; stroke-width:4; stroke-opacity:1; fill:none" points="
  919.502,1486.45 919.502,1467.55 
  "/>
<polyline clip-path="url(#clip100)" style="stroke:#000000; stroke-linecap:butt; stroke-linejoin:round; stroke-width:4; stroke-opacity:1; fill:none" points="
  1262.39,1486.45 1262.39,1467.55 
  "/>
<polyline clip-path="url(#clip100)" style="stroke:#000000; stroke-linecap:butt; stroke-linejoin:round; stroke-width:4; stroke-opacity:1; fill:none" points="
  1605.27,1486.45 1605.27,1467.55 
  "/>
<polyline clip-path="url(#clip100)" style="stroke:#000000; stroke-linecap:butt; stroke-linejoin:round; stroke-width:4; stroke-opacity:1; fill:none" points="
  1948.15,1486.45 1948.15,1467.55 
  "/>
<polyline clip-path="url(#clip100)" style="stroke:#000000; stroke-linecap:butt; stroke-linejoin:round; stroke-width:4; stroke-opacity:1; fill:none" points="
  2291.04,1486.45 2291.04,1467.55 
  "/>
<path clip-path="url(#clip100)" d="M203.676 1532.02 L233.352 1532.02 L233.352 1535.95 L203.676 1535.95 L203.676 1532.02 Z" fill="#000000" fill-rule="evenodd" fill-opacity="1" /><path clip-path="url(#clip100)" d="M247.472 1544.91 L263.792 1544.91 L263.792 1548.85 L241.847 1548.85 L241.847 1544.91 Q244.509 1542.16 249.093 1537.53 Q253.699 1532.88 254.88 1531.53 Q257.125 1529.01 258.005 1527.27 Q258.907 1525.51 258.907 1523.82 Q258.907 1521.07 256.963 1519.33 Q255.042 1517.6 251.94 1517.6 Q249.741 1517.6 247.287 1518.36 Q244.857 1519.13 242.079 1520.68 L242.079 1515.95 Q244.903 1514.82 247.357 1514.24 Q249.81 1513.66 251.847 1513.66 Q257.218 1513.66 260.412 1516.35 Q263.606 1519.03 263.606 1523.52 Q263.606 1525.65 262.796 1527.57 Q262.009 1529.47 259.903 1532.07 Q259.324 1532.74 256.222 1535.95 Q253.12 1539.15 247.472 1544.91 Z" fill="#000000" fill-rule="evenodd" fill-opacity="1" /><path clip-path="url(#clip100)" d="M546.375 1532.02 L576.051 1532.02 L576.051 1535.95 L546.375 1535.95 L546.375 1532.02 Z" fill="#000000" fill-rule="evenodd" fill-opacity="1" /><path clip-path="url(#clip100)" d="M586.953 1544.91 L594.592 1544.91 L594.592 1518.55 L586.282 1520.21 L586.282 1515.95 L594.546 1514.29 L599.222 1514.29 L599.222 1544.91 L606.861 1544.91 L606.861 1548.85 L586.953 1548.85 L586.953 1544.91 Z" fill="#000000" fill-rule="evenodd" fill-opacity="1" /><path clip-path="url(#clip100)" d="M919.502 1517.37 Q915.89 1517.37 914.062 1520.93 Q912.256 1524.47 912.256 1531.6 Q912.256 1538.71 914.062 1542.27 Q915.89 1545.82 919.502 1545.82 Q923.136 1545.82 924.941 1542.27 Q926.77 1538.71 926.77 1531.6 Q926.77 1524.47 924.941 1520.93 Q923.136 1517.37 919.502 1517.37 M919.502 1513.66 Q925.312 1513.66 928.367 1518.27 Q931.446 1522.85 931.446 1531.6 Q931.446 1540.33 928.367 1544.94 Q925.312 1549.52 919.502 1549.52 Q913.691 1549.52 910.613 1544.94 Q907.557 1540.33 907.557 1531.6 Q907.557 1522.85 910.613 1518.27 Q913.691 1513.66 919.502 1513.66 Z" fill="#000000" fill-rule="evenodd" fill-opacity="1" /><path clip-path="url(#clip100)" d="M1252.77 1544.91 L1260.41 1544.91 L1260.41 1518.55 L1252.1 1520.21 L1252.1 1515.95 L1260.36 1514.29 L1265.04 1514.29 L1265.04 1544.91 L1272.67 1544.91 L1272.67 1548.85 L1252.77 1548.85 L1252.77 1544.91 Z" fill="#000000" fill-rule="evenodd" fill-opacity="1" /><path clip-path="url(#clip100)" d="M1599.92 1544.91 L1616.24 1544.91 L1616.24 1548.85 L1594.3 1548.85 L1594.3 1544.91 Q1596.96 1542.16 1601.54 1537.53 Q1606.15 1532.88 1607.33 1531.53 Q1609.57 1529.01 1610.45 1527.27 Q1611.36 1525.51 1611.36 1523.82 Q1611.36 1521.07 1609.41 1519.33 Q1607.49 1517.6 1604.39 1517.6 Q1602.19 1517.6 1599.74 1518.36 Q1597.31 1519.13 1594.53 1520.68 L1594.53 1515.95 Q1597.35 1514.82 1599.81 1514.24 Q1602.26 1513.66 1604.3 1513.66 Q1609.67 1513.66 1612.86 1516.35 Q1616.06 1519.03 1616.06 1523.52 Q1616.06 1525.65 1615.25 1527.57 Q1614.46 1529.47 1612.35 1532.07 Q1611.77 1532.74 1608.67 1535.95 Q1605.57 1539.15 1599.92 1544.91 Z" fill="#000000" fill-rule="evenodd" fill-opacity="1" /><path clip-path="url(#clip100)" d="M1952.4 1530.21 Q1955.76 1530.93 1957.63 1533.2 Q1959.53 1535.47 1959.53 1538.8 Q1959.53 1543.92 1956.01 1546.72 Q1952.49 1549.52 1946.01 1549.52 Q1943.84 1549.52 1941.52 1549.08 Q1939.23 1548.66 1936.78 1547.81 L1936.78 1543.29 Q1938.72 1544.43 1941.03 1545.01 Q1943.35 1545.58 1945.87 1545.58 Q1950.27 1545.58 1952.56 1543.85 Q1954.88 1542.11 1954.88 1538.8 Q1954.88 1535.75 1952.72 1534.03 Q1950.6 1532.3 1946.78 1532.3 L1942.75 1532.3 L1942.75 1528.45 L1946.96 1528.45 Q1950.41 1528.45 1952.24 1527.09 Q1954.07 1525.7 1954.07 1523.11 Q1954.07 1520.45 1952.17 1519.03 Q1950.29 1517.6 1946.78 1517.6 Q1944.85 1517.6 1942.66 1518.01 Q1940.46 1518.43 1937.82 1519.31 L1937.82 1515.14 Q1940.48 1514.4 1942.79 1514.03 Q1945.13 1513.66 1947.19 1513.66 Q1952.52 1513.66 1955.62 1516.09 Q1958.72 1518.5 1958.72 1522.62 Q1958.72 1525.49 1957.08 1527.48 Q1955.43 1529.45 1952.4 1530.21 Z" fill="#000000" fill-rule="evenodd" fill-opacity="1" /><path clip-path="url(#clip100)" d="M2294.05 1518.36 L2282.24 1536.81 L2294.05 1536.81 L2294.05 1518.36 M2292.82 1514.29 L2298.7 1514.29 L2298.7 1536.81 L2303.63 1536.81 L2303.63 1540.7 L2298.7 1540.7 L2298.7 1548.85 L2294.05 1548.85 L2294.05 1540.7 L2278.44 1540.7 L2278.44 1536.19 L2292.82 1514.29 Z" fill="#000000" fill-rule="evenodd" fill-opacity="1" /><polyline clip-path="url(#clip102)" style="stroke:#000000; stroke-linecap:butt; stroke-linejoin:round; stroke-width:2; stroke-opacity:0.1; fill:none" points="
  172.015,1447.87 2352.76,1447.87 
  "/>
<polyline clip-path="url(#clip102)" style="stroke:#000000; stroke-linecap:butt; stroke-linejoin:round; stroke-width:2; stroke-opacity:0.1; fill:none" points="
  172.015,1165.27 2352.76,1165.27 
  "/>
<polyline clip-path="url(#clip102)" style="stroke:#000000; stroke-linecap:butt; stroke-linejoin:round; stroke-width:2; stroke-opacity:0.1; fill:none" points="
  172.015,882.675 2352.76,882.675 
  "/>
<polyline clip-path="url(#clip102)" style="stroke:#000000; stroke-linecap:butt; stroke-linejoin:round; stroke-width:2; stroke-opacity:0.1; fill:none" points="
  172.015,600.076 2352.76,600.076 
  "/>
<polyline clip-path="url(#clip102)" style="stroke:#000000; stroke-linecap:butt; stroke-linejoin:round; stroke-width:2; stroke-opacity:0.1; fill:none" points="
  172.015,317.476 2352.76,317.476 
  "/>
<polyline clip-path="url(#clip100)" style="stroke:#000000; stroke-linecap:butt; stroke-linejoin:round; stroke-width:4; stroke-opacity:1; fill:none" points="
  172.015,1486.45 172.015,123.472 
  "/>
<polyline clip-path="url(#clip100)" style="stroke:#000000; stroke-linecap:butt; stroke-linejoin:round; stroke-width:4; stroke-opacity:1; fill:none" points="
  172.015,1447.87 190.912,1447.87 
  "/>
<polyline clip-path="url(#clip100)" style="stroke:#000000; stroke-linecap:butt; stroke-linejoin:round; stroke-width:4; stroke-opacity:1; fill:none" points="
  172.015,1165.27 190.912,1165.27 
  "/>
<polyline clip-path="url(#clip100)" style="stroke:#000000; stroke-linecap:butt; stroke-linejoin:round; stroke-width:4; stroke-opacity:1; fill:none" points="
  172.015,882.675 190.912,882.675 
  "/>
<polyline clip-path="url(#clip100)" style="stroke:#000000; stroke-linecap:butt; stroke-linejoin:round; stroke-width:4; stroke-opacity:1; fill:none" points="
  172.015,600.076 190.912,600.076 
  "/>
<polyline clip-path="url(#clip100)" style="stroke:#000000; stroke-linecap:butt; stroke-linejoin:round; stroke-width:4; stroke-opacity:1; fill:none" points="
  172.015,317.476 190.912,317.476 
  "/>
<path clip-path="url(#clip100)" d="M124.07 1433.67 Q120.459 1433.67 118.631 1437.24 Q116.825 1440.78 116.825 1447.91 Q116.825 1455.01 118.631 1458.58 Q120.459 1462.12 124.07 1462.12 Q127.705 1462.12 129.51 1458.58 Q131.339 1455.01 131.339 1447.91 Q131.339 1440.78 129.51 1437.24 Q127.705 1433.67 124.07 1433.67 M124.07 1429.97 Q129.881 1429.97 132.936 1434.57 Q136.015 1439.16 136.015 1447.91 Q136.015 1456.63 132.936 1461.24 Q129.881 1465.82 124.07 1465.82 Q118.26 1465.82 115.182 1461.24 Q112.126 1456.63 112.126 1447.91 Q112.126 1439.16 115.182 1434.57 Q118.26 1429.97 124.07 1429.97 Z" fill="#000000" fill-rule="evenodd" fill-opacity="1" /><path clip-path="url(#clip100)" d="M57.7745 1178.62 L74.0939 1178.62 L74.0939 1182.55 L52.1495 1182.55 L52.1495 1178.62 Q54.8115 1175.86 59.3949 1171.23 Q64.0013 1166.58 65.1819 1165.24 Q67.4272 1162.72 68.3068 1160.98 Q69.2096 1159.22 69.2096 1157.53 Q69.2096 1154.78 67.2652 1153.04 Q65.3439 1151.3 62.2421 1151.3 Q60.043 1151.3 57.5893 1152.07 Q55.1588 1152.83 52.381 1154.38 L52.381 1149.66 Q55.2051 1148.53 57.6588 1147.95 Q60.1124 1147.37 62.1495 1147.37 Q67.5198 1147.37 70.7142 1150.05 Q73.9087 1152.74 73.9087 1157.23 Q73.9087 1159.36 73.0985 1161.28 Q72.3115 1163.18 70.205 1165.77 Q69.6263 1166.44 66.5245 1169.66 Q63.4226 1172.85 57.7745 1178.62 Z" fill="#000000" fill-rule="evenodd" fill-opacity="1" /><path clip-path="url(#clip100)" d="M93.9086 1151.07 Q90.2975 1151.07 88.4688 1154.64 Q86.6632 1158.18 86.6632 1165.31 Q86.6632 1172.42 88.4688 1175.98 Q90.2975 1179.52 93.9086 1179.52 Q97.5428 1179.52 99.3483 1175.98 Q101.177 1172.42 101.177 1165.31 Q101.177 1158.18 99.3483 1154.64 Q97.5428 1151.07 93.9086 1151.07 M93.9086 1147.37 Q99.7187 1147.37 102.774 1151.98 Q105.853 1156.56 105.853 1165.31 Q105.853 1174.04 102.774 1178.64 Q99.7187 1183.23 93.9086 1183.23 Q88.0984 1183.23 85.0197 1178.64 Q81.9642 1174.04 81.9642 1165.31 Q81.9642 1156.56 85.0197 1151.98 Q88.0984 1147.37 93.9086 1147.37 Z" fill="#000000" fill-rule="evenodd" fill-opacity="1" /><path clip-path="url(#clip100)" d="M124.07 1151.07 Q120.459 1151.07 118.631 1154.64 Q116.825 1158.18 116.825 1165.31 Q116.825 1172.42 118.631 1175.98 Q120.459 1179.52 124.07 1179.52 Q127.705 1179.52 129.51 1175.98 Q131.339 1172.42 131.339 1165.31 Q131.339 1158.18 129.51 1154.64 Q127.705 1151.07 124.07 1151.07 M124.07 1147.37 Q129.881 1147.37 132.936 1151.98 Q136.015 1156.56 136.015 1165.31 Q136.015 1174.04 132.936 1178.64 Q129.881 1183.23 124.07 1183.23 Q118.26 1183.23 115.182 1178.64 Q112.126 1174.04 112.126 1165.31 Q112.126 1156.56 115.182 1151.98 Q118.26 1147.37 124.07 1147.37 Z" fill="#000000" fill-rule="evenodd" fill-opacity="1" /><path clip-path="url(#clip100)" d="M66.5939 869.469 L54.7884 887.918 L66.5939 887.918 L66.5939 869.469 M65.367 865.395 L71.2466 865.395 L71.2466 887.918 L76.1772 887.918 L76.1772 891.807 L71.2466 891.807 L71.2466 899.955 L66.5939 899.955 L66.5939 891.807 L50.9921 891.807 L50.9921 887.293 L65.367 865.395 Z" fill="#000000" fill-rule="evenodd" fill-opacity="1" /><path clip-path="url(#clip100)" d="M93.9086 868.473 Q90.2975 868.473 88.4688 872.038 Q86.6632 875.58 86.6632 882.709 Q86.6632 889.816 88.4688 893.381 Q90.2975 896.922 93.9086 896.922 Q97.5428 896.922 99.3483 893.381 Q101.177 889.816 101.177 882.709 Q101.177 875.58 99.3483 872.038 Q97.5428 868.473 93.9086 868.473 M93.9086 864.77 Q99.7187 864.77 102.774 869.376 Q105.853 873.96 105.853 882.709 Q105.853 891.436 102.774 896.043 Q99.7187 900.626 93.9086 900.626 Q88.0984 900.626 85.0197 896.043 Q81.9642 891.436 81.9642 882.709 Q81.9642 873.96 85.0197 869.376 Q88.0984 864.77 93.9086 864.77 Z" fill="#000000" fill-rule="evenodd" fill-opacity="1" /><path clip-path="url(#clip100)" d="M124.07 868.473 Q120.459 868.473 118.631 872.038 Q116.825 875.58 116.825 882.709 Q116.825 889.816 118.631 893.381 Q120.459 896.922 124.07 896.922 Q127.705 896.922 129.51 893.381 Q131.339 889.816 131.339 882.709 Q131.339 875.58 129.51 872.038 Q127.705 868.473 124.07 868.473 M124.07 864.77 Q129.881 864.77 132.936 869.376 Q136.015 873.96 136.015 882.709 Q136.015 891.436 132.936 896.043 Q129.881 900.626 124.07 900.626 Q118.26 900.626 115.182 896.043 Q112.126 891.436 112.126 882.709 Q112.126 873.96 115.182 869.376 Q118.26 864.77 124.07 864.77 Z" fill="#000000" fill-rule="evenodd" fill-opacity="1" /><path clip-path="url(#clip100)" d="M64.3254 598.212 Q61.1773 598.212 59.3254 600.365 Q57.4967 602.518 57.4967 606.268 Q57.4967 609.995 59.3254 612.17 Q61.1773 614.323 64.3254 614.323 Q67.4735 614.323 69.3022 612.17 Q71.1541 609.995 71.1541 606.268 Q71.1541 602.518 69.3022 600.365 Q67.4735 598.212 64.3254 598.212 M73.6077 583.559 L73.6077 587.819 Q71.8485 586.985 70.0429 586.546 Q68.2606 586.106 66.5013 586.106 Q61.8717 586.106 59.418 589.231 Q56.9875 592.356 56.6402 598.675 Q58.006 596.661 60.0662 595.596 Q62.1263 594.509 64.6032 594.509 Q69.8115 594.509 72.8207 597.68 Q75.8531 600.828 75.8531 606.268 Q75.8531 611.592 72.705 614.809 Q69.5568 618.027 64.3254 618.027 Q58.33 618.027 55.1588 613.444 Q51.9875 608.837 51.9875 600.11 Q51.9875 591.916 55.8764 587.055 Q59.7652 582.171 66.3161 582.171 Q68.0754 582.171 69.8578 582.518 Q71.6633 582.865 73.6077 583.559 Z" fill="#000000" fill-rule="evenodd" fill-opacity="1" /><path clip-path="url(#clip100)" d="M93.9086 585.874 Q90.2975 585.874 88.4688 589.439 Q86.6632 592.981 86.6632 600.11 Q86.6632 607.217 88.4688 610.782 Q90.2975 614.323 93.9086 614.323 Q97.5428 614.323 99.3483 610.782 Q101.177 607.217 101.177 600.11 Q101.177 592.981 99.3483 589.439 Q97.5428 585.874 93.9086 585.874 M93.9086 582.171 Q99.7187 582.171 102.774 586.777 Q105.853 591.36 105.853 600.11 Q105.853 608.837 102.774 613.444 Q99.7187 618.027 93.9086 618.027 Q88.0984 618.027 85.0197 613.444 Q81.9642 608.837 81.9642 600.11 Q81.9642 591.36 85.0197 586.777 Q88.0984 582.171 93.9086 582.171 Z" fill="#000000" fill-rule="evenodd" fill-opacity="1" /><path clip-path="url(#clip100)" d="M124.07 585.874 Q120.459 585.874 118.631 589.439 Q116.825 592.981 116.825 600.11 Q116.825 607.217 118.631 610.782 Q120.459 614.323 124.07 614.323 Q127.705 614.323 129.51 610.782 Q131.339 607.217 131.339 600.11 Q131.339 592.981 129.51 589.439 Q127.705 585.874 124.07 585.874 M124.07 582.171 Q129.881 582.171 132.936 586.777 Q136.015 591.36 136.015 600.11 Q136.015 608.837 132.936 613.444 Q129.881 618.027 124.07 618.027 Q118.26 618.027 115.182 613.444 Q112.126 608.837 112.126 600.11 Q112.126 591.36 115.182 586.777 Q118.26 582.171 124.07 582.171 Z" fill="#000000" fill-rule="evenodd" fill-opacity="1" /><path clip-path="url(#clip100)" d="M63.7467 318.345 Q60.4134 318.345 58.4921 320.127 Q56.5939 321.909 56.5939 325.034 Q56.5939 328.159 58.4921 329.942 Q60.4134 331.724 63.7467 331.724 Q67.08 331.724 69.0013 329.942 Q70.9226 328.136 70.9226 325.034 Q70.9226 321.909 69.0013 320.127 Q67.1032 318.345 63.7467 318.345 M59.0708 316.354 Q56.0615 315.613 54.3717 313.553 Q52.7051 311.493 52.7051 308.53 Q52.7051 304.386 55.6449 301.979 Q58.6078 299.571 63.7467 299.571 Q68.9087 299.571 71.8485 301.979 Q74.7883 304.386 74.7883 308.53 Q74.7883 311.493 73.0985 313.553 Q71.4318 315.613 68.4457 316.354 Q71.8253 317.141 73.7003 319.432 Q75.5985 321.724 75.5985 325.034 Q75.5985 330.057 72.5198 332.743 Q69.4642 335.428 63.7467 335.428 Q58.0291 335.428 54.9504 332.743 Q51.8949 330.057 51.8949 325.034 Q51.8949 321.724 53.793 319.432 Q55.6912 317.141 59.0708 316.354 M57.3578 308.97 Q57.3578 311.655 59.0245 313.159 Q60.7143 314.664 63.7467 314.664 Q66.7559 314.664 68.4457 313.159 Q70.1587 311.655 70.1587 308.97 Q70.1587 306.284 68.4457 304.78 Q66.7559 303.275 63.7467 303.275 Q60.7143 303.275 59.0245 304.78 Q57.3578 306.284 57.3578 308.97 Z" fill="#000000" fill-rule="evenodd" fill-opacity="1" /><path clip-path="url(#clip100)" d="M93.9086 303.275 Q90.2975 303.275 88.4688 306.84 Q86.6632 310.382 86.6632 317.511 Q86.6632 324.618 88.4688 328.182 Q90.2975 331.724 93.9086 331.724 Q97.5428 331.724 99.3483 328.182 Q101.177 324.618 101.177 317.511 Q101.177 310.382 99.3483 306.84 Q97.5428 303.275 93.9086 303.275 M93.9086 299.571 Q99.7187 299.571 102.774 304.178 Q105.853 308.761 105.853 317.511 Q105.853 326.238 102.774 330.844 Q99.7187 335.428 93.9086 335.428 Q88.0984 335.428 85.0197 330.844 Q81.9642 326.238 81.9642 317.511 Q81.9642 308.761 85.0197 304.178 Q88.0984 299.571 93.9086 299.571 Z" fill="#000000" fill-rule="evenodd" fill-opacity="1" /><path clip-path="url(#clip100)" d="M124.07 303.275 Q120.459 303.275 118.631 306.84 Q116.825 310.382 116.825 317.511 Q116.825 324.618 118.631 328.182 Q120.459 331.724 124.07 331.724 Q127.705 331.724 129.51 328.182 Q131.339 324.618 131.339 317.511 Q131.339 310.382 129.51 306.84 Q127.705 303.275 124.07 303.275 M124.07 299.571 Q129.881 299.571 132.936 304.178 Q136.015 308.761 136.015 317.511 Q136.015 326.238 132.936 330.844 Q129.881 335.428 124.07 335.428 Q118.26 335.428 115.182 330.844 Q112.126 326.238 112.126 317.511 Q112.126 308.761 115.182 304.178 Q118.26 299.571 124.07 299.571 Z" fill="#000000" fill-rule="evenodd" fill-opacity="1" /><path clip-path="url(#clip100)" d="M1179.36 18.8205 L1179.36 65.8515 L1189.25 65.8515 Q1201.76 65.8515 1207.56 60.1802 Q1213.39 54.509 1213.39 42.2752 Q1213.39 30.1225 1207.56 24.4918 Q1201.76 18.8205 1189.25 18.8205 L1179.36 18.8205 M1171.18 12.096 L1187.99 12.096 Q1205.57 12.096 1213.79 19.4281 Q1222.02 26.7198 1222.02 42.2752 Q1222.02 57.9117 1213.75 65.2439 Q1205.49 72.576 1187.99 72.576 L1171.18 72.576 L1171.18 12.096 Z" fill="#000000" fill-rule="evenodd" fill-opacity="1" /><path clip-path="url(#clip100)" d="M1255.36 49.7694 Q1246.32 49.7694 1242.84 51.8354 Q1239.36 53.9013 1239.36 58.8839 Q1239.36 62.8538 1241.95 65.2034 Q1244.58 67.5124 1249.08 67.5124 Q1255.28 67.5124 1259 63.1374 Q1262.77 58.7219 1262.77 51.4303 L1262.77 49.7694 L1255.36 49.7694 M1270.22 46.6907 L1270.22 72.576 L1262.77 72.576 L1262.77 65.6895 Q1260.22 69.8214 1256.41 71.8063 Q1252.6 73.7508 1247.09 73.7508 Q1240.13 73.7508 1235.99 69.8619 Q1231.9 65.9325 1231.9 59.3701 Q1231.9 51.7138 1237.01 47.825 Q1242.15 43.9361 1252.32 43.9361 L1262.77 43.9361 L1262.77 43.2069 Q1262.77 38.0623 1259.37 35.2672 Q1256.01 32.4315 1249.89 32.4315 Q1246 32.4315 1242.31 33.3632 Q1238.63 34.295 1235.22 36.1584 L1235.22 29.2718 Q1239.32 27.692 1243.16 26.9223 Q1247.01 26.1121 1250.66 26.1121 Q1260.5 26.1121 1265.36 31.2163 Q1270.22 36.3204 1270.22 46.6907 Z" fill="#000000" fill-rule="evenodd" fill-opacity="1" /><path clip-path="url(#clip100)" d="M1292.95 14.324 L1292.95 27.2059 L1308.3 27.2059 L1308.3 32.9987 L1292.95 32.9987 L1292.95 57.6282 Q1292.95 63.1779 1294.45 64.7578 Q1295.99 66.3376 1300.65 66.3376 L1308.3 66.3376 L1308.3 72.576 L1300.65 72.576 Q1292.02 72.576 1288.74 69.3758 Q1285.46 66.1351 1285.46 57.6282 L1285.46 32.9987 L1279.99 32.9987 L1279.99 27.2059 L1285.46 27.2059 L1285.46 14.324 L1292.95 14.324 Z" fill="#000000" fill-rule="evenodd" fill-opacity="1" /><path clip-path="url(#clip100)" d="M1338.72 49.7694 Q1329.69 49.7694 1326.21 51.8354 Q1322.72 53.9013 1322.72 58.8839 Q1322.72 62.8538 1325.32 65.2034 Q1327.95 67.5124 1332.45 67.5124 Q1338.64 67.5124 1342.37 63.1374 Q1346.14 58.7219 1346.14 51.4303 L1346.14 49.7694 L1338.72 49.7694 M1353.59 46.6907 L1353.59 72.576 L1346.14 72.576 L1346.14 65.6895 Q1343.59 69.8214 1339.78 71.8063 Q1335.97 73.7508 1330.46 73.7508 Q1323.49 73.7508 1319.36 69.8619 Q1315.27 65.9325 1315.27 59.3701 Q1315.27 51.7138 1320.37 47.825 Q1325.52 43.9361 1335.69 43.9361 L1346.14 43.9361 L1346.14 43.2069 Q1346.14 38.0623 1342.74 35.2672 Q1339.37 32.4315 1333.26 32.4315 Q1329.37 32.4315 1325.68 33.3632 Q1321.99 34.295 1318.59 36.1584 L1318.59 29.2718 Q1322.68 27.692 1326.53 26.9223 Q1330.38 26.1121 1334.03 26.1121 Q1343.87 26.1121 1348.73 31.2163 Q1353.59 36.3204 1353.59 46.6907 Z" fill="#000000" fill-rule="evenodd" fill-opacity="1" /><polyline clip-path="url(#clip102)" style="stroke:#009af9; stroke-linecap:butt; stroke-linejoin:round; stroke-width:4; stroke-opacity:1; fill:none" points="
  233.734,1447.87 233.734,1377.22 268.022,1377.22 268.022,1292.44 302.311,1292.44 302.311,1221.79 336.599,1221.79 336.599,1137.01 370.887,1137.01 370.887,1165.27 
  405.176,1165.27 405.176,1108.75 439.464,1108.75 439.464,967.455 473.753,967.455 473.753,1009.84 508.041,1009.84 508.041,967.455 542.329,967.455 542.329,939.195 
  576.618,939.195 576.618,826.155 610.906,826.155 610.906,953.325 645.194,953.325 645.194,896.805 679.483,896.805 679.483,1023.97 713.771,1023.97 713.771,967.455 
  748.06,967.455 748.06,1137.01 782.348,1137.01 782.348,1179.4 816.636,1179.4 816.636,1363.09 850.925,1363.09 850.925,1348.96 885.213,1348.96 885.213,1363.09 
  919.502,1363.09 919.502,1391.35 953.79,1391.35 953.79,1363.09 988.078,1363.09 988.078,1433.74 1022.37,1433.74 1056.66,1433.74 1056.66,1419.61 
  1090.94,1419.61 1090.94,1405.48 1125.23,1405.48 1159.52,1405.48 1159.52,1377.22 1193.81,1377.22 1193.81,1447.87 1228.1,1447.87 1228.1,1334.83 
  1262.39,1334.83 1262.39,1278.31 1296.67,1278.31 1296.67,1193.53 1330.96,1193.53 1330.96,995.714 1365.25,995.714 1365.25,1052.23 1399.54,1052.23 1399.54,953.325 
  1433.83,953.325 1433.83,670.725 1468.12,670.725 1468.12,529.426 1502.4,529.426 1502.4,232.697 1536.69,232.697 1536.69,162.047 1570.98,162.047 1570.98,388.126 
  1605.27,388.126 1605.27,501.166 1639.56,501.166 1639.56,430.516 1673.85,430.516 1673.85,246.827 1708.13,246.827 1708.13,543.556 1742.42,543.556 1742.42,755.505 
  1776.71,755.505 1776.71,896.805 1811,896.805 1811,953.325 1845.29,953.325 1845.29,1066.36 1879.58,1066.36 1879.58,1207.66 1913.86,1207.66 1913.86,1292.44 
  1948.15,1292.44 1948.15,1363.09 1982.44,1363.09 1982.44,1377.22 2016.73,1377.22 2016.73,1419.61 2051.02,1419.61 2051.02,1433.74 2085.31,1433.74 2085.31,1419.61 
  2119.59,1419.61 2119.59,1433.74 2153.88,1433.74 2153.88,1447.87 2188.17,1447.87 2222.46,1447.87 2256.75,1447.87 
  2291.04,1447.87 
  "/>
<path clip-path="url(#clip100)" d="
M1933.52 272.585 L2280.06 272.585 L2280.06 168.905 L1933.52 168.905  Z
  " fill="#ffffff" fill-rule="evenodd" fill-opacity="1"/>
<polyline clip-path="url(#clip100)" style="stroke:#000000; stroke-linecap:butt; stroke-linejoin:round; stroke-width:4; stroke-opacity:1; fill:none" points="
  1933.52,272.585 2280.06,272.585 2280.06,168.905 1933.52,168.905 1933.52,272.585 
  "/>
<polyline clip-path="url(#clip100)" style="stroke:#009af9; stroke-linecap:butt; stroke-linejoin:round; stroke-width:4; stroke-opacity:1; fill:none" points="
  1957.75,220.745 2103.14,220.745 
  "/>
<path clip-path="url(#clip100)" d="M2132.04 207.307 L2132.04 234.182 L2137.69 234.182 Q2144.84 234.182 2148.15 230.941 Q2151.49 227.701 2151.49 220.71 Q2151.49 213.766 2148.15 210.548 Q2144.84 207.307 2137.69 207.307 L2132.04 207.307 M2127.37 203.465 L2136.97 203.465 Q2147.02 203.465 2151.72 207.654 Q2156.42 211.821 2156.42 220.71 Q2156.42 229.645 2151.7 233.835 Q2146.97 238.025 2136.97 238.025 L2127.37 238.025 L2127.37 203.465 Z" fill="#000000" fill-rule="evenodd" fill-opacity="1" /><path clip-path="url(#clip100)" d="M2175.47 224.992 Q2170.31 224.992 2168.32 226.173 Q2166.33 227.353 2166.33 230.201 Q2166.33 232.469 2167.81 233.812 Q2169.31 235.131 2171.88 235.131 Q2175.42 235.131 2177.55 232.631 Q2179.71 230.108 2179.71 225.941 L2179.71 224.992 L2175.47 224.992 M2183.96 223.233 L2183.96 238.025 L2179.71 238.025 L2179.71 234.089 Q2178.25 236.451 2176.07 237.585 Q2173.9 238.696 2170.75 238.696 Q2166.77 238.696 2164.4 236.474 Q2162.07 234.228 2162.07 230.478 Q2162.07 226.103 2164.98 223.881 Q2167.92 221.659 2173.73 221.659 L2179.71 221.659 L2179.71 221.242 Q2179.71 218.303 2177.76 216.705 Q2175.84 215.085 2172.34 215.085 Q2170.12 215.085 2168.02 215.617 Q2165.91 216.15 2163.97 217.215 L2163.97 213.279 Q2166.3 212.377 2168.5 211.937 Q2170.7 211.474 2172.78 211.474 Q2178.41 211.474 2181.19 214.391 Q2183.96 217.307 2183.96 223.233 Z" fill="#000000" fill-rule="evenodd" fill-opacity="1" /><path clip-path="url(#clip100)" d="M2196.95 204.738 L2196.95 212.099 L2205.72 212.099 L2205.72 215.409 L2196.95 215.409 L2196.95 229.483 Q2196.95 232.654 2197.81 233.557 Q2198.69 234.46 2201.35 234.46 L2205.72 234.46 L2205.72 238.025 L2201.35 238.025 Q2196.42 238.025 2194.54 236.196 Q2192.67 234.344 2192.67 229.483 L2192.67 215.409 L2189.54 215.409 L2189.54 212.099 L2192.67 212.099 L2192.67 204.738 L2196.95 204.738 Z" fill="#000000" fill-rule="evenodd" fill-opacity="1" /><path clip-path="url(#clip100)" d="M2223.11 224.992 Q2217.95 224.992 2215.96 226.173 Q2213.96 227.353 2213.96 230.201 Q2213.96 232.469 2215.45 233.812 Q2216.95 235.131 2219.52 235.131 Q2223.06 235.131 2225.19 232.631 Q2227.34 230.108 2227.34 225.941 L2227.34 224.992 L2223.11 224.992 M2231.6 223.233 L2231.6 238.025 L2227.34 238.025 L2227.34 234.089 Q2225.89 236.451 2223.71 237.585 Q2221.53 238.696 2218.39 238.696 Q2214.4 238.696 2212.04 236.474 Q2209.71 234.228 2209.71 230.478 Q2209.71 226.103 2212.62 223.881 Q2215.56 221.659 2221.37 221.659 L2227.34 221.659 L2227.34 221.242 Q2227.34 218.303 2225.4 216.705 Q2223.48 215.085 2219.98 215.085 Q2217.76 215.085 2215.65 215.617 Q2213.55 216.15 2211.6 217.215 L2211.6 213.279 Q2213.94 212.377 2216.14 211.937 Q2218.34 211.474 2220.42 211.474 Q2226.05 211.474 2228.83 214.391 Q2231.6 217.307 2231.6 223.233 Z" fill="#000000" fill-rule="evenodd" fill-opacity="1" /></svg>
