<?xml version="1.0" encoding="utf-8"?>
<svg xmlns="http://www.w3.org/2000/svg" xmlns:xlink="http://www.w3.org/1999/xlink" width="600" height="400" viewBox="0 0 2400 1600">
<defs>
  <clipPath id="clip800">
    <rect x="0" y="0" width="2400" height="1600"/>
  </clipPath>
</defs>
<path clip-path="url(#clip800)" d="
M0 1600 L2400 1600 L2400 0 L0 0  Z
  " fill="#ffffff" fill-rule="evenodd" fill-opacity="1"/>
<defs>
  <clipPath id="clip801">
    <rect x="480" y="0" width="1681" height="1600"/>
  </clipPath>
</defs>
<path clip-path="url(#clip800)" d="
M166.205 1486.45 L2352.76 1486.45 L2352.76 123.472 L166.205 123.472  Z
  " fill="#ffffff" fill-rule="evenodd" fill-opacity="1"/>
<defs>
  <clipPath id="clip802">
    <rect x="166" y="123" width="2188" height="1364"/>
  </clipPath>
</defs>
<polyline clip-path="url(#clip802)" style="stroke:#000000; stroke-width:2; stroke-opacity:0.1; fill:none" points="
  228.088,1486.45 228.088,123.472 
  "/>
<polyline clip-path="url(#clip802)" style="stroke:#000000; stroke-width:2; stroke-opacity:0.1; fill:none" points="
  571.886,1486.45 571.886,123.472 
  "/>
<polyline clip-path="url(#clip802)" style="stroke:#000000; stroke-width:2; stroke-opacity:0.1; fill:none" points="
  915.683,1486.45 915.683,123.472 
  "/>
<polyline clip-path="url(#clip802)" style="stroke:#000000; stroke-width:2; stroke-opacity:0.1; fill:none" points="
  1259.48,1486.45 1259.48,123.472 
  "/>
<polyline clip-path="url(#clip802)" style="stroke:#000000; stroke-width:2; stroke-opacity:0.1; fill:none" points="
  1603.28,1486.45 1603.28,123.472 
  "/>
<polyline clip-path="url(#clip802)" style="stroke:#000000; stroke-width:2; stroke-opacity:0.1; fill:none" points="
  1947.08,1486.45 1947.08,123.472 
  "/>
<polyline clip-path="url(#clip802)" style="stroke:#000000; stroke-width:2; stroke-opacity:0.1; fill:none" points="
  2290.87,1486.45 2290.87,123.472 
  "/>
<polyline clip-path="url(#clip800)" style="stroke:#000000; stroke-width:4; stroke-opacity:1; fill:none" points="
  166.205,1486.45 2352.76,1486.45 
  "/>
<polyline clip-path="url(#clip800)" style="stroke:#000000; stroke-width:4; stroke-opacity:1; fill:none" points="
  228.088,1486.45 228.088,1470.09 
  "/>
<polyline clip-path="url(#clip800)" style="stroke:#000000; stroke-width:4; stroke-opacity:1; fill:none" points="
  571.886,1486.45 571.886,1470.09 
  "/>
<polyline clip-path="url(#clip800)" style="stroke:#000000; stroke-width:4; stroke-opacity:1; fill:none" points="
  915.683,1486.45 915.683,1470.09 
  "/>
<polyline clip-path="url(#clip800)" style="stroke:#000000; stroke-width:4; stroke-opacity:1; fill:none" points="
  1259.48,1486.45 1259.48,1470.09 
  "/>
<polyline clip-path="url(#clip800)" style="stroke:#000000; stroke-width:4; stroke-opacity:1; fill:none" points="
  1603.28,1486.45 1603.28,1470.09 
  "/>
<polyline clip-path="url(#clip800)" style="stroke:#000000; stroke-width:4; stroke-opacity:1; fill:none" points="
  1947.08,1486.45 1947.08,1470.09 
  "/>
<polyline clip-path="url(#clip800)" style="stroke:#000000; stroke-width:4; stroke-opacity:1; fill:none" points="
  2290.87,1486.45 2290.87,1470.09 
  "/>
<path clip-path="url(#clip800)" d="M 0 0 M200.542 1530.29 L230.218 1530.29 L230.218 1534.23 L200.542 1534.23 L200.542 1530.29 Z" fill="#000000" fill-rule="evenodd" fill-opacity="1" /><path clip-path="url(#clip800)" d="M 0 0 M239.315 1543.18 L255.634 1543.18 L255.634 1547.12 L233.69 1547.12 L233.69 1543.18 Q236.352 1540.43 240.935 1535.8 Q245.542 1531.15 246.722 1529.81 Q248.968 1527.28 249.847 1525.55 Q250.75 1523.79 250.75 1522.1 Q250.75 1519.34 248.806 1517.61 Q246.884 1515.87 243.783 1515.87 Q241.583 1515.87 239.13 1516.63 Q236.699 1517.4 233.921 1518.95 L233.921 1514.23 Q236.746 1513.09 239.199 1512.51 Q241.653 1511.93 243.69 1511.93 Q249.06 1511.93 252.255 1514.62 Q255.449 1517.31 255.449 1521.8 Q255.449 1523.93 254.639 1525.85 Q253.852 1527.74 251.745 1530.34 Q251.167 1531.01 248.065 1534.23 Q244.963 1537.42 239.315 1543.18 Z" fill="#000000" fill-rule="evenodd" fill-opacity="1" /><path clip-path="url(#clip800)" d="M 0 0 M544.154 1530.29 L573.83 1530.29 L573.83 1534.23 L544.154 1534.23 L544.154 1530.29 Z" fill="#000000" fill-rule="evenodd" fill-opacity="1" /><path clip-path="url(#clip800)" d="M 0 0 M579.71 1543.18 L587.348 1543.18 L587.348 1516.82 L579.038 1518.49 L579.038 1514.23 L587.302 1512.56 L591.978 1512.56 L591.978 1543.18 L599.617 1543.18 L599.617 1547.12 L579.71 1547.12 L579.71 1543.18 Z" fill="#000000" fill-rule="evenodd" fill-opacity="1" /><path clip-path="url(#clip800)" d="M 0 0 M915.683 1515.64 Q912.072 1515.64 910.243 1519.2 Q908.438 1522.75 908.438 1529.87 Q908.438 1536.98 910.243 1540.55 Q912.072 1544.09 915.683 1544.09 Q919.317 1544.09 921.123 1540.55 Q922.951 1536.98 922.951 1529.87 Q922.951 1522.75 921.123 1519.2 Q919.317 1515.64 915.683 1515.64 M915.683 1511.93 Q921.493 1511.93 924.549 1516.54 Q927.627 1521.12 927.627 1529.87 Q927.627 1538.6 924.549 1543.21 Q921.493 1547.79 915.683 1547.79 Q909.873 1547.79 906.794 1543.21 Q903.739 1538.6 903.739 1529.87 Q903.739 1521.12 906.794 1516.54 Q909.873 1511.93 915.683 1511.93 Z" fill="#000000" fill-rule="evenodd" fill-opacity="1" /><path clip-path="url(#clip800)" d="M 0 0 M1249.86 1543.18 L1257.5 1543.18 L1257.5 1516.82 L1249.19 1518.49 L1249.19 1514.23 L1257.45 1512.56 L1262.13 1512.56 L1262.13 1543.18 L1269.77 1543.18 L1269.77 1547.12 L1249.86 1547.12 L1249.86 1543.18 Z" fill="#000000" fill-rule="evenodd" fill-opacity="1" /><path clip-path="url(#clip800)" d="M 0 0 M1597.93 1543.18 L1614.25 1543.18 L1614.25 1547.12 L1592.31 1547.12 L1592.31 1543.18 Q1594.97 1540.43 1599.55 1535.8 Q1604.16 1531.15 1605.34 1529.81 Q1607.58 1527.28 1608.46 1525.55 Q1609.37 1523.79 1609.37 1522.1 Q1609.37 1519.34 1607.42 1517.61 Q1605.5 1515.87 1602.4 1515.87 Q1600.2 1515.87 1597.75 1516.63 Q1595.31 1517.4 1592.54 1518.95 L1592.54 1514.23 Q1595.36 1513.09 1597.81 1512.51 Q1600.27 1511.93 1602.31 1511.93 Q1607.68 1511.93 1610.87 1514.62 Q1614.06 1517.31 1614.06 1521.8 Q1614.06 1523.93 1613.25 1525.85 Q1612.47 1527.74 1610.36 1530.34 Q1609.78 1531.01 1606.68 1534.23 Q1603.58 1537.42 1597.93 1543.18 Z" fill="#000000" fill-rule="evenodd" fill-opacity="1" /><path clip-path="url(#clip800)" d="M 0 0 M1951.32 1528.49 Q1954.68 1529.2 1956.55 1531.47 Q1958.45 1533.74 1958.45 1537.07 Q1958.45 1542.19 1954.93 1544.99 Q1951.42 1547.79 1944.93 1547.79 Q1942.76 1547.79 1940.44 1547.35 Q1938.15 1546.93 1935.7 1546.08 L1935.7 1541.56 Q1937.64 1542.7 1939.96 1543.28 Q1942.27 1543.86 1944.79 1543.86 Q1949.19 1543.86 1951.48 1542.12 Q1953.8 1540.38 1953.8 1537.07 Q1953.8 1534.02 1951.65 1532.31 Q1949.52 1530.57 1945.7 1530.57 L1941.67 1530.57 L1941.67 1526.73 L1945.88 1526.73 Q1949.33 1526.73 1951.16 1525.36 Q1952.99 1523.97 1952.99 1521.38 Q1952.99 1518.72 1951.09 1517.31 Q1949.22 1515.87 1945.7 1515.87 Q1943.78 1515.87 1941.58 1516.29 Q1939.38 1516.7 1936.74 1517.58 L1936.74 1513.42 Q1939.4 1512.68 1941.72 1512.31 Q1944.05 1511.93 1946.11 1511.93 Q1951.44 1511.93 1954.54 1514.37 Q1957.64 1516.77 1957.64 1520.89 Q1957.64 1523.76 1956 1525.75 Q1954.36 1527.72 1951.32 1528.49 Z" fill="#000000" fill-rule="evenodd" fill-opacity="1" /><path clip-path="url(#clip800)" d="M 0 0 M2293.88 1516.63 L2282.08 1535.08 L2293.88 1535.08 L2293.88 1516.63 M2292.65 1512.56 L2298.53 1512.56 L2298.53 1535.08 L2303.46 1535.08 L2303.46 1538.97 L2298.53 1538.97 L2298.53 1547.12 L2293.88 1547.12 L2293.88 1538.97 L2278.28 1538.97 L2278.28 1534.46 L2292.65 1512.56 Z" fill="#000000" fill-rule="evenodd" fill-opacity="1" /><polyline clip-path="url(#clip802)" style="stroke:#000000; stroke-width:2; stroke-opacity:0.1; fill:none" points="
  166.205,1447.87 2352.76,1447.87 
  "/>
<polyline clip-path="url(#clip802)" style="stroke:#000000; stroke-width:2; stroke-opacity:0.1; fill:none" points="
  166.205,1182.75 2352.76,1182.75 
  "/>
<polyline clip-path="url(#clip802)" style="stroke:#000000; stroke-width:2; stroke-opacity:0.1; fill:none" points="
  166.205,917.635 2352.76,917.635 
  "/>
<polyline clip-path="url(#clip802)" style="stroke:#000000; stroke-width:2; stroke-opacity:0.1; fill:none" points="
  166.205,652.517 2352.76,652.517 
  "/>
<polyline clip-path="url(#clip802)" style="stroke:#000000; stroke-width:2; stroke-opacity:0.1; fill:none" points="
  166.205,387.398 2352.76,387.398 
  "/>
<polyline clip-path="url(#clip800)" style="stroke:#000000; stroke-width:4; stroke-opacity:1; fill:none" points="
  166.205,1486.45 166.205,123.472 
  "/>
<polyline clip-path="url(#clip800)" style="stroke:#000000; stroke-width:4; stroke-opacity:1; fill:none" points="
  166.205,1447.87 192.443,1447.87 
  "/>
<polyline clip-path="url(#clip800)" style="stroke:#000000; stroke-width:4; stroke-opacity:1; fill:none" points="
  166.205,1182.75 192.443,1182.75 
  "/>
<polyline clip-path="url(#clip800)" style="stroke:#000000; stroke-width:4; stroke-opacity:1; fill:none" points="
  166.205,917.635 192.443,917.635 
  "/>
<polyline clip-path="url(#clip800)" style="stroke:#000000; stroke-width:4; stroke-opacity:1; fill:none" points="
  166.205,652.517 192.443,652.517 
  "/>
<polyline clip-path="url(#clip800)" style="stroke:#000000; stroke-width:4; stroke-opacity:1; fill:none" points="
  166.205,387.398 192.443,387.398 
  "/>
<path clip-path="url(#clip800)" d="M 0 0 M118.26 1433.67 Q114.649 1433.67 112.82 1437.24 Q111.015 1440.78 111.015 1447.91 Q111.015 1455.01 112.82 1458.58 Q114.649 1462.12 118.26 1462.12 Q121.895 1462.12 123.7 1458.58 Q125.529 1455.01 125.529 1447.91 Q125.529 1440.78 123.7 1437.24 Q121.895 1433.67 118.26 1433.67 M118.26 1429.97 Q124.07 1429.97 127.126 1434.57 Q130.205 1439.16 130.205 1447.91 Q130.205 1456.63 127.126 1461.24 Q124.07 1465.82 118.26 1465.82 Q112.45 1465.82 109.371 1461.24 Q106.316 1456.63 106.316 1447.91 Q106.316 1439.16 109.371 1434.57 Q112.45 1429.97 118.26 1429.97 Z" fill="#000000" fill-rule="evenodd" fill-opacity="1" /><path clip-path="url(#clip800)" d="M 0 0 M59.8578 1196.1 L76.1772 1196.1 L76.1772 1200.03 L54.2328 1200.03 L54.2328 1196.1 Q56.8949 1193.34 61.4782 1188.71 Q66.0846 1184.06 67.2652 1182.72 Q69.5105 1180.2 70.3902 1178.46 Q71.2929 1176.7 71.2929 1175.01 Q71.2929 1172.26 69.3485 1170.52 Q67.4272 1168.78 64.3254 1168.78 Q62.1263 1168.78 59.6726 1169.55 Q57.2421 1170.31 54.4643 1171.86 L54.4643 1167.14 Q57.2884 1166.01 59.7421 1165.43 Q62.1958 1164.85 64.2328 1164.85 Q69.6031 1164.85 72.7976 1167.53 Q75.992 1170.22 75.992 1174.71 Q75.992 1176.84 75.1818 1178.76 Q74.3948 1180.66 72.2883 1183.25 Q71.7096 1183.92 68.6078 1187.14 Q65.5059 1190.34 59.8578 1196.1 Z" fill="#000000" fill-rule="evenodd" fill-opacity="1" /><path clip-path="url(#clip800)" d="M 0 0 M91.2465 1168.55 Q87.6354 1168.55 85.8068 1172.12 Q84.0012 1175.66 84.0012 1182.79 Q84.0012 1189.9 85.8068 1193.46 Q87.6354 1197 91.2465 1197 Q94.8808 1197 96.6863 1193.46 Q98.515 1189.9 98.515 1182.79 Q98.515 1175.66 96.6863 1172.12 Q94.8808 1168.55 91.2465 1168.55 M91.2465 1164.85 Q97.0567 1164.85 100.112 1169.46 Q103.191 1174.04 103.191 1182.79 Q103.191 1191.52 100.112 1196.12 Q97.0567 1200.71 91.2465 1200.71 Q85.4364 1200.71 82.3577 1196.12 Q79.3022 1191.52 79.3022 1182.79 Q79.3022 1174.04 82.3577 1169.46 Q85.4364 1164.85 91.2465 1164.85 Z" fill="#000000" fill-rule="evenodd" fill-opacity="1" /><path clip-path="url(#clip800)" d="M 0 0 M118.26 1168.55 Q114.649 1168.55 112.82 1172.12 Q111.015 1175.66 111.015 1182.79 Q111.015 1189.9 112.82 1193.46 Q114.649 1197 118.26 1197 Q121.895 1197 123.7 1193.46 Q125.529 1189.9 125.529 1182.79 Q125.529 1175.66 123.7 1172.12 Q121.895 1168.55 118.26 1168.55 M118.26 1164.85 Q124.07 1164.85 127.126 1169.46 Q130.205 1174.04 130.205 1182.79 Q130.205 1191.52 127.126 1196.12 Q124.07 1200.71 118.26 1200.71 Q112.45 1200.71 109.371 1196.12 Q106.316 1191.52 106.316 1182.79 Q106.316 1174.04 109.371 1169.46 Q112.45 1164.85 118.26 1164.85 Z" fill="#000000" fill-rule="evenodd" fill-opacity="1" /><path clip-path="url(#clip800)" d="M 0 0 M66.5939 904.43 L54.7884 922.879 L66.5939 922.879 L66.5939 904.43 M65.367 900.355 L71.2466 900.355 L71.2466 922.879 L76.1772 922.879 L76.1772 926.767 L71.2466 926.767 L71.2466 934.915 L66.5939 934.915 L66.5939 926.767 L50.9921 926.767 L50.9921 922.254 L65.367 900.355 Z" fill="#000000" fill-rule="evenodd" fill-opacity="1" /><path clip-path="url(#clip800)" d="M 0 0 M91.2465 903.434 Q87.6354 903.434 85.8068 906.999 Q84.0012 910.541 84.0012 917.67 Q84.0012 924.777 85.8068 928.341 Q87.6354 931.883 91.2465 931.883 Q94.8808 931.883 96.6863 928.341 Q98.515 924.777 98.515 917.67 Q98.515 910.541 96.6863 906.999 Q94.8808 903.434 91.2465 903.434 M91.2465 899.73 Q97.0567 899.73 100.112 904.337 Q103.191 908.92 103.191 917.67 Q103.191 926.397 100.112 931.003 Q97.0567 935.587 91.2465 935.587 Q85.4364 935.587 82.3577 931.003 Q79.3022 926.397 79.3022 917.67 Q79.3022 908.92 82.3577 904.337 Q85.4364 899.73 91.2465 899.73 Z" fill="#000000" fill-rule="evenodd" fill-opacity="1" /><path clip-path="url(#clip800)" d="M 0 0 M118.26 903.434 Q114.649 903.434 112.82 906.999 Q111.015 910.541 111.015 917.67 Q111.015 924.777 112.82 928.341 Q114.649 931.883 118.26 931.883 Q121.895 931.883 123.7 928.341 Q125.529 924.777 125.529 917.67 Q125.529 910.541 123.7 906.999 Q121.895 903.434 118.26 903.434 M118.26 899.73 Q124.07 899.73 127.126 904.337 Q130.205 908.92 130.205 917.67 Q130.205 926.397 127.126 931.003 Q124.07 935.587 118.26 935.587 Q112.45 935.587 109.371 931.003 Q106.316 926.397 106.316 917.67 Q106.316 908.92 109.371 904.337 Q112.45 899.73 118.26 899.73 Z" fill="#000000" fill-rule="evenodd" fill-opacity="1" /><path clip-path="url(#clip800)" d="M 0 0 M64.6495 650.653 Q61.5013 650.653 59.6495 652.806 Q57.8208 654.959 57.8208 658.709 Q57.8208 662.436 59.6495 664.612 Q61.5013 666.764 64.6495 666.764 Q67.7976 666.764 69.6263 664.612 Q71.4781 662.436 71.4781 658.709 Q71.4781 654.959 69.6263 652.806 Q67.7976 650.653 64.6495 650.653 M73.9318 636.001 L73.9318 640.26 Q72.1726 639.426 70.367 638.987 Q68.5846 638.547 66.8254 638.547 Q62.1958 638.547 59.7421 641.672 Q57.3115 644.797 56.9643 651.116 Q58.33 649.102 60.3902 648.038 Q62.4504 646.95 64.9272 646.95 Q70.1355 646.95 73.1448 650.121 Q76.1772 653.269 76.1772 658.709 Q76.1772 664.033 73.029 667.25 Q69.8809 670.468 64.6495 670.468 Q58.6541 670.468 55.4828 665.885 Q52.3116 661.278 52.3116 652.551 Q52.3116 644.357 56.2004 639.496 Q60.0893 634.612 66.6402 634.612 Q68.3994 634.612 70.1818 634.959 Q71.9874 635.306 73.9318 636.001 Z" fill="#000000" fill-rule="evenodd" fill-opacity="1" /><path clip-path="url(#clip800)" d="M 0 0 M91.2465 638.315 Q87.6354 638.315 85.8068 641.88 Q84.0012 645.422 84.0012 652.551 Q84.0012 659.658 85.8068 663.223 Q87.6354 666.764 91.2465 666.764 Q94.8808 666.764 96.6863 663.223 Q98.515 659.658 98.515 652.551 Q98.515 645.422 96.6863 641.88 Q94.8808 638.315 91.2465 638.315 M91.2465 634.612 Q97.0567 634.612 100.112 639.218 Q103.191 643.801 103.191 652.551 Q103.191 661.278 100.112 665.885 Q97.0567 670.468 91.2465 670.468 Q85.4364 670.468 82.3577 665.885 Q79.3022 661.278 79.3022 652.551 Q79.3022 643.801 82.3577 639.218 Q85.4364 634.612 91.2465 634.612 Z" fill="#000000" fill-rule="evenodd" fill-opacity="1" /><path clip-path="url(#clip800)" d="M 0 0 M118.26 638.315 Q114.649 638.315 112.82 641.88 Q111.015 645.422 111.015 652.551 Q111.015 659.658 112.82 663.223 Q114.649 666.764 118.26 666.764 Q121.895 666.764 123.7 663.223 Q125.529 659.658 125.529 652.551 Q125.529 645.422 123.7 641.88 Q121.895 638.315 118.26 638.315 M118.26 634.612 Q124.07 634.612 127.126 639.218 Q130.205 643.801 130.205 652.551 Q130.205 661.278 127.126 665.885 Q124.07 670.468 118.26 670.468 Q112.45 670.468 109.371 665.885 Q106.316 661.278 106.316 652.551 Q106.316 643.801 109.371 639.218 Q112.45 634.612 118.26 634.612 Z" fill="#000000" fill-rule="evenodd" fill-opacity="1" /><path clip-path="url(#clip800)" d="M 0 0 M64.3254 388.266 Q60.9921 388.266 59.0708 390.048 Q57.1726 391.831 57.1726 394.956 Q57.1726 398.081 59.0708 399.863 Q60.9921 401.645 64.3254 401.645 Q67.6587 401.645 69.58 399.863 Q71.5013 398.058 71.5013 394.956 Q71.5013 391.831 69.58 390.048 Q67.6819 388.266 64.3254 388.266 M59.6495 386.275 Q56.6402 385.534 54.9504 383.474 Q53.2838 381.414 53.2838 378.451 Q53.2838 374.308 56.2236 371.9 Q59.1865 369.493 64.3254 369.493 Q69.4874 369.493 72.4272 371.9 Q75.367 374.308 75.367 378.451 Q75.367 381.414 73.6772 383.474 Q72.0105 385.534 69.0244 386.275 Q72.404 387.062 74.279 389.354 Q76.1772 391.646 76.1772 394.956 Q76.1772 399.979 73.0985 402.664 Q70.0429 405.349 64.3254 405.349 Q58.6078 405.349 55.5291 402.664 Q52.4736 399.979 52.4736 394.956 Q52.4736 391.646 54.3717 389.354 Q56.2699 387.062 59.6495 386.275 M57.9365 378.891 Q57.9365 381.576 59.6032 383.081 Q61.293 384.585 64.3254 384.585 Q67.3346 384.585 69.0244 383.081 Q70.7374 381.576 70.7374 378.891 Q70.7374 376.206 69.0244 374.701 Q67.3346 373.197 64.3254 373.197 Q61.293 373.197 59.6032 374.701 Q57.9365 376.206 57.9365 378.891 Z" fill="#000000" fill-rule="evenodd" fill-opacity="1" /><path clip-path="url(#clip800)" d="M 0 0 M91.2465 373.197 Q87.6354 373.197 85.8068 376.761 Q84.0012 380.303 84.0012 387.433 Q84.0012 394.539 85.8068 398.104 Q87.6354 401.645 91.2465 401.645 Q94.8808 401.645 96.6863 398.104 Q98.515 394.539 98.515 387.433 Q98.515 380.303 96.6863 376.761 Q94.8808 373.197 91.2465 373.197 M91.2465 369.493 Q97.0567 369.493 100.112 374.099 Q103.191 378.683 103.191 387.433 Q103.191 396.159 100.112 400.766 Q97.0567 405.349 91.2465 405.349 Q85.4364 405.349 82.3577 400.766 Q79.3022 396.159 79.3022 387.433 Q79.3022 378.683 82.3577 374.099 Q85.4364 369.493 91.2465 369.493 Z" fill="#000000" fill-rule="evenodd" fill-opacity="1" /><path clip-path="url(#clip800)" d="M 0 0 M118.26 373.197 Q114.649 373.197 112.82 376.761 Q111.015 380.303 111.015 387.433 Q111.015 394.539 112.82 398.104 Q114.649 401.645 118.26 401.645 Q121.895 401.645 123.7 398.104 Q125.529 394.539 125.529 387.433 Q125.529 380.303 123.7 376.761 Q121.895 373.197 118.26 373.197 M118.26 369.493 Q124.07 369.493 127.126 374.099 Q130.205 378.683 130.205 387.433 Q130.205 396.159 127.126 400.766 Q124.07 405.349 118.26 405.349 Q112.45 405.349 109.371 400.766 Q106.316 396.159 106.316 387.433 Q106.316 378.683 109.371 374.099 Q112.45 369.493 118.26 369.493 Z" fill="#000000" fill-rule="evenodd" fill-opacity="1" /><path clip-path="url(#clip800)" d="M 0 0 M1183.67 18.8205 L1183.67 65.8515 L1193.55 65.8515 Q1206.07 65.8515 1211.86 60.1802 Q1217.7 54.509 1217.7 42.2752 Q1217.7 30.1225 1211.86 24.4918 Q1206.07 18.8205 1193.55 18.8205 L1183.67 18.8205 M1175.48 12.096 L1192.3 12.096 Q1209.88 12.096 1218.1 19.4281 Q1226.32 26.7198 1226.32 42.2752 Q1226.32 57.9117 1218.06 65.2439 Q1209.8 72.576 1192.3 72.576 L1175.48 72.576 L1175.48 12.096 Z" fill="#000000" fill-rule="evenodd" fill-opacity="1" /><path clip-path="url(#clip800)" d="M 0 0 M1254.76 49.7694 Q1245.73 49.7694 1242.24 51.8354 Q1238.76 53.9013 1238.76 58.8839 Q1238.76 62.8538 1241.35 65.2034 Q1243.99 67.5124 1248.48 67.5124 Q1254.68 67.5124 1258.41 63.1374 Q1262.17 58.7219 1262.17 51.4303 L1262.17 49.7694 L1254.76 49.7694 M1269.63 46.6907 L1269.63 72.576 L1262.17 72.576 L1262.17 65.6895 Q1259.62 69.8214 1255.81 71.8063 Q1252.01 73.7508 1246.5 73.7508 Q1239.53 73.7508 1235.4 69.8619 Q1231.31 65.9325 1231.31 59.3701 Q1231.31 51.7138 1236.41 47.825 Q1241.56 43.9361 1251.72 43.9361 L1262.17 43.9361 L1262.17 43.2069 Q1262.17 38.0623 1258.77 35.2672 Q1255.41 32.4315 1249.29 32.4315 Q1245.4 32.4315 1241.72 33.3632 Q1238.03 34.295 1234.63 36.1584 L1234.63 29.2718 Q1238.72 27.692 1242.57 26.9223 Q1246.42 26.1121 1250.06 26.1121 Q1259.91 26.1121 1264.77 31.2163 Q1269.63 36.3204 1269.63 46.6907 Z" fill="#000000" fill-rule="evenodd" fill-opacity="1" /><path clip-path="url(#clip800)" d="M 0 0 M1284.82 14.324 L1284.82 27.2059 L1300.17 27.2059 L1300.17 32.9987 L1284.82 32.9987 L1284.82 57.6282 Q1284.82 63.1779 1286.32 64.7578 Q1287.86 66.3376 1292.52 66.3376 L1300.17 66.3376 L1300.17 72.576 L1292.52 72.576 Q1283.89 72.576 1280.61 69.3758 Q1277.32 66.1351 1277.32 57.6282 L1277.32 32.9987 L1271.86 32.9987 L1271.86 27.2059 L1277.32 27.2059 L1277.32 14.324 L1284.82 14.324 Z" fill="#000000" fill-rule="evenodd" fill-opacity="1" /><path clip-path="url(#clip800)" d="M 0 0 M1328.61 49.7694 Q1319.58 49.7694 1316.09 51.8354 Q1312.61 53.9013 1312.61 58.8839 Q1312.61 62.8538 1315.2 65.2034 Q1317.83 67.5124 1322.33 67.5124 Q1328.53 67.5124 1332.25 63.1374 Q1336.02 58.7219 1336.02 51.4303 L1336.02 49.7694 L1328.61 49.7694 M1343.48 46.6907 L1343.48 72.576 L1336.02 72.576 L1336.02 65.6895 Q1333.47 69.8214 1329.66 71.8063 Q1325.85 73.7508 1320.35 73.7508 Q1313.38 73.7508 1309.25 69.8619 Q1305.15 65.9325 1305.15 59.3701 Q1305.15 51.7138 1310.26 47.825 Q1315.4 43.9361 1325.57 43.9361 L1336.02 43.9361 L1336.02 43.2069 Q1336.02 38.0623 1332.62 35.2672 Q1329.26 32.4315 1323.14 32.4315 Q1319.25 32.4315 1315.57 33.3632 Q1311.88 34.295 1308.48 36.1584 L1308.48 29.2718 Q1312.57 27.692 1316.42 26.9223 Q1320.26 26.1121 1323.91 26.1121 Q1333.75 26.1121 1338.61 31.2163 Q1343.48 36.3204 1343.48 46.6907 Z" fill="#000000" fill-rule="evenodd" fill-opacity="1" /><polyline clip-path="url(#clip802)" style="stroke:#009af9; stroke-width:4; stroke-opacity:1; fill:none" points="
  228.088,1447.87 228.088,1355.08 262.468,1355.08 262.468,1262.29 296.848,1262.29 296.848,1275.55 331.227,1275.55 331.227,1169.5 365.607,1169.5 365.607,1156.24 
  399.987,1156.24 399.987,1076.71 434.367,1076.71 468.746,1076.71 468.746,983.915 503.126,983.915 503.126,997.171 537.506,997.171 537.506,891.124 
  571.886,891.124 571.886,851.356 606.265,851.356 606.265,997.171 640.645,997.171 640.645,957.403 675.025,957.403 675.025,1076.71 709.405,1076.71 
  743.784,1076.71 743.784,1235.78 778.164,1235.78 812.544,1235.78 812.544,1209.27 846.923,1209.27 846.923,1288.8 881.303,1288.8 881.303,1421.36 
  915.683,1421.36 915.683,1394.85 950.063,1394.85 950.063,1408.11 984.442,1408.11 984.442,1447.87 1018.82,1447.87 1018.82,1421.36 1053.2,1421.36 1053.2,1434.62 
  1087.58,1434.62 1121.96,1434.62 1121.96,1408.11 1156.34,1408.11 1156.34,1421.36 1190.72,1421.36 1190.72,1355.08 1225.1,1355.08 1225.1,1328.57 
  1259.48,1328.57 1259.48,1262.29 1293.86,1262.29 1293.86,1182.75 1328.24,1182.75 1328.24,1076.71 1362.62,1076.71 1362.62,930.891 1397,930.891 1397,944.147 
  1431.38,944.147 1431.38,612.749 1465.76,612.749 1465.76,665.773 1500.14,665.773 1500.14,413.91 1534.52,413.91 1534.52,546.469 1568.9,546.469 1568.9,533.213 
  1603.28,533.213 1603.28,466.934 1637.66,466.934 1637.66,162.047 1672.04,162.047 1672.04,387.398 1706.42,387.398 1706.42,506.701 1740.8,506.701 1740.8,771.82 
  1775.18,771.82 1775.18,1089.96 1809.56,1089.96 1809.56,1036.94 1843.94,1036.94 1843.94,1222.52 1878.32,1222.52 1878.32,1249.03 1912.7,1249.03 1912.7,1222.52 
  1947.08,1222.52 1947.08,1341.83 1981.45,1341.83 1981.45,1368.34 2015.83,1368.34 2015.83,1408.11 2050.21,1408.11 2050.21,1394.85 2084.59,1394.85 2084.59,1447.87 
  2118.97,1447.87 2118.97,1421.36 2153.35,1421.36 2153.35,1447.87 2187.73,1447.87 2222.11,1447.87 2222.11,1434.62 2256.49,1434.62 2256.49,1447.87 
  2290.87,1447.87 
  "/>
<path clip-path="url(#clip800)" d="
M1940.93 289.865 L2279.87 289.865 L2279.87 168.905 L1940.93 168.905  Z
  " fill="#ffffff" fill-rule="evenodd" fill-opacity="1"/>
<polyline clip-path="url(#clip800)" style="stroke:#000000; stroke-width:4; stroke-opacity:1; fill:none" points="
  1940.93,289.865 2279.87,289.865 2279.87,168.905 1940.93,168.905 1940.93,289.865 
  "/>
<polyline clip-path="url(#clip800)" style="stroke:#009af9; stroke-width:4; stroke-opacity:1; fill:none" points="
  1965.22,229.385 2110.99,229.385 
  "/>
<path clip-path="url(#clip800)" d="M 0 0 M2139.96 215.947 L2139.96 242.822 L2145.61 242.822 Q2152.76 242.822 2156.07 239.581 Q2159.41 236.341 2159.41 229.35 Q2159.41 222.406 2156.07 219.188 Q2152.76 215.947 2145.61 215.947 L2139.96 215.947 M2135.29 212.105 L2144.89 212.105 Q2154.94 212.105 2159.64 216.294 Q2164.34 220.461 2164.34 229.35 Q2164.34 238.285 2159.61 242.475 Q2154.89 246.665 2144.89 246.665 L2135.29 246.665 L2135.29 212.105 Z" fill="#000000" fill-rule="evenodd" fill-opacity="1" /><path clip-path="url(#clip800)" d="M 0 0 M2180.59 233.632 Q2175.42 233.632 2173.43 234.813 Q2171.44 235.993 2171.44 238.841 Q2171.44 241.109 2172.92 242.452 Q2174.43 243.771 2177 243.771 Q2180.54 243.771 2182.67 241.271 Q2184.82 238.748 2184.82 234.581 L2184.82 233.632 L2180.59 233.632 M2189.08 231.873 L2189.08 246.665 L2184.82 246.665 L2184.82 242.729 Q2183.36 245.091 2181.19 246.225 Q2179.01 247.336 2175.86 247.336 Q2171.88 247.336 2169.52 245.114 Q2167.18 242.868 2167.18 239.118 Q2167.18 234.743 2170.1 232.521 Q2173.04 230.299 2178.85 230.299 L2184.82 230.299 L2184.82 229.882 Q2184.82 226.943 2182.88 225.345 Q2180.96 223.725 2177.46 223.725 Q2175.24 223.725 2173.13 224.257 Q2171.03 224.79 2169.08 225.855 L2169.08 221.919 Q2171.42 221.017 2173.62 220.577 Q2175.82 220.114 2177.9 220.114 Q2183.53 220.114 2186.3 223.031 Q2189.08 225.947 2189.08 231.873 Z" fill="#000000" fill-rule="evenodd" fill-opacity="1" /><path clip-path="url(#clip800)" d="M 0 0 M2197.76 213.378 L2197.76 220.739 L2206.54 220.739 L2206.54 224.049 L2197.76 224.049 L2197.76 238.123 Q2197.76 241.294 2198.62 242.197 Q2199.5 243.1 2202.16 243.1 L2206.54 243.1 L2206.54 246.665 L2202.16 246.665 Q2197.23 246.665 2195.36 244.836 Q2193.48 242.984 2193.48 238.123 L2193.48 224.049 L2190.36 224.049 L2190.36 220.739 L2193.48 220.739 L2193.48 213.378 L2197.76 213.378 Z" fill="#000000" fill-rule="evenodd" fill-opacity="1" /><path clip-path="url(#clip800)" d="M 0 0 M2222.79 233.632 Q2217.62 233.632 2215.63 234.813 Q2213.64 235.993 2213.64 238.841 Q2213.64 241.109 2215.12 242.452 Q2216.63 243.771 2219.2 243.771 Q2222.74 243.771 2224.87 241.271 Q2227.02 238.748 2227.02 234.581 L2227.02 233.632 L2222.79 233.632 M2231.28 231.873 L2231.28 246.665 L2227.02 246.665 L2227.02 242.729 Q2225.56 245.091 2223.39 246.225 Q2221.21 247.336 2218.06 247.336 Q2214.08 247.336 2211.72 245.114 Q2209.38 242.868 2209.38 239.118 Q2209.38 234.743 2212.3 232.521 Q2215.24 230.299 2221.05 230.299 L2227.02 230.299 L2227.02 229.882 Q2227.02 226.943 2225.08 225.345 Q2223.16 223.725 2219.66 223.725 Q2217.44 223.725 2215.33 224.257 Q2213.23 224.79 2211.28 225.855 L2211.28 221.919 Q2213.62 221.017 2215.82 220.577 Q2218.02 220.114 2220.1 220.114 Q2225.73 220.114 2228.5 223.031 Q2231.28 225.947 2231.28 231.873 Z" fill="#000000" fill-rule="evenodd" fill-opacity="1" /></svg>
