<?xml version="1.0" encoding="utf-8"?>
<svg xmlns="http://www.w3.org/2000/svg" xmlns:xlink="http://www.w3.org/1999/xlink" width="600" height="400" viewBox="0 0 2400 1600">
<defs>
  <clipPath id="clip830">
    <rect x="0" y="0" width="2400" height="1600"/>
  </clipPath>
</defs>
<path clip-path="url(#clip830)" d="
M0 1600 L2400 1600 L2400 0 L0 0  Z
  " fill="#ffffff" fill-rule="evenodd" fill-opacity="1"/>
<defs>
  <clipPath id="clip831">
    <rect x="480" y="0" width="1681" height="1600"/>
  </clipPath>
</defs>
<path clip-path="url(#clip830)" d="
M166.205 1486.45 L2352.76 1486.45 L2352.76 123.472 L166.205 123.472  Z
  " fill="#ffffff" fill-rule="evenodd" fill-opacity="1"/>
<defs>
  <clipPath id="clip832">
    <rect x="166" y="123" width="2188" height="1364"/>
  </clipPath>
</defs>
<polyline clip-path="url(#clip832)" style="stroke:#000000; stroke-width:2; stroke-opacity:0.1; fill:none" points="
  228.088,1486.45 228.088,123.472 
  "/>
<polyline clip-path="url(#clip832)" style="stroke:#000000; stroke-width:2; stroke-opacity:0.1; fill:none" points="
  743.784,1486.45 743.784,123.472 
  "/>
<polyline clip-path="url(#clip832)" style="stroke:#000000; stroke-width:2; stroke-opacity:0.1; fill:none" points="
  1259.48,1486.45 1259.48,123.472 
  "/>
<polyline clip-path="url(#clip832)" style="stroke:#000000; stroke-width:2; stroke-opacity:0.1; fill:none" points="
  1775.18,1486.45 1775.18,123.472 
  "/>
<polyline clip-path="url(#clip832)" style="stroke:#000000; stroke-width:2; stroke-opacity:0.1; fill:none" points="
  2290.87,1486.45 2290.87,123.472 
  "/>
<polyline clip-path="url(#clip830)" style="stroke:#000000; stroke-width:4; stroke-opacity:1; fill:none" points="
  166.205,1486.45 2352.76,1486.45 
  "/>
<polyline clip-path="url(#clip830)" style="stroke:#000000; stroke-width:4; stroke-opacity:1; fill:none" points="
  228.088,1486.45 228.088,1470.09 
  "/>
<polyline clip-path="url(#clip830)" style="stroke:#000000; stroke-width:4; stroke-opacity:1; fill:none" points="
  743.784,1486.45 743.784,1470.09 
  "/>
<polyline clip-path="url(#clip830)" style="stroke:#000000; stroke-width:4; stroke-opacity:1; fill:none" points="
  1259.48,1486.45 1259.48,1470.09 
  "/>
<polyline clip-path="url(#clip830)" style="stroke:#000000; stroke-width:4; stroke-opacity:1; fill:none" points="
  1775.18,1486.45 1775.18,1470.09 
  "/>
<polyline clip-path="url(#clip830)" style="stroke:#000000; stroke-width:4; stroke-opacity:1; fill:none" points="
  2290.87,1486.45 2290.87,1470.09 
  "/>
<path clip-path="url(#clip830)" d="M 0 0 M199.5 1530.29 L229.176 1530.29 L229.176 1534.23 L199.5 1534.23 L199.5 1530.29 Z" fill="#000000" fill-rule="evenodd" fill-opacity="1" /><path clip-path="url(#clip830)" d="M 0 0 M247.093 1516.63 L235.287 1535.08 L247.093 1535.08 L247.093 1516.63 M245.866 1512.56 L251.745 1512.56 L251.745 1535.08 L256.676 1535.08 L256.676 1538.97 L251.745 1538.97 L251.745 1547.12 L247.093 1547.12 L247.093 1538.97 L231.491 1538.97 L231.491 1534.46 L245.866 1512.56 Z" fill="#000000" fill-rule="evenodd" fill-opacity="1" /><path clip-path="url(#clip830)" d="M 0 0 M716.238 1530.29 L745.914 1530.29 L745.914 1534.23 L716.238 1534.23 L716.238 1530.29 Z" fill="#000000" fill-rule="evenodd" fill-opacity="1" /><path clip-path="url(#clip830)" d="M 0 0 M755.011 1543.18 L771.33 1543.18 L771.33 1547.12 L749.386 1547.12 L749.386 1543.18 Q752.048 1540.43 756.631 1535.8 Q761.238 1531.15 762.418 1529.81 Q764.664 1527.28 765.543 1525.55 Q766.446 1523.79 766.446 1522.1 Q766.446 1519.34 764.502 1517.61 Q762.58 1515.87 759.479 1515.87 Q757.28 1515.87 754.826 1516.63 Q752.395 1517.4 749.618 1518.95 L749.618 1514.23 Q752.442 1513.09 754.895 1512.51 Q757.349 1511.93 759.386 1511.93 Q764.756 1511.93 767.951 1514.62 Q771.145 1517.31 771.145 1521.8 Q771.145 1523.93 770.335 1525.85 Q769.548 1527.74 767.442 1530.34 Q766.863 1531.01 763.761 1534.23 Q760.659 1537.42 755.011 1543.18 Z" fill="#000000" fill-rule="evenodd" fill-opacity="1" /><path clip-path="url(#clip830)" d="M 0 0 M1259.48 1515.64 Q1255.87 1515.64 1254.04 1519.2 Q1252.23 1522.75 1252.23 1529.87 Q1252.23 1536.98 1254.04 1540.55 Q1255.87 1544.09 1259.48 1544.09 Q1263.11 1544.09 1264.92 1540.55 Q1266.75 1536.98 1266.75 1529.87 Q1266.75 1522.75 1264.92 1519.2 Q1263.11 1515.64 1259.48 1515.64 M1259.48 1511.93 Q1265.29 1511.93 1268.35 1516.54 Q1271.42 1521.12 1271.42 1529.87 Q1271.42 1538.6 1268.35 1543.21 Q1265.29 1547.79 1259.48 1547.79 Q1253.67 1547.79 1250.59 1543.21 Q1247.54 1538.6 1247.54 1529.87 Q1247.54 1521.12 1250.59 1516.54 Q1253.67 1511.93 1259.48 1511.93 Z" fill="#000000" fill-rule="evenodd" fill-opacity="1" /><path clip-path="url(#clip830)" d="M 0 0 M1769.83 1543.18 L1786.15 1543.18 L1786.15 1547.12 L1764.2 1547.12 L1764.2 1543.18 Q1766.87 1540.43 1771.45 1535.8 Q1776.06 1531.15 1777.24 1529.81 Q1779.48 1527.28 1780.36 1525.55 Q1781.26 1523.79 1781.26 1522.1 Q1781.26 1519.34 1779.32 1517.61 Q1777.4 1515.87 1774.3 1515.87 Q1772.1 1515.87 1769.64 1516.63 Q1767.21 1517.4 1764.44 1518.95 L1764.44 1514.23 Q1767.26 1513.09 1769.71 1512.51 Q1772.17 1511.93 1774.2 1511.93 Q1779.57 1511.93 1782.77 1514.62 Q1785.96 1517.31 1785.96 1521.8 Q1785.96 1523.93 1785.15 1525.85 Q1784.37 1527.74 1782.26 1530.34 Q1781.68 1531.01 1778.58 1534.23 Q1775.48 1537.42 1769.83 1543.18 Z" fill="#000000" fill-rule="evenodd" fill-opacity="1" /><path clip-path="url(#clip830)" d="M 0 0 M2293.88 1516.63 L2282.08 1535.08 L2293.88 1535.08 L2293.88 1516.63 M2292.65 1512.56 L2298.53 1512.56 L2298.53 1535.08 L2303.46 1535.08 L2303.46 1538.97 L2298.53 1538.97 L2298.53 1547.12 L2293.88 1547.12 L2293.88 1538.97 L2278.28 1538.97 L2278.28 1534.46 L2292.65 1512.56 Z" fill="#000000" fill-rule="evenodd" fill-opacity="1" /><polyline clip-path="url(#clip832)" style="stroke:#000000; stroke-width:2; stroke-opacity:0.1; fill:none" points="
  166.205,1447.87 2352.76,1447.87 
  "/>
<polyline clip-path="url(#clip832)" style="stroke:#000000; stroke-width:2; stroke-opacity:0.1; fill:none" points="
  166.205,1182.75 2352.76,1182.75 
  "/>
<polyline clip-path="url(#clip832)" style="stroke:#000000; stroke-width:2; stroke-opacity:0.1; fill:none" points="
  166.205,917.635 2352.76,917.635 
  "/>
<polyline clip-path="url(#clip832)" style="stroke:#000000; stroke-width:2; stroke-opacity:0.1; fill:none" points="
  166.205,652.517 2352.76,652.517 
  "/>
<polyline clip-path="url(#clip832)" style="stroke:#000000; stroke-width:2; stroke-opacity:0.1; fill:none" points="
  166.205,387.398 2352.76,387.398 
  "/>
<polyline clip-path="url(#clip830)" style="stroke:#000000; stroke-width:4; stroke-opacity:1; fill:none" points="
  166.205,1486.45 166.205,123.472 
  "/>
<polyline clip-path="url(#clip830)" style="stroke:#000000; stroke-width:4; stroke-opacity:1; fill:none" points="
  166.205,1447.87 192.443,1447.87 
  "/>
<polyline clip-path="url(#clip830)" style="stroke:#000000; stroke-width:4; stroke-opacity:1; fill:none" points="
  166.205,1182.75 192.443,1182.75 
  "/>
<polyline clip-path="url(#clip830)" style="stroke:#000000; stroke-width:4; stroke-opacity:1; fill:none" points="
  166.205,917.635 192.443,917.635 
  "/>
<polyline clip-path="url(#clip830)" style="stroke:#000000; stroke-width:4; stroke-opacity:1; fill:none" points="
  166.205,652.517 192.443,652.517 
  "/>
<polyline clip-path="url(#clip830)" style="stroke:#000000; stroke-width:4; stroke-opacity:1; fill:none" points="
  166.205,387.398 192.443,387.398 
  "/>
<path clip-path="url(#clip830)" d="M 0 0 M118.26 1433.67 Q114.649 1433.67 112.82 1437.24 Q111.015 1440.78 111.015 1447.91 Q111.015 1455.01 112.82 1458.58 Q114.649 1462.12 118.26 1462.12 Q121.895 1462.12 123.7 1458.58 Q125.529 1455.01 125.529 1447.91 Q125.529 1440.78 123.7 1437.24 Q121.895 1433.67 118.26 1433.67 M118.26 1429.97 Q124.07 1429.97 127.126 1434.57 Q130.205 1439.16 130.205 1447.91 Q130.205 1456.63 127.126 1461.24 Q124.07 1465.82 118.26 1465.82 Q112.45 1465.82 109.371 1461.24 Q106.316 1456.63 106.316 1447.91 Q106.316 1439.16 109.371 1434.57 Q112.45 1429.97 118.26 1429.97 Z" fill="#000000" fill-rule="evenodd" fill-opacity="1" /><path clip-path="url(#clip830)" d="M 0 0 M59.8578 1196.1 L76.1772 1196.1 L76.1772 1200.03 L54.2328 1200.03 L54.2328 1196.1 Q56.8949 1193.34 61.4782 1188.71 Q66.0846 1184.06 67.2652 1182.72 Q69.5105 1180.2 70.3902 1178.46 Q71.2929 1176.7 71.2929 1175.01 Q71.2929 1172.26 69.3485 1170.52 Q67.4272 1168.78 64.3254 1168.78 Q62.1263 1168.78 59.6726 1169.55 Q57.2421 1170.31 54.4643 1171.86 L54.4643 1167.14 Q57.2884 1166.01 59.7421 1165.43 Q62.1958 1164.85 64.2328 1164.85 Q69.6031 1164.85 72.7976 1167.53 Q75.992 1170.22 75.992 1174.71 Q75.992 1176.84 75.1818 1178.76 Q74.3948 1180.66 72.2883 1183.25 Q71.7096 1183.92 68.6078 1187.14 Q65.5059 1190.34 59.8578 1196.1 Z" fill="#000000" fill-rule="evenodd" fill-opacity="1" /><path clip-path="url(#clip830)" d="M 0 0 M91.2465 1168.55 Q87.6354 1168.55 85.8068 1172.12 Q84.0012 1175.66 84.0012 1182.79 Q84.0012 1189.9 85.8068 1193.46 Q87.6354 1197 91.2465 1197 Q94.8808 1197 96.6863 1193.46 Q98.515 1189.9 98.515 1182.79 Q98.515 1175.66 96.6863 1172.12 Q94.8808 1168.55 91.2465 1168.55 M91.2465 1164.85 Q97.0567 1164.85 100.112 1169.46 Q103.191 1174.04 103.191 1182.79 Q103.191 1191.52 100.112 1196.12 Q97.0567 1200.71 91.2465 1200.71 Q85.4364 1200.71 82.3577 1196.12 Q79.3022 1191.52 79.3022 1182.79 Q79.3022 1174.04 82.3577 1169.46 Q85.4364 1164.85 91.2465 1164.85 Z" fill="#000000" fill-rule="evenodd" fill-opacity="1" /><path clip-path="url(#clip830)" d="M 0 0 M118.26 1168.55 Q114.649 1168.55 112.82 1172.12 Q111.015 1175.66 111.015 1182.79 Q111.015 1189.9 112.82 1193.46 Q114.649 1197 118.26 1197 Q121.895 1197 123.7 1193.46 Q125.529 1189.9 125.529 1182.79 Q125.529 1175.66 123.7 1172.12 Q121.895 1168.55 118.26 1168.55 M118.26 1164.85 Q124.07 1164.85 127.126 1169.46 Q130.205 1174.04 130.205 1182.79 Q130.205 1191.52 127.126 1196.12 Q124.07 1200.71 118.26 1200.71 Q112.45 1200.71 109.371 1196.12 Q106.316 1191.52 106.316 1182.79 Q106.316 1174.04 109.371 1169.46 Q112.45 1164.85 118.26 1164.85 Z" fill="#000000" fill-rule="evenodd" fill-opacity="1" /><path clip-path="url(#clip830)" d="M 0 0 M66.5939 904.43 L54.7884 922.879 L66.5939 922.879 L66.5939 904.43 M65.367 900.355 L71.2466 900.355 L71.2466 922.879 L76.1772 922.879 L76.1772 926.767 L71.2466 926.767 L71.2466 934.915 L66.5939 934.915 L66.5939 926.767 L50.9921 926.767 L50.9921 922.254 L65.367 900.355 Z" fill="#000000" fill-rule="evenodd" fill-opacity="1" /><path clip-path="url(#clip830)" d="M 0 0 M91.2465 903.434 Q87.6354 903.434 85.8068 906.999 Q84.0012 910.541 84.0012 917.67 Q84.0012 924.777 85.8068 928.341 Q87.6354 931.883 91.2465 931.883 Q94.8808 931.883 96.6863 928.341 Q98.515 924.777 98.515 917.67 Q98.515 910.541 96.6863 906.999 Q94.8808 903.434 91.2465 903.434 M91.2465 899.73 Q97.0567 899.73 100.112 904.337 Q103.191 908.92 103.191 917.67 Q103.191 926.397 100.112 931.003 Q97.0567 935.587 91.2465 935.587 Q85.4364 935.587 82.3577 931.003 Q79.3022 926.397 79.3022 917.67 Q79.3022 908.92 82.3577 904.337 Q85.4364 899.73 91.2465 899.73 Z" fill="#000000" fill-rule="evenodd" fill-opacity="1" /><path clip-path="url(#clip830)" d="M 0 0 M118.26 903.434 Q114.649 903.434 112.82 906.999 Q111.015 910.541 111.015 917.67 Q111.015 924.777 112.82 928.341 Q114.649 931.883 118.26 931.883 Q121.895 931.883 123.7 928.341 Q125.529 924.777 125.529 917.67 Q125.529 910.541 123.7 906.999 Q121.895 903.434 118.26 903.434 M118.26 899.73 Q124.07 899.73 127.126 904.337 Q130.205 908.92 130.205 917.67 Q130.205 926.397 127.126 931.003 Q124.07 935.587 118.26 935.587 Q112.45 935.587 109.371 931.003 Q106.316 926.397 106.316 917.67 Q106.316 908.92 109.371 904.337 Q112.45 899.73 118.26 899.73 Z" fill="#000000" fill-rule="evenodd" fill-opacity="1" /><path clip-path="url(#clip830)" d="M 0 0 M64.6495 650.653 Q61.5013 650.653 59.6495 652.806 Q57.8208 654.959 57.8208 658.709 Q57.8208 662.436 59.6495 664.612 Q61.5013 666.764 64.6495 666.764 Q67.7976 666.764 69.6263 664.612 Q71.4781 662.436 71.4781 658.709 Q71.4781 654.959 69.6263 652.806 Q67.7976 650.653 64.6495 650.653 M73.9318 636.001 L73.9318 640.26 Q72.1726 639.426 70.367 638.987 Q68.5846 638.547 66.8254 638.547 Q62.1958 638.547 59.7421 641.672 Q57.3115 644.797 56.9643 651.116 Q58.33 649.102 60.3902 648.038 Q62.4504 646.95 64.9272 646.95 Q70.1355 646.95 73.1448 650.121 Q76.1772 653.269 76.1772 658.709 Q76.1772 664.033 73.029 667.25 Q69.8809 670.468 64.6495 670.468 Q58.6541 670.468 55.4828 665.885 Q52.3116 661.278 52.3116 652.551 Q52.3116 644.357 56.2004 639.496 Q60.0893 634.612 66.6402 634.612 Q68.3994 634.612 70.1818 634.959 Q71.9874 635.306 73.9318 636.001 Z" fill="#000000" fill-rule="evenodd" fill-opacity="1" /><path clip-path="url(#clip830)" d="M 0 0 M91.2465 638.315 Q87.6354 638.315 85.8068 641.88 Q84.0012 645.422 84.0012 652.551 Q84.0012 659.658 85.8068 663.223 Q87.6354 666.764 91.2465 666.764 Q94.8808 666.764 96.6863 663.223 Q98.515 659.658 98.515 652.551 Q98.515 645.422 96.6863 641.88 Q94.8808 638.315 91.2465 638.315 M91.2465 634.612 Q97.0567 634.612 100.112 639.218 Q103.191 643.801 103.191 652.551 Q103.191 661.278 100.112 665.885 Q97.0567 670.468 91.2465 670.468 Q85.4364 670.468 82.3577 665.885 Q79.3022 661.278 79.3022 652.551 Q79.3022 643.801 82.3577 639.218 Q85.4364 634.612 91.2465 634.612 Z" fill="#000000" fill-rule="evenodd" fill-opacity="1" /><path clip-path="url(#clip830)" d="M 0 0 M118.26 638.315 Q114.649 638.315 112.82 641.88 Q111.015 645.422 111.015 652.551 Q111.015 659.658 112.82 663.223 Q114.649 666.764 118.26 666.764 Q121.895 666.764 123.7 663.223 Q125.529 659.658 125.529 652.551 Q125.529 645.422 123.7 641.88 Q121.895 638.315 118.26 638.315 M118.26 634.612 Q124.07 634.612 127.126 639.218 Q130.205 643.801 130.205 652.551 Q130.205 661.278 127.126 665.885 Q124.07 670.468 118.26 670.468 Q112.45 670.468 109.371 665.885 Q106.316 661.278 106.316 652.551 Q106.316 643.801 109.371 639.218 Q112.45 634.612 118.26 634.612 Z" fill="#000000" fill-rule="evenodd" fill-opacity="1" /><path clip-path="url(#clip830)" d="M 0 0 M64.3254 388.266 Q60.9921 388.266 59.0708 390.048 Q57.1726 391.831 57.1726 394.956 Q57.1726 398.081 59.0708 399.863 Q60.9921 401.645 64.3254 401.645 Q67.6587 401.645 69.58 399.863 Q71.5013 398.058 71.5013 394.956 Q71.5013 391.831 69.58 390.048 Q67.6819 388.266 64.3254 388.266 M59.6495 386.275 Q56.6402 385.534 54.9504 383.474 Q53.2838 381.414 53.2838 378.451 Q53.2838 374.308 56.2236 371.9 Q59.1865 369.493 64.3254 369.493 Q69.4874 369.493 72.4272 371.9 Q75.367 374.308 75.367 378.451 Q75.367 381.414 73.6772 383.474 Q72.0105 385.534 69.0244 386.275 Q72.404 387.062 74.279 389.354 Q76.1772 391.646 76.1772 394.956 Q76.1772 399.979 73.0985 402.664 Q70.0429 405.349 64.3254 405.349 Q58.6078 405.349 55.5291 402.664 Q52.4736 399.979 52.4736 394.956 Q52.4736 391.646 54.3717 389.354 Q56.2699 387.062 59.6495 386.275 M57.9365 378.891 Q57.9365 381.576 59.6032 383.081 Q61.293 384.585 64.3254 384.585 Q67.3346 384.585 69.0244 383.081 Q70.7374 381.576 70.7374 378.891 Q70.7374 376.206 69.0244 374.701 Q67.3346 373.197 64.3254 373.197 Q61.293 373.197 59.6032 374.701 Q57.9365 376.206 57.9365 378.891 Z" fill="#000000" fill-rule="evenodd" fill-opacity="1" /><path clip-path="url(#clip830)" d="M 0 0 M91.2465 373.197 Q87.6354 373.197 85.8068 376.761 Q84.0012 380.303 84.0012 387.433 Q84.0012 394.539 85.8068 398.104 Q87.6354 401.645 91.2465 401.645 Q94.8808 401.645 96.6863 398.104 Q98.515 394.539 98.515 387.433 Q98.515 380.303 96.6863 376.761 Q94.8808 373.197 91.2465 373.197 M91.2465 369.493 Q97.0567 369.493 100.112 374.099 Q103.191 378.683 103.191 387.433 Q103.191 396.159 100.112 400.766 Q97.0567 405.349 91.2465 405.349 Q85.4364 405.349 82.3577 400.766 Q79.3022 396.159 79.3022 387.433 Q79.3022 378.683 82.3577 374.099 Q85.4364 369.493 91.2465 369.493 Z" fill="#000000" fill-rule="evenodd" fill-opacity="1" /><path clip-path="url(#clip830)" d="M 0 0 M118.26 373.197 Q114.649 373.197 112.82 376.761 Q111.015 380.303 111.015 387.433 Q111.015 394.539 112.82 398.104 Q114.649 401.645 118.26 401.645 Q121.895 401.645 123.7 398.104 Q125.529 394.539 125.529 387.433 Q125.529 380.303 123.7 376.761 Q121.895 373.197 118.26 373.197 M118.26 369.493 Q124.07 369.493 127.126 374.099 Q130.205 378.683 130.205 387.433 Q130.205 396.159 127.126 400.766 Q124.07 405.349 118.26 405.349 Q112.45 405.349 109.371 400.766 Q106.316 396.159 106.316 387.433 Q106.316 378.683 109.371 374.099 Q112.45 369.493 118.26 369.493 Z" fill="#000000" fill-rule="evenodd" fill-opacity="1" /><path clip-path="url(#clip830)" d="M 0 0 M697.458 18.8205 L697.458 65.8515 L707.342 65.8515 Q719.859 65.8515 725.652 60.1802 Q731.485 54.509 731.485 42.2752 Q731.485 30.1225 725.652 24.4918 Q719.859 18.8205 707.342 18.8205 L697.458 18.8205 M689.275 12.096 L706.086 12.096 Q723.667 12.096 731.891 19.4281 Q740.114 26.7198 740.114 42.2752 Q740.114 57.9117 731.85 65.2439 Q723.586 72.576 706.086 72.576 L689.275 72.576 L689.275 12.096 Z" fill="#000000" fill-rule="evenodd" fill-opacity="1" /><path clip-path="url(#clip830)" d="M 0 0 M768.551 49.7694 Q759.518 49.7694 756.034 51.8354 Q752.55 53.9013 752.55 58.8839 Q752.55 62.8538 755.143 65.2034 Q757.776 67.5124 762.272 67.5124 Q768.47 67.5124 772.197 63.1374 Q775.964 58.7219 775.964 51.4303 L775.964 49.7694 L768.551 49.7694 M783.418 46.6907 L783.418 72.576 L775.964 72.576 L775.964 65.6895 Q773.412 69.8214 769.604 71.8063 Q765.797 73.7508 760.287 73.7508 Q753.32 73.7508 749.188 69.8619 Q745.096 65.9325 745.096 59.3701 Q745.096 51.7138 750.201 47.825 Q755.345 43.9361 765.513 43.9361 L775.964 43.9361 L775.964 43.2069 Q775.964 38.0623 772.562 35.2672 Q769.199 32.4315 763.082 32.4315 Q759.194 32.4315 755.507 33.3632 Q751.821 34.295 748.418 36.1584 L748.418 29.2718 Q752.51 27.692 756.358 26.9223 Q760.206 26.1121 763.852 26.1121 Q773.696 26.1121 778.557 31.2163 Q783.418 36.3204 783.418 46.6907 Z" fill="#000000" fill-rule="evenodd" fill-opacity="1" /><path clip-path="url(#clip830)" d="M 0 0 M798.609 14.324 L798.609 27.2059 L813.962 27.2059 L813.962 32.9987 L798.609 32.9987 L798.609 57.6282 Q798.609 63.1779 800.108 64.7578 Q801.647 66.3376 806.306 66.3376 L813.962 66.3376 L813.962 72.576 L806.306 72.576 Q797.677 72.576 794.396 69.3758 Q791.115 66.1351 791.115 57.6282 L791.115 32.9987 L785.646 32.9987 L785.646 27.2059 L791.115 27.2059 L791.115 14.324 L798.609 14.324 Z" fill="#000000" fill-rule="evenodd" fill-opacity="1" /><path clip-path="url(#clip830)" d="M 0 0 M842.399 49.7694 Q833.366 49.7694 829.882 51.8354 Q826.398 53.9013 826.398 58.8839 Q826.398 62.8538 828.991 65.2034 Q831.624 67.5124 836.12 67.5124 Q842.318 67.5124 846.045 63.1374 Q849.812 58.7219 849.812 51.4303 L849.812 49.7694 L842.399 49.7694 M857.266 46.6907 L857.266 72.576 L849.812 72.576 L849.812 65.6895 Q847.26 69.8214 843.452 71.8063 Q839.645 73.7508 834.135 73.7508 Q827.168 73.7508 823.036 69.8619 Q818.944 65.9325 818.944 59.3701 Q818.944 51.7138 824.049 47.825 Q829.193 43.9361 839.361 43.9361 L849.812 43.9361 L849.812 43.2069 Q849.812 38.0623 846.41 35.2672 Q843.047 32.4315 836.93 32.4315 Q833.042 32.4315 829.355 33.3632 Q825.669 34.295 822.266 36.1584 L822.266 29.2718 Q826.358 27.692 830.206 26.9223 Q834.054 26.1121 837.7 26.1121 Q847.544 26.1121 852.405 31.2163 Q857.266 36.3204 857.266 46.6907 Z" fill="#000000" fill-rule="evenodd" fill-opacity="1" /><path clip-path="url(#clip830)" d="M 0 0 M912.075 49.7694 Q903.041 49.7694 899.557 51.8354 Q896.074 53.9013 896.074 58.8839 Q896.074 62.8538 898.666 65.2034 Q901.299 67.5124 905.796 67.5124 Q911.994 67.5124 915.721 63.1374 Q919.488 58.7219 919.488 51.4303 L919.488 49.7694 L912.075 49.7694 M926.942 46.6907 L926.942 72.576 L919.488 72.576 L919.488 65.6895 Q916.936 69.8214 913.128 71.8063 Q909.32 73.7508 903.811 73.7508 Q896.843 73.7508 892.711 69.8619 Q888.62 65.9325 888.62 59.3701 Q888.62 51.7138 893.724 47.825 Q898.869 43.9361 909.037 43.9361 L919.488 43.9361 L919.488 43.2069 Q919.488 38.0623 916.085 35.2672 Q912.723 32.4315 906.606 32.4315 Q902.717 32.4315 899.031 33.3632 Q895.345 34.295 891.942 36.1584 L891.942 29.2718 Q896.033 27.692 899.882 26.9223 Q903.73 26.1121 907.376 26.1121 Q917.219 26.1121 922.08 31.2163 Q926.942 36.3204 926.942 46.6907 Z" fill="#000000" fill-rule="evenodd" fill-opacity="1" /><path clip-path="url(#clip830)" d="M 0 0 M972.474 45.1919 L972.474 72.576 L965.02 72.576 L965.02 45.4349 Q965.02 38.994 962.508 35.7938 Q959.997 32.5936 954.974 32.5936 Q948.938 32.5936 945.454 36.4419 Q941.97 40.2903 941.97 46.9338 L941.97 72.576 L934.476 72.576 L934.476 27.2059 L941.97 27.2059 L941.97 34.2544 Q944.644 30.163 948.249 28.1376 Q951.895 26.1121 956.635 26.1121 Q964.453 26.1121 968.463 30.9732 Q972.474 35.7938 972.474 45.1919 Z" fill="#000000" fill-rule="evenodd" fill-opacity="1" /><path clip-path="url(#clip830)" d="M 0 0 M1010.15 34.0924 L1010.15 9.54393 L1017.6 9.54393 L1017.6 72.576 L1010.15 72.576 L1010.15 65.7705 Q1007.8 69.8214 1004.19 71.8063 Q1000.63 73.7508 995.604 73.7508 Q987.381 73.7508 982.196 67.1883 Q977.051 60.6258 977.051 49.9314 Q977.051 39.2371 982.196 32.6746 Q987.381 26.1121 995.604 26.1121 Q1000.63 26.1121 1004.19 28.0971 Q1007.8 30.0415 1010.15 34.0924 M984.748 49.9314 Q984.748 58.1548 988.11 62.8538 Q991.513 67.5124 997.427 67.5124 Q1003.34 67.5124 1006.74 62.8538 Q1010.15 58.1548 1010.15 49.9314 Q1010.15 41.7081 1006.74 37.0496 Q1003.34 32.3505 997.427 32.3505 Q991.513 32.3505 988.11 37.0496 Q984.748 41.7081 984.748 49.9314 Z" fill="#000000" fill-rule="evenodd" fill-opacity="1" /><path clip-path="url(#clip830)" d="M 0 0 M1043.73 12.096 L1094.89 12.096 L1094.89 18.9825 L1073.42 18.9825 L1073.42 72.576 L1065.2 72.576 L1065.2 18.9825 L1043.73 18.9825 L1043.73 12.096 Z" fill="#000000" fill-rule="evenodd" fill-opacity="1" /><path clip-path="url(#clip830)" d="M 0 0 M1116.81 34.1734 Q1115.55 33.4443 1114.05 33.1202 Q1112.59 32.7556 1110.81 32.7556 Q1104.49 32.7556 1101.09 36.8875 Q1097.73 40.9789 1097.73 48.6757 L1097.73 72.576 L1090.23 72.576 L1090.23 27.2059 L1097.73 27.2059 L1097.73 34.2544 Q1100.08 30.1225 1103.84 28.1376 Q1107.61 26.1121 1113 26.1121 Q1113.77 26.1121 1114.7 26.2337 Q1115.63 26.3147 1116.77 26.5172 L1116.81 34.1734 Z" fill="#000000" fill-rule="evenodd" fill-opacity="1" /><path clip-path="url(#clip830)" d="M 0 0 M1123.86 54.671 L1123.86 27.2059 L1131.31 27.2059 L1131.31 54.3874 Q1131.31 60.8284 1133.82 64.0691 Q1136.33 67.2693 1141.36 67.2693 Q1147.39 67.2693 1150.88 63.421 Q1154.4 59.5726 1154.4 52.9291 L1154.4 27.2059 L1161.85 27.2059 L1161.85 72.576 L1154.4 72.576 L1154.4 65.6084 Q1151.69 69.7404 1148.08 71.7658 Q1144.52 73.7508 1139.78 73.7508 Q1131.96 73.7508 1127.91 68.8897 Q1123.86 64.0286 1123.86 54.671 M1142.61 26.1121 L1142.61 26.1121 Z" fill="#000000" fill-rule="evenodd" fill-opacity="1" /><path clip-path="url(#clip830)" d="M 0 0 M1208.48 48.0275 L1208.48 51.6733 L1174.21 51.6733 Q1174.69 59.3701 1178.83 63.421 Q1183 67.4314 1190.41 67.4314 Q1194.71 67.4314 1198.72 66.3781 Q1202.77 65.3249 1206.74 63.2184 L1206.74 70.267 Q1202.73 71.9684 1198.51 72.8596 Q1194.3 73.7508 1189.97 73.7508 Q1179.11 73.7508 1172.75 67.4314 Q1166.43 61.1119 1166.43 50.3365 Q1166.43 39.1965 1172.43 32.6746 Q1178.46 26.1121 1188.67 26.1121 Q1197.83 26.1121 1203.13 32.0264 Q1208.48 37.9003 1208.48 48.0275 M1201.03 45.84 Q1200.94 39.7232 1197.58 36.0774 Q1194.26 32.4315 1188.75 32.4315 Q1182.51 32.4315 1178.75 35.9558 Q1175.02 39.4801 1174.45 45.8805 L1201.03 45.84 Z" fill="#000000" fill-rule="evenodd" fill-opacity="1" /><path clip-path="url(#clip830)" d="M 0 0 M1279.25 14.0809 L1279.25 22.0612 Q1274.59 19.8332 1270.46 18.7395 Q1266.33 17.6457 1262.48 17.6457 Q1255.79 17.6457 1252.15 20.2383 Q1248.54 22.8309 1248.54 27.611 Q1248.54 31.6214 1250.93 33.6873 Q1253.36 35.7128 1260.09 36.9686 L1265.03 37.9813 Q1274.19 39.7232 1278.52 44.1387 Q1282.89 48.5136 1282.89 55.8863 Q1282.89 64.6767 1276.98 69.2137 Q1271.11 73.7508 1259.72 73.7508 Q1255.43 73.7508 1250.57 72.7785 Q1245.75 71.8063 1240.56 69.9024 L1240.56 61.4765 Q1245.55 64.2716 1250.33 65.6895 Q1255.11 67.1073 1259.72 67.1073 Q1266.73 67.1073 1270.54 64.3527 Q1274.35 61.598 1274.35 56.4939 Q1274.35 52.0379 1271.59 49.5264 Q1268.88 47.0148 1262.64 45.759 L1257.66 44.7868 Q1248.5 42.9639 1244.41 39.075 Q1240.32 35.1862 1240.32 28.2591 Q1240.32 20.2383 1245.95 15.6203 Q1251.62 11.0023 1261.55 11.0023 Q1265.8 11.0023 1270.22 11.7719 Q1274.63 12.5416 1279.25 14.0809 Z" fill="#000000" fill-rule="evenodd" fill-opacity="1" /><path clip-path="url(#clip830)" d="M 0 0 M1298.09 14.324 L1298.09 27.2059 L1313.44 27.2059 L1313.44 32.9987 L1298.09 32.9987 L1298.09 57.6282 Q1298.09 63.1779 1299.58 64.7578 Q1301.12 66.3376 1305.78 66.3376 L1313.44 66.3376 L1313.44 72.576 L1305.78 72.576 Q1297.15 72.576 1293.87 69.3758 Q1290.59 66.1351 1290.59 57.6282 L1290.59 32.9987 L1285.12 32.9987 L1285.12 27.2059 L1290.59 27.2059 L1290.59 14.324 L1298.09 14.324 Z" fill="#000000" fill-rule="evenodd" fill-opacity="1" /><path clip-path="url(#clip830)" d="M 0 0 M1341.88 49.7694 Q1332.84 49.7694 1329.36 51.8354 Q1325.87 53.9013 1325.87 58.8839 Q1325.87 62.8538 1328.47 65.2034 Q1331.1 67.5124 1335.6 67.5124 Q1341.79 67.5124 1345.52 63.1374 Q1349.29 58.7219 1349.29 51.4303 L1349.29 49.7694 L1341.88 49.7694 M1356.74 46.6907 L1356.74 72.576 L1349.29 72.576 L1349.29 65.6895 Q1346.74 69.8214 1342.93 71.8063 Q1339.12 73.7508 1333.61 73.7508 Q1326.64 73.7508 1322.51 69.8619 Q1318.42 65.9325 1318.42 59.3701 Q1318.42 51.7138 1323.53 47.825 Q1328.67 43.9361 1338.84 43.9361 L1349.29 43.9361 L1349.29 43.2069 Q1349.29 38.0623 1345.89 35.2672 Q1342.52 32.4315 1336.41 32.4315 Q1332.52 32.4315 1328.83 33.3632 Q1325.15 34.295 1321.74 36.1584 L1321.74 29.2718 Q1325.83 27.692 1329.68 26.9223 Q1333.53 26.1121 1337.18 26.1121 Q1347.02 26.1121 1351.88 31.2163 Q1356.74 36.3204 1356.74 46.6907 Z" fill="#000000" fill-rule="evenodd" fill-opacity="1" /><path clip-path="url(#clip830)" d="M 0 0 M1371.93 14.324 L1371.93 27.2059 L1387.29 27.2059 L1387.29 32.9987 L1371.93 32.9987 L1371.93 57.6282 Q1371.93 63.1779 1373.43 64.7578 Q1374.97 66.3376 1379.63 66.3376 L1387.29 66.3376 L1387.29 72.576 L1379.63 72.576 Q1371 72.576 1367.72 69.3758 Q1364.44 66.1351 1364.44 57.6282 L1364.44 32.9987 L1358.97 32.9987 L1358.97 27.2059 L1364.44 27.2059 L1364.44 14.324 L1371.93 14.324 Z" fill="#000000" fill-rule="evenodd" fill-opacity="1" /><path clip-path="url(#clip830)" d="M 0 0 M1395.1 27.2059 L1402.56 27.2059 L1402.56 72.576 L1395.1 72.576 L1395.1 27.2059 M1395.1 9.54393 L1402.56 9.54393 L1402.56 18.9825 L1395.1 18.9825 L1395.1 9.54393 Z" fill="#000000" fill-rule="evenodd" fill-opacity="1" /><path clip-path="url(#clip830)" d="M 0 0 M1439.3 28.5427 L1439.3 35.5912 Q1436.14 33.9709 1432.74 33.1607 Q1429.33 32.3505 1425.69 32.3505 Q1420.14 32.3505 1417.34 34.0519 Q1414.59 35.7533 1414.59 39.156 Q1414.59 41.7486 1416.57 43.2475 Q1418.56 44.7058 1424.55 46.0426 L1427.11 46.6097 Q1435.05 48.3111 1438.37 51.4303 Q1441.73 54.509 1441.73 60.0587 Q1441.73 66.3781 1436.71 70.0644 Q1431.72 73.7508 1422.97 73.7508 Q1419.33 73.7508 1415.36 73.0216 Q1411.43 72.3329 1407.05 70.9151 L1407.05 63.2184 Q1411.19 65.3654 1415.2 66.4591 Q1419.21 67.5124 1423.14 67.5124 Q1428.4 67.5124 1431.24 65.73 Q1434.07 63.9071 1434.07 60.6258 Q1434.07 57.5877 1432.01 55.9673 Q1429.98 54.3469 1423.06 52.8481 L1420.46 52.2405 Q1413.54 50.7821 1410.46 47.7845 Q1407.38 44.7463 1407.38 39.4801 Q1407.38 33.0797 1411.92 29.5959 Q1416.45 26.1121 1424.8 26.1121 Q1428.93 26.1121 1432.58 26.7198 Q1436.22 27.3274 1439.3 28.5427 Z" fill="#000000" fill-rule="evenodd" fill-opacity="1" /><path clip-path="url(#clip830)" d="M 0 0 M1456.92 14.324 L1456.92 27.2059 L1472.27 27.2059 L1472.27 32.9987 L1456.92 32.9987 L1456.92 57.6282 Q1456.92 63.1779 1458.42 64.7578 Q1459.96 66.3376 1464.62 66.3376 L1472.27 66.3376 L1472.27 72.576 L1464.62 72.576 Q1455.99 72.576 1452.71 69.3758 Q1449.43 66.1351 1449.43 57.6282 L1449.43 32.9987 L1443.96 32.9987 L1443.96 27.2059 L1449.43 27.2059 L1449.43 14.324 L1456.92 14.324 Z" fill="#000000" fill-rule="evenodd" fill-opacity="1" /><path clip-path="url(#clip830)" d="M 0 0 M1480.09 27.2059 L1487.55 27.2059 L1487.55 72.576 L1480.09 72.576 L1480.09 27.2059 M1480.09 9.54393 L1487.55 9.54393 L1487.55 18.9825 L1480.09 18.9825 L1480.09 9.54393 Z" fill="#000000" fill-rule="evenodd" fill-opacity="1" /><path clip-path="url(#clip830)" d="M 0 0 M1528.01 28.9478 L1528.01 35.9153 Q1524.86 34.1734 1521.65 33.3227 Q1518.5 32.4315 1515.25 32.4315 Q1508 32.4315 1503.99 37.0496 Q1499.98 41.6271 1499.98 49.9314 Q1499.98 58.2358 1503.99 62.8538 Q1508 67.4314 1515.25 67.4314 Q1518.5 67.4314 1521.65 66.5807 Q1524.86 65.6895 1528.01 63.9476 L1528.01 70.8341 Q1524.9 72.2924 1521.53 73.0216 Q1518.21 73.7508 1514.44 73.7508 Q1504.2 73.7508 1498.16 67.3098 Q1492.12 60.8689 1492.12 49.9314 Q1492.12 38.832 1498.2 32.472 Q1504.32 26.1121 1514.93 26.1121 Q1518.37 26.1121 1521.65 26.8413 Q1524.94 27.5299 1528.01 28.9478 Z" fill="#000000" fill-rule="evenodd" fill-opacity="1" /><path clip-path="url(#clip830)" d="M 0 0 M1556.45 49.7694 Q1547.42 49.7694 1543.93 51.8354 Q1540.45 53.9013 1540.45 58.8839 Q1540.45 62.8538 1543.04 65.2034 Q1545.68 67.5124 1550.17 67.5124 Q1556.37 67.5124 1560.1 63.1374 Q1563.87 58.7219 1563.87 51.4303 L1563.87 49.7694 L1556.45 49.7694 M1571.32 46.6907 L1571.32 72.576 L1563.87 72.576 L1563.87 65.6895 Q1561.31 69.8214 1557.51 71.8063 Q1553.7 73.7508 1548.19 73.7508 Q1541.22 73.7508 1537.09 69.8619 Q1533 65.9325 1533 59.3701 Q1533 51.7138 1538.1 47.825 Q1543.25 43.9361 1553.41 43.9361 L1563.87 43.9361 L1563.87 43.2069 Q1563.87 38.0623 1560.46 35.2672 Q1557.1 32.4315 1550.98 32.4315 Q1547.09 32.4315 1543.41 33.3632 Q1539.72 34.295 1536.32 36.1584 L1536.32 29.2718 Q1540.41 27.692 1544.26 26.9223 Q1548.11 26.1121 1551.75 26.1121 Q1561.6 26.1121 1566.46 31.2163 Q1571.32 36.3204 1571.32 46.6907 Z" fill="#000000" fill-rule="evenodd" fill-opacity="1" /><path clip-path="url(#clip830)" d="M 0 0 M1579.14 9.54393 L1586.59 9.54393 L1586.59 72.576 L1579.14 72.576 L1579.14 9.54393 Z" fill="#000000" fill-rule="evenodd" fill-opacity="1" /><path clip-path="url(#clip830)" d="M 0 0 M1621.1 12.096 L1633.3 12.096 L1648.73 53.2532 L1664.25 12.096 L1676.44 12.096 L1676.44 72.576 L1668.46 72.576 L1668.46 19.4686 L1652.86 60.9499 L1644.64 60.9499 L1629.04 19.4686 L1629.04 72.576 L1621.1 72.576 L1621.1 12.096 Z" fill="#000000" fill-rule="evenodd" fill-opacity="1" /><path clip-path="url(#clip830)" d="M 0 0 M1701.84 32.4315 Q1695.84 32.4315 1692.36 37.1306 Q1688.88 41.7891 1688.88 49.9314 Q1688.88 58.0738 1692.32 62.7728 Q1695.8 67.4314 1701.84 67.4314 Q1707.79 67.4314 1711.28 62.7323 Q1714.76 58.0333 1714.76 49.9314 Q1714.76 41.8701 1711.28 37.1711 Q1707.79 32.4315 1701.84 32.4315 M1701.84 26.1121 Q1711.56 26.1121 1717.11 32.4315 Q1722.66 38.7509 1722.66 49.9314 Q1722.66 61.0714 1717.11 67.4314 Q1711.56 73.7508 1701.84 73.7508 Q1692.08 73.7508 1686.53 67.4314 Q1681.02 61.0714 1681.02 49.9314 Q1681.02 38.7509 1686.53 32.4315 Q1692.08 26.1121 1701.84 26.1121 Z" fill="#000000" fill-rule="evenodd" fill-opacity="1" /><path clip-path="url(#clip830)" d="M 0 0 M1760.33 34.0924 L1760.33 9.54393 L1767.79 9.54393 L1767.79 72.576 L1760.33 72.576 L1760.33 65.7705 Q1757.98 69.8214 1754.38 71.8063 Q1750.81 73.7508 1745.79 73.7508 Q1737.57 73.7508 1732.38 67.1883 Q1727.24 60.6258 1727.24 49.9314 Q1727.24 39.2371 1732.38 32.6746 Q1737.57 26.1121 1745.79 26.1121 Q1750.81 26.1121 1754.38 28.0971 Q1757.98 30.0415 1760.33 34.0924 M1734.93 49.9314 Q1734.93 58.1548 1738.3 62.8538 Q1741.7 67.5124 1747.61 67.5124 Q1753.53 67.5124 1756.93 62.8538 Q1760.33 58.1548 1760.33 49.9314 Q1760.33 41.7081 1756.93 37.0496 Q1753.53 32.3505 1747.61 32.3505 Q1741.7 32.3505 1738.3 37.0496 Q1734.93 41.7081 1734.93 49.9314 Z" fill="#000000" fill-rule="evenodd" fill-opacity="1" /><path clip-path="url(#clip830)" d="M 0 0 M1814.41 48.0275 L1814.41 51.6733 L1780.14 51.6733 Q1780.63 59.3701 1784.76 63.421 Q1788.93 67.4314 1796.35 67.4314 Q1800.64 67.4314 1804.65 66.3781 Q1808.7 65.3249 1812.67 63.2184 L1812.67 70.267 Q1808.66 71.9684 1804.45 72.8596 Q1800.24 73.7508 1795.9 73.7508 Q1785.04 73.7508 1778.68 67.4314 Q1772.37 61.1119 1772.37 50.3365 Q1772.37 39.1965 1778.36 32.6746 Q1784.4 26.1121 1794.6 26.1121 Q1803.76 26.1121 1809.07 32.0264 Q1814.41 37.9003 1814.41 48.0275 M1806.96 45.84 Q1806.88 39.7232 1803.52 36.0774 Q1800.19 32.4315 1794.69 32.4315 Q1788.45 32.4315 1784.68 35.9558 Q1780.95 39.4801 1780.39 45.8805 L1806.96 45.84 Z" fill="#000000" fill-rule="evenodd" fill-opacity="1" /><path clip-path="url(#clip830)" d="M 0 0 M1822.23 9.54393 L1829.69 9.54393 L1829.69 72.576 L1822.23 72.576 L1822.23 9.54393 Z" fill="#000000" fill-rule="evenodd" fill-opacity="1" /><polyline clip-path="url(#clip832)" style="stroke:#009af9; stroke-width:4; stroke-opacity:1; fill:none" points="
  743.784,1447.87 743.784,1355.08 769.569,1355.08 769.569,1262.29 795.354,1262.29 795.354,1275.55 821.139,1275.55 821.139,1169.5 846.923,1169.5 846.923,1156.24 
  872.708,1156.24 872.708,1076.71 898.493,1076.71 924.278,1076.71 924.278,983.915 950.063,983.915 950.063,997.171 975.847,997.171 975.847,891.124 
  1001.63,891.124 1001.63,851.356 1027.42,851.356 1027.42,997.171 1053.2,997.171 1053.2,957.403 1078.99,957.403 1078.99,1076.71 1104.77,1076.71 
  1130.56,1076.71 1130.56,1235.78 1156.34,1235.78 1182.13,1235.78 1182.13,1209.27 1207.91,1209.27 1207.91,1288.8 1233.7,1288.8 1233.7,1421.36 
  1259.48,1421.36 1259.48,1394.85 1285.27,1394.85 1285.27,1408.11 1311.05,1408.11 1311.05,1447.87 1336.83,1447.87 1336.83,1421.36 1362.62,1421.36 1362.62,1434.62 
  1388.4,1434.62 1414.19,1434.62 1414.19,1408.11 1439.97,1408.11 1439.97,1421.36 1465.76,1421.36 1465.76,1355.08 1491.54,1355.08 1491.54,1328.57 
  1517.33,1328.57 1517.33,1262.29 1543.11,1262.29 1543.11,1182.75 1568.9,1182.75 1568.9,1076.71 1594.68,1076.71 1594.68,930.891 1620.47,930.891 1620.47,944.147 
  1646.25,944.147 1646.25,612.749 1672.04,612.749 1672.04,665.773 1697.82,665.773 1697.82,413.91 1723.61,413.91 1723.61,546.469 1749.39,546.469 1749.39,533.213 
  1775.18,533.213 1775.18,466.934 1800.96,466.934 1800.96,162.047 1826.75,162.047 1826.75,387.398 1852.53,387.398 1852.53,506.701 1878.32,506.701 1878.32,771.82 
  1904.1,771.82 1904.1,1089.96 1929.89,1089.96 1929.89,1036.94 1955.67,1036.94 1955.67,1222.52 1981.45,1222.52 1981.45,1249.03 2007.24,1249.03 2007.24,1222.52 
  2033.02,1222.52 2033.02,1341.83 2058.81,1341.83 2058.81,1368.34 2084.59,1368.34 2084.59,1408.11 2110.38,1408.11 2110.38,1394.85 2136.16,1394.85 2136.16,1447.87 
  2161.95,1447.87 2161.95,1421.36 2187.73,1421.36 2187.73,1447.87 2213.52,1447.87 2239.3,1447.87 2239.3,1434.62 2265.09,1434.62 2265.09,1447.87 
  2290.87,1447.87 
  "/>
<polyline clip-path="url(#clip832)" style="stroke:#e26f46; stroke-width:4; stroke-opacity:1; fill:none" points="
  228.088,1447.87 230.667,1447.87 233.245,1447.87 235.824,1447.87 238.402,1447.87 240.981,1447.87 243.559,1447.87 246.138,1447.87 248.716,1447.87 251.295,1447.87 
  253.873,1447.87 256.451,1447.87 259.03,1447.87 261.608,1447.87 264.187,1447.87 266.765,1447.87 269.344,1447.87 271.922,1447.87 274.501,1447.87 277.079,1447.87 
  279.658,1447.87 282.236,1447.87 284.815,1447.87 287.393,1447.87 289.972,1447.87 292.55,1447.87 295.129,1447.87 297.707,1447.87 300.286,1447.87 302.864,1447.87 
  305.443,1447.87 308.021,1447.87 310.6,1447.87 313.178,1447.87 315.757,1447.87 318.335,1447.87 320.913,1447.87 323.492,1447.87 326.07,1447.87 328.649,1447.87 
  331.227,1447.87 333.806,1447.87 336.384,1447.87 338.963,1447.87 341.541,1447.87 344.12,1447.87 346.698,1447.87 349.277,1447.87 351.855,1447.87 354.434,1447.87 
  357.012,1447.87 359.591,1447.87 362.169,1447.87 364.748,1447.87 367.326,1447.87 369.905,1447.87 372.483,1447.87 375.062,1447.87 377.64,1447.87 380.219,1447.87 
  382.797,1447.87 385.375,1447.87 387.954,1447.87 390.532,1447.87 393.111,1447.87 395.689,1447.86 398.268,1447.86 400.846,1447.86 403.425,1447.86 406.003,1447.86 
  408.582,1447.86 411.16,1447.86 413.739,1447.86 416.317,1447.86 418.896,1447.85 421.474,1447.85 424.053,1447.85 426.631,1447.85 429.21,1447.85 431.788,1447.84 
  434.367,1447.84 436.945,1447.84 439.524,1447.83 442.102,1447.83 444.681,1447.83 447.259,1447.82 449.837,1447.82 452.416,1447.81 454.994,1447.81 457.573,1447.8 
  460.151,1447.79 462.73,1447.79 465.308,1447.78 467.887,1447.77 470.465,1447.76 473.044,1447.75 475.622,1447.74 478.201,1447.73 480.779,1447.72 483.358,1447.71 
  485.936,1447.7 488.515,1447.68 491.093,1447.67 493.672,1447.65 496.25,1447.63 498.829,1447.61 501.407,1447.59 503.986,1447.57 506.564,1447.54 509.143,1447.51 
  511.721,1447.49 514.299,1447.46 516.878,1447.42 519.456,1447.39 522.035,1447.35 524.613,1447.31 527.192,1447.27 529.77,1447.22 532.349,1447.17 534.927,1447.12 
  537.506,1447.06 540.084,1447 542.663,1446.94 545.241,1446.87 547.82,1446.79 550.398,1446.72 552.977,1446.63 555.555,1446.54 558.134,1446.45 560.712,1446.35 
  563.291,1446.24 565.869,1446.13 568.448,1446 571.026,1445.87 573.605,1445.74 576.183,1445.59 578.762,1445.43 581.34,1445.27 583.918,1445.09 586.497,1444.91 
  589.075,1444.71 591.654,1444.5 594.232,1444.28 596.811,1444.05 599.389,1443.8 601.968,1443.54 604.546,1443.27 607.125,1442.97 609.703,1442.67 612.282,1442.34 
  614.86,1442 617.439,1441.64 620.017,1441.25 622.596,1440.85 625.174,1440.43 627.753,1439.98 630.331,1439.51 632.91,1439.02 635.488,1438.5 638.067,1437.95 
  640.645,1437.38 643.224,1436.78 645.802,1436.15 648.38,1435.48 650.959,1434.79 653.537,1434.06 656.116,1433.3 658.694,1432.5 661.273,1431.66 663.851,1430.78 
  666.43,1429.87 669.008,1428.91 671.587,1427.91 674.165,1426.87 676.744,1425.78 679.322,1424.64 681.901,1423.45 684.479,1422.21 687.058,1420.93 689.636,1419.58 
  692.215,1418.19 694.793,1416.73 697.372,1415.22 699.95,1413.65 702.529,1412.02 705.107,1410.32 707.686,1408.56 710.264,1406.74 712.842,1404.84 715.421,1402.88 
  717.999,1400.85 720.578,1398.74 723.156,1396.56 725.735,1394.31 728.313,1391.98 730.892,1389.57 733.47,1387.08 736.049,1384.51 738.627,1381.86 741.206,1379.12 
  743.784,1376.3 746.363,1373.4 748.941,1370.4 751.52,1367.32 754.098,1364.15 756.677,1360.89 759.255,1357.54 761.834,1354.1 764.412,1350.57 766.991,1346.94 
  769.569,1343.22 772.148,1339.4 774.726,1335.49 777.304,1331.49 779.883,1327.39 782.461,1323.2 785.04,1318.92 787.618,1314.54 790.197,1310.06 792.775,1305.5 
  795.354,1300.84 797.932,1296.09 800.511,1291.24 803.089,1286.31 805.668,1281.29 808.246,1276.19 810.825,1270.99 813.403,1265.71 815.982,1260.35 818.56,1254.91 
  821.139,1249.4 823.717,1243.8 826.296,1238.13 828.874,1232.39 831.453,1226.58 834.031,1220.71 836.61,1214.77 839.188,1208.77 841.766,1202.72 844.345,1196.62 
  846.923,1190.46 849.502,1184.26 852.08,1178.02 854.659,1171.74 857.237,1165.43 859.816,1159.09 862.394,1152.72 864.973,1146.34 867.551,1139.94 870.13,1133.53 
  872.708,1127.12 875.287,1120.7 877.865,1114.29 880.444,1107.9 883.022,1101.51 885.601,1095.15 888.179,1088.82 890.758,1082.52 893.336,1076.25 895.915,1070.03 
  898.493,1063.86 901.072,1057.74 903.65,1051.69 906.228,1045.7 908.807,1039.79 911.385,1033.95 913.964,1028.2 916.542,1022.54 919.121,1016.97 921.699,1011.51 
  924.278,1006.15 926.856,1000.91 929.435,995.785 932.013,990.784 934.592,985.914 937.17,981.177 939.749,976.581 942.327,972.13 944.906,967.829 947.484,963.683 
  950.063,959.696 952.641,955.874 955.22,952.219 957.798,948.738 960.377,945.432 962.955,942.308 965.534,939.367 968.112,936.614 970.69,934.051 973.269,931.682 
  975.847,929.509 978.426,927.536 981.004,925.764 983.583,924.195 986.161,922.832 988.74,921.675 991.318,920.727 993.897,919.989 996.475,919.46 999.054,919.143 
  1001.63,919.038 1004.21,919.143 1006.79,919.46 1009.37,919.989 1011.95,920.727 1014.52,921.675 1017.1,922.832 1019.68,924.195 1022.26,925.764 1024.84,927.536 
  1027.42,929.509 1030,931.682 1032.57,934.051 1035.15,936.613 1037.73,939.367 1040.31,942.308 1042.89,945.432 1045.47,948.738 1048.04,952.219 1050.62,955.874 
  1053.2,959.696 1055.78,963.683 1058.36,967.829 1060.94,972.13 1063.52,976.581 1066.09,981.177 1068.67,985.913 1071.25,990.784 1073.83,995.784 1076.41,1000.91 
  1078.99,1006.15 1081.57,1011.51 1084.14,1016.97 1086.72,1022.54 1089.3,1028.2 1091.88,1033.95 1094.46,1039.79 1097.04,1045.7 1099.61,1051.69 1102.19,1057.74 
  1104.77,1063.86 1107.35,1070.03 1109.93,1076.25 1112.51,1082.51 1115.09,1088.82 1117.66,1095.15 1120.24,1101.51 1122.82,1107.89 1125.4,1114.29 1127.98,1120.7 
  1130.56,1127.11 1133.13,1133.53 1135.71,1139.94 1138.29,1146.34 1140.87,1152.72 1143.45,1159.08 1146.03,1165.42 1148.61,1171.73 1151.18,1178.01 1153.76,1184.25 
  1156.34,1190.45 1158.92,1196.6 1161.5,1202.71 1164.08,1208.76 1166.65,1214.76 1169.23,1220.69 1171.81,1226.56 1174.39,1232.37 1176.97,1238.11 1179.55,1243.78 
  1182.13,1249.37 1184.7,1254.88 1187.28,1260.32 1189.86,1265.68 1192.44,1270.95 1195.02,1276.14 1197.6,1281.25 1200.18,1286.26 1202.75,1291.19 1205.33,1296.03 
  1207.91,1300.77 1210.49,1305.42 1213.07,1309.98 1215.65,1314.45 1218.22,1318.82 1220.8,1323.1 1223.38,1327.28 1225.96,1331.37 1228.54,1335.36 1231.12,1339.26 
  1233.7,1343.06 1236.27,1346.77 1238.85,1350.38 1241.43,1353.9 1244.01,1357.32 1246.59,1360.66 1249.17,1363.9 1251.74,1367.04 1254.32,1370.1 1256.9,1373.07 
  1259.48,1375.95 1262.06,1378.74 1264.64,1381.44 1267.22,1384.06 1269.79,1386.59 1272.37,1389.04 1274.95,1391.41 1277.53,1393.69 1280.11,1395.9 1282.69,1398.03 
  1285.27,1400.07 1287.84,1402.05 1290.42,1403.94 1293,1405.77 1295.58,1407.52 1298.16,1409.2 1300.74,1410.81 1303.31,1412.35 1305.89,1413.82 1308.47,1415.22 
  1311.05,1416.56 1313.63,1417.84 1316.21,1419.05 1318.79,1420.2 1321.36,1421.29 1323.94,1422.32 1326.52,1423.29 1329.1,1424.21 1331.68,1425.06 1334.26,1425.86 
  1336.83,1426.6 1339.41,1427.29 1341.99,1427.92 1344.57,1428.5 1347.15,1429.02 1349.73,1429.49 1352.31,1429.91 1354.88,1430.28 1357.46,1430.59 1360.04,1430.85 
  1362.62,1431.06 1365.2,1431.22 1367.78,1431.32 1370.35,1431.37 1372.93,1431.37 1375.51,1431.32 1378.09,1431.22 1380.67,1431.06 1383.25,1430.84 1385.83,1430.57 
  1388.4,1430.25 1390.98,1429.87 1393.56,1429.43 1396.14,1428.93 1398.72,1428.38 1401.3,1427.76 1403.88,1427.08 1406.45,1426.34 1409.03,1425.54 1411.61,1424.67 
  1414.19,1423.73 1416.77,1422.72 1419.35,1421.64 1421.92,1420.49 1424.5,1419.26 1427.08,1417.96 1429.66,1416.58 1432.24,1415.12 1434.82,1413.58 1437.4,1411.95 
  1439.97,1410.23 1442.55,1408.42 1445.13,1406.52 1447.71,1404.53 1450.29,1402.44 1452.87,1400.25 1455.44,1397.95 1458.02,1395.55 1460.6,1393.04 1463.18,1390.42 
  1465.76,1387.69 1468.34,1384.84 1470.92,1381.87 1473.49,1378.78 1476.07,1375.56 1478.65,1372.21 1481.23,1368.73 1483.81,1365.12 1486.39,1361.36 1488.97,1357.47 
  1491.54,1353.44 1494.12,1349.25 1496.7,1344.92 1499.28,1340.44 1501.86,1335.8 1504.44,1331 1507.01,1326.04 1509.59,1320.92 1512.17,1315.64 1514.75,1310.18 
  1517.33,1304.56 1519.91,1298.76 1522.49,1292.78 1525.06,1286.63 1527.64,1280.3 1530.22,1273.79 1532.8,1267.1 1535.38,1260.23 1537.96,1253.17 1540.53,1245.92 
  1543.11,1238.48 1545.69,1230.86 1548.27,1223.05 1550.85,1215.05 1553.43,1206.86 1556.01,1198.48 1558.58,1189.91 1561.16,1181.16 1563.74,1172.21 1566.32,1163.08 
  1568.9,1153.77 1571.48,1144.27 1574.05,1134.59 1576.63,1124.73 1579.21,1114.69 1581.79,1104.48 1584.37,1094.09 1586.95,1083.54 1589.53,1072.82 1592.1,1061.94 
  1594.68,1050.9 1597.26,1039.71 1599.84,1028.38 1602.42,1016.9 1605,1005.28 1607.58,993.534 1610.15,981.661 1612.73,969.668 1615.31,957.563 1617.89,945.353 
  1620.47,933.044 1623.05,920.645 1625.62,908.163 1628.2,895.606 1630.78,882.983 1633.36,870.303 1635.94,857.574 1638.52,844.806 1641.1,832.008 1643.67,819.19 
  1646.25,806.361 1648.83,793.533 1651.41,780.715 1653.99,767.918 1656.57,755.153 1659.14,742.43 1661.72,729.761 1664.3,717.156 1666.88,704.628 1669.46,692.187 
  1672.04,679.846 1674.62,667.614 1677.19,655.506 1679.77,643.531 1682.35,631.701 1684.93,620.029 1687.51,608.525 1690.09,597.202 1692.66,586.072 1695.24,575.144 
  1697.82,564.432 1700.4,553.945 1702.98,543.696 1705.56,533.696 1708.14,523.954 1710.71,514.482 1713.29,505.289 1715.87,496.387 1718.45,487.785 1721.03,479.493 
  1723.61,471.52 1726.19,463.874 1728.76,456.566 1731.34,449.602 1733.92,442.992 1736.5,436.742 1739.08,430.861 1741.66,425.354 1744.23,420.229 1746.81,415.49 
  1749.39,411.145 1751.97,407.198 1754.55,403.654 1757.13,400.517 1759.71,397.79 1762.28,395.477 1764.86,393.581 1767.44,392.104 1770.02,391.048 1772.6,390.414 
  1775.18,390.202 1777.75,390.414 1780.33,391.048 1782.91,392.104 1785.49,393.581 1788.07,395.477 1790.65,397.79 1793.23,400.517 1795.8,403.654 1798.38,407.198 
  1800.96,411.145 1803.54,415.491 1806.12,420.229 1808.7,425.354 1811.28,430.861 1813.85,436.742 1816.43,442.992 1819.01,449.602 1821.59,456.566 1824.17,463.874 
  1826.75,471.52 1829.32,479.493 1831.9,487.785 1834.48,496.387 1837.06,505.29 1839.64,514.482 1842.22,523.954 1844.8,533.696 1847.37,543.697 1849.95,553.946 
  1852.53,564.432 1855.11,575.145 1857.69,586.072 1860.27,597.203 1862.84,608.526 1865.42,620.029 1868,631.702 1870.58,643.531 1873.16,655.506 1875.74,667.615 
  1878.32,679.846 1880.89,692.188 1883.47,704.629 1886.05,717.157 1888.63,729.762 1891.21,742.431 1893.79,755.154 1896.36,767.919 1898.94,780.717 1901.52,793.535 
  1904.1,806.363 1906.68,819.192 1909.26,832.01 1911.84,844.808 1914.41,857.577 1916.99,870.306 1919.57,882.987 1922.15,895.61 1924.73,908.167 1927.31,920.65 
  1929.89,933.049 1932.46,945.359 1935.04,957.57 1937.62,969.675 1940.2,981.668 1942.78,993.543 1945.36,1005.29 1947.93,1016.91 1950.51,1028.39 1953.09,1039.73 
  1955.67,1050.92 1958.25,1061.96 1960.83,1072.84 1963.41,1083.56 1965.98,1094.11 1968.56,1104.5 1971.14,1114.71 1973.72,1124.75 1976.3,1134.62 1978.88,1144.3 
  1981.45,1153.8 1984.03,1163.12 1986.61,1172.25 1989.19,1181.2 1991.77,1189.96 1994.35,1198.53 1996.93,1206.91 1999.5,1215.11 2002.08,1223.12 2004.66,1230.93 
  2007.24,1238.56 2009.82,1246 2012.4,1253.26 2014.97,1260.33 2017.55,1267.21 2020.13,1273.91 2022.71,1280.43 2025.29,1286.77 2027.87,1292.94 2030.45,1298.92 
  2033.02,1304.73 2035.6,1310.37 2038.18,1315.84 2040.76,1321.15 2043.34,1326.29 2045.92,1331.26 2048.5,1336.08 2051.07,1340.75 2053.65,1345.25 2056.23,1349.61 
  2058.81,1353.82 2061.39,1357.89 2063.97,1361.81 2066.54,1365.6 2069.12,1369.25 2071.7,1372.77 2074.28,1376.16 2076.86,1379.43 2079.44,1382.57 2082.02,1385.59 
  2084.59,1388.5 2087.17,1391.29 2089.75,1393.98 2092.33,1396.56 2094.91,1399.03 2097.49,1401.4 2100.06,1403.68 2102.64,1405.86 2105.22,1407.95 2107.8,1409.95 
  2110.38,1411.86 2112.96,1413.69 2115.54,1415.45 2118.11,1417.12 2120.69,1418.72 2123.27,1420.25 2125.85,1421.7 2128.43,1423.09 2131.01,1424.42 2133.59,1425.68 
  2136.16,1426.89 2138.74,1428.03 2141.32,1429.13 2143.9,1430.16 2146.48,1431.15 2149.06,1432.09 2151.63,1432.98 2154.21,1433.83 2156.79,1434.64 2159.37,1435.4 
  2161.95,1436.12 2164.53,1436.81 2167.11,1437.46 2169.68,1438.08 2172.26,1438.66 2174.84,1439.21 2177.42,1439.73 2180,1440.23 2182.58,1440.7 2185.15,1441.14 
  2187.73,1441.55 2190.31,1441.95 2192.89,1442.32 2195.47,1442.67 2198.05,1443 2200.63,1443.31 2203.2,1443.6 2205.78,1443.87 2208.36,1444.13 2210.94,1444.38 
  2213.52,1444.61 2216.1,1444.82 2218.67,1445.02 2221.25,1445.21 2223.83,1445.39 2226.41,1445.56 2228.99,1445.72 2231.57,1445.86 2234.15,1446 2236.72,1446.13 
  2239.3,1446.25 2241.88,1446.36 2244.46,1446.47 2247.04,1446.57 2249.62,1446.66 2252.2,1446.75 2254.77,1446.83 2257.35,1446.9 2259.93,1446.97 2262.51,1447.04 
  2265.09,1447.1 2267.67,1447.16 2270.24,1447.21 2272.82,1447.26 2275.4,1447.3 2277.98,1447.35 2280.56,1447.39 2283.14,1447.42 2285.72,1447.46 2288.29,1447.49 
  2290.87,1447.52 
  "/>
<path clip-path="url(#clip830)" d="
M1925.95 350.345 L2279.87 350.345 L2279.87 168.905 L1925.95 168.905  Z
  " fill="#ffffff" fill-rule="evenodd" fill-opacity="1"/>
<polyline clip-path="url(#clip830)" style="stroke:#000000; stroke-width:4; stroke-opacity:1; fill:none" points="
  1925.95,350.345 2279.87,350.345 2279.87,168.905 1925.95,168.905 1925.95,350.345 
  "/>
<polyline clip-path="url(#clip830)" style="stroke:#009af9; stroke-width:4; stroke-opacity:1; fill:none" points="
  1950.24,229.385 2096.01,229.385 
  "/>
<path clip-path="url(#clip830)" d="M 0 0 M2124.99 215.947 L2124.99 242.822 L2130.63 242.822 Q2137.79 242.822 2141.1 239.581 Q2144.43 236.341 2144.43 229.35 Q2144.43 222.406 2141.1 219.188 Q2137.79 215.947 2130.63 215.947 L2124.99 215.947 M2120.31 212.105 L2129.92 212.105 Q2139.96 212.105 2144.66 216.294 Q2149.36 220.461 2149.36 229.35 Q2149.36 238.285 2144.64 242.475 Q2139.92 246.665 2129.92 246.665 L2120.31 246.665 L2120.31 212.105 Z" fill="#000000" fill-rule="evenodd" fill-opacity="1" /><path clip-path="url(#clip830)" d="M 0 0 M2165.61 233.632 Q2160.45 233.632 2158.46 234.813 Q2156.47 235.993 2156.47 238.841 Q2156.47 241.109 2157.95 242.452 Q2159.45 243.771 2162.02 243.771 Q2165.56 243.771 2167.69 241.271 Q2169.85 238.748 2169.85 234.581 L2169.85 233.632 L2165.61 233.632 M2174.11 231.873 L2174.11 246.665 L2169.85 246.665 L2169.85 242.729 Q2168.39 245.091 2166.21 246.225 Q2164.04 247.336 2160.89 247.336 Q2156.91 247.336 2154.55 245.114 Q2152.21 242.868 2152.21 239.118 Q2152.21 234.743 2155.12 232.521 Q2158.06 230.299 2163.87 230.299 L2169.85 230.299 L2169.85 229.882 Q2169.85 226.943 2167.9 225.345 Q2165.98 223.725 2162.48 223.725 Q2160.26 223.725 2158.16 224.257 Q2156.05 224.79 2154.11 225.855 L2154.11 221.919 Q2156.44 221.017 2158.64 220.577 Q2160.84 220.114 2162.92 220.114 Q2168.55 220.114 2171.33 223.031 Q2174.11 225.947 2174.11 231.873 Z" fill="#000000" fill-rule="evenodd" fill-opacity="1" /><path clip-path="url(#clip830)" d="M 0 0 M2182.79 213.378 L2182.79 220.739 L2191.56 220.739 L2191.56 224.049 L2182.79 224.049 L2182.79 238.123 Q2182.79 241.294 2183.64 242.197 Q2184.52 243.1 2187.18 243.1 L2191.56 243.1 L2191.56 246.665 L2187.18 246.665 Q2182.25 246.665 2180.38 244.836 Q2178.5 242.984 2178.5 238.123 L2178.5 224.049 L2175.38 224.049 L2175.38 220.739 L2178.5 220.739 L2178.5 213.378 L2182.79 213.378 Z" fill="#000000" fill-rule="evenodd" fill-opacity="1" /><path clip-path="url(#clip830)" d="M 0 0 M2207.81 233.632 Q2202.65 233.632 2200.66 234.813 Q2198.67 235.993 2198.67 238.841 Q2198.67 241.109 2200.15 242.452 Q2201.65 243.771 2204.22 243.771 Q2207.76 243.771 2209.89 241.271 Q2212.04 238.748 2212.04 234.581 L2212.04 233.632 L2207.81 233.632 M2216.3 231.873 L2216.3 246.665 L2212.04 246.665 L2212.04 242.729 Q2210.59 245.091 2208.41 246.225 Q2206.23 247.336 2203.09 247.336 Q2199.11 247.336 2196.74 245.114 Q2194.41 242.868 2194.41 239.118 Q2194.41 234.743 2197.32 232.521 Q2200.26 230.299 2206.07 230.299 L2212.04 230.299 L2212.04 229.882 Q2212.04 226.943 2210.1 225.345 Q2208.18 223.725 2204.68 223.725 Q2202.46 223.725 2200.36 224.257 Q2198.25 224.79 2196.3 225.855 L2196.3 221.919 Q2198.64 221.017 2200.84 220.577 Q2203.04 220.114 2205.12 220.114 Q2210.75 220.114 2213.53 223.031 Q2216.3 225.947 2216.3 231.873 Z" fill="#000000" fill-rule="evenodd" fill-opacity="1" /><polyline clip-path="url(#clip830)" style="stroke:#e26f46; stroke-width:4; stroke-opacity:1; fill:none" points="
  1950.24,289.865 2096.01,289.865 
  "/>
<path clip-path="url(#clip830)" d="M 0 0 M2120.31 272.585 L2149.55 272.585 L2149.55 276.52 L2137.28 276.52 L2137.28 307.145 L2132.58 307.145 L2132.58 276.52 L2120.31 276.52 L2120.31 272.585 Z" fill="#000000" fill-rule="evenodd" fill-opacity="1" /><path clip-path="url(#clip830)" d="M 0 0 M2162.07 285.2 Q2161.35 284.784 2160.49 284.598 Q2159.66 284.39 2158.64 284.39 Q2155.03 284.39 2153.09 286.751 Q2151.17 289.089 2151.17 293.487 L2151.17 307.145 L2146.88 307.145 L2146.88 281.219 L2151.17 281.219 L2151.17 285.247 Q2152.51 282.886 2154.66 281.751 Q2156.81 280.594 2159.89 280.594 Q2160.33 280.594 2160.86 280.663 Q2161.4 280.71 2162.05 280.825 L2162.07 285.2 Z" fill="#000000" fill-rule="evenodd" fill-opacity="1" /><path clip-path="url(#clip830)" d="M 0 0 M2166.1 296.913 L2166.1 281.219 L2170.36 281.219 L2170.36 296.751 Q2170.36 300.432 2171.79 302.284 Q2173.23 304.112 2176.1 304.112 Q2179.55 304.112 2181.54 301.913 Q2183.55 299.714 2183.55 295.918 L2183.55 281.219 L2187.81 281.219 L2187.81 307.145 L2183.55 307.145 L2183.55 303.163 Q2182 305.524 2179.94 306.682 Q2177.9 307.816 2175.19 307.816 Q2170.73 307.816 2168.41 305.038 Q2166.1 302.26 2166.1 296.913 M2176.81 280.594 L2176.81 280.594 Z" fill="#000000" fill-rule="evenodd" fill-opacity="1" /><path clip-path="url(#clip830)" d="M 0 0 M2196.49 273.858 L2196.49 281.219 L2205.26 281.219 L2205.26 284.529 L2196.49 284.529 L2196.49 298.603 Q2196.49 301.774 2197.35 302.677 Q2198.23 303.58 2200.89 303.58 L2205.26 303.58 L2205.26 307.145 L2200.89 307.145 Q2195.96 307.145 2194.08 305.316 Q2192.21 303.464 2192.21 298.603 L2192.21 284.529 L2189.08 284.529 L2189.08 281.219 L2192.21 281.219 L2192.21 273.858 L2196.49 273.858 Z" fill="#000000" fill-rule="evenodd" fill-opacity="1" /><path clip-path="url(#clip830)" d="M 0 0 M2231.28 291.497 L2231.28 307.145 L2227.02 307.145 L2227.02 291.635 Q2227.02 287.955 2225.59 286.126 Q2224.15 284.298 2221.28 284.298 Q2217.83 284.298 2215.84 286.497 Q2213.85 288.696 2213.85 292.492 L2213.85 307.145 L2209.57 307.145 L2209.57 271.126 L2213.85 271.126 L2213.85 285.247 Q2215.38 282.909 2217.44 281.751 Q2219.52 280.594 2222.23 280.594 Q2226.7 280.594 2228.99 283.372 Q2231.28 286.126 2231.28 291.497 Z" fill="#000000" fill-rule="evenodd" fill-opacity="1" /></svg>
