<?xml version="1.0" encoding="utf-8"?>
<svg xmlns="http://www.w3.org/2000/svg" xmlns:xlink="http://www.w3.org/1999/xlink" width="600" height="400" viewBox="0 0 2400 1600">
<defs>
  <clipPath id="clip540">
    <rect x="0" y="0" width="2400" height="1600"/>
  </clipPath>
</defs>
<path clip-path="url(#clip540)" d="
M0 1600 L2400 1600 L2400 0 L0 0  Z
  " fill="#ffffff" fill-rule="evenodd" fill-opacity="1"/>
<defs>
  <clipPath id="clip541">
    <rect x="480" y="0" width="1681" height="1600"/>
  </clipPath>
</defs>
<path clip-path="url(#clip540)" d="
M172.015 1486.45 L2352.76 1486.45 L2352.76 123.472 L172.015 123.472  Z
  " fill="#ffffff" fill-rule="evenodd" fill-opacity="1"/>
<defs>
  <clipPath id="clip542">
    <rect x="172" y="123" width="2182" height="1364"/>
  </clipPath>
</defs>
<polyline clip-path="url(#clip542)" style="stroke:#000000; stroke-linecap:butt; stroke-linejoin:round; stroke-width:2; stroke-opacity:0.1; fill:none" points="
  233.734,1486.45 233.734,123.472 
  "/>
<polyline clip-path="url(#clip542)" style="stroke:#000000; stroke-linecap:butt; stroke-linejoin:round; stroke-width:2; stroke-opacity:0.1; fill:none" points="
  576.618,1486.45 576.618,123.472 
  "/>
<polyline clip-path="url(#clip542)" style="stroke:#000000; stroke-linecap:butt; stroke-linejoin:round; stroke-width:2; stroke-opacity:0.1; fill:none" points="
  919.502,1486.45 919.502,123.472 
  "/>
<polyline clip-path="url(#clip542)" style="stroke:#000000; stroke-linecap:butt; stroke-linejoin:round; stroke-width:2; stroke-opacity:0.1; fill:none" points="
  1262.39,1486.45 1262.39,123.472 
  "/>
<polyline clip-path="url(#clip542)" style="stroke:#000000; stroke-linecap:butt; stroke-linejoin:round; stroke-width:2; stroke-opacity:0.1; fill:none" points="
  1605.27,1486.45 1605.27,123.472 
  "/>
<polyline clip-path="url(#clip542)" style="stroke:#000000; stroke-linecap:butt; stroke-linejoin:round; stroke-width:2; stroke-opacity:0.1; fill:none" points="
  1948.15,1486.45 1948.15,123.472 
  "/>
<polyline clip-path="url(#clip542)" style="stroke:#000000; stroke-linecap:butt; stroke-linejoin:round; stroke-width:2; stroke-opacity:0.1; fill:none" points="
  2291.04,1486.45 2291.04,123.472 
  "/>
<polyline clip-path="url(#clip540)" style="stroke:#000000; stroke-linecap:butt; stroke-linejoin:round; stroke-width:4; stroke-opacity:1; fill:none" points="
  172.015,1486.45 2352.76,1486.45 
  "/>
<polyline clip-path="url(#clip540)" style="stroke:#000000; stroke-linecap:butt; stroke-linejoin:round; stroke-width:4; stroke-opacity:1; fill:none" points="
  233.734,1486.45 233.734,1467.55 
  "/>
<polyline clip-path="url(#clip540)" style="stroke:#000000; stroke-linecap:butt; stroke-linejoin:round; stroke-width:4; stroke-opacity:1; fill:none" points="
  576.618,1486.45 576.618,1467.55 
  "/>
<polyline clip-path="url(#clip540)" style="stroke:#000000; stroke-linecap:butt; stroke-linejoin:round; stroke-width:4; stroke-opacity:1; fill:none" points="
  919.502,1486.45 919.502,1467.55 
  "/>
<polyline clip-path="url(#clip540)" style="stroke:#000000; stroke-linecap:butt; stroke-linejoin:round; stroke-width:4; stroke-opacity:1; fill:none" points="
  1262.39,1486.45 1262.39,1467.55 
  "/>
<polyline clip-path="url(#clip540)" style="stroke:#000000; stroke-linecap:butt; stroke-linejoin:round; stroke-width:4; stroke-opacity:1; fill:none" points="
  1605.27,1486.45 1605.27,1467.55 
  "/>
<polyline clip-path="url(#clip540)" style="stroke:#000000; stroke-linecap:butt; stroke-linejoin:round; stroke-width:4; stroke-opacity:1; fill:none" points="
  1948.15,1486.45 1948.15,1467.55 
  "/>
<polyline clip-path="url(#clip540)" style="stroke:#000000; stroke-linecap:butt; stroke-linejoin:round; stroke-width:4; stroke-opacity:1; fill:none" points="
  2291.04,1486.45 2291.04,1467.55 
  "/>
<path clip-path="url(#clip540)" d="M203.676 1532.02 L233.352 1532.02 L233.352 1535.95 L203.676 1535.95 L203.676 1532.02 Z" fill="#000000" fill-rule="evenodd" fill-opacity="1" /><path clip-path="url(#clip540)" d="M247.472 1544.91 L263.792 1544.91 L263.792 1548.85 L241.847 1548.85 L241.847 1544.91 Q244.509 1542.16 249.093 1537.53 Q253.699 1532.88 254.88 1531.53 Q257.125 1529.01 258.005 1527.27 Q258.907 1525.51 258.907 1523.82 Q258.907 1521.07 256.963 1519.33 Q255.042 1517.6 251.94 1517.6 Q249.741 1517.6 247.287 1518.36 Q244.857 1519.13 242.079 1520.68 L242.079 1515.95 Q244.903 1514.82 247.357 1514.24 Q249.81 1513.66 251.847 1513.66 Q257.218 1513.66 260.412 1516.35 Q263.606 1519.03 263.606 1523.52 Q263.606 1525.65 262.796 1527.57 Q262.009 1529.47 259.903 1532.07 Q259.324 1532.74 256.222 1535.95 Q253.12 1539.15 247.472 1544.91 Z" fill="#000000" fill-rule="evenodd" fill-opacity="1" /><path clip-path="url(#clip540)" d="M546.375 1532.02 L576.051 1532.02 L576.051 1535.95 L546.375 1535.95 L546.375 1532.02 Z" fill="#000000" fill-rule="evenodd" fill-opacity="1" /><path clip-path="url(#clip540)" d="M586.953 1544.91 L594.592 1544.91 L594.592 1518.55 L586.282 1520.21 L586.282 1515.95 L594.546 1514.29 L599.222 1514.29 L599.222 1544.91 L606.861 1544.91 L606.861 1548.85 L586.953 1548.85 L586.953 1544.91 Z" fill="#000000" fill-rule="evenodd" fill-opacity="1" /><path clip-path="url(#clip540)" d="M919.502 1517.37 Q915.89 1517.37 914.062 1520.93 Q912.256 1524.47 912.256 1531.6 Q912.256 1538.71 914.062 1542.27 Q915.89 1545.82 919.502 1545.82 Q923.136 1545.82 924.941 1542.27 Q926.77 1538.71 926.77 1531.6 Q926.77 1524.47 924.941 1520.93 Q923.136 1517.37 919.502 1517.37 M919.502 1513.66 Q925.312 1513.66 928.367 1518.27 Q931.446 1522.85 931.446 1531.6 Q931.446 1540.33 928.367 1544.94 Q925.312 1549.52 919.502 1549.52 Q913.691 1549.52 910.613 1544.94 Q907.557 1540.33 907.557 1531.6 Q907.557 1522.85 910.613 1518.27 Q913.691 1513.66 919.502 1513.66 Z" fill="#000000" fill-rule="evenodd" fill-opacity="1" /><path clip-path="url(#clip540)" d="M1252.77 1544.91 L1260.41 1544.91 L1260.41 1518.55 L1252.1 1520.21 L1252.1 1515.95 L1260.36 1514.29 L1265.04 1514.29 L1265.04 1544.91 L1272.67 1544.91 L1272.67 1548.85 L1252.77 1548.85 L1252.77 1544.91 Z" fill="#000000" fill-rule="evenodd" fill-opacity="1" /><path clip-path="url(#clip540)" d="M1599.92 1544.91 L1616.24 1544.91 L1616.24 1548.85 L1594.3 1548.85 L1594.3 1544.91 Q1596.96 1542.16 1601.54 1537.53 Q1606.15 1532.88 1607.33 1531.53 Q1609.57 1529.01 1610.45 1527.27 Q1611.36 1525.51 1611.36 1523.82 Q1611.36 1521.07 1609.41 1519.33 Q1607.49 1517.6 1604.39 1517.6 Q1602.19 1517.6 1599.74 1518.36 Q1597.31 1519.13 1594.53 1520.68 L1594.53 1515.95 Q1597.35 1514.82 1599.81 1514.24 Q1602.26 1513.66 1604.3 1513.66 Q1609.67 1513.66 1612.86 1516.35 Q1616.06 1519.03 1616.06 1523.52 Q1616.06 1525.65 1615.25 1527.57 Q1614.46 1529.47 1612.35 1532.07 Q1611.77 1532.74 1608.67 1535.95 Q1605.57 1539.15 1599.92 1544.91 Z" fill="#000000" fill-rule="evenodd" fill-opacity="1" /><path clip-path="url(#clip540)" d="M1952.4 1530.21 Q1955.76 1530.93 1957.63 1533.2 Q1959.53 1535.47 1959.53 1538.8 Q1959.53 1543.92 1956.01 1546.72 Q1952.49 1549.52 1946.01 1549.52 Q1943.84 1549.52 1941.52 1549.08 Q1939.23 1548.66 1936.78 1547.81 L1936.78 1543.29 Q1938.72 1544.43 1941.03 1545.01 Q1943.35 1545.58 1945.87 1545.58 Q1950.27 1545.58 1952.56 1543.85 Q1954.88 1542.11 1954.88 1538.8 Q1954.88 1535.75 1952.72 1534.03 Q1950.6 1532.3 1946.78 1532.3 L1942.75 1532.3 L1942.75 1528.45 L1946.96 1528.45 Q1950.41 1528.45 1952.24 1527.09 Q1954.07 1525.7 1954.07 1523.11 Q1954.07 1520.45 1952.17 1519.03 Q1950.29 1517.6 1946.78 1517.6 Q1944.85 1517.6 1942.66 1518.01 Q1940.46 1518.43 1937.82 1519.31 L1937.82 1515.14 Q1940.48 1514.4 1942.79 1514.03 Q1945.13 1513.66 1947.19 1513.66 Q1952.52 1513.66 1955.62 1516.09 Q1958.72 1518.5 1958.72 1522.62 Q1958.72 1525.49 1957.08 1527.48 Q1955.43 1529.45 1952.4 1530.21 Z" fill="#000000" fill-rule="evenodd" fill-opacity="1" /><path clip-path="url(#clip540)" d="M2294.05 1518.36 L2282.24 1536.81 L2294.05 1536.81 L2294.05 1518.36 M2292.82 1514.29 L2298.7 1514.29 L2298.7 1536.81 L2303.63 1536.81 L2303.63 1540.7 L2298.7 1540.7 L2298.7 1548.85 L2294.05 1548.85 L2294.05 1540.7 L2278.44 1540.7 L2278.44 1536.19 L2292.82 1514.29 Z" fill="#000000" fill-rule="evenodd" fill-opacity="1" /><polyline clip-path="url(#clip542)" style="stroke:#000000; stroke-linecap:butt; stroke-linejoin:round; stroke-width:2; stroke-opacity:0.1; fill:none" points="
  172.015,1447.87 2352.76,1447.87 
  "/>
<polyline clip-path="url(#clip542)" style="stroke:#000000; stroke-linecap:butt; stroke-linejoin:round; stroke-width:2; stroke-opacity:0.1; fill:none" points="
  172.015,1148.84 2352.76,1148.84 
  "/>
<polyline clip-path="url(#clip542)" style="stroke:#000000; stroke-linecap:butt; stroke-linejoin:round; stroke-width:2; stroke-opacity:0.1; fill:none" points="
  172.015,849.814 2352.76,849.814 
  "/>
<polyline clip-path="url(#clip542)" style="stroke:#000000; stroke-linecap:butt; stroke-linejoin:round; stroke-width:2; stroke-opacity:0.1; fill:none" points="
  172.015,550.785 2352.76,550.785 
  "/>
<polyline clip-path="url(#clip542)" style="stroke:#000000; stroke-linecap:butt; stroke-linejoin:round; stroke-width:2; stroke-opacity:0.1; fill:none" points="
  172.015,251.756 2352.76,251.756 
  "/>
<polyline clip-path="url(#clip540)" style="stroke:#000000; stroke-linecap:butt; stroke-linejoin:round; stroke-width:4; stroke-opacity:1; fill:none" points="
  172.015,1486.45 172.015,123.472 
  "/>
<polyline clip-path="url(#clip540)" style="stroke:#000000; stroke-linecap:butt; stroke-linejoin:round; stroke-width:4; stroke-opacity:1; fill:none" points="
  172.015,1447.87 190.912,1447.87 
  "/>
<polyline clip-path="url(#clip540)" style="stroke:#000000; stroke-linecap:butt; stroke-linejoin:round; stroke-width:4; stroke-opacity:1; fill:none" points="
  172.015,1148.84 190.912,1148.84 
  "/>
<polyline clip-path="url(#clip540)" style="stroke:#000000; stroke-linecap:butt; stroke-linejoin:round; stroke-width:4; stroke-opacity:1; fill:none" points="
  172.015,849.814 190.912,849.814 
  "/>
<polyline clip-path="url(#clip540)" style="stroke:#000000; stroke-linecap:butt; stroke-linejoin:round; stroke-width:4; stroke-opacity:1; fill:none" points="
  172.015,550.785 190.912,550.785 
  "/>
<polyline clip-path="url(#clip540)" style="stroke:#000000; stroke-linecap:butt; stroke-linejoin:round; stroke-width:4; stroke-opacity:1; fill:none" points="
  172.015,251.756 190.912,251.756 
  "/>
<path clip-path="url(#clip540)" d="M124.07 1433.67 Q120.459 1433.67 118.631 1437.24 Q116.825 1440.78 116.825 1447.91 Q116.825 1455.01 118.631 1458.58 Q120.459 1462.12 124.07 1462.12 Q127.705 1462.12 129.51 1458.58 Q131.339 1455.01 131.339 1447.91 Q131.339 1440.78 129.51 1437.24 Q127.705 1433.67 124.07 1433.67 M124.07 1429.97 Q129.881 1429.97 132.936 1434.57 Q136.015 1439.16 136.015 1447.91 Q136.015 1456.63 132.936 1461.24 Q129.881 1465.82 124.07 1465.82 Q118.26 1465.82 115.182 1461.24 Q112.126 1456.63 112.126 1447.91 Q112.126 1439.16 115.182 1434.57 Q118.26 1429.97 124.07 1429.97 Z" fill="#000000" fill-rule="evenodd" fill-opacity="1" /><path clip-path="url(#clip540)" d="M57.7745 1162.19 L74.0939 1162.19 L74.0939 1166.12 L52.1495 1166.12 L52.1495 1162.19 Q54.8115 1159.43 59.3949 1154.8 Q64.0013 1150.15 65.1819 1148.81 Q67.4272 1146.29 68.3068 1144.55 Q69.2096 1142.79 69.2096 1141.1 Q69.2096 1138.35 67.2652 1136.61 Q65.3439 1134.87 62.2421 1134.87 Q60.043 1134.87 57.5893 1135.64 Q55.1588 1136.4 52.381 1137.95 L52.381 1133.23 Q55.2051 1132.1 57.6588 1131.52 Q60.1124 1130.94 62.1495 1130.94 Q67.5198 1130.94 70.7142 1133.62 Q73.9087 1136.31 73.9087 1140.8 Q73.9087 1142.93 73.0985 1144.85 Q72.3115 1146.75 70.205 1149.34 Q69.6263 1150.01 66.5245 1153.23 Q63.4226 1156.42 57.7745 1162.19 Z" fill="#000000" fill-rule="evenodd" fill-opacity="1" /><path clip-path="url(#clip540)" d="M93.9086 1134.64 Q90.2975 1134.64 88.4688 1138.21 Q86.6632 1141.75 86.6632 1148.88 Q86.6632 1155.98 88.4688 1159.55 Q90.2975 1163.09 93.9086 1163.09 Q97.5428 1163.09 99.3483 1159.55 Q101.177 1155.98 101.177 1148.88 Q101.177 1141.75 99.3483 1138.21 Q97.5428 1134.64 93.9086 1134.64 M93.9086 1130.94 Q99.7187 1130.94 102.774 1135.55 Q105.853 1140.13 105.853 1148.88 Q105.853 1157.61 102.774 1162.21 Q99.7187 1166.8 93.9086 1166.8 Q88.0984 1166.8 85.0197 1162.21 Q81.9642 1157.61 81.9642 1148.88 Q81.9642 1140.13 85.0197 1135.55 Q88.0984 1130.94 93.9086 1130.94 Z" fill="#000000" fill-rule="evenodd" fill-opacity="1" /><path clip-path="url(#clip540)" d="M124.07 1134.64 Q120.459 1134.64 118.631 1138.21 Q116.825 1141.75 116.825 1148.88 Q116.825 1155.98 118.631 1159.55 Q120.459 1163.09 124.07 1163.09 Q127.705 1163.09 129.51 1159.55 Q131.339 1155.98 131.339 1148.88 Q131.339 1141.75 129.51 1138.21 Q127.705 1134.64 124.07 1134.64 M124.07 1130.94 Q129.881 1130.94 132.936 1135.55 Q136.015 1140.13 136.015 1148.88 Q136.015 1157.61 132.936 1162.21 Q129.881 1166.8 124.07 1166.8 Q118.26 1166.8 115.182 1162.21 Q112.126 1157.61 112.126 1148.88 Q112.126 1140.13 115.182 1135.55 Q118.26 1130.94 124.07 1130.94 Z" fill="#000000" fill-rule="evenodd" fill-opacity="1" /><path clip-path="url(#clip540)" d="M66.5939 836.608 L54.7884 855.057 L66.5939 855.057 L66.5939 836.608 M65.367 832.534 L71.2466 832.534 L71.2466 855.057 L76.1772 855.057 L76.1772 858.946 L71.2466 858.946 L71.2466 867.094 L66.5939 867.094 L66.5939 858.946 L50.9921 858.946 L50.9921 854.432 L65.367 832.534 Z" fill="#000000" fill-rule="evenodd" fill-opacity="1" /><path clip-path="url(#clip540)" d="M93.9086 835.613 Q90.2975 835.613 88.4688 839.178 Q86.6632 842.72 86.6632 849.849 Q86.6632 856.956 88.4688 860.52 Q90.2975 864.062 93.9086 864.062 Q97.5428 864.062 99.3483 860.52 Q101.177 856.956 101.177 849.849 Q101.177 842.72 99.3483 839.178 Q97.5428 835.613 93.9086 835.613 M93.9086 831.909 Q99.7187 831.909 102.774 836.516 Q105.853 841.099 105.853 849.849 Q105.853 858.576 102.774 863.182 Q99.7187 867.766 93.9086 867.766 Q88.0984 867.766 85.0197 863.182 Q81.9642 858.576 81.9642 849.849 Q81.9642 841.099 85.0197 836.516 Q88.0984 831.909 93.9086 831.909 Z" fill="#000000" fill-rule="evenodd" fill-opacity="1" /><path clip-path="url(#clip540)" d="M124.07 835.613 Q120.459 835.613 118.631 839.178 Q116.825 842.72 116.825 849.849 Q116.825 856.956 118.631 860.52 Q120.459 864.062 124.07 864.062 Q127.705 864.062 129.51 860.52 Q131.339 856.956 131.339 849.849 Q131.339 842.72 129.51 839.178 Q127.705 835.613 124.07 835.613 M124.07 831.909 Q129.881 831.909 132.936 836.516 Q136.015 841.099 136.015 849.849 Q136.015 858.576 132.936 863.182 Q129.881 867.766 124.07 867.766 Q118.26 867.766 115.182 863.182 Q112.126 858.576 112.126 849.849 Q112.126 841.099 115.182 836.516 Q118.26 831.909 124.07 831.909 Z" fill="#000000" fill-rule="evenodd" fill-opacity="1" /><path clip-path="url(#clip540)" d="M64.3254 548.922 Q61.1773 548.922 59.3254 551.074 Q57.4967 553.227 57.4967 556.977 Q57.4967 560.704 59.3254 562.88 Q61.1773 565.033 64.3254 565.033 Q67.4735 565.033 69.3022 562.88 Q71.1541 560.704 71.1541 556.977 Q71.1541 553.227 69.3022 551.074 Q67.4735 548.922 64.3254 548.922 M73.6077 534.269 L73.6077 538.528 Q71.8485 537.695 70.0429 537.255 Q68.2606 536.815 66.5013 536.815 Q61.8717 536.815 59.418 539.94 Q56.9875 543.065 56.6402 549.385 Q58.006 547.371 60.0662 546.306 Q62.1263 545.218 64.6032 545.218 Q69.8115 545.218 72.8207 548.389 Q75.8531 551.537 75.8531 556.977 Q75.8531 562.301 72.705 565.519 Q69.5568 568.736 64.3254 568.736 Q58.33 568.736 55.1588 564.153 Q51.9875 559.547 51.9875 550.82 Q51.9875 542.625 55.8764 537.764 Q59.7652 532.88 66.3161 532.88 Q68.0754 532.88 69.8578 533.227 Q71.6633 533.575 73.6077 534.269 Z" fill="#000000" fill-rule="evenodd" fill-opacity="1" /><path clip-path="url(#clip540)" d="M93.9086 536.584 Q90.2975 536.584 88.4688 540.149 Q86.6632 543.69 86.6632 550.82 Q86.6632 557.926 88.4688 561.491 Q90.2975 565.033 93.9086 565.033 Q97.5428 565.033 99.3483 561.491 Q101.177 557.926 101.177 550.82 Q101.177 543.69 99.3483 540.149 Q97.5428 536.584 93.9086 536.584 M93.9086 532.88 Q99.7187 532.88 102.774 537.487 Q105.853 542.07 105.853 550.82 Q105.853 559.547 102.774 564.153 Q99.7187 568.736 93.9086 568.736 Q88.0984 568.736 85.0197 564.153 Q81.9642 559.547 81.9642 550.82 Q81.9642 542.07 85.0197 537.487 Q88.0984 532.88 93.9086 532.88 Z" fill="#000000" fill-rule="evenodd" fill-opacity="1" /><path clip-path="url(#clip540)" d="M124.07 536.584 Q120.459 536.584 118.631 540.149 Q116.825 543.69 116.825 550.82 Q116.825 557.926 118.631 561.491 Q120.459 565.033 124.07 565.033 Q127.705 565.033 129.51 561.491 Q131.339 557.926 131.339 550.82 Q131.339 543.69 129.51 540.149 Q127.705 536.584 124.07 536.584 M124.07 532.88 Q129.881 532.88 132.936 537.487 Q136.015 542.07 136.015 550.82 Q136.015 559.547 132.936 564.153 Q129.881 568.736 124.07 568.736 Q118.26 568.736 115.182 564.153 Q112.126 559.547 112.126 550.82 Q112.126 542.07 115.182 537.487 Q118.26 532.88 124.07 532.88 Z" fill="#000000" fill-rule="evenodd" fill-opacity="1" /><path clip-path="url(#clip540)" d="M63.7467 252.624 Q60.4134 252.624 58.4921 254.406 Q56.5939 256.189 56.5939 259.314 Q56.5939 262.439 58.4921 264.221 Q60.4134 266.003 63.7467 266.003 Q67.08 266.003 69.0013 264.221 Q70.9226 262.415 70.9226 259.314 Q70.9226 256.189 69.0013 254.406 Q67.1032 252.624 63.7467 252.624 M59.0708 250.633 Q56.0615 249.892 54.3717 247.832 Q52.7051 245.772 52.7051 242.809 Q52.7051 238.666 55.6449 236.258 Q58.6078 233.851 63.7467 233.851 Q68.9087 233.851 71.8485 236.258 Q74.7883 238.666 74.7883 242.809 Q74.7883 245.772 73.0985 247.832 Q71.4318 249.892 68.4457 250.633 Q71.8253 251.42 73.7003 253.712 Q75.5985 256.003 75.5985 259.314 Q75.5985 264.337 72.5198 267.022 Q69.4642 269.707 63.7467 269.707 Q58.0291 269.707 54.9504 267.022 Q51.8949 264.337 51.8949 259.314 Q51.8949 256.003 53.793 253.712 Q55.6912 251.42 59.0708 250.633 M57.3578 243.249 Q57.3578 245.934 59.0245 247.439 Q60.7143 248.943 63.7467 248.943 Q66.7559 248.943 68.4457 247.439 Q70.1587 245.934 70.1587 243.249 Q70.1587 240.564 68.4457 239.059 Q66.7559 237.554 63.7467 237.554 Q60.7143 237.554 59.0245 239.059 Q57.3578 240.564 57.3578 243.249 Z" fill="#000000" fill-rule="evenodd" fill-opacity="1" /><path clip-path="url(#clip540)" d="M93.9086 237.554 Q90.2975 237.554 88.4688 241.119 Q86.6632 244.661 86.6632 251.79 Q86.6632 258.897 88.4688 262.462 Q90.2975 266.003 93.9086 266.003 Q97.5428 266.003 99.3483 262.462 Q101.177 258.897 101.177 251.79 Q101.177 244.661 99.3483 241.119 Q97.5428 237.554 93.9086 237.554 M93.9086 233.851 Q99.7187 233.851 102.774 238.457 Q105.853 243.04 105.853 251.79 Q105.853 260.517 102.774 265.124 Q99.7187 269.707 93.9086 269.707 Q88.0984 269.707 85.0197 265.124 Q81.9642 260.517 81.9642 251.79 Q81.9642 243.04 85.0197 238.457 Q88.0984 233.851 93.9086 233.851 Z" fill="#000000" fill-rule="evenodd" fill-opacity="1" /><path clip-path="url(#clip540)" d="M124.07 237.554 Q120.459 237.554 118.631 241.119 Q116.825 244.661 116.825 251.79 Q116.825 258.897 118.631 262.462 Q120.459 266.003 124.07 266.003 Q127.705 266.003 129.51 262.462 Q131.339 258.897 131.339 251.79 Q131.339 244.661 129.51 241.119 Q127.705 237.554 124.07 237.554 M124.07 233.851 Q129.881 233.851 132.936 238.457 Q136.015 243.04 136.015 251.79 Q136.015 260.517 132.936 265.124 Q129.881 269.707 124.07 269.707 Q118.26 269.707 115.182 265.124 Q112.126 260.517 112.126 251.79 Q112.126 243.04 115.182 238.457 Q118.26 233.851 124.07 233.851 Z" fill="#000000" fill-rule="evenodd" fill-opacity="1" /><path clip-path="url(#clip540)" d="M1179.36 18.8205 L1179.36 65.8515 L1189.25 65.8515 Q1201.76 65.8515 1207.56 60.1802 Q1213.39 54.509 1213.39 42.2752 Q1213.39 30.1225 1207.56 24.4918 Q1201.76 18.8205 1189.25 18.8205 L1179.36 18.8205 M1171.18 12.096 L1187.99 12.096 Q1205.57 12.096 1213.79 19.4281 Q1222.02 26.7198 1222.02 42.2752 Q1222.02 57.9117 1213.75 65.2439 Q1205.49 72.576 1187.99 72.576 L1171.18 72.576 L1171.18 12.096 Z" fill="#000000" fill-rule="evenodd" fill-opacity="1" /><path clip-path="url(#clip540)" d="M1255.36 49.7694 Q1246.32 49.7694 1242.84 51.8354 Q1239.36 53.9013 1239.36 58.8839 Q1239.36 62.8538 1241.95 65.2034 Q1244.58 67.5124 1249.08 67.5124 Q1255.28 67.5124 1259 63.1374 Q1262.77 58.7219 1262.77 51.4303 L1262.77 49.7694 L1255.36 49.7694 M1270.22 46.6907 L1270.22 72.576 L1262.77 72.576 L1262.77 65.6895 Q1260.22 69.8214 1256.41 71.8063 Q1252.6 73.7508 1247.09 73.7508 Q1240.13 73.7508 1235.99 69.8619 Q1231.9 65.9325 1231.9 59.3701 Q1231.9 51.7138 1237.01 47.825 Q1242.15 43.9361 1252.32 43.9361 L1262.77 43.9361 L1262.77 43.2069 Q1262.77 38.0623 1259.37 35.2672 Q1256.01 32.4315 1249.89 32.4315 Q1246 32.4315 1242.31 33.3632 Q1238.63 34.295 1235.22 36.1584 L1235.22 29.2718 Q1239.32 27.692 1243.16 26.9223 Q1247.01 26.1121 1250.66 26.1121 Q1260.5 26.1121 1265.36 31.2163 Q1270.22 36.3204 1270.22 46.6907 Z" fill="#000000" fill-rule="evenodd" fill-opacity="1" /><path clip-path="url(#clip540)" d="M1292.95 14.324 L1292.95 27.2059 L1308.3 27.2059 L1308.3 32.9987 L1292.95 32.9987 L1292.95 57.6282 Q1292.95 63.1779 1294.45 64.7578 Q1295.99 66.3376 1300.65 66.3376 L1308.3 66.3376 L1308.3 72.576 L1300.65 72.576 Q1292.02 72.576 1288.74 69.3758 Q1285.46 66.1351 1285.46 57.6282 L1285.46 32.9987 L1279.99 32.9987 L1279.99 27.2059 L1285.46 27.2059 L1285.46 14.324 L1292.95 14.324 Z" fill="#000000" fill-rule="evenodd" fill-opacity="1" /><path clip-path="url(#clip540)" d="M1338.72 49.7694 Q1329.69 49.7694 1326.21 51.8354 Q1322.72 53.9013 1322.72 58.8839 Q1322.72 62.8538 1325.32 65.2034 Q1327.95 67.5124 1332.45 67.5124 Q1338.64 67.5124 1342.37 63.1374 Q1346.14 58.7219 1346.14 51.4303 L1346.14 49.7694 L1338.72 49.7694 M1353.59 46.6907 L1353.59 72.576 L1346.14 72.576 L1346.14 65.6895 Q1343.59 69.8214 1339.78 71.8063 Q1335.97 73.7508 1330.46 73.7508 Q1323.49 73.7508 1319.36 69.8619 Q1315.27 65.9325 1315.27 59.3701 Q1315.27 51.7138 1320.37 47.825 Q1325.52 43.9361 1335.69 43.9361 L1346.14 43.9361 L1346.14 43.2069 Q1346.14 38.0623 1342.74 35.2672 Q1339.37 32.4315 1333.26 32.4315 Q1329.37 32.4315 1325.68 33.3632 Q1321.99 34.295 1318.59 36.1584 L1318.59 29.2718 Q1322.68 27.692 1326.53 26.9223 Q1330.38 26.1121 1334.03 26.1121 Q1343.87 26.1121 1348.73 31.2163 Q1353.59 36.3204 1353.59 46.6907 Z" fill="#000000" fill-rule="evenodd" fill-opacity="1" /><polyline clip-path="url(#clip542)" style="stroke:#009af9; stroke-linecap:butt; stroke-linejoin:round; stroke-width:4; stroke-opacity:1; fill:none" points="
  233.734,1447.87 233.734,1373.12 268.022,1373.12 268.022,1283.41 302.311,1283.41 302.311,1253.5 336.599,1253.5 336.599,1059.13 370.887,1059.13 370.887,999.329 
  405.176,999.329 405.176,1178.75 439.464,1178.75 439.464,849.814 473.753,849.814 473.753,1014.28 508.041,1014.28 508.041,999.329 542.329,999.329 542.329,655.445 
  576.618,655.445 576.618,909.62 610.906,909.62 610.906,954.475 645.194,954.475 645.194,999.329 679.483,999.329 679.483,969.426 713.771,969.426 713.771,984.378 
  748.06,984.378 748.06,1103.99 782.348,1103.99 782.348,1283.41 816.636,1283.41 816.636,1208.65 850.925,1208.65 850.925,1298.36 885.213,1298.36 885.213,1358.16 
  919.502,1358.16 919.502,1403.02 953.79,1403.02 953.79,1432.92 988.078,1432.92 988.078,1447.87 1022.37,1447.87 1022.37,1432.92 1056.66,1432.92 1056.66,1417.97 
  1090.94,1417.97 1125.23,1417.97 1159.52,1417.97 1159.52,1373.12 1193.81,1373.12 1193.81,1388.07 1228.1,1388.07 1228.1,1328.26 
  1262.39,1328.26 1262.39,1253.5 1296.67,1253.5 1296.67,1223.6 1330.96,1223.6 1330.96,1103.99 1365.25,1103.99 1365.25,1029.23 1399.54,1029.23 1399.54,745.154 
  1433.83,745.154 1433.83,670.397 1468.12,670.397 1468.12,625.542 1502.4,625.542 1502.4,565.737 1536.69,565.737 1536.69,162.047 1570.98,162.047 1570.98,326.513 
  1605.27,326.513 1605.27,191.95 1639.56,191.95 1639.56,371.367 1673.85,371.367 1673.85,206.901 1708.13,206.901 1708.13,461.076 1742.42,461.076 1742.42,520.882 
  1776.71,520.882 1776.71,849.814 1811,849.814 1811,924.572 1845.29,924.572 1845.29,999.329 1879.58,999.329 1879.58,1148.84 1913.86,1148.84 1913.86,1133.89 
  1948.15,1133.89 1948.15,1343.21 1982.44,1343.21 1982.44,1447.87 2016.73,1447.87 2016.73,1417.97 2051.02,1417.97 2051.02,1447.87 2085.31,1447.87 2085.31,1432.92 
  2119.59,1432.92 2153.88,1432.92 2153.88,1447.87 2188.17,1447.87 2222.46,1447.87 2256.75,1447.87 
  2291.04,1447.87 
  "/>
<path clip-path="url(#clip540)" d="
M1935.83 272.585 L2280.06 272.585 L2280.06 168.905 L1935.83 168.905  Z
  " fill="#ffffff" fill-rule="evenodd" fill-opacity="1"/>
<polyline clip-path="url(#clip540)" style="stroke:#000000; stroke-linecap:butt; stroke-linejoin:round; stroke-width:4; stroke-opacity:1; fill:none" points="
  1935.83,272.585 2280.06,272.585 2280.06,168.905 1935.83,168.905 1935.83,272.585 
  "/>
<polyline clip-path="url(#clip540)" style="stroke:#009af9; stroke-linecap:butt; stroke-linejoin:round; stroke-width:4; stroke-opacity:1; fill:none" points="
  1959.83,220.745 2103.83,220.745 
  "/>
<path clip-path="url(#clip540)" d="M2132.5 207.307 L2132.5 234.182 L2138.15 234.182 Q2145.31 234.182 2148.62 230.941 Q2151.95 227.701 2151.95 220.71 Q2151.95 213.766 2148.62 210.548 Q2145.31 207.307 2138.15 207.307 L2132.5 207.307 M2127.83 203.465 L2137.44 203.465 Q2147.48 203.465 2152.18 207.654 Q2156.88 211.821 2156.88 220.71 Q2156.88 229.645 2152.16 233.835 Q2147.44 238.025 2137.44 238.025 L2127.83 238.025 L2127.83 203.465 Z" fill="#000000" fill-rule="evenodd" fill-opacity="1" /><path clip-path="url(#clip540)" d="M2175.93 224.992 Q2170.77 224.992 2168.78 226.173 Q2166.79 227.353 2166.79 230.201 Q2166.79 232.469 2168.27 233.812 Q2169.77 235.131 2172.34 235.131 Q2175.88 235.131 2178.01 232.631 Q2180.17 230.108 2180.17 225.941 L2180.17 224.992 L2175.93 224.992 M2184.43 223.233 L2184.43 238.025 L2180.17 238.025 L2180.17 234.089 Q2178.71 236.451 2176.53 237.585 Q2174.36 238.696 2171.21 238.696 Q2167.23 238.696 2164.87 236.474 Q2162.53 234.228 2162.53 230.478 Q2162.53 226.103 2165.44 223.881 Q2168.38 221.659 2174.19 221.659 L2180.17 221.659 L2180.17 221.242 Q2180.17 218.303 2178.22 216.705 Q2176.3 215.085 2172.81 215.085 Q2170.58 215.085 2168.48 215.617 Q2166.37 216.15 2164.43 217.215 L2164.43 213.279 Q2166.76 212.377 2168.96 211.937 Q2171.16 211.474 2173.25 211.474 Q2178.87 211.474 2181.65 214.391 Q2184.43 217.307 2184.43 223.233 Z" fill="#000000" fill-rule="evenodd" fill-opacity="1" /><path clip-path="url(#clip540)" d="M2197.41 204.738 L2197.41 212.099 L2206.19 212.099 L2206.19 215.409 L2197.41 215.409 L2197.41 229.483 Q2197.41 232.654 2198.27 233.557 Q2199.15 234.46 2201.81 234.46 L2206.19 234.46 L2206.19 238.025 L2201.81 238.025 Q2196.88 238.025 2195 236.196 Q2193.13 234.344 2193.13 229.483 L2193.13 215.409 L2190 215.409 L2190 212.099 L2193.13 212.099 L2193.13 204.738 L2197.41 204.738 Z" fill="#000000" fill-rule="evenodd" fill-opacity="1" /><path clip-path="url(#clip540)" d="M2223.57 224.992 Q2218.41 224.992 2216.42 226.173 Q2214.43 227.353 2214.43 230.201 Q2214.43 232.469 2215.91 233.812 Q2217.41 235.131 2219.98 235.131 Q2223.52 235.131 2225.65 232.631 Q2227.81 230.108 2227.81 225.941 L2227.81 224.992 L2223.57 224.992 M2232.06 223.233 L2232.06 238.025 L2227.81 238.025 L2227.81 234.089 Q2226.35 236.451 2224.17 237.585 Q2222 238.696 2218.85 238.696 Q2214.87 238.696 2212.5 236.474 Q2210.17 234.228 2210.17 230.478 Q2210.17 226.103 2213.08 223.881 Q2216.02 221.659 2221.83 221.659 L2227.81 221.659 L2227.81 221.242 Q2227.81 218.303 2225.86 216.705 Q2223.94 215.085 2220.44 215.085 Q2218.22 215.085 2216.12 215.617 Q2214.01 216.15 2212.06 217.215 L2212.06 213.279 Q2214.4 212.377 2216.6 211.937 Q2218.8 211.474 2220.88 211.474 Q2226.51 211.474 2229.29 214.391 Q2232.06 217.307 2232.06 223.233 Z" fill="#000000" fill-rule="evenodd" fill-opacity="1" /></svg>
