<?xml version="1.0" encoding="utf-8"?>
<svg xmlns="http://www.w3.org/2000/svg" xmlns:xlink="http://www.w3.org/1999/xlink" width="600" height="400" viewBox="0 0 2400 1600">
<defs>
  <clipPath id="clip290">
    <rect x="0" y="0" width="2400" height="1600"/>
  </clipPath>
</defs>
<path clip-path="url(#clip290)" d="
M0 1600 L2400 1600 L2400 0 L0 0  Z
  " fill="#ffffff" fill-rule="evenodd" fill-opacity="1"/>
<defs>
  <clipPath id="clip291">
    <rect x="480" y="0" width="1681" height="1600"/>
  </clipPath>
</defs>
<path clip-path="url(#clip290)" d="
M172.015 1486.45 L2352.76 1486.45 L2352.76 123.472 L172.015 123.472  Z
  " fill="#ffffff" fill-rule="evenodd" fill-opacity="1"/>
<defs>
  <clipPath id="clip292">
    <rect x="172" y="123" width="2182" height="1364"/>
  </clipPath>
</defs>
<polyline clip-path="url(#clip292)" style="stroke:#000000; stroke-linecap:butt; stroke-linejoin:round; stroke-width:2; stroke-opacity:0.1; fill:none" points="
  233.734,1486.45 233.734,123.472 
  "/>
<polyline clip-path="url(#clip292)" style="stroke:#000000; stroke-linecap:butt; stroke-linejoin:round; stroke-width:2; stroke-opacity:0.1; fill:none" points="
  576.618,1486.45 576.618,123.472 
  "/>
<polyline clip-path="url(#clip292)" style="stroke:#000000; stroke-linecap:butt; stroke-linejoin:round; stroke-width:2; stroke-opacity:0.1; fill:none" points="
  919.502,1486.45 919.502,123.472 
  "/>
<polyline clip-path="url(#clip292)" style="stroke:#000000; stroke-linecap:butt; stroke-linejoin:round; stroke-width:2; stroke-opacity:0.1; fill:none" points="
  1262.39,1486.45 1262.39,123.472 
  "/>
<polyline clip-path="url(#clip292)" style="stroke:#000000; stroke-linecap:butt; stroke-linejoin:round; stroke-width:2; stroke-opacity:0.1; fill:none" points="
  1605.27,1486.45 1605.27,123.472 
  "/>
<polyline clip-path="url(#clip292)" style="stroke:#000000; stroke-linecap:butt; stroke-linejoin:round; stroke-width:2; stroke-opacity:0.1; fill:none" points="
  1948.15,1486.45 1948.15,123.472 
  "/>
<polyline clip-path="url(#clip292)" style="stroke:#000000; stroke-linecap:butt; stroke-linejoin:round; stroke-width:2; stroke-opacity:0.1; fill:none" points="
  2291.04,1486.45 2291.04,123.472 
  "/>
<polyline clip-path="url(#clip290)" style="stroke:#000000; stroke-linecap:butt; stroke-linejoin:round; stroke-width:4; stroke-opacity:1; fill:none" points="
  172.015,1486.45 2352.76,1486.45 
  "/>
<polyline clip-path="url(#clip290)" style="stroke:#000000; stroke-linecap:butt; stroke-linejoin:round; stroke-width:4; stroke-opacity:1; fill:none" points="
  233.734,1486.45 233.734,1467.55 
  "/>
<polyline clip-path="url(#clip290)" style="stroke:#000000; stroke-linecap:butt; stroke-linejoin:round; stroke-width:4; stroke-opacity:1; fill:none" points="
  576.618,1486.45 576.618,1467.55 
  "/>
<polyline clip-path="url(#clip290)" style="stroke:#000000; stroke-linecap:butt; stroke-linejoin:round; stroke-width:4; stroke-opacity:1; fill:none" points="
  919.502,1486.45 919.502,1467.55 
  "/>
<polyline clip-path="url(#clip290)" style="stroke:#000000; stroke-linecap:butt; stroke-linejoin:round; stroke-width:4; stroke-opacity:1; fill:none" points="
  1262.39,1486.45 1262.39,1467.55 
  "/>
<polyline clip-path="url(#clip290)" style="stroke:#000000; stroke-linecap:butt; stroke-linejoin:round; stroke-width:4; stroke-opacity:1; fill:none" points="
  1605.27,1486.45 1605.27,1467.55 
  "/>
<polyline clip-path="url(#clip290)" style="stroke:#000000; stroke-linecap:butt; stroke-linejoin:round; stroke-width:4; stroke-opacity:1; fill:none" points="
  1948.15,1486.45 1948.15,1467.55 
  "/>
<polyline clip-path="url(#clip290)" style="stroke:#000000; stroke-linecap:butt; stroke-linejoin:round; stroke-width:4; stroke-opacity:1; fill:none" points="
  2291.04,1486.45 2291.04,1467.55 
  "/>
<path clip-path="url(#clip290)" d="M203.676 1532.02 L233.352 1532.02 L233.352 1535.95 L203.676 1535.95 L203.676 1532.02 Z" fill="#000000" fill-rule="evenodd" fill-opacity="1" /><path clip-path="url(#clip290)" d="M247.472 1544.91 L263.792 1544.91 L263.792 1548.85 L241.847 1548.85 L241.847 1544.91 Q244.509 1542.16 249.093 1537.53 Q253.699 1532.88 254.88 1531.53 Q257.125 1529.01 258.005 1527.27 Q258.907 1525.51 258.907 1523.82 Q258.907 1521.07 256.963 1519.33 Q255.042 1517.6 251.94 1517.6 Q249.741 1517.6 247.287 1518.36 Q244.857 1519.13 242.079 1520.68 L242.079 1515.95 Q244.903 1514.82 247.357 1514.24 Q249.81 1513.66 251.847 1513.66 Q257.218 1513.66 260.412 1516.35 Q263.606 1519.03 263.606 1523.52 Q263.606 1525.65 262.796 1527.57 Q262.009 1529.47 259.903 1532.07 Q259.324 1532.74 256.222 1535.95 Q253.12 1539.15 247.472 1544.91 Z" fill="#000000" fill-rule="evenodd" fill-opacity="1" /><path clip-path="url(#clip290)" d="M546.375 1532.02 L576.051 1532.02 L576.051 1535.95 L546.375 1535.95 L546.375 1532.02 Z" fill="#000000" fill-rule="evenodd" fill-opacity="1" /><path clip-path="url(#clip290)" d="M586.953 1544.91 L594.592 1544.91 L594.592 1518.55 L586.282 1520.21 L586.282 1515.95 L594.546 1514.29 L599.222 1514.29 L599.222 1544.91 L606.861 1544.91 L606.861 1548.85 L586.953 1548.85 L586.953 1544.91 Z" fill="#000000" fill-rule="evenodd" fill-opacity="1" /><path clip-path="url(#clip290)" d="M919.502 1517.37 Q915.89 1517.37 914.062 1520.93 Q912.256 1524.47 912.256 1531.6 Q912.256 1538.71 914.062 1542.27 Q915.89 1545.82 919.502 1545.82 Q923.136 1545.82 924.941 1542.27 Q926.77 1538.71 926.77 1531.6 Q926.77 1524.47 924.941 1520.93 Q923.136 1517.37 919.502 1517.37 M919.502 1513.66 Q925.312 1513.66 928.367 1518.27 Q931.446 1522.85 931.446 1531.6 Q931.446 1540.33 928.367 1544.94 Q925.312 1549.52 919.502 1549.52 Q913.691 1549.52 910.613 1544.94 Q907.557 1540.33 907.557 1531.6 Q907.557 1522.85 910.613 1518.27 Q913.691 1513.66 919.502 1513.66 Z" fill="#000000" fill-rule="evenodd" fill-opacity="1" /><path clip-path="url(#clip290)" d="M1252.77 1544.91 L1260.41 1544.91 L1260.41 1518.55 L1252.1 1520.21 L1252.1 1515.95 L1260.36 1514.29 L1265.04 1514.29 L1265.04 1544.91 L1272.67 1544.91 L1272.67 1548.85 L1252.77 1548.85 L1252.77 1544.91 Z" fill="#000000" fill-rule="evenodd" fill-opacity="1" /><path clip-path="url(#clip290)" d="M1599.92 1544.91 L1616.24 1544.91 L1616.24 1548.85 L1594.3 1548.85 L1594.3 1544.91 Q1596.96 1542.16 1601.54 1537.53 Q1606.15 1532.88 1607.33 1531.53 Q1609.57 1529.01 1610.45 1527.27 Q1611.36 1525.51 1611.36 1523.82 Q1611.36 1521.07 1609.41 1519.33 Q1607.49 1517.6 1604.39 1517.6 Q1602.19 1517.6 1599.74 1518.36 Q1597.31 1519.13 1594.53 1520.68 L1594.53 1515.95 Q1597.35 1514.82 1599.81 1514.24 Q1602.26 1513.66 1604.3 1513.66 Q1609.67 1513.66 1612.86 1516.35 Q1616.06 1519.03 1616.06 1523.52 Q1616.06 1525.65 1615.25 1527.57 Q1614.46 1529.47 1612.35 1532.07 Q1611.77 1532.74 1608.67 1535.95 Q1605.57 1539.15 1599.92 1544.91 Z" fill="#000000" fill-rule="evenodd" fill-opacity="1" /><path clip-path="url(#clip290)" d="M1952.4 1530.21 Q1955.76 1530.93 1957.63 1533.2 Q1959.53 1535.47 1959.53 1538.8 Q1959.53 1543.92 1956.01 1546.72 Q1952.49 1549.52 1946.01 1549.52 Q1943.84 1549.52 1941.52 1549.08 Q1939.23 1548.66 1936.78 1547.81 L1936.78 1543.29 Q1938.72 1544.43 1941.03 1545.01 Q1943.35 1545.58 1945.87 1545.58 Q1950.27 1545.58 1952.56 1543.85 Q1954.88 1542.11 1954.88 1538.8 Q1954.88 1535.75 1952.72 1534.03 Q1950.6 1532.3 1946.78 1532.3 L1942.75 1532.3 L1942.75 1528.45 L1946.96 1528.45 Q1950.41 1528.45 1952.24 1527.09 Q1954.07 1525.7 1954.07 1523.11 Q1954.07 1520.45 1952.17 1519.03 Q1950.29 1517.6 1946.78 1517.6 Q1944.85 1517.6 1942.66 1518.01 Q1940.46 1518.43 1937.82 1519.31 L1937.82 1515.14 Q1940.48 1514.4 1942.79 1514.03 Q1945.13 1513.66 1947.19 1513.66 Q1952.52 1513.66 1955.62 1516.09 Q1958.72 1518.5 1958.72 1522.62 Q1958.72 1525.49 1957.08 1527.48 Q1955.43 1529.45 1952.4 1530.21 Z" fill="#000000" fill-rule="evenodd" fill-opacity="1" /><path clip-path="url(#clip290)" d="M2294.05 1518.36 L2282.24 1536.81 L2294.05 1536.81 L2294.05 1518.36 M2292.82 1514.29 L2298.7 1514.29 L2298.7 1536.81 L2303.63 1536.81 L2303.63 1540.7 L2298.7 1540.7 L2298.7 1548.85 L2294.05 1548.85 L2294.05 1540.7 L2278.44 1540.7 L2278.44 1536.19 L2292.82 1514.29 Z" fill="#000000" fill-rule="evenodd" fill-opacity="1" /><polyline clip-path="url(#clip292)" style="stroke:#000000; stroke-linecap:butt; stroke-linejoin:round; stroke-width:2; stroke-opacity:0.1; fill:none" points="
  172.015,1447.87 2352.76,1447.87 
  "/>
<polyline clip-path="url(#clip292)" style="stroke:#000000; stroke-linecap:butt; stroke-linejoin:round; stroke-width:2; stroke-opacity:0.1; fill:none" points="
  172.015,1122.35 2352.76,1122.35 
  "/>
<polyline clip-path="url(#clip292)" style="stroke:#000000; stroke-linecap:butt; stroke-linejoin:round; stroke-width:2; stroke-opacity:0.1; fill:none" points="
  172.015,796.822 2352.76,796.822 
  "/>
<polyline clip-path="url(#clip292)" style="stroke:#000000; stroke-linecap:butt; stroke-linejoin:round; stroke-width:2; stroke-opacity:0.1; fill:none" points="
  172.015,471.296 2352.76,471.296 
  "/>
<polyline clip-path="url(#clip292)" style="stroke:#000000; stroke-linecap:butt; stroke-linejoin:round; stroke-width:2; stroke-opacity:0.1; fill:none" points="
  172.015,145.771 2352.76,145.771 
  "/>
<polyline clip-path="url(#clip290)" style="stroke:#000000; stroke-linecap:butt; stroke-linejoin:round; stroke-width:4; stroke-opacity:1; fill:none" points="
  172.015,1486.45 172.015,123.472 
  "/>
<polyline clip-path="url(#clip290)" style="stroke:#000000; stroke-linecap:butt; stroke-linejoin:round; stroke-width:4; stroke-opacity:1; fill:none" points="
  172.015,1447.87 190.912,1447.87 
  "/>
<polyline clip-path="url(#clip290)" style="stroke:#000000; stroke-linecap:butt; stroke-linejoin:round; stroke-width:4; stroke-opacity:1; fill:none" points="
  172.015,1122.35 190.912,1122.35 
  "/>
<polyline clip-path="url(#clip290)" style="stroke:#000000; stroke-linecap:butt; stroke-linejoin:round; stroke-width:4; stroke-opacity:1; fill:none" points="
  172.015,796.822 190.912,796.822 
  "/>
<polyline clip-path="url(#clip290)" style="stroke:#000000; stroke-linecap:butt; stroke-linejoin:round; stroke-width:4; stroke-opacity:1; fill:none" points="
  172.015,471.296 190.912,471.296 
  "/>
<polyline clip-path="url(#clip290)" style="stroke:#000000; stroke-linecap:butt; stroke-linejoin:round; stroke-width:4; stroke-opacity:1; fill:none" points="
  172.015,145.771 190.912,145.771 
  "/>
<path clip-path="url(#clip290)" d="M124.07 1433.67 Q120.459 1433.67 118.631 1437.24 Q116.825 1440.78 116.825 1447.91 Q116.825 1455.01 118.631 1458.58 Q120.459 1462.12 124.07 1462.12 Q127.705 1462.12 129.51 1458.58 Q131.339 1455.01 131.339 1447.91 Q131.339 1440.78 129.51 1437.24 Q127.705 1433.67 124.07 1433.67 M124.07 1429.97 Q129.881 1429.97 132.936 1434.57 Q136.015 1439.16 136.015 1447.91 Q136.015 1456.63 132.936 1461.24 Q129.881 1465.82 124.07 1465.82 Q118.26 1465.82 115.182 1461.24 Q112.126 1456.63 112.126 1447.91 Q112.126 1439.16 115.182 1434.57 Q118.26 1429.97 124.07 1429.97 Z" fill="#000000" fill-rule="evenodd" fill-opacity="1" /><path clip-path="url(#clip290)" d="M57.7745 1135.69 L74.0939 1135.69 L74.0939 1139.63 L52.1495 1139.63 L52.1495 1135.69 Q54.8115 1132.94 59.3949 1128.31 Q64.0013 1123.66 65.1819 1122.31 Q67.4272 1119.79 68.3068 1118.05 Q69.2096 1116.29 69.2096 1114.6 Q69.2096 1111.85 67.2652 1110.11 Q65.3439 1108.38 62.2421 1108.38 Q60.043 1108.38 57.5893 1109.14 Q55.1588 1109.91 52.381 1111.46 L52.381 1106.73 Q55.2051 1105.6 57.6588 1105.02 Q60.1124 1104.44 62.1495 1104.44 Q67.5198 1104.44 70.7142 1107.13 Q73.9087 1109.81 73.9087 1114.3 Q73.9087 1116.43 73.0985 1118.35 Q72.3115 1120.25 70.205 1122.85 Q69.6263 1123.52 66.5245 1126.73 Q63.4226 1129.93 57.7745 1135.69 Z" fill="#000000" fill-rule="evenodd" fill-opacity="1" /><path clip-path="url(#clip290)" d="M93.9086 1108.15 Q90.2975 1108.15 88.4688 1111.71 Q86.6632 1115.25 86.6632 1122.38 Q86.6632 1129.49 88.4688 1133.05 Q90.2975 1136.6 93.9086 1136.6 Q97.5428 1136.6 99.3483 1133.05 Q101.177 1129.49 101.177 1122.38 Q101.177 1115.25 99.3483 1111.71 Q97.5428 1108.15 93.9086 1108.15 M93.9086 1104.44 Q99.7187 1104.44 102.774 1109.05 Q105.853 1113.63 105.853 1122.38 Q105.853 1131.11 102.774 1135.72 Q99.7187 1140.3 93.9086 1140.3 Q88.0984 1140.3 85.0197 1135.72 Q81.9642 1131.11 81.9642 1122.38 Q81.9642 1113.63 85.0197 1109.05 Q88.0984 1104.44 93.9086 1104.44 Z" fill="#000000" fill-rule="evenodd" fill-opacity="1" /><path clip-path="url(#clip290)" d="M124.07 1108.15 Q120.459 1108.15 118.631 1111.71 Q116.825 1115.25 116.825 1122.38 Q116.825 1129.49 118.631 1133.05 Q120.459 1136.6 124.07 1136.6 Q127.705 1136.6 129.51 1133.05 Q131.339 1129.49 131.339 1122.38 Q131.339 1115.25 129.51 1111.71 Q127.705 1108.15 124.07 1108.15 M124.07 1104.44 Q129.881 1104.44 132.936 1109.05 Q136.015 1113.63 136.015 1122.38 Q136.015 1131.11 132.936 1135.72 Q129.881 1140.3 124.07 1140.3 Q118.26 1140.3 115.182 1135.72 Q112.126 1131.11 112.126 1122.38 Q112.126 1113.63 115.182 1109.05 Q118.26 1104.44 124.07 1104.44 Z" fill="#000000" fill-rule="evenodd" fill-opacity="1" /><path clip-path="url(#clip290)" d="M66.5939 783.616 L54.7884 802.065 L66.5939 802.065 L66.5939 783.616 M65.367 779.542 L71.2466 779.542 L71.2466 802.065 L76.1772 802.065 L76.1772 805.954 L71.2466 805.954 L71.2466 814.102 L66.5939 814.102 L66.5939 805.954 L50.9921 805.954 L50.9921 801.44 L65.367 779.542 Z" fill="#000000" fill-rule="evenodd" fill-opacity="1" /><path clip-path="url(#clip290)" d="M93.9086 782.621 Q90.2975 782.621 88.4688 786.185 Q86.6632 789.727 86.6632 796.857 Q86.6632 803.963 88.4688 807.528 Q90.2975 811.069 93.9086 811.069 Q97.5428 811.069 99.3483 807.528 Q101.177 803.963 101.177 796.857 Q101.177 789.727 99.3483 786.185 Q97.5428 782.621 93.9086 782.621 M93.9086 778.917 Q99.7187 778.917 102.774 783.523 Q105.853 788.107 105.853 796.857 Q105.853 805.583 102.774 810.19 Q99.7187 814.773 93.9086 814.773 Q88.0984 814.773 85.0197 810.19 Q81.9642 805.583 81.9642 796.857 Q81.9642 788.107 85.0197 783.523 Q88.0984 778.917 93.9086 778.917 Z" fill="#000000" fill-rule="evenodd" fill-opacity="1" /><path clip-path="url(#clip290)" d="M124.07 782.621 Q120.459 782.621 118.631 786.185 Q116.825 789.727 116.825 796.857 Q116.825 803.963 118.631 807.528 Q120.459 811.069 124.07 811.069 Q127.705 811.069 129.51 807.528 Q131.339 803.963 131.339 796.857 Q131.339 789.727 129.51 786.185 Q127.705 782.621 124.07 782.621 M124.07 778.917 Q129.881 778.917 132.936 783.523 Q136.015 788.107 136.015 796.857 Q136.015 805.583 132.936 810.19 Q129.881 814.773 124.07 814.773 Q118.26 814.773 115.182 810.19 Q112.126 805.583 112.126 796.857 Q112.126 788.107 115.182 783.523 Q118.26 778.917 124.07 778.917 Z" fill="#000000" fill-rule="evenodd" fill-opacity="1" /><path clip-path="url(#clip290)" d="M64.3254 469.433 Q61.1773 469.433 59.3254 471.586 Q57.4967 473.738 57.4967 477.488 Q57.4967 481.215 59.3254 483.391 Q61.1773 485.544 64.3254 485.544 Q67.4735 485.544 69.3022 483.391 Q71.1541 481.215 71.1541 477.488 Q71.1541 473.738 69.3022 471.586 Q67.4735 469.433 64.3254 469.433 M73.6077 454.78 L73.6077 459.039 Q71.8485 458.206 70.0429 457.766 Q68.2606 457.326 66.5013 457.326 Q61.8717 457.326 59.418 460.451 Q56.9875 463.576 56.6402 469.896 Q58.006 467.882 60.0662 466.817 Q62.1263 465.729 64.6032 465.729 Q69.8115 465.729 72.8207 468.9 Q75.8531 472.049 75.8531 477.488 Q75.8531 482.812 72.705 486.03 Q69.5568 489.248 64.3254 489.248 Q58.33 489.248 55.1588 484.664 Q51.9875 480.058 51.9875 471.331 Q51.9875 463.137 55.8764 458.275 Q59.7652 453.391 66.3161 453.391 Q68.0754 453.391 69.8578 453.738 Q71.6633 454.086 73.6077 454.78 Z" fill="#000000" fill-rule="evenodd" fill-opacity="1" /><path clip-path="url(#clip290)" d="M93.9086 457.095 Q90.2975 457.095 88.4688 460.66 Q86.6632 464.201 86.6632 471.331 Q86.6632 478.437 88.4688 482.002 Q90.2975 485.544 93.9086 485.544 Q97.5428 485.544 99.3483 482.002 Q101.177 478.437 101.177 471.331 Q101.177 464.201 99.3483 460.66 Q97.5428 457.095 93.9086 457.095 M93.9086 453.391 Q99.7187 453.391 102.774 457.998 Q105.853 462.581 105.853 471.331 Q105.853 480.058 102.774 484.664 Q99.7187 489.248 93.9086 489.248 Q88.0984 489.248 85.0197 484.664 Q81.9642 480.058 81.9642 471.331 Q81.9642 462.581 85.0197 457.998 Q88.0984 453.391 93.9086 453.391 Z" fill="#000000" fill-rule="evenodd" fill-opacity="1" /><path clip-path="url(#clip290)" d="M124.07 457.095 Q120.459 457.095 118.631 460.66 Q116.825 464.201 116.825 471.331 Q116.825 478.437 118.631 482.002 Q120.459 485.544 124.07 485.544 Q127.705 485.544 129.51 482.002 Q131.339 478.437 131.339 471.331 Q131.339 464.201 129.51 460.66 Q127.705 457.095 124.07 457.095 M124.07 453.391 Q129.881 453.391 132.936 457.998 Q136.015 462.581 136.015 471.331 Q136.015 480.058 132.936 484.664 Q129.881 489.248 124.07 489.248 Q118.26 489.248 115.182 484.664 Q112.126 480.058 112.126 471.331 Q112.126 462.581 115.182 457.998 Q118.26 453.391 124.07 453.391 Z" fill="#000000" fill-rule="evenodd" fill-opacity="1" /><path clip-path="url(#clip290)" d="M63.7467 146.639 Q60.4134 146.639 58.4921 148.421 Q56.5939 150.203 56.5939 153.328 Q56.5939 156.453 58.4921 158.236 Q60.4134 160.018 63.7467 160.018 Q67.08 160.018 69.0013 158.236 Q70.9226 156.43 70.9226 153.328 Q70.9226 150.203 69.0013 148.421 Q67.1032 146.639 63.7467 146.639 M59.0708 144.648 Q56.0615 143.907 54.3717 141.847 Q52.7051 139.787 52.7051 136.824 Q52.7051 132.68 55.6449 130.273 Q58.6078 127.866 63.7467 127.866 Q68.9087 127.866 71.8485 130.273 Q74.7883 132.68 74.7883 136.824 Q74.7883 139.787 73.0985 141.847 Q71.4318 143.907 68.4457 144.648 Q71.8253 145.435 73.7003 147.727 Q75.5985 150.018 75.5985 153.328 Q75.5985 158.352 72.5198 161.037 Q69.4642 163.722 63.7467 163.722 Q58.0291 163.722 54.9504 161.037 Q51.8949 158.352 51.8949 153.328 Q51.8949 150.018 53.793 147.727 Q55.6912 145.435 59.0708 144.648 M57.3578 137.264 Q57.3578 139.949 59.0245 141.454 Q60.7143 142.958 63.7467 142.958 Q66.7559 142.958 68.4457 141.454 Q70.1587 139.949 70.1587 137.264 Q70.1587 134.579 68.4457 133.074 Q66.7559 131.569 63.7467 131.569 Q60.7143 131.569 59.0245 133.074 Q57.3578 134.579 57.3578 137.264 Z" fill="#000000" fill-rule="evenodd" fill-opacity="1" /><path clip-path="url(#clip290)" d="M93.9086 131.569 Q90.2975 131.569 88.4688 135.134 Q86.6632 138.676 86.6632 145.805 Q86.6632 152.912 88.4688 156.477 Q90.2975 160.018 93.9086 160.018 Q97.5428 160.018 99.3483 156.477 Q101.177 152.912 101.177 145.805 Q101.177 138.676 99.3483 135.134 Q97.5428 131.569 93.9086 131.569 M93.9086 127.866 Q99.7187 127.866 102.774 132.472 Q105.853 137.055 105.853 145.805 Q105.853 154.532 102.774 159.139 Q99.7187 163.722 93.9086 163.722 Q88.0984 163.722 85.0197 159.139 Q81.9642 154.532 81.9642 145.805 Q81.9642 137.055 85.0197 132.472 Q88.0984 127.866 93.9086 127.866 Z" fill="#000000" fill-rule="evenodd" fill-opacity="1" /><path clip-path="url(#clip290)" d="M124.07 131.569 Q120.459 131.569 118.631 135.134 Q116.825 138.676 116.825 145.805 Q116.825 152.912 118.631 156.477 Q120.459 160.018 124.07 160.018 Q127.705 160.018 129.51 156.477 Q131.339 152.912 131.339 145.805 Q131.339 138.676 129.51 135.134 Q127.705 131.569 124.07 131.569 M124.07 127.866 Q129.881 127.866 132.936 132.472 Q136.015 137.055 136.015 145.805 Q136.015 154.532 132.936 159.139 Q129.881 163.722 124.07 163.722 Q118.26 163.722 115.182 159.139 Q112.126 154.532 112.126 145.805 Q112.126 137.055 115.182 132.472 Q118.26 127.866 124.07 127.866 Z" fill="#000000" fill-rule="evenodd" fill-opacity="1" /><path clip-path="url(#clip290)" d="M1179.36 18.8205 L1179.36 65.8515 L1189.25 65.8515 Q1201.76 65.8515 1207.56 60.1802 Q1213.39 54.509 1213.39 42.2752 Q1213.39 30.1225 1207.56 24.4918 Q1201.76 18.8205 1189.25 18.8205 L1179.36 18.8205 M1171.18 12.096 L1187.99 12.096 Q1205.57 12.096 1213.79 19.4281 Q1222.02 26.7198 1222.02 42.2752 Q1222.02 57.9117 1213.75 65.2439 Q1205.49 72.576 1187.99 72.576 L1171.18 72.576 L1171.18 12.096 Z" fill="#000000" fill-rule="evenodd" fill-opacity="1" /><path clip-path="url(#clip290)" d="M1255.36 49.7694 Q1246.32 49.7694 1242.84 51.8354 Q1239.36 53.9013 1239.36 58.8839 Q1239.36 62.8538 1241.95 65.2034 Q1244.58 67.5124 1249.08 67.5124 Q1255.28 67.5124 1259 63.1374 Q1262.77 58.7219 1262.77 51.4303 L1262.77 49.7694 L1255.36 49.7694 M1270.22 46.6907 L1270.22 72.576 L1262.77 72.576 L1262.77 65.6895 Q1260.22 69.8214 1256.41 71.8063 Q1252.6 73.7508 1247.09 73.7508 Q1240.13 73.7508 1235.99 69.8619 Q1231.9 65.9325 1231.9 59.3701 Q1231.9 51.7138 1237.01 47.825 Q1242.15 43.9361 1252.32 43.9361 L1262.77 43.9361 L1262.77 43.2069 Q1262.77 38.0623 1259.37 35.2672 Q1256.01 32.4315 1249.89 32.4315 Q1246 32.4315 1242.31 33.3632 Q1238.63 34.295 1235.22 36.1584 L1235.22 29.2718 Q1239.32 27.692 1243.16 26.9223 Q1247.01 26.1121 1250.66 26.1121 Q1260.5 26.1121 1265.36 31.2163 Q1270.22 36.3204 1270.22 46.6907 Z" fill="#000000" fill-rule="evenodd" fill-opacity="1" /><path clip-path="url(#clip290)" d="M1292.95 14.324 L1292.95 27.2059 L1308.3 27.2059 L1308.3 32.9987 L1292.95 32.9987 L1292.95 57.6282 Q1292.95 63.1779 1294.45 64.7578 Q1295.99 66.3376 1300.65 66.3376 L1308.3 66.3376 L1308.3 72.576 L1300.65 72.576 Q1292.02 72.576 1288.74 69.3758 Q1285.46 66.1351 1285.46 57.6282 L1285.46 32.9987 L1279.99 32.9987 L1279.99 27.2059 L1285.46 27.2059 L1285.46 14.324 L1292.95 14.324 Z" fill="#000000" fill-rule="evenodd" fill-opacity="1" /><path clip-path="url(#clip290)" d="M1338.72 49.7694 Q1329.69 49.7694 1326.21 51.8354 Q1322.72 53.9013 1322.72 58.8839 Q1322.72 62.8538 1325.32 65.2034 Q1327.95 67.5124 1332.45 67.5124 Q1338.64 67.5124 1342.37 63.1374 Q1346.14 58.7219 1346.14 51.4303 L1346.14 49.7694 L1338.72 49.7694 M1353.59 46.6907 L1353.59 72.576 L1346.14 72.576 L1346.14 65.6895 Q1343.59 69.8214 1339.78 71.8063 Q1335.97 73.7508 1330.46 73.7508 Q1323.49 73.7508 1319.36 69.8619 Q1315.27 65.9325 1315.27 59.3701 Q1315.27 51.7138 1320.37 47.825 Q1325.52 43.9361 1335.69 43.9361 L1346.14 43.9361 L1346.14 43.2069 Q1346.14 38.0623 1342.74 35.2672 Q1339.37 32.4315 1333.26 32.4315 Q1329.37 32.4315 1325.68 33.3632 Q1321.99 34.295 1318.59 36.1584 L1318.59 29.2718 Q1322.68 27.692 1326.53 26.9223 Q1330.38 26.1121 1334.03 26.1121 Q1343.87 26.1121 1348.73 31.2163 Q1353.59 36.3204 1353.59 46.6907 Z" fill="#000000" fill-rule="evenodd" fill-opacity="1" /><polyline clip-path="url(#clip292)" style="stroke:#009af9; stroke-linecap:butt; stroke-linejoin:round; stroke-width:4; stroke-opacity:1; fill:none" points="
  233.734,1447.87 233.734,1350.22 268.022,1350.22 268.022,1268.83 302.311,1268.83 302.311,1317.66 336.599,1317.66 336.599,1138.62 370.887,1138.62 370.887,1057.24 
  405.176,1057.24 405.176,894.48 439.464,894.48 439.464,861.927 473.753,861.927 473.753,813.098 508.041,813.098 508.041,796.822 542.329,796.822 542.329,731.717 
  576.618,731.717 576.618,959.585 610.906,959.585 645.194,959.585 645.194,682.888 679.483,682.888 679.483,1073.52 713.771,1073.52 713.771,1154.9 
  748.06,1154.9 748.06,1122.35 782.348,1122.35 782.348,1252.56 816.636,1252.56 816.636,1268.83 850.925,1268.83 850.925,1333.94 885.213,1333.94 885.213,1301.39 
  919.502,1301.39 953.79,1301.39 953.79,1350.22 988.078,1350.22 988.078,1447.87 1022.37,1447.87 1022.37,1415.32 1056.66,1415.32 1056.66,1447.87 
  1090.94,1447.87 1090.94,1431.6 1125.23,1431.6 1125.23,1415.32 1159.52,1415.32 1159.52,1366.49 1193.81,1366.49 1193.81,1252.56 1228.1,1252.56 1228.1,1220.01 
  1262.39,1220.01 1262.39,1154.9 1296.67,1154.9 1296.67,1138.62 1330.96,1138.62 1330.96,1057.24 1365.25,1057.24 1365.25,682.888 1399.54,682.888 1399.54,617.783 
  1433.83,617.783 1433.83,682.888 1468.12,682.888 1468.12,308.533 1502.4,308.533 1502.4,373.639 1536.69,373.639 1536.69,292.257 1570.98,292.257 1570.98,162.047 
  1605.27,162.047 1605.27,455.02 1639.56,455.02 1639.56,194.599 1673.85,194.599 1673.85,341.086 1708.13,341.086 1708.13,503.849 1742.42,503.849 1742.42,568.954 
  1776.71,568.954 1776.71,796.822 1811,796.822 1845.29,796.822 1845.29,1171.18 1879.58,1171.18 1879.58,1057.24 1913.86,1057.24 1913.86,1268.83 
  1948.15,1268.83 1948.15,1317.66 1982.44,1317.66 1982.44,1350.22 2016.73,1350.22 2016.73,1317.66 2051.02,1317.66 2051.02,1431.6 2085.31,1431.6 2085.31,1447.87 
  2119.59,1447.87 2153.88,1447.87 2188.17,1447.87 2222.46,1447.87 2222.46,1431.6 2256.75,1431.6 2256.75,1447.87 
  2291.04,1447.87 
  "/>
<path clip-path="url(#clip290)" d="
M1933.52 272.585 L2280.06 272.585 L2280.06 168.905 L1933.52 168.905  Z
  " fill="#ffffff" fill-rule="evenodd" fill-opacity="1"/>
<polyline clip-path="url(#clip290)" style="stroke:#000000; stroke-linecap:butt; stroke-linejoin:round; stroke-width:4; stroke-opacity:1; fill:none" points="
  1933.52,272.585 2280.06,272.585 2280.06,168.905 1933.52,168.905 1933.52,272.585 
  "/>
<polyline clip-path="url(#clip290)" style="stroke:#009af9; stroke-linecap:butt; stroke-linejoin:round; stroke-width:4; stroke-opacity:1; fill:none" points="
  1957.75,220.745 2103.14,220.745 
  "/>
<path clip-path="url(#clip290)" d="M2132.04 207.307 L2132.04 234.182 L2137.69 234.182 Q2144.84 234.182 2148.15 230.941 Q2151.49 227.701 2151.49 220.71 Q2151.49 213.766 2148.15 210.548 Q2144.84 207.307 2137.69 207.307 L2132.04 207.307 M2127.37 203.465 L2136.97 203.465 Q2147.02 203.465 2151.72 207.654 Q2156.42 211.821 2156.42 220.71 Q2156.42 229.645 2151.7 233.835 Q2146.97 238.025 2136.97 238.025 L2127.37 238.025 L2127.37 203.465 Z" fill="#000000" fill-rule="evenodd" fill-opacity="1" /><path clip-path="url(#clip290)" d="M2175.47 224.992 Q2170.31 224.992 2168.32 226.173 Q2166.33 227.353 2166.33 230.201 Q2166.33 232.469 2167.81 233.812 Q2169.31 235.131 2171.88 235.131 Q2175.42 235.131 2177.55 232.631 Q2179.71 230.108 2179.71 225.941 L2179.71 224.992 L2175.47 224.992 M2183.96 223.233 L2183.96 238.025 L2179.71 238.025 L2179.71 234.089 Q2178.25 236.451 2176.07 237.585 Q2173.9 238.696 2170.75 238.696 Q2166.77 238.696 2164.4 236.474 Q2162.07 234.228 2162.07 230.478 Q2162.07 226.103 2164.98 223.881 Q2167.92 221.659 2173.73 221.659 L2179.71 221.659 L2179.71 221.242 Q2179.71 218.303 2177.76 216.705 Q2175.84 215.085 2172.34 215.085 Q2170.12 215.085 2168.02 215.617 Q2165.91 216.15 2163.97 217.215 L2163.97 213.279 Q2166.3 212.377 2168.5 211.937 Q2170.7 211.474 2172.78 211.474 Q2178.41 211.474 2181.19 214.391 Q2183.96 217.307 2183.96 223.233 Z" fill="#000000" fill-rule="evenodd" fill-opacity="1" /><path clip-path="url(#clip290)" d="M2196.95 204.738 L2196.95 212.099 L2205.72 212.099 L2205.72 215.409 L2196.95 215.409 L2196.95 229.483 Q2196.95 232.654 2197.81 233.557 Q2198.69 234.46 2201.35 234.46 L2205.72 234.46 L2205.72 238.025 L2201.35 238.025 Q2196.42 238.025 2194.54 236.196 Q2192.67 234.344 2192.67 229.483 L2192.67 215.409 L2189.54 215.409 L2189.54 212.099 L2192.67 212.099 L2192.67 204.738 L2196.95 204.738 Z" fill="#000000" fill-rule="evenodd" fill-opacity="1" /><path clip-path="url(#clip290)" d="M2223.11 224.992 Q2217.95 224.992 2215.96 226.173 Q2213.96 227.353 2213.96 230.201 Q2213.96 232.469 2215.45 233.812 Q2216.95 235.131 2219.52 235.131 Q2223.06 235.131 2225.19 232.631 Q2227.34 230.108 2227.34 225.941 L2227.34 224.992 L2223.11 224.992 M2231.6 223.233 L2231.6 238.025 L2227.34 238.025 L2227.34 234.089 Q2225.89 236.451 2223.71 237.585 Q2221.53 238.696 2218.39 238.696 Q2214.4 238.696 2212.04 236.474 Q2209.71 234.228 2209.71 230.478 Q2209.71 226.103 2212.62 223.881 Q2215.56 221.659 2221.37 221.659 L2227.34 221.659 L2227.34 221.242 Q2227.34 218.303 2225.4 216.705 Q2223.48 215.085 2219.98 215.085 Q2217.76 215.085 2215.65 215.617 Q2213.55 216.15 2211.6 217.215 L2211.6 213.279 Q2213.94 212.377 2216.14 211.937 Q2218.34 211.474 2220.42 211.474 Q2226.05 211.474 2228.83 214.391 Q2231.6 217.307 2231.6 223.233 Z" fill="#000000" fill-rule="evenodd" fill-opacity="1" /></svg>
