<?xml version="1.0" encoding="utf-8"?>
<svg xmlns="http://www.w3.org/2000/svg" xmlns:xlink="http://www.w3.org/1999/xlink" width="600" height="400" viewBox="0 0 2400 1600">
<defs>
  <clipPath id="clip040">
    <rect x="0" y="0" width="2400" height="1600"/>
  </clipPath>
</defs>
<path clip-path="url(#clip040)" d="
M0 1600 L2400 1600 L2400 0 L0 0  Z
  " fill="#ffffff" fill-rule="evenodd" fill-opacity="1"/>
<defs>
  <clipPath id="clip041">
    <rect x="480" y="0" width="1681" height="1600"/>
  </clipPath>
</defs>
<path clip-path="url(#clip040)" d="
M172.015 1486.45 L2352.76 1486.45 L2352.76 123.472 L172.015 123.472  Z
  " fill="#ffffff" fill-rule="evenodd" fill-opacity="1"/>
<defs>
  <clipPath id="clip042">
    <rect x="172" y="123" width="2182" height="1364"/>
  </clipPath>
</defs>
<polyline clip-path="url(#clip042)" style="stroke:#000000; stroke-width:2; stroke-opacity:0.1; fill:none" points="
  233.734,1486.45 233.734,123.472 
  "/>
<polyline clip-path="url(#clip042)" style="stroke:#000000; stroke-width:2; stroke-opacity:0.1; fill:none" points="
  748.06,1486.45 748.06,123.472 
  "/>
<polyline clip-path="url(#clip042)" style="stroke:#000000; stroke-width:2; stroke-opacity:0.1; fill:none" points="
  1262.39,1486.45 1262.39,123.472 
  "/>
<polyline clip-path="url(#clip042)" style="stroke:#000000; stroke-width:2; stroke-opacity:0.1; fill:none" points="
  1776.71,1486.45 1776.71,123.472 
  "/>
<polyline clip-path="url(#clip042)" style="stroke:#000000; stroke-width:2; stroke-opacity:0.1; fill:none" points="
  2291.04,1486.45 2291.04,123.472 
  "/>
<polyline clip-path="url(#clip040)" style="stroke:#000000; stroke-width:4; stroke-opacity:1; fill:none" points="
  172.015,1486.45 2352.76,1486.45 
  "/>
<polyline clip-path="url(#clip040)" style="stroke:#000000; stroke-width:4; stroke-opacity:1; fill:none" points="
  233.734,1486.45 233.734,1470.09 
  "/>
<polyline clip-path="url(#clip040)" style="stroke:#000000; stroke-width:4; stroke-opacity:1; fill:none" points="
  748.06,1486.45 748.06,1470.09 
  "/>
<polyline clip-path="url(#clip040)" style="stroke:#000000; stroke-width:4; stroke-opacity:1; fill:none" points="
  1262.39,1486.45 1262.39,1470.09 
  "/>
<polyline clip-path="url(#clip040)" style="stroke:#000000; stroke-width:4; stroke-opacity:1; fill:none" points="
  1776.71,1486.45 1776.71,1470.09 
  "/>
<polyline clip-path="url(#clip040)" style="stroke:#000000; stroke-width:4; stroke-opacity:1; fill:none" points="
  2291.04,1486.45 2291.04,1470.09 
  "/>
<path clip-path="url(#clip040)" d="M 0 0 M202.635 1530.29 L232.31 1530.29 L232.31 1534.23 L202.635 1534.23 L202.635 1530.29 Z" fill="#000000" fill-rule="evenodd" fill-opacity="1" /><path clip-path="url(#clip040)" d="M 0 0 M255.25 1516.63 L243.445 1535.08 L255.25 1535.08 L255.25 1516.63 M254.023 1512.56 L259.903 1512.56 L259.903 1535.08 L264.833 1535.08 L264.833 1538.97 L259.903 1538.97 L259.903 1547.12 L255.25 1547.12 L255.25 1538.97 L239.648 1538.97 L239.648 1534.46 L254.023 1512.56 Z" fill="#000000" fill-rule="evenodd" fill-opacity="1" /><path clip-path="url(#clip040)" d="M 0 0 M718.002 1530.29 L747.678 1530.29 L747.678 1534.23 L718.002 1534.23 L718.002 1530.29 Z" fill="#000000" fill-rule="evenodd" fill-opacity="1" /><path clip-path="url(#clip040)" d="M 0 0 M761.798 1543.18 L778.117 1543.18 L778.117 1547.12 L756.173 1547.12 L756.173 1543.18 Q758.835 1540.43 763.418 1535.8 Q768.025 1531.15 769.205 1529.81 Q771.451 1527.28 772.33 1525.55 Q773.233 1523.79 773.233 1522.1 Q773.233 1519.34 771.289 1517.61 Q769.367 1515.87 766.266 1515.87 Q764.066 1515.87 761.613 1516.63 Q759.182 1517.4 756.404 1518.95 L756.404 1514.23 Q759.229 1513.09 761.682 1512.51 Q764.136 1511.93 766.173 1511.93 Q771.543 1511.93 774.738 1514.62 Q777.932 1517.31 777.932 1521.8 Q777.932 1523.93 777.122 1525.85 Q776.335 1527.74 774.228 1530.34 Q773.65 1531.01 770.548 1534.23 Q767.446 1537.42 761.798 1543.18 Z" fill="#000000" fill-rule="evenodd" fill-opacity="1" /><path clip-path="url(#clip040)" d="M 0 0 M1262.39 1515.64 Q1258.77 1515.64 1256.95 1519.2 Q1255.14 1522.75 1255.14 1529.87 Q1255.14 1536.98 1256.95 1540.55 Q1258.77 1544.09 1262.39 1544.09 Q1266.02 1544.09 1267.83 1540.55 Q1269.65 1536.98 1269.65 1529.87 Q1269.65 1522.75 1267.83 1519.2 Q1266.02 1515.64 1262.39 1515.64 M1262.39 1511.93 Q1268.2 1511.93 1271.25 1516.54 Q1274.33 1521.12 1274.33 1529.87 Q1274.33 1538.6 1271.25 1543.21 Q1268.2 1547.79 1262.39 1547.79 Q1256.58 1547.79 1253.5 1543.21 Q1250.44 1538.6 1250.44 1529.87 Q1250.44 1521.12 1253.5 1516.54 Q1256.58 1511.93 1262.39 1511.93 Z" fill="#000000" fill-rule="evenodd" fill-opacity="1" /><path clip-path="url(#clip040)" d="M 0 0 M1771.36 1543.18 L1787.68 1543.18 L1787.68 1547.12 L1765.74 1547.12 L1765.74 1543.18 Q1768.4 1540.43 1772.98 1535.8 Q1777.59 1531.15 1778.77 1529.81 Q1781.02 1527.28 1781.9 1525.55 Q1782.8 1523.79 1782.8 1522.1 Q1782.8 1519.34 1780.85 1517.61 Q1778.93 1515.87 1775.83 1515.87 Q1773.63 1515.87 1771.18 1516.63 Q1768.75 1517.4 1765.97 1518.95 L1765.97 1514.23 Q1768.79 1513.09 1771.25 1512.51 Q1773.7 1511.93 1775.74 1511.93 Q1781.11 1511.93 1784.3 1514.62 Q1787.5 1517.31 1787.5 1521.8 Q1787.5 1523.93 1786.69 1525.85 Q1785.9 1527.74 1783.79 1530.34 Q1783.22 1531.01 1780.11 1534.23 Q1777.01 1537.42 1771.36 1543.18 Z" fill="#000000" fill-rule="evenodd" fill-opacity="1" /><path clip-path="url(#clip040)" d="M 0 0 M2294.05 1516.63 L2282.24 1535.08 L2294.05 1535.08 L2294.05 1516.63 M2292.82 1512.56 L2298.7 1512.56 L2298.7 1535.08 L2303.63 1535.08 L2303.63 1538.97 L2298.7 1538.97 L2298.7 1547.12 L2294.05 1547.12 L2294.05 1538.97 L2278.44 1538.97 L2278.44 1534.46 L2292.82 1512.56 Z" fill="#000000" fill-rule="evenodd" fill-opacity="1" /><polyline clip-path="url(#clip042)" style="stroke:#000000; stroke-width:2; stroke-opacity:0.1; fill:none" points="
  172.015,1447.87 2352.76,1447.87 
  "/>
<polyline clip-path="url(#clip042)" style="stroke:#000000; stroke-width:2; stroke-opacity:0.1; fill:none" points="
  172.015,1158.92 2352.76,1158.92 
  "/>
<polyline clip-path="url(#clip042)" style="stroke:#000000; stroke-width:2; stroke-opacity:0.1; fill:none" points="
  172.015,869.974 2352.76,869.974 
  "/>
<polyline clip-path="url(#clip042)" style="stroke:#000000; stroke-width:2; stroke-opacity:0.1; fill:none" points="
  172.015,581.024 2352.76,581.024 
  "/>
<polyline clip-path="url(#clip042)" style="stroke:#000000; stroke-width:2; stroke-opacity:0.1; fill:none" points="
  172.015,292.074 2352.76,292.074 
  "/>
<polyline clip-path="url(#clip040)" style="stroke:#000000; stroke-width:4; stroke-opacity:1; fill:none" points="
  172.015,1486.45 172.015,123.472 
  "/>
<polyline clip-path="url(#clip040)" style="stroke:#000000; stroke-width:4; stroke-opacity:1; fill:none" points="
  172.015,1447.87 198.184,1447.87 
  "/>
<polyline clip-path="url(#clip040)" style="stroke:#000000; stroke-width:4; stroke-opacity:1; fill:none" points="
  172.015,1158.92 198.184,1158.92 
  "/>
<polyline clip-path="url(#clip040)" style="stroke:#000000; stroke-width:4; stroke-opacity:1; fill:none" points="
  172.015,869.974 198.184,869.974 
  "/>
<polyline clip-path="url(#clip040)" style="stroke:#000000; stroke-width:4; stroke-opacity:1; fill:none" points="
  172.015,581.024 198.184,581.024 
  "/>
<polyline clip-path="url(#clip040)" style="stroke:#000000; stroke-width:4; stroke-opacity:1; fill:none" points="
  172.015,292.074 198.184,292.074 
  "/>
<path clip-path="url(#clip040)" d="M 0 0 M124.07 1433.67 Q120.459 1433.67 118.631 1437.24 Q116.825 1440.78 116.825 1447.91 Q116.825 1455.01 118.631 1458.58 Q120.459 1462.12 124.07 1462.12 Q127.705 1462.12 129.51 1458.58 Q131.339 1455.01 131.339 1447.91 Q131.339 1440.78 129.51 1437.24 Q127.705 1433.67 124.07 1433.67 M124.07 1429.97 Q129.881 1429.97 132.936 1434.57 Q136.015 1439.16 136.015 1447.91 Q136.015 1456.63 132.936 1461.24 Q129.881 1465.82 124.07 1465.82 Q118.26 1465.82 115.182 1461.24 Q112.126 1456.63 112.126 1447.91 Q112.126 1439.16 115.182 1434.57 Q118.26 1429.97 124.07 1429.97 Z" fill="#000000" fill-rule="evenodd" fill-opacity="1" /><path clip-path="url(#clip040)" d="M 0 0 M57.7745 1172.27 L74.0939 1172.27 L74.0939 1176.2 L52.1495 1176.2 L52.1495 1172.27 Q54.8115 1169.51 59.3949 1164.88 Q64.0013 1160.23 65.1819 1158.89 Q67.4272 1156.37 68.3068 1154.63 Q69.2096 1152.87 69.2096 1151.18 Q69.2096 1148.43 67.2652 1146.69 Q65.3439 1144.95 62.2421 1144.95 Q60.043 1144.95 57.5893 1145.72 Q55.1588 1146.48 52.381 1148.03 L52.381 1143.31 Q55.2051 1142.18 57.6588 1141.6 Q60.1124 1141.02 62.1495 1141.02 Q67.5198 1141.02 70.7142 1143.7 Q73.9087 1146.39 73.9087 1150.88 Q73.9087 1153.01 73.0985 1154.93 Q72.3115 1156.83 70.205 1159.42 Q69.6263 1160.09 66.5245 1163.31 Q63.4226 1166.5 57.7745 1172.27 Z" fill="#000000" fill-rule="evenodd" fill-opacity="1" /><path clip-path="url(#clip040)" d="M 0 0 M93.9086 1144.72 Q90.2975 1144.72 88.4688 1148.29 Q86.6632 1151.83 86.6632 1158.96 Q86.6632 1166.06 88.4688 1169.63 Q90.2975 1173.17 93.9086 1173.17 Q97.5428 1173.17 99.3483 1169.63 Q101.177 1166.06 101.177 1158.96 Q101.177 1151.83 99.3483 1148.29 Q97.5428 1144.72 93.9086 1144.72 M93.9086 1141.02 Q99.7187 1141.02 102.774 1145.62 Q105.853 1150.21 105.853 1158.96 Q105.853 1167.68 102.774 1172.29 Q99.7187 1176.87 93.9086 1176.87 Q88.0984 1176.87 85.0197 1172.29 Q81.9642 1167.68 81.9642 1158.96 Q81.9642 1150.21 85.0197 1145.62 Q88.0984 1141.02 93.9086 1141.02 Z" fill="#000000" fill-rule="evenodd" fill-opacity="1" /><path clip-path="url(#clip040)" d="M 0 0 M124.07 1144.72 Q120.459 1144.72 118.631 1148.29 Q116.825 1151.83 116.825 1158.96 Q116.825 1166.06 118.631 1169.63 Q120.459 1173.17 124.07 1173.17 Q127.705 1173.17 129.51 1169.63 Q131.339 1166.06 131.339 1158.96 Q131.339 1151.83 129.51 1148.29 Q127.705 1144.72 124.07 1144.72 M124.07 1141.02 Q129.881 1141.02 132.936 1145.62 Q136.015 1150.21 136.015 1158.96 Q136.015 1167.68 132.936 1172.29 Q129.881 1176.87 124.07 1176.87 Q118.26 1176.87 115.182 1172.29 Q112.126 1167.68 112.126 1158.96 Q112.126 1150.21 115.182 1145.62 Q118.26 1141.02 124.07 1141.02 Z" fill="#000000" fill-rule="evenodd" fill-opacity="1" /><path clip-path="url(#clip040)" d="M 0 0 M66.5939 856.768 L54.7884 875.217 L66.5939 875.217 L66.5939 856.768 M65.367 852.694 L71.2466 852.694 L71.2466 875.217 L76.1772 875.217 L76.1772 879.106 L71.2466 879.106 L71.2466 887.254 L66.5939 887.254 L66.5939 879.106 L50.9921 879.106 L50.9921 874.592 L65.367 852.694 Z" fill="#000000" fill-rule="evenodd" fill-opacity="1" /><path clip-path="url(#clip040)" d="M 0 0 M93.9086 855.772 Q90.2975 855.772 88.4688 859.337 Q86.6632 862.879 86.6632 870.008 Q86.6632 877.115 88.4688 880.68 Q90.2975 884.221 93.9086 884.221 Q97.5428 884.221 99.3483 880.68 Q101.177 877.115 101.177 870.008 Q101.177 862.879 99.3483 859.337 Q97.5428 855.772 93.9086 855.772 M93.9086 852.069 Q99.7187 852.069 102.774 856.675 Q105.853 861.258 105.853 870.008 Q105.853 878.735 102.774 883.342 Q99.7187 887.925 93.9086 887.925 Q88.0984 887.925 85.0197 883.342 Q81.9642 878.735 81.9642 870.008 Q81.9642 861.258 85.0197 856.675 Q88.0984 852.069 93.9086 852.069 Z" fill="#000000" fill-rule="evenodd" fill-opacity="1" /><path clip-path="url(#clip040)" d="M 0 0 M124.07 855.772 Q120.459 855.772 118.631 859.337 Q116.825 862.879 116.825 870.008 Q116.825 877.115 118.631 880.68 Q120.459 884.221 124.07 884.221 Q127.705 884.221 129.51 880.68 Q131.339 877.115 131.339 870.008 Q131.339 862.879 129.51 859.337 Q127.705 855.772 124.07 855.772 M124.07 852.069 Q129.881 852.069 132.936 856.675 Q136.015 861.258 136.015 870.008 Q136.015 878.735 132.936 883.342 Q129.881 887.925 124.07 887.925 Q118.26 887.925 115.182 883.342 Q112.126 878.735 112.126 870.008 Q112.126 861.258 115.182 856.675 Q118.26 852.069 124.07 852.069 Z" fill="#000000" fill-rule="evenodd" fill-opacity="1" /><path clip-path="url(#clip040)" d="M 0 0 M64.3254 579.161 Q61.1773 579.161 59.3254 581.313 Q57.4967 583.466 57.4967 587.216 Q57.4967 590.943 59.3254 593.119 Q61.1773 595.272 64.3254 595.272 Q67.4735 595.272 69.3022 593.119 Q71.1541 590.943 71.1541 587.216 Q71.1541 583.466 69.3022 581.313 Q67.4735 579.161 64.3254 579.161 M73.6077 564.508 L73.6077 568.767 Q71.8485 567.934 70.0429 567.494 Q68.2606 567.054 66.5013 567.054 Q61.8717 567.054 59.418 570.179 Q56.9875 573.304 56.6402 579.624 Q58.006 577.61 60.0662 576.545 Q62.1263 575.457 64.6032 575.457 Q69.8115 575.457 72.8207 578.628 Q75.8531 581.776 75.8531 587.216 Q75.8531 592.54 72.705 595.758 Q69.5568 598.975 64.3254 598.975 Q58.33 598.975 55.1588 594.392 Q51.9875 589.786 51.9875 581.059 Q51.9875 572.864 55.8764 568.003 Q59.7652 563.119 66.3161 563.119 Q68.0754 563.119 69.8578 563.466 Q71.6633 563.813 73.6077 564.508 Z" fill="#000000" fill-rule="evenodd" fill-opacity="1" /><path clip-path="url(#clip040)" d="M 0 0 M93.9086 566.823 Q90.2975 566.823 88.4688 570.387 Q86.6632 573.929 86.6632 581.059 Q86.6632 588.165 88.4688 591.73 Q90.2975 595.272 93.9086 595.272 Q97.5428 595.272 99.3483 591.73 Q101.177 588.165 101.177 581.059 Q101.177 573.929 99.3483 570.387 Q97.5428 566.823 93.9086 566.823 M93.9086 563.119 Q99.7187 563.119 102.774 567.725 Q105.853 572.309 105.853 581.059 Q105.853 589.786 102.774 594.392 Q99.7187 598.975 93.9086 598.975 Q88.0984 598.975 85.0197 594.392 Q81.9642 589.786 81.9642 581.059 Q81.9642 572.309 85.0197 567.725 Q88.0984 563.119 93.9086 563.119 Z" fill="#000000" fill-rule="evenodd" fill-opacity="1" /><path clip-path="url(#clip040)" d="M 0 0 M124.07 566.823 Q120.459 566.823 118.631 570.387 Q116.825 573.929 116.825 581.059 Q116.825 588.165 118.631 591.73 Q120.459 595.272 124.07 595.272 Q127.705 595.272 129.51 591.73 Q131.339 588.165 131.339 581.059 Q131.339 573.929 129.51 570.387 Q127.705 566.823 124.07 566.823 M124.07 563.119 Q129.881 563.119 132.936 567.725 Q136.015 572.309 136.015 581.059 Q136.015 589.786 132.936 594.392 Q129.881 598.975 124.07 598.975 Q118.26 598.975 115.182 594.392 Q112.126 589.786 112.126 581.059 Q112.126 572.309 115.182 567.725 Q118.26 563.119 124.07 563.119 Z" fill="#000000" fill-rule="evenodd" fill-opacity="1" /><path clip-path="url(#clip040)" d="M 0 0 M63.7467 292.942 Q60.4134 292.942 58.4921 294.725 Q56.5939 296.507 56.5939 299.632 Q56.5939 302.757 58.4921 304.539 Q60.4134 306.322 63.7467 306.322 Q67.08 306.322 69.0013 304.539 Q70.9226 302.734 70.9226 299.632 Q70.9226 296.507 69.0013 294.725 Q67.1032 292.942 63.7467 292.942 M59.0708 290.952 Q56.0615 290.211 54.3717 288.151 Q52.7051 286.091 52.7051 283.128 Q52.7051 278.984 55.6449 276.577 Q58.6078 274.169 63.7467 274.169 Q68.9087 274.169 71.8485 276.577 Q74.7883 278.984 74.7883 283.128 Q74.7883 286.091 73.0985 288.151 Q71.4318 290.211 68.4457 290.952 Q71.8253 291.739 73.7003 294.03 Q75.5985 296.322 75.5985 299.632 Q75.5985 304.655 72.5198 307.34 Q69.4642 310.026 63.7467 310.026 Q58.0291 310.026 54.9504 307.34 Q51.8949 304.655 51.8949 299.632 Q51.8949 296.322 53.793 294.03 Q55.6912 291.739 59.0708 290.952 M57.3578 283.567 Q57.3578 286.253 59.0245 287.757 Q60.7143 289.262 63.7467 289.262 Q66.7559 289.262 68.4457 287.757 Q70.1587 286.253 70.1587 283.567 Q70.1587 280.882 68.4457 279.378 Q66.7559 277.873 63.7467 277.873 Q60.7143 277.873 59.0245 279.378 Q57.3578 280.882 57.3578 283.567 Z" fill="#000000" fill-rule="evenodd" fill-opacity="1" /><path clip-path="url(#clip040)" d="M 0 0 M93.9086 277.873 Q90.2975 277.873 88.4688 281.438 Q86.6632 284.979 86.6632 292.109 Q86.6632 299.215 88.4688 302.78 Q90.2975 306.322 93.9086 306.322 Q97.5428 306.322 99.3483 302.78 Q101.177 299.215 101.177 292.109 Q101.177 284.979 99.3483 281.438 Q97.5428 277.873 93.9086 277.873 M93.9086 274.169 Q99.7187 274.169 102.774 278.776 Q105.853 283.359 105.853 292.109 Q105.853 300.836 102.774 305.442 Q99.7187 310.026 93.9086 310.026 Q88.0984 310.026 85.0197 305.442 Q81.9642 300.836 81.9642 292.109 Q81.9642 283.359 85.0197 278.776 Q88.0984 274.169 93.9086 274.169 Z" fill="#000000" fill-rule="evenodd" fill-opacity="1" /><path clip-path="url(#clip040)" d="M 0 0 M124.07 277.873 Q120.459 277.873 118.631 281.438 Q116.825 284.979 116.825 292.109 Q116.825 299.215 118.631 302.78 Q120.459 306.322 124.07 306.322 Q127.705 306.322 129.51 302.78 Q131.339 299.215 131.339 292.109 Q131.339 284.979 129.51 281.438 Q127.705 277.873 124.07 277.873 M124.07 274.169 Q129.881 274.169 132.936 278.776 Q136.015 283.359 136.015 292.109 Q136.015 300.836 132.936 305.442 Q129.881 310.026 124.07 310.026 Q118.26 310.026 115.182 305.442 Q112.126 300.836 112.126 292.109 Q112.126 283.359 115.182 278.776 Q118.26 274.169 124.07 274.169 Z" fill="#000000" fill-rule="evenodd" fill-opacity="1" /><path clip-path="url(#clip040)" d="M 0 0 M631.092 18.8205 L631.092 65.8515 L640.977 65.8515 Q653.494 65.8515 659.287 60.1802 Q665.12 54.509 665.12 42.2752 Q665.12 30.1225 659.287 24.4918 Q653.494 18.8205 640.977 18.8205 L631.092 18.8205 M622.91 12.096 L639.721 12.096 Q657.302 12.096 665.525 19.4281 Q673.748 26.7198 673.748 42.2752 Q673.748 57.9117 665.485 65.2439 Q657.221 72.576 639.721 72.576 L622.91 72.576 L622.91 12.096 Z" fill="#000000" fill-rule="evenodd" fill-opacity="1" /><path clip-path="url(#clip040)" d="M 0 0 M707.087 49.7694 Q698.054 49.7694 694.57 51.8354 Q691.086 53.9013 691.086 58.8839 Q691.086 62.8538 693.679 65.2034 Q696.312 67.5124 700.809 67.5124 Q707.006 67.5124 710.733 63.1374 Q714.501 58.7219 714.501 51.4303 L714.501 49.7694 L707.087 49.7694 M721.954 46.6907 L721.954 72.576 L714.501 72.576 L714.501 65.6895 Q711.948 69.8214 708.141 71.8063 Q704.333 73.7508 698.824 73.7508 Q691.856 73.7508 687.724 69.8619 Q683.633 65.9325 683.633 59.3701 Q683.633 51.7138 688.737 47.825 Q693.881 43.9361 704.049 43.9361 L714.501 43.9361 L714.501 43.2069 Q714.501 38.0623 711.098 35.2672 Q707.736 32.4315 701.619 32.4315 Q697.73 32.4315 694.044 33.3632 Q690.357 34.295 686.954 36.1584 L686.954 29.2718 Q691.046 27.692 694.894 26.9223 Q698.743 26.1121 702.388 26.1121 Q712.232 26.1121 717.093 31.2163 Q721.954 36.3204 721.954 46.6907 Z" fill="#000000" fill-rule="evenodd" fill-opacity="1" /><path clip-path="url(#clip040)" d="M 0 0 M744.68 14.324 L744.68 27.2059 L760.033 27.2059 L760.033 32.9987 L744.68 32.9987 L744.68 57.6282 Q744.68 63.1779 746.179 64.7578 Q747.718 66.3376 752.377 66.3376 L760.033 66.3376 L760.033 72.576 L752.377 72.576 Q743.748 72.576 740.467 69.3758 Q737.186 66.1351 737.186 57.6282 L737.186 32.9987 L731.717 32.9987 L731.717 27.2059 L737.186 27.2059 L737.186 14.324 L744.68 14.324 Z" fill="#000000" fill-rule="evenodd" fill-opacity="1" /><path clip-path="url(#clip040)" d="M 0 0 M790.455 49.7694 Q781.422 49.7694 777.938 51.8354 Q774.454 53.9013 774.454 58.8839 Q774.454 62.8538 777.047 65.2034 Q779.68 67.5124 784.176 67.5124 Q790.374 67.5124 794.101 63.1374 Q797.868 58.7219 797.868 51.4303 L797.868 49.7694 L790.455 49.7694 M805.322 46.6907 L805.322 72.576 L797.868 72.576 L797.868 65.6895 Q795.316 69.8214 791.508 71.8063 Q787.7 73.7508 782.191 73.7508 Q775.224 73.7508 771.092 69.8619 Q767 65.9325 767 59.3701 Q767 51.7138 772.104 47.825 Q777.249 43.9361 787.417 43.9361 L797.868 43.9361 L797.868 43.2069 Q797.868 38.0623 794.465 35.2672 Q791.103 32.4315 784.986 32.4315 Q781.097 32.4315 777.411 33.3632 Q773.725 34.295 770.322 36.1584 L770.322 29.2718 Q774.413 27.692 778.262 26.9223 Q782.11 26.1121 785.756 26.1121 Q795.6 26.1121 800.461 31.2163 Q805.322 36.3204 805.322 46.6907 Z" fill="#000000" fill-rule="evenodd" fill-opacity="1" /><path clip-path="url(#clip040)" d="M 0 0 M867.665 49.7694 Q858.632 49.7694 855.148 51.8354 Q851.664 53.9013 851.664 58.8839 Q851.664 62.8538 854.257 65.2034 Q856.89 67.5124 861.386 67.5124 Q867.584 67.5124 871.311 63.1374 Q875.078 58.7219 875.078 51.4303 L875.078 49.7694 L867.665 49.7694 M882.532 46.6907 L882.532 72.576 L875.078 72.576 L875.078 65.6895 Q872.526 69.8214 868.718 71.8063 Q864.911 73.7508 859.401 73.7508 Q852.434 73.7508 848.302 69.8619 Q844.211 65.9325 844.211 59.3701 Q844.211 51.7138 849.315 47.825 Q854.459 43.9361 864.627 43.9361 L875.078 43.9361 L875.078 43.2069 Q875.078 38.0623 871.676 35.2672 Q868.313 32.4315 862.197 32.4315 Q858.308 32.4315 854.621 33.3632 Q850.935 34.295 847.532 36.1584 L847.532 29.2718 Q851.624 27.692 855.472 26.9223 Q859.32 26.1121 862.966 26.1121 Q872.81 26.1121 877.671 31.2163 Q882.532 36.3204 882.532 46.6907 Z" fill="#000000" fill-rule="evenodd" fill-opacity="1" /><path clip-path="url(#clip040)" d="M 0 0 M935.599 45.1919 L935.599 72.576 L928.145 72.576 L928.145 45.4349 Q928.145 38.994 925.634 35.7938 Q923.122 32.5936 918.099 32.5936 Q912.063 32.5936 908.579 36.4419 Q905.096 40.2903 905.096 46.9338 L905.096 72.576 L897.601 72.576 L897.601 27.2059 L905.096 27.2059 L905.096 34.2544 Q907.769 30.163 911.375 28.1376 Q915.02 26.1121 919.76 26.1121 Q927.578 26.1121 931.589 30.9732 Q935.599 35.7938 935.599 45.1919 Z" fill="#000000" fill-rule="evenodd" fill-opacity="1" /><path clip-path="url(#clip040)" d="M 0 0 M980.321 34.0924 L980.321 9.54393 L987.775 9.54393 L987.775 72.576 L980.321 72.576 L980.321 65.7705 Q977.971 69.8214 974.366 71.8063 Q970.801 73.7508 965.778 73.7508 Q957.555 73.7508 952.37 67.1883 Q947.225 60.6258 947.225 49.9314 Q947.225 39.2371 952.37 32.6746 Q957.555 26.1121 965.778 26.1121 Q970.801 26.1121 974.366 28.0971 Q977.971 30.0415 980.321 34.0924 M954.922 49.9314 Q954.922 58.1548 958.284 62.8538 Q961.687 67.5124 967.601 67.5124 Q973.515 67.5124 976.918 62.8538 Q980.321 58.1548 980.321 49.9314 Q980.321 41.7081 976.918 37.0496 Q973.515 32.3505 967.601 32.3505 Q961.687 32.3505 958.284 37.0496 Q954.922 41.7081 954.922 49.9314 Z" fill="#000000" fill-rule="evenodd" fill-opacity="1" /><path clip-path="url(#clip040)" d="M 0 0 M1021.44 12.096 L1072.6 12.096 L1072.6 18.9825 L1051.13 18.9825 L1051.13 72.576 L1042.91 72.576 L1042.91 18.9825 L1021.44 18.9825 L1021.44 12.096 Z" fill="#000000" fill-rule="evenodd" fill-opacity="1" /><path clip-path="url(#clip040)" d="M 0 0 M1094.27 34.1734 Q1093.02 33.4443 1091.52 33.1202 Q1090.06 32.7556 1088.28 32.7556 Q1081.96 32.7556 1078.56 36.8875 Q1075.19 40.9789 1075.19 48.6757 L1075.19 72.576 L1067.7 72.576 L1067.7 27.2059 L1075.19 27.2059 L1075.19 34.2544 Q1077.54 30.1225 1081.31 28.1376 Q1085.08 26.1121 1090.46 26.1121 Q1091.23 26.1121 1092.17 26.2337 Q1093.1 26.3147 1094.23 26.5172 L1094.27 34.1734 Z" fill="#000000" fill-rule="evenodd" fill-opacity="1" /><path clip-path="url(#clip040)" d="M 0 0 M1101.32 54.671 L1101.32 27.2059 L1108.78 27.2059 L1108.78 54.3874 Q1108.78 60.8284 1111.29 64.0691 Q1113.8 67.2693 1118.82 67.2693 Q1124.86 67.2693 1128.34 63.421 Q1131.87 59.5726 1131.87 52.9291 L1131.87 27.2059 L1139.32 27.2059 L1139.32 72.576 L1131.87 72.576 L1131.87 65.6084 Q1129.15 69.7404 1125.55 71.7658 Q1121.98 73.7508 1117.24 73.7508 Q1109.42 73.7508 1105.37 68.8897 Q1101.32 64.0286 1101.32 54.671 M1120.08 26.1121 L1120.08 26.1121 Z" fill="#000000" fill-rule="evenodd" fill-opacity="1" /><path clip-path="url(#clip040)" d="M 0 0 M1193.48 48.0275 L1193.48 51.6733 L1159.21 51.6733 Q1159.69 59.3701 1163.83 63.421 Q1168 67.4314 1175.41 67.4314 Q1179.71 67.4314 1183.72 66.3781 Q1187.77 65.3249 1191.74 63.2184 L1191.74 70.267 Q1187.73 71.9684 1183.51 72.8596 Q1179.3 73.7508 1174.97 73.7508 Q1164.11 73.7508 1157.75 67.4314 Q1151.43 61.1119 1151.43 50.3365 Q1151.43 39.1965 1157.43 32.6746 Q1163.46 26.1121 1173.67 26.1121 Q1182.83 26.1121 1188.13 32.0264 Q1193.48 37.9003 1193.48 48.0275 M1186.03 45.84 Q1185.94 39.7232 1182.58 36.0774 Q1179.26 32.4315 1173.75 32.4315 Q1167.51 32.4315 1163.75 35.9558 Q1160.02 39.4801 1159.45 45.8805 L1186.03 45.84 Z" fill="#000000" fill-rule="evenodd" fill-opacity="1" /><path clip-path="url(#clip040)" d="M 0 0 M1268.66 14.0809 L1268.66 22.0612 Q1264.01 19.8332 1259.87 18.7395 Q1255.74 17.6457 1251.89 17.6457 Q1245.21 17.6457 1241.56 20.2383 Q1237.96 22.8309 1237.96 27.611 Q1237.96 31.6214 1240.35 33.6873 Q1242.78 35.7128 1249.5 36.9686 L1254.45 37.9813 Q1263.6 39.7232 1267.94 44.1387 Q1272.31 48.5136 1272.31 55.8863 Q1272.31 64.6767 1266.4 69.2137 Q1260.52 73.7508 1249.14 73.7508 Q1244.84 73.7508 1239.98 72.7785 Q1235.16 71.8063 1229.98 69.9024 L1229.98 61.4765 Q1234.96 64.2716 1239.74 65.6895 Q1244.52 67.1073 1249.14 67.1073 Q1256.15 67.1073 1259.95 64.3527 Q1263.76 61.598 1263.76 56.4939 Q1263.76 52.0379 1261.01 49.5264 Q1258.29 47.0148 1252.06 45.759 L1247.07 44.7868 Q1237.92 42.9639 1233.83 39.075 Q1229.74 35.1862 1229.74 28.2591 Q1229.74 20.2383 1235.37 15.6203 Q1241.04 11.0023 1250.96 11.0023 Q1255.22 11.0023 1259.63 11.7719 Q1264.05 12.5416 1268.66 14.0809 Z" fill="#000000" fill-rule="evenodd" fill-opacity="1" /><path clip-path="url(#clip040)" d="M 0 0 M1292.12 14.324 L1292.12 27.2059 L1307.47 27.2059 L1307.47 32.9987 L1292.12 32.9987 L1292.12 57.6282 Q1292.12 63.1779 1293.62 64.7578 Q1295.16 66.3376 1299.82 66.3376 L1307.47 66.3376 L1307.47 72.576 L1299.82 72.576 Q1291.19 72.576 1287.91 69.3758 Q1284.62 66.1351 1284.62 57.6282 L1284.62 32.9987 L1279.16 32.9987 L1279.16 27.2059 L1284.62 27.2059 L1284.62 14.324 L1292.12 14.324 Z" fill="#000000" fill-rule="evenodd" fill-opacity="1" /><path clip-path="url(#clip040)" d="M 0 0 M1337.89 49.7694 Q1328.86 49.7694 1325.38 51.8354 Q1321.89 53.9013 1321.89 58.8839 Q1321.89 62.8538 1324.49 65.2034 Q1327.12 67.5124 1331.62 67.5124 Q1337.81 67.5124 1341.54 63.1374 Q1345.31 58.7219 1345.31 51.4303 L1345.31 49.7694 L1337.89 49.7694 M1352.76 46.6907 L1352.76 72.576 L1345.31 72.576 L1345.31 65.6895 Q1342.76 69.8214 1338.95 71.8063 Q1335.14 73.7508 1329.63 73.7508 Q1322.66 73.7508 1318.53 69.8619 Q1314.44 65.9325 1314.44 59.3701 Q1314.44 51.7138 1319.54 47.825 Q1324.69 43.9361 1334.86 43.9361 L1345.31 43.9361 L1345.31 43.2069 Q1345.31 38.0623 1341.9 35.2672 Q1338.54 32.4315 1332.43 32.4315 Q1328.54 32.4315 1324.85 33.3632 Q1321.16 34.295 1317.76 36.1584 L1317.76 29.2718 Q1321.85 27.692 1325.7 26.9223 Q1329.55 26.1121 1333.2 26.1121 Q1343.04 26.1121 1347.9 31.2163 Q1352.76 36.3204 1352.76 46.6907 Z" fill="#000000" fill-rule="evenodd" fill-opacity="1" /><path clip-path="url(#clip040)" d="M 0 0 M1375.49 14.324 L1375.49 27.2059 L1390.84 27.2059 L1390.84 32.9987 L1375.49 32.9987 L1375.49 57.6282 Q1375.49 63.1779 1376.99 64.7578 Q1378.52 66.3376 1383.18 66.3376 L1390.84 66.3376 L1390.84 72.576 L1383.18 72.576 Q1374.55 72.576 1371.27 69.3758 Q1367.99 66.1351 1367.99 57.6282 L1367.99 32.9987 L1362.52 32.9987 L1362.52 27.2059 L1367.99 27.2059 L1367.99 14.324 L1375.49 14.324 Z" fill="#000000" fill-rule="evenodd" fill-opacity="1" /><path clip-path="url(#clip040)" d="M 0 0 M1400.64 27.2059 L1408.1 27.2059 L1408.1 72.576 L1400.64 72.576 L1400.64 27.2059 M1400.64 9.54393 L1408.1 9.54393 L1408.1 18.9825 L1400.64 18.9825 L1400.64 9.54393 Z" fill="#000000" fill-rule="evenodd" fill-opacity="1" /><path clip-path="url(#clip040)" d="M 0 0 M1452.62 28.5427 L1452.62 35.5912 Q1449.46 33.9709 1446.05 33.1607 Q1442.65 32.3505 1439 32.3505 Q1433.46 32.3505 1430.66 34.0519 Q1427.91 35.7533 1427.91 39.156 Q1427.91 41.7486 1429.89 43.2475 Q1431.88 44.7058 1437.87 46.0426 L1440.42 46.6097 Q1448.36 48.3111 1451.68 51.4303 Q1455.05 54.509 1455.05 60.0587 Q1455.05 66.3781 1450.02 70.0644 Q1445.04 73.7508 1436.29 73.7508 Q1432.64 73.7508 1428.67 73.0216 Q1424.75 72.3329 1420.37 70.9151 L1420.37 63.2184 Q1424.5 65.3654 1428.51 66.4591 Q1432.52 67.5124 1436.45 67.5124 Q1441.72 67.5124 1444.55 65.73 Q1447.39 63.9071 1447.39 60.6258 Q1447.39 57.5877 1445.32 55.9673 Q1443.3 54.3469 1436.37 52.8481 L1433.78 52.2405 Q1426.85 50.7821 1423.77 47.7845 Q1420.69 44.7463 1420.69 39.4801 Q1420.69 33.0797 1425.23 29.5959 Q1429.77 26.1121 1438.11 26.1121 Q1442.25 26.1121 1445.89 26.7198 Q1449.54 27.3274 1452.62 28.5427 Z" fill="#000000" fill-rule="evenodd" fill-opacity="1" /><path clip-path="url(#clip040)" d="M 0 0 M1474.29 14.324 L1474.29 27.2059 L1489.64 27.2059 L1489.64 32.9987 L1474.29 32.9987 L1474.29 57.6282 Q1474.29 63.1779 1475.79 64.7578 Q1477.33 66.3376 1481.98 66.3376 L1489.64 66.3376 L1489.64 72.576 L1481.98 72.576 Q1473.36 72.576 1470.08 69.3758 Q1466.79 66.1351 1466.79 57.6282 L1466.79 32.9987 L1461.33 32.9987 L1461.33 27.2059 L1466.79 27.2059 L1466.79 14.324 L1474.29 14.324 Z" fill="#000000" fill-rule="evenodd" fill-opacity="1" /><path clip-path="url(#clip040)" d="M 0 0 M1499.44 27.2059 L1506.9 27.2059 L1506.9 72.576 L1499.44 72.576 L1499.44 27.2059 M1499.44 9.54393 L1506.9 9.54393 L1506.9 18.9825 L1499.44 18.9825 L1499.44 9.54393 Z" fill="#000000" fill-rule="evenodd" fill-opacity="1" /><path clip-path="url(#clip040)" d="M 0 0 M1555.14 28.9478 L1555.14 35.9153 Q1551.98 34.1734 1548.78 33.3227 Q1545.62 32.4315 1542.38 32.4315 Q1535.13 32.4315 1531.12 37.0496 Q1527.11 41.6271 1527.11 49.9314 Q1527.11 58.2358 1531.12 62.8538 Q1535.13 67.4314 1542.38 67.4314 Q1545.62 67.4314 1548.78 66.5807 Q1551.98 65.6895 1555.14 63.9476 L1555.14 70.8341 Q1552.03 72.2924 1548.66 73.0216 Q1545.34 73.7508 1541.57 73.7508 Q1531.32 73.7508 1525.29 67.3098 Q1519.25 60.8689 1519.25 49.9314 Q1519.25 38.832 1525.33 32.472 Q1531.45 26.1121 1542.06 26.1121 Q1545.5 26.1121 1548.78 26.8413 Q1552.07 27.5299 1555.14 28.9478 Z" fill="#000000" fill-rule="evenodd" fill-opacity="1" /><path clip-path="url(#clip040)" d="M 0 0 M1588.73 49.7694 Q1579.69 49.7694 1576.21 51.8354 Q1572.73 53.9013 1572.73 58.8839 Q1572.73 62.8538 1575.32 65.2034 Q1577.95 67.5124 1582.45 67.5124 Q1588.65 67.5124 1592.37 63.1374 Q1596.14 58.7219 1596.14 51.4303 L1596.14 49.7694 L1588.73 49.7694 M1603.59 46.6907 L1603.59 72.576 L1596.14 72.576 L1596.14 65.6895 Q1593.59 69.8214 1589.78 71.8063 Q1585.97 73.7508 1580.46 73.7508 Q1573.49 73.7508 1569.36 69.8619 Q1565.27 65.9325 1565.27 59.3701 Q1565.27 51.7138 1570.38 47.825 Q1575.52 43.9361 1585.69 43.9361 L1596.14 43.9361 L1596.14 43.2069 Q1596.14 38.0623 1592.74 35.2672 Q1589.37 32.4315 1583.26 32.4315 Q1579.37 32.4315 1575.68 33.3632 Q1572 34.295 1568.59 36.1584 L1568.59 29.2718 Q1572.68 27.692 1576.53 26.9223 Q1580.38 26.1121 1584.03 26.1121 Q1593.87 26.1121 1598.73 31.2163 Q1603.59 36.3204 1603.59 46.6907 Z" fill="#000000" fill-rule="evenodd" fill-opacity="1" /><path clip-path="url(#clip040)" d="M 0 0 M1618.95 9.54393 L1626.4 9.54393 L1626.4 72.576 L1618.95 72.576 L1618.95 9.54393 Z" fill="#000000" fill-rule="evenodd" fill-opacity="1" /><path clip-path="url(#clip040)" d="M 0 0 M1668.69 12.096 L1680.88 12.096 L1696.32 53.2532 L1711.83 12.096 L1724.03 12.096 L1724.03 72.576 L1716.05 72.576 L1716.05 19.4686 L1700.45 60.9499 L1692.23 60.9499 L1676.63 19.4686 L1676.63 72.576 L1668.69 72.576 L1668.69 12.096 Z" fill="#000000" fill-rule="evenodd" fill-opacity="1" /><path clip-path="url(#clip040)" d="M 0 0 M1757.53 32.4315 Q1751.53 32.4315 1748.05 37.1306 Q1744.56 41.7891 1744.56 49.9314 Q1744.56 58.0738 1748.01 62.7728 Q1751.49 67.4314 1757.53 67.4314 Q1763.48 67.4314 1766.97 62.7323 Q1770.45 58.0333 1770.45 49.9314 Q1770.45 41.8701 1766.97 37.1711 Q1763.48 32.4315 1757.53 32.4315 M1757.53 26.1121 Q1767.25 26.1121 1772.8 32.4315 Q1778.35 38.7509 1778.35 49.9314 Q1778.35 61.0714 1772.8 67.4314 Q1767.25 73.7508 1757.53 73.7508 Q1747.76 73.7508 1742.21 67.4314 Q1736.71 61.0714 1736.71 49.9314 Q1736.71 38.7509 1742.21 32.4315 Q1747.76 26.1121 1757.53 26.1121 Z" fill="#000000" fill-rule="evenodd" fill-opacity="1" /><path clip-path="url(#clip040)" d="M 0 0 M1820.56 34.0924 L1820.56 9.54393 L1828.01 9.54393 L1828.01 72.576 L1820.56 72.576 L1820.56 65.7705 Q1818.21 69.8214 1814.6 71.8063 Q1811.04 73.7508 1806.02 73.7508 Q1797.79 73.7508 1792.61 67.1883 Q1787.46 60.6258 1787.46 49.9314 Q1787.46 39.2371 1792.61 32.6746 Q1797.79 26.1121 1806.02 26.1121 Q1811.04 26.1121 1814.6 28.0971 Q1818.21 30.0415 1820.56 34.0924 M1795.16 49.9314 Q1795.16 58.1548 1798.52 62.8538 Q1801.93 67.5124 1807.84 67.5124 Q1813.75 67.5124 1817.16 62.8538 Q1820.56 58.1548 1820.56 49.9314 Q1820.56 41.7081 1817.16 37.0496 Q1813.75 32.3505 1807.84 32.3505 Q1801.93 32.3505 1798.52 37.0496 Q1795.16 41.7081 1795.16 49.9314 Z" fill="#000000" fill-rule="evenodd" fill-opacity="1" /><path clip-path="url(#clip040)" d="M 0 0 M1882.17 48.0275 L1882.17 51.6733 L1847.9 51.6733 Q1848.39 59.3701 1852.52 63.421 Q1856.69 67.4314 1864.11 67.4314 Q1868.4 67.4314 1872.41 66.3781 Q1876.46 65.3249 1880.43 63.2184 L1880.43 70.267 Q1876.42 71.9684 1872.21 72.8596 Q1868 73.7508 1863.66 73.7508 Q1852.8 73.7508 1846.44 67.4314 Q1840.13 61.1119 1840.13 50.3365 Q1840.13 39.1965 1846.12 32.6746 Q1852.16 26.1121 1862.36 26.1121 Q1871.52 26.1121 1876.83 32.0264 Q1882.17 37.9003 1882.17 48.0275 M1874.72 45.84 Q1874.64 39.7232 1871.28 36.0774 Q1867.96 32.4315 1862.45 32.4315 Q1856.21 32.4315 1852.44 35.9558 Q1848.71 39.4801 1848.15 45.8805 L1874.72 45.84 Z" fill="#000000" fill-rule="evenodd" fill-opacity="1" /><path clip-path="url(#clip040)" d="M 0 0 M1894.41 9.54393 L1901.86 9.54393 L1901.86 72.576 L1894.41 72.576 L1894.41 9.54393 Z" fill="#000000" fill-rule="evenodd" fill-opacity="1" /><polyline clip-path="url(#clip042)" style="stroke:#009af9; stroke-width:4; stroke-opacity:1; fill:none" points="
  748.06,1447.87 748.06,1418.98 773.776,1418.98 773.776,1274.5 799.492,1274.5 799.492,1216.71 825.208,1216.71 825.208,1173.37 850.925,1173.37 850.925,1130.03 
  876.641,1130.03 876.641,884.421 902.357,884.421 902.357,1043.34 928.074,1043.34 928.074,985.554 953.79,985.554 953.79,841.079 979.506,841.079 979.506,942.211 
  1005.22,942.211 1005.22,913.316 1030.94,913.316 1030.94,1000 1056.66,1000 1056.66,812.184 1082.37,812.184 1082.37,1072.24 1108.09,1072.24 
  1133.8,1072.24 1133.8,1028.9 1159.52,1028.9 1159.52,1245.61 1185.24,1245.61 1210.95,1245.61 1210.95,1303.4 1236.67,1303.4 1236.67,1361.19 
  1262.39,1361.19 1262.39,1418.98 1288.1,1418.98 1313.82,1418.98 1339.53,1418.98 1365.25,1418.98 1365.25,1433.43 
  1390.97,1433.43 1416.68,1433.43 1416.68,1390.08 1442.4,1390.08 1442.4,1375.64 1468.12,1375.64 1493.83,1375.64 1493.83,1260.06 
  1519.55,1260.06 1519.55,1216.71 1545.26,1216.71 1545.26,1173.37 1570.98,1173.37 1570.98,1144.48 1596.7,1144.48 1596.7,942.211 1622.41,942.211 1622.41,898.869 
  1648.13,898.869 1648.13,422.102 1673.85,422.102 1673.85,638.814 1699.56,638.814 1699.56,162.047 1725.28,162.047 1725.28,465.444 1750.99,465.444 1750.99,407.654 
  1776.71,407.654 1776.71,609.919 1802.43,609.919 1802.43,479.892 1828.14,479.892 1828.14,378.759 1853.86,378.759 1853.86,450.997 1879.58,450.997 1879.58,566.576 
  1905.29,566.576 1905.29,898.869 1931.01,898.869 1931.01,884.421 1956.73,884.421 1956.73,1086.69 1982.44,1086.69 1982.44,1173.37 2008.16,1173.37 2008.16,1245.61 
  2033.87,1245.61 2033.87,1288.95 2059.59,1288.95 2059.59,1404.53 2085.31,1404.53 2085.31,1375.64 2111.02,1375.64 2111.02,1418.98 2136.74,1418.98 2136.74,1447.87 
  2162.46,1447.87 2188.17,1447.87 2213.89,1447.87 2239.6,1447.87 2265.32,1447.87 
  2291.04,1447.87 
  "/>
<polyline clip-path="url(#clip042)" style="stroke:#e26f46; stroke-width:4; stroke-opacity:1; fill:none" points="
  233.734,1447.87 236.306,1447.87 238.877,1447.87 241.449,1447.87 244.02,1447.87 246.592,1447.87 249.164,1447.87 251.735,1447.87 254.307,1447.87 256.879,1447.87 
  259.45,1447.87 262.022,1447.87 264.593,1447.87 267.165,1447.87 269.737,1447.87 272.308,1447.87 274.88,1447.87 277.452,1447.87 280.023,1447.87 282.595,1447.87 
  285.166,1447.87 287.738,1447.87 290.31,1447.87 292.881,1447.87 295.453,1447.87 298.025,1447.87 300.596,1447.87 303.168,1447.87 305.74,1447.87 308.311,1447.87 
  310.883,1447.87 313.454,1447.87 316.026,1447.87 318.598,1447.87 321.169,1447.87 323.741,1447.87 326.313,1447.87 328.884,1447.87 331.456,1447.87 334.027,1447.87 
  336.599,1447.87 339.171,1447.87 341.742,1447.87 344.314,1447.87 346.886,1447.87 349.457,1447.87 352.029,1447.87 354.6,1447.87 357.172,1447.87 359.744,1447.87 
  362.315,1447.87 364.887,1447.87 367.459,1447.87 370.03,1447.87 372.602,1447.87 375.173,1447.87 377.745,1447.87 380.317,1447.87 382.888,1447.87 385.46,1447.87 
  388.032,1447.87 390.603,1447.87 393.175,1447.87 395.747,1447.87 398.318,1447.86 400.89,1447.86 403.461,1447.86 406.033,1447.86 408.605,1447.86 411.176,1447.86 
  413.748,1447.86 416.32,1447.86 418.891,1447.86 421.463,1447.85 424.034,1447.85 426.606,1447.85 429.178,1447.85 431.749,1447.85 434.321,1447.84 436.893,1447.84 
  439.464,1447.84 442.036,1447.83 444.607,1447.83 447.179,1447.83 449.751,1447.82 452.322,1447.82 454.894,1447.81 457.466,1447.81 460.037,1447.8 462.609,1447.79 
  465.18,1447.79 467.752,1447.78 470.324,1447.77 472.895,1447.76 475.467,1447.75 478.039,1447.74 480.61,1447.73 483.182,1447.72 485.754,1447.71 488.325,1447.69 
  490.897,1447.68 493.468,1447.66 496.04,1447.65 498.612,1447.63 501.183,1447.61 503.755,1447.59 506.327,1447.56 508.898,1447.54 511.47,1447.51 514.041,1447.48 
  516.613,1447.45 519.185,1447.42 521.756,1447.38 524.328,1447.34 526.9,1447.3 529.471,1447.26 532.043,1447.21 534.614,1447.16 537.186,1447.11 539.758,1447.05 
  542.329,1446.99 544.901,1446.92 547.473,1446.85 550.044,1446.78 552.616,1446.7 555.187,1446.61 557.759,1446.52 560.331,1446.42 562.902,1446.32 565.474,1446.21 
  568.046,1446.09 570.617,1445.97 573.189,1445.84 575.761,1445.69 578.332,1445.54 580.904,1445.38 583.475,1445.22 586.047,1445.04 588.619,1444.84 591.19,1444.64 
  593.762,1444.43 596.334,1444.2 598.905,1443.96 601.477,1443.71 604.048,1443.44 606.62,1443.15 609.192,1442.85 611.763,1442.53 614.335,1442.2 616.907,1441.84 
  619.478,1441.47 622.05,1441.08 624.621,1440.66 627.193,1440.22 629.765,1439.76 632.336,1439.27 634.908,1438.76 637.48,1438.22 640.051,1437.66 642.623,1437.06 
  645.194,1436.44 647.766,1435.78 650.338,1435.09 652.909,1434.37 655.481,1433.61 658.053,1432.82 660.624,1431.99 663.196,1431.11 665.768,1430.2 668.339,1429.25 
  670.911,1428.25 673.482,1427.21 676.054,1426.12 678.626,1424.98 681.197,1423.79 683.769,1422.55 686.341,1421.26 688.912,1419.91 691.484,1418.5 694.055,1417.04 
  696.627,1415.52 699.199,1413.93 701.77,1412.29 704.342,1410.57 706.914,1408.8 709.485,1406.95 712.057,1405.03 714.628,1403.04 717.2,1400.98 719.772,1398.84 
  722.343,1396.62 724.915,1394.33 727.487,1391.95 730.058,1389.49 732.63,1386.95 735.201,1384.33 737.773,1381.62 740.345,1378.81 742.916,1375.92 745.488,1372.94 
  748.06,1369.87 750.631,1366.7 753.203,1363.44 755.775,1360.08 758.346,1356.63 760.918,1353.07 763.489,1349.42 766.061,1345.67 768.633,1341.82 771.204,1337.87 
  773.776,1333.81 776.348,1329.65 778.919,1325.39 781.491,1321.03 784.062,1316.56 786.634,1312 789.206,1307.32 791.777,1302.55 794.349,1297.68 796.921,1292.7 
  799.492,1287.62 802.064,1282.44 804.635,1277.17 807.207,1271.79 809.779,1266.32 812.35,1260.75 814.922,1255.09 817.494,1249.34 820.065,1243.5 822.637,1237.57 
  825.208,1231.55 827.78,1225.46 830.352,1219.28 832.923,1213.02 835.495,1206.69 838.067,1200.29 840.638,1193.82 843.21,1187.28 845.782,1180.69 848.353,1174.03 
  850.925,1167.32 853.496,1160.57 856.068,1153.76 858.64,1146.92 861.211,1140.04 863.783,1133.13 866.355,1126.19 868.926,1119.24 871.498,1112.26 874.069,1105.28 
  876.641,1098.29 879.213,1091.3 881.784,1084.31 884.356,1077.34 886.928,1070.38 889.499,1063.45 892.071,1056.54 894.642,1049.67 897.214,1042.85 899.786,1036.07 
  902.357,1029.34 904.929,1022.68 907.501,1016.08 910.072,1009.55 912.644,1003.11 915.215,996.745 917.787,990.476 920.359,984.306 922.93,978.24 925.502,972.285 
  928.074,966.447 930.645,960.733 933.217,955.148 935.789,949.698 938.36,944.389 940.932,939.227 943.503,934.218 946.075,929.367 948.647,924.679 951.218,920.16 
  953.79,915.815 956.362,911.649 958.933,907.666 961.505,903.872 964.076,900.269 966.648,896.864 969.22,893.658 971.791,890.658 974.363,887.865 976.935,885.283 
  979.506,882.915 982.078,880.764 984.649,878.832 987.221,877.123 989.793,875.637 992.364,874.376 994.936,873.343 997.508,872.538 1000.08,871.963 1002.65,871.617 
  1005.22,871.502 1007.79,871.617 1010.37,871.963 1012.94,872.538 1015.51,873.343 1018.08,874.376 1020.65,875.637 1023.22,877.123 1025.8,878.832 1028.37,880.764 
  1030.94,882.915 1033.51,885.283 1036.08,887.864 1038.65,890.658 1041.23,893.658 1043.8,896.864 1046.37,900.269 1048.94,903.871 1051.51,907.666 1054.08,911.649 
  1056.66,915.815 1059.23,920.16 1061.8,924.679 1064.37,929.367 1066.94,934.218 1069.51,939.227 1072.08,944.389 1074.66,949.697 1077.23,955.147 1079.8,960.732 
  1082.37,966.447 1084.94,972.284 1087.51,978.239 1090.09,984.305 1092.66,990.475 1095.23,996.744 1097.8,1003.1 1100.37,1009.55 1102.94,1016.08 1105.52,1022.67 
  1108.09,1029.34 1110.66,1036.07 1113.23,1042.84 1115.8,1049.67 1118.37,1056.54 1120.95,1063.44 1123.52,1070.38 1126.09,1077.33 1128.66,1084.31 1131.23,1091.29 
  1133.8,1098.28 1136.38,1105.27 1138.95,1112.26 1141.52,1119.23 1144.09,1126.19 1146.66,1133.12 1149.23,1140.03 1151.81,1146.91 1154.38,1153.75 1156.95,1160.56 
  1159.52,1167.31 1162.09,1174.02 1164.66,1180.67 1167.24,1187.27 1169.81,1193.8 1172.38,1200.27 1174.95,1206.67 1177.52,1213 1180.09,1219.25 1182.66,1225.43 
  1185.24,1231.53 1187.81,1237.54 1190.38,1243.46 1192.95,1249.3 1195.52,1255.05 1198.09,1260.71 1200.67,1266.27 1203.24,1271.74 1205.81,1277.11 1208.38,1282.38 
  1210.95,1287.55 1213.52,1292.62 1216.1,1297.59 1218.67,1302.46 1221.24,1307.22 1223.81,1311.88 1226.38,1316.44 1228.95,1320.9 1231.53,1325.25 1234.1,1329.5 
  1236.67,1333.64 1239.24,1337.68 1241.81,1341.62 1244.38,1345.45 1246.96,1349.19 1249.53,1352.82 1252.1,1356.35 1254.67,1359.78 1257.24,1363.11 1259.81,1366.35 
  1262.39,1369.48 1264.96,1372.52 1267.53,1375.47 1270.1,1378.32 1272.67,1381.08 1275.24,1383.75 1277.82,1386.33 1280.39,1388.82 1282.96,1391.23 1285.53,1393.54 
  1288.1,1395.78 1290.67,1397.93 1293.24,1399.99 1295.82,1401.98 1298.39,1403.89 1300.96,1405.72 1303.53,1407.47 1306.1,1409.15 1308.67,1410.76 1311.25,1412.29 
  1313.82,1413.75 1316.39,1415.14 1318.96,1416.46 1321.53,1417.72 1324.1,1418.91 1326.68,1420.03 1329.25,1421.09 1331.82,1422.08 1334.39,1423.01 1336.96,1423.88 
  1339.53,1424.69 1342.11,1425.44 1344.68,1426.13 1347.25,1426.76 1349.82,1427.33 1352.39,1427.84 1354.96,1428.3 1357.54,1428.69 1360.11,1429.04 1362.68,1429.32 
  1365.25,1429.55 1367.82,1429.72 1370.39,1429.83 1372.97,1429.89 1375.54,1429.89 1378.11,1429.83 1380.68,1429.72 1383.25,1429.54 1385.82,1429.31 1388.4,1429.02 
  1390.97,1428.66 1393.54,1428.25 1396.11,1427.77 1398.68,1427.23 1401.25,1426.63 1403.82,1425.95 1406.4,1425.21 1408.97,1424.41 1411.54,1423.53 1414.11,1422.58 
  1416.68,1421.56 1419.25,1420.46 1421.83,1419.28 1424.4,1418.03 1426.97,1416.69 1429.54,1415.27 1432.11,1413.77 1434.68,1412.18 1437.26,1410.49 1439.83,1408.72 
  1442.4,1406.84 1444.97,1404.88 1447.54,1402.81 1450.11,1400.63 1452.69,1398.35 1455.26,1395.96 1457.83,1393.46 1460.4,1390.85 1462.97,1388.11 1465.54,1385.26 
  1468.12,1382.28 1470.69,1379.17 1473.26,1375.94 1475.83,1372.57 1478.4,1369.06 1480.97,1365.41 1483.55,1361.62 1486.12,1357.68 1488.69,1353.59 1491.26,1349.35 
  1493.83,1344.95 1496.4,1340.39 1498.98,1335.67 1501.55,1330.78 1504.12,1325.72 1506.69,1320.5 1509.26,1315.09 1511.83,1309.51 1514.4,1303.75 1516.98,1297.8 
  1519.55,1291.67 1522.12,1285.35 1524.69,1278.84 1527.26,1272.14 1529.83,1265.24 1532.41,1258.15 1534.98,1250.85 1537.55,1243.36 1540.12,1235.66 1542.69,1227.76 
  1545.26,1219.66 1547.84,1211.35 1550.41,1202.84 1552.98,1194.12 1555.55,1185.19 1558.12,1176.06 1560.69,1166.73 1563.27,1157.18 1565.84,1147.43 1568.41,1137.48 
  1570.98,1127.33 1573.55,1116.98 1576.12,1106.43 1578.7,1095.68 1581.27,1084.74 1583.84,1073.61 1586.41,1062.29 1588.98,1050.79 1591.55,1039.11 1594.13,1027.25 
  1596.7,1015.22 1599.27,1003.03 1601.84,990.671 1604.41,978.16 1606.98,965.499 1609.56,952.695 1612.13,939.754 1614.7,926.684 1617.27,913.49 1619.84,900.182 
  1622.41,886.767 1624.99,873.253 1627.56,859.649 1630.13,845.964 1632.7,832.207 1635.27,818.386 1637.84,804.513 1640.41,790.597 1642.99,776.649 1645.56,762.679 
  1648.13,748.697 1650.7,734.716 1653.27,720.746 1655.84,706.798 1658.42,692.886 1660.99,679.019 1663.56,665.211 1666.13,651.474 1668.7,637.82 1671.27,624.261 
  1673.85,610.809 1676.42,597.479 1678.99,584.282 1681.56,571.23 1684.13,558.337 1686.7,545.616 1689.28,533.078 1691.85,520.738 1694.42,508.606 1696.99,496.697 
  1699.56,485.021 1702.13,473.592 1704.71,462.422 1707.28,451.522 1709.85,440.905 1712.42,430.581 1714.99,420.563 1717.56,410.861 1720.14,401.485 1722.71,392.448 
  1725.28,383.758 1727.85,375.425 1730.42,367.459 1732.99,359.87 1735.57,352.665 1738.14,345.854 1740.71,339.444 1743.28,333.442 1745.85,327.856 1748.42,322.692 
  1750.99,317.956 1753.57,313.655 1756.14,309.792 1758.71,306.372 1761.28,303.4 1763.85,300.88 1766.42,298.813 1769,297.204 1771.57,296.052 1774.14,295.361 
  1776.71,295.131 1779.28,295.361 1781.85,296.052 1784.43,297.204 1787,298.813 1789.57,300.88 1792.14,303.4 1794.71,306.372 1797.28,309.792 1799.86,313.655 
  1802.43,317.956 1805,322.692 1807.57,327.856 1810.14,333.442 1812.71,339.444 1815.29,345.854 1817.86,352.666 1820.43,359.87 1823,367.46 1825.57,375.425 
  1828.14,383.758 1830.72,392.448 1833.29,401.485 1835.86,410.861 1838.43,420.563 1841,430.581 1843.57,440.905 1846.15,451.522 1848.72,462.422 1851.29,473.593 
  1853.86,485.022 1856.43,496.697 1859,508.607 1861.57,520.738 1864.15,533.079 1866.72,545.616 1869.29,558.338 1871.86,571.231 1874.43,584.282 1877,597.48 
  1879.58,610.81 1882.15,624.261 1884.72,637.82 1887.29,651.475 1889.86,665.212 1892.43,679.021 1895.01,692.887 1897.58,706.8 1900.15,720.748 1902.72,734.718 
  1905.29,748.699 1907.86,762.681 1910.44,776.652 1913.01,790.6 1915.58,804.516 1918.15,818.39 1920.72,832.21 1923.29,845.968 1925.87,859.654 1928.44,873.259 
  1931.01,886.773 1933.58,900.189 1936.15,913.497 1938.72,926.691 1941.3,939.762 1943.87,952.704 1946.44,965.509 1949.01,978.171 1951.58,990.683 1954.15,1003.04 
  1956.73,1015.24 1959.3,1027.27 1961.87,1039.12 1964.44,1050.81 1967.01,1062.31 1969.58,1073.63 1972.15,1084.77 1974.73,1095.71 1977.3,1106.46 1979.87,1117.01 
  1982.44,1127.37 1985.01,1137.52 1987.58,1147.48 1990.16,1157.23 1992.73,1166.78 1995.3,1176.12 1997.87,1185.26 2000.44,1194.19 2003.01,1202.91 2005.59,1211.43 
  2008.16,1219.75 2010.73,1227.86 2013.3,1235.76 2015.87,1243.47 2018.44,1250.97 2021.02,1258.28 2023.59,1265.38 2026.16,1272.29 2028.73,1279.01 2031.3,1285.53 
  2033.87,1291.87 2036.45,1298.01 2039.02,1303.98 2041.59,1309.76 2044.16,1315.36 2046.73,1320.78 2049.3,1326.03 2051.88,1331.12 2054.45,1336.03 2057.02,1340.78 
  2059.59,1345.37 2062.16,1349.8 2064.73,1354.08 2067.31,1358.21 2069.88,1362.19 2072.45,1366.02 2075.02,1369.72 2077.59,1373.28 2080.16,1376.7 2082.73,1380 
  2085.31,1383.16 2087.88,1386.21 2090.45,1389.13 2093.02,1391.94 2095.59,1394.64 2098.16,1397.23 2100.74,1399.7 2103.31,1402.08 2105.88,1404.36 2108.45,1406.54 
  2111.02,1408.63 2113.59,1410.62 2116.17,1412.53 2118.74,1414.35 2121.31,1416.1 2123.88,1417.76 2126.45,1419.35 2129.02,1420.87 2131.6,1422.31 2134.17,1423.69 
  2136.74,1425 2139.31,1426.25 2141.88,1427.44 2144.45,1428.57 2147.03,1429.65 2149.6,1430.67 2152.17,1431.65 2154.74,1432.57 2157.31,1433.45 2159.88,1434.28 
  2162.46,1435.07 2165.03,1435.82 2167.6,1436.52 2170.17,1437.2 2172.74,1437.83 2175.31,1438.43 2177.89,1439 2180.46,1439.54 2183.03,1440.05 2185.6,1440.53 
  2188.17,1440.98 2190.74,1441.41 2193.31,1441.82 2195.89,1442.2 2198.46,1442.56 2201.03,1442.9 2203.6,1443.21 2206.17,1443.51 2208.74,1443.8 2211.32,1444.06 
  2213.89,1444.31 2216.46,1444.55 2219.03,1444.77 2221.6,1444.97 2224.17,1445.17 2226.75,1445.35 2229.32,1445.52 2231.89,1445.68 2234.46,1445.83 2237.03,1445.97 
  2239.6,1446.1 2242.18,1446.23 2244.75,1446.34 2247.32,1446.45 2249.89,1446.55 2252.46,1446.65 2255.03,1446.73 2257.61,1446.82 2260.18,1446.89 2262.75,1446.96 
  2265.32,1447.03 2267.89,1447.09 2270.46,1447.15 2273.04,1447.2 2275.61,1447.25 2278.18,1447.3 2280.75,1447.34 2283.32,1447.38 2285.89,1447.42 2288.47,1447.45 
  2291.04,1447.49 
  "/>
<path clip-path="url(#clip040)" d="
M1921.49 350.345 L2280.06 350.345 L2280.06 168.905 L1921.49 168.905  Z
  " fill="#ffffff" fill-rule="evenodd" fill-opacity="1"/>
<polyline clip-path="url(#clip040)" style="stroke:#000000; stroke-width:4; stroke-opacity:1; fill:none" points="
  1921.49,350.345 2280.06,350.345 2280.06,168.905 1921.49,168.905 1921.49,350.345 
  "/>
<polyline clip-path="url(#clip040)" style="stroke:#009af9; stroke-width:4; stroke-opacity:1; fill:none" points="
  1945.72,229.385 2091.1,229.385 
  "/>
<path clip-path="url(#clip040)" d="M 0 0 M2120.01 215.947 L2120.01 242.822 L2125.66 242.822 Q2132.81 242.822 2136.12 239.581 Q2139.45 236.341 2139.45 229.35 Q2139.45 222.406 2136.12 219.188 Q2132.81 215.947 2125.66 215.947 L2120.01 215.947 M2115.33 212.105 L2124.94 212.105 Q2134.98 212.105 2139.68 216.294 Q2144.38 220.461 2144.38 229.35 Q2144.38 238.285 2139.66 242.475 Q2134.94 246.665 2124.94 246.665 L2115.33 246.665 L2115.33 212.105 Z" fill="#000000" fill-rule="evenodd" fill-opacity="1" /><path clip-path="url(#clip040)" d="M 0 0 M2163.43 233.632 Q2158.27 233.632 2156.28 234.813 Q2154.29 235.993 2154.29 238.841 Q2154.29 241.109 2155.77 242.452 Q2157.28 243.771 2159.84 243.771 Q2163.39 243.771 2165.52 241.271 Q2167.67 238.748 2167.67 234.581 L2167.67 233.632 L2163.43 233.632 M2171.93 231.873 L2171.93 246.665 L2167.67 246.665 L2167.67 242.729 Q2166.21 245.091 2164.03 246.225 Q2161.86 247.336 2158.71 247.336 Q2154.73 247.336 2152.37 245.114 Q2150.03 242.868 2150.03 239.118 Q2150.03 234.743 2152.95 232.521 Q2155.89 230.299 2161.7 230.299 L2167.67 230.299 L2167.67 229.882 Q2167.67 226.943 2165.72 225.345 Q2163.8 223.725 2160.31 223.725 Q2158.09 223.725 2155.98 224.257 Q2153.87 224.79 2151.93 225.855 L2151.93 221.919 Q2154.27 221.017 2156.47 220.577 Q2158.66 220.114 2160.75 220.114 Q2166.37 220.114 2169.15 223.031 Q2171.93 225.947 2171.93 231.873 Z" fill="#000000" fill-rule="evenodd" fill-opacity="1" /><path clip-path="url(#clip040)" d="M 0 0 M2184.91 213.378 L2184.91 220.739 L2193.69 220.739 L2193.69 224.049 L2184.91 224.049 L2184.91 238.123 Q2184.91 241.294 2185.77 242.197 Q2186.65 243.1 2189.31 243.1 L2193.69 243.1 L2193.69 246.665 L2189.31 246.665 Q2184.38 246.665 2182.51 244.836 Q2180.63 242.984 2180.63 238.123 L2180.63 224.049 L2177.51 224.049 L2177.51 220.739 L2180.63 220.739 L2180.63 213.378 L2184.91 213.378 Z" fill="#000000" fill-rule="evenodd" fill-opacity="1" /><path clip-path="url(#clip040)" d="M 0 0 M2211.07 233.632 Q2205.91 233.632 2203.92 234.813 Q2201.93 235.993 2201.93 238.841 Q2201.93 241.109 2203.41 242.452 Q2204.91 243.771 2207.48 243.771 Q2211.03 243.771 2213.15 241.271 Q2215.31 238.748 2215.31 234.581 L2215.31 233.632 L2211.07 233.632 M2219.57 231.873 L2219.57 246.665 L2215.31 246.665 L2215.31 242.729 Q2213.85 245.091 2211.67 246.225 Q2209.5 247.336 2206.35 247.336 Q2202.37 247.336 2200.01 245.114 Q2197.67 242.868 2197.67 239.118 Q2197.67 234.743 2200.59 232.521 Q2203.53 230.299 2209.34 230.299 L2215.31 230.299 L2215.31 229.882 Q2215.31 226.943 2213.36 225.345 Q2211.44 223.725 2207.95 223.725 Q2205.72 223.725 2203.62 224.257 Q2201.51 224.79 2199.57 225.855 L2199.57 221.919 Q2201.9 221.017 2204.1 220.577 Q2206.3 220.114 2208.39 220.114 Q2214.01 220.114 2216.79 223.031 Q2219.57 225.947 2219.57 231.873 Z" fill="#000000" fill-rule="evenodd" fill-opacity="1" /><polyline clip-path="url(#clip040)" style="stroke:#e26f46; stroke-width:4; stroke-opacity:1; fill:none" points="
  1945.72,289.865 2091.1,289.865 
  "/>
<path clip-path="url(#clip040)" d="M 0 0 M2115.33 272.585 L2144.57 272.585 L2144.57 276.52 L2132.3 276.52 L2132.3 307.145 L2127.6 307.145 L2127.6 276.52 L2115.33 276.52 L2115.33 272.585 Z" fill="#000000" fill-rule="evenodd" fill-opacity="1" /><path clip-path="url(#clip040)" d="M 0 0 M2156.95 285.2 Q2156.23 284.784 2155.38 284.598 Q2154.54 284.39 2153.53 284.39 Q2149.91 284.39 2147.97 286.751 Q2146.05 289.089 2146.05 293.487 L2146.05 307.145 L2141.77 307.145 L2141.77 281.219 L2146.05 281.219 L2146.05 285.247 Q2147.39 282.886 2149.54 281.751 Q2151.7 280.594 2154.78 280.594 Q2155.22 280.594 2155.75 280.663 Q2156.28 280.71 2156.93 280.825 L2156.95 285.2 Z" fill="#000000" fill-rule="evenodd" fill-opacity="1" /><path clip-path="url(#clip040)" d="M 0 0 M2160.98 296.913 L2160.98 281.219 L2165.24 281.219 L2165.24 296.751 Q2165.24 300.432 2166.67 302.284 Q2168.11 304.112 2170.98 304.112 Q2174.43 304.112 2176.42 301.913 Q2178.43 299.714 2178.43 295.918 L2178.43 281.219 L2182.69 281.219 L2182.69 307.145 L2178.43 307.145 L2178.43 303.163 Q2176.88 305.524 2174.82 306.682 Q2172.78 307.816 2170.08 307.816 Q2165.61 307.816 2163.29 305.038 Q2160.98 302.26 2160.98 296.913 M2171.7 280.594 L2171.7 280.594 Z" fill="#000000" fill-rule="evenodd" fill-opacity="1" /><path clip-path="url(#clip040)" d="M 0 0 M2195.68 273.858 L2195.68 281.219 L2204.45 281.219 L2204.45 284.529 L2195.68 284.529 L2195.68 298.603 Q2195.68 301.774 2196.53 302.677 Q2197.41 303.58 2200.08 303.58 L2204.45 303.58 L2204.45 307.145 L2200.08 307.145 Q2195.15 307.145 2193.27 305.316 Q2191.4 303.464 2191.4 298.603 L2191.4 284.529 L2188.27 284.529 L2188.27 281.219 L2191.4 281.219 L2191.4 273.858 L2195.68 273.858 Z" fill="#000000" fill-rule="evenodd" fill-opacity="1" /><path clip-path="url(#clip040)" d="M 0 0 M2231.6 291.497 L2231.6 307.145 L2227.34 307.145 L2227.34 291.635 Q2227.34 287.955 2225.91 286.126 Q2224.47 284.298 2221.6 284.298 Q2218.15 284.298 2216.16 286.497 Q2214.17 288.696 2214.17 292.492 L2214.17 307.145 L2209.89 307.145 L2209.89 271.126 L2214.17 271.126 L2214.17 285.247 Q2215.7 282.909 2217.76 281.751 Q2219.84 280.594 2222.55 280.594 Q2227.02 280.594 2229.31 283.372 Q2231.6 286.126 2231.6 291.497 Z" fill="#000000" fill-rule="evenodd" fill-opacity="1" /></svg>
