<?xml version="1.0" encoding="utf-8"?>
<svg xmlns="http://www.w3.org/2000/svg" xmlns:xlink="http://www.w3.org/1999/xlink" width="600" height="400" viewBox="0 0 2400 1600">
<defs>
  <clipPath id="clip010">
    <rect x="0" y="0" width="2400" height="1600"/>
  </clipPath>
</defs>
<path clip-path="url(#clip010)" d="
M0 1600 L2400 1600 L2400 0 L0 0  Z
  " fill="#ffffff" fill-rule="evenodd" fill-opacity="1"/>
<defs>
  <clipPath id="clip011">
    <rect x="480" y="0" width="1681" height="1600"/>
  </clipPath>
</defs>
<path clip-path="url(#clip010)" d="
M172.015 1486.45 L2352.76 1486.45 L2352.76 123.472 L172.015 123.472  Z
  " fill="#ffffff" fill-rule="evenodd" fill-opacity="1"/>
<defs>
  <clipPath id="clip012">
    <rect x="172" y="123" width="2182" height="1364"/>
  </clipPath>
</defs>
<polyline clip-path="url(#clip012)" style="stroke:#000000; stroke-width:2; stroke-opacity:0.1; fill:none" points="
  233.734,1486.45 233.734,123.472 
  "/>
<polyline clip-path="url(#clip012)" style="stroke:#000000; stroke-width:2; stroke-opacity:0.1; fill:none" points="
  576.618,1486.45 576.618,123.472 
  "/>
<polyline clip-path="url(#clip012)" style="stroke:#000000; stroke-width:2; stroke-opacity:0.1; fill:none" points="
  919.502,1486.45 919.502,123.472 
  "/>
<polyline clip-path="url(#clip012)" style="stroke:#000000; stroke-width:2; stroke-opacity:0.1; fill:none" points="
  1262.39,1486.45 1262.39,123.472 
  "/>
<polyline clip-path="url(#clip012)" style="stroke:#000000; stroke-width:2; stroke-opacity:0.1; fill:none" points="
  1605.27,1486.45 1605.27,123.472 
  "/>
<polyline clip-path="url(#clip012)" style="stroke:#000000; stroke-width:2; stroke-opacity:0.1; fill:none" points="
  1948.15,1486.45 1948.15,123.472 
  "/>
<polyline clip-path="url(#clip012)" style="stroke:#000000; stroke-width:2; stroke-opacity:0.1; fill:none" points="
  2291.04,1486.45 2291.04,123.472 
  "/>
<polyline clip-path="url(#clip010)" style="stroke:#000000; stroke-width:4; stroke-opacity:1; fill:none" points="
  172.015,1486.45 2352.76,1486.45 
  "/>
<polyline clip-path="url(#clip010)" style="stroke:#000000; stroke-width:4; stroke-opacity:1; fill:none" points="
  233.734,1486.45 233.734,1470.09 
  "/>
<polyline clip-path="url(#clip010)" style="stroke:#000000; stroke-width:4; stroke-opacity:1; fill:none" points="
  576.618,1486.45 576.618,1470.09 
  "/>
<polyline clip-path="url(#clip010)" style="stroke:#000000; stroke-width:4; stroke-opacity:1; fill:none" points="
  919.502,1486.45 919.502,1470.09 
  "/>
<polyline clip-path="url(#clip010)" style="stroke:#000000; stroke-width:4; stroke-opacity:1; fill:none" points="
  1262.39,1486.45 1262.39,1470.09 
  "/>
<polyline clip-path="url(#clip010)" style="stroke:#000000; stroke-width:4; stroke-opacity:1; fill:none" points="
  1605.27,1486.45 1605.27,1470.09 
  "/>
<polyline clip-path="url(#clip010)" style="stroke:#000000; stroke-width:4; stroke-opacity:1; fill:none" points="
  1948.15,1486.45 1948.15,1470.09 
  "/>
<polyline clip-path="url(#clip010)" style="stroke:#000000; stroke-width:4; stroke-opacity:1; fill:none" points="
  2291.04,1486.45 2291.04,1470.09 
  "/>
<path clip-path="url(#clip010)" d="M 0 0 M203.676 1530.29 L233.352 1530.29 L233.352 1534.23 L203.676 1534.23 L203.676 1530.29 Z" fill="#000000" fill-rule="evenodd" fill-opacity="1" /><path clip-path="url(#clip010)" d="M 0 0 M247.472 1543.18 L263.792 1543.18 L263.792 1547.12 L241.847 1547.12 L241.847 1543.18 Q244.509 1540.43 249.093 1535.8 Q253.699 1531.15 254.88 1529.81 Q257.125 1527.28 258.005 1525.55 Q258.907 1523.79 258.907 1522.1 Q258.907 1519.34 256.963 1517.61 Q255.042 1515.87 251.94 1515.87 Q249.741 1515.87 247.287 1516.63 Q244.857 1517.4 242.079 1518.95 L242.079 1514.23 Q244.903 1513.09 247.357 1512.51 Q249.81 1511.93 251.847 1511.93 Q257.218 1511.93 260.412 1514.62 Q263.606 1517.31 263.606 1521.8 Q263.606 1523.93 262.796 1525.85 Q262.009 1527.74 259.903 1530.34 Q259.324 1531.01 256.222 1534.23 Q253.12 1537.42 247.472 1543.18 Z" fill="#000000" fill-rule="evenodd" fill-opacity="1" /><path clip-path="url(#clip010)" d="M 0 0 M546.375 1530.29 L576.051 1530.29 L576.051 1534.23 L546.375 1534.23 L546.375 1530.29 Z" fill="#000000" fill-rule="evenodd" fill-opacity="1" /><path clip-path="url(#clip010)" d="M 0 0 M586.953 1543.18 L594.592 1543.18 L594.592 1516.82 L586.282 1518.49 L586.282 1514.23 L594.546 1512.56 L599.222 1512.56 L599.222 1543.18 L606.861 1543.18 L606.861 1547.12 L586.953 1547.12 L586.953 1543.18 Z" fill="#000000" fill-rule="evenodd" fill-opacity="1" /><path clip-path="url(#clip010)" d="M 0 0 M919.502 1515.64 Q915.89 1515.64 914.062 1519.2 Q912.256 1522.75 912.256 1529.87 Q912.256 1536.98 914.062 1540.55 Q915.89 1544.09 919.502 1544.09 Q923.136 1544.09 924.941 1540.55 Q926.77 1536.98 926.77 1529.87 Q926.77 1522.75 924.941 1519.2 Q923.136 1515.64 919.502 1515.64 M919.502 1511.93 Q925.312 1511.93 928.367 1516.54 Q931.446 1521.12 931.446 1529.87 Q931.446 1538.6 928.367 1543.21 Q925.312 1547.79 919.502 1547.79 Q913.691 1547.79 910.613 1543.21 Q907.557 1538.6 907.557 1529.87 Q907.557 1521.12 910.613 1516.54 Q913.691 1511.93 919.502 1511.93 Z" fill="#000000" fill-rule="evenodd" fill-opacity="1" /><path clip-path="url(#clip010)" d="M 0 0 M1252.77 1543.18 L1260.41 1543.18 L1260.41 1516.82 L1252.1 1518.49 L1252.1 1514.23 L1260.36 1512.56 L1265.04 1512.56 L1265.04 1543.18 L1272.67 1543.18 L1272.67 1547.12 L1252.77 1547.12 L1252.77 1543.18 Z" fill="#000000" fill-rule="evenodd" fill-opacity="1" /><path clip-path="url(#clip010)" d="M 0 0 M1599.92 1543.18 L1616.24 1543.18 L1616.24 1547.12 L1594.3 1547.12 L1594.3 1543.18 Q1596.96 1540.43 1601.54 1535.8 Q1606.15 1531.15 1607.33 1529.81 Q1609.57 1527.28 1610.45 1525.55 Q1611.36 1523.79 1611.36 1522.1 Q1611.36 1519.34 1609.41 1517.61 Q1607.49 1515.87 1604.39 1515.87 Q1602.19 1515.87 1599.74 1516.63 Q1597.31 1517.4 1594.53 1518.95 L1594.53 1514.23 Q1597.35 1513.09 1599.81 1512.51 Q1602.26 1511.93 1604.3 1511.93 Q1609.67 1511.93 1612.86 1514.62 Q1616.06 1517.31 1616.06 1521.8 Q1616.06 1523.93 1615.25 1525.85 Q1614.46 1527.74 1612.35 1530.34 Q1611.77 1531.01 1608.67 1534.23 Q1605.57 1537.42 1599.92 1543.18 Z" fill="#000000" fill-rule="evenodd" fill-opacity="1" /><path clip-path="url(#clip010)" d="M 0 0 M1952.4 1528.49 Q1955.76 1529.2 1957.63 1531.47 Q1959.53 1533.74 1959.53 1537.07 Q1959.53 1542.19 1956.01 1544.99 Q1952.49 1547.79 1946.01 1547.79 Q1943.84 1547.79 1941.52 1547.35 Q1939.23 1546.93 1936.78 1546.08 L1936.78 1541.56 Q1938.72 1542.7 1941.03 1543.28 Q1943.35 1543.86 1945.87 1543.86 Q1950.27 1543.86 1952.56 1542.12 Q1954.88 1540.38 1954.88 1537.07 Q1954.88 1534.02 1952.72 1532.31 Q1950.6 1530.57 1946.78 1530.57 L1942.75 1530.57 L1942.75 1526.73 L1946.96 1526.73 Q1950.41 1526.73 1952.24 1525.36 Q1954.07 1523.97 1954.07 1521.38 Q1954.07 1518.72 1952.17 1517.31 Q1950.29 1515.87 1946.78 1515.87 Q1944.85 1515.87 1942.66 1516.29 Q1940.46 1516.7 1937.82 1517.58 L1937.82 1513.42 Q1940.48 1512.68 1942.79 1512.31 Q1945.13 1511.93 1947.19 1511.93 Q1952.52 1511.93 1955.62 1514.37 Q1958.72 1516.77 1958.72 1520.89 Q1958.72 1523.76 1957.08 1525.75 Q1955.43 1527.72 1952.4 1528.49 Z" fill="#000000" fill-rule="evenodd" fill-opacity="1" /><path clip-path="url(#clip010)" d="M 0 0 M2294.05 1516.63 L2282.24 1535.08 L2294.05 1535.08 L2294.05 1516.63 M2292.82 1512.56 L2298.7 1512.56 L2298.7 1535.08 L2303.63 1535.08 L2303.63 1538.97 L2298.7 1538.97 L2298.7 1547.12 L2294.05 1547.12 L2294.05 1538.97 L2278.44 1538.97 L2278.44 1534.46 L2292.82 1512.56 Z" fill="#000000" fill-rule="evenodd" fill-opacity="1" /><polyline clip-path="url(#clip012)" style="stroke:#000000; stroke-width:2; stroke-opacity:0.1; fill:none" points="
  172.015,1447.87 2352.76,1447.87 
  "/>
<polyline clip-path="url(#clip012)" style="stroke:#000000; stroke-width:2; stroke-opacity:0.1; fill:none" points="
  172.015,1158.92 2352.76,1158.92 
  "/>
<polyline clip-path="url(#clip012)" style="stroke:#000000; stroke-width:2; stroke-opacity:0.1; fill:none" points="
  172.015,869.974 2352.76,869.974 
  "/>
<polyline clip-path="url(#clip012)" style="stroke:#000000; stroke-width:2; stroke-opacity:0.1; fill:none" points="
  172.015,581.024 2352.76,581.024 
  "/>
<polyline clip-path="url(#clip012)" style="stroke:#000000; stroke-width:2; stroke-opacity:0.1; fill:none" points="
  172.015,292.074 2352.76,292.074 
  "/>
<polyline clip-path="url(#clip010)" style="stroke:#000000; stroke-width:4; stroke-opacity:1; fill:none" points="
  172.015,1486.45 172.015,123.472 
  "/>
<polyline clip-path="url(#clip010)" style="stroke:#000000; stroke-width:4; stroke-opacity:1; fill:none" points="
  172.015,1447.87 198.184,1447.87 
  "/>
<polyline clip-path="url(#clip010)" style="stroke:#000000; stroke-width:4; stroke-opacity:1; fill:none" points="
  172.015,1158.92 198.184,1158.92 
  "/>
<polyline clip-path="url(#clip010)" style="stroke:#000000; stroke-width:4; stroke-opacity:1; fill:none" points="
  172.015,869.974 198.184,869.974 
  "/>
<polyline clip-path="url(#clip010)" style="stroke:#000000; stroke-width:4; stroke-opacity:1; fill:none" points="
  172.015,581.024 198.184,581.024 
  "/>
<polyline clip-path="url(#clip010)" style="stroke:#000000; stroke-width:4; stroke-opacity:1; fill:none" points="
  172.015,292.074 198.184,292.074 
  "/>
<path clip-path="url(#clip010)" d="M 0 0 M124.07 1433.67 Q120.459 1433.67 118.631 1437.24 Q116.825 1440.78 116.825 1447.91 Q116.825 1455.01 118.631 1458.58 Q120.459 1462.12 124.07 1462.12 Q127.705 1462.12 129.51 1458.58 Q131.339 1455.01 131.339 1447.91 Q131.339 1440.78 129.51 1437.24 Q127.705 1433.67 124.07 1433.67 M124.07 1429.97 Q129.881 1429.97 132.936 1434.57 Q136.015 1439.16 136.015 1447.91 Q136.015 1456.63 132.936 1461.24 Q129.881 1465.82 124.07 1465.82 Q118.26 1465.82 115.182 1461.24 Q112.126 1456.63 112.126 1447.91 Q112.126 1439.16 115.182 1434.57 Q118.26 1429.97 124.07 1429.97 Z" fill="#000000" fill-rule="evenodd" fill-opacity="1" /><path clip-path="url(#clip010)" d="M 0 0 M57.7745 1172.27 L74.0939 1172.27 L74.0939 1176.2 L52.1495 1176.2 L52.1495 1172.27 Q54.8115 1169.51 59.3949 1164.88 Q64.0013 1160.23 65.1819 1158.89 Q67.4272 1156.37 68.3068 1154.63 Q69.2096 1152.87 69.2096 1151.18 Q69.2096 1148.43 67.2652 1146.69 Q65.3439 1144.95 62.2421 1144.95 Q60.043 1144.95 57.5893 1145.72 Q55.1588 1146.48 52.381 1148.03 L52.381 1143.31 Q55.2051 1142.18 57.6588 1141.6 Q60.1124 1141.02 62.1495 1141.02 Q67.5198 1141.02 70.7142 1143.7 Q73.9087 1146.39 73.9087 1150.88 Q73.9087 1153.01 73.0985 1154.93 Q72.3115 1156.83 70.205 1159.42 Q69.6263 1160.09 66.5245 1163.31 Q63.4226 1166.5 57.7745 1172.27 Z" fill="#000000" fill-rule="evenodd" fill-opacity="1" /><path clip-path="url(#clip010)" d="M 0 0 M93.9086 1144.72 Q90.2975 1144.72 88.4688 1148.29 Q86.6632 1151.83 86.6632 1158.96 Q86.6632 1166.06 88.4688 1169.63 Q90.2975 1173.17 93.9086 1173.17 Q97.5428 1173.17 99.3483 1169.63 Q101.177 1166.06 101.177 1158.96 Q101.177 1151.83 99.3483 1148.29 Q97.5428 1144.72 93.9086 1144.72 M93.9086 1141.02 Q99.7187 1141.02 102.774 1145.62 Q105.853 1150.21 105.853 1158.96 Q105.853 1167.68 102.774 1172.29 Q99.7187 1176.87 93.9086 1176.87 Q88.0984 1176.87 85.0197 1172.29 Q81.9642 1167.68 81.9642 1158.96 Q81.9642 1150.21 85.0197 1145.62 Q88.0984 1141.02 93.9086 1141.02 Z" fill="#000000" fill-rule="evenodd" fill-opacity="1" /><path clip-path="url(#clip010)" d="M 0 0 M124.07 1144.72 Q120.459 1144.72 118.631 1148.29 Q116.825 1151.83 116.825 1158.96 Q116.825 1166.06 118.631 1169.63 Q120.459 1173.17 124.07 1173.17 Q127.705 1173.17 129.51 1169.63 Q131.339 1166.06 131.339 1158.96 Q131.339 1151.83 129.51 1148.29 Q127.705 1144.72 124.07 1144.72 M124.07 1141.02 Q129.881 1141.02 132.936 1145.62 Q136.015 1150.21 136.015 1158.96 Q136.015 1167.68 132.936 1172.29 Q129.881 1176.87 124.07 1176.87 Q118.26 1176.87 115.182 1172.29 Q112.126 1167.68 112.126 1158.96 Q112.126 1150.21 115.182 1145.62 Q118.26 1141.02 124.07 1141.02 Z" fill="#000000" fill-rule="evenodd" fill-opacity="1" /><path clip-path="url(#clip010)" d="M 0 0 M66.5939 856.768 L54.7884 875.217 L66.5939 875.217 L66.5939 856.768 M65.367 852.694 L71.2466 852.694 L71.2466 875.217 L76.1772 875.217 L76.1772 879.106 L71.2466 879.106 L71.2466 887.254 L66.5939 887.254 L66.5939 879.106 L50.9921 879.106 L50.9921 874.592 L65.367 852.694 Z" fill="#000000" fill-rule="evenodd" fill-opacity="1" /><path clip-path="url(#clip010)" d="M 0 0 M93.9086 855.772 Q90.2975 855.772 88.4688 859.337 Q86.6632 862.879 86.6632 870.008 Q86.6632 877.115 88.4688 880.68 Q90.2975 884.221 93.9086 884.221 Q97.5428 884.221 99.3483 880.68 Q101.177 877.115 101.177 870.008 Q101.177 862.879 99.3483 859.337 Q97.5428 855.772 93.9086 855.772 M93.9086 852.069 Q99.7187 852.069 102.774 856.675 Q105.853 861.258 105.853 870.008 Q105.853 878.735 102.774 883.342 Q99.7187 887.925 93.9086 887.925 Q88.0984 887.925 85.0197 883.342 Q81.9642 878.735 81.9642 870.008 Q81.9642 861.258 85.0197 856.675 Q88.0984 852.069 93.9086 852.069 Z" fill="#000000" fill-rule="evenodd" fill-opacity="1" /><path clip-path="url(#clip010)" d="M 0 0 M124.07 855.772 Q120.459 855.772 118.631 859.337 Q116.825 862.879 116.825 870.008 Q116.825 877.115 118.631 880.68 Q120.459 884.221 124.07 884.221 Q127.705 884.221 129.51 880.68 Q131.339 877.115 131.339 870.008 Q131.339 862.879 129.51 859.337 Q127.705 855.772 124.07 855.772 M124.07 852.069 Q129.881 852.069 132.936 856.675 Q136.015 861.258 136.015 870.008 Q136.015 878.735 132.936 883.342 Q129.881 887.925 124.07 887.925 Q118.26 887.925 115.182 883.342 Q112.126 878.735 112.126 870.008 Q112.126 861.258 115.182 856.675 Q118.26 852.069 124.07 852.069 Z" fill="#000000" fill-rule="evenodd" fill-opacity="1" /><path clip-path="url(#clip010)" d="M 0 0 M64.3254 579.161 Q61.1773 579.161 59.3254 581.313 Q57.4967 583.466 57.4967 587.216 Q57.4967 590.943 59.3254 593.119 Q61.1773 595.272 64.3254 595.272 Q67.4735 595.272 69.3022 593.119 Q71.1541 590.943 71.1541 587.216 Q71.1541 583.466 69.3022 581.313 Q67.4735 579.161 64.3254 579.161 M73.6077 564.508 L73.6077 568.767 Q71.8485 567.934 70.0429 567.494 Q68.2606 567.054 66.5013 567.054 Q61.8717 567.054 59.418 570.179 Q56.9875 573.304 56.6402 579.624 Q58.006 577.61 60.0662 576.545 Q62.1263 575.457 64.6032 575.457 Q69.8115 575.457 72.8207 578.628 Q75.8531 581.776 75.8531 587.216 Q75.8531 592.54 72.705 595.758 Q69.5568 598.975 64.3254 598.975 Q58.33 598.975 55.1588 594.392 Q51.9875 589.786 51.9875 581.059 Q51.9875 572.864 55.8764 568.003 Q59.7652 563.119 66.3161 563.119 Q68.0754 563.119 69.8578 563.466 Q71.6633 563.813 73.6077 564.508 Z" fill="#000000" fill-rule="evenodd" fill-opacity="1" /><path clip-path="url(#clip010)" d="M 0 0 M93.9086 566.823 Q90.2975 566.823 88.4688 570.387 Q86.6632 573.929 86.6632 581.059 Q86.6632 588.165 88.4688 591.73 Q90.2975 595.272 93.9086 595.272 Q97.5428 595.272 99.3483 591.73 Q101.177 588.165 101.177 581.059 Q101.177 573.929 99.3483 570.387 Q97.5428 566.823 93.9086 566.823 M93.9086 563.119 Q99.7187 563.119 102.774 567.725 Q105.853 572.309 105.853 581.059 Q105.853 589.786 102.774 594.392 Q99.7187 598.975 93.9086 598.975 Q88.0984 598.975 85.0197 594.392 Q81.9642 589.786 81.9642 581.059 Q81.9642 572.309 85.0197 567.725 Q88.0984 563.119 93.9086 563.119 Z" fill="#000000" fill-rule="evenodd" fill-opacity="1" /><path clip-path="url(#clip010)" d="M 0 0 M124.07 566.823 Q120.459 566.823 118.631 570.387 Q116.825 573.929 116.825 581.059 Q116.825 588.165 118.631 591.73 Q120.459 595.272 124.07 595.272 Q127.705 595.272 129.51 591.73 Q131.339 588.165 131.339 581.059 Q131.339 573.929 129.51 570.387 Q127.705 566.823 124.07 566.823 M124.07 563.119 Q129.881 563.119 132.936 567.725 Q136.015 572.309 136.015 581.059 Q136.015 589.786 132.936 594.392 Q129.881 598.975 124.07 598.975 Q118.26 598.975 115.182 594.392 Q112.126 589.786 112.126 581.059 Q112.126 572.309 115.182 567.725 Q118.26 563.119 124.07 563.119 Z" fill="#000000" fill-rule="evenodd" fill-opacity="1" /><path clip-path="url(#clip010)" d="M 0 0 M63.7467 292.942 Q60.4134 292.942 58.4921 294.725 Q56.5939 296.507 56.5939 299.632 Q56.5939 302.757 58.4921 304.539 Q60.4134 306.322 63.7467 306.322 Q67.08 306.322 69.0013 304.539 Q70.9226 302.734 70.9226 299.632 Q70.9226 296.507 69.0013 294.725 Q67.1032 292.942 63.7467 292.942 M59.0708 290.952 Q56.0615 290.211 54.3717 288.151 Q52.7051 286.091 52.7051 283.128 Q52.7051 278.984 55.6449 276.577 Q58.6078 274.169 63.7467 274.169 Q68.9087 274.169 71.8485 276.577 Q74.7883 278.984 74.7883 283.128 Q74.7883 286.091 73.0985 288.151 Q71.4318 290.211 68.4457 290.952 Q71.8253 291.739 73.7003 294.03 Q75.5985 296.322 75.5985 299.632 Q75.5985 304.655 72.5198 307.34 Q69.4642 310.026 63.7467 310.026 Q58.0291 310.026 54.9504 307.34 Q51.8949 304.655 51.8949 299.632 Q51.8949 296.322 53.793 294.03 Q55.6912 291.739 59.0708 290.952 M57.3578 283.567 Q57.3578 286.253 59.0245 287.757 Q60.7143 289.262 63.7467 289.262 Q66.7559 289.262 68.4457 287.757 Q70.1587 286.253 70.1587 283.567 Q70.1587 280.882 68.4457 279.378 Q66.7559 277.873 63.7467 277.873 Q60.7143 277.873 59.0245 279.378 Q57.3578 280.882 57.3578 283.567 Z" fill="#000000" fill-rule="evenodd" fill-opacity="1" /><path clip-path="url(#clip010)" d="M 0 0 M93.9086 277.873 Q90.2975 277.873 88.4688 281.438 Q86.6632 284.979 86.6632 292.109 Q86.6632 299.215 88.4688 302.78 Q90.2975 306.322 93.9086 306.322 Q97.5428 306.322 99.3483 302.78 Q101.177 299.215 101.177 292.109 Q101.177 284.979 99.3483 281.438 Q97.5428 277.873 93.9086 277.873 M93.9086 274.169 Q99.7187 274.169 102.774 278.776 Q105.853 283.359 105.853 292.109 Q105.853 300.836 102.774 305.442 Q99.7187 310.026 93.9086 310.026 Q88.0984 310.026 85.0197 305.442 Q81.9642 300.836 81.9642 292.109 Q81.9642 283.359 85.0197 278.776 Q88.0984 274.169 93.9086 274.169 Z" fill="#000000" fill-rule="evenodd" fill-opacity="1" /><path clip-path="url(#clip010)" d="M 0 0 M124.07 277.873 Q120.459 277.873 118.631 281.438 Q116.825 284.979 116.825 292.109 Q116.825 299.215 118.631 302.78 Q120.459 306.322 124.07 306.322 Q127.705 306.322 129.51 302.78 Q131.339 299.215 131.339 292.109 Q131.339 284.979 129.51 281.438 Q127.705 277.873 124.07 277.873 M124.07 274.169 Q129.881 274.169 132.936 278.776 Q136.015 283.359 136.015 292.109 Q136.015 300.836 132.936 305.442 Q129.881 310.026 124.07 310.026 Q118.26 310.026 115.182 305.442 Q112.126 300.836 112.126 292.109 Q112.126 283.359 115.182 278.776 Q118.26 274.169 124.07 274.169 Z" fill="#000000" fill-rule="evenodd" fill-opacity="1" /><path clip-path="url(#clip010)" d="M 0 0 M1179.36 18.8205 L1179.36 65.8515 L1189.25 65.8515 Q1201.76 65.8515 1207.56 60.1802 Q1213.39 54.509 1213.39 42.2752 Q1213.39 30.1225 1207.56 24.4918 Q1201.76 18.8205 1189.25 18.8205 L1179.36 18.8205 M1171.18 12.096 L1187.99 12.096 Q1205.57 12.096 1213.79 19.4281 Q1222.02 26.7198 1222.02 42.2752 Q1222.02 57.9117 1213.75 65.2439 Q1205.49 72.576 1187.99 72.576 L1171.18 72.576 L1171.18 12.096 Z" fill="#000000" fill-rule="evenodd" fill-opacity="1" /><path clip-path="url(#clip010)" d="M 0 0 M1255.36 49.7694 Q1246.32 49.7694 1242.84 51.8354 Q1239.36 53.9013 1239.36 58.8839 Q1239.36 62.8538 1241.95 65.2034 Q1244.58 67.5124 1249.08 67.5124 Q1255.28 67.5124 1259 63.1374 Q1262.77 58.7219 1262.77 51.4303 L1262.77 49.7694 L1255.36 49.7694 M1270.22 46.6907 L1270.22 72.576 L1262.77 72.576 L1262.77 65.6895 Q1260.22 69.8214 1256.41 71.8063 Q1252.6 73.7508 1247.09 73.7508 Q1240.13 73.7508 1235.99 69.8619 Q1231.9 65.9325 1231.9 59.3701 Q1231.9 51.7138 1237.01 47.825 Q1242.15 43.9361 1252.32 43.9361 L1262.77 43.9361 L1262.77 43.2069 Q1262.77 38.0623 1259.37 35.2672 Q1256.01 32.4315 1249.89 32.4315 Q1246 32.4315 1242.31 33.3632 Q1238.63 34.295 1235.22 36.1584 L1235.22 29.2718 Q1239.32 27.692 1243.16 26.9223 Q1247.01 26.1121 1250.66 26.1121 Q1260.5 26.1121 1265.36 31.2163 Q1270.22 36.3204 1270.22 46.6907 Z" fill="#000000" fill-rule="evenodd" fill-opacity="1" /><path clip-path="url(#clip010)" d="M 0 0 M1292.95 14.324 L1292.95 27.2059 L1308.3 27.2059 L1308.3 32.9987 L1292.95 32.9987 L1292.95 57.6282 Q1292.95 63.1779 1294.45 64.7578 Q1295.99 66.3376 1300.65 66.3376 L1308.3 66.3376 L1308.3 72.576 L1300.65 72.576 Q1292.02 72.576 1288.74 69.3758 Q1285.46 66.1351 1285.46 57.6282 L1285.46 32.9987 L1279.99 32.9987 L1279.99 27.2059 L1285.46 27.2059 L1285.46 14.324 L1292.95 14.324 Z" fill="#000000" fill-rule="evenodd" fill-opacity="1" /><path clip-path="url(#clip010)" d="M 0 0 M1338.72 49.7694 Q1329.69 49.7694 1326.21 51.8354 Q1322.72 53.9013 1322.72 58.8839 Q1322.72 62.8538 1325.32 65.2034 Q1327.95 67.5124 1332.45 67.5124 Q1338.64 67.5124 1342.37 63.1374 Q1346.14 58.7219 1346.14 51.4303 L1346.14 49.7694 L1338.72 49.7694 M1353.59 46.6907 L1353.59 72.576 L1346.14 72.576 L1346.14 65.6895 Q1343.59 69.8214 1339.78 71.8063 Q1335.97 73.7508 1330.46 73.7508 Q1323.49 73.7508 1319.36 69.8619 Q1315.27 65.9325 1315.27 59.3701 Q1315.27 51.7138 1320.37 47.825 Q1325.52 43.9361 1335.69 43.9361 L1346.14 43.9361 L1346.14 43.2069 Q1346.14 38.0623 1342.74 35.2672 Q1339.37 32.4315 1333.26 32.4315 Q1329.37 32.4315 1325.68 33.3632 Q1321.99 34.295 1318.59 36.1584 L1318.59 29.2718 Q1322.68 27.692 1326.53 26.9223 Q1330.38 26.1121 1334.03 26.1121 Q1343.87 26.1121 1348.73 31.2163 Q1353.59 36.3204 1353.59 46.6907 Z" fill="#000000" fill-rule="evenodd" fill-opacity="1" /><polyline clip-path="url(#clip012)" style="stroke:#009af9; stroke-width:4; stroke-opacity:1; fill:none" points="
  233.734,1447.87 233.734,1418.98 268.022,1418.98 268.022,1274.5 302.311,1274.5 302.311,1216.71 336.599,1216.71 336.599,1173.37 370.887,1173.37 370.887,1130.03 
  405.176,1130.03 405.176,884.421 439.464,884.421 439.464,1043.34 473.753,1043.34 473.753,985.554 508.041,985.554 508.041,841.079 542.329,841.079 542.329,942.211 
  576.618,942.211 576.618,913.316 610.906,913.316 610.906,1000 645.194,1000 645.194,812.184 679.483,812.184 679.483,1072.24 713.771,1072.24 
  748.06,1072.24 748.06,1028.9 782.348,1028.9 782.348,1245.61 816.636,1245.61 850.925,1245.61 850.925,1303.4 885.213,1303.4 885.213,1361.19 
  919.502,1361.19 919.502,1418.98 953.79,1418.98 988.078,1418.98 1022.37,1418.98 1056.66,1418.98 1056.66,1433.43 
  1090.94,1433.43 1125.23,1433.43 1125.23,1390.08 1159.52,1390.08 1159.52,1375.64 1193.81,1375.64 1228.1,1375.64 1228.1,1260.06 
  1262.39,1260.06 1262.39,1216.71 1296.67,1216.71 1296.67,1173.37 1330.96,1173.37 1330.96,1144.48 1365.25,1144.48 1365.25,942.211 1399.54,942.211 1399.54,898.869 
  1433.83,898.869 1433.83,422.102 1468.12,422.102 1468.12,638.814 1502.4,638.814 1502.4,162.047 1536.69,162.047 1536.69,465.444 1570.98,465.444 1570.98,407.654 
  1605.27,407.654 1605.27,609.919 1639.56,609.919 1639.56,479.892 1673.85,479.892 1673.85,378.759 1708.13,378.759 1708.13,450.997 1742.42,450.997 1742.42,566.576 
  1776.71,566.576 1776.71,898.869 1811,898.869 1811,884.421 1845.29,884.421 1845.29,1086.69 1879.58,1086.69 1879.58,1173.37 1913.86,1173.37 1913.86,1245.61 
  1948.15,1245.61 1948.15,1288.95 1982.44,1288.95 1982.44,1404.53 2016.73,1404.53 2016.73,1375.64 2051.02,1375.64 2051.02,1418.98 2085.31,1418.98 2085.31,1447.87 
  2119.59,1447.87 2153.88,1447.87 2188.17,1447.87 2222.46,1447.87 2256.75,1447.87 
  2291.04,1447.87 
  "/>
<path clip-path="url(#clip010)" d="
M1933.52 289.865 L2280.06 289.865 L2280.06 168.905 L1933.52 168.905  Z
  " fill="#ffffff" fill-rule="evenodd" fill-opacity="1"/>
<polyline clip-path="url(#clip010)" style="stroke:#000000; stroke-width:4; stroke-opacity:1; fill:none" points="
  1933.52,289.865 2280.06,289.865 2280.06,168.905 1933.52,168.905 1933.52,289.865 
  "/>
<polyline clip-path="url(#clip010)" style="stroke:#009af9; stroke-width:4; stroke-opacity:1; fill:none" points="
  1957.75,229.385 2103.14,229.385 
  "/>
<path clip-path="url(#clip010)" d="M 0 0 M2132.04 215.947 L2132.04 242.822 L2137.69 242.822 Q2144.84 242.822 2148.15 239.581 Q2151.49 236.341 2151.49 229.35 Q2151.49 222.406 2148.15 219.188 Q2144.84 215.947 2137.69 215.947 L2132.04 215.947 M2127.37 212.105 L2136.97 212.105 Q2147.02 212.105 2151.72 216.294 Q2156.42 220.461 2156.42 229.35 Q2156.42 238.285 2151.7 242.475 Q2146.97 246.665 2136.97 246.665 L2127.37 246.665 L2127.37 212.105 Z" fill="#000000" fill-rule="evenodd" fill-opacity="1" /><path clip-path="url(#clip010)" d="M 0 0 M2175.47 233.632 Q2170.31 233.632 2168.32 234.813 Q2166.33 235.993 2166.33 238.841 Q2166.33 241.109 2167.81 242.452 Q2169.31 243.771 2171.88 243.771 Q2175.42 243.771 2177.55 241.271 Q2179.71 238.748 2179.71 234.581 L2179.71 233.632 L2175.47 233.632 M2183.96 231.873 L2183.96 246.665 L2179.71 246.665 L2179.71 242.729 Q2178.25 245.091 2176.07 246.225 Q2173.9 247.336 2170.75 247.336 Q2166.77 247.336 2164.4 245.114 Q2162.07 242.868 2162.07 239.118 Q2162.07 234.743 2164.98 232.521 Q2167.92 230.299 2173.73 230.299 L2179.71 230.299 L2179.71 229.882 Q2179.71 226.943 2177.76 225.345 Q2175.84 223.725 2172.34 223.725 Q2170.12 223.725 2168.02 224.257 Q2165.91 224.79 2163.97 225.855 L2163.97 221.919 Q2166.3 221.017 2168.5 220.577 Q2170.7 220.114 2172.78 220.114 Q2178.41 220.114 2181.19 223.031 Q2183.96 225.947 2183.96 231.873 Z" fill="#000000" fill-rule="evenodd" fill-opacity="1" /><path clip-path="url(#clip010)" d="M 0 0 M2196.95 213.378 L2196.95 220.739 L2205.72 220.739 L2205.72 224.049 L2196.95 224.049 L2196.95 238.123 Q2196.95 241.294 2197.81 242.197 Q2198.69 243.1 2201.35 243.1 L2205.72 243.1 L2205.72 246.665 L2201.35 246.665 Q2196.42 246.665 2194.54 244.836 Q2192.67 242.984 2192.67 238.123 L2192.67 224.049 L2189.54 224.049 L2189.54 220.739 L2192.67 220.739 L2192.67 213.378 L2196.95 213.378 Z" fill="#000000" fill-rule="evenodd" fill-opacity="1" /><path clip-path="url(#clip010)" d="M 0 0 M2223.11 233.632 Q2217.95 233.632 2215.96 234.813 Q2213.96 235.993 2213.96 238.841 Q2213.96 241.109 2215.45 242.452 Q2216.95 243.771 2219.52 243.771 Q2223.06 243.771 2225.19 241.271 Q2227.34 238.748 2227.34 234.581 L2227.34 233.632 L2223.11 233.632 M2231.6 231.873 L2231.6 246.665 L2227.34 246.665 L2227.34 242.729 Q2225.89 245.091 2223.71 246.225 Q2221.53 247.336 2218.39 247.336 Q2214.4 247.336 2212.04 245.114 Q2209.71 242.868 2209.71 239.118 Q2209.71 234.743 2212.62 232.521 Q2215.56 230.299 2221.37 230.299 L2227.34 230.299 L2227.34 229.882 Q2227.34 226.943 2225.4 225.345 Q2223.48 223.725 2219.98 223.725 Q2217.76 223.725 2215.65 224.257 Q2213.55 224.79 2211.6 225.855 L2211.6 221.919 Q2213.94 221.017 2216.14 220.577 Q2218.34 220.114 2220.42 220.114 Q2226.05 220.114 2228.83 223.031 Q2231.6 225.947 2231.6 231.873 Z" fill="#000000" fill-rule="evenodd" fill-opacity="1" /></svg>
