<?xml version="1.0" encoding="utf-8"?>
<svg xmlns="http://www.w3.org/2000/svg" xmlns:xlink="http://www.w3.org/1999/xlink" width="600" height="400" viewBox="0 0 2400 1600">
<defs>
  <clipPath id="clip640">
    <rect x="0" y="0" width="2400" height="1600"/>
  </clipPath>
</defs>
<path clip-path="url(#clip640)" d="
M0 1600 L2400 1600 L2400 0 L0 0  Z
  " fill="#ffffff" fill-rule="evenodd" fill-opacity="1"/>
<defs>
  <clipPath id="clip641">
    <rect x="480" y="0" width="1681" height="1600"/>
  </clipPath>
</defs>
<path clip-path="url(#clip640)" d="
M172.015 1486.45 L2352.76 1486.45 L2352.76 123.472 L172.015 123.472  Z
  " fill="#ffffff" fill-rule="evenodd" fill-opacity="1"/>
<defs>
  <clipPath id="clip642">
    <rect x="172" y="123" width="2182" height="1364"/>
  </clipPath>
</defs>
<polyline clip-path="url(#clip642)" style="stroke:#000000; stroke-linecap:butt; stroke-linejoin:round; stroke-width:2; stroke-opacity:0.1; fill:none" points="
  233.734,1486.45 233.734,123.472 
  "/>
<polyline clip-path="url(#clip642)" style="stroke:#000000; stroke-linecap:butt; stroke-linejoin:round; stroke-width:2; stroke-opacity:0.1; fill:none" points="
  748.06,1486.45 748.06,123.472 
  "/>
<polyline clip-path="url(#clip642)" style="stroke:#000000; stroke-linecap:butt; stroke-linejoin:round; stroke-width:2; stroke-opacity:0.1; fill:none" points="
  1262.39,1486.45 1262.39,123.472 
  "/>
<polyline clip-path="url(#clip642)" style="stroke:#000000; stroke-linecap:butt; stroke-linejoin:round; stroke-width:2; stroke-opacity:0.1; fill:none" points="
  1776.71,1486.45 1776.71,123.472 
  "/>
<polyline clip-path="url(#clip642)" style="stroke:#000000; stroke-linecap:butt; stroke-linejoin:round; stroke-width:2; stroke-opacity:0.1; fill:none" points="
  2291.04,1486.45 2291.04,123.472 
  "/>
<polyline clip-path="url(#clip640)" style="stroke:#000000; stroke-linecap:butt; stroke-linejoin:round; stroke-width:4; stroke-opacity:1; fill:none" points="
  172.015,1486.45 2352.76,1486.45 
  "/>
<polyline clip-path="url(#clip640)" style="stroke:#000000; stroke-linecap:butt; stroke-linejoin:round; stroke-width:4; stroke-opacity:1; fill:none" points="
  233.734,1486.45 233.734,1467.55 
  "/>
<polyline clip-path="url(#clip640)" style="stroke:#000000; stroke-linecap:butt; stroke-linejoin:round; stroke-width:4; stroke-opacity:1; fill:none" points="
  748.06,1486.45 748.06,1467.55 
  "/>
<polyline clip-path="url(#clip640)" style="stroke:#000000; stroke-linecap:butt; stroke-linejoin:round; stroke-width:4; stroke-opacity:1; fill:none" points="
  1262.39,1486.45 1262.39,1467.55 
  "/>
<polyline clip-path="url(#clip640)" style="stroke:#000000; stroke-linecap:butt; stroke-linejoin:round; stroke-width:4; stroke-opacity:1; fill:none" points="
  1776.71,1486.45 1776.71,1467.55 
  "/>
<polyline clip-path="url(#clip640)" style="stroke:#000000; stroke-linecap:butt; stroke-linejoin:round; stroke-width:4; stroke-opacity:1; fill:none" points="
  2291.04,1486.45 2291.04,1467.55 
  "/>
<path clip-path="url(#clip640)" d="M202.635 1530.29 L232.31 1530.29 L232.31 1534.23 L202.635 1534.23 L202.635 1530.29 Z" fill="#000000" fill-rule="evenodd" fill-opacity="1" /><path clip-path="url(#clip640)" d="M255.25 1516.63 L243.445 1535.08 L255.25 1535.08 L255.25 1516.63 M254.023 1512.56 L259.903 1512.56 L259.903 1535.08 L264.833 1535.08 L264.833 1538.97 L259.903 1538.97 L259.903 1547.12 L255.25 1547.12 L255.25 1538.97 L239.648 1538.97 L239.648 1534.46 L254.023 1512.56 Z" fill="#000000" fill-rule="evenodd" fill-opacity="1" /><path clip-path="url(#clip640)" d="M718.002 1530.29 L747.678 1530.29 L747.678 1534.23 L718.002 1534.23 L718.002 1530.29 Z" fill="#000000" fill-rule="evenodd" fill-opacity="1" /><path clip-path="url(#clip640)" d="M761.798 1543.18 L778.117 1543.18 L778.117 1547.12 L756.173 1547.12 L756.173 1543.18 Q758.835 1540.43 763.418 1535.8 Q768.025 1531.15 769.205 1529.81 Q771.451 1527.28 772.33 1525.55 Q773.233 1523.79 773.233 1522.1 Q773.233 1519.34 771.289 1517.61 Q769.367 1515.87 766.266 1515.87 Q764.066 1515.87 761.613 1516.63 Q759.182 1517.4 756.404 1518.95 L756.404 1514.23 Q759.229 1513.09 761.682 1512.51 Q764.136 1511.93 766.173 1511.93 Q771.543 1511.93 774.738 1514.62 Q777.932 1517.31 777.932 1521.8 Q777.932 1523.93 777.122 1525.85 Q776.335 1527.74 774.228 1530.34 Q773.65 1531.01 770.548 1534.23 Q767.446 1537.42 761.798 1543.18 Z" fill="#000000" fill-rule="evenodd" fill-opacity="1" /><path clip-path="url(#clip640)" d="M1262.39 1515.64 Q1258.77 1515.64 1256.95 1519.2 Q1255.14 1522.75 1255.14 1529.87 Q1255.14 1536.98 1256.95 1540.55 Q1258.77 1544.09 1262.39 1544.09 Q1266.02 1544.09 1267.83 1540.55 Q1269.65 1536.98 1269.65 1529.87 Q1269.65 1522.75 1267.83 1519.2 Q1266.02 1515.64 1262.39 1515.64 M1262.39 1511.93 Q1268.2 1511.93 1271.25 1516.54 Q1274.33 1521.12 1274.33 1529.87 Q1274.33 1538.6 1271.25 1543.21 Q1268.2 1547.79 1262.39 1547.79 Q1256.58 1547.79 1253.5 1543.21 Q1250.44 1538.6 1250.44 1529.87 Q1250.44 1521.12 1253.5 1516.54 Q1256.58 1511.93 1262.39 1511.93 Z" fill="#000000" fill-rule="evenodd" fill-opacity="1" /><path clip-path="url(#clip640)" d="M1771.36 1543.18 L1787.68 1543.18 L1787.68 1547.12 L1765.74 1547.12 L1765.74 1543.18 Q1768.4 1540.43 1772.98 1535.8 Q1777.59 1531.15 1778.77 1529.81 Q1781.02 1527.28 1781.9 1525.55 Q1782.8 1523.79 1782.8 1522.1 Q1782.8 1519.34 1780.85 1517.61 Q1778.93 1515.87 1775.83 1515.87 Q1773.63 1515.87 1771.18 1516.63 Q1768.75 1517.4 1765.97 1518.95 L1765.97 1514.23 Q1768.79 1513.09 1771.25 1512.51 Q1773.7 1511.93 1775.74 1511.93 Q1781.11 1511.93 1784.3 1514.62 Q1787.5 1517.31 1787.5 1521.8 Q1787.5 1523.93 1786.69 1525.85 Q1785.9 1527.74 1783.79 1530.34 Q1783.22 1531.01 1780.11 1534.23 Q1777.01 1537.42 1771.36 1543.18 Z" fill="#000000" fill-rule="evenodd" fill-opacity="1" /><path clip-path="url(#clip640)" d="M2294.05 1516.63 L2282.24 1535.08 L2294.05 1535.08 L2294.05 1516.63 M2292.82 1512.56 L2298.7 1512.56 L2298.7 1535.08 L2303.63 1535.08 L2303.63 1538.97 L2298.7 1538.97 L2298.7 1547.12 L2294.05 1547.12 L2294.05 1538.97 L2278.44 1538.97 L2278.44 1534.46 L2292.82 1512.56 Z" fill="#000000" fill-rule="evenodd" fill-opacity="1" /><polyline clip-path="url(#clip642)" style="stroke:#000000; stroke-linecap:butt; stroke-linejoin:round; stroke-width:2; stroke-opacity:0.1; fill:none" points="
  172.015,1447.87 2352.76,1447.87 
  "/>
<polyline clip-path="url(#clip642)" style="stroke:#000000; stroke-linecap:butt; stroke-linejoin:round; stroke-width:2; stroke-opacity:0.1; fill:none" points="
  172.015,1174.29 2352.76,1174.29 
  "/>
<polyline clip-path="url(#clip642)" style="stroke:#000000; stroke-linecap:butt; stroke-linejoin:round; stroke-width:2; stroke-opacity:0.1; fill:none" points="
  172.015,900.713 2352.76,900.713 
  "/>
<polyline clip-path="url(#clip642)" style="stroke:#000000; stroke-linecap:butt; stroke-linejoin:round; stroke-width:2; stroke-opacity:0.1; fill:none" points="
  172.015,627.133 2352.76,627.133 
  "/>
<polyline clip-path="url(#clip642)" style="stroke:#000000; stroke-linecap:butt; stroke-linejoin:round; stroke-width:2; stroke-opacity:0.1; fill:none" points="
  172.015,353.553 2352.76,353.553 
  "/>
<polyline clip-path="url(#clip640)" style="stroke:#000000; stroke-linecap:butt; stroke-linejoin:round; stroke-width:4; stroke-opacity:1; fill:none" points="
  172.015,1486.45 172.015,123.472 
  "/>
<polyline clip-path="url(#clip640)" style="stroke:#000000; stroke-linecap:butt; stroke-linejoin:round; stroke-width:4; stroke-opacity:1; fill:none" points="
  172.015,1447.87 190.912,1447.87 
  "/>
<polyline clip-path="url(#clip640)" style="stroke:#000000; stroke-linecap:butt; stroke-linejoin:round; stroke-width:4; stroke-opacity:1; fill:none" points="
  172.015,1174.29 190.912,1174.29 
  "/>
<polyline clip-path="url(#clip640)" style="stroke:#000000; stroke-linecap:butt; stroke-linejoin:round; stroke-width:4; stroke-opacity:1; fill:none" points="
  172.015,900.713 190.912,900.713 
  "/>
<polyline clip-path="url(#clip640)" style="stroke:#000000; stroke-linecap:butt; stroke-linejoin:round; stroke-width:4; stroke-opacity:1; fill:none" points="
  172.015,627.133 190.912,627.133 
  "/>
<polyline clip-path="url(#clip640)" style="stroke:#000000; stroke-linecap:butt; stroke-linejoin:round; stroke-width:4; stroke-opacity:1; fill:none" points="
  172.015,353.553 190.912,353.553 
  "/>
<path clip-path="url(#clip640)" d="M124.07 1433.67 Q120.459 1433.67 118.631 1437.24 Q116.825 1440.78 116.825 1447.91 Q116.825 1455.01 118.631 1458.58 Q120.459 1462.12 124.07 1462.12 Q127.705 1462.12 129.51 1458.58 Q131.339 1455.01 131.339 1447.91 Q131.339 1440.78 129.51 1437.24 Q127.705 1433.67 124.07 1433.67 M124.07 1429.97 Q129.881 1429.97 132.936 1434.57 Q136.015 1439.16 136.015 1447.91 Q136.015 1456.63 132.936 1461.24 Q129.881 1465.82 124.07 1465.82 Q118.26 1465.82 115.182 1461.24 Q112.126 1456.63 112.126 1447.91 Q112.126 1439.16 115.182 1434.57 Q118.26 1429.97 124.07 1429.97 Z" fill="#000000" fill-rule="evenodd" fill-opacity="1" /><path clip-path="url(#clip640)" d="M57.7745 1187.64 L74.0939 1187.64 L74.0939 1191.57 L52.1495 1191.57 L52.1495 1187.64 Q54.8115 1184.88 59.3949 1180.25 Q64.0013 1175.6 65.1819 1174.26 Q67.4272 1171.74 68.3068 1170 Q69.2096 1168.24 69.2096 1166.55 Q69.2096 1163.8 67.2652 1162.06 Q65.3439 1160.32 62.2421 1160.32 Q60.043 1160.32 57.5893 1161.09 Q55.1588 1161.85 52.381 1163.4 L52.381 1158.68 Q55.2051 1157.55 57.6588 1156.97 Q60.1124 1156.39 62.1495 1156.39 Q67.5198 1156.39 70.7142 1159.07 Q73.9087 1161.76 73.9087 1166.25 Q73.9087 1168.38 73.0985 1170.3 Q72.3115 1172.2 70.205 1174.79 Q69.6263 1175.46 66.5245 1178.68 Q63.4226 1181.87 57.7745 1187.64 Z" fill="#000000" fill-rule="evenodd" fill-opacity="1" /><path clip-path="url(#clip640)" d="M93.9086 1160.09 Q90.2975 1160.09 88.4688 1163.66 Q86.6632 1167.2 86.6632 1174.33 Q86.6632 1181.43 88.4688 1185 Q90.2975 1188.54 93.9086 1188.54 Q97.5428 1188.54 99.3483 1185 Q101.177 1181.43 101.177 1174.33 Q101.177 1167.2 99.3483 1163.66 Q97.5428 1160.09 93.9086 1160.09 M93.9086 1156.39 Q99.7187 1156.39 102.774 1160.99 Q105.853 1165.58 105.853 1174.33 Q105.853 1183.05 102.774 1187.66 Q99.7187 1192.24 93.9086 1192.24 Q88.0984 1192.24 85.0197 1187.66 Q81.9642 1183.05 81.9642 1174.33 Q81.9642 1165.58 85.0197 1160.99 Q88.0984 1156.39 93.9086 1156.39 Z" fill="#000000" fill-rule="evenodd" fill-opacity="1" /><path clip-path="url(#clip640)" d="M124.07 1160.09 Q120.459 1160.09 118.631 1163.66 Q116.825 1167.2 116.825 1174.33 Q116.825 1181.43 118.631 1185 Q120.459 1188.54 124.07 1188.54 Q127.705 1188.54 129.51 1185 Q131.339 1181.43 131.339 1174.33 Q131.339 1167.2 129.51 1163.66 Q127.705 1160.09 124.07 1160.09 M124.07 1156.39 Q129.881 1156.39 132.936 1160.99 Q136.015 1165.58 136.015 1174.33 Q136.015 1183.05 132.936 1187.66 Q129.881 1192.24 124.07 1192.24 Q118.26 1192.24 115.182 1187.66 Q112.126 1183.05 112.126 1174.33 Q112.126 1165.58 115.182 1160.99 Q118.26 1156.39 124.07 1156.39 Z" fill="#000000" fill-rule="evenodd" fill-opacity="1" /><path clip-path="url(#clip640)" d="M66.5939 887.507 L54.7884 905.956 L66.5939 905.956 L66.5939 887.507 M65.367 883.433 L71.2466 883.433 L71.2466 905.956 L76.1772 905.956 L76.1772 909.845 L71.2466 909.845 L71.2466 917.993 L66.5939 917.993 L66.5939 909.845 L50.9921 909.845 L50.9921 905.331 L65.367 883.433 Z" fill="#000000" fill-rule="evenodd" fill-opacity="1" /><path clip-path="url(#clip640)" d="M93.9086 886.512 Q90.2975 886.512 88.4688 890.076 Q86.6632 893.618 86.6632 900.748 Q86.6632 907.854 88.4688 911.419 Q90.2975 914.961 93.9086 914.961 Q97.5428 914.961 99.3483 911.419 Q101.177 907.854 101.177 900.748 Q101.177 893.618 99.3483 890.076 Q97.5428 886.512 93.9086 886.512 M93.9086 882.808 Q99.7187 882.808 102.774 887.414 Q105.853 891.998 105.853 900.748 Q105.853 909.475 102.774 914.081 Q99.7187 918.664 93.9086 918.664 Q88.0984 918.664 85.0197 914.081 Q81.9642 909.475 81.9642 900.748 Q81.9642 891.998 85.0197 887.414 Q88.0984 882.808 93.9086 882.808 Z" fill="#000000" fill-rule="evenodd" fill-opacity="1" /><path clip-path="url(#clip640)" d="M124.07 886.512 Q120.459 886.512 118.631 890.076 Q116.825 893.618 116.825 900.748 Q116.825 907.854 118.631 911.419 Q120.459 914.961 124.07 914.961 Q127.705 914.961 129.51 911.419 Q131.339 907.854 131.339 900.748 Q131.339 893.618 129.51 890.076 Q127.705 886.512 124.07 886.512 M124.07 882.808 Q129.881 882.808 132.936 887.414 Q136.015 891.998 136.015 900.748 Q136.015 909.475 132.936 914.081 Q129.881 918.664 124.07 918.664 Q118.26 918.664 115.182 914.081 Q112.126 909.475 112.126 900.748 Q112.126 891.998 115.182 887.414 Q118.26 882.808 124.07 882.808 Z" fill="#000000" fill-rule="evenodd" fill-opacity="1" /><path clip-path="url(#clip640)" d="M64.3254 625.27 Q61.1773 625.27 59.3254 627.422 Q57.4967 629.575 57.4967 633.325 Q57.4967 637.052 59.3254 639.228 Q61.1773 641.381 64.3254 641.381 Q67.4735 641.381 69.3022 639.228 Q71.1541 637.052 71.1541 633.325 Q71.1541 629.575 69.3022 627.422 Q67.4735 625.27 64.3254 625.27 M73.6077 610.617 L73.6077 614.876 Q71.8485 614.043 70.0429 613.603 Q68.2606 613.163 66.5013 613.163 Q61.8717 613.163 59.418 616.288 Q56.9875 619.413 56.6402 625.733 Q58.006 623.719 60.0662 622.654 Q62.1263 621.566 64.6032 621.566 Q69.8115 621.566 72.8207 624.737 Q75.8531 627.885 75.8531 633.325 Q75.8531 638.649 72.705 641.867 Q69.5568 645.084 64.3254 645.084 Q58.33 645.084 55.1588 640.501 Q51.9875 635.895 51.9875 627.168 Q51.9875 618.973 55.8764 614.112 Q59.7652 609.228 66.3161 609.228 Q68.0754 609.228 69.8578 609.575 Q71.6633 609.922 73.6077 610.617 Z" fill="#000000" fill-rule="evenodd" fill-opacity="1" /><path clip-path="url(#clip640)" d="M93.9086 612.932 Q90.2975 612.932 88.4688 616.496 Q86.6632 620.038 86.6632 627.168 Q86.6632 634.274 88.4688 637.839 Q90.2975 641.381 93.9086 641.381 Q97.5428 641.381 99.3483 637.839 Q101.177 634.274 101.177 627.168 Q101.177 620.038 99.3483 616.496 Q97.5428 612.932 93.9086 612.932 M93.9086 609.228 Q99.7187 609.228 102.774 613.834 Q105.853 618.418 105.853 627.168 Q105.853 635.895 102.774 640.501 Q99.7187 645.084 93.9086 645.084 Q88.0984 645.084 85.0197 640.501 Q81.9642 635.895 81.9642 627.168 Q81.9642 618.418 85.0197 613.834 Q88.0984 609.228 93.9086 609.228 Z" fill="#000000" fill-rule="evenodd" fill-opacity="1" /><path clip-path="url(#clip640)" d="M124.07 612.932 Q120.459 612.932 118.631 616.496 Q116.825 620.038 116.825 627.168 Q116.825 634.274 118.631 637.839 Q120.459 641.381 124.07 641.381 Q127.705 641.381 129.51 637.839 Q131.339 634.274 131.339 627.168 Q131.339 620.038 129.51 616.496 Q127.705 612.932 124.07 612.932 M124.07 609.228 Q129.881 609.228 132.936 613.834 Q136.015 618.418 136.015 627.168 Q136.015 635.895 132.936 640.501 Q129.881 645.084 124.07 645.084 Q118.26 645.084 115.182 640.501 Q112.126 635.895 112.126 627.168 Q112.126 618.418 115.182 613.834 Q118.26 609.228 124.07 609.228 Z" fill="#000000" fill-rule="evenodd" fill-opacity="1" /><path clip-path="url(#clip640)" d="M63.7467 354.421 Q60.4134 354.421 58.4921 356.203 Q56.5939 357.986 56.5939 361.111 Q56.5939 364.236 58.4921 366.018 Q60.4134 367.801 63.7467 367.801 Q67.08 367.801 69.0013 366.018 Q70.9226 364.213 70.9226 361.111 Q70.9226 357.986 69.0013 356.203 Q67.1032 354.421 63.7467 354.421 M59.0708 352.43 Q56.0615 351.69 54.3717 349.629 Q52.7051 347.569 52.7051 344.606 Q52.7051 340.463 55.6449 338.055 Q58.6078 335.648 63.7467 335.648 Q68.9087 335.648 71.8485 338.055 Q74.7883 340.463 74.7883 344.606 Q74.7883 347.569 73.0985 349.629 Q71.4318 351.69 68.4457 352.43 Q71.8253 353.217 73.7003 355.509 Q75.5985 357.801 75.5985 361.111 Q75.5985 366.134 72.5198 368.819 Q69.4642 371.504 63.7467 371.504 Q58.0291 371.504 54.9504 368.819 Q51.8949 366.134 51.8949 361.111 Q51.8949 357.801 53.793 355.509 Q55.6912 353.217 59.0708 352.43 M57.3578 345.046 Q57.3578 347.731 59.0245 349.236 Q60.7143 350.74 63.7467 350.74 Q66.7559 350.74 68.4457 349.236 Q70.1587 347.731 70.1587 345.046 Q70.1587 342.361 68.4457 340.856 Q66.7559 339.352 63.7467 339.352 Q60.7143 339.352 59.0245 340.856 Q57.3578 342.361 57.3578 345.046 Z" fill="#000000" fill-rule="evenodd" fill-opacity="1" /><path clip-path="url(#clip640)" d="M93.9086 339.352 Q90.2975 339.352 88.4688 342.916 Q86.6632 346.458 86.6632 353.588 Q86.6632 360.694 88.4688 364.259 Q90.2975 367.801 93.9086 367.801 Q97.5428 367.801 99.3483 364.259 Q101.177 360.694 101.177 353.588 Q101.177 346.458 99.3483 342.916 Q97.5428 339.352 93.9086 339.352 M93.9086 335.648 Q99.7187 335.648 102.774 340.254 Q105.853 344.838 105.853 353.588 Q105.853 362.314 102.774 366.921 Q99.7187 371.504 93.9086 371.504 Q88.0984 371.504 85.0197 366.921 Q81.9642 362.314 81.9642 353.588 Q81.9642 344.838 85.0197 340.254 Q88.0984 335.648 93.9086 335.648 Z" fill="#000000" fill-rule="evenodd" fill-opacity="1" /><path clip-path="url(#clip640)" d="M124.07 339.352 Q120.459 339.352 118.631 342.916 Q116.825 346.458 116.825 353.588 Q116.825 360.694 118.631 364.259 Q120.459 367.801 124.07 367.801 Q127.705 367.801 129.51 364.259 Q131.339 360.694 131.339 353.588 Q131.339 346.458 129.51 342.916 Q127.705 339.352 124.07 339.352 M124.07 335.648 Q129.881 335.648 132.936 340.254 Q136.015 344.838 136.015 353.588 Q136.015 362.314 132.936 366.921 Q129.881 371.504 124.07 371.504 Q118.26 371.504 115.182 366.921 Q112.126 362.314 112.126 353.588 Q112.126 344.838 115.182 340.254 Q118.26 335.648 124.07 335.648 Z" fill="#000000" fill-rule="evenodd" fill-opacity="1" /><path clip-path="url(#clip640)" d="M631.092 18.8205 L631.092 65.8515 L640.977 65.8515 Q653.494 65.8515 659.287 60.1802 Q665.12 54.509 665.12 42.2752 Q665.12 30.1225 659.287 24.4918 Q653.494 18.8205 640.977 18.8205 L631.092 18.8205 M622.91 12.096 L639.721 12.096 Q657.302 12.096 665.525 19.4281 Q673.748 26.7198 673.748 42.2752 Q673.748 57.9117 665.485 65.2439 Q657.221 72.576 639.721 72.576 L622.91 72.576 L622.91 12.096 Z" fill="#000000" fill-rule="evenodd" fill-opacity="1" /><path clip-path="url(#clip640)" d="M707.087 49.7694 Q698.054 49.7694 694.57 51.8354 Q691.086 53.9013 691.086 58.8839 Q691.086 62.8538 693.679 65.2034 Q696.312 67.5124 700.809 67.5124 Q707.006 67.5124 710.733 63.1374 Q714.501 58.7219 714.501 51.4303 L714.501 49.7694 L707.087 49.7694 M721.954 46.6907 L721.954 72.576 L714.501 72.576 L714.501 65.6895 Q711.948 69.8214 708.141 71.8063 Q704.333 73.7508 698.824 73.7508 Q691.856 73.7508 687.724 69.8619 Q683.633 65.9325 683.633 59.3701 Q683.633 51.7138 688.737 47.825 Q693.881 43.9361 704.049 43.9361 L714.501 43.9361 L714.501 43.2069 Q714.501 38.0623 711.098 35.2672 Q707.736 32.4315 701.619 32.4315 Q697.73 32.4315 694.044 33.3632 Q690.357 34.295 686.954 36.1584 L686.954 29.2718 Q691.046 27.692 694.894 26.9223 Q698.743 26.1121 702.388 26.1121 Q712.232 26.1121 717.093 31.2163 Q721.954 36.3204 721.954 46.6907 Z" fill="#000000" fill-rule="evenodd" fill-opacity="1" /><path clip-path="url(#clip640)" d="M744.68 14.324 L744.68 27.2059 L760.033 27.2059 L760.033 32.9987 L744.68 32.9987 L744.68 57.6282 Q744.68 63.1779 746.179 64.7578 Q747.718 66.3376 752.377 66.3376 L760.033 66.3376 L760.033 72.576 L752.377 72.576 Q743.748 72.576 740.467 69.3758 Q737.186 66.1351 737.186 57.6282 L737.186 32.9987 L731.717 32.9987 L731.717 27.2059 L737.186 27.2059 L737.186 14.324 L744.68 14.324 Z" fill="#000000" fill-rule="evenodd" fill-opacity="1" /><path clip-path="url(#clip640)" d="M790.455 49.7694 Q781.422 49.7694 777.938 51.8354 Q774.454 53.9013 774.454 58.8839 Q774.454 62.8538 777.047 65.2034 Q779.68 67.5124 784.176 67.5124 Q790.374 67.5124 794.101 63.1374 Q797.868 58.7219 797.868 51.4303 L797.868 49.7694 L790.455 49.7694 M805.322 46.6907 L805.322 72.576 L797.868 72.576 L797.868 65.6895 Q795.316 69.8214 791.508 71.8063 Q787.7 73.7508 782.191 73.7508 Q775.224 73.7508 771.092 69.8619 Q767 65.9325 767 59.3701 Q767 51.7138 772.104 47.825 Q777.249 43.9361 787.417 43.9361 L797.868 43.9361 L797.868 43.2069 Q797.868 38.0623 794.465 35.2672 Q791.103 32.4315 784.986 32.4315 Q781.097 32.4315 777.411 33.3632 Q773.725 34.295 770.322 36.1584 L770.322 29.2718 Q774.413 27.692 778.262 26.9223 Q782.11 26.1121 785.756 26.1121 Q795.6 26.1121 800.461 31.2163 Q805.322 36.3204 805.322 46.6907 Z" fill="#000000" fill-rule="evenodd" fill-opacity="1" /><path clip-path="url(#clip640)" d="M867.665 49.7694 Q858.632 49.7694 855.148 51.8354 Q851.664 53.9013 851.664 58.8839 Q851.664 62.8538 854.257 65.2034 Q856.89 67.5124 861.386 67.5124 Q867.584 67.5124 871.311 63.1374 Q875.078 58.7219 875.078 51.4303 L875.078 49.7694 L867.665 49.7694 M882.532 46.6907 L882.532 72.576 L875.078 72.576 L875.078 65.6895 Q872.526 69.8214 868.718 71.8063 Q864.911 73.7508 859.401 73.7508 Q852.434 73.7508 848.302 69.8619 Q844.211 65.9325 844.211 59.3701 Q844.211 51.7138 849.315 47.825 Q854.459 43.9361 864.627 43.9361 L875.078 43.9361 L875.078 43.2069 Q875.078 38.0623 871.676 35.2672 Q868.313 32.4315 862.197 32.4315 Q858.308 32.4315 854.621 33.3632 Q850.935 34.295 847.532 36.1584 L847.532 29.2718 Q851.624 27.692 855.472 26.9223 Q859.32 26.1121 862.966 26.1121 Q872.81 26.1121 877.671 31.2163 Q882.532 36.3204 882.532 46.6907 Z" fill="#000000" fill-rule="evenodd" fill-opacity="1" /><path clip-path="url(#clip640)" d="M935.599 45.1919 L935.599 72.576 L928.145 72.576 L928.145 45.4349 Q928.145 38.994 925.634 35.7938 Q923.122 32.5936 918.099 32.5936 Q912.063 32.5936 908.579 36.4419 Q905.096 40.2903 905.096 46.9338 L905.096 72.576 L897.601 72.576 L897.601 27.2059 L905.096 27.2059 L905.096 34.2544 Q907.769 30.163 911.375 28.1376 Q915.02 26.1121 919.76 26.1121 Q927.578 26.1121 931.589 30.9732 Q935.599 35.7938 935.599 45.1919 Z" fill="#000000" fill-rule="evenodd" fill-opacity="1" /><path clip-path="url(#clip640)" d="M980.321 34.0924 L980.321 9.54393 L987.775 9.54393 L987.775 72.576 L980.321 72.576 L980.321 65.7705 Q977.971 69.8214 974.366 71.8063 Q970.801 73.7508 965.778 73.7508 Q957.555 73.7508 952.37 67.1883 Q947.225 60.6258 947.225 49.9314 Q947.225 39.2371 952.37 32.6746 Q957.555 26.1121 965.778 26.1121 Q970.801 26.1121 974.366 28.0971 Q977.971 30.0415 980.321 34.0924 M954.922 49.9314 Q954.922 58.1548 958.284 62.8538 Q961.687 67.5124 967.601 67.5124 Q973.515 67.5124 976.918 62.8538 Q980.321 58.1548 980.321 49.9314 Q980.321 41.7081 976.918 37.0496 Q973.515 32.3505 967.601 32.3505 Q961.687 32.3505 958.284 37.0496 Q954.922 41.7081 954.922 49.9314 Z" fill="#000000" fill-rule="evenodd" fill-opacity="1" /><path clip-path="url(#clip640)" d="M1021.44 12.096 L1072.6 12.096 L1072.6 18.9825 L1051.13 18.9825 L1051.13 72.576 L1042.91 72.576 L1042.91 18.9825 L1021.44 18.9825 L1021.44 12.096 Z" fill="#000000" fill-rule="evenodd" fill-opacity="1" /><path clip-path="url(#clip640)" d="M1094.27 34.1734 Q1093.02 33.4443 1091.52 33.1202 Q1090.06 32.7556 1088.28 32.7556 Q1081.96 32.7556 1078.56 36.8875 Q1075.19 40.9789 1075.19 48.6757 L1075.19 72.576 L1067.7 72.576 L1067.7 27.2059 L1075.19 27.2059 L1075.19 34.2544 Q1077.54 30.1225 1081.31 28.1376 Q1085.08 26.1121 1090.46 26.1121 Q1091.23 26.1121 1092.17 26.2337 Q1093.1 26.3147 1094.23 26.5172 L1094.27 34.1734 Z" fill="#000000" fill-rule="evenodd" fill-opacity="1" /><path clip-path="url(#clip640)" d="M1101.32 54.671 L1101.32 27.2059 L1108.78 27.2059 L1108.78 54.3874 Q1108.78 60.8284 1111.29 64.0691 Q1113.8 67.2693 1118.82 67.2693 Q1124.86 67.2693 1128.34 63.421 Q1131.87 59.5726 1131.87 52.9291 L1131.87 27.2059 L1139.32 27.2059 L1139.32 72.576 L1131.87 72.576 L1131.87 65.6084 Q1129.15 69.7404 1125.55 71.7658 Q1121.98 73.7508 1117.24 73.7508 Q1109.42 73.7508 1105.37 68.8897 Q1101.32 64.0286 1101.32 54.671 M1120.08 26.1121 L1120.08 26.1121 Z" fill="#000000" fill-rule="evenodd" fill-opacity="1" /><path clip-path="url(#clip640)" d="M1193.48 48.0275 L1193.48 51.6733 L1159.21 51.6733 Q1159.69 59.3701 1163.83 63.421 Q1168 67.4314 1175.41 67.4314 Q1179.71 67.4314 1183.72 66.3781 Q1187.77 65.3249 1191.74 63.2184 L1191.74 70.267 Q1187.73 71.9684 1183.51 72.8596 Q1179.3 73.7508 1174.97 73.7508 Q1164.11 73.7508 1157.75 67.4314 Q1151.43 61.1119 1151.43 50.3365 Q1151.43 39.1965 1157.43 32.6746 Q1163.46 26.1121 1173.67 26.1121 Q1182.83 26.1121 1188.13 32.0264 Q1193.48 37.9003 1193.48 48.0275 M1186.03 45.84 Q1185.94 39.7232 1182.58 36.0774 Q1179.26 32.4315 1173.75 32.4315 Q1167.51 32.4315 1163.75 35.9558 Q1160.02 39.4801 1159.45 45.8805 L1186.03 45.84 Z" fill="#000000" fill-rule="evenodd" fill-opacity="1" /><path clip-path="url(#clip640)" d="M1268.66 14.0809 L1268.66 22.0612 Q1264.01 19.8332 1259.87 18.7395 Q1255.74 17.6457 1251.89 17.6457 Q1245.21 17.6457 1241.56 20.2383 Q1237.96 22.8309 1237.96 27.611 Q1237.96 31.6214 1240.35 33.6873 Q1242.78 35.7128 1249.5 36.9686 L1254.45 37.9813 Q1263.6 39.7232 1267.94 44.1387 Q1272.31 48.5136 1272.31 55.8863 Q1272.31 64.6767 1266.4 69.2137 Q1260.52 73.7508 1249.14 73.7508 Q1244.84 73.7508 1239.98 72.7785 Q1235.16 71.8063 1229.98 69.9024 L1229.98 61.4765 Q1234.96 64.2716 1239.74 65.6895 Q1244.52 67.1073 1249.14 67.1073 Q1256.15 67.1073 1259.95 64.3527 Q1263.76 61.598 1263.76 56.4939 Q1263.76 52.0379 1261.01 49.5264 Q1258.29 47.0148 1252.06 45.759 L1247.07 44.7868 Q1237.92 42.9639 1233.83 39.075 Q1229.74 35.1862 1229.74 28.2591 Q1229.74 20.2383 1235.37 15.6203 Q1241.04 11.0023 1250.96 11.0023 Q1255.22 11.0023 1259.63 11.7719 Q1264.05 12.5416 1268.66 14.0809 Z" fill="#000000" fill-rule="evenodd" fill-opacity="1" /><path clip-path="url(#clip640)" d="M1292.12 14.324 L1292.12 27.2059 L1307.47 27.2059 L1307.47 32.9987 L1292.12 32.9987 L1292.12 57.6282 Q1292.12 63.1779 1293.62 64.7578 Q1295.16 66.3376 1299.82 66.3376 L1307.47 66.3376 L1307.47 72.576 L1299.82 72.576 Q1291.19 72.576 1287.91 69.3758 Q1284.62 66.1351 1284.62 57.6282 L1284.62 32.9987 L1279.16 32.9987 L1279.16 27.2059 L1284.62 27.2059 L1284.62 14.324 L1292.12 14.324 Z" fill="#000000" fill-rule="evenodd" fill-opacity="1" /><path clip-path="url(#clip640)" d="M1337.89 49.7694 Q1328.86 49.7694 1325.38 51.8354 Q1321.89 53.9013 1321.89 58.8839 Q1321.89 62.8538 1324.49 65.2034 Q1327.12 67.5124 1331.62 67.5124 Q1337.81 67.5124 1341.54 63.1374 Q1345.31 58.7219 1345.31 51.4303 L1345.31 49.7694 L1337.89 49.7694 M1352.76 46.6907 L1352.76 72.576 L1345.31 72.576 L1345.31 65.6895 Q1342.76 69.8214 1338.95 71.8063 Q1335.14 73.7508 1329.63 73.7508 Q1322.66 73.7508 1318.53 69.8619 Q1314.44 65.9325 1314.44 59.3701 Q1314.44 51.7138 1319.54 47.825 Q1324.69 43.9361 1334.86 43.9361 L1345.31 43.9361 L1345.31 43.2069 Q1345.31 38.0623 1341.9 35.2672 Q1338.54 32.4315 1332.43 32.4315 Q1328.54 32.4315 1324.85 33.3632 Q1321.16 34.295 1317.76 36.1584 L1317.76 29.2718 Q1321.85 27.692 1325.7 26.9223 Q1329.55 26.1121 1333.2 26.1121 Q1343.04 26.1121 1347.9 31.2163 Q1352.76 36.3204 1352.76 46.6907 Z" fill="#000000" fill-rule="evenodd" fill-opacity="1" /><path clip-path="url(#clip640)" d="M1375.49 14.324 L1375.49 27.2059 L1390.84 27.2059 L1390.84 32.9987 L1375.49 32.9987 L1375.49 57.6282 Q1375.49 63.1779 1376.99 64.7578 Q1378.52 66.3376 1383.18 66.3376 L1390.84 66.3376 L1390.84 72.576 L1383.18 72.576 Q1374.55 72.576 1371.27 69.3758 Q1367.99 66.1351 1367.99 57.6282 L1367.99 32.9987 L1362.52 32.9987 L1362.52 27.2059 L1367.99 27.2059 L1367.99 14.324 L1375.49 14.324 Z" fill="#000000" fill-rule="evenodd" fill-opacity="1" /><path clip-path="url(#clip640)" d="M1400.64 27.2059 L1408.1 27.2059 L1408.1 72.576 L1400.64 72.576 L1400.64 27.2059 M1400.64 9.54393 L1408.1 9.54393 L1408.1 18.9825 L1400.64 18.9825 L1400.64 9.54393 Z" fill="#000000" fill-rule="evenodd" fill-opacity="1" /><path clip-path="url(#clip640)" d="M1452.62 28.5427 L1452.62 35.5912 Q1449.46 33.9709 1446.05 33.1607 Q1442.65 32.3505 1439 32.3505 Q1433.46 32.3505 1430.66 34.0519 Q1427.91 35.7533 1427.91 39.156 Q1427.91 41.7486 1429.89 43.2475 Q1431.88 44.7058 1437.87 46.0426 L1440.42 46.6097 Q1448.36 48.3111 1451.68 51.4303 Q1455.05 54.509 1455.05 60.0587 Q1455.05 66.3781 1450.02 70.0644 Q1445.04 73.7508 1436.29 73.7508 Q1432.64 73.7508 1428.67 73.0216 Q1424.75 72.3329 1420.37 70.9151 L1420.37 63.2184 Q1424.5 65.3654 1428.51 66.4591 Q1432.52 67.5124 1436.45 67.5124 Q1441.72 67.5124 1444.55 65.73 Q1447.39 63.9071 1447.39 60.6258 Q1447.39 57.5877 1445.32 55.9673 Q1443.3 54.3469 1436.37 52.8481 L1433.78 52.2405 Q1426.85 50.7821 1423.77 47.7845 Q1420.69 44.7463 1420.69 39.4801 Q1420.69 33.0797 1425.23 29.5959 Q1429.77 26.1121 1438.11 26.1121 Q1442.25 26.1121 1445.89 26.7198 Q1449.54 27.3274 1452.62 28.5427 Z" fill="#000000" fill-rule="evenodd" fill-opacity="1" /><path clip-path="url(#clip640)" d="M1474.29 14.324 L1474.29 27.2059 L1489.64 27.2059 L1489.64 32.9987 L1474.29 32.9987 L1474.29 57.6282 Q1474.29 63.1779 1475.79 64.7578 Q1477.33 66.3376 1481.98 66.3376 L1489.64 66.3376 L1489.64 72.576 L1481.98 72.576 Q1473.36 72.576 1470.08 69.3758 Q1466.79 66.1351 1466.79 57.6282 L1466.79 32.9987 L1461.33 32.9987 L1461.33 27.2059 L1466.79 27.2059 L1466.79 14.324 L1474.29 14.324 Z" fill="#000000" fill-rule="evenodd" fill-opacity="1" /><path clip-path="url(#clip640)" d="M1499.44 27.2059 L1506.9 27.2059 L1506.9 72.576 L1499.44 72.576 L1499.44 27.2059 M1499.44 9.54393 L1506.9 9.54393 L1506.9 18.9825 L1499.44 18.9825 L1499.44 9.54393 Z" fill="#000000" fill-rule="evenodd" fill-opacity="1" /><path clip-path="url(#clip640)" d="M1555.14 28.9478 L1555.14 35.9153 Q1551.98 34.1734 1548.78 33.3227 Q1545.62 32.4315 1542.38 32.4315 Q1535.13 32.4315 1531.12 37.0496 Q1527.11 41.6271 1527.11 49.9314 Q1527.11 58.2358 1531.12 62.8538 Q1535.13 67.4314 1542.38 67.4314 Q1545.62 67.4314 1548.78 66.5807 Q1551.98 65.6895 1555.14 63.9476 L1555.14 70.8341 Q1552.03 72.2924 1548.66 73.0216 Q1545.34 73.7508 1541.57 73.7508 Q1531.32 73.7508 1525.29 67.3098 Q1519.25 60.8689 1519.25 49.9314 Q1519.25 38.832 1525.33 32.472 Q1531.45 26.1121 1542.06 26.1121 Q1545.5 26.1121 1548.78 26.8413 Q1552.07 27.5299 1555.14 28.9478 Z" fill="#000000" fill-rule="evenodd" fill-opacity="1" /><path clip-path="url(#clip640)" d="M1588.73 49.7694 Q1579.69 49.7694 1576.21 51.8354 Q1572.73 53.9013 1572.73 58.8839 Q1572.73 62.8538 1575.32 65.2034 Q1577.95 67.5124 1582.45 67.5124 Q1588.65 67.5124 1592.37 63.1374 Q1596.14 58.7219 1596.14 51.4303 L1596.14 49.7694 L1588.73 49.7694 M1603.59 46.6907 L1603.59 72.576 L1596.14 72.576 L1596.14 65.6895 Q1593.59 69.8214 1589.78 71.8063 Q1585.97 73.7508 1580.46 73.7508 Q1573.49 73.7508 1569.36 69.8619 Q1565.27 65.9325 1565.27 59.3701 Q1565.27 51.7138 1570.38 47.825 Q1575.52 43.9361 1585.69 43.9361 L1596.14 43.9361 L1596.14 43.2069 Q1596.14 38.0623 1592.74 35.2672 Q1589.37 32.4315 1583.26 32.4315 Q1579.37 32.4315 1575.68 33.3632 Q1572 34.295 1568.59 36.1584 L1568.59 29.2718 Q1572.68 27.692 1576.53 26.9223 Q1580.38 26.1121 1584.03 26.1121 Q1593.87 26.1121 1598.73 31.2163 Q1603.59 36.3204 1603.59 46.6907 Z" fill="#000000" fill-rule="evenodd" fill-opacity="1" /><path clip-path="url(#clip640)" d="M1618.95 9.54393 L1626.4 9.54393 L1626.4 72.576 L1618.95 72.576 L1618.95 9.54393 Z" fill="#000000" fill-rule="evenodd" fill-opacity="1" /><path clip-path="url(#clip640)" d="M1668.69 12.096 L1680.88 12.096 L1696.32 53.2532 L1711.83 12.096 L1724.03 12.096 L1724.03 72.576 L1716.05 72.576 L1716.05 19.4686 L1700.45 60.9499 L1692.23 60.9499 L1676.63 19.4686 L1676.63 72.576 L1668.69 72.576 L1668.69 12.096 Z" fill="#000000" fill-rule="evenodd" fill-opacity="1" /><path clip-path="url(#clip640)" d="M1757.53 32.4315 Q1751.53 32.4315 1748.05 37.1306 Q1744.56 41.7891 1744.56 49.9314 Q1744.56 58.0738 1748.01 62.7728 Q1751.49 67.4314 1757.53 67.4314 Q1763.48 67.4314 1766.97 62.7323 Q1770.45 58.0333 1770.45 49.9314 Q1770.45 41.8701 1766.97 37.1711 Q1763.48 32.4315 1757.53 32.4315 M1757.53 26.1121 Q1767.25 26.1121 1772.8 32.4315 Q1778.35 38.7509 1778.35 49.9314 Q1778.35 61.0714 1772.8 67.4314 Q1767.25 73.7508 1757.53 73.7508 Q1747.76 73.7508 1742.21 67.4314 Q1736.71 61.0714 1736.71 49.9314 Q1736.71 38.7509 1742.21 32.4315 Q1747.76 26.1121 1757.53 26.1121 Z" fill="#000000" fill-rule="evenodd" fill-opacity="1" /><path clip-path="url(#clip640)" d="M1820.56 34.0924 L1820.56 9.54393 L1828.01 9.54393 L1828.01 72.576 L1820.56 72.576 L1820.56 65.7705 Q1818.21 69.8214 1814.6 71.8063 Q1811.04 73.7508 1806.02 73.7508 Q1797.79 73.7508 1792.61 67.1883 Q1787.46 60.6258 1787.46 49.9314 Q1787.46 39.2371 1792.61 32.6746 Q1797.79 26.1121 1806.02 26.1121 Q1811.04 26.1121 1814.6 28.0971 Q1818.21 30.0415 1820.56 34.0924 M1795.16 49.9314 Q1795.16 58.1548 1798.52 62.8538 Q1801.93 67.5124 1807.84 67.5124 Q1813.75 67.5124 1817.16 62.8538 Q1820.56 58.1548 1820.56 49.9314 Q1820.56 41.7081 1817.16 37.0496 Q1813.75 32.3505 1807.84 32.3505 Q1801.93 32.3505 1798.52 37.0496 Q1795.16 41.7081 1795.16 49.9314 Z" fill="#000000" fill-rule="evenodd" fill-opacity="1" /><path clip-path="url(#clip640)" d="M1882.17 48.0275 L1882.17 51.6733 L1847.9 51.6733 Q1848.39 59.3701 1852.52 63.421 Q1856.69 67.4314 1864.11 67.4314 Q1868.4 67.4314 1872.41 66.3781 Q1876.46 65.3249 1880.43 63.2184 L1880.43 70.267 Q1876.42 71.9684 1872.21 72.8596 Q1868 73.7508 1863.66 73.7508 Q1852.8 73.7508 1846.44 67.4314 Q1840.13 61.1119 1840.13 50.3365 Q1840.13 39.1965 1846.12 32.6746 Q1852.16 26.1121 1862.36 26.1121 Q1871.52 26.1121 1876.83 32.0264 Q1882.17 37.9003 1882.17 48.0275 M1874.72 45.84 Q1874.64 39.7232 1871.28 36.0774 Q1867.96 32.4315 1862.45 32.4315 Q1856.21 32.4315 1852.44 35.9558 Q1848.71 39.4801 1848.15 45.8805 L1874.72 45.84 Z" fill="#000000" fill-rule="evenodd" fill-opacity="1" /><path clip-path="url(#clip640)" d="M1894.41 9.54393 L1901.86 9.54393 L1901.86 72.576 L1894.41 72.576 L1894.41 9.54393 Z" fill="#000000" fill-rule="evenodd" fill-opacity="1" /><polyline clip-path="url(#clip642)" style="stroke:#009af9; stroke-linecap:butt; stroke-linejoin:round; stroke-width:4; stroke-opacity:1; fill:none" points="
  748.06,1447.87 748.06,1338.44 773.776,1338.44 773.776,1379.48 799.492,1379.48 799.492,1311.08 825.208,1311.08 825.208,1187.97 850.925,1187.97 850.925,1133.26 
  876.641,1133.26 876.641,1023.82 902.357,1023.82 902.357,1133.26 928.074,1133.26 928.074,1023.82 953.79,1023.82 953.79,900.713 979.506,900.713 979.506,873.355 
  1005.22,873.355 1005.22,914.392 1030.94,914.392 1030.94,804.96 1056.66,804.96 1056.66,996.466 1082.37,996.466 1082.37,1119.58 1108.09,1119.58 1108.09,1037.5 
  1133.8,1037.5 1133.8,1146.94 1159.52,1146.94 1159.52,1229.01 1185.24,1229.01 1185.24,1215.33 1210.95,1215.33 1210.95,1297.4 1236.67,1297.4 1236.67,1379.48 
  1262.39,1379.48 1288.1,1379.48 1288.1,1420.52 1313.82,1420.52 1339.53,1420.52 1339.53,1447.87 1365.25,1447.87 
  1390.97,1447.87 1416.68,1447.87 1416.68,1406.84 1442.4,1406.84 1442.4,1434.19 1468.12,1434.19 1468.12,1379.48 1493.83,1379.48 1493.83,1311.08 
  1519.55,1311.08 1519.55,1338.44 1545.26,1338.44 1545.26,1187.97 1570.98,1187.97 1570.98,1051.18 1596.7,1051.18 1596.7,1010.15 1622.41,1010.15 1622.41,900.713 
  1648.13,900.713 1648.13,722.886 1673.85,722.886 1699.56,722.886 1699.56,408.269 1725.28,408.269 1725.28,298.837 1750.99,298.837 1750.99,162.047 
  1776.71,162.047 1776.71,339.874 1802.43,339.874 1802.43,545.059 1828.14,545.059 1828.14,504.022 1853.86,504.022 1879.58,504.022 1879.58,613.454 
  1905.29,613.454 1905.29,695.528 1931.01,695.528 1931.01,1078.54 1956.73,1078.54 1956.73,1010.15 1982.44,1010.15 1982.44,1311.08 2008.16,1311.08 2008.16,1324.76 
  2033.87,1324.76 2033.87,1365.8 2059.59,1365.8 2059.59,1420.52 2085.31,1420.52 2111.02,1420.52 2111.02,1406.84 2136.74,1406.84 2136.74,1447.87 
  2162.46,1447.87 2162.46,1434.19 2188.17,1434.19 2188.17,1447.87 2213.89,1447.87 2239.6,1447.87 2265.32,1447.87 
  2291.04,1447.87 
  "/>
<polyline clip-path="url(#clip642)" style="stroke:#e26f46; stroke-linecap:butt; stroke-linejoin:round; stroke-width:4; stroke-opacity:1; fill:none" points="
  233.734,1447.87 236.306,1447.87 238.877,1447.87 241.449,1447.87 244.02,1447.87 246.592,1447.87 249.164,1447.87 251.735,1447.87 254.307,1447.87 256.879,1447.87 
  259.45,1447.87 262.022,1447.87 264.593,1447.87 267.165,1447.87 269.737,1447.87 272.308,1447.87 274.88,1447.87 277.452,1447.87 280.023,1447.87 282.595,1447.87 
  285.166,1447.87 287.738,1447.87 290.31,1447.87 292.881,1447.87 295.453,1447.87 298.025,1447.87 300.596,1447.87 303.168,1447.87 305.74,1447.87 308.311,1447.87 
  310.883,1447.87 313.454,1447.87 316.026,1447.87 318.598,1447.87 321.169,1447.87 323.741,1447.87 326.313,1447.87 328.884,1447.87 331.456,1447.87 334.027,1447.87 
  336.599,1447.87 339.171,1447.87 341.742,1447.87 344.314,1447.87 346.886,1447.87 349.457,1447.87 352.029,1447.87 354.6,1447.87 357.172,1447.87 359.744,1447.87 
  362.315,1447.87 364.887,1447.87 367.459,1447.87 370.03,1447.87 372.602,1447.87 375.173,1447.87 377.745,1447.87 380.317,1447.87 382.888,1447.87 385.46,1447.87 
  388.032,1447.87 390.603,1447.87 393.175,1447.87 395.747,1447.87 398.318,1447.87 400.89,1447.86 403.461,1447.86 406.033,1447.86 408.605,1447.86 411.176,1447.86 
  413.748,1447.86 416.32,1447.86 418.891,1447.86 421.463,1447.85 424.034,1447.85 426.606,1447.85 429.178,1447.85 431.749,1447.85 434.321,1447.84 436.893,1447.84 
  439.464,1447.84 442.036,1447.84 444.607,1447.83 447.179,1447.83 449.751,1447.82 452.322,1447.82 454.894,1447.82 457.466,1447.81 460.037,1447.8 462.609,1447.8 
  465.18,1447.79 467.752,1447.79 470.324,1447.78 472.895,1447.77 475.467,1447.76 478.039,1447.75 480.61,1447.74 483.182,1447.73 485.754,1447.72 488.325,1447.7 
  490.897,1447.69 493.468,1447.67 496.04,1447.66 498.612,1447.64 501.183,1447.62 503.755,1447.6 506.327,1447.58 508.898,1447.56 511.47,1447.53 514.041,1447.5 
  516.613,1447.47 519.185,1447.44 521.756,1447.41 524.328,1447.37 526.9,1447.33 529.471,1447.29 532.043,1447.25 534.614,1447.2 537.186,1447.15 539.758,1447.09 
  542.329,1447.04 544.901,1446.97 547.473,1446.91 550.044,1446.84 552.616,1446.76 555.187,1446.68 557.759,1446.59 560.331,1446.5 562.902,1446.4 565.474,1446.3 
  568.046,1446.19 570.617,1446.07 573.189,1445.94 575.761,1445.81 578.332,1445.67 580.904,1445.52 583.475,1445.36 586.047,1445.19 588.619,1445.01 591.19,1444.81 
  593.762,1444.61 596.334,1444.4 598.905,1444.17 601.477,1443.93 604.048,1443.67 606.62,1443.4 609.192,1443.12 611.763,1442.82 614.335,1442.5 616.907,1442.16 
  619.478,1441.81 622.05,1441.44 624.621,1441.04 627.193,1440.63 629.765,1440.19 632.336,1439.73 634.908,1439.25 637.48,1438.74 640.051,1438.2 642.623,1437.64 
  645.194,1437.05 647.766,1436.42 650.338,1435.77 652.909,1435.09 655.481,1434.37 658.053,1433.62 660.624,1432.83 663.196,1432.01 665.768,1431.14 668.339,1430.24 
  670.911,1429.29 673.482,1428.31 676.054,1427.27 678.626,1426.2 681.197,1425.07 683.769,1423.9 686.341,1422.67 688.912,1421.4 691.484,1420.07 694.055,1418.68 
  696.627,1417.24 699.199,1415.74 701.77,1414.18 704.342,1412.56 706.914,1410.87 709.485,1409.12 712.057,1407.31 714.628,1405.42 717.2,1403.47 719.772,1401.45 
  722.343,1399.35 724.915,1397.17 727.487,1394.93 730.058,1392.6 732.63,1390.19 735.201,1387.71 737.773,1385.14 740.345,1382.49 742.916,1379.75 745.488,1376.93 
  748.06,1374.02 750.631,1371.02 753.203,1367.93 755.775,1364.75 758.346,1361.48 760.918,1358.12 763.489,1354.66 766.061,1351.11 768.633,1347.46 771.204,1343.72 
  773.776,1339.88 776.348,1335.94 778.919,1331.91 781.491,1327.78 784.062,1323.55 786.634,1319.22 789.206,1314.8 791.777,1310.28 794.349,1305.66 796.921,1300.95 
  799.492,1296.14 802.064,1291.24 804.635,1286.25 807.207,1281.16 809.779,1275.98 812.35,1270.71 814.922,1265.35 817.494,1259.9 820.065,1254.37 822.637,1248.76 
  825.208,1243.06 827.78,1237.29 830.352,1231.44 832.923,1225.51 835.495,1219.52 838.067,1213.46 840.638,1207.33 843.21,1201.14 845.782,1194.9 848.353,1188.6 
  850.925,1182.25 853.496,1175.85 856.068,1169.41 858.64,1162.93 861.211,1156.42 863.783,1149.87 866.355,1143.31 868.926,1136.72 871.498,1130.11 874.069,1123.5 
  876.641,1116.88 879.213,1110.26 881.784,1103.65 884.356,1097.05 886.928,1090.46 889.499,1083.9 892.071,1077.36 894.642,1070.85 897.214,1064.39 899.786,1057.97 
  902.357,1051.6 904.929,1045.29 907.501,1039.05 910.072,1032.87 912.644,1026.76 915.215,1020.74 917.787,1014.81 920.359,1008.96 922.93,1003.22 925.502,997.582 
  928.074,992.055 930.645,986.645 933.217,981.356 935.789,976.196 938.36,971.17 940.932,966.283 943.503,961.54 946.075,956.947 948.647,952.509 951.218,948.23 
  953.79,944.116 956.362,940.172 958.933,936.401 961.505,932.808 964.076,929.397 966.648,926.173 969.22,923.138 971.791,920.297 974.363,917.652 976.935,915.208 
  979.506,912.966 982.078,910.929 984.649,909.1 987.221,907.482 989.793,906.075 992.364,904.882 994.936,903.903 997.508,903.141 1000.08,902.596 1002.65,902.269 
  1005.22,902.16 1007.79,902.269 1010.37,902.596 1012.94,903.141 1015.51,903.903 1018.08,904.882 1020.65,906.075 1023.22,907.482 1025.8,909.1 1028.37,910.929 
  1030.94,912.966 1033.51,915.208 1036.08,917.652 1038.65,920.297 1041.23,923.138 1043.8,926.173 1046.37,929.397 1048.94,932.808 1051.51,936.401 1054.08,940.171 
  1056.66,944.116 1059.23,948.23 1061.8,952.509 1064.37,956.947 1066.94,961.54 1069.51,966.283 1072.08,971.17 1074.66,976.196 1077.23,981.356 1079.8,986.644 
  1082.37,992.055 1084.94,997.582 1087.51,1003.22 1090.09,1008.96 1092.66,1014.8 1095.23,1020.74 1097.8,1026.76 1100.37,1032.87 1102.94,1039.04 1105.52,1045.29 
  1108.09,1051.6 1110.66,1057.97 1113.23,1064.39 1115.8,1070.85 1118.37,1077.36 1120.95,1083.89 1123.52,1090.46 1126.09,1097.04 1128.66,1103.65 1131.23,1110.26 
  1133.8,1116.88 1136.38,1123.5 1138.95,1130.11 1141.52,1136.71 1144.09,1143.3 1146.66,1149.87 1149.23,1156.41 1151.81,1162.92 1154.38,1169.4 1156.95,1175.84 
  1159.52,1182.24 1162.09,1188.59 1164.66,1194.88 1167.24,1201.13 1169.81,1207.32 1172.38,1213.44 1174.95,1219.5 1177.52,1225.49 1180.09,1231.41 1182.66,1237.26 
  1185.24,1243.03 1187.81,1248.73 1190.38,1254.34 1192.95,1259.86 1195.52,1265.31 1198.09,1270.66 1200.67,1275.93 1203.24,1281.1 1205.81,1286.19 1208.38,1291.18 
  1210.95,1296.08 1213.52,1300.88 1216.1,1305.58 1218.67,1310.19 1221.24,1314.7 1223.81,1319.12 1226.38,1323.43 1228.95,1327.65 1231.53,1331.77 1234.1,1335.79 
  1236.67,1339.72 1239.24,1343.54 1241.81,1347.27 1244.38,1350.9 1246.96,1354.43 1249.53,1357.87 1252.1,1361.22 1254.67,1364.46 1257.24,1367.62 1259.81,1370.68 
  1262.39,1373.65 1264.96,1376.53 1267.53,1379.32 1270.1,1382.02 1272.67,1384.64 1275.24,1387.16 1277.82,1389.61 1280.39,1391.96 1282.96,1394.24 1285.53,1396.43 
  1288.1,1398.55 1290.67,1400.58 1293.24,1402.54 1295.82,1404.42 1298.39,1406.23 1300.96,1407.96 1303.53,1409.62 1306.1,1411.21 1308.67,1412.73 1311.25,1414.18 
  1313.82,1415.57 1316.39,1416.88 1318.96,1418.13 1321.53,1419.32 1324.1,1420.45 1326.68,1421.51 1329.25,1422.51 1331.82,1423.45 1334.39,1424.33 1336.96,1425.16 
  1339.53,1425.92 1342.11,1426.63 1344.68,1427.28 1347.25,1427.88 1349.82,1428.42 1352.39,1428.91 1354.96,1429.34 1357.54,1429.71 1360.11,1430.04 1362.68,1430.31 
  1365.25,1430.52 1367.82,1430.69 1370.39,1430.79 1372.97,1430.85 1375.54,1430.85 1378.11,1430.79 1380.68,1430.68 1383.25,1430.52 1385.82,1430.3 1388.4,1430.02 
  1390.97,1429.69 1393.54,1429.29 1396.11,1428.84 1398.68,1428.33 1401.25,1427.76 1403.82,1427.12 1406.4,1426.42 1408.97,1425.66 1411.54,1424.82 1414.11,1423.93 
  1416.68,1422.96 1419.25,1421.92 1421.83,1420.8 1424.4,1419.62 1426.97,1418.35 1429.54,1417.01 1432.11,1415.58 1434.68,1414.07 1437.26,1412.48 1439.83,1410.8 
  1442.4,1409.03 1444.97,1407.16 1447.54,1405.2 1450.11,1403.15 1452.69,1400.99 1455.26,1398.73 1457.83,1396.36 1460.4,1393.88 1462.97,1391.29 1465.54,1388.59 
  1468.12,1385.77 1470.69,1382.83 1473.26,1379.76 1475.83,1376.57 1478.4,1373.25 1480.97,1369.79 1483.55,1366.2 1486.12,1362.48 1488.69,1358.6 1491.26,1354.59 
  1493.83,1350.42 1496.4,1346.11 1498.98,1341.64 1501.55,1337.01 1504.12,1332.22 1506.69,1327.27 1509.26,1322.16 1511.83,1316.87 1514.4,1311.42 1516.98,1305.79 
  1519.55,1299.98 1522.12,1294 1524.69,1287.83 1527.26,1281.49 1529.83,1274.96 1532.41,1268.24 1534.98,1261.33 1537.55,1254.24 1540.12,1246.95 1542.69,1239.47 
  1545.26,1231.8 1547.84,1223.93 1550.41,1215.87 1552.98,1207.62 1555.55,1199.17 1558.12,1190.52 1560.69,1181.68 1563.27,1172.64 1565.84,1163.42 1568.41,1153.99 
  1570.98,1144.38 1573.55,1134.58 1576.12,1124.59 1578.7,1114.41 1581.27,1104.06 1583.84,1093.52 1586.41,1082.8 1588.98,1071.91 1591.55,1060.85 1594.13,1049.62 
  1596.7,1038.23 1599.27,1026.69 1601.84,1014.99 1604.41,1003.14 1606.98,991.157 1609.56,979.034 1612.13,966.782 1614.7,954.406 1617.27,941.915 1619.84,929.315 
  1622.41,916.613 1624.99,903.818 1627.56,890.938 1630.13,877.981 1632.7,864.955 1635.27,851.87 1637.84,838.735 1640.41,825.559 1642.99,812.352 1645.56,799.125 
  1648.13,785.887 1650.7,772.65 1653.27,759.423 1655.84,746.217 1658.42,733.045 1660.99,719.916 1663.56,706.842 1666.13,693.836 1668.7,680.907 1671.27,668.07 
  1673.85,655.334 1676.42,642.713 1678.99,630.217 1681.56,617.86 1684.13,605.653 1686.7,593.608 1689.28,581.738 1691.85,570.053 1694.42,558.567 1696.99,547.291 
  1699.56,536.237 1702.13,525.416 1704.71,514.84 1707.28,504.52 1709.85,494.467 1712.42,484.692 1714.99,475.207 1717.56,466.021 1720.14,457.144 1722.71,448.587 
  1725.28,440.359 1727.85,432.47 1730.42,424.928 1732.99,417.743 1735.57,410.921 1738.14,404.472 1740.71,398.403 1743.28,392.72 1745.85,387.431 1748.42,382.542 
  1750.99,378.058 1753.57,373.985 1756.14,370.328 1758.71,367.09 1761.28,364.277 1763.85,361.89 1766.42,359.934 1769,358.409 1771.57,357.319 1774.14,356.665 
  1776.71,356.447 1779.28,356.665 1781.85,357.319 1784.43,358.409 1787,359.934 1789.57,361.89 1792.14,364.277 1794.71,367.09 1797.28,370.328 1799.86,373.985 
  1802.43,378.058 1805,382.542 1807.57,387.431 1810.14,392.72 1812.71,398.403 1815.29,404.472 1817.86,410.921 1820.43,417.743 1823,424.928 1825.57,432.47 
  1828.14,440.359 1830.72,448.587 1833.29,457.144 1835.86,466.021 1838.43,475.207 1841,484.693 1843.57,494.467 1846.15,504.52 1848.72,514.84 1851.29,525.416 
  1853.86,536.237 1856.43,547.291 1859,558.568 1861.57,570.054 1864.15,581.738 1866.72,593.609 1869.29,605.653 1871.86,617.861 1874.43,630.218 1877,642.713 
  1879.58,655.335 1882.15,668.071 1884.72,680.908 1887.29,693.837 1889.86,706.843 1892.43,719.917 1895.01,733.046 1897.58,746.219 1900.15,759.424 1902.72,772.652 
  1905.29,785.889 1907.86,799.127 1910.44,812.355 1913.01,825.562 1915.58,838.738 1918.15,851.873 1920.72,864.958 1923.29,877.985 1925.87,890.942 1928.44,903.823 
  1931.01,916.619 1933.58,929.321 1936.15,941.922 1938.72,954.414 1941.3,966.79 1943.87,979.043 1946.44,991.167 1949.01,1003.15 1951.58,1015 1954.15,1026.7 
  1956.73,1038.25 1959.3,1049.64 1961.87,1060.87 1964.44,1071.93 1967.01,1082.82 1969.58,1093.54 1972.15,1104.08 1974.73,1114.44 1977.3,1124.62 1979.87,1134.61 
  1982.44,1144.42 1985.01,1154.03 1987.58,1163.46 1990.16,1172.69 1992.73,1181.73 1995.3,1190.57 1997.87,1199.22 2000.44,1207.68 2003.01,1215.94 2005.59,1224.01 
  2008.16,1231.88 2010.73,1239.56 2013.3,1247.05 2015.87,1254.34 2018.44,1261.45 2021.02,1268.36 2023.59,1275.09 2026.16,1281.63 2028.73,1287.99 2031.3,1294.17 
  2033.87,1300.16 2036.45,1305.98 2039.02,1311.63 2041.59,1317.1 2044.16,1322.41 2046.73,1327.54 2049.3,1332.52 2051.88,1337.33 2054.45,1341.98 2057.02,1346.48 
  2059.59,1350.82 2062.16,1355.02 2064.73,1359.07 2067.31,1362.98 2069.88,1366.74 2072.45,1370.38 2075.02,1373.87 2077.59,1377.24 2080.16,1380.49 2082.73,1383.61 
  2085.31,1386.61 2087.88,1389.49 2090.45,1392.26 2093.02,1394.92 2095.59,1397.47 2098.16,1399.92 2100.74,1402.27 2103.31,1404.52 2105.88,1406.67 2108.45,1408.74 
  2111.02,1410.71 2113.59,1412.6 2116.17,1414.41 2118.74,1416.14 2121.31,1417.79 2123.88,1419.36 2126.45,1420.87 2129.02,1422.3 2131.6,1423.67 2134.17,1424.98 
  2136.74,1426.22 2139.31,1427.4 2141.88,1428.53 2144.45,1429.6 2147.03,1430.62 2149.6,1431.59 2152.17,1432.51 2154.74,1433.38 2157.31,1434.21 2159.88,1435 
  2162.46,1435.75 2165.03,1436.46 2167.6,1437.13 2170.17,1437.76 2172.74,1438.37 2175.31,1438.94 2177.89,1439.47 2180.46,1439.98 2183.03,1440.47 2185.6,1440.92 
  2188.17,1441.35 2190.74,1441.76 2193.31,1442.14 2195.89,1442.5 2198.46,1442.84 2201.03,1443.16 2203.6,1443.46 2206.17,1443.75 2208.74,1444.01 2211.32,1444.27 
  2213.89,1444.5 2216.46,1444.72 2219.03,1444.93 2221.6,1445.13 2224.17,1445.31 2226.75,1445.49 2229.32,1445.65 2231.89,1445.8 2234.46,1445.94 2237.03,1446.07 
  2239.6,1446.2 2242.18,1446.32 2244.75,1446.42 2247.32,1446.53 2249.89,1446.62 2252.46,1446.71 2255.03,1446.79 2257.61,1446.87 2260.18,1446.94 2262.75,1447.01 
  2265.32,1447.07 2267.89,1447.13 2270.46,1447.19 2273.04,1447.24 2275.61,1447.29 2278.18,1447.33 2280.75,1447.37 2283.32,1447.41 2285.89,1447.44 2288.47,1447.48 
  2291.04,1447.51 
  "/>
<path clip-path="url(#clip640)" d="
M1921.49 324.425 L2280.06 324.425 L2280.06 168.905 L1921.49 168.905  Z
  " fill="#ffffff" fill-rule="evenodd" fill-opacity="1"/>
<polyline clip-path="url(#clip640)" style="stroke:#000000; stroke-linecap:butt; stroke-linejoin:round; stroke-width:4; stroke-opacity:1; fill:none" points="
  1921.49,324.425 2280.06,324.425 2280.06,168.905 1921.49,168.905 1921.49,324.425 
  "/>
<polyline clip-path="url(#clip640)" style="stroke:#009af9; stroke-linecap:butt; stroke-linejoin:round; stroke-width:4; stroke-opacity:1; fill:none" points="
  1945.72,220.745 2091.1,220.745 
  "/>
<path clip-path="url(#clip640)" d="M2120.01 207.307 L2120.01 234.182 L2125.66 234.182 Q2132.81 234.182 2136.12 230.941 Q2139.45 227.701 2139.45 220.71 Q2139.45 213.766 2136.12 210.548 Q2132.81 207.307 2125.66 207.307 L2120.01 207.307 M2115.33 203.465 L2124.94 203.465 Q2134.98 203.465 2139.68 207.654 Q2144.38 211.821 2144.38 220.71 Q2144.38 229.645 2139.66 233.835 Q2134.94 238.025 2124.94 238.025 L2115.33 238.025 L2115.33 203.465 Z" fill="#000000" fill-rule="evenodd" fill-opacity="1" /><path clip-path="url(#clip640)" d="M2163.43 224.992 Q2158.27 224.992 2156.28 226.173 Q2154.29 227.353 2154.29 230.201 Q2154.29 232.469 2155.77 233.812 Q2157.28 235.131 2159.84 235.131 Q2163.39 235.131 2165.52 232.631 Q2167.67 230.108 2167.67 225.941 L2167.67 224.992 L2163.43 224.992 M2171.93 223.233 L2171.93 238.025 L2167.67 238.025 L2167.67 234.089 Q2166.21 236.451 2164.03 237.585 Q2161.86 238.696 2158.71 238.696 Q2154.73 238.696 2152.37 236.474 Q2150.03 234.228 2150.03 230.478 Q2150.03 226.103 2152.95 223.881 Q2155.89 221.659 2161.7 221.659 L2167.67 221.659 L2167.67 221.242 Q2167.67 218.303 2165.72 216.705 Q2163.8 215.085 2160.31 215.085 Q2158.09 215.085 2155.98 215.617 Q2153.87 216.15 2151.93 217.215 L2151.93 213.279 Q2154.27 212.377 2156.47 211.937 Q2158.66 211.474 2160.75 211.474 Q2166.37 211.474 2169.15 214.391 Q2171.93 217.307 2171.93 223.233 Z" fill="#000000" fill-rule="evenodd" fill-opacity="1" /><path clip-path="url(#clip640)" d="M2184.91 204.738 L2184.91 212.099 L2193.69 212.099 L2193.69 215.409 L2184.91 215.409 L2184.91 229.483 Q2184.91 232.654 2185.77 233.557 Q2186.65 234.46 2189.31 234.46 L2193.69 234.46 L2193.69 238.025 L2189.31 238.025 Q2184.38 238.025 2182.51 236.196 Q2180.63 234.344 2180.63 229.483 L2180.63 215.409 L2177.51 215.409 L2177.51 212.099 L2180.63 212.099 L2180.63 204.738 L2184.91 204.738 Z" fill="#000000" fill-rule="evenodd" fill-opacity="1" /><path clip-path="url(#clip640)" d="M2211.07 224.992 Q2205.91 224.992 2203.92 226.173 Q2201.93 227.353 2201.93 230.201 Q2201.93 232.469 2203.41 233.812 Q2204.91 235.131 2207.48 235.131 Q2211.03 235.131 2213.15 232.631 Q2215.31 230.108 2215.31 225.941 L2215.31 224.992 L2211.07 224.992 M2219.57 223.233 L2219.57 238.025 L2215.31 238.025 L2215.31 234.089 Q2213.85 236.451 2211.67 237.585 Q2209.5 238.696 2206.35 238.696 Q2202.37 238.696 2200.01 236.474 Q2197.67 234.228 2197.67 230.478 Q2197.67 226.103 2200.59 223.881 Q2203.53 221.659 2209.34 221.659 L2215.31 221.659 L2215.31 221.242 Q2215.31 218.303 2213.36 216.705 Q2211.44 215.085 2207.95 215.085 Q2205.72 215.085 2203.62 215.617 Q2201.51 216.15 2199.57 217.215 L2199.57 213.279 Q2201.9 212.377 2204.1 211.937 Q2206.3 211.474 2208.39 211.474 Q2214.01 211.474 2216.79 214.391 Q2219.57 217.307 2219.57 223.233 Z" fill="#000000" fill-rule="evenodd" fill-opacity="1" /><polyline clip-path="url(#clip640)" style="stroke:#e26f46; stroke-linecap:butt; stroke-linejoin:round; stroke-width:4; stroke-opacity:1; fill:none" points="
  1945.72,272.585 2091.1,272.585 
  "/>
<path clip-path="url(#clip640)" d="M2115.33 255.305 L2144.57 255.305 L2144.57 259.24 L2132.3 259.24 L2132.3 289.865 L2127.6 289.865 L2127.6 259.24 L2115.33 259.24 L2115.33 255.305 Z" fill="#000000" fill-rule="evenodd" fill-opacity="1" /><path clip-path="url(#clip640)" d="M2156.95 267.92 Q2156.23 267.504 2155.38 267.318 Q2154.54 267.11 2153.53 267.11 Q2149.91 267.11 2147.97 269.471 Q2146.05 271.809 2146.05 276.207 L2146.05 289.865 L2141.77 289.865 L2141.77 263.939 L2146.05 263.939 L2146.05 267.967 Q2147.39 265.606 2149.54 264.471 Q2151.7 263.314 2154.78 263.314 Q2155.22 263.314 2155.75 263.383 Q2156.28 263.43 2156.93 263.545 L2156.95 267.92 Z" fill="#000000" fill-rule="evenodd" fill-opacity="1" /><path clip-path="url(#clip640)" d="M2160.98 279.633 L2160.98 263.939 L2165.24 263.939 L2165.24 279.471 Q2165.24 283.152 2166.67 285.004 Q2168.11 286.832 2170.98 286.832 Q2174.43 286.832 2176.42 284.633 Q2178.43 282.434 2178.43 278.638 L2178.43 263.939 L2182.69 263.939 L2182.69 289.865 L2178.43 289.865 L2178.43 285.883 Q2176.88 288.244 2174.82 289.402 Q2172.78 290.536 2170.08 290.536 Q2165.61 290.536 2163.29 287.758 Q2160.98 284.98 2160.98 279.633 M2171.7 263.314 L2171.7 263.314 Z" fill="#000000" fill-rule="evenodd" fill-opacity="1" /><path clip-path="url(#clip640)" d="M2195.68 256.578 L2195.68 263.939 L2204.45 263.939 L2204.45 267.249 L2195.68 267.249 L2195.68 281.323 Q2195.68 284.494 2196.53 285.397 Q2197.41 286.3 2200.08 286.3 L2204.45 286.3 L2204.45 289.865 L2200.08 289.865 Q2195.15 289.865 2193.27 288.036 Q2191.4 286.184 2191.4 281.323 L2191.4 267.249 L2188.27 267.249 L2188.27 263.939 L2191.4 263.939 L2191.4 256.578 L2195.68 256.578 Z" fill="#000000" fill-rule="evenodd" fill-opacity="1" /><path clip-path="url(#clip640)" d="M2231.6 274.217 L2231.6 289.865 L2227.34 289.865 L2227.34 274.355 Q2227.34 270.675 2225.91 268.846 Q2224.47 267.018 2221.6 267.018 Q2218.15 267.018 2216.16 269.217 Q2214.17 271.416 2214.17 275.212 L2214.17 289.865 L2209.89 289.865 L2209.89 253.846 L2214.17 253.846 L2214.17 267.967 Q2215.7 265.629 2217.76 264.471 Q2219.84 263.314 2222.55 263.314 Q2227.02 263.314 2229.31 266.092 Q2231.6 268.846 2231.6 274.217 Z" fill="#000000" fill-rule="evenodd" fill-opacity="1" /></svg>
