<?xml version="1.0" encoding="utf-8"?>
<svg xmlns="http://www.w3.org/2000/svg" xmlns:xlink="http://www.w3.org/1999/xlink" width="600" height="400" viewBox="0 0 2400 1600">
<defs>
  <clipPath id="clip610">
    <rect x="0" y="0" width="2400" height="1600"/>
  </clipPath>
</defs>
<path clip-path="url(#clip610)" d="
M0 1600 L2400 1600 L2400 0 L0 0  Z
  " fill="#ffffff" fill-rule="evenodd" fill-opacity="1"/>
<defs>
  <clipPath id="clip611">
    <rect x="480" y="0" width="1681" height="1600"/>
  </clipPath>
</defs>
<path clip-path="url(#clip610)" d="
M172.015 1486.45 L2352.76 1486.45 L2352.76 123.472 L172.015 123.472  Z
  " fill="#ffffff" fill-rule="evenodd" fill-opacity="1"/>
<defs>
  <clipPath id="clip612">
    <rect x="172" y="123" width="2182" height="1364"/>
  </clipPath>
</defs>
<polyline clip-path="url(#clip612)" style="stroke:#000000; stroke-linecap:butt; stroke-linejoin:round; stroke-width:2; stroke-opacity:0.1; fill:none" points="
  233.734,1486.45 233.734,123.472 
  "/>
<polyline clip-path="url(#clip612)" style="stroke:#000000; stroke-linecap:butt; stroke-linejoin:round; stroke-width:2; stroke-opacity:0.1; fill:none" points="
  576.618,1486.45 576.618,123.472 
  "/>
<polyline clip-path="url(#clip612)" style="stroke:#000000; stroke-linecap:butt; stroke-linejoin:round; stroke-width:2; stroke-opacity:0.1; fill:none" points="
  919.502,1486.45 919.502,123.472 
  "/>
<polyline clip-path="url(#clip612)" style="stroke:#000000; stroke-linecap:butt; stroke-linejoin:round; stroke-width:2; stroke-opacity:0.1; fill:none" points="
  1262.39,1486.45 1262.39,123.472 
  "/>
<polyline clip-path="url(#clip612)" style="stroke:#000000; stroke-linecap:butt; stroke-linejoin:round; stroke-width:2; stroke-opacity:0.1; fill:none" points="
  1605.27,1486.45 1605.27,123.472 
  "/>
<polyline clip-path="url(#clip612)" style="stroke:#000000; stroke-linecap:butt; stroke-linejoin:round; stroke-width:2; stroke-opacity:0.1; fill:none" points="
  1948.15,1486.45 1948.15,123.472 
  "/>
<polyline clip-path="url(#clip612)" style="stroke:#000000; stroke-linecap:butt; stroke-linejoin:round; stroke-width:2; stroke-opacity:0.1; fill:none" points="
  2291.04,1486.45 2291.04,123.472 
  "/>
<polyline clip-path="url(#clip610)" style="stroke:#000000; stroke-linecap:butt; stroke-linejoin:round; stroke-width:4; stroke-opacity:1; fill:none" points="
  172.015,1486.45 2352.76,1486.45 
  "/>
<polyline clip-path="url(#clip610)" style="stroke:#000000; stroke-linecap:butt; stroke-linejoin:round; stroke-width:4; stroke-opacity:1; fill:none" points="
  233.734,1486.45 233.734,1467.55 
  "/>
<polyline clip-path="url(#clip610)" style="stroke:#000000; stroke-linecap:butt; stroke-linejoin:round; stroke-width:4; stroke-opacity:1; fill:none" points="
  576.618,1486.45 576.618,1467.55 
  "/>
<polyline clip-path="url(#clip610)" style="stroke:#000000; stroke-linecap:butt; stroke-linejoin:round; stroke-width:4; stroke-opacity:1; fill:none" points="
  919.502,1486.45 919.502,1467.55 
  "/>
<polyline clip-path="url(#clip610)" style="stroke:#000000; stroke-linecap:butt; stroke-linejoin:round; stroke-width:4; stroke-opacity:1; fill:none" points="
  1262.39,1486.45 1262.39,1467.55 
  "/>
<polyline clip-path="url(#clip610)" style="stroke:#000000; stroke-linecap:butt; stroke-linejoin:round; stroke-width:4; stroke-opacity:1; fill:none" points="
  1605.27,1486.45 1605.27,1467.55 
  "/>
<polyline clip-path="url(#clip610)" style="stroke:#000000; stroke-linecap:butt; stroke-linejoin:round; stroke-width:4; stroke-opacity:1; fill:none" points="
  1948.15,1486.45 1948.15,1467.55 
  "/>
<polyline clip-path="url(#clip610)" style="stroke:#000000; stroke-linecap:butt; stroke-linejoin:round; stroke-width:4; stroke-opacity:1; fill:none" points="
  2291.04,1486.45 2291.04,1467.55 
  "/>
<path clip-path="url(#clip610)" d="M203.676 1530.29 L233.352 1530.29 L233.352 1534.23 L203.676 1534.23 L203.676 1530.29 Z" fill="#000000" fill-rule="evenodd" fill-opacity="1" /><path clip-path="url(#clip610)" d="M247.472 1543.18 L263.792 1543.18 L263.792 1547.12 L241.847 1547.12 L241.847 1543.18 Q244.509 1540.43 249.093 1535.8 Q253.699 1531.15 254.88 1529.81 Q257.125 1527.28 258.005 1525.55 Q258.907 1523.79 258.907 1522.1 Q258.907 1519.34 256.963 1517.61 Q255.042 1515.87 251.94 1515.87 Q249.741 1515.87 247.287 1516.63 Q244.857 1517.4 242.079 1518.95 L242.079 1514.23 Q244.903 1513.09 247.357 1512.51 Q249.81 1511.93 251.847 1511.93 Q257.218 1511.93 260.412 1514.62 Q263.606 1517.31 263.606 1521.8 Q263.606 1523.93 262.796 1525.85 Q262.009 1527.74 259.903 1530.34 Q259.324 1531.01 256.222 1534.23 Q253.12 1537.42 247.472 1543.18 Z" fill="#000000" fill-rule="evenodd" fill-opacity="1" /><path clip-path="url(#clip610)" d="M546.375 1530.29 L576.051 1530.29 L576.051 1534.23 L546.375 1534.23 L546.375 1530.29 Z" fill="#000000" fill-rule="evenodd" fill-opacity="1" /><path clip-path="url(#clip610)" d="M586.953 1543.18 L594.592 1543.18 L594.592 1516.82 L586.282 1518.49 L586.282 1514.23 L594.546 1512.56 L599.222 1512.56 L599.222 1543.18 L606.861 1543.18 L606.861 1547.12 L586.953 1547.12 L586.953 1543.18 Z" fill="#000000" fill-rule="evenodd" fill-opacity="1" /><path clip-path="url(#clip610)" d="M919.502 1515.64 Q915.89 1515.64 914.062 1519.2 Q912.256 1522.75 912.256 1529.87 Q912.256 1536.98 914.062 1540.55 Q915.89 1544.09 919.502 1544.09 Q923.136 1544.09 924.941 1540.55 Q926.77 1536.98 926.77 1529.87 Q926.77 1522.75 924.941 1519.2 Q923.136 1515.64 919.502 1515.64 M919.502 1511.93 Q925.312 1511.93 928.367 1516.54 Q931.446 1521.12 931.446 1529.87 Q931.446 1538.6 928.367 1543.21 Q925.312 1547.79 919.502 1547.79 Q913.691 1547.79 910.613 1543.21 Q907.557 1538.6 907.557 1529.87 Q907.557 1521.12 910.613 1516.54 Q913.691 1511.93 919.502 1511.93 Z" fill="#000000" fill-rule="evenodd" fill-opacity="1" /><path clip-path="url(#clip610)" d="M1252.77 1543.18 L1260.41 1543.18 L1260.41 1516.82 L1252.1 1518.49 L1252.1 1514.23 L1260.36 1512.56 L1265.04 1512.56 L1265.04 1543.18 L1272.67 1543.18 L1272.67 1547.12 L1252.77 1547.12 L1252.77 1543.18 Z" fill="#000000" fill-rule="evenodd" fill-opacity="1" /><path clip-path="url(#clip610)" d="M1599.92 1543.18 L1616.24 1543.18 L1616.24 1547.12 L1594.3 1547.12 L1594.3 1543.18 Q1596.96 1540.43 1601.54 1535.8 Q1606.15 1531.15 1607.33 1529.81 Q1609.57 1527.28 1610.45 1525.55 Q1611.36 1523.79 1611.36 1522.1 Q1611.36 1519.34 1609.41 1517.61 Q1607.49 1515.87 1604.39 1515.87 Q1602.19 1515.87 1599.74 1516.63 Q1597.31 1517.4 1594.53 1518.95 L1594.53 1514.23 Q1597.35 1513.09 1599.81 1512.51 Q1602.26 1511.93 1604.3 1511.93 Q1609.67 1511.93 1612.86 1514.62 Q1616.06 1517.31 1616.06 1521.8 Q1616.06 1523.93 1615.25 1525.85 Q1614.46 1527.74 1612.35 1530.34 Q1611.77 1531.01 1608.67 1534.23 Q1605.57 1537.42 1599.92 1543.18 Z" fill="#000000" fill-rule="evenodd" fill-opacity="1" /><path clip-path="url(#clip610)" d="M1952.4 1528.49 Q1955.76 1529.2 1957.63 1531.47 Q1959.53 1533.74 1959.53 1537.07 Q1959.53 1542.19 1956.01 1544.99 Q1952.49 1547.79 1946.01 1547.79 Q1943.84 1547.79 1941.52 1547.35 Q1939.23 1546.93 1936.78 1546.08 L1936.78 1541.56 Q1938.72 1542.7 1941.03 1543.28 Q1943.35 1543.86 1945.87 1543.86 Q1950.27 1543.86 1952.56 1542.12 Q1954.88 1540.38 1954.88 1537.07 Q1954.88 1534.02 1952.72 1532.31 Q1950.6 1530.57 1946.78 1530.57 L1942.75 1530.57 L1942.75 1526.73 L1946.96 1526.73 Q1950.41 1526.73 1952.24 1525.36 Q1954.07 1523.97 1954.07 1521.38 Q1954.07 1518.72 1952.17 1517.31 Q1950.29 1515.87 1946.78 1515.87 Q1944.85 1515.87 1942.66 1516.29 Q1940.46 1516.7 1937.82 1517.58 L1937.82 1513.42 Q1940.48 1512.68 1942.79 1512.31 Q1945.13 1511.93 1947.19 1511.93 Q1952.52 1511.93 1955.62 1514.37 Q1958.72 1516.77 1958.72 1520.89 Q1958.72 1523.76 1957.08 1525.75 Q1955.43 1527.72 1952.4 1528.49 Z" fill="#000000" fill-rule="evenodd" fill-opacity="1" /><path clip-path="url(#clip610)" d="M2294.05 1516.63 L2282.24 1535.08 L2294.05 1535.08 L2294.05 1516.63 M2292.82 1512.56 L2298.7 1512.56 L2298.7 1535.08 L2303.63 1535.08 L2303.63 1538.97 L2298.7 1538.97 L2298.7 1547.12 L2294.05 1547.12 L2294.05 1538.97 L2278.44 1538.97 L2278.44 1534.46 L2292.82 1512.56 Z" fill="#000000" fill-rule="evenodd" fill-opacity="1" /><polyline clip-path="url(#clip612)" style="stroke:#000000; stroke-linecap:butt; stroke-linejoin:round; stroke-width:2; stroke-opacity:0.1; fill:none" points="
  172.015,1447.87 2352.76,1447.87 
  "/>
<polyline clip-path="url(#clip612)" style="stroke:#000000; stroke-linecap:butt; stroke-linejoin:round; stroke-width:2; stroke-opacity:0.1; fill:none" points="
  172.015,1174.29 2352.76,1174.29 
  "/>
<polyline clip-path="url(#clip612)" style="stroke:#000000; stroke-linecap:butt; stroke-linejoin:round; stroke-width:2; stroke-opacity:0.1; fill:none" points="
  172.015,900.713 2352.76,900.713 
  "/>
<polyline clip-path="url(#clip612)" style="stroke:#000000; stroke-linecap:butt; stroke-linejoin:round; stroke-width:2; stroke-opacity:0.1; fill:none" points="
  172.015,627.133 2352.76,627.133 
  "/>
<polyline clip-path="url(#clip612)" style="stroke:#000000; stroke-linecap:butt; stroke-linejoin:round; stroke-width:2; stroke-opacity:0.1; fill:none" points="
  172.015,353.553 2352.76,353.553 
  "/>
<polyline clip-path="url(#clip610)" style="stroke:#000000; stroke-linecap:butt; stroke-linejoin:round; stroke-width:4; stroke-opacity:1; fill:none" points="
  172.015,1486.45 172.015,123.472 
  "/>
<polyline clip-path="url(#clip610)" style="stroke:#000000; stroke-linecap:butt; stroke-linejoin:round; stroke-width:4; stroke-opacity:1; fill:none" points="
  172.015,1447.87 190.912,1447.87 
  "/>
<polyline clip-path="url(#clip610)" style="stroke:#000000; stroke-linecap:butt; stroke-linejoin:round; stroke-width:4; stroke-opacity:1; fill:none" points="
  172.015,1174.29 190.912,1174.29 
  "/>
<polyline clip-path="url(#clip610)" style="stroke:#000000; stroke-linecap:butt; stroke-linejoin:round; stroke-width:4; stroke-opacity:1; fill:none" points="
  172.015,900.713 190.912,900.713 
  "/>
<polyline clip-path="url(#clip610)" style="stroke:#000000; stroke-linecap:butt; stroke-linejoin:round; stroke-width:4; stroke-opacity:1; fill:none" points="
  172.015,627.133 190.912,627.133 
  "/>
<polyline clip-path="url(#clip610)" style="stroke:#000000; stroke-linecap:butt; stroke-linejoin:round; stroke-width:4; stroke-opacity:1; fill:none" points="
  172.015,353.553 190.912,353.553 
  "/>
<path clip-path="url(#clip610)" d="M124.07 1433.67 Q120.459 1433.67 118.631 1437.24 Q116.825 1440.78 116.825 1447.91 Q116.825 1455.01 118.631 1458.58 Q120.459 1462.12 124.07 1462.12 Q127.705 1462.12 129.51 1458.58 Q131.339 1455.01 131.339 1447.91 Q131.339 1440.78 129.51 1437.24 Q127.705 1433.67 124.07 1433.67 M124.07 1429.97 Q129.881 1429.97 132.936 1434.57 Q136.015 1439.16 136.015 1447.91 Q136.015 1456.63 132.936 1461.24 Q129.881 1465.82 124.07 1465.82 Q118.26 1465.82 115.182 1461.24 Q112.126 1456.63 112.126 1447.91 Q112.126 1439.16 115.182 1434.57 Q118.26 1429.97 124.07 1429.97 Z" fill="#000000" fill-rule="evenodd" fill-opacity="1" /><path clip-path="url(#clip610)" d="M57.7745 1187.64 L74.0939 1187.64 L74.0939 1191.57 L52.1495 1191.57 L52.1495 1187.64 Q54.8115 1184.88 59.3949 1180.25 Q64.0013 1175.6 65.1819 1174.26 Q67.4272 1171.74 68.3068 1170 Q69.2096 1168.24 69.2096 1166.55 Q69.2096 1163.8 67.2652 1162.06 Q65.3439 1160.32 62.2421 1160.32 Q60.043 1160.32 57.5893 1161.09 Q55.1588 1161.85 52.381 1163.4 L52.381 1158.68 Q55.2051 1157.55 57.6588 1156.97 Q60.1124 1156.39 62.1495 1156.39 Q67.5198 1156.39 70.7142 1159.07 Q73.9087 1161.76 73.9087 1166.25 Q73.9087 1168.38 73.0985 1170.3 Q72.3115 1172.2 70.205 1174.79 Q69.6263 1175.46 66.5245 1178.68 Q63.4226 1181.87 57.7745 1187.64 Z" fill="#000000" fill-rule="evenodd" fill-opacity="1" /><path clip-path="url(#clip610)" d="M93.9086 1160.09 Q90.2975 1160.09 88.4688 1163.66 Q86.6632 1167.2 86.6632 1174.33 Q86.6632 1181.43 88.4688 1185 Q90.2975 1188.54 93.9086 1188.54 Q97.5428 1188.54 99.3483 1185 Q101.177 1181.43 101.177 1174.33 Q101.177 1167.2 99.3483 1163.66 Q97.5428 1160.09 93.9086 1160.09 M93.9086 1156.39 Q99.7187 1156.39 102.774 1160.99 Q105.853 1165.58 105.853 1174.33 Q105.853 1183.05 102.774 1187.66 Q99.7187 1192.24 93.9086 1192.24 Q88.0984 1192.24 85.0197 1187.66 Q81.9642 1183.05 81.9642 1174.33 Q81.9642 1165.58 85.0197 1160.99 Q88.0984 1156.39 93.9086 1156.39 Z" fill="#000000" fill-rule="evenodd" fill-opacity="1" /><path clip-path="url(#clip610)" d="M124.07 1160.09 Q120.459 1160.09 118.631 1163.66 Q116.825 1167.2 116.825 1174.33 Q116.825 1181.43 118.631 1185 Q120.459 1188.54 124.07 1188.54 Q127.705 1188.54 129.51 1185 Q131.339 1181.43 131.339 1174.33 Q131.339 1167.2 129.51 1163.66 Q127.705 1160.09 124.07 1160.09 M124.07 1156.39 Q129.881 1156.39 132.936 1160.99 Q136.015 1165.58 136.015 1174.33 Q136.015 1183.05 132.936 1187.66 Q129.881 1192.24 124.07 1192.24 Q118.26 1192.24 115.182 1187.66 Q112.126 1183.05 112.126 1174.33 Q112.126 1165.58 115.182 1160.99 Q118.26 1156.39 124.07 1156.39 Z" fill="#000000" fill-rule="evenodd" fill-opacity="1" /><path clip-path="url(#clip610)" d="M66.5939 887.507 L54.7884 905.956 L66.5939 905.956 L66.5939 887.507 M65.367 883.433 L71.2466 883.433 L71.2466 905.956 L76.1772 905.956 L76.1772 909.845 L71.2466 909.845 L71.2466 917.993 L66.5939 917.993 L66.5939 909.845 L50.9921 909.845 L50.9921 905.331 L65.367 883.433 Z" fill="#000000" fill-rule="evenodd" fill-opacity="1" /><path clip-path="url(#clip610)" d="M93.9086 886.512 Q90.2975 886.512 88.4688 890.076 Q86.6632 893.618 86.6632 900.748 Q86.6632 907.854 88.4688 911.419 Q90.2975 914.961 93.9086 914.961 Q97.5428 914.961 99.3483 911.419 Q101.177 907.854 101.177 900.748 Q101.177 893.618 99.3483 890.076 Q97.5428 886.512 93.9086 886.512 M93.9086 882.808 Q99.7187 882.808 102.774 887.414 Q105.853 891.998 105.853 900.748 Q105.853 909.475 102.774 914.081 Q99.7187 918.664 93.9086 918.664 Q88.0984 918.664 85.0197 914.081 Q81.9642 909.475 81.9642 900.748 Q81.9642 891.998 85.0197 887.414 Q88.0984 882.808 93.9086 882.808 Z" fill="#000000" fill-rule="evenodd" fill-opacity="1" /><path clip-path="url(#clip610)" d="M124.07 886.512 Q120.459 886.512 118.631 890.076 Q116.825 893.618 116.825 900.748 Q116.825 907.854 118.631 911.419 Q120.459 914.961 124.07 914.961 Q127.705 914.961 129.51 911.419 Q131.339 907.854 131.339 900.748 Q131.339 893.618 129.51 890.076 Q127.705 886.512 124.07 886.512 M124.07 882.808 Q129.881 882.808 132.936 887.414 Q136.015 891.998 136.015 900.748 Q136.015 909.475 132.936 914.081 Q129.881 918.664 124.07 918.664 Q118.26 918.664 115.182 914.081 Q112.126 909.475 112.126 900.748 Q112.126 891.998 115.182 887.414 Q118.26 882.808 124.07 882.808 Z" fill="#000000" fill-rule="evenodd" fill-opacity="1" /><path clip-path="url(#clip610)" d="M64.3254 625.27 Q61.1773 625.27 59.3254 627.422 Q57.4967 629.575 57.4967 633.325 Q57.4967 637.052 59.3254 639.228 Q61.1773 641.381 64.3254 641.381 Q67.4735 641.381 69.3022 639.228 Q71.1541 637.052 71.1541 633.325 Q71.1541 629.575 69.3022 627.422 Q67.4735 625.27 64.3254 625.27 M73.6077 610.617 L73.6077 614.876 Q71.8485 614.043 70.0429 613.603 Q68.2606 613.163 66.5013 613.163 Q61.8717 613.163 59.418 616.288 Q56.9875 619.413 56.6402 625.733 Q58.006 623.719 60.0662 622.654 Q62.1263 621.566 64.6032 621.566 Q69.8115 621.566 72.8207 624.737 Q75.8531 627.885 75.8531 633.325 Q75.8531 638.649 72.705 641.867 Q69.5568 645.084 64.3254 645.084 Q58.33 645.084 55.1588 640.501 Q51.9875 635.895 51.9875 627.168 Q51.9875 618.973 55.8764 614.112 Q59.7652 609.228 66.3161 609.228 Q68.0754 609.228 69.8578 609.575 Q71.6633 609.922 73.6077 610.617 Z" fill="#000000" fill-rule="evenodd" fill-opacity="1" /><path clip-path="url(#clip610)" d="M93.9086 612.932 Q90.2975 612.932 88.4688 616.496 Q86.6632 620.038 86.6632 627.168 Q86.6632 634.274 88.4688 637.839 Q90.2975 641.381 93.9086 641.381 Q97.5428 641.381 99.3483 637.839 Q101.177 634.274 101.177 627.168 Q101.177 620.038 99.3483 616.496 Q97.5428 612.932 93.9086 612.932 M93.9086 609.228 Q99.7187 609.228 102.774 613.834 Q105.853 618.418 105.853 627.168 Q105.853 635.895 102.774 640.501 Q99.7187 645.084 93.9086 645.084 Q88.0984 645.084 85.0197 640.501 Q81.9642 635.895 81.9642 627.168 Q81.9642 618.418 85.0197 613.834 Q88.0984 609.228 93.9086 609.228 Z" fill="#000000" fill-rule="evenodd" fill-opacity="1" /><path clip-path="url(#clip610)" d="M124.07 612.932 Q120.459 612.932 118.631 616.496 Q116.825 620.038 116.825 627.168 Q116.825 634.274 118.631 637.839 Q120.459 641.381 124.07 641.381 Q127.705 641.381 129.51 637.839 Q131.339 634.274 131.339 627.168 Q131.339 620.038 129.51 616.496 Q127.705 612.932 124.07 612.932 M124.07 609.228 Q129.881 609.228 132.936 613.834 Q136.015 618.418 136.015 627.168 Q136.015 635.895 132.936 640.501 Q129.881 645.084 124.07 645.084 Q118.26 645.084 115.182 640.501 Q112.126 635.895 112.126 627.168 Q112.126 618.418 115.182 613.834 Q118.26 609.228 124.07 609.228 Z" fill="#000000" fill-rule="evenodd" fill-opacity="1" /><path clip-path="url(#clip610)" d="M63.7467 354.421 Q60.4134 354.421 58.4921 356.203 Q56.5939 357.986 56.5939 361.111 Q56.5939 364.236 58.4921 366.018 Q60.4134 367.801 63.7467 367.801 Q67.08 367.801 69.0013 366.018 Q70.9226 364.213 70.9226 361.111 Q70.9226 357.986 69.0013 356.203 Q67.1032 354.421 63.7467 354.421 M59.0708 352.43 Q56.0615 351.69 54.3717 349.629 Q52.7051 347.569 52.7051 344.606 Q52.7051 340.463 55.6449 338.055 Q58.6078 335.648 63.7467 335.648 Q68.9087 335.648 71.8485 338.055 Q74.7883 340.463 74.7883 344.606 Q74.7883 347.569 73.0985 349.629 Q71.4318 351.69 68.4457 352.43 Q71.8253 353.217 73.7003 355.509 Q75.5985 357.801 75.5985 361.111 Q75.5985 366.134 72.5198 368.819 Q69.4642 371.504 63.7467 371.504 Q58.0291 371.504 54.9504 368.819 Q51.8949 366.134 51.8949 361.111 Q51.8949 357.801 53.793 355.509 Q55.6912 353.217 59.0708 352.43 M57.3578 345.046 Q57.3578 347.731 59.0245 349.236 Q60.7143 350.74 63.7467 350.74 Q66.7559 350.74 68.4457 349.236 Q70.1587 347.731 70.1587 345.046 Q70.1587 342.361 68.4457 340.856 Q66.7559 339.352 63.7467 339.352 Q60.7143 339.352 59.0245 340.856 Q57.3578 342.361 57.3578 345.046 Z" fill="#000000" fill-rule="evenodd" fill-opacity="1" /><path clip-path="url(#clip610)" d="M93.9086 339.352 Q90.2975 339.352 88.4688 342.916 Q86.6632 346.458 86.6632 353.588 Q86.6632 360.694 88.4688 364.259 Q90.2975 367.801 93.9086 367.801 Q97.5428 367.801 99.3483 364.259 Q101.177 360.694 101.177 353.588 Q101.177 346.458 99.3483 342.916 Q97.5428 339.352 93.9086 339.352 M93.9086 335.648 Q99.7187 335.648 102.774 340.254 Q105.853 344.838 105.853 353.588 Q105.853 362.314 102.774 366.921 Q99.7187 371.504 93.9086 371.504 Q88.0984 371.504 85.0197 366.921 Q81.9642 362.314 81.9642 353.588 Q81.9642 344.838 85.0197 340.254 Q88.0984 335.648 93.9086 335.648 Z" fill="#000000" fill-rule="evenodd" fill-opacity="1" /><path clip-path="url(#clip610)" d="M124.07 339.352 Q120.459 339.352 118.631 342.916 Q116.825 346.458 116.825 353.588 Q116.825 360.694 118.631 364.259 Q120.459 367.801 124.07 367.801 Q127.705 367.801 129.51 364.259 Q131.339 360.694 131.339 353.588 Q131.339 346.458 129.51 342.916 Q127.705 339.352 124.07 339.352 M124.07 335.648 Q129.881 335.648 132.936 340.254 Q136.015 344.838 136.015 353.588 Q136.015 362.314 132.936 366.921 Q129.881 371.504 124.07 371.504 Q118.26 371.504 115.182 366.921 Q112.126 362.314 112.126 353.588 Q112.126 344.838 115.182 340.254 Q118.26 335.648 124.07 335.648 Z" fill="#000000" fill-rule="evenodd" fill-opacity="1" /><path clip-path="url(#clip610)" d="M1179.36 18.8205 L1179.36 65.8515 L1189.25 65.8515 Q1201.76 65.8515 1207.56 60.1802 Q1213.39 54.509 1213.39 42.2752 Q1213.39 30.1225 1207.56 24.4918 Q1201.76 18.8205 1189.25 18.8205 L1179.36 18.8205 M1171.18 12.096 L1187.99 12.096 Q1205.57 12.096 1213.79 19.4281 Q1222.02 26.7198 1222.02 42.2752 Q1222.02 57.9117 1213.75 65.2439 Q1205.49 72.576 1187.99 72.576 L1171.18 72.576 L1171.18 12.096 Z" fill="#000000" fill-rule="evenodd" fill-opacity="1" /><path clip-path="url(#clip610)" d="M1255.36 49.7694 Q1246.32 49.7694 1242.84 51.8354 Q1239.36 53.9013 1239.36 58.8839 Q1239.36 62.8538 1241.95 65.2034 Q1244.58 67.5124 1249.08 67.5124 Q1255.28 67.5124 1259 63.1374 Q1262.77 58.7219 1262.77 51.4303 L1262.77 49.7694 L1255.36 49.7694 M1270.22 46.6907 L1270.22 72.576 L1262.77 72.576 L1262.77 65.6895 Q1260.22 69.8214 1256.41 71.8063 Q1252.6 73.7508 1247.09 73.7508 Q1240.13 73.7508 1235.99 69.8619 Q1231.9 65.9325 1231.9 59.3701 Q1231.9 51.7138 1237.01 47.825 Q1242.15 43.9361 1252.32 43.9361 L1262.77 43.9361 L1262.77 43.2069 Q1262.77 38.0623 1259.37 35.2672 Q1256.01 32.4315 1249.89 32.4315 Q1246 32.4315 1242.31 33.3632 Q1238.63 34.295 1235.22 36.1584 L1235.22 29.2718 Q1239.32 27.692 1243.16 26.9223 Q1247.01 26.1121 1250.66 26.1121 Q1260.5 26.1121 1265.36 31.2163 Q1270.22 36.3204 1270.22 46.6907 Z" fill="#000000" fill-rule="evenodd" fill-opacity="1" /><path clip-path="url(#clip610)" d="M1292.95 14.324 L1292.95 27.2059 L1308.3 27.2059 L1308.3 32.9987 L1292.95 32.9987 L1292.95 57.6282 Q1292.95 63.1779 1294.45 64.7578 Q1295.99 66.3376 1300.65 66.3376 L1308.3 66.3376 L1308.3 72.576 L1300.65 72.576 Q1292.02 72.576 1288.74 69.3758 Q1285.46 66.1351 1285.46 57.6282 L1285.46 32.9987 L1279.99 32.9987 L1279.99 27.2059 L1285.46 27.2059 L1285.46 14.324 L1292.95 14.324 Z" fill="#000000" fill-rule="evenodd" fill-opacity="1" /><path clip-path="url(#clip610)" d="M1338.72 49.7694 Q1329.69 49.7694 1326.21 51.8354 Q1322.72 53.9013 1322.72 58.8839 Q1322.72 62.8538 1325.32 65.2034 Q1327.95 67.5124 1332.45 67.5124 Q1338.64 67.5124 1342.37 63.1374 Q1346.14 58.7219 1346.14 51.4303 L1346.14 49.7694 L1338.72 49.7694 M1353.59 46.6907 L1353.59 72.576 L1346.14 72.576 L1346.14 65.6895 Q1343.59 69.8214 1339.78 71.8063 Q1335.97 73.7508 1330.46 73.7508 Q1323.49 73.7508 1319.36 69.8619 Q1315.27 65.9325 1315.27 59.3701 Q1315.27 51.7138 1320.37 47.825 Q1325.52 43.9361 1335.69 43.9361 L1346.14 43.9361 L1346.14 43.2069 Q1346.14 38.0623 1342.74 35.2672 Q1339.37 32.4315 1333.26 32.4315 Q1329.37 32.4315 1325.68 33.3632 Q1321.99 34.295 1318.59 36.1584 L1318.59 29.2718 Q1322.68 27.692 1326.53 26.9223 Q1330.38 26.1121 1334.03 26.1121 Q1343.87 26.1121 1348.73 31.2163 Q1353.59 36.3204 1353.59 46.6907 Z" fill="#000000" fill-rule="evenodd" fill-opacity="1" /><polyline clip-path="url(#clip612)" style="stroke:#009af9; stroke-linecap:butt; stroke-linejoin:round; stroke-width:4; stroke-opacity:1; fill:none" points="
  233.734,1447.87 233.734,1338.44 268.022,1338.44 268.022,1379.48 302.311,1379.48 302.311,1311.08 336.599,1311.08 336.599,1187.97 370.887,1187.97 370.887,1133.26 
  405.176,1133.26 405.176,1023.82 439.464,1023.82 439.464,1133.26 473.753,1133.26 473.753,1023.82 508.041,1023.82 508.041,900.713 542.329,900.713 542.329,873.355 
  576.618,873.355 576.618,914.392 610.906,914.392 610.906,804.96 645.194,804.96 645.194,996.466 679.483,996.466 679.483,1119.58 713.771,1119.58 713.771,1037.5 
  748.06,1037.5 748.06,1146.94 782.348,1146.94 782.348,1229.01 816.636,1229.01 816.636,1215.33 850.925,1215.33 850.925,1297.4 885.213,1297.4 885.213,1379.48 
  919.502,1379.48 953.79,1379.48 953.79,1420.52 988.078,1420.52 1022.37,1420.52 1022.37,1447.87 1056.66,1447.87 
  1090.94,1447.87 1125.23,1447.87 1125.23,1406.84 1159.52,1406.84 1159.52,1434.19 1193.81,1434.19 1193.81,1379.48 1228.1,1379.48 1228.1,1311.08 
  1262.39,1311.08 1262.39,1338.44 1296.67,1338.44 1296.67,1187.97 1330.96,1187.97 1330.96,1051.18 1365.25,1051.18 1365.25,1010.15 1399.54,1010.15 1399.54,900.713 
  1433.83,900.713 1433.83,722.886 1468.12,722.886 1502.4,722.886 1502.4,408.269 1536.69,408.269 1536.69,298.837 1570.98,298.837 1570.98,162.047 
  1605.27,162.047 1605.27,339.874 1639.56,339.874 1639.56,545.059 1673.85,545.059 1673.85,504.022 1708.13,504.022 1742.42,504.022 1742.42,613.454 
  1776.71,613.454 1776.71,695.528 1811,695.528 1811,1078.54 1845.29,1078.54 1845.29,1010.15 1879.58,1010.15 1879.58,1311.08 1913.86,1311.08 1913.86,1324.76 
  1948.15,1324.76 1948.15,1365.8 1982.44,1365.8 1982.44,1420.52 2016.73,1420.52 2051.02,1420.52 2051.02,1406.84 2085.31,1406.84 2085.31,1447.87 
  2119.59,1447.87 2119.59,1434.19 2153.88,1434.19 2153.88,1447.87 2188.17,1447.87 2222.46,1447.87 2256.75,1447.87 
  2291.04,1447.87 
  "/>
<path clip-path="url(#clip610)" d="
M1933.52 272.585 L2280.06 272.585 L2280.06 168.905 L1933.52 168.905  Z
  " fill="#ffffff" fill-rule="evenodd" fill-opacity="1"/>
<polyline clip-path="url(#clip610)" style="stroke:#000000; stroke-linecap:butt; stroke-linejoin:round; stroke-width:4; stroke-opacity:1; fill:none" points="
  1933.52,272.585 2280.06,272.585 2280.06,168.905 1933.52,168.905 1933.52,272.585 
  "/>
<polyline clip-path="url(#clip610)" style="stroke:#009af9; stroke-linecap:butt; stroke-linejoin:round; stroke-width:4; stroke-opacity:1; fill:none" points="
  1957.75,220.745 2103.14,220.745 
  "/>
<path clip-path="url(#clip610)" d="M2132.04 207.307 L2132.04 234.182 L2137.69 234.182 Q2144.84 234.182 2148.15 230.941 Q2151.49 227.701 2151.49 220.71 Q2151.49 213.766 2148.15 210.548 Q2144.84 207.307 2137.69 207.307 L2132.04 207.307 M2127.37 203.465 L2136.97 203.465 Q2147.02 203.465 2151.72 207.654 Q2156.42 211.821 2156.42 220.71 Q2156.42 229.645 2151.7 233.835 Q2146.97 238.025 2136.97 238.025 L2127.37 238.025 L2127.37 203.465 Z" fill="#000000" fill-rule="evenodd" fill-opacity="1" /><path clip-path="url(#clip610)" d="M2175.47 224.992 Q2170.31 224.992 2168.32 226.173 Q2166.33 227.353 2166.33 230.201 Q2166.33 232.469 2167.81 233.812 Q2169.31 235.131 2171.88 235.131 Q2175.42 235.131 2177.55 232.631 Q2179.71 230.108 2179.71 225.941 L2179.71 224.992 L2175.47 224.992 M2183.96 223.233 L2183.96 238.025 L2179.71 238.025 L2179.71 234.089 Q2178.25 236.451 2176.07 237.585 Q2173.9 238.696 2170.75 238.696 Q2166.77 238.696 2164.4 236.474 Q2162.07 234.228 2162.07 230.478 Q2162.07 226.103 2164.98 223.881 Q2167.92 221.659 2173.73 221.659 L2179.71 221.659 L2179.71 221.242 Q2179.71 218.303 2177.76 216.705 Q2175.84 215.085 2172.34 215.085 Q2170.12 215.085 2168.02 215.617 Q2165.91 216.15 2163.97 217.215 L2163.97 213.279 Q2166.3 212.377 2168.5 211.937 Q2170.7 211.474 2172.78 211.474 Q2178.41 211.474 2181.19 214.391 Q2183.96 217.307 2183.96 223.233 Z" fill="#000000" fill-rule="evenodd" fill-opacity="1" /><path clip-path="url(#clip610)" d="M2196.95 204.738 L2196.95 212.099 L2205.72 212.099 L2205.72 215.409 L2196.95 215.409 L2196.95 229.483 Q2196.95 232.654 2197.81 233.557 Q2198.69 234.46 2201.35 234.46 L2205.72 234.46 L2205.72 238.025 L2201.35 238.025 Q2196.42 238.025 2194.54 236.196 Q2192.67 234.344 2192.67 229.483 L2192.67 215.409 L2189.54 215.409 L2189.54 212.099 L2192.67 212.099 L2192.67 204.738 L2196.95 204.738 Z" fill="#000000" fill-rule="evenodd" fill-opacity="1" /><path clip-path="url(#clip610)" d="M2223.11 224.992 Q2217.95 224.992 2215.96 226.173 Q2213.96 227.353 2213.96 230.201 Q2213.96 232.469 2215.45 233.812 Q2216.95 235.131 2219.52 235.131 Q2223.06 235.131 2225.19 232.631 Q2227.34 230.108 2227.34 225.941 L2227.34 224.992 L2223.11 224.992 M2231.6 223.233 L2231.6 238.025 L2227.34 238.025 L2227.34 234.089 Q2225.89 236.451 2223.71 237.585 Q2221.53 238.696 2218.39 238.696 Q2214.4 238.696 2212.04 236.474 Q2209.71 234.228 2209.71 230.478 Q2209.71 226.103 2212.62 223.881 Q2215.56 221.659 2221.37 221.659 L2227.34 221.659 L2227.34 221.242 Q2227.34 218.303 2225.4 216.705 Q2223.48 215.085 2219.98 215.085 Q2217.76 215.085 2215.65 215.617 Q2213.55 216.15 2211.6 217.215 L2211.6 213.279 Q2213.94 212.377 2216.14 211.937 Q2218.34 211.474 2220.42 211.474 Q2226.05 211.474 2228.83 214.391 Q2231.6 217.307 2231.6 223.233 Z" fill="#000000" fill-rule="evenodd" fill-opacity="1" /></svg>
