<?xml version="1.0" encoding="utf-8"?>
<svg xmlns="http://www.w3.org/2000/svg" xmlns:xlink="http://www.w3.org/1999/xlink" width="600" height="400" viewBox="0 0 2400 1600">
<defs>
  <clipPath id="clip570">
    <rect x="0" y="0" width="2400" height="1600"/>
  </clipPath>
</defs>
<path clip-path="url(#clip570)" d="
M0 1600 L2400 1600 L2400 0 L0 0  Z
  " fill="#ffffff" fill-rule="evenodd" fill-opacity="1"/>
<defs>
  <clipPath id="clip571">
    <rect x="480" y="0" width="1681" height="1600"/>
  </clipPath>
</defs>
<path clip-path="url(#clip570)" d="
M166.205 1486.45 L2352.76 1486.45 L2352.76 123.472 L166.205 123.472  Z
  " fill="#ffffff" fill-rule="evenodd" fill-opacity="1"/>
<defs>
  <clipPath id="clip572">
    <rect x="166" y="123" width="2188" height="1364"/>
  </clipPath>
</defs>
<polyline clip-path="url(#clip572)" style="stroke:#000000; stroke-width:2; stroke-opacity:0.1; fill:none" points="
  228.088,1486.45 228.088,123.472 
  "/>
<polyline clip-path="url(#clip572)" style="stroke:#000000; stroke-width:2; stroke-opacity:0.1; fill:none" points="
  743.784,1486.45 743.784,123.472 
  "/>
<polyline clip-path="url(#clip572)" style="stroke:#000000; stroke-width:2; stroke-opacity:0.1; fill:none" points="
  1259.48,1486.45 1259.48,123.472 
  "/>
<polyline clip-path="url(#clip572)" style="stroke:#000000; stroke-width:2; stroke-opacity:0.1; fill:none" points="
  1775.18,1486.45 1775.18,123.472 
  "/>
<polyline clip-path="url(#clip572)" style="stroke:#000000; stroke-width:2; stroke-opacity:0.1; fill:none" points="
  2290.87,1486.45 2290.87,123.472 
  "/>
<polyline clip-path="url(#clip572)" style="stroke:#000000; stroke-width:2; stroke-opacity:0.1; fill:none" points="
  166.205,1447.87 2352.76,1447.87 
  "/>
<polyline clip-path="url(#clip572)" style="stroke:#000000; stroke-width:2; stroke-opacity:0.1; fill:none" points="
  166.205,1130.39 2352.76,1130.39 
  "/>
<polyline clip-path="url(#clip572)" style="stroke:#000000; stroke-width:2; stroke-opacity:0.1; fill:none" points="
  166.205,812.897 2352.76,812.897 
  "/>
<polyline clip-path="url(#clip572)" style="stroke:#000000; stroke-width:2; stroke-opacity:0.1; fill:none" points="
  166.205,495.409 2352.76,495.409 
  "/>
<polyline clip-path="url(#clip572)" style="stroke:#000000; stroke-width:2; stroke-opacity:0.1; fill:none" points="
  166.205,177.921 2352.76,177.921 
  "/>
<polyline clip-path="url(#clip570)" style="stroke:#000000; stroke-width:4; stroke-opacity:1; fill:none" points="
  166.205,1486.45 2352.76,1486.45 
  "/>
<polyline clip-path="url(#clip570)" style="stroke:#000000; stroke-width:4; stroke-opacity:1; fill:none" points="
  166.205,1486.45 166.205,123.472 
  "/>
<polyline clip-path="url(#clip570)" style="stroke:#000000; stroke-width:4; stroke-opacity:1; fill:none" points="
  228.088,1486.45 228.088,1470.09 
  "/>
<polyline clip-path="url(#clip570)" style="stroke:#000000; stroke-width:4; stroke-opacity:1; fill:none" points="
  743.784,1486.45 743.784,1470.09 
  "/>
<polyline clip-path="url(#clip570)" style="stroke:#000000; stroke-width:4; stroke-opacity:1; fill:none" points="
  1259.48,1486.45 1259.48,1470.09 
  "/>
<polyline clip-path="url(#clip570)" style="stroke:#000000; stroke-width:4; stroke-opacity:1; fill:none" points="
  1775.18,1486.45 1775.18,1470.09 
  "/>
<polyline clip-path="url(#clip570)" style="stroke:#000000; stroke-width:4; stroke-opacity:1; fill:none" points="
  2290.87,1486.45 2290.87,1470.09 
  "/>
<polyline clip-path="url(#clip570)" style="stroke:#000000; stroke-width:4; stroke-opacity:1; fill:none" points="
  166.205,1447.87 192.443,1447.87 
  "/>
<polyline clip-path="url(#clip570)" style="stroke:#000000; stroke-width:4; stroke-opacity:1; fill:none" points="
  166.205,1130.39 192.443,1130.39 
  "/>
<polyline clip-path="url(#clip570)" style="stroke:#000000; stroke-width:4; stroke-opacity:1; fill:none" points="
  166.205,812.897 192.443,812.897 
  "/>
<polyline clip-path="url(#clip570)" style="stroke:#000000; stroke-width:4; stroke-opacity:1; fill:none" points="
  166.205,495.409 192.443,495.409 
  "/>
<polyline clip-path="url(#clip570)" style="stroke:#000000; stroke-width:4; stroke-opacity:1; fill:none" points="
  166.205,177.921 192.443,177.921 
  "/>
<path clip-path="url(#clip570)" d="M 0 0 M208.1 1525.04 L220.577 1525.04 L220.577 1528.83 L208.1 1528.83 L208.1 1525.04 Z" fill="#000000" fill-rule="evenodd" fill-opacity="1" /><path clip-path="url(#clip570)" d="M 0 0 M238.493 1509.43 L226.688 1527.88 L238.493 1527.88 L238.493 1509.43 M237.266 1505.36 L243.146 1505.36 L243.146 1527.88 L248.077 1527.88 L248.077 1531.77 L243.146 1531.77 L243.146 1539.92 L238.493 1539.92 L238.493 1531.77 L222.891 1531.77 L222.891 1527.26 L237.266 1505.36 Z" fill="#000000" fill-rule="evenodd" fill-opacity="1" /><path clip-path="url(#clip570)" d="M 0 0 M724.838 1525.04 L737.314 1525.04 L737.314 1528.83 L724.838 1528.83 L724.838 1525.04 Z" fill="#000000" fill-rule="evenodd" fill-opacity="1" /><path clip-path="url(#clip570)" d="M 0 0 M746.412 1535.98 L762.731 1535.98 L762.731 1539.92 L740.787 1539.92 L740.787 1535.98 Q743.449 1533.23 748.032 1528.6 Q752.638 1523.95 753.819 1522.61 Q756.064 1520.08 756.944 1518.35 Q757.847 1516.59 757.847 1514.9 Q757.847 1512.14 755.902 1510.41 Q753.981 1508.67 750.879 1508.67 Q748.68 1508.67 746.226 1509.43 Q743.796 1510.2 741.018 1511.75 L741.018 1507.03 Q743.842 1505.89 746.296 1505.31 Q748.749 1504.73 750.787 1504.73 Q756.157 1504.73 759.351 1507.42 Q762.546 1510.11 762.546 1514.6 Q762.546 1516.73 761.736 1518.65 Q760.948 1520.54 758.842 1523.14 Q758.263 1523.81 755.161 1527.03 Q752.06 1530.22 746.412 1535.98 Z" fill="#000000" fill-rule="evenodd" fill-opacity="1" /><path clip-path="url(#clip570)" d="M 0 0 M1259.48 1508.44 Q1255.87 1508.44 1254.04 1512 Q1252.23 1515.55 1252.23 1522.67 Q1252.23 1529.78 1254.04 1533.35 Q1255.87 1536.89 1259.48 1536.89 Q1263.11 1536.89 1264.92 1533.35 Q1266.75 1529.78 1266.75 1522.67 Q1266.75 1515.55 1264.92 1512 Q1263.11 1508.44 1259.48 1508.44 M1259.48 1504.73 Q1265.29 1504.73 1268.35 1509.34 Q1271.42 1513.92 1271.42 1522.67 Q1271.42 1531.4 1268.35 1536.01 Q1265.29 1540.59 1259.48 1540.59 Q1253.67 1540.59 1250.59 1536.01 Q1247.54 1531.4 1247.54 1522.67 Q1247.54 1513.92 1250.59 1509.34 Q1253.67 1504.73 1259.48 1504.73 Z" fill="#000000" fill-rule="evenodd" fill-opacity="1" /><path clip-path="url(#clip570)" d="M 0 0 M1769.83 1535.98 L1786.15 1535.98 L1786.15 1539.92 L1764.2 1539.92 L1764.2 1535.98 Q1766.87 1533.23 1771.45 1528.6 Q1776.06 1523.95 1777.24 1522.61 Q1779.48 1520.08 1780.36 1518.35 Q1781.26 1516.59 1781.26 1514.9 Q1781.26 1512.14 1779.32 1510.41 Q1777.4 1508.67 1774.3 1508.67 Q1772.1 1508.67 1769.64 1509.43 Q1767.21 1510.2 1764.44 1511.75 L1764.44 1507.03 Q1767.26 1505.89 1769.71 1505.31 Q1772.17 1504.73 1774.2 1504.73 Q1779.57 1504.73 1782.77 1507.42 Q1785.96 1510.11 1785.96 1514.6 Q1785.96 1516.73 1785.15 1518.65 Q1784.37 1520.54 1782.26 1523.14 Q1781.68 1523.81 1778.58 1527.03 Q1775.48 1530.22 1769.83 1535.98 Z" fill="#000000" fill-rule="evenodd" fill-opacity="1" /><path clip-path="url(#clip570)" d="M 0 0 M2293.88 1509.43 L2282.08 1527.88 L2293.88 1527.88 L2293.88 1509.43 M2292.65 1505.36 L2298.53 1505.36 L2298.53 1527.88 L2303.46 1527.88 L2303.46 1531.77 L2298.53 1531.77 L2298.53 1539.92 L2293.88 1539.92 L2293.88 1531.77 L2278.28 1531.77 L2278.28 1527.26 L2292.65 1505.36 Z" fill="#000000" fill-rule="evenodd" fill-opacity="1" /><path clip-path="url(#clip570)" d="M 0 0 M130.26 1433.67 Q126.649 1433.67 124.82 1437.24 Q123.015 1440.78 123.015 1447.91 Q123.015 1455.01 124.82 1458.58 Q126.649 1462.12 130.26 1462.12 Q133.895 1462.12 135.7 1458.58 Q137.529 1455.01 137.529 1447.91 Q137.529 1440.78 135.7 1437.24 Q133.895 1433.67 130.26 1433.67 M130.26 1429.97 Q136.07 1429.97 139.126 1434.57 Q142.205 1439.16 142.205 1447.91 Q142.205 1456.63 139.126 1461.24 Q136.07 1465.82 130.26 1465.82 Q124.45 1465.82 121.371 1461.24 Q118.316 1456.63 118.316 1447.91 Q118.316 1439.16 121.371 1434.57 Q124.45 1429.97 130.26 1429.97 Z" fill="#000000" fill-rule="evenodd" fill-opacity="1" /><path clip-path="url(#clip570)" d="M 0 0 M71.8578 1143.73 L88.1772 1143.73 L88.1772 1147.67 L66.2328 1147.67 L66.2328 1143.73 Q68.8949 1140.98 73.4782 1136.35 Q78.0846 1131.69 79.2652 1130.35 Q81.5105 1127.83 82.3902 1126.09 Q83.2929 1124.33 83.2929 1122.64 Q83.2929 1119.89 81.3485 1118.15 Q79.4272 1116.42 76.3254 1116.42 Q74.1263 1116.42 71.6726 1117.18 Q69.2421 1117.94 66.4643 1119.49 L66.4643 1114.77 Q69.2884 1113.64 71.7421 1113.06 Q74.1958 1112.48 76.2328 1112.48 Q81.6031 1112.48 84.7976 1115.17 Q87.992 1117.85 87.992 1122.34 Q87.992 1124.47 87.1818 1126.39 Q86.3948 1128.29 84.2883 1130.88 Q83.7096 1131.55 80.6078 1134.77 Q77.5059 1137.97 71.8578 1143.73 Z" fill="#000000" fill-rule="evenodd" fill-opacity="1" /><path clip-path="url(#clip570)" d="M 0 0 M103.247 1116.18 Q99.6354 1116.18 97.8068 1119.75 Q96.0012 1123.29 96.0012 1130.42 Q96.0012 1137.53 97.8068 1141.09 Q99.6354 1144.63 103.247 1144.63 Q106.881 1144.63 108.686 1141.09 Q110.515 1137.53 110.515 1130.42 Q110.515 1123.29 108.686 1119.75 Q106.881 1116.18 103.247 1116.18 M103.247 1112.48 Q109.057 1112.48 112.112 1117.09 Q115.191 1121.67 115.191 1130.42 Q115.191 1139.15 112.112 1143.75 Q109.057 1148.34 103.247 1148.34 Q97.4364 1148.34 94.3577 1143.75 Q91.3022 1139.15 91.3022 1130.42 Q91.3022 1121.67 94.3577 1117.09 Q97.4364 1112.48 103.247 1112.48 Z" fill="#000000" fill-rule="evenodd" fill-opacity="1" /><path clip-path="url(#clip570)" d="M 0 0 M130.26 1116.18 Q126.649 1116.18 124.82 1119.75 Q123.015 1123.29 123.015 1130.42 Q123.015 1137.53 124.82 1141.09 Q126.649 1144.63 130.26 1144.63 Q133.895 1144.63 135.7 1141.09 Q137.529 1137.53 137.529 1130.42 Q137.529 1123.29 135.7 1119.75 Q133.895 1116.18 130.26 1116.18 M130.26 1112.48 Q136.07 1112.48 139.126 1117.09 Q142.205 1121.67 142.205 1130.42 Q142.205 1139.15 139.126 1143.75 Q136.07 1148.34 130.26 1148.34 Q124.45 1148.34 121.371 1143.75 Q118.316 1139.15 118.316 1130.42 Q118.316 1121.67 121.371 1117.09 Q124.45 1112.48 130.26 1112.48 Z" fill="#000000" fill-rule="evenodd" fill-opacity="1" /><path clip-path="url(#clip570)" d="M 0 0 M78.5939 799.691 L66.7884 818.14 L78.5939 818.14 L78.5939 799.691 M77.367 795.617 L83.2466 795.617 L83.2466 818.14 L88.1772 818.14 L88.1772 822.029 L83.2466 822.029 L83.2466 830.177 L78.5939 830.177 L78.5939 822.029 L62.9921 822.029 L62.9921 817.515 L77.367 795.617 Z" fill="#000000" fill-rule="evenodd" fill-opacity="1" /><path clip-path="url(#clip570)" d="M 0 0 M103.247 798.696 Q99.6354 798.696 97.8068 802.261 Q96.0012 805.802 96.0012 812.932 Q96.0012 820.038 97.8068 823.603 Q99.6354 827.145 103.247 827.145 Q106.881 827.145 108.686 823.603 Q110.515 820.038 110.515 812.932 Q110.515 805.802 108.686 802.261 Q106.881 798.696 103.247 798.696 M103.247 794.992 Q109.057 794.992 112.112 799.599 Q115.191 804.182 115.191 812.932 Q115.191 821.659 112.112 826.265 Q109.057 830.848 103.247 830.848 Q97.4364 830.848 94.3577 826.265 Q91.3022 821.659 91.3022 812.932 Q91.3022 804.182 94.3577 799.599 Q97.4364 794.992 103.247 794.992 Z" fill="#000000" fill-rule="evenodd" fill-opacity="1" /><path clip-path="url(#clip570)" d="M 0 0 M130.26 798.696 Q126.649 798.696 124.82 802.261 Q123.015 805.802 123.015 812.932 Q123.015 820.038 124.82 823.603 Q126.649 827.145 130.26 827.145 Q133.895 827.145 135.7 823.603 Q137.529 820.038 137.529 812.932 Q137.529 805.802 135.7 802.261 Q133.895 798.696 130.26 798.696 M130.26 794.992 Q136.07 794.992 139.126 799.599 Q142.205 804.182 142.205 812.932 Q142.205 821.659 139.126 826.265 Q136.07 830.848 130.26 830.848 Q124.45 830.848 121.371 826.265 Q118.316 821.659 118.316 812.932 Q118.316 804.182 121.371 799.599 Q124.45 794.992 130.26 794.992 Z" fill="#000000" fill-rule="evenodd" fill-opacity="1" /><path clip-path="url(#clip570)" d="M 0 0 M76.6495 493.546 Q73.5013 493.546 71.6495 495.699 Q69.8208 497.851 69.8208 501.601 Q69.8208 505.328 71.6495 507.504 Q73.5013 509.657 76.6495 509.657 Q79.7976 509.657 81.6263 507.504 Q83.4781 505.328 83.4781 501.601 Q83.4781 497.851 81.6263 495.699 Q79.7976 493.546 76.6495 493.546 M85.9318 478.893 L85.9318 483.152 Q84.1726 482.319 82.367 481.879 Q80.5846 481.439 78.8254 481.439 Q74.1958 481.439 71.7421 484.564 Q69.3115 487.689 68.9643 494.009 Q70.33 491.995 72.3902 490.93 Q74.4504 489.842 76.9272 489.842 Q82.1355 489.842 85.1448 493.013 Q88.1772 496.162 88.1772 501.601 Q88.1772 506.925 85.029 510.143 Q81.8809 513.361 76.6495 513.361 Q70.6541 513.361 67.4828 508.777 Q64.3116 504.171 64.3116 495.444 Q64.3116 487.25 68.2004 482.388 Q72.0893 477.504 78.6402 477.504 Q80.3994 477.504 82.1818 477.851 Q83.9874 478.199 85.9318 478.893 Z" fill="#000000" fill-rule="evenodd" fill-opacity="1" /><path clip-path="url(#clip570)" d="M 0 0 M103.247 481.208 Q99.6354 481.208 97.8068 484.773 Q96.0012 488.314 96.0012 495.444 Q96.0012 502.55 97.8068 506.115 Q99.6354 509.657 103.247 509.657 Q106.881 509.657 108.686 506.115 Q110.515 502.55 110.515 495.444 Q110.515 488.314 108.686 484.773 Q106.881 481.208 103.247 481.208 M103.247 477.504 Q109.057 477.504 112.112 482.111 Q115.191 486.694 115.191 495.444 Q115.191 504.171 112.112 508.777 Q109.057 513.361 103.247 513.361 Q97.4364 513.361 94.3577 508.777 Q91.3022 504.171 91.3022 495.444 Q91.3022 486.694 94.3577 482.111 Q97.4364 477.504 103.247 477.504 Z" fill="#000000" fill-rule="evenodd" fill-opacity="1" /><path clip-path="url(#clip570)" d="M 0 0 M130.26 481.208 Q126.649 481.208 124.82 484.773 Q123.015 488.314 123.015 495.444 Q123.015 502.55 124.82 506.115 Q126.649 509.657 130.26 509.657 Q133.895 509.657 135.7 506.115 Q137.529 502.55 137.529 495.444 Q137.529 488.314 135.7 484.773 Q133.895 481.208 130.26 481.208 M130.26 477.504 Q136.07 477.504 139.126 482.111 Q142.205 486.694 142.205 495.444 Q142.205 504.171 139.126 508.777 Q136.07 513.361 130.26 513.361 Q124.45 513.361 121.371 508.777 Q118.316 504.171 118.316 495.444 Q118.316 486.694 121.371 482.111 Q124.45 477.504 130.26 477.504 Z" fill="#000000" fill-rule="evenodd" fill-opacity="1" /><path clip-path="url(#clip570)" d="M 0 0 M76.3254 178.789 Q72.9921 178.789 71.0708 180.572 Q69.1726 182.354 69.1726 185.479 Q69.1726 188.604 71.0708 190.387 Q72.9921 192.169 76.3254 192.169 Q79.6587 192.169 81.58 190.387 Q83.5013 188.581 83.5013 185.479 Q83.5013 182.354 81.58 180.572 Q79.6819 178.789 76.3254 178.789 M71.6495 176.799 Q68.6402 176.058 66.9504 173.998 Q65.2838 171.938 65.2838 168.975 Q65.2838 164.831 68.2236 162.424 Q71.1865 160.016 76.3254 160.016 Q81.4874 160.016 84.4272 162.424 Q87.367 164.831 87.367 168.975 Q87.367 171.938 85.6772 173.998 Q84.0105 176.058 81.0244 176.799 Q84.404 177.586 86.279 179.877 Q88.1772 182.169 88.1772 185.479 Q88.1772 190.502 85.0985 193.187 Q82.0429 195.873 76.3254 195.873 Q70.6078 195.873 67.5291 193.187 Q64.4736 190.502 64.4736 185.479 Q64.4736 182.169 66.3717 179.877 Q68.2699 177.586 71.6495 176.799 M69.9365 169.414 Q69.9365 172.1 71.6032 173.604 Q73.293 175.109 76.3254 175.109 Q79.3346 175.109 81.0244 173.604 Q82.7374 172.1 82.7374 169.414 Q82.7374 166.729 81.0244 165.225 Q79.3346 163.72 76.3254 163.72 Q73.293 163.72 71.6032 165.225 Q69.9365 166.729 69.9365 169.414 Z" fill="#000000" fill-rule="evenodd" fill-opacity="1" /><path clip-path="url(#clip570)" d="M 0 0 M103.247 163.72 Q99.6354 163.72 97.8068 167.285 Q96.0012 170.826 96.0012 177.956 Q96.0012 185.062 97.8068 188.627 Q99.6354 192.169 103.247 192.169 Q106.881 192.169 108.686 188.627 Q110.515 185.062 110.515 177.956 Q110.515 170.826 108.686 167.285 Q106.881 163.72 103.247 163.72 M103.247 160.016 Q109.057 160.016 112.112 164.623 Q115.191 169.206 115.191 177.956 Q115.191 186.683 112.112 191.289 Q109.057 195.873 103.247 195.873 Q97.4364 195.873 94.3577 191.289 Q91.3022 186.683 91.3022 177.956 Q91.3022 169.206 94.3577 164.623 Q97.4364 160.016 103.247 160.016 Z" fill="#000000" fill-rule="evenodd" fill-opacity="1" /><path clip-path="url(#clip570)" d="M 0 0 M130.26 163.72 Q126.649 163.72 124.82 167.285 Q123.015 170.826 123.015 177.956 Q123.015 185.062 124.82 188.627 Q126.649 192.169 130.26 192.169 Q133.895 192.169 135.7 188.627 Q137.529 185.062 137.529 177.956 Q137.529 170.826 135.7 167.285 Q133.895 163.72 130.26 163.72 M130.26 160.016 Q136.07 160.016 139.126 164.623 Q142.205 169.206 142.205 177.956 Q142.205 186.683 139.126 191.289 Q136.07 195.873 130.26 195.873 Q124.45 195.873 121.371 191.289 Q118.316 186.683 118.316 177.956 Q118.316 169.206 121.371 164.623 Q124.45 160.016 130.26 160.016 Z" fill="#000000" fill-rule="evenodd" fill-opacity="1" /><path clip-path="url(#clip570)" d="M 0 0 M697.458 18.8205 L697.458 65.8515 L707.342 65.8515 Q719.859 65.8515 725.652 60.1802 Q731.485 54.509 731.485 42.2752 Q731.485 30.1225 725.652 24.4918 Q719.859 18.8205 707.342 18.8205 L697.458 18.8205 M689.275 12.096 L706.086 12.096 Q723.667 12.096 731.891 19.4281 Q740.114 26.7198 740.114 42.2752 Q740.114 57.9117 731.85 65.2439 Q723.586 72.576 706.086 72.576 L689.275 72.576 L689.275 12.096 Z" fill="#000000" fill-rule="evenodd" fill-opacity="1" /><path clip-path="url(#clip570)" d="M 0 0 M768.551 49.7694 Q759.518 49.7694 756.034 51.8354 Q752.55 53.9013 752.55 58.8839 Q752.55 62.8538 755.143 65.2034 Q757.776 67.5124 762.272 67.5124 Q768.47 67.5124 772.197 63.1374 Q775.964 58.7219 775.964 51.4303 L775.964 49.7694 L768.551 49.7694 M783.418 46.6907 L783.418 72.576 L775.964 72.576 L775.964 65.6895 Q773.412 69.8214 769.604 71.8063 Q765.797 73.7508 760.287 73.7508 Q753.32 73.7508 749.188 69.8619 Q745.096 65.9325 745.096 59.3701 Q745.096 51.7138 750.201 47.825 Q755.345 43.9361 765.513 43.9361 L775.964 43.9361 L775.964 43.2069 Q775.964 38.0623 772.562 35.2672 Q769.199 32.4315 763.082 32.4315 Q759.194 32.4315 755.507 33.3632 Q751.821 34.295 748.418 36.1584 L748.418 29.2718 Q752.51 27.692 756.358 26.9223 Q760.206 26.1121 763.852 26.1121 Q773.696 26.1121 778.557 31.2163 Q783.418 36.3204 783.418 46.6907 Z" fill="#000000" fill-rule="evenodd" fill-opacity="1" /><path clip-path="url(#clip570)" d="M 0 0 M798.609 14.324 L798.609 27.2059 L813.962 27.2059 L813.962 32.9987 L798.609 32.9987 L798.609 57.6282 Q798.609 63.1779 800.108 64.7578 Q801.647 66.3376 806.306 66.3376 L813.962 66.3376 L813.962 72.576 L806.306 72.576 Q797.677 72.576 794.396 69.3758 Q791.115 66.1351 791.115 57.6282 L791.115 32.9987 L785.646 32.9987 L785.646 27.2059 L791.115 27.2059 L791.115 14.324 L798.609 14.324 Z" fill="#000000" fill-rule="evenodd" fill-opacity="1" /><path clip-path="url(#clip570)" d="M 0 0 M842.399 49.7694 Q833.366 49.7694 829.882 51.8354 Q826.398 53.9013 826.398 58.8839 Q826.398 62.8538 828.991 65.2034 Q831.624 67.5124 836.12 67.5124 Q842.318 67.5124 846.045 63.1374 Q849.812 58.7219 849.812 51.4303 L849.812 49.7694 L842.399 49.7694 M857.266 46.6907 L857.266 72.576 L849.812 72.576 L849.812 65.6895 Q847.26 69.8214 843.452 71.8063 Q839.645 73.7508 834.135 73.7508 Q827.168 73.7508 823.036 69.8619 Q818.944 65.9325 818.944 59.3701 Q818.944 51.7138 824.049 47.825 Q829.193 43.9361 839.361 43.9361 L849.812 43.9361 L849.812 43.2069 Q849.812 38.0623 846.41 35.2672 Q843.047 32.4315 836.93 32.4315 Q833.042 32.4315 829.355 33.3632 Q825.669 34.295 822.266 36.1584 L822.266 29.2718 Q826.358 27.692 830.206 26.9223 Q834.054 26.1121 837.7 26.1121 Q847.544 26.1121 852.405 31.2163 Q857.266 36.3204 857.266 46.6907 Z" fill="#000000" fill-rule="evenodd" fill-opacity="1" /><path clip-path="url(#clip570)" d="M 0 0 M912.075 49.7694 Q903.041 49.7694 899.557 51.8354 Q896.074 53.9013 896.074 58.8839 Q896.074 62.8538 898.666 65.2034 Q901.299 67.5124 905.796 67.5124 Q911.994 67.5124 915.721 63.1374 Q919.488 58.7219 919.488 51.4303 L919.488 49.7694 L912.075 49.7694 M926.942 46.6907 L926.942 72.576 L919.488 72.576 L919.488 65.6895 Q916.936 69.8214 913.128 71.8063 Q909.32 73.7508 903.811 73.7508 Q896.843 73.7508 892.711 69.8619 Q888.62 65.9325 888.62 59.3701 Q888.62 51.7138 893.724 47.825 Q898.869 43.9361 909.037 43.9361 L919.488 43.9361 L919.488 43.2069 Q919.488 38.0623 916.085 35.2672 Q912.723 32.4315 906.606 32.4315 Q902.717 32.4315 899.031 33.3632 Q895.345 34.295 891.942 36.1584 L891.942 29.2718 Q896.033 27.692 899.882 26.9223 Q903.73 26.1121 907.376 26.1121 Q917.219 26.1121 922.08 31.2163 Q926.942 36.3204 926.942 46.6907 Z" fill="#000000" fill-rule="evenodd" fill-opacity="1" /><path clip-path="url(#clip570)" d="M 0 0 M972.474 45.1919 L972.474 72.576 L965.02 72.576 L965.02 45.4349 Q965.02 38.994 962.508 35.7938 Q959.997 32.5936 954.974 32.5936 Q948.938 32.5936 945.454 36.4419 Q941.97 40.2903 941.97 46.9338 L941.97 72.576 L934.476 72.576 L934.476 27.2059 L941.97 27.2059 L941.97 34.2544 Q944.644 30.163 948.249 28.1376 Q951.895 26.1121 956.635 26.1121 Q964.453 26.1121 968.463 30.9732 Q972.474 35.7938 972.474 45.1919 Z" fill="#000000" fill-rule="evenodd" fill-opacity="1" /><path clip-path="url(#clip570)" d="M 0 0 M1010.15 34.0924 L1010.15 9.54393 L1017.6 9.54393 L1017.6 72.576 L1010.15 72.576 L1010.15 65.7705 Q1007.8 69.8214 1004.19 71.8063 Q1000.63 73.7508 995.604 73.7508 Q987.381 73.7508 982.196 67.1883 Q977.051 60.6258 977.051 49.9314 Q977.051 39.2371 982.196 32.6746 Q987.381 26.1121 995.604 26.1121 Q1000.63 26.1121 1004.19 28.0971 Q1007.8 30.0415 1010.15 34.0924 M984.748 49.9314 Q984.748 58.1548 988.11 62.8538 Q991.513 67.5124 997.427 67.5124 Q1003.34 67.5124 1006.74 62.8538 Q1010.15 58.1548 1010.15 49.9314 Q1010.15 41.7081 1006.74 37.0496 Q1003.34 32.3505 997.427 32.3505 Q991.513 32.3505 988.11 37.0496 Q984.748 41.7081 984.748 49.9314 Z" fill="#000000" fill-rule="evenodd" fill-opacity="1" /><path clip-path="url(#clip570)" d="M 0 0 M1043.73 12.096 L1094.89 12.096 L1094.89 18.9825 L1073.42 18.9825 L1073.42 72.576 L1065.2 72.576 L1065.2 18.9825 L1043.73 18.9825 L1043.73 12.096 Z" fill="#000000" fill-rule="evenodd" fill-opacity="1" /><path clip-path="url(#clip570)" d="M 0 0 M1116.81 34.1734 Q1115.55 33.4443 1114.05 33.1202 Q1112.59 32.7556 1110.81 32.7556 Q1104.49 32.7556 1101.09 36.8875 Q1097.73 40.9789 1097.73 48.6757 L1097.73 72.576 L1090.23 72.576 L1090.23 27.2059 L1097.73 27.2059 L1097.73 34.2544 Q1100.08 30.1225 1103.84 28.1376 Q1107.61 26.1121 1113 26.1121 Q1113.77 26.1121 1114.7 26.2337 Q1115.63 26.3147 1116.77 26.5172 L1116.81 34.1734 Z" fill="#000000" fill-rule="evenodd" fill-opacity="1" /><path clip-path="url(#clip570)" d="M 0 0 M1123.86 54.671 L1123.86 27.2059 L1131.31 27.2059 L1131.31 54.3874 Q1131.31 60.8284 1133.82 64.0691 Q1136.33 67.2693 1141.36 67.2693 Q1147.39 67.2693 1150.88 63.421 Q1154.4 59.5726 1154.4 52.9291 L1154.4 27.2059 L1161.85 27.2059 L1161.85 72.576 L1154.4 72.576 L1154.4 65.6084 Q1151.69 69.7404 1148.08 71.7658 Q1144.52 73.7508 1139.78 73.7508 Q1131.96 73.7508 1127.91 68.8897 Q1123.86 64.0286 1123.86 54.671 M1142.61 26.1121 L1142.61 26.1121 Z" fill="#000000" fill-rule="evenodd" fill-opacity="1" /><path clip-path="url(#clip570)" d="M 0 0 M1208.48 48.0275 L1208.48 51.6733 L1174.21 51.6733 Q1174.69 59.3701 1178.83 63.421 Q1183 67.4314 1190.41 67.4314 Q1194.71 67.4314 1198.72 66.3781 Q1202.77 65.3249 1206.74 63.2184 L1206.74 70.267 Q1202.73 71.9684 1198.51 72.8596 Q1194.3 73.7508 1189.97 73.7508 Q1179.11 73.7508 1172.75 67.4314 Q1166.43 61.1119 1166.43 50.3365 Q1166.43 39.1965 1172.43 32.6746 Q1178.46 26.1121 1188.67 26.1121 Q1197.83 26.1121 1203.13 32.0264 Q1208.48 37.9003 1208.48 48.0275 M1201.03 45.84 Q1200.94 39.7232 1197.58 36.0774 Q1194.26 32.4315 1188.75 32.4315 Q1182.51 32.4315 1178.75 35.9558 Q1175.02 39.4801 1174.45 45.8805 L1201.03 45.84 Z" fill="#000000" fill-rule="evenodd" fill-opacity="1" /><path clip-path="url(#clip570)" d="M 0 0 M1279.25 14.0809 L1279.25 22.0612 Q1274.59 19.8332 1270.46 18.7395 Q1266.33 17.6457 1262.48 17.6457 Q1255.79 17.6457 1252.15 20.2383 Q1248.54 22.8309 1248.54 27.611 Q1248.54 31.6214 1250.93 33.6873 Q1253.36 35.7128 1260.09 36.9686 L1265.03 37.9813 Q1274.19 39.7232 1278.52 44.1387 Q1282.89 48.5136 1282.89 55.8863 Q1282.89 64.6767 1276.98 69.2137 Q1271.11 73.7508 1259.72 73.7508 Q1255.43 73.7508 1250.57 72.7785 Q1245.75 71.8063 1240.56 69.9024 L1240.56 61.4765 Q1245.55 64.2716 1250.33 65.6895 Q1255.11 67.1073 1259.72 67.1073 Q1266.73 67.1073 1270.54 64.3527 Q1274.35 61.598 1274.35 56.4939 Q1274.35 52.0379 1271.59 49.5264 Q1268.88 47.0148 1262.64 45.759 L1257.66 44.7868 Q1248.5 42.9639 1244.41 39.075 Q1240.32 35.1862 1240.32 28.2591 Q1240.32 20.2383 1245.95 15.6203 Q1251.62 11.0023 1261.55 11.0023 Q1265.8 11.0023 1270.22 11.7719 Q1274.63 12.5416 1279.25 14.0809 Z" fill="#000000" fill-rule="evenodd" fill-opacity="1" /><path clip-path="url(#clip570)" d="M 0 0 M1298.09 14.324 L1298.09 27.2059 L1313.44 27.2059 L1313.44 32.9987 L1298.09 32.9987 L1298.09 57.6282 Q1298.09 63.1779 1299.58 64.7578 Q1301.12 66.3376 1305.78 66.3376 L1313.44 66.3376 L1313.44 72.576 L1305.78 72.576 Q1297.15 72.576 1293.87 69.3758 Q1290.59 66.1351 1290.59 57.6282 L1290.59 32.9987 L1285.12 32.9987 L1285.12 27.2059 L1290.59 27.2059 L1290.59 14.324 L1298.09 14.324 Z" fill="#000000" fill-rule="evenodd" fill-opacity="1" /><path clip-path="url(#clip570)" d="M 0 0 M1341.88 49.7694 Q1332.84 49.7694 1329.36 51.8354 Q1325.87 53.9013 1325.87 58.8839 Q1325.87 62.8538 1328.47 65.2034 Q1331.1 67.5124 1335.6 67.5124 Q1341.79 67.5124 1345.52 63.1374 Q1349.29 58.7219 1349.29 51.4303 L1349.29 49.7694 L1341.88 49.7694 M1356.74 46.6907 L1356.74 72.576 L1349.29 72.576 L1349.29 65.6895 Q1346.74 69.8214 1342.93 71.8063 Q1339.12 73.7508 1333.61 73.7508 Q1326.64 73.7508 1322.51 69.8619 Q1318.42 65.9325 1318.42 59.3701 Q1318.42 51.7138 1323.53 47.825 Q1328.67 43.9361 1338.84 43.9361 L1349.29 43.9361 L1349.29 43.2069 Q1349.29 38.0623 1345.89 35.2672 Q1342.52 32.4315 1336.41 32.4315 Q1332.52 32.4315 1328.83 33.3632 Q1325.15 34.295 1321.74 36.1584 L1321.74 29.2718 Q1325.83 27.692 1329.68 26.9223 Q1333.53 26.1121 1337.18 26.1121 Q1347.02 26.1121 1351.88 31.2163 Q1356.74 36.3204 1356.74 46.6907 Z" fill="#000000" fill-rule="evenodd" fill-opacity="1" /><path clip-path="url(#clip570)" d="M 0 0 M1371.93 14.324 L1371.93 27.2059 L1387.29 27.2059 L1387.29 32.9987 L1371.93 32.9987 L1371.93 57.6282 Q1371.93 63.1779 1373.43 64.7578 Q1374.97 66.3376 1379.63 66.3376 L1387.29 66.3376 L1387.29 72.576 L1379.63 72.576 Q1371 72.576 1367.72 69.3758 Q1364.44 66.1351 1364.44 57.6282 L1364.44 32.9987 L1358.97 32.9987 L1358.97 27.2059 L1364.44 27.2059 L1364.44 14.324 L1371.93 14.324 Z" fill="#000000" fill-rule="evenodd" fill-opacity="1" /><path clip-path="url(#clip570)" d="M 0 0 M1395.1 27.2059 L1402.56 27.2059 L1402.56 72.576 L1395.1 72.576 L1395.1 27.2059 M1395.1 9.54393 L1402.56 9.54393 L1402.56 18.9825 L1395.1 18.9825 L1395.1 9.54393 Z" fill="#000000" fill-rule="evenodd" fill-opacity="1" /><path clip-path="url(#clip570)" d="M 0 0 M1439.3 28.5427 L1439.3 35.5912 Q1436.14 33.9709 1432.74 33.1607 Q1429.33 32.3505 1425.69 32.3505 Q1420.14 32.3505 1417.34 34.0519 Q1414.59 35.7533 1414.59 39.156 Q1414.59 41.7486 1416.57 43.2475 Q1418.56 44.7058 1424.55 46.0426 L1427.11 46.6097 Q1435.05 48.3111 1438.37 51.4303 Q1441.73 54.509 1441.73 60.0587 Q1441.73 66.3781 1436.71 70.0644 Q1431.72 73.7508 1422.97 73.7508 Q1419.33 73.7508 1415.36 73.0216 Q1411.43 72.3329 1407.05 70.9151 L1407.05 63.2184 Q1411.19 65.3654 1415.2 66.4591 Q1419.21 67.5124 1423.14 67.5124 Q1428.4 67.5124 1431.24 65.73 Q1434.07 63.9071 1434.07 60.6258 Q1434.07 57.5877 1432.01 55.9673 Q1429.98 54.3469 1423.06 52.8481 L1420.46 52.2405 Q1413.54 50.7821 1410.46 47.7845 Q1407.38 44.7463 1407.38 39.4801 Q1407.38 33.0797 1411.92 29.5959 Q1416.45 26.1121 1424.8 26.1121 Q1428.93 26.1121 1432.58 26.7198 Q1436.22 27.3274 1439.3 28.5427 Z" fill="#000000" fill-rule="evenodd" fill-opacity="1" /><path clip-path="url(#clip570)" d="M 0 0 M1456.92 14.324 L1456.92 27.2059 L1472.27 27.2059 L1472.27 32.9987 L1456.92 32.9987 L1456.92 57.6282 Q1456.92 63.1779 1458.42 64.7578 Q1459.96 66.3376 1464.62 66.3376 L1472.27 66.3376 L1472.27 72.576 L1464.62 72.576 Q1455.99 72.576 1452.71 69.3758 Q1449.43 66.1351 1449.43 57.6282 L1449.43 32.9987 L1443.96 32.9987 L1443.96 27.2059 L1449.43 27.2059 L1449.43 14.324 L1456.92 14.324 Z" fill="#000000" fill-rule="evenodd" fill-opacity="1" /><path clip-path="url(#clip570)" d="M 0 0 M1480.09 27.2059 L1487.55 27.2059 L1487.55 72.576 L1480.09 72.576 L1480.09 27.2059 M1480.09 9.54393 L1487.55 9.54393 L1487.55 18.9825 L1480.09 18.9825 L1480.09 9.54393 Z" fill="#000000" fill-rule="evenodd" fill-opacity="1" /><path clip-path="url(#clip570)" d="M 0 0 M1528.01 28.9478 L1528.01 35.9153 Q1524.86 34.1734 1521.65 33.3227 Q1518.5 32.4315 1515.25 32.4315 Q1508 32.4315 1503.99 37.0496 Q1499.98 41.6271 1499.98 49.9314 Q1499.98 58.2358 1503.99 62.8538 Q1508 67.4314 1515.25 67.4314 Q1518.5 67.4314 1521.65 66.5807 Q1524.86 65.6895 1528.01 63.9476 L1528.01 70.8341 Q1524.9 72.2924 1521.53 73.0216 Q1518.21 73.7508 1514.44 73.7508 Q1504.2 73.7508 1498.16 67.3098 Q1492.12 60.8689 1492.12 49.9314 Q1492.12 38.832 1498.2 32.472 Q1504.32 26.1121 1514.93 26.1121 Q1518.37 26.1121 1521.65 26.8413 Q1524.94 27.5299 1528.01 28.9478 Z" fill="#000000" fill-rule="evenodd" fill-opacity="1" /><path clip-path="url(#clip570)" d="M 0 0 M1556.45 49.7694 Q1547.42 49.7694 1543.93 51.8354 Q1540.45 53.9013 1540.45 58.8839 Q1540.45 62.8538 1543.04 65.2034 Q1545.68 67.5124 1550.17 67.5124 Q1556.37 67.5124 1560.1 63.1374 Q1563.87 58.7219 1563.87 51.4303 L1563.87 49.7694 L1556.45 49.7694 M1571.32 46.6907 L1571.32 72.576 L1563.87 72.576 L1563.87 65.6895 Q1561.31 69.8214 1557.51 71.8063 Q1553.7 73.7508 1548.19 73.7508 Q1541.22 73.7508 1537.09 69.8619 Q1533 65.9325 1533 59.3701 Q1533 51.7138 1538.1 47.825 Q1543.25 43.9361 1553.41 43.9361 L1563.87 43.9361 L1563.87 43.2069 Q1563.87 38.0623 1560.46 35.2672 Q1557.1 32.4315 1550.98 32.4315 Q1547.09 32.4315 1543.41 33.3632 Q1539.72 34.295 1536.32 36.1584 L1536.32 29.2718 Q1540.41 27.692 1544.26 26.9223 Q1548.11 26.1121 1551.75 26.1121 Q1561.6 26.1121 1566.46 31.2163 Q1571.32 36.3204 1571.32 46.6907 Z" fill="#000000" fill-rule="evenodd" fill-opacity="1" /><path clip-path="url(#clip570)" d="M 0 0 M1579.14 9.54393 L1586.59 9.54393 L1586.59 72.576 L1579.14 72.576 L1579.14 9.54393 Z" fill="#000000" fill-rule="evenodd" fill-opacity="1" /><path clip-path="url(#clip570)" d="M 0 0 M1621.1 12.096 L1633.3 12.096 L1648.73 53.2532 L1664.25 12.096 L1676.44 12.096 L1676.44 72.576 L1668.46 72.576 L1668.46 19.4686 L1652.86 60.9499 L1644.64 60.9499 L1629.04 19.4686 L1629.04 72.576 L1621.1 72.576 L1621.1 12.096 Z" fill="#000000" fill-rule="evenodd" fill-opacity="1" /><path clip-path="url(#clip570)" d="M 0 0 M1701.84 32.4315 Q1695.84 32.4315 1692.36 37.1306 Q1688.88 41.7891 1688.88 49.9314 Q1688.88 58.0738 1692.32 62.7728 Q1695.8 67.4314 1701.84 67.4314 Q1707.79 67.4314 1711.28 62.7323 Q1714.76 58.0333 1714.76 49.9314 Q1714.76 41.8701 1711.28 37.1711 Q1707.79 32.4315 1701.84 32.4315 M1701.84 26.1121 Q1711.56 26.1121 1717.11 32.4315 Q1722.66 38.7509 1722.66 49.9314 Q1722.66 61.0714 1717.11 67.4314 Q1711.56 73.7508 1701.84 73.7508 Q1692.08 73.7508 1686.53 67.4314 Q1681.02 61.0714 1681.02 49.9314 Q1681.02 38.7509 1686.53 32.4315 Q1692.08 26.1121 1701.84 26.1121 Z" fill="#000000" fill-rule="evenodd" fill-opacity="1" /><path clip-path="url(#clip570)" d="M 0 0 M1760.33 34.0924 L1760.33 9.54393 L1767.79 9.54393 L1767.79 72.576 L1760.33 72.576 L1760.33 65.7705 Q1757.98 69.8214 1754.38 71.8063 Q1750.81 73.7508 1745.79 73.7508 Q1737.57 73.7508 1732.38 67.1883 Q1727.24 60.6258 1727.24 49.9314 Q1727.24 39.2371 1732.38 32.6746 Q1737.57 26.1121 1745.79 26.1121 Q1750.81 26.1121 1754.38 28.0971 Q1757.98 30.0415 1760.33 34.0924 M1734.93 49.9314 Q1734.93 58.1548 1738.3 62.8538 Q1741.7 67.5124 1747.61 67.5124 Q1753.53 67.5124 1756.93 62.8538 Q1760.33 58.1548 1760.33 49.9314 Q1760.33 41.7081 1756.93 37.0496 Q1753.53 32.3505 1747.61 32.3505 Q1741.7 32.3505 1738.3 37.0496 Q1734.93 41.7081 1734.93 49.9314 Z" fill="#000000" fill-rule="evenodd" fill-opacity="1" /><path clip-path="url(#clip570)" d="M 0 0 M1814.41 48.0275 L1814.41 51.6733 L1780.14 51.6733 Q1780.63 59.3701 1784.76 63.421 Q1788.93 67.4314 1796.35 67.4314 Q1800.64 67.4314 1804.65 66.3781 Q1808.7 65.3249 1812.67 63.2184 L1812.67 70.267 Q1808.66 71.9684 1804.45 72.8596 Q1800.24 73.7508 1795.9 73.7508 Q1785.04 73.7508 1778.68 67.4314 Q1772.37 61.1119 1772.37 50.3365 Q1772.37 39.1965 1778.36 32.6746 Q1784.4 26.1121 1794.6 26.1121 Q1803.76 26.1121 1809.07 32.0264 Q1814.41 37.9003 1814.41 48.0275 M1806.96 45.84 Q1806.88 39.7232 1803.52 36.0774 Q1800.19 32.4315 1794.69 32.4315 Q1788.45 32.4315 1784.68 35.9558 Q1780.95 39.4801 1780.39 45.8805 L1806.96 45.84 Z" fill="#000000" fill-rule="evenodd" fill-opacity="1" /><path clip-path="url(#clip570)" d="M 0 0 M1822.23 9.54393 L1829.69 9.54393 L1829.69 72.576 L1822.23 72.576 L1822.23 9.54393 Z" fill="#000000" fill-rule="evenodd" fill-opacity="1" /><polyline clip-path="url(#clip572)" style="stroke:#009af9; stroke-width:4; stroke-opacity:1; fill:none" points="
  743.784,1447.87 743.784,1336.75 769.569,1336.75 769.569,1241.51 795.354,1241.51 795.354,1273.25 821.139,1273.25 821.139,1082.76 846.923,1082.76 846.923,1146.26 
  872.708,1146.26 872.708,1035.14 898.493,1035.14 898.493,955.767 924.278,955.767 924.278,844.646 950.063,844.646 950.063,860.52 975.847,860.52 975.847,717.651 
  1001.63,717.651 1001.63,939.892 1027.42,939.892 1027.42,955.767 1053.2,955.767 1053.2,860.52 1078.99,860.52 1078.99,1019.26 1104.77,1019.26 1104.77,1035.14 
  1130.56,1035.14 1156.34,1035.14 1156.34,1178.01 1182.13,1178.01 1182.13,1336.75 1207.91,1336.75 1207.91,1289.13 1233.7,1289.13 1233.7,1416.12 
  1259.48,1416.12 1259.48,1336.75 1285.27,1336.75 1285.27,1352.63 1311.05,1352.63 1311.05,1384.38 1336.83,1384.38 1336.83,1432 1362.62,1432 1362.62,1447.87 
  1388.4,1447.87 1388.4,1400.25 1414.19,1400.25 1414.19,1368.5 1439.97,1368.5 1439.97,1352.63 1465.76,1352.63 1465.76,1368.5 1491.54,1368.5 1491.54,1336.75 
  1517.33,1336.75 1517.33,1241.51 1543.11,1241.51 1543.11,1162.13 1568.9,1162.13 1568.9,1066.89 1594.68,1066.89 1594.68,924.018 1620.47,924.018 1620.47,717.651 
  1646.25,717.651 1646.25,447.786 1672.04,447.786 1672.04,289.042 1697.82,289.042 1697.82,479.535 1723.61,479.535 1723.61,162.047 1749.39,162.047 1749.39,209.67 
  1775.18,209.67 1775.18,257.293 1800.96,257.293 1800.96,304.916 1826.75,304.916 1826.75,273.168 1852.53,273.168 1852.53,495.409 1878.32,495.409 1878.32,590.656 
  1904.1,590.656 1904.1,844.646 1929.89,844.646 1929.89,939.892 1955.67,939.892 1955.67,987.516 1981.45,987.516 1981.45,1241.51 2007.24,1241.51 2007.24,1257.38 
  2033.02,1257.38 2033.02,1305 2058.81,1305 2058.81,1400.25 2084.59,1400.25 2110.38,1400.25 2110.38,1416.12 2136.16,1416.12 2136.16,1368.5 
  2161.95,1368.5 2161.95,1416.12 2187.73,1416.12 2187.73,1432 2213.52,1432 2239.3,1432 2239.3,1447.87 2265.09,1447.87 
  2290.87,1447.87 
  "/>
<polyline clip-path="url(#clip572)" style="stroke:#e26f46; stroke-width:4; stroke-opacity:1; fill:none" points="
  228.088,1447.87 230.667,1447.87 233.245,1447.87 235.824,1447.87 238.402,1447.87 240.981,1447.87 243.559,1447.87 246.138,1447.87 248.716,1447.87 251.295,1447.87 
  253.873,1447.87 256.451,1447.87 259.03,1447.87 261.608,1447.87 264.187,1447.87 266.765,1447.87 269.344,1447.87 271.922,1447.87 274.501,1447.87 277.079,1447.87 
  279.658,1447.87 282.236,1447.87 284.815,1447.87 287.393,1447.87 289.972,1447.87 292.55,1447.87 295.129,1447.87 297.707,1447.87 300.286,1447.87 302.864,1447.87 
  305.443,1447.87 308.021,1447.87 310.6,1447.87 313.178,1447.87 315.757,1447.87 318.335,1447.87 320.913,1447.87 323.492,1447.87 326.07,1447.87 328.649,1447.87 
  331.227,1447.87 333.806,1447.87 336.384,1447.87 338.963,1447.87 341.541,1447.87 344.12,1447.87 346.698,1447.87 349.277,1447.87 351.855,1447.87 354.434,1447.87 
  357.012,1447.87 359.591,1447.87 362.169,1447.87 364.748,1447.87 367.326,1447.87 369.905,1447.87 372.483,1447.87 375.062,1447.87 377.64,1447.87 380.219,1447.87 
  382.797,1447.87 385.375,1447.87 387.954,1447.87 390.532,1447.86 393.111,1447.86 395.689,1447.86 398.268,1447.86 400.846,1447.86 403.425,1447.86 406.003,1447.86 
  408.582,1447.86 411.16,1447.86 413.739,1447.85 416.317,1447.85 418.896,1447.85 421.474,1447.85 424.053,1447.85 426.631,1447.84 429.21,1447.84 431.788,1447.84 
  434.367,1447.83 436.945,1447.83 439.524,1447.83 442.102,1447.82 444.681,1447.82 447.259,1447.81 449.837,1447.81 452.416,1447.8 454.994,1447.79 457.573,1447.79 
  460.151,1447.78 462.73,1447.77 465.308,1447.76 467.887,1447.75 470.465,1447.74 473.044,1447.73 475.622,1447.72 478.201,1447.71 480.779,1447.69 483.358,1447.68 
  485.936,1447.66 488.515,1447.64 491.093,1447.62 493.672,1447.6 496.25,1447.58 498.829,1447.56 501.407,1447.53 503.986,1447.5 506.564,1447.48 509.143,1447.44 
  511.721,1447.41 514.299,1447.37 516.878,1447.33 519.456,1447.29 522.035,1447.25 524.613,1447.2 527.192,1447.15 529.77,1447.09 532.349,1447.03 534.927,1446.97 
  537.506,1446.9 540.084,1446.83 542.663,1446.75 545.241,1446.67 547.82,1446.58 550.398,1446.49 552.977,1446.39 555.555,1446.28 558.134,1446.17 560.712,1446.05 
  563.291,1445.92 565.869,1445.78 568.448,1445.63 571.026,1445.48 573.605,1445.31 576.183,1445.14 578.762,1444.95 581.34,1444.76 583.918,1444.55 586.497,1444.32 
  589.075,1444.09 591.654,1443.84 594.232,1443.58 596.811,1443.3 599.389,1443 601.968,1442.69 604.546,1442.36 607.125,1442.01 609.703,1441.64 612.282,1441.25 
  614.86,1440.84 617.439,1440.4 620.017,1439.95 622.596,1439.47 625.174,1438.96 627.753,1438.42 630.331,1437.86 632.91,1437.27 635.488,1436.65 638.067,1435.99 
  640.645,1435.31 643.224,1434.59 645.802,1433.83 648.38,1433.04 650.959,1432.2 653.537,1431.33 656.116,1430.42 658.694,1429.46 661.273,1428.46 663.851,1427.41 
  666.43,1426.31 669.008,1425.16 671.587,1423.97 674.165,1422.72 676.744,1421.41 679.322,1420.05 681.901,1418.63 684.479,1417.15 687.058,1415.6 689.636,1414 
  692.215,1412.32 694.793,1410.58 697.372,1408.77 699.95,1406.89 702.529,1404.94 705.107,1402.91 707.686,1400.8 710.264,1398.61 712.842,1396.34 715.421,1393.99 
  717.999,1391.56 720.578,1389.04 723.156,1386.43 725.735,1383.73 728.313,1380.94 730.892,1378.05 733.47,1375.07 736.049,1371.99 738.627,1368.82 741.206,1365.54 
  743.784,1362.17 746.363,1358.69 748.941,1355.1 751.52,1351.41 754.098,1347.62 756.677,1343.71 759.255,1339.7 761.834,1335.58 764.412,1331.34 766.991,1327 
  769.569,1322.54 772.148,1317.98 774.726,1313.3 777.304,1308.5 779.883,1303.6 782.461,1298.58 785.04,1293.44 787.618,1288.2 790.197,1282.84 792.775,1277.37 
  795.354,1271.79 797.932,1266.1 800.511,1260.31 803.089,1254.4 805.668,1248.39 808.246,1242.27 810.825,1236.05 813.403,1229.73 815.982,1223.31 818.56,1216.8 
  821.139,1210.19 823.717,1203.49 826.296,1196.7 828.874,1189.83 831.453,1182.87 834.031,1175.84 836.61,1168.73 839.188,1161.54 841.766,1154.3 844.345,1146.98 
  846.923,1139.61 849.502,1132.19 852.08,1124.72 854.659,1117.2 857.237,1109.64 859.816,1102.05 862.394,1094.42 864.973,1086.78 867.551,1079.12 870.13,1071.44 
  872.708,1063.76 875.287,1056.08 877.865,1048.4 880.444,1040.74 883.022,1033.1 885.601,1025.48 888.179,1017.89 890.758,1010.35 893.336,1002.84 895.915,995.395 
  898.493,988.005 901.072,980.682 903.65,973.431 906.228,966.261 908.807,959.178 911.385,952.189 913.964,945.301 916.542,938.521 919.121,931.856 921.699,925.313 
  924.278,918.899 926.856,912.62 929.435,906.483 932.013,900.495 934.592,894.662 937.17,888.991 939.749,883.487 942.327,878.156 944.906,873.006 947.484,868.041 
  950.063,863.266 952.641,858.689 955.22,854.313 957.798,850.143 960.377,846.185 962.955,842.443 965.534,838.921 968.112,835.624 970.69,832.555 973.269,829.718 
  975.847,827.116 978.426,824.753 981.004,822.631 983.583,820.752 986.161,819.12 988.74,817.735 991.318,816.6 993.897,815.715 996.475,815.083 999.054,814.703 
  1001.63,814.576 1004.21,814.703 1006.79,815.083 1009.37,815.715 1011.95,816.6 1014.52,817.735 1017.1,819.12 1019.68,820.752 1022.26,822.631 1024.84,824.753 
  1027.42,827.116 1030,829.718 1032.57,832.555 1035.15,835.624 1037.73,838.921 1040.31,842.443 1042.89,846.185 1045.47,850.143 1048.04,854.312 1050.62,858.689 
  1053.2,863.266 1055.78,868.04 1058.36,873.006 1060.94,878.156 1063.52,883.486 1066.09,888.99 1068.67,894.662 1071.25,900.495 1073.83,906.483 1076.41,912.62 
  1078.99,918.899 1081.57,925.313 1084.14,931.856 1086.72,938.52 1089.3,945.3 1091.88,952.188 1094.46,959.177 1097.04,966.26 1099.61,973.43 1102.19,980.68 
  1104.77,988.004 1107.35,995.393 1109.93,1002.84 1112.51,1010.34 1115.09,1017.89 1117.66,1025.48 1120.24,1033.09 1122.82,1040.74 1125.4,1048.4 1127.98,1056.07 
  1130.56,1063.75 1133.13,1071.44 1135.71,1079.11 1138.29,1086.77 1140.87,1094.42 1143.45,1102.04 1146.03,1109.63 1148.61,1117.19 1151.18,1124.71 1153.76,1132.18 
  1156.34,1139.6 1158.92,1146.97 1161.5,1154.28 1164.08,1161.53 1166.65,1168.71 1169.23,1175.82 1171.81,1182.85 1174.39,1189.8 1176.97,1196.67 1179.55,1203.46 
  1182.13,1210.16 1184.7,1216.76 1187.28,1223.28 1189.86,1229.69 1192.44,1236.01 1195.02,1242.22 1197.6,1248.33 1200.18,1254.34 1202.75,1260.24 1205.33,1266.03 
  1207.91,1271.71 1210.49,1277.29 1213.07,1282.75 1215.65,1288.1 1218.22,1293.33 1220.8,1298.45 1223.38,1303.46 1225.96,1308.36 1228.54,1313.14 1231.12,1317.8 
  1233.7,1322.36 1236.27,1326.8 1238.85,1331.12 1241.43,1335.34 1244.01,1339.44 1246.59,1343.43 1249.17,1347.31 1251.74,1351.08 1254.32,1354.74 1256.9,1358.29 
  1259.48,1361.74 1262.06,1365.08 1264.64,1368.32 1267.22,1371.45 1269.79,1374.49 1272.37,1377.42 1274.95,1380.26 1277.53,1382.99 1280.11,1385.63 1282.69,1388.18 
  1285.27,1390.63 1287.84,1392.99 1290.42,1395.27 1293,1397.45 1295.58,1399.55 1298.16,1401.56 1300.74,1403.48 1303.31,1405.33 1305.89,1407.09 1308.47,1408.78 
  1311.05,1410.38 1313.63,1411.91 1316.21,1413.36 1318.79,1414.74 1321.36,1416.04 1323.94,1417.28 1326.52,1418.44 1329.1,1419.53 1331.68,1420.55 1334.26,1421.51 
  1336.83,1422.4 1339.41,1423.22 1341.99,1423.98 1344.57,1424.67 1347.15,1425.3 1349.73,1425.86 1352.31,1426.36 1354.88,1426.8 1357.46,1427.18 1360.04,1427.49 
  1362.62,1427.74 1365.2,1427.93 1367.78,1428.05 1370.35,1428.12 1372.93,1428.12 1375.51,1428.05 1378.09,1427.93 1380.67,1427.73 1383.25,1427.48 1385.83,1427.16 
  1388.4,1426.77 1390.98,1426.31 1393.56,1425.79 1396.14,1425.19 1398.72,1424.53 1401.3,1423.79 1403.88,1422.98 1406.45,1422.09 1409.03,1421.13 1411.61,1420.08 
  1414.19,1418.96 1416.77,1417.75 1419.35,1416.46 1421.92,1415.08 1424.5,1413.61 1427.08,1412.05 1429.66,1410.4 1432.24,1408.65 1434.82,1406.8 1437.4,1404.85 
  1439.97,1402.79 1442.55,1400.63 1445.13,1398.35 1447.71,1395.97 1450.29,1393.46 1452.87,1390.84 1455.44,1388.09 1458.02,1385.22 1460.6,1382.21 1463.18,1379.08 
  1465.76,1375.8 1468.34,1372.39 1470.92,1368.83 1473.49,1365.13 1476.07,1361.27 1478.65,1357.26 1481.23,1353.1 1483.81,1348.77 1486.39,1344.28 1488.97,1339.62 
  1491.54,1334.78 1494.12,1329.77 1496.7,1324.59 1499.28,1319.22 1501.86,1313.66 1504.44,1307.92 1507.01,1301.98 1509.59,1295.85 1512.17,1289.51 1514.75,1282.98 
  1517.33,1276.25 1519.91,1269.3 1522.49,1262.15 1525.06,1254.78 1527.64,1247.2 1530.22,1239.41 1532.8,1231.39 1535.38,1223.16 1537.96,1214.7 1540.53,1206.03 
  1543.11,1197.12 1545.69,1187.99 1548.27,1178.64 1550.85,1169.06 1553.43,1159.25 1556.01,1149.22 1558.58,1138.96 1561.16,1128.47 1563.74,1117.76 1566.32,1106.83 
  1568.9,1095.67 1571.48,1084.3 1574.05,1072.7 1576.63,1060.9 1579.21,1048.88 1581.79,1036.64 1584.37,1024.21 1586.95,1011.57 1589.53,998.735 1592.1,985.707 
  1594.68,972.49 1597.26,959.091 1599.84,945.515 1602.42,931.768 1605,917.857 1607.58,903.788 1610.15,889.569 1612.73,875.208 1615.31,860.712 1617.89,846.089 
  1620.47,831.349 1623.05,816.501 1625.62,801.553 1628.2,786.516 1630.78,771.4 1633.36,756.215 1635.94,740.972 1638.52,725.681 1641.1,710.355 1643.67,695.005 
  1646.25,679.643 1648.83,664.281 1651.41,648.931 1653.99,633.606 1656.57,618.319 1659.14,603.083 1661.72,587.911 1664.3,572.817 1666.88,557.814 1669.46,542.916 
  1672.04,528.136 1674.62,513.489 1677.19,498.989 1679.77,484.648 1682.35,470.482 1684.93,456.504 1687.51,442.728 1690.09,429.169 1692.66,415.839 1695.24,402.753 
  1697.82,389.925 1700.4,377.367 1702.98,365.094 1705.56,353.117 1708.14,341.451 1710.71,330.108 1713.29,319.1 1715.87,308.44 1718.45,298.138 1721.03,288.208 
  1723.61,278.66 1726.19,269.504 1728.76,260.752 1731.34,252.413 1733.92,244.497 1736.5,237.013 1739.08,229.969 1741.66,223.375 1744.23,217.237 1746.81,211.563 
  1749.39,206.36 1751.97,201.633 1754.55,197.388 1757.13,193.631 1759.71,190.366 1762.28,187.597 1764.86,185.326 1767.44,183.557 1770.02,182.292 1772.6,181.533 
  1775.18,181.279 1777.75,181.533 1780.33,182.292 1782.91,183.557 1785.49,185.326 1788.07,187.597 1790.65,190.366 1793.23,193.631 1795.8,197.389 1798.38,201.633 
  1800.96,206.36 1803.54,211.563 1806.12,217.237 1808.7,223.375 1811.28,229.969 1813.85,237.013 1816.43,244.497 1819.01,252.413 1821.59,260.752 1824.17,269.504 
  1826.75,278.66 1829.32,288.208 1831.9,298.138 1834.48,308.44 1837.06,319.1 1839.64,330.108 1842.22,341.451 1844.8,353.118 1847.37,365.094 1849.95,377.367 
  1852.53,389.925 1855.11,402.754 1857.69,415.84 1860.27,429.169 1862.84,442.729 1865.42,456.504 1868,470.482 1870.58,484.649 1873.16,498.989 1875.74,513.49 
  1878.32,528.137 1880.89,542.917 1883.47,557.815 1886.05,572.818 1888.63,587.913 1891.21,603.084 1893.79,618.321 1896.36,633.608 1898.94,648.933 1901.52,664.283 
  1904.1,679.645 1906.68,695.008 1909.26,710.358 1911.84,725.684 1914.41,740.975 1916.99,756.219 1919.57,771.404 1922.15,786.521 1924.73,801.558 1927.31,816.507 
  1929.89,831.356 1932.46,846.096 1935.04,860.72 1937.62,875.216 1940.2,889.579 1942.78,903.798 1945.36,917.868 1947.93,931.78 1950.51,945.528 1953.09,959.106 
  1955.67,972.506 1958.25,985.725 1960.83,998.755 1963.41,1011.59 1965.98,1024.23 1968.56,1036.67 1971.14,1048.9 1973.72,1060.93 1976.3,1072.74 1978.88,1084.33 
  1981.45,1095.71 1984.03,1106.87 1986.61,1117.81 1989.19,1128.52 1991.77,1139.01 1994.35,1149.28 1996.93,1159.32 1999.5,1169.13 2002.08,1178.72 2004.66,1188.08 
  2007.24,1197.22 2009.82,1206.13 2012.4,1214.82 2014.97,1223.28 2017.55,1231.53 2020.13,1239.55 2022.71,1247.36 2025.29,1254.95 2027.87,1262.33 2030.45,1269.5 
  2033.02,1276.46 2035.6,1283.21 2038.18,1289.76 2040.76,1296.12 2043.34,1302.27 2045.92,1308.23 2048.5,1314 2051.07,1319.58 2053.65,1324.98 2056.23,1330.2 
  2058.81,1335.25 2061.39,1340.12 2063.97,1344.82 2066.54,1349.35 2069.12,1353.72 2071.7,1357.94 2074.28,1362 2076.86,1365.91 2079.44,1369.67 2082.02,1373.29 
  2084.59,1376.77 2087.17,1380.12 2089.75,1383.33 2092.33,1386.42 2094.91,1389.38 2097.49,1392.22 2100.06,1394.95 2102.64,1397.56 2105.22,1400.06 2107.8,1402.46 
  2110.38,1404.75 2112.96,1406.94 2115.54,1409.04 2118.11,1411.04 2120.69,1412.96 2123.27,1414.79 2125.85,1416.53 2128.43,1418.2 2131.01,1419.79 2133.59,1421.3 
  2136.16,1422.74 2138.74,1424.12 2141.32,1425.42 2143.9,1426.67 2146.48,1427.85 2149.06,1428.97 2151.63,1430.04 2154.21,1431.06 2156.79,1432.02 2159.37,1432.94 
  2161.95,1433.8 2164.53,1434.62 2167.11,1435.4 2169.68,1436.14 2172.26,1436.84 2174.84,1437.5 2177.42,1438.13 2180,1438.72 2182.58,1439.28 2185.15,1439.81 
  2187.73,1440.3 2190.31,1440.77 2192.89,1441.22 2195.47,1441.64 2198.05,1442.03 2200.63,1442.4 2203.2,1442.75 2205.78,1443.08 2208.36,1443.39 2210.94,1443.69 
  2213.52,1443.96 2216.1,1444.22 2218.67,1444.46 2221.25,1444.69 2223.83,1444.9 2226.41,1445.1 2228.99,1445.29 2231.57,1445.47 2234.15,1445.63 2236.72,1445.79 
  2239.3,1445.93 2241.88,1446.07 2244.46,1446.19 2247.04,1446.31 2249.62,1446.42 2252.2,1446.52 2254.77,1446.62 2257.35,1446.71 2259.93,1446.79 2262.51,1446.87 
  2265.09,1446.95 2267.67,1447.01 2270.24,1447.08 2272.82,1447.14 2275.4,1447.19 2277.98,1447.24 2280.56,1447.29 2283.14,1447.33 2285.72,1447.37 2288.29,1447.41 
  2290.87,1447.45 
  "/>
<path clip-path="url(#clip570)" d="
M1925.95 350.345 L2279.87 350.345 L2279.87 168.905 L1925.95 168.905  Z
  " fill="#ffffff" fill-rule="evenodd" fill-opacity="1"/>
<polyline clip-path="url(#clip570)" style="stroke:#000000; stroke-width:4; stroke-opacity:1; fill:none" points="
  1925.95,350.345 2279.87,350.345 2279.87,168.905 1925.95,168.905 1925.95,350.345 
  "/>
<polyline clip-path="url(#clip570)" style="stroke:#009af9; stroke-width:4; stroke-opacity:1; fill:none" points="
  1950.24,229.385 2096.01,229.385 
  "/>
<path clip-path="url(#clip570)" d="M 0 0 M2124.99 215.947 L2124.99 242.822 L2130.63 242.822 Q2137.79 242.822 2141.1 239.581 Q2144.43 236.341 2144.43 229.35 Q2144.43 222.406 2141.1 219.188 Q2137.79 215.947 2130.63 215.947 L2124.99 215.947 M2120.31 212.105 L2129.92 212.105 Q2139.96 212.105 2144.66 216.294 Q2149.36 220.461 2149.36 229.35 Q2149.36 238.285 2144.64 242.475 Q2139.92 246.665 2129.92 246.665 L2120.31 246.665 L2120.31 212.105 Z" fill="#000000" fill-rule="evenodd" fill-opacity="1" /><path clip-path="url(#clip570)" d="M 0 0 M2165.61 233.632 Q2160.45 233.632 2158.46 234.813 Q2156.47 235.993 2156.47 238.841 Q2156.47 241.109 2157.95 242.452 Q2159.45 243.771 2162.02 243.771 Q2165.56 243.771 2167.69 241.271 Q2169.85 238.748 2169.85 234.581 L2169.85 233.632 L2165.61 233.632 M2174.11 231.873 L2174.11 246.665 L2169.85 246.665 L2169.85 242.729 Q2168.39 245.091 2166.21 246.225 Q2164.04 247.336 2160.89 247.336 Q2156.91 247.336 2154.55 245.114 Q2152.21 242.868 2152.21 239.118 Q2152.21 234.743 2155.12 232.521 Q2158.06 230.299 2163.87 230.299 L2169.85 230.299 L2169.85 229.882 Q2169.85 226.943 2167.9 225.345 Q2165.98 223.725 2162.48 223.725 Q2160.26 223.725 2158.16 224.257 Q2156.05 224.79 2154.11 225.855 L2154.11 221.919 Q2156.44 221.017 2158.64 220.577 Q2160.84 220.114 2162.92 220.114 Q2168.55 220.114 2171.33 223.031 Q2174.11 225.947 2174.11 231.873 Z" fill="#000000" fill-rule="evenodd" fill-opacity="1" /><path clip-path="url(#clip570)" d="M 0 0 M2182.79 213.378 L2182.79 220.739 L2191.56 220.739 L2191.56 224.049 L2182.79 224.049 L2182.79 238.123 Q2182.79 241.294 2183.64 242.197 Q2184.52 243.1 2187.18 243.1 L2191.56 243.1 L2191.56 246.665 L2187.18 246.665 Q2182.25 246.665 2180.38 244.836 Q2178.5 242.984 2178.5 238.123 L2178.5 224.049 L2175.38 224.049 L2175.38 220.739 L2178.5 220.739 L2178.5 213.378 L2182.79 213.378 Z" fill="#000000" fill-rule="evenodd" fill-opacity="1" /><path clip-path="url(#clip570)" d="M 0 0 M2207.81 233.632 Q2202.65 233.632 2200.66 234.813 Q2198.67 235.993 2198.67 238.841 Q2198.67 241.109 2200.15 242.452 Q2201.65 243.771 2204.22 243.771 Q2207.76 243.771 2209.89 241.271 Q2212.04 238.748 2212.04 234.581 L2212.04 233.632 L2207.81 233.632 M2216.3 231.873 L2216.3 246.665 L2212.04 246.665 L2212.04 242.729 Q2210.59 245.091 2208.41 246.225 Q2206.23 247.336 2203.09 247.336 Q2199.11 247.336 2196.74 245.114 Q2194.41 242.868 2194.41 239.118 Q2194.41 234.743 2197.32 232.521 Q2200.26 230.299 2206.07 230.299 L2212.04 230.299 L2212.04 229.882 Q2212.04 226.943 2210.1 225.345 Q2208.18 223.725 2204.68 223.725 Q2202.46 223.725 2200.36 224.257 Q2198.25 224.79 2196.3 225.855 L2196.3 221.919 Q2198.64 221.017 2200.84 220.577 Q2203.04 220.114 2205.12 220.114 Q2210.75 220.114 2213.53 223.031 Q2216.3 225.947 2216.3 231.873 Z" fill="#000000" fill-rule="evenodd" fill-opacity="1" /><polyline clip-path="url(#clip570)" style="stroke:#e26f46; stroke-width:4; stroke-opacity:1; fill:none" points="
  1950.24,289.865 2096.01,289.865 
  "/>
<path clip-path="url(#clip570)" d="M 0 0 M2120.31 272.585 L2149.55 272.585 L2149.55 276.52 L2137.28 276.52 L2137.28 307.145 L2132.58 307.145 L2132.58 276.52 L2120.31 276.52 L2120.31 272.585 Z" fill="#000000" fill-rule="evenodd" fill-opacity="1" /><path clip-path="url(#clip570)" d="M 0 0 M2162.07 285.2 Q2161.35 284.784 2160.49 284.598 Q2159.66 284.39 2158.64 284.39 Q2155.03 284.39 2153.09 286.751 Q2151.17 289.089 2151.17 293.487 L2151.17 307.145 L2146.88 307.145 L2146.88 281.219 L2151.17 281.219 L2151.17 285.247 Q2152.51 282.886 2154.66 281.751 Q2156.81 280.594 2159.89 280.594 Q2160.33 280.594 2160.86 280.663 Q2161.4 280.71 2162.05 280.825 L2162.07 285.2 Z" fill="#000000" fill-rule="evenodd" fill-opacity="1" /><path clip-path="url(#clip570)" d="M 0 0 M2166.1 296.913 L2166.1 281.219 L2170.36 281.219 L2170.36 296.751 Q2170.36 300.432 2171.79 302.284 Q2173.23 304.112 2176.1 304.112 Q2179.55 304.112 2181.54 301.913 Q2183.55 299.714 2183.55 295.918 L2183.55 281.219 L2187.81 281.219 L2187.81 307.145 L2183.55 307.145 L2183.55 303.163 Q2182 305.524 2179.94 306.682 Q2177.9 307.816 2175.19 307.816 Q2170.73 307.816 2168.41 305.038 Q2166.1 302.26 2166.1 296.913 M2176.81 280.594 L2176.81 280.594 Z" fill="#000000" fill-rule="evenodd" fill-opacity="1" /><path clip-path="url(#clip570)" d="M 0 0 M2196.49 273.858 L2196.49 281.219 L2205.26 281.219 L2205.26 284.529 L2196.49 284.529 L2196.49 298.603 Q2196.49 301.774 2197.35 302.677 Q2198.23 303.58 2200.89 303.58 L2205.26 303.58 L2205.26 307.145 L2200.89 307.145 Q2195.96 307.145 2194.08 305.316 Q2192.21 303.464 2192.21 298.603 L2192.21 284.529 L2189.08 284.529 L2189.08 281.219 L2192.21 281.219 L2192.21 273.858 L2196.49 273.858 Z" fill="#000000" fill-rule="evenodd" fill-opacity="1" /><path clip-path="url(#clip570)" d="M 0 0 M2231.28 291.497 L2231.28 307.145 L2227.02 307.145 L2227.02 291.635 Q2227.02 287.955 2225.59 286.126 Q2224.15 284.298 2221.28 284.298 Q2217.83 284.298 2215.84 286.497 Q2213.85 288.696 2213.85 292.492 L2213.85 307.145 L2209.57 307.145 L2209.57 271.126 L2213.85 271.126 L2213.85 285.247 Q2215.38 282.909 2217.44 281.751 Q2219.52 280.594 2222.23 280.594 Q2226.7 280.594 2228.99 283.372 Q2231.28 286.126 2231.28 291.497 Z" fill="#000000" fill-rule="evenodd" fill-opacity="1" /></svg>
