<?xml version="1.0" encoding="utf-8"?>
<svg xmlns="http://www.w3.org/2000/svg" xmlns:xlink="http://www.w3.org/1999/xlink" width="600" height="400" viewBox="0 0 2400 1600">
<defs>
  <clipPath id="clip9700">
    <rect x="0" y="0" width="2400" height="1600"/>
  </clipPath>
</defs>
<path clip-path="url(#clip9700)" d="
M0 1600 L2400 1600 L2400 0 L0 0  Z
  " fill="#ffffff" fill-rule="evenodd" fill-opacity="1"/>
<defs>
  <clipPath id="clip9701">
    <rect x="480" y="0" width="1681" height="1600"/>
  </clipPath>
</defs>
<path clip-path="url(#clip9700)" d="
M202.373 1425.62 L2352.76 1425.62 L2352.76 121.675 L202.373 121.675  Z
  " fill="#ffffff" fill-rule="evenodd" fill-opacity="1"/>
<defs>
  <clipPath id="clip9702">
    <rect x="202" y="121" width="2151" height="1305"/>
  </clipPath>
</defs>
<polyline clip-path="url(#clip9702)" style="stroke:#000000; stroke-width:2; stroke-opacity:0.1; fill:none" points="
  214.931,1425.62 214.931,121.675 
  "/>
<polyline clip-path="url(#clip9702)" style="stroke:#000000; stroke-width:2; stroke-opacity:0.1; fill:none" points="
  697.946,1425.62 697.946,121.675 
  "/>
<polyline clip-path="url(#clip9702)" style="stroke:#000000; stroke-width:2; stroke-opacity:0.1; fill:none" points="
  1180.96,1425.62 1180.96,121.675 
  "/>
<polyline clip-path="url(#clip9702)" style="stroke:#000000; stroke-width:2; stroke-opacity:0.1; fill:none" points="
  1663.98,1425.62 1663.98,121.675 
  "/>
<polyline clip-path="url(#clip9702)" style="stroke:#000000; stroke-width:2; stroke-opacity:0.1; fill:none" points="
  2146.99,1425.62 2146.99,121.675 
  "/>
<polyline clip-path="url(#clip9702)" style="stroke:#000000; stroke-width:2; stroke-opacity:0.1; fill:none" points="
  202.373,1388.71 2352.76,1388.71 
  "/>
<polyline clip-path="url(#clip9702)" style="stroke:#000000; stroke-width:2; stroke-opacity:0.1; fill:none" points="
  202.373,1000.93 2352.76,1000.93 
  "/>
<polyline clip-path="url(#clip9702)" style="stroke:#000000; stroke-width:2; stroke-opacity:0.1; fill:none" points="
  202.373,613.155 2352.76,613.155 
  "/>
<polyline clip-path="url(#clip9702)" style="stroke:#000000; stroke-width:2; stroke-opacity:0.1; fill:none" points="
  202.373,225.375 2352.76,225.375 
  "/>
<polyline clip-path="url(#clip9700)" style="stroke:#000000; stroke-width:4; stroke-opacity:1; fill:none" points="
  202.373,1425.62 2352.76,1425.62 
  "/>
<polyline clip-path="url(#clip9700)" style="stroke:#000000; stroke-width:4; stroke-opacity:1; fill:none" points="
  202.373,1425.62 202.373,121.675 
  "/>
<polyline clip-path="url(#clip9700)" style="stroke:#000000; stroke-width:4; stroke-opacity:1; fill:none" points="
  214.931,1425.62 214.931,1409.97 
  "/>
<polyline clip-path="url(#clip9700)" style="stroke:#000000; stroke-width:4; stroke-opacity:1; fill:none" points="
  697.946,1425.62 697.946,1409.97 
  "/>
<polyline clip-path="url(#clip9700)" style="stroke:#000000; stroke-width:4; stroke-opacity:1; fill:none" points="
  1180.96,1425.62 1180.96,1409.97 
  "/>
<polyline clip-path="url(#clip9700)" style="stroke:#000000; stroke-width:4; stroke-opacity:1; fill:none" points="
  1663.98,1425.62 1663.98,1409.97 
  "/>
<polyline clip-path="url(#clip9700)" style="stroke:#000000; stroke-width:4; stroke-opacity:1; fill:none" points="
  2146.99,1425.62 2146.99,1409.97 
  "/>
<polyline clip-path="url(#clip9700)" style="stroke:#000000; stroke-width:4; stroke-opacity:1; fill:none" points="
  202.373,1388.71 228.178,1388.71 
  "/>
<polyline clip-path="url(#clip9700)" style="stroke:#000000; stroke-width:4; stroke-opacity:1; fill:none" points="
  202.373,1000.93 228.178,1000.93 
  "/>
<polyline clip-path="url(#clip9700)" style="stroke:#000000; stroke-width:4; stroke-opacity:1; fill:none" points="
  202.373,613.155 228.178,613.155 
  "/>
<polyline clip-path="url(#clip9700)" style="stroke:#000000; stroke-width:4; stroke-opacity:1; fill:none" points="
  202.373,225.375 228.178,225.375 
  "/>
<g clip-path="url(#clip9700)">
<text style="fill:#000000; fill-opacity:1; font-family:Arial,Helvetica Neue,Helvetica,sans-serif; font-size:48px; text-anchor:middle;" transform="rotate(0, 214.931, 1479.62)" x="214.931" y="1479.62">-1.15</text>
</g>
<g clip-path="url(#clip9700)">
<text style="fill:#000000; fill-opacity:1; font-family:Arial,Helvetica Neue,Helvetica,sans-serif; font-size:48px; text-anchor:middle;" transform="rotate(0, 697.946, 1479.62)" x="697.946" y="1479.62">-1.10</text>
</g>
<g clip-path="url(#clip9700)">
<text style="fill:#000000; fill-opacity:1; font-family:Arial,Helvetica Neue,Helvetica,sans-serif; font-size:48px; text-anchor:middle;" transform="rotate(0, 1180.96, 1479.62)" x="1180.96" y="1479.62">-1.05</text>
</g>
<g clip-path="url(#clip9700)">
<text style="fill:#000000; fill-opacity:1; font-family:Arial,Helvetica Neue,Helvetica,sans-serif; font-size:48px; text-anchor:middle;" transform="rotate(0, 1663.98, 1479.62)" x="1663.98" y="1479.62">-1.00</text>
</g>
<g clip-path="url(#clip9700)">
<text style="fill:#000000; fill-opacity:1; font-family:Arial,Helvetica Neue,Helvetica,sans-serif; font-size:48px; text-anchor:middle;" transform="rotate(0, 2146.99, 1479.62)" x="2146.99" y="1479.62">-0.95</text>
</g>
<g clip-path="url(#clip9700)">
<text style="fill:#000000; fill-opacity:1; font-family:Arial,Helvetica Neue,Helvetica,sans-serif; font-size:48px; text-anchor:end;" transform="rotate(0, 178.373, 1406.21)" x="178.373" y="1406.21">0</text>
</g>
<g clip-path="url(#clip9700)">
<text style="fill:#000000; fill-opacity:1; font-family:Arial,Helvetica Neue,Helvetica,sans-serif; font-size:48px; text-anchor:end;" transform="rotate(0, 178.373, 1018.43)" x="178.373" y="1018.43">5</text>
</g>
<g clip-path="url(#clip9700)">
<text style="fill:#000000; fill-opacity:1; font-family:Arial,Helvetica Neue,Helvetica,sans-serif; font-size:48px; text-anchor:end;" transform="rotate(0, 178.373, 630.655)" x="178.373" y="630.655">10</text>
</g>
<g clip-path="url(#clip9700)">
<text style="fill:#000000; fill-opacity:1; font-family:Arial,Helvetica Neue,Helvetica,sans-serif; font-size:48px; text-anchor:end;" transform="rotate(0, 178.373, 242.875)" x="178.373" y="242.875">15</text>
</g>
<g clip-path="url(#clip9700)">
<text style="fill:#000000; fill-opacity:1; font-family:Arial,Helvetica Neue,Helvetica,sans-serif; font-size:84px; text-anchor:middle;" transform="rotate(0, 1277.56, 73.2)" x="1277.56" y="73.2">Marginalized Distribution for mu_1</text>
</g>
<g clip-path="url(#clip9700)">
<text style="fill:#000000; fill-opacity:1; font-family:Arial,Helvetica Neue,Helvetica,sans-serif; font-size:66px; text-anchor:middle;" transform="rotate(0, 1277.56, 1559.48)" x="1277.56" y="1559.48">mu_1</text>
</g>
<g clip-path="url(#clip9700)">
<text style="fill:#000000; fill-opacity:1; font-family:Arial,Helvetica Neue,Helvetica,sans-serif; font-size:66px; text-anchor:middle;" transform="rotate(-90, 89.2861, 773.647)" x="89.2861" y="773.647">P(mu_1)</text>
</g>
<path clip-path="url(#clip9702)" d="
M263.233 1388.71 L311.534 1388.71 L311.534 1388.71 L359.836 1388.71 L359.836 1388.71 L408.137 1388.71 L408.137 1388.71 L456.439 1388.71 L456.439 1388.71 L504.74 1388.71 
  L504.74 1388.71 L553.042 1388.71 L553.042 1388.71 L601.343 1388.71 L601.343 1361.15 L649.645 1361.15 L649.645 1344.1 L697.946 1344.1 L697.946 1311.27 L746.248 1311.27 
  L746.248 1272.93 L794.549 1272.93 L794.549 1235.92 L842.851 1235.92 L842.851 1178.44 L891.152 1178.44 L891.152 1092.89 L939.454 1092.89 L939.454 983.038 L987.755 983.038 
  L987.755 856.39 L1036.06 856.39 L1036.06 747.034 L1084.36 747.034 L1084.36 585.799 L1132.66 585.799 L1132.66 482.626 L1180.96 482.626 L1180.96 316.796 L1229.26 316.796 
  L1229.26 317.381 L1277.56 317.381 L1277.56 194.408 L1325.87 194.408 L1325.87 198.335 L1374.17 198.335 L1374.17 238.518 L1422.47 238.518 L1422.47 273.606 L1470.77 273.606 
  L1470.77 444.197 L1519.07 444.197 L1519.07 529.242 L1567.37 529.242 L1567.37 671.095 L1615.67 671.095 L1615.67 822.305 L1663.98 822.305 L1663.98 923.64 L1712.28 923.64 
  L1712.28 1082.79 L1760.58 1082.79 L1760.58 1166.16 L1808.88 1166.16 L1808.88 1245.86 L1857.18 1245.86 L1857.18 1290.72 L1905.48 1290.72 L1905.48 1323.55 L1953.79 1323.55 
  L1953.79 1353.13 L2002.09 1353.13 L2002.09 1365.66 L2050.39 1365.66 L2050.39 1374.85 L2098.69 1374.85 L2098.69 1388.71 L2146.99 1388.71 L2146.99 1388.71 L2195.29 1388.71 
  L2195.29 1388.71 L2243.59 1388.71 L2243.59 1388.71 L2291.9 1388.71 L2291.9 1388.71 L2291.9 1388.71 L2291.9 1388.71 L2243.59 1388.71 L2243.59 1388.71 L2195.29 1388.71 
  L2195.29 1388.71 L2146.99 1388.71 L2146.99 1388.71 L2098.69 1388.71 L2098.69 1388.71 L2050.39 1388.71 L2050.39 1388.71 L2002.09 1388.71 L2002.09 1388.71 L1953.79 1388.71 
  L1953.79 1388.71 L1905.48 1388.71 L1905.48 1388.71 L1857.18 1388.71 L1857.18 1388.71 L1808.88 1388.71 L1808.88 1388.71 L1760.58 1388.71 L1760.58 1388.71 L1712.28 1388.71 
  L1712.28 1388.71 L1663.98 1388.71 L1663.98 1388.71 L1615.67 1388.71 L1615.67 1388.71 L1567.37 1388.71 L1567.37 1388.71 L1519.07 1388.71 L1519.07 1388.71 L1470.77 1388.71 
  L1470.77 1388.71 L1422.47 1388.71 L1422.47 1388.71 L1374.17 1388.71 L1374.17 1388.71 L1325.87 1388.71 L1325.87 1388.71 L1277.56 1388.71 L1277.56 1388.71 L1229.26 1388.71 
  L1229.26 1388.71 L1180.96 1388.71 L1180.96 1388.71 L1132.66 1388.71 L1132.66 1388.71 L1084.36 1388.71 L1084.36 1388.71 L1036.06 1388.71 L1036.06 1388.71 L987.755 1388.71 
  L987.755 1388.71 L939.454 1388.71 L939.454 1388.71 L891.152 1388.71 L891.152 1388.71 L842.851 1388.71 L842.851 1388.71 L794.549 1388.71 L794.549 1388.71 L746.248 1388.71 
  L746.248 1388.71 L697.946 1388.71 L697.946 1388.71 L649.645 1388.71 L649.645 1388.71 L601.343 1388.71 L601.343 1388.71 L553.042 1388.71 L553.042 1388.71 L504.74 1388.71 
  L504.74 1388.71 L456.439 1388.71 L456.439 1388.71 L408.137 1388.71 L408.137 1388.71 L359.836 1388.71 L359.836 1388.71 L311.534 1388.71 L311.534 1388.71 L263.233 1388.71 
   Z
  " fill="#ff0000" fill-rule="evenodd" fill-opacity="1"/>
<polyline clip-path="url(#clip9702)" style="stroke:#009af9; stroke-width:0; stroke-opacity:1; fill:none" points="
  263.233,1388.71 311.534,1388.71 359.836,1388.71 408.137,1388.71 456.439,1388.71 504.74,1388.71 
  553.042,1388.71 601.343,1388.71 601.343,1361.15 649.645,1361.15 649.645,1344.1 697.946,1344.1 697.946,1311.27 746.248,1311.27 
  746.248,1272.93 794.549,1272.93 794.549,1235.92 842.851,1235.92 842.851,1178.44 891.152,1178.44 891.152,1092.89 939.454,1092.89 939.454,983.038 987.755,983.038 
  987.755,856.39 1036.06,856.39 1036.06,747.034 1084.36,747.034 1084.36,585.799 1132.66,585.799 1132.66,482.626 1180.96,482.626 1180.96,316.796 1229.26,316.796 
  1229.26,317.381 1277.56,317.381 1277.56,194.408 1325.87,194.408 1325.87,198.335 1374.17,198.335 1374.17,238.518 1422.47,238.518 1422.47,273.606 1470.77,273.606 
  1470.77,444.197 1519.07,444.197 1519.07,529.242 1567.37,529.242 1567.37,671.095 1615.67,671.095 1615.67,822.305 1663.98,822.305 1663.98,923.64 1712.28,923.64 
  1712.28,1082.79 1760.58,1082.79 1760.58,1166.16 1808.88,1166.16 1808.88,1245.86 1857.18,1245.86 1857.18,1290.72 1905.48,1290.72 1905.48,1323.55 1953.79,1323.55 
  1953.79,1353.13 2002.09,1353.13 2002.09,1365.66 2050.39,1365.66 2050.39,1374.85 2098.69,1374.85 2098.69,1388.71 2146.99,1388.71 2195.29,1388.71 
  2243.59,1388.71 2291.9,1388.71 
  "/>
<path clip-path="url(#clip9702)" d="
M263.233 1388.71 L311.534 1388.71 L311.534 1388.71 L359.836 1388.71 L359.836 1388.71 L408.137 1388.71 L408.137 1388.71 L456.439 1388.71 L456.439 1388.71 L504.74 1388.71 
  L504.74 1388.71 L553.042 1388.71 L553.042 1388.71 L601.343 1388.71 L601.343 1388.71 L649.645 1388.71 L649.645 1388.71 L697.946 1388.71 L697.946 1388.71 L746.248 1388.71 
  L746.248 1388.71 L794.549 1388.71 L794.549 1235.92 L842.851 1235.92 L842.851 1178.44 L891.152 1178.44 L891.152 1092.89 L939.454 1092.89 L939.454 983.038 L987.755 983.038 
  L987.755 856.39 L1036.06 856.39 L1036.06 747.034 L1084.36 747.034 L1084.36 585.799 L1132.66 585.799 L1132.66 482.626 L1180.96 482.626 L1180.96 316.796 L1229.26 316.796 
  L1229.26 317.381 L1277.56 317.381 L1277.56 194.408 L1325.87 194.408 L1325.87 198.335 L1374.17 198.335 L1374.17 238.518 L1422.47 238.518 L1422.47 273.606 L1470.77 273.606 
  L1470.77 444.197 L1519.07 444.197 L1519.07 529.242 L1567.37 529.242 L1567.37 671.095 L1615.67 671.095 L1615.67 822.305 L1663.98 822.305 L1663.98 923.64 L1712.28 923.64 
  L1712.28 1082.79 L1760.58 1082.79 L1760.58 1166.16 L1808.88 1166.16 L1808.88 1388.71 L1857.18 1388.71 L1857.18 1388.71 L1905.48 1388.71 L1905.48 1388.71 L1953.79 1388.71 
  L1953.79 1388.71 L2002.09 1388.71 L2002.09 1388.71 L2050.39 1388.71 L2050.39 1388.71 L2098.69 1388.71 L2098.69 1388.71 L2146.99 1388.71 L2146.99 1388.71 L2195.29 1388.71 
  L2195.29 1388.71 L2243.59 1388.71 L2243.59 1388.71 L2291.9 1388.71 L2291.9 1388.71 L2291.9 1388.71 L2291.9 1388.71 L2243.59 1388.71 L2243.59 1388.71 L2195.29 1388.71 
  L2195.29 1388.71 L2146.99 1388.71 L2146.99 1388.71 L2098.69 1388.71 L2098.69 1388.71 L2050.39 1388.71 L2050.39 1388.71 L2002.09 1388.71 L2002.09 1388.71 L1953.79 1388.71 
  L1953.79 1388.71 L1905.48 1388.71 L1905.48 1388.71 L1857.18 1388.71 L1857.18 1388.71 L1808.88 1388.71 L1808.88 1388.71 L1760.58 1388.71 L1760.58 1388.71 L1712.28 1388.71 
  L1712.28 1388.71 L1663.98 1388.71 L1663.98 1388.71 L1615.67 1388.71 L1615.67 1388.71 L1567.37 1388.71 L1567.37 1388.71 L1519.07 1388.71 L1519.07 1388.71 L1470.77 1388.71 
  L1470.77 1388.71 L1422.47 1388.71 L1422.47 1388.71 L1374.17 1388.71 L1374.17 1388.71 L1325.87 1388.71 L1325.87 1388.71 L1277.56 1388.71 L1277.56 1388.71 L1229.26 1388.71 
  L1229.26 1388.71 L1180.96 1388.71 L1180.96 1388.71 L1132.66 1388.71 L1132.66 1388.71 L1084.36 1388.71 L1084.36 1388.71 L1036.06 1388.71 L1036.06 1388.71 L987.755 1388.71 
  L987.755 1388.71 L939.454 1388.71 L939.454 1388.71 L891.152 1388.71 L891.152 1388.71 L842.851 1388.71 L842.851 1388.71 L794.549 1388.71 L794.549 1388.71 L746.248 1388.71 
  L746.248 1388.71 L697.946 1388.71 L697.946 1388.71 L649.645 1388.71 L649.645 1388.71 L601.343 1388.71 L601.343 1388.71 L553.042 1388.71 L553.042 1388.71 L504.74 1388.71 
  L504.74 1388.71 L456.439 1388.71 L456.439 1388.71 L408.137 1388.71 L408.137 1388.71 L359.836 1388.71 L359.836 1388.71 L311.534 1388.71 L311.534 1388.71 L263.233 1388.71 
   Z
  " fill="#ffff00" fill-rule="evenodd" fill-opacity="1"/>
<polyline clip-path="url(#clip9702)" style="stroke:#e26f46; stroke-width:0; stroke-opacity:1; fill:none" points="
  263.233,1388.71 311.534,1388.71 359.836,1388.71 408.137,1388.71 456.439,1388.71 504.74,1388.71 
  553.042,1388.71 601.343,1388.71 649.645,1388.71 697.946,1388.71 746.248,1388.71 
  794.549,1388.71 794.549,1235.92 842.851,1235.92 842.851,1178.44 891.152,1178.44 891.152,1092.89 939.454,1092.89 939.454,983.038 987.755,983.038 
  987.755,856.39 1036.06,856.39 1036.06,747.034 1084.36,747.034 1084.36,585.799 1132.66,585.799 1132.66,482.626 1180.96,482.626 1180.96,316.796 1229.26,316.796 
  1229.26,317.381 1277.56,317.381 1277.56,194.408 1325.87,194.408 1325.87,198.335 1374.17,198.335 1374.17,238.518 1422.47,238.518 1422.47,273.606 1470.77,273.606 
  1470.77,444.197 1519.07,444.197 1519.07,529.242 1567.37,529.242 1567.37,671.095 1615.67,671.095 1615.67,822.305 1663.98,822.305 1663.98,923.64 1712.28,923.64 
  1712.28,1082.79 1760.58,1082.79 1760.58,1166.16 1808.88,1166.16 1808.88,1388.71 1857.18,1388.71 1905.48,1388.71 1953.79,1388.71 
  2002.09,1388.71 2050.39,1388.71 2098.69,1388.71 2146.99,1388.71 2195.29,1388.71 
  2243.59,1388.71 2291.9,1388.71 
  "/>
<path clip-path="url(#clip9702)" d="
M263.233 1388.71 L311.534 1388.71 L311.534 1388.71 L359.836 1388.71 L359.836 1388.71 L408.137 1388.71 L408.137 1388.71 L456.439 1388.71 L456.439 1388.71 L504.74 1388.71 
  L504.74 1388.71 L553.042 1388.71 L553.042 1388.71 L601.343 1388.71 L601.343 1388.71 L649.645 1388.71 L649.645 1388.71 L697.946 1388.71 L697.946 1388.71 L746.248 1388.71 
  L746.248 1388.71 L794.549 1388.71 L794.549 1388.71 L842.851 1388.71 L842.851 1388.71 L891.152 1388.71 L891.152 1388.71 L939.454 1388.71 L939.454 1388.71 L987.755 1388.71 
  L987.755 1388.71 L1036.06 1388.71 L1036.06 1388.71 L1084.36 1388.71 L1084.36 585.799 L1132.66 585.799 L1132.66 482.626 L1180.96 482.626 L1180.96 316.796 L1229.26 316.796 
  L1229.26 317.381 L1277.56 317.381 L1277.56 194.408 L1325.87 194.408 L1325.87 198.335 L1374.17 198.335 L1374.17 238.518 L1422.47 238.518 L1422.47 273.606 L1470.77 273.606 
  L1470.77 444.197 L1519.07 444.197 L1519.07 529.242 L1567.37 529.242 L1567.37 671.095 L1615.67 671.095 L1615.67 1388.71 L1663.98 1388.71 L1663.98 1388.71 L1712.28 1388.71 
  L1712.28 1388.71 L1760.58 1388.71 L1760.58 1388.71 L1808.88 1388.71 L1808.88 1388.71 L1857.18 1388.71 L1857.18 1388.71 L1905.48 1388.71 L1905.48 1388.71 L1953.79 1388.71 
  L1953.79 1388.71 L2002.09 1388.71 L2002.09 1388.71 L2050.39 1388.71 L2050.39 1388.71 L2098.69 1388.71 L2098.69 1388.71 L2146.99 1388.71 L2146.99 1388.71 L2195.29 1388.71 
  L2195.29 1388.71 L2243.59 1388.71 L2243.59 1388.71 L2291.9 1388.71 L2291.9 1388.71 L2291.9 1388.71 L2291.9 1388.71 L2243.59 1388.71 L2243.59 1388.71 L2195.29 1388.71 
  L2195.29 1388.71 L2146.99 1388.71 L2146.99 1388.71 L2098.69 1388.71 L2098.69 1388.71 L2050.39 1388.71 L2050.39 1388.71 L2002.09 1388.71 L2002.09 1388.71 L1953.79 1388.71 
  L1953.79 1388.71 L1905.48 1388.71 L1905.48 1388.71 L1857.18 1388.71 L1857.18 1388.71 L1808.88 1388.71 L1808.88 1388.71 L1760.58 1388.71 L1760.58 1388.71 L1712.28 1388.71 
  L1712.28 1388.71 L1663.98 1388.71 L1663.98 1388.71 L1615.67 1388.71 L1615.67 1388.71 L1567.37 1388.71 L1567.37 1388.71 L1519.07 1388.71 L1519.07 1388.71 L1470.77 1388.71 
  L1470.77 1388.71 L1422.47 1388.71 L1422.47 1388.71 L1374.17 1388.71 L1374.17 1388.71 L1325.87 1388.71 L1325.87 1388.71 L1277.56 1388.71 L1277.56 1388.71 L1229.26 1388.71 
  L1229.26 1388.71 L1180.96 1388.71 L1180.96 1388.71 L1132.66 1388.71 L1132.66 1388.71 L1084.36 1388.71 L1084.36 1388.71 L1036.06 1388.71 L1036.06 1388.71 L987.755 1388.71 
  L987.755 1388.71 L939.454 1388.71 L939.454 1388.71 L891.152 1388.71 L891.152 1388.71 L842.851 1388.71 L842.851 1388.71 L794.549 1388.71 L794.549 1388.71 L746.248 1388.71 
  L746.248 1388.71 L697.946 1388.71 L697.946 1388.71 L649.645 1388.71 L649.645 1388.71 L601.343 1388.71 L601.343 1388.71 L553.042 1388.71 L553.042 1388.71 L504.74 1388.71 
  L504.74 1388.71 L456.439 1388.71 L456.439 1388.71 L408.137 1388.71 L408.137 1388.71 L359.836 1388.71 L359.836 1388.71 L311.534 1388.71 L311.534 1388.71 L263.233 1388.71 
   Z
  " fill="#76ee00" fill-rule="evenodd" fill-opacity="1"/>
<polyline clip-path="url(#clip9702)" style="stroke:#3da44d; stroke-width:0; stroke-opacity:1; fill:none" points="
  263.233,1388.71 311.534,1388.71 359.836,1388.71 408.137,1388.71 456.439,1388.71 504.74,1388.71 
  553.042,1388.71 601.343,1388.71 649.645,1388.71 697.946,1388.71 746.248,1388.71 
  794.549,1388.71 842.851,1388.71 891.152,1388.71 939.454,1388.71 987.755,1388.71 
  1036.06,1388.71 1084.36,1388.71 1084.36,585.799 1132.66,585.799 1132.66,482.626 1180.96,482.626 1180.96,316.796 1229.26,316.796 
  1229.26,317.381 1277.56,317.381 1277.56,194.408 1325.87,194.408 1325.87,198.335 1374.17,198.335 1374.17,238.518 1422.47,238.518 1422.47,273.606 1470.77,273.606 
  1470.77,444.197 1519.07,444.197 1519.07,529.242 1567.37,529.242 1567.37,671.095 1615.67,671.095 1615.67,1388.71 1663.98,1388.71 1712.28,1388.71 
  1760.58,1388.71 1808.88,1388.71 1857.18,1388.71 1905.48,1388.71 1953.79,1388.71 
  2002.09,1388.71 2050.39,1388.71 2098.69,1388.71 2146.99,1388.71 2195.29,1388.71 
  2243.59,1388.71 2291.9,1388.71 
  "/>
<polyline clip-path="url(#clip9702)" style="stroke:#000000; stroke-width:2.8; stroke-opacity:1; fill:none" points="
  263.233,1388.63 311.534,1388.63 311.534,1387.96 359.836,1387.96 359.836,1388.13 408.137,1388.13 408.137,1387.04 456.439,1387.04 456.439,1385.12 504.74,1385.12 
  504.74,1378.86 553.042,1378.86 553.042,1376.27 601.343,1376.27 601.343,1361.15 649.645,1361.15 649.645,1344.1 697.946,1344.1 697.946,1311.27 746.248,1311.27 
  746.248,1272.93 794.549,1272.93 794.549,1235.92 842.851,1235.92 842.851,1178.44 891.152,1178.44 891.152,1092.89 939.454,1092.89 939.454,983.038 987.755,983.038 
  987.755,856.39 1036.06,856.39 1036.06,747.034 1084.36,747.034 1084.36,585.799 1132.66,585.799 1132.66,482.626 1180.96,482.626 1180.96,316.796 1229.26,316.796 
  1229.26,317.381 1277.56,317.381 1277.56,194.408 1325.87,194.408 1325.87,198.335 1374.17,198.335 1374.17,238.518 1422.47,238.518 1422.47,273.606 1470.77,273.606 
  1470.77,444.197 1519.07,444.197 1519.07,529.242 1567.37,529.242 1567.37,671.095 1615.67,671.095 1615.67,822.305 1663.98,822.305 1663.98,923.64 1712.28,923.64 
  1712.28,1082.79 1760.58,1082.79 1760.58,1166.16 1808.88,1166.16 1808.88,1245.86 1857.18,1245.86 1857.18,1290.72 1905.48,1290.72 1905.48,1323.55 1953.79,1323.55 
  1953.79,1353.13 2002.09,1353.13 2002.09,1365.66 2050.39,1365.66 2050.39,1374.85 2098.69,1374.85 2098.69,1380.69 2146.99,1380.69 2146.99,1382.87 2195.29,1382.87 
  2195.29,1388.21 2243.59,1388.21 2243.59,1387.29 2291.9,1387.29 2291.9,1388.63 
  "/>
<path clip-path="url(#clip9702)" d="
M1079.26 1388.71 L1580.5 1388.71 L1580.5 158.579 L1079.26 158.579 L1079.26 1388.71  Z
  " fill="#808080" fill-rule="evenodd" fill-opacity="0.5"/>
<polyline clip-path="url(#clip9702)" style="stroke:#000000; stroke-width:0; stroke-opacity:1; fill:none" points="
  1079.26,1388.71 1580.5,1388.71 1580.5,158.579 1079.26,158.579 1079.26,1388.71 
  "/>
<polyline clip-path="url(#clip9702)" style="stroke:#696969; stroke-width:4; stroke-opacity:1; fill:none" points="
  1329.88,1388.71 1329.88,158.579 
  "/>
<polyline clip-path="url(#clip9702)" style="stroke:#000000; stroke-width:4; stroke-opacity:1; fill:none" stroke-dasharray="16, 10" points="
  1341.74,1388.71 1341.74,158.579 
  "/>
<polyline clip-path="url(#clip9702)" style="stroke:#000000; stroke-width:4; stroke-opacity:1; fill:none" stroke-dasharray="2, 4" points="
  1301.72,1388.71 1301.72,158.579 
  "/>
<path clip-path="url(#clip9700)" d="
M1463.01 689.035 L2280.76 689.035 L2280.76 205.195 L1463.01 205.195  Z
  " fill="#ffffff" fill-rule="evenodd" fill-opacity="1"/>
<polyline clip-path="url(#clip9700)" style="stroke:#000000; stroke-width:4; stroke-opacity:1; fill:none" points="
  1463.01,689.035 2280.76,689.035 2280.76,205.195 1463.01,205.195 1463.01,689.035 
  "/>
<path clip-path="url(#clip9700)" d="
M1487.01 289.867 L1631.01 289.867 L1631.01 241.483 L1487.01 241.483 L1487.01 289.867  Z
  " fill="#ff0000" fill-rule="evenodd" fill-opacity="1"/>
<polyline clip-path="url(#clip9700)" style="stroke:#009af9; stroke-width:0; stroke-opacity:1; fill:none" points="
  1487.01,241.483 1631.01,241.483 
  "/>
<g clip-path="url(#clip9700)">
<text style="fill:#000000; fill-opacity:1; font-family:Arial,Helvetica Neue,Helvetica,sans-serif; font-size:48px; text-anchor:start;" transform="rotate(0, 1655.01, 283.175)" x="1655.01" y="283.175">smallest 99.71% interval(s)</text>
</g>
<path clip-path="url(#clip9700)" d="
M1487.01 350.347 L1631.01 350.347 L1631.01 301.963 L1487.01 301.963 L1487.01 350.347  Z
  " fill="#ffff00" fill-rule="evenodd" fill-opacity="1"/>
<polyline clip-path="url(#clip9700)" style="stroke:#e26f46; stroke-width:0; stroke-opacity:1; fill:none" points="
  1487.01,301.963 1631.01,301.963 
  "/>
<g clip-path="url(#clip9700)">
<text style="fill:#000000; fill-opacity:1; font-family:Arial,Helvetica Neue,Helvetica,sans-serif; font-size:48px; text-anchor:start;" transform="rotate(0, 1655.01, 343.655)" x="1655.01" y="343.655">smallest 95.56% interval(s)</text>
</g>
<path clip-path="url(#clip9700)" d="
M1487.01 410.827 L1631.01 410.827 L1631.01 362.443 L1487.01 362.443 L1487.01 410.827  Z
  " fill="#76ee00" fill-rule="evenodd" fill-opacity="1"/>
<polyline clip-path="url(#clip9700)" style="stroke:#3da44d; stroke-width:0; stroke-opacity:1; fill:none" points="
  1487.01,362.443 1631.01,362.443 
  "/>
<g clip-path="url(#clip9700)">
<text style="fill:#000000; fill-opacity:1; font-family:Arial,Helvetica Neue,Helvetica,sans-serif; font-size:48px; text-anchor:start;" transform="rotate(0, 1655.01, 404.135)" x="1655.01" y="404.135">smallest 71.07% interval(s)</text>
</g>
<path clip-path="url(#clip9700)" d="
M1487.01 471.307 L1631.01 471.307 L1631.01 422.923 L1487.01 422.923 L1487.01 471.307  Z
  " fill="#808080" fill-rule="evenodd" fill-opacity="0.5"/>
<polyline clip-path="url(#clip9700)" style="stroke:#000000; stroke-width:0; stroke-opacity:1; fill:none" points="
  1487.01,471.307 1631.01,471.307 1631.01,422.923 1487.01,422.923 1487.01,471.307 
  "/>
<g clip-path="url(#clip9700)">
<text style="fill:#000000; fill-opacity:1; font-family:Arial,Helvetica Neue,Helvetica,sans-serif; font-size:48px; text-anchor:start;" transform="rotate(0, 1655.01, 464.615)" x="1655.01" y="464.615">std. dev.</text>
</g>
<polyline clip-path="url(#clip9700)" style="stroke:#696969; stroke-width:4; stroke-opacity:1; fill:none" points="
  1487.01,507.595 1631.01,507.595 
  "/>
<g clip-path="url(#clip9700)">
<text style="fill:#000000; fill-opacity:1; font-family:Arial,Helvetica Neue,Helvetica,sans-serif; font-size:48px; text-anchor:start;" transform="rotate(0, 1655.01, 525.095)" x="1655.01" y="525.095">mean</text>
</g>
<polyline clip-path="url(#clip9700)" style="stroke:#000000; stroke-width:4; stroke-opacity:1; fill:none" stroke-dasharray="16, 10" points="
  1487.01,568.075 1631.01,568.075 
  "/>
<g clip-path="url(#clip9700)">
<text style="fill:#000000; fill-opacity:1; font-family:Arial,Helvetica Neue,Helvetica,sans-serif; font-size:48px; text-anchor:start;" transform="rotate(0, 1655.01, 585.575)" x="1655.01" y="585.575">global mode</text>
</g>
<polyline clip-path="url(#clip9700)" style="stroke:#000000; stroke-width:4; stroke-opacity:1; fill:none" stroke-dasharray="2, 4" points="
  1487.01,628.555 1631.01,628.555 
  "/>
<g clip-path="url(#clip9700)">
<text style="fill:#000000; fill-opacity:1; font-family:Arial,Helvetica Neue,Helvetica,sans-serif; font-size:48px; text-anchor:start;" transform="rotate(0, 1655.01, 646.055)" x="1655.01" y="646.055">local mode</text>
</g>
</svg>
