<?xml version="1.0" encoding="utf-8"?>
<svg xmlns="http://www.w3.org/2000/svg" xmlns:xlink="http://www.w3.org/1999/xlink" width="600" height="400" viewBox="0 0 2400 1600">
<defs>
  <clipPath id="clip9100">
    <rect x="0" y="0" width="2400" height="1600"/>
  </clipPath>
</defs>
<path clip-path="url(#clip9100)" d="
M0 1600 L2400 1600 L2400 0 L0 0  Z
  " fill="#ffffff" fill-rule="evenodd" fill-opacity="1"/>
<defs>
  <clipPath id="clip9101">
    <rect x="480" y="0" width="1681" height="1600"/>
  </clipPath>
</defs>
<path clip-path="url(#clip9100)" d="
M167.279 1487.47 L2352.76 1487.47 L2352.76 121.675 L167.279 121.675  Z
  " fill="#ffffff" fill-rule="evenodd" fill-opacity="1"/>
<defs>
  <clipPath id="clip9102">
    <rect x="167" y="121" width="2186" height="1367"/>
  </clipPath>
</defs>
<polyline clip-path="url(#clip9102)" style="stroke:#000000; stroke-width:2; stroke-opacity:0.1; fill:none" points="
  229.132,1487.47 229.132,121.675 
  "/>
<polyline clip-path="url(#clip9102)" style="stroke:#000000; stroke-width:2; stroke-opacity:0.1; fill:none" points="
  572.761,1487.47 572.761,121.675 
  "/>
<polyline clip-path="url(#clip9102)" style="stroke:#000000; stroke-width:2; stroke-opacity:0.1; fill:none" points="
  916.389,1487.47 916.389,121.675 
  "/>
<polyline clip-path="url(#clip9102)" style="stroke:#000000; stroke-width:2; stroke-opacity:0.1; fill:none" points="
  1260.02,1487.47 1260.02,121.675 
  "/>
<polyline clip-path="url(#clip9102)" style="stroke:#000000; stroke-width:2; stroke-opacity:0.1; fill:none" points="
  1603.65,1487.47 1603.65,121.675 
  "/>
<polyline clip-path="url(#clip9102)" style="stroke:#000000; stroke-width:2; stroke-opacity:0.1; fill:none" points="
  1947.27,1487.47 1947.27,121.675 
  "/>
<polyline clip-path="url(#clip9102)" style="stroke:#000000; stroke-width:2; stroke-opacity:0.1; fill:none" points="
  2290.9,1487.47 2290.9,121.675 
  "/>
<polyline clip-path="url(#clip9102)" style="stroke:#000000; stroke-width:2; stroke-opacity:0.1; fill:none" points="
  167.279,1448.82 2352.76,1448.82 
  "/>
<polyline clip-path="url(#clip9102)" style="stroke:#000000; stroke-width:2; stroke-opacity:0.1; fill:none" points="
  167.279,1138.34 2352.76,1138.34 
  "/>
<polyline clip-path="url(#clip9102)" style="stroke:#000000; stroke-width:2; stroke-opacity:0.1; fill:none" points="
  167.279,827.861 2352.76,827.861 
  "/>
<polyline clip-path="url(#clip9102)" style="stroke:#000000; stroke-width:2; stroke-opacity:0.1; fill:none" points="
  167.279,517.381 2352.76,517.381 
  "/>
<polyline clip-path="url(#clip9102)" style="stroke:#000000; stroke-width:2; stroke-opacity:0.1; fill:none" points="
  167.279,206.902 2352.76,206.902 
  "/>
<polyline clip-path="url(#clip9100)" style="stroke:#000000; stroke-width:4; stroke-opacity:1; fill:none" points="
  167.279,1487.47 2352.76,1487.47 
  "/>
<polyline clip-path="url(#clip9100)" style="stroke:#000000; stroke-width:4; stroke-opacity:1; fill:none" points="
  167.279,1487.47 167.279,121.675 
  "/>
<polyline clip-path="url(#clip9100)" style="stroke:#000000; stroke-width:4; stroke-opacity:1; fill:none" points="
  229.132,1487.47 229.132,1471.09 
  "/>
<polyline clip-path="url(#clip9100)" style="stroke:#000000; stroke-width:4; stroke-opacity:1; fill:none" points="
  572.761,1487.47 572.761,1471.09 
  "/>
<polyline clip-path="url(#clip9100)" style="stroke:#000000; stroke-width:4; stroke-opacity:1; fill:none" points="
  916.389,1487.47 916.389,1471.09 
  "/>
<polyline clip-path="url(#clip9100)" style="stroke:#000000; stroke-width:4; stroke-opacity:1; fill:none" points="
  1260.02,1487.47 1260.02,1471.09 
  "/>
<polyline clip-path="url(#clip9100)" style="stroke:#000000; stroke-width:4; stroke-opacity:1; fill:none" points="
  1603.65,1487.47 1603.65,1471.09 
  "/>
<polyline clip-path="url(#clip9100)" style="stroke:#000000; stroke-width:4; stroke-opacity:1; fill:none" points="
  1947.27,1487.47 1947.27,1471.09 
  "/>
<polyline clip-path="url(#clip9100)" style="stroke:#000000; stroke-width:4; stroke-opacity:1; fill:none" points="
  2290.9,1487.47 2290.9,1471.09 
  "/>
<polyline clip-path="url(#clip9100)" style="stroke:#000000; stroke-width:4; stroke-opacity:1; fill:none" points="
  167.279,1448.82 193.505,1448.82 
  "/>
<polyline clip-path="url(#clip9100)" style="stroke:#000000; stroke-width:4; stroke-opacity:1; fill:none" points="
  167.279,1138.34 193.505,1138.34 
  "/>
<polyline clip-path="url(#clip9100)" style="stroke:#000000; stroke-width:4; stroke-opacity:1; fill:none" points="
  167.279,827.861 193.505,827.861 
  "/>
<polyline clip-path="url(#clip9100)" style="stroke:#000000; stroke-width:4; stroke-opacity:1; fill:none" points="
  167.279,517.381 193.505,517.381 
  "/>
<polyline clip-path="url(#clip9100)" style="stroke:#000000; stroke-width:4; stroke-opacity:1; fill:none" points="
  167.279,206.902 193.505,206.902 
  "/>
<g clip-path="url(#clip9100)">
<text style="fill:#000000; fill-opacity:1; font-family:Arial,Helvetica Neue,Helvetica,sans-serif; font-size:48px; text-anchor:middle;" transform="rotate(0, 229.132, 1541.47)" x="229.132" y="1541.47">-2</text>
</g>
<g clip-path="url(#clip9100)">
<text style="fill:#000000; fill-opacity:1; font-family:Arial,Helvetica Neue,Helvetica,sans-serif; font-size:48px; text-anchor:middle;" transform="rotate(0, 572.761, 1541.47)" x="572.761" y="1541.47">-1</text>
</g>
<g clip-path="url(#clip9100)">
<text style="fill:#000000; fill-opacity:1; font-family:Arial,Helvetica Neue,Helvetica,sans-serif; font-size:48px; text-anchor:middle;" transform="rotate(0, 916.389, 1541.47)" x="916.389" y="1541.47">0</text>
</g>
<g clip-path="url(#clip9100)">
<text style="fill:#000000; fill-opacity:1; font-family:Arial,Helvetica Neue,Helvetica,sans-serif; font-size:48px; text-anchor:middle;" transform="rotate(0, 1260.02, 1541.47)" x="1260.02" y="1541.47">1</text>
</g>
<g clip-path="url(#clip9100)">
<text style="fill:#000000; fill-opacity:1; font-family:Arial,Helvetica Neue,Helvetica,sans-serif; font-size:48px; text-anchor:middle;" transform="rotate(0, 1603.65, 1541.47)" x="1603.65" y="1541.47">2</text>
</g>
<g clip-path="url(#clip9100)">
<text style="fill:#000000; fill-opacity:1; font-family:Arial,Helvetica Neue,Helvetica,sans-serif; font-size:48px; text-anchor:middle;" transform="rotate(0, 1947.27, 1541.47)" x="1947.27" y="1541.47">3</text>
</g>
<g clip-path="url(#clip9100)">
<text style="fill:#000000; fill-opacity:1; font-family:Arial,Helvetica Neue,Helvetica,sans-serif; font-size:48px; text-anchor:middle;" transform="rotate(0, 2290.9, 1541.47)" x="2290.9" y="1541.47">4</text>
</g>
<g clip-path="url(#clip9100)">
<text style="fill:#000000; fill-opacity:1; font-family:Arial,Helvetica Neue,Helvetica,sans-serif; font-size:48px; text-anchor:end;" transform="rotate(0, 143.279, 1466.32)" x="143.279" y="1466.32">0</text>
</g>
<g clip-path="url(#clip9100)">
<text style="fill:#000000; fill-opacity:1; font-family:Arial,Helvetica Neue,Helvetica,sans-serif; font-size:48px; text-anchor:end;" transform="rotate(0, 143.279, 1155.84)" x="143.279" y="1155.84">200</text>
</g>
<g clip-path="url(#clip9100)">
<text style="fill:#000000; fill-opacity:1; font-family:Arial,Helvetica Neue,Helvetica,sans-serif; font-size:48px; text-anchor:end;" transform="rotate(0, 143.279, 845.361)" x="143.279" y="845.361">400</text>
</g>
<g clip-path="url(#clip9100)">
<text style="fill:#000000; fill-opacity:1; font-family:Arial,Helvetica Neue,Helvetica,sans-serif; font-size:48px; text-anchor:end;" transform="rotate(0, 143.279, 534.881)" x="143.279" y="534.881">600</text>
</g>
<g clip-path="url(#clip9100)">
<text style="fill:#000000; fill-opacity:1; font-family:Arial,Helvetica Neue,Helvetica,sans-serif; font-size:48px; text-anchor:end;" transform="rotate(0, 143.279, 224.402)" x="143.279" y="224.402">800</text>
</g>
<g clip-path="url(#clip9100)">
<text style="fill:#000000; fill-opacity:1; font-family:Arial,Helvetica Neue,Helvetica,sans-serif; font-size:84px; text-anchor:middle;" transform="rotate(0, 1260.02, 73.2)" x="1260.02" y="73.2">Data</text>
</g>
<polyline clip-path="url(#clip9102)" style="stroke:#009af9; stroke-width:4; stroke-opacity:1; fill:none" points="
  229.132,1448.82 229.132,1386.72 263.495,1386.72 263.495,1215.96 297.858,1215.96 297.858,1247.01 332.221,1247.01 332.221,1231.48 366.584,1231.48 366.584,983.101 
  400.946,983.101 400.946,1184.91 435.309,1184.91 435.309,905.481 469.672,905.481 469.672,967.577 504.035,967.577 504.035,719.193 538.398,719.193 538.398,765.765 
  572.761,765.765 572.761,967.577 607.124,967.577 607.124,672.621 641.486,672.621 641.486,936.529 675.849,936.529 675.849,998.625 710.212,998.625 710.212,983.101 
  744.575,983.101 744.575,1153.86 778.938,1153.86 778.938,1262.53 813.301,1262.53 813.301,1278.06 847.663,1278.06 847.663,1355.68 882.026,1355.68 
  916.389,1355.68 916.389,1433.3 950.752,1433.3 950.752,1386.72 985.115,1386.72 985.115,1433.3 1019.48,1433.3 1053.84,1433.3 1053.84,1386.72 
  1088.2,1386.72 1088.2,1402.25 1122.57,1402.25 1122.57,1433.3 1156.93,1433.3 1156.93,1386.72 1191.29,1386.72 1191.29,1371.2 1225.65,1371.2 1225.65,1324.63 
  1260.02,1324.63 1260.02,1200.44 1294.38,1200.44 1294.38,1169.39 1328.74,1169.39 1328.74,1045.2 1363.11,1045.2 1363.11,827.861 1397.47,827.861 1397.47,719.193 
  1431.83,719.193 1431.83,470.809 1466.19,470.809 1466.19,626.049 1500.56,626.049 1500.56,393.19 1534.92,393.19 1534.92,315.57 1569.28,315.57 1569.28,424.237 
  1603.65,424.237 1603.65,191.378 1638.01,191.378 1638.01,206.902 1672.37,206.902 1672.37,160.33 1706.73,160.33 1706.73,377.666 1741.1,377.666 1741.1,874.433 
  1775.46,874.433 1775.46,936.529 1809.82,936.529 1809.82,967.577 1844.19,967.577 1844.19,1029.67 1878.55,1029.67 1878.55,1169.39 1912.91,1169.39 1912.91,1138.34 
  1947.27,1138.34 1947.27,1309.1 1981.64,1309.1 2016,1309.1 2016,1402.25 2050.36,1402.25 2084.73,1402.25 2084.73,1417.77 
  2119.09,1417.77 2153.45,1417.77 2153.45,1448.82 2187.81,1448.82 2222.18,1448.82 2256.54,1448.82 
  2290.9,1448.82 
  "/>
<path clip-path="url(#clip9100)" d="
M1939.1 326.155 L2280.76 326.155 L2280.76 205.195 L1939.1 205.195  Z
  " fill="#ffffff" fill-rule="evenodd" fill-opacity="1"/>
<polyline clip-path="url(#clip9100)" style="stroke:#000000; stroke-width:4; stroke-opacity:1; fill:none" points="
  1939.1,326.155 2280.76,326.155 2280.76,205.195 1939.1,205.195 1939.1,326.155 
  "/>
<polyline clip-path="url(#clip9100)" style="stroke:#009af9; stroke-width:4; stroke-opacity:1; fill:none" points="
  1963.1,265.675 2107.1,265.675 
  "/>
<g clip-path="url(#clip9100)">
<text style="fill:#000000; fill-opacity:1; font-family:Arial,Helvetica Neue,Helvetica,sans-serif; font-size:48px; text-anchor:start;" transform="rotate(0, 2131.1, 283.175)" x="2131.1" y="283.175">Data</text>
</g>
</svg>
