<?xml version="1.0" encoding="utf-8"?>
<svg xmlns="http://www.w3.org/2000/svg" xmlns:xlink="http://www.w3.org/1999/xlink" width="600" height="400" viewBox="0 0 2400 1600">
<defs>
  <clipPath id="clip0600">
    <rect x="0" y="0" width="2400" height="1600"/>
  </clipPath>
</defs>
<path clip-path="url(#clip0600)" d="
M0 1600 L2400 1600 L2400 0 L0 0  Z
  " fill="#ffffff" fill-rule="evenodd" fill-opacity="1"/>
<defs>
  <clipPath id="clip0601">
    <rect x="480" y="0" width="1681" height="1600"/>
  </clipPath>
</defs>
<path clip-path="url(#clip0600)" d="
M167.279 1487.47 L2352.76 1487.47 L2352.76 121.675 L167.279 121.675  Z
  " fill="#ffffff" fill-rule="evenodd" fill-opacity="1"/>
<defs>
  <clipPath id="clip0602">
    <rect x="167" y="121" width="2186" height="1367"/>
  </clipPath>
</defs>
<polyline clip-path="url(#clip0602)" style="stroke:#000000; stroke-width:2; stroke-opacity:0.1; fill:none" points="
  229.132,1487.47 229.132,121.675 
  "/>
<polyline clip-path="url(#clip0602)" style="stroke:#000000; stroke-width:2; stroke-opacity:0.1; fill:none" points="
  744.575,1487.47 744.575,121.675 
  "/>
<polyline clip-path="url(#clip0602)" style="stroke:#000000; stroke-width:2; stroke-opacity:0.1; fill:none" points="
  1260.02,1487.47 1260.02,121.675 
  "/>
<polyline clip-path="url(#clip0602)" style="stroke:#000000; stroke-width:2; stroke-opacity:0.1; fill:none" points="
  1775.46,1487.47 1775.46,121.675 
  "/>
<polyline clip-path="url(#clip0602)" style="stroke:#000000; stroke-width:2; stroke-opacity:0.1; fill:none" points="
  2290.9,1487.47 2290.9,121.675 
  "/>
<polyline clip-path="url(#clip0602)" style="stroke:#000000; stroke-width:2; stroke-opacity:0.1; fill:none" points="
  167.279,1448.82 2352.76,1448.82 
  "/>
<polyline clip-path="url(#clip0602)" style="stroke:#000000; stroke-width:2; stroke-opacity:0.1; fill:none" points="
  167.279,1138.34 2352.76,1138.34 
  "/>
<polyline clip-path="url(#clip0602)" style="stroke:#000000; stroke-width:2; stroke-opacity:0.1; fill:none" points="
  167.279,827.861 2352.76,827.861 
  "/>
<polyline clip-path="url(#clip0602)" style="stroke:#000000; stroke-width:2; stroke-opacity:0.1; fill:none" points="
  167.279,517.381 2352.76,517.381 
  "/>
<polyline clip-path="url(#clip0602)" style="stroke:#000000; stroke-width:2; stroke-opacity:0.1; fill:none" points="
  167.279,206.902 2352.76,206.902 
  "/>
<polyline clip-path="url(#clip0600)" style="stroke:#000000; stroke-width:4; stroke-opacity:1; fill:none" points="
  167.279,1487.47 2352.76,1487.47 
  "/>
<polyline clip-path="url(#clip0600)" style="stroke:#000000; stroke-width:4; stroke-opacity:1; fill:none" points="
  167.279,1487.47 167.279,121.675 
  "/>
<polyline clip-path="url(#clip0600)" style="stroke:#000000; stroke-width:4; stroke-opacity:1; fill:none" points="
  229.132,1487.47 229.132,1471.09 
  "/>
<polyline clip-path="url(#clip0600)" style="stroke:#000000; stroke-width:4; stroke-opacity:1; fill:none" points="
  744.575,1487.47 744.575,1471.09 
  "/>
<polyline clip-path="url(#clip0600)" style="stroke:#000000; stroke-width:4; stroke-opacity:1; fill:none" points="
  1260.02,1487.47 1260.02,1471.09 
  "/>
<polyline clip-path="url(#clip0600)" style="stroke:#000000; stroke-width:4; stroke-opacity:1; fill:none" points="
  1775.46,1487.47 1775.46,1471.09 
  "/>
<polyline clip-path="url(#clip0600)" style="stroke:#000000; stroke-width:4; stroke-opacity:1; fill:none" points="
  2290.9,1487.47 2290.9,1471.09 
  "/>
<polyline clip-path="url(#clip0600)" style="stroke:#000000; stroke-width:4; stroke-opacity:1; fill:none" points="
  167.279,1448.82 193.505,1448.82 
  "/>
<polyline clip-path="url(#clip0600)" style="stroke:#000000; stroke-width:4; stroke-opacity:1; fill:none" points="
  167.279,1138.34 193.505,1138.34 
  "/>
<polyline clip-path="url(#clip0600)" style="stroke:#000000; stroke-width:4; stroke-opacity:1; fill:none" points="
  167.279,827.861 193.505,827.861 
  "/>
<polyline clip-path="url(#clip0600)" style="stroke:#000000; stroke-width:4; stroke-opacity:1; fill:none" points="
  167.279,517.381 193.505,517.381 
  "/>
<polyline clip-path="url(#clip0600)" style="stroke:#000000; stroke-width:4; stroke-opacity:1; fill:none" points="
  167.279,206.902 193.505,206.902 
  "/>
<g clip-path="url(#clip0600)">
<text style="fill:#000000; fill-opacity:1; font-family:Arial,Helvetica Neue,Helvetica,sans-serif; font-size:48px; text-anchor:middle;" transform="rotate(0, 229.132, 1541.47)" x="229.132" y="1541.47">-4</text>
</g>
<g clip-path="url(#clip0600)">
<text style="fill:#000000; fill-opacity:1; font-family:Arial,Helvetica Neue,Helvetica,sans-serif; font-size:48px; text-anchor:middle;" transform="rotate(0, 744.575, 1541.47)" x="744.575" y="1541.47">-2</text>
</g>
<g clip-path="url(#clip0600)">
<text style="fill:#000000; fill-opacity:1; font-family:Arial,Helvetica Neue,Helvetica,sans-serif; font-size:48px; text-anchor:middle;" transform="rotate(0, 1260.02, 1541.47)" x="1260.02" y="1541.47">0</text>
</g>
<g clip-path="url(#clip0600)">
<text style="fill:#000000; fill-opacity:1; font-family:Arial,Helvetica Neue,Helvetica,sans-serif; font-size:48px; text-anchor:middle;" transform="rotate(0, 1775.46, 1541.47)" x="1775.46" y="1541.47">2</text>
</g>
<g clip-path="url(#clip0600)">
<text style="fill:#000000; fill-opacity:1; font-family:Arial,Helvetica Neue,Helvetica,sans-serif; font-size:48px; text-anchor:middle;" transform="rotate(0, 2290.9, 1541.47)" x="2290.9" y="1541.47">4</text>
</g>
<g clip-path="url(#clip0600)">
<text style="fill:#000000; fill-opacity:1; font-family:Arial,Helvetica Neue,Helvetica,sans-serif; font-size:48px; text-anchor:end;" transform="rotate(0, 143.279, 1466.32)" x="143.279" y="1466.32">0</text>
</g>
<g clip-path="url(#clip0600)">
<text style="fill:#000000; fill-opacity:1; font-family:Arial,Helvetica Neue,Helvetica,sans-serif; font-size:48px; text-anchor:end;" transform="rotate(0, 143.279, 1155.84)" x="143.279" y="1155.84">200</text>
</g>
<g clip-path="url(#clip0600)">
<text style="fill:#000000; fill-opacity:1; font-family:Arial,Helvetica Neue,Helvetica,sans-serif; font-size:48px; text-anchor:end;" transform="rotate(0, 143.279, 845.361)" x="143.279" y="845.361">400</text>
</g>
<g clip-path="url(#clip0600)">
<text style="fill:#000000; fill-opacity:1; font-family:Arial,Helvetica Neue,Helvetica,sans-serif; font-size:48px; text-anchor:end;" transform="rotate(0, 143.279, 534.881)" x="143.279" y="534.881">600</text>
</g>
<g clip-path="url(#clip0600)">
<text style="fill:#000000; fill-opacity:1; font-family:Arial,Helvetica Neue,Helvetica,sans-serif; font-size:48px; text-anchor:end;" transform="rotate(0, 143.279, 224.402)" x="143.279" y="224.402">800</text>
</g>
<g clip-path="url(#clip0600)">
<text style="fill:#000000; fill-opacity:1; font-family:Arial,Helvetica Neue,Helvetica,sans-serif; font-size:84px; text-anchor:middle;" transform="rotate(0, 1260.02, 73.2)" x="1260.02" y="73.2">Data, True Model and Best Fit</text>
</g>
<polyline clip-path="url(#clip0602)" style="stroke:#009af9; stroke-width:4; stroke-opacity:1; fill:none" points="
  744.575,1448.82 744.575,1386.72 770.347,1386.72 770.347,1215.96 796.119,1215.96 796.119,1247.01 821.891,1247.01 821.891,1231.48 847.663,1231.48 847.663,983.101 
  873.436,983.101 873.436,1184.91 899.208,1184.91 899.208,905.481 924.98,905.481 924.98,967.577 950.752,967.577 950.752,719.193 976.524,719.193 976.524,765.765 
  1002.3,765.765 1002.3,967.577 1028.07,967.577 1028.07,672.621 1053.84,672.621 1053.84,936.529 1079.61,936.529 1079.61,998.625 1105.38,998.625 1105.38,983.101 
  1131.16,983.101 1131.16,1153.86 1156.93,1153.86 1156.93,1262.53 1182.7,1262.53 1182.7,1278.06 1208.47,1278.06 1208.47,1355.68 1234.25,1355.68 
  1260.02,1355.68 1260.02,1433.3 1285.79,1433.3 1285.79,1386.72 1311.56,1386.72 1311.56,1433.3 1337.33,1433.3 1363.11,1433.3 1363.11,1386.72 
  1388.88,1386.72 1388.88,1402.25 1414.65,1402.25 1414.65,1433.3 1440.42,1433.3 1440.42,1386.72 1466.19,1386.72 1466.19,1371.2 1491.97,1371.2 1491.97,1324.63 
  1517.74,1324.63 1517.74,1200.44 1543.51,1200.44 1543.51,1169.39 1569.28,1169.39 1569.28,1045.2 1595.06,1045.2 1595.06,827.861 1620.83,827.861 1620.83,719.193 
  1646.6,719.193 1646.6,470.809 1672.37,470.809 1672.37,626.049 1698.14,626.049 1698.14,393.19 1723.92,393.19 1723.92,315.57 1749.69,315.57 1749.69,424.237 
  1775.46,424.237 1775.46,191.378 1801.23,191.378 1801.23,206.902 1827,206.902 1827,160.33 1852.78,160.33 1852.78,377.666 1878.55,377.666 1878.55,874.433 
  1904.32,874.433 1904.32,936.529 1930.09,936.529 1930.09,967.577 1955.87,967.577 1955.87,1029.67 1981.64,1029.67 1981.64,1169.39 2007.41,1169.39 2007.41,1138.34 
  2033.18,1138.34 2033.18,1309.1 2058.95,1309.1 2084.73,1309.1 2084.73,1402.25 2110.5,1402.25 2136.27,1402.25 2136.27,1417.77 
  2162.04,1417.77 2187.81,1417.77 2187.81,1448.82 2213.59,1448.82 2239.36,1448.82 2265.13,1448.82 
  2290.9,1448.82 
  "/>
<polyline clip-path="url(#clip0602)" style="stroke:#e26f46; stroke-width:4; stroke-opacity:1; fill:none" points="
  229.132,1448.82 231.709,1448.82 234.287,1448.82 236.864,1448.82 239.441,1448.82 242.018,1448.82 244.596,1448.82 247.173,1448.82 249.75,1448.82 252.327,1448.82 
  254.904,1448.82 257.482,1448.82 260.059,1448.82 262.636,1448.82 265.213,1448.82 267.79,1448.82 270.368,1448.82 272.945,1448.82 275.522,1448.82 278.099,1448.82 
  280.677,1448.82 283.254,1448.82 285.831,1448.82 288.408,1448.82 290.985,1448.82 293.563,1448.82 296.14,1448.82 298.717,1448.82 301.294,1448.82 303.871,1448.82 
  306.449,1448.82 309.026,1448.82 311.603,1448.82 314.18,1448.82 316.758,1448.82 319.335,1448.82 321.912,1448.82 324.489,1448.82 327.066,1448.82 329.644,1448.82 
  332.221,1448.82 334.798,1448.82 337.375,1448.82 339.952,1448.82 342.53,1448.82 345.107,1448.82 347.684,1448.82 350.261,1448.82 352.838,1448.82 355.416,1448.82 
  357.993,1448.82 360.57,1448.82 363.147,1448.82 365.725,1448.82 368.302,1448.82 370.879,1448.82 373.456,1448.82 376.033,1448.82 378.611,1448.81 381.188,1448.81 
  383.765,1448.81 386.342,1448.81 388.919,1448.81 391.497,1448.81 394.074,1448.81 396.651,1448.81 399.228,1448.81 401.806,1448.81 404.383,1448.81 406.96,1448.81 
  409.537,1448.8 412.114,1448.8 414.692,1448.8 417.269,1448.8 419.846,1448.8 422.423,1448.8 425,1448.79 427.578,1448.79 430.155,1448.79 432.732,1448.78 
  435.309,1448.78 437.887,1448.78 440.464,1448.77 443.041,1448.77 445.618,1448.77 448.195,1448.76 450.773,1448.75 453.35,1448.75 455.927,1448.74 458.504,1448.74 
  461.081,1448.73 463.659,1448.72 466.236,1448.71 468.813,1448.7 471.39,1448.69 473.968,1448.68 476.545,1448.67 479.122,1448.66 481.699,1448.64 484.276,1448.63 
  486.854,1448.61 489.431,1448.6 492.008,1448.58 494.585,1448.56 497.162,1448.53 499.74,1448.51 502.317,1448.49 504.894,1448.46 507.471,1448.43 510.048,1448.4 
  512.626,1448.37 515.203,1448.33 517.78,1448.29 520.357,1448.25 522.935,1448.21 525.512,1448.16 528.089,1448.11 530.666,1448.06 533.243,1448 535.821,1447.94 
  538.398,1447.87 540.975,1447.8 543.552,1447.72 546.129,1447.64 548.707,1447.56 551.284,1447.47 553.861,1447.37 556.438,1447.26 559.016,1447.15 561.593,1447.03 
  564.17,1446.91 566.747,1446.77 569.324,1446.63 571.902,1446.48 574.479,1446.32 577.056,1446.15 579.633,1445.96 582.21,1445.77 584.788,1445.57 587.365,1445.35 
  589.942,1445.12 592.519,1444.88 595.097,1444.62 597.674,1444.34 600.251,1444.05 602.828,1443.75 605.405,1443.43 607.983,1443.08 610.56,1442.72 613.137,1442.34 
  615.714,1441.94 618.291,1441.52 620.869,1441.07 623.446,1440.6 626.023,1440.1 628.6,1439.58 631.178,1439.03 633.755,1438.45 636.332,1437.84 638.909,1437.2 
  641.486,1436.53 644.064,1435.83 646.641,1435.09 649.218,1434.31 651.795,1433.5 654.372,1432.64 656.95,1431.75 659.527,1430.81 662.104,1429.83 664.681,1428.81 
  667.258,1427.73 669.836,1426.61 672.413,1425.44 674.99,1424.22 677.567,1422.94 680.145,1421.61 682.722,1420.22 685.299,1418.77 687.876,1417.26 690.453,1415.69 
  693.031,1414.05 695.608,1412.35 698.185,1410.58 700.762,1408.74 703.339,1406.83 705.917,1404.85 708.494,1402.78 711.071,1400.65 713.648,1398.43 716.226,1396.13 
  718.803,1393.75 721.38,1391.28 723.957,1388.73 726.534,1386.09 729.112,1383.36 731.689,1380.54 734.266,1377.63 736.843,1374.62 739.42,1371.51 741.998,1368.31 
  744.575,1365 747.152,1361.6 749.729,1358.1 752.307,1354.49 754.884,1350.78 757.461,1346.96 760.038,1343.03 762.615,1339 765.193,1334.86 767.77,1330.62 
  770.347,1326.26 772.924,1321.79 775.501,1317.21 778.079,1312.53 780.656,1307.73 783.233,1302.82 785.81,1297.8 788.388,1292.67 790.965,1287.43 793.542,1282.08 
  796.119,1276.63 798.696,1271.06 801.274,1265.39 803.851,1259.62 806.428,1253.74 809.005,1247.76 811.582,1241.68 814.16,1235.49 816.737,1229.22 819.314,1222.85 
  821.891,1216.38 824.469,1209.83 827.046,1203.19 829.623,1196.47 832.2,1189.67 834.777,1182.79 837.355,1175.83 839.932,1168.81 842.509,1161.72 845.086,1154.57 
  847.663,1147.37 850.241,1140.11 852.818,1132.8 855.395,1125.44 857.972,1118.05 860.549,1110.63 863.127,1103.17 865.704,1095.7 868.281,1088.2 870.858,1080.7 
  873.436,1073.19 876.013,1065.67 878.59,1058.17 881.167,1050.67 883.744,1043.2 886.322,1035.75 888.899,1028.33 891.476,1020.95 894.053,1013.61 896.63,1006.33 
  899.208,999.103 901.785,991.942 904.362,984.851 906.939,977.839 909.517,970.912 912.094,964.078 914.671,957.342 917.248,950.712 919.825,944.194 922.403,937.796 
  924.98,931.523 927.557,925.383 930.134,919.381 932.711,913.525 935.289,907.821 937.866,902.275 940.443,896.892 943.02,891.68 945.598,886.643 948.175,881.787 
  950.752,877.118 953.329,872.642 955.906,868.362 958.484,864.285 961.061,860.414 963.638,856.754 966.215,853.31 968.792,850.086 971.37,847.085 973.947,844.31 
  976.524,841.766 979.101,839.455 981.679,837.38 984.256,835.543 986.833,833.946 989.41,832.592 991.987,831.482 994.565,830.617 997.142,829.998 999.719,829.627 
  1002.3,829.503 1004.87,829.627 1007.45,829.998 1010.03,830.617 1012.61,831.482 1015.18,832.592 1017.76,833.946 1020.34,835.543 1022.91,837.38 1025.49,839.455 
  1028.07,841.766 1030.65,844.31 1033.22,847.085 1035.8,850.086 1038.38,853.31 1040.95,856.754 1043.53,860.414 1046.11,864.284 1048.69,868.362 1051.26,872.641 
  1053.84,877.118 1056.42,881.787 1058.99,886.642 1061.57,891.679 1064.15,896.892 1066.73,902.274 1069.3,907.821 1071.88,913.525 1074.46,919.381 1077.04,925.382 
  1079.61,931.522 1082.19,937.795 1084.77,944.193 1087.34,950.711 1089.92,957.341 1092.5,964.077 1095.08,970.911 1097.65,977.838 1100.23,984.85 1102.81,991.94 
  1105.38,999.102 1107.96,1006.33 1110.54,1013.61 1113.12,1020.95 1115.69,1028.33 1118.27,1035.75 1120.85,1043.2 1123.43,1050.67 1126,1058.16 1128.58,1065.67 
  1131.16,1073.18 1133.73,1080.69 1136.31,1088.2 1138.89,1095.69 1141.47,1103.17 1144.04,1110.62 1146.62,1118.04 1149.2,1125.43 1151.77,1132.79 1154.35,1140.09 
  1156.93,1147.35 1159.51,1154.56 1162.08,1161.71 1164.66,1168.8 1167.24,1175.82 1169.82,1182.77 1172.39,1189.65 1174.97,1196.45 1177.55,1203.17 1180.12,1209.8 
  1182.7,1216.35 1185.28,1222.81 1187.86,1229.18 1190.43,1235.45 1193.01,1241.63 1195.59,1247.71 1198.16,1253.68 1200.74,1259.56 1203.32,1265.33 1205.9,1270.99 
  1208.47,1276.55 1211.05,1282 1213.63,1287.34 1216.2,1292.57 1218.78,1297.69 1221.36,1302.7 1223.94,1307.6 1226.51,1312.38 1229.09,1317.06 1231.67,1321.62 
  1234.25,1326.07 1236.82,1330.42 1239.4,1334.65 1241.98,1338.77 1244.55,1342.78 1247.13,1346.68 1249.71,1350.48 1252.29,1354.16 1254.86,1357.74 1257.44,1361.22 
  1260.02,1364.59 1262.59,1367.86 1265.17,1371.02 1267.75,1374.09 1270.33,1377.05 1272.9,1379.92 1275.48,1382.69 1278.06,1385.37 1280.64,1387.95 1283.21,1390.44 
  1285.79,1392.84 1288.37,1395.15 1290.94,1397.37 1293.52,1399.51 1296.1,1401.56 1298.68,1403.53 1301.25,1405.41 1303.83,1407.21 1306.41,1408.94 1308.98,1410.59 
  1311.56,1412.15 1314.14,1413.65 1316.72,1415.07 1319.29,1416.42 1321.87,1417.69 1324.45,1418.9 1327.03,1420.04 1329.6,1421.1 1332.18,1422.1 1334.76,1423.04 
  1337.33,1423.91 1339.91,1424.71 1342.49,1425.45 1345.07,1426.13 1347.64,1426.74 1350.22,1427.29 1352.8,1427.78 1355.37,1428.21 1357.95,1428.58 1360.53,1428.89 
  1363.11,1429.13 1365.68,1429.31 1368.26,1429.44 1370.84,1429.5 1373.41,1429.5 1375.99,1429.44 1378.57,1429.31 1381.15,1429.13 1383.72,1428.87 1386.3,1428.56 
  1388.88,1428.18 1391.46,1427.73 1394.03,1427.22 1396.61,1426.64 1399.19,1425.99 1401.76,1425.27 1404.34,1424.47 1406.92,1423.61 1409.5,1422.66 1412.07,1421.64 
  1414.65,1420.54 1417.23,1419.36 1419.8,1418.1 1422.38,1416.75 1424.96,1415.32 1427.54,1413.79 1430.11,1412.17 1432.69,1410.46 1435.27,1408.65 1437.85,1406.75 
  1440.42,1404.73 1443,1402.62 1445.58,1400.39 1448.15,1398.06 1450.73,1395.61 1453.31,1393.04 1455.89,1390.36 1458.46,1387.55 1461.04,1384.61 1463.62,1381.54 
  1466.19,1378.34 1468.77,1375 1471.35,1371.52 1473.93,1367.9 1476.5,1364.13 1479.08,1360.21 1481.66,1356.14 1484.24,1351.9 1486.81,1347.51 1489.39,1342.95 
  1491.97,1338.23 1494.54,1333.33 1497.12,1328.25 1499.7,1323 1502.28,1317.57 1504.85,1311.95 1507.43,1306.15 1510.01,1300.15 1512.58,1293.96 1515.16,1287.57 
  1517.74,1280.98 1520.32,1274.19 1522.89,1267.2 1525.47,1259.99 1528.05,1252.58 1530.62,1244.96 1533.2,1237.12 1535.78,1229.07 1538.36,1220.8 1540.93,1212.31 
  1543.51,1203.6 1546.09,1194.68 1548.67,1185.53 1551.24,1176.16 1553.82,1166.57 1556.4,1156.76 1558.97,1146.72 1561.55,1136.47 1564.13,1126 1566.71,1115.3 
  1569.28,1104.39 1571.86,1093.27 1574.44,1081.93 1577.01,1070.39 1579.59,1058.63 1582.17,1046.67 1584.75,1034.51 1587.32,1022.15 1589.9,1009.6 1592.48,996.856 
  1595.06,983.931 1597.63,970.828 1600.21,957.551 1602.79,944.108 1605.36,930.504 1607.94,916.746 1610.52,902.841 1613.1,888.796 1615.67,874.62 1618.25,860.32 
  1620.83,845.906 1623.4,831.385 1625.98,816.767 1628.56,802.062 1631.14,787.28 1633.71,772.43 1636.29,757.523 1638.87,742.57 1641.45,727.582 1644.02,712.571 
  1646.6,697.548 1649.18,682.525 1651.75,667.514 1654.33,652.527 1656.91,637.578 1659.49,622.678 1662.06,607.841 1664.64,593.081 1667.22,578.409 1669.79,563.839 
  1672.37,549.386 1674.95,535.062 1677.53,520.882 1680.1,506.858 1682.68,493.004 1685.26,479.335 1687.83,465.863 1690.41,452.603 1692.99,439.568 1695.57,426.771 
  1698.14,414.225 1700.72,401.945 1703.3,389.942 1705.88,378.23 1708.45,366.822 1711.03,355.729 1713.61,344.964 1716.18,334.539 1718.76,324.465 1721.34,314.754 
  1723.92,305.416 1726.49,296.463 1729.07,287.904 1731.65,279.749 1734.22,272.008 1736.8,264.689 1739.38,257.801 1741.96,251.352 1744.53,245.35 1747.11,239.801 
  1749.69,234.712 1752.27,230.09 1754.84,225.939 1757.42,222.265 1760,219.072 1762.57,216.363 1765.15,214.143 1767.73,212.413 1770.31,211.176 1772.88,210.433 
  1775.46,210.186 1778.04,210.433 1780.61,211.176 1783.19,212.413 1785.77,214.143 1788.35,216.363 1790.92,219.072 1793.5,222.265 1796.08,225.939 1798.66,230.09 
  1801.23,234.712 1803.81,239.801 1806.39,245.35 1808.96,251.352 1811.54,257.801 1814.12,264.689 1816.7,272.008 1819.27,279.749 1821.85,287.904 1824.43,296.463 
  1827,305.417 1829.58,314.754 1832.16,324.465 1834.74,334.539 1837.31,344.964 1839.89,355.729 1842.47,366.822 1845.04,378.231 1847.62,389.943 1850.2,401.945 
  1852.78,414.226 1855.35,426.771 1857.93,439.568 1860.51,452.603 1863.09,465.864 1865.66,479.335 1868.24,493.005 1870.82,506.858 1873.39,520.882 1875.97,535.063 
  1878.55,549.387 1881.13,563.84 1883.7,578.41 1886.28,593.082 1888.86,607.843 1891.43,622.68 1894.01,637.579 1896.59,652.529 1899.17,667.516 1901.74,682.527 
  1904.32,697.55 1906.9,712.574 1909.48,727.585 1912.05,742.573 1914.63,757.526 1917.21,772.434 1919.78,787.284 1922.36,802.067 1924.94,816.772 1927.52,831.391 
  1930.09,845.912 1932.67,860.327 1935.25,874.628 1937.82,888.804 1940.4,902.85 1942.98,916.756 1945.56,930.515 1948.13,944.12 1950.71,957.564 1953.29,970.842 
  1955.87,983.947 1958.44,996.873 1961.02,1009.62 1963.6,1022.17 1966.17,1034.53 1968.75,1046.69 1971.33,1058.66 1973.91,1070.42 1976.48,1081.97 1979.06,1093.31 
  1981.64,1104.43 1984.21,1115.35 1986.79,1126.04 1989.37,1136.52 1991.95,1146.78 1994.52,1156.82 1997.1,1166.63 1999.68,1176.23 2002.25,1185.61 2004.83,1194.76 
  2007.41,1203.7 2009.99,1212.41 2012.56,1220.91 2015.14,1229.19 2017.72,1237.25 2020.3,1245.1 2022.87,1252.73 2025.45,1260.16 2028.03,1267.37 2030.6,1274.38 
  2033.18,1281.19 2035.76,1287.79 2038.34,1294.2 2040.91,1300.41 2043.49,1306.43 2046.07,1312.26 2048.64,1317.9 2051.22,1323.36 2053.8,1328.64 2056.38,1333.75 
  2058.95,1338.68 2061.53,1343.44 2064.11,1348.04 2066.69,1352.47 2069.26,1356.75 2071.84,1360.87 2074.42,1364.84 2076.99,1368.66 2079.57,1372.34 2082.15,1375.89 
  2084.73,1379.29 2087.3,1382.56 2089.88,1385.7 2092.46,1388.72 2095.03,1391.62 2097.61,1394.4 2100.19,1397.06 2102.77,1399.62 2105.34,1402.06 2107.92,1404.41 
  2110.5,1406.65 2113.08,1408.79 2115.65,1410.84 2118.23,1412.8 2120.81,1414.68 2123.38,1416.47 2125.96,1418.17 2128.54,1419.8 2131.12,1421.35 2133.69,1422.83 
  2136.27,1424.24 2138.85,1425.59 2141.42,1426.87 2144,1428.08 2146.58,1429.24 2149.16,1430.34 2151.73,1431.38 2154.31,1432.38 2156.89,1433.32 2159.46,1434.21 
  2162.04,1435.06 2164.62,1435.86 2167.2,1436.63 2169.77,1437.35 2172.35,1438.03 2174.93,1438.68 2177.51,1439.29 2180.08,1439.87 2182.66,1440.41 2185.24,1440.93 
  2187.81,1441.42 2190.39,1441.88 2192.97,1442.31 2195.55,1442.72 2198.12,1443.11 2200.7,1443.47 2203.28,1443.81 2205.85,1444.14 2208.43,1444.44 2211.01,1444.73 
  2213.59,1444.99 2216.16,1445.25 2218.74,1445.48 2221.32,1445.71 2223.9,1445.91 2226.47,1446.11 2229.05,1446.29 2231.63,1446.47 2234.2,1446.63 2236.78,1446.78 
  2239.36,1446.92 2241.94,1447.05 2244.51,1447.18 2247.09,1447.29 2249.67,1447.4 2252.24,1447.5 2254.82,1447.6 2257.4,1447.68 2259.98,1447.77 2262.55,1447.84 
  2265.13,1447.91 2267.71,1447.98 2270.29,1448.04 2272.86,1448.1 2275.44,1448.15 2278.02,1448.2 2280.59,1448.25 2283.17,1448.29 2285.75,1448.33 2288.33,1448.37 
  2290.9,1448.4 
  "/>
<polyline clip-path="url(#clip0602)" style="stroke:#3da44d; stroke-width:4; stroke-opacity:1; fill:none" points="
  229.132,1448.82 231.709,1448.82 234.287,1448.82 236.864,1448.82 239.441,1448.82 242.018,1448.82 244.596,1448.82 247.173,1448.82 249.75,1448.82 252.327,1448.82 
  254.904,1448.82 257.482,1448.82 260.059,1448.82 262.636,1448.82 265.213,1448.82 267.79,1448.82 270.368,1448.82 272.945,1448.82 275.522,1448.82 278.099,1448.82 
  280.677,1448.82 283.254,1448.82 285.831,1448.82 288.408,1448.82 290.985,1448.82 293.563,1448.82 296.14,1448.82 298.717,1448.82 301.294,1448.82 303.871,1448.82 
  306.449,1448.82 309.026,1448.82 311.603,1448.82 314.18,1448.82 316.758,1448.82 319.335,1448.82 321.912,1448.82 324.489,1448.82 327.066,1448.82 329.644,1448.82 
  332.221,1448.82 334.798,1448.82 337.375,1448.82 339.952,1448.82 342.53,1448.82 345.107,1448.82 347.684,1448.82 350.261,1448.82 352.838,1448.82 355.416,1448.82 
  357.993,1448.81 360.57,1448.81 363.147,1448.81 365.725,1448.81 368.302,1448.81 370.879,1448.81 373.456,1448.81 376.033,1448.81 378.611,1448.81 381.188,1448.81 
  383.765,1448.81 386.342,1448.81 388.919,1448.8 391.497,1448.8 394.074,1448.8 396.651,1448.8 399.228,1448.8 401.806,1448.8 404.383,1448.79 406.96,1448.79 
  409.537,1448.79 412.114,1448.79 414.692,1448.78 417.269,1448.78 419.846,1448.78 422.423,1448.77 425,1448.77 427.578,1448.76 430.155,1448.76 432.732,1448.75 
  435.309,1448.75 437.887,1448.74 440.464,1448.73 443.041,1448.73 445.618,1448.72 448.195,1448.71 450.773,1448.7 453.35,1448.69 455.927,1448.68 458.504,1448.67 
  461.081,1448.66 463.659,1448.64 466.236,1448.63 468.813,1448.61 471.39,1448.59 473.968,1448.58 476.545,1448.56 479.122,1448.54 481.699,1448.51 484.276,1448.49 
  486.854,1448.46 489.431,1448.43 492.008,1448.4 494.585,1448.37 497.162,1448.34 499.74,1448.3 502.317,1448.26 504.894,1448.22 507.471,1448.17 510.048,1448.12 
  512.626,1448.07 515.203,1448.02 517.78,1447.96 520.357,1447.89 522.935,1447.83 525.512,1447.75 528.089,1447.68 530.666,1447.59 533.243,1447.51 535.821,1447.41 
  538.398,1447.32 540.975,1447.21 543.552,1447.1 546.129,1446.98 548.707,1446.85 551.284,1446.72 553.861,1446.57 556.438,1446.42 559.016,1446.26 561.593,1446.09 
  564.17,1445.91 566.747,1445.72 569.324,1445.51 571.902,1445.3 574.479,1445.07 577.056,1444.83 579.633,1444.57 582.21,1444.3 584.788,1444.02 587.365,1443.72 
  589.942,1443.4 592.519,1443.06 595.097,1442.71 597.674,1442.33 600.251,1441.94 602.828,1441.53 605.405,1441.09 607.983,1440.63 610.56,1440.15 613.137,1439.64 
  615.714,1439.1 618.291,1438.54 620.869,1437.95 623.446,1437.33 626.023,1436.68 628.6,1436 631.178,1435.29 633.755,1434.54 636.332,1433.75 638.909,1432.93 
  641.486,1432.07 644.064,1431.17 646.641,1430.23 649.218,1429.24 651.795,1428.21 654.372,1427.14 656.95,1426.02 659.527,1424.85 662.104,1423.63 664.681,1422.35 
  667.258,1421.03 669.836,1419.65 672.413,1418.21 674.99,1416.71 677.567,1415.15 680.145,1413.53 682.722,1411.85 685.299,1410.1 687.876,1408.29 690.453,1406.4 
  693.031,1404.45 695.608,1402.42 698.185,1400.32 700.762,1398.14 703.339,1395.89 705.917,1393.56 708.494,1391.14 711.071,1388.65 713.648,1386.07 716.226,1383.4 
  718.803,1380.65 721.38,1377.81 723.957,1374.88 726.534,1371.86 729.112,1368.74 731.689,1365.53 734.266,1362.23 736.843,1358.83 739.42,1355.33 741.998,1351.73 
  744.575,1348.04 747.152,1344.24 749.729,1340.34 752.307,1336.34 754.884,1332.24 757.461,1328.04 760.038,1323.73 762.615,1319.31 765.193,1314.8 767.77,1310.17 
  770.347,1305.45 772.924,1300.62 775.501,1295.68 778.079,1290.65 780.656,1285.51 783.233,1280.27 785.81,1274.92 788.388,1269.48 790.965,1263.93 793.542,1258.29 
  796.119,1252.56 798.696,1246.72 801.274,1240.8 803.851,1234.78 806.428,1228.67 809.005,1222.48 811.582,1216.2 814.16,1209.84 816.737,1203.39 819.314,1196.88 
  821.891,1190.29 824.469,1183.62 827.046,1176.89 829.623,1170.1 832.2,1163.25 834.777,1156.34 837.355,1149.38 839.932,1142.37 842.509,1135.32 845.086,1128.23 
  847.663,1121.11 850.241,1113.95 852.818,1106.77 855.395,1099.57 857.972,1092.36 860.549,1085.14 863.127,1077.91 865.704,1070.69 868.281,1063.47 870.858,1056.27 
  873.436,1049.09 876.013,1041.93 878.59,1034.8 881.167,1027.71 883.744,1020.66 886.322,1013.67 888.899,1006.72 891.476,999.843 894.053,993.031 896.63,986.294 
  899.208,979.637 901.785,973.067 904.362,966.592 906.939,960.215 909.517,953.945 912.094,947.787 914.671,941.748 917.248,935.833 919.825,930.049 922.403,924.401 
  924.98,918.895 927.557,913.538 930.134,908.334 932.711,903.289 935.289,898.409 937.866,893.699 940.443,889.164 943.02,884.809 945.598,880.639 948.175,876.657 
  950.752,872.87 953.329,869.28 955.906,865.892 958.484,862.709 961.061,859.736 963.638,856.976 966.215,854.431 968.792,852.104 971.37,849.999 973.947,848.118 
  976.524,846.462 979.101,845.034 981.679,843.835 984.256,842.867 986.833,842.131 989.41,841.628 991.987,841.357 994.565,841.32 997.142,841.517 999.719,841.947 
  1002.3,842.61 1004.87,843.506 1007.45,844.632 1010.03,845.988 1012.61,847.572 1015.18,849.382 1017.76,851.417 1020.34,853.674 1022.91,856.151 1025.49,858.844 
  1028.07,861.75 1030.65,864.867 1033.22,868.191 1035.8,871.717 1038.38,875.443 1040.95,879.364 1043.53,883.475 1046.11,887.773 1048.69,892.252 1051.26,896.907 
  1053.84,901.734 1056.42,906.727 1058.99,911.881 1061.57,917.191 1064.15,922.65 1066.73,928.254 1069.3,933.996 1071.88,939.87 1074.46,945.871 1077.04,951.992 
  1079.61,958.228 1082.19,964.571 1084.77,971.016 1087.34,977.557 1089.92,984.186 1092.5,990.899 1095.08,997.688 1097.65,1004.55 1100.23,1011.47 1102.81,1018.45 
  1105.38,1025.48 1107.96,1032.56 1110.54,1039.68 1113.12,1046.83 1115.69,1054 1118.27,1061.2 1120.85,1068.41 1123.43,1075.63 1126,1082.86 1128.58,1090.08 
  1131.16,1097.3 1133.73,1104.5 1136.31,1111.68 1138.89,1118.85 1141.47,1125.98 1144.04,1133.08 1146.62,1140.14 1149.2,1147.16 1151.77,1154.14 1154.35,1161.06 
  1156.93,1167.93 1159.51,1174.74 1162.08,1181.49 1164.66,1188.17 1167.24,1194.78 1169.82,1201.32 1172.39,1207.78 1174.97,1214.17 1177.55,1220.47 1180.12,1226.68 
  1182.7,1232.82 1185.28,1238.86 1187.86,1244.81 1190.43,1250.67 1193.01,1256.43 1195.59,1262.09 1198.16,1267.66 1200.74,1273.13 1203.32,1278.5 1205.9,1283.76 
  1208.47,1288.93 1211.05,1293.98 1213.63,1298.94 1216.2,1303.79 1218.78,1308.54 1221.36,1313.18 1223.94,1317.71 1226.51,1322.14 1229.09,1326.47 1231.67,1330.69 
  1234.25,1334.8 1236.82,1338.81 1239.4,1342.72 1241.98,1346.52 1244.55,1350.22 1247.13,1353.82 1249.71,1357.32 1252.29,1360.71 1254.86,1364.01 1257.44,1367.21 
  1260.02,1370.31 1262.59,1373.32 1265.17,1376.23 1267.75,1379.04 1270.33,1381.77 1272.9,1384.4 1275.48,1386.94 1278.06,1389.39 1280.64,1391.76 1283.21,1394.03 
  1285.79,1396.23 1288.37,1398.34 1290.94,1400.36 1293.52,1402.31 1296.1,1404.18 1298.68,1405.96 1301.25,1407.67 1303.83,1409.3 1306.41,1410.86 1308.98,1412.35 
  1311.56,1413.76 1314.14,1415.1 1316.72,1416.37 1319.29,1417.57 1321.87,1418.7 1324.45,1419.76 1327.03,1420.76 1329.6,1421.69 1332.18,1422.56 1334.76,1423.36 
  1337.33,1424.1 1339.91,1424.77 1342.49,1425.38 1345.07,1425.93 1347.64,1426.42 1350.22,1426.84 1352.8,1427.21 1355.37,1427.51 1357.95,1427.75 1360.53,1427.93 
  1363.11,1428.05 1365.68,1428.1 1368.26,1428.09 1370.84,1428.03 1373.41,1427.89 1375.99,1427.7 1378.57,1427.44 1381.15,1427.12 1383.72,1426.73 1386.3,1426.27 
  1388.88,1425.75 1391.46,1425.16 1394.03,1424.5 1396.61,1423.76 1399.19,1422.96 1401.76,1422.08 1404.34,1421.12 1406.92,1420.09 1409.5,1418.98 1412.07,1417.79 
  1414.65,1416.52 1417.23,1415.16 1419.8,1413.72 1422.38,1412.19 1424.96,1410.56 1427.54,1408.84 1430.11,1407.03 1432.69,1405.12 1435.27,1403.11 1437.85,1401 
  1440.42,1398.77 1443,1396.45 1445.58,1394.01 1448.15,1391.45 1450.73,1388.78 1453.31,1385.99 1455.89,1383.07 1458.46,1380.03 1461.04,1376.86 1463.62,1373.55 
  1466.19,1370.11 1468.77,1366.53 1471.35,1362.81 1473.93,1358.95 1476.5,1354.93 1479.08,1350.77 1481.66,1346.45 1484.24,1341.97 1486.81,1337.33 1489.39,1332.53 
  1491.97,1327.55 1494.54,1322.41 1497.12,1317.1 1499.7,1311.61 1502.28,1305.94 1504.85,1300.08 1507.43,1294.05 1510.01,1287.82 1512.58,1281.41 1515.16,1274.8 
  1517.74,1268 1520.32,1261.01 1522.89,1253.81 1525.47,1246.42 1528.05,1238.82 1530.62,1231.02 1533.2,1223.01 1535.78,1214.8 1538.36,1206.38 1540.93,1197.75 
  1543.51,1188.91 1546.09,1179.87 1548.67,1170.61 1551.24,1161.15 1553.82,1151.48 1556.4,1141.6 1558.97,1131.51 1561.55,1121.22 1564.13,1110.72 1566.71,1100.02 
  1569.28,1089.12 1571.86,1078.02 1574.44,1066.73 1577.01,1055.24 1579.59,1043.56 1582.17,1031.69 1584.75,1019.65 1587.32,1007.42 1589.9,995.019 1592.48,982.449 
  1595.06,969.715 1597.63,956.822 1600.21,943.776 1602.79,930.583 1605.36,917.25 1607.94,903.784 1610.52,890.191 1613.1,876.479 1615.67,862.656 1618.25,848.729 
  1620.83,834.708 1623.4,820.601 1625.98,806.416 1628.56,792.164 1631.14,777.854 1633.71,763.495 1636.29,749.099 1638.87,734.674 1641.45,720.232 1644.02,705.784 
  1646.6,691.341 1649.18,676.914 1651.75,662.514 1654.33,648.154 1656.91,633.845 1659.49,619.599 1662.06,605.429 1664.64,591.346 1667.22,577.363 1669.79,563.493 
  1672.37,549.747 1674.95,536.14 1677.53,522.682 1680.1,509.388 1682.68,496.269 1685.26,483.338 1687.83,470.608 1690.41,458.091 1692.99,445.8 1695.57,433.746 
  1698.14,421.943 1700.72,410.402 1703.3,399.135 1705.88,388.154 1708.45,377.47 1711.03,367.094 1713.61,357.038 1716.18,347.312 1718.76,337.926 1721.34,328.892 
  1723.92,320.218 1726.49,311.914 1729.07,303.989 1731.65,296.453 1734.22,289.312 1736.8,282.576 1739.38,276.252 1741.96,270.347 1744.53,264.868 1747.11,259.82 
  1749.69,255.21 1752.27,251.043 1754.84,247.324 1757.42,244.056 1760,241.244 1762.57,238.891 1765.15,236.999 1767.73,235.571 1770.31,234.608 1772.88,234.112 
  1775.46,234.083 1778.04,234.52 1780.61,235.425 1783.19,236.795 1785.77,238.628 1788.35,240.924 1790.92,243.679 1793.5,246.89 1796.08,250.553 1798.66,254.664 
  1801.23,259.219 1803.81,264.212 1806.39,269.638 1808.96,275.49 1811.54,281.762 1814.12,288.447 1816.7,295.537 1819.27,303.024 1821.85,310.901 1824.43,319.158 
  1827,327.786 1829.58,336.776 1832.16,346.118 1834.74,355.802 1837.31,365.817 1839.89,376.153 1842.47,386.8 1845.04,397.744 1847.62,408.976 1850.2,420.484 
  1852.78,432.255 1855.35,444.277 1857.93,456.54 1860.51,469.029 1863.09,481.733 1865.66,494.64 1868.24,507.736 1870.82,521.009 1873.39,534.447 1875.97,548.036 
  1878.55,561.765 1881.13,575.621 1883.7,589.59 1886.28,603.661 1888.86,617.822 1891.43,632.059 1894.01,646.361 1896.59,660.716 1899.17,675.111 1901.74,689.536 
  1904.32,703.978 1906.9,718.426 1909.48,732.87 1912.05,747.297 1914.63,761.699 1917.21,776.063 1919.78,790.38 1922.36,804.641 1924.94,818.835 1927.52,832.953 
  1930.09,846.986 1932.67,860.925 1935.25,874.763 1937.82,888.49 1940.4,902.099 1942.98,915.583 1945.56,928.934 1948.13,942.146 1950.71,955.212 1953.29,968.126 
  1955.87,980.882 1958.44,993.475 1961.02,1005.9 1963.6,1018.15 1966.17,1030.22 1968.75,1042.11 1971.33,1053.82 1973.91,1065.33 1976.48,1076.66 1979.06,1087.79 
  1981.64,1098.71 1984.21,1109.44 1986.79,1119.97 1989.37,1130.29 1991.95,1140.41 1994.52,1150.32 1997.1,1160.03 1999.68,1169.52 2002.25,1178.81 2004.83,1187.89 
  2007.41,1196.76 2009.99,1205.42 2012.56,1213.88 2015.14,1222.12 2017.72,1230.17 2020.3,1238.01 2022.87,1245.64 2025.45,1253.08 2028.03,1260.31 2030.6,1267.35 
  2033.18,1274.19 2035.76,1280.84 2038.34,1287.3 2040.91,1293.57 2043.49,1299.65 2046.07,1305.55 2048.64,1311.27 2051.22,1316.81 2053.8,1322.18 2056.38,1327.37 
  2058.95,1332.4 2061.53,1337.26 2064.11,1341.96 2066.69,1346.51 2069.26,1350.89 2071.84,1355.13 2074.42,1359.21 2076.99,1363.15 2079.57,1366.95 2082.15,1370.61 
  2084.73,1374.14 2087.3,1377.53 2089.88,1380.8 2092.46,1383.94 2095.03,1386.96 2097.61,1389.86 2100.19,1392.65 2102.77,1395.32 2105.34,1397.89 2107.92,1400.35 
  2110.5,1402.72 2113.08,1404.98 2115.65,1407.15 2118.23,1409.23 2120.81,1411.21 2123.38,1413.12 2125.96,1414.93 2128.54,1416.67 2131.12,1418.33 2133.69,1419.92 
  2136.27,1421.43 2138.85,1422.88 2141.42,1424.26 2144,1425.57 2146.58,1426.82 2149.16,1428.01 2151.73,1429.15 2154.31,1430.23 2156.89,1431.26 2159.46,1432.24 
  2162.04,1433.17 2164.62,1434.05 2167.2,1434.89 2169.77,1435.68 2172.35,1436.44 2174.93,1437.15 2177.51,1437.83 2180.08,1438.48 2182.66,1439.09 2185.24,1439.66 
  2187.81,1440.21 2190.39,1440.73 2192.97,1441.21 2195.55,1441.68 2198.12,1442.11 2200.7,1442.53 2203.28,1442.91 2205.85,1443.28 2208.43,1443.63 2211.01,1443.95 
  2213.59,1444.26 2216.16,1444.55 2218.74,1444.83 2221.32,1445.08 2223.9,1445.32 2226.47,1445.55 2229.05,1445.77 2231.63,1445.97 2234.2,1446.16 2236.78,1446.33 
  2239.36,1446.5 2241.94,1446.65 2244.51,1446.8 2247.09,1446.94 2249.67,1447.07 2252.24,1447.19 2254.82,1447.3 2257.4,1447.41 2259.98,1447.5 2262.55,1447.6 
  2265.13,1447.68 2267.71,1447.76 2270.29,1447.84 2272.86,1447.91 2275.44,1447.97 2278.02,1448.03 2280.59,1448.09 2283.17,1448.15 2285.75,1448.19 2288.33,1448.24 
  2290.9,1448.28 
  "/>
<path clip-path="url(#clip0600)" d="
M1893.61 447.115 L2280.76 447.115 L2280.76 205.195 L1893.61 205.195  Z
  " fill="#ffffff" fill-rule="evenodd" fill-opacity="1"/>
<polyline clip-path="url(#clip0600)" style="stroke:#000000; stroke-width:4; stroke-opacity:1; fill:none" points="
  1893.61,447.115 2280.76,447.115 2280.76,205.195 1893.61,205.195 1893.61,447.115 
  "/>
<polyline clip-path="url(#clip0600)" style="stroke:#009af9; stroke-width:4; stroke-opacity:1; fill:none" points="
  1917.61,265.675 2061.61,265.675 
  "/>
<g clip-path="url(#clip0600)">
<text style="fill:#000000; fill-opacity:1; font-family:Arial,Helvetica Neue,Helvetica,sans-serif; font-size:48px; text-anchor:start;" transform="rotate(0, 2085.61, 283.175)" x="2085.61" y="283.175">Data</text>
</g>
<polyline clip-path="url(#clip0600)" style="stroke:#e26f46; stroke-width:4; stroke-opacity:1; fill:none" points="
  1917.61,326.155 2061.61,326.155 
  "/>
<g clip-path="url(#clip0600)">
<text style="fill:#000000; fill-opacity:1; font-family:Arial,Helvetica Neue,Helvetica,sans-serif; font-size:48px; text-anchor:start;" transform="rotate(0, 2085.61, 343.655)" x="2085.61" y="343.655">Truth</text>
</g>
<polyline clip-path="url(#clip0600)" style="stroke:#3da44d; stroke-width:4; stroke-opacity:1; fill:none" points="
  1917.61,386.635 2061.61,386.635 
  "/>
<g clip-path="url(#clip0600)">
<text style="fill:#000000; fill-opacity:1; font-family:Arial,Helvetica Neue,Helvetica,sans-serif; font-size:48px; text-anchor:start;" transform="rotate(0, 2085.61, 404.135)" x="2085.61" y="404.135">Best fit</text>
</g>
</svg>
