<?xml version="1.0" encoding="utf-8"?>
<svg xmlns="http://www.w3.org/2000/svg" xmlns:xlink="http://www.w3.org/1999/xlink" width="600" height="400" viewBox="0 0 2400 1600">
<defs>
  <clipPath id="clip9400">
    <rect x="0" y="0" width="2400" height="1600"/>
  </clipPath>
</defs>
<path clip-path="url(#clip9400)" d="
M0 1600 L2400 1600 L2400 0 L0 0  Z
  " fill="#ffffff" fill-rule="evenodd" fill-opacity="1"/>
<defs>
  <clipPath id="clip9401">
    <rect x="480" y="0" width="1681" height="1600"/>
  </clipPath>
</defs>
<path clip-path="url(#clip9400)" d="
M202.373 1425.62 L2352.76 1425.62 L2352.76 121.675 L202.373 121.675  Z
  " fill="#ffffff" fill-rule="evenodd" fill-opacity="1"/>
<defs>
  <clipPath id="clip9402">
    <rect x="202" y="121" width="2151" height="1305"/>
  </clipPath>
</defs>
<polyline clip-path="url(#clip9402)" style="stroke:#000000; stroke-width:2; stroke-opacity:0.1; fill:none" points="
  640.659,1425.62 640.659,121.675 
  "/>
<polyline clip-path="url(#clip9402)" style="stroke:#000000; stroke-width:2; stroke-opacity:0.1; fill:none" points="
  1112.44,1425.62 1112.44,121.675 
  "/>
<polyline clip-path="url(#clip9402)" style="stroke:#000000; stroke-width:2; stroke-opacity:0.1; fill:none" points="
  1584.22,1425.62 1584.22,121.675 
  "/>
<polyline clip-path="url(#clip9402)" style="stroke:#000000; stroke-width:2; stroke-opacity:0.1; fill:none" points="
  2056,1425.62 2056,121.675 
  "/>
<polyline clip-path="url(#clip9402)" style="stroke:#000000; stroke-width:2; stroke-opacity:0.1; fill:none" points="
  202.373,1388.71 2352.76,1388.71 
  "/>
<polyline clip-path="url(#clip9402)" style="stroke:#000000; stroke-width:2; stroke-opacity:0.1; fill:none" points="
  202.373,1023.8 2352.76,1023.8 
  "/>
<polyline clip-path="url(#clip9402)" style="stroke:#000000; stroke-width:2; stroke-opacity:0.1; fill:none" points="
  202.373,658.893 2352.76,658.893 
  "/>
<polyline clip-path="url(#clip9402)" style="stroke:#000000; stroke-width:2; stroke-opacity:0.1; fill:none" points="
  202.373,293.982 2352.76,293.982 
  "/>
<polyline clip-path="url(#clip9400)" style="stroke:#000000; stroke-width:4; stroke-opacity:1; fill:none" points="
  202.373,1425.62 2352.76,1425.62 
  "/>
<polyline clip-path="url(#clip9400)" style="stroke:#000000; stroke-width:4; stroke-opacity:1; fill:none" points="
  202.373,1425.62 202.373,121.675 
  "/>
<polyline clip-path="url(#clip9400)" style="stroke:#000000; stroke-width:4; stroke-opacity:1; fill:none" points="
  640.659,1425.62 640.659,1406.06 
  "/>
<polyline clip-path="url(#clip9400)" style="stroke:#000000; stroke-width:4; stroke-opacity:1; fill:none" points="
  1112.44,1425.62 1112.44,1406.06 
  "/>
<polyline clip-path="url(#clip9400)" style="stroke:#000000; stroke-width:4; stroke-opacity:1; fill:none" points="
  1584.22,1425.62 1584.22,1406.06 
  "/>
<polyline clip-path="url(#clip9400)" style="stroke:#000000; stroke-width:4; stroke-opacity:1; fill:none" points="
  2056,1425.62 2056,1406.06 
  "/>
<polyline clip-path="url(#clip9400)" style="stroke:#000000; stroke-width:4; stroke-opacity:1; fill:none" points="
  202.373,1388.71 234.629,1388.71 
  "/>
<polyline clip-path="url(#clip9400)" style="stroke:#000000; stroke-width:4; stroke-opacity:1; fill:none" points="
  202.373,1023.8 234.629,1023.8 
  "/>
<polyline clip-path="url(#clip9400)" style="stroke:#000000; stroke-width:4; stroke-opacity:1; fill:none" points="
  202.373,658.893 234.629,658.893 
  "/>
<polyline clip-path="url(#clip9400)" style="stroke:#000000; stroke-width:4; stroke-opacity:1; fill:none" points="
  202.373,293.982 234.629,293.982 
  "/>
<g clip-path="url(#clip9400)">
<text style="fill:#000000; fill-opacity:1; font-family:Arial,Helvetica Neue,Helvetica,sans-serif; font-size:48px; text-anchor:middle;" transform="rotate(0, 640.659, 1479.62)" x="640.659" y="1479.62">-1.05</text>
</g>
<g clip-path="url(#clip9400)">
<text style="fill:#000000; fill-opacity:1; font-family:Arial,Helvetica Neue,Helvetica,sans-serif; font-size:48px; text-anchor:middle;" transform="rotate(0, 1112.44, 1479.62)" x="1112.44" y="1479.62">-1.00</text>
</g>
<g clip-path="url(#clip9400)">
<text style="fill:#000000; fill-opacity:1; font-family:Arial,Helvetica Neue,Helvetica,sans-serif; font-size:48px; text-anchor:middle;" transform="rotate(0, 1584.22, 1479.62)" x="1584.22" y="1479.62">-0.95</text>
</g>
<g clip-path="url(#clip9400)">
<text style="fill:#000000; fill-opacity:1; font-family:Arial,Helvetica Neue,Helvetica,sans-serif; font-size:48px; text-anchor:middle;" transform="rotate(0, 2056, 1479.62)" x="2056" y="1479.62">-0.90</text>
</g>
<g clip-path="url(#clip9400)">
<text style="fill:#000000; fill-opacity:1; font-family:Arial,Helvetica Neue,Helvetica,sans-serif; font-size:48px; text-anchor:end;" transform="rotate(0, 178.373, 1406.21)" x="178.373" y="1406.21">0</text>
</g>
<g clip-path="url(#clip9400)">
<text style="fill:#000000; fill-opacity:1; font-family:Arial,Helvetica Neue,Helvetica,sans-serif; font-size:48px; text-anchor:end;" transform="rotate(0, 178.373, 1041.3)" x="178.373" y="1041.3">5</text>
</g>
<g clip-path="url(#clip9400)">
<text style="fill:#000000; fill-opacity:1; font-family:Arial,Helvetica Neue,Helvetica,sans-serif; font-size:48px; text-anchor:end;" transform="rotate(0, 178.373, 676.393)" x="178.373" y="676.393">10</text>
</g>
<g clip-path="url(#clip9400)">
<text style="fill:#000000; fill-opacity:1; font-family:Arial,Helvetica Neue,Helvetica,sans-serif; font-size:48px; text-anchor:end;" transform="rotate(0, 178.373, 311.482)" x="178.373" y="311.482">15</text>
</g>
<g clip-path="url(#clip9400)">
<text style="fill:#000000; fill-opacity:1; font-family:Arial,Helvetica Neue,Helvetica,sans-serif; font-size:84px; text-anchor:middle;" transform="rotate(0, 1277.56, 73.2)" x="1277.56" y="73.2">Marginalized Distribution for mu_1</text>
</g>
<g clip-path="url(#clip9400)">
<text style="fill:#000000; fill-opacity:1; font-family:Arial,Helvetica Neue,Helvetica,sans-serif; font-size:66px; text-anchor:middle;" transform="rotate(0, 1277.56, 1559.48)" x="1277.56" y="1559.48">mu_1</text>
</g>
<g clip-path="url(#clip9400)">
<text style="fill:#000000; fill-opacity:1; font-family:Arial,Helvetica Neue,Helvetica,sans-serif; font-size:66px; text-anchor:middle;" transform="rotate(-90, 89.2861, 773.647)" x="89.2861" y="773.647">P(mu_1)</text>
</g>
<path clip-path="url(#clip9402)" d="
M263.233 1388.71 L310.411 1388.71 L310.411 1388.71 L357.589 1388.71 L357.589 1388.71 L404.767 1388.71 L404.767 1388.71 L451.946 1388.71 L451.946 1388.71 L499.124 1388.71 
  L499.124 1388.71 L546.302 1388.71 L546.302 1388.71 L593.48 1388.71 L593.48 1388.71 L640.659 1388.71 L640.659 1369.53 L687.837 1369.53 L687.837 1357.47 L735.015 1357.47 
  L735.015 1340.8 L782.193 1340.8 L782.193 1316.59 L829.371 1316.59 L829.371 1274.26 L876.55 1274.26 L876.55 1231.44 L923.728 1231.44 L923.728 1155.36 L970.906 1155.36 
  L970.906 1077.9 L1018.08 1077.9 L1018.08 907.431 L1065.26 907.431 L1065.26 837.415 L1112.44 837.415 L1112.44 671.402 L1159.62 671.402 L1159.62 525.625 L1206.8 525.625 
  L1206.8 463.947 L1253.98 463.947 L1253.98 312.665 L1301.15 312.665 L1301.15 254.306 L1348.33 254.306 L1348.33 194.408 L1395.51 194.408 L1395.51 287.088 L1442.69 287.088 
  L1442.69 294.696 L1489.87 294.696 L1489.87 441.202 L1537.04 441.202 L1537.04 540.599 L1584.22 540.599 L1584.22 688.238 L1631.4 688.238 L1631.4 799.453 L1678.58 799.453 
  L1678.58 905.569 L1725.76 905.569 L1725.76 1076.68 L1772.94 1076.68 L1772.94 1152.69 L1820.11 1152.69 L1820.11 1254.27 L1867.29 1254.27 L1867.29 1294.58 L1914.47 1294.58 
  L1914.47 1334.64 L1961.65 1334.64 L1961.65 1362.65 L2008.83 1362.65 L2008.83 1371.07 L2056 1371.07 L2056 1388.71 L2103.18 1388.71 L2103.18 1388.71 L2150.36 1388.71 
  L2150.36 1388.71 L2197.54 1388.71 L2197.54 1388.71 L2244.72 1388.71 L2244.72 1388.71 L2291.9 1388.71 L2291.9 1388.71 L2291.9 1388.71 L2291.9 1388.71 L2244.72 1388.71 
  L2244.72 1388.71 L2197.54 1388.71 L2197.54 1388.71 L2150.36 1388.71 L2150.36 1388.71 L2103.18 1388.71 L2103.18 1388.71 L2056 1388.71 L2056 1388.71 L2008.83 1388.71 
  L2008.83 1388.71 L1961.65 1388.71 L1961.65 1388.71 L1914.47 1388.71 L1914.47 1388.71 L1867.29 1388.71 L1867.29 1388.71 L1820.11 1388.71 L1820.11 1388.71 L1772.94 1388.71 
  L1772.94 1388.71 L1725.76 1388.71 L1725.76 1388.71 L1678.58 1388.71 L1678.58 1388.71 L1631.4 1388.71 L1631.4 1388.71 L1584.22 1388.71 L1584.22 1388.71 L1537.04 1388.71 
  L1537.04 1388.71 L1489.87 1388.71 L1489.87 1388.71 L1442.69 1388.71 L1442.69 1388.71 L1395.51 1388.71 L1395.51 1388.71 L1348.33 1388.71 L1348.33 1388.71 L1301.15 1388.71 
  L1301.15 1388.71 L1253.98 1388.71 L1253.98 1388.71 L1206.8 1388.71 L1206.8 1388.71 L1159.62 1388.71 L1159.62 1388.71 L1112.44 1388.71 L1112.44 1388.71 L1065.26 1388.71 
  L1065.26 1388.71 L1018.08 1388.71 L1018.08 1388.71 L970.906 1388.71 L970.906 1388.71 L923.728 1388.71 L923.728 1388.71 L876.55 1388.71 L876.55 1388.71 L829.371 1388.71 
  L829.371 1388.71 L782.193 1388.71 L782.193 1388.71 L735.015 1388.71 L735.015 1388.71 L687.837 1388.71 L687.837 1388.71 L640.659 1388.71 L640.659 1388.71 L593.48 1388.71 
  L593.48 1388.71 L546.302 1388.71 L546.302 1388.71 L499.124 1388.71 L499.124 1388.71 L451.946 1388.71 L451.946 1388.71 L404.767 1388.71 L404.767 1388.71 L357.589 1388.71 
  L357.589 1388.71 L310.411 1388.71 L310.411 1388.71 L263.233 1388.71  Z
  " fill="#ff0000" fill-rule="evenodd" fill-opacity="1"/>
<polyline clip-path="url(#clip9402)" style="stroke:#009af9; stroke-width:0; stroke-opacity:1; fill:none" points="
  263.233,1388.71 310.411,1388.71 357.589,1388.71 404.767,1388.71 451.946,1388.71 499.124,1388.71 
  546.302,1388.71 593.48,1388.71 640.659,1388.71 640.659,1369.53 687.837,1369.53 687.837,1357.47 735.015,1357.47 
  735.015,1340.8 782.193,1340.8 782.193,1316.59 829.371,1316.59 829.371,1274.26 876.55,1274.26 876.55,1231.44 923.728,1231.44 923.728,1155.36 970.906,1155.36 
  970.906,1077.9 1018.08,1077.9 1018.08,907.431 1065.26,907.431 1065.26,837.415 1112.44,837.415 1112.44,671.402 1159.62,671.402 1159.62,525.625 1206.8,525.625 
  1206.8,463.947 1253.98,463.947 1253.98,312.665 1301.15,312.665 1301.15,254.306 1348.33,254.306 1348.33,194.408 1395.51,194.408 1395.51,287.088 1442.69,287.088 
  1442.69,294.696 1489.87,294.696 1489.87,441.202 1537.04,441.202 1537.04,540.599 1584.22,540.599 1584.22,688.238 1631.4,688.238 1631.4,799.453 1678.58,799.453 
  1678.58,905.569 1725.76,905.569 1725.76,1076.68 1772.94,1076.68 1772.94,1152.69 1820.11,1152.69 1820.11,1254.27 1867.29,1254.27 1867.29,1294.58 1914.47,1294.58 
  1914.47,1334.64 1961.65,1334.64 1961.65,1362.65 2008.83,1362.65 2008.83,1371.07 2056,1371.07 2056,1388.71 2103.18,1388.71 2150.36,1388.71 
  2197.54,1388.71 2244.72,1388.71 2291.9,1388.71 
  "/>
<path clip-path="url(#clip9402)" d="
M263.233 1388.71 L310.411 1388.71 L310.411 1388.71 L357.589 1388.71 L357.589 1388.71 L404.767 1388.71 L404.767 1388.71 L451.946 1388.71 L451.946 1388.71 L499.124 1388.71 
  L499.124 1388.71 L546.302 1388.71 L546.302 1388.71 L593.48 1388.71 L593.48 1388.71 L640.659 1388.71 L640.659 1388.71 L687.837 1388.71 L687.837 1388.71 L735.015 1388.71 
  L735.015 1388.71 L782.193 1388.71 L782.193 1388.71 L829.371 1388.71 L829.371 1388.71 L876.55 1388.71 L876.55 1231.44 L923.728 1231.44 L923.728 1155.36 L970.906 1155.36 
  L970.906 1077.9 L1018.08 1077.9 L1018.08 907.431 L1065.26 907.431 L1065.26 837.415 L1112.44 837.415 L1112.44 671.402 L1159.62 671.402 L1159.62 525.625 L1206.8 525.625 
  L1206.8 463.947 L1253.98 463.947 L1253.98 312.665 L1301.15 312.665 L1301.15 254.306 L1348.33 254.306 L1348.33 194.408 L1395.51 194.408 L1395.51 287.088 L1442.69 287.088 
  L1442.69 294.696 L1489.87 294.696 L1489.87 441.202 L1537.04 441.202 L1537.04 540.599 L1584.22 540.599 L1584.22 688.238 L1631.4 688.238 L1631.4 799.453 L1678.58 799.453 
  L1678.58 905.569 L1725.76 905.569 L1725.76 1076.68 L1772.94 1076.68 L1772.94 1152.69 L1820.11 1152.69 L1820.11 1388.71 L1867.29 1388.71 L1867.29 1388.71 L1914.47 1388.71 
  L1914.47 1388.71 L1961.65 1388.71 L1961.65 1388.71 L2008.83 1388.71 L2008.83 1388.71 L2056 1388.71 L2056 1388.71 L2103.18 1388.71 L2103.18 1388.71 L2150.36 1388.71 
  L2150.36 1388.71 L2197.54 1388.71 L2197.54 1388.71 L2244.72 1388.71 L2244.72 1388.71 L2291.9 1388.71 L2291.9 1388.71 L2291.9 1388.71 L2291.9 1388.71 L2244.72 1388.71 
  L2244.72 1388.71 L2197.54 1388.71 L2197.54 1388.71 L2150.36 1388.71 L2150.36 1388.71 L2103.18 1388.71 L2103.18 1388.71 L2056 1388.71 L2056 1388.71 L2008.83 1388.71 
  L2008.83 1388.71 L1961.65 1388.71 L1961.65 1388.71 L1914.47 1388.71 L1914.47 1388.71 L1867.29 1388.71 L1867.29 1388.71 L1820.11 1388.71 L1820.11 1388.71 L1772.94 1388.71 
  L1772.94 1388.71 L1725.76 1388.71 L1725.76 1388.71 L1678.58 1388.71 L1678.58 1388.71 L1631.4 1388.71 L1631.4 1388.71 L1584.22 1388.71 L1584.22 1388.71 L1537.04 1388.71 
  L1537.04 1388.71 L1489.87 1388.71 L1489.87 1388.71 L1442.69 1388.71 L1442.69 1388.71 L1395.51 1388.71 L1395.51 1388.71 L1348.33 1388.71 L1348.33 1388.71 L1301.15 1388.71 
  L1301.15 1388.71 L1253.98 1388.71 L1253.98 1388.71 L1206.8 1388.71 L1206.8 1388.71 L1159.62 1388.71 L1159.62 1388.71 L1112.44 1388.71 L1112.44 1388.71 L1065.26 1388.71 
  L1065.26 1388.71 L1018.08 1388.71 L1018.08 1388.71 L970.906 1388.71 L970.906 1388.71 L923.728 1388.71 L923.728 1388.71 L876.55 1388.71 L876.55 1388.71 L829.371 1388.71 
  L829.371 1388.71 L782.193 1388.71 L782.193 1388.71 L735.015 1388.71 L735.015 1388.71 L687.837 1388.71 L687.837 1388.71 L640.659 1388.71 L640.659 1388.71 L593.48 1388.71 
  L593.48 1388.71 L546.302 1388.71 L546.302 1388.71 L499.124 1388.71 L499.124 1388.71 L451.946 1388.71 L451.946 1388.71 L404.767 1388.71 L404.767 1388.71 L357.589 1388.71 
  L357.589 1388.71 L310.411 1388.71 L310.411 1388.71 L263.233 1388.71  Z
  " fill="#ffff00" fill-rule="evenodd" fill-opacity="1"/>
<polyline clip-path="url(#clip9402)" style="stroke:#e26f46; stroke-width:0; stroke-opacity:1; fill:none" points="
  263.233,1388.71 310.411,1388.71 357.589,1388.71 404.767,1388.71 451.946,1388.71 499.124,1388.71 
  546.302,1388.71 593.48,1388.71 640.659,1388.71 687.837,1388.71 735.015,1388.71 
  782.193,1388.71 829.371,1388.71 876.55,1388.71 876.55,1231.44 923.728,1231.44 923.728,1155.36 970.906,1155.36 
  970.906,1077.9 1018.08,1077.9 1018.08,907.431 1065.26,907.431 1065.26,837.415 1112.44,837.415 1112.44,671.402 1159.62,671.402 1159.62,525.625 1206.8,525.625 
  1206.8,463.947 1253.98,463.947 1253.98,312.665 1301.15,312.665 1301.15,254.306 1348.33,254.306 1348.33,194.408 1395.51,194.408 1395.51,287.088 1442.69,287.088 
  1442.69,294.696 1489.87,294.696 1489.87,441.202 1537.04,441.202 1537.04,540.599 1584.22,540.599 1584.22,688.238 1631.4,688.238 1631.4,799.453 1678.58,799.453 
  1678.58,905.569 1725.76,905.569 1725.76,1076.68 1772.94,1076.68 1772.94,1152.69 1820.11,1152.69 1820.11,1388.71 1867.29,1388.71 1914.47,1388.71 
  1961.65,1388.71 2008.83,1388.71 2056,1388.71 2103.18,1388.71 2150.36,1388.71 
  2197.54,1388.71 2244.72,1388.71 2291.9,1388.71 
  "/>
<path clip-path="url(#clip9402)" d="
M263.233 1388.71 L310.411 1388.71 L310.411 1388.71 L357.589 1388.71 L357.589 1388.71 L404.767 1388.71 L404.767 1388.71 L451.946 1388.71 L451.946 1388.71 L499.124 1388.71 
  L499.124 1388.71 L546.302 1388.71 L546.302 1388.71 L593.48 1388.71 L593.48 1388.71 L640.659 1388.71 L640.659 1388.71 L687.837 1388.71 L687.837 1388.71 L735.015 1388.71 
  L735.015 1388.71 L782.193 1388.71 L782.193 1388.71 L829.371 1388.71 L829.371 1388.71 L876.55 1388.71 L876.55 1388.71 L923.728 1388.71 L923.728 1388.71 L970.906 1388.71 
  L970.906 1388.71 L1018.08 1388.71 L1018.08 1388.71 L1065.26 1388.71 L1065.26 1388.71 L1112.44 1388.71 L1112.44 671.402 L1159.62 671.402 L1159.62 525.625 L1206.8 525.625 
  L1206.8 463.947 L1253.98 463.947 L1253.98 312.665 L1301.15 312.665 L1301.15 254.306 L1348.33 254.306 L1348.33 194.408 L1395.51 194.408 L1395.51 287.088 L1442.69 287.088 
  L1442.69 294.696 L1489.87 294.696 L1489.87 441.202 L1537.04 441.202 L1537.04 540.599 L1584.22 540.599 L1584.22 688.238 L1631.4 688.238 L1631.4 1388.71 L1678.58 1388.71 
  L1678.58 1388.71 L1725.76 1388.71 L1725.76 1388.71 L1772.94 1388.71 L1772.94 1388.71 L1820.11 1388.71 L1820.11 1388.71 L1867.29 1388.71 L1867.29 1388.71 L1914.47 1388.71 
  L1914.47 1388.71 L1961.65 1388.71 L1961.65 1388.71 L2008.83 1388.71 L2008.83 1388.71 L2056 1388.71 L2056 1388.71 L2103.18 1388.71 L2103.18 1388.71 L2150.36 1388.71 
  L2150.36 1388.71 L2197.54 1388.71 L2197.54 1388.71 L2244.72 1388.71 L2244.72 1388.71 L2291.9 1388.71 L2291.9 1388.71 L2291.9 1388.71 L2291.9 1388.71 L2244.72 1388.71 
  L2244.72 1388.71 L2197.54 1388.71 L2197.54 1388.71 L2150.36 1388.71 L2150.36 1388.71 L2103.18 1388.71 L2103.18 1388.71 L2056 1388.71 L2056 1388.71 L2008.83 1388.71 
  L2008.83 1388.71 L1961.65 1388.71 L1961.65 1388.71 L1914.47 1388.71 L1914.47 1388.71 L1867.29 1388.71 L1867.29 1388.71 L1820.11 1388.71 L1820.11 1388.71 L1772.94 1388.71 
  L1772.94 1388.71 L1725.76 1388.71 L1725.76 1388.71 L1678.58 1388.71 L1678.58 1388.71 L1631.4 1388.71 L1631.4 1388.71 L1584.22 1388.71 L1584.22 1388.71 L1537.04 1388.71 
  L1537.04 1388.71 L1489.87 1388.71 L1489.87 1388.71 L1442.69 1388.71 L1442.69 1388.71 L1395.51 1388.71 L1395.51 1388.71 L1348.33 1388.71 L1348.33 1388.71 L1301.15 1388.71 
  L1301.15 1388.71 L1253.98 1388.71 L1253.98 1388.71 L1206.8 1388.71 L1206.8 1388.71 L1159.62 1388.71 L1159.62 1388.71 L1112.44 1388.71 L1112.44 1388.71 L1065.26 1388.71 
  L1065.26 1388.71 L1018.08 1388.71 L1018.08 1388.71 L970.906 1388.71 L970.906 1388.71 L923.728 1388.71 L923.728 1388.71 L876.55 1388.71 L876.55 1388.71 L829.371 1388.71 
  L829.371 1388.71 L782.193 1388.71 L782.193 1388.71 L735.015 1388.71 L735.015 1388.71 L687.837 1388.71 L687.837 1388.71 L640.659 1388.71 L640.659 1388.71 L593.48 1388.71 
  L593.48 1388.71 L546.302 1388.71 L546.302 1388.71 L499.124 1388.71 L499.124 1388.71 L451.946 1388.71 L451.946 1388.71 L404.767 1388.71 L404.767 1388.71 L357.589 1388.71 
  L357.589 1388.71 L310.411 1388.71 L310.411 1388.71 L263.233 1388.71  Z
  " fill="#76ee00" fill-rule="evenodd" fill-opacity="1"/>
<polyline clip-path="url(#clip9402)" style="stroke:#3da44d; stroke-width:0; stroke-opacity:1; fill:none" points="
  263.233,1388.71 310.411,1388.71 357.589,1388.71 404.767,1388.71 451.946,1388.71 499.124,1388.71 
  546.302,1388.71 593.48,1388.71 640.659,1388.71 687.837,1388.71 735.015,1388.71 
  782.193,1388.71 829.371,1388.71 876.55,1388.71 923.728,1388.71 970.906,1388.71 
  1018.08,1388.71 1065.26,1388.71 1112.44,1388.71 1112.44,671.402 1159.62,671.402 1159.62,525.625 1206.8,525.625 
  1206.8,463.947 1253.98,463.947 1253.98,312.665 1301.15,312.665 1301.15,254.306 1348.33,254.306 1348.33,194.408 1395.51,194.408 1395.51,287.088 1442.69,287.088 
  1442.69,294.696 1489.87,294.696 1489.87,441.202 1537.04,441.202 1537.04,540.599 1584.22,540.599 1584.22,688.238 1631.4,688.238 1631.4,1388.71 1678.58,1388.71 
  1725.76,1388.71 1772.94,1388.71 1820.11,1388.71 1867.29,1388.71 1914.47,1388.71 
  1961.65,1388.71 2008.83,1388.71 2056,1388.71 2103.18,1388.71 2150.36,1388.71 
  2197.54,1388.71 2244.72,1388.71 2291.9,1388.71 
  "/>
<polyline clip-path="url(#clip9402)" style="stroke:#000000; stroke-width:2.8; stroke-opacity:1; fill:none" points="
  263.233,1387.34 310.411,1387.34 310.411,1388.07 357.589,1388.07 357.589,1388.55 404.767,1388.55 404.767,1388.47 451.946,1388.47 451.946,1387.74 499.124,1387.74 
  499.124,1387.82 546.302,1387.82 546.302,1386.37 593.48,1386.37 593.48,1381.19 640.659,1381.19 640.659,1369.53 687.837,1369.53 687.837,1357.47 735.015,1357.47 
  735.015,1340.8 782.193,1340.8 782.193,1316.59 829.371,1316.59 829.371,1274.26 876.55,1274.26 876.55,1231.44 923.728,1231.44 923.728,1155.36 970.906,1155.36 
  970.906,1077.9 1018.08,1077.9 1018.08,907.431 1065.26,907.431 1065.26,837.415 1112.44,837.415 1112.44,671.402 1159.62,671.402 1159.62,525.625 1206.8,525.625 
  1206.8,463.947 1253.98,463.947 1253.98,312.665 1301.15,312.665 1301.15,254.306 1348.33,254.306 1348.33,194.408 1395.51,194.408 1395.51,287.088 1442.69,287.088 
  1442.69,294.696 1489.87,294.696 1489.87,441.202 1537.04,441.202 1537.04,540.599 1584.22,540.599 1584.22,688.238 1631.4,688.238 1631.4,799.453 1678.58,799.453 
  1678.58,905.569 1725.76,905.569 1725.76,1076.68 1772.94,1076.68 1772.94,1152.69 1820.11,1152.69 1820.11,1254.27 1867.29,1254.27 1867.29,1294.58 1914.47,1294.58 
  1914.47,1334.64 1961.65,1334.64 1961.65,1362.65 2008.83,1362.65 2008.83,1371.07 2056,1371.07 2056,1381.51 2103.18,1381.51 2103.18,1385.96 2150.36,1385.96 
  2150.36,1384.59 2197.54,1384.59 2197.54,1388.63 2244.72,1388.63 2244.72,1388.15 2291.9,1388.15 2291.9,1388.63 
  "/>
<path clip-path="url(#clip9402)" d="
M1132.93 1388.71 L1603.21 1388.71 L1603.21 158.579 L1132.93 158.579 L1132.93 1388.71  Z
  " fill="#808080" fill-rule="evenodd" fill-opacity="0.5"/>
<polyline clip-path="url(#clip9402)" style="stroke:#000000; stroke-width:0; stroke-opacity:1; fill:none" points="
  1132.93,1388.71 1603.21,1388.71 1603.21,158.579 1132.93,158.579 1132.93,1388.71 
  "/>
<polyline clip-path="url(#clip9402)" style="stroke:#696969; stroke-width:4; stroke-opacity:1; fill:none" points="
  1368.07,1388.71 1368.07,158.579 
  "/>
<polyline clip-path="url(#clip9402)" style="stroke:#000000; stroke-width:4; stroke-opacity:1; fill:none" stroke-dasharray="16, 10" points="
  1345.74,1388.71 1345.74,158.579 
  "/>
<polyline clip-path="url(#clip9402)" style="stroke:#000000; stroke-width:4; stroke-opacity:1; fill:none" stroke-dasharray="2, 4" points="
  1371.92,1388.71 1371.92,158.579 
  "/>
<path clip-path="url(#clip9400)" d="
M1463.01 689.035 L2280.76 689.035 L2280.76 205.195 L1463.01 205.195  Z
  " fill="#ffffff" fill-rule="evenodd" fill-opacity="1"/>
<polyline clip-path="url(#clip9400)" style="stroke:#000000; stroke-width:4; stroke-opacity:1; fill:none" points="
  1463.01,689.035 2280.76,689.035 2280.76,205.195 1463.01,205.195 1463.01,689.035 
  "/>
<path clip-path="url(#clip9400)" d="
M1487.01 289.867 L1631.01 289.867 L1631.01 241.483 L1487.01 241.483 L1487.01 289.867  Z
  " fill="#ff0000" fill-rule="evenodd" fill-opacity="1"/>
<polyline clip-path="url(#clip9400)" style="stroke:#009af9; stroke-width:0; stroke-opacity:1; fill:none" points="
  1487.01,241.483 1631.01,241.483 
  "/>
<g clip-path="url(#clip9400)">
<text style="fill:#000000; fill-opacity:1; font-family:Arial,Helvetica Neue,Helvetica,sans-serif; font-size:48px; text-anchor:start;" transform="rotate(0, 1655.01, 283.175)" x="1655.01" y="283.175">smallest 99.80% interval(s)</text>
</g>
<path clip-path="url(#clip9400)" d="
M1487.01 350.347 L1631.01 350.347 L1631.01 301.963 L1487.01 301.963 L1487.01 350.347  Z
  " fill="#ffff00" fill-rule="evenodd" fill-opacity="1"/>
<polyline clip-path="url(#clip9400)" style="stroke:#e26f46; stroke-width:0; stroke-opacity:1; fill:none" points="
  1487.01,301.963 1631.01,301.963 
  "/>
<g clip-path="url(#clip9400)">
<text style="fill:#000000; fill-opacity:1; font-family:Arial,Helvetica Neue,Helvetica,sans-serif; font-size:48px; text-anchor:start;" transform="rotate(0, 1655.01, 343.655)" x="1655.01" y="343.655">smallest 95.61% interval(s)</text>
</g>
<path clip-path="url(#clip9400)" d="
M1487.01 410.827 L1631.01 410.827 L1631.01 362.443 L1487.01 362.443 L1487.01 410.827  Z
  " fill="#76ee00" fill-rule="evenodd" fill-opacity="1"/>
<polyline clip-path="url(#clip9400)" style="stroke:#3da44d; stroke-width:0; stroke-opacity:1; fill:none" points="
  1487.01,362.443 1631.01,362.443 
  "/>
<g clip-path="url(#clip9400)">
<text style="fill:#000000; fill-opacity:1; font-family:Arial,Helvetica Neue,Helvetica,sans-serif; font-size:48px; text-anchor:start;" transform="rotate(0, 1655.01, 404.135)" x="1655.01" y="404.135">smallest 72.63% interval(s)</text>
</g>
<path clip-path="url(#clip9400)" d="
M1487.01 471.307 L1631.01 471.307 L1631.01 422.923 L1487.01 422.923 L1487.01 471.307  Z
  " fill="#808080" fill-rule="evenodd" fill-opacity="0.5"/>
<polyline clip-path="url(#clip9400)" style="stroke:#000000; stroke-width:0; stroke-opacity:1; fill:none" points="
  1487.01,471.307 1631.01,471.307 1631.01,422.923 1487.01,422.923 1487.01,471.307 
  "/>
<g clip-path="url(#clip9400)">
<text style="fill:#000000; fill-opacity:1; font-family:Arial,Helvetica Neue,Helvetica,sans-serif; font-size:48px; text-anchor:start;" transform="rotate(0, 1655.01, 464.615)" x="1655.01" y="464.615">std. dev.</text>
</g>
<polyline clip-path="url(#clip9400)" style="stroke:#696969; stroke-width:4; stroke-opacity:1; fill:none" points="
  1487.01,507.595 1631.01,507.595 
  "/>
<g clip-path="url(#clip9400)">
<text style="fill:#000000; fill-opacity:1; font-family:Arial,Helvetica Neue,Helvetica,sans-serif; font-size:48px; text-anchor:start;" transform="rotate(0, 1655.01, 525.095)" x="1655.01" y="525.095">mean</text>
</g>
<polyline clip-path="url(#clip9400)" style="stroke:#000000; stroke-width:4; stroke-opacity:1; fill:none" stroke-dasharray="16, 10" points="
  1487.01,568.075 1631.01,568.075 
  "/>
<g clip-path="url(#clip9400)">
<text style="fill:#000000; fill-opacity:1; font-family:Arial,Helvetica Neue,Helvetica,sans-serif; font-size:48px; text-anchor:start;" transform="rotate(0, 1655.01, 585.575)" x="1655.01" y="585.575">global mode</text>
</g>
<polyline clip-path="url(#clip9400)" style="stroke:#000000; stroke-width:4; stroke-opacity:1; fill:none" stroke-dasharray="2, 4" points="
  1487.01,628.555 1631.01,628.555 
  "/>
<g clip-path="url(#clip9400)">
<text style="fill:#000000; fill-opacity:1; font-family:Arial,Helvetica Neue,Helvetica,sans-serif; font-size:48px; text-anchor:start;" transform="rotate(0, 1655.01, 646.055)" x="1655.01" y="646.055">local mode</text>
</g>
</svg>
