<?xml version="1.0" encoding="utf-8"?>
<svg xmlns="http://www.w3.org/2000/svg" xmlns:xlink="http://www.w3.org/1999/xlink" width="600" height="400" viewBox="0 0 2400 1600">
<defs>
  <clipPath id="clip600">
    <rect x="0" y="0" width="2400" height="1600"/>
  </clipPath>
</defs>
<path clip-path="url(#clip600)" d="
M0 1600 L2400 1600 L2400 0 L0 0  Z
  " fill="#ffffff" fill-rule="evenodd" fill-opacity="1"/>
<defs>
  <clipPath id="clip601">
    <rect x="480" y="0" width="1681" height="1600"/>
  </clipPath>
</defs>
<path clip-path="url(#clip600)" d="
M172.015 1486.45 L2352.76 1486.45 L2352.76 123.472 L172.015 123.472  Z
  " fill="#ffffff" fill-rule="evenodd" fill-opacity="1"/>
<defs>
  <clipPath id="clip602">
    <rect x="172" y="123" width="2182" height="1364"/>
  </clipPath>
</defs>
<polyline clip-path="url(#clip602)" style="stroke:#000000; stroke-width:2; stroke-opacity:0.1; fill:none" points="
  233.734,1486.45 233.734,123.472 
  "/>
<polyline clip-path="url(#clip602)" style="stroke:#000000; stroke-width:2; stroke-opacity:0.1; fill:none" points="
  576.618,1486.45 576.618,123.472 
  "/>
<polyline clip-path="url(#clip602)" style="stroke:#000000; stroke-width:2; stroke-opacity:0.1; fill:none" points="
  919.502,1486.45 919.502,123.472 
  "/>
<polyline clip-path="url(#clip602)" style="stroke:#000000; stroke-width:2; stroke-opacity:0.1; fill:none" points="
  1262.39,1486.45 1262.39,123.472 
  "/>
<polyline clip-path="url(#clip602)" style="stroke:#000000; stroke-width:2; stroke-opacity:0.1; fill:none" points="
  1605.27,1486.45 1605.27,123.472 
  "/>
<polyline clip-path="url(#clip602)" style="stroke:#000000; stroke-width:2; stroke-opacity:0.1; fill:none" points="
  1948.15,1486.45 1948.15,123.472 
  "/>
<polyline clip-path="url(#clip602)" style="stroke:#000000; stroke-width:2; stroke-opacity:0.1; fill:none" points="
  2291.04,1486.45 2291.04,123.472 
  "/>
<polyline clip-path="url(#clip600)" style="stroke:#000000; stroke-width:4; stroke-opacity:1; fill:none" points="
  172.015,1486.45 2352.76,1486.45 
  "/>
<polyline clip-path="url(#clip600)" style="stroke:#000000; stroke-width:4; stroke-opacity:1; fill:none" points="
  233.734,1486.45 233.734,1470.09 
  "/>
<polyline clip-path="url(#clip600)" style="stroke:#000000; stroke-width:4; stroke-opacity:1; fill:none" points="
  576.618,1486.45 576.618,1470.09 
  "/>
<polyline clip-path="url(#clip600)" style="stroke:#000000; stroke-width:4; stroke-opacity:1; fill:none" points="
  919.502,1486.45 919.502,1470.09 
  "/>
<polyline clip-path="url(#clip600)" style="stroke:#000000; stroke-width:4; stroke-opacity:1; fill:none" points="
  1262.39,1486.45 1262.39,1470.09 
  "/>
<polyline clip-path="url(#clip600)" style="stroke:#000000; stroke-width:4; stroke-opacity:1; fill:none" points="
  1605.27,1486.45 1605.27,1470.09 
  "/>
<polyline clip-path="url(#clip600)" style="stroke:#000000; stroke-width:4; stroke-opacity:1; fill:none" points="
  1948.15,1486.45 1948.15,1470.09 
  "/>
<polyline clip-path="url(#clip600)" style="stroke:#000000; stroke-width:4; stroke-opacity:1; fill:none" points="
  2291.04,1486.45 2291.04,1470.09 
  "/>
<path clip-path="url(#clip600)" d="M 0 0 M203.676 1530.29 L233.352 1530.29 L233.352 1534.23 L203.676 1534.23 L203.676 1530.29 Z" fill="#000000" fill-rule="evenodd" fill-opacity="1" /><path clip-path="url(#clip600)" d="M 0 0 M247.472 1543.18 L263.792 1543.18 L263.792 1547.12 L241.847 1547.12 L241.847 1543.18 Q244.509 1540.43 249.093 1535.8 Q253.699 1531.15 254.88 1529.81 Q257.125 1527.28 258.005 1525.55 Q258.907 1523.79 258.907 1522.1 Q258.907 1519.34 256.963 1517.61 Q255.042 1515.87 251.94 1515.87 Q249.741 1515.87 247.287 1516.63 Q244.857 1517.4 242.079 1518.95 L242.079 1514.23 Q244.903 1513.09 247.357 1512.51 Q249.81 1511.93 251.847 1511.93 Q257.218 1511.93 260.412 1514.62 Q263.606 1517.31 263.606 1521.8 Q263.606 1523.93 262.796 1525.85 Q262.009 1527.74 259.903 1530.34 Q259.324 1531.01 256.222 1534.23 Q253.12 1537.42 247.472 1543.18 Z" fill="#000000" fill-rule="evenodd" fill-opacity="1" /><path clip-path="url(#clip600)" d="M 0 0 M546.375 1530.29 L576.051 1530.29 L576.051 1534.23 L546.375 1534.23 L546.375 1530.29 Z" fill="#000000" fill-rule="evenodd" fill-opacity="1" /><path clip-path="url(#clip600)" d="M 0 0 M586.953 1543.18 L594.592 1543.18 L594.592 1516.82 L586.282 1518.49 L586.282 1514.23 L594.546 1512.56 L599.222 1512.56 L599.222 1543.18 L606.861 1543.18 L606.861 1547.12 L586.953 1547.12 L586.953 1543.18 Z" fill="#000000" fill-rule="evenodd" fill-opacity="1" /><path clip-path="url(#clip600)" d="M 0 0 M919.502 1515.64 Q915.89 1515.64 914.062 1519.2 Q912.256 1522.75 912.256 1529.87 Q912.256 1536.98 914.062 1540.55 Q915.89 1544.09 919.502 1544.09 Q923.136 1544.09 924.941 1540.55 Q926.77 1536.98 926.77 1529.87 Q926.77 1522.75 924.941 1519.2 Q923.136 1515.64 919.502 1515.64 M919.502 1511.93 Q925.312 1511.93 928.367 1516.54 Q931.446 1521.12 931.446 1529.87 Q931.446 1538.6 928.367 1543.21 Q925.312 1547.79 919.502 1547.79 Q913.691 1547.79 910.613 1543.21 Q907.557 1538.6 907.557 1529.87 Q907.557 1521.12 910.613 1516.54 Q913.691 1511.93 919.502 1511.93 Z" fill="#000000" fill-rule="evenodd" fill-opacity="1" /><path clip-path="url(#clip600)" d="M 0 0 M1252.77 1543.18 L1260.41 1543.18 L1260.41 1516.82 L1252.1 1518.49 L1252.1 1514.23 L1260.36 1512.56 L1265.04 1512.56 L1265.04 1543.18 L1272.67 1543.18 L1272.67 1547.12 L1252.77 1547.12 L1252.77 1543.18 Z" fill="#000000" fill-rule="evenodd" fill-opacity="1" /><path clip-path="url(#clip600)" d="M 0 0 M1599.92 1543.18 L1616.24 1543.18 L1616.24 1547.12 L1594.3 1547.12 L1594.3 1543.18 Q1596.96 1540.43 1601.54 1535.8 Q1606.15 1531.15 1607.33 1529.81 Q1609.57 1527.28 1610.45 1525.55 Q1611.36 1523.79 1611.36 1522.1 Q1611.36 1519.34 1609.41 1517.61 Q1607.49 1515.87 1604.39 1515.87 Q1602.19 1515.87 1599.74 1516.63 Q1597.31 1517.4 1594.53 1518.95 L1594.53 1514.23 Q1597.35 1513.09 1599.81 1512.51 Q1602.26 1511.93 1604.3 1511.93 Q1609.67 1511.93 1612.86 1514.62 Q1616.06 1517.31 1616.06 1521.8 Q1616.06 1523.93 1615.25 1525.85 Q1614.46 1527.74 1612.35 1530.34 Q1611.77 1531.01 1608.67 1534.23 Q1605.57 1537.42 1599.92 1543.18 Z" fill="#000000" fill-rule="evenodd" fill-opacity="1" /><path clip-path="url(#clip600)" d="M 0 0 M1952.4 1528.49 Q1955.76 1529.2 1957.63 1531.47 Q1959.53 1533.74 1959.53 1537.07 Q1959.53 1542.19 1956.01 1544.99 Q1952.49 1547.79 1946.01 1547.79 Q1943.84 1547.79 1941.52 1547.35 Q1939.23 1546.93 1936.78 1546.08 L1936.78 1541.56 Q1938.72 1542.7 1941.03 1543.28 Q1943.35 1543.86 1945.87 1543.86 Q1950.27 1543.86 1952.56 1542.12 Q1954.88 1540.38 1954.88 1537.07 Q1954.88 1534.02 1952.72 1532.31 Q1950.6 1530.57 1946.78 1530.57 L1942.75 1530.57 L1942.75 1526.73 L1946.96 1526.73 Q1950.41 1526.73 1952.24 1525.36 Q1954.07 1523.97 1954.07 1521.38 Q1954.07 1518.72 1952.17 1517.31 Q1950.29 1515.87 1946.78 1515.87 Q1944.85 1515.87 1942.66 1516.29 Q1940.46 1516.7 1937.82 1517.58 L1937.82 1513.42 Q1940.48 1512.68 1942.79 1512.31 Q1945.13 1511.93 1947.19 1511.93 Q1952.52 1511.93 1955.62 1514.37 Q1958.72 1516.77 1958.72 1520.89 Q1958.72 1523.76 1957.08 1525.75 Q1955.43 1527.72 1952.4 1528.49 Z" fill="#000000" fill-rule="evenodd" fill-opacity="1" /><path clip-path="url(#clip600)" d="M 0 0 M2294.05 1516.63 L2282.24 1535.08 L2294.05 1535.08 L2294.05 1516.63 M2292.82 1512.56 L2298.7 1512.56 L2298.7 1535.08 L2303.63 1535.08 L2303.63 1538.97 L2298.7 1538.97 L2298.7 1547.12 L2294.05 1547.12 L2294.05 1538.97 L2278.44 1538.97 L2278.44 1534.46 L2292.82 1512.56 Z" fill="#000000" fill-rule="evenodd" fill-opacity="1" /><polyline clip-path="url(#clip602)" style="stroke:#000000; stroke-width:2; stroke-opacity:0.1; fill:none" points="
  172.015,1447.87 2352.76,1447.87 
  "/>
<polyline clip-path="url(#clip602)" style="stroke:#000000; stroke-width:2; stroke-opacity:0.1; fill:none" points="
  172.015,1162.13 2352.76,1162.13 
  "/>
<polyline clip-path="url(#clip602)" style="stroke:#000000; stroke-width:2; stroke-opacity:0.1; fill:none" points="
  172.015,876.395 2352.76,876.395 
  "/>
<polyline clip-path="url(#clip602)" style="stroke:#000000; stroke-width:2; stroke-opacity:0.1; fill:none" points="
  172.015,590.656 2352.76,590.656 
  "/>
<polyline clip-path="url(#clip602)" style="stroke:#000000; stroke-width:2; stroke-opacity:0.1; fill:none" points="
  172.015,304.916 2352.76,304.916 
  "/>
<polyline clip-path="url(#clip600)" style="stroke:#000000; stroke-width:4; stroke-opacity:1; fill:none" points="
  172.015,1486.45 172.015,123.472 
  "/>
<polyline clip-path="url(#clip600)" style="stroke:#000000; stroke-width:4; stroke-opacity:1; fill:none" points="
  172.015,1447.87 198.184,1447.87 
  "/>
<polyline clip-path="url(#clip600)" style="stroke:#000000; stroke-width:4; stroke-opacity:1; fill:none" points="
  172.015,1162.13 198.184,1162.13 
  "/>
<polyline clip-path="url(#clip600)" style="stroke:#000000; stroke-width:4; stroke-opacity:1; fill:none" points="
  172.015,876.395 198.184,876.395 
  "/>
<polyline clip-path="url(#clip600)" style="stroke:#000000; stroke-width:4; stroke-opacity:1; fill:none" points="
  172.015,590.656 198.184,590.656 
  "/>
<polyline clip-path="url(#clip600)" style="stroke:#000000; stroke-width:4; stroke-opacity:1; fill:none" points="
  172.015,304.916 198.184,304.916 
  "/>
<path clip-path="url(#clip600)" d="M 0 0 M124.07 1433.67 Q120.459 1433.67 118.631 1437.24 Q116.825 1440.78 116.825 1447.91 Q116.825 1455.01 118.631 1458.58 Q120.459 1462.12 124.07 1462.12 Q127.705 1462.12 129.51 1458.58 Q131.339 1455.01 131.339 1447.91 Q131.339 1440.78 129.51 1437.24 Q127.705 1433.67 124.07 1433.67 M124.07 1429.97 Q129.881 1429.97 132.936 1434.57 Q136.015 1439.16 136.015 1447.91 Q136.015 1456.63 132.936 1461.24 Q129.881 1465.82 124.07 1465.82 Q118.26 1465.82 115.182 1461.24 Q112.126 1456.63 112.126 1447.91 Q112.126 1439.16 115.182 1434.57 Q118.26 1429.97 124.07 1429.97 Z" fill="#000000" fill-rule="evenodd" fill-opacity="1" /><path clip-path="url(#clip600)" d="M 0 0 M57.7745 1175.48 L74.0939 1175.48 L74.0939 1179.41 L52.1495 1179.41 L52.1495 1175.48 Q54.8115 1172.72 59.3949 1168.09 Q64.0013 1163.44 65.1819 1162.1 Q67.4272 1159.58 68.3068 1157.84 Q69.2096 1156.08 69.2096 1154.39 Q69.2096 1151.64 67.2652 1149.9 Q65.3439 1148.16 62.2421 1148.16 Q60.043 1148.16 57.5893 1148.93 Q55.1588 1149.69 52.381 1151.24 L52.381 1146.52 Q55.2051 1145.39 57.6588 1144.81 Q60.1124 1144.23 62.1495 1144.23 Q67.5198 1144.23 70.7142 1146.91 Q73.9087 1149.6 73.9087 1154.09 Q73.9087 1156.22 73.0985 1158.14 Q72.3115 1160.04 70.205 1162.63 Q69.6263 1163.3 66.5245 1166.52 Q63.4226 1169.71 57.7745 1175.48 Z" fill="#000000" fill-rule="evenodd" fill-opacity="1" /><path clip-path="url(#clip600)" d="M 0 0 M93.9086 1147.93 Q90.2975 1147.93 88.4688 1151.5 Q86.6632 1155.04 86.6632 1162.17 Q86.6632 1169.28 88.4688 1172.84 Q90.2975 1176.38 93.9086 1176.38 Q97.5428 1176.38 99.3483 1172.84 Q101.177 1169.28 101.177 1162.17 Q101.177 1155.04 99.3483 1151.5 Q97.5428 1147.93 93.9086 1147.93 M93.9086 1144.23 Q99.7187 1144.23 102.774 1148.84 Q105.853 1153.42 105.853 1162.17 Q105.853 1170.9 102.774 1175.5 Q99.7187 1180.09 93.9086 1180.09 Q88.0984 1180.09 85.0197 1175.5 Q81.9642 1170.9 81.9642 1162.17 Q81.9642 1153.42 85.0197 1148.84 Q88.0984 1144.23 93.9086 1144.23 Z" fill="#000000" fill-rule="evenodd" fill-opacity="1" /><path clip-path="url(#clip600)" d="M 0 0 M124.07 1147.93 Q120.459 1147.93 118.631 1151.5 Q116.825 1155.04 116.825 1162.17 Q116.825 1169.28 118.631 1172.84 Q120.459 1176.38 124.07 1176.38 Q127.705 1176.38 129.51 1172.84 Q131.339 1169.28 131.339 1162.17 Q131.339 1155.04 129.51 1151.5 Q127.705 1147.93 124.07 1147.93 M124.07 1144.23 Q129.881 1144.23 132.936 1148.84 Q136.015 1153.42 136.015 1162.17 Q136.015 1170.9 132.936 1175.5 Q129.881 1180.09 124.07 1180.09 Q118.26 1180.09 115.182 1175.5 Q112.126 1170.9 112.126 1162.17 Q112.126 1153.42 115.182 1148.84 Q118.26 1144.23 124.07 1144.23 Z" fill="#000000" fill-rule="evenodd" fill-opacity="1" /><path clip-path="url(#clip600)" d="M 0 0 M66.5939 863.189 L54.7884 881.638 L66.5939 881.638 L66.5939 863.189 M65.367 859.115 L71.2466 859.115 L71.2466 881.638 L76.1772 881.638 L76.1772 885.527 L71.2466 885.527 L71.2466 893.675 L66.5939 893.675 L66.5939 885.527 L50.9921 885.527 L50.9921 881.013 L65.367 859.115 Z" fill="#000000" fill-rule="evenodd" fill-opacity="1" /><path clip-path="url(#clip600)" d="M 0 0 M93.9086 862.193 Q90.2975 862.193 88.4688 865.758 Q86.6632 869.3 86.6632 876.43 Q86.6632 883.536 88.4688 887.101 Q90.2975 890.642 93.9086 890.642 Q97.5428 890.642 99.3483 887.101 Q101.177 883.536 101.177 876.43 Q101.177 869.3 99.3483 865.758 Q97.5428 862.193 93.9086 862.193 M93.9086 858.49 Q99.7187 858.49 102.774 863.096 Q105.853 867.68 105.853 876.43 Q105.853 885.156 102.774 889.763 Q99.7187 894.346 93.9086 894.346 Q88.0984 894.346 85.0197 889.763 Q81.9642 885.156 81.9642 876.43 Q81.9642 867.68 85.0197 863.096 Q88.0984 858.49 93.9086 858.49 Z" fill="#000000" fill-rule="evenodd" fill-opacity="1" /><path clip-path="url(#clip600)" d="M 0 0 M124.07 862.193 Q120.459 862.193 118.631 865.758 Q116.825 869.3 116.825 876.43 Q116.825 883.536 118.631 887.101 Q120.459 890.642 124.07 890.642 Q127.705 890.642 129.51 887.101 Q131.339 883.536 131.339 876.43 Q131.339 869.3 129.51 865.758 Q127.705 862.193 124.07 862.193 M124.07 858.49 Q129.881 858.49 132.936 863.096 Q136.015 867.68 136.015 876.43 Q136.015 885.156 132.936 889.763 Q129.881 894.346 124.07 894.346 Q118.26 894.346 115.182 889.763 Q112.126 885.156 112.126 876.43 Q112.126 867.68 115.182 863.096 Q118.26 858.49 124.07 858.49 Z" fill="#000000" fill-rule="evenodd" fill-opacity="1" /><path clip-path="url(#clip600)" d="M 0 0 M64.3254 588.792 Q61.1773 588.792 59.3254 590.945 Q57.4967 593.098 57.4967 596.848 Q57.4967 600.575 59.3254 602.75 Q61.1773 604.903 64.3254 604.903 Q67.4735 604.903 69.3022 602.75 Q71.1541 600.575 71.1541 596.848 Q71.1541 593.098 69.3022 590.945 Q67.4735 588.792 64.3254 588.792 M73.6077 574.14 L73.6077 578.399 Q71.8485 577.565 70.0429 577.126 Q68.2606 576.686 66.5013 576.686 Q61.8717 576.686 59.418 579.811 Q56.9875 582.936 56.6402 589.255 Q58.006 587.241 60.0662 586.176 Q62.1263 585.089 64.6032 585.089 Q69.8115 585.089 72.8207 588.26 Q75.8531 591.408 75.8531 596.848 Q75.8531 602.172 72.705 605.389 Q69.5568 608.607 64.3254 608.607 Q58.33 608.607 55.1588 604.024 Q51.9875 599.417 51.9875 590.69 Q51.9875 582.496 55.8764 577.635 Q59.7652 572.751 66.3161 572.751 Q68.0754 572.751 69.8578 573.098 Q71.6633 573.445 73.6077 574.14 Z" fill="#000000" fill-rule="evenodd" fill-opacity="1" /><path clip-path="url(#clip600)" d="M 0 0 M93.9086 576.454 Q90.2975 576.454 88.4688 580.019 Q86.6632 583.561 86.6632 590.69 Q86.6632 597.797 88.4688 601.362 Q90.2975 604.903 93.9086 604.903 Q97.5428 604.903 99.3483 601.362 Q101.177 597.797 101.177 590.69 Q101.177 583.561 99.3483 580.019 Q97.5428 576.454 93.9086 576.454 M93.9086 572.751 Q99.7187 572.751 102.774 577.357 Q105.853 581.94 105.853 590.69 Q105.853 599.417 102.774 604.024 Q99.7187 608.607 93.9086 608.607 Q88.0984 608.607 85.0197 604.024 Q81.9642 599.417 81.9642 590.69 Q81.9642 581.94 85.0197 577.357 Q88.0984 572.751 93.9086 572.751 Z" fill="#000000" fill-rule="evenodd" fill-opacity="1" /><path clip-path="url(#clip600)" d="M 0 0 M124.07 576.454 Q120.459 576.454 118.631 580.019 Q116.825 583.561 116.825 590.69 Q116.825 597.797 118.631 601.362 Q120.459 604.903 124.07 604.903 Q127.705 604.903 129.51 601.362 Q131.339 597.797 131.339 590.69 Q131.339 583.561 129.51 580.019 Q127.705 576.454 124.07 576.454 M124.07 572.751 Q129.881 572.751 132.936 577.357 Q136.015 581.94 136.015 590.69 Q136.015 599.417 132.936 604.024 Q129.881 608.607 124.07 608.607 Q118.26 608.607 115.182 604.024 Q112.126 599.417 112.126 590.69 Q112.126 581.94 115.182 577.357 Q118.26 572.751 124.07 572.751 Z" fill="#000000" fill-rule="evenodd" fill-opacity="1" /><path clip-path="url(#clip600)" d="M 0 0 M63.7467 305.785 Q60.4134 305.785 58.4921 307.567 Q56.5939 309.349 56.5939 312.474 Q56.5939 315.599 58.4921 317.382 Q60.4134 319.164 63.7467 319.164 Q67.08 319.164 69.0013 317.382 Q70.9226 315.576 70.9226 312.474 Q70.9226 309.349 69.0013 307.567 Q67.1032 305.785 63.7467 305.785 M59.0708 303.794 Q56.0615 303.053 54.3717 300.993 Q52.7051 298.933 52.7051 295.97 Q52.7051 291.826 55.6449 289.419 Q58.6078 287.011 63.7467 287.011 Q68.9087 287.011 71.8485 289.419 Q74.7883 291.826 74.7883 295.97 Q74.7883 298.933 73.0985 300.993 Q71.4318 303.053 68.4457 303.794 Q71.8253 304.581 73.7003 306.872 Q75.5985 309.164 75.5985 312.474 Q75.5985 317.497 72.5198 320.183 Q69.4642 322.868 63.7467 322.868 Q58.0291 322.868 54.9504 320.183 Q51.8949 317.497 51.8949 312.474 Q51.8949 309.164 53.793 306.872 Q55.6912 304.581 59.0708 303.794 M57.3578 296.41 Q57.3578 299.095 59.0245 300.599 Q60.7143 302.104 63.7467 302.104 Q66.7559 302.104 68.4457 300.599 Q70.1587 299.095 70.1587 296.41 Q70.1587 293.724 68.4457 292.22 Q66.7559 290.715 63.7467 290.715 Q60.7143 290.715 59.0245 292.22 Q57.3578 293.724 57.3578 296.41 Z" fill="#000000" fill-rule="evenodd" fill-opacity="1" /><path clip-path="url(#clip600)" d="M 0 0 M93.9086 290.715 Q90.2975 290.715 88.4688 294.28 Q86.6632 297.822 86.6632 304.951 Q86.6632 312.058 88.4688 315.622 Q90.2975 319.164 93.9086 319.164 Q97.5428 319.164 99.3483 315.622 Q101.177 312.058 101.177 304.951 Q101.177 297.822 99.3483 294.28 Q97.5428 290.715 93.9086 290.715 M93.9086 287.011 Q99.7187 287.011 102.774 291.618 Q105.853 296.201 105.853 304.951 Q105.853 313.678 102.774 318.284 Q99.7187 322.868 93.9086 322.868 Q88.0984 322.868 85.0197 318.284 Q81.9642 313.678 81.9642 304.951 Q81.9642 296.201 85.0197 291.618 Q88.0984 287.011 93.9086 287.011 Z" fill="#000000" fill-rule="evenodd" fill-opacity="1" /><path clip-path="url(#clip600)" d="M 0 0 M124.07 290.715 Q120.459 290.715 118.631 294.28 Q116.825 297.822 116.825 304.951 Q116.825 312.058 118.631 315.622 Q120.459 319.164 124.07 319.164 Q127.705 319.164 129.51 315.622 Q131.339 312.058 131.339 304.951 Q131.339 297.822 129.51 294.28 Q127.705 290.715 124.07 290.715 M124.07 287.011 Q129.881 287.011 132.936 291.618 Q136.015 296.201 136.015 304.951 Q136.015 313.678 132.936 318.284 Q129.881 322.868 124.07 322.868 Q118.26 322.868 115.182 318.284 Q112.126 313.678 112.126 304.951 Q112.126 296.201 115.182 291.618 Q118.26 287.011 124.07 287.011 Z" fill="#000000" fill-rule="evenodd" fill-opacity="1" /><path clip-path="url(#clip600)" d="M 0 0 M1179.36 18.8205 L1179.36 65.8515 L1189.25 65.8515 Q1201.76 65.8515 1207.56 60.1802 Q1213.39 54.509 1213.39 42.2752 Q1213.39 30.1225 1207.56 24.4918 Q1201.76 18.8205 1189.25 18.8205 L1179.36 18.8205 M1171.18 12.096 L1187.99 12.096 Q1205.57 12.096 1213.79 19.4281 Q1222.02 26.7198 1222.02 42.2752 Q1222.02 57.9117 1213.75 65.2439 Q1205.49 72.576 1187.99 72.576 L1171.18 72.576 L1171.18 12.096 Z" fill="#000000" fill-rule="evenodd" fill-opacity="1" /><path clip-path="url(#clip600)" d="M 0 0 M1255.36 49.7694 Q1246.32 49.7694 1242.84 51.8354 Q1239.36 53.9013 1239.36 58.8839 Q1239.36 62.8538 1241.95 65.2034 Q1244.58 67.5124 1249.08 67.5124 Q1255.28 67.5124 1259 63.1374 Q1262.77 58.7219 1262.77 51.4303 L1262.77 49.7694 L1255.36 49.7694 M1270.22 46.6907 L1270.22 72.576 L1262.77 72.576 L1262.77 65.6895 Q1260.22 69.8214 1256.41 71.8063 Q1252.6 73.7508 1247.09 73.7508 Q1240.13 73.7508 1235.99 69.8619 Q1231.9 65.9325 1231.9 59.3701 Q1231.9 51.7138 1237.01 47.825 Q1242.15 43.9361 1252.32 43.9361 L1262.77 43.9361 L1262.77 43.2069 Q1262.77 38.0623 1259.37 35.2672 Q1256.01 32.4315 1249.89 32.4315 Q1246 32.4315 1242.31 33.3632 Q1238.63 34.295 1235.22 36.1584 L1235.22 29.2718 Q1239.32 27.692 1243.16 26.9223 Q1247.01 26.1121 1250.66 26.1121 Q1260.5 26.1121 1265.36 31.2163 Q1270.22 36.3204 1270.22 46.6907 Z" fill="#000000" fill-rule="evenodd" fill-opacity="1" /><path clip-path="url(#clip600)" d="M 0 0 M1292.95 14.324 L1292.95 27.2059 L1308.3 27.2059 L1308.3 32.9987 L1292.95 32.9987 L1292.95 57.6282 Q1292.95 63.1779 1294.45 64.7578 Q1295.99 66.3376 1300.65 66.3376 L1308.3 66.3376 L1308.3 72.576 L1300.65 72.576 Q1292.02 72.576 1288.74 69.3758 Q1285.46 66.1351 1285.46 57.6282 L1285.46 32.9987 L1279.99 32.9987 L1279.99 27.2059 L1285.46 27.2059 L1285.46 14.324 L1292.95 14.324 Z" fill="#000000" fill-rule="evenodd" fill-opacity="1" /><path clip-path="url(#clip600)" d="M 0 0 M1338.72 49.7694 Q1329.69 49.7694 1326.21 51.8354 Q1322.72 53.9013 1322.72 58.8839 Q1322.72 62.8538 1325.32 65.2034 Q1327.95 67.5124 1332.45 67.5124 Q1338.64 67.5124 1342.37 63.1374 Q1346.14 58.7219 1346.14 51.4303 L1346.14 49.7694 L1338.72 49.7694 M1353.59 46.6907 L1353.59 72.576 L1346.14 72.576 L1346.14 65.6895 Q1343.59 69.8214 1339.78 71.8063 Q1335.97 73.7508 1330.46 73.7508 Q1323.49 73.7508 1319.36 69.8619 Q1315.27 65.9325 1315.27 59.3701 Q1315.27 51.7138 1320.37 47.825 Q1325.52 43.9361 1335.69 43.9361 L1346.14 43.9361 L1346.14 43.2069 Q1346.14 38.0623 1342.74 35.2672 Q1339.37 32.4315 1333.26 32.4315 Q1329.37 32.4315 1325.68 33.3632 Q1321.99 34.295 1318.59 36.1584 L1318.59 29.2718 Q1322.68 27.692 1326.53 26.9223 Q1330.38 26.1121 1334.03 26.1121 Q1343.87 26.1121 1348.73 31.2163 Q1353.59 36.3204 1353.59 46.6907 Z" fill="#000000" fill-rule="evenodd" fill-opacity="1" /><polyline clip-path="url(#clip602)" style="stroke:#009af9; stroke-width:4; stroke-opacity:1; fill:none" points="
  233.734,1447.87 233.734,1347.86 268.022,1347.86 268.022,1290.72 302.311,1290.72 302.311,1319.29 336.599,1319.29 336.599,1147.85 370.887,1147.85 370.887,1119.27 
  405.176,1119.27 405.176,933.543 439.464,933.543 439.464,1047.84 473.753,1047.84 473.753,919.256 508.041,919.256 508.041,990.69 542.329,990.69 542.329,847.821 
  576.618,847.821 576.618,819.247 610.906,819.247 610.906,904.969 645.194,904.969 645.194,1019.26 679.483,1019.26 679.483,933.543 713.771,933.543 713.771,1104.99 
  748.06,1104.99 748.06,1204.99 782.348,1204.99 782.348,1276.43 816.636,1276.43 816.636,1247.86 850.925,1247.86 850.925,1333.58 885.213,1333.58 885.213,1362.15 
  919.502,1362.15 919.502,1347.86 953.79,1347.86 953.79,1376.44 988.078,1376.44 988.078,1390.73 1022.37,1390.73 1022.37,1419.3 1056.66,1419.3 1056.66,1447.87 
  1090.94,1447.87 1090.94,1419.3 1125.23,1419.3 1125.23,1447.87 1159.52,1447.87 1159.52,1433.59 1193.81,1433.59 1193.81,1405.01 1228.1,1405.01 1228.1,1333.58 
  1262.39,1333.58 1262.39,1276.43 1296.67,1276.43 1296.67,1219.28 1330.96,1219.28 1330.96,919.256 1365.25,919.256 1365.25,1033.55 1399.54,1033.55 1399.54,862.108 
  1433.83,862.108 1433.83,762.099 1468.12,762.099 1468.12,647.803 1502.4,647.803 1502.4,390.638 1536.69,390.638 1536.69,447.786 1570.98,447.786 1570.98,304.916 
  1605.27,304.916 1605.27,419.212 1639.56,419.212 1639.56,162.047 1673.85,162.047 1673.85,576.369 1708.13,576.369 1708.13,462.073 1742.42,462.073 1742.42,633.517 
  1776.71,633.517 1776.71,576.369 1811,576.369 1811,919.256 1845.29,919.256 1845.29,1019.26 1879.58,1019.26 1879.58,1247.86 1913.86,1247.86 1913.86,1276.43 
  1948.15,1276.43 1948.15,1333.58 1982.44,1333.58 2016.73,1333.58 2016.73,1419.3 2051.02,1419.3 2051.02,1447.87 2085.31,1447.87 
  2119.59,1447.87 2153.88,1447.87 2153.88,1433.59 2188.17,1433.59 2188.17,1447.87 2222.46,1447.87 2256.75,1447.87 
  2291.04,1447.87 
  "/>
<path clip-path="url(#clip600)" d="
M1933.52 289.865 L2280.06 289.865 L2280.06 168.905 L1933.52 168.905  Z
  " fill="#ffffff" fill-rule="evenodd" fill-opacity="1"/>
<polyline clip-path="url(#clip600)" style="stroke:#000000; stroke-width:4; stroke-opacity:1; fill:none" points="
  1933.52,289.865 2280.06,289.865 2280.06,168.905 1933.52,168.905 1933.52,289.865 
  "/>
<polyline clip-path="url(#clip600)" style="stroke:#009af9; stroke-width:4; stroke-opacity:1; fill:none" points="
  1957.75,229.385 2103.14,229.385 
  "/>
<path clip-path="url(#clip600)" d="M 0 0 M2132.04 215.947 L2132.04 242.822 L2137.69 242.822 Q2144.84 242.822 2148.15 239.581 Q2151.49 236.341 2151.49 229.35 Q2151.49 222.406 2148.15 219.188 Q2144.84 215.947 2137.69 215.947 L2132.04 215.947 M2127.37 212.105 L2136.97 212.105 Q2147.02 212.105 2151.72 216.294 Q2156.42 220.461 2156.42 229.35 Q2156.42 238.285 2151.7 242.475 Q2146.97 246.665 2136.97 246.665 L2127.37 246.665 L2127.37 212.105 Z" fill="#000000" fill-rule="evenodd" fill-opacity="1" /><path clip-path="url(#clip600)" d="M 0 0 M2175.47 233.632 Q2170.31 233.632 2168.32 234.813 Q2166.33 235.993 2166.33 238.841 Q2166.33 241.109 2167.81 242.452 Q2169.31 243.771 2171.88 243.771 Q2175.42 243.771 2177.55 241.271 Q2179.71 238.748 2179.71 234.581 L2179.71 233.632 L2175.47 233.632 M2183.96 231.873 L2183.96 246.665 L2179.71 246.665 L2179.71 242.729 Q2178.25 245.091 2176.07 246.225 Q2173.9 247.336 2170.75 247.336 Q2166.77 247.336 2164.4 245.114 Q2162.07 242.868 2162.07 239.118 Q2162.07 234.743 2164.98 232.521 Q2167.92 230.299 2173.73 230.299 L2179.71 230.299 L2179.71 229.882 Q2179.71 226.943 2177.76 225.345 Q2175.84 223.725 2172.34 223.725 Q2170.12 223.725 2168.02 224.257 Q2165.91 224.79 2163.97 225.855 L2163.97 221.919 Q2166.3 221.017 2168.5 220.577 Q2170.7 220.114 2172.78 220.114 Q2178.41 220.114 2181.19 223.031 Q2183.96 225.947 2183.96 231.873 Z" fill="#000000" fill-rule="evenodd" fill-opacity="1" /><path clip-path="url(#clip600)" d="M 0 0 M2196.95 213.378 L2196.95 220.739 L2205.72 220.739 L2205.72 224.049 L2196.95 224.049 L2196.95 238.123 Q2196.95 241.294 2197.81 242.197 Q2198.69 243.1 2201.35 243.1 L2205.72 243.1 L2205.72 246.665 L2201.35 246.665 Q2196.42 246.665 2194.54 244.836 Q2192.67 242.984 2192.67 238.123 L2192.67 224.049 L2189.54 224.049 L2189.54 220.739 L2192.67 220.739 L2192.67 213.378 L2196.95 213.378 Z" fill="#000000" fill-rule="evenodd" fill-opacity="1" /><path clip-path="url(#clip600)" d="M 0 0 M2223.11 233.632 Q2217.95 233.632 2215.96 234.813 Q2213.96 235.993 2213.96 238.841 Q2213.96 241.109 2215.45 242.452 Q2216.95 243.771 2219.52 243.771 Q2223.06 243.771 2225.19 241.271 Q2227.34 238.748 2227.34 234.581 L2227.34 233.632 L2223.11 233.632 M2231.6 231.873 L2231.6 246.665 L2227.34 246.665 L2227.34 242.729 Q2225.89 245.091 2223.71 246.225 Q2221.53 247.336 2218.39 247.336 Q2214.4 247.336 2212.04 245.114 Q2209.71 242.868 2209.71 239.118 Q2209.71 234.743 2212.62 232.521 Q2215.56 230.299 2221.37 230.299 L2227.34 230.299 L2227.34 229.882 Q2227.34 226.943 2225.4 225.345 Q2223.48 223.725 2219.98 223.725 Q2217.76 223.725 2215.65 224.257 Q2213.55 224.79 2211.6 225.855 L2211.6 221.919 Q2213.94 221.017 2216.14 220.577 Q2218.34 220.114 2220.42 220.114 Q2226.05 220.114 2228.83 223.031 Q2231.6 225.947 2231.6 231.873 Z" fill="#000000" fill-rule="evenodd" fill-opacity="1" /></svg>
