<?xml version="1.0" encoding="utf-8"?>
<svg xmlns="http://www.w3.org/2000/svg" xmlns:xlink="http://www.w3.org/1999/xlink" width="600" height="400" viewBox="0 0 2400 1600">
<defs>
  <clipPath id="clip390">
    <rect x="0" y="0" width="2400" height="1600"/>
  </clipPath>
</defs>
<path clip-path="url(#clip390)" d="M0 1600 L2400 1600 L2400 0 L0 0  Z" fill="#ffffff" fill-rule="evenodd" fill-opacity="1"/>
<defs>
  <clipPath id="clip391">
    <rect x="172" y="123" width="2182" height="1364"/>
  </clipPath>
</defs>
<path clip-path="url(#clip390)" d="M172.015 1486.45 L2352.76 1486.45 L2352.76 123.472 L172.015 123.472  Z" fill="#ffffff" fill-rule="evenodd" fill-opacity="1"/>
<polyline clip-path="url(#clip391)" style="stroke:#000000; stroke-linecap:round; stroke-linejoin:round; stroke-width:2; stroke-opacity:0.1; fill:none" points="233.734,1486.45 233.734,123.472 "/>
<polyline clip-path="url(#clip391)" style="stroke:#000000; stroke-linecap:round; stroke-linejoin:round; stroke-width:2; stroke-opacity:0.1; fill:none" points="576.618,1486.45 576.618,123.472 "/>
<polyline clip-path="url(#clip391)" style="stroke:#000000; stroke-linecap:round; stroke-linejoin:round; stroke-width:2; stroke-opacity:0.1; fill:none" points="919.502,1486.45 919.502,123.472 "/>
<polyline clip-path="url(#clip391)" style="stroke:#000000; stroke-linecap:round; stroke-linejoin:round; stroke-width:2; stroke-opacity:0.1; fill:none" points="1262.39,1486.45 1262.39,123.472 "/>
<polyline clip-path="url(#clip391)" style="stroke:#000000; stroke-linecap:round; stroke-linejoin:round; stroke-width:2; stroke-opacity:0.1; fill:none" points="1605.27,1486.45 1605.27,123.472 "/>
<polyline clip-path="url(#clip391)" style="stroke:#000000; stroke-linecap:round; stroke-linejoin:round; stroke-width:2; stroke-opacity:0.1; fill:none" points="1948.15,1486.45 1948.15,123.472 "/>
<polyline clip-path="url(#clip391)" style="stroke:#000000; stroke-linecap:round; stroke-linejoin:round; stroke-width:2; stroke-opacity:0.1; fill:none" points="2291.04,1486.45 2291.04,123.472 "/>
<polyline clip-path="url(#clip391)" style="stroke:#000000; stroke-linecap:round; stroke-linejoin:round; stroke-width:2; stroke-opacity:0.1; fill:none" points="172.015,1447.87 2352.76,1447.87 "/>
<polyline clip-path="url(#clip391)" style="stroke:#000000; stroke-linecap:round; stroke-linejoin:round; stroke-width:2; stroke-opacity:0.1; fill:none" points="172.015,1130.39 2352.76,1130.39 "/>
<polyline clip-path="url(#clip391)" style="stroke:#000000; stroke-linecap:round; stroke-linejoin:round; stroke-width:2; stroke-opacity:0.1; fill:none" points="172.015,812.897 2352.76,812.897 "/>
<polyline clip-path="url(#clip391)" style="stroke:#000000; stroke-linecap:round; stroke-linejoin:round; stroke-width:2; stroke-opacity:0.1; fill:none" points="172.015,495.409 2352.76,495.409 "/>
<polyline clip-path="url(#clip391)" style="stroke:#000000; stroke-linecap:round; stroke-linejoin:round; stroke-width:2; stroke-opacity:0.1; fill:none" points="172.015,177.921 2352.76,177.921 "/>
<polyline clip-path="url(#clip390)" style="stroke:#000000; stroke-linecap:round; stroke-linejoin:round; stroke-width:4; stroke-opacity:1; fill:none" points="172.015,1486.45 2352.76,1486.45 "/>
<polyline clip-path="url(#clip390)" style="stroke:#000000; stroke-linecap:round; stroke-linejoin:round; stroke-width:4; stroke-opacity:1; fill:none" points="233.734,1486.45 233.734,1467.55 "/>
<polyline clip-path="url(#clip390)" style="stroke:#000000; stroke-linecap:round; stroke-linejoin:round; stroke-width:4; stroke-opacity:1; fill:none" points="576.618,1486.45 576.618,1467.55 "/>
<polyline clip-path="url(#clip390)" style="stroke:#000000; stroke-linecap:round; stroke-linejoin:round; stroke-width:4; stroke-opacity:1; fill:none" points="919.502,1486.45 919.502,1467.55 "/>
<polyline clip-path="url(#clip390)" style="stroke:#000000; stroke-linecap:round; stroke-linejoin:round; stroke-width:4; stroke-opacity:1; fill:none" points="1262.39,1486.45 1262.39,1467.55 "/>
<polyline clip-path="url(#clip390)" style="stroke:#000000; stroke-linecap:round; stroke-linejoin:round; stroke-width:4; stroke-opacity:1; fill:none" points="1605.27,1486.45 1605.27,1467.55 "/>
<polyline clip-path="url(#clip390)" style="stroke:#000000; stroke-linecap:round; stroke-linejoin:round; stroke-width:4; stroke-opacity:1; fill:none" points="1948.15,1486.45 1948.15,1467.55 "/>
<polyline clip-path="url(#clip390)" style="stroke:#000000; stroke-linecap:round; stroke-linejoin:round; stroke-width:4; stroke-opacity:1; fill:none" points="2291.04,1486.45 2291.04,1467.55 "/>
<path clip-path="url(#clip390)" d="M203.676 1532.02 L233.352 1532.02 L233.352 1535.95 L203.676 1535.95 L203.676 1532.02 Z" fill="#000000" fill-rule="nonzero" fill-opacity="1" /><path clip-path="url(#clip390)" d="M247.472 1544.91 L263.792 1544.91 L263.792 1548.85 L241.847 1548.85 L241.847 1544.91 Q244.509 1542.16 249.093 1537.53 Q253.699 1532.88 254.88 1531.53 Q257.125 1529.01 258.005 1527.27 Q258.907 1525.51 258.907 1523.82 Q258.907 1521.07 256.963 1519.33 Q255.042 1517.6 251.94 1517.6 Q249.741 1517.6 247.287 1518.36 Q244.857 1519.13 242.079 1520.68 L242.079 1515.95 Q244.903 1514.82 247.357 1514.24 Q249.81 1513.66 251.847 1513.66 Q257.218 1513.66 260.412 1516.35 Q263.606 1519.03 263.606 1523.52 Q263.606 1525.65 262.796 1527.57 Q262.009 1529.47 259.903 1532.07 Q259.324 1532.74 256.222 1535.95 Q253.12 1539.15 247.472 1544.91 Z" fill="#000000" fill-rule="nonzero" fill-opacity="1" /><path clip-path="url(#clip390)" d="M546.375 1532.02 L576.051 1532.02 L576.051 1535.95 L546.375 1535.95 L546.375 1532.02 Z" fill="#000000" fill-rule="nonzero" fill-opacity="1" /><path clip-path="url(#clip390)" d="M586.953 1544.91 L594.592 1544.91 L594.592 1518.55 L586.282 1520.21 L586.282 1515.95 L594.546 1514.29 L599.222 1514.29 L599.222 1544.91 L606.861 1544.91 L606.861 1548.85 L586.953 1548.85 L586.953 1544.91 Z" fill="#000000" fill-rule="nonzero" fill-opacity="1" /><path clip-path="url(#clip390)" d="M919.502 1517.37 Q915.89 1517.37 914.062 1520.93 Q912.256 1524.47 912.256 1531.6 Q912.256 1538.71 914.062 1542.27 Q915.89 1545.82 919.502 1545.82 Q923.136 1545.82 924.941 1542.27 Q926.77 1538.71 926.77 1531.6 Q926.77 1524.47 924.941 1520.93 Q923.136 1517.37 919.502 1517.37 M919.502 1513.66 Q925.312 1513.66 928.367 1518.27 Q931.446 1522.85 931.446 1531.6 Q931.446 1540.33 928.367 1544.94 Q925.312 1549.52 919.502 1549.52 Q913.691 1549.52 910.613 1544.94 Q907.557 1540.33 907.557 1531.6 Q907.557 1522.85 910.613 1518.27 Q913.691 1513.66 919.502 1513.66 Z" fill="#000000" fill-rule="nonzero" fill-opacity="1" /><path clip-path="url(#clip390)" d="M1252.77 1544.91 L1260.41 1544.91 L1260.41 1518.55 L1252.1 1520.21 L1252.1 1515.95 L1260.36 1514.29 L1265.04 1514.29 L1265.04 1544.91 L1272.67 1544.91 L1272.67 1548.85 L1252.77 1548.85 L1252.77 1544.91 Z" fill="#000000" fill-rule="nonzero" fill-opacity="1" /><path clip-path="url(#clip390)" d="M1599.92 1544.91 L1616.24 1544.91 L1616.24 1548.85 L1594.3 1548.85 L1594.3 1544.91 Q1596.96 1542.16 1601.54 1537.53 Q1606.15 1532.88 1607.33 1531.53 Q1609.57 1529.01 1610.45 1527.27 Q1611.36 1525.51 1611.36 1523.82 Q1611.36 1521.07 1609.41 1519.33 Q1607.49 1517.6 1604.39 1517.6 Q1602.19 1517.6 1599.74 1518.36 Q1597.31 1519.13 1594.53 1520.68 L1594.53 1515.95 Q1597.35 1514.82 1599.81 1514.24 Q1602.26 1513.66 1604.3 1513.66 Q1609.67 1513.66 1612.86 1516.35 Q1616.06 1519.03 1616.06 1523.52 Q1616.06 1525.65 1615.25 1527.57 Q1614.46 1529.47 1612.35 1532.07 Q1611.77 1532.74 1608.67 1535.95 Q1605.57 1539.15 1599.92 1544.91 Z" fill="#000000" fill-rule="nonzero" fill-opacity="1" /><path clip-path="url(#clip390)" d="M1952.4 1530.21 Q1955.76 1530.93 1957.63 1533.2 Q1959.53 1535.47 1959.53 1538.8 Q1959.53 1543.92 1956.01 1546.72 Q1952.49 1549.52 1946.01 1549.52 Q1943.84 1549.52 1941.52 1549.08 Q1939.23 1548.66 1936.78 1547.81 L1936.78 1543.29 Q1938.72 1544.43 1941.03 1545.01 Q1943.35 1545.58 1945.87 1545.58 Q1950.27 1545.58 1952.56 1543.85 Q1954.88 1542.11 1954.88 1538.8 Q1954.88 1535.75 1952.72 1534.03 Q1950.6 1532.3 1946.78 1532.3 L1942.75 1532.3 L1942.75 1528.45 L1946.96 1528.45 Q1950.41 1528.45 1952.24 1527.09 Q1954.07 1525.7 1954.07 1523.11 Q1954.07 1520.45 1952.17 1519.03 Q1950.29 1517.6 1946.78 1517.6 Q1944.85 1517.6 1942.66 1518.01 Q1940.46 1518.43 1937.82 1519.31 L1937.82 1515.14 Q1940.48 1514.4 1942.79 1514.03 Q1945.13 1513.66 1947.19 1513.66 Q1952.52 1513.66 1955.62 1516.09 Q1958.72 1518.5 1958.72 1522.62 Q1958.72 1525.49 1957.08 1527.48 Q1955.43 1529.45 1952.4 1530.21 Z" fill="#000000" fill-rule="nonzero" fill-opacity="1" /><path clip-path="url(#clip390)" d="M2294.05 1518.36 L2282.24 1536.81 L2294.05 1536.81 L2294.05 1518.36 M2292.82 1514.29 L2298.7 1514.29 L2298.7 1536.81 L2303.63 1536.81 L2303.63 1540.7 L2298.7 1540.7 L2298.7 1548.85 L2294.05 1548.85 L2294.05 1540.7 L2278.44 1540.7 L2278.44 1536.19 L2292.82 1514.29 Z" fill="#000000" fill-rule="nonzero" fill-opacity="1" /><polyline clip-path="url(#clip390)" style="stroke:#000000; stroke-linecap:round; stroke-linejoin:round; stroke-width:4; stroke-opacity:1; fill:none" points="172.015,1486.45 172.015,123.472 "/>
<polyline clip-path="url(#clip390)" style="stroke:#000000; stroke-linecap:round; stroke-linejoin:round; stroke-width:4; stroke-opacity:1; fill:none" points="172.015,1447.87 190.912,1447.87 "/>
<polyline clip-path="url(#clip390)" style="stroke:#000000; stroke-linecap:round; stroke-linejoin:round; stroke-width:4; stroke-opacity:1; fill:none" points="172.015,1130.39 190.912,1130.39 "/>
<polyline clip-path="url(#clip390)" style="stroke:#000000; stroke-linecap:round; stroke-linejoin:round; stroke-width:4; stroke-opacity:1; fill:none" points="172.015,812.897 190.912,812.897 "/>
<polyline clip-path="url(#clip390)" style="stroke:#000000; stroke-linecap:round; stroke-linejoin:round; stroke-width:4; stroke-opacity:1; fill:none" points="172.015,495.409 190.912,495.409 "/>
<polyline clip-path="url(#clip390)" style="stroke:#000000; stroke-linecap:round; stroke-linejoin:round; stroke-width:4; stroke-opacity:1; fill:none" points="172.015,177.921 190.912,177.921 "/>
<path clip-path="url(#clip390)" d="M124.07 1433.67 Q120.459 1433.67 118.631 1437.24 Q116.825 1440.78 116.825 1447.91 Q116.825 1455.01 118.631 1458.58 Q120.459 1462.12 124.07 1462.12 Q127.705 1462.12 129.51 1458.58 Q131.339 1455.01 131.339 1447.91 Q131.339 1440.78 129.51 1437.24 Q127.705 1433.67 124.07 1433.67 M124.07 1429.97 Q129.881 1429.97 132.936 1434.57 Q136.015 1439.16 136.015 1447.91 Q136.015 1456.63 132.936 1461.24 Q129.881 1465.82 124.07 1465.82 Q118.26 1465.82 115.182 1461.24 Q112.126 1456.63 112.126 1447.91 Q112.126 1439.16 115.182 1434.57 Q118.26 1429.97 124.07 1429.97 Z" fill="#000000" fill-rule="nonzero" fill-opacity="1" /><path clip-path="url(#clip390)" d="M57.7745 1143.73 L74.0939 1143.73 L74.0939 1147.67 L52.1495 1147.67 L52.1495 1143.73 Q54.8115 1140.98 59.3949 1136.35 Q64.0013 1131.69 65.1819 1130.35 Q67.4272 1127.83 68.3068 1126.09 Q69.2096 1124.33 69.2096 1122.64 Q69.2096 1119.89 67.2652 1118.15 Q65.3439 1116.42 62.2421 1116.42 Q60.043 1116.42 57.5893 1117.18 Q55.1588 1117.94 52.381 1119.49 L52.381 1114.77 Q55.2051 1113.64 57.6588 1113.06 Q60.1124 1112.48 62.1495 1112.48 Q67.5198 1112.48 70.7142 1115.17 Q73.9087 1117.85 73.9087 1122.34 Q73.9087 1124.47 73.0985 1126.39 Q72.3115 1128.29 70.205 1130.88 Q69.6263 1131.55 66.5245 1134.77 Q63.4226 1137.97 57.7745 1143.73 Z" fill="#000000" fill-rule="nonzero" fill-opacity="1" /><path clip-path="url(#clip390)" d="M93.9086 1116.18 Q90.2975 1116.18 88.4688 1119.75 Q86.6632 1123.29 86.6632 1130.42 Q86.6632 1137.53 88.4688 1141.09 Q90.2975 1144.63 93.9086 1144.63 Q97.5428 1144.63 99.3483 1141.09 Q101.177 1137.53 101.177 1130.42 Q101.177 1123.29 99.3483 1119.75 Q97.5428 1116.18 93.9086 1116.18 M93.9086 1112.48 Q99.7187 1112.48 102.774 1117.09 Q105.853 1121.67 105.853 1130.42 Q105.853 1139.15 102.774 1143.75 Q99.7187 1148.34 93.9086 1148.34 Q88.0984 1148.34 85.0197 1143.75 Q81.9642 1139.15 81.9642 1130.42 Q81.9642 1121.67 85.0197 1117.09 Q88.0984 1112.48 93.9086 1112.48 Z" fill="#000000" fill-rule="nonzero" fill-opacity="1" /><path clip-path="url(#clip390)" d="M124.07 1116.18 Q120.459 1116.18 118.631 1119.75 Q116.825 1123.29 116.825 1130.42 Q116.825 1137.53 118.631 1141.09 Q120.459 1144.63 124.07 1144.63 Q127.705 1144.63 129.51 1141.09 Q131.339 1137.53 131.339 1130.42 Q131.339 1123.29 129.51 1119.75 Q127.705 1116.18 124.07 1116.18 M124.07 1112.48 Q129.881 1112.48 132.936 1117.09 Q136.015 1121.67 136.015 1130.42 Q136.015 1139.15 132.936 1143.75 Q129.881 1148.34 124.07 1148.34 Q118.26 1148.34 115.182 1143.75 Q112.126 1139.15 112.126 1130.42 Q112.126 1121.67 115.182 1117.09 Q118.26 1112.48 124.07 1112.48 Z" fill="#000000" fill-rule="nonzero" fill-opacity="1" /><path clip-path="url(#clip390)" d="M66.5939 799.691 L54.7884 818.14 L66.5939 818.14 L66.5939 799.691 M65.367 795.617 L71.2466 795.617 L71.2466 818.14 L76.1772 818.14 L76.1772 822.029 L71.2466 822.029 L71.2466 830.177 L66.5939 830.177 L66.5939 822.029 L50.9921 822.029 L50.9921 817.515 L65.367 795.617 Z" fill="#000000" fill-rule="nonzero" fill-opacity="1" /><path clip-path="url(#clip390)" d="M93.9086 798.696 Q90.2975 798.696 88.4688 802.261 Q86.6632 805.802 86.6632 812.932 Q86.6632 820.038 88.4688 823.603 Q90.2975 827.145 93.9086 827.145 Q97.5428 827.145 99.3483 823.603 Q101.177 820.038 101.177 812.932 Q101.177 805.802 99.3483 802.261 Q97.5428 798.696 93.9086 798.696 M93.9086 794.992 Q99.7187 794.992 102.774 799.599 Q105.853 804.182 105.853 812.932 Q105.853 821.659 102.774 826.265 Q99.7187 830.848 93.9086 830.848 Q88.0984 830.848 85.0197 826.265 Q81.9642 821.659 81.9642 812.932 Q81.9642 804.182 85.0197 799.599 Q88.0984 794.992 93.9086 794.992 Z" fill="#000000" fill-rule="nonzero" fill-opacity="1" /><path clip-path="url(#clip390)" d="M124.07 798.696 Q120.459 798.696 118.631 802.261 Q116.825 805.802 116.825 812.932 Q116.825 820.038 118.631 823.603 Q120.459 827.145 124.07 827.145 Q127.705 827.145 129.51 823.603 Q131.339 820.038 131.339 812.932 Q131.339 805.802 129.51 802.261 Q127.705 798.696 124.07 798.696 M124.07 794.992 Q129.881 794.992 132.936 799.599 Q136.015 804.182 136.015 812.932 Q136.015 821.659 132.936 826.265 Q129.881 830.848 124.07 830.848 Q118.26 830.848 115.182 826.265 Q112.126 821.659 112.126 812.932 Q112.126 804.182 115.182 799.599 Q118.26 794.992 124.07 794.992 Z" fill="#000000" fill-rule="nonzero" fill-opacity="1" /><path clip-path="url(#clip390)" d="M64.3254 493.546 Q61.1773 493.546 59.3254 495.699 Q57.4967 497.851 57.4967 501.601 Q57.4967 505.328 59.3254 507.504 Q61.1773 509.657 64.3254 509.657 Q67.4735 509.657 69.3022 507.504 Q71.1541 505.328 71.1541 501.601 Q71.1541 497.851 69.3022 495.699 Q67.4735 493.546 64.3254 493.546 M73.6077 478.893 L73.6077 483.152 Q71.8485 482.319 70.0429 481.879 Q68.2606 481.439 66.5013 481.439 Q61.8717 481.439 59.418 484.564 Q56.9875 487.689 56.6402 494.009 Q58.006 491.995 60.0662 490.93 Q62.1263 489.842 64.6032 489.842 Q69.8115 489.842 72.8207 493.013 Q75.8531 496.162 75.8531 501.601 Q75.8531 506.925 72.705 510.143 Q69.5568 513.361 64.3254 513.361 Q58.33 513.361 55.1588 508.777 Q51.9875 504.171 51.9875 495.444 Q51.9875 487.25 55.8764 482.388 Q59.7652 477.504 66.3161 477.504 Q68.0754 477.504 69.8578 477.851 Q71.6633 478.199 73.6077 478.893 Z" fill="#000000" fill-rule="nonzero" fill-opacity="1" /><path clip-path="url(#clip390)" d="M93.9086 481.208 Q90.2975 481.208 88.4688 484.773 Q86.6632 488.314 86.6632 495.444 Q86.6632 502.55 88.4688 506.115 Q90.2975 509.657 93.9086 509.657 Q97.5428 509.657 99.3483 506.115 Q101.177 502.55 101.177 495.444 Q101.177 488.314 99.3483 484.773 Q97.5428 481.208 93.9086 481.208 M93.9086 477.504 Q99.7187 477.504 102.774 482.111 Q105.853 486.694 105.853 495.444 Q105.853 504.171 102.774 508.777 Q99.7187 513.361 93.9086 513.361 Q88.0984 513.361 85.0197 508.777 Q81.9642 504.171 81.9642 495.444 Q81.9642 486.694 85.0197 482.111 Q88.0984 477.504 93.9086 477.504 Z" fill="#000000" fill-rule="nonzero" fill-opacity="1" /><path clip-path="url(#clip390)" d="M124.07 481.208 Q120.459 481.208 118.631 484.773 Q116.825 488.314 116.825 495.444 Q116.825 502.55 118.631 506.115 Q120.459 509.657 124.07 509.657 Q127.705 509.657 129.51 506.115 Q131.339 502.55 131.339 495.444 Q131.339 488.314 129.51 484.773 Q127.705 481.208 124.07 481.208 M124.07 477.504 Q129.881 477.504 132.936 482.111 Q136.015 486.694 136.015 495.444 Q136.015 504.171 132.936 508.777 Q129.881 513.361 124.07 513.361 Q118.26 513.361 115.182 508.777 Q112.126 504.171 112.126 495.444 Q112.126 486.694 115.182 482.111 Q118.26 477.504 124.07 477.504 Z" fill="#000000" fill-rule="nonzero" fill-opacity="1" /><path clip-path="url(#clip390)" d="M63.7467 178.789 Q60.4134 178.789 58.4921 180.572 Q56.5939 182.354 56.5939 185.479 Q56.5939 188.604 58.4921 190.387 Q60.4134 192.169 63.7467 192.169 Q67.08 192.169 69.0013 190.387 Q70.9226 188.581 70.9226 185.479 Q70.9226 182.354 69.0013 180.572 Q67.1032 178.789 63.7467 178.789 M59.0708 176.799 Q56.0615 176.058 54.3717 173.998 Q52.7051 171.938 52.7051 168.975 Q52.7051 164.831 55.6449 162.424 Q58.6078 160.016 63.7467 160.016 Q68.9087 160.016 71.8485 162.424 Q74.7883 164.831 74.7883 168.975 Q74.7883 171.938 73.0985 173.998 Q71.4318 176.058 68.4457 176.799 Q71.8253 177.586 73.7003 179.877 Q75.5985 182.169 75.5985 185.479 Q75.5985 190.502 72.5198 193.187 Q69.4642 195.873 63.7467 195.873 Q58.0291 195.873 54.9504 193.187 Q51.8949 190.502 51.8949 185.479 Q51.8949 182.169 53.793 179.877 Q55.6912 177.586 59.0708 176.799 M57.3578 169.414 Q57.3578 172.1 59.0245 173.604 Q60.7143 175.109 63.7467 175.109 Q66.7559 175.109 68.4457 173.604 Q70.1587 172.1 70.1587 169.414 Q70.1587 166.729 68.4457 165.225 Q66.7559 163.72 63.7467 163.72 Q60.7143 163.72 59.0245 165.225 Q57.3578 166.729 57.3578 169.414 Z" fill="#000000" fill-rule="nonzero" fill-opacity="1" /><path clip-path="url(#clip390)" d="M93.9086 163.72 Q90.2975 163.72 88.4688 167.285 Q86.6632 170.826 86.6632 177.956 Q86.6632 185.062 88.4688 188.627 Q90.2975 192.169 93.9086 192.169 Q97.5428 192.169 99.3483 188.627 Q101.177 185.062 101.177 177.956 Q101.177 170.826 99.3483 167.285 Q97.5428 163.72 93.9086 163.72 M93.9086 160.016 Q99.7187 160.016 102.774 164.623 Q105.853 169.206 105.853 177.956 Q105.853 186.683 102.774 191.289 Q99.7187 195.873 93.9086 195.873 Q88.0984 195.873 85.0197 191.289 Q81.9642 186.683 81.9642 177.956 Q81.9642 169.206 85.0197 164.623 Q88.0984 160.016 93.9086 160.016 Z" fill="#000000" fill-rule="nonzero" fill-opacity="1" /><path clip-path="url(#clip390)" d="M124.07 163.72 Q120.459 163.72 118.631 167.285 Q116.825 170.826 116.825 177.956 Q116.825 185.062 118.631 188.627 Q120.459 192.169 124.07 192.169 Q127.705 192.169 129.51 188.627 Q131.339 185.062 131.339 177.956 Q131.339 170.826 129.51 167.285 Q127.705 163.72 124.07 163.72 M124.07 160.016 Q129.881 160.016 132.936 164.623 Q136.015 169.206 136.015 177.956 Q136.015 186.683 132.936 191.289 Q129.881 195.873 124.07 195.873 Q118.26 195.873 115.182 191.289 Q112.126 186.683 112.126 177.956 Q112.126 169.206 115.182 164.623 Q118.26 160.016 124.07 160.016 Z" fill="#000000" fill-rule="nonzero" fill-opacity="1" /><path clip-path="url(#clip390)" d="M1179.36 18.8205 L1179.36 65.8515 L1189.25 65.8515 Q1201.76 65.8515 1207.56 60.1802 Q1213.39 54.509 1213.39 42.2752 Q1213.39 30.1225 1207.56 24.4918 Q1201.76 18.8205 1189.25 18.8205 L1179.36 18.8205 M1171.18 12.096 L1187.99 12.096 Q1205.57 12.096 1213.79 19.4281 Q1222.02 26.7198 1222.02 42.2752 Q1222.02 57.9117 1213.75 65.2439 Q1205.49 72.576 1187.99 72.576 L1171.18 72.576 L1171.18 12.096 Z" fill="#000000" fill-rule="nonzero" fill-opacity="1" /><path clip-path="url(#clip390)" d="M1255.36 49.7694 Q1246.32 49.7694 1242.84 51.8354 Q1239.36 53.9013 1239.36 58.8839 Q1239.36 62.8538 1241.95 65.2034 Q1244.58 67.5124 1249.08 67.5124 Q1255.28 67.5124 1259 63.1374 Q1262.77 58.7219 1262.77 51.4303 L1262.77 49.7694 L1255.36 49.7694 M1270.22 46.6907 L1270.22 72.576 L1262.77 72.576 L1262.77 65.6895 Q1260.22 69.8214 1256.41 71.8063 Q1252.6 73.7508 1247.09 73.7508 Q1240.13 73.7508 1235.99 69.8619 Q1231.9 65.9325 1231.9 59.3701 Q1231.9 51.7138 1237.01 47.825 Q1242.15 43.9361 1252.32 43.9361 L1262.77 43.9361 L1262.77 43.2069 Q1262.77 38.0623 1259.37 35.2672 Q1256.01 32.4315 1249.89 32.4315 Q1246 32.4315 1242.31 33.3632 Q1238.63 34.295 1235.22 36.1584 L1235.22 29.2718 Q1239.32 27.692 1243.16 26.9223 Q1247.01 26.1121 1250.66 26.1121 Q1260.5 26.1121 1265.36 31.2163 Q1270.22 36.3204 1270.22 46.6907 Z" fill="#000000" fill-rule="nonzero" fill-opacity="1" /><path clip-path="url(#clip390)" d="M1292.95 14.324 L1292.95 27.2059 L1308.3 27.2059 L1308.3 32.9987 L1292.95 32.9987 L1292.95 57.6282 Q1292.95 63.1779 1294.45 64.7578 Q1295.99 66.3376 1300.65 66.3376 L1308.3 66.3376 L1308.3 72.576 L1300.65 72.576 Q1292.02 72.576 1288.74 69.3758 Q1285.46 66.1351 1285.46 57.6282 L1285.46 32.9987 L1279.99 32.9987 L1279.99 27.2059 L1285.46 27.2059 L1285.46 14.324 L1292.95 14.324 Z" fill="#000000" fill-rule="nonzero" fill-opacity="1" /><path clip-path="url(#clip390)" d="M1338.72 49.7694 Q1329.69 49.7694 1326.21 51.8354 Q1322.72 53.9013 1322.72 58.8839 Q1322.72 62.8538 1325.32 65.2034 Q1327.95 67.5124 1332.45 67.5124 Q1338.64 67.5124 1342.37 63.1374 Q1346.14 58.7219 1346.14 51.4303 L1346.14 49.7694 L1338.72 49.7694 M1353.59 46.6907 L1353.59 72.576 L1346.14 72.576 L1346.14 65.6895 Q1343.59 69.8214 1339.78 71.8063 Q1335.97 73.7508 1330.46 73.7508 Q1323.49 73.7508 1319.36 69.8619 Q1315.27 65.9325 1315.27 59.3701 Q1315.27 51.7138 1320.37 47.825 Q1325.52 43.9361 1335.69 43.9361 L1346.14 43.9361 L1346.14 43.2069 Q1346.14 38.0623 1342.74 35.2672 Q1339.37 32.4315 1333.26 32.4315 Q1329.37 32.4315 1325.68 33.3632 Q1321.99 34.295 1318.59 36.1584 L1318.59 29.2718 Q1322.68 27.692 1326.53 26.9223 Q1330.38 26.1121 1334.03 26.1121 Q1343.87 26.1121 1348.73 31.2163 Q1353.59 36.3204 1353.59 46.6907 Z" fill="#000000" fill-rule="nonzero" fill-opacity="1" /><polyline clip-path="url(#clip391)" style="stroke:#009af9; stroke-linecap:round; stroke-linejoin:round; stroke-width:4; stroke-opacity:1; fill:none" points="233.734,1447.87 233.734,1400.25 268.022,1400.25 268.022,1289.13 302.311,1289.13 302.311,1225.63 336.599,1225.63 370.887,1225.63 370.887,1066.89 405.176,1066.89 405.176,924.018 439.464,924.018 439.464,1035.14 473.753,1035.14 473.753,924.018 508.041,924.018 508.041,701.776 542.329,701.776 542.329,828.772 576.618,828.772 576.618,860.52 610.906,860.52 610.906,797.023 645.194,797.023 645.194,1066.89 679.483,1066.89 679.483,860.52 713.771,860.52 713.771,1082.76 748.06,1082.76 748.06,1162.13 782.348,1162.13 782.348,1241.51 816.636,1241.51 816.636,1193.88 850.925,1193.88 850.925,1225.63 885.213,1225.63 885.213,1352.63 919.502,1352.63 919.502,1432 953.79,1432 953.79,1384.38 988.078,1384.38 988.078,1320.88 1022.37,1320.88 1022.37,1432 1056.66,1432 1056.66,1400.25 1090.94,1400.25 1090.94,1432 1125.23,1432 1125.23,1352.63 1159.52,1352.63 1159.52,1320.88 1193.81,1320.88 1193.81,1368.5 1228.1,1368.5 1228.1,1289.13 1262.39,1289.13 1262.39,1193.88 1296.67,1193.88 1296.67,1066.89 1330.96,1066.89 1330.96,797.023 1365.25,797.023 1365.25,1035.14 1399.54,1035.14 1399.54,733.525 1433.83,733.525 1433.83,558.907 1468.12,558.907 1468.12,463.66 1502.4,463.66 1502.4,447.786 1536.69,447.786 1536.69,162.047 1570.98,162.047 1570.98,193.796 1605.27,193.796 1605.27,289.042 1639.56,289.042 1639.56,463.66 1673.85,463.66 1673.85,384.288 1708.13,384.288 1708.13,447.786 1742.42,447.786 1742.42,749.4 1776.71,749.4 1811,749.4 1811,844.646 1845.29,844.646 1879.58,844.646 1879.58,1178.01 1913.86,1178.01 1913.86,1273.25 1948.15,1273.25 1948.15,1352.63 1982.44,1352.63 1982.44,1432 2016.73,1432 2016.73,1400.25 2051.02,1400.25 2051.02,1384.38 2085.31,1384.38 2085.31,1400.25 2119.59,1400.25 2119.59,1416.12 2153.88,1416.12 2153.88,1432 2188.17,1432 2188.17,1447.87 2222.46,1447.87 2256.75,1447.87 2256.75,1432 2291.04,1432 2291.04,1447.87 "/>
<path clip-path="url(#clip390)" d="M1957.75 272.585 L2280.06 272.585 L2280.06 168.905 L1957.75 168.905  Z" fill="#ffffff" fill-rule="evenodd" fill-opacity="1"/>
<polyline clip-path="url(#clip390)" style="stroke:#000000; stroke-linecap:round; stroke-linejoin:round; stroke-width:4; stroke-opacity:1; fill:none" points="1957.75,272.585 2280.06,272.585 2280.06,168.905 1957.75,168.905 1957.75,272.585 "/>
<polyline clip-path="url(#clip390)" style="stroke:#009af9; stroke-linecap:round; stroke-linejoin:round; stroke-width:4; stroke-opacity:1; fill:none" points="1981.99,220.745 2127.37,220.745 "/>
<path clip-path="url(#clip390)" d="M2156.27 207.307 L2156.27 234.182 L2161.92 234.182 Q2169.08 234.182 2172.39 230.941 Q2175.72 227.701 2175.72 220.71 Q2175.72 213.766 2172.39 210.548 Q2169.08 207.307 2161.92 207.307 L2156.27 207.307 M2151.6 203.465 L2161.2 203.465 Q2171.25 203.465 2175.95 207.654 Q2180.65 211.821 2180.65 220.71 Q2180.65 229.645 2175.93 233.835 Q2171.2 238.025 2161.2 238.025 L2151.6 238.025 L2151.6 203.465 Z" fill="#000000" fill-rule="nonzero" fill-opacity="1" /><path clip-path="url(#clip390)" d="M2199.7 224.992 Q2194.54 224.992 2192.55 226.173 Q2190.56 227.353 2190.56 230.201 Q2190.56 232.469 2192.04 233.812 Q2193.54 235.131 2196.11 235.131 Q2199.65 235.131 2201.78 232.631 Q2203.94 230.108 2203.94 225.941 L2203.94 224.992 L2199.7 224.992 M2208.2 223.233 L2208.2 238.025 L2203.94 238.025 L2203.94 234.089 Q2202.48 236.451 2200.3 237.585 Q2198.13 238.696 2194.98 238.696 Q2191 238.696 2188.64 236.474 Q2186.3 234.228 2186.3 230.478 Q2186.3 226.103 2189.21 223.881 Q2192.15 221.659 2197.96 221.659 L2203.94 221.659 L2203.94 221.242 Q2203.94 218.303 2201.99 216.705 Q2200.07 215.085 2196.58 215.085 Q2194.35 215.085 2192.25 215.617 Q2190.14 216.15 2188.2 217.215 L2188.2 213.279 Q2190.53 212.377 2192.73 211.937 Q2194.93 211.474 2197.01 211.474 Q2202.64 211.474 2205.42 214.391 Q2208.2 217.307 2208.2 223.233 Z" fill="#000000" fill-rule="nonzero" fill-opacity="1" /><path clip-path="url(#clip390)" d="M2221.18 204.738 L2221.18 212.099 L2229.95 212.099 L2229.95 215.409 L2221.18 215.409 L2221.18 229.483 Q2221.18 232.654 2222.04 233.557 Q2222.92 234.46 2225.58 234.46 L2229.95 234.46 L2229.95 238.025 L2225.58 238.025 Q2220.65 238.025 2218.77 236.196 Q2216.9 234.344 2216.9 229.483 L2216.9 215.409 L2213.77 215.409 L2213.77 212.099 L2216.9 212.099 L2216.9 204.738 L2221.18 204.738 Z" fill="#000000" fill-rule="nonzero" fill-opacity="1" /><path clip-path="url(#clip390)" d="M2247.34 224.992 Q2242.18 224.992 2240.19 226.173 Q2238.2 227.353 2238.2 230.201 Q2238.2 232.469 2239.68 233.812 Q2241.18 235.131 2243.75 235.131 Q2247.29 235.131 2249.42 232.631 Q2251.57 230.108 2251.57 225.941 L2251.57 224.992 L2247.34 224.992 M2255.83 223.233 L2255.83 238.025 L2251.57 238.025 L2251.57 234.089 Q2250.12 236.451 2247.94 237.585 Q2245.76 238.696 2242.62 238.696 Q2238.64 238.696 2236.27 236.474 Q2233.94 234.228 2233.94 230.478 Q2233.94 226.103 2236.85 223.881 Q2239.79 221.659 2245.6 221.659 L2251.57 221.659 L2251.57 221.242 Q2251.57 218.303 2249.63 216.705 Q2247.71 215.085 2244.21 215.085 Q2241.99 215.085 2239.89 215.617 Q2237.78 216.15 2235.83 217.215 L2235.83 213.279 Q2238.17 212.377 2240.37 211.937 Q2242.57 211.474 2244.65 211.474 Q2250.28 211.474 2253.06 214.391 Q2255.83 217.307 2255.83 223.233 Z" fill="#000000" fill-rule="nonzero" fill-opacity="1" /></svg>
