<?xml version="1.0" encoding="utf-8"?>
<svg xmlns="http://www.w3.org/2000/svg" xmlns:xlink="http://www.w3.org/1999/xlink" width="600" height="400" viewBox="0 0 2400 1600">
<defs>
  <clipPath id="clip3500">
    <rect x="0" y="0" width="2400" height="1600"/>
  </clipPath>
</defs>
<path clip-path="url(#clip3500)" d="
M0 1600 L2400 1600 L2400 0 L0 0  Z
  " fill="#ffffff" fill-rule="evenodd" fill-opacity="1"/>
<defs>
  <clipPath id="clip3501">
    <rect x="480" y="0" width="1681" height="1600"/>
  </clipPath>
</defs>
<path clip-path="url(#clip3500)" d="
M202.373 1425.62 L2352.76 1425.62 L2352.76 121.675 L202.373 121.675  Z
  " fill="#ffffff" fill-rule="evenodd" fill-opacity="1"/>
<defs>
  <clipPath id="clip3502">
    <rect x="202" y="121" width="2151" height="1305"/>
  </clipPath>
</defs>
<polyline clip-path="url(#clip3502)" style="stroke:#000000; stroke-width:2; stroke-opacity:0.1; fill:none" points="
  313.949,1425.62 313.949,121.675 
  "/>
<polyline clip-path="url(#clip3502)" style="stroke:#000000; stroke-width:2; stroke-opacity:0.1; fill:none" points="
  821.115,1425.62 821.115,121.675 
  "/>
<polyline clip-path="url(#clip3502)" style="stroke:#000000; stroke-width:2; stroke-opacity:0.1; fill:none" points="
  1328.28,1425.62 1328.28,121.675 
  "/>
<polyline clip-path="url(#clip3502)" style="stroke:#000000; stroke-width:2; stroke-opacity:0.1; fill:none" points="
  1835.45,1425.62 1835.45,121.675 
  "/>
<polyline clip-path="url(#clip3502)" style="stroke:#000000; stroke-width:2; stroke-opacity:0.1; fill:none" points="
  2342.61,1425.62 2342.61,121.675 
  "/>
<polyline clip-path="url(#clip3502)" style="stroke:#000000; stroke-width:2; stroke-opacity:0.1; fill:none" points="
  202.373,1388.71 2352.76,1388.71 
  "/>
<polyline clip-path="url(#clip3502)" style="stroke:#000000; stroke-width:2; stroke-opacity:0.1; fill:none" points="
  202.373,1008.59 2352.76,1008.59 
  "/>
<polyline clip-path="url(#clip3502)" style="stroke:#000000; stroke-width:2; stroke-opacity:0.1; fill:none" points="
  202.373,628.462 2352.76,628.462 
  "/>
<polyline clip-path="url(#clip3502)" style="stroke:#000000; stroke-width:2; stroke-opacity:0.1; fill:none" points="
  202.373,248.336 2352.76,248.336 
  "/>
<polyline clip-path="url(#clip3500)" style="stroke:#000000; stroke-width:4; stroke-opacity:1; fill:none" points="
  202.373,1425.62 2352.76,1425.62 
  "/>
<polyline clip-path="url(#clip3500)" style="stroke:#000000; stroke-width:4; stroke-opacity:1; fill:none" points="
  202.373,1425.62 202.373,121.675 
  "/>
<polyline clip-path="url(#clip3500)" style="stroke:#000000; stroke-width:4; stroke-opacity:1; fill:none" points="
  313.949,1425.62 313.949,1409.97 
  "/>
<polyline clip-path="url(#clip3500)" style="stroke:#000000; stroke-width:4; stroke-opacity:1; fill:none" points="
  821.115,1425.62 821.115,1409.97 
  "/>
<polyline clip-path="url(#clip3500)" style="stroke:#000000; stroke-width:4; stroke-opacity:1; fill:none" points="
  1328.28,1425.62 1328.28,1409.97 
  "/>
<polyline clip-path="url(#clip3500)" style="stroke:#000000; stroke-width:4; stroke-opacity:1; fill:none" points="
  1835.45,1425.62 1835.45,1409.97 
  "/>
<polyline clip-path="url(#clip3500)" style="stroke:#000000; stroke-width:4; stroke-opacity:1; fill:none" points="
  2342.61,1425.62 2342.61,1409.97 
  "/>
<polyline clip-path="url(#clip3500)" style="stroke:#000000; stroke-width:4; stroke-opacity:1; fill:none" points="
  202.373,1388.71 228.178,1388.71 
  "/>
<polyline clip-path="url(#clip3500)" style="stroke:#000000; stroke-width:4; stroke-opacity:1; fill:none" points="
  202.373,1008.59 228.178,1008.59 
  "/>
<polyline clip-path="url(#clip3500)" style="stroke:#000000; stroke-width:4; stroke-opacity:1; fill:none" points="
  202.373,628.462 228.178,628.462 
  "/>
<polyline clip-path="url(#clip3500)" style="stroke:#000000; stroke-width:4; stroke-opacity:1; fill:none" points="
  202.373,248.336 228.178,248.336 
  "/>
<g clip-path="url(#clip3500)">
<text style="fill:#000000; fill-opacity:1; font-family:Arial,Helvetica Neue,Helvetica,sans-serif; font-size:48px; text-anchor:middle;" transform="rotate(0, 313.949, 1479.62)" x="313.949" y="1479.62">-1.10</text>
</g>
<g clip-path="url(#clip3500)">
<text style="fill:#000000; fill-opacity:1; font-family:Arial,Helvetica Neue,Helvetica,sans-serif; font-size:48px; text-anchor:middle;" transform="rotate(0, 821.115, 1479.62)" x="821.115" y="1479.62">-1.05</text>
</g>
<g clip-path="url(#clip3500)">
<text style="fill:#000000; fill-opacity:1; font-family:Arial,Helvetica Neue,Helvetica,sans-serif; font-size:48px; text-anchor:middle;" transform="rotate(0, 1328.28, 1479.62)" x="1328.28" y="1479.62">-1.00</text>
</g>
<g clip-path="url(#clip3500)">
<text style="fill:#000000; fill-opacity:1; font-family:Arial,Helvetica Neue,Helvetica,sans-serif; font-size:48px; text-anchor:middle;" transform="rotate(0, 1835.45, 1479.62)" x="1835.45" y="1479.62">-0.95</text>
</g>
<g clip-path="url(#clip3500)">
<text style="fill:#000000; fill-opacity:1; font-family:Arial,Helvetica Neue,Helvetica,sans-serif; font-size:48px; text-anchor:middle;" transform="rotate(0, 2342.61, 1479.62)" x="2342.61" y="1479.62">-0.90</text>
</g>
<g clip-path="url(#clip3500)">
<text style="fill:#000000; fill-opacity:1; font-family:Arial,Helvetica Neue,Helvetica,sans-serif; font-size:48px; text-anchor:end;" transform="rotate(0, 178.373, 1406.21)" x="178.373" y="1406.21">0</text>
</g>
<g clip-path="url(#clip3500)">
<text style="fill:#000000; fill-opacity:1; font-family:Arial,Helvetica Neue,Helvetica,sans-serif; font-size:48px; text-anchor:end;" transform="rotate(0, 178.373, 1026.09)" x="178.373" y="1026.09">5</text>
</g>
<g clip-path="url(#clip3500)">
<text style="fill:#000000; fill-opacity:1; font-family:Arial,Helvetica Neue,Helvetica,sans-serif; font-size:48px; text-anchor:end;" transform="rotate(0, 178.373, 645.962)" x="178.373" y="645.962">10</text>
</g>
<g clip-path="url(#clip3500)">
<text style="fill:#000000; fill-opacity:1; font-family:Arial,Helvetica Neue,Helvetica,sans-serif; font-size:48px; text-anchor:end;" transform="rotate(0, 178.373, 265.836)" x="178.373" y="265.836">15</text>
</g>
<g clip-path="url(#clip3500)">
<text style="fill:#000000; fill-opacity:1; font-family:Arial,Helvetica Neue,Helvetica,sans-serif; font-size:84px; text-anchor:middle;" transform="rotate(0, 1277.56, 73.2)" x="1277.56" y="73.2">Marginalized Distribution for mu_1</text>
</g>
<g clip-path="url(#clip3500)">
<text style="fill:#000000; fill-opacity:1; font-family:Arial,Helvetica Neue,Helvetica,sans-serif; font-size:66px; text-anchor:middle;" transform="rotate(0, 1277.56, 1559.48)" x="1277.56" y="1559.48">mu_1</text>
</g>
<g clip-path="url(#clip3500)">
<text style="fill:#000000; fill-opacity:1; font-family:Arial,Helvetica Neue,Helvetica,sans-serif; font-size:66px; text-anchor:middle;" transform="rotate(-90, 89.2861, 773.647)" x="89.2861" y="773.647">P(mu_1)</text>
</g>
<path clip-path="url(#clip3502)" d="
M263.233 1388.71 L313.949 1388.71 L313.949 1388.71 L364.666 1388.71 L364.666 1388.71 L415.383 1388.71 L415.383 1388.71 L466.099 1388.71 L466.099 1388.71 L516.816 1388.71 
  L516.816 1388.71 L567.532 1388.71 L567.532 1388.71 L618.249 1388.71 L618.249 1369.02 L668.965 1369.02 L668.965 1355.69 L719.682 1355.69 L719.682 1335.58 L770.399 1335.58 
  L770.399 1296.3 L821.115 1296.3 L821.115 1261.63 L871.832 1261.63 L871.832 1186.24 L922.548 1186.24 L922.548 1102.75 L973.265 1102.75 L973.265 983.672 L1023.98 983.672 
  L1023.98 869.821 L1074.7 869.821 L1074.7 677.916 L1125.41 677.916 L1125.41 589.091 L1176.13 589.091 L1176.13 433.188 L1226.85 433.188 L1226.85 298.823 L1277.56 298.823 
  L1277.56 219.435 L1328.28 219.435 L1328.28 194.408 L1379 194.408 L1379 206.819 L1429.71 206.819 L1429.71 226.82 L1480.43 226.82 L1480.43 283.027 L1531.15 283.027 
  L1531.15 422.11 L1581.86 422.11 L1581.86 565.398 L1632.58 565.398 L1632.58 731.354 L1683.3 731.354 L1683.3 884.181 L1734.01 884.181 L1734.01 1004.6 L1784.73 1004.6 
  L1784.73 1114.24 L1835.45 1114.24 L1835.45 1209.84 L1886.16 1209.84 L1886.16 1272.3 L1936.88 1272.3 L1936.88 1312.51 L1987.6 1312.51 L1987.6 1348.2 L2038.31 1348.2 
  L2038.31 1360 L2089.03 1360 L2089.03 1373.33 L2139.75 1373.33 L2139.75 1388.71 L2190.46 1388.71 L2190.46 1388.71 L2241.18 1388.71 L2241.18 1388.71 L2291.9 1388.71 
  L2291.9 1388.71 L2291.9 1388.71 L2291.9 1388.71 L2241.18 1388.71 L2241.18 1388.71 L2190.46 1388.71 L2190.46 1388.71 L2139.75 1388.71 L2139.75 1388.71 L2089.03 1388.71 
  L2089.03 1388.71 L2038.31 1388.71 L2038.31 1388.71 L1987.6 1388.71 L1987.6 1388.71 L1936.88 1388.71 L1936.88 1388.71 L1886.16 1388.71 L1886.16 1388.71 L1835.45 1388.71 
  L1835.45 1388.71 L1784.73 1388.71 L1784.73 1388.71 L1734.01 1388.71 L1734.01 1388.71 L1683.3 1388.71 L1683.3 1388.71 L1632.58 1388.71 L1632.58 1388.71 L1581.86 1388.71 
  L1581.86 1388.71 L1531.15 1388.71 L1531.15 1388.71 L1480.43 1388.71 L1480.43 1388.71 L1429.71 1388.71 L1429.71 1388.71 L1379 1388.71 L1379 1388.71 L1328.28 1388.71 
  L1328.28 1388.71 L1277.56 1388.71 L1277.56 1388.71 L1226.85 1388.71 L1226.85 1388.71 L1176.13 1388.71 L1176.13 1388.71 L1125.41 1388.71 L1125.41 1388.71 L1074.7 1388.71 
  L1074.7 1388.71 L1023.98 1388.71 L1023.98 1388.71 L973.265 1388.71 L973.265 1388.71 L922.548 1388.71 L922.548 1388.71 L871.832 1388.71 L871.832 1388.71 L821.115 1388.71 
  L821.115 1388.71 L770.399 1388.71 L770.399 1388.71 L719.682 1388.71 L719.682 1388.71 L668.965 1388.71 L668.965 1388.71 L618.249 1388.71 L618.249 1388.71 L567.532 1388.71 
  L567.532 1388.71 L516.816 1388.71 L516.816 1388.71 L466.099 1388.71 L466.099 1388.71 L415.383 1388.71 L415.383 1388.71 L364.666 1388.71 L364.666 1388.71 L313.949 1388.71 
  L313.949 1388.71 L263.233 1388.71  Z
  " fill="#ff0000" fill-rule="evenodd" fill-opacity="1"/>
<polyline clip-path="url(#clip3502)" style="stroke:#009af9; stroke-width:0; stroke-opacity:1; fill:none" points="
  263.233,1388.71 313.949,1388.71 364.666,1388.71 415.383,1388.71 466.099,1388.71 516.816,1388.71 
  567.532,1388.71 618.249,1388.71 618.249,1369.02 668.965,1369.02 668.965,1355.69 719.682,1355.69 719.682,1335.58 770.399,1335.58 
  770.399,1296.3 821.115,1296.3 821.115,1261.63 871.832,1261.63 871.832,1186.24 922.548,1186.24 922.548,1102.75 973.265,1102.75 973.265,983.672 1023.98,983.672 
  1023.98,869.821 1074.7,869.821 1074.7,677.916 1125.41,677.916 1125.41,589.091 1176.13,589.091 1176.13,433.188 1226.85,433.188 1226.85,298.823 1277.56,298.823 
  1277.56,219.435 1328.28,219.435 1328.28,194.408 1379,194.408 1379,206.819 1429.71,206.819 1429.71,226.82 1480.43,226.82 1480.43,283.027 1531.15,283.027 
  1531.15,422.11 1581.86,422.11 1581.86,565.398 1632.58,565.398 1632.58,731.354 1683.3,731.354 1683.3,884.181 1734.01,884.181 1734.01,1004.6 1784.73,1004.6 
  1784.73,1114.24 1835.45,1114.24 1835.45,1209.84 1886.16,1209.84 1886.16,1272.3 1936.88,1272.3 1936.88,1312.51 1987.6,1312.51 1987.6,1348.2 2038.31,1348.2 
  2038.31,1360 2089.03,1360 2089.03,1373.33 2139.75,1373.33 2139.75,1388.71 2190.46,1388.71 2241.18,1388.71 2291.9,1388.71 
  
  "/>
<path clip-path="url(#clip3502)" d="
M263.233 1388.71 L313.949 1388.71 L313.949 1388.71 L364.666 1388.71 L364.666 1388.71 L415.383 1388.71 L415.383 1388.71 L466.099 1388.71 L466.099 1388.71 L516.816 1388.71 
  L516.816 1388.71 L567.532 1388.71 L567.532 1388.71 L618.249 1388.71 L618.249 1388.71 L668.965 1388.71 L668.965 1388.71 L719.682 1388.71 L719.682 1388.71 L770.399 1388.71 
  L770.399 1388.71 L821.115 1388.71 L821.115 1388.71 L871.832 1388.71 L871.832 1186.24 L922.548 1186.24 L922.548 1102.75 L973.265 1102.75 L973.265 983.672 L1023.98 983.672 
  L1023.98 869.821 L1074.7 869.821 L1074.7 677.916 L1125.41 677.916 L1125.41 589.091 L1176.13 589.091 L1176.13 433.188 L1226.85 433.188 L1226.85 298.823 L1277.56 298.823 
  L1277.56 219.435 L1328.28 219.435 L1328.28 194.408 L1379 194.408 L1379 206.819 L1429.71 206.819 L1429.71 226.82 L1480.43 226.82 L1480.43 283.027 L1531.15 283.027 
  L1531.15 422.11 L1581.86 422.11 L1581.86 565.398 L1632.58 565.398 L1632.58 731.354 L1683.3 731.354 L1683.3 884.181 L1734.01 884.181 L1734.01 1004.6 L1784.73 1004.6 
  L1784.73 1114.24 L1835.45 1114.24 L1835.45 1209.84 L1886.16 1209.84 L1886.16 1388.71 L1936.88 1388.71 L1936.88 1388.71 L1987.6 1388.71 L1987.6 1388.71 L2038.31 1388.71 
  L2038.31 1388.71 L2089.03 1388.71 L2089.03 1388.71 L2139.75 1388.71 L2139.75 1388.71 L2190.46 1388.71 L2190.46 1388.71 L2241.18 1388.71 L2241.18 1388.71 L2291.9 1388.71 
  L2291.9 1388.71 L2291.9 1388.71 L2291.9 1388.71 L2241.18 1388.71 L2241.18 1388.71 L2190.46 1388.71 L2190.46 1388.71 L2139.75 1388.71 L2139.75 1388.71 L2089.03 1388.71 
  L2089.03 1388.71 L2038.31 1388.71 L2038.31 1388.71 L1987.6 1388.71 L1987.6 1388.71 L1936.88 1388.71 L1936.88 1388.71 L1886.16 1388.71 L1886.16 1388.71 L1835.45 1388.71 
  L1835.45 1388.71 L1784.73 1388.71 L1784.73 1388.71 L1734.01 1388.71 L1734.01 1388.71 L1683.3 1388.71 L1683.3 1388.71 L1632.58 1388.71 L1632.58 1388.71 L1581.86 1388.71 
  L1581.86 1388.71 L1531.15 1388.71 L1531.15 1388.71 L1480.43 1388.71 L1480.43 1388.71 L1429.71 1388.71 L1429.71 1388.71 L1379 1388.71 L1379 1388.71 L1328.28 1388.71 
  L1328.28 1388.71 L1277.56 1388.71 L1277.56 1388.71 L1226.85 1388.71 L1226.85 1388.71 L1176.13 1388.71 L1176.13 1388.71 L1125.41 1388.71 L1125.41 1388.71 L1074.7 1388.71 
  L1074.7 1388.71 L1023.98 1388.71 L1023.98 1388.71 L973.265 1388.71 L973.265 1388.71 L922.548 1388.71 L922.548 1388.71 L871.832 1388.71 L871.832 1388.71 L821.115 1388.71 
  L821.115 1388.71 L770.399 1388.71 L770.399 1388.71 L719.682 1388.71 L719.682 1388.71 L668.965 1388.71 L668.965 1388.71 L618.249 1388.71 L618.249 1388.71 L567.532 1388.71 
  L567.532 1388.71 L516.816 1388.71 L516.816 1388.71 L466.099 1388.71 L466.099 1388.71 L415.383 1388.71 L415.383 1388.71 L364.666 1388.71 L364.666 1388.71 L313.949 1388.71 
  L313.949 1388.71 L263.233 1388.71  Z
  " fill="#ffff00" fill-rule="evenodd" fill-opacity="1"/>
<polyline clip-path="url(#clip3502)" style="stroke:#e26f46; stroke-width:0; stroke-opacity:1; fill:none" points="
  263.233,1388.71 313.949,1388.71 364.666,1388.71 415.383,1388.71 466.099,1388.71 516.816,1388.71 
  567.532,1388.71 618.249,1388.71 668.965,1388.71 719.682,1388.71 770.399,1388.71 
  821.115,1388.71 871.832,1388.71 871.832,1186.24 922.548,1186.24 922.548,1102.75 973.265,1102.75 973.265,983.672 1023.98,983.672 
  1023.98,869.821 1074.7,869.821 1074.7,677.916 1125.41,677.916 1125.41,589.091 1176.13,589.091 1176.13,433.188 1226.85,433.188 1226.85,298.823 1277.56,298.823 
  1277.56,219.435 1328.28,219.435 1328.28,194.408 1379,194.408 1379,206.819 1429.71,206.819 1429.71,226.82 1480.43,226.82 1480.43,283.027 1531.15,283.027 
  1531.15,422.11 1581.86,422.11 1581.86,565.398 1632.58,565.398 1632.58,731.354 1683.3,731.354 1683.3,884.181 1734.01,884.181 1734.01,1004.6 1784.73,1004.6 
  1784.73,1114.24 1835.45,1114.24 1835.45,1209.84 1886.16,1209.84 1886.16,1388.71 1936.88,1388.71 1987.6,1388.71 2038.31,1388.71 
  2089.03,1388.71 2139.75,1388.71 2190.46,1388.71 2241.18,1388.71 2291.9,1388.71 
  
  "/>
<path clip-path="url(#clip3502)" d="
M263.233 1388.71 L313.949 1388.71 L313.949 1388.71 L364.666 1388.71 L364.666 1388.71 L415.383 1388.71 L415.383 1388.71 L466.099 1388.71 L466.099 1388.71 L516.816 1388.71 
  L516.816 1388.71 L567.532 1388.71 L567.532 1388.71 L618.249 1388.71 L618.249 1388.71 L668.965 1388.71 L668.965 1388.71 L719.682 1388.71 L719.682 1388.71 L770.399 1388.71 
  L770.399 1388.71 L821.115 1388.71 L821.115 1388.71 L871.832 1388.71 L871.832 1388.71 L922.548 1388.71 L922.548 1388.71 L973.265 1388.71 L973.265 1388.71 L1023.98 1388.71 
  L1023.98 1388.71 L1074.7 1388.71 L1074.7 1388.71 L1125.41 1388.71 L1125.41 589.091 L1176.13 589.091 L1176.13 433.188 L1226.85 433.188 L1226.85 298.823 L1277.56 298.823 
  L1277.56 219.435 L1328.28 219.435 L1328.28 194.408 L1379 194.408 L1379 206.819 L1429.71 206.819 L1429.71 226.82 L1480.43 226.82 L1480.43 283.027 L1531.15 283.027 
  L1531.15 422.11 L1581.86 422.11 L1581.86 565.398 L1632.58 565.398 L1632.58 1388.71 L1683.3 1388.71 L1683.3 1388.71 L1734.01 1388.71 L1734.01 1388.71 L1784.73 1388.71 
  L1784.73 1388.71 L1835.45 1388.71 L1835.45 1388.71 L1886.16 1388.71 L1886.16 1388.71 L1936.88 1388.71 L1936.88 1388.71 L1987.6 1388.71 L1987.6 1388.71 L2038.31 1388.71 
  L2038.31 1388.71 L2089.03 1388.71 L2089.03 1388.71 L2139.75 1388.71 L2139.75 1388.71 L2190.46 1388.71 L2190.46 1388.71 L2241.18 1388.71 L2241.18 1388.71 L2291.9 1388.71 
  L2291.9 1388.71 L2291.9 1388.71 L2291.9 1388.71 L2241.18 1388.71 L2241.18 1388.71 L2190.46 1388.71 L2190.46 1388.71 L2139.75 1388.71 L2139.75 1388.71 L2089.03 1388.71 
  L2089.03 1388.71 L2038.31 1388.71 L2038.31 1388.71 L1987.6 1388.71 L1987.6 1388.71 L1936.88 1388.71 L1936.88 1388.71 L1886.16 1388.71 L1886.16 1388.71 L1835.45 1388.71 
  L1835.45 1388.71 L1784.73 1388.71 L1784.73 1388.71 L1734.01 1388.71 L1734.01 1388.71 L1683.3 1388.71 L1683.3 1388.71 L1632.58 1388.71 L1632.58 1388.71 L1581.86 1388.71 
  L1581.86 1388.71 L1531.15 1388.71 L1531.15 1388.71 L1480.43 1388.71 L1480.43 1388.71 L1429.71 1388.71 L1429.71 1388.71 L1379 1388.71 L1379 1388.71 L1328.28 1388.71 
  L1328.28 1388.71 L1277.56 1388.71 L1277.56 1388.71 L1226.85 1388.71 L1226.85 1388.71 L1176.13 1388.71 L1176.13 1388.71 L1125.41 1388.71 L1125.41 1388.71 L1074.7 1388.71 
  L1074.7 1388.71 L1023.98 1388.71 L1023.98 1388.71 L973.265 1388.71 L973.265 1388.71 L922.548 1388.71 L922.548 1388.71 L871.832 1388.71 L871.832 1388.71 L821.115 1388.71 
  L821.115 1388.71 L770.399 1388.71 L770.399 1388.71 L719.682 1388.71 L719.682 1388.71 L668.965 1388.71 L668.965 1388.71 L618.249 1388.71 L618.249 1388.71 L567.532 1388.71 
  L567.532 1388.71 L516.816 1388.71 L516.816 1388.71 L466.099 1388.71 L466.099 1388.71 L415.383 1388.71 L415.383 1388.71 L364.666 1388.71 L364.666 1388.71 L313.949 1388.71 
  L313.949 1388.71 L263.233 1388.71  Z
  " fill="#76ee00" fill-rule="evenodd" fill-opacity="1"/>
<polyline clip-path="url(#clip3502)" style="stroke:#3da44d; stroke-width:0; stroke-opacity:1; fill:none" points="
  263.233,1388.71 313.949,1388.71 364.666,1388.71 415.383,1388.71 466.099,1388.71 516.816,1388.71 
  567.532,1388.71 618.249,1388.71 668.965,1388.71 719.682,1388.71 770.399,1388.71 
  821.115,1388.71 871.832,1388.71 922.548,1388.71 973.265,1388.71 1023.98,1388.71 
  1074.7,1388.71 1125.41,1388.71 1125.41,589.091 1176.13,589.091 1176.13,433.188 1226.85,433.188 1226.85,298.823 1277.56,298.823 
  1277.56,219.435 1328.28,219.435 1328.28,194.408 1379,194.408 1379,206.819 1429.71,206.819 1429.71,226.82 1480.43,226.82 1480.43,283.027 1531.15,283.027 
  1531.15,422.11 1581.86,422.11 1581.86,565.398 1632.58,565.398 1632.58,1388.71 1683.3,1388.71 1734.01,1388.71 1784.73,1388.71 
  1835.45,1388.71 1886.16,1388.71 1936.88,1388.71 1987.6,1388.71 2038.31,1388.71 
  2089.03,1388.71 2139.75,1388.71 2190.46,1388.71 2241.18,1388.71 2291.9,1388.71 
  
  "/>
<polyline clip-path="url(#clip3502)" style="stroke:#000000; stroke-width:2.8; stroke-opacity:1; fill:none" points="
  263.233,1388.61 313.949,1388.61 313.949,1388.1 364.666,1388.1 364.666,1388.71 415.383,1388.71 415.383,1388.41 466.099,1388.41 466.099,1386.97 516.816,1386.97 
  516.816,1380.71 567.532,1380.71 567.532,1376.51 618.249,1376.51 618.249,1369.02 668.965,1369.02 668.965,1355.69 719.682,1355.69 719.682,1335.58 770.399,1335.58 
  770.399,1296.3 821.115,1296.3 821.115,1261.63 871.832,1261.63 871.832,1186.24 922.548,1186.24 922.548,1102.75 973.265,1102.75 973.265,983.672 1023.98,983.672 
  1023.98,869.821 1074.7,869.821 1074.7,677.916 1125.41,677.916 1125.41,589.091 1176.13,589.091 1176.13,433.188 1226.85,433.188 1226.85,298.823 1277.56,298.823 
  1277.56,219.435 1328.28,219.435 1328.28,194.408 1379,194.408 1379,206.819 1429.71,206.819 1429.71,226.82 1480.43,226.82 1480.43,283.027 1531.15,283.027 
  1531.15,422.11 1581.86,422.11 1581.86,565.398 1632.58,565.398 1632.58,731.354 1683.3,731.354 1683.3,884.181 1734.01,884.181 1734.01,1004.6 1784.73,1004.6 
  1784.73,1114.24 1835.45,1114.24 1835.45,1209.84 1886.16,1209.84 1886.16,1272.3 1936.88,1272.3 1936.88,1312.51 1987.6,1312.51 1987.6,1348.2 2038.31,1348.2 
  2038.31,1360 2089.03,1360 2089.03,1373.33 2139.75,1373.33 2139.75,1384 2190.46,1384 2190.46,1385.53 2241.18,1385.53 2241.18,1388.2 2291.9,1388.2 
  
  "/>
<path clip-path="url(#clip3502)" d="
M1124.21 1388.71 L1624.01 1388.71 L1624.01 158.579 L1124.21 158.579 L1124.21 1388.71  Z
  " fill="#808080" fill-rule="evenodd" fill-opacity="0.5"/>
<polyline clip-path="url(#clip3502)" style="stroke:#000000; stroke-width:0; stroke-opacity:1; fill:none" points="
  1124.21,1388.71 1624.01,1388.71 1624.01,158.579 1124.21,158.579 1124.21,1388.71 
  "/>
<polyline clip-path="url(#clip3502)" style="stroke:#696969; stroke-width:4; stroke-opacity:1; fill:none" points="
  1374.11,1388.71 1374.11,158.579 
  "/>
<polyline clip-path="url(#clip3502)" style="stroke:#000000; stroke-width:4; stroke-opacity:1; fill:none" stroke-dasharray="16, 10" points="
  1430.9,1388.71 1430.9,158.579 
  "/>
<polyline clip-path="url(#clip3502)" style="stroke:#000000; stroke-width:4; stroke-opacity:1; fill:none" stroke-dasharray="2, 4" points="
  1353.64,1388.71 1353.64,158.579 
  "/>
<path clip-path="url(#clip3500)" d="
M1463.01 689.035 L2280.76 689.035 L2280.76 205.195 L1463.01 205.195  Z
  " fill="#ffffff" fill-rule="evenodd" fill-opacity="1"/>
<polyline clip-path="url(#clip3500)" style="stroke:#000000; stroke-width:4; stroke-opacity:1; fill:none" points="
  1463.01,689.035 2280.76,689.035 2280.76,205.195 1463.01,205.195 1463.01,689.035 
  "/>
<path clip-path="url(#clip3500)" d="
M1487.01 289.867 L1631.01 289.867 L1631.01 241.483 L1487.01 241.483 L1487.01 289.867  Z
  " fill="#ff0000" fill-rule="evenodd" fill-opacity="1"/>
<polyline clip-path="url(#clip3500)" style="stroke:#009af9; stroke-width:0; stroke-opacity:1; fill:none" points="
  1487.01,241.483 1631.01,241.483 
  "/>
<g clip-path="url(#clip3500)">
<text style="fill:#000000; fill-opacity:1; font-family:Arial,Helvetica Neue,Helvetica,sans-serif; font-size:48px; text-anchor:start;" transform="rotate(0, 1655.01, 283.175)" x="1655.01" y="283.175">smallest 99.79% interval(s)</text>
</g>
<path clip-path="url(#clip3500)" d="
M1487.01 350.347 L1631.01 350.347 L1631.01 301.963 L1487.01 301.963 L1487.01 350.347  Z
  " fill="#ffff00" fill-rule="evenodd" fill-opacity="1"/>
<polyline clip-path="url(#clip3500)" style="stroke:#e26f46; stroke-width:0; stroke-opacity:1; fill:none" points="
  1487.01,301.963 1631.01,301.963 
  "/>
<g clip-path="url(#clip3500)">
<text style="fill:#000000; fill-opacity:1; font-family:Arial,Helvetica Neue,Helvetica,sans-serif; font-size:48px; text-anchor:start;" transform="rotate(0, 1655.01, 343.655)" x="1655.01" y="343.655">smallest 95.83% interval(s)</text>
</g>
<path clip-path="url(#clip3500)" d="
M1487.01 410.827 L1631.01 410.827 L1631.01 362.443 L1487.01 362.443 L1487.01 410.827  Z
  " fill="#76ee00" fill-rule="evenodd" fill-opacity="1"/>
<polyline clip-path="url(#clip3500)" style="stroke:#3da44d; stroke-width:0; stroke-opacity:1; fill:none" points="
  1487.01,362.443 1631.01,362.443 
  "/>
<g clip-path="url(#clip3500)">
<text style="fill:#000000; fill-opacity:1; font-family:Arial,Helvetica Neue,Helvetica,sans-serif; font-size:48px; text-anchor:start;" transform="rotate(0, 1655.01, 404.135)" x="1655.01" y="404.135">smallest 68.71% interval(s)</text>
</g>
<path clip-path="url(#clip3500)" d="
M1487.01 471.307 L1631.01 471.307 L1631.01 422.923 L1487.01 422.923 L1487.01 471.307  Z
  " fill="#808080" fill-rule="evenodd" fill-opacity="0.5"/>
<polyline clip-path="url(#clip3500)" style="stroke:#000000; stroke-width:0; stroke-opacity:1; fill:none" points="
  1487.01,471.307 1631.01,471.307 1631.01,422.923 1487.01,422.923 1487.01,471.307 
  "/>
<g clip-path="url(#clip3500)">
<text style="fill:#000000; fill-opacity:1; font-family:Arial,Helvetica Neue,Helvetica,sans-serif; font-size:48px; text-anchor:start;" transform="rotate(0, 1655.01, 464.615)" x="1655.01" y="464.615">std. dev.</text>
</g>
<polyline clip-path="url(#clip3500)" style="stroke:#696969; stroke-width:4; stroke-opacity:1; fill:none" points="
  1487.01,507.595 1631.01,507.595 
  "/>
<g clip-path="url(#clip3500)">
<text style="fill:#000000; fill-opacity:1; font-family:Arial,Helvetica Neue,Helvetica,sans-serif; font-size:48px; text-anchor:start;" transform="rotate(0, 1655.01, 525.095)" x="1655.01" y="525.095">mean</text>
</g>
<polyline clip-path="url(#clip3500)" style="stroke:#000000; stroke-width:4; stroke-opacity:1; fill:none" stroke-dasharray="16, 10" points="
  1487.01,568.075 1631.01,568.075 
  "/>
<g clip-path="url(#clip3500)">
<text style="fill:#000000; fill-opacity:1; font-family:Arial,Helvetica Neue,Helvetica,sans-serif; font-size:48px; text-anchor:start;" transform="rotate(0, 1655.01, 585.575)" x="1655.01" y="585.575">global mode</text>
</g>
<polyline clip-path="url(#clip3500)" style="stroke:#000000; stroke-width:4; stroke-opacity:1; fill:none" stroke-dasharray="2, 4" points="
  1487.01,628.555 1631.01,628.555 
  "/>
<g clip-path="url(#clip3500)">
<text style="fill:#000000; fill-opacity:1; font-family:Arial,Helvetica Neue,Helvetica,sans-serif; font-size:48px; text-anchor:start;" transform="rotate(0, 1655.01, 646.055)" x="1655.01" y="646.055">local mode</text>
</g>
</svg>
