<?xml version="1.0" encoding="utf-8"?>
<svg xmlns="http://www.w3.org/2000/svg" xmlns:xlink="http://www.w3.org/1999/xlink" width="600" height="400" viewBox="0 0 2400 1600">
<defs>
  <clipPath id="clip2900">
    <rect x="0" y="0" width="2400" height="1600"/>
  </clipPath>
</defs>
<path clip-path="url(#clip2900)" d="
M0 1600 L2400 1600 L2400 0 L0 0  Z
  " fill="#ffffff" fill-rule="evenodd" fill-opacity="1"/>
<defs>
  <clipPath id="clip2901">
    <rect x="480" y="0" width="1681" height="1600"/>
  </clipPath>
</defs>
<path clip-path="url(#clip2900)" d="
M167.279 1487.47 L2352.76 1487.47 L2352.76 121.675 L167.279 121.675  Z
  " fill="#ffffff" fill-rule="evenodd" fill-opacity="1"/>
<defs>
  <clipPath id="clip2902">
    <rect x="167" y="121" width="2186" height="1367"/>
  </clipPath>
</defs>
<polyline clip-path="url(#clip2902)" style="stroke:#000000; stroke-width:2; stroke-opacity:0.1; fill:none" points="
  229.132,1487.47 229.132,121.675 
  "/>
<polyline clip-path="url(#clip2902)" style="stroke:#000000; stroke-width:2; stroke-opacity:0.1; fill:none" points="
  572.761,1487.47 572.761,121.675 
  "/>
<polyline clip-path="url(#clip2902)" style="stroke:#000000; stroke-width:2; stroke-opacity:0.1; fill:none" points="
  916.389,1487.47 916.389,121.675 
  "/>
<polyline clip-path="url(#clip2902)" style="stroke:#000000; stroke-width:2; stroke-opacity:0.1; fill:none" points="
  1260.02,1487.47 1260.02,121.675 
  "/>
<polyline clip-path="url(#clip2902)" style="stroke:#000000; stroke-width:2; stroke-opacity:0.1; fill:none" points="
  1603.65,1487.47 1603.65,121.675 
  "/>
<polyline clip-path="url(#clip2902)" style="stroke:#000000; stroke-width:2; stroke-opacity:0.1; fill:none" points="
  1947.27,1487.47 1947.27,121.675 
  "/>
<polyline clip-path="url(#clip2902)" style="stroke:#000000; stroke-width:2; stroke-opacity:0.1; fill:none" points="
  2290.9,1487.47 2290.9,121.675 
  "/>
<polyline clip-path="url(#clip2902)" style="stroke:#000000; stroke-width:2; stroke-opacity:0.1; fill:none" points="
  167.279,1448.82 2352.76,1448.82 
  "/>
<polyline clip-path="url(#clip2902)" style="stroke:#000000; stroke-width:2; stroke-opacity:0.1; fill:none" points="
  167.279,1149.17 2352.76,1149.17 
  "/>
<polyline clip-path="url(#clip2902)" style="stroke:#000000; stroke-width:2; stroke-opacity:0.1; fill:none" points="
  167.279,849.522 2352.76,849.522 
  "/>
<polyline clip-path="url(#clip2902)" style="stroke:#000000; stroke-width:2; stroke-opacity:0.1; fill:none" points="
  167.279,549.873 2352.76,549.873 
  "/>
<polyline clip-path="url(#clip2902)" style="stroke:#000000; stroke-width:2; stroke-opacity:0.1; fill:none" points="
  167.279,250.225 2352.76,250.225 
  "/>
<polyline clip-path="url(#clip2900)" style="stroke:#000000; stroke-width:4; stroke-opacity:1; fill:none" points="
  167.279,1487.47 2352.76,1487.47 
  "/>
<polyline clip-path="url(#clip2900)" style="stroke:#000000; stroke-width:4; stroke-opacity:1; fill:none" points="
  167.279,1487.47 167.279,121.675 
  "/>
<polyline clip-path="url(#clip2900)" style="stroke:#000000; stroke-width:4; stroke-opacity:1; fill:none" points="
  229.132,1487.47 229.132,1471.09 
  "/>
<polyline clip-path="url(#clip2900)" style="stroke:#000000; stroke-width:4; stroke-opacity:1; fill:none" points="
  572.761,1487.47 572.761,1471.09 
  "/>
<polyline clip-path="url(#clip2900)" style="stroke:#000000; stroke-width:4; stroke-opacity:1; fill:none" points="
  916.389,1487.47 916.389,1471.09 
  "/>
<polyline clip-path="url(#clip2900)" style="stroke:#000000; stroke-width:4; stroke-opacity:1; fill:none" points="
  1260.02,1487.47 1260.02,1471.09 
  "/>
<polyline clip-path="url(#clip2900)" style="stroke:#000000; stroke-width:4; stroke-opacity:1; fill:none" points="
  1603.65,1487.47 1603.65,1471.09 
  "/>
<polyline clip-path="url(#clip2900)" style="stroke:#000000; stroke-width:4; stroke-opacity:1; fill:none" points="
  1947.27,1487.47 1947.27,1471.09 
  "/>
<polyline clip-path="url(#clip2900)" style="stroke:#000000; stroke-width:4; stroke-opacity:1; fill:none" points="
  2290.9,1487.47 2290.9,1471.09 
  "/>
<polyline clip-path="url(#clip2900)" style="stroke:#000000; stroke-width:4; stroke-opacity:1; fill:none" points="
  167.279,1448.82 193.505,1448.82 
  "/>
<polyline clip-path="url(#clip2900)" style="stroke:#000000; stroke-width:4; stroke-opacity:1; fill:none" points="
  167.279,1149.17 193.505,1149.17 
  "/>
<polyline clip-path="url(#clip2900)" style="stroke:#000000; stroke-width:4; stroke-opacity:1; fill:none" points="
  167.279,849.522 193.505,849.522 
  "/>
<polyline clip-path="url(#clip2900)" style="stroke:#000000; stroke-width:4; stroke-opacity:1; fill:none" points="
  167.279,549.873 193.505,549.873 
  "/>
<polyline clip-path="url(#clip2900)" style="stroke:#000000; stroke-width:4; stroke-opacity:1; fill:none" points="
  167.279,250.225 193.505,250.225 
  "/>
<g clip-path="url(#clip2900)">
<text style="fill:#000000; fill-opacity:1; font-family:Arial,Helvetica Neue,Helvetica,sans-serif; font-size:48px; text-anchor:middle;" transform="rotate(0, 229.132, 1541.47)" x="229.132" y="1541.47">-2</text>
</g>
<g clip-path="url(#clip2900)">
<text style="fill:#000000; fill-opacity:1; font-family:Arial,Helvetica Neue,Helvetica,sans-serif; font-size:48px; text-anchor:middle;" transform="rotate(0, 572.761, 1541.47)" x="572.761" y="1541.47">-1</text>
</g>
<g clip-path="url(#clip2900)">
<text style="fill:#000000; fill-opacity:1; font-family:Arial,Helvetica Neue,Helvetica,sans-serif; font-size:48px; text-anchor:middle;" transform="rotate(0, 916.389, 1541.47)" x="916.389" y="1541.47">0</text>
</g>
<g clip-path="url(#clip2900)">
<text style="fill:#000000; fill-opacity:1; font-family:Arial,Helvetica Neue,Helvetica,sans-serif; font-size:48px; text-anchor:middle;" transform="rotate(0, 1260.02, 1541.47)" x="1260.02" y="1541.47">1</text>
</g>
<g clip-path="url(#clip2900)">
<text style="fill:#000000; fill-opacity:1; font-family:Arial,Helvetica Neue,Helvetica,sans-serif; font-size:48px; text-anchor:middle;" transform="rotate(0, 1603.65, 1541.47)" x="1603.65" y="1541.47">2</text>
</g>
<g clip-path="url(#clip2900)">
<text style="fill:#000000; fill-opacity:1; font-family:Arial,Helvetica Neue,Helvetica,sans-serif; font-size:48px; text-anchor:middle;" transform="rotate(0, 1947.27, 1541.47)" x="1947.27" y="1541.47">3</text>
</g>
<g clip-path="url(#clip2900)">
<text style="fill:#000000; fill-opacity:1; font-family:Arial,Helvetica Neue,Helvetica,sans-serif; font-size:48px; text-anchor:middle;" transform="rotate(0, 2290.9, 1541.47)" x="2290.9" y="1541.47">4</text>
</g>
<g clip-path="url(#clip2900)">
<text style="fill:#000000; fill-opacity:1; font-family:Arial,Helvetica Neue,Helvetica,sans-serif; font-size:48px; text-anchor:end;" transform="rotate(0, 143.279, 1466.32)" x="143.279" y="1466.32">0</text>
</g>
<g clip-path="url(#clip2900)">
<text style="fill:#000000; fill-opacity:1; font-family:Arial,Helvetica Neue,Helvetica,sans-serif; font-size:48px; text-anchor:end;" transform="rotate(0, 143.279, 1166.67)" x="143.279" y="1166.67">200</text>
</g>
<g clip-path="url(#clip2900)">
<text style="fill:#000000; fill-opacity:1; font-family:Arial,Helvetica Neue,Helvetica,sans-serif; font-size:48px; text-anchor:end;" transform="rotate(0, 143.279, 867.022)" x="143.279" y="867.022">400</text>
</g>
<g clip-path="url(#clip2900)">
<text style="fill:#000000; fill-opacity:1; font-family:Arial,Helvetica Neue,Helvetica,sans-serif; font-size:48px; text-anchor:end;" transform="rotate(0, 143.279, 567.373)" x="143.279" y="567.373">600</text>
</g>
<g clip-path="url(#clip2900)">
<text style="fill:#000000; fill-opacity:1; font-family:Arial,Helvetica Neue,Helvetica,sans-serif; font-size:48px; text-anchor:end;" transform="rotate(0, 143.279, 267.725)" x="143.279" y="267.725">800</text>
</g>
<g clip-path="url(#clip2900)">
<text style="fill:#000000; fill-opacity:1; font-family:Arial,Helvetica Neue,Helvetica,sans-serif; font-size:84px; text-anchor:middle;" transform="rotate(0, 1260.02, 73.2)" x="1260.02" y="73.2">Data</text>
</g>
<polyline clip-path="url(#clip2902)" style="stroke:#009af9; stroke-width:4; stroke-opacity:1; fill:none" points="
  229.132,1448.82 229.132,1328.96 263.495,1328.96 263.495,1254.05 297.858,1254.05 297.858,1299 332.221,1299 332.221,1254.05 366.584,1254.05 366.584,1104.22 
  400.946,1104.22 400.946,1044.29 435.309,1044.29 435.309,999.347 469.672,999.347 469.672,1044.29 504.035,1044.29 504.035,759.628 538.398,759.628 538.398,789.592 
  572.761,789.592 572.761,804.575 607.124,804.575 607.124,1074.26 641.486,1074.26 641.486,894.47 675.849,894.47 675.849,924.434 710.212,924.434 710.212,999.347 
  744.575,999.347 744.575,1074.26 778.938,1074.26 778.938,1209.1 813.301,1209.1 813.301,1284.01 847.663,1284.01 847.663,1209.1 882.026,1209.1 882.026,1328.96 
  916.389,1328.96 916.389,1403.87 950.752,1403.87 950.752,1418.86 985.115,1418.86 985.115,1448.82 1019.48,1448.82 1019.48,1433.84 1053.84,1433.84 
  1088.2,1433.84 1122.57,1433.84 1156.93,1433.84 1156.93,1418.86 1191.29,1418.86 1191.29,1299 1225.65,1299 1225.65,1328.96 
  1260.02,1328.96 1260.02,1254.05 1294.38,1254.05 1294.38,1059.28 1328.74,1059.28 1328.74,1029.31 1363.11,1029.31 1363.11,879.487 1397.47,879.487 1397.47,789.592 
  1431.83,789.592 1431.83,489.944 1466.19,489.944 1466.19,639.768 1500.56,639.768 1500.56,594.821 1534.92,594.821 1534.92,385.066 1569.28,385.066 1569.28,160.33 
  1603.65,160.33 1603.65,280.189 1638.01,280.189 1638.01,250.225 1672.37,250.225 1672.37,444.996 1706.73,444.996 1706.73,699.698 1741.1,699.698 1741.1,579.838 
  1775.46,579.838 1775.46,804.575 1809.82,804.575 1809.82,954.399 1844.19,954.399 1844.19,849.522 1878.55,849.522 1878.55,1299 1912.91,1299 1912.91,1239.07 
  1947.27,1239.07 1947.27,1313.98 1981.64,1313.98 1981.64,1373.91 2016,1373.91 2050.36,1373.91 2050.36,1448.82 2084.73,1448.82 
  2119.09,1448.82 2119.09,1418.86 2153.45,1418.86 2153.45,1433.84 2187.81,1433.84 2187.81,1448.82 2222.18,1448.82 2256.54,1448.82 
  2290.9,1448.82 
  "/>
<path clip-path="url(#clip2900)" d="
M1939.1 326.155 L2280.76 326.155 L2280.76 205.195 L1939.1 205.195  Z
  " fill="#ffffff" fill-rule="evenodd" fill-opacity="1"/>
<polyline clip-path="url(#clip2900)" style="stroke:#000000; stroke-width:4; stroke-opacity:1; fill:none" points="
  1939.1,326.155 2280.76,326.155 2280.76,205.195 1939.1,205.195 1939.1,326.155 
  "/>
<polyline clip-path="url(#clip2900)" style="stroke:#009af9; stroke-width:4; stroke-opacity:1; fill:none" points="
  1963.1,265.675 2107.1,265.675 
  "/>
<g clip-path="url(#clip2900)">
<text style="fill:#000000; fill-opacity:1; font-family:Arial,Helvetica Neue,Helvetica,sans-serif; font-size:48px; text-anchor:start;" transform="rotate(0, 2131.1, 283.175)" x="2131.1" y="283.175">Data</text>
</g>
</svg>
