<?xml version="1.0" encoding="utf-8"?>
<svg xmlns="http://www.w3.org/2000/svg" xmlns:xlink="http://www.w3.org/1999/xlink" width="600" height="400" viewBox="0 0 2400 1600">
<defs>
  <clipPath id="clip4400">
    <rect x="0" y="0" width="2400" height="1600"/>
  </clipPath>
</defs>
<path clip-path="url(#clip4400)" d="
M0 1600 L2400 1600 L2400 0 L0 0  Z
  " fill="#ffffff" fill-rule="evenodd" fill-opacity="1"/>
<defs>
  <clipPath id="clip4401">
    <rect x="480" y="0" width="1681" height="1600"/>
  </clipPath>
</defs>
<path clip-path="url(#clip4400)" d="
M167.279 1487.47 L2352.76 1487.47 L2352.76 121.675 L167.279 121.675  Z
  " fill="#ffffff" fill-rule="evenodd" fill-opacity="1"/>
<defs>
  <clipPath id="clip4402">
    <rect x="167" y="121" width="2186" height="1367"/>
  </clipPath>
</defs>
<polyline clip-path="url(#clip4402)" style="stroke:#000000; stroke-width:2; stroke-opacity:0.1; fill:none" points="
  229.132,1487.47 229.132,121.675 
  "/>
<polyline clip-path="url(#clip4402)" style="stroke:#000000; stroke-width:2; stroke-opacity:0.1; fill:none" points="
  744.575,1487.47 744.575,121.675 
  "/>
<polyline clip-path="url(#clip4402)" style="stroke:#000000; stroke-width:2; stroke-opacity:0.1; fill:none" points="
  1260.02,1487.47 1260.02,121.675 
  "/>
<polyline clip-path="url(#clip4402)" style="stroke:#000000; stroke-width:2; stroke-opacity:0.1; fill:none" points="
  1775.46,1487.47 1775.46,121.675 
  "/>
<polyline clip-path="url(#clip4402)" style="stroke:#000000; stroke-width:2; stroke-opacity:0.1; fill:none" points="
  2290.9,1487.47 2290.9,121.675 
  "/>
<polyline clip-path="url(#clip4402)" style="stroke:#000000; stroke-width:2; stroke-opacity:0.1; fill:none" points="
  167.279,1448.82 2352.76,1448.82 
  "/>
<polyline clip-path="url(#clip4402)" style="stroke:#000000; stroke-width:2; stroke-opacity:0.1; fill:none" points="
  167.279,1149.17 2352.76,1149.17 
  "/>
<polyline clip-path="url(#clip4402)" style="stroke:#000000; stroke-width:2; stroke-opacity:0.1; fill:none" points="
  167.279,849.522 2352.76,849.522 
  "/>
<polyline clip-path="url(#clip4402)" style="stroke:#000000; stroke-width:2; stroke-opacity:0.1; fill:none" points="
  167.279,549.873 2352.76,549.873 
  "/>
<polyline clip-path="url(#clip4402)" style="stroke:#000000; stroke-width:2; stroke-opacity:0.1; fill:none" points="
  167.279,250.225 2352.76,250.225 
  "/>
<polyline clip-path="url(#clip4400)" style="stroke:#000000; stroke-width:4; stroke-opacity:1; fill:none" points="
  167.279,1487.47 2352.76,1487.47 
  "/>
<polyline clip-path="url(#clip4400)" style="stroke:#000000; stroke-width:4; stroke-opacity:1; fill:none" points="
  167.279,1487.47 167.279,121.675 
  "/>
<polyline clip-path="url(#clip4400)" style="stroke:#000000; stroke-width:4; stroke-opacity:1; fill:none" points="
  229.132,1487.47 229.132,1471.09 
  "/>
<polyline clip-path="url(#clip4400)" style="stroke:#000000; stroke-width:4; stroke-opacity:1; fill:none" points="
  744.575,1487.47 744.575,1471.09 
  "/>
<polyline clip-path="url(#clip4400)" style="stroke:#000000; stroke-width:4; stroke-opacity:1; fill:none" points="
  1260.02,1487.47 1260.02,1471.09 
  "/>
<polyline clip-path="url(#clip4400)" style="stroke:#000000; stroke-width:4; stroke-opacity:1; fill:none" points="
  1775.46,1487.47 1775.46,1471.09 
  "/>
<polyline clip-path="url(#clip4400)" style="stroke:#000000; stroke-width:4; stroke-opacity:1; fill:none" points="
  2290.9,1487.47 2290.9,1471.09 
  "/>
<polyline clip-path="url(#clip4400)" style="stroke:#000000; stroke-width:4; stroke-opacity:1; fill:none" points="
  167.279,1448.82 193.505,1448.82 
  "/>
<polyline clip-path="url(#clip4400)" style="stroke:#000000; stroke-width:4; stroke-opacity:1; fill:none" points="
  167.279,1149.17 193.505,1149.17 
  "/>
<polyline clip-path="url(#clip4400)" style="stroke:#000000; stroke-width:4; stroke-opacity:1; fill:none" points="
  167.279,849.522 193.505,849.522 
  "/>
<polyline clip-path="url(#clip4400)" style="stroke:#000000; stroke-width:4; stroke-opacity:1; fill:none" points="
  167.279,549.873 193.505,549.873 
  "/>
<polyline clip-path="url(#clip4400)" style="stroke:#000000; stroke-width:4; stroke-opacity:1; fill:none" points="
  167.279,250.225 193.505,250.225 
  "/>
<g clip-path="url(#clip4400)">
<text style="fill:#000000; fill-opacity:1; font-family:Arial,Helvetica Neue,Helvetica,sans-serif; font-size:48px; text-anchor:middle;" transform="rotate(0, 229.132, 1541.47)" x="229.132" y="1541.47">-4</text>
</g>
<g clip-path="url(#clip4400)">
<text style="fill:#000000; fill-opacity:1; font-family:Arial,Helvetica Neue,Helvetica,sans-serif; font-size:48px; text-anchor:middle;" transform="rotate(0, 744.575, 1541.47)" x="744.575" y="1541.47">-2</text>
</g>
<g clip-path="url(#clip4400)">
<text style="fill:#000000; fill-opacity:1; font-family:Arial,Helvetica Neue,Helvetica,sans-serif; font-size:48px; text-anchor:middle;" transform="rotate(0, 1260.02, 1541.47)" x="1260.02" y="1541.47">0</text>
</g>
<g clip-path="url(#clip4400)">
<text style="fill:#000000; fill-opacity:1; font-family:Arial,Helvetica Neue,Helvetica,sans-serif; font-size:48px; text-anchor:middle;" transform="rotate(0, 1775.46, 1541.47)" x="1775.46" y="1541.47">2</text>
</g>
<g clip-path="url(#clip4400)">
<text style="fill:#000000; fill-opacity:1; font-family:Arial,Helvetica Neue,Helvetica,sans-serif; font-size:48px; text-anchor:middle;" transform="rotate(0, 2290.9, 1541.47)" x="2290.9" y="1541.47">4</text>
</g>
<g clip-path="url(#clip4400)">
<text style="fill:#000000; fill-opacity:1; font-family:Arial,Helvetica Neue,Helvetica,sans-serif; font-size:48px; text-anchor:end;" transform="rotate(0, 143.279, 1466.32)" x="143.279" y="1466.32">0</text>
</g>
<g clip-path="url(#clip4400)">
<text style="fill:#000000; fill-opacity:1; font-family:Arial,Helvetica Neue,Helvetica,sans-serif; font-size:48px; text-anchor:end;" transform="rotate(0, 143.279, 1166.67)" x="143.279" y="1166.67">200</text>
</g>
<g clip-path="url(#clip4400)">
<text style="fill:#000000; fill-opacity:1; font-family:Arial,Helvetica Neue,Helvetica,sans-serif; font-size:48px; text-anchor:end;" transform="rotate(0, 143.279, 867.022)" x="143.279" y="867.022">400</text>
</g>
<g clip-path="url(#clip4400)">
<text style="fill:#000000; fill-opacity:1; font-family:Arial,Helvetica Neue,Helvetica,sans-serif; font-size:48px; text-anchor:end;" transform="rotate(0, 143.279, 567.373)" x="143.279" y="567.373">600</text>
</g>
<g clip-path="url(#clip4400)">
<text style="fill:#000000; fill-opacity:1; font-family:Arial,Helvetica Neue,Helvetica,sans-serif; font-size:48px; text-anchor:end;" transform="rotate(0, 143.279, 267.725)" x="143.279" y="267.725">800</text>
</g>
<g clip-path="url(#clip4400)">
<text style="fill:#000000; fill-opacity:1; font-family:Arial,Helvetica Neue,Helvetica,sans-serif; font-size:84px; text-anchor:middle;" transform="rotate(0, 1260.02, 73.2)" x="1260.02" y="73.2">Data, True Model and Best Fit</text>
</g>
<polyline clip-path="url(#clip4402)" style="stroke:#009af9; stroke-width:4; stroke-opacity:1; fill:none" points="
  744.575,1448.82 744.575,1328.96 770.347,1328.96 770.347,1254.05 796.119,1254.05 796.119,1299 821.891,1299 821.891,1254.05 847.663,1254.05 847.663,1104.22 
  873.436,1104.22 873.436,1044.29 899.208,1044.29 899.208,999.347 924.98,999.347 924.98,1044.29 950.752,1044.29 950.752,759.628 976.524,759.628 976.524,789.592 
  1002.3,789.592 1002.3,804.575 1028.07,804.575 1028.07,1074.26 1053.84,1074.26 1053.84,894.47 1079.61,894.47 1079.61,924.434 1105.38,924.434 1105.38,999.347 
  1131.16,999.347 1131.16,1074.26 1156.93,1074.26 1156.93,1209.1 1182.7,1209.1 1182.7,1284.01 1208.47,1284.01 1208.47,1209.1 1234.25,1209.1 1234.25,1328.96 
  1260.02,1328.96 1260.02,1403.87 1285.79,1403.87 1285.79,1418.86 1311.56,1418.86 1311.56,1448.82 1337.33,1448.82 1337.33,1433.84 1363.11,1433.84 
  1388.88,1433.84 1414.65,1433.84 1440.42,1433.84 1440.42,1418.86 1466.19,1418.86 1466.19,1299 1491.97,1299 1491.97,1328.96 
  1517.74,1328.96 1517.74,1254.05 1543.51,1254.05 1543.51,1059.28 1569.28,1059.28 1569.28,1029.31 1595.06,1029.31 1595.06,879.487 1620.83,879.487 1620.83,789.592 
  1646.6,789.592 1646.6,489.944 1672.37,489.944 1672.37,639.768 1698.14,639.768 1698.14,594.821 1723.92,594.821 1723.92,385.066 1749.69,385.066 1749.69,160.33 
  1775.46,160.33 1775.46,280.189 1801.23,280.189 1801.23,250.225 1827,250.225 1827,444.996 1852.78,444.996 1852.78,699.698 1878.55,699.698 1878.55,579.838 
  1904.32,579.838 1904.32,804.575 1930.09,804.575 1930.09,954.399 1955.87,954.399 1955.87,849.522 1981.64,849.522 1981.64,1299 2007.41,1299 2007.41,1239.07 
  2033.18,1239.07 2033.18,1313.98 2058.95,1313.98 2058.95,1373.91 2084.73,1373.91 2110.5,1373.91 2110.5,1448.82 2136.27,1448.82 
  2162.04,1448.82 2162.04,1418.86 2187.81,1418.86 2187.81,1433.84 2213.59,1433.84 2213.59,1448.82 2239.36,1448.82 2265.13,1448.82 
  2290.9,1448.82 
  "/>
<polyline clip-path="url(#clip4402)" style="stroke:#e26f46; stroke-width:4; stroke-opacity:1; fill:none" points="
  229.132,1448.82 231.709,1448.82 234.287,1448.82 236.864,1448.82 239.441,1448.82 242.018,1448.82 244.596,1448.82 247.173,1448.82 249.75,1448.82 252.327,1448.82 
  254.904,1448.82 257.482,1448.82 260.059,1448.82 262.636,1448.82 265.213,1448.82 267.79,1448.82 270.368,1448.82 272.945,1448.82 275.522,1448.82 278.099,1448.82 
  280.677,1448.82 283.254,1448.82 285.831,1448.82 288.408,1448.82 290.985,1448.82 293.563,1448.82 296.14,1448.82 298.717,1448.82 301.294,1448.82 303.871,1448.82 
  306.449,1448.82 309.026,1448.82 311.603,1448.82 314.18,1448.82 316.758,1448.82 319.335,1448.82 321.912,1448.82 324.489,1448.82 327.066,1448.82 329.644,1448.82 
  332.221,1448.82 334.798,1448.82 337.375,1448.82 339.952,1448.82 342.53,1448.82 345.107,1448.82 347.684,1448.82 350.261,1448.82 352.838,1448.82 355.416,1448.82 
  357.993,1448.82 360.57,1448.82 363.147,1448.82 365.725,1448.82 368.302,1448.82 370.879,1448.82 373.456,1448.82 376.033,1448.82 378.611,1448.82 381.188,1448.81 
  383.765,1448.81 386.342,1448.81 388.919,1448.81 391.497,1448.81 394.074,1448.81 396.651,1448.81 399.228,1448.81 401.806,1448.81 404.383,1448.81 406.96,1448.81 
  409.537,1448.8 412.114,1448.8 414.692,1448.8 417.269,1448.8 419.846,1448.8 422.423,1448.8 425,1448.79 427.578,1448.79 430.155,1448.79 432.732,1448.79 
  435.309,1448.78 437.887,1448.78 440.464,1448.78 443.041,1448.77 445.618,1448.77 448.195,1448.76 450.773,1448.76 453.35,1448.75 455.927,1448.75 458.504,1448.74 
  461.081,1448.73 463.659,1448.72 466.236,1448.72 468.813,1448.71 471.39,1448.7 473.968,1448.69 476.545,1448.67 479.122,1448.66 481.699,1448.65 484.276,1448.63 
  486.854,1448.62 489.431,1448.6 492.008,1448.58 494.585,1448.57 497.162,1448.54 499.74,1448.52 502.317,1448.5 504.894,1448.47 507.471,1448.44 510.048,1448.41 
  512.626,1448.38 515.203,1448.35 517.78,1448.31 520.357,1448.27 522.935,1448.23 525.512,1448.18 528.089,1448.13 530.666,1448.08 533.243,1448.03 535.821,1447.97 
  538.398,1447.9 540.975,1447.83 543.552,1447.76 546.129,1447.68 548.707,1447.6 551.284,1447.51 553.861,1447.42 556.438,1447.32 559.016,1447.21 561.593,1447.1 
  564.17,1446.97 566.747,1446.84 569.324,1446.71 571.902,1446.56 574.479,1446.4 577.056,1446.24 579.633,1446.06 582.21,1445.88 584.788,1445.68 587.365,1445.47 
  589.942,1445.25 592.519,1445.01 595.097,1444.76 597.674,1444.5 600.251,1444.22 602.828,1443.93 605.405,1443.61 607.983,1443.28 610.56,1442.94 613.137,1442.57 
  615.714,1442.18 618.291,1441.77 620.869,1441.34 623.446,1440.88 626.023,1440.41 628.6,1439.9 631.178,1439.37 633.755,1438.81 636.332,1438.23 638.909,1437.61 
  641.486,1436.96 644.064,1436.28 646.641,1435.57 649.218,1434.82 651.795,1434.03 654.372,1433.21 656.95,1432.34 659.527,1431.44 662.104,1430.49 664.681,1429.5 
  667.258,1428.47 669.836,1427.39 672.413,1426.26 674.99,1425.08 677.567,1423.84 680.145,1422.56 682.722,1421.22 685.299,1419.82 687.876,1418.36 690.453,1416.85 
  693.031,1415.27 695.608,1413.62 698.185,1411.92 700.762,1410.14 703.339,1408.3 705.917,1406.38 708.494,1404.39 711.071,1402.33 713.648,1400.19 716.226,1397.97 
  718.803,1395.67 721.38,1393.29 723.957,1390.83 726.534,1388.28 729.112,1385.64 731.689,1382.92 734.266,1380.11 736.843,1377.2 739.42,1374.21 741.998,1371.12 
  744.575,1367.93 747.152,1364.64 749.729,1361.26 752.307,1357.78 754.884,1354.2 757.461,1350.51 760.038,1346.72 762.615,1342.83 765.193,1338.84 767.77,1334.74 
  770.347,1330.53 772.924,1326.22 775.501,1321.8 778.079,1317.28 780.656,1312.65 783.233,1307.91 785.81,1303.07 788.388,1298.12 790.965,1293.06 793.542,1287.9 
  796.119,1282.63 798.696,1277.26 801.274,1271.79 803.851,1266.22 806.428,1260.54 809.005,1254.77 811.582,1248.9 814.16,1242.94 816.737,1236.88 819.314,1230.73 
  821.891,1224.49 824.469,1218.17 827.046,1211.76 829.623,1205.27 832.2,1198.71 834.777,1192.07 837.355,1185.36 839.932,1178.58 842.509,1171.74 845.086,1164.84 
  847.663,1157.88 850.241,1150.87 852.818,1143.82 855.395,1136.72 857.972,1129.59 860.549,1122.42 863.127,1115.23 865.704,1108.01 868.281,1100.78 870.858,1093.54 
  873.436,1086.29 876.013,1079.04 878.59,1071.8 881.167,1064.56 883.744,1057.35 886.322,1050.16 888.899,1043 891.476,1035.88 894.053,1028.8 896.63,1021.77 
  899.208,1014.79 901.785,1007.88 904.362,1001.04 906.939,994.269 909.517,987.584 912.094,980.987 914.671,974.486 917.248,968.088 919.825,961.797 922.403,955.622 
  924.98,949.568 927.557,943.642 930.134,937.85 932.711,932.198 935.289,926.693 937.866,921.34 940.443,916.145 943.02,911.115 945.598,906.253 948.175,901.567 
  950.752,897.061 953.329,892.741 955.906,888.611 958.484,884.675 961.061,880.94 963.638,877.408 966.215,874.084 968.792,870.972 971.37,868.076 973.947,865.398 
  976.524,862.942 979.101,860.712 981.679,858.709 984.256,856.936 986.833,855.395 989.41,854.088 991.987,853.017 994.565,852.182 997.142,851.585 999.719,851.226 
  1002.3,851.107 1004.87,851.226 1007.45,851.585 1010.03,852.182 1012.61,853.017 1015.18,854.088 1017.76,855.395 1020.34,856.936 1022.91,858.709 1025.49,860.712 
  1028.07,862.942 1030.65,865.398 1033.22,868.076 1035.8,870.972 1038.38,874.084 1040.95,877.408 1043.53,880.94 1046.11,884.675 1048.69,888.61 1051.26,892.741 
  1053.84,897.061 1056.42,901.567 1058.99,906.253 1061.57,911.114 1064.15,916.145 1066.73,921.34 1069.3,926.693 1071.88,932.198 1074.46,937.85 1077.04,943.642 
  1079.61,949.568 1082.19,955.621 1084.77,961.797 1087.34,968.087 1089.92,974.486 1092.5,980.986 1095.08,987.583 1097.65,994.268 1100.23,1001.03 1102.81,1007.88 
  1105.38,1014.79 1107.96,1021.76 1110.54,1028.79 1113.12,1035.87 1115.69,1043 1118.27,1050.16 1120.85,1057.35 1123.43,1064.56 1126,1071.79 1128.58,1079.04 
  1131.16,1086.28 1133.73,1093.53 1136.31,1100.78 1138.89,1108.01 1141.47,1115.22 1144.04,1122.42 1146.62,1129.58 1149.2,1136.72 1151.77,1143.81 1154.35,1150.86 
  1156.93,1157.87 1159.51,1164.82 1162.08,1171.72 1164.66,1178.56 1167.24,1185.34 1169.82,1192.05 1172.39,1198.69 1174.97,1205.25 1177.55,1211.74 1180.12,1218.14 
  1182.7,1224.46 1185.28,1230.7 1187.86,1236.84 1190.43,1242.9 1193.01,1248.86 1195.59,1254.72 1198.16,1260.49 1200.74,1266.16 1203.32,1271.73 1205.9,1277.2 
  1208.47,1282.56 1211.05,1287.82 1213.63,1292.97 1216.2,1298.02 1218.78,1302.96 1221.36,1307.8 1223.94,1312.52 1226.51,1317.14 1229.09,1321.66 1231.67,1326.06 
  1234.25,1330.36 1236.82,1334.55 1239.4,1338.63 1241.98,1342.61 1244.55,1346.48 1247.13,1350.24 1249.71,1353.91 1252.29,1357.46 1254.86,1360.92 1257.44,1364.27 
  1260.02,1367.53 1262.59,1370.68 1265.17,1373.74 1267.75,1376.7 1270.33,1379.56 1272.9,1382.33 1275.48,1385 1278.06,1387.58 1280.64,1390.08 1283.21,1392.48 
  1285.79,1394.8 1288.37,1397.02 1290.94,1399.17 1293.52,1401.23 1296.1,1403.21 1298.68,1405.11 1301.25,1406.93 1303.83,1408.67 1306.41,1410.33 1308.98,1411.92 
  1311.56,1413.43 1314.14,1414.88 1316.72,1416.25 1319.29,1417.55 1321.87,1418.78 1324.45,1419.94 1327.03,1421.04 1329.6,1422.07 1332.18,1423.04 1334.76,1423.94 
  1337.33,1424.78 1339.91,1425.55 1342.49,1426.27 1345.07,1426.92 1347.64,1427.51 1350.22,1428.05 1352.8,1428.52 1355.37,1428.93 1357.95,1429.29 1360.53,1429.58 
  1363.11,1429.82 1365.68,1429.99 1368.26,1430.11 1370.84,1430.17 1373.41,1430.17 1375.99,1430.11 1378.57,1429.99 1381.15,1429.81 1383.72,1429.57 1386.3,1429.27 
  1388.88,1428.9 1391.46,1428.47 1394.03,1427.97 1396.61,1427.41 1399.19,1426.79 1401.76,1426.09 1404.34,1425.32 1406.92,1424.49 1409.5,1423.58 1412.07,1422.59 
  1414.65,1421.53 1417.23,1420.39 1419.8,1419.17 1422.38,1417.87 1424.96,1416.48 1427.54,1415.01 1430.11,1413.45 1432.69,1411.8 1435.27,1410.05 1437.85,1408.21 
  1440.42,1406.27 1443,1404.23 1445.58,1402.08 1448.15,1399.83 1450.73,1397.47 1453.31,1394.99 1455.89,1392.4 1458.46,1389.68 1461.04,1386.85 1463.62,1383.89 
  1466.19,1380.8 1468.77,1377.58 1471.35,1374.22 1473.93,1370.72 1476.5,1367.09 1479.08,1363.3 1481.66,1359.37 1484.24,1355.28 1486.81,1351.04 1489.39,1346.65 
  1491.97,1342.08 1494.54,1337.36 1497.12,1332.46 1499.7,1327.39 1502.28,1322.15 1504.85,1316.73 1507.43,1311.12 1510.01,1305.33 1512.58,1299.36 1515.16,1293.19 
  1517.74,1286.84 1520.32,1280.28 1522.89,1273.53 1525.47,1266.58 1528.05,1259.43 1530.62,1252.07 1533.2,1244.51 1535.78,1236.73 1538.36,1228.75 1540.93,1220.56 
  1543.51,1212.16 1546.09,1203.54 1548.67,1194.71 1551.24,1185.67 1553.82,1176.42 1556.4,1166.95 1558.97,1157.26 1561.55,1147.37 1564.13,1137.26 1566.71,1126.94 
  1569.28,1116.41 1571.86,1105.67 1574.44,1094.73 1577.01,1083.59 1579.59,1072.24 1582.17,1060.7 1584.75,1048.96 1587.32,1037.03 1589.9,1024.92 1592.48,1012.62 
  1595.06,1000.15 1597.63,987.502 1600.21,974.689 1602.79,961.714 1605.36,948.585 1607.94,935.306 1610.52,921.886 1613.1,908.332 1615.67,894.65 1618.25,880.85 
  1620.83,866.938 1623.4,852.924 1625.98,838.816 1628.56,824.624 1631.14,810.357 1633.71,796.025 1636.29,781.638 1638.87,767.207 1641.45,752.742 1644.02,738.254 
  1646.6,723.755 1649.18,709.256 1651.75,694.769 1654.33,680.305 1656.91,665.877 1659.49,651.497 1662.06,637.178 1664.64,622.932 1667.22,608.772 1669.79,594.711 
  1672.37,580.762 1674.95,566.938 1677.53,553.252 1680.1,539.717 1682.68,526.347 1685.26,513.154 1687.83,500.152 1690.41,487.355 1692.99,474.774 1695.57,462.424 
  1698.14,450.316 1700.72,438.464 1703.3,426.88 1705.88,415.577 1708.45,404.566 1711.03,393.86 1713.61,383.471 1716.18,373.409 1718.76,363.687 1721.34,354.314 
  1723.92,345.303 1726.49,336.661 1729.07,328.401 1731.65,320.531 1734.22,313.059 1736.8,305.996 1739.38,299.348 1741.96,293.124 1744.53,287.331 1747.11,281.976 
  1749.69,277.065 1752.27,272.604 1754.84,268.598 1757.42,265.052 1760,261.97 1762.57,259.356 1765.15,257.213 1767.73,255.544 1770.31,254.35 1772.88,253.633 
  1775.46,253.394 1778.04,253.633 1780.61,254.35 1783.19,255.544 1785.77,257.213 1788.35,259.356 1790.92,261.97 1793.5,265.052 1796.08,268.598 1798.66,272.604 
  1801.23,277.065 1803.81,281.976 1806.39,287.331 1808.96,293.124 1811.54,299.348 1814.12,305.996 1816.7,313.059 1819.27,320.531 1821.85,328.401 1824.43,336.662 
  1827,345.303 1829.58,354.315 1832.16,363.687 1834.74,373.409 1837.31,383.471 1839.89,393.86 1842.47,404.566 1845.04,415.577 1847.62,426.88 1850.2,438.464 
  1852.78,450.316 1855.35,462.424 1857.93,474.775 1860.51,487.355 1863.09,500.153 1865.66,513.155 1868.24,526.347 1870.82,539.717 1873.39,553.252 1875.97,566.938 
  1878.55,580.763 1881.13,594.712 1883.7,608.773 1886.28,622.933 1888.86,637.179 1891.43,651.499 1894.01,665.879 1896.59,680.307 1899.17,694.771 1901.74,709.258 
  1904.32,723.757 1906.9,738.257 1909.48,752.745 1912.05,767.21 1914.63,781.641 1917.21,796.028 1919.78,810.361 1922.36,824.628 1924.94,838.821 1927.52,852.929 
  1930.09,866.944 1932.67,880.856 1935.25,894.658 1937.82,908.34 1940.4,921.895 1942.98,935.316 1945.56,948.595 1948.13,961.726 1950.71,974.701 1953.29,987.516 
  1955.87,1000.16 1958.44,1012.64 1961.02,1024.94 1963.6,1037.05 1966.17,1048.98 1968.75,1060.72 1971.33,1072.27 1973.91,1083.62 1976.48,1094.76 1979.06,1105.71 
  1981.64,1116.45 1984.21,1126.98 1986.79,1137.3 1989.37,1147.41 1991.95,1157.31 1994.52,1167 1997.1,1176.48 1999.68,1185.74 2002.25,1194.79 2004.83,1203.62 
  2007.41,1212.25 2009.99,1220.66 2012.56,1228.86 2015.14,1236.85 2017.72,1244.63 2020.3,1252.2 2022.87,1259.57 2025.45,1266.74 2028.03,1273.7 2030.6,1280.47 
  2033.18,1287.04 2035.76,1293.41 2038.34,1299.59 2040.91,1305.59 2043.49,1311.4 2046.07,1317.02 2048.64,1322.47 2051.22,1327.74 2053.8,1332.84 2056.38,1337.76 
  2058.95,1342.52 2061.53,1347.12 2064.11,1351.55 2066.69,1355.83 2069.26,1359.96 2071.84,1363.94 2074.42,1367.77 2076.99,1371.46 2079.57,1375.01 2082.15,1378.43 
  2084.73,1381.72 2087.3,1384.87 2089.88,1387.91 2092.46,1390.82 2095.03,1393.61 2097.61,1396.3 2100.19,1398.87 2102.77,1401.33 2105.34,1403.69 2107.92,1405.95 
  2110.5,1408.12 2113.08,1410.19 2115.65,1412.17 2118.23,1414.06 2120.81,1415.87 2123.38,1417.59 2125.96,1419.24 2128.54,1420.81 2131.12,1422.31 2133.69,1423.74 
  2136.27,1425.1 2138.85,1426.4 2141.42,1427.63 2144,1428.81 2146.58,1429.92 2149.16,1430.98 2151.73,1431.99 2154.31,1432.95 2156.89,1433.86 2159.46,1434.72 
  2162.04,1435.54 2164.62,1436.32 2167.2,1437.05 2169.77,1437.75 2172.35,1438.41 2174.93,1439.03 2177.51,1439.62 2180.08,1440.18 2182.66,1440.71 2185.24,1441.21 
  2187.81,1441.68 2190.39,1442.12 2192.97,1442.54 2195.55,1442.93 2198.12,1443.31 2200.7,1443.66 2203.28,1443.99 2205.85,1444.3 2208.43,1444.59 2211.01,1444.87 
  2213.59,1445.13 2216.16,1445.37 2218.74,1445.6 2221.32,1445.81 2223.9,1446.02 2226.47,1446.21 2229.05,1446.38 2231.63,1446.55 2234.2,1446.7 2236.78,1446.85 
  2239.36,1446.99 2241.94,1447.11 2244.51,1447.23 2247.09,1447.35 2249.67,1447.45 2252.24,1447.55 2254.82,1447.64 2257.4,1447.72 2259.98,1447.8 2262.55,1447.88 
  2265.13,1447.95 2267.71,1448.01 2270.29,1448.07 2272.86,1448.12 2275.44,1448.18 2278.02,1448.22 2280.59,1448.27 2283.17,1448.31 2285.75,1448.35 2288.33,1448.39 
  2290.9,1448.42 
  "/>
<polyline clip-path="url(#clip4402)" style="stroke:#3da44d; stroke-width:4; stroke-opacity:1; fill:none" points="
  229.132,1448.82 231.709,1448.82 234.287,1448.82 236.864,1448.82 239.441,1448.82 242.018,1448.82 244.596,1448.82 247.173,1448.82 249.75,1448.82 252.327,1448.82 
  254.904,1448.82 257.482,1448.82 260.059,1448.82 262.636,1448.82 265.213,1448.82 267.79,1448.82 270.368,1448.82 272.945,1448.82 275.522,1448.82 278.099,1448.82 
  280.677,1448.82 283.254,1448.82 285.831,1448.82 288.408,1448.82 290.985,1448.82 293.563,1448.82 296.14,1448.82 298.717,1448.82 301.294,1448.82 303.871,1448.82 
  306.449,1448.82 309.026,1448.82 311.603,1448.82 314.18,1448.82 316.758,1448.82 319.335,1448.82 321.912,1448.82 324.489,1448.82 327.066,1448.82 329.644,1448.82 
  332.221,1448.82 334.798,1448.82 337.375,1448.82 339.952,1448.82 342.53,1448.82 345.107,1448.82 347.684,1448.82 350.261,1448.82 352.838,1448.82 355.416,1448.82 
  357.993,1448.82 360.57,1448.82 363.147,1448.82 365.725,1448.82 368.302,1448.82 370.879,1448.82 373.456,1448.82 376.033,1448.81 378.611,1448.81 381.188,1448.81 
  383.765,1448.81 386.342,1448.81 388.919,1448.81 391.497,1448.81 394.074,1448.81 396.651,1448.81 399.228,1448.81 401.806,1448.81 404.383,1448.81 406.96,1448.8 
  409.537,1448.8 412.114,1448.8 414.692,1448.8 417.269,1448.8 419.846,1448.8 422.423,1448.79 425,1448.79 427.578,1448.79 430.155,1448.78 432.732,1448.78 
  435.309,1448.78 437.887,1448.77 440.464,1448.77 443.041,1448.77 445.618,1448.76 448.195,1448.76 450.773,1448.75 453.35,1448.74 455.927,1448.74 458.504,1448.73 
  461.081,1448.72 463.659,1448.71 466.236,1448.7 468.813,1448.69 471.39,1448.68 473.968,1448.67 476.545,1448.66 479.122,1448.65 481.699,1448.63 484.276,1448.62 
  486.854,1448.6 489.431,1448.58 492.008,1448.56 494.585,1448.54 497.162,1448.52 499.74,1448.5 502.317,1448.47 504.894,1448.44 507.471,1448.41 510.048,1448.38 
  512.626,1448.35 515.203,1448.31 517.78,1448.27 520.357,1448.23 522.935,1448.18 525.512,1448.13 528.089,1448.08 530.666,1448.03 533.243,1447.97 535.821,1447.9 
  538.398,1447.84 540.975,1447.76 543.552,1447.69 546.129,1447.61 548.707,1447.52 551.284,1447.42 553.861,1447.33 556.438,1447.22 559.016,1447.11 561.593,1446.99 
  564.17,1446.86 566.747,1446.72 569.324,1446.58 571.902,1446.43 574.479,1446.26 577.056,1446.09 579.633,1445.91 582.21,1445.71 584.788,1445.51 587.365,1445.29 
  589.942,1445.06 592.519,1444.81 595.097,1444.55 597.674,1444.28 600.251,1443.99 602.828,1443.69 605.405,1443.36 607.983,1443.02 610.56,1442.66 613.137,1442.28 
  615.714,1441.88 618.291,1441.46 620.869,1441.02 623.446,1440.55 626.023,1440.06 628.6,1439.54 631.178,1438.99 633.755,1438.42 636.332,1437.82 638.909,1437.19 
  641.486,1436.52 644.064,1435.83 646.641,1435.09 649.218,1434.33 651.795,1433.53 654.372,1432.69 656.95,1431.8 659.527,1430.88 662.104,1429.92 664.681,1428.91 
  667.258,1427.86 669.836,1426.76 672.413,1425.61 674.99,1424.41 677.567,1423.16 680.145,1421.85 682.722,1420.49 685.299,1419.08 687.876,1417.6 690.453,1416.07 
  693.031,1414.47 695.608,1412.81 698.185,1411.08 700.762,1409.29 703.339,1407.43 705.917,1405.49 708.494,1403.49 711.071,1401.41 713.648,1399.25 716.226,1397.02 
  718.803,1394.7 721.38,1392.31 723.957,1389.83 726.534,1387.27 729.112,1384.62 731.689,1381.89 734.266,1379.06 736.843,1376.15 739.42,1373.14 741.998,1370.04 
  744.575,1366.85 747.152,1363.56 749.729,1360.17 752.307,1356.68 754.884,1353.1 757.461,1349.41 760.038,1345.62 762.615,1341.73 765.193,1337.74 767.77,1333.64 
  770.347,1329.44 772.924,1325.14 775.501,1320.73 778.079,1316.21 780.656,1311.6 783.233,1306.87 785.81,1302.04 788.388,1297.11 790.965,1292.07 793.542,1286.93 
  796.119,1281.68 798.696,1276.33 801.274,1270.89 803.851,1265.34 806.428,1259.69 809.005,1253.95 811.582,1248.11 814.16,1242.18 816.737,1236.15 819.314,1230.04 
  821.891,1223.84 824.469,1217.55 827.046,1211.18 829.623,1204.73 832.2,1198.21 834.777,1191.61 837.355,1184.95 839.932,1178.21 842.509,1171.42 845.086,1164.56 
  847.663,1157.65 850.241,1150.69 852.818,1143.69 855.395,1136.64 857.972,1129.55 860.549,1122.44 863.127,1115.29 865.704,1108.12 868.281,1100.94 870.858,1093.74 
  873.436,1086.54 876.013,1079.34 878.59,1072.14 881.167,1064.95 883.744,1057.78 886.322,1050.63 888.899,1043.51 891.476,1036.43 894.053,1029.39 896.63,1022.39 
  899.208,1015.45 901.785,1008.57 904.362,1001.75 906.939,995.011 909.517,988.349 912.094,981.772 914.671,975.288 917.248,968.903 919.825,962.623 922.403,956.455 
  924.98,950.405 927.557,944.478 930.134,938.682 932.711,933.023 935.289,927.505 937.866,922.136 940.443,916.921 943.02,911.866 945.598,906.975 948.175,902.256 
  950.752,897.712 953.329,893.348 955.906,889.171 958.484,885.183 961.061,881.391 963.638,877.798 966.215,874.408 968.792,871.225 971.37,868.253 973.947,865.496 
  976.524,862.955 979.101,860.635 981.679,858.539 984.256,856.667 986.833,855.024 989.41,853.61 991.987,852.427 994.565,851.477 997.142,850.761 999.719,850.28 
  1002.3,850.034 1004.87,850.023 1007.45,850.248 1010.03,850.708 1012.61,851.403 1015.18,852.331 1017.76,853.493 1020.34,854.886 1022.91,856.509 1025.49,858.359 
  1028.07,860.436 1030.65,862.736 1033.22,865.256 1035.8,867.994 1038.38,870.947 1040.95,874.11 1043.53,877.482 1046.11,881.056 1048.69,884.831 1051.26,888.801 
  1053.84,892.961 1056.42,897.308 1058.99,901.835 1061.57,906.539 1064.15,911.414 1066.73,916.455 1069.3,921.656 1071.88,927.011 1074.46,932.515 1077.04,938.162 
  1079.61,943.946 1082.19,949.861 1084.77,955.9 1087.34,962.058 1089.92,968.328 1092.5,974.703 1095.08,981.178 1097.65,987.746 1100.23,994.401 1102.81,1001.14 
  1105.38,1007.94 1107.96,1014.82 1110.54,1021.76 1113.12,1028.75 1115.69,1035.78 1118.27,1042.87 1120.85,1049.98 1123.43,1057.13 1126,1064.3 1128.58,1071.48 
  1131.16,1078.68 1133.73,1085.88 1136.31,1093.08 1138.89,1100.28 1141.47,1107.46 1144.04,1114.63 1146.62,1121.78 1149.2,1128.9 1151.77,1135.99 1154.35,1143.04 
  1156.93,1150.04 1159.51,1157.01 1162.08,1163.92 1164.66,1170.78 1167.24,1177.58 1169.82,1184.31 1172.39,1190.98 1174.97,1197.59 1177.55,1204.11 1180.12,1210.56 
  1182.7,1216.94 1185.28,1223.23 1187.86,1229.43 1190.43,1235.55 1193.01,1241.58 1195.59,1247.51 1198.16,1253.36 1200.74,1259.1 1203.32,1264.75 1205.9,1270.3 
  1208.47,1275.75 1211.05,1281.1 1213.63,1286.34 1216.2,1291.49 1218.78,1296.52 1221.36,1301.45 1223.94,1306.28 1226.51,1311 1229.09,1315.62 1231.67,1320.12 
  1234.25,1324.53 1236.82,1328.82 1239.4,1333.01 1241.98,1337.1 1244.55,1341.07 1247.13,1344.95 1249.71,1348.72 1252.29,1352.38 1254.86,1355.95 1257.44,1359.41 
  1260.02,1362.77 1262.59,1366.03 1265.17,1369.19 1267.75,1372.25 1270.33,1375.22 1272.9,1378.09 1275.48,1380.87 1278.06,1383.55 1280.64,1386.14 1283.21,1388.64 
  1285.79,1391.05 1288.37,1393.37 1290.94,1395.61 1293.52,1397.76 1296.1,1399.82 1298.68,1401.81 1301.25,1403.71 1303.83,1405.53 1306.41,1407.27 1308.98,1408.93 
  1311.56,1410.52 1314.14,1412.03 1316.72,1413.47 1319.29,1414.83 1321.87,1416.12 1324.45,1417.34 1327.03,1418.49 1329.6,1419.58 1332.18,1420.59 1334.76,1421.54 
  1337.33,1422.42 1339.91,1423.23 1342.49,1423.98 1345.07,1424.66 1347.64,1425.28 1350.22,1425.84 1352.8,1426.33 1355.37,1426.76 1357.95,1427.13 1360.53,1427.43 
  1363.11,1427.67 1365.68,1427.85 1368.26,1427.96 1370.84,1428.02 1373.41,1428.01 1375.99,1427.93 1378.57,1427.79 1381.15,1427.59 1383.72,1427.32 1386.3,1426.98 
  1388.88,1426.58 1391.46,1426.11 1394.03,1425.57 1396.61,1424.96 1399.19,1424.28 1401.76,1423.53 1404.34,1422.7 1406.92,1421.8 1409.5,1420.82 1412.07,1419.76 
  1414.65,1418.62 1417.23,1417.4 1419.8,1416.09 1422.38,1414.7 1424.96,1413.22 1427.54,1411.65 1430.11,1409.98 1432.69,1408.22 1435.27,1406.36 1437.85,1404.4 
  1440.42,1402.34 1443,1400.17 1445.58,1397.89 1448.15,1395.51 1450.73,1393 1453.31,1390.38 1455.89,1387.65 1458.46,1384.78 1461.04,1381.8 1463.62,1378.68 
  1466.19,1375.43 1468.77,1372.04 1471.35,1368.52 1473.93,1364.85 1476.5,1361.04 1479.08,1357.08 1481.66,1352.97 1484.24,1348.71 1486.81,1344.28 1489.39,1339.7 
  1491.97,1334.95 1494.54,1330.03 1497.12,1324.95 1499.7,1319.69 1502.28,1314.25 1504.85,1308.64 1507.43,1302.84 1510.01,1296.86 1512.58,1290.69 1515.16,1284.33 
  1517.74,1277.78 1520.32,1271.04 1522.89,1264.09 1525.47,1256.95 1528.05,1249.61 1530.62,1242.07 1533.2,1234.33 1535.78,1226.38 1538.36,1218.22 1540.93,1209.86 
  1543.51,1201.29 1546.09,1192.51 1548.67,1183.52 1551.24,1174.33 1553.82,1164.92 1556.4,1155.31 1558.97,1145.49 1561.55,1135.47 1564.13,1125.24 1566.71,1114.81 
  1569.28,1104.17 1571.86,1093.34 1574.44,1082.31 1577.01,1071.08 1579.59,1059.67 1582.17,1048.07 1584.75,1036.28 1587.32,1024.31 1589.9,1012.17 1592.48,999.855 
  1595.06,987.375 1597.63,974.734 1600.21,961.938 1602.79,948.994 1605.36,935.907 1607.94,922.684 1610.52,909.332 1613.1,895.859 1615.67,882.273 1618.25,868.58 
  1620.83,854.791 1623.4,840.912 1625.98,826.955 1628.56,812.926 1631.14,798.837 1633.71,784.697 1636.29,770.517 1638.87,756.306 1641.45,742.075 1644.02,727.835 
  1646.6,713.598 1649.18,699.375 1651.75,685.177 1654.33,671.015 1656.91,656.903 1659.49,642.852 1662.06,628.874 1664.64,614.982 1667.22,601.188 1669.79,587.505 
  1672.37,573.945 1674.95,560.521 1677.53,547.246 1680.1,534.133 1682.68,521.193 1685.26,508.441 1687.83,495.888 1690.41,483.548 1692.99,471.432 1695.57,459.553 
  1698.14,447.924 1700.72,436.557 1703.3,425.463 1705.88,414.655 1708.45,404.143 1711.03,393.94 1713.61,384.056 1716.18,374.502 1718.76,365.288 1721.34,356.426 
  1723.92,347.924 1726.49,339.793 1729.07,332.04 1731.65,324.676 1734.22,317.709 1736.8,311.146 1739.38,304.995 1741.96,299.263 1744.53,293.957 1747.11,289.082 
  1749.69,284.645 1752.27,280.651 1754.84,277.104 1757.42,274.009 1760,271.369 1762.57,269.187 1765.15,267.465 1767.73,266.207 1770.31,265.413 1772.88,265.084 
  1775.46,265.221 1778.04,265.823 1780.61,266.891 1783.19,268.421 1785.77,270.413 1788.35,272.865 1790.92,275.773 1793.5,279.135 1796.08,282.945 1798.66,287.2 
  1801.23,291.895 1803.81,297.024 1806.39,302.581 1808.96,308.56 1811.54,314.954 1814.12,321.756 1816.7,328.957 1819.27,336.551 1821.85,344.527 1824.43,352.877 
  1827,361.592 1829.58,370.662 1832.16,380.077 1834.74,389.826 1837.31,399.899 1839.89,410.285 1842.47,420.973 1845.04,431.95 1847.62,443.206 1850.2,454.729 
  1852.78,466.506 1855.35,478.526 1857.93,490.775 1860.51,503.242 1863.09,515.914 1865.66,528.777 1868.24,541.821 1870.82,555.031 1873.39,568.395 1875.97,581.901 
  1878.55,595.535 1881.13,609.285 1883.7,623.138 1886.28,637.082 1888.86,651.105 1891.43,665.193 1894.01,679.336 1896.59,693.521 1899.17,707.735 1901.74,721.968 
  1904.32,736.209 1906.9,750.445 1909.48,764.666 1912.05,778.86 1914.63,793.019 1917.21,807.131 1919.78,821.186 1922.36,835.174 1924.94,849.087 1927.52,862.915 
  1930.09,876.649 1932.67,890.281 1935.25,903.803 1937.82,917.207 1940.4,930.485 1942.98,943.63 1945.56,956.635 1948.13,969.494 1950.71,982.201 1953.29,994.75 
  1955.87,1007.13 1958.44,1019.35 1961.02,1031.39 1963.6,1043.26 1966.17,1054.94 1968.75,1066.44 1971.33,1077.74 1973.91,1088.86 1976.48,1099.78 1979.06,1110.5 
  1981.64,1121.02 1984.21,1131.33 1986.79,1141.45 1989.37,1151.36 1991.95,1161.06 1994.52,1170.56 1997.1,1179.84 1999.68,1188.92 2002.25,1197.8 2004.83,1206.46 
  2007.41,1214.92 2009.99,1223.17 2012.56,1231.22 2015.14,1239.06 2017.72,1246.7 2020.3,1254.14 2022.87,1261.37 2025.45,1268.41 2028.03,1275.26 2030.6,1281.9 
  2033.18,1288.36 2035.76,1294.63 2038.34,1300.71 2040.91,1306.61 2043.49,1312.33 2046.07,1317.87 2048.64,1323.23 2051.22,1328.42 2053.8,1333.44 2056.38,1338.3 
  2058.95,1342.99 2061.53,1347.52 2064.11,1351.9 2066.69,1356.13 2069.26,1360.2 2071.84,1364.13 2074.42,1367.92 2076.99,1371.57 2079.57,1375.08 2082.15,1378.46 
  2084.73,1381.71 2087.3,1384.84 2089.88,1387.85 2092.46,1390.73 2095.03,1393.5 2097.61,1396.17 2100.19,1398.72 2102.77,1401.16 2105.34,1403.51 2107.92,1405.76 
  2110.5,1407.91 2113.08,1409.97 2115.65,1411.94 2118.23,1413.82 2120.81,1415.62 2123.38,1417.34 2125.96,1418.99 2128.54,1420.56 2131.12,1422.05 2133.69,1423.48 
  2136.27,1424.84 2138.85,1426.14 2141.42,1427.37 2144,1428.55 2146.58,1429.67 2149.16,1430.73 2151.73,1431.74 2154.31,1432.7 2156.89,1433.62 2159.46,1434.48 
  2162.04,1435.31 2164.62,1436.09 2167.2,1436.83 2169.77,1437.53 2172.35,1438.2 2174.93,1438.83 2177.51,1439.42 2180.08,1439.99 2182.66,1440.52 2185.24,1441.02 
  2187.81,1441.5 2190.39,1441.95 2192.97,1442.37 2195.55,1442.78 2198.12,1443.15 2200.7,1443.51 2203.28,1443.85 2205.85,1444.16 2208.43,1444.46 2211.01,1444.74 
  2213.59,1445.01 2216.16,1445.26 2218.74,1445.49 2221.32,1445.71 2223.9,1445.91 2226.47,1446.11 2229.05,1446.29 2231.63,1446.46 2234.2,1446.62 2236.78,1446.77 
  2239.36,1446.91 2241.94,1447.04 2244.51,1447.17 2247.09,1447.28 2249.67,1447.39 2252.24,1447.49 2254.82,1447.58 2257.4,1447.67 2259.98,1447.75 2262.55,1447.83 
  2265.13,1447.9 2267.71,1447.97 2270.29,1448.03 2272.86,1448.09 2275.44,1448.14 2278.02,1448.19 2280.59,1448.24 2283.17,1448.28 2285.75,1448.32 2288.33,1448.36 
  2290.9,1448.39 
  "/>
<path clip-path="url(#clip4400)" d="
M1893.61 447.115 L2280.76 447.115 L2280.76 205.195 L1893.61 205.195  Z
  " fill="#ffffff" fill-rule="evenodd" fill-opacity="1"/>
<polyline clip-path="url(#clip4400)" style="stroke:#000000; stroke-width:4; stroke-opacity:1; fill:none" points="
  1893.61,447.115 2280.76,447.115 2280.76,205.195 1893.61,205.195 1893.61,447.115 
  "/>
<polyline clip-path="url(#clip4400)" style="stroke:#009af9; stroke-width:4; stroke-opacity:1; fill:none" points="
  1917.61,265.675 2061.61,265.675 
  "/>
<g clip-path="url(#clip4400)">
<text style="fill:#000000; fill-opacity:1; font-family:Arial,Helvetica Neue,Helvetica,sans-serif; font-size:48px; text-anchor:start;" transform="rotate(0, 2085.61, 283.175)" x="2085.61" y="283.175">Data</text>
</g>
<polyline clip-path="url(#clip4400)" style="stroke:#e26f46; stroke-width:4; stroke-opacity:1; fill:none" points="
  1917.61,326.155 2061.61,326.155 
  "/>
<g clip-path="url(#clip4400)">
<text style="fill:#000000; fill-opacity:1; font-family:Arial,Helvetica Neue,Helvetica,sans-serif; font-size:48px; text-anchor:start;" transform="rotate(0, 2085.61, 343.655)" x="2085.61" y="343.655">Truth</text>
</g>
<polyline clip-path="url(#clip4400)" style="stroke:#3da44d; stroke-width:4; stroke-opacity:1; fill:none" points="
  1917.61,386.635 2061.61,386.635 
  "/>
<g clip-path="url(#clip4400)">
<text style="fill:#000000; fill-opacity:1; font-family:Arial,Helvetica Neue,Helvetica,sans-serif; font-size:48px; text-anchor:start;" transform="rotate(0, 2085.61, 404.135)" x="2085.61" y="404.135">Best fit</text>
</g>
</svg>
