<?xml version="1.0" encoding="utf-8"?>
<svg xmlns="http://www.w3.org/2000/svg" xmlns:xlink="http://www.w3.org/1999/xlink" width="600" height="400" viewBox="0 0 2400 1600">
<defs>
  <clipPath id="clip4100">
    <rect x="0" y="0" width="2400" height="1600"/>
  </clipPath>
</defs>
<path clip-path="url(#clip4100)" d="
M0 1600 L2400 1600 L2400 0 L0 0  Z
  " fill="#ffffff" fill-rule="evenodd" fill-opacity="1"/>
<defs>
  <clipPath id="clip4101">
    <rect x="480" y="0" width="1681" height="1600"/>
  </clipPath>
</defs>
<path clip-path="url(#clip4100)" d="
M202.373 1425.62 L2352.76 1425.62 L2352.76 121.675 L202.373 121.675  Z
  " fill="#ffffff" fill-rule="evenodd" fill-opacity="1"/>
<defs>
  <clipPath id="clip4102">
    <rect x="202" y="121" width="2151" height="1305"/>
  </clipPath>
</defs>
<polyline clip-path="url(#clip4102)" style="stroke:#000000; stroke-width:2; stroke-opacity:0.1; fill:none" points="
  474.552,1425.62 474.552,121.675 
  "/>
<polyline clip-path="url(#clip4102)" style="stroke:#000000; stroke-width:2; stroke-opacity:0.1; fill:none" points="
  897.19,1425.62 897.19,121.675 
  "/>
<polyline clip-path="url(#clip4102)" style="stroke:#000000; stroke-width:2; stroke-opacity:0.1; fill:none" points="
  1319.83,1425.62 1319.83,121.675 
  "/>
<polyline clip-path="url(#clip4102)" style="stroke:#000000; stroke-width:2; stroke-opacity:0.1; fill:none" points="
  1742.47,1425.62 1742.47,121.675 
  "/>
<polyline clip-path="url(#clip4102)" style="stroke:#000000; stroke-width:2; stroke-opacity:0.1; fill:none" points="
  2165.1,1425.62 2165.1,121.675 
  "/>
<polyline clip-path="url(#clip4102)" style="stroke:#000000; stroke-width:2; stroke-opacity:0.1; fill:none" points="
  202.373,1388.71 2352.76,1388.71 
  "/>
<polyline clip-path="url(#clip4102)" style="stroke:#000000; stroke-width:2; stroke-opacity:0.1; fill:none" points="
  202.373,1020.92 2352.76,1020.92 
  "/>
<polyline clip-path="url(#clip4102)" style="stroke:#000000; stroke-width:2; stroke-opacity:0.1; fill:none" points="
  202.373,653.132 2352.76,653.132 
  "/>
<polyline clip-path="url(#clip4102)" style="stroke:#000000; stroke-width:2; stroke-opacity:0.1; fill:none" points="
  202.373,285.34 2352.76,285.34 
  "/>
<polyline clip-path="url(#clip4100)" style="stroke:#000000; stroke-width:4; stroke-opacity:1; fill:none" points="
  202.373,1425.62 2352.76,1425.62 
  "/>
<polyline clip-path="url(#clip4100)" style="stroke:#000000; stroke-width:4; stroke-opacity:1; fill:none" points="
  202.373,1425.62 202.373,121.675 
  "/>
<polyline clip-path="url(#clip4100)" style="stroke:#000000; stroke-width:4; stroke-opacity:1; fill:none" points="
  474.552,1425.62 474.552,1409.97 
  "/>
<polyline clip-path="url(#clip4100)" style="stroke:#000000; stroke-width:4; stroke-opacity:1; fill:none" points="
  897.19,1425.62 897.19,1409.97 
  "/>
<polyline clip-path="url(#clip4100)" style="stroke:#000000; stroke-width:4; stroke-opacity:1; fill:none" points="
  1319.83,1425.62 1319.83,1409.97 
  "/>
<polyline clip-path="url(#clip4100)" style="stroke:#000000; stroke-width:4; stroke-opacity:1; fill:none" points="
  1742.47,1425.62 1742.47,1409.97 
  "/>
<polyline clip-path="url(#clip4100)" style="stroke:#000000; stroke-width:4; stroke-opacity:1; fill:none" points="
  2165.1,1425.62 2165.1,1409.97 
  "/>
<polyline clip-path="url(#clip4100)" style="stroke:#000000; stroke-width:4; stroke-opacity:1; fill:none" points="
  202.373,1388.71 228.178,1388.71 
  "/>
<polyline clip-path="url(#clip4100)" style="stroke:#000000; stroke-width:4; stroke-opacity:1; fill:none" points="
  202.373,1020.92 228.178,1020.92 
  "/>
<polyline clip-path="url(#clip4100)" style="stroke:#000000; stroke-width:4; stroke-opacity:1; fill:none" points="
  202.373,653.132 228.178,653.132 
  "/>
<polyline clip-path="url(#clip4100)" style="stroke:#000000; stroke-width:4; stroke-opacity:1; fill:none" points="
  202.373,285.34 228.178,285.34 
  "/>
<g clip-path="url(#clip4100)">
<text style="fill:#000000; fill-opacity:1; font-family:Arial,Helvetica Neue,Helvetica,sans-serif; font-size:48px; text-anchor:middle;" transform="rotate(0, 474.552, 1479.62)" x="474.552" y="1479.62">-1.10</text>
</g>
<g clip-path="url(#clip4100)">
<text style="fill:#000000; fill-opacity:1; font-family:Arial,Helvetica Neue,Helvetica,sans-serif; font-size:48px; text-anchor:middle;" transform="rotate(0, 897.19, 1479.62)" x="897.19" y="1479.62">-1.05</text>
</g>
<g clip-path="url(#clip4100)">
<text style="fill:#000000; fill-opacity:1; font-family:Arial,Helvetica Neue,Helvetica,sans-serif; font-size:48px; text-anchor:middle;" transform="rotate(0, 1319.83, 1479.62)" x="1319.83" y="1479.62">-1.00</text>
</g>
<g clip-path="url(#clip4100)">
<text style="fill:#000000; fill-opacity:1; font-family:Arial,Helvetica Neue,Helvetica,sans-serif; font-size:48px; text-anchor:middle;" transform="rotate(0, 1742.47, 1479.62)" x="1742.47" y="1479.62">-0.95</text>
</g>
<g clip-path="url(#clip4100)">
<text style="fill:#000000; fill-opacity:1; font-family:Arial,Helvetica Neue,Helvetica,sans-serif; font-size:48px; text-anchor:middle;" transform="rotate(0, 2165.1, 1479.62)" x="2165.1" y="1479.62">-0.90</text>
</g>
<g clip-path="url(#clip4100)">
<text style="fill:#000000; fill-opacity:1; font-family:Arial,Helvetica Neue,Helvetica,sans-serif; font-size:48px; text-anchor:end;" transform="rotate(0, 178.373, 1406.21)" x="178.373" y="1406.21">0</text>
</g>
<g clip-path="url(#clip4100)">
<text style="fill:#000000; fill-opacity:1; font-family:Arial,Helvetica Neue,Helvetica,sans-serif; font-size:48px; text-anchor:end;" transform="rotate(0, 178.373, 1038.42)" x="178.373" y="1038.42">5</text>
</g>
<g clip-path="url(#clip4100)">
<text style="fill:#000000; fill-opacity:1; font-family:Arial,Helvetica Neue,Helvetica,sans-serif; font-size:48px; text-anchor:end;" transform="rotate(0, 178.373, 670.632)" x="178.373" y="670.632">10</text>
</g>
<g clip-path="url(#clip4100)">
<text style="fill:#000000; fill-opacity:1; font-family:Arial,Helvetica Neue,Helvetica,sans-serif; font-size:48px; text-anchor:end;" transform="rotate(0, 178.373, 302.84)" x="178.373" y="302.84">15</text>
</g>
<g clip-path="url(#clip4100)">
<text style="fill:#000000; fill-opacity:1; font-family:Arial,Helvetica Neue,Helvetica,sans-serif; font-size:84px; text-anchor:middle;" transform="rotate(0, 1277.56, 73.2)" x="1277.56" y="73.2">Marginalized Distribution for mu_1</text>
</g>
<g clip-path="url(#clip4100)">
<text style="fill:#000000; fill-opacity:1; font-family:Arial,Helvetica Neue,Helvetica,sans-serif; font-size:66px; text-anchor:middle;" transform="rotate(0, 1277.56, 1559.48)" x="1277.56" y="1559.48">mu_1</text>
</g>
<g clip-path="url(#clip4100)">
<text style="fill:#000000; fill-opacity:1; font-family:Arial,Helvetica Neue,Helvetica,sans-serif; font-size:66px; text-anchor:middle;" transform="rotate(-90, 89.2861, 773.647)" x="89.2861" y="773.647">P(mu_1)</text>
</g>
<path clip-path="url(#clip4102)" d="
M263.233 1388.71 L305.497 1388.71 L305.497 1388.71 L347.76 1388.71 L347.76 1388.71 L390.024 1388.71 L390.024 1388.71 L432.288 1388.71 L432.288 1388.71 L474.552 1388.71 
  L474.552 1388.71 L516.816 1388.71 L516.816 1388.71 L559.08 1388.71 L559.08 1359.42 L601.343 1359.42 L601.343 1351.13 L643.607 1351.13 L643.607 1331.95 L685.871 1331.95 
  L685.871 1294.66 L728.135 1294.66 L728.135 1230.09 L770.399 1230.09 L770.399 1175.93 L812.662 1175.93 L812.662 1052.77 L854.926 1052.77 L854.926 916.119 L897.19 916.119 
  L897.19 794.308 L939.454 794.308 L939.454 680.014 L981.718 680.014 L981.718 452.678 L1023.98 452.678 L1023.98 385.991 L1066.25 385.991 L1066.25 303.691 L1108.51 303.691 
  L1108.51 211.562 L1150.77 211.562 L1150.77 194.408 L1193.04 194.408 L1193.04 239.895 L1235.3 239.895 L1235.3 340.601 L1277.56 340.601 L1277.56 413.456 L1319.83 413.456 
  L1319.83 610.532 L1362.09 610.532 L1362.09 696.879 L1404.36 696.879 L1404.36 826.784 L1446.62 826.784 L1446.62 962.762 L1488.88 962.762 L1488.88 1068.77 L1531.15 1068.77 
  L1531.15 1166.2 L1573.41 1166.2 L1573.41 1226.72 L1615.67 1226.72 L1615.67 1273.84 L1657.94 1273.84 L1657.94 1329.83 L1700.2 1329.83 L1700.2 1354.89 L1742.47 1354.89 
  L1742.47 1368.67 L1784.73 1368.67 L1784.73 1373.58 L1826.99 1373.58 L1826.99 1388.71 L1869.26 1388.71 L1869.26 1388.71 L1911.52 1388.71 L1911.52 1388.71 L1953.79 1388.71 
  L1953.79 1388.71 L1996.05 1388.71 L1996.05 1388.71 L2038.31 1388.71 L2038.31 1388.71 L2080.58 1388.71 L2080.58 1388.71 L2122.84 1388.71 L2122.84 1388.71 L2165.1 1388.71 
  L2165.1 1388.71 L2207.37 1388.71 L2207.37 1388.71 L2249.63 1388.71 L2249.63 1388.71 L2291.9 1388.71 L2291.9 1388.71 L2291.9 1388.71 L2291.9 1388.71 L2249.63 1388.71 
  L2249.63 1388.71 L2207.37 1388.71 L2207.37 1388.71 L2165.1 1388.71 L2165.1 1388.71 L2122.84 1388.71 L2122.84 1388.71 L2080.58 1388.71 L2080.58 1388.71 L2038.31 1388.71 
  L2038.31 1388.71 L1996.05 1388.71 L1996.05 1388.71 L1953.79 1388.71 L1953.79 1388.71 L1911.52 1388.71 L1911.52 1388.71 L1869.26 1388.71 L1869.26 1388.71 L1826.99 1388.71 
  L1826.99 1388.71 L1784.73 1388.71 L1784.73 1388.71 L1742.47 1388.71 L1742.47 1388.71 L1700.2 1388.71 L1700.2 1388.71 L1657.94 1388.71 L1657.94 1388.71 L1615.67 1388.71 
  L1615.67 1388.71 L1573.41 1388.71 L1573.41 1388.71 L1531.15 1388.71 L1531.15 1388.71 L1488.88 1388.71 L1488.88 1388.71 L1446.62 1388.71 L1446.62 1388.71 L1404.36 1388.71 
  L1404.36 1388.71 L1362.09 1388.71 L1362.09 1388.71 L1319.83 1388.71 L1319.83 1388.71 L1277.56 1388.71 L1277.56 1388.71 L1235.3 1388.71 L1235.3 1388.71 L1193.04 1388.71 
  L1193.04 1388.71 L1150.77 1388.71 L1150.77 1388.71 L1108.51 1388.71 L1108.51 1388.71 L1066.25 1388.71 L1066.25 1388.71 L1023.98 1388.71 L1023.98 1388.71 L981.718 1388.71 
  L981.718 1388.71 L939.454 1388.71 L939.454 1388.71 L897.19 1388.71 L897.19 1388.71 L854.926 1388.71 L854.926 1388.71 L812.662 1388.71 L812.662 1388.71 L770.399 1388.71 
  L770.399 1388.71 L728.135 1388.71 L728.135 1388.71 L685.871 1388.71 L685.871 1388.71 L643.607 1388.71 L643.607 1388.71 L601.343 1388.71 L601.343 1388.71 L559.08 1388.71 
  L559.08 1388.71 L516.816 1388.71 L516.816 1388.71 L474.552 1388.71 L474.552 1388.71 L432.288 1388.71 L432.288 1388.71 L390.024 1388.71 L390.024 1388.71 L347.76 1388.71 
  L347.76 1388.71 L305.497 1388.71 L305.497 1388.71 L263.233 1388.71  Z
  " fill="#ff0000" fill-rule="evenodd" fill-opacity="1"/>
<polyline clip-path="url(#clip4102)" style="stroke:#009af9; stroke-width:0; stroke-opacity:1; fill:none" points="
  263.233,1388.71 305.497,1388.71 347.76,1388.71 390.024,1388.71 432.288,1388.71 474.552,1388.71 
  516.816,1388.71 559.08,1388.71 559.08,1359.42 601.343,1359.42 601.343,1351.13 643.607,1351.13 643.607,1331.95 685.871,1331.95 
  685.871,1294.66 728.135,1294.66 728.135,1230.09 770.399,1230.09 770.399,1175.93 812.662,1175.93 812.662,1052.77 854.926,1052.77 854.926,916.119 897.19,916.119 
  897.19,794.308 939.454,794.308 939.454,680.014 981.718,680.014 981.718,452.678 1023.98,452.678 1023.98,385.991 1066.25,385.991 1066.25,303.691 1108.51,303.691 
  1108.51,211.562 1150.77,211.562 1150.77,194.408 1193.04,194.408 1193.04,239.895 1235.3,239.895 1235.3,340.601 1277.56,340.601 1277.56,413.456 1319.83,413.456 
  1319.83,610.532 1362.09,610.532 1362.09,696.879 1404.36,696.879 1404.36,826.784 1446.62,826.784 1446.62,962.762 1488.88,962.762 1488.88,1068.77 1531.15,1068.77 
  1531.15,1166.2 1573.41,1166.2 1573.41,1226.72 1615.67,1226.72 1615.67,1273.84 1657.94,1273.84 1657.94,1329.83 1700.2,1329.83 1700.2,1354.89 1742.47,1354.89 
  1742.47,1368.67 1784.73,1368.67 1784.73,1373.58 1826.99,1373.58 1826.99,1388.71 1869.26,1388.71 1911.52,1388.71 1953.79,1388.71 
  1996.05,1388.71 2038.31,1388.71 2080.58,1388.71 2122.84,1388.71 2165.1,1388.71 
  2207.37,1388.71 2249.63,1388.71 2291.9,1388.71 
  "/>
<path clip-path="url(#clip4102)" d="
M263.233 1388.71 L305.497 1388.71 L305.497 1388.71 L347.76 1388.71 L347.76 1388.71 L390.024 1388.71 L390.024 1388.71 L432.288 1388.71 L432.288 1388.71 L474.552 1388.71 
  L474.552 1388.71 L516.816 1388.71 L516.816 1388.71 L559.08 1388.71 L559.08 1388.71 L601.343 1388.71 L601.343 1388.71 L643.607 1388.71 L643.607 1388.71 L685.871 1388.71 
  L685.871 1388.71 L728.135 1388.71 L728.135 1388.71 L770.399 1388.71 L770.399 1175.93 L812.662 1175.93 L812.662 1052.77 L854.926 1052.77 L854.926 916.119 L897.19 916.119 
  L897.19 794.308 L939.454 794.308 L939.454 680.014 L981.718 680.014 L981.718 452.678 L1023.98 452.678 L1023.98 385.991 L1066.25 385.991 L1066.25 303.691 L1108.51 303.691 
  L1108.51 211.562 L1150.77 211.562 L1150.77 194.408 L1193.04 194.408 L1193.04 239.895 L1235.3 239.895 L1235.3 340.601 L1277.56 340.601 L1277.56 413.456 L1319.83 413.456 
  L1319.83 610.532 L1362.09 610.532 L1362.09 696.879 L1404.36 696.879 L1404.36 826.784 L1446.62 826.784 L1446.62 962.762 L1488.88 962.762 L1488.88 1068.77 L1531.15 1068.77 
  L1531.15 1166.2 L1573.41 1166.2 L1573.41 1226.72 L1615.67 1226.72 L1615.67 1388.71 L1657.94 1388.71 L1657.94 1388.71 L1700.2 1388.71 L1700.2 1388.71 L1742.47 1388.71 
  L1742.47 1388.71 L1784.73 1388.71 L1784.73 1388.71 L1826.99 1388.71 L1826.99 1388.71 L1869.26 1388.71 L1869.26 1388.71 L1911.52 1388.71 L1911.52 1388.71 L1953.79 1388.71 
  L1953.79 1388.71 L1996.05 1388.71 L1996.05 1388.71 L2038.31 1388.71 L2038.31 1388.71 L2080.58 1388.71 L2080.58 1388.71 L2122.84 1388.71 L2122.84 1388.71 L2165.1 1388.71 
  L2165.1 1388.71 L2207.37 1388.71 L2207.37 1388.71 L2249.63 1388.71 L2249.63 1388.71 L2291.9 1388.71 L2291.9 1388.71 L2291.9 1388.71 L2291.9 1388.71 L2249.63 1388.71 
  L2249.63 1388.71 L2207.37 1388.71 L2207.37 1388.71 L2165.1 1388.71 L2165.1 1388.71 L2122.84 1388.71 L2122.84 1388.71 L2080.58 1388.71 L2080.58 1388.71 L2038.31 1388.71 
  L2038.31 1388.71 L1996.05 1388.71 L1996.05 1388.71 L1953.79 1388.71 L1953.79 1388.71 L1911.52 1388.71 L1911.52 1388.71 L1869.26 1388.71 L1869.26 1388.71 L1826.99 1388.71 
  L1826.99 1388.71 L1784.73 1388.71 L1784.73 1388.71 L1742.47 1388.71 L1742.47 1388.71 L1700.2 1388.71 L1700.2 1388.71 L1657.94 1388.71 L1657.94 1388.71 L1615.67 1388.71 
  L1615.67 1388.71 L1573.41 1388.71 L1573.41 1388.71 L1531.15 1388.71 L1531.15 1388.71 L1488.88 1388.71 L1488.88 1388.71 L1446.62 1388.71 L1446.62 1388.71 L1404.36 1388.71 
  L1404.36 1388.71 L1362.09 1388.71 L1362.09 1388.71 L1319.83 1388.71 L1319.83 1388.71 L1277.56 1388.71 L1277.56 1388.71 L1235.3 1388.71 L1235.3 1388.71 L1193.04 1388.71 
  L1193.04 1388.71 L1150.77 1388.71 L1150.77 1388.71 L1108.51 1388.71 L1108.51 1388.71 L1066.25 1388.71 L1066.25 1388.71 L1023.98 1388.71 L1023.98 1388.71 L981.718 1388.71 
  L981.718 1388.71 L939.454 1388.71 L939.454 1388.71 L897.19 1388.71 L897.19 1388.71 L854.926 1388.71 L854.926 1388.71 L812.662 1388.71 L812.662 1388.71 L770.399 1388.71 
  L770.399 1388.71 L728.135 1388.71 L728.135 1388.71 L685.871 1388.71 L685.871 1388.71 L643.607 1388.71 L643.607 1388.71 L601.343 1388.71 L601.343 1388.71 L559.08 1388.71 
  L559.08 1388.71 L516.816 1388.71 L516.816 1388.71 L474.552 1388.71 L474.552 1388.71 L432.288 1388.71 L432.288 1388.71 L390.024 1388.71 L390.024 1388.71 L347.76 1388.71 
  L347.76 1388.71 L305.497 1388.71 L305.497 1388.71 L263.233 1388.71  Z
  " fill="#ffff00" fill-rule="evenodd" fill-opacity="1"/>
<polyline clip-path="url(#clip4102)" style="stroke:#e26f46; stroke-width:0; stroke-opacity:1; fill:none" points="
  263.233,1388.71 305.497,1388.71 347.76,1388.71 390.024,1388.71 432.288,1388.71 474.552,1388.71 
  516.816,1388.71 559.08,1388.71 601.343,1388.71 643.607,1388.71 685.871,1388.71 
  728.135,1388.71 770.399,1388.71 770.399,1175.93 812.662,1175.93 812.662,1052.77 854.926,1052.77 854.926,916.119 897.19,916.119 
  897.19,794.308 939.454,794.308 939.454,680.014 981.718,680.014 981.718,452.678 1023.98,452.678 1023.98,385.991 1066.25,385.991 1066.25,303.691 1108.51,303.691 
  1108.51,211.562 1150.77,211.562 1150.77,194.408 1193.04,194.408 1193.04,239.895 1235.3,239.895 1235.3,340.601 1277.56,340.601 1277.56,413.456 1319.83,413.456 
  1319.83,610.532 1362.09,610.532 1362.09,696.879 1404.36,696.879 1404.36,826.784 1446.62,826.784 1446.62,962.762 1488.88,962.762 1488.88,1068.77 1531.15,1068.77 
  1531.15,1166.2 1573.41,1166.2 1573.41,1226.72 1615.67,1226.72 1615.67,1388.71 1657.94,1388.71 1700.2,1388.71 1742.47,1388.71 
  1784.73,1388.71 1826.99,1388.71 1869.26,1388.71 1911.52,1388.71 1953.79,1388.71 
  1996.05,1388.71 2038.31,1388.71 2080.58,1388.71 2122.84,1388.71 2165.1,1388.71 
  2207.37,1388.71 2249.63,1388.71 2291.9,1388.71 
  "/>
<path clip-path="url(#clip4102)" d="
M263.233 1388.71 L305.497 1388.71 L305.497 1388.71 L347.76 1388.71 L347.76 1388.71 L390.024 1388.71 L390.024 1388.71 L432.288 1388.71 L432.288 1388.71 L474.552 1388.71 
  L474.552 1388.71 L516.816 1388.71 L516.816 1388.71 L559.08 1388.71 L559.08 1388.71 L601.343 1388.71 L601.343 1388.71 L643.607 1388.71 L643.607 1388.71 L685.871 1388.71 
  L685.871 1388.71 L728.135 1388.71 L728.135 1388.71 L770.399 1388.71 L770.399 1388.71 L812.662 1388.71 L812.662 1388.71 L854.926 1388.71 L854.926 1388.71 L897.19 1388.71 
  L897.19 1388.71 L939.454 1388.71 L939.454 680.014 L981.718 680.014 L981.718 452.678 L1023.98 452.678 L1023.98 385.991 L1066.25 385.991 L1066.25 303.691 L1108.51 303.691 
  L1108.51 211.562 L1150.77 211.562 L1150.77 194.408 L1193.04 194.408 L1193.04 239.895 L1235.3 239.895 L1235.3 340.601 L1277.56 340.601 L1277.56 413.456 L1319.83 413.456 
  L1319.83 610.532 L1362.09 610.532 L1362.09 1388.71 L1404.36 1388.71 L1404.36 1388.71 L1446.62 1388.71 L1446.62 1388.71 L1488.88 1388.71 L1488.88 1388.71 L1531.15 1388.71 
  L1531.15 1388.71 L1573.41 1388.71 L1573.41 1388.71 L1615.67 1388.71 L1615.67 1388.71 L1657.94 1388.71 L1657.94 1388.71 L1700.2 1388.71 L1700.2 1388.71 L1742.47 1388.71 
  L1742.47 1388.71 L1784.73 1388.71 L1784.73 1388.71 L1826.99 1388.71 L1826.99 1388.71 L1869.26 1388.71 L1869.26 1388.71 L1911.52 1388.71 L1911.52 1388.71 L1953.79 1388.71 
  L1953.79 1388.71 L1996.05 1388.71 L1996.05 1388.71 L2038.31 1388.71 L2038.31 1388.71 L2080.58 1388.71 L2080.58 1388.71 L2122.84 1388.71 L2122.84 1388.71 L2165.1 1388.71 
  L2165.1 1388.71 L2207.37 1388.71 L2207.37 1388.71 L2249.63 1388.71 L2249.63 1388.71 L2291.9 1388.71 L2291.9 1388.71 L2291.9 1388.71 L2291.9 1388.71 L2249.63 1388.71 
  L2249.63 1388.71 L2207.37 1388.71 L2207.37 1388.71 L2165.1 1388.71 L2165.1 1388.71 L2122.84 1388.71 L2122.84 1388.71 L2080.58 1388.71 L2080.58 1388.71 L2038.31 1388.71 
  L2038.31 1388.71 L1996.05 1388.71 L1996.05 1388.71 L1953.79 1388.71 L1953.79 1388.71 L1911.52 1388.71 L1911.52 1388.71 L1869.26 1388.71 L1869.26 1388.71 L1826.99 1388.71 
  L1826.99 1388.71 L1784.73 1388.71 L1784.73 1388.71 L1742.47 1388.71 L1742.47 1388.71 L1700.2 1388.71 L1700.2 1388.71 L1657.94 1388.71 L1657.94 1388.71 L1615.67 1388.71 
  L1615.67 1388.71 L1573.41 1388.71 L1573.41 1388.71 L1531.15 1388.71 L1531.15 1388.71 L1488.88 1388.71 L1488.88 1388.71 L1446.62 1388.71 L1446.62 1388.71 L1404.36 1388.71 
  L1404.36 1388.71 L1362.09 1388.71 L1362.09 1388.71 L1319.83 1388.71 L1319.83 1388.71 L1277.56 1388.71 L1277.56 1388.71 L1235.3 1388.71 L1235.3 1388.71 L1193.04 1388.71 
  L1193.04 1388.71 L1150.77 1388.71 L1150.77 1388.71 L1108.51 1388.71 L1108.51 1388.71 L1066.25 1388.71 L1066.25 1388.71 L1023.98 1388.71 L1023.98 1388.71 L981.718 1388.71 
  L981.718 1388.71 L939.454 1388.71 L939.454 1388.71 L897.19 1388.71 L897.19 1388.71 L854.926 1388.71 L854.926 1388.71 L812.662 1388.71 L812.662 1388.71 L770.399 1388.71 
  L770.399 1388.71 L728.135 1388.71 L728.135 1388.71 L685.871 1388.71 L685.871 1388.71 L643.607 1388.71 L643.607 1388.71 L601.343 1388.71 L601.343 1388.71 L559.08 1388.71 
  L559.08 1388.71 L516.816 1388.71 L516.816 1388.71 L474.552 1388.71 L474.552 1388.71 L432.288 1388.71 L432.288 1388.71 L390.024 1388.71 L390.024 1388.71 L347.76 1388.71 
  L347.76 1388.71 L305.497 1388.71 L305.497 1388.71 L263.233 1388.71  Z
  " fill="#76ee00" fill-rule="evenodd" fill-opacity="1"/>
<polyline clip-path="url(#clip4102)" style="stroke:#3da44d; stroke-width:0; stroke-opacity:1; fill:none" points="
  263.233,1388.71 305.497,1388.71 347.76,1388.71 390.024,1388.71 432.288,1388.71 474.552,1388.71 
  516.816,1388.71 559.08,1388.71 601.343,1388.71 643.607,1388.71 685.871,1388.71 
  728.135,1388.71 770.399,1388.71 812.662,1388.71 854.926,1388.71 897.19,1388.71 
  939.454,1388.71 939.454,680.014 981.718,680.014 981.718,452.678 1023.98,452.678 1023.98,385.991 1066.25,385.991 1066.25,303.691 1108.51,303.691 
  1108.51,211.562 1150.77,211.562 1150.77,194.408 1193.04,194.408 1193.04,239.895 1235.3,239.895 1235.3,340.601 1277.56,340.601 1277.56,413.456 1319.83,413.456 
  1319.83,610.532 1362.09,610.532 1362.09,1388.71 1404.36,1388.71 1446.62,1388.71 1488.88,1388.71 1531.15,1388.71 
  1573.41,1388.71 1615.67,1388.71 1657.94,1388.71 1700.2,1388.71 1742.47,1388.71 
  1784.73,1388.71 1826.99,1388.71 1869.26,1388.71 1911.52,1388.71 1953.79,1388.71 
  1996.05,1388.71 2038.31,1388.71 2080.58,1388.71 2122.84,1388.71 2165.1,1388.71 
  2207.37,1388.71 2249.63,1388.71 2291.9,1388.71 
  "/>
<polyline clip-path="url(#clip4102)" style="stroke:#000000; stroke-width:2.8; stroke-opacity:1; fill:none" points="
  263.233,1388.52 305.497,1388.52 305.497,1388.71 347.76,1388.71 347.76,1387.56 390.024,1387.56 390.024,1387.08 432.288,1387.08 432.288,1385.63 474.552,1385.63 
  474.552,1384.28 516.816,1384.28 516.816,1374.16 559.08,1374.16 559.08,1359.42 601.343,1359.42 601.343,1351.13 643.607,1351.13 643.607,1331.95 685.871,1331.95 
  685.871,1294.66 728.135,1294.66 728.135,1230.09 770.399,1230.09 770.399,1175.93 812.662,1175.93 812.662,1052.77 854.926,1052.77 854.926,916.119 897.19,916.119 
  897.19,794.308 939.454,794.308 939.454,680.014 981.718,680.014 981.718,452.678 1023.98,452.678 1023.98,385.991 1066.25,385.991 1066.25,303.691 1108.51,303.691 
  1108.51,211.562 1150.77,211.562 1150.77,194.408 1193.04,194.408 1193.04,239.895 1235.3,239.895 1235.3,340.601 1277.56,340.601 1277.56,413.456 1319.83,413.456 
  1319.83,610.532 1362.09,610.532 1362.09,696.879 1404.36,696.879 1404.36,826.784 1446.62,826.784 1446.62,962.762 1488.88,962.762 1488.88,1068.77 1531.15,1068.77 
  1531.15,1166.2 1573.41,1166.2 1573.41,1226.72 1615.67,1226.72 1615.67,1273.84 1657.94,1273.84 1657.94,1329.83 1700.2,1329.83 1700.2,1354.89 1742.47,1354.89 
  1742.47,1368.67 1784.73,1368.67 1784.73,1373.58 1826.99,1373.58 1826.99,1383.61 1869.26,1383.61 1869.26,1385.92 1911.52,1385.92 1911.52,1388.04 1953.79,1388.04 
  1953.79,1386.69 1996.05,1386.69 1996.05,1388.43 2038.31,1388.43 2038.31,1388.71 2080.58,1388.71 2080.58,1388.33 2122.84,1388.33 2122.84,1388.71 2165.1,1388.71 
  2165.1,1388.04 2207.37,1388.04 2207.37,1387.56 2249.63,1387.56 2249.63,1388.71 2291.9,1388.71 2291.9,1388.52 
  "/>
<path clip-path="url(#clip4102)" d="
M958.184 1388.71 L1378.26 1388.71 L1378.26 158.579 L958.184 158.579 L958.184 1388.71  Z
  " fill="#808080" fill-rule="evenodd" fill-opacity="0.5"/>
<polyline clip-path="url(#clip4102)" style="stroke:#000000; stroke-width:0; stroke-opacity:1; fill:none" points="
  958.184,1388.71 1378.26,1388.71 1378.26,158.579 958.184,158.579 958.184,1388.71 
  "/>
<polyline clip-path="url(#clip4102)" style="stroke:#696969; stroke-width:4; stroke-opacity:1; fill:none" points="
  1168.22,1388.71 1168.22,158.579 
  "/>
<polyline clip-path="url(#clip4102)" style="stroke:#000000; stroke-width:4; stroke-opacity:1; fill:none" stroke-dasharray="16, 10" points="
  1191.5,1388.71 1191.5,158.579 
  "/>
<polyline clip-path="url(#clip4102)" style="stroke:#000000; stroke-width:4; stroke-opacity:1; fill:none" stroke-dasharray="2, 4" points="
  1171.9,1388.71 1171.9,158.579 
  "/>
<path clip-path="url(#clip4100)" d="
M1463.01 689.035 L2280.76 689.035 L2280.76 205.195 L1463.01 205.195  Z
  " fill="#ffffff" fill-rule="evenodd" fill-opacity="1"/>
<polyline clip-path="url(#clip4100)" style="stroke:#000000; stroke-width:4; stroke-opacity:1; fill:none" points="
  1463.01,689.035 2280.76,689.035 2280.76,205.195 1463.01,205.195 1463.01,689.035 
  "/>
<path clip-path="url(#clip4100)" d="
M1487.01 289.867 L1631.01 289.867 L1631.01 241.483 L1487.01 241.483 L1487.01 289.867  Z
  " fill="#ff0000" fill-rule="evenodd" fill-opacity="1"/>
<polyline clip-path="url(#clip4100)" style="stroke:#009af9; stroke-width:0; stroke-opacity:1; fill:none" points="
  1487.01,241.483 1631.01,241.483 
  "/>
<g clip-path="url(#clip4100)">
<text style="fill:#000000; fill-opacity:1; font-family:Arial,Helvetica Neue,Helvetica,sans-serif; font-size:48px; text-anchor:start;" transform="rotate(0, 1655.01, 283.175)" x="1655.01" y="283.175">smallest 99.74% interval(s)</text>
</g>
<path clip-path="url(#clip4100)" d="
M1487.01 350.347 L1631.01 350.347 L1631.01 301.963 L1487.01 301.963 L1487.01 350.347  Z
  " fill="#ffff00" fill-rule="evenodd" fill-opacity="1"/>
<polyline clip-path="url(#clip4100)" style="stroke:#e26f46; stroke-width:0; stroke-opacity:1; fill:none" points="
  1487.01,301.963 1631.01,301.963 
  "/>
<g clip-path="url(#clip4100)">
<text style="fill:#000000; fill-opacity:1; font-family:Arial,Helvetica Neue,Helvetica,sans-serif; font-size:48px; text-anchor:start;" transform="rotate(0, 1655.01, 343.655)" x="1655.01" y="343.655">smallest 95.53% interval(s)</text>
</g>
<path clip-path="url(#clip4100)" d="
M1487.01 410.827 L1631.01 410.827 L1631.01 362.443 L1487.01 362.443 L1487.01 410.827  Z
  " fill="#76ee00" fill-rule="evenodd" fill-opacity="1"/>
<polyline clip-path="url(#clip4100)" style="stroke:#3da44d; stroke-width:0; stroke-opacity:1; fill:none" points="
  1487.01,362.443 1631.01,362.443 
  "/>
<g clip-path="url(#clip4100)">
<text style="fill:#000000; fill-opacity:1; font-family:Arial,Helvetica Neue,Helvetica,sans-serif; font-size:48px; text-anchor:start;" transform="rotate(0, 1655.01, 404.135)" x="1655.01" y="404.135">smallest 68.34% interval(s)</text>
</g>
<path clip-path="url(#clip4100)" d="
M1487.01 471.307 L1631.01 471.307 L1631.01 422.923 L1487.01 422.923 L1487.01 471.307  Z
  " fill="#808080" fill-rule="evenodd" fill-opacity="0.5"/>
<polyline clip-path="url(#clip4100)" style="stroke:#000000; stroke-width:0; stroke-opacity:1; fill:none" points="
  1487.01,471.307 1631.01,471.307 1631.01,422.923 1487.01,422.923 1487.01,471.307 
  "/>
<g clip-path="url(#clip4100)">
<text style="fill:#000000; fill-opacity:1; font-family:Arial,Helvetica Neue,Helvetica,sans-serif; font-size:48px; text-anchor:start;" transform="rotate(0, 1655.01, 464.615)" x="1655.01" y="464.615">std. dev.</text>
</g>
<polyline clip-path="url(#clip4100)" style="stroke:#696969; stroke-width:4; stroke-opacity:1; fill:none" points="
  1487.01,507.595 1631.01,507.595 
  "/>
<g clip-path="url(#clip4100)">
<text style="fill:#000000; fill-opacity:1; font-family:Arial,Helvetica Neue,Helvetica,sans-serif; font-size:48px; text-anchor:start;" transform="rotate(0, 1655.01, 525.095)" x="1655.01" y="525.095">mean</text>
</g>
<polyline clip-path="url(#clip4100)" style="stroke:#000000; stroke-width:4; stroke-opacity:1; fill:none" stroke-dasharray="16, 10" points="
  1487.01,568.075 1631.01,568.075 
  "/>
<g clip-path="url(#clip4100)">
<text style="fill:#000000; fill-opacity:1; font-family:Arial,Helvetica Neue,Helvetica,sans-serif; font-size:48px; text-anchor:start;" transform="rotate(0, 1655.01, 585.575)" x="1655.01" y="585.575">global mode</text>
</g>
<polyline clip-path="url(#clip4100)" style="stroke:#000000; stroke-width:4; stroke-opacity:1; fill:none" stroke-dasharray="2, 4" points="
  1487.01,628.555 1631.01,628.555 
  "/>
<g clip-path="url(#clip4100)">
<text style="fill:#000000; fill-opacity:1; font-family:Arial,Helvetica Neue,Helvetica,sans-serif; font-size:48px; text-anchor:start;" transform="rotate(0, 1655.01, 646.055)" x="1655.01" y="646.055">local mode</text>
</g>
</svg>
