<?xml version="1.0" encoding="utf-8"?>
<svg xmlns="http://www.w3.org/2000/svg" xmlns:xlink="http://www.w3.org/1999/xlink" width="600" height="400" viewBox="0 0 2400 1600">
<defs>
  <clipPath id="clip610">
    <rect x="0" y="0" width="2400" height="1600"/>
  </clipPath>
</defs>
<path clip-path="url(#clip610)" d="
M0 1600 L2400 1600 L2400 0 L0 0  Z
  " fill="#ffffff" fill-rule="evenodd" fill-opacity="1"/>
<defs>
  <clipPath id="clip611">
    <rect x="480" y="0" width="1681" height="1600"/>
  </clipPath>
</defs>
<path clip-path="url(#clip610)" d="
M166.205 1486.45 L2352.76 1486.45 L2352.76 123.472 L166.205 123.472  Z
  " fill="#ffffff" fill-rule="evenodd" fill-opacity="1"/>
<defs>
  <clipPath id="clip612">
    <rect x="166" y="123" width="2188" height="1364"/>
  </clipPath>
</defs>
<polyline clip-path="url(#clip612)" style="stroke:#000000; stroke-width:2; stroke-opacity:0.1; fill:none" points="
  228.088,1486.45 228.088,123.472 
  "/>
<polyline clip-path="url(#clip612)" style="stroke:#000000; stroke-width:2; stroke-opacity:0.1; fill:none" points="
  743.784,1486.45 743.784,123.472 
  "/>
<polyline clip-path="url(#clip612)" style="stroke:#000000; stroke-width:2; stroke-opacity:0.1; fill:none" points="
  1259.48,1486.45 1259.48,123.472 
  "/>
<polyline clip-path="url(#clip612)" style="stroke:#000000; stroke-width:2; stroke-opacity:0.1; fill:none" points="
  1775.18,1486.45 1775.18,123.472 
  "/>
<polyline clip-path="url(#clip612)" style="stroke:#000000; stroke-width:2; stroke-opacity:0.1; fill:none" points="
  2290.87,1486.45 2290.87,123.472 
  "/>
<polyline clip-path="url(#clip612)" style="stroke:#000000; stroke-width:2; stroke-opacity:0.1; fill:none" points="
  166.205,1447.87 2352.76,1447.87 
  "/>
<polyline clip-path="url(#clip612)" style="stroke:#000000; stroke-width:2; stroke-opacity:0.1; fill:none" points="
  166.205,1174.29 2352.76,1174.29 
  "/>
<polyline clip-path="url(#clip612)" style="stroke:#000000; stroke-width:2; stroke-opacity:0.1; fill:none" points="
  166.205,900.713 2352.76,900.713 
  "/>
<polyline clip-path="url(#clip612)" style="stroke:#000000; stroke-width:2; stroke-opacity:0.1; fill:none" points="
  166.205,627.133 2352.76,627.133 
  "/>
<polyline clip-path="url(#clip612)" style="stroke:#000000; stroke-width:2; stroke-opacity:0.1; fill:none" points="
  166.205,353.553 2352.76,353.553 
  "/>
<polyline clip-path="url(#clip610)" style="stroke:#000000; stroke-width:4; stroke-opacity:1; fill:none" points="
  166.205,1486.45 2352.76,1486.45 
  "/>
<polyline clip-path="url(#clip610)" style="stroke:#000000; stroke-width:4; stroke-opacity:1; fill:none" points="
  166.205,1486.45 166.205,123.472 
  "/>
<polyline clip-path="url(#clip610)" style="stroke:#000000; stroke-width:4; stroke-opacity:1; fill:none" points="
  228.088,1486.45 228.088,1470.09 
  "/>
<polyline clip-path="url(#clip610)" style="stroke:#000000; stroke-width:4; stroke-opacity:1; fill:none" points="
  743.784,1486.45 743.784,1470.09 
  "/>
<polyline clip-path="url(#clip610)" style="stroke:#000000; stroke-width:4; stroke-opacity:1; fill:none" points="
  1259.48,1486.45 1259.48,1470.09 
  "/>
<polyline clip-path="url(#clip610)" style="stroke:#000000; stroke-width:4; stroke-opacity:1; fill:none" points="
  1775.18,1486.45 1775.18,1470.09 
  "/>
<polyline clip-path="url(#clip610)" style="stroke:#000000; stroke-width:4; stroke-opacity:1; fill:none" points="
  2290.87,1486.45 2290.87,1470.09 
  "/>
<polyline clip-path="url(#clip610)" style="stroke:#000000; stroke-width:4; stroke-opacity:1; fill:none" points="
  166.205,1447.87 192.443,1447.87 
  "/>
<polyline clip-path="url(#clip610)" style="stroke:#000000; stroke-width:4; stroke-opacity:1; fill:none" points="
  166.205,1174.29 192.443,1174.29 
  "/>
<polyline clip-path="url(#clip610)" style="stroke:#000000; stroke-width:4; stroke-opacity:1; fill:none" points="
  166.205,900.713 192.443,900.713 
  "/>
<polyline clip-path="url(#clip610)" style="stroke:#000000; stroke-width:4; stroke-opacity:1; fill:none" points="
  166.205,627.133 192.443,627.133 
  "/>
<polyline clip-path="url(#clip610)" style="stroke:#000000; stroke-width:4; stroke-opacity:1; fill:none" points="
  166.205,353.553 192.443,353.553 
  "/>
<path clip-path="url(#clip610)" d="M 0 0 M208.1 1525.04 L220.577 1525.04 L220.577 1528.83 L208.1 1528.83 L208.1 1525.04 Z" fill="#000000" fill-rule="evenodd" fill-opacity="1" /><path clip-path="url(#clip610)" d="M 0 0 M238.493 1509.43 L226.688 1527.88 L238.493 1527.88 L238.493 1509.43 M237.266 1505.36 L243.146 1505.36 L243.146 1527.88 L248.077 1527.88 L248.077 1531.77 L243.146 1531.77 L243.146 1539.92 L238.493 1539.92 L238.493 1531.77 L222.891 1531.77 L222.891 1527.26 L237.266 1505.36 Z" fill="#000000" fill-rule="evenodd" fill-opacity="1" /><path clip-path="url(#clip610)" d="M 0 0 M724.838 1525.04 L737.314 1525.04 L737.314 1528.83 L724.838 1528.83 L724.838 1525.04 Z" fill="#000000" fill-rule="evenodd" fill-opacity="1" /><path clip-path="url(#clip610)" d="M 0 0 M746.412 1535.98 L762.731 1535.98 L762.731 1539.92 L740.787 1539.92 L740.787 1535.98 Q743.449 1533.23 748.032 1528.6 Q752.638 1523.95 753.819 1522.61 Q756.064 1520.08 756.944 1518.35 Q757.847 1516.59 757.847 1514.9 Q757.847 1512.14 755.902 1510.41 Q753.981 1508.67 750.879 1508.67 Q748.68 1508.67 746.226 1509.43 Q743.796 1510.2 741.018 1511.75 L741.018 1507.03 Q743.842 1505.89 746.296 1505.31 Q748.749 1504.73 750.787 1504.73 Q756.157 1504.73 759.351 1507.42 Q762.546 1510.11 762.546 1514.6 Q762.546 1516.73 761.736 1518.65 Q760.948 1520.54 758.842 1523.14 Q758.263 1523.81 755.161 1527.03 Q752.06 1530.22 746.412 1535.98 Z" fill="#000000" fill-rule="evenodd" fill-opacity="1" /><path clip-path="url(#clip610)" d="M 0 0 M1259.48 1508.44 Q1255.87 1508.44 1254.04 1512 Q1252.23 1515.55 1252.23 1522.67 Q1252.23 1529.78 1254.04 1533.35 Q1255.87 1536.89 1259.48 1536.89 Q1263.11 1536.89 1264.92 1533.35 Q1266.75 1529.78 1266.75 1522.67 Q1266.75 1515.55 1264.92 1512 Q1263.11 1508.44 1259.48 1508.44 M1259.48 1504.73 Q1265.29 1504.73 1268.35 1509.34 Q1271.42 1513.92 1271.42 1522.67 Q1271.42 1531.4 1268.35 1536.01 Q1265.29 1540.59 1259.48 1540.59 Q1253.67 1540.59 1250.59 1536.01 Q1247.54 1531.4 1247.54 1522.67 Q1247.54 1513.92 1250.59 1509.34 Q1253.67 1504.73 1259.48 1504.73 Z" fill="#000000" fill-rule="evenodd" fill-opacity="1" /><path clip-path="url(#clip610)" d="M 0 0 M1769.83 1535.98 L1786.15 1535.98 L1786.15 1539.92 L1764.2 1539.92 L1764.2 1535.98 Q1766.87 1533.23 1771.45 1528.6 Q1776.06 1523.95 1777.24 1522.61 Q1779.48 1520.08 1780.36 1518.35 Q1781.26 1516.59 1781.26 1514.9 Q1781.26 1512.14 1779.32 1510.41 Q1777.4 1508.67 1774.3 1508.67 Q1772.1 1508.67 1769.64 1509.43 Q1767.21 1510.2 1764.44 1511.75 L1764.44 1507.03 Q1767.26 1505.89 1769.71 1505.31 Q1772.17 1504.73 1774.2 1504.73 Q1779.57 1504.73 1782.77 1507.42 Q1785.96 1510.11 1785.96 1514.6 Q1785.96 1516.73 1785.15 1518.65 Q1784.37 1520.54 1782.26 1523.14 Q1781.68 1523.81 1778.58 1527.03 Q1775.48 1530.22 1769.83 1535.98 Z" fill="#000000" fill-rule="evenodd" fill-opacity="1" /><path clip-path="url(#clip610)" d="M 0 0 M2293.88 1509.43 L2282.08 1527.88 L2293.88 1527.88 L2293.88 1509.43 M2292.65 1505.36 L2298.53 1505.36 L2298.53 1527.88 L2303.46 1527.88 L2303.46 1531.77 L2298.53 1531.77 L2298.53 1539.92 L2293.88 1539.92 L2293.88 1531.77 L2278.28 1531.77 L2278.28 1527.26 L2292.65 1505.36 Z" fill="#000000" fill-rule="evenodd" fill-opacity="1" /><path clip-path="url(#clip610)" d="M 0 0 M130.26 1433.67 Q126.649 1433.67 124.82 1437.24 Q123.015 1440.78 123.015 1447.91 Q123.015 1455.01 124.82 1458.58 Q126.649 1462.12 130.26 1462.12 Q133.895 1462.12 135.7 1458.58 Q137.529 1455.01 137.529 1447.91 Q137.529 1440.78 135.7 1437.24 Q133.895 1433.67 130.26 1433.67 M130.26 1429.97 Q136.07 1429.97 139.126 1434.57 Q142.205 1439.16 142.205 1447.91 Q142.205 1456.63 139.126 1461.24 Q136.07 1465.82 130.26 1465.82 Q124.45 1465.82 121.371 1461.24 Q118.316 1456.63 118.316 1447.91 Q118.316 1439.16 121.371 1434.57 Q124.45 1429.97 130.26 1429.97 Z" fill="#000000" fill-rule="evenodd" fill-opacity="1" /><path clip-path="url(#clip610)" d="M 0 0 M71.8578 1187.64 L88.1772 1187.64 L88.1772 1191.57 L66.2328 1191.57 L66.2328 1187.64 Q68.8949 1184.88 73.4782 1180.25 Q78.0846 1175.6 79.2652 1174.26 Q81.5105 1171.74 82.3902 1170 Q83.2929 1168.24 83.2929 1166.55 Q83.2929 1163.8 81.3485 1162.06 Q79.4272 1160.32 76.3254 1160.32 Q74.1263 1160.32 71.6726 1161.09 Q69.2421 1161.85 66.4643 1163.4 L66.4643 1158.68 Q69.2884 1157.55 71.7421 1156.97 Q74.1958 1156.39 76.2328 1156.39 Q81.6031 1156.39 84.7976 1159.07 Q87.992 1161.76 87.992 1166.25 Q87.992 1168.38 87.1818 1170.3 Q86.3948 1172.2 84.2883 1174.79 Q83.7096 1175.46 80.6078 1178.68 Q77.5059 1181.87 71.8578 1187.64 Z" fill="#000000" fill-rule="evenodd" fill-opacity="1" /><path clip-path="url(#clip610)" d="M 0 0 M103.247 1160.09 Q99.6354 1160.09 97.8068 1163.66 Q96.0012 1167.2 96.0012 1174.33 Q96.0012 1181.43 97.8068 1185 Q99.6354 1188.54 103.247 1188.54 Q106.881 1188.54 108.686 1185 Q110.515 1181.43 110.515 1174.33 Q110.515 1167.2 108.686 1163.66 Q106.881 1160.09 103.247 1160.09 M103.247 1156.39 Q109.057 1156.39 112.112 1160.99 Q115.191 1165.58 115.191 1174.33 Q115.191 1183.05 112.112 1187.66 Q109.057 1192.24 103.247 1192.24 Q97.4364 1192.24 94.3577 1187.66 Q91.3022 1183.05 91.3022 1174.33 Q91.3022 1165.58 94.3577 1160.99 Q97.4364 1156.39 103.247 1156.39 Z" fill="#000000" fill-rule="evenodd" fill-opacity="1" /><path clip-path="url(#clip610)" d="M 0 0 M130.26 1160.09 Q126.649 1160.09 124.82 1163.66 Q123.015 1167.2 123.015 1174.33 Q123.015 1181.43 124.82 1185 Q126.649 1188.54 130.26 1188.54 Q133.895 1188.54 135.7 1185 Q137.529 1181.43 137.529 1174.33 Q137.529 1167.2 135.7 1163.66 Q133.895 1160.09 130.26 1160.09 M130.26 1156.39 Q136.07 1156.39 139.126 1160.99 Q142.205 1165.58 142.205 1174.33 Q142.205 1183.05 139.126 1187.66 Q136.07 1192.24 130.26 1192.24 Q124.45 1192.24 121.371 1187.66 Q118.316 1183.05 118.316 1174.33 Q118.316 1165.58 121.371 1160.99 Q124.45 1156.39 130.26 1156.39 Z" fill="#000000" fill-rule="evenodd" fill-opacity="1" /><path clip-path="url(#clip610)" d="M 0 0 M78.5939 887.507 L66.7884 905.956 L78.5939 905.956 L78.5939 887.507 M77.367 883.433 L83.2466 883.433 L83.2466 905.956 L88.1772 905.956 L88.1772 909.845 L83.2466 909.845 L83.2466 917.993 L78.5939 917.993 L78.5939 909.845 L62.9921 909.845 L62.9921 905.331 L77.367 883.433 Z" fill="#000000" fill-rule="evenodd" fill-opacity="1" /><path clip-path="url(#clip610)" d="M 0 0 M103.247 886.512 Q99.6354 886.512 97.8068 890.076 Q96.0012 893.618 96.0012 900.748 Q96.0012 907.854 97.8068 911.419 Q99.6354 914.961 103.247 914.961 Q106.881 914.961 108.686 911.419 Q110.515 907.854 110.515 900.748 Q110.515 893.618 108.686 890.076 Q106.881 886.512 103.247 886.512 M103.247 882.808 Q109.057 882.808 112.112 887.414 Q115.191 891.998 115.191 900.748 Q115.191 909.475 112.112 914.081 Q109.057 918.664 103.247 918.664 Q97.4364 918.664 94.3577 914.081 Q91.3022 909.475 91.3022 900.748 Q91.3022 891.998 94.3577 887.414 Q97.4364 882.808 103.247 882.808 Z" fill="#000000" fill-rule="evenodd" fill-opacity="1" /><path clip-path="url(#clip610)" d="M 0 0 M130.26 886.512 Q126.649 886.512 124.82 890.076 Q123.015 893.618 123.015 900.748 Q123.015 907.854 124.82 911.419 Q126.649 914.961 130.26 914.961 Q133.895 914.961 135.7 911.419 Q137.529 907.854 137.529 900.748 Q137.529 893.618 135.7 890.076 Q133.895 886.512 130.26 886.512 M130.26 882.808 Q136.07 882.808 139.126 887.414 Q142.205 891.998 142.205 900.748 Q142.205 909.475 139.126 914.081 Q136.07 918.664 130.26 918.664 Q124.45 918.664 121.371 914.081 Q118.316 909.475 118.316 900.748 Q118.316 891.998 121.371 887.414 Q124.45 882.808 130.26 882.808 Z" fill="#000000" fill-rule="evenodd" fill-opacity="1" /><path clip-path="url(#clip610)" d="M 0 0 M76.6495 625.27 Q73.5013 625.27 71.6495 627.422 Q69.8208 629.575 69.8208 633.325 Q69.8208 637.052 71.6495 639.228 Q73.5013 641.381 76.6495 641.381 Q79.7976 641.381 81.6263 639.228 Q83.4781 637.052 83.4781 633.325 Q83.4781 629.575 81.6263 627.422 Q79.7976 625.27 76.6495 625.27 M85.9318 610.617 L85.9318 614.876 Q84.1726 614.043 82.367 613.603 Q80.5846 613.163 78.8254 613.163 Q74.1958 613.163 71.7421 616.288 Q69.3115 619.413 68.9643 625.733 Q70.33 623.719 72.3902 622.654 Q74.4504 621.566 76.9272 621.566 Q82.1355 621.566 85.1448 624.737 Q88.1772 627.885 88.1772 633.325 Q88.1772 638.649 85.029 641.867 Q81.8809 645.084 76.6495 645.084 Q70.6541 645.084 67.4828 640.501 Q64.3116 635.895 64.3116 627.168 Q64.3116 618.973 68.2004 614.112 Q72.0893 609.228 78.6402 609.228 Q80.3994 609.228 82.1818 609.575 Q83.9874 609.922 85.9318 610.617 Z" fill="#000000" fill-rule="evenodd" fill-opacity="1" /><path clip-path="url(#clip610)" d="M 0 0 M103.247 612.932 Q99.6354 612.932 97.8068 616.496 Q96.0012 620.038 96.0012 627.168 Q96.0012 634.274 97.8068 637.839 Q99.6354 641.381 103.247 641.381 Q106.881 641.381 108.686 637.839 Q110.515 634.274 110.515 627.168 Q110.515 620.038 108.686 616.496 Q106.881 612.932 103.247 612.932 M103.247 609.228 Q109.057 609.228 112.112 613.834 Q115.191 618.418 115.191 627.168 Q115.191 635.895 112.112 640.501 Q109.057 645.084 103.247 645.084 Q97.4364 645.084 94.3577 640.501 Q91.3022 635.895 91.3022 627.168 Q91.3022 618.418 94.3577 613.834 Q97.4364 609.228 103.247 609.228 Z" fill="#000000" fill-rule="evenodd" fill-opacity="1" /><path clip-path="url(#clip610)" d="M 0 0 M130.26 612.932 Q126.649 612.932 124.82 616.496 Q123.015 620.038 123.015 627.168 Q123.015 634.274 124.82 637.839 Q126.649 641.381 130.26 641.381 Q133.895 641.381 135.7 637.839 Q137.529 634.274 137.529 627.168 Q137.529 620.038 135.7 616.496 Q133.895 612.932 130.26 612.932 M130.26 609.228 Q136.07 609.228 139.126 613.834 Q142.205 618.418 142.205 627.168 Q142.205 635.895 139.126 640.501 Q136.07 645.084 130.26 645.084 Q124.45 645.084 121.371 640.501 Q118.316 635.895 118.316 627.168 Q118.316 618.418 121.371 613.834 Q124.45 609.228 130.26 609.228 Z" fill="#000000" fill-rule="evenodd" fill-opacity="1" /><path clip-path="url(#clip610)" d="M 0 0 M76.3254 354.421 Q72.9921 354.421 71.0708 356.203 Q69.1726 357.986 69.1726 361.111 Q69.1726 364.236 71.0708 366.018 Q72.9921 367.801 76.3254 367.801 Q79.6587 367.801 81.58 366.018 Q83.5013 364.213 83.5013 361.111 Q83.5013 357.986 81.58 356.203 Q79.6819 354.421 76.3254 354.421 M71.6495 352.43 Q68.6402 351.69 66.9504 349.629 Q65.2838 347.569 65.2838 344.606 Q65.2838 340.463 68.2236 338.055 Q71.1865 335.648 76.3254 335.648 Q81.4874 335.648 84.4272 338.055 Q87.367 340.463 87.367 344.606 Q87.367 347.569 85.6772 349.629 Q84.0105 351.69 81.0244 352.43 Q84.404 353.217 86.279 355.509 Q88.1772 357.801 88.1772 361.111 Q88.1772 366.134 85.0985 368.819 Q82.0429 371.504 76.3254 371.504 Q70.6078 371.504 67.5291 368.819 Q64.4736 366.134 64.4736 361.111 Q64.4736 357.801 66.3717 355.509 Q68.2699 353.217 71.6495 352.43 M69.9365 345.046 Q69.9365 347.731 71.6032 349.236 Q73.293 350.74 76.3254 350.74 Q79.3346 350.74 81.0244 349.236 Q82.7374 347.731 82.7374 345.046 Q82.7374 342.361 81.0244 340.856 Q79.3346 339.352 76.3254 339.352 Q73.293 339.352 71.6032 340.856 Q69.9365 342.361 69.9365 345.046 Z" fill="#000000" fill-rule="evenodd" fill-opacity="1" /><path clip-path="url(#clip610)" d="M 0 0 M103.247 339.352 Q99.6354 339.352 97.8068 342.916 Q96.0012 346.458 96.0012 353.588 Q96.0012 360.694 97.8068 364.259 Q99.6354 367.801 103.247 367.801 Q106.881 367.801 108.686 364.259 Q110.515 360.694 110.515 353.588 Q110.515 346.458 108.686 342.916 Q106.881 339.352 103.247 339.352 M103.247 335.648 Q109.057 335.648 112.112 340.254 Q115.191 344.838 115.191 353.588 Q115.191 362.314 112.112 366.921 Q109.057 371.504 103.247 371.504 Q97.4364 371.504 94.3577 366.921 Q91.3022 362.314 91.3022 353.588 Q91.3022 344.838 94.3577 340.254 Q97.4364 335.648 103.247 335.648 Z" fill="#000000" fill-rule="evenodd" fill-opacity="1" /><path clip-path="url(#clip610)" d="M 0 0 M130.26 339.352 Q126.649 339.352 124.82 342.916 Q123.015 346.458 123.015 353.588 Q123.015 360.694 124.82 364.259 Q126.649 367.801 130.26 367.801 Q133.895 367.801 135.7 364.259 Q137.529 360.694 137.529 353.588 Q137.529 346.458 135.7 342.916 Q133.895 339.352 130.26 339.352 M130.26 335.648 Q136.07 335.648 139.126 340.254 Q142.205 344.838 142.205 353.588 Q142.205 362.314 139.126 366.921 Q136.07 371.504 130.26 371.504 Q124.45 371.504 121.371 366.921 Q118.316 362.314 118.316 353.588 Q118.316 344.838 121.371 340.254 Q124.45 335.648 130.26 335.648 Z" fill="#000000" fill-rule="evenodd" fill-opacity="1" /><path clip-path="url(#clip610)" d="M 0 0 M725.976 18.8205 L725.976 65.8515 L735.86 65.8515 Q748.378 65.8515 754.17 60.1802 Q760.004 54.509 760.004 42.2752 Q760.004 30.1225 754.17 24.4918 Q748.378 18.8205 735.86 18.8205 L725.976 18.8205 M717.793 12.096 L734.605 12.096 Q752.186 12.096 760.409 19.4281 Q768.632 26.7198 768.632 42.2752 Q768.632 57.9117 760.368 65.2439 Q752.105 72.576 734.605 72.576 L717.793 72.576 L717.793 12.096 Z" fill="#000000" fill-rule="evenodd" fill-opacity="1" /><path clip-path="url(#clip610)" d="M 0 0 M797.07 49.7694 Q788.036 49.7694 784.552 51.8354 Q781.068 53.9013 781.068 58.8839 Q781.068 62.8538 783.661 65.2034 Q786.294 67.5124 790.791 67.5124 Q796.989 67.5124 800.715 63.1374 Q804.483 58.7219 804.483 51.4303 L804.483 49.7694 L797.07 49.7694 M811.936 46.6907 L811.936 72.576 L804.483 72.576 L804.483 65.6895 Q801.931 69.8214 798.123 71.8063 Q794.315 73.7508 788.806 73.7508 Q781.838 73.7508 777.706 69.8619 Q773.615 65.9325 773.615 59.3701 Q773.615 51.7138 778.719 47.825 Q783.864 43.9361 794.031 43.9361 L804.483 43.9361 L804.483 43.2069 Q804.483 38.0623 801.08 35.2672 Q797.718 32.4315 791.601 32.4315 Q787.712 32.4315 784.026 33.3632 Q780.339 34.295 776.937 36.1584 L776.937 29.2718 Q781.028 27.692 784.876 26.9223 Q788.725 26.1121 792.371 26.1121 Q802.214 26.1121 807.075 31.2163 Q811.936 36.3204 811.936 46.6907 Z" fill="#000000" fill-rule="evenodd" fill-opacity="1" /><path clip-path="url(#clip610)" d="M 0 0 M827.127 14.324 L827.127 27.2059 L842.48 27.2059 L842.48 32.9987 L827.127 32.9987 L827.127 57.6282 Q827.127 63.1779 828.626 64.7578 Q830.165 66.3376 834.824 66.3376 L842.48 66.3376 L842.48 72.576 L834.824 72.576 Q826.196 72.576 822.914 69.3758 Q819.633 66.1351 819.633 57.6282 L819.633 32.9987 L814.164 32.9987 L814.164 27.2059 L819.633 27.2059 L819.633 14.324 L827.127 14.324 Z" fill="#000000" fill-rule="evenodd" fill-opacity="1" /><path clip-path="url(#clip610)" d="M 0 0 M870.918 49.7694 Q861.884 49.7694 858.4 51.8354 Q854.916 53.9013 854.916 58.8839 Q854.916 62.8538 857.509 65.2034 Q860.142 67.5124 864.639 67.5124 Q870.837 67.5124 874.563 63.1374 Q878.331 58.7219 878.331 51.4303 L878.331 49.7694 L870.918 49.7694 M885.784 46.6907 L885.784 72.576 L878.331 72.576 L878.331 65.6895 Q875.779 69.8214 871.971 71.8063 Q868.163 73.7508 862.654 73.7508 Q855.686 73.7508 851.554 69.8619 Q847.463 65.9325 847.463 59.3701 Q847.463 51.7138 852.567 47.825 Q857.712 43.9361 867.879 43.9361 L878.331 43.9361 L878.331 43.2069 Q878.331 38.0623 874.928 35.2672 Q871.566 32.4315 865.449 32.4315 Q861.56 32.4315 857.874 33.3632 Q854.187 34.295 850.785 36.1584 L850.785 29.2718 Q854.876 27.692 858.724 26.9223 Q862.573 26.1121 866.219 26.1121 Q876.062 26.1121 880.923 31.2163 Q885.784 36.3204 885.784 46.6907 Z" fill="#000000" fill-rule="evenodd" fill-opacity="1" /><path clip-path="url(#clip610)" d="M 0 0 M895.507 62.2867 L904.054 62.2867 L904.054 69.2543 L897.41 82.2172 L892.185 82.2172 L895.507 69.2543 L895.507 62.2867 Z" fill="#000000" fill-rule="evenodd" fill-opacity="1" /><path clip-path="url(#clip610)" d="M 0 0 M930.182 12.096 L981.345 12.096 L981.345 18.9825 L959.875 18.9825 L959.875 72.576 L951.652 72.576 L951.652 18.9825 L930.182 18.9825 L930.182 12.096 Z" fill="#000000" fill-rule="evenodd" fill-opacity="1" /><path clip-path="url(#clip610)" d="M 0 0 M1003.26 34.1734 Q1002 33.4443 1000.51 33.1202 Q999.048 32.7556 997.265 32.7556 Q990.946 32.7556 987.543 36.8875 Q984.181 40.9789 984.181 48.6757 L984.181 72.576 L976.687 72.576 L976.687 27.2059 L984.181 27.2059 L984.181 34.2544 Q986.53 30.1225 990.298 28.1376 Q994.065 26.1121 999.453 26.1121 Q1000.22 26.1121 1001.15 26.2337 Q1002.09 26.3147 1003.22 26.5172 L1003.26 34.1734 Z" fill="#000000" fill-rule="evenodd" fill-opacity="1" /><path clip-path="url(#clip610)" d="M 0 0 M1010.31 54.671 L1010.31 27.2059 L1017.76 27.2059 L1017.76 54.3874 Q1017.76 60.8284 1020.27 64.0691 Q1022.79 67.2693 1027.81 67.2693 Q1033.84 67.2693 1037.33 63.421 Q1040.85 59.5726 1040.85 52.9291 L1040.85 27.2059 L1048.31 27.2059 L1048.31 72.576 L1040.85 72.576 L1040.85 65.6084 Q1038.14 69.7404 1034.53 71.7658 Q1030.97 73.7508 1026.23 73.7508 Q1018.41 73.7508 1014.36 68.8897 Q1010.31 64.0286 1010.31 54.671 M1029.06 26.1121 L1029.06 26.1121 Z" fill="#000000" fill-rule="evenodd" fill-opacity="1" /><path clip-path="url(#clip610)" d="M 0 0 M1094.93 48.0275 L1094.93 51.6733 L1060.66 51.6733 Q1061.15 59.3701 1065.28 63.421 Q1069.45 67.4314 1076.87 67.4314 Q1081.16 67.4314 1085.17 66.3781 Q1089.22 65.3249 1093.19 63.2184 L1093.19 70.267 Q1089.18 71.9684 1084.97 72.8596 Q1080.75 73.7508 1076.42 73.7508 Q1065.56 73.7508 1059.2 67.4314 Q1052.88 61.1119 1052.88 50.3365 Q1052.88 39.1965 1058.88 32.6746 Q1064.92 26.1121 1075.12 26.1121 Q1084.28 26.1121 1089.59 32.0264 Q1094.93 37.9003 1094.93 48.0275 M1087.48 45.84 Q1087.4 39.7232 1084.04 36.0774 Q1080.71 32.4315 1075.2 32.4315 Q1068.97 32.4315 1065.2 35.9558 Q1061.47 39.4801 1060.9 45.8805 L1087.48 45.84 Z" fill="#000000" fill-rule="evenodd" fill-opacity="1" /><path clip-path="url(#clip610)" d="M 0 0 M1129.45 12.096 L1141.64 12.096 L1157.07 53.2532 L1172.59 12.096 L1184.78 12.096 L1184.78 72.576 L1176.8 72.576 L1176.8 19.4686 L1161.21 60.9499 L1152.98 60.9499 L1137.39 19.4686 L1137.39 72.576 L1129.45 72.576 L1129.45 12.096 Z" fill="#000000" fill-rule="evenodd" fill-opacity="1" /><path clip-path="url(#clip610)" d="M 0 0 M1210.18 32.4315 Q1204.19 32.4315 1200.7 37.1306 Q1197.22 41.7891 1197.22 49.9314 Q1197.22 58.0738 1200.66 62.7728 Q1204.14 67.4314 1210.18 67.4314 Q1216.14 67.4314 1219.62 62.7323 Q1223.1 58.0333 1223.1 49.9314 Q1223.1 41.8701 1219.62 37.1711 Q1216.14 32.4315 1210.18 32.4315 M1210.18 26.1121 Q1219.9 26.1121 1225.45 32.4315 Q1231 38.7509 1231 49.9314 Q1231 61.0714 1225.45 67.4314 Q1219.9 73.7508 1210.18 73.7508 Q1200.42 73.7508 1194.87 67.4314 Q1189.36 61.0714 1189.36 49.9314 Q1189.36 38.7509 1194.87 32.4315 Q1200.42 26.1121 1210.18 26.1121 Z" fill="#000000" fill-rule="evenodd" fill-opacity="1" /><path clip-path="url(#clip610)" d="M 0 0 M1268.68 34.0924 L1268.68 9.54393 L1276.13 9.54393 L1276.13 72.576 L1268.68 72.576 L1268.68 65.7705 Q1266.33 69.8214 1262.72 71.8063 Q1259.16 73.7508 1254.13 73.7508 Q1245.91 73.7508 1240.72 67.1883 Q1235.58 60.6258 1235.58 49.9314 Q1235.58 39.2371 1240.72 32.6746 Q1245.91 26.1121 1254.13 26.1121 Q1259.16 26.1121 1262.72 28.0971 Q1266.33 30.0415 1268.68 34.0924 M1243.28 49.9314 Q1243.28 58.1548 1246.64 62.8538 Q1250.04 67.5124 1255.96 67.5124 Q1261.87 67.5124 1265.27 62.8538 Q1268.68 58.1548 1268.68 49.9314 Q1268.68 41.7081 1265.27 37.0496 Q1261.87 32.3505 1255.96 32.3505 Q1250.04 32.3505 1246.64 37.0496 Q1243.28 41.7081 1243.28 49.9314 Z" fill="#000000" fill-rule="evenodd" fill-opacity="1" /><path clip-path="url(#clip610)" d="M 0 0 M1322.76 48.0275 L1322.76 51.6733 L1288.48 51.6733 Q1288.97 59.3701 1293.1 63.421 Q1297.28 67.4314 1304.69 67.4314 Q1308.98 67.4314 1312.99 66.3781 Q1317.04 65.3249 1321.01 63.2184 L1321.01 70.267 Q1317 71.9684 1312.79 72.8596 Q1308.58 73.7508 1304.24 73.7508 Q1293.39 73.7508 1287.03 67.4314 Q1280.71 61.1119 1280.71 50.3365 Q1280.71 39.1965 1286.7 32.6746 Q1292.74 26.1121 1302.95 26.1121 Q1312.1 26.1121 1317.41 32.0264 Q1322.76 37.9003 1322.76 48.0275 M1315.3 45.84 Q1315.22 39.7232 1311.86 36.0774 Q1308.54 32.4315 1303.03 32.4315 Q1296.79 32.4315 1293.02 35.9558 Q1289.29 39.4801 1288.73 45.8805 L1315.3 45.84 Z" fill="#000000" fill-rule="evenodd" fill-opacity="1" /><path clip-path="url(#clip610)" d="M 0 0 M1330.57 9.54393 L1338.03 9.54393 L1338.03 72.576 L1330.57 72.576 L1330.57 9.54393 Z" fill="#000000" fill-rule="evenodd" fill-opacity="1" /><path clip-path="url(#clip610)" d="M 0 0 M1392.84 49.7694 Q1383.8 49.7694 1380.32 51.8354 Q1376.83 53.9013 1376.83 58.8839 Q1376.83 62.8538 1379.43 65.2034 Q1382.06 67.5124 1386.56 67.5124 Q1392.76 67.5124 1396.48 63.1374 Q1400.25 58.7219 1400.25 51.4303 L1400.25 49.7694 L1392.84 49.7694 M1407.7 46.6907 L1407.7 72.576 L1400.25 72.576 L1400.25 65.6895 Q1397.7 69.8214 1393.89 71.8063 Q1390.08 73.7508 1384.57 73.7508 Q1377.6 73.7508 1373.47 69.8619 Q1369.38 65.9325 1369.38 59.3701 Q1369.38 51.7138 1374.49 47.825 Q1379.63 43.9361 1389.8 43.9361 L1400.25 43.9361 L1400.25 43.2069 Q1400.25 38.0623 1396.85 35.2672 Q1393.48 32.4315 1387.37 32.4315 Q1383.48 32.4315 1379.79 33.3632 Q1376.11 34.295 1372.7 36.1584 L1372.7 29.2718 Q1376.79 27.692 1380.64 26.9223 Q1384.49 26.1121 1388.14 26.1121 Q1397.98 26.1121 1402.84 31.2163 Q1407.7 36.3204 1407.7 46.6907 Z" fill="#000000" fill-rule="evenodd" fill-opacity="1" /><path clip-path="url(#clip610)" d="M 0 0 M1453.24 45.1919 L1453.24 72.576 L1445.78 72.576 L1445.78 45.4349 Q1445.78 38.994 1443.27 35.7938 Q1440.76 32.5936 1435.74 32.5936 Q1429.7 32.5936 1426.22 36.4419 Q1422.73 40.2903 1422.73 46.9338 L1422.73 72.576 L1415.24 72.576 L1415.24 27.2059 L1422.73 27.2059 L1422.73 34.2544 Q1425.41 30.163 1429.01 28.1376 Q1432.66 26.1121 1437.4 26.1121 Q1445.21 26.1121 1449.22 30.9732 Q1453.24 35.7938 1453.24 45.1919 Z" fill="#000000" fill-rule="evenodd" fill-opacity="1" /><path clip-path="url(#clip610)" d="M 0 0 M1490.91 34.0924 L1490.91 9.54393 L1498.36 9.54393 L1498.36 72.576 L1490.91 72.576 L1490.91 65.7705 Q1488.56 69.8214 1484.95 71.8063 Q1481.39 73.7508 1476.37 73.7508 Q1468.14 73.7508 1462.96 67.1883 Q1457.81 60.6258 1457.81 49.9314 Q1457.81 39.2371 1462.96 32.6746 Q1468.14 26.1121 1476.37 26.1121 Q1481.39 26.1121 1484.95 28.0971 Q1488.56 30.0415 1490.91 34.0924 M1465.51 49.9314 Q1465.51 58.1548 1468.87 62.8538 Q1472.27 67.5124 1478.19 67.5124 Q1484.1 67.5124 1487.51 62.8538 Q1490.91 58.1548 1490.91 49.9314 Q1490.91 41.7081 1487.51 37.0496 Q1484.1 32.3505 1478.19 32.3505 Q1472.27 32.3505 1468.87 37.0496 Q1465.51 41.7081 1465.51 49.9314 Z" fill="#000000" fill-rule="evenodd" fill-opacity="1" /><path clip-path="url(#clip610)" d="M 0 0 M1541.06 43.6931 L1541.06 65.8515 L1554.18 65.8515 Q1560.79 65.8515 1563.95 63.1374 Q1567.15 60.3828 1567.15 54.752 Q1567.15 49.0808 1563.95 46.4072 Q1560.79 43.6931 1554.18 43.6931 L1541.06 43.6931 M1541.06 18.8205 L1541.06 37.0496 L1553.17 37.0496 Q1559.17 37.0496 1562.08 34.8216 Q1565.04 32.5531 1565.04 27.935 Q1565.04 23.3575 1562.08 21.089 Q1559.17 18.8205 1553.17 18.8205 L1541.06 18.8205 M1532.88 12.096 L1553.78 12.096 Q1563.14 12.096 1568.2 15.9849 Q1573.26 19.8737 1573.26 27.0438 Q1573.26 32.5936 1570.67 35.8748 Q1568.08 39.156 1563.06 39.9662 Q1569.09 41.2625 1572.41 45.3944 Q1575.77 49.4858 1575.77 55.6432 Q1575.77 63.745 1570.27 68.1605 Q1564.76 72.576 1554.59 72.576 L1532.88 72.576 L1532.88 12.096 Z" fill="#000000" fill-rule="evenodd" fill-opacity="1" /><path clip-path="url(#clip610)" d="M 0 0 M1622.4 48.0275 L1622.4 51.6733 L1588.13 51.6733 Q1588.62 59.3701 1592.75 63.421 Q1596.92 67.4314 1604.33 67.4314 Q1608.63 67.4314 1612.64 66.3781 Q1616.69 65.3249 1620.66 63.2184 L1620.66 70.267 Q1616.65 71.9684 1612.44 72.8596 Q1608.22 73.7508 1603.89 73.7508 Q1593.03 73.7508 1586.67 67.4314 Q1580.35 61.1119 1580.35 50.3365 Q1580.35 39.1965 1586.35 32.6746 Q1592.38 26.1121 1602.59 26.1121 Q1611.75 26.1121 1617.05 32.0264 Q1622.4 37.9003 1622.4 48.0275 M1614.95 45.84 Q1614.87 39.7232 1611.5 36.0774 Q1608.18 32.4315 1602.67 32.4315 Q1596.43 32.4315 1592.67 35.9558 Q1588.94 39.4801 1588.37 45.8805 L1614.95 45.84 Z" fill="#000000" fill-rule="evenodd" fill-opacity="1" /><path clip-path="url(#clip610)" d="M 0 0 M1659.14 28.5427 L1659.14 35.5912 Q1655.98 33.9709 1652.58 33.1607 Q1649.18 32.3505 1645.53 32.3505 Q1639.98 32.3505 1637.19 34.0519 Q1634.43 35.7533 1634.43 39.156 Q1634.43 41.7486 1636.42 43.2475 Q1638.4 44.7058 1644.4 46.0426 L1646.95 46.6097 Q1654.89 48.3111 1658.21 51.4303 Q1661.57 54.509 1661.57 60.0587 Q1661.57 66.3781 1656.55 70.0644 Q1651.57 73.7508 1642.82 73.7508 Q1639.17 73.7508 1635.2 73.0216 Q1631.27 72.3329 1626.9 70.9151 L1626.9 63.2184 Q1631.03 65.3654 1635.04 66.4591 Q1639.05 67.5124 1642.98 67.5124 Q1648.25 67.5124 1651.08 65.73 Q1653.92 63.9071 1653.92 60.6258 Q1653.92 57.5877 1651.85 55.9673 Q1649.83 54.3469 1642.9 52.8481 L1640.31 52.2405 Q1633.38 50.7821 1630.3 47.7845 Q1627.22 44.7463 1627.22 39.4801 Q1627.22 33.0797 1631.76 29.5959 Q1636.3 26.1121 1644.64 26.1121 Q1648.77 26.1121 1652.42 26.7198 Q1656.06 27.3274 1659.14 28.5427 Z" fill="#000000" fill-rule="evenodd" fill-opacity="1" /><path clip-path="url(#clip610)" d="M 0 0 M1676.76 14.324 L1676.76 27.2059 L1692.12 27.2059 L1692.12 32.9987 L1676.76 32.9987 L1676.76 57.6282 Q1676.76 63.1779 1678.26 64.7578 Q1679.8 66.3376 1684.46 66.3376 L1692.12 66.3376 L1692.12 72.576 L1684.46 72.576 Q1675.83 72.576 1672.55 69.3758 Q1669.27 66.1351 1669.27 57.6282 L1669.27 32.9987 L1663.8 32.9987 L1663.8 27.2059 L1669.27 27.2059 L1669.27 14.324 L1676.76 14.324 Z" fill="#000000" fill-rule="evenodd" fill-opacity="1" /><path clip-path="url(#clip610)" d="M 0 0 M1726.63 12.096 L1761.39 12.096 L1761.39 18.9825 L1734.81 18.9825 L1734.81 36.8065 L1758.79 36.8065 L1758.79 43.6931 L1734.81 43.6931 L1734.81 72.576 L1726.63 72.576 L1726.63 12.096 Z" fill="#000000" fill-rule="evenodd" fill-opacity="1" /><path clip-path="url(#clip610)" d="M 0 0 M1763.17 27.2059 L1770.62 27.2059 L1770.62 72.576 L1763.17 72.576 L1763.17 27.2059 M1763.17 9.54393 L1770.62 9.54393 L1770.62 18.9825 L1763.17 18.9825 L1763.17 9.54393 Z" fill="#000000" fill-rule="evenodd" fill-opacity="1" /><path clip-path="url(#clip610)" d="M 0 0 M1785.81 14.324 L1785.81 27.2059 L1801.17 27.2059 L1801.17 32.9987 L1785.81 32.9987 L1785.81 57.6282 Q1785.81 63.1779 1787.31 64.7578 Q1788.85 66.3376 1793.51 66.3376 L1801.17 66.3376 L1801.17 72.576 L1793.51 72.576 Q1784.88 72.576 1781.6 69.3758 Q1778.32 66.1351 1778.32 57.6282 L1778.32 32.9987 L1772.85 32.9987 L1772.85 27.2059 L1778.32 27.2059 L1778.32 14.324 L1785.81 14.324 Z" fill="#000000" fill-rule="evenodd" fill-opacity="1" /><polyline clip-path="url(#clip612)" style="stroke:#009af9; stroke-width:4; stroke-opacity:1; fill:none" points="
  743.784,1447.87 743.784,1379.48 769.569,1379.48 769.569,1297.4 795.354,1297.4 821.139,1297.4 821.139,1229.01 846.923,1229.01 846.923,1256.37 
  872.708,1256.37 872.708,1064.86 898.493,1064.86 898.493,1010.15 924.278,1010.15 924.278,1064.86 950.063,1064.86 950.063,914.392 975.847,914.392 975.847,777.602 
  1001.63,777.602 1001.63,900.713 1027.42,900.713 1027.42,941.75 1053.2,941.75 1053.2,887.034 1078.99,887.034 1078.99,1092.22 1104.77,1092.22 1104.77,1064.86 
  1130.56,1064.86 1130.56,1146.94 1156.34,1146.94 1156.34,1283.73 1182.13,1283.73 1182.13,1256.37 1207.91,1256.37 1207.91,1283.73 1233.7,1283.73 1233.7,1324.76 
  1259.48,1324.76 1259.48,1352.12 1285.27,1352.12 1285.27,1379.48 1311.05,1379.48 1311.05,1420.52 1336.83,1420.52 1336.83,1406.84 1362.62,1406.84 1362.62,1393.16 
  1388.4,1393.16 1414.19,1393.16 1414.19,1406.84 1439.97,1406.84 1465.76,1406.84 1465.76,1365.8 1491.54,1365.8 1491.54,1270.05 
  1517.33,1270.05 1517.33,1242.69 1543.11,1242.69 1543.11,1229.01 1568.9,1229.01 1568.9,1092.22 1594.68,1092.22 1594.68,1037.5 1620.47,1037.5 1620.47,914.392 
  1646.25,914.392 1646.25,681.849 1672.04,681.849 1672.04,640.812 1697.82,640.812 1697.82,558.738 1723.61,558.738 1723.61,408.269 1749.39,408.269 1749.39,490.343 
  1775.18,490.343 1775.18,162.047 1800.96,162.047 1800.96,326.195 1826.75,326.195 1852.53,326.195 1852.53,695.528 1878.32,695.528 1878.32,750.244 
  1904.1,750.244 1904.1,928.071 1929.89,928.071 1929.89,900.713 1955.67,900.713 1955.67,1215.33 1981.45,1215.33 1981.45,1187.97 2007.24,1187.97 2007.24,1174.29 
  2033.02,1174.29 2033.02,1324.76 2058.81,1324.76 2058.81,1420.52 2084.59,1420.52 2110.38,1420.52 2110.38,1379.48 2136.16,1379.48 2136.16,1447.87 
  2161.95,1447.87 2187.73,1447.87 2213.52,1447.87 2239.3,1447.87 2265.09,1447.87 
  2290.87,1447.87 
  "/>
<polyline clip-path="url(#clip612)" style="stroke:#e26f46; stroke-width:4; stroke-opacity:1; fill:none" points="
  228.088,1447.87 230.667,1447.87 233.245,1447.87 235.824,1447.87 238.402,1447.87 240.981,1447.87 243.559,1447.87 246.138,1447.87 248.716,1447.87 251.295,1447.87 
  253.873,1447.87 256.451,1447.87 259.03,1447.87 261.608,1447.87 264.187,1447.87 266.765,1447.87 269.344,1447.87 271.922,1447.87 274.501,1447.87 277.079,1447.87 
  279.658,1447.87 282.236,1447.87 284.815,1447.87 287.393,1447.87 289.972,1447.87 292.55,1447.87 295.129,1447.87 297.707,1447.87 300.286,1447.87 302.864,1447.87 
  305.443,1447.87 308.021,1447.87 310.6,1447.87 313.178,1447.87 315.757,1447.87 318.335,1447.87 320.913,1447.87 323.492,1447.87 326.07,1447.87 328.649,1447.87 
  331.227,1447.87 333.806,1447.87 336.384,1447.87 338.963,1447.87 341.541,1447.87 344.12,1447.87 346.698,1447.87 349.277,1447.87 351.855,1447.87 354.434,1447.87 
  357.012,1447.87 359.591,1447.87 362.169,1447.87 364.748,1447.87 367.326,1447.87 369.905,1447.87 372.483,1447.87 375.062,1447.87 377.64,1447.87 380.219,1447.87 
  382.797,1447.87 385.375,1447.87 387.954,1447.87 390.532,1447.87 393.111,1447.87 395.689,1447.86 398.268,1447.86 400.846,1447.86 403.425,1447.86 406.003,1447.86 
  408.582,1447.86 411.16,1447.86 413.739,1447.86 416.317,1447.85 418.896,1447.85 421.474,1447.85 424.053,1447.85 426.631,1447.85 429.21,1447.84 431.788,1447.84 
  434.367,1447.84 436.945,1447.84 439.524,1447.83 442.102,1447.83 444.681,1447.82 447.259,1447.82 449.837,1447.82 452.416,1447.81 454.994,1447.8 457.573,1447.8 
  460.151,1447.79 462.73,1447.79 465.308,1447.78 467.887,1447.77 470.465,1447.76 473.044,1447.75 475.622,1447.74 478.201,1447.73 480.779,1447.72 483.358,1447.7 
  485.936,1447.69 488.515,1447.67 491.093,1447.66 493.672,1447.64 496.25,1447.62 498.829,1447.6 501.407,1447.58 503.986,1447.56 506.564,1447.53 509.143,1447.5 
  511.721,1447.47 514.299,1447.44 516.878,1447.41 519.456,1447.37 522.035,1447.33 524.613,1447.29 527.192,1447.25 529.77,1447.2 532.349,1447.15 534.927,1447.09 
  537.506,1447.04 540.084,1446.97 542.663,1446.91 545.241,1446.84 547.82,1446.76 550.398,1446.68 552.977,1446.59 555.555,1446.5 558.134,1446.4 560.712,1446.3 
  563.291,1446.19 565.869,1446.07 568.448,1445.94 571.026,1445.81 573.605,1445.67 576.183,1445.52 578.762,1445.36 581.34,1445.19 583.918,1445.01 586.497,1444.81 
  589.075,1444.61 591.654,1444.4 594.232,1444.17 596.811,1443.93 599.389,1443.67 601.968,1443.4 604.546,1443.12 607.125,1442.82 609.703,1442.5 612.282,1442.16 
  614.86,1441.81 617.439,1441.44 620.017,1441.04 622.596,1440.63 625.174,1440.19 627.753,1439.73 630.331,1439.25 632.91,1438.74 635.488,1438.2 638.067,1437.64 
  640.645,1437.05 643.224,1436.42 645.802,1435.77 648.38,1435.09 650.959,1434.37 653.537,1433.62 656.116,1432.83 658.694,1432.01 661.273,1431.14 663.851,1430.24 
  666.43,1429.29 669.008,1428.31 671.587,1427.27 674.165,1426.2 676.744,1425.07 679.322,1423.9 681.901,1422.67 684.479,1421.4 687.058,1420.07 689.636,1418.68 
  692.215,1417.24 694.793,1415.74 697.372,1414.18 699.95,1412.56 702.529,1410.87 705.107,1409.12 707.686,1407.31 710.264,1405.42 712.842,1403.47 715.421,1401.45 
  717.999,1399.35 720.578,1397.17 723.156,1394.93 725.735,1392.6 728.313,1390.19 730.892,1387.71 733.47,1385.14 736.049,1382.49 738.627,1379.75 741.206,1376.93 
  743.784,1374.02 746.363,1371.02 748.941,1367.93 751.52,1364.75 754.098,1361.48 756.677,1358.12 759.255,1354.66 761.834,1351.11 764.412,1347.46 766.991,1343.72 
  769.569,1339.88 772.148,1335.94 774.726,1331.91 777.304,1327.78 779.883,1323.55 782.461,1319.22 785.04,1314.8 787.618,1310.28 790.197,1305.66 792.775,1300.95 
  795.354,1296.14 797.932,1291.24 800.511,1286.25 803.089,1281.16 805.668,1275.98 808.246,1270.71 810.825,1265.35 813.403,1259.9 815.982,1254.37 818.56,1248.76 
  821.139,1243.06 823.717,1237.29 826.296,1231.44 828.874,1225.51 831.453,1219.52 834.031,1213.46 836.61,1207.33 839.188,1201.14 841.766,1194.9 844.345,1188.6 
  846.923,1182.25 849.502,1175.85 852.08,1169.41 854.659,1162.93 857.237,1156.42 859.816,1149.87 862.394,1143.31 864.973,1136.72 867.551,1130.11 870.13,1123.5 
  872.708,1116.88 875.287,1110.26 877.865,1103.65 880.444,1097.05 883.022,1090.46 885.601,1083.9 888.179,1077.36 890.758,1070.85 893.336,1064.39 895.915,1057.97 
  898.493,1051.6 901.072,1045.29 903.65,1039.05 906.228,1032.87 908.807,1026.76 911.385,1020.74 913.964,1014.81 916.542,1008.96 919.121,1003.22 921.699,997.582 
  924.278,992.055 926.856,986.645 929.435,981.356 932.013,976.196 934.592,971.17 937.17,966.283 939.749,961.54 942.327,956.947 944.906,952.509 947.484,948.23 
  950.063,944.116 952.641,940.172 955.22,936.401 957.798,932.808 960.377,929.397 962.955,926.173 965.534,923.138 968.112,920.297 970.69,917.652 973.269,915.208 
  975.847,912.966 978.426,910.929 981.004,909.1 983.583,907.482 986.161,906.075 988.74,904.882 991.318,903.903 993.897,903.141 996.475,902.596 999.054,902.269 
  1001.63,902.16 1004.21,902.269 1006.79,902.596 1009.37,903.141 1011.95,903.903 1014.52,904.882 1017.1,906.075 1019.68,907.482 1022.26,909.1 1024.84,910.929 
  1027.42,912.966 1030,915.208 1032.57,917.652 1035.15,920.297 1037.73,923.138 1040.31,926.173 1042.89,929.397 1045.47,932.808 1048.04,936.401 1050.62,940.171 
  1053.2,944.116 1055.78,948.23 1058.36,952.509 1060.94,956.947 1063.52,961.54 1066.09,966.283 1068.67,971.17 1071.25,976.196 1073.83,981.356 1076.41,986.644 
  1078.99,992.055 1081.57,997.582 1084.14,1003.22 1086.72,1008.96 1089.3,1014.8 1091.88,1020.74 1094.46,1026.76 1097.04,1032.87 1099.61,1039.04 1102.19,1045.29 
  1104.77,1051.6 1107.35,1057.97 1109.93,1064.39 1112.51,1070.85 1115.09,1077.36 1117.66,1083.89 1120.24,1090.46 1122.82,1097.04 1125.4,1103.65 1127.98,1110.26 
  1130.56,1116.88 1133.13,1123.5 1135.71,1130.11 1138.29,1136.71 1140.87,1143.3 1143.45,1149.87 1146.03,1156.41 1148.61,1162.92 1151.18,1169.4 1153.76,1175.84 
  1156.34,1182.24 1158.92,1188.59 1161.5,1194.88 1164.08,1201.13 1166.65,1207.32 1169.23,1213.44 1171.81,1219.5 1174.39,1225.49 1176.97,1231.41 1179.55,1237.26 
  1182.13,1243.03 1184.7,1248.73 1187.28,1254.34 1189.86,1259.86 1192.44,1265.31 1195.02,1270.66 1197.6,1275.93 1200.18,1281.1 1202.75,1286.19 1205.33,1291.18 
  1207.91,1296.08 1210.49,1300.88 1213.07,1305.58 1215.65,1310.19 1218.22,1314.7 1220.8,1319.12 1223.38,1323.43 1225.96,1327.65 1228.54,1331.77 1231.12,1335.79 
  1233.7,1339.72 1236.27,1343.54 1238.85,1347.27 1241.43,1350.9 1244.01,1354.43 1246.59,1357.87 1249.17,1361.22 1251.74,1364.46 1254.32,1367.62 1256.9,1370.68 
  1259.48,1373.65 1262.06,1376.53 1264.64,1379.32 1267.22,1382.02 1269.79,1384.64 1272.37,1387.16 1274.95,1389.61 1277.53,1391.96 1280.11,1394.24 1282.69,1396.43 
  1285.27,1398.55 1287.84,1400.58 1290.42,1402.54 1293,1404.42 1295.58,1406.23 1298.16,1407.96 1300.74,1409.62 1303.31,1411.21 1305.89,1412.73 1308.47,1414.18 
  1311.05,1415.57 1313.63,1416.88 1316.21,1418.13 1318.79,1419.32 1321.36,1420.45 1323.94,1421.51 1326.52,1422.51 1329.1,1423.45 1331.68,1424.33 1334.26,1425.16 
  1336.83,1425.92 1339.41,1426.63 1341.99,1427.28 1344.57,1427.88 1347.15,1428.42 1349.73,1428.91 1352.31,1429.34 1354.88,1429.71 1357.46,1430.04 1360.04,1430.31 
  1362.62,1430.52 1365.2,1430.69 1367.78,1430.79 1370.35,1430.85 1372.93,1430.85 1375.51,1430.79 1378.09,1430.68 1380.67,1430.52 1383.25,1430.3 1385.83,1430.02 
  1388.4,1429.69 1390.98,1429.29 1393.56,1428.84 1396.14,1428.33 1398.72,1427.76 1401.3,1427.12 1403.88,1426.42 1406.45,1425.66 1409.03,1424.82 1411.61,1423.93 
  1414.19,1422.96 1416.77,1421.92 1419.35,1420.8 1421.92,1419.62 1424.5,1418.35 1427.08,1417.01 1429.66,1415.58 1432.24,1414.07 1434.82,1412.48 1437.4,1410.8 
  1439.97,1409.03 1442.55,1407.16 1445.13,1405.2 1447.71,1403.15 1450.29,1400.99 1452.87,1398.73 1455.44,1396.36 1458.02,1393.88 1460.6,1391.29 1463.18,1388.59 
  1465.76,1385.77 1468.34,1382.83 1470.92,1379.76 1473.49,1376.57 1476.07,1373.25 1478.65,1369.79 1481.23,1366.2 1483.81,1362.48 1486.39,1358.6 1488.97,1354.59 
  1491.54,1350.42 1494.12,1346.11 1496.7,1341.64 1499.28,1337.01 1501.86,1332.22 1504.44,1327.27 1507.01,1322.16 1509.59,1316.87 1512.17,1311.42 1514.75,1305.79 
  1517.33,1299.98 1519.91,1294 1522.49,1287.83 1525.06,1281.49 1527.64,1274.96 1530.22,1268.24 1532.8,1261.33 1535.38,1254.24 1537.96,1246.95 1540.53,1239.47 
  1543.11,1231.8 1545.69,1223.93 1548.27,1215.87 1550.85,1207.62 1553.43,1199.17 1556.01,1190.52 1558.58,1181.68 1561.16,1172.64 1563.74,1163.42 1566.32,1153.99 
  1568.9,1144.38 1571.48,1134.58 1574.05,1124.59 1576.63,1114.41 1579.21,1104.06 1581.79,1093.52 1584.37,1082.8 1586.95,1071.91 1589.53,1060.85 1592.1,1049.62 
  1594.68,1038.23 1597.26,1026.69 1599.84,1014.99 1602.42,1003.14 1605,991.157 1607.58,979.034 1610.15,966.782 1612.73,954.406 1615.31,941.915 1617.89,929.315 
  1620.47,916.613 1623.05,903.818 1625.62,890.938 1628.2,877.981 1630.78,864.955 1633.36,851.87 1635.94,838.735 1638.52,825.559 1641.1,812.352 1643.67,799.125 
  1646.25,785.887 1648.83,772.65 1651.41,759.423 1653.99,746.217 1656.57,733.045 1659.14,719.916 1661.72,706.842 1664.3,693.836 1666.88,680.907 1669.46,668.07 
  1672.04,655.334 1674.62,642.713 1677.19,630.217 1679.77,617.86 1682.35,605.653 1684.93,593.608 1687.51,581.738 1690.09,570.053 1692.66,558.567 1695.24,547.291 
  1697.82,536.237 1700.4,525.416 1702.98,514.84 1705.56,504.52 1708.14,494.467 1710.71,484.692 1713.29,475.207 1715.87,466.021 1718.45,457.144 1721.03,448.587 
  1723.61,440.359 1726.19,432.47 1728.76,424.928 1731.34,417.743 1733.92,410.921 1736.5,404.472 1739.08,398.403 1741.66,392.72 1744.23,387.431 1746.81,382.542 
  1749.39,378.058 1751.97,373.985 1754.55,370.328 1757.13,367.09 1759.71,364.277 1762.28,361.89 1764.86,359.934 1767.44,358.409 1770.02,357.319 1772.6,356.665 
  1775.18,356.447 1777.75,356.665 1780.33,357.319 1782.91,358.409 1785.49,359.934 1788.07,361.89 1790.65,364.277 1793.23,367.09 1795.8,370.328 1798.38,373.985 
  1800.96,378.058 1803.54,382.542 1806.12,387.431 1808.7,392.72 1811.28,398.403 1813.85,404.472 1816.43,410.921 1819.01,417.743 1821.59,424.928 1824.17,432.47 
  1826.75,440.359 1829.32,448.587 1831.9,457.144 1834.48,466.021 1837.06,475.207 1839.64,484.693 1842.22,494.467 1844.8,504.52 1847.37,514.84 1849.95,525.416 
  1852.53,536.237 1855.11,547.291 1857.69,558.568 1860.27,570.054 1862.84,581.738 1865.42,593.609 1868,605.653 1870.58,617.861 1873.16,630.218 1875.74,642.713 
  1878.32,655.335 1880.89,668.071 1883.47,680.908 1886.05,693.837 1888.63,706.843 1891.21,719.917 1893.79,733.046 1896.36,746.219 1898.94,759.424 1901.52,772.652 
  1904.1,785.889 1906.68,799.127 1909.26,812.355 1911.84,825.562 1914.41,838.738 1916.99,851.873 1919.57,864.958 1922.15,877.985 1924.73,890.942 1927.31,903.823 
  1929.89,916.619 1932.46,929.321 1935.04,941.922 1937.62,954.414 1940.2,966.79 1942.78,979.043 1945.36,991.167 1947.93,1003.15 1950.51,1015 1953.09,1026.7 
  1955.67,1038.25 1958.25,1049.64 1960.83,1060.87 1963.41,1071.93 1965.98,1082.82 1968.56,1093.54 1971.14,1104.08 1973.72,1114.44 1976.3,1124.62 1978.88,1134.61 
  1981.45,1144.42 1984.03,1154.03 1986.61,1163.46 1989.19,1172.69 1991.77,1181.73 1994.35,1190.57 1996.93,1199.22 1999.5,1207.68 2002.08,1215.94 2004.66,1224.01 
  2007.24,1231.88 2009.82,1239.56 2012.4,1247.05 2014.97,1254.34 2017.55,1261.45 2020.13,1268.36 2022.71,1275.09 2025.29,1281.63 2027.87,1287.99 2030.45,1294.17 
  2033.02,1300.16 2035.6,1305.98 2038.18,1311.63 2040.76,1317.1 2043.34,1322.41 2045.92,1327.54 2048.5,1332.52 2051.07,1337.33 2053.65,1341.98 2056.23,1346.48 
  2058.81,1350.82 2061.39,1355.02 2063.97,1359.07 2066.54,1362.98 2069.12,1366.74 2071.7,1370.38 2074.28,1373.87 2076.86,1377.24 2079.44,1380.49 2082.02,1383.61 
  2084.59,1386.61 2087.17,1389.49 2089.75,1392.26 2092.33,1394.92 2094.91,1397.47 2097.49,1399.92 2100.06,1402.27 2102.64,1404.52 2105.22,1406.67 2107.8,1408.74 
  2110.38,1410.71 2112.96,1412.6 2115.54,1414.41 2118.11,1416.14 2120.69,1417.79 2123.27,1419.36 2125.85,1420.87 2128.43,1422.3 2131.01,1423.67 2133.59,1424.98 
  2136.16,1426.22 2138.74,1427.4 2141.32,1428.53 2143.9,1429.6 2146.48,1430.62 2149.06,1431.59 2151.63,1432.51 2154.21,1433.38 2156.79,1434.21 2159.37,1435 
  2161.95,1435.75 2164.53,1436.46 2167.11,1437.13 2169.68,1437.76 2172.26,1438.37 2174.84,1438.94 2177.42,1439.47 2180,1439.98 2182.58,1440.47 2185.15,1440.92 
  2187.73,1441.35 2190.31,1441.76 2192.89,1442.14 2195.47,1442.5 2198.05,1442.84 2200.63,1443.16 2203.2,1443.46 2205.78,1443.75 2208.36,1444.01 2210.94,1444.27 
  2213.52,1444.5 2216.1,1444.72 2218.67,1444.93 2221.25,1445.13 2223.83,1445.31 2226.41,1445.49 2228.99,1445.65 2231.57,1445.8 2234.15,1445.94 2236.72,1446.07 
  2239.3,1446.2 2241.88,1446.32 2244.46,1446.42 2247.04,1446.53 2249.62,1446.62 2252.2,1446.71 2254.77,1446.79 2257.35,1446.87 2259.93,1446.94 2262.51,1447.01 
  2265.09,1447.07 2267.67,1447.13 2270.24,1447.19 2272.82,1447.24 2275.4,1447.29 2277.98,1447.33 2280.56,1447.37 2283.14,1447.41 2285.72,1447.44 2288.29,1447.48 
  2290.87,1447.51 
  "/>
<polyline clip-path="url(#clip612)" style="stroke:#3da44d; stroke-width:4; stroke-opacity:1; fill:none" points="
  228.088,1447.87 230.667,1447.87 233.245,1447.87 235.824,1447.87 238.402,1447.87 240.981,1447.87 243.559,1447.87 246.138,1447.87 248.716,1447.87 251.295,1447.87 
  253.873,1447.87 256.451,1447.87 259.03,1447.87 261.608,1447.87 264.187,1447.87 266.765,1447.87 269.344,1447.87 271.922,1447.87 274.501,1447.87 277.079,1447.87 
  279.658,1447.87 282.236,1447.87 284.815,1447.87 287.393,1447.87 289.972,1447.87 292.55,1447.87 295.129,1447.87 297.707,1447.87 300.286,1447.87 302.864,1447.87 
  305.443,1447.87 308.021,1447.87 310.6,1447.87 313.178,1447.87 315.757,1447.87 318.335,1447.87 320.913,1447.87 323.492,1447.87 326.07,1447.87 328.649,1447.87 
  331.227,1447.87 333.806,1447.87 336.384,1447.87 338.963,1447.87 341.541,1447.87 344.12,1447.87 346.698,1447.87 349.277,1447.87 351.855,1447.87 354.434,1447.87 
  357.012,1447.87 359.591,1447.87 362.169,1447.87 364.748,1447.87 367.326,1447.87 369.905,1447.87 372.483,1447.87 375.062,1447.87 377.64,1447.87 380.219,1447.87 
  382.797,1447.87 385.375,1447.87 387.954,1447.87 390.532,1447.87 393.111,1447.87 395.689,1447.86 398.268,1447.86 400.846,1447.86 403.425,1447.86 406.003,1447.86 
  408.582,1447.86 411.16,1447.86 413.739,1447.86 416.317,1447.86 418.896,1447.85 421.474,1447.85 424.053,1447.85 426.631,1447.85 429.21,1447.85 431.788,1447.84 
  434.367,1447.84 436.945,1447.84 439.524,1447.84 442.102,1447.83 444.681,1447.83 447.259,1447.82 449.837,1447.82 452.416,1447.82 454.994,1447.81 457.573,1447.8 
  460.151,1447.8 462.73,1447.79 465.308,1447.79 467.887,1447.78 470.465,1447.77 473.044,1447.76 475.622,1447.75 478.201,1447.74 480.779,1447.73 483.358,1447.72 
  485.936,1447.71 488.515,1447.69 491.093,1447.68 493.672,1447.66 496.25,1447.64 498.829,1447.63 501.407,1447.61 503.986,1447.58 506.564,1447.56 509.143,1447.54 
  511.721,1447.51 514.299,1447.48 516.878,1447.45 519.456,1447.42 522.035,1447.39 524.613,1447.35 527.192,1447.31 529.77,1447.27 532.349,1447.22 534.927,1447.17 
  537.506,1447.12 540.084,1447.06 542.663,1447 545.241,1446.94 547.82,1446.87 550.398,1446.8 552.977,1446.72 555.555,1446.64 558.134,1446.55 560.712,1446.46 
  563.291,1446.36 565.869,1446.26 568.448,1446.14 571.026,1446.03 573.605,1445.9 576.183,1445.77 578.762,1445.62 581.34,1445.47 583.918,1445.31 586.497,1445.14 
  589.075,1444.96 591.654,1444.77 594.232,1444.57 596.811,1444.35 599.389,1444.13 601.968,1443.89 604.546,1443.64 607.125,1443.37 609.703,1443.09 612.282,1442.79 
  614.86,1442.48 617.439,1442.14 620.017,1441.8 622.596,1441.43 625.174,1441.04 627.753,1440.63 630.331,1440.2 632.91,1439.75 635.488,1439.27 638.067,1438.77 
  640.645,1438.25 643.224,1437.7 645.802,1437.12 648.38,1436.51 650.959,1435.87 653.537,1435.21 656.116,1434.51 658.694,1433.77 661.273,1433.01 663.851,1432.2 
  666.43,1431.36 669.008,1430.49 671.587,1429.57 674.165,1428.61 676.744,1427.61 679.322,1426.56 681.901,1425.47 684.479,1424.34 687.058,1423.15 689.636,1421.92 
  692.215,1420.63 694.793,1419.29 697.372,1417.9 699.95,1416.45 702.529,1414.95 705.107,1413.38 707.686,1411.76 710.264,1410.07 712.842,1408.32 715.421,1406.51 
  717.999,1404.63 720.578,1402.68 723.156,1400.66 725.735,1398.57 728.313,1396.41 730.892,1394.18 733.47,1391.86 736.049,1389.48 738.627,1387.01 741.206,1384.46 
  743.784,1381.84 746.363,1379.13 748.941,1376.34 751.52,1373.46 754.098,1370.5 756.677,1367.45 759.255,1364.31 761.834,1361.09 764.412,1357.77 766.991,1354.37 
  769.569,1350.87 772.148,1347.29 774.726,1343.61 777.304,1339.83 779.883,1335.97 782.461,1332.01 785.04,1327.96 787.618,1323.81 790.197,1319.57 792.775,1315.24 
  795.354,1310.81 797.932,1306.29 800.511,1301.68 803.089,1296.97 805.668,1292.18 808.246,1287.3 810.825,1282.32 813.403,1277.26 815.982,1272.11 818.56,1266.88 
  821.139,1261.56 823.717,1256.16 826.296,1250.69 828.874,1245.13 831.453,1239.5 834.031,1233.79 836.61,1228.01 839.188,1222.17 841.766,1216.26 844.345,1210.29 
  846.923,1204.25 849.502,1198.16 852.08,1192.02 854.659,1185.83 857.237,1179.59 859.816,1173.32 862.394,1167 864.973,1160.65 867.551,1154.27 870.13,1147.86 
  872.708,1141.43 875.287,1134.99 877.865,1128.54 880.444,1122.07 883.022,1115.61 885.601,1109.15 888.179,1102.7 890.758,1096.26 893.336,1089.84 895.915,1083.44 
  898.493,1077.08 901.072,1070.74 903.65,1064.45 906.228,1058.21 908.807,1052.02 911.385,1045.88 913.964,1039.81 916.542,1033.81 919.121,1027.88 921.699,1022.03 
  924.278,1016.27 926.856,1010.6 929.435,1005.02 932.013,999.552 934.592,994.19 937.17,988.942 939.749,983.813 942.327,978.808 944.906,973.933 947.484,969.194 
  950.063,964.594 952.641,960.14 955.22,955.835 957.798,951.684 960.377,947.693 962.955,943.865 965.534,940.204 968.112,936.716 970.69,933.402 973.269,930.269 
  975.847,927.317 978.426,924.552 981.004,921.977 983.583,919.593 986.161,917.405 988.74,915.414 991.318,913.622 993.897,912.033 996.475,910.647 999.054,909.466 
  1001.63,908.492 1004.21,907.726 1006.79,907.168 1009.37,906.819 1011.95,906.681 1014.52,906.752 1017.1,907.033 1019.68,907.523 1022.26,908.222 1024.84,909.129 
  1027.42,910.243 1030,911.563 1032.57,913.087 1035.15,914.814 1037.73,916.74 1040.31,918.865 1042.89,921.186 1045.47,923.7 1048.04,926.404 1050.62,929.296 
  1053.2,932.371 1055.78,935.627 1058.36,939.059 1060.94,942.665 1063.52,946.439 1066.09,950.378 1068.67,954.478 1071.25,958.733 1073.83,963.14 1076.41,967.693 
  1078.99,972.388 1081.57,977.22 1084.14,982.183 1086.72,987.272 1089.3,992.482 1091.88,997.808 1094.46,1003.24 1097.04,1008.79 1099.61,1014.42 1102.19,1020.16 
  1104.77,1025.98 1107.35,1031.88 1109.93,1037.86 1112.51,1043.91 1115.09,1050.03 1117.66,1056.2 1120.24,1062.43 1122.82,1068.71 1125.4,1075.02 1127.98,1081.38 
  1130.56,1087.77 1133.13,1094.18 1135.71,1100.61 1138.29,1107.06 1140.87,1113.52 1143.45,1119.98 1146.03,1126.44 1148.61,1132.9 1151.18,1139.34 1153.76,1145.77 
  1156.34,1152.19 1158.92,1158.57 1161.5,1164.93 1164.08,1171.26 1166.65,1177.55 1169.23,1183.8 1171.81,1190 1174.39,1196.16 1176.97,1202.26 1179.55,1208.31 
  1182.13,1214.3 1184.7,1220.23 1187.28,1226.09 1189.86,1231.88 1192.44,1237.61 1195.02,1243.26 1197.6,1248.83 1200.18,1254.33 1202.75,1259.75 1205.33,1265.08 
  1207.91,1270.34 1210.49,1275.5 1213.07,1280.58 1215.65,1285.58 1218.22,1290.48 1220.8,1295.29 1223.38,1300.01 1225.96,1304.64 1228.54,1309.17 1231.12,1313.62 
  1233.7,1317.96 1236.27,1322.21 1238.85,1326.37 1241.43,1330.43 1244.01,1334.4 1246.59,1338.27 1249.17,1342.05 1251.74,1345.73 1254.32,1349.31 1256.9,1352.8 
  1259.48,1356.2 1262.06,1359.51 1264.64,1362.72 1267.22,1365.84 1269.79,1368.87 1272.37,1371.81 1274.95,1374.66 1277.53,1377.42 1280.11,1380.09 1282.69,1382.67 
  1285.27,1385.17 1287.84,1387.58 1290.42,1389.91 1293,1392.16 1295.58,1394.32 1298.16,1396.41 1300.74,1398.41 1303.31,1400.33 1305.89,1402.18 1308.47,1403.95 
  1311.05,1405.64 1313.63,1407.26 1316.21,1408.81 1318.79,1410.28 1321.36,1411.68 1323.94,1413.01 1326.52,1414.27 1329.1,1415.46 1331.68,1416.59 1334.26,1417.64 
  1336.83,1418.63 1339.41,1419.55 1341.99,1420.41 1344.57,1421.2 1347.15,1421.92 1349.73,1422.58 1352.31,1423.18 1354.88,1423.72 1357.46,1424.19 1360.04,1424.6 
  1362.62,1424.94 1365.2,1425.22 1367.78,1425.44 1370.35,1425.6 1372.93,1425.69 1375.51,1425.72 1378.09,1425.69 1380.67,1425.59 1383.25,1425.43 1385.83,1425.2 
  1388.4,1424.91 1390.98,1424.55 1393.56,1424.12 1396.14,1423.62 1398.72,1423.05 1401.3,1422.42 1403.88,1421.71 1406.45,1420.92 1409.03,1420.07 1411.61,1419.14 
  1414.19,1418.13 1416.77,1417.04 1419.35,1415.87 1421.92,1414.62 1424.5,1413.28 1427.08,1411.86 1429.66,1410.35 1432.24,1408.75 1434.82,1407.06 1437.4,1405.27 
  1439.97,1403.39 1442.55,1401.41 1445.13,1399.33 1447.71,1397.14 1450.29,1394.85 1452.87,1392.45 1455.44,1389.93 1458.02,1387.31 1460.6,1384.56 1463.18,1381.7 
  1465.76,1378.72 1468.34,1375.61 1470.92,1372.37 1473.49,1369 1476.07,1365.51 1478.65,1361.87 1481.23,1358.1 1483.81,1354.18 1486.39,1350.12 1488.97,1345.92 
  1491.54,1341.56 1494.12,1337.05 1496.7,1332.39 1499.28,1327.57 1501.86,1322.59 1504.44,1317.45 1507.01,1312.14 1509.59,1306.67 1512.17,1301.02 1514.75,1295.21 
  1517.33,1289.22 1519.91,1283.06 1522.49,1276.72 1525.06,1270.2 1527.64,1263.5 1530.22,1256.62 1532.8,1249.56 1535.38,1242.31 1537.96,1234.88 1540.53,1227.26 
  1543.11,1219.46 1545.69,1211.47 1548.27,1203.29 1550.85,1194.93 1553.43,1186.38 1556.01,1177.64 1558.58,1168.72 1561.16,1159.62 1563.74,1150.33 1566.32,1140.87 
  1568.9,1131.22 1571.48,1121.4 1574.05,1111.4 1576.63,1101.23 1579.21,1090.89 1581.79,1080.38 1584.37,1069.71 1586.95,1058.88 1589.53,1047.9 1592.1,1036.76 
  1594.68,1025.48 1597.26,1014.05 1599.84,1002.49 1602.42,990.796 1605,978.977 1607.58,967.04 1610.15,954.989 1612.73,942.832 1615.31,930.576 1617.89,918.228 
  1620.47,905.794 1623.05,893.284 1625.62,880.705 1628.2,868.066 1630.78,855.374 1633.36,842.639 1635.94,829.871 1638.52,817.077 1641.1,804.268 1643.67,791.453 
  1646.25,778.643 1648.83,765.847 1651.41,753.077 1653.99,740.341 1656.57,727.651 1659.14,715.018 1661.72,702.452 1664.3,689.965 1666.88,677.567 1669.46,665.27 
  1672.04,653.085 1674.62,641.023 1677.19,629.095 1679.77,617.313 1682.35,605.689 1684.93,594.233 1687.51,582.956 1690.09,571.87 1692.66,560.986 1695.24,550.315 
  1697.82,539.868 1700.4,529.655 1702.98,519.687 1705.56,509.975 1708.14,500.529 1710.71,491.359 1713.29,482.474 1715.87,473.884 1718.45,465.599 1721.03,457.628 
  1723.61,449.979 1726.19,442.66 1728.76,435.681 1731.34,429.048 1733.92,422.77 1736.5,416.852 1739.08,411.303 1741.66,406.127 1744.23,401.332 1746.81,396.922 
  1749.39,392.903 1751.97,389.279 1754.55,386.054 1757.13,383.233 1759.71,380.818 1762.28,378.812 1764.86,377.217 1767.44,376.036 1770.02,375.27 1772.6,374.919 
  1775.18,374.984 1777.75,375.465 1780.33,376.361 1782.91,377.672 1785.49,379.396 1788.07,381.53 1790.65,384.073 1793.23,387.021 1795.8,390.371 1798.38,394.119 
  1800.96,398.261 1803.54,402.792 1806.12,407.707 1808.7,413 1811.28,418.666 1813.85,424.697 1816.43,431.087 1819.01,437.829 1821.59,444.916 1824.17,452.339 
  1826.75,460.09 1829.32,468.16 1831.9,476.542 1834.48,485.225 1837.06,494.2 1839.64,503.458 1842.22,512.989 1844.8,522.782 1847.37,532.827 1849.95,543.115 
  1852.53,553.633 1855.11,564.372 1857.69,575.321 1860.27,586.468 1862.84,597.802 1865.42,609.312 1868,620.987 1870.58,632.816 1873.16,644.787 1875.74,656.889 
  1878.32,669.11 1880.89,681.44 1883.47,693.868 1886.05,706.381 1888.63,718.969 1891.21,731.622 1893.79,744.327 1896.36,757.076 1898.94,769.856 1901.52,782.658 
  1904.1,795.471 1906.68,808.285 1909.26,821.091 1911.84,833.878 1914.41,846.638 1916.99,859.361 1919.57,872.038 1922.15,884.66 1924.73,897.22 1927.31,909.707 
  1929.89,922.116 1932.46,934.438 1935.04,946.665 1937.62,958.791 1940.2,970.808 1942.78,982.711 1945.36,994.492 1947.93,1006.15 1950.51,1017.67 1953.09,1029.05 
  1955.67,1040.29 1958.25,1051.38 1960.83,1062.32 1963.41,1073.11 1965.98,1083.73 1968.56,1094.19 1971.14,1104.48 1973.72,1114.61 1976.3,1124.55 1978.88,1134.33 
  1981.45,1143.92 1984.03,1153.34 1986.61,1162.58 1989.19,1171.63 1991.77,1180.5 1994.35,1189.18 1996.93,1197.68 1999.5,1206 2002.08,1214.13 2004.66,1222.07 
  2007.24,1229.83 2009.82,1237.4 2012.4,1244.79 2014.97,1251.99 2017.55,1259.02 2020.13,1265.86 2022.71,1272.52 2025.29,1279 2027.87,1285.31 2030.45,1291.44 
  2033.02,1297.4 2035.6,1303.19 2038.18,1308.81 2040.76,1314.26 2043.34,1319.55 2045.92,1324.68 2048.5,1329.65 2051.07,1334.46 2053.65,1339.12 2056.23,1343.62 
  2058.81,1347.98 2061.39,1352.2 2063.97,1356.27 2066.54,1360.2 2069.12,1364 2071.7,1367.66 2074.28,1371.19 2076.86,1374.6 2079.44,1377.88 2082.02,1381.04 
  2084.59,1384.08 2087.17,1387.01 2089.75,1389.83 2092.33,1392.53 2094.91,1395.14 2097.49,1397.63 2100.06,1400.03 2102.64,1402.33 2105.22,1404.54 2107.8,1406.66 
  2110.38,1408.69 2112.96,1410.63 2115.54,1412.49 2118.11,1414.27 2120.69,1415.97 2123.27,1417.6 2125.85,1419.16 2128.43,1420.65 2131.01,1422.07 2133.59,1423.42 
  2136.16,1424.72 2138.74,1425.95 2141.32,1427.13 2143.9,1428.25 2146.48,1429.31 2149.06,1430.33 2151.63,1431.3 2154.21,1432.22 2156.79,1433.09 2159.37,1433.92 
  2161.95,1434.71 2164.53,1435.46 2167.11,1436.17 2169.68,1436.85 2172.26,1437.48 2174.84,1438.09 2177.42,1438.67 2180,1439.21 2182.58,1439.73 2185.15,1440.21 
  2187.73,1440.67 2190.31,1441.11 2192.89,1441.52 2195.47,1441.91 2198.05,1442.28 2200.63,1442.63 2203.2,1442.95 2205.78,1443.26 2208.36,1443.55 2210.94,1443.83 
  2213.52,1444.09 2216.1,1444.33 2218.67,1444.56 2221.25,1444.77 2223.83,1444.98 2226.41,1445.17 2228.99,1445.35 2231.57,1445.51 2234.15,1445.67 2236.72,1445.82 
  2239.3,1445.96 2241.88,1446.09 2244.46,1446.21 2247.04,1446.32 2249.62,1446.43 2252.2,1446.53 2254.77,1446.62 2257.35,1446.71 2259.93,1446.79 2262.51,1446.87 
  2265.09,1446.94 2267.67,1447.01 2270.24,1447.07 2272.82,1447.13 2275.4,1447.18 2277.98,1447.23 2280.56,1447.28 2283.14,1447.32 2285.72,1447.36 2288.29,1447.4 
  2290.87,1447.44 
  "/>
<path clip-path="url(#clip610)" d="
M1890.92 448.912 L2280.76 448.912 L2280.76 206.992 L1890.92 206.992  Z
  " fill="#ffffff" fill-rule="evenodd" fill-opacity="1"/>
<polyline clip-path="url(#clip610)" style="stroke:#000000; stroke-width:4; stroke-opacity:1; fill:none" points="
  1890.92,448.912 2280.76,448.912 2280.76,206.992 1890.92,206.992 1890.92,448.912 
  "/>
<polyline clip-path="url(#clip610)" style="stroke:#009af9; stroke-width:4; stroke-opacity:1; fill:none" points="
  1914.92,267.472 2058.92,267.472 
  "/>
<path clip-path="url(#clip610)" d="M 0 0 M2087.59 254.035 L2087.59 280.91 L2093.24 280.91 Q2100.4 280.91 2103.71 277.669 Q2107.04 274.428 2107.04 267.437 Q2107.04 260.493 2103.71 257.275 Q2100.4 254.035 2093.24 254.035 L2087.59 254.035 M2082.92 250.192 L2092.53 250.192 Q2102.57 250.192 2107.27 254.382 Q2111.97 258.549 2111.97 267.437 Q2111.97 276.373 2107.25 280.562 Q2102.53 284.752 2092.53 284.752 L2082.92 284.752 L2082.92 250.192 Z" fill="#000000" fill-rule="evenodd" fill-opacity="1" /><path clip-path="url(#clip610)" d="M 0 0 M2128.22 271.72 Q2123.06 271.72 2121.07 272.9 Q2119.08 274.081 2119.08 276.928 Q2119.08 279.197 2120.56 280.539 Q2122.06 281.859 2124.63 281.859 Q2128.17 281.859 2130.3 279.359 Q2132.46 276.836 2132.46 272.669 L2132.46 271.72 L2128.22 271.72 M2136.71 269.961 L2136.71 284.752 L2132.46 284.752 L2132.46 280.817 Q2131 283.178 2128.82 284.312 Q2126.65 285.423 2123.5 285.423 Q2119.52 285.423 2117.15 283.201 Q2114.82 280.956 2114.82 277.206 Q2114.82 272.831 2117.73 270.609 Q2120.67 268.386 2126.48 268.386 L2132.46 268.386 L2132.46 267.97 Q2132.46 265.03 2130.51 263.433 Q2128.59 261.812 2125.09 261.812 Q2122.87 261.812 2120.77 262.345 Q2118.66 262.877 2116.71 263.942 L2116.71 260.007 Q2119.05 259.104 2121.25 258.664 Q2123.45 258.201 2125.53 258.201 Q2131.16 258.201 2133.94 261.118 Q2136.71 264.035 2136.71 269.961 Z" fill="#000000" fill-rule="evenodd" fill-opacity="1" /><path clip-path="url(#clip610)" d="M 0 0 M2145.4 251.465 L2145.4 258.826 L2154.17 258.826 L2154.17 262.137 L2145.4 262.137 L2145.4 276.211 Q2145.4 279.382 2146.25 280.285 Q2147.13 281.187 2149.79 281.187 L2154.17 281.187 L2154.17 284.752 L2149.79 284.752 Q2144.86 284.752 2142.99 282.923 Q2141.11 281.072 2141.11 276.211 L2141.11 262.137 L2137.99 262.137 L2137.99 258.826 L2141.11 258.826 L2141.11 251.465 L2145.4 251.465 Z" fill="#000000" fill-rule="evenodd" fill-opacity="1" /><path clip-path="url(#clip610)" d="M 0 0 M2170.42 271.72 Q2165.26 271.72 2163.27 272.9 Q2161.27 274.081 2161.27 276.928 Q2161.27 279.197 2162.76 280.539 Q2164.26 281.859 2166.83 281.859 Q2170.37 281.859 2172.5 279.359 Q2174.65 276.836 2174.65 272.669 L2174.65 271.72 L2170.42 271.72 M2178.91 269.961 L2178.91 284.752 L2174.65 284.752 L2174.65 280.817 Q2173.2 283.178 2171.02 284.312 Q2168.84 285.423 2165.7 285.423 Q2161.71 285.423 2159.35 283.201 Q2157.02 280.956 2157.02 277.206 Q2157.02 272.831 2159.93 270.609 Q2162.87 268.386 2168.68 268.386 L2174.65 268.386 L2174.65 267.97 Q2174.65 265.03 2172.71 263.433 Q2170.79 261.812 2167.29 261.812 Q2165.07 261.812 2162.96 262.345 Q2160.86 262.877 2158.91 263.942 L2158.91 260.007 Q2161.25 259.104 2163.45 258.664 Q2165.65 258.201 2167.73 258.201 Q2173.36 258.201 2176.14 261.118 Q2178.91 264.035 2178.91 269.961 Z" fill="#000000" fill-rule="evenodd" fill-opacity="1" /><polyline clip-path="url(#clip610)" style="stroke:#e26f46; stroke-width:4; stroke-opacity:1; fill:none" points="
  1914.92,327.952 2058.92,327.952 
  "/>
<path clip-path="url(#clip610)" d="M 0 0 M2082.92 310.672 L2112.15 310.672 L2112.15 314.607 L2099.89 314.607 L2099.89 345.232 L2095.19 345.232 L2095.19 314.607 L2082.92 314.607 L2082.92 310.672 Z" fill="#000000" fill-rule="evenodd" fill-opacity="1" /><path clip-path="url(#clip610)" d="M 0 0 M2124.68 323.288 Q2123.96 322.871 2123.1 322.686 Q2122.27 322.478 2121.25 322.478 Q2117.64 322.478 2115.7 324.839 Q2113.78 327.177 2113.78 331.575 L2113.78 345.232 L2109.49 345.232 L2109.49 319.306 L2113.78 319.306 L2113.78 323.334 Q2115.12 320.973 2117.27 319.839 Q2119.42 318.681 2122.5 318.681 Q2122.94 318.681 2123.47 318.751 Q2124.01 318.797 2124.65 318.913 L2124.68 323.288 Z" fill="#000000" fill-rule="evenodd" fill-opacity="1" /><path clip-path="url(#clip610)" d="M 0 0 M2128.71 335.001 L2128.71 319.306 L2132.96 319.306 L2132.96 334.839 Q2132.96 338.519 2134.4 340.371 Q2135.84 342.2 2138.71 342.2 Q2142.15 342.2 2144.15 340.001 Q2146.16 337.802 2146.16 334.005 L2146.16 319.306 L2150.42 319.306 L2150.42 345.232 L2146.16 345.232 L2146.16 341.251 Q2144.61 343.612 2142.55 344.769 Q2140.51 345.903 2137.8 345.903 Q2133.34 345.903 2131.02 343.126 Q2128.71 340.348 2128.71 335.001 M2139.42 318.681 L2139.42 318.681 Z" fill="#000000" fill-rule="evenodd" fill-opacity="1" /><path clip-path="url(#clip610)" d="M 0 0 M2159.1 311.945 L2159.1 319.306 L2167.87 319.306 L2167.87 322.617 L2159.1 322.617 L2159.1 336.691 Q2159.1 339.862 2159.96 340.765 Q2160.83 341.667 2163.5 341.667 L2167.87 341.667 L2167.87 345.232 L2163.5 345.232 Q2158.57 345.232 2156.69 343.403 Q2154.82 341.552 2154.82 336.691 L2154.82 322.617 L2151.69 322.617 L2151.69 319.306 L2154.82 319.306 L2154.82 311.945 L2159.1 311.945 Z" fill="#000000" fill-rule="evenodd" fill-opacity="1" /><path clip-path="url(#clip610)" d="M 0 0 M2193.89 329.584 L2193.89 345.232 L2189.63 345.232 L2189.63 329.723 Q2189.63 326.042 2188.2 324.214 Q2186.76 322.385 2183.89 322.385 Q2180.44 322.385 2178.45 324.584 Q2176.46 326.783 2176.46 330.579 L2176.46 345.232 L2172.18 345.232 L2172.18 309.214 L2176.46 309.214 L2176.46 323.334 Q2177.99 320.996 2180.05 319.839 Q2182.13 318.681 2184.84 318.681 Q2189.31 318.681 2191.6 321.459 Q2193.89 324.214 2193.89 329.584 Z" fill="#000000" fill-rule="evenodd" fill-opacity="1" /><polyline clip-path="url(#clip610)" style="stroke:#3da44d; stroke-width:4; stroke-opacity:1; fill:none" points="
  1914.92,388.432 2058.92,388.432 
  "/>
<path clip-path="url(#clip610)" d="M 0 0 M2087.59 389.208 L2087.59 401.87 L2095.09 401.87 Q2098.87 401.87 2100.67 400.319 Q2102.5 398.745 2102.5 395.527 Q2102.5 392.286 2100.67 390.759 Q2098.87 389.208 2095.09 389.208 L2087.59 389.208 M2087.59 374.995 L2087.59 385.411 L2094.52 385.411 Q2097.94 385.411 2099.61 384.138 Q2101.3 382.842 2101.3 380.203 Q2101.3 377.587 2099.61 376.291 Q2097.94 374.995 2094.52 374.995 L2087.59 374.995 M2082.92 371.152 L2094.86 371.152 Q2100.21 371.152 2103.1 373.374 Q2106 375.597 2106 379.694 Q2106 382.865 2104.52 384.74 Q2103.03 386.615 2100.16 387.078 Q2103.61 387.819 2105.51 390.18 Q2107.43 392.518 2107.43 396.036 Q2107.43 400.666 2104.28 403.189 Q2101.14 405.712 2095.33 405.712 L2082.92 405.712 L2082.92 371.152 Z" fill="#000000" fill-rule="evenodd" fill-opacity="1" /><path clip-path="url(#clip610)" d="M 0 0 M2134.08 391.684 L2134.08 393.768 L2114.49 393.768 Q2114.77 398.166 2117.13 400.481 Q2119.52 402.772 2123.75 402.772 Q2126.21 402.772 2128.5 402.17 Q2130.81 401.569 2133.08 400.365 L2133.08 404.393 Q2130.79 405.365 2128.38 405.874 Q2125.97 406.383 2123.5 406.383 Q2117.29 406.383 2113.66 402.772 Q2110.05 399.161 2110.05 393.004 Q2110.05 386.638 2113.47 382.911 Q2116.92 379.161 2122.76 379.161 Q2127.99 379.161 2131.02 382.541 Q2134.08 385.897 2134.08 391.684 M2129.82 390.434 Q2129.77 386.939 2127.85 384.856 Q2125.95 382.772 2122.8 382.772 Q2119.24 382.772 2117.09 384.786 Q2114.96 386.8 2114.63 390.458 L2129.82 390.434 Z" fill="#000000" fill-rule="evenodd" fill-opacity="1" /><path clip-path="url(#clip610)" d="M 0 0 M2155.07 380.55 L2155.07 384.578 Q2153.27 383.652 2151.32 383.189 Q2149.38 382.726 2147.29 382.726 Q2144.12 382.726 2142.52 383.698 Q2140.95 384.671 2140.95 386.615 Q2140.95 388.096 2142.09 388.953 Q2143.22 389.786 2146.65 390.55 L2148.1 390.874 Q2152.64 391.846 2154.54 393.629 Q2156.46 395.388 2156.46 398.559 Q2156.46 402.17 2153.59 404.277 Q2150.74 406.383 2145.74 406.383 Q2143.66 406.383 2141.39 405.967 Q2139.15 405.573 2136.65 404.763 L2136.65 400.365 Q2139.01 401.592 2141.3 402.217 Q2143.59 402.819 2145.84 402.819 Q2148.84 402.819 2150.46 401.8 Q2152.09 400.758 2152.09 398.883 Q2152.09 397.147 2150.9 396.221 Q2149.75 395.296 2145.79 394.439 L2144.31 394.092 Q2140.35 393.258 2138.59 391.546 Q2136.83 389.809 2136.83 386.8 Q2136.83 383.143 2139.42 381.152 Q2142.02 379.161 2146.78 379.161 Q2149.15 379.161 2151.23 379.509 Q2153.31 379.856 2155.07 380.55 Z" fill="#000000" fill-rule="evenodd" fill-opacity="1" /><path clip-path="url(#clip610)" d="M 0 0 M2165.14 372.425 L2165.14 379.786 L2173.91 379.786 L2173.91 383.097 L2165.14 383.097 L2165.14 397.171 Q2165.14 400.342 2166 401.245 Q2166.88 402.147 2169.54 402.147 L2173.91 402.147 L2173.91 405.712 L2169.54 405.712 Q2164.61 405.712 2162.73 403.883 Q2160.86 402.032 2160.86 397.171 L2160.86 383.097 L2157.73 383.097 L2157.73 379.786 L2160.86 379.786 L2160.86 372.425 L2165.14 372.425 Z" fill="#000000" fill-rule="evenodd" fill-opacity="1" /><path clip-path="url(#clip610)" d="M 0 0 M2206.58 369.694 L2206.58 373.235 L2202.5 373.235 Q2200.21 373.235 2199.31 374.161 Q2198.43 375.087 2198.43 377.495 L2198.43 379.786 L2205.44 379.786 L2205.44 383.097 L2198.43 383.097 L2198.43 405.712 L2194.15 405.712 L2194.15 383.097 L2190.07 383.097 L2190.07 379.786 L2194.15 379.786 L2194.15 377.981 Q2194.15 373.652 2196.16 371.685 Q2198.17 369.694 2202.55 369.694 L2206.58 369.694 Z" fill="#000000" fill-rule="evenodd" fill-opacity="1" /><path clip-path="url(#clip610)" d="M 0 0 M2211.04 379.786 L2215.3 379.786 L2215.3 405.712 L2211.04 405.712 L2211.04 379.786 M2211.04 369.694 L2215.3 369.694 L2215.3 375.087 L2211.04 375.087 L2211.04 369.694 Z" fill="#000000" fill-rule="evenodd" fill-opacity="1" /><path clip-path="url(#clip610)" d="M 0 0 M2223.98 372.425 L2223.98 379.786 L2232.76 379.786 L2232.76 383.097 L2223.98 383.097 L2223.98 397.171 Q2223.98 400.342 2224.84 401.245 Q2225.72 402.147 2228.38 402.147 L2232.76 402.147 L2232.76 405.712 L2228.38 405.712 Q2223.45 405.712 2221.58 403.883 Q2219.7 402.032 2219.7 397.171 L2219.7 383.097 L2216.58 383.097 L2216.58 379.786 L2219.7 379.786 L2219.7 372.425 L2223.98 372.425 Z" fill="#000000" fill-rule="evenodd" fill-opacity="1" /></svg>
