<?xml version="1.0" encoding="utf-8"?>
<svg xmlns="http://www.w3.org/2000/svg" xmlns:xlink="http://www.w3.org/1999/xlink" width="600" height="400" viewBox="0 0 2400 1600">
<defs>
  <clipPath id="clip490">
    <rect x="0" y="0" width="2400" height="1600"/>
  </clipPath>
</defs>
<path clip-path="url(#clip490)" d="
M0 1600 L2400 1600 L2400 0 L0 0  Z
  " fill="#ffffff" fill-rule="evenodd" fill-opacity="1"/>
<defs>
  <clipPath id="clip491">
    <rect x="480" y="0" width="1681" height="1600"/>
  </clipPath>
</defs>
<path clip-path="url(#clip490)" d="
M166.205 1486.45 L2352.76 1486.45 L2352.76 123.472 L166.205 123.472  Z
  " fill="#ffffff" fill-rule="evenodd" fill-opacity="1"/>
<defs>
  <clipPath id="clip492">
    <rect x="166" y="123" width="2188" height="1364"/>
  </clipPath>
</defs>
<polyline clip-path="url(#clip492)" style="stroke:#000000; stroke-width:2; stroke-opacity:0.1; fill:none" points="
  228.088,1486.45 228.088,123.472 
  "/>
<polyline clip-path="url(#clip492)" style="stroke:#000000; stroke-width:2; stroke-opacity:0.1; fill:none" points="
  743.784,1486.45 743.784,123.472 
  "/>
<polyline clip-path="url(#clip492)" style="stroke:#000000; stroke-width:2; stroke-opacity:0.1; fill:none" points="
  1259.48,1486.45 1259.48,123.472 
  "/>
<polyline clip-path="url(#clip492)" style="stroke:#000000; stroke-width:2; stroke-opacity:0.1; fill:none" points="
  1775.18,1486.45 1775.18,123.472 
  "/>
<polyline clip-path="url(#clip492)" style="stroke:#000000; stroke-width:2; stroke-opacity:0.1; fill:none" points="
  2290.87,1486.45 2290.87,123.472 
  "/>
<polyline clip-path="url(#clip492)" style="stroke:#000000; stroke-width:2; stroke-opacity:0.1; fill:none" points="
  166.205,1447.87 2352.76,1447.87 
  "/>
<polyline clip-path="url(#clip492)" style="stroke:#000000; stroke-width:2; stroke-opacity:0.1; fill:none" points="
  166.205,1174.29 2352.76,1174.29 
  "/>
<polyline clip-path="url(#clip492)" style="stroke:#000000; stroke-width:2; stroke-opacity:0.1; fill:none" points="
  166.205,900.713 2352.76,900.713 
  "/>
<polyline clip-path="url(#clip492)" style="stroke:#000000; stroke-width:2; stroke-opacity:0.1; fill:none" points="
  166.205,627.133 2352.76,627.133 
  "/>
<polyline clip-path="url(#clip492)" style="stroke:#000000; stroke-width:2; stroke-opacity:0.1; fill:none" points="
  166.205,353.553 2352.76,353.553 
  "/>
<polyline clip-path="url(#clip490)" style="stroke:#000000; stroke-width:4; stroke-opacity:1; fill:none" points="
  166.205,1486.45 2352.76,1486.45 
  "/>
<polyline clip-path="url(#clip490)" style="stroke:#000000; stroke-width:4; stroke-opacity:1; fill:none" points="
  166.205,1486.45 166.205,123.472 
  "/>
<polyline clip-path="url(#clip490)" style="stroke:#000000; stroke-width:4; stroke-opacity:1; fill:none" points="
  228.088,1486.45 228.088,1470.09 
  "/>
<polyline clip-path="url(#clip490)" style="stroke:#000000; stroke-width:4; stroke-opacity:1; fill:none" points="
  743.784,1486.45 743.784,1470.09 
  "/>
<polyline clip-path="url(#clip490)" style="stroke:#000000; stroke-width:4; stroke-opacity:1; fill:none" points="
  1259.48,1486.45 1259.48,1470.09 
  "/>
<polyline clip-path="url(#clip490)" style="stroke:#000000; stroke-width:4; stroke-opacity:1; fill:none" points="
  1775.18,1486.45 1775.18,1470.09 
  "/>
<polyline clip-path="url(#clip490)" style="stroke:#000000; stroke-width:4; stroke-opacity:1; fill:none" points="
  2290.87,1486.45 2290.87,1470.09 
  "/>
<polyline clip-path="url(#clip490)" style="stroke:#000000; stroke-width:4; stroke-opacity:1; fill:none" points="
  166.205,1447.87 192.443,1447.87 
  "/>
<polyline clip-path="url(#clip490)" style="stroke:#000000; stroke-width:4; stroke-opacity:1; fill:none" points="
  166.205,1174.29 192.443,1174.29 
  "/>
<polyline clip-path="url(#clip490)" style="stroke:#000000; stroke-width:4; stroke-opacity:1; fill:none" points="
  166.205,900.713 192.443,900.713 
  "/>
<polyline clip-path="url(#clip490)" style="stroke:#000000; stroke-width:4; stroke-opacity:1; fill:none" points="
  166.205,627.133 192.443,627.133 
  "/>
<polyline clip-path="url(#clip490)" style="stroke:#000000; stroke-width:4; stroke-opacity:1; fill:none" points="
  166.205,353.553 192.443,353.553 
  "/>
<path clip-path="url(#clip490)" d="M 0 0 M208.1 1525.04 L220.577 1525.04 L220.577 1528.83 L208.1 1528.83 L208.1 1525.04 Z" fill="#000000" fill-rule="evenodd" fill-opacity="1" /><path clip-path="url(#clip490)" d="M 0 0 M238.493 1509.43 L226.688 1527.88 L238.493 1527.88 L238.493 1509.43 M237.266 1505.36 L243.146 1505.36 L243.146 1527.88 L248.077 1527.88 L248.077 1531.77 L243.146 1531.77 L243.146 1539.92 L238.493 1539.92 L238.493 1531.77 L222.891 1531.77 L222.891 1527.26 L237.266 1505.36 Z" fill="#000000" fill-rule="evenodd" fill-opacity="1" /><path clip-path="url(#clip490)" d="M 0 0 M724.838 1525.04 L737.314 1525.04 L737.314 1528.83 L724.838 1528.83 L724.838 1525.04 Z" fill="#000000" fill-rule="evenodd" fill-opacity="1" /><path clip-path="url(#clip490)" d="M 0 0 M746.412 1535.98 L762.731 1535.98 L762.731 1539.92 L740.787 1539.92 L740.787 1535.98 Q743.449 1533.23 748.032 1528.6 Q752.638 1523.95 753.819 1522.61 Q756.064 1520.08 756.944 1518.35 Q757.847 1516.59 757.847 1514.9 Q757.847 1512.14 755.902 1510.41 Q753.981 1508.67 750.879 1508.67 Q748.68 1508.67 746.226 1509.43 Q743.796 1510.2 741.018 1511.75 L741.018 1507.03 Q743.842 1505.89 746.296 1505.31 Q748.749 1504.73 750.787 1504.73 Q756.157 1504.73 759.351 1507.42 Q762.546 1510.11 762.546 1514.6 Q762.546 1516.73 761.736 1518.65 Q760.948 1520.54 758.842 1523.14 Q758.263 1523.81 755.161 1527.03 Q752.06 1530.22 746.412 1535.98 Z" fill="#000000" fill-rule="evenodd" fill-opacity="1" /><path clip-path="url(#clip490)" d="M 0 0 M1259.48 1508.44 Q1255.87 1508.44 1254.04 1512 Q1252.23 1515.55 1252.23 1522.67 Q1252.23 1529.78 1254.04 1533.35 Q1255.87 1536.89 1259.48 1536.89 Q1263.11 1536.89 1264.92 1533.35 Q1266.75 1529.78 1266.75 1522.67 Q1266.75 1515.55 1264.92 1512 Q1263.11 1508.44 1259.48 1508.44 M1259.48 1504.73 Q1265.29 1504.73 1268.35 1509.34 Q1271.42 1513.92 1271.42 1522.67 Q1271.42 1531.4 1268.35 1536.01 Q1265.29 1540.59 1259.48 1540.59 Q1253.67 1540.59 1250.59 1536.01 Q1247.54 1531.4 1247.54 1522.67 Q1247.54 1513.92 1250.59 1509.34 Q1253.67 1504.73 1259.48 1504.73 Z" fill="#000000" fill-rule="evenodd" fill-opacity="1" /><path clip-path="url(#clip490)" d="M 0 0 M1769.83 1535.98 L1786.15 1535.98 L1786.15 1539.92 L1764.2 1539.92 L1764.2 1535.98 Q1766.87 1533.23 1771.45 1528.6 Q1776.06 1523.95 1777.24 1522.61 Q1779.48 1520.08 1780.36 1518.35 Q1781.26 1516.59 1781.26 1514.9 Q1781.26 1512.14 1779.32 1510.41 Q1777.4 1508.67 1774.3 1508.67 Q1772.1 1508.67 1769.64 1509.43 Q1767.21 1510.2 1764.44 1511.75 L1764.44 1507.03 Q1767.26 1505.89 1769.71 1505.31 Q1772.17 1504.73 1774.2 1504.73 Q1779.57 1504.73 1782.77 1507.42 Q1785.96 1510.11 1785.96 1514.6 Q1785.96 1516.73 1785.15 1518.65 Q1784.37 1520.54 1782.26 1523.14 Q1781.68 1523.81 1778.58 1527.03 Q1775.48 1530.22 1769.83 1535.98 Z" fill="#000000" fill-rule="evenodd" fill-opacity="1" /><path clip-path="url(#clip490)" d="M 0 0 M2293.88 1509.43 L2282.08 1527.88 L2293.88 1527.88 L2293.88 1509.43 M2292.65 1505.36 L2298.53 1505.36 L2298.53 1527.88 L2303.46 1527.88 L2303.46 1531.77 L2298.53 1531.77 L2298.53 1539.92 L2293.88 1539.92 L2293.88 1531.77 L2278.28 1531.77 L2278.28 1527.26 L2292.65 1505.36 Z" fill="#000000" fill-rule="evenodd" fill-opacity="1" /><path clip-path="url(#clip490)" d="M 0 0 M130.26 1433.67 Q126.649 1433.67 124.82 1437.24 Q123.015 1440.78 123.015 1447.91 Q123.015 1455.01 124.82 1458.58 Q126.649 1462.12 130.26 1462.12 Q133.895 1462.12 135.7 1458.58 Q137.529 1455.01 137.529 1447.91 Q137.529 1440.78 135.7 1437.24 Q133.895 1433.67 130.26 1433.67 M130.26 1429.97 Q136.07 1429.97 139.126 1434.57 Q142.205 1439.16 142.205 1447.91 Q142.205 1456.63 139.126 1461.24 Q136.07 1465.82 130.26 1465.82 Q124.45 1465.82 121.371 1461.24 Q118.316 1456.63 118.316 1447.91 Q118.316 1439.16 121.371 1434.57 Q124.45 1429.97 130.26 1429.97 Z" fill="#000000" fill-rule="evenodd" fill-opacity="1" /><path clip-path="url(#clip490)" d="M 0 0 M71.8578 1187.64 L88.1772 1187.64 L88.1772 1191.57 L66.2328 1191.57 L66.2328 1187.64 Q68.8949 1184.88 73.4782 1180.25 Q78.0846 1175.6 79.2652 1174.26 Q81.5105 1171.74 82.3902 1170 Q83.2929 1168.24 83.2929 1166.55 Q83.2929 1163.8 81.3485 1162.06 Q79.4272 1160.32 76.3254 1160.32 Q74.1263 1160.32 71.6726 1161.09 Q69.2421 1161.85 66.4643 1163.4 L66.4643 1158.68 Q69.2884 1157.55 71.7421 1156.97 Q74.1958 1156.39 76.2328 1156.39 Q81.6031 1156.39 84.7976 1159.07 Q87.992 1161.76 87.992 1166.25 Q87.992 1168.38 87.1818 1170.3 Q86.3948 1172.2 84.2883 1174.79 Q83.7096 1175.46 80.6078 1178.68 Q77.5059 1181.87 71.8578 1187.64 Z" fill="#000000" fill-rule="evenodd" fill-opacity="1" /><path clip-path="url(#clip490)" d="M 0 0 M103.247 1160.09 Q99.6354 1160.09 97.8068 1163.66 Q96.0012 1167.2 96.0012 1174.33 Q96.0012 1181.43 97.8068 1185 Q99.6354 1188.54 103.247 1188.54 Q106.881 1188.54 108.686 1185 Q110.515 1181.43 110.515 1174.33 Q110.515 1167.2 108.686 1163.66 Q106.881 1160.09 103.247 1160.09 M103.247 1156.39 Q109.057 1156.39 112.112 1160.99 Q115.191 1165.58 115.191 1174.33 Q115.191 1183.05 112.112 1187.66 Q109.057 1192.24 103.247 1192.24 Q97.4364 1192.24 94.3577 1187.66 Q91.3022 1183.05 91.3022 1174.33 Q91.3022 1165.58 94.3577 1160.99 Q97.4364 1156.39 103.247 1156.39 Z" fill="#000000" fill-rule="evenodd" fill-opacity="1" /><path clip-path="url(#clip490)" d="M 0 0 M130.26 1160.09 Q126.649 1160.09 124.82 1163.66 Q123.015 1167.2 123.015 1174.33 Q123.015 1181.43 124.82 1185 Q126.649 1188.54 130.26 1188.54 Q133.895 1188.54 135.7 1185 Q137.529 1181.43 137.529 1174.33 Q137.529 1167.2 135.7 1163.66 Q133.895 1160.09 130.26 1160.09 M130.26 1156.39 Q136.07 1156.39 139.126 1160.99 Q142.205 1165.58 142.205 1174.33 Q142.205 1183.05 139.126 1187.66 Q136.07 1192.24 130.26 1192.24 Q124.45 1192.24 121.371 1187.66 Q118.316 1183.05 118.316 1174.33 Q118.316 1165.58 121.371 1160.99 Q124.45 1156.39 130.26 1156.39 Z" fill="#000000" fill-rule="evenodd" fill-opacity="1" /><path clip-path="url(#clip490)" d="M 0 0 M78.5939 887.507 L66.7884 905.956 L78.5939 905.956 L78.5939 887.507 M77.367 883.433 L83.2466 883.433 L83.2466 905.956 L88.1772 905.956 L88.1772 909.845 L83.2466 909.845 L83.2466 917.993 L78.5939 917.993 L78.5939 909.845 L62.9921 909.845 L62.9921 905.331 L77.367 883.433 Z" fill="#000000" fill-rule="evenodd" fill-opacity="1" /><path clip-path="url(#clip490)" d="M 0 0 M103.247 886.512 Q99.6354 886.512 97.8068 890.076 Q96.0012 893.618 96.0012 900.748 Q96.0012 907.854 97.8068 911.419 Q99.6354 914.961 103.247 914.961 Q106.881 914.961 108.686 911.419 Q110.515 907.854 110.515 900.748 Q110.515 893.618 108.686 890.076 Q106.881 886.512 103.247 886.512 M103.247 882.808 Q109.057 882.808 112.112 887.414 Q115.191 891.998 115.191 900.748 Q115.191 909.475 112.112 914.081 Q109.057 918.664 103.247 918.664 Q97.4364 918.664 94.3577 914.081 Q91.3022 909.475 91.3022 900.748 Q91.3022 891.998 94.3577 887.414 Q97.4364 882.808 103.247 882.808 Z" fill="#000000" fill-rule="evenodd" fill-opacity="1" /><path clip-path="url(#clip490)" d="M 0 0 M130.26 886.512 Q126.649 886.512 124.82 890.076 Q123.015 893.618 123.015 900.748 Q123.015 907.854 124.82 911.419 Q126.649 914.961 130.26 914.961 Q133.895 914.961 135.7 911.419 Q137.529 907.854 137.529 900.748 Q137.529 893.618 135.7 890.076 Q133.895 886.512 130.26 886.512 M130.26 882.808 Q136.07 882.808 139.126 887.414 Q142.205 891.998 142.205 900.748 Q142.205 909.475 139.126 914.081 Q136.07 918.664 130.26 918.664 Q124.45 918.664 121.371 914.081 Q118.316 909.475 118.316 900.748 Q118.316 891.998 121.371 887.414 Q124.45 882.808 130.26 882.808 Z" fill="#000000" fill-rule="evenodd" fill-opacity="1" /><path clip-path="url(#clip490)" d="M 0 0 M76.6495 625.27 Q73.5013 625.27 71.6495 627.422 Q69.8208 629.575 69.8208 633.325 Q69.8208 637.052 71.6495 639.228 Q73.5013 641.381 76.6495 641.381 Q79.7976 641.381 81.6263 639.228 Q83.4781 637.052 83.4781 633.325 Q83.4781 629.575 81.6263 627.422 Q79.7976 625.27 76.6495 625.27 M85.9318 610.617 L85.9318 614.876 Q84.1726 614.043 82.367 613.603 Q80.5846 613.163 78.8254 613.163 Q74.1958 613.163 71.7421 616.288 Q69.3115 619.413 68.9643 625.733 Q70.33 623.719 72.3902 622.654 Q74.4504 621.566 76.9272 621.566 Q82.1355 621.566 85.1448 624.737 Q88.1772 627.885 88.1772 633.325 Q88.1772 638.649 85.029 641.867 Q81.8809 645.084 76.6495 645.084 Q70.6541 645.084 67.4828 640.501 Q64.3116 635.895 64.3116 627.168 Q64.3116 618.973 68.2004 614.112 Q72.0893 609.228 78.6402 609.228 Q80.3994 609.228 82.1818 609.575 Q83.9874 609.922 85.9318 610.617 Z" fill="#000000" fill-rule="evenodd" fill-opacity="1" /><path clip-path="url(#clip490)" d="M 0 0 M103.247 612.932 Q99.6354 612.932 97.8068 616.496 Q96.0012 620.038 96.0012 627.168 Q96.0012 634.274 97.8068 637.839 Q99.6354 641.381 103.247 641.381 Q106.881 641.381 108.686 637.839 Q110.515 634.274 110.515 627.168 Q110.515 620.038 108.686 616.496 Q106.881 612.932 103.247 612.932 M103.247 609.228 Q109.057 609.228 112.112 613.834 Q115.191 618.418 115.191 627.168 Q115.191 635.895 112.112 640.501 Q109.057 645.084 103.247 645.084 Q97.4364 645.084 94.3577 640.501 Q91.3022 635.895 91.3022 627.168 Q91.3022 618.418 94.3577 613.834 Q97.4364 609.228 103.247 609.228 Z" fill="#000000" fill-rule="evenodd" fill-opacity="1" /><path clip-path="url(#clip490)" d="M 0 0 M130.26 612.932 Q126.649 612.932 124.82 616.496 Q123.015 620.038 123.015 627.168 Q123.015 634.274 124.82 637.839 Q126.649 641.381 130.26 641.381 Q133.895 641.381 135.7 637.839 Q137.529 634.274 137.529 627.168 Q137.529 620.038 135.7 616.496 Q133.895 612.932 130.26 612.932 M130.26 609.228 Q136.07 609.228 139.126 613.834 Q142.205 618.418 142.205 627.168 Q142.205 635.895 139.126 640.501 Q136.07 645.084 130.26 645.084 Q124.45 645.084 121.371 640.501 Q118.316 635.895 118.316 627.168 Q118.316 618.418 121.371 613.834 Q124.45 609.228 130.26 609.228 Z" fill="#000000" fill-rule="evenodd" fill-opacity="1" /><path clip-path="url(#clip490)" d="M 0 0 M76.3254 354.421 Q72.9921 354.421 71.0708 356.203 Q69.1726 357.986 69.1726 361.111 Q69.1726 364.236 71.0708 366.018 Q72.9921 367.801 76.3254 367.801 Q79.6587 367.801 81.58 366.018 Q83.5013 364.213 83.5013 361.111 Q83.5013 357.986 81.58 356.203 Q79.6819 354.421 76.3254 354.421 M71.6495 352.43 Q68.6402 351.69 66.9504 349.629 Q65.2838 347.569 65.2838 344.606 Q65.2838 340.463 68.2236 338.055 Q71.1865 335.648 76.3254 335.648 Q81.4874 335.648 84.4272 338.055 Q87.367 340.463 87.367 344.606 Q87.367 347.569 85.6772 349.629 Q84.0105 351.69 81.0244 352.43 Q84.404 353.217 86.279 355.509 Q88.1772 357.801 88.1772 361.111 Q88.1772 366.134 85.0985 368.819 Q82.0429 371.504 76.3254 371.504 Q70.6078 371.504 67.5291 368.819 Q64.4736 366.134 64.4736 361.111 Q64.4736 357.801 66.3717 355.509 Q68.2699 353.217 71.6495 352.43 M69.9365 345.046 Q69.9365 347.731 71.6032 349.236 Q73.293 350.74 76.3254 350.74 Q79.3346 350.74 81.0244 349.236 Q82.7374 347.731 82.7374 345.046 Q82.7374 342.361 81.0244 340.856 Q79.3346 339.352 76.3254 339.352 Q73.293 339.352 71.6032 340.856 Q69.9365 342.361 69.9365 345.046 Z" fill="#000000" fill-rule="evenodd" fill-opacity="1" /><path clip-path="url(#clip490)" d="M 0 0 M103.247 339.352 Q99.6354 339.352 97.8068 342.916 Q96.0012 346.458 96.0012 353.588 Q96.0012 360.694 97.8068 364.259 Q99.6354 367.801 103.247 367.801 Q106.881 367.801 108.686 364.259 Q110.515 360.694 110.515 353.588 Q110.515 346.458 108.686 342.916 Q106.881 339.352 103.247 339.352 M103.247 335.648 Q109.057 335.648 112.112 340.254 Q115.191 344.838 115.191 353.588 Q115.191 362.314 112.112 366.921 Q109.057 371.504 103.247 371.504 Q97.4364 371.504 94.3577 366.921 Q91.3022 362.314 91.3022 353.588 Q91.3022 344.838 94.3577 340.254 Q97.4364 335.648 103.247 335.648 Z" fill="#000000" fill-rule="evenodd" fill-opacity="1" /><path clip-path="url(#clip490)" d="M 0 0 M130.26 339.352 Q126.649 339.352 124.82 342.916 Q123.015 346.458 123.015 353.588 Q123.015 360.694 124.82 364.259 Q126.649 367.801 130.26 367.801 Q133.895 367.801 135.7 364.259 Q137.529 360.694 137.529 353.588 Q137.529 346.458 135.7 342.916 Q133.895 339.352 130.26 339.352 M130.26 335.648 Q136.07 335.648 139.126 340.254 Q142.205 344.838 142.205 353.588 Q142.205 362.314 139.126 366.921 Q136.07 371.504 130.26 371.504 Q124.45 371.504 121.371 366.921 Q118.316 362.314 118.316 353.588 Q118.316 344.838 121.371 340.254 Q124.45 335.648 130.26 335.648 Z" fill="#000000" fill-rule="evenodd" fill-opacity="1" /><path clip-path="url(#clip490)" d="M 0 0 M697.458 18.8205 L697.458 65.8515 L707.342 65.8515 Q719.859 65.8515 725.652 60.1802 Q731.485 54.509 731.485 42.2752 Q731.485 30.1225 725.652 24.4918 Q719.859 18.8205 707.342 18.8205 L697.458 18.8205 M689.275 12.096 L706.086 12.096 Q723.667 12.096 731.891 19.4281 Q740.114 26.7198 740.114 42.2752 Q740.114 57.9117 731.85 65.2439 Q723.586 72.576 706.086 72.576 L689.275 72.576 L689.275 12.096 Z" fill="#000000" fill-rule="evenodd" fill-opacity="1" /><path clip-path="url(#clip490)" d="M 0 0 M768.551 49.7694 Q759.518 49.7694 756.034 51.8354 Q752.55 53.9013 752.55 58.8839 Q752.55 62.8538 755.143 65.2034 Q757.776 67.5124 762.272 67.5124 Q768.47 67.5124 772.197 63.1374 Q775.964 58.7219 775.964 51.4303 L775.964 49.7694 L768.551 49.7694 M783.418 46.6907 L783.418 72.576 L775.964 72.576 L775.964 65.6895 Q773.412 69.8214 769.604 71.8063 Q765.797 73.7508 760.287 73.7508 Q753.32 73.7508 749.188 69.8619 Q745.096 65.9325 745.096 59.3701 Q745.096 51.7138 750.201 47.825 Q755.345 43.9361 765.513 43.9361 L775.964 43.9361 L775.964 43.2069 Q775.964 38.0623 772.562 35.2672 Q769.199 32.4315 763.082 32.4315 Q759.194 32.4315 755.507 33.3632 Q751.821 34.295 748.418 36.1584 L748.418 29.2718 Q752.51 27.692 756.358 26.9223 Q760.206 26.1121 763.852 26.1121 Q773.696 26.1121 778.557 31.2163 Q783.418 36.3204 783.418 46.6907 Z" fill="#000000" fill-rule="evenodd" fill-opacity="1" /><path clip-path="url(#clip490)" d="M 0 0 M798.609 14.324 L798.609 27.2059 L813.962 27.2059 L813.962 32.9987 L798.609 32.9987 L798.609 57.6282 Q798.609 63.1779 800.108 64.7578 Q801.647 66.3376 806.306 66.3376 L813.962 66.3376 L813.962 72.576 L806.306 72.576 Q797.677 72.576 794.396 69.3758 Q791.115 66.1351 791.115 57.6282 L791.115 32.9987 L785.646 32.9987 L785.646 27.2059 L791.115 27.2059 L791.115 14.324 L798.609 14.324 Z" fill="#000000" fill-rule="evenodd" fill-opacity="1" /><path clip-path="url(#clip490)" d="M 0 0 M842.399 49.7694 Q833.366 49.7694 829.882 51.8354 Q826.398 53.9013 826.398 58.8839 Q826.398 62.8538 828.991 65.2034 Q831.624 67.5124 836.12 67.5124 Q842.318 67.5124 846.045 63.1374 Q849.812 58.7219 849.812 51.4303 L849.812 49.7694 L842.399 49.7694 M857.266 46.6907 L857.266 72.576 L849.812 72.576 L849.812 65.6895 Q847.26 69.8214 843.452 71.8063 Q839.645 73.7508 834.135 73.7508 Q827.168 73.7508 823.036 69.8619 Q818.944 65.9325 818.944 59.3701 Q818.944 51.7138 824.049 47.825 Q829.193 43.9361 839.361 43.9361 L849.812 43.9361 L849.812 43.2069 Q849.812 38.0623 846.41 35.2672 Q843.047 32.4315 836.93 32.4315 Q833.042 32.4315 829.355 33.3632 Q825.669 34.295 822.266 36.1584 L822.266 29.2718 Q826.358 27.692 830.206 26.9223 Q834.054 26.1121 837.7 26.1121 Q847.544 26.1121 852.405 31.2163 Q857.266 36.3204 857.266 46.6907 Z" fill="#000000" fill-rule="evenodd" fill-opacity="1" /><path clip-path="url(#clip490)" d="M 0 0 M912.075 49.7694 Q903.041 49.7694 899.557 51.8354 Q896.074 53.9013 896.074 58.8839 Q896.074 62.8538 898.666 65.2034 Q901.299 67.5124 905.796 67.5124 Q911.994 67.5124 915.721 63.1374 Q919.488 58.7219 919.488 51.4303 L919.488 49.7694 L912.075 49.7694 M926.942 46.6907 L926.942 72.576 L919.488 72.576 L919.488 65.6895 Q916.936 69.8214 913.128 71.8063 Q909.32 73.7508 903.811 73.7508 Q896.843 73.7508 892.711 69.8619 Q888.62 65.9325 888.62 59.3701 Q888.62 51.7138 893.724 47.825 Q898.869 43.9361 909.037 43.9361 L919.488 43.9361 L919.488 43.2069 Q919.488 38.0623 916.085 35.2672 Q912.723 32.4315 906.606 32.4315 Q902.717 32.4315 899.031 33.3632 Q895.345 34.295 891.942 36.1584 L891.942 29.2718 Q896.033 27.692 899.882 26.9223 Q903.73 26.1121 907.376 26.1121 Q917.219 26.1121 922.08 31.2163 Q926.942 36.3204 926.942 46.6907 Z" fill="#000000" fill-rule="evenodd" fill-opacity="1" /><path clip-path="url(#clip490)" d="M 0 0 M972.474 45.1919 L972.474 72.576 L965.02 72.576 L965.02 45.4349 Q965.02 38.994 962.508 35.7938 Q959.997 32.5936 954.974 32.5936 Q948.938 32.5936 945.454 36.4419 Q941.97 40.2903 941.97 46.9338 L941.97 72.576 L934.476 72.576 L934.476 27.2059 L941.97 27.2059 L941.97 34.2544 Q944.644 30.163 948.249 28.1376 Q951.895 26.1121 956.635 26.1121 Q964.453 26.1121 968.463 30.9732 Q972.474 35.7938 972.474 45.1919 Z" fill="#000000" fill-rule="evenodd" fill-opacity="1" /><path clip-path="url(#clip490)" d="M 0 0 M1010.15 34.0924 L1010.15 9.54393 L1017.6 9.54393 L1017.6 72.576 L1010.15 72.576 L1010.15 65.7705 Q1007.8 69.8214 1004.19 71.8063 Q1000.63 73.7508 995.604 73.7508 Q987.381 73.7508 982.196 67.1883 Q977.051 60.6258 977.051 49.9314 Q977.051 39.2371 982.196 32.6746 Q987.381 26.1121 995.604 26.1121 Q1000.63 26.1121 1004.19 28.0971 Q1007.8 30.0415 1010.15 34.0924 M984.748 49.9314 Q984.748 58.1548 988.11 62.8538 Q991.513 67.5124 997.427 67.5124 Q1003.34 67.5124 1006.74 62.8538 Q1010.15 58.1548 1010.15 49.9314 Q1010.15 41.7081 1006.74 37.0496 Q1003.34 32.3505 997.427 32.3505 Q991.513 32.3505 988.11 37.0496 Q984.748 41.7081 984.748 49.9314 Z" fill="#000000" fill-rule="evenodd" fill-opacity="1" /><path clip-path="url(#clip490)" d="M 0 0 M1043.73 12.096 L1094.89 12.096 L1094.89 18.9825 L1073.42 18.9825 L1073.42 72.576 L1065.2 72.576 L1065.2 18.9825 L1043.73 18.9825 L1043.73 12.096 Z" fill="#000000" fill-rule="evenodd" fill-opacity="1" /><path clip-path="url(#clip490)" d="M 0 0 M1116.81 34.1734 Q1115.55 33.4443 1114.05 33.1202 Q1112.59 32.7556 1110.81 32.7556 Q1104.49 32.7556 1101.09 36.8875 Q1097.73 40.9789 1097.73 48.6757 L1097.73 72.576 L1090.23 72.576 L1090.23 27.2059 L1097.73 27.2059 L1097.73 34.2544 Q1100.08 30.1225 1103.84 28.1376 Q1107.61 26.1121 1113 26.1121 Q1113.77 26.1121 1114.7 26.2337 Q1115.63 26.3147 1116.77 26.5172 L1116.81 34.1734 Z" fill="#000000" fill-rule="evenodd" fill-opacity="1" /><path clip-path="url(#clip490)" d="M 0 0 M1123.86 54.671 L1123.86 27.2059 L1131.31 27.2059 L1131.31 54.3874 Q1131.31 60.8284 1133.82 64.0691 Q1136.33 67.2693 1141.36 67.2693 Q1147.39 67.2693 1150.88 63.421 Q1154.4 59.5726 1154.4 52.9291 L1154.4 27.2059 L1161.85 27.2059 L1161.85 72.576 L1154.4 72.576 L1154.4 65.6084 Q1151.69 69.7404 1148.08 71.7658 Q1144.52 73.7508 1139.78 73.7508 Q1131.96 73.7508 1127.91 68.8897 Q1123.86 64.0286 1123.86 54.671 M1142.61 26.1121 L1142.61 26.1121 Z" fill="#000000" fill-rule="evenodd" fill-opacity="1" /><path clip-path="url(#clip490)" d="M 0 0 M1208.48 48.0275 L1208.48 51.6733 L1174.21 51.6733 Q1174.69 59.3701 1178.83 63.421 Q1183 67.4314 1190.41 67.4314 Q1194.71 67.4314 1198.72 66.3781 Q1202.77 65.3249 1206.74 63.2184 L1206.74 70.267 Q1202.73 71.9684 1198.51 72.8596 Q1194.3 73.7508 1189.97 73.7508 Q1179.11 73.7508 1172.75 67.4314 Q1166.43 61.1119 1166.43 50.3365 Q1166.43 39.1965 1172.43 32.6746 Q1178.46 26.1121 1188.67 26.1121 Q1197.83 26.1121 1203.13 32.0264 Q1208.48 37.9003 1208.48 48.0275 M1201.03 45.84 Q1200.94 39.7232 1197.58 36.0774 Q1194.26 32.4315 1188.75 32.4315 Q1182.51 32.4315 1178.75 35.9558 Q1175.02 39.4801 1174.45 45.8805 L1201.03 45.84 Z" fill="#000000" fill-rule="evenodd" fill-opacity="1" /><path clip-path="url(#clip490)" d="M 0 0 M1279.25 14.0809 L1279.25 22.0612 Q1274.59 19.8332 1270.46 18.7395 Q1266.33 17.6457 1262.48 17.6457 Q1255.79 17.6457 1252.15 20.2383 Q1248.54 22.8309 1248.54 27.611 Q1248.54 31.6214 1250.93 33.6873 Q1253.36 35.7128 1260.09 36.9686 L1265.03 37.9813 Q1274.19 39.7232 1278.52 44.1387 Q1282.89 48.5136 1282.89 55.8863 Q1282.89 64.6767 1276.98 69.2137 Q1271.11 73.7508 1259.72 73.7508 Q1255.43 73.7508 1250.57 72.7785 Q1245.75 71.8063 1240.56 69.9024 L1240.56 61.4765 Q1245.55 64.2716 1250.33 65.6895 Q1255.11 67.1073 1259.72 67.1073 Q1266.73 67.1073 1270.54 64.3527 Q1274.35 61.598 1274.35 56.4939 Q1274.35 52.0379 1271.59 49.5264 Q1268.88 47.0148 1262.64 45.759 L1257.66 44.7868 Q1248.5 42.9639 1244.41 39.075 Q1240.32 35.1862 1240.32 28.2591 Q1240.32 20.2383 1245.95 15.6203 Q1251.62 11.0023 1261.55 11.0023 Q1265.8 11.0023 1270.22 11.7719 Q1274.63 12.5416 1279.25 14.0809 Z" fill="#000000" fill-rule="evenodd" fill-opacity="1" /><path clip-path="url(#clip490)" d="M 0 0 M1298.09 14.324 L1298.09 27.2059 L1313.44 27.2059 L1313.44 32.9987 L1298.09 32.9987 L1298.09 57.6282 Q1298.09 63.1779 1299.58 64.7578 Q1301.12 66.3376 1305.78 66.3376 L1313.44 66.3376 L1313.44 72.576 L1305.78 72.576 Q1297.15 72.576 1293.87 69.3758 Q1290.59 66.1351 1290.59 57.6282 L1290.59 32.9987 L1285.12 32.9987 L1285.12 27.2059 L1290.59 27.2059 L1290.59 14.324 L1298.09 14.324 Z" fill="#000000" fill-rule="evenodd" fill-opacity="1" /><path clip-path="url(#clip490)" d="M 0 0 M1341.88 49.7694 Q1332.84 49.7694 1329.36 51.8354 Q1325.87 53.9013 1325.87 58.8839 Q1325.87 62.8538 1328.47 65.2034 Q1331.1 67.5124 1335.6 67.5124 Q1341.79 67.5124 1345.52 63.1374 Q1349.29 58.7219 1349.29 51.4303 L1349.29 49.7694 L1341.88 49.7694 M1356.74 46.6907 L1356.74 72.576 L1349.29 72.576 L1349.29 65.6895 Q1346.74 69.8214 1342.93 71.8063 Q1339.12 73.7508 1333.61 73.7508 Q1326.64 73.7508 1322.51 69.8619 Q1318.42 65.9325 1318.42 59.3701 Q1318.42 51.7138 1323.53 47.825 Q1328.67 43.9361 1338.84 43.9361 L1349.29 43.9361 L1349.29 43.2069 Q1349.29 38.0623 1345.89 35.2672 Q1342.52 32.4315 1336.41 32.4315 Q1332.52 32.4315 1328.83 33.3632 Q1325.15 34.295 1321.74 36.1584 L1321.74 29.2718 Q1325.83 27.692 1329.68 26.9223 Q1333.53 26.1121 1337.18 26.1121 Q1347.02 26.1121 1351.88 31.2163 Q1356.74 36.3204 1356.74 46.6907 Z" fill="#000000" fill-rule="evenodd" fill-opacity="1" /><path clip-path="url(#clip490)" d="M 0 0 M1371.93 14.324 L1371.93 27.2059 L1387.29 27.2059 L1387.29 32.9987 L1371.93 32.9987 L1371.93 57.6282 Q1371.93 63.1779 1373.43 64.7578 Q1374.97 66.3376 1379.63 66.3376 L1387.29 66.3376 L1387.29 72.576 L1379.63 72.576 Q1371 72.576 1367.72 69.3758 Q1364.44 66.1351 1364.44 57.6282 L1364.44 32.9987 L1358.97 32.9987 L1358.97 27.2059 L1364.44 27.2059 L1364.44 14.324 L1371.93 14.324 Z" fill="#000000" fill-rule="evenodd" fill-opacity="1" /><path clip-path="url(#clip490)" d="M 0 0 M1395.1 27.2059 L1402.56 27.2059 L1402.56 72.576 L1395.1 72.576 L1395.1 27.2059 M1395.1 9.54393 L1402.56 9.54393 L1402.56 18.9825 L1395.1 18.9825 L1395.1 9.54393 Z" fill="#000000" fill-rule="evenodd" fill-opacity="1" /><path clip-path="url(#clip490)" d="M 0 0 M1439.3 28.5427 L1439.3 35.5912 Q1436.14 33.9709 1432.74 33.1607 Q1429.33 32.3505 1425.69 32.3505 Q1420.14 32.3505 1417.34 34.0519 Q1414.59 35.7533 1414.59 39.156 Q1414.59 41.7486 1416.57 43.2475 Q1418.56 44.7058 1424.55 46.0426 L1427.11 46.6097 Q1435.05 48.3111 1438.37 51.4303 Q1441.73 54.509 1441.73 60.0587 Q1441.73 66.3781 1436.71 70.0644 Q1431.72 73.7508 1422.97 73.7508 Q1419.33 73.7508 1415.36 73.0216 Q1411.43 72.3329 1407.05 70.9151 L1407.05 63.2184 Q1411.19 65.3654 1415.2 66.4591 Q1419.21 67.5124 1423.14 67.5124 Q1428.4 67.5124 1431.24 65.73 Q1434.07 63.9071 1434.07 60.6258 Q1434.07 57.5877 1432.01 55.9673 Q1429.98 54.3469 1423.06 52.8481 L1420.46 52.2405 Q1413.54 50.7821 1410.46 47.7845 Q1407.38 44.7463 1407.38 39.4801 Q1407.38 33.0797 1411.92 29.5959 Q1416.45 26.1121 1424.8 26.1121 Q1428.93 26.1121 1432.58 26.7198 Q1436.22 27.3274 1439.3 28.5427 Z" fill="#000000" fill-rule="evenodd" fill-opacity="1" /><path clip-path="url(#clip490)" d="M 0 0 M1456.92 14.324 L1456.92 27.2059 L1472.27 27.2059 L1472.27 32.9987 L1456.92 32.9987 L1456.92 57.6282 Q1456.92 63.1779 1458.42 64.7578 Q1459.96 66.3376 1464.62 66.3376 L1472.27 66.3376 L1472.27 72.576 L1464.62 72.576 Q1455.99 72.576 1452.71 69.3758 Q1449.43 66.1351 1449.43 57.6282 L1449.43 32.9987 L1443.96 32.9987 L1443.96 27.2059 L1449.43 27.2059 L1449.43 14.324 L1456.92 14.324 Z" fill="#000000" fill-rule="evenodd" fill-opacity="1" /><path clip-path="url(#clip490)" d="M 0 0 M1480.09 27.2059 L1487.55 27.2059 L1487.55 72.576 L1480.09 72.576 L1480.09 27.2059 M1480.09 9.54393 L1487.55 9.54393 L1487.55 18.9825 L1480.09 18.9825 L1480.09 9.54393 Z" fill="#000000" fill-rule="evenodd" fill-opacity="1" /><path clip-path="url(#clip490)" d="M 0 0 M1528.01 28.9478 L1528.01 35.9153 Q1524.86 34.1734 1521.65 33.3227 Q1518.5 32.4315 1515.25 32.4315 Q1508 32.4315 1503.99 37.0496 Q1499.98 41.6271 1499.98 49.9314 Q1499.98 58.2358 1503.99 62.8538 Q1508 67.4314 1515.25 67.4314 Q1518.5 67.4314 1521.65 66.5807 Q1524.86 65.6895 1528.01 63.9476 L1528.01 70.8341 Q1524.9 72.2924 1521.53 73.0216 Q1518.21 73.7508 1514.44 73.7508 Q1504.2 73.7508 1498.16 67.3098 Q1492.12 60.8689 1492.12 49.9314 Q1492.12 38.832 1498.2 32.472 Q1504.32 26.1121 1514.93 26.1121 Q1518.37 26.1121 1521.65 26.8413 Q1524.94 27.5299 1528.01 28.9478 Z" fill="#000000" fill-rule="evenodd" fill-opacity="1" /><path clip-path="url(#clip490)" d="M 0 0 M1556.45 49.7694 Q1547.42 49.7694 1543.93 51.8354 Q1540.45 53.9013 1540.45 58.8839 Q1540.45 62.8538 1543.04 65.2034 Q1545.68 67.5124 1550.17 67.5124 Q1556.37 67.5124 1560.1 63.1374 Q1563.87 58.7219 1563.87 51.4303 L1563.87 49.7694 L1556.45 49.7694 M1571.32 46.6907 L1571.32 72.576 L1563.87 72.576 L1563.87 65.6895 Q1561.31 69.8214 1557.51 71.8063 Q1553.7 73.7508 1548.19 73.7508 Q1541.22 73.7508 1537.09 69.8619 Q1533 65.9325 1533 59.3701 Q1533 51.7138 1538.1 47.825 Q1543.25 43.9361 1553.41 43.9361 L1563.87 43.9361 L1563.87 43.2069 Q1563.87 38.0623 1560.46 35.2672 Q1557.1 32.4315 1550.98 32.4315 Q1547.09 32.4315 1543.41 33.3632 Q1539.72 34.295 1536.32 36.1584 L1536.32 29.2718 Q1540.41 27.692 1544.26 26.9223 Q1548.11 26.1121 1551.75 26.1121 Q1561.6 26.1121 1566.46 31.2163 Q1571.32 36.3204 1571.32 46.6907 Z" fill="#000000" fill-rule="evenodd" fill-opacity="1" /><path clip-path="url(#clip490)" d="M 0 0 M1579.14 9.54393 L1586.59 9.54393 L1586.59 72.576 L1579.14 72.576 L1579.14 9.54393 Z" fill="#000000" fill-rule="evenodd" fill-opacity="1" /><path clip-path="url(#clip490)" d="M 0 0 M1621.1 12.096 L1633.3 12.096 L1648.73 53.2532 L1664.25 12.096 L1676.44 12.096 L1676.44 72.576 L1668.46 72.576 L1668.46 19.4686 L1652.86 60.9499 L1644.64 60.9499 L1629.04 19.4686 L1629.04 72.576 L1621.1 72.576 L1621.1 12.096 Z" fill="#000000" fill-rule="evenodd" fill-opacity="1" /><path clip-path="url(#clip490)" d="M 0 0 M1701.84 32.4315 Q1695.84 32.4315 1692.36 37.1306 Q1688.88 41.7891 1688.88 49.9314 Q1688.88 58.0738 1692.32 62.7728 Q1695.8 67.4314 1701.84 67.4314 Q1707.79 67.4314 1711.28 62.7323 Q1714.76 58.0333 1714.76 49.9314 Q1714.76 41.8701 1711.28 37.1711 Q1707.79 32.4315 1701.84 32.4315 M1701.84 26.1121 Q1711.56 26.1121 1717.11 32.4315 Q1722.66 38.7509 1722.66 49.9314 Q1722.66 61.0714 1717.11 67.4314 Q1711.56 73.7508 1701.84 73.7508 Q1692.08 73.7508 1686.53 67.4314 Q1681.02 61.0714 1681.02 49.9314 Q1681.02 38.7509 1686.53 32.4315 Q1692.08 26.1121 1701.84 26.1121 Z" fill="#000000" fill-rule="evenodd" fill-opacity="1" /><path clip-path="url(#clip490)" d="M 0 0 M1760.33 34.0924 L1760.33 9.54393 L1767.79 9.54393 L1767.79 72.576 L1760.33 72.576 L1760.33 65.7705 Q1757.98 69.8214 1754.38 71.8063 Q1750.81 73.7508 1745.79 73.7508 Q1737.57 73.7508 1732.38 67.1883 Q1727.24 60.6258 1727.24 49.9314 Q1727.24 39.2371 1732.38 32.6746 Q1737.57 26.1121 1745.79 26.1121 Q1750.81 26.1121 1754.38 28.0971 Q1757.98 30.0415 1760.33 34.0924 M1734.93 49.9314 Q1734.93 58.1548 1738.3 62.8538 Q1741.7 67.5124 1747.61 67.5124 Q1753.53 67.5124 1756.93 62.8538 Q1760.33 58.1548 1760.33 49.9314 Q1760.33 41.7081 1756.93 37.0496 Q1753.53 32.3505 1747.61 32.3505 Q1741.7 32.3505 1738.3 37.0496 Q1734.93 41.7081 1734.93 49.9314 Z" fill="#000000" fill-rule="evenodd" fill-opacity="1" /><path clip-path="url(#clip490)" d="M 0 0 M1814.41 48.0275 L1814.41 51.6733 L1780.14 51.6733 Q1780.63 59.3701 1784.76 63.421 Q1788.93 67.4314 1796.35 67.4314 Q1800.64 67.4314 1804.65 66.3781 Q1808.7 65.3249 1812.67 63.2184 L1812.67 70.267 Q1808.66 71.9684 1804.45 72.8596 Q1800.24 73.7508 1795.9 73.7508 Q1785.04 73.7508 1778.68 67.4314 Q1772.37 61.1119 1772.37 50.3365 Q1772.37 39.1965 1778.36 32.6746 Q1784.4 26.1121 1794.6 26.1121 Q1803.76 26.1121 1809.07 32.0264 Q1814.41 37.9003 1814.41 48.0275 M1806.96 45.84 Q1806.88 39.7232 1803.52 36.0774 Q1800.19 32.4315 1794.69 32.4315 Q1788.45 32.4315 1784.68 35.9558 Q1780.95 39.4801 1780.39 45.8805 L1806.96 45.84 Z" fill="#000000" fill-rule="evenodd" fill-opacity="1" /><path clip-path="url(#clip490)" d="M 0 0 M1822.23 9.54393 L1829.69 9.54393 L1829.69 72.576 L1822.23 72.576 L1822.23 9.54393 Z" fill="#000000" fill-rule="evenodd" fill-opacity="1" /><polyline clip-path="url(#clip492)" style="stroke:#009af9; stroke-width:4; stroke-opacity:1; fill:none" points="
  743.784,1447.87 743.784,1379.48 769.569,1379.48 769.569,1297.4 795.354,1297.4 821.139,1297.4 821.139,1229.01 846.923,1229.01 846.923,1256.37 
  872.708,1256.37 872.708,1064.86 898.493,1064.86 898.493,1010.15 924.278,1010.15 924.278,1064.86 950.063,1064.86 950.063,914.392 975.847,914.392 975.847,777.602 
  1001.63,777.602 1001.63,900.713 1027.42,900.713 1027.42,941.75 1053.2,941.75 1053.2,887.034 1078.99,887.034 1078.99,1092.22 1104.77,1092.22 1104.77,1064.86 
  1130.56,1064.86 1130.56,1146.94 1156.34,1146.94 1156.34,1283.73 1182.13,1283.73 1182.13,1256.37 1207.91,1256.37 1207.91,1283.73 1233.7,1283.73 1233.7,1324.76 
  1259.48,1324.76 1259.48,1352.12 1285.27,1352.12 1285.27,1379.48 1311.05,1379.48 1311.05,1420.52 1336.83,1420.52 1336.83,1406.84 1362.62,1406.84 1362.62,1393.16 
  1388.4,1393.16 1414.19,1393.16 1414.19,1406.84 1439.97,1406.84 1465.76,1406.84 1465.76,1365.8 1491.54,1365.8 1491.54,1270.05 
  1517.33,1270.05 1517.33,1242.69 1543.11,1242.69 1543.11,1229.01 1568.9,1229.01 1568.9,1092.22 1594.68,1092.22 1594.68,1037.5 1620.47,1037.5 1620.47,914.392 
  1646.25,914.392 1646.25,681.849 1672.04,681.849 1672.04,640.812 1697.82,640.812 1697.82,558.738 1723.61,558.738 1723.61,408.269 1749.39,408.269 1749.39,490.343 
  1775.18,490.343 1775.18,162.047 1800.96,162.047 1800.96,326.195 1826.75,326.195 1852.53,326.195 1852.53,695.528 1878.32,695.528 1878.32,750.244 
  1904.1,750.244 1904.1,928.071 1929.89,928.071 1929.89,900.713 1955.67,900.713 1955.67,1215.33 1981.45,1215.33 1981.45,1187.97 2007.24,1187.97 2007.24,1174.29 
  2033.02,1174.29 2033.02,1324.76 2058.81,1324.76 2058.81,1420.52 2084.59,1420.52 2110.38,1420.52 2110.38,1379.48 2136.16,1379.48 2136.16,1447.87 
  2161.95,1447.87 2187.73,1447.87 2213.52,1447.87 2239.3,1447.87 2265.09,1447.87 
  2290.87,1447.87 
  "/>
<polyline clip-path="url(#clip492)" style="stroke:#e26f46; stroke-width:4; stroke-opacity:1; fill:none" points="
  228.088,1447.87 230.667,1447.87 233.245,1447.87 235.824,1447.87 238.402,1447.87 240.981,1447.87 243.559,1447.87 246.138,1447.87 248.716,1447.87 251.295,1447.87 
  253.873,1447.87 256.451,1447.87 259.03,1447.87 261.608,1447.87 264.187,1447.87 266.765,1447.87 269.344,1447.87 271.922,1447.87 274.501,1447.87 277.079,1447.87 
  279.658,1447.87 282.236,1447.87 284.815,1447.87 287.393,1447.87 289.972,1447.87 292.55,1447.87 295.129,1447.87 297.707,1447.87 300.286,1447.87 302.864,1447.87 
  305.443,1447.87 308.021,1447.87 310.6,1447.87 313.178,1447.87 315.757,1447.87 318.335,1447.87 320.913,1447.87 323.492,1447.87 326.07,1447.87 328.649,1447.87 
  331.227,1447.87 333.806,1447.87 336.384,1447.87 338.963,1447.87 341.541,1447.87 344.12,1447.87 346.698,1447.87 349.277,1447.87 351.855,1447.87 354.434,1447.87 
  357.012,1447.87 359.591,1447.87 362.169,1447.87 364.748,1447.87 367.326,1447.87 369.905,1447.87 372.483,1447.87 375.062,1447.87 377.64,1447.87 380.219,1447.87 
  382.797,1447.87 385.375,1447.87 387.954,1447.87 390.532,1447.87 393.111,1447.87 395.689,1447.86 398.268,1447.86 400.846,1447.86 403.425,1447.86 406.003,1447.86 
  408.582,1447.86 411.16,1447.86 413.739,1447.86 416.317,1447.85 418.896,1447.85 421.474,1447.85 424.053,1447.85 426.631,1447.85 429.21,1447.84 431.788,1447.84 
  434.367,1447.84 436.945,1447.84 439.524,1447.83 442.102,1447.83 444.681,1447.82 447.259,1447.82 449.837,1447.82 452.416,1447.81 454.994,1447.8 457.573,1447.8 
  460.151,1447.79 462.73,1447.79 465.308,1447.78 467.887,1447.77 470.465,1447.76 473.044,1447.75 475.622,1447.74 478.201,1447.73 480.779,1447.72 483.358,1447.7 
  485.936,1447.69 488.515,1447.67 491.093,1447.66 493.672,1447.64 496.25,1447.62 498.829,1447.6 501.407,1447.58 503.986,1447.56 506.564,1447.53 509.143,1447.5 
  511.721,1447.47 514.299,1447.44 516.878,1447.41 519.456,1447.37 522.035,1447.33 524.613,1447.29 527.192,1447.25 529.77,1447.2 532.349,1447.15 534.927,1447.09 
  537.506,1447.04 540.084,1446.97 542.663,1446.91 545.241,1446.84 547.82,1446.76 550.398,1446.68 552.977,1446.59 555.555,1446.5 558.134,1446.4 560.712,1446.3 
  563.291,1446.19 565.869,1446.07 568.448,1445.94 571.026,1445.81 573.605,1445.67 576.183,1445.52 578.762,1445.36 581.34,1445.19 583.918,1445.01 586.497,1444.81 
  589.075,1444.61 591.654,1444.4 594.232,1444.17 596.811,1443.93 599.389,1443.67 601.968,1443.4 604.546,1443.12 607.125,1442.82 609.703,1442.5 612.282,1442.16 
  614.86,1441.81 617.439,1441.44 620.017,1441.04 622.596,1440.63 625.174,1440.19 627.753,1439.73 630.331,1439.25 632.91,1438.74 635.488,1438.2 638.067,1437.64 
  640.645,1437.05 643.224,1436.42 645.802,1435.77 648.38,1435.09 650.959,1434.37 653.537,1433.62 656.116,1432.83 658.694,1432.01 661.273,1431.14 663.851,1430.24 
  666.43,1429.29 669.008,1428.31 671.587,1427.27 674.165,1426.2 676.744,1425.07 679.322,1423.9 681.901,1422.67 684.479,1421.4 687.058,1420.07 689.636,1418.68 
  692.215,1417.24 694.793,1415.74 697.372,1414.18 699.95,1412.56 702.529,1410.87 705.107,1409.12 707.686,1407.31 710.264,1405.42 712.842,1403.47 715.421,1401.45 
  717.999,1399.35 720.578,1397.17 723.156,1394.93 725.735,1392.6 728.313,1390.19 730.892,1387.71 733.47,1385.14 736.049,1382.49 738.627,1379.75 741.206,1376.93 
  743.784,1374.02 746.363,1371.02 748.941,1367.93 751.52,1364.75 754.098,1361.48 756.677,1358.12 759.255,1354.66 761.834,1351.11 764.412,1347.46 766.991,1343.72 
  769.569,1339.88 772.148,1335.94 774.726,1331.91 777.304,1327.78 779.883,1323.55 782.461,1319.22 785.04,1314.8 787.618,1310.28 790.197,1305.66 792.775,1300.95 
  795.354,1296.14 797.932,1291.24 800.511,1286.25 803.089,1281.16 805.668,1275.98 808.246,1270.71 810.825,1265.35 813.403,1259.9 815.982,1254.37 818.56,1248.76 
  821.139,1243.06 823.717,1237.29 826.296,1231.44 828.874,1225.51 831.453,1219.52 834.031,1213.46 836.61,1207.33 839.188,1201.14 841.766,1194.9 844.345,1188.6 
  846.923,1182.25 849.502,1175.85 852.08,1169.41 854.659,1162.93 857.237,1156.42 859.816,1149.87 862.394,1143.31 864.973,1136.72 867.551,1130.11 870.13,1123.5 
  872.708,1116.88 875.287,1110.26 877.865,1103.65 880.444,1097.05 883.022,1090.46 885.601,1083.9 888.179,1077.36 890.758,1070.85 893.336,1064.39 895.915,1057.97 
  898.493,1051.6 901.072,1045.29 903.65,1039.05 906.228,1032.87 908.807,1026.76 911.385,1020.74 913.964,1014.81 916.542,1008.96 919.121,1003.22 921.699,997.582 
  924.278,992.055 926.856,986.645 929.435,981.356 932.013,976.196 934.592,971.17 937.17,966.283 939.749,961.54 942.327,956.947 944.906,952.509 947.484,948.23 
  950.063,944.116 952.641,940.172 955.22,936.401 957.798,932.808 960.377,929.397 962.955,926.173 965.534,923.138 968.112,920.297 970.69,917.652 973.269,915.208 
  975.847,912.966 978.426,910.929 981.004,909.1 983.583,907.482 986.161,906.075 988.74,904.882 991.318,903.903 993.897,903.141 996.475,902.596 999.054,902.269 
  1001.63,902.16 1004.21,902.269 1006.79,902.596 1009.37,903.141 1011.95,903.903 1014.52,904.882 1017.1,906.075 1019.68,907.482 1022.26,909.1 1024.84,910.929 
  1027.42,912.966 1030,915.208 1032.57,917.652 1035.15,920.297 1037.73,923.138 1040.31,926.173 1042.89,929.397 1045.47,932.808 1048.04,936.401 1050.62,940.171 
  1053.2,944.116 1055.78,948.23 1058.36,952.509 1060.94,956.947 1063.52,961.54 1066.09,966.283 1068.67,971.17 1071.25,976.196 1073.83,981.356 1076.41,986.644 
  1078.99,992.055 1081.57,997.582 1084.14,1003.22 1086.72,1008.96 1089.3,1014.8 1091.88,1020.74 1094.46,1026.76 1097.04,1032.87 1099.61,1039.04 1102.19,1045.29 
  1104.77,1051.6 1107.35,1057.97 1109.93,1064.39 1112.51,1070.85 1115.09,1077.36 1117.66,1083.89 1120.24,1090.46 1122.82,1097.04 1125.4,1103.65 1127.98,1110.26 
  1130.56,1116.88 1133.13,1123.5 1135.71,1130.11 1138.29,1136.71 1140.87,1143.3 1143.45,1149.87 1146.03,1156.41 1148.61,1162.92 1151.18,1169.4 1153.76,1175.84 
  1156.34,1182.24 1158.92,1188.59 1161.5,1194.88 1164.08,1201.13 1166.65,1207.32 1169.23,1213.44 1171.81,1219.5 1174.39,1225.49 1176.97,1231.41 1179.55,1237.26 
  1182.13,1243.03 1184.7,1248.73 1187.28,1254.34 1189.86,1259.86 1192.44,1265.31 1195.02,1270.66 1197.6,1275.93 1200.18,1281.1 1202.75,1286.19 1205.33,1291.18 
  1207.91,1296.08 1210.49,1300.88 1213.07,1305.58 1215.65,1310.19 1218.22,1314.7 1220.8,1319.12 1223.38,1323.43 1225.96,1327.65 1228.54,1331.77 1231.12,1335.79 
  1233.7,1339.72 1236.27,1343.54 1238.85,1347.27 1241.43,1350.9 1244.01,1354.43 1246.59,1357.87 1249.17,1361.22 1251.74,1364.46 1254.32,1367.62 1256.9,1370.68 
  1259.48,1373.65 1262.06,1376.53 1264.64,1379.32 1267.22,1382.02 1269.79,1384.64 1272.37,1387.16 1274.95,1389.61 1277.53,1391.96 1280.11,1394.24 1282.69,1396.43 
  1285.27,1398.55 1287.84,1400.58 1290.42,1402.54 1293,1404.42 1295.58,1406.23 1298.16,1407.96 1300.74,1409.62 1303.31,1411.21 1305.89,1412.73 1308.47,1414.18 
  1311.05,1415.57 1313.63,1416.88 1316.21,1418.13 1318.79,1419.32 1321.36,1420.45 1323.94,1421.51 1326.52,1422.51 1329.1,1423.45 1331.68,1424.33 1334.26,1425.16 
  1336.83,1425.92 1339.41,1426.63 1341.99,1427.28 1344.57,1427.88 1347.15,1428.42 1349.73,1428.91 1352.31,1429.34 1354.88,1429.71 1357.46,1430.04 1360.04,1430.31 
  1362.62,1430.52 1365.2,1430.69 1367.78,1430.79 1370.35,1430.85 1372.93,1430.85 1375.51,1430.79 1378.09,1430.68 1380.67,1430.52 1383.25,1430.3 1385.83,1430.02 
  1388.4,1429.69 1390.98,1429.29 1393.56,1428.84 1396.14,1428.33 1398.72,1427.76 1401.3,1427.12 1403.88,1426.42 1406.45,1425.66 1409.03,1424.82 1411.61,1423.93 
  1414.19,1422.96 1416.77,1421.92 1419.35,1420.8 1421.92,1419.62 1424.5,1418.35 1427.08,1417.01 1429.66,1415.58 1432.24,1414.07 1434.82,1412.48 1437.4,1410.8 
  1439.97,1409.03 1442.55,1407.16 1445.13,1405.2 1447.71,1403.15 1450.29,1400.99 1452.87,1398.73 1455.44,1396.36 1458.02,1393.88 1460.6,1391.29 1463.18,1388.59 
  1465.76,1385.77 1468.34,1382.83 1470.92,1379.76 1473.49,1376.57 1476.07,1373.25 1478.65,1369.79 1481.23,1366.2 1483.81,1362.48 1486.39,1358.6 1488.97,1354.59 
  1491.54,1350.42 1494.12,1346.11 1496.7,1341.64 1499.28,1337.01 1501.86,1332.22 1504.44,1327.27 1507.01,1322.16 1509.59,1316.87 1512.17,1311.42 1514.75,1305.79 
  1517.33,1299.98 1519.91,1294 1522.49,1287.83 1525.06,1281.49 1527.64,1274.96 1530.22,1268.24 1532.8,1261.33 1535.38,1254.24 1537.96,1246.95 1540.53,1239.47 
  1543.11,1231.8 1545.69,1223.93 1548.27,1215.87 1550.85,1207.62 1553.43,1199.17 1556.01,1190.52 1558.58,1181.68 1561.16,1172.64 1563.74,1163.42 1566.32,1153.99 
  1568.9,1144.38 1571.48,1134.58 1574.05,1124.59 1576.63,1114.41 1579.21,1104.06 1581.79,1093.52 1584.37,1082.8 1586.95,1071.91 1589.53,1060.85 1592.1,1049.62 
  1594.68,1038.23 1597.26,1026.69 1599.84,1014.99 1602.42,1003.14 1605,991.157 1607.58,979.034 1610.15,966.782 1612.73,954.406 1615.31,941.915 1617.89,929.315 
  1620.47,916.613 1623.05,903.818 1625.62,890.938 1628.2,877.981 1630.78,864.955 1633.36,851.87 1635.94,838.735 1638.52,825.559 1641.1,812.352 1643.67,799.125 
  1646.25,785.887 1648.83,772.65 1651.41,759.423 1653.99,746.217 1656.57,733.045 1659.14,719.916 1661.72,706.842 1664.3,693.836 1666.88,680.907 1669.46,668.07 
  1672.04,655.334 1674.62,642.713 1677.19,630.217 1679.77,617.86 1682.35,605.653 1684.93,593.608 1687.51,581.738 1690.09,570.053 1692.66,558.567 1695.24,547.291 
  1697.82,536.237 1700.4,525.416 1702.98,514.84 1705.56,504.52 1708.14,494.467 1710.71,484.692 1713.29,475.207 1715.87,466.021 1718.45,457.144 1721.03,448.587 
  1723.61,440.359 1726.19,432.47 1728.76,424.928 1731.34,417.743 1733.92,410.921 1736.5,404.472 1739.08,398.403 1741.66,392.72 1744.23,387.431 1746.81,382.542 
  1749.39,378.058 1751.97,373.985 1754.55,370.328 1757.13,367.09 1759.71,364.277 1762.28,361.89 1764.86,359.934 1767.44,358.409 1770.02,357.319 1772.6,356.665 
  1775.18,356.447 1777.75,356.665 1780.33,357.319 1782.91,358.409 1785.49,359.934 1788.07,361.89 1790.65,364.277 1793.23,367.09 1795.8,370.328 1798.38,373.985 
  1800.96,378.058 1803.54,382.542 1806.12,387.431 1808.7,392.72 1811.28,398.403 1813.85,404.472 1816.43,410.921 1819.01,417.743 1821.59,424.928 1824.17,432.47 
  1826.75,440.359 1829.32,448.587 1831.9,457.144 1834.48,466.021 1837.06,475.207 1839.64,484.693 1842.22,494.467 1844.8,504.52 1847.37,514.84 1849.95,525.416 
  1852.53,536.237 1855.11,547.291 1857.69,558.568 1860.27,570.054 1862.84,581.738 1865.42,593.609 1868,605.653 1870.58,617.861 1873.16,630.218 1875.74,642.713 
  1878.32,655.335 1880.89,668.071 1883.47,680.908 1886.05,693.837 1888.63,706.843 1891.21,719.917 1893.79,733.046 1896.36,746.219 1898.94,759.424 1901.52,772.652 
  1904.1,785.889 1906.68,799.127 1909.26,812.355 1911.84,825.562 1914.41,838.738 1916.99,851.873 1919.57,864.958 1922.15,877.985 1924.73,890.942 1927.31,903.823 
  1929.89,916.619 1932.46,929.321 1935.04,941.922 1937.62,954.414 1940.2,966.79 1942.78,979.043 1945.36,991.167 1947.93,1003.15 1950.51,1015 1953.09,1026.7 
  1955.67,1038.25 1958.25,1049.64 1960.83,1060.87 1963.41,1071.93 1965.98,1082.82 1968.56,1093.54 1971.14,1104.08 1973.72,1114.44 1976.3,1124.62 1978.88,1134.61 
  1981.45,1144.42 1984.03,1154.03 1986.61,1163.46 1989.19,1172.69 1991.77,1181.73 1994.35,1190.57 1996.93,1199.22 1999.5,1207.68 2002.08,1215.94 2004.66,1224.01 
  2007.24,1231.88 2009.82,1239.56 2012.4,1247.05 2014.97,1254.34 2017.55,1261.45 2020.13,1268.36 2022.71,1275.09 2025.29,1281.63 2027.87,1287.99 2030.45,1294.17 
  2033.02,1300.16 2035.6,1305.98 2038.18,1311.63 2040.76,1317.1 2043.34,1322.41 2045.92,1327.54 2048.5,1332.52 2051.07,1337.33 2053.65,1341.98 2056.23,1346.48 
  2058.81,1350.82 2061.39,1355.02 2063.97,1359.07 2066.54,1362.98 2069.12,1366.74 2071.7,1370.38 2074.28,1373.87 2076.86,1377.24 2079.44,1380.49 2082.02,1383.61 
  2084.59,1386.61 2087.17,1389.49 2089.75,1392.26 2092.33,1394.92 2094.91,1397.47 2097.49,1399.92 2100.06,1402.27 2102.64,1404.52 2105.22,1406.67 2107.8,1408.74 
  2110.38,1410.71 2112.96,1412.6 2115.54,1414.41 2118.11,1416.14 2120.69,1417.79 2123.27,1419.36 2125.85,1420.87 2128.43,1422.3 2131.01,1423.67 2133.59,1424.98 
  2136.16,1426.22 2138.74,1427.4 2141.32,1428.53 2143.9,1429.6 2146.48,1430.62 2149.06,1431.59 2151.63,1432.51 2154.21,1433.38 2156.79,1434.21 2159.37,1435 
  2161.95,1435.75 2164.53,1436.46 2167.11,1437.13 2169.68,1437.76 2172.26,1438.37 2174.84,1438.94 2177.42,1439.47 2180,1439.98 2182.58,1440.47 2185.15,1440.92 
  2187.73,1441.35 2190.31,1441.76 2192.89,1442.14 2195.47,1442.5 2198.05,1442.84 2200.63,1443.16 2203.2,1443.46 2205.78,1443.75 2208.36,1444.01 2210.94,1444.27 
  2213.52,1444.5 2216.1,1444.72 2218.67,1444.93 2221.25,1445.13 2223.83,1445.31 2226.41,1445.49 2228.99,1445.65 2231.57,1445.8 2234.15,1445.94 2236.72,1446.07 
  2239.3,1446.2 2241.88,1446.32 2244.46,1446.42 2247.04,1446.53 2249.62,1446.62 2252.2,1446.71 2254.77,1446.79 2257.35,1446.87 2259.93,1446.94 2262.51,1447.01 
  2265.09,1447.07 2267.67,1447.13 2270.24,1447.19 2272.82,1447.24 2275.4,1447.29 2277.98,1447.33 2280.56,1447.37 2283.14,1447.41 2285.72,1447.44 2288.29,1447.48 
  2290.87,1447.51 
  "/>
<path clip-path="url(#clip490)" d="
M1929.78 388.432 L2280.76 388.432 L2280.76 206.992 L1929.78 206.992  Z
  " fill="#ffffff" fill-rule="evenodd" fill-opacity="1"/>
<polyline clip-path="url(#clip490)" style="stroke:#000000; stroke-width:4; stroke-opacity:1; fill:none" points="
  1929.78,388.432 2280.76,388.432 2280.76,206.992 1929.78,206.992 1929.78,388.432 
  "/>
<polyline clip-path="url(#clip490)" style="stroke:#009af9; stroke-width:4; stroke-opacity:1; fill:none" points="
  1953.78,267.472 2097.78,267.472 
  "/>
<path clip-path="url(#clip490)" d="M 0 0 M2126.46 254.035 L2126.46 280.91 L2132.11 280.91 Q2139.26 280.91 2142.57 277.669 Q2145.9 274.428 2145.9 267.437 Q2145.9 260.493 2142.57 257.275 Q2139.26 254.035 2132.11 254.035 L2126.46 254.035 M2121.78 250.192 L2131.39 250.192 Q2141.44 250.192 2146.14 254.382 Q2150.84 258.549 2150.84 267.437 Q2150.84 276.373 2146.11 280.562 Q2141.39 284.752 2131.39 284.752 L2121.78 284.752 L2121.78 250.192 Z" fill="#000000" fill-rule="evenodd" fill-opacity="1" /><path clip-path="url(#clip490)" d="M 0 0 M2167.08 271.72 Q2161.92 271.72 2159.93 272.9 Q2157.94 274.081 2157.94 276.928 Q2157.94 279.197 2159.42 280.539 Q2160.93 281.859 2163.5 281.859 Q2167.04 281.859 2169.17 279.359 Q2171.32 276.836 2171.32 272.669 L2171.32 271.72 L2167.08 271.72 M2175.58 269.961 L2175.58 284.752 L2171.32 284.752 L2171.32 280.817 Q2169.86 283.178 2167.69 284.312 Q2165.51 285.423 2162.36 285.423 Q2158.38 285.423 2156.02 283.201 Q2153.68 280.956 2153.68 277.206 Q2153.68 272.831 2156.6 270.609 Q2159.54 268.386 2165.35 268.386 L2171.32 268.386 L2171.32 267.97 Q2171.32 265.03 2169.38 263.433 Q2167.46 261.812 2163.96 261.812 Q2161.74 261.812 2159.63 262.345 Q2157.52 262.877 2155.58 263.942 L2155.58 260.007 Q2157.92 259.104 2160.12 258.664 Q2162.32 258.201 2164.4 258.201 Q2170.02 258.201 2172.8 261.118 Q2175.58 264.035 2175.58 269.961 Z" fill="#000000" fill-rule="evenodd" fill-opacity="1" /><path clip-path="url(#clip490)" d="M 0 0 M2184.26 251.465 L2184.26 258.826 L2193.03 258.826 L2193.03 262.137 L2184.26 262.137 L2184.26 276.211 Q2184.26 279.382 2185.12 280.285 Q2186 281.187 2188.66 281.187 L2193.03 281.187 L2193.03 284.752 L2188.66 284.752 Q2183.73 284.752 2181.85 282.923 Q2179.98 281.072 2179.98 276.211 L2179.98 262.137 L2176.85 262.137 L2176.85 258.826 L2179.98 258.826 L2179.98 251.465 L2184.26 251.465 Z" fill="#000000" fill-rule="evenodd" fill-opacity="1" /><path clip-path="url(#clip490)" d="M 0 0 M2209.28 271.72 Q2204.12 271.72 2202.13 272.9 Q2200.14 274.081 2200.14 276.928 Q2200.14 279.197 2201.62 280.539 Q2203.13 281.859 2205.7 281.859 Q2209.24 281.859 2211.37 279.359 Q2213.52 276.836 2213.52 272.669 L2213.52 271.72 L2209.28 271.72 M2217.78 269.961 L2217.78 284.752 L2213.52 284.752 L2213.52 280.817 Q2212.06 283.178 2209.89 284.312 Q2207.71 285.423 2204.56 285.423 Q2200.58 285.423 2198.22 283.201 Q2195.88 280.956 2195.88 277.206 Q2195.88 272.831 2198.8 270.609 Q2201.74 268.386 2207.55 268.386 L2213.52 268.386 L2213.52 267.97 Q2213.52 265.03 2211.58 263.433 Q2209.65 261.812 2206.16 261.812 Q2203.94 261.812 2201.83 262.345 Q2199.72 262.877 2197.78 263.942 L2197.78 260.007 Q2200.12 259.104 2202.32 258.664 Q2204.52 258.201 2206.6 258.201 Q2212.22 258.201 2215 261.118 Q2217.78 264.035 2217.78 269.961 Z" fill="#000000" fill-rule="evenodd" fill-opacity="1" /><polyline clip-path="url(#clip490)" style="stroke:#e26f46; stroke-width:4; stroke-opacity:1; fill:none" points="
  1953.78,327.952 2097.78,327.952 
  "/>
<path clip-path="url(#clip490)" d="M 0 0 M2121.78 310.672 L2151.02 310.672 L2151.02 314.607 L2138.75 314.607 L2138.75 345.232 L2134.05 345.232 L2134.05 314.607 L2121.78 314.607 L2121.78 310.672 Z" fill="#000000" fill-rule="evenodd" fill-opacity="1" /><path clip-path="url(#clip490)" d="M 0 0 M2163.54 323.288 Q2162.83 322.871 2161.97 322.686 Q2161.14 322.478 2160.12 322.478 Q2156.51 322.478 2154.56 324.839 Q2152.64 327.177 2152.64 331.575 L2152.64 345.232 L2148.36 345.232 L2148.36 319.306 L2152.64 319.306 L2152.64 323.334 Q2153.98 320.973 2156.14 319.839 Q2158.29 318.681 2161.37 318.681 Q2161.81 318.681 2162.34 318.751 Q2162.87 318.797 2163.52 318.913 L2163.54 323.288 Z" fill="#000000" fill-rule="evenodd" fill-opacity="1" /><path clip-path="url(#clip490)" d="M 0 0 M2167.57 335.001 L2167.57 319.306 L2171.83 319.306 L2171.83 334.839 Q2171.83 338.519 2173.27 340.371 Q2174.7 342.2 2177.57 342.2 Q2181.02 342.2 2183.01 340.001 Q2185.02 337.802 2185.02 334.005 L2185.02 319.306 L2189.28 319.306 L2189.28 345.232 L2185.02 345.232 L2185.02 341.251 Q2183.47 343.612 2181.41 344.769 Q2179.38 345.903 2176.67 345.903 Q2172.2 345.903 2169.89 343.126 Q2167.57 340.348 2167.57 335.001 M2178.29 318.681 L2178.29 318.681 Z" fill="#000000" fill-rule="evenodd" fill-opacity="1" /><path clip-path="url(#clip490)" d="M 0 0 M2197.96 311.945 L2197.96 319.306 L2206.74 319.306 L2206.74 322.617 L2197.96 322.617 L2197.96 336.691 Q2197.96 339.862 2198.82 340.765 Q2199.7 341.667 2202.36 341.667 L2206.74 341.667 L2206.74 345.232 L2202.36 345.232 Q2197.43 345.232 2195.56 343.403 Q2193.68 341.552 2193.68 336.691 L2193.68 322.617 L2190.56 322.617 L2190.56 319.306 L2193.68 319.306 L2193.68 311.945 L2197.96 311.945 Z" fill="#000000" fill-rule="evenodd" fill-opacity="1" /><path clip-path="url(#clip490)" d="M 0 0 M2232.76 329.584 L2232.76 345.232 L2228.5 345.232 L2228.5 329.723 Q2228.5 326.042 2227.06 324.214 Q2225.63 322.385 2222.76 322.385 Q2219.31 322.385 2217.32 324.584 Q2215.33 326.783 2215.33 330.579 L2215.33 345.232 L2211.04 345.232 L2211.04 309.214 L2215.33 309.214 L2215.33 323.334 Q2216.85 320.996 2218.91 319.839 Q2221 318.681 2223.71 318.681 Q2228.17 318.681 2230.46 321.459 Q2232.76 324.214 2232.76 329.584 Z" fill="#000000" fill-rule="evenodd" fill-opacity="1" /></svg>
