<?xml version="1.0" encoding="utf-8"?>
<svg xmlns="http://www.w3.org/2000/svg" xmlns:xlink="http://www.w3.org/1999/xlink" width="600" height="400" viewBox="0 0 2400 1600">
<defs>
  <clipPath id="clip500">
    <rect x="0" y="0" width="2400" height="1600"/>
  </clipPath>
</defs>
<path clip-path="url(#clip500)" d="
M0 1600 L2400 1600 L2400 0 L0 0  Z
  " fill="#ffffff" fill-rule="evenodd" fill-opacity="1"/>
<defs>
  <clipPath id="clip501">
    <rect x="480" y="0" width="1681" height="1600"/>
  </clipPath>
</defs>
<path clip-path="url(#clip500)" d="
M166.205 1486.45 L2352.76 1486.45 L2352.76 123.472 L166.205 123.472  Z
  " fill="#ffffff" fill-rule="evenodd" fill-opacity="1"/>
<defs>
  <clipPath id="clip502">
    <rect x="166" y="123" width="2188" height="1364"/>
  </clipPath>
</defs>
<polyline clip-path="url(#clip502)" style="stroke:#000000; stroke-width:2; stroke-opacity:0.1; fill:none" points="
  228.088,1486.45 228.088,123.472 
  "/>
<polyline clip-path="url(#clip502)" style="stroke:#000000; stroke-width:2; stroke-opacity:0.1; fill:none" points="
  571.886,1486.45 571.886,123.472 
  "/>
<polyline clip-path="url(#clip502)" style="stroke:#000000; stroke-width:2; stroke-opacity:0.1; fill:none" points="
  915.683,1486.45 915.683,123.472 
  "/>
<polyline clip-path="url(#clip502)" style="stroke:#000000; stroke-width:2; stroke-opacity:0.1; fill:none" points="
  1259.48,1486.45 1259.48,123.472 
  "/>
<polyline clip-path="url(#clip502)" style="stroke:#000000; stroke-width:2; stroke-opacity:0.1; fill:none" points="
  1603.28,1486.45 1603.28,123.472 
  "/>
<polyline clip-path="url(#clip502)" style="stroke:#000000; stroke-width:2; stroke-opacity:0.1; fill:none" points="
  1947.08,1486.45 1947.08,123.472 
  "/>
<polyline clip-path="url(#clip502)" style="stroke:#000000; stroke-width:2; stroke-opacity:0.1; fill:none" points="
  2290.87,1486.45 2290.87,123.472 
  "/>
<polyline clip-path="url(#clip502)" style="stroke:#000000; stroke-width:2; stroke-opacity:0.1; fill:none" points="
  166.205,1447.87 2352.76,1447.87 
  "/>
<polyline clip-path="url(#clip502)" style="stroke:#000000; stroke-width:2; stroke-opacity:0.1; fill:none" points="
  166.205,1152.28 2352.76,1152.28 
  "/>
<polyline clip-path="url(#clip502)" style="stroke:#000000; stroke-width:2; stroke-opacity:0.1; fill:none" points="
  166.205,856.689 2352.76,856.689 
  "/>
<polyline clip-path="url(#clip502)" style="stroke:#000000; stroke-width:2; stroke-opacity:0.1; fill:none" points="
  166.205,561.096 2352.76,561.096 
  "/>
<polyline clip-path="url(#clip502)" style="stroke:#000000; stroke-width:2; stroke-opacity:0.1; fill:none" points="
  166.205,265.504 2352.76,265.504 
  "/>
<polyline clip-path="url(#clip500)" style="stroke:#000000; stroke-width:4; stroke-opacity:1; fill:none" points="
  166.205,1486.45 2352.76,1486.45 
  "/>
<polyline clip-path="url(#clip500)" style="stroke:#000000; stroke-width:4; stroke-opacity:1; fill:none" points="
  166.205,1486.45 166.205,123.472 
  "/>
<polyline clip-path="url(#clip500)" style="stroke:#000000; stroke-width:4; stroke-opacity:1; fill:none" points="
  228.088,1486.45 228.088,1470.09 
  "/>
<polyline clip-path="url(#clip500)" style="stroke:#000000; stroke-width:4; stroke-opacity:1; fill:none" points="
  571.886,1486.45 571.886,1470.09 
  "/>
<polyline clip-path="url(#clip500)" style="stroke:#000000; stroke-width:4; stroke-opacity:1; fill:none" points="
  915.683,1486.45 915.683,1470.09 
  "/>
<polyline clip-path="url(#clip500)" style="stroke:#000000; stroke-width:4; stroke-opacity:1; fill:none" points="
  1259.48,1486.45 1259.48,1470.09 
  "/>
<polyline clip-path="url(#clip500)" style="stroke:#000000; stroke-width:4; stroke-opacity:1; fill:none" points="
  1603.28,1486.45 1603.28,1470.09 
  "/>
<polyline clip-path="url(#clip500)" style="stroke:#000000; stroke-width:4; stroke-opacity:1; fill:none" points="
  1947.08,1486.45 1947.08,1470.09 
  "/>
<polyline clip-path="url(#clip500)" style="stroke:#000000; stroke-width:4; stroke-opacity:1; fill:none" points="
  2290.87,1486.45 2290.87,1470.09 
  "/>
<polyline clip-path="url(#clip500)" style="stroke:#000000; stroke-width:4; stroke-opacity:1; fill:none" points="
  166.205,1447.87 192.443,1447.87 
  "/>
<polyline clip-path="url(#clip500)" style="stroke:#000000; stroke-width:4; stroke-opacity:1; fill:none" points="
  166.205,1152.28 192.443,1152.28 
  "/>
<polyline clip-path="url(#clip500)" style="stroke:#000000; stroke-width:4; stroke-opacity:1; fill:none" points="
  166.205,856.689 192.443,856.689 
  "/>
<polyline clip-path="url(#clip500)" style="stroke:#000000; stroke-width:4; stroke-opacity:1; fill:none" points="
  166.205,561.096 192.443,561.096 
  "/>
<polyline clip-path="url(#clip500)" style="stroke:#000000; stroke-width:4; stroke-opacity:1; fill:none" points="
  166.205,265.504 192.443,265.504 
  "/>
<path clip-path="url(#clip500)" d="M 0 0 M209.142 1525.04 L221.618 1525.04 L221.618 1528.83 L209.142 1528.83 L209.142 1525.04 Z" fill="#000000" fill-rule="evenodd" fill-opacity="1" /><path clip-path="url(#clip500)" d="M 0 0 M230.715 1535.98 L247.035 1535.98 L247.035 1539.92 L225.091 1539.92 L225.091 1535.98 Q227.753 1533.23 232.336 1528.6 Q236.942 1523.95 238.123 1522.61 Q240.368 1520.08 241.248 1518.35 Q242.151 1516.59 242.151 1514.9 Q242.151 1512.14 240.206 1510.41 Q238.285 1508.67 235.183 1508.67 Q232.984 1508.67 230.53 1509.43 Q228.1 1510.2 225.322 1511.75 L225.322 1507.03 Q228.146 1505.89 230.6 1505.31 Q233.053 1504.73 235.09 1504.73 Q240.461 1504.73 243.655 1507.42 Q246.85 1510.11 246.85 1514.6 Q246.85 1516.73 246.039 1518.65 Q245.252 1520.54 243.146 1523.14 Q242.567 1523.81 239.465 1527.03 Q236.364 1530.22 230.715 1535.98 Z" fill="#000000" fill-rule="evenodd" fill-opacity="1" /><path clip-path="url(#clip500)" d="M 0 0 M552.754 1525.04 L565.23 1525.04 L565.23 1528.83 L552.754 1528.83 L552.754 1525.04 Z" fill="#000000" fill-rule="evenodd" fill-opacity="1" /><path clip-path="url(#clip500)" d="M 0 0 M571.11 1535.98 L578.749 1535.98 L578.749 1509.62 L570.439 1511.29 L570.439 1507.03 L578.703 1505.36 L583.379 1505.36 L583.379 1535.98 L591.017 1535.98 L591.017 1539.92 L571.11 1539.92 L571.11 1535.98 Z" fill="#000000" fill-rule="evenodd" fill-opacity="1" /><path clip-path="url(#clip500)" d="M 0 0 M915.683 1508.44 Q912.072 1508.44 910.243 1512 Q908.438 1515.55 908.438 1522.67 Q908.438 1529.78 910.243 1533.35 Q912.072 1536.89 915.683 1536.89 Q919.317 1536.89 921.123 1533.35 Q922.951 1529.78 922.951 1522.67 Q922.951 1515.55 921.123 1512 Q919.317 1508.44 915.683 1508.44 M915.683 1504.73 Q921.493 1504.73 924.549 1509.34 Q927.627 1513.92 927.627 1522.67 Q927.627 1531.4 924.549 1536.01 Q921.493 1540.59 915.683 1540.59 Q909.873 1540.59 906.794 1536.01 Q903.739 1531.4 903.739 1522.67 Q903.739 1513.92 906.794 1509.34 Q909.873 1504.73 915.683 1504.73 Z" fill="#000000" fill-rule="evenodd" fill-opacity="1" /><path clip-path="url(#clip500)" d="M 0 0 M1249.86 1535.98 L1257.5 1535.98 L1257.5 1509.62 L1249.19 1511.29 L1249.19 1507.03 L1257.45 1505.36 L1262.13 1505.36 L1262.13 1535.98 L1269.77 1535.98 L1269.77 1539.92 L1249.86 1539.92 L1249.86 1535.98 Z" fill="#000000" fill-rule="evenodd" fill-opacity="1" /><path clip-path="url(#clip500)" d="M 0 0 M1597.93 1535.98 L1614.25 1535.98 L1614.25 1539.92 L1592.31 1539.92 L1592.31 1535.98 Q1594.97 1533.23 1599.55 1528.6 Q1604.16 1523.95 1605.34 1522.61 Q1607.58 1520.08 1608.46 1518.35 Q1609.37 1516.59 1609.37 1514.9 Q1609.37 1512.14 1607.42 1510.41 Q1605.5 1508.67 1602.4 1508.67 Q1600.2 1508.67 1597.75 1509.43 Q1595.31 1510.2 1592.54 1511.75 L1592.54 1507.03 Q1595.36 1505.89 1597.81 1505.31 Q1600.27 1504.73 1602.31 1504.73 Q1607.68 1504.73 1610.87 1507.42 Q1614.06 1510.11 1614.06 1514.6 Q1614.06 1516.73 1613.25 1518.65 Q1612.47 1520.54 1610.36 1523.14 Q1609.78 1523.81 1606.68 1527.03 Q1603.58 1530.22 1597.93 1535.98 Z" fill="#000000" fill-rule="evenodd" fill-opacity="1" /><path clip-path="url(#clip500)" d="M 0 0 M1951.32 1521.29 Q1954.68 1522 1956.55 1524.27 Q1958.45 1526.54 1958.45 1529.87 Q1958.45 1534.99 1954.93 1537.79 Q1951.42 1540.59 1944.93 1540.59 Q1942.76 1540.59 1940.44 1540.15 Q1938.15 1539.73 1935.7 1538.88 L1935.7 1534.36 Q1937.64 1535.5 1939.96 1536.08 Q1942.27 1536.66 1944.79 1536.66 Q1949.19 1536.66 1951.48 1534.92 Q1953.8 1533.18 1953.8 1529.87 Q1953.8 1526.82 1951.65 1525.11 Q1949.52 1523.37 1945.7 1523.37 L1941.67 1523.37 L1941.67 1519.53 L1945.88 1519.53 Q1949.33 1519.53 1951.16 1518.16 Q1952.99 1516.77 1952.99 1514.18 Q1952.99 1511.52 1951.09 1510.11 Q1949.22 1508.67 1945.7 1508.67 Q1943.78 1508.67 1941.58 1509.09 Q1939.38 1509.5 1936.74 1510.38 L1936.74 1506.22 Q1939.4 1505.48 1941.72 1505.11 Q1944.05 1504.73 1946.11 1504.73 Q1951.44 1504.73 1954.54 1507.17 Q1957.64 1509.57 1957.64 1513.69 Q1957.64 1516.56 1956 1518.55 Q1954.36 1520.52 1951.32 1521.29 Z" fill="#000000" fill-rule="evenodd" fill-opacity="1" /><path clip-path="url(#clip500)" d="M 0 0 M2293.88 1509.43 L2282.08 1527.88 L2293.88 1527.88 L2293.88 1509.43 M2292.65 1505.36 L2298.53 1505.36 L2298.53 1527.88 L2303.46 1527.88 L2303.46 1531.77 L2298.53 1531.77 L2298.53 1539.92 L2293.88 1539.92 L2293.88 1531.77 L2278.28 1531.77 L2278.28 1527.26 L2292.65 1505.36 Z" fill="#000000" fill-rule="evenodd" fill-opacity="1" /><path clip-path="url(#clip500)" d="M 0 0 M130.26 1433.67 Q126.649 1433.67 124.82 1437.24 Q123.015 1440.78 123.015 1447.91 Q123.015 1455.01 124.82 1458.58 Q126.649 1462.12 130.26 1462.12 Q133.895 1462.12 135.7 1458.58 Q137.529 1455.01 137.529 1447.91 Q137.529 1440.78 135.7 1437.24 Q133.895 1433.67 130.26 1433.67 M130.26 1429.97 Q136.07 1429.97 139.126 1434.57 Q142.205 1439.16 142.205 1447.91 Q142.205 1456.63 139.126 1461.24 Q136.07 1465.82 130.26 1465.82 Q124.45 1465.82 121.371 1461.24 Q118.316 1456.63 118.316 1447.91 Q118.316 1439.16 121.371 1434.57 Q124.45 1429.97 130.26 1429.97 Z" fill="#000000" fill-rule="evenodd" fill-opacity="1" /><path clip-path="url(#clip500)" d="M 0 0 M71.8578 1165.63 L88.1772 1165.63 L88.1772 1169.56 L66.2328 1169.56 L66.2328 1165.63 Q68.8949 1162.87 73.4782 1158.24 Q78.0846 1153.59 79.2652 1152.25 Q81.5105 1149.72 82.3902 1147.99 Q83.2929 1146.23 83.2929 1144.54 Q83.2929 1141.78 81.3485 1140.05 Q79.4272 1138.31 76.3254 1138.31 Q74.1263 1138.31 71.6726 1139.07 Q69.2421 1139.84 66.4643 1141.39 L66.4643 1136.67 Q69.2884 1135.53 71.7421 1134.95 Q74.1958 1134.38 76.2328 1134.38 Q81.6031 1134.38 84.7976 1137.06 Q87.992 1139.75 87.992 1144.24 Q87.992 1146.37 87.1818 1148.29 Q86.3948 1150.19 84.2883 1152.78 Q83.7096 1153.45 80.6078 1156.67 Q77.5059 1159.86 71.8578 1165.63 Z" fill="#000000" fill-rule="evenodd" fill-opacity="1" /><path clip-path="url(#clip500)" d="M 0 0 M103.247 1138.08 Q99.6354 1138.08 97.8068 1141.64 Q96.0012 1145.19 96.0012 1152.32 Q96.0012 1159.42 97.8068 1162.99 Q99.6354 1166.53 103.247 1166.53 Q106.881 1166.53 108.686 1162.99 Q110.515 1159.42 110.515 1152.32 Q110.515 1145.19 108.686 1141.64 Q106.881 1138.08 103.247 1138.08 M103.247 1134.38 Q109.057 1134.38 112.112 1138.98 Q115.191 1143.57 115.191 1152.32 Q115.191 1161.04 112.112 1165.65 Q109.057 1170.23 103.247 1170.23 Q97.4364 1170.23 94.3577 1165.65 Q91.3022 1161.04 91.3022 1152.32 Q91.3022 1143.57 94.3577 1138.98 Q97.4364 1134.38 103.247 1134.38 Z" fill="#000000" fill-rule="evenodd" fill-opacity="1" /><path clip-path="url(#clip500)" d="M 0 0 M130.26 1138.08 Q126.649 1138.08 124.82 1141.64 Q123.015 1145.19 123.015 1152.32 Q123.015 1159.42 124.82 1162.99 Q126.649 1166.53 130.26 1166.53 Q133.895 1166.53 135.7 1162.99 Q137.529 1159.42 137.529 1152.32 Q137.529 1145.19 135.7 1141.64 Q133.895 1138.08 130.26 1138.08 M130.26 1134.38 Q136.07 1134.38 139.126 1138.98 Q142.205 1143.57 142.205 1152.32 Q142.205 1161.04 139.126 1165.65 Q136.07 1170.23 130.26 1170.23 Q124.45 1170.23 121.371 1165.65 Q118.316 1161.04 118.316 1152.32 Q118.316 1143.57 121.371 1138.98 Q124.45 1134.38 130.26 1134.38 Z" fill="#000000" fill-rule="evenodd" fill-opacity="1" /><path clip-path="url(#clip500)" d="M 0 0 M78.5939 843.483 L66.7884 861.932 L78.5939 861.932 L78.5939 843.483 M77.367 839.409 L83.2466 839.409 L83.2466 861.932 L88.1772 861.932 L88.1772 865.821 L83.2466 865.821 L83.2466 873.969 L78.5939 873.969 L78.5939 865.821 L62.9921 865.821 L62.9921 861.307 L77.367 839.409 Z" fill="#000000" fill-rule="evenodd" fill-opacity="1" /><path clip-path="url(#clip500)" d="M 0 0 M103.247 842.487 Q99.6354 842.487 97.8068 846.052 Q96.0012 849.594 96.0012 856.723 Q96.0012 863.83 97.8068 867.395 Q99.6354 870.936 103.247 870.936 Q106.881 870.936 108.686 867.395 Q110.515 863.83 110.515 856.723 Q110.515 849.594 108.686 846.052 Q106.881 842.487 103.247 842.487 M103.247 838.784 Q109.057 838.784 112.112 843.39 Q115.191 847.973 115.191 856.723 Q115.191 865.45 112.112 870.057 Q109.057 874.64 103.247 874.64 Q97.4364 874.64 94.3577 870.057 Q91.3022 865.45 91.3022 856.723 Q91.3022 847.973 94.3577 843.39 Q97.4364 838.784 103.247 838.784 Z" fill="#000000" fill-rule="evenodd" fill-opacity="1" /><path clip-path="url(#clip500)" d="M 0 0 M130.26 842.487 Q126.649 842.487 124.82 846.052 Q123.015 849.594 123.015 856.723 Q123.015 863.83 124.82 867.395 Q126.649 870.936 130.26 870.936 Q133.895 870.936 135.7 867.395 Q137.529 863.83 137.529 856.723 Q137.529 849.594 135.7 846.052 Q133.895 842.487 130.26 842.487 M130.26 838.784 Q136.07 838.784 139.126 843.39 Q142.205 847.973 142.205 856.723 Q142.205 865.45 139.126 870.057 Q136.07 874.64 130.26 874.64 Q124.45 874.64 121.371 870.057 Q118.316 865.45 118.316 856.723 Q118.316 847.973 121.371 843.39 Q124.45 838.784 130.26 838.784 Z" fill="#000000" fill-rule="evenodd" fill-opacity="1" /><path clip-path="url(#clip500)" d="M 0 0 M76.6495 559.233 Q73.5013 559.233 71.6495 561.386 Q69.8208 563.539 69.8208 567.289 Q69.8208 571.015 71.6495 573.191 Q73.5013 575.344 76.6495 575.344 Q79.7976 575.344 81.6263 573.191 Q83.4781 571.015 83.4781 567.289 Q83.4781 563.539 81.6263 561.386 Q79.7976 559.233 76.6495 559.233 M85.9318 544.58 L85.9318 548.84 Q84.1726 548.006 82.367 547.566 Q80.5846 547.127 78.8254 547.127 Q74.1958 547.127 71.7421 550.252 Q69.3115 553.377 68.9643 559.696 Q70.33 557.682 72.3902 556.617 Q74.4504 555.529 76.9272 555.529 Q82.1355 555.529 85.1448 558.701 Q88.1772 561.849 88.1772 567.289 Q88.1772 572.613 85.029 575.83 Q81.8809 579.048 76.6495 579.048 Q70.6541 579.048 67.4828 574.464 Q64.3116 569.858 64.3116 561.131 Q64.3116 552.937 68.2004 548.076 Q72.0893 543.191 78.6402 543.191 Q80.3994 543.191 82.1818 543.539 Q83.9874 543.886 85.9318 544.58 Z" fill="#000000" fill-rule="evenodd" fill-opacity="1" /><path clip-path="url(#clip500)" d="M 0 0 M103.247 546.895 Q99.6354 546.895 97.8068 550.46 Q96.0012 554.002 96.0012 561.131 Q96.0012 568.238 97.8068 571.802 Q99.6354 575.344 103.247 575.344 Q106.881 575.344 108.686 571.802 Q110.515 568.238 110.515 561.131 Q110.515 554.002 108.686 550.46 Q106.881 546.895 103.247 546.895 M103.247 543.191 Q109.057 543.191 112.112 547.798 Q115.191 552.381 115.191 561.131 Q115.191 569.858 112.112 574.464 Q109.057 579.048 103.247 579.048 Q97.4364 579.048 94.3577 574.464 Q91.3022 569.858 91.3022 561.131 Q91.3022 552.381 94.3577 547.798 Q97.4364 543.191 103.247 543.191 Z" fill="#000000" fill-rule="evenodd" fill-opacity="1" /><path clip-path="url(#clip500)" d="M 0 0 M130.26 546.895 Q126.649 546.895 124.82 550.46 Q123.015 554.002 123.015 561.131 Q123.015 568.238 124.82 571.802 Q126.649 575.344 130.26 575.344 Q133.895 575.344 135.7 571.802 Q137.529 568.238 137.529 561.131 Q137.529 554.002 135.7 550.46 Q133.895 546.895 130.26 546.895 M130.26 543.191 Q136.07 543.191 139.126 547.798 Q142.205 552.381 142.205 561.131 Q142.205 569.858 139.126 574.464 Q136.07 579.048 130.26 579.048 Q124.45 579.048 121.371 574.464 Q118.316 569.858 118.316 561.131 Q118.316 552.381 121.371 547.798 Q124.45 543.191 130.26 543.191 Z" fill="#000000" fill-rule="evenodd" fill-opacity="1" /><path clip-path="url(#clip500)" d="M 0 0 M76.3254 266.372 Q72.9921 266.372 71.0708 268.155 Q69.1726 269.937 69.1726 273.062 Q69.1726 276.187 71.0708 277.969 Q72.9921 279.752 76.3254 279.752 Q79.6587 279.752 81.58 277.969 Q83.5013 276.164 83.5013 273.062 Q83.5013 269.937 81.58 268.155 Q79.6819 266.372 76.3254 266.372 M71.6495 264.382 Q68.6402 263.641 66.9504 261.581 Q65.2838 259.52 65.2838 256.557 Q65.2838 252.414 68.2236 250.007 Q71.1865 247.599 76.3254 247.599 Q81.4874 247.599 84.4272 250.007 Q87.367 252.414 87.367 256.557 Q87.367 259.52 85.6772 261.581 Q84.0105 263.641 81.0244 264.382 Q84.404 265.169 86.279 267.46 Q88.1772 269.752 88.1772 273.062 Q88.1772 278.085 85.0985 280.77 Q82.0429 283.455 76.3254 283.455 Q70.6078 283.455 67.5291 280.77 Q64.4736 278.085 64.4736 273.062 Q64.4736 269.752 66.3717 267.46 Q68.2699 265.169 71.6495 264.382 M69.9365 256.997 Q69.9365 259.682 71.6032 261.187 Q73.293 262.692 76.3254 262.692 Q79.3346 262.692 81.0244 261.187 Q82.7374 259.682 82.7374 256.997 Q82.7374 254.312 81.0244 252.807 Q79.3346 251.303 76.3254 251.303 Q73.293 251.303 71.6032 252.807 Q69.9365 254.312 69.9365 256.997 Z" fill="#000000" fill-rule="evenodd" fill-opacity="1" /><path clip-path="url(#clip500)" d="M 0 0 M103.247 251.303 Q99.6354 251.303 97.8068 254.868 Q96.0012 258.409 96.0012 265.539 Q96.0012 272.645 97.8068 276.21 Q99.6354 279.752 103.247 279.752 Q106.881 279.752 108.686 276.21 Q110.515 272.645 110.515 265.539 Q110.515 258.409 108.686 254.868 Q106.881 251.303 103.247 251.303 M103.247 247.599 Q109.057 247.599 112.112 252.206 Q115.191 256.789 115.191 265.539 Q115.191 274.266 112.112 278.872 Q109.057 283.455 103.247 283.455 Q97.4364 283.455 94.3577 278.872 Q91.3022 274.266 91.3022 265.539 Q91.3022 256.789 94.3577 252.206 Q97.4364 247.599 103.247 247.599 Z" fill="#000000" fill-rule="evenodd" fill-opacity="1" /><path clip-path="url(#clip500)" d="M 0 0 M130.26 251.303 Q126.649 251.303 124.82 254.868 Q123.015 258.409 123.015 265.539 Q123.015 272.645 124.82 276.21 Q126.649 279.752 130.26 279.752 Q133.895 279.752 135.7 276.21 Q137.529 272.645 137.529 265.539 Q137.529 258.409 135.7 254.868 Q133.895 251.303 130.26 251.303 M130.26 247.599 Q136.07 247.599 139.126 252.206 Q142.205 256.789 142.205 265.539 Q142.205 274.266 139.126 278.872 Q136.07 283.455 130.26 283.455 Q124.45 283.455 121.371 278.872 Q118.316 274.266 118.316 265.539 Q118.316 256.789 121.371 252.206 Q124.45 247.599 130.26 247.599 Z" fill="#000000" fill-rule="evenodd" fill-opacity="1" /><path clip-path="url(#clip500)" d="M 0 0 M1183.67 18.8205 L1183.67 65.8515 L1193.55 65.8515 Q1206.07 65.8515 1211.86 60.1802 Q1217.7 54.509 1217.7 42.2752 Q1217.7 30.1225 1211.86 24.4918 Q1206.07 18.8205 1193.55 18.8205 L1183.67 18.8205 M1175.48 12.096 L1192.3 12.096 Q1209.88 12.096 1218.1 19.4281 Q1226.32 26.7198 1226.32 42.2752 Q1226.32 57.9117 1218.06 65.2439 Q1209.8 72.576 1192.3 72.576 L1175.48 72.576 L1175.48 12.096 Z" fill="#000000" fill-rule="evenodd" fill-opacity="1" /><path clip-path="url(#clip500)" d="M 0 0 M1254.76 49.7694 Q1245.73 49.7694 1242.24 51.8354 Q1238.76 53.9013 1238.76 58.8839 Q1238.76 62.8538 1241.35 65.2034 Q1243.99 67.5124 1248.48 67.5124 Q1254.68 67.5124 1258.41 63.1374 Q1262.17 58.7219 1262.17 51.4303 L1262.17 49.7694 L1254.76 49.7694 M1269.63 46.6907 L1269.63 72.576 L1262.17 72.576 L1262.17 65.6895 Q1259.62 69.8214 1255.81 71.8063 Q1252.01 73.7508 1246.5 73.7508 Q1239.53 73.7508 1235.4 69.8619 Q1231.31 65.9325 1231.31 59.3701 Q1231.31 51.7138 1236.41 47.825 Q1241.56 43.9361 1251.72 43.9361 L1262.17 43.9361 L1262.17 43.2069 Q1262.17 38.0623 1258.77 35.2672 Q1255.41 32.4315 1249.29 32.4315 Q1245.4 32.4315 1241.72 33.3632 Q1238.03 34.295 1234.63 36.1584 L1234.63 29.2718 Q1238.72 27.692 1242.57 26.9223 Q1246.42 26.1121 1250.06 26.1121 Q1259.91 26.1121 1264.77 31.2163 Q1269.63 36.3204 1269.63 46.6907 Z" fill="#000000" fill-rule="evenodd" fill-opacity="1" /><path clip-path="url(#clip500)" d="M 0 0 M1284.82 14.324 L1284.82 27.2059 L1300.17 27.2059 L1300.17 32.9987 L1284.82 32.9987 L1284.82 57.6282 Q1284.82 63.1779 1286.32 64.7578 Q1287.86 66.3376 1292.52 66.3376 L1300.17 66.3376 L1300.17 72.576 L1292.52 72.576 Q1283.89 72.576 1280.61 69.3758 Q1277.32 66.1351 1277.32 57.6282 L1277.32 32.9987 L1271.86 32.9987 L1271.86 27.2059 L1277.32 27.2059 L1277.32 14.324 L1284.82 14.324 Z" fill="#000000" fill-rule="evenodd" fill-opacity="1" /><path clip-path="url(#clip500)" d="M 0 0 M1328.61 49.7694 Q1319.58 49.7694 1316.09 51.8354 Q1312.61 53.9013 1312.61 58.8839 Q1312.61 62.8538 1315.2 65.2034 Q1317.83 67.5124 1322.33 67.5124 Q1328.53 67.5124 1332.25 63.1374 Q1336.02 58.7219 1336.02 51.4303 L1336.02 49.7694 L1328.61 49.7694 M1343.48 46.6907 L1343.48 72.576 L1336.02 72.576 L1336.02 65.6895 Q1333.47 69.8214 1329.66 71.8063 Q1325.85 73.7508 1320.35 73.7508 Q1313.38 73.7508 1309.25 69.8619 Q1305.15 65.9325 1305.15 59.3701 Q1305.15 51.7138 1310.26 47.825 Q1315.4 43.9361 1325.57 43.9361 L1336.02 43.9361 L1336.02 43.2069 Q1336.02 38.0623 1332.62 35.2672 Q1329.26 32.4315 1323.14 32.4315 Q1319.25 32.4315 1315.57 33.3632 Q1311.88 34.295 1308.48 36.1584 L1308.48 29.2718 Q1312.57 27.692 1316.42 26.9223 Q1320.26 26.1121 1323.91 26.1121 Q1333.75 26.1121 1338.61 31.2163 Q1343.48 36.3204 1343.48 46.6907 Z" fill="#000000" fill-rule="evenodd" fill-opacity="1" /><polyline clip-path="url(#clip502)" style="stroke:#009af9; stroke-width:4; stroke-opacity:1; fill:none" points="
  228.088,1447.87 228.088,1329.64 262.468,1329.64 296.848,1329.64 296.848,1270.52 331.227,1270.52 331.227,1152.28 365.607,1152.28 365.607,1122.72 
  399.987,1122.72 399.987,1167.06 434.367,1167.06 434.367,930.587 468.746,930.587 468.746,782.791 503.126,782.791 537.506,782.791 537.506,915.807 
  571.886,915.807 571.886,871.468 606.265,871.468 606.265,1004.48 640.645,1004.48 640.645,782.791 675.025,782.791 675.025,974.926 709.405,974.926 709.405,1019.26 
  743.784,1019.26 743.784,1255.74 778.164,1255.74 778.164,1181.84 812.544,1181.84 812.544,1314.86 846.923,1314.86 846.923,1344.42 881.303,1344.42 881.303,1300.08 
  915.683,1300.08 915.683,1403.53 950.063,1403.53 984.442,1403.53 984.442,1447.87 1018.82,1447.87 1053.2,1447.87 1053.2,1403.53 
  1087.58,1403.53 1087.58,1433.09 1121.96,1433.09 1121.96,1403.53 1156.34,1403.53 1156.34,1373.98 1190.72,1373.98 1225.1,1373.98 1225.1,1314.86 
  1259.48,1314.86 1259.48,1285.3 1293.86,1285.3 1293.86,1122.72 1328.24,1122.72 1362.62,1122.72 1362.62,1048.82 1397,1048.82 1397,723.672 
  1431.38,723.672 1431.38,649.774 1465.76,649.774 1465.76,442.86 1500.14,442.86 1500.14,531.537 1534.52,531.537 1534.52,487.198 1568.9,487.198 1568.9,176.827 
  1603.28,176.827 1603.28,162.047 1637.66,162.047 1637.66,457.639 1672.04,457.639 1672.04,280.284 1706.42,280.284 1706.42,738.452 1740.8,738.452 1740.8,768.011 
  1775.18,768.011 1775.18,723.672 1809.56,723.672 1809.56,782.791 1843.94,782.791 1843.94,1019.26 1878.32,1019.26 1878.32,1137.5 1912.7,1137.5 
  1947.08,1137.5 1947.08,1314.86 1981.45,1314.86 1981.45,1403.53 2015.83,1403.53 2015.83,1373.98 2050.21,1373.98 2050.21,1433.09 2084.59,1433.09 2084.59,1447.87 
  2118.97,1447.87 2153.35,1447.87 2187.73,1447.87 2222.11,1447.87 2256.49,1447.87 
  2290.87,1447.87 
  "/>
<path clip-path="url(#clip500)" d="
M1940.93 289.865 L2279.87 289.865 L2279.87 168.905 L1940.93 168.905  Z
  " fill="#ffffff" fill-rule="evenodd" fill-opacity="1"/>
<polyline clip-path="url(#clip500)" style="stroke:#000000; stroke-width:4; stroke-opacity:1; fill:none" points="
  1940.93,289.865 2279.87,289.865 2279.87,168.905 1940.93,168.905 1940.93,289.865 
  "/>
<polyline clip-path="url(#clip500)" style="stroke:#009af9; stroke-width:4; stroke-opacity:1; fill:none" points="
  1965.22,229.385 2110.99,229.385 
  "/>
<path clip-path="url(#clip500)" d="M 0 0 M2139.96 215.947 L2139.96 242.822 L2145.61 242.822 Q2152.76 242.822 2156.07 239.581 Q2159.41 236.341 2159.41 229.35 Q2159.41 222.406 2156.07 219.188 Q2152.76 215.947 2145.61 215.947 L2139.96 215.947 M2135.29 212.105 L2144.89 212.105 Q2154.94 212.105 2159.64 216.294 Q2164.34 220.461 2164.34 229.35 Q2164.34 238.285 2159.61 242.475 Q2154.89 246.665 2144.89 246.665 L2135.29 246.665 L2135.29 212.105 Z" fill="#000000" fill-rule="evenodd" fill-opacity="1" /><path clip-path="url(#clip500)" d="M 0 0 M2180.59 233.632 Q2175.42 233.632 2173.43 234.813 Q2171.44 235.993 2171.44 238.841 Q2171.44 241.109 2172.92 242.452 Q2174.43 243.771 2177 243.771 Q2180.54 243.771 2182.67 241.271 Q2184.82 238.748 2184.82 234.581 L2184.82 233.632 L2180.59 233.632 M2189.08 231.873 L2189.08 246.665 L2184.82 246.665 L2184.82 242.729 Q2183.36 245.091 2181.19 246.225 Q2179.01 247.336 2175.86 247.336 Q2171.88 247.336 2169.52 245.114 Q2167.18 242.868 2167.18 239.118 Q2167.18 234.743 2170.1 232.521 Q2173.04 230.299 2178.85 230.299 L2184.82 230.299 L2184.82 229.882 Q2184.82 226.943 2182.88 225.345 Q2180.96 223.725 2177.46 223.725 Q2175.24 223.725 2173.13 224.257 Q2171.03 224.79 2169.08 225.855 L2169.08 221.919 Q2171.42 221.017 2173.62 220.577 Q2175.82 220.114 2177.9 220.114 Q2183.53 220.114 2186.3 223.031 Q2189.08 225.947 2189.08 231.873 Z" fill="#000000" fill-rule="evenodd" fill-opacity="1" /><path clip-path="url(#clip500)" d="M 0 0 M2197.76 213.378 L2197.76 220.739 L2206.54 220.739 L2206.54 224.049 L2197.76 224.049 L2197.76 238.123 Q2197.76 241.294 2198.62 242.197 Q2199.5 243.1 2202.16 243.1 L2206.54 243.1 L2206.54 246.665 L2202.16 246.665 Q2197.23 246.665 2195.36 244.836 Q2193.48 242.984 2193.48 238.123 L2193.48 224.049 L2190.36 224.049 L2190.36 220.739 L2193.48 220.739 L2193.48 213.378 L2197.76 213.378 Z" fill="#000000" fill-rule="evenodd" fill-opacity="1" /><path clip-path="url(#clip500)" d="M 0 0 M2222.79 233.632 Q2217.62 233.632 2215.63 234.813 Q2213.64 235.993 2213.64 238.841 Q2213.64 241.109 2215.12 242.452 Q2216.63 243.771 2219.2 243.771 Q2222.74 243.771 2224.87 241.271 Q2227.02 238.748 2227.02 234.581 L2227.02 233.632 L2222.79 233.632 M2231.28 231.873 L2231.28 246.665 L2227.02 246.665 L2227.02 242.729 Q2225.56 245.091 2223.39 246.225 Q2221.21 247.336 2218.06 247.336 Q2214.08 247.336 2211.72 245.114 Q2209.38 242.868 2209.38 239.118 Q2209.38 234.743 2212.3 232.521 Q2215.24 230.299 2221.05 230.299 L2227.02 230.299 L2227.02 229.882 Q2227.02 226.943 2225.08 225.345 Q2223.16 223.725 2219.66 223.725 Q2217.44 223.725 2215.33 224.257 Q2213.23 224.79 2211.28 225.855 L2211.28 221.919 Q2213.62 221.017 2215.82 220.577 Q2218.02 220.114 2220.1 220.114 Q2225.73 220.114 2228.5 223.031 Q2231.28 225.947 2231.28 231.873 Z" fill="#000000" fill-rule="evenodd" fill-opacity="1" /></svg>
