<?xml version="1.0" encoding="utf-8"?>
<svg xmlns="http://www.w3.org/2000/svg" xmlns:xlink="http://www.w3.org/1999/xlink" width="600" height="400" viewBox="0 0 2400 1600">
<defs>
  <clipPath id="clip420">
    <rect x="0" y="0" width="2400" height="1600"/>
  </clipPath>
</defs>
<path clip-path="url(#clip420)" d="
M0 1600 L2400 1600 L2400 0 L0 0  Z
  " fill="#ffffff" fill-rule="evenodd" fill-opacity="1"/>
<defs>
  <clipPath id="clip421">
    <rect x="480" y="0" width="1681" height="1600"/>
  </clipPath>
</defs>
<path clip-path="url(#clip420)" d="
M166.205 1486.45 L2352.76 1486.45 L2352.76 123.472 L166.205 123.472  Z
  " fill="#ffffff" fill-rule="evenodd" fill-opacity="1"/>
<defs>
  <clipPath id="clip422">
    <rect x="166" y="123" width="2188" height="1364"/>
  </clipPath>
</defs>
<polyline clip-path="url(#clip422)" style="stroke:#000000; stroke-width:2; stroke-opacity:0.1; fill:none" points="
  228.088,1486.45 228.088,123.472 
  "/>
<polyline clip-path="url(#clip422)" style="stroke:#000000; stroke-width:2; stroke-opacity:0.1; fill:none" points="
  743.784,1486.45 743.784,123.472 
  "/>
<polyline clip-path="url(#clip422)" style="stroke:#000000; stroke-width:2; stroke-opacity:0.1; fill:none" points="
  1259.48,1486.45 1259.48,123.472 
  "/>
<polyline clip-path="url(#clip422)" style="stroke:#000000; stroke-width:2; stroke-opacity:0.1; fill:none" points="
  1775.18,1486.45 1775.18,123.472 
  "/>
<polyline clip-path="url(#clip422)" style="stroke:#000000; stroke-width:2; stroke-opacity:0.1; fill:none" points="
  2290.87,1486.45 2290.87,123.472 
  "/>
<polyline clip-path="url(#clip422)" style="stroke:#000000; stroke-width:2; stroke-opacity:0.1; fill:none" points="
  166.205,1447.87 2352.76,1447.87 
  "/>
<polyline clip-path="url(#clip422)" style="stroke:#000000; stroke-width:2; stroke-opacity:0.1; fill:none" points="
  166.205,1148.84 2352.76,1148.84 
  "/>
<polyline clip-path="url(#clip422)" style="stroke:#000000; stroke-width:2; stroke-opacity:0.1; fill:none" points="
  166.205,849.814 2352.76,849.814 
  "/>
<polyline clip-path="url(#clip422)" style="stroke:#000000; stroke-width:2; stroke-opacity:0.1; fill:none" points="
  166.205,550.785 2352.76,550.785 
  "/>
<polyline clip-path="url(#clip422)" style="stroke:#000000; stroke-width:2; stroke-opacity:0.1; fill:none" points="
  166.205,251.756 2352.76,251.756 
  "/>
<polyline clip-path="url(#clip420)" style="stroke:#000000; stroke-width:4; stroke-opacity:1; fill:none" points="
  166.205,1486.45 2352.76,1486.45 
  "/>
<polyline clip-path="url(#clip420)" style="stroke:#000000; stroke-width:4; stroke-opacity:1; fill:none" points="
  166.205,1486.45 166.205,123.472 
  "/>
<polyline clip-path="url(#clip420)" style="stroke:#000000; stroke-width:4; stroke-opacity:1; fill:none" points="
  228.088,1486.45 228.088,1470.09 
  "/>
<polyline clip-path="url(#clip420)" style="stroke:#000000; stroke-width:4; stroke-opacity:1; fill:none" points="
  743.784,1486.45 743.784,1470.09 
  "/>
<polyline clip-path="url(#clip420)" style="stroke:#000000; stroke-width:4; stroke-opacity:1; fill:none" points="
  1259.48,1486.45 1259.48,1470.09 
  "/>
<polyline clip-path="url(#clip420)" style="stroke:#000000; stroke-width:4; stroke-opacity:1; fill:none" points="
  1775.18,1486.45 1775.18,1470.09 
  "/>
<polyline clip-path="url(#clip420)" style="stroke:#000000; stroke-width:4; stroke-opacity:1; fill:none" points="
  2290.87,1486.45 2290.87,1470.09 
  "/>
<polyline clip-path="url(#clip420)" style="stroke:#000000; stroke-width:4; stroke-opacity:1; fill:none" points="
  166.205,1447.87 192.443,1447.87 
  "/>
<polyline clip-path="url(#clip420)" style="stroke:#000000; stroke-width:4; stroke-opacity:1; fill:none" points="
  166.205,1148.84 192.443,1148.84 
  "/>
<polyline clip-path="url(#clip420)" style="stroke:#000000; stroke-width:4; stroke-opacity:1; fill:none" points="
  166.205,849.814 192.443,849.814 
  "/>
<polyline clip-path="url(#clip420)" style="stroke:#000000; stroke-width:4; stroke-opacity:1; fill:none" points="
  166.205,550.785 192.443,550.785 
  "/>
<polyline clip-path="url(#clip420)" style="stroke:#000000; stroke-width:4; stroke-opacity:1; fill:none" points="
  166.205,251.756 192.443,251.756 
  "/>
<path clip-path="url(#clip420)" d="M 0 0 M208.1 1525.04 L220.577 1525.04 L220.577 1528.83 L208.1 1528.83 L208.1 1525.04 Z" fill="#000000" fill-rule="evenodd" fill-opacity="1" /><path clip-path="url(#clip420)" d="M 0 0 M238.493 1509.43 L226.688 1527.88 L238.493 1527.88 L238.493 1509.43 M237.266 1505.36 L243.146 1505.36 L243.146 1527.88 L248.077 1527.88 L248.077 1531.77 L243.146 1531.77 L243.146 1539.92 L238.493 1539.92 L238.493 1531.77 L222.891 1531.77 L222.891 1527.26 L237.266 1505.36 Z" fill="#000000" fill-rule="evenodd" fill-opacity="1" /><path clip-path="url(#clip420)" d="M 0 0 M724.838 1525.04 L737.314 1525.04 L737.314 1528.83 L724.838 1528.83 L724.838 1525.04 Z" fill="#000000" fill-rule="evenodd" fill-opacity="1" /><path clip-path="url(#clip420)" d="M 0 0 M746.412 1535.98 L762.731 1535.98 L762.731 1539.92 L740.787 1539.92 L740.787 1535.98 Q743.449 1533.23 748.032 1528.6 Q752.638 1523.95 753.819 1522.61 Q756.064 1520.08 756.944 1518.35 Q757.847 1516.59 757.847 1514.9 Q757.847 1512.14 755.902 1510.41 Q753.981 1508.67 750.879 1508.67 Q748.68 1508.67 746.226 1509.43 Q743.796 1510.2 741.018 1511.75 L741.018 1507.03 Q743.842 1505.89 746.296 1505.31 Q748.749 1504.73 750.787 1504.73 Q756.157 1504.73 759.351 1507.42 Q762.546 1510.11 762.546 1514.6 Q762.546 1516.73 761.736 1518.65 Q760.948 1520.54 758.842 1523.14 Q758.263 1523.81 755.161 1527.03 Q752.06 1530.22 746.412 1535.98 Z" fill="#000000" fill-rule="evenodd" fill-opacity="1" /><path clip-path="url(#clip420)" d="M 0 0 M1259.48 1508.44 Q1255.87 1508.44 1254.04 1512 Q1252.23 1515.55 1252.23 1522.67 Q1252.23 1529.78 1254.04 1533.35 Q1255.87 1536.89 1259.48 1536.89 Q1263.11 1536.89 1264.92 1533.35 Q1266.75 1529.78 1266.75 1522.67 Q1266.75 1515.55 1264.92 1512 Q1263.11 1508.44 1259.48 1508.44 M1259.48 1504.73 Q1265.29 1504.73 1268.35 1509.34 Q1271.42 1513.92 1271.42 1522.67 Q1271.42 1531.4 1268.35 1536.01 Q1265.29 1540.59 1259.48 1540.59 Q1253.67 1540.59 1250.59 1536.01 Q1247.54 1531.4 1247.54 1522.67 Q1247.54 1513.92 1250.59 1509.34 Q1253.67 1504.73 1259.48 1504.73 Z" fill="#000000" fill-rule="evenodd" fill-opacity="1" /><path clip-path="url(#clip420)" d="M 0 0 M1769.83 1535.98 L1786.15 1535.98 L1786.15 1539.92 L1764.2 1539.92 L1764.2 1535.98 Q1766.87 1533.23 1771.45 1528.6 Q1776.06 1523.95 1777.24 1522.61 Q1779.48 1520.08 1780.36 1518.35 Q1781.26 1516.59 1781.26 1514.9 Q1781.26 1512.14 1779.32 1510.41 Q1777.4 1508.67 1774.3 1508.67 Q1772.1 1508.67 1769.64 1509.43 Q1767.21 1510.2 1764.44 1511.75 L1764.44 1507.03 Q1767.26 1505.89 1769.71 1505.31 Q1772.17 1504.73 1774.2 1504.73 Q1779.57 1504.73 1782.77 1507.42 Q1785.96 1510.11 1785.96 1514.6 Q1785.96 1516.73 1785.15 1518.65 Q1784.37 1520.54 1782.26 1523.14 Q1781.68 1523.81 1778.58 1527.03 Q1775.48 1530.22 1769.83 1535.98 Z" fill="#000000" fill-rule="evenodd" fill-opacity="1" /><path clip-path="url(#clip420)" d="M 0 0 M2293.88 1509.43 L2282.08 1527.88 L2293.88 1527.88 L2293.88 1509.43 M2292.65 1505.36 L2298.53 1505.36 L2298.53 1527.88 L2303.46 1527.88 L2303.46 1531.77 L2298.53 1531.77 L2298.53 1539.92 L2293.88 1539.92 L2293.88 1531.77 L2278.28 1531.77 L2278.28 1527.26 L2292.65 1505.36 Z" fill="#000000" fill-rule="evenodd" fill-opacity="1" /><path clip-path="url(#clip420)" d="M 0 0 M130.26 1433.67 Q126.649 1433.67 124.82 1437.24 Q123.015 1440.78 123.015 1447.91 Q123.015 1455.01 124.82 1458.58 Q126.649 1462.12 130.26 1462.12 Q133.895 1462.12 135.7 1458.58 Q137.529 1455.01 137.529 1447.91 Q137.529 1440.78 135.7 1437.24 Q133.895 1433.67 130.26 1433.67 M130.26 1429.97 Q136.07 1429.97 139.126 1434.57 Q142.205 1439.16 142.205 1447.91 Q142.205 1456.63 139.126 1461.24 Q136.07 1465.82 130.26 1465.82 Q124.45 1465.82 121.371 1461.24 Q118.316 1456.63 118.316 1447.91 Q118.316 1439.16 121.371 1434.57 Q124.45 1429.97 130.26 1429.97 Z" fill="#000000" fill-rule="evenodd" fill-opacity="1" /><path clip-path="url(#clip420)" d="M 0 0 M71.8578 1162.19 L88.1772 1162.19 L88.1772 1166.12 L66.2328 1166.12 L66.2328 1162.19 Q68.8949 1159.43 73.4782 1154.8 Q78.0846 1150.15 79.2652 1148.81 Q81.5105 1146.29 82.3902 1144.55 Q83.2929 1142.79 83.2929 1141.1 Q83.2929 1138.35 81.3485 1136.61 Q79.4272 1134.87 76.3254 1134.87 Q74.1263 1134.87 71.6726 1135.64 Q69.2421 1136.4 66.4643 1137.95 L66.4643 1133.23 Q69.2884 1132.1 71.7421 1131.52 Q74.1958 1130.94 76.2328 1130.94 Q81.6031 1130.94 84.7976 1133.62 Q87.992 1136.31 87.992 1140.8 Q87.992 1142.93 87.1818 1144.85 Q86.3948 1146.75 84.2883 1149.34 Q83.7096 1150.01 80.6078 1153.23 Q77.5059 1156.42 71.8578 1162.19 Z" fill="#000000" fill-rule="evenodd" fill-opacity="1" /><path clip-path="url(#clip420)" d="M 0 0 M103.247 1134.64 Q99.6354 1134.64 97.8068 1138.21 Q96.0012 1141.75 96.0012 1148.88 Q96.0012 1155.98 97.8068 1159.55 Q99.6354 1163.09 103.247 1163.09 Q106.881 1163.09 108.686 1159.55 Q110.515 1155.98 110.515 1148.88 Q110.515 1141.75 108.686 1138.21 Q106.881 1134.64 103.247 1134.64 M103.247 1130.94 Q109.057 1130.94 112.112 1135.55 Q115.191 1140.13 115.191 1148.88 Q115.191 1157.61 112.112 1162.21 Q109.057 1166.8 103.247 1166.8 Q97.4364 1166.8 94.3577 1162.21 Q91.3022 1157.61 91.3022 1148.88 Q91.3022 1140.13 94.3577 1135.55 Q97.4364 1130.94 103.247 1130.94 Z" fill="#000000" fill-rule="evenodd" fill-opacity="1" /><path clip-path="url(#clip420)" d="M 0 0 M130.26 1134.64 Q126.649 1134.64 124.82 1138.21 Q123.015 1141.75 123.015 1148.88 Q123.015 1155.98 124.82 1159.55 Q126.649 1163.09 130.26 1163.09 Q133.895 1163.09 135.7 1159.55 Q137.529 1155.98 137.529 1148.88 Q137.529 1141.75 135.7 1138.21 Q133.895 1134.64 130.26 1134.64 M130.26 1130.94 Q136.07 1130.94 139.126 1135.55 Q142.205 1140.13 142.205 1148.88 Q142.205 1157.61 139.126 1162.21 Q136.07 1166.8 130.26 1166.8 Q124.45 1166.8 121.371 1162.21 Q118.316 1157.61 118.316 1148.88 Q118.316 1140.13 121.371 1135.55 Q124.45 1130.94 130.26 1130.94 Z" fill="#000000" fill-rule="evenodd" fill-opacity="1" /><path clip-path="url(#clip420)" d="M 0 0 M78.5939 836.608 L66.7884 855.057 L78.5939 855.057 L78.5939 836.608 M77.367 832.534 L83.2466 832.534 L83.2466 855.057 L88.1772 855.057 L88.1772 858.946 L83.2466 858.946 L83.2466 867.094 L78.5939 867.094 L78.5939 858.946 L62.9921 858.946 L62.9921 854.432 L77.367 832.534 Z" fill="#000000" fill-rule="evenodd" fill-opacity="1" /><path clip-path="url(#clip420)" d="M 0 0 M103.247 835.613 Q99.6354 835.613 97.8068 839.178 Q96.0012 842.72 96.0012 849.849 Q96.0012 856.956 97.8068 860.52 Q99.6354 864.062 103.247 864.062 Q106.881 864.062 108.686 860.52 Q110.515 856.956 110.515 849.849 Q110.515 842.72 108.686 839.178 Q106.881 835.613 103.247 835.613 M103.247 831.909 Q109.057 831.909 112.112 836.516 Q115.191 841.099 115.191 849.849 Q115.191 858.576 112.112 863.182 Q109.057 867.766 103.247 867.766 Q97.4364 867.766 94.3577 863.182 Q91.3022 858.576 91.3022 849.849 Q91.3022 841.099 94.3577 836.516 Q97.4364 831.909 103.247 831.909 Z" fill="#000000" fill-rule="evenodd" fill-opacity="1" /><path clip-path="url(#clip420)" d="M 0 0 M130.26 835.613 Q126.649 835.613 124.82 839.178 Q123.015 842.72 123.015 849.849 Q123.015 856.956 124.82 860.52 Q126.649 864.062 130.26 864.062 Q133.895 864.062 135.7 860.52 Q137.529 856.956 137.529 849.849 Q137.529 842.72 135.7 839.178 Q133.895 835.613 130.26 835.613 M130.26 831.909 Q136.07 831.909 139.126 836.516 Q142.205 841.099 142.205 849.849 Q142.205 858.576 139.126 863.182 Q136.07 867.766 130.26 867.766 Q124.45 867.766 121.371 863.182 Q118.316 858.576 118.316 849.849 Q118.316 841.099 121.371 836.516 Q124.45 831.909 130.26 831.909 Z" fill="#000000" fill-rule="evenodd" fill-opacity="1" /><path clip-path="url(#clip420)" d="M 0 0 M76.6495 548.922 Q73.5013 548.922 71.6495 551.074 Q69.8208 553.227 69.8208 556.977 Q69.8208 560.704 71.6495 562.88 Q73.5013 565.033 76.6495 565.033 Q79.7976 565.033 81.6263 562.88 Q83.4781 560.704 83.4781 556.977 Q83.4781 553.227 81.6263 551.074 Q79.7976 548.922 76.6495 548.922 M85.9318 534.269 L85.9318 538.528 Q84.1726 537.695 82.367 537.255 Q80.5846 536.815 78.8254 536.815 Q74.1958 536.815 71.7421 539.94 Q69.3115 543.065 68.9643 549.385 Q70.33 547.371 72.3902 546.306 Q74.4504 545.218 76.9272 545.218 Q82.1355 545.218 85.1448 548.389 Q88.1772 551.537 88.1772 556.977 Q88.1772 562.301 85.029 565.519 Q81.8809 568.736 76.6495 568.736 Q70.6541 568.736 67.4828 564.153 Q64.3116 559.547 64.3116 550.82 Q64.3116 542.625 68.2004 537.764 Q72.0893 532.88 78.6402 532.88 Q80.3994 532.88 82.1818 533.227 Q83.9874 533.575 85.9318 534.269 Z" fill="#000000" fill-rule="evenodd" fill-opacity="1" /><path clip-path="url(#clip420)" d="M 0 0 M103.247 536.584 Q99.6354 536.584 97.8068 540.149 Q96.0012 543.69 96.0012 550.82 Q96.0012 557.926 97.8068 561.491 Q99.6354 565.033 103.247 565.033 Q106.881 565.033 108.686 561.491 Q110.515 557.926 110.515 550.82 Q110.515 543.69 108.686 540.149 Q106.881 536.584 103.247 536.584 M103.247 532.88 Q109.057 532.88 112.112 537.487 Q115.191 542.07 115.191 550.82 Q115.191 559.547 112.112 564.153 Q109.057 568.736 103.247 568.736 Q97.4364 568.736 94.3577 564.153 Q91.3022 559.547 91.3022 550.82 Q91.3022 542.07 94.3577 537.487 Q97.4364 532.88 103.247 532.88 Z" fill="#000000" fill-rule="evenodd" fill-opacity="1" /><path clip-path="url(#clip420)" d="M 0 0 M130.26 536.584 Q126.649 536.584 124.82 540.149 Q123.015 543.69 123.015 550.82 Q123.015 557.926 124.82 561.491 Q126.649 565.033 130.26 565.033 Q133.895 565.033 135.7 561.491 Q137.529 557.926 137.529 550.82 Q137.529 543.69 135.7 540.149 Q133.895 536.584 130.26 536.584 M130.26 532.88 Q136.07 532.88 139.126 537.487 Q142.205 542.07 142.205 550.82 Q142.205 559.547 139.126 564.153 Q136.07 568.736 130.26 568.736 Q124.45 568.736 121.371 564.153 Q118.316 559.547 118.316 550.82 Q118.316 542.07 121.371 537.487 Q124.45 532.88 130.26 532.88 Z" fill="#000000" fill-rule="evenodd" fill-opacity="1" /><path clip-path="url(#clip420)" d="M 0 0 M76.3254 252.624 Q72.9921 252.624 71.0708 254.406 Q69.1726 256.189 69.1726 259.314 Q69.1726 262.439 71.0708 264.221 Q72.9921 266.003 76.3254 266.003 Q79.6587 266.003 81.58 264.221 Q83.5013 262.415 83.5013 259.314 Q83.5013 256.189 81.58 254.406 Q79.6819 252.624 76.3254 252.624 M71.6495 250.633 Q68.6402 249.892 66.9504 247.832 Q65.2838 245.772 65.2838 242.809 Q65.2838 238.666 68.2236 236.258 Q71.1865 233.851 76.3254 233.851 Q81.4874 233.851 84.4272 236.258 Q87.367 238.666 87.367 242.809 Q87.367 245.772 85.6772 247.832 Q84.0105 249.892 81.0244 250.633 Q84.404 251.42 86.279 253.712 Q88.1772 256.003 88.1772 259.314 Q88.1772 264.337 85.0985 267.022 Q82.0429 269.707 76.3254 269.707 Q70.6078 269.707 67.5291 267.022 Q64.4736 264.337 64.4736 259.314 Q64.4736 256.003 66.3717 253.712 Q68.2699 251.42 71.6495 250.633 M69.9365 243.249 Q69.9365 245.934 71.6032 247.439 Q73.293 248.943 76.3254 248.943 Q79.3346 248.943 81.0244 247.439 Q82.7374 245.934 82.7374 243.249 Q82.7374 240.564 81.0244 239.059 Q79.3346 237.554 76.3254 237.554 Q73.293 237.554 71.6032 239.059 Q69.9365 240.564 69.9365 243.249 Z" fill="#000000" fill-rule="evenodd" fill-opacity="1" /><path clip-path="url(#clip420)" d="M 0 0 M103.247 237.554 Q99.6354 237.554 97.8068 241.119 Q96.0012 244.661 96.0012 251.79 Q96.0012 258.897 97.8068 262.462 Q99.6354 266.003 103.247 266.003 Q106.881 266.003 108.686 262.462 Q110.515 258.897 110.515 251.79 Q110.515 244.661 108.686 241.119 Q106.881 237.554 103.247 237.554 M103.247 233.851 Q109.057 233.851 112.112 238.457 Q115.191 243.04 115.191 251.79 Q115.191 260.517 112.112 265.124 Q109.057 269.707 103.247 269.707 Q97.4364 269.707 94.3577 265.124 Q91.3022 260.517 91.3022 251.79 Q91.3022 243.04 94.3577 238.457 Q97.4364 233.851 103.247 233.851 Z" fill="#000000" fill-rule="evenodd" fill-opacity="1" /><path clip-path="url(#clip420)" d="M 0 0 M130.26 237.554 Q126.649 237.554 124.82 241.119 Q123.015 244.661 123.015 251.79 Q123.015 258.897 124.82 262.462 Q126.649 266.003 130.26 266.003 Q133.895 266.003 135.7 262.462 Q137.529 258.897 137.529 251.79 Q137.529 244.661 135.7 241.119 Q133.895 237.554 130.26 237.554 M130.26 233.851 Q136.07 233.851 139.126 238.457 Q142.205 243.04 142.205 251.79 Q142.205 260.517 139.126 265.124 Q136.07 269.707 130.26 269.707 Q124.45 269.707 121.371 265.124 Q118.316 260.517 118.316 251.79 Q118.316 243.04 121.371 238.457 Q124.45 233.851 130.26 233.851 Z" fill="#000000" fill-rule="evenodd" fill-opacity="1" /><path clip-path="url(#clip420)" d="M 0 0 M697.458 18.8205 L697.458 65.8515 L707.342 65.8515 Q719.859 65.8515 725.652 60.1802 Q731.485 54.509 731.485 42.2752 Q731.485 30.1225 725.652 24.4918 Q719.859 18.8205 707.342 18.8205 L697.458 18.8205 M689.275 12.096 L706.086 12.096 Q723.667 12.096 731.891 19.4281 Q740.114 26.7198 740.114 42.2752 Q740.114 57.9117 731.85 65.2439 Q723.586 72.576 706.086 72.576 L689.275 72.576 L689.275 12.096 Z" fill="#000000" fill-rule="evenodd" fill-opacity="1" /><path clip-path="url(#clip420)" d="M 0 0 M768.551 49.7694 Q759.518 49.7694 756.034 51.8354 Q752.55 53.9013 752.55 58.8839 Q752.55 62.8538 755.143 65.2034 Q757.776 67.5124 762.272 67.5124 Q768.47 67.5124 772.197 63.1374 Q775.964 58.7219 775.964 51.4303 L775.964 49.7694 L768.551 49.7694 M783.418 46.6907 L783.418 72.576 L775.964 72.576 L775.964 65.6895 Q773.412 69.8214 769.604 71.8063 Q765.797 73.7508 760.287 73.7508 Q753.32 73.7508 749.188 69.8619 Q745.096 65.9325 745.096 59.3701 Q745.096 51.7138 750.201 47.825 Q755.345 43.9361 765.513 43.9361 L775.964 43.9361 L775.964 43.2069 Q775.964 38.0623 772.562 35.2672 Q769.199 32.4315 763.082 32.4315 Q759.194 32.4315 755.507 33.3632 Q751.821 34.295 748.418 36.1584 L748.418 29.2718 Q752.51 27.692 756.358 26.9223 Q760.206 26.1121 763.852 26.1121 Q773.696 26.1121 778.557 31.2163 Q783.418 36.3204 783.418 46.6907 Z" fill="#000000" fill-rule="evenodd" fill-opacity="1" /><path clip-path="url(#clip420)" d="M 0 0 M798.609 14.324 L798.609 27.2059 L813.962 27.2059 L813.962 32.9987 L798.609 32.9987 L798.609 57.6282 Q798.609 63.1779 800.108 64.7578 Q801.647 66.3376 806.306 66.3376 L813.962 66.3376 L813.962 72.576 L806.306 72.576 Q797.677 72.576 794.396 69.3758 Q791.115 66.1351 791.115 57.6282 L791.115 32.9987 L785.646 32.9987 L785.646 27.2059 L791.115 27.2059 L791.115 14.324 L798.609 14.324 Z" fill="#000000" fill-rule="evenodd" fill-opacity="1" /><path clip-path="url(#clip420)" d="M 0 0 M842.399 49.7694 Q833.366 49.7694 829.882 51.8354 Q826.398 53.9013 826.398 58.8839 Q826.398 62.8538 828.991 65.2034 Q831.624 67.5124 836.12 67.5124 Q842.318 67.5124 846.045 63.1374 Q849.812 58.7219 849.812 51.4303 L849.812 49.7694 L842.399 49.7694 M857.266 46.6907 L857.266 72.576 L849.812 72.576 L849.812 65.6895 Q847.26 69.8214 843.452 71.8063 Q839.645 73.7508 834.135 73.7508 Q827.168 73.7508 823.036 69.8619 Q818.944 65.9325 818.944 59.3701 Q818.944 51.7138 824.049 47.825 Q829.193 43.9361 839.361 43.9361 L849.812 43.9361 L849.812 43.2069 Q849.812 38.0623 846.41 35.2672 Q843.047 32.4315 836.93 32.4315 Q833.042 32.4315 829.355 33.3632 Q825.669 34.295 822.266 36.1584 L822.266 29.2718 Q826.358 27.692 830.206 26.9223 Q834.054 26.1121 837.7 26.1121 Q847.544 26.1121 852.405 31.2163 Q857.266 36.3204 857.266 46.6907 Z" fill="#000000" fill-rule="evenodd" fill-opacity="1" /><path clip-path="url(#clip420)" d="M 0 0 M912.075 49.7694 Q903.041 49.7694 899.557 51.8354 Q896.074 53.9013 896.074 58.8839 Q896.074 62.8538 898.666 65.2034 Q901.299 67.5124 905.796 67.5124 Q911.994 67.5124 915.721 63.1374 Q919.488 58.7219 919.488 51.4303 L919.488 49.7694 L912.075 49.7694 M926.942 46.6907 L926.942 72.576 L919.488 72.576 L919.488 65.6895 Q916.936 69.8214 913.128 71.8063 Q909.32 73.7508 903.811 73.7508 Q896.843 73.7508 892.711 69.8619 Q888.62 65.9325 888.62 59.3701 Q888.62 51.7138 893.724 47.825 Q898.869 43.9361 909.037 43.9361 L919.488 43.9361 L919.488 43.2069 Q919.488 38.0623 916.085 35.2672 Q912.723 32.4315 906.606 32.4315 Q902.717 32.4315 899.031 33.3632 Q895.345 34.295 891.942 36.1584 L891.942 29.2718 Q896.033 27.692 899.882 26.9223 Q903.73 26.1121 907.376 26.1121 Q917.219 26.1121 922.08 31.2163 Q926.942 36.3204 926.942 46.6907 Z" fill="#000000" fill-rule="evenodd" fill-opacity="1" /><path clip-path="url(#clip420)" d="M 0 0 M972.474 45.1919 L972.474 72.576 L965.02 72.576 L965.02 45.4349 Q965.02 38.994 962.508 35.7938 Q959.997 32.5936 954.974 32.5936 Q948.938 32.5936 945.454 36.4419 Q941.97 40.2903 941.97 46.9338 L941.97 72.576 L934.476 72.576 L934.476 27.2059 L941.97 27.2059 L941.97 34.2544 Q944.644 30.163 948.249 28.1376 Q951.895 26.1121 956.635 26.1121 Q964.453 26.1121 968.463 30.9732 Q972.474 35.7938 972.474 45.1919 Z" fill="#000000" fill-rule="evenodd" fill-opacity="1" /><path clip-path="url(#clip420)" d="M 0 0 M1010.15 34.0924 L1010.15 9.54393 L1017.6 9.54393 L1017.6 72.576 L1010.15 72.576 L1010.15 65.7705 Q1007.8 69.8214 1004.19 71.8063 Q1000.63 73.7508 995.604 73.7508 Q987.381 73.7508 982.196 67.1883 Q977.051 60.6258 977.051 49.9314 Q977.051 39.2371 982.196 32.6746 Q987.381 26.1121 995.604 26.1121 Q1000.63 26.1121 1004.19 28.0971 Q1007.8 30.0415 1010.15 34.0924 M984.748 49.9314 Q984.748 58.1548 988.11 62.8538 Q991.513 67.5124 997.427 67.5124 Q1003.34 67.5124 1006.74 62.8538 Q1010.15 58.1548 1010.15 49.9314 Q1010.15 41.7081 1006.74 37.0496 Q1003.34 32.3505 997.427 32.3505 Q991.513 32.3505 988.11 37.0496 Q984.748 41.7081 984.748 49.9314 Z" fill="#000000" fill-rule="evenodd" fill-opacity="1" /><path clip-path="url(#clip420)" d="M 0 0 M1043.73 12.096 L1094.89 12.096 L1094.89 18.9825 L1073.42 18.9825 L1073.42 72.576 L1065.2 72.576 L1065.2 18.9825 L1043.73 18.9825 L1043.73 12.096 Z" fill="#000000" fill-rule="evenodd" fill-opacity="1" /><path clip-path="url(#clip420)" d="M 0 0 M1116.81 34.1734 Q1115.55 33.4443 1114.05 33.1202 Q1112.59 32.7556 1110.81 32.7556 Q1104.49 32.7556 1101.09 36.8875 Q1097.73 40.9789 1097.73 48.6757 L1097.73 72.576 L1090.23 72.576 L1090.23 27.2059 L1097.73 27.2059 L1097.73 34.2544 Q1100.08 30.1225 1103.84 28.1376 Q1107.61 26.1121 1113 26.1121 Q1113.77 26.1121 1114.7 26.2337 Q1115.63 26.3147 1116.77 26.5172 L1116.81 34.1734 Z" fill="#000000" fill-rule="evenodd" fill-opacity="1" /><path clip-path="url(#clip420)" d="M 0 0 M1123.86 54.671 L1123.86 27.2059 L1131.31 27.2059 L1131.31 54.3874 Q1131.31 60.8284 1133.82 64.0691 Q1136.33 67.2693 1141.36 67.2693 Q1147.39 67.2693 1150.88 63.421 Q1154.4 59.5726 1154.4 52.9291 L1154.4 27.2059 L1161.85 27.2059 L1161.85 72.576 L1154.4 72.576 L1154.4 65.6084 Q1151.69 69.7404 1148.08 71.7658 Q1144.52 73.7508 1139.78 73.7508 Q1131.96 73.7508 1127.91 68.8897 Q1123.86 64.0286 1123.86 54.671 M1142.61 26.1121 L1142.61 26.1121 Z" fill="#000000" fill-rule="evenodd" fill-opacity="1" /><path clip-path="url(#clip420)" d="M 0 0 M1208.48 48.0275 L1208.48 51.6733 L1174.21 51.6733 Q1174.69 59.3701 1178.83 63.421 Q1183 67.4314 1190.41 67.4314 Q1194.71 67.4314 1198.72 66.3781 Q1202.77 65.3249 1206.74 63.2184 L1206.74 70.267 Q1202.73 71.9684 1198.51 72.8596 Q1194.3 73.7508 1189.97 73.7508 Q1179.11 73.7508 1172.75 67.4314 Q1166.43 61.1119 1166.43 50.3365 Q1166.43 39.1965 1172.43 32.6746 Q1178.46 26.1121 1188.67 26.1121 Q1197.83 26.1121 1203.13 32.0264 Q1208.48 37.9003 1208.48 48.0275 M1201.03 45.84 Q1200.94 39.7232 1197.58 36.0774 Q1194.26 32.4315 1188.75 32.4315 Q1182.51 32.4315 1178.75 35.9558 Q1175.02 39.4801 1174.45 45.8805 L1201.03 45.84 Z" fill="#000000" fill-rule="evenodd" fill-opacity="1" /><path clip-path="url(#clip420)" d="M 0 0 M1279.25 14.0809 L1279.25 22.0612 Q1274.59 19.8332 1270.46 18.7395 Q1266.33 17.6457 1262.48 17.6457 Q1255.79 17.6457 1252.15 20.2383 Q1248.54 22.8309 1248.54 27.611 Q1248.54 31.6214 1250.93 33.6873 Q1253.36 35.7128 1260.09 36.9686 L1265.03 37.9813 Q1274.19 39.7232 1278.52 44.1387 Q1282.89 48.5136 1282.89 55.8863 Q1282.89 64.6767 1276.98 69.2137 Q1271.11 73.7508 1259.72 73.7508 Q1255.43 73.7508 1250.57 72.7785 Q1245.75 71.8063 1240.56 69.9024 L1240.56 61.4765 Q1245.55 64.2716 1250.33 65.6895 Q1255.11 67.1073 1259.72 67.1073 Q1266.73 67.1073 1270.54 64.3527 Q1274.35 61.598 1274.35 56.4939 Q1274.35 52.0379 1271.59 49.5264 Q1268.88 47.0148 1262.64 45.759 L1257.66 44.7868 Q1248.5 42.9639 1244.41 39.075 Q1240.32 35.1862 1240.32 28.2591 Q1240.32 20.2383 1245.95 15.6203 Q1251.62 11.0023 1261.55 11.0023 Q1265.8 11.0023 1270.22 11.7719 Q1274.63 12.5416 1279.25 14.0809 Z" fill="#000000" fill-rule="evenodd" fill-opacity="1" /><path clip-path="url(#clip420)" d="M 0 0 M1298.09 14.324 L1298.09 27.2059 L1313.44 27.2059 L1313.44 32.9987 L1298.09 32.9987 L1298.09 57.6282 Q1298.09 63.1779 1299.58 64.7578 Q1301.12 66.3376 1305.78 66.3376 L1313.44 66.3376 L1313.44 72.576 L1305.78 72.576 Q1297.15 72.576 1293.87 69.3758 Q1290.59 66.1351 1290.59 57.6282 L1290.59 32.9987 L1285.12 32.9987 L1285.12 27.2059 L1290.59 27.2059 L1290.59 14.324 L1298.09 14.324 Z" fill="#000000" fill-rule="evenodd" fill-opacity="1" /><path clip-path="url(#clip420)" d="M 0 0 M1341.88 49.7694 Q1332.84 49.7694 1329.36 51.8354 Q1325.87 53.9013 1325.87 58.8839 Q1325.87 62.8538 1328.47 65.2034 Q1331.1 67.5124 1335.6 67.5124 Q1341.79 67.5124 1345.52 63.1374 Q1349.29 58.7219 1349.29 51.4303 L1349.29 49.7694 L1341.88 49.7694 M1356.74 46.6907 L1356.74 72.576 L1349.29 72.576 L1349.29 65.6895 Q1346.74 69.8214 1342.93 71.8063 Q1339.12 73.7508 1333.61 73.7508 Q1326.64 73.7508 1322.51 69.8619 Q1318.42 65.9325 1318.42 59.3701 Q1318.42 51.7138 1323.53 47.825 Q1328.67 43.9361 1338.84 43.9361 L1349.29 43.9361 L1349.29 43.2069 Q1349.29 38.0623 1345.89 35.2672 Q1342.52 32.4315 1336.41 32.4315 Q1332.52 32.4315 1328.83 33.3632 Q1325.15 34.295 1321.74 36.1584 L1321.74 29.2718 Q1325.83 27.692 1329.68 26.9223 Q1333.53 26.1121 1337.18 26.1121 Q1347.02 26.1121 1351.88 31.2163 Q1356.74 36.3204 1356.74 46.6907 Z" fill="#000000" fill-rule="evenodd" fill-opacity="1" /><path clip-path="url(#clip420)" d="M 0 0 M1371.93 14.324 L1371.93 27.2059 L1387.29 27.2059 L1387.29 32.9987 L1371.93 32.9987 L1371.93 57.6282 Q1371.93 63.1779 1373.43 64.7578 Q1374.97 66.3376 1379.63 66.3376 L1387.29 66.3376 L1387.29 72.576 L1379.63 72.576 Q1371 72.576 1367.72 69.3758 Q1364.44 66.1351 1364.44 57.6282 L1364.44 32.9987 L1358.97 32.9987 L1358.97 27.2059 L1364.44 27.2059 L1364.44 14.324 L1371.93 14.324 Z" fill="#000000" fill-rule="evenodd" fill-opacity="1" /><path clip-path="url(#clip420)" d="M 0 0 M1395.1 27.2059 L1402.56 27.2059 L1402.56 72.576 L1395.1 72.576 L1395.1 27.2059 M1395.1 9.54393 L1402.56 9.54393 L1402.56 18.9825 L1395.1 18.9825 L1395.1 9.54393 Z" fill="#000000" fill-rule="evenodd" fill-opacity="1" /><path clip-path="url(#clip420)" d="M 0 0 M1439.3 28.5427 L1439.3 35.5912 Q1436.14 33.9709 1432.74 33.1607 Q1429.33 32.3505 1425.69 32.3505 Q1420.14 32.3505 1417.34 34.0519 Q1414.59 35.7533 1414.59 39.156 Q1414.59 41.7486 1416.57 43.2475 Q1418.56 44.7058 1424.55 46.0426 L1427.11 46.6097 Q1435.05 48.3111 1438.37 51.4303 Q1441.73 54.509 1441.73 60.0587 Q1441.73 66.3781 1436.71 70.0644 Q1431.72 73.7508 1422.97 73.7508 Q1419.33 73.7508 1415.36 73.0216 Q1411.43 72.3329 1407.05 70.9151 L1407.05 63.2184 Q1411.19 65.3654 1415.2 66.4591 Q1419.21 67.5124 1423.14 67.5124 Q1428.4 67.5124 1431.24 65.73 Q1434.07 63.9071 1434.07 60.6258 Q1434.07 57.5877 1432.01 55.9673 Q1429.98 54.3469 1423.06 52.8481 L1420.46 52.2405 Q1413.54 50.7821 1410.46 47.7845 Q1407.38 44.7463 1407.38 39.4801 Q1407.38 33.0797 1411.92 29.5959 Q1416.45 26.1121 1424.8 26.1121 Q1428.93 26.1121 1432.58 26.7198 Q1436.22 27.3274 1439.3 28.5427 Z" fill="#000000" fill-rule="evenodd" fill-opacity="1" /><path clip-path="url(#clip420)" d="M 0 0 M1456.92 14.324 L1456.92 27.2059 L1472.27 27.2059 L1472.27 32.9987 L1456.92 32.9987 L1456.92 57.6282 Q1456.92 63.1779 1458.42 64.7578 Q1459.96 66.3376 1464.62 66.3376 L1472.27 66.3376 L1472.27 72.576 L1464.62 72.576 Q1455.99 72.576 1452.71 69.3758 Q1449.43 66.1351 1449.43 57.6282 L1449.43 32.9987 L1443.96 32.9987 L1443.96 27.2059 L1449.43 27.2059 L1449.43 14.324 L1456.92 14.324 Z" fill="#000000" fill-rule="evenodd" fill-opacity="1" /><path clip-path="url(#clip420)" d="M 0 0 M1480.09 27.2059 L1487.55 27.2059 L1487.55 72.576 L1480.09 72.576 L1480.09 27.2059 M1480.09 9.54393 L1487.55 9.54393 L1487.55 18.9825 L1480.09 18.9825 L1480.09 9.54393 Z" fill="#000000" fill-rule="evenodd" fill-opacity="1" /><path clip-path="url(#clip420)" d="M 0 0 M1528.01 28.9478 L1528.01 35.9153 Q1524.86 34.1734 1521.65 33.3227 Q1518.5 32.4315 1515.25 32.4315 Q1508 32.4315 1503.99 37.0496 Q1499.98 41.6271 1499.98 49.9314 Q1499.98 58.2358 1503.99 62.8538 Q1508 67.4314 1515.25 67.4314 Q1518.5 67.4314 1521.65 66.5807 Q1524.86 65.6895 1528.01 63.9476 L1528.01 70.8341 Q1524.9 72.2924 1521.53 73.0216 Q1518.21 73.7508 1514.44 73.7508 Q1504.2 73.7508 1498.16 67.3098 Q1492.12 60.8689 1492.12 49.9314 Q1492.12 38.832 1498.2 32.472 Q1504.32 26.1121 1514.93 26.1121 Q1518.37 26.1121 1521.65 26.8413 Q1524.94 27.5299 1528.01 28.9478 Z" fill="#000000" fill-rule="evenodd" fill-opacity="1" /><path clip-path="url(#clip420)" d="M 0 0 M1556.45 49.7694 Q1547.42 49.7694 1543.93 51.8354 Q1540.45 53.9013 1540.45 58.8839 Q1540.45 62.8538 1543.04 65.2034 Q1545.68 67.5124 1550.17 67.5124 Q1556.37 67.5124 1560.1 63.1374 Q1563.87 58.7219 1563.87 51.4303 L1563.87 49.7694 L1556.45 49.7694 M1571.32 46.6907 L1571.32 72.576 L1563.87 72.576 L1563.87 65.6895 Q1561.31 69.8214 1557.51 71.8063 Q1553.7 73.7508 1548.19 73.7508 Q1541.22 73.7508 1537.09 69.8619 Q1533 65.9325 1533 59.3701 Q1533 51.7138 1538.1 47.825 Q1543.25 43.9361 1553.41 43.9361 L1563.87 43.9361 L1563.87 43.2069 Q1563.87 38.0623 1560.46 35.2672 Q1557.1 32.4315 1550.98 32.4315 Q1547.09 32.4315 1543.41 33.3632 Q1539.72 34.295 1536.32 36.1584 L1536.32 29.2718 Q1540.41 27.692 1544.26 26.9223 Q1548.11 26.1121 1551.75 26.1121 Q1561.6 26.1121 1566.46 31.2163 Q1571.32 36.3204 1571.32 46.6907 Z" fill="#000000" fill-rule="evenodd" fill-opacity="1" /><path clip-path="url(#clip420)" d="M 0 0 M1579.14 9.54393 L1586.59 9.54393 L1586.59 72.576 L1579.14 72.576 L1579.14 9.54393 Z" fill="#000000" fill-rule="evenodd" fill-opacity="1" /><path clip-path="url(#clip420)" d="M 0 0 M1621.1 12.096 L1633.3 12.096 L1648.73 53.2532 L1664.25 12.096 L1676.44 12.096 L1676.44 72.576 L1668.46 72.576 L1668.46 19.4686 L1652.86 60.9499 L1644.64 60.9499 L1629.04 19.4686 L1629.04 72.576 L1621.1 72.576 L1621.1 12.096 Z" fill="#000000" fill-rule="evenodd" fill-opacity="1" /><path clip-path="url(#clip420)" d="M 0 0 M1701.84 32.4315 Q1695.84 32.4315 1692.36 37.1306 Q1688.88 41.7891 1688.88 49.9314 Q1688.88 58.0738 1692.32 62.7728 Q1695.8 67.4314 1701.84 67.4314 Q1707.79 67.4314 1711.28 62.7323 Q1714.76 58.0333 1714.76 49.9314 Q1714.76 41.8701 1711.28 37.1711 Q1707.79 32.4315 1701.84 32.4315 M1701.84 26.1121 Q1711.56 26.1121 1717.11 32.4315 Q1722.66 38.7509 1722.66 49.9314 Q1722.66 61.0714 1717.11 67.4314 Q1711.56 73.7508 1701.84 73.7508 Q1692.08 73.7508 1686.53 67.4314 Q1681.02 61.0714 1681.02 49.9314 Q1681.02 38.7509 1686.53 32.4315 Q1692.08 26.1121 1701.84 26.1121 Z" fill="#000000" fill-rule="evenodd" fill-opacity="1" /><path clip-path="url(#clip420)" d="M 0 0 M1760.33 34.0924 L1760.33 9.54393 L1767.79 9.54393 L1767.79 72.576 L1760.33 72.576 L1760.33 65.7705 Q1757.98 69.8214 1754.38 71.8063 Q1750.81 73.7508 1745.79 73.7508 Q1737.57 73.7508 1732.38 67.1883 Q1727.24 60.6258 1727.24 49.9314 Q1727.24 39.2371 1732.38 32.6746 Q1737.57 26.1121 1745.79 26.1121 Q1750.81 26.1121 1754.38 28.0971 Q1757.98 30.0415 1760.33 34.0924 M1734.93 49.9314 Q1734.93 58.1548 1738.3 62.8538 Q1741.7 67.5124 1747.61 67.5124 Q1753.53 67.5124 1756.93 62.8538 Q1760.33 58.1548 1760.33 49.9314 Q1760.33 41.7081 1756.93 37.0496 Q1753.53 32.3505 1747.61 32.3505 Q1741.7 32.3505 1738.3 37.0496 Q1734.93 41.7081 1734.93 49.9314 Z" fill="#000000" fill-rule="evenodd" fill-opacity="1" /><path clip-path="url(#clip420)" d="M 0 0 M1814.41 48.0275 L1814.41 51.6733 L1780.14 51.6733 Q1780.63 59.3701 1784.76 63.421 Q1788.93 67.4314 1796.35 67.4314 Q1800.64 67.4314 1804.65 66.3781 Q1808.7 65.3249 1812.67 63.2184 L1812.67 70.267 Q1808.66 71.9684 1804.45 72.8596 Q1800.24 73.7508 1795.9 73.7508 Q1785.04 73.7508 1778.68 67.4314 Q1772.37 61.1119 1772.37 50.3365 Q1772.37 39.1965 1778.36 32.6746 Q1784.4 26.1121 1794.6 26.1121 Q1803.76 26.1121 1809.07 32.0264 Q1814.41 37.9003 1814.41 48.0275 M1806.96 45.84 Q1806.88 39.7232 1803.52 36.0774 Q1800.19 32.4315 1794.69 32.4315 Q1788.45 32.4315 1784.68 35.9558 Q1780.95 39.4801 1780.39 45.8805 L1806.96 45.84 Z" fill="#000000" fill-rule="evenodd" fill-opacity="1" /><path clip-path="url(#clip420)" d="M 0 0 M1822.23 9.54393 L1829.69 9.54393 L1829.69 72.576 L1822.23 72.576 L1822.23 9.54393 Z" fill="#000000" fill-rule="evenodd" fill-opacity="1" /><polyline clip-path="url(#clip422)" style="stroke:#009af9; stroke-width:4; stroke-opacity:1; fill:none" points="
  743.784,1447.87 743.784,1283.41 769.569,1283.41 769.569,1298.36 795.354,1298.36 795.354,1178.75 821.139,1178.75 821.139,1193.7 846.923,1193.7 846.923,1103.99 
  872.708,1103.99 872.708,1059.13 898.493,1059.13 898.493,984.378 924.278,984.378 924.278,879.717 950.063,879.717 950.063,760.106 975.847,760.106 975.847,939.523 
  1001.63,939.523 1001.63,834.863 1027.42,834.863 1027.42,745.154 1053.2,745.154 1053.2,984.378 1078.99,984.378 1078.99,879.717 1104.77,879.717 1104.77,1193.7 
  1130.56,1193.7 1156.34,1193.7 1156.34,1268.46 1182.13,1268.46 1182.13,1253.5 1207.91,1253.5 1207.91,1313.31 1233.7,1313.31 1233.7,1403.02 
  1259.48,1403.02 1259.48,1388.07 1285.27,1388.07 1285.27,1432.92 1311.05,1432.92 1336.83,1432.92 1336.83,1417.97 1362.62,1417.97 1362.62,1432.92 
  1388.4,1432.92 1388.4,1388.07 1414.19,1388.07 1414.19,1403.02 1439.97,1403.02 1465.76,1403.02 1465.76,1358.16 1491.54,1358.16 1491.54,1343.21 
  1517.33,1343.21 1517.33,1178.75 1543.11,1178.75 1543.11,1118.94 1568.9,1118.94 1594.68,1118.94 1594.68,954.475 1620.47,954.475 1620.47,775.057 
  1646.25,775.057 1646.25,685.348 1672.04,685.348 1672.04,461.076 1697.82,461.076 1697.82,505.931 1723.61,505.931 1723.61,162.047 1749.39,162.047 1749.39,296.61 
  1775.18,296.61 1775.18,326.513 1800.96,326.513 1800.96,371.367 1826.75,371.367 1852.53,371.367 1852.53,550.785 1878.32,550.785 1878.32,715.251 
  1904.1,715.251 1904.1,775.057 1929.89,775.057 1929.89,999.329 1955.67,999.329 1955.67,924.572 1981.45,924.572 1981.45,1103.99 2007.24,1103.99 2007.24,1298.36 
  2033.02,1298.36 2033.02,1313.31 2058.81,1313.31 2058.81,1343.21 2084.59,1343.21 2084.59,1388.07 2110.38,1388.07 2110.38,1403.02 2136.16,1403.02 2136.16,1447.87 
  2161.95,1447.87 2187.73,1447.87 2213.52,1447.87 2239.3,1447.87 2265.09,1447.87 
  2290.87,1447.87 
  "/>
<polyline clip-path="url(#clip422)" style="stroke:#e26f46; stroke-width:4; stroke-opacity:1; fill:none" points="
  228.088,1447.87 230.667,1447.87 233.245,1447.87 235.824,1447.87 238.402,1447.87 240.981,1447.87 243.559,1447.87 246.138,1447.87 248.716,1447.87 251.295,1447.87 
  253.873,1447.87 256.451,1447.87 259.03,1447.87 261.608,1447.87 264.187,1447.87 266.765,1447.87 269.344,1447.87 271.922,1447.87 274.501,1447.87 277.079,1447.87 
  279.658,1447.87 282.236,1447.87 284.815,1447.87 287.393,1447.87 289.972,1447.87 292.55,1447.87 295.129,1447.87 297.707,1447.87 300.286,1447.87 302.864,1447.87 
  305.443,1447.87 308.021,1447.87 310.6,1447.87 313.178,1447.87 315.757,1447.87 318.335,1447.87 320.913,1447.87 323.492,1447.87 326.07,1447.87 328.649,1447.87 
  331.227,1447.87 333.806,1447.87 336.384,1447.87 338.963,1447.87 341.541,1447.87 344.12,1447.87 346.698,1447.87 349.277,1447.87 351.855,1447.87 354.434,1447.87 
  357.012,1447.87 359.591,1447.87 362.169,1447.87 364.748,1447.87 367.326,1447.87 369.905,1447.87 372.483,1447.87 375.062,1447.87 377.64,1447.87 380.219,1447.87 
  382.797,1447.87 385.375,1447.87 387.954,1447.87 390.532,1447.87 393.111,1447.86 395.689,1447.86 398.268,1447.86 400.846,1447.86 403.425,1447.86 406.003,1447.86 
  408.582,1447.86 411.16,1447.86 413.739,1447.85 416.317,1447.85 418.896,1447.85 421.474,1447.85 424.053,1447.85 426.631,1447.84 429.21,1447.84 431.788,1447.84 
  434.367,1447.84 436.945,1447.83 439.524,1447.83 442.102,1447.82 444.681,1447.82 447.259,1447.82 449.837,1447.81 452.416,1447.8 454.994,1447.8 457.573,1447.79 
  460.151,1447.78 462.73,1447.78 465.308,1447.77 467.887,1447.76 470.465,1447.75 473.044,1447.74 475.622,1447.73 478.201,1447.72 480.779,1447.7 483.358,1447.69 
  485.936,1447.67 488.515,1447.66 491.093,1447.64 493.672,1447.62 496.25,1447.6 498.829,1447.58 501.407,1447.55 503.986,1447.53 506.564,1447.5 509.143,1447.47 
  511.721,1447.44 514.299,1447.4 516.878,1447.37 519.456,1447.33 522.035,1447.28 524.613,1447.24 527.192,1447.19 529.77,1447.14 532.349,1447.08 534.927,1447.02 
  537.506,1446.96 540.084,1446.89 542.663,1446.82 545.241,1446.74 547.82,1446.66 550.398,1446.57 552.977,1446.47 555.555,1446.37 558.134,1446.27 560.712,1446.15 
  563.291,1446.03 565.869,1445.9 568.448,1445.76 571.026,1445.62 573.605,1445.46 576.183,1445.3 578.762,1445.12 581.34,1444.94 583.918,1444.74 586.497,1444.53 
  589.075,1444.31 591.654,1444.07 594.232,1443.83 596.811,1443.56 599.389,1443.28 601.968,1442.99 604.546,1442.68 607.125,1442.35 609.703,1442 612.282,1441.63 
  614.86,1441.25 617.439,1440.84 620.017,1440.41 622.596,1439.95 625.174,1439.48 627.753,1438.97 630.331,1438.44 632.91,1437.89 635.488,1437.3 638.067,1436.69 
  640.645,1436.04 643.224,1435.36 645.802,1434.65 648.38,1433.9 650.959,1433.11 653.537,1432.29 656.116,1431.43 658.694,1430.53 661.273,1429.59 663.851,1428.6 
  666.43,1427.56 669.008,1426.48 671.587,1425.36 674.165,1424.18 676.744,1422.95 679.322,1421.67 681.901,1420.33 684.479,1418.93 687.058,1417.48 689.636,1415.97 
  692.215,1414.39 694.793,1412.75 697.372,1411.05 699.95,1409.27 702.529,1407.43 705.107,1405.52 707.686,1403.54 710.264,1401.48 712.842,1399.34 715.421,1397.13 
  717.999,1394.83 720.578,1392.46 723.156,1390 725.735,1387.46 728.313,1384.83 730.892,1382.11 733.47,1379.3 736.049,1376.41 738.627,1373.41 741.206,1370.33 
  743.784,1367.15 746.363,1363.87 748.941,1360.5 751.52,1357.02 754.098,1353.44 756.677,1349.77 759.255,1345.99 761.834,1342.11 764.412,1338.12 766.991,1334.03 
  769.569,1329.83 772.148,1325.53 774.726,1321.12 777.304,1316.61 779.883,1311.98 782.461,1307.26 785.04,1302.42 787.618,1297.48 790.197,1292.44 792.775,1287.29 
  795.354,1282.03 797.932,1276.67 800.511,1271.21 803.089,1265.65 805.668,1259.99 808.246,1254.23 810.825,1248.37 813.403,1242.42 815.982,1236.37 818.56,1230.23 
  821.139,1224.01 823.717,1217.7 826.296,1211.3 828.874,1204.83 831.453,1198.28 834.031,1191.65 836.61,1184.96 839.188,1178.19 841.766,1171.36 844.345,1164.48 
  846.923,1157.54 849.502,1150.54 852.08,1143.5 854.659,1136.42 857.237,1129.3 859.816,1122.15 862.394,1114.97 864.973,1107.77 867.551,1100.55 870.13,1093.33 
  872.708,1086.09 875.287,1078.86 877.865,1071.63 880.444,1064.41 883.022,1057.21 885.601,1050.04 888.179,1042.89 890.758,1035.78 893.336,1028.72 895.915,1021.7 
  898.493,1014.74 901.072,1007.84 903.65,1001.01 906.228,994.262 908.807,987.59 911.385,981.008 913.964,974.52 916.542,968.135 919.121,961.857 921.699,955.695 
  924.278,949.653 926.856,943.74 929.435,937.96 932.013,932.32 934.592,926.826 937.17,921.484 939.749,916.3 942.327,911.279 944.906,906.428 947.484,901.752 
  950.063,897.255 952.641,892.944 955.22,888.822 957.798,884.895 960.377,881.167 962.955,877.642 965.534,874.325 968.112,871.22 970.69,868.329 973.269,865.657 
  975.847,863.207 978.426,860.981 981.004,858.982 983.583,857.213 986.161,855.675 988.74,854.371 991.318,853.302 993.897,852.469 996.475,851.873 999.054,851.515 
  1001.63,851.396 1004.21,851.515 1006.79,851.873 1009.37,852.469 1011.95,853.301 1014.52,854.371 1017.1,855.675 1019.68,857.213 1022.26,858.982 1024.84,860.981 
  1027.42,863.207 1030,865.657 1032.57,868.329 1035.15,871.22 1037.73,874.325 1040.31,877.642 1042.89,881.167 1045.47,884.895 1048.04,888.822 1050.62,892.943 
  1053.2,897.255 1055.78,901.752 1058.36,906.428 1060.94,911.279 1063.52,916.3 1066.09,921.483 1068.67,926.825 1071.25,932.319 1073.83,937.959 1076.41,943.739 
  1078.99,949.653 1081.57,955.694 1084.14,961.857 1086.72,968.134 1089.3,974.519 1091.88,981.007 1094.46,987.589 1097.04,994.26 1099.61,1001.01 1102.19,1007.84 
  1104.77,1014.74 1107.35,1021.7 1109.93,1028.72 1112.51,1035.78 1115.09,1042.89 1117.66,1050.03 1120.24,1057.21 1122.82,1064.41 1125.4,1071.62 1127.98,1078.85 
  1130.56,1086.09 1133.13,1093.32 1135.71,1100.55 1138.29,1107.77 1140.87,1114.97 1143.45,1122.14 1146.03,1129.3 1148.61,1136.41 1151.18,1143.49 1153.76,1150.53 
  1156.34,1157.52 1158.92,1164.47 1161.5,1171.35 1164.08,1178.18 1166.65,1184.94 1169.23,1191.63 1171.81,1198.26 1174.39,1204.81 1176.97,1211.28 1179.55,1217.67 
  1182.13,1223.98 1184.7,1230.2 1187.28,1236.33 1189.86,1242.38 1192.44,1248.32 1195.02,1254.18 1197.6,1259.93 1200.18,1265.59 1202.75,1271.15 1205.33,1276.6 
  1207.91,1281.96 1210.49,1287.2 1213.07,1292.35 1215.65,1297.38 1218.22,1302.32 1220.8,1307.14 1223.38,1311.86 1225.96,1316.47 1228.54,1320.97 1231.12,1325.37 
  1233.7,1329.65 1236.27,1333.84 1238.85,1337.91 1241.43,1341.88 1244.01,1345.74 1246.59,1349.5 1249.17,1353.16 1251.74,1356.71 1254.32,1360.15 1256.9,1363.5 
  1259.48,1366.75 1262.06,1369.9 1264.64,1372.95 1267.22,1375.9 1269.79,1378.75 1272.37,1381.52 1274.95,1384.19 1277.53,1386.76 1280.11,1389.25 1282.69,1391.65 
  1285.27,1393.96 1287.84,1396.18 1290.42,1398.32 1293,1400.38 1295.58,1402.36 1298.16,1404.25 1300.74,1406.06 1303.31,1407.8 1305.89,1409.46 1308.47,1411.05 
  1311.05,1412.56 1313.63,1414 1316.21,1415.37 1318.79,1416.67 1321.36,1417.89 1323.94,1419.06 1326.52,1420.15 1329.1,1421.18 1331.68,1422.14 1334.26,1423.04 
  1336.83,1423.88 1339.41,1424.65 1341.99,1425.37 1344.57,1426.02 1347.15,1426.61 1349.73,1427.14 1352.31,1427.61 1354.88,1428.03 1357.46,1428.38 1360.04,1428.67 
  1362.62,1428.91 1365.2,1429.09 1367.78,1429.2 1370.35,1429.26 1372.93,1429.26 1375.51,1429.2 1378.09,1429.08 1380.67,1428.9 1383.25,1428.66 1385.83,1428.36 
  1388.4,1427.99 1390.98,1427.56 1393.56,1427.07 1396.14,1426.51 1398.72,1425.88 1401.3,1425.19 1403.88,1424.42 1406.45,1423.59 1409.03,1422.68 1411.61,1421.7 
  1414.19,1420.64 1416.77,1419.5 1419.35,1418.29 1421.92,1416.99 1424.5,1415.6 1427.08,1414.14 1429.66,1412.58 1432.24,1410.93 1434.82,1409.19 1437.4,1407.35 
  1439.97,1405.41 1442.55,1403.38 1445.13,1401.23 1447.71,1398.98 1450.29,1396.63 1452.87,1394.15 1455.44,1391.57 1458.02,1388.86 1460.6,1386.03 1463.18,1383.08 
  1465.76,1379.99 1468.34,1376.78 1470.92,1373.43 1473.49,1369.94 1476.07,1366.31 1478.65,1362.53 1481.23,1358.61 1483.81,1354.53 1486.39,1350.3 1488.97,1345.91 
  1491.54,1341.36 1494.12,1336.64 1496.7,1331.75 1499.28,1326.7 1501.86,1321.46 1504.44,1316.05 1507.01,1310.46 1509.59,1304.68 1512.17,1298.72 1514.75,1292.57 
  1517.33,1286.22 1519.91,1279.68 1522.49,1272.95 1525.06,1266.01 1527.64,1258.87 1530.22,1251.53 1532.8,1243.98 1535.38,1236.23 1537.96,1228.26 1540.53,1220.09 
  1543.11,1211.7 1545.69,1203.1 1548.27,1194.29 1550.85,1185.27 1553.43,1176.03 1556.01,1166.58 1558.58,1156.92 1561.16,1147.04 1563.74,1136.95 1566.32,1126.66 
  1568.9,1116.15 1571.48,1105.44 1574.05,1094.52 1576.63,1083.39 1579.21,1072.07 1581.79,1060.55 1584.37,1048.84 1586.95,1036.94 1589.53,1024.85 1592.1,1012.58 
  1594.68,1000.13 1597.26,987.509 1599.84,974.722 1602.42,961.774 1605,948.672 1607.58,935.421 1610.15,922.029 1612.73,908.502 1615.31,894.849 1617.89,881.077 
  1620.47,867.194 1623.05,853.209 1625.62,839.13 1628.2,824.967 1630.78,810.73 1633.36,796.428 1635.94,782.07 1638.52,767.669 1641.1,753.234 1643.67,738.777 
  1646.25,724.307 1648.83,709.838 1651.41,695.381 1653.99,680.947 1656.57,666.549 1659.14,652.199 1661.72,637.909 1664.3,623.693 1666.88,609.562 1669.46,595.53 
  1672.04,581.61 1674.62,567.814 1677.19,554.156 1679.77,540.65 1682.35,527.307 1684.93,514.142 1687.51,501.167 1690.09,488.396 1692.66,475.841 1695.24,463.516 
  1697.82,451.433 1700.4,439.606 1702.98,428.046 1705.56,416.766 1708.14,405.778 1710.71,395.094 1713.29,384.726 1715.87,374.686 1718.45,364.983 1721.03,355.63 
  1723.61,346.637 1726.19,338.014 1728.76,329.771 1731.34,321.916 1733.92,314.461 1736.5,307.412 1739.08,300.778 1741.66,294.567 1744.23,288.786 1746.81,283.442 
  1749.39,278.541 1751.97,274.089 1754.55,270.091 1757.13,266.552 1759.71,263.477 1762.28,260.868 1764.86,258.73 1767.44,257.064 1770.02,255.873 1772.6,255.157 
  1775.18,254.919 1777.75,255.157 1780.33,255.873 1782.91,257.064 1785.49,258.73 1788.07,260.868 1790.65,263.477 1793.23,266.552 1795.8,270.091 1798.38,274.089 
  1800.96,278.541 1803.54,283.442 1806.12,288.786 1808.7,294.567 1811.28,300.778 1813.85,307.412 1816.43,314.461 1819.01,321.916 1821.59,329.771 1824.17,338.014 
  1826.75,346.637 1829.32,355.631 1831.9,364.984 1834.48,374.686 1837.06,384.727 1839.64,395.094 1842.22,405.778 1844.8,416.766 1847.37,428.046 1849.95,439.606 
  1852.53,451.434 1855.11,463.516 1857.69,475.842 1860.27,488.396 1862.84,501.167 1865.42,514.142 1868,527.307 1870.58,540.65 1873.16,554.157 1875.74,567.815 
  1878.32,581.61 1880.89,595.531 1883.47,609.563 1886.05,623.694 1888.63,637.91 1891.21,652.2 1893.79,666.55 1896.36,680.949 1898.94,695.383 1901.52,709.84 
  1904.1,724.31 1906.68,738.779 1909.26,753.237 1911.84,767.672 1914.41,782.074 1916.99,796.431 1919.57,810.734 1922.15,824.972 1924.73,839.135 1927.31,853.214 
  1929.89,867.2 1932.46,881.083 1935.04,894.856 1937.62,908.51 1940.2,922.038 1942.78,935.431 1945.36,948.682 1947.93,961.786 1950.51,974.735 1953.09,987.523 
  1955.67,1000.14 1958.25,1012.59 1960.83,1024.87 1963.41,1036.96 1965.98,1048.86 1968.56,1060.58 1971.14,1072.1 1973.72,1083.42 1976.3,1094.55 1978.88,1105.47 
  1981.45,1116.19 1984.03,1126.7 1986.61,1137 1989.19,1147.09 1991.77,1156.97 1994.35,1166.64 1996.93,1176.09 1999.5,1185.34 2002.08,1194.37 2004.66,1203.18 
  2007.24,1211.79 2009.82,1220.18 2012.4,1228.37 2014.97,1236.34 2017.55,1244.1 2020.13,1251.66 2022.71,1259.02 2025.29,1266.17 2027.87,1273.12 2030.45,1279.87 
  2033.02,1286.42 2035.6,1292.79 2038.18,1298.96 2040.76,1304.94 2043.34,1310.74 2045.92,1316.35 2048.5,1321.78 2051.07,1327.04 2053.65,1332.13 2056.23,1337.04 
  2058.81,1341.79 2061.39,1346.38 2063.97,1350.81 2066.54,1355.08 2069.12,1359.2 2071.7,1363.17 2074.28,1366.99 2076.86,1370.67 2079.44,1374.22 2082.02,1377.63 
  2084.59,1380.91 2087.17,1384.06 2089.75,1387.09 2092.33,1389.99 2094.91,1392.78 2097.49,1395.46 2100.06,1398.02 2102.64,1400.48 2105.22,1402.84 2107.8,1405.1 
  2110.38,1407.26 2112.96,1409.32 2115.54,1411.3 2118.11,1413.19 2120.69,1414.99 2123.27,1416.71 2125.85,1418.36 2128.43,1419.92 2131.01,1421.42 2133.59,1422.85 
  2136.16,1424.2 2138.74,1425.5 2141.32,1426.73 2143.9,1427.9 2146.48,1429.01 2149.06,1430.07 2151.63,1431.08 2154.21,1432.04 2156.79,1432.94 2159.37,1433.8 
  2161.95,1434.62 2164.53,1435.39 2167.11,1436.13 2169.68,1436.82 2172.26,1437.48 2174.84,1438.1 2177.42,1438.69 2180,1439.25 2182.58,1439.78 2185.15,1440.27 
  2187.73,1440.74 2190.31,1441.19 2192.89,1441.61 2195.47,1442 2198.05,1442.37 2200.63,1442.72 2203.2,1443.05 2205.78,1443.36 2208.36,1443.65 2210.94,1443.93 
  2213.52,1444.19 2216.1,1444.43 2218.67,1444.66 2221.25,1444.87 2223.83,1445.07 2226.41,1445.26 2228.99,1445.44 2231.57,1445.61 2234.15,1445.76 2236.72,1445.91 
  2239.3,1446.04 2241.88,1446.17 2244.46,1446.29 2247.04,1446.4 2249.62,1446.51 2252.2,1446.6 2254.77,1446.69 2257.35,1446.78 2259.93,1446.86 2262.51,1446.93 
  2265.09,1447 2267.67,1447.06 2270.24,1447.12 2272.82,1447.18 2275.4,1447.23 2277.98,1447.28 2280.56,1447.32 2283.14,1447.37 2285.72,1447.4 2288.29,1447.44 
  2290.87,1447.47 
  "/>
<path clip-path="url(#clip420)" d="
M1929.78 388.432 L2280.76 388.432 L2280.76 206.992 L1929.78 206.992  Z
  " fill="#ffffff" fill-rule="evenodd" fill-opacity="1"/>
<polyline clip-path="url(#clip420)" style="stroke:#000000; stroke-width:4; stroke-opacity:1; fill:none" points="
  1929.78,388.432 2280.76,388.432 2280.76,206.992 1929.78,206.992 1929.78,388.432 
  "/>
<polyline clip-path="url(#clip420)" style="stroke:#009af9; stroke-width:4; stroke-opacity:1; fill:none" points="
  1953.78,267.472 2097.78,267.472 
  "/>
<path clip-path="url(#clip420)" d="M 0 0 M2126.46 254.035 L2126.46 280.91 L2132.11 280.91 Q2139.26 280.91 2142.57 277.669 Q2145.9 274.428 2145.9 267.437 Q2145.9 260.493 2142.57 257.275 Q2139.26 254.035 2132.11 254.035 L2126.46 254.035 M2121.78 250.192 L2131.39 250.192 Q2141.44 250.192 2146.14 254.382 Q2150.84 258.549 2150.84 267.437 Q2150.84 276.373 2146.11 280.562 Q2141.39 284.752 2131.39 284.752 L2121.78 284.752 L2121.78 250.192 Z" fill="#000000" fill-rule="evenodd" fill-opacity="1" /><path clip-path="url(#clip420)" d="M 0 0 M2167.08 271.72 Q2161.92 271.72 2159.93 272.9 Q2157.94 274.081 2157.94 276.928 Q2157.94 279.197 2159.42 280.539 Q2160.93 281.859 2163.5 281.859 Q2167.04 281.859 2169.17 279.359 Q2171.32 276.836 2171.32 272.669 L2171.32 271.72 L2167.08 271.72 M2175.58 269.961 L2175.58 284.752 L2171.32 284.752 L2171.32 280.817 Q2169.86 283.178 2167.69 284.312 Q2165.51 285.423 2162.36 285.423 Q2158.38 285.423 2156.02 283.201 Q2153.68 280.956 2153.68 277.206 Q2153.68 272.831 2156.6 270.609 Q2159.54 268.386 2165.35 268.386 L2171.32 268.386 L2171.32 267.97 Q2171.32 265.03 2169.38 263.433 Q2167.46 261.812 2163.96 261.812 Q2161.74 261.812 2159.63 262.345 Q2157.52 262.877 2155.58 263.942 L2155.58 260.007 Q2157.92 259.104 2160.12 258.664 Q2162.32 258.201 2164.4 258.201 Q2170.02 258.201 2172.8 261.118 Q2175.58 264.035 2175.58 269.961 Z" fill="#000000" fill-rule="evenodd" fill-opacity="1" /><path clip-path="url(#clip420)" d="M 0 0 M2184.26 251.465 L2184.26 258.826 L2193.03 258.826 L2193.03 262.137 L2184.26 262.137 L2184.26 276.211 Q2184.26 279.382 2185.12 280.285 Q2186 281.187 2188.66 281.187 L2193.03 281.187 L2193.03 284.752 L2188.66 284.752 Q2183.73 284.752 2181.85 282.923 Q2179.98 281.072 2179.98 276.211 L2179.98 262.137 L2176.85 262.137 L2176.85 258.826 L2179.98 258.826 L2179.98 251.465 L2184.26 251.465 Z" fill="#000000" fill-rule="evenodd" fill-opacity="1" /><path clip-path="url(#clip420)" d="M 0 0 M2209.28 271.72 Q2204.12 271.72 2202.13 272.9 Q2200.14 274.081 2200.14 276.928 Q2200.14 279.197 2201.62 280.539 Q2203.13 281.859 2205.7 281.859 Q2209.24 281.859 2211.37 279.359 Q2213.52 276.836 2213.52 272.669 L2213.52 271.72 L2209.28 271.72 M2217.78 269.961 L2217.78 284.752 L2213.52 284.752 L2213.52 280.817 Q2212.06 283.178 2209.89 284.312 Q2207.71 285.423 2204.56 285.423 Q2200.58 285.423 2198.22 283.201 Q2195.88 280.956 2195.88 277.206 Q2195.88 272.831 2198.8 270.609 Q2201.74 268.386 2207.55 268.386 L2213.52 268.386 L2213.52 267.97 Q2213.52 265.03 2211.58 263.433 Q2209.65 261.812 2206.16 261.812 Q2203.94 261.812 2201.83 262.345 Q2199.72 262.877 2197.78 263.942 L2197.78 260.007 Q2200.12 259.104 2202.32 258.664 Q2204.52 258.201 2206.6 258.201 Q2212.22 258.201 2215 261.118 Q2217.78 264.035 2217.78 269.961 Z" fill="#000000" fill-rule="evenodd" fill-opacity="1" /><polyline clip-path="url(#clip420)" style="stroke:#e26f46; stroke-width:4; stroke-opacity:1; fill:none" points="
  1953.78,327.952 2097.78,327.952 
  "/>
<path clip-path="url(#clip420)" d="M 0 0 M2121.78 310.672 L2151.02 310.672 L2151.02 314.607 L2138.75 314.607 L2138.75 345.232 L2134.05 345.232 L2134.05 314.607 L2121.78 314.607 L2121.78 310.672 Z" fill="#000000" fill-rule="evenodd" fill-opacity="1" /><path clip-path="url(#clip420)" d="M 0 0 M2163.54 323.288 Q2162.83 322.871 2161.97 322.686 Q2161.14 322.478 2160.12 322.478 Q2156.51 322.478 2154.56 324.839 Q2152.64 327.177 2152.64 331.575 L2152.64 345.232 L2148.36 345.232 L2148.36 319.306 L2152.64 319.306 L2152.64 323.334 Q2153.98 320.973 2156.14 319.839 Q2158.29 318.681 2161.37 318.681 Q2161.81 318.681 2162.34 318.751 Q2162.87 318.797 2163.52 318.913 L2163.54 323.288 Z" fill="#000000" fill-rule="evenodd" fill-opacity="1" /><path clip-path="url(#clip420)" d="M 0 0 M2167.57 335.001 L2167.57 319.306 L2171.83 319.306 L2171.83 334.839 Q2171.83 338.519 2173.27 340.371 Q2174.7 342.2 2177.57 342.2 Q2181.02 342.2 2183.01 340.001 Q2185.02 337.802 2185.02 334.005 L2185.02 319.306 L2189.28 319.306 L2189.28 345.232 L2185.02 345.232 L2185.02 341.251 Q2183.47 343.612 2181.41 344.769 Q2179.38 345.903 2176.67 345.903 Q2172.2 345.903 2169.89 343.126 Q2167.57 340.348 2167.57 335.001 M2178.29 318.681 L2178.29 318.681 Z" fill="#000000" fill-rule="evenodd" fill-opacity="1" /><path clip-path="url(#clip420)" d="M 0 0 M2197.96 311.945 L2197.96 319.306 L2206.74 319.306 L2206.74 322.617 L2197.96 322.617 L2197.96 336.691 Q2197.96 339.862 2198.82 340.765 Q2199.7 341.667 2202.36 341.667 L2206.74 341.667 L2206.74 345.232 L2202.36 345.232 Q2197.43 345.232 2195.56 343.403 Q2193.68 341.552 2193.68 336.691 L2193.68 322.617 L2190.56 322.617 L2190.56 319.306 L2193.68 319.306 L2193.68 311.945 L2197.96 311.945 Z" fill="#000000" fill-rule="evenodd" fill-opacity="1" /><path clip-path="url(#clip420)" d="M 0 0 M2232.76 329.584 L2232.76 345.232 L2228.5 345.232 L2228.5 329.723 Q2228.5 326.042 2227.06 324.214 Q2225.63 322.385 2222.76 322.385 Q2219.31 322.385 2217.32 324.584 Q2215.33 326.783 2215.33 330.579 L2215.33 345.232 L2211.04 345.232 L2211.04 309.214 L2215.33 309.214 L2215.33 323.334 Q2216.85 320.996 2218.91 319.839 Q2221 318.681 2223.71 318.681 Q2228.17 318.681 2230.46 321.459 Q2232.76 324.214 2232.76 329.584 Z" fill="#000000" fill-rule="evenodd" fill-opacity="1" /></svg>
