<?xml version="1.0" encoding="utf-8"?>
<svg xmlns="http://www.w3.org/2000/svg" xmlns:xlink="http://www.w3.org/1999/xlink" width="600" height="400" viewBox="0 0 2400 1600">
<defs>
  <clipPath id="clip560">
    <rect x="0" y="0" width="2400" height="1600"/>
  </clipPath>
</defs>
<path clip-path="url(#clip560)" d="M0 1600 L2400 1600 L2400 0 L0 0  Z" fill="#ffffff" fill-rule="evenodd" fill-opacity="1"/>
<defs>
  <clipPath id="clip561">
    <rect x="480" y="0" width="1681" height="1600"/>
  </clipPath>
</defs>
<path clip-path="url(#clip560)" d="M172.015 1486.45 L2352.76 1486.45 L2352.76 123.472 L172.015 123.472  Z" fill="#ffffff" fill-rule="evenodd" fill-opacity="1"/>
<defs>
  <clipPath id="clip562">
    <rect x="172" y="123" width="2182" height="1364"/>
  </clipPath>
</defs>
<polyline clip-path="url(#clip562)" style="stroke:#000000; stroke-linecap:round; stroke-linejoin:round; stroke-width:2; stroke-opacity:0.1; fill:none" points="233.734,1486.45 233.734,123.472 "/>
<polyline clip-path="url(#clip562)" style="stroke:#000000; stroke-linecap:round; stroke-linejoin:round; stroke-width:2; stroke-opacity:0.1; fill:none" points="576.618,1486.45 576.618,123.472 "/>
<polyline clip-path="url(#clip562)" style="stroke:#000000; stroke-linecap:round; stroke-linejoin:round; stroke-width:2; stroke-opacity:0.1; fill:none" points="919.502,1486.45 919.502,123.472 "/>
<polyline clip-path="url(#clip562)" style="stroke:#000000; stroke-linecap:round; stroke-linejoin:round; stroke-width:2; stroke-opacity:0.1; fill:none" points="1262.39,1486.45 1262.39,123.472 "/>
<polyline clip-path="url(#clip562)" style="stroke:#000000; stroke-linecap:round; stroke-linejoin:round; stroke-width:2; stroke-opacity:0.1; fill:none" points="1605.27,1486.45 1605.27,123.472 "/>
<polyline clip-path="url(#clip562)" style="stroke:#000000; stroke-linecap:round; stroke-linejoin:round; stroke-width:2; stroke-opacity:0.1; fill:none" points="1948.15,1486.45 1948.15,123.472 "/>
<polyline clip-path="url(#clip562)" style="stroke:#000000; stroke-linecap:round; stroke-linejoin:round; stroke-width:2; stroke-opacity:0.1; fill:none" points="2291.04,1486.45 2291.04,123.472 "/>
<polyline clip-path="url(#clip562)" style="stroke:#000000; stroke-linecap:round; stroke-linejoin:round; stroke-width:2; stroke-opacity:0.1; fill:none" points="172.015,1447.87 2352.76,1447.87 "/>
<polyline clip-path="url(#clip562)" style="stroke:#000000; stroke-linecap:round; stroke-linejoin:round; stroke-width:2; stroke-opacity:0.1; fill:none" points="172.015,1148.84 2352.76,1148.84 "/>
<polyline clip-path="url(#clip562)" style="stroke:#000000; stroke-linecap:round; stroke-linejoin:round; stroke-width:2; stroke-opacity:0.1; fill:none" points="172.015,849.814 2352.76,849.814 "/>
<polyline clip-path="url(#clip562)" style="stroke:#000000; stroke-linecap:round; stroke-linejoin:round; stroke-width:2; stroke-opacity:0.1; fill:none" points="172.015,550.785 2352.76,550.785 "/>
<polyline clip-path="url(#clip562)" style="stroke:#000000; stroke-linecap:round; stroke-linejoin:round; stroke-width:2; stroke-opacity:0.1; fill:none" points="172.015,251.756 2352.76,251.756 "/>
<polyline clip-path="url(#clip560)" style="stroke:#000000; stroke-linecap:round; stroke-linejoin:round; stroke-width:4; stroke-opacity:1; fill:none" points="172.015,1486.45 2352.76,1486.45 "/>
<polyline clip-path="url(#clip560)" style="stroke:#000000; stroke-linecap:round; stroke-linejoin:round; stroke-width:4; stroke-opacity:1; fill:none" points="233.734,1486.45 233.734,1467.55 "/>
<polyline clip-path="url(#clip560)" style="stroke:#000000; stroke-linecap:round; stroke-linejoin:round; stroke-width:4; stroke-opacity:1; fill:none" points="576.618,1486.45 576.618,1467.55 "/>
<polyline clip-path="url(#clip560)" style="stroke:#000000; stroke-linecap:round; stroke-linejoin:round; stroke-width:4; stroke-opacity:1; fill:none" points="919.502,1486.45 919.502,1467.55 "/>
<polyline clip-path="url(#clip560)" style="stroke:#000000; stroke-linecap:round; stroke-linejoin:round; stroke-width:4; stroke-opacity:1; fill:none" points="1262.39,1486.45 1262.39,1467.55 "/>
<polyline clip-path="url(#clip560)" style="stroke:#000000; stroke-linecap:round; stroke-linejoin:round; stroke-width:4; stroke-opacity:1; fill:none" points="1605.27,1486.45 1605.27,1467.55 "/>
<polyline clip-path="url(#clip560)" style="stroke:#000000; stroke-linecap:round; stroke-linejoin:round; stroke-width:4; stroke-opacity:1; fill:none" points="1948.15,1486.45 1948.15,1467.55 "/>
<polyline clip-path="url(#clip560)" style="stroke:#000000; stroke-linecap:round; stroke-linejoin:round; stroke-width:4; stroke-opacity:1; fill:none" points="2291.04,1486.45 2291.04,1467.55 "/>
<path clip-path="url(#clip560)" d="M203.676 1532.02 L233.352 1532.02 L233.352 1535.95 L203.676 1535.95 L203.676 1532.02 Z" fill="#000000" fill-rule="nonzero" fill-opacity="1" /><path clip-path="url(#clip560)" d="M247.472 1544.91 L263.792 1544.91 L263.792 1548.85 L241.847 1548.85 L241.847 1544.91 Q244.509 1542.16 249.093 1537.53 Q253.699 1532.88 254.88 1531.53 Q257.125 1529.01 258.005 1527.27 Q258.907 1525.51 258.907 1523.82 Q258.907 1521.07 256.963 1519.33 Q255.042 1517.6 251.94 1517.6 Q249.741 1517.6 247.287 1518.36 Q244.857 1519.13 242.079 1520.68 L242.079 1515.95 Q244.903 1514.82 247.357 1514.24 Q249.81 1513.66 251.847 1513.66 Q257.218 1513.66 260.412 1516.35 Q263.606 1519.03 263.606 1523.52 Q263.606 1525.65 262.796 1527.57 Q262.009 1529.47 259.903 1532.07 Q259.324 1532.74 256.222 1535.95 Q253.12 1539.15 247.472 1544.91 Z" fill="#000000" fill-rule="nonzero" fill-opacity="1" /><path clip-path="url(#clip560)" d="M546.375 1532.02 L576.051 1532.02 L576.051 1535.95 L546.375 1535.95 L546.375 1532.02 Z" fill="#000000" fill-rule="nonzero" fill-opacity="1" /><path clip-path="url(#clip560)" d="M586.953 1544.91 L594.592 1544.91 L594.592 1518.55 L586.282 1520.21 L586.282 1515.95 L594.546 1514.29 L599.222 1514.29 L599.222 1544.91 L606.861 1544.91 L606.861 1548.85 L586.953 1548.85 L586.953 1544.91 Z" fill="#000000" fill-rule="nonzero" fill-opacity="1" /><path clip-path="url(#clip560)" d="M919.502 1517.37 Q915.89 1517.37 914.062 1520.93 Q912.256 1524.47 912.256 1531.6 Q912.256 1538.71 914.062 1542.27 Q915.89 1545.82 919.502 1545.82 Q923.136 1545.82 924.941 1542.27 Q926.77 1538.71 926.77 1531.6 Q926.77 1524.47 924.941 1520.93 Q923.136 1517.37 919.502 1517.37 M919.502 1513.66 Q925.312 1513.66 928.367 1518.27 Q931.446 1522.85 931.446 1531.6 Q931.446 1540.33 928.367 1544.94 Q925.312 1549.52 919.502 1549.52 Q913.691 1549.52 910.613 1544.94 Q907.557 1540.33 907.557 1531.6 Q907.557 1522.85 910.613 1518.27 Q913.691 1513.66 919.502 1513.66 Z" fill="#000000" fill-rule="nonzero" fill-opacity="1" /><path clip-path="url(#clip560)" d="M1252.77 1544.91 L1260.41 1544.91 L1260.41 1518.55 L1252.1 1520.21 L1252.1 1515.95 L1260.36 1514.29 L1265.04 1514.29 L1265.04 1544.91 L1272.67 1544.91 L1272.67 1548.85 L1252.77 1548.85 L1252.77 1544.91 Z" fill="#000000" fill-rule="nonzero" fill-opacity="1" /><path clip-path="url(#clip560)" d="M1599.92 1544.91 L1616.24 1544.91 L1616.24 1548.85 L1594.3 1548.85 L1594.3 1544.91 Q1596.96 1542.16 1601.54 1537.53 Q1606.15 1532.88 1607.33 1531.53 Q1609.57 1529.01 1610.45 1527.27 Q1611.36 1525.51 1611.36 1523.82 Q1611.36 1521.07 1609.41 1519.33 Q1607.49 1517.6 1604.39 1517.6 Q1602.19 1517.6 1599.74 1518.36 Q1597.31 1519.13 1594.53 1520.68 L1594.53 1515.95 Q1597.35 1514.82 1599.81 1514.24 Q1602.26 1513.66 1604.3 1513.66 Q1609.67 1513.66 1612.86 1516.35 Q1616.06 1519.03 1616.06 1523.52 Q1616.06 1525.65 1615.25 1527.57 Q1614.46 1529.47 1612.35 1532.07 Q1611.77 1532.74 1608.67 1535.95 Q1605.57 1539.15 1599.92 1544.91 Z" fill="#000000" fill-rule="nonzero" fill-opacity="1" /><path clip-path="url(#clip560)" d="M1952.4 1530.21 Q1955.76 1530.93 1957.63 1533.2 Q1959.53 1535.47 1959.53 1538.8 Q1959.53 1543.92 1956.01 1546.72 Q1952.49 1549.52 1946.01 1549.52 Q1943.84 1549.52 1941.52 1549.08 Q1939.23 1548.66 1936.78 1547.81 L1936.78 1543.29 Q1938.72 1544.43 1941.03 1545.01 Q1943.35 1545.58 1945.87 1545.58 Q1950.27 1545.58 1952.56 1543.85 Q1954.88 1542.11 1954.88 1538.8 Q1954.88 1535.75 1952.72 1534.03 Q1950.6 1532.3 1946.78 1532.3 L1942.75 1532.3 L1942.75 1528.45 L1946.96 1528.45 Q1950.41 1528.45 1952.24 1527.09 Q1954.07 1525.7 1954.07 1523.11 Q1954.07 1520.45 1952.17 1519.03 Q1950.29 1517.6 1946.78 1517.6 Q1944.85 1517.6 1942.66 1518.01 Q1940.46 1518.43 1937.82 1519.31 L1937.82 1515.14 Q1940.48 1514.4 1942.79 1514.03 Q1945.13 1513.66 1947.19 1513.66 Q1952.52 1513.66 1955.62 1516.09 Q1958.72 1518.5 1958.72 1522.62 Q1958.72 1525.49 1957.08 1527.48 Q1955.43 1529.45 1952.4 1530.21 Z" fill="#000000" fill-rule="nonzero" fill-opacity="1" /><path clip-path="url(#clip560)" d="M2294.05 1518.36 L2282.24 1536.81 L2294.05 1536.81 L2294.05 1518.36 M2292.82 1514.29 L2298.7 1514.29 L2298.7 1536.81 L2303.63 1536.81 L2303.63 1540.7 L2298.7 1540.7 L2298.7 1548.85 L2294.05 1548.85 L2294.05 1540.7 L2278.44 1540.7 L2278.44 1536.19 L2292.82 1514.29 Z" fill="#000000" fill-rule="nonzero" fill-opacity="1" /><polyline clip-path="url(#clip560)" style="stroke:#000000; stroke-linecap:round; stroke-linejoin:round; stroke-width:4; stroke-opacity:1; fill:none" points="172.015,1486.45 172.015,123.472 "/>
<polyline clip-path="url(#clip560)" style="stroke:#000000; stroke-linecap:round; stroke-linejoin:round; stroke-width:4; stroke-opacity:1; fill:none" points="172.015,1447.87 190.912,1447.87 "/>
<polyline clip-path="url(#clip560)" style="stroke:#000000; stroke-linecap:round; stroke-linejoin:round; stroke-width:4; stroke-opacity:1; fill:none" points="172.015,1148.84 190.912,1148.84 "/>
<polyline clip-path="url(#clip560)" style="stroke:#000000; stroke-linecap:round; stroke-linejoin:round; stroke-width:4; stroke-opacity:1; fill:none" points="172.015,849.814 190.912,849.814 "/>
<polyline clip-path="url(#clip560)" style="stroke:#000000; stroke-linecap:round; stroke-linejoin:round; stroke-width:4; stroke-opacity:1; fill:none" points="172.015,550.785 190.912,550.785 "/>
<polyline clip-path="url(#clip560)" style="stroke:#000000; stroke-linecap:round; stroke-linejoin:round; stroke-width:4; stroke-opacity:1; fill:none" points="172.015,251.756 190.912,251.756 "/>
<path clip-path="url(#clip560)" d="M124.07 1433.67 Q120.459 1433.67 118.631 1437.24 Q116.825 1440.78 116.825 1447.91 Q116.825 1455.01 118.631 1458.58 Q120.459 1462.12 124.07 1462.12 Q127.705 1462.12 129.51 1458.58 Q131.339 1455.01 131.339 1447.91 Q131.339 1440.78 129.51 1437.24 Q127.705 1433.67 124.07 1433.67 M124.07 1429.97 Q129.881 1429.97 132.936 1434.57 Q136.015 1439.16 136.015 1447.91 Q136.015 1456.63 132.936 1461.24 Q129.881 1465.82 124.07 1465.82 Q118.26 1465.82 115.182 1461.24 Q112.126 1456.63 112.126 1447.91 Q112.126 1439.16 115.182 1434.57 Q118.26 1429.97 124.07 1429.97 Z" fill="#000000" fill-rule="nonzero" fill-opacity="1" /><path clip-path="url(#clip560)" d="M57.7745 1162.19 L74.0939 1162.19 L74.0939 1166.12 L52.1495 1166.12 L52.1495 1162.19 Q54.8115 1159.43 59.3949 1154.8 Q64.0013 1150.15 65.1819 1148.81 Q67.4272 1146.29 68.3068 1144.55 Q69.2096 1142.79 69.2096 1141.1 Q69.2096 1138.35 67.2652 1136.61 Q65.3439 1134.87 62.2421 1134.87 Q60.043 1134.87 57.5893 1135.64 Q55.1588 1136.4 52.381 1137.95 L52.381 1133.23 Q55.2051 1132.1 57.6588 1131.52 Q60.1124 1130.94 62.1495 1130.94 Q67.5198 1130.94 70.7142 1133.62 Q73.9087 1136.31 73.9087 1140.8 Q73.9087 1142.93 73.0985 1144.85 Q72.3115 1146.75 70.205 1149.34 Q69.6263 1150.01 66.5245 1153.23 Q63.4226 1156.42 57.7745 1162.19 Z" fill="#000000" fill-rule="nonzero" fill-opacity="1" /><path clip-path="url(#clip560)" d="M93.9086 1134.64 Q90.2975 1134.64 88.4688 1138.21 Q86.6632 1141.75 86.6632 1148.88 Q86.6632 1155.98 88.4688 1159.55 Q90.2975 1163.09 93.9086 1163.09 Q97.5428 1163.09 99.3483 1159.55 Q101.177 1155.98 101.177 1148.88 Q101.177 1141.75 99.3483 1138.21 Q97.5428 1134.64 93.9086 1134.64 M93.9086 1130.94 Q99.7187 1130.94 102.774 1135.55 Q105.853 1140.13 105.853 1148.88 Q105.853 1157.61 102.774 1162.21 Q99.7187 1166.8 93.9086 1166.8 Q88.0984 1166.8 85.0197 1162.21 Q81.9642 1157.61 81.9642 1148.88 Q81.9642 1140.13 85.0197 1135.55 Q88.0984 1130.94 93.9086 1130.94 Z" fill="#000000" fill-rule="nonzero" fill-opacity="1" /><path clip-path="url(#clip560)" d="M124.07 1134.64 Q120.459 1134.64 118.631 1138.21 Q116.825 1141.75 116.825 1148.88 Q116.825 1155.98 118.631 1159.55 Q120.459 1163.09 124.07 1163.09 Q127.705 1163.09 129.51 1159.55 Q131.339 1155.98 131.339 1148.88 Q131.339 1141.75 129.51 1138.21 Q127.705 1134.64 124.07 1134.64 M124.07 1130.94 Q129.881 1130.94 132.936 1135.55 Q136.015 1140.13 136.015 1148.88 Q136.015 1157.61 132.936 1162.21 Q129.881 1166.8 124.07 1166.8 Q118.26 1166.8 115.182 1162.21 Q112.126 1157.61 112.126 1148.88 Q112.126 1140.13 115.182 1135.55 Q118.26 1130.94 124.07 1130.94 Z" fill="#000000" fill-rule="nonzero" fill-opacity="1" /><path clip-path="url(#clip560)" d="M66.5939 836.608 L54.7884 855.057 L66.5939 855.057 L66.5939 836.608 M65.367 832.534 L71.2466 832.534 L71.2466 855.057 L76.1772 855.057 L76.1772 858.946 L71.2466 858.946 L71.2466 867.094 L66.5939 867.094 L66.5939 858.946 L50.9921 858.946 L50.9921 854.432 L65.367 832.534 Z" fill="#000000" fill-rule="nonzero" fill-opacity="1" /><path clip-path="url(#clip560)" d="M93.9086 835.613 Q90.2975 835.613 88.4688 839.178 Q86.6632 842.72 86.6632 849.849 Q86.6632 856.956 88.4688 860.52 Q90.2975 864.062 93.9086 864.062 Q97.5428 864.062 99.3483 860.52 Q101.177 856.956 101.177 849.849 Q101.177 842.72 99.3483 839.178 Q97.5428 835.613 93.9086 835.613 M93.9086 831.909 Q99.7187 831.909 102.774 836.516 Q105.853 841.099 105.853 849.849 Q105.853 858.576 102.774 863.182 Q99.7187 867.766 93.9086 867.766 Q88.0984 867.766 85.0197 863.182 Q81.9642 858.576 81.9642 849.849 Q81.9642 841.099 85.0197 836.516 Q88.0984 831.909 93.9086 831.909 Z" fill="#000000" fill-rule="nonzero" fill-opacity="1" /><path clip-path="url(#clip560)" d="M124.07 835.613 Q120.459 835.613 118.631 839.178 Q116.825 842.72 116.825 849.849 Q116.825 856.956 118.631 860.52 Q120.459 864.062 124.07 864.062 Q127.705 864.062 129.51 860.52 Q131.339 856.956 131.339 849.849 Q131.339 842.72 129.51 839.178 Q127.705 835.613 124.07 835.613 M124.07 831.909 Q129.881 831.909 132.936 836.516 Q136.015 841.099 136.015 849.849 Q136.015 858.576 132.936 863.182 Q129.881 867.766 124.07 867.766 Q118.26 867.766 115.182 863.182 Q112.126 858.576 112.126 849.849 Q112.126 841.099 115.182 836.516 Q118.26 831.909 124.07 831.909 Z" fill="#000000" fill-rule="nonzero" fill-opacity="1" /><path clip-path="url(#clip560)" d="M64.3254 548.922 Q61.1773 548.922 59.3254 551.074 Q57.4967 553.227 57.4967 556.977 Q57.4967 560.704 59.3254 562.88 Q61.1773 565.033 64.3254 565.033 Q67.4735 565.033 69.3022 562.88 Q71.1541 560.704 71.1541 556.977 Q71.1541 553.227 69.3022 551.074 Q67.4735 548.922 64.3254 548.922 M73.6077 534.269 L73.6077 538.528 Q71.8485 537.695 70.0429 537.255 Q68.2606 536.815 66.5013 536.815 Q61.8717 536.815 59.418 539.94 Q56.9875 543.065 56.6402 549.385 Q58.006 547.371 60.0662 546.306 Q62.1263 545.218 64.6032 545.218 Q69.8115 545.218 72.8207 548.389 Q75.8531 551.537 75.8531 556.977 Q75.8531 562.301 72.705 565.519 Q69.5568 568.736 64.3254 568.736 Q58.33 568.736 55.1588 564.153 Q51.9875 559.547 51.9875 550.82 Q51.9875 542.625 55.8764 537.764 Q59.7652 532.88 66.3161 532.88 Q68.0754 532.88 69.8578 533.227 Q71.6633 533.575 73.6077 534.269 Z" fill="#000000" fill-rule="nonzero" fill-opacity="1" /><path clip-path="url(#clip560)" d="M93.9086 536.584 Q90.2975 536.584 88.4688 540.149 Q86.6632 543.69 86.6632 550.82 Q86.6632 557.926 88.4688 561.491 Q90.2975 565.033 93.9086 565.033 Q97.5428 565.033 99.3483 561.491 Q101.177 557.926 101.177 550.82 Q101.177 543.69 99.3483 540.149 Q97.5428 536.584 93.9086 536.584 M93.9086 532.88 Q99.7187 532.88 102.774 537.487 Q105.853 542.07 105.853 550.82 Q105.853 559.547 102.774 564.153 Q99.7187 568.736 93.9086 568.736 Q88.0984 568.736 85.0197 564.153 Q81.9642 559.547 81.9642 550.82 Q81.9642 542.07 85.0197 537.487 Q88.0984 532.88 93.9086 532.88 Z" fill="#000000" fill-rule="nonzero" fill-opacity="1" /><path clip-path="url(#clip560)" d="M124.07 536.584 Q120.459 536.584 118.631 540.149 Q116.825 543.69 116.825 550.82 Q116.825 557.926 118.631 561.491 Q120.459 565.033 124.07 565.033 Q127.705 565.033 129.51 561.491 Q131.339 557.926 131.339 550.82 Q131.339 543.69 129.51 540.149 Q127.705 536.584 124.07 536.584 M124.07 532.88 Q129.881 532.88 132.936 537.487 Q136.015 542.07 136.015 550.82 Q136.015 559.547 132.936 564.153 Q129.881 568.736 124.07 568.736 Q118.26 568.736 115.182 564.153 Q112.126 559.547 112.126 550.82 Q112.126 542.07 115.182 537.487 Q118.26 532.88 124.07 532.88 Z" fill="#000000" fill-rule="nonzero" fill-opacity="1" /><path clip-path="url(#clip560)" d="M63.7467 252.624 Q60.4134 252.624 58.4921 254.406 Q56.5939 256.189 56.5939 259.314 Q56.5939 262.439 58.4921 264.221 Q60.4134 266.003 63.7467 266.003 Q67.08 266.003 69.0013 264.221 Q70.9226 262.415 70.9226 259.314 Q70.9226 256.189 69.0013 254.406 Q67.1032 252.624 63.7467 252.624 M59.0708 250.633 Q56.0615 249.892 54.3717 247.832 Q52.7051 245.772 52.7051 242.809 Q52.7051 238.666 55.6449 236.258 Q58.6078 233.851 63.7467 233.851 Q68.9087 233.851 71.8485 236.258 Q74.7883 238.666 74.7883 242.809 Q74.7883 245.772 73.0985 247.832 Q71.4318 249.892 68.4457 250.633 Q71.8253 251.42 73.7003 253.712 Q75.5985 256.003 75.5985 259.314 Q75.5985 264.337 72.5198 267.022 Q69.4642 269.707 63.7467 269.707 Q58.0291 269.707 54.9504 267.022 Q51.8949 264.337 51.8949 259.314 Q51.8949 256.003 53.793 253.712 Q55.6912 251.42 59.0708 250.633 M57.3578 243.249 Q57.3578 245.934 59.0245 247.439 Q60.7143 248.943 63.7467 248.943 Q66.7559 248.943 68.4457 247.439 Q70.1587 245.934 70.1587 243.249 Q70.1587 240.564 68.4457 239.059 Q66.7559 237.554 63.7467 237.554 Q60.7143 237.554 59.0245 239.059 Q57.3578 240.564 57.3578 243.249 Z" fill="#000000" fill-rule="nonzero" fill-opacity="1" /><path clip-path="url(#clip560)" d="M93.9086 237.554 Q90.2975 237.554 88.4688 241.119 Q86.6632 244.661 86.6632 251.79 Q86.6632 258.897 88.4688 262.462 Q90.2975 266.003 93.9086 266.003 Q97.5428 266.003 99.3483 262.462 Q101.177 258.897 101.177 251.79 Q101.177 244.661 99.3483 241.119 Q97.5428 237.554 93.9086 237.554 M93.9086 233.851 Q99.7187 233.851 102.774 238.457 Q105.853 243.04 105.853 251.79 Q105.853 260.517 102.774 265.124 Q99.7187 269.707 93.9086 269.707 Q88.0984 269.707 85.0197 265.124 Q81.9642 260.517 81.9642 251.79 Q81.9642 243.04 85.0197 238.457 Q88.0984 233.851 93.9086 233.851 Z" fill="#000000" fill-rule="nonzero" fill-opacity="1" /><path clip-path="url(#clip560)" d="M124.07 237.554 Q120.459 237.554 118.631 241.119 Q116.825 244.661 116.825 251.79 Q116.825 258.897 118.631 262.462 Q120.459 266.003 124.07 266.003 Q127.705 266.003 129.51 262.462 Q131.339 258.897 131.339 251.79 Q131.339 244.661 129.51 241.119 Q127.705 237.554 124.07 237.554 M124.07 233.851 Q129.881 233.851 132.936 238.457 Q136.015 243.04 136.015 251.79 Q136.015 260.517 132.936 265.124 Q129.881 269.707 124.07 269.707 Q118.26 269.707 115.182 265.124 Q112.126 260.517 112.126 251.79 Q112.126 243.04 115.182 238.457 Q118.26 233.851 124.07 233.851 Z" fill="#000000" fill-rule="nonzero" fill-opacity="1" /><path clip-path="url(#clip560)" d="M1179.36 18.8205 L1179.36 65.8515 L1189.25 65.8515 Q1201.76 65.8515 1207.56 60.1802 Q1213.39 54.509 1213.39 42.2752 Q1213.39 30.1225 1207.56 24.4918 Q1201.76 18.8205 1189.25 18.8205 L1179.36 18.8205 M1171.18 12.096 L1187.99 12.096 Q1205.57 12.096 1213.79 19.4281 Q1222.02 26.7198 1222.02 42.2752 Q1222.02 57.9117 1213.75 65.2439 Q1205.49 72.576 1187.99 72.576 L1171.18 72.576 L1171.18 12.096 Z" fill="#000000" fill-rule="nonzero" fill-opacity="1" /><path clip-path="url(#clip560)" d="M1255.36 49.7694 Q1246.32 49.7694 1242.84 51.8354 Q1239.36 53.9013 1239.36 58.8839 Q1239.36 62.8538 1241.95 65.2034 Q1244.58 67.5124 1249.08 67.5124 Q1255.28 67.5124 1259 63.1374 Q1262.77 58.7219 1262.77 51.4303 L1262.77 49.7694 L1255.36 49.7694 M1270.22 46.6907 L1270.22 72.576 L1262.77 72.576 L1262.77 65.6895 Q1260.22 69.8214 1256.41 71.8063 Q1252.6 73.7508 1247.09 73.7508 Q1240.13 73.7508 1235.99 69.8619 Q1231.9 65.9325 1231.9 59.3701 Q1231.9 51.7138 1237.01 47.825 Q1242.15 43.9361 1252.32 43.9361 L1262.77 43.9361 L1262.77 43.2069 Q1262.77 38.0623 1259.37 35.2672 Q1256.01 32.4315 1249.89 32.4315 Q1246 32.4315 1242.31 33.3632 Q1238.63 34.295 1235.22 36.1584 L1235.22 29.2718 Q1239.32 27.692 1243.16 26.9223 Q1247.01 26.1121 1250.66 26.1121 Q1260.5 26.1121 1265.36 31.2163 Q1270.22 36.3204 1270.22 46.6907 Z" fill="#000000" fill-rule="nonzero" fill-opacity="1" /><path clip-path="url(#clip560)" d="M1292.95 14.324 L1292.95 27.2059 L1308.3 27.2059 L1308.3 32.9987 L1292.95 32.9987 L1292.95 57.6282 Q1292.95 63.1779 1294.45 64.7578 Q1295.99 66.3376 1300.65 66.3376 L1308.3 66.3376 L1308.3 72.576 L1300.65 72.576 Q1292.02 72.576 1288.74 69.3758 Q1285.46 66.1351 1285.46 57.6282 L1285.46 32.9987 L1279.99 32.9987 L1279.99 27.2059 L1285.46 27.2059 L1285.46 14.324 L1292.95 14.324 Z" fill="#000000" fill-rule="nonzero" fill-opacity="1" /><path clip-path="url(#clip560)" d="M1338.72 49.7694 Q1329.69 49.7694 1326.21 51.8354 Q1322.72 53.9013 1322.72 58.8839 Q1322.72 62.8538 1325.32 65.2034 Q1327.95 67.5124 1332.45 67.5124 Q1338.64 67.5124 1342.37 63.1374 Q1346.14 58.7219 1346.14 51.4303 L1346.14 49.7694 L1338.72 49.7694 M1353.59 46.6907 L1353.59 72.576 L1346.14 72.576 L1346.14 65.6895 Q1343.59 69.8214 1339.78 71.8063 Q1335.97 73.7508 1330.46 73.7508 Q1323.49 73.7508 1319.36 69.8619 Q1315.27 65.9325 1315.27 59.3701 Q1315.27 51.7138 1320.37 47.825 Q1325.52 43.9361 1335.69 43.9361 L1346.14 43.9361 L1346.14 43.2069 Q1346.14 38.0623 1342.74 35.2672 Q1339.37 32.4315 1333.26 32.4315 Q1329.37 32.4315 1325.68 33.3632 Q1321.99 34.295 1318.59 36.1584 L1318.59 29.2718 Q1322.68 27.692 1326.53 26.9223 Q1330.38 26.1121 1334.03 26.1121 Q1343.87 26.1121 1348.73 31.2163 Q1353.59 36.3204 1353.59 46.6907 Z" fill="#000000" fill-rule="nonzero" fill-opacity="1" /><polyline clip-path="url(#clip562)" style="stroke:#009af9; stroke-linecap:round; stroke-linejoin:round; stroke-width:4; stroke-opacity:1; fill:none" points="233.734,1447.87 233.734,1313.31 268.022,1313.31 268.022,1358.16 302.311,1358.16 302.311,1208.65 336.599,1208.65 336.599,1163.8 370.887,1163.8 370.887,1193.7 405.176,1193.7 405.176,1103.99 439.464,1103.99 439.464,924.572 473.753,924.572 473.753,1029.23 508.041,1029.23 508.041,849.814 542.329,849.814 542.329,939.523 576.618,939.523 576.618,535.834 610.906,535.834 610.906,1059.13 645.194,1059.13 645.194,939.523 679.483,939.523 679.483,849.814 713.771,849.814 713.771,1074.09 748.06,1074.09 748.06,1223.6 782.348,1223.6 782.348,1163.8 816.636,1163.8 816.636,1283.41 850.925,1283.41 850.925,1268.46 885.213,1268.46 885.213,1328.26 919.502,1328.26 919.502,1388.07 953.79,1388.07 953.79,1403.02 988.078,1403.02 988.078,1417.97 1022.37,1417.97 1022.37,1447.87 1056.66,1447.87 1056.66,1432.92 1090.94,1432.92 1090.94,1447.87 1125.23,1447.87 1159.52,1447.87 1159.52,1388.07 1193.81,1388.07 1193.81,1358.16 1228.1,1358.16 1228.1,1298.36 1262.39,1298.36 1262.39,1208.65 1296.67,1208.65 1296.67,1253.5 1330.96,1253.5 1330.96,1059.13 1365.25,1059.13 1365.25,775.057 1399.54,775.057 1433.83,775.057 1433.83,685.348 1468.12,685.348 1468.12,505.931 1502.4,505.931 1502.4,610.591 1536.69,610.591 1536.69,176.998 1570.98,176.998 1570.98,236.804 1605.27,236.804 1605.27,162.047 1639.56,162.047 1639.56,341.465 1673.85,341.465 1673.85,446.125 1708.13,446.125 1708.13,550.785 1742.42,550.785 1742.42,879.717 1776.71,879.717 1776.71,760.106 1811,760.106 1811,834.863 1845.29,834.863 1845.29,969.426 1879.58,969.426 1879.58,1133.89 1913.86,1133.89 1913.86,1223.6 1948.15,1223.6 1948.15,1388.07 1982.44,1388.07 1982.44,1403.02 2016.73,1403.02 2016.73,1373.12 2051.02,1373.12 2051.02,1432.92 2085.31,1432.92 2085.31,1417.97 2119.59,1417.97 2153.88,1417.97 2153.88,1432.92 2188.17,1432.92 2188.17,1447.87 2222.46,1447.87 2256.75,1447.87 2291.04,1447.87 "/>
<path clip-path="url(#clip560)" d="M1957.75 272.585 L2280.06 272.585 L2280.06 168.905 L1957.75 168.905  Z" fill="#ffffff" fill-rule="evenodd" fill-opacity="1"/>
<polyline clip-path="url(#clip560)" style="stroke:#000000; stroke-linecap:round; stroke-linejoin:round; stroke-width:4; stroke-opacity:1; fill:none" points="1957.75,272.585 2280.06,272.585 2280.06,168.905 1957.75,168.905 1957.75,272.585 "/>
<polyline clip-path="url(#clip560)" style="stroke:#009af9; stroke-linecap:round; stroke-linejoin:round; stroke-width:4; stroke-opacity:1; fill:none" points="1981.99,220.745 2127.37,220.745 "/>
<path clip-path="url(#clip560)" d="M2156.27 207.307 L2156.27 234.182 L2161.92 234.182 Q2169.08 234.182 2172.39 230.941 Q2175.72 227.701 2175.72 220.71 Q2175.72 213.766 2172.39 210.548 Q2169.08 207.307 2161.92 207.307 L2156.27 207.307 M2151.6 203.465 L2161.2 203.465 Q2171.25 203.465 2175.95 207.654 Q2180.65 211.821 2180.65 220.71 Q2180.65 229.645 2175.93 233.835 Q2171.2 238.025 2161.2 238.025 L2151.6 238.025 L2151.6 203.465 Z" fill="#000000" fill-rule="nonzero" fill-opacity="1" /><path clip-path="url(#clip560)" d="M2199.7 224.992 Q2194.54 224.992 2192.55 226.173 Q2190.56 227.353 2190.56 230.201 Q2190.56 232.469 2192.04 233.812 Q2193.54 235.131 2196.11 235.131 Q2199.65 235.131 2201.78 232.631 Q2203.94 230.108 2203.94 225.941 L2203.94 224.992 L2199.7 224.992 M2208.2 223.233 L2208.2 238.025 L2203.94 238.025 L2203.94 234.089 Q2202.48 236.451 2200.3 237.585 Q2198.13 238.696 2194.98 238.696 Q2191 238.696 2188.64 236.474 Q2186.3 234.228 2186.3 230.478 Q2186.3 226.103 2189.21 223.881 Q2192.15 221.659 2197.96 221.659 L2203.94 221.659 L2203.94 221.242 Q2203.94 218.303 2201.99 216.705 Q2200.07 215.085 2196.58 215.085 Q2194.35 215.085 2192.25 215.617 Q2190.14 216.15 2188.2 217.215 L2188.2 213.279 Q2190.53 212.377 2192.73 211.937 Q2194.93 211.474 2197.01 211.474 Q2202.64 211.474 2205.42 214.391 Q2208.2 217.307 2208.2 223.233 Z" fill="#000000" fill-rule="nonzero" fill-opacity="1" /><path clip-path="url(#clip560)" d="M2221.18 204.738 L2221.18 212.099 L2229.95 212.099 L2229.95 215.409 L2221.18 215.409 L2221.18 229.483 Q2221.18 232.654 2222.04 233.557 Q2222.92 234.46 2225.58 234.46 L2229.95 234.46 L2229.95 238.025 L2225.58 238.025 Q2220.65 238.025 2218.77 236.196 Q2216.9 234.344 2216.9 229.483 L2216.9 215.409 L2213.77 215.409 L2213.77 212.099 L2216.9 212.099 L2216.9 204.738 L2221.18 204.738 Z" fill="#000000" fill-rule="nonzero" fill-opacity="1" /><path clip-path="url(#clip560)" d="M2247.34 224.992 Q2242.18 224.992 2240.19 226.173 Q2238.2 227.353 2238.2 230.201 Q2238.2 232.469 2239.68 233.812 Q2241.18 235.131 2243.75 235.131 Q2247.29 235.131 2249.42 232.631 Q2251.57 230.108 2251.57 225.941 L2251.57 224.992 L2247.34 224.992 M2255.83 223.233 L2255.83 238.025 L2251.57 238.025 L2251.57 234.089 Q2250.12 236.451 2247.94 237.585 Q2245.76 238.696 2242.62 238.696 Q2238.64 238.696 2236.27 236.474 Q2233.94 234.228 2233.94 230.478 Q2233.94 226.103 2236.85 223.881 Q2239.79 221.659 2245.6 221.659 L2251.57 221.659 L2251.57 221.242 Q2251.57 218.303 2249.63 216.705 Q2247.71 215.085 2244.21 215.085 Q2241.99 215.085 2239.89 215.617 Q2237.78 216.15 2235.83 217.215 L2235.83 213.279 Q2238.17 212.377 2240.37 211.937 Q2242.57 211.474 2244.65 211.474 Q2250.28 211.474 2253.06 214.391 Q2255.83 217.307 2255.83 223.233 Z" fill="#000000" fill-rule="nonzero" fill-opacity="1" /></svg>
