<?xml version="1.0" encoding="utf-8"?>
<svg xmlns="http://www.w3.org/2000/svg" xmlns:xlink="http://www.w3.org/1999/xlink" width="600" height="400" viewBox="0 0 2400 1600">
<defs>
  <clipPath id="clip9300">
    <rect x="0" y="0" width="2400" height="1600"/>
  </clipPath>
</defs>
<path clip-path="url(#clip9300)" d="
M0 1600 L2400 1600 L2400 0 L0 0  Z
  " fill="#ffffff" fill-rule="evenodd" fill-opacity="1"/>
<defs>
  <clipPath id="clip9301">
    <rect x="480" y="0" width="1681" height="1600"/>
  </clipPath>
</defs>
<path clip-path="url(#clip9300)" d="
M202.373 1425.62 L2352.76 1425.62 L2352.76 121.675 L202.373 121.675  Z
  " fill="#ffffff" fill-rule="evenodd" fill-opacity="1"/>
<defs>
  <clipPath id="clip9302">
    <rect x="202" y="121" width="2151" height="1305"/>
  </clipPath>
</defs>
<polyline clip-path="url(#clip9302)" style="stroke:#000000; stroke-width:2; stroke-opacity:0.1; fill:none" points="
  357.589,1425.62 357.589,121.675 
  "/>
<polyline clip-path="url(#clip9302)" style="stroke:#000000; stroke-width:2; stroke-opacity:0.1; fill:none" points="
  829.371,1425.62 829.371,121.675 
  "/>
<polyline clip-path="url(#clip9302)" style="stroke:#000000; stroke-width:2; stroke-opacity:0.1; fill:none" points="
  1301.15,1425.62 1301.15,121.675 
  "/>
<polyline clip-path="url(#clip9302)" style="stroke:#000000; stroke-width:2; stroke-opacity:0.1; fill:none" points="
  1772.94,1425.62 1772.94,121.675 
  "/>
<polyline clip-path="url(#clip9302)" style="stroke:#000000; stroke-width:2; stroke-opacity:0.1; fill:none" points="
  2244.72,1425.62 2244.72,121.675 
  "/>
<polyline clip-path="url(#clip9302)" style="stroke:#000000; stroke-width:2; stroke-opacity:0.1; fill:none" points="
  202.373,1388.71 2352.76,1388.71 
  "/>
<polyline clip-path="url(#clip9302)" style="stroke:#000000; stroke-width:2; stroke-opacity:0.1; fill:none" points="
  202.373,1004.04 2352.76,1004.04 
  "/>
<polyline clip-path="url(#clip9302)" style="stroke:#000000; stroke-width:2; stroke-opacity:0.1; fill:none" points="
  202.373,619.362 2352.76,619.362 
  "/>
<polyline clip-path="url(#clip9302)" style="stroke:#000000; stroke-width:2; stroke-opacity:0.1; fill:none" points="
  202.373,234.686 2352.76,234.686 
  "/>
<polyline clip-path="url(#clip9300)" style="stroke:#000000; stroke-width:4; stroke-opacity:1; fill:none" points="
  202.373,1425.62 2352.76,1425.62 
  "/>
<polyline clip-path="url(#clip9300)" style="stroke:#000000; stroke-width:4; stroke-opacity:1; fill:none" points="
  202.373,1425.62 202.373,121.675 
  "/>
<polyline clip-path="url(#clip9300)" style="stroke:#000000; stroke-width:4; stroke-opacity:1; fill:none" points="
  357.589,1425.62 357.589,1409.97 
  "/>
<polyline clip-path="url(#clip9300)" style="stroke:#000000; stroke-width:4; stroke-opacity:1; fill:none" points="
  829.371,1425.62 829.371,1409.97 
  "/>
<polyline clip-path="url(#clip9300)" style="stroke:#000000; stroke-width:4; stroke-opacity:1; fill:none" points="
  1301.15,1425.62 1301.15,1409.97 
  "/>
<polyline clip-path="url(#clip9300)" style="stroke:#000000; stroke-width:4; stroke-opacity:1; fill:none" points="
  1772.94,1425.62 1772.94,1409.97 
  "/>
<polyline clip-path="url(#clip9300)" style="stroke:#000000; stroke-width:4; stroke-opacity:1; fill:none" points="
  2244.72,1425.62 2244.72,1409.97 
  "/>
<polyline clip-path="url(#clip9300)" style="stroke:#000000; stroke-width:4; stroke-opacity:1; fill:none" points="
  202.373,1388.71 228.178,1388.71 
  "/>
<polyline clip-path="url(#clip9300)" style="stroke:#000000; stroke-width:4; stroke-opacity:1; fill:none" points="
  202.373,1004.04 228.178,1004.04 
  "/>
<polyline clip-path="url(#clip9300)" style="stroke:#000000; stroke-width:4; stroke-opacity:1; fill:none" points="
  202.373,619.362 228.178,619.362 
  "/>
<polyline clip-path="url(#clip9300)" style="stroke:#000000; stroke-width:4; stroke-opacity:1; fill:none" points="
  202.373,234.686 228.178,234.686 
  "/>
<g clip-path="url(#clip9300)">
<text style="fill:#000000; fill-opacity:1; font-family:Arial,Helvetica Neue,Helvetica,sans-serif; font-size:48px; text-anchor:middle;" transform="rotate(0, 357.589, 1479.62)" x="357.589" y="1479.62">-1.10</text>
</g>
<g clip-path="url(#clip9300)">
<text style="fill:#000000; fill-opacity:1; font-family:Arial,Helvetica Neue,Helvetica,sans-serif; font-size:48px; text-anchor:middle;" transform="rotate(0, 829.371, 1479.62)" x="829.371" y="1479.62">-1.05</text>
</g>
<g clip-path="url(#clip9300)">
<text style="fill:#000000; fill-opacity:1; font-family:Arial,Helvetica Neue,Helvetica,sans-serif; font-size:48px; text-anchor:middle;" transform="rotate(0, 1301.15, 1479.62)" x="1301.15" y="1479.62">-1.00</text>
</g>
<g clip-path="url(#clip9300)">
<text style="fill:#000000; fill-opacity:1; font-family:Arial,Helvetica Neue,Helvetica,sans-serif; font-size:48px; text-anchor:middle;" transform="rotate(0, 1772.94, 1479.62)" x="1772.94" y="1479.62">-0.95</text>
</g>
<g clip-path="url(#clip9300)">
<text style="fill:#000000; fill-opacity:1; font-family:Arial,Helvetica Neue,Helvetica,sans-serif; font-size:48px; text-anchor:middle;" transform="rotate(0, 2244.72, 1479.62)" x="2244.72" y="1479.62">-0.90</text>
</g>
<g clip-path="url(#clip9300)">
<text style="fill:#000000; fill-opacity:1; font-family:Arial,Helvetica Neue,Helvetica,sans-serif; font-size:48px; text-anchor:end;" transform="rotate(0, 178.373, 1406.21)" x="178.373" y="1406.21">0</text>
</g>
<g clip-path="url(#clip9300)">
<text style="fill:#000000; fill-opacity:1; font-family:Arial,Helvetica Neue,Helvetica,sans-serif; font-size:48px; text-anchor:end;" transform="rotate(0, 178.373, 1021.54)" x="178.373" y="1021.54">5</text>
</g>
<g clip-path="url(#clip9300)">
<text style="fill:#000000; fill-opacity:1; font-family:Arial,Helvetica Neue,Helvetica,sans-serif; font-size:48px; text-anchor:end;" transform="rotate(0, 178.373, 636.862)" x="178.373" y="636.862">10</text>
</g>
<g clip-path="url(#clip9300)">
<text style="fill:#000000; fill-opacity:1; font-family:Arial,Helvetica Neue,Helvetica,sans-serif; font-size:48px; text-anchor:end;" transform="rotate(0, 178.373, 252.186)" x="178.373" y="252.186">15</text>
</g>
<g clip-path="url(#clip9300)">
<text style="fill:#000000; fill-opacity:1; font-family:Arial,Helvetica Neue,Helvetica,sans-serif; font-size:84px; text-anchor:middle;" transform="rotate(0, 1277.56, 73.2)" x="1277.56" y="73.2">Marginalized Distribution for mu_1</text>
</g>
<g clip-path="url(#clip9300)">
<text style="fill:#000000; fill-opacity:1; font-family:Arial,Helvetica Neue,Helvetica,sans-serif; font-size:66px; text-anchor:middle;" transform="rotate(0, 1277.56, 1559.48)" x="1277.56" y="1559.48">mu_1</text>
</g>
<g clip-path="url(#clip9300)">
<text style="fill:#000000; fill-opacity:1; font-family:Arial,Helvetica Neue,Helvetica,sans-serif; font-size:66px; text-anchor:middle;" transform="rotate(-90, 89.2861, 773.647)" x="89.2861" y="773.647">P(mu_1)</text>
</g>
<path clip-path="url(#clip9302)" d="
M263.233 1388.71 L310.411 1388.71 L310.411 1388.71 L357.589 1388.71 L357.589 1388.71 L404.767 1388.71 L404.767 1388.71 L451.946 1388.71 L451.946 1388.71 L499.124 1388.71 
  L499.124 1388.71 L546.302 1388.71 L546.302 1371.87 L593.48 1371.87 L593.48 1365.04 L640.659 1365.04 L640.659 1335.4 L687.837 1335.4 L687.837 1313.54 L735.015 1313.54 
  L735.015 1252.87 L782.193 1252.87 L782.193 1219.82 L829.371 1219.82 L829.371 1158.08 L876.55 1158.08 L876.55 1016.27 L923.728 1016.27 L923.728 938.544 L970.906 938.544 
  L970.906 806.116 L1018.08 806.116 L1018.08 661.532 L1065.26 661.532 L1065.26 498.396 L1112.44 498.396 L1112.44 439.859 L1159.62 439.859 L1159.62 310.523 L1206.8 310.523 
  L1206.8 232.58 L1253.98 232.58 L1253.98 194.408 L1301.15 194.408 L1301.15 214.88 L1348.33 214.88 L1348.33 251.133 L1395.51 251.133 L1395.51 360.85 L1442.69 360.85 
  L1442.69 469.181 L1489.87 469.181 L1489.87 623.147 L1537.04 623.147 L1537.04 772.316 L1584.22 772.316 L1584.22 893.015 L1631.4 893.015 L1631.4 1012.97 L1678.58 1012.97 
  L1678.58 1118.63 L1725.76 1118.63 L1725.76 1212.89 L1772.94 1212.89 L1772.94 1268.12 L1820.11 1268.12 L1820.11 1308.53 L1867.29 1308.53 L1867.29 1344.68 L1914.47 1344.68 
  L1914.47 1360.78 L1961.65 1360.78 L1961.65 1369.84 L2008.83 1369.84 L2008.83 1388.71 L2056 1388.71 L2056 1388.71 L2103.18 1388.71 L2103.18 1388.71 L2150.36 1388.71 
  L2150.36 1388.71 L2197.54 1388.71 L2197.54 1388.71 L2244.72 1388.71 L2244.72 1388.71 L2291.9 1388.71 L2291.9 1388.71 L2291.9 1388.71 L2291.9 1388.71 L2244.72 1388.71 
  L2244.72 1388.71 L2197.54 1388.71 L2197.54 1388.71 L2150.36 1388.71 L2150.36 1388.71 L2103.18 1388.71 L2103.18 1388.71 L2056 1388.71 L2056 1388.71 L2008.83 1388.71 
  L2008.83 1388.71 L1961.65 1388.71 L1961.65 1388.71 L1914.47 1388.71 L1914.47 1388.71 L1867.29 1388.71 L1867.29 1388.71 L1820.11 1388.71 L1820.11 1388.71 L1772.94 1388.71 
  L1772.94 1388.71 L1725.76 1388.71 L1725.76 1388.71 L1678.58 1388.71 L1678.58 1388.71 L1631.4 1388.71 L1631.4 1388.71 L1584.22 1388.71 L1584.22 1388.71 L1537.04 1388.71 
  L1537.04 1388.71 L1489.87 1388.71 L1489.87 1388.71 L1442.69 1388.71 L1442.69 1388.71 L1395.51 1388.71 L1395.51 1388.71 L1348.33 1388.71 L1348.33 1388.71 L1301.15 1388.71 
  L1301.15 1388.71 L1253.98 1388.71 L1253.98 1388.71 L1206.8 1388.71 L1206.8 1388.71 L1159.62 1388.71 L1159.62 1388.71 L1112.44 1388.71 L1112.44 1388.71 L1065.26 1388.71 
  L1065.26 1388.71 L1018.08 1388.71 L1018.08 1388.71 L970.906 1388.71 L970.906 1388.71 L923.728 1388.71 L923.728 1388.71 L876.55 1388.71 L876.55 1388.71 L829.371 1388.71 
  L829.371 1388.71 L782.193 1388.71 L782.193 1388.71 L735.015 1388.71 L735.015 1388.71 L687.837 1388.71 L687.837 1388.71 L640.659 1388.71 L640.659 1388.71 L593.48 1388.71 
  L593.48 1388.71 L546.302 1388.71 L546.302 1388.71 L499.124 1388.71 L499.124 1388.71 L451.946 1388.71 L451.946 1388.71 L404.767 1388.71 L404.767 1388.71 L357.589 1388.71 
  L357.589 1388.71 L310.411 1388.71 L310.411 1388.71 L263.233 1388.71  Z
  " fill="#ff0000" fill-rule="evenodd" fill-opacity="1"/>
<polyline clip-path="url(#clip9302)" style="stroke:#009af9; stroke-width:0; stroke-opacity:1; fill:none" points="
  263.233,1388.71 310.411,1388.71 357.589,1388.71 404.767,1388.71 451.946,1388.71 499.124,1388.71 
  546.302,1388.71 546.302,1371.87 593.48,1371.87 593.48,1365.04 640.659,1365.04 640.659,1335.4 687.837,1335.4 687.837,1313.54 735.015,1313.54 
  735.015,1252.87 782.193,1252.87 782.193,1219.82 829.371,1219.82 829.371,1158.08 876.55,1158.08 876.55,1016.27 923.728,1016.27 923.728,938.544 970.906,938.544 
  970.906,806.116 1018.08,806.116 1018.08,661.532 1065.26,661.532 1065.26,498.396 1112.44,498.396 1112.44,439.859 1159.62,439.859 1159.62,310.523 1206.8,310.523 
  1206.8,232.58 1253.98,232.58 1253.98,194.408 1301.15,194.408 1301.15,214.88 1348.33,214.88 1348.33,251.133 1395.51,251.133 1395.51,360.85 1442.69,360.85 
  1442.69,469.181 1489.87,469.181 1489.87,623.147 1537.04,623.147 1537.04,772.316 1584.22,772.316 1584.22,893.015 1631.4,893.015 1631.4,1012.97 1678.58,1012.97 
  1678.58,1118.63 1725.76,1118.63 1725.76,1212.89 1772.94,1212.89 1772.94,1268.12 1820.11,1268.12 1820.11,1308.53 1867.29,1308.53 1867.29,1344.68 1914.47,1344.68 
  1914.47,1360.78 1961.65,1360.78 1961.65,1369.84 2008.83,1369.84 2008.83,1388.71 2056,1388.71 2103.18,1388.71 2150.36,1388.71 
  2197.54,1388.71 2244.72,1388.71 2291.9,1388.71 
  "/>
<path clip-path="url(#clip9302)" d="
M263.233 1388.71 L310.411 1388.71 L310.411 1388.71 L357.589 1388.71 L357.589 1388.71 L404.767 1388.71 L404.767 1388.71 L451.946 1388.71 L451.946 1388.71 L499.124 1388.71 
  L499.124 1388.71 L546.302 1388.71 L546.302 1388.71 L593.48 1388.71 L593.48 1388.71 L640.659 1388.71 L640.659 1388.71 L687.837 1388.71 L687.837 1388.71 L735.015 1388.71 
  L735.015 1388.71 L782.193 1388.71 L782.193 1219.82 L829.371 1219.82 L829.371 1158.08 L876.55 1158.08 L876.55 1016.27 L923.728 1016.27 L923.728 938.544 L970.906 938.544 
  L970.906 806.116 L1018.08 806.116 L1018.08 661.532 L1065.26 661.532 L1065.26 498.396 L1112.44 498.396 L1112.44 439.859 L1159.62 439.859 L1159.62 310.523 L1206.8 310.523 
  L1206.8 232.58 L1253.98 232.58 L1253.98 194.408 L1301.15 194.408 L1301.15 214.88 L1348.33 214.88 L1348.33 251.133 L1395.51 251.133 L1395.51 360.85 L1442.69 360.85 
  L1442.69 469.181 L1489.87 469.181 L1489.87 623.147 L1537.04 623.147 L1537.04 772.316 L1584.22 772.316 L1584.22 893.015 L1631.4 893.015 L1631.4 1012.97 L1678.58 1012.97 
  L1678.58 1118.63 L1725.76 1118.63 L1725.76 1212.89 L1772.94 1212.89 L1772.94 1388.71 L1820.11 1388.71 L1820.11 1388.71 L1867.29 1388.71 L1867.29 1388.71 L1914.47 1388.71 
  L1914.47 1388.71 L1961.65 1388.71 L1961.65 1388.71 L2008.83 1388.71 L2008.83 1388.71 L2056 1388.71 L2056 1388.71 L2103.18 1388.71 L2103.18 1388.71 L2150.36 1388.71 
  L2150.36 1388.71 L2197.54 1388.71 L2197.54 1388.71 L2244.72 1388.71 L2244.72 1388.71 L2291.9 1388.71 L2291.9 1388.71 L2291.9 1388.71 L2291.9 1388.71 L2244.72 1388.71 
  L2244.72 1388.71 L2197.54 1388.71 L2197.54 1388.71 L2150.36 1388.71 L2150.36 1388.71 L2103.18 1388.71 L2103.18 1388.71 L2056 1388.71 L2056 1388.71 L2008.83 1388.71 
  L2008.83 1388.71 L1961.65 1388.71 L1961.65 1388.71 L1914.47 1388.71 L1914.47 1388.71 L1867.29 1388.71 L1867.29 1388.71 L1820.11 1388.71 L1820.11 1388.71 L1772.94 1388.71 
  L1772.94 1388.71 L1725.76 1388.71 L1725.76 1388.71 L1678.58 1388.71 L1678.58 1388.71 L1631.4 1388.71 L1631.4 1388.71 L1584.22 1388.71 L1584.22 1388.71 L1537.04 1388.71 
  L1537.04 1388.71 L1489.87 1388.71 L1489.87 1388.71 L1442.69 1388.71 L1442.69 1388.71 L1395.51 1388.71 L1395.51 1388.71 L1348.33 1388.71 L1348.33 1388.71 L1301.15 1388.71 
  L1301.15 1388.71 L1253.98 1388.71 L1253.98 1388.71 L1206.8 1388.71 L1206.8 1388.71 L1159.62 1388.71 L1159.62 1388.71 L1112.44 1388.71 L1112.44 1388.71 L1065.26 1388.71 
  L1065.26 1388.71 L1018.08 1388.71 L1018.08 1388.71 L970.906 1388.71 L970.906 1388.71 L923.728 1388.71 L923.728 1388.71 L876.55 1388.71 L876.55 1388.71 L829.371 1388.71 
  L829.371 1388.71 L782.193 1388.71 L782.193 1388.71 L735.015 1388.71 L735.015 1388.71 L687.837 1388.71 L687.837 1388.71 L640.659 1388.71 L640.659 1388.71 L593.48 1388.71 
  L593.48 1388.71 L546.302 1388.71 L546.302 1388.71 L499.124 1388.71 L499.124 1388.71 L451.946 1388.71 L451.946 1388.71 L404.767 1388.71 L404.767 1388.71 L357.589 1388.71 
  L357.589 1388.71 L310.411 1388.71 L310.411 1388.71 L263.233 1388.71  Z
  " fill="#ffff00" fill-rule="evenodd" fill-opacity="1"/>
<polyline clip-path="url(#clip9302)" style="stroke:#e26f46; stroke-width:0; stroke-opacity:1; fill:none" points="
  263.233,1388.71 310.411,1388.71 357.589,1388.71 404.767,1388.71 451.946,1388.71 499.124,1388.71 
  546.302,1388.71 593.48,1388.71 640.659,1388.71 687.837,1388.71 735.015,1388.71 
  782.193,1388.71 782.193,1219.82 829.371,1219.82 829.371,1158.08 876.55,1158.08 876.55,1016.27 923.728,1016.27 923.728,938.544 970.906,938.544 
  970.906,806.116 1018.08,806.116 1018.08,661.532 1065.26,661.532 1065.26,498.396 1112.44,498.396 1112.44,439.859 1159.62,439.859 1159.62,310.523 1206.8,310.523 
  1206.8,232.58 1253.98,232.58 1253.98,194.408 1301.15,194.408 1301.15,214.88 1348.33,214.88 1348.33,251.133 1395.51,251.133 1395.51,360.85 1442.69,360.85 
  1442.69,469.181 1489.87,469.181 1489.87,623.147 1537.04,623.147 1537.04,772.316 1584.22,772.316 1584.22,893.015 1631.4,893.015 1631.4,1012.97 1678.58,1012.97 
  1678.58,1118.63 1725.76,1118.63 1725.76,1212.89 1772.94,1212.89 1772.94,1388.71 1820.11,1388.71 1867.29,1388.71 1914.47,1388.71 
  1961.65,1388.71 2008.83,1388.71 2056,1388.71 2103.18,1388.71 2150.36,1388.71 
  2197.54,1388.71 2244.72,1388.71 2291.9,1388.71 
  "/>
<path clip-path="url(#clip9302)" d="
M263.233 1388.71 L310.411 1388.71 L310.411 1388.71 L357.589 1388.71 L357.589 1388.71 L404.767 1388.71 L404.767 1388.71 L451.946 1388.71 L451.946 1388.71 L499.124 1388.71 
  L499.124 1388.71 L546.302 1388.71 L546.302 1388.71 L593.48 1388.71 L593.48 1388.71 L640.659 1388.71 L640.659 1388.71 L687.837 1388.71 L687.837 1388.71 L735.015 1388.71 
  L735.015 1388.71 L782.193 1388.71 L782.193 1388.71 L829.371 1388.71 L829.371 1388.71 L876.55 1388.71 L876.55 1388.71 L923.728 1388.71 L923.728 1388.71 L970.906 1388.71 
  L970.906 1388.71 L1018.08 1388.71 L1018.08 661.532 L1065.26 661.532 L1065.26 498.396 L1112.44 498.396 L1112.44 439.859 L1159.62 439.859 L1159.62 310.523 L1206.8 310.523 
  L1206.8 232.58 L1253.98 232.58 L1253.98 194.408 L1301.15 194.408 L1301.15 214.88 L1348.33 214.88 L1348.33 251.133 L1395.51 251.133 L1395.51 360.85 L1442.69 360.85 
  L1442.69 469.181 L1489.87 469.181 L1489.87 623.147 L1537.04 623.147 L1537.04 1388.71 L1584.22 1388.71 L1584.22 1388.71 L1631.4 1388.71 L1631.4 1388.71 L1678.58 1388.71 
  L1678.58 1388.71 L1725.76 1388.71 L1725.76 1388.71 L1772.94 1388.71 L1772.94 1388.71 L1820.11 1388.71 L1820.11 1388.71 L1867.29 1388.71 L1867.29 1388.71 L1914.47 1388.71 
  L1914.47 1388.71 L1961.65 1388.71 L1961.65 1388.71 L2008.83 1388.71 L2008.83 1388.71 L2056 1388.71 L2056 1388.71 L2103.18 1388.71 L2103.18 1388.71 L2150.36 1388.71 
  L2150.36 1388.71 L2197.54 1388.71 L2197.54 1388.71 L2244.72 1388.71 L2244.72 1388.71 L2291.9 1388.71 L2291.9 1388.71 L2291.9 1388.71 L2291.9 1388.71 L2244.72 1388.71 
  L2244.72 1388.71 L2197.54 1388.71 L2197.54 1388.71 L2150.36 1388.71 L2150.36 1388.71 L2103.18 1388.71 L2103.18 1388.71 L2056 1388.71 L2056 1388.71 L2008.83 1388.71 
  L2008.83 1388.71 L1961.65 1388.71 L1961.65 1388.71 L1914.47 1388.71 L1914.47 1388.71 L1867.29 1388.71 L1867.29 1388.71 L1820.11 1388.71 L1820.11 1388.71 L1772.94 1388.71 
  L1772.94 1388.71 L1725.76 1388.71 L1725.76 1388.71 L1678.58 1388.71 L1678.58 1388.71 L1631.4 1388.71 L1631.4 1388.71 L1584.22 1388.71 L1584.22 1388.71 L1537.04 1388.71 
  L1537.04 1388.71 L1489.87 1388.71 L1489.87 1388.71 L1442.69 1388.71 L1442.69 1388.71 L1395.51 1388.71 L1395.51 1388.71 L1348.33 1388.71 L1348.33 1388.71 L1301.15 1388.71 
  L1301.15 1388.71 L1253.98 1388.71 L1253.98 1388.71 L1206.8 1388.71 L1206.8 1388.71 L1159.62 1388.71 L1159.62 1388.71 L1112.44 1388.71 L1112.44 1388.71 L1065.26 1388.71 
  L1065.26 1388.71 L1018.08 1388.71 L1018.08 1388.71 L970.906 1388.71 L970.906 1388.71 L923.728 1388.71 L923.728 1388.71 L876.55 1388.71 L876.55 1388.71 L829.371 1388.71 
  L829.371 1388.71 L782.193 1388.71 L782.193 1388.71 L735.015 1388.71 L735.015 1388.71 L687.837 1388.71 L687.837 1388.71 L640.659 1388.71 L640.659 1388.71 L593.48 1388.71 
  L593.48 1388.71 L546.302 1388.71 L546.302 1388.71 L499.124 1388.71 L499.124 1388.71 L451.946 1388.71 L451.946 1388.71 L404.767 1388.71 L404.767 1388.71 L357.589 1388.71 
  L357.589 1388.71 L310.411 1388.71 L310.411 1388.71 L263.233 1388.71  Z
  " fill="#76ee00" fill-rule="evenodd" fill-opacity="1"/>
<polyline clip-path="url(#clip9302)" style="stroke:#3da44d; stroke-width:0; stroke-opacity:1; fill:none" points="
  263.233,1388.71 310.411,1388.71 357.589,1388.71 404.767,1388.71 451.946,1388.71 499.124,1388.71 
  546.302,1388.71 593.48,1388.71 640.659,1388.71 687.837,1388.71 735.015,1388.71 
  782.193,1388.71 829.371,1388.71 876.55,1388.71 923.728,1388.71 970.906,1388.71 
  1018.08,1388.71 1018.08,661.532 1065.26,661.532 1065.26,498.396 1112.44,498.396 1112.44,439.859 1159.62,439.859 1159.62,310.523 1206.8,310.523 
  1206.8,232.58 1253.98,232.58 1253.98,194.408 1301.15,194.408 1301.15,214.88 1348.33,214.88 1348.33,251.133 1395.51,251.133 1395.51,360.85 1442.69,360.85 
  1442.69,469.181 1489.87,469.181 1489.87,623.147 1537.04,623.147 1537.04,1388.71 1584.22,1388.71 1631.4,1388.71 1678.58,1388.71 
  1725.76,1388.71 1772.94,1388.71 1820.11,1388.71 1867.29,1388.71 1914.47,1388.71 
  1961.65,1388.71 2008.83,1388.71 2056,1388.71 2103.18,1388.71 2150.36,1388.71 
  2197.54,1388.71 2244.72,1388.71 2291.9,1388.71 
  "/>
<polyline clip-path="url(#clip9302)" style="stroke:#000000; stroke-width:2.8; stroke-opacity:1; fill:none" points="
  263.233,1387.12 310.411,1387.12 310.411,1387.65 357.589,1387.65 357.589,1387.12 404.767,1387.12 451.946,1387.12 451.946,1386.05 499.124,1386.05 
  499.124,1381.46 546.302,1381.46 546.302,1371.87 593.48,1371.87 593.48,1365.04 640.659,1365.04 640.659,1335.4 687.837,1335.4 687.837,1313.54 735.015,1313.54 
  735.015,1252.87 782.193,1252.87 782.193,1219.82 829.371,1219.82 829.371,1158.08 876.55,1158.08 876.55,1016.27 923.728,1016.27 923.728,938.544 970.906,938.544 
  970.906,806.116 1018.08,806.116 1018.08,661.532 1065.26,661.532 1065.26,498.396 1112.44,498.396 1112.44,439.859 1159.62,439.859 1159.62,310.523 1206.8,310.523 
  1206.8,232.58 1253.98,232.58 1253.98,194.408 1301.15,194.408 1301.15,214.88 1348.33,214.88 1348.33,251.133 1395.51,251.133 1395.51,360.85 1442.69,360.85 
  1442.69,469.181 1489.87,469.181 1489.87,623.147 1537.04,623.147 1537.04,772.316 1584.22,772.316 1584.22,893.015 1631.4,893.015 1631.4,1012.97 1678.58,1012.97 
  1678.58,1118.63 1725.76,1118.63 1725.76,1212.89 1772.94,1212.89 1772.94,1268.12 1820.11,1268.12 1820.11,1308.53 1867.29,1308.53 1867.29,1344.68 1914.47,1344.68 
  1914.47,1360.78 1961.65,1360.78 1961.65,1369.84 2008.83,1369.84 2008.83,1382.21 2056,1382.21 2056,1383.81 2103.18,1383.81 2103.18,1385.94 2150.36,1385.94 
  2150.36,1386.8 2197.54,1386.8 2197.54,1388.39 2244.72,1388.39 2244.72,1388.29 2291.9,1388.29 2291.9,1388.61 
  "/>
<path clip-path="url(#clip9302)" d="
M1040.42 1388.71 L1523.85 1388.71 L1523.85 158.579 L1040.42 158.579 L1040.42 1388.71  Z
  " fill="#808080" fill-rule="evenodd" fill-opacity="0.5"/>
<polyline clip-path="url(#clip9302)" style="stroke:#000000; stroke-width:0; stroke-opacity:1; fill:none" points="
  1040.42,1388.71 1523.85,1388.71 1523.85,158.579 1040.42,158.579 1040.42,1388.71 
  "/>
<polyline clip-path="url(#clip9302)" style="stroke:#696969; stroke-width:4; stroke-opacity:1; fill:none" points="
  1282.13,1388.71 1282.13,158.579 
  "/>
<polyline clip-path="url(#clip9302)" style="stroke:#000000; stroke-width:4; stroke-opacity:1; fill:none" stroke-dasharray="16, 10" points="
  1300.31,1388.71 1300.31,158.579 
  "/>
<polyline clip-path="url(#clip9302)" style="stroke:#000000; stroke-width:4; stroke-opacity:1; fill:none" stroke-dasharray="2, 4" points="
  1277.56,1388.71 1277.56,158.579 
  "/>
<path clip-path="url(#clip9300)" d="
M1463.01 689.035 L2280.76 689.035 L2280.76 205.195 L1463.01 205.195  Z
  " fill="#ffffff" fill-rule="evenodd" fill-opacity="1"/>
<polyline clip-path="url(#clip9300)" style="stroke:#000000; stroke-width:4; stroke-opacity:1; fill:none" points="
  1463.01,689.035 2280.76,689.035 2280.76,205.195 1463.01,205.195 1463.01,689.035 
  "/>
<path clip-path="url(#clip9300)" d="
M1487.01 289.867 L1631.01 289.867 L1631.01 241.483 L1487.01 241.483 L1487.01 289.867  Z
  " fill="#ff0000" fill-rule="evenodd" fill-opacity="1"/>
<polyline clip-path="url(#clip9300)" style="stroke:#009af9; stroke-width:0; stroke-opacity:1; fill:none" points="
  1487.01,241.483 1631.01,241.483 
  "/>
<g clip-path="url(#clip9300)">
<text style="fill:#000000; fill-opacity:1; font-family:Arial,Helvetica Neue,Helvetica,sans-serif; font-size:48px; text-anchor:start;" transform="rotate(0, 1655.01, 283.175)" x="1655.01" y="283.175">smallest 99.79% interval(s)</text>
</g>
<path clip-path="url(#clip9300)" d="
M1487.01 350.347 L1631.01 350.347 L1631.01 301.963 L1487.01 301.963 L1487.01 350.347  Z
  " fill="#ffff00" fill-rule="evenodd" fill-opacity="1"/>
<polyline clip-path="url(#clip9300)" style="stroke:#e26f46; stroke-width:0; stroke-opacity:1; fill:none" points="
  1487.01,301.963 1631.01,301.963 
  "/>
<g clip-path="url(#clip9300)">
<text style="fill:#000000; fill-opacity:1; font-family:Arial,Helvetica Neue,Helvetica,sans-serif; font-size:48px; text-anchor:start;" transform="rotate(0, 1655.01, 343.655)" x="1655.01" y="343.655">smallest 95.91% interval(s)</text>
</g>
<path clip-path="url(#clip9300)" d="
M1487.01 410.827 L1631.01 410.827 L1631.01 362.443 L1487.01 362.443 L1487.01 410.827  Z
  " fill="#76ee00" fill-rule="evenodd" fill-opacity="1"/>
<polyline clip-path="url(#clip9300)" style="stroke:#3da44d; stroke-width:0; stroke-opacity:1; fill:none" points="
  1487.01,362.443 1631.01,362.443 
  "/>
<g clip-path="url(#clip9300)">
<text style="fill:#000000; fill-opacity:1; font-family:Arial,Helvetica Neue,Helvetica,sans-serif; font-size:48px; text-anchor:start;" transform="rotate(0, 1655.01, 404.135)" x="1655.01" y="404.135">smallest 71.61% interval(s)</text>
</g>
<path clip-path="url(#clip9300)" d="
M1487.01 471.307 L1631.01 471.307 L1631.01 422.923 L1487.01 422.923 L1487.01 471.307  Z
  " fill="#808080" fill-rule="evenodd" fill-opacity="0.5"/>
<polyline clip-path="url(#clip9300)" style="stroke:#000000; stroke-width:0; stroke-opacity:1; fill:none" points="
  1487.01,471.307 1631.01,471.307 1631.01,422.923 1487.01,422.923 1487.01,471.307 
  "/>
<g clip-path="url(#clip9300)">
<text style="fill:#000000; fill-opacity:1; font-family:Arial,Helvetica Neue,Helvetica,sans-serif; font-size:48px; text-anchor:start;" transform="rotate(0, 1655.01, 464.615)" x="1655.01" y="464.615">std. dev.</text>
</g>
<polyline clip-path="url(#clip9300)" style="stroke:#696969; stroke-width:4; stroke-opacity:1; fill:none" points="
  1487.01,507.595 1631.01,507.595 
  "/>
<g clip-path="url(#clip9300)">
<text style="fill:#000000; fill-opacity:1; font-family:Arial,Helvetica Neue,Helvetica,sans-serif; font-size:48px; text-anchor:start;" transform="rotate(0, 1655.01, 525.095)" x="1655.01" y="525.095">mean</text>
</g>
<polyline clip-path="url(#clip9300)" style="stroke:#000000; stroke-width:4; stroke-opacity:1; fill:none" stroke-dasharray="16, 10" points="
  1487.01,568.075 1631.01,568.075 
  "/>
<g clip-path="url(#clip9300)">
<text style="fill:#000000; fill-opacity:1; font-family:Arial,Helvetica Neue,Helvetica,sans-serif; font-size:48px; text-anchor:start;" transform="rotate(0, 1655.01, 585.575)" x="1655.01" y="585.575">global mode</text>
</g>
<polyline clip-path="url(#clip9300)" style="stroke:#000000; stroke-width:4; stroke-opacity:1; fill:none" stroke-dasharray="2, 4" points="
  1487.01,628.555 1631.01,628.555 
  "/>
<g clip-path="url(#clip9300)">
<text style="fill:#000000; fill-opacity:1; font-family:Arial,Helvetica Neue,Helvetica,sans-serif; font-size:48px; text-anchor:start;" transform="rotate(0, 1655.01, 646.055)" x="1655.01" y="646.055">local mode</text>
</g>
</svg>
