<?xml version="1.0" encoding="utf-8"?>
<svg xmlns="http://www.w3.org/2000/svg" xmlns:xlink="http://www.w3.org/1999/xlink" width="600" height="400" viewBox="0 0 2400 1600">
<defs>
  <clipPath id="clip0200">
    <rect x="0" y="0" width="2400" height="1600"/>
  </clipPath>
</defs>
<path clip-path="url(#clip0200)" d="
M0 1600 L2400 1600 L2400 0 L0 0  Z
  " fill="#ffffff" fill-rule="evenodd" fill-opacity="1"/>
<defs>
  <clipPath id="clip0201">
    <rect x="480" y="0" width="1681" height="1600"/>
  </clipPath>
</defs>
<path clip-path="url(#clip0200)" d="
M167.279 1487.47 L2352.76 1487.47 L2352.76 121.675 L167.279 121.675  Z
  " fill="#ffffff" fill-rule="evenodd" fill-opacity="1"/>
<defs>
  <clipPath id="clip0202">
    <rect x="167" y="121" width="2186" height="1367"/>
  </clipPath>
</defs>
<polyline clip-path="url(#clip0202)" style="stroke:#000000; stroke-width:2; stroke-opacity:0.1; fill:none" points="
  229.132,1487.47 229.132,121.675 
  "/>
<polyline clip-path="url(#clip0202)" style="stroke:#000000; stroke-width:2; stroke-opacity:0.1; fill:none" points="
  744.575,1487.47 744.575,121.675 
  "/>
<polyline clip-path="url(#clip0202)" style="stroke:#000000; stroke-width:2; stroke-opacity:0.1; fill:none" points="
  1260.02,1487.47 1260.02,121.675 
  "/>
<polyline clip-path="url(#clip0202)" style="stroke:#000000; stroke-width:2; stroke-opacity:0.1; fill:none" points="
  1775.46,1487.47 1775.46,121.675 
  "/>
<polyline clip-path="url(#clip0202)" style="stroke:#000000; stroke-width:2; stroke-opacity:0.1; fill:none" points="
  2290.9,1487.47 2290.9,121.675 
  "/>
<polyline clip-path="url(#clip0202)" style="stroke:#000000; stroke-width:2; stroke-opacity:0.1; fill:none" points="
  167.279,1448.82 2352.76,1448.82 
  "/>
<polyline clip-path="url(#clip0202)" style="stroke:#000000; stroke-width:2; stroke-opacity:0.1; fill:none" points="
  167.279,1134.55 2352.76,1134.55 
  "/>
<polyline clip-path="url(#clip0202)" style="stroke:#000000; stroke-width:2; stroke-opacity:0.1; fill:none" points="
  167.279,820.288 2352.76,820.288 
  "/>
<polyline clip-path="url(#clip0202)" style="stroke:#000000; stroke-width:2; stroke-opacity:0.1; fill:none" points="
  167.279,506.022 2352.76,506.022 
  "/>
<polyline clip-path="url(#clip0202)" style="stroke:#000000; stroke-width:2; stroke-opacity:0.1; fill:none" points="
  167.279,191.756 2352.76,191.756 
  "/>
<polyline clip-path="url(#clip0200)" style="stroke:#000000; stroke-width:4; stroke-opacity:1; fill:none" points="
  167.279,1487.47 2352.76,1487.47 
  "/>
<polyline clip-path="url(#clip0200)" style="stroke:#000000; stroke-width:4; stroke-opacity:1; fill:none" points="
  167.279,1487.47 167.279,121.675 
  "/>
<polyline clip-path="url(#clip0200)" style="stroke:#000000; stroke-width:4; stroke-opacity:1; fill:none" points="
  229.132,1487.47 229.132,1471.09 
  "/>
<polyline clip-path="url(#clip0200)" style="stroke:#000000; stroke-width:4; stroke-opacity:1; fill:none" points="
  744.575,1487.47 744.575,1471.09 
  "/>
<polyline clip-path="url(#clip0200)" style="stroke:#000000; stroke-width:4; stroke-opacity:1; fill:none" points="
  1260.02,1487.47 1260.02,1471.09 
  "/>
<polyline clip-path="url(#clip0200)" style="stroke:#000000; stroke-width:4; stroke-opacity:1; fill:none" points="
  1775.46,1487.47 1775.46,1471.09 
  "/>
<polyline clip-path="url(#clip0200)" style="stroke:#000000; stroke-width:4; stroke-opacity:1; fill:none" points="
  2290.9,1487.47 2290.9,1471.09 
  "/>
<polyline clip-path="url(#clip0200)" style="stroke:#000000; stroke-width:4; stroke-opacity:1; fill:none" points="
  167.279,1448.82 193.505,1448.82 
  "/>
<polyline clip-path="url(#clip0200)" style="stroke:#000000; stroke-width:4; stroke-opacity:1; fill:none" points="
  167.279,1134.55 193.505,1134.55 
  "/>
<polyline clip-path="url(#clip0200)" style="stroke:#000000; stroke-width:4; stroke-opacity:1; fill:none" points="
  167.279,820.288 193.505,820.288 
  "/>
<polyline clip-path="url(#clip0200)" style="stroke:#000000; stroke-width:4; stroke-opacity:1; fill:none" points="
  167.279,506.022 193.505,506.022 
  "/>
<polyline clip-path="url(#clip0200)" style="stroke:#000000; stroke-width:4; stroke-opacity:1; fill:none" points="
  167.279,191.756 193.505,191.756 
  "/>
<g clip-path="url(#clip0200)">
<text style="fill:#000000; fill-opacity:1; font-family:Arial,Helvetica Neue,Helvetica,sans-serif; font-size:48px; text-anchor:middle;" transform="rotate(0, 229.132, 1541.47)" x="229.132" y="1541.47">-4</text>
</g>
<g clip-path="url(#clip0200)">
<text style="fill:#000000; fill-opacity:1; font-family:Arial,Helvetica Neue,Helvetica,sans-serif; font-size:48px; text-anchor:middle;" transform="rotate(0, 744.575, 1541.47)" x="744.575" y="1541.47">-2</text>
</g>
<g clip-path="url(#clip0200)">
<text style="fill:#000000; fill-opacity:1; font-family:Arial,Helvetica Neue,Helvetica,sans-serif; font-size:48px; text-anchor:middle;" transform="rotate(0, 1260.02, 1541.47)" x="1260.02" y="1541.47">0</text>
</g>
<g clip-path="url(#clip0200)">
<text style="fill:#000000; fill-opacity:1; font-family:Arial,Helvetica Neue,Helvetica,sans-serif; font-size:48px; text-anchor:middle;" transform="rotate(0, 1775.46, 1541.47)" x="1775.46" y="1541.47">2</text>
</g>
<g clip-path="url(#clip0200)">
<text style="fill:#000000; fill-opacity:1; font-family:Arial,Helvetica Neue,Helvetica,sans-serif; font-size:48px; text-anchor:middle;" transform="rotate(0, 2290.9, 1541.47)" x="2290.9" y="1541.47">4</text>
</g>
<g clip-path="url(#clip0200)">
<text style="fill:#000000; fill-opacity:1; font-family:Arial,Helvetica Neue,Helvetica,sans-serif; font-size:48px; text-anchor:end;" transform="rotate(0, 143.279, 1466.32)" x="143.279" y="1466.32">0</text>
</g>
<g clip-path="url(#clip0200)">
<text style="fill:#000000; fill-opacity:1; font-family:Arial,Helvetica Neue,Helvetica,sans-serif; font-size:48px; text-anchor:end;" transform="rotate(0, 143.279, 1152.05)" x="143.279" y="1152.05">200</text>
</g>
<g clip-path="url(#clip0200)">
<text style="fill:#000000; fill-opacity:1; font-family:Arial,Helvetica Neue,Helvetica,sans-serif; font-size:48px; text-anchor:end;" transform="rotate(0, 143.279, 837.788)" x="143.279" y="837.788">400</text>
</g>
<g clip-path="url(#clip0200)">
<text style="fill:#000000; fill-opacity:1; font-family:Arial,Helvetica Neue,Helvetica,sans-serif; font-size:48px; text-anchor:end;" transform="rotate(0, 143.279, 523.522)" x="143.279" y="523.522">600</text>
</g>
<g clip-path="url(#clip0200)">
<text style="fill:#000000; fill-opacity:1; font-family:Arial,Helvetica Neue,Helvetica,sans-serif; font-size:48px; text-anchor:end;" transform="rotate(0, 143.279, 209.256)" x="143.279" y="209.256">800</text>
</g>
<g clip-path="url(#clip0200)">
<text style="fill:#000000; fill-opacity:1; font-family:Arial,Helvetica Neue,Helvetica,sans-serif; font-size:84px; text-anchor:middle;" transform="rotate(0, 1260.02, 73.2)" x="1260.02" y="73.2">Data, True Model and Best Fit</text>
</g>
<polyline clip-path="url(#clip0202)" style="stroke:#009af9; stroke-width:4; stroke-opacity:1; fill:none" points="
  744.575,1448.82 744.575,1385.97 770.347,1385.97 796.119,1385.97 796.119,1228.83 821.891,1228.83 847.663,1228.83 847.663,1103.13 
  873.436,1103.13 873.436,867.428 899.208,867.428 899.208,1008.85 924.98,1008.85 924.98,663.155 950.752,663.155 950.752,961.708 976.524,961.708 976.524,726.008 
  1002.3,726.008 1002.3,945.995 1028.07,945.995 1028.07,820.288 1053.84,820.288 1053.84,914.568 1079.61,914.568 1079.61,1008.85 1105.38,1008.85 1105.38,914.568 
  1131.16,914.568 1131.16,1228.83 1156.93,1228.83 1156.93,1197.41 1182.7,1197.41 1182.7,1244.55 1208.47,1244.55 1208.47,1338.83 1234.25,1338.83 1234.25,1354.54 
  1260.02,1354.54 1260.02,1385.97 1285.79,1385.97 1311.56,1385.97 1311.56,1433.11 1337.33,1433.11 1337.33,1401.68 1363.11,1401.68 1363.11,1385.97 
  1388.88,1385.97 1388.88,1401.68 1414.65,1401.68 1414.65,1338.83 1440.42,1338.83 1440.42,1401.68 1466.19,1401.68 1466.19,1354.54 1491.97,1354.54 
  1517.74,1354.54 1517.74,1244.55 1543.51,1244.55 1543.51,1103.13 1569.28,1103.13 1569.28,1071.7 1595.06,1071.7 1595.06,977.421 1620.83,977.421 1620.83,883.141 
  1646.6,883.141 1646.6,474.596 1672.37,474.596 1672.37,427.456 1698.14,427.456 1698.14,348.889 1723.92,348.889 1749.69,348.889 1749.69,223.183 
  1775.46,223.183 1775.46,160.33 1801.23,160.33 1801.23,396.029 1827,396.029 1827,364.603 1852.78,364.603 1852.78,286.036 1878.55,286.036 1878.55,710.295 
  1904.32,710.295 1904.32,631.729 1930.09,631.729 1930.09,867.428 1955.87,867.428 1955.87,1055.99 1981.64,1055.99 1981.64,1181.69 2007.41,1181.69 2007.41,1213.12 
  2033.18,1213.12 2033.18,1323.11 2058.95,1323.11 2058.95,1370.25 2084.73,1370.25 2084.73,1417.39 2110.5,1417.39 2110.5,1433.11 2136.27,1433.11 2136.27,1417.39 
  2162.04,1417.39 2162.04,1433.11 2187.81,1433.11 2187.81,1448.82 2213.59,1448.82 2239.36,1448.82 2265.13,1448.82 
  2290.9,1448.82 
  "/>
<polyline clip-path="url(#clip0202)" style="stroke:#e26f46; stroke-width:4; stroke-opacity:1; fill:none" points="
  229.132,1448.82 231.709,1448.82 234.287,1448.82 236.864,1448.82 239.441,1448.82 242.018,1448.82 244.596,1448.82 247.173,1448.82 249.75,1448.82 252.327,1448.82 
  254.904,1448.82 257.482,1448.82 260.059,1448.82 262.636,1448.82 265.213,1448.82 267.79,1448.82 270.368,1448.82 272.945,1448.82 275.522,1448.82 278.099,1448.82 
  280.677,1448.82 283.254,1448.82 285.831,1448.82 288.408,1448.82 290.985,1448.82 293.563,1448.82 296.14,1448.82 298.717,1448.82 301.294,1448.82 303.871,1448.82 
  306.449,1448.82 309.026,1448.82 311.603,1448.82 314.18,1448.82 316.758,1448.82 319.335,1448.82 321.912,1448.82 324.489,1448.82 327.066,1448.82 329.644,1448.82 
  332.221,1448.82 334.798,1448.82 337.375,1448.82 339.952,1448.82 342.53,1448.82 345.107,1448.82 347.684,1448.82 350.261,1448.82 352.838,1448.82 355.416,1448.82 
  357.993,1448.82 360.57,1448.82 363.147,1448.82 365.725,1448.82 368.302,1448.82 370.879,1448.82 373.456,1448.82 376.033,1448.82 378.611,1448.81 381.188,1448.81 
  383.765,1448.81 386.342,1448.81 388.919,1448.81 391.497,1448.81 394.074,1448.81 396.651,1448.81 399.228,1448.81 401.806,1448.81 404.383,1448.81 406.96,1448.81 
  409.537,1448.8 412.114,1448.8 414.692,1448.8 417.269,1448.8 419.846,1448.8 422.423,1448.79 425,1448.79 427.578,1448.79 430.155,1448.79 432.732,1448.78 
  435.309,1448.78 437.887,1448.78 440.464,1448.77 443.041,1448.77 445.618,1448.76 448.195,1448.76 450.773,1448.75 453.35,1448.75 455.927,1448.74 458.504,1448.73 
  461.081,1448.73 463.659,1448.72 466.236,1448.71 468.813,1448.7 471.39,1448.69 473.968,1448.68 476.545,1448.67 479.122,1448.65 481.699,1448.64 484.276,1448.63 
  486.854,1448.61 489.431,1448.59 492.008,1448.57 494.585,1448.55 497.162,1448.53 499.74,1448.51 502.317,1448.48 504.894,1448.46 507.471,1448.43 510.048,1448.39 
  512.626,1448.36 515.203,1448.33 517.78,1448.29 520.357,1448.24 522.935,1448.2 525.512,1448.15 528.089,1448.1 530.666,1448.05 533.243,1447.99 535.821,1447.93 
  538.398,1447.86 540.975,1447.79 543.552,1447.71 546.129,1447.63 548.707,1447.54 551.284,1447.45 553.861,1447.35 556.438,1447.24 559.016,1447.13 561.593,1447.01 
  564.17,1446.88 566.747,1446.75 569.324,1446.6 571.902,1446.45 574.479,1446.29 577.056,1446.11 579.633,1445.93 582.21,1445.73 584.788,1445.53 587.365,1445.31 
  589.942,1445.07 592.519,1444.83 595.097,1444.57 597.674,1444.29 600.251,1444 602.828,1443.69 605.405,1443.36 607.983,1443.01 610.56,1442.65 613.137,1442.26 
  615.714,1441.86 618.291,1441.43 620.869,1440.97 623.446,1440.5 626.023,1440 628.6,1439.47 631.178,1438.91 633.755,1438.32 636.332,1437.71 638.909,1437.06 
  641.486,1436.38 644.064,1435.67 646.641,1434.92 649.218,1434.13 651.795,1433.31 654.372,1432.45 656.95,1431.54 659.527,1430.59 662.104,1429.6 664.681,1428.56 
  667.258,1427.48 669.836,1426.34 672.413,1425.16 674.99,1423.92 677.567,1422.63 680.145,1421.28 682.722,1419.87 685.299,1418.4 687.876,1416.88 690.453,1415.29 
  693.031,1413.63 695.608,1411.91 698.185,1410.12 700.762,1408.25 703.339,1406.32 705.917,1404.31 708.494,1402.22 711.071,1400.06 713.648,1397.81 716.226,1395.49 
  718.803,1393.08 721.38,1390.58 723.957,1388 726.534,1385.33 729.112,1382.56 731.689,1379.71 734.266,1376.76 736.843,1373.71 739.42,1370.57 741.998,1367.33 
  744.575,1363.98 747.152,1360.54 749.729,1356.99 752.307,1353.34 754.884,1349.58 757.461,1345.72 760.038,1341.74 762.615,1337.66 765.193,1333.47 767.77,1329.17 
  770.347,1324.76 772.924,1320.24 775.501,1315.61 778.079,1310.86 780.656,1306.01 783.233,1301.04 785.81,1295.96 788.388,1290.77 790.965,1285.46 793.542,1280.05 
  796.119,1274.53 798.696,1268.9 801.274,1263.16 803.851,1257.31 806.428,1251.36 809.005,1245.31 811.582,1239.15 814.16,1232.89 816.737,1226.54 819.314,1220.09 
  821.891,1213.55 824.469,1206.92 827.046,1200.2 829.623,1193.39 832.2,1186.51 834.777,1179.54 837.355,1172.51 839.932,1165.4 842.509,1158.22 845.086,1150.99 
  847.663,1143.69 850.241,1136.34 852.818,1128.94 855.395,1121.5 857.972,1114.02 860.549,1106.5 863.127,1098.96 865.704,1091.39 868.281,1083.8 870.858,1076.21 
  873.436,1068.6 876.013,1061 878.59,1053.4 881.167,1045.82 883.744,1038.25 886.322,1030.71 888.899,1023.2 891.476,1015.73 894.053,1008.31 896.63,1000.93 
  899.208,993.619 901.785,986.37 904.362,979.193 906.939,972.095 909.517,965.084 912.094,958.166 914.671,951.348 917.248,944.637 919.825,938.04 922.403,931.564 
  924.98,925.214 927.557,918.999 930.134,912.925 932.711,906.997 935.289,901.223 937.866,895.609 940.443,890.161 943.02,884.885 945.598,879.787 948.175,874.872 
  950.752,870.146 953.329,865.615 955.906,861.283 958.484,857.156 961.061,853.238 963.638,849.534 966.215,846.048 968.792,842.784 971.37,839.747 973.947,836.938 
  976.524,834.363 979.101,832.024 981.679,829.923 984.256,828.064 986.833,826.447 989.41,825.077 991.987,823.953 994.565,823.078 997.142,822.452 999.719,822.076 
  1002.3,821.95 1004.87,822.076 1007.45,822.452 1010.03,823.078 1012.61,823.953 1015.18,825.077 1017.76,826.447 1020.34,828.064 1022.91,829.923 1025.49,832.024 
  1028.07,834.363 1030.65,836.938 1033.22,839.747 1035.8,842.784 1038.38,846.048 1040.95,849.534 1043.53,853.238 1046.11,857.156 1048.69,861.283 1051.26,865.615 
  1053.84,870.146 1056.42,874.872 1058.99,879.787 1061.57,884.885 1064.15,890.161 1066.73,895.609 1069.3,901.223 1071.88,906.997 1074.46,912.924 1077.04,918.999 
  1079.61,925.214 1082.19,931.563 1084.77,938.039 1087.34,944.636 1089.92,951.347 1092.5,958.165 1095.08,965.083 1097.65,972.094 1100.23,979.192 1102.81,986.368 
  1105.38,993.617 1107.96,1000.93 1110.54,1008.31 1113.12,1015.73 1115.69,1023.2 1118.27,1030.71 1120.85,1038.25 1123.43,1045.82 1126,1053.4 1128.58,1061 
  1131.16,1068.6 1133.73,1076.2 1136.31,1083.8 1138.89,1091.38 1141.47,1098.95 1144.04,1106.49 1146.62,1114.01 1149.2,1121.49 1151.77,1128.93 1154.35,1136.33 
  1156.93,1143.68 1159.51,1150.97 1162.08,1158.21 1164.66,1165.38 1167.24,1172.49 1169.82,1179.52 1172.39,1186.48 1174.97,1193.37 1177.55,1200.17 1180.12,1206.89 
  1182.7,1213.52 1185.28,1220.06 1187.86,1226.5 1190.43,1232.85 1193.01,1239.1 1195.59,1245.25 1198.16,1251.3 1200.74,1257.25 1203.32,1263.09 1205.9,1268.82 
  1208.47,1274.45 1211.05,1279.96 1213.63,1285.37 1216.2,1290.66 1218.78,1295.85 1221.36,1300.92 1223.94,1305.87 1226.51,1310.72 1229.09,1315.45 1231.67,1320.07 
  1234.25,1324.58 1236.82,1328.97 1239.4,1333.25 1241.98,1337.43 1244.55,1341.49 1247.13,1345.44 1249.71,1349.28 1252.29,1353.01 1254.86,1356.63 1257.44,1360.15 
  1260.02,1363.56 1262.59,1366.87 1265.17,1370.07 1267.75,1373.18 1270.33,1376.18 1272.9,1379.08 1275.48,1381.89 1278.06,1384.6 1280.64,1387.21 1283.21,1389.73 
  1285.79,1392.16 1288.37,1394.5 1290.94,1396.75 1293.52,1398.91 1296.1,1400.98 1298.68,1402.97 1301.25,1404.88 1303.83,1406.71 1306.41,1408.45 1308.98,1410.12 
  1311.56,1411.71 1314.14,1413.22 1316.72,1414.66 1319.29,1416.02 1321.87,1417.31 1324.45,1418.53 1327.03,1419.68 1329.6,1420.77 1332.18,1421.78 1334.76,1422.72 
  1337.33,1423.6 1339.91,1424.42 1342.49,1425.17 1345.07,1425.85 1347.64,1426.47 1350.22,1427.03 1352.8,1427.53 1355.37,1427.96 1357.95,1428.33 1360.53,1428.64 
  1363.11,1428.89 1365.68,1429.08 1368.26,1429.2 1370.84,1429.26 1373.41,1429.26 1375.99,1429.2 1378.57,1429.07 1381.15,1428.89 1383.72,1428.63 1386.3,1428.31 
  1388.88,1427.93 1391.46,1427.48 1394.03,1426.96 1396.61,1426.37 1399.19,1425.71 1401.76,1424.98 1404.34,1424.18 1406.92,1423.3 1409.5,1422.34 1412.07,1421.31 
  1414.65,1420.2 1417.23,1419 1419.8,1417.73 1422.38,1416.36 1424.96,1414.91 1427.54,1413.36 1430.11,1411.73 1432.69,1409.99 1435.27,1408.16 1437.85,1406.23 
  1440.42,1404.2 1443,1402.06 1445.58,1399.8 1448.15,1397.44 1450.73,1394.96 1453.31,1392.36 1455.89,1389.64 1458.46,1386.8 1461.04,1383.83 1463.62,1380.72 
  1466.19,1377.48 1468.77,1374.1 1471.35,1370.58 1473.93,1366.91 1476.5,1363.1 1479.08,1359.13 1481.66,1355.01 1484.24,1350.72 1486.81,1346.27 1489.39,1341.66 
  1491.97,1336.88 1494.54,1331.92 1497.12,1326.78 1499.7,1321.47 1502.28,1315.97 1504.85,1310.28 1507.43,1304.41 1510.01,1298.34 1512.58,1292.07 1515.16,1285.6 
  1517.74,1278.93 1520.32,1272.06 1522.89,1264.98 1525.47,1257.69 1528.05,1250.19 1530.62,1242.47 1533.2,1234.54 1535.78,1226.39 1538.36,1218.02 1540.93,1209.43 
  1543.51,1200.61 1546.09,1191.58 1548.67,1182.32 1551.24,1172.84 1553.82,1163.13 1556.4,1153.2 1558.97,1143.04 1561.55,1132.66 1564.13,1122.06 1566.71,1111.24 
  1569.28,1100.19 1571.86,1088.93 1574.44,1077.46 1577.01,1065.77 1579.59,1053.87 1582.17,1041.77 1584.75,1029.46 1587.32,1016.95 1589.9,1004.24 1592.48,991.344 
  1595.06,978.262 1597.63,964.999 1600.21,951.56 1602.79,937.953 1605.36,924.183 1607.94,910.257 1610.52,896.182 1613.1,881.967 1615.67,867.618 1618.25,853.144 
  1620.83,838.553 1623.4,823.855 1625.98,809.059 1628.56,794.175 1631.14,779.212 1633.71,764.181 1636.29,749.093 1638.87,733.957 1641.45,718.787 1644.02,703.593 
  1646.6,688.386 1649.18,673.18 1651.75,657.986 1654.33,642.816 1656.91,627.685 1659.49,612.603 1662.06,597.586 1664.64,582.645 1667.22,567.794 1669.79,553.047 
  1672.37,538.417 1674.95,523.919 1677.53,509.565 1680.1,495.37 1682.68,481.348 1685.26,467.512 1687.83,453.876 1690.41,440.454 1692.99,427.26 1695.57,414.307 
  1698.14,401.608 1700.72,389.178 1703.3,377.029 1705.88,365.174 1708.45,353.627 1711.03,342.399 1713.61,331.502 1716.18,320.95 1718.76,310.753 1721.34,300.924 
  1723.92,291.472 1726.49,282.41 1729.07,273.746 1731.65,265.492 1734.22,257.656 1736.8,250.248 1739.38,243.276 1741.96,236.749 1744.53,230.673 1747.11,225.057 
  1749.69,219.906 1752.27,215.227 1754.84,211.026 1757.42,207.307 1760,204.075 1762.57,201.334 1765.15,199.086 1767.73,197.335 1770.31,196.083 1772.88,195.331 
  1775.46,195.08 1778.04,195.331 1780.61,196.083 1783.19,197.335 1785.77,199.086 1788.35,201.334 1790.92,204.075 1793.5,207.307 1796.08,211.026 1798.66,215.227 
  1801.23,219.906 1803.81,225.057 1806.39,230.673 1808.96,236.749 1811.54,243.276 1814.12,250.248 1816.7,257.656 1819.27,265.492 1821.85,273.746 1824.43,282.41 
  1827,291.473 1829.58,300.924 1832.16,310.754 1834.74,320.95 1837.31,331.503 1839.89,342.399 1842.47,353.627 1845.04,365.175 1847.62,377.029 1850.2,389.178 
  1852.78,401.609 1855.35,414.307 1857.93,427.26 1860.51,440.455 1863.09,453.876 1865.66,467.512 1868.24,481.348 1870.82,495.371 1873.39,509.566 1875.97,523.92 
  1878.55,538.418 1881.13,553.048 1883.7,567.795 1886.28,582.646 1888.86,597.587 1891.43,612.605 1894.01,627.686 1896.59,642.818 1899.17,657.988 1901.74,673.182 
  1904.32,688.389 1906.9,703.595 1909.48,718.79 1912.05,733.961 1914.63,749.096 1917.21,764.185 1919.78,779.216 1922.36,794.18 1924.94,809.065 1927.52,823.861 
  1930.09,838.559 1932.67,853.151 1935.25,867.625 1937.82,881.975 1940.4,896.192 1942.98,910.267 1945.56,924.194 1948.13,937.965 1950.71,951.573 1953.29,965.013 
  1955.87,978.278 1958.44,991.362 1961.02,1004.26 1963.6,1016.97 1966.17,1029.48 1968.75,1041.79 1971.33,1053.9 1973.91,1065.8 1976.48,1077.49 1979.06,1088.97 
  1981.64,1100.23 1984.21,1111.28 1986.79,1122.11 1989.37,1132.71 1991.95,1143.1 1994.52,1153.26 1997.1,1163.19 1999.68,1172.91 2002.25,1182.4 2004.83,1191.66 
  2007.41,1200.71 2009.99,1209.53 2012.56,1218.13 2015.14,1226.51 2017.72,1234.67 2020.3,1242.61 2022.87,1250.34 2025.45,1257.86 2028.03,1265.16 2030.6,1272.26 
  2033.18,1279.14 2035.76,1285.83 2038.34,1292.32 2040.91,1298.6 2043.49,1304.69 2046.07,1310.59 2048.64,1316.31 2051.22,1321.83 2053.8,1327.18 2056.38,1332.34 
  2058.95,1337.34 2061.53,1342.16 2064.11,1346.81 2066.69,1351.3 2069.26,1355.63 2071.84,1359.8 2074.42,1363.82 2076.99,1367.69 2079.57,1371.41 2082.15,1375 
  2084.73,1378.44 2087.3,1381.75 2089.88,1384.93 2092.46,1387.99 2095.03,1390.92 2097.61,1393.73 2100.19,1396.43 2102.77,1399.02 2105.34,1401.49 2107.92,1403.86 
  2110.5,1406.13 2113.08,1408.3 2115.65,1410.38 2118.23,1412.36 2120.81,1414.26 2123.38,1416.07 2125.96,1417.8 2128.54,1419.45 2131.12,1421.02 2133.69,1422.52 
  2136.27,1423.94 2138.85,1425.3 2141.42,1426.6 2144,1427.83 2146.58,1429 2149.16,1430.11 2151.73,1431.17 2154.31,1432.18 2156.89,1433.13 2159.46,1434.03 
  2162.04,1434.89 2164.62,1435.71 2167.2,1436.48 2169.77,1437.21 2172.35,1437.9 2174.93,1438.55 2177.51,1439.17 2180.08,1439.76 2182.66,1440.31 2185.24,1440.83 
  2187.81,1441.33 2190.39,1441.79 2192.97,1442.23 2195.55,1442.65 2198.12,1443.04 2200.7,1443.41 2203.28,1443.75 2205.85,1444.08 2208.43,1444.39 2211.01,1444.68 
  2213.59,1444.95 2216.16,1445.2 2218.74,1445.44 2221.32,1445.67 2223.9,1445.88 2226.47,1446.08 2229.05,1446.26 2231.63,1446.44 2234.2,1446.6 2236.78,1446.75 
  2239.36,1446.9 2241.94,1447.03 2244.51,1447.16 2247.09,1447.27 2249.67,1447.38 2252.24,1447.49 2254.82,1447.58 2257.4,1447.67 2259.98,1447.75 2262.55,1447.83 
  2265.13,1447.9 2267.71,1447.97 2270.29,1448.03 2272.86,1448.09 2275.44,1448.15 2278.02,1448.2 2280.59,1448.24 2283.17,1448.29 2285.75,1448.33 2288.33,1448.36 
  2290.9,1448.4 
  "/>
<polyline clip-path="url(#clip0202)" style="stroke:#3da44d; stroke-width:4; stroke-opacity:1; fill:none" points="
  229.132,1448.82 231.709,1448.82 234.287,1448.82 236.864,1448.82 239.441,1448.82 242.018,1448.82 244.596,1448.82 247.173,1448.82 249.75,1448.82 252.327,1448.82 
  254.904,1448.82 257.482,1448.82 260.059,1448.82 262.636,1448.82 265.213,1448.82 267.79,1448.82 270.368,1448.82 272.945,1448.82 275.522,1448.82 278.099,1448.82 
  280.677,1448.82 283.254,1448.82 285.831,1448.82 288.408,1448.82 290.985,1448.82 293.563,1448.82 296.14,1448.82 298.717,1448.82 301.294,1448.82 303.871,1448.82 
  306.449,1448.82 309.026,1448.82 311.603,1448.82 314.18,1448.82 316.758,1448.82 319.335,1448.82 321.912,1448.82 324.489,1448.82 327.066,1448.82 329.644,1448.82 
  332.221,1448.82 334.798,1448.82 337.375,1448.82 339.952,1448.82 342.53,1448.82 345.107,1448.82 347.684,1448.82 350.261,1448.82 352.838,1448.82 355.416,1448.82 
  357.993,1448.82 360.57,1448.82 363.147,1448.82 365.725,1448.82 368.302,1448.82 370.879,1448.82 373.456,1448.81 376.033,1448.81 378.611,1448.81 381.188,1448.81 
  383.765,1448.81 386.342,1448.81 388.919,1448.81 391.497,1448.81 394.074,1448.81 396.651,1448.81 399.228,1448.81 401.806,1448.81 404.383,1448.8 406.96,1448.8 
  409.537,1448.8 412.114,1448.8 414.692,1448.8 417.269,1448.79 419.846,1448.79 422.423,1448.79 425,1448.79 427.578,1448.78 430.155,1448.78 432.732,1448.78 
  435.309,1448.77 437.887,1448.77 440.464,1448.76 443.041,1448.76 445.618,1448.75 448.195,1448.75 450.773,1448.74 453.35,1448.74 455.927,1448.73 458.504,1448.72 
  461.081,1448.71 463.659,1448.7 466.236,1448.69 468.813,1448.68 471.39,1448.67 473.968,1448.66 476.545,1448.64 479.122,1448.63 481.699,1448.61 484.276,1448.6 
  486.854,1448.58 489.431,1448.56 492.008,1448.54 494.585,1448.51 497.162,1448.49 499.74,1448.46 502.317,1448.43 504.894,1448.4 507.471,1448.37 510.048,1448.34 
  512.626,1448.3 515.203,1448.26 517.78,1448.22 520.357,1448.17 522.935,1448.12 525.512,1448.07 528.089,1448.01 530.666,1447.95 533.243,1447.88 535.821,1447.82 
  538.398,1447.74 540.975,1447.66 543.552,1447.58 546.129,1447.49 548.707,1447.39 551.284,1447.29 553.861,1447.18 556.438,1447.07 559.016,1446.95 561.593,1446.81 
  564.17,1446.68 566.747,1446.53 569.324,1446.37 571.902,1446.21 574.479,1446.03 577.056,1445.84 579.633,1445.64 582.21,1445.43 584.788,1445.21 587.365,1444.97 
  589.942,1444.72 592.519,1444.46 595.097,1444.18 597.674,1443.88 600.251,1443.57 602.828,1443.24 605.405,1442.89 607.983,1442.52 610.56,1442.13 613.137,1441.72 
  615.714,1441.29 618.291,1440.83 620.869,1440.35 623.446,1439.85 626.023,1439.32 628.6,1438.76 631.178,1438.17 633.755,1437.56 636.332,1436.91 638.909,1436.23 
  641.486,1435.51 644.064,1434.76 646.641,1433.98 649.218,1433.16 651.795,1432.29 654.372,1431.39 656.95,1430.45 659.527,1429.46 662.104,1428.42 664.681,1427.34 
  667.258,1426.21 669.836,1425.04 672.413,1423.81 674.99,1422.52 677.567,1421.18 680.145,1419.79 682.722,1418.33 685.299,1416.82 687.876,1415.24 690.453,1413.6 
  693.031,1411.9 695.608,1410.12 698.185,1408.28 700.762,1406.37 703.339,1404.38 705.917,1402.32 708.494,1400.18 711.071,1397.97 713.648,1395.67 716.226,1393.29 
  718.803,1390.83 721.38,1388.29 723.957,1385.65 726.534,1382.93 729.112,1380.12 731.689,1377.22 734.266,1374.22 736.843,1371.13 739.42,1367.94 741.998,1364.65 
  744.575,1361.26 747.152,1357.78 749.729,1354.19 752.307,1350.5 754.884,1346.7 757.461,1342.8 760.038,1338.8 762.615,1334.69 765.193,1330.47 767.77,1326.14 
  770.347,1321.71 772.924,1317.17 775.501,1312.51 778.079,1307.75 780.656,1302.88 783.233,1297.91 785.81,1292.82 788.388,1287.62 790.965,1282.32 793.542,1276.91 
  796.119,1271.4 798.696,1265.78 801.274,1260.05 803.851,1254.23 806.428,1248.3 809.005,1242.27 811.582,1236.15 814.16,1229.93 816.737,1223.61 819.314,1217.21 
  821.891,1210.71 824.469,1204.13 827.046,1197.47 829.623,1190.73 832.2,1183.91 834.777,1177.02 837.355,1170.06 839.932,1163.03 842.509,1155.94 845.086,1148.79 
  847.663,1141.59 850.241,1134.34 852.818,1127.04 855.395,1119.7 857.972,1112.33 860.549,1104.93 863.127,1097.51 865.704,1090.06 868.281,1082.6 870.858,1075.14 
  873.436,1067.67 876.013,1060.2 878.59,1052.75 881.167,1045.3 883.744,1037.89 886.322,1030.49 888.899,1023.14 891.476,1015.82 894.053,1008.55 896.63,1001.34 
  899.208,994.184 901.785,987.096 904.362,980.083 906.939,973.15 909.517,966.304 912.094,959.552 914.671,952.9 917.248,946.355 919.825,939.924 922.403,933.613 
  924.98,927.429 927.557,921.377 930.134,915.466 932.711,909.699 935.289,904.085 937.866,898.628 940.443,893.335 943.02,888.212 945.598,883.263 948.175,878.495 
  950.752,873.912 953.329,869.521 955.906,865.325 958.484,861.33 961.061,857.54 963.638,853.959 966.215,850.592 968.792,847.441 971.37,844.512 973.947,841.807 
  976.524,839.33 979.101,837.083 981.679,835.069 984.256,833.29 986.833,831.748 989.41,830.446 991.987,829.384 994.565,828.565 997.142,827.988 999.719,827.655 
  1002.3,827.565 1004.87,827.72 1007.45,828.119 1010.03,828.761 1012.61,829.646 1015.18,830.773 1017.76,832.14 1020.34,833.746 1022.91,835.588 1025.49,837.665 
  1028.07,839.975 1030.65,842.514 1033.22,845.279 1035.8,848.268 1038.38,851.477 1040.95,854.902 1043.53,858.54 1046.11,862.386 1048.69,866.435 1051.26,870.684 
  1053.84,875.128 1056.42,879.761 1058.99,884.578 1061.57,889.574 1064.15,894.744 1066.73,900.081 1069.3,905.581 1071.88,911.237 1074.46,917.043 1077.04,922.993 
  1079.61,929.081 1082.19,935.3 1084.77,941.643 1087.34,948.106 1089.92,954.68 1092.5,961.359 1095.08,968.137 1097.65,975.007 1100.23,981.962 1102.81,988.996 
  1105.38,996.102 1107.96,1003.27 1110.54,1010.5 1113.12,1017.78 1115.69,1025.11 1118.27,1032.48 1120.85,1039.88 1123.43,1047.3 1126,1054.75 1128.58,1062.21 
  1131.16,1069.67 1133.73,1077.14 1136.31,1084.61 1138.89,1092.06 1141.47,1099.5 1144.04,1106.92 1146.62,1114.31 1149.2,1121.67 1151.77,1129 1154.35,1136.28 
  1156.93,1143.52 1159.51,1150.7 1162.08,1157.83 1164.66,1164.91 1167.24,1171.91 1169.82,1178.86 1172.39,1185.73 1174.97,1192.52 1177.55,1199.24 1180.12,1205.88 
  1182.7,1212.43 1185.28,1218.9 1187.86,1225.27 1190.43,1231.56 1193.01,1237.75 1195.59,1243.84 1198.16,1249.84 1200.74,1255.73 1203.32,1261.52 1205.9,1267.21 
  1208.47,1272.8 1211.05,1278.28 1213.63,1283.65 1216.2,1288.91 1218.78,1294.07 1221.36,1299.11 1223.94,1304.05 1226.51,1308.87 1229.09,1313.59 1231.67,1318.2 
  1234.25,1322.69 1236.82,1327.08 1239.4,1331.36 1241.98,1335.52 1244.55,1339.58 1247.13,1343.53 1249.71,1347.38 1252.29,1351.11 1254.86,1354.74 1257.44,1358.27 
  1260.02,1361.69 1262.59,1365.01 1265.17,1368.23 1267.75,1371.34 1270.33,1374.36 1272.9,1377.28 1275.48,1380.1 1278.06,1382.82 1280.64,1385.46 1283.21,1387.99 
  1285.79,1390.44 1288.37,1392.8 1290.94,1395.06 1293.52,1397.24 1296.1,1399.34 1298.68,1401.35 1301.25,1403.27 1303.83,1405.11 1306.41,1406.88 1308.98,1408.56 
  1311.56,1410.16 1314.14,1411.69 1316.72,1413.14 1319.29,1414.52 1321.87,1415.82 1324.45,1417.05 1327.03,1418.21 1329.6,1419.3 1332.18,1420.32 1334.76,1421.27 
  1337.33,1422.16 1339.91,1422.97 1342.49,1423.72 1345.07,1424.4 1347.64,1425.02 1350.22,1425.58 1352.8,1426.06 1355.37,1426.49 1357.95,1426.85 1360.53,1427.14 
  1363.11,1427.37 1365.68,1427.54 1368.26,1427.64 1370.84,1427.68 1373.41,1427.65 1375.99,1427.56 1378.57,1427.4 1381.15,1427.18 1383.72,1426.89 1386.3,1426.53 
  1388.88,1426.1 1391.46,1425.6 1394.03,1425.04 1396.61,1424.39 1399.19,1423.68 1401.76,1422.89 1404.34,1422.03 1406.92,1421.08 1409.5,1420.06 1412.07,1418.96 
  1414.65,1417.77 1417.23,1416.5 1419.8,1415.14 1422.38,1413.69 1424.96,1412.15 1427.54,1410.52 1430.11,1408.79 1432.69,1406.96 1435.27,1405.03 1437.85,1403 
  1440.42,1400.86 1443,1398.61 1445.58,1396.25 1448.15,1393.77 1450.73,1391.18 1453.31,1388.46 1455.89,1385.62 1458.46,1382.65 1461.04,1379.55 1463.62,1376.31 
  1466.19,1372.94 1468.77,1369.43 1471.35,1365.77 1473.93,1361.97 1476.5,1358.01 1479.08,1353.9 1481.66,1349.63 1484.24,1345.21 1486.81,1340.61 1489.39,1335.85 
  1491.97,1330.92 1494.54,1325.82 1497.12,1320.53 1499.7,1315.07 1502.28,1309.42 1504.85,1303.59 1507.43,1297.57 1510.01,1291.35 1512.58,1284.94 1515.16,1278.33 
  1517.74,1271.52 1520.32,1264.5 1522.89,1257.28 1525.47,1249.86 1528.05,1242.22 1530.62,1234.37 1533.2,1226.31 1535.78,1218.04 1538.36,1209.55 1540.93,1200.84 
  1543.51,1191.92 1546.09,1182.77 1548.67,1173.41 1551.24,1163.83 1553.82,1154.03 1556.4,1144.02 1558.97,1133.78 1561.55,1123.33 1564.13,1112.67 1566.71,1101.79 
  1569.28,1090.69 1571.86,1079.39 1574.44,1067.88 1577.01,1056.17 1579.59,1044.25 1582.17,1032.14 1584.75,1019.83 1587.32,1007.33 1589.9,994.64 1592.48,981.773 
  1595.06,968.73 1597.63,955.516 1600.21,942.137 1602.79,928.6 1605.36,914.911 1607.94,901.076 1610.52,887.104 1613.1,873.001 1615.67,858.776 1618.25,844.437 
  1620.83,829.993 1623.4,815.452 1625.98,800.824 1628.56,786.119 1631.14,771.346 1633.71,756.516 1636.29,741.639 1638.87,726.727 1641.45,711.789 1644.02,696.838 
  1646.6,681.885 1649.18,666.942 1651.75,652.02 1654.33,637.134 1656.91,622.293 1659.49,607.512 1662.06,592.803 1664.64,578.18 1667.22,563.654 1669.79,549.239 
  1672.37,534.949 1674.95,520.797 1677.53,506.795 1680.1,492.958 1682.68,479.299 1685.26,465.831 1687.83,452.567 1690.41,439.521 1692.99,426.706 1695.57,414.135 
  1698.14,401.821 1700.72,389.776 1703.3,378.014 1705.88,366.547 1708.45,355.386 1711.03,344.544 1713.61,334.033 1716.18,323.864 1718.76,314.049 1721.34,304.597 
  1723.92,295.52 1726.49,286.828 1729.07,278.53 1731.65,270.635 1734.22,263.154 1736.8,256.094 1739.38,249.463 1741.96,243.269 1744.53,237.519 1747.11,232.22 
  1749.69,227.378 1752.27,222.998 1754.84,219.086 1757.42,215.646 1760,212.683 1762.57,210.199 1765.15,208.197 1767.73,206.681 1770.31,205.651 1772.88,205.11 
  1775.46,205.057 1778.04,205.492 1780.61,206.416 1783.19,207.827 1785.77,209.723 1788.35,212.102 1790.92,214.962 1793.5,218.298 1796.08,222.108 1798.66,226.387 
  1801.23,231.129 1803.81,236.329 1806.39,241.981 1808.96,248.079 1811.54,254.616 1814.12,261.583 1816.7,268.974 1819.27,276.779 1821.85,284.99 1824.43,293.598 
  1827,302.592 1829.58,311.963 1832.16,321.701 1834.74,331.794 1837.31,342.232 1839.89,353.002 1842.47,364.095 1845.04,375.497 1847.62,387.196 1850.2,399.18 
  1852.78,411.437 1855.35,423.953 1857.93,436.716 1860.51,449.713 1863.09,462.931 1865.66,476.356 1868.24,489.975 1870.82,503.774 1873.39,517.741 1875.97,531.862 
  1878.55,546.123 1881.13,560.512 1883.7,575.015 1886.28,589.619 1888.86,604.311 1891.43,619.077 1894.01,633.906 1896.59,648.784 1899.17,663.699 1901.74,678.639 
  1904.32,693.591 1906.9,708.544 1909.48,723.485 1912.05,738.405 1914.63,753.291 1917.21,768.133 1919.78,782.919 1922.36,797.64 1924.94,812.287 1927.52,826.848 
  1930.09,841.314 1932.67,855.678 1935.25,869.929 1937.82,884.06 1940.4,898.062 1942.98,911.929 1945.56,925.651 1948.13,939.224 1950.71,952.639 1953.29,965.891 
  1955.87,978.973 1958.44,991.881 1961.02,1004.61 1963.6,1017.15 1966.17,1029.51 1968.75,1041.67 1971.33,1053.63 1973.91,1065.39 1976.48,1076.95 1979.06,1088.3 
  1981.64,1099.44 1984.21,1110.37 1986.79,1121.09 1989.37,1131.59 1991.95,1141.88 1994.52,1151.95 1997.1,1161.8 1999.68,1171.44 2002.25,1180.85 2004.83,1190.05 
  2007.41,1199.03 2009.99,1207.8 2012.56,1216.34 2015.14,1224.68 2017.72,1232.8 2020.3,1240.7 2022.87,1248.4 2025.45,1255.89 2028.03,1263.17 2030.6,1270.24 
  2033.18,1277.12 2035.76,1283.79 2038.34,1290.27 2040.91,1296.55 2043.49,1302.64 2046.07,1308.54 2048.64,1314.26 2051.22,1319.8 2053.8,1325.15 2056.38,1330.33 
  2058.95,1335.34 2061.53,1340.18 2064.11,1344.85 2066.69,1349.36 2069.26,1353.72 2071.84,1357.91 2074.42,1361.96 2076.99,1365.86 2079.57,1369.62 2082.15,1373.23 
  2084.73,1376.71 2087.3,1380.05 2089.88,1383.27 2092.46,1386.36 2095.03,1389.33 2097.61,1392.18 2100.19,1394.91 2102.77,1397.53 2105.34,1400.05 2107.92,1402.46 
  2110.5,1404.76 2113.08,1406.97 2115.65,1409.09 2118.23,1411.11 2120.81,1413.04 2123.38,1414.89 2125.96,1416.65 2128.54,1418.34 2131.12,1419.94 2133.69,1421.48 
  2136.27,1422.94 2138.85,1424.33 2141.42,1425.66 2144,1426.93 2146.58,1428.13 2149.16,1429.28 2151.73,1430.36 2154.31,1431.4 2156.89,1432.38 2159.46,1433.32 
  2162.04,1434.2 2164.62,1435.05 2167.2,1435.84 2169.77,1436.6 2172.35,1437.32 2174.93,1438 2177.51,1438.64 2180.08,1439.25 2182.66,1439.82 2185.24,1440.37 
  2187.81,1440.88 2190.39,1441.37 2192.97,1441.83 2195.55,1442.26 2198.12,1442.67 2200.7,1443.06 2203.28,1443.42 2205.85,1443.76 2208.43,1444.09 2211.01,1444.39 
  2213.59,1444.68 2216.16,1444.95 2218.74,1445.2 2221.32,1445.44 2223.9,1445.66 2226.47,1445.87 2229.05,1446.07 2231.63,1446.25 2234.2,1446.42 2236.78,1446.59 
  2239.36,1446.74 2241.94,1446.88 2244.51,1447.02 2247.09,1447.14 2249.67,1447.26 2252.24,1447.37 2254.82,1447.47 2257.4,1447.57 2259.98,1447.65 2262.55,1447.74 
  2265.13,1447.82 2267.71,1447.89 2270.29,1447.96 2272.86,1448.02 2275.44,1448.08 2278.02,1448.13 2280.59,1448.18 2283.17,1448.23 2285.75,1448.28 2288.33,1448.32 
  2290.9,1448.35 
  "/>
<path clip-path="url(#clip0200)" d="
M1893.61 447.115 L2280.76 447.115 L2280.76 205.195 L1893.61 205.195  Z
  " fill="#ffffff" fill-rule="evenodd" fill-opacity="1"/>
<polyline clip-path="url(#clip0200)" style="stroke:#000000; stroke-width:4; stroke-opacity:1; fill:none" points="
  1893.61,447.115 2280.76,447.115 2280.76,205.195 1893.61,205.195 1893.61,447.115 
  "/>
<polyline clip-path="url(#clip0200)" style="stroke:#009af9; stroke-width:4; stroke-opacity:1; fill:none" points="
  1917.61,265.675 2061.61,265.675 
  "/>
<g clip-path="url(#clip0200)">
<text style="fill:#000000; fill-opacity:1; font-family:Arial,Helvetica Neue,Helvetica,sans-serif; font-size:48px; text-anchor:start;" transform="rotate(0, 2085.61, 283.175)" x="2085.61" y="283.175">Data</text>
</g>
<polyline clip-path="url(#clip0200)" style="stroke:#e26f46; stroke-width:4; stroke-opacity:1; fill:none" points="
  1917.61,326.155 2061.61,326.155 
  "/>
<g clip-path="url(#clip0200)">
<text style="fill:#000000; fill-opacity:1; font-family:Arial,Helvetica Neue,Helvetica,sans-serif; font-size:48px; text-anchor:start;" transform="rotate(0, 2085.61, 343.655)" x="2085.61" y="343.655">Truth</text>
</g>
<polyline clip-path="url(#clip0200)" style="stroke:#3da44d; stroke-width:4; stroke-opacity:1; fill:none" points="
  1917.61,386.635 2061.61,386.635 
  "/>
<g clip-path="url(#clip0200)">
<text style="fill:#000000; fill-opacity:1; font-family:Arial,Helvetica Neue,Helvetica,sans-serif; font-size:48px; text-anchor:start;" transform="rotate(0, 2085.61, 404.135)" x="2085.61" y="404.135">Best fit</text>
</g>
</svg>
