<?xml version="1.0" encoding="utf-8"?>
<svg xmlns="http://www.w3.org/2000/svg" xmlns:xlink="http://www.w3.org/1999/xlink" width="600" height="400" viewBox="0 0 2400 1600">
<defs>
  <clipPath id="clip8700">
    <rect x="0" y="0" width="2400" height="1600"/>
  </clipPath>
</defs>
<path clip-path="url(#clip8700)" d="
M0 1600 L2400 1600 L2400 0 L0 0  Z
  " fill="#ffffff" fill-rule="evenodd" fill-opacity="1"/>
<defs>
  <clipPath id="clip8701">
    <rect x="480" y="0" width="1681" height="1600"/>
  </clipPath>
</defs>
<path clip-path="url(#clip8700)" d="
M167.279 1487.47 L2352.76 1487.47 L2352.76 121.675 L167.279 121.675  Z
  " fill="#ffffff" fill-rule="evenodd" fill-opacity="1"/>
<defs>
  <clipPath id="clip8702">
    <rect x="167" y="121" width="2186" height="1367"/>
  </clipPath>
</defs>
<polyline clip-path="url(#clip8702)" style="stroke:#000000; stroke-width:2; stroke-opacity:0.1; fill:none" points="
  229.132,1487.47 229.132,121.675 
  "/>
<polyline clip-path="url(#clip8702)" style="stroke:#000000; stroke-width:2; stroke-opacity:0.1; fill:none" points="
  572.761,1487.47 572.761,121.675 
  "/>
<polyline clip-path="url(#clip8702)" style="stroke:#000000; stroke-width:2; stroke-opacity:0.1; fill:none" points="
  916.389,1487.47 916.389,121.675 
  "/>
<polyline clip-path="url(#clip8702)" style="stroke:#000000; stroke-width:2; stroke-opacity:0.1; fill:none" points="
  1260.02,1487.47 1260.02,121.675 
  "/>
<polyline clip-path="url(#clip8702)" style="stroke:#000000; stroke-width:2; stroke-opacity:0.1; fill:none" points="
  1603.65,1487.47 1603.65,121.675 
  "/>
<polyline clip-path="url(#clip8702)" style="stroke:#000000; stroke-width:2; stroke-opacity:0.1; fill:none" points="
  1947.27,1487.47 1947.27,121.675 
  "/>
<polyline clip-path="url(#clip8702)" style="stroke:#000000; stroke-width:2; stroke-opacity:0.1; fill:none" points="
  2290.9,1487.47 2290.9,121.675 
  "/>
<polyline clip-path="url(#clip8702)" style="stroke:#000000; stroke-width:2; stroke-opacity:0.1; fill:none" points="
  167.279,1448.82 2352.76,1448.82 
  "/>
<polyline clip-path="url(#clip8702)" style="stroke:#000000; stroke-width:2; stroke-opacity:0.1; fill:none" points="
  167.279,1134.55 2352.76,1134.55 
  "/>
<polyline clip-path="url(#clip8702)" style="stroke:#000000; stroke-width:2; stroke-opacity:0.1; fill:none" points="
  167.279,820.288 2352.76,820.288 
  "/>
<polyline clip-path="url(#clip8702)" style="stroke:#000000; stroke-width:2; stroke-opacity:0.1; fill:none" points="
  167.279,506.022 2352.76,506.022 
  "/>
<polyline clip-path="url(#clip8702)" style="stroke:#000000; stroke-width:2; stroke-opacity:0.1; fill:none" points="
  167.279,191.756 2352.76,191.756 
  "/>
<polyline clip-path="url(#clip8700)" style="stroke:#000000; stroke-width:4; stroke-opacity:1; fill:none" points="
  167.279,1487.47 2352.76,1487.47 
  "/>
<polyline clip-path="url(#clip8700)" style="stroke:#000000; stroke-width:4; stroke-opacity:1; fill:none" points="
  167.279,1487.47 167.279,121.675 
  "/>
<polyline clip-path="url(#clip8700)" style="stroke:#000000; stroke-width:4; stroke-opacity:1; fill:none" points="
  229.132,1487.47 229.132,1471.09 
  "/>
<polyline clip-path="url(#clip8700)" style="stroke:#000000; stroke-width:4; stroke-opacity:1; fill:none" points="
  572.761,1487.47 572.761,1471.09 
  "/>
<polyline clip-path="url(#clip8700)" style="stroke:#000000; stroke-width:4; stroke-opacity:1; fill:none" points="
  916.389,1487.47 916.389,1471.09 
  "/>
<polyline clip-path="url(#clip8700)" style="stroke:#000000; stroke-width:4; stroke-opacity:1; fill:none" points="
  1260.02,1487.47 1260.02,1471.09 
  "/>
<polyline clip-path="url(#clip8700)" style="stroke:#000000; stroke-width:4; stroke-opacity:1; fill:none" points="
  1603.65,1487.47 1603.65,1471.09 
  "/>
<polyline clip-path="url(#clip8700)" style="stroke:#000000; stroke-width:4; stroke-opacity:1; fill:none" points="
  1947.27,1487.47 1947.27,1471.09 
  "/>
<polyline clip-path="url(#clip8700)" style="stroke:#000000; stroke-width:4; stroke-opacity:1; fill:none" points="
  2290.9,1487.47 2290.9,1471.09 
  "/>
<polyline clip-path="url(#clip8700)" style="stroke:#000000; stroke-width:4; stroke-opacity:1; fill:none" points="
  167.279,1448.82 193.505,1448.82 
  "/>
<polyline clip-path="url(#clip8700)" style="stroke:#000000; stroke-width:4; stroke-opacity:1; fill:none" points="
  167.279,1134.55 193.505,1134.55 
  "/>
<polyline clip-path="url(#clip8700)" style="stroke:#000000; stroke-width:4; stroke-opacity:1; fill:none" points="
  167.279,820.288 193.505,820.288 
  "/>
<polyline clip-path="url(#clip8700)" style="stroke:#000000; stroke-width:4; stroke-opacity:1; fill:none" points="
  167.279,506.022 193.505,506.022 
  "/>
<polyline clip-path="url(#clip8700)" style="stroke:#000000; stroke-width:4; stroke-opacity:1; fill:none" points="
  167.279,191.756 193.505,191.756 
  "/>
<g clip-path="url(#clip8700)">
<text style="fill:#000000; fill-opacity:1; font-family:Arial,Helvetica Neue,Helvetica,sans-serif; font-size:48px; text-anchor:middle;" transform="rotate(0, 229.132, 1541.47)" x="229.132" y="1541.47">-2</text>
</g>
<g clip-path="url(#clip8700)">
<text style="fill:#000000; fill-opacity:1; font-family:Arial,Helvetica Neue,Helvetica,sans-serif; font-size:48px; text-anchor:middle;" transform="rotate(0, 572.761, 1541.47)" x="572.761" y="1541.47">-1</text>
</g>
<g clip-path="url(#clip8700)">
<text style="fill:#000000; fill-opacity:1; font-family:Arial,Helvetica Neue,Helvetica,sans-serif; font-size:48px; text-anchor:middle;" transform="rotate(0, 916.389, 1541.47)" x="916.389" y="1541.47">0</text>
</g>
<g clip-path="url(#clip8700)">
<text style="fill:#000000; fill-opacity:1; font-family:Arial,Helvetica Neue,Helvetica,sans-serif; font-size:48px; text-anchor:middle;" transform="rotate(0, 1260.02, 1541.47)" x="1260.02" y="1541.47">1</text>
</g>
<g clip-path="url(#clip8700)">
<text style="fill:#000000; fill-opacity:1; font-family:Arial,Helvetica Neue,Helvetica,sans-serif; font-size:48px; text-anchor:middle;" transform="rotate(0, 1603.65, 1541.47)" x="1603.65" y="1541.47">2</text>
</g>
<g clip-path="url(#clip8700)">
<text style="fill:#000000; fill-opacity:1; font-family:Arial,Helvetica Neue,Helvetica,sans-serif; font-size:48px; text-anchor:middle;" transform="rotate(0, 1947.27, 1541.47)" x="1947.27" y="1541.47">3</text>
</g>
<g clip-path="url(#clip8700)">
<text style="fill:#000000; fill-opacity:1; font-family:Arial,Helvetica Neue,Helvetica,sans-serif; font-size:48px; text-anchor:middle;" transform="rotate(0, 2290.9, 1541.47)" x="2290.9" y="1541.47">4</text>
</g>
<g clip-path="url(#clip8700)">
<text style="fill:#000000; fill-opacity:1; font-family:Arial,Helvetica Neue,Helvetica,sans-serif; font-size:48px; text-anchor:end;" transform="rotate(0, 143.279, 1466.32)" x="143.279" y="1466.32">0</text>
</g>
<g clip-path="url(#clip8700)">
<text style="fill:#000000; fill-opacity:1; font-family:Arial,Helvetica Neue,Helvetica,sans-serif; font-size:48px; text-anchor:end;" transform="rotate(0, 143.279, 1152.05)" x="143.279" y="1152.05">200</text>
</g>
<g clip-path="url(#clip8700)">
<text style="fill:#000000; fill-opacity:1; font-family:Arial,Helvetica Neue,Helvetica,sans-serif; font-size:48px; text-anchor:end;" transform="rotate(0, 143.279, 837.788)" x="143.279" y="837.788">400</text>
</g>
<g clip-path="url(#clip8700)">
<text style="fill:#000000; fill-opacity:1; font-family:Arial,Helvetica Neue,Helvetica,sans-serif; font-size:48px; text-anchor:end;" transform="rotate(0, 143.279, 523.522)" x="143.279" y="523.522">600</text>
</g>
<g clip-path="url(#clip8700)">
<text style="fill:#000000; fill-opacity:1; font-family:Arial,Helvetica Neue,Helvetica,sans-serif; font-size:48px; text-anchor:end;" transform="rotate(0, 143.279, 209.256)" x="143.279" y="209.256">800</text>
</g>
<g clip-path="url(#clip8700)">
<text style="fill:#000000; fill-opacity:1; font-family:Arial,Helvetica Neue,Helvetica,sans-serif; font-size:84px; text-anchor:middle;" transform="rotate(0, 1260.02, 73.2)" x="1260.02" y="73.2">Data</text>
</g>
<polyline clip-path="url(#clip8702)" style="stroke:#009af9; stroke-width:4; stroke-opacity:1; fill:none" points="
  229.132,1448.82 229.132,1385.97 263.495,1385.97 297.858,1385.97 297.858,1228.83 332.221,1228.83 366.584,1228.83 366.584,1103.13 
  400.946,1103.13 400.946,867.428 435.309,867.428 435.309,1008.85 469.672,1008.85 469.672,663.155 504.035,663.155 504.035,961.708 538.398,961.708 538.398,726.008 
  572.761,726.008 572.761,945.995 607.124,945.995 607.124,820.288 641.486,820.288 641.486,914.568 675.849,914.568 675.849,1008.85 710.212,1008.85 710.212,914.568 
  744.575,914.568 744.575,1228.83 778.938,1228.83 778.938,1197.41 813.301,1197.41 813.301,1244.55 847.663,1244.55 847.663,1338.83 882.026,1338.83 882.026,1354.54 
  916.389,1354.54 916.389,1385.97 950.752,1385.97 985.115,1385.97 985.115,1433.11 1019.48,1433.11 1019.48,1401.68 1053.84,1401.68 1053.84,1385.97 
  1088.2,1385.97 1088.2,1401.68 1122.57,1401.68 1122.57,1338.83 1156.93,1338.83 1156.93,1401.68 1191.29,1401.68 1191.29,1354.54 1225.65,1354.54 
  1260.02,1354.54 1260.02,1244.55 1294.38,1244.55 1294.38,1103.13 1328.74,1103.13 1328.74,1071.7 1363.11,1071.7 1363.11,977.421 1397.47,977.421 1397.47,883.141 
  1431.83,883.141 1431.83,474.596 1466.19,474.596 1466.19,427.456 1500.56,427.456 1500.56,348.889 1534.92,348.889 1569.28,348.889 1569.28,223.183 
  1603.65,223.183 1603.65,160.33 1638.01,160.33 1638.01,396.029 1672.37,396.029 1672.37,364.603 1706.73,364.603 1706.73,286.036 1741.1,286.036 1741.1,710.295 
  1775.46,710.295 1775.46,631.729 1809.82,631.729 1809.82,867.428 1844.19,867.428 1844.19,1055.99 1878.55,1055.99 1878.55,1181.69 1912.91,1181.69 1912.91,1213.12 
  1947.27,1213.12 1947.27,1323.11 1981.64,1323.11 1981.64,1370.25 2016,1370.25 2016,1417.39 2050.36,1417.39 2050.36,1433.11 2084.73,1433.11 2084.73,1417.39 
  2119.09,1417.39 2119.09,1433.11 2153.45,1433.11 2153.45,1448.82 2187.81,1448.82 2222.18,1448.82 2256.54,1448.82 
  2290.9,1448.82 
  "/>
<path clip-path="url(#clip8700)" d="
M1939.1 326.155 L2280.76 326.155 L2280.76 205.195 L1939.1 205.195  Z
  " fill="#ffffff" fill-rule="evenodd" fill-opacity="1"/>
<polyline clip-path="url(#clip8700)" style="stroke:#000000; stroke-width:4; stroke-opacity:1; fill:none" points="
  1939.1,326.155 2280.76,326.155 2280.76,205.195 1939.1,205.195 1939.1,326.155 
  "/>
<polyline clip-path="url(#clip8700)" style="stroke:#009af9; stroke-width:4; stroke-opacity:1; fill:none" points="
  1963.1,265.675 2107.1,265.675 
  "/>
<g clip-path="url(#clip8700)">
<text style="fill:#000000; fill-opacity:1; font-family:Arial,Helvetica Neue,Helvetica,sans-serif; font-size:48px; text-anchor:start;" transform="rotate(0, 2131.1, 283.175)" x="2131.1" y="283.175">Data</text>
</g>
</svg>
