<?xml version="1.0" encoding="utf-8"?>
<svg xmlns="http://www.w3.org/2000/svg" xmlns:xlink="http://www.w3.org/1999/xlink" width="600" height="400" viewBox="0 0 2400 1600">
<defs>
  <clipPath id="clip830">
    <rect x="0" y="0" width="2400" height="1600"/>
  </clipPath>
</defs>
<path clip-path="url(#clip830)" d="
M0 1600 L2400 1600 L2400 0 L0 0  Z
  " fill="#ffffff" fill-rule="evenodd" fill-opacity="1"/>
<defs>
  <clipPath id="clip831">
    <rect x="480" y="0" width="1681" height="1600"/>
  </clipPath>
</defs>
<path clip-path="url(#clip830)" d="
M166.205 1486.45 L2352.76 1486.45 L2352.76 123.472 L166.205 123.472  Z
  " fill="#ffffff" fill-rule="evenodd" fill-opacity="1"/>
<defs>
  <clipPath id="clip832">
    <rect x="166" y="123" width="2188" height="1364"/>
  </clipPath>
</defs>
<polyline clip-path="url(#clip832)" style="stroke:#000000; stroke-width:2; stroke-opacity:0.1; fill:none" points="
  228.088,1486.45 228.088,123.472 
  "/>
<polyline clip-path="url(#clip832)" style="stroke:#000000; stroke-width:2; stroke-opacity:0.1; fill:none" points="
  571.886,1486.45 571.886,123.472 
  "/>
<polyline clip-path="url(#clip832)" style="stroke:#000000; stroke-width:2; stroke-opacity:0.1; fill:none" points="
  915.683,1486.45 915.683,123.472 
  "/>
<polyline clip-path="url(#clip832)" style="stroke:#000000; stroke-width:2; stroke-opacity:0.1; fill:none" points="
  1259.48,1486.45 1259.48,123.472 
  "/>
<polyline clip-path="url(#clip832)" style="stroke:#000000; stroke-width:2; stroke-opacity:0.1; fill:none" points="
  1603.28,1486.45 1603.28,123.472 
  "/>
<polyline clip-path="url(#clip832)" style="stroke:#000000; stroke-width:2; stroke-opacity:0.1; fill:none" points="
  1947.08,1486.45 1947.08,123.472 
  "/>
<polyline clip-path="url(#clip832)" style="stroke:#000000; stroke-width:2; stroke-opacity:0.1; fill:none" points="
  2290.87,1486.45 2290.87,123.472 
  "/>
<polyline clip-path="url(#clip832)" style="stroke:#000000; stroke-width:2; stroke-opacity:0.1; fill:none" points="
  166.205,1447.87 2352.76,1447.87 
  "/>
<polyline clip-path="url(#clip832)" style="stroke:#000000; stroke-width:2; stroke-opacity:0.1; fill:none" points="
  166.205,1138.04 2352.76,1138.04 
  "/>
<polyline clip-path="url(#clip832)" style="stroke:#000000; stroke-width:2; stroke-opacity:0.1; fill:none" points="
  166.205,828.198 2352.76,828.198 
  "/>
<polyline clip-path="url(#clip832)" style="stroke:#000000; stroke-width:2; stroke-opacity:0.1; fill:none" points="
  166.205,518.36 2352.76,518.36 
  "/>
<polyline clip-path="url(#clip832)" style="stroke:#000000; stroke-width:2; stroke-opacity:0.1; fill:none" points="
  166.205,208.523 2352.76,208.523 
  "/>
<polyline clip-path="url(#clip830)" style="stroke:#000000; stroke-width:4; stroke-opacity:1; fill:none" points="
  166.205,1486.45 2352.76,1486.45 
  "/>
<polyline clip-path="url(#clip830)" style="stroke:#000000; stroke-width:4; stroke-opacity:1; fill:none" points="
  166.205,1486.45 166.205,123.472 
  "/>
<polyline clip-path="url(#clip830)" style="stroke:#000000; stroke-width:4; stroke-opacity:1; fill:none" points="
  228.088,1486.45 228.088,1470.09 
  "/>
<polyline clip-path="url(#clip830)" style="stroke:#000000; stroke-width:4; stroke-opacity:1; fill:none" points="
  571.886,1486.45 571.886,1470.09 
  "/>
<polyline clip-path="url(#clip830)" style="stroke:#000000; stroke-width:4; stroke-opacity:1; fill:none" points="
  915.683,1486.45 915.683,1470.09 
  "/>
<polyline clip-path="url(#clip830)" style="stroke:#000000; stroke-width:4; stroke-opacity:1; fill:none" points="
  1259.48,1486.45 1259.48,1470.09 
  "/>
<polyline clip-path="url(#clip830)" style="stroke:#000000; stroke-width:4; stroke-opacity:1; fill:none" points="
  1603.28,1486.45 1603.28,1470.09 
  "/>
<polyline clip-path="url(#clip830)" style="stroke:#000000; stroke-width:4; stroke-opacity:1; fill:none" points="
  1947.08,1486.45 1947.08,1470.09 
  "/>
<polyline clip-path="url(#clip830)" style="stroke:#000000; stroke-width:4; stroke-opacity:1; fill:none" points="
  2290.87,1486.45 2290.87,1470.09 
  "/>
<polyline clip-path="url(#clip830)" style="stroke:#000000; stroke-width:4; stroke-opacity:1; fill:none" points="
  166.205,1447.87 192.443,1447.87 
  "/>
<polyline clip-path="url(#clip830)" style="stroke:#000000; stroke-width:4; stroke-opacity:1; fill:none" points="
  166.205,1138.04 192.443,1138.04 
  "/>
<polyline clip-path="url(#clip830)" style="stroke:#000000; stroke-width:4; stroke-opacity:1; fill:none" points="
  166.205,828.198 192.443,828.198 
  "/>
<polyline clip-path="url(#clip830)" style="stroke:#000000; stroke-width:4; stroke-opacity:1; fill:none" points="
  166.205,518.36 192.443,518.36 
  "/>
<polyline clip-path="url(#clip830)" style="stroke:#000000; stroke-width:4; stroke-opacity:1; fill:none" points="
  166.205,208.523 192.443,208.523 
  "/>
<path clip-path="url(#clip830)" d="M 0 0 M209.142 1525.04 L221.618 1525.04 L221.618 1528.83 L209.142 1528.83 L209.142 1525.04 Z" fill="#000000" fill-rule="evenodd" fill-opacity="1" /><path clip-path="url(#clip830)" d="M 0 0 M230.715 1535.98 L247.035 1535.98 L247.035 1539.92 L225.091 1539.92 L225.091 1535.98 Q227.753 1533.23 232.336 1528.6 Q236.942 1523.95 238.123 1522.61 Q240.368 1520.08 241.248 1518.35 Q242.151 1516.59 242.151 1514.9 Q242.151 1512.14 240.206 1510.41 Q238.285 1508.67 235.183 1508.67 Q232.984 1508.67 230.53 1509.43 Q228.1 1510.2 225.322 1511.75 L225.322 1507.03 Q228.146 1505.89 230.6 1505.31 Q233.053 1504.73 235.09 1504.73 Q240.461 1504.73 243.655 1507.42 Q246.85 1510.11 246.85 1514.6 Q246.85 1516.73 246.039 1518.65 Q245.252 1520.54 243.146 1523.14 Q242.567 1523.81 239.465 1527.03 Q236.364 1530.22 230.715 1535.98 Z" fill="#000000" fill-rule="evenodd" fill-opacity="1" /><path clip-path="url(#clip830)" d="M 0 0 M552.754 1525.04 L565.23 1525.04 L565.23 1528.83 L552.754 1528.83 L552.754 1525.04 Z" fill="#000000" fill-rule="evenodd" fill-opacity="1" /><path clip-path="url(#clip830)" d="M 0 0 M571.11 1535.98 L578.749 1535.98 L578.749 1509.62 L570.439 1511.29 L570.439 1507.03 L578.703 1505.36 L583.379 1505.36 L583.379 1535.98 L591.017 1535.98 L591.017 1539.92 L571.11 1539.92 L571.11 1535.98 Z" fill="#000000" fill-rule="evenodd" fill-opacity="1" /><path clip-path="url(#clip830)" d="M 0 0 M915.683 1508.44 Q912.072 1508.44 910.243 1512 Q908.438 1515.55 908.438 1522.67 Q908.438 1529.78 910.243 1533.35 Q912.072 1536.89 915.683 1536.89 Q919.317 1536.89 921.123 1533.35 Q922.951 1529.78 922.951 1522.67 Q922.951 1515.55 921.123 1512 Q919.317 1508.44 915.683 1508.44 M915.683 1504.73 Q921.493 1504.73 924.549 1509.34 Q927.627 1513.92 927.627 1522.67 Q927.627 1531.4 924.549 1536.01 Q921.493 1540.59 915.683 1540.59 Q909.873 1540.59 906.794 1536.01 Q903.739 1531.4 903.739 1522.67 Q903.739 1513.92 906.794 1509.34 Q909.873 1504.73 915.683 1504.73 Z" fill="#000000" fill-rule="evenodd" fill-opacity="1" /><path clip-path="url(#clip830)" d="M 0 0 M1249.86 1535.98 L1257.5 1535.98 L1257.5 1509.62 L1249.19 1511.29 L1249.19 1507.03 L1257.45 1505.36 L1262.13 1505.36 L1262.13 1535.98 L1269.77 1535.98 L1269.77 1539.92 L1249.86 1539.92 L1249.86 1535.98 Z" fill="#000000" fill-rule="evenodd" fill-opacity="1" /><path clip-path="url(#clip830)" d="M 0 0 M1597.93 1535.98 L1614.25 1535.98 L1614.25 1539.92 L1592.31 1539.92 L1592.31 1535.98 Q1594.97 1533.23 1599.55 1528.6 Q1604.16 1523.95 1605.34 1522.61 Q1607.58 1520.08 1608.46 1518.35 Q1609.37 1516.59 1609.37 1514.9 Q1609.37 1512.14 1607.42 1510.41 Q1605.5 1508.67 1602.4 1508.67 Q1600.2 1508.67 1597.75 1509.43 Q1595.31 1510.2 1592.54 1511.75 L1592.54 1507.03 Q1595.36 1505.89 1597.81 1505.31 Q1600.27 1504.73 1602.31 1504.73 Q1607.68 1504.73 1610.87 1507.42 Q1614.06 1510.11 1614.06 1514.6 Q1614.06 1516.73 1613.25 1518.65 Q1612.47 1520.54 1610.36 1523.14 Q1609.78 1523.81 1606.68 1527.03 Q1603.58 1530.22 1597.93 1535.98 Z" fill="#000000" fill-rule="evenodd" fill-opacity="1" /><path clip-path="url(#clip830)" d="M 0 0 M1951.32 1521.29 Q1954.68 1522 1956.55 1524.27 Q1958.45 1526.54 1958.45 1529.87 Q1958.45 1534.99 1954.93 1537.79 Q1951.42 1540.59 1944.93 1540.59 Q1942.76 1540.59 1940.44 1540.15 Q1938.15 1539.73 1935.7 1538.88 L1935.7 1534.36 Q1937.64 1535.5 1939.96 1536.08 Q1942.27 1536.66 1944.79 1536.66 Q1949.19 1536.66 1951.48 1534.92 Q1953.8 1533.18 1953.8 1529.87 Q1953.8 1526.82 1951.65 1525.11 Q1949.52 1523.37 1945.7 1523.37 L1941.67 1523.37 L1941.67 1519.53 L1945.88 1519.53 Q1949.33 1519.53 1951.16 1518.16 Q1952.99 1516.77 1952.99 1514.18 Q1952.99 1511.52 1951.09 1510.11 Q1949.22 1508.67 1945.7 1508.67 Q1943.78 1508.67 1941.58 1509.09 Q1939.38 1509.5 1936.74 1510.38 L1936.74 1506.22 Q1939.4 1505.48 1941.72 1505.11 Q1944.05 1504.73 1946.11 1504.73 Q1951.44 1504.73 1954.54 1507.17 Q1957.64 1509.57 1957.64 1513.69 Q1957.64 1516.56 1956 1518.55 Q1954.36 1520.52 1951.32 1521.29 Z" fill="#000000" fill-rule="evenodd" fill-opacity="1" /><path clip-path="url(#clip830)" d="M 0 0 M2293.88 1509.43 L2282.08 1527.88 L2293.88 1527.88 L2293.88 1509.43 M2292.65 1505.36 L2298.53 1505.36 L2298.53 1527.88 L2303.46 1527.88 L2303.46 1531.77 L2298.53 1531.77 L2298.53 1539.92 L2293.88 1539.92 L2293.88 1531.77 L2278.28 1531.77 L2278.28 1527.26 L2292.65 1505.36 Z" fill="#000000" fill-rule="evenodd" fill-opacity="1" /><path clip-path="url(#clip830)" d="M 0 0 M130.26 1433.67 Q126.649 1433.67 124.82 1437.24 Q123.015 1440.78 123.015 1447.91 Q123.015 1455.01 124.82 1458.58 Q126.649 1462.12 130.26 1462.12 Q133.895 1462.12 135.7 1458.58 Q137.529 1455.01 137.529 1447.91 Q137.529 1440.78 135.7 1437.24 Q133.895 1433.67 130.26 1433.67 M130.26 1429.97 Q136.07 1429.97 139.126 1434.57 Q142.205 1439.16 142.205 1447.91 Q142.205 1456.63 139.126 1461.24 Q136.07 1465.82 130.26 1465.82 Q124.45 1465.82 121.371 1461.24 Q118.316 1456.63 118.316 1447.91 Q118.316 1439.16 121.371 1434.57 Q124.45 1429.97 130.26 1429.97 Z" fill="#000000" fill-rule="evenodd" fill-opacity="1" /><path clip-path="url(#clip830)" d="M 0 0 M71.8578 1151.38 L88.1772 1151.38 L88.1772 1155.32 L66.2328 1155.32 L66.2328 1151.38 Q68.8949 1148.63 73.4782 1144 Q78.0846 1139.34 79.2652 1138 Q81.5105 1135.48 82.3902 1133.74 Q83.2929 1131.98 83.2929 1130.29 Q83.2929 1127.54 81.3485 1125.8 Q79.4272 1124.07 76.3254 1124.07 Q74.1263 1124.07 71.6726 1124.83 Q69.2421 1125.59 66.4643 1127.14 L66.4643 1122.42 Q69.2884 1121.29 71.7421 1120.71 Q74.1958 1120.13 76.2328 1120.13 Q81.6031 1120.13 84.7976 1122.82 Q87.992 1125.5 87.992 1129.99 Q87.992 1132.12 87.1818 1134.04 Q86.3948 1135.94 84.2883 1138.53 Q83.7096 1139.2 80.6078 1142.42 Q77.5059 1145.62 71.8578 1151.38 Z" fill="#000000" fill-rule="evenodd" fill-opacity="1" /><path clip-path="url(#clip830)" d="M 0 0 M103.247 1123.83 Q99.6354 1123.83 97.8068 1127.4 Q96.0012 1130.94 96.0012 1138.07 Q96.0012 1145.18 97.8068 1148.74 Q99.6354 1152.28 103.247 1152.28 Q106.881 1152.28 108.686 1148.74 Q110.515 1145.18 110.515 1138.07 Q110.515 1130.94 108.686 1127.4 Q106.881 1123.83 103.247 1123.83 M103.247 1120.13 Q109.057 1120.13 112.112 1124.74 Q115.191 1129.32 115.191 1138.07 Q115.191 1146.8 112.112 1151.4 Q109.057 1155.99 103.247 1155.99 Q97.4364 1155.99 94.3577 1151.4 Q91.3022 1146.8 91.3022 1138.07 Q91.3022 1129.32 94.3577 1124.74 Q97.4364 1120.13 103.247 1120.13 Z" fill="#000000" fill-rule="evenodd" fill-opacity="1" /><path clip-path="url(#clip830)" d="M 0 0 M130.26 1123.83 Q126.649 1123.83 124.82 1127.4 Q123.015 1130.94 123.015 1138.07 Q123.015 1145.18 124.82 1148.74 Q126.649 1152.28 130.26 1152.28 Q133.895 1152.28 135.7 1148.74 Q137.529 1145.18 137.529 1138.07 Q137.529 1130.94 135.7 1127.4 Q133.895 1123.83 130.26 1123.83 M130.26 1120.13 Q136.07 1120.13 139.126 1124.74 Q142.205 1129.32 142.205 1138.07 Q142.205 1146.8 139.126 1151.4 Q136.07 1155.99 130.26 1155.99 Q124.45 1155.99 121.371 1151.4 Q118.316 1146.8 118.316 1138.07 Q118.316 1129.32 121.371 1124.74 Q124.45 1120.13 130.26 1120.13 Z" fill="#000000" fill-rule="evenodd" fill-opacity="1" /><path clip-path="url(#clip830)" d="M 0 0 M78.5939 814.992 L66.7884 833.441 L78.5939 833.441 L78.5939 814.992 M77.367 810.918 L83.2466 810.918 L83.2466 833.441 L88.1772 833.441 L88.1772 837.33 L83.2466 837.33 L83.2466 845.478 L78.5939 845.478 L78.5939 837.33 L62.9921 837.33 L62.9921 832.816 L77.367 810.918 Z" fill="#000000" fill-rule="evenodd" fill-opacity="1" /><path clip-path="url(#clip830)" d="M 0 0 M103.247 813.997 Q99.6354 813.997 97.8068 817.561 Q96.0012 821.103 96.0012 828.233 Q96.0012 835.339 97.8068 838.904 Q99.6354 842.445 103.247 842.445 Q106.881 842.445 108.686 838.904 Q110.515 835.339 110.515 828.233 Q110.515 821.103 108.686 817.561 Q106.881 813.997 103.247 813.997 M103.247 810.293 Q109.057 810.293 112.112 814.899 Q115.191 819.483 115.191 828.233 Q115.191 836.959 112.112 841.566 Q109.057 846.149 103.247 846.149 Q97.4364 846.149 94.3577 841.566 Q91.3022 836.959 91.3022 828.233 Q91.3022 819.483 94.3577 814.899 Q97.4364 810.293 103.247 810.293 Z" fill="#000000" fill-rule="evenodd" fill-opacity="1" /><path clip-path="url(#clip830)" d="M 0 0 M130.26 813.997 Q126.649 813.997 124.82 817.561 Q123.015 821.103 123.015 828.233 Q123.015 835.339 124.82 838.904 Q126.649 842.445 130.26 842.445 Q133.895 842.445 135.7 838.904 Q137.529 835.339 137.529 828.233 Q137.529 821.103 135.7 817.561 Q133.895 813.997 130.26 813.997 M130.26 810.293 Q136.07 810.293 139.126 814.899 Q142.205 819.483 142.205 828.233 Q142.205 836.959 139.126 841.566 Q136.07 846.149 130.26 846.149 Q124.45 846.149 121.371 841.566 Q118.316 836.959 118.316 828.233 Q118.316 819.483 121.371 814.899 Q124.45 810.293 130.26 810.293 Z" fill="#000000" fill-rule="evenodd" fill-opacity="1" /><path clip-path="url(#clip830)" d="M 0 0 M76.6495 516.497 Q73.5013 516.497 71.6495 518.65 Q69.8208 520.802 69.8208 524.552 Q69.8208 528.279 71.6495 530.455 Q73.5013 532.608 76.6495 532.608 Q79.7976 532.608 81.6263 530.455 Q83.4781 528.279 83.4781 524.552 Q83.4781 520.802 81.6263 518.65 Q79.7976 516.497 76.6495 516.497 M85.9318 501.844 L85.9318 506.103 Q84.1726 505.27 82.367 504.83 Q80.5846 504.39 78.8254 504.39 Q74.1958 504.39 71.7421 507.515 Q69.3115 510.64 68.9643 516.96 Q70.33 514.946 72.3902 513.881 Q74.4504 512.793 76.9272 512.793 Q82.1355 512.793 85.1448 515.964 Q88.1772 519.113 88.1772 524.552 Q88.1772 529.876 85.029 533.094 Q81.8809 536.311 76.6495 536.311 Q70.6541 536.311 67.4828 531.728 Q64.3116 527.122 64.3116 518.395 Q64.3116 510.201 68.2004 505.339 Q72.0893 500.455 78.6402 500.455 Q80.3994 500.455 82.1818 500.802 Q83.9874 501.15 85.9318 501.844 Z" fill="#000000" fill-rule="evenodd" fill-opacity="1" /><path clip-path="url(#clip830)" d="M 0 0 M103.247 504.159 Q99.6354 504.159 97.8068 507.724 Q96.0012 511.265 96.0012 518.395 Q96.0012 525.501 97.8068 529.066 Q99.6354 532.608 103.247 532.608 Q106.881 532.608 108.686 529.066 Q110.515 525.501 110.515 518.395 Q110.515 511.265 108.686 507.724 Q106.881 504.159 103.247 504.159 M103.247 500.455 Q109.057 500.455 112.112 505.062 Q115.191 509.645 115.191 518.395 Q115.191 527.122 112.112 531.728 Q109.057 536.311 103.247 536.311 Q97.4364 536.311 94.3577 531.728 Q91.3022 527.122 91.3022 518.395 Q91.3022 509.645 94.3577 505.062 Q97.4364 500.455 103.247 500.455 Z" fill="#000000" fill-rule="evenodd" fill-opacity="1" /><path clip-path="url(#clip830)" d="M 0 0 M130.26 504.159 Q126.649 504.159 124.82 507.724 Q123.015 511.265 123.015 518.395 Q123.015 525.501 124.82 529.066 Q126.649 532.608 130.26 532.608 Q133.895 532.608 135.7 529.066 Q137.529 525.501 137.529 518.395 Q137.529 511.265 135.7 507.724 Q133.895 504.159 130.26 504.159 M130.26 500.455 Q136.07 500.455 139.126 505.062 Q142.205 509.645 142.205 518.395 Q142.205 527.122 139.126 531.728 Q136.07 536.311 130.26 536.311 Q124.45 536.311 121.371 531.728 Q118.316 527.122 118.316 518.395 Q118.316 509.645 121.371 505.062 Q124.45 500.455 130.26 500.455 Z" fill="#000000" fill-rule="evenodd" fill-opacity="1" /><path clip-path="url(#clip830)" d="M 0 0 M76.3254 209.391 Q72.9921 209.391 71.0708 211.173 Q69.1726 212.955 69.1726 216.08 Q69.1726 219.205 71.0708 220.988 Q72.9921 222.77 76.3254 222.77 Q79.6587 222.77 81.58 220.988 Q83.5013 219.182 83.5013 216.08 Q83.5013 212.955 81.58 211.173 Q79.6819 209.391 76.3254 209.391 M71.6495 207.4 Q68.6402 206.659 66.9504 204.599 Q65.2838 202.539 65.2838 199.576 Q65.2838 195.432 68.2236 193.025 Q71.1865 190.618 76.3254 190.618 Q81.4874 190.618 84.4272 193.025 Q87.367 195.432 87.367 199.576 Q87.367 202.539 85.6772 204.599 Q84.0105 206.659 81.0244 207.4 Q84.404 208.187 86.279 210.479 Q88.1772 212.77 88.1772 216.08 Q88.1772 221.104 85.0985 223.789 Q82.0429 226.474 76.3254 226.474 Q70.6078 226.474 67.5291 223.789 Q64.4736 221.104 64.4736 216.08 Q64.4736 212.77 66.3717 210.479 Q68.2699 208.187 71.6495 207.4 M69.9365 200.016 Q69.9365 202.701 71.6032 204.205 Q73.293 205.71 76.3254 205.71 Q79.3346 205.71 81.0244 204.205 Q82.7374 202.701 82.7374 200.016 Q82.7374 197.33 81.0244 195.826 Q79.3346 194.321 76.3254 194.321 Q73.293 194.321 71.6032 195.826 Q69.9365 197.33 69.9365 200.016 Z" fill="#000000" fill-rule="evenodd" fill-opacity="1" /><path clip-path="url(#clip830)" d="M 0 0 M103.247 194.321 Q99.6354 194.321 97.8068 197.886 Q96.0012 201.428 96.0012 208.557 Q96.0012 215.664 97.8068 219.229 Q99.6354 222.77 103.247 222.77 Q106.881 222.77 108.686 219.229 Q110.515 215.664 110.515 208.557 Q110.515 201.428 108.686 197.886 Q106.881 194.321 103.247 194.321 M103.247 190.618 Q109.057 190.618 112.112 195.224 Q115.191 199.807 115.191 208.557 Q115.191 217.284 112.112 221.891 Q109.057 226.474 103.247 226.474 Q97.4364 226.474 94.3577 221.891 Q91.3022 217.284 91.3022 208.557 Q91.3022 199.807 94.3577 195.224 Q97.4364 190.618 103.247 190.618 Z" fill="#000000" fill-rule="evenodd" fill-opacity="1" /><path clip-path="url(#clip830)" d="M 0 0 M130.26 194.321 Q126.649 194.321 124.82 197.886 Q123.015 201.428 123.015 208.557 Q123.015 215.664 124.82 219.229 Q126.649 222.77 130.26 222.77 Q133.895 222.77 135.7 219.229 Q137.529 215.664 137.529 208.557 Q137.529 201.428 135.7 197.886 Q133.895 194.321 130.26 194.321 M130.26 190.618 Q136.07 190.618 139.126 195.224 Q142.205 199.807 142.205 208.557 Q142.205 217.284 139.126 221.891 Q136.07 226.474 130.26 226.474 Q124.45 226.474 121.371 221.891 Q118.316 217.284 118.316 208.557 Q118.316 199.807 121.371 195.224 Q124.45 190.618 130.26 190.618 Z" fill="#000000" fill-rule="evenodd" fill-opacity="1" /><path clip-path="url(#clip830)" d="M 0 0 M1183.67 18.8205 L1183.67 65.8515 L1193.55 65.8515 Q1206.07 65.8515 1211.86 60.1802 Q1217.7 54.509 1217.7 42.2752 Q1217.7 30.1225 1211.86 24.4918 Q1206.07 18.8205 1193.55 18.8205 L1183.67 18.8205 M1175.48 12.096 L1192.3 12.096 Q1209.88 12.096 1218.1 19.4281 Q1226.32 26.7198 1226.32 42.2752 Q1226.32 57.9117 1218.06 65.2439 Q1209.8 72.576 1192.3 72.576 L1175.48 72.576 L1175.48 12.096 Z" fill="#000000" fill-rule="evenodd" fill-opacity="1" /><path clip-path="url(#clip830)" d="M 0 0 M1254.76 49.7694 Q1245.73 49.7694 1242.24 51.8354 Q1238.76 53.9013 1238.76 58.8839 Q1238.76 62.8538 1241.35 65.2034 Q1243.99 67.5124 1248.48 67.5124 Q1254.68 67.5124 1258.41 63.1374 Q1262.17 58.7219 1262.17 51.4303 L1262.17 49.7694 L1254.76 49.7694 M1269.63 46.6907 L1269.63 72.576 L1262.17 72.576 L1262.17 65.6895 Q1259.62 69.8214 1255.81 71.8063 Q1252.01 73.7508 1246.5 73.7508 Q1239.53 73.7508 1235.4 69.8619 Q1231.31 65.9325 1231.31 59.3701 Q1231.31 51.7138 1236.41 47.825 Q1241.56 43.9361 1251.72 43.9361 L1262.17 43.9361 L1262.17 43.2069 Q1262.17 38.0623 1258.77 35.2672 Q1255.41 32.4315 1249.29 32.4315 Q1245.4 32.4315 1241.72 33.3632 Q1238.03 34.295 1234.63 36.1584 L1234.63 29.2718 Q1238.72 27.692 1242.57 26.9223 Q1246.42 26.1121 1250.06 26.1121 Q1259.91 26.1121 1264.77 31.2163 Q1269.63 36.3204 1269.63 46.6907 Z" fill="#000000" fill-rule="evenodd" fill-opacity="1" /><path clip-path="url(#clip830)" d="M 0 0 M1284.82 14.324 L1284.82 27.2059 L1300.17 27.2059 L1300.17 32.9987 L1284.82 32.9987 L1284.82 57.6282 Q1284.82 63.1779 1286.32 64.7578 Q1287.86 66.3376 1292.52 66.3376 L1300.17 66.3376 L1300.17 72.576 L1292.52 72.576 Q1283.89 72.576 1280.61 69.3758 Q1277.32 66.1351 1277.32 57.6282 L1277.32 32.9987 L1271.86 32.9987 L1271.86 27.2059 L1277.32 27.2059 L1277.32 14.324 L1284.82 14.324 Z" fill="#000000" fill-rule="evenodd" fill-opacity="1" /><path clip-path="url(#clip830)" d="M 0 0 M1328.61 49.7694 Q1319.58 49.7694 1316.09 51.8354 Q1312.61 53.9013 1312.61 58.8839 Q1312.61 62.8538 1315.2 65.2034 Q1317.83 67.5124 1322.33 67.5124 Q1328.53 67.5124 1332.25 63.1374 Q1336.02 58.7219 1336.02 51.4303 L1336.02 49.7694 L1328.61 49.7694 M1343.48 46.6907 L1343.48 72.576 L1336.02 72.576 L1336.02 65.6895 Q1333.47 69.8214 1329.66 71.8063 Q1325.85 73.7508 1320.35 73.7508 Q1313.38 73.7508 1309.25 69.8619 Q1305.15 65.9325 1305.15 59.3701 Q1305.15 51.7138 1310.26 47.825 Q1315.4 43.9361 1325.57 43.9361 L1336.02 43.9361 L1336.02 43.2069 Q1336.02 38.0623 1332.62 35.2672 Q1329.26 32.4315 1323.14 32.4315 Q1319.25 32.4315 1315.57 33.3632 Q1311.88 34.295 1308.48 36.1584 L1308.48 29.2718 Q1312.57 27.692 1316.42 26.9223 Q1320.26 26.1121 1323.91 26.1121 Q1333.75 26.1121 1338.61 31.2163 Q1343.48 36.3204 1343.48 46.6907 Z" fill="#000000" fill-rule="evenodd" fill-opacity="1" /><polyline clip-path="url(#clip832)" style="stroke:#009af9; stroke-width:4; stroke-opacity:1; fill:none" points="
  228.088,1447.87 228.088,1385.91 262.468,1385.91 262.468,1215.49 296.848,1215.49 296.848,1230.99 331.227,1230.99 331.227,1200 365.607,1200 365.607,1122.54 
  399.987,1122.54 399.987,1153.53 434.367,1153.53 434.367,1045.08 468.746,1045.08 468.746,781.722 503.126,781.722 503.126,812.706 537.506,812.706 537.506,766.23 
  571.886,766.23 571.886,797.214 606.265,797.214 606.265,921.149 640.645,921.149 640.645,828.198 675.025,828.198 675.025,1107.05 709.405,1107.05 709.405,1138.04 
  743.784,1138.04 743.784,1076.07 778.164,1076.07 778.164,1107.05 812.544,1107.05 812.544,1169.02 846.923,1169.02 846.923,1323.94 881.303,1323.94 881.303,1385.91 
  915.683,1385.91 915.683,1370.41 950.063,1370.41 950.063,1385.91 984.442,1385.91 984.442,1432.38 1018.82,1432.38 1053.2,1432.38 1053.2,1416.89 
  1087.58,1416.89 1087.58,1432.38 1121.96,1432.38 1121.96,1447.87 1156.34,1447.87 1156.34,1370.41 1190.72,1370.41 1190.72,1261.97 1225.1,1261.97 1225.1,1277.46 
  1259.48,1277.46 1259.48,1184.51 1293.86,1184.51 1293.86,1107.05 1328.24,1107.05 1328.24,1014.1 1362.62,1014.1 1362.62,766.23 1397,766.23 1397,750.738 
  1431.38,750.738 1431.38,688.771 1465.76,688.771 1465.76,518.36 1500.14,518.36 1500.14,456.393 1534.52,456.393 1534.52,316.966 1568.9,316.966 1568.9,193.031 
  1603.28,193.031 1603.28,162.047 1637.66,162.047 1637.66,440.901 1672.04,440.901 1672.04,239.506 1706.42,239.506 1706.42,332.458 1740.8,332.458 1740.8,781.722 
  1775.18,781.722 1775.18,719.755 1809.56,719.755 1809.56,1045.08 1843.94,1045.08 1843.94,1076.07 1878.32,1076.07 1878.32,1200 1912.7,1200 1912.7,1339.43 
  1947.08,1339.43 1947.08,1277.46 1981.45,1277.46 1981.45,1323.94 2015.83,1323.94 2015.83,1432.38 2050.21,1432.38 2084.59,1432.38 2084.59,1416.89 
  2118.97,1416.89 2118.97,1432.38 2153.35,1432.38 2153.35,1447.87 2187.73,1447.87 2187.73,1432.38 2222.11,1432.38 2222.11,1447.87 2256.49,1447.87 
  2290.87,1447.87 
  "/>
<path clip-path="url(#clip830)" d="
M1944.76 327.952 L2280.76 327.952 L2280.76 206.992 L1944.76 206.992  Z
  " fill="#ffffff" fill-rule="evenodd" fill-opacity="1"/>
<polyline clip-path="url(#clip830)" style="stroke:#000000; stroke-width:4; stroke-opacity:1; fill:none" points="
  1944.76,327.952 2280.76,327.952 2280.76,206.992 1944.76,206.992 1944.76,327.952 
  "/>
<polyline clip-path="url(#clip830)" style="stroke:#009af9; stroke-width:4; stroke-opacity:1; fill:none" points="
  1968.76,267.472 2112.76,267.472 
  "/>
<path clip-path="url(#clip830)" d="M 0 0 M2141.44 254.035 L2141.44 280.91 L2147.09 280.91 Q2154.24 280.91 2157.55 277.669 Q2160.88 274.428 2160.88 267.437 Q2160.88 260.493 2157.55 257.275 Q2154.24 254.035 2147.09 254.035 L2141.44 254.035 M2136.76 250.192 L2146.37 250.192 Q2156.41 250.192 2161.11 254.382 Q2165.81 258.549 2165.81 267.437 Q2165.81 276.373 2161.09 280.562 Q2156.37 284.752 2146.37 284.752 L2136.76 284.752 L2136.76 250.192 Z" fill="#000000" fill-rule="evenodd" fill-opacity="1" /><path clip-path="url(#clip830)" d="M 0 0 M2182.06 271.72 Q2176.9 271.72 2174.91 272.9 Q2172.92 274.081 2172.92 276.928 Q2172.92 279.197 2174.4 280.539 Q2175.9 281.859 2178.47 281.859 Q2182.02 281.859 2184.15 279.359 Q2186.3 276.836 2186.3 272.669 L2186.3 271.72 L2182.06 271.72 M2190.56 269.961 L2190.56 284.752 L2186.3 284.752 L2186.3 280.817 Q2184.84 283.178 2182.66 284.312 Q2180.49 285.423 2177.34 285.423 Q2173.36 285.423 2171 283.201 Q2168.66 280.956 2168.66 277.206 Q2168.66 272.831 2171.58 270.609 Q2174.52 268.386 2180.33 268.386 L2186.3 268.386 L2186.3 267.97 Q2186.3 265.03 2184.35 263.433 Q2182.43 261.812 2178.94 261.812 Q2176.71 261.812 2174.61 262.345 Q2172.5 262.877 2170.56 263.942 L2170.56 260.007 Q2172.9 259.104 2175.09 258.664 Q2177.29 258.201 2179.38 258.201 Q2185 258.201 2187.78 261.118 Q2190.56 264.035 2190.56 269.961 Z" fill="#000000" fill-rule="evenodd" fill-opacity="1" /><path clip-path="url(#clip830)" d="M 0 0 M2199.24 251.465 L2199.24 258.826 L2208.01 258.826 L2208.01 262.137 L2199.24 262.137 L2199.24 276.211 Q2199.24 279.382 2200.09 280.285 Q2200.97 281.187 2203.64 281.187 L2208.01 281.187 L2208.01 284.752 L2203.64 284.752 Q2198.71 284.752 2196.83 282.923 Q2194.96 281.072 2194.96 276.211 L2194.96 262.137 L2191.83 262.137 L2191.83 258.826 L2194.96 258.826 L2194.96 251.465 L2199.24 251.465 Z" fill="#000000" fill-rule="evenodd" fill-opacity="1" /><path clip-path="url(#clip830)" d="M 0 0 M2224.26 271.72 Q2219.1 271.72 2217.11 272.9 Q2215.12 274.081 2215.12 276.928 Q2215.12 279.197 2216.6 280.539 Q2218.1 281.859 2220.67 281.859 Q2224.21 281.859 2226.34 279.359 Q2228.5 276.836 2228.5 272.669 L2228.5 271.72 L2224.26 271.72 M2232.76 269.961 L2232.76 284.752 L2228.5 284.752 L2228.5 280.817 Q2227.04 283.178 2224.86 284.312 Q2222.69 285.423 2219.54 285.423 Q2215.56 285.423 2213.2 283.201 Q2210.86 280.956 2210.86 277.206 Q2210.86 272.831 2213.77 270.609 Q2216.71 268.386 2222.52 268.386 L2228.5 268.386 L2228.5 267.97 Q2228.5 265.03 2226.55 263.433 Q2224.63 261.812 2221.14 261.812 Q2218.91 261.812 2216.81 262.345 Q2214.7 262.877 2212.76 263.942 L2212.76 260.007 Q2215.09 259.104 2217.29 258.664 Q2219.49 258.201 2221.58 258.201 Q2227.2 258.201 2229.98 261.118 Q2232.76 264.035 2232.76 269.961 Z" fill="#000000" fill-rule="evenodd" fill-opacity="1" /></svg>
