<?xml version="1.0" encoding="utf-8"?>
<svg xmlns="http://www.w3.org/2000/svg" xmlns:xlink="http://www.w3.org/1999/xlink" width="600" height="400" viewBox="0 0 2400 1600">
<defs>
  <clipPath id="clip860">
    <rect x="0" y="0" width="2400" height="1600"/>
  </clipPath>
</defs>
<path clip-path="url(#clip860)" d="
M0 1600 L2400 1600 L2400 0 L0 0  Z
  " fill="#ffffff" fill-rule="evenodd" fill-opacity="1"/>
<defs>
  <clipPath id="clip861">
    <rect x="480" y="0" width="1681" height="1600"/>
  </clipPath>
</defs>
<path clip-path="url(#clip860)" d="
M166.205 1486.45 L2352.76 1486.45 L2352.76 123.472 L166.205 123.472  Z
  " fill="#ffffff" fill-rule="evenodd" fill-opacity="1"/>
<defs>
  <clipPath id="clip862">
    <rect x="166" y="123" width="2188" height="1364"/>
  </clipPath>
</defs>
<polyline clip-path="url(#clip862)" style="stroke:#000000; stroke-width:2; stroke-opacity:0.1; fill:none" points="
  228.088,1486.45 228.088,123.472 
  "/>
<polyline clip-path="url(#clip862)" style="stroke:#000000; stroke-width:2; stroke-opacity:0.1; fill:none" points="
  743.784,1486.45 743.784,123.472 
  "/>
<polyline clip-path="url(#clip862)" style="stroke:#000000; stroke-width:2; stroke-opacity:0.1; fill:none" points="
  1259.48,1486.45 1259.48,123.472 
  "/>
<polyline clip-path="url(#clip862)" style="stroke:#000000; stroke-width:2; stroke-opacity:0.1; fill:none" points="
  1775.18,1486.45 1775.18,123.472 
  "/>
<polyline clip-path="url(#clip862)" style="stroke:#000000; stroke-width:2; stroke-opacity:0.1; fill:none" points="
  2290.87,1486.45 2290.87,123.472 
  "/>
<polyline clip-path="url(#clip862)" style="stroke:#000000; stroke-width:2; stroke-opacity:0.1; fill:none" points="
  166.205,1447.87 2352.76,1447.87 
  "/>
<polyline clip-path="url(#clip862)" style="stroke:#000000; stroke-width:2; stroke-opacity:0.1; fill:none" points="
  166.205,1138.04 2352.76,1138.04 
  "/>
<polyline clip-path="url(#clip862)" style="stroke:#000000; stroke-width:2; stroke-opacity:0.1; fill:none" points="
  166.205,828.198 2352.76,828.198 
  "/>
<polyline clip-path="url(#clip862)" style="stroke:#000000; stroke-width:2; stroke-opacity:0.1; fill:none" points="
  166.205,518.36 2352.76,518.36 
  "/>
<polyline clip-path="url(#clip862)" style="stroke:#000000; stroke-width:2; stroke-opacity:0.1; fill:none" points="
  166.205,208.523 2352.76,208.523 
  "/>
<polyline clip-path="url(#clip860)" style="stroke:#000000; stroke-width:4; stroke-opacity:1; fill:none" points="
  166.205,1486.45 2352.76,1486.45 
  "/>
<polyline clip-path="url(#clip860)" style="stroke:#000000; stroke-width:4; stroke-opacity:1; fill:none" points="
  166.205,1486.45 166.205,123.472 
  "/>
<polyline clip-path="url(#clip860)" style="stroke:#000000; stroke-width:4; stroke-opacity:1; fill:none" points="
  228.088,1486.45 228.088,1470.09 
  "/>
<polyline clip-path="url(#clip860)" style="stroke:#000000; stroke-width:4; stroke-opacity:1; fill:none" points="
  743.784,1486.45 743.784,1470.09 
  "/>
<polyline clip-path="url(#clip860)" style="stroke:#000000; stroke-width:4; stroke-opacity:1; fill:none" points="
  1259.48,1486.45 1259.48,1470.09 
  "/>
<polyline clip-path="url(#clip860)" style="stroke:#000000; stroke-width:4; stroke-opacity:1; fill:none" points="
  1775.18,1486.45 1775.18,1470.09 
  "/>
<polyline clip-path="url(#clip860)" style="stroke:#000000; stroke-width:4; stroke-opacity:1; fill:none" points="
  2290.87,1486.45 2290.87,1470.09 
  "/>
<polyline clip-path="url(#clip860)" style="stroke:#000000; stroke-width:4; stroke-opacity:1; fill:none" points="
  166.205,1447.87 192.443,1447.87 
  "/>
<polyline clip-path="url(#clip860)" style="stroke:#000000; stroke-width:4; stroke-opacity:1; fill:none" points="
  166.205,1138.04 192.443,1138.04 
  "/>
<polyline clip-path="url(#clip860)" style="stroke:#000000; stroke-width:4; stroke-opacity:1; fill:none" points="
  166.205,828.198 192.443,828.198 
  "/>
<polyline clip-path="url(#clip860)" style="stroke:#000000; stroke-width:4; stroke-opacity:1; fill:none" points="
  166.205,518.36 192.443,518.36 
  "/>
<polyline clip-path="url(#clip860)" style="stroke:#000000; stroke-width:4; stroke-opacity:1; fill:none" points="
  166.205,208.523 192.443,208.523 
  "/>
<path clip-path="url(#clip860)" d="M 0 0 M208.1 1525.04 L220.577 1525.04 L220.577 1528.83 L208.1 1528.83 L208.1 1525.04 Z" fill="#000000" fill-rule="evenodd" fill-opacity="1" /><path clip-path="url(#clip860)" d="M 0 0 M238.493 1509.43 L226.688 1527.88 L238.493 1527.88 L238.493 1509.43 M237.266 1505.36 L243.146 1505.36 L243.146 1527.88 L248.077 1527.88 L248.077 1531.77 L243.146 1531.77 L243.146 1539.92 L238.493 1539.92 L238.493 1531.77 L222.891 1531.77 L222.891 1527.26 L237.266 1505.36 Z" fill="#000000" fill-rule="evenodd" fill-opacity="1" /><path clip-path="url(#clip860)" d="M 0 0 M724.838 1525.04 L737.314 1525.04 L737.314 1528.83 L724.838 1528.83 L724.838 1525.04 Z" fill="#000000" fill-rule="evenodd" fill-opacity="1" /><path clip-path="url(#clip860)" d="M 0 0 M746.412 1535.98 L762.731 1535.98 L762.731 1539.92 L740.787 1539.92 L740.787 1535.98 Q743.449 1533.23 748.032 1528.6 Q752.638 1523.95 753.819 1522.61 Q756.064 1520.08 756.944 1518.35 Q757.847 1516.59 757.847 1514.9 Q757.847 1512.14 755.902 1510.41 Q753.981 1508.67 750.879 1508.67 Q748.68 1508.67 746.226 1509.43 Q743.796 1510.2 741.018 1511.75 L741.018 1507.03 Q743.842 1505.89 746.296 1505.31 Q748.749 1504.73 750.787 1504.73 Q756.157 1504.73 759.351 1507.42 Q762.546 1510.11 762.546 1514.6 Q762.546 1516.73 761.736 1518.65 Q760.948 1520.54 758.842 1523.14 Q758.263 1523.81 755.161 1527.03 Q752.06 1530.22 746.412 1535.98 Z" fill="#000000" fill-rule="evenodd" fill-opacity="1" /><path clip-path="url(#clip860)" d="M 0 0 M1259.48 1508.44 Q1255.87 1508.44 1254.04 1512 Q1252.23 1515.55 1252.23 1522.67 Q1252.23 1529.78 1254.04 1533.35 Q1255.87 1536.89 1259.48 1536.89 Q1263.11 1536.89 1264.92 1533.35 Q1266.75 1529.78 1266.75 1522.67 Q1266.75 1515.55 1264.92 1512 Q1263.11 1508.44 1259.48 1508.44 M1259.48 1504.73 Q1265.29 1504.73 1268.35 1509.34 Q1271.42 1513.92 1271.42 1522.67 Q1271.42 1531.4 1268.35 1536.01 Q1265.29 1540.59 1259.48 1540.59 Q1253.67 1540.59 1250.59 1536.01 Q1247.54 1531.4 1247.54 1522.67 Q1247.54 1513.92 1250.59 1509.34 Q1253.67 1504.73 1259.48 1504.73 Z" fill="#000000" fill-rule="evenodd" fill-opacity="1" /><path clip-path="url(#clip860)" d="M 0 0 M1769.83 1535.98 L1786.15 1535.98 L1786.15 1539.92 L1764.2 1539.92 L1764.2 1535.98 Q1766.87 1533.23 1771.45 1528.6 Q1776.06 1523.95 1777.24 1522.61 Q1779.48 1520.08 1780.36 1518.35 Q1781.26 1516.59 1781.26 1514.9 Q1781.26 1512.14 1779.32 1510.41 Q1777.4 1508.67 1774.3 1508.67 Q1772.1 1508.67 1769.64 1509.43 Q1767.21 1510.2 1764.44 1511.75 L1764.44 1507.03 Q1767.26 1505.89 1769.71 1505.31 Q1772.17 1504.73 1774.2 1504.73 Q1779.57 1504.73 1782.77 1507.42 Q1785.96 1510.11 1785.96 1514.6 Q1785.96 1516.73 1785.15 1518.65 Q1784.37 1520.54 1782.26 1523.14 Q1781.68 1523.81 1778.58 1527.03 Q1775.48 1530.22 1769.83 1535.98 Z" fill="#000000" fill-rule="evenodd" fill-opacity="1" /><path clip-path="url(#clip860)" d="M 0 0 M2293.88 1509.43 L2282.08 1527.88 L2293.88 1527.88 L2293.88 1509.43 M2292.65 1505.36 L2298.53 1505.36 L2298.53 1527.88 L2303.46 1527.88 L2303.46 1531.77 L2298.53 1531.77 L2298.53 1539.92 L2293.88 1539.92 L2293.88 1531.77 L2278.28 1531.77 L2278.28 1527.26 L2292.65 1505.36 Z" fill="#000000" fill-rule="evenodd" fill-opacity="1" /><path clip-path="url(#clip860)" d="M 0 0 M130.26 1433.67 Q126.649 1433.67 124.82 1437.24 Q123.015 1440.78 123.015 1447.91 Q123.015 1455.01 124.82 1458.58 Q126.649 1462.12 130.26 1462.12 Q133.895 1462.12 135.7 1458.58 Q137.529 1455.01 137.529 1447.91 Q137.529 1440.78 135.7 1437.24 Q133.895 1433.67 130.26 1433.67 M130.26 1429.97 Q136.07 1429.97 139.126 1434.57 Q142.205 1439.16 142.205 1447.91 Q142.205 1456.63 139.126 1461.24 Q136.07 1465.82 130.26 1465.82 Q124.45 1465.82 121.371 1461.24 Q118.316 1456.63 118.316 1447.91 Q118.316 1439.16 121.371 1434.57 Q124.45 1429.97 130.26 1429.97 Z" fill="#000000" fill-rule="evenodd" fill-opacity="1" /><path clip-path="url(#clip860)" d="M 0 0 M71.8578 1151.38 L88.1772 1151.38 L88.1772 1155.32 L66.2328 1155.32 L66.2328 1151.38 Q68.8949 1148.63 73.4782 1144 Q78.0846 1139.34 79.2652 1138 Q81.5105 1135.48 82.3902 1133.74 Q83.2929 1131.98 83.2929 1130.29 Q83.2929 1127.54 81.3485 1125.8 Q79.4272 1124.07 76.3254 1124.07 Q74.1263 1124.07 71.6726 1124.83 Q69.2421 1125.59 66.4643 1127.14 L66.4643 1122.42 Q69.2884 1121.29 71.7421 1120.71 Q74.1958 1120.13 76.2328 1120.13 Q81.6031 1120.13 84.7976 1122.82 Q87.992 1125.5 87.992 1129.99 Q87.992 1132.12 87.1818 1134.04 Q86.3948 1135.94 84.2883 1138.53 Q83.7096 1139.2 80.6078 1142.42 Q77.5059 1145.62 71.8578 1151.38 Z" fill="#000000" fill-rule="evenodd" fill-opacity="1" /><path clip-path="url(#clip860)" d="M 0 0 M103.247 1123.83 Q99.6354 1123.83 97.8068 1127.4 Q96.0012 1130.94 96.0012 1138.07 Q96.0012 1145.18 97.8068 1148.74 Q99.6354 1152.28 103.247 1152.28 Q106.881 1152.28 108.686 1148.74 Q110.515 1145.18 110.515 1138.07 Q110.515 1130.94 108.686 1127.4 Q106.881 1123.83 103.247 1123.83 M103.247 1120.13 Q109.057 1120.13 112.112 1124.74 Q115.191 1129.32 115.191 1138.07 Q115.191 1146.8 112.112 1151.4 Q109.057 1155.99 103.247 1155.99 Q97.4364 1155.99 94.3577 1151.4 Q91.3022 1146.8 91.3022 1138.07 Q91.3022 1129.32 94.3577 1124.74 Q97.4364 1120.13 103.247 1120.13 Z" fill="#000000" fill-rule="evenodd" fill-opacity="1" /><path clip-path="url(#clip860)" d="M 0 0 M130.26 1123.83 Q126.649 1123.83 124.82 1127.4 Q123.015 1130.94 123.015 1138.07 Q123.015 1145.18 124.82 1148.74 Q126.649 1152.28 130.26 1152.28 Q133.895 1152.28 135.7 1148.74 Q137.529 1145.18 137.529 1138.07 Q137.529 1130.94 135.7 1127.4 Q133.895 1123.83 130.26 1123.83 M130.26 1120.13 Q136.07 1120.13 139.126 1124.74 Q142.205 1129.32 142.205 1138.07 Q142.205 1146.8 139.126 1151.4 Q136.07 1155.99 130.26 1155.99 Q124.45 1155.99 121.371 1151.4 Q118.316 1146.8 118.316 1138.07 Q118.316 1129.32 121.371 1124.74 Q124.45 1120.13 130.26 1120.13 Z" fill="#000000" fill-rule="evenodd" fill-opacity="1" /><path clip-path="url(#clip860)" d="M 0 0 M78.5939 814.992 L66.7884 833.441 L78.5939 833.441 L78.5939 814.992 M77.367 810.918 L83.2466 810.918 L83.2466 833.441 L88.1772 833.441 L88.1772 837.33 L83.2466 837.33 L83.2466 845.478 L78.5939 845.478 L78.5939 837.33 L62.9921 837.33 L62.9921 832.816 L77.367 810.918 Z" fill="#000000" fill-rule="evenodd" fill-opacity="1" /><path clip-path="url(#clip860)" d="M 0 0 M103.247 813.997 Q99.6354 813.997 97.8068 817.561 Q96.0012 821.103 96.0012 828.233 Q96.0012 835.339 97.8068 838.904 Q99.6354 842.445 103.247 842.445 Q106.881 842.445 108.686 838.904 Q110.515 835.339 110.515 828.233 Q110.515 821.103 108.686 817.561 Q106.881 813.997 103.247 813.997 M103.247 810.293 Q109.057 810.293 112.112 814.899 Q115.191 819.483 115.191 828.233 Q115.191 836.959 112.112 841.566 Q109.057 846.149 103.247 846.149 Q97.4364 846.149 94.3577 841.566 Q91.3022 836.959 91.3022 828.233 Q91.3022 819.483 94.3577 814.899 Q97.4364 810.293 103.247 810.293 Z" fill="#000000" fill-rule="evenodd" fill-opacity="1" /><path clip-path="url(#clip860)" d="M 0 0 M130.26 813.997 Q126.649 813.997 124.82 817.561 Q123.015 821.103 123.015 828.233 Q123.015 835.339 124.82 838.904 Q126.649 842.445 130.26 842.445 Q133.895 842.445 135.7 838.904 Q137.529 835.339 137.529 828.233 Q137.529 821.103 135.7 817.561 Q133.895 813.997 130.26 813.997 M130.26 810.293 Q136.07 810.293 139.126 814.899 Q142.205 819.483 142.205 828.233 Q142.205 836.959 139.126 841.566 Q136.07 846.149 130.26 846.149 Q124.45 846.149 121.371 841.566 Q118.316 836.959 118.316 828.233 Q118.316 819.483 121.371 814.899 Q124.45 810.293 130.26 810.293 Z" fill="#000000" fill-rule="evenodd" fill-opacity="1" /><path clip-path="url(#clip860)" d="M 0 0 M76.6495 516.497 Q73.5013 516.497 71.6495 518.65 Q69.8208 520.802 69.8208 524.552 Q69.8208 528.279 71.6495 530.455 Q73.5013 532.608 76.6495 532.608 Q79.7976 532.608 81.6263 530.455 Q83.4781 528.279 83.4781 524.552 Q83.4781 520.802 81.6263 518.65 Q79.7976 516.497 76.6495 516.497 M85.9318 501.844 L85.9318 506.103 Q84.1726 505.27 82.367 504.83 Q80.5846 504.39 78.8254 504.39 Q74.1958 504.39 71.7421 507.515 Q69.3115 510.64 68.9643 516.96 Q70.33 514.946 72.3902 513.881 Q74.4504 512.793 76.9272 512.793 Q82.1355 512.793 85.1448 515.964 Q88.1772 519.113 88.1772 524.552 Q88.1772 529.876 85.029 533.094 Q81.8809 536.311 76.6495 536.311 Q70.6541 536.311 67.4828 531.728 Q64.3116 527.122 64.3116 518.395 Q64.3116 510.201 68.2004 505.339 Q72.0893 500.455 78.6402 500.455 Q80.3994 500.455 82.1818 500.802 Q83.9874 501.15 85.9318 501.844 Z" fill="#000000" fill-rule="evenodd" fill-opacity="1" /><path clip-path="url(#clip860)" d="M 0 0 M103.247 504.159 Q99.6354 504.159 97.8068 507.724 Q96.0012 511.265 96.0012 518.395 Q96.0012 525.501 97.8068 529.066 Q99.6354 532.608 103.247 532.608 Q106.881 532.608 108.686 529.066 Q110.515 525.501 110.515 518.395 Q110.515 511.265 108.686 507.724 Q106.881 504.159 103.247 504.159 M103.247 500.455 Q109.057 500.455 112.112 505.062 Q115.191 509.645 115.191 518.395 Q115.191 527.122 112.112 531.728 Q109.057 536.311 103.247 536.311 Q97.4364 536.311 94.3577 531.728 Q91.3022 527.122 91.3022 518.395 Q91.3022 509.645 94.3577 505.062 Q97.4364 500.455 103.247 500.455 Z" fill="#000000" fill-rule="evenodd" fill-opacity="1" /><path clip-path="url(#clip860)" d="M 0 0 M130.26 504.159 Q126.649 504.159 124.82 507.724 Q123.015 511.265 123.015 518.395 Q123.015 525.501 124.82 529.066 Q126.649 532.608 130.26 532.608 Q133.895 532.608 135.7 529.066 Q137.529 525.501 137.529 518.395 Q137.529 511.265 135.7 507.724 Q133.895 504.159 130.26 504.159 M130.26 500.455 Q136.07 500.455 139.126 505.062 Q142.205 509.645 142.205 518.395 Q142.205 527.122 139.126 531.728 Q136.07 536.311 130.26 536.311 Q124.45 536.311 121.371 531.728 Q118.316 527.122 118.316 518.395 Q118.316 509.645 121.371 505.062 Q124.45 500.455 130.26 500.455 Z" fill="#000000" fill-rule="evenodd" fill-opacity="1" /><path clip-path="url(#clip860)" d="M 0 0 M76.3254 209.391 Q72.9921 209.391 71.0708 211.173 Q69.1726 212.955 69.1726 216.08 Q69.1726 219.205 71.0708 220.988 Q72.9921 222.77 76.3254 222.77 Q79.6587 222.77 81.58 220.988 Q83.5013 219.182 83.5013 216.08 Q83.5013 212.955 81.58 211.173 Q79.6819 209.391 76.3254 209.391 M71.6495 207.4 Q68.6402 206.659 66.9504 204.599 Q65.2838 202.539 65.2838 199.576 Q65.2838 195.432 68.2236 193.025 Q71.1865 190.618 76.3254 190.618 Q81.4874 190.618 84.4272 193.025 Q87.367 195.432 87.367 199.576 Q87.367 202.539 85.6772 204.599 Q84.0105 206.659 81.0244 207.4 Q84.404 208.187 86.279 210.479 Q88.1772 212.77 88.1772 216.08 Q88.1772 221.104 85.0985 223.789 Q82.0429 226.474 76.3254 226.474 Q70.6078 226.474 67.5291 223.789 Q64.4736 221.104 64.4736 216.08 Q64.4736 212.77 66.3717 210.479 Q68.2699 208.187 71.6495 207.4 M69.9365 200.016 Q69.9365 202.701 71.6032 204.205 Q73.293 205.71 76.3254 205.71 Q79.3346 205.71 81.0244 204.205 Q82.7374 202.701 82.7374 200.016 Q82.7374 197.33 81.0244 195.826 Q79.3346 194.321 76.3254 194.321 Q73.293 194.321 71.6032 195.826 Q69.9365 197.33 69.9365 200.016 Z" fill="#000000" fill-rule="evenodd" fill-opacity="1" /><path clip-path="url(#clip860)" d="M 0 0 M103.247 194.321 Q99.6354 194.321 97.8068 197.886 Q96.0012 201.428 96.0012 208.557 Q96.0012 215.664 97.8068 219.229 Q99.6354 222.77 103.247 222.77 Q106.881 222.77 108.686 219.229 Q110.515 215.664 110.515 208.557 Q110.515 201.428 108.686 197.886 Q106.881 194.321 103.247 194.321 M103.247 190.618 Q109.057 190.618 112.112 195.224 Q115.191 199.807 115.191 208.557 Q115.191 217.284 112.112 221.891 Q109.057 226.474 103.247 226.474 Q97.4364 226.474 94.3577 221.891 Q91.3022 217.284 91.3022 208.557 Q91.3022 199.807 94.3577 195.224 Q97.4364 190.618 103.247 190.618 Z" fill="#000000" fill-rule="evenodd" fill-opacity="1" /><path clip-path="url(#clip860)" d="M 0 0 M130.26 194.321 Q126.649 194.321 124.82 197.886 Q123.015 201.428 123.015 208.557 Q123.015 215.664 124.82 219.229 Q126.649 222.77 130.26 222.77 Q133.895 222.77 135.7 219.229 Q137.529 215.664 137.529 208.557 Q137.529 201.428 135.7 197.886 Q133.895 194.321 130.26 194.321 M130.26 190.618 Q136.07 190.618 139.126 195.224 Q142.205 199.807 142.205 208.557 Q142.205 217.284 139.126 221.891 Q136.07 226.474 130.26 226.474 Q124.45 226.474 121.371 221.891 Q118.316 217.284 118.316 208.557 Q118.316 199.807 121.371 195.224 Q124.45 190.618 130.26 190.618 Z" fill="#000000" fill-rule="evenodd" fill-opacity="1" /><path clip-path="url(#clip860)" d="M 0 0 M697.458 18.8205 L697.458 65.8515 L707.342 65.8515 Q719.859 65.8515 725.652 60.1802 Q731.485 54.509 731.485 42.2752 Q731.485 30.1225 725.652 24.4918 Q719.859 18.8205 707.342 18.8205 L697.458 18.8205 M689.275 12.096 L706.086 12.096 Q723.667 12.096 731.891 19.4281 Q740.114 26.7198 740.114 42.2752 Q740.114 57.9117 731.85 65.2439 Q723.586 72.576 706.086 72.576 L689.275 72.576 L689.275 12.096 Z" fill="#000000" fill-rule="evenodd" fill-opacity="1" /><path clip-path="url(#clip860)" d="M 0 0 M768.551 49.7694 Q759.518 49.7694 756.034 51.8354 Q752.55 53.9013 752.55 58.8839 Q752.55 62.8538 755.143 65.2034 Q757.776 67.5124 762.272 67.5124 Q768.47 67.5124 772.197 63.1374 Q775.964 58.7219 775.964 51.4303 L775.964 49.7694 L768.551 49.7694 M783.418 46.6907 L783.418 72.576 L775.964 72.576 L775.964 65.6895 Q773.412 69.8214 769.604 71.8063 Q765.797 73.7508 760.287 73.7508 Q753.32 73.7508 749.188 69.8619 Q745.096 65.9325 745.096 59.3701 Q745.096 51.7138 750.201 47.825 Q755.345 43.9361 765.513 43.9361 L775.964 43.9361 L775.964 43.2069 Q775.964 38.0623 772.562 35.2672 Q769.199 32.4315 763.082 32.4315 Q759.194 32.4315 755.507 33.3632 Q751.821 34.295 748.418 36.1584 L748.418 29.2718 Q752.51 27.692 756.358 26.9223 Q760.206 26.1121 763.852 26.1121 Q773.696 26.1121 778.557 31.2163 Q783.418 36.3204 783.418 46.6907 Z" fill="#000000" fill-rule="evenodd" fill-opacity="1" /><path clip-path="url(#clip860)" d="M 0 0 M798.609 14.324 L798.609 27.2059 L813.962 27.2059 L813.962 32.9987 L798.609 32.9987 L798.609 57.6282 Q798.609 63.1779 800.108 64.7578 Q801.647 66.3376 806.306 66.3376 L813.962 66.3376 L813.962 72.576 L806.306 72.576 Q797.677 72.576 794.396 69.3758 Q791.115 66.1351 791.115 57.6282 L791.115 32.9987 L785.646 32.9987 L785.646 27.2059 L791.115 27.2059 L791.115 14.324 L798.609 14.324 Z" fill="#000000" fill-rule="evenodd" fill-opacity="1" /><path clip-path="url(#clip860)" d="M 0 0 M842.399 49.7694 Q833.366 49.7694 829.882 51.8354 Q826.398 53.9013 826.398 58.8839 Q826.398 62.8538 828.991 65.2034 Q831.624 67.5124 836.12 67.5124 Q842.318 67.5124 846.045 63.1374 Q849.812 58.7219 849.812 51.4303 L849.812 49.7694 L842.399 49.7694 M857.266 46.6907 L857.266 72.576 L849.812 72.576 L849.812 65.6895 Q847.26 69.8214 843.452 71.8063 Q839.645 73.7508 834.135 73.7508 Q827.168 73.7508 823.036 69.8619 Q818.944 65.9325 818.944 59.3701 Q818.944 51.7138 824.049 47.825 Q829.193 43.9361 839.361 43.9361 L849.812 43.9361 L849.812 43.2069 Q849.812 38.0623 846.41 35.2672 Q843.047 32.4315 836.93 32.4315 Q833.042 32.4315 829.355 33.3632 Q825.669 34.295 822.266 36.1584 L822.266 29.2718 Q826.358 27.692 830.206 26.9223 Q834.054 26.1121 837.7 26.1121 Q847.544 26.1121 852.405 31.2163 Q857.266 36.3204 857.266 46.6907 Z" fill="#000000" fill-rule="evenodd" fill-opacity="1" /><path clip-path="url(#clip860)" d="M 0 0 M912.075 49.7694 Q903.041 49.7694 899.557 51.8354 Q896.074 53.9013 896.074 58.8839 Q896.074 62.8538 898.666 65.2034 Q901.299 67.5124 905.796 67.5124 Q911.994 67.5124 915.721 63.1374 Q919.488 58.7219 919.488 51.4303 L919.488 49.7694 L912.075 49.7694 M926.942 46.6907 L926.942 72.576 L919.488 72.576 L919.488 65.6895 Q916.936 69.8214 913.128 71.8063 Q909.32 73.7508 903.811 73.7508 Q896.843 73.7508 892.711 69.8619 Q888.62 65.9325 888.62 59.3701 Q888.62 51.7138 893.724 47.825 Q898.869 43.9361 909.037 43.9361 L919.488 43.9361 L919.488 43.2069 Q919.488 38.0623 916.085 35.2672 Q912.723 32.4315 906.606 32.4315 Q902.717 32.4315 899.031 33.3632 Q895.345 34.295 891.942 36.1584 L891.942 29.2718 Q896.033 27.692 899.882 26.9223 Q903.73 26.1121 907.376 26.1121 Q917.219 26.1121 922.08 31.2163 Q926.942 36.3204 926.942 46.6907 Z" fill="#000000" fill-rule="evenodd" fill-opacity="1" /><path clip-path="url(#clip860)" d="M 0 0 M972.474 45.1919 L972.474 72.576 L965.02 72.576 L965.02 45.4349 Q965.02 38.994 962.508 35.7938 Q959.997 32.5936 954.974 32.5936 Q948.938 32.5936 945.454 36.4419 Q941.97 40.2903 941.97 46.9338 L941.97 72.576 L934.476 72.576 L934.476 27.2059 L941.97 27.2059 L941.97 34.2544 Q944.644 30.163 948.249 28.1376 Q951.895 26.1121 956.635 26.1121 Q964.453 26.1121 968.463 30.9732 Q972.474 35.7938 972.474 45.1919 Z" fill="#000000" fill-rule="evenodd" fill-opacity="1" /><path clip-path="url(#clip860)" d="M 0 0 M1010.15 34.0924 L1010.15 9.54393 L1017.6 9.54393 L1017.6 72.576 L1010.15 72.576 L1010.15 65.7705 Q1007.8 69.8214 1004.19 71.8063 Q1000.63 73.7508 995.604 73.7508 Q987.381 73.7508 982.196 67.1883 Q977.051 60.6258 977.051 49.9314 Q977.051 39.2371 982.196 32.6746 Q987.381 26.1121 995.604 26.1121 Q1000.63 26.1121 1004.19 28.0971 Q1007.8 30.0415 1010.15 34.0924 M984.748 49.9314 Q984.748 58.1548 988.11 62.8538 Q991.513 67.5124 997.427 67.5124 Q1003.34 67.5124 1006.74 62.8538 Q1010.15 58.1548 1010.15 49.9314 Q1010.15 41.7081 1006.74 37.0496 Q1003.34 32.3505 997.427 32.3505 Q991.513 32.3505 988.11 37.0496 Q984.748 41.7081 984.748 49.9314 Z" fill="#000000" fill-rule="evenodd" fill-opacity="1" /><path clip-path="url(#clip860)" d="M 0 0 M1043.73 12.096 L1094.89 12.096 L1094.89 18.9825 L1073.42 18.9825 L1073.42 72.576 L1065.2 72.576 L1065.2 18.9825 L1043.73 18.9825 L1043.73 12.096 Z" fill="#000000" fill-rule="evenodd" fill-opacity="1" /><path clip-path="url(#clip860)" d="M 0 0 M1116.81 34.1734 Q1115.55 33.4443 1114.05 33.1202 Q1112.59 32.7556 1110.81 32.7556 Q1104.49 32.7556 1101.09 36.8875 Q1097.73 40.9789 1097.73 48.6757 L1097.73 72.576 L1090.23 72.576 L1090.23 27.2059 L1097.73 27.2059 L1097.73 34.2544 Q1100.08 30.1225 1103.84 28.1376 Q1107.61 26.1121 1113 26.1121 Q1113.77 26.1121 1114.7 26.2337 Q1115.63 26.3147 1116.77 26.5172 L1116.81 34.1734 Z" fill="#000000" fill-rule="evenodd" fill-opacity="1" /><path clip-path="url(#clip860)" d="M 0 0 M1123.86 54.671 L1123.86 27.2059 L1131.31 27.2059 L1131.31 54.3874 Q1131.31 60.8284 1133.82 64.0691 Q1136.33 67.2693 1141.36 67.2693 Q1147.39 67.2693 1150.88 63.421 Q1154.4 59.5726 1154.4 52.9291 L1154.4 27.2059 L1161.85 27.2059 L1161.85 72.576 L1154.4 72.576 L1154.4 65.6084 Q1151.69 69.7404 1148.08 71.7658 Q1144.52 73.7508 1139.78 73.7508 Q1131.96 73.7508 1127.91 68.8897 Q1123.86 64.0286 1123.86 54.671 M1142.61 26.1121 L1142.61 26.1121 Z" fill="#000000" fill-rule="evenodd" fill-opacity="1" /><path clip-path="url(#clip860)" d="M 0 0 M1208.48 48.0275 L1208.48 51.6733 L1174.21 51.6733 Q1174.69 59.3701 1178.83 63.421 Q1183 67.4314 1190.41 67.4314 Q1194.71 67.4314 1198.72 66.3781 Q1202.77 65.3249 1206.74 63.2184 L1206.74 70.267 Q1202.73 71.9684 1198.51 72.8596 Q1194.3 73.7508 1189.97 73.7508 Q1179.11 73.7508 1172.75 67.4314 Q1166.43 61.1119 1166.43 50.3365 Q1166.43 39.1965 1172.43 32.6746 Q1178.46 26.1121 1188.67 26.1121 Q1197.83 26.1121 1203.13 32.0264 Q1208.48 37.9003 1208.48 48.0275 M1201.03 45.84 Q1200.94 39.7232 1197.58 36.0774 Q1194.26 32.4315 1188.75 32.4315 Q1182.51 32.4315 1178.75 35.9558 Q1175.02 39.4801 1174.45 45.8805 L1201.03 45.84 Z" fill="#000000" fill-rule="evenodd" fill-opacity="1" /><path clip-path="url(#clip860)" d="M 0 0 M1279.25 14.0809 L1279.25 22.0612 Q1274.59 19.8332 1270.46 18.7395 Q1266.33 17.6457 1262.48 17.6457 Q1255.79 17.6457 1252.15 20.2383 Q1248.54 22.8309 1248.54 27.611 Q1248.54 31.6214 1250.93 33.6873 Q1253.36 35.7128 1260.09 36.9686 L1265.03 37.9813 Q1274.19 39.7232 1278.52 44.1387 Q1282.89 48.5136 1282.89 55.8863 Q1282.89 64.6767 1276.98 69.2137 Q1271.11 73.7508 1259.72 73.7508 Q1255.43 73.7508 1250.57 72.7785 Q1245.75 71.8063 1240.56 69.9024 L1240.56 61.4765 Q1245.55 64.2716 1250.33 65.6895 Q1255.11 67.1073 1259.72 67.1073 Q1266.73 67.1073 1270.54 64.3527 Q1274.35 61.598 1274.35 56.4939 Q1274.35 52.0379 1271.59 49.5264 Q1268.88 47.0148 1262.64 45.759 L1257.66 44.7868 Q1248.5 42.9639 1244.41 39.075 Q1240.32 35.1862 1240.32 28.2591 Q1240.32 20.2383 1245.95 15.6203 Q1251.62 11.0023 1261.55 11.0023 Q1265.8 11.0023 1270.22 11.7719 Q1274.63 12.5416 1279.25 14.0809 Z" fill="#000000" fill-rule="evenodd" fill-opacity="1" /><path clip-path="url(#clip860)" d="M 0 0 M1298.09 14.324 L1298.09 27.2059 L1313.44 27.2059 L1313.44 32.9987 L1298.09 32.9987 L1298.09 57.6282 Q1298.09 63.1779 1299.58 64.7578 Q1301.12 66.3376 1305.78 66.3376 L1313.44 66.3376 L1313.44 72.576 L1305.78 72.576 Q1297.15 72.576 1293.87 69.3758 Q1290.59 66.1351 1290.59 57.6282 L1290.59 32.9987 L1285.12 32.9987 L1285.12 27.2059 L1290.59 27.2059 L1290.59 14.324 L1298.09 14.324 Z" fill="#000000" fill-rule="evenodd" fill-opacity="1" /><path clip-path="url(#clip860)" d="M 0 0 M1341.88 49.7694 Q1332.84 49.7694 1329.36 51.8354 Q1325.87 53.9013 1325.87 58.8839 Q1325.87 62.8538 1328.47 65.2034 Q1331.1 67.5124 1335.6 67.5124 Q1341.79 67.5124 1345.52 63.1374 Q1349.29 58.7219 1349.29 51.4303 L1349.29 49.7694 L1341.88 49.7694 M1356.74 46.6907 L1356.74 72.576 L1349.29 72.576 L1349.29 65.6895 Q1346.74 69.8214 1342.93 71.8063 Q1339.12 73.7508 1333.61 73.7508 Q1326.64 73.7508 1322.51 69.8619 Q1318.42 65.9325 1318.42 59.3701 Q1318.42 51.7138 1323.53 47.825 Q1328.67 43.9361 1338.84 43.9361 L1349.29 43.9361 L1349.29 43.2069 Q1349.29 38.0623 1345.89 35.2672 Q1342.52 32.4315 1336.41 32.4315 Q1332.52 32.4315 1328.83 33.3632 Q1325.15 34.295 1321.74 36.1584 L1321.74 29.2718 Q1325.83 27.692 1329.68 26.9223 Q1333.53 26.1121 1337.18 26.1121 Q1347.02 26.1121 1351.88 31.2163 Q1356.74 36.3204 1356.74 46.6907 Z" fill="#000000" fill-rule="evenodd" fill-opacity="1" /><path clip-path="url(#clip860)" d="M 0 0 M1371.93 14.324 L1371.93 27.2059 L1387.29 27.2059 L1387.29 32.9987 L1371.93 32.9987 L1371.93 57.6282 Q1371.93 63.1779 1373.43 64.7578 Q1374.97 66.3376 1379.63 66.3376 L1387.29 66.3376 L1387.29 72.576 L1379.63 72.576 Q1371 72.576 1367.72 69.3758 Q1364.44 66.1351 1364.44 57.6282 L1364.44 32.9987 L1358.97 32.9987 L1358.97 27.2059 L1364.44 27.2059 L1364.44 14.324 L1371.93 14.324 Z" fill="#000000" fill-rule="evenodd" fill-opacity="1" /><path clip-path="url(#clip860)" d="M 0 0 M1395.1 27.2059 L1402.56 27.2059 L1402.56 72.576 L1395.1 72.576 L1395.1 27.2059 M1395.1 9.54393 L1402.56 9.54393 L1402.56 18.9825 L1395.1 18.9825 L1395.1 9.54393 Z" fill="#000000" fill-rule="evenodd" fill-opacity="1" /><path clip-path="url(#clip860)" d="M 0 0 M1439.3 28.5427 L1439.3 35.5912 Q1436.14 33.9709 1432.74 33.1607 Q1429.33 32.3505 1425.69 32.3505 Q1420.14 32.3505 1417.34 34.0519 Q1414.59 35.7533 1414.59 39.156 Q1414.59 41.7486 1416.57 43.2475 Q1418.56 44.7058 1424.55 46.0426 L1427.11 46.6097 Q1435.05 48.3111 1438.37 51.4303 Q1441.73 54.509 1441.73 60.0587 Q1441.73 66.3781 1436.71 70.0644 Q1431.72 73.7508 1422.97 73.7508 Q1419.33 73.7508 1415.36 73.0216 Q1411.43 72.3329 1407.05 70.9151 L1407.05 63.2184 Q1411.19 65.3654 1415.2 66.4591 Q1419.21 67.5124 1423.14 67.5124 Q1428.4 67.5124 1431.24 65.73 Q1434.07 63.9071 1434.07 60.6258 Q1434.07 57.5877 1432.01 55.9673 Q1429.98 54.3469 1423.06 52.8481 L1420.46 52.2405 Q1413.54 50.7821 1410.46 47.7845 Q1407.38 44.7463 1407.38 39.4801 Q1407.38 33.0797 1411.92 29.5959 Q1416.45 26.1121 1424.8 26.1121 Q1428.93 26.1121 1432.58 26.7198 Q1436.22 27.3274 1439.3 28.5427 Z" fill="#000000" fill-rule="evenodd" fill-opacity="1" /><path clip-path="url(#clip860)" d="M 0 0 M1456.92 14.324 L1456.92 27.2059 L1472.27 27.2059 L1472.27 32.9987 L1456.92 32.9987 L1456.92 57.6282 Q1456.92 63.1779 1458.42 64.7578 Q1459.96 66.3376 1464.62 66.3376 L1472.27 66.3376 L1472.27 72.576 L1464.62 72.576 Q1455.99 72.576 1452.71 69.3758 Q1449.43 66.1351 1449.43 57.6282 L1449.43 32.9987 L1443.96 32.9987 L1443.96 27.2059 L1449.43 27.2059 L1449.43 14.324 L1456.92 14.324 Z" fill="#000000" fill-rule="evenodd" fill-opacity="1" /><path clip-path="url(#clip860)" d="M 0 0 M1480.09 27.2059 L1487.55 27.2059 L1487.55 72.576 L1480.09 72.576 L1480.09 27.2059 M1480.09 9.54393 L1487.55 9.54393 L1487.55 18.9825 L1480.09 18.9825 L1480.09 9.54393 Z" fill="#000000" fill-rule="evenodd" fill-opacity="1" /><path clip-path="url(#clip860)" d="M 0 0 M1528.01 28.9478 L1528.01 35.9153 Q1524.86 34.1734 1521.65 33.3227 Q1518.5 32.4315 1515.25 32.4315 Q1508 32.4315 1503.99 37.0496 Q1499.98 41.6271 1499.98 49.9314 Q1499.98 58.2358 1503.99 62.8538 Q1508 67.4314 1515.25 67.4314 Q1518.5 67.4314 1521.65 66.5807 Q1524.86 65.6895 1528.01 63.9476 L1528.01 70.8341 Q1524.9 72.2924 1521.53 73.0216 Q1518.21 73.7508 1514.44 73.7508 Q1504.2 73.7508 1498.16 67.3098 Q1492.12 60.8689 1492.12 49.9314 Q1492.12 38.832 1498.2 32.472 Q1504.32 26.1121 1514.93 26.1121 Q1518.37 26.1121 1521.65 26.8413 Q1524.94 27.5299 1528.01 28.9478 Z" fill="#000000" fill-rule="evenodd" fill-opacity="1" /><path clip-path="url(#clip860)" d="M 0 0 M1556.45 49.7694 Q1547.42 49.7694 1543.93 51.8354 Q1540.45 53.9013 1540.45 58.8839 Q1540.45 62.8538 1543.04 65.2034 Q1545.68 67.5124 1550.17 67.5124 Q1556.37 67.5124 1560.1 63.1374 Q1563.87 58.7219 1563.87 51.4303 L1563.87 49.7694 L1556.45 49.7694 M1571.32 46.6907 L1571.32 72.576 L1563.87 72.576 L1563.87 65.6895 Q1561.31 69.8214 1557.51 71.8063 Q1553.7 73.7508 1548.19 73.7508 Q1541.22 73.7508 1537.09 69.8619 Q1533 65.9325 1533 59.3701 Q1533 51.7138 1538.1 47.825 Q1543.25 43.9361 1553.41 43.9361 L1563.87 43.9361 L1563.87 43.2069 Q1563.87 38.0623 1560.46 35.2672 Q1557.1 32.4315 1550.98 32.4315 Q1547.09 32.4315 1543.41 33.3632 Q1539.72 34.295 1536.32 36.1584 L1536.32 29.2718 Q1540.41 27.692 1544.26 26.9223 Q1548.11 26.1121 1551.75 26.1121 Q1561.6 26.1121 1566.46 31.2163 Q1571.32 36.3204 1571.32 46.6907 Z" fill="#000000" fill-rule="evenodd" fill-opacity="1" /><path clip-path="url(#clip860)" d="M 0 0 M1579.14 9.54393 L1586.59 9.54393 L1586.59 72.576 L1579.14 72.576 L1579.14 9.54393 Z" fill="#000000" fill-rule="evenodd" fill-opacity="1" /><path clip-path="url(#clip860)" d="M 0 0 M1621.1 12.096 L1633.3 12.096 L1648.73 53.2532 L1664.25 12.096 L1676.44 12.096 L1676.44 72.576 L1668.46 72.576 L1668.46 19.4686 L1652.86 60.9499 L1644.64 60.9499 L1629.04 19.4686 L1629.04 72.576 L1621.1 72.576 L1621.1 12.096 Z" fill="#000000" fill-rule="evenodd" fill-opacity="1" /><path clip-path="url(#clip860)" d="M 0 0 M1701.84 32.4315 Q1695.84 32.4315 1692.36 37.1306 Q1688.88 41.7891 1688.88 49.9314 Q1688.88 58.0738 1692.32 62.7728 Q1695.8 67.4314 1701.84 67.4314 Q1707.79 67.4314 1711.28 62.7323 Q1714.76 58.0333 1714.76 49.9314 Q1714.76 41.8701 1711.28 37.1711 Q1707.79 32.4315 1701.84 32.4315 M1701.84 26.1121 Q1711.56 26.1121 1717.11 32.4315 Q1722.66 38.7509 1722.66 49.9314 Q1722.66 61.0714 1717.11 67.4314 Q1711.56 73.7508 1701.84 73.7508 Q1692.08 73.7508 1686.53 67.4314 Q1681.02 61.0714 1681.02 49.9314 Q1681.02 38.7509 1686.53 32.4315 Q1692.08 26.1121 1701.84 26.1121 Z" fill="#000000" fill-rule="evenodd" fill-opacity="1" /><path clip-path="url(#clip860)" d="M 0 0 M1760.33 34.0924 L1760.33 9.54393 L1767.79 9.54393 L1767.79 72.576 L1760.33 72.576 L1760.33 65.7705 Q1757.98 69.8214 1754.38 71.8063 Q1750.81 73.7508 1745.79 73.7508 Q1737.57 73.7508 1732.38 67.1883 Q1727.24 60.6258 1727.24 49.9314 Q1727.24 39.2371 1732.38 32.6746 Q1737.57 26.1121 1745.79 26.1121 Q1750.81 26.1121 1754.38 28.0971 Q1757.98 30.0415 1760.33 34.0924 M1734.93 49.9314 Q1734.93 58.1548 1738.3 62.8538 Q1741.7 67.5124 1747.61 67.5124 Q1753.53 67.5124 1756.93 62.8538 Q1760.33 58.1548 1760.33 49.9314 Q1760.33 41.7081 1756.93 37.0496 Q1753.53 32.3505 1747.61 32.3505 Q1741.7 32.3505 1738.3 37.0496 Q1734.93 41.7081 1734.93 49.9314 Z" fill="#000000" fill-rule="evenodd" fill-opacity="1" /><path clip-path="url(#clip860)" d="M 0 0 M1814.41 48.0275 L1814.41 51.6733 L1780.14 51.6733 Q1780.63 59.3701 1784.76 63.421 Q1788.93 67.4314 1796.35 67.4314 Q1800.64 67.4314 1804.65 66.3781 Q1808.7 65.3249 1812.67 63.2184 L1812.67 70.267 Q1808.66 71.9684 1804.45 72.8596 Q1800.24 73.7508 1795.9 73.7508 Q1785.04 73.7508 1778.68 67.4314 Q1772.37 61.1119 1772.37 50.3365 Q1772.37 39.1965 1778.36 32.6746 Q1784.4 26.1121 1794.6 26.1121 Q1803.76 26.1121 1809.07 32.0264 Q1814.41 37.9003 1814.41 48.0275 M1806.96 45.84 Q1806.88 39.7232 1803.52 36.0774 Q1800.19 32.4315 1794.69 32.4315 Q1788.45 32.4315 1784.68 35.9558 Q1780.95 39.4801 1780.39 45.8805 L1806.96 45.84 Z" fill="#000000" fill-rule="evenodd" fill-opacity="1" /><path clip-path="url(#clip860)" d="M 0 0 M1822.23 9.54393 L1829.69 9.54393 L1829.69 72.576 L1822.23 72.576 L1822.23 9.54393 Z" fill="#000000" fill-rule="evenodd" fill-opacity="1" /><polyline clip-path="url(#clip862)" style="stroke:#009af9; stroke-width:4; stroke-opacity:1; fill:none" points="
  743.784,1447.87 743.784,1385.91 769.569,1385.91 769.569,1215.49 795.354,1215.49 795.354,1230.99 821.139,1230.99 821.139,1200 846.923,1200 846.923,1122.54 
  872.708,1122.54 872.708,1153.53 898.493,1153.53 898.493,1045.08 924.278,1045.08 924.278,781.722 950.063,781.722 950.063,812.706 975.847,812.706 975.847,766.23 
  1001.63,766.23 1001.63,797.214 1027.42,797.214 1027.42,921.149 1053.2,921.149 1053.2,828.198 1078.99,828.198 1078.99,1107.05 1104.77,1107.05 1104.77,1138.04 
  1130.56,1138.04 1130.56,1076.07 1156.34,1076.07 1156.34,1107.05 1182.13,1107.05 1182.13,1169.02 1207.91,1169.02 1207.91,1323.94 1233.7,1323.94 1233.7,1385.91 
  1259.48,1385.91 1259.48,1370.41 1285.27,1370.41 1285.27,1385.91 1311.05,1385.91 1311.05,1432.38 1336.83,1432.38 1362.62,1432.38 1362.62,1416.89 
  1388.4,1416.89 1388.4,1432.38 1414.19,1432.38 1414.19,1447.87 1439.97,1447.87 1439.97,1370.41 1465.76,1370.41 1465.76,1261.97 1491.54,1261.97 1491.54,1277.46 
  1517.33,1277.46 1517.33,1184.51 1543.11,1184.51 1543.11,1107.05 1568.9,1107.05 1568.9,1014.1 1594.68,1014.1 1594.68,766.23 1620.47,766.23 1620.47,750.738 
  1646.25,750.738 1646.25,688.771 1672.04,688.771 1672.04,518.36 1697.82,518.36 1697.82,456.393 1723.61,456.393 1723.61,316.966 1749.39,316.966 1749.39,193.031 
  1775.18,193.031 1775.18,162.047 1800.96,162.047 1800.96,440.901 1826.75,440.901 1826.75,239.506 1852.53,239.506 1852.53,332.458 1878.32,332.458 1878.32,781.722 
  1904.1,781.722 1904.1,719.755 1929.89,719.755 1929.89,1045.08 1955.67,1045.08 1955.67,1076.07 1981.45,1076.07 1981.45,1200 2007.24,1200 2007.24,1339.43 
  2033.02,1339.43 2033.02,1277.46 2058.81,1277.46 2058.81,1323.94 2084.59,1323.94 2084.59,1432.38 2110.38,1432.38 2136.16,1432.38 2136.16,1416.89 
  2161.95,1416.89 2161.95,1432.38 2187.73,1432.38 2187.73,1447.87 2213.52,1447.87 2213.52,1432.38 2239.3,1432.38 2239.3,1447.87 2265.09,1447.87 
  2290.87,1447.87 
  "/>
<polyline clip-path="url(#clip862)" style="stroke:#e26f46; stroke-width:4; stroke-opacity:1; fill:none" points="
  228.088,1447.87 230.667,1447.87 233.245,1447.87 235.824,1447.87 238.402,1447.87 240.981,1447.87 243.559,1447.87 246.138,1447.87 248.716,1447.87 251.295,1447.87 
  253.873,1447.87 256.451,1447.87 259.03,1447.87 261.608,1447.87 264.187,1447.87 266.765,1447.87 269.344,1447.87 271.922,1447.87 274.501,1447.87 277.079,1447.87 
  279.658,1447.87 282.236,1447.87 284.815,1447.87 287.393,1447.87 289.972,1447.87 292.55,1447.87 295.129,1447.87 297.707,1447.87 300.286,1447.87 302.864,1447.87 
  305.443,1447.87 308.021,1447.87 310.6,1447.87 313.178,1447.87 315.757,1447.87 318.335,1447.87 320.913,1447.87 323.492,1447.87 326.07,1447.87 328.649,1447.87 
  331.227,1447.87 333.806,1447.87 336.384,1447.87 338.963,1447.87 341.541,1447.87 344.12,1447.87 346.698,1447.87 349.277,1447.87 351.855,1447.87 354.434,1447.87 
  357.012,1447.87 359.591,1447.87 362.169,1447.87 364.748,1447.87 367.326,1447.87 369.905,1447.87 372.483,1447.87 375.062,1447.87 377.64,1447.87 380.219,1447.87 
  382.797,1447.87 385.375,1447.87 387.954,1447.87 390.532,1447.86 393.111,1447.86 395.689,1447.86 398.268,1447.86 400.846,1447.86 403.425,1447.86 406.003,1447.86 
  408.582,1447.86 411.16,1447.86 413.739,1447.85 416.317,1447.85 418.896,1447.85 421.474,1447.85 424.053,1447.85 426.631,1447.84 429.21,1447.84 431.788,1447.84 
  434.367,1447.83 436.945,1447.83 439.524,1447.83 442.102,1447.82 444.681,1447.82 447.259,1447.81 449.837,1447.81 452.416,1447.8 454.994,1447.8 457.573,1447.79 
  460.151,1447.78 462.73,1447.77 465.308,1447.77 467.887,1447.76 470.465,1447.75 473.044,1447.73 475.622,1447.72 478.201,1447.71 480.779,1447.7 483.358,1447.68 
  485.936,1447.67 488.515,1447.65 491.093,1447.63 493.672,1447.61 496.25,1447.59 498.829,1447.57 501.407,1447.54 503.986,1447.51 506.564,1447.48 509.143,1447.45 
  511.721,1447.42 514.299,1447.39 516.878,1447.35 519.456,1447.31 522.035,1447.26 524.613,1447.22 527.192,1447.16 529.77,1447.11 532.349,1447.05 534.927,1446.99 
  537.506,1446.93 540.084,1446.85 542.663,1446.78 545.241,1446.7 547.82,1446.61 550.398,1446.52 552.977,1446.42 555.555,1446.32 558.134,1446.21 560.712,1446.09 
  563.291,1445.96 565.869,1445.83 568.448,1445.69 571.026,1445.54 573.605,1445.38 576.183,1445.2 578.762,1445.02 581.34,1444.83 583.918,1444.63 586.497,1444.41 
  589.075,1444.18 591.654,1443.94 594.232,1443.68 596.811,1443.41 599.389,1443.12 601.968,1442.81 604.546,1442.49 607.125,1442.15 609.703,1441.79 612.282,1441.41 
  614.86,1441.01 617.439,1440.58 620.017,1440.14 622.596,1439.67 625.174,1439.17 627.753,1438.65 630.331,1438.1 632.91,1437.53 635.488,1436.92 638.067,1436.28 
  640.645,1435.61 643.224,1434.91 645.802,1434.17 648.38,1433.39 650.959,1432.58 653.537,1431.73 656.116,1430.84 658.694,1429.9 661.273,1428.92 663.851,1427.9 
  666.43,1426.83 669.008,1425.71 671.587,1424.54 674.165,1423.32 676.744,1422.05 679.322,1420.72 681.901,1419.33 684.479,1417.89 687.058,1416.38 689.636,1414.81 
  692.215,1413.18 694.793,1411.48 697.372,1409.71 699.95,1407.88 702.529,1405.97 705.107,1403.99 707.686,1401.93 710.264,1399.8 712.842,1397.59 715.421,1395.29 
  717.999,1392.92 720.578,1390.46 723.156,1387.91 725.735,1385.27 728.313,1382.55 730.892,1379.73 733.47,1376.83 736.049,1373.82 738.627,1370.72 741.206,1367.53 
  743.784,1364.23 746.363,1360.83 748.941,1357.34 751.52,1353.74 754.098,1350.03 756.677,1346.22 759.255,1342.31 761.834,1338.28 764.412,1334.15 766.991,1329.91 
  769.569,1325.56 772.148,1321.11 774.726,1316.54 777.304,1311.86 779.883,1307.07 782.461,1302.17 785.04,1297.16 787.618,1292.05 790.197,1286.82 792.775,1281.48 
  795.354,1276.04 797.932,1270.48 800.511,1264.83 803.089,1259.06 805.668,1253.19 808.246,1247.23 810.825,1241.16 813.403,1234.99 815.982,1228.72 818.56,1222.37 
  821.139,1215.92 823.717,1209.38 826.296,1202.75 828.874,1196.04 831.453,1189.26 834.031,1182.39 836.61,1175.45 839.188,1168.44 841.766,1161.37 844.345,1154.24 
  846.923,1147.04 849.502,1139.8 852.08,1132.5 854.659,1125.17 857.237,1117.79 859.816,1110.38 862.394,1102.94 864.973,1095.48 867.551,1088 870.13,1080.51 
  872.708,1073.01 875.287,1065.52 877.865,1058.03 880.444,1050.55 883.022,1043.09 885.601,1035.66 888.179,1028.25 890.758,1020.89 893.336,1013.57 895.915,1006.3 
  898.493,999.086 901.072,991.939 903.65,984.863 906.228,977.866 908.807,970.954 911.385,964.133 913.964,957.411 916.542,950.795 919.121,944.29 921.699,937.905 
  924.278,931.645 926.856,925.518 929.435,919.529 932.013,913.685 934.592,907.993 937.17,902.458 939.749,897.086 942.327,891.884 944.906,886.858 947.484,882.012 
  950.063,877.353 952.641,872.886 955.22,868.615 957.798,864.546 960.377,860.683 962.955,857.032 965.534,853.595 968.112,850.377 970.69,847.382 973.269,844.613 
  975.847,842.074 978.426,839.768 981.004,837.697 983.583,835.864 986.161,834.27 988.74,832.919 991.318,831.811 993.897,830.948 996.475,830.331 999.054,829.96 
  1001.63,829.836 1004.21,829.96 1006.79,830.331 1009.37,830.948 1011.95,831.811 1014.52,832.919 1017.1,834.27 1019.68,835.864 1022.26,837.697 1024.84,839.768 
  1027.42,842.074 1030,844.613 1032.57,847.382 1035.15,850.377 1037.73,853.595 1040.31,857.031 1042.89,860.683 1045.47,864.546 1048.04,868.615 1050.62,872.886 
  1053.2,877.353 1055.78,882.012 1058.36,886.858 1060.94,891.884 1063.52,897.086 1066.09,902.457 1068.67,907.992 1071.25,913.685 1073.83,919.529 1076.41,925.517 
  1078.99,931.645 1081.57,937.905 1084.14,944.29 1086.72,950.794 1089.3,957.41 1091.88,964.132 1094.46,970.952 1097.04,977.865 1099.61,984.862 1102.19,991.938 
  1104.77,999.085 1107.35,1006.3 1109.93,1013.57 1112.51,1020.89 1115.09,1028.25 1117.66,1035.65 1120.24,1043.09 1122.82,1050.55 1125.4,1058.02 1127.98,1065.51 
  1130.56,1073.01 1133.13,1080.51 1135.71,1088 1138.29,1095.47 1140.87,1102.93 1143.45,1110.37 1146.03,1117.78 1148.61,1125.16 1151.18,1132.49 1153.76,1139.79 
  1156.34,1147.03 1158.92,1154.22 1161.5,1161.36 1164.08,1168.43 1166.65,1175.43 1169.23,1182.37 1171.81,1189.23 1174.39,1196.02 1176.97,1202.73 1179.55,1209.35 
  1182.13,1215.89 1184.7,1222.33 1187.28,1228.69 1189.86,1234.95 1192.44,1241.11 1195.02,1247.18 1197.6,1253.14 1200.18,1259 1202.75,1264.76 1205.33,1270.41 
  1207.91,1275.96 1210.49,1281.4 1213.07,1286.73 1215.65,1291.95 1218.22,1297.06 1220.8,1302.05 1223.38,1306.94 1225.96,1311.72 1228.54,1316.38 1231.12,1320.94 
  1233.7,1325.38 1236.27,1329.71 1238.85,1333.94 1241.43,1338.05 1244.01,1342.05 1246.59,1345.95 1249.17,1349.73 1251.74,1353.41 1254.32,1356.98 1256.9,1360.45 
  1259.48,1363.82 1262.06,1367.08 1264.64,1370.24 1267.22,1373.3 1269.79,1376.26 1272.37,1379.12 1274.95,1381.88 1277.53,1384.56 1280.11,1387.13 1282.69,1389.62 
  1285.27,1392.01 1287.84,1394.32 1290.42,1396.53 1293,1398.66 1295.58,1400.71 1298.16,1402.67 1300.74,1404.55 1303.31,1406.35 1305.89,1408.07 1308.47,1409.72 
  1311.05,1411.28 1313.63,1412.78 1316.21,1414.19 1318.79,1415.54 1321.36,1416.81 1323.94,1418.01 1326.52,1419.15 1329.1,1420.21 1331.68,1421.21 1334.26,1422.15 
  1336.83,1423.01 1339.41,1423.82 1341.99,1424.55 1344.57,1425.23 1347.15,1425.84 1349.73,1426.39 1352.31,1426.88 1354.88,1427.31 1357.46,1427.67 1360.04,1427.98 
  1362.62,1428.22 1365.2,1428.41 1367.78,1428.53 1370.35,1428.59 1372.93,1428.59 1375.51,1428.53 1378.09,1428.41 1380.67,1428.22 1383.25,1427.97 1385.83,1427.65 
  1388.4,1427.28 1390.98,1426.83 1393.56,1426.32 1396.14,1425.74 1398.72,1425.09 1401.3,1424.37 1403.88,1423.58 1406.45,1422.71 1409.03,1421.77 1411.61,1420.75 
  1414.19,1419.65 1416.77,1418.48 1419.35,1417.22 1421.92,1415.87 1424.5,1414.44 1427.08,1412.92 1429.66,1411.3 1432.24,1409.59 1434.82,1407.79 1437.4,1405.89 
  1439.97,1403.88 1442.55,1401.77 1445.13,1399.55 1447.71,1397.22 1450.29,1394.77 1452.87,1392.21 1455.44,1389.53 1458.02,1386.73 1460.6,1383.79 1463.18,1380.73 
  1465.76,1377.54 1468.34,1374.21 1470.92,1370.74 1473.49,1367.12 1476.07,1363.36 1478.65,1359.45 1481.23,1355.38 1483.81,1351.16 1486.39,1346.77 1488.97,1342.22 
  1491.54,1337.51 1494.12,1332.62 1496.7,1327.56 1499.28,1322.32 1501.86,1316.89 1504.44,1311.29 1507.01,1305.49 1509.59,1299.51 1512.17,1293.33 1514.75,1286.96 
  1517.33,1280.38 1519.91,1273.61 1522.49,1266.62 1525.06,1259.44 1527.64,1252.04 1530.22,1244.43 1532.8,1236.61 1535.38,1228.58 1537.96,1220.32 1540.53,1211.85 
  1543.11,1203.16 1545.69,1194.26 1548.27,1185.13 1550.85,1175.78 1553.43,1166.21 1556.01,1156.41 1558.58,1146.4 1561.16,1136.17 1563.74,1125.72 1566.32,1115.05 
  1568.9,1104.16 1571.48,1093.06 1574.05,1081.74 1576.63,1070.22 1579.21,1058.49 1581.79,1046.55 1584.37,1034.42 1586.95,1022.08 1589.53,1009.56 1592.1,996.843 
  1594.68,983.945 1597.26,970.869 1599.84,957.62 1602.42,944.204 1605,930.628 1607.58,916.899 1610.15,903.023 1612.73,889.007 1615.31,874.86 1617.89,860.59 
  1620.47,846.205 1623.05,831.715 1625.62,817.127 1628.2,802.453 1630.78,787.701 1633.36,772.881 1635.94,758.005 1638.52,743.083 1641.1,728.127 1643.67,713.147 
  1646.25,698.154 1648.83,683.162 1651.41,668.182 1653.99,653.227 1656.57,638.308 1659.14,623.439 1661.72,608.633 1664.3,593.903 1666.88,579.261 1669.46,564.722 
  1672.04,550.299 1674.62,536.005 1677.19,521.853 1679.77,507.858 1682.35,494.033 1684.93,480.392 1687.51,466.949 1690.09,453.716 1692.66,440.708 1695.24,427.937 
  1697.82,415.418 1700.4,403.162 1702.98,391.185 1705.56,379.497 1708.14,368.112 1710.71,357.042 1713.29,346.299 1715.87,335.896 1718.45,325.843 1721.03,316.152 
  1723.61,306.834 1726.19,297.899 1728.76,289.357 1731.34,281.219 1733.92,273.494 1736.5,266.19 1739.08,259.316 1741.66,252.881 1744.23,246.891 1746.81,241.354 
  1749.39,236.276 1751.97,231.663 1754.55,227.521 1757.13,223.854 1759.71,220.668 1762.28,217.965 1764.86,215.749 1767.44,214.023 1770.02,212.788 1772.6,212.047 
  1775.18,211.8 1777.75,212.047 1780.33,212.788 1782.91,214.023 1785.49,215.749 1788.07,217.965 1790.65,220.668 1793.23,223.854 1795.8,227.521 1798.38,231.663 
  1800.96,236.276 1803.54,241.354 1806.12,246.891 1808.7,252.881 1811.28,259.316 1813.85,266.19 1816.43,273.494 1819.01,281.219 1821.59,289.357 1824.17,297.899 
  1826.75,306.834 1829.32,316.152 1831.9,325.843 1834.48,335.896 1837.06,346.3 1839.64,357.042 1842.22,368.112 1844.8,379.497 1847.37,391.185 1849.95,403.163 
  1852.53,415.418 1855.11,427.937 1857.69,440.708 1860.27,453.716 1862.84,466.949 1865.42,480.393 1868,494.034 1870.58,507.859 1873.16,521.854 1875.74,536.005 
  1878.32,550.3 1880.89,564.723 1883.47,579.262 1886.05,593.904 1888.63,608.635 1891.21,623.441 1893.79,638.31 1896.36,653.229 1898.94,668.184 1901.52,683.164 
  1904.1,698.157 1906.68,713.149 1909.26,728.13 1911.84,743.087 1914.41,758.009 1916.99,772.885 1919.57,787.705 1922.15,802.457 1924.73,817.132 1927.31,831.72 
  1929.89,846.212 1932.46,860.597 1935.04,874.868 1937.62,889.015 1940.2,903.032 1942.78,916.909 1945.36,930.639 1947.93,944.216 1950.51,957.633 1953.09,970.883 
  1955.67,983.961 1958.25,996.861 1960.83,1009.58 1963.41,1022.1 1965.98,1034.44 1968.56,1046.58 1971.14,1058.52 1973.72,1070.25 1976.3,1081.78 1978.88,1093.09 
  1981.45,1104.2 1984.03,1115.09 1986.61,1125.76 1989.19,1136.22 1991.77,1146.46 1994.35,1156.47 1996.93,1166.27 1999.5,1175.85 2002.08,1185.2 2004.66,1194.34 
  2007.24,1203.26 2009.82,1211.95 2012.4,1220.43 2014.97,1228.69 2017.55,1236.74 2020.13,1244.57 2022.71,1252.19 2025.29,1259.6 2027.87,1266.8 2030.45,1273.8 
  2033.02,1280.59 2035.6,1287.18 2038.18,1293.57 2040.76,1299.77 2043.34,1305.78 2045.92,1311.6 2048.5,1317.23 2051.07,1322.68 2053.65,1327.94 2056.23,1333.04 
  2058.81,1337.96 2061.39,1342.71 2063.97,1347.3 2066.54,1351.72 2069.12,1355.99 2071.7,1360.11 2074.28,1364.07 2076.86,1367.88 2079.44,1371.56 2082.02,1375.09 
  2084.59,1378.49 2087.17,1381.75 2089.75,1384.89 2092.33,1387.9 2094.91,1390.79 2097.49,1393.56 2100.06,1396.22 2102.64,1398.77 2105.22,1401.21 2107.8,1403.55 
  2110.38,1405.79 2112.96,1407.93 2115.54,1409.98 2118.11,1411.93 2120.69,1413.8 2123.27,1415.59 2125.85,1417.29 2128.43,1418.91 2131.01,1420.46 2133.59,1421.94 
  2136.16,1423.35 2138.74,1424.69 2141.32,1425.96 2143.9,1427.18 2146.48,1428.33 2149.06,1429.43 2151.63,1430.47 2154.21,1431.46 2156.79,1432.4 2159.37,1433.3 
  2161.95,1434.14 2164.53,1434.94 2167.11,1435.7 2169.68,1436.42 2172.26,1437.11 2174.84,1437.75 2177.42,1438.36 2180,1438.94 2182.58,1439.48 2185.15,1440 
  2187.73,1440.49 2190.31,1440.95 2192.89,1441.38 2195.47,1441.79 2198.05,1442.17 2200.63,1442.54 2203.2,1442.88 2205.78,1443.2 2208.36,1443.5 2210.94,1443.79 
  2213.52,1444.06 2216.1,1444.31 2218.67,1444.54 2221.25,1444.77 2223.83,1444.97 2226.41,1445.17 2228.99,1445.35 2231.57,1445.52 2234.15,1445.69 2236.72,1445.84 
  2239.3,1445.98 2241.88,1446.11 2244.46,1446.23 2247.04,1446.35 2249.62,1446.46 2252.2,1446.56 2254.77,1446.65 2257.35,1446.74 2259.93,1446.82 2262.51,1446.9 
  2265.09,1446.97 2267.67,1447.03 2270.24,1447.1 2272.82,1447.15 2275.4,1447.21 2277.98,1447.26 2280.56,1447.3 2283.14,1447.35 2285.72,1447.39 2288.29,1447.42 
  2290.87,1447.46 
  "/>
<path clip-path="url(#clip860)" d="
M1929.78 388.432 L2280.76 388.432 L2280.76 206.992 L1929.78 206.992  Z
  " fill="#ffffff" fill-rule="evenodd" fill-opacity="1"/>
<polyline clip-path="url(#clip860)" style="stroke:#000000; stroke-width:4; stroke-opacity:1; fill:none" points="
  1929.78,388.432 2280.76,388.432 2280.76,206.992 1929.78,206.992 1929.78,388.432 
  "/>
<polyline clip-path="url(#clip860)" style="stroke:#009af9; stroke-width:4; stroke-opacity:1; fill:none" points="
  1953.78,267.472 2097.78,267.472 
  "/>
<path clip-path="url(#clip860)" d="M 0 0 M2126.46 254.035 L2126.46 280.91 L2132.11 280.91 Q2139.26 280.91 2142.57 277.669 Q2145.9 274.428 2145.9 267.437 Q2145.9 260.493 2142.57 257.275 Q2139.26 254.035 2132.11 254.035 L2126.46 254.035 M2121.78 250.192 L2131.39 250.192 Q2141.44 250.192 2146.14 254.382 Q2150.84 258.549 2150.84 267.437 Q2150.84 276.373 2146.11 280.562 Q2141.39 284.752 2131.39 284.752 L2121.78 284.752 L2121.78 250.192 Z" fill="#000000" fill-rule="evenodd" fill-opacity="1" /><path clip-path="url(#clip860)" d="M 0 0 M2167.08 271.72 Q2161.92 271.72 2159.93 272.9 Q2157.94 274.081 2157.94 276.928 Q2157.94 279.197 2159.42 280.539 Q2160.93 281.859 2163.5 281.859 Q2167.04 281.859 2169.17 279.359 Q2171.32 276.836 2171.32 272.669 L2171.32 271.72 L2167.08 271.72 M2175.58 269.961 L2175.58 284.752 L2171.32 284.752 L2171.32 280.817 Q2169.86 283.178 2167.69 284.312 Q2165.51 285.423 2162.36 285.423 Q2158.38 285.423 2156.02 283.201 Q2153.68 280.956 2153.68 277.206 Q2153.68 272.831 2156.6 270.609 Q2159.54 268.386 2165.35 268.386 L2171.32 268.386 L2171.32 267.97 Q2171.32 265.03 2169.38 263.433 Q2167.46 261.812 2163.96 261.812 Q2161.74 261.812 2159.63 262.345 Q2157.52 262.877 2155.58 263.942 L2155.58 260.007 Q2157.92 259.104 2160.12 258.664 Q2162.32 258.201 2164.4 258.201 Q2170.02 258.201 2172.8 261.118 Q2175.58 264.035 2175.58 269.961 Z" fill="#000000" fill-rule="evenodd" fill-opacity="1" /><path clip-path="url(#clip860)" d="M 0 0 M2184.26 251.465 L2184.26 258.826 L2193.03 258.826 L2193.03 262.137 L2184.26 262.137 L2184.26 276.211 Q2184.26 279.382 2185.12 280.285 Q2186 281.187 2188.66 281.187 L2193.03 281.187 L2193.03 284.752 L2188.66 284.752 Q2183.73 284.752 2181.85 282.923 Q2179.98 281.072 2179.98 276.211 L2179.98 262.137 L2176.85 262.137 L2176.85 258.826 L2179.98 258.826 L2179.98 251.465 L2184.26 251.465 Z" fill="#000000" fill-rule="evenodd" fill-opacity="1" /><path clip-path="url(#clip860)" d="M 0 0 M2209.28 271.72 Q2204.12 271.72 2202.13 272.9 Q2200.14 274.081 2200.14 276.928 Q2200.14 279.197 2201.62 280.539 Q2203.13 281.859 2205.7 281.859 Q2209.24 281.859 2211.37 279.359 Q2213.52 276.836 2213.52 272.669 L2213.52 271.72 L2209.28 271.72 M2217.78 269.961 L2217.78 284.752 L2213.52 284.752 L2213.52 280.817 Q2212.06 283.178 2209.89 284.312 Q2207.71 285.423 2204.56 285.423 Q2200.58 285.423 2198.22 283.201 Q2195.88 280.956 2195.88 277.206 Q2195.88 272.831 2198.8 270.609 Q2201.74 268.386 2207.55 268.386 L2213.52 268.386 L2213.52 267.97 Q2213.52 265.03 2211.58 263.433 Q2209.65 261.812 2206.16 261.812 Q2203.94 261.812 2201.83 262.345 Q2199.72 262.877 2197.78 263.942 L2197.78 260.007 Q2200.12 259.104 2202.32 258.664 Q2204.52 258.201 2206.6 258.201 Q2212.22 258.201 2215 261.118 Q2217.78 264.035 2217.78 269.961 Z" fill="#000000" fill-rule="evenodd" fill-opacity="1" /><polyline clip-path="url(#clip860)" style="stroke:#e26f46; stroke-width:4; stroke-opacity:1; fill:none" points="
  1953.78,327.952 2097.78,327.952 
  "/>
<path clip-path="url(#clip860)" d="M 0 0 M2121.78 310.672 L2151.02 310.672 L2151.02 314.607 L2138.75 314.607 L2138.75 345.232 L2134.05 345.232 L2134.05 314.607 L2121.78 314.607 L2121.78 310.672 Z" fill="#000000" fill-rule="evenodd" fill-opacity="1" /><path clip-path="url(#clip860)" d="M 0 0 M2163.54 323.288 Q2162.83 322.871 2161.97 322.686 Q2161.14 322.478 2160.12 322.478 Q2156.51 322.478 2154.56 324.839 Q2152.64 327.177 2152.64 331.575 L2152.64 345.232 L2148.36 345.232 L2148.36 319.306 L2152.64 319.306 L2152.64 323.334 Q2153.98 320.973 2156.14 319.839 Q2158.29 318.681 2161.37 318.681 Q2161.81 318.681 2162.34 318.751 Q2162.87 318.797 2163.52 318.913 L2163.54 323.288 Z" fill="#000000" fill-rule="evenodd" fill-opacity="1" /><path clip-path="url(#clip860)" d="M 0 0 M2167.57 335.001 L2167.57 319.306 L2171.83 319.306 L2171.83 334.839 Q2171.83 338.519 2173.27 340.371 Q2174.7 342.2 2177.57 342.2 Q2181.02 342.2 2183.01 340.001 Q2185.02 337.802 2185.02 334.005 L2185.02 319.306 L2189.28 319.306 L2189.28 345.232 L2185.02 345.232 L2185.02 341.251 Q2183.47 343.612 2181.41 344.769 Q2179.38 345.903 2176.67 345.903 Q2172.2 345.903 2169.89 343.126 Q2167.57 340.348 2167.57 335.001 M2178.29 318.681 L2178.29 318.681 Z" fill="#000000" fill-rule="evenodd" fill-opacity="1" /><path clip-path="url(#clip860)" d="M 0 0 M2197.96 311.945 L2197.96 319.306 L2206.74 319.306 L2206.74 322.617 L2197.96 322.617 L2197.96 336.691 Q2197.96 339.862 2198.82 340.765 Q2199.7 341.667 2202.36 341.667 L2206.74 341.667 L2206.74 345.232 L2202.36 345.232 Q2197.43 345.232 2195.56 343.403 Q2193.68 341.552 2193.68 336.691 L2193.68 322.617 L2190.56 322.617 L2190.56 319.306 L2193.68 319.306 L2193.68 311.945 L2197.96 311.945 Z" fill="#000000" fill-rule="evenodd" fill-opacity="1" /><path clip-path="url(#clip860)" d="M 0 0 M2232.76 329.584 L2232.76 345.232 L2228.5 345.232 L2228.5 329.723 Q2228.5 326.042 2227.06 324.214 Q2225.63 322.385 2222.76 322.385 Q2219.31 322.385 2217.32 324.584 Q2215.33 326.783 2215.33 330.579 L2215.33 345.232 L2211.04 345.232 L2211.04 309.214 L2215.33 309.214 L2215.33 323.334 Q2216.85 320.996 2218.91 319.839 Q2221 318.681 2223.71 318.681 Q2228.17 318.681 2230.46 321.459 Q2232.76 324.214 2232.76 329.584 Z" fill="#000000" fill-rule="evenodd" fill-opacity="1" /></svg>
