<?xml version="1.0" encoding="utf-8"?>
<svg xmlns="http://www.w3.org/2000/svg" xmlns:xlink="http://www.w3.org/1999/xlink" width="600" height="400" viewBox="0 0 2400 1600">
<defs>
  <clipPath id="clip1100">
    <rect x="0" y="0" width="2400" height="1600"/>
  </clipPath>
</defs>
<path clip-path="url(#clip1100)" d="
M0 1600 L2400 1600 L2400 0 L0 0  Z
  " fill="#ffffff" fill-rule="evenodd" fill-opacity="1"/>
<defs>
  <clipPath id="clip1101">
    <rect x="480" y="0" width="1681" height="1600"/>
  </clipPath>
</defs>
<path clip-path="url(#clip1100)" d="
M167.279 1487.47 L2352.76 1487.47 L2352.76 121.675 L167.279 121.675  Z
  " fill="#ffffff" fill-rule="evenodd" fill-opacity="1"/>
<defs>
  <clipPath id="clip1102">
    <rect x="167" y="121" width="2186" height="1367"/>
  </clipPath>
</defs>
<polyline clip-path="url(#clip1102)" style="stroke:#000000; stroke-width:2; stroke-opacity:0.1; fill:none" points="
  229.132,1487.47 229.132,121.675 
  "/>
<polyline clip-path="url(#clip1102)" style="stroke:#000000; stroke-width:2; stroke-opacity:0.1; fill:none" points="
  744.575,1487.47 744.575,121.675 
  "/>
<polyline clip-path="url(#clip1102)" style="stroke:#000000; stroke-width:2; stroke-opacity:0.1; fill:none" points="
  1260.02,1487.47 1260.02,121.675 
  "/>
<polyline clip-path="url(#clip1102)" style="stroke:#000000; stroke-width:2; stroke-opacity:0.1; fill:none" points="
  1775.46,1487.47 1775.46,121.675 
  "/>
<polyline clip-path="url(#clip1102)" style="stroke:#000000; stroke-width:2; stroke-opacity:0.1; fill:none" points="
  2290.9,1487.47 2290.9,121.675 
  "/>
<polyline clip-path="url(#clip1102)" style="stroke:#000000; stroke-width:2; stroke-opacity:0.1; fill:none" points="
  167.279,1448.82 2352.76,1448.82 
  "/>
<polyline clip-path="url(#clip1102)" style="stroke:#000000; stroke-width:2; stroke-opacity:0.1; fill:none" points="
  167.279,1165.64 2352.76,1165.64 
  "/>
<polyline clip-path="url(#clip1102)" style="stroke:#000000; stroke-width:2; stroke-opacity:0.1; fill:none" points="
  167.279,882.451 2352.76,882.451 
  "/>
<polyline clip-path="url(#clip1102)" style="stroke:#000000; stroke-width:2; stroke-opacity:0.1; fill:none" points="
  167.279,599.266 2352.76,599.266 
  "/>
<polyline clip-path="url(#clip1102)" style="stroke:#000000; stroke-width:2; stroke-opacity:0.1; fill:none" points="
  167.279,316.081 2352.76,316.081 
  "/>
<polyline clip-path="url(#clip1100)" style="stroke:#000000; stroke-width:4; stroke-opacity:1; fill:none" points="
  167.279,1487.47 2352.76,1487.47 
  "/>
<polyline clip-path="url(#clip1100)" style="stroke:#000000; stroke-width:4; stroke-opacity:1; fill:none" points="
  167.279,1487.47 167.279,121.675 
  "/>
<polyline clip-path="url(#clip1100)" style="stroke:#000000; stroke-width:4; stroke-opacity:1; fill:none" points="
  229.132,1487.47 229.132,1471.09 
  "/>
<polyline clip-path="url(#clip1100)" style="stroke:#000000; stroke-width:4; stroke-opacity:1; fill:none" points="
  744.575,1487.47 744.575,1471.09 
  "/>
<polyline clip-path="url(#clip1100)" style="stroke:#000000; stroke-width:4; stroke-opacity:1; fill:none" points="
  1260.02,1487.47 1260.02,1471.09 
  "/>
<polyline clip-path="url(#clip1100)" style="stroke:#000000; stroke-width:4; stroke-opacity:1; fill:none" points="
  1775.46,1487.47 1775.46,1471.09 
  "/>
<polyline clip-path="url(#clip1100)" style="stroke:#000000; stroke-width:4; stroke-opacity:1; fill:none" points="
  2290.9,1487.47 2290.9,1471.09 
  "/>
<polyline clip-path="url(#clip1100)" style="stroke:#000000; stroke-width:4; stroke-opacity:1; fill:none" points="
  167.279,1448.82 193.505,1448.82 
  "/>
<polyline clip-path="url(#clip1100)" style="stroke:#000000; stroke-width:4; stroke-opacity:1; fill:none" points="
  167.279,1165.64 193.505,1165.64 
  "/>
<polyline clip-path="url(#clip1100)" style="stroke:#000000; stroke-width:4; stroke-opacity:1; fill:none" points="
  167.279,882.451 193.505,882.451 
  "/>
<polyline clip-path="url(#clip1100)" style="stroke:#000000; stroke-width:4; stroke-opacity:1; fill:none" points="
  167.279,599.266 193.505,599.266 
  "/>
<polyline clip-path="url(#clip1100)" style="stroke:#000000; stroke-width:4; stroke-opacity:1; fill:none" points="
  167.279,316.081 193.505,316.081 
  "/>
<g clip-path="url(#clip1100)">
<text style="fill:#000000; fill-opacity:1; font-family:Arial,Helvetica Neue,Helvetica,sans-serif; font-size:48px; text-anchor:middle;" transform="rotate(0, 229.132, 1541.47)" x="229.132" y="1541.47">-4</text>
</g>
<g clip-path="url(#clip1100)">
<text style="fill:#000000; fill-opacity:1; font-family:Arial,Helvetica Neue,Helvetica,sans-serif; font-size:48px; text-anchor:middle;" transform="rotate(0, 744.575, 1541.47)" x="744.575" y="1541.47">-2</text>
</g>
<g clip-path="url(#clip1100)">
<text style="fill:#000000; fill-opacity:1; font-family:Arial,Helvetica Neue,Helvetica,sans-serif; font-size:48px; text-anchor:middle;" transform="rotate(0, 1260.02, 1541.47)" x="1260.02" y="1541.47">0</text>
</g>
<g clip-path="url(#clip1100)">
<text style="fill:#000000; fill-opacity:1; font-family:Arial,Helvetica Neue,Helvetica,sans-serif; font-size:48px; text-anchor:middle;" transform="rotate(0, 1775.46, 1541.47)" x="1775.46" y="1541.47">2</text>
</g>
<g clip-path="url(#clip1100)">
<text style="fill:#000000; fill-opacity:1; font-family:Arial,Helvetica Neue,Helvetica,sans-serif; font-size:48px; text-anchor:middle;" transform="rotate(0, 2290.9, 1541.47)" x="2290.9" y="1541.47">4</text>
</g>
<g clip-path="url(#clip1100)">
<text style="fill:#000000; fill-opacity:1; font-family:Arial,Helvetica Neue,Helvetica,sans-serif; font-size:48px; text-anchor:end;" transform="rotate(0, 143.279, 1466.32)" x="143.279" y="1466.32">0</text>
</g>
<g clip-path="url(#clip1100)">
<text style="fill:#000000; fill-opacity:1; font-family:Arial,Helvetica Neue,Helvetica,sans-serif; font-size:48px; text-anchor:end;" transform="rotate(0, 143.279, 1183.14)" x="143.279" y="1183.14">200</text>
</g>
<g clip-path="url(#clip1100)">
<text style="fill:#000000; fill-opacity:1; font-family:Arial,Helvetica Neue,Helvetica,sans-serif; font-size:48px; text-anchor:end;" transform="rotate(0, 143.279, 899.951)" x="143.279" y="899.951">400</text>
</g>
<g clip-path="url(#clip1100)">
<text style="fill:#000000; fill-opacity:1; font-family:Arial,Helvetica Neue,Helvetica,sans-serif; font-size:48px; text-anchor:end;" transform="rotate(0, 143.279, 616.766)" x="143.279" y="616.766">600</text>
</g>
<g clip-path="url(#clip1100)">
<text style="fill:#000000; fill-opacity:1; font-family:Arial,Helvetica Neue,Helvetica,sans-serif; font-size:48px; text-anchor:end;" transform="rotate(0, 143.279, 333.581)" x="143.279" y="333.581">800</text>
</g>
<g clip-path="url(#clip1100)">
<text style="fill:#000000; fill-opacity:1; font-family:Arial,Helvetica Neue,Helvetica,sans-serif; font-size:84px; text-anchor:middle;" transform="rotate(0, 1260.02, 73.2)" x="1260.02" y="73.2">Data, True Model and Best Fit</text>
</g>
<polyline clip-path="url(#clip1102)" style="stroke:#009af9; stroke-width:4; stroke-opacity:1; fill:none" points="
  744.575,1448.82 744.575,1378.02 770.347,1378.02 770.347,1349.71 796.119,1349.71 796.119,1278.91 821.891,1278.91 821.891,1094.84 847.663,1094.84 847.663,1137.32 
  873.436,1137.32 873.436,1009.88 899.208,1009.88 899.208,868.291 924.98,868.291 924.98,1009.88 950.752,1009.88 950.752,1052.36 976.524,1052.36 976.524,811.655 
  1002.3,811.655 1002.3,1066.52 1028.07,1066.52 1028.07,726.699 1053.84,726.699 1053.84,1038.2 1079.61,1038.2 1079.61,1151.48 1105.38,1151.48 1105.38,1066.52 
  1131.16,1066.52 1131.16,1165.64 1156.93,1165.64 1156.93,1137.32 1182.7,1137.32 1182.7,1307.23 1208.47,1307.23 1208.47,1293.07 1234.25,1293.07 1234.25,1335.55 
  1260.02,1335.55 1285.79,1335.55 1285.79,1420.5 1311.56,1420.5 1311.56,1378.02 1337.33,1378.02 1337.33,1448.82 1363.11,1448.82 1363.11,1406.34 
  1388.88,1406.34 1388.88,1392.18 1414.65,1392.18 1414.65,1448.82 1440.42,1448.82 1440.42,1420.5 1466.19,1420.5 1466.19,1392.18 1491.97,1392.18 1491.97,1264.75 
  1517.74,1264.75 1517.74,1278.91 1543.51,1278.91 1543.51,1208.11 1569.28,1208.11 1569.28,1109 1595.06,1109 1595.06,896.61 1620.83,896.61 1620.83,839.973 
  1646.6,839.973 1646.6,599.266 1672.37,599.266 1672.37,471.833 1698.14,471.833 1698.14,160.33 1723.92,160.33 1723.92,216.967 1749.69,216.967 1749.69,401.037 
  1775.46,401.037 1775.46,457.674 1801.23,457.674 1801.23,514.311 1827,514.311 1827,401.037 1852.78,401.037 1852.78,684.221 1878.55,684.221 1878.55,599.266 
  1904.32,599.266 1904.32,825.814 1930.09,825.814 1930.09,896.61 1955.87,896.61 1955.87,1264.75 1981.64,1264.75 1981.64,1278.91 2007.41,1278.91 2007.41,1321.39 
  2033.18,1321.39 2033.18,1406.34 2058.95,1406.34 2058.95,1293.07 2084.73,1293.07 2084.73,1406.34 2110.5,1406.34 2110.5,1420.5 2136.27,1420.5 2136.27,1448.82 
  2162.04,1448.82 2187.81,1448.82 2213.59,1448.82 2239.36,1448.82 2265.13,1448.82 
  2290.9,1448.82 
  "/>
<polyline clip-path="url(#clip1102)" style="stroke:#e26f46; stroke-width:4; stroke-opacity:1; fill:none" points="
  229.132,1448.82 231.709,1448.82 234.287,1448.82 236.864,1448.82 239.441,1448.82 242.018,1448.82 244.596,1448.82 247.173,1448.82 249.75,1448.82 252.327,1448.82 
  254.904,1448.82 257.482,1448.82 260.059,1448.82 262.636,1448.82 265.213,1448.82 267.79,1448.82 270.368,1448.82 272.945,1448.82 275.522,1448.82 278.099,1448.82 
  280.677,1448.82 283.254,1448.82 285.831,1448.82 288.408,1448.82 290.985,1448.82 293.563,1448.82 296.14,1448.82 298.717,1448.82 301.294,1448.82 303.871,1448.82 
  306.449,1448.82 309.026,1448.82 311.603,1448.82 314.18,1448.82 316.758,1448.82 319.335,1448.82 321.912,1448.82 324.489,1448.82 327.066,1448.82 329.644,1448.82 
  332.221,1448.82 334.798,1448.82 337.375,1448.82 339.952,1448.82 342.53,1448.82 345.107,1448.82 347.684,1448.82 350.261,1448.82 352.838,1448.82 355.416,1448.82 
  357.993,1448.82 360.57,1448.82 363.147,1448.82 365.725,1448.82 368.302,1448.82 370.879,1448.82 373.456,1448.82 376.033,1448.82 378.611,1448.82 381.188,1448.81 
  383.765,1448.81 386.342,1448.81 388.919,1448.81 391.497,1448.81 394.074,1448.81 396.651,1448.81 399.228,1448.81 401.806,1448.81 404.383,1448.81 406.96,1448.81 
  409.537,1448.81 412.114,1448.8 414.692,1448.8 417.269,1448.8 419.846,1448.8 422.423,1448.8 425,1448.8 427.578,1448.79 430.155,1448.79 432.732,1448.79 
  435.309,1448.78 437.887,1448.78 440.464,1448.78 443.041,1448.77 445.618,1448.77 448.195,1448.77 450.773,1448.76 453.35,1448.76 455.927,1448.75 458.504,1448.74 
  461.081,1448.74 463.659,1448.73 466.236,1448.72 468.813,1448.71 471.39,1448.7 473.968,1448.69 476.545,1448.68 479.122,1448.67 481.699,1448.66 484.276,1448.65 
  486.854,1448.63 489.431,1448.61 492.008,1448.6 494.585,1448.58 497.162,1448.56 499.74,1448.54 502.317,1448.52 504.894,1448.49 507.471,1448.47 510.048,1448.44 
  512.626,1448.41 515.203,1448.37 517.78,1448.34 520.357,1448.3 522.935,1448.26 525.512,1448.22 528.089,1448.17 530.666,1448.12 533.243,1448.07 535.821,1448.01 
  538.398,1447.95 540.975,1447.89 543.552,1447.82 546.129,1447.75 548.707,1447.67 551.284,1447.58 553.861,1447.5 556.438,1447.4 559.016,1447.3 561.593,1447.19 
  564.17,1447.08 566.747,1446.95 569.324,1446.82 571.902,1446.68 574.479,1446.54 577.056,1446.38 579.633,1446.22 582.21,1446.04 584.788,1445.85 587.365,1445.65 
  589.942,1445.44 592.519,1445.22 595.097,1444.99 597.674,1444.74 600.251,1444.47 602.828,1444.19 605.405,1443.9 607.983,1443.59 610.56,1443.26 613.137,1442.91 
  615.714,1442.54 618.291,1442.16 620.869,1441.75 623.446,1441.32 626.023,1440.87 628.6,1440.39 631.178,1439.89 633.755,1439.36 636.332,1438.81 638.909,1438.22 
  641.486,1437.61 644.064,1436.97 646.641,1436.29 649.218,1435.59 651.795,1434.84 654.372,1434.06 656.95,1433.25 659.527,1432.4 662.104,1431.5 664.681,1430.57 
  667.258,1429.59 669.836,1428.57 672.413,1427.5 674.99,1426.38 677.567,1425.22 680.145,1424 682.722,1422.73 685.299,1421.41 687.876,1420.04 690.453,1418.6 
  693.031,1417.11 695.608,1415.56 698.185,1413.94 700.762,1412.27 703.339,1410.52 705.917,1408.71 708.494,1406.83 711.071,1404.88 713.648,1402.86 716.226,1400.76 
  718.803,1398.59 721.38,1396.34 723.957,1394.01 726.534,1391.61 729.112,1389.12 731.689,1386.54 734.266,1383.88 736.843,1381.14 739.42,1378.31 741.998,1375.39 
  744.575,1372.37 747.152,1369.27 749.729,1366.07 752.307,1362.78 754.884,1359.4 757.461,1355.91 760.038,1352.33 762.615,1348.66 765.193,1344.88 767.77,1341.01 
  770.347,1337.03 772.924,1332.96 775.501,1328.78 778.079,1324.51 780.656,1320.13 783.233,1315.65 785.81,1311.08 788.388,1306.4 790.965,1301.62 793.542,1296.74 
  796.119,1291.76 798.696,1286.69 801.274,1281.52 803.851,1276.25 806.428,1270.89 809.005,1265.43 811.582,1259.89 814.16,1254.25 816.737,1248.52 819.314,1242.71 
  821.891,1236.82 824.469,1230.84 827.046,1224.79 829.623,1218.65 832.2,1212.45 834.777,1206.18 837.355,1199.83 839.932,1193.43 842.509,1186.96 845.086,1180.44 
  847.663,1173.87 850.241,1167.25 852.818,1160.58 855.395,1153.87 857.972,1147.13 860.549,1140.36 863.127,1133.56 865.704,1126.74 868.281,1119.91 870.858,1113.06 
  873.436,1106.21 876.013,1099.36 878.59,1092.51 881.167,1085.68 883.744,1078.86 886.322,1072.06 888.899,1065.3 891.476,1058.57 894.053,1051.87 896.63,1045.23 
  899.208,1038.64 901.785,1032.11 904.362,1025.64 906.939,1019.24 909.517,1012.93 912.094,1006.69 914.671,1000.55 917.248,994.501 919.825,988.557 922.403,982.721 
  924.98,977 927.557,971.399 930.134,965.925 932.711,960.584 935.289,955.381 937.866,950.323 940.443,945.413 943.02,940.659 945.598,936.065 948.175,931.636 
  950.752,927.378 953.329,923.295 955.906,919.391 958.484,915.672 961.061,912.142 963.638,908.804 966.215,905.663 968.792,902.722 971.37,899.985 973.947,897.454 
  976.524,895.134 979.101,893.026 981.679,891.133 984.256,889.457 986.833,888.001 989.41,886.766 991.987,885.753 994.565,884.964 997.142,884.4 999.719,884.061 
  1002.3,883.948 1004.87,884.061 1007.45,884.4 1010.03,884.964 1012.61,885.753 1015.18,886.766 1017.76,888.001 1020.34,889.457 1022.91,891.133 1025.49,893.026 
  1028.07,895.134 1030.65,897.454 1033.22,899.985 1035.8,902.722 1038.38,905.663 1040.95,908.804 1043.53,912.142 1046.11,915.672 1048.69,919.391 1051.26,923.294 
  1053.84,927.378 1056.42,931.636 1058.99,936.065 1061.57,940.659 1064.15,945.413 1066.73,950.322 1069.3,955.381 1071.88,960.584 1074.46,965.925 1077.04,971.399 
  1079.61,976.999 1082.19,982.72 1084.77,988.556 1087.34,994.501 1089.92,1000.55 1092.5,1006.69 1095.08,1012.93 1097.65,1019.24 1100.23,1025.64 1102.81,1032.11 
  1105.38,1038.64 1107.96,1045.23 1110.54,1051.87 1113.12,1058.56 1115.69,1065.3 1118.27,1072.06 1120.85,1078.86 1123.43,1085.67 1126,1092.51 1128.58,1099.35 
  1131.16,1106.2 1133.73,1113.05 1136.31,1119.9 1138.89,1126.73 1141.47,1133.55 1144.04,1140.35 1146.62,1147.12 1149.2,1153.86 1151.77,1160.57 1154.35,1167.23 
  1156.93,1173.86 1159.51,1180.43 1162.08,1186.95 1164.66,1193.41 1167.24,1199.82 1169.82,1206.16 1172.39,1212.43 1174.97,1218.63 1177.55,1224.76 1180.12,1230.81 
  1182.7,1236.79 1185.28,1242.68 1187.86,1248.49 1190.43,1254.21 1193.01,1259.84 1195.59,1265.39 1198.16,1270.84 1200.74,1276.2 1203.32,1281.46 1205.9,1286.63 
  1208.47,1291.69 1211.05,1296.66 1213.63,1301.53 1216.2,1306.31 1218.78,1310.98 1221.36,1315.54 1223.94,1320.01 1226.51,1324.38 1229.09,1328.64 1231.67,1332.8 
  1234.25,1336.87 1236.82,1340.83 1239.4,1344.68 1241.98,1348.44 1244.55,1352.1 1247.13,1355.66 1249.71,1359.12 1252.29,1362.48 1254.86,1365.75 1257.44,1368.92 
  1260.02,1371.99 1262.59,1374.97 1265.17,1377.86 1267.75,1380.66 1270.33,1383.36 1272.9,1385.98 1275.48,1388.51 1278.06,1390.95 1280.64,1393.3 1283.21,1395.58 
  1285.79,1397.76 1288.37,1399.87 1290.94,1401.9 1293.52,1403.84 1296.1,1405.71 1298.68,1407.51 1301.25,1409.23 1303.83,1410.87 1306.41,1412.44 1308.98,1413.95 
  1311.56,1415.38 1314.14,1416.74 1316.72,1418.04 1319.29,1419.27 1321.87,1420.43 1324.45,1421.53 1327.03,1422.57 1329.6,1423.54 1332.18,1424.45 1334.76,1425.31 
  1337.33,1426.1 1339.91,1426.83 1342.49,1427.51 1345.07,1428.12 1347.64,1428.68 1350.22,1429.19 1352.8,1429.63 1355.37,1430.02 1357.95,1430.36 1360.53,1430.64 
  1363.11,1430.86 1365.68,1431.03 1368.26,1431.14 1370.84,1431.2 1373.41,1431.2 1375.99,1431.14 1378.57,1431.03 1381.15,1430.86 1383.72,1430.63 1386.3,1430.34 
  1388.88,1429.99 1391.46,1429.59 1394.03,1429.12 1396.61,1428.59 1399.19,1428 1401.76,1427.34 1404.34,1426.61 1406.92,1425.82 1409.5,1424.96 1412.07,1424.03 
  1414.65,1423.03 1417.23,1421.95 1419.8,1420.8 1422.38,1419.57 1424.96,1418.26 1427.54,1416.87 1430.11,1415.4 1432.69,1413.83 1435.27,1412.18 1437.85,1410.44 
  1440.42,1408.61 1443,1406.68 1445.58,1404.65 1448.15,1402.52 1450.73,1400.29 1453.31,1397.95 1455.89,1395.5 1458.46,1392.93 1461.04,1390.25 1463.62,1387.46 
  1466.19,1384.54 1468.77,1381.49 1471.35,1378.32 1473.93,1375.01 1476.5,1371.58 1479.08,1368 1481.66,1364.28 1484.24,1360.42 1486.81,1356.42 1489.39,1352.26 
  1491.97,1347.95 1494.54,1343.48 1497.12,1338.85 1499.7,1334.06 1502.28,1329.11 1504.85,1323.98 1507.43,1318.69 1510.01,1313.22 1512.58,1307.57 1515.16,1301.75 
  1517.74,1295.74 1520.32,1289.54 1522.89,1283.16 1525.47,1276.59 1528.05,1269.83 1530.62,1262.88 1533.2,1255.73 1535.78,1248.39 1538.36,1240.84 1540.93,1233.1 
  1543.51,1225.16 1546.09,1217.02 1548.67,1208.68 1551.24,1200.13 1553.82,1191.38 1556.4,1182.43 1558.97,1173.28 1561.55,1163.93 1564.13,1154.38 1566.71,1144.62 
  1569.28,1134.67 1571.86,1124.53 1574.44,1114.19 1577.01,1103.65 1579.59,1092.93 1582.17,1082.02 1584.75,1070.93 1587.32,1059.66 1589.9,1048.21 1592.48,1036.59 
  1595.06,1024.8 1597.63,1012.85 1600.21,1000.74 1602.79,988.478 1605.36,976.07 1607.94,963.521 1610.52,950.839 1613.1,938.029 1615.67,925.099 1618.25,912.057 
  1620.83,898.909 1623.4,885.665 1625.98,872.332 1628.56,858.92 1631.14,845.437 1633.71,831.893 1636.29,818.296 1638.87,804.658 1641.45,790.988 1644.02,777.296 
  1646.6,763.594 1649.18,749.892 1651.75,736.2 1654.33,722.531 1656.91,708.896 1659.49,695.306 1662.06,681.774 1664.64,668.31 1667.22,654.928 1669.79,641.64 
  1672.37,628.457 1674.95,615.393 1677.53,602.459 1680.1,589.668 1682.68,577.032 1685.26,564.564 1687.83,552.277 1690.41,540.183 1692.99,528.293 1695.57,516.621 
  1698.14,505.179 1700.72,493.978 1703.3,483.03 1705.88,472.348 1708.45,461.943 1711.03,451.825 1713.61,442.006 1716.18,432.498 1718.76,423.309 1721.34,414.452 
  1723.92,405.935 1726.49,397.769 1729.07,389.962 1731.65,382.524 1734.22,375.464 1736.8,368.788 1739.38,362.506 1741.96,356.624 1744.53,351.149 1747.11,346.088 
  1749.69,341.447 1752.27,337.231 1754.84,333.445 1757.42,330.094 1760,327.182 1762.57,324.711 1765.15,322.686 1767.73,321.108 1770.31,319.98 1772.88,319.303 
  1775.46,319.077 1778.04,319.303 1780.61,319.98 1783.19,321.108 1785.77,322.686 1788.35,324.711 1790.92,327.182 1793.5,330.094 1796.08,333.445 1798.66,337.231 
  1801.23,341.447 1803.81,346.088 1806.39,351.149 1808.96,356.624 1811.54,362.506 1814.12,368.788 1816.7,375.464 1819.27,382.525 1821.85,389.963 1824.43,397.769 
  1827,405.935 1829.58,414.452 1832.16,423.31 1834.74,432.498 1837.31,442.006 1839.89,451.825 1842.47,461.943 1845.04,472.348 1847.62,483.031 1850.2,493.978 
  1852.78,505.179 1855.35,516.622 1857.93,528.294 1860.51,540.183 1863.09,552.277 1865.66,564.565 1868.24,577.032 1870.82,589.668 1873.39,602.459 1875.97,615.393 
  1878.55,628.458 1881.13,641.641 1883.7,654.929 1886.28,668.311 1888.86,681.775 1891.43,695.307 1894.01,708.897 1896.59,722.533 1899.17,736.202 1901.74,749.893 
  1904.32,763.596 1906.9,777.299 1909.48,790.991 1912.05,804.661 1914.63,818.299 1917.21,831.896 1919.78,845.441 1922.36,858.924 1924.94,872.337 1927.52,885.67 
  1930.09,898.915 1932.67,912.063 1935.25,925.106 1937.82,938.037 1940.4,950.847 1942.98,963.53 1945.56,976.08 1948.13,988.489 1950.71,1000.75 1953.29,1012.86 
  1955.87,1024.81 1958.44,1036.6 1961.02,1048.23 1963.6,1059.68 1966.17,1070.95 1968.75,1082.05 1971.33,1092.96 1973.91,1103.68 1976.48,1114.22 1979.06,1124.56 
  1981.64,1134.71 1984.21,1144.66 1986.79,1154.42 1989.37,1163.97 1991.95,1173.33 1994.52,1182.49 1997.1,1191.44 1999.68,1200.2 2002.25,1208.75 2004.83,1217.1 
  2007.41,1225.25 2009.99,1233.19 2012.56,1240.94 2015.14,1248.49 2017.72,1255.85 2020.3,1263.01 2022.87,1269.97 2025.45,1276.74 2028.03,1283.32 2030.6,1289.72 
  2033.18,1295.93 2035.76,1301.95 2038.34,1307.79 2040.91,1313.46 2043.49,1318.95 2046.07,1324.27 2048.64,1329.41 2051.22,1334.39 2053.8,1339.21 2056.38,1343.86 
  2058.95,1348.36 2061.53,1352.7 2064.11,1356.9 2066.69,1360.94 2069.26,1364.84 2071.84,1368.6 2074.42,1372.22 2076.99,1375.71 2079.57,1379.07 2082.15,1382.3 
  2084.73,1385.4 2087.3,1388.39 2089.88,1391.25 2092.46,1394.01 2095.03,1396.65 2097.61,1399.18 2100.19,1401.61 2102.77,1403.94 2105.34,1406.17 2107.92,1408.31 
  2110.5,1410.36 2113.08,1412.31 2115.65,1414.18 2118.23,1415.97 2120.81,1417.68 2123.38,1419.31 2125.96,1420.87 2128.54,1422.35 2131.12,1423.77 2133.69,1425.12 
  2136.27,1426.4 2138.85,1427.63 2141.42,1428.8 2144,1429.91 2146.58,1430.96 2149.16,1431.96 2151.73,1432.92 2154.31,1433.82 2156.89,1434.68 2159.46,1435.5 
  2162.04,1436.27 2164.62,1437 2167.2,1437.7 2169.77,1438.36 2172.35,1438.98 2174.93,1439.57 2177.51,1440.13 2180.08,1440.65 2182.66,1441.15 2185.24,1441.62 
  2187.81,1442.07 2190.39,1442.49 2192.97,1442.88 2195.55,1443.26 2198.12,1443.61 2200.7,1443.94 2203.28,1444.25 2205.85,1444.55 2208.43,1444.83 2211.01,1445.09 
  2213.59,1445.33 2216.16,1445.56 2218.74,1445.78 2221.32,1445.98 2223.9,1446.17 2226.47,1446.35 2229.05,1446.52 2231.63,1446.67 2234.2,1446.82 2236.78,1446.96 
  2239.36,1447.09 2241.94,1447.21 2244.51,1447.32 2247.09,1447.43 2249.67,1447.52 2252.24,1447.62 2254.82,1447.7 2257.4,1447.78 2259.98,1447.86 2262.55,1447.93 
  2265.13,1447.99 2267.71,1448.05 2270.29,1448.11 2272.86,1448.16 2275.44,1448.21 2278.02,1448.26 2280.59,1448.3 2283.17,1448.34 2285.75,1448.38 2288.33,1448.41 
  2290.9,1448.44 
  "/>
<polyline clip-path="url(#clip1102)" style="stroke:#3da44d; stroke-width:4; stroke-opacity:1; fill:none" points="
  229.132,1448.82 231.709,1448.82 234.287,1448.82 236.864,1448.82 239.441,1448.82 242.018,1448.82 244.596,1448.82 247.173,1448.82 249.75,1448.82 252.327,1448.82 
  254.904,1448.82 257.482,1448.82 260.059,1448.82 262.636,1448.82 265.213,1448.82 267.79,1448.82 270.368,1448.82 272.945,1448.82 275.522,1448.82 278.099,1448.82 
  280.677,1448.82 283.254,1448.82 285.831,1448.82 288.408,1448.82 290.985,1448.82 293.563,1448.82 296.14,1448.82 298.717,1448.82 301.294,1448.82 303.871,1448.82 
  306.449,1448.82 309.026,1448.82 311.603,1448.82 314.18,1448.82 316.758,1448.82 319.335,1448.82 321.912,1448.82 324.489,1448.82 327.066,1448.82 329.644,1448.82 
  332.221,1448.82 334.798,1448.82 337.375,1448.82 339.952,1448.82 342.53,1448.82 345.107,1448.82 347.684,1448.82 350.261,1448.82 352.838,1448.82 355.416,1448.82 
  357.993,1448.82 360.57,1448.82 363.147,1448.82 365.725,1448.82 368.302,1448.82 370.879,1448.82 373.456,1448.82 376.033,1448.82 378.611,1448.82 381.188,1448.82 
  383.765,1448.82 386.342,1448.82 388.919,1448.81 391.497,1448.81 394.074,1448.81 396.651,1448.81 399.228,1448.81 401.806,1448.81 404.383,1448.81 406.96,1448.81 
  409.537,1448.81 412.114,1448.81 414.692,1448.81 417.269,1448.81 419.846,1448.8 422.423,1448.8 425,1448.8 427.578,1448.8 430.155,1448.8 432.732,1448.79 
  435.309,1448.79 437.887,1448.79 440.464,1448.79 443.041,1448.78 445.618,1448.78 448.195,1448.78 450.773,1448.77 453.35,1448.77 455.927,1448.76 458.504,1448.76 
  461.081,1448.75 463.659,1448.75 466.236,1448.74 468.813,1448.73 471.39,1448.72 473.968,1448.72 476.545,1448.71 479.122,1448.7 481.699,1448.69 484.276,1448.68 
  486.854,1448.66 489.431,1448.65 492.008,1448.63 494.585,1448.62 497.162,1448.6 499.74,1448.58 502.317,1448.56 504.894,1448.54 507.471,1448.52 510.048,1448.5 
  512.626,1448.47 515.203,1448.44 517.78,1448.41 520.357,1448.38 522.935,1448.34 525.512,1448.31 528.089,1448.27 530.666,1448.22 533.243,1448.18 535.821,1448.13 
  538.398,1448.08 540.975,1448.02 543.552,1447.96 546.129,1447.89 548.707,1447.82 551.284,1447.75 553.861,1447.67 556.438,1447.59 559.016,1447.5 561.593,1447.4 
  564.17,1447.3 566.747,1447.19 569.324,1447.07 571.902,1446.95 574.479,1446.81 577.056,1446.67 579.633,1446.52 582.21,1446.36 584.788,1446.2 587.365,1446.02 
  589.942,1445.83 592.519,1445.62 595.097,1445.41 597.674,1445.18 600.251,1444.94 602.828,1444.69 605.405,1444.42 607.983,1444.13 610.56,1443.83 613.137,1443.51 
  615.714,1443.17 618.291,1442.82 620.869,1442.44 623.446,1442.04 626.023,1441.63 628.6,1441.18 631.178,1440.72 633.755,1440.23 636.332,1439.71 638.909,1439.17 
  641.486,1438.6 644.064,1438 646.641,1437.37 649.218,1436.7 651.795,1436.01 654.372,1435.27 656.95,1434.51 659.527,1433.7 662.104,1432.86 664.681,1431.98 
  667.258,1431.05 669.836,1430.08 672.413,1429.07 674.99,1428.01 677.567,1426.91 680.145,1425.75 682.722,1424.54 685.299,1423.29 687.876,1421.97 690.453,1420.6 
  693.031,1419.17 695.608,1417.69 698.185,1416.14 700.762,1414.53 703.339,1412.85 705.917,1411.11 708.494,1409.3 711.071,1407.41 713.648,1405.46 716.226,1403.44 
  718.803,1401.33 721.38,1399.15 723.957,1396.9 726.534,1394.56 729.112,1392.14 731.689,1389.63 734.266,1387.04 736.843,1384.37 739.42,1381.6 741.998,1378.75 
  744.575,1375.8 747.152,1372.76 749.729,1369.63 752.307,1366.4 754.884,1363.07 757.461,1359.65 760.038,1356.13 762.615,1352.51 765.193,1348.79 767.77,1344.96 
  770.347,1341.04 772.924,1337.01 775.501,1332.88 778.079,1328.64 780.656,1324.3 783.233,1319.86 785.81,1315.31 788.388,1310.66 790.965,1305.9 793.542,1301.05 
  796.119,1296.08 798.696,1291.02 801.274,1285.86 803.851,1280.59 806.428,1275.23 809.005,1269.77 811.582,1264.21 814.16,1258.56 816.737,1252.81 819.314,1246.97 
  821.891,1241.05 824.469,1235.04 827.046,1228.94 829.623,1222.76 832.2,1216.5 834.777,1210.17 837.355,1203.77 839.932,1197.29 842.509,1190.75 845.086,1184.15 
  847.663,1177.49 850.241,1170.78 852.818,1164.01 855.395,1157.21 857.972,1150.36 860.549,1143.47 863.127,1136.55 865.704,1129.61 868.281,1122.64 870.858,1115.66 
  873.436,1108.67 876.013,1101.68 878.59,1094.68 881.167,1087.69 883.744,1080.72 886.322,1073.76 888.899,1066.83 891.476,1059.93 894.053,1053.06 896.63,1046.24 
  899.208,1039.47 901.785,1032.75 904.362,1026.1 906.939,1019.51 909.517,1013 912.094,1006.58 914.671,1000.24 917.248,993.993 919.825,987.851 922.403,981.816 
  924.98,975.896 927.557,970.096 930.134,964.423 932.711,958.883 935.289,953.481 937.866,948.225 940.443,943.12 943.02,938.171 945.598,933.384 948.175,928.765 
  950.752,924.319 953.329,920.05 955.906,915.965 958.484,912.067 961.061,908.362 963.638,904.853 966.215,901.545 968.792,898.442 971.37,895.547 973.947,892.864 
  976.524,890.397 979.101,888.147 981.679,886.118 984.256,884.312 986.833,882.732 989.41,881.38 991.987,880.256 994.565,879.363 997.142,878.701 999.719,878.271 
  1002.3,878.075 1004.87,878.111 1007.45,878.381 1010.03,878.883 1012.61,879.617 1015.18,880.583 1017.76,881.778 1020.34,883.202 1022.91,884.853 1025.49,886.729 
  1028.07,888.827 1030.65,891.145 1033.22,893.68 1035.8,896.43 1038.38,899.39 1040.95,902.558 1043.53,905.929 1046.11,909.5 1048.69,913.265 1051.26,917.222 
  1053.84,921.365 1056.42,925.69 1058.99,930.191 1061.57,934.863 1064.15,939.701 1066.73,944.699 1069.3,949.853 1071.88,955.155 1074.46,960.6 1077.04,966.182 
  1079.61,971.896 1082.19,977.734 1084.77,983.691 1087.34,989.76 1089.92,995.934 1092.5,1002.21 1095.08,1008.58 1097.65,1015.03 1100.23,1021.56 1102.81,1028.17 
  1105.38,1034.84 1107.96,1041.58 1110.54,1048.37 1113.12,1055.2 1115.69,1062.08 1118.27,1068.99 1120.85,1075.93 1123.43,1082.9 1126,1089.88 1128.58,1096.87 
  1131.16,1103.86 1133.73,1110.86 1136.31,1117.84 1138.89,1124.82 1141.47,1131.78 1144.04,1138.71 1146.62,1145.62 1149.2,1152.49 1151.77,1159.33 1154.35,1166.12 
  1156.93,1172.87 1159.51,1179.57 1162.08,1186.21 1164.66,1192.79 1167.24,1199.31 1169.82,1205.76 1172.39,1212.14 1174.97,1218.44 1177.55,1224.67 1180.12,1230.82 
  1182.7,1236.89 1185.28,1242.88 1187.86,1248.77 1190.43,1254.57 1193.01,1260.29 1195.59,1265.91 1198.16,1271.43 1200.74,1276.86 1203.32,1282.18 1205.9,1287.41 
  1208.47,1292.54 1211.05,1297.56 1213.63,1302.48 1216.2,1307.3 1218.78,1312.01 1221.36,1316.62 1223.94,1321.12 1226.51,1325.52 1229.09,1329.82 1231.67,1334.01 
  1234.25,1338.09 1236.82,1342.07 1239.4,1345.95 1241.98,1349.72 1244.55,1353.39 1247.13,1356.96 1249.71,1360.42 1252.29,1363.79 1254.86,1367.06 1257.44,1370.22 
  1260.02,1373.29 1262.59,1376.27 1265.17,1379.15 1267.75,1381.93 1270.33,1384.63 1272.9,1387.23 1275.48,1389.74 1278.06,1392.16 1280.64,1394.49 1283.21,1396.74 
  1285.79,1398.91 1288.37,1400.99 1290.94,1402.99 1293.52,1404.91 1296.1,1406.74 1298.68,1408.51 1301.25,1410.19 1303.83,1411.8 1306.41,1413.34 1308.98,1414.8 
  1311.56,1416.19 1314.14,1417.51 1316.72,1418.77 1319.29,1419.95 1321.87,1421.07 1324.45,1422.12 1327.03,1423.11 1329.6,1424.03 1332.18,1424.89 1334.76,1425.69 
  1337.33,1426.43 1339.91,1427.1 1342.49,1427.72 1345.07,1428.28 1347.64,1428.77 1350.22,1429.21 1352.8,1429.59 1355.37,1429.91 1357.95,1430.17 1360.53,1430.38 
  1363.11,1430.52 1365.68,1430.61 1368.26,1430.64 1370.84,1430.61 1373.41,1430.52 1375.99,1430.37 1378.57,1430.16 1381.15,1429.89 1383.72,1429.55 1386.3,1429.16 
  1388.88,1428.7 1391.46,1428.17 1394.03,1427.58 1396.61,1426.92 1399.19,1426.2 1401.76,1425.4 1404.34,1424.53 1406.92,1423.59 1409.5,1422.58 1412.07,1421.48 
  1414.65,1420.31 1417.23,1419.06 1419.8,1417.73 1422.38,1416.31 1424.96,1414.8 1427.54,1413.21 1430.11,1411.52 1432.69,1409.74 1435.27,1407.86 1437.85,1405.88 
  1440.42,1403.8 1443,1401.61 1445.58,1399.32 1448.15,1396.91 1450.73,1394.39 1453.31,1391.75 1455.89,1389 1458.46,1386.12 1461.04,1383.11 1463.62,1379.97 
  1466.19,1376.7 1468.77,1373.29 1471.35,1369.75 1473.93,1366.06 1476.5,1362.22 1479.08,1358.24 1481.66,1354.1 1484.24,1349.8 1486.81,1345.35 1489.39,1340.73 
  1491.97,1335.95 1494.54,1331 1497.12,1325.88 1499.7,1320.58 1502.28,1315.1 1504.85,1309.44 1507.43,1303.6 1510.01,1297.57 1512.58,1291.35 1515.16,1284.94 
  1517.74,1278.34 1520.32,1271.54 1522.89,1264.54 1525.47,1257.34 1528.05,1249.94 1530.62,1242.33 1533.2,1234.52 1535.78,1226.51 1538.36,1218.29 1540.93,1209.86 
  1543.51,1201.22 1546.09,1192.37 1548.67,1183.32 1551.24,1174.05 1553.82,1164.58 1556.4,1154.9 1558.97,1145.01 1561.55,1134.92 1564.13,1124.63 1566.71,1114.14 
  1569.28,1103.44 1571.86,1092.55 1574.44,1081.47 1577.01,1070.19 1579.59,1058.73 1582.17,1047.08 1584.75,1035.26 1587.32,1023.26 1589.9,1011.09 1592.48,998.76 
  1595.06,986.269 1597.63,973.625 1600.21,960.835 1602.79,947.904 1605.36,934.841 1607.94,921.653 1610.52,908.347 1613.1,894.931 1615.67,881.414 1618.25,867.804 
  1620.83,854.111 1623.4,840.343 1625.98,826.511 1628.56,812.625 1631.14,798.694 1633.71,784.729 1636.29,770.741 1638.87,756.741 1641.45,742.741 1644.02,728.751 
  1646.6,714.785 1649.18,700.853 1651.75,686.967 1654.33,673.141 1656.91,659.386 1659.49,645.716 1662.06,632.142 1664.64,618.678 1667.22,605.337 1669.79,592.131 
  1672.37,579.074 1674.95,566.178 1677.53,553.457 1680.1,540.923 1682.68,528.59 1685.26,516.47 1687.83,504.577 1690.41,492.922 1692.99,481.518 1695.57,470.378 
  1698.14,459.514 1700.72,448.938 1703.3,438.661 1705.88,428.696 1708.45,419.053 1711.03,409.743 1713.61,400.777 1716.18,392.166 1718.76,383.918 1721.34,376.045 
  1723.92,368.555 1726.49,361.457 1729.07,354.759 1731.65,348.469 1734.22,342.595 1736.8,337.144 1739.38,332.122 1741.96,327.535 1744.53,323.39 1747.11,319.69 
  1749.69,316.441 1752.27,313.646 1754.84,311.309 1757.42,309.433 1760,308.019 1762.57,307.071 1765.15,306.588 1767.73,306.571 1770.31,307.021 1772.88,307.937 
  1775.46,309.318 1778.04,311.162 1780.61,313.466 1783.19,316.229 1785.77,319.446 1788.35,323.114 1790.92,327.228 1793.5,331.784 1796.08,336.775 1798.66,342.197 
  1801.23,348.041 1803.81,354.302 1806.39,360.971 1808.96,368.042 1811.54,375.505 1814.12,383.351 1816.7,391.572 1819.27,400.158 1821.85,409.1 1824.43,418.386 
  1827,428.006 1829.58,437.949 1832.16,448.204 1834.74,458.759 1837.31,469.603 1839.89,480.724 1842.47,492.11 1845.04,503.747 1847.62,515.625 1850.2,527.729 
  1852.78,540.047 1855.35,552.567 1857.93,565.276 1860.51,578.16 1863.09,591.206 1865.66,604.402 1868.24,617.734 1870.82,631.19 1873.39,644.756 1875.97,658.421 
  1878.55,672.17 1881.13,685.992 1883.7,699.874 1886.28,713.803 1888.86,727.768 1891.43,741.756 1894.01,755.756 1896.59,769.757 1899.17,783.746 1901.74,797.713 
  1904.32,811.647 1906.9,825.538 1909.48,839.374 1912.05,853.147 1914.63,866.846 1917.21,880.463 1919.78,893.987 1922.36,907.411 1924.94,920.726 1927.52,933.924 
  1930.09,946.997 1932.67,959.937 1935.25,972.739 1937.82,985.395 1940.4,997.898 1942.98,1010.24 1945.56,1022.42 1948.13,1034.44 1950.71,1046.28 1953.29,1057.94 
  1955.87,1069.41 1958.44,1080.7 1961.02,1091.8 1963.6,1102.71 1966.17,1113.42 1968.75,1123.93 1971.33,1134.24 1973.91,1144.35 1976.48,1154.26 1979.06,1163.95 
  1981.64,1173.45 1984.21,1182.73 1986.79,1191.81 1989.37,1200.67 1991.95,1209.33 1994.52,1217.78 1997.1,1226.03 1999.68,1234.07 2002.25,1241.9 2004.83,1249.53 
  2007.41,1256.95 2009.99,1264.18 2012.56,1271.2 2015.14,1278.03 2017.72,1284.66 2020.3,1291.1 2022.87,1297.35 2025.45,1303.41 2028.03,1309.28 2030.6,1314.97 
  2033.18,1320.49 2035.76,1325.82 2038.34,1330.98 2040.91,1335.97 2043.49,1340.8 2046.07,1345.46 2048.64,1349.96 2051.22,1354.3 2053.8,1358.49 2056.38,1362.53 
  2058.95,1366.42 2061.53,1370.16 2064.11,1373.77 2066.69,1377.24 2069.26,1380.58 2071.84,1383.79 2074.42,1386.88 2076.99,1389.84 2079.57,1392.68 2082.15,1395.41 
  2084.73,1398.03 2087.3,1400.53 2089.88,1402.94 2092.46,1405.24 2095.03,1407.44 2097.61,1409.55 2100.19,1411.56 2102.77,1413.49 2105.34,1415.33 2107.92,1417.09 
  2110.5,1418.76 2113.08,1420.36 2115.65,1421.89 2118.23,1423.35 2120.81,1424.73 2123.38,1426.05 2125.96,1427.31 2128.54,1428.5 2131.12,1429.64 2133.69,1430.72 
  2136.27,1431.75 2138.85,1432.72 2141.42,1433.65 2144,1434.53 2146.58,1435.36 2149.16,1436.15 2151.73,1436.9 2154.31,1437.6 2156.89,1438.27 2159.46,1438.91 
  2162.04,1439.51 2164.62,1440.08 2167.2,1440.61 2169.77,1441.12 2172.35,1441.6 2174.93,1442.05 2177.51,1442.47 2180.08,1442.88 2182.66,1443.25 2185.24,1443.61 
  2187.81,1443.95 2190.39,1444.26 2192.97,1444.56 2195.55,1444.84 2198.12,1445.1 2200.7,1445.35 2203.28,1445.58 2205.85,1445.8 2208.43,1446 2211.01,1446.19 
  2213.59,1446.37 2216.16,1446.54 2218.74,1446.7 2221.32,1446.84 2223.9,1446.98 2226.47,1447.11 2229.05,1447.23 2231.63,1447.34 2234.2,1447.45 2236.78,1447.55 
  2239.36,1447.64 2241.94,1447.72 2244.51,1447.8 2247.09,1447.88 2249.67,1447.95 2252.24,1448.01 2254.82,1448.07 2257.4,1448.13 2259.98,1448.18 2262.55,1448.23 
  2265.13,1448.27 2267.71,1448.31 2270.29,1448.35 2272.86,1448.39 2275.44,1448.42 2278.02,1448.45 2280.59,1448.48 2283.17,1448.51 2285.75,1448.53 2288.33,1448.56 
  2290.9,1448.58 
  "/>
<path clip-path="url(#clip1100)" d="
M1893.61 447.115 L2280.76 447.115 L2280.76 205.195 L1893.61 205.195  Z
  " fill="#ffffff" fill-rule="evenodd" fill-opacity="1"/>
<polyline clip-path="url(#clip1100)" style="stroke:#000000; stroke-width:4; stroke-opacity:1; fill:none" points="
  1893.61,447.115 2280.76,447.115 2280.76,205.195 1893.61,205.195 1893.61,447.115 
  "/>
<polyline clip-path="url(#clip1100)" style="stroke:#009af9; stroke-width:4; stroke-opacity:1; fill:none" points="
  1917.61,265.675 2061.61,265.675 
  "/>
<g clip-path="url(#clip1100)">
<text style="fill:#000000; fill-opacity:1; font-family:Arial,Helvetica Neue,Helvetica,sans-serif; font-size:48px; text-anchor:start;" transform="rotate(0, 2085.61, 283.175)" x="2085.61" y="283.175">Data</text>
</g>
<polyline clip-path="url(#clip1100)" style="stroke:#e26f46; stroke-width:4; stroke-opacity:1; fill:none" points="
  1917.61,326.155 2061.61,326.155 
  "/>
<g clip-path="url(#clip1100)">
<text style="fill:#000000; fill-opacity:1; font-family:Arial,Helvetica Neue,Helvetica,sans-serif; font-size:48px; text-anchor:start;" transform="rotate(0, 2085.61, 343.655)" x="2085.61" y="343.655">Truth</text>
</g>
<polyline clip-path="url(#clip1100)" style="stroke:#3da44d; stroke-width:4; stroke-opacity:1; fill:none" points="
  1917.61,386.635 2061.61,386.635 
  "/>
<g clip-path="url(#clip1100)">
<text style="fill:#000000; fill-opacity:1; font-family:Arial,Helvetica Neue,Helvetica,sans-serif; font-size:48px; text-anchor:start;" transform="rotate(0, 2085.61, 404.135)" x="2085.61" y="404.135">Best fit</text>
</g>
</svg>
