<?xml version="1.0" encoding="utf-8"?>
<svg xmlns="http://www.w3.org/2000/svg" xmlns:xlink="http://www.w3.org/1999/xlink" width="600" height="400" viewBox="0 0 2400 1600">
<defs>
  <clipPath id="clip800">
    <rect x="0" y="0" width="2400" height="1600"/>
  </clipPath>
</defs>
<path clip-path="url(#clip800)" d="
M0 1600 L2400 1600 L2400 0 L0 0  Z
  " fill="#ffffff" fill-rule="evenodd" fill-opacity="1"/>
<defs>
  <clipPath id="clip801">
    <rect x="480" y="0" width="1681" height="1600"/>
  </clipPath>
</defs>
<path clip-path="url(#clip800)" d="
M172.015 1486.45 L2352.76 1486.45 L2352.76 123.472 L172.015 123.472  Z
  " fill="#ffffff" fill-rule="evenodd" fill-opacity="1"/>
<defs>
  <clipPath id="clip802">
    <rect x="172" y="123" width="2182" height="1364"/>
  </clipPath>
</defs>
<polyline clip-path="url(#clip802)" style="stroke:#000000; stroke-linecap:butt; stroke-linejoin:round; stroke-width:2; stroke-opacity:0.1; fill:none" points="
  233.734,1486.45 233.734,123.472 
  "/>
<polyline clip-path="url(#clip802)" style="stroke:#000000; stroke-linecap:butt; stroke-linejoin:round; stroke-width:2; stroke-opacity:0.1; fill:none" points="
  748.06,1486.45 748.06,123.472 
  "/>
<polyline clip-path="url(#clip802)" style="stroke:#000000; stroke-linecap:butt; stroke-linejoin:round; stroke-width:2; stroke-opacity:0.1; fill:none" points="
  1262.39,1486.45 1262.39,123.472 
  "/>
<polyline clip-path="url(#clip802)" style="stroke:#000000; stroke-linecap:butt; stroke-linejoin:round; stroke-width:2; stroke-opacity:0.1; fill:none" points="
  1776.71,1486.45 1776.71,123.472 
  "/>
<polyline clip-path="url(#clip802)" style="stroke:#000000; stroke-linecap:butt; stroke-linejoin:round; stroke-width:2; stroke-opacity:0.1; fill:none" points="
  2291.04,1486.45 2291.04,123.472 
  "/>
<polyline clip-path="url(#clip800)" style="stroke:#000000; stroke-linecap:butt; stroke-linejoin:round; stroke-width:4; stroke-opacity:1; fill:none" points="
  172.015,1486.45 2352.76,1486.45 
  "/>
<polyline clip-path="url(#clip800)" style="stroke:#000000; stroke-linecap:butt; stroke-linejoin:round; stroke-width:4; stroke-opacity:1; fill:none" points="
  233.734,1486.45 233.734,1470.09 
  "/>
<polyline clip-path="url(#clip800)" style="stroke:#000000; stroke-linecap:butt; stroke-linejoin:round; stroke-width:4; stroke-opacity:1; fill:none" points="
  748.06,1486.45 748.06,1470.09 
  "/>
<polyline clip-path="url(#clip800)" style="stroke:#000000; stroke-linecap:butt; stroke-linejoin:round; stroke-width:4; stroke-opacity:1; fill:none" points="
  1262.39,1486.45 1262.39,1470.09 
  "/>
<polyline clip-path="url(#clip800)" style="stroke:#000000; stroke-linecap:butt; stroke-linejoin:round; stroke-width:4; stroke-opacity:1; fill:none" points="
  1776.71,1486.45 1776.71,1470.09 
  "/>
<polyline clip-path="url(#clip800)" style="stroke:#000000; stroke-linecap:butt; stroke-linejoin:round; stroke-width:4; stroke-opacity:1; fill:none" points="
  2291.04,1486.45 2291.04,1470.09 
  "/>
<path clip-path="url(#clip800)" d="M202.635 1530.29 L232.31 1530.29 L232.31 1534.23 L202.635 1534.23 L202.635 1530.29 Z" fill="#000000" fill-rule="evenodd" fill-opacity="1" /><path clip-path="url(#clip800)" d="M255.25 1516.63 L243.445 1535.08 L255.25 1535.08 L255.25 1516.63 M254.023 1512.56 L259.903 1512.56 L259.903 1535.08 L264.833 1535.08 L264.833 1538.97 L259.903 1538.97 L259.903 1547.12 L255.25 1547.12 L255.25 1538.97 L239.648 1538.97 L239.648 1534.46 L254.023 1512.56 Z" fill="#000000" fill-rule="evenodd" fill-opacity="1" /><path clip-path="url(#clip800)" d="M718.002 1530.29 L747.678 1530.29 L747.678 1534.23 L718.002 1534.23 L718.002 1530.29 Z" fill="#000000" fill-rule="evenodd" fill-opacity="1" /><path clip-path="url(#clip800)" d="M761.798 1543.18 L778.117 1543.18 L778.117 1547.12 L756.173 1547.12 L756.173 1543.18 Q758.835 1540.43 763.418 1535.8 Q768.025 1531.15 769.205 1529.81 Q771.451 1527.28 772.33 1525.55 Q773.233 1523.79 773.233 1522.1 Q773.233 1519.34 771.289 1517.61 Q769.367 1515.87 766.266 1515.87 Q764.066 1515.87 761.613 1516.63 Q759.182 1517.4 756.404 1518.95 L756.404 1514.23 Q759.229 1513.09 761.682 1512.51 Q764.136 1511.93 766.173 1511.93 Q771.543 1511.93 774.738 1514.62 Q777.932 1517.31 777.932 1521.8 Q777.932 1523.93 777.122 1525.85 Q776.335 1527.74 774.228 1530.34 Q773.65 1531.01 770.548 1534.23 Q767.446 1537.42 761.798 1543.18 Z" fill="#000000" fill-rule="evenodd" fill-opacity="1" /><path clip-path="url(#clip800)" d="M1262.39 1515.64 Q1258.77 1515.64 1256.95 1519.2 Q1255.14 1522.75 1255.14 1529.87 Q1255.14 1536.98 1256.95 1540.55 Q1258.77 1544.09 1262.39 1544.09 Q1266.02 1544.09 1267.83 1540.55 Q1269.65 1536.98 1269.65 1529.87 Q1269.65 1522.75 1267.83 1519.2 Q1266.02 1515.64 1262.39 1515.64 M1262.39 1511.93 Q1268.2 1511.93 1271.25 1516.54 Q1274.33 1521.12 1274.33 1529.87 Q1274.33 1538.6 1271.25 1543.21 Q1268.2 1547.79 1262.39 1547.79 Q1256.58 1547.79 1253.5 1543.21 Q1250.44 1538.6 1250.44 1529.87 Q1250.44 1521.12 1253.5 1516.54 Q1256.58 1511.93 1262.39 1511.93 Z" fill="#000000" fill-rule="evenodd" fill-opacity="1" /><path clip-path="url(#clip800)" d="M1771.36 1543.18 L1787.68 1543.18 L1787.68 1547.12 L1765.74 1547.12 L1765.74 1543.18 Q1768.4 1540.43 1772.98 1535.8 Q1777.59 1531.15 1778.77 1529.81 Q1781.02 1527.28 1781.9 1525.55 Q1782.8 1523.79 1782.8 1522.1 Q1782.8 1519.34 1780.85 1517.61 Q1778.93 1515.87 1775.83 1515.87 Q1773.63 1515.87 1771.18 1516.63 Q1768.75 1517.4 1765.97 1518.95 L1765.97 1514.23 Q1768.79 1513.09 1771.25 1512.51 Q1773.7 1511.93 1775.74 1511.93 Q1781.11 1511.93 1784.3 1514.62 Q1787.5 1517.31 1787.5 1521.8 Q1787.5 1523.93 1786.69 1525.85 Q1785.9 1527.74 1783.79 1530.34 Q1783.22 1531.01 1780.11 1534.23 Q1777.01 1537.42 1771.36 1543.18 Z" fill="#000000" fill-rule="evenodd" fill-opacity="1" /><path clip-path="url(#clip800)" d="M2294.05 1516.63 L2282.24 1535.08 L2294.05 1535.08 L2294.05 1516.63 M2292.82 1512.56 L2298.7 1512.56 L2298.7 1535.08 L2303.63 1535.08 L2303.63 1538.97 L2298.7 1538.97 L2298.7 1547.12 L2294.05 1547.12 L2294.05 1538.97 L2278.44 1538.97 L2278.44 1534.46 L2292.82 1512.56 Z" fill="#000000" fill-rule="evenodd" fill-opacity="1" /><polyline clip-path="url(#clip802)" style="stroke:#000000; stroke-linecap:butt; stroke-linejoin:round; stroke-width:2; stroke-opacity:0.1; fill:none" points="
  172.015,1447.87 2352.76,1447.87 
  "/>
<polyline clip-path="url(#clip802)" style="stroke:#000000; stroke-linecap:butt; stroke-linejoin:round; stroke-width:2; stroke-opacity:0.1; fill:none" points="
  172.015,1177.17 2352.76,1177.17 
  "/>
<polyline clip-path="url(#clip802)" style="stroke:#000000; stroke-linecap:butt; stroke-linejoin:round; stroke-width:2; stroke-opacity:0.1; fill:none" points="
  172.015,906.473 2352.76,906.473 
  "/>
<polyline clip-path="url(#clip802)" style="stroke:#000000; stroke-linecap:butt; stroke-linejoin:round; stroke-width:2; stroke-opacity:0.1; fill:none" points="
  172.015,635.772 2352.76,635.772 
  "/>
<polyline clip-path="url(#clip802)" style="stroke:#000000; stroke-linecap:butt; stroke-linejoin:round; stroke-width:2; stroke-opacity:0.1; fill:none" points="
  172.015,365.072 2352.76,365.072 
  "/>
<polyline clip-path="url(#clip800)" style="stroke:#000000; stroke-linecap:butt; stroke-linejoin:round; stroke-width:4; stroke-opacity:1; fill:none" points="
  172.015,1486.45 172.015,123.472 
  "/>
<polyline clip-path="url(#clip800)" style="stroke:#000000; stroke-linecap:butt; stroke-linejoin:round; stroke-width:4; stroke-opacity:1; fill:none" points="
  172.015,1447.87 198.184,1447.87 
  "/>
<polyline clip-path="url(#clip800)" style="stroke:#000000; stroke-linecap:butt; stroke-linejoin:round; stroke-width:4; stroke-opacity:1; fill:none" points="
  172.015,1177.17 198.184,1177.17 
  "/>
<polyline clip-path="url(#clip800)" style="stroke:#000000; stroke-linecap:butt; stroke-linejoin:round; stroke-width:4; stroke-opacity:1; fill:none" points="
  172.015,906.473 198.184,906.473 
  "/>
<polyline clip-path="url(#clip800)" style="stroke:#000000; stroke-linecap:butt; stroke-linejoin:round; stroke-width:4; stroke-opacity:1; fill:none" points="
  172.015,635.772 198.184,635.772 
  "/>
<polyline clip-path="url(#clip800)" style="stroke:#000000; stroke-linecap:butt; stroke-linejoin:round; stroke-width:4; stroke-opacity:1; fill:none" points="
  172.015,365.072 198.184,365.072 
  "/>
<path clip-path="url(#clip800)" d="M124.07 1433.67 Q120.459 1433.67 118.631 1437.24 Q116.825 1440.78 116.825 1447.91 Q116.825 1455.01 118.631 1458.58 Q120.459 1462.12 124.07 1462.12 Q127.705 1462.12 129.51 1458.58 Q131.339 1455.01 131.339 1447.91 Q131.339 1440.78 129.51 1437.24 Q127.705 1433.67 124.07 1433.67 M124.07 1429.97 Q129.881 1429.97 132.936 1434.57 Q136.015 1439.16 136.015 1447.91 Q136.015 1456.63 132.936 1461.24 Q129.881 1465.82 124.07 1465.82 Q118.26 1465.82 115.182 1461.24 Q112.126 1456.63 112.126 1447.91 Q112.126 1439.16 115.182 1434.57 Q118.26 1429.97 124.07 1429.97 Z" fill="#000000" fill-rule="evenodd" fill-opacity="1" /><path clip-path="url(#clip800)" d="M57.7745 1190.52 L74.0939 1190.52 L74.0939 1194.45 L52.1495 1194.45 L52.1495 1190.52 Q54.8115 1187.76 59.3949 1183.13 Q64.0013 1178.48 65.1819 1177.14 Q67.4272 1174.61 68.3068 1172.88 Q69.2096 1171.12 69.2096 1169.43 Q69.2096 1166.68 67.2652 1164.94 Q65.3439 1163.2 62.2421 1163.2 Q60.043 1163.2 57.5893 1163.97 Q55.1588 1164.73 52.381 1166.28 L52.381 1161.56 Q55.2051 1160.43 57.6588 1159.85 Q60.1124 1159.27 62.1495 1159.27 Q67.5198 1159.27 70.7142 1161.95 Q73.9087 1164.64 73.9087 1169.13 Q73.9087 1171.26 73.0985 1173.18 Q72.3115 1175.08 70.205 1177.67 Q69.6263 1178.34 66.5245 1181.56 Q63.4226 1184.75 57.7745 1190.52 Z" fill="#000000" fill-rule="evenodd" fill-opacity="1" /><path clip-path="url(#clip800)" d="M93.9086 1162.97 Q90.2975 1162.97 88.4688 1166.54 Q86.6632 1170.08 86.6632 1177.21 Q86.6632 1184.31 88.4688 1187.88 Q90.2975 1191.42 93.9086 1191.42 Q97.5428 1191.42 99.3483 1187.88 Q101.177 1184.31 101.177 1177.21 Q101.177 1170.08 99.3483 1166.54 Q97.5428 1162.97 93.9086 1162.97 M93.9086 1159.27 Q99.7187 1159.27 102.774 1163.87 Q105.853 1168.46 105.853 1177.21 Q105.853 1185.93 102.774 1190.54 Q99.7187 1195.12 93.9086 1195.12 Q88.0984 1195.12 85.0197 1190.54 Q81.9642 1185.93 81.9642 1177.21 Q81.9642 1168.46 85.0197 1163.87 Q88.0984 1159.27 93.9086 1159.27 Z" fill="#000000" fill-rule="evenodd" fill-opacity="1" /><path clip-path="url(#clip800)" d="M124.07 1162.97 Q120.459 1162.97 118.631 1166.54 Q116.825 1170.08 116.825 1177.21 Q116.825 1184.31 118.631 1187.88 Q120.459 1191.42 124.07 1191.42 Q127.705 1191.42 129.51 1187.88 Q131.339 1184.31 131.339 1177.21 Q131.339 1170.08 129.51 1166.54 Q127.705 1162.97 124.07 1162.97 M124.07 1159.27 Q129.881 1159.27 132.936 1163.87 Q136.015 1168.46 136.015 1177.21 Q136.015 1185.93 132.936 1190.54 Q129.881 1195.12 124.07 1195.12 Q118.26 1195.12 115.182 1190.54 Q112.126 1185.93 112.126 1177.21 Q112.126 1168.46 115.182 1163.87 Q118.26 1159.27 124.07 1159.27 Z" fill="#000000" fill-rule="evenodd" fill-opacity="1" /><path clip-path="url(#clip800)" d="M66.5939 893.267 L54.7884 911.716 L66.5939 911.716 L66.5939 893.267 M65.367 889.193 L71.2466 889.193 L71.2466 911.716 L76.1772 911.716 L76.1772 915.604 L71.2466 915.604 L71.2466 923.753 L66.5939 923.753 L66.5939 915.604 L50.9921 915.604 L50.9921 911.091 L65.367 889.193 Z" fill="#000000" fill-rule="evenodd" fill-opacity="1" /><path clip-path="url(#clip800)" d="M93.9086 892.271 Q90.2975 892.271 88.4688 895.836 Q86.6632 899.378 86.6632 906.507 Q86.6632 913.614 88.4688 917.179 Q90.2975 920.72 93.9086 920.72 Q97.5428 920.72 99.3483 917.179 Q101.177 913.614 101.177 906.507 Q101.177 899.378 99.3483 895.836 Q97.5428 892.271 93.9086 892.271 M93.9086 888.568 Q99.7187 888.568 102.774 893.174 Q105.853 897.757 105.853 906.507 Q105.853 915.234 102.774 919.841 Q99.7187 924.424 93.9086 924.424 Q88.0984 924.424 85.0197 919.841 Q81.9642 915.234 81.9642 906.507 Q81.9642 897.757 85.0197 893.174 Q88.0984 888.568 93.9086 888.568 Z" fill="#000000" fill-rule="evenodd" fill-opacity="1" /><path clip-path="url(#clip800)" d="M124.07 892.271 Q120.459 892.271 118.631 895.836 Q116.825 899.378 116.825 906.507 Q116.825 913.614 118.631 917.179 Q120.459 920.72 124.07 920.72 Q127.705 920.72 129.51 917.179 Q131.339 913.614 131.339 906.507 Q131.339 899.378 129.51 895.836 Q127.705 892.271 124.07 892.271 M124.07 888.568 Q129.881 888.568 132.936 893.174 Q136.015 897.757 136.015 906.507 Q136.015 915.234 132.936 919.841 Q129.881 924.424 124.07 924.424 Q118.26 924.424 115.182 919.841 Q112.126 915.234 112.126 906.507 Q112.126 897.757 115.182 893.174 Q118.26 888.568 124.07 888.568 Z" fill="#000000" fill-rule="evenodd" fill-opacity="1" /><path clip-path="url(#clip800)" d="M64.3254 633.909 Q61.1773 633.909 59.3254 636.062 Q57.4967 638.214 57.4967 641.964 Q57.4967 645.691 59.3254 647.867 Q61.1773 650.02 64.3254 650.02 Q67.4735 650.02 69.3022 647.867 Q71.1541 645.691 71.1541 641.964 Q71.1541 638.214 69.3022 636.062 Q67.4735 633.909 64.3254 633.909 M73.6077 619.256 L73.6077 623.515 Q71.8485 622.682 70.0429 622.242 Q68.2606 621.803 66.5013 621.803 Q61.8717 621.803 59.418 624.927 Q56.9875 628.052 56.6402 634.372 Q58.006 632.358 60.0662 631.293 Q62.1263 630.205 64.6032 630.205 Q69.8115 630.205 72.8207 633.377 Q75.8531 636.525 75.8531 641.964 Q75.8531 647.288 72.705 650.506 Q69.5568 653.724 64.3254 653.724 Q58.33 653.724 55.1588 649.14 Q51.9875 644.534 51.9875 635.807 Q51.9875 627.613 55.8764 622.752 Q59.7652 617.867 66.3161 617.867 Q68.0754 617.867 69.8578 618.215 Q71.6633 618.562 73.6077 619.256 Z" fill="#000000" fill-rule="evenodd" fill-opacity="1" /><path clip-path="url(#clip800)" d="M93.9086 621.571 Q90.2975 621.571 88.4688 625.136 Q86.6632 628.677 86.6632 635.807 Q86.6632 642.914 88.4688 646.478 Q90.2975 650.02 93.9086 650.02 Q97.5428 650.02 99.3483 646.478 Q101.177 642.914 101.177 635.807 Q101.177 628.677 99.3483 625.136 Q97.5428 621.571 93.9086 621.571 M93.9086 617.867 Q99.7187 617.867 102.774 622.474 Q105.853 627.057 105.853 635.807 Q105.853 644.534 102.774 649.14 Q99.7187 653.724 93.9086 653.724 Q88.0984 653.724 85.0197 649.14 Q81.9642 644.534 81.9642 635.807 Q81.9642 627.057 85.0197 622.474 Q88.0984 617.867 93.9086 617.867 Z" fill="#000000" fill-rule="evenodd" fill-opacity="1" /><path clip-path="url(#clip800)" d="M124.07 621.571 Q120.459 621.571 118.631 625.136 Q116.825 628.677 116.825 635.807 Q116.825 642.914 118.631 646.478 Q120.459 650.02 124.07 650.02 Q127.705 650.02 129.51 646.478 Q131.339 642.914 131.339 635.807 Q131.339 628.677 129.51 625.136 Q127.705 621.571 124.07 621.571 M124.07 617.867 Q129.881 617.867 132.936 622.474 Q136.015 627.057 136.015 635.807 Q136.015 644.534 132.936 649.14 Q129.881 653.724 124.07 653.724 Q118.26 653.724 115.182 649.14 Q112.126 644.534 112.126 635.807 Q112.126 627.057 115.182 622.474 Q118.26 617.867 124.07 617.867 Z" fill="#000000" fill-rule="evenodd" fill-opacity="1" /><path clip-path="url(#clip800)" d="M63.7467 365.94 Q60.4134 365.94 58.4921 367.723 Q56.5939 369.505 56.5939 372.63 Q56.5939 375.755 58.4921 377.537 Q60.4134 379.32 63.7467 379.32 Q67.08 379.32 69.0013 377.537 Q70.9226 375.732 70.9226 372.63 Q70.9226 369.505 69.0013 367.723 Q67.1032 365.94 63.7467 365.94 M59.0708 363.949 Q56.0615 363.209 54.3717 361.149 Q52.7051 359.088 52.7051 356.125 Q52.7051 351.982 55.6449 349.574 Q58.6078 347.167 63.7467 347.167 Q68.9087 347.167 71.8485 349.574 Q74.7883 351.982 74.7883 356.125 Q74.7883 359.088 73.0985 361.149 Q71.4318 363.209 68.4457 363.949 Q71.8253 364.736 73.7003 367.028 Q75.5985 369.32 75.5985 372.63 Q75.5985 377.653 72.5198 380.338 Q69.4642 383.023 63.7467 383.023 Q58.0291 383.023 54.9504 380.338 Q51.8949 377.653 51.8949 372.63 Q51.8949 369.32 53.793 367.028 Q55.6912 364.736 59.0708 363.949 M57.3578 356.565 Q57.3578 359.25 59.0245 360.755 Q60.7143 362.26 63.7467 362.26 Q66.7559 362.26 68.4457 360.755 Q70.1587 359.25 70.1587 356.565 Q70.1587 353.88 68.4457 352.375 Q66.7559 350.871 63.7467 350.871 Q60.7143 350.871 59.0245 352.375 Q57.3578 353.88 57.3578 356.565 Z" fill="#000000" fill-rule="evenodd" fill-opacity="1" /><path clip-path="url(#clip800)" d="M93.9086 350.871 Q90.2975 350.871 88.4688 354.436 Q86.6632 357.977 86.6632 365.107 Q86.6632 372.213 88.4688 375.778 Q90.2975 379.32 93.9086 379.32 Q97.5428 379.32 99.3483 375.778 Q101.177 372.213 101.177 365.107 Q101.177 357.977 99.3483 354.436 Q97.5428 350.871 93.9086 350.871 M93.9086 347.167 Q99.7187 347.167 102.774 351.774 Q105.853 356.357 105.853 365.107 Q105.853 373.834 102.774 378.44 Q99.7187 383.023 93.9086 383.023 Q88.0984 383.023 85.0197 378.44 Q81.9642 373.834 81.9642 365.107 Q81.9642 356.357 85.0197 351.774 Q88.0984 347.167 93.9086 347.167 Z" fill="#000000" fill-rule="evenodd" fill-opacity="1" /><path clip-path="url(#clip800)" d="M124.07 350.871 Q120.459 350.871 118.631 354.436 Q116.825 357.977 116.825 365.107 Q116.825 372.213 118.631 375.778 Q120.459 379.32 124.07 379.32 Q127.705 379.32 129.51 375.778 Q131.339 372.213 131.339 365.107 Q131.339 357.977 129.51 354.436 Q127.705 350.871 124.07 350.871 M124.07 347.167 Q129.881 347.167 132.936 351.774 Q136.015 356.357 136.015 365.107 Q136.015 373.834 132.936 378.44 Q129.881 383.023 124.07 383.023 Q118.26 383.023 115.182 378.44 Q112.126 373.834 112.126 365.107 Q112.126 356.357 115.182 351.774 Q118.26 347.167 124.07 347.167 Z" fill="#000000" fill-rule="evenodd" fill-opacity="1" /><path clip-path="url(#clip800)" d="M631.092 18.8205 L631.092 65.8515 L640.977 65.8515 Q653.494 65.8515 659.287 60.1802 Q665.12 54.509 665.12 42.2752 Q665.12 30.1225 659.287 24.4918 Q653.494 18.8205 640.977 18.8205 L631.092 18.8205 M622.91 12.096 L639.721 12.096 Q657.302 12.096 665.525 19.4281 Q673.748 26.7198 673.748 42.2752 Q673.748 57.9117 665.485 65.2439 Q657.221 72.576 639.721 72.576 L622.91 72.576 L622.91 12.096 Z" fill="#000000" fill-rule="evenodd" fill-opacity="1" /><path clip-path="url(#clip800)" d="M707.087 49.7694 Q698.054 49.7694 694.57 51.8354 Q691.086 53.9013 691.086 58.8839 Q691.086 62.8538 693.679 65.2034 Q696.312 67.5124 700.809 67.5124 Q707.006 67.5124 710.733 63.1374 Q714.501 58.7219 714.501 51.4303 L714.501 49.7694 L707.087 49.7694 M721.954 46.6907 L721.954 72.576 L714.501 72.576 L714.501 65.6895 Q711.948 69.8214 708.141 71.8063 Q704.333 73.7508 698.824 73.7508 Q691.856 73.7508 687.724 69.8619 Q683.633 65.9325 683.633 59.3701 Q683.633 51.7138 688.737 47.825 Q693.881 43.9361 704.049 43.9361 L714.501 43.9361 L714.501 43.2069 Q714.501 38.0623 711.098 35.2672 Q707.736 32.4315 701.619 32.4315 Q697.73 32.4315 694.044 33.3632 Q690.357 34.295 686.954 36.1584 L686.954 29.2718 Q691.046 27.692 694.894 26.9223 Q698.743 26.1121 702.388 26.1121 Q712.232 26.1121 717.093 31.2163 Q721.954 36.3204 721.954 46.6907 Z" fill="#000000" fill-rule="evenodd" fill-opacity="1" /><path clip-path="url(#clip800)" d="M744.68 14.324 L744.68 27.2059 L760.033 27.2059 L760.033 32.9987 L744.68 32.9987 L744.68 57.6282 Q744.68 63.1779 746.179 64.7578 Q747.718 66.3376 752.377 66.3376 L760.033 66.3376 L760.033 72.576 L752.377 72.576 Q743.748 72.576 740.467 69.3758 Q737.186 66.1351 737.186 57.6282 L737.186 32.9987 L731.717 32.9987 L731.717 27.2059 L737.186 27.2059 L737.186 14.324 L744.68 14.324 Z" fill="#000000" fill-rule="evenodd" fill-opacity="1" /><path clip-path="url(#clip800)" d="M790.455 49.7694 Q781.422 49.7694 777.938 51.8354 Q774.454 53.9013 774.454 58.8839 Q774.454 62.8538 777.047 65.2034 Q779.68 67.5124 784.176 67.5124 Q790.374 67.5124 794.101 63.1374 Q797.868 58.7219 797.868 51.4303 L797.868 49.7694 L790.455 49.7694 M805.322 46.6907 L805.322 72.576 L797.868 72.576 L797.868 65.6895 Q795.316 69.8214 791.508 71.8063 Q787.7 73.7508 782.191 73.7508 Q775.224 73.7508 771.092 69.8619 Q767 65.9325 767 59.3701 Q767 51.7138 772.104 47.825 Q777.249 43.9361 787.417 43.9361 L797.868 43.9361 L797.868 43.2069 Q797.868 38.0623 794.465 35.2672 Q791.103 32.4315 784.986 32.4315 Q781.097 32.4315 777.411 33.3632 Q773.725 34.295 770.322 36.1584 L770.322 29.2718 Q774.413 27.692 778.262 26.9223 Q782.11 26.1121 785.756 26.1121 Q795.6 26.1121 800.461 31.2163 Q805.322 36.3204 805.322 46.6907 Z" fill="#000000" fill-rule="evenodd" fill-opacity="1" /><path clip-path="url(#clip800)" d="M867.665 49.7694 Q858.632 49.7694 855.148 51.8354 Q851.664 53.9013 851.664 58.8839 Q851.664 62.8538 854.257 65.2034 Q856.89 67.5124 861.386 67.5124 Q867.584 67.5124 871.311 63.1374 Q875.078 58.7219 875.078 51.4303 L875.078 49.7694 L867.665 49.7694 M882.532 46.6907 L882.532 72.576 L875.078 72.576 L875.078 65.6895 Q872.526 69.8214 868.718 71.8063 Q864.911 73.7508 859.401 73.7508 Q852.434 73.7508 848.302 69.8619 Q844.211 65.9325 844.211 59.3701 Q844.211 51.7138 849.315 47.825 Q854.459 43.9361 864.627 43.9361 L875.078 43.9361 L875.078 43.2069 Q875.078 38.0623 871.676 35.2672 Q868.313 32.4315 862.197 32.4315 Q858.308 32.4315 854.621 33.3632 Q850.935 34.295 847.532 36.1584 L847.532 29.2718 Q851.624 27.692 855.472 26.9223 Q859.32 26.1121 862.966 26.1121 Q872.81 26.1121 877.671 31.2163 Q882.532 36.3204 882.532 46.6907 Z" fill="#000000" fill-rule="evenodd" fill-opacity="1" /><path clip-path="url(#clip800)" d="M935.599 45.1919 L935.599 72.576 L928.145 72.576 L928.145 45.4349 Q928.145 38.994 925.634 35.7938 Q923.122 32.5936 918.099 32.5936 Q912.063 32.5936 908.579 36.4419 Q905.096 40.2903 905.096 46.9338 L905.096 72.576 L897.601 72.576 L897.601 27.2059 L905.096 27.2059 L905.096 34.2544 Q907.769 30.163 911.375 28.1376 Q915.02 26.1121 919.76 26.1121 Q927.578 26.1121 931.589 30.9732 Q935.599 35.7938 935.599 45.1919 Z" fill="#000000" fill-rule="evenodd" fill-opacity="1" /><path clip-path="url(#clip800)" d="M980.321 34.0924 L980.321 9.54393 L987.775 9.54393 L987.775 72.576 L980.321 72.576 L980.321 65.7705 Q977.971 69.8214 974.366 71.8063 Q970.801 73.7508 965.778 73.7508 Q957.555 73.7508 952.37 67.1883 Q947.225 60.6258 947.225 49.9314 Q947.225 39.2371 952.37 32.6746 Q957.555 26.1121 965.778 26.1121 Q970.801 26.1121 974.366 28.0971 Q977.971 30.0415 980.321 34.0924 M954.922 49.9314 Q954.922 58.1548 958.284 62.8538 Q961.687 67.5124 967.601 67.5124 Q973.515 67.5124 976.918 62.8538 Q980.321 58.1548 980.321 49.9314 Q980.321 41.7081 976.918 37.0496 Q973.515 32.3505 967.601 32.3505 Q961.687 32.3505 958.284 37.0496 Q954.922 41.7081 954.922 49.9314 Z" fill="#000000" fill-rule="evenodd" fill-opacity="1" /><path clip-path="url(#clip800)" d="M1021.44 12.096 L1072.6 12.096 L1072.6 18.9825 L1051.13 18.9825 L1051.13 72.576 L1042.91 72.576 L1042.91 18.9825 L1021.44 18.9825 L1021.44 12.096 Z" fill="#000000" fill-rule="evenodd" fill-opacity="1" /><path clip-path="url(#clip800)" d="M1094.27 34.1734 Q1093.02 33.4443 1091.52 33.1202 Q1090.06 32.7556 1088.28 32.7556 Q1081.96 32.7556 1078.56 36.8875 Q1075.19 40.9789 1075.19 48.6757 L1075.19 72.576 L1067.7 72.576 L1067.7 27.2059 L1075.19 27.2059 L1075.19 34.2544 Q1077.54 30.1225 1081.31 28.1376 Q1085.08 26.1121 1090.46 26.1121 Q1091.23 26.1121 1092.17 26.2337 Q1093.1 26.3147 1094.23 26.5172 L1094.27 34.1734 Z" fill="#000000" fill-rule="evenodd" fill-opacity="1" /><path clip-path="url(#clip800)" d="M1101.32 54.671 L1101.32 27.2059 L1108.78 27.2059 L1108.78 54.3874 Q1108.78 60.8284 1111.29 64.0691 Q1113.8 67.2693 1118.82 67.2693 Q1124.86 67.2693 1128.34 63.421 Q1131.87 59.5726 1131.87 52.9291 L1131.87 27.2059 L1139.32 27.2059 L1139.32 72.576 L1131.87 72.576 L1131.87 65.6084 Q1129.15 69.7404 1125.55 71.7658 Q1121.98 73.7508 1117.24 73.7508 Q1109.42 73.7508 1105.37 68.8897 Q1101.32 64.0286 1101.32 54.671 M1120.08 26.1121 L1120.08 26.1121 Z" fill="#000000" fill-rule="evenodd" fill-opacity="1" /><path clip-path="url(#clip800)" d="M1193.48 48.0275 L1193.48 51.6733 L1159.21 51.6733 Q1159.69 59.3701 1163.83 63.421 Q1168 67.4314 1175.41 67.4314 Q1179.71 67.4314 1183.72 66.3781 Q1187.77 65.3249 1191.74 63.2184 L1191.74 70.267 Q1187.73 71.9684 1183.51 72.8596 Q1179.3 73.7508 1174.97 73.7508 Q1164.11 73.7508 1157.75 67.4314 Q1151.43 61.1119 1151.43 50.3365 Q1151.43 39.1965 1157.43 32.6746 Q1163.46 26.1121 1173.67 26.1121 Q1182.83 26.1121 1188.13 32.0264 Q1193.48 37.9003 1193.48 48.0275 M1186.03 45.84 Q1185.94 39.7232 1182.58 36.0774 Q1179.26 32.4315 1173.75 32.4315 Q1167.51 32.4315 1163.75 35.9558 Q1160.02 39.4801 1159.45 45.8805 L1186.03 45.84 Z" fill="#000000" fill-rule="evenodd" fill-opacity="1" /><path clip-path="url(#clip800)" d="M1268.66 14.0809 L1268.66 22.0612 Q1264.01 19.8332 1259.87 18.7395 Q1255.74 17.6457 1251.89 17.6457 Q1245.21 17.6457 1241.56 20.2383 Q1237.96 22.8309 1237.96 27.611 Q1237.96 31.6214 1240.35 33.6873 Q1242.78 35.7128 1249.5 36.9686 L1254.45 37.9813 Q1263.6 39.7232 1267.94 44.1387 Q1272.31 48.5136 1272.31 55.8863 Q1272.31 64.6767 1266.4 69.2137 Q1260.52 73.7508 1249.14 73.7508 Q1244.84 73.7508 1239.98 72.7785 Q1235.16 71.8063 1229.98 69.9024 L1229.98 61.4765 Q1234.96 64.2716 1239.74 65.6895 Q1244.52 67.1073 1249.14 67.1073 Q1256.15 67.1073 1259.95 64.3527 Q1263.76 61.598 1263.76 56.4939 Q1263.76 52.0379 1261.01 49.5264 Q1258.29 47.0148 1252.06 45.759 L1247.07 44.7868 Q1237.92 42.9639 1233.83 39.075 Q1229.74 35.1862 1229.74 28.2591 Q1229.74 20.2383 1235.37 15.6203 Q1241.04 11.0023 1250.96 11.0023 Q1255.22 11.0023 1259.63 11.7719 Q1264.05 12.5416 1268.66 14.0809 Z" fill="#000000" fill-rule="evenodd" fill-opacity="1" /><path clip-path="url(#clip800)" d="M1292.12 14.324 L1292.12 27.2059 L1307.47 27.2059 L1307.47 32.9987 L1292.12 32.9987 L1292.12 57.6282 Q1292.12 63.1779 1293.62 64.7578 Q1295.16 66.3376 1299.82 66.3376 L1307.47 66.3376 L1307.47 72.576 L1299.82 72.576 Q1291.19 72.576 1287.91 69.3758 Q1284.62 66.1351 1284.62 57.6282 L1284.62 32.9987 L1279.16 32.9987 L1279.16 27.2059 L1284.62 27.2059 L1284.62 14.324 L1292.12 14.324 Z" fill="#000000" fill-rule="evenodd" fill-opacity="1" /><path clip-path="url(#clip800)" d="M1337.89 49.7694 Q1328.86 49.7694 1325.38 51.8354 Q1321.89 53.9013 1321.89 58.8839 Q1321.89 62.8538 1324.49 65.2034 Q1327.12 67.5124 1331.62 67.5124 Q1337.81 67.5124 1341.54 63.1374 Q1345.31 58.7219 1345.31 51.4303 L1345.31 49.7694 L1337.89 49.7694 M1352.76 46.6907 L1352.76 72.576 L1345.31 72.576 L1345.31 65.6895 Q1342.76 69.8214 1338.95 71.8063 Q1335.14 73.7508 1329.63 73.7508 Q1322.66 73.7508 1318.53 69.8619 Q1314.44 65.9325 1314.44 59.3701 Q1314.44 51.7138 1319.54 47.825 Q1324.69 43.9361 1334.86 43.9361 L1345.31 43.9361 L1345.31 43.2069 Q1345.31 38.0623 1341.9 35.2672 Q1338.54 32.4315 1332.43 32.4315 Q1328.54 32.4315 1324.85 33.3632 Q1321.16 34.295 1317.76 36.1584 L1317.76 29.2718 Q1321.85 27.692 1325.7 26.9223 Q1329.55 26.1121 1333.2 26.1121 Q1343.04 26.1121 1347.9 31.2163 Q1352.76 36.3204 1352.76 46.6907 Z" fill="#000000" fill-rule="evenodd" fill-opacity="1" /><path clip-path="url(#clip800)" d="M1375.49 14.324 L1375.49 27.2059 L1390.84 27.2059 L1390.84 32.9987 L1375.49 32.9987 L1375.49 57.6282 Q1375.49 63.1779 1376.99 64.7578 Q1378.52 66.3376 1383.18 66.3376 L1390.84 66.3376 L1390.84 72.576 L1383.18 72.576 Q1374.55 72.576 1371.27 69.3758 Q1367.99 66.1351 1367.99 57.6282 L1367.99 32.9987 L1362.52 32.9987 L1362.52 27.2059 L1367.99 27.2059 L1367.99 14.324 L1375.49 14.324 Z" fill="#000000" fill-rule="evenodd" fill-opacity="1" /><path clip-path="url(#clip800)" d="M1400.64 27.2059 L1408.1 27.2059 L1408.1 72.576 L1400.64 72.576 L1400.64 27.2059 M1400.64 9.54393 L1408.1 9.54393 L1408.1 18.9825 L1400.64 18.9825 L1400.64 9.54393 Z" fill="#000000" fill-rule="evenodd" fill-opacity="1" /><path clip-path="url(#clip800)" d="M1452.62 28.5427 L1452.62 35.5912 Q1449.46 33.9709 1446.05 33.1607 Q1442.65 32.3505 1439 32.3505 Q1433.46 32.3505 1430.66 34.0519 Q1427.91 35.7533 1427.91 39.156 Q1427.91 41.7486 1429.89 43.2475 Q1431.88 44.7058 1437.87 46.0426 L1440.42 46.6097 Q1448.36 48.3111 1451.68 51.4303 Q1455.05 54.509 1455.05 60.0587 Q1455.05 66.3781 1450.02 70.0644 Q1445.04 73.7508 1436.29 73.7508 Q1432.64 73.7508 1428.67 73.0216 Q1424.75 72.3329 1420.37 70.9151 L1420.37 63.2184 Q1424.5 65.3654 1428.51 66.4591 Q1432.52 67.5124 1436.45 67.5124 Q1441.72 67.5124 1444.55 65.73 Q1447.39 63.9071 1447.39 60.6258 Q1447.39 57.5877 1445.32 55.9673 Q1443.3 54.3469 1436.37 52.8481 L1433.78 52.2405 Q1426.85 50.7821 1423.77 47.7845 Q1420.69 44.7463 1420.69 39.4801 Q1420.69 33.0797 1425.23 29.5959 Q1429.77 26.1121 1438.11 26.1121 Q1442.25 26.1121 1445.89 26.7198 Q1449.54 27.3274 1452.62 28.5427 Z" fill="#000000" fill-rule="evenodd" fill-opacity="1" /><path clip-path="url(#clip800)" d="M1474.29 14.324 L1474.29 27.2059 L1489.64 27.2059 L1489.64 32.9987 L1474.29 32.9987 L1474.29 57.6282 Q1474.29 63.1779 1475.79 64.7578 Q1477.33 66.3376 1481.98 66.3376 L1489.64 66.3376 L1489.64 72.576 L1481.98 72.576 Q1473.36 72.576 1470.08 69.3758 Q1466.79 66.1351 1466.79 57.6282 L1466.79 32.9987 L1461.33 32.9987 L1461.33 27.2059 L1466.79 27.2059 L1466.79 14.324 L1474.29 14.324 Z" fill="#000000" fill-rule="evenodd" fill-opacity="1" /><path clip-path="url(#clip800)" d="M1499.44 27.2059 L1506.9 27.2059 L1506.9 72.576 L1499.44 72.576 L1499.44 27.2059 M1499.44 9.54393 L1506.9 9.54393 L1506.9 18.9825 L1499.44 18.9825 L1499.44 9.54393 Z" fill="#000000" fill-rule="evenodd" fill-opacity="1" /><path clip-path="url(#clip800)" d="M1555.14 28.9478 L1555.14 35.9153 Q1551.98 34.1734 1548.78 33.3227 Q1545.62 32.4315 1542.38 32.4315 Q1535.13 32.4315 1531.12 37.0496 Q1527.11 41.6271 1527.11 49.9314 Q1527.11 58.2358 1531.12 62.8538 Q1535.13 67.4314 1542.38 67.4314 Q1545.62 67.4314 1548.78 66.5807 Q1551.98 65.6895 1555.14 63.9476 L1555.14 70.8341 Q1552.03 72.2924 1548.66 73.0216 Q1545.34 73.7508 1541.57 73.7508 Q1531.32 73.7508 1525.29 67.3098 Q1519.25 60.8689 1519.25 49.9314 Q1519.25 38.832 1525.33 32.472 Q1531.45 26.1121 1542.06 26.1121 Q1545.5 26.1121 1548.78 26.8413 Q1552.07 27.5299 1555.14 28.9478 Z" fill="#000000" fill-rule="evenodd" fill-opacity="1" /><path clip-path="url(#clip800)" d="M1588.73 49.7694 Q1579.69 49.7694 1576.21 51.8354 Q1572.73 53.9013 1572.73 58.8839 Q1572.73 62.8538 1575.32 65.2034 Q1577.95 67.5124 1582.45 67.5124 Q1588.65 67.5124 1592.37 63.1374 Q1596.14 58.7219 1596.14 51.4303 L1596.14 49.7694 L1588.73 49.7694 M1603.59 46.6907 L1603.59 72.576 L1596.14 72.576 L1596.14 65.6895 Q1593.59 69.8214 1589.78 71.8063 Q1585.97 73.7508 1580.46 73.7508 Q1573.49 73.7508 1569.36 69.8619 Q1565.27 65.9325 1565.27 59.3701 Q1565.27 51.7138 1570.38 47.825 Q1575.52 43.9361 1585.69 43.9361 L1596.14 43.9361 L1596.14 43.2069 Q1596.14 38.0623 1592.74 35.2672 Q1589.37 32.4315 1583.26 32.4315 Q1579.37 32.4315 1575.68 33.3632 Q1572 34.295 1568.59 36.1584 L1568.59 29.2718 Q1572.68 27.692 1576.53 26.9223 Q1580.38 26.1121 1584.03 26.1121 Q1593.87 26.1121 1598.73 31.2163 Q1603.59 36.3204 1603.59 46.6907 Z" fill="#000000" fill-rule="evenodd" fill-opacity="1" /><path clip-path="url(#clip800)" d="M1618.95 9.54393 L1626.4 9.54393 L1626.4 72.576 L1618.95 72.576 L1618.95 9.54393 Z" fill="#000000" fill-rule="evenodd" fill-opacity="1" /><path clip-path="url(#clip800)" d="M1668.69 12.096 L1680.88 12.096 L1696.32 53.2532 L1711.83 12.096 L1724.03 12.096 L1724.03 72.576 L1716.05 72.576 L1716.05 19.4686 L1700.45 60.9499 L1692.23 60.9499 L1676.63 19.4686 L1676.63 72.576 L1668.69 72.576 L1668.69 12.096 Z" fill="#000000" fill-rule="evenodd" fill-opacity="1" /><path clip-path="url(#clip800)" d="M1757.53 32.4315 Q1751.53 32.4315 1748.05 37.1306 Q1744.56 41.7891 1744.56 49.9314 Q1744.56 58.0738 1748.01 62.7728 Q1751.49 67.4314 1757.53 67.4314 Q1763.48 67.4314 1766.97 62.7323 Q1770.45 58.0333 1770.45 49.9314 Q1770.45 41.8701 1766.97 37.1711 Q1763.48 32.4315 1757.53 32.4315 M1757.53 26.1121 Q1767.25 26.1121 1772.8 32.4315 Q1778.35 38.7509 1778.35 49.9314 Q1778.35 61.0714 1772.8 67.4314 Q1767.25 73.7508 1757.53 73.7508 Q1747.76 73.7508 1742.21 67.4314 Q1736.71 61.0714 1736.71 49.9314 Q1736.71 38.7509 1742.21 32.4315 Q1747.76 26.1121 1757.53 26.1121 Z" fill="#000000" fill-rule="evenodd" fill-opacity="1" /><path clip-path="url(#clip800)" d="M1820.56 34.0924 L1820.56 9.54393 L1828.01 9.54393 L1828.01 72.576 L1820.56 72.576 L1820.56 65.7705 Q1818.21 69.8214 1814.6 71.8063 Q1811.04 73.7508 1806.02 73.7508 Q1797.79 73.7508 1792.61 67.1883 Q1787.46 60.6258 1787.46 49.9314 Q1787.46 39.2371 1792.61 32.6746 Q1797.79 26.1121 1806.02 26.1121 Q1811.04 26.1121 1814.6 28.0971 Q1818.21 30.0415 1820.56 34.0924 M1795.16 49.9314 Q1795.16 58.1548 1798.52 62.8538 Q1801.93 67.5124 1807.84 67.5124 Q1813.75 67.5124 1817.16 62.8538 Q1820.56 58.1548 1820.56 49.9314 Q1820.56 41.7081 1817.16 37.0496 Q1813.75 32.3505 1807.84 32.3505 Q1801.93 32.3505 1798.52 37.0496 Q1795.16 41.7081 1795.16 49.9314 Z" fill="#000000" fill-rule="evenodd" fill-opacity="1" /><path clip-path="url(#clip800)" d="M1882.17 48.0275 L1882.17 51.6733 L1847.9 51.6733 Q1848.39 59.3701 1852.52 63.421 Q1856.69 67.4314 1864.11 67.4314 Q1868.4 67.4314 1872.41 66.3781 Q1876.46 65.3249 1880.43 63.2184 L1880.43 70.267 Q1876.42 71.9684 1872.21 72.8596 Q1868 73.7508 1863.66 73.7508 Q1852.8 73.7508 1846.44 67.4314 Q1840.13 61.1119 1840.13 50.3365 Q1840.13 39.1965 1846.12 32.6746 Q1852.16 26.1121 1862.36 26.1121 Q1871.52 26.1121 1876.83 32.0264 Q1882.17 37.9003 1882.17 48.0275 M1874.72 45.84 Q1874.64 39.7232 1871.28 36.0774 Q1867.96 32.4315 1862.45 32.4315 Q1856.21 32.4315 1852.44 35.9558 Q1848.71 39.4801 1848.15 45.8805 L1874.72 45.84 Z" fill="#000000" fill-rule="evenodd" fill-opacity="1" /><path clip-path="url(#clip800)" d="M1894.41 9.54393 L1901.86 9.54393 L1901.86 72.576 L1894.41 72.576 L1894.41 9.54393 Z" fill="#000000" fill-rule="evenodd" fill-opacity="1" /><polyline clip-path="url(#clip802)" style="stroke:#009af9; stroke-linecap:butt; stroke-linejoin:round; stroke-width:4; stroke-opacity:1; fill:none" points="
  748.06,1447.87 748.06,1434.34 773.776,1434.34 773.776,1393.73 799.492,1393.73 799.492,1163.64 825.208,1163.64 825.208,1190.71 850.925,1190.71 850.925,1150.1 
  876.641,1150.1 902.357,1150.1 902.357,947.078 928.074,947.078 928.074,1136.57 953.79,1136.57 953.79,987.683 979.506,987.683 979.506,933.543 
  1005.22,933.543 1005.22,865.868 1030.94,865.868 1030.94,838.798 1056.66,838.798 1056.66,960.613 1082.37,960.613 1082.37,974.148 1108.09,974.148 1108.09,1001.22 
  1133.8,1001.22 1133.8,1123.03 1159.52,1123.03 1159.52,1204.24 1185.24,1204.24 1185.24,1298.99 1210.95,1298.99 1210.95,1312.52 1236.67,1312.52 1236.67,1366.66 
  1262.39,1366.66 1288.1,1366.66 1288.1,1434.34 1313.82,1434.34 1339.53,1434.34 1365.25,1434.34 1365.25,1447.87 
  1390.97,1447.87 1390.97,1434.34 1416.68,1434.34 1416.68,1447.87 1442.4,1447.87 1442.4,1407.27 1468.12,1407.27 1468.12,1420.8 1493.83,1420.8 1493.83,1326.06 
  1519.55,1326.06 1519.55,1312.52 1545.26,1312.52 1545.26,1217.78 1570.98,1217.78 1570.98,1163.64 1596.7,1163.64 1596.7,906.473 1622.41,906.473 1622.41,838.798 
  1648.13,838.798 1648.13,757.587 1673.85,757.587 1673.85,676.377 1699.56,676.377 1699.56,581.632 1725.28,581.632 1725.28,243.257 1750.99,243.257 1750.99,162.047 
  1776.71,162.047 1776.71,256.792 1802.43,256.792 1802.43,541.027 1828.14,541.027 1828.14,243.257 1853.86,243.257 1853.86,784.657 1879.58,784.657 1879.58,838.798 
  1905.29,838.798 1905.29,811.728 1931.01,811.728 1931.01,1001.22 1956.73,1001.22 1956.73,1123.03 1982.44,1123.03 1982.44,1177.17 2008.16,1177.17 2008.16,1298.99 
  2033.87,1298.99 2033.87,1326.06 2059.59,1326.06 2085.31,1326.06 2085.31,1420.8 2111.02,1420.8 2136.74,1420.8 2136.74,1447.87 
  2162.46,1447.87 2162.46,1434.34 2188.17,1434.34 2188.17,1447.87 2213.89,1447.87 2239.6,1447.87 2265.32,1447.87 
  2291.04,1447.87 
  "/>
<polyline clip-path="url(#clip802)" style="stroke:#e26f46; stroke-linecap:butt; stroke-linejoin:round; stroke-width:4; stroke-opacity:1; fill:none" points="
  233.734,1447.87 236.306,1447.87 238.877,1447.87 241.449,1447.87 244.02,1447.87 246.592,1447.87 249.164,1447.87 251.735,1447.87 254.307,1447.87 256.879,1447.87 
  259.45,1447.87 262.022,1447.87 264.593,1447.87 267.165,1447.87 269.737,1447.87 272.308,1447.87 274.88,1447.87 277.452,1447.87 280.023,1447.87 282.595,1447.87 
  285.166,1447.87 287.738,1447.87 290.31,1447.87 292.881,1447.87 295.453,1447.87 298.025,1447.87 300.596,1447.87 303.168,1447.87 305.74,1447.87 308.311,1447.87 
  310.883,1447.87 313.454,1447.87 316.026,1447.87 318.598,1447.87 321.169,1447.87 323.741,1447.87 326.313,1447.87 328.884,1447.87 331.456,1447.87 334.027,1447.87 
  336.599,1447.87 339.171,1447.87 341.742,1447.87 344.314,1447.87 346.886,1447.87 349.457,1447.87 352.029,1447.87 354.6,1447.87 357.172,1447.87 359.744,1447.87 
  362.315,1447.87 364.887,1447.87 367.459,1447.87 370.03,1447.87 372.602,1447.87 375.173,1447.87 377.745,1447.87 380.317,1447.87 382.888,1447.87 385.46,1447.87 
  388.032,1447.87 390.603,1447.87 393.175,1447.87 395.747,1447.87 398.318,1447.87 400.89,1447.86 403.461,1447.86 406.033,1447.86 408.605,1447.86 411.176,1447.86 
  413.748,1447.86 416.32,1447.86 418.891,1447.86 421.463,1447.86 424.034,1447.85 426.606,1447.85 429.178,1447.85 431.749,1447.85 434.321,1447.84 436.893,1447.84 
  439.464,1447.84 442.036,1447.84 444.607,1447.83 447.179,1447.83 449.751,1447.83 452.322,1447.82 454.894,1447.82 457.466,1447.81 460.037,1447.81 462.609,1447.8 
  465.18,1447.79 467.752,1447.79 470.324,1447.78 472.895,1447.77 475.467,1447.76 478.039,1447.75 480.61,1447.74 483.182,1447.73 485.754,1447.72 488.325,1447.71 
  490.897,1447.69 493.468,1447.68 496.04,1447.66 498.612,1447.64 501.183,1447.62 503.755,1447.6 506.327,1447.58 508.898,1447.56 511.47,1447.53 514.041,1447.51 
  516.613,1447.48 519.185,1447.45 521.756,1447.41 524.328,1447.38 526.9,1447.34 529.471,1447.3 532.043,1447.25 534.614,1447.21 537.186,1447.16 539.758,1447.1 
  542.329,1447.04 544.901,1446.98 547.473,1446.92 550.044,1446.85 552.616,1446.77 555.187,1446.69 557.759,1446.61 560.331,1446.52 562.902,1446.42 565.474,1446.32 
  568.046,1446.21 570.617,1446.09 573.189,1445.96 575.761,1445.83 578.332,1445.69 580.904,1445.54 583.475,1445.38 586.047,1445.21 588.619,1445.04 591.19,1444.85 
  593.762,1444.65 596.334,1444.43 598.905,1444.21 601.477,1443.97 604.048,1443.72 606.62,1443.45 609.192,1443.17 611.763,1442.87 614.335,1442.56 616.907,1442.23 
  619.478,1441.87 622.05,1441.5 624.621,1441.12 627.193,1440.7 629.765,1440.27 632.336,1439.82 634.908,1439.34 637.48,1438.83 640.051,1438.3 642.623,1437.75 
  645.194,1437.16 647.766,1436.54 650.338,1435.9 652.909,1435.22 655.481,1434.51 658.053,1433.77 660.624,1432.99 663.196,1432.17 665.768,1431.32 668.339,1430.42 
  670.911,1429.49 673.482,1428.51 676.054,1427.49 678.626,1426.42 681.197,1425.31 683.769,1424.15 686.341,1422.94 688.912,1421.67 691.484,1420.36 694.055,1418.99 
  696.627,1417.56 699.199,1416.08 701.77,1414.53 704.342,1412.93 706.914,1411.26 709.485,1409.53 712.057,1407.74 714.628,1405.87 717.2,1403.94 719.772,1401.93 
  722.343,1399.86 724.915,1397.71 727.487,1395.48 730.058,1393.18 732.63,1390.8 735.201,1388.34 737.773,1385.8 740.345,1383.18 742.916,1380.47 745.488,1377.68 
  748.06,1374.8 750.631,1371.83 753.203,1368.77 755.775,1365.63 758.346,1362.39 760.918,1359.06 763.489,1355.64 766.061,1352.13 768.633,1348.52 771.204,1344.81 
  773.776,1341.01 776.348,1337.12 778.919,1333.13 781.491,1329.04 784.062,1324.86 786.634,1320.58 789.206,1316.2 791.777,1311.73 794.349,1307.16 796.921,1302.5 
  799.492,1297.74 802.064,1292.89 804.635,1287.95 807.207,1282.91 809.779,1277.79 812.35,1272.57 814.922,1267.27 817.494,1261.88 820.065,1256.41 822.637,1250.85 
  825.208,1245.22 827.78,1239.5 830.352,1233.72 832.923,1227.85 835.495,1221.92 838.067,1215.93 840.638,1209.86 843.21,1203.74 845.782,1197.56 848.353,1191.33 
  850.925,1185.04 853.496,1178.71 856.068,1172.34 858.64,1165.93 861.211,1159.48 863.783,1153.01 866.355,1146.51 868.926,1139.99 871.498,1133.46 874.069,1126.91 
  876.641,1120.37 879.213,1113.82 881.784,1107.27 884.356,1100.74 886.928,1094.22 889.499,1087.73 892.071,1081.26 894.642,1074.82 897.214,1068.43 899.786,1062.08 
  902.357,1055.78 904.929,1049.53 907.501,1043.35 910.072,1037.24 912.644,1031.2 915.215,1025.24 917.787,1019.36 920.359,1013.58 922.93,1007.9 925.502,1002.32 
  928.074,996.853 930.645,991.5 933.217,986.267 935.789,981.161 938.36,976.188 940.932,971.352 943.503,966.659 946.075,962.115 948.647,957.723 951.218,953.49 
  953.79,949.419 956.362,945.516 958.933,941.785 961.505,938.23 964.076,934.855 966.648,931.664 969.22,928.661 971.791,925.85 974.363,923.234 976.935,920.815 
  979.506,918.596 982.078,916.581 984.649,914.772 987.221,913.17 989.793,911.778 992.364,910.597 994.936,909.629 997.508,908.875 1000.08,908.336 1002.65,908.012 
  1005.22,907.904 1007.79,908.012 1010.37,908.336 1012.94,908.875 1015.51,909.629 1018.08,910.597 1020.65,911.778 1023.22,913.17 1025.8,914.772 1028.37,916.581 
  1030.94,918.596 1033.51,920.815 1036.08,923.233 1038.65,925.85 1041.23,928.661 1043.8,931.664 1046.37,934.855 1048.94,938.229 1051.51,941.784 1054.08,945.516 
  1056.66,949.419 1059.23,953.489 1061.8,957.723 1064.37,962.114 1066.94,966.659 1069.51,971.352 1072.08,976.188 1074.66,981.161 1077.23,986.267 1079.8,991.499 
  1082.37,996.853 1084.94,1002.32 1087.51,1007.9 1090.09,1013.58 1092.66,1019.36 1095.23,1025.24 1097.8,1031.2 1100.37,1037.23 1102.94,1043.35 1105.52,1049.53 
  1108.09,1055.77 1110.66,1062.07 1113.23,1068.43 1115.8,1074.82 1118.37,1081.26 1120.95,1087.72 1123.52,1094.22 1126.09,1100.74 1128.66,1107.27 1131.23,1113.81 
  1133.8,1120.36 1136.38,1126.91 1138.95,1133.45 1141.52,1139.99 1144.09,1146.51 1146.66,1153 1149.23,1159.48 1151.81,1165.92 1154.38,1172.33 1156.95,1178.7 
  1159.52,1185.03 1162.09,1191.31 1164.66,1197.55 1167.24,1203.73 1169.81,1209.85 1172.38,1215.91 1174.95,1221.9 1177.52,1227.83 1180.09,1233.69 1182.66,1239.48 
  1185.24,1245.19 1187.81,1250.82 1190.38,1256.37 1192.95,1261.84 1195.52,1267.23 1198.09,1272.53 1200.67,1277.74 1203.24,1282.86 1205.81,1287.89 1208.38,1292.83 
  1210.95,1297.67 1213.52,1302.43 1216.1,1307.08 1218.67,1311.64 1221.24,1316.11 1223.81,1320.47 1226.38,1324.74 1228.95,1328.92 1231.53,1332.99 1234.1,1336.97 
  1236.67,1340.85 1239.24,1344.64 1241.81,1348.33 1244.38,1351.92 1246.96,1355.42 1249.53,1358.82 1252.1,1362.13 1254.67,1365.34 1257.24,1368.46 1259.81,1371.49 
  1262.39,1374.43 1264.96,1377.28 1267.53,1380.04 1270.1,1382.72 1272.67,1385.3 1275.24,1387.8 1277.82,1390.22 1280.39,1392.55 1282.96,1394.8 1285.53,1396.98 
  1288.1,1399.07 1290.67,1401.08 1293.24,1403.02 1295.82,1404.88 1298.39,1406.67 1300.96,1408.38 1303.53,1410.03 1306.1,1411.6 1308.67,1413.1 1311.25,1414.54 
  1313.82,1415.91 1316.39,1417.21 1318.96,1418.45 1321.53,1419.62 1324.1,1420.73 1326.68,1421.79 1329.25,1422.78 1331.82,1423.71 1334.39,1424.58 1336.96,1425.4 
  1339.53,1426.15 1342.11,1426.85 1344.68,1427.5 1347.25,1428.09 1349.82,1428.62 1352.39,1429.11 1354.96,1429.53 1357.54,1429.91 1360.11,1430.23 1362.68,1430.49 
  1365.25,1430.71 1367.82,1430.87 1370.39,1430.97 1372.97,1431.03 1375.54,1431.03 1378.11,1430.97 1380.68,1430.86 1383.25,1430.7 1385.82,1430.48 1388.4,1430.21 
  1390.97,1429.88 1393.54,1429.49 1396.11,1429.04 1398.68,1428.53 1401.25,1427.97 1403.82,1427.34 1406.4,1426.65 1408.97,1425.89 1411.54,1425.07 1414.11,1424.18 
  1416.68,1423.22 1419.25,1422.19 1421.83,1421.09 1424.4,1419.91 1426.97,1418.66 1429.54,1417.33 1432.11,1415.92 1434.68,1414.43 1437.26,1412.85 1439.83,1411.19 
  1442.4,1409.44 1444.97,1407.59 1447.54,1405.65 1450.11,1403.62 1452.69,1401.48 1455.26,1399.24 1457.83,1396.9 1460.4,1394.45 1462.97,1391.89 1465.54,1389.21 
  1468.12,1386.42 1470.69,1383.51 1473.26,1380.48 1475.83,1377.32 1478.4,1374.03 1480.97,1370.62 1483.55,1367.06 1486.12,1363.37 1488.69,1359.54 1491.26,1355.57 
  1493.83,1351.45 1496.4,1347.18 1498.98,1342.75 1501.55,1338.18 1504.12,1333.44 1506.69,1328.54 1509.26,1323.48 1511.83,1318.25 1514.4,1312.85 1516.98,1307.28 
  1519.55,1301.54 1522.12,1295.62 1524.69,1289.52 1527.26,1283.24 1529.83,1276.78 1532.41,1270.13 1534.98,1263.3 1537.55,1256.28 1540.12,1249.07 1542.69,1241.67 
  1545.26,1234.08 1547.84,1226.29 1550.41,1218.32 1552.98,1210.15 1555.55,1201.78 1558.12,1193.23 1560.69,1184.48 1563.27,1175.54 1565.84,1166.41 1568.41,1157.09 
  1570.98,1147.58 1573.55,1137.88 1576.12,1127.99 1578.7,1117.92 1581.27,1107.67 1583.84,1097.25 1586.41,1086.64 1588.98,1075.87 1591.55,1064.92 1594.13,1053.82 
  1596.7,1042.55 1599.27,1031.12 1601.84,1019.55 1604.41,1007.83 1606.98,995.965 1609.56,983.969 1612.13,971.846 1614.7,959.601 1617.27,947.241 1619.84,934.773 
  1622.41,922.206 1624.99,909.545 1627.56,896.8 1630.13,883.979 1632.7,871.091 1635.27,858.143 1637.84,845.147 1640.41,832.11 1642.99,819.042 1645.56,805.954 
  1648.13,792.856 1650.7,779.757 1653.27,766.67 1655.84,753.603 1658.42,740.569 1660.99,727.578 1663.56,714.643 1666.13,701.773 1668.7,688.981 1671.27,676.278 
  1673.85,663.677 1676.42,651.188 1678.99,638.824 1681.56,626.597 1684.13,614.518 1686.7,602.6 1689.28,590.855 1691.85,579.294 1694.42,567.928 1696.99,556.771 
  1699.56,545.833 1702.13,535.126 1704.71,524.661 1707.28,514.45 1709.85,504.503 1712.42,494.831 1714.99,485.446 1717.56,476.356 1720.14,467.573 1722.71,459.106 
  1725.28,450.965 1727.85,443.159 1730.42,435.696 1732.99,428.586 1735.57,421.836 1738.14,415.455 1740.71,409.45 1743.28,403.827 1745.85,398.594 1748.42,393.756 
  1750.99,389.32 1753.57,385.289 1756.14,381.67 1758.71,378.467 1761.28,375.683 1763.85,373.322 1766.42,371.386 1769,369.877 1771.57,368.799 1774.14,368.151 
  1776.71,367.935 1779.28,368.151 1781.85,368.799 1784.43,369.877 1787,371.386 1789.57,373.322 1792.14,375.683 1794.71,378.467 1797.28,381.67 1799.86,385.289 
  1802.43,389.32 1805,393.756 1807.57,398.594 1810.14,403.827 1812.71,409.45 1815.29,415.455 1817.86,421.837 1820.43,428.586 1823,435.696 1825.57,443.159 
  1828.14,450.965 1830.72,459.106 1833.29,467.573 1835.86,476.356 1838.43,485.446 1841,494.831 1843.57,504.503 1846.15,514.45 1848.72,524.661 1851.29,535.126 
  1853.86,545.833 1856.43,556.771 1859,567.929 1861.57,579.294 1864.15,590.855 1866.72,602.601 1869.29,614.519 1871.86,626.598 1874.43,638.825 1877,651.189 
  1879.58,663.677 1882.15,676.279 1884.72,688.982 1887.29,701.774 1889.86,714.644 1892.43,727.58 1895.01,740.57 1897.58,753.605 1900.15,766.671 1902.72,779.759 
  1905.29,792.858 1907.86,805.956 1910.44,819.045 1913.01,832.112 1915.58,845.15 1918.15,858.147 1920.72,871.094 1923.29,883.983 1925.87,896.805 1928.44,909.55 
  1931.01,922.211 1933.58,934.779 1936.15,947.247 1938.72,959.608 1941.3,971.854 1943.87,983.978 1946.44,995.974 1949.01,1007.84 1951.58,1019.56 1954.15,1031.13 
  1956.73,1042.56 1959.3,1053.83 1961.87,1064.94 1964.44,1075.89 1967.01,1086.66 1969.58,1097.27 1972.15,1107.7 1974.73,1117.95 1977.3,1128.02 1979.87,1137.91 
  1982.44,1147.61 1985.01,1157.12 1987.58,1166.45 1990.16,1175.59 1992.73,1184.53 1995.3,1193.28 1997.87,1201.84 2000.44,1210.21 2003.01,1218.38 2005.59,1226.37 
  2008.16,1234.15 2010.73,1241.75 2013.3,1249.16 2015.87,1256.38 2018.44,1263.41 2021.02,1270.25 2023.59,1276.91 2026.16,1283.38 2028.73,1289.67 2031.3,1295.79 
  2033.87,1301.72 2036.45,1307.48 2039.02,1313.06 2041.59,1318.48 2044.16,1323.73 2046.73,1328.81 2049.3,1333.73 2051.88,1338.49 2054.45,1343.09 2057.02,1347.54 
  2059.59,1351.84 2062.16,1356 2064.73,1360 2067.31,1363.87 2069.88,1367.6 2072.45,1371.19 2075.02,1374.65 2077.59,1377.99 2080.16,1381.2 2082.73,1384.28 
  2085.31,1387.25 2087.88,1390.1 2090.45,1392.84 2093.02,1395.48 2095.59,1398 2098.16,1400.42 2100.74,1402.75 2103.31,1404.97 2105.88,1407.11 2108.45,1409.15 
  2111.02,1411.1 2113.59,1412.97 2116.17,1414.76 2118.74,1416.47 2121.31,1418.1 2123.88,1419.66 2126.45,1421.15 2129.02,1422.57 2131.6,1423.93 2134.17,1425.22 
  2136.74,1426.45 2139.31,1427.62 2141.88,1428.73 2144.45,1429.79 2147.03,1430.8 2149.6,1431.76 2152.17,1432.67 2154.74,1433.54 2157.31,1434.36 2159.88,1435.14 
  2162.46,1435.88 2165.03,1436.58 2167.6,1437.24 2170.17,1437.87 2172.74,1438.47 2175.31,1439.03 2177.89,1439.56 2180.46,1440.07 2183.03,1440.54 2185.6,1440.99 
  2188.17,1441.42 2190.74,1441.82 2193.31,1442.2 2195.89,1442.56 2198.46,1442.89 2201.03,1443.21 2203.6,1443.51 2206.17,1443.79 2208.74,1444.05 2211.32,1444.3 
  2213.89,1444.54 2216.46,1444.76 2219.03,1444.96 2221.6,1445.16 2224.17,1445.34 2226.75,1445.51 2229.32,1445.67 2231.89,1445.82 2234.46,1445.96 2237.03,1446.09 
  2239.6,1446.22 2242.18,1446.33 2244.75,1446.44 2247.32,1446.54 2249.89,1446.64 2252.46,1446.72 2255.03,1446.81 2257.61,1446.88 2260.18,1446.95 2262.75,1447.02 
  2265.32,1447.08 2267.89,1447.14 2270.46,1447.19 2273.04,1447.25 2275.61,1447.29 2278.18,1447.34 2280.75,1447.38 2283.32,1447.41 2285.89,1447.45 2288.47,1447.48 
  2291.04,1447.51 
  "/>
<path clip-path="url(#clip800)" d="
M1921.49 350.345 L2280.06 350.345 L2280.06 168.905 L1921.49 168.905  Z
  " fill="#ffffff" fill-rule="evenodd" fill-opacity="1"/>
<polyline clip-path="url(#clip800)" style="stroke:#000000; stroke-linecap:butt; stroke-linejoin:round; stroke-width:4; stroke-opacity:1; fill:none" points="
  1921.49,350.345 2280.06,350.345 2280.06,168.905 1921.49,168.905 1921.49,350.345 
  "/>
<polyline clip-path="url(#clip800)" style="stroke:#009af9; stroke-linecap:butt; stroke-linejoin:round; stroke-width:4; stroke-opacity:1; fill:none" points="
  1945.72,229.385 2091.1,229.385 
  "/>
<path clip-path="url(#clip800)" d="M2120.01 215.947 L2120.01 242.822 L2125.66 242.822 Q2132.81 242.822 2136.12 239.581 Q2139.45 236.341 2139.45 229.35 Q2139.45 222.406 2136.12 219.188 Q2132.81 215.947 2125.66 215.947 L2120.01 215.947 M2115.33 212.105 L2124.94 212.105 Q2134.98 212.105 2139.68 216.294 Q2144.38 220.461 2144.38 229.35 Q2144.38 238.285 2139.66 242.475 Q2134.94 246.665 2124.94 246.665 L2115.33 246.665 L2115.33 212.105 Z" fill="#000000" fill-rule="evenodd" fill-opacity="1" /><path clip-path="url(#clip800)" d="M2163.43 233.632 Q2158.27 233.632 2156.28 234.813 Q2154.29 235.993 2154.29 238.841 Q2154.29 241.109 2155.77 242.452 Q2157.28 243.771 2159.84 243.771 Q2163.39 243.771 2165.52 241.271 Q2167.67 238.748 2167.67 234.581 L2167.67 233.632 L2163.43 233.632 M2171.93 231.873 L2171.93 246.665 L2167.67 246.665 L2167.67 242.729 Q2166.21 245.091 2164.03 246.225 Q2161.86 247.336 2158.71 247.336 Q2154.73 247.336 2152.37 245.114 Q2150.03 242.868 2150.03 239.118 Q2150.03 234.743 2152.95 232.521 Q2155.89 230.299 2161.7 230.299 L2167.67 230.299 L2167.67 229.882 Q2167.67 226.943 2165.72 225.345 Q2163.8 223.725 2160.31 223.725 Q2158.09 223.725 2155.98 224.257 Q2153.87 224.79 2151.93 225.855 L2151.93 221.919 Q2154.27 221.017 2156.47 220.577 Q2158.66 220.114 2160.75 220.114 Q2166.37 220.114 2169.15 223.031 Q2171.93 225.947 2171.93 231.873 Z" fill="#000000" fill-rule="evenodd" fill-opacity="1" /><path clip-path="url(#clip800)" d="M2184.91 213.378 L2184.91 220.739 L2193.69 220.739 L2193.69 224.049 L2184.91 224.049 L2184.91 238.123 Q2184.91 241.294 2185.77 242.197 Q2186.65 243.1 2189.31 243.1 L2193.69 243.1 L2193.69 246.665 L2189.31 246.665 Q2184.38 246.665 2182.51 244.836 Q2180.63 242.984 2180.63 238.123 L2180.63 224.049 L2177.51 224.049 L2177.51 220.739 L2180.63 220.739 L2180.63 213.378 L2184.91 213.378 Z" fill="#000000" fill-rule="evenodd" fill-opacity="1" /><path clip-path="url(#clip800)" d="M2211.07 233.632 Q2205.91 233.632 2203.92 234.813 Q2201.93 235.993 2201.93 238.841 Q2201.93 241.109 2203.41 242.452 Q2204.91 243.771 2207.48 243.771 Q2211.03 243.771 2213.15 241.271 Q2215.31 238.748 2215.31 234.581 L2215.31 233.632 L2211.07 233.632 M2219.57 231.873 L2219.57 246.665 L2215.31 246.665 L2215.31 242.729 Q2213.85 245.091 2211.67 246.225 Q2209.5 247.336 2206.35 247.336 Q2202.37 247.336 2200.01 245.114 Q2197.67 242.868 2197.67 239.118 Q2197.67 234.743 2200.59 232.521 Q2203.53 230.299 2209.34 230.299 L2215.31 230.299 L2215.31 229.882 Q2215.31 226.943 2213.36 225.345 Q2211.44 223.725 2207.95 223.725 Q2205.72 223.725 2203.62 224.257 Q2201.51 224.79 2199.57 225.855 L2199.57 221.919 Q2201.9 221.017 2204.1 220.577 Q2206.3 220.114 2208.39 220.114 Q2214.01 220.114 2216.79 223.031 Q2219.57 225.947 2219.57 231.873 Z" fill="#000000" fill-rule="evenodd" fill-opacity="1" /><polyline clip-path="url(#clip800)" style="stroke:#e26f46; stroke-linecap:butt; stroke-linejoin:round; stroke-width:4; stroke-opacity:1; fill:none" points="
  1945.72,289.865 2091.1,289.865 
  "/>
<path clip-path="url(#clip800)" d="M2115.33 272.585 L2144.57 272.585 L2144.57 276.52 L2132.3 276.52 L2132.3 307.145 L2127.6 307.145 L2127.6 276.52 L2115.33 276.52 L2115.33 272.585 Z" fill="#000000" fill-rule="evenodd" fill-opacity="1" /><path clip-path="url(#clip800)" d="M2156.95 285.2 Q2156.23 284.784 2155.38 284.598 Q2154.54 284.39 2153.53 284.39 Q2149.91 284.39 2147.97 286.751 Q2146.05 289.089 2146.05 293.487 L2146.05 307.145 L2141.77 307.145 L2141.77 281.219 L2146.05 281.219 L2146.05 285.247 Q2147.39 282.886 2149.54 281.751 Q2151.7 280.594 2154.78 280.594 Q2155.22 280.594 2155.75 280.663 Q2156.28 280.71 2156.93 280.825 L2156.95 285.2 Z" fill="#000000" fill-rule="evenodd" fill-opacity="1" /><path clip-path="url(#clip800)" d="M2160.98 296.913 L2160.98 281.219 L2165.24 281.219 L2165.24 296.751 Q2165.24 300.432 2166.67 302.284 Q2168.11 304.112 2170.98 304.112 Q2174.43 304.112 2176.42 301.913 Q2178.43 299.714 2178.43 295.918 L2178.43 281.219 L2182.69 281.219 L2182.69 307.145 L2178.43 307.145 L2178.43 303.163 Q2176.88 305.524 2174.82 306.682 Q2172.78 307.816 2170.08 307.816 Q2165.61 307.816 2163.29 305.038 Q2160.98 302.26 2160.98 296.913 M2171.7 280.594 L2171.7 280.594 Z" fill="#000000" fill-rule="evenodd" fill-opacity="1" /><path clip-path="url(#clip800)" d="M2195.68 273.858 L2195.68 281.219 L2204.45 281.219 L2204.45 284.529 L2195.68 284.529 L2195.68 298.603 Q2195.68 301.774 2196.53 302.677 Q2197.41 303.58 2200.08 303.58 L2204.45 303.58 L2204.45 307.145 L2200.08 307.145 Q2195.15 307.145 2193.27 305.316 Q2191.4 303.464 2191.4 298.603 L2191.4 284.529 L2188.27 284.529 L2188.27 281.219 L2191.4 281.219 L2191.4 273.858 L2195.68 273.858 Z" fill="#000000" fill-rule="evenodd" fill-opacity="1" /><path clip-path="url(#clip800)" d="M2231.6 291.497 L2231.6 307.145 L2227.34 307.145 L2227.34 291.635 Q2227.34 287.955 2225.91 286.126 Q2224.47 284.298 2221.6 284.298 Q2218.15 284.298 2216.16 286.497 Q2214.17 288.696 2214.17 292.492 L2214.17 307.145 L2209.89 307.145 L2209.89 271.126 L2214.17 271.126 L2214.17 285.247 Q2215.7 282.909 2217.76 281.751 Q2219.84 280.594 2222.55 280.594 Q2227.02 280.594 2229.31 283.372 Q2231.6 286.126 2231.6 291.497 Z" fill="#000000" fill-rule="evenodd" fill-opacity="1" /></svg>
