<?xml version="1.0" encoding="utf-8"?>
<svg xmlns="http://www.w3.org/2000/svg" xmlns:xlink="http://www.w3.org/1999/xlink" width="600" height="400" viewBox="0 0 2400 1600">
<defs>
  <clipPath id="clip770">
    <rect x="0" y="0" width="2400" height="1600"/>
  </clipPath>
</defs>
<path clip-path="url(#clip770)" d="
M0 1600 L2400 1600 L2400 0 L0 0  Z
  " fill="#ffffff" fill-rule="evenodd" fill-opacity="1"/>
<defs>
  <clipPath id="clip771">
    <rect x="480" y="0" width="1681" height="1600"/>
  </clipPath>
</defs>
<path clip-path="url(#clip770)" d="
M172.015 1486.45 L2352.76 1486.45 L2352.76 123.472 L172.015 123.472  Z
  " fill="#ffffff" fill-rule="evenodd" fill-opacity="1"/>
<defs>
  <clipPath id="clip772">
    <rect x="172" y="123" width="2182" height="1364"/>
  </clipPath>
</defs>
<polyline clip-path="url(#clip772)" style="stroke:#000000; stroke-linecap:butt; stroke-linejoin:round; stroke-width:2; stroke-opacity:0.1; fill:none" points="
  233.734,1486.45 233.734,123.472 
  "/>
<polyline clip-path="url(#clip772)" style="stroke:#000000; stroke-linecap:butt; stroke-linejoin:round; stroke-width:2; stroke-opacity:0.1; fill:none" points="
  576.618,1486.45 576.618,123.472 
  "/>
<polyline clip-path="url(#clip772)" style="stroke:#000000; stroke-linecap:butt; stroke-linejoin:round; stroke-width:2; stroke-opacity:0.1; fill:none" points="
  919.502,1486.45 919.502,123.472 
  "/>
<polyline clip-path="url(#clip772)" style="stroke:#000000; stroke-linecap:butt; stroke-linejoin:round; stroke-width:2; stroke-opacity:0.1; fill:none" points="
  1262.39,1486.45 1262.39,123.472 
  "/>
<polyline clip-path="url(#clip772)" style="stroke:#000000; stroke-linecap:butt; stroke-linejoin:round; stroke-width:2; stroke-opacity:0.1; fill:none" points="
  1605.27,1486.45 1605.27,123.472 
  "/>
<polyline clip-path="url(#clip772)" style="stroke:#000000; stroke-linecap:butt; stroke-linejoin:round; stroke-width:2; stroke-opacity:0.1; fill:none" points="
  1948.15,1486.45 1948.15,123.472 
  "/>
<polyline clip-path="url(#clip772)" style="stroke:#000000; stroke-linecap:butt; stroke-linejoin:round; stroke-width:2; stroke-opacity:0.1; fill:none" points="
  2291.04,1486.45 2291.04,123.472 
  "/>
<polyline clip-path="url(#clip770)" style="stroke:#000000; stroke-linecap:butt; stroke-linejoin:round; stroke-width:4; stroke-opacity:1; fill:none" points="
  172.015,1486.45 2352.76,1486.45 
  "/>
<polyline clip-path="url(#clip770)" style="stroke:#000000; stroke-linecap:butt; stroke-linejoin:round; stroke-width:4; stroke-opacity:1; fill:none" points="
  233.734,1486.45 233.734,1470.09 
  "/>
<polyline clip-path="url(#clip770)" style="stroke:#000000; stroke-linecap:butt; stroke-linejoin:round; stroke-width:4; stroke-opacity:1; fill:none" points="
  576.618,1486.45 576.618,1470.09 
  "/>
<polyline clip-path="url(#clip770)" style="stroke:#000000; stroke-linecap:butt; stroke-linejoin:round; stroke-width:4; stroke-opacity:1; fill:none" points="
  919.502,1486.45 919.502,1470.09 
  "/>
<polyline clip-path="url(#clip770)" style="stroke:#000000; stroke-linecap:butt; stroke-linejoin:round; stroke-width:4; stroke-opacity:1; fill:none" points="
  1262.39,1486.45 1262.39,1470.09 
  "/>
<polyline clip-path="url(#clip770)" style="stroke:#000000; stroke-linecap:butt; stroke-linejoin:round; stroke-width:4; stroke-opacity:1; fill:none" points="
  1605.27,1486.45 1605.27,1470.09 
  "/>
<polyline clip-path="url(#clip770)" style="stroke:#000000; stroke-linecap:butt; stroke-linejoin:round; stroke-width:4; stroke-opacity:1; fill:none" points="
  1948.15,1486.45 1948.15,1470.09 
  "/>
<polyline clip-path="url(#clip770)" style="stroke:#000000; stroke-linecap:butt; stroke-linejoin:round; stroke-width:4; stroke-opacity:1; fill:none" points="
  2291.04,1486.45 2291.04,1470.09 
  "/>
<path clip-path="url(#clip770)" d="M203.676 1530.29 L233.352 1530.29 L233.352 1534.23 L203.676 1534.23 L203.676 1530.29 Z" fill="#000000" fill-rule="evenodd" fill-opacity="1" /><path clip-path="url(#clip770)" d="M247.472 1543.18 L263.792 1543.18 L263.792 1547.12 L241.847 1547.12 L241.847 1543.18 Q244.509 1540.43 249.093 1535.8 Q253.699 1531.15 254.88 1529.81 Q257.125 1527.28 258.005 1525.55 Q258.907 1523.79 258.907 1522.1 Q258.907 1519.34 256.963 1517.61 Q255.042 1515.87 251.94 1515.87 Q249.741 1515.87 247.287 1516.63 Q244.857 1517.4 242.079 1518.95 L242.079 1514.23 Q244.903 1513.09 247.357 1512.51 Q249.81 1511.93 251.847 1511.93 Q257.218 1511.93 260.412 1514.62 Q263.606 1517.31 263.606 1521.8 Q263.606 1523.93 262.796 1525.85 Q262.009 1527.74 259.903 1530.34 Q259.324 1531.01 256.222 1534.23 Q253.12 1537.42 247.472 1543.18 Z" fill="#000000" fill-rule="evenodd" fill-opacity="1" /><path clip-path="url(#clip770)" d="M546.375 1530.29 L576.051 1530.29 L576.051 1534.23 L546.375 1534.23 L546.375 1530.29 Z" fill="#000000" fill-rule="evenodd" fill-opacity="1" /><path clip-path="url(#clip770)" d="M586.953 1543.18 L594.592 1543.18 L594.592 1516.82 L586.282 1518.49 L586.282 1514.23 L594.546 1512.56 L599.222 1512.56 L599.222 1543.18 L606.861 1543.18 L606.861 1547.12 L586.953 1547.12 L586.953 1543.18 Z" fill="#000000" fill-rule="evenodd" fill-opacity="1" /><path clip-path="url(#clip770)" d="M919.502 1515.64 Q915.89 1515.64 914.062 1519.2 Q912.256 1522.75 912.256 1529.87 Q912.256 1536.98 914.062 1540.55 Q915.89 1544.09 919.502 1544.09 Q923.136 1544.09 924.941 1540.55 Q926.77 1536.98 926.77 1529.87 Q926.77 1522.75 924.941 1519.2 Q923.136 1515.64 919.502 1515.64 M919.502 1511.93 Q925.312 1511.93 928.367 1516.54 Q931.446 1521.12 931.446 1529.87 Q931.446 1538.6 928.367 1543.21 Q925.312 1547.79 919.502 1547.79 Q913.691 1547.79 910.613 1543.21 Q907.557 1538.6 907.557 1529.87 Q907.557 1521.12 910.613 1516.54 Q913.691 1511.93 919.502 1511.93 Z" fill="#000000" fill-rule="evenodd" fill-opacity="1" /><path clip-path="url(#clip770)" d="M1252.77 1543.18 L1260.41 1543.18 L1260.41 1516.82 L1252.1 1518.49 L1252.1 1514.23 L1260.36 1512.56 L1265.04 1512.56 L1265.04 1543.18 L1272.67 1543.18 L1272.67 1547.12 L1252.77 1547.12 L1252.77 1543.18 Z" fill="#000000" fill-rule="evenodd" fill-opacity="1" /><path clip-path="url(#clip770)" d="M1599.92 1543.18 L1616.24 1543.18 L1616.24 1547.12 L1594.3 1547.12 L1594.3 1543.18 Q1596.96 1540.43 1601.54 1535.8 Q1606.15 1531.15 1607.33 1529.81 Q1609.57 1527.28 1610.45 1525.55 Q1611.36 1523.79 1611.36 1522.1 Q1611.36 1519.34 1609.41 1517.61 Q1607.49 1515.87 1604.39 1515.87 Q1602.19 1515.87 1599.74 1516.63 Q1597.31 1517.4 1594.53 1518.95 L1594.53 1514.23 Q1597.35 1513.09 1599.81 1512.51 Q1602.26 1511.93 1604.3 1511.93 Q1609.67 1511.93 1612.86 1514.62 Q1616.06 1517.31 1616.06 1521.8 Q1616.06 1523.93 1615.25 1525.85 Q1614.46 1527.74 1612.35 1530.34 Q1611.77 1531.01 1608.67 1534.23 Q1605.57 1537.42 1599.92 1543.18 Z" fill="#000000" fill-rule="evenodd" fill-opacity="1" /><path clip-path="url(#clip770)" d="M1952.4 1528.49 Q1955.76 1529.2 1957.63 1531.47 Q1959.53 1533.74 1959.53 1537.07 Q1959.53 1542.19 1956.01 1544.99 Q1952.49 1547.79 1946.01 1547.79 Q1943.84 1547.79 1941.52 1547.35 Q1939.23 1546.93 1936.78 1546.08 L1936.78 1541.56 Q1938.72 1542.7 1941.03 1543.28 Q1943.35 1543.86 1945.87 1543.86 Q1950.27 1543.86 1952.56 1542.12 Q1954.88 1540.38 1954.88 1537.07 Q1954.88 1534.02 1952.72 1532.31 Q1950.6 1530.57 1946.78 1530.57 L1942.75 1530.57 L1942.75 1526.73 L1946.96 1526.73 Q1950.41 1526.73 1952.24 1525.36 Q1954.07 1523.97 1954.07 1521.38 Q1954.07 1518.72 1952.17 1517.31 Q1950.29 1515.87 1946.78 1515.87 Q1944.85 1515.87 1942.66 1516.29 Q1940.46 1516.7 1937.82 1517.58 L1937.82 1513.42 Q1940.48 1512.68 1942.79 1512.31 Q1945.13 1511.93 1947.19 1511.93 Q1952.52 1511.93 1955.62 1514.37 Q1958.72 1516.77 1958.72 1520.89 Q1958.72 1523.76 1957.08 1525.75 Q1955.43 1527.72 1952.4 1528.49 Z" fill="#000000" fill-rule="evenodd" fill-opacity="1" /><path clip-path="url(#clip770)" d="M2294.05 1516.63 L2282.24 1535.08 L2294.05 1535.08 L2294.05 1516.63 M2292.82 1512.56 L2298.7 1512.56 L2298.7 1535.08 L2303.63 1535.08 L2303.63 1538.97 L2298.7 1538.97 L2298.7 1547.12 L2294.05 1547.12 L2294.05 1538.97 L2278.44 1538.97 L2278.44 1534.46 L2292.82 1512.56 Z" fill="#000000" fill-rule="evenodd" fill-opacity="1" /><polyline clip-path="url(#clip772)" style="stroke:#000000; stroke-linecap:butt; stroke-linejoin:round; stroke-width:2; stroke-opacity:0.1; fill:none" points="
  172.015,1447.87 2352.76,1447.87 
  "/>
<polyline clip-path="url(#clip772)" style="stroke:#000000; stroke-linecap:butt; stroke-linejoin:round; stroke-width:2; stroke-opacity:0.1; fill:none" points="
  172.015,1177.17 2352.76,1177.17 
  "/>
<polyline clip-path="url(#clip772)" style="stroke:#000000; stroke-linecap:butt; stroke-linejoin:round; stroke-width:2; stroke-opacity:0.1; fill:none" points="
  172.015,906.473 2352.76,906.473 
  "/>
<polyline clip-path="url(#clip772)" style="stroke:#000000; stroke-linecap:butt; stroke-linejoin:round; stroke-width:2; stroke-opacity:0.1; fill:none" points="
  172.015,635.772 2352.76,635.772 
  "/>
<polyline clip-path="url(#clip772)" style="stroke:#000000; stroke-linecap:butt; stroke-linejoin:round; stroke-width:2; stroke-opacity:0.1; fill:none" points="
  172.015,365.072 2352.76,365.072 
  "/>
<polyline clip-path="url(#clip770)" style="stroke:#000000; stroke-linecap:butt; stroke-linejoin:round; stroke-width:4; stroke-opacity:1; fill:none" points="
  172.015,1486.45 172.015,123.472 
  "/>
<polyline clip-path="url(#clip770)" style="stroke:#000000; stroke-linecap:butt; stroke-linejoin:round; stroke-width:4; stroke-opacity:1; fill:none" points="
  172.015,1447.87 198.184,1447.87 
  "/>
<polyline clip-path="url(#clip770)" style="stroke:#000000; stroke-linecap:butt; stroke-linejoin:round; stroke-width:4; stroke-opacity:1; fill:none" points="
  172.015,1177.17 198.184,1177.17 
  "/>
<polyline clip-path="url(#clip770)" style="stroke:#000000; stroke-linecap:butt; stroke-linejoin:round; stroke-width:4; stroke-opacity:1; fill:none" points="
  172.015,906.473 198.184,906.473 
  "/>
<polyline clip-path="url(#clip770)" style="stroke:#000000; stroke-linecap:butt; stroke-linejoin:round; stroke-width:4; stroke-opacity:1; fill:none" points="
  172.015,635.772 198.184,635.772 
  "/>
<polyline clip-path="url(#clip770)" style="stroke:#000000; stroke-linecap:butt; stroke-linejoin:round; stroke-width:4; stroke-opacity:1; fill:none" points="
  172.015,365.072 198.184,365.072 
  "/>
<path clip-path="url(#clip770)" d="M124.07 1433.67 Q120.459 1433.67 118.631 1437.24 Q116.825 1440.78 116.825 1447.91 Q116.825 1455.01 118.631 1458.58 Q120.459 1462.12 124.07 1462.12 Q127.705 1462.12 129.51 1458.58 Q131.339 1455.01 131.339 1447.91 Q131.339 1440.78 129.51 1437.24 Q127.705 1433.67 124.07 1433.67 M124.07 1429.97 Q129.881 1429.97 132.936 1434.57 Q136.015 1439.16 136.015 1447.91 Q136.015 1456.63 132.936 1461.24 Q129.881 1465.82 124.07 1465.82 Q118.26 1465.82 115.182 1461.24 Q112.126 1456.63 112.126 1447.91 Q112.126 1439.16 115.182 1434.57 Q118.26 1429.97 124.07 1429.97 Z" fill="#000000" fill-rule="evenodd" fill-opacity="1" /><path clip-path="url(#clip770)" d="M57.7745 1190.52 L74.0939 1190.52 L74.0939 1194.45 L52.1495 1194.45 L52.1495 1190.52 Q54.8115 1187.76 59.3949 1183.13 Q64.0013 1178.48 65.1819 1177.14 Q67.4272 1174.61 68.3068 1172.88 Q69.2096 1171.12 69.2096 1169.43 Q69.2096 1166.68 67.2652 1164.94 Q65.3439 1163.2 62.2421 1163.2 Q60.043 1163.2 57.5893 1163.97 Q55.1588 1164.73 52.381 1166.28 L52.381 1161.56 Q55.2051 1160.43 57.6588 1159.85 Q60.1124 1159.27 62.1495 1159.27 Q67.5198 1159.27 70.7142 1161.95 Q73.9087 1164.64 73.9087 1169.13 Q73.9087 1171.26 73.0985 1173.18 Q72.3115 1175.08 70.205 1177.67 Q69.6263 1178.34 66.5245 1181.56 Q63.4226 1184.75 57.7745 1190.52 Z" fill="#000000" fill-rule="evenodd" fill-opacity="1" /><path clip-path="url(#clip770)" d="M93.9086 1162.97 Q90.2975 1162.97 88.4688 1166.54 Q86.6632 1170.08 86.6632 1177.21 Q86.6632 1184.31 88.4688 1187.88 Q90.2975 1191.42 93.9086 1191.42 Q97.5428 1191.42 99.3483 1187.88 Q101.177 1184.31 101.177 1177.21 Q101.177 1170.08 99.3483 1166.54 Q97.5428 1162.97 93.9086 1162.97 M93.9086 1159.27 Q99.7187 1159.27 102.774 1163.87 Q105.853 1168.46 105.853 1177.21 Q105.853 1185.93 102.774 1190.54 Q99.7187 1195.12 93.9086 1195.12 Q88.0984 1195.12 85.0197 1190.54 Q81.9642 1185.93 81.9642 1177.21 Q81.9642 1168.46 85.0197 1163.87 Q88.0984 1159.27 93.9086 1159.27 Z" fill="#000000" fill-rule="evenodd" fill-opacity="1" /><path clip-path="url(#clip770)" d="M124.07 1162.97 Q120.459 1162.97 118.631 1166.54 Q116.825 1170.08 116.825 1177.21 Q116.825 1184.31 118.631 1187.88 Q120.459 1191.42 124.07 1191.42 Q127.705 1191.42 129.51 1187.88 Q131.339 1184.31 131.339 1177.21 Q131.339 1170.08 129.51 1166.54 Q127.705 1162.97 124.07 1162.97 M124.07 1159.27 Q129.881 1159.27 132.936 1163.87 Q136.015 1168.46 136.015 1177.21 Q136.015 1185.93 132.936 1190.54 Q129.881 1195.12 124.07 1195.12 Q118.26 1195.12 115.182 1190.54 Q112.126 1185.93 112.126 1177.21 Q112.126 1168.46 115.182 1163.87 Q118.26 1159.27 124.07 1159.27 Z" fill="#000000" fill-rule="evenodd" fill-opacity="1" /><path clip-path="url(#clip770)" d="M66.5939 893.267 L54.7884 911.716 L66.5939 911.716 L66.5939 893.267 M65.367 889.193 L71.2466 889.193 L71.2466 911.716 L76.1772 911.716 L76.1772 915.604 L71.2466 915.604 L71.2466 923.753 L66.5939 923.753 L66.5939 915.604 L50.9921 915.604 L50.9921 911.091 L65.367 889.193 Z" fill="#000000" fill-rule="evenodd" fill-opacity="1" /><path clip-path="url(#clip770)" d="M93.9086 892.271 Q90.2975 892.271 88.4688 895.836 Q86.6632 899.378 86.6632 906.507 Q86.6632 913.614 88.4688 917.179 Q90.2975 920.72 93.9086 920.72 Q97.5428 920.72 99.3483 917.179 Q101.177 913.614 101.177 906.507 Q101.177 899.378 99.3483 895.836 Q97.5428 892.271 93.9086 892.271 M93.9086 888.568 Q99.7187 888.568 102.774 893.174 Q105.853 897.757 105.853 906.507 Q105.853 915.234 102.774 919.841 Q99.7187 924.424 93.9086 924.424 Q88.0984 924.424 85.0197 919.841 Q81.9642 915.234 81.9642 906.507 Q81.9642 897.757 85.0197 893.174 Q88.0984 888.568 93.9086 888.568 Z" fill="#000000" fill-rule="evenodd" fill-opacity="1" /><path clip-path="url(#clip770)" d="M124.07 892.271 Q120.459 892.271 118.631 895.836 Q116.825 899.378 116.825 906.507 Q116.825 913.614 118.631 917.179 Q120.459 920.72 124.07 920.72 Q127.705 920.72 129.51 917.179 Q131.339 913.614 131.339 906.507 Q131.339 899.378 129.51 895.836 Q127.705 892.271 124.07 892.271 M124.07 888.568 Q129.881 888.568 132.936 893.174 Q136.015 897.757 136.015 906.507 Q136.015 915.234 132.936 919.841 Q129.881 924.424 124.07 924.424 Q118.26 924.424 115.182 919.841 Q112.126 915.234 112.126 906.507 Q112.126 897.757 115.182 893.174 Q118.26 888.568 124.07 888.568 Z" fill="#000000" fill-rule="evenodd" fill-opacity="1" /><path clip-path="url(#clip770)" d="M64.3254 633.909 Q61.1773 633.909 59.3254 636.062 Q57.4967 638.214 57.4967 641.964 Q57.4967 645.691 59.3254 647.867 Q61.1773 650.02 64.3254 650.02 Q67.4735 650.02 69.3022 647.867 Q71.1541 645.691 71.1541 641.964 Q71.1541 638.214 69.3022 636.062 Q67.4735 633.909 64.3254 633.909 M73.6077 619.256 L73.6077 623.515 Q71.8485 622.682 70.0429 622.242 Q68.2606 621.803 66.5013 621.803 Q61.8717 621.803 59.418 624.927 Q56.9875 628.052 56.6402 634.372 Q58.006 632.358 60.0662 631.293 Q62.1263 630.205 64.6032 630.205 Q69.8115 630.205 72.8207 633.377 Q75.8531 636.525 75.8531 641.964 Q75.8531 647.288 72.705 650.506 Q69.5568 653.724 64.3254 653.724 Q58.33 653.724 55.1588 649.14 Q51.9875 644.534 51.9875 635.807 Q51.9875 627.613 55.8764 622.752 Q59.7652 617.867 66.3161 617.867 Q68.0754 617.867 69.8578 618.215 Q71.6633 618.562 73.6077 619.256 Z" fill="#000000" fill-rule="evenodd" fill-opacity="1" /><path clip-path="url(#clip770)" d="M93.9086 621.571 Q90.2975 621.571 88.4688 625.136 Q86.6632 628.677 86.6632 635.807 Q86.6632 642.914 88.4688 646.478 Q90.2975 650.02 93.9086 650.02 Q97.5428 650.02 99.3483 646.478 Q101.177 642.914 101.177 635.807 Q101.177 628.677 99.3483 625.136 Q97.5428 621.571 93.9086 621.571 M93.9086 617.867 Q99.7187 617.867 102.774 622.474 Q105.853 627.057 105.853 635.807 Q105.853 644.534 102.774 649.14 Q99.7187 653.724 93.9086 653.724 Q88.0984 653.724 85.0197 649.14 Q81.9642 644.534 81.9642 635.807 Q81.9642 627.057 85.0197 622.474 Q88.0984 617.867 93.9086 617.867 Z" fill="#000000" fill-rule="evenodd" fill-opacity="1" /><path clip-path="url(#clip770)" d="M124.07 621.571 Q120.459 621.571 118.631 625.136 Q116.825 628.677 116.825 635.807 Q116.825 642.914 118.631 646.478 Q120.459 650.02 124.07 650.02 Q127.705 650.02 129.51 646.478 Q131.339 642.914 131.339 635.807 Q131.339 628.677 129.51 625.136 Q127.705 621.571 124.07 621.571 M124.07 617.867 Q129.881 617.867 132.936 622.474 Q136.015 627.057 136.015 635.807 Q136.015 644.534 132.936 649.14 Q129.881 653.724 124.07 653.724 Q118.26 653.724 115.182 649.14 Q112.126 644.534 112.126 635.807 Q112.126 627.057 115.182 622.474 Q118.26 617.867 124.07 617.867 Z" fill="#000000" fill-rule="evenodd" fill-opacity="1" /><path clip-path="url(#clip770)" d="M63.7467 365.94 Q60.4134 365.94 58.4921 367.723 Q56.5939 369.505 56.5939 372.63 Q56.5939 375.755 58.4921 377.537 Q60.4134 379.32 63.7467 379.32 Q67.08 379.32 69.0013 377.537 Q70.9226 375.732 70.9226 372.63 Q70.9226 369.505 69.0013 367.723 Q67.1032 365.94 63.7467 365.94 M59.0708 363.949 Q56.0615 363.209 54.3717 361.149 Q52.7051 359.088 52.7051 356.125 Q52.7051 351.982 55.6449 349.574 Q58.6078 347.167 63.7467 347.167 Q68.9087 347.167 71.8485 349.574 Q74.7883 351.982 74.7883 356.125 Q74.7883 359.088 73.0985 361.149 Q71.4318 363.209 68.4457 363.949 Q71.8253 364.736 73.7003 367.028 Q75.5985 369.32 75.5985 372.63 Q75.5985 377.653 72.5198 380.338 Q69.4642 383.023 63.7467 383.023 Q58.0291 383.023 54.9504 380.338 Q51.8949 377.653 51.8949 372.63 Q51.8949 369.32 53.793 367.028 Q55.6912 364.736 59.0708 363.949 M57.3578 356.565 Q57.3578 359.25 59.0245 360.755 Q60.7143 362.26 63.7467 362.26 Q66.7559 362.26 68.4457 360.755 Q70.1587 359.25 70.1587 356.565 Q70.1587 353.88 68.4457 352.375 Q66.7559 350.871 63.7467 350.871 Q60.7143 350.871 59.0245 352.375 Q57.3578 353.88 57.3578 356.565 Z" fill="#000000" fill-rule="evenodd" fill-opacity="1" /><path clip-path="url(#clip770)" d="M93.9086 350.871 Q90.2975 350.871 88.4688 354.436 Q86.6632 357.977 86.6632 365.107 Q86.6632 372.213 88.4688 375.778 Q90.2975 379.32 93.9086 379.32 Q97.5428 379.32 99.3483 375.778 Q101.177 372.213 101.177 365.107 Q101.177 357.977 99.3483 354.436 Q97.5428 350.871 93.9086 350.871 M93.9086 347.167 Q99.7187 347.167 102.774 351.774 Q105.853 356.357 105.853 365.107 Q105.853 373.834 102.774 378.44 Q99.7187 383.023 93.9086 383.023 Q88.0984 383.023 85.0197 378.44 Q81.9642 373.834 81.9642 365.107 Q81.9642 356.357 85.0197 351.774 Q88.0984 347.167 93.9086 347.167 Z" fill="#000000" fill-rule="evenodd" fill-opacity="1" /><path clip-path="url(#clip770)" d="M124.07 350.871 Q120.459 350.871 118.631 354.436 Q116.825 357.977 116.825 365.107 Q116.825 372.213 118.631 375.778 Q120.459 379.32 124.07 379.32 Q127.705 379.32 129.51 375.778 Q131.339 372.213 131.339 365.107 Q131.339 357.977 129.51 354.436 Q127.705 350.871 124.07 350.871 M124.07 347.167 Q129.881 347.167 132.936 351.774 Q136.015 356.357 136.015 365.107 Q136.015 373.834 132.936 378.44 Q129.881 383.023 124.07 383.023 Q118.26 383.023 115.182 378.44 Q112.126 373.834 112.126 365.107 Q112.126 356.357 115.182 351.774 Q118.26 347.167 124.07 347.167 Z" fill="#000000" fill-rule="evenodd" fill-opacity="1" /><path clip-path="url(#clip770)" d="M1179.36 18.8205 L1179.36 65.8515 L1189.25 65.8515 Q1201.76 65.8515 1207.56 60.1802 Q1213.39 54.509 1213.39 42.2752 Q1213.39 30.1225 1207.56 24.4918 Q1201.76 18.8205 1189.25 18.8205 L1179.36 18.8205 M1171.18 12.096 L1187.99 12.096 Q1205.57 12.096 1213.79 19.4281 Q1222.02 26.7198 1222.02 42.2752 Q1222.02 57.9117 1213.75 65.2439 Q1205.49 72.576 1187.99 72.576 L1171.18 72.576 L1171.18 12.096 Z" fill="#000000" fill-rule="evenodd" fill-opacity="1" /><path clip-path="url(#clip770)" d="M1255.36 49.7694 Q1246.32 49.7694 1242.84 51.8354 Q1239.36 53.9013 1239.36 58.8839 Q1239.36 62.8538 1241.95 65.2034 Q1244.58 67.5124 1249.08 67.5124 Q1255.28 67.5124 1259 63.1374 Q1262.77 58.7219 1262.77 51.4303 L1262.77 49.7694 L1255.36 49.7694 M1270.22 46.6907 L1270.22 72.576 L1262.77 72.576 L1262.77 65.6895 Q1260.22 69.8214 1256.41 71.8063 Q1252.6 73.7508 1247.09 73.7508 Q1240.13 73.7508 1235.99 69.8619 Q1231.9 65.9325 1231.9 59.3701 Q1231.9 51.7138 1237.01 47.825 Q1242.15 43.9361 1252.32 43.9361 L1262.77 43.9361 L1262.77 43.2069 Q1262.77 38.0623 1259.37 35.2672 Q1256.01 32.4315 1249.89 32.4315 Q1246 32.4315 1242.31 33.3632 Q1238.63 34.295 1235.22 36.1584 L1235.22 29.2718 Q1239.32 27.692 1243.16 26.9223 Q1247.01 26.1121 1250.66 26.1121 Q1260.5 26.1121 1265.36 31.2163 Q1270.22 36.3204 1270.22 46.6907 Z" fill="#000000" fill-rule="evenodd" fill-opacity="1" /><path clip-path="url(#clip770)" d="M1292.95 14.324 L1292.95 27.2059 L1308.3 27.2059 L1308.3 32.9987 L1292.95 32.9987 L1292.95 57.6282 Q1292.95 63.1779 1294.45 64.7578 Q1295.99 66.3376 1300.65 66.3376 L1308.3 66.3376 L1308.3 72.576 L1300.65 72.576 Q1292.02 72.576 1288.74 69.3758 Q1285.46 66.1351 1285.46 57.6282 L1285.46 32.9987 L1279.99 32.9987 L1279.99 27.2059 L1285.46 27.2059 L1285.46 14.324 L1292.95 14.324 Z" fill="#000000" fill-rule="evenodd" fill-opacity="1" /><path clip-path="url(#clip770)" d="M1338.72 49.7694 Q1329.69 49.7694 1326.21 51.8354 Q1322.72 53.9013 1322.72 58.8839 Q1322.72 62.8538 1325.32 65.2034 Q1327.95 67.5124 1332.45 67.5124 Q1338.64 67.5124 1342.37 63.1374 Q1346.14 58.7219 1346.14 51.4303 L1346.14 49.7694 L1338.72 49.7694 M1353.59 46.6907 L1353.59 72.576 L1346.14 72.576 L1346.14 65.6895 Q1343.59 69.8214 1339.78 71.8063 Q1335.97 73.7508 1330.46 73.7508 Q1323.49 73.7508 1319.36 69.8619 Q1315.27 65.9325 1315.27 59.3701 Q1315.27 51.7138 1320.37 47.825 Q1325.52 43.9361 1335.69 43.9361 L1346.14 43.9361 L1346.14 43.2069 Q1346.14 38.0623 1342.74 35.2672 Q1339.37 32.4315 1333.26 32.4315 Q1329.37 32.4315 1325.68 33.3632 Q1321.99 34.295 1318.59 36.1584 L1318.59 29.2718 Q1322.68 27.692 1326.53 26.9223 Q1330.38 26.1121 1334.03 26.1121 Q1343.87 26.1121 1348.73 31.2163 Q1353.59 36.3204 1353.59 46.6907 Z" fill="#000000" fill-rule="evenodd" fill-opacity="1" /><polyline clip-path="url(#clip772)" style="stroke:#009af9; stroke-linecap:butt; stroke-linejoin:round; stroke-width:4; stroke-opacity:1; fill:none" points="
  233.734,1447.87 233.734,1434.34 268.022,1434.34 268.022,1393.73 302.311,1393.73 302.311,1163.64 336.599,1163.64 336.599,1190.71 370.887,1190.71 370.887,1150.1 
  405.176,1150.1 439.464,1150.1 439.464,947.078 473.753,947.078 473.753,1136.57 508.041,1136.57 508.041,987.683 542.329,987.683 542.329,933.543 
  576.618,933.543 576.618,865.868 610.906,865.868 610.906,838.798 645.194,838.798 645.194,960.613 679.483,960.613 679.483,974.148 713.771,974.148 713.771,1001.22 
  748.06,1001.22 748.06,1123.03 782.348,1123.03 782.348,1204.24 816.636,1204.24 816.636,1298.99 850.925,1298.99 850.925,1312.52 885.213,1312.52 885.213,1366.66 
  919.502,1366.66 953.79,1366.66 953.79,1434.34 988.078,1434.34 1022.37,1434.34 1056.66,1434.34 1056.66,1447.87 
  1090.94,1447.87 1090.94,1434.34 1125.23,1434.34 1125.23,1447.87 1159.52,1447.87 1159.52,1407.27 1193.81,1407.27 1193.81,1420.8 1228.1,1420.8 1228.1,1326.06 
  1262.39,1326.06 1262.39,1312.52 1296.67,1312.52 1296.67,1217.78 1330.96,1217.78 1330.96,1163.64 1365.25,1163.64 1365.25,906.473 1399.54,906.473 1399.54,838.798 
  1433.83,838.798 1433.83,757.587 1468.12,757.587 1468.12,676.377 1502.4,676.377 1502.4,581.632 1536.69,581.632 1536.69,243.257 1570.98,243.257 1570.98,162.047 
  1605.27,162.047 1605.27,256.792 1639.56,256.792 1639.56,541.027 1673.85,541.027 1673.85,243.257 1708.13,243.257 1708.13,784.657 1742.42,784.657 1742.42,838.798 
  1776.71,838.798 1776.71,811.728 1811,811.728 1811,1001.22 1845.29,1001.22 1845.29,1123.03 1879.58,1123.03 1879.58,1177.17 1913.86,1177.17 1913.86,1298.99 
  1948.15,1298.99 1948.15,1326.06 1982.44,1326.06 2016.73,1326.06 2016.73,1420.8 2051.02,1420.8 2085.31,1420.8 2085.31,1447.87 
  2119.59,1447.87 2119.59,1434.34 2153.88,1434.34 2153.88,1447.87 2188.17,1447.87 2222.46,1447.87 2256.75,1447.87 
  2291.04,1447.87 
  "/>
<path clip-path="url(#clip770)" d="
M1933.52 289.865 L2280.06 289.865 L2280.06 168.905 L1933.52 168.905  Z
  " fill="#ffffff" fill-rule="evenodd" fill-opacity="1"/>
<polyline clip-path="url(#clip770)" style="stroke:#000000; stroke-linecap:butt; stroke-linejoin:round; stroke-width:4; stroke-opacity:1; fill:none" points="
  1933.52,289.865 2280.06,289.865 2280.06,168.905 1933.52,168.905 1933.52,289.865 
  "/>
<polyline clip-path="url(#clip770)" style="stroke:#009af9; stroke-linecap:butt; stroke-linejoin:round; stroke-width:4; stroke-opacity:1; fill:none" points="
  1957.75,229.385 2103.14,229.385 
  "/>
<path clip-path="url(#clip770)" d="M2132.04 215.947 L2132.04 242.822 L2137.69 242.822 Q2144.84 242.822 2148.15 239.581 Q2151.49 236.341 2151.49 229.35 Q2151.49 222.406 2148.15 219.188 Q2144.84 215.947 2137.69 215.947 L2132.04 215.947 M2127.37 212.105 L2136.97 212.105 Q2147.02 212.105 2151.72 216.294 Q2156.42 220.461 2156.42 229.35 Q2156.42 238.285 2151.7 242.475 Q2146.97 246.665 2136.97 246.665 L2127.37 246.665 L2127.37 212.105 Z" fill="#000000" fill-rule="evenodd" fill-opacity="1" /><path clip-path="url(#clip770)" d="M2175.47 233.632 Q2170.31 233.632 2168.32 234.813 Q2166.33 235.993 2166.33 238.841 Q2166.33 241.109 2167.81 242.452 Q2169.31 243.771 2171.88 243.771 Q2175.42 243.771 2177.55 241.271 Q2179.71 238.748 2179.71 234.581 L2179.71 233.632 L2175.47 233.632 M2183.96 231.873 L2183.96 246.665 L2179.71 246.665 L2179.71 242.729 Q2178.25 245.091 2176.07 246.225 Q2173.9 247.336 2170.75 247.336 Q2166.77 247.336 2164.4 245.114 Q2162.07 242.868 2162.07 239.118 Q2162.07 234.743 2164.98 232.521 Q2167.92 230.299 2173.73 230.299 L2179.71 230.299 L2179.71 229.882 Q2179.71 226.943 2177.76 225.345 Q2175.84 223.725 2172.34 223.725 Q2170.12 223.725 2168.02 224.257 Q2165.91 224.79 2163.97 225.855 L2163.97 221.919 Q2166.3 221.017 2168.5 220.577 Q2170.7 220.114 2172.78 220.114 Q2178.41 220.114 2181.19 223.031 Q2183.96 225.947 2183.96 231.873 Z" fill="#000000" fill-rule="evenodd" fill-opacity="1" /><path clip-path="url(#clip770)" d="M2196.95 213.378 L2196.95 220.739 L2205.72 220.739 L2205.72 224.049 L2196.95 224.049 L2196.95 238.123 Q2196.95 241.294 2197.81 242.197 Q2198.69 243.1 2201.35 243.1 L2205.72 243.1 L2205.72 246.665 L2201.35 246.665 Q2196.42 246.665 2194.54 244.836 Q2192.67 242.984 2192.67 238.123 L2192.67 224.049 L2189.54 224.049 L2189.54 220.739 L2192.67 220.739 L2192.67 213.378 L2196.95 213.378 Z" fill="#000000" fill-rule="evenodd" fill-opacity="1" /><path clip-path="url(#clip770)" d="M2223.11 233.632 Q2217.95 233.632 2215.96 234.813 Q2213.96 235.993 2213.96 238.841 Q2213.96 241.109 2215.45 242.452 Q2216.95 243.771 2219.52 243.771 Q2223.06 243.771 2225.19 241.271 Q2227.34 238.748 2227.34 234.581 L2227.34 233.632 L2223.11 233.632 M2231.6 231.873 L2231.6 246.665 L2227.34 246.665 L2227.34 242.729 Q2225.89 245.091 2223.71 246.225 Q2221.53 247.336 2218.39 247.336 Q2214.4 247.336 2212.04 245.114 Q2209.71 242.868 2209.71 239.118 Q2209.71 234.743 2212.62 232.521 Q2215.56 230.299 2221.37 230.299 L2227.34 230.299 L2227.34 229.882 Q2227.34 226.943 2225.4 225.345 Q2223.48 223.725 2219.98 223.725 Q2217.76 223.725 2215.65 224.257 Q2213.55 224.79 2211.6 225.855 L2211.6 221.919 Q2213.94 221.017 2216.14 220.577 Q2218.34 220.114 2220.42 220.114 Q2226.05 220.114 2228.83 223.031 Q2231.6 225.947 2231.6 231.873 Z" fill="#000000" fill-rule="evenodd" fill-opacity="1" /></svg>
