<?xml version="1.0" encoding="utf-8"?>
<svg xmlns="http://www.w3.org/2000/svg" xmlns:xlink="http://www.w3.org/1999/xlink" width="600" height="400" viewBox="0 0 2400 1600">
<defs>
  <clipPath id="clip370">
    <rect x="0" y="0" width="2400" height="1600"/>
  </clipPath>
</defs>
<path clip-path="url(#clip370)" d="
M0 1600 L2400 1600 L2400 0 L0 0  Z
  " fill="#ffffff" fill-rule="evenodd" fill-opacity="1"/>
<defs>
  <clipPath id="clip371">
    <rect x="480" y="0" width="1681" height="1600"/>
  </clipPath>
</defs>
<path clip-path="url(#clip370)" d="
M166.205 1486.45 L2352.76 1486.45 L2352.76 123.472 L166.205 123.472  Z
  " fill="#ffffff" fill-rule="evenodd" fill-opacity="1"/>
<defs>
  <clipPath id="clip372">
    <rect x="166" y="123" width="2188" height="1364"/>
  </clipPath>
</defs>
<polyline clip-path="url(#clip372)" style="stroke:#000000; stroke-width:2; stroke-opacity:0.1; fill:none" points="
  228.088,1486.45 228.088,123.472 
  "/>
<polyline clip-path="url(#clip372)" style="stroke:#000000; stroke-width:2; stroke-opacity:0.1; fill:none" points="
  743.784,1486.45 743.784,123.472 
  "/>
<polyline clip-path="url(#clip372)" style="stroke:#000000; stroke-width:2; stroke-opacity:0.1; fill:none" points="
  1259.48,1486.45 1259.48,123.472 
  "/>
<polyline clip-path="url(#clip372)" style="stroke:#000000; stroke-width:2; stroke-opacity:0.1; fill:none" points="
  1775.18,1486.45 1775.18,123.472 
  "/>
<polyline clip-path="url(#clip372)" style="stroke:#000000; stroke-width:2; stroke-opacity:0.1; fill:none" points="
  2290.87,1486.45 2290.87,123.472 
  "/>
<polyline clip-path="url(#clip370)" style="stroke:#000000; stroke-width:4; stroke-opacity:1; fill:none" points="
  166.205,1486.45 2352.76,1486.45 
  "/>
<polyline clip-path="url(#clip370)" style="stroke:#000000; stroke-width:4; stroke-opacity:1; fill:none" points="
  228.088,1486.45 228.088,1470.09 
  "/>
<polyline clip-path="url(#clip370)" style="stroke:#000000; stroke-width:4; stroke-opacity:1; fill:none" points="
  743.784,1486.45 743.784,1470.09 
  "/>
<polyline clip-path="url(#clip370)" style="stroke:#000000; stroke-width:4; stroke-opacity:1; fill:none" points="
  1259.48,1486.45 1259.48,1470.09 
  "/>
<polyline clip-path="url(#clip370)" style="stroke:#000000; stroke-width:4; stroke-opacity:1; fill:none" points="
  1775.18,1486.45 1775.18,1470.09 
  "/>
<polyline clip-path="url(#clip370)" style="stroke:#000000; stroke-width:4; stroke-opacity:1; fill:none" points="
  2290.87,1486.45 2290.87,1470.09 
  "/>
<path clip-path="url(#clip370)" d="M 0 0 M199.5 1530.29 L229.176 1530.29 L229.176 1534.23 L199.5 1534.23 L199.5 1530.29 Z" fill="#000000" fill-rule="evenodd" fill-opacity="1" /><path clip-path="url(#clip370)" d="M 0 0 M247.093 1516.63 L235.287 1535.08 L247.093 1535.08 L247.093 1516.63 M245.866 1512.56 L251.745 1512.56 L251.745 1535.08 L256.676 1535.08 L256.676 1538.97 L251.745 1538.97 L251.745 1547.12 L247.093 1547.12 L247.093 1538.97 L231.491 1538.97 L231.491 1534.46 L245.866 1512.56 Z" fill="#000000" fill-rule="evenodd" fill-opacity="1" /><path clip-path="url(#clip370)" d="M 0 0 M716.238 1530.29 L745.914 1530.29 L745.914 1534.23 L716.238 1534.23 L716.238 1530.29 Z" fill="#000000" fill-rule="evenodd" fill-opacity="1" /><path clip-path="url(#clip370)" d="M 0 0 M755.011 1543.18 L771.33 1543.18 L771.33 1547.12 L749.386 1547.12 L749.386 1543.18 Q752.048 1540.43 756.631 1535.8 Q761.238 1531.15 762.418 1529.81 Q764.664 1527.28 765.543 1525.55 Q766.446 1523.79 766.446 1522.1 Q766.446 1519.34 764.502 1517.61 Q762.58 1515.87 759.479 1515.87 Q757.28 1515.87 754.826 1516.63 Q752.395 1517.4 749.618 1518.95 L749.618 1514.23 Q752.442 1513.09 754.895 1512.51 Q757.349 1511.93 759.386 1511.93 Q764.756 1511.93 767.951 1514.62 Q771.145 1517.31 771.145 1521.8 Q771.145 1523.93 770.335 1525.85 Q769.548 1527.74 767.442 1530.34 Q766.863 1531.01 763.761 1534.23 Q760.659 1537.42 755.011 1543.18 Z" fill="#000000" fill-rule="evenodd" fill-opacity="1" /><path clip-path="url(#clip370)" d="M 0 0 M1259.48 1515.64 Q1255.87 1515.64 1254.04 1519.2 Q1252.23 1522.75 1252.23 1529.87 Q1252.23 1536.98 1254.04 1540.55 Q1255.87 1544.09 1259.48 1544.09 Q1263.11 1544.09 1264.92 1540.55 Q1266.75 1536.98 1266.75 1529.87 Q1266.75 1522.75 1264.92 1519.2 Q1263.11 1515.64 1259.48 1515.64 M1259.48 1511.93 Q1265.29 1511.93 1268.35 1516.54 Q1271.42 1521.12 1271.42 1529.87 Q1271.42 1538.6 1268.35 1543.21 Q1265.29 1547.79 1259.48 1547.79 Q1253.67 1547.79 1250.59 1543.21 Q1247.54 1538.6 1247.54 1529.87 Q1247.54 1521.12 1250.59 1516.54 Q1253.67 1511.93 1259.48 1511.93 Z" fill="#000000" fill-rule="evenodd" fill-opacity="1" /><path clip-path="url(#clip370)" d="M 0 0 M1769.83 1543.18 L1786.15 1543.18 L1786.15 1547.12 L1764.2 1547.12 L1764.2 1543.18 Q1766.87 1540.43 1771.45 1535.8 Q1776.06 1531.15 1777.24 1529.81 Q1779.48 1527.28 1780.36 1525.55 Q1781.26 1523.79 1781.26 1522.1 Q1781.26 1519.34 1779.32 1517.61 Q1777.4 1515.87 1774.3 1515.87 Q1772.1 1515.87 1769.64 1516.63 Q1767.21 1517.4 1764.44 1518.95 L1764.44 1514.23 Q1767.26 1513.09 1769.71 1512.51 Q1772.17 1511.93 1774.2 1511.93 Q1779.57 1511.93 1782.77 1514.62 Q1785.96 1517.31 1785.96 1521.8 Q1785.96 1523.93 1785.15 1525.85 Q1784.37 1527.74 1782.26 1530.34 Q1781.68 1531.01 1778.58 1534.23 Q1775.48 1537.42 1769.83 1543.18 Z" fill="#000000" fill-rule="evenodd" fill-opacity="1" /><path clip-path="url(#clip370)" d="M 0 0 M2293.88 1516.63 L2282.08 1535.08 L2293.88 1535.08 L2293.88 1516.63 M2292.65 1512.56 L2298.53 1512.56 L2298.53 1535.08 L2303.46 1535.08 L2303.46 1538.97 L2298.53 1538.97 L2298.53 1547.12 L2293.88 1547.12 L2293.88 1538.97 L2278.28 1538.97 L2278.28 1534.46 L2292.65 1512.56 Z" fill="#000000" fill-rule="evenodd" fill-opacity="1" /><polyline clip-path="url(#clip372)" style="stroke:#000000; stroke-width:2; stroke-opacity:0.1; fill:none" points="
  166.205,1447.87 2352.76,1447.87 
  "/>
<polyline clip-path="url(#clip372)" style="stroke:#000000; stroke-width:2; stroke-opacity:0.1; fill:none" points="
  166.205,1162.13 2352.76,1162.13 
  "/>
<polyline clip-path="url(#clip372)" style="stroke:#000000; stroke-width:2; stroke-opacity:0.1; fill:none" points="
  166.205,876.395 2352.76,876.395 
  "/>
<polyline clip-path="url(#clip372)" style="stroke:#000000; stroke-width:2; stroke-opacity:0.1; fill:none" points="
  166.205,590.656 2352.76,590.656 
  "/>
<polyline clip-path="url(#clip372)" style="stroke:#000000; stroke-width:2; stroke-opacity:0.1; fill:none" points="
  166.205,304.916 2352.76,304.916 
  "/>
<polyline clip-path="url(#clip370)" style="stroke:#000000; stroke-width:4; stroke-opacity:1; fill:none" points="
  166.205,1486.45 166.205,123.472 
  "/>
<polyline clip-path="url(#clip370)" style="stroke:#000000; stroke-width:4; stroke-opacity:1; fill:none" points="
  166.205,1447.87 192.443,1447.87 
  "/>
<polyline clip-path="url(#clip370)" style="stroke:#000000; stroke-width:4; stroke-opacity:1; fill:none" points="
  166.205,1162.13 192.443,1162.13 
  "/>
<polyline clip-path="url(#clip370)" style="stroke:#000000; stroke-width:4; stroke-opacity:1; fill:none" points="
  166.205,876.395 192.443,876.395 
  "/>
<polyline clip-path="url(#clip370)" style="stroke:#000000; stroke-width:4; stroke-opacity:1; fill:none" points="
  166.205,590.656 192.443,590.656 
  "/>
<polyline clip-path="url(#clip370)" style="stroke:#000000; stroke-width:4; stroke-opacity:1; fill:none" points="
  166.205,304.916 192.443,304.916 
  "/>
<path clip-path="url(#clip370)" d="M 0 0 M118.26 1433.67 Q114.649 1433.67 112.82 1437.24 Q111.015 1440.78 111.015 1447.91 Q111.015 1455.01 112.82 1458.58 Q114.649 1462.12 118.26 1462.12 Q121.895 1462.12 123.7 1458.58 Q125.529 1455.01 125.529 1447.91 Q125.529 1440.78 123.7 1437.24 Q121.895 1433.67 118.26 1433.67 M118.26 1429.97 Q124.07 1429.97 127.126 1434.57 Q130.205 1439.16 130.205 1447.91 Q130.205 1456.63 127.126 1461.24 Q124.07 1465.82 118.26 1465.82 Q112.45 1465.82 109.371 1461.24 Q106.316 1456.63 106.316 1447.91 Q106.316 1439.16 109.371 1434.57 Q112.45 1429.97 118.26 1429.97 Z" fill="#000000" fill-rule="evenodd" fill-opacity="1" /><path clip-path="url(#clip370)" d="M 0 0 M59.8578 1175.48 L76.1772 1175.48 L76.1772 1179.41 L54.2328 1179.41 L54.2328 1175.48 Q56.8949 1172.72 61.4782 1168.09 Q66.0846 1163.44 67.2652 1162.1 Q69.5105 1159.58 70.3902 1157.84 Q71.2929 1156.08 71.2929 1154.39 Q71.2929 1151.64 69.3485 1149.9 Q67.4272 1148.16 64.3254 1148.16 Q62.1263 1148.16 59.6726 1148.93 Q57.2421 1149.69 54.4643 1151.24 L54.4643 1146.52 Q57.2884 1145.39 59.7421 1144.81 Q62.1958 1144.23 64.2328 1144.23 Q69.6031 1144.23 72.7976 1146.91 Q75.992 1149.6 75.992 1154.09 Q75.992 1156.22 75.1818 1158.14 Q74.3948 1160.04 72.2883 1162.63 Q71.7096 1163.3 68.6078 1166.52 Q65.5059 1169.71 59.8578 1175.48 Z" fill="#000000" fill-rule="evenodd" fill-opacity="1" /><path clip-path="url(#clip370)" d="M 0 0 M91.2465 1147.93 Q87.6354 1147.93 85.8068 1151.5 Q84.0012 1155.04 84.0012 1162.17 Q84.0012 1169.28 85.8068 1172.84 Q87.6354 1176.38 91.2465 1176.38 Q94.8808 1176.38 96.6863 1172.84 Q98.515 1169.28 98.515 1162.17 Q98.515 1155.04 96.6863 1151.5 Q94.8808 1147.93 91.2465 1147.93 M91.2465 1144.23 Q97.0567 1144.23 100.112 1148.84 Q103.191 1153.42 103.191 1162.17 Q103.191 1170.9 100.112 1175.5 Q97.0567 1180.09 91.2465 1180.09 Q85.4364 1180.09 82.3577 1175.5 Q79.3022 1170.9 79.3022 1162.17 Q79.3022 1153.42 82.3577 1148.84 Q85.4364 1144.23 91.2465 1144.23 Z" fill="#000000" fill-rule="evenodd" fill-opacity="1" /><path clip-path="url(#clip370)" d="M 0 0 M118.26 1147.93 Q114.649 1147.93 112.82 1151.5 Q111.015 1155.04 111.015 1162.17 Q111.015 1169.28 112.82 1172.84 Q114.649 1176.38 118.26 1176.38 Q121.895 1176.38 123.7 1172.84 Q125.529 1169.28 125.529 1162.17 Q125.529 1155.04 123.7 1151.5 Q121.895 1147.93 118.26 1147.93 M118.26 1144.23 Q124.07 1144.23 127.126 1148.84 Q130.205 1153.42 130.205 1162.17 Q130.205 1170.9 127.126 1175.5 Q124.07 1180.09 118.26 1180.09 Q112.45 1180.09 109.371 1175.5 Q106.316 1170.9 106.316 1162.17 Q106.316 1153.42 109.371 1148.84 Q112.45 1144.23 118.26 1144.23 Z" fill="#000000" fill-rule="evenodd" fill-opacity="1" /><path clip-path="url(#clip370)" d="M 0 0 M66.5939 863.189 L54.7884 881.638 L66.5939 881.638 L66.5939 863.189 M65.367 859.115 L71.2466 859.115 L71.2466 881.638 L76.1772 881.638 L76.1772 885.527 L71.2466 885.527 L71.2466 893.675 L66.5939 893.675 L66.5939 885.527 L50.9921 885.527 L50.9921 881.013 L65.367 859.115 Z" fill="#000000" fill-rule="evenodd" fill-opacity="1" /><path clip-path="url(#clip370)" d="M 0 0 M91.2465 862.193 Q87.6354 862.193 85.8068 865.758 Q84.0012 869.3 84.0012 876.43 Q84.0012 883.536 85.8068 887.101 Q87.6354 890.642 91.2465 890.642 Q94.8808 890.642 96.6863 887.101 Q98.515 883.536 98.515 876.43 Q98.515 869.3 96.6863 865.758 Q94.8808 862.193 91.2465 862.193 M91.2465 858.49 Q97.0567 858.49 100.112 863.096 Q103.191 867.68 103.191 876.43 Q103.191 885.156 100.112 889.763 Q97.0567 894.346 91.2465 894.346 Q85.4364 894.346 82.3577 889.763 Q79.3022 885.156 79.3022 876.43 Q79.3022 867.68 82.3577 863.096 Q85.4364 858.49 91.2465 858.49 Z" fill="#000000" fill-rule="evenodd" fill-opacity="1" /><path clip-path="url(#clip370)" d="M 0 0 M118.26 862.193 Q114.649 862.193 112.82 865.758 Q111.015 869.3 111.015 876.43 Q111.015 883.536 112.82 887.101 Q114.649 890.642 118.26 890.642 Q121.895 890.642 123.7 887.101 Q125.529 883.536 125.529 876.43 Q125.529 869.3 123.7 865.758 Q121.895 862.193 118.26 862.193 M118.26 858.49 Q124.07 858.49 127.126 863.096 Q130.205 867.68 130.205 876.43 Q130.205 885.156 127.126 889.763 Q124.07 894.346 118.26 894.346 Q112.45 894.346 109.371 889.763 Q106.316 885.156 106.316 876.43 Q106.316 867.68 109.371 863.096 Q112.45 858.49 118.26 858.49 Z" fill="#000000" fill-rule="evenodd" fill-opacity="1" /><path clip-path="url(#clip370)" d="M 0 0 M64.6495 588.792 Q61.5013 588.792 59.6495 590.945 Q57.8208 593.098 57.8208 596.848 Q57.8208 600.575 59.6495 602.75 Q61.5013 604.903 64.6495 604.903 Q67.7976 604.903 69.6263 602.75 Q71.4781 600.575 71.4781 596.848 Q71.4781 593.098 69.6263 590.945 Q67.7976 588.792 64.6495 588.792 M73.9318 574.14 L73.9318 578.399 Q72.1726 577.565 70.367 577.126 Q68.5846 576.686 66.8254 576.686 Q62.1958 576.686 59.7421 579.811 Q57.3115 582.936 56.9643 589.255 Q58.33 587.241 60.3902 586.176 Q62.4504 585.089 64.9272 585.089 Q70.1355 585.089 73.1448 588.26 Q76.1772 591.408 76.1772 596.848 Q76.1772 602.172 73.029 605.389 Q69.8809 608.607 64.6495 608.607 Q58.6541 608.607 55.4828 604.024 Q52.3116 599.417 52.3116 590.69 Q52.3116 582.496 56.2004 577.635 Q60.0893 572.751 66.6402 572.751 Q68.3994 572.751 70.1818 573.098 Q71.9874 573.445 73.9318 574.14 Z" fill="#000000" fill-rule="evenodd" fill-opacity="1" /><path clip-path="url(#clip370)" d="M 0 0 M91.2465 576.454 Q87.6354 576.454 85.8068 580.019 Q84.0012 583.561 84.0012 590.69 Q84.0012 597.797 85.8068 601.362 Q87.6354 604.903 91.2465 604.903 Q94.8808 604.903 96.6863 601.362 Q98.515 597.797 98.515 590.69 Q98.515 583.561 96.6863 580.019 Q94.8808 576.454 91.2465 576.454 M91.2465 572.751 Q97.0567 572.751 100.112 577.357 Q103.191 581.94 103.191 590.69 Q103.191 599.417 100.112 604.024 Q97.0567 608.607 91.2465 608.607 Q85.4364 608.607 82.3577 604.024 Q79.3022 599.417 79.3022 590.69 Q79.3022 581.94 82.3577 577.357 Q85.4364 572.751 91.2465 572.751 Z" fill="#000000" fill-rule="evenodd" fill-opacity="1" /><path clip-path="url(#clip370)" d="M 0 0 M118.26 576.454 Q114.649 576.454 112.82 580.019 Q111.015 583.561 111.015 590.69 Q111.015 597.797 112.82 601.362 Q114.649 604.903 118.26 604.903 Q121.895 604.903 123.7 601.362 Q125.529 597.797 125.529 590.69 Q125.529 583.561 123.7 580.019 Q121.895 576.454 118.26 576.454 M118.26 572.751 Q124.07 572.751 127.126 577.357 Q130.205 581.94 130.205 590.69 Q130.205 599.417 127.126 604.024 Q124.07 608.607 118.26 608.607 Q112.45 608.607 109.371 604.024 Q106.316 599.417 106.316 590.69 Q106.316 581.94 109.371 577.357 Q112.45 572.751 118.26 572.751 Z" fill="#000000" fill-rule="evenodd" fill-opacity="1" /><path clip-path="url(#clip370)" d="M 0 0 M64.3254 305.785 Q60.9921 305.785 59.0708 307.567 Q57.1726 309.349 57.1726 312.474 Q57.1726 315.599 59.0708 317.382 Q60.9921 319.164 64.3254 319.164 Q67.6587 319.164 69.58 317.382 Q71.5013 315.576 71.5013 312.474 Q71.5013 309.349 69.58 307.567 Q67.6819 305.785 64.3254 305.785 M59.6495 303.794 Q56.6402 303.053 54.9504 300.993 Q53.2838 298.933 53.2838 295.97 Q53.2838 291.826 56.2236 289.419 Q59.1865 287.011 64.3254 287.011 Q69.4874 287.011 72.4272 289.419 Q75.367 291.826 75.367 295.97 Q75.367 298.933 73.6772 300.993 Q72.0105 303.053 69.0244 303.794 Q72.404 304.581 74.279 306.872 Q76.1772 309.164 76.1772 312.474 Q76.1772 317.497 73.0985 320.183 Q70.0429 322.868 64.3254 322.868 Q58.6078 322.868 55.5291 320.183 Q52.4736 317.497 52.4736 312.474 Q52.4736 309.164 54.3717 306.872 Q56.2699 304.581 59.6495 303.794 M57.9365 296.41 Q57.9365 299.095 59.6032 300.599 Q61.293 302.104 64.3254 302.104 Q67.3346 302.104 69.0244 300.599 Q70.7374 299.095 70.7374 296.41 Q70.7374 293.724 69.0244 292.22 Q67.3346 290.715 64.3254 290.715 Q61.293 290.715 59.6032 292.22 Q57.9365 293.724 57.9365 296.41 Z" fill="#000000" fill-rule="evenodd" fill-opacity="1" /><path clip-path="url(#clip370)" d="M 0 0 M91.2465 290.715 Q87.6354 290.715 85.8068 294.28 Q84.0012 297.822 84.0012 304.951 Q84.0012 312.058 85.8068 315.622 Q87.6354 319.164 91.2465 319.164 Q94.8808 319.164 96.6863 315.622 Q98.515 312.058 98.515 304.951 Q98.515 297.822 96.6863 294.28 Q94.8808 290.715 91.2465 290.715 M91.2465 287.011 Q97.0567 287.011 100.112 291.618 Q103.191 296.201 103.191 304.951 Q103.191 313.678 100.112 318.284 Q97.0567 322.868 91.2465 322.868 Q85.4364 322.868 82.3577 318.284 Q79.3022 313.678 79.3022 304.951 Q79.3022 296.201 82.3577 291.618 Q85.4364 287.011 91.2465 287.011 Z" fill="#000000" fill-rule="evenodd" fill-opacity="1" /><path clip-path="url(#clip370)" d="M 0 0 M118.26 290.715 Q114.649 290.715 112.82 294.28 Q111.015 297.822 111.015 304.951 Q111.015 312.058 112.82 315.622 Q114.649 319.164 118.26 319.164 Q121.895 319.164 123.7 315.622 Q125.529 312.058 125.529 304.951 Q125.529 297.822 123.7 294.28 Q121.895 290.715 118.26 290.715 M118.26 287.011 Q124.07 287.011 127.126 291.618 Q130.205 296.201 130.205 304.951 Q130.205 313.678 127.126 318.284 Q124.07 322.868 118.26 322.868 Q112.45 322.868 109.371 318.284 Q106.316 313.678 106.316 304.951 Q106.316 296.201 109.371 291.618 Q112.45 287.011 118.26 287.011 Z" fill="#000000" fill-rule="evenodd" fill-opacity="1" /><path clip-path="url(#clip370)" d="M 0 0 M697.458 18.8205 L697.458 65.8515 L707.342 65.8515 Q719.859 65.8515 725.652 60.1802 Q731.485 54.509 731.485 42.2752 Q731.485 30.1225 725.652 24.4918 Q719.859 18.8205 707.342 18.8205 L697.458 18.8205 M689.275 12.096 L706.086 12.096 Q723.667 12.096 731.891 19.4281 Q740.114 26.7198 740.114 42.2752 Q740.114 57.9117 731.85 65.2439 Q723.586 72.576 706.086 72.576 L689.275 72.576 L689.275 12.096 Z" fill="#000000" fill-rule="evenodd" fill-opacity="1" /><path clip-path="url(#clip370)" d="M 0 0 M768.551 49.7694 Q759.518 49.7694 756.034 51.8354 Q752.55 53.9013 752.55 58.8839 Q752.55 62.8538 755.143 65.2034 Q757.776 67.5124 762.272 67.5124 Q768.47 67.5124 772.197 63.1374 Q775.964 58.7219 775.964 51.4303 L775.964 49.7694 L768.551 49.7694 M783.418 46.6907 L783.418 72.576 L775.964 72.576 L775.964 65.6895 Q773.412 69.8214 769.604 71.8063 Q765.797 73.7508 760.287 73.7508 Q753.32 73.7508 749.188 69.8619 Q745.096 65.9325 745.096 59.3701 Q745.096 51.7138 750.201 47.825 Q755.345 43.9361 765.513 43.9361 L775.964 43.9361 L775.964 43.2069 Q775.964 38.0623 772.562 35.2672 Q769.199 32.4315 763.082 32.4315 Q759.194 32.4315 755.507 33.3632 Q751.821 34.295 748.418 36.1584 L748.418 29.2718 Q752.51 27.692 756.358 26.9223 Q760.206 26.1121 763.852 26.1121 Q773.696 26.1121 778.557 31.2163 Q783.418 36.3204 783.418 46.6907 Z" fill="#000000" fill-rule="evenodd" fill-opacity="1" /><path clip-path="url(#clip370)" d="M 0 0 M798.609 14.324 L798.609 27.2059 L813.962 27.2059 L813.962 32.9987 L798.609 32.9987 L798.609 57.6282 Q798.609 63.1779 800.108 64.7578 Q801.647 66.3376 806.306 66.3376 L813.962 66.3376 L813.962 72.576 L806.306 72.576 Q797.677 72.576 794.396 69.3758 Q791.115 66.1351 791.115 57.6282 L791.115 32.9987 L785.646 32.9987 L785.646 27.2059 L791.115 27.2059 L791.115 14.324 L798.609 14.324 Z" fill="#000000" fill-rule="evenodd" fill-opacity="1" /><path clip-path="url(#clip370)" d="M 0 0 M842.399 49.7694 Q833.366 49.7694 829.882 51.8354 Q826.398 53.9013 826.398 58.8839 Q826.398 62.8538 828.991 65.2034 Q831.624 67.5124 836.12 67.5124 Q842.318 67.5124 846.045 63.1374 Q849.812 58.7219 849.812 51.4303 L849.812 49.7694 L842.399 49.7694 M857.266 46.6907 L857.266 72.576 L849.812 72.576 L849.812 65.6895 Q847.26 69.8214 843.452 71.8063 Q839.645 73.7508 834.135 73.7508 Q827.168 73.7508 823.036 69.8619 Q818.944 65.9325 818.944 59.3701 Q818.944 51.7138 824.049 47.825 Q829.193 43.9361 839.361 43.9361 L849.812 43.9361 L849.812 43.2069 Q849.812 38.0623 846.41 35.2672 Q843.047 32.4315 836.93 32.4315 Q833.042 32.4315 829.355 33.3632 Q825.669 34.295 822.266 36.1584 L822.266 29.2718 Q826.358 27.692 830.206 26.9223 Q834.054 26.1121 837.7 26.1121 Q847.544 26.1121 852.405 31.2163 Q857.266 36.3204 857.266 46.6907 Z" fill="#000000" fill-rule="evenodd" fill-opacity="1" /><path clip-path="url(#clip370)" d="M 0 0 M912.075 49.7694 Q903.041 49.7694 899.557 51.8354 Q896.074 53.9013 896.074 58.8839 Q896.074 62.8538 898.666 65.2034 Q901.299 67.5124 905.796 67.5124 Q911.994 67.5124 915.721 63.1374 Q919.488 58.7219 919.488 51.4303 L919.488 49.7694 L912.075 49.7694 M926.942 46.6907 L926.942 72.576 L919.488 72.576 L919.488 65.6895 Q916.936 69.8214 913.128 71.8063 Q909.32 73.7508 903.811 73.7508 Q896.843 73.7508 892.711 69.8619 Q888.62 65.9325 888.62 59.3701 Q888.62 51.7138 893.724 47.825 Q898.869 43.9361 909.037 43.9361 L919.488 43.9361 L919.488 43.2069 Q919.488 38.0623 916.085 35.2672 Q912.723 32.4315 906.606 32.4315 Q902.717 32.4315 899.031 33.3632 Q895.345 34.295 891.942 36.1584 L891.942 29.2718 Q896.033 27.692 899.882 26.9223 Q903.73 26.1121 907.376 26.1121 Q917.219 26.1121 922.08 31.2163 Q926.942 36.3204 926.942 46.6907 Z" fill="#000000" fill-rule="evenodd" fill-opacity="1" /><path clip-path="url(#clip370)" d="M 0 0 M972.474 45.1919 L972.474 72.576 L965.02 72.576 L965.02 45.4349 Q965.02 38.994 962.508 35.7938 Q959.997 32.5936 954.974 32.5936 Q948.938 32.5936 945.454 36.4419 Q941.97 40.2903 941.97 46.9338 L941.97 72.576 L934.476 72.576 L934.476 27.2059 L941.97 27.2059 L941.97 34.2544 Q944.644 30.163 948.249 28.1376 Q951.895 26.1121 956.635 26.1121 Q964.453 26.1121 968.463 30.9732 Q972.474 35.7938 972.474 45.1919 Z" fill="#000000" fill-rule="evenodd" fill-opacity="1" /><path clip-path="url(#clip370)" d="M 0 0 M1010.15 34.0924 L1010.15 9.54393 L1017.6 9.54393 L1017.6 72.576 L1010.15 72.576 L1010.15 65.7705 Q1007.8 69.8214 1004.19 71.8063 Q1000.63 73.7508 995.604 73.7508 Q987.381 73.7508 982.196 67.1883 Q977.051 60.6258 977.051 49.9314 Q977.051 39.2371 982.196 32.6746 Q987.381 26.1121 995.604 26.1121 Q1000.63 26.1121 1004.19 28.0971 Q1007.8 30.0415 1010.15 34.0924 M984.748 49.9314 Q984.748 58.1548 988.11 62.8538 Q991.513 67.5124 997.427 67.5124 Q1003.34 67.5124 1006.74 62.8538 Q1010.15 58.1548 1010.15 49.9314 Q1010.15 41.7081 1006.74 37.0496 Q1003.34 32.3505 997.427 32.3505 Q991.513 32.3505 988.11 37.0496 Q984.748 41.7081 984.748 49.9314 Z" fill="#000000" fill-rule="evenodd" fill-opacity="1" /><path clip-path="url(#clip370)" d="M 0 0 M1043.73 12.096 L1094.89 12.096 L1094.89 18.9825 L1073.42 18.9825 L1073.42 72.576 L1065.2 72.576 L1065.2 18.9825 L1043.73 18.9825 L1043.73 12.096 Z" fill="#000000" fill-rule="evenodd" fill-opacity="1" /><path clip-path="url(#clip370)" d="M 0 0 M1116.81 34.1734 Q1115.55 33.4443 1114.05 33.1202 Q1112.59 32.7556 1110.81 32.7556 Q1104.49 32.7556 1101.09 36.8875 Q1097.73 40.9789 1097.73 48.6757 L1097.73 72.576 L1090.23 72.576 L1090.23 27.2059 L1097.73 27.2059 L1097.73 34.2544 Q1100.08 30.1225 1103.84 28.1376 Q1107.61 26.1121 1113 26.1121 Q1113.77 26.1121 1114.7 26.2337 Q1115.63 26.3147 1116.77 26.5172 L1116.81 34.1734 Z" fill="#000000" fill-rule="evenodd" fill-opacity="1" /><path clip-path="url(#clip370)" d="M 0 0 M1123.86 54.671 L1123.86 27.2059 L1131.31 27.2059 L1131.31 54.3874 Q1131.31 60.8284 1133.82 64.0691 Q1136.33 67.2693 1141.36 67.2693 Q1147.39 67.2693 1150.88 63.421 Q1154.4 59.5726 1154.4 52.9291 L1154.4 27.2059 L1161.85 27.2059 L1161.85 72.576 L1154.4 72.576 L1154.4 65.6084 Q1151.69 69.7404 1148.08 71.7658 Q1144.52 73.7508 1139.78 73.7508 Q1131.96 73.7508 1127.91 68.8897 Q1123.86 64.0286 1123.86 54.671 M1142.61 26.1121 L1142.61 26.1121 Z" fill="#000000" fill-rule="evenodd" fill-opacity="1" /><path clip-path="url(#clip370)" d="M 0 0 M1208.48 48.0275 L1208.48 51.6733 L1174.21 51.6733 Q1174.69 59.3701 1178.83 63.421 Q1183 67.4314 1190.41 67.4314 Q1194.71 67.4314 1198.72 66.3781 Q1202.77 65.3249 1206.74 63.2184 L1206.74 70.267 Q1202.73 71.9684 1198.51 72.8596 Q1194.3 73.7508 1189.97 73.7508 Q1179.11 73.7508 1172.75 67.4314 Q1166.43 61.1119 1166.43 50.3365 Q1166.43 39.1965 1172.43 32.6746 Q1178.46 26.1121 1188.67 26.1121 Q1197.83 26.1121 1203.13 32.0264 Q1208.48 37.9003 1208.48 48.0275 M1201.03 45.84 Q1200.94 39.7232 1197.58 36.0774 Q1194.26 32.4315 1188.75 32.4315 Q1182.51 32.4315 1178.75 35.9558 Q1175.02 39.4801 1174.45 45.8805 L1201.03 45.84 Z" fill="#000000" fill-rule="evenodd" fill-opacity="1" /><path clip-path="url(#clip370)" d="M 0 0 M1279.25 14.0809 L1279.25 22.0612 Q1274.59 19.8332 1270.46 18.7395 Q1266.33 17.6457 1262.48 17.6457 Q1255.79 17.6457 1252.15 20.2383 Q1248.54 22.8309 1248.54 27.611 Q1248.54 31.6214 1250.93 33.6873 Q1253.36 35.7128 1260.09 36.9686 L1265.03 37.9813 Q1274.19 39.7232 1278.52 44.1387 Q1282.89 48.5136 1282.89 55.8863 Q1282.89 64.6767 1276.98 69.2137 Q1271.11 73.7508 1259.72 73.7508 Q1255.43 73.7508 1250.57 72.7785 Q1245.75 71.8063 1240.56 69.9024 L1240.56 61.4765 Q1245.55 64.2716 1250.33 65.6895 Q1255.11 67.1073 1259.72 67.1073 Q1266.73 67.1073 1270.54 64.3527 Q1274.35 61.598 1274.35 56.4939 Q1274.35 52.0379 1271.59 49.5264 Q1268.88 47.0148 1262.64 45.759 L1257.66 44.7868 Q1248.5 42.9639 1244.41 39.075 Q1240.32 35.1862 1240.32 28.2591 Q1240.32 20.2383 1245.95 15.6203 Q1251.62 11.0023 1261.55 11.0023 Q1265.8 11.0023 1270.22 11.7719 Q1274.63 12.5416 1279.25 14.0809 Z" fill="#000000" fill-rule="evenodd" fill-opacity="1" /><path clip-path="url(#clip370)" d="M 0 0 M1298.09 14.324 L1298.09 27.2059 L1313.44 27.2059 L1313.44 32.9987 L1298.09 32.9987 L1298.09 57.6282 Q1298.09 63.1779 1299.58 64.7578 Q1301.12 66.3376 1305.78 66.3376 L1313.44 66.3376 L1313.44 72.576 L1305.78 72.576 Q1297.15 72.576 1293.87 69.3758 Q1290.59 66.1351 1290.59 57.6282 L1290.59 32.9987 L1285.12 32.9987 L1285.12 27.2059 L1290.59 27.2059 L1290.59 14.324 L1298.09 14.324 Z" fill="#000000" fill-rule="evenodd" fill-opacity="1" /><path clip-path="url(#clip370)" d="M 0 0 M1341.88 49.7694 Q1332.84 49.7694 1329.36 51.8354 Q1325.87 53.9013 1325.87 58.8839 Q1325.87 62.8538 1328.47 65.2034 Q1331.1 67.5124 1335.6 67.5124 Q1341.79 67.5124 1345.52 63.1374 Q1349.29 58.7219 1349.29 51.4303 L1349.29 49.7694 L1341.88 49.7694 M1356.74 46.6907 L1356.74 72.576 L1349.29 72.576 L1349.29 65.6895 Q1346.74 69.8214 1342.93 71.8063 Q1339.12 73.7508 1333.61 73.7508 Q1326.64 73.7508 1322.51 69.8619 Q1318.42 65.9325 1318.42 59.3701 Q1318.42 51.7138 1323.53 47.825 Q1328.67 43.9361 1338.84 43.9361 L1349.29 43.9361 L1349.29 43.2069 Q1349.29 38.0623 1345.89 35.2672 Q1342.52 32.4315 1336.41 32.4315 Q1332.52 32.4315 1328.83 33.3632 Q1325.15 34.295 1321.74 36.1584 L1321.74 29.2718 Q1325.83 27.692 1329.68 26.9223 Q1333.53 26.1121 1337.18 26.1121 Q1347.02 26.1121 1351.88 31.2163 Q1356.74 36.3204 1356.74 46.6907 Z" fill="#000000" fill-rule="evenodd" fill-opacity="1" /><path clip-path="url(#clip370)" d="M 0 0 M1371.93 14.324 L1371.93 27.2059 L1387.29 27.2059 L1387.29 32.9987 L1371.93 32.9987 L1371.93 57.6282 Q1371.93 63.1779 1373.43 64.7578 Q1374.97 66.3376 1379.63 66.3376 L1387.29 66.3376 L1387.29 72.576 L1379.63 72.576 Q1371 72.576 1367.72 69.3758 Q1364.44 66.1351 1364.44 57.6282 L1364.44 32.9987 L1358.97 32.9987 L1358.97 27.2059 L1364.44 27.2059 L1364.44 14.324 L1371.93 14.324 Z" fill="#000000" fill-rule="evenodd" fill-opacity="1" /><path clip-path="url(#clip370)" d="M 0 0 M1395.1 27.2059 L1402.56 27.2059 L1402.56 72.576 L1395.1 72.576 L1395.1 27.2059 M1395.1 9.54393 L1402.56 9.54393 L1402.56 18.9825 L1395.1 18.9825 L1395.1 9.54393 Z" fill="#000000" fill-rule="evenodd" fill-opacity="1" /><path clip-path="url(#clip370)" d="M 0 0 M1439.3 28.5427 L1439.3 35.5912 Q1436.14 33.9709 1432.74 33.1607 Q1429.33 32.3505 1425.69 32.3505 Q1420.14 32.3505 1417.34 34.0519 Q1414.59 35.7533 1414.59 39.156 Q1414.59 41.7486 1416.57 43.2475 Q1418.56 44.7058 1424.55 46.0426 L1427.11 46.6097 Q1435.05 48.3111 1438.37 51.4303 Q1441.73 54.509 1441.73 60.0587 Q1441.73 66.3781 1436.71 70.0644 Q1431.72 73.7508 1422.97 73.7508 Q1419.33 73.7508 1415.36 73.0216 Q1411.43 72.3329 1407.05 70.9151 L1407.05 63.2184 Q1411.19 65.3654 1415.2 66.4591 Q1419.21 67.5124 1423.14 67.5124 Q1428.4 67.5124 1431.24 65.73 Q1434.07 63.9071 1434.07 60.6258 Q1434.07 57.5877 1432.01 55.9673 Q1429.98 54.3469 1423.06 52.8481 L1420.46 52.2405 Q1413.54 50.7821 1410.46 47.7845 Q1407.38 44.7463 1407.38 39.4801 Q1407.38 33.0797 1411.92 29.5959 Q1416.45 26.1121 1424.8 26.1121 Q1428.93 26.1121 1432.58 26.7198 Q1436.22 27.3274 1439.3 28.5427 Z" fill="#000000" fill-rule="evenodd" fill-opacity="1" /><path clip-path="url(#clip370)" d="M 0 0 M1456.92 14.324 L1456.92 27.2059 L1472.27 27.2059 L1472.27 32.9987 L1456.92 32.9987 L1456.92 57.6282 Q1456.92 63.1779 1458.42 64.7578 Q1459.96 66.3376 1464.62 66.3376 L1472.27 66.3376 L1472.27 72.576 L1464.62 72.576 Q1455.99 72.576 1452.71 69.3758 Q1449.43 66.1351 1449.43 57.6282 L1449.43 32.9987 L1443.96 32.9987 L1443.96 27.2059 L1449.43 27.2059 L1449.43 14.324 L1456.92 14.324 Z" fill="#000000" fill-rule="evenodd" fill-opacity="1" /><path clip-path="url(#clip370)" d="M 0 0 M1480.09 27.2059 L1487.55 27.2059 L1487.55 72.576 L1480.09 72.576 L1480.09 27.2059 M1480.09 9.54393 L1487.55 9.54393 L1487.55 18.9825 L1480.09 18.9825 L1480.09 9.54393 Z" fill="#000000" fill-rule="evenodd" fill-opacity="1" /><path clip-path="url(#clip370)" d="M 0 0 M1528.01 28.9478 L1528.01 35.9153 Q1524.86 34.1734 1521.65 33.3227 Q1518.5 32.4315 1515.25 32.4315 Q1508 32.4315 1503.99 37.0496 Q1499.98 41.6271 1499.98 49.9314 Q1499.98 58.2358 1503.99 62.8538 Q1508 67.4314 1515.25 67.4314 Q1518.5 67.4314 1521.65 66.5807 Q1524.86 65.6895 1528.01 63.9476 L1528.01 70.8341 Q1524.9 72.2924 1521.53 73.0216 Q1518.21 73.7508 1514.44 73.7508 Q1504.2 73.7508 1498.16 67.3098 Q1492.12 60.8689 1492.12 49.9314 Q1492.12 38.832 1498.2 32.472 Q1504.32 26.1121 1514.93 26.1121 Q1518.37 26.1121 1521.65 26.8413 Q1524.94 27.5299 1528.01 28.9478 Z" fill="#000000" fill-rule="evenodd" fill-opacity="1" /><path clip-path="url(#clip370)" d="M 0 0 M1556.45 49.7694 Q1547.42 49.7694 1543.93 51.8354 Q1540.45 53.9013 1540.45 58.8839 Q1540.45 62.8538 1543.04 65.2034 Q1545.68 67.5124 1550.17 67.5124 Q1556.37 67.5124 1560.1 63.1374 Q1563.87 58.7219 1563.87 51.4303 L1563.87 49.7694 L1556.45 49.7694 M1571.32 46.6907 L1571.32 72.576 L1563.87 72.576 L1563.87 65.6895 Q1561.31 69.8214 1557.51 71.8063 Q1553.7 73.7508 1548.19 73.7508 Q1541.22 73.7508 1537.09 69.8619 Q1533 65.9325 1533 59.3701 Q1533 51.7138 1538.1 47.825 Q1543.25 43.9361 1553.41 43.9361 L1563.87 43.9361 L1563.87 43.2069 Q1563.87 38.0623 1560.46 35.2672 Q1557.1 32.4315 1550.98 32.4315 Q1547.09 32.4315 1543.41 33.3632 Q1539.72 34.295 1536.32 36.1584 L1536.32 29.2718 Q1540.41 27.692 1544.26 26.9223 Q1548.11 26.1121 1551.75 26.1121 Q1561.6 26.1121 1566.46 31.2163 Q1571.32 36.3204 1571.32 46.6907 Z" fill="#000000" fill-rule="evenodd" fill-opacity="1" /><path clip-path="url(#clip370)" d="M 0 0 M1579.14 9.54393 L1586.59 9.54393 L1586.59 72.576 L1579.14 72.576 L1579.14 9.54393 Z" fill="#000000" fill-rule="evenodd" fill-opacity="1" /><path clip-path="url(#clip370)" d="M 0 0 M1621.1 12.096 L1633.3 12.096 L1648.73 53.2532 L1664.25 12.096 L1676.44 12.096 L1676.44 72.576 L1668.46 72.576 L1668.46 19.4686 L1652.86 60.9499 L1644.64 60.9499 L1629.04 19.4686 L1629.04 72.576 L1621.1 72.576 L1621.1 12.096 Z" fill="#000000" fill-rule="evenodd" fill-opacity="1" /><path clip-path="url(#clip370)" d="M 0 0 M1701.84 32.4315 Q1695.84 32.4315 1692.36 37.1306 Q1688.88 41.7891 1688.88 49.9314 Q1688.88 58.0738 1692.32 62.7728 Q1695.8 67.4314 1701.84 67.4314 Q1707.79 67.4314 1711.28 62.7323 Q1714.76 58.0333 1714.76 49.9314 Q1714.76 41.8701 1711.28 37.1711 Q1707.79 32.4315 1701.84 32.4315 M1701.84 26.1121 Q1711.56 26.1121 1717.11 32.4315 Q1722.66 38.7509 1722.66 49.9314 Q1722.66 61.0714 1717.11 67.4314 Q1711.56 73.7508 1701.84 73.7508 Q1692.08 73.7508 1686.53 67.4314 Q1681.02 61.0714 1681.02 49.9314 Q1681.02 38.7509 1686.53 32.4315 Q1692.08 26.1121 1701.84 26.1121 Z" fill="#000000" fill-rule="evenodd" fill-opacity="1" /><path clip-path="url(#clip370)" d="M 0 0 M1760.33 34.0924 L1760.33 9.54393 L1767.79 9.54393 L1767.79 72.576 L1760.33 72.576 L1760.33 65.7705 Q1757.98 69.8214 1754.38 71.8063 Q1750.81 73.7508 1745.79 73.7508 Q1737.57 73.7508 1732.38 67.1883 Q1727.24 60.6258 1727.24 49.9314 Q1727.24 39.2371 1732.38 32.6746 Q1737.57 26.1121 1745.79 26.1121 Q1750.81 26.1121 1754.38 28.0971 Q1757.98 30.0415 1760.33 34.0924 M1734.93 49.9314 Q1734.93 58.1548 1738.3 62.8538 Q1741.7 67.5124 1747.61 67.5124 Q1753.53 67.5124 1756.93 62.8538 Q1760.33 58.1548 1760.33 49.9314 Q1760.33 41.7081 1756.93 37.0496 Q1753.53 32.3505 1747.61 32.3505 Q1741.7 32.3505 1738.3 37.0496 Q1734.93 41.7081 1734.93 49.9314 Z" fill="#000000" fill-rule="evenodd" fill-opacity="1" /><path clip-path="url(#clip370)" d="M 0 0 M1814.41 48.0275 L1814.41 51.6733 L1780.14 51.6733 Q1780.63 59.3701 1784.76 63.421 Q1788.93 67.4314 1796.35 67.4314 Q1800.64 67.4314 1804.65 66.3781 Q1808.7 65.3249 1812.67 63.2184 L1812.67 70.267 Q1808.66 71.9684 1804.45 72.8596 Q1800.24 73.7508 1795.9 73.7508 Q1785.04 73.7508 1778.68 67.4314 Q1772.37 61.1119 1772.37 50.3365 Q1772.37 39.1965 1778.36 32.6746 Q1784.4 26.1121 1794.6 26.1121 Q1803.76 26.1121 1809.07 32.0264 Q1814.41 37.9003 1814.41 48.0275 M1806.96 45.84 Q1806.88 39.7232 1803.52 36.0774 Q1800.19 32.4315 1794.69 32.4315 Q1788.45 32.4315 1784.68 35.9558 Q1780.95 39.4801 1780.39 45.8805 L1806.96 45.84 Z" fill="#000000" fill-rule="evenodd" fill-opacity="1" /><path clip-path="url(#clip370)" d="M 0 0 M1822.23 9.54393 L1829.69 9.54393 L1829.69 72.576 L1822.23 72.576 L1822.23 9.54393 Z" fill="#000000" fill-rule="evenodd" fill-opacity="1" /><polyline clip-path="url(#clip372)" style="stroke:#009af9; stroke-width:4; stroke-opacity:1; fill:none" points="
  743.784,1447.87 743.784,1376.44 769.569,1376.44 769.569,1276.43 795.354,1276.43 795.354,1376.44 821.139,1376.44 821.139,1204.99 846.923,1204.99 846.923,1104.99 
  872.708,1104.99 872.708,1033.55 898.493,1033.55 898.493,962.117 924.278,962.117 924.278,819.247 950.063,819.247 950.063,804.96 975.847,804.96 975.847,933.543 
  1001.63,933.543 1001.63,833.534 1027.42,833.534 1027.42,1047.84 1053.2,1047.84 1053.2,990.69 1078.99,990.69 1078.99,962.117 1104.77,962.117 1104.77,1033.55 
  1130.56,1033.55 1130.56,1104.99 1156.34,1104.99 1156.34,1062.13 1182.13,1062.13 1182.13,1290.72 1207.91,1290.72 1207.91,1333.58 1233.7,1333.58 1233.7,1419.3 
  1259.48,1419.3 1259.48,1447.87 1285.27,1447.87 1285.27,1419.3 1311.05,1419.3 1336.83,1419.3 1336.83,1433.59 1362.62,1433.59 1362.62,1405.01 
  1388.4,1405.01 1388.4,1447.87 1414.19,1447.87 1414.19,1433.59 1439.97,1433.59 1439.97,1419.3 1465.76,1419.3 1465.76,1362.15 1491.54,1362.15 1491.54,1333.58 
  1517.33,1333.58 1517.33,1190.71 1543.11,1190.71 1543.11,1219.28 1568.9,1219.28 1568.9,1033.55 1594.68,1033.55 1620.47,1033.55 1620.47,847.821 
  1646.25,847.821 1646.25,662.09 1672.04,662.09 1672.04,547.795 1697.82,547.795 1697.82,462.073 1723.61,462.073 1723.61,547.795 1749.39,547.795 1749.39,162.047 
  1775.18,162.047 1775.18,376.351 1800.96,376.351 1800.96,333.49 1826.75,333.49 1826.75,447.786 1852.53,447.786 1852.53,547.795 1878.32,547.795 1878.32,619.23 
  1904.1,619.23 1904.1,962.117 1929.89,962.117 1929.89,933.543 1955.67,933.543 1955.67,1047.84 1981.45,1047.84 1981.45,1062.13 2007.24,1062.13 2007.24,1233.57 
  2033.02,1233.57 2033.02,1290.72 2058.81,1290.72 2058.81,1376.44 2084.59,1376.44 2084.59,1419.3 2110.38,1419.3 2110.38,1405.01 2136.16,1405.01 2136.16,1447.87 
  2161.95,1447.87 2187.73,1447.87 2213.52,1447.87 2239.3,1447.87 2265.09,1447.87 
  2290.87,1447.87 
  "/>
<polyline clip-path="url(#clip372)" style="stroke:#e26f46; stroke-width:4; stroke-opacity:1; fill:none" points="
  228.088,1447.87 230.667,1447.87 233.245,1447.87 235.824,1447.87 238.402,1447.87 240.981,1447.87 243.559,1447.87 246.138,1447.87 248.716,1447.87 251.295,1447.87 
  253.873,1447.87 256.451,1447.87 259.03,1447.87 261.608,1447.87 264.187,1447.87 266.765,1447.87 269.344,1447.87 271.922,1447.87 274.501,1447.87 277.079,1447.87 
  279.658,1447.87 282.236,1447.87 284.815,1447.87 287.393,1447.87 289.972,1447.87 292.55,1447.87 295.129,1447.87 297.707,1447.87 300.286,1447.87 302.864,1447.87 
  305.443,1447.87 308.021,1447.87 310.6,1447.87 313.178,1447.87 315.757,1447.87 318.335,1447.87 320.913,1447.87 323.492,1447.87 326.07,1447.87 328.649,1447.87 
  331.227,1447.87 333.806,1447.87 336.384,1447.87 338.963,1447.87 341.541,1447.87 344.12,1447.87 346.698,1447.87 349.277,1447.87 351.855,1447.87 354.434,1447.87 
  357.012,1447.87 359.591,1447.87 362.169,1447.87 364.748,1447.87 367.326,1447.87 369.905,1447.87 372.483,1447.87 375.062,1447.87 377.64,1447.87 380.219,1447.87 
  382.797,1447.87 385.375,1447.87 387.954,1447.87 390.532,1447.87 393.111,1447.86 395.689,1447.86 398.268,1447.86 400.846,1447.86 403.425,1447.86 406.003,1447.86 
  408.582,1447.86 411.16,1447.86 413.739,1447.86 416.317,1447.85 418.896,1447.85 421.474,1447.85 424.053,1447.85 426.631,1447.85 429.21,1447.84 431.788,1447.84 
  434.367,1447.84 436.945,1447.83 439.524,1447.83 442.102,1447.83 444.681,1447.82 447.259,1447.82 449.837,1447.81 452.416,1447.81 454.994,1447.8 457.573,1447.8 
  460.151,1447.79 462.73,1447.78 465.308,1447.77 467.887,1447.76 470.465,1447.76 473.044,1447.75 475.622,1447.73 478.201,1447.72 480.779,1447.71 483.358,1447.7 
  485.936,1447.68 488.515,1447.67 491.093,1447.65 493.672,1447.63 496.25,1447.61 498.829,1447.59 501.407,1447.57 503.986,1447.54 506.564,1447.52 509.143,1447.49 
  511.721,1447.46 514.299,1447.42 516.878,1447.39 519.456,1447.35 522.035,1447.31 524.613,1447.27 527.192,1447.22 529.77,1447.17 532.349,1447.12 534.927,1447.06 
  537.506,1447 540.084,1446.93 542.663,1446.86 545.241,1446.79 547.82,1446.71 550.398,1446.63 552.977,1446.54 555.555,1446.44 558.134,1446.34 560.712,1446.23 
  563.291,1446.11 565.869,1445.99 568.448,1445.86 571.026,1445.72 573.605,1445.57 576.183,1445.41 578.762,1445.24 581.34,1445.07 583.918,1444.88 586.497,1444.68 
  589.075,1444.47 591.654,1444.24 594.232,1444 596.811,1443.75 599.389,1443.49 601.968,1443.21 604.546,1442.91 607.125,1442.59 609.703,1442.26 612.282,1441.91 
  614.86,1441.54 617.439,1441.15 620.017,1440.74 622.596,1440.31 625.174,1439.85 627.753,1439.37 630.331,1438.86 632.91,1438.33 635.488,1437.77 638.067,1437.18 
  640.645,1436.56 643.224,1435.92 645.802,1435.23 648.38,1434.52 650.959,1433.77 653.537,1432.98 656.116,1432.16 658.694,1431.3 661.273,1430.4 663.851,1429.45 
  666.43,1428.47 669.008,1427.44 671.587,1426.36 674.165,1425.23 676.744,1424.06 679.322,1422.83 681.901,1421.55 684.479,1420.22 687.058,1418.83 689.636,1417.38 
  692.215,1415.88 694.793,1414.31 697.372,1412.68 699.95,1410.99 702.529,1409.23 705.107,1407.4 707.686,1405.51 710.264,1403.54 712.842,1401.5 715.421,1399.38 
  717.999,1397.19 720.578,1394.92 723.156,1392.57 725.735,1390.14 728.313,1387.63 730.892,1385.03 733.47,1382.35 736.049,1379.58 738.627,1376.72 741.206,1373.78 
  743.784,1370.74 746.363,1367.6 748.941,1364.38 751.52,1361.06 754.098,1357.64 756.677,1354.13 759.255,1350.52 761.834,1346.81 764.412,1343 766.991,1339.09 
  769.569,1335.08 772.148,1330.97 774.726,1326.75 777.304,1322.44 779.883,1318.02 782.461,1313.51 785.04,1308.89 787.618,1304.17 790.197,1299.34 792.775,1294.42 
  795.354,1289.4 797.932,1284.28 800.511,1279.06 803.089,1273.75 805.668,1268.34 808.246,1262.83 810.825,1257.23 813.403,1251.55 815.982,1245.77 818.56,1239.91 
  821.139,1233.96 823.717,1227.93 826.296,1221.82 828.874,1215.63 831.453,1209.37 834.031,1203.04 836.61,1196.64 839.188,1190.18 841.766,1183.65 844.345,1177.07 
  846.923,1170.44 849.502,1163.76 852.08,1157.03 854.659,1150.26 857.237,1143.46 859.816,1136.63 862.394,1129.77 864.973,1122.89 867.551,1115.99 870.13,1109.08 
  872.708,1102.17 875.287,1095.26 877.865,1088.35 880.444,1081.45 883.022,1074.57 885.601,1067.72 888.179,1060.89 890.758,1054.1 893.336,1047.35 895.915,1040.64 
  898.493,1033.99 901.072,1027.4 903.65,1020.88 906.228,1014.42 908.807,1008.05 911.385,1001.76 913.964,995.558 916.542,989.456 919.121,983.458 921.699,977.569 
  924.278,971.797 926.856,966.146 929.435,960.622 932.013,955.233 934.592,949.983 937.17,944.879 939.749,939.925 942.327,935.128 944.906,930.493 947.484,926.024 
  950.063,921.727 952.641,917.607 955.22,913.669 957.798,909.916 960.377,906.354 962.955,902.986 965.534,899.816 968.112,896.849 970.69,894.087 973.269,891.534 
  975.847,889.192 978.426,887.065 981.004,885.155 983.583,883.464 986.161,881.995 988.74,880.749 991.318,879.727 993.897,878.931 996.475,878.362 999.054,878.02 
  1001.63,877.906 1004.21,878.02 1006.79,878.362 1009.37,878.931 1011.95,879.727 1014.52,880.749 1017.1,881.995 1019.68,883.464 1022.26,885.155 1024.84,887.065 
  1027.42,889.192 1030,891.534 1032.57,894.087 1035.15,896.849 1037.73,899.816 1040.31,902.986 1042.89,906.354 1045.47,909.916 1048.04,913.668 1050.62,917.607 
  1053.2,921.727 1055.78,926.024 1058.36,930.492 1060.94,935.128 1063.52,939.925 1066.09,944.879 1068.67,949.983 1071.25,955.233 1073.83,960.622 1076.41,966.145 
  1078.99,971.796 1081.57,977.569 1084.14,983.457 1086.72,989.456 1089.3,995.557 1091.88,1001.76 1094.46,1008.05 1097.04,1014.42 1099.61,1020.87 1102.19,1027.4 
  1104.77,1033.99 1107.35,1040.64 1109.93,1047.35 1112.51,1054.1 1115.09,1060.89 1117.66,1067.72 1120.24,1074.57 1122.82,1081.45 1125.4,1088.35 1127.98,1095.25 
  1130.56,1102.17 1133.13,1109.08 1135.71,1115.99 1138.29,1122.88 1140.87,1129.76 1143.45,1136.62 1146.03,1143.45 1148.61,1150.26 1151.18,1157.02 1153.76,1163.75 
  1156.34,1170.43 1158.92,1177.06 1161.5,1183.64 1164.08,1190.16 1166.65,1196.62 1169.23,1203.02 1171.81,1209.35 1174.39,1215.61 1176.97,1221.79 1179.55,1227.9 
  1182.13,1233.93 1184.7,1239.87 1187.28,1245.74 1189.86,1251.51 1192.44,1257.19 1195.02,1262.79 1197.6,1268.29 1200.18,1273.69 1202.75,1279 1205.33,1284.22 
  1207.91,1289.33 1210.49,1294.34 1213.07,1299.26 1215.65,1304.07 1218.22,1308.79 1220.8,1313.4 1223.38,1317.9 1225.96,1322.31 1228.54,1326.61 1231.12,1330.81 
  1233.7,1334.91 1236.27,1338.9 1238.85,1342.8 1241.43,1346.59 1244.01,1350.28 1246.59,1353.87 1249.17,1357.36 1251.74,1360.76 1254.32,1364.05 1256.9,1367.25 
  1259.48,1370.35 1262.06,1373.36 1264.64,1376.28 1267.22,1379.1 1269.79,1381.83 1272.37,1384.47 1274.95,1387.02 1277.53,1389.48 1280.11,1391.86 1282.69,1394.15 
  1285.27,1396.36 1287.84,1398.48 1290.42,1400.53 1293,1402.49 1295.58,1404.38 1298.16,1406.19 1300.74,1407.92 1303.31,1409.58 1305.89,1411.17 1308.47,1412.68 
  1311.05,1414.13 1313.63,1415.51 1316.21,1416.81 1318.79,1418.05 1321.36,1419.23 1323.94,1420.34 1326.52,1421.38 1329.1,1422.37 1331.68,1423.29 1334.26,1424.15 
  1336.83,1424.95 1339.41,1425.69 1341.99,1426.37 1344.57,1426.99 1347.15,1427.56 1349.73,1428.06 1352.31,1428.51 1354.88,1428.91 1357.46,1429.25 1360.04,1429.53 
  1362.62,1429.75 1365.2,1429.92 1367.78,1430.03 1370.35,1430.09 1372.93,1430.09 1375.51,1430.03 1378.09,1429.92 1380.67,1429.75 1383.25,1429.52 1385.83,1429.23 
  1388.4,1428.88 1390.98,1428.47 1393.56,1428 1396.14,1427.46 1398.72,1426.86 1401.3,1426.2 1403.88,1425.47 1406.45,1424.67 1409.03,1423.8 1411.61,1422.86 
  1414.19,1421.85 1416.77,1420.76 1419.35,1419.6 1421.92,1418.36 1424.5,1417.04 1427.08,1415.64 1429.66,1414.15 1432.24,1412.57 1434.82,1410.91 1437.4,1409.15 
  1439.97,1407.3 1442.55,1405.35 1445.13,1403.31 1447.71,1401.16 1450.29,1398.9 1452.87,1396.54 1455.44,1394.07 1458.02,1391.48 1460.6,1388.78 1463.18,1385.96 
  1465.76,1383.01 1468.34,1379.94 1470.92,1376.74 1473.49,1373.4 1476.07,1369.93 1478.65,1366.32 1481.23,1362.57 1483.81,1358.68 1486.39,1354.64 1488.97,1350.44 
  1491.54,1346.09 1494.12,1341.58 1496.7,1336.91 1499.28,1332.08 1501.86,1327.08 1504.44,1321.91 1507.01,1316.57 1509.59,1311.05 1512.17,1305.35 1514.75,1299.47 
  1517.33,1293.41 1519.91,1287.16 1522.49,1280.72 1525.06,1274.09 1527.64,1267.27 1530.22,1260.26 1532.8,1253.04 1535.38,1245.63 1537.96,1238.02 1540.53,1230.21 
  1543.11,1222.2 1545.69,1213.98 1548.27,1205.56 1550.85,1196.94 1553.43,1188.11 1556.01,1179.08 1558.58,1169.85 1561.16,1160.41 1563.74,1150.77 1566.32,1140.93 
  1568.9,1130.89 1571.48,1120.66 1574.05,1110.22 1576.63,1099.59 1579.21,1088.78 1581.79,1077.77 1584.37,1066.58 1586.95,1055.2 1589.53,1043.65 1592.1,1031.92 
  1594.68,1020.03 1597.26,1007.97 1599.84,995.751 1602.42,983.379 1605,970.859 1607.58,958.197 1610.15,945.4 1612.73,932.475 1615.31,919.428 1617.89,906.268 
  1620.47,893.002 1623.05,879.638 1625.62,866.185 1628.2,852.652 1630.78,839.047 1633.36,825.381 1635.94,811.662 1638.52,797.9 1641.1,784.107 1643.67,770.292 
  1646.25,756.466 1648.83,742.64 1651.41,728.825 1653.99,715.033 1656.57,701.274 1659.14,687.562 1661.72,673.908 1664.3,660.323 1666.88,646.82 1669.46,633.412 
  1672.04,620.11 1674.62,606.928 1677.19,593.877 1679.77,580.971 1682.35,568.221 1684.93,555.641 1687.51,543.243 1690.09,531.039 1692.66,519.043 1695.24,507.265 
  1697.82,495.72 1700.4,484.418 1702.98,473.372 1705.56,462.593 1708.14,452.093 1710.71,441.884 1713.29,431.977 1715.87,422.383 1718.45,413.112 1721.03,404.175 
  1723.61,395.581 1726.19,387.341 1728.76,379.464 1731.34,371.959 1733.92,364.834 1736.5,358.099 1739.08,351.76 1741.66,345.825 1744.23,340.301 1746.81,335.194 
  1749.39,330.511 1751.97,326.257 1754.55,322.437 1757.13,319.056 1759.71,316.117 1762.28,313.624 1764.86,311.581 1767.44,309.989 1770.02,308.85 1772.6,308.167 
  1775.18,307.939 1777.75,308.167 1780.33,308.85 1782.91,309.989 1785.49,311.581 1788.07,313.624 1790.65,316.117 1793.23,319.056 1795.8,322.437 1798.38,326.257 
  1800.96,330.511 1803.54,335.194 1806.12,340.301 1808.7,345.825 1811.28,351.76 1813.85,358.099 1816.43,364.834 1819.01,371.959 1821.59,379.464 1824.17,387.341 
  1826.75,395.581 1829.32,404.175 1831.9,413.112 1834.48,422.383 1837.06,431.977 1839.64,441.885 1842.22,452.094 1844.8,462.593 1847.37,473.372 1849.95,484.418 
  1852.53,495.72 1855.11,507.266 1857.69,519.043 1860.27,531.04 1862.84,543.243 1865.42,555.641 1868,568.222 1870.58,580.971 1873.16,593.878 1875.74,606.928 
  1878.32,620.111 1880.89,633.413 1883.47,646.821 1886.05,660.324 1888.63,673.909 1891.21,687.563 1893.79,701.276 1896.36,715.034 1898.94,728.827 1901.52,742.642 
  1904.1,756.468 1906.68,770.294 1909.26,784.11 1911.84,797.903 1914.41,811.665 1916.99,825.384 1919.57,839.051 1922.15,852.656 1924.73,866.19 1927.31,879.643 
  1929.89,893.008 1932.46,906.274 1935.04,919.435 1937.62,932.482 1940.2,945.408 1942.78,958.206 1945.36,970.869 1947.93,983.39 1950.51,995.763 1953.09,1007.98 
  1955.67,1020.04 1958.25,1031.94 1960.83,1043.67 1963.41,1055.22 1965.98,1066.6 1968.56,1077.79 1971.14,1088.8 1973.72,1099.62 1976.3,1110.25 1978.88,1120.69 
  1981.45,1130.93 1984.03,1140.97 1986.61,1150.82 1989.19,1160.46 1991.77,1169.9 1994.35,1179.14 1996.93,1188.17 1999.5,1197.01 2002.08,1205.63 2004.66,1214.06 
  2007.24,1222.28 2009.82,1230.3 2012.4,1238.12 2014.97,1245.74 2017.55,1253.16 2020.13,1260.38 2022.71,1267.41 2025.29,1274.24 2027.87,1280.88 2030.45,1287.34 
  2033.02,1293.6 2035.6,1299.68 2038.18,1305.57 2040.76,1311.29 2043.34,1316.83 2045.92,1322.19 2048.5,1327.39 2051.07,1332.41 2053.65,1337.27 2056.23,1341.97 
  2058.81,1346.51 2061.39,1350.89 2063.97,1355.12 2066.54,1359.2 2069.12,1363.14 2071.7,1366.93 2074.28,1370.59 2076.86,1374.11 2079.44,1377.49 2082.02,1380.75 
  2084.59,1383.88 2087.17,1386.89 2089.75,1389.79 2092.33,1392.56 2094.91,1395.23 2097.49,1397.79 2100.06,1400.24 2102.64,1402.59 2105.22,1404.84 2107.8,1407 
  2110.38,1409.06 2112.96,1411.04 2115.54,1412.92 2118.11,1414.73 2120.69,1416.45 2123.27,1418.1 2125.85,1419.67 2128.43,1421.17 2131.01,1422.6 2133.59,1423.96 
  2136.16,1425.26 2138.74,1426.49 2141.32,1427.67 2143.9,1428.79 2146.48,1429.85 2149.06,1430.86 2151.63,1431.83 2154.21,1432.74 2156.79,1433.61 2159.37,1434.43 
  2161.95,1435.21 2164.53,1435.95 2167.11,1436.65 2169.68,1437.31 2172.26,1437.94 2174.84,1438.54 2177.42,1439.1 2180,1439.63 2182.58,1440.14 2185.15,1440.61 
  2187.73,1441.06 2190.31,1441.48 2192.89,1441.88 2195.47,1442.26 2198.05,1442.62 2200.63,1442.95 2203.2,1443.27 2205.78,1443.56 2208.36,1443.84 2210.94,1444.11 
  2213.52,1444.35 2216.1,1444.58 2218.67,1444.8 2221.25,1445.01 2223.83,1445.2 2226.41,1445.38 2228.99,1445.55 2231.57,1445.71 2234.15,1445.86 2236.72,1445.99 
  2239.3,1446.12 2241.88,1446.25 2244.46,1446.36 2247.04,1446.47 2249.62,1446.57 2252.2,1446.66 2254.77,1446.75 2257.35,1446.83 2259.93,1446.9 2262.51,1446.97 
  2265.09,1447.04 2267.67,1447.1 2270.24,1447.16 2272.82,1447.21 2275.4,1447.26 2277.98,1447.31 2280.56,1447.35 2283.14,1447.39 2285.72,1447.42 2288.29,1447.46 
  2290.87,1447.49 
  "/>
<path clip-path="url(#clip370)" d="
M1925.95 350.345 L2279.87 350.345 L2279.87 168.905 L1925.95 168.905  Z
  " fill="#ffffff" fill-rule="evenodd" fill-opacity="1"/>
<polyline clip-path="url(#clip370)" style="stroke:#000000; stroke-width:4; stroke-opacity:1; fill:none" points="
  1925.95,350.345 2279.87,350.345 2279.87,168.905 1925.95,168.905 1925.95,350.345 
  "/>
<polyline clip-path="url(#clip370)" style="stroke:#009af9; stroke-width:4; stroke-opacity:1; fill:none" points="
  1950.24,229.385 2096.01,229.385 
  "/>
<path clip-path="url(#clip370)" d="M 0 0 M2124.99 215.947 L2124.99 242.822 L2130.63 242.822 Q2137.79 242.822 2141.1 239.581 Q2144.43 236.341 2144.43 229.35 Q2144.43 222.406 2141.1 219.188 Q2137.79 215.947 2130.63 215.947 L2124.99 215.947 M2120.31 212.105 L2129.92 212.105 Q2139.96 212.105 2144.66 216.294 Q2149.36 220.461 2149.36 229.35 Q2149.36 238.285 2144.64 242.475 Q2139.92 246.665 2129.92 246.665 L2120.31 246.665 L2120.31 212.105 Z" fill="#000000" fill-rule="evenodd" fill-opacity="1" /><path clip-path="url(#clip370)" d="M 0 0 M2165.61 233.632 Q2160.45 233.632 2158.46 234.813 Q2156.47 235.993 2156.47 238.841 Q2156.47 241.109 2157.95 242.452 Q2159.45 243.771 2162.02 243.771 Q2165.56 243.771 2167.69 241.271 Q2169.85 238.748 2169.85 234.581 L2169.85 233.632 L2165.61 233.632 M2174.11 231.873 L2174.11 246.665 L2169.85 246.665 L2169.85 242.729 Q2168.39 245.091 2166.21 246.225 Q2164.04 247.336 2160.89 247.336 Q2156.91 247.336 2154.55 245.114 Q2152.21 242.868 2152.21 239.118 Q2152.21 234.743 2155.12 232.521 Q2158.06 230.299 2163.87 230.299 L2169.85 230.299 L2169.85 229.882 Q2169.85 226.943 2167.9 225.345 Q2165.98 223.725 2162.48 223.725 Q2160.26 223.725 2158.16 224.257 Q2156.05 224.79 2154.11 225.855 L2154.11 221.919 Q2156.44 221.017 2158.64 220.577 Q2160.84 220.114 2162.92 220.114 Q2168.55 220.114 2171.33 223.031 Q2174.11 225.947 2174.11 231.873 Z" fill="#000000" fill-rule="evenodd" fill-opacity="1" /><path clip-path="url(#clip370)" d="M 0 0 M2182.79 213.378 L2182.79 220.739 L2191.56 220.739 L2191.56 224.049 L2182.79 224.049 L2182.79 238.123 Q2182.79 241.294 2183.64 242.197 Q2184.52 243.1 2187.18 243.1 L2191.56 243.1 L2191.56 246.665 L2187.18 246.665 Q2182.25 246.665 2180.38 244.836 Q2178.5 242.984 2178.5 238.123 L2178.5 224.049 L2175.38 224.049 L2175.38 220.739 L2178.5 220.739 L2178.5 213.378 L2182.79 213.378 Z" fill="#000000" fill-rule="evenodd" fill-opacity="1" /><path clip-path="url(#clip370)" d="M 0 0 M2207.81 233.632 Q2202.65 233.632 2200.66 234.813 Q2198.67 235.993 2198.67 238.841 Q2198.67 241.109 2200.15 242.452 Q2201.65 243.771 2204.22 243.771 Q2207.76 243.771 2209.89 241.271 Q2212.04 238.748 2212.04 234.581 L2212.04 233.632 L2207.81 233.632 M2216.3 231.873 L2216.3 246.665 L2212.04 246.665 L2212.04 242.729 Q2210.59 245.091 2208.41 246.225 Q2206.23 247.336 2203.09 247.336 Q2199.11 247.336 2196.74 245.114 Q2194.41 242.868 2194.41 239.118 Q2194.41 234.743 2197.32 232.521 Q2200.26 230.299 2206.07 230.299 L2212.04 230.299 L2212.04 229.882 Q2212.04 226.943 2210.1 225.345 Q2208.18 223.725 2204.68 223.725 Q2202.46 223.725 2200.36 224.257 Q2198.25 224.79 2196.3 225.855 L2196.3 221.919 Q2198.64 221.017 2200.84 220.577 Q2203.04 220.114 2205.12 220.114 Q2210.75 220.114 2213.53 223.031 Q2216.3 225.947 2216.3 231.873 Z" fill="#000000" fill-rule="evenodd" fill-opacity="1" /><polyline clip-path="url(#clip370)" style="stroke:#e26f46; stroke-width:4; stroke-opacity:1; fill:none" points="
  1950.24,289.865 2096.01,289.865 
  "/>
<path clip-path="url(#clip370)" d="M 0 0 M2120.31 272.585 L2149.55 272.585 L2149.55 276.52 L2137.28 276.52 L2137.28 307.145 L2132.58 307.145 L2132.58 276.52 L2120.31 276.52 L2120.31 272.585 Z" fill="#000000" fill-rule="evenodd" fill-opacity="1" /><path clip-path="url(#clip370)" d="M 0 0 M2162.07 285.2 Q2161.35 284.784 2160.49 284.598 Q2159.66 284.39 2158.64 284.39 Q2155.03 284.39 2153.09 286.751 Q2151.17 289.089 2151.17 293.487 L2151.17 307.145 L2146.88 307.145 L2146.88 281.219 L2151.17 281.219 L2151.17 285.247 Q2152.51 282.886 2154.66 281.751 Q2156.81 280.594 2159.89 280.594 Q2160.33 280.594 2160.86 280.663 Q2161.4 280.71 2162.05 280.825 L2162.07 285.2 Z" fill="#000000" fill-rule="evenodd" fill-opacity="1" /><path clip-path="url(#clip370)" d="M 0 0 M2166.1 296.913 L2166.1 281.219 L2170.36 281.219 L2170.36 296.751 Q2170.36 300.432 2171.79 302.284 Q2173.23 304.112 2176.1 304.112 Q2179.55 304.112 2181.54 301.913 Q2183.55 299.714 2183.55 295.918 L2183.55 281.219 L2187.81 281.219 L2187.81 307.145 L2183.55 307.145 L2183.55 303.163 Q2182 305.524 2179.94 306.682 Q2177.9 307.816 2175.19 307.816 Q2170.73 307.816 2168.41 305.038 Q2166.1 302.26 2166.1 296.913 M2176.81 280.594 L2176.81 280.594 Z" fill="#000000" fill-rule="evenodd" fill-opacity="1" /><path clip-path="url(#clip370)" d="M 0 0 M2196.49 273.858 L2196.49 281.219 L2205.26 281.219 L2205.26 284.529 L2196.49 284.529 L2196.49 298.603 Q2196.49 301.774 2197.35 302.677 Q2198.23 303.58 2200.89 303.58 L2205.26 303.58 L2205.26 307.145 L2200.89 307.145 Q2195.96 307.145 2194.08 305.316 Q2192.21 303.464 2192.21 298.603 L2192.21 284.529 L2189.08 284.529 L2189.08 281.219 L2192.21 281.219 L2192.21 273.858 L2196.49 273.858 Z" fill="#000000" fill-rule="evenodd" fill-opacity="1" /><path clip-path="url(#clip370)" d="M 0 0 M2231.28 291.497 L2231.28 307.145 L2227.02 307.145 L2227.02 291.635 Q2227.02 287.955 2225.59 286.126 Q2224.15 284.298 2221.28 284.298 Q2217.83 284.298 2215.84 286.497 Q2213.85 288.696 2213.85 292.492 L2213.85 307.145 L2209.57 307.145 L2209.57 271.126 L2213.85 271.126 L2213.85 285.247 Q2215.38 282.909 2217.44 281.751 Q2219.52 280.594 2222.23 280.594 Q2226.7 280.594 2228.99 283.372 Q2231.28 286.126 2231.28 291.497 Z" fill="#000000" fill-rule="evenodd" fill-opacity="1" /></svg>
