<?xml version="1.0" encoding="utf-8"?>
<svg xmlns="http://www.w3.org/2000/svg" xmlns:xlink="http://www.w3.org/1999/xlink" width="600" height="400" viewBox="0 0 2400 1600">
<defs>
  <clipPath id="clip990">
    <rect x="0" y="0" width="2400" height="1600"/>
  </clipPath>
</defs>
<path clip-path="url(#clip990)" d="
M0 1600 L2400 1600 L2400 0 L0 0  Z
  " fill="#ffffff" fill-rule="evenodd" fill-opacity="1"/>
<defs>
  <clipPath id="clip991">
    <rect x="480" y="0" width="1681" height="1600"/>
  </clipPath>
</defs>
<path clip-path="url(#clip990)" d="
M188.612 1486.45 L2352.76 1486.45 L2352.76 123.472 L188.612 123.472  Z
  " fill="#ffffff" fill-rule="evenodd" fill-opacity="1"/>
<defs>
  <clipPath id="clip992">
    <rect x="188" y="123" width="2165" height="1364"/>
  </clipPath>
</defs>
<polyline clip-path="url(#clip992)" style="stroke:#000000; stroke-width:2; stroke-opacity:0.1; fill:none" points="
  249.861,1486.45 249.861,123.472 
  "/>
<polyline clip-path="url(#clip992)" style="stroke:#000000; stroke-width:2; stroke-opacity:0.1; fill:none" points="
  760.273,1486.45 760.273,123.472 
  "/>
<polyline clip-path="url(#clip992)" style="stroke:#000000; stroke-width:2; stroke-opacity:0.1; fill:none" points="
  1270.68,1486.45 1270.68,123.472 
  "/>
<polyline clip-path="url(#clip992)" style="stroke:#000000; stroke-width:2; stroke-opacity:0.1; fill:none" points="
  1781.1,1486.45 1781.1,123.472 
  "/>
<polyline clip-path="url(#clip992)" style="stroke:#000000; stroke-width:2; stroke-opacity:0.1; fill:none" points="
  2291.51,1486.45 2291.51,123.472 
  "/>
<polyline clip-path="url(#clip990)" style="stroke:#000000; stroke-width:4; stroke-opacity:1; fill:none" points="
  188.612,1486.45 2352.76,1486.45 
  "/>
<polyline clip-path="url(#clip990)" style="stroke:#000000; stroke-width:4; stroke-opacity:1; fill:none" points="
  249.861,1486.45 249.861,1470.09 
  "/>
<polyline clip-path="url(#clip990)" style="stroke:#000000; stroke-width:4; stroke-opacity:1; fill:none" points="
  760.273,1486.45 760.273,1470.09 
  "/>
<polyline clip-path="url(#clip990)" style="stroke:#000000; stroke-width:4; stroke-opacity:1; fill:none" points="
  1270.68,1486.45 1270.68,1470.09 
  "/>
<polyline clip-path="url(#clip990)" style="stroke:#000000; stroke-width:4; stroke-opacity:1; fill:none" points="
  1781.1,1486.45 1781.1,1470.09 
  "/>
<polyline clip-path="url(#clip990)" style="stroke:#000000; stroke-width:4; stroke-opacity:1; fill:none" points="
  2291.51,1486.45 2291.51,1470.09 
  "/>
<path clip-path="url(#clip990)" d="M 0 0 M221.273 1530.29 L250.949 1530.29 L250.949 1534.23 L221.273 1534.23 L221.273 1530.29 Z" fill="#000000" fill-rule="evenodd" fill-opacity="1" /><path clip-path="url(#clip990)" d="M 0 0 M268.866 1516.63 L257.06 1535.08 L268.866 1535.08 L268.866 1516.63 M267.639 1512.56 L273.519 1512.56 L273.519 1535.08 L278.449 1535.08 L278.449 1538.97 L273.519 1538.97 L273.519 1547.12 L268.866 1547.12 L268.866 1538.97 L253.264 1538.97 L253.264 1534.46 L267.639 1512.56 Z" fill="#000000" fill-rule="evenodd" fill-opacity="1" /><path clip-path="url(#clip990)" d="M 0 0 M732.726 1530.29 L762.402 1530.29 L762.402 1534.23 L732.726 1534.23 L732.726 1530.29 Z" fill="#000000" fill-rule="evenodd" fill-opacity="1" /><path clip-path="url(#clip990)" d="M 0 0 M771.499 1543.18 L787.819 1543.18 L787.819 1547.12 L765.874 1547.12 L765.874 1543.18 Q768.536 1540.43 773.12 1535.8 Q777.726 1531.15 778.907 1529.81 Q781.152 1527.28 782.032 1525.55 Q782.935 1523.79 782.935 1522.1 Q782.935 1519.34 780.99 1517.61 Q779.069 1515.87 775.967 1515.87 Q773.768 1515.87 771.314 1516.63 Q768.884 1517.4 766.106 1518.95 L766.106 1514.23 Q768.93 1513.09 771.384 1512.51 Q773.837 1511.93 775.874 1511.93 Q781.245 1511.93 784.439 1514.62 Q787.634 1517.31 787.634 1521.8 Q787.634 1523.93 786.823 1525.85 Q786.036 1527.74 783.93 1530.34 Q783.351 1531.01 780.249 1534.23 Q777.148 1537.42 771.499 1543.18 Z" fill="#000000" fill-rule="evenodd" fill-opacity="1" /><path clip-path="url(#clip990)" d="M 0 0 M1270.68 1515.64 Q1267.07 1515.64 1265.24 1519.2 Q1263.44 1522.75 1263.44 1529.87 Q1263.44 1536.98 1265.24 1540.55 Q1267.07 1544.09 1270.68 1544.09 Q1274.32 1544.09 1276.12 1540.55 Q1277.95 1536.98 1277.95 1529.87 Q1277.95 1522.75 1276.12 1519.2 Q1274.32 1515.64 1270.68 1515.64 M1270.68 1511.93 Q1276.49 1511.93 1279.55 1516.54 Q1282.63 1521.12 1282.63 1529.87 Q1282.63 1538.6 1279.55 1543.21 Q1276.49 1547.79 1270.68 1547.79 Q1264.87 1547.79 1261.8 1543.21 Q1258.74 1538.6 1258.74 1529.87 Q1258.74 1521.12 1261.8 1516.54 Q1264.87 1511.93 1270.68 1511.93 Z" fill="#000000" fill-rule="evenodd" fill-opacity="1" /><path clip-path="url(#clip990)" d="M 0 0 M1775.75 1543.18 L1792.07 1543.18 L1792.07 1547.12 L1770.12 1547.12 L1770.12 1543.18 Q1772.79 1540.43 1777.37 1535.8 Q1781.97 1531.15 1783.16 1529.81 Q1785.4 1527.28 1786.28 1525.55 Q1787.18 1523.79 1787.18 1522.1 Q1787.18 1519.34 1785.24 1517.61 Q1783.32 1515.87 1780.22 1515.87 Q1778.02 1515.87 1775.56 1516.63 Q1773.13 1517.4 1770.35 1518.95 L1770.35 1514.23 Q1773.18 1513.09 1775.63 1512.51 Q1778.09 1511.93 1780.12 1511.93 Q1785.49 1511.93 1788.69 1514.62 Q1791.88 1517.31 1791.88 1521.8 Q1791.88 1523.93 1791.07 1525.85 Q1790.29 1527.74 1788.18 1530.34 Q1787.6 1531.01 1784.5 1534.23 Q1781.4 1537.42 1775.75 1543.18 Z" fill="#000000" fill-rule="evenodd" fill-opacity="1" /><path clip-path="url(#clip990)" d="M 0 0 M2294.52 1516.63 L2282.71 1535.08 L2294.52 1535.08 L2294.52 1516.63 M2293.29 1512.56 L2299.17 1512.56 L2299.17 1535.08 L2304.1 1535.08 L2304.1 1538.97 L2299.17 1538.97 L2299.17 1547.12 L2294.52 1547.12 L2294.52 1538.97 L2278.91 1538.97 L2278.91 1534.46 L2293.29 1512.56 Z" fill="#000000" fill-rule="evenodd" fill-opacity="1" /><polyline clip-path="url(#clip992)" style="stroke:#000000; stroke-width:2; stroke-opacity:0.1; fill:none" points="
  188.612,1447.87 2352.76,1447.87 
  "/>
<polyline clip-path="url(#clip992)" style="stroke:#000000; stroke-width:2; stroke-opacity:0.1; fill:none" points="
  188.612,1119.86 2352.76,1119.86 
  "/>
<polyline clip-path="url(#clip992)" style="stroke:#000000; stroke-width:2; stroke-opacity:0.1; fill:none" points="
  188.612,791.839 2352.76,791.839 
  "/>
<polyline clip-path="url(#clip992)" style="stroke:#000000; stroke-width:2; stroke-opacity:0.1; fill:none" points="
  188.612,463.822 2352.76,463.822 
  "/>
<polyline clip-path="url(#clip992)" style="stroke:#000000; stroke-width:2; stroke-opacity:0.1; fill:none" points="
  188.612,135.806 2352.76,135.806 
  "/>
<polyline clip-path="url(#clip990)" style="stroke:#000000; stroke-width:4; stroke-opacity:1; fill:none" points="
  188.612,1486.45 188.612,123.472 
  "/>
<polyline clip-path="url(#clip990)" style="stroke:#000000; stroke-width:4; stroke-opacity:1; fill:none" points="
  188.612,1447.87 214.582,1447.87 
  "/>
<polyline clip-path="url(#clip990)" style="stroke:#000000; stroke-width:4; stroke-opacity:1; fill:none" points="
  188.612,1119.86 214.582,1119.86 
  "/>
<polyline clip-path="url(#clip990)" style="stroke:#000000; stroke-width:4; stroke-opacity:1; fill:none" points="
  188.612,791.839 214.582,791.839 
  "/>
<polyline clip-path="url(#clip990)" style="stroke:#000000; stroke-width:4; stroke-opacity:1; fill:none" points="
  188.612,463.822 214.582,463.822 
  "/>
<polyline clip-path="url(#clip990)" style="stroke:#000000; stroke-width:4; stroke-opacity:1; fill:none" points="
  188.612,135.806 214.582,135.806 
  "/>
<path clip-path="url(#clip990)" d="M 0 0 M140.668 1433.67 Q137.056 1433.67 135.228 1437.24 Q133.422 1440.78 133.422 1447.91 Q133.422 1455.01 135.228 1458.58 Q137.056 1462.12 140.668 1462.12 Q144.302 1462.12 146.107 1458.58 Q147.936 1455.01 147.936 1447.91 Q147.936 1440.78 146.107 1437.24 Q144.302 1433.67 140.668 1433.67 M140.668 1429.97 Q146.478 1429.97 149.533 1434.57 Q152.612 1439.16 152.612 1447.91 Q152.612 1456.63 149.533 1461.24 Q146.478 1465.82 140.668 1465.82 Q134.857 1465.82 131.779 1461.24 Q128.723 1456.63 128.723 1447.91 Q128.723 1439.16 131.779 1434.57 Q134.857 1429.97 140.668 1429.97 Z" fill="#000000" fill-rule="evenodd" fill-opacity="1" /><path clip-path="url(#clip990)" d="M 0 0 M83.2605 1133.2 L99.5798 1133.2 L99.5798 1137.14 L77.6355 1137.14 L77.6355 1133.2 Q80.2975 1130.45 84.8808 1125.82 Q89.4873 1121.16 90.6678 1119.82 Q92.9132 1117.3 93.7928 1115.56 Q94.6956 1113.8 94.6956 1112.11 Q94.6956 1109.36 92.7512 1107.62 Q90.8299 1105.89 87.728 1105.89 Q85.529 1105.89 83.0753 1106.65 Q80.6447 1107.41 77.867 1108.97 L77.867 1104.24 Q80.691 1103.11 83.1447 1102.53 Q85.5984 1101.95 87.6354 1101.95 Q93.0058 1101.95 96.2002 1104.64 Q99.3946 1107.32 99.3946 1111.81 Q99.3946 1113.94 98.5845 1115.86 Q97.7974 1117.76 95.691 1120.35 Q95.1123 1121.03 92.0104 1124.24 Q88.9086 1127.44 83.2605 1133.2 Z" fill="#000000" fill-rule="evenodd" fill-opacity="1" /><path clip-path="url(#clip990)" d="M 0 0 M104.696 1102.58 L123.052 1102.58 L123.052 1106.51 L108.978 1106.51 L108.978 1114.98 Q109.996 1114.64 111.015 1114.47 Q112.033 1114.29 113.052 1114.29 Q118.839 1114.29 122.219 1117.46 Q125.598 1120.63 125.598 1126.05 Q125.598 1131.63 122.126 1134.73 Q118.654 1137.81 112.334 1137.81 Q110.158 1137.81 107.89 1137.44 Q105.645 1137.07 103.237 1136.33 L103.237 1131.63 Q105.321 1132.76 107.543 1133.32 Q109.765 1133.87 112.242 1133.87 Q116.246 1133.87 118.584 1131.77 Q120.922 1129.66 120.922 1126.05 Q120.922 1122.44 118.584 1120.33 Q116.246 1118.22 112.242 1118.22 Q110.367 1118.22 108.492 1118.64 Q106.64 1119.06 104.696 1119.94 L104.696 1102.58 Z" fill="#000000" fill-rule="evenodd" fill-opacity="1" /><path clip-path="url(#clip990)" d="M 0 0 M140.668 1105.65 Q137.056 1105.65 135.228 1109.22 Q133.422 1112.76 133.422 1119.89 Q133.422 1127 135.228 1130.56 Q137.056 1134.1 140.668 1134.1 Q144.302 1134.1 146.107 1130.56 Q147.936 1127 147.936 1119.89 Q147.936 1112.76 146.107 1109.22 Q144.302 1105.65 140.668 1105.65 M140.668 1101.95 Q146.478 1101.95 149.533 1106.56 Q152.612 1111.14 152.612 1119.89 Q152.612 1128.62 149.533 1133.22 Q146.478 1137.81 140.668 1137.81 Q134.857 1137.81 131.779 1133.22 Q128.723 1128.62 128.723 1119.89 Q128.723 1111.14 131.779 1106.56 Q134.857 1101.95 140.668 1101.95 Z" fill="#000000" fill-rule="evenodd" fill-opacity="1" /><path clip-path="url(#clip990)" d="M 0 0 M77.6818 774.559 L96.0382 774.559 L96.0382 778.494 L81.9642 778.494 L81.9642 786.967 Q82.9827 786.619 84.0012 786.457 Q85.0197 786.272 86.0382 786.272 Q91.8252 786.272 95.2049 789.444 Q98.5845 792.615 98.5845 798.031 Q98.5845 803.61 95.1123 806.712 Q91.6401 809.791 85.3206 809.791 Q83.1447 809.791 80.8762 809.42 Q78.6309 809.05 76.2235 808.309 L76.2235 803.61 Q78.3068 804.744 80.529 805.3 Q82.7512 805.855 85.2281 805.855 Q89.2327 805.855 91.5706 803.749 Q93.9086 801.643 93.9086 798.031 Q93.9086 794.42 91.5706 792.314 Q89.2327 790.207 85.2281 790.207 Q83.3531 790.207 81.4781 790.624 Q79.6262 791.041 77.6818 791.92 L77.6818 774.559 Z" fill="#000000" fill-rule="evenodd" fill-opacity="1" /><path clip-path="url(#clip990)" d="M 0 0 M113.654 777.638 Q110.043 777.638 108.214 781.203 Q106.408 784.744 106.408 791.874 Q106.408 798.98 108.214 802.545 Q110.043 806.087 113.654 806.087 Q117.288 806.087 119.094 802.545 Q120.922 798.98 120.922 791.874 Q120.922 784.744 119.094 781.203 Q117.288 777.638 113.654 777.638 M113.654 773.934 Q119.464 773.934 122.52 778.541 Q125.598 783.124 125.598 791.874 Q125.598 800.601 122.52 805.207 Q119.464 809.791 113.654 809.791 Q107.844 809.791 104.765 805.207 Q101.709 800.601 101.709 791.874 Q101.709 783.124 104.765 778.541 Q107.844 773.934 113.654 773.934 Z" fill="#000000" fill-rule="evenodd" fill-opacity="1" /><path clip-path="url(#clip990)" d="M 0 0 M140.668 777.638 Q137.056 777.638 135.228 781.203 Q133.422 784.744 133.422 791.874 Q133.422 798.98 135.228 802.545 Q137.056 806.087 140.668 806.087 Q144.302 806.087 146.107 802.545 Q147.936 798.98 147.936 791.874 Q147.936 784.744 146.107 781.203 Q144.302 777.638 140.668 777.638 M140.668 773.934 Q146.478 773.934 149.533 778.541 Q152.612 783.124 152.612 791.874 Q152.612 800.601 149.533 805.207 Q146.478 809.791 140.668 809.791 Q134.857 809.791 131.779 805.207 Q128.723 800.601 128.723 791.874 Q128.723 783.124 131.779 778.541 Q134.857 773.934 140.668 773.934 Z" fill="#000000" fill-rule="evenodd" fill-opacity="1" /><path clip-path="url(#clip990)" d="M 0 0 M77.3577 446.542 L99.5798 446.542 L99.5798 448.533 L87.0336 481.102 L82.1494 481.102 L93.9549 450.478 L77.3577 450.478 L77.3577 446.542 Z" fill="#000000" fill-rule="evenodd" fill-opacity="1" /><path clip-path="url(#clip990)" d="M 0 0 M104.696 446.542 L123.052 446.542 L123.052 450.478 L108.978 450.478 L108.978 458.95 Q109.996 458.603 111.015 458.441 Q112.033 458.255 113.052 458.255 Q118.839 458.255 122.219 461.427 Q125.598 464.598 125.598 470.015 Q125.598 475.593 122.126 478.695 Q118.654 481.774 112.334 481.774 Q110.158 481.774 107.89 481.403 Q105.645 481.033 103.237 480.292 L103.237 475.593 Q105.321 476.727 107.543 477.283 Q109.765 477.839 112.242 477.839 Q116.246 477.839 118.584 475.732 Q120.922 473.626 120.922 470.015 Q120.922 466.403 118.584 464.297 Q116.246 462.191 112.242 462.191 Q110.367 462.191 108.492 462.607 Q106.64 463.024 104.696 463.903 L104.696 446.542 Z" fill="#000000" fill-rule="evenodd" fill-opacity="1" /><path clip-path="url(#clip990)" d="M 0 0 M140.668 449.621 Q137.056 449.621 135.228 453.186 Q133.422 456.728 133.422 463.857 Q133.422 470.964 135.228 474.528 Q137.056 478.07 140.668 478.07 Q144.302 478.07 146.107 474.528 Q147.936 470.964 147.936 463.857 Q147.936 456.728 146.107 453.186 Q144.302 449.621 140.668 449.621 M140.668 445.917 Q146.478 445.917 149.533 450.524 Q152.612 455.107 152.612 463.857 Q152.612 472.584 149.533 477.19 Q146.478 481.774 140.668 481.774 Q134.857 481.774 131.779 477.19 Q128.723 472.584 128.723 463.857 Q128.723 455.107 131.779 450.524 Q134.857 445.917 140.668 445.917 Z" fill="#000000" fill-rule="evenodd" fill-opacity="1" /><path clip-path="url(#clip990)" d="M 0 0 M51.6634 149.15 L59.3023 149.15 L59.3023 122.785 L50.9921 124.451 L50.9921 120.192 L59.256 118.526 L63.9319 118.526 L63.9319 149.15 L71.5707 149.15 L71.5707 153.086 L51.6634 153.086 L51.6634 149.15 Z" fill="#000000" fill-rule="evenodd" fill-opacity="1" /><path clip-path="url(#clip990)" d="M 0 0 M86.6401 121.604 Q83.029 121.604 81.2003 125.169 Q79.3948 128.711 79.3948 135.84 Q79.3948 142.947 81.2003 146.512 Q83.029 150.053 86.6401 150.053 Q90.2743 150.053 92.0799 146.512 Q93.9086 142.947 93.9086 135.84 Q93.9086 128.711 92.0799 125.169 Q90.2743 121.604 86.6401 121.604 M86.6401 117.901 Q92.4502 117.901 95.5058 122.507 Q98.5845 127.09 98.5845 135.84 Q98.5845 144.567 95.5058 149.174 Q92.4502 153.757 86.6401 153.757 Q80.8299 153.757 77.7512 149.174 Q74.6957 144.567 74.6957 135.84 Q74.6957 127.09 77.7512 122.507 Q80.8299 117.901 86.6401 117.901 Z" fill="#000000" fill-rule="evenodd" fill-opacity="1" /><path clip-path="url(#clip990)" d="M 0 0 M113.654 121.604 Q110.043 121.604 108.214 125.169 Q106.408 128.711 106.408 135.84 Q106.408 142.947 108.214 146.512 Q110.043 150.053 113.654 150.053 Q117.288 150.053 119.094 146.512 Q120.922 142.947 120.922 135.84 Q120.922 128.711 119.094 125.169 Q117.288 121.604 113.654 121.604 M113.654 117.901 Q119.464 117.901 122.52 122.507 Q125.598 127.09 125.598 135.84 Q125.598 144.567 122.52 149.174 Q119.464 153.757 113.654 153.757 Q107.844 153.757 104.765 149.174 Q101.709 144.567 101.709 135.84 Q101.709 127.09 104.765 122.507 Q107.844 117.901 113.654 117.901 Z" fill="#000000" fill-rule="evenodd" fill-opacity="1" /><path clip-path="url(#clip990)" d="M 0 0 M140.668 121.604 Q137.056 121.604 135.228 125.169 Q133.422 128.711 133.422 135.84 Q133.422 142.947 135.228 146.512 Q137.056 150.053 140.668 150.053 Q144.302 150.053 146.107 146.512 Q147.936 142.947 147.936 135.84 Q147.936 128.711 146.107 125.169 Q144.302 121.604 140.668 121.604 M140.668 117.901 Q146.478 117.901 149.533 122.507 Q152.612 127.09 152.612 135.84 Q152.612 144.567 149.533 149.174 Q146.478 153.757 140.668 153.757 Q134.857 153.757 131.779 149.174 Q128.723 144.567 128.723 135.84 Q128.723 127.09 131.779 122.507 Q134.857 117.901 140.668 117.901 Z" fill="#000000" fill-rule="evenodd" fill-opacity="1" /><path clip-path="url(#clip990)" d="M 0 0 M708.661 18.8205 L708.661 65.8515 L718.546 65.8515 Q731.063 65.8515 736.856 60.1802 Q742.689 54.509 742.689 42.2752 Q742.689 30.1225 736.856 24.4918 Q731.063 18.8205 718.546 18.8205 L708.661 18.8205 M700.479 12.096 L717.29 12.096 Q734.871 12.096 743.094 19.4281 Q751.317 26.7198 751.317 42.2752 Q751.317 57.9117 743.054 65.2439 Q734.79 72.576 717.29 72.576 L700.479 72.576 L700.479 12.096 Z" fill="#000000" fill-rule="evenodd" fill-opacity="1" /><path clip-path="url(#clip990)" d="M 0 0 M779.755 49.7694 Q770.721 49.7694 767.238 51.8354 Q763.754 53.9013 763.754 58.8839 Q763.754 62.8538 766.346 65.2034 Q768.979 67.5124 773.476 67.5124 Q779.674 67.5124 783.401 63.1374 Q787.168 58.7219 787.168 51.4303 L787.168 49.7694 L779.755 49.7694 M794.622 46.6907 L794.622 72.576 L787.168 72.576 L787.168 65.6895 Q784.616 69.8214 780.808 71.8063 Q777 73.7508 771.491 73.7508 Q764.523 73.7508 760.392 69.8619 Q756.3 65.9325 756.3 59.3701 Q756.3 51.7138 761.404 47.825 Q766.549 43.9361 776.717 43.9361 L787.168 43.9361 L787.168 43.2069 Q787.168 38.0623 783.765 35.2672 Q780.403 32.4315 774.286 32.4315 Q770.397 32.4315 766.711 33.3632 Q763.025 34.295 759.622 36.1584 L759.622 29.2718 Q763.713 27.692 767.562 26.9223 Q771.41 26.1121 775.056 26.1121 Q784.899 26.1121 789.761 31.2163 Q794.622 36.3204 794.622 46.6907 Z" fill="#000000" fill-rule="evenodd" fill-opacity="1" /><path clip-path="url(#clip990)" d="M 0 0 M809.813 14.324 L809.813 27.2059 L825.165 27.2059 L825.165 32.9987 L809.813 32.9987 L809.813 57.6282 Q809.813 63.1779 811.311 64.7578 Q812.851 66.3376 817.509 66.3376 L825.165 66.3376 L825.165 72.576 L817.509 72.576 Q808.881 72.576 805.6 69.3758 Q802.318 66.1351 802.318 57.6282 L802.318 32.9987 L796.85 32.9987 L796.85 27.2059 L802.318 27.2059 L802.318 14.324 L809.813 14.324 Z" fill="#000000" fill-rule="evenodd" fill-opacity="1" /><path clip-path="url(#clip990)" d="M 0 0 M853.603 49.7694 Q844.569 49.7694 841.086 51.8354 Q837.602 53.9013 837.602 58.8839 Q837.602 62.8538 840.194 65.2034 Q842.827 67.5124 847.324 67.5124 Q853.522 67.5124 857.249 63.1374 Q861.016 58.7219 861.016 51.4303 L861.016 49.7694 L853.603 49.7694 M868.47 46.6907 L868.47 72.576 L861.016 72.576 L861.016 65.6895 Q858.464 69.8214 854.656 71.8063 Q850.848 73.7508 845.339 73.7508 Q838.371 73.7508 834.24 69.8619 Q830.148 65.9325 830.148 59.3701 Q830.148 51.7138 835.252 47.825 Q840.397 43.9361 850.565 43.9361 L861.016 43.9361 L861.016 43.2069 Q861.016 38.0623 857.613 35.2672 Q854.251 32.4315 848.134 32.4315 Q844.245 32.4315 840.559 33.3632 Q836.873 34.295 833.47 36.1584 L833.47 29.2718 Q837.561 27.692 841.41 26.9223 Q845.258 26.1121 848.904 26.1121 Q858.747 26.1121 863.609 31.2163 Q868.47 36.3204 868.47 46.6907 Z" fill="#000000" fill-rule="evenodd" fill-opacity="1" /><path clip-path="url(#clip990)" d="M 0 0 M923.278 49.7694 Q914.245 49.7694 910.761 51.8354 Q907.277 53.9013 907.277 58.8839 Q907.277 62.8538 909.87 65.2034 Q912.503 67.5124 916.999 67.5124 Q923.197 67.5124 926.924 63.1374 Q930.692 58.7219 930.692 51.4303 L930.692 49.7694 L923.278 49.7694 M938.145 46.6907 L938.145 72.576 L930.692 72.576 L930.692 65.6895 Q928.139 69.8214 924.332 71.8063 Q920.524 73.7508 915.015 73.7508 Q908.047 73.7508 903.915 69.8619 Q899.824 65.9325 899.824 59.3701 Q899.824 51.7138 904.928 47.825 Q910.072 43.9361 920.24 43.9361 L930.692 43.9361 L930.692 43.2069 Q930.692 38.0623 927.289 35.2672 Q923.927 32.4315 917.81 32.4315 Q913.921 32.4315 910.234 33.3632 Q906.548 34.295 903.145 36.1584 L903.145 29.2718 Q907.237 27.692 911.085 26.9223 Q914.934 26.1121 918.579 26.1121 Q928.423 26.1121 933.284 31.2163 Q938.145 36.3204 938.145 46.6907 Z" fill="#000000" fill-rule="evenodd" fill-opacity="1" /><path clip-path="url(#clip990)" d="M 0 0 M983.677 45.1919 L983.677 72.576 L976.224 72.576 L976.224 45.4349 Q976.224 38.994 973.712 35.7938 Q971.201 32.5936 966.177 32.5936 Q960.142 32.5936 956.658 36.4419 Q953.174 40.2903 953.174 46.9338 L953.174 72.576 L945.68 72.576 L945.68 27.2059 L953.174 27.2059 L953.174 34.2544 Q955.848 30.163 959.453 28.1376 Q963.099 26.1121 967.838 26.1121 Q975.657 26.1121 979.667 30.9732 Q983.677 35.7938 983.677 45.1919 Z" fill="#000000" fill-rule="evenodd" fill-opacity="1" /><path clip-path="url(#clip990)" d="M 0 0 M1021.35 34.0924 L1021.35 9.54393 L1028.8 9.54393 L1028.8 72.576 L1021.35 72.576 L1021.35 65.7705 Q1019 69.8214 1015.4 71.8063 Q1011.83 73.7508 1006.81 73.7508 Q998.585 73.7508 993.4 67.1883 Q988.255 60.6258 988.255 49.9314 Q988.255 39.2371 993.4 32.6746 Q998.585 26.1121 1006.81 26.1121 Q1011.83 26.1121 1015.4 28.0971 Q1019 30.0415 1021.35 34.0924 M995.952 49.9314 Q995.952 58.1548 999.314 62.8538 Q1002.72 67.5124 1008.63 67.5124 Q1014.55 67.5124 1017.95 62.8538 Q1021.35 58.1548 1021.35 49.9314 Q1021.35 41.7081 1017.95 37.0496 Q1014.55 32.3505 1008.63 32.3505 Q1002.72 32.3505 999.314 37.0496 Q995.952 41.7081 995.952 49.9314 Z" fill="#000000" fill-rule="evenodd" fill-opacity="1" /><path clip-path="url(#clip990)" d="M 0 0 M1054.93 12.096 L1106.1 12.096 L1106.1 18.9825 L1084.63 18.9825 L1084.63 72.576 L1076.4 72.576 L1076.4 18.9825 L1054.93 18.9825 L1054.93 12.096 Z" fill="#000000" fill-rule="evenodd" fill-opacity="1" /><path clip-path="url(#clip990)" d="M 0 0 M1128.01 34.1734 Q1126.76 33.4443 1125.26 33.1202 Q1123.8 32.7556 1122.02 32.7556 Q1115.7 32.7556 1112.29 36.8875 Q1108.93 40.9789 1108.93 48.6757 L1108.93 72.576 L1101.44 72.576 L1101.44 27.2059 L1108.93 27.2059 L1108.93 34.2544 Q1111.28 30.1225 1115.05 28.1376 Q1118.82 26.1121 1124.2 26.1121 Q1124.97 26.1121 1125.9 26.2337 Q1126.84 26.3147 1127.97 26.5172 L1128.01 34.1734 Z" fill="#000000" fill-rule="evenodd" fill-opacity="1" /><path clip-path="url(#clip990)" d="M 0 0 M1135.06 54.671 L1135.06 27.2059 L1142.51 27.2059 L1142.51 54.3874 Q1142.51 60.8284 1145.02 64.0691 Q1147.54 67.2693 1152.56 67.2693 Q1158.6 67.2693 1162.08 63.421 Q1165.6 59.5726 1165.6 52.9291 L1165.6 27.2059 L1173.06 27.2059 L1173.06 72.576 L1165.6 72.576 L1165.6 65.6084 Q1162.89 69.7404 1159.28 71.7658 Q1155.72 73.7508 1150.98 73.7508 Q1143.16 73.7508 1139.11 68.8897 Q1135.06 64.0286 1135.06 54.671 M1153.82 26.1121 L1153.82 26.1121 Z" fill="#000000" fill-rule="evenodd" fill-opacity="1" /><path clip-path="url(#clip990)" d="M 0 0 M1219.68 48.0275 L1219.68 51.6733 L1185.41 51.6733 Q1185.9 59.3701 1190.03 63.421 Q1194.2 67.4314 1201.62 67.4314 Q1205.91 67.4314 1209.92 66.3781 Q1213.97 65.3249 1217.94 63.2184 L1217.94 70.267 Q1213.93 71.9684 1209.72 72.8596 Q1205.5 73.7508 1201.17 73.7508 Q1190.31 73.7508 1183.95 67.4314 Q1177.63 61.1119 1177.63 50.3365 Q1177.63 39.1965 1183.63 32.6746 Q1189.67 26.1121 1199.87 26.1121 Q1209.03 26.1121 1214.34 32.0264 Q1219.68 37.9003 1219.68 48.0275 M1212.23 45.84 Q1212.15 39.7232 1208.79 36.0774 Q1205.46 32.4315 1199.96 32.4315 Q1193.72 32.4315 1189.95 35.9558 Q1186.22 39.4801 1185.66 45.8805 L1212.23 45.84 Z" fill="#000000" fill-rule="evenodd" fill-opacity="1" /><path clip-path="url(#clip990)" d="M 0 0 M1290.45 14.0809 L1290.45 22.0612 Q1285.79 19.8332 1281.66 18.7395 Q1277.53 17.6457 1273.68 17.6457 Q1267 17.6457 1263.35 20.2383 Q1259.75 22.8309 1259.75 27.611 Q1259.75 31.6214 1262.14 33.6873 Q1264.57 35.7128 1271.29 36.9686 L1276.23 37.9813 Q1285.39 39.7232 1289.72 44.1387 Q1294.1 48.5136 1294.1 55.8863 Q1294.1 64.6767 1288.18 69.2137 Q1282.31 73.7508 1270.93 73.7508 Q1266.63 73.7508 1261.77 72.7785 Q1256.95 71.8063 1251.77 69.9024 L1251.77 61.4765 Q1256.75 64.2716 1261.53 65.6895 Q1266.31 67.1073 1270.93 67.1073 Q1277.94 67.1073 1281.74 64.3527 Q1285.55 61.598 1285.55 56.4939 Q1285.55 52.0379 1282.8 49.5264 Q1280.08 47.0148 1273.84 45.759 L1268.86 44.7868 Q1259.71 42.9639 1255.61 39.075 Q1251.52 35.1862 1251.52 28.2591 Q1251.52 20.2383 1257.15 15.6203 Q1262.83 11.0023 1272.75 11.0023 Q1277 11.0023 1281.42 11.7719 Q1285.83 12.5416 1290.45 14.0809 Z" fill="#000000" fill-rule="evenodd" fill-opacity="1" /><path clip-path="url(#clip990)" d="M 0 0 M1309.29 14.324 L1309.29 27.2059 L1324.64 27.2059 L1324.64 32.9987 L1309.29 32.9987 L1309.29 57.6282 Q1309.29 63.1779 1310.79 64.7578 Q1312.33 66.3376 1316.99 66.3376 L1324.64 66.3376 L1324.64 72.576 L1316.99 72.576 Q1308.36 72.576 1305.08 69.3758 Q1301.79 66.1351 1301.79 57.6282 L1301.79 32.9987 L1296.33 32.9987 L1296.33 27.2059 L1301.79 27.2059 L1301.79 14.324 L1309.29 14.324 Z" fill="#000000" fill-rule="evenodd" fill-opacity="1" /><path clip-path="url(#clip990)" d="M 0 0 M1353.08 49.7694 Q1344.05 49.7694 1340.56 51.8354 Q1337.08 53.9013 1337.08 58.8839 Q1337.08 62.8538 1339.67 65.2034 Q1342.3 67.5124 1346.8 67.5124 Q1353 67.5124 1356.73 63.1374 Q1360.49 58.7219 1360.49 51.4303 L1360.49 49.7694 L1353.08 49.7694 M1367.95 46.6907 L1367.95 72.576 L1360.49 72.576 L1360.49 65.6895 Q1357.94 69.8214 1354.13 71.8063 Q1350.32 73.7508 1344.82 73.7508 Q1337.85 73.7508 1333.72 69.8619 Q1329.62 65.9325 1329.62 59.3701 Q1329.62 51.7138 1334.73 47.825 Q1339.87 43.9361 1350.04 43.9361 L1360.49 43.9361 L1360.49 43.2069 Q1360.49 38.0623 1357.09 35.2672 Q1353.73 32.4315 1347.61 32.4315 Q1343.72 32.4315 1340.04 33.3632 Q1336.35 34.295 1332.95 36.1584 L1332.95 29.2718 Q1337.04 27.692 1340.89 26.9223 Q1344.73 26.1121 1348.38 26.1121 Q1358.22 26.1121 1363.09 31.2163 Q1367.95 36.3204 1367.95 46.6907 Z" fill="#000000" fill-rule="evenodd" fill-opacity="1" /><path clip-path="url(#clip990)" d="M 0 0 M1383.14 14.324 L1383.14 27.2059 L1398.49 27.2059 L1398.49 32.9987 L1383.14 32.9987 L1383.14 57.6282 Q1383.14 63.1779 1384.64 64.7578 Q1386.18 66.3376 1390.83 66.3376 L1398.49 66.3376 L1398.49 72.576 L1390.83 72.576 Q1382.21 72.576 1378.92 69.3758 Q1375.64 66.1351 1375.64 57.6282 L1375.64 32.9987 L1370.17 32.9987 L1370.17 27.2059 L1375.64 27.2059 L1375.64 14.324 L1383.14 14.324 Z" fill="#000000" fill-rule="evenodd" fill-opacity="1" /><path clip-path="url(#clip990)" d="M 0 0 M1406.31 27.2059 L1413.76 27.2059 L1413.76 72.576 L1406.31 72.576 L1406.31 27.2059 M1406.31 9.54393 L1413.76 9.54393 L1413.76 18.9825 L1406.31 18.9825 L1406.31 9.54393 Z" fill="#000000" fill-rule="evenodd" fill-opacity="1" /><path clip-path="url(#clip990)" d="M 0 0 M1450.5 28.5427 L1450.5 35.5912 Q1447.34 33.9709 1443.94 33.1607 Q1440.54 32.3505 1436.89 32.3505 Q1431.34 32.3505 1428.55 34.0519 Q1425.79 35.7533 1425.79 39.156 Q1425.79 41.7486 1427.78 43.2475 Q1429.76 44.7058 1435.76 46.0426 L1438.31 46.6097 Q1446.25 48.3111 1449.57 51.4303 Q1452.93 54.509 1452.93 60.0587 Q1452.93 66.3781 1447.91 70.0644 Q1442.93 73.7508 1434.18 73.7508 Q1430.53 73.7508 1426.56 73.0216 Q1422.63 72.3329 1418.26 70.9151 L1418.26 63.2184 Q1422.39 65.3654 1426.4 66.4591 Q1430.41 67.5124 1434.34 67.5124 Q1439.61 67.5124 1442.44 65.73 Q1445.28 63.9071 1445.28 60.6258 Q1445.28 57.5877 1443.21 55.9673 Q1441.19 54.3469 1434.26 52.8481 L1431.67 52.2405 Q1424.74 50.7821 1421.66 47.7845 Q1418.58 44.7463 1418.58 39.4801 Q1418.58 33.0797 1423.12 29.5959 Q1427.66 26.1121 1436 26.1121 Q1440.13 26.1121 1443.78 26.7198 Q1447.42 27.3274 1450.5 28.5427 Z" fill="#000000" fill-rule="evenodd" fill-opacity="1" /><path clip-path="url(#clip990)" d="M 0 0 M1468.13 14.324 L1468.13 27.2059 L1483.48 27.2059 L1483.48 32.9987 L1468.13 32.9987 L1468.13 57.6282 Q1468.13 63.1779 1469.62 64.7578 Q1471.16 66.3376 1475.82 66.3376 L1483.48 66.3376 L1483.48 72.576 L1475.82 72.576 Q1467.19 72.576 1463.91 69.3758 Q1460.63 66.1351 1460.63 57.6282 L1460.63 32.9987 L1455.16 32.9987 L1455.16 27.2059 L1460.63 27.2059 L1460.63 14.324 L1468.13 14.324 Z" fill="#000000" fill-rule="evenodd" fill-opacity="1" /><path clip-path="url(#clip990)" d="M 0 0 M1491.3 27.2059 L1498.75 27.2059 L1498.75 72.576 L1491.3 72.576 L1491.3 27.2059 M1491.3 9.54393 L1498.75 9.54393 L1498.75 18.9825 L1491.3 18.9825 L1491.3 9.54393 Z" fill="#000000" fill-rule="evenodd" fill-opacity="1" /><path clip-path="url(#clip990)" d="M 0 0 M1539.22 28.9478 L1539.22 35.9153 Q1536.06 34.1734 1532.86 33.3227 Q1529.7 32.4315 1526.46 32.4315 Q1519.21 32.4315 1515.2 37.0496 Q1511.19 41.6271 1511.19 49.9314 Q1511.19 58.2358 1515.2 62.8538 Q1519.21 67.4314 1526.46 67.4314 Q1529.7 67.4314 1532.86 66.5807 Q1536.06 65.6895 1539.22 63.9476 L1539.22 70.8341 Q1536.1 72.2924 1532.74 73.0216 Q1529.42 73.7508 1525.65 73.7508 Q1515.4 73.7508 1509.36 67.3098 Q1503.33 60.8689 1503.33 49.9314 Q1503.33 38.832 1509.4 32.472 Q1515.52 26.1121 1526.13 26.1121 Q1529.58 26.1121 1532.86 26.8413 Q1536.14 27.5299 1539.22 28.9478 Z" fill="#000000" fill-rule="evenodd" fill-opacity="1" /><path clip-path="url(#clip990)" d="M 0 0 M1567.66 49.7694 Q1558.62 49.7694 1555.14 51.8354 Q1551.65 53.9013 1551.65 58.8839 Q1551.65 62.8538 1554.25 65.2034 Q1556.88 67.5124 1561.38 67.5124 Q1567.57 67.5124 1571.3 63.1374 Q1575.07 58.7219 1575.07 51.4303 L1575.07 49.7694 L1567.66 49.7694 M1582.52 46.6907 L1582.52 72.576 L1575.07 72.576 L1575.07 65.6895 Q1572.52 69.8214 1568.71 71.8063 Q1564.9 73.7508 1559.39 73.7508 Q1552.42 73.7508 1548.29 69.8619 Q1544.2 65.9325 1544.2 59.3701 Q1544.2 51.7138 1549.31 47.825 Q1554.45 43.9361 1564.62 43.9361 L1575.07 43.9361 L1575.07 43.2069 Q1575.07 38.0623 1571.67 35.2672 Q1568.3 32.4315 1562.19 32.4315 Q1558.3 32.4315 1554.61 33.3632 Q1550.93 34.295 1547.52 36.1584 L1547.52 29.2718 Q1551.61 27.692 1555.46 26.9223 Q1559.31 26.1121 1562.96 26.1121 Q1572.8 26.1121 1577.66 31.2163 Q1582.52 36.3204 1582.52 46.6907 Z" fill="#000000" fill-rule="evenodd" fill-opacity="1" /><path clip-path="url(#clip990)" d="M 0 0 M1590.34 9.54393 L1597.79 9.54393 L1597.79 72.576 L1590.34 72.576 L1590.34 9.54393 Z" fill="#000000" fill-rule="evenodd" fill-opacity="1" /><path clip-path="url(#clip990)" d="M 0 0 M1632.31 12.096 L1644.5 12.096 L1659.94 53.2532 L1675.45 12.096 L1687.64 12.096 L1687.64 72.576 L1679.66 72.576 L1679.66 19.4686 L1664.07 60.9499 L1655.84 60.9499 L1640.25 19.4686 L1640.25 72.576 L1632.31 72.576 L1632.31 12.096 Z" fill="#000000" fill-rule="evenodd" fill-opacity="1" /><path clip-path="url(#clip990)" d="M 0 0 M1713.04 32.4315 Q1707.05 32.4315 1703.56 37.1306 Q1700.08 41.7891 1700.08 49.9314 Q1700.08 58.0738 1703.52 62.7728 Q1707.01 67.4314 1713.04 67.4314 Q1719 67.4314 1722.48 62.7323 Q1725.97 58.0333 1725.97 49.9314 Q1725.97 41.8701 1722.48 37.1711 Q1719 32.4315 1713.04 32.4315 M1713.04 26.1121 Q1722.76 26.1121 1728.31 32.4315 Q1733.86 38.7509 1733.86 49.9314 Q1733.86 61.0714 1728.31 67.4314 Q1722.76 73.7508 1713.04 73.7508 Q1703.28 73.7508 1697.73 67.4314 Q1692.22 61.0714 1692.22 49.9314 Q1692.22 38.7509 1697.73 32.4315 Q1703.28 26.1121 1713.04 26.1121 Z" fill="#000000" fill-rule="evenodd" fill-opacity="1" /><path clip-path="url(#clip990)" d="M 0 0 M1771.54 34.0924 L1771.54 9.54393 L1778.99 9.54393 L1778.99 72.576 L1771.54 72.576 L1771.54 65.7705 Q1769.19 69.8214 1765.58 71.8063 Q1762.02 73.7508 1756.99 73.7508 Q1748.77 73.7508 1743.59 67.1883 Q1738.44 60.6258 1738.44 49.9314 Q1738.44 39.2371 1743.59 32.6746 Q1748.77 26.1121 1756.99 26.1121 Q1762.02 26.1121 1765.58 28.0971 Q1769.19 30.0415 1771.54 34.0924 M1746.14 49.9314 Q1746.14 58.1548 1749.5 62.8538 Q1752.9 67.5124 1758.82 67.5124 Q1764.73 67.5124 1768.13 62.8538 Q1771.54 58.1548 1771.54 49.9314 Q1771.54 41.7081 1768.13 37.0496 Q1764.73 32.3505 1758.82 32.3505 Q1752.9 32.3505 1749.5 37.0496 Q1746.14 41.7081 1746.14 49.9314 Z" fill="#000000" fill-rule="evenodd" fill-opacity="1" /><path clip-path="url(#clip990)" d="M 0 0 M1825.62 48.0275 L1825.62 51.6733 L1791.35 51.6733 Q1791.83 59.3701 1795.96 63.421 Q1800.14 67.4314 1807.55 67.4314 Q1811.84 67.4314 1815.85 66.3781 Q1819.91 65.3249 1823.88 63.2184 L1823.88 70.267 Q1819.87 71.9684 1815.65 72.8596 Q1811.44 73.7508 1807.1 73.7508 Q1796.25 73.7508 1789.89 67.4314 Q1783.57 61.1119 1783.57 50.3365 Q1783.57 39.1965 1789.56 32.6746 Q1795.6 26.1121 1805.81 26.1121 Q1814.96 26.1121 1820.27 32.0264 Q1825.62 37.9003 1825.62 48.0275 M1818.16 45.84 Q1818.08 39.7232 1814.72 36.0774 Q1811.4 32.4315 1805.89 32.4315 Q1799.65 32.4315 1795.88 35.9558 Q1792.16 39.4801 1791.59 45.8805 L1818.16 45.84 Z" fill="#000000" fill-rule="evenodd" fill-opacity="1" /><path clip-path="url(#clip990)" d="M 0 0 M1833.44 9.54393 L1840.89 9.54393 L1840.89 72.576 L1833.44 72.576 L1833.44 9.54393 Z" fill="#000000" fill-rule="evenodd" fill-opacity="1" /><polyline clip-path="url(#clip992)" style="stroke:#009af9; stroke-width:4; stroke-opacity:1; fill:none" points="
  760.273,1447.87 760.273,1369.15 785.793,1369.15 785.793,1290.42 811.314,1290.42 836.834,1290.42 836.834,1224.82 862.355,1224.82 862.355,1251.06 
  887.875,1251.06 887.875,1080.49 913.396,1080.49 938.917,1080.49 938.917,896.805 964.437,896.805 964.437,1001.77 989.958,1001.77 989.958,962.408 
  1015.48,962.408 1015.48,1001.77 1041,1001.77 1041,844.322 1066.52,844.322 1066.52,1119.86 1092.04,1119.86 1092.04,1014.89 1117.56,1014.89 1117.56,1106.74 
  1143.08,1106.74 1143.08,949.287 1168.6,949.287 1168.6,1185.46 1194.12,1185.46 1194.12,1303.55 1219.64,1303.55 1219.64,1329.79 1245.16,1329.79 1245.16,1369.15 
  1270.68,1369.15 1296.2,1369.15 1296.2,1434.75 1321.73,1434.75 1321.73,1421.63 1347.25,1421.63 1372.77,1421.63 1372.77,1447.87 
  1398.29,1447.87 1398.29,1421.63 1423.81,1421.63 1423.81,1447.87 1449.33,1447.87 1449.33,1395.39 1474.85,1395.39 1474.85,1342.91 1500.37,1342.91 1500.37,1356.03 
  1525.89,1356.03 1525.89,1237.94 1551.41,1237.94 1551.41,1106.74 1576.93,1106.74 1576.93,1028.01 1602.45,1028.01 1602.45,1172.34 1627.97,1172.34 1627.97,883.684 
  1653.49,883.684 1653.49,713.115 1679.01,713.115 1679.01,581.909 1704.53,581.909 1704.53,686.874 1730.05,686.874 1730.05,293.254 1755.57,293.254 1755.57,162.047 
  1781.1,162.047 1781.1,555.667 1806.62,555.667 1806.62,542.546 1832.14,542.546 1832.14,595.029 1857.66,595.029 1857.66,581.909 1883.18,581.909 1883.18,647.512 
  1908.7,647.512 1908.7,673.753 1934.22,673.753 1934.22,1001.77 1959.74,1001.77 1959.74,1303.55 1985.26,1303.55 1985.26,1356.03 2010.78,1356.03 2010.78,1303.55 
  2036.3,1303.55 2036.3,1290.42 2061.82,1290.42 2061.82,1395.39 2087.34,1395.39 2087.34,1434.75 2112.86,1434.75 2112.86,1421.63 2138.38,1421.63 2138.38,1395.39 
  2163.9,1395.39 2163.9,1447.87 2189.42,1447.87 2214.94,1447.87 2240.47,1447.87 2265.99,1447.87 
  2291.51,1447.87 
  "/>
<polyline clip-path="url(#clip992)" style="stroke:#e26f46; stroke-width:4; stroke-opacity:1; fill:none" points="
  249.861,1447.87 252.413,1447.87 254.965,1447.87 257.517,1447.87 260.07,1447.87 262.622,1447.87 265.174,1447.87 267.726,1447.87 270.278,1447.87 272.83,1447.87 
  275.382,1447.87 277.934,1447.87 280.486,1447.87 283.038,1447.87 285.59,1447.87 288.142,1447.87 290.694,1447.87 293.246,1447.87 295.798,1447.87 298.35,1447.87 
  300.902,1447.87 303.454,1447.87 306.007,1447.87 308.559,1447.87 311.111,1447.87 313.663,1447.87 316.215,1447.87 318.767,1447.87 321.319,1447.87 323.871,1447.87 
  326.423,1447.87 328.975,1447.87 331.527,1447.87 334.079,1447.87 336.631,1447.87 339.183,1447.87 341.735,1447.87 344.287,1447.87 346.839,1447.87 349.392,1447.87 
  351.944,1447.87 354.496,1447.87 357.048,1447.87 359.6,1447.87 362.152,1447.87 364.704,1447.87 367.256,1447.87 369.808,1447.87 372.36,1447.87 374.912,1447.87 
  377.464,1447.87 380.016,1447.87 382.568,1447.87 385.12,1447.87 387.672,1447.87 390.224,1447.87 392.776,1447.87 395.329,1447.87 397.881,1447.87 400.433,1447.87 
  402.985,1447.87 405.537,1447.87 408.089,1447.87 410.641,1447.87 413.193,1447.87 415.745,1447.86 418.297,1447.86 420.849,1447.86 423.401,1447.86 425.953,1447.86 
  428.505,1447.86 431.057,1447.86 433.609,1447.86 436.161,1447.86 438.713,1447.85 441.266,1447.85 443.818,1447.85 446.37,1447.85 448.922,1447.85 451.474,1447.84 
  454.026,1447.84 456.578,1447.84 459.13,1447.83 461.682,1447.83 464.234,1447.83 466.786,1447.82 469.338,1447.82 471.89,1447.81 474.442,1447.81 476.994,1447.8 
  479.546,1447.8 482.098,1447.79 484.651,1447.78 487.203,1447.77 489.755,1447.77 492.307,1447.76 494.859,1447.75 497.411,1447.74 499.963,1447.72 502.515,1447.71 
  505.067,1447.7 507.619,1447.68 510.171,1447.67 512.723,1447.65 515.275,1447.63 517.827,1447.61 520.379,1447.59 522.931,1447.57 525.483,1447.54 528.035,1447.52 
  530.588,1447.49 533.14,1447.46 535.692,1447.43 538.244,1447.39 540.796,1447.36 543.348,1447.32 545.9,1447.27 548.452,1447.23 551.004,1447.18 553.556,1447.13 
  556.108,1447.07 558.66,1447.01 561.212,1446.95 563.764,1446.88 566.316,1446.81 568.868,1446.73 571.42,1446.65 573.972,1446.56 576.525,1446.46 579.077,1446.36 
  581.629,1446.26 584.181,1446.14 586.733,1446.02 589.285,1445.89 591.837,1445.76 594.389,1445.61 596.941,1445.46 599.493,1445.3 602.045,1445.12 604.597,1444.94 
  607.149,1444.75 609.701,1444.54 612.253,1444.32 614.805,1444.09 617.357,1443.85 619.91,1443.59 622.462,1443.31 625.014,1443.02 627.566,1442.72 630.118,1442.4 
  632.67,1442.06 635.222,1441.7 637.774,1441.32 640.326,1440.92 642.878,1440.5 645.43,1440.06 647.982,1439.6 650.534,1439.11 653.086,1438.6 655.638,1438.06 
  658.19,1437.49 660.742,1436.89 663.294,1436.27 665.847,1435.61 668.399,1434.92 670.951,1434.2 673.503,1433.44 676.055,1432.65 678.607,1431.82 681.159,1430.96 
  683.711,1430.05 686.263,1429.1 688.815,1428.11 691.367,1427.08 693.919,1426 696.471,1424.87 699.023,1423.7 701.575,1422.48 704.127,1421.2 706.679,1419.87 
  709.231,1418.49 711.784,1417.05 714.336,1415.56 716.888,1414 719.44,1412.38 721.992,1410.71 724.544,1408.96 727.096,1407.16 729.648,1405.28 732.2,1403.34 
  734.752,1401.33 737.304,1399.24 739.856,1397.09 742.408,1394.86 744.96,1392.55 747.512,1390.16 750.064,1387.7 752.616,1385.16 755.169,1382.53 757.721,1379.82 
  760.273,1377.03 762.825,1374.16 765.377,1371.19 767.929,1368.15 770.481,1365.01 773.033,1361.78 775.585,1358.46 778.137,1355.06 780.689,1351.56 783.241,1347.97 
  785.793,1344.29 788.345,1340.51 790.897,1336.64 793.449,1332.68 796.001,1328.62 798.553,1324.47 801.106,1320.23 803.658,1315.9 806.21,1311.47 808.762,1306.95 
  811.314,1302.34 813.866,1297.64 816.418,1292.84 818.97,1287.96 821.522,1282.99 824.074,1277.94 826.626,1272.8 829.178,1267.57 831.73,1262.27 834.282,1256.88 
  836.834,1251.42 839.386,1245.88 841.938,1240.27 844.49,1234.59 847.043,1228.84 849.595,1223.03 852.147,1217.15 854.699,1211.21 857.251,1205.22 859.803,1199.18 
  862.355,1193.09 864.907,1186.95 867.459,1180.77 870.011,1174.56 872.563,1168.31 875.115,1162.04 877.667,1155.74 880.219,1149.42 882.771,1143.08 885.323,1136.74 
  887.875,1130.39 890.428,1124.04 892.98,1117.7 895.532,1111.37 898.084,1105.05 900.636,1098.75 903.188,1092.48 905.74,1086.24 908.292,1080.04 910.844,1073.89 
  913.396,1067.78 915.948,1061.73 918.5,1055.73 921.052,1049.81 923.604,1043.95 926.156,1038.17 928.708,1032.48 931.26,1026.88 933.812,1021.37 936.365,1015.96 
  938.917,1010.66 941.469,1005.47 944.021,1000.4 946.573,995.449 949.125,990.627 951.677,985.94 954.229,981.39 956.781,976.985 959.333,972.728 961.885,968.624 
  964.437,964.678 966.989,960.894 969.541,957.277 972.093,953.831 974.645,950.559 977.197,947.467 979.749,944.556 982.302,941.83 984.854,939.294 987.406,936.949 
  989.958,934.799 992.51,932.845 995.062,931.091 997.614,929.539 1000.17,928.189 1002.72,927.045 1005.27,926.106 1007.82,925.375 1010.37,924.852 1012.93,924.539 
  1015.48,924.434 1018.03,924.539 1020.58,924.852 1023.13,925.375 1025.69,926.106 1028.24,927.045 1030.79,928.189 1033.34,929.538 1035.89,931.091 1038.45,932.845 
  1041,934.799 1043.55,936.949 1046.1,939.294 1048.66,941.83 1051.21,944.556 1053.76,947.466 1056.31,950.559 1058.86,953.831 1061.42,957.277 1063.97,960.894 
  1066.52,964.678 1069.07,968.624 1071.62,972.727 1074.18,976.985 1076.73,981.39 1079.28,985.939 1081.83,990.627 1084.38,995.448 1086.94,1000.4 1089.49,1005.47 
  1092.04,1010.66 1094.59,1015.96 1097.14,1021.37 1099.7,1026.88 1102.25,1032.48 1104.8,1038.17 1107.35,1043.95 1109.9,1049.8 1112.46,1055.73 1115.01,1061.72 
  1117.56,1067.78 1120.11,1073.88 1122.66,1080.04 1125.22,1086.24 1127.77,1092.48 1130.32,1098.75 1132.87,1105.05 1135.42,1111.36 1137.98,1117.7 1140.53,1124.04 
  1143.08,1130.39 1145.63,1136.74 1148.19,1143.08 1150.74,1149.41 1153.29,1155.73 1155.84,1162.03 1158.39,1168.3 1160.95,1174.55 1163.5,1180.77 1166.05,1186.94 
  1168.6,1193.08 1171.15,1199.17 1173.71,1205.21 1176.26,1211.2 1178.81,1217.13 1181.36,1223.01 1183.91,1228.82 1186.47,1234.57 1189.02,1240.25 1191.57,1245.86 
  1194.12,1251.39 1196.67,1256.85 1199.23,1262.24 1201.78,1267.54 1204.33,1272.76 1206.88,1277.9 1209.43,1282.95 1211.99,1287.91 1214.54,1292.79 1217.09,1297.58 
  1219.64,1302.27 1222.19,1306.88 1224.75,1311.39 1227.3,1315.81 1229.85,1320.14 1232.4,1324.37 1234.96,1328.51 1237.51,1332.56 1240.06,1336.51 1242.61,1340.37 
  1245.16,1344.13 1247.72,1347.8 1250.27,1351.38 1252.82,1354.86 1255.37,1358.25 1257.92,1361.55 1260.48,1364.75 1263.03,1367.87 1265.58,1370.9 1268.13,1373.83 
  1270.68,1376.68 1273.24,1379.44 1275.79,1382.12 1278.34,1384.71 1280.89,1387.22 1283.44,1389.64 1286,1391.98 1288.55,1394.25 1291.1,1396.43 1293.65,1398.53 
  1296.2,1400.56 1298.76,1402.51 1301.31,1404.39 1303.86,1406.2 1306.41,1407.93 1308.96,1409.59 1311.52,1411.18 1314.07,1412.71 1316.62,1414.17 1319.17,1415.56 
  1321.73,1416.88 1324.28,1418.15 1326.83,1419.35 1329.38,1420.49 1331.93,1421.57 1334.49,1422.58 1337.04,1423.55 1339.59,1424.45 1342.14,1425.29 1344.69,1426.08 
  1347.25,1426.82 1349.8,1427.5 1352.35,1428.12 1354.9,1428.69 1357.45,1429.21 1360.01,1429.68 1362.56,1430.09 1365.11,1430.46 1367.66,1430.77 1370.21,1431.02 
  1372.77,1431.23 1375.32,1431.39 1377.87,1431.49 1380.42,1431.54 1382.97,1431.54 1385.53,1431.49 1388.08,1431.39 1390.63,1431.23 1393.18,1431.02 1395.73,1430.75 
  1398.29,1430.43 1400.84,1430.05 1403.39,1429.62 1405.94,1429.13 1408.49,1428.58 1411.05,1427.97 1413.6,1427.3 1416.15,1426.56 1418.7,1425.77 1421.26,1424.9 
  1423.81,1423.97 1426.36,1422.98 1428.91,1421.91 1431.46,1420.77 1434.02,1419.56 1436.57,1418.27 1439.12,1416.9 1441.67,1415.45 1444.22,1413.93 1446.78,1412.31 
  1449.33,1410.61 1451.88,1408.82 1454.43,1406.94 1456.98,1404.97 1459.54,1402.9 1462.09,1400.73 1464.64,1398.46 1467.19,1396.08 1469.74,1393.6 1472.3,1391.01 
  1474.85,1388.3 1477.4,1385.48 1479.95,1382.54 1482.5,1379.48 1485.06,1376.3 1487.61,1372.98 1490.16,1369.54 1492.71,1365.96 1495.26,1362.25 1497.82,1358.39 
  1500.37,1354.4 1502.92,1350.26 1505.47,1345.97 1508.03,1341.53 1510.58,1336.94 1513.13,1332.19 1515.68,1327.29 1518.23,1322.22 1520.79,1316.99 1523.34,1311.59 
  1525.89,1306.02 1528.44,1300.28 1530.99,1294.37 1533.55,1288.28 1536.1,1282.01 1538.65,1275.57 1541.2,1268.95 1543.75,1262.14 1546.31,1255.15 1548.86,1247.98 
  1551.41,1240.62 1553.96,1233.07 1556.51,1225.34 1559.07,1217.42 1561.62,1209.32 1564.17,1201.03 1566.72,1192.54 1569.27,1183.88 1571.83,1175.03 1574.38,1165.99 
  1576.93,1156.77 1579.48,1147.37 1582.03,1137.78 1584.59,1128.02 1587.14,1118.09 1589.69,1107.98 1592.24,1097.7 1594.8,1087.26 1597.35,1076.65 1599.9,1065.88 
  1602.45,1054.95 1605,1043.88 1607.56,1032.66 1610.11,1021.3 1612.66,1009.8 1615.21,998.17 1617.76,986.418 1620.32,974.548 1622.87,962.566 1625.42,950.481 
  1627.97,938.297 1630.52,926.025 1633.08,913.67 1635.63,901.241 1638.18,888.747 1640.73,876.196 1643.28,863.597 1645.84,850.959 1648.39,838.292 1650.94,825.605 
  1653.49,812.907 1656.04,800.21 1658.6,787.523 1661.15,774.856 1663.7,762.221 1666.25,749.628 1668.8,737.088 1671.36,724.613 1673.91,712.212 1676.46,699.898 
  1679.01,687.683 1681.57,675.576 1684.12,663.591 1686.67,651.738 1689.22,640.029 1691.77,628.476 1694.33,617.09 1696.88,605.883 1699.43,594.866 1701.98,584.05 
  1704.53,573.446 1707.09,563.067 1709.64,552.923 1712.19,543.024 1714.74,533.382 1717.29,524.006 1719.85,514.908 1722.4,506.096 1724.95,497.582 1727.5,489.374 
  1730.05,481.482 1732.61,473.915 1735.16,466.681 1737.71,459.789 1740.26,453.246 1742.81,447.06 1745.37,441.238 1747.92,435.788 1750.47,430.715 1753.02,426.025 
  1755.57,421.724 1758.13,417.817 1760.68,414.309 1763.23,411.204 1765.78,408.505 1768.33,406.216 1770.89,404.339 1773.44,402.877 1775.99,401.832 1778.54,401.204 
  1781.1,400.995 1783.65,401.204 1786.2,401.832 1788.75,402.877 1791.3,404.339 1793.86,406.216 1796.41,408.505 1798.96,411.204 1801.51,414.309 1804.06,417.817 
  1806.62,421.724 1809.17,426.025 1811.72,430.715 1814.27,435.788 1816.82,441.238 1819.38,447.06 1821.93,453.246 1824.48,459.789 1827.03,466.681 1829.58,473.915 
  1832.14,481.483 1834.69,489.375 1837.24,497.582 1839.79,506.096 1842.34,514.908 1844.9,524.006 1847.45,533.382 1850,543.024 1852.55,552.923 1855.1,563.067 
  1857.66,573.447 1860.21,584.05 1862.76,594.866 1865.31,605.883 1867.87,617.091 1870.42,628.477 1872.97,640.03 1875.52,651.739 1878.07,663.592 1880.63,675.577 
  1883.18,687.683 1885.73,699.899 1888.28,712.213 1890.83,724.614 1893.39,737.089 1895.94,749.629 1898.49,762.223 1901.04,774.858 1903.59,787.524 1906.15,800.212 
  1908.7,812.909 1911.25,825.607 1913.8,838.294 1916.35,850.962 1918.91,863.6 1921.46,876.2 1924.01,888.751 1926.56,901.245 1929.11,913.674 1931.67,926.029 
  1934.22,938.303 1936.77,950.486 1939.32,962.573 1941.87,974.555 1944.43,986.426 1946.98,998.179 1949.53,1009.81 1952.08,1021.31 1954.64,1032.67 1957.19,1043.89 
  1959.74,1054.97 1962.29,1065.89 1964.84,1076.66 1967.4,1087.27 1969.95,1097.72 1972.5,1108 1975.05,1118.11 1977.6,1128.05 1980.16,1137.81 1982.71,1147.4 
  1985.26,1156.8 1987.81,1166.03 1990.36,1175.07 1992.92,1183.92 1995.47,1192.59 1998.02,1201.08 2000.57,1209.37 2003.12,1217.48 2005.68,1225.41 2008.23,1233.15 
  2010.78,1240.7 2013.33,1248.06 2015.88,1255.24 2018.44,1262.24 2020.99,1269.06 2023.54,1275.69 2026.09,1282.14 2028.64,1288.42 2031.2,1294.52 2033.75,1300.44 
  2036.3,1306.19 2038.85,1311.78 2041.41,1317.19 2043.96,1322.44 2046.51,1327.53 2049.06,1332.45 2051.61,1337.22 2054.17,1341.84 2056.72,1346.3 2059.27,1350.62 
  2061.82,1354.78 2064.37,1358.81 2066.93,1362.69 2069.48,1366.44 2072.03,1370.06 2074.58,1373.54 2077.13,1376.9 2079.69,1380.13 2082.24,1383.24 2084.79,1386.23 
  2087.34,1389.11 2089.89,1391.87 2092.45,1394.53 2095,1397.08 2097.55,1399.53 2100.1,1401.88 2102.65,1404.13 2105.21,1406.29 2107.76,1408.35 2110.31,1410.33 
  2112.86,1412.23 2115.41,1414.04 2117.97,1415.78 2120.52,1417.43 2123.07,1419.02 2125.62,1420.53 2128.17,1421.97 2130.73,1423.35 2133.28,1424.66 2135.83,1425.91 
  2138.38,1427.1 2140.94,1428.24 2143.49,1429.32 2146.04,1430.35 2148.59,1431.32 2151.14,1432.25 2153.7,1433.14 2156.25,1433.97 2158.8,1434.77 2161.35,1435.53 
  2163.9,1436.24 2166.46,1436.92 2169.01,1437.57 2171.56,1438.18 2174.11,1438.75 2176.66,1439.3 2179.22,1439.82 2181.77,1440.31 2184.32,1440.77 2186.87,1441.2 
  2189.42,1441.62 2191.98,1442.01 2194.53,1442.37 2197.08,1442.72 2199.63,1443.05 2202.18,1443.35 2204.74,1443.64 2207.29,1443.91 2209.84,1444.17 2212.39,1444.41 
  2214.94,1444.64 2217.5,1444.85 2220.05,1445.05 2222.6,1445.24 2225.15,1445.42 2227.71,1445.58 2230.26,1445.74 2232.81,1445.88 2235.36,1446.02 2237.91,1446.15 
  2240.47,1446.27 2243.02,1446.38 2245.57,1446.48 2248.12,1446.58 2250.67,1446.67 2253.23,1446.76 2255.78,1446.84 2258.33,1446.91 2260.88,1446.98 2263.43,1447.05 
  2265.99,1447.11 2268.54,1447.16 2271.09,1447.22 2273.64,1447.26 2276.19,1447.31 2278.75,1447.35 2281.3,1447.39 2283.85,1447.43 2286.4,1447.46 2288.95,1447.49 
  2291.51,1447.52 
  "/>
<path clip-path="url(#clip990)" d="
M1929.19 350.345 L2280.62 350.345 L2280.62 168.905 L1929.19 168.905  Z
  " fill="#ffffff" fill-rule="evenodd" fill-opacity="1"/>
<polyline clip-path="url(#clip990)" style="stroke:#000000; stroke-width:4; stroke-opacity:1; fill:none" points="
  1929.19,350.345 2280.62,350.345 2280.62,168.905 1929.19,168.905 1929.19,350.345 
  "/>
<polyline clip-path="url(#clip990)" style="stroke:#009af9; stroke-width:4; stroke-opacity:1; fill:none" points="
  1953.23,229.385 2097.51,229.385 
  "/>
<path clip-path="url(#clip990)" d="M 0 0 M2126.23 215.947 L2126.23 242.822 L2131.88 242.822 Q2139.03 242.822 2142.34 239.581 Q2145.67 236.341 2145.67 229.35 Q2145.67 222.406 2142.34 219.188 Q2139.03 215.947 2131.88 215.947 L2126.23 215.947 M2121.55 212.105 L2131.16 212.105 Q2141.21 212.105 2145.91 216.294 Q2150.6 220.461 2150.6 229.35 Q2150.6 238.285 2145.88 242.475 Q2141.16 246.665 2131.16 246.665 L2121.55 246.665 L2121.55 212.105 Z" fill="#000000" fill-rule="evenodd" fill-opacity="1" /><path clip-path="url(#clip990)" d="M 0 0 M2166.85 233.632 Q2161.69 233.632 2159.7 234.813 Q2157.71 235.993 2157.71 238.841 Q2157.71 241.109 2159.19 242.452 Q2160.7 243.771 2163.27 243.771 Q2166.81 243.771 2168.94 241.271 Q2171.09 238.748 2171.09 234.581 L2171.09 233.632 L2166.85 233.632 M2175.35 231.873 L2175.35 246.665 L2171.09 246.665 L2171.09 242.729 Q2169.63 245.091 2167.46 246.225 Q2165.28 247.336 2162.13 247.336 Q2158.15 247.336 2155.79 245.114 Q2153.45 242.868 2153.45 239.118 Q2153.45 234.743 2156.37 232.521 Q2159.31 230.299 2165.12 230.299 L2171.09 230.299 L2171.09 229.882 Q2171.09 226.943 2169.15 225.345 Q2167.23 223.725 2163.73 223.725 Q2161.51 223.725 2159.4 224.257 Q2157.29 224.79 2155.35 225.855 L2155.35 221.919 Q2157.69 221.017 2159.89 220.577 Q2162.09 220.114 2164.17 220.114 Q2169.79 220.114 2172.57 223.031 Q2175.35 225.947 2175.35 231.873 Z" fill="#000000" fill-rule="evenodd" fill-opacity="1" /><path clip-path="url(#clip990)" d="M 0 0 M2184.03 213.378 L2184.03 220.739 L2192.8 220.739 L2192.8 224.049 L2184.03 224.049 L2184.03 238.123 Q2184.03 241.294 2184.89 242.197 Q2185.77 243.1 2188.43 243.1 L2192.8 243.1 L2192.8 246.665 L2188.43 246.665 Q2183.5 246.665 2181.62 244.836 Q2179.75 242.984 2179.75 238.123 L2179.75 224.049 L2176.62 224.049 L2176.62 220.739 L2179.75 220.739 L2179.75 213.378 L2184.03 213.378 Z" fill="#000000" fill-rule="evenodd" fill-opacity="1" /><path clip-path="url(#clip990)" d="M 0 0 M2209.05 233.632 Q2203.89 233.632 2201.9 234.813 Q2199.91 235.993 2199.91 238.841 Q2199.91 241.109 2201.39 242.452 Q2202.9 243.771 2205.47 243.771 Q2209.01 243.771 2211.14 241.271 Q2213.29 238.748 2213.29 234.581 L2213.29 233.632 L2209.05 233.632 M2217.55 231.873 L2217.55 246.665 L2213.29 246.665 L2213.29 242.729 Q2211.83 245.091 2209.66 246.225 Q2207.48 247.336 2204.33 247.336 Q2200.35 247.336 2197.99 245.114 Q2195.65 242.868 2195.65 239.118 Q2195.65 234.743 2198.57 232.521 Q2201.51 230.299 2207.32 230.299 L2213.29 230.299 L2213.29 229.882 Q2213.29 226.943 2211.35 225.345 Q2209.42 223.725 2205.93 223.725 Q2203.71 223.725 2201.6 224.257 Q2199.49 224.79 2197.55 225.855 L2197.55 221.919 Q2199.89 221.017 2202.09 220.577 Q2204.29 220.114 2206.37 220.114 Q2211.99 220.114 2214.77 223.031 Q2217.55 225.947 2217.55 231.873 Z" fill="#000000" fill-rule="evenodd" fill-opacity="1" /><polyline clip-path="url(#clip990)" style="stroke:#e26f46; stroke-width:4; stroke-opacity:1; fill:none" points="
  1953.23,289.865 2097.51,289.865 
  "/>
<path clip-path="url(#clip990)" d="M 0 0 M2121.55 272.585 L2150.79 272.585 L2150.79 276.52 L2138.52 276.52 L2138.52 307.145 L2133.82 307.145 L2133.82 276.52 L2121.55 276.52 L2121.55 272.585 Z" fill="#000000" fill-rule="evenodd" fill-opacity="1" /><path clip-path="url(#clip990)" d="M 0 0 M2163.31 285.2 Q2162.6 284.784 2161.74 284.598 Q2160.91 284.39 2159.89 284.39 Q2156.28 284.39 2154.33 286.751 Q2152.41 289.089 2152.41 293.487 L2152.41 307.145 L2148.13 307.145 L2148.13 281.219 L2152.41 281.219 L2152.41 285.247 Q2153.75 282.886 2155.91 281.751 Q2158.06 280.594 2161.14 280.594 Q2161.58 280.594 2162.11 280.663 Q2162.64 280.71 2163.29 280.825 L2163.31 285.2 Z" fill="#000000" fill-rule="evenodd" fill-opacity="1" /><path clip-path="url(#clip990)" d="M 0 0 M2167.34 296.913 L2167.34 281.219 L2171.6 281.219 L2171.6 296.751 Q2171.6 300.432 2173.04 302.284 Q2174.47 304.112 2177.34 304.112 Q2180.79 304.112 2182.78 301.913 Q2184.79 299.714 2184.79 295.918 L2184.79 281.219 L2189.05 281.219 L2189.05 307.145 L2184.79 307.145 L2184.79 303.163 Q2183.24 305.524 2181.18 306.682 Q2179.15 307.816 2176.44 307.816 Q2171.97 307.816 2169.66 305.038 Q2167.34 302.26 2167.34 296.913 M2178.06 280.594 L2178.06 280.594 Z" fill="#000000" fill-rule="evenodd" fill-opacity="1" /><path clip-path="url(#clip990)" d="M 0 0 M2197.73 273.858 L2197.73 281.219 L2206.51 281.219 L2206.51 284.529 L2197.73 284.529 L2197.73 298.603 Q2197.73 301.774 2198.59 302.677 Q2199.47 303.58 2202.13 303.58 L2206.51 303.58 L2206.51 307.145 L2202.13 307.145 Q2197.2 307.145 2195.33 305.316 Q2193.45 303.464 2193.45 298.603 L2193.45 284.529 L2190.33 284.529 L2190.33 281.219 L2193.45 281.219 L2193.45 273.858 L2197.73 273.858 Z" fill="#000000" fill-rule="evenodd" fill-opacity="1" /><path clip-path="url(#clip990)" d="M 0 0 M2232.53 291.497 L2232.53 307.145 L2228.27 307.145 L2228.27 291.635 Q2228.27 287.955 2226.83 286.126 Q2225.4 284.298 2222.53 284.298 Q2219.08 284.298 2217.09 286.497 Q2215.1 288.696 2215.1 292.492 L2215.1 307.145 L2210.81 307.145 L2210.81 271.126 L2215.1 271.126 L2215.1 285.247 Q2216.62 282.909 2218.68 281.751 Q2220.77 280.594 2223.47 280.594 Q2227.94 280.594 2230.23 283.372 Q2232.53 286.126 2232.53 291.497 Z" fill="#000000" fill-rule="evenodd" fill-opacity="1" /></svg>
