<?xml version="1.0" encoding="utf-8"?>
<svg xmlns="http://www.w3.org/2000/svg" xmlns:xlink="http://www.w3.org/1999/xlink" width="600" height="400" viewBox="0 0 2400 1600">
<defs>
  <clipPath id="clip960">
    <rect x="0" y="0" width="2400" height="1600"/>
  </clipPath>
</defs>
<path clip-path="url(#clip960)" d="
M0 1600 L2400 1600 L2400 0 L0 0  Z
  " fill="#ffffff" fill-rule="evenodd" fill-opacity="1"/>
<defs>
  <clipPath id="clip961">
    <rect x="480" y="0" width="1681" height="1600"/>
  </clipPath>
</defs>
<path clip-path="url(#clip960)" d="
M188.612 1486.45 L2352.76 1486.45 L2352.76 123.472 L188.612 123.472  Z
  " fill="#ffffff" fill-rule="evenodd" fill-opacity="1"/>
<defs>
  <clipPath id="clip962">
    <rect x="188" y="123" width="2165" height="1364"/>
  </clipPath>
</defs>
<polyline clip-path="url(#clip962)" style="stroke:#000000; stroke-width:2; stroke-opacity:0.1; fill:none" points="
  249.861,1486.45 249.861,123.472 
  "/>
<polyline clip-path="url(#clip962)" style="stroke:#000000; stroke-width:2; stroke-opacity:0.1; fill:none" points="
  590.136,1486.45 590.136,123.472 
  "/>
<polyline clip-path="url(#clip962)" style="stroke:#000000; stroke-width:2; stroke-opacity:0.1; fill:none" points="
  930.41,1486.45 930.41,123.472 
  "/>
<polyline clip-path="url(#clip962)" style="stroke:#000000; stroke-width:2; stroke-opacity:0.1; fill:none" points="
  1270.68,1486.45 1270.68,123.472 
  "/>
<polyline clip-path="url(#clip962)" style="stroke:#000000; stroke-width:2; stroke-opacity:0.1; fill:none" points="
  1610.96,1486.45 1610.96,123.472 
  "/>
<polyline clip-path="url(#clip962)" style="stroke:#000000; stroke-width:2; stroke-opacity:0.1; fill:none" points="
  1951.23,1486.45 1951.23,123.472 
  "/>
<polyline clip-path="url(#clip962)" style="stroke:#000000; stroke-width:2; stroke-opacity:0.1; fill:none" points="
  2291.51,1486.45 2291.51,123.472 
  "/>
<polyline clip-path="url(#clip960)" style="stroke:#000000; stroke-width:4; stroke-opacity:1; fill:none" points="
  188.612,1486.45 2352.76,1486.45 
  "/>
<polyline clip-path="url(#clip960)" style="stroke:#000000; stroke-width:4; stroke-opacity:1; fill:none" points="
  249.861,1486.45 249.861,1470.09 
  "/>
<polyline clip-path="url(#clip960)" style="stroke:#000000; stroke-width:4; stroke-opacity:1; fill:none" points="
  590.136,1486.45 590.136,1470.09 
  "/>
<polyline clip-path="url(#clip960)" style="stroke:#000000; stroke-width:4; stroke-opacity:1; fill:none" points="
  930.41,1486.45 930.41,1470.09 
  "/>
<polyline clip-path="url(#clip960)" style="stroke:#000000; stroke-width:4; stroke-opacity:1; fill:none" points="
  1270.68,1486.45 1270.68,1470.09 
  "/>
<polyline clip-path="url(#clip960)" style="stroke:#000000; stroke-width:4; stroke-opacity:1; fill:none" points="
  1610.96,1486.45 1610.96,1470.09 
  "/>
<polyline clip-path="url(#clip960)" style="stroke:#000000; stroke-width:4; stroke-opacity:1; fill:none" points="
  1951.23,1486.45 1951.23,1470.09 
  "/>
<polyline clip-path="url(#clip960)" style="stroke:#000000; stroke-width:4; stroke-opacity:1; fill:none" points="
  2291.51,1486.45 2291.51,1470.09 
  "/>
<path clip-path="url(#clip960)" d="M 0 0 M222.315 1530.29 L251.991 1530.29 L251.991 1534.23 L222.315 1534.23 L222.315 1530.29 Z" fill="#000000" fill-rule="evenodd" fill-opacity="1" /><path clip-path="url(#clip960)" d="M 0 0 M261.088 1543.18 L277.407 1543.18 L277.407 1547.12 L255.463 1547.12 L255.463 1543.18 Q258.125 1540.43 262.708 1535.8 Q267.315 1531.15 268.495 1529.81 Q270.741 1527.28 271.62 1525.55 Q272.523 1523.79 272.523 1522.1 Q272.523 1519.34 270.579 1517.61 Q268.658 1515.87 265.556 1515.87 Q263.357 1515.87 260.903 1516.63 Q258.472 1517.4 255.695 1518.95 L255.695 1514.23 Q258.519 1513.09 260.972 1512.51 Q263.426 1511.93 265.463 1511.93 Q270.833 1511.93 274.028 1514.62 Q277.222 1517.31 277.222 1521.8 Q277.222 1523.93 276.412 1525.85 Q275.625 1527.74 273.519 1530.34 Q272.94 1531.01 269.838 1534.23 Q266.736 1537.42 261.088 1543.18 Z" fill="#000000" fill-rule="evenodd" fill-opacity="1" /><path clip-path="url(#clip960)" d="M 0 0 M562.404 1530.29 L592.08 1530.29 L592.08 1534.23 L562.404 1534.23 L562.404 1530.29 Z" fill="#000000" fill-rule="evenodd" fill-opacity="1" /><path clip-path="url(#clip960)" d="M 0 0 M597.96 1543.18 L605.598 1543.18 L605.598 1516.82 L597.288 1518.49 L597.288 1514.23 L605.552 1512.56 L610.228 1512.56 L610.228 1543.18 L617.867 1543.18 L617.867 1547.12 L597.96 1547.12 L597.96 1543.18 Z" fill="#000000" fill-rule="evenodd" fill-opacity="1" /><path clip-path="url(#clip960)" d="M 0 0 M930.41 1515.64 Q926.799 1515.64 924.97 1519.2 Q923.164 1522.75 923.164 1529.87 Q923.164 1536.98 924.97 1540.55 Q926.799 1544.09 930.41 1544.09 Q934.044 1544.09 935.85 1540.55 Q937.678 1536.98 937.678 1529.87 Q937.678 1522.75 935.85 1519.2 Q934.044 1515.64 930.41 1515.64 M930.41 1511.93 Q936.22 1511.93 939.275 1516.54 Q942.354 1521.12 942.354 1529.87 Q942.354 1538.6 939.275 1543.21 Q936.22 1547.79 930.41 1547.79 Q924.6 1547.79 921.521 1543.21 Q918.465 1538.6 918.465 1529.87 Q918.465 1521.12 921.521 1516.54 Q924.6 1511.93 930.41 1511.93 Z" fill="#000000" fill-rule="evenodd" fill-opacity="1" /><path clip-path="url(#clip960)" d="M 0 0 M1261.07 1543.18 L1268.7 1543.18 L1268.7 1516.82 L1260.39 1518.49 L1260.39 1514.23 L1268.66 1512.56 L1273.33 1512.56 L1273.33 1543.18 L1280.97 1543.18 L1280.97 1547.12 L1261.07 1547.12 L1261.07 1543.18 Z" fill="#000000" fill-rule="evenodd" fill-opacity="1" /><path clip-path="url(#clip960)" d="M 0 0 M1605.61 1543.18 L1621.93 1543.18 L1621.93 1547.12 L1599.99 1547.12 L1599.99 1543.18 Q1602.65 1540.43 1607.23 1535.8 Q1611.84 1531.15 1613.02 1529.81 Q1615.26 1527.28 1616.14 1525.55 Q1617.05 1523.79 1617.05 1522.1 Q1617.05 1519.34 1615.1 1517.61 Q1613.18 1515.87 1610.08 1515.87 Q1607.88 1515.87 1605.43 1516.63 Q1603 1517.4 1600.22 1518.95 L1600.22 1514.23 Q1603.04 1513.09 1605.5 1512.51 Q1607.95 1511.93 1609.99 1511.93 Q1615.36 1511.93 1618.55 1514.62 Q1621.75 1517.31 1621.75 1521.8 Q1621.75 1523.93 1620.93 1525.85 Q1620.15 1527.74 1618.04 1530.34 Q1617.46 1531.01 1614.36 1534.23 Q1611.26 1537.42 1605.61 1543.18 Z" fill="#000000" fill-rule="evenodd" fill-opacity="1" /><path clip-path="url(#clip960)" d="M 0 0 M1955.48 1528.49 Q1958.84 1529.2 1960.71 1531.47 Q1962.61 1533.74 1962.61 1537.07 Q1962.61 1542.19 1959.09 1544.99 Q1955.57 1547.79 1949.09 1547.79 Q1946.92 1547.79 1944.6 1547.35 Q1942.31 1546.93 1939.86 1546.08 L1939.86 1541.56 Q1941.8 1542.7 1944.11 1543.28 Q1946.43 1543.86 1948.95 1543.86 Q1953.35 1543.86 1955.64 1542.12 Q1957.96 1540.38 1957.96 1537.07 Q1957.96 1534.02 1955.8 1532.31 Q1953.67 1530.57 1949.86 1530.57 L1945.83 1530.57 L1945.83 1526.73 L1950.04 1526.73 Q1953.49 1526.73 1955.32 1525.36 Q1957.15 1523.97 1957.15 1521.38 Q1957.15 1518.72 1955.25 1517.31 Q1953.37 1515.87 1949.86 1515.87 Q1947.93 1515.87 1945.73 1516.29 Q1943.54 1516.7 1940.9 1517.58 L1940.9 1513.42 Q1943.56 1512.68 1945.87 1512.31 Q1948.21 1511.93 1950.27 1511.93 Q1955.6 1511.93 1958.7 1514.37 Q1961.8 1516.77 1961.8 1520.89 Q1961.8 1523.76 1960.16 1525.75 Q1958.51 1527.72 1955.48 1528.49 Z" fill="#000000" fill-rule="evenodd" fill-opacity="1" /><path clip-path="url(#clip960)" d="M 0 0 M2294.52 1516.63 L2282.71 1535.08 L2294.52 1535.08 L2294.52 1516.63 M2293.29 1512.56 L2299.17 1512.56 L2299.17 1535.08 L2304.1 1535.08 L2304.1 1538.97 L2299.17 1538.97 L2299.17 1547.12 L2294.52 1547.12 L2294.52 1538.97 L2278.91 1538.97 L2278.91 1534.46 L2293.29 1512.56 Z" fill="#000000" fill-rule="evenodd" fill-opacity="1" /><polyline clip-path="url(#clip962)" style="stroke:#000000; stroke-width:2; stroke-opacity:0.1; fill:none" points="
  188.612,1447.87 2352.76,1447.87 
  "/>
<polyline clip-path="url(#clip962)" style="stroke:#000000; stroke-width:2; stroke-opacity:0.1; fill:none" points="
  188.612,1119.86 2352.76,1119.86 
  "/>
<polyline clip-path="url(#clip962)" style="stroke:#000000; stroke-width:2; stroke-opacity:0.1; fill:none" points="
  188.612,791.839 2352.76,791.839 
  "/>
<polyline clip-path="url(#clip962)" style="stroke:#000000; stroke-width:2; stroke-opacity:0.1; fill:none" points="
  188.612,463.822 2352.76,463.822 
  "/>
<polyline clip-path="url(#clip962)" style="stroke:#000000; stroke-width:2; stroke-opacity:0.1; fill:none" points="
  188.612,135.806 2352.76,135.806 
  "/>
<polyline clip-path="url(#clip960)" style="stroke:#000000; stroke-width:4; stroke-opacity:1; fill:none" points="
  188.612,1486.45 188.612,123.472 
  "/>
<polyline clip-path="url(#clip960)" style="stroke:#000000; stroke-width:4; stroke-opacity:1; fill:none" points="
  188.612,1447.87 214.582,1447.87 
  "/>
<polyline clip-path="url(#clip960)" style="stroke:#000000; stroke-width:4; stroke-opacity:1; fill:none" points="
  188.612,1119.86 214.582,1119.86 
  "/>
<polyline clip-path="url(#clip960)" style="stroke:#000000; stroke-width:4; stroke-opacity:1; fill:none" points="
  188.612,791.839 214.582,791.839 
  "/>
<polyline clip-path="url(#clip960)" style="stroke:#000000; stroke-width:4; stroke-opacity:1; fill:none" points="
  188.612,463.822 214.582,463.822 
  "/>
<polyline clip-path="url(#clip960)" style="stroke:#000000; stroke-width:4; stroke-opacity:1; fill:none" points="
  188.612,135.806 214.582,135.806 
  "/>
<path clip-path="url(#clip960)" d="M 0 0 M140.668 1433.67 Q137.056 1433.67 135.228 1437.24 Q133.422 1440.78 133.422 1447.91 Q133.422 1455.01 135.228 1458.58 Q137.056 1462.12 140.668 1462.12 Q144.302 1462.12 146.107 1458.58 Q147.936 1455.01 147.936 1447.91 Q147.936 1440.78 146.107 1437.24 Q144.302 1433.67 140.668 1433.67 M140.668 1429.97 Q146.478 1429.97 149.533 1434.57 Q152.612 1439.16 152.612 1447.91 Q152.612 1456.63 149.533 1461.24 Q146.478 1465.82 140.668 1465.82 Q134.857 1465.82 131.779 1461.24 Q128.723 1456.63 128.723 1447.91 Q128.723 1439.16 131.779 1434.57 Q134.857 1429.97 140.668 1429.97 Z" fill="#000000" fill-rule="evenodd" fill-opacity="1" /><path clip-path="url(#clip960)" d="M 0 0 M83.2605 1133.2 L99.5798 1133.2 L99.5798 1137.14 L77.6355 1137.14 L77.6355 1133.2 Q80.2975 1130.45 84.8808 1125.82 Q89.4873 1121.16 90.6678 1119.82 Q92.9132 1117.3 93.7928 1115.56 Q94.6956 1113.8 94.6956 1112.11 Q94.6956 1109.36 92.7512 1107.62 Q90.8299 1105.89 87.728 1105.89 Q85.529 1105.89 83.0753 1106.65 Q80.6447 1107.41 77.867 1108.97 L77.867 1104.24 Q80.691 1103.11 83.1447 1102.53 Q85.5984 1101.95 87.6354 1101.95 Q93.0058 1101.95 96.2002 1104.64 Q99.3946 1107.32 99.3946 1111.81 Q99.3946 1113.94 98.5845 1115.86 Q97.7974 1117.76 95.691 1120.35 Q95.1123 1121.03 92.0104 1124.24 Q88.9086 1127.44 83.2605 1133.2 Z" fill="#000000" fill-rule="evenodd" fill-opacity="1" /><path clip-path="url(#clip960)" d="M 0 0 M104.696 1102.58 L123.052 1102.58 L123.052 1106.51 L108.978 1106.51 L108.978 1114.98 Q109.996 1114.64 111.015 1114.47 Q112.033 1114.29 113.052 1114.29 Q118.839 1114.29 122.219 1117.46 Q125.598 1120.63 125.598 1126.05 Q125.598 1131.63 122.126 1134.73 Q118.654 1137.81 112.334 1137.81 Q110.158 1137.81 107.89 1137.44 Q105.645 1137.07 103.237 1136.33 L103.237 1131.63 Q105.321 1132.76 107.543 1133.32 Q109.765 1133.87 112.242 1133.87 Q116.246 1133.87 118.584 1131.77 Q120.922 1129.66 120.922 1126.05 Q120.922 1122.44 118.584 1120.33 Q116.246 1118.22 112.242 1118.22 Q110.367 1118.22 108.492 1118.64 Q106.64 1119.06 104.696 1119.94 L104.696 1102.58 Z" fill="#000000" fill-rule="evenodd" fill-opacity="1" /><path clip-path="url(#clip960)" d="M 0 0 M140.668 1105.65 Q137.056 1105.65 135.228 1109.22 Q133.422 1112.76 133.422 1119.89 Q133.422 1127 135.228 1130.56 Q137.056 1134.1 140.668 1134.1 Q144.302 1134.1 146.107 1130.56 Q147.936 1127 147.936 1119.89 Q147.936 1112.76 146.107 1109.22 Q144.302 1105.65 140.668 1105.65 M140.668 1101.95 Q146.478 1101.95 149.533 1106.56 Q152.612 1111.14 152.612 1119.89 Q152.612 1128.62 149.533 1133.22 Q146.478 1137.81 140.668 1137.81 Q134.857 1137.81 131.779 1133.22 Q128.723 1128.62 128.723 1119.89 Q128.723 1111.14 131.779 1106.56 Q134.857 1101.95 140.668 1101.95 Z" fill="#000000" fill-rule="evenodd" fill-opacity="1" /><path clip-path="url(#clip960)" d="M 0 0 M77.6818 774.559 L96.0382 774.559 L96.0382 778.494 L81.9642 778.494 L81.9642 786.967 Q82.9827 786.619 84.0012 786.457 Q85.0197 786.272 86.0382 786.272 Q91.8252 786.272 95.2049 789.444 Q98.5845 792.615 98.5845 798.031 Q98.5845 803.61 95.1123 806.712 Q91.6401 809.791 85.3206 809.791 Q83.1447 809.791 80.8762 809.42 Q78.6309 809.05 76.2235 808.309 L76.2235 803.61 Q78.3068 804.744 80.529 805.3 Q82.7512 805.855 85.2281 805.855 Q89.2327 805.855 91.5706 803.749 Q93.9086 801.643 93.9086 798.031 Q93.9086 794.42 91.5706 792.314 Q89.2327 790.207 85.2281 790.207 Q83.3531 790.207 81.4781 790.624 Q79.6262 791.041 77.6818 791.92 L77.6818 774.559 Z" fill="#000000" fill-rule="evenodd" fill-opacity="1" /><path clip-path="url(#clip960)" d="M 0 0 M113.654 777.638 Q110.043 777.638 108.214 781.203 Q106.408 784.744 106.408 791.874 Q106.408 798.98 108.214 802.545 Q110.043 806.087 113.654 806.087 Q117.288 806.087 119.094 802.545 Q120.922 798.98 120.922 791.874 Q120.922 784.744 119.094 781.203 Q117.288 777.638 113.654 777.638 M113.654 773.934 Q119.464 773.934 122.52 778.541 Q125.598 783.124 125.598 791.874 Q125.598 800.601 122.52 805.207 Q119.464 809.791 113.654 809.791 Q107.844 809.791 104.765 805.207 Q101.709 800.601 101.709 791.874 Q101.709 783.124 104.765 778.541 Q107.844 773.934 113.654 773.934 Z" fill="#000000" fill-rule="evenodd" fill-opacity="1" /><path clip-path="url(#clip960)" d="M 0 0 M140.668 777.638 Q137.056 777.638 135.228 781.203 Q133.422 784.744 133.422 791.874 Q133.422 798.98 135.228 802.545 Q137.056 806.087 140.668 806.087 Q144.302 806.087 146.107 802.545 Q147.936 798.98 147.936 791.874 Q147.936 784.744 146.107 781.203 Q144.302 777.638 140.668 777.638 M140.668 773.934 Q146.478 773.934 149.533 778.541 Q152.612 783.124 152.612 791.874 Q152.612 800.601 149.533 805.207 Q146.478 809.791 140.668 809.791 Q134.857 809.791 131.779 805.207 Q128.723 800.601 128.723 791.874 Q128.723 783.124 131.779 778.541 Q134.857 773.934 140.668 773.934 Z" fill="#000000" fill-rule="evenodd" fill-opacity="1" /><path clip-path="url(#clip960)" d="M 0 0 M77.3577 446.542 L99.5798 446.542 L99.5798 448.533 L87.0336 481.102 L82.1494 481.102 L93.9549 450.478 L77.3577 450.478 L77.3577 446.542 Z" fill="#000000" fill-rule="evenodd" fill-opacity="1" /><path clip-path="url(#clip960)" d="M 0 0 M104.696 446.542 L123.052 446.542 L123.052 450.478 L108.978 450.478 L108.978 458.95 Q109.996 458.603 111.015 458.441 Q112.033 458.255 113.052 458.255 Q118.839 458.255 122.219 461.427 Q125.598 464.598 125.598 470.015 Q125.598 475.593 122.126 478.695 Q118.654 481.774 112.334 481.774 Q110.158 481.774 107.89 481.403 Q105.645 481.033 103.237 480.292 L103.237 475.593 Q105.321 476.727 107.543 477.283 Q109.765 477.839 112.242 477.839 Q116.246 477.839 118.584 475.732 Q120.922 473.626 120.922 470.015 Q120.922 466.403 118.584 464.297 Q116.246 462.191 112.242 462.191 Q110.367 462.191 108.492 462.607 Q106.64 463.024 104.696 463.903 L104.696 446.542 Z" fill="#000000" fill-rule="evenodd" fill-opacity="1" /><path clip-path="url(#clip960)" d="M 0 0 M140.668 449.621 Q137.056 449.621 135.228 453.186 Q133.422 456.728 133.422 463.857 Q133.422 470.964 135.228 474.528 Q137.056 478.07 140.668 478.07 Q144.302 478.07 146.107 474.528 Q147.936 470.964 147.936 463.857 Q147.936 456.728 146.107 453.186 Q144.302 449.621 140.668 449.621 M140.668 445.917 Q146.478 445.917 149.533 450.524 Q152.612 455.107 152.612 463.857 Q152.612 472.584 149.533 477.19 Q146.478 481.774 140.668 481.774 Q134.857 481.774 131.779 477.19 Q128.723 472.584 128.723 463.857 Q128.723 455.107 131.779 450.524 Q134.857 445.917 140.668 445.917 Z" fill="#000000" fill-rule="evenodd" fill-opacity="1" /><path clip-path="url(#clip960)" d="M 0 0 M51.6634 149.15 L59.3023 149.15 L59.3023 122.785 L50.9921 124.451 L50.9921 120.192 L59.256 118.526 L63.9319 118.526 L63.9319 149.15 L71.5707 149.15 L71.5707 153.086 L51.6634 153.086 L51.6634 149.15 Z" fill="#000000" fill-rule="evenodd" fill-opacity="1" /><path clip-path="url(#clip960)" d="M 0 0 M86.6401 121.604 Q83.029 121.604 81.2003 125.169 Q79.3948 128.711 79.3948 135.84 Q79.3948 142.947 81.2003 146.512 Q83.029 150.053 86.6401 150.053 Q90.2743 150.053 92.0799 146.512 Q93.9086 142.947 93.9086 135.84 Q93.9086 128.711 92.0799 125.169 Q90.2743 121.604 86.6401 121.604 M86.6401 117.901 Q92.4502 117.901 95.5058 122.507 Q98.5845 127.09 98.5845 135.84 Q98.5845 144.567 95.5058 149.174 Q92.4502 153.757 86.6401 153.757 Q80.8299 153.757 77.7512 149.174 Q74.6957 144.567 74.6957 135.84 Q74.6957 127.09 77.7512 122.507 Q80.8299 117.901 86.6401 117.901 Z" fill="#000000" fill-rule="evenodd" fill-opacity="1" /><path clip-path="url(#clip960)" d="M 0 0 M113.654 121.604 Q110.043 121.604 108.214 125.169 Q106.408 128.711 106.408 135.84 Q106.408 142.947 108.214 146.512 Q110.043 150.053 113.654 150.053 Q117.288 150.053 119.094 146.512 Q120.922 142.947 120.922 135.84 Q120.922 128.711 119.094 125.169 Q117.288 121.604 113.654 121.604 M113.654 117.901 Q119.464 117.901 122.52 122.507 Q125.598 127.09 125.598 135.84 Q125.598 144.567 122.52 149.174 Q119.464 153.757 113.654 153.757 Q107.844 153.757 104.765 149.174 Q101.709 144.567 101.709 135.84 Q101.709 127.09 104.765 122.507 Q107.844 117.901 113.654 117.901 Z" fill="#000000" fill-rule="evenodd" fill-opacity="1" /><path clip-path="url(#clip960)" d="M 0 0 M140.668 121.604 Q137.056 121.604 135.228 125.169 Q133.422 128.711 133.422 135.84 Q133.422 142.947 135.228 146.512 Q137.056 150.053 140.668 150.053 Q144.302 150.053 146.107 146.512 Q147.936 142.947 147.936 135.84 Q147.936 128.711 146.107 125.169 Q144.302 121.604 140.668 121.604 M140.668 117.901 Q146.478 117.901 149.533 122.507 Q152.612 127.09 152.612 135.84 Q152.612 144.567 149.533 149.174 Q146.478 153.757 140.668 153.757 Q134.857 153.757 131.779 149.174 Q128.723 144.567 128.723 135.84 Q128.723 127.09 131.779 122.507 Q134.857 117.901 140.668 117.901 Z" fill="#000000" fill-rule="evenodd" fill-opacity="1" /><path clip-path="url(#clip960)" d="M 0 0 M1194.87 18.8205 L1194.87 65.8515 L1204.76 65.8515 Q1217.27 65.8515 1223.07 60.1802 Q1228.9 54.509 1228.9 42.2752 Q1228.9 30.1225 1223.07 24.4918 Q1217.27 18.8205 1204.76 18.8205 L1194.87 18.8205 M1186.69 12.096 L1203.5 12.096 Q1221.08 12.096 1229.3 19.4281 Q1237.53 26.7198 1237.53 42.2752 Q1237.53 57.9117 1229.26 65.2439 Q1221 72.576 1203.5 72.576 L1186.69 72.576 L1186.69 12.096 Z" fill="#000000" fill-rule="evenodd" fill-opacity="1" /><path clip-path="url(#clip960)" d="M 0 0 M1265.96 49.7694 Q1256.93 49.7694 1253.45 51.8354 Q1249.96 53.9013 1249.96 58.8839 Q1249.96 62.8538 1252.56 65.2034 Q1255.19 67.5124 1259.69 67.5124 Q1265.88 67.5124 1269.61 63.1374 Q1273.38 58.7219 1273.38 51.4303 L1273.38 49.7694 L1265.96 49.7694 M1280.83 46.6907 L1280.83 72.576 L1273.38 72.576 L1273.38 65.6895 Q1270.83 69.8214 1267.02 71.8063 Q1263.21 73.7508 1257.7 73.7508 Q1250.73 73.7508 1246.6 69.8619 Q1242.51 65.9325 1242.51 59.3701 Q1242.51 51.7138 1247.61 47.825 Q1252.76 43.9361 1262.93 43.9361 L1273.38 43.9361 L1273.38 43.2069 Q1273.38 38.0623 1269.98 35.2672 Q1266.61 32.4315 1260.5 32.4315 Q1256.61 32.4315 1252.92 33.3632 Q1249.23 34.295 1245.83 36.1584 L1245.83 29.2718 Q1249.92 27.692 1253.77 26.9223 Q1257.62 26.1121 1261.27 26.1121 Q1271.11 26.1121 1275.97 31.2163 Q1280.83 36.3204 1280.83 46.6907 Z" fill="#000000" fill-rule="evenodd" fill-opacity="1" /><path clip-path="url(#clip960)" d="M 0 0 M1296.02 14.324 L1296.02 27.2059 L1311.38 27.2059 L1311.38 32.9987 L1296.02 32.9987 L1296.02 57.6282 Q1296.02 63.1779 1297.52 64.7578 Q1299.06 66.3376 1303.72 66.3376 L1311.38 66.3376 L1311.38 72.576 L1303.72 72.576 Q1295.09 72.576 1291.81 69.3758 Q1288.53 66.1351 1288.53 57.6282 L1288.53 32.9987 L1283.06 32.9987 L1283.06 27.2059 L1288.53 27.2059 L1288.53 14.324 L1296.02 14.324 Z" fill="#000000" fill-rule="evenodd" fill-opacity="1" /><path clip-path="url(#clip960)" d="M 0 0 M1339.81 49.7694 Q1330.78 49.7694 1327.3 51.8354 Q1323.81 53.9013 1323.81 58.8839 Q1323.81 62.8538 1326.4 65.2034 Q1329.04 67.5124 1333.53 67.5124 Q1339.73 67.5124 1343.46 63.1374 Q1347.23 58.7219 1347.23 51.4303 L1347.23 49.7694 L1339.81 49.7694 M1354.68 46.6907 L1354.68 72.576 L1347.23 72.576 L1347.23 65.6895 Q1344.67 69.8214 1340.87 71.8063 Q1337.06 73.7508 1331.55 73.7508 Q1324.58 73.7508 1320.45 69.8619 Q1316.36 65.9325 1316.36 59.3701 Q1316.36 51.7138 1321.46 47.825 Q1326.61 43.9361 1336.77 43.9361 L1347.23 43.9361 L1347.23 43.2069 Q1347.23 38.0623 1343.82 35.2672 Q1340.46 32.4315 1334.34 32.4315 Q1330.46 32.4315 1326.77 33.3632 Q1323.08 34.295 1319.68 36.1584 L1319.68 29.2718 Q1323.77 27.692 1327.62 26.9223 Q1331.47 26.1121 1335.11 26.1121 Q1344.96 26.1121 1349.82 31.2163 Q1354.68 36.3204 1354.68 46.6907 Z" fill="#000000" fill-rule="evenodd" fill-opacity="1" /><polyline clip-path="url(#clip962)" style="stroke:#009af9; stroke-width:4; stroke-opacity:1; fill:none" points="
  249.861,1447.87 249.861,1369.15 283.889,1369.15 283.889,1290.42 317.916,1290.42 351.944,1290.42 351.944,1224.82 385.971,1224.82 385.971,1251.06 
  419.998,1251.06 419.998,1080.49 454.026,1080.49 488.053,1080.49 488.053,896.805 522.081,896.805 522.081,1001.77 556.108,1001.77 556.108,962.408 
  590.136,962.408 590.136,1001.77 624.163,1001.77 624.163,844.322 658.19,844.322 658.19,1119.86 692.218,1119.86 692.218,1014.89 726.245,1014.89 726.245,1106.74 
  760.273,1106.74 760.273,949.287 794.3,949.287 794.3,1185.46 828.327,1185.46 828.327,1303.55 862.355,1303.55 862.355,1329.79 896.382,1329.79 896.382,1369.15 
  930.41,1369.15 964.437,1369.15 964.437,1434.75 998.465,1434.75 998.465,1421.63 1032.49,1421.63 1066.52,1421.63 1066.52,1447.87 
  1100.55,1447.87 1100.55,1421.63 1134.57,1421.63 1134.57,1447.87 1168.6,1447.87 1168.6,1395.39 1202.63,1395.39 1202.63,1342.91 1236.66,1342.91 1236.66,1356.03 
  1270.68,1356.03 1270.68,1237.94 1304.71,1237.94 1304.71,1106.74 1338.74,1106.74 1338.74,1028.01 1372.77,1028.01 1372.77,1172.34 1406.79,1172.34 1406.79,883.684 
  1440.82,883.684 1440.82,713.115 1474.85,713.115 1474.85,581.909 1508.88,581.909 1508.88,686.874 1542.9,686.874 1542.9,293.254 1576.93,293.254 1576.93,162.047 
  1610.96,162.047 1610.96,555.667 1644.99,555.667 1644.99,542.546 1679.01,542.546 1679.01,595.029 1713.04,595.029 1713.04,581.909 1747.07,581.909 1747.07,647.512 
  1781.1,647.512 1781.1,673.753 1815.12,673.753 1815.12,1001.77 1849.15,1001.77 1849.15,1303.55 1883.18,1303.55 1883.18,1356.03 1917.2,1356.03 1917.2,1303.55 
  1951.23,1303.55 1951.23,1290.42 1985.26,1290.42 1985.26,1395.39 2019.29,1395.39 2019.29,1434.75 2053.31,1434.75 2053.31,1421.63 2087.34,1421.63 2087.34,1395.39 
  2121.37,1395.39 2121.37,1447.87 2155.4,1447.87 2189.42,1447.87 2223.45,1447.87 2257.48,1447.87 
  2291.51,1447.87 
  "/>
<path clip-path="url(#clip960)" d="
M1944.16 289.865 L2280.62 289.865 L2280.62 168.905 L1944.16 168.905  Z
  " fill="#ffffff" fill-rule="evenodd" fill-opacity="1"/>
<polyline clip-path="url(#clip960)" style="stroke:#000000; stroke-width:4; stroke-opacity:1; fill:none" points="
  1944.16,289.865 2280.62,289.865 2280.62,168.905 1944.16,168.905 1944.16,289.865 
  "/>
<polyline clip-path="url(#clip960)" style="stroke:#009af9; stroke-width:4; stroke-opacity:1; fill:none" points="
  1968.21,229.385 2112.48,229.385 
  "/>
<path clip-path="url(#clip960)" d="M 0 0 M2141.21 215.947 L2141.21 242.822 L2146.85 242.822 Q2154.01 242.822 2157.32 239.581 Q2160.65 236.341 2160.65 229.35 Q2160.65 222.406 2157.32 219.188 Q2154.01 215.947 2146.85 215.947 L2141.21 215.947 M2136.53 212.105 L2146.14 212.105 Q2156.18 212.105 2160.88 216.294 Q2165.58 220.461 2165.58 229.35 Q2165.58 238.285 2160.86 242.475 Q2156.14 246.665 2146.14 246.665 L2136.53 246.665 L2136.53 212.105 Z" fill="#000000" fill-rule="evenodd" fill-opacity="1" /><path clip-path="url(#clip960)" d="M 0 0 M2181.83 233.632 Q2176.67 233.632 2174.68 234.813 Q2172.69 235.993 2172.69 238.841 Q2172.69 241.109 2174.17 242.452 Q2175.67 243.771 2178.24 243.771 Q2181.79 243.771 2183.91 241.271 Q2186.07 238.748 2186.07 234.581 L2186.07 233.632 L2181.83 233.632 M2190.33 231.873 L2190.33 246.665 L2186.07 246.665 L2186.07 242.729 Q2184.61 245.091 2182.43 246.225 Q2180.26 247.336 2177.11 247.336 Q2173.13 247.336 2170.77 245.114 Q2168.43 242.868 2168.43 239.118 Q2168.43 234.743 2171.35 232.521 Q2174.29 230.299 2180.1 230.299 L2186.07 230.299 L2186.07 229.882 Q2186.07 226.943 2184.12 225.345 Q2182.2 223.725 2178.71 223.725 Q2176.48 223.725 2174.38 224.257 Q2172.27 224.79 2170.33 225.855 L2170.33 221.919 Q2172.66 221.017 2174.86 220.577 Q2177.06 220.114 2179.15 220.114 Q2184.77 220.114 2187.55 223.031 Q2190.33 225.947 2190.33 231.873 Z" fill="#000000" fill-rule="evenodd" fill-opacity="1" /><path clip-path="url(#clip960)" d="M 0 0 M2199.01 213.378 L2199.01 220.739 L2207.78 220.739 L2207.78 224.049 L2199.01 224.049 L2199.01 238.123 Q2199.01 241.294 2199.86 242.197 Q2200.74 243.1 2203.41 243.1 L2207.78 243.1 L2207.78 246.665 L2203.41 246.665 Q2198.47 246.665 2196.6 244.836 Q2194.72 242.984 2194.72 238.123 L2194.72 224.049 L2191.6 224.049 L2191.6 220.739 L2194.72 220.739 L2194.72 213.378 L2199.01 213.378 Z" fill="#000000" fill-rule="evenodd" fill-opacity="1" /><path clip-path="url(#clip960)" d="M 0 0 M2224.03 233.632 Q2218.87 233.632 2216.88 234.813 Q2214.89 235.993 2214.89 238.841 Q2214.89 241.109 2216.37 242.452 Q2217.87 243.771 2220.44 243.771 Q2223.98 243.771 2226.11 241.271 Q2228.27 238.748 2228.27 234.581 L2228.27 233.632 L2224.03 233.632 M2232.53 231.873 L2232.53 246.665 L2228.27 246.665 L2228.27 242.729 Q2226.81 245.091 2224.63 246.225 Q2222.46 247.336 2219.31 247.336 Q2215.33 247.336 2212.97 245.114 Q2210.63 242.868 2210.63 239.118 Q2210.63 234.743 2213.54 232.521 Q2216.48 230.299 2222.29 230.299 L2228.27 230.299 L2228.27 229.882 Q2228.27 226.943 2226.32 225.345 Q2224.4 223.725 2220.91 223.725 Q2218.68 223.725 2216.58 224.257 Q2214.47 224.79 2212.53 225.855 L2212.53 221.919 Q2214.86 221.017 2217.06 220.577 Q2219.26 220.114 2221.35 220.114 Q2226.97 220.114 2229.75 223.031 Q2232.53 225.947 2232.53 231.873 Z" fill="#000000" fill-rule="evenodd" fill-opacity="1" /></svg>
