<?xml version="1.0" encoding="utf-8"?>
<svg xmlns="http://www.w3.org/2000/svg" xmlns:xlink="http://www.w3.org/1999/xlink" width="600" height="400" viewBox="0 0 2400 1600">
<defs>
  <clipPath id="clip820">
    <rect x="0" y="0" width="2400" height="1600"/>
  </clipPath>
</defs>
<path clip-path="url(#clip820)" d="M0 1600 L2400 1600 L2400 0 L0 0  Z" fill="#ffffff" fill-rule="evenodd" fill-opacity="1"/>
<defs>
  <clipPath id="clip821">
    <rect x="172" y="123" width="2182" height="1364"/>
  </clipPath>
</defs>
<path clip-path="url(#clip820)" d="M172.015 1486.45 L2352.76 1486.45 L2352.76 123.472 L172.015 123.472  Z" fill="#ffffff" fill-rule="evenodd" fill-opacity="1"/>
<polyline clip-path="url(#clip821)" style="stroke:#000000; stroke-linecap:round; stroke-linejoin:round; stroke-width:2; stroke-opacity:0.1; fill:none" points="233.734,1486.45 233.734,123.472 "/>
<polyline clip-path="url(#clip821)" style="stroke:#000000; stroke-linecap:round; stroke-linejoin:round; stroke-width:2; stroke-opacity:0.1; fill:none" points="748.06,1486.45 748.06,123.472 "/>
<polyline clip-path="url(#clip821)" style="stroke:#000000; stroke-linecap:round; stroke-linejoin:round; stroke-width:2; stroke-opacity:0.1; fill:none" points="1262.39,1486.45 1262.39,123.472 "/>
<polyline clip-path="url(#clip821)" style="stroke:#000000; stroke-linecap:round; stroke-linejoin:round; stroke-width:2; stroke-opacity:0.1; fill:none" points="1776.71,1486.45 1776.71,123.472 "/>
<polyline clip-path="url(#clip821)" style="stroke:#000000; stroke-linecap:round; stroke-linejoin:round; stroke-width:2; stroke-opacity:0.1; fill:none" points="2291.04,1486.45 2291.04,123.472 "/>
<polyline clip-path="url(#clip821)" style="stroke:#000000; stroke-linecap:round; stroke-linejoin:round; stroke-width:2; stroke-opacity:0.1; fill:none" points="172.015,1447.87 2352.76,1447.87 "/>
<polyline clip-path="url(#clip821)" style="stroke:#000000; stroke-linecap:round; stroke-linejoin:round; stroke-width:2; stroke-opacity:0.1; fill:none" points="172.015,1182.75 2352.76,1182.75 "/>
<polyline clip-path="url(#clip821)" style="stroke:#000000; stroke-linecap:round; stroke-linejoin:round; stroke-width:2; stroke-opacity:0.1; fill:none" points="172.015,917.635 2352.76,917.635 "/>
<polyline clip-path="url(#clip821)" style="stroke:#000000; stroke-linecap:round; stroke-linejoin:round; stroke-width:2; stroke-opacity:0.1; fill:none" points="172.015,652.517 2352.76,652.517 "/>
<polyline clip-path="url(#clip821)" style="stroke:#000000; stroke-linecap:round; stroke-linejoin:round; stroke-width:2; stroke-opacity:0.1; fill:none" points="172.015,387.398 2352.76,387.398 "/>
<polyline clip-path="url(#clip820)" style="stroke:#000000; stroke-linecap:round; stroke-linejoin:round; stroke-width:4; stroke-opacity:1; fill:none" points="172.015,1486.45 2352.76,1486.45 "/>
<polyline clip-path="url(#clip820)" style="stroke:#000000; stroke-linecap:round; stroke-linejoin:round; stroke-width:4; stroke-opacity:1; fill:none" points="233.734,1486.45 233.734,1467.55 "/>
<polyline clip-path="url(#clip820)" style="stroke:#000000; stroke-linecap:round; stroke-linejoin:round; stroke-width:4; stroke-opacity:1; fill:none" points="748.06,1486.45 748.06,1467.55 "/>
<polyline clip-path="url(#clip820)" style="stroke:#000000; stroke-linecap:round; stroke-linejoin:round; stroke-width:4; stroke-opacity:1; fill:none" points="1262.39,1486.45 1262.39,1467.55 "/>
<polyline clip-path="url(#clip820)" style="stroke:#000000; stroke-linecap:round; stroke-linejoin:round; stroke-width:4; stroke-opacity:1; fill:none" points="1776.71,1486.45 1776.71,1467.55 "/>
<polyline clip-path="url(#clip820)" style="stroke:#000000; stroke-linecap:round; stroke-linejoin:round; stroke-width:4; stroke-opacity:1; fill:none" points="2291.04,1486.45 2291.04,1467.55 "/>
<path clip-path="url(#clip820)" d="M202.635 1532.02 L232.31 1532.02 L232.31 1535.95 L202.635 1535.95 L202.635 1532.02 Z" fill="#000000" fill-rule="nonzero" fill-opacity="1" /><path clip-path="url(#clip820)" d="M255.25 1518.36 L243.445 1536.81 L255.25 1536.81 L255.25 1518.36 M254.023 1514.29 L259.903 1514.29 L259.903 1536.81 L264.833 1536.81 L264.833 1540.7 L259.903 1540.7 L259.903 1548.85 L255.25 1548.85 L255.25 1540.7 L239.648 1540.7 L239.648 1536.19 L254.023 1514.29 Z" fill="#000000" fill-rule="nonzero" fill-opacity="1" /><path clip-path="url(#clip820)" d="M718.002 1532.02 L747.678 1532.02 L747.678 1535.95 L718.002 1535.95 L718.002 1532.02 Z" fill="#000000" fill-rule="nonzero" fill-opacity="1" /><path clip-path="url(#clip820)" d="M761.798 1544.91 L778.117 1544.91 L778.117 1548.85 L756.173 1548.85 L756.173 1544.91 Q758.835 1542.16 763.418 1537.53 Q768.025 1532.88 769.205 1531.53 Q771.451 1529.01 772.33 1527.27 Q773.233 1525.51 773.233 1523.82 Q773.233 1521.07 771.289 1519.33 Q769.367 1517.6 766.266 1517.6 Q764.066 1517.6 761.613 1518.36 Q759.182 1519.13 756.404 1520.68 L756.404 1515.95 Q759.229 1514.82 761.682 1514.24 Q764.136 1513.66 766.173 1513.66 Q771.543 1513.66 774.738 1516.35 Q777.932 1519.03 777.932 1523.52 Q777.932 1525.65 777.122 1527.57 Q776.335 1529.47 774.228 1532.07 Q773.65 1532.74 770.548 1535.95 Q767.446 1539.15 761.798 1544.91 Z" fill="#000000" fill-rule="nonzero" fill-opacity="1" /><path clip-path="url(#clip820)" d="M1262.39 1517.37 Q1258.77 1517.37 1256.95 1520.93 Q1255.14 1524.47 1255.14 1531.6 Q1255.14 1538.71 1256.95 1542.27 Q1258.77 1545.82 1262.39 1545.82 Q1266.02 1545.82 1267.83 1542.27 Q1269.65 1538.71 1269.65 1531.6 Q1269.65 1524.47 1267.83 1520.93 Q1266.02 1517.37 1262.39 1517.37 M1262.39 1513.66 Q1268.2 1513.66 1271.25 1518.27 Q1274.33 1522.85 1274.33 1531.6 Q1274.33 1540.33 1271.25 1544.94 Q1268.2 1549.52 1262.39 1549.52 Q1256.58 1549.52 1253.5 1544.94 Q1250.44 1540.33 1250.44 1531.6 Q1250.44 1522.85 1253.5 1518.27 Q1256.58 1513.66 1262.39 1513.66 Z" fill="#000000" fill-rule="nonzero" fill-opacity="1" /><path clip-path="url(#clip820)" d="M1771.36 1544.91 L1787.68 1544.91 L1787.68 1548.85 L1765.74 1548.85 L1765.74 1544.91 Q1768.4 1542.16 1772.98 1537.53 Q1777.59 1532.88 1778.77 1531.53 Q1781.02 1529.01 1781.9 1527.27 Q1782.8 1525.51 1782.8 1523.82 Q1782.8 1521.07 1780.85 1519.33 Q1778.93 1517.6 1775.83 1517.6 Q1773.63 1517.6 1771.18 1518.36 Q1768.75 1519.13 1765.97 1520.68 L1765.97 1515.95 Q1768.79 1514.82 1771.25 1514.24 Q1773.7 1513.66 1775.74 1513.66 Q1781.11 1513.66 1784.3 1516.35 Q1787.5 1519.03 1787.5 1523.52 Q1787.5 1525.65 1786.69 1527.57 Q1785.9 1529.47 1783.79 1532.07 Q1783.22 1532.74 1780.11 1535.95 Q1777.01 1539.15 1771.36 1544.91 Z" fill="#000000" fill-rule="nonzero" fill-opacity="1" /><path clip-path="url(#clip820)" d="M2294.05 1518.36 L2282.24 1536.81 L2294.05 1536.81 L2294.05 1518.36 M2292.82 1514.29 L2298.7 1514.29 L2298.7 1536.81 L2303.63 1536.81 L2303.63 1540.7 L2298.7 1540.7 L2298.7 1548.85 L2294.05 1548.85 L2294.05 1540.7 L2278.44 1540.7 L2278.44 1536.19 L2292.82 1514.29 Z" fill="#000000" fill-rule="nonzero" fill-opacity="1" /><polyline clip-path="url(#clip820)" style="stroke:#000000; stroke-linecap:round; stroke-linejoin:round; stroke-width:4; stroke-opacity:1; fill:none" points="172.015,1486.45 172.015,123.472 "/>
<polyline clip-path="url(#clip820)" style="stroke:#000000; stroke-linecap:round; stroke-linejoin:round; stroke-width:4; stroke-opacity:1; fill:none" points="172.015,1447.87 190.912,1447.87 "/>
<polyline clip-path="url(#clip820)" style="stroke:#000000; stroke-linecap:round; stroke-linejoin:round; stroke-width:4; stroke-opacity:1; fill:none" points="172.015,1182.75 190.912,1182.75 "/>
<polyline clip-path="url(#clip820)" style="stroke:#000000; stroke-linecap:round; stroke-linejoin:round; stroke-width:4; stroke-opacity:1; fill:none" points="172.015,917.635 190.912,917.635 "/>
<polyline clip-path="url(#clip820)" style="stroke:#000000; stroke-linecap:round; stroke-linejoin:round; stroke-width:4; stroke-opacity:1; fill:none" points="172.015,652.517 190.912,652.517 "/>
<polyline clip-path="url(#clip820)" style="stroke:#000000; stroke-linecap:round; stroke-linejoin:round; stroke-width:4; stroke-opacity:1; fill:none" points="172.015,387.398 190.912,387.398 "/>
<path clip-path="url(#clip820)" d="M124.07 1433.67 Q120.459 1433.67 118.631 1437.24 Q116.825 1440.78 116.825 1447.91 Q116.825 1455.01 118.631 1458.58 Q120.459 1462.12 124.07 1462.12 Q127.705 1462.12 129.51 1458.58 Q131.339 1455.01 131.339 1447.91 Q131.339 1440.78 129.51 1437.24 Q127.705 1433.67 124.07 1433.67 M124.07 1429.97 Q129.881 1429.97 132.936 1434.57 Q136.015 1439.16 136.015 1447.91 Q136.015 1456.63 132.936 1461.24 Q129.881 1465.82 124.07 1465.82 Q118.26 1465.82 115.182 1461.24 Q112.126 1456.63 112.126 1447.91 Q112.126 1439.16 115.182 1434.57 Q118.26 1429.97 124.07 1429.97 Z" fill="#000000" fill-rule="nonzero" fill-opacity="1" /><path clip-path="url(#clip820)" d="M57.7745 1196.1 L74.0939 1196.1 L74.0939 1200.03 L52.1495 1200.03 L52.1495 1196.1 Q54.8115 1193.34 59.3949 1188.71 Q64.0013 1184.06 65.1819 1182.72 Q67.4272 1180.2 68.3068 1178.46 Q69.2096 1176.7 69.2096 1175.01 Q69.2096 1172.26 67.2652 1170.52 Q65.3439 1168.78 62.2421 1168.78 Q60.043 1168.78 57.5893 1169.55 Q55.1588 1170.31 52.381 1171.86 L52.381 1167.14 Q55.2051 1166.01 57.6588 1165.43 Q60.1124 1164.85 62.1495 1164.85 Q67.5198 1164.85 70.7142 1167.53 Q73.9087 1170.22 73.9087 1174.71 Q73.9087 1176.84 73.0985 1178.76 Q72.3115 1180.66 70.205 1183.25 Q69.6263 1183.92 66.5245 1187.14 Q63.4226 1190.34 57.7745 1196.1 Z" fill="#000000" fill-rule="nonzero" fill-opacity="1" /><path clip-path="url(#clip820)" d="M93.9086 1168.55 Q90.2975 1168.55 88.4688 1172.12 Q86.6632 1175.66 86.6632 1182.79 Q86.6632 1189.9 88.4688 1193.46 Q90.2975 1197 93.9086 1197 Q97.5428 1197 99.3483 1193.46 Q101.177 1189.9 101.177 1182.79 Q101.177 1175.66 99.3483 1172.12 Q97.5428 1168.55 93.9086 1168.55 M93.9086 1164.85 Q99.7187 1164.85 102.774 1169.46 Q105.853 1174.04 105.853 1182.79 Q105.853 1191.52 102.774 1196.12 Q99.7187 1200.71 93.9086 1200.71 Q88.0984 1200.71 85.0197 1196.12 Q81.9642 1191.52 81.9642 1182.79 Q81.9642 1174.04 85.0197 1169.46 Q88.0984 1164.85 93.9086 1164.85 Z" fill="#000000" fill-rule="nonzero" fill-opacity="1" /><path clip-path="url(#clip820)" d="M124.07 1168.55 Q120.459 1168.55 118.631 1172.12 Q116.825 1175.66 116.825 1182.79 Q116.825 1189.9 118.631 1193.46 Q120.459 1197 124.07 1197 Q127.705 1197 129.51 1193.46 Q131.339 1189.9 131.339 1182.79 Q131.339 1175.66 129.51 1172.12 Q127.705 1168.55 124.07 1168.55 M124.07 1164.85 Q129.881 1164.85 132.936 1169.46 Q136.015 1174.04 136.015 1182.79 Q136.015 1191.52 132.936 1196.12 Q129.881 1200.71 124.07 1200.71 Q118.26 1200.71 115.182 1196.12 Q112.126 1191.52 112.126 1182.79 Q112.126 1174.04 115.182 1169.46 Q118.26 1164.85 124.07 1164.85 Z" fill="#000000" fill-rule="nonzero" fill-opacity="1" /><path clip-path="url(#clip820)" d="M66.5939 904.43 L54.7884 922.879 L66.5939 922.879 L66.5939 904.43 M65.367 900.355 L71.2466 900.355 L71.2466 922.879 L76.1772 922.879 L76.1772 926.767 L71.2466 926.767 L71.2466 934.915 L66.5939 934.915 L66.5939 926.767 L50.9921 926.767 L50.9921 922.254 L65.367 900.355 Z" fill="#000000" fill-rule="nonzero" fill-opacity="1" /><path clip-path="url(#clip820)" d="M93.9086 903.434 Q90.2975 903.434 88.4688 906.999 Q86.6632 910.541 86.6632 917.67 Q86.6632 924.777 88.4688 928.341 Q90.2975 931.883 93.9086 931.883 Q97.5428 931.883 99.3483 928.341 Q101.177 924.777 101.177 917.67 Q101.177 910.541 99.3483 906.999 Q97.5428 903.434 93.9086 903.434 M93.9086 899.73 Q99.7187 899.73 102.774 904.337 Q105.853 908.92 105.853 917.67 Q105.853 926.397 102.774 931.003 Q99.7187 935.587 93.9086 935.587 Q88.0984 935.587 85.0197 931.003 Q81.9642 926.397 81.9642 917.67 Q81.9642 908.92 85.0197 904.337 Q88.0984 899.73 93.9086 899.73 Z" fill="#000000" fill-rule="nonzero" fill-opacity="1" /><path clip-path="url(#clip820)" d="M124.07 903.434 Q120.459 903.434 118.631 906.999 Q116.825 910.541 116.825 917.67 Q116.825 924.777 118.631 928.341 Q120.459 931.883 124.07 931.883 Q127.705 931.883 129.51 928.341 Q131.339 924.777 131.339 917.67 Q131.339 910.541 129.51 906.999 Q127.705 903.434 124.07 903.434 M124.07 899.73 Q129.881 899.73 132.936 904.337 Q136.015 908.92 136.015 917.67 Q136.015 926.397 132.936 931.003 Q129.881 935.587 124.07 935.587 Q118.26 935.587 115.182 931.003 Q112.126 926.397 112.126 917.67 Q112.126 908.92 115.182 904.337 Q118.26 899.73 124.07 899.73 Z" fill="#000000" fill-rule="nonzero" fill-opacity="1" /><path clip-path="url(#clip820)" d="M64.3254 650.653 Q61.1773 650.653 59.3254 652.806 Q57.4967 654.959 57.4967 658.709 Q57.4967 662.436 59.3254 664.612 Q61.1773 666.764 64.3254 666.764 Q67.4735 666.764 69.3022 664.612 Q71.1541 662.436 71.1541 658.709 Q71.1541 654.959 69.3022 652.806 Q67.4735 650.653 64.3254 650.653 M73.6077 636.001 L73.6077 640.26 Q71.8485 639.426 70.0429 638.987 Q68.2606 638.547 66.5013 638.547 Q61.8717 638.547 59.418 641.672 Q56.9875 644.797 56.6402 651.116 Q58.006 649.102 60.0662 648.038 Q62.1263 646.95 64.6032 646.95 Q69.8115 646.95 72.8207 650.121 Q75.8531 653.269 75.8531 658.709 Q75.8531 664.033 72.705 667.25 Q69.5568 670.468 64.3254 670.468 Q58.33 670.468 55.1588 665.885 Q51.9875 661.278 51.9875 652.551 Q51.9875 644.357 55.8764 639.496 Q59.7652 634.612 66.3161 634.612 Q68.0754 634.612 69.8578 634.959 Q71.6633 635.306 73.6077 636.001 Z" fill="#000000" fill-rule="nonzero" fill-opacity="1" /><path clip-path="url(#clip820)" d="M93.9086 638.315 Q90.2975 638.315 88.4688 641.88 Q86.6632 645.422 86.6632 652.551 Q86.6632 659.658 88.4688 663.223 Q90.2975 666.764 93.9086 666.764 Q97.5428 666.764 99.3483 663.223 Q101.177 659.658 101.177 652.551 Q101.177 645.422 99.3483 641.88 Q97.5428 638.315 93.9086 638.315 M93.9086 634.612 Q99.7187 634.612 102.774 639.218 Q105.853 643.801 105.853 652.551 Q105.853 661.278 102.774 665.885 Q99.7187 670.468 93.9086 670.468 Q88.0984 670.468 85.0197 665.885 Q81.9642 661.278 81.9642 652.551 Q81.9642 643.801 85.0197 639.218 Q88.0984 634.612 93.9086 634.612 Z" fill="#000000" fill-rule="nonzero" fill-opacity="1" /><path clip-path="url(#clip820)" d="M124.07 638.315 Q120.459 638.315 118.631 641.88 Q116.825 645.422 116.825 652.551 Q116.825 659.658 118.631 663.223 Q120.459 666.764 124.07 666.764 Q127.705 666.764 129.51 663.223 Q131.339 659.658 131.339 652.551 Q131.339 645.422 129.51 641.88 Q127.705 638.315 124.07 638.315 M124.07 634.612 Q129.881 634.612 132.936 639.218 Q136.015 643.801 136.015 652.551 Q136.015 661.278 132.936 665.885 Q129.881 670.468 124.07 670.468 Q118.26 670.468 115.182 665.885 Q112.126 661.278 112.126 652.551 Q112.126 643.801 115.182 639.218 Q118.26 634.612 124.07 634.612 Z" fill="#000000" fill-rule="nonzero" fill-opacity="1" /><path clip-path="url(#clip820)" d="M63.7467 388.266 Q60.4134 388.266 58.4921 390.048 Q56.5939 391.831 56.5939 394.956 Q56.5939 398.081 58.4921 399.863 Q60.4134 401.645 63.7467 401.645 Q67.08 401.645 69.0013 399.863 Q70.9226 398.058 70.9226 394.956 Q70.9226 391.831 69.0013 390.048 Q67.1032 388.266 63.7467 388.266 M59.0708 386.275 Q56.0615 385.534 54.3717 383.474 Q52.7051 381.414 52.7051 378.451 Q52.7051 374.308 55.6449 371.9 Q58.6078 369.493 63.7467 369.493 Q68.9087 369.493 71.8485 371.9 Q74.7883 374.308 74.7883 378.451 Q74.7883 381.414 73.0985 383.474 Q71.4318 385.534 68.4457 386.275 Q71.8253 387.062 73.7003 389.354 Q75.5985 391.646 75.5985 394.956 Q75.5985 399.979 72.5198 402.664 Q69.4642 405.349 63.7467 405.349 Q58.0291 405.349 54.9504 402.664 Q51.8949 399.979 51.8949 394.956 Q51.8949 391.646 53.793 389.354 Q55.6912 387.062 59.0708 386.275 M57.3578 378.891 Q57.3578 381.576 59.0245 383.081 Q60.7143 384.585 63.7467 384.585 Q66.7559 384.585 68.4457 383.081 Q70.1587 381.576 70.1587 378.891 Q70.1587 376.206 68.4457 374.701 Q66.7559 373.197 63.7467 373.197 Q60.7143 373.197 59.0245 374.701 Q57.3578 376.206 57.3578 378.891 Z" fill="#000000" fill-rule="nonzero" fill-opacity="1" /><path clip-path="url(#clip820)" d="M93.9086 373.197 Q90.2975 373.197 88.4688 376.761 Q86.6632 380.303 86.6632 387.433 Q86.6632 394.539 88.4688 398.104 Q90.2975 401.645 93.9086 401.645 Q97.5428 401.645 99.3483 398.104 Q101.177 394.539 101.177 387.433 Q101.177 380.303 99.3483 376.761 Q97.5428 373.197 93.9086 373.197 M93.9086 369.493 Q99.7187 369.493 102.774 374.099 Q105.853 378.683 105.853 387.433 Q105.853 396.159 102.774 400.766 Q99.7187 405.349 93.9086 405.349 Q88.0984 405.349 85.0197 400.766 Q81.9642 396.159 81.9642 387.433 Q81.9642 378.683 85.0197 374.099 Q88.0984 369.493 93.9086 369.493 Z" fill="#000000" fill-rule="nonzero" fill-opacity="1" /><path clip-path="url(#clip820)" d="M124.07 373.197 Q120.459 373.197 118.631 376.761 Q116.825 380.303 116.825 387.433 Q116.825 394.539 118.631 398.104 Q120.459 401.645 124.07 401.645 Q127.705 401.645 129.51 398.104 Q131.339 394.539 131.339 387.433 Q131.339 380.303 129.51 376.761 Q127.705 373.197 124.07 373.197 M124.07 369.493 Q129.881 369.493 132.936 374.099 Q136.015 378.683 136.015 387.433 Q136.015 396.159 132.936 400.766 Q129.881 405.349 124.07 405.349 Q118.26 405.349 115.182 400.766 Q112.126 396.159 112.126 387.433 Q112.126 378.683 115.182 374.099 Q118.26 369.493 124.07 369.493 Z" fill="#000000" fill-rule="nonzero" fill-opacity="1" /><path clip-path="url(#clip820)" d="M631.092 18.8205 L631.092 65.8515 L640.977 65.8515 Q653.494 65.8515 659.287 60.1802 Q665.12 54.509 665.12 42.2752 Q665.12 30.1225 659.287 24.4918 Q653.494 18.8205 640.977 18.8205 L631.092 18.8205 M622.91 12.096 L639.721 12.096 Q657.302 12.096 665.525 19.4281 Q673.748 26.7198 673.748 42.2752 Q673.748 57.9117 665.485 65.2439 Q657.221 72.576 639.721 72.576 L622.91 72.576 L622.91 12.096 Z" fill="#000000" fill-rule="nonzero" fill-opacity="1" /><path clip-path="url(#clip820)" d="M707.087 49.7694 Q698.054 49.7694 694.57 51.8354 Q691.086 53.9013 691.086 58.8839 Q691.086 62.8538 693.679 65.2034 Q696.312 67.5124 700.809 67.5124 Q707.006 67.5124 710.733 63.1374 Q714.501 58.7219 714.501 51.4303 L714.501 49.7694 L707.087 49.7694 M721.954 46.6907 L721.954 72.576 L714.501 72.576 L714.501 65.6895 Q711.948 69.8214 708.141 71.8063 Q704.333 73.7508 698.824 73.7508 Q691.856 73.7508 687.724 69.8619 Q683.633 65.9325 683.633 59.3701 Q683.633 51.7138 688.737 47.825 Q693.881 43.9361 704.049 43.9361 L714.501 43.9361 L714.501 43.2069 Q714.501 38.0623 711.098 35.2672 Q707.736 32.4315 701.619 32.4315 Q697.73 32.4315 694.044 33.3632 Q690.357 34.295 686.954 36.1584 L686.954 29.2718 Q691.046 27.692 694.894 26.9223 Q698.743 26.1121 702.388 26.1121 Q712.232 26.1121 717.093 31.2163 Q721.954 36.3204 721.954 46.6907 Z" fill="#000000" fill-rule="nonzero" fill-opacity="1" /><path clip-path="url(#clip820)" d="M744.68 14.324 L744.68 27.2059 L760.033 27.2059 L760.033 32.9987 L744.68 32.9987 L744.68 57.6282 Q744.68 63.1779 746.179 64.7578 Q747.718 66.3376 752.377 66.3376 L760.033 66.3376 L760.033 72.576 L752.377 72.576 Q743.748 72.576 740.467 69.3758 Q737.186 66.1351 737.186 57.6282 L737.186 32.9987 L731.717 32.9987 L731.717 27.2059 L737.186 27.2059 L737.186 14.324 L744.68 14.324 Z" fill="#000000" fill-rule="nonzero" fill-opacity="1" /><path clip-path="url(#clip820)" d="M790.455 49.7694 Q781.422 49.7694 777.938 51.8354 Q774.454 53.9013 774.454 58.8839 Q774.454 62.8538 777.047 65.2034 Q779.68 67.5124 784.176 67.5124 Q790.374 67.5124 794.101 63.1374 Q797.868 58.7219 797.868 51.4303 L797.868 49.7694 L790.455 49.7694 M805.322 46.6907 L805.322 72.576 L797.868 72.576 L797.868 65.6895 Q795.316 69.8214 791.508 71.8063 Q787.7 73.7508 782.191 73.7508 Q775.224 73.7508 771.092 69.8619 Q767 65.9325 767 59.3701 Q767 51.7138 772.104 47.825 Q777.249 43.9361 787.417 43.9361 L797.868 43.9361 L797.868 43.2069 Q797.868 38.0623 794.465 35.2672 Q791.103 32.4315 784.986 32.4315 Q781.097 32.4315 777.411 33.3632 Q773.725 34.295 770.322 36.1584 L770.322 29.2718 Q774.413 27.692 778.262 26.9223 Q782.11 26.1121 785.756 26.1121 Q795.6 26.1121 800.461 31.2163 Q805.322 36.3204 805.322 46.6907 Z" fill="#000000" fill-rule="nonzero" fill-opacity="1" /><path clip-path="url(#clip820)" d="M867.665 49.7694 Q858.632 49.7694 855.148 51.8354 Q851.664 53.9013 851.664 58.8839 Q851.664 62.8538 854.257 65.2034 Q856.89 67.5124 861.386 67.5124 Q867.584 67.5124 871.311 63.1374 Q875.078 58.7219 875.078 51.4303 L875.078 49.7694 L867.665 49.7694 M882.532 46.6907 L882.532 72.576 L875.078 72.576 L875.078 65.6895 Q872.526 69.8214 868.718 71.8063 Q864.911 73.7508 859.401 73.7508 Q852.434 73.7508 848.302 69.8619 Q844.211 65.9325 844.211 59.3701 Q844.211 51.7138 849.315 47.825 Q854.459 43.9361 864.627 43.9361 L875.078 43.9361 L875.078 43.2069 Q875.078 38.0623 871.676 35.2672 Q868.313 32.4315 862.197 32.4315 Q858.308 32.4315 854.621 33.3632 Q850.935 34.295 847.532 36.1584 L847.532 29.2718 Q851.624 27.692 855.472 26.9223 Q859.32 26.1121 862.966 26.1121 Q872.81 26.1121 877.671 31.2163 Q882.532 36.3204 882.532 46.6907 Z" fill="#000000" fill-rule="nonzero" fill-opacity="1" /><path clip-path="url(#clip820)" d="M935.599 45.1919 L935.599 72.576 L928.145 72.576 L928.145 45.4349 Q928.145 38.994 925.634 35.7938 Q923.122 32.5936 918.099 32.5936 Q912.063 32.5936 908.579 36.4419 Q905.096 40.2903 905.096 46.9338 L905.096 72.576 L897.601 72.576 L897.601 27.2059 L905.096 27.2059 L905.096 34.2544 Q907.769 30.163 911.375 28.1376 Q915.02 26.1121 919.76 26.1121 Q927.578 26.1121 931.589 30.9732 Q935.599 35.7938 935.599 45.1919 Z" fill="#000000" fill-rule="nonzero" fill-opacity="1" /><path clip-path="url(#clip820)" d="M980.321 34.0924 L980.321 9.54393 L987.775 9.54393 L987.775 72.576 L980.321 72.576 L980.321 65.7705 Q977.971 69.8214 974.366 71.8063 Q970.801 73.7508 965.778 73.7508 Q957.555 73.7508 952.37 67.1883 Q947.225 60.6258 947.225 49.9314 Q947.225 39.2371 952.37 32.6746 Q957.555 26.1121 965.778 26.1121 Q970.801 26.1121 974.366 28.0971 Q977.971 30.0415 980.321 34.0924 M954.922 49.9314 Q954.922 58.1548 958.284 62.8538 Q961.687 67.5124 967.601 67.5124 Q973.515 67.5124 976.918 62.8538 Q980.321 58.1548 980.321 49.9314 Q980.321 41.7081 976.918 37.0496 Q973.515 32.3505 967.601 32.3505 Q961.687 32.3505 958.284 37.0496 Q954.922 41.7081 954.922 49.9314 Z" fill="#000000" fill-rule="nonzero" fill-opacity="1" /><path clip-path="url(#clip820)" d="M1021.44 12.096 L1072.6 12.096 L1072.6 18.9825 L1051.13 18.9825 L1051.13 72.576 L1042.91 72.576 L1042.91 18.9825 L1021.44 18.9825 L1021.44 12.096 Z" fill="#000000" fill-rule="nonzero" fill-opacity="1" /><path clip-path="url(#clip820)" d="M1094.27 34.1734 Q1093.02 33.4443 1091.52 33.1202 Q1090.06 32.7556 1088.28 32.7556 Q1081.96 32.7556 1078.56 36.8875 Q1075.19 40.9789 1075.19 48.6757 L1075.19 72.576 L1067.7 72.576 L1067.7 27.2059 L1075.19 27.2059 L1075.19 34.2544 Q1077.54 30.1225 1081.31 28.1376 Q1085.08 26.1121 1090.46 26.1121 Q1091.23 26.1121 1092.17 26.2337 Q1093.1 26.3147 1094.23 26.5172 L1094.27 34.1734 Z" fill="#000000" fill-rule="nonzero" fill-opacity="1" /><path clip-path="url(#clip820)" d="M1101.32 54.671 L1101.32 27.2059 L1108.78 27.2059 L1108.78 54.3874 Q1108.78 60.8284 1111.29 64.0691 Q1113.8 67.2693 1118.82 67.2693 Q1124.86 67.2693 1128.34 63.421 Q1131.87 59.5726 1131.87 52.9291 L1131.87 27.2059 L1139.32 27.2059 L1139.32 72.576 L1131.87 72.576 L1131.87 65.6084 Q1129.15 69.7404 1125.55 71.7658 Q1121.98 73.7508 1117.24 73.7508 Q1109.42 73.7508 1105.37 68.8897 Q1101.32 64.0286 1101.32 54.671 M1120.08 26.1121 L1120.08 26.1121 Z" fill="#000000" fill-rule="nonzero" fill-opacity="1" /><path clip-path="url(#clip820)" d="M1193.48 48.0275 L1193.48 51.6733 L1159.21 51.6733 Q1159.69 59.3701 1163.83 63.421 Q1168 67.4314 1175.41 67.4314 Q1179.71 67.4314 1183.72 66.3781 Q1187.77 65.3249 1191.74 63.2184 L1191.74 70.267 Q1187.73 71.9684 1183.51 72.8596 Q1179.3 73.7508 1174.97 73.7508 Q1164.11 73.7508 1157.75 67.4314 Q1151.43 61.1119 1151.43 50.3365 Q1151.43 39.1965 1157.43 32.6746 Q1163.46 26.1121 1173.67 26.1121 Q1182.83 26.1121 1188.13 32.0264 Q1193.48 37.9003 1193.48 48.0275 M1186.03 45.84 Q1185.94 39.7232 1182.58 36.0774 Q1179.26 32.4315 1173.75 32.4315 Q1167.51 32.4315 1163.75 35.9558 Q1160.02 39.4801 1159.45 45.8805 L1186.03 45.84 Z" fill="#000000" fill-rule="nonzero" fill-opacity="1" /><path clip-path="url(#clip820)" d="M1268.66 14.0809 L1268.66 22.0612 Q1264.01 19.8332 1259.87 18.7395 Q1255.74 17.6457 1251.89 17.6457 Q1245.21 17.6457 1241.56 20.2383 Q1237.96 22.8309 1237.96 27.611 Q1237.96 31.6214 1240.35 33.6873 Q1242.78 35.7128 1249.5 36.9686 L1254.45 37.9813 Q1263.6 39.7232 1267.94 44.1387 Q1272.31 48.5136 1272.31 55.8863 Q1272.31 64.6767 1266.4 69.2137 Q1260.52 73.7508 1249.14 73.7508 Q1244.84 73.7508 1239.98 72.7785 Q1235.16 71.8063 1229.98 69.9024 L1229.98 61.4765 Q1234.96 64.2716 1239.74 65.6895 Q1244.52 67.1073 1249.14 67.1073 Q1256.15 67.1073 1259.95 64.3527 Q1263.76 61.598 1263.76 56.4939 Q1263.76 52.0379 1261.01 49.5264 Q1258.29 47.0148 1252.06 45.759 L1247.07 44.7868 Q1237.92 42.9639 1233.83 39.075 Q1229.74 35.1862 1229.74 28.2591 Q1229.74 20.2383 1235.37 15.6203 Q1241.04 11.0023 1250.96 11.0023 Q1255.22 11.0023 1259.63 11.7719 Q1264.05 12.5416 1268.66 14.0809 Z" fill="#000000" fill-rule="nonzero" fill-opacity="1" /><path clip-path="url(#clip820)" d="M1292.12 14.324 L1292.12 27.2059 L1307.47 27.2059 L1307.47 32.9987 L1292.12 32.9987 L1292.12 57.6282 Q1292.12 63.1779 1293.62 64.7578 Q1295.16 66.3376 1299.82 66.3376 L1307.47 66.3376 L1307.47 72.576 L1299.82 72.576 Q1291.19 72.576 1287.91 69.3758 Q1284.62 66.1351 1284.62 57.6282 L1284.62 32.9987 L1279.16 32.9987 L1279.16 27.2059 L1284.62 27.2059 L1284.62 14.324 L1292.12 14.324 Z" fill="#000000" fill-rule="nonzero" fill-opacity="1" /><path clip-path="url(#clip820)" d="M1337.89 49.7694 Q1328.86 49.7694 1325.38 51.8354 Q1321.89 53.9013 1321.89 58.8839 Q1321.89 62.8538 1324.49 65.2034 Q1327.12 67.5124 1331.62 67.5124 Q1337.81 67.5124 1341.54 63.1374 Q1345.31 58.7219 1345.31 51.4303 L1345.31 49.7694 L1337.89 49.7694 M1352.76 46.6907 L1352.76 72.576 L1345.31 72.576 L1345.31 65.6895 Q1342.76 69.8214 1338.95 71.8063 Q1335.14 73.7508 1329.63 73.7508 Q1322.66 73.7508 1318.53 69.8619 Q1314.44 65.9325 1314.44 59.3701 Q1314.44 51.7138 1319.54 47.825 Q1324.69 43.9361 1334.86 43.9361 L1345.31 43.9361 L1345.31 43.2069 Q1345.31 38.0623 1341.9 35.2672 Q1338.54 32.4315 1332.43 32.4315 Q1328.54 32.4315 1324.85 33.3632 Q1321.16 34.295 1317.76 36.1584 L1317.76 29.2718 Q1321.85 27.692 1325.7 26.9223 Q1329.55 26.1121 1333.2 26.1121 Q1343.04 26.1121 1347.9 31.2163 Q1352.76 36.3204 1352.76 46.6907 Z" fill="#000000" fill-rule="nonzero" fill-opacity="1" /><path clip-path="url(#clip820)" d="M1375.49 14.324 L1375.49 27.2059 L1390.84 27.2059 L1390.84 32.9987 L1375.49 32.9987 L1375.49 57.6282 Q1375.49 63.1779 1376.99 64.7578 Q1378.52 66.3376 1383.18 66.3376 L1390.84 66.3376 L1390.84 72.576 L1383.18 72.576 Q1374.55 72.576 1371.27 69.3758 Q1367.99 66.1351 1367.99 57.6282 L1367.99 32.9987 L1362.52 32.9987 L1362.52 27.2059 L1367.99 27.2059 L1367.99 14.324 L1375.49 14.324 Z" fill="#000000" fill-rule="nonzero" fill-opacity="1" /><path clip-path="url(#clip820)" d="M1400.64 27.2059 L1408.1 27.2059 L1408.1 72.576 L1400.64 72.576 L1400.64 27.2059 M1400.64 9.54393 L1408.1 9.54393 L1408.1 18.9825 L1400.64 18.9825 L1400.64 9.54393 Z" fill="#000000" fill-rule="nonzero" fill-opacity="1" /><path clip-path="url(#clip820)" d="M1452.62 28.5427 L1452.62 35.5912 Q1449.46 33.9709 1446.05 33.1607 Q1442.65 32.3505 1439 32.3505 Q1433.46 32.3505 1430.66 34.0519 Q1427.91 35.7533 1427.91 39.156 Q1427.91 41.7486 1429.89 43.2475 Q1431.88 44.7058 1437.87 46.0426 L1440.42 46.6097 Q1448.36 48.3111 1451.68 51.4303 Q1455.05 54.509 1455.05 60.0587 Q1455.05 66.3781 1450.02 70.0644 Q1445.04 73.7508 1436.29 73.7508 Q1432.64 73.7508 1428.67 73.0216 Q1424.75 72.3329 1420.37 70.9151 L1420.37 63.2184 Q1424.5 65.3654 1428.51 66.4591 Q1432.52 67.5124 1436.45 67.5124 Q1441.72 67.5124 1444.55 65.73 Q1447.39 63.9071 1447.39 60.6258 Q1447.39 57.5877 1445.32 55.9673 Q1443.3 54.3469 1436.37 52.8481 L1433.78 52.2405 Q1426.85 50.7821 1423.77 47.7845 Q1420.69 44.7463 1420.69 39.4801 Q1420.69 33.0797 1425.23 29.5959 Q1429.77 26.1121 1438.11 26.1121 Q1442.25 26.1121 1445.89 26.7198 Q1449.54 27.3274 1452.62 28.5427 Z" fill="#000000" fill-rule="nonzero" fill-opacity="1" /><path clip-path="url(#clip820)" d="M1474.29 14.324 L1474.29 27.2059 L1489.64 27.2059 L1489.64 32.9987 L1474.29 32.9987 L1474.29 57.6282 Q1474.29 63.1779 1475.79 64.7578 Q1477.33 66.3376 1481.98 66.3376 L1489.64 66.3376 L1489.64 72.576 L1481.98 72.576 Q1473.36 72.576 1470.08 69.3758 Q1466.79 66.1351 1466.79 57.6282 L1466.79 32.9987 L1461.33 32.9987 L1461.33 27.2059 L1466.79 27.2059 L1466.79 14.324 L1474.29 14.324 Z" fill="#000000" fill-rule="nonzero" fill-opacity="1" /><path clip-path="url(#clip820)" d="M1499.44 27.2059 L1506.9 27.2059 L1506.9 72.576 L1499.44 72.576 L1499.44 27.2059 M1499.44 9.54393 L1506.9 9.54393 L1506.9 18.9825 L1499.44 18.9825 L1499.44 9.54393 Z" fill="#000000" fill-rule="nonzero" fill-opacity="1" /><path clip-path="url(#clip820)" d="M1555.14 28.9478 L1555.14 35.9153 Q1551.98 34.1734 1548.78 33.3227 Q1545.62 32.4315 1542.38 32.4315 Q1535.13 32.4315 1531.12 37.0496 Q1527.11 41.6271 1527.11 49.9314 Q1527.11 58.2358 1531.12 62.8538 Q1535.13 67.4314 1542.38 67.4314 Q1545.62 67.4314 1548.78 66.5807 Q1551.98 65.6895 1555.14 63.9476 L1555.14 70.8341 Q1552.03 72.2924 1548.66 73.0216 Q1545.34 73.7508 1541.57 73.7508 Q1531.32 73.7508 1525.29 67.3098 Q1519.25 60.8689 1519.25 49.9314 Q1519.25 38.832 1525.33 32.472 Q1531.45 26.1121 1542.06 26.1121 Q1545.5 26.1121 1548.78 26.8413 Q1552.07 27.5299 1555.14 28.9478 Z" fill="#000000" fill-rule="nonzero" fill-opacity="1" /><path clip-path="url(#clip820)" d="M1588.73 49.7694 Q1579.69 49.7694 1576.21 51.8354 Q1572.73 53.9013 1572.73 58.8839 Q1572.73 62.8538 1575.32 65.2034 Q1577.95 67.5124 1582.45 67.5124 Q1588.65 67.5124 1592.37 63.1374 Q1596.14 58.7219 1596.14 51.4303 L1596.14 49.7694 L1588.73 49.7694 M1603.59 46.6907 L1603.59 72.576 L1596.14 72.576 L1596.14 65.6895 Q1593.59 69.8214 1589.78 71.8063 Q1585.97 73.7508 1580.46 73.7508 Q1573.49 73.7508 1569.36 69.8619 Q1565.27 65.9325 1565.27 59.3701 Q1565.27 51.7138 1570.38 47.825 Q1575.52 43.9361 1585.69 43.9361 L1596.14 43.9361 L1596.14 43.2069 Q1596.14 38.0623 1592.74 35.2672 Q1589.37 32.4315 1583.26 32.4315 Q1579.37 32.4315 1575.68 33.3632 Q1572 34.295 1568.59 36.1584 L1568.59 29.2718 Q1572.68 27.692 1576.53 26.9223 Q1580.38 26.1121 1584.03 26.1121 Q1593.87 26.1121 1598.73 31.2163 Q1603.59 36.3204 1603.59 46.6907 Z" fill="#000000" fill-rule="nonzero" fill-opacity="1" /><path clip-path="url(#clip820)" d="M1618.95 9.54393 L1626.4 9.54393 L1626.4 72.576 L1618.95 72.576 L1618.95 9.54393 Z" fill="#000000" fill-rule="nonzero" fill-opacity="1" /><path clip-path="url(#clip820)" d="M1668.69 12.096 L1680.88 12.096 L1696.32 53.2532 L1711.83 12.096 L1724.03 12.096 L1724.03 72.576 L1716.05 72.576 L1716.05 19.4686 L1700.45 60.9499 L1692.23 60.9499 L1676.63 19.4686 L1676.63 72.576 L1668.69 72.576 L1668.69 12.096 Z" fill="#000000" fill-rule="nonzero" fill-opacity="1" /><path clip-path="url(#clip820)" d="M1757.53 32.4315 Q1751.53 32.4315 1748.05 37.1306 Q1744.56 41.7891 1744.56 49.9314 Q1744.56 58.0738 1748.01 62.7728 Q1751.49 67.4314 1757.53 67.4314 Q1763.48 67.4314 1766.97 62.7323 Q1770.45 58.0333 1770.45 49.9314 Q1770.45 41.8701 1766.97 37.1711 Q1763.48 32.4315 1757.53 32.4315 M1757.53 26.1121 Q1767.25 26.1121 1772.8 32.4315 Q1778.35 38.7509 1778.35 49.9314 Q1778.35 61.0714 1772.8 67.4314 Q1767.25 73.7508 1757.53 73.7508 Q1747.76 73.7508 1742.21 67.4314 Q1736.71 61.0714 1736.71 49.9314 Q1736.71 38.7509 1742.21 32.4315 Q1747.76 26.1121 1757.53 26.1121 Z" fill="#000000" fill-rule="nonzero" fill-opacity="1" /><path clip-path="url(#clip820)" d="M1820.56 34.0924 L1820.56 9.54393 L1828.01 9.54393 L1828.01 72.576 L1820.56 72.576 L1820.56 65.7705 Q1818.21 69.8214 1814.6 71.8063 Q1811.04 73.7508 1806.02 73.7508 Q1797.79 73.7508 1792.61 67.1883 Q1787.46 60.6258 1787.46 49.9314 Q1787.46 39.2371 1792.61 32.6746 Q1797.79 26.1121 1806.02 26.1121 Q1811.04 26.1121 1814.6 28.0971 Q1818.21 30.0415 1820.56 34.0924 M1795.16 49.9314 Q1795.16 58.1548 1798.52 62.8538 Q1801.93 67.5124 1807.84 67.5124 Q1813.75 67.5124 1817.16 62.8538 Q1820.56 58.1548 1820.56 49.9314 Q1820.56 41.7081 1817.16 37.0496 Q1813.75 32.3505 1807.84 32.3505 Q1801.93 32.3505 1798.52 37.0496 Q1795.16 41.7081 1795.16 49.9314 Z" fill="#000000" fill-rule="nonzero" fill-opacity="1" /><path clip-path="url(#clip820)" d="M1882.17 48.0275 L1882.17 51.6733 L1847.9 51.6733 Q1848.39 59.3701 1852.52 63.421 Q1856.69 67.4314 1864.11 67.4314 Q1868.4 67.4314 1872.41 66.3781 Q1876.46 65.3249 1880.43 63.2184 L1880.43 70.267 Q1876.42 71.9684 1872.21 72.8596 Q1868 73.7508 1863.66 73.7508 Q1852.8 73.7508 1846.44 67.4314 Q1840.13 61.1119 1840.13 50.3365 Q1840.13 39.1965 1846.12 32.6746 Q1852.16 26.1121 1862.36 26.1121 Q1871.52 26.1121 1876.83 32.0264 Q1882.17 37.9003 1882.17 48.0275 M1874.72 45.84 Q1874.64 39.7232 1871.28 36.0774 Q1867.96 32.4315 1862.45 32.4315 Q1856.21 32.4315 1852.44 35.9558 Q1848.71 39.4801 1848.15 45.8805 L1874.72 45.84 Z" fill="#000000" fill-rule="nonzero" fill-opacity="1" /><path clip-path="url(#clip820)" d="M1894.41 9.54393 L1901.86 9.54393 L1901.86 72.576 L1894.41 72.576 L1894.41 9.54393 Z" fill="#000000" fill-rule="nonzero" fill-opacity="1" /><polyline clip-path="url(#clip821)" style="stroke:#009af9; stroke-linecap:round; stroke-linejoin:round; stroke-width:4; stroke-opacity:1; fill:none" points="748.06,1447.87 748.06,1408.11 773.776,1408.11 773.776,1249.03 799.492,1249.03 799.492,1302.06 825.208,1302.06 825.208,1235.78 850.925,1235.78 850.925,1196.01 876.641,1196.01 876.641,1142.99 902.357,1142.99 902.357,1116.47 928.074,1116.47 928.074,904.38 953.79,904.38 953.79,1050.19 979.506,1050.19 979.506,771.82 1005.22,771.82 1005.22,904.38 1030.94,904.38 1030.94,957.403 1056.66,957.403 1056.66,1063.45 1082.37,1063.45 1082.37,917.635 1108.09,917.635 1108.09,1142.99 1133.8,1142.99 1133.8,1129.73 1159.52,1129.73 1159.52,1196.01 1185.24,1196.01 1185.24,1249.03 1210.95,1249.03 1210.95,1315.31 1236.67,1315.31 1236.67,1408.11 1262.39,1408.11 1288.1,1408.11 1288.1,1434.62 1313.82,1434.62 1339.53,1434.62 1339.53,1408.11 1365.25,1408.11 1365.25,1434.62 1390.97,1434.62 1416.68,1434.62 1416.68,1421.36 1442.4,1421.36 1442.4,1394.85 1468.12,1394.85 1468.12,1368.34 1493.83,1368.34 1493.83,1275.55 1519.55,1275.55 1519.55,1262.29 1545.26,1262.29 1545.26,1222.52 1570.98,1222.52 1570.98,1262.29 1596.7,1262.29 1596.7,1023.68 1622.41,1023.68 1622.41,970.659 1648.13,970.659 1648.13,824.844 1673.85,824.844 1673.85,453.678 1699.56,453.678 1699.56,572.981 1725.28,572.981 1725.28,586.237 1750.99,586.237 1750.99,427.166 1776.71,427.166 1776.71,162.047 1802.43,162.047 1802.43,480.189 1828.14,480.189 1828.14,427.166 1853.86,427.166 1853.86,652.517 1879.58,652.517 1879.58,692.285 1905.29,692.285 1905.29,718.796 1931.01,718.796 1931.01,1063.45 1956.73,1063.45 1956.73,1076.71 1982.44,1076.71 1982.44,1182.75 2008.16,1182.75 2008.16,1235.78 2033.87,1235.78 2033.87,1368.34 2059.59,1368.34 2085.31,1368.34 2085.31,1421.36 2111.02,1421.36 2136.74,1421.36 2162.46,1421.36 2162.46,1447.87 2188.17,1447.87 2213.89,1447.87 2239.6,1447.87 2265.32,1447.87 2291.04,1447.87 "/>
<polyline clip-path="url(#clip821)" style="stroke:#e26f46; stroke-linecap:round; stroke-linejoin:round; stroke-width:4; stroke-opacity:1; fill:none" points="233.734,1447.87 236.306,1447.87 238.877,1447.87 241.449,1447.87 244.02,1447.87 246.592,1447.87 249.164,1447.87 251.735,1447.87 254.307,1447.87 256.879,1447.87 259.45,1447.87 262.022,1447.87 264.593,1447.87 267.165,1447.87 269.737,1447.87 272.308,1447.87 274.88,1447.87 277.452,1447.87 280.023,1447.87 282.595,1447.87 285.166,1447.87 287.738,1447.87 290.31,1447.87 292.881,1447.87 295.453,1447.87 298.025,1447.87 300.596,1447.87 303.168,1447.87 305.74,1447.87 308.311,1447.87 310.883,1447.87 313.454,1447.87 316.026,1447.87 318.598,1447.87 321.169,1447.87 323.741,1447.87 326.313,1447.87 328.884,1447.87 331.456,1447.87 334.027,1447.87 336.599,1447.87 339.171,1447.87 341.742,1447.87 344.314,1447.87 346.886,1447.87 349.457,1447.87 352.029,1447.87 354.6,1447.87 357.172,1447.87 359.744,1447.87 362.315,1447.87 364.887,1447.87 367.459,1447.87 370.03,1447.87 372.602,1447.87 375.173,1447.87 377.745,1447.87 380.317,1447.87 382.888,1447.87 385.46,1447.87 388.032,1447.87 390.603,1447.87 393.175,1447.87 395.747,1447.87 398.318,1447.87 400.89,1447.86 403.461,1447.86 406.033,1447.86 408.605,1447.86 411.176,1447.86 413.748,1447.86 416.32,1447.86 418.891,1447.86 421.463,1447.86 424.034,1447.85 426.606,1447.85 429.178,1447.85 431.749,1447.85 434.321,1447.85 436.893,1447.84 439.464,1447.84 442.036,1447.84 444.607,1447.83 447.179,1447.83 449.751,1447.83 452.322,1447.82 454.894,1447.82 457.466,1447.81 460.037,1447.81 462.609,1447.8 465.18,1447.79 467.752,1447.79 470.324,1447.78 472.895,1447.77 475.467,1447.76 478.039,1447.75 480.61,1447.74 483.182,1447.73 485.754,1447.72 488.325,1447.71 490.897,1447.7 493.468,1447.68 496.04,1447.67 498.612,1447.65 501.183,1447.63 503.755,1447.61 506.327,1447.59 508.898,1447.57 511.47,1447.54 514.041,1447.51 516.613,1447.49 519.185,1447.46 521.756,1447.42 524.328,1447.39 526.9,1447.35 529.471,1447.31 532.043,1447.27 534.614,1447.22 537.186,1447.17 539.758,1447.12 542.329,1447.06 544.901,1447 547.473,1446.94 550.044,1446.87 552.616,1446.79 555.187,1446.72 557.759,1446.63 560.331,1446.54 562.902,1446.45 565.474,1446.35 568.046,1446.24 570.617,1446.13 573.189,1446 575.761,1445.87 578.332,1445.74 580.904,1445.59 583.475,1445.43 586.047,1445.27 588.619,1445.09 591.19,1444.91 593.762,1444.71 596.334,1444.5 598.905,1444.28 601.477,1444.05 604.048,1443.8 606.62,1443.54 609.192,1443.27 611.763,1442.97 614.335,1442.67 616.907,1442.34 619.478,1442 622.05,1441.64 624.621,1441.25 627.193,1440.85 629.765,1440.43 632.336,1439.98 634.908,1439.51 637.48,1439.02 640.051,1438.5 642.623,1437.95 645.194,1437.38 647.766,1436.78 650.338,1436.15 652.909,1435.48 655.481,1434.79 658.053,1434.06 660.624,1433.3 663.196,1432.5 665.768,1431.66 668.339,1430.78 670.911,1429.87 673.482,1428.91 676.054,1427.91 678.626,1426.87 681.197,1425.78 683.769,1424.64 686.341,1423.45 688.912,1422.21 691.484,1420.93 694.055,1419.58 696.627,1418.19 699.199,1416.73 701.77,1415.22 704.342,1413.65 706.914,1412.02 709.485,1410.32 712.057,1408.56 714.628,1406.74 717.2,1404.84 719.772,1402.88 722.343,1400.85 724.915,1398.74 727.487,1396.56 730.058,1394.31 732.63,1391.98 735.201,1389.57 737.773,1387.08 740.345,1384.51 742.916,1381.86 745.488,1379.12 748.06,1376.3 750.631,1373.4 753.203,1370.4 755.775,1367.32 758.346,1364.15 760.918,1360.89 763.489,1357.54 766.061,1354.1 768.633,1350.57 771.204,1346.94 773.776,1343.22 776.348,1339.4 778.919,1335.49 781.491,1331.49 784.062,1327.39 786.634,1323.2 789.206,1318.92 791.777,1314.54 794.349,1310.06 796.921,1305.5 799.492,1300.84 802.064,1296.09 804.635,1291.24 807.207,1286.31 809.779,1281.29 812.35,1276.19 814.922,1270.99 817.494,1265.71 820.065,1260.35 822.637,1254.91 825.208,1249.4 827.78,1243.8 830.352,1238.13 832.923,1232.39 835.495,1226.58 838.067,1220.71 840.638,1214.77 843.21,1208.77 845.782,1202.72 848.353,1196.62 850.925,1190.46 853.496,1184.26 856.068,1178.02 858.64,1171.74 861.211,1165.43 863.783,1159.09 866.355,1152.72 868.926,1146.34 871.498,1139.94 874.069,1133.53 876.641,1127.12 879.213,1120.7 881.784,1114.29 884.356,1107.9 886.928,1101.51 889.499,1095.15 892.071,1088.82 894.642,1082.52 897.214,1076.25 899.786,1070.03 902.357,1063.86 904.929,1057.74 907.501,1051.69 910.072,1045.7 912.644,1039.79 915.215,1033.95 917.787,1028.2 920.359,1022.54 922.93,1016.97 925.502,1011.51 928.074,1006.15 930.645,1000.91 933.217,995.785 935.789,990.784 938.36,985.914 940.932,981.177 943.503,976.581 946.075,972.13 948.647,967.829 951.218,963.683 953.79,959.696 956.362,955.874 958.933,952.219 961.505,948.738 964.076,945.432 966.648,942.308 969.22,939.367 971.791,936.614 974.363,934.051 976.935,931.682 979.506,929.509 982.078,927.536 984.649,925.764 987.221,924.195 989.793,922.832 992.364,921.675 994.936,920.727 997.508,919.989 1000.08,919.46 1002.65,919.143 1005.22,919.038 1007.79,919.143 1010.37,919.46 1012.94,919.989 1015.51,920.727 1018.08,921.675 1020.65,922.832 1023.22,924.195 1025.8,925.764 1028.37,927.536 1030.94,929.509 1033.51,931.682 1036.08,934.051 1038.65,936.613 1041.23,939.367 1043.8,942.308 1046.37,945.432 1048.94,948.738 1051.51,952.219 1054.08,955.874 1056.66,959.696 1059.23,963.683 1061.8,967.829 1064.37,972.13 1066.94,976.581 1069.51,981.177 1072.08,985.913 1074.66,990.784 1077.23,995.784 1079.8,1000.91 1082.37,1006.15 1084.94,1011.51 1087.51,1016.97 1090.09,1022.54 1092.66,1028.2 1095.23,1033.95 1097.8,1039.79 1100.37,1045.7 1102.94,1051.69 1105.52,1057.74 1108.09,1063.86 1110.66,1070.03 1113.23,1076.25 1115.8,1082.51 1118.37,1088.82 1120.95,1095.15 1123.52,1101.51 1126.09,1107.89 1128.66,1114.29 1131.23,1120.7 1133.8,1127.11 1136.38,1133.53 1138.95,1139.94 1141.52,1146.34 1144.09,1152.72 1146.66,1159.08 1149.23,1165.42 1151.81,1171.73 1154.38,1178.01 1156.95,1184.25 1159.52,1190.45 1162.09,1196.6 1164.66,1202.71 1167.24,1208.76 1169.81,1214.76 1172.38,1220.69 1174.95,1226.56 1177.52,1232.37 1180.09,1238.11 1182.66,1243.78 1185.24,1249.37 1187.81,1254.88 1190.38,1260.32 1192.95,1265.68 1195.52,1270.95 1198.09,1276.14 1200.67,1281.25 1203.24,1286.26 1205.81,1291.19 1208.38,1296.03 1210.95,1300.77 1213.52,1305.42 1216.1,1309.98 1218.67,1314.45 1221.24,1318.82 1223.81,1323.1 1226.38,1327.28 1228.95,1331.37 1231.53,1335.36 1234.1,1339.26 1236.67,1343.06 1239.24,1346.77 1241.81,1350.38 1244.38,1353.9 1246.96,1357.32 1249.53,1360.66 1252.1,1363.9 1254.67,1367.04 1257.24,1370.1 1259.81,1373.07 1262.39,1375.95 1264.96,1378.74 1267.53,1381.44 1270.1,1384.06 1272.67,1386.59 1275.24,1389.04 1277.82,1391.41 1280.39,1393.69 1282.96,1395.9 1285.53,1398.03 1288.1,1400.07 1290.67,1402.05 1293.24,1403.94 1295.82,1405.77 1298.39,1407.52 1300.96,1409.2 1303.53,1410.81 1306.1,1412.35 1308.67,1413.82 1311.25,1415.22 1313.82,1416.56 1316.39,1417.84 1318.96,1419.05 1321.53,1420.2 1324.1,1421.29 1326.68,1422.32 1329.25,1423.29 1331.82,1424.21 1334.39,1425.06 1336.96,1425.86 1339.53,1426.6 1342.11,1427.29 1344.68,1427.92 1347.25,1428.5 1349.82,1429.02 1352.39,1429.49 1354.96,1429.91 1357.54,1430.28 1360.11,1430.59 1362.68,1430.85 1365.25,1431.06 1367.82,1431.22 1370.39,1431.32 1372.97,1431.37 1375.54,1431.37 1378.11,1431.32 1380.68,1431.22 1383.25,1431.06 1385.82,1430.84 1388.4,1430.57 1390.97,1430.25 1393.54,1429.87 1396.11,1429.43 1398.68,1428.93 1401.25,1428.38 1403.82,1427.76 1406.4,1427.08 1408.97,1426.34 1411.54,1425.54 1414.11,1424.67 1416.68,1423.73 1419.25,1422.72 1421.83,1421.64 1424.4,1420.49 1426.97,1419.26 1429.54,1417.96 1432.11,1416.58 1434.68,1415.12 1437.26,1413.58 1439.83,1411.95 1442.4,1410.23 1444.97,1408.42 1447.54,1406.52 1450.11,1404.53 1452.69,1402.44 1455.26,1400.25 1457.83,1397.95 1460.4,1395.55 1462.97,1393.04 1465.54,1390.42 1468.12,1387.69 1470.69,1384.84 1473.26,1381.87 1475.83,1378.78 1478.4,1375.56 1480.97,1372.21 1483.55,1368.73 1486.12,1365.12 1488.69,1361.36 1491.26,1357.47 1493.83,1353.44 1496.4,1349.25 1498.98,1344.92 1501.55,1340.44 1504.12,1335.8 1506.69,1331 1509.26,1326.04 1511.83,1320.92 1514.4,1315.64 1516.98,1310.18 1519.55,1304.56 1522.12,1298.76 1524.69,1292.78 1527.26,1286.63 1529.83,1280.3 1532.41,1273.79 1534.98,1267.1 1537.55,1260.23 1540.12,1253.17 1542.69,1245.92 1545.26,1238.48 1547.84,1230.86 1550.41,1223.05 1552.98,1215.05 1555.55,1206.86 1558.12,1198.48 1560.69,1189.91 1563.27,1181.16 1565.84,1172.21 1568.41,1163.08 1570.98,1153.77 1573.55,1144.27 1576.12,1134.59 1578.7,1124.73 1581.27,1114.69 1583.84,1104.48 1586.41,1094.09 1588.98,1083.54 1591.55,1072.82 1594.13,1061.94 1596.7,1050.9 1599.27,1039.71 1601.84,1028.38 1604.41,1016.9 1606.98,1005.28 1609.56,993.534 1612.13,981.661 1614.7,969.668 1617.27,957.563 1619.84,945.353 1622.41,933.044 1624.99,920.645 1627.56,908.163 1630.13,895.606 1632.7,882.983 1635.27,870.303 1637.84,857.574 1640.41,844.806 1642.99,832.008 1645.56,819.19 1648.13,806.361 1650.7,793.533 1653.27,780.715 1655.84,767.918 1658.42,755.153 1660.99,742.43 1663.56,729.761 1666.13,717.156 1668.7,704.628 1671.27,692.187 1673.85,679.846 1676.42,667.614 1678.99,655.506 1681.56,643.531 1684.13,631.701 1686.7,620.029 1689.28,608.525 1691.85,597.202 1694.42,586.072 1696.99,575.144 1699.56,564.432 1702.13,553.945 1704.71,543.696 1707.28,533.696 1709.85,523.954 1712.42,514.482 1714.99,505.289 1717.56,496.387 1720.14,487.785 1722.71,479.493 1725.28,471.52 1727.85,463.874 1730.42,456.566 1732.99,449.602 1735.57,442.992 1738.14,436.742 1740.71,430.861 1743.28,425.354 1745.85,420.229 1748.42,415.49 1750.99,411.145 1753.57,407.198 1756.14,403.654 1758.71,400.517 1761.28,397.79 1763.85,395.477 1766.42,393.581 1769,392.104 1771.57,391.048 1774.14,390.414 1776.71,390.202 1779.28,390.414 1781.85,391.048 1784.43,392.104 1787,393.581 1789.57,395.477 1792.14,397.79 1794.71,400.517 1797.28,403.654 1799.86,407.198 1802.43,411.145 1805,415.491 1807.57,420.229 1810.14,425.354 1812.71,430.861 1815.29,436.742 1817.86,442.992 1820.43,449.602 1823,456.566 1825.57,463.874 1828.14,471.52 1830.72,479.493 1833.29,487.785 1835.86,496.387 1838.43,505.29 1841,514.482 1843.57,523.954 1846.15,533.696 1848.72,543.697 1851.29,553.946 1853.86,564.432 1856.43,575.145 1859,586.072 1861.57,597.203 1864.15,608.526 1866.72,620.029 1869.29,631.702 1871.86,643.531 1874.43,655.506 1877,667.615 1879.58,679.846 1882.15,692.188 1884.72,704.629 1887.29,717.157 1889.86,729.762 1892.43,742.431 1895.01,755.154 1897.58,767.919 1900.15,780.717 1902.72,793.535 1905.29,806.363 1907.86,819.192 1910.44,832.01 1913.01,844.808 1915.58,857.577 1918.15,870.306 1920.72,882.987 1923.29,895.61 1925.87,908.167 1928.44,920.65 1931.01,933.049 1933.58,945.359 1936.15,957.57 1938.72,969.675 1941.3,981.668 1943.87,993.543 1946.44,1005.29 1949.01,1016.91 1951.58,1028.39 1954.15,1039.73 1956.73,1050.92 1959.3,1061.96 1961.87,1072.84 1964.44,1083.56 1967.01,1094.11 1969.58,1104.5 1972.15,1114.71 1974.73,1124.75 1977.3,1134.62 1979.87,1144.3 1982.44,1153.8 1985.01,1163.12 1987.58,1172.25 1990.16,1181.2 1992.73,1189.96 1995.3,1198.53 1997.87,1206.91 2000.44,1215.11 2003.01,1223.12 2005.59,1230.93 2008.16,1238.56 2010.73,1246 2013.3,1253.26 2015.87,1260.33 2018.44,1267.21 2021.02,1273.91 2023.59,1280.43 2026.16,1286.77 2028.73,1292.94 2031.3,1298.92 2033.87,1304.73 2036.45,1310.37 2039.02,1315.84 2041.59,1321.15 2044.16,1326.29 2046.73,1331.26 2049.3,1336.08 2051.88,1340.75 2054.45,1345.25 2057.02,1349.61 2059.59,1353.82 2062.16,1357.89 2064.73,1361.81 2067.31,1365.6 2069.88,1369.25 2072.45,1372.77 2075.02,1376.16 2077.59,1379.43 2080.16,1382.57 2082.73,1385.59 2085.31,1388.5 2087.88,1391.29 2090.45,1393.98 2093.02,1396.56 2095.59,1399.03 2098.16,1401.4 2100.74,1403.68 2103.31,1405.86 2105.88,1407.95 2108.45,1409.95 2111.02,1411.86 2113.59,1413.69 2116.17,1415.45 2118.74,1417.12 2121.31,1418.72 2123.88,1420.25 2126.45,1421.7 2129.02,1423.09 2131.6,1424.42 2134.17,1425.68 2136.74,1426.89 2139.31,1428.03 2141.88,1429.13 2144.45,1430.16 2147.03,1431.15 2149.6,1432.09 2152.17,1432.98 2154.74,1433.83 2157.31,1434.64 2159.88,1435.4 2162.46,1436.12 2165.03,1436.81 2167.6,1437.46 2170.17,1438.08 2172.74,1438.66 2175.31,1439.21 2177.89,1439.73 2180.46,1440.23 2183.03,1440.7 2185.6,1441.14 2188.17,1441.55 2190.74,1441.95 2193.31,1442.32 2195.89,1442.67 2198.46,1443 2201.03,1443.31 2203.6,1443.6 2206.17,1443.87 2208.74,1444.13 2211.32,1444.38 2213.89,1444.61 2216.46,1444.82 2219.03,1445.02 2221.6,1445.21 2224.17,1445.39 2226.75,1445.56 2229.32,1445.72 2231.89,1445.86 2234.46,1446 2237.03,1446.13 2239.6,1446.25 2242.18,1446.36 2244.75,1446.47 2247.32,1446.57 2249.89,1446.66 2252.46,1446.75 2255.03,1446.83 2257.61,1446.9 2260.18,1446.97 2262.75,1447.04 2265.32,1447.1 2267.89,1447.16 2270.46,1447.21 2273.04,1447.26 2275.61,1447.3 2278.18,1447.35 2280.75,1447.39 2283.32,1447.42 2285.89,1447.46 2288.47,1447.49 2291.04,1447.52 "/>
<path clip-path="url(#clip820)" d="M244.706 324.425 L579.053 324.425 L579.053 168.905 L244.706 168.905  Z" fill="#ffffff" fill-rule="evenodd" fill-opacity="1"/>
<polyline clip-path="url(#clip820)" style="stroke:#000000; stroke-linecap:round; stroke-linejoin:round; stroke-width:4; stroke-opacity:1; fill:none" points="244.706,324.425 579.053,324.425 579.053,168.905 244.706,168.905 244.706,324.425 "/>
<polyline clip-path="url(#clip820)" style="stroke:#009af9; stroke-linecap:round; stroke-linejoin:round; stroke-width:4; stroke-opacity:1; fill:none" points="268.937,220.745 414.319,220.745 "/>
<path clip-path="url(#clip820)" d="M443.226 207.307 L443.226 234.182 L448.874 234.182 Q456.027 234.182 459.337 230.941 Q462.67 227.701 462.67 220.71 Q462.67 213.766 459.337 210.548 Q456.027 207.307 448.874 207.307 L443.226 207.307 M438.55 203.465 L448.156 203.465 Q458.203 203.465 462.902 207.654 Q467.601 211.821 467.601 220.71 Q467.601 229.645 462.878 233.835 Q458.156 238.025 448.156 238.025 L438.55 238.025 L438.55 203.465 Z" fill="#000000" fill-rule="nonzero" fill-opacity="1" /><path clip-path="url(#clip820)" d="M486.651 224.992 Q481.489 224.992 479.499 226.173 Q477.508 227.353 477.508 230.201 Q477.508 232.469 478.989 233.812 Q480.494 235.131 483.063 235.131 Q486.605 235.131 488.735 232.631 Q490.888 230.108 490.888 225.941 L490.888 224.992 L486.651 224.992 M495.147 223.233 L495.147 238.025 L490.888 238.025 L490.888 234.089 Q489.429 236.451 487.253 237.585 Q485.077 238.696 481.929 238.696 Q477.948 238.696 475.587 236.474 Q473.249 234.228 473.249 230.478 Q473.249 226.103 476.165 223.881 Q479.105 221.659 484.915 221.659 L490.888 221.659 L490.888 221.242 Q490.888 218.303 488.943 216.705 Q487.022 215.085 483.526 215.085 Q481.304 215.085 479.198 215.617 Q477.091 216.15 475.147 217.215 L475.147 213.279 Q477.485 212.377 479.684 211.937 Q481.883 211.474 483.966 211.474 Q489.591 211.474 492.369 214.391 Q495.147 217.307 495.147 223.233 Z" fill="#000000" fill-rule="nonzero" fill-opacity="1" /><path clip-path="url(#clip820)" d="M508.133 204.738 L508.133 212.099 L516.906 212.099 L516.906 215.409 L508.133 215.409 L508.133 229.483 Q508.133 232.654 508.989 233.557 Q509.869 234.46 512.531 234.46 L516.906 234.46 L516.906 238.025 L512.531 238.025 Q507.6 238.025 505.725 236.196 Q503.85 234.344 503.85 229.483 L503.85 215.409 L500.725 215.409 L500.725 212.099 L503.85 212.099 L503.85 204.738 L508.133 204.738 Z" fill="#000000" fill-rule="nonzero" fill-opacity="1" /><path clip-path="url(#clip820)" d="M534.29 224.992 Q529.128 224.992 527.137 226.173 Q525.147 227.353 525.147 230.201 Q525.147 232.469 526.628 233.812 Q528.133 235.131 530.702 235.131 Q534.244 235.131 536.373 232.631 Q538.526 230.108 538.526 225.941 L538.526 224.992 L534.29 224.992 M542.785 223.233 L542.785 238.025 L538.526 238.025 L538.526 234.089 Q537.068 236.451 534.892 237.585 Q532.716 238.696 529.568 238.696 Q525.586 238.696 523.225 236.474 Q520.887 234.228 520.887 230.478 Q520.887 226.103 523.804 223.881 Q526.744 221.659 532.554 221.659 L538.526 221.659 L538.526 221.242 Q538.526 218.303 536.582 216.705 Q534.66 215.085 531.165 215.085 Q528.943 215.085 526.836 215.617 Q524.73 216.15 522.786 217.215 L522.786 213.279 Q525.123 212.377 527.323 211.937 Q529.522 211.474 531.605 211.474 Q537.23 211.474 540.008 214.391 Q542.785 217.307 542.785 223.233 Z" fill="#000000" fill-rule="nonzero" fill-opacity="1" /><polyline clip-path="url(#clip820)" style="stroke:#e26f46; stroke-linecap:round; stroke-linejoin:round; stroke-width:4; stroke-opacity:1; fill:none" points="268.937,272.585 414.319,272.585 "/>
<path clip-path="url(#clip820)" d="M438.55 255.305 L467.786 255.305 L467.786 259.24 L455.517 259.24 L455.517 289.865 L450.818 289.865 L450.818 259.24 L438.55 259.24 L438.55 255.305 Z" fill="#000000" fill-rule="nonzero" fill-opacity="1" /><path clip-path="url(#clip820)" d="M480.17 267.92 Q479.452 267.504 478.596 267.318 Q477.763 267.11 476.744 267.11 Q473.133 267.11 471.189 269.471 Q469.267 271.809 469.267 276.207 L469.267 289.865 L464.985 289.865 L464.985 263.939 L469.267 263.939 L469.267 267.967 Q470.61 265.606 472.763 264.471 Q474.915 263.314 477.994 263.314 Q478.434 263.314 478.966 263.383 Q479.499 263.43 480.147 263.545 L480.17 267.92 Z" fill="#000000" fill-rule="nonzero" fill-opacity="1" /><path clip-path="url(#clip820)" d="M484.198 279.633 L484.198 263.939 L488.457 263.939 L488.457 279.471 Q488.457 283.152 489.892 285.004 Q491.327 286.832 494.198 286.832 Q497.647 286.832 499.637 284.633 Q501.651 282.434 501.651 278.638 L501.651 263.939 L505.911 263.939 L505.911 289.865 L501.651 289.865 L501.651 285.883 Q500.1 288.244 498.04 289.402 Q496.003 290.536 493.295 290.536 Q488.827 290.536 486.513 287.758 Q484.198 284.98 484.198 279.633 M494.915 263.314 L494.915 263.314 Z" fill="#000000" fill-rule="nonzero" fill-opacity="1" /><path clip-path="url(#clip820)" d="M518.897 256.578 L518.897 263.939 L527.67 263.939 L527.67 267.249 L518.897 267.249 L518.897 281.323 Q518.897 284.494 519.753 285.397 Q520.633 286.3 523.295 286.3 L527.67 286.3 L527.67 289.865 L523.295 289.865 Q518.364 289.865 516.489 288.036 Q514.614 286.184 514.614 281.323 L514.614 267.249 L511.489 267.249 L511.489 263.939 L514.614 263.939 L514.614 256.578 L518.897 256.578 Z" fill="#000000" fill-rule="nonzero" fill-opacity="1" /><path clip-path="url(#clip820)" d="M554.822 274.217 L554.822 289.865 L550.563 289.865 L550.563 274.355 Q550.563 270.675 549.128 268.846 Q547.693 267.018 544.822 267.018 Q541.373 267.018 539.383 269.217 Q537.392 271.416 537.392 275.212 L537.392 289.865 L533.11 289.865 L533.11 253.846 L537.392 253.846 L537.392 267.967 Q538.92 265.629 540.98 264.471 Q543.063 263.314 545.771 263.314 Q550.239 263.314 552.531 266.092 Q554.822 268.846 554.822 274.217 Z" fill="#000000" fill-rule="nonzero" fill-opacity="1" /></svg>
