<?xml version="1.0" encoding="utf-8"?>
<svg xmlns="http://www.w3.org/2000/svg" xmlns:xlink="http://www.w3.org/1999/xlink" width="600" height="400" viewBox="0 0 2400 1600">
<defs>
  <clipPath id="clip790">
    <rect x="0" y="0" width="2400" height="1600"/>
  </clipPath>
</defs>
<path clip-path="url(#clip790)" d="M0 1600 L2400 1600 L2400 0 L0 0  Z" fill="#ffffff" fill-rule="evenodd" fill-opacity="1"/>
<defs>
  <clipPath id="clip791">
    <rect x="172" y="123" width="2182" height="1364"/>
  </clipPath>
</defs>
<path clip-path="url(#clip790)" d="M172.015 1486.45 L2352.76 1486.45 L2352.76 123.472 L172.015 123.472  Z" fill="#ffffff" fill-rule="evenodd" fill-opacity="1"/>
<polyline clip-path="url(#clip791)" style="stroke:#000000; stroke-linecap:round; stroke-linejoin:round; stroke-width:2; stroke-opacity:0.1; fill:none" points="233.734,1486.45 233.734,123.472 "/>
<polyline clip-path="url(#clip791)" style="stroke:#000000; stroke-linecap:round; stroke-linejoin:round; stroke-width:2; stroke-opacity:0.1; fill:none" points="576.618,1486.45 576.618,123.472 "/>
<polyline clip-path="url(#clip791)" style="stroke:#000000; stroke-linecap:round; stroke-linejoin:round; stroke-width:2; stroke-opacity:0.1; fill:none" points="919.502,1486.45 919.502,123.472 "/>
<polyline clip-path="url(#clip791)" style="stroke:#000000; stroke-linecap:round; stroke-linejoin:round; stroke-width:2; stroke-opacity:0.1; fill:none" points="1262.39,1486.45 1262.39,123.472 "/>
<polyline clip-path="url(#clip791)" style="stroke:#000000; stroke-linecap:round; stroke-linejoin:round; stroke-width:2; stroke-opacity:0.1; fill:none" points="1605.27,1486.45 1605.27,123.472 "/>
<polyline clip-path="url(#clip791)" style="stroke:#000000; stroke-linecap:round; stroke-linejoin:round; stroke-width:2; stroke-opacity:0.1; fill:none" points="1948.15,1486.45 1948.15,123.472 "/>
<polyline clip-path="url(#clip791)" style="stroke:#000000; stroke-linecap:round; stroke-linejoin:round; stroke-width:2; stroke-opacity:0.1; fill:none" points="2291.04,1486.45 2291.04,123.472 "/>
<polyline clip-path="url(#clip791)" style="stroke:#000000; stroke-linecap:round; stroke-linejoin:round; stroke-width:2; stroke-opacity:0.1; fill:none" points="172.015,1447.87 2352.76,1447.87 "/>
<polyline clip-path="url(#clip791)" style="stroke:#000000; stroke-linecap:round; stroke-linejoin:round; stroke-width:2; stroke-opacity:0.1; fill:none" points="172.015,1182.75 2352.76,1182.75 "/>
<polyline clip-path="url(#clip791)" style="stroke:#000000; stroke-linecap:round; stroke-linejoin:round; stroke-width:2; stroke-opacity:0.1; fill:none" points="172.015,917.635 2352.76,917.635 "/>
<polyline clip-path="url(#clip791)" style="stroke:#000000; stroke-linecap:round; stroke-linejoin:round; stroke-width:2; stroke-opacity:0.1; fill:none" points="172.015,652.517 2352.76,652.517 "/>
<polyline clip-path="url(#clip791)" style="stroke:#000000; stroke-linecap:round; stroke-linejoin:round; stroke-width:2; stroke-opacity:0.1; fill:none" points="172.015,387.398 2352.76,387.398 "/>
<polyline clip-path="url(#clip790)" style="stroke:#000000; stroke-linecap:round; stroke-linejoin:round; stroke-width:4; stroke-opacity:1; fill:none" points="172.015,1486.45 2352.76,1486.45 "/>
<polyline clip-path="url(#clip790)" style="stroke:#000000; stroke-linecap:round; stroke-linejoin:round; stroke-width:4; stroke-opacity:1; fill:none" points="233.734,1486.45 233.734,1467.55 "/>
<polyline clip-path="url(#clip790)" style="stroke:#000000; stroke-linecap:round; stroke-linejoin:round; stroke-width:4; stroke-opacity:1; fill:none" points="576.618,1486.45 576.618,1467.55 "/>
<polyline clip-path="url(#clip790)" style="stroke:#000000; stroke-linecap:round; stroke-linejoin:round; stroke-width:4; stroke-opacity:1; fill:none" points="919.502,1486.45 919.502,1467.55 "/>
<polyline clip-path="url(#clip790)" style="stroke:#000000; stroke-linecap:round; stroke-linejoin:round; stroke-width:4; stroke-opacity:1; fill:none" points="1262.39,1486.45 1262.39,1467.55 "/>
<polyline clip-path="url(#clip790)" style="stroke:#000000; stroke-linecap:round; stroke-linejoin:round; stroke-width:4; stroke-opacity:1; fill:none" points="1605.27,1486.45 1605.27,1467.55 "/>
<polyline clip-path="url(#clip790)" style="stroke:#000000; stroke-linecap:round; stroke-linejoin:round; stroke-width:4; stroke-opacity:1; fill:none" points="1948.15,1486.45 1948.15,1467.55 "/>
<polyline clip-path="url(#clip790)" style="stroke:#000000; stroke-linecap:round; stroke-linejoin:round; stroke-width:4; stroke-opacity:1; fill:none" points="2291.04,1486.45 2291.04,1467.55 "/>
<path clip-path="url(#clip790)" d="M203.676 1532.02 L233.352 1532.02 L233.352 1535.95 L203.676 1535.95 L203.676 1532.02 Z" fill="#000000" fill-rule="nonzero" fill-opacity="1" /><path clip-path="url(#clip790)" d="M247.472 1544.91 L263.792 1544.91 L263.792 1548.85 L241.847 1548.85 L241.847 1544.91 Q244.509 1542.16 249.093 1537.53 Q253.699 1532.88 254.88 1531.53 Q257.125 1529.01 258.005 1527.27 Q258.907 1525.51 258.907 1523.82 Q258.907 1521.07 256.963 1519.33 Q255.042 1517.6 251.94 1517.6 Q249.741 1517.6 247.287 1518.36 Q244.857 1519.13 242.079 1520.68 L242.079 1515.95 Q244.903 1514.82 247.357 1514.24 Q249.81 1513.66 251.847 1513.66 Q257.218 1513.66 260.412 1516.35 Q263.606 1519.03 263.606 1523.52 Q263.606 1525.65 262.796 1527.57 Q262.009 1529.47 259.903 1532.07 Q259.324 1532.74 256.222 1535.95 Q253.12 1539.15 247.472 1544.91 Z" fill="#000000" fill-rule="nonzero" fill-opacity="1" /><path clip-path="url(#clip790)" d="M546.375 1532.02 L576.051 1532.02 L576.051 1535.95 L546.375 1535.95 L546.375 1532.02 Z" fill="#000000" fill-rule="nonzero" fill-opacity="1" /><path clip-path="url(#clip790)" d="M586.953 1544.91 L594.592 1544.91 L594.592 1518.55 L586.282 1520.21 L586.282 1515.95 L594.546 1514.29 L599.222 1514.29 L599.222 1544.91 L606.861 1544.91 L606.861 1548.85 L586.953 1548.85 L586.953 1544.91 Z" fill="#000000" fill-rule="nonzero" fill-opacity="1" /><path clip-path="url(#clip790)" d="M919.502 1517.37 Q915.89 1517.37 914.062 1520.93 Q912.256 1524.47 912.256 1531.6 Q912.256 1538.71 914.062 1542.27 Q915.89 1545.82 919.502 1545.82 Q923.136 1545.82 924.941 1542.27 Q926.77 1538.71 926.77 1531.6 Q926.77 1524.47 924.941 1520.93 Q923.136 1517.37 919.502 1517.37 M919.502 1513.66 Q925.312 1513.66 928.367 1518.27 Q931.446 1522.85 931.446 1531.6 Q931.446 1540.33 928.367 1544.94 Q925.312 1549.52 919.502 1549.52 Q913.691 1549.52 910.613 1544.94 Q907.557 1540.33 907.557 1531.6 Q907.557 1522.85 910.613 1518.27 Q913.691 1513.66 919.502 1513.66 Z" fill="#000000" fill-rule="nonzero" fill-opacity="1" /><path clip-path="url(#clip790)" d="M1252.77 1544.91 L1260.41 1544.91 L1260.41 1518.55 L1252.1 1520.21 L1252.1 1515.95 L1260.36 1514.29 L1265.04 1514.29 L1265.04 1544.91 L1272.67 1544.91 L1272.67 1548.85 L1252.77 1548.85 L1252.77 1544.91 Z" fill="#000000" fill-rule="nonzero" fill-opacity="1" /><path clip-path="url(#clip790)" d="M1599.92 1544.91 L1616.24 1544.91 L1616.24 1548.85 L1594.3 1548.85 L1594.3 1544.91 Q1596.96 1542.16 1601.54 1537.53 Q1606.15 1532.88 1607.33 1531.53 Q1609.57 1529.01 1610.45 1527.27 Q1611.36 1525.51 1611.36 1523.82 Q1611.36 1521.07 1609.41 1519.33 Q1607.49 1517.6 1604.39 1517.6 Q1602.19 1517.6 1599.74 1518.36 Q1597.31 1519.13 1594.53 1520.68 L1594.53 1515.95 Q1597.35 1514.82 1599.81 1514.24 Q1602.26 1513.66 1604.3 1513.66 Q1609.67 1513.66 1612.86 1516.35 Q1616.06 1519.03 1616.06 1523.52 Q1616.06 1525.65 1615.25 1527.57 Q1614.46 1529.47 1612.35 1532.07 Q1611.77 1532.74 1608.67 1535.95 Q1605.57 1539.15 1599.92 1544.91 Z" fill="#000000" fill-rule="nonzero" fill-opacity="1" /><path clip-path="url(#clip790)" d="M1952.4 1530.21 Q1955.76 1530.93 1957.63 1533.2 Q1959.53 1535.47 1959.53 1538.8 Q1959.53 1543.92 1956.01 1546.72 Q1952.49 1549.52 1946.01 1549.52 Q1943.84 1549.52 1941.52 1549.08 Q1939.23 1548.66 1936.78 1547.81 L1936.78 1543.29 Q1938.72 1544.43 1941.03 1545.01 Q1943.35 1545.58 1945.87 1545.58 Q1950.27 1545.58 1952.56 1543.85 Q1954.88 1542.11 1954.88 1538.8 Q1954.88 1535.75 1952.72 1534.03 Q1950.6 1532.3 1946.78 1532.3 L1942.75 1532.3 L1942.75 1528.45 L1946.96 1528.45 Q1950.41 1528.45 1952.24 1527.09 Q1954.07 1525.7 1954.07 1523.11 Q1954.07 1520.45 1952.17 1519.03 Q1950.29 1517.6 1946.78 1517.6 Q1944.85 1517.6 1942.66 1518.01 Q1940.46 1518.43 1937.82 1519.31 L1937.82 1515.14 Q1940.48 1514.4 1942.79 1514.03 Q1945.13 1513.66 1947.19 1513.66 Q1952.52 1513.66 1955.62 1516.09 Q1958.72 1518.5 1958.72 1522.62 Q1958.72 1525.49 1957.08 1527.48 Q1955.43 1529.45 1952.4 1530.21 Z" fill="#000000" fill-rule="nonzero" fill-opacity="1" /><path clip-path="url(#clip790)" d="M2294.05 1518.36 L2282.24 1536.81 L2294.05 1536.81 L2294.05 1518.36 M2292.82 1514.29 L2298.7 1514.29 L2298.7 1536.81 L2303.63 1536.81 L2303.63 1540.7 L2298.7 1540.7 L2298.7 1548.85 L2294.05 1548.85 L2294.05 1540.7 L2278.44 1540.7 L2278.44 1536.19 L2292.82 1514.29 Z" fill="#000000" fill-rule="nonzero" fill-opacity="1" /><polyline clip-path="url(#clip790)" style="stroke:#000000; stroke-linecap:round; stroke-linejoin:round; stroke-width:4; stroke-opacity:1; fill:none" points="172.015,1486.45 172.015,123.472 "/>
<polyline clip-path="url(#clip790)" style="stroke:#000000; stroke-linecap:round; stroke-linejoin:round; stroke-width:4; stroke-opacity:1; fill:none" points="172.015,1447.87 190.912,1447.87 "/>
<polyline clip-path="url(#clip790)" style="stroke:#000000; stroke-linecap:round; stroke-linejoin:round; stroke-width:4; stroke-opacity:1; fill:none" points="172.015,1182.75 190.912,1182.75 "/>
<polyline clip-path="url(#clip790)" style="stroke:#000000; stroke-linecap:round; stroke-linejoin:round; stroke-width:4; stroke-opacity:1; fill:none" points="172.015,917.635 190.912,917.635 "/>
<polyline clip-path="url(#clip790)" style="stroke:#000000; stroke-linecap:round; stroke-linejoin:round; stroke-width:4; stroke-opacity:1; fill:none" points="172.015,652.517 190.912,652.517 "/>
<polyline clip-path="url(#clip790)" style="stroke:#000000; stroke-linecap:round; stroke-linejoin:round; stroke-width:4; stroke-opacity:1; fill:none" points="172.015,387.398 190.912,387.398 "/>
<path clip-path="url(#clip790)" d="M124.07 1433.67 Q120.459 1433.67 118.631 1437.24 Q116.825 1440.78 116.825 1447.91 Q116.825 1455.01 118.631 1458.58 Q120.459 1462.12 124.07 1462.12 Q127.705 1462.12 129.51 1458.58 Q131.339 1455.01 131.339 1447.91 Q131.339 1440.78 129.51 1437.24 Q127.705 1433.67 124.07 1433.67 M124.07 1429.97 Q129.881 1429.97 132.936 1434.57 Q136.015 1439.16 136.015 1447.91 Q136.015 1456.63 132.936 1461.24 Q129.881 1465.82 124.07 1465.82 Q118.26 1465.82 115.182 1461.24 Q112.126 1456.63 112.126 1447.91 Q112.126 1439.16 115.182 1434.57 Q118.26 1429.97 124.07 1429.97 Z" fill="#000000" fill-rule="nonzero" fill-opacity="1" /><path clip-path="url(#clip790)" d="M57.7745 1196.1 L74.0939 1196.1 L74.0939 1200.03 L52.1495 1200.03 L52.1495 1196.1 Q54.8115 1193.34 59.3949 1188.71 Q64.0013 1184.06 65.1819 1182.72 Q67.4272 1180.2 68.3068 1178.46 Q69.2096 1176.7 69.2096 1175.01 Q69.2096 1172.26 67.2652 1170.52 Q65.3439 1168.78 62.2421 1168.78 Q60.043 1168.78 57.5893 1169.55 Q55.1588 1170.31 52.381 1171.86 L52.381 1167.14 Q55.2051 1166.01 57.6588 1165.43 Q60.1124 1164.85 62.1495 1164.85 Q67.5198 1164.85 70.7142 1167.53 Q73.9087 1170.22 73.9087 1174.71 Q73.9087 1176.84 73.0985 1178.76 Q72.3115 1180.66 70.205 1183.25 Q69.6263 1183.92 66.5245 1187.14 Q63.4226 1190.34 57.7745 1196.1 Z" fill="#000000" fill-rule="nonzero" fill-opacity="1" /><path clip-path="url(#clip790)" d="M93.9086 1168.55 Q90.2975 1168.55 88.4688 1172.12 Q86.6632 1175.66 86.6632 1182.79 Q86.6632 1189.9 88.4688 1193.46 Q90.2975 1197 93.9086 1197 Q97.5428 1197 99.3483 1193.46 Q101.177 1189.9 101.177 1182.79 Q101.177 1175.66 99.3483 1172.12 Q97.5428 1168.55 93.9086 1168.55 M93.9086 1164.85 Q99.7187 1164.85 102.774 1169.46 Q105.853 1174.04 105.853 1182.79 Q105.853 1191.52 102.774 1196.12 Q99.7187 1200.71 93.9086 1200.71 Q88.0984 1200.71 85.0197 1196.12 Q81.9642 1191.52 81.9642 1182.79 Q81.9642 1174.04 85.0197 1169.46 Q88.0984 1164.85 93.9086 1164.85 Z" fill="#000000" fill-rule="nonzero" fill-opacity="1" /><path clip-path="url(#clip790)" d="M124.07 1168.55 Q120.459 1168.55 118.631 1172.12 Q116.825 1175.66 116.825 1182.79 Q116.825 1189.9 118.631 1193.46 Q120.459 1197 124.07 1197 Q127.705 1197 129.51 1193.46 Q131.339 1189.9 131.339 1182.79 Q131.339 1175.66 129.51 1172.12 Q127.705 1168.55 124.07 1168.55 M124.07 1164.85 Q129.881 1164.85 132.936 1169.46 Q136.015 1174.04 136.015 1182.79 Q136.015 1191.52 132.936 1196.12 Q129.881 1200.71 124.07 1200.71 Q118.26 1200.71 115.182 1196.12 Q112.126 1191.52 112.126 1182.79 Q112.126 1174.04 115.182 1169.46 Q118.26 1164.85 124.07 1164.85 Z" fill="#000000" fill-rule="nonzero" fill-opacity="1" /><path clip-path="url(#clip790)" d="M66.5939 904.43 L54.7884 922.879 L66.5939 922.879 L66.5939 904.43 M65.367 900.355 L71.2466 900.355 L71.2466 922.879 L76.1772 922.879 L76.1772 926.767 L71.2466 926.767 L71.2466 934.915 L66.5939 934.915 L66.5939 926.767 L50.9921 926.767 L50.9921 922.254 L65.367 900.355 Z" fill="#000000" fill-rule="nonzero" fill-opacity="1" /><path clip-path="url(#clip790)" d="M93.9086 903.434 Q90.2975 903.434 88.4688 906.999 Q86.6632 910.541 86.6632 917.67 Q86.6632 924.777 88.4688 928.341 Q90.2975 931.883 93.9086 931.883 Q97.5428 931.883 99.3483 928.341 Q101.177 924.777 101.177 917.67 Q101.177 910.541 99.3483 906.999 Q97.5428 903.434 93.9086 903.434 M93.9086 899.73 Q99.7187 899.73 102.774 904.337 Q105.853 908.92 105.853 917.67 Q105.853 926.397 102.774 931.003 Q99.7187 935.587 93.9086 935.587 Q88.0984 935.587 85.0197 931.003 Q81.9642 926.397 81.9642 917.67 Q81.9642 908.92 85.0197 904.337 Q88.0984 899.73 93.9086 899.73 Z" fill="#000000" fill-rule="nonzero" fill-opacity="1" /><path clip-path="url(#clip790)" d="M124.07 903.434 Q120.459 903.434 118.631 906.999 Q116.825 910.541 116.825 917.67 Q116.825 924.777 118.631 928.341 Q120.459 931.883 124.07 931.883 Q127.705 931.883 129.51 928.341 Q131.339 924.777 131.339 917.67 Q131.339 910.541 129.51 906.999 Q127.705 903.434 124.07 903.434 M124.07 899.73 Q129.881 899.73 132.936 904.337 Q136.015 908.92 136.015 917.67 Q136.015 926.397 132.936 931.003 Q129.881 935.587 124.07 935.587 Q118.26 935.587 115.182 931.003 Q112.126 926.397 112.126 917.67 Q112.126 908.92 115.182 904.337 Q118.26 899.73 124.07 899.73 Z" fill="#000000" fill-rule="nonzero" fill-opacity="1" /><path clip-path="url(#clip790)" d="M64.3254 650.653 Q61.1773 650.653 59.3254 652.806 Q57.4967 654.959 57.4967 658.709 Q57.4967 662.436 59.3254 664.612 Q61.1773 666.764 64.3254 666.764 Q67.4735 666.764 69.3022 664.612 Q71.1541 662.436 71.1541 658.709 Q71.1541 654.959 69.3022 652.806 Q67.4735 650.653 64.3254 650.653 M73.6077 636.001 L73.6077 640.26 Q71.8485 639.426 70.0429 638.987 Q68.2606 638.547 66.5013 638.547 Q61.8717 638.547 59.418 641.672 Q56.9875 644.797 56.6402 651.116 Q58.006 649.102 60.0662 648.038 Q62.1263 646.95 64.6032 646.95 Q69.8115 646.95 72.8207 650.121 Q75.8531 653.269 75.8531 658.709 Q75.8531 664.033 72.705 667.25 Q69.5568 670.468 64.3254 670.468 Q58.33 670.468 55.1588 665.885 Q51.9875 661.278 51.9875 652.551 Q51.9875 644.357 55.8764 639.496 Q59.7652 634.612 66.3161 634.612 Q68.0754 634.612 69.8578 634.959 Q71.6633 635.306 73.6077 636.001 Z" fill="#000000" fill-rule="nonzero" fill-opacity="1" /><path clip-path="url(#clip790)" d="M93.9086 638.315 Q90.2975 638.315 88.4688 641.88 Q86.6632 645.422 86.6632 652.551 Q86.6632 659.658 88.4688 663.223 Q90.2975 666.764 93.9086 666.764 Q97.5428 666.764 99.3483 663.223 Q101.177 659.658 101.177 652.551 Q101.177 645.422 99.3483 641.88 Q97.5428 638.315 93.9086 638.315 M93.9086 634.612 Q99.7187 634.612 102.774 639.218 Q105.853 643.801 105.853 652.551 Q105.853 661.278 102.774 665.885 Q99.7187 670.468 93.9086 670.468 Q88.0984 670.468 85.0197 665.885 Q81.9642 661.278 81.9642 652.551 Q81.9642 643.801 85.0197 639.218 Q88.0984 634.612 93.9086 634.612 Z" fill="#000000" fill-rule="nonzero" fill-opacity="1" /><path clip-path="url(#clip790)" d="M124.07 638.315 Q120.459 638.315 118.631 641.88 Q116.825 645.422 116.825 652.551 Q116.825 659.658 118.631 663.223 Q120.459 666.764 124.07 666.764 Q127.705 666.764 129.51 663.223 Q131.339 659.658 131.339 652.551 Q131.339 645.422 129.51 641.88 Q127.705 638.315 124.07 638.315 M124.07 634.612 Q129.881 634.612 132.936 639.218 Q136.015 643.801 136.015 652.551 Q136.015 661.278 132.936 665.885 Q129.881 670.468 124.07 670.468 Q118.26 670.468 115.182 665.885 Q112.126 661.278 112.126 652.551 Q112.126 643.801 115.182 639.218 Q118.26 634.612 124.07 634.612 Z" fill="#000000" fill-rule="nonzero" fill-opacity="1" /><path clip-path="url(#clip790)" d="M63.7467 388.266 Q60.4134 388.266 58.4921 390.048 Q56.5939 391.831 56.5939 394.956 Q56.5939 398.081 58.4921 399.863 Q60.4134 401.645 63.7467 401.645 Q67.08 401.645 69.0013 399.863 Q70.9226 398.058 70.9226 394.956 Q70.9226 391.831 69.0013 390.048 Q67.1032 388.266 63.7467 388.266 M59.0708 386.275 Q56.0615 385.534 54.3717 383.474 Q52.7051 381.414 52.7051 378.451 Q52.7051 374.308 55.6449 371.9 Q58.6078 369.493 63.7467 369.493 Q68.9087 369.493 71.8485 371.9 Q74.7883 374.308 74.7883 378.451 Q74.7883 381.414 73.0985 383.474 Q71.4318 385.534 68.4457 386.275 Q71.8253 387.062 73.7003 389.354 Q75.5985 391.646 75.5985 394.956 Q75.5985 399.979 72.5198 402.664 Q69.4642 405.349 63.7467 405.349 Q58.0291 405.349 54.9504 402.664 Q51.8949 399.979 51.8949 394.956 Q51.8949 391.646 53.793 389.354 Q55.6912 387.062 59.0708 386.275 M57.3578 378.891 Q57.3578 381.576 59.0245 383.081 Q60.7143 384.585 63.7467 384.585 Q66.7559 384.585 68.4457 383.081 Q70.1587 381.576 70.1587 378.891 Q70.1587 376.206 68.4457 374.701 Q66.7559 373.197 63.7467 373.197 Q60.7143 373.197 59.0245 374.701 Q57.3578 376.206 57.3578 378.891 Z" fill="#000000" fill-rule="nonzero" fill-opacity="1" /><path clip-path="url(#clip790)" d="M93.9086 373.197 Q90.2975 373.197 88.4688 376.761 Q86.6632 380.303 86.6632 387.433 Q86.6632 394.539 88.4688 398.104 Q90.2975 401.645 93.9086 401.645 Q97.5428 401.645 99.3483 398.104 Q101.177 394.539 101.177 387.433 Q101.177 380.303 99.3483 376.761 Q97.5428 373.197 93.9086 373.197 M93.9086 369.493 Q99.7187 369.493 102.774 374.099 Q105.853 378.683 105.853 387.433 Q105.853 396.159 102.774 400.766 Q99.7187 405.349 93.9086 405.349 Q88.0984 405.349 85.0197 400.766 Q81.9642 396.159 81.9642 387.433 Q81.9642 378.683 85.0197 374.099 Q88.0984 369.493 93.9086 369.493 Z" fill="#000000" fill-rule="nonzero" fill-opacity="1" /><path clip-path="url(#clip790)" d="M124.07 373.197 Q120.459 373.197 118.631 376.761 Q116.825 380.303 116.825 387.433 Q116.825 394.539 118.631 398.104 Q120.459 401.645 124.07 401.645 Q127.705 401.645 129.51 398.104 Q131.339 394.539 131.339 387.433 Q131.339 380.303 129.51 376.761 Q127.705 373.197 124.07 373.197 M124.07 369.493 Q129.881 369.493 132.936 374.099 Q136.015 378.683 136.015 387.433 Q136.015 396.159 132.936 400.766 Q129.881 405.349 124.07 405.349 Q118.26 405.349 115.182 400.766 Q112.126 396.159 112.126 387.433 Q112.126 378.683 115.182 374.099 Q118.26 369.493 124.07 369.493 Z" fill="#000000" fill-rule="nonzero" fill-opacity="1" /><path clip-path="url(#clip790)" d="M1179.36 18.8205 L1179.36 65.8515 L1189.25 65.8515 Q1201.76 65.8515 1207.56 60.1802 Q1213.39 54.509 1213.39 42.2752 Q1213.39 30.1225 1207.56 24.4918 Q1201.76 18.8205 1189.25 18.8205 L1179.36 18.8205 M1171.18 12.096 L1187.99 12.096 Q1205.57 12.096 1213.79 19.4281 Q1222.02 26.7198 1222.02 42.2752 Q1222.02 57.9117 1213.75 65.2439 Q1205.49 72.576 1187.99 72.576 L1171.18 72.576 L1171.18 12.096 Z" fill="#000000" fill-rule="nonzero" fill-opacity="1" /><path clip-path="url(#clip790)" d="M1255.36 49.7694 Q1246.32 49.7694 1242.84 51.8354 Q1239.36 53.9013 1239.36 58.8839 Q1239.36 62.8538 1241.95 65.2034 Q1244.58 67.5124 1249.08 67.5124 Q1255.28 67.5124 1259 63.1374 Q1262.77 58.7219 1262.77 51.4303 L1262.77 49.7694 L1255.36 49.7694 M1270.22 46.6907 L1270.22 72.576 L1262.77 72.576 L1262.77 65.6895 Q1260.22 69.8214 1256.41 71.8063 Q1252.6 73.7508 1247.09 73.7508 Q1240.13 73.7508 1235.99 69.8619 Q1231.9 65.9325 1231.9 59.3701 Q1231.9 51.7138 1237.01 47.825 Q1242.15 43.9361 1252.32 43.9361 L1262.77 43.9361 L1262.77 43.2069 Q1262.77 38.0623 1259.37 35.2672 Q1256.01 32.4315 1249.89 32.4315 Q1246 32.4315 1242.31 33.3632 Q1238.63 34.295 1235.22 36.1584 L1235.22 29.2718 Q1239.32 27.692 1243.16 26.9223 Q1247.01 26.1121 1250.66 26.1121 Q1260.5 26.1121 1265.36 31.2163 Q1270.22 36.3204 1270.22 46.6907 Z" fill="#000000" fill-rule="nonzero" fill-opacity="1" /><path clip-path="url(#clip790)" d="M1292.95 14.324 L1292.95 27.2059 L1308.3 27.2059 L1308.3 32.9987 L1292.95 32.9987 L1292.95 57.6282 Q1292.95 63.1779 1294.45 64.7578 Q1295.99 66.3376 1300.65 66.3376 L1308.3 66.3376 L1308.3 72.576 L1300.65 72.576 Q1292.02 72.576 1288.74 69.3758 Q1285.46 66.1351 1285.46 57.6282 L1285.46 32.9987 L1279.99 32.9987 L1279.99 27.2059 L1285.46 27.2059 L1285.46 14.324 L1292.95 14.324 Z" fill="#000000" fill-rule="nonzero" fill-opacity="1" /><path clip-path="url(#clip790)" d="M1338.72 49.7694 Q1329.69 49.7694 1326.21 51.8354 Q1322.72 53.9013 1322.72 58.8839 Q1322.72 62.8538 1325.32 65.2034 Q1327.95 67.5124 1332.45 67.5124 Q1338.64 67.5124 1342.37 63.1374 Q1346.14 58.7219 1346.14 51.4303 L1346.14 49.7694 L1338.72 49.7694 M1353.59 46.6907 L1353.59 72.576 L1346.14 72.576 L1346.14 65.6895 Q1343.59 69.8214 1339.78 71.8063 Q1335.97 73.7508 1330.46 73.7508 Q1323.49 73.7508 1319.36 69.8619 Q1315.27 65.9325 1315.27 59.3701 Q1315.27 51.7138 1320.37 47.825 Q1325.52 43.9361 1335.69 43.9361 L1346.14 43.9361 L1346.14 43.2069 Q1346.14 38.0623 1342.74 35.2672 Q1339.37 32.4315 1333.26 32.4315 Q1329.37 32.4315 1325.68 33.3632 Q1321.99 34.295 1318.59 36.1584 L1318.59 29.2718 Q1322.68 27.692 1326.53 26.9223 Q1330.38 26.1121 1334.03 26.1121 Q1343.87 26.1121 1348.73 31.2163 Q1353.59 36.3204 1353.59 46.6907 Z" fill="#000000" fill-rule="nonzero" fill-opacity="1" /><polyline clip-path="url(#clip791)" style="stroke:#009af9; stroke-linecap:round; stroke-linejoin:round; stroke-width:4; stroke-opacity:1; fill:none" points="233.734,1447.87 233.734,1408.11 268.022,1408.11 268.022,1249.03 302.311,1249.03 302.311,1302.06 336.599,1302.06 336.599,1235.78 370.887,1235.78 370.887,1196.01 405.176,1196.01 405.176,1142.99 439.464,1142.99 439.464,1116.47 473.753,1116.47 473.753,904.38 508.041,904.38 508.041,1050.19 542.329,1050.19 542.329,771.82 576.618,771.82 576.618,904.38 610.906,904.38 610.906,957.403 645.194,957.403 645.194,1063.45 679.483,1063.45 679.483,917.635 713.771,917.635 713.771,1142.99 748.06,1142.99 748.06,1129.73 782.348,1129.73 782.348,1196.01 816.636,1196.01 816.636,1249.03 850.925,1249.03 850.925,1315.31 885.213,1315.31 885.213,1408.11 919.502,1408.11 953.79,1408.11 953.79,1434.62 988.078,1434.62 1022.37,1434.62 1022.37,1408.11 1056.66,1408.11 1056.66,1434.62 1090.94,1434.62 1125.23,1434.62 1125.23,1421.36 1159.52,1421.36 1159.52,1394.85 1193.81,1394.85 1193.81,1368.34 1228.1,1368.34 1228.1,1275.55 1262.39,1275.55 1262.39,1262.29 1296.67,1262.29 1296.67,1222.52 1330.96,1222.52 1330.96,1262.29 1365.25,1262.29 1365.25,1023.68 1399.54,1023.68 1399.54,970.659 1433.83,970.659 1433.83,824.844 1468.12,824.844 1468.12,453.678 1502.4,453.678 1502.4,572.981 1536.69,572.981 1536.69,586.237 1570.98,586.237 1570.98,427.166 1605.27,427.166 1605.27,162.047 1639.56,162.047 1639.56,480.189 1673.85,480.189 1673.85,427.166 1708.13,427.166 1708.13,652.517 1742.42,652.517 1742.42,692.285 1776.71,692.285 1776.71,718.796 1811,718.796 1811,1063.45 1845.29,1063.45 1845.29,1076.71 1879.58,1076.71 1879.58,1182.75 1913.86,1182.75 1913.86,1235.78 1948.15,1235.78 1948.15,1368.34 1982.44,1368.34 2016.73,1368.34 2016.73,1421.36 2051.02,1421.36 2085.31,1421.36 2119.59,1421.36 2119.59,1447.87 2153.88,1447.87 2188.17,1447.87 2222.46,1447.87 2256.75,1447.87 2291.04,1447.87 "/>
<path clip-path="url(#clip790)" d="M1957.75 272.585 L2280.06 272.585 L2280.06 168.905 L1957.75 168.905  Z" fill="#ffffff" fill-rule="evenodd" fill-opacity="1"/>
<polyline clip-path="url(#clip790)" style="stroke:#000000; stroke-linecap:round; stroke-linejoin:round; stroke-width:4; stroke-opacity:1; fill:none" points="1957.75,272.585 2280.06,272.585 2280.06,168.905 1957.75,168.905 1957.75,272.585 "/>
<polyline clip-path="url(#clip790)" style="stroke:#009af9; stroke-linecap:round; stroke-linejoin:round; stroke-width:4; stroke-opacity:1; fill:none" points="1981.99,220.745 2127.37,220.745 "/>
<path clip-path="url(#clip790)" d="M2156.27 207.307 L2156.27 234.182 L2161.92 234.182 Q2169.08 234.182 2172.39 230.941 Q2175.72 227.701 2175.72 220.71 Q2175.72 213.766 2172.39 210.548 Q2169.08 207.307 2161.92 207.307 L2156.27 207.307 M2151.6 203.465 L2161.2 203.465 Q2171.25 203.465 2175.95 207.654 Q2180.65 211.821 2180.65 220.71 Q2180.65 229.645 2175.93 233.835 Q2171.2 238.025 2161.2 238.025 L2151.6 238.025 L2151.6 203.465 Z" fill="#000000" fill-rule="nonzero" fill-opacity="1" /><path clip-path="url(#clip790)" d="M2199.7 224.992 Q2194.54 224.992 2192.55 226.173 Q2190.56 227.353 2190.56 230.201 Q2190.56 232.469 2192.04 233.812 Q2193.54 235.131 2196.11 235.131 Q2199.65 235.131 2201.78 232.631 Q2203.94 230.108 2203.94 225.941 L2203.94 224.992 L2199.7 224.992 M2208.2 223.233 L2208.2 238.025 L2203.94 238.025 L2203.94 234.089 Q2202.48 236.451 2200.3 237.585 Q2198.13 238.696 2194.98 238.696 Q2191 238.696 2188.64 236.474 Q2186.3 234.228 2186.3 230.478 Q2186.3 226.103 2189.21 223.881 Q2192.15 221.659 2197.96 221.659 L2203.94 221.659 L2203.94 221.242 Q2203.94 218.303 2201.99 216.705 Q2200.07 215.085 2196.58 215.085 Q2194.35 215.085 2192.25 215.617 Q2190.14 216.15 2188.2 217.215 L2188.2 213.279 Q2190.53 212.377 2192.73 211.937 Q2194.93 211.474 2197.01 211.474 Q2202.64 211.474 2205.42 214.391 Q2208.2 217.307 2208.2 223.233 Z" fill="#000000" fill-rule="nonzero" fill-opacity="1" /><path clip-path="url(#clip790)" d="M2221.18 204.738 L2221.18 212.099 L2229.95 212.099 L2229.95 215.409 L2221.18 215.409 L2221.18 229.483 Q2221.18 232.654 2222.04 233.557 Q2222.92 234.46 2225.58 234.46 L2229.95 234.46 L2229.95 238.025 L2225.58 238.025 Q2220.65 238.025 2218.77 236.196 Q2216.9 234.344 2216.9 229.483 L2216.9 215.409 L2213.77 215.409 L2213.77 212.099 L2216.9 212.099 L2216.9 204.738 L2221.18 204.738 Z" fill="#000000" fill-rule="nonzero" fill-opacity="1" /><path clip-path="url(#clip790)" d="M2247.34 224.992 Q2242.18 224.992 2240.19 226.173 Q2238.2 227.353 2238.2 230.201 Q2238.2 232.469 2239.68 233.812 Q2241.18 235.131 2243.75 235.131 Q2247.29 235.131 2249.42 232.631 Q2251.57 230.108 2251.57 225.941 L2251.57 224.992 L2247.34 224.992 M2255.83 223.233 L2255.83 238.025 L2251.57 238.025 L2251.57 234.089 Q2250.12 236.451 2247.94 237.585 Q2245.76 238.696 2242.62 238.696 Q2238.64 238.696 2236.27 236.474 Q2233.94 234.228 2233.94 230.478 Q2233.94 226.103 2236.85 223.881 Q2239.79 221.659 2245.6 221.659 L2251.57 221.659 L2251.57 221.242 Q2251.57 218.303 2249.63 216.705 Q2247.71 215.085 2244.21 215.085 Q2241.99 215.085 2239.89 215.617 Q2237.78 216.15 2235.83 217.215 L2235.83 213.279 Q2238.17 212.377 2240.37 211.937 Q2242.57 211.474 2244.65 211.474 Q2250.28 211.474 2253.06 214.391 Q2255.83 217.307 2255.83 223.233 Z" fill="#000000" fill-rule="nonzero" fill-opacity="1" /></svg>
