<?xml version="1.0" encoding="utf-8"?>
<svg xmlns="http://www.w3.org/2000/svg" xmlns:xlink="http://www.w3.org/1999/xlink" width="600" height="400" viewBox="0 0 2400 1600">
<defs>
  <clipPath id="clip580">
    <rect x="0" y="0" width="2400" height="1600"/>
  </clipPath>
</defs>
<path clip-path="url(#clip580)" d="
M0 1600 L2400 1600 L2400 0 L0 0  Z
  " fill="#ffffff" fill-rule="evenodd" fill-opacity="1"/>
<defs>
  <clipPath id="clip581">
    <rect x="480" y="0" width="1681" height="1600"/>
  </clipPath>
</defs>
<path clip-path="url(#clip580)" d="
M188.612 1486.45 L2352.76 1486.45 L2352.76 123.472 L188.612 123.472  Z
  " fill="#ffffff" fill-rule="evenodd" fill-opacity="1"/>
<defs>
  <clipPath id="clip582">
    <rect x="188" y="123" width="2165" height="1364"/>
  </clipPath>
</defs>
<polyline clip-path="url(#clip582)" style="stroke:#000000; stroke-width:2; stroke-opacity:0.1; fill:none" points="
  249.861,1486.45 249.861,123.472 
  "/>
<polyline clip-path="url(#clip582)" style="stroke:#000000; stroke-width:2; stroke-opacity:0.1; fill:none" points="
  590.136,1486.45 590.136,123.472 
  "/>
<polyline clip-path="url(#clip582)" style="stroke:#000000; stroke-width:2; stroke-opacity:0.1; fill:none" points="
  930.41,1486.45 930.41,123.472 
  "/>
<polyline clip-path="url(#clip582)" style="stroke:#000000; stroke-width:2; stroke-opacity:0.1; fill:none" points="
  1270.68,1486.45 1270.68,123.472 
  "/>
<polyline clip-path="url(#clip582)" style="stroke:#000000; stroke-width:2; stroke-opacity:0.1; fill:none" points="
  1610.96,1486.45 1610.96,123.472 
  "/>
<polyline clip-path="url(#clip582)" style="stroke:#000000; stroke-width:2; stroke-opacity:0.1; fill:none" points="
  1951.23,1486.45 1951.23,123.472 
  "/>
<polyline clip-path="url(#clip582)" style="stroke:#000000; stroke-width:2; stroke-opacity:0.1; fill:none" points="
  2291.51,1486.45 2291.51,123.472 
  "/>
<polyline clip-path="url(#clip580)" style="stroke:#000000; stroke-width:4; stroke-opacity:1; fill:none" points="
  188.612,1486.45 2352.76,1486.45 
  "/>
<polyline clip-path="url(#clip580)" style="stroke:#000000; stroke-width:4; stroke-opacity:1; fill:none" points="
  249.861,1486.45 249.861,1470.09 
  "/>
<polyline clip-path="url(#clip580)" style="stroke:#000000; stroke-width:4; stroke-opacity:1; fill:none" points="
  590.136,1486.45 590.136,1470.09 
  "/>
<polyline clip-path="url(#clip580)" style="stroke:#000000; stroke-width:4; stroke-opacity:1; fill:none" points="
  930.41,1486.45 930.41,1470.09 
  "/>
<polyline clip-path="url(#clip580)" style="stroke:#000000; stroke-width:4; stroke-opacity:1; fill:none" points="
  1270.68,1486.45 1270.68,1470.09 
  "/>
<polyline clip-path="url(#clip580)" style="stroke:#000000; stroke-width:4; stroke-opacity:1; fill:none" points="
  1610.96,1486.45 1610.96,1470.09 
  "/>
<polyline clip-path="url(#clip580)" style="stroke:#000000; stroke-width:4; stroke-opacity:1; fill:none" points="
  1951.23,1486.45 1951.23,1470.09 
  "/>
<polyline clip-path="url(#clip580)" style="stroke:#000000; stroke-width:4; stroke-opacity:1; fill:none" points="
  2291.51,1486.45 2291.51,1470.09 
  "/>
<path clip-path="url(#clip580)" d="M 0 0 M222.315 1530.29 L251.991 1530.29 L251.991 1534.23 L222.315 1534.23 L222.315 1530.29 Z" fill="#000000" fill-rule="evenodd" fill-opacity="1" /><path clip-path="url(#clip580)" d="M 0 0 M261.088 1543.18 L277.407 1543.18 L277.407 1547.12 L255.463 1547.12 L255.463 1543.18 Q258.125 1540.43 262.708 1535.8 Q267.315 1531.15 268.495 1529.81 Q270.741 1527.28 271.62 1525.55 Q272.523 1523.79 272.523 1522.1 Q272.523 1519.34 270.579 1517.61 Q268.658 1515.87 265.556 1515.87 Q263.357 1515.87 260.903 1516.63 Q258.472 1517.4 255.695 1518.95 L255.695 1514.23 Q258.519 1513.09 260.972 1512.51 Q263.426 1511.93 265.463 1511.93 Q270.833 1511.93 274.028 1514.62 Q277.222 1517.31 277.222 1521.8 Q277.222 1523.93 276.412 1525.85 Q275.625 1527.74 273.519 1530.34 Q272.94 1531.01 269.838 1534.23 Q266.736 1537.42 261.088 1543.18 Z" fill="#000000" fill-rule="evenodd" fill-opacity="1" /><path clip-path="url(#clip580)" d="M 0 0 M562.404 1530.29 L592.08 1530.29 L592.08 1534.23 L562.404 1534.23 L562.404 1530.29 Z" fill="#000000" fill-rule="evenodd" fill-opacity="1" /><path clip-path="url(#clip580)" d="M 0 0 M597.96 1543.18 L605.598 1543.18 L605.598 1516.82 L597.288 1518.49 L597.288 1514.23 L605.552 1512.56 L610.228 1512.56 L610.228 1543.18 L617.867 1543.18 L617.867 1547.12 L597.96 1547.12 L597.96 1543.18 Z" fill="#000000" fill-rule="evenodd" fill-opacity="1" /><path clip-path="url(#clip580)" d="M 0 0 M930.41 1515.64 Q926.799 1515.64 924.97 1519.2 Q923.164 1522.75 923.164 1529.87 Q923.164 1536.98 924.97 1540.55 Q926.799 1544.09 930.41 1544.09 Q934.044 1544.09 935.85 1540.55 Q937.678 1536.98 937.678 1529.87 Q937.678 1522.75 935.85 1519.2 Q934.044 1515.64 930.41 1515.64 M930.41 1511.93 Q936.22 1511.93 939.275 1516.54 Q942.354 1521.12 942.354 1529.87 Q942.354 1538.6 939.275 1543.21 Q936.22 1547.79 930.41 1547.79 Q924.6 1547.79 921.521 1543.21 Q918.465 1538.6 918.465 1529.87 Q918.465 1521.12 921.521 1516.54 Q924.6 1511.93 930.41 1511.93 Z" fill="#000000" fill-rule="evenodd" fill-opacity="1" /><path clip-path="url(#clip580)" d="M 0 0 M1261.07 1543.18 L1268.7 1543.18 L1268.7 1516.82 L1260.39 1518.49 L1260.39 1514.23 L1268.66 1512.56 L1273.33 1512.56 L1273.33 1543.18 L1280.97 1543.18 L1280.97 1547.12 L1261.07 1547.12 L1261.07 1543.18 Z" fill="#000000" fill-rule="evenodd" fill-opacity="1" /><path clip-path="url(#clip580)" d="M 0 0 M1605.61 1543.18 L1621.93 1543.18 L1621.93 1547.12 L1599.99 1547.12 L1599.99 1543.18 Q1602.65 1540.43 1607.23 1535.8 Q1611.84 1531.15 1613.02 1529.81 Q1615.26 1527.28 1616.14 1525.55 Q1617.05 1523.79 1617.05 1522.1 Q1617.05 1519.34 1615.1 1517.61 Q1613.18 1515.87 1610.08 1515.87 Q1607.88 1515.87 1605.43 1516.63 Q1603 1517.4 1600.22 1518.95 L1600.22 1514.23 Q1603.04 1513.09 1605.5 1512.51 Q1607.95 1511.93 1609.99 1511.93 Q1615.36 1511.93 1618.55 1514.62 Q1621.75 1517.31 1621.75 1521.8 Q1621.75 1523.93 1620.93 1525.85 Q1620.15 1527.74 1618.04 1530.34 Q1617.46 1531.01 1614.36 1534.23 Q1611.26 1537.42 1605.61 1543.18 Z" fill="#000000" fill-rule="evenodd" fill-opacity="1" /><path clip-path="url(#clip580)" d="M 0 0 M1955.48 1528.49 Q1958.84 1529.2 1960.71 1531.47 Q1962.61 1533.74 1962.61 1537.07 Q1962.61 1542.19 1959.09 1544.99 Q1955.57 1547.79 1949.09 1547.79 Q1946.92 1547.79 1944.6 1547.35 Q1942.31 1546.93 1939.86 1546.08 L1939.86 1541.56 Q1941.8 1542.7 1944.11 1543.28 Q1946.43 1543.86 1948.95 1543.86 Q1953.35 1543.86 1955.64 1542.12 Q1957.96 1540.38 1957.96 1537.07 Q1957.96 1534.02 1955.8 1532.31 Q1953.67 1530.57 1949.86 1530.57 L1945.83 1530.57 L1945.83 1526.73 L1950.04 1526.73 Q1953.49 1526.73 1955.32 1525.36 Q1957.15 1523.97 1957.15 1521.38 Q1957.15 1518.72 1955.25 1517.31 Q1953.37 1515.87 1949.86 1515.87 Q1947.93 1515.87 1945.73 1516.29 Q1943.54 1516.7 1940.9 1517.58 L1940.9 1513.42 Q1943.56 1512.68 1945.87 1512.31 Q1948.21 1511.93 1950.27 1511.93 Q1955.6 1511.93 1958.7 1514.37 Q1961.8 1516.77 1961.8 1520.89 Q1961.8 1523.76 1960.16 1525.75 Q1958.51 1527.72 1955.48 1528.49 Z" fill="#000000" fill-rule="evenodd" fill-opacity="1" /><path clip-path="url(#clip580)" d="M 0 0 M2294.52 1516.63 L2282.71 1535.08 L2294.52 1535.08 L2294.52 1516.63 M2293.29 1512.56 L2299.17 1512.56 L2299.17 1535.08 L2304.1 1535.08 L2304.1 1538.97 L2299.17 1538.97 L2299.17 1547.12 L2294.52 1547.12 L2294.52 1538.97 L2278.91 1538.97 L2278.91 1534.46 L2293.29 1512.56 Z" fill="#000000" fill-rule="evenodd" fill-opacity="1" /><polyline clip-path="url(#clip582)" style="stroke:#000000; stroke-width:2; stroke-opacity:0.1; fill:none" points="
  188.612,1447.87 2352.76,1447.87 
  "/>
<polyline clip-path="url(#clip582)" style="stroke:#000000; stroke-width:2; stroke-opacity:0.1; fill:none" points="
  188.612,1126.42 2352.76,1126.42 
  "/>
<polyline clip-path="url(#clip582)" style="stroke:#000000; stroke-width:2; stroke-opacity:0.1; fill:none" points="
  188.612,804.96 2352.76,804.96 
  "/>
<polyline clip-path="url(#clip582)" style="stroke:#000000; stroke-width:2; stroke-opacity:0.1; fill:none" points="
  188.612,483.503 2352.76,483.503 
  "/>
<polyline clip-path="url(#clip582)" style="stroke:#000000; stroke-width:2; stroke-opacity:0.1; fill:none" points="
  188.612,162.047 2352.76,162.047 
  "/>
<polyline clip-path="url(#clip580)" style="stroke:#000000; stroke-width:4; stroke-opacity:1; fill:none" points="
  188.612,1486.45 188.612,123.472 
  "/>
<polyline clip-path="url(#clip580)" style="stroke:#000000; stroke-width:4; stroke-opacity:1; fill:none" points="
  188.612,1447.87 214.582,1447.87 
  "/>
<polyline clip-path="url(#clip580)" style="stroke:#000000; stroke-width:4; stroke-opacity:1; fill:none" points="
  188.612,1126.42 214.582,1126.42 
  "/>
<polyline clip-path="url(#clip580)" style="stroke:#000000; stroke-width:4; stroke-opacity:1; fill:none" points="
  188.612,804.96 214.582,804.96 
  "/>
<polyline clip-path="url(#clip580)" style="stroke:#000000; stroke-width:4; stroke-opacity:1; fill:none" points="
  188.612,483.503 214.582,483.503 
  "/>
<polyline clip-path="url(#clip580)" style="stroke:#000000; stroke-width:4; stroke-opacity:1; fill:none" points="
  188.612,162.047 214.582,162.047 
  "/>
<path clip-path="url(#clip580)" d="M 0 0 M140.668 1433.67 Q137.056 1433.67 135.228 1437.24 Q133.422 1440.78 133.422 1447.91 Q133.422 1455.01 135.228 1458.58 Q137.056 1462.12 140.668 1462.12 Q144.302 1462.12 146.107 1458.58 Q147.936 1455.01 147.936 1447.91 Q147.936 1440.78 146.107 1437.24 Q144.302 1433.67 140.668 1433.67 M140.668 1429.97 Q146.478 1429.97 149.533 1434.57 Q152.612 1439.16 152.612 1447.91 Q152.612 1456.63 149.533 1461.24 Q146.478 1465.82 140.668 1465.82 Q134.857 1465.82 131.779 1461.24 Q128.723 1456.63 128.723 1447.91 Q128.723 1439.16 131.779 1434.57 Q134.857 1429.97 140.668 1429.97 Z" fill="#000000" fill-rule="evenodd" fill-opacity="1" /><path clip-path="url(#clip580)" d="M 0 0 M83.2605 1139.76 L99.5798 1139.76 L99.5798 1143.7 L77.6355 1143.7 L77.6355 1139.76 Q80.2975 1137.01 84.8808 1132.38 Q89.4873 1127.72 90.6678 1126.38 Q92.9132 1123.86 93.7928 1122.12 Q94.6956 1120.36 94.6956 1118.67 Q94.6956 1115.92 92.7512 1114.18 Q90.8299 1112.45 87.728 1112.45 Q85.529 1112.45 83.0753 1113.21 Q80.6447 1113.97 77.867 1115.53 L77.867 1110.8 Q80.691 1109.67 83.1447 1109.09 Q85.5984 1108.51 87.6354 1108.51 Q93.0058 1108.51 96.2002 1111.2 Q99.3946 1113.88 99.3946 1118.37 Q99.3946 1120.5 98.5845 1122.42 Q97.7974 1124.32 95.691 1126.91 Q95.1123 1127.59 92.0104 1130.8 Q88.9086 1134 83.2605 1139.76 Z" fill="#000000" fill-rule="evenodd" fill-opacity="1" /><path clip-path="url(#clip580)" d="M 0 0 M104.696 1109.14 L123.052 1109.14 L123.052 1113.07 L108.978 1113.07 L108.978 1121.54 Q109.996 1121.2 111.015 1121.03 Q112.033 1120.85 113.052 1120.85 Q118.839 1120.85 122.219 1124.02 Q125.598 1127.19 125.598 1132.61 Q125.598 1138.19 122.126 1141.29 Q118.654 1144.37 112.334 1144.37 Q110.158 1144.37 107.89 1144 Q105.645 1143.63 103.237 1142.89 L103.237 1138.19 Q105.321 1139.32 107.543 1139.88 Q109.765 1140.43 112.242 1140.43 Q116.246 1140.43 118.584 1138.33 Q120.922 1136.22 120.922 1132.61 Q120.922 1129 118.584 1126.89 Q116.246 1124.78 112.242 1124.78 Q110.367 1124.78 108.492 1125.2 Q106.64 1125.62 104.696 1126.5 L104.696 1109.14 Z" fill="#000000" fill-rule="evenodd" fill-opacity="1" /><path clip-path="url(#clip580)" d="M 0 0 M140.668 1112.22 Q137.056 1112.22 135.228 1115.78 Q133.422 1119.32 133.422 1126.45 Q133.422 1133.56 135.228 1137.12 Q137.056 1140.66 140.668 1140.66 Q144.302 1140.66 146.107 1137.12 Q147.936 1133.56 147.936 1126.45 Q147.936 1119.32 146.107 1115.78 Q144.302 1112.22 140.668 1112.22 M140.668 1108.51 Q146.478 1108.51 149.533 1113.12 Q152.612 1117.7 152.612 1126.45 Q152.612 1135.18 149.533 1139.78 Q146.478 1144.37 140.668 1144.37 Q134.857 1144.37 131.779 1139.78 Q128.723 1135.18 128.723 1126.45 Q128.723 1117.7 131.779 1113.12 Q134.857 1108.51 140.668 1108.51 Z" fill="#000000" fill-rule="evenodd" fill-opacity="1" /><path clip-path="url(#clip580)" d="M 0 0 M77.6818 787.68 L96.0382 787.68 L96.0382 791.615 L81.9642 791.615 L81.9642 800.087 Q82.9827 799.74 84.0012 799.578 Q85.0197 799.393 86.0382 799.393 Q91.8252 799.393 95.2049 802.564 Q98.5845 805.735 98.5845 811.152 Q98.5845 816.731 95.1123 819.833 Q91.6401 822.911 85.3206 822.911 Q83.1447 822.911 80.8762 822.541 Q78.6309 822.171 76.2235 821.43 L76.2235 816.731 Q78.3068 817.865 80.529 818.421 Q82.7512 818.976 85.2281 818.976 Q89.2327 818.976 91.5706 816.87 Q93.9086 814.763 93.9086 811.152 Q93.9086 807.541 91.5706 805.435 Q89.2327 803.328 85.2281 803.328 Q83.3531 803.328 81.4781 803.745 Q79.6262 804.161 77.6818 805.041 L77.6818 787.68 Z" fill="#000000" fill-rule="evenodd" fill-opacity="1" /><path clip-path="url(#clip580)" d="M 0 0 M113.654 790.759 Q110.043 790.759 108.214 794.323 Q106.408 797.865 106.408 804.995 Q106.408 812.101 108.214 815.666 Q110.043 819.208 113.654 819.208 Q117.288 819.208 119.094 815.666 Q120.922 812.101 120.922 804.995 Q120.922 797.865 119.094 794.323 Q117.288 790.759 113.654 790.759 M113.654 787.055 Q119.464 787.055 122.52 791.661 Q125.598 796.245 125.598 804.995 Q125.598 813.722 122.52 818.328 Q119.464 822.911 113.654 822.911 Q107.844 822.911 104.765 818.328 Q101.709 813.722 101.709 804.995 Q101.709 796.245 104.765 791.661 Q107.844 787.055 113.654 787.055 Z" fill="#000000" fill-rule="evenodd" fill-opacity="1" /><path clip-path="url(#clip580)" d="M 0 0 M140.668 790.759 Q137.056 790.759 135.228 794.323 Q133.422 797.865 133.422 804.995 Q133.422 812.101 135.228 815.666 Q137.056 819.208 140.668 819.208 Q144.302 819.208 146.107 815.666 Q147.936 812.101 147.936 804.995 Q147.936 797.865 146.107 794.323 Q144.302 790.759 140.668 790.759 M140.668 787.055 Q146.478 787.055 149.533 791.661 Q152.612 796.245 152.612 804.995 Q152.612 813.722 149.533 818.328 Q146.478 822.911 140.668 822.911 Q134.857 822.911 131.779 818.328 Q128.723 813.722 128.723 804.995 Q128.723 796.245 131.779 791.661 Q134.857 787.055 140.668 787.055 Z" fill="#000000" fill-rule="evenodd" fill-opacity="1" /><path clip-path="url(#clip580)" d="M 0 0 M77.3577 466.223 L99.5798 466.223 L99.5798 468.214 L87.0336 500.783 L82.1494 500.783 L93.9549 470.159 L77.3577 470.159 L77.3577 466.223 Z" fill="#000000" fill-rule="evenodd" fill-opacity="1" /><path clip-path="url(#clip580)" d="M 0 0 M104.696 466.223 L123.052 466.223 L123.052 470.159 L108.978 470.159 L108.978 478.631 Q109.996 478.284 111.015 478.122 Q112.033 477.936 113.052 477.936 Q118.839 477.936 122.219 481.108 Q125.598 484.279 125.598 489.696 Q125.598 495.274 122.126 498.376 Q118.654 501.455 112.334 501.455 Q110.158 501.455 107.89 501.084 Q105.645 500.714 103.237 499.973 L103.237 495.274 Q105.321 496.408 107.543 496.964 Q109.765 497.52 112.242 497.52 Q116.246 497.52 118.584 495.413 Q120.922 493.307 120.922 489.696 Q120.922 486.084 118.584 483.978 Q116.246 481.872 112.242 481.872 Q110.367 481.872 108.492 482.288 Q106.64 482.705 104.696 483.584 L104.696 466.223 Z" fill="#000000" fill-rule="evenodd" fill-opacity="1" /><path clip-path="url(#clip580)" d="M 0 0 M140.668 469.302 Q137.056 469.302 135.228 472.867 Q133.422 476.409 133.422 483.538 Q133.422 490.645 135.228 494.209 Q137.056 497.751 140.668 497.751 Q144.302 497.751 146.107 494.209 Q147.936 490.645 147.936 483.538 Q147.936 476.409 146.107 472.867 Q144.302 469.302 140.668 469.302 M140.668 465.598 Q146.478 465.598 149.533 470.205 Q152.612 474.788 152.612 483.538 Q152.612 492.265 149.533 496.871 Q146.478 501.455 140.668 501.455 Q134.857 501.455 131.779 496.871 Q128.723 492.265 128.723 483.538 Q128.723 474.788 131.779 470.205 Q134.857 465.598 140.668 465.598 Z" fill="#000000" fill-rule="evenodd" fill-opacity="1" /><path clip-path="url(#clip580)" d="M 0 0 M51.6634 175.392 L59.3023 175.392 L59.3023 149.026 L50.9921 150.693 L50.9921 146.434 L59.256 144.767 L63.9319 144.767 L63.9319 175.392 L71.5707 175.392 L71.5707 179.327 L51.6634 179.327 L51.6634 175.392 Z" fill="#000000" fill-rule="evenodd" fill-opacity="1" /><path clip-path="url(#clip580)" d="M 0 0 M86.6401 147.846 Q83.029 147.846 81.2003 151.41 Q79.3948 154.952 79.3948 162.082 Q79.3948 169.188 81.2003 172.753 Q83.029 176.295 86.6401 176.295 Q90.2743 176.295 92.0799 172.753 Q93.9086 169.188 93.9086 162.082 Q93.9086 154.952 92.0799 151.41 Q90.2743 147.846 86.6401 147.846 M86.6401 144.142 Q92.4502 144.142 95.5058 148.748 Q98.5845 153.332 98.5845 162.082 Q98.5845 170.808 95.5058 175.415 Q92.4502 179.998 86.6401 179.998 Q80.8299 179.998 77.7512 175.415 Q74.6957 170.808 74.6957 162.082 Q74.6957 153.332 77.7512 148.748 Q80.8299 144.142 86.6401 144.142 Z" fill="#000000" fill-rule="evenodd" fill-opacity="1" /><path clip-path="url(#clip580)" d="M 0 0 M113.654 147.846 Q110.043 147.846 108.214 151.41 Q106.408 154.952 106.408 162.082 Q106.408 169.188 108.214 172.753 Q110.043 176.295 113.654 176.295 Q117.288 176.295 119.094 172.753 Q120.922 169.188 120.922 162.082 Q120.922 154.952 119.094 151.41 Q117.288 147.846 113.654 147.846 M113.654 144.142 Q119.464 144.142 122.52 148.748 Q125.598 153.332 125.598 162.082 Q125.598 170.808 122.52 175.415 Q119.464 179.998 113.654 179.998 Q107.844 179.998 104.765 175.415 Q101.709 170.808 101.709 162.082 Q101.709 153.332 104.765 148.748 Q107.844 144.142 113.654 144.142 Z" fill="#000000" fill-rule="evenodd" fill-opacity="1" /><path clip-path="url(#clip580)" d="M 0 0 M140.668 147.846 Q137.056 147.846 135.228 151.41 Q133.422 154.952 133.422 162.082 Q133.422 169.188 135.228 172.753 Q137.056 176.295 140.668 176.295 Q144.302 176.295 146.107 172.753 Q147.936 169.188 147.936 162.082 Q147.936 154.952 146.107 151.41 Q144.302 147.846 140.668 147.846 M140.668 144.142 Q146.478 144.142 149.533 148.748 Q152.612 153.332 152.612 162.082 Q152.612 170.808 149.533 175.415 Q146.478 179.998 140.668 179.998 Q134.857 179.998 131.779 175.415 Q128.723 170.808 128.723 162.082 Q128.723 153.332 131.779 148.748 Q134.857 144.142 140.668 144.142 Z" fill="#000000" fill-rule="evenodd" fill-opacity="1" /><path clip-path="url(#clip580)" d="M 0 0 M1194.87 18.8205 L1194.87 65.8515 L1204.76 65.8515 Q1217.27 65.8515 1223.07 60.1802 Q1228.9 54.509 1228.9 42.2752 Q1228.9 30.1225 1223.07 24.4918 Q1217.27 18.8205 1204.76 18.8205 L1194.87 18.8205 M1186.69 12.096 L1203.5 12.096 Q1221.08 12.096 1229.3 19.4281 Q1237.53 26.7198 1237.53 42.2752 Q1237.53 57.9117 1229.26 65.2439 Q1221 72.576 1203.5 72.576 L1186.69 72.576 L1186.69 12.096 Z" fill="#000000" fill-rule="evenodd" fill-opacity="1" /><path clip-path="url(#clip580)" d="M 0 0 M1265.96 49.7694 Q1256.93 49.7694 1253.45 51.8354 Q1249.96 53.9013 1249.96 58.8839 Q1249.96 62.8538 1252.56 65.2034 Q1255.19 67.5124 1259.69 67.5124 Q1265.88 67.5124 1269.61 63.1374 Q1273.38 58.7219 1273.38 51.4303 L1273.38 49.7694 L1265.96 49.7694 M1280.83 46.6907 L1280.83 72.576 L1273.38 72.576 L1273.38 65.6895 Q1270.83 69.8214 1267.02 71.8063 Q1263.21 73.7508 1257.7 73.7508 Q1250.73 73.7508 1246.6 69.8619 Q1242.51 65.9325 1242.51 59.3701 Q1242.51 51.7138 1247.61 47.825 Q1252.76 43.9361 1262.93 43.9361 L1273.38 43.9361 L1273.38 43.2069 Q1273.38 38.0623 1269.98 35.2672 Q1266.61 32.4315 1260.5 32.4315 Q1256.61 32.4315 1252.92 33.3632 Q1249.23 34.295 1245.83 36.1584 L1245.83 29.2718 Q1249.92 27.692 1253.77 26.9223 Q1257.62 26.1121 1261.27 26.1121 Q1271.11 26.1121 1275.97 31.2163 Q1280.83 36.3204 1280.83 46.6907 Z" fill="#000000" fill-rule="evenodd" fill-opacity="1" /><path clip-path="url(#clip580)" d="M 0 0 M1296.02 14.324 L1296.02 27.2059 L1311.38 27.2059 L1311.38 32.9987 L1296.02 32.9987 L1296.02 57.6282 Q1296.02 63.1779 1297.52 64.7578 Q1299.06 66.3376 1303.72 66.3376 L1311.38 66.3376 L1311.38 72.576 L1303.72 72.576 Q1295.09 72.576 1291.81 69.3758 Q1288.53 66.1351 1288.53 57.6282 L1288.53 32.9987 L1283.06 32.9987 L1283.06 27.2059 L1288.53 27.2059 L1288.53 14.324 L1296.02 14.324 Z" fill="#000000" fill-rule="evenodd" fill-opacity="1" /><path clip-path="url(#clip580)" d="M 0 0 M1339.81 49.7694 Q1330.78 49.7694 1327.3 51.8354 Q1323.81 53.9013 1323.81 58.8839 Q1323.81 62.8538 1326.4 65.2034 Q1329.04 67.5124 1333.53 67.5124 Q1339.73 67.5124 1343.46 63.1374 Q1347.23 58.7219 1347.23 51.4303 L1347.23 49.7694 L1339.81 49.7694 M1354.68 46.6907 L1354.68 72.576 L1347.23 72.576 L1347.23 65.6895 Q1344.67 69.8214 1340.87 71.8063 Q1337.06 73.7508 1331.55 73.7508 Q1324.58 73.7508 1320.45 69.8619 Q1316.36 65.9325 1316.36 59.3701 Q1316.36 51.7138 1321.46 47.825 Q1326.61 43.9361 1336.77 43.9361 L1347.23 43.9361 L1347.23 43.2069 Q1347.23 38.0623 1343.82 35.2672 Q1340.46 32.4315 1334.34 32.4315 Q1330.46 32.4315 1326.77 33.3632 Q1323.08 34.295 1319.68 36.1584 L1319.68 29.2718 Q1323.77 27.692 1327.62 26.9223 Q1331.47 26.1121 1335.11 26.1121 Q1344.96 26.1121 1349.82 31.2163 Q1354.68 36.3204 1354.68 46.6907 Z" fill="#000000" fill-rule="evenodd" fill-opacity="1" /><polyline clip-path="url(#clip582)" style="stroke:#009af9; stroke-width:4; stroke-opacity:1; fill:none" points="
  249.861,1447.87 249.861,1383.58 283.889,1383.58 283.889,1332.15 317.916,1332.15 317.916,1242.14 351.944,1242.14 351.944,1255 385.971,1255 385.971,1152.13 
  419.998,1152.13 419.998,1139.27 454.026,1139.27 454.026,1049.27 488.053,1049.27 488.053,1190.71 522.081,1190.71 522.081,984.976 556.108,984.976 556.108,856.393 
  590.136,856.393 590.136,817.818 624.163,817.818 624.163,894.968 658.19,894.968 658.19,1113.56 692.218,1113.56 692.218,1049.27 726.245,1049.27 726.245,1139.27 
  760.273,1139.27 760.273,1100.7 794.3,1100.7 794.3,1203.57 828.327,1203.57 828.327,1267.86 862.355,1267.86 862.355,1280.72 896.382,1280.72 896.382,1319.29 
  930.41,1319.29 930.41,1357.87 964.437,1357.87 964.437,1396.44 998.465,1396.44 998.465,1447.87 1032.49,1447.87 1066.52,1447.87 1066.52,1435.01 
  1100.55,1435.01 1134.57,1435.01 1134.57,1422.16 1168.6,1422.16 1168.6,1396.44 1202.63,1396.44 1202.63,1345.01 1236.66,1345.01 1236.66,1383.58 
  1270.68,1383.58 1270.68,1267.86 1304.71,1267.86 1338.74,1267.86 1338.74,984.976 1372.77,984.976 1372.77,959.259 1406.79,959.259 1406.79,920.684 
  1440.82,920.684 1440.82,753.527 1474.85,753.527 1474.85,637.803 1508.88,637.803 1508.88,406.354 1542.9,406.354 1542.9,586.37 1576.93,586.37 1576.93,162.047 
  1610.96,162.047 1610.96,393.496 1644.99,393.496 1644.99,457.787 1679.01,457.787 1679.01,676.377 1713.04,676.377 1713.04,573.511 1747.07,573.511 1747.07,804.96 
  1781.1,804.96 1781.1,1087.84 1815.12,1087.84 1815.12,1074.98 1849.15,1074.98 1849.15,1126.42 1883.18,1126.42 1883.18,1203.57 1917.2,1203.57 1917.2,1293.57 
  1951.23,1293.57 1951.23,1370.72 1985.26,1370.72 2019.29,1370.72 2053.31,1370.72 2053.31,1447.87 2087.34,1447.87 2087.34,1435.01 
  2121.37,1435.01 2121.37,1447.87 2155.4,1447.87 2189.42,1447.87 2223.45,1447.87 2257.48,1447.87 
  2291.51,1447.87 
  "/>
<path clip-path="url(#clip580)" d="
M1944.16 289.865 L2280.62 289.865 L2280.62 168.905 L1944.16 168.905  Z
  " fill="#ffffff" fill-rule="evenodd" fill-opacity="1"/>
<polyline clip-path="url(#clip580)" style="stroke:#000000; stroke-width:4; stroke-opacity:1; fill:none" points="
  1944.16,289.865 2280.62,289.865 2280.62,168.905 1944.16,168.905 1944.16,289.865 
  "/>
<polyline clip-path="url(#clip580)" style="stroke:#009af9; stroke-width:4; stroke-opacity:1; fill:none" points="
  1968.21,229.385 2112.48,229.385 
  "/>
<path clip-path="url(#clip580)" d="M 0 0 M2141.21 215.947 L2141.21 242.822 L2146.85 242.822 Q2154.01 242.822 2157.32 239.581 Q2160.65 236.341 2160.65 229.35 Q2160.65 222.406 2157.32 219.188 Q2154.01 215.947 2146.85 215.947 L2141.21 215.947 M2136.53 212.105 L2146.14 212.105 Q2156.18 212.105 2160.88 216.294 Q2165.58 220.461 2165.58 229.35 Q2165.58 238.285 2160.86 242.475 Q2156.14 246.665 2146.14 246.665 L2136.53 246.665 L2136.53 212.105 Z" fill="#000000" fill-rule="evenodd" fill-opacity="1" /><path clip-path="url(#clip580)" d="M 0 0 M2181.83 233.632 Q2176.67 233.632 2174.68 234.813 Q2172.69 235.993 2172.69 238.841 Q2172.69 241.109 2174.17 242.452 Q2175.67 243.771 2178.24 243.771 Q2181.79 243.771 2183.91 241.271 Q2186.07 238.748 2186.07 234.581 L2186.07 233.632 L2181.83 233.632 M2190.33 231.873 L2190.33 246.665 L2186.07 246.665 L2186.07 242.729 Q2184.61 245.091 2182.43 246.225 Q2180.26 247.336 2177.11 247.336 Q2173.13 247.336 2170.77 245.114 Q2168.43 242.868 2168.43 239.118 Q2168.43 234.743 2171.35 232.521 Q2174.29 230.299 2180.1 230.299 L2186.07 230.299 L2186.07 229.882 Q2186.07 226.943 2184.12 225.345 Q2182.2 223.725 2178.71 223.725 Q2176.48 223.725 2174.38 224.257 Q2172.27 224.79 2170.33 225.855 L2170.33 221.919 Q2172.66 221.017 2174.86 220.577 Q2177.06 220.114 2179.15 220.114 Q2184.77 220.114 2187.55 223.031 Q2190.33 225.947 2190.33 231.873 Z" fill="#000000" fill-rule="evenodd" fill-opacity="1" /><path clip-path="url(#clip580)" d="M 0 0 M2199.01 213.378 L2199.01 220.739 L2207.78 220.739 L2207.78 224.049 L2199.01 224.049 L2199.01 238.123 Q2199.01 241.294 2199.86 242.197 Q2200.74 243.1 2203.41 243.1 L2207.78 243.1 L2207.78 246.665 L2203.41 246.665 Q2198.47 246.665 2196.6 244.836 Q2194.72 242.984 2194.72 238.123 L2194.72 224.049 L2191.6 224.049 L2191.6 220.739 L2194.72 220.739 L2194.72 213.378 L2199.01 213.378 Z" fill="#000000" fill-rule="evenodd" fill-opacity="1" /><path clip-path="url(#clip580)" d="M 0 0 M2224.03 233.632 Q2218.87 233.632 2216.88 234.813 Q2214.89 235.993 2214.89 238.841 Q2214.89 241.109 2216.37 242.452 Q2217.87 243.771 2220.44 243.771 Q2223.98 243.771 2226.11 241.271 Q2228.27 238.748 2228.27 234.581 L2228.27 233.632 L2224.03 233.632 M2232.53 231.873 L2232.53 246.665 L2228.27 246.665 L2228.27 242.729 Q2226.81 245.091 2224.63 246.225 Q2222.46 247.336 2219.31 247.336 Q2215.33 247.336 2212.97 245.114 Q2210.63 242.868 2210.63 239.118 Q2210.63 234.743 2213.54 232.521 Q2216.48 230.299 2222.29 230.299 L2228.27 230.299 L2228.27 229.882 Q2228.27 226.943 2226.32 225.345 Q2224.4 223.725 2220.91 223.725 Q2218.68 223.725 2216.58 224.257 Q2214.47 224.79 2212.53 225.855 L2212.53 221.919 Q2214.86 221.017 2217.06 220.577 Q2219.26 220.114 2221.35 220.114 Q2226.97 220.114 2229.75 223.031 Q2232.53 225.947 2232.53 231.873 Z" fill="#000000" fill-rule="evenodd" fill-opacity="1" /></svg>
