<?xml version="1.0" encoding="utf-8"?>
<svg xmlns="http://www.w3.org/2000/svg" xmlns:xlink="http://www.w3.org/1999/xlink" width="600" height="400" viewBox="0 0 2400 1600">
<defs>
  <clipPath id="clip610">
    <rect x="0" y="0" width="2400" height="1600"/>
  </clipPath>
</defs>
<path clip-path="url(#clip610)" d="
M0 1600 L2400 1600 L2400 0 L0 0  Z
  " fill="#ffffff" fill-rule="evenodd" fill-opacity="1"/>
<defs>
  <clipPath id="clip611">
    <rect x="480" y="0" width="1681" height="1600"/>
  </clipPath>
</defs>
<path clip-path="url(#clip610)" d="
M188.612 1486.45 L2352.76 1486.45 L2352.76 123.472 L188.612 123.472  Z
  " fill="#ffffff" fill-rule="evenodd" fill-opacity="1"/>
<defs>
  <clipPath id="clip612">
    <rect x="188" y="123" width="2165" height="1364"/>
  </clipPath>
</defs>
<polyline clip-path="url(#clip612)" style="stroke:#000000; stroke-width:2; stroke-opacity:0.1; fill:none" points="
  249.861,1486.45 249.861,123.472 
  "/>
<polyline clip-path="url(#clip612)" style="stroke:#000000; stroke-width:2; stroke-opacity:0.1; fill:none" points="
  760.273,1486.45 760.273,123.472 
  "/>
<polyline clip-path="url(#clip612)" style="stroke:#000000; stroke-width:2; stroke-opacity:0.1; fill:none" points="
  1270.68,1486.45 1270.68,123.472 
  "/>
<polyline clip-path="url(#clip612)" style="stroke:#000000; stroke-width:2; stroke-opacity:0.1; fill:none" points="
  1781.1,1486.45 1781.1,123.472 
  "/>
<polyline clip-path="url(#clip612)" style="stroke:#000000; stroke-width:2; stroke-opacity:0.1; fill:none" points="
  2291.51,1486.45 2291.51,123.472 
  "/>
<polyline clip-path="url(#clip610)" style="stroke:#000000; stroke-width:4; stroke-opacity:1; fill:none" points="
  188.612,1486.45 2352.76,1486.45 
  "/>
<polyline clip-path="url(#clip610)" style="stroke:#000000; stroke-width:4; stroke-opacity:1; fill:none" points="
  249.861,1486.45 249.861,1470.09 
  "/>
<polyline clip-path="url(#clip610)" style="stroke:#000000; stroke-width:4; stroke-opacity:1; fill:none" points="
  760.273,1486.45 760.273,1470.09 
  "/>
<polyline clip-path="url(#clip610)" style="stroke:#000000; stroke-width:4; stroke-opacity:1; fill:none" points="
  1270.68,1486.45 1270.68,1470.09 
  "/>
<polyline clip-path="url(#clip610)" style="stroke:#000000; stroke-width:4; stroke-opacity:1; fill:none" points="
  1781.1,1486.45 1781.1,1470.09 
  "/>
<polyline clip-path="url(#clip610)" style="stroke:#000000; stroke-width:4; stroke-opacity:1; fill:none" points="
  2291.51,1486.45 2291.51,1470.09 
  "/>
<path clip-path="url(#clip610)" d="M 0 0 M221.273 1530.29 L250.949 1530.29 L250.949 1534.23 L221.273 1534.23 L221.273 1530.29 Z" fill="#000000" fill-rule="evenodd" fill-opacity="1" /><path clip-path="url(#clip610)" d="M 0 0 M268.866 1516.63 L257.06 1535.08 L268.866 1535.08 L268.866 1516.63 M267.639 1512.56 L273.519 1512.56 L273.519 1535.08 L278.449 1535.08 L278.449 1538.97 L273.519 1538.97 L273.519 1547.12 L268.866 1547.12 L268.866 1538.97 L253.264 1538.97 L253.264 1534.46 L267.639 1512.56 Z" fill="#000000" fill-rule="evenodd" fill-opacity="1" /><path clip-path="url(#clip610)" d="M 0 0 M732.726 1530.29 L762.402 1530.29 L762.402 1534.23 L732.726 1534.23 L732.726 1530.29 Z" fill="#000000" fill-rule="evenodd" fill-opacity="1" /><path clip-path="url(#clip610)" d="M 0 0 M771.499 1543.18 L787.819 1543.18 L787.819 1547.12 L765.874 1547.12 L765.874 1543.18 Q768.536 1540.43 773.12 1535.8 Q777.726 1531.15 778.907 1529.81 Q781.152 1527.28 782.032 1525.55 Q782.935 1523.79 782.935 1522.1 Q782.935 1519.34 780.99 1517.61 Q779.069 1515.87 775.967 1515.87 Q773.768 1515.87 771.314 1516.63 Q768.884 1517.4 766.106 1518.95 L766.106 1514.23 Q768.93 1513.09 771.384 1512.51 Q773.837 1511.93 775.874 1511.93 Q781.245 1511.93 784.439 1514.62 Q787.634 1517.31 787.634 1521.8 Q787.634 1523.93 786.823 1525.85 Q786.036 1527.74 783.93 1530.34 Q783.351 1531.01 780.249 1534.23 Q777.148 1537.42 771.499 1543.18 Z" fill="#000000" fill-rule="evenodd" fill-opacity="1" /><path clip-path="url(#clip610)" d="M 0 0 M1270.68 1515.64 Q1267.07 1515.64 1265.24 1519.2 Q1263.44 1522.75 1263.44 1529.87 Q1263.44 1536.98 1265.24 1540.55 Q1267.07 1544.09 1270.68 1544.09 Q1274.32 1544.09 1276.12 1540.55 Q1277.95 1536.98 1277.95 1529.87 Q1277.95 1522.75 1276.12 1519.2 Q1274.32 1515.64 1270.68 1515.64 M1270.68 1511.93 Q1276.49 1511.93 1279.55 1516.54 Q1282.63 1521.12 1282.63 1529.87 Q1282.63 1538.6 1279.55 1543.21 Q1276.49 1547.79 1270.68 1547.79 Q1264.87 1547.79 1261.8 1543.21 Q1258.74 1538.6 1258.74 1529.87 Q1258.74 1521.12 1261.8 1516.54 Q1264.87 1511.93 1270.68 1511.93 Z" fill="#000000" fill-rule="evenodd" fill-opacity="1" /><path clip-path="url(#clip610)" d="M 0 0 M1775.75 1543.18 L1792.07 1543.18 L1792.07 1547.12 L1770.12 1547.12 L1770.12 1543.18 Q1772.79 1540.43 1777.37 1535.8 Q1781.97 1531.15 1783.16 1529.81 Q1785.4 1527.28 1786.28 1525.55 Q1787.18 1523.79 1787.18 1522.1 Q1787.18 1519.34 1785.24 1517.61 Q1783.32 1515.87 1780.22 1515.87 Q1778.02 1515.87 1775.56 1516.63 Q1773.13 1517.4 1770.35 1518.95 L1770.35 1514.23 Q1773.18 1513.09 1775.63 1512.51 Q1778.09 1511.93 1780.12 1511.93 Q1785.49 1511.93 1788.69 1514.62 Q1791.88 1517.31 1791.88 1521.8 Q1791.88 1523.93 1791.07 1525.85 Q1790.29 1527.74 1788.18 1530.34 Q1787.6 1531.01 1784.5 1534.23 Q1781.4 1537.42 1775.75 1543.18 Z" fill="#000000" fill-rule="evenodd" fill-opacity="1" /><path clip-path="url(#clip610)" d="M 0 0 M2294.52 1516.63 L2282.71 1535.08 L2294.52 1535.08 L2294.52 1516.63 M2293.29 1512.56 L2299.17 1512.56 L2299.17 1535.08 L2304.1 1535.08 L2304.1 1538.97 L2299.17 1538.97 L2299.17 1547.12 L2294.52 1547.12 L2294.52 1538.97 L2278.91 1538.97 L2278.91 1534.46 L2293.29 1512.56 Z" fill="#000000" fill-rule="evenodd" fill-opacity="1" /><polyline clip-path="url(#clip612)" style="stroke:#000000; stroke-width:2; stroke-opacity:0.1; fill:none" points="
  188.612,1447.87 2352.76,1447.87 
  "/>
<polyline clip-path="url(#clip612)" style="stroke:#000000; stroke-width:2; stroke-opacity:0.1; fill:none" points="
  188.612,1126.42 2352.76,1126.42 
  "/>
<polyline clip-path="url(#clip612)" style="stroke:#000000; stroke-width:2; stroke-opacity:0.1; fill:none" points="
  188.612,804.96 2352.76,804.96 
  "/>
<polyline clip-path="url(#clip612)" style="stroke:#000000; stroke-width:2; stroke-opacity:0.1; fill:none" points="
  188.612,483.503 2352.76,483.503 
  "/>
<polyline clip-path="url(#clip612)" style="stroke:#000000; stroke-width:2; stroke-opacity:0.1; fill:none" points="
  188.612,162.047 2352.76,162.047 
  "/>
<polyline clip-path="url(#clip610)" style="stroke:#000000; stroke-width:4; stroke-opacity:1; fill:none" points="
  188.612,1486.45 188.612,123.472 
  "/>
<polyline clip-path="url(#clip610)" style="stroke:#000000; stroke-width:4; stroke-opacity:1; fill:none" points="
  188.612,1447.87 214.582,1447.87 
  "/>
<polyline clip-path="url(#clip610)" style="stroke:#000000; stroke-width:4; stroke-opacity:1; fill:none" points="
  188.612,1126.42 214.582,1126.42 
  "/>
<polyline clip-path="url(#clip610)" style="stroke:#000000; stroke-width:4; stroke-opacity:1; fill:none" points="
  188.612,804.96 214.582,804.96 
  "/>
<polyline clip-path="url(#clip610)" style="stroke:#000000; stroke-width:4; stroke-opacity:1; fill:none" points="
  188.612,483.503 214.582,483.503 
  "/>
<polyline clip-path="url(#clip610)" style="stroke:#000000; stroke-width:4; stroke-opacity:1; fill:none" points="
  188.612,162.047 214.582,162.047 
  "/>
<path clip-path="url(#clip610)" d="M 0 0 M140.668 1433.67 Q137.056 1433.67 135.228 1437.24 Q133.422 1440.78 133.422 1447.91 Q133.422 1455.01 135.228 1458.58 Q137.056 1462.12 140.668 1462.12 Q144.302 1462.12 146.107 1458.58 Q147.936 1455.01 147.936 1447.91 Q147.936 1440.78 146.107 1437.24 Q144.302 1433.67 140.668 1433.67 M140.668 1429.97 Q146.478 1429.97 149.533 1434.57 Q152.612 1439.16 152.612 1447.91 Q152.612 1456.63 149.533 1461.24 Q146.478 1465.82 140.668 1465.82 Q134.857 1465.82 131.779 1461.24 Q128.723 1456.63 128.723 1447.91 Q128.723 1439.16 131.779 1434.57 Q134.857 1429.97 140.668 1429.97 Z" fill="#000000" fill-rule="evenodd" fill-opacity="1" /><path clip-path="url(#clip610)" d="M 0 0 M83.2605 1139.76 L99.5798 1139.76 L99.5798 1143.7 L77.6355 1143.7 L77.6355 1139.76 Q80.2975 1137.01 84.8808 1132.38 Q89.4873 1127.72 90.6678 1126.38 Q92.9132 1123.86 93.7928 1122.12 Q94.6956 1120.36 94.6956 1118.67 Q94.6956 1115.92 92.7512 1114.18 Q90.8299 1112.45 87.728 1112.45 Q85.529 1112.45 83.0753 1113.21 Q80.6447 1113.97 77.867 1115.53 L77.867 1110.8 Q80.691 1109.67 83.1447 1109.09 Q85.5984 1108.51 87.6354 1108.51 Q93.0058 1108.51 96.2002 1111.2 Q99.3946 1113.88 99.3946 1118.37 Q99.3946 1120.5 98.5845 1122.42 Q97.7974 1124.32 95.691 1126.91 Q95.1123 1127.59 92.0104 1130.8 Q88.9086 1134 83.2605 1139.76 Z" fill="#000000" fill-rule="evenodd" fill-opacity="1" /><path clip-path="url(#clip610)" d="M 0 0 M104.696 1109.14 L123.052 1109.14 L123.052 1113.07 L108.978 1113.07 L108.978 1121.54 Q109.996 1121.2 111.015 1121.03 Q112.033 1120.85 113.052 1120.85 Q118.839 1120.85 122.219 1124.02 Q125.598 1127.19 125.598 1132.61 Q125.598 1138.19 122.126 1141.29 Q118.654 1144.37 112.334 1144.37 Q110.158 1144.37 107.89 1144 Q105.645 1143.63 103.237 1142.89 L103.237 1138.19 Q105.321 1139.32 107.543 1139.88 Q109.765 1140.43 112.242 1140.43 Q116.246 1140.43 118.584 1138.33 Q120.922 1136.22 120.922 1132.61 Q120.922 1129 118.584 1126.89 Q116.246 1124.78 112.242 1124.78 Q110.367 1124.78 108.492 1125.2 Q106.64 1125.62 104.696 1126.5 L104.696 1109.14 Z" fill="#000000" fill-rule="evenodd" fill-opacity="1" /><path clip-path="url(#clip610)" d="M 0 0 M140.668 1112.22 Q137.056 1112.22 135.228 1115.78 Q133.422 1119.32 133.422 1126.45 Q133.422 1133.56 135.228 1137.12 Q137.056 1140.66 140.668 1140.66 Q144.302 1140.66 146.107 1137.12 Q147.936 1133.56 147.936 1126.45 Q147.936 1119.32 146.107 1115.78 Q144.302 1112.22 140.668 1112.22 M140.668 1108.51 Q146.478 1108.51 149.533 1113.12 Q152.612 1117.7 152.612 1126.45 Q152.612 1135.18 149.533 1139.78 Q146.478 1144.37 140.668 1144.37 Q134.857 1144.37 131.779 1139.78 Q128.723 1135.18 128.723 1126.45 Q128.723 1117.7 131.779 1113.12 Q134.857 1108.51 140.668 1108.51 Z" fill="#000000" fill-rule="evenodd" fill-opacity="1" /><path clip-path="url(#clip610)" d="M 0 0 M77.6818 787.68 L96.0382 787.68 L96.0382 791.615 L81.9642 791.615 L81.9642 800.087 Q82.9827 799.74 84.0012 799.578 Q85.0197 799.393 86.0382 799.393 Q91.8252 799.393 95.2049 802.564 Q98.5845 805.735 98.5845 811.152 Q98.5845 816.731 95.1123 819.833 Q91.6401 822.911 85.3206 822.911 Q83.1447 822.911 80.8762 822.541 Q78.6309 822.171 76.2235 821.43 L76.2235 816.731 Q78.3068 817.865 80.529 818.421 Q82.7512 818.976 85.2281 818.976 Q89.2327 818.976 91.5706 816.87 Q93.9086 814.763 93.9086 811.152 Q93.9086 807.541 91.5706 805.435 Q89.2327 803.328 85.2281 803.328 Q83.3531 803.328 81.4781 803.745 Q79.6262 804.161 77.6818 805.041 L77.6818 787.68 Z" fill="#000000" fill-rule="evenodd" fill-opacity="1" /><path clip-path="url(#clip610)" d="M 0 0 M113.654 790.759 Q110.043 790.759 108.214 794.323 Q106.408 797.865 106.408 804.995 Q106.408 812.101 108.214 815.666 Q110.043 819.208 113.654 819.208 Q117.288 819.208 119.094 815.666 Q120.922 812.101 120.922 804.995 Q120.922 797.865 119.094 794.323 Q117.288 790.759 113.654 790.759 M113.654 787.055 Q119.464 787.055 122.52 791.661 Q125.598 796.245 125.598 804.995 Q125.598 813.722 122.52 818.328 Q119.464 822.911 113.654 822.911 Q107.844 822.911 104.765 818.328 Q101.709 813.722 101.709 804.995 Q101.709 796.245 104.765 791.661 Q107.844 787.055 113.654 787.055 Z" fill="#000000" fill-rule="evenodd" fill-opacity="1" /><path clip-path="url(#clip610)" d="M 0 0 M140.668 790.759 Q137.056 790.759 135.228 794.323 Q133.422 797.865 133.422 804.995 Q133.422 812.101 135.228 815.666 Q137.056 819.208 140.668 819.208 Q144.302 819.208 146.107 815.666 Q147.936 812.101 147.936 804.995 Q147.936 797.865 146.107 794.323 Q144.302 790.759 140.668 790.759 M140.668 787.055 Q146.478 787.055 149.533 791.661 Q152.612 796.245 152.612 804.995 Q152.612 813.722 149.533 818.328 Q146.478 822.911 140.668 822.911 Q134.857 822.911 131.779 818.328 Q128.723 813.722 128.723 804.995 Q128.723 796.245 131.779 791.661 Q134.857 787.055 140.668 787.055 Z" fill="#000000" fill-rule="evenodd" fill-opacity="1" /><path clip-path="url(#clip610)" d="M 0 0 M77.3577 466.223 L99.5798 466.223 L99.5798 468.214 L87.0336 500.783 L82.1494 500.783 L93.9549 470.159 L77.3577 470.159 L77.3577 466.223 Z" fill="#000000" fill-rule="evenodd" fill-opacity="1" /><path clip-path="url(#clip610)" d="M 0 0 M104.696 466.223 L123.052 466.223 L123.052 470.159 L108.978 470.159 L108.978 478.631 Q109.996 478.284 111.015 478.122 Q112.033 477.936 113.052 477.936 Q118.839 477.936 122.219 481.108 Q125.598 484.279 125.598 489.696 Q125.598 495.274 122.126 498.376 Q118.654 501.455 112.334 501.455 Q110.158 501.455 107.89 501.084 Q105.645 500.714 103.237 499.973 L103.237 495.274 Q105.321 496.408 107.543 496.964 Q109.765 497.52 112.242 497.52 Q116.246 497.52 118.584 495.413 Q120.922 493.307 120.922 489.696 Q120.922 486.084 118.584 483.978 Q116.246 481.872 112.242 481.872 Q110.367 481.872 108.492 482.288 Q106.64 482.705 104.696 483.584 L104.696 466.223 Z" fill="#000000" fill-rule="evenodd" fill-opacity="1" /><path clip-path="url(#clip610)" d="M 0 0 M140.668 469.302 Q137.056 469.302 135.228 472.867 Q133.422 476.409 133.422 483.538 Q133.422 490.645 135.228 494.209 Q137.056 497.751 140.668 497.751 Q144.302 497.751 146.107 494.209 Q147.936 490.645 147.936 483.538 Q147.936 476.409 146.107 472.867 Q144.302 469.302 140.668 469.302 M140.668 465.598 Q146.478 465.598 149.533 470.205 Q152.612 474.788 152.612 483.538 Q152.612 492.265 149.533 496.871 Q146.478 501.455 140.668 501.455 Q134.857 501.455 131.779 496.871 Q128.723 492.265 128.723 483.538 Q128.723 474.788 131.779 470.205 Q134.857 465.598 140.668 465.598 Z" fill="#000000" fill-rule="evenodd" fill-opacity="1" /><path clip-path="url(#clip610)" d="M 0 0 M51.6634 175.392 L59.3023 175.392 L59.3023 149.026 L50.9921 150.693 L50.9921 146.434 L59.256 144.767 L63.9319 144.767 L63.9319 175.392 L71.5707 175.392 L71.5707 179.327 L51.6634 179.327 L51.6634 175.392 Z" fill="#000000" fill-rule="evenodd" fill-opacity="1" /><path clip-path="url(#clip610)" d="M 0 0 M86.6401 147.846 Q83.029 147.846 81.2003 151.41 Q79.3948 154.952 79.3948 162.082 Q79.3948 169.188 81.2003 172.753 Q83.029 176.295 86.6401 176.295 Q90.2743 176.295 92.0799 172.753 Q93.9086 169.188 93.9086 162.082 Q93.9086 154.952 92.0799 151.41 Q90.2743 147.846 86.6401 147.846 M86.6401 144.142 Q92.4502 144.142 95.5058 148.748 Q98.5845 153.332 98.5845 162.082 Q98.5845 170.808 95.5058 175.415 Q92.4502 179.998 86.6401 179.998 Q80.8299 179.998 77.7512 175.415 Q74.6957 170.808 74.6957 162.082 Q74.6957 153.332 77.7512 148.748 Q80.8299 144.142 86.6401 144.142 Z" fill="#000000" fill-rule="evenodd" fill-opacity="1" /><path clip-path="url(#clip610)" d="M 0 0 M113.654 147.846 Q110.043 147.846 108.214 151.41 Q106.408 154.952 106.408 162.082 Q106.408 169.188 108.214 172.753 Q110.043 176.295 113.654 176.295 Q117.288 176.295 119.094 172.753 Q120.922 169.188 120.922 162.082 Q120.922 154.952 119.094 151.41 Q117.288 147.846 113.654 147.846 M113.654 144.142 Q119.464 144.142 122.52 148.748 Q125.598 153.332 125.598 162.082 Q125.598 170.808 122.52 175.415 Q119.464 179.998 113.654 179.998 Q107.844 179.998 104.765 175.415 Q101.709 170.808 101.709 162.082 Q101.709 153.332 104.765 148.748 Q107.844 144.142 113.654 144.142 Z" fill="#000000" fill-rule="evenodd" fill-opacity="1" /><path clip-path="url(#clip610)" d="M 0 0 M140.668 147.846 Q137.056 147.846 135.228 151.41 Q133.422 154.952 133.422 162.082 Q133.422 169.188 135.228 172.753 Q137.056 176.295 140.668 176.295 Q144.302 176.295 146.107 172.753 Q147.936 169.188 147.936 162.082 Q147.936 154.952 146.107 151.41 Q144.302 147.846 140.668 147.846 M140.668 144.142 Q146.478 144.142 149.533 148.748 Q152.612 153.332 152.612 162.082 Q152.612 170.808 149.533 175.415 Q146.478 179.998 140.668 179.998 Q134.857 179.998 131.779 175.415 Q128.723 170.808 128.723 162.082 Q128.723 153.332 131.779 148.748 Q134.857 144.142 140.668 144.142 Z" fill="#000000" fill-rule="evenodd" fill-opacity="1" /><path clip-path="url(#clip610)" d="M 0 0 M708.661 18.8205 L708.661 65.8515 L718.546 65.8515 Q731.063 65.8515 736.856 60.1802 Q742.689 54.509 742.689 42.2752 Q742.689 30.1225 736.856 24.4918 Q731.063 18.8205 718.546 18.8205 L708.661 18.8205 M700.479 12.096 L717.29 12.096 Q734.871 12.096 743.094 19.4281 Q751.317 26.7198 751.317 42.2752 Q751.317 57.9117 743.054 65.2439 Q734.79 72.576 717.29 72.576 L700.479 72.576 L700.479 12.096 Z" fill="#000000" fill-rule="evenodd" fill-opacity="1" /><path clip-path="url(#clip610)" d="M 0 0 M779.755 49.7694 Q770.721 49.7694 767.238 51.8354 Q763.754 53.9013 763.754 58.8839 Q763.754 62.8538 766.346 65.2034 Q768.979 67.5124 773.476 67.5124 Q779.674 67.5124 783.401 63.1374 Q787.168 58.7219 787.168 51.4303 L787.168 49.7694 L779.755 49.7694 M794.622 46.6907 L794.622 72.576 L787.168 72.576 L787.168 65.6895 Q784.616 69.8214 780.808 71.8063 Q777 73.7508 771.491 73.7508 Q764.523 73.7508 760.392 69.8619 Q756.3 65.9325 756.3 59.3701 Q756.3 51.7138 761.404 47.825 Q766.549 43.9361 776.717 43.9361 L787.168 43.9361 L787.168 43.2069 Q787.168 38.0623 783.765 35.2672 Q780.403 32.4315 774.286 32.4315 Q770.397 32.4315 766.711 33.3632 Q763.025 34.295 759.622 36.1584 L759.622 29.2718 Q763.713 27.692 767.562 26.9223 Q771.41 26.1121 775.056 26.1121 Q784.899 26.1121 789.761 31.2163 Q794.622 36.3204 794.622 46.6907 Z" fill="#000000" fill-rule="evenodd" fill-opacity="1" /><path clip-path="url(#clip610)" d="M 0 0 M809.813 14.324 L809.813 27.2059 L825.165 27.2059 L825.165 32.9987 L809.813 32.9987 L809.813 57.6282 Q809.813 63.1779 811.311 64.7578 Q812.851 66.3376 817.509 66.3376 L825.165 66.3376 L825.165 72.576 L817.509 72.576 Q808.881 72.576 805.6 69.3758 Q802.318 66.1351 802.318 57.6282 L802.318 32.9987 L796.85 32.9987 L796.85 27.2059 L802.318 27.2059 L802.318 14.324 L809.813 14.324 Z" fill="#000000" fill-rule="evenodd" fill-opacity="1" /><path clip-path="url(#clip610)" d="M 0 0 M853.603 49.7694 Q844.569 49.7694 841.086 51.8354 Q837.602 53.9013 837.602 58.8839 Q837.602 62.8538 840.194 65.2034 Q842.827 67.5124 847.324 67.5124 Q853.522 67.5124 857.249 63.1374 Q861.016 58.7219 861.016 51.4303 L861.016 49.7694 L853.603 49.7694 M868.47 46.6907 L868.47 72.576 L861.016 72.576 L861.016 65.6895 Q858.464 69.8214 854.656 71.8063 Q850.848 73.7508 845.339 73.7508 Q838.371 73.7508 834.24 69.8619 Q830.148 65.9325 830.148 59.3701 Q830.148 51.7138 835.252 47.825 Q840.397 43.9361 850.565 43.9361 L861.016 43.9361 L861.016 43.2069 Q861.016 38.0623 857.613 35.2672 Q854.251 32.4315 848.134 32.4315 Q844.245 32.4315 840.559 33.3632 Q836.873 34.295 833.47 36.1584 L833.47 29.2718 Q837.561 27.692 841.41 26.9223 Q845.258 26.1121 848.904 26.1121 Q858.747 26.1121 863.609 31.2163 Q868.47 36.3204 868.47 46.6907 Z" fill="#000000" fill-rule="evenodd" fill-opacity="1" /><path clip-path="url(#clip610)" d="M 0 0 M923.278 49.7694 Q914.245 49.7694 910.761 51.8354 Q907.277 53.9013 907.277 58.8839 Q907.277 62.8538 909.87 65.2034 Q912.503 67.5124 916.999 67.5124 Q923.197 67.5124 926.924 63.1374 Q930.692 58.7219 930.692 51.4303 L930.692 49.7694 L923.278 49.7694 M938.145 46.6907 L938.145 72.576 L930.692 72.576 L930.692 65.6895 Q928.139 69.8214 924.332 71.8063 Q920.524 73.7508 915.015 73.7508 Q908.047 73.7508 903.915 69.8619 Q899.824 65.9325 899.824 59.3701 Q899.824 51.7138 904.928 47.825 Q910.072 43.9361 920.24 43.9361 L930.692 43.9361 L930.692 43.2069 Q930.692 38.0623 927.289 35.2672 Q923.927 32.4315 917.81 32.4315 Q913.921 32.4315 910.234 33.3632 Q906.548 34.295 903.145 36.1584 L903.145 29.2718 Q907.237 27.692 911.085 26.9223 Q914.934 26.1121 918.579 26.1121 Q928.423 26.1121 933.284 31.2163 Q938.145 36.3204 938.145 46.6907 Z" fill="#000000" fill-rule="evenodd" fill-opacity="1" /><path clip-path="url(#clip610)" d="M 0 0 M983.677 45.1919 L983.677 72.576 L976.224 72.576 L976.224 45.4349 Q976.224 38.994 973.712 35.7938 Q971.201 32.5936 966.177 32.5936 Q960.142 32.5936 956.658 36.4419 Q953.174 40.2903 953.174 46.9338 L953.174 72.576 L945.68 72.576 L945.68 27.2059 L953.174 27.2059 L953.174 34.2544 Q955.848 30.163 959.453 28.1376 Q963.099 26.1121 967.838 26.1121 Q975.657 26.1121 979.667 30.9732 Q983.677 35.7938 983.677 45.1919 Z" fill="#000000" fill-rule="evenodd" fill-opacity="1" /><path clip-path="url(#clip610)" d="M 0 0 M1021.35 34.0924 L1021.35 9.54393 L1028.8 9.54393 L1028.8 72.576 L1021.35 72.576 L1021.35 65.7705 Q1019 69.8214 1015.4 71.8063 Q1011.83 73.7508 1006.81 73.7508 Q998.585 73.7508 993.4 67.1883 Q988.255 60.6258 988.255 49.9314 Q988.255 39.2371 993.4 32.6746 Q998.585 26.1121 1006.81 26.1121 Q1011.83 26.1121 1015.4 28.0971 Q1019 30.0415 1021.35 34.0924 M995.952 49.9314 Q995.952 58.1548 999.314 62.8538 Q1002.72 67.5124 1008.63 67.5124 Q1014.55 67.5124 1017.95 62.8538 Q1021.35 58.1548 1021.35 49.9314 Q1021.35 41.7081 1017.95 37.0496 Q1014.55 32.3505 1008.63 32.3505 Q1002.72 32.3505 999.314 37.0496 Q995.952 41.7081 995.952 49.9314 Z" fill="#000000" fill-rule="evenodd" fill-opacity="1" /><path clip-path="url(#clip610)" d="M 0 0 M1054.93 12.096 L1106.1 12.096 L1106.1 18.9825 L1084.63 18.9825 L1084.63 72.576 L1076.4 72.576 L1076.4 18.9825 L1054.93 18.9825 L1054.93 12.096 Z" fill="#000000" fill-rule="evenodd" fill-opacity="1" /><path clip-path="url(#clip610)" d="M 0 0 M1128.01 34.1734 Q1126.76 33.4443 1125.26 33.1202 Q1123.8 32.7556 1122.02 32.7556 Q1115.7 32.7556 1112.29 36.8875 Q1108.93 40.9789 1108.93 48.6757 L1108.93 72.576 L1101.44 72.576 L1101.44 27.2059 L1108.93 27.2059 L1108.93 34.2544 Q1111.28 30.1225 1115.05 28.1376 Q1118.82 26.1121 1124.2 26.1121 Q1124.97 26.1121 1125.9 26.2337 Q1126.84 26.3147 1127.97 26.5172 L1128.01 34.1734 Z" fill="#000000" fill-rule="evenodd" fill-opacity="1" /><path clip-path="url(#clip610)" d="M 0 0 M1135.06 54.671 L1135.06 27.2059 L1142.51 27.2059 L1142.51 54.3874 Q1142.51 60.8284 1145.02 64.0691 Q1147.54 67.2693 1152.56 67.2693 Q1158.6 67.2693 1162.08 63.421 Q1165.6 59.5726 1165.6 52.9291 L1165.6 27.2059 L1173.06 27.2059 L1173.06 72.576 L1165.6 72.576 L1165.6 65.6084 Q1162.89 69.7404 1159.28 71.7658 Q1155.72 73.7508 1150.98 73.7508 Q1143.16 73.7508 1139.11 68.8897 Q1135.06 64.0286 1135.06 54.671 M1153.82 26.1121 L1153.82 26.1121 Z" fill="#000000" fill-rule="evenodd" fill-opacity="1" /><path clip-path="url(#clip610)" d="M 0 0 M1219.68 48.0275 L1219.68 51.6733 L1185.41 51.6733 Q1185.9 59.3701 1190.03 63.421 Q1194.2 67.4314 1201.62 67.4314 Q1205.91 67.4314 1209.92 66.3781 Q1213.97 65.3249 1217.94 63.2184 L1217.94 70.267 Q1213.93 71.9684 1209.72 72.8596 Q1205.5 73.7508 1201.17 73.7508 Q1190.31 73.7508 1183.95 67.4314 Q1177.63 61.1119 1177.63 50.3365 Q1177.63 39.1965 1183.63 32.6746 Q1189.67 26.1121 1199.87 26.1121 Q1209.03 26.1121 1214.34 32.0264 Q1219.68 37.9003 1219.68 48.0275 M1212.23 45.84 Q1212.15 39.7232 1208.79 36.0774 Q1205.46 32.4315 1199.96 32.4315 Q1193.72 32.4315 1189.95 35.9558 Q1186.22 39.4801 1185.66 45.8805 L1212.23 45.84 Z" fill="#000000" fill-rule="evenodd" fill-opacity="1" /><path clip-path="url(#clip610)" d="M 0 0 M1290.45 14.0809 L1290.45 22.0612 Q1285.79 19.8332 1281.66 18.7395 Q1277.53 17.6457 1273.68 17.6457 Q1267 17.6457 1263.35 20.2383 Q1259.75 22.8309 1259.75 27.611 Q1259.75 31.6214 1262.14 33.6873 Q1264.57 35.7128 1271.29 36.9686 L1276.23 37.9813 Q1285.39 39.7232 1289.72 44.1387 Q1294.1 48.5136 1294.1 55.8863 Q1294.1 64.6767 1288.18 69.2137 Q1282.31 73.7508 1270.93 73.7508 Q1266.63 73.7508 1261.77 72.7785 Q1256.95 71.8063 1251.77 69.9024 L1251.77 61.4765 Q1256.75 64.2716 1261.53 65.6895 Q1266.31 67.1073 1270.93 67.1073 Q1277.94 67.1073 1281.74 64.3527 Q1285.55 61.598 1285.55 56.4939 Q1285.55 52.0379 1282.8 49.5264 Q1280.08 47.0148 1273.84 45.759 L1268.86 44.7868 Q1259.71 42.9639 1255.61 39.075 Q1251.52 35.1862 1251.52 28.2591 Q1251.52 20.2383 1257.15 15.6203 Q1262.83 11.0023 1272.75 11.0023 Q1277 11.0023 1281.42 11.7719 Q1285.83 12.5416 1290.45 14.0809 Z" fill="#000000" fill-rule="evenodd" fill-opacity="1" /><path clip-path="url(#clip610)" d="M 0 0 M1309.29 14.324 L1309.29 27.2059 L1324.64 27.2059 L1324.64 32.9987 L1309.29 32.9987 L1309.29 57.6282 Q1309.29 63.1779 1310.79 64.7578 Q1312.33 66.3376 1316.99 66.3376 L1324.64 66.3376 L1324.64 72.576 L1316.99 72.576 Q1308.36 72.576 1305.08 69.3758 Q1301.79 66.1351 1301.79 57.6282 L1301.79 32.9987 L1296.33 32.9987 L1296.33 27.2059 L1301.79 27.2059 L1301.79 14.324 L1309.29 14.324 Z" fill="#000000" fill-rule="evenodd" fill-opacity="1" /><path clip-path="url(#clip610)" d="M 0 0 M1353.08 49.7694 Q1344.05 49.7694 1340.56 51.8354 Q1337.08 53.9013 1337.08 58.8839 Q1337.08 62.8538 1339.67 65.2034 Q1342.3 67.5124 1346.8 67.5124 Q1353 67.5124 1356.73 63.1374 Q1360.49 58.7219 1360.49 51.4303 L1360.49 49.7694 L1353.08 49.7694 M1367.95 46.6907 L1367.95 72.576 L1360.49 72.576 L1360.49 65.6895 Q1357.94 69.8214 1354.13 71.8063 Q1350.32 73.7508 1344.82 73.7508 Q1337.85 73.7508 1333.72 69.8619 Q1329.62 65.9325 1329.62 59.3701 Q1329.62 51.7138 1334.73 47.825 Q1339.87 43.9361 1350.04 43.9361 L1360.49 43.9361 L1360.49 43.2069 Q1360.49 38.0623 1357.09 35.2672 Q1353.73 32.4315 1347.61 32.4315 Q1343.72 32.4315 1340.04 33.3632 Q1336.35 34.295 1332.95 36.1584 L1332.95 29.2718 Q1337.04 27.692 1340.89 26.9223 Q1344.73 26.1121 1348.38 26.1121 Q1358.22 26.1121 1363.09 31.2163 Q1367.95 36.3204 1367.95 46.6907 Z" fill="#000000" fill-rule="evenodd" fill-opacity="1" /><path clip-path="url(#clip610)" d="M 0 0 M1383.14 14.324 L1383.14 27.2059 L1398.49 27.2059 L1398.49 32.9987 L1383.14 32.9987 L1383.14 57.6282 Q1383.14 63.1779 1384.64 64.7578 Q1386.18 66.3376 1390.83 66.3376 L1398.49 66.3376 L1398.49 72.576 L1390.83 72.576 Q1382.21 72.576 1378.92 69.3758 Q1375.64 66.1351 1375.64 57.6282 L1375.64 32.9987 L1370.17 32.9987 L1370.17 27.2059 L1375.64 27.2059 L1375.64 14.324 L1383.14 14.324 Z" fill="#000000" fill-rule="evenodd" fill-opacity="1" /><path clip-path="url(#clip610)" d="M 0 0 M1406.31 27.2059 L1413.76 27.2059 L1413.76 72.576 L1406.31 72.576 L1406.31 27.2059 M1406.31 9.54393 L1413.76 9.54393 L1413.76 18.9825 L1406.31 18.9825 L1406.31 9.54393 Z" fill="#000000" fill-rule="evenodd" fill-opacity="1" /><path clip-path="url(#clip610)" d="M 0 0 M1450.5 28.5427 L1450.5 35.5912 Q1447.34 33.9709 1443.94 33.1607 Q1440.54 32.3505 1436.89 32.3505 Q1431.34 32.3505 1428.55 34.0519 Q1425.79 35.7533 1425.79 39.156 Q1425.79 41.7486 1427.78 43.2475 Q1429.76 44.7058 1435.76 46.0426 L1438.31 46.6097 Q1446.25 48.3111 1449.57 51.4303 Q1452.93 54.509 1452.93 60.0587 Q1452.93 66.3781 1447.91 70.0644 Q1442.93 73.7508 1434.18 73.7508 Q1430.53 73.7508 1426.56 73.0216 Q1422.63 72.3329 1418.26 70.9151 L1418.26 63.2184 Q1422.39 65.3654 1426.4 66.4591 Q1430.41 67.5124 1434.34 67.5124 Q1439.61 67.5124 1442.44 65.73 Q1445.28 63.9071 1445.28 60.6258 Q1445.28 57.5877 1443.21 55.9673 Q1441.19 54.3469 1434.26 52.8481 L1431.67 52.2405 Q1424.74 50.7821 1421.66 47.7845 Q1418.58 44.7463 1418.58 39.4801 Q1418.58 33.0797 1423.12 29.5959 Q1427.66 26.1121 1436 26.1121 Q1440.13 26.1121 1443.78 26.7198 Q1447.42 27.3274 1450.5 28.5427 Z" fill="#000000" fill-rule="evenodd" fill-opacity="1" /><path clip-path="url(#clip610)" d="M 0 0 M1468.13 14.324 L1468.13 27.2059 L1483.48 27.2059 L1483.48 32.9987 L1468.13 32.9987 L1468.13 57.6282 Q1468.13 63.1779 1469.62 64.7578 Q1471.16 66.3376 1475.82 66.3376 L1483.48 66.3376 L1483.48 72.576 L1475.82 72.576 Q1467.19 72.576 1463.91 69.3758 Q1460.63 66.1351 1460.63 57.6282 L1460.63 32.9987 L1455.16 32.9987 L1455.16 27.2059 L1460.63 27.2059 L1460.63 14.324 L1468.13 14.324 Z" fill="#000000" fill-rule="evenodd" fill-opacity="1" /><path clip-path="url(#clip610)" d="M 0 0 M1491.3 27.2059 L1498.75 27.2059 L1498.75 72.576 L1491.3 72.576 L1491.3 27.2059 M1491.3 9.54393 L1498.75 9.54393 L1498.75 18.9825 L1491.3 18.9825 L1491.3 9.54393 Z" fill="#000000" fill-rule="evenodd" fill-opacity="1" /><path clip-path="url(#clip610)" d="M 0 0 M1539.22 28.9478 L1539.22 35.9153 Q1536.06 34.1734 1532.86 33.3227 Q1529.7 32.4315 1526.46 32.4315 Q1519.21 32.4315 1515.2 37.0496 Q1511.19 41.6271 1511.19 49.9314 Q1511.19 58.2358 1515.2 62.8538 Q1519.21 67.4314 1526.46 67.4314 Q1529.7 67.4314 1532.86 66.5807 Q1536.06 65.6895 1539.22 63.9476 L1539.22 70.8341 Q1536.1 72.2924 1532.74 73.0216 Q1529.42 73.7508 1525.65 73.7508 Q1515.4 73.7508 1509.36 67.3098 Q1503.33 60.8689 1503.33 49.9314 Q1503.33 38.832 1509.4 32.472 Q1515.52 26.1121 1526.13 26.1121 Q1529.58 26.1121 1532.86 26.8413 Q1536.14 27.5299 1539.22 28.9478 Z" fill="#000000" fill-rule="evenodd" fill-opacity="1" /><path clip-path="url(#clip610)" d="M 0 0 M1567.66 49.7694 Q1558.62 49.7694 1555.14 51.8354 Q1551.65 53.9013 1551.65 58.8839 Q1551.65 62.8538 1554.25 65.2034 Q1556.88 67.5124 1561.38 67.5124 Q1567.57 67.5124 1571.3 63.1374 Q1575.07 58.7219 1575.07 51.4303 L1575.07 49.7694 L1567.66 49.7694 M1582.52 46.6907 L1582.52 72.576 L1575.07 72.576 L1575.07 65.6895 Q1572.52 69.8214 1568.71 71.8063 Q1564.9 73.7508 1559.39 73.7508 Q1552.42 73.7508 1548.29 69.8619 Q1544.2 65.9325 1544.2 59.3701 Q1544.2 51.7138 1549.31 47.825 Q1554.45 43.9361 1564.62 43.9361 L1575.07 43.9361 L1575.07 43.2069 Q1575.07 38.0623 1571.67 35.2672 Q1568.3 32.4315 1562.19 32.4315 Q1558.3 32.4315 1554.61 33.3632 Q1550.93 34.295 1547.52 36.1584 L1547.52 29.2718 Q1551.61 27.692 1555.46 26.9223 Q1559.31 26.1121 1562.96 26.1121 Q1572.8 26.1121 1577.66 31.2163 Q1582.52 36.3204 1582.52 46.6907 Z" fill="#000000" fill-rule="evenodd" fill-opacity="1" /><path clip-path="url(#clip610)" d="M 0 0 M1590.34 9.54393 L1597.79 9.54393 L1597.79 72.576 L1590.34 72.576 L1590.34 9.54393 Z" fill="#000000" fill-rule="evenodd" fill-opacity="1" /><path clip-path="url(#clip610)" d="M 0 0 M1632.31 12.096 L1644.5 12.096 L1659.94 53.2532 L1675.45 12.096 L1687.64 12.096 L1687.64 72.576 L1679.66 72.576 L1679.66 19.4686 L1664.07 60.9499 L1655.84 60.9499 L1640.25 19.4686 L1640.25 72.576 L1632.31 72.576 L1632.31 12.096 Z" fill="#000000" fill-rule="evenodd" fill-opacity="1" /><path clip-path="url(#clip610)" d="M 0 0 M1713.04 32.4315 Q1707.05 32.4315 1703.56 37.1306 Q1700.08 41.7891 1700.08 49.9314 Q1700.08 58.0738 1703.52 62.7728 Q1707.01 67.4314 1713.04 67.4314 Q1719 67.4314 1722.48 62.7323 Q1725.97 58.0333 1725.97 49.9314 Q1725.97 41.8701 1722.48 37.1711 Q1719 32.4315 1713.04 32.4315 M1713.04 26.1121 Q1722.76 26.1121 1728.31 32.4315 Q1733.86 38.7509 1733.86 49.9314 Q1733.86 61.0714 1728.31 67.4314 Q1722.76 73.7508 1713.04 73.7508 Q1703.28 73.7508 1697.73 67.4314 Q1692.22 61.0714 1692.22 49.9314 Q1692.22 38.7509 1697.73 32.4315 Q1703.28 26.1121 1713.04 26.1121 Z" fill="#000000" fill-rule="evenodd" fill-opacity="1" /><path clip-path="url(#clip610)" d="M 0 0 M1771.54 34.0924 L1771.54 9.54393 L1778.99 9.54393 L1778.99 72.576 L1771.54 72.576 L1771.54 65.7705 Q1769.19 69.8214 1765.58 71.8063 Q1762.02 73.7508 1756.99 73.7508 Q1748.77 73.7508 1743.59 67.1883 Q1738.44 60.6258 1738.44 49.9314 Q1738.44 39.2371 1743.59 32.6746 Q1748.77 26.1121 1756.99 26.1121 Q1762.02 26.1121 1765.58 28.0971 Q1769.19 30.0415 1771.54 34.0924 M1746.14 49.9314 Q1746.14 58.1548 1749.5 62.8538 Q1752.9 67.5124 1758.82 67.5124 Q1764.73 67.5124 1768.13 62.8538 Q1771.54 58.1548 1771.54 49.9314 Q1771.54 41.7081 1768.13 37.0496 Q1764.73 32.3505 1758.82 32.3505 Q1752.9 32.3505 1749.5 37.0496 Q1746.14 41.7081 1746.14 49.9314 Z" fill="#000000" fill-rule="evenodd" fill-opacity="1" /><path clip-path="url(#clip610)" d="M 0 0 M1825.62 48.0275 L1825.62 51.6733 L1791.35 51.6733 Q1791.83 59.3701 1795.96 63.421 Q1800.14 67.4314 1807.55 67.4314 Q1811.84 67.4314 1815.85 66.3781 Q1819.91 65.3249 1823.88 63.2184 L1823.88 70.267 Q1819.87 71.9684 1815.65 72.8596 Q1811.44 73.7508 1807.1 73.7508 Q1796.25 73.7508 1789.89 67.4314 Q1783.57 61.1119 1783.57 50.3365 Q1783.57 39.1965 1789.56 32.6746 Q1795.6 26.1121 1805.81 26.1121 Q1814.96 26.1121 1820.27 32.0264 Q1825.62 37.9003 1825.62 48.0275 M1818.16 45.84 Q1818.08 39.7232 1814.72 36.0774 Q1811.4 32.4315 1805.89 32.4315 Q1799.65 32.4315 1795.88 35.9558 Q1792.16 39.4801 1791.59 45.8805 L1818.16 45.84 Z" fill="#000000" fill-rule="evenodd" fill-opacity="1" /><path clip-path="url(#clip610)" d="M 0 0 M1833.44 9.54393 L1840.89 9.54393 L1840.89 72.576 L1833.44 72.576 L1833.44 9.54393 Z" fill="#000000" fill-rule="evenodd" fill-opacity="1" /><polyline clip-path="url(#clip612)" style="stroke:#009af9; stroke-width:4; stroke-opacity:1; fill:none" points="
  760.273,1447.87 760.273,1383.58 785.793,1383.58 785.793,1332.15 811.314,1332.15 811.314,1242.14 836.834,1242.14 836.834,1255 862.355,1255 862.355,1152.13 
  887.875,1152.13 887.875,1139.27 913.396,1139.27 913.396,1049.27 938.917,1049.27 938.917,1190.71 964.437,1190.71 964.437,984.976 989.958,984.976 989.958,856.393 
  1015.48,856.393 1015.48,817.818 1041,817.818 1041,894.968 1066.52,894.968 1066.52,1113.56 1092.04,1113.56 1092.04,1049.27 1117.56,1049.27 1117.56,1139.27 
  1143.08,1139.27 1143.08,1100.7 1168.6,1100.7 1168.6,1203.57 1194.12,1203.57 1194.12,1267.86 1219.64,1267.86 1219.64,1280.72 1245.16,1280.72 1245.16,1319.29 
  1270.68,1319.29 1270.68,1357.87 1296.2,1357.87 1296.2,1396.44 1321.73,1396.44 1321.73,1447.87 1347.25,1447.87 1372.77,1447.87 1372.77,1435.01 
  1398.29,1435.01 1423.81,1435.01 1423.81,1422.16 1449.33,1422.16 1449.33,1396.44 1474.85,1396.44 1474.85,1345.01 1500.37,1345.01 1500.37,1383.58 
  1525.89,1383.58 1525.89,1267.86 1551.41,1267.86 1576.93,1267.86 1576.93,984.976 1602.45,984.976 1602.45,959.259 1627.97,959.259 1627.97,920.684 
  1653.49,920.684 1653.49,753.527 1679.01,753.527 1679.01,637.803 1704.53,637.803 1704.53,406.354 1730.05,406.354 1730.05,586.37 1755.57,586.37 1755.57,162.047 
  1781.1,162.047 1781.1,393.496 1806.62,393.496 1806.62,457.787 1832.14,457.787 1832.14,676.377 1857.66,676.377 1857.66,573.511 1883.18,573.511 1883.18,804.96 
  1908.7,804.96 1908.7,1087.84 1934.22,1087.84 1934.22,1074.98 1959.74,1074.98 1959.74,1126.42 1985.26,1126.42 1985.26,1203.57 2010.78,1203.57 2010.78,1293.57 
  2036.3,1293.57 2036.3,1370.72 2061.82,1370.72 2087.34,1370.72 2112.86,1370.72 2112.86,1447.87 2138.38,1447.87 2138.38,1435.01 
  2163.9,1435.01 2163.9,1447.87 2189.42,1447.87 2214.94,1447.87 2240.47,1447.87 2265.99,1447.87 
  2291.51,1447.87 
  "/>
<polyline clip-path="url(#clip612)" style="stroke:#e26f46; stroke-width:4; stroke-opacity:1; fill:none" points="
  249.861,1447.87 252.413,1447.87 254.965,1447.87 257.517,1447.87 260.07,1447.87 262.622,1447.87 265.174,1447.87 267.726,1447.87 270.278,1447.87 272.83,1447.87 
  275.382,1447.87 277.934,1447.87 280.486,1447.87 283.038,1447.87 285.59,1447.87 288.142,1447.87 290.694,1447.87 293.246,1447.87 295.798,1447.87 298.35,1447.87 
  300.902,1447.87 303.454,1447.87 306.007,1447.87 308.559,1447.87 311.111,1447.87 313.663,1447.87 316.215,1447.87 318.767,1447.87 321.319,1447.87 323.871,1447.87 
  326.423,1447.87 328.975,1447.87 331.527,1447.87 334.079,1447.87 336.631,1447.87 339.183,1447.87 341.735,1447.87 344.287,1447.87 346.839,1447.87 349.392,1447.87 
  351.944,1447.87 354.496,1447.87 357.048,1447.87 359.6,1447.87 362.152,1447.87 364.704,1447.87 367.256,1447.87 369.808,1447.87 372.36,1447.87 374.912,1447.87 
  377.464,1447.87 380.016,1447.87 382.568,1447.87 385.12,1447.87 387.672,1447.87 390.224,1447.87 392.776,1447.87 395.329,1447.87 397.881,1447.87 400.433,1447.87 
  402.985,1447.87 405.537,1447.87 408.089,1447.87 410.641,1447.87 413.193,1447.87 415.745,1447.86 418.297,1447.86 420.849,1447.86 423.401,1447.86 425.953,1447.86 
  428.505,1447.86 431.057,1447.86 433.609,1447.86 436.161,1447.86 438.713,1447.85 441.266,1447.85 443.818,1447.85 446.37,1447.85 448.922,1447.85 451.474,1447.84 
  454.026,1447.84 456.578,1447.84 459.13,1447.83 461.682,1447.83 464.234,1447.83 466.786,1447.82 469.338,1447.82 471.89,1447.81 474.442,1447.81 476.994,1447.8 
  479.546,1447.8 482.098,1447.79 484.651,1447.78 487.203,1447.78 489.755,1447.77 492.307,1447.76 494.859,1447.75 497.411,1447.74 499.963,1447.73 502.515,1447.71 
  505.067,1447.7 507.619,1447.69 510.171,1447.67 512.723,1447.65 515.275,1447.64 517.827,1447.62 520.379,1447.6 522.931,1447.57 525.483,1447.55 528.035,1447.53 
  530.588,1447.5 533.14,1447.47 535.692,1447.44 538.244,1447.4 540.796,1447.37 543.348,1447.33 545.9,1447.29 548.452,1447.24 551.004,1447.19 553.556,1447.14 
  556.108,1447.09 558.66,1447.03 561.212,1446.97 563.764,1446.9 566.316,1446.83 568.868,1446.75 571.42,1446.67 573.972,1446.58 576.525,1446.49 579.077,1446.39 
  581.629,1446.29 584.181,1446.18 586.733,1446.06 589.285,1445.93 591.837,1445.8 594.389,1445.66 596.941,1445.51 599.493,1445.35 602.045,1445.18 604.597,1445 
  607.149,1444.81 609.701,1444.61 612.253,1444.39 614.805,1444.17 617.357,1443.93 619.91,1443.67 622.462,1443.4 625.014,1443.12 627.566,1442.82 630.118,1442.51 
  632.67,1442.17 635.222,1441.82 637.774,1441.45 640.326,1441.06 642.878,1440.65 645.43,1440.22 647.982,1439.76 650.534,1439.28 653.086,1438.78 655.638,1438.25 
  658.19,1437.7 660.742,1437.11 663.294,1436.5 665.847,1435.85 668.399,1435.18 670.951,1434.47 673.503,1433.73 676.055,1432.96 678.607,1432.15 681.159,1431.3 
  683.711,1430.41 686.263,1429.48 688.815,1428.51 691.367,1427.5 693.919,1426.44 696.471,1425.33 699.023,1424.18 701.575,1422.98 704.127,1421.73 706.679,1420.43 
  709.231,1419.08 711.784,1417.67 714.336,1416.2 716.888,1414.68 719.44,1413.09 721.992,1411.45 724.544,1409.74 727.096,1407.97 729.648,1406.13 732.2,1404.23 
  734.752,1402.26 737.304,1400.22 739.856,1398.1 742.408,1395.92 744.96,1393.65 747.512,1391.32 750.064,1388.9 752.616,1386.41 755.169,1383.84 757.721,1381.19 
  760.273,1378.45 762.825,1375.63 765.377,1372.73 767.929,1369.74 770.481,1366.66 773.033,1363.5 775.585,1360.25 778.137,1356.91 780.689,1353.48 783.241,1349.97 
  785.793,1346.36 788.345,1342.66 790.897,1338.87 793.449,1334.98 796.001,1331.01 798.553,1326.94 801.106,1322.79 803.658,1318.54 806.21,1314.2 808.762,1309.77 
  811.314,1305.25 813.866,1300.64 816.418,1295.94 818.97,1291.16 821.522,1286.29 824.074,1281.34 826.626,1276.3 829.178,1271.18 831.73,1265.98 834.282,1260.7 
  836.834,1255.35 839.386,1249.92 841.938,1244.42 844.49,1238.86 847.043,1233.22 849.595,1227.52 852.147,1221.76 854.699,1215.95 857.251,1210.08 859.803,1204.15 
  862.355,1198.18 864.907,1192.17 867.459,1186.12 870.011,1180.03 872.563,1173.9 875.115,1167.75 877.667,1161.58 880.219,1155.39 882.771,1149.18 885.323,1142.96 
  887.875,1136.74 890.428,1130.52 892.98,1124.3 895.532,1118.1 898.084,1111.9 900.636,1105.73 903.188,1099.59 905.74,1093.48 908.292,1087.4 910.844,1081.37 
  913.396,1075.38 915.948,1069.45 918.5,1063.58 921.052,1057.77 923.604,1052.03 926.156,1046.37 928.708,1040.79 931.26,1035.3 933.812,1029.9 936.365,1024.6 
  938.917,1019.4 941.469,1014.32 944.021,1009.35 946.573,1004.5 949.125,999.772 951.677,995.178 954.229,990.72 956.781,986.403 959.333,982.231 961.885,978.209 
  964.437,974.342 966.989,970.634 969.541,967.089 972.093,963.712 974.645,960.506 977.197,957.475 979.749,954.622 982.302,951.951 984.854,949.465 987.406,947.168 
  989.958,945.06 992.51,943.146 995.062,941.427 997.614,939.905 1000.17,938.583 1002.72,937.461 1005.27,936.542 1007.82,935.825 1010.37,935.313 1012.93,935.005 
  1015.48,934.903 1018.03,935.005 1020.58,935.313 1023.13,935.825 1025.69,936.542 1028.24,937.461 1030.79,938.583 1033.34,939.905 1035.89,941.427 1038.45,943.146 
  1041,945.06 1043.55,947.167 1046.1,949.465 1048.66,951.951 1051.21,954.622 1053.76,957.475 1056.31,960.506 1058.86,963.712 1061.42,967.089 1063.97,970.634 
  1066.52,974.342 1069.07,978.209 1071.62,982.23 1074.18,986.402 1076.73,990.72 1079.28,995.178 1081.83,999.772 1084.38,1004.5 1086.94,1009.35 1089.49,1014.32 
  1092.04,1019.4 1094.59,1024.6 1097.14,1029.9 1099.7,1035.3 1102.25,1040.79 1104.8,1046.37 1107.35,1052.03 1109.9,1057.77 1112.46,1063.57 1115.01,1069.45 
  1117.56,1075.38 1120.11,1081.36 1122.66,1087.4 1125.22,1093.47 1127.77,1099.59 1130.32,1105.73 1132.87,1111.9 1135.42,1118.09 1137.98,1124.3 1140.53,1130.52 
  1143.08,1136.74 1145.63,1142.96 1148.19,1149.17 1150.74,1155.38 1153.29,1161.57 1155.84,1167.75 1158.39,1173.9 1160.95,1180.02 1163.5,1186.11 1166.05,1192.16 
  1168.6,1198.17 1171.15,1204.14 1173.71,1210.06 1176.26,1215.93 1178.81,1221.75 1181.36,1227.51 1183.91,1233.2 1186.47,1238.84 1189.02,1244.4 1191.57,1249.9 
  1194.12,1255.32 1196.67,1260.67 1199.23,1265.95 1201.78,1271.14 1204.33,1276.26 1206.88,1281.29 1209.43,1286.25 1211.99,1291.11 1214.54,1295.89 1217.09,1300.58 
  1219.64,1305.18 1222.19,1309.7 1224.75,1314.12 1227.3,1318.45 1229.85,1322.69 1232.4,1326.84 1234.96,1330.9 1237.51,1334.86 1240.06,1338.74 1242.61,1342.52 
  1245.16,1346.21 1247.72,1349.8 1250.27,1353.31 1252.82,1356.72 1255.37,1360.04 1257.92,1363.27 1260.48,1366.42 1263.03,1369.47 1265.58,1372.44 1268.13,1375.31 
  1270.68,1378.11 1273.24,1380.81 1275.79,1383.44 1278.34,1385.97 1280.89,1388.43 1283.44,1390.81 1286,1393.1 1288.55,1395.32 1291.1,1397.46 1293.65,1399.52 
  1296.2,1401.51 1298.76,1403.42 1301.31,1405.26 1303.86,1407.03 1306.41,1408.73 1308.96,1410.36 1311.52,1411.92 1314.07,1413.41 1316.62,1414.84 1319.17,1416.2 
  1321.73,1417.5 1324.28,1418.74 1326.83,1419.92 1329.38,1421.03 1331.93,1422.09 1334.49,1423.09 1337.04,1424.03 1339.59,1424.92 1342.14,1425.75 1344.69,1426.52 
  1347.25,1427.24 1349.8,1427.9 1352.35,1428.52 1354.9,1429.08 1357.45,1429.59 1360.01,1430.04 1362.56,1430.45 1365.11,1430.8 1367.66,1431.11 1370.21,1431.36 
  1372.77,1431.56 1375.32,1431.72 1377.87,1431.82 1380.42,1431.87 1382.97,1431.87 1385.53,1431.82 1388.08,1431.72 1390.63,1431.56 1393.18,1431.35 1395.73,1431.09 
  1398.29,1430.78 1400.84,1430.41 1403.39,1429.98 1405.94,1429.5 1408.49,1428.96 1411.05,1428.36 1413.6,1427.71 1416.15,1426.99 1418.7,1426.21 1421.26,1425.36 
  1423.81,1424.45 1426.36,1423.47 1428.91,1422.43 1431.46,1421.31 1434.02,1420.12 1436.57,1418.86 1439.12,1417.52 1441.67,1416.1 1444.22,1414.6 1446.78,1413.02 
  1449.33,1411.36 1451.88,1409.61 1454.43,1407.76 1456.98,1405.83 1459.54,1403.8 1462.09,1401.67 1464.64,1399.45 1467.19,1397.12 1469.74,1394.69 1472.3,1392.15 
  1474.85,1389.5 1477.4,1386.73 1479.95,1383.85 1482.5,1380.85 1485.06,1377.73 1487.61,1374.48 1490.16,1371.1 1492.71,1367.6 1495.26,1363.96 1497.82,1360.18 
  1500.37,1356.27 1502.92,1352.21 1505.47,1348.01 1508.03,1343.66 1510.58,1339.16 1513.13,1334.51 1515.68,1329.7 1518.23,1324.73 1520.79,1319.6 1523.34,1314.31 
  1525.89,1308.86 1528.44,1303.23 1530.99,1297.44 1533.55,1291.47 1536.1,1285.33 1538.65,1279.02 1541.2,1272.53 1543.75,1265.86 1546.31,1259.01 1548.86,1251.98 
  1551.41,1244.76 1553.96,1237.37 1556.51,1229.79 1559.07,1222.03 1561.62,1214.09 1564.17,1205.96 1566.72,1197.65 1569.27,1189.16 1571.83,1180.48 1574.38,1171.63 
  1576.93,1162.59 1579.48,1153.38 1582.03,1143.99 1584.59,1134.42 1587.14,1124.68 1589.69,1114.78 1592.24,1104.71 1594.8,1094.47 1597.35,1084.07 1599.9,1073.52 
  1602.45,1062.81 1605,1051.96 1607.56,1040.96 1610.11,1029.83 1612.66,1018.56 1615.21,1007.16 1617.76,995.647 1620.32,984.014 1622.87,972.273 1625.42,960.428 
  1627.97,948.489 1630.52,936.462 1633.08,924.354 1635.63,912.174 1638.18,899.93 1640.73,887.63 1643.28,875.283 1645.84,862.898 1648.39,850.484 1650.94,838.05 
  1653.49,825.607 1656.04,813.163 1658.6,800.73 1661.15,788.317 1663.7,775.934 1666.25,763.593 1668.8,751.304 1671.36,739.078 1673.91,726.925 1676.46,714.858 
  1679.01,702.886 1681.57,691.022 1684.12,679.277 1686.67,667.661 1689.22,656.186 1691.77,644.864 1694.33,633.706 1696.88,622.723 1699.43,611.926 1701.98,601.326 
  1704.53,590.935 1707.09,580.763 1709.64,570.822 1712.19,561.121 1714.74,551.671 1717.29,542.483 1719.85,533.567 1722.4,524.932 1724.95,516.588 1727.5,508.544 
  1730.05,500.81 1732.61,493.394 1735.16,486.305 1737.71,479.55 1740.26,473.138 1742.81,467.076 1745.37,461.371 1747.92,456.03 1750.47,451.058 1753.02,446.462 
  1755.57,442.247 1758.13,438.419 1760.68,434.981 1763.23,431.937 1765.78,429.292 1768.33,427.049 1770.89,425.21 1773.44,423.777 1775.99,422.753 1778.54,422.137 
  1781.1,421.932 1783.65,422.137 1786.2,422.753 1788.75,423.777 1791.3,425.21 1793.86,427.049 1796.41,429.292 1798.96,431.937 1801.51,434.981 1804.06,438.419 
  1806.62,442.247 1809.17,446.462 1811.72,451.058 1814.27,456.03 1816.82,461.371 1819.38,467.076 1821.93,473.138 1824.48,479.55 1827.03,486.305 1829.58,493.394 
  1832.14,500.81 1834.69,508.544 1837.24,516.588 1839.79,524.932 1842.34,533.567 1844.9,542.483 1847.45,551.671 1850,561.121 1852.55,570.822 1855.1,580.763 
  1857.66,590.935 1860.21,601.326 1862.76,611.926 1865.31,622.723 1867.87,633.706 1870.42,644.865 1872.97,656.187 1875.52,667.661 1878.07,679.277 1880.63,691.023 
  1883.18,702.887 1885.73,714.859 1888.28,726.926 1890.83,739.079 1893.39,751.305 1895.94,763.594 1898.49,775.936 1901.04,788.318 1903.59,800.731 1906.15,813.165 
  1908.7,825.609 1911.25,838.052 1913.8,850.486 1916.35,862.9 1918.91,875.286 1921.46,887.633 1924.01,899.933 1926.56,912.178 1929.11,924.358 1931.67,936.466 
  1934.22,948.494 1936.77,960.434 1939.32,972.279 1941.87,984.021 1944.43,995.655 1946.98,1007.17 1949.53,1018.57 1952.08,1029.84 1954.64,1040.97 1957.19,1051.97 
  1959.74,1062.83 1962.29,1073.53 1964.84,1084.09 1967.4,1094.49 1969.95,1104.72 1972.5,1114.8 1975.05,1124.71 1977.6,1134.45 1980.16,1144.01 1982.71,1153.41 
  1985.26,1162.62 1987.81,1171.66 1990.36,1180.52 1992.92,1189.2 1995.47,1197.7 1998.02,1206.01 2000.57,1214.14 2003.12,1222.09 2005.68,1229.86 2008.23,1237.44 
  2010.78,1244.84 2013.33,1252.06 2015.88,1259.1 2018.44,1265.95 2020.99,1272.63 2023.54,1279.13 2026.09,1285.46 2028.64,1291.61 2031.2,1297.58 2033.75,1303.39 
  2036.3,1309.03 2038.85,1314.5 2041.41,1319.8 2043.96,1324.95 2046.51,1329.93 2049.06,1334.76 2051.61,1339.44 2054.17,1343.96 2056.72,1348.33 2059.27,1352.56 
  2061.82,1356.64 2064.37,1360.59 2066.93,1364.4 2069.48,1368.07 2072.03,1371.61 2074.58,1375.03 2077.13,1378.31 2079.69,1381.48 2082.24,1384.53 2084.79,1387.46 
  2087.34,1390.28 2089.89,1392.99 2092.45,1395.6 2095,1398.1 2097.55,1400.49 2100.1,1402.8 2102.65,1405 2105.21,1407.12 2107.76,1409.14 2110.31,1411.09 
  2112.86,1412.94 2115.41,1414.72 2117.97,1416.42 2120.52,1418.04 2123.07,1419.59 2125.62,1421.07 2128.17,1422.49 2130.73,1423.84 2133.28,1425.12 2135.83,1426.35 
  2138.38,1427.52 2140.94,1428.63 2143.49,1429.69 2146.04,1430.7 2148.59,1431.65 2151.14,1432.57 2153.7,1433.43 2156.25,1434.25 2158.8,1435.03 2161.35,1435.77 
  2163.9,1436.48 2166.46,1437.14 2169.01,1437.77 2171.56,1438.37 2174.11,1438.94 2176.66,1439.47 2179.22,1439.98 2181.77,1440.46 2184.32,1440.91 2186.87,1441.34 
  2189.42,1441.74 2191.98,1442.12 2194.53,1442.48 2197.08,1442.82 2199.63,1443.14 2202.18,1443.44 2204.74,1443.73 2207.29,1443.99 2209.84,1444.25 2212.39,1444.48 
  2214.94,1444.7 2217.5,1444.91 2220.05,1445.11 2222.6,1445.29 2225.15,1445.47 2227.71,1445.63 2230.26,1445.78 2232.81,1445.92 2235.36,1446.06 2237.91,1446.18 
  2240.47,1446.3 2243.02,1446.41 2245.57,1446.51 2248.12,1446.61 2250.67,1446.7 2253.23,1446.78 2255.78,1446.86 2258.33,1446.93 2260.88,1447 2263.43,1447.06 
  2265.99,1447.12 2268.54,1447.18 2271.09,1447.23 2273.64,1447.28 2276.19,1447.32 2278.75,1447.36 2281.3,1447.4 2283.85,1447.44 2286.4,1447.47 2288.95,1447.5 
  2291.51,1447.53 
  "/>
<path clip-path="url(#clip610)" d="
M1929.19 350.345 L2280.62 350.345 L2280.62 168.905 L1929.19 168.905  Z
  " fill="#ffffff" fill-rule="evenodd" fill-opacity="1"/>
<polyline clip-path="url(#clip610)" style="stroke:#000000; stroke-width:4; stroke-opacity:1; fill:none" points="
  1929.19,350.345 2280.62,350.345 2280.62,168.905 1929.19,168.905 1929.19,350.345 
  "/>
<polyline clip-path="url(#clip610)" style="stroke:#009af9; stroke-width:4; stroke-opacity:1; fill:none" points="
  1953.23,229.385 2097.51,229.385 
  "/>
<path clip-path="url(#clip610)" d="M 0 0 M2126.23 215.947 L2126.23 242.822 L2131.88 242.822 Q2139.03 242.822 2142.34 239.581 Q2145.67 236.341 2145.67 229.35 Q2145.67 222.406 2142.34 219.188 Q2139.03 215.947 2131.88 215.947 L2126.23 215.947 M2121.55 212.105 L2131.16 212.105 Q2141.21 212.105 2145.91 216.294 Q2150.6 220.461 2150.6 229.35 Q2150.6 238.285 2145.88 242.475 Q2141.16 246.665 2131.16 246.665 L2121.55 246.665 L2121.55 212.105 Z" fill="#000000" fill-rule="evenodd" fill-opacity="1" /><path clip-path="url(#clip610)" d="M 0 0 M2166.85 233.632 Q2161.69 233.632 2159.7 234.813 Q2157.71 235.993 2157.71 238.841 Q2157.71 241.109 2159.19 242.452 Q2160.7 243.771 2163.27 243.771 Q2166.81 243.771 2168.94 241.271 Q2171.09 238.748 2171.09 234.581 L2171.09 233.632 L2166.85 233.632 M2175.35 231.873 L2175.35 246.665 L2171.09 246.665 L2171.09 242.729 Q2169.63 245.091 2167.46 246.225 Q2165.28 247.336 2162.13 247.336 Q2158.15 247.336 2155.79 245.114 Q2153.45 242.868 2153.45 239.118 Q2153.45 234.743 2156.37 232.521 Q2159.31 230.299 2165.12 230.299 L2171.09 230.299 L2171.09 229.882 Q2171.09 226.943 2169.15 225.345 Q2167.23 223.725 2163.73 223.725 Q2161.51 223.725 2159.4 224.257 Q2157.29 224.79 2155.35 225.855 L2155.35 221.919 Q2157.69 221.017 2159.89 220.577 Q2162.09 220.114 2164.17 220.114 Q2169.79 220.114 2172.57 223.031 Q2175.35 225.947 2175.35 231.873 Z" fill="#000000" fill-rule="evenodd" fill-opacity="1" /><path clip-path="url(#clip610)" d="M 0 0 M2184.03 213.378 L2184.03 220.739 L2192.8 220.739 L2192.8 224.049 L2184.03 224.049 L2184.03 238.123 Q2184.03 241.294 2184.89 242.197 Q2185.77 243.1 2188.43 243.1 L2192.8 243.1 L2192.8 246.665 L2188.43 246.665 Q2183.5 246.665 2181.62 244.836 Q2179.75 242.984 2179.75 238.123 L2179.75 224.049 L2176.62 224.049 L2176.62 220.739 L2179.75 220.739 L2179.75 213.378 L2184.03 213.378 Z" fill="#000000" fill-rule="evenodd" fill-opacity="1" /><path clip-path="url(#clip610)" d="M 0 0 M2209.05 233.632 Q2203.89 233.632 2201.9 234.813 Q2199.91 235.993 2199.91 238.841 Q2199.91 241.109 2201.39 242.452 Q2202.9 243.771 2205.47 243.771 Q2209.01 243.771 2211.14 241.271 Q2213.29 238.748 2213.29 234.581 L2213.29 233.632 L2209.05 233.632 M2217.55 231.873 L2217.55 246.665 L2213.29 246.665 L2213.29 242.729 Q2211.83 245.091 2209.66 246.225 Q2207.48 247.336 2204.33 247.336 Q2200.35 247.336 2197.99 245.114 Q2195.65 242.868 2195.65 239.118 Q2195.65 234.743 2198.57 232.521 Q2201.51 230.299 2207.32 230.299 L2213.29 230.299 L2213.29 229.882 Q2213.29 226.943 2211.35 225.345 Q2209.42 223.725 2205.93 223.725 Q2203.71 223.725 2201.6 224.257 Q2199.49 224.79 2197.55 225.855 L2197.55 221.919 Q2199.89 221.017 2202.09 220.577 Q2204.29 220.114 2206.37 220.114 Q2211.99 220.114 2214.77 223.031 Q2217.55 225.947 2217.55 231.873 Z" fill="#000000" fill-rule="evenodd" fill-opacity="1" /><polyline clip-path="url(#clip610)" style="stroke:#e26f46; stroke-width:4; stroke-opacity:1; fill:none" points="
  1953.23,289.865 2097.51,289.865 
  "/>
<path clip-path="url(#clip610)" d="M 0 0 M2121.55 272.585 L2150.79 272.585 L2150.79 276.52 L2138.52 276.52 L2138.52 307.145 L2133.82 307.145 L2133.82 276.52 L2121.55 276.52 L2121.55 272.585 Z" fill="#000000" fill-rule="evenodd" fill-opacity="1" /><path clip-path="url(#clip610)" d="M 0 0 M2163.31 285.2 Q2162.6 284.784 2161.74 284.598 Q2160.91 284.39 2159.89 284.39 Q2156.28 284.39 2154.33 286.751 Q2152.41 289.089 2152.41 293.487 L2152.41 307.145 L2148.13 307.145 L2148.13 281.219 L2152.41 281.219 L2152.41 285.247 Q2153.75 282.886 2155.91 281.751 Q2158.06 280.594 2161.14 280.594 Q2161.58 280.594 2162.11 280.663 Q2162.64 280.71 2163.29 280.825 L2163.31 285.2 Z" fill="#000000" fill-rule="evenodd" fill-opacity="1" /><path clip-path="url(#clip610)" d="M 0 0 M2167.34 296.913 L2167.34 281.219 L2171.6 281.219 L2171.6 296.751 Q2171.6 300.432 2173.04 302.284 Q2174.47 304.112 2177.34 304.112 Q2180.79 304.112 2182.78 301.913 Q2184.79 299.714 2184.79 295.918 L2184.79 281.219 L2189.05 281.219 L2189.05 307.145 L2184.79 307.145 L2184.79 303.163 Q2183.24 305.524 2181.18 306.682 Q2179.15 307.816 2176.44 307.816 Q2171.97 307.816 2169.66 305.038 Q2167.34 302.26 2167.34 296.913 M2178.06 280.594 L2178.06 280.594 Z" fill="#000000" fill-rule="evenodd" fill-opacity="1" /><path clip-path="url(#clip610)" d="M 0 0 M2197.73 273.858 L2197.73 281.219 L2206.51 281.219 L2206.51 284.529 L2197.73 284.529 L2197.73 298.603 Q2197.73 301.774 2198.59 302.677 Q2199.47 303.58 2202.13 303.58 L2206.51 303.58 L2206.51 307.145 L2202.13 307.145 Q2197.2 307.145 2195.33 305.316 Q2193.45 303.464 2193.45 298.603 L2193.45 284.529 L2190.33 284.529 L2190.33 281.219 L2193.45 281.219 L2193.45 273.858 L2197.73 273.858 Z" fill="#000000" fill-rule="evenodd" fill-opacity="1" /><path clip-path="url(#clip610)" d="M 0 0 M2232.53 291.497 L2232.53 307.145 L2228.27 307.145 L2228.27 291.635 Q2228.27 287.955 2226.83 286.126 Q2225.4 284.298 2222.53 284.298 Q2219.08 284.298 2217.09 286.497 Q2215.1 288.696 2215.1 292.492 L2215.1 307.145 L2210.81 307.145 L2210.81 271.126 L2215.1 271.126 L2215.1 285.247 Q2216.62 282.909 2218.68 281.751 Q2220.77 280.594 2223.47 280.594 Q2227.94 280.594 2230.23 283.372 Q2232.53 286.126 2232.53 291.497 Z" fill="#000000" fill-rule="evenodd" fill-opacity="1" /></svg>
