<?xml version="1.0" encoding="utf-8"?>
<svg xmlns="http://www.w3.org/2000/svg" xmlns:xlink="http://www.w3.org/1999/xlink" width="600" height="400" viewBox="0 0 2400 1600">
<defs>
  <clipPath id="clip600">
    <rect x="0" y="0" width="2400" height="1600"/>
  </clipPath>
</defs>
<path clip-path="url(#clip600)" d="
M0 1600 L2400 1600 L2400 0 L0 0  Z
  " fill="#ffffff" fill-rule="evenodd" fill-opacity="1"/>
<defs>
  <clipPath id="clip601">
    <rect x="480" y="0" width="1681" height="1600"/>
  </clipPath>
</defs>
<path clip-path="url(#clip600)" d="
M166.205 1486.45 L2352.76 1486.45 L2352.76 123.472 L166.205 123.472  Z
  " fill="#ffffff" fill-rule="evenodd" fill-opacity="1"/>
<defs>
  <clipPath id="clip602">
    <rect x="166" y="123" width="2188" height="1364"/>
  </clipPath>
</defs>
<polyline clip-path="url(#clip602)" style="stroke:#000000; stroke-width:2; stroke-opacity:0.1; fill:none" points="
  228.088,1486.45 228.088,123.472 
  "/>
<polyline clip-path="url(#clip602)" style="stroke:#000000; stroke-width:2; stroke-opacity:0.1; fill:none" points="
  743.784,1486.45 743.784,123.472 
  "/>
<polyline clip-path="url(#clip602)" style="stroke:#000000; stroke-width:2; stroke-opacity:0.1; fill:none" points="
  1259.48,1486.45 1259.48,123.472 
  "/>
<polyline clip-path="url(#clip602)" style="stroke:#000000; stroke-width:2; stroke-opacity:0.1; fill:none" points="
  1775.18,1486.45 1775.18,123.472 
  "/>
<polyline clip-path="url(#clip602)" style="stroke:#000000; stroke-width:2; stroke-opacity:0.1; fill:none" points="
  2290.87,1486.45 2290.87,123.472 
  "/>
<polyline clip-path="url(#clip600)" style="stroke:#000000; stroke-width:4; stroke-opacity:1; fill:none" points="
  166.205,1486.45 2352.76,1486.45 
  "/>
<polyline clip-path="url(#clip600)" style="stroke:#000000; stroke-width:4; stroke-opacity:1; fill:none" points="
  228.088,1486.45 228.088,1470.09 
  "/>
<polyline clip-path="url(#clip600)" style="stroke:#000000; stroke-width:4; stroke-opacity:1; fill:none" points="
  743.784,1486.45 743.784,1470.09 
  "/>
<polyline clip-path="url(#clip600)" style="stroke:#000000; stroke-width:4; stroke-opacity:1; fill:none" points="
  1259.48,1486.45 1259.48,1470.09 
  "/>
<polyline clip-path="url(#clip600)" style="stroke:#000000; stroke-width:4; stroke-opacity:1; fill:none" points="
  1775.18,1486.45 1775.18,1470.09 
  "/>
<polyline clip-path="url(#clip600)" style="stroke:#000000; stroke-width:4; stroke-opacity:1; fill:none" points="
  2290.87,1486.45 2290.87,1470.09 
  "/>
<path clip-path="url(#clip600)" d="M 0 0 M199.5 1530.29 L229.176 1530.29 L229.176 1534.23 L199.5 1534.23 L199.5 1530.29 Z" fill="#000000" fill-rule="evenodd" fill-opacity="1" /><path clip-path="url(#clip600)" d="M 0 0 M247.093 1516.63 L235.287 1535.08 L247.093 1535.08 L247.093 1516.63 M245.866 1512.56 L251.745 1512.56 L251.745 1535.08 L256.676 1535.08 L256.676 1538.97 L251.745 1538.97 L251.745 1547.12 L247.093 1547.12 L247.093 1538.97 L231.491 1538.97 L231.491 1534.46 L245.866 1512.56 Z" fill="#000000" fill-rule="evenodd" fill-opacity="1" /><path clip-path="url(#clip600)" d="M 0 0 M716.238 1530.29 L745.914 1530.29 L745.914 1534.23 L716.238 1534.23 L716.238 1530.29 Z" fill="#000000" fill-rule="evenodd" fill-opacity="1" /><path clip-path="url(#clip600)" d="M 0 0 M755.011 1543.18 L771.33 1543.18 L771.33 1547.12 L749.386 1547.12 L749.386 1543.18 Q752.048 1540.43 756.631 1535.8 Q761.238 1531.15 762.418 1529.81 Q764.664 1527.28 765.543 1525.55 Q766.446 1523.79 766.446 1522.1 Q766.446 1519.34 764.502 1517.61 Q762.58 1515.87 759.479 1515.87 Q757.28 1515.87 754.826 1516.63 Q752.395 1517.4 749.618 1518.95 L749.618 1514.23 Q752.442 1513.09 754.895 1512.51 Q757.349 1511.93 759.386 1511.93 Q764.756 1511.93 767.951 1514.62 Q771.145 1517.31 771.145 1521.8 Q771.145 1523.93 770.335 1525.85 Q769.548 1527.74 767.442 1530.34 Q766.863 1531.01 763.761 1534.23 Q760.659 1537.42 755.011 1543.18 Z" fill="#000000" fill-rule="evenodd" fill-opacity="1" /><path clip-path="url(#clip600)" d="M 0 0 M1259.48 1515.64 Q1255.87 1515.64 1254.04 1519.2 Q1252.23 1522.75 1252.23 1529.87 Q1252.23 1536.98 1254.04 1540.55 Q1255.87 1544.09 1259.48 1544.09 Q1263.11 1544.09 1264.92 1540.55 Q1266.75 1536.98 1266.75 1529.87 Q1266.75 1522.75 1264.92 1519.2 Q1263.11 1515.64 1259.48 1515.64 M1259.48 1511.93 Q1265.29 1511.93 1268.35 1516.54 Q1271.42 1521.12 1271.42 1529.87 Q1271.42 1538.6 1268.35 1543.21 Q1265.29 1547.79 1259.48 1547.79 Q1253.67 1547.79 1250.59 1543.21 Q1247.54 1538.6 1247.54 1529.87 Q1247.54 1521.12 1250.59 1516.54 Q1253.67 1511.93 1259.48 1511.93 Z" fill="#000000" fill-rule="evenodd" fill-opacity="1" /><path clip-path="url(#clip600)" d="M 0 0 M1769.83 1543.18 L1786.15 1543.18 L1786.15 1547.12 L1764.2 1547.12 L1764.2 1543.18 Q1766.87 1540.43 1771.45 1535.8 Q1776.06 1531.15 1777.24 1529.81 Q1779.48 1527.28 1780.36 1525.55 Q1781.26 1523.79 1781.26 1522.1 Q1781.26 1519.34 1779.32 1517.61 Q1777.4 1515.87 1774.3 1515.87 Q1772.1 1515.87 1769.64 1516.63 Q1767.21 1517.4 1764.44 1518.95 L1764.44 1514.23 Q1767.26 1513.09 1769.71 1512.51 Q1772.17 1511.93 1774.2 1511.93 Q1779.57 1511.93 1782.77 1514.62 Q1785.96 1517.31 1785.96 1521.8 Q1785.96 1523.93 1785.15 1525.85 Q1784.37 1527.74 1782.26 1530.34 Q1781.68 1531.01 1778.58 1534.23 Q1775.48 1537.42 1769.83 1543.18 Z" fill="#000000" fill-rule="evenodd" fill-opacity="1" /><path clip-path="url(#clip600)" d="M 0 0 M2293.88 1516.63 L2282.08 1535.08 L2293.88 1535.08 L2293.88 1516.63 M2292.65 1512.56 L2298.53 1512.56 L2298.53 1535.08 L2303.46 1535.08 L2303.46 1538.97 L2298.53 1538.97 L2298.53 1547.12 L2293.88 1547.12 L2293.88 1538.97 L2278.28 1538.97 L2278.28 1534.46 L2292.65 1512.56 Z" fill="#000000" fill-rule="evenodd" fill-opacity="1" /><polyline clip-path="url(#clip602)" style="stroke:#000000; stroke-width:2; stroke-opacity:0.1; fill:none" points="
  166.205,1447.87 2352.76,1447.87 
  "/>
<polyline clip-path="url(#clip602)" style="stroke:#000000; stroke-width:2; stroke-opacity:0.1; fill:none" points="
  166.205,1155.64 2352.76,1155.64 
  "/>
<polyline clip-path="url(#clip602)" style="stroke:#000000; stroke-width:2; stroke-opacity:0.1; fill:none" points="
  166.205,863.407 2352.76,863.407 
  "/>
<polyline clip-path="url(#clip602)" style="stroke:#000000; stroke-width:2; stroke-opacity:0.1; fill:none" points="
  166.205,571.173 2352.76,571.173 
  "/>
<polyline clip-path="url(#clip602)" style="stroke:#000000; stroke-width:2; stroke-opacity:0.1; fill:none" points="
  166.205,278.94 2352.76,278.94 
  "/>
<polyline clip-path="url(#clip600)" style="stroke:#000000; stroke-width:4; stroke-opacity:1; fill:none" points="
  166.205,1486.45 166.205,123.472 
  "/>
<polyline clip-path="url(#clip600)" style="stroke:#000000; stroke-width:4; stroke-opacity:1; fill:none" points="
  166.205,1447.87 192.443,1447.87 
  "/>
<polyline clip-path="url(#clip600)" style="stroke:#000000; stroke-width:4; stroke-opacity:1; fill:none" points="
  166.205,1155.64 192.443,1155.64 
  "/>
<polyline clip-path="url(#clip600)" style="stroke:#000000; stroke-width:4; stroke-opacity:1; fill:none" points="
  166.205,863.407 192.443,863.407 
  "/>
<polyline clip-path="url(#clip600)" style="stroke:#000000; stroke-width:4; stroke-opacity:1; fill:none" points="
  166.205,571.173 192.443,571.173 
  "/>
<polyline clip-path="url(#clip600)" style="stroke:#000000; stroke-width:4; stroke-opacity:1; fill:none" points="
  166.205,278.94 192.443,278.94 
  "/>
<path clip-path="url(#clip600)" d="M 0 0 M118.26 1433.67 Q114.649 1433.67 112.82 1437.24 Q111.015 1440.78 111.015 1447.91 Q111.015 1455.01 112.82 1458.58 Q114.649 1462.12 118.26 1462.12 Q121.895 1462.12 123.7 1458.58 Q125.529 1455.01 125.529 1447.91 Q125.529 1440.78 123.7 1437.24 Q121.895 1433.67 118.26 1433.67 M118.26 1429.97 Q124.07 1429.97 127.126 1434.57 Q130.205 1439.16 130.205 1447.91 Q130.205 1456.63 127.126 1461.24 Q124.07 1465.82 118.26 1465.82 Q112.45 1465.82 109.371 1461.24 Q106.316 1456.63 106.316 1447.91 Q106.316 1439.16 109.371 1434.57 Q112.45 1429.97 118.26 1429.97 Z" fill="#000000" fill-rule="evenodd" fill-opacity="1" /><path clip-path="url(#clip600)" d="M 0 0 M59.8578 1168.98 L76.1772 1168.98 L76.1772 1172.92 L54.2328 1172.92 L54.2328 1168.98 Q56.8949 1166.23 61.4782 1161.6 Q66.0846 1156.95 67.2652 1155.61 Q69.5105 1153.08 70.3902 1151.35 Q71.2929 1149.59 71.2929 1147.9 Q71.2929 1145.14 69.3485 1143.41 Q67.4272 1141.67 64.3254 1141.67 Q62.1263 1141.67 59.6726 1142.43 Q57.2421 1143.2 54.4643 1144.75 L54.4643 1140.03 Q57.2884 1138.89 59.7421 1138.31 Q62.1958 1137.73 64.2328 1137.73 Q69.6031 1137.73 72.7976 1140.42 Q75.992 1143.11 75.992 1147.6 Q75.992 1149.73 75.1818 1151.65 Q74.3948 1153.54 72.2883 1156.14 Q71.7096 1156.81 68.6078 1160.03 Q65.5059 1163.22 59.8578 1168.98 Z" fill="#000000" fill-rule="evenodd" fill-opacity="1" /><path clip-path="url(#clip600)" d="M 0 0 M91.2465 1141.44 Q87.6354 1141.44 85.8068 1145 Q84.0012 1148.54 84.0012 1155.67 Q84.0012 1162.78 85.8068 1166.35 Q87.6354 1169.89 91.2465 1169.89 Q94.8808 1169.89 96.6863 1166.35 Q98.515 1162.78 98.515 1155.67 Q98.515 1148.54 96.6863 1145 Q94.8808 1141.44 91.2465 1141.44 M91.2465 1137.73 Q97.0567 1137.73 100.112 1142.34 Q103.191 1146.92 103.191 1155.67 Q103.191 1164.4 100.112 1169.01 Q97.0567 1173.59 91.2465 1173.59 Q85.4364 1173.59 82.3577 1169.01 Q79.3022 1164.4 79.3022 1155.67 Q79.3022 1146.92 82.3577 1142.34 Q85.4364 1137.73 91.2465 1137.73 Z" fill="#000000" fill-rule="evenodd" fill-opacity="1" /><path clip-path="url(#clip600)" d="M 0 0 M118.26 1141.44 Q114.649 1141.44 112.82 1145 Q111.015 1148.54 111.015 1155.67 Q111.015 1162.78 112.82 1166.35 Q114.649 1169.89 118.26 1169.89 Q121.895 1169.89 123.7 1166.35 Q125.529 1162.78 125.529 1155.67 Q125.529 1148.54 123.7 1145 Q121.895 1141.44 118.26 1141.44 M118.26 1137.73 Q124.07 1137.73 127.126 1142.34 Q130.205 1146.92 130.205 1155.67 Q130.205 1164.4 127.126 1169.01 Q124.07 1173.59 118.26 1173.59 Q112.45 1173.59 109.371 1169.01 Q106.316 1164.4 106.316 1155.67 Q106.316 1146.92 109.371 1142.34 Q112.45 1137.73 118.26 1137.73 Z" fill="#000000" fill-rule="evenodd" fill-opacity="1" /><path clip-path="url(#clip600)" d="M 0 0 M66.5939 850.201 L54.7884 868.65 L66.5939 868.65 L66.5939 850.201 M65.367 846.127 L71.2466 846.127 L71.2466 868.65 L76.1772 868.65 L76.1772 872.539 L71.2466 872.539 L71.2466 880.687 L66.5939 880.687 L66.5939 872.539 L50.9921 872.539 L50.9921 868.025 L65.367 846.127 Z" fill="#000000" fill-rule="evenodd" fill-opacity="1" /><path clip-path="url(#clip600)" d="M 0 0 M91.2465 849.205 Q87.6354 849.205 85.8068 852.77 Q84.0012 856.312 84.0012 863.441 Q84.0012 870.548 85.8068 874.113 Q87.6354 877.654 91.2465 877.654 Q94.8808 877.654 96.6863 874.113 Q98.515 870.548 98.515 863.441 Q98.515 856.312 96.6863 852.77 Q94.8808 849.205 91.2465 849.205 M91.2465 845.502 Q97.0567 845.502 100.112 850.108 Q103.191 854.691 103.191 863.441 Q103.191 872.168 100.112 876.775 Q97.0567 881.358 91.2465 881.358 Q85.4364 881.358 82.3577 876.775 Q79.3022 872.168 79.3022 863.441 Q79.3022 854.691 82.3577 850.108 Q85.4364 845.502 91.2465 845.502 Z" fill="#000000" fill-rule="evenodd" fill-opacity="1" /><path clip-path="url(#clip600)" d="M 0 0 M118.26 849.205 Q114.649 849.205 112.82 852.77 Q111.015 856.312 111.015 863.441 Q111.015 870.548 112.82 874.113 Q114.649 877.654 118.26 877.654 Q121.895 877.654 123.7 874.113 Q125.529 870.548 125.529 863.441 Q125.529 856.312 123.7 852.77 Q121.895 849.205 118.26 849.205 M118.26 845.502 Q124.07 845.502 127.126 850.108 Q130.205 854.691 130.205 863.441 Q130.205 872.168 127.126 876.775 Q124.07 881.358 118.26 881.358 Q112.45 881.358 109.371 876.775 Q106.316 872.168 106.316 863.441 Q106.316 854.691 109.371 850.108 Q112.45 845.502 118.26 845.502 Z" fill="#000000" fill-rule="evenodd" fill-opacity="1" /><path clip-path="url(#clip600)" d="M 0 0 M64.6495 569.31 Q61.5013 569.31 59.6495 571.463 Q57.8208 573.616 57.8208 577.366 Q57.8208 581.092 59.6495 583.268 Q61.5013 585.421 64.6495 585.421 Q67.7976 585.421 69.6263 583.268 Q71.4781 581.092 71.4781 577.366 Q71.4781 573.616 69.6263 571.463 Q67.7976 569.31 64.6495 569.31 M73.9318 554.657 L73.9318 558.917 Q72.1726 558.083 70.367 557.643 Q68.5846 557.204 66.8254 557.204 Q62.1958 557.204 59.7421 560.329 Q57.3115 563.454 56.9643 569.773 Q58.33 567.759 60.3902 566.694 Q62.4504 565.606 64.9272 565.606 Q70.1355 565.606 73.1448 568.778 Q76.1772 571.926 76.1772 577.366 Q76.1772 582.69 73.029 585.907 Q69.8809 589.125 64.6495 589.125 Q58.6541 589.125 55.4828 584.541 Q52.3116 579.935 52.3116 571.208 Q52.3116 563.014 56.2004 558.153 Q60.0893 553.268 66.6402 553.268 Q68.3994 553.268 70.1818 553.616 Q71.9874 553.963 73.9318 554.657 Z" fill="#000000" fill-rule="evenodd" fill-opacity="1" /><path clip-path="url(#clip600)" d="M 0 0 M91.2465 556.972 Q87.6354 556.972 85.8068 560.537 Q84.0012 564.079 84.0012 571.208 Q84.0012 578.315 85.8068 581.879 Q87.6354 585.421 91.2465 585.421 Q94.8808 585.421 96.6863 581.879 Q98.515 578.315 98.515 571.208 Q98.515 564.079 96.6863 560.537 Q94.8808 556.972 91.2465 556.972 M91.2465 553.268 Q97.0567 553.268 100.112 557.875 Q103.191 562.458 103.191 571.208 Q103.191 579.935 100.112 584.541 Q97.0567 589.125 91.2465 589.125 Q85.4364 589.125 82.3577 584.541 Q79.3022 579.935 79.3022 571.208 Q79.3022 562.458 82.3577 557.875 Q85.4364 553.268 91.2465 553.268 Z" fill="#000000" fill-rule="evenodd" fill-opacity="1" /><path clip-path="url(#clip600)" d="M 0 0 M118.26 556.972 Q114.649 556.972 112.82 560.537 Q111.015 564.079 111.015 571.208 Q111.015 578.315 112.82 581.879 Q114.649 585.421 118.26 585.421 Q121.895 585.421 123.7 581.879 Q125.529 578.315 125.529 571.208 Q125.529 564.079 123.7 560.537 Q121.895 556.972 118.26 556.972 M118.26 553.268 Q124.07 553.268 127.126 557.875 Q130.205 562.458 130.205 571.208 Q130.205 579.935 127.126 584.541 Q124.07 589.125 118.26 589.125 Q112.45 589.125 109.371 584.541 Q106.316 579.935 106.316 571.208 Q106.316 562.458 109.371 557.875 Q112.45 553.268 118.26 553.268 Z" fill="#000000" fill-rule="evenodd" fill-opacity="1" /><path clip-path="url(#clip600)" d="M 0 0 M64.3254 279.808 Q60.9921 279.808 59.0708 281.591 Q57.1726 283.373 57.1726 286.498 Q57.1726 289.623 59.0708 291.405 Q60.9921 293.188 64.3254 293.188 Q67.6587 293.188 69.58 291.405 Q71.5013 289.6 71.5013 286.498 Q71.5013 283.373 69.58 281.591 Q67.6819 279.808 64.3254 279.808 M59.6495 277.818 Q56.6402 277.077 54.9504 275.017 Q53.2838 272.956 53.2838 269.993 Q53.2838 265.85 56.2236 263.443 Q59.1865 261.035 64.3254 261.035 Q69.4874 261.035 72.4272 263.443 Q75.367 265.85 75.367 269.993 Q75.367 272.956 73.6772 275.017 Q72.0105 277.077 69.0244 277.818 Q72.404 278.605 74.279 280.896 Q76.1772 283.188 76.1772 286.498 Q76.1772 291.521 73.0985 294.206 Q70.0429 296.891 64.3254 296.891 Q58.6078 296.891 55.5291 294.206 Q52.4736 291.521 52.4736 286.498 Q52.4736 283.188 54.3717 280.896 Q56.2699 278.605 59.6495 277.818 M57.9365 270.433 Q57.9365 273.118 59.6032 274.623 Q61.293 276.128 64.3254 276.128 Q67.3346 276.128 69.0244 274.623 Q70.7374 273.118 70.7374 270.433 Q70.7374 267.748 69.0244 266.244 Q67.3346 264.739 64.3254 264.739 Q61.293 264.739 59.6032 266.244 Q57.9365 267.748 57.9365 270.433 Z" fill="#000000" fill-rule="evenodd" fill-opacity="1" /><path clip-path="url(#clip600)" d="M 0 0 M91.2465 264.739 Q87.6354 264.739 85.8068 268.304 Q84.0012 271.845 84.0012 278.975 Q84.0012 286.081 85.8068 289.646 Q87.6354 293.188 91.2465 293.188 Q94.8808 293.188 96.6863 289.646 Q98.515 286.081 98.515 278.975 Q98.515 271.845 96.6863 268.304 Q94.8808 264.739 91.2465 264.739 M91.2465 261.035 Q97.0567 261.035 100.112 265.642 Q103.191 270.225 103.191 278.975 Q103.191 287.702 100.112 292.308 Q97.0567 296.891 91.2465 296.891 Q85.4364 296.891 82.3577 292.308 Q79.3022 287.702 79.3022 278.975 Q79.3022 270.225 82.3577 265.642 Q85.4364 261.035 91.2465 261.035 Z" fill="#000000" fill-rule="evenodd" fill-opacity="1" /><path clip-path="url(#clip600)" d="M 0 0 M118.26 264.739 Q114.649 264.739 112.82 268.304 Q111.015 271.845 111.015 278.975 Q111.015 286.081 112.82 289.646 Q114.649 293.188 118.26 293.188 Q121.895 293.188 123.7 289.646 Q125.529 286.081 125.529 278.975 Q125.529 271.845 123.7 268.304 Q121.895 264.739 118.26 264.739 M118.26 261.035 Q124.07 261.035 127.126 265.642 Q130.205 270.225 130.205 278.975 Q130.205 287.702 127.126 292.308 Q124.07 296.891 118.26 296.891 Q112.45 296.891 109.371 292.308 Q106.316 287.702 106.316 278.975 Q106.316 270.225 109.371 265.642 Q112.45 261.035 118.26 261.035 Z" fill="#000000" fill-rule="evenodd" fill-opacity="1" /><path clip-path="url(#clip600)" d="M 0 0 M697.458 18.8205 L697.458 65.8515 L707.342 65.8515 Q719.859 65.8515 725.652 60.1802 Q731.485 54.509 731.485 42.2752 Q731.485 30.1225 725.652 24.4918 Q719.859 18.8205 707.342 18.8205 L697.458 18.8205 M689.275 12.096 L706.086 12.096 Q723.667 12.096 731.891 19.4281 Q740.114 26.7198 740.114 42.2752 Q740.114 57.9117 731.85 65.2439 Q723.586 72.576 706.086 72.576 L689.275 72.576 L689.275 12.096 Z" fill="#000000" fill-rule="evenodd" fill-opacity="1" /><path clip-path="url(#clip600)" d="M 0 0 M768.551 49.7694 Q759.518 49.7694 756.034 51.8354 Q752.55 53.9013 752.55 58.8839 Q752.55 62.8538 755.143 65.2034 Q757.776 67.5124 762.272 67.5124 Q768.47 67.5124 772.197 63.1374 Q775.964 58.7219 775.964 51.4303 L775.964 49.7694 L768.551 49.7694 M783.418 46.6907 L783.418 72.576 L775.964 72.576 L775.964 65.6895 Q773.412 69.8214 769.604 71.8063 Q765.797 73.7508 760.287 73.7508 Q753.32 73.7508 749.188 69.8619 Q745.096 65.9325 745.096 59.3701 Q745.096 51.7138 750.201 47.825 Q755.345 43.9361 765.513 43.9361 L775.964 43.9361 L775.964 43.2069 Q775.964 38.0623 772.562 35.2672 Q769.199 32.4315 763.082 32.4315 Q759.194 32.4315 755.507 33.3632 Q751.821 34.295 748.418 36.1584 L748.418 29.2718 Q752.51 27.692 756.358 26.9223 Q760.206 26.1121 763.852 26.1121 Q773.696 26.1121 778.557 31.2163 Q783.418 36.3204 783.418 46.6907 Z" fill="#000000" fill-rule="evenodd" fill-opacity="1" /><path clip-path="url(#clip600)" d="M 0 0 M798.609 14.324 L798.609 27.2059 L813.962 27.2059 L813.962 32.9987 L798.609 32.9987 L798.609 57.6282 Q798.609 63.1779 800.108 64.7578 Q801.647 66.3376 806.306 66.3376 L813.962 66.3376 L813.962 72.576 L806.306 72.576 Q797.677 72.576 794.396 69.3758 Q791.115 66.1351 791.115 57.6282 L791.115 32.9987 L785.646 32.9987 L785.646 27.2059 L791.115 27.2059 L791.115 14.324 L798.609 14.324 Z" fill="#000000" fill-rule="evenodd" fill-opacity="1" /><path clip-path="url(#clip600)" d="M 0 0 M842.399 49.7694 Q833.366 49.7694 829.882 51.8354 Q826.398 53.9013 826.398 58.8839 Q826.398 62.8538 828.991 65.2034 Q831.624 67.5124 836.12 67.5124 Q842.318 67.5124 846.045 63.1374 Q849.812 58.7219 849.812 51.4303 L849.812 49.7694 L842.399 49.7694 M857.266 46.6907 L857.266 72.576 L849.812 72.576 L849.812 65.6895 Q847.26 69.8214 843.452 71.8063 Q839.645 73.7508 834.135 73.7508 Q827.168 73.7508 823.036 69.8619 Q818.944 65.9325 818.944 59.3701 Q818.944 51.7138 824.049 47.825 Q829.193 43.9361 839.361 43.9361 L849.812 43.9361 L849.812 43.2069 Q849.812 38.0623 846.41 35.2672 Q843.047 32.4315 836.93 32.4315 Q833.042 32.4315 829.355 33.3632 Q825.669 34.295 822.266 36.1584 L822.266 29.2718 Q826.358 27.692 830.206 26.9223 Q834.054 26.1121 837.7 26.1121 Q847.544 26.1121 852.405 31.2163 Q857.266 36.3204 857.266 46.6907 Z" fill="#000000" fill-rule="evenodd" fill-opacity="1" /><path clip-path="url(#clip600)" d="M 0 0 M912.075 49.7694 Q903.041 49.7694 899.557 51.8354 Q896.074 53.9013 896.074 58.8839 Q896.074 62.8538 898.666 65.2034 Q901.299 67.5124 905.796 67.5124 Q911.994 67.5124 915.721 63.1374 Q919.488 58.7219 919.488 51.4303 L919.488 49.7694 L912.075 49.7694 M926.942 46.6907 L926.942 72.576 L919.488 72.576 L919.488 65.6895 Q916.936 69.8214 913.128 71.8063 Q909.32 73.7508 903.811 73.7508 Q896.843 73.7508 892.711 69.8619 Q888.62 65.9325 888.62 59.3701 Q888.62 51.7138 893.724 47.825 Q898.869 43.9361 909.037 43.9361 L919.488 43.9361 L919.488 43.2069 Q919.488 38.0623 916.085 35.2672 Q912.723 32.4315 906.606 32.4315 Q902.717 32.4315 899.031 33.3632 Q895.345 34.295 891.942 36.1584 L891.942 29.2718 Q896.033 27.692 899.882 26.9223 Q903.73 26.1121 907.376 26.1121 Q917.219 26.1121 922.08 31.2163 Q926.942 36.3204 926.942 46.6907 Z" fill="#000000" fill-rule="evenodd" fill-opacity="1" /><path clip-path="url(#clip600)" d="M 0 0 M972.474 45.1919 L972.474 72.576 L965.02 72.576 L965.02 45.4349 Q965.02 38.994 962.508 35.7938 Q959.997 32.5936 954.974 32.5936 Q948.938 32.5936 945.454 36.4419 Q941.97 40.2903 941.97 46.9338 L941.97 72.576 L934.476 72.576 L934.476 27.2059 L941.97 27.2059 L941.97 34.2544 Q944.644 30.163 948.249 28.1376 Q951.895 26.1121 956.635 26.1121 Q964.453 26.1121 968.463 30.9732 Q972.474 35.7938 972.474 45.1919 Z" fill="#000000" fill-rule="evenodd" fill-opacity="1" /><path clip-path="url(#clip600)" d="M 0 0 M1010.15 34.0924 L1010.15 9.54393 L1017.6 9.54393 L1017.6 72.576 L1010.15 72.576 L1010.15 65.7705 Q1007.8 69.8214 1004.19 71.8063 Q1000.63 73.7508 995.604 73.7508 Q987.381 73.7508 982.196 67.1883 Q977.051 60.6258 977.051 49.9314 Q977.051 39.2371 982.196 32.6746 Q987.381 26.1121 995.604 26.1121 Q1000.63 26.1121 1004.19 28.0971 Q1007.8 30.0415 1010.15 34.0924 M984.748 49.9314 Q984.748 58.1548 988.11 62.8538 Q991.513 67.5124 997.427 67.5124 Q1003.34 67.5124 1006.74 62.8538 Q1010.15 58.1548 1010.15 49.9314 Q1010.15 41.7081 1006.74 37.0496 Q1003.34 32.3505 997.427 32.3505 Q991.513 32.3505 988.11 37.0496 Q984.748 41.7081 984.748 49.9314 Z" fill="#000000" fill-rule="evenodd" fill-opacity="1" /><path clip-path="url(#clip600)" d="M 0 0 M1043.73 12.096 L1094.89 12.096 L1094.89 18.9825 L1073.42 18.9825 L1073.42 72.576 L1065.2 72.576 L1065.2 18.9825 L1043.73 18.9825 L1043.73 12.096 Z" fill="#000000" fill-rule="evenodd" fill-opacity="1" /><path clip-path="url(#clip600)" d="M 0 0 M1116.81 34.1734 Q1115.55 33.4443 1114.05 33.1202 Q1112.59 32.7556 1110.81 32.7556 Q1104.49 32.7556 1101.09 36.8875 Q1097.73 40.9789 1097.73 48.6757 L1097.73 72.576 L1090.23 72.576 L1090.23 27.2059 L1097.73 27.2059 L1097.73 34.2544 Q1100.08 30.1225 1103.84 28.1376 Q1107.61 26.1121 1113 26.1121 Q1113.77 26.1121 1114.7 26.2337 Q1115.63 26.3147 1116.77 26.5172 L1116.81 34.1734 Z" fill="#000000" fill-rule="evenodd" fill-opacity="1" /><path clip-path="url(#clip600)" d="M 0 0 M1123.86 54.671 L1123.86 27.2059 L1131.31 27.2059 L1131.31 54.3874 Q1131.31 60.8284 1133.82 64.0691 Q1136.33 67.2693 1141.36 67.2693 Q1147.39 67.2693 1150.88 63.421 Q1154.4 59.5726 1154.4 52.9291 L1154.4 27.2059 L1161.85 27.2059 L1161.85 72.576 L1154.4 72.576 L1154.4 65.6084 Q1151.69 69.7404 1148.08 71.7658 Q1144.52 73.7508 1139.78 73.7508 Q1131.96 73.7508 1127.91 68.8897 Q1123.86 64.0286 1123.86 54.671 M1142.61 26.1121 L1142.61 26.1121 Z" fill="#000000" fill-rule="evenodd" fill-opacity="1" /><path clip-path="url(#clip600)" d="M 0 0 M1208.48 48.0275 L1208.48 51.6733 L1174.21 51.6733 Q1174.69 59.3701 1178.83 63.421 Q1183 67.4314 1190.41 67.4314 Q1194.71 67.4314 1198.72 66.3781 Q1202.77 65.3249 1206.74 63.2184 L1206.74 70.267 Q1202.73 71.9684 1198.51 72.8596 Q1194.3 73.7508 1189.97 73.7508 Q1179.11 73.7508 1172.75 67.4314 Q1166.43 61.1119 1166.43 50.3365 Q1166.43 39.1965 1172.43 32.6746 Q1178.46 26.1121 1188.67 26.1121 Q1197.83 26.1121 1203.13 32.0264 Q1208.48 37.9003 1208.48 48.0275 M1201.03 45.84 Q1200.94 39.7232 1197.58 36.0774 Q1194.26 32.4315 1188.75 32.4315 Q1182.51 32.4315 1178.75 35.9558 Q1175.02 39.4801 1174.45 45.8805 L1201.03 45.84 Z" fill="#000000" fill-rule="evenodd" fill-opacity="1" /><path clip-path="url(#clip600)" d="M 0 0 M1279.25 14.0809 L1279.25 22.0612 Q1274.59 19.8332 1270.46 18.7395 Q1266.33 17.6457 1262.48 17.6457 Q1255.79 17.6457 1252.15 20.2383 Q1248.54 22.8309 1248.54 27.611 Q1248.54 31.6214 1250.93 33.6873 Q1253.36 35.7128 1260.09 36.9686 L1265.03 37.9813 Q1274.19 39.7232 1278.52 44.1387 Q1282.89 48.5136 1282.89 55.8863 Q1282.89 64.6767 1276.98 69.2137 Q1271.11 73.7508 1259.72 73.7508 Q1255.43 73.7508 1250.57 72.7785 Q1245.75 71.8063 1240.56 69.9024 L1240.56 61.4765 Q1245.55 64.2716 1250.33 65.6895 Q1255.11 67.1073 1259.72 67.1073 Q1266.73 67.1073 1270.54 64.3527 Q1274.35 61.598 1274.35 56.4939 Q1274.35 52.0379 1271.59 49.5264 Q1268.88 47.0148 1262.64 45.759 L1257.66 44.7868 Q1248.5 42.9639 1244.41 39.075 Q1240.32 35.1862 1240.32 28.2591 Q1240.32 20.2383 1245.95 15.6203 Q1251.62 11.0023 1261.55 11.0023 Q1265.8 11.0023 1270.22 11.7719 Q1274.63 12.5416 1279.25 14.0809 Z" fill="#000000" fill-rule="evenodd" fill-opacity="1" /><path clip-path="url(#clip600)" d="M 0 0 M1298.09 14.324 L1298.09 27.2059 L1313.44 27.2059 L1313.44 32.9987 L1298.09 32.9987 L1298.09 57.6282 Q1298.09 63.1779 1299.58 64.7578 Q1301.12 66.3376 1305.78 66.3376 L1313.44 66.3376 L1313.44 72.576 L1305.78 72.576 Q1297.15 72.576 1293.87 69.3758 Q1290.59 66.1351 1290.59 57.6282 L1290.59 32.9987 L1285.12 32.9987 L1285.12 27.2059 L1290.59 27.2059 L1290.59 14.324 L1298.09 14.324 Z" fill="#000000" fill-rule="evenodd" fill-opacity="1" /><path clip-path="url(#clip600)" d="M 0 0 M1341.88 49.7694 Q1332.84 49.7694 1329.36 51.8354 Q1325.87 53.9013 1325.87 58.8839 Q1325.87 62.8538 1328.47 65.2034 Q1331.1 67.5124 1335.6 67.5124 Q1341.79 67.5124 1345.52 63.1374 Q1349.29 58.7219 1349.29 51.4303 L1349.29 49.7694 L1341.88 49.7694 M1356.74 46.6907 L1356.74 72.576 L1349.29 72.576 L1349.29 65.6895 Q1346.74 69.8214 1342.93 71.8063 Q1339.12 73.7508 1333.61 73.7508 Q1326.64 73.7508 1322.51 69.8619 Q1318.42 65.9325 1318.42 59.3701 Q1318.42 51.7138 1323.53 47.825 Q1328.67 43.9361 1338.84 43.9361 L1349.29 43.9361 L1349.29 43.2069 Q1349.29 38.0623 1345.89 35.2672 Q1342.52 32.4315 1336.41 32.4315 Q1332.52 32.4315 1328.83 33.3632 Q1325.15 34.295 1321.74 36.1584 L1321.74 29.2718 Q1325.83 27.692 1329.68 26.9223 Q1333.53 26.1121 1337.18 26.1121 Q1347.02 26.1121 1351.88 31.2163 Q1356.74 36.3204 1356.74 46.6907 Z" fill="#000000" fill-rule="evenodd" fill-opacity="1" /><path clip-path="url(#clip600)" d="M 0 0 M1371.93 14.324 L1371.93 27.2059 L1387.29 27.2059 L1387.29 32.9987 L1371.93 32.9987 L1371.93 57.6282 Q1371.93 63.1779 1373.43 64.7578 Q1374.97 66.3376 1379.63 66.3376 L1387.29 66.3376 L1387.29 72.576 L1379.63 72.576 Q1371 72.576 1367.72 69.3758 Q1364.44 66.1351 1364.44 57.6282 L1364.44 32.9987 L1358.97 32.9987 L1358.97 27.2059 L1364.44 27.2059 L1364.44 14.324 L1371.93 14.324 Z" fill="#000000" fill-rule="evenodd" fill-opacity="1" /><path clip-path="url(#clip600)" d="M 0 0 M1395.1 27.2059 L1402.56 27.2059 L1402.56 72.576 L1395.1 72.576 L1395.1 27.2059 M1395.1 9.54393 L1402.56 9.54393 L1402.56 18.9825 L1395.1 18.9825 L1395.1 9.54393 Z" fill="#000000" fill-rule="evenodd" fill-opacity="1" /><path clip-path="url(#clip600)" d="M 0 0 M1439.3 28.5427 L1439.3 35.5912 Q1436.14 33.9709 1432.74 33.1607 Q1429.33 32.3505 1425.69 32.3505 Q1420.14 32.3505 1417.34 34.0519 Q1414.59 35.7533 1414.59 39.156 Q1414.59 41.7486 1416.57 43.2475 Q1418.56 44.7058 1424.55 46.0426 L1427.11 46.6097 Q1435.05 48.3111 1438.37 51.4303 Q1441.73 54.509 1441.73 60.0587 Q1441.73 66.3781 1436.71 70.0644 Q1431.72 73.7508 1422.97 73.7508 Q1419.33 73.7508 1415.36 73.0216 Q1411.43 72.3329 1407.05 70.9151 L1407.05 63.2184 Q1411.19 65.3654 1415.2 66.4591 Q1419.21 67.5124 1423.14 67.5124 Q1428.4 67.5124 1431.24 65.73 Q1434.07 63.9071 1434.07 60.6258 Q1434.07 57.5877 1432.01 55.9673 Q1429.98 54.3469 1423.06 52.8481 L1420.46 52.2405 Q1413.54 50.7821 1410.46 47.7845 Q1407.38 44.7463 1407.38 39.4801 Q1407.38 33.0797 1411.92 29.5959 Q1416.45 26.1121 1424.8 26.1121 Q1428.93 26.1121 1432.58 26.7198 Q1436.22 27.3274 1439.3 28.5427 Z" fill="#000000" fill-rule="evenodd" fill-opacity="1" /><path clip-path="url(#clip600)" d="M 0 0 M1456.92 14.324 L1456.92 27.2059 L1472.27 27.2059 L1472.27 32.9987 L1456.92 32.9987 L1456.92 57.6282 Q1456.92 63.1779 1458.42 64.7578 Q1459.96 66.3376 1464.62 66.3376 L1472.27 66.3376 L1472.27 72.576 L1464.62 72.576 Q1455.99 72.576 1452.71 69.3758 Q1449.43 66.1351 1449.43 57.6282 L1449.43 32.9987 L1443.96 32.9987 L1443.96 27.2059 L1449.43 27.2059 L1449.43 14.324 L1456.92 14.324 Z" fill="#000000" fill-rule="evenodd" fill-opacity="1" /><path clip-path="url(#clip600)" d="M 0 0 M1480.09 27.2059 L1487.55 27.2059 L1487.55 72.576 L1480.09 72.576 L1480.09 27.2059 M1480.09 9.54393 L1487.55 9.54393 L1487.55 18.9825 L1480.09 18.9825 L1480.09 9.54393 Z" fill="#000000" fill-rule="evenodd" fill-opacity="1" /><path clip-path="url(#clip600)" d="M 0 0 M1528.01 28.9478 L1528.01 35.9153 Q1524.86 34.1734 1521.65 33.3227 Q1518.5 32.4315 1515.25 32.4315 Q1508 32.4315 1503.99 37.0496 Q1499.98 41.6271 1499.98 49.9314 Q1499.98 58.2358 1503.99 62.8538 Q1508 67.4314 1515.25 67.4314 Q1518.5 67.4314 1521.65 66.5807 Q1524.86 65.6895 1528.01 63.9476 L1528.01 70.8341 Q1524.9 72.2924 1521.53 73.0216 Q1518.21 73.7508 1514.44 73.7508 Q1504.2 73.7508 1498.16 67.3098 Q1492.12 60.8689 1492.12 49.9314 Q1492.12 38.832 1498.2 32.472 Q1504.32 26.1121 1514.93 26.1121 Q1518.37 26.1121 1521.65 26.8413 Q1524.94 27.5299 1528.01 28.9478 Z" fill="#000000" fill-rule="evenodd" fill-opacity="1" /><path clip-path="url(#clip600)" d="M 0 0 M1556.45 49.7694 Q1547.42 49.7694 1543.93 51.8354 Q1540.45 53.9013 1540.45 58.8839 Q1540.45 62.8538 1543.04 65.2034 Q1545.68 67.5124 1550.17 67.5124 Q1556.37 67.5124 1560.1 63.1374 Q1563.87 58.7219 1563.87 51.4303 L1563.87 49.7694 L1556.45 49.7694 M1571.32 46.6907 L1571.32 72.576 L1563.87 72.576 L1563.87 65.6895 Q1561.31 69.8214 1557.51 71.8063 Q1553.7 73.7508 1548.19 73.7508 Q1541.22 73.7508 1537.09 69.8619 Q1533 65.9325 1533 59.3701 Q1533 51.7138 1538.1 47.825 Q1543.25 43.9361 1553.41 43.9361 L1563.87 43.9361 L1563.87 43.2069 Q1563.87 38.0623 1560.46 35.2672 Q1557.1 32.4315 1550.98 32.4315 Q1547.09 32.4315 1543.41 33.3632 Q1539.72 34.295 1536.32 36.1584 L1536.32 29.2718 Q1540.41 27.692 1544.26 26.9223 Q1548.11 26.1121 1551.75 26.1121 Q1561.6 26.1121 1566.46 31.2163 Q1571.32 36.3204 1571.32 46.6907 Z" fill="#000000" fill-rule="evenodd" fill-opacity="1" /><path clip-path="url(#clip600)" d="M 0 0 M1579.14 9.54393 L1586.59 9.54393 L1586.59 72.576 L1579.14 72.576 L1579.14 9.54393 Z" fill="#000000" fill-rule="evenodd" fill-opacity="1" /><path clip-path="url(#clip600)" d="M 0 0 M1621.1 12.096 L1633.3 12.096 L1648.73 53.2532 L1664.25 12.096 L1676.44 12.096 L1676.44 72.576 L1668.46 72.576 L1668.46 19.4686 L1652.86 60.9499 L1644.64 60.9499 L1629.04 19.4686 L1629.04 72.576 L1621.1 72.576 L1621.1 12.096 Z" fill="#000000" fill-rule="evenodd" fill-opacity="1" /><path clip-path="url(#clip600)" d="M 0 0 M1701.84 32.4315 Q1695.84 32.4315 1692.36 37.1306 Q1688.88 41.7891 1688.88 49.9314 Q1688.88 58.0738 1692.32 62.7728 Q1695.8 67.4314 1701.84 67.4314 Q1707.79 67.4314 1711.28 62.7323 Q1714.76 58.0333 1714.76 49.9314 Q1714.76 41.8701 1711.28 37.1711 Q1707.79 32.4315 1701.84 32.4315 M1701.84 26.1121 Q1711.56 26.1121 1717.11 32.4315 Q1722.66 38.7509 1722.66 49.9314 Q1722.66 61.0714 1717.11 67.4314 Q1711.56 73.7508 1701.84 73.7508 Q1692.08 73.7508 1686.53 67.4314 Q1681.02 61.0714 1681.02 49.9314 Q1681.02 38.7509 1686.53 32.4315 Q1692.08 26.1121 1701.84 26.1121 Z" fill="#000000" fill-rule="evenodd" fill-opacity="1" /><path clip-path="url(#clip600)" d="M 0 0 M1760.33 34.0924 L1760.33 9.54393 L1767.79 9.54393 L1767.79 72.576 L1760.33 72.576 L1760.33 65.7705 Q1757.98 69.8214 1754.38 71.8063 Q1750.81 73.7508 1745.79 73.7508 Q1737.57 73.7508 1732.38 67.1883 Q1727.24 60.6258 1727.24 49.9314 Q1727.24 39.2371 1732.38 32.6746 Q1737.57 26.1121 1745.79 26.1121 Q1750.81 26.1121 1754.38 28.0971 Q1757.98 30.0415 1760.33 34.0924 M1734.93 49.9314 Q1734.93 58.1548 1738.3 62.8538 Q1741.7 67.5124 1747.61 67.5124 Q1753.53 67.5124 1756.93 62.8538 Q1760.33 58.1548 1760.33 49.9314 Q1760.33 41.7081 1756.93 37.0496 Q1753.53 32.3505 1747.61 32.3505 Q1741.7 32.3505 1738.3 37.0496 Q1734.93 41.7081 1734.93 49.9314 Z" fill="#000000" fill-rule="evenodd" fill-opacity="1" /><path clip-path="url(#clip600)" d="M 0 0 M1814.41 48.0275 L1814.41 51.6733 L1780.14 51.6733 Q1780.63 59.3701 1784.76 63.421 Q1788.93 67.4314 1796.35 67.4314 Q1800.64 67.4314 1804.65 66.3781 Q1808.7 65.3249 1812.67 63.2184 L1812.67 70.267 Q1808.66 71.9684 1804.45 72.8596 Q1800.24 73.7508 1795.9 73.7508 Q1785.04 73.7508 1778.68 67.4314 Q1772.37 61.1119 1772.37 50.3365 Q1772.37 39.1965 1778.36 32.6746 Q1784.4 26.1121 1794.6 26.1121 Q1803.76 26.1121 1809.07 32.0264 Q1814.41 37.9003 1814.41 48.0275 M1806.96 45.84 Q1806.88 39.7232 1803.52 36.0774 Q1800.19 32.4315 1794.69 32.4315 Q1788.45 32.4315 1784.68 35.9558 Q1780.95 39.4801 1780.39 45.8805 L1806.96 45.84 Z" fill="#000000" fill-rule="evenodd" fill-opacity="1" /><path clip-path="url(#clip600)" d="M 0 0 M1822.23 9.54393 L1829.69 9.54393 L1829.69 72.576 L1822.23 72.576 L1822.23 9.54393 Z" fill="#000000" fill-rule="evenodd" fill-opacity="1" /><polyline clip-path="url(#clip602)" style="stroke:#009af9; stroke-width:4; stroke-opacity:1; fill:none" points="
  743.784,1447.87 743.784,1360.2 769.569,1360.2 769.569,1330.98 795.354,1330.98 795.354,1214.09 821.139,1214.09 821.139,1287.14 846.923,1287.14 846.923,1214.09 
  872.708,1214.09 872.708,951.077 898.493,951.077 898.493,1024.13 924.278,1024.13 924.278,819.572 950.063,819.572 950.063,1053.36 975.847,1053.36 975.847,746.513 
  1001.63,746.513 1001.63,892.63 1027.42,892.63 1027.42,965.688 1053.2,965.688 1053.2,848.795 1078.99,848.795 1078.99,1024.13 1104.77,1024.13 1104.77,1038.75 
  1130.56,1038.75 1130.56,1082.58 1156.34,1082.58 1156.34,1243.31 1182.13,1243.31 1182.13,1214.09 1207.91,1214.09 1207.91,1330.98 1233.7,1330.98 1233.7,1360.2 
  1259.48,1360.2 1259.48,1404.04 1285.27,1404.04 1285.27,1418.65 1311.05,1418.65 1311.05,1404.04 1336.83,1404.04 1362.62,1404.04 1362.62,1433.26 
  1388.4,1433.26 1388.4,1404.04 1414.19,1404.04 1414.19,1433.26 1439.97,1433.26 1439.97,1418.65 1465.76,1418.65 1465.76,1360.2 1491.54,1360.2 1491.54,1301.76 
  1517.33,1301.76 1517.33,1360.2 1543.11,1360.2 1543.11,1184.86 1568.9,1184.86 1568.9,1053.36 1594.68,1053.36 1594.68,951.077 1620.47,951.077 1620.47,775.737 
  1646.25,775.737 1646.25,790.348 1672.04,790.348 1672.04,688.067 1697.82,688.067 1697.82,468.892 1723.61,468.892 1723.61,264.329 1749.39,264.329 1749.39,162.047 
  1775.18,162.047 1775.18,191.27 1800.96,191.27 1800.96,439.668 1826.75,439.668 1826.75,337.387 1852.53,337.387 1852.53,629.62 1878.32,629.62 1878.32,746.513 
  1904.1,746.513 1904.1,878.018 1929.89,878.018 1929.89,804.96 1955.67,804.96 1955.67,994.912 1981.45,994.912 1981.45,1170.25 2007.24,1170.25 
  2033.02,1170.25 2033.02,1272.53 2058.81,1272.53 2058.81,1316.37 2084.59,1316.37 2084.59,1418.65 2110.38,1418.65 2136.16,1418.65 
  2161.95,1418.65 2161.95,1433.26 2187.73,1433.26 2187.73,1447.87 2213.52,1447.87 2239.3,1447.87 2265.09,1447.87 
  2290.87,1447.87 
  "/>
<polyline clip-path="url(#clip602)" style="stroke:#e26f46; stroke-width:4; stroke-opacity:1; fill:none" points="
  228.088,1447.87 230.667,1447.87 233.245,1447.87 235.824,1447.87 238.402,1447.87 240.981,1447.87 243.559,1447.87 246.138,1447.87 248.716,1447.87 251.295,1447.87 
  253.873,1447.87 256.451,1447.87 259.03,1447.87 261.608,1447.87 264.187,1447.87 266.765,1447.87 269.344,1447.87 271.922,1447.87 274.501,1447.87 277.079,1447.87 
  279.658,1447.87 282.236,1447.87 284.815,1447.87 287.393,1447.87 289.972,1447.87 292.55,1447.87 295.129,1447.87 297.707,1447.87 300.286,1447.87 302.864,1447.87 
  305.443,1447.87 308.021,1447.87 310.6,1447.87 313.178,1447.87 315.757,1447.87 318.335,1447.87 320.913,1447.87 323.492,1447.87 326.07,1447.87 328.649,1447.87 
  331.227,1447.87 333.806,1447.87 336.384,1447.87 338.963,1447.87 341.541,1447.87 344.12,1447.87 346.698,1447.87 349.277,1447.87 351.855,1447.87 354.434,1447.87 
  357.012,1447.87 359.591,1447.87 362.169,1447.87 364.748,1447.87 367.326,1447.87 369.905,1447.87 372.483,1447.87 375.062,1447.87 377.64,1447.87 380.219,1447.87 
  382.797,1447.87 385.375,1447.87 387.954,1447.87 390.532,1447.87 393.111,1447.86 395.689,1447.86 398.268,1447.86 400.846,1447.86 403.425,1447.86 406.003,1447.86 
  408.582,1447.86 411.16,1447.86 413.739,1447.86 416.317,1447.85 418.896,1447.85 421.474,1447.85 424.053,1447.85 426.631,1447.85 429.21,1447.84 431.788,1447.84 
  434.367,1447.84 436.945,1447.83 439.524,1447.83 442.102,1447.83 444.681,1447.82 447.259,1447.82 449.837,1447.81 452.416,1447.81 454.994,1447.8 457.573,1447.79 
  460.151,1447.79 462.73,1447.78 465.308,1447.77 467.887,1447.76 470.465,1447.75 473.044,1447.74 475.622,1447.73 478.201,1447.72 480.779,1447.71 483.358,1447.69 
  485.936,1447.68 488.515,1447.66 491.093,1447.64 493.672,1447.62 496.25,1447.6 498.829,1447.58 501.407,1447.56 503.986,1447.53 506.564,1447.51 509.143,1447.48 
  511.721,1447.45 514.299,1447.41 516.878,1447.38 519.456,1447.34 522.035,1447.3 524.613,1447.25 527.192,1447.2 529.77,1447.15 532.349,1447.1 534.927,1447.04 
  537.506,1446.98 540.084,1446.91 542.663,1446.84 545.241,1446.77 547.82,1446.68 550.398,1446.6 552.977,1446.51 555.555,1446.41 558.134,1446.3 560.712,1446.19 
  563.291,1446.07 565.869,1445.95 568.448,1445.81 571.026,1445.67 573.605,1445.52 576.183,1445.36 578.762,1445.18 581.34,1445 583.918,1444.81 586.497,1444.61 
  589.075,1444.39 591.654,1444.16 594.232,1443.92 596.811,1443.66 599.389,1443.39 601.968,1443.1 604.546,1442.8 607.125,1442.47 609.703,1442.13 612.282,1441.78 
  614.86,1441.4 617.439,1441 620.017,1440.58 622.596,1440.13 625.174,1439.67 627.753,1439.18 630.331,1438.66 632.91,1438.11 635.488,1437.54 638.067,1436.94 
  640.645,1436.31 643.224,1435.64 645.802,1434.95 648.38,1434.22 650.959,1433.45 653.537,1432.65 656.116,1431.8 658.694,1430.92 661.273,1430 663.851,1429.04 
  666.43,1428.03 669.008,1426.97 671.587,1425.87 674.165,1424.72 676.744,1423.52 679.322,1422.26 681.901,1420.95 684.479,1419.59 687.058,1418.17 689.636,1416.69 
  692.215,1415.15 694.793,1413.55 697.372,1411.88 699.95,1410.15 702.529,1408.35 705.107,1406.48 707.686,1404.54 710.264,1402.53 712.842,1400.44 715.421,1398.28 
  717.999,1396.04 720.578,1393.72 723.156,1391.32 725.735,1388.83 728.313,1386.26 730.892,1383.61 733.47,1380.86 736.049,1378.03 738.627,1375.11 741.206,1372.09 
  743.784,1368.98 746.363,1365.78 748.941,1362.48 751.52,1359.09 754.098,1355.59 756.677,1352 759.255,1348.3 761.834,1344.51 764.412,1340.61 766.991,1336.62 
  769.569,1332.51 772.148,1328.31 774.726,1324 777.304,1319.59 779.883,1315.07 782.461,1310.45 785.04,1305.73 787.618,1300.9 790.197,1295.97 792.775,1290.93 
  795.354,1285.8 797.932,1280.56 800.511,1275.23 803.089,1269.79 805.668,1264.26 808.246,1258.63 810.825,1252.9 813.403,1247.08 815.982,1241.18 818.56,1235.18 
  821.139,1229.1 823.717,1222.93 826.296,1216.68 828.874,1210.35 831.453,1203.95 834.031,1197.48 836.61,1190.93 839.188,1184.32 841.766,1177.65 844.345,1170.92 
  846.923,1164.14 849.502,1157.3 852.08,1150.42 854.659,1143.5 857.237,1136.54 859.816,1129.55 862.394,1122.54 864.973,1115.5 867.551,1108.45 870.13,1101.38 
  872.708,1094.31 875.287,1087.24 877.865,1080.18 880.444,1073.13 883.022,1066.09 885.601,1059.08 888.179,1052.1 890.758,1045.15 893.336,1038.24 895.915,1031.39 
  898.493,1024.59 901.072,1017.84 903.65,1011.17 906.228,1004.57 908.807,998.051 911.385,991.618 913.964,985.278 916.542,979.038 919.121,972.903 921.699,966.881 
  924.278,960.977 926.856,955.197 929.435,949.549 932.013,944.037 934.592,938.668 937.17,933.447 939.749,928.381 942.327,923.475 944.906,918.734 947.484,914.164 
  950.063,909.769 952.641,905.556 955.22,901.528 957.798,897.69 960.377,894.047 962.955,890.602 965.534,887.361 968.112,884.326 970.69,881.501 973.269,878.89 
  975.847,876.495 978.426,874.319 981.004,872.366 983.583,870.637 986.161,869.134 988.74,867.859 991.318,866.815 993.897,866 996.475,865.418 999.054,865.069 
  1001.63,864.952 1004.21,865.069 1006.79,865.418 1009.37,866 1011.95,866.814 1014.52,867.859 1017.1,869.134 1019.68,870.637 1022.26,872.366 1024.84,874.319 
  1027.42,876.495 1030,878.889 1032.57,881.501 1035.15,884.326 1037.73,887.36 1040.31,890.602 1042.89,894.046 1045.47,897.69 1048.04,901.527 1050.62,905.555 
  1053.2,909.769 1055.78,914.163 1058.36,918.734 1060.94,923.475 1063.52,928.381 1066.09,933.447 1068.67,938.667 1071.25,944.036 1073.83,949.548 1076.41,955.197 
  1078.99,960.976 1081.57,966.88 1084.14,972.902 1086.72,979.037 1089.3,985.277 1091.88,991.617 1094.46,998.05 1097.04,1004.57 1099.61,1011.17 1102.19,1017.84 
  1104.77,1024.58 1107.35,1031.39 1109.93,1038.24 1112.51,1045.15 1115.09,1052.09 1117.66,1059.08 1120.24,1066.09 1122.82,1073.12 1125.4,1080.18 1127.98,1087.24 
  1130.56,1094.31 1133.13,1101.38 1135.71,1108.44 1138.29,1115.5 1140.87,1122.53 1143.45,1129.55 1146.03,1136.54 1148.61,1143.49 1151.18,1150.41 1153.76,1157.29 
  1156.34,1164.12 1158.92,1170.91 1161.5,1177.63 1164.08,1184.31 1166.65,1190.91 1169.23,1197.46 1171.81,1203.93 1174.39,1210.33 1176.97,1216.66 1179.55,1222.9 
  1182.13,1229.07 1184.7,1235.15 1187.28,1241.14 1189.86,1247.05 1192.44,1252.86 1195.02,1258.58 1197.6,1264.21 1200.18,1269.73 1202.75,1275.16 1205.33,1280.5 
  1207.91,1285.73 1210.49,1290.86 1213.07,1295.88 1215.65,1300.8 1218.22,1305.62 1220.8,1310.34 1223.38,1314.95 1225.96,1319.45 1228.54,1323.86 1231.12,1328.15 
  1233.7,1332.34 1236.27,1336.43 1238.85,1340.41 1241.43,1344.29 1244.01,1348.06 1246.59,1351.74 1249.17,1355.31 1251.74,1358.78 1254.32,1362.15 1256.9,1365.42 
  1259.48,1368.59 1262.06,1371.67 1264.64,1374.65 1267.22,1377.53 1269.79,1380.33 1272.37,1383.03 1274.95,1385.63 1277.53,1388.15 1280.11,1390.58 1282.69,1392.93 
  1285.27,1395.19 1287.84,1397.36 1290.42,1399.45 1293,1401.46 1295.58,1403.39 1298.16,1405.24 1300.74,1407.01 1303.31,1408.71 1305.89,1410.34 1308.47,1411.89 
  1311.05,1413.36 1313.63,1414.77 1316.21,1416.11 1318.79,1417.38 1321.36,1418.58 1323.94,1419.71 1326.52,1420.78 1329.1,1421.79 1331.68,1422.73 1334.26,1423.61 
  1336.83,1424.43 1339.41,1425.18 1341.99,1425.88 1344.57,1426.52 1347.15,1427.09 1349.73,1427.61 1352.31,1428.07 1354.88,1428.48 1357.46,1428.82 1360.04,1429.11 
  1362.62,1429.34 1365.2,1429.51 1367.78,1429.63 1370.35,1429.69 1372.93,1429.69 1375.51,1429.63 1378.09,1429.51 1380.67,1429.34 1383.25,1429.1 1385.83,1428.8 
  1388.4,1428.45 1390.98,1428.03 1393.56,1427.54 1396.14,1427 1398.72,1426.38 1401.3,1425.7 1403.88,1424.96 1406.45,1424.14 1409.03,1423.25 1411.61,1422.29 
  1414.19,1421.26 1416.77,1420.15 1419.35,1418.96 1421.92,1417.69 1424.5,1416.34 1427.08,1414.9 1429.66,1413.38 1432.24,1411.77 1434.82,1410.07 1437.4,1408.27 
  1439.97,1406.38 1442.55,1404.39 1445.13,1402.29 1447.71,1400.1 1450.29,1397.79 1452.87,1395.37 1455.44,1392.85 1458.02,1390.2 1460.6,1387.44 1463.18,1384.55 
  1465.76,1381.53 1468.34,1378.39 1470.92,1375.12 1473.49,1371.71 1476.07,1368.16 1478.65,1364.47 1481.23,1360.64 1483.81,1356.65 1486.39,1352.52 1488.97,1348.23 
  1491.54,1343.78 1494.12,1339.17 1496.7,1334.39 1499.28,1329.45 1501.86,1324.34 1504.44,1319.05 1507.01,1313.58 1509.59,1307.94 1512.17,1302.11 1514.75,1296.1 
  1517.33,1289.9 1519.91,1283.51 1522.49,1276.92 1525.06,1270.14 1527.64,1263.17 1530.22,1255.99 1532.8,1248.61 1535.38,1241.04 1537.96,1233.25 1540.53,1225.26 
  1543.11,1217.07 1545.69,1208.67 1548.27,1200.06 1550.85,1191.24 1553.43,1182.21 1556.01,1172.97 1558.58,1163.53 1561.16,1153.88 1563.74,1144.02 1566.32,1133.96 
  1568.9,1123.69 1571.48,1113.22 1574.05,1102.55 1576.63,1091.68 1579.21,1080.61 1581.79,1069.36 1584.37,1057.91 1586.95,1046.28 1589.53,1034.46 1592.1,1022.47 
  1594.68,1010.3 1597.26,997.972 1599.84,985.475 1602.42,972.822 1605,960.017 1607.58,947.068 1610.15,933.98 1612.73,920.761 1615.31,907.418 1617.89,893.959 
  1620.47,880.391 1623.05,866.724 1625.62,852.965 1628.2,839.124 1630.78,825.21 1633.36,811.233 1635.94,797.202 1638.52,783.128 1641.1,769.021 1643.67,754.892 
  1646.25,740.752 1648.83,726.612 1651.41,712.483 1653.99,698.377 1656.57,684.306 1659.14,670.282 1661.72,656.317 1664.3,642.424 1666.88,628.614 1669.46,614.901 
  1672.04,601.297 1674.62,587.815 1677.19,574.468 1679.77,561.268 1682.35,548.229 1684.93,535.363 1687.51,522.683 1690.09,510.202 1692.66,497.933 1695.24,485.888 
  1697.82,474.08 1700.4,462.521 1702.98,451.224 1705.56,440.2 1708.14,429.462 1710.71,419.021 1713.29,408.889 1715.87,399.076 1718.45,389.595 1721.03,380.454 
  1723.61,371.665 1726.19,363.238 1728.76,355.182 1731.34,347.506 1733.92,340.22 1736.5,333.331 1739.08,326.848 1741.66,320.778 1744.23,315.129 1746.81,309.906 
  1749.39,305.116 1751.97,300.766 1754.55,296.859 1757.13,293.401 1759.71,290.395 1762.28,287.846 1764.86,285.756 1767.44,284.128 1770.02,282.963 1772.6,282.264 
  1775.18,282.031 1777.75,282.264 1780.33,282.964 1782.91,284.128 1785.49,285.756 1788.07,287.846 1790.65,290.395 1793.23,293.401 1795.8,296.859 1798.38,300.766 
  1800.96,305.116 1803.54,309.906 1806.12,315.129 1808.7,320.778 1811.28,326.848 1813.85,333.331 1816.43,340.22 1819.01,347.506 1821.59,355.182 1824.17,363.238 
  1826.75,371.665 1829.32,380.454 1831.9,389.595 1834.48,399.076 1837.06,408.889 1839.64,419.021 1842.22,429.462 1844.8,440.2 1847.37,451.224 1849.95,462.521 
  1852.53,474.08 1855.11,485.888 1857.69,497.933 1860.27,510.202 1862.84,522.683 1865.42,535.363 1868,548.229 1870.58,561.269 1873.16,574.469 1875.74,587.816 
  1878.32,601.298 1880.89,614.902 1883.47,628.615 1886.05,642.425 1888.63,656.319 1891.21,670.284 1893.79,684.308 1896.36,698.379 1898.94,712.485 1901.52,726.614 
  1904.1,740.754 1906.68,754.895 1909.26,769.024 1911.84,783.131 1914.41,797.206 1916.99,811.237 1919.57,825.214 1922.15,839.129 1924.73,852.97 1927.31,866.729 
  1929.89,880.397 1932.46,893.965 1935.04,907.425 1937.62,920.769 1940.2,933.988 1942.78,947.077 1945.36,960.028 1947.93,972.833 1950.51,985.488 1953.09,997.985 
  1955.67,1010.32 1958.25,1022.49 1960.83,1034.48 1963.41,1046.3 1965.98,1057.93 1968.56,1069.38 1971.14,1080.64 1973.72,1091.71 1976.3,1102.58 1978.88,1113.25 
  1981.45,1123.73 1984.03,1134 1986.61,1144.06 1989.19,1153.93 1991.77,1163.58 1994.35,1173.03 1996.93,1182.27 1999.5,1191.3 2002.08,1200.13 2004.66,1208.75 
  2007.24,1217.15 2009.82,1225.36 2012.4,1233.35 2014.97,1241.15 2017.55,1248.73 2020.13,1256.12 2022.71,1263.31 2025.29,1270.3 2027.87,1277.09 2030.45,1283.69 
  2033.02,1290.09 2035.6,1296.31 2038.18,1302.34 2040.76,1308.19 2043.34,1313.85 2045.92,1319.34 2048.5,1324.65 2051.07,1329.79 2053.65,1334.76 2056.23,1339.56 
  2058.81,1344.2 2061.39,1348.69 2063.97,1353.01 2066.54,1357.19 2069.12,1361.21 2071.7,1365.09 2074.28,1368.83 2076.86,1372.43 2079.44,1375.89 2082.02,1379.22 
  2084.59,1382.43 2087.17,1385.51 2089.75,1388.47 2092.33,1391.31 2094.91,1394.03 2097.49,1396.65 2100.06,1399.16 2102.64,1401.56 2105.22,1403.86 2107.8,1406.07 
  2110.38,1408.18 2112.96,1410.2 2115.54,1412.13 2118.11,1413.97 2120.69,1415.74 2123.27,1417.42 2125.85,1419.03 2128.43,1420.56 2131.01,1422.02 2133.59,1423.41 
  2136.16,1424.74 2138.74,1426.01 2141.32,1427.21 2143.9,1428.35 2146.48,1429.44 2149.06,1430.48 2151.63,1431.46 2154.21,1432.4 2156.79,1433.28 2159.37,1434.12 
  2161.95,1434.92 2164.53,1435.68 2167.11,1436.4 2169.68,1437.07 2172.26,1437.72 2174.84,1438.33 2177.42,1438.9 2180,1439.45 2182.58,1439.96 2185.15,1440.45 
  2187.73,1440.91 2190.31,1441.34 2192.89,1441.75 2195.47,1442.13 2198.05,1442.5 2200.63,1442.84 2203.2,1443.16 2205.78,1443.47 2208.36,1443.75 2210.94,1444.02 
  2213.52,1444.27 2216.1,1444.51 2218.67,1444.73 2221.25,1444.94 2223.83,1445.14 2226.41,1445.32 2228.99,1445.5 2231.57,1445.66 2234.15,1445.81 2236.72,1445.95 
  2239.3,1446.08 2241.88,1446.21 2244.46,1446.33 2247.04,1446.43 2249.62,1446.54 2252.2,1446.63 2254.77,1446.72 2257.35,1446.8 2259.93,1446.88 2262.51,1446.95 
  2265.09,1447.02 2267.67,1447.08 2270.24,1447.14 2272.82,1447.2 2275.4,1447.25 2277.98,1447.29 2280.56,1447.34 2283.14,1447.38 2285.72,1447.41 2288.29,1447.45 
  2290.87,1447.48 
  "/>
<path clip-path="url(#clip600)" d="
M1925.95 350.345 L2279.87 350.345 L2279.87 168.905 L1925.95 168.905  Z
  " fill="#ffffff" fill-rule="evenodd" fill-opacity="1"/>
<polyline clip-path="url(#clip600)" style="stroke:#000000; stroke-width:4; stroke-opacity:1; fill:none" points="
  1925.95,350.345 2279.87,350.345 2279.87,168.905 1925.95,168.905 1925.95,350.345 
  "/>
<polyline clip-path="url(#clip600)" style="stroke:#009af9; stroke-width:4; stroke-opacity:1; fill:none" points="
  1950.24,229.385 2096.01,229.385 
  "/>
<path clip-path="url(#clip600)" d="M 0 0 M2124.99 215.947 L2124.99 242.822 L2130.63 242.822 Q2137.79 242.822 2141.1 239.581 Q2144.43 236.341 2144.43 229.35 Q2144.43 222.406 2141.1 219.188 Q2137.79 215.947 2130.63 215.947 L2124.99 215.947 M2120.31 212.105 L2129.92 212.105 Q2139.96 212.105 2144.66 216.294 Q2149.36 220.461 2149.36 229.35 Q2149.36 238.285 2144.64 242.475 Q2139.92 246.665 2129.92 246.665 L2120.31 246.665 L2120.31 212.105 Z" fill="#000000" fill-rule="evenodd" fill-opacity="1" /><path clip-path="url(#clip600)" d="M 0 0 M2165.61 233.632 Q2160.45 233.632 2158.46 234.813 Q2156.47 235.993 2156.47 238.841 Q2156.47 241.109 2157.95 242.452 Q2159.45 243.771 2162.02 243.771 Q2165.56 243.771 2167.69 241.271 Q2169.85 238.748 2169.85 234.581 L2169.85 233.632 L2165.61 233.632 M2174.11 231.873 L2174.11 246.665 L2169.85 246.665 L2169.85 242.729 Q2168.39 245.091 2166.21 246.225 Q2164.04 247.336 2160.89 247.336 Q2156.91 247.336 2154.55 245.114 Q2152.21 242.868 2152.21 239.118 Q2152.21 234.743 2155.12 232.521 Q2158.06 230.299 2163.87 230.299 L2169.85 230.299 L2169.85 229.882 Q2169.85 226.943 2167.9 225.345 Q2165.98 223.725 2162.48 223.725 Q2160.26 223.725 2158.16 224.257 Q2156.05 224.79 2154.11 225.855 L2154.11 221.919 Q2156.44 221.017 2158.64 220.577 Q2160.84 220.114 2162.92 220.114 Q2168.55 220.114 2171.33 223.031 Q2174.11 225.947 2174.11 231.873 Z" fill="#000000" fill-rule="evenodd" fill-opacity="1" /><path clip-path="url(#clip600)" d="M 0 0 M2182.79 213.378 L2182.79 220.739 L2191.56 220.739 L2191.56 224.049 L2182.79 224.049 L2182.79 238.123 Q2182.79 241.294 2183.64 242.197 Q2184.52 243.1 2187.18 243.1 L2191.56 243.1 L2191.56 246.665 L2187.18 246.665 Q2182.25 246.665 2180.38 244.836 Q2178.5 242.984 2178.5 238.123 L2178.5 224.049 L2175.38 224.049 L2175.38 220.739 L2178.5 220.739 L2178.5 213.378 L2182.79 213.378 Z" fill="#000000" fill-rule="evenodd" fill-opacity="1" /><path clip-path="url(#clip600)" d="M 0 0 M2207.81 233.632 Q2202.65 233.632 2200.66 234.813 Q2198.67 235.993 2198.67 238.841 Q2198.67 241.109 2200.15 242.452 Q2201.65 243.771 2204.22 243.771 Q2207.76 243.771 2209.89 241.271 Q2212.04 238.748 2212.04 234.581 L2212.04 233.632 L2207.81 233.632 M2216.3 231.873 L2216.3 246.665 L2212.04 246.665 L2212.04 242.729 Q2210.59 245.091 2208.41 246.225 Q2206.23 247.336 2203.09 247.336 Q2199.11 247.336 2196.74 245.114 Q2194.41 242.868 2194.41 239.118 Q2194.41 234.743 2197.32 232.521 Q2200.26 230.299 2206.07 230.299 L2212.04 230.299 L2212.04 229.882 Q2212.04 226.943 2210.1 225.345 Q2208.18 223.725 2204.68 223.725 Q2202.46 223.725 2200.36 224.257 Q2198.25 224.79 2196.3 225.855 L2196.3 221.919 Q2198.64 221.017 2200.84 220.577 Q2203.04 220.114 2205.12 220.114 Q2210.75 220.114 2213.53 223.031 Q2216.3 225.947 2216.3 231.873 Z" fill="#000000" fill-rule="evenodd" fill-opacity="1" /><polyline clip-path="url(#clip600)" style="stroke:#e26f46; stroke-width:4; stroke-opacity:1; fill:none" points="
  1950.24,289.865 2096.01,289.865 
  "/>
<path clip-path="url(#clip600)" d="M 0 0 M2120.31 272.585 L2149.55 272.585 L2149.55 276.52 L2137.28 276.52 L2137.28 307.145 L2132.58 307.145 L2132.58 276.52 L2120.31 276.52 L2120.31 272.585 Z" fill="#000000" fill-rule="evenodd" fill-opacity="1" /><path clip-path="url(#clip600)" d="M 0 0 M2162.07 285.2 Q2161.35 284.784 2160.49 284.598 Q2159.66 284.39 2158.64 284.39 Q2155.03 284.39 2153.09 286.751 Q2151.17 289.089 2151.17 293.487 L2151.17 307.145 L2146.88 307.145 L2146.88 281.219 L2151.17 281.219 L2151.17 285.247 Q2152.51 282.886 2154.66 281.751 Q2156.81 280.594 2159.89 280.594 Q2160.33 280.594 2160.86 280.663 Q2161.4 280.71 2162.05 280.825 L2162.07 285.2 Z" fill="#000000" fill-rule="evenodd" fill-opacity="1" /><path clip-path="url(#clip600)" d="M 0 0 M2166.1 296.913 L2166.1 281.219 L2170.36 281.219 L2170.36 296.751 Q2170.36 300.432 2171.79 302.284 Q2173.23 304.112 2176.1 304.112 Q2179.55 304.112 2181.54 301.913 Q2183.55 299.714 2183.55 295.918 L2183.55 281.219 L2187.81 281.219 L2187.81 307.145 L2183.55 307.145 L2183.55 303.163 Q2182 305.524 2179.94 306.682 Q2177.9 307.816 2175.19 307.816 Q2170.73 307.816 2168.41 305.038 Q2166.1 302.26 2166.1 296.913 M2176.81 280.594 L2176.81 280.594 Z" fill="#000000" fill-rule="evenodd" fill-opacity="1" /><path clip-path="url(#clip600)" d="M 0 0 M2196.49 273.858 L2196.49 281.219 L2205.26 281.219 L2205.26 284.529 L2196.49 284.529 L2196.49 298.603 Q2196.49 301.774 2197.35 302.677 Q2198.23 303.58 2200.89 303.58 L2205.26 303.58 L2205.26 307.145 L2200.89 307.145 Q2195.96 307.145 2194.08 305.316 Q2192.21 303.464 2192.21 298.603 L2192.21 284.529 L2189.08 284.529 L2189.08 281.219 L2192.21 281.219 L2192.21 273.858 L2196.49 273.858 Z" fill="#000000" fill-rule="evenodd" fill-opacity="1" /><path clip-path="url(#clip600)" d="M 0 0 M2231.28 291.497 L2231.28 307.145 L2227.02 307.145 L2227.02 291.635 Q2227.02 287.955 2225.59 286.126 Q2224.15 284.298 2221.28 284.298 Q2217.83 284.298 2215.84 286.497 Q2213.85 288.696 2213.85 292.492 L2213.85 307.145 L2209.57 307.145 L2209.57 271.126 L2213.85 271.126 L2213.85 285.247 Q2215.38 282.909 2217.44 281.751 Q2219.52 280.594 2222.23 280.594 Q2226.7 280.594 2228.99 283.372 Q2231.28 286.126 2231.28 291.497 Z" fill="#000000" fill-rule="evenodd" fill-opacity="1" /></svg>
