<?xml version="1.0" encoding="utf-8"?>
<svg xmlns="http://www.w3.org/2000/svg" xmlns:xlink="http://www.w3.org/1999/xlink" width="600" height="400" viewBox="0 0 2400 1600">
<defs>
  <clipPath id="clip750">
    <rect x="0" y="0" width="2400" height="1600"/>
  </clipPath>
</defs>
<path clip-path="url(#clip750)" d="
M0 1600 L2400 1600 L2400 0 L0 0  Z
  " fill="#ffffff" fill-rule="evenodd" fill-opacity="1"/>
<defs>
  <clipPath id="clip751">
    <rect x="480" y="0" width="1681" height="1600"/>
  </clipPath>
</defs>
<path clip-path="url(#clip750)" d="
M166.205 1486.45 L2352.76 1486.45 L2352.76 123.472 L166.205 123.472  Z
  " fill="#ffffff" fill-rule="evenodd" fill-opacity="1"/>
<defs>
  <clipPath id="clip752">
    <rect x="166" y="123" width="2188" height="1364"/>
  </clipPath>
</defs>
<polyline clip-path="url(#clip752)" style="stroke:#000000; stroke-width:2; stroke-opacity:0.1; fill:none" points="
  228.088,1486.45 228.088,123.472 
  "/>
<polyline clip-path="url(#clip752)" style="stroke:#000000; stroke-width:2; stroke-opacity:0.1; fill:none" points="
  571.886,1486.45 571.886,123.472 
  "/>
<polyline clip-path="url(#clip752)" style="stroke:#000000; stroke-width:2; stroke-opacity:0.1; fill:none" points="
  915.683,1486.45 915.683,123.472 
  "/>
<polyline clip-path="url(#clip752)" style="stroke:#000000; stroke-width:2; stroke-opacity:0.1; fill:none" points="
  1259.48,1486.45 1259.48,123.472 
  "/>
<polyline clip-path="url(#clip752)" style="stroke:#000000; stroke-width:2; stroke-opacity:0.1; fill:none" points="
  1603.28,1486.45 1603.28,123.472 
  "/>
<polyline clip-path="url(#clip752)" style="stroke:#000000; stroke-width:2; stroke-opacity:0.1; fill:none" points="
  1947.08,1486.45 1947.08,123.472 
  "/>
<polyline clip-path="url(#clip752)" style="stroke:#000000; stroke-width:2; stroke-opacity:0.1; fill:none" points="
  2290.87,1486.45 2290.87,123.472 
  "/>
<polyline clip-path="url(#clip752)" style="stroke:#000000; stroke-width:2; stroke-opacity:0.1; fill:none" points="
  166.205,1447.87 2352.76,1447.87 
  "/>
<polyline clip-path="url(#clip752)" style="stroke:#000000; stroke-width:2; stroke-opacity:0.1; fill:none" points="
  166.205,1158.92 2352.76,1158.92 
  "/>
<polyline clip-path="url(#clip752)" style="stroke:#000000; stroke-width:2; stroke-opacity:0.1; fill:none" points="
  166.205,869.974 2352.76,869.974 
  "/>
<polyline clip-path="url(#clip752)" style="stroke:#000000; stroke-width:2; stroke-opacity:0.1; fill:none" points="
  166.205,581.024 2352.76,581.024 
  "/>
<polyline clip-path="url(#clip752)" style="stroke:#000000; stroke-width:2; stroke-opacity:0.1; fill:none" points="
  166.205,292.074 2352.76,292.074 
  "/>
<polyline clip-path="url(#clip750)" style="stroke:#000000; stroke-width:4; stroke-opacity:1; fill:none" points="
  166.205,1486.45 2352.76,1486.45 
  "/>
<polyline clip-path="url(#clip750)" style="stroke:#000000; stroke-width:4; stroke-opacity:1; fill:none" points="
  166.205,1486.45 166.205,123.472 
  "/>
<polyline clip-path="url(#clip750)" style="stroke:#000000; stroke-width:4; stroke-opacity:1; fill:none" points="
  228.088,1486.45 228.088,1470.09 
  "/>
<polyline clip-path="url(#clip750)" style="stroke:#000000; stroke-width:4; stroke-opacity:1; fill:none" points="
  571.886,1486.45 571.886,1470.09 
  "/>
<polyline clip-path="url(#clip750)" style="stroke:#000000; stroke-width:4; stroke-opacity:1; fill:none" points="
  915.683,1486.45 915.683,1470.09 
  "/>
<polyline clip-path="url(#clip750)" style="stroke:#000000; stroke-width:4; stroke-opacity:1; fill:none" points="
  1259.48,1486.45 1259.48,1470.09 
  "/>
<polyline clip-path="url(#clip750)" style="stroke:#000000; stroke-width:4; stroke-opacity:1; fill:none" points="
  1603.28,1486.45 1603.28,1470.09 
  "/>
<polyline clip-path="url(#clip750)" style="stroke:#000000; stroke-width:4; stroke-opacity:1; fill:none" points="
  1947.08,1486.45 1947.08,1470.09 
  "/>
<polyline clip-path="url(#clip750)" style="stroke:#000000; stroke-width:4; stroke-opacity:1; fill:none" points="
  2290.87,1486.45 2290.87,1470.09 
  "/>
<polyline clip-path="url(#clip750)" style="stroke:#000000; stroke-width:4; stroke-opacity:1; fill:none" points="
  166.205,1447.87 192.443,1447.87 
  "/>
<polyline clip-path="url(#clip750)" style="stroke:#000000; stroke-width:4; stroke-opacity:1; fill:none" points="
  166.205,1158.92 192.443,1158.92 
  "/>
<polyline clip-path="url(#clip750)" style="stroke:#000000; stroke-width:4; stroke-opacity:1; fill:none" points="
  166.205,869.974 192.443,869.974 
  "/>
<polyline clip-path="url(#clip750)" style="stroke:#000000; stroke-width:4; stroke-opacity:1; fill:none" points="
  166.205,581.024 192.443,581.024 
  "/>
<polyline clip-path="url(#clip750)" style="stroke:#000000; stroke-width:4; stroke-opacity:1; fill:none" points="
  166.205,292.074 192.443,292.074 
  "/>
<path clip-path="url(#clip750)" d="M 0 0 M209.142 1525.04 L221.618 1525.04 L221.618 1528.83 L209.142 1528.83 L209.142 1525.04 Z" fill="#000000" fill-rule="evenodd" fill-opacity="1" /><path clip-path="url(#clip750)" d="M 0 0 M230.715 1535.98 L247.035 1535.98 L247.035 1539.92 L225.091 1539.92 L225.091 1535.98 Q227.753 1533.23 232.336 1528.6 Q236.942 1523.95 238.123 1522.61 Q240.368 1520.08 241.248 1518.35 Q242.151 1516.59 242.151 1514.9 Q242.151 1512.14 240.206 1510.41 Q238.285 1508.67 235.183 1508.67 Q232.984 1508.67 230.53 1509.43 Q228.1 1510.2 225.322 1511.75 L225.322 1507.03 Q228.146 1505.89 230.6 1505.31 Q233.053 1504.73 235.09 1504.73 Q240.461 1504.73 243.655 1507.42 Q246.85 1510.11 246.85 1514.6 Q246.85 1516.73 246.039 1518.65 Q245.252 1520.54 243.146 1523.14 Q242.567 1523.81 239.465 1527.03 Q236.364 1530.22 230.715 1535.98 Z" fill="#000000" fill-rule="evenodd" fill-opacity="1" /><path clip-path="url(#clip750)" d="M 0 0 M552.754 1525.04 L565.23 1525.04 L565.23 1528.83 L552.754 1528.83 L552.754 1525.04 Z" fill="#000000" fill-rule="evenodd" fill-opacity="1" /><path clip-path="url(#clip750)" d="M 0 0 M571.11 1535.98 L578.749 1535.98 L578.749 1509.62 L570.439 1511.29 L570.439 1507.03 L578.703 1505.36 L583.379 1505.36 L583.379 1535.98 L591.017 1535.98 L591.017 1539.92 L571.11 1539.92 L571.11 1535.98 Z" fill="#000000" fill-rule="evenodd" fill-opacity="1" /><path clip-path="url(#clip750)" d="M 0 0 M915.683 1508.44 Q912.072 1508.44 910.243 1512 Q908.438 1515.55 908.438 1522.67 Q908.438 1529.78 910.243 1533.35 Q912.072 1536.89 915.683 1536.89 Q919.317 1536.89 921.123 1533.35 Q922.951 1529.78 922.951 1522.67 Q922.951 1515.55 921.123 1512 Q919.317 1508.44 915.683 1508.44 M915.683 1504.73 Q921.493 1504.73 924.549 1509.34 Q927.627 1513.92 927.627 1522.67 Q927.627 1531.4 924.549 1536.01 Q921.493 1540.59 915.683 1540.59 Q909.873 1540.59 906.794 1536.01 Q903.739 1531.4 903.739 1522.67 Q903.739 1513.92 906.794 1509.34 Q909.873 1504.73 915.683 1504.73 Z" fill="#000000" fill-rule="evenodd" fill-opacity="1" /><path clip-path="url(#clip750)" d="M 0 0 M1249.86 1535.98 L1257.5 1535.98 L1257.5 1509.62 L1249.19 1511.29 L1249.19 1507.03 L1257.45 1505.36 L1262.13 1505.36 L1262.13 1535.98 L1269.77 1535.98 L1269.77 1539.92 L1249.86 1539.92 L1249.86 1535.98 Z" fill="#000000" fill-rule="evenodd" fill-opacity="1" /><path clip-path="url(#clip750)" d="M 0 0 M1597.93 1535.98 L1614.25 1535.98 L1614.25 1539.92 L1592.31 1539.92 L1592.31 1535.98 Q1594.97 1533.23 1599.55 1528.6 Q1604.16 1523.95 1605.34 1522.61 Q1607.58 1520.08 1608.46 1518.35 Q1609.37 1516.59 1609.37 1514.9 Q1609.37 1512.14 1607.42 1510.41 Q1605.5 1508.67 1602.4 1508.67 Q1600.2 1508.67 1597.75 1509.43 Q1595.31 1510.2 1592.54 1511.75 L1592.54 1507.03 Q1595.36 1505.89 1597.81 1505.31 Q1600.27 1504.73 1602.31 1504.73 Q1607.68 1504.73 1610.87 1507.42 Q1614.06 1510.11 1614.06 1514.6 Q1614.06 1516.73 1613.25 1518.65 Q1612.47 1520.54 1610.36 1523.14 Q1609.78 1523.81 1606.68 1527.03 Q1603.58 1530.22 1597.93 1535.98 Z" fill="#000000" fill-rule="evenodd" fill-opacity="1" /><path clip-path="url(#clip750)" d="M 0 0 M1951.32 1521.29 Q1954.68 1522 1956.55 1524.27 Q1958.45 1526.54 1958.45 1529.87 Q1958.45 1534.99 1954.93 1537.79 Q1951.42 1540.59 1944.93 1540.59 Q1942.76 1540.59 1940.44 1540.15 Q1938.15 1539.73 1935.7 1538.88 L1935.7 1534.36 Q1937.64 1535.5 1939.96 1536.08 Q1942.27 1536.66 1944.79 1536.66 Q1949.19 1536.66 1951.48 1534.92 Q1953.8 1533.18 1953.8 1529.87 Q1953.8 1526.82 1951.65 1525.11 Q1949.52 1523.37 1945.7 1523.37 L1941.67 1523.37 L1941.67 1519.53 L1945.88 1519.53 Q1949.33 1519.53 1951.16 1518.16 Q1952.99 1516.77 1952.99 1514.18 Q1952.99 1511.52 1951.09 1510.11 Q1949.22 1508.67 1945.7 1508.67 Q1943.78 1508.67 1941.58 1509.09 Q1939.38 1509.5 1936.74 1510.38 L1936.74 1506.22 Q1939.4 1505.48 1941.72 1505.11 Q1944.05 1504.73 1946.11 1504.73 Q1951.44 1504.73 1954.54 1507.17 Q1957.64 1509.57 1957.64 1513.69 Q1957.64 1516.56 1956 1518.55 Q1954.36 1520.52 1951.32 1521.29 Z" fill="#000000" fill-rule="evenodd" fill-opacity="1" /><path clip-path="url(#clip750)" d="M 0 0 M2293.88 1509.43 L2282.08 1527.88 L2293.88 1527.88 L2293.88 1509.43 M2292.65 1505.36 L2298.53 1505.36 L2298.53 1527.88 L2303.46 1527.88 L2303.46 1531.77 L2298.53 1531.77 L2298.53 1539.92 L2293.88 1539.92 L2293.88 1531.77 L2278.28 1531.77 L2278.28 1527.26 L2292.65 1505.36 Z" fill="#000000" fill-rule="evenodd" fill-opacity="1" /><path clip-path="url(#clip750)" d="M 0 0 M130.26 1433.67 Q126.649 1433.67 124.82 1437.24 Q123.015 1440.78 123.015 1447.91 Q123.015 1455.01 124.82 1458.58 Q126.649 1462.12 130.26 1462.12 Q133.895 1462.12 135.7 1458.58 Q137.529 1455.01 137.529 1447.91 Q137.529 1440.78 135.7 1437.24 Q133.895 1433.67 130.26 1433.67 M130.26 1429.97 Q136.07 1429.97 139.126 1434.57 Q142.205 1439.16 142.205 1447.91 Q142.205 1456.63 139.126 1461.24 Q136.07 1465.82 130.26 1465.82 Q124.45 1465.82 121.371 1461.24 Q118.316 1456.63 118.316 1447.91 Q118.316 1439.16 121.371 1434.57 Q124.45 1429.97 130.26 1429.97 Z" fill="#000000" fill-rule="evenodd" fill-opacity="1" /><path clip-path="url(#clip750)" d="M 0 0 M71.8578 1172.27 L88.1772 1172.27 L88.1772 1176.2 L66.2328 1176.2 L66.2328 1172.27 Q68.8949 1169.51 73.4782 1164.88 Q78.0846 1160.23 79.2652 1158.89 Q81.5105 1156.37 82.3902 1154.63 Q83.2929 1152.87 83.2929 1151.18 Q83.2929 1148.43 81.3485 1146.69 Q79.4272 1144.95 76.3254 1144.95 Q74.1263 1144.95 71.6726 1145.72 Q69.2421 1146.48 66.4643 1148.03 L66.4643 1143.31 Q69.2884 1142.18 71.7421 1141.6 Q74.1958 1141.02 76.2328 1141.02 Q81.6031 1141.02 84.7976 1143.7 Q87.992 1146.39 87.992 1150.88 Q87.992 1153.01 87.1818 1154.93 Q86.3948 1156.83 84.2883 1159.42 Q83.7096 1160.09 80.6078 1163.31 Q77.5059 1166.5 71.8578 1172.27 Z" fill="#000000" fill-rule="evenodd" fill-opacity="1" /><path clip-path="url(#clip750)" d="M 0 0 M103.247 1144.72 Q99.6354 1144.72 97.8068 1148.29 Q96.0012 1151.83 96.0012 1158.96 Q96.0012 1166.06 97.8068 1169.63 Q99.6354 1173.17 103.247 1173.17 Q106.881 1173.17 108.686 1169.63 Q110.515 1166.06 110.515 1158.96 Q110.515 1151.83 108.686 1148.29 Q106.881 1144.72 103.247 1144.72 M103.247 1141.02 Q109.057 1141.02 112.112 1145.62 Q115.191 1150.21 115.191 1158.96 Q115.191 1167.68 112.112 1172.29 Q109.057 1176.87 103.247 1176.87 Q97.4364 1176.87 94.3577 1172.29 Q91.3022 1167.68 91.3022 1158.96 Q91.3022 1150.21 94.3577 1145.62 Q97.4364 1141.02 103.247 1141.02 Z" fill="#000000" fill-rule="evenodd" fill-opacity="1" /><path clip-path="url(#clip750)" d="M 0 0 M130.26 1144.72 Q126.649 1144.72 124.82 1148.29 Q123.015 1151.83 123.015 1158.96 Q123.015 1166.06 124.82 1169.63 Q126.649 1173.17 130.26 1173.17 Q133.895 1173.17 135.7 1169.63 Q137.529 1166.06 137.529 1158.96 Q137.529 1151.83 135.7 1148.29 Q133.895 1144.72 130.26 1144.72 M130.26 1141.02 Q136.07 1141.02 139.126 1145.62 Q142.205 1150.21 142.205 1158.96 Q142.205 1167.68 139.126 1172.29 Q136.07 1176.87 130.26 1176.87 Q124.45 1176.87 121.371 1172.29 Q118.316 1167.68 118.316 1158.96 Q118.316 1150.21 121.371 1145.62 Q124.45 1141.02 130.26 1141.02 Z" fill="#000000" fill-rule="evenodd" fill-opacity="1" /><path clip-path="url(#clip750)" d="M 0 0 M78.5939 856.768 L66.7884 875.217 L78.5939 875.217 L78.5939 856.768 M77.367 852.694 L83.2466 852.694 L83.2466 875.217 L88.1772 875.217 L88.1772 879.106 L83.2466 879.106 L83.2466 887.254 L78.5939 887.254 L78.5939 879.106 L62.9921 879.106 L62.9921 874.592 L77.367 852.694 Z" fill="#000000" fill-rule="evenodd" fill-opacity="1" /><path clip-path="url(#clip750)" d="M 0 0 M103.247 855.772 Q99.6354 855.772 97.8068 859.337 Q96.0012 862.879 96.0012 870.008 Q96.0012 877.115 97.8068 880.68 Q99.6354 884.221 103.247 884.221 Q106.881 884.221 108.686 880.68 Q110.515 877.115 110.515 870.008 Q110.515 862.879 108.686 859.337 Q106.881 855.772 103.247 855.772 M103.247 852.069 Q109.057 852.069 112.112 856.675 Q115.191 861.258 115.191 870.008 Q115.191 878.735 112.112 883.342 Q109.057 887.925 103.247 887.925 Q97.4364 887.925 94.3577 883.342 Q91.3022 878.735 91.3022 870.008 Q91.3022 861.258 94.3577 856.675 Q97.4364 852.069 103.247 852.069 Z" fill="#000000" fill-rule="evenodd" fill-opacity="1" /><path clip-path="url(#clip750)" d="M 0 0 M130.26 855.772 Q126.649 855.772 124.82 859.337 Q123.015 862.879 123.015 870.008 Q123.015 877.115 124.82 880.68 Q126.649 884.221 130.26 884.221 Q133.895 884.221 135.7 880.68 Q137.529 877.115 137.529 870.008 Q137.529 862.879 135.7 859.337 Q133.895 855.772 130.26 855.772 M130.26 852.069 Q136.07 852.069 139.126 856.675 Q142.205 861.258 142.205 870.008 Q142.205 878.735 139.126 883.342 Q136.07 887.925 130.26 887.925 Q124.45 887.925 121.371 883.342 Q118.316 878.735 118.316 870.008 Q118.316 861.258 121.371 856.675 Q124.45 852.069 130.26 852.069 Z" fill="#000000" fill-rule="evenodd" fill-opacity="1" /><path clip-path="url(#clip750)" d="M 0 0 M76.6495 579.161 Q73.5013 579.161 71.6495 581.313 Q69.8208 583.466 69.8208 587.216 Q69.8208 590.943 71.6495 593.119 Q73.5013 595.272 76.6495 595.272 Q79.7976 595.272 81.6263 593.119 Q83.4781 590.943 83.4781 587.216 Q83.4781 583.466 81.6263 581.313 Q79.7976 579.161 76.6495 579.161 M85.9318 564.508 L85.9318 568.767 Q84.1726 567.934 82.367 567.494 Q80.5846 567.054 78.8254 567.054 Q74.1958 567.054 71.7421 570.179 Q69.3115 573.304 68.9643 579.624 Q70.33 577.61 72.3902 576.545 Q74.4504 575.457 76.9272 575.457 Q82.1355 575.457 85.1448 578.628 Q88.1772 581.776 88.1772 587.216 Q88.1772 592.54 85.029 595.758 Q81.8809 598.975 76.6495 598.975 Q70.6541 598.975 67.4828 594.392 Q64.3116 589.786 64.3116 581.059 Q64.3116 572.864 68.2004 568.003 Q72.0893 563.119 78.6402 563.119 Q80.3994 563.119 82.1818 563.466 Q83.9874 563.813 85.9318 564.508 Z" fill="#000000" fill-rule="evenodd" fill-opacity="1" /><path clip-path="url(#clip750)" d="M 0 0 M103.247 566.823 Q99.6354 566.823 97.8068 570.387 Q96.0012 573.929 96.0012 581.059 Q96.0012 588.165 97.8068 591.73 Q99.6354 595.272 103.247 595.272 Q106.881 595.272 108.686 591.73 Q110.515 588.165 110.515 581.059 Q110.515 573.929 108.686 570.387 Q106.881 566.823 103.247 566.823 M103.247 563.119 Q109.057 563.119 112.112 567.725 Q115.191 572.309 115.191 581.059 Q115.191 589.786 112.112 594.392 Q109.057 598.975 103.247 598.975 Q97.4364 598.975 94.3577 594.392 Q91.3022 589.786 91.3022 581.059 Q91.3022 572.309 94.3577 567.725 Q97.4364 563.119 103.247 563.119 Z" fill="#000000" fill-rule="evenodd" fill-opacity="1" /><path clip-path="url(#clip750)" d="M 0 0 M130.26 566.823 Q126.649 566.823 124.82 570.387 Q123.015 573.929 123.015 581.059 Q123.015 588.165 124.82 591.73 Q126.649 595.272 130.26 595.272 Q133.895 595.272 135.7 591.73 Q137.529 588.165 137.529 581.059 Q137.529 573.929 135.7 570.387 Q133.895 566.823 130.26 566.823 M130.26 563.119 Q136.07 563.119 139.126 567.725 Q142.205 572.309 142.205 581.059 Q142.205 589.786 139.126 594.392 Q136.07 598.975 130.26 598.975 Q124.45 598.975 121.371 594.392 Q118.316 589.786 118.316 581.059 Q118.316 572.309 121.371 567.725 Q124.45 563.119 130.26 563.119 Z" fill="#000000" fill-rule="evenodd" fill-opacity="1" /><path clip-path="url(#clip750)" d="M 0 0 M76.3254 292.942 Q72.9921 292.942 71.0708 294.725 Q69.1726 296.507 69.1726 299.632 Q69.1726 302.757 71.0708 304.539 Q72.9921 306.322 76.3254 306.322 Q79.6587 306.322 81.58 304.539 Q83.5013 302.734 83.5013 299.632 Q83.5013 296.507 81.58 294.725 Q79.6819 292.942 76.3254 292.942 M71.6495 290.952 Q68.6402 290.211 66.9504 288.151 Q65.2838 286.091 65.2838 283.128 Q65.2838 278.984 68.2236 276.577 Q71.1865 274.169 76.3254 274.169 Q81.4874 274.169 84.4272 276.577 Q87.367 278.984 87.367 283.128 Q87.367 286.091 85.6772 288.151 Q84.0105 290.211 81.0244 290.952 Q84.404 291.739 86.279 294.03 Q88.1772 296.322 88.1772 299.632 Q88.1772 304.655 85.0985 307.34 Q82.0429 310.026 76.3254 310.026 Q70.6078 310.026 67.5291 307.34 Q64.4736 304.655 64.4736 299.632 Q64.4736 296.322 66.3717 294.03 Q68.2699 291.739 71.6495 290.952 M69.9365 283.567 Q69.9365 286.253 71.6032 287.757 Q73.293 289.262 76.3254 289.262 Q79.3346 289.262 81.0244 287.757 Q82.7374 286.253 82.7374 283.567 Q82.7374 280.882 81.0244 279.378 Q79.3346 277.873 76.3254 277.873 Q73.293 277.873 71.6032 279.378 Q69.9365 280.882 69.9365 283.567 Z" fill="#000000" fill-rule="evenodd" fill-opacity="1" /><path clip-path="url(#clip750)" d="M 0 0 M103.247 277.873 Q99.6354 277.873 97.8068 281.438 Q96.0012 284.979 96.0012 292.109 Q96.0012 299.215 97.8068 302.78 Q99.6354 306.322 103.247 306.322 Q106.881 306.322 108.686 302.78 Q110.515 299.215 110.515 292.109 Q110.515 284.979 108.686 281.438 Q106.881 277.873 103.247 277.873 M103.247 274.169 Q109.057 274.169 112.112 278.776 Q115.191 283.359 115.191 292.109 Q115.191 300.836 112.112 305.442 Q109.057 310.026 103.247 310.026 Q97.4364 310.026 94.3577 305.442 Q91.3022 300.836 91.3022 292.109 Q91.3022 283.359 94.3577 278.776 Q97.4364 274.169 103.247 274.169 Z" fill="#000000" fill-rule="evenodd" fill-opacity="1" /><path clip-path="url(#clip750)" d="M 0 0 M130.26 277.873 Q126.649 277.873 124.82 281.438 Q123.015 284.979 123.015 292.109 Q123.015 299.215 124.82 302.78 Q126.649 306.322 130.26 306.322 Q133.895 306.322 135.7 302.78 Q137.529 299.215 137.529 292.109 Q137.529 284.979 135.7 281.438 Q133.895 277.873 130.26 277.873 M130.26 274.169 Q136.07 274.169 139.126 278.776 Q142.205 283.359 142.205 292.109 Q142.205 300.836 139.126 305.442 Q136.07 310.026 130.26 310.026 Q124.45 310.026 121.371 305.442 Q118.316 300.836 118.316 292.109 Q118.316 283.359 121.371 278.776 Q124.45 274.169 130.26 274.169 Z" fill="#000000" fill-rule="evenodd" fill-opacity="1" /><path clip-path="url(#clip750)" d="M 0 0 M1183.67 18.8205 L1183.67 65.8515 L1193.55 65.8515 Q1206.07 65.8515 1211.86 60.1802 Q1217.7 54.509 1217.7 42.2752 Q1217.7 30.1225 1211.86 24.4918 Q1206.07 18.8205 1193.55 18.8205 L1183.67 18.8205 M1175.48 12.096 L1192.3 12.096 Q1209.88 12.096 1218.1 19.4281 Q1226.32 26.7198 1226.32 42.2752 Q1226.32 57.9117 1218.06 65.2439 Q1209.8 72.576 1192.3 72.576 L1175.48 72.576 L1175.48 12.096 Z" fill="#000000" fill-rule="evenodd" fill-opacity="1" /><path clip-path="url(#clip750)" d="M 0 0 M1254.76 49.7694 Q1245.73 49.7694 1242.24 51.8354 Q1238.76 53.9013 1238.76 58.8839 Q1238.76 62.8538 1241.35 65.2034 Q1243.99 67.5124 1248.48 67.5124 Q1254.68 67.5124 1258.41 63.1374 Q1262.17 58.7219 1262.17 51.4303 L1262.17 49.7694 L1254.76 49.7694 M1269.63 46.6907 L1269.63 72.576 L1262.17 72.576 L1262.17 65.6895 Q1259.62 69.8214 1255.81 71.8063 Q1252.01 73.7508 1246.5 73.7508 Q1239.53 73.7508 1235.4 69.8619 Q1231.31 65.9325 1231.31 59.3701 Q1231.31 51.7138 1236.41 47.825 Q1241.56 43.9361 1251.72 43.9361 L1262.17 43.9361 L1262.17 43.2069 Q1262.17 38.0623 1258.77 35.2672 Q1255.41 32.4315 1249.29 32.4315 Q1245.4 32.4315 1241.72 33.3632 Q1238.03 34.295 1234.63 36.1584 L1234.63 29.2718 Q1238.72 27.692 1242.57 26.9223 Q1246.42 26.1121 1250.06 26.1121 Q1259.91 26.1121 1264.77 31.2163 Q1269.63 36.3204 1269.63 46.6907 Z" fill="#000000" fill-rule="evenodd" fill-opacity="1" /><path clip-path="url(#clip750)" d="M 0 0 M1284.82 14.324 L1284.82 27.2059 L1300.17 27.2059 L1300.17 32.9987 L1284.82 32.9987 L1284.82 57.6282 Q1284.82 63.1779 1286.32 64.7578 Q1287.86 66.3376 1292.52 66.3376 L1300.17 66.3376 L1300.17 72.576 L1292.52 72.576 Q1283.89 72.576 1280.61 69.3758 Q1277.32 66.1351 1277.32 57.6282 L1277.32 32.9987 L1271.86 32.9987 L1271.86 27.2059 L1277.32 27.2059 L1277.32 14.324 L1284.82 14.324 Z" fill="#000000" fill-rule="evenodd" fill-opacity="1" /><path clip-path="url(#clip750)" d="M 0 0 M1328.61 49.7694 Q1319.58 49.7694 1316.09 51.8354 Q1312.61 53.9013 1312.61 58.8839 Q1312.61 62.8538 1315.2 65.2034 Q1317.83 67.5124 1322.33 67.5124 Q1328.53 67.5124 1332.25 63.1374 Q1336.02 58.7219 1336.02 51.4303 L1336.02 49.7694 L1328.61 49.7694 M1343.48 46.6907 L1343.48 72.576 L1336.02 72.576 L1336.02 65.6895 Q1333.47 69.8214 1329.66 71.8063 Q1325.85 73.7508 1320.35 73.7508 Q1313.38 73.7508 1309.25 69.8619 Q1305.15 65.9325 1305.15 59.3701 Q1305.15 51.7138 1310.26 47.825 Q1315.4 43.9361 1325.57 43.9361 L1336.02 43.9361 L1336.02 43.2069 Q1336.02 38.0623 1332.62 35.2672 Q1329.26 32.4315 1323.14 32.4315 Q1319.25 32.4315 1315.57 33.3632 Q1311.88 34.295 1308.48 36.1584 L1308.48 29.2718 Q1312.57 27.692 1316.42 26.9223 Q1320.26 26.1121 1323.91 26.1121 Q1333.75 26.1121 1338.61 31.2163 Q1343.48 36.3204 1343.48 46.6907 Z" fill="#000000" fill-rule="evenodd" fill-opacity="1" /><polyline clip-path="url(#clip752)" style="stroke:#009af9; stroke-width:4; stroke-opacity:1; fill:none" points="
  228.088,1447.87 228.088,1332.29 262.468,1332.29 262.468,1288.95 296.848,1288.95 296.848,1303.4 331.227,1303.4 331.227,1274.5 365.607,1274.5 365.607,1130.03 
  399.987,1130.03 399.987,1000 434.367,1000 434.367,1072.24 468.746,1072.24 468.746,1028.9 503.126,1028.9 503.126,884.421 537.506,884.421 537.506,783.289 
  571.886,783.289 571.886,898.869 606.265,898.869 606.265,797.736 640.645,797.736 640.645,1028.9 675.025,1028.9 675.025,927.764 709.405,927.764 709.405,1173.37 
  743.784,1173.37 743.784,971.106 778.164,971.106 778.164,1158.92 812.544,1158.92 812.544,1303.4 846.923,1303.4 846.923,1361.19 881.303,1361.19 881.303,1346.74 
  915.683,1346.74 915.683,1433.43 950.063,1433.43 950.063,1375.64 984.442,1375.64 984.442,1447.87 1018.82,1447.87 1018.82,1418.98 1053.2,1418.98 1053.2,1447.87 
  1087.58,1447.87 1087.58,1433.43 1121.96,1433.43 1121.96,1447.87 1156.34,1447.87 1156.34,1433.43 1190.72,1433.43 1190.72,1346.74 1225.1,1346.74 1225.1,1260.06 
  1259.48,1260.06 1259.48,1202.27 1293.86,1202.27 1293.86,1187.82 1328.24,1187.82 1328.24,1086.69 1362.62,1086.69 1362.62,1057.79 1397,1057.79 1397,869.974 
  1431.38,869.974 1431.38,653.261 1465.76,653.261 1465.76,436.549 1500.14,436.549 1500.14,248.732 1534.52,248.732 1534.52,537.682 1568.9,537.682 1568.9,292.074 
  1603.28,292.074 1603.28,349.864 1637.66,349.864 1637.66,162.047 1672.04,162.047 1672.04,508.787 1706.42,508.787 1706.42,494.339 1740.8,494.339 1740.8,942.211 
  1775.18,942.211 1775.18,696.604 1809.56,696.604 1809.56,826.631 1843.94,826.631 1843.94,1043.34 1878.32,1043.34 1878.32,1231.16 1912.7,1231.16 
  1947.08,1231.16 1947.08,1390.08 1981.45,1390.08 2015.83,1390.08 2015.83,1404.53 2050.21,1404.53 2050.21,1447.87 2084.59,1447.87 2084.59,1433.43 
  2118.97,1433.43 2118.97,1447.87 2153.35,1447.87 2153.35,1433.43 2187.73,1433.43 2187.73,1447.87 2222.11,1447.87 2222.11,1433.43 2256.49,1433.43 
  2290.87,1433.43 2290.87,1447.87 
  "/>
<path clip-path="url(#clip750)" d="
M1944.76 327.952 L2280.76 327.952 L2280.76 206.992 L1944.76 206.992  Z
  " fill="#ffffff" fill-rule="evenodd" fill-opacity="1"/>
<polyline clip-path="url(#clip750)" style="stroke:#000000; stroke-width:4; stroke-opacity:1; fill:none" points="
  1944.76,327.952 2280.76,327.952 2280.76,206.992 1944.76,206.992 1944.76,327.952 
  "/>
<polyline clip-path="url(#clip750)" style="stroke:#009af9; stroke-width:4; stroke-opacity:1; fill:none" points="
  1968.76,267.472 2112.76,267.472 
  "/>
<path clip-path="url(#clip750)" d="M 0 0 M2141.44 254.035 L2141.44 280.91 L2147.09 280.91 Q2154.24 280.91 2157.55 277.669 Q2160.88 274.428 2160.88 267.437 Q2160.88 260.493 2157.55 257.275 Q2154.24 254.035 2147.09 254.035 L2141.44 254.035 M2136.76 250.192 L2146.37 250.192 Q2156.41 250.192 2161.11 254.382 Q2165.81 258.549 2165.81 267.437 Q2165.81 276.373 2161.09 280.562 Q2156.37 284.752 2146.37 284.752 L2136.76 284.752 L2136.76 250.192 Z" fill="#000000" fill-rule="evenodd" fill-opacity="1" /><path clip-path="url(#clip750)" d="M 0 0 M2182.06 271.72 Q2176.9 271.72 2174.91 272.9 Q2172.92 274.081 2172.92 276.928 Q2172.92 279.197 2174.4 280.539 Q2175.9 281.859 2178.47 281.859 Q2182.02 281.859 2184.15 279.359 Q2186.3 276.836 2186.3 272.669 L2186.3 271.72 L2182.06 271.72 M2190.56 269.961 L2190.56 284.752 L2186.3 284.752 L2186.3 280.817 Q2184.84 283.178 2182.66 284.312 Q2180.49 285.423 2177.34 285.423 Q2173.36 285.423 2171 283.201 Q2168.66 280.956 2168.66 277.206 Q2168.66 272.831 2171.58 270.609 Q2174.52 268.386 2180.33 268.386 L2186.3 268.386 L2186.3 267.97 Q2186.3 265.03 2184.35 263.433 Q2182.43 261.812 2178.94 261.812 Q2176.71 261.812 2174.61 262.345 Q2172.5 262.877 2170.56 263.942 L2170.56 260.007 Q2172.9 259.104 2175.09 258.664 Q2177.29 258.201 2179.38 258.201 Q2185 258.201 2187.78 261.118 Q2190.56 264.035 2190.56 269.961 Z" fill="#000000" fill-rule="evenodd" fill-opacity="1" /><path clip-path="url(#clip750)" d="M 0 0 M2199.24 251.465 L2199.24 258.826 L2208.01 258.826 L2208.01 262.137 L2199.24 262.137 L2199.24 276.211 Q2199.24 279.382 2200.09 280.285 Q2200.97 281.187 2203.64 281.187 L2208.01 281.187 L2208.01 284.752 L2203.64 284.752 Q2198.71 284.752 2196.83 282.923 Q2194.96 281.072 2194.96 276.211 L2194.96 262.137 L2191.83 262.137 L2191.83 258.826 L2194.96 258.826 L2194.96 251.465 L2199.24 251.465 Z" fill="#000000" fill-rule="evenodd" fill-opacity="1" /><path clip-path="url(#clip750)" d="M 0 0 M2224.26 271.72 Q2219.1 271.72 2217.11 272.9 Q2215.12 274.081 2215.12 276.928 Q2215.12 279.197 2216.6 280.539 Q2218.1 281.859 2220.67 281.859 Q2224.21 281.859 2226.34 279.359 Q2228.5 276.836 2228.5 272.669 L2228.5 271.72 L2224.26 271.72 M2232.76 269.961 L2232.76 284.752 L2228.5 284.752 L2228.5 280.817 Q2227.04 283.178 2224.86 284.312 Q2222.69 285.423 2219.54 285.423 Q2215.56 285.423 2213.2 283.201 Q2210.86 280.956 2210.86 277.206 Q2210.86 272.831 2213.77 270.609 Q2216.71 268.386 2222.52 268.386 L2228.5 268.386 L2228.5 267.97 Q2228.5 265.03 2226.55 263.433 Q2224.63 261.812 2221.14 261.812 Q2218.91 261.812 2216.81 262.345 Q2214.7 262.877 2212.76 263.942 L2212.76 260.007 Q2215.09 259.104 2217.29 258.664 Q2219.49 258.201 2221.58 258.201 Q2227.2 258.201 2229.98 261.118 Q2232.76 264.035 2232.76 269.961 Z" fill="#000000" fill-rule="evenodd" fill-opacity="1" /></svg>
