<?xml version="1.0" encoding="utf-8"?>
<svg xmlns="http://www.w3.org/2000/svg" xmlns:xlink="http://www.w3.org/1999/xlink" width="600" height="400" viewBox="0 0 2400 1600">
<defs>
  <clipPath id="clip510">
    <rect x="0" y="0" width="2400" height="1600"/>
  </clipPath>
</defs>
<path clip-path="url(#clip510)" d="
M0 1600 L2400 1600 L2400 0 L0 0  Z
  " fill="#ffffff" fill-rule="evenodd" fill-opacity="1"/>
<defs>
  <clipPath id="clip511">
    <rect x="480" y="0" width="1681" height="1600"/>
  </clipPath>
</defs>
<path clip-path="url(#clip510)" d="
M166.205 1486.45 L2352.76 1486.45 L2352.76 123.472 L166.205 123.472  Z
  " fill="#ffffff" fill-rule="evenodd" fill-opacity="1"/>
<defs>
  <clipPath id="clip512">
    <rect x="166" y="123" width="2188" height="1364"/>
  </clipPath>
</defs>
<polyline clip-path="url(#clip512)" style="stroke:#000000; stroke-width:2; stroke-opacity:0.1; fill:none" points="
  228.088,1486.45 228.088,123.472 
  "/>
<polyline clip-path="url(#clip512)" style="stroke:#000000; stroke-width:2; stroke-opacity:0.1; fill:none" points="
  743.784,1486.45 743.784,123.472 
  "/>
<polyline clip-path="url(#clip512)" style="stroke:#000000; stroke-width:2; stroke-opacity:0.1; fill:none" points="
  1259.48,1486.45 1259.48,123.472 
  "/>
<polyline clip-path="url(#clip512)" style="stroke:#000000; stroke-width:2; stroke-opacity:0.1; fill:none" points="
  1775.18,1486.45 1775.18,123.472 
  "/>
<polyline clip-path="url(#clip512)" style="stroke:#000000; stroke-width:2; stroke-opacity:0.1; fill:none" points="
  2290.87,1486.45 2290.87,123.472 
  "/>
<polyline clip-path="url(#clip512)" style="stroke:#000000; stroke-width:2; stroke-opacity:0.1; fill:none" points="
  166.205,1447.87 2352.76,1447.87 
  "/>
<polyline clip-path="url(#clip512)" style="stroke:#000000; stroke-width:2; stroke-opacity:0.1; fill:none" points="
  166.205,1134.26 2352.76,1134.26 
  "/>
<polyline clip-path="url(#clip512)" style="stroke:#000000; stroke-width:2; stroke-opacity:0.1; fill:none" points="
  166.205,820.641 2352.76,820.641 
  "/>
<polyline clip-path="url(#clip512)" style="stroke:#000000; stroke-width:2; stroke-opacity:0.1; fill:none" points="
  166.205,507.025 2352.76,507.025 
  "/>
<polyline clip-path="url(#clip512)" style="stroke:#000000; stroke-width:2; stroke-opacity:0.1; fill:none" points="
  166.205,193.409 2352.76,193.409 
  "/>
<polyline clip-path="url(#clip510)" style="stroke:#000000; stroke-width:4; stroke-opacity:1; fill:none" points="
  166.205,1486.45 2352.76,1486.45 
  "/>
<polyline clip-path="url(#clip510)" style="stroke:#000000; stroke-width:4; stroke-opacity:1; fill:none" points="
  166.205,1486.45 166.205,123.472 
  "/>
<polyline clip-path="url(#clip510)" style="stroke:#000000; stroke-width:4; stroke-opacity:1; fill:none" points="
  228.088,1486.45 228.088,1470.09 
  "/>
<polyline clip-path="url(#clip510)" style="stroke:#000000; stroke-width:4; stroke-opacity:1; fill:none" points="
  743.784,1486.45 743.784,1470.09 
  "/>
<polyline clip-path="url(#clip510)" style="stroke:#000000; stroke-width:4; stroke-opacity:1; fill:none" points="
  1259.48,1486.45 1259.48,1470.09 
  "/>
<polyline clip-path="url(#clip510)" style="stroke:#000000; stroke-width:4; stroke-opacity:1; fill:none" points="
  1775.18,1486.45 1775.18,1470.09 
  "/>
<polyline clip-path="url(#clip510)" style="stroke:#000000; stroke-width:4; stroke-opacity:1; fill:none" points="
  2290.87,1486.45 2290.87,1470.09 
  "/>
<polyline clip-path="url(#clip510)" style="stroke:#000000; stroke-width:4; stroke-opacity:1; fill:none" points="
  166.205,1447.87 192.443,1447.87 
  "/>
<polyline clip-path="url(#clip510)" style="stroke:#000000; stroke-width:4; stroke-opacity:1; fill:none" points="
  166.205,1134.26 192.443,1134.26 
  "/>
<polyline clip-path="url(#clip510)" style="stroke:#000000; stroke-width:4; stroke-opacity:1; fill:none" points="
  166.205,820.641 192.443,820.641 
  "/>
<polyline clip-path="url(#clip510)" style="stroke:#000000; stroke-width:4; stroke-opacity:1; fill:none" points="
  166.205,507.025 192.443,507.025 
  "/>
<polyline clip-path="url(#clip510)" style="stroke:#000000; stroke-width:4; stroke-opacity:1; fill:none" points="
  166.205,193.409 192.443,193.409 
  "/>
<path clip-path="url(#clip510)" d="M 0 0 M208.1 1525.04 L220.577 1525.04 L220.577 1528.83 L208.1 1528.83 L208.1 1525.04 Z" fill="#000000" fill-rule="evenodd" fill-opacity="1" /><path clip-path="url(#clip510)" d="M 0 0 M238.493 1509.43 L226.688 1527.88 L238.493 1527.88 L238.493 1509.43 M237.266 1505.36 L243.146 1505.36 L243.146 1527.88 L248.077 1527.88 L248.077 1531.77 L243.146 1531.77 L243.146 1539.92 L238.493 1539.92 L238.493 1531.77 L222.891 1531.77 L222.891 1527.26 L237.266 1505.36 Z" fill="#000000" fill-rule="evenodd" fill-opacity="1" /><path clip-path="url(#clip510)" d="M 0 0 M724.838 1525.04 L737.314 1525.04 L737.314 1528.83 L724.838 1528.83 L724.838 1525.04 Z" fill="#000000" fill-rule="evenodd" fill-opacity="1" /><path clip-path="url(#clip510)" d="M 0 0 M746.412 1535.98 L762.731 1535.98 L762.731 1539.92 L740.787 1539.92 L740.787 1535.98 Q743.449 1533.23 748.032 1528.6 Q752.638 1523.95 753.819 1522.61 Q756.064 1520.08 756.944 1518.35 Q757.847 1516.59 757.847 1514.9 Q757.847 1512.14 755.902 1510.41 Q753.981 1508.67 750.879 1508.67 Q748.68 1508.67 746.226 1509.43 Q743.796 1510.2 741.018 1511.75 L741.018 1507.03 Q743.842 1505.89 746.296 1505.31 Q748.749 1504.73 750.787 1504.73 Q756.157 1504.73 759.351 1507.42 Q762.546 1510.11 762.546 1514.6 Q762.546 1516.73 761.736 1518.65 Q760.948 1520.54 758.842 1523.14 Q758.263 1523.81 755.161 1527.03 Q752.06 1530.22 746.412 1535.98 Z" fill="#000000" fill-rule="evenodd" fill-opacity="1" /><path clip-path="url(#clip510)" d="M 0 0 M1259.48 1508.44 Q1255.87 1508.44 1254.04 1512 Q1252.23 1515.55 1252.23 1522.67 Q1252.23 1529.78 1254.04 1533.35 Q1255.87 1536.89 1259.48 1536.89 Q1263.11 1536.89 1264.92 1533.35 Q1266.75 1529.78 1266.75 1522.67 Q1266.75 1515.55 1264.92 1512 Q1263.11 1508.44 1259.48 1508.44 M1259.48 1504.73 Q1265.29 1504.73 1268.35 1509.34 Q1271.42 1513.92 1271.42 1522.67 Q1271.42 1531.4 1268.35 1536.01 Q1265.29 1540.59 1259.48 1540.59 Q1253.67 1540.59 1250.59 1536.01 Q1247.54 1531.4 1247.54 1522.67 Q1247.54 1513.92 1250.59 1509.34 Q1253.67 1504.73 1259.48 1504.73 Z" fill="#000000" fill-rule="evenodd" fill-opacity="1" /><path clip-path="url(#clip510)" d="M 0 0 M1769.83 1535.98 L1786.15 1535.98 L1786.15 1539.92 L1764.2 1539.92 L1764.2 1535.98 Q1766.87 1533.23 1771.45 1528.6 Q1776.06 1523.95 1777.24 1522.61 Q1779.48 1520.08 1780.36 1518.35 Q1781.26 1516.59 1781.26 1514.9 Q1781.26 1512.14 1779.32 1510.41 Q1777.4 1508.67 1774.3 1508.67 Q1772.1 1508.67 1769.64 1509.43 Q1767.21 1510.2 1764.44 1511.75 L1764.44 1507.03 Q1767.26 1505.89 1769.71 1505.31 Q1772.17 1504.73 1774.2 1504.73 Q1779.57 1504.73 1782.77 1507.42 Q1785.96 1510.11 1785.96 1514.6 Q1785.96 1516.73 1785.15 1518.65 Q1784.37 1520.54 1782.26 1523.14 Q1781.68 1523.81 1778.58 1527.03 Q1775.48 1530.22 1769.83 1535.98 Z" fill="#000000" fill-rule="evenodd" fill-opacity="1" /><path clip-path="url(#clip510)" d="M 0 0 M2293.88 1509.43 L2282.08 1527.88 L2293.88 1527.88 L2293.88 1509.43 M2292.65 1505.36 L2298.53 1505.36 L2298.53 1527.88 L2303.46 1527.88 L2303.46 1531.77 L2298.53 1531.77 L2298.53 1539.92 L2293.88 1539.92 L2293.88 1531.77 L2278.28 1531.77 L2278.28 1527.26 L2292.65 1505.36 Z" fill="#000000" fill-rule="evenodd" fill-opacity="1" /><path clip-path="url(#clip510)" d="M 0 0 M130.26 1433.67 Q126.649 1433.67 124.82 1437.24 Q123.015 1440.78 123.015 1447.91 Q123.015 1455.01 124.82 1458.58 Q126.649 1462.12 130.26 1462.12 Q133.895 1462.12 135.7 1458.58 Q137.529 1455.01 137.529 1447.91 Q137.529 1440.78 135.7 1437.24 Q133.895 1433.67 130.26 1433.67 M130.26 1429.97 Q136.07 1429.97 139.126 1434.57 Q142.205 1439.16 142.205 1447.91 Q142.205 1456.63 139.126 1461.24 Q136.07 1465.82 130.26 1465.82 Q124.45 1465.82 121.371 1461.24 Q118.316 1456.63 118.316 1447.91 Q118.316 1439.16 121.371 1434.57 Q124.45 1429.97 130.26 1429.97 Z" fill="#000000" fill-rule="evenodd" fill-opacity="1" /><path clip-path="url(#clip510)" d="M 0 0 M71.8578 1147.6 L88.1772 1147.6 L88.1772 1151.54 L66.2328 1151.54 L66.2328 1147.6 Q68.8949 1144.85 73.4782 1140.22 Q78.0846 1135.56 79.2652 1134.22 Q81.5105 1131.7 82.3902 1129.96 Q83.2929 1128.2 83.2929 1126.51 Q83.2929 1123.76 81.3485 1122.02 Q79.4272 1120.29 76.3254 1120.29 Q74.1263 1120.29 71.6726 1121.05 Q69.2421 1121.81 66.4643 1123.37 L66.4643 1118.64 Q69.2884 1117.51 71.7421 1116.93 Q74.1958 1116.35 76.2328 1116.35 Q81.6031 1116.35 84.7976 1119.04 Q87.992 1121.72 87.992 1126.21 Q87.992 1128.34 87.1818 1130.26 Q86.3948 1132.16 84.2883 1134.75 Q83.7096 1135.43 80.6078 1138.64 Q77.5059 1141.84 71.8578 1147.6 Z" fill="#000000" fill-rule="evenodd" fill-opacity="1" /><path clip-path="url(#clip510)" d="M 0 0 M103.247 1120.06 Q99.6354 1120.06 97.8068 1123.62 Q96.0012 1127.16 96.0012 1134.29 Q96.0012 1141.4 97.8068 1144.96 Q99.6354 1148.5 103.247 1148.5 Q106.881 1148.5 108.686 1144.96 Q110.515 1141.4 110.515 1134.29 Q110.515 1127.16 108.686 1123.62 Q106.881 1120.06 103.247 1120.06 M103.247 1116.35 Q109.057 1116.35 112.112 1120.96 Q115.191 1125.54 115.191 1134.29 Q115.191 1143.02 112.112 1147.62 Q109.057 1152.21 103.247 1152.21 Q97.4364 1152.21 94.3577 1147.62 Q91.3022 1143.02 91.3022 1134.29 Q91.3022 1125.54 94.3577 1120.96 Q97.4364 1116.35 103.247 1116.35 Z" fill="#000000" fill-rule="evenodd" fill-opacity="1" /><path clip-path="url(#clip510)" d="M 0 0 M130.26 1120.06 Q126.649 1120.06 124.82 1123.62 Q123.015 1127.16 123.015 1134.29 Q123.015 1141.4 124.82 1144.96 Q126.649 1148.5 130.26 1148.5 Q133.895 1148.5 135.7 1144.96 Q137.529 1141.4 137.529 1134.29 Q137.529 1127.16 135.7 1123.62 Q133.895 1120.06 130.26 1120.06 M130.26 1116.35 Q136.07 1116.35 139.126 1120.96 Q142.205 1125.54 142.205 1134.29 Q142.205 1143.02 139.126 1147.62 Q136.07 1152.21 130.26 1152.21 Q124.45 1152.21 121.371 1147.62 Q118.316 1143.02 118.316 1134.29 Q118.316 1125.54 121.371 1120.96 Q124.45 1116.35 130.26 1116.35 Z" fill="#000000" fill-rule="evenodd" fill-opacity="1" /><path clip-path="url(#clip510)" d="M 0 0 M78.5939 807.435 L66.7884 825.884 L78.5939 825.884 L78.5939 807.435 M77.367 803.361 L83.2466 803.361 L83.2466 825.884 L88.1772 825.884 L88.1772 829.773 L83.2466 829.773 L83.2466 837.921 L78.5939 837.921 L78.5939 829.773 L62.9921 829.773 L62.9921 825.259 L77.367 803.361 Z" fill="#000000" fill-rule="evenodd" fill-opacity="1" /><path clip-path="url(#clip510)" d="M 0 0 M103.247 806.439 Q99.6354 806.439 97.8068 810.004 Q96.0012 813.546 96.0012 820.676 Q96.0012 827.782 97.8068 831.347 Q99.6354 834.888 103.247 834.888 Q106.881 834.888 108.686 831.347 Q110.515 827.782 110.515 820.676 Q110.515 813.546 108.686 810.004 Q106.881 806.439 103.247 806.439 M103.247 802.736 Q109.057 802.736 112.112 807.342 Q115.191 811.926 115.191 820.676 Q115.191 829.402 112.112 834.009 Q109.057 838.592 103.247 838.592 Q97.4364 838.592 94.3577 834.009 Q91.3022 829.402 91.3022 820.676 Q91.3022 811.926 94.3577 807.342 Q97.4364 802.736 103.247 802.736 Z" fill="#000000" fill-rule="evenodd" fill-opacity="1" /><path clip-path="url(#clip510)" d="M 0 0 M130.26 806.439 Q126.649 806.439 124.82 810.004 Q123.015 813.546 123.015 820.676 Q123.015 827.782 124.82 831.347 Q126.649 834.888 130.26 834.888 Q133.895 834.888 135.7 831.347 Q137.529 827.782 137.529 820.676 Q137.529 813.546 135.7 810.004 Q133.895 806.439 130.26 806.439 M130.26 802.736 Q136.07 802.736 139.126 807.342 Q142.205 811.926 142.205 820.676 Q142.205 829.402 139.126 834.009 Q136.07 838.592 130.26 838.592 Q124.45 838.592 121.371 834.009 Q118.316 829.402 118.316 820.676 Q118.316 811.926 121.371 807.342 Q124.45 802.736 130.26 802.736 Z" fill="#000000" fill-rule="evenodd" fill-opacity="1" /><path clip-path="url(#clip510)" d="M 0 0 M76.6495 505.161 Q73.5013 505.161 71.6495 507.314 Q69.8208 509.467 69.8208 513.217 Q69.8208 516.944 71.6495 519.12 Q73.5013 521.272 76.6495 521.272 Q79.7976 521.272 81.6263 519.12 Q83.4781 516.944 83.4781 513.217 Q83.4781 509.467 81.6263 507.314 Q79.7976 505.161 76.6495 505.161 M85.9318 490.509 L85.9318 494.768 Q84.1726 493.934 82.367 493.495 Q80.5846 493.055 78.8254 493.055 Q74.1958 493.055 71.7421 496.18 Q69.3115 499.305 68.9643 505.624 Q70.33 503.61 72.3902 502.546 Q74.4504 501.458 76.9272 501.458 Q82.1355 501.458 85.1448 504.629 Q88.1772 507.777 88.1772 513.217 Q88.1772 518.541 85.029 521.758 Q81.8809 524.976 76.6495 524.976 Q70.6541 524.976 67.4828 520.393 Q64.3116 515.786 64.3116 507.059 Q64.3116 498.865 68.2004 494.004 Q72.0893 489.12 78.6402 489.12 Q80.3994 489.12 82.1818 489.467 Q83.9874 489.814 85.9318 490.509 Z" fill="#000000" fill-rule="evenodd" fill-opacity="1" /><path clip-path="url(#clip510)" d="M 0 0 M103.247 492.823 Q99.6354 492.823 97.8068 496.388 Q96.0012 499.93 96.0012 507.059 Q96.0012 514.166 97.8068 517.731 Q99.6354 521.272 103.247 521.272 Q106.881 521.272 108.686 517.731 Q110.515 514.166 110.515 507.059 Q110.515 499.93 108.686 496.388 Q106.881 492.823 103.247 492.823 M103.247 489.12 Q109.057 489.12 112.112 493.726 Q115.191 498.309 115.191 507.059 Q115.191 515.786 112.112 520.393 Q109.057 524.976 103.247 524.976 Q97.4364 524.976 94.3577 520.393 Q91.3022 515.786 91.3022 507.059 Q91.3022 498.309 94.3577 493.726 Q97.4364 489.12 103.247 489.12 Z" fill="#000000" fill-rule="evenodd" fill-opacity="1" /><path clip-path="url(#clip510)" d="M 0 0 M130.26 492.823 Q126.649 492.823 124.82 496.388 Q123.015 499.93 123.015 507.059 Q123.015 514.166 124.82 517.731 Q126.649 521.272 130.26 521.272 Q133.895 521.272 135.7 517.731 Q137.529 514.166 137.529 507.059 Q137.529 499.93 135.7 496.388 Q133.895 492.823 130.26 492.823 M130.26 489.12 Q136.07 489.12 139.126 493.726 Q142.205 498.309 142.205 507.059 Q142.205 515.786 139.126 520.393 Q136.07 524.976 130.26 524.976 Q124.45 524.976 121.371 520.393 Q118.316 515.786 118.316 507.059 Q118.316 498.309 121.371 493.726 Q124.45 489.12 130.26 489.12 Z" fill="#000000" fill-rule="evenodd" fill-opacity="1" /><path clip-path="url(#clip510)" d="M 0 0 M76.3254 194.277 Q72.9921 194.277 71.0708 196.059 Q69.1726 197.841 69.1726 200.966 Q69.1726 204.091 71.0708 205.874 Q72.9921 207.656 76.3254 207.656 Q79.6587 207.656 81.58 205.874 Q83.5013 204.068 83.5013 200.966 Q83.5013 197.841 81.58 196.059 Q79.6819 194.277 76.3254 194.277 M71.6495 192.286 Q68.6402 191.545 66.9504 189.485 Q65.2838 187.425 65.2838 184.462 Q65.2838 180.318 68.2236 177.911 Q71.1865 175.504 76.3254 175.504 Q81.4874 175.504 84.4272 177.911 Q87.367 180.318 87.367 184.462 Q87.367 187.425 85.6772 189.485 Q84.0105 191.545 81.0244 192.286 Q84.404 193.073 86.279 195.365 Q88.1772 197.656 88.1772 200.966 Q88.1772 205.989 85.0985 208.675 Q82.0429 211.36 76.3254 211.36 Q70.6078 211.36 67.5291 208.675 Q64.4736 205.989 64.4736 200.966 Q64.4736 197.656 66.3717 195.365 Q68.2699 193.073 71.6495 192.286 M69.9365 184.902 Q69.9365 187.587 71.6032 189.091 Q73.293 190.596 76.3254 190.596 Q79.3346 190.596 81.0244 189.091 Q82.7374 187.587 82.7374 184.902 Q82.7374 182.216 81.0244 180.712 Q79.3346 179.207 76.3254 179.207 Q73.293 179.207 71.6032 180.712 Q69.9365 182.216 69.9365 184.902 Z" fill="#000000" fill-rule="evenodd" fill-opacity="1" /><path clip-path="url(#clip510)" d="M 0 0 M103.247 179.207 Q99.6354 179.207 97.8068 182.772 Q96.0012 186.314 96.0012 193.443 Q96.0012 200.55 97.8068 204.114 Q99.6354 207.656 103.247 207.656 Q106.881 207.656 108.686 204.114 Q110.515 200.55 110.515 193.443 Q110.515 186.314 108.686 182.772 Q106.881 179.207 103.247 179.207 M103.247 175.504 Q109.057 175.504 112.112 180.11 Q115.191 184.693 115.191 193.443 Q115.191 202.17 112.112 206.777 Q109.057 211.36 103.247 211.36 Q97.4364 211.36 94.3577 206.777 Q91.3022 202.17 91.3022 193.443 Q91.3022 184.693 94.3577 180.11 Q97.4364 175.504 103.247 175.504 Z" fill="#000000" fill-rule="evenodd" fill-opacity="1" /><path clip-path="url(#clip510)" d="M 0 0 M130.26 179.207 Q126.649 179.207 124.82 182.772 Q123.015 186.314 123.015 193.443 Q123.015 200.55 124.82 204.114 Q126.649 207.656 130.26 207.656 Q133.895 207.656 135.7 204.114 Q137.529 200.55 137.529 193.443 Q137.529 186.314 135.7 182.772 Q133.895 179.207 130.26 179.207 M130.26 175.504 Q136.07 175.504 139.126 180.11 Q142.205 184.693 142.205 193.443 Q142.205 202.17 139.126 206.777 Q136.07 211.36 130.26 211.36 Q124.45 211.36 121.371 206.777 Q118.316 202.17 118.316 193.443 Q118.316 184.693 121.371 180.11 Q124.45 175.504 130.26 175.504 Z" fill="#000000" fill-rule="evenodd" fill-opacity="1" /><path clip-path="url(#clip510)" d="M 0 0 M725.976 18.8205 L725.976 65.8515 L735.86 65.8515 Q748.378 65.8515 754.17 60.1802 Q760.004 54.509 760.004 42.2752 Q760.004 30.1225 754.17 24.4918 Q748.378 18.8205 735.86 18.8205 L725.976 18.8205 M717.793 12.096 L734.605 12.096 Q752.186 12.096 760.409 19.4281 Q768.632 26.7198 768.632 42.2752 Q768.632 57.9117 760.368 65.2439 Q752.105 72.576 734.605 72.576 L717.793 72.576 L717.793 12.096 Z" fill="#000000" fill-rule="evenodd" fill-opacity="1" /><path clip-path="url(#clip510)" d="M 0 0 M797.07 49.7694 Q788.036 49.7694 784.552 51.8354 Q781.068 53.9013 781.068 58.8839 Q781.068 62.8538 783.661 65.2034 Q786.294 67.5124 790.791 67.5124 Q796.989 67.5124 800.715 63.1374 Q804.483 58.7219 804.483 51.4303 L804.483 49.7694 L797.07 49.7694 M811.936 46.6907 L811.936 72.576 L804.483 72.576 L804.483 65.6895 Q801.931 69.8214 798.123 71.8063 Q794.315 73.7508 788.806 73.7508 Q781.838 73.7508 777.706 69.8619 Q773.615 65.9325 773.615 59.3701 Q773.615 51.7138 778.719 47.825 Q783.864 43.9361 794.031 43.9361 L804.483 43.9361 L804.483 43.2069 Q804.483 38.0623 801.08 35.2672 Q797.718 32.4315 791.601 32.4315 Q787.712 32.4315 784.026 33.3632 Q780.339 34.295 776.937 36.1584 L776.937 29.2718 Q781.028 27.692 784.876 26.9223 Q788.725 26.1121 792.371 26.1121 Q802.214 26.1121 807.075 31.2163 Q811.936 36.3204 811.936 46.6907 Z" fill="#000000" fill-rule="evenodd" fill-opacity="1" /><path clip-path="url(#clip510)" d="M 0 0 M827.127 14.324 L827.127 27.2059 L842.48 27.2059 L842.48 32.9987 L827.127 32.9987 L827.127 57.6282 Q827.127 63.1779 828.626 64.7578 Q830.165 66.3376 834.824 66.3376 L842.48 66.3376 L842.48 72.576 L834.824 72.576 Q826.196 72.576 822.914 69.3758 Q819.633 66.1351 819.633 57.6282 L819.633 32.9987 L814.164 32.9987 L814.164 27.2059 L819.633 27.2059 L819.633 14.324 L827.127 14.324 Z" fill="#000000" fill-rule="evenodd" fill-opacity="1" /><path clip-path="url(#clip510)" d="M 0 0 M870.918 49.7694 Q861.884 49.7694 858.4 51.8354 Q854.916 53.9013 854.916 58.8839 Q854.916 62.8538 857.509 65.2034 Q860.142 67.5124 864.639 67.5124 Q870.837 67.5124 874.563 63.1374 Q878.331 58.7219 878.331 51.4303 L878.331 49.7694 L870.918 49.7694 M885.784 46.6907 L885.784 72.576 L878.331 72.576 L878.331 65.6895 Q875.779 69.8214 871.971 71.8063 Q868.163 73.7508 862.654 73.7508 Q855.686 73.7508 851.554 69.8619 Q847.463 65.9325 847.463 59.3701 Q847.463 51.7138 852.567 47.825 Q857.712 43.9361 867.879 43.9361 L878.331 43.9361 L878.331 43.2069 Q878.331 38.0623 874.928 35.2672 Q871.566 32.4315 865.449 32.4315 Q861.56 32.4315 857.874 33.3632 Q854.187 34.295 850.785 36.1584 L850.785 29.2718 Q854.876 27.692 858.724 26.9223 Q862.573 26.1121 866.219 26.1121 Q876.062 26.1121 880.923 31.2163 Q885.784 36.3204 885.784 46.6907 Z" fill="#000000" fill-rule="evenodd" fill-opacity="1" /><path clip-path="url(#clip510)" d="M 0 0 M895.507 62.2867 L904.054 62.2867 L904.054 69.2543 L897.41 82.2172 L892.185 82.2172 L895.507 69.2543 L895.507 62.2867 Z" fill="#000000" fill-rule="evenodd" fill-opacity="1" /><path clip-path="url(#clip510)" d="M 0 0 M930.182 12.096 L981.345 12.096 L981.345 18.9825 L959.875 18.9825 L959.875 72.576 L951.652 72.576 L951.652 18.9825 L930.182 18.9825 L930.182 12.096 Z" fill="#000000" fill-rule="evenodd" fill-opacity="1" /><path clip-path="url(#clip510)" d="M 0 0 M1003.26 34.1734 Q1002 33.4443 1000.51 33.1202 Q999.048 32.7556 997.265 32.7556 Q990.946 32.7556 987.543 36.8875 Q984.181 40.9789 984.181 48.6757 L984.181 72.576 L976.687 72.576 L976.687 27.2059 L984.181 27.2059 L984.181 34.2544 Q986.53 30.1225 990.298 28.1376 Q994.065 26.1121 999.453 26.1121 Q1000.22 26.1121 1001.15 26.2337 Q1002.09 26.3147 1003.22 26.5172 L1003.26 34.1734 Z" fill="#000000" fill-rule="evenodd" fill-opacity="1" /><path clip-path="url(#clip510)" d="M 0 0 M1010.31 54.671 L1010.31 27.2059 L1017.76 27.2059 L1017.76 54.3874 Q1017.76 60.8284 1020.27 64.0691 Q1022.79 67.2693 1027.81 67.2693 Q1033.84 67.2693 1037.33 63.421 Q1040.85 59.5726 1040.85 52.9291 L1040.85 27.2059 L1048.31 27.2059 L1048.31 72.576 L1040.85 72.576 L1040.85 65.6084 Q1038.14 69.7404 1034.53 71.7658 Q1030.97 73.7508 1026.23 73.7508 Q1018.41 73.7508 1014.36 68.8897 Q1010.31 64.0286 1010.31 54.671 M1029.06 26.1121 L1029.06 26.1121 Z" fill="#000000" fill-rule="evenodd" fill-opacity="1" /><path clip-path="url(#clip510)" d="M 0 0 M1094.93 48.0275 L1094.93 51.6733 L1060.66 51.6733 Q1061.15 59.3701 1065.28 63.421 Q1069.45 67.4314 1076.87 67.4314 Q1081.16 67.4314 1085.17 66.3781 Q1089.22 65.3249 1093.19 63.2184 L1093.19 70.267 Q1089.18 71.9684 1084.97 72.8596 Q1080.75 73.7508 1076.42 73.7508 Q1065.56 73.7508 1059.2 67.4314 Q1052.88 61.1119 1052.88 50.3365 Q1052.88 39.1965 1058.88 32.6746 Q1064.92 26.1121 1075.12 26.1121 Q1084.28 26.1121 1089.59 32.0264 Q1094.93 37.9003 1094.93 48.0275 M1087.48 45.84 Q1087.4 39.7232 1084.04 36.0774 Q1080.71 32.4315 1075.2 32.4315 Q1068.97 32.4315 1065.2 35.9558 Q1061.47 39.4801 1060.9 45.8805 L1087.48 45.84 Z" fill="#000000" fill-rule="evenodd" fill-opacity="1" /><path clip-path="url(#clip510)" d="M 0 0 M1129.45 12.096 L1141.64 12.096 L1157.07 53.2532 L1172.59 12.096 L1184.78 12.096 L1184.78 72.576 L1176.8 72.576 L1176.8 19.4686 L1161.21 60.9499 L1152.98 60.9499 L1137.39 19.4686 L1137.39 72.576 L1129.45 72.576 L1129.45 12.096 Z" fill="#000000" fill-rule="evenodd" fill-opacity="1" /><path clip-path="url(#clip510)" d="M 0 0 M1210.18 32.4315 Q1204.19 32.4315 1200.7 37.1306 Q1197.22 41.7891 1197.22 49.9314 Q1197.22 58.0738 1200.66 62.7728 Q1204.14 67.4314 1210.18 67.4314 Q1216.14 67.4314 1219.62 62.7323 Q1223.1 58.0333 1223.1 49.9314 Q1223.1 41.8701 1219.62 37.1711 Q1216.14 32.4315 1210.18 32.4315 M1210.18 26.1121 Q1219.9 26.1121 1225.45 32.4315 Q1231 38.7509 1231 49.9314 Q1231 61.0714 1225.45 67.4314 Q1219.9 73.7508 1210.18 73.7508 Q1200.42 73.7508 1194.87 67.4314 Q1189.36 61.0714 1189.36 49.9314 Q1189.36 38.7509 1194.87 32.4315 Q1200.42 26.1121 1210.18 26.1121 Z" fill="#000000" fill-rule="evenodd" fill-opacity="1" /><path clip-path="url(#clip510)" d="M 0 0 M1268.68 34.0924 L1268.68 9.54393 L1276.13 9.54393 L1276.13 72.576 L1268.68 72.576 L1268.68 65.7705 Q1266.33 69.8214 1262.72 71.8063 Q1259.16 73.7508 1254.13 73.7508 Q1245.91 73.7508 1240.72 67.1883 Q1235.58 60.6258 1235.58 49.9314 Q1235.58 39.2371 1240.72 32.6746 Q1245.91 26.1121 1254.13 26.1121 Q1259.16 26.1121 1262.72 28.0971 Q1266.33 30.0415 1268.68 34.0924 M1243.28 49.9314 Q1243.28 58.1548 1246.64 62.8538 Q1250.04 67.5124 1255.96 67.5124 Q1261.87 67.5124 1265.27 62.8538 Q1268.68 58.1548 1268.68 49.9314 Q1268.68 41.7081 1265.27 37.0496 Q1261.87 32.3505 1255.96 32.3505 Q1250.04 32.3505 1246.64 37.0496 Q1243.28 41.7081 1243.28 49.9314 Z" fill="#000000" fill-rule="evenodd" fill-opacity="1" /><path clip-path="url(#clip510)" d="M 0 0 M1322.76 48.0275 L1322.76 51.6733 L1288.48 51.6733 Q1288.97 59.3701 1293.1 63.421 Q1297.28 67.4314 1304.69 67.4314 Q1308.98 67.4314 1312.99 66.3781 Q1317.04 65.3249 1321.01 63.2184 L1321.01 70.267 Q1317 71.9684 1312.79 72.8596 Q1308.58 73.7508 1304.24 73.7508 Q1293.39 73.7508 1287.03 67.4314 Q1280.71 61.1119 1280.71 50.3365 Q1280.71 39.1965 1286.7 32.6746 Q1292.74 26.1121 1302.95 26.1121 Q1312.1 26.1121 1317.41 32.0264 Q1322.76 37.9003 1322.76 48.0275 M1315.3 45.84 Q1315.22 39.7232 1311.86 36.0774 Q1308.54 32.4315 1303.03 32.4315 Q1296.79 32.4315 1293.02 35.9558 Q1289.29 39.4801 1288.73 45.8805 L1315.3 45.84 Z" fill="#000000" fill-rule="evenodd" fill-opacity="1" /><path clip-path="url(#clip510)" d="M 0 0 M1330.57 9.54393 L1338.03 9.54393 L1338.03 72.576 L1330.57 72.576 L1330.57 9.54393 Z" fill="#000000" fill-rule="evenodd" fill-opacity="1" /><path clip-path="url(#clip510)" d="M 0 0 M1392.84 49.7694 Q1383.8 49.7694 1380.32 51.8354 Q1376.83 53.9013 1376.83 58.8839 Q1376.83 62.8538 1379.43 65.2034 Q1382.06 67.5124 1386.56 67.5124 Q1392.76 67.5124 1396.48 63.1374 Q1400.25 58.7219 1400.25 51.4303 L1400.25 49.7694 L1392.84 49.7694 M1407.7 46.6907 L1407.7 72.576 L1400.25 72.576 L1400.25 65.6895 Q1397.7 69.8214 1393.89 71.8063 Q1390.08 73.7508 1384.57 73.7508 Q1377.6 73.7508 1373.47 69.8619 Q1369.38 65.9325 1369.38 59.3701 Q1369.38 51.7138 1374.49 47.825 Q1379.63 43.9361 1389.8 43.9361 L1400.25 43.9361 L1400.25 43.2069 Q1400.25 38.0623 1396.85 35.2672 Q1393.48 32.4315 1387.37 32.4315 Q1383.48 32.4315 1379.79 33.3632 Q1376.11 34.295 1372.7 36.1584 L1372.7 29.2718 Q1376.79 27.692 1380.64 26.9223 Q1384.49 26.1121 1388.14 26.1121 Q1397.98 26.1121 1402.84 31.2163 Q1407.7 36.3204 1407.7 46.6907 Z" fill="#000000" fill-rule="evenodd" fill-opacity="1" /><path clip-path="url(#clip510)" d="M 0 0 M1453.24 45.1919 L1453.24 72.576 L1445.78 72.576 L1445.78 45.4349 Q1445.78 38.994 1443.27 35.7938 Q1440.76 32.5936 1435.74 32.5936 Q1429.7 32.5936 1426.22 36.4419 Q1422.73 40.2903 1422.73 46.9338 L1422.73 72.576 L1415.24 72.576 L1415.24 27.2059 L1422.73 27.2059 L1422.73 34.2544 Q1425.41 30.163 1429.01 28.1376 Q1432.66 26.1121 1437.4 26.1121 Q1445.21 26.1121 1449.22 30.9732 Q1453.24 35.7938 1453.24 45.1919 Z" fill="#000000" fill-rule="evenodd" fill-opacity="1" /><path clip-path="url(#clip510)" d="M 0 0 M1490.91 34.0924 L1490.91 9.54393 L1498.36 9.54393 L1498.36 72.576 L1490.91 72.576 L1490.91 65.7705 Q1488.56 69.8214 1484.95 71.8063 Q1481.39 73.7508 1476.37 73.7508 Q1468.14 73.7508 1462.96 67.1883 Q1457.81 60.6258 1457.81 49.9314 Q1457.81 39.2371 1462.96 32.6746 Q1468.14 26.1121 1476.37 26.1121 Q1481.39 26.1121 1484.95 28.0971 Q1488.56 30.0415 1490.91 34.0924 M1465.51 49.9314 Q1465.51 58.1548 1468.87 62.8538 Q1472.27 67.5124 1478.19 67.5124 Q1484.1 67.5124 1487.51 62.8538 Q1490.91 58.1548 1490.91 49.9314 Q1490.91 41.7081 1487.51 37.0496 Q1484.1 32.3505 1478.19 32.3505 Q1472.27 32.3505 1468.87 37.0496 Q1465.51 41.7081 1465.51 49.9314 Z" fill="#000000" fill-rule="evenodd" fill-opacity="1" /><path clip-path="url(#clip510)" d="M 0 0 M1541.06 43.6931 L1541.06 65.8515 L1554.18 65.8515 Q1560.79 65.8515 1563.95 63.1374 Q1567.15 60.3828 1567.15 54.752 Q1567.15 49.0808 1563.95 46.4072 Q1560.79 43.6931 1554.18 43.6931 L1541.06 43.6931 M1541.06 18.8205 L1541.06 37.0496 L1553.17 37.0496 Q1559.17 37.0496 1562.08 34.8216 Q1565.04 32.5531 1565.04 27.935 Q1565.04 23.3575 1562.08 21.089 Q1559.17 18.8205 1553.17 18.8205 L1541.06 18.8205 M1532.88 12.096 L1553.78 12.096 Q1563.14 12.096 1568.2 15.9849 Q1573.26 19.8737 1573.26 27.0438 Q1573.26 32.5936 1570.67 35.8748 Q1568.08 39.156 1563.06 39.9662 Q1569.09 41.2625 1572.41 45.3944 Q1575.77 49.4858 1575.77 55.6432 Q1575.77 63.745 1570.27 68.1605 Q1564.76 72.576 1554.59 72.576 L1532.88 72.576 L1532.88 12.096 Z" fill="#000000" fill-rule="evenodd" fill-opacity="1" /><path clip-path="url(#clip510)" d="M 0 0 M1622.4 48.0275 L1622.4 51.6733 L1588.13 51.6733 Q1588.62 59.3701 1592.75 63.421 Q1596.92 67.4314 1604.33 67.4314 Q1608.63 67.4314 1612.64 66.3781 Q1616.69 65.3249 1620.66 63.2184 L1620.66 70.267 Q1616.65 71.9684 1612.44 72.8596 Q1608.22 73.7508 1603.89 73.7508 Q1593.03 73.7508 1586.67 67.4314 Q1580.35 61.1119 1580.35 50.3365 Q1580.35 39.1965 1586.35 32.6746 Q1592.38 26.1121 1602.59 26.1121 Q1611.75 26.1121 1617.05 32.0264 Q1622.4 37.9003 1622.4 48.0275 M1614.95 45.84 Q1614.87 39.7232 1611.5 36.0774 Q1608.18 32.4315 1602.67 32.4315 Q1596.43 32.4315 1592.67 35.9558 Q1588.94 39.4801 1588.37 45.8805 L1614.95 45.84 Z" fill="#000000" fill-rule="evenodd" fill-opacity="1" /><path clip-path="url(#clip510)" d="M 0 0 M1659.14 28.5427 L1659.14 35.5912 Q1655.98 33.9709 1652.58 33.1607 Q1649.18 32.3505 1645.53 32.3505 Q1639.98 32.3505 1637.19 34.0519 Q1634.43 35.7533 1634.43 39.156 Q1634.43 41.7486 1636.42 43.2475 Q1638.4 44.7058 1644.4 46.0426 L1646.95 46.6097 Q1654.89 48.3111 1658.21 51.4303 Q1661.57 54.509 1661.57 60.0587 Q1661.57 66.3781 1656.55 70.0644 Q1651.57 73.7508 1642.82 73.7508 Q1639.17 73.7508 1635.2 73.0216 Q1631.27 72.3329 1626.9 70.9151 L1626.9 63.2184 Q1631.03 65.3654 1635.04 66.4591 Q1639.05 67.5124 1642.98 67.5124 Q1648.25 67.5124 1651.08 65.73 Q1653.92 63.9071 1653.92 60.6258 Q1653.92 57.5877 1651.85 55.9673 Q1649.83 54.3469 1642.9 52.8481 L1640.31 52.2405 Q1633.38 50.7821 1630.3 47.7845 Q1627.22 44.7463 1627.22 39.4801 Q1627.22 33.0797 1631.76 29.5959 Q1636.3 26.1121 1644.64 26.1121 Q1648.77 26.1121 1652.42 26.7198 Q1656.06 27.3274 1659.14 28.5427 Z" fill="#000000" fill-rule="evenodd" fill-opacity="1" /><path clip-path="url(#clip510)" d="M 0 0 M1676.76 14.324 L1676.76 27.2059 L1692.12 27.2059 L1692.12 32.9987 L1676.76 32.9987 L1676.76 57.6282 Q1676.76 63.1779 1678.26 64.7578 Q1679.8 66.3376 1684.46 66.3376 L1692.12 66.3376 L1692.12 72.576 L1684.46 72.576 Q1675.83 72.576 1672.55 69.3758 Q1669.27 66.1351 1669.27 57.6282 L1669.27 32.9987 L1663.8 32.9987 L1663.8 27.2059 L1669.27 27.2059 L1669.27 14.324 L1676.76 14.324 Z" fill="#000000" fill-rule="evenodd" fill-opacity="1" /><path clip-path="url(#clip510)" d="M 0 0 M1726.63 12.096 L1761.39 12.096 L1761.39 18.9825 L1734.81 18.9825 L1734.81 36.8065 L1758.79 36.8065 L1758.79 43.6931 L1734.81 43.6931 L1734.81 72.576 L1726.63 72.576 L1726.63 12.096 Z" fill="#000000" fill-rule="evenodd" fill-opacity="1" /><path clip-path="url(#clip510)" d="M 0 0 M1763.17 27.2059 L1770.62 27.2059 L1770.62 72.576 L1763.17 72.576 L1763.17 27.2059 M1763.17 9.54393 L1770.62 9.54393 L1770.62 18.9825 L1763.17 18.9825 L1763.17 9.54393 Z" fill="#000000" fill-rule="evenodd" fill-opacity="1" /><path clip-path="url(#clip510)" d="M 0 0 M1785.81 14.324 L1785.81 27.2059 L1801.17 27.2059 L1801.17 32.9987 L1785.81 32.9987 L1785.81 57.6282 Q1785.81 63.1779 1787.31 64.7578 Q1788.85 66.3376 1793.51 66.3376 L1801.17 66.3376 L1801.17 72.576 L1793.51 72.576 Q1784.88 72.576 1781.6 69.3758 Q1778.32 66.1351 1778.32 57.6282 L1778.32 32.9987 L1772.85 32.9987 L1772.85 27.2059 L1778.32 27.2059 L1778.32 14.324 L1785.81 14.324 Z" fill="#000000" fill-rule="evenodd" fill-opacity="1" /><polyline clip-path="url(#clip512)" style="stroke:#009af9; stroke-width:4; stroke-opacity:1; fill:none" points="
  743.784,1447.87 743.784,1353.79 769.569,1353.79 769.569,1275.38 795.354,1275.38 795.354,1322.43 821.139,1322.43 821.139,1008.81 846.923,1008.81 846.923,1040.17 
  872.708,1040.17 872.708,1102.9 898.493,1102.9 898.493,1055.85 924.278,1055.85 924.278,836.322 950.063,836.322 950.063,789.279 975.847,789.279 975.847,883.364 
  1001.63,883.364 1001.63,789.279 1027.42,789.279 1027.42,1087.21 1053.2,1087.21 1053.2,836.322 1078.99,836.322 1104.77,836.322 1104.77,1055.85 
  1130.56,1055.85 1130.56,1071.53 1156.34,1071.53 1156.34,1181.3 1182.13,1181.3 1182.13,1369.47 1207.91,1369.47 1207.91,1275.38 1233.7,1275.38 1233.7,1338.11 
  1259.48,1338.11 1259.48,1369.47 1285.27,1369.47 1285.27,1416.51 1311.05,1416.51 1311.05,1385.15 1336.83,1385.15 1336.83,1432.19 1362.62,1432.19 
  1388.4,1432.19 1388.4,1400.83 1414.19,1400.83 1439.97,1400.83 1439.97,1432.19 1465.76,1432.19 1465.76,1353.79 1491.54,1353.79 1491.54,1259.7 
  1517.33,1259.7 1517.33,1228.34 1543.11,1228.34 1543.11,1165.62 1568.9,1165.62 1568.9,993.13 1594.68,993.13 1594.68,1008.81 1620.47,1008.81 1620.47,773.598 
  1646.25,773.598 1646.25,616.79 1672.04,616.79 1672.04,381.578 1697.82,381.578 1697.82,397.259 1723.61,397.259 1723.61,193.409 1749.39,193.409 1749.39,209.089 
  1775.18,209.089 1775.18,162.047 1800.96,162.047 1826.75,162.047 1826.75,318.855 1852.53,318.855 1852.53,397.259 1878.32,397.259 1878.32,569.748 
  1904.1,569.748 1904.1,852.002 1929.89,852.002 1929.89,977.449 1955.67,977.449 1955.67,1040.17 1981.45,1040.17 1981.45,1196.98 2007.24,1196.98 2007.24,1275.38 
  2033.02,1275.38 2033.02,1322.43 2058.81,1322.43 2058.81,1385.15 2084.59,1385.15 2084.59,1416.51 2110.38,1416.51 2110.38,1447.87 2136.16,1447.87 2136.16,1432.19 
  2161.95,1432.19 2161.95,1447.87 2187.73,1447.87 2213.52,1447.87 2239.3,1447.87 2265.09,1447.87 
  2290.87,1447.87 
  "/>
<polyline clip-path="url(#clip512)" style="stroke:#e26f46; stroke-width:4; stroke-opacity:1; fill:none" points="
  228.088,1447.87 230.667,1447.87 233.245,1447.87 235.824,1447.87 238.402,1447.87 240.981,1447.87 243.559,1447.87 246.138,1447.87 248.716,1447.87 251.295,1447.87 
  253.873,1447.87 256.451,1447.87 259.03,1447.87 261.608,1447.87 264.187,1447.87 266.765,1447.87 269.344,1447.87 271.922,1447.87 274.501,1447.87 277.079,1447.87 
  279.658,1447.87 282.236,1447.87 284.815,1447.87 287.393,1447.87 289.972,1447.87 292.55,1447.87 295.129,1447.87 297.707,1447.87 300.286,1447.87 302.864,1447.87 
  305.443,1447.87 308.021,1447.87 310.6,1447.87 313.178,1447.87 315.757,1447.87 318.335,1447.87 320.913,1447.87 323.492,1447.87 326.07,1447.87 328.649,1447.87 
  331.227,1447.87 333.806,1447.87 336.384,1447.87 338.963,1447.87 341.541,1447.87 344.12,1447.87 346.698,1447.87 349.277,1447.87 351.855,1447.87 354.434,1447.87 
  357.012,1447.87 359.591,1447.87 362.169,1447.87 364.748,1447.87 367.326,1447.87 369.905,1447.87 372.483,1447.87 375.062,1447.87 377.64,1447.87 380.219,1447.87 
  382.797,1447.87 385.375,1447.87 387.954,1447.87 390.532,1447.86 393.111,1447.86 395.689,1447.86 398.268,1447.86 400.846,1447.86 403.425,1447.86 406.003,1447.86 
  408.582,1447.86 411.16,1447.86 413.739,1447.85 416.317,1447.85 418.896,1447.85 421.474,1447.85 424.053,1447.85 426.631,1447.84 429.21,1447.84 431.788,1447.84 
  434.367,1447.83 436.945,1447.83 439.524,1447.83 442.102,1447.82 444.681,1447.82 447.259,1447.81 449.837,1447.81 452.416,1447.8 454.994,1447.8 457.573,1447.79 
  460.151,1447.78 462.73,1447.77 465.308,1447.76 467.887,1447.75 470.465,1447.74 473.044,1447.73 475.622,1447.72 478.201,1447.71 480.779,1447.69 483.358,1447.68 
  485.936,1447.66 488.515,1447.65 491.093,1447.63 493.672,1447.61 496.25,1447.59 498.829,1447.56 501.407,1447.54 503.986,1447.51 506.564,1447.48 509.143,1447.45 
  511.721,1447.42 514.299,1447.38 516.878,1447.34 519.456,1447.3 522.035,1447.25 524.613,1447.21 527.192,1447.16 529.77,1447.1 532.349,1447.04 534.927,1446.98 
  537.506,1446.91 540.084,1446.84 542.663,1446.77 545.241,1446.68 547.82,1446.6 550.398,1446.5 552.977,1446.41 555.555,1446.3 558.134,1446.19 560.712,1446.07 
  563.291,1445.94 565.869,1445.81 568.448,1445.66 571.026,1445.51 573.605,1445.34 576.183,1445.17 578.762,1444.99 581.34,1444.79 583.918,1444.59 586.497,1444.37 
  589.075,1444.13 591.654,1443.89 594.232,1443.63 596.811,1443.35 599.389,1443.06 601.968,1442.75 604.546,1442.42 607.125,1442.08 609.703,1441.71 612.282,1441.33 
  614.86,1440.92 617.439,1440.5 620.017,1440.04 622.596,1439.57 625.174,1439.07 627.753,1438.54 630.331,1437.98 632.91,1437.4 635.488,1436.79 638.067,1436.14 
  640.645,1435.46 643.224,1434.75 645.802,1434 648.38,1433.22 650.959,1432.39 653.537,1431.53 656.116,1430.63 658.694,1429.68 661.273,1428.69 663.851,1427.66 
  666.43,1426.57 669.008,1425.44 671.587,1424.26 674.165,1423.02 676.744,1421.73 679.322,1420.39 681.901,1418.98 684.479,1417.52 687.058,1416 689.636,1414.41 
  692.215,1412.76 694.793,1411.04 697.372,1409.25 699.95,1407.39 702.529,1405.46 705.107,1403.45 707.686,1401.37 710.264,1399.21 712.842,1396.97 715.421,1394.65 
  717.999,1392.25 720.578,1389.76 723.156,1387.18 725.735,1384.51 728.313,1381.75 730.892,1378.9 733.47,1375.96 736.049,1372.92 738.627,1369.78 741.206,1366.55 
  743.784,1363.21 746.363,1359.77 748.941,1356.23 751.52,1352.59 754.098,1348.84 756.677,1344.98 759.255,1341.02 761.834,1336.95 764.412,1332.77 766.991,1328.47 
  769.569,1324.07 772.148,1319.56 774.726,1314.94 777.304,1310.2 779.883,1305.35 782.461,1300.4 785.04,1295.33 787.618,1290.15 790.197,1284.85 792.775,1279.45 
  795.354,1273.94 797.932,1268.32 800.511,1262.59 803.089,1256.76 805.668,1250.82 808.246,1244.78 810.825,1238.64 813.403,1232.39 815.982,1226.05 818.56,1219.62 
  821.139,1213.09 823.717,1206.47 826.296,1199.76 828.874,1192.97 831.453,1186.1 834.031,1179.15 836.61,1172.13 839.188,1165.04 841.766,1157.88 844.345,1150.65 
  846.923,1143.37 849.502,1136.04 852.08,1128.66 854.659,1121.23 857.237,1113.76 859.816,1106.26 862.394,1098.73 864.973,1091.18 867.551,1083.61 870.13,1076.03 
  872.708,1068.44 875.287,1060.86 877.865,1053.27 880.444,1045.71 883.022,1038.16 885.601,1030.63 888.179,1023.14 890.758,1015.68 893.336,1008.27 895.915,1000.91 
  898.493,993.613 901.072,986.379 903.65,979.217 906.228,972.134 908.807,965.137 911.385,958.234 913.964,951.43 916.542,944.733 919.121,938.149 921.699,931.686 
  924.278,925.35 926.856,919.148 929.435,913.086 932.013,907.171 934.592,901.409 937.17,895.806 939.749,890.369 942.327,885.104 944.906,880.016 947.484,875.112 
  950.063,870.396 952.641,865.874 955.22,861.551 957.798,857.432 960.377,853.523 962.955,849.826 965.534,846.347 968.112,843.09 970.69,840.059 973.269,837.257 
  975.847,834.687 978.426,832.352 981.004,830.256 983.583,828.4 986.161,826.787 988.74,825.419 991.318,824.298 993.897,823.424 996.475,822.8 999.054,822.424 
  1001.63,822.299 1004.21,822.424 1006.79,822.8 1009.37,823.424 1011.95,824.298 1014.52,825.419 1017.1,826.787 1019.68,828.4 1022.26,830.256 1024.84,832.352 
  1027.42,834.687 1030,837.256 1032.57,840.059 1035.15,843.09 1037.73,846.347 1040.31,849.826 1042.89,853.523 1045.47,857.432 1048.04,861.551 1050.62,865.874 
  1053.2,870.396 1055.78,875.112 1058.36,880.016 1060.94,885.104 1063.52,890.369 1066.09,895.806 1068.67,901.408 1071.25,907.17 1073.83,913.085 1076.41,919.147 
  1078.99,925.349 1081.57,931.685 1084.14,938.149 1086.72,944.732 1089.3,951.429 1091.88,958.233 1094.46,965.136 1097.04,972.133 1099.61,979.216 1102.19,986.378 
  1104.77,993.612 1107.35,1000.91 1109.93,1008.27 1112.51,1015.68 1115.09,1023.13 1117.66,1030.63 1120.24,1038.15 1122.82,1045.7 1125.4,1053.27 1127.98,1060.85 
  1130.56,1068.44 1133.13,1076.03 1135.71,1083.61 1138.29,1091.18 1140.87,1098.73 1143.45,1106.26 1146.03,1113.76 1148.61,1121.22 1151.18,1128.65 1153.76,1136.03 
  1156.34,1143.36 1158.92,1150.64 1161.5,1157.86 1164.08,1165.02 1166.65,1172.11 1169.23,1179.13 1171.81,1186.08 1174.39,1192.95 1176.97,1199.74 1179.55,1206.44 
  1182.13,1213.06 1184.7,1219.58 1187.28,1226.01 1189.86,1232.35 1192.44,1238.59 1195.02,1244.73 1197.6,1250.77 1200.18,1256.7 1202.75,1262.53 1205.33,1268.25 
  1207.91,1273.86 1210.49,1279.37 1213.07,1284.76 1215.65,1290.04 1218.22,1295.22 1220.8,1300.28 1223.38,1305.22 1225.96,1310.06 1228.54,1314.78 1231.12,1319.39 
  1233.7,1323.89 1236.27,1328.27 1238.85,1332.55 1241.43,1336.71 1244.01,1340.76 1246.59,1344.7 1249.17,1348.53 1251.74,1352.26 1254.32,1355.88 1256.9,1359.39 
  1259.48,1362.79 1262.06,1366.09 1264.64,1369.29 1267.22,1372.39 1269.79,1375.38 1272.37,1378.28 1274.95,1381.08 1277.53,1383.78 1280.11,1386.39 1282.69,1388.91 
  1285.27,1391.33 1287.84,1393.66 1290.42,1395.91 1293,1398.06 1295.58,1400.14 1298.16,1402.12 1300.74,1404.03 1303.31,1405.85 1305.89,1407.59 1308.47,1409.25 
  1311.05,1410.84 1313.63,1412.35 1316.21,1413.78 1318.79,1415.14 1321.36,1416.43 1323.94,1417.65 1326.52,1418.8 1329.1,1419.88 1331.68,1420.89 1334.26,1421.83 
  1336.83,1422.71 1339.41,1423.52 1341.99,1424.27 1344.57,1424.95 1347.15,1425.57 1349.73,1426.13 1352.31,1426.62 1354.88,1427.06 1357.46,1427.43 1360.04,1427.74 
  1362.62,1427.98 1365.2,1428.17 1367.78,1428.29 1370.35,1428.36 1372.93,1428.36 1375.51,1428.29 1378.09,1428.17 1380.67,1427.98 1383.25,1427.73 1385.83,1427.41 
  1388.4,1427.02 1390.98,1426.57 1393.56,1426.06 1396.14,1425.47 1398.72,1424.81 1401.3,1424.08 1403.88,1423.28 1406.45,1422.4 1409.03,1421.45 1411.61,1420.42 
  1414.19,1419.31 1416.77,1418.12 1419.35,1416.84 1421.92,1415.48 1424.5,1414.03 1427.08,1412.49 1429.66,1410.86 1432.24,1409.13 1434.82,1407.3 1437.4,1405.37 
  1439.97,1403.34 1442.55,1401.21 1445.13,1398.96 1447.71,1396.6 1450.29,1394.13 1452.87,1391.53 1455.44,1388.82 1458.02,1385.98 1460.6,1383.01 1463.18,1379.91 
  1465.76,1376.68 1468.34,1373.31 1470.92,1369.8 1473.49,1366.14 1476.07,1362.33 1478.65,1358.37 1481.23,1354.25 1483.81,1349.98 1486.39,1345.54 1488.97,1340.94 
  1491.54,1336.16 1494.12,1331.21 1496.7,1326.09 1499.28,1320.78 1501.86,1315.3 1504.44,1309.62 1507.01,1303.76 1509.59,1297.7 1512.17,1291.45 1514.75,1284.99 
  1517.33,1278.34 1519.91,1271.48 1522.49,1264.41 1525.06,1257.14 1527.64,1249.65 1530.22,1241.95 1532.8,1234.03 1535.38,1225.9 1537.96,1217.55 1540.53,1208.97 
  1543.11,1200.18 1545.69,1191.16 1548.27,1181.92 1550.85,1172.46 1553.43,1162.77 1556.01,1152.86 1558.58,1142.72 1561.16,1132.37 1563.74,1121.79 1566.32,1110.99 
  1568.9,1099.97 1571.48,1088.73 1574.05,1077.28 1576.63,1065.62 1579.21,1053.74 1581.79,1041.66 1584.37,1029.38 1586.95,1016.89 1589.53,1004.21 1592.1,991.343 
  1594.68,978.288 1597.26,965.052 1599.84,951.641 1602.42,938.062 1605,924.321 1607.58,910.424 1610.15,896.378 1612.73,882.192 1615.31,867.872 1617.89,853.428 
  1620.47,838.868 1623.05,824.201 1625.62,809.435 1628.2,794.582 1630.78,779.65 1633.36,764.65 1635.94,749.592 1638.52,734.488 1641.1,719.349 1643.67,704.186 
  1646.25,689.012 1648.83,673.837 1651.41,658.674 1653.99,643.536 1656.57,628.436 1659.14,613.385 1661.72,598.399 1664.3,583.489 1666.88,568.669 1669.46,553.952 
  1672.04,539.353 1674.62,524.884 1677.19,510.56 1679.77,496.395 1682.35,482.401 1684.93,468.594 1687.51,454.986 1690.09,441.592 1692.66,428.425 1695.24,415.499 
  1697.82,402.827 1700.4,390.422 1702.98,378.298 1705.56,366.468 1708.14,354.944 1710.71,343.739 1713.29,332.866 1715.87,322.335 1718.45,312.16 1721.03,302.35 
  1723.61,292.918 1726.19,283.875 1728.76,275.229 1731.34,266.992 1733.92,259.172 1736.5,251.779 1739.08,244.822 1741.66,238.308 1744.23,232.245 1746.81,226.64 
  1749.39,221.5 1751.97,216.831 1754.55,212.638 1757.13,208.927 1759.71,205.702 1762.28,202.966 1764.86,200.723 1767.44,198.976 1770.02,197.726 1772.6,196.976 
  1775.18,196.726 1777.75,196.976 1780.33,197.726 1782.91,198.976 1785.49,200.723 1788.07,202.966 1790.65,205.702 1793.23,208.927 1795.8,212.638 1798.38,216.831 
  1800.96,221.5 1803.54,226.64 1806.12,232.245 1808.7,238.308 1811.28,244.822 1813.85,251.779 1816.43,259.172 1819.01,266.992 1821.59,275.229 1824.17,283.875 
  1826.75,292.918 1829.32,302.35 1831.9,312.16 1834.48,322.335 1837.06,332.866 1839.64,343.739 1842.22,354.944 1844.8,366.468 1847.37,378.298 1849.95,390.422 
  1852.53,402.827 1855.11,415.499 1857.69,428.425 1860.27,441.592 1862.84,454.987 1865.42,468.594 1868,482.402 1870.58,496.395 1873.16,510.561 1875.74,524.885 
  1878.32,539.354 1880.89,553.953 1883.47,568.67 1886.05,583.49 1888.63,598.4 1891.21,613.387 1893.79,628.437 1896.36,643.538 1898.94,658.676 1901.52,673.839 
  1904.1,689.014 1906.68,704.189 1909.26,719.352 1911.84,734.492 1914.41,749.596 1916.99,764.653 1919.57,779.654 1922.15,794.586 1924.73,809.44 1927.31,824.206 
  1929.89,838.874 1932.46,853.435 1935.04,867.88 1937.62,882.2 1940.2,896.387 1942.78,910.434 1945.36,924.332 1947.93,938.074 1950.51,951.655 1953.09,965.066 
  1955.67,978.304 1958.25,991.36 1960.83,1004.23 1963.41,1016.91 1965.98,1029.4 1968.56,1041.69 1971.14,1053.77 1973.72,1065.65 1976.3,1077.31 1978.88,1088.77 
  1981.45,1100.01 1984.03,1111.03 1986.61,1121.83 1989.19,1132.42 1991.77,1142.78 1994.35,1152.92 1996.93,1162.84 1999.5,1172.53 2002.08,1182 2004.66,1191.25 
  2007.24,1200.27 2009.82,1209.08 2012.4,1217.66 2014.97,1226.02 2017.55,1234.16 2020.13,1242.09 2022.71,1249.8 2025.29,1257.3 2027.87,1264.59 2030.45,1271.67 
  2033.02,1278.55 2035.6,1285.22 2038.18,1291.69 2040.76,1297.97 2043.34,1304.05 2045.92,1309.93 2048.5,1315.63 2051.07,1321.15 2053.65,1326.48 2056.23,1331.64 
  2058.81,1336.62 2061.39,1341.43 2063.97,1346.07 2066.54,1350.55 2069.12,1354.87 2071.7,1359.03 2074.28,1363.05 2076.86,1366.91 2079.44,1370.63 2082.02,1374.2 
  2084.59,1377.64 2087.17,1380.95 2089.75,1384.12 2092.33,1387.17 2094.91,1390.09 2097.49,1392.9 2100.06,1395.59 2102.64,1398.17 2105.22,1400.64 2107.8,1403.01 
  2110.38,1405.27 2112.96,1407.44 2115.54,1409.51 2118.11,1411.49 2120.69,1413.38 2123.27,1415.19 2125.85,1416.92 2128.43,1418.56 2131.01,1420.13 2133.59,1421.62 
  2136.16,1423.05 2138.74,1424.41 2141.32,1425.7 2143.9,1426.93 2146.48,1428.09 2149.06,1429.2 2151.63,1430.26 2154.21,1431.26 2156.79,1432.21 2159.37,1433.12 
  2161.95,1433.97 2164.53,1434.79 2167.11,1435.56 2169.68,1436.28 2172.26,1436.97 2174.84,1437.63 2177.42,1438.25 2180,1438.83 2182.58,1439.38 2185.15,1439.9 
  2187.73,1440.4 2190.31,1440.86 2192.89,1441.3 2195.47,1441.71 2198.05,1442.1 2200.63,1442.47 2203.2,1442.82 2205.78,1443.14 2208.36,1443.45 2210.94,1443.74 
  2213.52,1444.01 2216.1,1444.26 2218.67,1444.5 2221.25,1444.73 2223.83,1444.94 2226.41,1445.14 2228.99,1445.32 2231.57,1445.5 2234.15,1445.66 2236.72,1445.81 
  2239.3,1445.95 2241.88,1446.09 2244.46,1446.21 2247.04,1446.33 2249.62,1446.44 2252.2,1446.54 2254.77,1446.64 2257.35,1446.73 2259.93,1446.81 2262.51,1446.89 
  2265.09,1446.96 2267.67,1447.02 2270.24,1447.09 2272.82,1447.15 2275.4,1447.2 2277.98,1447.25 2280.56,1447.3 2283.14,1447.34 2285.72,1447.38 2288.29,1447.42 
  2290.87,1447.45 
  "/>
<polyline clip-path="url(#clip512)" style="stroke:#3da44d; stroke-width:4; stroke-opacity:1; fill:none" points="
  228.088,1447.87 230.667,1447.87 233.245,1447.87 235.824,1447.87 238.402,1447.87 240.981,1447.87 243.559,1447.87 246.138,1447.87 248.716,1447.87 251.295,1447.87 
  253.873,1447.87 256.451,1447.87 259.03,1447.87 261.608,1447.87 264.187,1447.87 266.765,1447.87 269.344,1447.87 271.922,1447.87 274.501,1447.87 277.079,1447.87 
  279.658,1447.87 282.236,1447.87 284.815,1447.87 287.393,1447.87 289.972,1447.87 292.55,1447.87 295.129,1447.87 297.707,1447.87 300.286,1447.87 302.864,1447.87 
  305.443,1447.87 308.021,1447.87 310.6,1447.87 313.178,1447.87 315.757,1447.87 318.335,1447.87 320.913,1447.87 323.492,1447.87 326.07,1447.87 328.649,1447.87 
  331.227,1447.87 333.806,1447.87 336.384,1447.87 338.963,1447.87 341.541,1447.87 344.12,1447.87 346.698,1447.87 349.277,1447.87 351.855,1447.87 354.434,1447.87 
  357.012,1447.87 359.591,1447.87 362.169,1447.87 364.748,1447.87 367.326,1447.87 369.905,1447.87 372.483,1447.87 375.062,1447.87 377.64,1447.87 380.219,1447.87 
  382.797,1447.87 385.375,1447.87 387.954,1447.87 390.532,1447.87 393.111,1447.87 395.689,1447.87 398.268,1447.87 400.846,1447.86 403.425,1447.86 406.003,1447.86 
  408.582,1447.86 411.16,1447.86 413.739,1447.86 416.317,1447.86 418.896,1447.86 421.474,1447.85 424.053,1447.85 426.631,1447.85 429.21,1447.85 431.788,1447.85 
  434.367,1447.84 436.945,1447.84 439.524,1447.84 442.102,1447.84 444.681,1447.83 447.259,1447.83 449.837,1447.82 452.416,1447.82 454.994,1447.81 457.573,1447.81 
  460.151,1447.8 462.73,1447.8 465.308,1447.79 467.887,1447.78 470.465,1447.77 473.044,1447.76 475.622,1447.75 478.201,1447.74 480.779,1447.73 483.358,1447.72 
  485.936,1447.71 488.515,1447.69 491.093,1447.68 493.672,1447.66 496.25,1447.64 498.829,1447.62 501.407,1447.6 503.986,1447.58 506.564,1447.56 509.143,1447.53 
  511.721,1447.5 514.299,1447.47 516.878,1447.44 519.456,1447.4 522.035,1447.37 524.613,1447.33 527.192,1447.28 529.77,1447.24 532.349,1447.19 534.927,1447.13 
  537.506,1447.08 540.084,1447.01 542.663,1446.95 545.241,1446.88 547.82,1446.8 550.398,1446.72 552.977,1446.64 555.555,1446.54 558.134,1446.45 560.712,1446.34 
  563.291,1446.23 565.869,1446.11 568.448,1445.98 571.026,1445.85 573.605,1445.7 576.183,1445.55 578.762,1445.38 581.34,1445.21 583.918,1445.02 586.497,1444.83 
  589.075,1444.62 591.654,1444.4 594.232,1444.16 596.811,1443.91 599.389,1443.64 601.968,1443.36 604.546,1443.07 607.125,1442.75 609.703,1442.42 612.282,1442.06 
  614.86,1441.69 617.439,1441.3 620.017,1440.88 622.596,1440.44 625.174,1439.97 627.753,1439.48 630.331,1438.97 632.91,1438.42 635.488,1437.85 638.067,1437.25 
  640.645,1436.61 643.224,1435.94 645.802,1435.24 648.38,1434.5 650.959,1433.72 653.537,1432.91 656.116,1432.05 658.694,1431.15 661.273,1430.21 663.851,1429.22 
  666.43,1428.19 669.008,1427.11 671.587,1425.97 674.165,1424.79 676.744,1423.55 679.322,1422.25 681.901,1420.9 684.479,1419.49 687.058,1418.01 689.636,1416.48 
  692.215,1414.87 694.793,1413.2 697.372,1411.46 699.95,1409.65 702.529,1407.77 705.107,1405.81 707.686,1403.77 710.264,1401.65 712.842,1399.46 715.421,1397.17 
  717.999,1394.81 720.578,1392.35 723.156,1389.81 725.735,1387.17 728.313,1384.44 730.892,1381.62 733.47,1378.7 736.049,1375.68 738.627,1372.56 741.206,1369.34 
  743.784,1366.01 746.363,1362.58 748.941,1359.04 751.52,1355.39 754.098,1351.64 756.677,1347.77 759.255,1343.79 761.834,1339.69 764.412,1335.49 766.991,1331.16 
  769.569,1326.73 772.148,1322.17 774.726,1317.5 777.304,1312.71 779.883,1307.8 782.461,1302.78 785.04,1297.64 787.618,1292.38 790.197,1287 792.775,1281.5 
  795.354,1275.89 797.932,1270.17 800.511,1264.33 803.089,1258.37 805.668,1252.31 808.246,1246.13 810.825,1239.85 813.403,1233.46 815.982,1226.96 818.56,1220.37 
  821.139,1213.67 823.717,1206.88 826.296,1199.99 828.874,1193.01 831.453,1185.94 834.031,1178.79 836.61,1171.56 839.188,1164.26 841.766,1156.88 844.345,1149.43 
  846.923,1141.92 849.502,1134.35 852.08,1126.73 854.659,1119.06 857.237,1111.34 859.816,1103.59 862.394,1095.81 864.973,1087.99 867.551,1080.16 870.13,1072.32 
  872.708,1064.46 875.287,1056.61 877.865,1048.76 880.444,1040.92 883.022,1033.1 885.601,1025.3 888.179,1017.54 890.758,1009.82 893.336,1002.14 895.915,994.521 
  898.493,986.96 901.072,979.468 903.65,972.052 906.228,964.719 908.807,957.477 911.385,950.334 913.964,943.296 916.542,936.372 919.121,929.568 921.699,922.891 
  924.278,916.35 926.856,909.951 929.435,903.701 932.013,897.607 934.592,891.676 937.17,885.915 939.749,880.33 942.327,874.928 944.906,869.715 947.484,864.696 
  950.063,859.879 952.641,855.269 955.22,850.87 957.798,846.689 960.377,842.73 962.955,838.998 965.534,835.498 968.112,832.233 970.69,829.209 973.269,826.427 
  975.847,823.893 978.426,821.609 981.004,819.578 983.583,817.802 986.161,816.283 988.74,815.025 991.318,814.027 993.897,813.291 996.475,812.819 999.054,812.61 
  1001.63,812.665 1004.21,812.985 1006.79,813.568 1009.37,814.413 1011.95,815.521 1014.52,816.889 1017.1,818.515 1019.68,820.399 1022.26,822.536 1024.84,824.926 
  1027.42,827.564 1030,830.448 1032.57,833.573 1035.15,836.937 1037.73,840.535 1040.31,844.363 1042.89,848.416 1045.47,852.689 1048.04,857.177 1050.62,861.875 
  1053.2,866.777 1055.78,871.878 1058.36,877.171 1060.94,882.65 1063.52,888.31 1066.09,894.143 1068.67,900.143 1071.25,906.303 1073.83,912.617 1076.41,919.076 
  1078.99,925.675 1081.57,932.406 1084.14,939.261 1086.72,946.234 1089.3,953.317 1091.88,960.503 1094.46,967.783 1097.04,975.152 1099.61,982.601 1102.19,990.122 
  1104.77,997.709 1107.35,1005.35 1109.93,1013.05 1112.51,1020.79 1115.09,1028.57 1117.66,1036.37 1120.24,1044.2 1122.82,1052.05 1125.4,1059.9 1127.98,1067.75 
  1130.56,1075.61 1133.13,1083.45 1135.71,1091.27 1138.29,1099.07 1140.87,1106.84 1143.45,1114.58 1146.03,1122.27 1148.61,1129.92 1151.18,1137.52 1153.76,1145.07 
  1156.34,1152.55 1158.92,1159.97 1161.5,1167.32 1164.08,1174.59 1166.65,1181.79 1169.23,1188.9 1171.81,1195.93 1174.39,1202.87 1176.97,1209.72 1179.55,1216.47 
  1182.13,1223.12 1184.7,1229.67 1187.28,1236.12 1189.86,1242.46 1192.44,1248.7 1195.02,1254.82 1197.6,1260.84 1200.18,1266.74 1202.75,1272.53 1205.33,1278.2 
  1207.91,1283.76 1210.49,1289.2 1213.07,1294.52 1215.65,1299.72 1218.22,1304.81 1220.8,1309.77 1223.38,1314.62 1225.96,1319.35 1228.54,1323.96 1231.12,1328.46 
  1233.7,1332.83 1236.27,1337.09 1238.85,1341.24 1241.43,1345.27 1244.01,1349.18 1246.59,1352.98 1249.17,1356.67 1251.74,1360.25 1254.32,1363.72 1256.9,1367.08 
  1259.48,1370.33 1262.06,1373.48 1264.64,1376.53 1267.22,1379.47 1269.79,1382.31 1272.37,1385.05 1274.95,1387.69 1277.53,1390.24 1280.11,1392.7 1282.69,1395.06 
  1285.27,1397.33 1287.84,1399.51 1290.42,1401.6 1293,1403.61 1295.58,1405.53 1298.16,1407.37 1300.74,1409.13 1303.31,1410.81 1305.89,1412.41 1308.47,1413.94 
  1311.05,1415.39 1313.63,1416.76 1316.21,1418.07 1318.79,1419.3 1321.36,1420.47 1323.94,1421.56 1326.52,1422.59 1329.1,1423.56 1331.68,1424.45 1334.26,1425.29 
  1336.83,1426.06 1339.41,1426.77 1341.99,1427.42 1344.57,1428 1347.15,1428.53 1349.73,1429 1352.31,1429.4 1354.88,1429.75 1357.46,1430.04 1360.04,1430.27 
  1362.62,1430.44 1365.2,1430.56 1367.78,1430.61 1370.35,1430.61 1372.93,1430.54 1375.51,1430.42 1378.09,1430.23 1380.67,1429.99 1383.25,1429.68 1385.83,1429.31 
  1388.4,1428.87 1390.98,1428.38 1393.56,1427.81 1396.14,1427.18 1398.72,1426.48 1401.3,1425.7 1403.88,1424.86 1406.45,1423.94 1409.03,1422.95 1411.61,1421.88 
  1414.19,1420.73 1416.77,1419.5 1419.35,1418.18 1421.92,1416.78 1424.5,1415.29 1427.08,1413.71 1429.66,1412.03 1432.24,1410.26 1434.82,1408.39 1437.4,1406.41 
  1439.97,1404.33 1442.55,1402.14 1445.13,1399.84 1447.71,1397.43 1450.29,1394.89 1452.87,1392.23 1455.44,1389.45 1458.02,1386.54 1460.6,1383.5 1463.18,1380.32 
  1465.76,1377 1468.34,1373.54 1470.92,1369.92 1473.49,1366.16 1476.07,1362.24 1478.65,1358.17 1481.23,1353.93 1483.81,1349.52 1486.39,1344.95 1488.97,1340.2 
  1491.54,1335.27 1494.12,1330.15 1496.7,1324.86 1499.28,1319.37 1501.86,1313.69 1504.44,1307.81 1507.01,1301.74 1509.59,1295.46 1512.17,1288.97 1514.75,1282.27 
  1517.33,1275.36 1519.91,1268.24 1522.49,1260.89 1525.06,1253.32 1527.64,1245.53 1530.22,1237.52 1532.8,1229.27 1535.38,1220.8 1537.96,1212.09 1540.53,1203.15 
  1543.11,1193.97 1545.69,1184.56 1548.27,1174.92 1550.85,1165.03 1553.43,1154.92 1556.01,1144.56 1558.58,1133.97 1561.16,1123.14 1563.74,1112.07 1566.32,1100.78 
  1568.9,1089.25 1571.48,1077.49 1574.05,1065.51 1576.63,1053.3 1579.21,1040.88 1581.79,1028.23 1584.37,1015.37 1586.95,1002.3 1589.53,989.032 1592.1,975.561 
  1594.68,961.896 1597.26,948.043 1599.84,934.01 1602.42,919.801 1605,905.425 1607.58,890.89 1610.15,876.202 1612.73,861.371 1615.31,846.405 1617.89,831.313 
  1620.47,816.105 1623.05,800.791 1625.62,785.382 1628.2,769.887 1630.78,754.318 1633.36,738.686 1635.94,723.004 1638.52,707.282 1641.1,691.534 1643.67,675.772 
  1646.25,660.009 1648.83,644.259 1651.41,628.534 1653.99,612.849 1656.57,597.217 1659.14,581.652 1661.72,566.169 1664.3,550.783 1666.88,535.507 1669.46,520.357 
  1672.04,505.347 1674.62,490.493 1677.19,475.808 1679.77,461.308 1682.35,447.008 1684.93,432.923 1687.51,419.067 1690.09,405.456 1692.66,392.103 1695.24,379.024 
  1697.82,366.232 1700.4,353.743 1702.98,341.569 1705.56,329.724 1708.14,318.222 1710.71,307.076 1713.29,296.3 1715.87,285.904 1718.45,275.902 1721.03,266.305 
  1723.61,257.124 1726.19,248.371 1728.76,240.055 1731.34,232.188 1733.92,224.778 1736.5,217.834 1739.08,211.364 1741.66,205.377 1744.23,199.88 1746.81,194.88 
  1749.39,190.382 1751.97,186.393 1754.55,182.917 1757.13,179.959 1759.71,177.522 1762.28,175.609 1764.86,174.223 1767.44,173.365 1770.02,173.037 1772.6,173.238 
  1775.18,173.969 1777.75,175.229 1780.33,177.016 1782.91,179.328 1785.49,182.162 1788.07,185.515 1790.65,189.381 1793.23,193.758 1795.8,198.638 1798.38,204.017 
  1800.96,209.887 1803.54,216.242 1806.12,223.073 1808.7,230.373 1811.28,238.132 1813.85,246.341 1816.43,254.99 1819.01,264.069 1821.59,273.568 1824.17,283.474 
  1826.75,293.777 1829.32,304.463 1831.9,315.522 1834.48,326.94 1837.06,338.704 1839.64,350.8 1842.22,363.216 1844.8,375.936 1847.37,388.948 1849.95,402.236 
  1852.53,415.787 1855.11,429.586 1857.69,443.618 1860.27,457.867 1862.84,472.321 1865.42,486.963 1868,501.778 1870.58,516.752 1873.16,531.87 1875.74,547.117 
  1878.32,562.479 1880.89,577.94 1883.47,593.486 1886.05,609.103 1888.63,624.777 1891.21,640.494 1893.79,656.24 1896.36,672.001 1898.94,687.764 1901.52,703.517 
  1904.1,719.246 1906.68,734.94 1909.26,750.585 1911.84,766.17 1914.41,781.684 1916.99,797.115 1919.57,812.453 1922.15,827.688 1924.73,842.808 1927.31,857.806 
  1929.89,872.671 1932.46,887.394 1935.04,901.968 1937.62,916.383 1940.2,930.633 1942.78,944.71 1945.36,958.607 1947.93,972.319 1950.51,985.838 1953.09,999.159 
  1955.67,1012.28 1958.25,1025.19 1960.83,1037.89 1963.41,1050.37 1965.98,1062.63 1968.56,1074.67 1971.14,1086.48 1973.72,1098.07 1976.3,1109.42 1978.88,1120.54 
  1981.45,1131.43 1984.03,1142.08 1986.61,1152.5 1989.19,1162.68 1991.77,1172.63 1994.35,1182.33 1996.93,1191.81 1999.5,1201.04 2002.08,1210.04 2004.66,1218.81 
  2007.24,1227.35 2009.82,1235.66 2012.4,1243.74 2014.97,1251.59 2017.55,1259.22 2020.13,1266.63 2022.71,1273.82 2025.29,1280.79 2027.87,1287.56 2030.45,1294.11 
  2033.02,1300.45 2035.6,1306.6 2038.18,1312.54 2040.76,1318.28 2043.34,1323.84 2045.92,1329.2 2048.5,1334.38 2051.07,1339.38 2053.65,1344.21 2056.23,1348.85 
  2058.81,1353.33 2061.39,1357.65 2063.97,1361.8 2066.54,1365.8 2069.12,1369.64 2071.7,1373.34 2074.28,1376.89 2076.86,1380.3 2079.44,1383.57 2082.02,1386.71 
  2084.59,1389.72 2087.17,1392.6 2089.75,1395.36 2092.33,1398.01 2094.91,1400.54 2097.49,1402.96 2100.06,1405.28 2102.64,1407.49 2105.22,1409.61 2107.8,1411.63 
  2110.38,1413.55 2112.96,1415.39 2115.54,1417.14 2118.11,1418.81 2120.69,1420.4 2123.27,1421.92 2125.85,1423.36 2128.43,1424.73 2131.01,1426.03 2133.59,1427.27 
  2136.16,1428.44 2138.74,1429.56 2141.32,1430.62 2143.9,1431.63 2146.48,1432.58 2149.06,1433.48 2151.63,1434.34 2154.21,1435.15 2156.79,1435.91 2159.37,1436.64 
  2161.95,1437.32 2164.53,1437.97 2167.11,1438.58 2169.68,1439.16 2172.26,1439.7 2174.84,1440.22 2177.42,1440.7 2180,1441.16 2182.58,1441.59 2185.15,1442 
  2187.73,1442.38 2190.31,1442.74 2192.89,1443.07 2195.47,1443.39 2198.05,1443.69 2200.63,1443.97 2203.2,1444.23 2205.78,1444.48 2208.36,1444.71 2210.94,1444.92 
  2213.52,1445.13 2216.1,1445.32 2218.67,1445.49 2221.25,1445.66 2223.83,1445.82 2226.41,1445.96 2228.99,1446.1 2231.57,1446.22 2234.15,1446.34 2236.72,1446.45 
  2239.3,1446.56 2241.88,1446.65 2244.46,1446.74 2247.04,1446.83 2249.62,1446.9 2252.2,1446.98 2254.77,1447.04 2257.35,1447.11 2259.93,1447.16 2262.51,1447.22 
  2265.09,1447.27 2267.67,1447.31 2270.24,1447.36 2272.82,1447.4 2275.4,1447.43 2277.98,1447.47 2280.56,1447.5 2283.14,1447.53 2285.72,1447.56 2288.29,1447.58 
  2290.87,1447.61 
  "/>
<path clip-path="url(#clip510)" d="
M1890.92 448.912 L2280.76 448.912 L2280.76 206.992 L1890.92 206.992  Z
  " fill="#ffffff" fill-rule="evenodd" fill-opacity="1"/>
<polyline clip-path="url(#clip510)" style="stroke:#000000; stroke-width:4; stroke-opacity:1; fill:none" points="
  1890.92,448.912 2280.76,448.912 2280.76,206.992 1890.92,206.992 1890.92,448.912 
  "/>
<polyline clip-path="url(#clip510)" style="stroke:#009af9; stroke-width:4; stroke-opacity:1; fill:none" points="
  1914.92,267.472 2058.92,267.472 
  "/>
<path clip-path="url(#clip510)" d="M 0 0 M2087.59 254.035 L2087.59 280.91 L2093.24 280.91 Q2100.4 280.91 2103.71 277.669 Q2107.04 274.428 2107.04 267.437 Q2107.04 260.493 2103.71 257.275 Q2100.4 254.035 2093.24 254.035 L2087.59 254.035 M2082.92 250.192 L2092.53 250.192 Q2102.57 250.192 2107.27 254.382 Q2111.97 258.549 2111.97 267.437 Q2111.97 276.373 2107.25 280.562 Q2102.53 284.752 2092.53 284.752 L2082.92 284.752 L2082.92 250.192 Z" fill="#000000" fill-rule="evenodd" fill-opacity="1" /><path clip-path="url(#clip510)" d="M 0 0 M2128.22 271.72 Q2123.06 271.72 2121.07 272.9 Q2119.08 274.081 2119.08 276.928 Q2119.08 279.197 2120.56 280.539 Q2122.06 281.859 2124.63 281.859 Q2128.17 281.859 2130.3 279.359 Q2132.46 276.836 2132.46 272.669 L2132.46 271.72 L2128.22 271.72 M2136.71 269.961 L2136.71 284.752 L2132.46 284.752 L2132.46 280.817 Q2131 283.178 2128.82 284.312 Q2126.65 285.423 2123.5 285.423 Q2119.52 285.423 2117.15 283.201 Q2114.82 280.956 2114.82 277.206 Q2114.82 272.831 2117.73 270.609 Q2120.67 268.386 2126.48 268.386 L2132.46 268.386 L2132.46 267.97 Q2132.46 265.03 2130.51 263.433 Q2128.59 261.812 2125.09 261.812 Q2122.87 261.812 2120.77 262.345 Q2118.66 262.877 2116.71 263.942 L2116.71 260.007 Q2119.05 259.104 2121.25 258.664 Q2123.45 258.201 2125.53 258.201 Q2131.16 258.201 2133.94 261.118 Q2136.71 264.035 2136.71 269.961 Z" fill="#000000" fill-rule="evenodd" fill-opacity="1" /><path clip-path="url(#clip510)" d="M 0 0 M2145.4 251.465 L2145.4 258.826 L2154.17 258.826 L2154.17 262.137 L2145.4 262.137 L2145.4 276.211 Q2145.4 279.382 2146.25 280.285 Q2147.13 281.187 2149.79 281.187 L2154.17 281.187 L2154.17 284.752 L2149.79 284.752 Q2144.86 284.752 2142.99 282.923 Q2141.11 281.072 2141.11 276.211 L2141.11 262.137 L2137.99 262.137 L2137.99 258.826 L2141.11 258.826 L2141.11 251.465 L2145.4 251.465 Z" fill="#000000" fill-rule="evenodd" fill-opacity="1" /><path clip-path="url(#clip510)" d="M 0 0 M2170.42 271.72 Q2165.26 271.72 2163.27 272.9 Q2161.27 274.081 2161.27 276.928 Q2161.27 279.197 2162.76 280.539 Q2164.26 281.859 2166.83 281.859 Q2170.37 281.859 2172.5 279.359 Q2174.65 276.836 2174.65 272.669 L2174.65 271.72 L2170.42 271.72 M2178.91 269.961 L2178.91 284.752 L2174.65 284.752 L2174.65 280.817 Q2173.2 283.178 2171.02 284.312 Q2168.84 285.423 2165.7 285.423 Q2161.71 285.423 2159.35 283.201 Q2157.02 280.956 2157.02 277.206 Q2157.02 272.831 2159.93 270.609 Q2162.87 268.386 2168.68 268.386 L2174.65 268.386 L2174.65 267.97 Q2174.65 265.03 2172.71 263.433 Q2170.79 261.812 2167.29 261.812 Q2165.07 261.812 2162.96 262.345 Q2160.86 262.877 2158.91 263.942 L2158.91 260.007 Q2161.25 259.104 2163.45 258.664 Q2165.65 258.201 2167.73 258.201 Q2173.36 258.201 2176.14 261.118 Q2178.91 264.035 2178.91 269.961 Z" fill="#000000" fill-rule="evenodd" fill-opacity="1" /><polyline clip-path="url(#clip510)" style="stroke:#e26f46; stroke-width:4; stroke-opacity:1; fill:none" points="
  1914.92,327.952 2058.92,327.952 
  "/>
<path clip-path="url(#clip510)" d="M 0 0 M2082.92 310.672 L2112.15 310.672 L2112.15 314.607 L2099.89 314.607 L2099.89 345.232 L2095.19 345.232 L2095.19 314.607 L2082.92 314.607 L2082.92 310.672 Z" fill="#000000" fill-rule="evenodd" fill-opacity="1" /><path clip-path="url(#clip510)" d="M 0 0 M2124.68 323.288 Q2123.96 322.871 2123.1 322.686 Q2122.27 322.478 2121.25 322.478 Q2117.64 322.478 2115.7 324.839 Q2113.78 327.177 2113.78 331.575 L2113.78 345.232 L2109.49 345.232 L2109.49 319.306 L2113.78 319.306 L2113.78 323.334 Q2115.12 320.973 2117.27 319.839 Q2119.42 318.681 2122.5 318.681 Q2122.94 318.681 2123.47 318.751 Q2124.01 318.797 2124.65 318.913 L2124.68 323.288 Z" fill="#000000" fill-rule="evenodd" fill-opacity="1" /><path clip-path="url(#clip510)" d="M 0 0 M2128.71 335.001 L2128.71 319.306 L2132.96 319.306 L2132.96 334.839 Q2132.96 338.519 2134.4 340.371 Q2135.84 342.2 2138.71 342.2 Q2142.15 342.2 2144.15 340.001 Q2146.16 337.802 2146.16 334.005 L2146.16 319.306 L2150.42 319.306 L2150.42 345.232 L2146.16 345.232 L2146.16 341.251 Q2144.61 343.612 2142.55 344.769 Q2140.51 345.903 2137.8 345.903 Q2133.34 345.903 2131.02 343.126 Q2128.71 340.348 2128.71 335.001 M2139.42 318.681 L2139.42 318.681 Z" fill="#000000" fill-rule="evenodd" fill-opacity="1" /><path clip-path="url(#clip510)" d="M 0 0 M2159.1 311.945 L2159.1 319.306 L2167.87 319.306 L2167.87 322.617 L2159.1 322.617 L2159.1 336.691 Q2159.1 339.862 2159.96 340.765 Q2160.83 341.667 2163.5 341.667 L2167.87 341.667 L2167.87 345.232 L2163.5 345.232 Q2158.57 345.232 2156.69 343.403 Q2154.82 341.552 2154.82 336.691 L2154.82 322.617 L2151.69 322.617 L2151.69 319.306 L2154.82 319.306 L2154.82 311.945 L2159.1 311.945 Z" fill="#000000" fill-rule="evenodd" fill-opacity="1" /><path clip-path="url(#clip510)" d="M 0 0 M2193.89 329.584 L2193.89 345.232 L2189.63 345.232 L2189.63 329.723 Q2189.63 326.042 2188.2 324.214 Q2186.76 322.385 2183.89 322.385 Q2180.44 322.385 2178.45 324.584 Q2176.46 326.783 2176.46 330.579 L2176.46 345.232 L2172.18 345.232 L2172.18 309.214 L2176.46 309.214 L2176.46 323.334 Q2177.99 320.996 2180.05 319.839 Q2182.13 318.681 2184.84 318.681 Q2189.31 318.681 2191.6 321.459 Q2193.89 324.214 2193.89 329.584 Z" fill="#000000" fill-rule="evenodd" fill-opacity="1" /><polyline clip-path="url(#clip510)" style="stroke:#3da44d; stroke-width:4; stroke-opacity:1; fill:none" points="
  1914.92,388.432 2058.92,388.432 
  "/>
<path clip-path="url(#clip510)" d="M 0 0 M2087.59 389.208 L2087.59 401.87 L2095.09 401.87 Q2098.87 401.87 2100.67 400.319 Q2102.5 398.745 2102.5 395.527 Q2102.5 392.286 2100.67 390.759 Q2098.87 389.208 2095.09 389.208 L2087.59 389.208 M2087.59 374.995 L2087.59 385.411 L2094.52 385.411 Q2097.94 385.411 2099.61 384.138 Q2101.3 382.842 2101.3 380.203 Q2101.3 377.587 2099.61 376.291 Q2097.94 374.995 2094.52 374.995 L2087.59 374.995 M2082.92 371.152 L2094.86 371.152 Q2100.21 371.152 2103.1 373.374 Q2106 375.597 2106 379.694 Q2106 382.865 2104.52 384.74 Q2103.03 386.615 2100.16 387.078 Q2103.61 387.819 2105.51 390.18 Q2107.43 392.518 2107.43 396.036 Q2107.43 400.666 2104.28 403.189 Q2101.14 405.712 2095.33 405.712 L2082.92 405.712 L2082.92 371.152 Z" fill="#000000" fill-rule="evenodd" fill-opacity="1" /><path clip-path="url(#clip510)" d="M 0 0 M2134.08 391.684 L2134.08 393.768 L2114.49 393.768 Q2114.77 398.166 2117.13 400.481 Q2119.52 402.772 2123.75 402.772 Q2126.21 402.772 2128.5 402.17 Q2130.81 401.569 2133.08 400.365 L2133.08 404.393 Q2130.79 405.365 2128.38 405.874 Q2125.97 406.383 2123.5 406.383 Q2117.29 406.383 2113.66 402.772 Q2110.05 399.161 2110.05 393.004 Q2110.05 386.638 2113.47 382.911 Q2116.92 379.161 2122.76 379.161 Q2127.99 379.161 2131.02 382.541 Q2134.08 385.897 2134.08 391.684 M2129.82 390.434 Q2129.77 386.939 2127.85 384.856 Q2125.95 382.772 2122.8 382.772 Q2119.24 382.772 2117.09 384.786 Q2114.96 386.8 2114.63 390.458 L2129.82 390.434 Z" fill="#000000" fill-rule="evenodd" fill-opacity="1" /><path clip-path="url(#clip510)" d="M 0 0 M2155.07 380.55 L2155.07 384.578 Q2153.27 383.652 2151.32 383.189 Q2149.38 382.726 2147.29 382.726 Q2144.12 382.726 2142.52 383.698 Q2140.95 384.671 2140.95 386.615 Q2140.95 388.096 2142.09 388.953 Q2143.22 389.786 2146.65 390.55 L2148.1 390.874 Q2152.64 391.846 2154.54 393.629 Q2156.46 395.388 2156.46 398.559 Q2156.46 402.17 2153.59 404.277 Q2150.74 406.383 2145.74 406.383 Q2143.66 406.383 2141.39 405.967 Q2139.15 405.573 2136.65 404.763 L2136.65 400.365 Q2139.01 401.592 2141.3 402.217 Q2143.59 402.819 2145.84 402.819 Q2148.84 402.819 2150.46 401.8 Q2152.09 400.758 2152.09 398.883 Q2152.09 397.147 2150.9 396.221 Q2149.75 395.296 2145.79 394.439 L2144.31 394.092 Q2140.35 393.258 2138.59 391.546 Q2136.83 389.809 2136.83 386.8 Q2136.83 383.143 2139.42 381.152 Q2142.02 379.161 2146.78 379.161 Q2149.15 379.161 2151.23 379.509 Q2153.31 379.856 2155.07 380.55 Z" fill="#000000" fill-rule="evenodd" fill-opacity="1" /><path clip-path="url(#clip510)" d="M 0 0 M2165.14 372.425 L2165.14 379.786 L2173.91 379.786 L2173.91 383.097 L2165.14 383.097 L2165.14 397.171 Q2165.14 400.342 2166 401.245 Q2166.88 402.147 2169.54 402.147 L2173.91 402.147 L2173.91 405.712 L2169.54 405.712 Q2164.61 405.712 2162.73 403.883 Q2160.86 402.032 2160.86 397.171 L2160.86 383.097 L2157.73 383.097 L2157.73 379.786 L2160.86 379.786 L2160.86 372.425 L2165.14 372.425 Z" fill="#000000" fill-rule="evenodd" fill-opacity="1" /><path clip-path="url(#clip510)" d="M 0 0 M2206.58 369.694 L2206.58 373.235 L2202.5 373.235 Q2200.21 373.235 2199.31 374.161 Q2198.43 375.087 2198.43 377.495 L2198.43 379.786 L2205.44 379.786 L2205.44 383.097 L2198.43 383.097 L2198.43 405.712 L2194.15 405.712 L2194.15 383.097 L2190.07 383.097 L2190.07 379.786 L2194.15 379.786 L2194.15 377.981 Q2194.15 373.652 2196.16 371.685 Q2198.17 369.694 2202.55 369.694 L2206.58 369.694 Z" fill="#000000" fill-rule="evenodd" fill-opacity="1" /><path clip-path="url(#clip510)" d="M 0 0 M2211.04 379.786 L2215.3 379.786 L2215.3 405.712 L2211.04 405.712 L2211.04 379.786 M2211.04 369.694 L2215.3 369.694 L2215.3 375.087 L2211.04 375.087 L2211.04 369.694 Z" fill="#000000" fill-rule="evenodd" fill-opacity="1" /><path clip-path="url(#clip510)" d="M 0 0 M2223.98 372.425 L2223.98 379.786 L2232.76 379.786 L2232.76 383.097 L2223.98 383.097 L2223.98 397.171 Q2223.98 400.342 2224.84 401.245 Q2225.72 402.147 2228.38 402.147 L2232.76 402.147 L2232.76 405.712 L2228.38 405.712 Q2223.45 405.712 2221.58 403.883 Q2219.7 402.032 2219.7 397.171 L2219.7 383.097 L2216.58 383.097 L2216.58 379.786 L2219.7 379.786 L2219.7 372.425 L2223.98 372.425 Z" fill="#000000" fill-rule="evenodd" fill-opacity="1" /></svg>
