<?xml version="1.0" encoding="utf-8"?>
<svg xmlns="http://www.w3.org/2000/svg" xmlns:xlink="http://www.w3.org/1999/xlink" width="600" height="400" viewBox="0 0 2400 1600">
<defs>
  <clipPath id="clip360">
    <rect x="0" y="0" width="2400" height="1600"/>
  </clipPath>
</defs>
<path clip-path="url(#clip360)" d="
M0 1600 L2400 1600 L2400 0 L0 0  Z
  " fill="#ffffff" fill-rule="evenodd" fill-opacity="1"/>
<defs>
  <clipPath id="clip361">
    <rect x="480" y="0" width="1681" height="1600"/>
  </clipPath>
</defs>
<path clip-path="url(#clip360)" d="
M166.205 1486.45 L2352.76 1486.45 L2352.76 123.472 L166.205 123.472  Z
  " fill="#ffffff" fill-rule="evenodd" fill-opacity="1"/>
<defs>
  <clipPath id="clip362">
    <rect x="166" y="123" width="2188" height="1364"/>
  </clipPath>
</defs>
<polyline clip-path="url(#clip362)" style="stroke:#000000; stroke-width:2; stroke-opacity:0.1; fill:none" points="
  228.088,1486.45 228.088,123.472 
  "/>
<polyline clip-path="url(#clip362)" style="stroke:#000000; stroke-width:2; stroke-opacity:0.1; fill:none" points="
  571.886,1486.45 571.886,123.472 
  "/>
<polyline clip-path="url(#clip362)" style="stroke:#000000; stroke-width:2; stroke-opacity:0.1; fill:none" points="
  915.683,1486.45 915.683,123.472 
  "/>
<polyline clip-path="url(#clip362)" style="stroke:#000000; stroke-width:2; stroke-opacity:0.1; fill:none" points="
  1259.48,1486.45 1259.48,123.472 
  "/>
<polyline clip-path="url(#clip362)" style="stroke:#000000; stroke-width:2; stroke-opacity:0.1; fill:none" points="
  1603.28,1486.45 1603.28,123.472 
  "/>
<polyline clip-path="url(#clip362)" style="stroke:#000000; stroke-width:2; stroke-opacity:0.1; fill:none" points="
  1947.08,1486.45 1947.08,123.472 
  "/>
<polyline clip-path="url(#clip362)" style="stroke:#000000; stroke-width:2; stroke-opacity:0.1; fill:none" points="
  2290.87,1486.45 2290.87,123.472 
  "/>
<polyline clip-path="url(#clip362)" style="stroke:#000000; stroke-width:2; stroke-opacity:0.1; fill:none" points="
  166.205,1447.87 2352.76,1447.87 
  "/>
<polyline clip-path="url(#clip362)" style="stroke:#000000; stroke-width:2; stroke-opacity:0.1; fill:none" points="
  166.205,1134.26 2352.76,1134.26 
  "/>
<polyline clip-path="url(#clip362)" style="stroke:#000000; stroke-width:2; stroke-opacity:0.1; fill:none" points="
  166.205,820.641 2352.76,820.641 
  "/>
<polyline clip-path="url(#clip362)" style="stroke:#000000; stroke-width:2; stroke-opacity:0.1; fill:none" points="
  166.205,507.025 2352.76,507.025 
  "/>
<polyline clip-path="url(#clip362)" style="stroke:#000000; stroke-width:2; stroke-opacity:0.1; fill:none" points="
  166.205,193.409 2352.76,193.409 
  "/>
<polyline clip-path="url(#clip360)" style="stroke:#000000; stroke-width:4; stroke-opacity:1; fill:none" points="
  166.205,1486.45 2352.76,1486.45 
  "/>
<polyline clip-path="url(#clip360)" style="stroke:#000000; stroke-width:4; stroke-opacity:1; fill:none" points="
  166.205,1486.45 166.205,123.472 
  "/>
<polyline clip-path="url(#clip360)" style="stroke:#000000; stroke-width:4; stroke-opacity:1; fill:none" points="
  228.088,1486.45 228.088,1470.09 
  "/>
<polyline clip-path="url(#clip360)" style="stroke:#000000; stroke-width:4; stroke-opacity:1; fill:none" points="
  571.886,1486.45 571.886,1470.09 
  "/>
<polyline clip-path="url(#clip360)" style="stroke:#000000; stroke-width:4; stroke-opacity:1; fill:none" points="
  915.683,1486.45 915.683,1470.09 
  "/>
<polyline clip-path="url(#clip360)" style="stroke:#000000; stroke-width:4; stroke-opacity:1; fill:none" points="
  1259.48,1486.45 1259.48,1470.09 
  "/>
<polyline clip-path="url(#clip360)" style="stroke:#000000; stroke-width:4; stroke-opacity:1; fill:none" points="
  1603.28,1486.45 1603.28,1470.09 
  "/>
<polyline clip-path="url(#clip360)" style="stroke:#000000; stroke-width:4; stroke-opacity:1; fill:none" points="
  1947.08,1486.45 1947.08,1470.09 
  "/>
<polyline clip-path="url(#clip360)" style="stroke:#000000; stroke-width:4; stroke-opacity:1; fill:none" points="
  2290.87,1486.45 2290.87,1470.09 
  "/>
<polyline clip-path="url(#clip360)" style="stroke:#000000; stroke-width:4; stroke-opacity:1; fill:none" points="
  166.205,1447.87 192.443,1447.87 
  "/>
<polyline clip-path="url(#clip360)" style="stroke:#000000; stroke-width:4; stroke-opacity:1; fill:none" points="
  166.205,1134.26 192.443,1134.26 
  "/>
<polyline clip-path="url(#clip360)" style="stroke:#000000; stroke-width:4; stroke-opacity:1; fill:none" points="
  166.205,820.641 192.443,820.641 
  "/>
<polyline clip-path="url(#clip360)" style="stroke:#000000; stroke-width:4; stroke-opacity:1; fill:none" points="
  166.205,507.025 192.443,507.025 
  "/>
<polyline clip-path="url(#clip360)" style="stroke:#000000; stroke-width:4; stroke-opacity:1; fill:none" points="
  166.205,193.409 192.443,193.409 
  "/>
<path clip-path="url(#clip360)" d="M 0 0 M209.142 1525.04 L221.618 1525.04 L221.618 1528.83 L209.142 1528.83 L209.142 1525.04 Z" fill="#000000" fill-rule="evenodd" fill-opacity="1" /><path clip-path="url(#clip360)" d="M 0 0 M230.715 1535.98 L247.035 1535.98 L247.035 1539.92 L225.091 1539.92 L225.091 1535.98 Q227.753 1533.23 232.336 1528.6 Q236.942 1523.95 238.123 1522.61 Q240.368 1520.08 241.248 1518.35 Q242.151 1516.59 242.151 1514.9 Q242.151 1512.14 240.206 1510.41 Q238.285 1508.67 235.183 1508.67 Q232.984 1508.67 230.53 1509.43 Q228.1 1510.2 225.322 1511.75 L225.322 1507.03 Q228.146 1505.89 230.6 1505.31 Q233.053 1504.73 235.09 1504.73 Q240.461 1504.73 243.655 1507.42 Q246.85 1510.11 246.85 1514.6 Q246.85 1516.73 246.039 1518.65 Q245.252 1520.54 243.146 1523.14 Q242.567 1523.81 239.465 1527.03 Q236.364 1530.22 230.715 1535.98 Z" fill="#000000" fill-rule="evenodd" fill-opacity="1" /><path clip-path="url(#clip360)" d="M 0 0 M552.754 1525.04 L565.23 1525.04 L565.23 1528.83 L552.754 1528.83 L552.754 1525.04 Z" fill="#000000" fill-rule="evenodd" fill-opacity="1" /><path clip-path="url(#clip360)" d="M 0 0 M571.11 1535.98 L578.749 1535.98 L578.749 1509.62 L570.439 1511.29 L570.439 1507.03 L578.703 1505.36 L583.379 1505.36 L583.379 1535.98 L591.017 1535.98 L591.017 1539.92 L571.11 1539.92 L571.11 1535.98 Z" fill="#000000" fill-rule="evenodd" fill-opacity="1" /><path clip-path="url(#clip360)" d="M 0 0 M915.683 1508.44 Q912.072 1508.44 910.243 1512 Q908.438 1515.55 908.438 1522.67 Q908.438 1529.78 910.243 1533.35 Q912.072 1536.89 915.683 1536.89 Q919.317 1536.89 921.123 1533.35 Q922.951 1529.78 922.951 1522.67 Q922.951 1515.55 921.123 1512 Q919.317 1508.44 915.683 1508.44 M915.683 1504.73 Q921.493 1504.73 924.549 1509.34 Q927.627 1513.92 927.627 1522.67 Q927.627 1531.4 924.549 1536.01 Q921.493 1540.59 915.683 1540.59 Q909.873 1540.59 906.794 1536.01 Q903.739 1531.4 903.739 1522.67 Q903.739 1513.92 906.794 1509.34 Q909.873 1504.73 915.683 1504.73 Z" fill="#000000" fill-rule="evenodd" fill-opacity="1" /><path clip-path="url(#clip360)" d="M 0 0 M1249.86 1535.98 L1257.5 1535.98 L1257.5 1509.62 L1249.19 1511.29 L1249.19 1507.03 L1257.45 1505.36 L1262.13 1505.36 L1262.13 1535.98 L1269.77 1535.98 L1269.77 1539.92 L1249.86 1539.92 L1249.86 1535.98 Z" fill="#000000" fill-rule="evenodd" fill-opacity="1" /><path clip-path="url(#clip360)" d="M 0 0 M1597.93 1535.98 L1614.25 1535.98 L1614.25 1539.92 L1592.31 1539.92 L1592.31 1535.98 Q1594.97 1533.23 1599.55 1528.6 Q1604.16 1523.95 1605.34 1522.61 Q1607.58 1520.08 1608.46 1518.35 Q1609.37 1516.59 1609.37 1514.9 Q1609.37 1512.14 1607.42 1510.41 Q1605.5 1508.67 1602.4 1508.67 Q1600.2 1508.67 1597.75 1509.43 Q1595.31 1510.2 1592.54 1511.75 L1592.54 1507.03 Q1595.36 1505.89 1597.81 1505.31 Q1600.27 1504.73 1602.31 1504.73 Q1607.68 1504.73 1610.87 1507.42 Q1614.06 1510.11 1614.06 1514.6 Q1614.06 1516.73 1613.25 1518.65 Q1612.47 1520.54 1610.36 1523.14 Q1609.78 1523.81 1606.68 1527.03 Q1603.58 1530.22 1597.93 1535.98 Z" fill="#000000" fill-rule="evenodd" fill-opacity="1" /><path clip-path="url(#clip360)" d="M 0 0 M1951.32 1521.29 Q1954.68 1522 1956.55 1524.27 Q1958.45 1526.54 1958.45 1529.87 Q1958.45 1534.99 1954.93 1537.79 Q1951.42 1540.59 1944.93 1540.59 Q1942.76 1540.59 1940.44 1540.15 Q1938.15 1539.73 1935.7 1538.88 L1935.7 1534.36 Q1937.64 1535.5 1939.96 1536.08 Q1942.27 1536.66 1944.79 1536.66 Q1949.19 1536.66 1951.48 1534.92 Q1953.8 1533.18 1953.8 1529.87 Q1953.8 1526.82 1951.65 1525.11 Q1949.52 1523.37 1945.7 1523.37 L1941.67 1523.37 L1941.67 1519.53 L1945.88 1519.53 Q1949.33 1519.53 1951.16 1518.16 Q1952.99 1516.77 1952.99 1514.18 Q1952.99 1511.52 1951.09 1510.11 Q1949.22 1508.67 1945.7 1508.67 Q1943.78 1508.67 1941.58 1509.09 Q1939.38 1509.5 1936.74 1510.38 L1936.74 1506.22 Q1939.4 1505.48 1941.72 1505.11 Q1944.05 1504.73 1946.11 1504.73 Q1951.44 1504.73 1954.54 1507.17 Q1957.64 1509.57 1957.64 1513.69 Q1957.64 1516.56 1956 1518.55 Q1954.36 1520.52 1951.32 1521.29 Z" fill="#000000" fill-rule="evenodd" fill-opacity="1" /><path clip-path="url(#clip360)" d="M 0 0 M2293.88 1509.43 L2282.08 1527.88 L2293.88 1527.88 L2293.88 1509.43 M2292.65 1505.36 L2298.53 1505.36 L2298.53 1527.88 L2303.46 1527.88 L2303.46 1531.77 L2298.53 1531.77 L2298.53 1539.92 L2293.88 1539.92 L2293.88 1531.77 L2278.28 1531.77 L2278.28 1527.26 L2292.65 1505.36 Z" fill="#000000" fill-rule="evenodd" fill-opacity="1" /><path clip-path="url(#clip360)" d="M 0 0 M130.26 1433.67 Q126.649 1433.67 124.82 1437.24 Q123.015 1440.78 123.015 1447.91 Q123.015 1455.01 124.82 1458.58 Q126.649 1462.12 130.26 1462.12 Q133.895 1462.12 135.7 1458.58 Q137.529 1455.01 137.529 1447.91 Q137.529 1440.78 135.7 1437.24 Q133.895 1433.67 130.26 1433.67 M130.26 1429.97 Q136.07 1429.97 139.126 1434.57 Q142.205 1439.16 142.205 1447.91 Q142.205 1456.63 139.126 1461.24 Q136.07 1465.82 130.26 1465.82 Q124.45 1465.82 121.371 1461.24 Q118.316 1456.63 118.316 1447.91 Q118.316 1439.16 121.371 1434.57 Q124.45 1429.97 130.26 1429.97 Z" fill="#000000" fill-rule="evenodd" fill-opacity="1" /><path clip-path="url(#clip360)" d="M 0 0 M71.8578 1147.6 L88.1772 1147.6 L88.1772 1151.54 L66.2328 1151.54 L66.2328 1147.6 Q68.8949 1144.85 73.4782 1140.22 Q78.0846 1135.56 79.2652 1134.22 Q81.5105 1131.7 82.3902 1129.96 Q83.2929 1128.2 83.2929 1126.51 Q83.2929 1123.76 81.3485 1122.02 Q79.4272 1120.29 76.3254 1120.29 Q74.1263 1120.29 71.6726 1121.05 Q69.2421 1121.81 66.4643 1123.37 L66.4643 1118.64 Q69.2884 1117.51 71.7421 1116.93 Q74.1958 1116.35 76.2328 1116.35 Q81.6031 1116.35 84.7976 1119.04 Q87.992 1121.72 87.992 1126.21 Q87.992 1128.34 87.1818 1130.26 Q86.3948 1132.16 84.2883 1134.75 Q83.7096 1135.43 80.6078 1138.64 Q77.5059 1141.84 71.8578 1147.6 Z" fill="#000000" fill-rule="evenodd" fill-opacity="1" /><path clip-path="url(#clip360)" d="M 0 0 M103.247 1120.06 Q99.6354 1120.06 97.8068 1123.62 Q96.0012 1127.16 96.0012 1134.29 Q96.0012 1141.4 97.8068 1144.96 Q99.6354 1148.5 103.247 1148.5 Q106.881 1148.5 108.686 1144.96 Q110.515 1141.4 110.515 1134.29 Q110.515 1127.16 108.686 1123.62 Q106.881 1120.06 103.247 1120.06 M103.247 1116.35 Q109.057 1116.35 112.112 1120.96 Q115.191 1125.54 115.191 1134.29 Q115.191 1143.02 112.112 1147.62 Q109.057 1152.21 103.247 1152.21 Q97.4364 1152.21 94.3577 1147.62 Q91.3022 1143.02 91.3022 1134.29 Q91.3022 1125.54 94.3577 1120.96 Q97.4364 1116.35 103.247 1116.35 Z" fill="#000000" fill-rule="evenodd" fill-opacity="1" /><path clip-path="url(#clip360)" d="M 0 0 M130.26 1120.06 Q126.649 1120.06 124.82 1123.62 Q123.015 1127.16 123.015 1134.29 Q123.015 1141.4 124.82 1144.96 Q126.649 1148.5 130.26 1148.5 Q133.895 1148.5 135.7 1144.96 Q137.529 1141.4 137.529 1134.29 Q137.529 1127.16 135.7 1123.62 Q133.895 1120.06 130.26 1120.06 M130.26 1116.35 Q136.07 1116.35 139.126 1120.96 Q142.205 1125.54 142.205 1134.29 Q142.205 1143.02 139.126 1147.62 Q136.07 1152.21 130.26 1152.21 Q124.45 1152.21 121.371 1147.62 Q118.316 1143.02 118.316 1134.29 Q118.316 1125.54 121.371 1120.96 Q124.45 1116.35 130.26 1116.35 Z" fill="#000000" fill-rule="evenodd" fill-opacity="1" /><path clip-path="url(#clip360)" d="M 0 0 M78.5939 807.435 L66.7884 825.884 L78.5939 825.884 L78.5939 807.435 M77.367 803.361 L83.2466 803.361 L83.2466 825.884 L88.1772 825.884 L88.1772 829.773 L83.2466 829.773 L83.2466 837.921 L78.5939 837.921 L78.5939 829.773 L62.9921 829.773 L62.9921 825.259 L77.367 803.361 Z" fill="#000000" fill-rule="evenodd" fill-opacity="1" /><path clip-path="url(#clip360)" d="M 0 0 M103.247 806.439 Q99.6354 806.439 97.8068 810.004 Q96.0012 813.546 96.0012 820.676 Q96.0012 827.782 97.8068 831.347 Q99.6354 834.888 103.247 834.888 Q106.881 834.888 108.686 831.347 Q110.515 827.782 110.515 820.676 Q110.515 813.546 108.686 810.004 Q106.881 806.439 103.247 806.439 M103.247 802.736 Q109.057 802.736 112.112 807.342 Q115.191 811.926 115.191 820.676 Q115.191 829.402 112.112 834.009 Q109.057 838.592 103.247 838.592 Q97.4364 838.592 94.3577 834.009 Q91.3022 829.402 91.3022 820.676 Q91.3022 811.926 94.3577 807.342 Q97.4364 802.736 103.247 802.736 Z" fill="#000000" fill-rule="evenodd" fill-opacity="1" /><path clip-path="url(#clip360)" d="M 0 0 M130.26 806.439 Q126.649 806.439 124.82 810.004 Q123.015 813.546 123.015 820.676 Q123.015 827.782 124.82 831.347 Q126.649 834.888 130.26 834.888 Q133.895 834.888 135.7 831.347 Q137.529 827.782 137.529 820.676 Q137.529 813.546 135.7 810.004 Q133.895 806.439 130.26 806.439 M130.26 802.736 Q136.07 802.736 139.126 807.342 Q142.205 811.926 142.205 820.676 Q142.205 829.402 139.126 834.009 Q136.07 838.592 130.26 838.592 Q124.45 838.592 121.371 834.009 Q118.316 829.402 118.316 820.676 Q118.316 811.926 121.371 807.342 Q124.45 802.736 130.26 802.736 Z" fill="#000000" fill-rule="evenodd" fill-opacity="1" /><path clip-path="url(#clip360)" d="M 0 0 M76.6495 505.161 Q73.5013 505.161 71.6495 507.314 Q69.8208 509.467 69.8208 513.217 Q69.8208 516.944 71.6495 519.12 Q73.5013 521.272 76.6495 521.272 Q79.7976 521.272 81.6263 519.12 Q83.4781 516.944 83.4781 513.217 Q83.4781 509.467 81.6263 507.314 Q79.7976 505.161 76.6495 505.161 M85.9318 490.509 L85.9318 494.768 Q84.1726 493.934 82.367 493.495 Q80.5846 493.055 78.8254 493.055 Q74.1958 493.055 71.7421 496.18 Q69.3115 499.305 68.9643 505.624 Q70.33 503.61 72.3902 502.546 Q74.4504 501.458 76.9272 501.458 Q82.1355 501.458 85.1448 504.629 Q88.1772 507.777 88.1772 513.217 Q88.1772 518.541 85.029 521.758 Q81.8809 524.976 76.6495 524.976 Q70.6541 524.976 67.4828 520.393 Q64.3116 515.786 64.3116 507.059 Q64.3116 498.865 68.2004 494.004 Q72.0893 489.12 78.6402 489.12 Q80.3994 489.12 82.1818 489.467 Q83.9874 489.814 85.9318 490.509 Z" fill="#000000" fill-rule="evenodd" fill-opacity="1" /><path clip-path="url(#clip360)" d="M 0 0 M103.247 492.823 Q99.6354 492.823 97.8068 496.388 Q96.0012 499.93 96.0012 507.059 Q96.0012 514.166 97.8068 517.731 Q99.6354 521.272 103.247 521.272 Q106.881 521.272 108.686 517.731 Q110.515 514.166 110.515 507.059 Q110.515 499.93 108.686 496.388 Q106.881 492.823 103.247 492.823 M103.247 489.12 Q109.057 489.12 112.112 493.726 Q115.191 498.309 115.191 507.059 Q115.191 515.786 112.112 520.393 Q109.057 524.976 103.247 524.976 Q97.4364 524.976 94.3577 520.393 Q91.3022 515.786 91.3022 507.059 Q91.3022 498.309 94.3577 493.726 Q97.4364 489.12 103.247 489.12 Z" fill="#000000" fill-rule="evenodd" fill-opacity="1" /><path clip-path="url(#clip360)" d="M 0 0 M130.26 492.823 Q126.649 492.823 124.82 496.388 Q123.015 499.93 123.015 507.059 Q123.015 514.166 124.82 517.731 Q126.649 521.272 130.26 521.272 Q133.895 521.272 135.7 517.731 Q137.529 514.166 137.529 507.059 Q137.529 499.93 135.7 496.388 Q133.895 492.823 130.26 492.823 M130.26 489.12 Q136.07 489.12 139.126 493.726 Q142.205 498.309 142.205 507.059 Q142.205 515.786 139.126 520.393 Q136.07 524.976 130.26 524.976 Q124.45 524.976 121.371 520.393 Q118.316 515.786 118.316 507.059 Q118.316 498.309 121.371 493.726 Q124.45 489.12 130.26 489.12 Z" fill="#000000" fill-rule="evenodd" fill-opacity="1" /><path clip-path="url(#clip360)" d="M 0 0 M76.3254 194.277 Q72.9921 194.277 71.0708 196.059 Q69.1726 197.841 69.1726 200.966 Q69.1726 204.091 71.0708 205.874 Q72.9921 207.656 76.3254 207.656 Q79.6587 207.656 81.58 205.874 Q83.5013 204.068 83.5013 200.966 Q83.5013 197.841 81.58 196.059 Q79.6819 194.277 76.3254 194.277 M71.6495 192.286 Q68.6402 191.545 66.9504 189.485 Q65.2838 187.425 65.2838 184.462 Q65.2838 180.318 68.2236 177.911 Q71.1865 175.504 76.3254 175.504 Q81.4874 175.504 84.4272 177.911 Q87.367 180.318 87.367 184.462 Q87.367 187.425 85.6772 189.485 Q84.0105 191.545 81.0244 192.286 Q84.404 193.073 86.279 195.365 Q88.1772 197.656 88.1772 200.966 Q88.1772 205.989 85.0985 208.675 Q82.0429 211.36 76.3254 211.36 Q70.6078 211.36 67.5291 208.675 Q64.4736 205.989 64.4736 200.966 Q64.4736 197.656 66.3717 195.365 Q68.2699 193.073 71.6495 192.286 M69.9365 184.902 Q69.9365 187.587 71.6032 189.091 Q73.293 190.596 76.3254 190.596 Q79.3346 190.596 81.0244 189.091 Q82.7374 187.587 82.7374 184.902 Q82.7374 182.216 81.0244 180.712 Q79.3346 179.207 76.3254 179.207 Q73.293 179.207 71.6032 180.712 Q69.9365 182.216 69.9365 184.902 Z" fill="#000000" fill-rule="evenodd" fill-opacity="1" /><path clip-path="url(#clip360)" d="M 0 0 M103.247 179.207 Q99.6354 179.207 97.8068 182.772 Q96.0012 186.314 96.0012 193.443 Q96.0012 200.55 97.8068 204.114 Q99.6354 207.656 103.247 207.656 Q106.881 207.656 108.686 204.114 Q110.515 200.55 110.515 193.443 Q110.515 186.314 108.686 182.772 Q106.881 179.207 103.247 179.207 M103.247 175.504 Q109.057 175.504 112.112 180.11 Q115.191 184.693 115.191 193.443 Q115.191 202.17 112.112 206.777 Q109.057 211.36 103.247 211.36 Q97.4364 211.36 94.3577 206.777 Q91.3022 202.17 91.3022 193.443 Q91.3022 184.693 94.3577 180.11 Q97.4364 175.504 103.247 175.504 Z" fill="#000000" fill-rule="evenodd" fill-opacity="1" /><path clip-path="url(#clip360)" d="M 0 0 M130.26 179.207 Q126.649 179.207 124.82 182.772 Q123.015 186.314 123.015 193.443 Q123.015 200.55 124.82 204.114 Q126.649 207.656 130.26 207.656 Q133.895 207.656 135.7 204.114 Q137.529 200.55 137.529 193.443 Q137.529 186.314 135.7 182.772 Q133.895 179.207 130.26 179.207 M130.26 175.504 Q136.07 175.504 139.126 180.11 Q142.205 184.693 142.205 193.443 Q142.205 202.17 139.126 206.777 Q136.07 211.36 130.26 211.36 Q124.45 211.36 121.371 206.777 Q118.316 202.17 118.316 193.443 Q118.316 184.693 121.371 180.11 Q124.45 175.504 130.26 175.504 Z" fill="#000000" fill-rule="evenodd" fill-opacity="1" /><path clip-path="url(#clip360)" d="M 0 0 M1183.67 18.8205 L1183.67 65.8515 L1193.55 65.8515 Q1206.07 65.8515 1211.86 60.1802 Q1217.7 54.509 1217.7 42.2752 Q1217.7 30.1225 1211.86 24.4918 Q1206.07 18.8205 1193.55 18.8205 L1183.67 18.8205 M1175.48 12.096 L1192.3 12.096 Q1209.88 12.096 1218.1 19.4281 Q1226.32 26.7198 1226.32 42.2752 Q1226.32 57.9117 1218.06 65.2439 Q1209.8 72.576 1192.3 72.576 L1175.48 72.576 L1175.48 12.096 Z" fill="#000000" fill-rule="evenodd" fill-opacity="1" /><path clip-path="url(#clip360)" d="M 0 0 M1254.76 49.7694 Q1245.73 49.7694 1242.24 51.8354 Q1238.76 53.9013 1238.76 58.8839 Q1238.76 62.8538 1241.35 65.2034 Q1243.99 67.5124 1248.48 67.5124 Q1254.68 67.5124 1258.41 63.1374 Q1262.17 58.7219 1262.17 51.4303 L1262.17 49.7694 L1254.76 49.7694 M1269.63 46.6907 L1269.63 72.576 L1262.17 72.576 L1262.17 65.6895 Q1259.62 69.8214 1255.81 71.8063 Q1252.01 73.7508 1246.5 73.7508 Q1239.53 73.7508 1235.4 69.8619 Q1231.31 65.9325 1231.31 59.3701 Q1231.31 51.7138 1236.41 47.825 Q1241.56 43.9361 1251.72 43.9361 L1262.17 43.9361 L1262.17 43.2069 Q1262.17 38.0623 1258.77 35.2672 Q1255.41 32.4315 1249.29 32.4315 Q1245.4 32.4315 1241.72 33.3632 Q1238.03 34.295 1234.63 36.1584 L1234.63 29.2718 Q1238.72 27.692 1242.57 26.9223 Q1246.42 26.1121 1250.06 26.1121 Q1259.91 26.1121 1264.77 31.2163 Q1269.63 36.3204 1269.63 46.6907 Z" fill="#000000" fill-rule="evenodd" fill-opacity="1" /><path clip-path="url(#clip360)" d="M 0 0 M1284.82 14.324 L1284.82 27.2059 L1300.17 27.2059 L1300.17 32.9987 L1284.82 32.9987 L1284.82 57.6282 Q1284.82 63.1779 1286.32 64.7578 Q1287.86 66.3376 1292.52 66.3376 L1300.17 66.3376 L1300.17 72.576 L1292.52 72.576 Q1283.89 72.576 1280.61 69.3758 Q1277.32 66.1351 1277.32 57.6282 L1277.32 32.9987 L1271.86 32.9987 L1271.86 27.2059 L1277.32 27.2059 L1277.32 14.324 L1284.82 14.324 Z" fill="#000000" fill-rule="evenodd" fill-opacity="1" /><path clip-path="url(#clip360)" d="M 0 0 M1328.61 49.7694 Q1319.58 49.7694 1316.09 51.8354 Q1312.61 53.9013 1312.61 58.8839 Q1312.61 62.8538 1315.2 65.2034 Q1317.83 67.5124 1322.33 67.5124 Q1328.53 67.5124 1332.25 63.1374 Q1336.02 58.7219 1336.02 51.4303 L1336.02 49.7694 L1328.61 49.7694 M1343.48 46.6907 L1343.48 72.576 L1336.02 72.576 L1336.02 65.6895 Q1333.47 69.8214 1329.66 71.8063 Q1325.85 73.7508 1320.35 73.7508 Q1313.38 73.7508 1309.25 69.8619 Q1305.15 65.9325 1305.15 59.3701 Q1305.15 51.7138 1310.26 47.825 Q1315.4 43.9361 1325.57 43.9361 L1336.02 43.9361 L1336.02 43.2069 Q1336.02 38.0623 1332.62 35.2672 Q1329.26 32.4315 1323.14 32.4315 Q1319.25 32.4315 1315.57 33.3632 Q1311.88 34.295 1308.48 36.1584 L1308.48 29.2718 Q1312.57 27.692 1316.42 26.9223 Q1320.26 26.1121 1323.91 26.1121 Q1333.75 26.1121 1338.61 31.2163 Q1343.48 36.3204 1343.48 46.6907 Z" fill="#000000" fill-rule="evenodd" fill-opacity="1" /><polyline clip-path="url(#clip362)" style="stroke:#009af9; stroke-width:4; stroke-opacity:1; fill:none" points="
  228.088,1447.87 228.088,1353.79 262.468,1353.79 262.468,1275.38 296.848,1275.38 296.848,1322.43 331.227,1322.43 331.227,1008.81 365.607,1008.81 365.607,1040.17 
  399.987,1040.17 399.987,1102.9 434.367,1102.9 434.367,1055.85 468.746,1055.85 468.746,836.322 503.126,836.322 503.126,789.279 537.506,789.279 537.506,883.364 
  571.886,883.364 571.886,789.279 606.265,789.279 606.265,1087.21 640.645,1087.21 640.645,836.322 675.025,836.322 709.405,836.322 709.405,1055.85 
  743.784,1055.85 743.784,1071.53 778.164,1071.53 778.164,1181.3 812.544,1181.3 812.544,1369.47 846.923,1369.47 846.923,1275.38 881.303,1275.38 881.303,1338.11 
  915.683,1338.11 915.683,1369.47 950.063,1369.47 950.063,1416.51 984.442,1416.51 984.442,1385.15 1018.82,1385.15 1018.82,1432.19 1053.2,1432.19 
  1087.58,1432.19 1087.58,1400.83 1121.96,1400.83 1156.34,1400.83 1156.34,1432.19 1190.72,1432.19 1190.72,1353.79 1225.1,1353.79 1225.1,1259.7 
  1259.48,1259.7 1259.48,1228.34 1293.86,1228.34 1293.86,1165.62 1328.24,1165.62 1328.24,993.13 1362.62,993.13 1362.62,1008.81 1397,1008.81 1397,773.598 
  1431.38,773.598 1431.38,616.79 1465.76,616.79 1465.76,381.578 1500.14,381.578 1500.14,397.259 1534.52,397.259 1534.52,193.409 1568.9,193.409 1568.9,209.089 
  1603.28,209.089 1603.28,162.047 1637.66,162.047 1672.04,162.047 1672.04,318.855 1706.42,318.855 1706.42,397.259 1740.8,397.259 1740.8,569.748 
  1775.18,569.748 1775.18,852.002 1809.56,852.002 1809.56,977.449 1843.94,977.449 1843.94,1040.17 1878.32,1040.17 1878.32,1196.98 1912.7,1196.98 1912.7,1275.38 
  1947.08,1275.38 1947.08,1322.43 1981.45,1322.43 1981.45,1385.15 2015.83,1385.15 2015.83,1416.51 2050.21,1416.51 2050.21,1447.87 2084.59,1447.87 2084.59,1432.19 
  2118.97,1432.19 2118.97,1447.87 2153.35,1447.87 2187.73,1447.87 2222.11,1447.87 2256.49,1447.87 
  2290.87,1447.87 
  "/>
<path clip-path="url(#clip360)" d="
M1944.76 327.952 L2280.76 327.952 L2280.76 206.992 L1944.76 206.992  Z
  " fill="#ffffff" fill-rule="evenodd" fill-opacity="1"/>
<polyline clip-path="url(#clip360)" style="stroke:#000000; stroke-width:4; stroke-opacity:1; fill:none" points="
  1944.76,327.952 2280.76,327.952 2280.76,206.992 1944.76,206.992 1944.76,327.952 
  "/>
<polyline clip-path="url(#clip360)" style="stroke:#009af9; stroke-width:4; stroke-opacity:1; fill:none" points="
  1968.76,267.472 2112.76,267.472 
  "/>
<path clip-path="url(#clip360)" d="M 0 0 M2141.44 254.035 L2141.44 280.91 L2147.09 280.91 Q2154.24 280.91 2157.55 277.669 Q2160.88 274.428 2160.88 267.437 Q2160.88 260.493 2157.55 257.275 Q2154.24 254.035 2147.09 254.035 L2141.44 254.035 M2136.76 250.192 L2146.37 250.192 Q2156.41 250.192 2161.11 254.382 Q2165.81 258.549 2165.81 267.437 Q2165.81 276.373 2161.09 280.562 Q2156.37 284.752 2146.37 284.752 L2136.76 284.752 L2136.76 250.192 Z" fill="#000000" fill-rule="evenodd" fill-opacity="1" /><path clip-path="url(#clip360)" d="M 0 0 M2182.06 271.72 Q2176.9 271.72 2174.91 272.9 Q2172.92 274.081 2172.92 276.928 Q2172.92 279.197 2174.4 280.539 Q2175.9 281.859 2178.47 281.859 Q2182.02 281.859 2184.15 279.359 Q2186.3 276.836 2186.3 272.669 L2186.3 271.72 L2182.06 271.72 M2190.56 269.961 L2190.56 284.752 L2186.3 284.752 L2186.3 280.817 Q2184.84 283.178 2182.66 284.312 Q2180.49 285.423 2177.34 285.423 Q2173.36 285.423 2171 283.201 Q2168.66 280.956 2168.66 277.206 Q2168.66 272.831 2171.58 270.609 Q2174.52 268.386 2180.33 268.386 L2186.3 268.386 L2186.3 267.97 Q2186.3 265.03 2184.35 263.433 Q2182.43 261.812 2178.94 261.812 Q2176.71 261.812 2174.61 262.345 Q2172.5 262.877 2170.56 263.942 L2170.56 260.007 Q2172.9 259.104 2175.09 258.664 Q2177.29 258.201 2179.38 258.201 Q2185 258.201 2187.78 261.118 Q2190.56 264.035 2190.56 269.961 Z" fill="#000000" fill-rule="evenodd" fill-opacity="1" /><path clip-path="url(#clip360)" d="M 0 0 M2199.24 251.465 L2199.24 258.826 L2208.01 258.826 L2208.01 262.137 L2199.24 262.137 L2199.24 276.211 Q2199.24 279.382 2200.09 280.285 Q2200.97 281.187 2203.64 281.187 L2208.01 281.187 L2208.01 284.752 L2203.64 284.752 Q2198.71 284.752 2196.83 282.923 Q2194.96 281.072 2194.96 276.211 L2194.96 262.137 L2191.83 262.137 L2191.83 258.826 L2194.96 258.826 L2194.96 251.465 L2199.24 251.465 Z" fill="#000000" fill-rule="evenodd" fill-opacity="1" /><path clip-path="url(#clip360)" d="M 0 0 M2224.26 271.72 Q2219.1 271.72 2217.11 272.9 Q2215.12 274.081 2215.12 276.928 Q2215.12 279.197 2216.6 280.539 Q2218.1 281.859 2220.67 281.859 Q2224.21 281.859 2226.34 279.359 Q2228.5 276.836 2228.5 272.669 L2228.5 271.72 L2224.26 271.72 M2232.76 269.961 L2232.76 284.752 L2228.5 284.752 L2228.5 280.817 Q2227.04 283.178 2224.86 284.312 Q2222.69 285.423 2219.54 285.423 Q2215.56 285.423 2213.2 283.201 Q2210.86 280.956 2210.86 277.206 Q2210.86 272.831 2213.77 270.609 Q2216.71 268.386 2222.52 268.386 L2228.5 268.386 L2228.5 267.97 Q2228.5 265.03 2226.55 263.433 Q2224.63 261.812 2221.14 261.812 Q2218.91 261.812 2216.81 262.345 Q2214.7 262.877 2212.76 263.942 L2212.76 260.007 Q2215.09 259.104 2217.29 258.664 Q2219.49 258.201 2221.58 258.201 Q2227.2 258.201 2229.98 261.118 Q2232.76 264.035 2232.76 269.961 Z" fill="#000000" fill-rule="evenodd" fill-opacity="1" /></svg>
