<?xml version="1.0" encoding="utf-8"?>
<svg xmlns="http://www.w3.org/2000/svg" xmlns:xlink="http://www.w3.org/1999/xlink" width="600" height="400" viewBox="0 0 2400 1600">
<defs>
  <clipPath id="clip1100">
    <rect x="0" y="0" width="2400" height="1600"/>
  </clipPath>
</defs>
<path clip-path="url(#clip1100)" d="
M0 1600 L2400 1600 L2400 0 L0 0  Z
  " fill="#ffffff" fill-rule="evenodd" fill-opacity="1"/>
<defs>
  <clipPath id="clip1101">
    <rect x="480" y="0" width="1681" height="1600"/>
  </clipPath>
</defs>
<path clip-path="url(#clip1100)" d="
M202.373 1425.62 L2352.76 1425.62 L2352.76 121.675 L202.373 121.675  Z
  " fill="#ffffff" fill-rule="evenodd" fill-opacity="1"/>
<defs>
  <clipPath id="clip1102">
    <rect x="202" y="121" width="2151" height="1305"/>
  </clipPath>
</defs>
<polyline clip-path="url(#clip1102)" style="stroke:#000000; stroke-width:2; stroke-opacity:0.1; fill:none" points="
  539.869,1425.62 539.869,121.675 
  "/>
<polyline clip-path="url(#clip1102)" style="stroke:#000000; stroke-width:2; stroke-opacity:0.1; fill:none" points="
  1000.93,1425.62 1000.93,121.675 
  "/>
<polyline clip-path="url(#clip1102)" style="stroke:#000000; stroke-width:2; stroke-opacity:0.1; fill:none" points="
  1461.99,1425.62 1461.99,121.675 
  "/>
<polyline clip-path="url(#clip1102)" style="stroke:#000000; stroke-width:2; stroke-opacity:0.1; fill:none" points="
  1923.05,1425.62 1923.05,121.675 
  "/>
<polyline clip-path="url(#clip1102)" style="stroke:#000000; stroke-width:2; stroke-opacity:0.1; fill:none" points="
  202.373,1388.71 2352.76,1388.71 
  "/>
<polyline clip-path="url(#clip1102)" style="stroke:#000000; stroke-width:2; stroke-opacity:0.1; fill:none" points="
  202.373,1020.56 2352.76,1020.56 
  "/>
<polyline clip-path="url(#clip1102)" style="stroke:#000000; stroke-width:2; stroke-opacity:0.1; fill:none" points="
  202.373,652.409 2352.76,652.409 
  "/>
<polyline clip-path="url(#clip1102)" style="stroke:#000000; stroke-width:2; stroke-opacity:0.1; fill:none" points="
  202.373,284.257 2352.76,284.257 
  "/>
<polyline clip-path="url(#clip1100)" style="stroke:#000000; stroke-width:4; stroke-opacity:1; fill:none" points="
  202.373,1425.62 2352.76,1425.62 
  "/>
<polyline clip-path="url(#clip1100)" style="stroke:#000000; stroke-width:4; stroke-opacity:1; fill:none" points="
  202.373,1425.62 202.373,121.675 
  "/>
<polyline clip-path="url(#clip1100)" style="stroke:#000000; stroke-width:4; stroke-opacity:1; fill:none" points="
  539.869,1425.62 539.869,1406.06 
  "/>
<polyline clip-path="url(#clip1100)" style="stroke:#000000; stroke-width:4; stroke-opacity:1; fill:none" points="
  1000.93,1425.62 1000.93,1406.06 
  "/>
<polyline clip-path="url(#clip1100)" style="stroke:#000000; stroke-width:4; stroke-opacity:1; fill:none" points="
  1461.99,1425.62 1461.99,1406.06 
  "/>
<polyline clip-path="url(#clip1100)" style="stroke:#000000; stroke-width:4; stroke-opacity:1; fill:none" points="
  1923.05,1425.62 1923.05,1406.06 
  "/>
<polyline clip-path="url(#clip1100)" style="stroke:#000000; stroke-width:4; stroke-opacity:1; fill:none" points="
  202.373,1388.71 234.629,1388.71 
  "/>
<polyline clip-path="url(#clip1100)" style="stroke:#000000; stroke-width:4; stroke-opacity:1; fill:none" points="
  202.373,1020.56 234.629,1020.56 
  "/>
<polyline clip-path="url(#clip1100)" style="stroke:#000000; stroke-width:4; stroke-opacity:1; fill:none" points="
  202.373,652.409 234.629,652.409 
  "/>
<polyline clip-path="url(#clip1100)" style="stroke:#000000; stroke-width:4; stroke-opacity:1; fill:none" points="
  202.373,284.257 234.629,284.257 
  "/>
<g clip-path="url(#clip1100)">
<text style="fill:#000000; fill-opacity:1; font-family:Arial,Helvetica Neue,Helvetica,sans-serif; font-size:48px; text-anchor:middle;" transform="rotate(0, 539.869, 1479.62)" x="539.869" y="1479.62">-1.10</text>
</g>
<g clip-path="url(#clip1100)">
<text style="fill:#000000; fill-opacity:1; font-family:Arial,Helvetica Neue,Helvetica,sans-serif; font-size:48px; text-anchor:middle;" transform="rotate(0, 1000.93, 1479.62)" x="1000.93" y="1479.62">-1.05</text>
</g>
<g clip-path="url(#clip1100)">
<text style="fill:#000000; fill-opacity:1; font-family:Arial,Helvetica Neue,Helvetica,sans-serif; font-size:48px; text-anchor:middle;" transform="rotate(0, 1461.99, 1479.62)" x="1461.99" y="1479.62">-1.00</text>
</g>
<g clip-path="url(#clip1100)">
<text style="fill:#000000; fill-opacity:1; font-family:Arial,Helvetica Neue,Helvetica,sans-serif; font-size:48px; text-anchor:middle;" transform="rotate(0, 1923.05, 1479.62)" x="1923.05" y="1479.62">-0.95</text>
</g>
<g clip-path="url(#clip1100)">
<text style="fill:#000000; fill-opacity:1; font-family:Arial,Helvetica Neue,Helvetica,sans-serif; font-size:48px; text-anchor:end;" transform="rotate(0, 178.373, 1406.21)" x="178.373" y="1406.21">0</text>
</g>
<g clip-path="url(#clip1100)">
<text style="fill:#000000; fill-opacity:1; font-family:Arial,Helvetica Neue,Helvetica,sans-serif; font-size:48px; text-anchor:end;" transform="rotate(0, 178.373, 1038.06)" x="178.373" y="1038.06">5</text>
</g>
<g clip-path="url(#clip1100)">
<text style="fill:#000000; fill-opacity:1; font-family:Arial,Helvetica Neue,Helvetica,sans-serif; font-size:48px; text-anchor:end;" transform="rotate(0, 178.373, 669.909)" x="178.373" y="669.909">10</text>
</g>
<g clip-path="url(#clip1100)">
<text style="fill:#000000; fill-opacity:1; font-family:Arial,Helvetica Neue,Helvetica,sans-serif; font-size:48px; text-anchor:end;" transform="rotate(0, 178.373, 301.757)" x="178.373" y="301.757">15</text>
</g>
<g clip-path="url(#clip1100)">
<text style="fill:#000000; fill-opacity:1; font-family:Arial,Helvetica Neue,Helvetica,sans-serif; font-size:84px; text-anchor:middle;" transform="rotate(0, 1277.56, 73.2)" x="1277.56" y="73.2">Marginalized Distribution for mu_1</text>
</g>
<g clip-path="url(#clip1100)">
<text style="fill:#000000; fill-opacity:1; font-family:Arial,Helvetica Neue,Helvetica,sans-serif; font-size:66px; text-anchor:middle;" transform="rotate(0, 1277.56, 1559.48)" x="1277.56" y="1559.48">mu_1</text>
</g>
<g clip-path="url(#clip1100)">
<text style="fill:#000000; fill-opacity:1; font-family:Arial,Helvetica Neue,Helvetica,sans-serif; font-size:66px; text-anchor:middle;" transform="rotate(-90, 89.2861, 773.647)" x="89.2861" y="773.647">P(mu_1)</text>
</g>
<path clip-path="url(#clip1102)" d="
M263.233 1388.71 L309.339 1388.71 L309.339 1388.71 L355.445 1388.71 L355.445 1388.71 L401.551 1388.71 L401.551 1388.71 L447.657 1388.71 L447.657 1388.71 L493.763 1388.71 
  L493.763 1388.71 L539.869 1388.71 L539.869 1388.71 L585.975 1388.71 L585.975 1373.73 L632.081 1373.73 L632.081 1359.13 L678.187 1359.13 L678.187 1351.57 L724.293 1351.57 
  L724.293 1311.96 L770.399 1311.96 L770.399 1269.62 L816.505 1269.62 L816.505 1194.72 L862.611 1194.72 L862.611 1085.28 L908.717 1085.28 L908.717 1023.25 L954.823 1023.25 
  L954.823 898.34 L1000.93 898.34 L1000.93 790.509 L1047.03 790.509 L1047.03 638.729 L1093.14 638.729 L1093.14 473.579 L1139.25 473.579 L1139.25 346.683 L1185.35 346.683 
  L1185.35 194.408 L1231.46 194.408 L1231.46 204.065 L1277.56 204.065 L1277.56 221.397 L1323.67 221.397 L1323.67 219.664 L1369.78 219.664 L1369.78 325.885 L1415.88 325.885 
  L1415.88 467.761 L1461.99 467.761 L1461.99 584.628 L1508.09 584.628 L1508.09 747.674 L1554.2 747.674 L1554.2 880.265 L1600.31 880.265 L1600.31 1020.28 L1646.41 1020.28 
  L1646.41 1123.16 L1692.52 1123.16 L1692.52 1213.78 L1738.62 1213.78 L1738.62 1276.67 L1784.73 1276.67 L1784.73 1304.53 L1830.84 1304.53 L1830.84 1348.6 L1876.94 1348.6 
  L1876.94 1361.23 L1923.05 1361.23 L1923.05 1365.81 L1969.15 1365.81 L1969.15 1388.71 L2015.26 1388.71 L2015.26 1388.71 L2061.37 1388.71 L2061.37 1388.71 L2107.47 1388.71 
  L2107.47 1388.71 L2153.58 1388.71 L2153.58 1388.71 L2199.68 1388.71 L2199.68 1388.71 L2245.79 1388.71 L2245.79 1388.71 L2291.9 1388.71 L2291.9 1388.71 L2291.9 1388.71 
  L2291.9 1388.71 L2245.79 1388.71 L2245.79 1388.71 L2199.68 1388.71 L2199.68 1388.71 L2153.58 1388.71 L2153.58 1388.71 L2107.47 1388.71 L2107.47 1388.71 L2061.37 1388.71 
  L2061.37 1388.71 L2015.26 1388.71 L2015.26 1388.71 L1969.15 1388.71 L1969.15 1388.71 L1923.05 1388.71 L1923.05 1388.71 L1876.94 1388.71 L1876.94 1388.71 L1830.84 1388.71 
  L1830.84 1388.71 L1784.73 1388.71 L1784.73 1388.71 L1738.62 1388.71 L1738.62 1388.71 L1692.52 1388.71 L1692.52 1388.71 L1646.41 1388.71 L1646.41 1388.71 L1600.31 1388.71 
  L1600.31 1388.71 L1554.2 1388.71 L1554.2 1388.71 L1508.09 1388.71 L1508.09 1388.71 L1461.99 1388.71 L1461.99 1388.71 L1415.88 1388.71 L1415.88 1388.71 L1369.78 1388.71 
  L1369.78 1388.71 L1323.67 1388.71 L1323.67 1388.71 L1277.56 1388.71 L1277.56 1388.71 L1231.46 1388.71 L1231.46 1388.71 L1185.35 1388.71 L1185.35 1388.71 L1139.25 1388.71 
  L1139.25 1388.71 L1093.14 1388.71 L1093.14 1388.71 L1047.03 1388.71 L1047.03 1388.71 L1000.93 1388.71 L1000.93 1388.71 L954.823 1388.71 L954.823 1388.71 L908.717 1388.71 
  L908.717 1388.71 L862.611 1388.71 L862.611 1388.71 L816.505 1388.71 L816.505 1388.71 L770.399 1388.71 L770.399 1388.71 L724.293 1388.71 L724.293 1388.71 L678.187 1388.71 
  L678.187 1388.71 L632.081 1388.71 L632.081 1388.71 L585.975 1388.71 L585.975 1388.71 L539.869 1388.71 L539.869 1388.71 L493.763 1388.71 L493.763 1388.71 L447.657 1388.71 
  L447.657 1388.71 L401.551 1388.71 L401.551 1388.71 L355.445 1388.71 L355.445 1388.71 L309.339 1388.71 L309.339 1388.71 L263.233 1388.71  Z
  " fill="#ff0000" fill-rule="evenodd" fill-opacity="1"/>
<polyline clip-path="url(#clip1102)" style="stroke:#009af9; stroke-width:0; stroke-opacity:1; fill:none" points="
  263.233,1388.71 309.339,1388.71 355.445,1388.71 401.551,1388.71 447.657,1388.71 493.763,1388.71 
  539.869,1388.71 585.975,1388.71 585.975,1373.73 632.081,1373.73 632.081,1359.13 678.187,1359.13 678.187,1351.57 724.293,1351.57 
  724.293,1311.96 770.399,1311.96 770.399,1269.62 816.505,1269.62 816.505,1194.72 862.611,1194.72 862.611,1085.28 908.717,1085.28 908.717,1023.25 954.823,1023.25 
  954.823,898.34 1000.93,898.34 1000.93,790.509 1047.03,790.509 1047.03,638.729 1093.14,638.729 1093.14,473.579 1139.25,473.579 1139.25,346.683 1185.35,346.683 
  1185.35,194.408 1231.46,194.408 1231.46,204.065 1277.56,204.065 1277.56,221.397 1323.67,221.397 1323.67,219.664 1369.78,219.664 1369.78,325.885 1415.88,325.885 
  1415.88,467.761 1461.99,467.761 1461.99,584.628 1508.09,584.628 1508.09,747.674 1554.2,747.674 1554.2,880.265 1600.31,880.265 1600.31,1020.28 1646.41,1020.28 
  1646.41,1123.16 1692.52,1123.16 1692.52,1213.78 1738.62,1213.78 1738.62,1276.67 1784.73,1276.67 1784.73,1304.53 1830.84,1304.53 1830.84,1348.6 1876.94,1348.6 
  1876.94,1361.23 1923.05,1361.23 1923.05,1365.81 1969.15,1365.81 1969.15,1388.71 2015.26,1388.71 2061.37,1388.71 2107.47,1388.71 
  2153.58,1388.71 2199.68,1388.71 2245.79,1388.71 2291.9,1388.71 
  "/>
<path clip-path="url(#clip1102)" d="
M263.233 1388.71 L309.339 1388.71 L309.339 1388.71 L355.445 1388.71 L355.445 1388.71 L401.551 1388.71 L401.551 1388.71 L447.657 1388.71 L447.657 1388.71 L493.763 1388.71 
  L493.763 1388.71 L539.869 1388.71 L539.869 1388.71 L585.975 1388.71 L585.975 1388.71 L632.081 1388.71 L632.081 1388.71 L678.187 1388.71 L678.187 1388.71 L724.293 1388.71 
  L724.293 1388.71 L770.399 1388.71 L770.399 1388.71 L816.505 1388.71 L816.505 1194.72 L862.611 1194.72 L862.611 1085.28 L908.717 1085.28 L908.717 1023.25 L954.823 1023.25 
  L954.823 898.34 L1000.93 898.34 L1000.93 790.509 L1047.03 790.509 L1047.03 638.729 L1093.14 638.729 L1093.14 473.579 L1139.25 473.579 L1139.25 346.683 L1185.35 346.683 
  L1185.35 194.408 L1231.46 194.408 L1231.46 204.065 L1277.56 204.065 L1277.56 221.397 L1323.67 221.397 L1323.67 219.664 L1369.78 219.664 L1369.78 325.885 L1415.88 325.885 
  L1415.88 467.761 L1461.99 467.761 L1461.99 584.628 L1508.09 584.628 L1508.09 747.674 L1554.2 747.674 L1554.2 880.265 L1600.31 880.265 L1600.31 1020.28 L1646.41 1020.28 
  L1646.41 1123.16 L1692.52 1123.16 L1692.52 1213.78 L1738.62 1213.78 L1738.62 1388.71 L1784.73 1388.71 L1784.73 1388.71 L1830.84 1388.71 L1830.84 1388.71 L1876.94 1388.71 
  L1876.94 1388.71 L1923.05 1388.71 L1923.05 1388.71 L1969.15 1388.71 L1969.15 1388.71 L2015.26 1388.71 L2015.26 1388.71 L2061.37 1388.71 L2061.37 1388.71 L2107.47 1388.71 
  L2107.47 1388.71 L2153.58 1388.71 L2153.58 1388.71 L2199.68 1388.71 L2199.68 1388.71 L2245.79 1388.71 L2245.79 1388.71 L2291.9 1388.71 L2291.9 1388.71 L2291.9 1388.71 
  L2291.9 1388.71 L2245.79 1388.71 L2245.79 1388.71 L2199.68 1388.71 L2199.68 1388.71 L2153.58 1388.71 L2153.58 1388.71 L2107.47 1388.71 L2107.47 1388.71 L2061.37 1388.71 
  L2061.37 1388.71 L2015.26 1388.71 L2015.26 1388.71 L1969.15 1388.71 L1969.15 1388.71 L1923.05 1388.71 L1923.05 1388.71 L1876.94 1388.71 L1876.94 1388.71 L1830.84 1388.71 
  L1830.84 1388.71 L1784.73 1388.71 L1784.73 1388.71 L1738.62 1388.71 L1738.62 1388.71 L1692.52 1388.71 L1692.52 1388.71 L1646.41 1388.71 L1646.41 1388.71 L1600.31 1388.71 
  L1600.31 1388.71 L1554.2 1388.71 L1554.2 1388.71 L1508.09 1388.71 L1508.09 1388.71 L1461.99 1388.71 L1461.99 1388.71 L1415.88 1388.71 L1415.88 1388.71 L1369.78 1388.71 
  L1369.78 1388.71 L1323.67 1388.71 L1323.67 1388.71 L1277.56 1388.71 L1277.56 1388.71 L1231.46 1388.71 L1231.46 1388.71 L1185.35 1388.71 L1185.35 1388.71 L1139.25 1388.71 
  L1139.25 1388.71 L1093.14 1388.71 L1093.14 1388.71 L1047.03 1388.71 L1047.03 1388.71 L1000.93 1388.71 L1000.93 1388.71 L954.823 1388.71 L954.823 1388.71 L908.717 1388.71 
  L908.717 1388.71 L862.611 1388.71 L862.611 1388.71 L816.505 1388.71 L816.505 1388.71 L770.399 1388.71 L770.399 1388.71 L724.293 1388.71 L724.293 1388.71 L678.187 1388.71 
  L678.187 1388.71 L632.081 1388.71 L632.081 1388.71 L585.975 1388.71 L585.975 1388.71 L539.869 1388.71 L539.869 1388.71 L493.763 1388.71 L493.763 1388.71 L447.657 1388.71 
  L447.657 1388.71 L401.551 1388.71 L401.551 1388.71 L355.445 1388.71 L355.445 1388.71 L309.339 1388.71 L309.339 1388.71 L263.233 1388.71  Z
  " fill="#ffff00" fill-rule="evenodd" fill-opacity="1"/>
<polyline clip-path="url(#clip1102)" style="stroke:#e26f46; stroke-width:0; stroke-opacity:1; fill:none" points="
  263.233,1388.71 309.339,1388.71 355.445,1388.71 401.551,1388.71 447.657,1388.71 493.763,1388.71 
  539.869,1388.71 585.975,1388.71 632.081,1388.71 678.187,1388.71 724.293,1388.71 
  770.399,1388.71 816.505,1388.71 816.505,1194.72 862.611,1194.72 862.611,1085.28 908.717,1085.28 908.717,1023.25 954.823,1023.25 
  954.823,898.34 1000.93,898.34 1000.93,790.509 1047.03,790.509 1047.03,638.729 1093.14,638.729 1093.14,473.579 1139.25,473.579 1139.25,346.683 1185.35,346.683 
  1185.35,194.408 1231.46,194.408 1231.46,204.065 1277.56,204.065 1277.56,221.397 1323.67,221.397 1323.67,219.664 1369.78,219.664 1369.78,325.885 1415.88,325.885 
  1415.88,467.761 1461.99,467.761 1461.99,584.628 1508.09,584.628 1508.09,747.674 1554.2,747.674 1554.2,880.265 1600.31,880.265 1600.31,1020.28 1646.41,1020.28 
  1646.41,1123.16 1692.52,1123.16 1692.52,1213.78 1738.62,1213.78 1738.62,1388.71 1784.73,1388.71 1830.84,1388.71 1876.94,1388.71 
  1923.05,1388.71 1969.15,1388.71 2015.26,1388.71 2061.37,1388.71 2107.47,1388.71 
  2153.58,1388.71 2199.68,1388.71 2245.79,1388.71 2291.9,1388.71 
  "/>
<path clip-path="url(#clip1102)" d="
M263.233 1388.71 L309.339 1388.71 L309.339 1388.71 L355.445 1388.71 L355.445 1388.71 L401.551 1388.71 L401.551 1388.71 L447.657 1388.71 L447.657 1388.71 L493.763 1388.71 
  L493.763 1388.71 L539.869 1388.71 L539.869 1388.71 L585.975 1388.71 L585.975 1388.71 L632.081 1388.71 L632.081 1388.71 L678.187 1388.71 L678.187 1388.71 L724.293 1388.71 
  L724.293 1388.71 L770.399 1388.71 L770.399 1388.71 L816.505 1388.71 L816.505 1388.71 L862.611 1388.71 L862.611 1388.71 L908.717 1388.71 L908.717 1388.71 L954.823 1388.71 
  L954.823 1388.71 L1000.93 1388.71 L1000.93 1388.71 L1047.03 1388.71 L1047.03 638.729 L1093.14 638.729 L1093.14 473.579 L1139.25 473.579 L1139.25 346.683 L1185.35 346.683 
  L1185.35 194.408 L1231.46 194.408 L1231.46 204.065 L1277.56 204.065 L1277.56 221.397 L1323.67 221.397 L1323.67 219.664 L1369.78 219.664 L1369.78 325.885 L1415.88 325.885 
  L1415.88 467.761 L1461.99 467.761 L1461.99 584.628 L1508.09 584.628 L1508.09 1388.71 L1554.2 1388.71 L1554.2 1388.71 L1600.31 1388.71 L1600.31 1388.71 L1646.41 1388.71 
  L1646.41 1388.71 L1692.52 1388.71 L1692.52 1388.71 L1738.62 1388.71 L1738.62 1388.71 L1784.73 1388.71 L1784.73 1388.71 L1830.84 1388.71 L1830.84 1388.71 L1876.94 1388.71 
  L1876.94 1388.71 L1923.05 1388.71 L1923.05 1388.71 L1969.15 1388.71 L1969.15 1388.71 L2015.26 1388.71 L2015.26 1388.71 L2061.37 1388.71 L2061.37 1388.71 L2107.47 1388.71 
  L2107.47 1388.71 L2153.58 1388.71 L2153.58 1388.71 L2199.68 1388.71 L2199.68 1388.71 L2245.79 1388.71 L2245.79 1388.71 L2291.9 1388.71 L2291.9 1388.71 L2291.9 1388.71 
  L2291.9 1388.71 L2245.79 1388.71 L2245.79 1388.71 L2199.68 1388.71 L2199.68 1388.71 L2153.58 1388.71 L2153.58 1388.71 L2107.47 1388.71 L2107.47 1388.71 L2061.37 1388.71 
  L2061.37 1388.71 L2015.26 1388.71 L2015.26 1388.71 L1969.15 1388.71 L1969.15 1388.71 L1923.05 1388.71 L1923.05 1388.71 L1876.94 1388.71 L1876.94 1388.71 L1830.84 1388.71 
  L1830.84 1388.71 L1784.73 1388.71 L1784.73 1388.71 L1738.62 1388.71 L1738.62 1388.71 L1692.52 1388.71 L1692.52 1388.71 L1646.41 1388.71 L1646.41 1388.71 L1600.31 1388.71 
  L1600.31 1388.71 L1554.2 1388.71 L1554.2 1388.71 L1508.09 1388.71 L1508.09 1388.71 L1461.99 1388.71 L1461.99 1388.71 L1415.88 1388.71 L1415.88 1388.71 L1369.78 1388.71 
  L1369.78 1388.71 L1323.67 1388.71 L1323.67 1388.71 L1277.56 1388.71 L1277.56 1388.71 L1231.46 1388.71 L1231.46 1388.71 L1185.35 1388.71 L1185.35 1388.71 L1139.25 1388.71 
  L1139.25 1388.71 L1093.14 1388.71 L1093.14 1388.71 L1047.03 1388.71 L1047.03 1388.71 L1000.93 1388.71 L1000.93 1388.71 L954.823 1388.71 L954.823 1388.71 L908.717 1388.71 
  L908.717 1388.71 L862.611 1388.71 L862.611 1388.71 L816.505 1388.71 L816.505 1388.71 L770.399 1388.71 L770.399 1388.71 L724.293 1388.71 L724.293 1388.71 L678.187 1388.71 
  L678.187 1388.71 L632.081 1388.71 L632.081 1388.71 L585.975 1388.71 L585.975 1388.71 L539.869 1388.71 L539.869 1388.71 L493.763 1388.71 L493.763 1388.71 L447.657 1388.71 
  L447.657 1388.71 L401.551 1388.71 L401.551 1388.71 L355.445 1388.71 L355.445 1388.71 L309.339 1388.71 L309.339 1388.71 L263.233 1388.71  Z
  " fill="#76ee00" fill-rule="evenodd" fill-opacity="1"/>
<polyline clip-path="url(#clip1102)" style="stroke:#3da44d; stroke-width:0; stroke-opacity:1; fill:none" points="
  263.233,1388.71 309.339,1388.71 355.445,1388.71 401.551,1388.71 447.657,1388.71 493.763,1388.71 
  539.869,1388.71 585.975,1388.71 632.081,1388.71 678.187,1388.71 724.293,1388.71 
  770.399,1388.71 816.505,1388.71 862.611,1388.71 908.717,1388.71 954.823,1388.71 
  1000.93,1388.71 1047.03,1388.71 1047.03,638.729 1093.14,638.729 1093.14,473.579 1139.25,473.579 1139.25,346.683 1185.35,346.683 
  1185.35,194.408 1231.46,194.408 1231.46,204.065 1277.56,204.065 1277.56,221.397 1323.67,221.397 1323.67,219.664 1369.78,219.664 1369.78,325.885 1415.88,325.885 
  1415.88,467.761 1461.99,467.761 1461.99,584.628 1508.09,584.628 1508.09,1388.71 1554.2,1388.71 1600.31,1388.71 1646.41,1388.71 
  1692.52,1388.71 1738.62,1388.71 1784.73,1388.71 1830.84,1388.71 1876.94,1388.71 
  1923.05,1388.71 1969.15,1388.71 2015.26,1388.71 2061.37,1388.71 2107.47,1388.71 
  2153.58,1388.71 2199.68,1388.71 2245.79,1388.71 2291.9,1388.71 
  "/>
<polyline clip-path="url(#clip1102)" style="stroke:#000000; stroke-width:2.8; stroke-opacity:1; fill:none" points="
  263.233,1388.47 309.339,1388.47 309.339,1387.97 355.445,1387.97 355.445,1386.73 401.551,1386.73 401.551,1388.34 447.657,1388.34 447.657,1387.97 493.763,1387.97 
  493.763,1384.63 539.869,1384.63 539.869,1377.57 585.975,1377.57 585.975,1373.73 632.081,1373.73 632.081,1359.13 678.187,1359.13 678.187,1351.57 724.293,1351.57 
  724.293,1311.96 770.399,1311.96 770.399,1269.62 816.505,1269.62 816.505,1194.72 862.611,1194.72 862.611,1085.28 908.717,1085.28 908.717,1023.25 954.823,1023.25 
  954.823,898.34 1000.93,898.34 1000.93,790.509 1047.03,790.509 1047.03,638.729 1093.14,638.729 1093.14,473.579 1139.25,473.579 1139.25,346.683 1185.35,346.683 
  1185.35,194.408 1231.46,194.408 1231.46,204.065 1277.56,204.065 1277.56,221.397 1323.67,221.397 1323.67,219.664 1369.78,219.664 1369.78,325.885 1415.88,325.885 
  1415.88,467.761 1461.99,467.761 1461.99,584.628 1508.09,584.628 1508.09,747.674 1554.2,747.674 1554.2,880.265 1600.31,880.265 1600.31,1020.28 1646.41,1020.28 
  1646.41,1123.16 1692.52,1123.16 1692.52,1213.78 1738.62,1213.78 1738.62,1276.67 1784.73,1276.67 1784.73,1304.53 1830.84,1304.53 1830.84,1348.6 1876.94,1348.6 
  1876.94,1361.23 1923.05,1361.23 1923.05,1365.81 1969.15,1365.81 1969.15,1379.43 2015.26,1379.43 2015.26,1380.42 2061.37,1380.42 2061.37,1385.99 2107.47,1385.99 
  2107.47,1388.47 2153.58,1388.47 2153.58,1387.35 2199.68,1387.35 2199.68,1388.59 2245.79,1388.59 2245.79,1388.71 2291.9,1388.71 2291.9,1388.47 
  "/>
<path clip-path="url(#clip1102)" d="
M1051.93 1388.71 L1505.17 1388.71 L1505.17 158.579 L1051.93 158.579 L1051.93 1388.71  Z
  " fill="#808080" fill-rule="evenodd" fill-opacity="0.5"/>
<polyline clip-path="url(#clip1102)" style="stroke:#000000; stroke-width:0; stroke-opacity:1; fill:none" points="
  1051.93,1388.71 1505.17,1388.71 1505.17,158.579 1051.93,158.579 1051.93,1388.71 
  "/>
<polyline clip-path="url(#clip1102)" style="stroke:#696969; stroke-width:4; stroke-opacity:1; fill:none" points="
  1278.55,1388.71 1278.55,158.579 
  "/>
<polyline clip-path="url(#clip1102)" style="stroke:#000000; stroke-width:4; stroke-opacity:1; fill:none" stroke-dasharray="16, 10" points="
  1312.58,1388.71 1312.58,158.579 
  "/>
<polyline clip-path="url(#clip1102)" style="stroke:#000000; stroke-width:4; stroke-opacity:1; fill:none" stroke-dasharray="2, 4" points="
  1208.41,1388.71 1208.41,158.579 
  "/>
<path clip-path="url(#clip1100)" d="
M1463.01 689.035 L2280.76 689.035 L2280.76 205.195 L1463.01 205.195  Z
  " fill="#ffffff" fill-rule="evenodd" fill-opacity="1"/>
<polyline clip-path="url(#clip1100)" style="stroke:#000000; stroke-width:4; stroke-opacity:1; fill:none" points="
  1463.01,689.035 2280.76,689.035 2280.76,205.195 1463.01,205.195 1463.01,689.035 
  "/>
<path clip-path="url(#clip1100)" d="
M1487.01 289.867 L1631.01 289.867 L1631.01 241.483 L1487.01 241.483 L1487.01 289.867  Z
  " fill="#ff0000" fill-rule="evenodd" fill-opacity="1"/>
<polyline clip-path="url(#clip1100)" style="stroke:#009af9; stroke-width:0; stroke-opacity:1; fill:none" points="
  1487.01,241.483 1631.01,241.483 
  "/>
<g clip-path="url(#clip1100)">
<text style="fill:#000000; fill-opacity:1; font-family:Arial,Helvetica Neue,Helvetica,sans-serif; font-size:48px; text-anchor:start;" transform="rotate(0, 1655.01, 283.175)" x="1655.01" y="283.175">smallest 99.72% interval(s)</text>
</g>
<path clip-path="url(#clip1100)" d="
M1487.01 350.347 L1631.01 350.347 L1631.01 301.963 L1487.01 301.963 L1487.01 350.347  Z
  " fill="#ffff00" fill-rule="evenodd" fill-opacity="1"/>
<polyline clip-path="url(#clip1100)" style="stroke:#e26f46; stroke-width:0; stroke-opacity:1; fill:none" points="
  1487.01,301.963 1631.01,301.963 
  "/>
<g clip-path="url(#clip1100)">
<text style="fill:#000000; fill-opacity:1; font-family:Arial,Helvetica Neue,Helvetica,sans-serif; font-size:48px; text-anchor:start;" transform="rotate(0, 1655.01, 343.655)" x="1655.01" y="343.655">smallest 95.89% interval(s)</text>
</g>
<path clip-path="url(#clip1100)" d="
M1487.01 410.827 L1631.01 410.827 L1631.01 362.443 L1487.01 362.443 L1487.01 410.827  Z
  " fill="#76ee00" fill-rule="evenodd" fill-opacity="1"/>
<polyline clip-path="url(#clip1100)" style="stroke:#3da44d; stroke-width:0; stroke-opacity:1; fill:none" points="
  1487.01,362.443 1631.01,362.443 
  "/>
<g clip-path="url(#clip1100)">
<text style="fill:#000000; fill-opacity:1; font-family:Arial,Helvetica Neue,Helvetica,sans-serif; font-size:48px; text-anchor:start;" transform="rotate(0, 1655.01, 404.135)" x="1655.01" y="404.135">smallest 69.34% interval(s)</text>
</g>
<path clip-path="url(#clip1100)" d="
M1487.01 471.307 L1631.01 471.307 L1631.01 422.923 L1487.01 422.923 L1487.01 471.307  Z
  " fill="#808080" fill-rule="evenodd" fill-opacity="0.5"/>
<polyline clip-path="url(#clip1100)" style="stroke:#000000; stroke-width:0; stroke-opacity:1; fill:none" points="
  1487.01,471.307 1631.01,471.307 1631.01,422.923 1487.01,422.923 1487.01,471.307 
  "/>
<g clip-path="url(#clip1100)">
<text style="fill:#000000; fill-opacity:1; font-family:Arial,Helvetica Neue,Helvetica,sans-serif; font-size:48px; text-anchor:start;" transform="rotate(0, 1655.01, 464.615)" x="1655.01" y="464.615">std. dev.</text>
</g>
<polyline clip-path="url(#clip1100)" style="stroke:#696969; stroke-width:4; stroke-opacity:1; fill:none" points="
  1487.01,507.595 1631.01,507.595 
  "/>
<g clip-path="url(#clip1100)">
<text style="fill:#000000; fill-opacity:1; font-family:Arial,Helvetica Neue,Helvetica,sans-serif; font-size:48px; text-anchor:start;" transform="rotate(0, 1655.01, 525.095)" x="1655.01" y="525.095">mean</text>
</g>
<polyline clip-path="url(#clip1100)" style="stroke:#000000; stroke-width:4; stroke-opacity:1; fill:none" stroke-dasharray="16, 10" points="
  1487.01,568.075 1631.01,568.075 
  "/>
<g clip-path="url(#clip1100)">
<text style="fill:#000000; fill-opacity:1; font-family:Arial,Helvetica Neue,Helvetica,sans-serif; font-size:48px; text-anchor:start;" transform="rotate(0, 1655.01, 585.575)" x="1655.01" y="585.575">global mode</text>
</g>
<polyline clip-path="url(#clip1100)" style="stroke:#000000; stroke-width:4; stroke-opacity:1; fill:none" stroke-dasharray="2, 4" points="
  1487.01,628.555 1631.01,628.555 
  "/>
<g clip-path="url(#clip1100)">
<text style="fill:#000000; fill-opacity:1; font-family:Arial,Helvetica Neue,Helvetica,sans-serif; font-size:48px; text-anchor:start;" transform="rotate(0, 1655.01, 646.055)" x="1655.01" y="646.055">local mode</text>
</g>
</svg>
