<?xml version="1.0" encoding="utf-8"?>
<svg xmlns="http://www.w3.org/2000/svg" xmlns:xlink="http://www.w3.org/1999/xlink" width="600" height="400" viewBox="0 0 2400 1600">
<defs>
  <clipPath id="clip2000">
    <rect x="0" y="0" width="2400" height="1600"/>
  </clipPath>
</defs>
<path clip-path="url(#clip2000)" d="
M0 1600 L2400 1600 L2400 0 L0 0  Z
  " fill="#ffffff" fill-rule="evenodd" fill-opacity="1"/>
<defs>
  <clipPath id="clip2001">
    <rect x="480" y="0" width="1681" height="1600"/>
  </clipPath>
</defs>
<path clip-path="url(#clip2000)" d="
M167.279 1487.47 L2352.76 1487.47 L2352.76 121.675 L167.279 121.675  Z
  " fill="#ffffff" fill-rule="evenodd" fill-opacity="1"/>
<defs>
  <clipPath id="clip2002">
    <rect x="167" y="121" width="2186" height="1367"/>
  </clipPath>
</defs>
<polyline clip-path="url(#clip2002)" style="stroke:#000000; stroke-width:2; stroke-opacity:0.1; fill:none" points="
  229.132,1487.47 229.132,121.675 
  "/>
<polyline clip-path="url(#clip2002)" style="stroke:#000000; stroke-width:2; stroke-opacity:0.1; fill:none" points="
  744.575,1487.47 744.575,121.675 
  "/>
<polyline clip-path="url(#clip2002)" style="stroke:#000000; stroke-width:2; stroke-opacity:0.1; fill:none" points="
  1260.02,1487.47 1260.02,121.675 
  "/>
<polyline clip-path="url(#clip2002)" style="stroke:#000000; stroke-width:2; stroke-opacity:0.1; fill:none" points="
  1775.46,1487.47 1775.46,121.675 
  "/>
<polyline clip-path="url(#clip2002)" style="stroke:#000000; stroke-width:2; stroke-opacity:0.1; fill:none" points="
  2290.9,1487.47 2290.9,121.675 
  "/>
<polyline clip-path="url(#clip2002)" style="stroke:#000000; stroke-width:2; stroke-opacity:0.1; fill:none" points="
  167.279,1448.82 2352.76,1448.82 
  "/>
<polyline clip-path="url(#clip2002)" style="stroke:#000000; stroke-width:2; stroke-opacity:0.1; fill:none" points="
  167.279,1180.38 2352.76,1180.38 
  "/>
<polyline clip-path="url(#clip2002)" style="stroke:#000000; stroke-width:2; stroke-opacity:0.1; fill:none" points="
  167.279,911.949 2352.76,911.949 
  "/>
<polyline clip-path="url(#clip2002)" style="stroke:#000000; stroke-width:2; stroke-opacity:0.1; fill:none" points="
  167.279,643.514 2352.76,643.514 
  "/>
<polyline clip-path="url(#clip2002)" style="stroke:#000000; stroke-width:2; stroke-opacity:0.1; fill:none" points="
  167.279,375.078 2352.76,375.078 
  "/>
<polyline clip-path="url(#clip2000)" style="stroke:#000000; stroke-width:4; stroke-opacity:1; fill:none" points="
  167.279,1487.47 2352.76,1487.47 
  "/>
<polyline clip-path="url(#clip2000)" style="stroke:#000000; stroke-width:4; stroke-opacity:1; fill:none" points="
  167.279,1487.47 167.279,121.675 
  "/>
<polyline clip-path="url(#clip2000)" style="stroke:#000000; stroke-width:4; stroke-opacity:1; fill:none" points="
  229.132,1487.47 229.132,1466.99 
  "/>
<polyline clip-path="url(#clip2000)" style="stroke:#000000; stroke-width:4; stroke-opacity:1; fill:none" points="
  744.575,1487.47 744.575,1466.99 
  "/>
<polyline clip-path="url(#clip2000)" style="stroke:#000000; stroke-width:4; stroke-opacity:1; fill:none" points="
  1260.02,1487.47 1260.02,1466.99 
  "/>
<polyline clip-path="url(#clip2000)" style="stroke:#000000; stroke-width:4; stroke-opacity:1; fill:none" points="
  1775.46,1487.47 1775.46,1466.99 
  "/>
<polyline clip-path="url(#clip2000)" style="stroke:#000000; stroke-width:4; stroke-opacity:1; fill:none" points="
  2290.9,1487.47 2290.9,1466.99 
  "/>
<polyline clip-path="url(#clip2000)" style="stroke:#000000; stroke-width:4; stroke-opacity:1; fill:none" points="
  167.279,1448.82 200.061,1448.82 
  "/>
<polyline clip-path="url(#clip2000)" style="stroke:#000000; stroke-width:4; stroke-opacity:1; fill:none" points="
  167.279,1180.38 200.061,1180.38 
  "/>
<polyline clip-path="url(#clip2000)" style="stroke:#000000; stroke-width:4; stroke-opacity:1; fill:none" points="
  167.279,911.949 200.061,911.949 
  "/>
<polyline clip-path="url(#clip2000)" style="stroke:#000000; stroke-width:4; stroke-opacity:1; fill:none" points="
  167.279,643.514 200.061,643.514 
  "/>
<polyline clip-path="url(#clip2000)" style="stroke:#000000; stroke-width:4; stroke-opacity:1; fill:none" points="
  167.279,375.078 200.061,375.078 
  "/>
<g clip-path="url(#clip2000)">
<text style="fill:#000000; fill-opacity:1; font-family:Arial,Helvetica Neue,Helvetica,sans-serif; font-size:48px; text-anchor:middle;" transform="rotate(0, 229.132, 1541.47)" x="229.132" y="1541.47">-4</text>
</g>
<g clip-path="url(#clip2000)">
<text style="fill:#000000; fill-opacity:1; font-family:Arial,Helvetica Neue,Helvetica,sans-serif; font-size:48px; text-anchor:middle;" transform="rotate(0, 744.575, 1541.47)" x="744.575" y="1541.47">-2</text>
</g>
<g clip-path="url(#clip2000)">
<text style="fill:#000000; fill-opacity:1; font-family:Arial,Helvetica Neue,Helvetica,sans-serif; font-size:48px; text-anchor:middle;" transform="rotate(0, 1260.02, 1541.47)" x="1260.02" y="1541.47">0</text>
</g>
<g clip-path="url(#clip2000)">
<text style="fill:#000000; fill-opacity:1; font-family:Arial,Helvetica Neue,Helvetica,sans-serif; font-size:48px; text-anchor:middle;" transform="rotate(0, 1775.46, 1541.47)" x="1775.46" y="1541.47">2</text>
</g>
<g clip-path="url(#clip2000)">
<text style="fill:#000000; fill-opacity:1; font-family:Arial,Helvetica Neue,Helvetica,sans-serif; font-size:48px; text-anchor:middle;" transform="rotate(0, 2290.9, 1541.47)" x="2290.9" y="1541.47">4</text>
</g>
<g clip-path="url(#clip2000)">
<text style="fill:#000000; fill-opacity:1; font-family:Arial,Helvetica Neue,Helvetica,sans-serif; font-size:48px; text-anchor:end;" transform="rotate(0, 143.279, 1466.32)" x="143.279" y="1466.32">0</text>
</g>
<g clip-path="url(#clip2000)">
<text style="fill:#000000; fill-opacity:1; font-family:Arial,Helvetica Neue,Helvetica,sans-serif; font-size:48px; text-anchor:end;" transform="rotate(0, 143.279, 1197.88)" x="143.279" y="1197.88">200</text>
</g>
<g clip-path="url(#clip2000)">
<text style="fill:#000000; fill-opacity:1; font-family:Arial,Helvetica Neue,Helvetica,sans-serif; font-size:48px; text-anchor:end;" transform="rotate(0, 143.279, 929.449)" x="143.279" y="929.449">400</text>
</g>
<g clip-path="url(#clip2000)">
<text style="fill:#000000; fill-opacity:1; font-family:Arial,Helvetica Neue,Helvetica,sans-serif; font-size:48px; text-anchor:end;" transform="rotate(0, 143.279, 661.014)" x="143.279" y="661.014">600</text>
</g>
<g clip-path="url(#clip2000)">
<text style="fill:#000000; fill-opacity:1; font-family:Arial,Helvetica Neue,Helvetica,sans-serif; font-size:48px; text-anchor:end;" transform="rotate(0, 143.279, 392.578)" x="143.279" y="392.578">800</text>
</g>
<g clip-path="url(#clip2000)">
<text style="fill:#000000; fill-opacity:1; font-family:Arial,Helvetica Neue,Helvetica,sans-serif; font-size:84px; text-anchor:middle;" transform="rotate(0, 1260.02, 73.2)" x="1260.02" y="73.2">Data, True Model and Best Fit</text>
</g>
<polyline clip-path="url(#clip2002)" style="stroke:#009af9; stroke-width:4; stroke-opacity:1; fill:none" points="
  744.575,1448.82 744.575,1314.6 770.347,1314.6 770.347,1328.02 796.119,1328.02 796.119,1287.76 821.891,1287.76 821.891,1207.23 847.663,1207.23 847.663,1086.43 
  873.436,1086.43 873.436,1166.96 899.208,1166.96 899.208,1032.75 924.98,1032.75 924.98,1005.9 950.752,1005.9 950.752,844.84 976.524,844.84 976.524,871.684 
  1002.3,871.684 1002.3,965.636 1028.07,965.636 1028.07,1046.17 1053.84,1046.17 1053.84,952.214 1079.61,952.214 1079.61,1046.17 1105.38,1046.17 
  1131.16,1046.17 1131.16,1220.65 1156.93,1220.65 1156.93,1126.7 1182.7,1126.7 1182.7,1247.49 1208.47,1247.49 1208.47,1354.87 1234.25,1354.87 1234.25,1408.55 
  1260.02,1408.55 1285.79,1408.55 1311.56,1408.55 1337.33,1408.55 1337.33,1448.82 1363.11,1448.82 
  1388.88,1448.82 1388.88,1408.55 1414.65,1408.55 1414.65,1395.13 1440.42,1395.13 1440.42,1368.29 1466.19,1368.29 1466.19,1354.87 1491.97,1354.87 1491.97,1341.45 
  1517.74,1341.45 1517.74,1207.23 1543.51,1207.23 1543.51,1193.81 1569.28,1193.81 1569.28,1220.65 1595.06,1220.65 1595.06,844.84 1620.83,844.84 1620.83,656.935 
  1646.6,656.935 1646.6,777.731 1672.37,777.731 1672.37,697.201 1698.14,697.201 1698.14,616.67 1723.92,616.67 1723.92,307.969 1749.69,307.969 1749.69,469.031 
  1775.46,469.031 1775.46,160.33 1801.23,160.33 1801.23,549.561 1827,549.561 1827,737.466 1852.78,737.466 1852.78,576.405 1878.55,576.405 1878.55,791.153 
  1904.32,791.153 1904.32,804.575 1930.09,804.575 1930.09,911.949 1955.87,911.949 1955.87,1180.38 1981.64,1180.38 1981.64,1126.7 2007.41,1126.7 2007.41,1247.49 
  2033.18,1247.49 2033.18,1368.29 2058.95,1368.29 2058.95,1435.4 2084.73,1435.4 2084.73,1395.13 2110.5,1395.13 2110.5,1448.82 2136.27,1448.82 
  2162.04,1448.82 2162.04,1435.4 2187.81,1435.4 2187.81,1448.82 2213.59,1448.82 2239.36,1448.82 2265.13,1448.82 
  2290.9,1448.82 
  "/>
<polyline clip-path="url(#clip2002)" style="stroke:#e26f46; stroke-width:4; stroke-opacity:1; fill:none" points="
  229.132,1448.82 231.709,1448.82 234.287,1448.82 236.864,1448.82 239.441,1448.82 242.018,1448.82 244.596,1448.82 247.173,1448.82 249.75,1448.82 252.327,1448.82 
  254.904,1448.82 257.482,1448.82 260.059,1448.82 262.636,1448.82 265.213,1448.82 267.79,1448.82 270.368,1448.82 272.945,1448.82 275.522,1448.82 278.099,1448.82 
  280.677,1448.82 283.254,1448.82 285.831,1448.82 288.408,1448.82 290.985,1448.82 293.563,1448.82 296.14,1448.82 298.717,1448.82 301.294,1448.82 303.871,1448.82 
  306.449,1448.82 309.026,1448.82 311.603,1448.82 314.18,1448.82 316.758,1448.82 319.335,1448.82 321.912,1448.82 324.489,1448.82 327.066,1448.82 329.644,1448.82 
  332.221,1448.82 334.798,1448.82 337.375,1448.82 339.952,1448.82 342.53,1448.82 345.107,1448.82 347.684,1448.82 350.261,1448.82 352.838,1448.82 355.416,1448.82 
  357.993,1448.82 360.57,1448.82 363.147,1448.82 365.725,1448.82 368.302,1448.82 370.879,1448.82 373.456,1448.82 376.033,1448.82 378.611,1448.82 381.188,1448.82 
  383.765,1448.81 386.342,1448.81 388.919,1448.81 391.497,1448.81 394.074,1448.81 396.651,1448.81 399.228,1448.81 401.806,1448.81 404.383,1448.81 406.96,1448.81 
  409.537,1448.81 412.114,1448.81 414.692,1448.8 417.269,1448.8 419.846,1448.8 422.423,1448.8 425,1448.8 427.578,1448.79 430.155,1448.79 432.732,1448.79 
  435.309,1448.79 437.887,1448.78 440.464,1448.78 443.041,1448.78 445.618,1448.77 448.195,1448.77 450.773,1448.76 453.35,1448.76 455.927,1448.75 458.504,1448.75 
  461.081,1448.74 463.659,1448.73 466.236,1448.73 468.813,1448.72 471.39,1448.71 473.968,1448.7 476.545,1448.69 479.122,1448.68 481.699,1448.67 484.276,1448.65 
  486.854,1448.64 489.431,1448.63 492.008,1448.61 494.585,1448.59 497.162,1448.57 499.74,1448.55 502.317,1448.53 504.894,1448.51 507.471,1448.48 510.048,1448.46 
  512.626,1448.43 515.203,1448.4 517.78,1448.36 520.357,1448.33 522.935,1448.29 525.512,1448.25 528.089,1448.21 530.666,1448.16 533.243,1448.11 535.821,1448.06 
  538.398,1448 540.975,1447.94 543.552,1447.87 546.129,1447.8 548.707,1447.73 551.284,1447.65 553.861,1447.56 556.438,1447.47 559.016,1447.38 561.593,1447.28 
  564.17,1447.17 566.747,1447.05 569.324,1446.93 571.902,1446.8 574.479,1446.66 577.056,1446.51 579.633,1446.35 582.21,1446.18 584.788,1446.01 587.365,1445.82 
  589.942,1445.62 592.519,1445.41 595.097,1445.19 597.674,1444.95 600.251,1444.7 602.828,1444.44 605.405,1444.16 607.983,1443.86 610.56,1443.55 613.137,1443.22 
  615.714,1442.87 618.291,1442.51 620.869,1442.12 623.446,1441.71 626.023,1441.28 628.6,1440.83 631.178,1440.36 633.755,1439.86 636.332,1439.33 638.909,1438.78 
  641.486,1438.2 644.064,1437.59 646.641,1436.95 649.218,1436.28 651.795,1435.57 654.372,1434.83 656.95,1434.06 659.527,1433.25 662.104,1432.4 664.681,1431.52 
  667.258,1430.59 669.836,1429.62 672.413,1428.61 674.99,1427.55 677.567,1426.45 680.145,1425.29 682.722,1424.09 685.299,1422.84 687.876,1421.54 690.453,1420.18 
  693.031,1418.76 695.608,1417.29 698.185,1415.76 700.762,1414.17 703.339,1412.52 705.917,1410.8 708.494,1409.02 711.071,1407.17 713.648,1405.25 716.226,1403.27 
  718.803,1401.21 721.38,1399.08 723.957,1396.87 726.534,1394.59 729.112,1392.23 731.689,1389.79 734.266,1387.27 736.843,1384.66 739.42,1381.98 741.998,1379.21 
  744.575,1376.35 747.152,1373.41 749.729,1370.38 752.307,1367.26 754.884,1364.05 757.461,1360.75 760.038,1357.36 762.615,1353.87 765.193,1350.3 767.77,1346.62 
  770.347,1342.85 772.924,1338.99 775.501,1335.04 778.079,1330.98 780.656,1326.83 783.233,1322.59 785.81,1318.25 788.388,1313.82 790.965,1309.29 793.542,1304.66 
  796.119,1299.94 798.696,1295.13 801.274,1290.23 803.851,1285.24 806.428,1280.16 809.005,1274.98 811.582,1269.73 814.16,1264.38 816.737,1258.96 819.314,1253.45 
  821.891,1247.86 824.469,1242.19 827.046,1236.45 829.623,1230.64 832.2,1224.76 834.777,1218.81 837.355,1212.8 839.932,1206.73 842.509,1200.6 845.086,1194.42 
  847.663,1188.19 850.241,1181.91 852.818,1175.59 855.395,1169.23 857.972,1162.84 860.549,1156.42 863.127,1149.98 865.704,1143.52 868.281,1137.04 870.858,1130.55 
  873.436,1124.05 876.013,1117.56 878.59,1111.07 881.167,1104.59 883.744,1098.13 886.322,1091.69 888.899,1085.27 891.476,1078.89 894.053,1072.55 896.63,1066.25 
  899.208,1060 901.785,1053.81 904.362,1047.68 906.939,1041.62 909.517,1035.63 912.094,1029.72 914.671,1023.9 917.248,1018.16 919.825,1012.53 922.403,1007 
  924.98,1001.57 927.557,996.265 930.134,991.076 932.711,986.013 935.289,981.081 937.866,976.286 940.443,971.632 943.02,967.126 945.598,962.771 948.175,958.573 
  950.752,954.536 953.329,950.666 955.906,946.966 958.484,943.44 961.061,940.094 963.638,936.93 966.215,933.952 968.792,931.165 971.37,928.57 973.947,926.171 
  976.524,923.971 979.101,921.973 981.679,920.179 984.256,918.591 986.833,917.21 989.41,916.039 991.987,915.079 994.565,914.332 997.142,913.797 999.719,913.476 
  1002.3,913.369 1004.87,913.476 1007.45,913.797 1010.03,914.332 1012.61,915.079 1015.18,916.039 1017.76,917.21 1020.34,918.591 1022.91,920.179 1025.49,921.973 
  1028.07,923.971 1030.65,926.171 1033.22,928.57 1035.8,931.164 1038.38,933.952 1040.95,936.93 1043.53,940.094 1046.11,943.44 1048.69,946.966 1051.26,950.666 
  1053.84,954.536 1056.42,958.573 1058.99,962.771 1061.57,967.125 1064.15,971.632 1066.73,976.286 1069.3,981.081 1071.88,986.013 1074.46,991.076 1077.04,996.264 
  1079.61,1001.57 1082.19,1007 1084.77,1012.53 1087.34,1018.16 1089.92,1023.9 1092.5,1029.72 1095.08,1035.63 1097.65,1041.62 1100.23,1047.68 1102.81,1053.81 
  1105.38,1060 1107.96,1066.25 1110.54,1072.55 1113.12,1078.89 1115.69,1085.27 1118.27,1091.68 1120.85,1098.12 1123.43,1104.59 1126,1111.07 1128.58,1117.55 
  1131.16,1124.05 1133.73,1130.54 1136.31,1137.03 1138.89,1143.51 1141.47,1149.97 1144.04,1156.42 1146.62,1162.84 1149.2,1169.23 1151.77,1175.58 1154.35,1181.9 
  1156.93,1188.18 1159.51,1194.41 1162.08,1200.59 1164.66,1206.72 1167.24,1212.79 1169.82,1218.8 1172.39,1224.74 1174.97,1230.62 1177.55,1236.43 1180.12,1242.17 
  1182.7,1247.83 1185.28,1253.42 1187.86,1258.92 1190.43,1264.35 1193.01,1269.69 1195.59,1274.94 1198.16,1280.11 1200.74,1285.19 1203.32,1290.18 1205.9,1295.07 
  1208.47,1299.88 1211.05,1304.59 1213.63,1309.21 1216.2,1313.73 1218.78,1318.16 1221.36,1322.49 1223.94,1326.72 1226.51,1330.86 1229.09,1334.9 1231.67,1338.85 
  1234.25,1342.7 1236.82,1346.45 1239.4,1350.11 1241.98,1353.67 1244.55,1357.14 1247.13,1360.51 1249.71,1363.79 1252.29,1366.98 1254.86,1370.08 1257.44,1373.08 
  1260.02,1376 1262.59,1378.82 1265.17,1381.56 1267.75,1384.21 1270.33,1386.77 1272.9,1389.25 1275.48,1391.65 1278.06,1393.96 1280.64,1396.2 1283.21,1398.35 
  1285.79,1400.42 1288.37,1402.42 1290.94,1404.34 1293.52,1406.19 1296.1,1407.96 1298.68,1409.66 1301.25,1411.29 1303.83,1412.85 1306.41,1414.34 1308.98,1415.76 
  1311.56,1417.12 1314.14,1418.41 1316.72,1419.64 1319.29,1420.81 1321.87,1421.91 1324.45,1422.95 1327.03,1423.93 1329.6,1424.86 1332.18,1425.72 1334.76,1426.53 
  1337.33,1427.28 1339.91,1427.98 1342.49,1428.62 1345.07,1429.2 1347.64,1429.73 1350.22,1430.21 1352.8,1430.63 1355.37,1431 1357.95,1431.32 1360.53,1431.58 
  1363.11,1431.8 1365.68,1431.96 1368.26,1432.06 1370.84,1432.11 1373.41,1432.11 1375.99,1432.06 1378.57,1431.95 1381.15,1431.79 1383.72,1431.58 1386.3,1431.3 
  1388.88,1430.98 1391.46,1430.59 1394.03,1430.15 1396.61,1429.64 1399.19,1429.08 1401.76,1428.46 1404.34,1427.77 1406.92,1427.02 1409.5,1426.2 1412.07,1425.32 
  1414.65,1424.37 1417.23,1423.35 1419.8,1422.26 1422.38,1421.09 1424.96,1419.85 1427.54,1418.53 1430.11,1417.14 1432.69,1415.66 1435.27,1414.09 1437.85,1412.44 
  1440.42,1410.7 1443,1408.88 1445.58,1406.95 1448.15,1404.93 1450.73,1402.82 1453.31,1400.6 1455.89,1398.27 1458.46,1395.84 1461.04,1393.3 1463.62,1390.65 
  1466.19,1387.88 1468.77,1385 1471.35,1381.99 1473.93,1378.86 1476.5,1375.6 1479.08,1372.21 1481.66,1368.69 1484.24,1365.03 1486.81,1361.23 1489.39,1357.29 
  1491.97,1353.2 1494.54,1348.97 1497.12,1344.58 1499.7,1340.04 1502.28,1335.34 1504.85,1330.49 1507.43,1325.47 1510.01,1320.28 1512.58,1314.93 1515.16,1309.41 
  1517.74,1303.71 1520.32,1297.84 1522.89,1291.79 1525.47,1285.56 1528.05,1279.16 1530.62,1272.56 1533.2,1265.79 1535.78,1258.83 1538.36,1251.68 1540.93,1244.34 
  1543.51,1236.81 1546.09,1229.09 1548.67,1221.18 1551.24,1213.08 1553.82,1204.79 1556.4,1196.31 1558.97,1187.63 1561.55,1178.77 1564.13,1169.71 1566.71,1160.47 
  1569.28,1151.04 1571.86,1141.42 1574.44,1131.62 1577.01,1121.63 1579.59,1111.47 1582.17,1101.13 1584.75,1090.61 1587.32,1079.93 1589.9,1069.07 1592.48,1058.06 
  1595.06,1046.88 1597.63,1035.56 1600.21,1024.08 1602.79,1012.45 1605.36,1000.69 1607.94,988.797 1610.52,976.775 1613.1,964.633 1615.67,952.376 1618.25,940.013 
  1620.83,927.55 1623.4,914.996 1625.98,902.358 1628.56,889.644 1631.14,876.863 1633.71,864.024 1636.29,851.136 1638.87,838.208 1641.45,825.25 1644.02,812.272 
  1646.6,799.283 1649.18,786.294 1651.75,773.316 1654.33,760.359 1656.91,747.434 1659.49,734.552 1662.06,721.724 1664.64,708.962 1667.22,696.277 1669.79,683.681 
  1672.37,671.184 1674.95,658.8 1677.53,646.54 1680.1,634.415 1682.68,622.438 1685.26,610.619 1687.83,598.972 1690.41,587.507 1692.99,576.237 1695.57,565.173 
  1698.14,554.327 1700.72,543.709 1703.3,533.332 1705.88,523.206 1708.45,513.342 1711.03,503.752 1713.61,494.445 1716.18,485.431 1718.76,476.722 1721.34,468.325 
  1723.92,460.252 1726.49,452.511 1729.07,445.111 1731.65,438.061 1734.22,431.368 1736.8,425.04 1739.38,419.085 1741.96,413.509 1744.53,408.32 1747.11,403.522 
  1749.69,399.123 1752.27,395.126 1754.84,391.538 1757.42,388.361 1760,385.6 1762.57,383.259 1765.15,381.339 1767.73,379.843 1770.31,378.774 1772.88,378.132 
  1775.46,377.917 1778.04,378.132 1780.61,378.774 1783.19,379.843 1785.77,381.339 1788.35,383.259 1790.92,385.6 1793.5,388.361 1796.08,391.538 1798.66,395.126 
  1801.23,399.123 1803.81,403.522 1806.39,408.32 1808.96,413.509 1811.54,419.085 1814.12,425.04 1816.7,431.368 1819.27,438.061 1821.85,445.111 1824.43,452.511 
  1827,460.252 1829.58,468.326 1832.16,476.722 1834.74,485.431 1837.31,494.445 1839.89,503.752 1842.47,513.343 1845.04,523.206 1847.62,533.332 1850.2,543.71 
  1852.78,554.327 1855.35,565.174 1857.93,576.238 1860.51,587.508 1863.09,598.972 1865.66,610.62 1868.24,622.438 1870.82,634.416 1873.39,646.541 1875.97,658.801 
  1878.55,671.185 1881.13,683.681 1883.7,696.278 1886.28,708.963 1888.86,721.725 1891.43,734.553 1894.01,747.435 1896.59,760.36 1899.17,773.317 1901.74,786.296 
  1904.32,799.285 1906.9,812.274 1909.48,825.253 1912.05,838.211 1914.63,851.139 1917.21,864.028 1919.78,876.867 1922.36,889.648 1924.94,902.362 1927.52,915.001 
  1930.09,927.556 1932.67,940.019 1935.25,952.383 1937.82,964.64 1940.4,976.783 1942.98,988.806 1945.56,1000.7 1948.13,1012.46 1950.71,1024.09 1953.29,1035.57 
  1955.87,1046.9 1958.44,1058.07 1961.02,1069.09 1963.6,1079.95 1966.17,1090.63 1968.75,1101.15 1971.33,1111.49 1973.91,1121.66 1976.48,1131.64 1979.06,1141.45 
  1981.64,1151.07 1984.21,1160.5 1986.79,1169.75 1989.37,1178.81 1991.95,1187.68 1994.52,1196.36 1997.1,1204.85 1999.68,1213.14 2002.25,1221.25 2004.83,1229.17 
  2007.41,1236.89 2009.99,1244.42 2012.56,1251.77 2015.14,1258.93 2017.72,1265.9 2020.3,1272.68 2022.87,1279.29 2025.45,1285.7 2028.03,1291.94 2030.6,1298 
  2033.18,1303.89 2035.76,1309.6 2038.34,1315.14 2040.91,1320.51 2043.49,1325.71 2046.07,1330.75 2048.64,1335.63 2051.22,1340.35 2053.8,1344.92 2056.38,1349.33 
  2058.95,1353.59 2061.53,1357.71 2064.11,1361.69 2066.69,1365.52 2069.26,1369.22 2071.84,1372.78 2074.42,1376.21 2076.99,1379.52 2079.57,1382.7 2082.15,1385.76 
  2084.73,1388.71 2087.3,1391.53 2089.88,1394.25 2092.46,1396.86 2095.03,1399.37 2097.61,1401.77 2100.19,1404.07 2102.77,1406.28 2105.34,1408.39 2107.92,1410.42 
  2110.5,1412.36 2113.08,1414.21 2115.65,1415.99 2118.23,1417.68 2120.81,1419.3 2123.38,1420.85 2125.96,1422.32 2128.54,1423.73 2131.12,1425.07 2133.69,1426.35 
  2136.27,1427.57 2138.85,1428.73 2141.42,1429.84 2144,1430.89 2146.58,1431.89 2149.16,1432.84 2151.73,1433.74 2154.31,1434.6 2156.89,1435.42 2159.46,1436.19 
  2162.04,1436.92 2164.62,1437.62 2167.2,1438.28 2169.77,1438.9 2172.35,1439.49 2174.93,1440.05 2177.51,1440.58 2180.08,1441.08 2182.66,1441.55 2185.24,1442 
  2187.81,1442.42 2190.39,1442.82 2192.97,1443.19 2195.55,1443.55 2198.12,1443.88 2200.7,1444.2 2203.28,1444.49 2205.85,1444.77 2208.43,1445.03 2211.01,1445.28 
  2213.59,1445.51 2216.16,1445.73 2218.74,1445.94 2221.32,1446.13 2223.9,1446.31 2226.47,1446.48 2229.05,1446.64 2231.63,1446.79 2234.2,1446.92 2236.78,1447.06 
  2239.36,1447.18 2241.94,1447.29 2244.51,1447.4 2247.09,1447.5 2249.67,1447.59 2252.24,1447.68 2254.82,1447.76 2257.4,1447.84 2259.98,1447.91 2262.55,1447.97 
  2265.13,1448.04 2267.71,1448.09 2270.29,1448.15 2272.86,1448.2 2275.44,1448.24 2278.02,1448.29 2280.59,1448.33 2283.17,1448.36 2285.75,1448.4 2288.33,1448.43 
  2290.9,1448.46 
  "/>
<polyline clip-path="url(#clip2002)" style="stroke:#3da44d; stroke-width:4; stroke-opacity:1; fill:none" points="
  229.132,1448.82 231.709,1448.82 234.287,1448.82 236.864,1448.82 239.441,1448.82 242.018,1448.82 244.596,1448.82 247.173,1448.82 249.75,1448.82 252.327,1448.82 
  254.904,1448.82 257.482,1448.82 260.059,1448.82 262.636,1448.82 265.213,1448.82 267.79,1448.82 270.368,1448.82 272.945,1448.82 275.522,1448.82 278.099,1448.82 
  280.677,1448.82 283.254,1448.82 285.831,1448.82 288.408,1448.82 290.985,1448.82 293.563,1448.82 296.14,1448.82 298.717,1448.82 301.294,1448.82 303.871,1448.82 
  306.449,1448.82 309.026,1448.82 311.603,1448.82 314.18,1448.82 316.758,1448.82 319.335,1448.82 321.912,1448.82 324.489,1448.82 327.066,1448.82 329.644,1448.82 
  332.221,1448.82 334.798,1448.82 337.375,1448.82 339.952,1448.82 342.53,1448.82 345.107,1448.82 347.684,1448.82 350.261,1448.82 352.838,1448.82 355.416,1448.82 
  357.993,1448.82 360.57,1448.82 363.147,1448.82 365.725,1448.82 368.302,1448.82 370.879,1448.82 373.456,1448.82 376.033,1448.81 378.611,1448.81 381.188,1448.81 
  383.765,1448.81 386.342,1448.81 388.919,1448.81 391.497,1448.81 394.074,1448.81 396.651,1448.81 399.228,1448.81 401.806,1448.81 404.383,1448.81 406.96,1448.8 
  409.537,1448.8 412.114,1448.8 414.692,1448.8 417.269,1448.8 419.846,1448.79 422.423,1448.79 425,1448.79 427.578,1448.79 430.155,1448.78 432.732,1448.78 
  435.309,1448.78 437.887,1448.77 440.464,1448.77 443.041,1448.77 445.618,1448.76 448.195,1448.75 450.773,1448.75 453.35,1448.74 455.927,1448.74 458.504,1448.73 
  461.081,1448.72 463.659,1448.71 466.236,1448.7 468.813,1448.69 471.39,1448.68 473.968,1448.67 476.545,1448.66 479.122,1448.65 481.699,1448.63 484.276,1448.62 
  486.854,1448.6 489.431,1448.58 492.008,1448.56 494.585,1448.54 497.162,1448.52 499.74,1448.49 502.317,1448.47 504.894,1448.44 507.471,1448.41 510.048,1448.38 
  512.626,1448.34 515.203,1448.31 517.78,1448.27 520.357,1448.22 522.935,1448.18 525.512,1448.13 528.089,1448.08 530.666,1448.02 533.243,1447.97 535.821,1447.9 
  538.398,1447.83 540.975,1447.76 543.552,1447.69 546.129,1447.6 548.707,1447.52 551.284,1447.42 553.861,1447.33 556.438,1447.22 559.016,1447.11 561.593,1446.99 
  564.17,1446.86 566.747,1446.73 569.324,1446.58 571.902,1446.43 574.479,1446.27 577.056,1446.1 579.633,1445.92 582.21,1445.73 584.788,1445.52 587.365,1445.31 
  589.942,1445.08 592.519,1444.84 595.097,1444.58 597.674,1444.31 600.251,1444.03 602.828,1443.73 605.405,1443.41 607.983,1443.07 610.56,1442.72 613.137,1442.35 
  615.714,1441.95 618.291,1441.54 620.869,1441.1 623.446,1440.65 626.023,1440.16 628.6,1439.65 631.178,1439.12 633.755,1438.56 636.332,1437.97 638.909,1437.35 
  641.486,1436.71 644.064,1436.03 646.641,1435.31 649.218,1434.57 651.795,1433.79 654.372,1432.97 656.95,1432.11 659.527,1431.21 662.104,1430.28 664.681,1429.3 
  667.258,1428.28 669.836,1427.21 672.413,1426.1 674.99,1424.94 677.567,1423.73 680.145,1422.46 682.722,1421.15 685.299,1419.78 687.876,1418.36 690.453,1416.88 
  693.031,1415.34 695.608,1413.74 698.185,1412.08 700.762,1410.36 703.339,1408.57 705.917,1406.71 708.494,1404.79 711.071,1402.79 713.648,1400.73 716.226,1398.59 
  718.803,1396.38 721.38,1394.09 723.957,1391.72 726.534,1389.28 729.112,1386.76 731.689,1384.15 734.266,1381.47 736.843,1378.7 739.42,1375.84 741.998,1372.9 
  744.575,1369.87 747.152,1366.75 749.729,1363.54 752.307,1360.25 754.884,1356.86 757.461,1353.38 760.038,1349.81 762.615,1346.14 765.193,1342.38 767.77,1338.53 
  770.347,1334.58 772.924,1330.54 775.501,1326.41 778.079,1322.18 780.656,1317.85 783.233,1313.43 785.81,1308.92 788.388,1304.32 790.965,1299.62 793.542,1294.83 
  796.119,1289.95 798.696,1284.99 801.274,1279.93 803.851,1274.78 806.428,1269.55 809.005,1264.24 811.582,1258.85 814.16,1253.37 816.737,1247.82 819.314,1242.19 
  821.891,1236.48 824.469,1230.71 827.046,1224.87 829.623,1218.96 832.2,1212.99 834.777,1206.96 837.355,1200.88 839.932,1194.74 842.509,1188.56 845.086,1182.33 
  847.663,1176.05 850.241,1169.75 852.818,1163.41 855.395,1157.04 857.972,1150.64 860.549,1144.23 863.127,1137.81 865.704,1131.37 868.281,1124.93 870.858,1118.49 
  873.436,1112.06 876.013,1105.63 878.59,1099.22 881.167,1092.84 883.744,1086.48 886.322,1080.15 888.899,1073.86 891.476,1067.62 894.053,1061.43 896.63,1055.29 
  899.208,1049.21 901.785,1043.2 904.362,1037.26 906.939,1031.4 909.517,1025.63 912.094,1019.94 914.671,1014.36 917.248,1008.87 919.825,1003.49 922.403,998.226 
  924.98,993.079 927.557,988.056 930.134,983.162 932.711,978.403 935.289,973.783 937.866,969.309 940.443,964.984 943.02,960.814 945.598,956.804 948.175,952.957 
  950.752,949.278 953.329,945.771 955.906,942.441 958.484,939.291 961.061,936.325 963.638,933.545 966.215,930.957 968.792,928.561 971.37,926.362 973.947,924.362 
  976.524,922.563 979.101,920.967 981.679,919.576 984.256,918.392 986.833,917.416 989.41,916.649 991.987,916.093 994.565,915.748 997.142,915.614 999.719,915.691 
  1002.3,915.98 1004.87,916.48 1007.45,917.191 1010.03,918.111 1012.61,919.239 1015.18,920.575 1017.76,922.116 1020.34,923.862 1022.91,925.808 1025.49,927.955 
  1028.07,930.298 1030.65,932.835 1033.22,935.564 1035.8,938.481 1038.38,941.582 1040.95,944.865 1043.53,948.324 1046.11,951.958 1048.69,955.76 1051.26,959.728 
  1053.84,963.855 1056.42,968.139 1058.99,972.574 1061.57,977.155 1064.15,981.877 1066.73,986.736 1069.3,991.725 1071.88,996.84 1074.46,1002.07 1077.04,1007.42 
  1079.61,1012.88 1082.19,1018.44 1084.77,1024.1 1087.34,1029.85 1089.92,1035.69 1092.5,1041.61 1095.08,1047.6 1097.65,1053.66 1100.23,1059.78 1102.81,1065.96 
  1105.38,1072.19 1107.96,1078.47 1110.54,1084.78 1113.12,1091.13 1115.69,1097.51 1118.27,1103.92 1120.85,1110.33 1123.43,1116.77 1126,1123.21 1128.58,1129.65 
  1131.16,1136.08 1133.73,1142.51 1136.31,1148.93 1138.89,1155.32 1141.47,1161.7 1144.04,1168.05 1146.62,1174.36 1149.2,1180.64 1151.77,1186.88 1154.35,1193.08 
  1156.93,1199.23 1159.51,1205.33 1162.08,1211.37 1164.66,1217.35 1167.24,1223.28 1169.82,1229.13 1172.39,1234.92 1174.97,1240.64 1177.55,1246.29 1180.12,1251.86 
  1182.7,1257.35 1185.28,1262.77 1187.86,1268.1 1190.43,1273.35 1193.01,1278.51 1195.59,1283.59 1198.16,1288.57 1200.74,1293.47 1203.32,1298.28 1205.9,1302.99 
  1208.47,1307.61 1211.05,1312.14 1213.63,1316.57 1216.2,1320.91 1218.78,1325.16 1221.36,1329.31 1223.94,1333.36 1226.51,1337.32 1229.09,1341.18 1231.67,1344.95 
  1234.25,1348.63 1236.82,1352.2 1239.4,1355.69 1241.98,1359.08 1244.55,1362.38 1247.13,1365.59 1249.71,1368.7 1252.29,1371.73 1254.86,1374.66 1257.44,1377.51 
  1260.02,1380.27 1262.59,1382.94 1265.17,1385.52 1267.75,1388.02 1270.33,1390.44 1272.9,1392.77 1275.48,1395.03 1278.06,1397.2 1280.64,1399.3 1283.21,1401.31 
  1285.79,1403.25 1288.37,1405.12 1290.94,1406.91 1293.52,1408.63 1296.1,1410.27 1298.68,1411.85 1301.25,1413.36 1303.83,1414.8 1306.41,1416.17 1308.98,1417.47 
  1311.56,1418.71 1314.14,1419.89 1316.72,1421.01 1319.29,1422.06 1321.87,1423.05 1324.45,1423.98 1327.03,1424.85 1329.6,1425.66 1332.18,1426.42 1334.76,1427.12 
  1337.33,1427.76 1339.91,1428.34 1342.49,1428.87 1345.07,1429.35 1347.64,1429.77 1350.22,1430.13 1352.8,1430.44 1355.37,1430.7 1357.95,1430.9 1360.53,1431.04 
  1363.11,1431.14 1365.68,1431.17 1368.26,1431.15 1370.84,1431.08 1373.41,1430.95 1375.99,1430.77 1378.57,1430.53 1381.15,1430.23 1383.72,1429.87 1386.3,1429.45 
  1388.88,1428.97 1391.46,1428.44 1394.03,1427.83 1396.61,1427.17 1399.19,1426.44 1401.76,1425.65 1404.34,1424.78 1406.92,1423.85 1409.5,1422.85 1412.07,1421.78 
  1414.65,1420.63 1417.23,1419.4 1419.8,1418.1 1422.38,1416.72 1424.96,1415.25 1427.54,1413.71 1430.11,1412.07 1432.69,1410.35 1435.27,1408.53 1437.85,1406.62 
  1440.42,1404.62 1443,1402.52 1445.58,1400.31 1448.15,1398.01 1450.73,1395.59 1453.31,1393.07 1455.89,1390.43 1458.46,1387.68 1461.04,1384.81 1463.62,1381.83 
  1466.19,1378.71 1468.77,1375.47 1471.35,1372.11 1473.93,1368.61 1476.5,1364.97 1479.08,1361.19 1481.66,1357.28 1484.24,1353.22 1486.81,1349.01 1489.39,1344.65 
  1491.97,1340.14 1494.54,1335.48 1497.12,1330.66 1499.7,1325.67 1502.28,1320.52 1504.85,1315.21 1507.43,1309.73 1510.01,1304.07 1512.58,1298.25 1515.16,1292.24 
  1517.74,1286.06 1520.32,1279.71 1522.89,1273.17 1525.47,1266.44 1528.05,1259.54 1530.62,1252.45 1533.2,1245.17 1535.78,1237.7 1538.36,1230.05 1540.93,1222.21 
  1543.51,1214.18 1546.09,1205.96 1548.67,1197.55 1551.24,1188.95 1553.82,1180.16 1556.4,1171.18 1558.97,1162.02 1561.55,1152.67 1564.13,1143.14 1566.71,1133.43 
  1569.28,1123.53 1571.86,1113.46 1574.44,1103.22 1577.01,1092.8 1579.59,1082.21 1582.17,1071.46 1584.75,1060.54 1587.32,1049.47 1589.9,1038.24 1592.48,1026.87 
  1595.06,1015.35 1597.63,1003.69 1600.21,991.907 1602.79,979.993 1605.36,967.959 1607.94,955.812 1610.52,943.558 1613.1,931.205 1615.67,918.76 1618.25,906.231 
  1620.83,893.626 1623.4,880.954 1625.98,868.222 1628.56,855.441 1631.14,842.618 1633.71,829.764 1636.29,816.889 1638.87,804.001 1641.45,791.111 1644.02,778.23 
  1646.6,765.367 1649.18,752.534 1651.75,739.742 1654.33,727 1656.91,714.321 1659.49,701.716 1662.06,689.196 1664.64,676.773 1667.22,664.457 1669.79,652.261 
  1672.37,640.196 1674.95,628.274 1677.53,616.507 1680.1,604.905 1682.68,593.481 1685.26,582.246 1687.83,571.212 1690.41,560.39 1692.99,549.792 1695.57,539.427 
  1698.14,529.308 1700.72,519.445 1703.3,509.849 1705.88,500.53 1708.45,491.498 1711.03,482.764 1713.61,474.336 1716.18,466.225 1718.76,458.44 1721.34,450.988 
  1723.92,443.879 1726.49,437.121 1729.07,430.722 1731.65,424.688 1734.22,419.027 1736.8,413.745 1739.38,408.849 1741.96,404.345 1744.53,400.237 1747.11,396.53 
  1749.69,393.229 1752.27,390.337 1754.84,387.859 1757.42,385.796 1760,384.152 1762.57,382.928 1765.15,382.126 1767.73,381.747 1770.31,381.791 1772.88,382.258 
  1775.46,383.148 1778.04,384.46 1780.61,386.191 1783.19,388.34 1785.77,390.905 1788.35,393.882 1790.92,397.268 1793.5,401.059 1796.08,405.25 1798.66,409.837 
  1801.23,414.814 1803.81,420.175 1806.39,425.914 1808.96,432.024 1811.54,438.499 1814.12,445.331 1816.7,452.512 1819.27,460.033 1821.85,467.888 1824.43,476.065 
  1827,484.558 1829.58,493.355 1832.16,502.447 1834.74,511.825 1837.31,521.477 1839.89,531.395 1842.47,541.566 1845.04,551.98 1847.62,562.626 1850.2,573.493 
  1852.78,584.57 1855.35,595.845 1857.93,607.307 1860.51,618.944 1863.09,630.745 1865.66,642.697 1868.24,654.791 1870.82,667.013 1873.39,679.352 1875.97,691.796 
  1878.55,704.335 1881.13,716.957 1883.7,729.65 1886.28,742.403 1888.86,755.205 1891.43,768.045 1894.01,780.913 1896.59,793.797 1899.17,806.687 1901.74,819.574 
  1904.32,832.446 1906.9,845.294 1909.48,858.109 1912.05,870.882 1914.63,883.602 1917.21,896.262 1919.78,908.852 1922.36,921.365 1924.94,933.792 1927.52,946.125 
  1930.09,958.358 1932.67,970.483 1935.25,982.494 1937.82,994.383 1940.4,1006.14 1942.98,1017.77 1945.56,1029.26 1948.13,1040.61 1950.71,1051.8 1953.29,1062.84 
  1955.87,1073.73 1958.44,1084.45 1961.02,1095 1963.6,1105.39 1966.17,1115.6 1968.75,1125.64 1971.33,1135.5 1973.91,1145.18 1976.48,1154.68 1979.06,1163.99 
  1981.64,1173.12 1984.21,1182.06 1986.79,1190.81 1989.37,1199.37 1991.95,1207.75 1994.52,1215.94 1997.1,1223.94 1999.68,1231.75 2002.25,1239.37 2004.83,1246.8 
  2007.41,1254.05 2009.99,1261.11 2012.56,1267.99 2015.14,1274.69 2017.72,1281.2 2020.3,1287.53 2022.87,1293.69 2025.45,1299.67 2028.03,1305.48 2030.6,1311.11 
  2033.18,1316.58 2035.76,1321.88 2038.34,1327.01 2040.91,1331.99 2043.49,1336.8 2046.07,1341.46 2048.64,1345.97 2051.22,1350.32 2053.8,1354.53 2056.38,1358.6 
  2058.95,1362.52 2061.53,1366.31 2064.11,1369.96 2066.69,1373.48 2069.26,1376.87 2071.84,1380.14 2074.42,1383.28 2076.99,1386.31 2079.57,1389.21 2082.15,1392.01 
  2084.73,1394.7 2087.3,1397.28 2089.88,1399.75 2092.46,1402.13 2095.03,1404.41 2097.61,1406.59 2100.19,1408.68 2102.77,1410.69 2105.34,1412.6 2107.92,1414.44 
  2110.5,1416.19 2113.08,1417.87 2115.65,1419.48 2118.23,1421.01 2120.81,1422.47 2123.38,1423.86 2125.96,1425.19 2128.54,1426.46 2131.12,1427.67 2133.69,1428.82 
  2136.27,1429.92 2138.85,1430.96 2141.42,1431.95 2144,1432.9 2146.58,1433.79 2149.16,1434.65 2151.73,1435.45 2154.31,1436.22 2156.89,1436.95 2159.46,1437.64 
  2162.04,1438.3 2164.62,1438.92 2167.2,1439.5 2169.77,1440.06 2172.35,1440.59 2174.93,1441.08 2177.51,1441.55 2180.08,1442 2182.66,1442.42 2185.24,1442.81 
  2187.81,1443.19 2190.39,1443.54 2192.97,1443.87 2195.55,1444.19 2198.12,1444.48 2200.7,1444.76 2203.28,1445.02 2205.85,1445.27 2208.43,1445.5 2211.01,1445.72 
  2213.59,1445.92 2216.16,1446.12 2218.74,1446.3 2221.32,1446.47 2223.9,1446.62 2226.47,1446.77 2229.05,1446.91 2231.63,1447.04 2234.2,1447.17 2236.78,1447.28 
  2239.36,1447.39 2241.94,1447.49 2244.51,1447.58 2247.09,1447.67 2249.67,1447.75 2252.24,1447.83 2254.82,1447.9 2257.4,1447.97 2259.98,1448.03 2262.55,1448.09 
  2265.13,1448.14 2267.71,1448.19 2270.29,1448.24 2272.86,1448.28 2275.44,1448.32 2278.02,1448.36 2280.59,1448.39 2283.17,1448.43 2285.75,1448.46 2288.33,1448.48 
  2290.9,1448.51 
  "/>
<path clip-path="url(#clip2000)" d="
M1893.61 447.115 L2280.76 447.115 L2280.76 205.195 L1893.61 205.195  Z
  " fill="#ffffff" fill-rule="evenodd" fill-opacity="1"/>
<polyline clip-path="url(#clip2000)" style="stroke:#000000; stroke-width:4; stroke-opacity:1; fill:none" points="
  1893.61,447.115 2280.76,447.115 2280.76,205.195 1893.61,205.195 1893.61,447.115 
  "/>
<polyline clip-path="url(#clip2000)" style="stroke:#009af9; stroke-width:4; stroke-opacity:1; fill:none" points="
  1917.61,265.675 2061.61,265.675 
  "/>
<g clip-path="url(#clip2000)">
<text style="fill:#000000; fill-opacity:1; font-family:Arial,Helvetica Neue,Helvetica,sans-serif; font-size:48px; text-anchor:start;" transform="rotate(0, 2085.61, 283.175)" x="2085.61" y="283.175">Data</text>
</g>
<polyline clip-path="url(#clip2000)" style="stroke:#e26f46; stroke-width:4; stroke-opacity:1; fill:none" points="
  1917.61,326.155 2061.61,326.155 
  "/>
<g clip-path="url(#clip2000)">
<text style="fill:#000000; fill-opacity:1; font-family:Arial,Helvetica Neue,Helvetica,sans-serif; font-size:48px; text-anchor:start;" transform="rotate(0, 2085.61, 343.655)" x="2085.61" y="343.655">Truth</text>
</g>
<polyline clip-path="url(#clip2000)" style="stroke:#3da44d; stroke-width:4; stroke-opacity:1; fill:none" points="
  1917.61,386.635 2061.61,386.635 
  "/>
<g clip-path="url(#clip2000)">
<text style="fill:#000000; fill-opacity:1; font-family:Arial,Helvetica Neue,Helvetica,sans-serif; font-size:48px; text-anchor:start;" transform="rotate(0, 2085.61, 404.135)" x="2085.61" y="404.135">Best fit</text>
</g>
</svg>
