<?xml version="1.0" encoding="utf-8"?>
<svg xmlns="http://www.w3.org/2000/svg" xmlns:xlink="http://www.w3.org/1999/xlink" width="600" height="400" viewBox="0 0 2400 1600">
<defs>
  <clipPath id="clip2300">
    <rect x="0" y="0" width="2400" height="1600"/>
  </clipPath>
</defs>
<path clip-path="url(#clip2300)" d="
M0 1600 L2400 1600 L2400 0 L0 0  Z
  " fill="#ffffff" fill-rule="evenodd" fill-opacity="1"/>
<defs>
  <clipPath id="clip2301">
    <rect x="480" y="0" width="1681" height="1600"/>
  </clipPath>
</defs>
<path clip-path="url(#clip2300)" d="
M202.373 1425.62 L2352.76 1425.62 L2352.76 121.675 L202.373 121.675  Z
  " fill="#ffffff" fill-rule="evenodd" fill-opacity="1"/>
<defs>
  <clipPath id="clip2302">
    <rect x="202" y="121" width="2151" height="1305"/>
  </clipPath>
</defs>
<polyline clip-path="url(#clip2302)" style="stroke:#000000; stroke-width:2; stroke-opacity:0.1; fill:none" points="
  307.334,1425.62 307.334,121.675 
  "/>
<polyline clip-path="url(#clip2302)" style="stroke:#000000; stroke-width:2; stroke-opacity:0.1; fill:none" points="
  748.348,1425.62 748.348,121.675 
  "/>
<polyline clip-path="url(#clip2302)" style="stroke:#000000; stroke-width:2; stroke-opacity:0.1; fill:none" points="
  1189.36,1425.62 1189.36,121.675 
  "/>
<polyline clip-path="url(#clip2302)" style="stroke:#000000; stroke-width:2; stroke-opacity:0.1; fill:none" points="
  1630.38,1425.62 1630.38,121.675 
  "/>
<polyline clip-path="url(#clip2302)" style="stroke:#000000; stroke-width:2; stroke-opacity:0.1; fill:none" points="
  2071.39,1425.62 2071.39,121.675 
  "/>
<polyline clip-path="url(#clip2302)" style="stroke:#000000; stroke-width:2; stroke-opacity:0.1; fill:none" points="
  202.373,1388.71 2352.76,1388.71 
  "/>
<polyline clip-path="url(#clip2302)" style="stroke:#000000; stroke-width:2; stroke-opacity:0.1; fill:none" points="
  202.373,1007.64 2352.76,1007.64 
  "/>
<polyline clip-path="url(#clip2302)" style="stroke:#000000; stroke-width:2; stroke-opacity:0.1; fill:none" points="
  202.373,626.568 2352.76,626.568 
  "/>
<polyline clip-path="url(#clip2302)" style="stroke:#000000; stroke-width:2; stroke-opacity:0.1; fill:none" points="
  202.373,245.494 2352.76,245.494 
  "/>
<polyline clip-path="url(#clip2300)" style="stroke:#000000; stroke-width:4; stroke-opacity:1; fill:none" points="
  202.373,1425.62 2352.76,1425.62 
  "/>
<polyline clip-path="url(#clip2300)" style="stroke:#000000; stroke-width:4; stroke-opacity:1; fill:none" points="
  202.373,1425.62 202.373,121.675 
  "/>
<polyline clip-path="url(#clip2300)" style="stroke:#000000; stroke-width:4; stroke-opacity:1; fill:none" points="
  307.334,1425.62 307.334,1406.06 
  "/>
<polyline clip-path="url(#clip2300)" style="stroke:#000000; stroke-width:4; stroke-opacity:1; fill:none" points="
  748.348,1425.62 748.348,1406.06 
  "/>
<polyline clip-path="url(#clip2300)" style="stroke:#000000; stroke-width:4; stroke-opacity:1; fill:none" points="
  1189.36,1425.62 1189.36,1406.06 
  "/>
<polyline clip-path="url(#clip2300)" style="stroke:#000000; stroke-width:4; stroke-opacity:1; fill:none" points="
  1630.38,1425.62 1630.38,1406.06 
  "/>
<polyline clip-path="url(#clip2300)" style="stroke:#000000; stroke-width:4; stroke-opacity:1; fill:none" points="
  2071.39,1425.62 2071.39,1406.06 
  "/>
<polyline clip-path="url(#clip2300)" style="stroke:#000000; stroke-width:4; stroke-opacity:1; fill:none" points="
  202.373,1388.71 234.629,1388.71 
  "/>
<polyline clip-path="url(#clip2300)" style="stroke:#000000; stroke-width:4; stroke-opacity:1; fill:none" points="
  202.373,1007.64 234.629,1007.64 
  "/>
<polyline clip-path="url(#clip2300)" style="stroke:#000000; stroke-width:4; stroke-opacity:1; fill:none" points="
  202.373,626.568 234.629,626.568 
  "/>
<polyline clip-path="url(#clip2300)" style="stroke:#000000; stroke-width:4; stroke-opacity:1; fill:none" points="
  202.373,245.494 234.629,245.494 
  "/>
<g clip-path="url(#clip2300)">
<text style="fill:#000000; fill-opacity:1; font-family:Arial,Helvetica Neue,Helvetica,sans-serif; font-size:48px; text-anchor:middle;" transform="rotate(0, 307.334, 1479.62)" x="307.334" y="1479.62">-1.15</text>
</g>
<g clip-path="url(#clip2300)">
<text style="fill:#000000; fill-opacity:1; font-family:Arial,Helvetica Neue,Helvetica,sans-serif; font-size:48px; text-anchor:middle;" transform="rotate(0, 748.348, 1479.62)" x="748.348" y="1479.62">-1.10</text>
</g>
<g clip-path="url(#clip2300)">
<text style="fill:#000000; fill-opacity:1; font-family:Arial,Helvetica Neue,Helvetica,sans-serif; font-size:48px; text-anchor:middle;" transform="rotate(0, 1189.36, 1479.62)" x="1189.36" y="1479.62">-1.05</text>
</g>
<g clip-path="url(#clip2300)">
<text style="fill:#000000; fill-opacity:1; font-family:Arial,Helvetica Neue,Helvetica,sans-serif; font-size:48px; text-anchor:middle;" transform="rotate(0, 1630.38, 1479.62)" x="1630.38" y="1479.62">-1.00</text>
</g>
<g clip-path="url(#clip2300)">
<text style="fill:#000000; fill-opacity:1; font-family:Arial,Helvetica Neue,Helvetica,sans-serif; font-size:48px; text-anchor:middle;" transform="rotate(0, 2071.39, 1479.62)" x="2071.39" y="1479.62">-0.95</text>
</g>
<g clip-path="url(#clip2300)">
<text style="fill:#000000; fill-opacity:1; font-family:Arial,Helvetica Neue,Helvetica,sans-serif; font-size:48px; text-anchor:end;" transform="rotate(0, 178.373, 1406.21)" x="178.373" y="1406.21">0</text>
</g>
<g clip-path="url(#clip2300)">
<text style="fill:#000000; fill-opacity:1; font-family:Arial,Helvetica Neue,Helvetica,sans-serif; font-size:48px; text-anchor:end;" transform="rotate(0, 178.373, 1025.14)" x="178.373" y="1025.14">5</text>
</g>
<g clip-path="url(#clip2300)">
<text style="fill:#000000; fill-opacity:1; font-family:Arial,Helvetica Neue,Helvetica,sans-serif; font-size:48px; text-anchor:end;" transform="rotate(0, 178.373, 644.068)" x="178.373" y="644.068">10</text>
</g>
<g clip-path="url(#clip2300)">
<text style="fill:#000000; fill-opacity:1; font-family:Arial,Helvetica Neue,Helvetica,sans-serif; font-size:48px; text-anchor:end;" transform="rotate(0, 178.373, 262.994)" x="178.373" y="262.994">15</text>
</g>
<g clip-path="url(#clip2300)">
<text style="fill:#000000; fill-opacity:1; font-family:Arial,Helvetica Neue,Helvetica,sans-serif; font-size:84px; text-anchor:middle;" transform="rotate(0, 1277.56, 73.2)" x="1277.56" y="73.2">Marginalized Distribution for mu_1</text>
</g>
<g clip-path="url(#clip2300)">
<text style="fill:#000000; fill-opacity:1; font-family:Arial,Helvetica Neue,Helvetica,sans-serif; font-size:66px; text-anchor:middle;" transform="rotate(0, 1277.56, 1559.48)" x="1277.56" y="1559.48">mu_1</text>
</g>
<g clip-path="url(#clip2300)">
<text style="fill:#000000; fill-opacity:1; font-family:Arial,Helvetica Neue,Helvetica,sans-serif; font-size:66px; text-anchor:middle;" transform="rotate(-90, 89.2861, 773.647)" x="89.2861" y="773.647">P(mu_1)</text>
</g>
<path clip-path="url(#clip2302)" d="
M263.233 1388.71 L307.334 1388.71 L307.334 1388.71 L351.436 1388.71 L351.436 1388.71 L395.537 1388.71 L395.537 1388.71 L439.638 1388.71 L439.638 1388.71 L483.74 1388.71 
  L483.74 1388.71 L527.841 1388.71 L527.841 1388.71 L571.942 1388.71 L571.942 1388.71 L616.044 1388.71 L616.044 1388.71 L660.145 1388.71 L660.145 1367.41 L704.247 1367.41 
  L704.247 1357.14 L748.348 1357.14 L748.348 1349.91 L792.449 1349.91 L792.449 1321.63 L836.551 1321.63 L836.551 1295.38 L880.652 1295.38 L880.652 1250.36 L924.753 1250.36 
  L924.753 1189.62 L968.855 1189.62 L968.855 1075.24 L1012.96 1075.24 L1012.96 962.122 L1057.06 962.122 L1057.06 895.927 L1101.16 895.927 L1101.16 771.272 L1145.26 771.272 
  L1145.26 662.214 L1189.36 662.214 L1189.36 475.675 L1233.46 475.675 L1233.46 396.038 L1277.56 396.038 L1277.56 276.709 L1321.67 276.709 L1321.67 270.749 L1365.77 270.749 
  L1365.77 194.408 L1409.87 194.408 L1409.87 255.151 L1453.97 255.151 L1453.97 335.295 L1498.07 335.295 L1498.07 416.074 L1542.17 416.074 L1542.17 506.49 L1586.27 506.49 
  L1586.27 684.279 L1630.38 684.279 L1630.38 835.438 L1674.48 835.438 L1674.48 969.477 L1718.58 969.477 L1718.58 1069.78 L1762.68 1069.78 L1762.68 1134.33 L1806.78 1134.33 
  L1806.78 1225.51 L1850.88 1225.51 L1850.88 1292.59 L1894.98 1292.59 L1894.98 1316.56 L1939.09 1316.56 L1939.09 1350.92 L1983.19 1350.92 L1983.19 1358.91 L2027.29 1358.91 
  L2027.29 1377.05 L2071.39 1377.05 L2071.39 1388.71 L2115.49 1388.71 L2115.49 1388.71 L2159.59 1388.71 L2159.59 1388.71 L2203.69 1388.71 L2203.69 1388.71 L2247.79 1388.71 
  L2247.79 1388.71 L2291.9 1388.71 L2291.9 1388.71 L2291.9 1388.71 L2291.9 1388.71 L2247.79 1388.71 L2247.79 1388.71 L2203.69 1388.71 L2203.69 1388.71 L2159.59 1388.71 
  L2159.59 1388.71 L2115.49 1388.71 L2115.49 1388.71 L2071.39 1388.71 L2071.39 1388.71 L2027.29 1388.71 L2027.29 1388.71 L1983.19 1388.71 L1983.19 1388.71 L1939.09 1388.71 
  L1939.09 1388.71 L1894.98 1388.71 L1894.98 1388.71 L1850.88 1388.71 L1850.88 1388.71 L1806.78 1388.71 L1806.78 1388.71 L1762.68 1388.71 L1762.68 1388.71 L1718.58 1388.71 
  L1718.58 1388.71 L1674.48 1388.71 L1674.48 1388.71 L1630.38 1388.71 L1630.38 1388.71 L1586.27 1388.71 L1586.27 1388.71 L1542.17 1388.71 L1542.17 1388.71 L1498.07 1388.71 
  L1498.07 1388.71 L1453.97 1388.71 L1453.97 1388.71 L1409.87 1388.71 L1409.87 1388.71 L1365.77 1388.71 L1365.77 1388.71 L1321.67 1388.71 L1321.67 1388.71 L1277.56 1388.71 
  L1277.56 1388.71 L1233.46 1388.71 L1233.46 1388.71 L1189.36 1388.71 L1189.36 1388.71 L1145.26 1388.71 L1145.26 1388.71 L1101.16 1388.71 L1101.16 1388.71 L1057.06 1388.71 
  L1057.06 1388.71 L1012.96 1388.71 L1012.96 1388.71 L968.855 1388.71 L968.855 1388.71 L924.753 1388.71 L924.753 1388.71 L880.652 1388.71 L880.652 1388.71 L836.551 1388.71 
  L836.551 1388.71 L792.449 1388.71 L792.449 1388.71 L748.348 1388.71 L748.348 1388.71 L704.247 1388.71 L704.247 1388.71 L660.145 1388.71 L660.145 1388.71 L616.044 1388.71 
  L616.044 1388.71 L571.942 1388.71 L571.942 1388.71 L527.841 1388.71 L527.841 1388.71 L483.74 1388.71 L483.74 1388.71 L439.638 1388.71 L439.638 1388.71 L395.537 1388.71 
  L395.537 1388.71 L351.436 1388.71 L351.436 1388.71 L307.334 1388.71 L307.334 1388.71 L263.233 1388.71  Z
  " fill="#ff0000" fill-rule="evenodd" fill-opacity="1"/>
<polyline clip-path="url(#clip2302)" style="stroke:#009af9; stroke-width:0; stroke-opacity:1; fill:none" points="
  263.233,1388.71 307.334,1388.71 351.436,1388.71 395.537,1388.71 439.638,1388.71 483.74,1388.71 
  527.841,1388.71 571.942,1388.71 616.044,1388.71 660.145,1388.71 660.145,1367.41 704.247,1367.41 
  704.247,1357.14 748.348,1357.14 748.348,1349.91 792.449,1349.91 792.449,1321.63 836.551,1321.63 836.551,1295.38 880.652,1295.38 880.652,1250.36 924.753,1250.36 
  924.753,1189.62 968.855,1189.62 968.855,1075.24 1012.96,1075.24 1012.96,962.122 1057.06,962.122 1057.06,895.927 1101.16,895.927 1101.16,771.272 1145.26,771.272 
  1145.26,662.214 1189.36,662.214 1189.36,475.675 1233.46,475.675 1233.46,396.038 1277.56,396.038 1277.56,276.709 1321.67,276.709 1321.67,270.749 1365.77,270.749 
  1365.77,194.408 1409.87,194.408 1409.87,255.151 1453.97,255.151 1453.97,335.295 1498.07,335.295 1498.07,416.074 1542.17,416.074 1542.17,506.49 1586.27,506.49 
  1586.27,684.279 1630.38,684.279 1630.38,835.438 1674.48,835.438 1674.48,969.477 1718.58,969.477 1718.58,1069.78 1762.68,1069.78 1762.68,1134.33 1806.78,1134.33 
  1806.78,1225.51 1850.88,1225.51 1850.88,1292.59 1894.98,1292.59 1894.98,1316.56 1939.09,1316.56 1939.09,1350.92 1983.19,1350.92 1983.19,1358.91 2027.29,1358.91 
  2027.29,1377.05 2071.39,1377.05 2071.39,1388.71 2115.49,1388.71 2159.59,1388.71 2203.69,1388.71 2247.79,1388.71 
  2291.9,1388.71 
  "/>
<path clip-path="url(#clip2302)" d="
M263.233 1388.71 L307.334 1388.71 L307.334 1388.71 L351.436 1388.71 L351.436 1388.71 L395.537 1388.71 L395.537 1388.71 L439.638 1388.71 L439.638 1388.71 L483.74 1388.71 
  L483.74 1388.71 L527.841 1388.71 L527.841 1388.71 L571.942 1388.71 L571.942 1388.71 L616.044 1388.71 L616.044 1388.71 L660.145 1388.71 L660.145 1388.71 L704.247 1388.71 
  L704.247 1388.71 L748.348 1388.71 L748.348 1388.71 L792.449 1388.71 L792.449 1388.71 L836.551 1388.71 L836.551 1388.71 L880.652 1388.71 L880.652 1388.71 L924.753 1388.71 
  L924.753 1189.62 L968.855 1189.62 L968.855 1075.24 L1012.96 1075.24 L1012.96 962.122 L1057.06 962.122 L1057.06 895.927 L1101.16 895.927 L1101.16 771.272 L1145.26 771.272 
  L1145.26 662.214 L1189.36 662.214 L1189.36 475.675 L1233.46 475.675 L1233.46 396.038 L1277.56 396.038 L1277.56 276.709 L1321.67 276.709 L1321.67 270.749 L1365.77 270.749 
  L1365.77 194.408 L1409.87 194.408 L1409.87 255.151 L1453.97 255.151 L1453.97 335.295 L1498.07 335.295 L1498.07 416.074 L1542.17 416.074 L1542.17 506.49 L1586.27 506.49 
  L1586.27 684.279 L1630.38 684.279 L1630.38 835.438 L1674.48 835.438 L1674.48 969.477 L1718.58 969.477 L1718.58 1069.78 L1762.68 1069.78 L1762.68 1134.33 L1806.78 1134.33 
  L1806.78 1225.51 L1850.88 1225.51 L1850.88 1388.71 L1894.98 1388.71 L1894.98 1388.71 L1939.09 1388.71 L1939.09 1388.71 L1983.19 1388.71 L1983.19 1388.71 L2027.29 1388.71 
  L2027.29 1388.71 L2071.39 1388.71 L2071.39 1388.71 L2115.49 1388.71 L2115.49 1388.71 L2159.59 1388.71 L2159.59 1388.71 L2203.69 1388.71 L2203.69 1388.71 L2247.79 1388.71 
  L2247.79 1388.71 L2291.9 1388.71 L2291.9 1388.71 L2291.9 1388.71 L2291.9 1388.71 L2247.79 1388.71 L2247.79 1388.71 L2203.69 1388.71 L2203.69 1388.71 L2159.59 1388.71 
  L2159.59 1388.71 L2115.49 1388.71 L2115.49 1388.71 L2071.39 1388.71 L2071.39 1388.71 L2027.29 1388.71 L2027.29 1388.71 L1983.19 1388.71 L1983.19 1388.71 L1939.09 1388.71 
  L1939.09 1388.71 L1894.98 1388.71 L1894.98 1388.71 L1850.88 1388.71 L1850.88 1388.71 L1806.78 1388.71 L1806.78 1388.71 L1762.68 1388.71 L1762.68 1388.71 L1718.58 1388.71 
  L1718.58 1388.71 L1674.48 1388.71 L1674.48 1388.71 L1630.38 1388.71 L1630.38 1388.71 L1586.27 1388.71 L1586.27 1388.71 L1542.17 1388.71 L1542.17 1388.71 L1498.07 1388.71 
  L1498.07 1388.71 L1453.97 1388.71 L1453.97 1388.71 L1409.87 1388.71 L1409.87 1388.71 L1365.77 1388.71 L1365.77 1388.71 L1321.67 1388.71 L1321.67 1388.71 L1277.56 1388.71 
  L1277.56 1388.71 L1233.46 1388.71 L1233.46 1388.71 L1189.36 1388.71 L1189.36 1388.71 L1145.26 1388.71 L1145.26 1388.71 L1101.16 1388.71 L1101.16 1388.71 L1057.06 1388.71 
  L1057.06 1388.71 L1012.96 1388.71 L1012.96 1388.71 L968.855 1388.71 L968.855 1388.71 L924.753 1388.71 L924.753 1388.71 L880.652 1388.71 L880.652 1388.71 L836.551 1388.71 
  L836.551 1388.71 L792.449 1388.71 L792.449 1388.71 L748.348 1388.71 L748.348 1388.71 L704.247 1388.71 L704.247 1388.71 L660.145 1388.71 L660.145 1388.71 L616.044 1388.71 
  L616.044 1388.71 L571.942 1388.71 L571.942 1388.71 L527.841 1388.71 L527.841 1388.71 L483.74 1388.71 L483.74 1388.71 L439.638 1388.71 L439.638 1388.71 L395.537 1388.71 
  L395.537 1388.71 L351.436 1388.71 L351.436 1388.71 L307.334 1388.71 L307.334 1388.71 L263.233 1388.71  Z
  " fill="#ffff00" fill-rule="evenodd" fill-opacity="1"/>
<polyline clip-path="url(#clip2302)" style="stroke:#e26f46; stroke-width:0; stroke-opacity:1; fill:none" points="
  263.233,1388.71 307.334,1388.71 351.436,1388.71 395.537,1388.71 439.638,1388.71 483.74,1388.71 
  527.841,1388.71 571.942,1388.71 616.044,1388.71 660.145,1388.71 704.247,1388.71 
  748.348,1388.71 792.449,1388.71 836.551,1388.71 880.652,1388.71 924.753,1388.71 
  924.753,1189.62 968.855,1189.62 968.855,1075.24 1012.96,1075.24 1012.96,962.122 1057.06,962.122 1057.06,895.927 1101.16,895.927 1101.16,771.272 1145.26,771.272 
  1145.26,662.214 1189.36,662.214 1189.36,475.675 1233.46,475.675 1233.46,396.038 1277.56,396.038 1277.56,276.709 1321.67,276.709 1321.67,270.749 1365.77,270.749 
  1365.77,194.408 1409.87,194.408 1409.87,255.151 1453.97,255.151 1453.97,335.295 1498.07,335.295 1498.07,416.074 1542.17,416.074 1542.17,506.49 1586.27,506.49 
  1586.27,684.279 1630.38,684.279 1630.38,835.438 1674.48,835.438 1674.48,969.477 1718.58,969.477 1718.58,1069.78 1762.68,1069.78 1762.68,1134.33 1806.78,1134.33 
  1806.78,1225.51 1850.88,1225.51 1850.88,1388.71 1894.98,1388.71 1939.09,1388.71 1983.19,1388.71 2027.29,1388.71 
  2071.39,1388.71 2115.49,1388.71 2159.59,1388.71 2203.69,1388.71 2247.79,1388.71 
  2291.9,1388.71 
  "/>
<path clip-path="url(#clip2302)" d="
M263.233 1388.71 L307.334 1388.71 L307.334 1388.71 L351.436 1388.71 L351.436 1388.71 L395.537 1388.71 L395.537 1388.71 L439.638 1388.71 L439.638 1388.71 L483.74 1388.71 
  L483.74 1388.71 L527.841 1388.71 L527.841 1388.71 L571.942 1388.71 L571.942 1388.71 L616.044 1388.71 L616.044 1388.71 L660.145 1388.71 L660.145 1388.71 L704.247 1388.71 
  L704.247 1388.71 L748.348 1388.71 L748.348 1388.71 L792.449 1388.71 L792.449 1388.71 L836.551 1388.71 L836.551 1388.71 L880.652 1388.71 L880.652 1388.71 L924.753 1388.71 
  L924.753 1388.71 L968.855 1388.71 L968.855 1388.71 L1012.96 1388.71 L1012.96 1388.71 L1057.06 1388.71 L1057.06 1388.71 L1101.16 1388.71 L1101.16 1388.71 L1145.26 1388.71 
  L1145.26 662.214 L1189.36 662.214 L1189.36 475.675 L1233.46 475.675 L1233.46 396.038 L1277.56 396.038 L1277.56 276.709 L1321.67 276.709 L1321.67 270.749 L1365.77 270.749 
  L1365.77 194.408 L1409.87 194.408 L1409.87 255.151 L1453.97 255.151 L1453.97 335.295 L1498.07 335.295 L1498.07 416.074 L1542.17 416.074 L1542.17 506.49 L1586.27 506.49 
  L1586.27 684.279 L1630.38 684.279 L1630.38 1388.71 L1674.48 1388.71 L1674.48 1388.71 L1718.58 1388.71 L1718.58 1388.71 L1762.68 1388.71 L1762.68 1388.71 L1806.78 1388.71 
  L1806.78 1388.71 L1850.88 1388.71 L1850.88 1388.71 L1894.98 1388.71 L1894.98 1388.71 L1939.09 1388.71 L1939.09 1388.71 L1983.19 1388.71 L1983.19 1388.71 L2027.29 1388.71 
  L2027.29 1388.71 L2071.39 1388.71 L2071.39 1388.71 L2115.49 1388.71 L2115.49 1388.71 L2159.59 1388.71 L2159.59 1388.71 L2203.69 1388.71 L2203.69 1388.71 L2247.79 1388.71 
  L2247.79 1388.71 L2291.9 1388.71 L2291.9 1388.71 L2291.9 1388.71 L2291.9 1388.71 L2247.79 1388.71 L2247.79 1388.71 L2203.69 1388.71 L2203.69 1388.71 L2159.59 1388.71 
  L2159.59 1388.71 L2115.49 1388.71 L2115.49 1388.71 L2071.39 1388.71 L2071.39 1388.71 L2027.29 1388.71 L2027.29 1388.71 L1983.19 1388.71 L1983.19 1388.71 L1939.09 1388.71 
  L1939.09 1388.71 L1894.98 1388.71 L1894.98 1388.71 L1850.88 1388.71 L1850.88 1388.71 L1806.78 1388.71 L1806.78 1388.71 L1762.68 1388.71 L1762.68 1388.71 L1718.58 1388.71 
  L1718.58 1388.71 L1674.48 1388.71 L1674.48 1388.71 L1630.38 1388.71 L1630.38 1388.71 L1586.27 1388.71 L1586.27 1388.71 L1542.17 1388.71 L1542.17 1388.71 L1498.07 1388.71 
  L1498.07 1388.71 L1453.97 1388.71 L1453.97 1388.71 L1409.87 1388.71 L1409.87 1388.71 L1365.77 1388.71 L1365.77 1388.71 L1321.67 1388.71 L1321.67 1388.71 L1277.56 1388.71 
  L1277.56 1388.71 L1233.46 1388.71 L1233.46 1388.71 L1189.36 1388.71 L1189.36 1388.71 L1145.26 1388.71 L1145.26 1388.71 L1101.16 1388.71 L1101.16 1388.71 L1057.06 1388.71 
  L1057.06 1388.71 L1012.96 1388.71 L1012.96 1388.71 L968.855 1388.71 L968.855 1388.71 L924.753 1388.71 L924.753 1388.71 L880.652 1388.71 L880.652 1388.71 L836.551 1388.71 
  L836.551 1388.71 L792.449 1388.71 L792.449 1388.71 L748.348 1388.71 L748.348 1388.71 L704.247 1388.71 L704.247 1388.71 L660.145 1388.71 L660.145 1388.71 L616.044 1388.71 
  L616.044 1388.71 L571.942 1388.71 L571.942 1388.71 L527.841 1388.71 L527.841 1388.71 L483.74 1388.71 L483.74 1388.71 L439.638 1388.71 L439.638 1388.71 L395.537 1388.71 
  L395.537 1388.71 L351.436 1388.71 L351.436 1388.71 L307.334 1388.71 L307.334 1388.71 L263.233 1388.71  Z
  " fill="#76ee00" fill-rule="evenodd" fill-opacity="1"/>
<polyline clip-path="url(#clip2302)" style="stroke:#3da44d; stroke-width:0; stroke-opacity:1; fill:none" points="
  263.233,1388.71 307.334,1388.71 351.436,1388.71 395.537,1388.71 439.638,1388.71 483.74,1388.71 
  527.841,1388.71 571.942,1388.71 616.044,1388.71 660.145,1388.71 704.247,1388.71 
  748.348,1388.71 792.449,1388.71 836.551,1388.71 880.652,1388.71 924.753,1388.71 
  968.855,1388.71 1012.96,1388.71 1057.06,1388.71 1101.16,1388.71 1145.26,1388.71 
  1145.26,662.214 1189.36,662.214 1189.36,475.675 1233.46,475.675 1233.46,396.038 1277.56,396.038 1277.56,276.709 1321.67,276.709 1321.67,270.749 1365.77,270.749 
  1365.77,194.408 1409.87,194.408 1409.87,255.151 1453.97,255.151 1453.97,335.295 1498.07,335.295 1498.07,416.074 1542.17,416.074 1542.17,506.49 1586.27,506.49 
  1586.27,684.279 1630.38,684.279 1630.38,1388.71 1674.48,1388.71 1718.58,1388.71 1762.68,1388.71 1806.78,1388.71 
  1850.88,1388.71 1894.98,1388.71 1939.09,1388.71 1983.19,1388.71 2027.29,1388.71 
  2071.39,1388.71 2115.49,1388.71 2159.59,1388.71 2203.69,1388.71 2247.79,1388.71 
  2291.9,1388.71 
  "/>
<polyline clip-path="url(#clip2302)" style="stroke:#000000; stroke-width:2.8; stroke-opacity:1; fill:none" points="
  263.233,1387.7 307.334,1387.7 307.334,1387.19 351.436,1387.19 351.436,1388.59 395.537,1388.59 395.537,1386.69 439.638,1386.69 439.638,1386.94 483.74,1386.94 
  483.74,1385.67 527.841,1385.67 527.841,1386.18 571.942,1386.18 571.942,1383.26 616.044,1383.26 616.044,1379.96 660.145,1379.96 660.145,1367.41 704.247,1367.41 
  704.247,1357.14 748.348,1357.14 748.348,1349.91 792.449,1349.91 792.449,1321.63 836.551,1321.63 836.551,1295.38 880.652,1295.38 880.652,1250.36 924.753,1250.36 
  924.753,1189.62 968.855,1189.62 968.855,1075.24 1012.96,1075.24 1012.96,962.122 1057.06,962.122 1057.06,895.927 1101.16,895.927 1101.16,771.272 1145.26,771.272 
  1145.26,662.214 1189.36,662.214 1189.36,475.675 1233.46,475.675 1233.46,396.038 1277.56,396.038 1277.56,276.709 1321.67,276.709 1321.67,270.749 1365.77,270.749 
  1365.77,194.408 1409.87,194.408 1409.87,255.151 1453.97,255.151 1453.97,335.295 1498.07,335.295 1498.07,416.074 1542.17,416.074 1542.17,506.49 1586.27,506.49 
  1586.27,684.279 1630.38,684.279 1630.38,835.438 1674.48,835.438 1674.48,969.477 1718.58,969.477 1718.58,1069.78 1762.68,1069.78 1762.68,1134.33 1806.78,1134.33 
  1806.78,1225.51 1850.88,1225.51 1850.88,1292.59 1894.98,1292.59 1894.98,1316.56 1939.09,1316.56 1939.09,1350.92 1983.19,1350.92 1983.19,1358.91 2027.29,1358.91 
  2027.29,1377.05 2071.39,1377.05 2071.39,1381.23 2115.49,1381.23 2115.49,1383.13 2159.59,1383.13 2159.59,1385.92 2203.69,1385.92 2203.69,1388.33 2247.79,1388.33 
  2247.79,1388.46 2291.9,1388.46 2291.9,1387.7 
  "/>
<path clip-path="url(#clip2302)" d="
M1141.31 1388.71 L1604.37 1388.71 L1604.37 158.579 L1141.31 158.579 L1141.31 1388.71  Z
  " fill="#808080" fill-rule="evenodd" fill-opacity="0.5"/>
<polyline clip-path="url(#clip2302)" style="stroke:#000000; stroke-width:0; stroke-opacity:1; fill:none" points="
  1141.31,1388.71 1604.37,1388.71 1604.37,158.579 1141.31,158.579 1141.31,1388.71 
  "/>
<polyline clip-path="url(#clip2302)" style="stroke:#696969; stroke-width:4; stroke-opacity:1; fill:none" points="
  1372.84,1388.71 1372.84,158.579 
  "/>
<polyline clip-path="url(#clip2302)" style="stroke:#000000; stroke-width:4; stroke-opacity:1; fill:none" stroke-dasharray="16, 10" points="
  1361.08,1388.71 1361.08,158.579 
  "/>
<polyline clip-path="url(#clip2302)" style="stroke:#000000; stroke-width:4; stroke-opacity:1; fill:none" stroke-dasharray="2, 4" points="
  1387.82,1388.71 1387.82,158.579 
  "/>
<path clip-path="url(#clip2300)" d="
M1463.01 689.035 L2280.76 689.035 L2280.76 205.195 L1463.01 205.195  Z
  " fill="#ffffff" fill-rule="evenodd" fill-opacity="1"/>
<polyline clip-path="url(#clip2300)" style="stroke:#000000; stroke-width:4; stroke-opacity:1; fill:none" points="
  1463.01,689.035 2280.76,689.035 2280.76,205.195 1463.01,205.195 1463.01,689.035 
  "/>
<path clip-path="url(#clip2300)" d="
M1487.01 289.867 L1631.01 289.867 L1631.01 241.483 L1487.01 241.483 L1487.01 289.867  Z
  " fill="#ff0000" fill-rule="evenodd" fill-opacity="1"/>
<polyline clip-path="url(#clip2300)" style="stroke:#009af9; stroke-width:0; stroke-opacity:1; fill:none" points="
  1487.01,241.483 1631.01,241.483 
  "/>
<g clip-path="url(#clip2300)">
<text style="fill:#000000; fill-opacity:1; font-family:Arial,Helvetica Neue,Helvetica,sans-serif; font-size:48px; text-anchor:start;" transform="rotate(0, 1655.01, 283.175)" x="1655.01" y="283.175">smallest 99.71% interval(s)</text>
</g>
<path clip-path="url(#clip2300)" d="
M1487.01 350.347 L1631.01 350.347 L1631.01 301.963 L1487.01 301.963 L1487.01 350.347  Z
  " fill="#ffff00" fill-rule="evenodd" fill-opacity="1"/>
<polyline clip-path="url(#clip2300)" style="stroke:#e26f46; stroke-width:0; stroke-opacity:1; fill:none" points="
  1487.01,301.963 1631.01,301.963 
  "/>
<g clip-path="url(#clip2300)">
<text style="fill:#000000; fill-opacity:1; font-family:Arial,Helvetica Neue,Helvetica,sans-serif; font-size:48px; text-anchor:start;" transform="rotate(0, 1655.01, 343.655)" x="1655.01" y="343.655">smallest 95.53% interval(s)</text>
</g>
<path clip-path="url(#clip2300)" d="
M1487.01 410.827 L1631.01 410.827 L1631.01 362.443 L1487.01 362.443 L1487.01 410.827  Z
  " fill="#76ee00" fill-rule="evenodd" fill-opacity="1"/>
<polyline clip-path="url(#clip2300)" style="stroke:#3da44d; stroke-width:0; stroke-opacity:1; fill:none" points="
  1487.01,362.443 1631.01,362.443 
  "/>
<g clip-path="url(#clip2300)">
<text style="fill:#000000; fill-opacity:1; font-family:Arial,Helvetica Neue,Helvetica,sans-serif; font-size:48px; text-anchor:start;" transform="rotate(0, 1655.01, 404.135)" x="1655.01" y="404.135">smallest 70.87% interval(s)</text>
</g>
<path clip-path="url(#clip2300)" d="
M1487.01 471.307 L1631.01 471.307 L1631.01 422.923 L1487.01 422.923 L1487.01 471.307  Z
  " fill="#808080" fill-rule="evenodd" fill-opacity="0.5"/>
<polyline clip-path="url(#clip2300)" style="stroke:#000000; stroke-width:0; stroke-opacity:1; fill:none" points="
  1487.01,471.307 1631.01,471.307 1631.01,422.923 1487.01,422.923 1487.01,471.307 
  "/>
<g clip-path="url(#clip2300)">
<text style="fill:#000000; fill-opacity:1; font-family:Arial,Helvetica Neue,Helvetica,sans-serif; font-size:48px; text-anchor:start;" transform="rotate(0, 1655.01, 464.615)" x="1655.01" y="464.615">std. dev.</text>
</g>
<polyline clip-path="url(#clip2300)" style="stroke:#696969; stroke-width:4; stroke-opacity:1; fill:none" points="
  1487.01,507.595 1631.01,507.595 
  "/>
<g clip-path="url(#clip2300)">
<text style="fill:#000000; fill-opacity:1; font-family:Arial,Helvetica Neue,Helvetica,sans-serif; font-size:48px; text-anchor:start;" transform="rotate(0, 1655.01, 525.095)" x="1655.01" y="525.095">mean</text>
</g>
<polyline clip-path="url(#clip2300)" style="stroke:#000000; stroke-width:4; stroke-opacity:1; fill:none" stroke-dasharray="16, 10" points="
  1487.01,568.075 1631.01,568.075 
  "/>
<g clip-path="url(#clip2300)">
<text style="fill:#000000; fill-opacity:1; font-family:Arial,Helvetica Neue,Helvetica,sans-serif; font-size:48px; text-anchor:start;" transform="rotate(0, 1655.01, 585.575)" x="1655.01" y="585.575">global mode</text>
</g>
<polyline clip-path="url(#clip2300)" style="stroke:#000000; stroke-width:4; stroke-opacity:1; fill:none" stroke-dasharray="2, 4" points="
  1487.01,628.555 1631.01,628.555 
  "/>
<g clip-path="url(#clip2300)">
<text style="fill:#000000; fill-opacity:1; font-family:Arial,Helvetica Neue,Helvetica,sans-serif; font-size:48px; text-anchor:start;" transform="rotate(0, 1655.01, 646.055)" x="1655.01" y="646.055">local mode</text>
</g>
</svg>
