<?xml version="1.0" encoding="utf-8"?>
<svg xmlns="http://www.w3.org/2000/svg" xmlns:xlink="http://www.w3.org/1999/xlink" width="600" height="400" viewBox="0 0 2400 1600">
<defs>
  <clipPath id="clip3200">
    <rect x="0" y="0" width="2400" height="1600"/>
  </clipPath>
</defs>
<path clip-path="url(#clip3200)" d="
M0 1600 L2400 1600 L2400 0 L0 0  Z
  " fill="#ffffff" fill-rule="evenodd" fill-opacity="1"/>
<defs>
  <clipPath id="clip3201">
    <rect x="480" y="0" width="1681" height="1600"/>
  </clipPath>
</defs>
<path clip-path="url(#clip3200)" d="
M167.279 1487.47 L2352.76 1487.47 L2352.76 121.675 L167.279 121.675  Z
  " fill="#ffffff" fill-rule="evenodd" fill-opacity="1"/>
<defs>
  <clipPath id="clip3202">
    <rect x="167" y="121" width="2186" height="1367"/>
  </clipPath>
</defs>
<polyline clip-path="url(#clip3202)" style="stroke:#000000; stroke-width:2; stroke-opacity:0.1; fill:none" points="
  229.132,1487.47 229.132,121.675 
  "/>
<polyline clip-path="url(#clip3202)" style="stroke:#000000; stroke-width:2; stroke-opacity:0.1; fill:none" points="
  744.575,1487.47 744.575,121.675 
  "/>
<polyline clip-path="url(#clip3202)" style="stroke:#000000; stroke-width:2; stroke-opacity:0.1; fill:none" points="
  1260.02,1487.47 1260.02,121.675 
  "/>
<polyline clip-path="url(#clip3202)" style="stroke:#000000; stroke-width:2; stroke-opacity:0.1; fill:none" points="
  1775.46,1487.47 1775.46,121.675 
  "/>
<polyline clip-path="url(#clip3202)" style="stroke:#000000; stroke-width:2; stroke-opacity:0.1; fill:none" points="
  2290.9,1487.47 2290.9,121.675 
  "/>
<polyline clip-path="url(#clip3202)" style="stroke:#000000; stroke-width:2; stroke-opacity:0.1; fill:none" points="
  167.279,1448.82 2352.76,1448.82 
  "/>
<polyline clip-path="url(#clip3202)" style="stroke:#000000; stroke-width:2; stroke-opacity:0.1; fill:none" points="
  167.279,1145.65 2352.76,1145.65 
  "/>
<polyline clip-path="url(#clip3202)" style="stroke:#000000; stroke-width:2; stroke-opacity:0.1; fill:none" points="
  167.279,842.472 2352.76,842.472 
  "/>
<polyline clip-path="url(#clip3202)" style="stroke:#000000; stroke-width:2; stroke-opacity:0.1; fill:none" points="
  167.279,539.298 2352.76,539.298 
  "/>
<polyline clip-path="url(#clip3202)" style="stroke:#000000; stroke-width:2; stroke-opacity:0.1; fill:none" points="
  167.279,236.123 2352.76,236.123 
  "/>
<polyline clip-path="url(#clip3200)" style="stroke:#000000; stroke-width:4; stroke-opacity:1; fill:none" points="
  167.279,1487.47 2352.76,1487.47 
  "/>
<polyline clip-path="url(#clip3200)" style="stroke:#000000; stroke-width:4; stroke-opacity:1; fill:none" points="
  167.279,1487.47 167.279,121.675 
  "/>
<polyline clip-path="url(#clip3200)" style="stroke:#000000; stroke-width:4; stroke-opacity:1; fill:none" points="
  229.132,1487.47 229.132,1466.99 
  "/>
<polyline clip-path="url(#clip3200)" style="stroke:#000000; stroke-width:4; stroke-opacity:1; fill:none" points="
  744.575,1487.47 744.575,1466.99 
  "/>
<polyline clip-path="url(#clip3200)" style="stroke:#000000; stroke-width:4; stroke-opacity:1; fill:none" points="
  1260.02,1487.47 1260.02,1466.99 
  "/>
<polyline clip-path="url(#clip3200)" style="stroke:#000000; stroke-width:4; stroke-opacity:1; fill:none" points="
  1775.46,1487.47 1775.46,1466.99 
  "/>
<polyline clip-path="url(#clip3200)" style="stroke:#000000; stroke-width:4; stroke-opacity:1; fill:none" points="
  2290.9,1487.47 2290.9,1466.99 
  "/>
<polyline clip-path="url(#clip3200)" style="stroke:#000000; stroke-width:4; stroke-opacity:1; fill:none" points="
  167.279,1448.82 200.061,1448.82 
  "/>
<polyline clip-path="url(#clip3200)" style="stroke:#000000; stroke-width:4; stroke-opacity:1; fill:none" points="
  167.279,1145.65 200.061,1145.65 
  "/>
<polyline clip-path="url(#clip3200)" style="stroke:#000000; stroke-width:4; stroke-opacity:1; fill:none" points="
  167.279,842.472 200.061,842.472 
  "/>
<polyline clip-path="url(#clip3200)" style="stroke:#000000; stroke-width:4; stroke-opacity:1; fill:none" points="
  167.279,539.298 200.061,539.298 
  "/>
<polyline clip-path="url(#clip3200)" style="stroke:#000000; stroke-width:4; stroke-opacity:1; fill:none" points="
  167.279,236.123 200.061,236.123 
  "/>
<g clip-path="url(#clip3200)">
<text style="fill:#000000; fill-opacity:1; font-family:Arial,Helvetica Neue,Helvetica,sans-serif; font-size:48px; text-anchor:middle;" transform="rotate(0, 229.132, 1541.47)" x="229.132" y="1541.47">-4</text>
</g>
<g clip-path="url(#clip3200)">
<text style="fill:#000000; fill-opacity:1; font-family:Arial,Helvetica Neue,Helvetica,sans-serif; font-size:48px; text-anchor:middle;" transform="rotate(0, 744.575, 1541.47)" x="744.575" y="1541.47">-2</text>
</g>
<g clip-path="url(#clip3200)">
<text style="fill:#000000; fill-opacity:1; font-family:Arial,Helvetica Neue,Helvetica,sans-serif; font-size:48px; text-anchor:middle;" transform="rotate(0, 1260.02, 1541.47)" x="1260.02" y="1541.47">0</text>
</g>
<g clip-path="url(#clip3200)">
<text style="fill:#000000; fill-opacity:1; font-family:Arial,Helvetica Neue,Helvetica,sans-serif; font-size:48px; text-anchor:middle;" transform="rotate(0, 1775.46, 1541.47)" x="1775.46" y="1541.47">2</text>
</g>
<g clip-path="url(#clip3200)">
<text style="fill:#000000; fill-opacity:1; font-family:Arial,Helvetica Neue,Helvetica,sans-serif; font-size:48px; text-anchor:middle;" transform="rotate(0, 2290.9, 1541.47)" x="2290.9" y="1541.47">4</text>
</g>
<g clip-path="url(#clip3200)">
<text style="fill:#000000; fill-opacity:1; font-family:Arial,Helvetica Neue,Helvetica,sans-serif; font-size:48px; text-anchor:end;" transform="rotate(0, 143.279, 1466.32)" x="143.279" y="1466.32">0</text>
</g>
<g clip-path="url(#clip3200)">
<text style="fill:#000000; fill-opacity:1; font-family:Arial,Helvetica Neue,Helvetica,sans-serif; font-size:48px; text-anchor:end;" transform="rotate(0, 143.279, 1163.15)" x="143.279" y="1163.15">200</text>
</g>
<g clip-path="url(#clip3200)">
<text style="fill:#000000; fill-opacity:1; font-family:Arial,Helvetica Neue,Helvetica,sans-serif; font-size:48px; text-anchor:end;" transform="rotate(0, 143.279, 859.972)" x="143.279" y="859.972">400</text>
</g>
<g clip-path="url(#clip3200)">
<text style="fill:#000000; fill-opacity:1; font-family:Arial,Helvetica Neue,Helvetica,sans-serif; font-size:48px; text-anchor:end;" transform="rotate(0, 143.279, 556.798)" x="143.279" y="556.798">600</text>
</g>
<g clip-path="url(#clip3200)">
<text style="fill:#000000; fill-opacity:1; font-family:Arial,Helvetica Neue,Helvetica,sans-serif; font-size:48px; text-anchor:end;" transform="rotate(0, 143.279, 253.623)" x="143.279" y="253.623">800</text>
</g>
<g clip-path="url(#clip3200)">
<text style="fill:#000000; fill-opacity:1; font-family:Arial,Helvetica Neue,Helvetica,sans-serif; font-size:84px; text-anchor:middle;" transform="rotate(0, 1260.02, 73.2)" x="1260.02" y="73.2">Data, True Model and Best Fit</text>
</g>
<polyline clip-path="url(#clip3202)" style="stroke:#009af9; stroke-width:4; stroke-opacity:1; fill:none" points="
  744.575,1448.82 744.575,1373.03 770.347,1373.03 770.347,1282.07 796.119,1282.07 796.119,1206.28 821.891,1206.28 821.891,1130.49 847.663,1130.49 847.663,1145.65 
  873.436,1145.65 873.436,994.059 899.208,994.059 899.208,918.265 924.98,918.265 924.98,978.9 950.752,978.9 950.752,963.741 976.524,963.741 976.524,796.996 
  1002.3,796.996 1002.3,857.63 1028.07,857.63 1028.07,781.837 1053.84,781.837 1053.84,1009.22 1079.61,1009.22 1079.61,1085.01 1105.38,1085.01 1105.38,1069.85 
  1131.16,1069.85 1131.16,1145.65 1156.93,1145.65 1156.93,1221.44 1182.7,1221.44 1182.7,1251.76 1208.47,1251.76 1208.47,1312.39 1234.25,1312.39 1234.25,1327.55 
  1260.02,1327.55 1260.02,1357.87 1285.79,1357.87 1285.79,1418.5 1311.56,1418.5 1311.56,1448.82 1337.33,1448.82 1337.33,1403.34 1363.11,1403.34 1363.11,1418.5 
  1388.88,1418.5 1388.88,1388.19 1414.65,1388.19 1414.65,1433.66 1440.42,1433.66 1440.42,1403.34 1466.19,1403.34 1466.19,1357.87 1491.97,1357.87 1491.97,1297.23 
  1517.74,1297.23 1517.74,1175.96 1543.51,1175.96 1543.51,1130.49 1569.28,1130.49 1569.28,978.9 1595.06,978.9 1595.06,948.583 1620.83,948.583 1620.83,721.202 
  1646.6,721.202 1646.6,463.504 1672.37,463.504 1672.37,478.663 1698.14,478.663 1698.14,418.028 1723.92,418.028 1723.92,281.6 1749.69,281.6 1749.69,524.139 
  1775.46,524.139 1775.46,160.33 1801.23,160.33 1801.23,508.98 1827,508.98 1827,342.234 1852.78,342.234 1852.78,327.076 1878.55,327.076 1878.55,872.789 
  1904.32,872.789 1930.09,872.789 1930.09,948.583 1955.87,948.583 1955.87,887.948 1981.64,887.948 1981.64,1160.8 2007.41,1160.8 2007.41,1266.92 
  2033.18,1266.92 2033.18,1327.55 2058.95,1327.55 2058.95,1357.87 2084.73,1357.87 2084.73,1418.5 2110.5,1418.5 2110.5,1403.34 2136.27,1403.34 2136.27,1448.82 
  2162.04,1448.82 2187.81,1448.82 2187.81,1433.66 2213.59,1433.66 2213.59,1448.82 2239.36,1448.82 2265.13,1448.82 
  2290.9,1448.82 
  "/>
<polyline clip-path="url(#clip3202)" style="stroke:#e26f46; stroke-width:4; stroke-opacity:1; fill:none" points="
  229.132,1448.82 231.709,1448.82 234.287,1448.82 236.864,1448.82 239.441,1448.82 242.018,1448.82 244.596,1448.82 247.173,1448.82 249.75,1448.82 252.327,1448.82 
  254.904,1448.82 257.482,1448.82 260.059,1448.82 262.636,1448.82 265.213,1448.82 267.79,1448.82 270.368,1448.82 272.945,1448.82 275.522,1448.82 278.099,1448.82 
  280.677,1448.82 283.254,1448.82 285.831,1448.82 288.408,1448.82 290.985,1448.82 293.563,1448.82 296.14,1448.82 298.717,1448.82 301.294,1448.82 303.871,1448.82 
  306.449,1448.82 309.026,1448.82 311.603,1448.82 314.18,1448.82 316.758,1448.82 319.335,1448.82 321.912,1448.82 324.489,1448.82 327.066,1448.82 329.644,1448.82 
  332.221,1448.82 334.798,1448.82 337.375,1448.82 339.952,1448.82 342.53,1448.82 345.107,1448.82 347.684,1448.82 350.261,1448.82 352.838,1448.82 355.416,1448.82 
  357.993,1448.82 360.57,1448.82 363.147,1448.82 365.725,1448.82 368.302,1448.82 370.879,1448.82 373.456,1448.82 376.033,1448.82 378.611,1448.82 381.188,1448.81 
  383.765,1448.81 386.342,1448.81 388.919,1448.81 391.497,1448.81 394.074,1448.81 396.651,1448.81 399.228,1448.81 401.806,1448.81 404.383,1448.81 406.96,1448.81 
  409.537,1448.8 412.114,1448.8 414.692,1448.8 417.269,1448.8 419.846,1448.8 422.423,1448.8 425,1448.79 427.578,1448.79 430.155,1448.79 432.732,1448.79 
  435.309,1448.78 437.887,1448.78 440.464,1448.77 443.041,1448.77 445.618,1448.77 448.195,1448.76 450.773,1448.76 453.35,1448.75 455.927,1448.74 458.504,1448.74 
  461.081,1448.73 463.659,1448.72 466.236,1448.71 468.813,1448.71 471.39,1448.7 473.968,1448.68 476.545,1448.67 479.122,1448.66 481.699,1448.65 484.276,1448.63 
  486.854,1448.62 489.431,1448.6 492.008,1448.58 494.585,1448.56 497.162,1448.54 499.74,1448.52 502.317,1448.49 504.894,1448.47 507.471,1448.44 510.048,1448.41 
  512.626,1448.38 515.203,1448.34 517.78,1448.31 520.357,1448.27 522.935,1448.22 525.512,1448.18 528.089,1448.13 530.666,1448.07 533.243,1448.02 535.821,1447.96 
  538.398,1447.89 540.975,1447.82 543.552,1447.75 546.129,1447.67 548.707,1447.59 551.284,1447.5 553.861,1447.4 556.438,1447.3 559.016,1447.19 561.593,1447.08 
  564.17,1446.95 566.747,1446.82 569.324,1446.68 571.902,1446.53 574.479,1446.38 577.056,1446.21 579.633,1446.03 582.21,1445.84 584.788,1445.64 587.365,1445.43 
  589.942,1445.21 592.519,1444.97 595.097,1444.72 597.674,1444.45 600.251,1444.17 602.828,1443.87 605.405,1443.55 607.983,1443.22 610.56,1442.87 613.137,1442.49 
  615.714,1442.1 618.291,1441.69 620.869,1441.25 623.446,1440.79 626.023,1440.31 628.6,1439.8 631.178,1439.26 633.755,1438.7 636.332,1438.1 638.909,1437.48 
  641.486,1436.82 644.064,1436.13 646.641,1435.41 649.218,1434.65 651.795,1433.86 654.372,1433.02 656.95,1432.15 659.527,1431.24 662.104,1430.28 664.681,1429.28 
  667.258,1428.23 669.836,1427.14 672.413,1425.99 674.99,1424.8 677.567,1423.55 680.145,1422.25 682.722,1420.89 685.299,1419.48 687.876,1418 690.453,1416.47 
  693.031,1414.87 695.608,1413.21 698.185,1411.48 700.762,1409.69 703.339,1407.82 705.917,1405.88 708.494,1403.87 711.071,1401.78 713.648,1399.61 716.226,1397.37 
  718.803,1395.05 721.38,1392.64 723.957,1390.15 726.534,1387.57 729.112,1384.9 731.689,1382.15 734.266,1379.3 736.843,1376.36 739.42,1373.33 741.998,1370.2 
  744.575,1366.98 747.152,1363.65 749.729,1360.23 752.307,1356.71 754.884,1353.08 757.461,1349.35 760.038,1345.52 762.615,1341.59 765.193,1337.54 767.77,1333.4 
  770.347,1329.14 772.924,1324.78 775.501,1320.31 778.079,1315.73 780.656,1311.05 783.233,1306.25 785.81,1301.35 788.388,1296.34 790.965,1291.23 793.542,1286.01 
  796.119,1280.68 798.696,1275.25 801.274,1269.71 803.851,1264.07 806.428,1258.33 809.005,1252.49 811.582,1246.55 814.16,1240.51 816.737,1234.38 819.314,1228.16 
  821.891,1221.85 824.469,1215.45 827.046,1208.97 829.623,1202.41 832.2,1195.77 834.777,1189.05 837.355,1182.26 839.932,1175.4 842.509,1168.48 845.086,1161.5 
  847.663,1154.46 850.241,1147.37 852.818,1140.23 855.395,1133.05 857.972,1125.83 860.549,1118.58 863.127,1111.31 865.704,1104.01 868.281,1096.69 870.858,1089.36 
  873.436,1082.02 876.013,1074.69 878.59,1067.36 881.167,1060.04 883.744,1052.74 886.322,1045.47 888.899,1038.23 891.476,1031.02 894.053,1023.86 896.63,1016.74 
  899.208,1009.69 901.785,1002.69 904.362,995.768 906.939,988.921 909.517,982.157 912.094,975.483 914.671,968.906 917.248,962.432 919.825,956.068 922.403,949.82 
  924.98,943.695 927.557,937.699 930.134,931.839 932.711,926.12 935.289,920.55 937.866,915.134 940.443,909.879 943.02,904.789 945.598,899.87 948.175,895.129 
  950.752,890.57 953.329,886.199 955.906,882.02 958.484,878.038 961.061,874.259 963.638,870.685 966.215,867.322 968.792,864.174 971.37,861.243 973.947,858.534 
  976.524,856.05 979.101,853.793 981.679,851.766 984.256,849.973 986.833,848.414 989.41,847.091 991.987,846.007 994.565,845.163 997.142,844.559 999.719,844.196 
  1002.3,844.075 1004.87,844.196 1007.45,844.559 1010.03,845.163 1012.61,846.007 1015.18,847.091 1017.76,848.414 1020.34,849.973 1022.91,851.766 1025.49,853.793 
  1028.07,856.05 1030.65,858.534 1033.22,861.243 1035.8,864.174 1038.38,867.322 1040.95,870.685 1043.53,874.259 1046.11,878.038 1048.69,882.02 1051.26,886.199 
  1053.84,890.57 1056.42,895.129 1058.99,899.87 1061.57,904.788 1064.15,909.878 1066.73,915.134 1069.3,920.55 1071.88,926.12 1074.46,931.838 1077.04,937.698 
  1079.61,943.694 1082.19,949.819 1084.77,956.067 1087.34,962.431 1089.92,968.905 1092.5,975.482 1095.08,982.156 1097.65,988.92 1100.23,995.767 1102.81,1002.69 
  1105.38,1009.68 1107.96,1016.74 1110.54,1023.85 1113.12,1031.02 1115.69,1038.22 1118.27,1045.47 1120.85,1052.74 1123.43,1060.04 1126,1067.36 1128.58,1074.68 
  1131.16,1082.02 1133.73,1089.35 1136.31,1096.68 1138.89,1104 1141.47,1111.3 1144.04,1118.58 1146.62,1125.83 1149.2,1133.04 1151.77,1140.22 1154.35,1147.36 
  1156.93,1154.45 1159.51,1161.48 1162.08,1168.46 1164.66,1175.38 1167.24,1182.24 1169.82,1189.03 1172.39,1195.74 1174.97,1202.38 1177.55,1208.95 1180.12,1215.43 
  1182.7,1221.82 1185.28,1228.13 1187.86,1234.35 1190.43,1240.47 1193.01,1246.51 1195.59,1252.44 1198.16,1258.28 1200.74,1264.01 1203.32,1269.65 1205.9,1275.18 
  1208.47,1280.6 1211.05,1285.92 1213.63,1291.14 1216.2,1296.25 1218.78,1301.25 1221.36,1306.14 1223.94,1310.92 1226.51,1315.59 1229.09,1320.16 1231.67,1324.62 
  1234.25,1328.96 1236.82,1333.2 1239.4,1337.33 1241.98,1341.36 1244.55,1345.27 1247.13,1349.08 1249.71,1352.79 1252.29,1356.39 1254.86,1359.89 1257.44,1363.28 
  1260.02,1366.57 1262.59,1369.76 1265.17,1372.85 1267.75,1375.85 1270.33,1378.74 1272.9,1381.54 1275.48,1384.25 1278.06,1386.86 1280.64,1389.39 1283.21,1391.82 
  1285.79,1394.16 1288.37,1396.42 1290.94,1398.58 1293.52,1400.67 1296.1,1402.67 1298.68,1404.59 1301.25,1406.43 1303.83,1408.19 1306.41,1409.88 1308.98,1411.48 
  1311.56,1413.02 1314.14,1414.48 1316.72,1415.86 1319.29,1417.18 1321.87,1418.43 1324.45,1419.6 1327.03,1420.71 1329.6,1421.76 1332.18,1422.73 1334.76,1423.65 
  1337.33,1424.49 1339.91,1425.28 1342.49,1426 1345.07,1426.66 1347.64,1427.26 1350.22,1427.8 1352.8,1428.28 1355.37,1428.7 1357.95,1429.06 1360.53,1429.35 
  1363.11,1429.59 1365.68,1429.77 1368.26,1429.89 1370.84,1429.95 1373.41,1429.95 1375.99,1429.89 1378.57,1429.77 1381.15,1429.59 1383.72,1429.34 1386.3,1429.04 
  1388.88,1428.67 1391.46,1428.23 1394.03,1427.73 1396.61,1427.16 1399.19,1426.53 1401.76,1425.82 1404.34,1425.05 1406.92,1424.2 1409.5,1423.28 1412.07,1422.28 
  1414.65,1421.21 1417.23,1420.06 1419.8,1418.82 1422.38,1417.51 1424.96,1416.1 1427.54,1414.62 1430.11,1413.04 1432.69,1411.36 1435.27,1409.6 1437.85,1407.74 
  1440.42,1405.77 1443,1403.71 1445.58,1401.53 1448.15,1399.25 1450.73,1396.86 1453.31,1394.36 1455.89,1391.73 1458.46,1388.99 1461.04,1386.12 1463.62,1383.12 
  1466.19,1380 1468.77,1376.74 1471.35,1373.34 1473.93,1369.8 1476.5,1366.12 1479.08,1362.3 1481.66,1358.32 1484.24,1354.18 1486.81,1349.89 1489.39,1345.44 
  1491.97,1340.83 1494.54,1336.04 1497.12,1331.09 1499.7,1325.96 1502.28,1320.66 1504.85,1315.17 1507.43,1309.5 1510.01,1303.65 1512.58,1297.6 1515.16,1291.36 
  1517.74,1284.93 1520.32,1278.3 1522.89,1271.47 1525.47,1264.44 1528.05,1257.2 1530.62,1249.75 1533.2,1242.1 1535.78,1234.24 1538.36,1226.16 1540.93,1217.88 
  1543.51,1209.37 1546.09,1200.66 1548.67,1191.72 1551.24,1182.58 1553.82,1173.21 1556.4,1163.63 1558.97,1153.83 1561.55,1143.82 1564.13,1133.59 1566.71,1123.15 
  1569.28,1112.5 1571.86,1101.64 1574.44,1090.57 1577.01,1079.29 1579.59,1067.81 1582.17,1056.13 1584.75,1044.26 1587.32,1032.19 1589.9,1019.93 1592.48,1007.49 
  1595.06,994.87 1597.63,982.075 1600.21,969.111 1602.79,955.983 1605.36,942.699 1607.94,929.265 1610.52,915.687 1613.1,901.973 1615.67,888.131 1618.25,874.168 
  1620.83,860.092 1623.4,845.913 1625.98,831.639 1628.56,817.28 1631.14,802.845 1633.71,788.345 1636.29,773.789 1638.87,759.188 1641.45,744.553 1644.02,729.895 
  1646.6,715.225 1649.18,700.555 1651.75,685.898 1654.33,671.264 1656.91,656.666 1659.49,642.117 1662.06,627.629 1664.64,613.216 1667.22,598.889 1669.79,584.663 
  1672.37,570.549 1674.95,556.562 1677.53,542.715 1680.1,529.022 1682.68,515.494 1685.26,502.146 1687.83,488.992 1690.41,476.043 1692.99,463.315 1695.57,450.819 
  1698.14,438.569 1700.72,426.577 1703.3,414.857 1705.88,403.421 1708.45,392.281 1711.03,381.449 1713.61,370.937 1716.18,360.757 1718.76,350.921 1721.34,341.438 
  1723.92,332.32 1726.49,323.577 1729.07,315.22 1731.65,307.257 1734.22,299.697 1736.8,292.551 1739.38,285.825 1741.96,279.528 1744.53,273.667 1747.11,268.248 
  1749.69,263.28 1752.27,258.766 1754.84,254.713 1757.42,251.125 1760,248.007 1762.57,245.362 1765.15,243.194 1767.73,241.505 1770.31,240.297 1772.88,239.572 
  1775.46,239.33 1778.04,239.572 1780.61,240.297 1783.19,241.505 1785.77,243.194 1788.35,245.362 1790.92,248.007 1793.5,251.125 1796.08,254.713 1798.66,258.766 
  1801.23,263.28 1803.81,268.248 1806.39,273.667 1808.96,279.528 1811.54,285.825 1814.12,292.551 1816.7,299.697 1819.27,307.257 1821.85,315.22 1824.43,323.577 
  1827,332.32 1829.58,341.438 1832.16,350.921 1834.74,360.757 1837.31,370.937 1839.89,381.449 1842.47,392.281 1845.04,403.421 1847.62,414.857 1850.2,426.578 
  1852.78,438.569 1855.35,450.819 1857.93,463.315 1860.51,476.044 1863.09,488.992 1865.66,502.147 1868.24,515.495 1870.82,529.022 1873.39,542.716 1875.97,556.563 
  1878.55,570.55 1881.13,584.663 1883.7,598.89 1886.28,613.217 1888.86,627.63 1891.43,642.118 1894.01,656.667 1896.59,671.265 1899.17,685.899 1901.74,700.557 
  1904.32,715.227 1906.9,729.897 1909.48,744.556 1912.05,759.191 1914.63,773.792 1917.21,788.349 1919.78,802.849 1922.36,817.285 1924.94,831.644 1927.52,845.918 
  1930.09,860.098 1932.67,874.174 1935.25,888.138 1937.82,901.981 1940.4,915.696 1942.98,929.275 1945.56,942.71 1948.13,955.995 1950.71,969.123 1953.29,982.089 
  1955.87,994.885 1958.44,1007.51 1961.02,1019.95 1963.6,1032.21 1966.17,1044.28 1968.75,1056.16 1971.33,1067.84 1973.91,1079.32 1976.48,1090.6 1979.06,1101.67 
  1981.64,1112.54 1984.21,1123.19 1986.79,1133.64 1989.37,1143.87 1991.95,1153.89 1994.52,1163.69 1997.1,1173.27 1999.68,1182.65 2002.25,1191.8 2004.83,1200.74 
  2007.41,1209.46 2009.99,1217.97 2012.56,1226.27 2015.14,1234.35 2017.72,1242.23 2020.3,1249.89 2022.87,1257.35 2025.45,1264.6 2028.03,1271.64 2030.6,1278.49 
  2033.18,1285.13 2035.76,1291.58 2038.34,1297.84 2040.91,1303.9 2043.49,1309.78 2046.07,1315.47 2048.64,1320.98 2051.22,1326.31 2053.8,1331.47 2056.38,1336.45 
  2058.95,1341.27 2061.53,1345.92 2064.11,1350.41 2066.69,1354.74 2069.26,1358.91 2071.84,1362.94 2074.42,1366.82 2076.99,1370.55 2079.57,1374.14 2082.15,1377.6 
  2084.73,1380.93 2087.3,1384.12 2089.88,1387.19 2092.46,1390.14 2095.03,1392.97 2097.61,1395.68 2100.19,1398.28 2102.77,1400.77 2105.34,1403.16 2107.92,1405.45 
  2110.5,1407.64 2113.08,1409.73 2115.65,1411.74 2118.23,1413.65 2120.81,1415.48 2123.38,1417.23 2125.96,1418.89 2128.54,1420.48 2131.12,1422 2133.69,1423.45 
  2136.27,1424.82 2138.85,1426.13 2141.42,1427.38 2144,1428.57 2146.58,1429.7 2149.16,1430.77 2151.73,1431.79 2154.31,1432.76 2156.89,1433.68 2159.46,1434.56 
  2162.04,1435.38 2164.62,1436.17 2167.2,1436.91 2169.77,1437.62 2172.35,1438.28 2174.93,1438.92 2177.51,1439.51 2180.08,1440.08 2182.66,1440.61 2185.24,1441.12 
  2187.81,1441.59 2190.39,1442.04 2192.97,1442.47 2195.55,1442.87 2198.12,1443.24 2200.7,1443.6 2203.28,1443.93 2205.85,1444.25 2208.43,1444.54 2211.01,1444.82 
  2213.59,1445.08 2216.16,1445.33 2218.74,1445.56 2221.32,1445.78 2223.9,1445.98 2226.47,1446.17 2229.05,1446.35 2231.63,1446.52 2234.2,1446.68 2236.78,1446.83 
  2239.36,1446.96 2241.94,1447.09 2244.51,1447.21 2247.09,1447.33 2249.67,1447.43 2252.24,1447.53 2254.82,1447.62 2257.4,1447.71 2259.98,1447.79 2262.55,1447.87 
  2265.13,1447.93 2267.71,1448 2270.29,1448.06 2272.86,1448.12 2275.44,1448.17 2278.02,1448.22 2280.59,1448.26 2283.17,1448.31 2285.75,1448.34 2288.33,1448.38 
  2290.9,1448.41 
  "/>
<polyline clip-path="url(#clip3202)" style="stroke:#3da44d; stroke-width:4; stroke-opacity:1; fill:none" points="
  229.132,1448.82 231.709,1448.82 234.287,1448.82 236.864,1448.82 239.441,1448.82 242.018,1448.82 244.596,1448.82 247.173,1448.82 249.75,1448.82 252.327,1448.82 
  254.904,1448.82 257.482,1448.82 260.059,1448.82 262.636,1448.82 265.213,1448.82 267.79,1448.82 270.368,1448.82 272.945,1448.82 275.522,1448.82 278.099,1448.82 
  280.677,1448.82 283.254,1448.82 285.831,1448.82 288.408,1448.82 290.985,1448.82 293.563,1448.82 296.14,1448.82 298.717,1448.82 301.294,1448.82 303.871,1448.82 
  306.449,1448.82 309.026,1448.82 311.603,1448.82 314.18,1448.82 316.758,1448.82 319.335,1448.82 321.912,1448.82 324.489,1448.82 327.066,1448.82 329.644,1448.82 
  332.221,1448.82 334.798,1448.82 337.375,1448.82 339.952,1448.82 342.53,1448.82 345.107,1448.82 347.684,1448.82 350.261,1448.82 352.838,1448.82 355.416,1448.81 
  357.993,1448.81 360.57,1448.81 363.147,1448.81 365.725,1448.81 368.302,1448.81 370.879,1448.81 373.456,1448.81 376.033,1448.81 378.611,1448.81 381.188,1448.81 
  383.765,1448.81 386.342,1448.8 388.919,1448.8 391.497,1448.8 394.074,1448.8 396.651,1448.8 399.228,1448.8 401.806,1448.79 404.383,1448.79 406.96,1448.79 
  409.537,1448.79 412.114,1448.78 414.692,1448.78 417.269,1448.78 419.846,1448.77 422.423,1448.77 425,1448.76 427.578,1448.76 430.155,1448.75 432.732,1448.75 
  435.309,1448.74 437.887,1448.73 440.464,1448.73 443.041,1448.72 445.618,1448.71 448.195,1448.7 450.773,1448.69 453.35,1448.68 455.927,1448.67 458.504,1448.66 
  461.081,1448.64 463.659,1448.63 466.236,1448.61 468.813,1448.6 471.39,1448.58 473.968,1448.56 476.545,1448.54 479.122,1448.52 481.699,1448.49 484.276,1448.47 
  486.854,1448.44 489.431,1448.41 492.008,1448.38 494.585,1448.35 497.162,1448.31 499.74,1448.27 502.317,1448.23 504.894,1448.19 507.471,1448.14 510.048,1448.09 
  512.626,1448.04 515.203,1447.98 517.78,1447.92 520.357,1447.85 522.935,1447.78 525.512,1447.71 528.089,1447.63 530.666,1447.55 533.243,1447.46 535.821,1447.36 
  538.398,1447.26 540.975,1447.15 543.552,1447.04 546.129,1446.92 548.707,1446.79 551.284,1446.65 553.861,1446.51 556.438,1446.35 559.016,1446.19 561.593,1446.01 
  564.17,1445.83 566.747,1445.64 569.324,1445.43 571.902,1445.21 574.479,1444.98 577.056,1444.74 579.633,1444.48 582.21,1444.21 584.788,1443.92 587.365,1443.62 
  589.942,1443.3 592.519,1442.96 595.097,1442.61 597.674,1442.23 600.251,1441.84 602.828,1441.42 605.405,1440.99 607.983,1440.53 610.56,1440.05 613.137,1439.54 
  615.714,1439.01 618.291,1438.45 620.869,1437.86 623.446,1437.24 626.023,1436.6 628.6,1435.92 631.178,1435.21 633.755,1434.46 636.332,1433.69 638.909,1432.87 
  641.486,1432.02 644.064,1431.13 646.641,1430.2 649.218,1429.22 651.795,1428.21 654.372,1427.15 656.95,1426.04 659.527,1424.89 662.104,1423.69 664.681,1422.43 
  667.258,1421.13 669.836,1419.77 672.413,1418.36 674.99,1416.89 677.567,1415.36 680.145,1413.77 682.722,1412.12 685.299,1410.41 687.876,1408.63 690.453,1406.78 
  693.031,1404.87 695.608,1402.89 698.185,1400.84 700.762,1398.71 703.339,1396.51 705.917,1394.24 708.494,1391.88 711.071,1389.45 713.648,1386.94 716.226,1384.35 
  718.803,1381.67 721.38,1378.91 723.957,1376.06 726.534,1373.12 729.112,1370.1 731.689,1366.98 734.266,1363.78 736.843,1360.48 739.42,1357.09 741.998,1353.6 
  744.575,1350.03 747.152,1346.35 749.729,1342.58 752.307,1338.71 754.884,1334.74 757.461,1330.68 760.038,1326.51 762.615,1322.25 765.193,1317.89 767.77,1313.43 
  770.347,1308.87 772.924,1304.22 775.501,1299.46 778.079,1294.61 780.656,1289.65 783.233,1284.61 785.81,1279.46 788.388,1274.22 790.965,1268.89 793.542,1263.46 
  796.119,1257.95 798.696,1252.34 801.274,1246.65 803.851,1240.86 806.428,1235 809.005,1229.05 811.582,1223.02 814.16,1216.92 816.737,1210.74 819.314,1204.49 
  821.891,1198.16 824.469,1191.78 827.046,1185.33 829.623,1178.82 832.2,1172.25 834.777,1165.63 837.355,1158.96 839.932,1152.25 842.509,1145.5 845.086,1138.71 
  847.663,1131.89 850.241,1125.04 852.818,1118.17 855.395,1111.28 857.972,1104.38 860.549,1097.47 863.127,1090.56 865.704,1083.65 868.281,1076.75 870.858,1069.86 
  873.436,1062.99 876.013,1056.14 878.59,1049.32 881.167,1042.54 883.744,1035.8 886.322,1029.11 888.899,1022.47 891.476,1015.89 894.053,1009.37 896.63,1002.92 
  899.208,996.555 901.785,990.269 904.362,984.072 906.939,977.969 909.517,971.967 912.094,966.071 914.671,960.288 917.248,954.622 919.825,949.08 922.403,943.667 
  924.98,938.389 927.557,933.251 930.134,928.258 932.711,923.416 935.289,918.73 937.866,914.205 940.443,909.845 943.02,905.655 945.598,901.64 948.175,897.804 
  950.752,894.151 953.329,890.685 955.906,887.411 958.484,884.331 961.061,881.449 963.638,878.768 966.215,876.291 968.792,874.022 971.37,871.962 973.947,870.113 
  976.524,868.479 979.101,867.06 981.679,865.859 984.256,864.876 986.833,864.114 989.41,863.572 991.987,863.251 994.565,863.152 997.142,863.274 999.719,863.619 
  1002.3,864.184 1004.87,864.97 1007.45,865.976 1010.03,867.201 1012.61,868.642 1015.18,870.299 1017.76,872.17 1020.34,874.253 1022.91,876.545 1025.49,879.043 
  1028.07,881.745 1030.65,884.648 1033.22,887.749 1035.8,891.044 1038.38,894.53 1040.95,898.203 1043.53,902.058 1046.11,906.092 1048.69,910.3 1051.26,914.677 
  1053.84,919.22 1056.42,923.923 1058.99,928.781 1061.57,933.789 1064.15,938.942 1066.73,944.235 1069.3,949.662 1071.88,955.217 1074.46,960.896 1077.04,966.691 
  1079.61,972.599 1082.19,978.611 1084.77,984.724 1087.34,990.931 1089.92,997.226 1092.5,1003.6 1095.08,1010.06 1097.65,1016.58 1100.23,1023.17 1102.81,1029.81 
  1105.38,1036.51 1107.96,1043.25 1110.54,1050.04 1113.12,1056.86 1115.69,1063.71 1118.27,1070.58 1120.85,1077.47 1123.43,1084.37 1126,1091.28 1128.58,1098.2 
  1131.16,1105.1 1133.73,1112 1136.31,1118.89 1138.89,1125.76 1141.47,1132.6 1144.04,1139.42 1146.62,1146.2 1149.2,1152.95 1151.77,1159.65 1154.35,1166.31 
  1156.93,1172.92 1159.51,1179.48 1162.08,1185.98 1164.66,1192.42 1167.24,1198.8 1169.82,1205.11 1172.39,1211.35 1174.97,1217.52 1177.55,1223.61 1180.12,1229.63 
  1182.7,1235.56 1185.28,1241.41 1187.86,1247.18 1190.43,1252.86 1193.01,1258.45 1195.59,1263.95 1198.16,1269.35 1200.74,1274.67 1203.32,1279.89 1205.9,1285.01 
  1208.47,1290.03 1211.05,1294.96 1213.63,1299.79 1216.2,1304.52 1218.78,1309.15 1221.36,1313.68 1223.94,1318.11 1226.51,1322.44 1229.09,1326.67 1231.67,1330.8 
  1234.25,1334.83 1236.82,1338.76 1239.4,1342.59 1241.98,1346.32 1244.55,1349.95 1247.13,1353.48 1249.71,1356.92 1252.29,1360.25 1254.86,1363.5 1257.44,1366.64 
  1260.02,1369.7 1262.59,1372.65 1265.17,1375.52 1267.75,1378.29 1270.33,1380.98 1272.9,1383.57 1275.48,1386.08 1278.06,1388.5 1280.64,1390.83 1283.21,1393.08 
  1285.79,1395.24 1288.37,1397.32 1290.94,1399.32 1293.52,1401.24 1296.1,1403.08 1298.68,1404.84 1301.25,1406.53 1303.83,1408.13 1306.41,1409.67 1308.98,1411.13 
  1311.56,1412.51 1314.14,1413.82 1316.72,1415.07 1319.29,1416.24 1321.87,1417.34 1324.45,1418.37 1327.03,1419.34 1329.6,1420.24 1332.18,1421.07 1334.76,1421.83 
  1337.33,1422.53 1339.91,1423.16 1342.49,1423.73 1345.07,1424.23 1347.64,1424.67 1350.22,1425.05 1352.8,1425.35 1355.37,1425.6 1357.95,1425.78 1360.53,1425.9 
  1363.11,1425.95 1365.68,1425.93 1368.26,1425.86 1370.84,1425.71 1373.41,1425.5 1375.99,1425.22 1378.57,1424.87 1381.15,1424.45 1383.72,1423.97 1386.3,1423.41 
  1388.88,1422.78 1391.46,1422.08 1394.03,1421.3 1396.61,1420.45 1399.19,1419.52 1401.76,1418.51 1404.34,1417.42 1406.92,1416.25 1409.5,1415 1412.07,1413.66 
  1414.65,1412.23 1417.23,1410.71 1419.8,1409.1 1422.38,1407.4 1424.96,1405.6 1427.54,1403.7 1430.11,1401.7 1432.69,1399.59 1435.27,1397.39 1437.85,1395.07 
  1440.42,1392.64 1443,1390.1 1445.58,1387.44 1448.15,1384.66 1450.73,1381.76 1453.31,1378.73 1455.89,1375.58 1458.46,1372.29 1461.04,1368.87 1463.62,1365.32 
  1466.19,1361.62 1468.77,1357.78 1471.35,1353.8 1473.93,1349.67 1476.5,1345.38 1479.08,1340.94 1481.66,1336.34 1484.24,1331.58 1486.81,1326.66 1489.39,1321.58 
  1491.97,1316.32 1494.54,1310.89 1497.12,1305.29 1499.7,1299.51 1502.28,1293.55 1504.85,1287.41 1507.43,1281.08 1510.01,1274.57 1512.58,1267.87 1515.16,1260.98 
  1517.74,1253.9 1520.32,1246.63 1522.89,1239.16 1525.47,1231.49 1528.05,1223.62 1530.62,1215.56 1533.2,1207.3 1535.78,1198.84 1538.36,1190.18 1540.93,1181.31 
  1543.51,1172.25 1546.09,1162.99 1548.67,1153.52 1551.24,1143.86 1553.82,1134 1556.4,1123.94 1558.97,1113.69 1561.55,1103.24 1564.13,1092.6 1566.71,1081.78 
  1569.28,1070.76 1571.86,1059.57 1574.44,1048.19 1577.01,1036.63 1579.59,1024.91 1582.17,1013.01 1584.75,1000.95 1587.32,988.727 1589.9,976.351 1592.48,963.825 
  1595.06,951.156 1597.63,938.348 1600.21,925.409 1602.79,912.345 1605.36,899.163 1607.94,885.87 1610.52,872.473 1613.1,858.982 1615.67,845.402 1618.25,831.744 
  1620.83,818.015 1623.4,804.225 1625.98,790.383 1628.56,776.498 1631.14,762.58 1633.71,748.64 1636.29,734.686 1638.87,720.73 1641.45,706.783 1644.02,692.854 
  1646.6,678.956 1649.18,665.099 1651.75,651.295 1654.33,637.554 1656.91,623.89 1659.49,610.313 1662.06,596.835 1664.64,583.468 1667.22,570.224 1669.79,557.115 
  1672.37,544.154 1674.95,531.351 1677.53,518.72 1680.1,506.272 1682.68,494.018 1685.26,481.972 1687.83,470.145 1690.41,458.547 1692.99,447.192 1695.57,436.09 
  1698.14,425.253 1700.72,414.692 1703.3,404.417 1705.88,394.439 1708.45,384.77 1711.03,375.418 1713.61,366.394 1716.18,357.707 1718.76,349.367 1721.34,341.383 
  1723.92,333.763 1726.49,326.516 1729.07,319.65 1731.65,313.171 1734.22,307.088 1736.8,301.407 1739.38,296.135 1741.96,291.276 1744.53,286.838 1747.11,282.824 
  1749.69,279.239 1752.27,276.087 1754.84,273.372 1757.42,271.097 1760,269.264 1762.57,267.876 1765.15,266.933 1767.73,266.438 1770.31,266.391 1772.88,266.791 
  1775.46,267.639 1778.04,268.933 1780.61,270.671 1783.19,272.853 1785.77,275.475 1788.35,278.534 1790.92,282.028 1793.5,285.951 1796.08,290.3 1798.66,295.07 
  1801.23,300.256 1803.81,305.85 1806.39,311.849 1808.96,318.244 1811.54,325.029 1814.12,332.196 1816.7,339.737 1819.27,347.645 1821.85,355.91 1824.43,364.524 
  1827,373.477 1829.58,382.761 1832.16,392.364 1834.74,402.277 1837.31,412.49 1839.89,422.991 1842.47,433.771 1845.04,444.818 1847.62,456.12 1850.2,467.667 
  1852.78,479.447 1855.35,491.448 1857.93,503.658 1860.51,516.066 1863.09,528.66 1865.66,541.427 1868.24,554.356 1870.82,567.435 1873.39,580.651 1875.97,593.993 
  1878.55,607.449 1881.13,621.006 1883.7,634.653 1886.28,648.379 1888.86,662.171 1891.43,676.018 1894.01,689.909 1896.59,703.832 1899.17,717.777 1901.74,731.732 
  1904.32,745.688 1906.9,759.632 1909.48,773.556 1912.05,787.45 1914.63,801.302 1917.21,815.105 1919.78,828.848 1922.36,842.523 1924.94,856.12 1927.52,869.633 
  1930.09,883.051 1932.67,896.368 1935.25,909.575 1937.82,922.666 1940.4,935.634 1942.98,948.472 1945.56,961.173 1948.13,973.732 1950.71,986.142 1953.29,998.399 
  1955.87,1010.5 1958.44,1022.43 1961.02,1034.2 1963.6,1045.79 1966.17,1057.21 1968.75,1068.45 1971.33,1079.51 1973.91,1090.38 1976.48,1101.06 1979.06,1111.56 
  1981.64,1121.85 1984.21,1131.96 1986.79,1141.87 1989.37,1151.58 1991.95,1161.09 1994.52,1170.41 1997.1,1179.52 1999.68,1188.44 2002.25,1197.15 2004.83,1205.67 
  2007.41,1213.99 2009.99,1222.1 2012.56,1230.02 2015.14,1237.75 2017.72,1245.28 2020.3,1252.61 2022.87,1259.75 2025.45,1266.7 2028.03,1273.46 2030.6,1280.04 
  2033.18,1286.42 2035.76,1292.63 2038.34,1298.66 2040.91,1304.51 2043.49,1310.18 2046.07,1315.68 2048.64,1321.01 2051.22,1326.17 2053.8,1331.17 2056.38,1336.01 
  2058.95,1340.69 2061.53,1345.22 2064.11,1349.59 2066.69,1353.82 2069.26,1357.9 2071.84,1361.83 2074.42,1365.63 2076.99,1369.29 2079.57,1372.82 2082.15,1376.23 
  2084.73,1379.5 2087.3,1382.65 2089.88,1385.69 2092.46,1388.6 2095.03,1391.41 2097.61,1394.1 2100.19,1396.69 2102.77,1399.17 2105.34,1401.55 2107.92,1403.84 
  2110.5,1406.03 2113.08,1408.13 2115.65,1410.14 2118.23,1412.07 2120.81,1413.91 2123.38,1415.68 2125.96,1417.36 2128.54,1418.98 2131.12,1420.52 2133.69,1421.99 
  2136.27,1423.39 2138.85,1424.73 2141.42,1426.01 2144,1427.23 2146.58,1428.39 2149.16,1429.49 2151.73,1430.54 2154.31,1431.55 2156.89,1432.5 2159.46,1433.41 
  2162.04,1434.27 2164.62,1435.09 2167.2,1435.86 2169.77,1436.6 2172.35,1437.3 2174.93,1437.97 2177.51,1438.6 2180.08,1439.19 2182.66,1439.76 2185.24,1440.3 
  2187.81,1440.8 2190.39,1441.28 2192.97,1441.74 2195.55,1442.16 2198.12,1442.57 2200.7,1442.95 2203.28,1443.31 2205.85,1443.66 2208.43,1443.98 2211.01,1444.28 
  2213.59,1444.57 2216.16,1444.84 2218.74,1445.09 2221.32,1445.33 2223.9,1445.55 2226.47,1445.77 2229.05,1445.96 2231.63,1446.15 2234.2,1446.33 2236.78,1446.49 
  2239.36,1446.65 2241.94,1446.79 2244.51,1446.93 2247.09,1447.06 2249.67,1447.18 2252.24,1447.29 2254.82,1447.39 2257.4,1447.49 2259.98,1447.58 2262.55,1447.67 
  2265.13,1447.75 2267.71,1447.83 2270.29,1447.9 2272.86,1447.96 2275.44,1448.02 2278.02,1448.08 2280.59,1448.13 2283.17,1448.18 2285.75,1448.23 2288.33,1448.27 
  2290.9,1448.31 
  "/>
<path clip-path="url(#clip3200)" d="
M1893.61 447.115 L2280.76 447.115 L2280.76 205.195 L1893.61 205.195  Z
  " fill="#ffffff" fill-rule="evenodd" fill-opacity="1"/>
<polyline clip-path="url(#clip3200)" style="stroke:#000000; stroke-width:4; stroke-opacity:1; fill:none" points="
  1893.61,447.115 2280.76,447.115 2280.76,205.195 1893.61,205.195 1893.61,447.115 
  "/>
<polyline clip-path="url(#clip3200)" style="stroke:#009af9; stroke-width:4; stroke-opacity:1; fill:none" points="
  1917.61,265.675 2061.61,265.675 
  "/>
<g clip-path="url(#clip3200)">
<text style="fill:#000000; fill-opacity:1; font-family:Arial,Helvetica Neue,Helvetica,sans-serif; font-size:48px; text-anchor:start;" transform="rotate(0, 2085.61, 283.175)" x="2085.61" y="283.175">Data</text>
</g>
<polyline clip-path="url(#clip3200)" style="stroke:#e26f46; stroke-width:4; stroke-opacity:1; fill:none" points="
  1917.61,326.155 2061.61,326.155 
  "/>
<g clip-path="url(#clip3200)">
<text style="fill:#000000; fill-opacity:1; font-family:Arial,Helvetica Neue,Helvetica,sans-serif; font-size:48px; text-anchor:start;" transform="rotate(0, 2085.61, 343.655)" x="2085.61" y="343.655">Truth</text>
</g>
<polyline clip-path="url(#clip3200)" style="stroke:#3da44d; stroke-width:4; stroke-opacity:1; fill:none" points="
  1917.61,386.635 2061.61,386.635 
  "/>
<g clip-path="url(#clip3200)">
<text style="fill:#000000; fill-opacity:1; font-family:Arial,Helvetica Neue,Helvetica,sans-serif; font-size:48px; text-anchor:start;" transform="rotate(0, 2085.61, 404.135)" x="2085.61" y="404.135">Best fit</text>
</g>
</svg>
