<?xml version="1.0" encoding="utf-8"?>
<svg xmlns="http://www.w3.org/2000/svg" xmlns:xlink="http://www.w3.org/1999/xlink" width="600" height="400" viewBox="0 0 2400 1600">
<defs>
  <clipPath id="clip170">
    <rect x="0" y="0" width="2400" height="1600"/>
  </clipPath>
</defs>
<path clip-path="url(#clip170)" d="
M0 1600 L2400 1600 L2400 0 L0 0  Z
  " fill="#ffffff" fill-rule="evenodd" fill-opacity="1"/>
<defs>
  <clipPath id="clip171">
    <rect x="480" y="0" width="1681" height="1600"/>
  </clipPath>
</defs>
<path clip-path="url(#clip170)" d="
M172.015 1486.45 L2352.76 1486.45 L2352.76 123.472 L172.015 123.472  Z
  " fill="#ffffff" fill-rule="evenodd" fill-opacity="1"/>
<defs>
  <clipPath id="clip172">
    <rect x="172" y="123" width="2182" height="1364"/>
  </clipPath>
</defs>
<polyline clip-path="url(#clip172)" style="stroke:#000000; stroke-width:2; stroke-opacity:0.1; fill:none" points="
  233.734,1486.45 233.734,123.472 
  "/>
<polyline clip-path="url(#clip172)" style="stroke:#000000; stroke-width:2; stroke-opacity:0.1; fill:none" points="
  748.06,1486.45 748.06,123.472 
  "/>
<polyline clip-path="url(#clip172)" style="stroke:#000000; stroke-width:2; stroke-opacity:0.1; fill:none" points="
  1262.39,1486.45 1262.39,123.472 
  "/>
<polyline clip-path="url(#clip172)" style="stroke:#000000; stroke-width:2; stroke-opacity:0.1; fill:none" points="
  1776.71,1486.45 1776.71,123.472 
  "/>
<polyline clip-path="url(#clip172)" style="stroke:#000000; stroke-width:2; stroke-opacity:0.1; fill:none" points="
  2291.04,1486.45 2291.04,123.472 
  "/>
<polyline clip-path="url(#clip170)" style="stroke:#000000; stroke-width:4; stroke-opacity:1; fill:none" points="
  172.015,1486.45 2352.76,1486.45 
  "/>
<polyline clip-path="url(#clip170)" style="stroke:#000000; stroke-width:4; stroke-opacity:1; fill:none" points="
  233.734,1486.45 233.734,1470.09 
  "/>
<polyline clip-path="url(#clip170)" style="stroke:#000000; stroke-width:4; stroke-opacity:1; fill:none" points="
  748.06,1486.45 748.06,1470.09 
  "/>
<polyline clip-path="url(#clip170)" style="stroke:#000000; stroke-width:4; stroke-opacity:1; fill:none" points="
  1262.39,1486.45 1262.39,1470.09 
  "/>
<polyline clip-path="url(#clip170)" style="stroke:#000000; stroke-width:4; stroke-opacity:1; fill:none" points="
  1776.71,1486.45 1776.71,1470.09 
  "/>
<polyline clip-path="url(#clip170)" style="stroke:#000000; stroke-width:4; stroke-opacity:1; fill:none" points="
  2291.04,1486.45 2291.04,1470.09 
  "/>
<path clip-path="url(#clip170)" d="M 0 0 M202.635 1530.29 L232.31 1530.29 L232.31 1534.23 L202.635 1534.23 L202.635 1530.29 Z" fill="#000000" fill-rule="evenodd" fill-opacity="1" /><path clip-path="url(#clip170)" d="M 0 0 M255.25 1516.63 L243.445 1535.08 L255.25 1535.08 L255.25 1516.63 M254.023 1512.56 L259.903 1512.56 L259.903 1535.08 L264.833 1535.08 L264.833 1538.97 L259.903 1538.97 L259.903 1547.12 L255.25 1547.12 L255.25 1538.97 L239.648 1538.97 L239.648 1534.46 L254.023 1512.56 Z" fill="#000000" fill-rule="evenodd" fill-opacity="1" /><path clip-path="url(#clip170)" d="M 0 0 M718.002 1530.29 L747.678 1530.29 L747.678 1534.23 L718.002 1534.23 L718.002 1530.29 Z" fill="#000000" fill-rule="evenodd" fill-opacity="1" /><path clip-path="url(#clip170)" d="M 0 0 M761.798 1543.18 L778.117 1543.18 L778.117 1547.12 L756.173 1547.12 L756.173 1543.18 Q758.835 1540.43 763.418 1535.8 Q768.025 1531.15 769.205 1529.81 Q771.451 1527.28 772.33 1525.55 Q773.233 1523.79 773.233 1522.1 Q773.233 1519.34 771.289 1517.61 Q769.367 1515.87 766.266 1515.87 Q764.066 1515.87 761.613 1516.63 Q759.182 1517.4 756.404 1518.95 L756.404 1514.23 Q759.229 1513.09 761.682 1512.51 Q764.136 1511.93 766.173 1511.93 Q771.543 1511.93 774.738 1514.62 Q777.932 1517.31 777.932 1521.8 Q777.932 1523.93 777.122 1525.85 Q776.335 1527.74 774.228 1530.34 Q773.65 1531.01 770.548 1534.23 Q767.446 1537.42 761.798 1543.18 Z" fill="#000000" fill-rule="evenodd" fill-opacity="1" /><path clip-path="url(#clip170)" d="M 0 0 M1262.39 1515.64 Q1258.77 1515.64 1256.95 1519.2 Q1255.14 1522.75 1255.14 1529.87 Q1255.14 1536.98 1256.95 1540.55 Q1258.77 1544.09 1262.39 1544.09 Q1266.02 1544.09 1267.83 1540.55 Q1269.65 1536.98 1269.65 1529.87 Q1269.65 1522.75 1267.83 1519.2 Q1266.02 1515.64 1262.39 1515.64 M1262.39 1511.93 Q1268.2 1511.93 1271.25 1516.54 Q1274.33 1521.12 1274.33 1529.87 Q1274.33 1538.6 1271.25 1543.21 Q1268.2 1547.79 1262.39 1547.79 Q1256.58 1547.79 1253.5 1543.21 Q1250.44 1538.6 1250.44 1529.87 Q1250.44 1521.12 1253.5 1516.54 Q1256.58 1511.93 1262.39 1511.93 Z" fill="#000000" fill-rule="evenodd" fill-opacity="1" /><path clip-path="url(#clip170)" d="M 0 0 M1771.36 1543.18 L1787.68 1543.18 L1787.68 1547.12 L1765.74 1547.12 L1765.74 1543.18 Q1768.4 1540.43 1772.98 1535.8 Q1777.59 1531.15 1778.77 1529.81 Q1781.02 1527.28 1781.9 1525.55 Q1782.8 1523.79 1782.8 1522.1 Q1782.8 1519.34 1780.85 1517.61 Q1778.93 1515.87 1775.83 1515.87 Q1773.63 1515.87 1771.18 1516.63 Q1768.75 1517.4 1765.97 1518.95 L1765.97 1514.23 Q1768.79 1513.09 1771.25 1512.51 Q1773.7 1511.93 1775.74 1511.93 Q1781.11 1511.93 1784.3 1514.62 Q1787.5 1517.31 1787.5 1521.8 Q1787.5 1523.93 1786.69 1525.85 Q1785.9 1527.74 1783.79 1530.34 Q1783.22 1531.01 1780.11 1534.23 Q1777.01 1537.42 1771.36 1543.18 Z" fill="#000000" fill-rule="evenodd" fill-opacity="1" /><path clip-path="url(#clip170)" d="M 0 0 M2294.05 1516.63 L2282.24 1535.08 L2294.05 1535.08 L2294.05 1516.63 M2292.82 1512.56 L2298.7 1512.56 L2298.7 1535.08 L2303.63 1535.08 L2303.63 1538.97 L2298.7 1538.97 L2298.7 1547.12 L2294.05 1547.12 L2294.05 1538.97 L2278.44 1538.97 L2278.44 1534.46 L2292.82 1512.56 Z" fill="#000000" fill-rule="evenodd" fill-opacity="1" /><polyline clip-path="url(#clip172)" style="stroke:#000000; stroke-width:2; stroke-opacity:0.1; fill:none" points="
  172.015,1447.87 2352.76,1447.87 
  "/>
<polyline clip-path="url(#clip172)" style="stroke:#000000; stroke-width:2; stroke-opacity:0.1; fill:none" points="
  172.015,1148.84 2352.76,1148.84 
  "/>
<polyline clip-path="url(#clip172)" style="stroke:#000000; stroke-width:2; stroke-opacity:0.1; fill:none" points="
  172.015,849.814 2352.76,849.814 
  "/>
<polyline clip-path="url(#clip172)" style="stroke:#000000; stroke-width:2; stroke-opacity:0.1; fill:none" points="
  172.015,550.785 2352.76,550.785 
  "/>
<polyline clip-path="url(#clip172)" style="stroke:#000000; stroke-width:2; stroke-opacity:0.1; fill:none" points="
  172.015,251.756 2352.76,251.756 
  "/>
<polyline clip-path="url(#clip170)" style="stroke:#000000; stroke-width:4; stroke-opacity:1; fill:none" points="
  172.015,1486.45 172.015,123.472 
  "/>
<polyline clip-path="url(#clip170)" style="stroke:#000000; stroke-width:4; stroke-opacity:1; fill:none" points="
  172.015,1447.87 198.184,1447.87 
  "/>
<polyline clip-path="url(#clip170)" style="stroke:#000000; stroke-width:4; stroke-opacity:1; fill:none" points="
  172.015,1148.84 198.184,1148.84 
  "/>
<polyline clip-path="url(#clip170)" style="stroke:#000000; stroke-width:4; stroke-opacity:1; fill:none" points="
  172.015,849.814 198.184,849.814 
  "/>
<polyline clip-path="url(#clip170)" style="stroke:#000000; stroke-width:4; stroke-opacity:1; fill:none" points="
  172.015,550.785 198.184,550.785 
  "/>
<polyline clip-path="url(#clip170)" style="stroke:#000000; stroke-width:4; stroke-opacity:1; fill:none" points="
  172.015,251.756 198.184,251.756 
  "/>
<path clip-path="url(#clip170)" d="M 0 0 M124.07 1433.67 Q120.459 1433.67 118.631 1437.24 Q116.825 1440.78 116.825 1447.91 Q116.825 1455.01 118.631 1458.58 Q120.459 1462.12 124.07 1462.12 Q127.705 1462.12 129.51 1458.58 Q131.339 1455.01 131.339 1447.91 Q131.339 1440.78 129.51 1437.24 Q127.705 1433.67 124.07 1433.67 M124.07 1429.97 Q129.881 1429.97 132.936 1434.57 Q136.015 1439.16 136.015 1447.91 Q136.015 1456.63 132.936 1461.24 Q129.881 1465.82 124.07 1465.82 Q118.26 1465.82 115.182 1461.24 Q112.126 1456.63 112.126 1447.91 Q112.126 1439.16 115.182 1434.57 Q118.26 1429.97 124.07 1429.97 Z" fill="#000000" fill-rule="evenodd" fill-opacity="1" /><path clip-path="url(#clip170)" d="M 0 0 M57.7745 1162.19 L74.0939 1162.19 L74.0939 1166.12 L52.1495 1166.12 L52.1495 1162.19 Q54.8115 1159.43 59.3949 1154.8 Q64.0013 1150.15 65.1819 1148.81 Q67.4272 1146.29 68.3068 1144.55 Q69.2096 1142.79 69.2096 1141.1 Q69.2096 1138.35 67.2652 1136.61 Q65.3439 1134.87 62.2421 1134.87 Q60.043 1134.87 57.5893 1135.64 Q55.1588 1136.4 52.381 1137.95 L52.381 1133.23 Q55.2051 1132.1 57.6588 1131.52 Q60.1124 1130.94 62.1495 1130.94 Q67.5198 1130.94 70.7142 1133.62 Q73.9087 1136.31 73.9087 1140.8 Q73.9087 1142.93 73.0985 1144.85 Q72.3115 1146.75 70.205 1149.34 Q69.6263 1150.01 66.5245 1153.23 Q63.4226 1156.42 57.7745 1162.19 Z" fill="#000000" fill-rule="evenodd" fill-opacity="1" /><path clip-path="url(#clip170)" d="M 0 0 M93.9086 1134.64 Q90.2975 1134.64 88.4688 1138.21 Q86.6632 1141.75 86.6632 1148.88 Q86.6632 1155.98 88.4688 1159.55 Q90.2975 1163.09 93.9086 1163.09 Q97.5428 1163.09 99.3483 1159.55 Q101.177 1155.98 101.177 1148.88 Q101.177 1141.75 99.3483 1138.21 Q97.5428 1134.64 93.9086 1134.64 M93.9086 1130.94 Q99.7187 1130.94 102.774 1135.55 Q105.853 1140.13 105.853 1148.88 Q105.853 1157.61 102.774 1162.21 Q99.7187 1166.8 93.9086 1166.8 Q88.0984 1166.8 85.0197 1162.21 Q81.9642 1157.61 81.9642 1148.88 Q81.9642 1140.13 85.0197 1135.55 Q88.0984 1130.94 93.9086 1130.94 Z" fill="#000000" fill-rule="evenodd" fill-opacity="1" /><path clip-path="url(#clip170)" d="M 0 0 M124.07 1134.64 Q120.459 1134.64 118.631 1138.21 Q116.825 1141.75 116.825 1148.88 Q116.825 1155.98 118.631 1159.55 Q120.459 1163.09 124.07 1163.09 Q127.705 1163.09 129.51 1159.55 Q131.339 1155.98 131.339 1148.88 Q131.339 1141.75 129.51 1138.21 Q127.705 1134.64 124.07 1134.64 M124.07 1130.94 Q129.881 1130.94 132.936 1135.55 Q136.015 1140.13 136.015 1148.88 Q136.015 1157.61 132.936 1162.21 Q129.881 1166.8 124.07 1166.8 Q118.26 1166.8 115.182 1162.21 Q112.126 1157.61 112.126 1148.88 Q112.126 1140.13 115.182 1135.55 Q118.26 1130.94 124.07 1130.94 Z" fill="#000000" fill-rule="evenodd" fill-opacity="1" /><path clip-path="url(#clip170)" d="M 0 0 M66.5939 836.608 L54.7884 855.057 L66.5939 855.057 L66.5939 836.608 M65.367 832.534 L71.2466 832.534 L71.2466 855.057 L76.1772 855.057 L76.1772 858.946 L71.2466 858.946 L71.2466 867.094 L66.5939 867.094 L66.5939 858.946 L50.9921 858.946 L50.9921 854.432 L65.367 832.534 Z" fill="#000000" fill-rule="evenodd" fill-opacity="1" /><path clip-path="url(#clip170)" d="M 0 0 M93.9086 835.613 Q90.2975 835.613 88.4688 839.178 Q86.6632 842.72 86.6632 849.849 Q86.6632 856.956 88.4688 860.52 Q90.2975 864.062 93.9086 864.062 Q97.5428 864.062 99.3483 860.52 Q101.177 856.956 101.177 849.849 Q101.177 842.72 99.3483 839.178 Q97.5428 835.613 93.9086 835.613 M93.9086 831.909 Q99.7187 831.909 102.774 836.516 Q105.853 841.099 105.853 849.849 Q105.853 858.576 102.774 863.182 Q99.7187 867.766 93.9086 867.766 Q88.0984 867.766 85.0197 863.182 Q81.9642 858.576 81.9642 849.849 Q81.9642 841.099 85.0197 836.516 Q88.0984 831.909 93.9086 831.909 Z" fill="#000000" fill-rule="evenodd" fill-opacity="1" /><path clip-path="url(#clip170)" d="M 0 0 M124.07 835.613 Q120.459 835.613 118.631 839.178 Q116.825 842.72 116.825 849.849 Q116.825 856.956 118.631 860.52 Q120.459 864.062 124.07 864.062 Q127.705 864.062 129.51 860.52 Q131.339 856.956 131.339 849.849 Q131.339 842.72 129.51 839.178 Q127.705 835.613 124.07 835.613 M124.07 831.909 Q129.881 831.909 132.936 836.516 Q136.015 841.099 136.015 849.849 Q136.015 858.576 132.936 863.182 Q129.881 867.766 124.07 867.766 Q118.26 867.766 115.182 863.182 Q112.126 858.576 112.126 849.849 Q112.126 841.099 115.182 836.516 Q118.26 831.909 124.07 831.909 Z" fill="#000000" fill-rule="evenodd" fill-opacity="1" /><path clip-path="url(#clip170)" d="M 0 0 M64.3254 548.922 Q61.1773 548.922 59.3254 551.074 Q57.4967 553.227 57.4967 556.977 Q57.4967 560.704 59.3254 562.88 Q61.1773 565.033 64.3254 565.033 Q67.4735 565.033 69.3022 562.88 Q71.1541 560.704 71.1541 556.977 Q71.1541 553.227 69.3022 551.074 Q67.4735 548.922 64.3254 548.922 M73.6077 534.269 L73.6077 538.528 Q71.8485 537.695 70.0429 537.255 Q68.2606 536.815 66.5013 536.815 Q61.8717 536.815 59.418 539.94 Q56.9875 543.065 56.6402 549.385 Q58.006 547.371 60.0662 546.306 Q62.1263 545.218 64.6032 545.218 Q69.8115 545.218 72.8207 548.389 Q75.8531 551.537 75.8531 556.977 Q75.8531 562.301 72.705 565.519 Q69.5568 568.736 64.3254 568.736 Q58.33 568.736 55.1588 564.153 Q51.9875 559.547 51.9875 550.82 Q51.9875 542.625 55.8764 537.764 Q59.7652 532.88 66.3161 532.88 Q68.0754 532.88 69.8578 533.227 Q71.6633 533.575 73.6077 534.269 Z" fill="#000000" fill-rule="evenodd" fill-opacity="1" /><path clip-path="url(#clip170)" d="M 0 0 M93.9086 536.584 Q90.2975 536.584 88.4688 540.149 Q86.6632 543.69 86.6632 550.82 Q86.6632 557.926 88.4688 561.491 Q90.2975 565.033 93.9086 565.033 Q97.5428 565.033 99.3483 561.491 Q101.177 557.926 101.177 550.82 Q101.177 543.69 99.3483 540.149 Q97.5428 536.584 93.9086 536.584 M93.9086 532.88 Q99.7187 532.88 102.774 537.487 Q105.853 542.07 105.853 550.82 Q105.853 559.547 102.774 564.153 Q99.7187 568.736 93.9086 568.736 Q88.0984 568.736 85.0197 564.153 Q81.9642 559.547 81.9642 550.82 Q81.9642 542.07 85.0197 537.487 Q88.0984 532.88 93.9086 532.88 Z" fill="#000000" fill-rule="evenodd" fill-opacity="1" /><path clip-path="url(#clip170)" d="M 0 0 M124.07 536.584 Q120.459 536.584 118.631 540.149 Q116.825 543.69 116.825 550.82 Q116.825 557.926 118.631 561.491 Q120.459 565.033 124.07 565.033 Q127.705 565.033 129.51 561.491 Q131.339 557.926 131.339 550.82 Q131.339 543.69 129.51 540.149 Q127.705 536.584 124.07 536.584 M124.07 532.88 Q129.881 532.88 132.936 537.487 Q136.015 542.07 136.015 550.82 Q136.015 559.547 132.936 564.153 Q129.881 568.736 124.07 568.736 Q118.26 568.736 115.182 564.153 Q112.126 559.547 112.126 550.82 Q112.126 542.07 115.182 537.487 Q118.26 532.88 124.07 532.88 Z" fill="#000000" fill-rule="evenodd" fill-opacity="1" /><path clip-path="url(#clip170)" d="M 0 0 M63.7467 252.624 Q60.4134 252.624 58.4921 254.406 Q56.5939 256.189 56.5939 259.314 Q56.5939 262.439 58.4921 264.221 Q60.4134 266.003 63.7467 266.003 Q67.08 266.003 69.0013 264.221 Q70.9226 262.415 70.9226 259.314 Q70.9226 256.189 69.0013 254.406 Q67.1032 252.624 63.7467 252.624 M59.0708 250.633 Q56.0615 249.892 54.3717 247.832 Q52.7051 245.772 52.7051 242.809 Q52.7051 238.666 55.6449 236.258 Q58.6078 233.851 63.7467 233.851 Q68.9087 233.851 71.8485 236.258 Q74.7883 238.666 74.7883 242.809 Q74.7883 245.772 73.0985 247.832 Q71.4318 249.892 68.4457 250.633 Q71.8253 251.42 73.7003 253.712 Q75.5985 256.003 75.5985 259.314 Q75.5985 264.337 72.5198 267.022 Q69.4642 269.707 63.7467 269.707 Q58.0291 269.707 54.9504 267.022 Q51.8949 264.337 51.8949 259.314 Q51.8949 256.003 53.793 253.712 Q55.6912 251.42 59.0708 250.633 M57.3578 243.249 Q57.3578 245.934 59.0245 247.439 Q60.7143 248.943 63.7467 248.943 Q66.7559 248.943 68.4457 247.439 Q70.1587 245.934 70.1587 243.249 Q70.1587 240.564 68.4457 239.059 Q66.7559 237.554 63.7467 237.554 Q60.7143 237.554 59.0245 239.059 Q57.3578 240.564 57.3578 243.249 Z" fill="#000000" fill-rule="evenodd" fill-opacity="1" /><path clip-path="url(#clip170)" d="M 0 0 M93.9086 237.554 Q90.2975 237.554 88.4688 241.119 Q86.6632 244.661 86.6632 251.79 Q86.6632 258.897 88.4688 262.462 Q90.2975 266.003 93.9086 266.003 Q97.5428 266.003 99.3483 262.462 Q101.177 258.897 101.177 251.79 Q101.177 244.661 99.3483 241.119 Q97.5428 237.554 93.9086 237.554 M93.9086 233.851 Q99.7187 233.851 102.774 238.457 Q105.853 243.04 105.853 251.79 Q105.853 260.517 102.774 265.124 Q99.7187 269.707 93.9086 269.707 Q88.0984 269.707 85.0197 265.124 Q81.9642 260.517 81.9642 251.79 Q81.9642 243.04 85.0197 238.457 Q88.0984 233.851 93.9086 233.851 Z" fill="#000000" fill-rule="evenodd" fill-opacity="1" /><path clip-path="url(#clip170)" d="M 0 0 M124.07 237.554 Q120.459 237.554 118.631 241.119 Q116.825 244.661 116.825 251.79 Q116.825 258.897 118.631 262.462 Q120.459 266.003 124.07 266.003 Q127.705 266.003 129.51 262.462 Q131.339 258.897 131.339 251.79 Q131.339 244.661 129.51 241.119 Q127.705 237.554 124.07 237.554 M124.07 233.851 Q129.881 233.851 132.936 238.457 Q136.015 243.04 136.015 251.79 Q136.015 260.517 132.936 265.124 Q129.881 269.707 124.07 269.707 Q118.26 269.707 115.182 265.124 Q112.126 260.517 112.126 251.79 Q112.126 243.04 115.182 238.457 Q118.26 233.851 124.07 233.851 Z" fill="#000000" fill-rule="evenodd" fill-opacity="1" /><path clip-path="url(#clip170)" d="M 0 0 M631.092 18.8205 L631.092 65.8515 L640.977 65.8515 Q653.494 65.8515 659.287 60.1802 Q665.12 54.509 665.12 42.2752 Q665.12 30.1225 659.287 24.4918 Q653.494 18.8205 640.977 18.8205 L631.092 18.8205 M622.91 12.096 L639.721 12.096 Q657.302 12.096 665.525 19.4281 Q673.748 26.7198 673.748 42.2752 Q673.748 57.9117 665.485 65.2439 Q657.221 72.576 639.721 72.576 L622.91 72.576 L622.91 12.096 Z" fill="#000000" fill-rule="evenodd" fill-opacity="1" /><path clip-path="url(#clip170)" d="M 0 0 M707.087 49.7694 Q698.054 49.7694 694.57 51.8354 Q691.086 53.9013 691.086 58.8839 Q691.086 62.8538 693.679 65.2034 Q696.312 67.5124 700.809 67.5124 Q707.006 67.5124 710.733 63.1374 Q714.501 58.7219 714.501 51.4303 L714.501 49.7694 L707.087 49.7694 M721.954 46.6907 L721.954 72.576 L714.501 72.576 L714.501 65.6895 Q711.948 69.8214 708.141 71.8063 Q704.333 73.7508 698.824 73.7508 Q691.856 73.7508 687.724 69.8619 Q683.633 65.9325 683.633 59.3701 Q683.633 51.7138 688.737 47.825 Q693.881 43.9361 704.049 43.9361 L714.501 43.9361 L714.501 43.2069 Q714.501 38.0623 711.098 35.2672 Q707.736 32.4315 701.619 32.4315 Q697.73 32.4315 694.044 33.3632 Q690.357 34.295 686.954 36.1584 L686.954 29.2718 Q691.046 27.692 694.894 26.9223 Q698.743 26.1121 702.388 26.1121 Q712.232 26.1121 717.093 31.2163 Q721.954 36.3204 721.954 46.6907 Z" fill="#000000" fill-rule="evenodd" fill-opacity="1" /><path clip-path="url(#clip170)" d="M 0 0 M744.68 14.324 L744.68 27.2059 L760.033 27.2059 L760.033 32.9987 L744.68 32.9987 L744.68 57.6282 Q744.68 63.1779 746.179 64.7578 Q747.718 66.3376 752.377 66.3376 L760.033 66.3376 L760.033 72.576 L752.377 72.576 Q743.748 72.576 740.467 69.3758 Q737.186 66.1351 737.186 57.6282 L737.186 32.9987 L731.717 32.9987 L731.717 27.2059 L737.186 27.2059 L737.186 14.324 L744.68 14.324 Z" fill="#000000" fill-rule="evenodd" fill-opacity="1" /><path clip-path="url(#clip170)" d="M 0 0 M790.455 49.7694 Q781.422 49.7694 777.938 51.8354 Q774.454 53.9013 774.454 58.8839 Q774.454 62.8538 777.047 65.2034 Q779.68 67.5124 784.176 67.5124 Q790.374 67.5124 794.101 63.1374 Q797.868 58.7219 797.868 51.4303 L797.868 49.7694 L790.455 49.7694 M805.322 46.6907 L805.322 72.576 L797.868 72.576 L797.868 65.6895 Q795.316 69.8214 791.508 71.8063 Q787.7 73.7508 782.191 73.7508 Q775.224 73.7508 771.092 69.8619 Q767 65.9325 767 59.3701 Q767 51.7138 772.104 47.825 Q777.249 43.9361 787.417 43.9361 L797.868 43.9361 L797.868 43.2069 Q797.868 38.0623 794.465 35.2672 Q791.103 32.4315 784.986 32.4315 Q781.097 32.4315 777.411 33.3632 Q773.725 34.295 770.322 36.1584 L770.322 29.2718 Q774.413 27.692 778.262 26.9223 Q782.11 26.1121 785.756 26.1121 Q795.6 26.1121 800.461 31.2163 Q805.322 36.3204 805.322 46.6907 Z" fill="#000000" fill-rule="evenodd" fill-opacity="1" /><path clip-path="url(#clip170)" d="M 0 0 M867.665 49.7694 Q858.632 49.7694 855.148 51.8354 Q851.664 53.9013 851.664 58.8839 Q851.664 62.8538 854.257 65.2034 Q856.89 67.5124 861.386 67.5124 Q867.584 67.5124 871.311 63.1374 Q875.078 58.7219 875.078 51.4303 L875.078 49.7694 L867.665 49.7694 M882.532 46.6907 L882.532 72.576 L875.078 72.576 L875.078 65.6895 Q872.526 69.8214 868.718 71.8063 Q864.911 73.7508 859.401 73.7508 Q852.434 73.7508 848.302 69.8619 Q844.211 65.9325 844.211 59.3701 Q844.211 51.7138 849.315 47.825 Q854.459 43.9361 864.627 43.9361 L875.078 43.9361 L875.078 43.2069 Q875.078 38.0623 871.676 35.2672 Q868.313 32.4315 862.197 32.4315 Q858.308 32.4315 854.621 33.3632 Q850.935 34.295 847.532 36.1584 L847.532 29.2718 Q851.624 27.692 855.472 26.9223 Q859.32 26.1121 862.966 26.1121 Q872.81 26.1121 877.671 31.2163 Q882.532 36.3204 882.532 46.6907 Z" fill="#000000" fill-rule="evenodd" fill-opacity="1" /><path clip-path="url(#clip170)" d="M 0 0 M935.599 45.1919 L935.599 72.576 L928.145 72.576 L928.145 45.4349 Q928.145 38.994 925.634 35.7938 Q923.122 32.5936 918.099 32.5936 Q912.063 32.5936 908.579 36.4419 Q905.096 40.2903 905.096 46.9338 L905.096 72.576 L897.601 72.576 L897.601 27.2059 L905.096 27.2059 L905.096 34.2544 Q907.769 30.163 911.375 28.1376 Q915.02 26.1121 919.76 26.1121 Q927.578 26.1121 931.589 30.9732 Q935.599 35.7938 935.599 45.1919 Z" fill="#000000" fill-rule="evenodd" fill-opacity="1" /><path clip-path="url(#clip170)" d="M 0 0 M980.321 34.0924 L980.321 9.54393 L987.775 9.54393 L987.775 72.576 L980.321 72.576 L980.321 65.7705 Q977.971 69.8214 974.366 71.8063 Q970.801 73.7508 965.778 73.7508 Q957.555 73.7508 952.37 67.1883 Q947.225 60.6258 947.225 49.9314 Q947.225 39.2371 952.37 32.6746 Q957.555 26.1121 965.778 26.1121 Q970.801 26.1121 974.366 28.0971 Q977.971 30.0415 980.321 34.0924 M954.922 49.9314 Q954.922 58.1548 958.284 62.8538 Q961.687 67.5124 967.601 67.5124 Q973.515 67.5124 976.918 62.8538 Q980.321 58.1548 980.321 49.9314 Q980.321 41.7081 976.918 37.0496 Q973.515 32.3505 967.601 32.3505 Q961.687 32.3505 958.284 37.0496 Q954.922 41.7081 954.922 49.9314 Z" fill="#000000" fill-rule="evenodd" fill-opacity="1" /><path clip-path="url(#clip170)" d="M 0 0 M1021.44 12.096 L1072.6 12.096 L1072.6 18.9825 L1051.13 18.9825 L1051.13 72.576 L1042.91 72.576 L1042.91 18.9825 L1021.44 18.9825 L1021.44 12.096 Z" fill="#000000" fill-rule="evenodd" fill-opacity="1" /><path clip-path="url(#clip170)" d="M 0 0 M1094.27 34.1734 Q1093.02 33.4443 1091.52 33.1202 Q1090.06 32.7556 1088.28 32.7556 Q1081.96 32.7556 1078.56 36.8875 Q1075.19 40.9789 1075.19 48.6757 L1075.19 72.576 L1067.7 72.576 L1067.7 27.2059 L1075.19 27.2059 L1075.19 34.2544 Q1077.54 30.1225 1081.31 28.1376 Q1085.08 26.1121 1090.46 26.1121 Q1091.23 26.1121 1092.17 26.2337 Q1093.1 26.3147 1094.23 26.5172 L1094.27 34.1734 Z" fill="#000000" fill-rule="evenodd" fill-opacity="1" /><path clip-path="url(#clip170)" d="M 0 0 M1101.32 54.671 L1101.32 27.2059 L1108.78 27.2059 L1108.78 54.3874 Q1108.78 60.8284 1111.29 64.0691 Q1113.8 67.2693 1118.82 67.2693 Q1124.86 67.2693 1128.34 63.421 Q1131.87 59.5726 1131.87 52.9291 L1131.87 27.2059 L1139.32 27.2059 L1139.32 72.576 L1131.87 72.576 L1131.87 65.6084 Q1129.15 69.7404 1125.55 71.7658 Q1121.98 73.7508 1117.24 73.7508 Q1109.42 73.7508 1105.37 68.8897 Q1101.32 64.0286 1101.32 54.671 M1120.08 26.1121 L1120.08 26.1121 Z" fill="#000000" fill-rule="evenodd" fill-opacity="1" /><path clip-path="url(#clip170)" d="M 0 0 M1193.48 48.0275 L1193.48 51.6733 L1159.21 51.6733 Q1159.69 59.3701 1163.83 63.421 Q1168 67.4314 1175.41 67.4314 Q1179.71 67.4314 1183.72 66.3781 Q1187.77 65.3249 1191.74 63.2184 L1191.74 70.267 Q1187.73 71.9684 1183.51 72.8596 Q1179.3 73.7508 1174.97 73.7508 Q1164.11 73.7508 1157.75 67.4314 Q1151.43 61.1119 1151.43 50.3365 Q1151.43 39.1965 1157.43 32.6746 Q1163.46 26.1121 1173.67 26.1121 Q1182.83 26.1121 1188.13 32.0264 Q1193.48 37.9003 1193.48 48.0275 M1186.03 45.84 Q1185.94 39.7232 1182.58 36.0774 Q1179.26 32.4315 1173.75 32.4315 Q1167.51 32.4315 1163.75 35.9558 Q1160.02 39.4801 1159.45 45.8805 L1186.03 45.84 Z" fill="#000000" fill-rule="evenodd" fill-opacity="1" /><path clip-path="url(#clip170)" d="M 0 0 M1268.66 14.0809 L1268.66 22.0612 Q1264.01 19.8332 1259.87 18.7395 Q1255.74 17.6457 1251.89 17.6457 Q1245.21 17.6457 1241.56 20.2383 Q1237.96 22.8309 1237.96 27.611 Q1237.96 31.6214 1240.35 33.6873 Q1242.78 35.7128 1249.5 36.9686 L1254.45 37.9813 Q1263.6 39.7232 1267.94 44.1387 Q1272.31 48.5136 1272.31 55.8863 Q1272.31 64.6767 1266.4 69.2137 Q1260.52 73.7508 1249.14 73.7508 Q1244.84 73.7508 1239.98 72.7785 Q1235.16 71.8063 1229.98 69.9024 L1229.98 61.4765 Q1234.96 64.2716 1239.74 65.6895 Q1244.52 67.1073 1249.14 67.1073 Q1256.15 67.1073 1259.95 64.3527 Q1263.76 61.598 1263.76 56.4939 Q1263.76 52.0379 1261.01 49.5264 Q1258.29 47.0148 1252.06 45.759 L1247.07 44.7868 Q1237.92 42.9639 1233.83 39.075 Q1229.74 35.1862 1229.74 28.2591 Q1229.74 20.2383 1235.37 15.6203 Q1241.04 11.0023 1250.96 11.0023 Q1255.22 11.0023 1259.63 11.7719 Q1264.05 12.5416 1268.66 14.0809 Z" fill="#000000" fill-rule="evenodd" fill-opacity="1" /><path clip-path="url(#clip170)" d="M 0 0 M1292.12 14.324 L1292.12 27.2059 L1307.47 27.2059 L1307.47 32.9987 L1292.12 32.9987 L1292.12 57.6282 Q1292.12 63.1779 1293.62 64.7578 Q1295.16 66.3376 1299.82 66.3376 L1307.47 66.3376 L1307.47 72.576 L1299.82 72.576 Q1291.19 72.576 1287.91 69.3758 Q1284.62 66.1351 1284.62 57.6282 L1284.62 32.9987 L1279.16 32.9987 L1279.16 27.2059 L1284.62 27.2059 L1284.62 14.324 L1292.12 14.324 Z" fill="#000000" fill-rule="evenodd" fill-opacity="1" /><path clip-path="url(#clip170)" d="M 0 0 M1337.89 49.7694 Q1328.86 49.7694 1325.38 51.8354 Q1321.89 53.9013 1321.89 58.8839 Q1321.89 62.8538 1324.49 65.2034 Q1327.12 67.5124 1331.62 67.5124 Q1337.81 67.5124 1341.54 63.1374 Q1345.31 58.7219 1345.31 51.4303 L1345.31 49.7694 L1337.89 49.7694 M1352.76 46.6907 L1352.76 72.576 L1345.31 72.576 L1345.31 65.6895 Q1342.76 69.8214 1338.95 71.8063 Q1335.14 73.7508 1329.63 73.7508 Q1322.66 73.7508 1318.53 69.8619 Q1314.44 65.9325 1314.44 59.3701 Q1314.44 51.7138 1319.54 47.825 Q1324.69 43.9361 1334.86 43.9361 L1345.31 43.9361 L1345.31 43.2069 Q1345.31 38.0623 1341.9 35.2672 Q1338.54 32.4315 1332.43 32.4315 Q1328.54 32.4315 1324.85 33.3632 Q1321.16 34.295 1317.76 36.1584 L1317.76 29.2718 Q1321.85 27.692 1325.7 26.9223 Q1329.55 26.1121 1333.2 26.1121 Q1343.04 26.1121 1347.9 31.2163 Q1352.76 36.3204 1352.76 46.6907 Z" fill="#000000" fill-rule="evenodd" fill-opacity="1" /><path clip-path="url(#clip170)" d="M 0 0 M1375.49 14.324 L1375.49 27.2059 L1390.84 27.2059 L1390.84 32.9987 L1375.49 32.9987 L1375.49 57.6282 Q1375.49 63.1779 1376.99 64.7578 Q1378.52 66.3376 1383.18 66.3376 L1390.84 66.3376 L1390.84 72.576 L1383.18 72.576 Q1374.55 72.576 1371.27 69.3758 Q1367.99 66.1351 1367.99 57.6282 L1367.99 32.9987 L1362.52 32.9987 L1362.52 27.2059 L1367.99 27.2059 L1367.99 14.324 L1375.49 14.324 Z" fill="#000000" fill-rule="evenodd" fill-opacity="1" /><path clip-path="url(#clip170)" d="M 0 0 M1400.64 27.2059 L1408.1 27.2059 L1408.1 72.576 L1400.64 72.576 L1400.64 27.2059 M1400.64 9.54393 L1408.1 9.54393 L1408.1 18.9825 L1400.64 18.9825 L1400.64 9.54393 Z" fill="#000000" fill-rule="evenodd" fill-opacity="1" /><path clip-path="url(#clip170)" d="M 0 0 M1452.62 28.5427 L1452.62 35.5912 Q1449.46 33.9709 1446.05 33.1607 Q1442.65 32.3505 1439 32.3505 Q1433.46 32.3505 1430.66 34.0519 Q1427.91 35.7533 1427.91 39.156 Q1427.91 41.7486 1429.89 43.2475 Q1431.88 44.7058 1437.87 46.0426 L1440.42 46.6097 Q1448.36 48.3111 1451.68 51.4303 Q1455.05 54.509 1455.05 60.0587 Q1455.05 66.3781 1450.02 70.0644 Q1445.04 73.7508 1436.29 73.7508 Q1432.64 73.7508 1428.67 73.0216 Q1424.75 72.3329 1420.37 70.9151 L1420.37 63.2184 Q1424.5 65.3654 1428.51 66.4591 Q1432.52 67.5124 1436.45 67.5124 Q1441.72 67.5124 1444.55 65.73 Q1447.39 63.9071 1447.39 60.6258 Q1447.39 57.5877 1445.32 55.9673 Q1443.3 54.3469 1436.37 52.8481 L1433.78 52.2405 Q1426.85 50.7821 1423.77 47.7845 Q1420.69 44.7463 1420.69 39.4801 Q1420.69 33.0797 1425.23 29.5959 Q1429.77 26.1121 1438.11 26.1121 Q1442.25 26.1121 1445.89 26.7198 Q1449.54 27.3274 1452.62 28.5427 Z" fill="#000000" fill-rule="evenodd" fill-opacity="1" /><path clip-path="url(#clip170)" d="M 0 0 M1474.29 14.324 L1474.29 27.2059 L1489.64 27.2059 L1489.64 32.9987 L1474.29 32.9987 L1474.29 57.6282 Q1474.29 63.1779 1475.79 64.7578 Q1477.33 66.3376 1481.98 66.3376 L1489.64 66.3376 L1489.64 72.576 L1481.98 72.576 Q1473.36 72.576 1470.08 69.3758 Q1466.79 66.1351 1466.79 57.6282 L1466.79 32.9987 L1461.33 32.9987 L1461.33 27.2059 L1466.79 27.2059 L1466.79 14.324 L1474.29 14.324 Z" fill="#000000" fill-rule="evenodd" fill-opacity="1" /><path clip-path="url(#clip170)" d="M 0 0 M1499.44 27.2059 L1506.9 27.2059 L1506.9 72.576 L1499.44 72.576 L1499.44 27.2059 M1499.44 9.54393 L1506.9 9.54393 L1506.9 18.9825 L1499.44 18.9825 L1499.44 9.54393 Z" fill="#000000" fill-rule="evenodd" fill-opacity="1" /><path clip-path="url(#clip170)" d="M 0 0 M1555.14 28.9478 L1555.14 35.9153 Q1551.98 34.1734 1548.78 33.3227 Q1545.62 32.4315 1542.38 32.4315 Q1535.13 32.4315 1531.12 37.0496 Q1527.11 41.6271 1527.11 49.9314 Q1527.11 58.2358 1531.12 62.8538 Q1535.13 67.4314 1542.38 67.4314 Q1545.62 67.4314 1548.78 66.5807 Q1551.98 65.6895 1555.14 63.9476 L1555.14 70.8341 Q1552.03 72.2924 1548.66 73.0216 Q1545.34 73.7508 1541.57 73.7508 Q1531.32 73.7508 1525.29 67.3098 Q1519.25 60.8689 1519.25 49.9314 Q1519.25 38.832 1525.33 32.472 Q1531.45 26.1121 1542.06 26.1121 Q1545.5 26.1121 1548.78 26.8413 Q1552.07 27.5299 1555.14 28.9478 Z" fill="#000000" fill-rule="evenodd" fill-opacity="1" /><path clip-path="url(#clip170)" d="M 0 0 M1588.73 49.7694 Q1579.69 49.7694 1576.21 51.8354 Q1572.73 53.9013 1572.73 58.8839 Q1572.73 62.8538 1575.32 65.2034 Q1577.95 67.5124 1582.45 67.5124 Q1588.65 67.5124 1592.37 63.1374 Q1596.14 58.7219 1596.14 51.4303 L1596.14 49.7694 L1588.73 49.7694 M1603.59 46.6907 L1603.59 72.576 L1596.14 72.576 L1596.14 65.6895 Q1593.59 69.8214 1589.78 71.8063 Q1585.97 73.7508 1580.46 73.7508 Q1573.49 73.7508 1569.36 69.8619 Q1565.27 65.9325 1565.27 59.3701 Q1565.27 51.7138 1570.38 47.825 Q1575.52 43.9361 1585.69 43.9361 L1596.14 43.9361 L1596.14 43.2069 Q1596.14 38.0623 1592.74 35.2672 Q1589.37 32.4315 1583.26 32.4315 Q1579.37 32.4315 1575.68 33.3632 Q1572 34.295 1568.59 36.1584 L1568.59 29.2718 Q1572.68 27.692 1576.53 26.9223 Q1580.38 26.1121 1584.03 26.1121 Q1593.87 26.1121 1598.73 31.2163 Q1603.59 36.3204 1603.59 46.6907 Z" fill="#000000" fill-rule="evenodd" fill-opacity="1" /><path clip-path="url(#clip170)" d="M 0 0 M1618.95 9.54393 L1626.4 9.54393 L1626.4 72.576 L1618.95 72.576 L1618.95 9.54393 Z" fill="#000000" fill-rule="evenodd" fill-opacity="1" /><path clip-path="url(#clip170)" d="M 0 0 M1668.69 12.096 L1680.88 12.096 L1696.32 53.2532 L1711.83 12.096 L1724.03 12.096 L1724.03 72.576 L1716.05 72.576 L1716.05 19.4686 L1700.45 60.9499 L1692.23 60.9499 L1676.63 19.4686 L1676.63 72.576 L1668.69 72.576 L1668.69 12.096 Z" fill="#000000" fill-rule="evenodd" fill-opacity="1" /><path clip-path="url(#clip170)" d="M 0 0 M1757.53 32.4315 Q1751.53 32.4315 1748.05 37.1306 Q1744.56 41.7891 1744.56 49.9314 Q1744.56 58.0738 1748.01 62.7728 Q1751.49 67.4314 1757.53 67.4314 Q1763.48 67.4314 1766.97 62.7323 Q1770.45 58.0333 1770.45 49.9314 Q1770.45 41.8701 1766.97 37.1711 Q1763.48 32.4315 1757.53 32.4315 M1757.53 26.1121 Q1767.25 26.1121 1772.8 32.4315 Q1778.35 38.7509 1778.35 49.9314 Q1778.35 61.0714 1772.8 67.4314 Q1767.25 73.7508 1757.53 73.7508 Q1747.76 73.7508 1742.21 67.4314 Q1736.71 61.0714 1736.71 49.9314 Q1736.71 38.7509 1742.21 32.4315 Q1747.76 26.1121 1757.53 26.1121 Z" fill="#000000" fill-rule="evenodd" fill-opacity="1" /><path clip-path="url(#clip170)" d="M 0 0 M1820.56 34.0924 L1820.56 9.54393 L1828.01 9.54393 L1828.01 72.576 L1820.56 72.576 L1820.56 65.7705 Q1818.21 69.8214 1814.6 71.8063 Q1811.04 73.7508 1806.02 73.7508 Q1797.79 73.7508 1792.61 67.1883 Q1787.46 60.6258 1787.46 49.9314 Q1787.46 39.2371 1792.61 32.6746 Q1797.79 26.1121 1806.02 26.1121 Q1811.04 26.1121 1814.6 28.0971 Q1818.21 30.0415 1820.56 34.0924 M1795.16 49.9314 Q1795.16 58.1548 1798.52 62.8538 Q1801.93 67.5124 1807.84 67.5124 Q1813.75 67.5124 1817.16 62.8538 Q1820.56 58.1548 1820.56 49.9314 Q1820.56 41.7081 1817.16 37.0496 Q1813.75 32.3505 1807.84 32.3505 Q1801.93 32.3505 1798.52 37.0496 Q1795.16 41.7081 1795.16 49.9314 Z" fill="#000000" fill-rule="evenodd" fill-opacity="1" /><path clip-path="url(#clip170)" d="M 0 0 M1882.17 48.0275 L1882.17 51.6733 L1847.9 51.6733 Q1848.39 59.3701 1852.52 63.421 Q1856.69 67.4314 1864.11 67.4314 Q1868.4 67.4314 1872.41 66.3781 Q1876.46 65.3249 1880.43 63.2184 L1880.43 70.267 Q1876.42 71.9684 1872.21 72.8596 Q1868 73.7508 1863.66 73.7508 Q1852.8 73.7508 1846.44 67.4314 Q1840.13 61.1119 1840.13 50.3365 Q1840.13 39.1965 1846.12 32.6746 Q1852.16 26.1121 1862.36 26.1121 Q1871.52 26.1121 1876.83 32.0264 Q1882.17 37.9003 1882.17 48.0275 M1874.72 45.84 Q1874.64 39.7232 1871.28 36.0774 Q1867.96 32.4315 1862.45 32.4315 Q1856.21 32.4315 1852.44 35.9558 Q1848.71 39.4801 1848.15 45.8805 L1874.72 45.84 Z" fill="#000000" fill-rule="evenodd" fill-opacity="1" /><path clip-path="url(#clip170)" d="M 0 0 M1894.41 9.54393 L1901.86 9.54393 L1901.86 72.576 L1894.41 72.576 L1894.41 9.54393 Z" fill="#000000" fill-rule="evenodd" fill-opacity="1" /><polyline clip-path="url(#clip172)" style="stroke:#009af9; stroke-width:4; stroke-opacity:1; fill:none" points="
  748.06,1447.87 748.06,1253.5 773.776,1253.5 773.776,1328.26 799.492,1328.26 799.492,1193.7 825.208,1193.7 825.208,1163.8 850.925,1163.8 850.925,1148.84 
  876.641,1148.84 876.641,1118.94 902.357,1118.94 902.357,1089.04 928.074,1089.04 928.074,790.009 953.79,790.009 953.79,819.911 979.506,819.911 979.506,834.863 
  1005.22,834.863 1005.22,969.426 1030.94,969.426 1030.94,924.572 1056.66,924.572 1056.66,939.523 1082.37,939.523 1082.37,954.475 1108.09,954.475 1108.09,1133.89 
  1133.8,1133.89 1133.8,1044.18 1159.52,1044.18 1159.52,1193.7 1185.24,1193.7 1185.24,1358.16 1210.95,1358.16 1210.95,1223.6 1236.67,1223.6 1236.67,1328.26 
  1262.39,1328.26 1262.39,1432.92 1288.1,1432.92 1288.1,1403.02 1313.82,1403.02 1313.82,1417.97 1339.53,1417.97 1339.53,1403.02 1365.25,1403.02 1365.25,1447.87 
  1390.97,1447.87 1390.97,1417.97 1416.68,1417.97 1416.68,1388.07 1442.4,1388.07 1442.4,1417.97 1468.12,1417.97 1468.12,1313.31 1493.83,1313.31 
  1519.55,1313.31 1519.55,1148.84 1545.26,1148.84 1545.26,1178.75 1570.98,1178.75 1570.98,1044.18 1596.7,1044.18 1622.41,1044.18 1622.41,790.009 
  1648.13,790.009 1648.13,595.639 1673.85,595.639 1673.85,446.125 1699.56,446.125 1699.56,341.465 1725.28,341.465 1725.28,401.27 1750.99,401.27 1750.99,162.047 
  1776.71,162.047 1776.71,341.465 1802.43,341.465 1802.43,162.047 1828.14,162.047 1828.14,535.834 1853.86,535.834 1853.86,655.445 1879.58,655.445 1879.58,505.931 
  1905.29,505.931 1905.29,819.911 1931.01,819.911 1931.01,984.378 1956.73,984.378 1956.73,969.426 1982.44,969.426 1982.44,1283.41 2008.16,1283.41 2008.16,1343.21 
  2033.87,1343.21 2033.87,1328.26 2059.59,1328.26 2059.59,1388.07 2085.31,1388.07 2085.31,1343.21 2111.02,1343.21 2111.02,1417.97 2136.74,1417.97 2136.74,1432.92 
  2162.46,1432.92 2188.17,1432.92 2188.17,1447.87 2213.89,1447.87 2239.6,1447.87 2265.32,1447.87 
  2291.04,1447.87 
  "/>
<polyline clip-path="url(#clip172)" style="stroke:#e26f46; stroke-width:4; stroke-opacity:1; fill:none" points="
  233.734,1447.87 236.306,1447.87 238.877,1447.87 241.449,1447.87 244.02,1447.87 246.592,1447.87 249.164,1447.87 251.735,1447.87 254.307,1447.87 256.879,1447.87 
  259.45,1447.87 262.022,1447.87 264.593,1447.87 267.165,1447.87 269.737,1447.87 272.308,1447.87 274.88,1447.87 277.452,1447.87 280.023,1447.87 282.595,1447.87 
  285.166,1447.87 287.738,1447.87 290.31,1447.87 292.881,1447.87 295.453,1447.87 298.025,1447.87 300.596,1447.87 303.168,1447.87 305.74,1447.87 308.311,1447.87 
  310.883,1447.87 313.454,1447.87 316.026,1447.87 318.598,1447.87 321.169,1447.87 323.741,1447.87 326.313,1447.87 328.884,1447.87 331.456,1447.87 334.027,1447.87 
  336.599,1447.87 339.171,1447.87 341.742,1447.87 344.314,1447.87 346.886,1447.87 349.457,1447.87 352.029,1447.87 354.6,1447.87 357.172,1447.87 359.744,1447.87 
  362.315,1447.87 364.887,1447.87 367.459,1447.87 370.03,1447.87 372.602,1447.87 375.173,1447.87 377.745,1447.87 380.317,1447.87 382.888,1447.87 385.46,1447.87 
  388.032,1447.87 390.603,1447.87 393.175,1447.87 395.747,1447.87 398.318,1447.86 400.89,1447.86 403.461,1447.86 406.033,1447.86 408.605,1447.86 411.176,1447.86 
  413.748,1447.86 416.32,1447.86 418.891,1447.85 421.463,1447.85 424.034,1447.85 426.606,1447.85 429.178,1447.85 431.749,1447.84 434.321,1447.84 436.893,1447.84 
  439.464,1447.84 442.036,1447.83 444.607,1447.83 447.179,1447.82 449.751,1447.82 452.322,1447.82 454.894,1447.81 457.466,1447.8 460.037,1447.8 462.609,1447.79 
  465.18,1447.78 467.752,1447.78 470.324,1447.77 472.895,1447.76 475.467,1447.75 478.039,1447.74 480.61,1447.73 483.182,1447.72 485.754,1447.7 488.325,1447.69 
  490.897,1447.67 493.468,1447.66 496.04,1447.64 498.612,1447.62 501.183,1447.6 503.755,1447.58 506.327,1447.55 508.898,1447.53 511.47,1447.5 514.041,1447.47 
  516.613,1447.44 519.185,1447.4 521.756,1447.37 524.328,1447.33 526.9,1447.28 529.471,1447.24 532.043,1447.19 534.614,1447.14 537.186,1447.08 539.758,1447.02 
  542.329,1446.96 544.901,1446.89 547.473,1446.82 550.044,1446.74 552.616,1446.66 555.187,1446.57 557.759,1446.47 560.331,1446.37 562.902,1446.27 565.474,1446.15 
  568.046,1446.03 570.617,1445.9 573.189,1445.76 575.761,1445.62 578.332,1445.46 580.904,1445.3 583.475,1445.12 586.047,1444.94 588.619,1444.74 591.19,1444.53 
  593.762,1444.31 596.334,1444.07 598.905,1443.83 601.477,1443.56 604.048,1443.28 606.62,1442.99 609.192,1442.68 611.763,1442.35 614.335,1442 616.907,1441.63 
  619.478,1441.25 622.05,1440.84 624.621,1440.41 627.193,1439.95 629.765,1439.48 632.336,1438.97 634.908,1438.44 637.48,1437.89 640.051,1437.3 642.623,1436.69 
  645.194,1436.04 647.766,1435.36 650.338,1434.65 652.909,1433.9 655.481,1433.11 658.053,1432.29 660.624,1431.43 663.196,1430.53 665.768,1429.59 668.339,1428.6 
  670.911,1427.56 673.482,1426.48 676.054,1425.36 678.626,1424.18 681.197,1422.95 683.769,1421.67 686.341,1420.33 688.912,1418.93 691.484,1417.48 694.055,1415.97 
  696.627,1414.39 699.199,1412.75 701.77,1411.05 704.342,1409.27 706.914,1407.43 709.485,1405.52 712.057,1403.54 714.628,1401.48 717.2,1399.34 719.772,1397.13 
  722.343,1394.83 724.915,1392.46 727.487,1390 730.058,1387.46 732.63,1384.83 735.201,1382.11 737.773,1379.3 740.345,1376.41 742.916,1373.41 745.488,1370.33 
  748.06,1367.15 750.631,1363.87 753.203,1360.5 755.775,1357.02 758.346,1353.44 760.918,1349.77 763.489,1345.99 766.061,1342.11 768.633,1338.12 771.204,1334.03 
  773.776,1329.83 776.348,1325.53 778.919,1321.12 781.491,1316.61 784.062,1311.98 786.634,1307.26 789.206,1302.42 791.777,1297.48 794.349,1292.44 796.921,1287.29 
  799.492,1282.03 802.064,1276.67 804.635,1271.21 807.207,1265.65 809.779,1259.99 812.35,1254.23 814.922,1248.37 817.494,1242.42 820.065,1236.37 822.637,1230.23 
  825.208,1224.01 827.78,1217.7 830.352,1211.3 832.923,1204.83 835.495,1198.28 838.067,1191.65 840.638,1184.96 843.21,1178.19 845.782,1171.36 848.353,1164.48 
  850.925,1157.54 853.496,1150.54 856.068,1143.5 858.64,1136.42 861.211,1129.3 863.783,1122.15 866.355,1114.97 868.926,1107.77 871.498,1100.55 874.069,1093.33 
  876.641,1086.09 879.213,1078.86 881.784,1071.63 884.356,1064.41 886.928,1057.21 889.499,1050.04 892.071,1042.89 894.642,1035.78 897.214,1028.72 899.786,1021.7 
  902.357,1014.74 904.929,1007.84 907.501,1001.01 910.072,994.262 912.644,987.59 915.215,981.008 917.787,974.52 920.359,968.135 922.93,961.857 925.502,955.695 
  928.074,949.653 930.645,943.74 933.217,937.96 935.789,932.32 938.36,926.826 940.932,921.484 943.503,916.3 946.075,911.279 948.647,906.428 951.218,901.752 
  953.79,897.255 956.362,892.944 958.933,888.822 961.505,884.895 964.076,881.167 966.648,877.642 969.22,874.325 971.791,871.22 974.363,868.329 976.935,865.657 
  979.506,863.207 982.078,860.981 984.649,858.982 987.221,857.213 989.793,855.675 992.364,854.371 994.936,853.302 997.508,852.469 1000.08,851.873 1002.65,851.515 
  1005.22,851.396 1007.79,851.515 1010.37,851.873 1012.94,852.469 1015.51,853.301 1018.08,854.371 1020.65,855.675 1023.22,857.213 1025.8,858.982 1028.37,860.981 
  1030.94,863.207 1033.51,865.657 1036.08,868.329 1038.65,871.22 1041.23,874.325 1043.8,877.642 1046.37,881.167 1048.94,884.895 1051.51,888.822 1054.08,892.943 
  1056.66,897.255 1059.23,901.752 1061.8,906.428 1064.37,911.279 1066.94,916.3 1069.51,921.483 1072.08,926.825 1074.66,932.319 1077.23,937.959 1079.8,943.739 
  1082.37,949.653 1084.94,955.694 1087.51,961.857 1090.09,968.134 1092.66,974.519 1095.23,981.007 1097.8,987.589 1100.37,994.26 1102.94,1001.01 1105.52,1007.84 
  1108.09,1014.74 1110.66,1021.7 1113.23,1028.72 1115.8,1035.78 1118.37,1042.89 1120.95,1050.03 1123.52,1057.21 1126.09,1064.41 1128.66,1071.62 1131.23,1078.85 
  1133.8,1086.09 1136.38,1093.32 1138.95,1100.55 1141.52,1107.77 1144.09,1114.97 1146.66,1122.14 1149.23,1129.3 1151.81,1136.41 1154.38,1143.49 1156.95,1150.53 
  1159.52,1157.52 1162.09,1164.47 1164.66,1171.35 1167.24,1178.18 1169.81,1184.94 1172.38,1191.63 1174.95,1198.26 1177.52,1204.81 1180.09,1211.28 1182.66,1217.67 
  1185.24,1223.98 1187.81,1230.2 1190.38,1236.33 1192.95,1242.38 1195.52,1248.32 1198.09,1254.18 1200.67,1259.93 1203.24,1265.59 1205.81,1271.15 1208.38,1276.6 
  1210.95,1281.96 1213.52,1287.2 1216.1,1292.35 1218.67,1297.38 1221.24,1302.32 1223.81,1307.14 1226.38,1311.86 1228.95,1316.47 1231.53,1320.97 1234.1,1325.37 
  1236.67,1329.65 1239.24,1333.84 1241.81,1337.91 1244.38,1341.88 1246.96,1345.74 1249.53,1349.5 1252.1,1353.16 1254.67,1356.71 1257.24,1360.15 1259.81,1363.5 
  1262.39,1366.75 1264.96,1369.9 1267.53,1372.95 1270.1,1375.9 1272.67,1378.75 1275.24,1381.52 1277.82,1384.19 1280.39,1386.76 1282.96,1389.25 1285.53,1391.65 
  1288.1,1393.96 1290.67,1396.18 1293.24,1398.32 1295.82,1400.38 1298.39,1402.36 1300.96,1404.25 1303.53,1406.06 1306.1,1407.8 1308.67,1409.46 1311.25,1411.05 
  1313.82,1412.56 1316.39,1414 1318.96,1415.37 1321.53,1416.67 1324.1,1417.89 1326.68,1419.06 1329.25,1420.15 1331.82,1421.18 1334.39,1422.14 1336.96,1423.04 
  1339.53,1423.88 1342.11,1424.65 1344.68,1425.37 1347.25,1426.02 1349.82,1426.61 1352.39,1427.14 1354.96,1427.61 1357.54,1428.03 1360.11,1428.38 1362.68,1428.67 
  1365.25,1428.91 1367.82,1429.09 1370.39,1429.2 1372.97,1429.26 1375.54,1429.26 1378.11,1429.2 1380.68,1429.08 1383.25,1428.9 1385.82,1428.66 1388.4,1428.36 
  1390.97,1427.99 1393.54,1427.56 1396.11,1427.07 1398.68,1426.51 1401.25,1425.88 1403.82,1425.19 1406.4,1424.42 1408.97,1423.59 1411.54,1422.68 1414.11,1421.7 
  1416.68,1420.64 1419.25,1419.5 1421.83,1418.29 1424.4,1416.99 1426.97,1415.6 1429.54,1414.14 1432.11,1412.58 1434.68,1410.93 1437.26,1409.19 1439.83,1407.35 
  1442.4,1405.41 1444.97,1403.38 1447.54,1401.23 1450.11,1398.98 1452.69,1396.63 1455.26,1394.15 1457.83,1391.57 1460.4,1388.86 1462.97,1386.03 1465.54,1383.08 
  1468.12,1379.99 1470.69,1376.78 1473.26,1373.43 1475.83,1369.94 1478.4,1366.31 1480.97,1362.53 1483.55,1358.61 1486.12,1354.53 1488.69,1350.3 1491.26,1345.91 
  1493.83,1341.36 1496.4,1336.64 1498.98,1331.75 1501.55,1326.7 1504.12,1321.46 1506.69,1316.05 1509.26,1310.46 1511.83,1304.68 1514.4,1298.72 1516.98,1292.57 
  1519.55,1286.22 1522.12,1279.68 1524.69,1272.95 1527.26,1266.01 1529.83,1258.87 1532.41,1251.53 1534.98,1243.98 1537.55,1236.23 1540.12,1228.26 1542.69,1220.09 
  1545.26,1211.7 1547.84,1203.1 1550.41,1194.29 1552.98,1185.27 1555.55,1176.03 1558.12,1166.58 1560.69,1156.92 1563.27,1147.04 1565.84,1136.95 1568.41,1126.66 
  1570.98,1116.15 1573.55,1105.44 1576.12,1094.52 1578.7,1083.39 1581.27,1072.07 1583.84,1060.55 1586.41,1048.84 1588.98,1036.94 1591.55,1024.85 1594.13,1012.58 
  1596.7,1000.13 1599.27,987.509 1601.84,974.722 1604.41,961.774 1606.98,948.672 1609.56,935.421 1612.13,922.029 1614.7,908.502 1617.27,894.849 1619.84,881.077 
  1622.41,867.194 1624.99,853.209 1627.56,839.13 1630.13,824.967 1632.7,810.73 1635.27,796.428 1637.84,782.07 1640.41,767.669 1642.99,753.234 1645.56,738.777 
  1648.13,724.307 1650.7,709.838 1653.27,695.381 1655.84,680.947 1658.42,666.549 1660.99,652.199 1663.56,637.909 1666.13,623.693 1668.7,609.562 1671.27,595.53 
  1673.85,581.61 1676.42,567.814 1678.99,554.156 1681.56,540.65 1684.13,527.307 1686.7,514.142 1689.28,501.167 1691.85,488.396 1694.42,475.841 1696.99,463.516 
  1699.56,451.433 1702.13,439.606 1704.71,428.046 1707.28,416.766 1709.85,405.778 1712.42,395.094 1714.99,384.726 1717.56,374.686 1720.14,364.983 1722.71,355.63 
  1725.28,346.637 1727.85,338.014 1730.42,329.771 1732.99,321.916 1735.57,314.461 1738.14,307.412 1740.71,300.778 1743.28,294.567 1745.85,288.786 1748.42,283.442 
  1750.99,278.541 1753.57,274.089 1756.14,270.091 1758.71,266.552 1761.28,263.477 1763.85,260.868 1766.42,258.73 1769,257.064 1771.57,255.873 1774.14,255.157 
  1776.71,254.919 1779.28,255.157 1781.85,255.873 1784.43,257.064 1787,258.73 1789.57,260.868 1792.14,263.477 1794.71,266.552 1797.28,270.091 1799.86,274.089 
  1802.43,278.541 1805,283.442 1807.57,288.786 1810.14,294.567 1812.71,300.778 1815.29,307.412 1817.86,314.461 1820.43,321.916 1823,329.771 1825.57,338.014 
  1828.14,346.637 1830.72,355.631 1833.29,364.984 1835.86,374.686 1838.43,384.727 1841,395.094 1843.57,405.778 1846.15,416.766 1848.72,428.046 1851.29,439.606 
  1853.86,451.434 1856.43,463.516 1859,475.842 1861.57,488.396 1864.15,501.167 1866.72,514.142 1869.29,527.307 1871.86,540.65 1874.43,554.157 1877,567.815 
  1879.58,581.61 1882.15,595.531 1884.72,609.563 1887.29,623.694 1889.86,637.91 1892.43,652.2 1895.01,666.55 1897.58,680.949 1900.15,695.383 1902.72,709.84 
  1905.29,724.31 1907.86,738.779 1910.44,753.237 1913.01,767.672 1915.58,782.074 1918.15,796.431 1920.72,810.734 1923.29,824.972 1925.87,839.135 1928.44,853.214 
  1931.01,867.2 1933.58,881.083 1936.15,894.856 1938.72,908.51 1941.3,922.038 1943.87,935.431 1946.44,948.682 1949.01,961.786 1951.58,974.735 1954.15,987.523 
  1956.73,1000.14 1959.3,1012.59 1961.87,1024.87 1964.44,1036.96 1967.01,1048.86 1969.58,1060.58 1972.15,1072.1 1974.73,1083.42 1977.3,1094.55 1979.87,1105.47 
  1982.44,1116.19 1985.01,1126.7 1987.58,1137 1990.16,1147.09 1992.73,1156.97 1995.3,1166.64 1997.87,1176.09 2000.44,1185.34 2003.01,1194.37 2005.59,1203.18 
  2008.16,1211.79 2010.73,1220.18 2013.3,1228.37 2015.87,1236.34 2018.44,1244.1 2021.02,1251.66 2023.59,1259.02 2026.16,1266.17 2028.73,1273.12 2031.3,1279.87 
  2033.87,1286.42 2036.45,1292.79 2039.02,1298.96 2041.59,1304.94 2044.16,1310.74 2046.73,1316.35 2049.3,1321.78 2051.88,1327.04 2054.45,1332.13 2057.02,1337.04 
  2059.59,1341.79 2062.16,1346.38 2064.73,1350.81 2067.31,1355.08 2069.88,1359.2 2072.45,1363.17 2075.02,1366.99 2077.59,1370.67 2080.16,1374.22 2082.73,1377.63 
  2085.31,1380.91 2087.88,1384.06 2090.45,1387.09 2093.02,1389.99 2095.59,1392.78 2098.16,1395.46 2100.74,1398.02 2103.31,1400.48 2105.88,1402.84 2108.45,1405.1 
  2111.02,1407.26 2113.59,1409.32 2116.17,1411.3 2118.74,1413.19 2121.31,1414.99 2123.88,1416.71 2126.45,1418.36 2129.02,1419.92 2131.6,1421.42 2134.17,1422.85 
  2136.74,1424.2 2139.31,1425.5 2141.88,1426.73 2144.45,1427.9 2147.03,1429.01 2149.6,1430.07 2152.17,1431.08 2154.74,1432.04 2157.31,1432.94 2159.88,1433.8 
  2162.46,1434.62 2165.03,1435.39 2167.6,1436.13 2170.17,1436.82 2172.74,1437.48 2175.31,1438.1 2177.89,1438.69 2180.46,1439.25 2183.03,1439.78 2185.6,1440.27 
  2188.17,1440.74 2190.74,1441.19 2193.31,1441.61 2195.89,1442 2198.46,1442.37 2201.03,1442.72 2203.6,1443.05 2206.17,1443.36 2208.74,1443.65 2211.32,1443.93 
  2213.89,1444.19 2216.46,1444.43 2219.03,1444.66 2221.6,1444.87 2224.17,1445.07 2226.75,1445.26 2229.32,1445.44 2231.89,1445.61 2234.46,1445.76 2237.03,1445.91 
  2239.6,1446.04 2242.18,1446.17 2244.75,1446.29 2247.32,1446.4 2249.89,1446.51 2252.46,1446.6 2255.03,1446.69 2257.61,1446.78 2260.18,1446.86 2262.75,1446.93 
  2265.32,1447 2267.89,1447.06 2270.46,1447.12 2273.04,1447.18 2275.61,1447.23 2278.18,1447.28 2280.75,1447.32 2283.32,1447.37 2285.89,1447.4 2288.47,1447.44 
  2291.04,1447.47 
  "/>
<path clip-path="url(#clip170)" d="
M1921.49 350.345 L2280.06 350.345 L2280.06 168.905 L1921.49 168.905  Z
  " fill="#ffffff" fill-rule="evenodd" fill-opacity="1"/>
<polyline clip-path="url(#clip170)" style="stroke:#000000; stroke-width:4; stroke-opacity:1; fill:none" points="
  1921.49,350.345 2280.06,350.345 2280.06,168.905 1921.49,168.905 1921.49,350.345 
  "/>
<polyline clip-path="url(#clip170)" style="stroke:#009af9; stroke-width:4; stroke-opacity:1; fill:none" points="
  1945.72,229.385 2091.1,229.385 
  "/>
<path clip-path="url(#clip170)" d="M 0 0 M2120.01 215.947 L2120.01 242.822 L2125.66 242.822 Q2132.81 242.822 2136.12 239.581 Q2139.45 236.341 2139.45 229.35 Q2139.45 222.406 2136.12 219.188 Q2132.81 215.947 2125.66 215.947 L2120.01 215.947 M2115.33 212.105 L2124.94 212.105 Q2134.98 212.105 2139.68 216.294 Q2144.38 220.461 2144.38 229.35 Q2144.38 238.285 2139.66 242.475 Q2134.94 246.665 2124.94 246.665 L2115.33 246.665 L2115.33 212.105 Z" fill="#000000" fill-rule="evenodd" fill-opacity="1" /><path clip-path="url(#clip170)" d="M 0 0 M2163.43 233.632 Q2158.27 233.632 2156.28 234.813 Q2154.29 235.993 2154.29 238.841 Q2154.29 241.109 2155.77 242.452 Q2157.28 243.771 2159.84 243.771 Q2163.39 243.771 2165.52 241.271 Q2167.67 238.748 2167.67 234.581 L2167.67 233.632 L2163.43 233.632 M2171.93 231.873 L2171.93 246.665 L2167.67 246.665 L2167.67 242.729 Q2166.21 245.091 2164.03 246.225 Q2161.86 247.336 2158.71 247.336 Q2154.73 247.336 2152.37 245.114 Q2150.03 242.868 2150.03 239.118 Q2150.03 234.743 2152.95 232.521 Q2155.89 230.299 2161.7 230.299 L2167.67 230.299 L2167.67 229.882 Q2167.67 226.943 2165.72 225.345 Q2163.8 223.725 2160.31 223.725 Q2158.09 223.725 2155.98 224.257 Q2153.87 224.79 2151.93 225.855 L2151.93 221.919 Q2154.27 221.017 2156.47 220.577 Q2158.66 220.114 2160.75 220.114 Q2166.37 220.114 2169.15 223.031 Q2171.93 225.947 2171.93 231.873 Z" fill="#000000" fill-rule="evenodd" fill-opacity="1" /><path clip-path="url(#clip170)" d="M 0 0 M2184.91 213.378 L2184.91 220.739 L2193.69 220.739 L2193.69 224.049 L2184.91 224.049 L2184.91 238.123 Q2184.91 241.294 2185.77 242.197 Q2186.65 243.1 2189.31 243.1 L2193.69 243.1 L2193.69 246.665 L2189.31 246.665 Q2184.38 246.665 2182.51 244.836 Q2180.63 242.984 2180.63 238.123 L2180.63 224.049 L2177.51 224.049 L2177.51 220.739 L2180.63 220.739 L2180.63 213.378 L2184.91 213.378 Z" fill="#000000" fill-rule="evenodd" fill-opacity="1" /><path clip-path="url(#clip170)" d="M 0 0 M2211.07 233.632 Q2205.91 233.632 2203.92 234.813 Q2201.93 235.993 2201.93 238.841 Q2201.93 241.109 2203.41 242.452 Q2204.91 243.771 2207.48 243.771 Q2211.03 243.771 2213.15 241.271 Q2215.31 238.748 2215.31 234.581 L2215.31 233.632 L2211.07 233.632 M2219.57 231.873 L2219.57 246.665 L2215.31 246.665 L2215.31 242.729 Q2213.85 245.091 2211.67 246.225 Q2209.5 247.336 2206.35 247.336 Q2202.37 247.336 2200.01 245.114 Q2197.67 242.868 2197.67 239.118 Q2197.67 234.743 2200.59 232.521 Q2203.53 230.299 2209.34 230.299 L2215.31 230.299 L2215.31 229.882 Q2215.31 226.943 2213.36 225.345 Q2211.44 223.725 2207.95 223.725 Q2205.72 223.725 2203.62 224.257 Q2201.51 224.79 2199.57 225.855 L2199.57 221.919 Q2201.9 221.017 2204.1 220.577 Q2206.3 220.114 2208.39 220.114 Q2214.01 220.114 2216.79 223.031 Q2219.57 225.947 2219.57 231.873 Z" fill="#000000" fill-rule="evenodd" fill-opacity="1" /><polyline clip-path="url(#clip170)" style="stroke:#e26f46; stroke-width:4; stroke-opacity:1; fill:none" points="
  1945.72,289.865 2091.1,289.865 
  "/>
<path clip-path="url(#clip170)" d="M 0 0 M2115.33 272.585 L2144.57 272.585 L2144.57 276.52 L2132.3 276.52 L2132.3 307.145 L2127.6 307.145 L2127.6 276.52 L2115.33 276.52 L2115.33 272.585 Z" fill="#000000" fill-rule="evenodd" fill-opacity="1" /><path clip-path="url(#clip170)" d="M 0 0 M2156.95 285.2 Q2156.23 284.784 2155.38 284.598 Q2154.54 284.39 2153.53 284.39 Q2149.91 284.39 2147.97 286.751 Q2146.05 289.089 2146.05 293.487 L2146.05 307.145 L2141.77 307.145 L2141.77 281.219 L2146.05 281.219 L2146.05 285.247 Q2147.39 282.886 2149.54 281.751 Q2151.7 280.594 2154.78 280.594 Q2155.22 280.594 2155.75 280.663 Q2156.28 280.71 2156.93 280.825 L2156.95 285.2 Z" fill="#000000" fill-rule="evenodd" fill-opacity="1" /><path clip-path="url(#clip170)" d="M 0 0 M2160.98 296.913 L2160.98 281.219 L2165.24 281.219 L2165.24 296.751 Q2165.24 300.432 2166.67 302.284 Q2168.11 304.112 2170.98 304.112 Q2174.43 304.112 2176.42 301.913 Q2178.43 299.714 2178.43 295.918 L2178.43 281.219 L2182.69 281.219 L2182.69 307.145 L2178.43 307.145 L2178.43 303.163 Q2176.88 305.524 2174.82 306.682 Q2172.78 307.816 2170.08 307.816 Q2165.61 307.816 2163.29 305.038 Q2160.98 302.26 2160.98 296.913 M2171.7 280.594 L2171.7 280.594 Z" fill="#000000" fill-rule="evenodd" fill-opacity="1" /><path clip-path="url(#clip170)" d="M 0 0 M2195.68 273.858 L2195.68 281.219 L2204.45 281.219 L2204.45 284.529 L2195.68 284.529 L2195.68 298.603 Q2195.68 301.774 2196.53 302.677 Q2197.41 303.58 2200.08 303.58 L2204.45 303.58 L2204.45 307.145 L2200.08 307.145 Q2195.15 307.145 2193.27 305.316 Q2191.4 303.464 2191.4 298.603 L2191.4 284.529 L2188.27 284.529 L2188.27 281.219 L2191.4 281.219 L2191.4 273.858 L2195.68 273.858 Z" fill="#000000" fill-rule="evenodd" fill-opacity="1" /><path clip-path="url(#clip170)" d="M 0 0 M2231.6 291.497 L2231.6 307.145 L2227.34 307.145 L2227.34 291.635 Q2227.34 287.955 2225.91 286.126 Q2224.47 284.298 2221.6 284.298 Q2218.15 284.298 2216.16 286.497 Q2214.17 288.696 2214.17 292.492 L2214.17 307.145 L2209.89 307.145 L2209.89 271.126 L2214.17 271.126 L2214.17 285.247 Q2215.7 282.909 2217.76 281.751 Q2219.84 280.594 2222.55 280.594 Q2227.02 280.594 2229.31 283.372 Q2231.6 286.126 2231.6 291.497 Z" fill="#000000" fill-rule="evenodd" fill-opacity="1" /></svg>
