<?xml version="1.0" encoding="utf-8"?>
<svg xmlns="http://www.w3.org/2000/svg" xmlns:xlink="http://www.w3.org/1999/xlink" width="600" height="400" viewBox="0 0 2400 1600">
<defs>
  <clipPath id="clip140">
    <rect x="0" y="0" width="2400" height="1600"/>
  </clipPath>
</defs>
<path clip-path="url(#clip140)" d="
M0 1600 L2400 1600 L2400 0 L0 0  Z
  " fill="#ffffff" fill-rule="evenodd" fill-opacity="1"/>
<defs>
  <clipPath id="clip141">
    <rect x="480" y="0" width="1681" height="1600"/>
  </clipPath>
</defs>
<path clip-path="url(#clip140)" d="
M172.015 1486.45 L2352.76 1486.45 L2352.76 123.472 L172.015 123.472  Z
  " fill="#ffffff" fill-rule="evenodd" fill-opacity="1"/>
<defs>
  <clipPath id="clip142">
    <rect x="172" y="123" width="2182" height="1364"/>
  </clipPath>
</defs>
<polyline clip-path="url(#clip142)" style="stroke:#000000; stroke-width:2; stroke-opacity:0.1; fill:none" points="
  233.734,1486.45 233.734,123.472 
  "/>
<polyline clip-path="url(#clip142)" style="stroke:#000000; stroke-width:2; stroke-opacity:0.1; fill:none" points="
  576.618,1486.45 576.618,123.472 
  "/>
<polyline clip-path="url(#clip142)" style="stroke:#000000; stroke-width:2; stroke-opacity:0.1; fill:none" points="
  919.502,1486.45 919.502,123.472 
  "/>
<polyline clip-path="url(#clip142)" style="stroke:#000000; stroke-width:2; stroke-opacity:0.1; fill:none" points="
  1262.39,1486.45 1262.39,123.472 
  "/>
<polyline clip-path="url(#clip142)" style="stroke:#000000; stroke-width:2; stroke-opacity:0.1; fill:none" points="
  1605.27,1486.45 1605.27,123.472 
  "/>
<polyline clip-path="url(#clip142)" style="stroke:#000000; stroke-width:2; stroke-opacity:0.1; fill:none" points="
  1948.15,1486.45 1948.15,123.472 
  "/>
<polyline clip-path="url(#clip142)" style="stroke:#000000; stroke-width:2; stroke-opacity:0.1; fill:none" points="
  2291.04,1486.45 2291.04,123.472 
  "/>
<polyline clip-path="url(#clip140)" style="stroke:#000000; stroke-width:4; stroke-opacity:1; fill:none" points="
  172.015,1486.45 2352.76,1486.45 
  "/>
<polyline clip-path="url(#clip140)" style="stroke:#000000; stroke-width:4; stroke-opacity:1; fill:none" points="
  233.734,1486.45 233.734,1470.09 
  "/>
<polyline clip-path="url(#clip140)" style="stroke:#000000; stroke-width:4; stroke-opacity:1; fill:none" points="
  576.618,1486.45 576.618,1470.09 
  "/>
<polyline clip-path="url(#clip140)" style="stroke:#000000; stroke-width:4; stroke-opacity:1; fill:none" points="
  919.502,1486.45 919.502,1470.09 
  "/>
<polyline clip-path="url(#clip140)" style="stroke:#000000; stroke-width:4; stroke-opacity:1; fill:none" points="
  1262.39,1486.45 1262.39,1470.09 
  "/>
<polyline clip-path="url(#clip140)" style="stroke:#000000; stroke-width:4; stroke-opacity:1; fill:none" points="
  1605.27,1486.45 1605.27,1470.09 
  "/>
<polyline clip-path="url(#clip140)" style="stroke:#000000; stroke-width:4; stroke-opacity:1; fill:none" points="
  1948.15,1486.45 1948.15,1470.09 
  "/>
<polyline clip-path="url(#clip140)" style="stroke:#000000; stroke-width:4; stroke-opacity:1; fill:none" points="
  2291.04,1486.45 2291.04,1470.09 
  "/>
<path clip-path="url(#clip140)" d="M 0 0 M203.676 1530.29 L233.352 1530.29 L233.352 1534.23 L203.676 1534.23 L203.676 1530.29 Z" fill="#000000" fill-rule="evenodd" fill-opacity="1" /><path clip-path="url(#clip140)" d="M 0 0 M247.472 1543.18 L263.792 1543.18 L263.792 1547.12 L241.847 1547.12 L241.847 1543.18 Q244.509 1540.43 249.093 1535.8 Q253.699 1531.15 254.88 1529.81 Q257.125 1527.28 258.005 1525.55 Q258.907 1523.79 258.907 1522.1 Q258.907 1519.34 256.963 1517.61 Q255.042 1515.87 251.94 1515.87 Q249.741 1515.87 247.287 1516.63 Q244.857 1517.4 242.079 1518.95 L242.079 1514.23 Q244.903 1513.09 247.357 1512.51 Q249.81 1511.93 251.847 1511.93 Q257.218 1511.93 260.412 1514.62 Q263.606 1517.31 263.606 1521.8 Q263.606 1523.93 262.796 1525.85 Q262.009 1527.74 259.903 1530.34 Q259.324 1531.01 256.222 1534.23 Q253.12 1537.42 247.472 1543.18 Z" fill="#000000" fill-rule="evenodd" fill-opacity="1" /><path clip-path="url(#clip140)" d="M 0 0 M546.375 1530.29 L576.051 1530.29 L576.051 1534.23 L546.375 1534.23 L546.375 1530.29 Z" fill="#000000" fill-rule="evenodd" fill-opacity="1" /><path clip-path="url(#clip140)" d="M 0 0 M586.953 1543.18 L594.592 1543.18 L594.592 1516.82 L586.282 1518.49 L586.282 1514.23 L594.546 1512.56 L599.222 1512.56 L599.222 1543.18 L606.861 1543.18 L606.861 1547.12 L586.953 1547.12 L586.953 1543.18 Z" fill="#000000" fill-rule="evenodd" fill-opacity="1" /><path clip-path="url(#clip140)" d="M 0 0 M919.502 1515.64 Q915.89 1515.64 914.062 1519.2 Q912.256 1522.75 912.256 1529.87 Q912.256 1536.98 914.062 1540.55 Q915.89 1544.09 919.502 1544.09 Q923.136 1544.09 924.941 1540.55 Q926.77 1536.98 926.77 1529.87 Q926.77 1522.75 924.941 1519.2 Q923.136 1515.64 919.502 1515.64 M919.502 1511.93 Q925.312 1511.93 928.367 1516.54 Q931.446 1521.12 931.446 1529.87 Q931.446 1538.6 928.367 1543.21 Q925.312 1547.79 919.502 1547.79 Q913.691 1547.79 910.613 1543.21 Q907.557 1538.6 907.557 1529.87 Q907.557 1521.12 910.613 1516.54 Q913.691 1511.93 919.502 1511.93 Z" fill="#000000" fill-rule="evenodd" fill-opacity="1" /><path clip-path="url(#clip140)" d="M 0 0 M1252.77 1543.18 L1260.41 1543.18 L1260.41 1516.82 L1252.1 1518.49 L1252.1 1514.23 L1260.36 1512.56 L1265.04 1512.56 L1265.04 1543.18 L1272.67 1543.18 L1272.67 1547.12 L1252.77 1547.12 L1252.77 1543.18 Z" fill="#000000" fill-rule="evenodd" fill-opacity="1" /><path clip-path="url(#clip140)" d="M 0 0 M1599.92 1543.18 L1616.24 1543.18 L1616.24 1547.12 L1594.3 1547.12 L1594.3 1543.18 Q1596.96 1540.43 1601.54 1535.8 Q1606.15 1531.15 1607.33 1529.81 Q1609.57 1527.28 1610.45 1525.55 Q1611.36 1523.79 1611.36 1522.1 Q1611.36 1519.34 1609.41 1517.61 Q1607.49 1515.87 1604.39 1515.87 Q1602.19 1515.87 1599.74 1516.63 Q1597.31 1517.4 1594.53 1518.95 L1594.53 1514.23 Q1597.35 1513.09 1599.81 1512.51 Q1602.26 1511.93 1604.3 1511.93 Q1609.67 1511.93 1612.86 1514.62 Q1616.06 1517.31 1616.06 1521.8 Q1616.06 1523.93 1615.25 1525.85 Q1614.46 1527.74 1612.35 1530.34 Q1611.77 1531.01 1608.67 1534.23 Q1605.57 1537.42 1599.92 1543.18 Z" fill="#000000" fill-rule="evenodd" fill-opacity="1" /><path clip-path="url(#clip140)" d="M 0 0 M1952.4 1528.49 Q1955.76 1529.2 1957.63 1531.47 Q1959.53 1533.74 1959.53 1537.07 Q1959.53 1542.19 1956.01 1544.99 Q1952.49 1547.79 1946.01 1547.79 Q1943.84 1547.79 1941.52 1547.35 Q1939.23 1546.93 1936.78 1546.08 L1936.78 1541.56 Q1938.72 1542.7 1941.03 1543.28 Q1943.35 1543.86 1945.87 1543.86 Q1950.27 1543.86 1952.56 1542.12 Q1954.88 1540.38 1954.88 1537.07 Q1954.88 1534.02 1952.72 1532.31 Q1950.6 1530.57 1946.78 1530.57 L1942.75 1530.57 L1942.75 1526.73 L1946.96 1526.73 Q1950.41 1526.73 1952.24 1525.36 Q1954.07 1523.97 1954.07 1521.38 Q1954.07 1518.72 1952.17 1517.31 Q1950.29 1515.87 1946.78 1515.87 Q1944.85 1515.87 1942.66 1516.29 Q1940.46 1516.7 1937.82 1517.58 L1937.82 1513.42 Q1940.48 1512.68 1942.79 1512.31 Q1945.13 1511.93 1947.19 1511.93 Q1952.52 1511.93 1955.62 1514.37 Q1958.72 1516.77 1958.72 1520.89 Q1958.72 1523.76 1957.08 1525.75 Q1955.43 1527.72 1952.4 1528.49 Z" fill="#000000" fill-rule="evenodd" fill-opacity="1" /><path clip-path="url(#clip140)" d="M 0 0 M2294.05 1516.63 L2282.24 1535.08 L2294.05 1535.08 L2294.05 1516.63 M2292.82 1512.56 L2298.7 1512.56 L2298.7 1535.08 L2303.63 1535.08 L2303.63 1538.97 L2298.7 1538.97 L2298.7 1547.12 L2294.05 1547.12 L2294.05 1538.97 L2278.44 1538.97 L2278.44 1534.46 L2292.82 1512.56 Z" fill="#000000" fill-rule="evenodd" fill-opacity="1" /><polyline clip-path="url(#clip142)" style="stroke:#000000; stroke-width:2; stroke-opacity:0.1; fill:none" points="
  172.015,1447.87 2352.76,1447.87 
  "/>
<polyline clip-path="url(#clip142)" style="stroke:#000000; stroke-width:2; stroke-opacity:0.1; fill:none" points="
  172.015,1148.84 2352.76,1148.84 
  "/>
<polyline clip-path="url(#clip142)" style="stroke:#000000; stroke-width:2; stroke-opacity:0.1; fill:none" points="
  172.015,849.814 2352.76,849.814 
  "/>
<polyline clip-path="url(#clip142)" style="stroke:#000000; stroke-width:2; stroke-opacity:0.1; fill:none" points="
  172.015,550.785 2352.76,550.785 
  "/>
<polyline clip-path="url(#clip142)" style="stroke:#000000; stroke-width:2; stroke-opacity:0.1; fill:none" points="
  172.015,251.756 2352.76,251.756 
  "/>
<polyline clip-path="url(#clip140)" style="stroke:#000000; stroke-width:4; stroke-opacity:1; fill:none" points="
  172.015,1486.45 172.015,123.472 
  "/>
<polyline clip-path="url(#clip140)" style="stroke:#000000; stroke-width:4; stroke-opacity:1; fill:none" points="
  172.015,1447.87 198.184,1447.87 
  "/>
<polyline clip-path="url(#clip140)" style="stroke:#000000; stroke-width:4; stroke-opacity:1; fill:none" points="
  172.015,1148.84 198.184,1148.84 
  "/>
<polyline clip-path="url(#clip140)" style="stroke:#000000; stroke-width:4; stroke-opacity:1; fill:none" points="
  172.015,849.814 198.184,849.814 
  "/>
<polyline clip-path="url(#clip140)" style="stroke:#000000; stroke-width:4; stroke-opacity:1; fill:none" points="
  172.015,550.785 198.184,550.785 
  "/>
<polyline clip-path="url(#clip140)" style="stroke:#000000; stroke-width:4; stroke-opacity:1; fill:none" points="
  172.015,251.756 198.184,251.756 
  "/>
<path clip-path="url(#clip140)" d="M 0 0 M124.07 1433.67 Q120.459 1433.67 118.631 1437.24 Q116.825 1440.78 116.825 1447.91 Q116.825 1455.01 118.631 1458.58 Q120.459 1462.12 124.07 1462.12 Q127.705 1462.12 129.51 1458.58 Q131.339 1455.01 131.339 1447.91 Q131.339 1440.78 129.51 1437.24 Q127.705 1433.67 124.07 1433.67 M124.07 1429.97 Q129.881 1429.97 132.936 1434.57 Q136.015 1439.16 136.015 1447.91 Q136.015 1456.63 132.936 1461.24 Q129.881 1465.82 124.07 1465.82 Q118.26 1465.82 115.182 1461.24 Q112.126 1456.63 112.126 1447.91 Q112.126 1439.16 115.182 1434.57 Q118.26 1429.97 124.07 1429.97 Z" fill="#000000" fill-rule="evenodd" fill-opacity="1" /><path clip-path="url(#clip140)" d="M 0 0 M57.7745 1162.19 L74.0939 1162.19 L74.0939 1166.12 L52.1495 1166.12 L52.1495 1162.19 Q54.8115 1159.43 59.3949 1154.8 Q64.0013 1150.15 65.1819 1148.81 Q67.4272 1146.29 68.3068 1144.55 Q69.2096 1142.79 69.2096 1141.1 Q69.2096 1138.35 67.2652 1136.61 Q65.3439 1134.87 62.2421 1134.87 Q60.043 1134.87 57.5893 1135.64 Q55.1588 1136.4 52.381 1137.95 L52.381 1133.23 Q55.2051 1132.1 57.6588 1131.52 Q60.1124 1130.94 62.1495 1130.94 Q67.5198 1130.94 70.7142 1133.62 Q73.9087 1136.31 73.9087 1140.8 Q73.9087 1142.93 73.0985 1144.85 Q72.3115 1146.75 70.205 1149.34 Q69.6263 1150.01 66.5245 1153.23 Q63.4226 1156.42 57.7745 1162.19 Z" fill="#000000" fill-rule="evenodd" fill-opacity="1" /><path clip-path="url(#clip140)" d="M 0 0 M93.9086 1134.64 Q90.2975 1134.64 88.4688 1138.21 Q86.6632 1141.75 86.6632 1148.88 Q86.6632 1155.98 88.4688 1159.55 Q90.2975 1163.09 93.9086 1163.09 Q97.5428 1163.09 99.3483 1159.55 Q101.177 1155.98 101.177 1148.88 Q101.177 1141.75 99.3483 1138.21 Q97.5428 1134.64 93.9086 1134.64 M93.9086 1130.94 Q99.7187 1130.94 102.774 1135.55 Q105.853 1140.13 105.853 1148.88 Q105.853 1157.61 102.774 1162.21 Q99.7187 1166.8 93.9086 1166.8 Q88.0984 1166.8 85.0197 1162.21 Q81.9642 1157.61 81.9642 1148.88 Q81.9642 1140.13 85.0197 1135.55 Q88.0984 1130.94 93.9086 1130.94 Z" fill="#000000" fill-rule="evenodd" fill-opacity="1" /><path clip-path="url(#clip140)" d="M 0 0 M124.07 1134.64 Q120.459 1134.64 118.631 1138.21 Q116.825 1141.75 116.825 1148.88 Q116.825 1155.98 118.631 1159.55 Q120.459 1163.09 124.07 1163.09 Q127.705 1163.09 129.51 1159.55 Q131.339 1155.98 131.339 1148.88 Q131.339 1141.75 129.51 1138.21 Q127.705 1134.64 124.07 1134.64 M124.07 1130.94 Q129.881 1130.94 132.936 1135.55 Q136.015 1140.13 136.015 1148.88 Q136.015 1157.61 132.936 1162.21 Q129.881 1166.8 124.07 1166.8 Q118.26 1166.8 115.182 1162.21 Q112.126 1157.61 112.126 1148.88 Q112.126 1140.13 115.182 1135.55 Q118.26 1130.94 124.07 1130.94 Z" fill="#000000" fill-rule="evenodd" fill-opacity="1" /><path clip-path="url(#clip140)" d="M 0 0 M66.5939 836.608 L54.7884 855.057 L66.5939 855.057 L66.5939 836.608 M65.367 832.534 L71.2466 832.534 L71.2466 855.057 L76.1772 855.057 L76.1772 858.946 L71.2466 858.946 L71.2466 867.094 L66.5939 867.094 L66.5939 858.946 L50.9921 858.946 L50.9921 854.432 L65.367 832.534 Z" fill="#000000" fill-rule="evenodd" fill-opacity="1" /><path clip-path="url(#clip140)" d="M 0 0 M93.9086 835.613 Q90.2975 835.613 88.4688 839.178 Q86.6632 842.72 86.6632 849.849 Q86.6632 856.956 88.4688 860.52 Q90.2975 864.062 93.9086 864.062 Q97.5428 864.062 99.3483 860.52 Q101.177 856.956 101.177 849.849 Q101.177 842.72 99.3483 839.178 Q97.5428 835.613 93.9086 835.613 M93.9086 831.909 Q99.7187 831.909 102.774 836.516 Q105.853 841.099 105.853 849.849 Q105.853 858.576 102.774 863.182 Q99.7187 867.766 93.9086 867.766 Q88.0984 867.766 85.0197 863.182 Q81.9642 858.576 81.9642 849.849 Q81.9642 841.099 85.0197 836.516 Q88.0984 831.909 93.9086 831.909 Z" fill="#000000" fill-rule="evenodd" fill-opacity="1" /><path clip-path="url(#clip140)" d="M 0 0 M124.07 835.613 Q120.459 835.613 118.631 839.178 Q116.825 842.72 116.825 849.849 Q116.825 856.956 118.631 860.52 Q120.459 864.062 124.07 864.062 Q127.705 864.062 129.51 860.52 Q131.339 856.956 131.339 849.849 Q131.339 842.72 129.51 839.178 Q127.705 835.613 124.07 835.613 M124.07 831.909 Q129.881 831.909 132.936 836.516 Q136.015 841.099 136.015 849.849 Q136.015 858.576 132.936 863.182 Q129.881 867.766 124.07 867.766 Q118.26 867.766 115.182 863.182 Q112.126 858.576 112.126 849.849 Q112.126 841.099 115.182 836.516 Q118.26 831.909 124.07 831.909 Z" fill="#000000" fill-rule="evenodd" fill-opacity="1" /><path clip-path="url(#clip140)" d="M 0 0 M64.3254 548.922 Q61.1773 548.922 59.3254 551.074 Q57.4967 553.227 57.4967 556.977 Q57.4967 560.704 59.3254 562.88 Q61.1773 565.033 64.3254 565.033 Q67.4735 565.033 69.3022 562.88 Q71.1541 560.704 71.1541 556.977 Q71.1541 553.227 69.3022 551.074 Q67.4735 548.922 64.3254 548.922 M73.6077 534.269 L73.6077 538.528 Q71.8485 537.695 70.0429 537.255 Q68.2606 536.815 66.5013 536.815 Q61.8717 536.815 59.418 539.94 Q56.9875 543.065 56.6402 549.385 Q58.006 547.371 60.0662 546.306 Q62.1263 545.218 64.6032 545.218 Q69.8115 545.218 72.8207 548.389 Q75.8531 551.537 75.8531 556.977 Q75.8531 562.301 72.705 565.519 Q69.5568 568.736 64.3254 568.736 Q58.33 568.736 55.1588 564.153 Q51.9875 559.547 51.9875 550.82 Q51.9875 542.625 55.8764 537.764 Q59.7652 532.88 66.3161 532.88 Q68.0754 532.88 69.8578 533.227 Q71.6633 533.575 73.6077 534.269 Z" fill="#000000" fill-rule="evenodd" fill-opacity="1" /><path clip-path="url(#clip140)" d="M 0 0 M93.9086 536.584 Q90.2975 536.584 88.4688 540.149 Q86.6632 543.69 86.6632 550.82 Q86.6632 557.926 88.4688 561.491 Q90.2975 565.033 93.9086 565.033 Q97.5428 565.033 99.3483 561.491 Q101.177 557.926 101.177 550.82 Q101.177 543.69 99.3483 540.149 Q97.5428 536.584 93.9086 536.584 M93.9086 532.88 Q99.7187 532.88 102.774 537.487 Q105.853 542.07 105.853 550.82 Q105.853 559.547 102.774 564.153 Q99.7187 568.736 93.9086 568.736 Q88.0984 568.736 85.0197 564.153 Q81.9642 559.547 81.9642 550.82 Q81.9642 542.07 85.0197 537.487 Q88.0984 532.88 93.9086 532.88 Z" fill="#000000" fill-rule="evenodd" fill-opacity="1" /><path clip-path="url(#clip140)" d="M 0 0 M124.07 536.584 Q120.459 536.584 118.631 540.149 Q116.825 543.69 116.825 550.82 Q116.825 557.926 118.631 561.491 Q120.459 565.033 124.07 565.033 Q127.705 565.033 129.51 561.491 Q131.339 557.926 131.339 550.82 Q131.339 543.69 129.51 540.149 Q127.705 536.584 124.07 536.584 M124.07 532.88 Q129.881 532.88 132.936 537.487 Q136.015 542.07 136.015 550.82 Q136.015 559.547 132.936 564.153 Q129.881 568.736 124.07 568.736 Q118.26 568.736 115.182 564.153 Q112.126 559.547 112.126 550.82 Q112.126 542.07 115.182 537.487 Q118.26 532.88 124.07 532.88 Z" fill="#000000" fill-rule="evenodd" fill-opacity="1" /><path clip-path="url(#clip140)" d="M 0 0 M63.7467 252.624 Q60.4134 252.624 58.4921 254.406 Q56.5939 256.189 56.5939 259.314 Q56.5939 262.439 58.4921 264.221 Q60.4134 266.003 63.7467 266.003 Q67.08 266.003 69.0013 264.221 Q70.9226 262.415 70.9226 259.314 Q70.9226 256.189 69.0013 254.406 Q67.1032 252.624 63.7467 252.624 M59.0708 250.633 Q56.0615 249.892 54.3717 247.832 Q52.7051 245.772 52.7051 242.809 Q52.7051 238.666 55.6449 236.258 Q58.6078 233.851 63.7467 233.851 Q68.9087 233.851 71.8485 236.258 Q74.7883 238.666 74.7883 242.809 Q74.7883 245.772 73.0985 247.832 Q71.4318 249.892 68.4457 250.633 Q71.8253 251.42 73.7003 253.712 Q75.5985 256.003 75.5985 259.314 Q75.5985 264.337 72.5198 267.022 Q69.4642 269.707 63.7467 269.707 Q58.0291 269.707 54.9504 267.022 Q51.8949 264.337 51.8949 259.314 Q51.8949 256.003 53.793 253.712 Q55.6912 251.42 59.0708 250.633 M57.3578 243.249 Q57.3578 245.934 59.0245 247.439 Q60.7143 248.943 63.7467 248.943 Q66.7559 248.943 68.4457 247.439 Q70.1587 245.934 70.1587 243.249 Q70.1587 240.564 68.4457 239.059 Q66.7559 237.554 63.7467 237.554 Q60.7143 237.554 59.0245 239.059 Q57.3578 240.564 57.3578 243.249 Z" fill="#000000" fill-rule="evenodd" fill-opacity="1" /><path clip-path="url(#clip140)" d="M 0 0 M93.9086 237.554 Q90.2975 237.554 88.4688 241.119 Q86.6632 244.661 86.6632 251.79 Q86.6632 258.897 88.4688 262.462 Q90.2975 266.003 93.9086 266.003 Q97.5428 266.003 99.3483 262.462 Q101.177 258.897 101.177 251.79 Q101.177 244.661 99.3483 241.119 Q97.5428 237.554 93.9086 237.554 M93.9086 233.851 Q99.7187 233.851 102.774 238.457 Q105.853 243.04 105.853 251.79 Q105.853 260.517 102.774 265.124 Q99.7187 269.707 93.9086 269.707 Q88.0984 269.707 85.0197 265.124 Q81.9642 260.517 81.9642 251.79 Q81.9642 243.04 85.0197 238.457 Q88.0984 233.851 93.9086 233.851 Z" fill="#000000" fill-rule="evenodd" fill-opacity="1" /><path clip-path="url(#clip140)" d="M 0 0 M124.07 237.554 Q120.459 237.554 118.631 241.119 Q116.825 244.661 116.825 251.79 Q116.825 258.897 118.631 262.462 Q120.459 266.003 124.07 266.003 Q127.705 266.003 129.51 262.462 Q131.339 258.897 131.339 251.79 Q131.339 244.661 129.51 241.119 Q127.705 237.554 124.07 237.554 M124.07 233.851 Q129.881 233.851 132.936 238.457 Q136.015 243.04 136.015 251.79 Q136.015 260.517 132.936 265.124 Q129.881 269.707 124.07 269.707 Q118.26 269.707 115.182 265.124 Q112.126 260.517 112.126 251.79 Q112.126 243.04 115.182 238.457 Q118.26 233.851 124.07 233.851 Z" fill="#000000" fill-rule="evenodd" fill-opacity="1" /><path clip-path="url(#clip140)" d="M 0 0 M1179.36 18.8205 L1179.36 65.8515 L1189.25 65.8515 Q1201.76 65.8515 1207.56 60.1802 Q1213.39 54.509 1213.39 42.2752 Q1213.39 30.1225 1207.56 24.4918 Q1201.76 18.8205 1189.25 18.8205 L1179.36 18.8205 M1171.18 12.096 L1187.99 12.096 Q1205.57 12.096 1213.79 19.4281 Q1222.02 26.7198 1222.02 42.2752 Q1222.02 57.9117 1213.75 65.2439 Q1205.49 72.576 1187.99 72.576 L1171.18 72.576 L1171.18 12.096 Z" fill="#000000" fill-rule="evenodd" fill-opacity="1" /><path clip-path="url(#clip140)" d="M 0 0 M1255.36 49.7694 Q1246.32 49.7694 1242.84 51.8354 Q1239.36 53.9013 1239.36 58.8839 Q1239.36 62.8538 1241.95 65.2034 Q1244.58 67.5124 1249.08 67.5124 Q1255.28 67.5124 1259 63.1374 Q1262.77 58.7219 1262.77 51.4303 L1262.77 49.7694 L1255.36 49.7694 M1270.22 46.6907 L1270.22 72.576 L1262.77 72.576 L1262.77 65.6895 Q1260.22 69.8214 1256.41 71.8063 Q1252.6 73.7508 1247.09 73.7508 Q1240.13 73.7508 1235.99 69.8619 Q1231.9 65.9325 1231.9 59.3701 Q1231.9 51.7138 1237.01 47.825 Q1242.15 43.9361 1252.32 43.9361 L1262.77 43.9361 L1262.77 43.2069 Q1262.77 38.0623 1259.37 35.2672 Q1256.01 32.4315 1249.89 32.4315 Q1246 32.4315 1242.31 33.3632 Q1238.63 34.295 1235.22 36.1584 L1235.22 29.2718 Q1239.32 27.692 1243.16 26.9223 Q1247.01 26.1121 1250.66 26.1121 Q1260.5 26.1121 1265.36 31.2163 Q1270.22 36.3204 1270.22 46.6907 Z" fill="#000000" fill-rule="evenodd" fill-opacity="1" /><path clip-path="url(#clip140)" d="M 0 0 M1292.95 14.324 L1292.95 27.2059 L1308.3 27.2059 L1308.3 32.9987 L1292.95 32.9987 L1292.95 57.6282 Q1292.95 63.1779 1294.45 64.7578 Q1295.99 66.3376 1300.65 66.3376 L1308.3 66.3376 L1308.3 72.576 L1300.65 72.576 Q1292.02 72.576 1288.74 69.3758 Q1285.46 66.1351 1285.46 57.6282 L1285.46 32.9987 L1279.99 32.9987 L1279.99 27.2059 L1285.46 27.2059 L1285.46 14.324 L1292.95 14.324 Z" fill="#000000" fill-rule="evenodd" fill-opacity="1" /><path clip-path="url(#clip140)" d="M 0 0 M1338.72 49.7694 Q1329.69 49.7694 1326.21 51.8354 Q1322.72 53.9013 1322.72 58.8839 Q1322.72 62.8538 1325.32 65.2034 Q1327.95 67.5124 1332.45 67.5124 Q1338.64 67.5124 1342.37 63.1374 Q1346.14 58.7219 1346.14 51.4303 L1346.14 49.7694 L1338.72 49.7694 M1353.59 46.6907 L1353.59 72.576 L1346.14 72.576 L1346.14 65.6895 Q1343.59 69.8214 1339.78 71.8063 Q1335.97 73.7508 1330.46 73.7508 Q1323.49 73.7508 1319.36 69.8619 Q1315.27 65.9325 1315.27 59.3701 Q1315.27 51.7138 1320.37 47.825 Q1325.52 43.9361 1335.69 43.9361 L1346.14 43.9361 L1346.14 43.2069 Q1346.14 38.0623 1342.74 35.2672 Q1339.37 32.4315 1333.26 32.4315 Q1329.37 32.4315 1325.68 33.3632 Q1321.99 34.295 1318.59 36.1584 L1318.59 29.2718 Q1322.68 27.692 1326.53 26.9223 Q1330.38 26.1121 1334.03 26.1121 Q1343.87 26.1121 1348.73 31.2163 Q1353.59 36.3204 1353.59 46.6907 Z" fill="#000000" fill-rule="evenodd" fill-opacity="1" /><polyline clip-path="url(#clip142)" style="stroke:#009af9; stroke-width:4; stroke-opacity:1; fill:none" points="
  233.734,1447.87 233.734,1253.5 268.022,1253.5 268.022,1328.26 302.311,1328.26 302.311,1193.7 336.599,1193.7 336.599,1163.8 370.887,1163.8 370.887,1148.84 
  405.176,1148.84 405.176,1118.94 439.464,1118.94 439.464,1089.04 473.753,1089.04 473.753,790.009 508.041,790.009 508.041,819.911 542.329,819.911 542.329,834.863 
  576.618,834.863 576.618,969.426 610.906,969.426 610.906,924.572 645.194,924.572 645.194,939.523 679.483,939.523 679.483,954.475 713.771,954.475 713.771,1133.89 
  748.06,1133.89 748.06,1044.18 782.348,1044.18 782.348,1193.7 816.636,1193.7 816.636,1358.16 850.925,1358.16 850.925,1223.6 885.213,1223.6 885.213,1328.26 
  919.502,1328.26 919.502,1432.92 953.79,1432.92 953.79,1403.02 988.078,1403.02 988.078,1417.97 1022.37,1417.97 1022.37,1403.02 1056.66,1403.02 1056.66,1447.87 
  1090.94,1447.87 1090.94,1417.97 1125.23,1417.97 1125.23,1388.07 1159.52,1388.07 1159.52,1417.97 1193.81,1417.97 1193.81,1313.31 1228.1,1313.31 
  1262.39,1313.31 1262.39,1148.84 1296.67,1148.84 1296.67,1178.75 1330.96,1178.75 1330.96,1044.18 1365.25,1044.18 1399.54,1044.18 1399.54,790.009 
  1433.83,790.009 1433.83,595.639 1468.12,595.639 1468.12,446.125 1502.4,446.125 1502.4,341.465 1536.69,341.465 1536.69,401.27 1570.98,401.27 1570.98,162.047 
  1605.27,162.047 1605.27,341.465 1639.56,341.465 1639.56,162.047 1673.85,162.047 1673.85,535.834 1708.13,535.834 1708.13,655.445 1742.42,655.445 1742.42,505.931 
  1776.71,505.931 1776.71,819.911 1811,819.911 1811,984.378 1845.29,984.378 1845.29,969.426 1879.58,969.426 1879.58,1283.41 1913.86,1283.41 1913.86,1343.21 
  1948.15,1343.21 1948.15,1328.26 1982.44,1328.26 1982.44,1388.07 2016.73,1388.07 2016.73,1343.21 2051.02,1343.21 2051.02,1417.97 2085.31,1417.97 2085.31,1432.92 
  2119.59,1432.92 2153.88,1432.92 2153.88,1447.87 2188.17,1447.87 2222.46,1447.87 2256.75,1447.87 
  2291.04,1447.87 
  "/>
<path clip-path="url(#clip140)" d="
M1933.52 289.865 L2280.06 289.865 L2280.06 168.905 L1933.52 168.905  Z
  " fill="#ffffff" fill-rule="evenodd" fill-opacity="1"/>
<polyline clip-path="url(#clip140)" style="stroke:#000000; stroke-width:4; stroke-opacity:1; fill:none" points="
  1933.52,289.865 2280.06,289.865 2280.06,168.905 1933.52,168.905 1933.52,289.865 
  "/>
<polyline clip-path="url(#clip140)" style="stroke:#009af9; stroke-width:4; stroke-opacity:1; fill:none" points="
  1957.75,229.385 2103.14,229.385 
  "/>
<path clip-path="url(#clip140)" d="M 0 0 M2132.04 215.947 L2132.04 242.822 L2137.69 242.822 Q2144.84 242.822 2148.15 239.581 Q2151.49 236.341 2151.49 229.35 Q2151.49 222.406 2148.15 219.188 Q2144.84 215.947 2137.69 215.947 L2132.04 215.947 M2127.37 212.105 L2136.97 212.105 Q2147.02 212.105 2151.72 216.294 Q2156.42 220.461 2156.42 229.35 Q2156.42 238.285 2151.7 242.475 Q2146.97 246.665 2136.97 246.665 L2127.37 246.665 L2127.37 212.105 Z" fill="#000000" fill-rule="evenodd" fill-opacity="1" /><path clip-path="url(#clip140)" d="M 0 0 M2175.47 233.632 Q2170.31 233.632 2168.32 234.813 Q2166.33 235.993 2166.33 238.841 Q2166.33 241.109 2167.81 242.452 Q2169.31 243.771 2171.88 243.771 Q2175.42 243.771 2177.55 241.271 Q2179.71 238.748 2179.71 234.581 L2179.71 233.632 L2175.47 233.632 M2183.96 231.873 L2183.96 246.665 L2179.71 246.665 L2179.71 242.729 Q2178.25 245.091 2176.07 246.225 Q2173.9 247.336 2170.75 247.336 Q2166.77 247.336 2164.4 245.114 Q2162.07 242.868 2162.07 239.118 Q2162.07 234.743 2164.98 232.521 Q2167.92 230.299 2173.73 230.299 L2179.71 230.299 L2179.71 229.882 Q2179.71 226.943 2177.76 225.345 Q2175.84 223.725 2172.34 223.725 Q2170.12 223.725 2168.02 224.257 Q2165.91 224.79 2163.97 225.855 L2163.97 221.919 Q2166.3 221.017 2168.5 220.577 Q2170.7 220.114 2172.78 220.114 Q2178.41 220.114 2181.19 223.031 Q2183.96 225.947 2183.96 231.873 Z" fill="#000000" fill-rule="evenodd" fill-opacity="1" /><path clip-path="url(#clip140)" d="M 0 0 M2196.95 213.378 L2196.95 220.739 L2205.72 220.739 L2205.72 224.049 L2196.95 224.049 L2196.95 238.123 Q2196.95 241.294 2197.81 242.197 Q2198.69 243.1 2201.35 243.1 L2205.72 243.1 L2205.72 246.665 L2201.35 246.665 Q2196.42 246.665 2194.54 244.836 Q2192.67 242.984 2192.67 238.123 L2192.67 224.049 L2189.54 224.049 L2189.54 220.739 L2192.67 220.739 L2192.67 213.378 L2196.95 213.378 Z" fill="#000000" fill-rule="evenodd" fill-opacity="1" /><path clip-path="url(#clip140)" d="M 0 0 M2223.11 233.632 Q2217.95 233.632 2215.96 234.813 Q2213.96 235.993 2213.96 238.841 Q2213.96 241.109 2215.45 242.452 Q2216.95 243.771 2219.52 243.771 Q2223.06 243.771 2225.19 241.271 Q2227.34 238.748 2227.34 234.581 L2227.34 233.632 L2223.11 233.632 M2231.6 231.873 L2231.6 246.665 L2227.34 246.665 L2227.34 242.729 Q2225.89 245.091 2223.71 246.225 Q2221.53 247.336 2218.39 247.336 Q2214.4 247.336 2212.04 245.114 Q2209.71 242.868 2209.71 239.118 Q2209.71 234.743 2212.62 232.521 Q2215.56 230.299 2221.37 230.299 L2227.34 230.299 L2227.34 229.882 Q2227.34 226.943 2225.4 225.345 Q2223.48 223.725 2219.98 223.725 Q2217.76 223.725 2215.65 224.257 Q2213.55 224.79 2211.6 225.855 L2211.6 221.919 Q2213.94 221.017 2216.14 220.577 Q2218.34 220.114 2220.42 220.114 Q2226.05 220.114 2228.83 223.031 Q2231.6 225.947 2231.6 231.873 Z" fill="#000000" fill-rule="evenodd" fill-opacity="1" /></svg>
