<?xml version="1.0" encoding="utf-8"?>
<svg xmlns="http://www.w3.org/2000/svg" xmlns:xlink="http://www.w3.org/1999/xlink" width="600" height="400" viewBox="0 0 2400 1600">
<defs>
  <clipPath id="clip380">
    <rect x="0" y="0" width="2400" height="1600"/>
  </clipPath>
</defs>
<path clip-path="url(#clip380)" d="
M0 1600 L2400 1600 L2400 0 L0 0  Z
  " fill="#ffffff" fill-rule="evenodd" fill-opacity="1"/>
<defs>
  <clipPath id="clip381">
    <rect x="480" y="0" width="1681" height="1600"/>
  </clipPath>
</defs>
<path clip-path="url(#clip380)" d="
M172.015 1486.45 L2352.76 1486.45 L2352.76 123.472 L172.015 123.472  Z
  " fill="#ffffff" fill-rule="evenodd" fill-opacity="1"/>
<defs>
  <clipPath id="clip382">
    <rect x="172" y="123" width="2182" height="1364"/>
  </clipPath>
</defs>
<polyline clip-path="url(#clip382)" style="stroke:#000000; stroke-linecap:butt; stroke-linejoin:round; stroke-width:2; stroke-opacity:0.1; fill:none" points="
  233.734,1486.45 233.734,123.472 
  "/>
<polyline clip-path="url(#clip382)" style="stroke:#000000; stroke-linecap:butt; stroke-linejoin:round; stroke-width:2; stroke-opacity:0.1; fill:none" points="
  576.618,1486.45 576.618,123.472 
  "/>
<polyline clip-path="url(#clip382)" style="stroke:#000000; stroke-linecap:butt; stroke-linejoin:round; stroke-width:2; stroke-opacity:0.1; fill:none" points="
  919.502,1486.45 919.502,123.472 
  "/>
<polyline clip-path="url(#clip382)" style="stroke:#000000; stroke-linecap:butt; stroke-linejoin:round; stroke-width:2; stroke-opacity:0.1; fill:none" points="
  1262.39,1486.45 1262.39,123.472 
  "/>
<polyline clip-path="url(#clip382)" style="stroke:#000000; stroke-linecap:butt; stroke-linejoin:round; stroke-width:2; stroke-opacity:0.1; fill:none" points="
  1605.27,1486.45 1605.27,123.472 
  "/>
<polyline clip-path="url(#clip382)" style="stroke:#000000; stroke-linecap:butt; stroke-linejoin:round; stroke-width:2; stroke-opacity:0.1; fill:none" points="
  1948.15,1486.45 1948.15,123.472 
  "/>
<polyline clip-path="url(#clip382)" style="stroke:#000000; stroke-linecap:butt; stroke-linejoin:round; stroke-width:2; stroke-opacity:0.1; fill:none" points="
  2291.04,1486.45 2291.04,123.472 
  "/>
<polyline clip-path="url(#clip380)" style="stroke:#000000; stroke-linecap:butt; stroke-linejoin:round; stroke-width:4; stroke-opacity:1; fill:none" points="
  172.015,1486.45 2352.76,1486.45 
  "/>
<polyline clip-path="url(#clip380)" style="stroke:#000000; stroke-linecap:butt; stroke-linejoin:round; stroke-width:4; stroke-opacity:1; fill:none" points="
  233.734,1486.45 233.734,1467.55 
  "/>
<polyline clip-path="url(#clip380)" style="stroke:#000000; stroke-linecap:butt; stroke-linejoin:round; stroke-width:4; stroke-opacity:1; fill:none" points="
  576.618,1486.45 576.618,1467.55 
  "/>
<polyline clip-path="url(#clip380)" style="stroke:#000000; stroke-linecap:butt; stroke-linejoin:round; stroke-width:4; stroke-opacity:1; fill:none" points="
  919.502,1486.45 919.502,1467.55 
  "/>
<polyline clip-path="url(#clip380)" style="stroke:#000000; stroke-linecap:butt; stroke-linejoin:round; stroke-width:4; stroke-opacity:1; fill:none" points="
  1262.39,1486.45 1262.39,1467.55 
  "/>
<polyline clip-path="url(#clip380)" style="stroke:#000000; stroke-linecap:butt; stroke-linejoin:round; stroke-width:4; stroke-opacity:1; fill:none" points="
  1605.27,1486.45 1605.27,1467.55 
  "/>
<polyline clip-path="url(#clip380)" style="stroke:#000000; stroke-linecap:butt; stroke-linejoin:round; stroke-width:4; stroke-opacity:1; fill:none" points="
  1948.15,1486.45 1948.15,1467.55 
  "/>
<polyline clip-path="url(#clip380)" style="stroke:#000000; stroke-linecap:butt; stroke-linejoin:round; stroke-width:4; stroke-opacity:1; fill:none" points="
  2291.04,1486.45 2291.04,1467.55 
  "/>
<path clip-path="url(#clip380)" d="M203.676 1530.29 L233.352 1530.29 L233.352 1534.23 L203.676 1534.23 L203.676 1530.29 Z" fill="#000000" fill-rule="evenodd" fill-opacity="1" /><path clip-path="url(#clip380)" d="M247.472 1543.18 L263.792 1543.18 L263.792 1547.12 L241.847 1547.12 L241.847 1543.18 Q244.509 1540.43 249.093 1535.8 Q253.699 1531.15 254.88 1529.81 Q257.125 1527.28 258.005 1525.55 Q258.907 1523.79 258.907 1522.1 Q258.907 1519.34 256.963 1517.61 Q255.042 1515.87 251.94 1515.87 Q249.741 1515.87 247.287 1516.63 Q244.857 1517.4 242.079 1518.95 L242.079 1514.23 Q244.903 1513.09 247.357 1512.51 Q249.81 1511.93 251.847 1511.93 Q257.218 1511.93 260.412 1514.62 Q263.606 1517.31 263.606 1521.8 Q263.606 1523.93 262.796 1525.85 Q262.009 1527.74 259.903 1530.34 Q259.324 1531.01 256.222 1534.23 Q253.12 1537.42 247.472 1543.18 Z" fill="#000000" fill-rule="evenodd" fill-opacity="1" /><path clip-path="url(#clip380)" d="M546.375 1530.29 L576.051 1530.29 L576.051 1534.23 L546.375 1534.23 L546.375 1530.29 Z" fill="#000000" fill-rule="evenodd" fill-opacity="1" /><path clip-path="url(#clip380)" d="M586.953 1543.18 L594.592 1543.18 L594.592 1516.82 L586.282 1518.49 L586.282 1514.23 L594.546 1512.56 L599.222 1512.56 L599.222 1543.18 L606.861 1543.18 L606.861 1547.12 L586.953 1547.12 L586.953 1543.18 Z" fill="#000000" fill-rule="evenodd" fill-opacity="1" /><path clip-path="url(#clip380)" d="M919.502 1515.64 Q915.89 1515.64 914.062 1519.2 Q912.256 1522.75 912.256 1529.87 Q912.256 1536.98 914.062 1540.55 Q915.89 1544.09 919.502 1544.09 Q923.136 1544.09 924.941 1540.55 Q926.77 1536.98 926.77 1529.87 Q926.77 1522.75 924.941 1519.2 Q923.136 1515.64 919.502 1515.64 M919.502 1511.93 Q925.312 1511.93 928.367 1516.54 Q931.446 1521.12 931.446 1529.87 Q931.446 1538.6 928.367 1543.21 Q925.312 1547.79 919.502 1547.79 Q913.691 1547.79 910.613 1543.21 Q907.557 1538.6 907.557 1529.87 Q907.557 1521.12 910.613 1516.54 Q913.691 1511.93 919.502 1511.93 Z" fill="#000000" fill-rule="evenodd" fill-opacity="1" /><path clip-path="url(#clip380)" d="M1252.77 1543.18 L1260.41 1543.18 L1260.41 1516.82 L1252.1 1518.49 L1252.1 1514.23 L1260.36 1512.56 L1265.04 1512.56 L1265.04 1543.18 L1272.67 1543.18 L1272.67 1547.12 L1252.77 1547.12 L1252.77 1543.18 Z" fill="#000000" fill-rule="evenodd" fill-opacity="1" /><path clip-path="url(#clip380)" d="M1599.92 1543.18 L1616.24 1543.18 L1616.24 1547.12 L1594.3 1547.12 L1594.3 1543.18 Q1596.96 1540.43 1601.54 1535.8 Q1606.15 1531.15 1607.33 1529.81 Q1609.57 1527.28 1610.45 1525.55 Q1611.36 1523.79 1611.36 1522.1 Q1611.36 1519.34 1609.41 1517.61 Q1607.49 1515.87 1604.39 1515.87 Q1602.19 1515.87 1599.74 1516.63 Q1597.31 1517.4 1594.53 1518.95 L1594.53 1514.23 Q1597.35 1513.09 1599.81 1512.51 Q1602.26 1511.93 1604.3 1511.93 Q1609.67 1511.93 1612.86 1514.62 Q1616.06 1517.31 1616.06 1521.8 Q1616.06 1523.93 1615.25 1525.85 Q1614.46 1527.74 1612.35 1530.34 Q1611.77 1531.01 1608.67 1534.23 Q1605.57 1537.42 1599.92 1543.18 Z" fill="#000000" fill-rule="evenodd" fill-opacity="1" /><path clip-path="url(#clip380)" d="M1952.4 1528.49 Q1955.76 1529.2 1957.63 1531.47 Q1959.53 1533.74 1959.53 1537.07 Q1959.53 1542.19 1956.01 1544.99 Q1952.49 1547.79 1946.01 1547.79 Q1943.84 1547.79 1941.52 1547.35 Q1939.23 1546.93 1936.78 1546.08 L1936.78 1541.56 Q1938.72 1542.7 1941.03 1543.28 Q1943.35 1543.86 1945.87 1543.86 Q1950.27 1543.86 1952.56 1542.12 Q1954.88 1540.38 1954.88 1537.07 Q1954.88 1534.02 1952.72 1532.31 Q1950.6 1530.57 1946.78 1530.57 L1942.75 1530.57 L1942.75 1526.73 L1946.96 1526.73 Q1950.41 1526.73 1952.24 1525.36 Q1954.07 1523.97 1954.07 1521.38 Q1954.07 1518.72 1952.17 1517.31 Q1950.29 1515.87 1946.78 1515.87 Q1944.85 1515.87 1942.66 1516.29 Q1940.46 1516.7 1937.82 1517.58 L1937.82 1513.42 Q1940.48 1512.68 1942.79 1512.31 Q1945.13 1511.93 1947.19 1511.93 Q1952.52 1511.93 1955.62 1514.37 Q1958.72 1516.77 1958.72 1520.89 Q1958.72 1523.76 1957.08 1525.75 Q1955.43 1527.72 1952.4 1528.49 Z" fill="#000000" fill-rule="evenodd" fill-opacity="1" /><path clip-path="url(#clip380)" d="M2294.05 1516.63 L2282.24 1535.08 L2294.05 1535.08 L2294.05 1516.63 M2292.82 1512.56 L2298.7 1512.56 L2298.7 1535.08 L2303.63 1535.08 L2303.63 1538.97 L2298.7 1538.97 L2298.7 1547.12 L2294.05 1547.12 L2294.05 1538.97 L2278.44 1538.97 L2278.44 1534.46 L2292.82 1512.56 Z" fill="#000000" fill-rule="evenodd" fill-opacity="1" /><polyline clip-path="url(#clip382)" style="stroke:#000000; stroke-linecap:butt; stroke-linejoin:round; stroke-width:2; stroke-opacity:0.1; fill:none" points="
  172.015,1447.87 2352.76,1447.87 
  "/>
<polyline clip-path="url(#clip382)" style="stroke:#000000; stroke-linecap:butt; stroke-linejoin:round; stroke-width:2; stroke-opacity:0.1; fill:none" points="
  172.015,1179.99 2352.76,1179.99 
  "/>
<polyline clip-path="url(#clip382)" style="stroke:#000000; stroke-linecap:butt; stroke-linejoin:round; stroke-width:2; stroke-opacity:0.1; fill:none" points="
  172.015,912.112 2352.76,912.112 
  "/>
<polyline clip-path="url(#clip382)" style="stroke:#000000; stroke-linecap:butt; stroke-linejoin:round; stroke-width:2; stroke-opacity:0.1; fill:none" points="
  172.015,644.232 2352.76,644.232 
  "/>
<polyline clip-path="url(#clip382)" style="stroke:#000000; stroke-linecap:butt; stroke-linejoin:round; stroke-width:2; stroke-opacity:0.1; fill:none" points="
  172.015,376.351 2352.76,376.351 
  "/>
<polyline clip-path="url(#clip380)" style="stroke:#000000; stroke-linecap:butt; stroke-linejoin:round; stroke-width:4; stroke-opacity:1; fill:none" points="
  172.015,1486.45 172.015,123.472 
  "/>
<polyline clip-path="url(#clip380)" style="stroke:#000000; stroke-linecap:butt; stroke-linejoin:round; stroke-width:4; stroke-opacity:1; fill:none" points="
  172.015,1447.87 190.912,1447.87 
  "/>
<polyline clip-path="url(#clip380)" style="stroke:#000000; stroke-linecap:butt; stroke-linejoin:round; stroke-width:4; stroke-opacity:1; fill:none" points="
  172.015,1179.99 190.912,1179.99 
  "/>
<polyline clip-path="url(#clip380)" style="stroke:#000000; stroke-linecap:butt; stroke-linejoin:round; stroke-width:4; stroke-opacity:1; fill:none" points="
  172.015,912.112 190.912,912.112 
  "/>
<polyline clip-path="url(#clip380)" style="stroke:#000000; stroke-linecap:butt; stroke-linejoin:round; stroke-width:4; stroke-opacity:1; fill:none" points="
  172.015,644.232 190.912,644.232 
  "/>
<polyline clip-path="url(#clip380)" style="stroke:#000000; stroke-linecap:butt; stroke-linejoin:round; stroke-width:4; stroke-opacity:1; fill:none" points="
  172.015,376.351 190.912,376.351 
  "/>
<path clip-path="url(#clip380)" d="M124.07 1433.67 Q120.459 1433.67 118.631 1437.24 Q116.825 1440.78 116.825 1447.91 Q116.825 1455.01 118.631 1458.58 Q120.459 1462.12 124.07 1462.12 Q127.705 1462.12 129.51 1458.58 Q131.339 1455.01 131.339 1447.91 Q131.339 1440.78 129.51 1437.24 Q127.705 1433.67 124.07 1433.67 M124.07 1429.97 Q129.881 1429.97 132.936 1434.57 Q136.015 1439.16 136.015 1447.91 Q136.015 1456.63 132.936 1461.24 Q129.881 1465.82 124.07 1465.82 Q118.26 1465.82 115.182 1461.24 Q112.126 1456.63 112.126 1447.91 Q112.126 1439.16 115.182 1434.57 Q118.26 1429.97 124.07 1429.97 Z" fill="#000000" fill-rule="evenodd" fill-opacity="1" /><path clip-path="url(#clip380)" d="M57.7745 1193.34 L74.0939 1193.34 L74.0939 1197.27 L52.1495 1197.27 L52.1495 1193.34 Q54.8115 1190.58 59.3949 1185.95 Q64.0013 1181.3 65.1819 1179.96 Q67.4272 1177.43 68.3068 1175.7 Q69.2096 1173.94 69.2096 1172.25 Q69.2096 1169.5 67.2652 1167.76 Q65.3439 1166.02 62.2421 1166.02 Q60.043 1166.02 57.5893 1166.79 Q55.1588 1167.55 52.381 1169.1 L52.381 1164.38 Q55.2051 1163.25 57.6588 1162.67 Q60.1124 1162.09 62.1495 1162.09 Q67.5198 1162.09 70.7142 1164.77 Q73.9087 1167.46 73.9087 1171.95 Q73.9087 1174.08 73.0985 1176 Q72.3115 1177.9 70.205 1180.49 Q69.6263 1181.16 66.5245 1184.38 Q63.4226 1187.57 57.7745 1193.34 Z" fill="#000000" fill-rule="evenodd" fill-opacity="1" /><path clip-path="url(#clip380)" d="M93.9086 1165.79 Q90.2975 1165.79 88.4688 1169.36 Q86.6632 1172.9 86.6632 1180.03 Q86.6632 1187.13 88.4688 1190.7 Q90.2975 1194.24 93.9086 1194.24 Q97.5428 1194.24 99.3483 1190.7 Q101.177 1187.13 101.177 1180.03 Q101.177 1172.9 99.3483 1169.36 Q97.5428 1165.79 93.9086 1165.79 M93.9086 1162.09 Q99.7187 1162.09 102.774 1166.69 Q105.853 1171.28 105.853 1180.03 Q105.853 1188.75 102.774 1193.36 Q99.7187 1197.94 93.9086 1197.94 Q88.0984 1197.94 85.0197 1193.36 Q81.9642 1188.75 81.9642 1180.03 Q81.9642 1171.28 85.0197 1166.69 Q88.0984 1162.09 93.9086 1162.09 Z" fill="#000000" fill-rule="evenodd" fill-opacity="1" /><path clip-path="url(#clip380)" d="M124.07 1165.79 Q120.459 1165.79 118.631 1169.36 Q116.825 1172.9 116.825 1180.03 Q116.825 1187.13 118.631 1190.7 Q120.459 1194.24 124.07 1194.24 Q127.705 1194.24 129.51 1190.7 Q131.339 1187.13 131.339 1180.03 Q131.339 1172.9 129.51 1169.36 Q127.705 1165.79 124.07 1165.79 M124.07 1162.09 Q129.881 1162.09 132.936 1166.69 Q136.015 1171.28 136.015 1180.03 Q136.015 1188.75 132.936 1193.36 Q129.881 1197.94 124.07 1197.94 Q118.26 1197.94 115.182 1193.36 Q112.126 1188.75 112.126 1180.03 Q112.126 1171.28 115.182 1166.69 Q118.26 1162.09 124.07 1162.09 Z" fill="#000000" fill-rule="evenodd" fill-opacity="1" /><path clip-path="url(#clip380)" d="M66.5939 898.906 L54.7884 917.355 L66.5939 917.355 L66.5939 898.906 M65.367 894.832 L71.2466 894.832 L71.2466 917.355 L76.1772 917.355 L76.1772 921.244 L71.2466 921.244 L71.2466 929.392 L66.5939 929.392 L66.5939 921.244 L50.9921 921.244 L50.9921 916.73 L65.367 894.832 Z" fill="#000000" fill-rule="evenodd" fill-opacity="1" /><path clip-path="url(#clip380)" d="M93.9086 897.911 Q90.2975 897.911 88.4688 901.476 Q86.6632 905.017 86.6632 912.147 Q86.6632 919.253 88.4688 922.818 Q90.2975 926.36 93.9086 926.36 Q97.5428 926.36 99.3483 922.818 Q101.177 919.253 101.177 912.147 Q101.177 905.017 99.3483 901.476 Q97.5428 897.911 93.9086 897.911 M93.9086 894.207 Q99.7187 894.207 102.774 898.814 Q105.853 903.397 105.853 912.147 Q105.853 920.874 102.774 925.48 Q99.7187 930.063 93.9086 930.063 Q88.0984 930.063 85.0197 925.48 Q81.9642 920.874 81.9642 912.147 Q81.9642 903.397 85.0197 898.814 Q88.0984 894.207 93.9086 894.207 Z" fill="#000000" fill-rule="evenodd" fill-opacity="1" /><path clip-path="url(#clip380)" d="M124.07 897.911 Q120.459 897.911 118.631 901.476 Q116.825 905.017 116.825 912.147 Q116.825 919.253 118.631 922.818 Q120.459 926.36 124.07 926.36 Q127.705 926.36 129.51 922.818 Q131.339 919.253 131.339 912.147 Q131.339 905.017 129.51 901.476 Q127.705 897.911 124.07 897.911 M124.07 894.207 Q129.881 894.207 132.936 898.814 Q136.015 903.397 136.015 912.147 Q136.015 920.874 132.936 925.48 Q129.881 930.063 124.07 930.063 Q118.26 930.063 115.182 925.48 Q112.126 920.874 112.126 912.147 Q112.126 903.397 115.182 898.814 Q118.26 894.207 124.07 894.207 Z" fill="#000000" fill-rule="evenodd" fill-opacity="1" /><path clip-path="url(#clip380)" d="M64.3254 642.368 Q61.1773 642.368 59.3254 644.521 Q57.4967 646.674 57.4967 650.424 Q57.4967 654.151 59.3254 656.327 Q61.1773 658.479 64.3254 658.479 Q67.4735 658.479 69.3022 656.327 Q71.1541 654.151 71.1541 650.424 Q71.1541 646.674 69.3022 644.521 Q67.4735 642.368 64.3254 642.368 M73.6077 627.716 L73.6077 631.975 Q71.8485 631.142 70.0429 630.702 Q68.2606 630.262 66.5013 630.262 Q61.8717 630.262 59.418 633.387 Q56.9875 636.512 56.6402 642.831 Q58.006 640.817 60.0662 639.753 Q62.1263 638.665 64.6032 638.665 Q69.8115 638.665 72.8207 641.836 Q75.8531 644.984 75.8531 650.424 Q75.8531 655.748 72.705 658.965 Q69.5568 662.183 64.3254 662.183 Q58.33 662.183 55.1588 657.6 Q51.9875 652.993 51.9875 644.266 Q51.9875 636.072 55.8764 631.211 Q59.7652 626.327 66.3161 626.327 Q68.0754 626.327 69.8578 626.674 Q71.6633 627.021 73.6077 627.716 Z" fill="#000000" fill-rule="evenodd" fill-opacity="1" /><path clip-path="url(#clip380)" d="M93.9086 630.03 Q90.2975 630.03 88.4688 633.595 Q86.6632 637.137 86.6632 644.266 Q86.6632 651.373 88.4688 654.938 Q90.2975 658.479 93.9086 658.479 Q97.5428 658.479 99.3483 654.938 Q101.177 651.373 101.177 644.266 Q101.177 637.137 99.3483 633.595 Q97.5428 630.03 93.9086 630.03 M93.9086 626.327 Q99.7187 626.327 102.774 630.933 Q105.853 635.516 105.853 644.266 Q105.853 652.993 102.774 657.6 Q99.7187 662.183 93.9086 662.183 Q88.0984 662.183 85.0197 657.6 Q81.9642 652.993 81.9642 644.266 Q81.9642 635.516 85.0197 630.933 Q88.0984 626.327 93.9086 626.327 Z" fill="#000000" fill-rule="evenodd" fill-opacity="1" /><path clip-path="url(#clip380)" d="M124.07 630.03 Q120.459 630.03 118.631 633.595 Q116.825 637.137 116.825 644.266 Q116.825 651.373 118.631 654.938 Q120.459 658.479 124.07 658.479 Q127.705 658.479 129.51 654.938 Q131.339 651.373 131.339 644.266 Q131.339 637.137 129.51 633.595 Q127.705 630.03 124.07 630.03 M124.07 626.327 Q129.881 626.327 132.936 630.933 Q136.015 635.516 136.015 644.266 Q136.015 652.993 132.936 657.6 Q129.881 662.183 124.07 662.183 Q118.26 662.183 115.182 657.6 Q112.126 652.993 112.126 644.266 Q112.126 635.516 115.182 630.933 Q118.26 626.327 124.07 626.327 Z" fill="#000000" fill-rule="evenodd" fill-opacity="1" /><path clip-path="url(#clip380)" d="M63.7467 377.219 Q60.4134 377.219 58.4921 379.002 Q56.5939 380.784 56.5939 383.909 Q56.5939 387.034 58.4921 388.816 Q60.4134 390.599 63.7467 390.599 Q67.08 390.599 69.0013 388.816 Q70.9226 387.011 70.9226 383.909 Q70.9226 380.784 69.0013 379.002 Q67.1032 377.219 63.7467 377.219 M59.0708 375.229 Q56.0615 374.488 54.3717 372.428 Q52.7051 370.368 52.7051 367.405 Q52.7051 363.261 55.6449 360.854 Q58.6078 358.446 63.7467 358.446 Q68.9087 358.446 71.8485 360.854 Q74.7883 363.261 74.7883 367.405 Q74.7883 370.368 73.0985 372.428 Q71.4318 374.488 68.4457 375.229 Q71.8253 376.016 73.7003 378.307 Q75.5985 380.599 75.5985 383.909 Q75.5985 388.932 72.5198 391.617 Q69.4642 394.303 63.7467 394.303 Q58.0291 394.303 54.9504 391.617 Q51.8949 388.932 51.8949 383.909 Q51.8949 380.599 53.793 378.307 Q55.6912 376.016 59.0708 375.229 M57.3578 367.844 Q57.3578 370.53 59.0245 372.034 Q60.7143 373.539 63.7467 373.539 Q66.7559 373.539 68.4457 372.034 Q70.1587 370.53 70.1587 367.844 Q70.1587 365.159 68.4457 363.655 Q66.7559 362.15 63.7467 362.15 Q60.7143 362.15 59.0245 363.655 Q57.3578 365.159 57.3578 367.844 Z" fill="#000000" fill-rule="evenodd" fill-opacity="1" /><path clip-path="url(#clip380)" d="M93.9086 362.15 Q90.2975 362.15 88.4688 365.715 Q86.6632 369.256 86.6632 376.386 Q86.6632 383.492 88.4688 387.057 Q90.2975 390.599 93.9086 390.599 Q97.5428 390.599 99.3483 387.057 Q101.177 383.492 101.177 376.386 Q101.177 369.256 99.3483 365.715 Q97.5428 362.15 93.9086 362.15 M93.9086 358.446 Q99.7187 358.446 102.774 363.053 Q105.853 367.636 105.853 376.386 Q105.853 385.113 102.774 389.719 Q99.7187 394.303 93.9086 394.303 Q88.0984 394.303 85.0197 389.719 Q81.9642 385.113 81.9642 376.386 Q81.9642 367.636 85.0197 363.053 Q88.0984 358.446 93.9086 358.446 Z" fill="#000000" fill-rule="evenodd" fill-opacity="1" /><path clip-path="url(#clip380)" d="M124.07 362.15 Q120.459 362.15 118.631 365.715 Q116.825 369.256 116.825 376.386 Q116.825 383.492 118.631 387.057 Q120.459 390.599 124.07 390.599 Q127.705 390.599 129.51 387.057 Q131.339 383.492 131.339 376.386 Q131.339 369.256 129.51 365.715 Q127.705 362.15 124.07 362.15 M124.07 358.446 Q129.881 358.446 132.936 363.053 Q136.015 367.636 136.015 376.386 Q136.015 385.113 132.936 389.719 Q129.881 394.303 124.07 394.303 Q118.26 394.303 115.182 389.719 Q112.126 385.113 112.126 376.386 Q112.126 367.636 115.182 363.053 Q118.26 358.446 124.07 358.446 Z" fill="#000000" fill-rule="evenodd" fill-opacity="1" /><path clip-path="url(#clip380)" d="M1179.36 18.8205 L1179.36 65.8515 L1189.25 65.8515 Q1201.76 65.8515 1207.56 60.1802 Q1213.39 54.509 1213.39 42.2752 Q1213.39 30.1225 1207.56 24.4918 Q1201.76 18.8205 1189.25 18.8205 L1179.36 18.8205 M1171.18 12.096 L1187.99 12.096 Q1205.57 12.096 1213.79 19.4281 Q1222.02 26.7198 1222.02 42.2752 Q1222.02 57.9117 1213.75 65.2439 Q1205.49 72.576 1187.99 72.576 L1171.18 72.576 L1171.18 12.096 Z" fill="#000000" fill-rule="evenodd" fill-opacity="1" /><path clip-path="url(#clip380)" d="M1255.36 49.7694 Q1246.32 49.7694 1242.84 51.8354 Q1239.36 53.9013 1239.36 58.8839 Q1239.36 62.8538 1241.95 65.2034 Q1244.58 67.5124 1249.08 67.5124 Q1255.28 67.5124 1259 63.1374 Q1262.77 58.7219 1262.77 51.4303 L1262.77 49.7694 L1255.36 49.7694 M1270.22 46.6907 L1270.22 72.576 L1262.77 72.576 L1262.77 65.6895 Q1260.22 69.8214 1256.41 71.8063 Q1252.6 73.7508 1247.09 73.7508 Q1240.13 73.7508 1235.99 69.8619 Q1231.9 65.9325 1231.9 59.3701 Q1231.9 51.7138 1237.01 47.825 Q1242.15 43.9361 1252.32 43.9361 L1262.77 43.9361 L1262.77 43.2069 Q1262.77 38.0623 1259.37 35.2672 Q1256.01 32.4315 1249.89 32.4315 Q1246 32.4315 1242.31 33.3632 Q1238.63 34.295 1235.22 36.1584 L1235.22 29.2718 Q1239.32 27.692 1243.16 26.9223 Q1247.01 26.1121 1250.66 26.1121 Q1260.5 26.1121 1265.36 31.2163 Q1270.22 36.3204 1270.22 46.6907 Z" fill="#000000" fill-rule="evenodd" fill-opacity="1" /><path clip-path="url(#clip380)" d="M1292.95 14.324 L1292.95 27.2059 L1308.3 27.2059 L1308.3 32.9987 L1292.95 32.9987 L1292.95 57.6282 Q1292.95 63.1779 1294.45 64.7578 Q1295.99 66.3376 1300.65 66.3376 L1308.3 66.3376 L1308.3 72.576 L1300.65 72.576 Q1292.02 72.576 1288.74 69.3758 Q1285.46 66.1351 1285.46 57.6282 L1285.46 32.9987 L1279.99 32.9987 L1279.99 27.2059 L1285.46 27.2059 L1285.46 14.324 L1292.95 14.324 Z" fill="#000000" fill-rule="evenodd" fill-opacity="1" /><path clip-path="url(#clip380)" d="M1338.72 49.7694 Q1329.69 49.7694 1326.21 51.8354 Q1322.72 53.9013 1322.72 58.8839 Q1322.72 62.8538 1325.32 65.2034 Q1327.95 67.5124 1332.45 67.5124 Q1338.64 67.5124 1342.37 63.1374 Q1346.14 58.7219 1346.14 51.4303 L1346.14 49.7694 L1338.72 49.7694 M1353.59 46.6907 L1353.59 72.576 L1346.14 72.576 L1346.14 65.6895 Q1343.59 69.8214 1339.78 71.8063 Q1335.97 73.7508 1330.46 73.7508 Q1323.49 73.7508 1319.36 69.8619 Q1315.27 65.9325 1315.27 59.3701 Q1315.27 51.7138 1320.37 47.825 Q1325.52 43.9361 1335.69 43.9361 L1346.14 43.9361 L1346.14 43.2069 Q1346.14 38.0623 1342.74 35.2672 Q1339.37 32.4315 1333.26 32.4315 Q1329.37 32.4315 1325.68 33.3632 Q1321.99 34.295 1318.59 36.1584 L1318.59 29.2718 Q1322.68 27.692 1326.53 26.9223 Q1330.38 26.1121 1334.03 26.1121 Q1343.87 26.1121 1348.73 31.2163 Q1353.59 36.3204 1353.59 46.6907 Z" fill="#000000" fill-rule="evenodd" fill-opacity="1" /><polyline clip-path="url(#clip382)" style="stroke:#009af9; stroke-linecap:butt; stroke-linejoin:round; stroke-width:4; stroke-opacity:1; fill:none" points="
  233.734,1447.87 233.734,1367.51 268.022,1367.51 268.022,1233.57 302.311,1233.57 336.599,1233.57 336.599,1126.42 370.887,1126.42 370.887,1206.78 
  405.176,1206.78 439.464,1206.78 439.464,925.506 473.753,925.506 473.753,965.688 508.041,965.688 508.041,952.294 542.329,952.294 542.329,979.082 
  576.618,979.082 576.618,912.112 610.906,912.112 610.906,979.082 645.194,979.082 645.194,858.536 679.483,858.536 679.483,992.476 713.771,992.476 713.771,1153.2 
  748.06,1153.2 748.06,1220.17 782.348,1220.17 782.348,1260.36 816.636,1260.36 816.636,1327.33 850.925,1327.33 850.925,1313.93 885.213,1313.93 885.213,1367.51 
  919.502,1367.51 919.502,1421.09 953.79,1421.09 953.79,1394.3 988.078,1394.3 988.078,1434.48 1022.37,1434.48 1022.37,1447.87 1056.66,1447.87 1056.66,1407.69 
  1090.94,1407.69 1090.94,1421.09 1125.23,1421.09 1125.23,1434.48 1159.52,1434.48 1159.52,1367.51 1193.81,1367.51 1228.1,1367.51 1228.1,1354.11 
  1262.39,1354.11 1262.39,1300.54 1296.67,1300.54 1296.67,1220.17 1330.96,1220.17 1330.96,979.082 1365.25,979.082 1365.25,885.324 1399.54,885.324 1399.54,871.93 
  1433.83,871.93 1433.83,684.414 1468.12,684.414 1468.12,496.897 1502.4,496.897 1502.4,483.503 1536.69,483.503 1536.69,563.868 1570.98,563.868 1570.98,162.047 
  1605.27,162.047 1605.27,523.686 1639.56,523.686 1639.56,295.987 1673.85,295.987 1673.85,604.05 1708.13,604.05 1708.13,764.778 1742.42,764.778 1742.42,644.232 
  1776.71,644.232 1776.71,871.93 1811,871.93 1811,1072.84 1845.29,1072.84 1845.29,1179.99 1879.58,1179.99 1879.58,1246.96 1913.86,1246.96 1913.86,1287.14 
  1948.15,1287.14 1982.44,1287.14 1982.44,1434.48 2016.73,1434.48 2016.73,1421.09 2051.02,1421.09 2051.02,1407.69 2085.31,1407.69 2085.31,1434.48 
  2119.59,1434.48 2119.59,1447.87 2153.88,1447.87 2153.88,1434.48 2188.17,1434.48 2188.17,1447.87 2222.46,1447.87 2256.75,1447.87 
  2291.04,1447.87 
  "/>
<path clip-path="url(#clip380)" d="
M1933.52 272.585 L2280.06 272.585 L2280.06 168.905 L1933.52 168.905  Z
  " fill="#ffffff" fill-rule="evenodd" fill-opacity="1"/>
<polyline clip-path="url(#clip380)" style="stroke:#000000; stroke-linecap:butt; stroke-linejoin:round; stroke-width:4; stroke-opacity:1; fill:none" points="
  1933.52,272.585 2280.06,272.585 2280.06,168.905 1933.52,168.905 1933.52,272.585 
  "/>
<polyline clip-path="url(#clip380)" style="stroke:#009af9; stroke-linecap:butt; stroke-linejoin:round; stroke-width:4; stroke-opacity:1; fill:none" points="
  1957.75,220.745 2103.14,220.745 
  "/>
<path clip-path="url(#clip380)" d="M2132.04 207.307 L2132.04 234.182 L2137.69 234.182 Q2144.84 234.182 2148.15 230.941 Q2151.49 227.701 2151.49 220.71 Q2151.49 213.766 2148.15 210.548 Q2144.84 207.307 2137.69 207.307 L2132.04 207.307 M2127.37 203.465 L2136.97 203.465 Q2147.02 203.465 2151.72 207.654 Q2156.42 211.821 2156.42 220.71 Q2156.42 229.645 2151.7 233.835 Q2146.97 238.025 2136.97 238.025 L2127.37 238.025 L2127.37 203.465 Z" fill="#000000" fill-rule="evenodd" fill-opacity="1" /><path clip-path="url(#clip380)" d="M2175.47 224.992 Q2170.31 224.992 2168.32 226.173 Q2166.33 227.353 2166.33 230.201 Q2166.33 232.469 2167.81 233.812 Q2169.31 235.131 2171.88 235.131 Q2175.42 235.131 2177.55 232.631 Q2179.71 230.108 2179.71 225.941 L2179.71 224.992 L2175.47 224.992 M2183.96 223.233 L2183.96 238.025 L2179.71 238.025 L2179.71 234.089 Q2178.25 236.451 2176.07 237.585 Q2173.9 238.696 2170.75 238.696 Q2166.77 238.696 2164.4 236.474 Q2162.07 234.228 2162.07 230.478 Q2162.07 226.103 2164.98 223.881 Q2167.92 221.659 2173.73 221.659 L2179.71 221.659 L2179.71 221.242 Q2179.71 218.303 2177.76 216.705 Q2175.84 215.085 2172.34 215.085 Q2170.12 215.085 2168.02 215.617 Q2165.91 216.15 2163.97 217.215 L2163.97 213.279 Q2166.3 212.377 2168.5 211.937 Q2170.7 211.474 2172.78 211.474 Q2178.41 211.474 2181.19 214.391 Q2183.96 217.307 2183.96 223.233 Z" fill="#000000" fill-rule="evenodd" fill-opacity="1" /><path clip-path="url(#clip380)" d="M2196.95 204.738 L2196.95 212.099 L2205.72 212.099 L2205.72 215.409 L2196.95 215.409 L2196.95 229.483 Q2196.95 232.654 2197.81 233.557 Q2198.69 234.46 2201.35 234.46 L2205.72 234.46 L2205.72 238.025 L2201.35 238.025 Q2196.42 238.025 2194.54 236.196 Q2192.67 234.344 2192.67 229.483 L2192.67 215.409 L2189.54 215.409 L2189.54 212.099 L2192.67 212.099 L2192.67 204.738 L2196.95 204.738 Z" fill="#000000" fill-rule="evenodd" fill-opacity="1" /><path clip-path="url(#clip380)" d="M2223.11 224.992 Q2217.95 224.992 2215.96 226.173 Q2213.96 227.353 2213.96 230.201 Q2213.96 232.469 2215.45 233.812 Q2216.95 235.131 2219.52 235.131 Q2223.06 235.131 2225.19 232.631 Q2227.34 230.108 2227.34 225.941 L2227.34 224.992 L2223.11 224.992 M2231.6 223.233 L2231.6 238.025 L2227.34 238.025 L2227.34 234.089 Q2225.89 236.451 2223.71 237.585 Q2221.53 238.696 2218.39 238.696 Q2214.4 238.696 2212.04 236.474 Q2209.71 234.228 2209.71 230.478 Q2209.71 226.103 2212.62 223.881 Q2215.56 221.659 2221.37 221.659 L2227.34 221.659 L2227.34 221.242 Q2227.34 218.303 2225.4 216.705 Q2223.48 215.085 2219.98 215.085 Q2217.76 215.085 2215.65 215.617 Q2213.55 216.15 2211.6 217.215 L2211.6 213.279 Q2213.94 212.377 2216.14 211.937 Q2218.34 211.474 2220.42 211.474 Q2226.05 211.474 2228.83 214.391 Q2231.6 217.307 2231.6 223.233 Z" fill="#000000" fill-rule="evenodd" fill-opacity="1" /></svg>
