<?xml version="1.0" encoding="utf-8"?>
<svg xmlns="http://www.w3.org/2000/svg" xmlns:xlink="http://www.w3.org/1999/xlink" width="600" height="400" viewBox="0 0 2400 1600">
<defs>
  <clipPath id="clip150">
    <rect x="0" y="0" width="2400" height="1600"/>
  </clipPath>
</defs>
<path clip-path="url(#clip150)" d="M0 1600 L2400 1600 L2400 0 L0 0  Z" fill="#ffffff" fill-rule="evenodd" fill-opacity="1"/>
<defs>
  <clipPath id="clip151">
    <rect x="199" y="123" width="2154" height="1364"/>
  </clipPath>
</defs>
<path clip-path="url(#clip150)" d="M199.283 1486.45 L2352.76 1486.45 L2352.76 123.472 L199.283 123.472  Z" fill="#ffffff" fill-rule="evenodd" fill-opacity="1"/>
<polyline clip-path="url(#clip151)" style="stroke:#000000; stroke-linecap:round; stroke-linejoin:round; stroke-width:2; stroke-opacity:0.1; fill:none" points="260.231,1486.45 260.231,123.472 "/>
<polyline clip-path="url(#clip151)" style="stroke:#000000; stroke-linecap:round; stroke-linejoin:round; stroke-width:2; stroke-opacity:0.1; fill:none" points="598.827,1486.45 598.827,123.472 "/>
<polyline clip-path="url(#clip151)" style="stroke:#000000; stroke-linecap:round; stroke-linejoin:round; stroke-width:2; stroke-opacity:0.1; fill:none" points="937.423,1486.45 937.423,123.472 "/>
<polyline clip-path="url(#clip151)" style="stroke:#000000; stroke-linecap:round; stroke-linejoin:round; stroke-width:2; stroke-opacity:0.1; fill:none" points="1276.02,1486.45 1276.02,123.472 "/>
<polyline clip-path="url(#clip151)" style="stroke:#000000; stroke-linecap:round; stroke-linejoin:round; stroke-width:2; stroke-opacity:0.1; fill:none" points="1614.62,1486.45 1614.62,123.472 "/>
<polyline clip-path="url(#clip151)" style="stroke:#000000; stroke-linecap:round; stroke-linejoin:round; stroke-width:2; stroke-opacity:0.1; fill:none" points="1953.21,1486.45 1953.21,123.472 "/>
<polyline clip-path="url(#clip151)" style="stroke:#000000; stroke-linecap:round; stroke-linejoin:round; stroke-width:2; stroke-opacity:0.1; fill:none" points="2291.81,1486.45 2291.81,123.472 "/>
<polyline clip-path="url(#clip151)" style="stroke:#000000; stroke-linecap:round; stroke-linejoin:round; stroke-width:2; stroke-opacity:0.1; fill:none" points="199.283,1447.87 2352.76,1447.87 "/>
<polyline clip-path="url(#clip151)" style="stroke:#000000; stroke-linecap:round; stroke-linejoin:round; stroke-width:2; stroke-opacity:0.1; fill:none" points="199.283,1129.6 2352.76,1129.6 "/>
<polyline clip-path="url(#clip151)" style="stroke:#000000; stroke-linecap:round; stroke-linejoin:round; stroke-width:2; stroke-opacity:0.1; fill:none" points="199.283,811.325 2352.76,811.325 "/>
<polyline clip-path="url(#clip151)" style="stroke:#000000; stroke-linecap:round; stroke-linejoin:round; stroke-width:2; stroke-opacity:0.1; fill:none" points="199.283,493.052 2352.76,493.052 "/>
<polyline clip-path="url(#clip151)" style="stroke:#000000; stroke-linecap:round; stroke-linejoin:round; stroke-width:2; stroke-opacity:0.1; fill:none" points="199.283,174.778 2352.76,174.778 "/>
<polyline clip-path="url(#clip150)" style="stroke:#000000; stroke-linecap:round; stroke-linejoin:round; stroke-width:4; stroke-opacity:1; fill:none" points="199.283,1486.45 2352.76,1486.45 "/>
<polyline clip-path="url(#clip150)" style="stroke:#000000; stroke-linecap:round; stroke-linejoin:round; stroke-width:4; stroke-opacity:1; fill:none" points="260.231,1486.45 260.231,1467.55 "/>
<polyline clip-path="url(#clip150)" style="stroke:#000000; stroke-linecap:round; stroke-linejoin:round; stroke-width:4; stroke-opacity:1; fill:none" points="598.827,1486.45 598.827,1467.55 "/>
<polyline clip-path="url(#clip150)" style="stroke:#000000; stroke-linecap:round; stroke-linejoin:round; stroke-width:4; stroke-opacity:1; fill:none" points="937.423,1486.45 937.423,1467.55 "/>
<polyline clip-path="url(#clip150)" style="stroke:#000000; stroke-linecap:round; stroke-linejoin:round; stroke-width:4; stroke-opacity:1; fill:none" points="1276.02,1486.45 1276.02,1467.55 "/>
<polyline clip-path="url(#clip150)" style="stroke:#000000; stroke-linecap:round; stroke-linejoin:round; stroke-width:4; stroke-opacity:1; fill:none" points="1614.62,1486.45 1614.62,1467.55 "/>
<polyline clip-path="url(#clip150)" style="stroke:#000000; stroke-linecap:round; stroke-linejoin:round; stroke-width:4; stroke-opacity:1; fill:none" points="1953.21,1486.45 1953.21,1467.55 "/>
<polyline clip-path="url(#clip150)" style="stroke:#000000; stroke-linecap:round; stroke-linejoin:round; stroke-width:4; stroke-opacity:1; fill:none" points="2291.81,1486.45 2291.81,1467.55 "/>
<path clip-path="url(#clip150)" d="M230.173 1532.02 L259.849 1532.02 L259.849 1535.95 L230.173 1535.95 L230.173 1532.02 Z" fill="#000000" fill-rule="nonzero" fill-opacity="1" /><path clip-path="url(#clip150)" d="M273.969 1544.91 L290.288 1544.91 L290.288 1548.85 L268.344 1548.85 L268.344 1544.91 Q271.006 1542.16 275.589 1537.53 Q280.196 1532.88 281.376 1531.53 Q283.622 1529.01 284.501 1527.27 Q285.404 1525.51 285.404 1523.82 Q285.404 1521.07 283.46 1519.33 Q281.538 1517.6 278.436 1517.6 Q276.237 1517.6 273.784 1518.36 Q271.353 1519.13 268.575 1520.68 L268.575 1515.95 Q271.399 1514.82 273.853 1514.24 Q276.307 1513.66 278.344 1513.66 Q283.714 1513.66 286.909 1516.35 Q290.103 1519.03 290.103 1523.52 Q290.103 1525.65 289.293 1527.57 Q288.506 1529.47 286.399 1532.07 Q285.821 1532.74 282.719 1535.95 Q279.617 1539.15 273.969 1544.91 Z" fill="#000000" fill-rule="nonzero" fill-opacity="1" /><path clip-path="url(#clip150)" d="M568.584 1532.02 L598.26 1532.02 L598.26 1535.95 L568.584 1535.95 L568.584 1532.02 Z" fill="#000000" fill-rule="nonzero" fill-opacity="1" /><path clip-path="url(#clip150)" d="M609.162 1544.91 L616.801 1544.91 L616.801 1518.55 L608.491 1520.21 L608.491 1515.95 L616.755 1514.29 L621.431 1514.29 L621.431 1544.91 L629.07 1544.91 L629.07 1548.85 L609.162 1548.85 L609.162 1544.91 Z" fill="#000000" fill-rule="nonzero" fill-opacity="1" /><path clip-path="url(#clip150)" d="M937.423 1517.37 Q933.812 1517.37 931.983 1520.93 Q930.178 1524.47 930.178 1531.6 Q930.178 1538.71 931.983 1542.27 Q933.812 1545.82 937.423 1545.82 Q941.057 1545.82 942.863 1542.27 Q944.692 1538.71 944.692 1531.6 Q944.692 1524.47 942.863 1520.93 Q941.057 1517.37 937.423 1517.37 M937.423 1513.66 Q943.233 1513.66 946.289 1518.27 Q949.368 1522.85 949.368 1531.6 Q949.368 1540.33 946.289 1544.94 Q943.233 1549.52 937.423 1549.52 Q931.613 1549.52 928.534 1544.94 Q925.479 1540.33 925.479 1531.6 Q925.479 1522.85 928.534 1518.27 Q931.613 1513.66 937.423 1513.66 Z" fill="#000000" fill-rule="nonzero" fill-opacity="1" /><path clip-path="url(#clip150)" d="M1266.4 1544.91 L1274.04 1544.91 L1274.04 1518.55 L1265.73 1520.21 L1265.73 1515.95 L1273.99 1514.29 L1278.67 1514.29 L1278.67 1544.91 L1286.31 1544.91 L1286.31 1548.85 L1266.4 1548.85 L1266.4 1544.91 Z" fill="#000000" fill-rule="nonzero" fill-opacity="1" /><path clip-path="url(#clip150)" d="M1609.27 1544.91 L1625.59 1544.91 L1625.59 1548.85 L1603.64 1548.85 L1603.64 1544.91 Q1606.31 1542.16 1610.89 1537.53 Q1615.5 1532.88 1616.68 1531.53 Q1618.92 1529.01 1619.8 1527.27 Q1620.7 1525.51 1620.7 1523.82 Q1620.7 1521.07 1618.76 1519.33 Q1616.84 1517.6 1613.74 1517.6 Q1611.54 1517.6 1609.08 1518.36 Q1606.65 1519.13 1603.88 1520.68 L1603.88 1515.95 Q1606.7 1514.82 1609.15 1514.24 Q1611.61 1513.66 1613.64 1513.66 Q1619.01 1513.66 1622.21 1516.35 Q1625.4 1519.03 1625.4 1523.52 Q1625.4 1525.65 1624.59 1527.57 Q1623.81 1529.47 1621.7 1532.07 Q1621.12 1532.74 1618.02 1535.95 Q1614.92 1539.15 1609.27 1544.91 Z" fill="#000000" fill-rule="nonzero" fill-opacity="1" /><path clip-path="url(#clip150)" d="M1957.46 1530.21 Q1960.82 1530.93 1962.69 1533.2 Q1964.59 1535.47 1964.59 1538.8 Q1964.59 1543.92 1961.07 1546.72 Q1957.55 1549.52 1951.07 1549.52 Q1948.9 1549.52 1946.58 1549.08 Q1944.29 1548.66 1941.83 1547.81 L1941.83 1543.29 Q1943.78 1544.43 1946.09 1545.01 Q1948.41 1545.58 1950.93 1545.58 Q1955.33 1545.58 1957.62 1543.85 Q1959.94 1542.11 1959.94 1538.8 Q1959.94 1535.75 1957.78 1534.03 Q1955.65 1532.3 1951.83 1532.3 L1947.81 1532.3 L1947.81 1528.45 L1952.02 1528.45 Q1955.47 1528.45 1957.3 1527.09 Q1959.13 1525.7 1959.13 1523.11 Q1959.13 1520.45 1957.23 1519.03 Q1955.35 1517.6 1951.83 1517.6 Q1949.91 1517.6 1947.71 1518.01 Q1945.52 1518.43 1942.88 1519.31 L1942.88 1515.14 Q1945.54 1514.4 1947.85 1514.03 Q1950.19 1513.66 1952.25 1513.66 Q1957.58 1513.66 1960.68 1516.09 Q1963.78 1518.5 1963.78 1522.62 Q1963.78 1525.49 1962.14 1527.48 Q1960.49 1529.45 1957.46 1530.21 Z" fill="#000000" fill-rule="nonzero" fill-opacity="1" /><path clip-path="url(#clip150)" d="M2294.82 1518.36 L2283.01 1536.81 L2294.82 1536.81 L2294.82 1518.36 M2293.59 1514.29 L2299.47 1514.29 L2299.47 1536.81 L2304.4 1536.81 L2304.4 1540.7 L2299.47 1540.7 L2299.47 1548.85 L2294.82 1548.85 L2294.82 1540.7 L2279.22 1540.7 L2279.22 1536.19 L2293.59 1514.29 Z" fill="#000000" fill-rule="nonzero" fill-opacity="1" /><polyline clip-path="url(#clip150)" style="stroke:#000000; stroke-linecap:round; stroke-linejoin:round; stroke-width:4; stroke-opacity:1; fill:none" points="199.283,1486.45 199.283,123.472 "/>
<polyline clip-path="url(#clip150)" style="stroke:#000000; stroke-linecap:round; stroke-linejoin:round; stroke-width:4; stroke-opacity:1; fill:none" points="199.283,1447.87 218.181,1447.87 "/>
<polyline clip-path="url(#clip150)" style="stroke:#000000; stroke-linecap:round; stroke-linejoin:round; stroke-width:4; stroke-opacity:1; fill:none" points="199.283,1129.6 218.181,1129.6 "/>
<polyline clip-path="url(#clip150)" style="stroke:#000000; stroke-linecap:round; stroke-linejoin:round; stroke-width:4; stroke-opacity:1; fill:none" points="199.283,811.325 218.181,811.325 "/>
<polyline clip-path="url(#clip150)" style="stroke:#000000; stroke-linecap:round; stroke-linejoin:round; stroke-width:4; stroke-opacity:1; fill:none" points="199.283,493.052 218.181,493.052 "/>
<polyline clip-path="url(#clip150)" style="stroke:#000000; stroke-linecap:round; stroke-linejoin:round; stroke-width:4; stroke-opacity:1; fill:none" points="199.283,174.778 218.181,174.778 "/>
<path clip-path="url(#clip150)" d="M151.339 1433.67 Q147.728 1433.67 145.899 1437.24 Q144.093 1440.78 144.093 1447.91 Q144.093 1455.01 145.899 1458.58 Q147.728 1462.12 151.339 1462.12 Q154.973 1462.12 156.779 1458.58 Q158.607 1455.01 158.607 1447.91 Q158.607 1440.78 156.779 1437.24 Q154.973 1433.67 151.339 1433.67 M151.339 1429.97 Q157.149 1429.97 160.205 1434.57 Q163.283 1439.16 163.283 1447.91 Q163.283 1456.63 160.205 1461.24 Q157.149 1465.82 151.339 1465.82 Q145.529 1465.82 142.45 1461.24 Q139.394 1456.63 139.394 1447.91 Q139.394 1439.16 142.45 1434.57 Q145.529 1429.97 151.339 1429.97 Z" fill="#000000" fill-rule="nonzero" fill-opacity="1" /><path clip-path="url(#clip150)" d="M85.0429 1142.94 L101.362 1142.94 L101.362 1146.88 L79.4179 1146.88 L79.4179 1142.94 Q82.0799 1140.19 86.6632 1135.56 Q91.2697 1130.91 92.4502 1129.56 Q94.6956 1127.04 95.5752 1125.31 Q96.478 1123.55 96.478 1121.86 Q96.478 1119.1 94.5336 1117.37 Q92.6123 1115.63 89.5104 1115.63 Q87.3114 1115.63 84.8577 1116.39 Q82.4271 1117.16 79.6494 1118.71 L79.6494 1113.99 Q82.4734 1112.85 84.9271 1112.27 Q87.3808 1111.69 89.4178 1111.69 Q94.7882 1111.69 97.9826 1114.38 Q101.177 1117.06 101.177 1121.56 Q101.177 1123.68 100.367 1125.61 Q99.5798 1127.5 97.4734 1130.1 Q96.8947 1130.77 93.7928 1133.99 Q90.691 1137.18 85.0429 1142.94 Z" fill="#000000" fill-rule="nonzero" fill-opacity="1" /><path clip-path="url(#clip150)" d="M111.223 1112.32 L129.58 1112.32 L129.58 1116.25 L115.506 1116.25 L115.506 1124.73 Q116.524 1124.38 117.543 1124.22 Q118.561 1124.03 119.58 1124.03 Q125.367 1124.03 128.746 1127.2 Q132.126 1130.37 132.126 1135.79 Q132.126 1141.37 128.654 1144.47 Q125.182 1147.55 118.862 1147.55 Q116.686 1147.55 114.418 1147.18 Q112.172 1146.81 109.765 1146.07 L109.765 1141.37 Q111.848 1142.5 114.07 1143.06 Q116.293 1143.62 118.77 1143.62 Q122.774 1143.62 125.112 1141.51 Q127.45 1139.4 127.45 1135.79 Q127.45 1132.18 125.112 1130.07 Q122.774 1127.97 118.77 1127.97 Q116.895 1127.97 115.02 1128.38 Q113.168 1128.8 111.223 1129.68 L111.223 1112.32 Z" fill="#000000" fill-rule="nonzero" fill-opacity="1" /><path clip-path="url(#clip150)" d="M151.339 1115.4 Q147.728 1115.4 145.899 1118.96 Q144.093 1122.5 144.093 1129.63 Q144.093 1136.74 145.899 1140.31 Q147.728 1143.85 151.339 1143.85 Q154.973 1143.85 156.779 1140.31 Q158.607 1136.74 158.607 1129.63 Q158.607 1122.5 156.779 1118.96 Q154.973 1115.4 151.339 1115.4 M151.339 1111.69 Q157.149 1111.69 160.205 1116.3 Q163.283 1120.88 163.283 1129.63 Q163.283 1138.36 160.205 1142.97 Q157.149 1147.55 151.339 1147.55 Q145.529 1147.55 142.45 1142.97 Q139.394 1138.36 139.394 1129.63 Q139.394 1120.88 142.45 1116.3 Q145.529 1111.69 151.339 1111.69 Z" fill="#000000" fill-rule="nonzero" fill-opacity="1" /><path clip-path="url(#clip150)" d="M81.0614 794.045 L99.4178 794.045 L99.4178 797.981 L85.3438 797.981 L85.3438 806.453 Q86.3623 806.106 87.3808 805.944 Q88.3993 805.758 89.4178 805.758 Q95.2049 805.758 98.5845 808.93 Q101.964 812.101 101.964 817.518 Q101.964 823.096 98.4919 826.198 Q95.0197 829.277 88.7003 829.277 Q86.5243 829.277 84.2558 828.906 Q82.0105 828.536 79.6031 827.795 L79.6031 823.096 Q81.6864 824.23 83.9086 824.786 Q86.1308 825.342 88.6077 825.342 Q92.6123 825.342 94.9502 823.235 Q97.2882 821.129 97.2882 817.518 Q97.2882 813.906 94.9502 811.8 Q92.6123 809.694 88.6077 809.694 Q86.7327 809.694 84.8577 810.11 Q83.0058 810.527 81.0614 811.406 L81.0614 794.045 Z" fill="#000000" fill-rule="nonzero" fill-opacity="1" /><path clip-path="url(#clip150)" d="M121.177 797.124 Q117.566 797.124 115.737 800.689 Q113.932 804.231 113.932 811.36 Q113.932 818.467 115.737 822.031 Q117.566 825.573 121.177 825.573 Q124.811 825.573 126.617 822.031 Q128.445 818.467 128.445 811.36 Q128.445 804.231 126.617 800.689 Q124.811 797.124 121.177 797.124 M121.177 793.42 Q126.987 793.42 130.043 798.027 Q133.121 802.61 133.121 811.36 Q133.121 820.087 130.043 824.693 Q126.987 829.277 121.177 829.277 Q115.367 829.277 112.288 824.693 Q109.233 820.087 109.233 811.36 Q109.233 802.61 112.288 798.027 Q115.367 793.42 121.177 793.42 Z" fill="#000000" fill-rule="nonzero" fill-opacity="1" /><path clip-path="url(#clip150)" d="M151.339 797.124 Q147.728 797.124 145.899 800.689 Q144.093 804.231 144.093 811.36 Q144.093 818.467 145.899 822.031 Q147.728 825.573 151.339 825.573 Q154.973 825.573 156.779 822.031 Q158.607 818.467 158.607 811.36 Q158.607 804.231 156.779 800.689 Q154.973 797.124 151.339 797.124 M151.339 793.42 Q157.149 793.42 160.205 798.027 Q163.283 802.61 163.283 811.36 Q163.283 820.087 160.205 824.693 Q157.149 829.277 151.339 829.277 Q145.529 829.277 142.45 824.693 Q139.394 820.087 139.394 811.36 Q139.394 802.61 142.45 798.027 Q145.529 793.42 151.339 793.42 Z" fill="#000000" fill-rule="nonzero" fill-opacity="1" /><path clip-path="url(#clip150)" d="M79.8346 475.772 L102.057 475.772 L102.057 477.762 L89.5104 510.332 L84.6262 510.332 L96.4317 479.707 L79.8346 479.707 L79.8346 475.772 Z" fill="#000000" fill-rule="nonzero" fill-opacity="1" /><path clip-path="url(#clip150)" d="M111.223 475.772 L129.58 475.772 L129.58 479.707 L115.506 479.707 L115.506 488.179 Q116.524 487.832 117.543 487.67 Q118.561 487.485 119.58 487.485 Q125.367 487.485 128.746 490.656 Q132.126 493.827 132.126 499.244 Q132.126 504.822 128.654 507.924 Q125.182 511.003 118.862 511.003 Q116.686 511.003 114.418 510.633 Q112.172 510.262 109.765 509.521 L109.765 504.822 Q111.848 505.957 114.07 506.512 Q116.293 507.068 118.77 507.068 Q122.774 507.068 125.112 504.961 Q127.45 502.855 127.45 499.244 Q127.45 495.633 125.112 493.526 Q122.774 491.42 118.77 491.42 Q116.895 491.42 115.02 491.836 Q113.168 492.253 111.223 493.133 L111.223 475.772 Z" fill="#000000" fill-rule="nonzero" fill-opacity="1" /><path clip-path="url(#clip150)" d="M151.339 478.85 Q147.728 478.85 145.899 482.415 Q144.093 485.957 144.093 493.086 Q144.093 500.193 145.899 503.758 Q147.728 507.299 151.339 507.299 Q154.973 507.299 156.779 503.758 Q158.607 500.193 158.607 493.086 Q158.607 485.957 156.779 482.415 Q154.973 478.85 151.339 478.85 M151.339 475.147 Q157.149 475.147 160.205 479.753 Q163.283 484.336 163.283 493.086 Q163.283 501.813 160.205 506.42 Q157.149 511.003 151.339 511.003 Q145.529 511.003 142.45 506.42 Q139.394 501.813 139.394 493.086 Q139.394 484.336 142.45 479.753 Q145.529 475.147 151.339 475.147 Z" fill="#000000" fill-rule="nonzero" fill-opacity="1" /><path clip-path="url(#clip150)" d="M51.6634 188.123 L59.3023 188.123 L59.3023 161.757 L50.9921 163.424 L50.9921 159.165 L59.256 157.498 L63.9319 157.498 L63.9319 188.123 L71.5707 188.123 L71.5707 192.058 L51.6634 192.058 L51.6634 188.123 Z" fill="#000000" fill-rule="nonzero" fill-opacity="1" /><path clip-path="url(#clip150)" d="M91.0151 160.577 Q87.404 160.577 85.5753 164.141 Q83.7697 167.683 83.7697 174.813 Q83.7697 181.919 85.5753 185.484 Q87.404 189.025 91.0151 189.025 Q94.6493 189.025 96.4548 185.484 Q98.2835 181.919 98.2835 174.813 Q98.2835 167.683 96.4548 164.141 Q94.6493 160.577 91.0151 160.577 M91.0151 156.873 Q96.8252 156.873 99.8808 161.479 Q102.959 166.063 102.959 174.813 Q102.959 183.539 99.8808 188.146 Q96.8252 192.729 91.0151 192.729 Q85.2049 192.729 82.1262 188.146 Q79.0707 183.539 79.0707 174.813 Q79.0707 166.063 82.1262 161.479 Q85.2049 156.873 91.0151 156.873 Z" fill="#000000" fill-rule="nonzero" fill-opacity="1" /><path clip-path="url(#clip150)" d="M121.177 160.577 Q117.566 160.577 115.737 164.141 Q113.932 167.683 113.932 174.813 Q113.932 181.919 115.737 185.484 Q117.566 189.025 121.177 189.025 Q124.811 189.025 126.617 185.484 Q128.445 181.919 128.445 174.813 Q128.445 167.683 126.617 164.141 Q124.811 160.577 121.177 160.577 M121.177 156.873 Q126.987 156.873 130.043 161.479 Q133.121 166.063 133.121 174.813 Q133.121 183.539 130.043 188.146 Q126.987 192.729 121.177 192.729 Q115.367 192.729 112.288 188.146 Q109.233 183.539 109.233 174.813 Q109.233 166.063 112.288 161.479 Q115.367 156.873 121.177 156.873 Z" fill="#000000" fill-rule="nonzero" fill-opacity="1" /><path clip-path="url(#clip150)" d="M151.339 160.577 Q147.728 160.577 145.899 164.141 Q144.093 167.683 144.093 174.813 Q144.093 181.919 145.899 185.484 Q147.728 189.025 151.339 189.025 Q154.973 189.025 156.779 185.484 Q158.607 181.919 158.607 174.813 Q158.607 167.683 156.779 164.141 Q154.973 160.577 151.339 160.577 M151.339 156.873 Q157.149 156.873 160.205 161.479 Q163.283 166.063 163.283 174.813 Q163.283 183.539 160.205 188.146 Q157.149 192.729 151.339 192.729 Q145.529 192.729 142.45 188.146 Q139.394 183.539 139.394 174.813 Q139.394 166.063 142.45 161.479 Q145.529 156.873 151.339 156.873 Z" fill="#000000" fill-rule="nonzero" fill-opacity="1" /><path clip-path="url(#clip150)" d="M1193 18.8205 L1193 65.8515 L1202.88 65.8515 Q1215.4 65.8515 1221.19 60.1802 Q1227.02 54.509 1227.02 42.2752 Q1227.02 30.1225 1221.19 24.4918 Q1215.4 18.8205 1202.88 18.8205 L1193 18.8205 M1184.81 12.096 L1201.62 12.096 Q1219.21 12.096 1227.43 19.4281 Q1235.65 26.7198 1235.65 42.2752 Q1235.65 57.9117 1227.39 65.2439 Q1219.12 72.576 1201.62 72.576 L1184.81 72.576 L1184.81 12.096 Z" fill="#000000" fill-rule="nonzero" fill-opacity="1" /><path clip-path="url(#clip150)" d="M1268.99 49.7694 Q1259.96 49.7694 1256.47 51.8354 Q1252.99 53.9013 1252.99 58.8839 Q1252.99 62.8538 1255.58 65.2034 Q1258.22 67.5124 1262.71 67.5124 Q1268.91 67.5124 1272.64 63.1374 Q1276.4 58.7219 1276.4 51.4303 L1276.4 49.7694 L1268.99 49.7694 M1283.86 46.6907 L1283.86 72.576 L1276.4 72.576 L1276.4 65.6895 Q1273.85 69.8214 1270.04 71.8063 Q1266.24 73.7508 1260.73 73.7508 Q1253.76 73.7508 1249.63 69.8619 Q1245.54 65.9325 1245.54 59.3701 Q1245.54 51.7138 1250.64 47.825 Q1255.79 43.9361 1265.95 43.9361 L1276.4 43.9361 L1276.4 43.2069 Q1276.4 38.0623 1273 35.2672 Q1269.64 32.4315 1263.52 32.4315 Q1259.63 32.4315 1255.95 33.3632 Q1252.26 34.295 1248.86 36.1584 L1248.86 29.2718 Q1252.95 27.692 1256.8 26.9223 Q1260.65 26.1121 1264.29 26.1121 Q1274.14 26.1121 1279 31.2163 Q1283.86 36.3204 1283.86 46.6907 Z" fill="#000000" fill-rule="nonzero" fill-opacity="1" /><path clip-path="url(#clip150)" d="M1306.58 14.324 L1306.58 27.2059 L1321.94 27.2059 L1321.94 32.9987 L1306.58 32.9987 L1306.58 57.6282 Q1306.58 63.1779 1308.08 64.7578 Q1309.62 66.3376 1314.28 66.3376 L1321.94 66.3376 L1321.94 72.576 L1314.28 72.576 Q1305.65 72.576 1302.37 69.3758 Q1299.09 66.1351 1299.09 57.6282 L1299.09 32.9987 L1293.62 32.9987 L1293.62 27.2059 L1299.09 27.2059 L1299.09 14.324 L1306.58 14.324 Z" fill="#000000" fill-rule="nonzero" fill-opacity="1" /><path clip-path="url(#clip150)" d="M1352.36 49.7694 Q1343.33 49.7694 1339.84 51.8354 Q1336.36 53.9013 1336.36 58.8839 Q1336.36 62.8538 1338.95 65.2034 Q1341.58 67.5124 1346.08 67.5124 Q1352.28 67.5124 1356 63.1374 Q1359.77 58.7219 1359.77 51.4303 L1359.77 49.7694 L1352.36 49.7694 M1367.23 46.6907 L1367.23 72.576 L1359.77 72.576 L1359.77 65.6895 Q1357.22 69.8214 1353.41 71.8063 Q1349.6 73.7508 1344.09 73.7508 Q1337.13 73.7508 1333 69.8619 Q1328.9 65.9325 1328.9 59.3701 Q1328.9 51.7138 1334.01 47.825 Q1339.15 43.9361 1349.32 43.9361 L1359.77 43.9361 L1359.77 43.2069 Q1359.77 38.0623 1356.37 35.2672 Q1353.01 32.4315 1346.89 32.4315 Q1343 32.4315 1339.31 33.3632 Q1335.63 34.295 1332.23 36.1584 L1332.23 29.2718 Q1336.32 27.692 1340.17 26.9223 Q1344.01 26.1121 1347.66 26.1121 Q1357.5 26.1121 1362.36 31.2163 Q1367.23 36.3204 1367.23 46.6907 Z" fill="#000000" fill-rule="nonzero" fill-opacity="1" /><polyline clip-path="url(#clip151)" style="stroke:#009af9; stroke-linecap:round; stroke-linejoin:round; stroke-width:4; stroke-opacity:1; fill:none" points="260.231,1447.87 260.231,1346.03 294.09,1346.03 294.09,1371.49 327.95,1371.49 327.95,1333.29 361.809,1333.29 361.809,1205.98 395.669,1205.98 395.669,1244.18 429.529,1244.18 429.529,1116.87 463.388,1116.87 463.388,964.097 497.248,964.097 497.248,976.828 531.108,976.828 531.108,836.787 564.967,836.787 598.827,836.787 598.827,1027.75 632.687,1027.75 632.687,913.173 666.546,913.173 666.546,1002.29 700.406,1002.29 700.406,1078.68 734.265,1078.68 734.265,1142.33 768.125,1142.33 768.125,1078.68 801.985,1078.68 801.985,1282.37 835.844,1282.37 835.844,1320.56 869.704,1320.56 869.704,1422.41 903.564,1422.41 903.564,1396.95 937.423,1396.95 937.423,1384.22 971.283,1384.22 971.283,1358.76 1005.14,1358.76 1005.14,1435.14 1039,1435.14 1072.86,1435.14 1106.72,1435.14 1140.58,1435.14 1140.58,1409.68 1174.44,1409.68 1174.44,1422.41 1208.3,1422.41 1208.3,1346.03 1242.16,1346.03 1242.16,1333.29 1276.02,1333.29 1276.02,1256.91 1309.88,1256.91 1309.88,1155.06 1343.74,1155.06 1343.74,1129.6 1377.6,1129.6 1377.6,1065.94 1411.46,1065.94 1411.46,849.518 1445.32,849.518 1445.32,760.402 1479.18,760.402 1479.18,633.092 1513.04,633.092 1513.04,518.514 1546.9,518.514 1580.76,518.514 1580.76,467.59 1614.62,467.59 1614.62,582.168 1648.48,582.168 1648.48,162.047 1682.34,162.047 1682.34,365.742 1716.19,365.742 1716.19,722.209 1750.05,722.209 1750.05,874.98 1783.91,874.98 1783.91,976.828 1817.77,976.828 1817.77,1180.52 1851.63,1180.52 1851.63,1104.14 1885.49,1104.14 1885.49,1269.64 1919.35,1269.64 1919.35,1256.91 1953.21,1256.91 1953.21,1295.1 1987.07,1295.1 1987.07,1384.22 2020.93,1384.22 2020.93,1422.41 2054.79,1422.41 2054.79,1409.68 2088.65,1409.68 2088.65,1422.41 2122.51,1422.41 2122.51,1447.87 2156.37,1447.87 2190.23,1447.87 2224.09,1447.87 2257.95,1447.87 2291.81,1447.87 "/>
<path clip-path="url(#clip150)" d="M1961.39 272.585 L2280.97 272.585 L2280.97 168.905 L1961.39 168.905  Z" fill="#ffffff" fill-rule="evenodd" fill-opacity="1"/>
<polyline clip-path="url(#clip150)" style="stroke:#000000; stroke-linecap:round; stroke-linejoin:round; stroke-width:4; stroke-opacity:1; fill:none" points="1961.39,272.585 2280.97,272.585 2280.97,168.905 1961.39,168.905 1961.39,272.585 "/>
<polyline clip-path="url(#clip150)" style="stroke:#009af9; stroke-linecap:round; stroke-linejoin:round; stroke-width:4; stroke-opacity:1; fill:none" points="1985.32,220.745 2128.88,220.745 "/>
<path clip-path="url(#clip150)" d="M2157.49 207.307 L2157.49 234.182 L2163.13 234.182 Q2170.29 234.182 2173.6 230.941 Q2176.93 227.701 2176.93 220.71 Q2176.93 213.766 2173.6 210.548 Q2170.29 207.307 2163.13 207.307 L2157.49 207.307 M2152.81 203.465 L2162.42 203.465 Q2172.46 203.465 2177.16 207.654 Q2181.86 211.821 2181.86 220.71 Q2181.86 229.645 2177.14 233.835 Q2172.42 238.025 2162.42 238.025 L2152.81 238.025 L2152.81 203.465 Z" fill="#000000" fill-rule="nonzero" fill-opacity="1" /><path clip-path="url(#clip150)" d="M2200.91 224.992 Q2195.75 224.992 2193.76 226.173 Q2191.77 227.353 2191.77 230.201 Q2191.77 232.469 2193.25 233.812 Q2194.75 235.131 2197.32 235.131 Q2200.87 235.131 2203 232.631 Q2205.15 230.108 2205.15 225.941 L2205.15 224.992 L2200.91 224.992 M2209.41 223.233 L2209.41 238.025 L2205.15 238.025 L2205.15 234.089 Q2203.69 236.451 2201.51 237.585 Q2199.34 238.696 2196.19 238.696 Q2192.21 238.696 2189.85 236.474 Q2187.51 234.228 2187.51 230.478 Q2187.51 226.103 2190.43 223.881 Q2193.37 221.659 2199.18 221.659 L2205.15 221.659 L2205.15 221.242 Q2205.15 218.303 2203.2 216.705 Q2201.28 215.085 2197.79 215.085 Q2195.56 215.085 2193.46 215.617 Q2191.35 216.15 2189.41 217.215 L2189.41 213.279 Q2191.75 212.377 2193.94 211.937 Q2196.14 211.474 2198.23 211.474 Q2203.85 211.474 2206.63 214.391 Q2209.41 217.307 2209.41 223.233 Z" fill="#000000" fill-rule="nonzero" fill-opacity="1" /><path clip-path="url(#clip150)" d="M2222.39 204.738 L2222.39 212.099 L2231.17 212.099 L2231.17 215.409 L2222.39 215.409 L2222.39 229.483 Q2222.39 232.654 2223.25 233.557 Q2224.13 234.46 2226.79 234.46 L2231.17 234.46 L2231.17 238.025 L2226.79 238.025 Q2221.86 238.025 2219.99 236.196 Q2218.11 234.344 2218.11 229.483 L2218.11 215.409 L2214.99 215.409 L2214.99 212.099 L2218.11 212.099 L2218.11 204.738 L2222.39 204.738 Z" fill="#000000" fill-rule="nonzero" fill-opacity="1" /><path clip-path="url(#clip150)" d="M2248.55 224.992 Q2243.39 224.992 2241.4 226.173 Q2239.41 227.353 2239.41 230.201 Q2239.41 232.469 2240.89 233.812 Q2242.39 235.131 2244.96 235.131 Q2248.5 235.131 2250.63 232.631 Q2252.79 230.108 2252.79 225.941 L2252.79 224.992 L2248.55 224.992 M2257.05 223.233 L2257.05 238.025 L2252.79 238.025 L2252.79 234.089 Q2251.33 236.451 2249.15 237.585 Q2246.98 238.696 2243.83 238.696 Q2239.85 238.696 2237.49 236.474 Q2235.15 234.228 2235.15 230.478 Q2235.15 226.103 2238.06 223.881 Q2241 221.659 2246.81 221.659 L2252.79 221.659 L2252.79 221.242 Q2252.79 218.303 2250.84 216.705 Q2248.92 215.085 2245.43 215.085 Q2243.2 215.085 2241.1 215.617 Q2238.99 216.15 2237.05 217.215 L2237.05 213.279 Q2239.38 212.377 2241.58 211.937 Q2243.78 211.474 2245.87 211.474 Q2251.49 211.474 2254.27 214.391 Q2257.05 217.307 2257.05 223.233 Z" fill="#000000" fill-rule="nonzero" fill-opacity="1" /></svg>
