<?xml version="1.0" encoding="utf-8"?>
<svg xmlns="http://www.w3.org/2000/svg" xmlns:xlink="http://www.w3.org/1999/xlink" width="600" height="400" viewBox="0 0 2400 1600">
<defs>
  <clipPath id="clip180">
    <rect x="0" y="0" width="2400" height="1600"/>
  </clipPath>
</defs>
<path clip-path="url(#clip180)" d="M0 1600 L2400 1600 L2400 0 L0 0  Z" fill="#ffffff" fill-rule="evenodd" fill-opacity="1"/>
<defs>
  <clipPath id="clip181">
    <rect x="199" y="123" width="2154" height="1364"/>
  </clipPath>
</defs>
<path clip-path="url(#clip180)" d="M199.283 1486.45 L2352.76 1486.45 L2352.76 123.472 L199.283 123.472  Z" fill="#ffffff" fill-rule="evenodd" fill-opacity="1"/>
<polyline clip-path="url(#clip181)" style="stroke:#000000; stroke-linecap:round; stroke-linejoin:round; stroke-width:2; stroke-opacity:0.1; fill:none" points="260.231,1486.45 260.231,123.472 "/>
<polyline clip-path="url(#clip181)" style="stroke:#000000; stroke-linecap:round; stroke-linejoin:round; stroke-width:2; stroke-opacity:0.1; fill:none" points="768.125,1486.45 768.125,123.472 "/>
<polyline clip-path="url(#clip181)" style="stroke:#000000; stroke-linecap:round; stroke-linejoin:round; stroke-width:2; stroke-opacity:0.1; fill:none" points="1276.02,1486.45 1276.02,123.472 "/>
<polyline clip-path="url(#clip181)" style="stroke:#000000; stroke-linecap:round; stroke-linejoin:round; stroke-width:2; stroke-opacity:0.1; fill:none" points="1783.91,1486.45 1783.91,123.472 "/>
<polyline clip-path="url(#clip181)" style="stroke:#000000; stroke-linecap:round; stroke-linejoin:round; stroke-width:2; stroke-opacity:0.1; fill:none" points="2291.81,1486.45 2291.81,123.472 "/>
<polyline clip-path="url(#clip181)" style="stroke:#000000; stroke-linecap:round; stroke-linejoin:round; stroke-width:2; stroke-opacity:0.1; fill:none" points="199.283,1447.87 2352.76,1447.87 "/>
<polyline clip-path="url(#clip181)" style="stroke:#000000; stroke-linecap:round; stroke-linejoin:round; stroke-width:2; stroke-opacity:0.1; fill:none" points="199.283,1129.6 2352.76,1129.6 "/>
<polyline clip-path="url(#clip181)" style="stroke:#000000; stroke-linecap:round; stroke-linejoin:round; stroke-width:2; stroke-opacity:0.1; fill:none" points="199.283,811.325 2352.76,811.325 "/>
<polyline clip-path="url(#clip181)" style="stroke:#000000; stroke-linecap:round; stroke-linejoin:round; stroke-width:2; stroke-opacity:0.1; fill:none" points="199.283,493.052 2352.76,493.052 "/>
<polyline clip-path="url(#clip181)" style="stroke:#000000; stroke-linecap:round; stroke-linejoin:round; stroke-width:2; stroke-opacity:0.1; fill:none" points="199.283,174.778 2352.76,174.778 "/>
<polyline clip-path="url(#clip180)" style="stroke:#000000; stroke-linecap:round; stroke-linejoin:round; stroke-width:4; stroke-opacity:1; fill:none" points="199.283,1486.45 2352.76,1486.45 "/>
<polyline clip-path="url(#clip180)" style="stroke:#000000; stroke-linecap:round; stroke-linejoin:round; stroke-width:4; stroke-opacity:1; fill:none" points="260.231,1486.45 260.231,1467.55 "/>
<polyline clip-path="url(#clip180)" style="stroke:#000000; stroke-linecap:round; stroke-linejoin:round; stroke-width:4; stroke-opacity:1; fill:none" points="768.125,1486.45 768.125,1467.55 "/>
<polyline clip-path="url(#clip180)" style="stroke:#000000; stroke-linecap:round; stroke-linejoin:round; stroke-width:4; stroke-opacity:1; fill:none" points="1276.02,1486.45 1276.02,1467.55 "/>
<polyline clip-path="url(#clip180)" style="stroke:#000000; stroke-linecap:round; stroke-linejoin:round; stroke-width:4; stroke-opacity:1; fill:none" points="1783.91,1486.45 1783.91,1467.55 "/>
<polyline clip-path="url(#clip180)" style="stroke:#000000; stroke-linecap:round; stroke-linejoin:round; stroke-width:4; stroke-opacity:1; fill:none" points="2291.81,1486.45 2291.81,1467.55 "/>
<path clip-path="url(#clip180)" d="M229.131 1532.02 L258.807 1532.02 L258.807 1535.95 L229.131 1535.95 L229.131 1532.02 Z" fill="#000000" fill-rule="nonzero" fill-opacity="1" /><path clip-path="url(#clip180)" d="M281.747 1518.36 L269.941 1536.81 L281.747 1536.81 L281.747 1518.36 M280.52 1514.29 L286.399 1514.29 L286.399 1536.81 L291.33 1536.81 L291.33 1540.7 L286.399 1540.7 L286.399 1548.85 L281.747 1548.85 L281.747 1540.7 L266.145 1540.7 L266.145 1536.19 L280.52 1514.29 Z" fill="#000000" fill-rule="nonzero" fill-opacity="1" /><path clip-path="url(#clip180)" d="M738.067 1532.02 L767.743 1532.02 L767.743 1535.95 L738.067 1535.95 L738.067 1532.02 Z" fill="#000000" fill-rule="nonzero" fill-opacity="1" /><path clip-path="url(#clip180)" d="M781.863 1544.91 L798.183 1544.91 L798.183 1548.85 L776.238 1548.85 L776.238 1544.91 Q778.9 1542.16 783.484 1537.53 Q788.09 1532.88 789.271 1531.53 Q791.516 1529.01 792.396 1527.27 Q793.299 1525.51 793.299 1523.82 Q793.299 1521.07 791.354 1519.33 Q789.433 1517.6 786.331 1517.6 Q784.132 1517.6 781.678 1518.36 Q779.248 1519.13 776.47 1520.68 L776.47 1515.95 Q779.294 1514.82 781.748 1514.24 Q784.201 1513.66 786.238 1513.66 Q791.609 1513.66 794.803 1516.35 Q797.998 1519.03 797.998 1523.52 Q797.998 1525.65 797.187 1527.57 Q796.4 1529.47 794.294 1532.07 Q793.715 1532.74 790.613 1535.95 Q787.512 1539.15 781.863 1544.91 Z" fill="#000000" fill-rule="nonzero" fill-opacity="1" /><path clip-path="url(#clip180)" d="M1276.02 1517.37 Q1272.41 1517.37 1270.58 1520.93 Q1268.77 1524.47 1268.77 1531.6 Q1268.77 1538.71 1270.58 1542.27 Q1272.41 1545.82 1276.02 1545.82 Q1279.65 1545.82 1281.46 1542.27 Q1283.29 1538.71 1283.29 1531.6 Q1283.29 1524.47 1281.46 1520.93 Q1279.65 1517.37 1276.02 1517.37 M1276.02 1513.66 Q1281.83 1513.66 1284.89 1518.27 Q1287.96 1522.85 1287.96 1531.6 Q1287.96 1540.33 1284.89 1544.94 Q1281.83 1549.52 1276.02 1549.52 Q1270.21 1549.52 1267.13 1544.94 Q1264.08 1540.33 1264.08 1531.6 Q1264.08 1522.85 1267.13 1518.27 Q1270.21 1513.66 1276.02 1513.66 Z" fill="#000000" fill-rule="nonzero" fill-opacity="1" /><path clip-path="url(#clip180)" d="M1778.57 1544.91 L1794.89 1544.91 L1794.89 1548.85 L1772.94 1548.85 L1772.94 1544.91 Q1775.6 1542.16 1780.19 1537.53 Q1784.79 1532.88 1785.97 1531.53 Q1788.22 1529.01 1789.1 1527.27 Q1790 1525.51 1790 1523.82 Q1790 1521.07 1788.06 1519.33 Q1786.14 1517.6 1783.03 1517.6 Q1780.84 1517.6 1778.38 1518.36 Q1775.95 1519.13 1773.17 1520.68 L1773.17 1515.95 Q1776 1514.82 1778.45 1514.24 Q1780.9 1513.66 1782.94 1513.66 Q1788.31 1513.66 1791.51 1516.35 Q1794.7 1519.03 1794.7 1523.52 Q1794.7 1525.65 1793.89 1527.57 Q1793.1 1529.47 1791 1532.07 Q1790.42 1532.74 1787.32 1535.95 Q1784.21 1539.15 1778.57 1544.91 Z" fill="#000000" fill-rule="nonzero" fill-opacity="1" /><path clip-path="url(#clip180)" d="M2294.82 1518.36 L2283.01 1536.81 L2294.82 1536.81 L2294.82 1518.36 M2293.59 1514.29 L2299.47 1514.29 L2299.47 1536.81 L2304.4 1536.81 L2304.4 1540.7 L2299.47 1540.7 L2299.47 1548.85 L2294.82 1548.85 L2294.82 1540.7 L2279.22 1540.7 L2279.22 1536.19 L2293.59 1514.29 Z" fill="#000000" fill-rule="nonzero" fill-opacity="1" /><polyline clip-path="url(#clip180)" style="stroke:#000000; stroke-linecap:round; stroke-linejoin:round; stroke-width:4; stroke-opacity:1; fill:none" points="199.283,1486.45 199.283,123.472 "/>
<polyline clip-path="url(#clip180)" style="stroke:#000000; stroke-linecap:round; stroke-linejoin:round; stroke-width:4; stroke-opacity:1; fill:none" points="199.283,1447.87 218.181,1447.87 "/>
<polyline clip-path="url(#clip180)" style="stroke:#000000; stroke-linecap:round; stroke-linejoin:round; stroke-width:4; stroke-opacity:1; fill:none" points="199.283,1129.6 218.181,1129.6 "/>
<polyline clip-path="url(#clip180)" style="stroke:#000000; stroke-linecap:round; stroke-linejoin:round; stroke-width:4; stroke-opacity:1; fill:none" points="199.283,811.325 218.181,811.325 "/>
<polyline clip-path="url(#clip180)" style="stroke:#000000; stroke-linecap:round; stroke-linejoin:round; stroke-width:4; stroke-opacity:1; fill:none" points="199.283,493.052 218.181,493.052 "/>
<polyline clip-path="url(#clip180)" style="stroke:#000000; stroke-linecap:round; stroke-linejoin:round; stroke-width:4; stroke-opacity:1; fill:none" points="199.283,174.778 218.181,174.778 "/>
<path clip-path="url(#clip180)" d="M151.339 1433.67 Q147.728 1433.67 145.899 1437.24 Q144.093 1440.78 144.093 1447.91 Q144.093 1455.01 145.899 1458.58 Q147.728 1462.12 151.339 1462.12 Q154.973 1462.12 156.779 1458.58 Q158.607 1455.01 158.607 1447.91 Q158.607 1440.78 156.779 1437.24 Q154.973 1433.67 151.339 1433.67 M151.339 1429.97 Q157.149 1429.97 160.205 1434.57 Q163.283 1439.16 163.283 1447.91 Q163.283 1456.63 160.205 1461.24 Q157.149 1465.82 151.339 1465.82 Q145.529 1465.82 142.45 1461.24 Q139.394 1456.63 139.394 1447.91 Q139.394 1439.16 142.45 1434.57 Q145.529 1429.97 151.339 1429.97 Z" fill="#000000" fill-rule="nonzero" fill-opacity="1" /><path clip-path="url(#clip180)" d="M85.0429 1142.94 L101.362 1142.94 L101.362 1146.88 L79.4179 1146.88 L79.4179 1142.94 Q82.0799 1140.19 86.6632 1135.56 Q91.2697 1130.91 92.4502 1129.56 Q94.6956 1127.04 95.5752 1125.31 Q96.478 1123.55 96.478 1121.86 Q96.478 1119.1 94.5336 1117.37 Q92.6123 1115.63 89.5104 1115.63 Q87.3114 1115.63 84.8577 1116.39 Q82.4271 1117.16 79.6494 1118.71 L79.6494 1113.99 Q82.4734 1112.85 84.9271 1112.27 Q87.3808 1111.69 89.4178 1111.69 Q94.7882 1111.69 97.9826 1114.38 Q101.177 1117.06 101.177 1121.56 Q101.177 1123.68 100.367 1125.61 Q99.5798 1127.5 97.4734 1130.1 Q96.8947 1130.77 93.7928 1133.99 Q90.691 1137.18 85.0429 1142.94 Z" fill="#000000" fill-rule="nonzero" fill-opacity="1" /><path clip-path="url(#clip180)" d="M111.223 1112.32 L129.58 1112.32 L129.58 1116.25 L115.506 1116.25 L115.506 1124.73 Q116.524 1124.38 117.543 1124.22 Q118.561 1124.03 119.58 1124.03 Q125.367 1124.03 128.746 1127.2 Q132.126 1130.37 132.126 1135.79 Q132.126 1141.37 128.654 1144.47 Q125.182 1147.55 118.862 1147.55 Q116.686 1147.55 114.418 1147.18 Q112.172 1146.81 109.765 1146.07 L109.765 1141.37 Q111.848 1142.5 114.07 1143.06 Q116.293 1143.62 118.77 1143.62 Q122.774 1143.62 125.112 1141.51 Q127.45 1139.4 127.45 1135.79 Q127.45 1132.18 125.112 1130.07 Q122.774 1127.97 118.77 1127.97 Q116.895 1127.97 115.02 1128.38 Q113.168 1128.8 111.223 1129.68 L111.223 1112.32 Z" fill="#000000" fill-rule="nonzero" fill-opacity="1" /><path clip-path="url(#clip180)" d="M151.339 1115.4 Q147.728 1115.4 145.899 1118.96 Q144.093 1122.5 144.093 1129.63 Q144.093 1136.74 145.899 1140.31 Q147.728 1143.85 151.339 1143.85 Q154.973 1143.85 156.779 1140.31 Q158.607 1136.74 158.607 1129.63 Q158.607 1122.5 156.779 1118.96 Q154.973 1115.4 151.339 1115.4 M151.339 1111.69 Q157.149 1111.69 160.205 1116.3 Q163.283 1120.88 163.283 1129.63 Q163.283 1138.36 160.205 1142.97 Q157.149 1147.55 151.339 1147.55 Q145.529 1147.55 142.45 1142.97 Q139.394 1138.36 139.394 1129.63 Q139.394 1120.88 142.45 1116.3 Q145.529 1111.69 151.339 1111.69 Z" fill="#000000" fill-rule="nonzero" fill-opacity="1" /><path clip-path="url(#clip180)" d="M81.0614 794.045 L99.4178 794.045 L99.4178 797.981 L85.3438 797.981 L85.3438 806.453 Q86.3623 806.106 87.3808 805.944 Q88.3993 805.758 89.4178 805.758 Q95.2049 805.758 98.5845 808.93 Q101.964 812.101 101.964 817.518 Q101.964 823.096 98.4919 826.198 Q95.0197 829.277 88.7003 829.277 Q86.5243 829.277 84.2558 828.906 Q82.0105 828.536 79.6031 827.795 L79.6031 823.096 Q81.6864 824.23 83.9086 824.786 Q86.1308 825.342 88.6077 825.342 Q92.6123 825.342 94.9502 823.235 Q97.2882 821.129 97.2882 817.518 Q97.2882 813.906 94.9502 811.8 Q92.6123 809.694 88.6077 809.694 Q86.7327 809.694 84.8577 810.11 Q83.0058 810.527 81.0614 811.406 L81.0614 794.045 Z" fill="#000000" fill-rule="nonzero" fill-opacity="1" /><path clip-path="url(#clip180)" d="M121.177 797.124 Q117.566 797.124 115.737 800.689 Q113.932 804.231 113.932 811.36 Q113.932 818.467 115.737 822.031 Q117.566 825.573 121.177 825.573 Q124.811 825.573 126.617 822.031 Q128.445 818.467 128.445 811.36 Q128.445 804.231 126.617 800.689 Q124.811 797.124 121.177 797.124 M121.177 793.42 Q126.987 793.42 130.043 798.027 Q133.121 802.61 133.121 811.36 Q133.121 820.087 130.043 824.693 Q126.987 829.277 121.177 829.277 Q115.367 829.277 112.288 824.693 Q109.233 820.087 109.233 811.36 Q109.233 802.61 112.288 798.027 Q115.367 793.42 121.177 793.42 Z" fill="#000000" fill-rule="nonzero" fill-opacity="1" /><path clip-path="url(#clip180)" d="M151.339 797.124 Q147.728 797.124 145.899 800.689 Q144.093 804.231 144.093 811.36 Q144.093 818.467 145.899 822.031 Q147.728 825.573 151.339 825.573 Q154.973 825.573 156.779 822.031 Q158.607 818.467 158.607 811.36 Q158.607 804.231 156.779 800.689 Q154.973 797.124 151.339 797.124 M151.339 793.42 Q157.149 793.42 160.205 798.027 Q163.283 802.61 163.283 811.36 Q163.283 820.087 160.205 824.693 Q157.149 829.277 151.339 829.277 Q145.529 829.277 142.45 824.693 Q139.394 820.087 139.394 811.36 Q139.394 802.61 142.45 798.027 Q145.529 793.42 151.339 793.42 Z" fill="#000000" fill-rule="nonzero" fill-opacity="1" /><path clip-path="url(#clip180)" d="M79.8346 475.772 L102.057 475.772 L102.057 477.762 L89.5104 510.332 L84.6262 510.332 L96.4317 479.707 L79.8346 479.707 L79.8346 475.772 Z" fill="#000000" fill-rule="nonzero" fill-opacity="1" /><path clip-path="url(#clip180)" d="M111.223 475.772 L129.58 475.772 L129.58 479.707 L115.506 479.707 L115.506 488.179 Q116.524 487.832 117.543 487.67 Q118.561 487.485 119.58 487.485 Q125.367 487.485 128.746 490.656 Q132.126 493.827 132.126 499.244 Q132.126 504.822 128.654 507.924 Q125.182 511.003 118.862 511.003 Q116.686 511.003 114.418 510.633 Q112.172 510.262 109.765 509.521 L109.765 504.822 Q111.848 505.957 114.07 506.512 Q116.293 507.068 118.77 507.068 Q122.774 507.068 125.112 504.961 Q127.45 502.855 127.45 499.244 Q127.45 495.633 125.112 493.526 Q122.774 491.42 118.77 491.42 Q116.895 491.42 115.02 491.836 Q113.168 492.253 111.223 493.133 L111.223 475.772 Z" fill="#000000" fill-rule="nonzero" fill-opacity="1" /><path clip-path="url(#clip180)" d="M151.339 478.85 Q147.728 478.85 145.899 482.415 Q144.093 485.957 144.093 493.086 Q144.093 500.193 145.899 503.758 Q147.728 507.299 151.339 507.299 Q154.973 507.299 156.779 503.758 Q158.607 500.193 158.607 493.086 Q158.607 485.957 156.779 482.415 Q154.973 478.85 151.339 478.85 M151.339 475.147 Q157.149 475.147 160.205 479.753 Q163.283 484.336 163.283 493.086 Q163.283 501.813 160.205 506.42 Q157.149 511.003 151.339 511.003 Q145.529 511.003 142.45 506.42 Q139.394 501.813 139.394 493.086 Q139.394 484.336 142.45 479.753 Q145.529 475.147 151.339 475.147 Z" fill="#000000" fill-rule="nonzero" fill-opacity="1" /><path clip-path="url(#clip180)" d="M51.6634 188.123 L59.3023 188.123 L59.3023 161.757 L50.9921 163.424 L50.9921 159.165 L59.256 157.498 L63.9319 157.498 L63.9319 188.123 L71.5707 188.123 L71.5707 192.058 L51.6634 192.058 L51.6634 188.123 Z" fill="#000000" fill-rule="nonzero" fill-opacity="1" /><path clip-path="url(#clip180)" d="M91.0151 160.577 Q87.404 160.577 85.5753 164.141 Q83.7697 167.683 83.7697 174.813 Q83.7697 181.919 85.5753 185.484 Q87.404 189.025 91.0151 189.025 Q94.6493 189.025 96.4548 185.484 Q98.2835 181.919 98.2835 174.813 Q98.2835 167.683 96.4548 164.141 Q94.6493 160.577 91.0151 160.577 M91.0151 156.873 Q96.8252 156.873 99.8808 161.479 Q102.959 166.063 102.959 174.813 Q102.959 183.539 99.8808 188.146 Q96.8252 192.729 91.0151 192.729 Q85.2049 192.729 82.1262 188.146 Q79.0707 183.539 79.0707 174.813 Q79.0707 166.063 82.1262 161.479 Q85.2049 156.873 91.0151 156.873 Z" fill="#000000" fill-rule="nonzero" fill-opacity="1" /><path clip-path="url(#clip180)" d="M121.177 160.577 Q117.566 160.577 115.737 164.141 Q113.932 167.683 113.932 174.813 Q113.932 181.919 115.737 185.484 Q117.566 189.025 121.177 189.025 Q124.811 189.025 126.617 185.484 Q128.445 181.919 128.445 174.813 Q128.445 167.683 126.617 164.141 Q124.811 160.577 121.177 160.577 M121.177 156.873 Q126.987 156.873 130.043 161.479 Q133.121 166.063 133.121 174.813 Q133.121 183.539 130.043 188.146 Q126.987 192.729 121.177 192.729 Q115.367 192.729 112.288 188.146 Q109.233 183.539 109.233 174.813 Q109.233 166.063 112.288 161.479 Q115.367 156.873 121.177 156.873 Z" fill="#000000" fill-rule="nonzero" fill-opacity="1" /><path clip-path="url(#clip180)" d="M151.339 160.577 Q147.728 160.577 145.899 164.141 Q144.093 167.683 144.093 174.813 Q144.093 181.919 145.899 185.484 Q147.728 189.025 151.339 189.025 Q154.973 189.025 156.779 185.484 Q158.607 181.919 158.607 174.813 Q158.607 167.683 156.779 164.141 Q154.973 160.577 151.339 160.577 M151.339 156.873 Q157.149 156.873 160.205 161.479 Q163.283 166.063 163.283 174.813 Q163.283 183.539 160.205 188.146 Q157.149 192.729 151.339 192.729 Q145.529 192.729 142.45 188.146 Q139.394 183.539 139.394 174.813 Q139.394 166.063 142.45 161.479 Q145.529 156.873 151.339 156.873 Z" fill="#000000" fill-rule="nonzero" fill-opacity="1" /><path clip-path="url(#clip180)" d="M644.727 18.8205 L644.727 65.8515 L654.611 65.8515 Q667.128 65.8515 672.921 60.1802 Q678.754 54.509 678.754 42.2752 Q678.754 30.1225 672.921 24.4918 Q667.128 18.8205 654.611 18.8205 L644.727 18.8205 M636.544 12.096 L653.355 12.096 Q670.936 12.096 679.159 19.4281 Q687.383 26.7198 687.383 42.2752 Q687.383 57.9117 679.119 65.2439 Q670.855 72.576 653.355 72.576 L636.544 72.576 L636.544 12.096 Z" fill="#000000" fill-rule="nonzero" fill-opacity="1" /><path clip-path="url(#clip180)" d="M720.722 49.7694 Q711.688 49.7694 708.204 51.8354 Q704.721 53.9013 704.721 58.8839 Q704.721 62.8538 707.313 65.2034 Q709.946 67.5124 714.443 67.5124 Q720.641 67.5124 724.367 63.1374 Q728.135 58.7219 728.135 51.4303 L728.135 49.7694 L720.722 49.7694 M735.588 46.6907 L735.588 72.576 L728.135 72.576 L728.135 65.6895 Q725.583 69.8214 721.775 71.8063 Q717.967 73.7508 712.458 73.7508 Q705.49 73.7508 701.358 69.8619 Q697.267 65.9325 697.267 59.3701 Q697.267 51.7138 702.371 47.825 Q707.516 43.9361 717.683 43.9361 L728.135 43.9361 L728.135 43.2069 Q728.135 38.0623 724.732 35.2672 Q721.37 32.4315 715.253 32.4315 Q711.364 32.4315 707.678 33.3632 Q703.991 34.295 700.589 36.1584 L700.589 29.2718 Q704.68 27.692 708.528 26.9223 Q712.377 26.1121 716.023 26.1121 Q725.866 26.1121 730.727 31.2163 Q735.588 36.3204 735.588 46.6907 Z" fill="#000000" fill-rule="nonzero" fill-opacity="1" /><path clip-path="url(#clip180)" d="M758.314 14.324 L758.314 27.2059 L773.667 27.2059 L773.667 32.9987 L758.314 32.9987 L758.314 57.6282 Q758.314 63.1779 759.813 64.7578 Q761.352 66.3376 766.011 66.3376 L773.667 66.3376 L773.667 72.576 L766.011 72.576 Q757.382 72.576 754.101 69.3758 Q750.82 66.1351 750.82 57.6282 L750.82 32.9987 L745.351 32.9987 L745.351 27.2059 L750.82 27.2059 L750.82 14.324 L758.314 14.324 Z" fill="#000000" fill-rule="nonzero" fill-opacity="1" /><path clip-path="url(#clip180)" d="M804.089 49.7694 Q795.056 49.7694 791.572 51.8354 Q788.088 53.9013 788.088 58.8839 Q788.088 62.8538 790.681 65.2034 Q793.314 67.5124 797.81 67.5124 Q804.008 67.5124 807.735 63.1374 Q811.502 58.7219 811.502 51.4303 L811.502 49.7694 L804.089 49.7694 M818.956 46.6907 L818.956 72.576 L811.502 72.576 L811.502 65.6895 Q808.95 69.8214 805.142 71.8063 Q801.335 73.7508 795.825 73.7508 Q788.858 73.7508 784.726 69.8619 Q780.634 65.9325 780.634 59.3701 Q780.634 51.7138 785.739 47.825 Q790.883 43.9361 801.051 43.9361 L811.502 43.9361 L811.502 43.2069 Q811.502 38.0623 808.1 35.2672 Q804.737 32.4315 798.62 32.4315 Q794.732 32.4315 791.045 33.3632 Q787.359 34.295 783.956 36.1584 L783.956 29.2718 Q788.048 27.692 791.896 26.9223 Q795.744 26.1121 799.39 26.1121 Q809.234 26.1121 814.095 31.2163 Q818.956 36.3204 818.956 46.6907 Z" fill="#000000" fill-rule="nonzero" fill-opacity="1" /><path clip-path="url(#clip180)" d="M881.299 49.7694 Q872.266 49.7694 868.782 51.8354 Q865.298 53.9013 865.298 58.8839 Q865.298 62.8538 867.891 65.2034 Q870.524 67.5124 875.021 67.5124 Q881.218 67.5124 884.945 63.1374 Q888.713 58.7219 888.713 51.4303 L888.713 49.7694 L881.299 49.7694 M896.166 46.6907 L896.166 72.576 L888.713 72.576 L888.713 65.6895 Q886.161 69.8214 882.353 71.8063 Q878.545 73.7508 873.036 73.7508 Q866.068 73.7508 861.936 69.8619 Q857.845 65.9325 857.845 59.3701 Q857.845 51.7138 862.949 47.825 Q868.093 43.9361 878.261 43.9361 L888.713 43.9361 L888.713 43.2069 Q888.713 38.0623 885.31 35.2672 Q881.948 32.4315 875.831 32.4315 Q871.942 32.4315 868.256 33.3632 Q864.569 34.295 861.166 36.1584 L861.166 29.2718 Q865.258 27.692 869.106 26.9223 Q872.955 26.1121 876.6 26.1121 Q886.444 26.1121 891.305 31.2163 Q896.166 36.3204 896.166 46.6907 Z" fill="#000000" fill-rule="nonzero" fill-opacity="1" /><path clip-path="url(#clip180)" d="M949.233 45.1919 L949.233 72.576 L941.779 72.576 L941.779 45.4349 Q941.779 38.994 939.268 35.7938 Q936.756 32.5936 931.733 32.5936 Q925.697 32.5936 922.214 36.4419 Q918.73 40.2903 918.73 46.9338 L918.73 72.576 L911.236 72.576 L911.236 27.2059 L918.73 27.2059 L918.73 34.2544 Q921.403 30.163 925.009 28.1376 Q928.655 26.1121 933.394 26.1121 Q941.212 26.1121 945.223 30.9732 Q949.233 35.7938 949.233 45.1919 Z" fill="#000000" fill-rule="nonzero" fill-opacity="1" /><path clip-path="url(#clip180)" d="M993.955 34.0924 L993.955 9.54393 L1001.41 9.54393 L1001.41 72.576 L993.955 72.576 L993.955 65.7705 Q991.606 69.8214 988 71.8063 Q984.435 73.7508 979.412 73.7508 Q971.189 73.7508 966.004 67.1883 Q960.859 60.6258 960.859 49.9314 Q960.859 39.2371 966.004 32.6746 Q971.189 26.1121 979.412 26.1121 Q984.435 26.1121 988 28.0971 Q991.606 30.0415 993.955 34.0924 M968.556 49.9314 Q968.556 58.1548 971.918 62.8538 Q975.321 67.5124 981.235 67.5124 Q987.15 67.5124 990.552 62.8538 Q993.955 58.1548 993.955 49.9314 Q993.955 41.7081 990.552 37.0496 Q987.15 32.3505 981.235 32.3505 Q975.321 32.3505 971.918 37.0496 Q968.556 41.7081 968.556 49.9314 Z" fill="#000000" fill-rule="nonzero" fill-opacity="1" /><path clip-path="url(#clip180)" d="M1035.07 12.096 L1086.23 12.096 L1086.23 18.9825 L1064.76 18.9825 L1064.76 72.576 L1056.54 72.576 L1056.54 18.9825 L1035.07 18.9825 L1035.07 12.096 Z" fill="#000000" fill-rule="nonzero" fill-opacity="1" /><path clip-path="url(#clip180)" d="M1107.91 34.1734 Q1106.65 33.4443 1105.15 33.1202 Q1103.69 32.7556 1101.91 32.7556 Q1095.59 32.7556 1092.19 36.8875 Q1088.83 40.9789 1088.83 48.6757 L1088.83 72.576 L1081.33 72.576 L1081.33 27.2059 L1088.83 27.2059 L1088.83 34.2544 Q1091.18 30.1225 1094.94 28.1376 Q1098.71 26.1121 1104.1 26.1121 Q1104.87 26.1121 1105.8 26.2337 Q1106.73 26.3147 1107.87 26.5172 L1107.91 34.1734 Z" fill="#000000" fill-rule="nonzero" fill-opacity="1" /><path clip-path="url(#clip180)" d="M1114.96 54.671 L1114.96 27.2059 L1122.41 27.2059 L1122.41 54.3874 Q1122.41 60.8284 1124.92 64.0691 Q1127.43 67.2693 1132.46 67.2693 Q1138.49 67.2693 1141.98 63.421 Q1145.5 59.5726 1145.5 52.9291 L1145.5 27.2059 L1152.95 27.2059 L1152.95 72.576 L1145.5 72.576 L1145.5 65.6084 Q1142.79 69.7404 1139.18 71.7658 Q1135.62 73.7508 1130.88 73.7508 Q1123.06 73.7508 1119.01 68.8897 Q1114.96 64.0286 1114.96 54.671 M1133.71 26.1121 L1133.71 26.1121 Z" fill="#000000" fill-rule="nonzero" fill-opacity="1" /><path clip-path="url(#clip180)" d="M1207.11 48.0275 L1207.11 51.6733 L1172.84 51.6733 Q1173.33 59.3701 1177.46 63.421 Q1181.63 67.4314 1189.05 67.4314 Q1193.34 67.4314 1197.35 66.3781 Q1201.4 65.3249 1205.37 63.2184 L1205.37 70.267 Q1201.36 71.9684 1197.15 72.8596 Q1192.94 73.7508 1188.6 73.7508 Q1177.74 73.7508 1171.38 67.4314 Q1165.07 61.1119 1165.07 50.3365 Q1165.07 39.1965 1171.06 32.6746 Q1177.1 26.1121 1187.3 26.1121 Q1196.46 26.1121 1201.77 32.0264 Q1207.11 37.9003 1207.11 48.0275 M1199.66 45.84 Q1199.58 39.7232 1196.22 36.0774 Q1192.89 32.4315 1187.39 32.4315 Q1181.15 32.4315 1177.38 35.9558 Q1173.65 39.4801 1173.09 45.8805 L1199.66 45.84 Z" fill="#000000" fill-rule="nonzero" fill-opacity="1" /><path clip-path="url(#clip180)" d="M1282.3 14.0809 L1282.3 22.0612 Q1277.64 19.8332 1273.51 18.7395 Q1269.38 17.6457 1265.53 17.6457 Q1258.84 17.6457 1255.2 20.2383 Q1251.59 22.8309 1251.59 27.611 Q1251.59 31.6214 1253.98 33.6873 Q1256.41 35.7128 1263.14 36.9686 L1268.08 37.9813 Q1277.23 39.7232 1281.57 44.1387 Q1285.94 48.5136 1285.94 55.8863 Q1285.94 64.6767 1280.03 69.2137 Q1274.16 73.7508 1262.77 73.7508 Q1258.48 73.7508 1253.62 72.7785 Q1248.8 71.8063 1243.61 69.9024 L1243.61 61.4765 Q1248.59 64.2716 1253.37 65.6895 Q1258.16 67.1073 1262.77 67.1073 Q1269.78 67.1073 1273.59 64.3527 Q1277.4 61.598 1277.4 56.4939 Q1277.4 52.0379 1274.64 49.5264 Q1271.93 47.0148 1265.69 45.759 L1260.71 44.7868 Q1251.55 42.9639 1247.46 39.075 Q1243.37 35.1862 1243.37 28.2591 Q1243.37 20.2383 1249 15.6203 Q1254.67 11.0023 1264.6 11.0023 Q1268.85 11.0023 1273.26 11.7719 Q1277.68 12.5416 1282.3 14.0809 Z" fill="#000000" fill-rule="nonzero" fill-opacity="1" /><path clip-path="url(#clip180)" d="M1305.75 14.324 L1305.75 27.2059 L1321.11 27.2059 L1321.11 32.9987 L1305.75 32.9987 L1305.75 57.6282 Q1305.75 63.1779 1307.25 64.7578 Q1308.79 66.3376 1313.45 66.3376 L1321.11 66.3376 L1321.11 72.576 L1313.45 72.576 Q1304.82 72.576 1301.54 69.3758 Q1298.26 66.1351 1298.26 57.6282 L1298.26 32.9987 L1292.79 32.9987 L1292.79 27.2059 L1298.26 27.2059 L1298.26 14.324 L1305.75 14.324 Z" fill="#000000" fill-rule="nonzero" fill-opacity="1" /><path clip-path="url(#clip180)" d="M1351.53 49.7694 Q1342.49 49.7694 1339.01 51.8354 Q1335.53 53.9013 1335.53 58.8839 Q1335.53 62.8538 1338.12 65.2034 Q1340.75 67.5124 1345.25 67.5124 Q1351.45 67.5124 1355.17 63.1374 Q1358.94 58.7219 1358.94 51.4303 L1358.94 49.7694 L1351.53 49.7694 M1366.4 46.6907 L1366.4 72.576 L1358.94 72.576 L1358.94 65.6895 Q1356.39 69.8214 1352.58 71.8063 Q1348.77 73.7508 1343.26 73.7508 Q1336.3 73.7508 1332.17 69.8619 Q1328.07 65.9325 1328.07 59.3701 Q1328.07 51.7138 1333.18 47.825 Q1338.32 43.9361 1348.49 43.9361 L1358.94 43.9361 L1358.94 43.2069 Q1358.94 38.0623 1355.54 35.2672 Q1352.18 32.4315 1346.06 32.4315 Q1342.17 32.4315 1338.48 33.3632 Q1334.8 34.295 1331.4 36.1584 L1331.4 29.2718 Q1335.49 27.692 1339.34 26.9223 Q1343.18 26.1121 1346.83 26.1121 Q1356.67 26.1121 1361.53 31.2163 Q1366.4 36.3204 1366.4 46.6907 Z" fill="#000000" fill-rule="nonzero" fill-opacity="1" /><path clip-path="url(#clip180)" d="M1389.12 14.324 L1389.12 27.2059 L1404.47 27.2059 L1404.47 32.9987 L1389.12 32.9987 L1389.12 57.6282 Q1389.12 63.1779 1390.62 64.7578 Q1392.16 66.3376 1396.82 66.3376 L1404.47 66.3376 L1404.47 72.576 L1396.82 72.576 Q1388.19 72.576 1384.91 69.3758 Q1381.63 66.1351 1381.63 57.6282 L1381.63 32.9987 L1376.16 32.9987 L1376.16 27.2059 L1381.63 27.2059 L1381.63 14.324 L1389.12 14.324 Z" fill="#000000" fill-rule="nonzero" fill-opacity="1" /><path clip-path="url(#clip180)" d="M1414.28 27.2059 L1421.73 27.2059 L1421.73 72.576 L1414.28 72.576 L1414.28 27.2059 M1414.28 9.54393 L1421.73 9.54393 L1421.73 18.9825 L1414.28 18.9825 L1414.28 9.54393 Z" fill="#000000" fill-rule="nonzero" fill-opacity="1" /><path clip-path="url(#clip180)" d="M1466.25 28.5427 L1466.25 35.5912 Q1463.09 33.9709 1459.69 33.1607 Q1456.28 32.3505 1452.64 32.3505 Q1447.09 32.3505 1444.29 34.0519 Q1441.54 35.7533 1441.54 39.156 Q1441.54 41.7486 1443.52 43.2475 Q1445.51 44.7058 1451.5 46.0426 L1454.06 46.6097 Q1462 48.3111 1465.32 51.4303 Q1468.68 54.509 1468.68 60.0587 Q1468.68 66.3781 1463.66 70.0644 Q1458.67 73.7508 1449.92 73.7508 Q1446.28 73.7508 1442.31 73.0216 Q1438.38 72.3329 1434 70.9151 L1434 63.2184 Q1438.14 65.3654 1442.15 66.4591 Q1446.16 67.5124 1450.09 67.5124 Q1455.35 67.5124 1458.19 65.73 Q1461.02 63.9071 1461.02 60.6258 Q1461.02 57.5877 1458.96 55.9673 Q1456.93 54.3469 1450.01 52.8481 L1447.41 52.2405 Q1440.49 50.7821 1437.41 47.7845 Q1434.33 44.7463 1434.33 39.4801 Q1434.33 33.0797 1438.87 29.5959 Q1443.4 26.1121 1451.75 26.1121 Q1455.88 26.1121 1459.53 26.7198 Q1463.17 27.3274 1466.25 28.5427 Z" fill="#000000" fill-rule="nonzero" fill-opacity="1" /><path clip-path="url(#clip180)" d="M1487.92 14.324 L1487.92 27.2059 L1503.28 27.2059 L1503.28 32.9987 L1487.92 32.9987 L1487.92 57.6282 Q1487.92 63.1779 1489.42 64.7578 Q1490.96 66.3376 1495.62 66.3376 L1503.28 66.3376 L1503.28 72.576 L1495.62 72.576 Q1486.99 72.576 1483.71 69.3758 Q1480.43 66.1351 1480.43 57.6282 L1480.43 32.9987 L1474.96 32.9987 L1474.96 27.2059 L1480.43 27.2059 L1480.43 14.324 L1487.92 14.324 Z" fill="#000000" fill-rule="nonzero" fill-opacity="1" /><path clip-path="url(#clip180)" d="M1513.08 27.2059 L1520.53 27.2059 L1520.53 72.576 L1513.08 72.576 L1513.08 27.2059 M1513.08 9.54393 L1520.53 9.54393 L1520.53 18.9825 L1513.08 18.9825 L1513.08 9.54393 Z" fill="#000000" fill-rule="nonzero" fill-opacity="1" /><path clip-path="url(#clip180)" d="M1568.78 28.9478 L1568.78 35.9153 Q1565.62 34.1734 1562.42 33.3227 Q1559.26 32.4315 1556.02 32.4315 Q1548.77 32.4315 1544.76 37.0496 Q1540.75 41.6271 1540.75 49.9314 Q1540.75 58.2358 1544.76 62.8538 Q1548.77 67.4314 1556.02 67.4314 Q1559.26 67.4314 1562.42 66.5807 Q1565.62 65.6895 1568.78 63.9476 L1568.78 70.8341 Q1565.66 72.2924 1562.3 73.0216 Q1558.98 73.7508 1555.21 73.7508 Q1544.96 73.7508 1538.92 67.3098 Q1532.89 60.8689 1532.89 49.9314 Q1532.89 38.832 1538.96 32.472 Q1545.08 26.1121 1555.69 26.1121 Q1559.14 26.1121 1562.42 26.8413 Q1565.7 27.5299 1568.78 28.9478 Z" fill="#000000" fill-rule="nonzero" fill-opacity="1" /><path clip-path="url(#clip180)" d="M1602.36 49.7694 Q1593.33 49.7694 1589.84 51.8354 Q1586.36 53.9013 1586.36 58.8839 Q1586.36 62.8538 1588.95 65.2034 Q1591.58 67.5124 1596.08 67.5124 Q1602.28 67.5124 1606.01 63.1374 Q1609.77 58.7219 1609.77 51.4303 L1609.77 49.7694 L1602.36 49.7694 M1617.23 46.6907 L1617.23 72.576 L1609.77 72.576 L1609.77 65.6895 Q1607.22 69.8214 1603.41 71.8063 Q1599.61 73.7508 1594.1 73.7508 Q1587.13 73.7508 1583 69.8619 Q1578.91 65.9325 1578.91 59.3701 Q1578.91 51.7138 1584.01 47.825 Q1589.15 43.9361 1599.32 43.9361 L1609.77 43.9361 L1609.77 43.2069 Q1609.77 38.0623 1606.37 35.2672 Q1603.01 32.4315 1596.89 32.4315 Q1593 32.4315 1589.32 33.3632 Q1585.63 34.295 1582.23 36.1584 L1582.23 29.2718 Q1586.32 27.692 1590.17 26.9223 Q1594.02 26.1121 1597.66 26.1121 Q1607.51 26.1121 1612.37 31.2163 Q1617.23 36.3204 1617.23 46.6907 Z" fill="#000000" fill-rule="nonzero" fill-opacity="1" /><path clip-path="url(#clip180)" d="M1632.58 9.54393 L1640.03 9.54393 L1640.03 72.576 L1632.58 72.576 L1632.58 9.54393 Z" fill="#000000" fill-rule="nonzero" fill-opacity="1" /><path clip-path="url(#clip180)" d="M1682.33 12.096 L1694.52 12.096 L1709.95 53.2532 L1725.47 12.096 L1737.66 12.096 L1737.66 72.576 L1729.68 72.576 L1729.68 19.4686 L1714.08 60.9499 L1705.86 60.9499 L1690.27 19.4686 L1690.27 72.576 L1682.33 72.576 L1682.33 12.096 Z" fill="#000000" fill-rule="nonzero" fill-opacity="1" /><path clip-path="url(#clip180)" d="M1771.16 32.4315 Q1765.17 32.4315 1761.68 37.1306 Q1758.2 41.7891 1758.2 49.9314 Q1758.2 58.0738 1761.64 62.7728 Q1765.13 67.4314 1771.16 67.4314 Q1777.12 67.4314 1780.6 62.7323 Q1784.08 58.0333 1784.08 49.9314 Q1784.08 41.8701 1780.6 37.1711 Q1777.12 32.4315 1771.16 32.4315 M1771.16 26.1121 Q1780.88 26.1121 1786.43 32.4315 Q1791.98 38.7509 1791.98 49.9314 Q1791.98 61.0714 1786.43 67.4314 Q1780.88 73.7508 1771.16 73.7508 Q1761.4 73.7508 1755.85 67.4314 Q1750.34 61.0714 1750.34 49.9314 Q1750.34 38.7509 1755.85 32.4315 Q1761.4 26.1121 1771.16 26.1121 Z" fill="#000000" fill-rule="nonzero" fill-opacity="1" /><path clip-path="url(#clip180)" d="M1834.19 34.0924 L1834.19 9.54393 L1841.65 9.54393 L1841.65 72.576 L1834.19 72.576 L1834.19 65.7705 Q1831.84 69.8214 1828.24 71.8063 Q1824.67 73.7508 1819.65 73.7508 Q1811.43 73.7508 1806.24 67.1883 Q1801.1 60.6258 1801.1 49.9314 Q1801.1 39.2371 1806.24 32.6746 Q1811.43 26.1121 1819.65 26.1121 Q1824.67 26.1121 1828.24 28.0971 Q1831.84 30.0415 1834.19 34.0924 M1808.79 49.9314 Q1808.79 58.1548 1812.16 62.8538 Q1815.56 67.5124 1821.47 67.5124 Q1827.39 67.5124 1830.79 62.8538 Q1834.19 58.1548 1834.19 49.9314 Q1834.19 41.7081 1830.79 37.0496 Q1827.39 32.3505 1821.47 32.3505 Q1815.56 32.3505 1812.16 37.0496 Q1808.79 41.7081 1808.79 49.9314 Z" fill="#000000" fill-rule="nonzero" fill-opacity="1" /><path clip-path="url(#clip180)" d="M1895.81 48.0275 L1895.81 51.6733 L1861.54 51.6733 Q1862.02 59.3701 1866.16 63.421 Q1870.33 67.4314 1877.74 67.4314 Q1882.03 67.4314 1886.05 66.3781 Q1890.1 65.3249 1894.07 63.2184 L1894.07 70.267 Q1890.06 71.9684 1885.84 72.8596 Q1881.63 73.7508 1877.3 73.7508 Q1866.44 73.7508 1860.08 67.4314 Q1853.76 61.1119 1853.76 50.3365 Q1853.76 39.1965 1859.75 32.6746 Q1865.79 26.1121 1876 26.1121 Q1885.15 26.1121 1890.46 32.0264 Q1895.81 37.9003 1895.81 48.0275 M1888.35 45.84 Q1888.27 39.7232 1884.91 36.0774 Q1881.59 32.4315 1876.08 32.4315 Q1869.84 32.4315 1866.07 35.9558 Q1862.35 39.4801 1861.78 45.8805 L1888.35 45.84 Z" fill="#000000" fill-rule="nonzero" fill-opacity="1" /><path clip-path="url(#clip180)" d="M1908.04 9.54393 L1915.5 9.54393 L1915.5 72.576 L1908.04 72.576 L1908.04 9.54393 Z" fill="#000000" fill-rule="nonzero" fill-opacity="1" /><polyline clip-path="url(#clip181)" style="stroke:#009af9; stroke-linecap:round; stroke-linejoin:round; stroke-width:4; stroke-opacity:1; fill:none" points="768.125,1447.87 768.125,1346.03 793.52,1346.03 793.52,1371.49 818.914,1371.49 818.914,1333.29 844.309,1333.29 844.309,1205.98 869.704,1205.98 869.704,1244.18 895.099,1244.18 895.099,1116.87 920.493,1116.87 920.493,964.097 945.888,964.097 945.888,976.828 971.283,976.828 971.283,836.787 996.678,836.787 1022.07,836.787 1022.07,1027.75 1047.47,1027.75 1047.47,913.173 1072.86,913.173 1072.86,1002.29 1098.26,1002.29 1098.26,1078.68 1123.65,1078.68 1123.65,1142.33 1149.05,1142.33 1149.05,1078.68 1174.44,1078.68 1174.44,1282.37 1199.84,1282.37 1199.84,1320.56 1225.23,1320.56 1225.23,1422.41 1250.62,1422.41 1250.62,1396.95 1276.02,1396.95 1276.02,1384.22 1301.41,1384.22 1301.41,1358.76 1326.81,1358.76 1326.81,1435.14 1352.2,1435.14 1377.6,1435.14 1402.99,1435.14 1428.39,1435.14 1428.39,1409.68 1453.78,1409.68 1453.78,1422.41 1479.18,1422.41 1479.18,1346.03 1504.57,1346.03 1504.57,1333.29 1529.97,1333.29 1529.97,1256.91 1555.36,1256.91 1555.36,1155.06 1580.76,1155.06 1580.76,1129.6 1606.15,1129.6 1606.15,1065.94 1631.55,1065.94 1631.55,849.518 1656.94,849.518 1656.94,760.402 1682.34,760.402 1682.34,633.092 1707.73,633.092 1707.73,518.514 1733.12,518.514 1758.52,518.514 1758.52,467.59 1783.91,467.59 1783.91,582.168 1809.31,582.168 1809.31,162.047 1834.7,162.047 1834.7,365.742 1860.1,365.742 1860.1,722.209 1885.49,722.209 1885.49,874.98 1910.89,874.98 1910.89,976.828 1936.28,976.828 1936.28,1180.52 1961.68,1180.52 1961.68,1104.14 1987.07,1104.14 1987.07,1269.64 2012.47,1269.64 2012.47,1256.91 2037.86,1256.91 2037.86,1295.1 2063.26,1295.1 2063.26,1384.22 2088.65,1384.22 2088.65,1422.41 2114.05,1422.41 2114.05,1409.68 2139.44,1409.68 2139.44,1422.41 2164.83,1422.41 2164.83,1447.87 2190.23,1447.87 2215.62,1447.87 2241.02,1447.87 2266.41,1447.87 2291.81,1447.87 "/>
<polyline clip-path="url(#clip181)" style="stroke:#e26f46; stroke-linecap:round; stroke-linejoin:round; stroke-width:4; stroke-opacity:1; fill:none" points="260.231,1447.87 262.77,1447.87 265.309,1447.87 267.849,1447.87 270.388,1447.87 272.928,1447.87 275.467,1447.87 278.007,1447.87 280.546,1447.87 283.086,1447.87 285.625,1447.87 288.165,1447.87 290.704,1447.87 293.244,1447.87 295.783,1447.87 298.323,1447.87 300.862,1447.87 303.402,1447.87 305.941,1447.87 308.481,1447.87 311.02,1447.87 313.559,1447.87 316.099,1447.87 318.638,1447.87 321.178,1447.87 323.717,1447.87 326.257,1447.87 328.796,1447.87 331.336,1447.87 333.875,1447.87 336.415,1447.87 338.954,1447.87 341.494,1447.87 344.033,1447.87 346.573,1447.87 349.112,1447.87 351.652,1447.87 354.191,1447.87 356.73,1447.87 359.27,1447.87 361.809,1447.87 364.349,1447.87 366.888,1447.87 369.428,1447.87 371.967,1447.87 374.507,1447.87 377.046,1447.87 379.586,1447.87 382.125,1447.87 384.665,1447.87 387.204,1447.87 389.744,1447.87 392.283,1447.87 394.823,1447.87 397.362,1447.87 399.902,1447.87 402.441,1447.87 404.98,1447.87 407.52,1447.87 410.059,1447.87 412.599,1447.87 415.138,1447.87 417.678,1447.87 420.217,1447.87 422.757,1447.87 425.296,1447.86 427.836,1447.86 430.375,1447.86 432.915,1447.86 435.454,1447.86 437.994,1447.86 440.533,1447.86 443.073,1447.86 445.612,1447.86 448.151,1447.85 450.691,1447.85 453.23,1447.85 455.77,1447.85 458.309,1447.85 460.849,1447.84 463.388,1447.84 465.928,1447.84 468.467,1447.84 471.007,1447.83 473.546,1447.83 476.086,1447.82 478.625,1447.82 481.165,1447.81 483.704,1447.81 486.244,1447.8 488.783,1447.8 491.323,1447.79 493.862,1447.78 496.401,1447.78 498.941,1447.77 501.48,1447.76 504.02,1447.75 506.559,1447.74 509.099,1447.73 511.638,1447.72 514.178,1447.7 516.717,1447.69 519.257,1447.67 521.796,1447.66 524.336,1447.64 526.875,1447.62 529.415,1447.6 531.954,1447.58 534.494,1447.55 537.033,1447.53 539.573,1447.5 542.112,1447.47 544.651,1447.44 547.191,1447.41 549.73,1447.37 552.27,1447.33 554.809,1447.29 557.349,1447.25 559.888,1447.2 562.428,1447.15 564.967,1447.09 567.507,1447.04 570.046,1446.97 572.586,1446.91 575.125,1446.84 577.665,1446.76 580.204,1446.68 582.744,1446.6 585.283,1446.5 587.822,1446.41 590.362,1446.3 592.901,1446.19 595.441,1446.08 597.98,1445.95 600.52,1445.82 603.059,1445.68 605.599,1445.53 608.138,1445.37 610.678,1445.2 613.217,1445.03 615.757,1444.84 618.296,1444.64 620.836,1444.43 623.375,1444.2 625.915,1443.96 628.454,1443.71 630.994,1443.45 633.533,1443.17 636.072,1442.87 638.612,1442.56 641.151,1442.23 643.691,1441.88 646.23,1441.52 648.77,1441.13 651.309,1440.72 653.849,1440.29 656.388,1439.84 658.928,1439.37 661.467,1438.87 664.007,1438.35 666.546,1437.8 669.086,1437.22 671.625,1436.61 674.165,1435.97 676.704,1435.31 679.244,1434.61 681.783,1433.87 684.322,1433.11 686.862,1432.3 689.401,1431.46 691.941,1430.58 694.48,1429.66 697.02,1428.7 699.559,1427.7 702.099,1426.65 704.638,1425.56 707.178,1424.42 709.717,1423.23 712.257,1421.99 714.796,1420.7 717.336,1419.36 719.875,1417.97 722.415,1416.52 724.954,1415.01 727.493,1413.44 730.033,1411.81 732.572,1410.12 735.112,1408.37 737.651,1406.55 740.191,1404.66 742.73,1402.71 745.27,1400.69 747.809,1398.6 750.349,1396.43 752.888,1394.19 755.428,1391.88 757.967,1389.49 760.507,1387.02 763.046,1384.47 765.586,1381.85 768.125,1379.14 770.665,1376.35 773.204,1373.47 775.743,1370.51 778.283,1367.47 780.822,1364.34 783.362,1361.12 785.901,1357.81 788.441,1354.42 790.98,1350.94 793.52,1347.36 796.059,1343.7 798.599,1339.94 801.138,1336.1 803.678,1332.17 806.217,1328.14 808.757,1324.02 811.296,1319.82 813.836,1315.52 816.375,1311.13 818.914,1306.66 821.454,1302.1 823.993,1297.45 826.533,1292.71 829.072,1287.89 831.612,1282.98 834.151,1278 836.691,1272.93 839.23,1267.78 841.77,1262.56 844.309,1257.26 846.849,1251.88 849.388,1246.44 851.928,1240.93 854.467,1235.35 857.007,1229.7 859.546,1224 862.086,1218.24 864.625,1212.43 867.164,1206.57 869.704,1200.66 872.243,1194.7 874.783,1188.71 877.322,1182.68 879.862,1176.62 882.401,1170.53 884.941,1164.41 887.48,1158.28 890.02,1152.14 892.559,1145.98 895.099,1139.82 897.638,1133.66 900.178,1127.51 902.717,1121.36 905.257,1115.23 907.796,1109.12 910.336,1103.04 912.875,1096.98 915.414,1090.97 917.954,1084.99 920.493,1079.07 923.033,1073.19 925.572,1067.38 928.112,1061.63 930.651,1055.95 933.191,1050.34 935.73,1044.82 938.27,1039.38 940.809,1034.04 943.349,1028.79 945.888,1023.65 948.428,1018.61 950.967,1013.69 953.507,1008.89 956.046,1004.21 958.585,999.66 961.125,995.246 963.664,990.972 966.204,986.841 968.743,982.859 971.283,979.03 973.822,975.359 976.362,971.849 978.901,968.505 981.441,965.331 983.98,962.33 986.52,959.506 989.059,956.861 991.599,954.4 994.138,952.125 996.678,950.038 999.217,948.143 1001.76,946.441 1004.3,944.935 1006.84,943.625 1009.37,942.515 1011.91,941.604 1014.45,940.895 1016.99,940.388 1019.53,940.083 1022.07,939.982 1024.61,940.083 1027.15,940.388 1029.69,940.895 1032.23,941.604 1034.77,942.515 1037.31,943.625 1039.85,944.935 1042.39,946.441 1044.93,948.143 1047.47,950.038 1050.01,952.125 1052.55,954.4 1055.09,956.861 1057.62,959.506 1060.16,962.33 1062.7,965.331 1065.24,968.505 1067.78,971.849 1070.32,975.359 1072.86,979.03 1075.4,982.859 1077.94,986.841 1080.48,990.971 1083.02,995.246 1085.56,999.66 1088.1,1004.21 1090.64,1008.89 1093.18,1013.69 1095.72,1018.61 1098.26,1023.65 1100.8,1028.79 1103.34,1034.04 1105.87,1039.38 1108.41,1044.82 1110.95,1050.34 1113.49,1055.95 1116.03,1061.63 1118.57,1067.38 1121.11,1073.19 1123.65,1079.07 1126.19,1084.99 1128.73,1090.97 1131.27,1096.98 1133.81,1103.04 1136.35,1109.12 1138.89,1115.23 1141.43,1121.36 1143.97,1127.5 1146.51,1133.66 1149.05,1139.82 1151.59,1145.98 1154.12,1152.13 1156.66,1158.28 1159.2,1164.41 1161.74,1170.52 1164.28,1176.61 1166.82,1182.67 1169.36,1188.7 1171.9,1194.69 1174.44,1200.65 1176.98,1206.56 1179.52,1212.42 1182.06,1218.23 1184.6,1223.99 1187.14,1229.69 1189.68,1235.33 1192.22,1240.91 1194.76,1246.42 1197.3,1251.86 1199.84,1257.23 1202.37,1262.53 1204.91,1267.75 1207.45,1272.89 1209.99,1277.96 1212.53,1282.94 1215.07,1287.85 1217.61,1292.66 1220.15,1297.39 1222.69,1302.04 1225.23,1306.6 1227.77,1311.07 1230.31,1315.45 1232.85,1319.73 1235.39,1323.93 1237.93,1328.04 1240.47,1332.06 1243.01,1335.98 1245.55,1339.82 1248.09,1343.56 1250.62,1347.21 1253.16,1350.77 1255.7,1354.24 1258.24,1357.62 1260.78,1360.91 1263.32,1364.11 1265.86,1367.22 1268.4,1370.25 1270.94,1373.18 1273.48,1376.03 1276.02,1378.8 1278.56,1381.48 1281.1,1384.07 1283.64,1386.59 1286.18,1389.02 1288.72,1391.37 1291.26,1393.64 1293.8,1395.84 1296.34,1397.96 1298.87,1400 1301.41,1401.97 1303.95,1403.86 1306.49,1405.68 1309.03,1407.43 1311.57,1409.12 1314.11,1410.73 1316.65,1412.27 1319.19,1413.75 1321.73,1415.17 1324.27,1416.52 1326.81,1417.8 1329.35,1419.03 1331.89,1420.2 1334.43,1421.3 1336.97,1422.35 1339.51,1423.34 1342.05,1424.27 1344.59,1425.14 1347.12,1425.96 1349.66,1426.73 1352.2,1427.44 1354.74,1428.1 1357.28,1428.71 1359.82,1429.26 1362.36,1429.77 1364.9,1430.22 1367.44,1430.62 1369.98,1430.97 1372.52,1431.27 1375.06,1431.52 1377.6,1431.73 1380.14,1431.88 1382.68,1431.98 1385.22,1432.03 1387.76,1432.03 1390.3,1431.98 1392.84,1431.88 1395.37,1431.72 1397.91,1431.52 1400.45,1431.26 1402.99,1430.95 1405.53,1430.58 1408.07,1430.16 1410.61,1429.68 1413.15,1429.15 1415.69,1428.56 1418.23,1427.91 1420.77,1427.2 1423.31,1426.42 1425.85,1425.59 1428.39,1424.68 1430.93,1423.72 1433.47,1422.68 1436.01,1421.57 1438.55,1420.4 1441.09,1419.15 1443.62,1417.82 1446.16,1416.42 1448.7,1414.93 1451.24,1413.37 1453.78,1411.72 1456.32,1409.98 1458.86,1408.16 1461.4,1406.25 1463.94,1404.24 1466.48,1402.13 1469.02,1399.93 1471.56,1397.62 1474.1,1395.21 1476.64,1392.7 1479.18,1390.07 1481.72,1387.34 1484.26,1384.48 1486.8,1381.51 1489.34,1378.42 1491.87,1375.21 1494.41,1371.86 1496.95,1368.39 1499.49,1364.79 1502.03,1361.05 1504.57,1357.18 1507.11,1353.16 1509.65,1349 1512.19,1344.69 1514.73,1340.24 1517.27,1335.63 1519.81,1330.87 1522.35,1325.95 1524.89,1320.87 1527.43,1315.63 1529.97,1310.23 1532.51,1304.66 1535.05,1298.93 1537.59,1293.02 1540.12,1286.94 1542.66,1280.69 1545.2,1274.26 1547.74,1267.66 1550.28,1260.88 1552.82,1253.92 1555.36,1246.78 1557.9,1239.46 1560.44,1231.95 1562.98,1224.27 1565.52,1216.4 1568.06,1208.36 1570.6,1200.13 1573.14,1191.72 1575.68,1183.13 1578.22,1174.36 1580.76,1165.42 1583.3,1156.29 1585.84,1147 1588.37,1137.53 1590.91,1127.88 1593.45,1118.08 1595.99,1108.1 1598.53,1097.97 1601.07,1087.67 1603.61,1077.22 1606.15,1066.63 1608.69,1055.88 1611.23,1044.99 1613.77,1033.97 1616.31,1022.81 1618.85,1011.53 1621.39,1000.12 1623.93,988.607 1626.47,976.981 1629.01,965.255 1631.55,953.433 1634.09,941.525 1636.62,929.537 1639.16,917.478 1641.7,905.355 1644.24,893.177 1646.78,880.952 1649.32,868.69 1651.86,856.398 1654.4,844.088 1656.94,831.768 1659.48,819.447 1662.02,807.137 1664.56,794.847 1667.1,782.587 1669.64,770.368 1672.18,758.201 1674.72,746.096 1677.26,734.064 1679.8,722.115 1682.34,710.263 1684.87,698.516 1687.41,686.886 1689.95,675.386 1692.49,664.025 1695.03,652.815 1697.57,641.767 1700.11,630.892 1702.65,620.202 1705.19,609.708 1707.73,599.42 1710.27,589.349 1712.81,579.505 1715.35,569.901 1717.89,560.545 1720.43,551.448 1722.97,542.619 1725.51,534.07 1728.05,525.809 1730.59,517.845 1733.12,510.187 1735.66,502.845 1738.2,495.825 1740.74,489.138 1743.28,482.789 1745.82,476.787 1748.36,471.138 1750.9,465.85 1753.44,460.927 1755.98,456.377 1758.52,452.204 1761.06,448.413 1763.6,445.009 1766.14,441.996 1768.68,439.377 1771.22,437.156 1773.76,435.335 1776.3,433.917 1778.84,432.902 1781.37,432.293 1783.91,432.09 1786.45,432.293 1788.99,432.902 1791.53,433.917 1794.07,435.335 1796.61,437.156 1799.15,439.377 1801.69,441.996 1804.23,445.009 1806.77,448.413 1809.31,452.204 1811.85,456.377 1814.39,460.927 1816.93,465.85 1819.47,471.138 1822.01,476.787 1824.55,482.789 1827.09,489.138 1829.62,495.825 1832.16,502.845 1834.7,510.187 1837.24,517.845 1839.78,525.809 1842.32,534.07 1844.86,542.62 1847.4,551.448 1849.94,560.545 1852.48,569.901 1855.02,579.506 1857.56,589.349 1860.1,599.42 1862.64,609.708 1865.18,620.203 1867.72,630.893 1870.26,641.767 1872.8,652.815 1875.34,664.025 1877.87,675.386 1880.41,686.887 1882.95,698.516 1885.49,710.263 1888.03,722.116 1890.57,734.064 1893.11,746.097 1895.65,758.202 1898.19,770.369 1900.73,782.588 1903.27,794.848 1905.81,807.139 1908.35,819.449 1910.89,831.77 1913.43,844.09 1915.97,856.401 1918.51,868.692 1921.05,880.955 1923.59,893.18 1926.12,905.358 1928.66,917.482 1931.2,929.542 1933.74,941.53 1936.28,953.438 1938.82,965.26 1941.36,976.988 1943.9,988.614 1946.44,1000.13 1948.98,1011.54 1951.52,1022.82 1954.06,1033.98 1956.6,1045 1959.14,1055.89 1961.68,1066.64 1964.22,1077.24 1966.76,1087.69 1969.3,1097.98 1971.84,1108.12 1974.37,1118.1 1976.91,1127.91 1979.45,1137.55 1981.99,1147.02 1984.53,1156.32 1987.07,1165.45 1989.61,1174.4 1992.15,1183.17 1994.69,1191.76 1997.23,1200.17 1999.77,1208.41 2002.31,1216.46 2004.85,1224.33 2007.39,1232.02 2009.93,1239.52 2012.47,1246.85 2015.01,1254 2017.55,1260.97 2020.09,1267.75 2022.62,1274.37 2025.16,1280.8 2027.7,1287.06 2030.24,1293.15 2032.78,1299.07 2035.32,1304.82 2037.86,1310.4 2040.4,1315.82 2042.94,1321.07 2045.48,1326.17 2048.02,1331.1 2050.56,1335.88 2053.1,1340.51 2055.64,1344.99 2058.18,1349.32 2060.72,1353.5 2063.26,1357.55 2065.8,1361.45 2068.33,1365.22 2070.87,1368.86 2073.41,1372.37 2075.95,1375.75 2078.49,1379 2081.03,1382.14 2083.57,1385.16 2086.11,1388.06 2088.65,1390.85 2091.19,1393.54 2093.73,1396.11 2096.27,1398.59 2098.81,1400.96 2101.35,1403.24 2103.89,1405.43 2106.43,1407.52 2108.97,1409.53 2111.51,1411.45 2114.05,1413.29 2116.58,1415.05 2119.12,1416.73 2121.66,1418.34 2124.2,1419.87 2126.74,1421.34 2129.28,1422.74 2131.82,1424.07 2134.36,1425.35 2136.9,1426.56 2139.44,1427.72 2141.98,1428.82 2144.52,1429.87 2147.06,1430.87 2149.6,1431.81 2152.14,1432.72 2154.68,1433.57 2157.22,1434.39 2159.76,1435.16 2162.3,1435.89 2164.83,1436.59 2167.37,1437.25 2169.91,1437.87 2172.45,1438.46 2174.99,1439.02 2177.53,1439.56 2180.07,1440.06 2182.61,1440.53 2185.15,1440.98 2187.69,1441.4 2190.23,1441.8 2192.77,1442.18 2195.31,1442.54 2197.85,1442.87 2200.39,1443.19 2202.93,1443.49 2205.47,1443.77 2208.01,1444.03 2210.55,1444.28 2213.08,1444.52 2215.62,1444.74 2218.16,1444.94 2220.7,1445.14 2223.24,1445.32 2225.78,1445.49 2228.32,1445.65 2230.86,1445.8 2233.4,1445.94 2235.94,1446.08 2238.48,1446.2 2241.02,1446.32 2243.56,1446.42 2246.1,1446.53 2248.64,1446.62 2251.18,1446.71 2253.72,1446.79 2256.26,1446.87 2258.8,1446.94 2261.33,1447.01 2263.87,1447.07 2266.41,1447.13 2268.95,1447.18 2271.49,1447.24 2274.03,1447.28 2276.57,1447.33 2279.11,1447.37 2281.65,1447.41 2284.19,1447.44 2286.73,1447.47 2289.27,1447.5 2291.81,1447.53 "/>
<path clip-path="url(#clip180)" d="M271.066 324.425 L602.685 324.425 L602.685 168.905 L271.066 168.905  Z" fill="#ffffff" fill-rule="evenodd" fill-opacity="1"/>
<polyline clip-path="url(#clip180)" style="stroke:#000000; stroke-linecap:round; stroke-linejoin:round; stroke-width:4; stroke-opacity:1; fill:none" points="271.066,324.425 602.685,324.425 602.685,168.905 271.066,168.905 271.066,324.425 "/>
<polyline clip-path="url(#clip180)" style="stroke:#009af9; stroke-linecap:round; stroke-linejoin:round; stroke-width:4; stroke-opacity:1; fill:none" points="294.993,220.745 438.558,220.745 "/>
<path clip-path="url(#clip180)" d="M467.161 207.307 L467.161 234.182 L472.809 234.182 Q479.962 234.182 483.272 230.941 Q486.606 227.701 486.606 220.71 Q486.606 213.766 483.272 210.548 Q479.962 207.307 472.809 207.307 L467.161 207.307 M462.485 203.465 L472.092 203.465 Q482.138 203.465 486.837 207.654 Q491.536 211.821 491.536 220.71 Q491.536 229.645 486.814 233.835 Q482.092 238.025 472.092 238.025 L462.485 238.025 L462.485 203.465 Z" fill="#000000" fill-rule="nonzero" fill-opacity="1" /><path clip-path="url(#clip180)" d="M510.587 224.992 Q505.425 224.992 503.434 226.173 Q501.444 227.353 501.444 230.201 Q501.444 232.469 502.925 233.812 Q504.43 235.131 506.999 235.131 Q510.541 235.131 512.67 232.631 Q514.823 230.108 514.823 225.941 L514.823 224.992 L510.587 224.992 M519.082 223.233 L519.082 238.025 L514.823 238.025 L514.823 234.089 Q513.365 236.451 511.189 237.585 Q509.013 238.696 505.865 238.696 Q501.883 238.696 499.522 236.474 Q497.184 234.228 497.184 230.478 Q497.184 226.103 500.101 223.881 Q503.041 221.659 508.851 221.659 L514.823 221.659 L514.823 221.242 Q514.823 218.303 512.879 216.705 Q510.957 215.085 507.462 215.085 Q505.24 215.085 503.133 215.617 Q501.027 216.15 499.082 217.215 L499.082 213.279 Q501.42 212.377 503.619 211.937 Q505.819 211.474 507.902 211.474 Q513.527 211.474 516.305 214.391 Q519.082 217.307 519.082 223.233 Z" fill="#000000" fill-rule="nonzero" fill-opacity="1" /><path clip-path="url(#clip180)" d="M532.068 204.738 L532.068 212.099 L540.841 212.099 L540.841 215.409 L532.068 215.409 L532.068 229.483 Q532.068 232.654 532.925 233.557 Q533.804 234.46 536.466 234.46 L540.841 234.46 L540.841 238.025 L536.466 238.025 Q531.536 238.025 529.661 236.196 Q527.786 234.344 527.786 229.483 L527.786 215.409 L524.661 215.409 L524.661 212.099 L527.786 212.099 L527.786 204.738 L532.068 204.738 Z" fill="#000000" fill-rule="nonzero" fill-opacity="1" /><path clip-path="url(#clip180)" d="M558.226 224.992 Q553.064 224.992 551.073 226.173 Q549.082 227.353 549.082 230.201 Q549.082 232.469 550.564 233.812 Q552.068 235.131 554.638 235.131 Q558.179 235.131 560.309 232.631 Q562.462 230.108 562.462 225.941 L562.462 224.992 L558.226 224.992 M566.721 223.233 L566.721 238.025 L562.462 238.025 L562.462 234.089 Q561.003 236.451 558.827 237.585 Q556.652 238.696 553.503 238.696 Q549.522 238.696 547.161 236.474 Q544.823 234.228 544.823 230.478 Q544.823 226.103 547.74 223.881 Q550.679 221.659 556.49 221.659 L562.462 221.659 L562.462 221.242 Q562.462 218.303 560.517 216.705 Q558.596 215.085 555.101 215.085 Q552.878 215.085 550.772 215.617 Q548.666 216.15 546.721 217.215 L546.721 213.279 Q549.059 212.377 551.258 211.937 Q553.457 211.474 555.54 211.474 Q561.165 211.474 563.943 214.391 Q566.721 217.307 566.721 223.233 Z" fill="#000000" fill-rule="nonzero" fill-opacity="1" /><polyline clip-path="url(#clip180)" style="stroke:#e26f46; stroke-linecap:round; stroke-linejoin:round; stroke-width:4; stroke-opacity:1; fill:none" points="294.993,272.585 438.558,272.585 "/>
<path clip-path="url(#clip180)" d="M462.485 255.305 L491.721 255.305 L491.721 259.24 L479.453 259.24 L479.453 289.865 L474.754 289.865 L474.754 259.24 L462.485 259.24 L462.485 255.305 Z" fill="#000000" fill-rule="nonzero" fill-opacity="1" /><path clip-path="url(#clip180)" d="M504.106 267.92 Q503.388 267.504 502.531 267.318 Q501.698 267.11 500.68 267.11 Q497.069 267.11 495.124 269.471 Q493.203 271.809 493.203 276.207 L493.203 289.865 L488.92 289.865 L488.92 263.939 L493.203 263.939 L493.203 267.967 Q494.545 265.606 496.698 264.471 Q498.851 263.314 501.93 263.314 Q502.369 263.314 502.902 263.383 Q503.434 263.43 504.082 263.545 L504.106 267.92 Z" fill="#000000" fill-rule="nonzero" fill-opacity="1" /><path clip-path="url(#clip180)" d="M508.133 279.633 L508.133 263.939 L512.393 263.939 L512.393 279.471 Q512.393 283.152 513.828 285.004 Q515.263 286.832 518.133 286.832 Q521.582 286.832 523.573 284.633 Q525.587 282.434 525.587 278.638 L525.587 263.939 L529.846 263.939 L529.846 289.865 L525.587 289.865 L525.587 285.883 Q524.036 288.244 521.976 289.402 Q519.939 290.536 517.23 290.536 Q512.763 290.536 510.448 287.758 Q508.133 284.98 508.133 279.633 M518.851 263.314 L518.851 263.314 Z" fill="#000000" fill-rule="nonzero" fill-opacity="1" /><path clip-path="url(#clip180)" d="M542.832 256.578 L542.832 263.939 L551.605 263.939 L551.605 267.249 L542.832 267.249 L542.832 281.323 Q542.832 284.494 543.689 285.397 Q544.568 286.3 547.23 286.3 L551.605 286.3 L551.605 289.865 L547.23 289.865 Q542.3 289.865 540.425 288.036 Q538.55 286.184 538.55 281.323 L538.55 267.249 L535.425 267.249 L535.425 263.939 L538.55 263.939 L538.55 256.578 L542.832 256.578 Z" fill="#000000" fill-rule="nonzero" fill-opacity="1" /><path clip-path="url(#clip180)" d="M578.758 274.217 L578.758 289.865 L574.499 289.865 L574.499 274.355 Q574.499 270.675 573.064 268.846 Q571.628 267.018 568.758 267.018 Q565.309 267.018 563.318 269.217 Q561.327 271.416 561.327 275.212 L561.327 289.865 L557.045 289.865 L557.045 253.846 L561.327 253.846 L561.327 267.967 Q562.855 265.629 564.915 264.471 Q566.999 263.314 569.707 263.314 Q574.175 263.314 576.466 266.092 Q578.758 268.846 578.758 274.217 Z" fill="#000000" fill-rule="nonzero" fill-opacity="1" /></svg>
