<?xml version="1.0" encoding="utf-8"?>
<svg xmlns="http://www.w3.org/2000/svg" xmlns:xlink="http://www.w3.org/1999/xlink" width="600" height="400" viewBox="0 0 2400 1600">
<defs>
  <clipPath id="clip6700">
    <rect x="0" y="0" width="2400" height="1600"/>
  </clipPath>
</defs>
<path clip-path="url(#clip6700)" d="
M0 1600 L2400 1600 L2400 0 L0 0  Z
  " fill="#ffffff" fill-rule="evenodd" fill-opacity="1"/>
<defs>
  <clipPath id="clip6701">
    <rect x="480" y="0" width="1681" height="1600"/>
  </clipPath>
</defs>
<path clip-path="url(#clip6700)" d="
M202.373 1425.62 L2352.76 1425.62 L2352.76 121.675 L202.373 121.675  Z
  " fill="#ffffff" fill-rule="evenodd" fill-opacity="1"/>
<defs>
  <clipPath id="clip6702">
    <rect x="202" y="121" width="2151" height="1305"/>
  </clipPath>
</defs>
<polyline clip-path="url(#clip6702)" style="stroke:#000000; stroke-width:2; stroke-opacity:0.1; fill:none" points="
  362.192,1425.62 362.192,121.675 
  "/>
<polyline clip-path="url(#clip6702)" style="stroke:#000000; stroke-width:2; stroke-opacity:0.1; fill:none" points="
  856.988,1425.62 856.988,121.675 
  "/>
<polyline clip-path="url(#clip6702)" style="stroke:#000000; stroke-width:2; stroke-opacity:0.1; fill:none" points="
  1351.78,1425.62 1351.78,121.675 
  "/>
<polyline clip-path="url(#clip6702)" style="stroke:#000000; stroke-width:2; stroke-opacity:0.1; fill:none" points="
  1846.58,1425.62 1846.58,121.675 
  "/>
<polyline clip-path="url(#clip6702)" style="stroke:#000000; stroke-width:2; stroke-opacity:0.1; fill:none" points="
  2341.38,1425.62 2341.38,121.675 
  "/>
<polyline clip-path="url(#clip6702)" style="stroke:#000000; stroke-width:2; stroke-opacity:0.1; fill:none" points="
  202.373,1388.71 2352.76,1388.71 
  "/>
<polyline clip-path="url(#clip6702)" style="stroke:#000000; stroke-width:2; stroke-opacity:0.1; fill:none" points="
  202.373,1027.31 2352.76,1027.31 
  "/>
<polyline clip-path="url(#clip6702)" style="stroke:#000000; stroke-width:2; stroke-opacity:0.1; fill:none" points="
  202.373,665.91 2352.76,665.91 
  "/>
<polyline clip-path="url(#clip6702)" style="stroke:#000000; stroke-width:2; stroke-opacity:0.1; fill:none" points="
  202.373,304.508 2352.76,304.508 
  "/>
<polyline clip-path="url(#clip6700)" style="stroke:#000000; stroke-width:4; stroke-opacity:1; fill:none" points="
  202.373,1425.62 2352.76,1425.62 
  "/>
<polyline clip-path="url(#clip6700)" style="stroke:#000000; stroke-width:4; stroke-opacity:1; fill:none" points="
  202.373,1425.62 202.373,121.675 
  "/>
<polyline clip-path="url(#clip6700)" style="stroke:#000000; stroke-width:4; stroke-opacity:1; fill:none" points="
  362.192,1425.62 362.192,1409.97 
  "/>
<polyline clip-path="url(#clip6700)" style="stroke:#000000; stroke-width:4; stroke-opacity:1; fill:none" points="
  856.988,1425.62 856.988,1409.97 
  "/>
<polyline clip-path="url(#clip6700)" style="stroke:#000000; stroke-width:4; stroke-opacity:1; fill:none" points="
  1351.78,1425.62 1351.78,1409.97 
  "/>
<polyline clip-path="url(#clip6700)" style="stroke:#000000; stroke-width:4; stroke-opacity:1; fill:none" points="
  1846.58,1425.62 1846.58,1409.97 
  "/>
<polyline clip-path="url(#clip6700)" style="stroke:#000000; stroke-width:4; stroke-opacity:1; fill:none" points="
  2341.38,1425.62 2341.38,1409.97 
  "/>
<polyline clip-path="url(#clip6700)" style="stroke:#000000; stroke-width:4; stroke-opacity:1; fill:none" points="
  202.373,1388.71 228.178,1388.71 
  "/>
<polyline clip-path="url(#clip6700)" style="stroke:#000000; stroke-width:4; stroke-opacity:1; fill:none" points="
  202.373,1027.31 228.178,1027.31 
  "/>
<polyline clip-path="url(#clip6700)" style="stroke:#000000; stroke-width:4; stroke-opacity:1; fill:none" points="
  202.373,665.91 228.178,665.91 
  "/>
<polyline clip-path="url(#clip6700)" style="stroke:#000000; stroke-width:4; stroke-opacity:1; fill:none" points="
  202.373,304.508 228.178,304.508 
  "/>
<g clip-path="url(#clip6700)">
<text style="fill:#000000; fill-opacity:1; font-family:Arial,Helvetica Neue,Helvetica,sans-serif; font-size:48px; text-anchor:middle;" transform="rotate(0, 362.192, 1479.62)" x="362.192" y="1479.62">-1.10</text>
</g>
<g clip-path="url(#clip6700)">
<text style="fill:#000000; fill-opacity:1; font-family:Arial,Helvetica Neue,Helvetica,sans-serif; font-size:48px; text-anchor:middle;" transform="rotate(0, 856.988, 1479.62)" x="856.988" y="1479.62">-1.05</text>
</g>
<g clip-path="url(#clip6700)">
<text style="fill:#000000; fill-opacity:1; font-family:Arial,Helvetica Neue,Helvetica,sans-serif; font-size:48px; text-anchor:middle;" transform="rotate(0, 1351.78, 1479.62)" x="1351.78" y="1479.62">-1.00</text>
</g>
<g clip-path="url(#clip6700)">
<text style="fill:#000000; fill-opacity:1; font-family:Arial,Helvetica Neue,Helvetica,sans-serif; font-size:48px; text-anchor:middle;" transform="rotate(0, 1846.58, 1479.62)" x="1846.58" y="1479.62">-0.95</text>
</g>
<g clip-path="url(#clip6700)">
<text style="fill:#000000; fill-opacity:1; font-family:Arial,Helvetica Neue,Helvetica,sans-serif; font-size:48px; text-anchor:middle;" transform="rotate(0, 2341.38, 1479.62)" x="2341.38" y="1479.62">-0.90</text>
</g>
<g clip-path="url(#clip6700)">
<text style="fill:#000000; fill-opacity:1; font-family:Arial,Helvetica Neue,Helvetica,sans-serif; font-size:48px; text-anchor:end;" transform="rotate(0, 178.373, 1406.21)" x="178.373" y="1406.21">0</text>
</g>
<g clip-path="url(#clip6700)">
<text style="fill:#000000; fill-opacity:1; font-family:Arial,Helvetica Neue,Helvetica,sans-serif; font-size:48px; text-anchor:end;" transform="rotate(0, 178.373, 1044.81)" x="178.373" y="1044.81">5</text>
</g>
<g clip-path="url(#clip6700)">
<text style="fill:#000000; fill-opacity:1; font-family:Arial,Helvetica Neue,Helvetica,sans-serif; font-size:48px; text-anchor:end;" transform="rotate(0, 178.373, 683.41)" x="178.373" y="683.41">10</text>
</g>
<g clip-path="url(#clip6700)">
<text style="fill:#000000; fill-opacity:1; font-family:Arial,Helvetica Neue,Helvetica,sans-serif; font-size:48px; text-anchor:end;" transform="rotate(0, 178.373, 322.008)" x="178.373" y="322.008">15</text>
</g>
<g clip-path="url(#clip6700)">
<text style="fill:#000000; fill-opacity:1; font-family:Arial,Helvetica Neue,Helvetica,sans-serif; font-size:84px; text-anchor:middle;" transform="rotate(0, 1277.56, 73.2)" x="1277.56" y="73.2">Marginalized Distribution for mu_1</text>
</g>
<g clip-path="url(#clip6700)">
<text style="fill:#000000; fill-opacity:1; font-family:Arial,Helvetica Neue,Helvetica,sans-serif; font-size:66px; text-anchor:middle;" transform="rotate(0, 1277.56, 1559.48)" x="1277.56" y="1559.48">mu_1</text>
</g>
<g clip-path="url(#clip6700)">
<text style="fill:#000000; fill-opacity:1; font-family:Arial,Helvetica Neue,Helvetica,sans-serif; font-size:66px; text-anchor:middle;" transform="rotate(-90, 89.2861, 773.647)" x="89.2861" y="773.647">P(mu_1)</text>
</g>
<path clip-path="url(#clip6702)" d="
M263.233 1388.71 L312.712 1388.71 L312.712 1388.71 L362.192 1388.71 L362.192 1388.71 L411.672 1388.71 L411.672 1388.71 L461.151 1388.71 L461.151 1388.71 L510.631 1388.71 
  L510.631 1388.71 L560.11 1388.71 L560.11 1388.71 L609.59 1388.71 L609.59 1388.71 L659.07 1388.71 L659.07 1371.37 L708.549 1371.37 L708.549 1366.96 L758.029 1366.96 
  L758.029 1353.73 L807.508 1353.73 L807.508 1321.62 L856.988 1321.62 L856.988 1274.36 L906.467 1274.36 L906.467 1213.31 L955.947 1213.31 L955.947 1143.34 L1005.43 1143.34 
  L1005.43 1049.5 L1054.91 1049.5 L1054.91 921.632 L1104.39 921.632 L1104.39 821.371 L1153.87 821.371 L1153.87 620.084 L1203.35 620.084 L1203.35 513.689 L1252.82 513.689 
  L1252.82 328.983 L1302.3 328.983 L1302.3 304.254 L1351.78 304.254 L1351.78 249.81 L1401.26 249.81 L1401.26 194.408 L1450.74 194.408 L1450.74 273.006 L1500.22 273.006 
  L1500.22 338.856 L1549.7 338.856 L1549.7 462.217 L1599.18 462.217 L1599.18 574.075 L1648.66 574.075 L1648.66 746.607 L1698.14 746.607 L1698.14 884.825 L1747.62 884.825 
  L1747.62 1014.89 L1797.1 1014.89 L1797.1 1088.41 L1846.58 1088.41 L1846.58 1169.79 L1896.06 1169.79 L1896.06 1265.26 L1945.54 1265.26 L1945.54 1308.49 L1995.02 1308.49 
  L1995.02 1336.09 L2044.5 1336.09 L2044.5 1353.73 L2093.98 1353.73 L2093.98 1372.71 L2143.46 1372.71 L2143.46 1388.71 L2192.94 1388.71 L2192.94 1388.71 L2242.42 1388.71 
  L2242.42 1388.71 L2291.9 1388.71 L2291.9 1388.71 L2291.9 1388.71 L2291.9 1388.71 L2242.42 1388.71 L2242.42 1388.71 L2192.94 1388.71 L2192.94 1388.71 L2143.46 1388.71 
  L2143.46 1388.71 L2093.98 1388.71 L2093.98 1388.71 L2044.5 1388.71 L2044.5 1388.71 L1995.02 1388.71 L1995.02 1388.71 L1945.54 1388.71 L1945.54 1388.71 L1896.06 1388.71 
  L1896.06 1388.71 L1846.58 1388.71 L1846.58 1388.71 L1797.1 1388.71 L1797.1 1388.71 L1747.62 1388.71 L1747.62 1388.71 L1698.14 1388.71 L1698.14 1388.71 L1648.66 1388.71 
  L1648.66 1388.71 L1599.18 1388.71 L1599.18 1388.71 L1549.7 1388.71 L1549.7 1388.71 L1500.22 1388.71 L1500.22 1388.71 L1450.74 1388.71 L1450.74 1388.71 L1401.26 1388.71 
  L1401.26 1388.71 L1351.78 1388.71 L1351.78 1388.71 L1302.3 1388.71 L1302.3 1388.71 L1252.82 1388.71 L1252.82 1388.71 L1203.35 1388.71 L1203.35 1388.71 L1153.87 1388.71 
  L1153.87 1388.71 L1104.39 1388.71 L1104.39 1388.71 L1054.91 1388.71 L1054.91 1388.71 L1005.43 1388.71 L1005.43 1388.71 L955.947 1388.71 L955.947 1388.71 L906.467 1388.71 
  L906.467 1388.71 L856.988 1388.71 L856.988 1388.71 L807.508 1388.71 L807.508 1388.71 L758.029 1388.71 L758.029 1388.71 L708.549 1388.71 L708.549 1388.71 L659.07 1388.71 
  L659.07 1388.71 L609.59 1388.71 L609.59 1388.71 L560.11 1388.71 L560.11 1388.71 L510.631 1388.71 L510.631 1388.71 L461.151 1388.71 L461.151 1388.71 L411.672 1388.71 
  L411.672 1388.71 L362.192 1388.71 L362.192 1388.71 L312.712 1388.71 L312.712 1388.71 L263.233 1388.71  Z
  " fill="#ff0000" fill-rule="evenodd" fill-opacity="1"/>
<polyline clip-path="url(#clip6702)" style="stroke:#009af9; stroke-width:0; stroke-opacity:1; fill:none" points="
  263.233,1388.71 312.712,1388.71 362.192,1388.71 411.672,1388.71 461.151,1388.71 510.631,1388.71 
  560.11,1388.71 609.59,1388.71 659.07,1388.71 659.07,1371.37 708.549,1371.37 708.549,1366.96 758.029,1366.96 
  758.029,1353.73 807.508,1353.73 807.508,1321.62 856.988,1321.62 856.988,1274.36 906.467,1274.36 906.467,1213.31 955.947,1213.31 955.947,1143.34 1005.43,1143.34 
  1005.43,1049.5 1054.91,1049.5 1054.91,921.632 1104.39,921.632 1104.39,821.371 1153.87,821.371 1153.87,620.084 1203.35,620.084 1203.35,513.689 1252.82,513.689 
  1252.82,328.983 1302.3,328.983 1302.3,304.254 1351.78,304.254 1351.78,249.81 1401.26,249.81 1401.26,194.408 1450.74,194.408 1450.74,273.006 1500.22,273.006 
  1500.22,338.856 1549.7,338.856 1549.7,462.217 1599.18,462.217 1599.18,574.075 1648.66,574.075 1648.66,746.607 1698.14,746.607 1698.14,884.825 1747.62,884.825 
  1747.62,1014.89 1797.1,1014.89 1797.1,1088.41 1846.58,1088.41 1846.58,1169.79 1896.06,1169.79 1896.06,1265.26 1945.54,1265.26 1945.54,1308.49 1995.02,1308.49 
  1995.02,1336.09 2044.5,1336.09 2044.5,1353.73 2093.98,1353.73 2093.98,1372.71 2143.46,1372.71 2143.46,1388.71 2192.94,1388.71 2242.42,1388.71 
  2291.9,1388.71 
  "/>
<path clip-path="url(#clip6702)" d="
M263.233 1388.71 L312.712 1388.71 L312.712 1388.71 L362.192 1388.71 L362.192 1388.71 L411.672 1388.71 L411.672 1388.71 L461.151 1388.71 L461.151 1388.71 L510.631 1388.71 
  L510.631 1388.71 L560.11 1388.71 L560.11 1388.71 L609.59 1388.71 L609.59 1388.71 L659.07 1388.71 L659.07 1388.71 L708.549 1388.71 L708.549 1388.71 L758.029 1388.71 
  L758.029 1388.71 L807.508 1388.71 L807.508 1388.71 L856.988 1388.71 L856.988 1388.71 L906.467 1388.71 L906.467 1213.31 L955.947 1213.31 L955.947 1143.34 L1005.43 1143.34 
  L1005.43 1049.5 L1054.91 1049.5 L1054.91 921.632 L1104.39 921.632 L1104.39 821.371 L1153.87 821.371 L1153.87 620.084 L1203.35 620.084 L1203.35 513.689 L1252.82 513.689 
  L1252.82 328.983 L1302.3 328.983 L1302.3 304.254 L1351.78 304.254 L1351.78 249.81 L1401.26 249.81 L1401.26 194.408 L1450.74 194.408 L1450.74 273.006 L1500.22 273.006 
  L1500.22 338.856 L1549.7 338.856 L1549.7 462.217 L1599.18 462.217 L1599.18 574.075 L1648.66 574.075 L1648.66 746.607 L1698.14 746.607 L1698.14 884.825 L1747.62 884.825 
  L1747.62 1014.89 L1797.1 1014.89 L1797.1 1088.41 L1846.58 1088.41 L1846.58 1169.79 L1896.06 1169.79 L1896.06 1388.71 L1945.54 1388.71 L1945.54 1388.71 L1995.02 1388.71 
  L1995.02 1388.71 L2044.5 1388.71 L2044.5 1388.71 L2093.98 1388.71 L2093.98 1388.71 L2143.46 1388.71 L2143.46 1388.71 L2192.94 1388.71 L2192.94 1388.71 L2242.42 1388.71 
  L2242.42 1388.71 L2291.9 1388.71 L2291.9 1388.71 L2291.9 1388.71 L2291.9 1388.71 L2242.42 1388.71 L2242.42 1388.71 L2192.94 1388.71 L2192.94 1388.71 L2143.46 1388.71 
  L2143.46 1388.71 L2093.98 1388.71 L2093.98 1388.71 L2044.5 1388.71 L2044.5 1388.71 L1995.02 1388.71 L1995.02 1388.71 L1945.54 1388.71 L1945.54 1388.71 L1896.06 1388.71 
  L1896.06 1388.71 L1846.58 1388.71 L1846.58 1388.71 L1797.1 1388.71 L1797.1 1388.71 L1747.62 1388.71 L1747.62 1388.71 L1698.14 1388.71 L1698.14 1388.71 L1648.66 1388.71 
  L1648.66 1388.71 L1599.18 1388.71 L1599.18 1388.71 L1549.7 1388.71 L1549.7 1388.71 L1500.22 1388.71 L1500.22 1388.71 L1450.74 1388.71 L1450.74 1388.71 L1401.26 1388.71 
  L1401.26 1388.71 L1351.78 1388.71 L1351.78 1388.71 L1302.3 1388.71 L1302.3 1388.71 L1252.82 1388.71 L1252.82 1388.71 L1203.35 1388.71 L1203.35 1388.71 L1153.87 1388.71 
  L1153.87 1388.71 L1104.39 1388.71 L1104.39 1388.71 L1054.91 1388.71 L1054.91 1388.71 L1005.43 1388.71 L1005.43 1388.71 L955.947 1388.71 L955.947 1388.71 L906.467 1388.71 
  L906.467 1388.71 L856.988 1388.71 L856.988 1388.71 L807.508 1388.71 L807.508 1388.71 L758.029 1388.71 L758.029 1388.71 L708.549 1388.71 L708.549 1388.71 L659.07 1388.71 
  L659.07 1388.71 L609.59 1388.71 L609.59 1388.71 L560.11 1388.71 L560.11 1388.71 L510.631 1388.71 L510.631 1388.71 L461.151 1388.71 L461.151 1388.71 L411.672 1388.71 
  L411.672 1388.71 L362.192 1388.71 L362.192 1388.71 L312.712 1388.71 L312.712 1388.71 L263.233 1388.71  Z
  " fill="#ffff00" fill-rule="evenodd" fill-opacity="1"/>
<polyline clip-path="url(#clip6702)" style="stroke:#e26f46; stroke-width:0; stroke-opacity:1; fill:none" points="
  263.233,1388.71 312.712,1388.71 362.192,1388.71 411.672,1388.71 461.151,1388.71 510.631,1388.71 
  560.11,1388.71 609.59,1388.71 659.07,1388.71 708.549,1388.71 758.029,1388.71 
  807.508,1388.71 856.988,1388.71 906.467,1388.71 906.467,1213.31 955.947,1213.31 955.947,1143.34 1005.43,1143.34 
  1005.43,1049.5 1054.91,1049.5 1054.91,921.632 1104.39,921.632 1104.39,821.371 1153.87,821.371 1153.87,620.084 1203.35,620.084 1203.35,513.689 1252.82,513.689 
  1252.82,328.983 1302.3,328.983 1302.3,304.254 1351.78,304.254 1351.78,249.81 1401.26,249.81 1401.26,194.408 1450.74,194.408 1450.74,273.006 1500.22,273.006 
  1500.22,338.856 1549.7,338.856 1549.7,462.217 1599.18,462.217 1599.18,574.075 1648.66,574.075 1648.66,746.607 1698.14,746.607 1698.14,884.825 1747.62,884.825 
  1747.62,1014.89 1797.1,1014.89 1797.1,1088.41 1846.58,1088.41 1846.58,1169.79 1896.06,1169.79 1896.06,1388.71 1945.54,1388.71 1995.02,1388.71 
  2044.5,1388.71 2093.98,1388.71 2143.46,1388.71 2192.94,1388.71 2242.42,1388.71 
  2291.9,1388.71 
  "/>
<path clip-path="url(#clip6702)" d="
M263.233 1388.71 L312.712 1388.71 L312.712 1388.71 L362.192 1388.71 L362.192 1388.71 L411.672 1388.71 L411.672 1388.71 L461.151 1388.71 L461.151 1388.71 L510.631 1388.71 
  L510.631 1388.71 L560.11 1388.71 L560.11 1388.71 L609.59 1388.71 L609.59 1388.71 L659.07 1388.71 L659.07 1388.71 L708.549 1388.71 L708.549 1388.71 L758.029 1388.71 
  L758.029 1388.71 L807.508 1388.71 L807.508 1388.71 L856.988 1388.71 L856.988 1388.71 L906.467 1388.71 L906.467 1388.71 L955.947 1388.71 L955.947 1388.71 L1005.43 1388.71 
  L1005.43 1388.71 L1054.91 1388.71 L1054.91 1388.71 L1104.39 1388.71 L1104.39 1388.71 L1153.87 1388.71 L1153.87 620.084 L1203.35 620.084 L1203.35 513.689 L1252.82 513.689 
  L1252.82 328.983 L1302.3 328.983 L1302.3 304.254 L1351.78 304.254 L1351.78 249.81 L1401.26 249.81 L1401.26 194.408 L1450.74 194.408 L1450.74 273.006 L1500.22 273.006 
  L1500.22 338.856 L1549.7 338.856 L1549.7 462.217 L1599.18 462.217 L1599.18 574.075 L1648.66 574.075 L1648.66 1388.71 L1698.14 1388.71 L1698.14 1388.71 L1747.62 1388.71 
  L1747.62 1388.71 L1797.1 1388.71 L1797.1 1388.71 L1846.58 1388.71 L1846.58 1388.71 L1896.06 1388.71 L1896.06 1388.71 L1945.54 1388.71 L1945.54 1388.71 L1995.02 1388.71 
  L1995.02 1388.71 L2044.5 1388.71 L2044.5 1388.71 L2093.98 1388.71 L2093.98 1388.71 L2143.46 1388.71 L2143.46 1388.71 L2192.94 1388.71 L2192.94 1388.71 L2242.42 1388.71 
  L2242.42 1388.71 L2291.9 1388.71 L2291.9 1388.71 L2291.9 1388.71 L2291.9 1388.71 L2242.42 1388.71 L2242.42 1388.71 L2192.94 1388.71 L2192.94 1388.71 L2143.46 1388.71 
  L2143.46 1388.71 L2093.98 1388.71 L2093.98 1388.71 L2044.5 1388.71 L2044.5 1388.71 L1995.02 1388.71 L1995.02 1388.71 L1945.54 1388.71 L1945.54 1388.71 L1896.06 1388.71 
  L1896.06 1388.71 L1846.58 1388.71 L1846.58 1388.71 L1797.1 1388.71 L1797.1 1388.71 L1747.62 1388.71 L1747.62 1388.71 L1698.14 1388.71 L1698.14 1388.71 L1648.66 1388.71 
  L1648.66 1388.71 L1599.18 1388.71 L1599.18 1388.71 L1549.7 1388.71 L1549.7 1388.71 L1500.22 1388.71 L1500.22 1388.71 L1450.74 1388.71 L1450.74 1388.71 L1401.26 1388.71 
  L1401.26 1388.71 L1351.78 1388.71 L1351.78 1388.71 L1302.3 1388.71 L1302.3 1388.71 L1252.82 1388.71 L1252.82 1388.71 L1203.35 1388.71 L1203.35 1388.71 L1153.87 1388.71 
  L1153.87 1388.71 L1104.39 1388.71 L1104.39 1388.71 L1054.91 1388.71 L1054.91 1388.71 L1005.43 1388.71 L1005.43 1388.71 L955.947 1388.71 L955.947 1388.71 L906.467 1388.71 
  L906.467 1388.71 L856.988 1388.71 L856.988 1388.71 L807.508 1388.71 L807.508 1388.71 L758.029 1388.71 L758.029 1388.71 L708.549 1388.71 L708.549 1388.71 L659.07 1388.71 
  L659.07 1388.71 L609.59 1388.71 L609.59 1388.71 L560.11 1388.71 L560.11 1388.71 L510.631 1388.71 L510.631 1388.71 L461.151 1388.71 L461.151 1388.71 L411.672 1388.71 
  L411.672 1388.71 L362.192 1388.71 L362.192 1388.71 L312.712 1388.71 L312.712 1388.71 L263.233 1388.71  Z
  " fill="#76ee00" fill-rule="evenodd" fill-opacity="1"/>
<polyline clip-path="url(#clip6702)" style="stroke:#3da44d; stroke-width:0; stroke-opacity:1; fill:none" points="
  263.233,1388.71 312.712,1388.71 362.192,1388.71 411.672,1388.71 461.151,1388.71 510.631,1388.71 
  560.11,1388.71 609.59,1388.71 659.07,1388.71 708.549,1388.71 758.029,1388.71 
  807.508,1388.71 856.988,1388.71 906.467,1388.71 955.947,1388.71 1005.43,1388.71 
  1054.91,1388.71 1104.39,1388.71 1153.87,1388.71 1153.87,620.084 1203.35,620.084 1203.35,513.689 1252.82,513.689 
  1252.82,328.983 1302.3,328.983 1302.3,304.254 1351.78,304.254 1351.78,249.81 1401.26,249.81 1401.26,194.408 1450.74,194.408 1450.74,273.006 1500.22,273.006 
  1500.22,338.856 1549.7,338.856 1549.7,462.217 1599.18,462.217 1599.18,574.075 1648.66,574.075 1648.66,1388.71 1698.14,1388.71 1747.62,1388.71 
  1797.1,1388.71 1846.58,1388.71 1896.06,1388.71 1945.54,1388.71 1995.02,1388.71 
  2044.5,1388.71 2093.98,1388.71 2143.46,1388.71 2192.94,1388.71 2242.42,1388.71 
  2291.9,1388.71 
  "/>
<polyline clip-path="url(#clip6702)" style="stroke:#000000; stroke-width:2.8; stroke-opacity:1; fill:none" points="
  263.233,1388.52 312.712,1388.52 312.712,1388.43 362.192,1388.43 362.192,1388.52 411.672,1388.52 411.672,1388.14 461.151,1388.14 461.151,1386.51 510.631,1386.51 
  510.631,1387.56 560.11,1387.56 560.11,1380.85 609.59,1380.85 609.59,1381.14 659.07,1381.14 659.07,1371.37 708.549,1371.37 708.549,1366.96 758.029,1366.96 
  758.029,1353.73 807.508,1353.73 807.508,1321.62 856.988,1321.62 856.988,1274.36 906.467,1274.36 906.467,1213.31 955.947,1213.31 955.947,1143.34 1005.43,1143.34 
  1005.43,1049.5 1054.91,1049.5 1054.91,921.632 1104.39,921.632 1104.39,821.371 1153.87,821.371 1153.87,620.084 1203.35,620.084 1203.35,513.689 1252.82,513.689 
  1252.82,328.983 1302.3,328.983 1302.3,304.254 1351.78,304.254 1351.78,249.81 1401.26,249.81 1401.26,194.408 1450.74,194.408 1450.74,273.006 1500.22,273.006 
  1500.22,338.856 1549.7,338.856 1549.7,462.217 1599.18,462.217 1599.18,574.075 1648.66,574.075 1648.66,746.607 1698.14,746.607 1698.14,884.825 1747.62,884.825 
  1747.62,1014.89 1797.1,1014.89 1797.1,1088.41 1846.58,1088.41 1846.58,1169.79 1896.06,1169.79 1896.06,1265.26 1945.54,1265.26 1945.54,1308.49 1995.02,1308.49 
  1995.02,1336.09 2044.5,1336.09 2044.5,1353.73 2093.98,1353.73 2093.98,1372.71 2143.46,1372.71 2143.46,1381.91 2192.94,1381.91 2192.94,1385.36 2242.42,1385.36 
  2242.42,1388.33 2291.9,1388.33 2291.9,1387.28 
  "/>
<path clip-path="url(#clip6702)" d="
M1167.13 1388.71 L1653.59 1388.71 L1653.59 158.579 L1167.13 158.579 L1167.13 1388.71  Z
  " fill="#808080" fill-rule="evenodd" fill-opacity="0.5"/>
<polyline clip-path="url(#clip6702)" style="stroke:#000000; stroke-width:0; stroke-opacity:1; fill:none" points="
  1167.13,1388.71 1653.59,1388.71 1653.59,158.579 1167.13,158.579 1167.13,1388.71 
  "/>
<polyline clip-path="url(#clip6702)" style="stroke:#696969; stroke-width:4; stroke-opacity:1; fill:none" points="
  1410.36,1388.71 1410.36,158.579 
  "/>
<polyline clip-path="url(#clip6702)" style="stroke:#000000; stroke-width:4; stroke-opacity:1; fill:none" stroke-dasharray="16, 10" points="
  1368.9,1388.71 1368.9,158.579 
  "/>
<polyline clip-path="url(#clip6702)" style="stroke:#000000; stroke-width:4; stroke-opacity:1; fill:none" stroke-dasharray="2, 4" points="
  1426,1388.71 1426,158.579 
  "/>
<path clip-path="url(#clip6700)" d="
M1463.01 689.035 L2280.76 689.035 L2280.76 205.195 L1463.01 205.195  Z
  " fill="#ffffff" fill-rule="evenodd" fill-opacity="1"/>
<polyline clip-path="url(#clip6700)" style="stroke:#000000; stroke-width:4; stroke-opacity:1; fill:none" points="
  1463.01,689.035 2280.76,689.035 2280.76,205.195 1463.01,205.195 1463.01,689.035 
  "/>
<path clip-path="url(#clip6700)" d="
M1487.01 289.867 L1631.01 289.867 L1631.01 241.483 L1487.01 241.483 L1487.01 289.867  Z
  " fill="#ff0000" fill-rule="evenodd" fill-opacity="1"/>
<polyline clip-path="url(#clip6700)" style="stroke:#009af9; stroke-width:0; stroke-opacity:1; fill:none" points="
  1487.01,241.483 1631.01,241.483 
  "/>
<g clip-path="url(#clip6700)">
<text style="fill:#000000; fill-opacity:1; font-family:Arial,Helvetica Neue,Helvetica,sans-serif; font-size:48px; text-anchor:start;" transform="rotate(0, 1655.01, 283.175)" x="1655.01" y="283.175">smallest 99.78% interval(s)</text>
</g>
<path clip-path="url(#clip6700)" d="
M1487.01 350.347 L1631.01 350.347 L1631.01 301.963 L1487.01 301.963 L1487.01 350.347  Z
  " fill="#ffff00" fill-rule="evenodd" fill-opacity="1"/>
<polyline clip-path="url(#clip6700)" style="stroke:#e26f46; stroke-width:0; stroke-opacity:1; fill:none" points="
  1487.01,301.963 1631.01,301.963 
  "/>
<g clip-path="url(#clip6700)">
<text style="fill:#000000; fill-opacity:1; font-family:Arial,Helvetica Neue,Helvetica,sans-serif; font-size:48px; text-anchor:start;" transform="rotate(0, 1655.01, 343.655)" x="1655.01" y="343.655">smallest 95.89% interval(s)</text>
</g>
<path clip-path="url(#clip6700)" d="
M1487.01 410.827 L1631.01 410.827 L1631.01 362.443 L1487.01 362.443 L1487.01 410.827  Z
  " fill="#76ee00" fill-rule="evenodd" fill-opacity="1"/>
<polyline clip-path="url(#clip6700)" style="stroke:#3da44d; stroke-width:0; stroke-opacity:1; fill:none" points="
  1487.01,362.443 1631.01,362.443 
  "/>
<g clip-path="url(#clip6700)">
<text style="fill:#000000; fill-opacity:1; font-family:Arial,Helvetica Neue,Helvetica,sans-serif; font-size:48px; text-anchor:start;" transform="rotate(0, 1655.01, 404.135)" x="1655.01" y="404.135">smallest 69.37% interval(s)</text>
</g>
<path clip-path="url(#clip6700)" d="
M1487.01 471.307 L1631.01 471.307 L1631.01 422.923 L1487.01 422.923 L1487.01 471.307  Z
  " fill="#808080" fill-rule="evenodd" fill-opacity="0.5"/>
<polyline clip-path="url(#clip6700)" style="stroke:#000000; stroke-width:0; stroke-opacity:1; fill:none" points="
  1487.01,471.307 1631.01,471.307 1631.01,422.923 1487.01,422.923 1487.01,471.307 
  "/>
<g clip-path="url(#clip6700)">
<text style="fill:#000000; fill-opacity:1; font-family:Arial,Helvetica Neue,Helvetica,sans-serif; font-size:48px; text-anchor:start;" transform="rotate(0, 1655.01, 464.615)" x="1655.01" y="464.615">std. dev.</text>
</g>
<polyline clip-path="url(#clip6700)" style="stroke:#696969; stroke-width:4; stroke-opacity:1; fill:none" points="
  1487.01,507.595 1631.01,507.595 
  "/>
<g clip-path="url(#clip6700)">
<text style="fill:#000000; fill-opacity:1; font-family:Arial,Helvetica Neue,Helvetica,sans-serif; font-size:48px; text-anchor:start;" transform="rotate(0, 1655.01, 525.095)" x="1655.01" y="525.095">mean</text>
</g>
<polyline clip-path="url(#clip6700)" style="stroke:#000000; stroke-width:4; stroke-opacity:1; fill:none" stroke-dasharray="16, 10" points="
  1487.01,568.075 1631.01,568.075 
  "/>
<g clip-path="url(#clip6700)">
<text style="fill:#000000; fill-opacity:1; font-family:Arial,Helvetica Neue,Helvetica,sans-serif; font-size:48px; text-anchor:start;" transform="rotate(0, 1655.01, 585.575)" x="1655.01" y="585.575">global mode</text>
</g>
<polyline clip-path="url(#clip6700)" style="stroke:#000000; stroke-width:4; stroke-opacity:1; fill:none" stroke-dasharray="2, 4" points="
  1487.01,628.555 1631.01,628.555 
  "/>
<g clip-path="url(#clip6700)">
<text style="fill:#000000; fill-opacity:1; font-family:Arial,Helvetica Neue,Helvetica,sans-serif; font-size:48px; text-anchor:start;" transform="rotate(0, 1655.01, 646.055)" x="1655.01" y="646.055">local mode</text>
</g>
</svg>
