<?xml version="1.0" encoding="utf-8"?>
<svg xmlns="http://www.w3.org/2000/svg" xmlns:xlink="http://www.w3.org/1999/xlink" width="600" height="400" viewBox="0 0 2400 1600">
<defs>
  <clipPath id="clip760">
    <rect x="0" y="0" width="2400" height="1600"/>
  </clipPath>
</defs>
<path clip-path="url(#clip760)" d="
M0 1600 L2400 1600 L2400 0 L0 0  Z
  " fill="#ffffff" fill-rule="evenodd" fill-opacity="1"/>
<defs>
  <clipPath id="clip761">
    <rect x="480" y="0" width="1681" height="1600"/>
  </clipPath>
</defs>
<path clip-path="url(#clip760)" d="
M172.015 1486.45 L2352.76 1486.45 L2352.76 123.472 L172.015 123.472  Z
  " fill="#ffffff" fill-rule="evenodd" fill-opacity="1"/>
<defs>
  <clipPath id="clip762">
    <rect x="172" y="123" width="2182" height="1364"/>
  </clipPath>
</defs>
<polyline clip-path="url(#clip762)" style="stroke:#000000; stroke-linecap:butt; stroke-linejoin:round; stroke-width:2; stroke-opacity:0.1; fill:none" points="
  233.734,1486.45 233.734,123.472 
  "/>
<polyline clip-path="url(#clip762)" style="stroke:#000000; stroke-linecap:butt; stroke-linejoin:round; stroke-width:2; stroke-opacity:0.1; fill:none" points="
  748.06,1486.45 748.06,123.472 
  "/>
<polyline clip-path="url(#clip762)" style="stroke:#000000; stroke-linecap:butt; stroke-linejoin:round; stroke-width:2; stroke-opacity:0.1; fill:none" points="
  1262.39,1486.45 1262.39,123.472 
  "/>
<polyline clip-path="url(#clip762)" style="stroke:#000000; stroke-linecap:butt; stroke-linejoin:round; stroke-width:2; stroke-opacity:0.1; fill:none" points="
  1776.71,1486.45 1776.71,123.472 
  "/>
<polyline clip-path="url(#clip762)" style="stroke:#000000; stroke-linecap:butt; stroke-linejoin:round; stroke-width:2; stroke-opacity:0.1; fill:none" points="
  2291.04,1486.45 2291.04,123.472 
  "/>
<polyline clip-path="url(#clip760)" style="stroke:#000000; stroke-linecap:butt; stroke-linejoin:round; stroke-width:4; stroke-opacity:1; fill:none" points="
  172.015,1486.45 2352.76,1486.45 
  "/>
<polyline clip-path="url(#clip760)" style="stroke:#000000; stroke-linecap:butt; stroke-linejoin:round; stroke-width:4; stroke-opacity:1; fill:none" points="
  233.734,1486.45 233.734,1467.55 
  "/>
<polyline clip-path="url(#clip760)" style="stroke:#000000; stroke-linecap:butt; stroke-linejoin:round; stroke-width:4; stroke-opacity:1; fill:none" points="
  748.06,1486.45 748.06,1467.55 
  "/>
<polyline clip-path="url(#clip760)" style="stroke:#000000; stroke-linecap:butt; stroke-linejoin:round; stroke-width:4; stroke-opacity:1; fill:none" points="
  1262.39,1486.45 1262.39,1467.55 
  "/>
<polyline clip-path="url(#clip760)" style="stroke:#000000; stroke-linecap:butt; stroke-linejoin:round; stroke-width:4; stroke-opacity:1; fill:none" points="
  1776.71,1486.45 1776.71,1467.55 
  "/>
<polyline clip-path="url(#clip760)" style="stroke:#000000; stroke-linecap:butt; stroke-linejoin:round; stroke-width:4; stroke-opacity:1; fill:none" points="
  2291.04,1486.45 2291.04,1467.55 
  "/>
<path clip-path="url(#clip760)" d="M202.635 1532.02 L232.31 1532.02 L232.31 1535.95 L202.635 1535.95 L202.635 1532.02 Z" fill="#000000" fill-rule="evenodd" fill-opacity="1" /><path clip-path="url(#clip760)" d="M255.25 1518.36 L243.445 1536.81 L255.25 1536.81 L255.25 1518.36 M254.023 1514.29 L259.903 1514.29 L259.903 1536.81 L264.833 1536.81 L264.833 1540.7 L259.903 1540.7 L259.903 1548.85 L255.25 1548.85 L255.25 1540.7 L239.648 1540.7 L239.648 1536.19 L254.023 1514.29 Z" fill="#000000" fill-rule="evenodd" fill-opacity="1" /><path clip-path="url(#clip760)" d="M718.002 1532.02 L747.678 1532.02 L747.678 1535.95 L718.002 1535.95 L718.002 1532.02 Z" fill="#000000" fill-rule="evenodd" fill-opacity="1" /><path clip-path="url(#clip760)" d="M761.798 1544.91 L778.117 1544.91 L778.117 1548.85 L756.173 1548.85 L756.173 1544.91 Q758.835 1542.16 763.418 1537.53 Q768.025 1532.88 769.205 1531.53 Q771.451 1529.01 772.33 1527.27 Q773.233 1525.51 773.233 1523.82 Q773.233 1521.07 771.289 1519.33 Q769.367 1517.6 766.266 1517.6 Q764.066 1517.6 761.613 1518.36 Q759.182 1519.13 756.404 1520.68 L756.404 1515.95 Q759.229 1514.82 761.682 1514.24 Q764.136 1513.66 766.173 1513.66 Q771.543 1513.66 774.738 1516.35 Q777.932 1519.03 777.932 1523.52 Q777.932 1525.65 777.122 1527.57 Q776.335 1529.47 774.228 1532.07 Q773.65 1532.74 770.548 1535.95 Q767.446 1539.15 761.798 1544.91 Z" fill="#000000" fill-rule="evenodd" fill-opacity="1" /><path clip-path="url(#clip760)" d="M1262.39 1517.37 Q1258.77 1517.37 1256.95 1520.93 Q1255.14 1524.47 1255.14 1531.6 Q1255.14 1538.71 1256.95 1542.27 Q1258.77 1545.82 1262.39 1545.82 Q1266.02 1545.82 1267.83 1542.27 Q1269.65 1538.71 1269.65 1531.6 Q1269.65 1524.47 1267.83 1520.93 Q1266.02 1517.37 1262.39 1517.37 M1262.39 1513.66 Q1268.2 1513.66 1271.25 1518.27 Q1274.33 1522.85 1274.33 1531.6 Q1274.33 1540.33 1271.25 1544.94 Q1268.2 1549.52 1262.39 1549.52 Q1256.58 1549.52 1253.5 1544.94 Q1250.44 1540.33 1250.44 1531.6 Q1250.44 1522.85 1253.5 1518.27 Q1256.58 1513.66 1262.39 1513.66 Z" fill="#000000" fill-rule="evenodd" fill-opacity="1" /><path clip-path="url(#clip760)" d="M1771.36 1544.91 L1787.68 1544.91 L1787.68 1548.85 L1765.74 1548.85 L1765.74 1544.91 Q1768.4 1542.16 1772.98 1537.53 Q1777.59 1532.88 1778.77 1531.53 Q1781.02 1529.01 1781.9 1527.27 Q1782.8 1525.51 1782.8 1523.82 Q1782.8 1521.07 1780.85 1519.33 Q1778.93 1517.6 1775.83 1517.6 Q1773.63 1517.6 1771.18 1518.36 Q1768.75 1519.13 1765.97 1520.68 L1765.97 1515.95 Q1768.79 1514.82 1771.25 1514.24 Q1773.7 1513.66 1775.74 1513.66 Q1781.11 1513.66 1784.3 1516.35 Q1787.5 1519.03 1787.5 1523.52 Q1787.5 1525.65 1786.69 1527.57 Q1785.9 1529.47 1783.79 1532.07 Q1783.22 1532.74 1780.11 1535.95 Q1777.01 1539.15 1771.36 1544.91 Z" fill="#000000" fill-rule="evenodd" fill-opacity="1" /><path clip-path="url(#clip760)" d="M2294.05 1518.36 L2282.24 1536.81 L2294.05 1536.81 L2294.05 1518.36 M2292.82 1514.29 L2298.7 1514.29 L2298.7 1536.81 L2303.63 1536.81 L2303.63 1540.7 L2298.7 1540.7 L2298.7 1548.85 L2294.05 1548.85 L2294.05 1540.7 L2278.44 1540.7 L2278.44 1536.19 L2292.82 1514.29 Z" fill="#000000" fill-rule="evenodd" fill-opacity="1" /><polyline clip-path="url(#clip762)" style="stroke:#000000; stroke-linecap:butt; stroke-linejoin:round; stroke-width:2; stroke-opacity:0.1; fill:none" points="
  172.015,1447.87 2352.76,1447.87 
  "/>
<polyline clip-path="url(#clip762)" style="stroke:#000000; stroke-linecap:butt; stroke-linejoin:round; stroke-width:2; stroke-opacity:0.1; fill:none" points="
  172.015,1138.04 2352.76,1138.04 
  "/>
<polyline clip-path="url(#clip762)" style="stroke:#000000; stroke-linecap:butt; stroke-linejoin:round; stroke-width:2; stroke-opacity:0.1; fill:none" points="
  172.015,828.198 2352.76,828.198 
  "/>
<polyline clip-path="url(#clip762)" style="stroke:#000000; stroke-linecap:butt; stroke-linejoin:round; stroke-width:2; stroke-opacity:0.1; fill:none" points="
  172.015,518.36 2352.76,518.36 
  "/>
<polyline clip-path="url(#clip762)" style="stroke:#000000; stroke-linecap:butt; stroke-linejoin:round; stroke-width:2; stroke-opacity:0.1; fill:none" points="
  172.015,208.523 2352.76,208.523 
  "/>
<polyline clip-path="url(#clip760)" style="stroke:#000000; stroke-linecap:butt; stroke-linejoin:round; stroke-width:4; stroke-opacity:1; fill:none" points="
  172.015,1486.45 172.015,123.472 
  "/>
<polyline clip-path="url(#clip760)" style="stroke:#000000; stroke-linecap:butt; stroke-linejoin:round; stroke-width:4; stroke-opacity:1; fill:none" points="
  172.015,1447.87 190.912,1447.87 
  "/>
<polyline clip-path="url(#clip760)" style="stroke:#000000; stroke-linecap:butt; stroke-linejoin:round; stroke-width:4; stroke-opacity:1; fill:none" points="
  172.015,1138.04 190.912,1138.04 
  "/>
<polyline clip-path="url(#clip760)" style="stroke:#000000; stroke-linecap:butt; stroke-linejoin:round; stroke-width:4; stroke-opacity:1; fill:none" points="
  172.015,828.198 190.912,828.198 
  "/>
<polyline clip-path="url(#clip760)" style="stroke:#000000; stroke-linecap:butt; stroke-linejoin:round; stroke-width:4; stroke-opacity:1; fill:none" points="
  172.015,518.36 190.912,518.36 
  "/>
<polyline clip-path="url(#clip760)" style="stroke:#000000; stroke-linecap:butt; stroke-linejoin:round; stroke-width:4; stroke-opacity:1; fill:none" points="
  172.015,208.523 190.912,208.523 
  "/>
<path clip-path="url(#clip760)" d="M124.07 1433.67 Q120.459 1433.67 118.631 1437.24 Q116.825 1440.78 116.825 1447.91 Q116.825 1455.01 118.631 1458.58 Q120.459 1462.12 124.07 1462.12 Q127.705 1462.12 129.51 1458.58 Q131.339 1455.01 131.339 1447.91 Q131.339 1440.78 129.51 1437.24 Q127.705 1433.67 124.07 1433.67 M124.07 1429.97 Q129.881 1429.97 132.936 1434.57 Q136.015 1439.16 136.015 1447.91 Q136.015 1456.63 132.936 1461.24 Q129.881 1465.82 124.07 1465.82 Q118.26 1465.82 115.182 1461.24 Q112.126 1456.63 112.126 1447.91 Q112.126 1439.16 115.182 1434.57 Q118.26 1429.97 124.07 1429.97 Z" fill="#000000" fill-rule="evenodd" fill-opacity="1" /><path clip-path="url(#clip760)" d="M57.7745 1151.38 L74.0939 1151.38 L74.0939 1155.32 L52.1495 1155.32 L52.1495 1151.38 Q54.8115 1148.63 59.3949 1144 Q64.0013 1139.34 65.1819 1138 Q67.4272 1135.48 68.3068 1133.74 Q69.2096 1131.98 69.2096 1130.29 Q69.2096 1127.54 67.2652 1125.8 Q65.3439 1124.07 62.2421 1124.07 Q60.043 1124.07 57.5893 1124.83 Q55.1588 1125.59 52.381 1127.14 L52.381 1122.42 Q55.2051 1121.29 57.6588 1120.71 Q60.1124 1120.13 62.1495 1120.13 Q67.5198 1120.13 70.7142 1122.82 Q73.9087 1125.5 73.9087 1129.99 Q73.9087 1132.12 73.0985 1134.04 Q72.3115 1135.94 70.205 1138.53 Q69.6263 1139.2 66.5245 1142.42 Q63.4226 1145.62 57.7745 1151.38 Z" fill="#000000" fill-rule="evenodd" fill-opacity="1" /><path clip-path="url(#clip760)" d="M93.9086 1123.83 Q90.2975 1123.83 88.4688 1127.4 Q86.6632 1130.94 86.6632 1138.07 Q86.6632 1145.18 88.4688 1148.74 Q90.2975 1152.28 93.9086 1152.28 Q97.5428 1152.28 99.3483 1148.74 Q101.177 1145.18 101.177 1138.07 Q101.177 1130.94 99.3483 1127.4 Q97.5428 1123.83 93.9086 1123.83 M93.9086 1120.13 Q99.7187 1120.13 102.774 1124.74 Q105.853 1129.32 105.853 1138.07 Q105.853 1146.8 102.774 1151.4 Q99.7187 1155.99 93.9086 1155.99 Q88.0984 1155.99 85.0197 1151.4 Q81.9642 1146.8 81.9642 1138.07 Q81.9642 1129.32 85.0197 1124.74 Q88.0984 1120.13 93.9086 1120.13 Z" fill="#000000" fill-rule="evenodd" fill-opacity="1" /><path clip-path="url(#clip760)" d="M124.07 1123.83 Q120.459 1123.83 118.631 1127.4 Q116.825 1130.94 116.825 1138.07 Q116.825 1145.18 118.631 1148.74 Q120.459 1152.28 124.07 1152.28 Q127.705 1152.28 129.51 1148.74 Q131.339 1145.18 131.339 1138.07 Q131.339 1130.94 129.51 1127.4 Q127.705 1123.83 124.07 1123.83 M124.07 1120.13 Q129.881 1120.13 132.936 1124.74 Q136.015 1129.32 136.015 1138.07 Q136.015 1146.8 132.936 1151.4 Q129.881 1155.99 124.07 1155.99 Q118.26 1155.99 115.182 1151.4 Q112.126 1146.8 112.126 1138.07 Q112.126 1129.32 115.182 1124.74 Q118.26 1120.13 124.07 1120.13 Z" fill="#000000" fill-rule="evenodd" fill-opacity="1" /><path clip-path="url(#clip760)" d="M66.5939 814.992 L54.7884 833.441 L66.5939 833.441 L66.5939 814.992 M65.367 810.918 L71.2466 810.918 L71.2466 833.441 L76.1772 833.441 L76.1772 837.33 L71.2466 837.33 L71.2466 845.478 L66.5939 845.478 L66.5939 837.33 L50.9921 837.33 L50.9921 832.816 L65.367 810.918 Z" fill="#000000" fill-rule="evenodd" fill-opacity="1" /><path clip-path="url(#clip760)" d="M93.9086 813.997 Q90.2975 813.997 88.4688 817.561 Q86.6632 821.103 86.6632 828.233 Q86.6632 835.339 88.4688 838.904 Q90.2975 842.445 93.9086 842.445 Q97.5428 842.445 99.3483 838.904 Q101.177 835.339 101.177 828.233 Q101.177 821.103 99.3483 817.561 Q97.5428 813.997 93.9086 813.997 M93.9086 810.293 Q99.7187 810.293 102.774 814.899 Q105.853 819.483 105.853 828.233 Q105.853 836.959 102.774 841.566 Q99.7187 846.149 93.9086 846.149 Q88.0984 846.149 85.0197 841.566 Q81.9642 836.959 81.9642 828.233 Q81.9642 819.483 85.0197 814.899 Q88.0984 810.293 93.9086 810.293 Z" fill="#000000" fill-rule="evenodd" fill-opacity="1" /><path clip-path="url(#clip760)" d="M124.07 813.997 Q120.459 813.997 118.631 817.561 Q116.825 821.103 116.825 828.233 Q116.825 835.339 118.631 838.904 Q120.459 842.445 124.07 842.445 Q127.705 842.445 129.51 838.904 Q131.339 835.339 131.339 828.233 Q131.339 821.103 129.51 817.561 Q127.705 813.997 124.07 813.997 M124.07 810.293 Q129.881 810.293 132.936 814.899 Q136.015 819.483 136.015 828.233 Q136.015 836.959 132.936 841.566 Q129.881 846.149 124.07 846.149 Q118.26 846.149 115.182 841.566 Q112.126 836.959 112.126 828.233 Q112.126 819.483 115.182 814.899 Q118.26 810.293 124.07 810.293 Z" fill="#000000" fill-rule="evenodd" fill-opacity="1" /><path clip-path="url(#clip760)" d="M64.3254 516.497 Q61.1773 516.497 59.3254 518.65 Q57.4967 520.802 57.4967 524.552 Q57.4967 528.279 59.3254 530.455 Q61.1773 532.608 64.3254 532.608 Q67.4735 532.608 69.3022 530.455 Q71.1541 528.279 71.1541 524.552 Q71.1541 520.802 69.3022 518.65 Q67.4735 516.497 64.3254 516.497 M73.6077 501.844 L73.6077 506.103 Q71.8485 505.27 70.0429 504.83 Q68.2606 504.39 66.5013 504.39 Q61.8717 504.39 59.418 507.515 Q56.9875 510.64 56.6402 516.96 Q58.006 514.946 60.0662 513.881 Q62.1263 512.793 64.6032 512.793 Q69.8115 512.793 72.8207 515.964 Q75.8531 519.113 75.8531 524.552 Q75.8531 529.876 72.705 533.094 Q69.5568 536.311 64.3254 536.311 Q58.33 536.311 55.1588 531.728 Q51.9875 527.122 51.9875 518.395 Q51.9875 510.201 55.8764 505.339 Q59.7652 500.455 66.3161 500.455 Q68.0754 500.455 69.8578 500.802 Q71.6633 501.15 73.6077 501.844 Z" fill="#000000" fill-rule="evenodd" fill-opacity="1" /><path clip-path="url(#clip760)" d="M93.9086 504.159 Q90.2975 504.159 88.4688 507.724 Q86.6632 511.265 86.6632 518.395 Q86.6632 525.501 88.4688 529.066 Q90.2975 532.608 93.9086 532.608 Q97.5428 532.608 99.3483 529.066 Q101.177 525.501 101.177 518.395 Q101.177 511.265 99.3483 507.724 Q97.5428 504.159 93.9086 504.159 M93.9086 500.455 Q99.7187 500.455 102.774 505.062 Q105.853 509.645 105.853 518.395 Q105.853 527.122 102.774 531.728 Q99.7187 536.311 93.9086 536.311 Q88.0984 536.311 85.0197 531.728 Q81.9642 527.122 81.9642 518.395 Q81.9642 509.645 85.0197 505.062 Q88.0984 500.455 93.9086 500.455 Z" fill="#000000" fill-rule="evenodd" fill-opacity="1" /><path clip-path="url(#clip760)" d="M124.07 504.159 Q120.459 504.159 118.631 507.724 Q116.825 511.265 116.825 518.395 Q116.825 525.501 118.631 529.066 Q120.459 532.608 124.07 532.608 Q127.705 532.608 129.51 529.066 Q131.339 525.501 131.339 518.395 Q131.339 511.265 129.51 507.724 Q127.705 504.159 124.07 504.159 M124.07 500.455 Q129.881 500.455 132.936 505.062 Q136.015 509.645 136.015 518.395 Q136.015 527.122 132.936 531.728 Q129.881 536.311 124.07 536.311 Q118.26 536.311 115.182 531.728 Q112.126 527.122 112.126 518.395 Q112.126 509.645 115.182 505.062 Q118.26 500.455 124.07 500.455 Z" fill="#000000" fill-rule="evenodd" fill-opacity="1" /><path clip-path="url(#clip760)" d="M63.7467 209.391 Q60.4134 209.391 58.4921 211.173 Q56.5939 212.955 56.5939 216.08 Q56.5939 219.205 58.4921 220.988 Q60.4134 222.77 63.7467 222.77 Q67.08 222.77 69.0013 220.988 Q70.9226 219.182 70.9226 216.08 Q70.9226 212.955 69.0013 211.173 Q67.1032 209.391 63.7467 209.391 M59.0708 207.4 Q56.0615 206.659 54.3717 204.599 Q52.7051 202.539 52.7051 199.576 Q52.7051 195.432 55.6449 193.025 Q58.6078 190.618 63.7467 190.618 Q68.9087 190.618 71.8485 193.025 Q74.7883 195.432 74.7883 199.576 Q74.7883 202.539 73.0985 204.599 Q71.4318 206.659 68.4457 207.4 Q71.8253 208.187 73.7003 210.479 Q75.5985 212.77 75.5985 216.08 Q75.5985 221.104 72.5198 223.789 Q69.4642 226.474 63.7467 226.474 Q58.0291 226.474 54.9504 223.789 Q51.8949 221.104 51.8949 216.08 Q51.8949 212.77 53.793 210.479 Q55.6912 208.187 59.0708 207.4 M57.3578 200.016 Q57.3578 202.701 59.0245 204.205 Q60.7143 205.71 63.7467 205.71 Q66.7559 205.71 68.4457 204.205 Q70.1587 202.701 70.1587 200.016 Q70.1587 197.33 68.4457 195.826 Q66.7559 194.321 63.7467 194.321 Q60.7143 194.321 59.0245 195.826 Q57.3578 197.33 57.3578 200.016 Z" fill="#000000" fill-rule="evenodd" fill-opacity="1" /><path clip-path="url(#clip760)" d="M93.9086 194.321 Q90.2975 194.321 88.4688 197.886 Q86.6632 201.428 86.6632 208.557 Q86.6632 215.664 88.4688 219.229 Q90.2975 222.77 93.9086 222.77 Q97.5428 222.77 99.3483 219.229 Q101.177 215.664 101.177 208.557 Q101.177 201.428 99.3483 197.886 Q97.5428 194.321 93.9086 194.321 M93.9086 190.618 Q99.7187 190.618 102.774 195.224 Q105.853 199.807 105.853 208.557 Q105.853 217.284 102.774 221.891 Q99.7187 226.474 93.9086 226.474 Q88.0984 226.474 85.0197 221.891 Q81.9642 217.284 81.9642 208.557 Q81.9642 199.807 85.0197 195.224 Q88.0984 190.618 93.9086 190.618 Z" fill="#000000" fill-rule="evenodd" fill-opacity="1" /><path clip-path="url(#clip760)" d="M124.07 194.321 Q120.459 194.321 118.631 197.886 Q116.825 201.428 116.825 208.557 Q116.825 215.664 118.631 219.229 Q120.459 222.77 124.07 222.77 Q127.705 222.77 129.51 219.229 Q131.339 215.664 131.339 208.557 Q131.339 201.428 129.51 197.886 Q127.705 194.321 124.07 194.321 M124.07 190.618 Q129.881 190.618 132.936 195.224 Q136.015 199.807 136.015 208.557 Q136.015 217.284 132.936 221.891 Q129.881 226.474 124.07 226.474 Q118.26 226.474 115.182 221.891 Q112.126 217.284 112.126 208.557 Q112.126 199.807 115.182 195.224 Q118.26 190.618 124.07 190.618 Z" fill="#000000" fill-rule="evenodd" fill-opacity="1" /><path clip-path="url(#clip760)" d="M631.092 18.8205 L631.092 65.8515 L640.977 65.8515 Q653.494 65.8515 659.287 60.1802 Q665.12 54.509 665.12 42.2752 Q665.12 30.1225 659.287 24.4918 Q653.494 18.8205 640.977 18.8205 L631.092 18.8205 M622.91 12.096 L639.721 12.096 Q657.302 12.096 665.525 19.4281 Q673.748 26.7198 673.748 42.2752 Q673.748 57.9117 665.485 65.2439 Q657.221 72.576 639.721 72.576 L622.91 72.576 L622.91 12.096 Z" fill="#000000" fill-rule="evenodd" fill-opacity="1" /><path clip-path="url(#clip760)" d="M707.087 49.7694 Q698.054 49.7694 694.57 51.8354 Q691.086 53.9013 691.086 58.8839 Q691.086 62.8538 693.679 65.2034 Q696.312 67.5124 700.809 67.5124 Q707.006 67.5124 710.733 63.1374 Q714.501 58.7219 714.501 51.4303 L714.501 49.7694 L707.087 49.7694 M721.954 46.6907 L721.954 72.576 L714.501 72.576 L714.501 65.6895 Q711.948 69.8214 708.141 71.8063 Q704.333 73.7508 698.824 73.7508 Q691.856 73.7508 687.724 69.8619 Q683.633 65.9325 683.633 59.3701 Q683.633 51.7138 688.737 47.825 Q693.881 43.9361 704.049 43.9361 L714.501 43.9361 L714.501 43.2069 Q714.501 38.0623 711.098 35.2672 Q707.736 32.4315 701.619 32.4315 Q697.73 32.4315 694.044 33.3632 Q690.357 34.295 686.954 36.1584 L686.954 29.2718 Q691.046 27.692 694.894 26.9223 Q698.743 26.1121 702.388 26.1121 Q712.232 26.1121 717.093 31.2163 Q721.954 36.3204 721.954 46.6907 Z" fill="#000000" fill-rule="evenodd" fill-opacity="1" /><path clip-path="url(#clip760)" d="M744.68 14.324 L744.68 27.2059 L760.033 27.2059 L760.033 32.9987 L744.68 32.9987 L744.68 57.6282 Q744.68 63.1779 746.179 64.7578 Q747.718 66.3376 752.377 66.3376 L760.033 66.3376 L760.033 72.576 L752.377 72.576 Q743.748 72.576 740.467 69.3758 Q737.186 66.1351 737.186 57.6282 L737.186 32.9987 L731.717 32.9987 L731.717 27.2059 L737.186 27.2059 L737.186 14.324 L744.68 14.324 Z" fill="#000000" fill-rule="evenodd" fill-opacity="1" /><path clip-path="url(#clip760)" d="M790.455 49.7694 Q781.422 49.7694 777.938 51.8354 Q774.454 53.9013 774.454 58.8839 Q774.454 62.8538 777.047 65.2034 Q779.68 67.5124 784.176 67.5124 Q790.374 67.5124 794.101 63.1374 Q797.868 58.7219 797.868 51.4303 L797.868 49.7694 L790.455 49.7694 M805.322 46.6907 L805.322 72.576 L797.868 72.576 L797.868 65.6895 Q795.316 69.8214 791.508 71.8063 Q787.7 73.7508 782.191 73.7508 Q775.224 73.7508 771.092 69.8619 Q767 65.9325 767 59.3701 Q767 51.7138 772.104 47.825 Q777.249 43.9361 787.417 43.9361 L797.868 43.9361 L797.868 43.2069 Q797.868 38.0623 794.465 35.2672 Q791.103 32.4315 784.986 32.4315 Q781.097 32.4315 777.411 33.3632 Q773.725 34.295 770.322 36.1584 L770.322 29.2718 Q774.413 27.692 778.262 26.9223 Q782.11 26.1121 785.756 26.1121 Q795.6 26.1121 800.461 31.2163 Q805.322 36.3204 805.322 46.6907 Z" fill="#000000" fill-rule="evenodd" fill-opacity="1" /><path clip-path="url(#clip760)" d="M867.665 49.7694 Q858.632 49.7694 855.148 51.8354 Q851.664 53.9013 851.664 58.8839 Q851.664 62.8538 854.257 65.2034 Q856.89 67.5124 861.386 67.5124 Q867.584 67.5124 871.311 63.1374 Q875.078 58.7219 875.078 51.4303 L875.078 49.7694 L867.665 49.7694 M882.532 46.6907 L882.532 72.576 L875.078 72.576 L875.078 65.6895 Q872.526 69.8214 868.718 71.8063 Q864.911 73.7508 859.401 73.7508 Q852.434 73.7508 848.302 69.8619 Q844.211 65.9325 844.211 59.3701 Q844.211 51.7138 849.315 47.825 Q854.459 43.9361 864.627 43.9361 L875.078 43.9361 L875.078 43.2069 Q875.078 38.0623 871.676 35.2672 Q868.313 32.4315 862.197 32.4315 Q858.308 32.4315 854.621 33.3632 Q850.935 34.295 847.532 36.1584 L847.532 29.2718 Q851.624 27.692 855.472 26.9223 Q859.32 26.1121 862.966 26.1121 Q872.81 26.1121 877.671 31.2163 Q882.532 36.3204 882.532 46.6907 Z" fill="#000000" fill-rule="evenodd" fill-opacity="1" /><path clip-path="url(#clip760)" d="M935.599 45.1919 L935.599 72.576 L928.145 72.576 L928.145 45.4349 Q928.145 38.994 925.634 35.7938 Q923.122 32.5936 918.099 32.5936 Q912.063 32.5936 908.579 36.4419 Q905.096 40.2903 905.096 46.9338 L905.096 72.576 L897.601 72.576 L897.601 27.2059 L905.096 27.2059 L905.096 34.2544 Q907.769 30.163 911.375 28.1376 Q915.02 26.1121 919.76 26.1121 Q927.578 26.1121 931.589 30.9732 Q935.599 35.7938 935.599 45.1919 Z" fill="#000000" fill-rule="evenodd" fill-opacity="1" /><path clip-path="url(#clip760)" d="M980.321 34.0924 L980.321 9.54393 L987.775 9.54393 L987.775 72.576 L980.321 72.576 L980.321 65.7705 Q977.971 69.8214 974.366 71.8063 Q970.801 73.7508 965.778 73.7508 Q957.555 73.7508 952.37 67.1883 Q947.225 60.6258 947.225 49.9314 Q947.225 39.2371 952.37 32.6746 Q957.555 26.1121 965.778 26.1121 Q970.801 26.1121 974.366 28.0971 Q977.971 30.0415 980.321 34.0924 M954.922 49.9314 Q954.922 58.1548 958.284 62.8538 Q961.687 67.5124 967.601 67.5124 Q973.515 67.5124 976.918 62.8538 Q980.321 58.1548 980.321 49.9314 Q980.321 41.7081 976.918 37.0496 Q973.515 32.3505 967.601 32.3505 Q961.687 32.3505 958.284 37.0496 Q954.922 41.7081 954.922 49.9314 Z" fill="#000000" fill-rule="evenodd" fill-opacity="1" /><path clip-path="url(#clip760)" d="M1021.44 12.096 L1072.6 12.096 L1072.6 18.9825 L1051.13 18.9825 L1051.13 72.576 L1042.91 72.576 L1042.91 18.9825 L1021.44 18.9825 L1021.44 12.096 Z" fill="#000000" fill-rule="evenodd" fill-opacity="1" /><path clip-path="url(#clip760)" d="M1094.27 34.1734 Q1093.02 33.4443 1091.52 33.1202 Q1090.06 32.7556 1088.28 32.7556 Q1081.96 32.7556 1078.56 36.8875 Q1075.19 40.9789 1075.19 48.6757 L1075.19 72.576 L1067.7 72.576 L1067.7 27.2059 L1075.19 27.2059 L1075.19 34.2544 Q1077.54 30.1225 1081.31 28.1376 Q1085.08 26.1121 1090.46 26.1121 Q1091.23 26.1121 1092.17 26.2337 Q1093.1 26.3147 1094.23 26.5172 L1094.27 34.1734 Z" fill="#000000" fill-rule="evenodd" fill-opacity="1" /><path clip-path="url(#clip760)" d="M1101.32 54.671 L1101.32 27.2059 L1108.78 27.2059 L1108.78 54.3874 Q1108.78 60.8284 1111.29 64.0691 Q1113.8 67.2693 1118.82 67.2693 Q1124.86 67.2693 1128.34 63.421 Q1131.87 59.5726 1131.87 52.9291 L1131.87 27.2059 L1139.32 27.2059 L1139.32 72.576 L1131.87 72.576 L1131.87 65.6084 Q1129.15 69.7404 1125.55 71.7658 Q1121.98 73.7508 1117.24 73.7508 Q1109.42 73.7508 1105.37 68.8897 Q1101.32 64.0286 1101.32 54.671 M1120.08 26.1121 L1120.08 26.1121 Z" fill="#000000" fill-rule="evenodd" fill-opacity="1" /><path clip-path="url(#clip760)" d="M1193.48 48.0275 L1193.48 51.6733 L1159.21 51.6733 Q1159.69 59.3701 1163.83 63.421 Q1168 67.4314 1175.41 67.4314 Q1179.71 67.4314 1183.72 66.3781 Q1187.77 65.3249 1191.74 63.2184 L1191.74 70.267 Q1187.73 71.9684 1183.51 72.8596 Q1179.3 73.7508 1174.97 73.7508 Q1164.11 73.7508 1157.75 67.4314 Q1151.43 61.1119 1151.43 50.3365 Q1151.43 39.1965 1157.43 32.6746 Q1163.46 26.1121 1173.67 26.1121 Q1182.83 26.1121 1188.13 32.0264 Q1193.48 37.9003 1193.48 48.0275 M1186.03 45.84 Q1185.94 39.7232 1182.58 36.0774 Q1179.26 32.4315 1173.75 32.4315 Q1167.51 32.4315 1163.75 35.9558 Q1160.02 39.4801 1159.45 45.8805 L1186.03 45.84 Z" fill="#000000" fill-rule="evenodd" fill-opacity="1" /><path clip-path="url(#clip760)" d="M1268.66 14.0809 L1268.66 22.0612 Q1264.01 19.8332 1259.87 18.7395 Q1255.74 17.6457 1251.89 17.6457 Q1245.21 17.6457 1241.56 20.2383 Q1237.96 22.8309 1237.96 27.611 Q1237.96 31.6214 1240.35 33.6873 Q1242.78 35.7128 1249.5 36.9686 L1254.45 37.9813 Q1263.6 39.7232 1267.94 44.1387 Q1272.31 48.5136 1272.31 55.8863 Q1272.31 64.6767 1266.4 69.2137 Q1260.52 73.7508 1249.14 73.7508 Q1244.84 73.7508 1239.98 72.7785 Q1235.16 71.8063 1229.98 69.9024 L1229.98 61.4765 Q1234.96 64.2716 1239.74 65.6895 Q1244.52 67.1073 1249.14 67.1073 Q1256.15 67.1073 1259.95 64.3527 Q1263.76 61.598 1263.76 56.4939 Q1263.76 52.0379 1261.01 49.5264 Q1258.29 47.0148 1252.06 45.759 L1247.07 44.7868 Q1237.92 42.9639 1233.83 39.075 Q1229.74 35.1862 1229.74 28.2591 Q1229.74 20.2383 1235.37 15.6203 Q1241.04 11.0023 1250.96 11.0023 Q1255.22 11.0023 1259.63 11.7719 Q1264.05 12.5416 1268.66 14.0809 Z" fill="#000000" fill-rule="evenodd" fill-opacity="1" /><path clip-path="url(#clip760)" d="M1292.12 14.324 L1292.12 27.2059 L1307.47 27.2059 L1307.47 32.9987 L1292.12 32.9987 L1292.12 57.6282 Q1292.12 63.1779 1293.62 64.7578 Q1295.16 66.3376 1299.82 66.3376 L1307.47 66.3376 L1307.47 72.576 L1299.82 72.576 Q1291.19 72.576 1287.91 69.3758 Q1284.62 66.1351 1284.62 57.6282 L1284.62 32.9987 L1279.16 32.9987 L1279.16 27.2059 L1284.62 27.2059 L1284.62 14.324 L1292.12 14.324 Z" fill="#000000" fill-rule="evenodd" fill-opacity="1" /><path clip-path="url(#clip760)" d="M1337.89 49.7694 Q1328.86 49.7694 1325.38 51.8354 Q1321.89 53.9013 1321.89 58.8839 Q1321.89 62.8538 1324.49 65.2034 Q1327.12 67.5124 1331.62 67.5124 Q1337.81 67.5124 1341.54 63.1374 Q1345.31 58.7219 1345.31 51.4303 L1345.31 49.7694 L1337.89 49.7694 M1352.76 46.6907 L1352.76 72.576 L1345.31 72.576 L1345.31 65.6895 Q1342.76 69.8214 1338.95 71.8063 Q1335.14 73.7508 1329.63 73.7508 Q1322.66 73.7508 1318.53 69.8619 Q1314.44 65.9325 1314.44 59.3701 Q1314.44 51.7138 1319.54 47.825 Q1324.69 43.9361 1334.86 43.9361 L1345.31 43.9361 L1345.31 43.2069 Q1345.31 38.0623 1341.9 35.2672 Q1338.54 32.4315 1332.43 32.4315 Q1328.54 32.4315 1324.85 33.3632 Q1321.16 34.295 1317.76 36.1584 L1317.76 29.2718 Q1321.85 27.692 1325.7 26.9223 Q1329.55 26.1121 1333.2 26.1121 Q1343.04 26.1121 1347.9 31.2163 Q1352.76 36.3204 1352.76 46.6907 Z" fill="#000000" fill-rule="evenodd" fill-opacity="1" /><path clip-path="url(#clip760)" d="M1375.49 14.324 L1375.49 27.2059 L1390.84 27.2059 L1390.84 32.9987 L1375.49 32.9987 L1375.49 57.6282 Q1375.49 63.1779 1376.99 64.7578 Q1378.52 66.3376 1383.18 66.3376 L1390.84 66.3376 L1390.84 72.576 L1383.18 72.576 Q1374.55 72.576 1371.27 69.3758 Q1367.99 66.1351 1367.99 57.6282 L1367.99 32.9987 L1362.52 32.9987 L1362.52 27.2059 L1367.99 27.2059 L1367.99 14.324 L1375.49 14.324 Z" fill="#000000" fill-rule="evenodd" fill-opacity="1" /><path clip-path="url(#clip760)" d="M1400.64 27.2059 L1408.1 27.2059 L1408.1 72.576 L1400.64 72.576 L1400.64 27.2059 M1400.64 9.54393 L1408.1 9.54393 L1408.1 18.9825 L1400.64 18.9825 L1400.64 9.54393 Z" fill="#000000" fill-rule="evenodd" fill-opacity="1" /><path clip-path="url(#clip760)" d="M1452.62 28.5427 L1452.62 35.5912 Q1449.46 33.9709 1446.05 33.1607 Q1442.65 32.3505 1439 32.3505 Q1433.46 32.3505 1430.66 34.0519 Q1427.91 35.7533 1427.91 39.156 Q1427.91 41.7486 1429.89 43.2475 Q1431.88 44.7058 1437.87 46.0426 L1440.42 46.6097 Q1448.36 48.3111 1451.68 51.4303 Q1455.05 54.509 1455.05 60.0587 Q1455.05 66.3781 1450.02 70.0644 Q1445.04 73.7508 1436.29 73.7508 Q1432.64 73.7508 1428.67 73.0216 Q1424.75 72.3329 1420.37 70.9151 L1420.37 63.2184 Q1424.5 65.3654 1428.51 66.4591 Q1432.52 67.5124 1436.45 67.5124 Q1441.72 67.5124 1444.55 65.73 Q1447.39 63.9071 1447.39 60.6258 Q1447.39 57.5877 1445.32 55.9673 Q1443.3 54.3469 1436.37 52.8481 L1433.78 52.2405 Q1426.85 50.7821 1423.77 47.7845 Q1420.69 44.7463 1420.69 39.4801 Q1420.69 33.0797 1425.23 29.5959 Q1429.77 26.1121 1438.11 26.1121 Q1442.25 26.1121 1445.89 26.7198 Q1449.54 27.3274 1452.62 28.5427 Z" fill="#000000" fill-rule="evenodd" fill-opacity="1" /><path clip-path="url(#clip760)" d="M1474.29 14.324 L1474.29 27.2059 L1489.64 27.2059 L1489.64 32.9987 L1474.29 32.9987 L1474.29 57.6282 Q1474.29 63.1779 1475.79 64.7578 Q1477.33 66.3376 1481.98 66.3376 L1489.64 66.3376 L1489.64 72.576 L1481.98 72.576 Q1473.36 72.576 1470.08 69.3758 Q1466.79 66.1351 1466.79 57.6282 L1466.79 32.9987 L1461.33 32.9987 L1461.33 27.2059 L1466.79 27.2059 L1466.79 14.324 L1474.29 14.324 Z" fill="#000000" fill-rule="evenodd" fill-opacity="1" /><path clip-path="url(#clip760)" d="M1499.44 27.2059 L1506.9 27.2059 L1506.9 72.576 L1499.44 72.576 L1499.44 27.2059 M1499.44 9.54393 L1506.9 9.54393 L1506.9 18.9825 L1499.44 18.9825 L1499.44 9.54393 Z" fill="#000000" fill-rule="evenodd" fill-opacity="1" /><path clip-path="url(#clip760)" d="M1555.14 28.9478 L1555.14 35.9153 Q1551.98 34.1734 1548.78 33.3227 Q1545.62 32.4315 1542.38 32.4315 Q1535.13 32.4315 1531.12 37.0496 Q1527.11 41.6271 1527.11 49.9314 Q1527.11 58.2358 1531.12 62.8538 Q1535.13 67.4314 1542.38 67.4314 Q1545.62 67.4314 1548.78 66.5807 Q1551.98 65.6895 1555.14 63.9476 L1555.14 70.8341 Q1552.03 72.2924 1548.66 73.0216 Q1545.34 73.7508 1541.57 73.7508 Q1531.32 73.7508 1525.29 67.3098 Q1519.25 60.8689 1519.25 49.9314 Q1519.25 38.832 1525.33 32.472 Q1531.45 26.1121 1542.06 26.1121 Q1545.5 26.1121 1548.78 26.8413 Q1552.07 27.5299 1555.14 28.9478 Z" fill="#000000" fill-rule="evenodd" fill-opacity="1" /><path clip-path="url(#clip760)" d="M1588.73 49.7694 Q1579.69 49.7694 1576.21 51.8354 Q1572.73 53.9013 1572.73 58.8839 Q1572.73 62.8538 1575.32 65.2034 Q1577.95 67.5124 1582.45 67.5124 Q1588.65 67.5124 1592.37 63.1374 Q1596.14 58.7219 1596.14 51.4303 L1596.14 49.7694 L1588.73 49.7694 M1603.59 46.6907 L1603.59 72.576 L1596.14 72.576 L1596.14 65.6895 Q1593.59 69.8214 1589.78 71.8063 Q1585.97 73.7508 1580.46 73.7508 Q1573.49 73.7508 1569.36 69.8619 Q1565.27 65.9325 1565.27 59.3701 Q1565.27 51.7138 1570.38 47.825 Q1575.52 43.9361 1585.69 43.9361 L1596.14 43.9361 L1596.14 43.2069 Q1596.14 38.0623 1592.74 35.2672 Q1589.37 32.4315 1583.26 32.4315 Q1579.37 32.4315 1575.68 33.3632 Q1572 34.295 1568.59 36.1584 L1568.59 29.2718 Q1572.68 27.692 1576.53 26.9223 Q1580.38 26.1121 1584.03 26.1121 Q1593.87 26.1121 1598.73 31.2163 Q1603.59 36.3204 1603.59 46.6907 Z" fill="#000000" fill-rule="evenodd" fill-opacity="1" /><path clip-path="url(#clip760)" d="M1618.95 9.54393 L1626.4 9.54393 L1626.4 72.576 L1618.95 72.576 L1618.95 9.54393 Z" fill="#000000" fill-rule="evenodd" fill-opacity="1" /><path clip-path="url(#clip760)" d="M1668.69 12.096 L1680.88 12.096 L1696.32 53.2532 L1711.83 12.096 L1724.03 12.096 L1724.03 72.576 L1716.05 72.576 L1716.05 19.4686 L1700.45 60.9499 L1692.23 60.9499 L1676.63 19.4686 L1676.63 72.576 L1668.69 72.576 L1668.69 12.096 Z" fill="#000000" fill-rule="evenodd" fill-opacity="1" /><path clip-path="url(#clip760)" d="M1757.53 32.4315 Q1751.53 32.4315 1748.05 37.1306 Q1744.56 41.7891 1744.56 49.9314 Q1744.56 58.0738 1748.01 62.7728 Q1751.49 67.4314 1757.53 67.4314 Q1763.48 67.4314 1766.97 62.7323 Q1770.45 58.0333 1770.45 49.9314 Q1770.45 41.8701 1766.97 37.1711 Q1763.48 32.4315 1757.53 32.4315 M1757.53 26.1121 Q1767.25 26.1121 1772.8 32.4315 Q1778.35 38.7509 1778.35 49.9314 Q1778.35 61.0714 1772.8 67.4314 Q1767.25 73.7508 1757.53 73.7508 Q1747.76 73.7508 1742.21 67.4314 Q1736.71 61.0714 1736.71 49.9314 Q1736.71 38.7509 1742.21 32.4315 Q1747.76 26.1121 1757.53 26.1121 Z" fill="#000000" fill-rule="evenodd" fill-opacity="1" /><path clip-path="url(#clip760)" d="M1820.56 34.0924 L1820.56 9.54393 L1828.01 9.54393 L1828.01 72.576 L1820.56 72.576 L1820.56 65.7705 Q1818.21 69.8214 1814.6 71.8063 Q1811.04 73.7508 1806.02 73.7508 Q1797.79 73.7508 1792.61 67.1883 Q1787.46 60.6258 1787.46 49.9314 Q1787.46 39.2371 1792.61 32.6746 Q1797.79 26.1121 1806.02 26.1121 Q1811.04 26.1121 1814.6 28.0971 Q1818.21 30.0415 1820.56 34.0924 M1795.16 49.9314 Q1795.16 58.1548 1798.52 62.8538 Q1801.93 67.5124 1807.84 67.5124 Q1813.75 67.5124 1817.16 62.8538 Q1820.56 58.1548 1820.56 49.9314 Q1820.56 41.7081 1817.16 37.0496 Q1813.75 32.3505 1807.84 32.3505 Q1801.93 32.3505 1798.52 37.0496 Q1795.16 41.7081 1795.16 49.9314 Z" fill="#000000" fill-rule="evenodd" fill-opacity="1" /><path clip-path="url(#clip760)" d="M1882.17 48.0275 L1882.17 51.6733 L1847.9 51.6733 Q1848.39 59.3701 1852.52 63.421 Q1856.69 67.4314 1864.11 67.4314 Q1868.4 67.4314 1872.41 66.3781 Q1876.46 65.3249 1880.43 63.2184 L1880.43 70.267 Q1876.42 71.9684 1872.21 72.8596 Q1868 73.7508 1863.66 73.7508 Q1852.8 73.7508 1846.44 67.4314 Q1840.13 61.1119 1840.13 50.3365 Q1840.13 39.1965 1846.12 32.6746 Q1852.16 26.1121 1862.36 26.1121 Q1871.52 26.1121 1876.83 32.0264 Q1882.17 37.9003 1882.17 48.0275 M1874.72 45.84 Q1874.64 39.7232 1871.28 36.0774 Q1867.96 32.4315 1862.45 32.4315 Q1856.21 32.4315 1852.44 35.9558 Q1848.71 39.4801 1848.15 45.8805 L1874.72 45.84 Z" fill="#000000" fill-rule="evenodd" fill-opacity="1" /><path clip-path="url(#clip760)" d="M1894.41 9.54393 L1901.86 9.54393 L1901.86 72.576 L1894.41 72.576 L1894.41 9.54393 Z" fill="#000000" fill-rule="evenodd" fill-opacity="1" /><polyline clip-path="url(#clip762)" style="stroke:#009af9; stroke-linecap:butt; stroke-linejoin:round; stroke-width:4; stroke-opacity:1; fill:none" points="
  748.06,1447.87 748.06,1323.94 773.776,1323.94 773.776,1354.92 799.492,1354.92 799.492,1246.48 825.208,1246.48 825.208,1292.95 850.925,1292.95 850.925,998.609 
  876.641,998.609 876.641,983.117 902.357,983.117 902.357,1076.07 928.074,1076.07 928.074,936.641 953.79,936.641 953.79,828.198 979.506,828.198 979.506,874.673 
  1005.22,874.673 1005.22,735.247 1030.94,735.247 1030.94,859.182 1056.66,859.182 1056.66,952.133 1082.37,952.133 1082.37,1091.56 1108.09,1091.56 1108.09,1045.08 
  1133.8,1045.08 1133.8,1153.53 1159.52,1153.53 1159.52,1091.56 1185.24,1091.56 1185.24,1246.48 1210.95,1246.48 1210.95,1230.99 1236.67,1230.99 1236.67,1339.43 
  1262.39,1339.43 1262.39,1370.41 1288.1,1370.41 1288.1,1401.4 1313.82,1401.4 1313.82,1385.91 1339.53,1385.91 1339.53,1447.87 1365.25,1447.87 1365.25,1432.38 
  1390.97,1432.38 1390.97,1416.89 1416.68,1416.89 1416.68,1385.91 1442.4,1385.91 1442.4,1416.89 1468.12,1416.89 1468.12,1323.94 1493.83,1323.94 1493.83,1277.46 
  1519.55,1277.46 1519.55,1292.95 1545.26,1292.95 1545.26,967.625 1570.98,967.625 1570.98,983.117 1596.7,983.117 1596.7,797.214 1622.41,797.214 1622.41,874.673 
  1648.13,874.673 1648.13,549.344 1673.85,549.344 1673.85,564.836 1699.56,564.836 1699.56,347.949 1725.28,347.949 1725.28,332.458 1750.99,332.458 1750.99,177.539 
  1776.71,177.539 1776.71,162.047 1802.43,162.047 1802.43,301.474 1828.14,301.474 1828.14,595.82 1853.86,595.82 1853.86,456.393 1879.58,456.393 1879.58,626.803 
  1905.29,626.803 1905.29,704.263 1931.01,704.263 1931.01,843.69 1956.73,843.69 1956.73,1200 1982.44,1200 2008.16,1200 2008.16,1215.49 
  2033.87,1215.49 2033.87,1323.94 2059.59,1323.94 2059.59,1370.41 2085.31,1370.41 2085.31,1354.92 2111.02,1354.92 2111.02,1447.87 2136.74,1447.87 2136.74,1432.38 
  2162.46,1432.38 2162.46,1447.87 2188.17,1447.87 2213.89,1447.87 2239.6,1447.87 2265.32,1447.87 
  2291.04,1447.87 
  "/>
<polyline clip-path="url(#clip762)" style="stroke:#e26f46; stroke-linecap:butt; stroke-linejoin:round; stroke-width:4; stroke-opacity:1; fill:none" points="
  233.734,1447.87 236.306,1447.87 238.877,1447.87 241.449,1447.87 244.02,1447.87 246.592,1447.87 249.164,1447.87 251.735,1447.87 254.307,1447.87 256.879,1447.87 
  259.45,1447.87 262.022,1447.87 264.593,1447.87 267.165,1447.87 269.737,1447.87 272.308,1447.87 274.88,1447.87 277.452,1447.87 280.023,1447.87 282.595,1447.87 
  285.166,1447.87 287.738,1447.87 290.31,1447.87 292.881,1447.87 295.453,1447.87 298.025,1447.87 300.596,1447.87 303.168,1447.87 305.74,1447.87 308.311,1447.87 
  310.883,1447.87 313.454,1447.87 316.026,1447.87 318.598,1447.87 321.169,1447.87 323.741,1447.87 326.313,1447.87 328.884,1447.87 331.456,1447.87 334.027,1447.87 
  336.599,1447.87 339.171,1447.87 341.742,1447.87 344.314,1447.87 346.886,1447.87 349.457,1447.87 352.029,1447.87 354.6,1447.87 357.172,1447.87 359.744,1447.87 
  362.315,1447.87 364.887,1447.87 367.459,1447.87 370.03,1447.87 372.602,1447.87 375.173,1447.87 377.745,1447.87 380.317,1447.87 382.888,1447.87 385.46,1447.87 
  388.032,1447.87 390.603,1447.87 393.175,1447.87 395.747,1447.86 398.318,1447.86 400.89,1447.86 403.461,1447.86 406.033,1447.86 408.605,1447.86 411.176,1447.86 
  413.748,1447.86 416.32,1447.86 418.891,1447.85 421.463,1447.85 424.034,1447.85 426.606,1447.85 429.178,1447.85 431.749,1447.84 434.321,1447.84 436.893,1447.84 
  439.464,1447.83 442.036,1447.83 444.607,1447.83 447.179,1447.82 449.751,1447.82 452.322,1447.81 454.894,1447.81 457.466,1447.8 460.037,1447.8 462.609,1447.79 
  465.18,1447.78 467.752,1447.77 470.324,1447.77 472.895,1447.76 475.467,1447.75 478.039,1447.73 480.61,1447.72 483.182,1447.71 485.754,1447.7 488.325,1447.68 
  490.897,1447.67 493.468,1447.65 496.04,1447.63 498.612,1447.61 501.183,1447.59 503.755,1447.57 506.327,1447.54 508.898,1447.51 511.47,1447.48 514.041,1447.45 
  516.613,1447.42 519.185,1447.39 521.756,1447.35 524.328,1447.31 526.9,1447.26 529.471,1447.22 532.043,1447.16 534.614,1447.11 537.186,1447.05 539.758,1446.99 
  542.329,1446.93 544.901,1446.85 547.473,1446.78 550.044,1446.7 552.616,1446.61 555.187,1446.52 557.759,1446.42 560.331,1446.32 562.902,1446.21 565.474,1446.09 
  568.046,1445.96 570.617,1445.83 573.189,1445.69 575.761,1445.54 578.332,1445.38 580.904,1445.2 583.475,1445.02 586.047,1444.83 588.619,1444.63 591.19,1444.41 
  593.762,1444.18 596.334,1443.94 598.905,1443.68 601.477,1443.41 604.048,1443.12 606.62,1442.81 609.192,1442.49 611.763,1442.15 614.335,1441.79 616.907,1441.41 
  619.478,1441.01 622.05,1440.58 624.621,1440.14 627.193,1439.67 629.765,1439.17 632.336,1438.65 634.908,1438.1 637.48,1437.53 640.051,1436.92 642.623,1436.28 
  645.194,1435.61 647.766,1434.91 650.338,1434.17 652.909,1433.39 655.481,1432.58 658.053,1431.73 660.624,1430.84 663.196,1429.9 665.768,1428.92 668.339,1427.9 
  670.911,1426.83 673.482,1425.71 676.054,1424.54 678.626,1423.32 681.197,1422.05 683.769,1420.72 686.341,1419.33 688.912,1417.89 691.484,1416.38 694.055,1414.81 
  696.627,1413.18 699.199,1411.48 701.77,1409.71 704.342,1407.88 706.914,1405.97 709.485,1403.99 712.057,1401.93 714.628,1399.8 717.2,1397.59 719.772,1395.29 
  722.343,1392.92 724.915,1390.46 727.487,1387.91 730.058,1385.27 732.63,1382.55 735.201,1379.73 737.773,1376.83 740.345,1373.82 742.916,1370.72 745.488,1367.53 
  748.06,1364.23 750.631,1360.83 753.203,1357.34 755.775,1353.74 758.346,1350.03 760.918,1346.22 763.489,1342.31 766.061,1338.28 768.633,1334.15 771.204,1329.91 
  773.776,1325.56 776.348,1321.11 778.919,1316.54 781.491,1311.86 784.062,1307.07 786.634,1302.17 789.206,1297.16 791.777,1292.05 794.349,1286.82 796.921,1281.48 
  799.492,1276.04 802.064,1270.48 804.635,1264.83 807.207,1259.06 809.779,1253.19 812.35,1247.23 814.922,1241.16 817.494,1234.99 820.065,1228.72 822.637,1222.37 
  825.208,1215.92 827.78,1209.38 830.352,1202.75 832.923,1196.04 835.495,1189.26 838.067,1182.39 840.638,1175.45 843.21,1168.44 845.782,1161.37 848.353,1154.24 
  850.925,1147.04 853.496,1139.8 856.068,1132.5 858.64,1125.17 861.211,1117.79 863.783,1110.38 866.355,1102.94 868.926,1095.48 871.498,1088 874.069,1080.51 
  876.641,1073.01 879.213,1065.52 881.784,1058.03 884.356,1050.55 886.928,1043.09 889.499,1035.66 892.071,1028.25 894.642,1020.89 897.214,1013.57 899.786,1006.3 
  902.357,999.086 904.929,991.939 907.501,984.863 910.072,977.866 912.644,970.954 915.215,964.133 917.787,957.411 920.359,950.795 922.93,944.29 925.502,937.905 
  928.074,931.645 930.645,925.518 933.217,919.529 935.789,913.685 938.36,907.993 940.932,902.458 943.503,897.086 946.075,891.884 948.647,886.858 951.218,882.012 
  953.79,877.353 956.362,872.886 958.933,868.615 961.505,864.546 964.076,860.683 966.648,857.032 969.22,853.595 971.791,850.377 974.363,847.382 976.935,844.613 
  979.506,842.074 982.078,839.768 984.649,837.697 987.221,835.864 989.793,834.27 992.364,832.919 994.936,831.811 997.508,830.948 1000.08,830.331 1002.65,829.96 
  1005.22,829.836 1007.79,829.96 1010.37,830.331 1012.94,830.948 1015.51,831.811 1018.08,832.919 1020.65,834.27 1023.22,835.864 1025.8,837.697 1028.37,839.768 
  1030.94,842.074 1033.51,844.613 1036.08,847.382 1038.65,850.377 1041.23,853.595 1043.8,857.031 1046.37,860.683 1048.94,864.546 1051.51,868.615 1054.08,872.886 
  1056.66,877.353 1059.23,882.012 1061.8,886.858 1064.37,891.884 1066.94,897.086 1069.51,902.457 1072.08,907.992 1074.66,913.685 1077.23,919.529 1079.8,925.517 
  1082.37,931.645 1084.94,937.905 1087.51,944.29 1090.09,950.794 1092.66,957.41 1095.23,964.132 1097.8,970.952 1100.37,977.865 1102.94,984.862 1105.52,991.938 
  1108.09,999.085 1110.66,1006.3 1113.23,1013.57 1115.8,1020.89 1118.37,1028.25 1120.95,1035.65 1123.52,1043.09 1126.09,1050.55 1128.66,1058.02 1131.23,1065.51 
  1133.8,1073.01 1136.38,1080.51 1138.95,1088 1141.52,1095.47 1144.09,1102.93 1146.66,1110.37 1149.23,1117.78 1151.81,1125.16 1154.38,1132.49 1156.95,1139.79 
  1159.52,1147.03 1162.09,1154.22 1164.66,1161.36 1167.24,1168.43 1169.81,1175.43 1172.38,1182.37 1174.95,1189.23 1177.52,1196.02 1180.09,1202.73 1182.66,1209.35 
  1185.24,1215.89 1187.81,1222.33 1190.38,1228.69 1192.95,1234.95 1195.52,1241.11 1198.09,1247.18 1200.67,1253.14 1203.24,1259 1205.81,1264.76 1208.38,1270.41 
  1210.95,1275.96 1213.52,1281.4 1216.1,1286.73 1218.67,1291.95 1221.24,1297.06 1223.81,1302.05 1226.38,1306.94 1228.95,1311.72 1231.53,1316.38 1234.1,1320.94 
  1236.67,1325.38 1239.24,1329.71 1241.81,1333.94 1244.38,1338.05 1246.96,1342.05 1249.53,1345.95 1252.1,1349.73 1254.67,1353.41 1257.24,1356.98 1259.81,1360.45 
  1262.39,1363.82 1264.96,1367.08 1267.53,1370.24 1270.1,1373.3 1272.67,1376.26 1275.24,1379.12 1277.82,1381.88 1280.39,1384.56 1282.96,1387.13 1285.53,1389.62 
  1288.1,1392.01 1290.67,1394.32 1293.24,1396.53 1295.82,1398.66 1298.39,1400.71 1300.96,1402.67 1303.53,1404.55 1306.1,1406.35 1308.67,1408.07 1311.25,1409.72 
  1313.82,1411.28 1316.39,1412.78 1318.96,1414.19 1321.53,1415.54 1324.1,1416.81 1326.68,1418.01 1329.25,1419.15 1331.82,1420.21 1334.39,1421.21 1336.96,1422.15 
  1339.53,1423.01 1342.11,1423.82 1344.68,1424.55 1347.25,1425.23 1349.82,1425.84 1352.39,1426.39 1354.96,1426.88 1357.54,1427.31 1360.11,1427.67 1362.68,1427.98 
  1365.25,1428.22 1367.82,1428.41 1370.39,1428.53 1372.97,1428.59 1375.54,1428.59 1378.11,1428.53 1380.68,1428.41 1383.25,1428.22 1385.82,1427.97 1388.4,1427.65 
  1390.97,1427.28 1393.54,1426.83 1396.11,1426.32 1398.68,1425.74 1401.25,1425.09 1403.82,1424.37 1406.4,1423.58 1408.97,1422.71 1411.54,1421.77 1414.11,1420.75 
  1416.68,1419.65 1419.25,1418.48 1421.83,1417.22 1424.4,1415.87 1426.97,1414.44 1429.54,1412.92 1432.11,1411.3 1434.68,1409.59 1437.26,1407.79 1439.83,1405.89 
  1442.4,1403.88 1444.97,1401.77 1447.54,1399.55 1450.11,1397.22 1452.69,1394.77 1455.26,1392.21 1457.83,1389.53 1460.4,1386.73 1462.97,1383.79 1465.54,1380.73 
  1468.12,1377.54 1470.69,1374.21 1473.26,1370.74 1475.83,1367.12 1478.4,1363.36 1480.97,1359.45 1483.55,1355.38 1486.12,1351.16 1488.69,1346.77 1491.26,1342.22 
  1493.83,1337.51 1496.4,1332.62 1498.98,1327.56 1501.55,1322.32 1504.12,1316.89 1506.69,1311.29 1509.26,1305.49 1511.83,1299.51 1514.4,1293.33 1516.98,1286.96 
  1519.55,1280.38 1522.12,1273.61 1524.69,1266.62 1527.26,1259.44 1529.83,1252.04 1532.41,1244.43 1534.98,1236.61 1537.55,1228.58 1540.12,1220.32 1542.69,1211.85 
  1545.26,1203.16 1547.84,1194.26 1550.41,1185.13 1552.98,1175.78 1555.55,1166.21 1558.12,1156.41 1560.69,1146.4 1563.27,1136.17 1565.84,1125.72 1568.41,1115.05 
  1570.98,1104.16 1573.55,1093.06 1576.12,1081.74 1578.7,1070.22 1581.27,1058.49 1583.84,1046.55 1586.41,1034.42 1588.98,1022.08 1591.55,1009.56 1594.13,996.843 
  1596.7,983.945 1599.27,970.869 1601.84,957.62 1604.41,944.204 1606.98,930.628 1609.56,916.899 1612.13,903.023 1614.7,889.007 1617.27,874.86 1619.84,860.59 
  1622.41,846.205 1624.99,831.715 1627.56,817.127 1630.13,802.453 1632.7,787.701 1635.27,772.881 1637.84,758.005 1640.41,743.083 1642.99,728.127 1645.56,713.147 
  1648.13,698.154 1650.7,683.162 1653.27,668.182 1655.84,653.227 1658.42,638.308 1660.99,623.439 1663.56,608.633 1666.13,593.903 1668.7,579.261 1671.27,564.722 
  1673.85,550.299 1676.42,536.005 1678.99,521.853 1681.56,507.858 1684.13,494.033 1686.7,480.392 1689.28,466.949 1691.85,453.716 1694.42,440.708 1696.99,427.937 
  1699.56,415.418 1702.13,403.162 1704.71,391.185 1707.28,379.497 1709.85,368.112 1712.42,357.042 1714.99,346.299 1717.56,335.896 1720.14,325.843 1722.71,316.152 
  1725.28,306.834 1727.85,297.899 1730.42,289.357 1732.99,281.219 1735.57,273.494 1738.14,266.19 1740.71,259.316 1743.28,252.881 1745.85,246.891 1748.42,241.354 
  1750.99,236.276 1753.57,231.663 1756.14,227.521 1758.71,223.854 1761.28,220.668 1763.85,217.965 1766.42,215.749 1769,214.023 1771.57,212.788 1774.14,212.047 
  1776.71,211.8 1779.28,212.047 1781.85,212.788 1784.43,214.023 1787,215.749 1789.57,217.965 1792.14,220.668 1794.71,223.854 1797.28,227.521 1799.86,231.663 
  1802.43,236.276 1805,241.354 1807.57,246.891 1810.14,252.881 1812.71,259.316 1815.29,266.19 1817.86,273.494 1820.43,281.219 1823,289.357 1825.57,297.899 
  1828.14,306.834 1830.72,316.152 1833.29,325.843 1835.86,335.896 1838.43,346.3 1841,357.042 1843.57,368.112 1846.15,379.497 1848.72,391.185 1851.29,403.163 
  1853.86,415.418 1856.43,427.937 1859,440.708 1861.57,453.716 1864.15,466.949 1866.72,480.393 1869.29,494.034 1871.86,507.859 1874.43,521.854 1877,536.005 
  1879.58,550.3 1882.15,564.723 1884.72,579.262 1887.29,593.904 1889.86,608.635 1892.43,623.441 1895.01,638.31 1897.58,653.229 1900.15,668.184 1902.72,683.164 
  1905.29,698.157 1907.86,713.149 1910.44,728.13 1913.01,743.087 1915.58,758.009 1918.15,772.885 1920.72,787.705 1923.29,802.457 1925.87,817.132 1928.44,831.72 
  1931.01,846.212 1933.58,860.597 1936.15,874.868 1938.72,889.015 1941.3,903.032 1943.87,916.909 1946.44,930.639 1949.01,944.216 1951.58,957.633 1954.15,970.883 
  1956.73,983.961 1959.3,996.861 1961.87,1009.58 1964.44,1022.1 1967.01,1034.44 1969.58,1046.58 1972.15,1058.52 1974.73,1070.25 1977.3,1081.78 1979.87,1093.09 
  1982.44,1104.2 1985.01,1115.09 1987.58,1125.76 1990.16,1136.22 1992.73,1146.46 1995.3,1156.47 1997.87,1166.27 2000.44,1175.85 2003.01,1185.2 2005.59,1194.34 
  2008.16,1203.26 2010.73,1211.95 2013.3,1220.43 2015.87,1228.69 2018.44,1236.74 2021.02,1244.57 2023.59,1252.19 2026.16,1259.6 2028.73,1266.8 2031.3,1273.8 
  2033.87,1280.59 2036.45,1287.18 2039.02,1293.57 2041.59,1299.77 2044.16,1305.78 2046.73,1311.6 2049.3,1317.23 2051.88,1322.68 2054.45,1327.94 2057.02,1333.04 
  2059.59,1337.96 2062.16,1342.71 2064.73,1347.3 2067.31,1351.72 2069.88,1355.99 2072.45,1360.11 2075.02,1364.07 2077.59,1367.88 2080.16,1371.56 2082.73,1375.09 
  2085.31,1378.49 2087.88,1381.75 2090.45,1384.89 2093.02,1387.9 2095.59,1390.79 2098.16,1393.56 2100.74,1396.22 2103.31,1398.77 2105.88,1401.21 2108.45,1403.55 
  2111.02,1405.79 2113.59,1407.93 2116.17,1409.98 2118.74,1411.93 2121.31,1413.8 2123.88,1415.59 2126.45,1417.29 2129.02,1418.91 2131.6,1420.46 2134.17,1421.94 
  2136.74,1423.35 2139.31,1424.69 2141.88,1425.96 2144.45,1427.18 2147.03,1428.33 2149.6,1429.43 2152.17,1430.47 2154.74,1431.46 2157.31,1432.4 2159.88,1433.3 
  2162.46,1434.14 2165.03,1434.94 2167.6,1435.7 2170.17,1436.42 2172.74,1437.11 2175.31,1437.75 2177.89,1438.36 2180.46,1438.94 2183.03,1439.48 2185.6,1440 
  2188.17,1440.49 2190.74,1440.95 2193.31,1441.38 2195.89,1441.79 2198.46,1442.17 2201.03,1442.54 2203.6,1442.88 2206.17,1443.2 2208.74,1443.5 2211.32,1443.79 
  2213.89,1444.06 2216.46,1444.31 2219.03,1444.54 2221.6,1444.77 2224.17,1444.97 2226.75,1445.17 2229.32,1445.35 2231.89,1445.52 2234.46,1445.69 2237.03,1445.84 
  2239.6,1445.98 2242.18,1446.11 2244.75,1446.23 2247.32,1446.35 2249.89,1446.46 2252.46,1446.56 2255.03,1446.65 2257.61,1446.74 2260.18,1446.82 2262.75,1446.9 
  2265.32,1446.97 2267.89,1447.03 2270.46,1447.1 2273.04,1447.15 2275.61,1447.21 2278.18,1447.26 2280.75,1447.3 2283.32,1447.35 2285.89,1447.39 2288.47,1447.42 
  2291.04,1447.46 
  "/>
<path clip-path="url(#clip760)" d="
M1921.49 324.425 L2280.06 324.425 L2280.06 168.905 L1921.49 168.905  Z
  " fill="#ffffff" fill-rule="evenodd" fill-opacity="1"/>
<polyline clip-path="url(#clip760)" style="stroke:#000000; stroke-linecap:butt; stroke-linejoin:round; stroke-width:4; stroke-opacity:1; fill:none" points="
  1921.49,324.425 2280.06,324.425 2280.06,168.905 1921.49,168.905 1921.49,324.425 
  "/>
<polyline clip-path="url(#clip760)" style="stroke:#009af9; stroke-linecap:butt; stroke-linejoin:round; stroke-width:4; stroke-opacity:1; fill:none" points="
  1945.72,220.745 2091.1,220.745 
  "/>
<path clip-path="url(#clip760)" d="M2120.01 207.307 L2120.01 234.182 L2125.66 234.182 Q2132.81 234.182 2136.12 230.941 Q2139.45 227.701 2139.45 220.71 Q2139.45 213.766 2136.12 210.548 Q2132.81 207.307 2125.66 207.307 L2120.01 207.307 M2115.33 203.465 L2124.94 203.465 Q2134.98 203.465 2139.68 207.654 Q2144.38 211.821 2144.38 220.71 Q2144.38 229.645 2139.66 233.835 Q2134.94 238.025 2124.94 238.025 L2115.33 238.025 L2115.33 203.465 Z" fill="#000000" fill-rule="evenodd" fill-opacity="1" /><path clip-path="url(#clip760)" d="M2163.43 224.992 Q2158.27 224.992 2156.28 226.173 Q2154.29 227.353 2154.29 230.201 Q2154.29 232.469 2155.77 233.812 Q2157.28 235.131 2159.84 235.131 Q2163.39 235.131 2165.52 232.631 Q2167.67 230.108 2167.67 225.941 L2167.67 224.992 L2163.43 224.992 M2171.93 223.233 L2171.93 238.025 L2167.67 238.025 L2167.67 234.089 Q2166.21 236.451 2164.03 237.585 Q2161.86 238.696 2158.71 238.696 Q2154.73 238.696 2152.37 236.474 Q2150.03 234.228 2150.03 230.478 Q2150.03 226.103 2152.95 223.881 Q2155.89 221.659 2161.7 221.659 L2167.67 221.659 L2167.67 221.242 Q2167.67 218.303 2165.72 216.705 Q2163.8 215.085 2160.31 215.085 Q2158.09 215.085 2155.98 215.617 Q2153.87 216.15 2151.93 217.215 L2151.93 213.279 Q2154.27 212.377 2156.47 211.937 Q2158.66 211.474 2160.75 211.474 Q2166.37 211.474 2169.15 214.391 Q2171.93 217.307 2171.93 223.233 Z" fill="#000000" fill-rule="evenodd" fill-opacity="1" /><path clip-path="url(#clip760)" d="M2184.91 204.738 L2184.91 212.099 L2193.69 212.099 L2193.69 215.409 L2184.91 215.409 L2184.91 229.483 Q2184.91 232.654 2185.77 233.557 Q2186.65 234.46 2189.31 234.46 L2193.69 234.46 L2193.69 238.025 L2189.31 238.025 Q2184.38 238.025 2182.51 236.196 Q2180.63 234.344 2180.63 229.483 L2180.63 215.409 L2177.51 215.409 L2177.51 212.099 L2180.63 212.099 L2180.63 204.738 L2184.91 204.738 Z" fill="#000000" fill-rule="evenodd" fill-opacity="1" /><path clip-path="url(#clip760)" d="M2211.07 224.992 Q2205.91 224.992 2203.92 226.173 Q2201.93 227.353 2201.93 230.201 Q2201.93 232.469 2203.41 233.812 Q2204.91 235.131 2207.48 235.131 Q2211.03 235.131 2213.15 232.631 Q2215.31 230.108 2215.31 225.941 L2215.31 224.992 L2211.07 224.992 M2219.57 223.233 L2219.57 238.025 L2215.31 238.025 L2215.31 234.089 Q2213.85 236.451 2211.67 237.585 Q2209.5 238.696 2206.35 238.696 Q2202.37 238.696 2200.01 236.474 Q2197.67 234.228 2197.67 230.478 Q2197.67 226.103 2200.59 223.881 Q2203.53 221.659 2209.34 221.659 L2215.31 221.659 L2215.31 221.242 Q2215.31 218.303 2213.36 216.705 Q2211.44 215.085 2207.95 215.085 Q2205.72 215.085 2203.62 215.617 Q2201.51 216.15 2199.57 217.215 L2199.57 213.279 Q2201.9 212.377 2204.1 211.937 Q2206.3 211.474 2208.39 211.474 Q2214.01 211.474 2216.79 214.391 Q2219.57 217.307 2219.57 223.233 Z" fill="#000000" fill-rule="evenodd" fill-opacity="1" /><polyline clip-path="url(#clip760)" style="stroke:#e26f46; stroke-linecap:butt; stroke-linejoin:round; stroke-width:4; stroke-opacity:1; fill:none" points="
  1945.72,272.585 2091.1,272.585 
  "/>
<path clip-path="url(#clip760)" d="M2115.33 255.305 L2144.57 255.305 L2144.57 259.24 L2132.3 259.24 L2132.3 289.865 L2127.6 289.865 L2127.6 259.24 L2115.33 259.24 L2115.33 255.305 Z" fill="#000000" fill-rule="evenodd" fill-opacity="1" /><path clip-path="url(#clip760)" d="M2156.95 267.92 Q2156.23 267.504 2155.38 267.318 Q2154.54 267.11 2153.53 267.11 Q2149.91 267.11 2147.97 269.471 Q2146.05 271.809 2146.05 276.207 L2146.05 289.865 L2141.77 289.865 L2141.77 263.939 L2146.05 263.939 L2146.05 267.967 Q2147.39 265.606 2149.54 264.471 Q2151.7 263.314 2154.78 263.314 Q2155.22 263.314 2155.75 263.383 Q2156.28 263.43 2156.93 263.545 L2156.95 267.92 Z" fill="#000000" fill-rule="evenodd" fill-opacity="1" /><path clip-path="url(#clip760)" d="M2160.98 279.633 L2160.98 263.939 L2165.24 263.939 L2165.24 279.471 Q2165.24 283.152 2166.67 285.004 Q2168.11 286.832 2170.98 286.832 Q2174.43 286.832 2176.42 284.633 Q2178.43 282.434 2178.43 278.638 L2178.43 263.939 L2182.69 263.939 L2182.69 289.865 L2178.43 289.865 L2178.43 285.883 Q2176.88 288.244 2174.82 289.402 Q2172.78 290.536 2170.08 290.536 Q2165.61 290.536 2163.29 287.758 Q2160.98 284.98 2160.98 279.633 M2171.7 263.314 L2171.7 263.314 Z" fill="#000000" fill-rule="evenodd" fill-opacity="1" /><path clip-path="url(#clip760)" d="M2195.68 256.578 L2195.68 263.939 L2204.45 263.939 L2204.45 267.249 L2195.68 267.249 L2195.68 281.323 Q2195.68 284.494 2196.53 285.397 Q2197.41 286.3 2200.08 286.3 L2204.45 286.3 L2204.45 289.865 L2200.08 289.865 Q2195.15 289.865 2193.27 288.036 Q2191.4 286.184 2191.4 281.323 L2191.4 267.249 L2188.27 267.249 L2188.27 263.939 L2191.4 263.939 L2191.4 256.578 L2195.68 256.578 Z" fill="#000000" fill-rule="evenodd" fill-opacity="1" /><path clip-path="url(#clip760)" d="M2231.6 274.217 L2231.6 289.865 L2227.34 289.865 L2227.34 274.355 Q2227.34 270.675 2225.91 268.846 Q2224.47 267.018 2221.6 267.018 Q2218.15 267.018 2216.16 269.217 Q2214.17 271.416 2214.17 275.212 L2214.17 289.865 L2209.89 289.865 L2209.89 253.846 L2214.17 253.846 L2214.17 267.967 Q2215.7 265.629 2217.76 264.471 Q2219.84 263.314 2222.55 263.314 Q2227.02 263.314 2229.31 266.092 Q2231.6 268.846 2231.6 274.217 Z" fill="#000000" fill-rule="evenodd" fill-opacity="1" /></svg>
