<?xml version="1.0" encoding="utf-8"?>
<svg xmlns="http://www.w3.org/2000/svg" xmlns:xlink="http://www.w3.org/1999/xlink" width="600" height="400" viewBox="0 0 2400 1600">
<defs>
  <clipPath id="clip460">
    <rect x="0" y="0" width="2400" height="1600"/>
  </clipPath>
</defs>
<path clip-path="url(#clip460)" d="
M0 1600 L2400 1600 L2400 0 L0 0  Z
  " fill="#ffffff" fill-rule="evenodd" fill-opacity="1"/>
<defs>
  <clipPath id="clip461">
    <rect x="480" y="0" width="1681" height="1600"/>
  </clipPath>
</defs>
<path clip-path="url(#clip460)" d="
M166.205 1486.45 L2352.76 1486.45 L2352.76 123.472 L166.205 123.472  Z
  " fill="#ffffff" fill-rule="evenodd" fill-opacity="1"/>
<defs>
  <clipPath id="clip462">
    <rect x="166" y="123" width="2188" height="1364"/>
  </clipPath>
</defs>
<polyline clip-path="url(#clip462)" style="stroke:#000000; stroke-width:2; stroke-opacity:0.1; fill:none" points="
  228.088,1486.45 228.088,123.472 
  "/>
<polyline clip-path="url(#clip462)" style="stroke:#000000; stroke-width:2; stroke-opacity:0.1; fill:none" points="
  571.886,1486.45 571.886,123.472 
  "/>
<polyline clip-path="url(#clip462)" style="stroke:#000000; stroke-width:2; stroke-opacity:0.1; fill:none" points="
  915.683,1486.45 915.683,123.472 
  "/>
<polyline clip-path="url(#clip462)" style="stroke:#000000; stroke-width:2; stroke-opacity:0.1; fill:none" points="
  1259.48,1486.45 1259.48,123.472 
  "/>
<polyline clip-path="url(#clip462)" style="stroke:#000000; stroke-width:2; stroke-opacity:0.1; fill:none" points="
  1603.28,1486.45 1603.28,123.472 
  "/>
<polyline clip-path="url(#clip462)" style="stroke:#000000; stroke-width:2; stroke-opacity:0.1; fill:none" points="
  1947.08,1486.45 1947.08,123.472 
  "/>
<polyline clip-path="url(#clip462)" style="stroke:#000000; stroke-width:2; stroke-opacity:0.1; fill:none" points="
  2290.87,1486.45 2290.87,123.472 
  "/>
<polyline clip-path="url(#clip460)" style="stroke:#000000; stroke-width:4; stroke-opacity:1; fill:none" points="
  166.205,1486.45 2352.76,1486.45 
  "/>
<polyline clip-path="url(#clip460)" style="stroke:#000000; stroke-width:4; stroke-opacity:1; fill:none" points="
  228.088,1486.45 228.088,1470.09 
  "/>
<polyline clip-path="url(#clip460)" style="stroke:#000000; stroke-width:4; stroke-opacity:1; fill:none" points="
  571.886,1486.45 571.886,1470.09 
  "/>
<polyline clip-path="url(#clip460)" style="stroke:#000000; stroke-width:4; stroke-opacity:1; fill:none" points="
  915.683,1486.45 915.683,1470.09 
  "/>
<polyline clip-path="url(#clip460)" style="stroke:#000000; stroke-width:4; stroke-opacity:1; fill:none" points="
  1259.48,1486.45 1259.48,1470.09 
  "/>
<polyline clip-path="url(#clip460)" style="stroke:#000000; stroke-width:4; stroke-opacity:1; fill:none" points="
  1603.28,1486.45 1603.28,1470.09 
  "/>
<polyline clip-path="url(#clip460)" style="stroke:#000000; stroke-width:4; stroke-opacity:1; fill:none" points="
  1947.08,1486.45 1947.08,1470.09 
  "/>
<polyline clip-path="url(#clip460)" style="stroke:#000000; stroke-width:4; stroke-opacity:1; fill:none" points="
  2290.87,1486.45 2290.87,1470.09 
  "/>
<path clip-path="url(#clip460)" d="M 0 0 M200.542 1530.29 L230.218 1530.29 L230.218 1534.23 L200.542 1534.23 L200.542 1530.29 Z" fill="#000000" fill-rule="evenodd" fill-opacity="1" /><path clip-path="url(#clip460)" d="M 0 0 M239.315 1543.18 L255.634 1543.18 L255.634 1547.12 L233.69 1547.12 L233.69 1543.18 Q236.352 1540.43 240.935 1535.8 Q245.542 1531.15 246.722 1529.81 Q248.968 1527.28 249.847 1525.55 Q250.75 1523.79 250.75 1522.1 Q250.75 1519.34 248.806 1517.61 Q246.884 1515.87 243.783 1515.87 Q241.583 1515.87 239.13 1516.63 Q236.699 1517.4 233.921 1518.95 L233.921 1514.23 Q236.746 1513.09 239.199 1512.51 Q241.653 1511.93 243.69 1511.93 Q249.06 1511.93 252.255 1514.62 Q255.449 1517.31 255.449 1521.8 Q255.449 1523.93 254.639 1525.85 Q253.852 1527.74 251.745 1530.34 Q251.167 1531.01 248.065 1534.23 Q244.963 1537.42 239.315 1543.18 Z" fill="#000000" fill-rule="evenodd" fill-opacity="1" /><path clip-path="url(#clip460)" d="M 0 0 M544.154 1530.29 L573.83 1530.29 L573.83 1534.23 L544.154 1534.23 L544.154 1530.29 Z" fill="#000000" fill-rule="evenodd" fill-opacity="1" /><path clip-path="url(#clip460)" d="M 0 0 M579.71 1543.18 L587.348 1543.18 L587.348 1516.82 L579.038 1518.49 L579.038 1514.23 L587.302 1512.56 L591.978 1512.56 L591.978 1543.18 L599.617 1543.18 L599.617 1547.12 L579.71 1547.12 L579.71 1543.18 Z" fill="#000000" fill-rule="evenodd" fill-opacity="1" /><path clip-path="url(#clip460)" d="M 0 0 M915.683 1515.64 Q912.072 1515.64 910.243 1519.2 Q908.438 1522.75 908.438 1529.87 Q908.438 1536.98 910.243 1540.55 Q912.072 1544.09 915.683 1544.09 Q919.317 1544.09 921.123 1540.55 Q922.951 1536.98 922.951 1529.87 Q922.951 1522.75 921.123 1519.2 Q919.317 1515.64 915.683 1515.64 M915.683 1511.93 Q921.493 1511.93 924.549 1516.54 Q927.627 1521.12 927.627 1529.87 Q927.627 1538.6 924.549 1543.21 Q921.493 1547.79 915.683 1547.79 Q909.873 1547.79 906.794 1543.21 Q903.739 1538.6 903.739 1529.87 Q903.739 1521.12 906.794 1516.54 Q909.873 1511.93 915.683 1511.93 Z" fill="#000000" fill-rule="evenodd" fill-opacity="1" /><path clip-path="url(#clip460)" d="M 0 0 M1249.86 1543.18 L1257.5 1543.18 L1257.5 1516.82 L1249.19 1518.49 L1249.19 1514.23 L1257.45 1512.56 L1262.13 1512.56 L1262.13 1543.18 L1269.77 1543.18 L1269.77 1547.12 L1249.86 1547.12 L1249.86 1543.18 Z" fill="#000000" fill-rule="evenodd" fill-opacity="1" /><path clip-path="url(#clip460)" d="M 0 0 M1597.93 1543.18 L1614.25 1543.18 L1614.25 1547.12 L1592.31 1547.12 L1592.31 1543.18 Q1594.97 1540.43 1599.55 1535.8 Q1604.16 1531.15 1605.34 1529.81 Q1607.58 1527.28 1608.46 1525.55 Q1609.37 1523.79 1609.37 1522.1 Q1609.37 1519.34 1607.42 1517.61 Q1605.5 1515.87 1602.4 1515.87 Q1600.2 1515.87 1597.75 1516.63 Q1595.31 1517.4 1592.54 1518.95 L1592.54 1514.23 Q1595.36 1513.09 1597.81 1512.51 Q1600.27 1511.93 1602.31 1511.93 Q1607.68 1511.93 1610.87 1514.62 Q1614.06 1517.31 1614.06 1521.8 Q1614.06 1523.93 1613.25 1525.85 Q1612.47 1527.74 1610.36 1530.34 Q1609.78 1531.01 1606.68 1534.23 Q1603.58 1537.42 1597.93 1543.18 Z" fill="#000000" fill-rule="evenodd" fill-opacity="1" /><path clip-path="url(#clip460)" d="M 0 0 M1951.32 1528.49 Q1954.68 1529.2 1956.55 1531.47 Q1958.45 1533.74 1958.45 1537.07 Q1958.45 1542.19 1954.93 1544.99 Q1951.42 1547.79 1944.93 1547.79 Q1942.76 1547.79 1940.44 1547.35 Q1938.15 1546.93 1935.7 1546.08 L1935.7 1541.56 Q1937.64 1542.7 1939.96 1543.28 Q1942.27 1543.86 1944.79 1543.86 Q1949.19 1543.86 1951.48 1542.12 Q1953.8 1540.38 1953.8 1537.07 Q1953.8 1534.02 1951.65 1532.31 Q1949.52 1530.57 1945.7 1530.57 L1941.67 1530.57 L1941.67 1526.73 L1945.88 1526.73 Q1949.33 1526.73 1951.16 1525.36 Q1952.99 1523.97 1952.99 1521.38 Q1952.99 1518.72 1951.09 1517.31 Q1949.22 1515.87 1945.7 1515.87 Q1943.78 1515.87 1941.58 1516.29 Q1939.38 1516.7 1936.74 1517.58 L1936.74 1513.42 Q1939.4 1512.68 1941.72 1512.31 Q1944.05 1511.93 1946.11 1511.93 Q1951.44 1511.93 1954.54 1514.37 Q1957.64 1516.77 1957.64 1520.89 Q1957.64 1523.76 1956 1525.75 Q1954.36 1527.72 1951.32 1528.49 Z" fill="#000000" fill-rule="evenodd" fill-opacity="1" /><path clip-path="url(#clip460)" d="M 0 0 M2293.88 1516.63 L2282.08 1535.08 L2293.88 1535.08 L2293.88 1516.63 M2292.65 1512.56 L2298.53 1512.56 L2298.53 1535.08 L2303.46 1535.08 L2303.46 1538.97 L2298.53 1538.97 L2298.53 1547.12 L2293.88 1547.12 L2293.88 1538.97 L2278.28 1538.97 L2278.28 1534.46 L2292.65 1512.56 Z" fill="#000000" fill-rule="evenodd" fill-opacity="1" /><polyline clip-path="url(#clip462)" style="stroke:#000000; stroke-width:2; stroke-opacity:0.1; fill:none" points="
  166.205,1447.87 2352.76,1447.87 
  "/>
<polyline clip-path="url(#clip462)" style="stroke:#000000; stroke-width:2; stroke-opacity:0.1; fill:none" points="
  166.205,1158.92 2352.76,1158.92 
  "/>
<polyline clip-path="url(#clip462)" style="stroke:#000000; stroke-width:2; stroke-opacity:0.1; fill:none" points="
  166.205,869.974 2352.76,869.974 
  "/>
<polyline clip-path="url(#clip462)" style="stroke:#000000; stroke-width:2; stroke-opacity:0.1; fill:none" points="
  166.205,581.024 2352.76,581.024 
  "/>
<polyline clip-path="url(#clip462)" style="stroke:#000000; stroke-width:2; stroke-opacity:0.1; fill:none" points="
  166.205,292.074 2352.76,292.074 
  "/>
<polyline clip-path="url(#clip460)" style="stroke:#000000; stroke-width:4; stroke-opacity:1; fill:none" points="
  166.205,1486.45 166.205,123.472 
  "/>
<polyline clip-path="url(#clip460)" style="stroke:#000000; stroke-width:4; stroke-opacity:1; fill:none" points="
  166.205,1447.87 192.443,1447.87 
  "/>
<polyline clip-path="url(#clip460)" style="stroke:#000000; stroke-width:4; stroke-opacity:1; fill:none" points="
  166.205,1158.92 192.443,1158.92 
  "/>
<polyline clip-path="url(#clip460)" style="stroke:#000000; stroke-width:4; stroke-opacity:1; fill:none" points="
  166.205,869.974 192.443,869.974 
  "/>
<polyline clip-path="url(#clip460)" style="stroke:#000000; stroke-width:4; stroke-opacity:1; fill:none" points="
  166.205,581.024 192.443,581.024 
  "/>
<polyline clip-path="url(#clip460)" style="stroke:#000000; stroke-width:4; stroke-opacity:1; fill:none" points="
  166.205,292.074 192.443,292.074 
  "/>
<path clip-path="url(#clip460)" d="M 0 0 M118.26 1433.67 Q114.649 1433.67 112.82 1437.24 Q111.015 1440.78 111.015 1447.91 Q111.015 1455.01 112.82 1458.58 Q114.649 1462.12 118.26 1462.12 Q121.895 1462.12 123.7 1458.58 Q125.529 1455.01 125.529 1447.91 Q125.529 1440.78 123.7 1437.24 Q121.895 1433.67 118.26 1433.67 M118.26 1429.97 Q124.07 1429.97 127.126 1434.57 Q130.205 1439.16 130.205 1447.91 Q130.205 1456.63 127.126 1461.24 Q124.07 1465.82 118.26 1465.82 Q112.45 1465.82 109.371 1461.24 Q106.316 1456.63 106.316 1447.91 Q106.316 1439.16 109.371 1434.57 Q112.45 1429.97 118.26 1429.97 Z" fill="#000000" fill-rule="evenodd" fill-opacity="1" /><path clip-path="url(#clip460)" d="M 0 0 M59.8578 1172.27 L76.1772 1172.27 L76.1772 1176.2 L54.2328 1176.2 L54.2328 1172.27 Q56.8949 1169.51 61.4782 1164.88 Q66.0846 1160.23 67.2652 1158.89 Q69.5105 1156.37 70.3902 1154.63 Q71.2929 1152.87 71.2929 1151.18 Q71.2929 1148.43 69.3485 1146.69 Q67.4272 1144.95 64.3254 1144.95 Q62.1263 1144.95 59.6726 1145.72 Q57.2421 1146.48 54.4643 1148.03 L54.4643 1143.31 Q57.2884 1142.18 59.7421 1141.6 Q62.1958 1141.02 64.2328 1141.02 Q69.6031 1141.02 72.7976 1143.7 Q75.992 1146.39 75.992 1150.88 Q75.992 1153.01 75.1818 1154.93 Q74.3948 1156.83 72.2883 1159.42 Q71.7096 1160.09 68.6078 1163.31 Q65.5059 1166.5 59.8578 1172.27 Z" fill="#000000" fill-rule="evenodd" fill-opacity="1" /><path clip-path="url(#clip460)" d="M 0 0 M91.2465 1144.72 Q87.6354 1144.72 85.8068 1148.29 Q84.0012 1151.83 84.0012 1158.96 Q84.0012 1166.06 85.8068 1169.63 Q87.6354 1173.17 91.2465 1173.17 Q94.8808 1173.17 96.6863 1169.63 Q98.515 1166.06 98.515 1158.96 Q98.515 1151.83 96.6863 1148.29 Q94.8808 1144.72 91.2465 1144.72 M91.2465 1141.02 Q97.0567 1141.02 100.112 1145.62 Q103.191 1150.21 103.191 1158.96 Q103.191 1167.68 100.112 1172.29 Q97.0567 1176.87 91.2465 1176.87 Q85.4364 1176.87 82.3577 1172.29 Q79.3022 1167.68 79.3022 1158.96 Q79.3022 1150.21 82.3577 1145.62 Q85.4364 1141.02 91.2465 1141.02 Z" fill="#000000" fill-rule="evenodd" fill-opacity="1" /><path clip-path="url(#clip460)" d="M 0 0 M118.26 1144.72 Q114.649 1144.72 112.82 1148.29 Q111.015 1151.83 111.015 1158.96 Q111.015 1166.06 112.82 1169.63 Q114.649 1173.17 118.26 1173.17 Q121.895 1173.17 123.7 1169.63 Q125.529 1166.06 125.529 1158.96 Q125.529 1151.83 123.7 1148.29 Q121.895 1144.72 118.26 1144.72 M118.26 1141.02 Q124.07 1141.02 127.126 1145.62 Q130.205 1150.21 130.205 1158.96 Q130.205 1167.68 127.126 1172.29 Q124.07 1176.87 118.26 1176.87 Q112.45 1176.87 109.371 1172.29 Q106.316 1167.68 106.316 1158.96 Q106.316 1150.21 109.371 1145.62 Q112.45 1141.02 118.26 1141.02 Z" fill="#000000" fill-rule="evenodd" fill-opacity="1" /><path clip-path="url(#clip460)" d="M 0 0 M66.5939 856.768 L54.7884 875.217 L66.5939 875.217 L66.5939 856.768 M65.367 852.694 L71.2466 852.694 L71.2466 875.217 L76.1772 875.217 L76.1772 879.106 L71.2466 879.106 L71.2466 887.254 L66.5939 887.254 L66.5939 879.106 L50.9921 879.106 L50.9921 874.592 L65.367 852.694 Z" fill="#000000" fill-rule="evenodd" fill-opacity="1" /><path clip-path="url(#clip460)" d="M 0 0 M91.2465 855.772 Q87.6354 855.772 85.8068 859.337 Q84.0012 862.879 84.0012 870.008 Q84.0012 877.115 85.8068 880.68 Q87.6354 884.221 91.2465 884.221 Q94.8808 884.221 96.6863 880.68 Q98.515 877.115 98.515 870.008 Q98.515 862.879 96.6863 859.337 Q94.8808 855.772 91.2465 855.772 M91.2465 852.069 Q97.0567 852.069 100.112 856.675 Q103.191 861.258 103.191 870.008 Q103.191 878.735 100.112 883.342 Q97.0567 887.925 91.2465 887.925 Q85.4364 887.925 82.3577 883.342 Q79.3022 878.735 79.3022 870.008 Q79.3022 861.258 82.3577 856.675 Q85.4364 852.069 91.2465 852.069 Z" fill="#000000" fill-rule="evenodd" fill-opacity="1" /><path clip-path="url(#clip460)" d="M 0 0 M118.26 855.772 Q114.649 855.772 112.82 859.337 Q111.015 862.879 111.015 870.008 Q111.015 877.115 112.82 880.68 Q114.649 884.221 118.26 884.221 Q121.895 884.221 123.7 880.68 Q125.529 877.115 125.529 870.008 Q125.529 862.879 123.7 859.337 Q121.895 855.772 118.26 855.772 M118.26 852.069 Q124.07 852.069 127.126 856.675 Q130.205 861.258 130.205 870.008 Q130.205 878.735 127.126 883.342 Q124.07 887.925 118.26 887.925 Q112.45 887.925 109.371 883.342 Q106.316 878.735 106.316 870.008 Q106.316 861.258 109.371 856.675 Q112.45 852.069 118.26 852.069 Z" fill="#000000" fill-rule="evenodd" fill-opacity="1" /><path clip-path="url(#clip460)" d="M 0 0 M64.6495 579.161 Q61.5013 579.161 59.6495 581.313 Q57.8208 583.466 57.8208 587.216 Q57.8208 590.943 59.6495 593.119 Q61.5013 595.272 64.6495 595.272 Q67.7976 595.272 69.6263 593.119 Q71.4781 590.943 71.4781 587.216 Q71.4781 583.466 69.6263 581.313 Q67.7976 579.161 64.6495 579.161 M73.9318 564.508 L73.9318 568.767 Q72.1726 567.934 70.367 567.494 Q68.5846 567.054 66.8254 567.054 Q62.1958 567.054 59.7421 570.179 Q57.3115 573.304 56.9643 579.624 Q58.33 577.61 60.3902 576.545 Q62.4504 575.457 64.9272 575.457 Q70.1355 575.457 73.1448 578.628 Q76.1772 581.776 76.1772 587.216 Q76.1772 592.54 73.029 595.758 Q69.8809 598.975 64.6495 598.975 Q58.6541 598.975 55.4828 594.392 Q52.3116 589.786 52.3116 581.059 Q52.3116 572.864 56.2004 568.003 Q60.0893 563.119 66.6402 563.119 Q68.3994 563.119 70.1818 563.466 Q71.9874 563.813 73.9318 564.508 Z" fill="#000000" fill-rule="evenodd" fill-opacity="1" /><path clip-path="url(#clip460)" d="M 0 0 M91.2465 566.823 Q87.6354 566.823 85.8068 570.387 Q84.0012 573.929 84.0012 581.059 Q84.0012 588.165 85.8068 591.73 Q87.6354 595.272 91.2465 595.272 Q94.8808 595.272 96.6863 591.73 Q98.515 588.165 98.515 581.059 Q98.515 573.929 96.6863 570.387 Q94.8808 566.823 91.2465 566.823 M91.2465 563.119 Q97.0567 563.119 100.112 567.725 Q103.191 572.309 103.191 581.059 Q103.191 589.786 100.112 594.392 Q97.0567 598.975 91.2465 598.975 Q85.4364 598.975 82.3577 594.392 Q79.3022 589.786 79.3022 581.059 Q79.3022 572.309 82.3577 567.725 Q85.4364 563.119 91.2465 563.119 Z" fill="#000000" fill-rule="evenodd" fill-opacity="1" /><path clip-path="url(#clip460)" d="M 0 0 M118.26 566.823 Q114.649 566.823 112.82 570.387 Q111.015 573.929 111.015 581.059 Q111.015 588.165 112.82 591.73 Q114.649 595.272 118.26 595.272 Q121.895 595.272 123.7 591.73 Q125.529 588.165 125.529 581.059 Q125.529 573.929 123.7 570.387 Q121.895 566.823 118.26 566.823 M118.26 563.119 Q124.07 563.119 127.126 567.725 Q130.205 572.309 130.205 581.059 Q130.205 589.786 127.126 594.392 Q124.07 598.975 118.26 598.975 Q112.45 598.975 109.371 594.392 Q106.316 589.786 106.316 581.059 Q106.316 572.309 109.371 567.725 Q112.45 563.119 118.26 563.119 Z" fill="#000000" fill-rule="evenodd" fill-opacity="1" /><path clip-path="url(#clip460)" d="M 0 0 M64.3254 292.942 Q60.9921 292.942 59.0708 294.725 Q57.1726 296.507 57.1726 299.632 Q57.1726 302.757 59.0708 304.539 Q60.9921 306.322 64.3254 306.322 Q67.6587 306.322 69.58 304.539 Q71.5013 302.734 71.5013 299.632 Q71.5013 296.507 69.58 294.725 Q67.6819 292.942 64.3254 292.942 M59.6495 290.952 Q56.6402 290.211 54.9504 288.151 Q53.2838 286.091 53.2838 283.128 Q53.2838 278.984 56.2236 276.577 Q59.1865 274.169 64.3254 274.169 Q69.4874 274.169 72.4272 276.577 Q75.367 278.984 75.367 283.128 Q75.367 286.091 73.6772 288.151 Q72.0105 290.211 69.0244 290.952 Q72.404 291.739 74.279 294.03 Q76.1772 296.322 76.1772 299.632 Q76.1772 304.655 73.0985 307.34 Q70.0429 310.026 64.3254 310.026 Q58.6078 310.026 55.5291 307.34 Q52.4736 304.655 52.4736 299.632 Q52.4736 296.322 54.3717 294.03 Q56.2699 291.739 59.6495 290.952 M57.9365 283.567 Q57.9365 286.253 59.6032 287.757 Q61.293 289.262 64.3254 289.262 Q67.3346 289.262 69.0244 287.757 Q70.7374 286.253 70.7374 283.567 Q70.7374 280.882 69.0244 279.378 Q67.3346 277.873 64.3254 277.873 Q61.293 277.873 59.6032 279.378 Q57.9365 280.882 57.9365 283.567 Z" fill="#000000" fill-rule="evenodd" fill-opacity="1" /><path clip-path="url(#clip460)" d="M 0 0 M91.2465 277.873 Q87.6354 277.873 85.8068 281.438 Q84.0012 284.979 84.0012 292.109 Q84.0012 299.215 85.8068 302.78 Q87.6354 306.322 91.2465 306.322 Q94.8808 306.322 96.6863 302.78 Q98.515 299.215 98.515 292.109 Q98.515 284.979 96.6863 281.438 Q94.8808 277.873 91.2465 277.873 M91.2465 274.169 Q97.0567 274.169 100.112 278.776 Q103.191 283.359 103.191 292.109 Q103.191 300.836 100.112 305.442 Q97.0567 310.026 91.2465 310.026 Q85.4364 310.026 82.3577 305.442 Q79.3022 300.836 79.3022 292.109 Q79.3022 283.359 82.3577 278.776 Q85.4364 274.169 91.2465 274.169 Z" fill="#000000" fill-rule="evenodd" fill-opacity="1" /><path clip-path="url(#clip460)" d="M 0 0 M118.26 277.873 Q114.649 277.873 112.82 281.438 Q111.015 284.979 111.015 292.109 Q111.015 299.215 112.82 302.78 Q114.649 306.322 118.26 306.322 Q121.895 306.322 123.7 302.78 Q125.529 299.215 125.529 292.109 Q125.529 284.979 123.7 281.438 Q121.895 277.873 118.26 277.873 M118.26 274.169 Q124.07 274.169 127.126 278.776 Q130.205 283.359 130.205 292.109 Q130.205 300.836 127.126 305.442 Q124.07 310.026 118.26 310.026 Q112.45 310.026 109.371 305.442 Q106.316 300.836 106.316 292.109 Q106.316 283.359 109.371 278.776 Q112.45 274.169 118.26 274.169 Z" fill="#000000" fill-rule="evenodd" fill-opacity="1" /><path clip-path="url(#clip460)" d="M 0 0 M1183.67 18.8205 L1183.67 65.8515 L1193.55 65.8515 Q1206.07 65.8515 1211.86 60.1802 Q1217.7 54.509 1217.7 42.2752 Q1217.7 30.1225 1211.86 24.4918 Q1206.07 18.8205 1193.55 18.8205 L1183.67 18.8205 M1175.48 12.096 L1192.3 12.096 Q1209.88 12.096 1218.1 19.4281 Q1226.32 26.7198 1226.32 42.2752 Q1226.32 57.9117 1218.06 65.2439 Q1209.8 72.576 1192.3 72.576 L1175.48 72.576 L1175.48 12.096 Z" fill="#000000" fill-rule="evenodd" fill-opacity="1" /><path clip-path="url(#clip460)" d="M 0 0 M1254.76 49.7694 Q1245.73 49.7694 1242.24 51.8354 Q1238.76 53.9013 1238.76 58.8839 Q1238.76 62.8538 1241.35 65.2034 Q1243.99 67.5124 1248.48 67.5124 Q1254.68 67.5124 1258.41 63.1374 Q1262.17 58.7219 1262.17 51.4303 L1262.17 49.7694 L1254.76 49.7694 M1269.63 46.6907 L1269.63 72.576 L1262.17 72.576 L1262.17 65.6895 Q1259.62 69.8214 1255.81 71.8063 Q1252.01 73.7508 1246.5 73.7508 Q1239.53 73.7508 1235.4 69.8619 Q1231.31 65.9325 1231.31 59.3701 Q1231.31 51.7138 1236.41 47.825 Q1241.56 43.9361 1251.72 43.9361 L1262.17 43.9361 L1262.17 43.2069 Q1262.17 38.0623 1258.77 35.2672 Q1255.41 32.4315 1249.29 32.4315 Q1245.4 32.4315 1241.72 33.3632 Q1238.03 34.295 1234.63 36.1584 L1234.63 29.2718 Q1238.72 27.692 1242.57 26.9223 Q1246.42 26.1121 1250.06 26.1121 Q1259.91 26.1121 1264.77 31.2163 Q1269.63 36.3204 1269.63 46.6907 Z" fill="#000000" fill-rule="evenodd" fill-opacity="1" /><path clip-path="url(#clip460)" d="M 0 0 M1284.82 14.324 L1284.82 27.2059 L1300.17 27.2059 L1300.17 32.9987 L1284.82 32.9987 L1284.82 57.6282 Q1284.82 63.1779 1286.32 64.7578 Q1287.86 66.3376 1292.52 66.3376 L1300.17 66.3376 L1300.17 72.576 L1292.52 72.576 Q1283.89 72.576 1280.61 69.3758 Q1277.32 66.1351 1277.32 57.6282 L1277.32 32.9987 L1271.86 32.9987 L1271.86 27.2059 L1277.32 27.2059 L1277.32 14.324 L1284.82 14.324 Z" fill="#000000" fill-rule="evenodd" fill-opacity="1" /><path clip-path="url(#clip460)" d="M 0 0 M1328.61 49.7694 Q1319.58 49.7694 1316.09 51.8354 Q1312.61 53.9013 1312.61 58.8839 Q1312.61 62.8538 1315.2 65.2034 Q1317.83 67.5124 1322.33 67.5124 Q1328.53 67.5124 1332.25 63.1374 Q1336.02 58.7219 1336.02 51.4303 L1336.02 49.7694 L1328.61 49.7694 M1343.48 46.6907 L1343.48 72.576 L1336.02 72.576 L1336.02 65.6895 Q1333.47 69.8214 1329.66 71.8063 Q1325.85 73.7508 1320.35 73.7508 Q1313.38 73.7508 1309.25 69.8619 Q1305.15 65.9325 1305.15 59.3701 Q1305.15 51.7138 1310.26 47.825 Q1315.4 43.9361 1325.57 43.9361 L1336.02 43.9361 L1336.02 43.2069 Q1336.02 38.0623 1332.62 35.2672 Q1329.26 32.4315 1323.14 32.4315 Q1319.25 32.4315 1315.57 33.3632 Q1311.88 34.295 1308.48 36.1584 L1308.48 29.2718 Q1312.57 27.692 1316.42 26.9223 Q1320.26 26.1121 1323.91 26.1121 Q1333.75 26.1121 1338.61 31.2163 Q1343.48 36.3204 1343.48 46.6907 Z" fill="#000000" fill-rule="evenodd" fill-opacity="1" /><polyline clip-path="url(#clip462)" style="stroke:#009af9; stroke-width:4; stroke-opacity:1; fill:none" points="
  228.088,1447.87 228.088,1390.08 262.468,1390.08 262.468,1332.29 296.848,1332.29 296.848,1216.71 331.227,1216.71 331.227,1101.13 365.607,1101.13 
  399.987,1101.13 399.987,1028.9 434.367,1028.9 434.367,971.106 468.746,971.106 468.746,985.554 503.126,985.554 503.126,884.421 537.506,884.421 537.506,841.079 
  571.886,841.079 571.886,739.946 606.265,739.946 606.265,1057.79 640.645,1057.79 640.645,898.869 675.025,898.869 675.025,1028.9 709.405,1028.9 709.405,1086.69 
  743.784,1086.69 743.784,1158.92 778.164,1158.92 778.164,1202.27 812.544,1202.27 812.544,1288.95 846.923,1288.95 846.923,1361.19 881.303,1361.19 881.303,1317.85 
  915.683,1317.85 915.683,1418.98 950.063,1418.98 950.063,1375.64 984.442,1375.64 984.442,1433.43 1018.82,1433.43 1018.82,1404.53 1053.2,1404.53 1053.2,1418.98 
  1087.58,1418.98 1087.58,1433.43 1121.96,1433.43 1121.96,1375.64 1156.34,1375.64 1190.72,1375.64 1190.72,1361.19 1225.1,1361.19 1225.1,1404.53 
  1259.48,1404.53 1259.48,1303.4 1293.86,1303.4 1293.86,1187.82 1328.24,1187.82 1328.24,1043.34 1362.62,1043.34 1362.62,956.659 1397,956.659 1397,739.946 
  1431.38,739.946 1431.38,898.869 1465.76,898.869 1465.76,436.549 1500.14,436.549 1500.14,479.892 1534.52,479.892 1534.52,407.654 1568.9,407.654 1568.9,364.312 
  1603.28,364.312 1603.28,378.759 1637.66,378.759 1637.66,162.047 1672.04,162.047 1672.04,436.549 1706.42,436.549 1706.42,638.814 1740.8,638.814 
  1775.18,638.814 1775.18,812.184 1809.56,812.184 1809.56,1000 1843.94,1000 1843.94,985.554 1878.32,985.554 1878.32,1173.37 1912.7,1173.37 1912.7,1158.92 
  1947.08,1158.92 1947.08,1288.95 1981.45,1288.95 1981.45,1346.74 2015.83,1346.74 2015.83,1375.64 2050.21,1375.64 2050.21,1433.43 2084.59,1433.43 2084.59,1447.87 
  2118.97,1447.87 2153.35,1447.87 2187.73,1447.87 2222.11,1447.87 2256.49,1447.87 
  2290.87,1447.87 
  "/>
<path clip-path="url(#clip460)" d="
M1940.93 289.865 L2279.87 289.865 L2279.87 168.905 L1940.93 168.905  Z
  " fill="#ffffff" fill-rule="evenodd" fill-opacity="1"/>
<polyline clip-path="url(#clip460)" style="stroke:#000000; stroke-width:4; stroke-opacity:1; fill:none" points="
  1940.93,289.865 2279.87,289.865 2279.87,168.905 1940.93,168.905 1940.93,289.865 
  "/>
<polyline clip-path="url(#clip460)" style="stroke:#009af9; stroke-width:4; stroke-opacity:1; fill:none" points="
  1965.22,229.385 2110.99,229.385 
  "/>
<path clip-path="url(#clip460)" d="M 0 0 M2139.96 215.947 L2139.96 242.822 L2145.61 242.822 Q2152.76 242.822 2156.07 239.581 Q2159.41 236.341 2159.41 229.35 Q2159.41 222.406 2156.07 219.188 Q2152.76 215.947 2145.61 215.947 L2139.96 215.947 M2135.29 212.105 L2144.89 212.105 Q2154.94 212.105 2159.64 216.294 Q2164.34 220.461 2164.34 229.35 Q2164.34 238.285 2159.61 242.475 Q2154.89 246.665 2144.89 246.665 L2135.29 246.665 L2135.29 212.105 Z" fill="#000000" fill-rule="evenodd" fill-opacity="1" /><path clip-path="url(#clip460)" d="M 0 0 M2180.59 233.632 Q2175.42 233.632 2173.43 234.813 Q2171.44 235.993 2171.44 238.841 Q2171.44 241.109 2172.92 242.452 Q2174.43 243.771 2177 243.771 Q2180.54 243.771 2182.67 241.271 Q2184.82 238.748 2184.82 234.581 L2184.82 233.632 L2180.59 233.632 M2189.08 231.873 L2189.08 246.665 L2184.82 246.665 L2184.82 242.729 Q2183.36 245.091 2181.19 246.225 Q2179.01 247.336 2175.86 247.336 Q2171.88 247.336 2169.52 245.114 Q2167.18 242.868 2167.18 239.118 Q2167.18 234.743 2170.1 232.521 Q2173.04 230.299 2178.85 230.299 L2184.82 230.299 L2184.82 229.882 Q2184.82 226.943 2182.88 225.345 Q2180.96 223.725 2177.46 223.725 Q2175.24 223.725 2173.13 224.257 Q2171.03 224.79 2169.08 225.855 L2169.08 221.919 Q2171.42 221.017 2173.62 220.577 Q2175.82 220.114 2177.9 220.114 Q2183.53 220.114 2186.3 223.031 Q2189.08 225.947 2189.08 231.873 Z" fill="#000000" fill-rule="evenodd" fill-opacity="1" /><path clip-path="url(#clip460)" d="M 0 0 M2197.76 213.378 L2197.76 220.739 L2206.54 220.739 L2206.54 224.049 L2197.76 224.049 L2197.76 238.123 Q2197.76 241.294 2198.62 242.197 Q2199.5 243.1 2202.16 243.1 L2206.54 243.1 L2206.54 246.665 L2202.16 246.665 Q2197.23 246.665 2195.36 244.836 Q2193.48 242.984 2193.48 238.123 L2193.48 224.049 L2190.36 224.049 L2190.36 220.739 L2193.48 220.739 L2193.48 213.378 L2197.76 213.378 Z" fill="#000000" fill-rule="evenodd" fill-opacity="1" /><path clip-path="url(#clip460)" d="M 0 0 M2222.79 233.632 Q2217.62 233.632 2215.63 234.813 Q2213.64 235.993 2213.64 238.841 Q2213.64 241.109 2215.12 242.452 Q2216.63 243.771 2219.2 243.771 Q2222.74 243.771 2224.87 241.271 Q2227.02 238.748 2227.02 234.581 L2227.02 233.632 L2222.79 233.632 M2231.28 231.873 L2231.28 246.665 L2227.02 246.665 L2227.02 242.729 Q2225.56 245.091 2223.39 246.225 Q2221.21 247.336 2218.06 247.336 Q2214.08 247.336 2211.72 245.114 Q2209.38 242.868 2209.38 239.118 Q2209.38 234.743 2212.3 232.521 Q2215.24 230.299 2221.05 230.299 L2227.02 230.299 L2227.02 229.882 Q2227.02 226.943 2225.08 225.345 Q2223.16 223.725 2219.66 223.725 Q2217.44 223.725 2215.33 224.257 Q2213.23 224.79 2211.28 225.855 L2211.28 221.919 Q2213.62 221.017 2215.82 220.577 Q2218.02 220.114 2220.1 220.114 Q2225.73 220.114 2228.5 223.031 Q2231.28 225.947 2231.28 231.873 Z" fill="#000000" fill-rule="evenodd" fill-opacity="1" /></svg>
