<?xml version="1.0" encoding="utf-8"?>
<svg xmlns="http://www.w3.org/2000/svg" xmlns:xlink="http://www.w3.org/1999/xlink" width="600" height="400" viewBox="0 0 2400 1600">
<defs>
  <clipPath id="clip070">
    <rect x="0" y="0" width="2400" height="1600"/>
  </clipPath>
</defs>
<path clip-path="url(#clip070)" d="
M0 1600 L2400 1600 L2400 0 L0 0  Z
  " fill="#ffffff" fill-rule="evenodd" fill-opacity="1"/>
<defs>
  <clipPath id="clip071">
    <rect x="480" y="0" width="1681" height="1600"/>
  </clipPath>
</defs>
<path clip-path="url(#clip070)" d="
M166.205 1486.45 L2352.76 1486.45 L2352.76 123.472 L166.205 123.472  Z
  " fill="#ffffff" fill-rule="evenodd" fill-opacity="1"/>
<defs>
  <clipPath id="clip072">
    <rect x="166" y="123" width="2188" height="1364"/>
  </clipPath>
</defs>
<polyline clip-path="url(#clip072)" style="stroke:#000000; stroke-width:2; stroke-opacity:0.1; fill:none" points="
  228.088,1486.45 228.088,123.472 
  "/>
<polyline clip-path="url(#clip072)" style="stroke:#000000; stroke-width:2; stroke-opacity:0.1; fill:none" points="
  571.886,1486.45 571.886,123.472 
  "/>
<polyline clip-path="url(#clip072)" style="stroke:#000000; stroke-width:2; stroke-opacity:0.1; fill:none" points="
  915.683,1486.45 915.683,123.472 
  "/>
<polyline clip-path="url(#clip072)" style="stroke:#000000; stroke-width:2; stroke-opacity:0.1; fill:none" points="
  1259.48,1486.45 1259.48,123.472 
  "/>
<polyline clip-path="url(#clip072)" style="stroke:#000000; stroke-width:2; stroke-opacity:0.1; fill:none" points="
  1603.28,1486.45 1603.28,123.472 
  "/>
<polyline clip-path="url(#clip072)" style="stroke:#000000; stroke-width:2; stroke-opacity:0.1; fill:none" points="
  1947.08,1486.45 1947.08,123.472 
  "/>
<polyline clip-path="url(#clip072)" style="stroke:#000000; stroke-width:2; stroke-opacity:0.1; fill:none" points="
  2290.87,1486.45 2290.87,123.472 
  "/>
<polyline clip-path="url(#clip070)" style="stroke:#000000; stroke-width:4; stroke-opacity:1; fill:none" points="
  166.205,1486.45 2352.76,1486.45 
  "/>
<polyline clip-path="url(#clip070)" style="stroke:#000000; stroke-width:4; stroke-opacity:1; fill:none" points="
  228.088,1486.45 228.088,1470.09 
  "/>
<polyline clip-path="url(#clip070)" style="stroke:#000000; stroke-width:4; stroke-opacity:1; fill:none" points="
  571.886,1486.45 571.886,1470.09 
  "/>
<polyline clip-path="url(#clip070)" style="stroke:#000000; stroke-width:4; stroke-opacity:1; fill:none" points="
  915.683,1486.45 915.683,1470.09 
  "/>
<polyline clip-path="url(#clip070)" style="stroke:#000000; stroke-width:4; stroke-opacity:1; fill:none" points="
  1259.48,1486.45 1259.48,1470.09 
  "/>
<polyline clip-path="url(#clip070)" style="stroke:#000000; stroke-width:4; stroke-opacity:1; fill:none" points="
  1603.28,1486.45 1603.28,1470.09 
  "/>
<polyline clip-path="url(#clip070)" style="stroke:#000000; stroke-width:4; stroke-opacity:1; fill:none" points="
  1947.08,1486.45 1947.08,1470.09 
  "/>
<polyline clip-path="url(#clip070)" style="stroke:#000000; stroke-width:4; stroke-opacity:1; fill:none" points="
  2290.87,1486.45 2290.87,1470.09 
  "/>
<path clip-path="url(#clip070)" d="M 0 0 M200.542 1530.29 L230.218 1530.29 L230.218 1534.23 L200.542 1534.23 L200.542 1530.29 Z" fill="#000000" fill-rule="evenodd" fill-opacity="1" /><path clip-path="url(#clip070)" d="M 0 0 M239.315 1543.18 L255.634 1543.18 L255.634 1547.12 L233.69 1547.12 L233.69 1543.18 Q236.352 1540.43 240.935 1535.8 Q245.542 1531.15 246.722 1529.81 Q248.968 1527.28 249.847 1525.55 Q250.75 1523.79 250.75 1522.1 Q250.75 1519.34 248.806 1517.61 Q246.884 1515.87 243.783 1515.87 Q241.583 1515.87 239.13 1516.63 Q236.699 1517.4 233.921 1518.95 L233.921 1514.23 Q236.746 1513.09 239.199 1512.51 Q241.653 1511.93 243.69 1511.93 Q249.06 1511.93 252.255 1514.62 Q255.449 1517.31 255.449 1521.8 Q255.449 1523.93 254.639 1525.85 Q253.852 1527.74 251.745 1530.34 Q251.167 1531.01 248.065 1534.23 Q244.963 1537.42 239.315 1543.18 Z" fill="#000000" fill-rule="evenodd" fill-opacity="1" /><path clip-path="url(#clip070)" d="M 0 0 M544.154 1530.29 L573.83 1530.29 L573.83 1534.23 L544.154 1534.23 L544.154 1530.29 Z" fill="#000000" fill-rule="evenodd" fill-opacity="1" /><path clip-path="url(#clip070)" d="M 0 0 M579.71 1543.18 L587.348 1543.18 L587.348 1516.82 L579.038 1518.49 L579.038 1514.23 L587.302 1512.56 L591.978 1512.56 L591.978 1543.18 L599.617 1543.18 L599.617 1547.12 L579.71 1547.12 L579.71 1543.18 Z" fill="#000000" fill-rule="evenodd" fill-opacity="1" /><path clip-path="url(#clip070)" d="M 0 0 M915.683 1515.64 Q912.072 1515.64 910.243 1519.2 Q908.438 1522.75 908.438 1529.87 Q908.438 1536.98 910.243 1540.55 Q912.072 1544.09 915.683 1544.09 Q919.317 1544.09 921.123 1540.55 Q922.951 1536.98 922.951 1529.87 Q922.951 1522.75 921.123 1519.2 Q919.317 1515.64 915.683 1515.64 M915.683 1511.93 Q921.493 1511.93 924.549 1516.54 Q927.627 1521.12 927.627 1529.87 Q927.627 1538.6 924.549 1543.21 Q921.493 1547.79 915.683 1547.79 Q909.873 1547.79 906.794 1543.21 Q903.739 1538.6 903.739 1529.87 Q903.739 1521.12 906.794 1516.54 Q909.873 1511.93 915.683 1511.93 Z" fill="#000000" fill-rule="evenodd" fill-opacity="1" /><path clip-path="url(#clip070)" d="M 0 0 M1249.86 1543.18 L1257.5 1543.18 L1257.5 1516.82 L1249.19 1518.49 L1249.19 1514.23 L1257.45 1512.56 L1262.13 1512.56 L1262.13 1543.18 L1269.77 1543.18 L1269.77 1547.12 L1249.86 1547.12 L1249.86 1543.18 Z" fill="#000000" fill-rule="evenodd" fill-opacity="1" /><path clip-path="url(#clip070)" d="M 0 0 M1597.93 1543.18 L1614.25 1543.18 L1614.25 1547.12 L1592.31 1547.12 L1592.31 1543.18 Q1594.97 1540.43 1599.55 1535.8 Q1604.16 1531.15 1605.34 1529.81 Q1607.58 1527.28 1608.46 1525.55 Q1609.37 1523.79 1609.37 1522.1 Q1609.37 1519.34 1607.42 1517.61 Q1605.5 1515.87 1602.4 1515.87 Q1600.2 1515.87 1597.75 1516.63 Q1595.31 1517.4 1592.54 1518.95 L1592.54 1514.23 Q1595.36 1513.09 1597.81 1512.51 Q1600.27 1511.93 1602.31 1511.93 Q1607.68 1511.93 1610.87 1514.62 Q1614.06 1517.31 1614.06 1521.8 Q1614.06 1523.93 1613.25 1525.85 Q1612.47 1527.74 1610.36 1530.34 Q1609.78 1531.01 1606.68 1534.23 Q1603.58 1537.42 1597.93 1543.18 Z" fill="#000000" fill-rule="evenodd" fill-opacity="1" /><path clip-path="url(#clip070)" d="M 0 0 M1951.32 1528.49 Q1954.68 1529.2 1956.55 1531.47 Q1958.45 1533.74 1958.45 1537.07 Q1958.45 1542.19 1954.93 1544.99 Q1951.42 1547.79 1944.93 1547.79 Q1942.76 1547.79 1940.44 1547.35 Q1938.15 1546.93 1935.7 1546.08 L1935.7 1541.56 Q1937.64 1542.7 1939.96 1543.28 Q1942.27 1543.86 1944.79 1543.86 Q1949.19 1543.86 1951.48 1542.12 Q1953.8 1540.38 1953.8 1537.07 Q1953.8 1534.02 1951.65 1532.31 Q1949.52 1530.57 1945.7 1530.57 L1941.67 1530.57 L1941.67 1526.73 L1945.88 1526.73 Q1949.33 1526.73 1951.16 1525.36 Q1952.99 1523.97 1952.99 1521.38 Q1952.99 1518.72 1951.09 1517.31 Q1949.22 1515.87 1945.7 1515.87 Q1943.78 1515.87 1941.58 1516.29 Q1939.38 1516.7 1936.74 1517.58 L1936.74 1513.42 Q1939.4 1512.68 1941.72 1512.31 Q1944.05 1511.93 1946.11 1511.93 Q1951.44 1511.93 1954.54 1514.37 Q1957.64 1516.77 1957.64 1520.89 Q1957.64 1523.76 1956 1525.75 Q1954.36 1527.72 1951.32 1528.49 Z" fill="#000000" fill-rule="evenodd" fill-opacity="1" /><path clip-path="url(#clip070)" d="M 0 0 M2293.88 1516.63 L2282.08 1535.08 L2293.88 1535.08 L2293.88 1516.63 M2292.65 1512.56 L2298.53 1512.56 L2298.53 1535.08 L2303.46 1535.08 L2303.46 1538.97 L2298.53 1538.97 L2298.53 1547.12 L2293.88 1547.12 L2293.88 1538.97 L2278.28 1538.97 L2278.28 1534.46 L2292.65 1512.56 Z" fill="#000000" fill-rule="evenodd" fill-opacity="1" /><polyline clip-path="url(#clip072)" style="stroke:#000000; stroke-width:2; stroke-opacity:0.1; fill:none" points="
  166.205,1447.87 2352.76,1447.87 
  "/>
<polyline clip-path="url(#clip072)" style="stroke:#000000; stroke-width:2; stroke-opacity:0.1; fill:none" points="
  166.205,1168.35 2352.76,1168.35 
  "/>
<polyline clip-path="url(#clip072)" style="stroke:#000000; stroke-width:2; stroke-opacity:0.1; fill:none" points="
  166.205,888.818 2352.76,888.818 
  "/>
<polyline clip-path="url(#clip072)" style="stroke:#000000; stroke-width:2; stroke-opacity:0.1; fill:none" points="
  166.205,609.291 2352.76,609.291 
  "/>
<polyline clip-path="url(#clip072)" style="stroke:#000000; stroke-width:2; stroke-opacity:0.1; fill:none" points="
  166.205,329.763 2352.76,329.763 
  "/>
<polyline clip-path="url(#clip070)" style="stroke:#000000; stroke-width:4; stroke-opacity:1; fill:none" points="
  166.205,1486.45 166.205,123.472 
  "/>
<polyline clip-path="url(#clip070)" style="stroke:#000000; stroke-width:4; stroke-opacity:1; fill:none" points="
  166.205,1447.87 192.443,1447.87 
  "/>
<polyline clip-path="url(#clip070)" style="stroke:#000000; stroke-width:4; stroke-opacity:1; fill:none" points="
  166.205,1168.35 192.443,1168.35 
  "/>
<polyline clip-path="url(#clip070)" style="stroke:#000000; stroke-width:4; stroke-opacity:1; fill:none" points="
  166.205,888.818 192.443,888.818 
  "/>
<polyline clip-path="url(#clip070)" style="stroke:#000000; stroke-width:4; stroke-opacity:1; fill:none" points="
  166.205,609.291 192.443,609.291 
  "/>
<polyline clip-path="url(#clip070)" style="stroke:#000000; stroke-width:4; stroke-opacity:1; fill:none" points="
  166.205,329.763 192.443,329.763 
  "/>
<path clip-path="url(#clip070)" d="M 0 0 M118.26 1433.67 Q114.649 1433.67 112.82 1437.24 Q111.015 1440.78 111.015 1447.91 Q111.015 1455.01 112.82 1458.58 Q114.649 1462.12 118.26 1462.12 Q121.895 1462.12 123.7 1458.58 Q125.529 1455.01 125.529 1447.91 Q125.529 1440.78 123.7 1437.24 Q121.895 1433.67 118.26 1433.67 M118.26 1429.97 Q124.07 1429.97 127.126 1434.57 Q130.205 1439.16 130.205 1447.91 Q130.205 1456.63 127.126 1461.24 Q124.07 1465.82 118.26 1465.82 Q112.45 1465.82 109.371 1461.24 Q106.316 1456.63 106.316 1447.91 Q106.316 1439.16 109.371 1434.57 Q112.45 1429.97 118.26 1429.97 Z" fill="#000000" fill-rule="evenodd" fill-opacity="1" /><path clip-path="url(#clip070)" d="M 0 0 M59.8578 1181.69 L76.1772 1181.69 L76.1772 1185.63 L54.2328 1185.63 L54.2328 1181.69 Q56.8949 1178.94 61.4782 1174.31 Q66.0846 1169.65 67.2652 1168.31 Q69.5105 1165.79 70.3902 1164.05 Q71.2929 1162.29 71.2929 1160.6 Q71.2929 1157.85 69.3485 1156.11 Q67.4272 1154.38 64.3254 1154.38 Q62.1263 1154.38 59.6726 1155.14 Q57.2421 1155.9 54.4643 1157.45 L54.4643 1152.73 Q57.2884 1151.6 59.7421 1151.02 Q62.1958 1150.44 64.2328 1150.44 Q69.6031 1150.44 72.7976 1153.13 Q75.992 1155.81 75.992 1160.3 Q75.992 1162.43 75.1818 1164.35 Q74.3948 1166.25 72.2883 1168.84 Q71.7096 1169.51 68.6078 1172.73 Q65.5059 1175.93 59.8578 1181.69 Z" fill="#000000" fill-rule="evenodd" fill-opacity="1" /><path clip-path="url(#clip070)" d="M 0 0 M91.2465 1154.14 Q87.6354 1154.14 85.8068 1157.71 Q84.0012 1161.25 84.0012 1168.38 Q84.0012 1175.49 85.8068 1179.05 Q87.6354 1182.59 91.2465 1182.59 Q94.8808 1182.59 96.6863 1179.05 Q98.515 1175.49 98.515 1168.38 Q98.515 1161.25 96.6863 1157.71 Q94.8808 1154.14 91.2465 1154.14 M91.2465 1150.44 Q97.0567 1150.44 100.112 1155.05 Q103.191 1159.63 103.191 1168.38 Q103.191 1177.11 100.112 1181.71 Q97.0567 1186.3 91.2465 1186.3 Q85.4364 1186.3 82.3577 1181.71 Q79.3022 1177.11 79.3022 1168.38 Q79.3022 1159.63 82.3577 1155.05 Q85.4364 1150.44 91.2465 1150.44 Z" fill="#000000" fill-rule="evenodd" fill-opacity="1" /><path clip-path="url(#clip070)" d="M 0 0 M118.26 1154.14 Q114.649 1154.14 112.82 1157.71 Q111.015 1161.25 111.015 1168.38 Q111.015 1175.49 112.82 1179.05 Q114.649 1182.59 118.26 1182.59 Q121.895 1182.59 123.7 1179.05 Q125.529 1175.49 125.529 1168.38 Q125.529 1161.25 123.7 1157.71 Q121.895 1154.14 118.26 1154.14 M118.26 1150.44 Q124.07 1150.44 127.126 1155.05 Q130.205 1159.63 130.205 1168.38 Q130.205 1177.11 127.126 1181.71 Q124.07 1186.3 118.26 1186.3 Q112.45 1186.3 109.371 1181.71 Q106.316 1177.11 106.316 1168.38 Q106.316 1159.63 109.371 1155.05 Q112.45 1150.44 118.26 1150.44 Z" fill="#000000" fill-rule="evenodd" fill-opacity="1" /><path clip-path="url(#clip070)" d="M 0 0 M66.5939 875.612 L54.7884 894.061 L66.5939 894.061 L66.5939 875.612 M65.367 871.538 L71.2466 871.538 L71.2466 894.061 L76.1772 894.061 L76.1772 897.95 L71.2466 897.95 L71.2466 906.098 L66.5939 906.098 L66.5939 897.95 L50.9921 897.95 L50.9921 893.436 L65.367 871.538 Z" fill="#000000" fill-rule="evenodd" fill-opacity="1" /><path clip-path="url(#clip070)" d="M 0 0 M91.2465 874.617 Q87.6354 874.617 85.8068 878.182 Q84.0012 881.723 84.0012 888.853 Q84.0012 895.959 85.8068 899.524 Q87.6354 903.066 91.2465 903.066 Q94.8808 903.066 96.6863 899.524 Q98.515 895.959 98.515 888.853 Q98.515 881.723 96.6863 878.182 Q94.8808 874.617 91.2465 874.617 M91.2465 870.913 Q97.0567 870.913 100.112 875.52 Q103.191 880.103 103.191 888.853 Q103.191 897.58 100.112 902.186 Q97.0567 906.77 91.2465 906.77 Q85.4364 906.77 82.3577 902.186 Q79.3022 897.58 79.3022 888.853 Q79.3022 880.103 82.3577 875.52 Q85.4364 870.913 91.2465 870.913 Z" fill="#000000" fill-rule="evenodd" fill-opacity="1" /><path clip-path="url(#clip070)" d="M 0 0 M118.26 874.617 Q114.649 874.617 112.82 878.182 Q111.015 881.723 111.015 888.853 Q111.015 895.959 112.82 899.524 Q114.649 903.066 118.26 903.066 Q121.895 903.066 123.7 899.524 Q125.529 895.959 125.529 888.853 Q125.529 881.723 123.7 878.182 Q121.895 874.617 118.26 874.617 M118.26 870.913 Q124.07 870.913 127.126 875.52 Q130.205 880.103 130.205 888.853 Q130.205 897.58 127.126 902.186 Q124.07 906.77 118.26 906.77 Q112.45 906.77 109.371 902.186 Q106.316 897.58 106.316 888.853 Q106.316 880.103 109.371 875.52 Q112.45 870.913 118.26 870.913 Z" fill="#000000" fill-rule="evenodd" fill-opacity="1" /><path clip-path="url(#clip070)" d="M 0 0 M64.6495 607.427 Q61.5013 607.427 59.6495 609.58 Q57.8208 611.733 57.8208 615.483 Q57.8208 619.21 59.6495 621.386 Q61.5013 623.538 64.6495 623.538 Q67.7976 623.538 69.6263 621.386 Q71.4781 619.21 71.4781 615.483 Q71.4781 611.733 69.6263 609.58 Q67.7976 607.427 64.6495 607.427 M73.9318 592.775 L73.9318 597.034 Q72.1726 596.201 70.367 595.761 Q68.5846 595.321 66.8254 595.321 Q62.1958 595.321 59.7421 598.446 Q57.3115 601.571 56.9643 607.89 Q58.33 605.876 60.3902 604.812 Q62.4504 603.724 64.9272 603.724 Q70.1355 603.724 73.1448 606.895 Q76.1772 610.043 76.1772 615.483 Q76.1772 620.807 73.029 624.025 Q69.8809 627.242 64.6495 627.242 Q58.6541 627.242 55.4828 622.659 Q52.3116 618.052 52.3116 609.326 Q52.3116 601.131 56.2004 596.27 Q60.0893 591.386 66.6402 591.386 Q68.3994 591.386 70.1818 591.733 Q71.9874 592.08 73.9318 592.775 Z" fill="#000000" fill-rule="evenodd" fill-opacity="1" /><path clip-path="url(#clip070)" d="M 0 0 M91.2465 595.089 Q87.6354 595.089 85.8068 598.654 Q84.0012 602.196 84.0012 609.326 Q84.0012 616.432 85.8068 619.997 Q87.6354 623.538 91.2465 623.538 Q94.8808 623.538 96.6863 619.997 Q98.515 616.432 98.515 609.326 Q98.515 602.196 96.6863 598.654 Q94.8808 595.089 91.2465 595.089 M91.2465 591.386 Q97.0567 591.386 100.112 595.992 Q103.191 600.576 103.191 609.326 Q103.191 618.052 100.112 622.659 Q97.0567 627.242 91.2465 627.242 Q85.4364 627.242 82.3577 622.659 Q79.3022 618.052 79.3022 609.326 Q79.3022 600.576 82.3577 595.992 Q85.4364 591.386 91.2465 591.386 Z" fill="#000000" fill-rule="evenodd" fill-opacity="1" /><path clip-path="url(#clip070)" d="M 0 0 M118.26 595.089 Q114.649 595.089 112.82 598.654 Q111.015 602.196 111.015 609.326 Q111.015 616.432 112.82 619.997 Q114.649 623.538 118.26 623.538 Q121.895 623.538 123.7 619.997 Q125.529 616.432 125.529 609.326 Q125.529 602.196 123.7 598.654 Q121.895 595.089 118.26 595.089 M118.26 591.386 Q124.07 591.386 127.126 595.992 Q130.205 600.576 130.205 609.326 Q130.205 618.052 127.126 622.659 Q124.07 627.242 118.26 627.242 Q112.45 627.242 109.371 622.659 Q106.316 618.052 106.316 609.326 Q106.316 600.576 109.371 595.992 Q112.45 591.386 118.26 591.386 Z" fill="#000000" fill-rule="evenodd" fill-opacity="1" /><path clip-path="url(#clip070)" d="M 0 0 M64.3254 330.631 Q60.9921 330.631 59.0708 332.414 Q57.1726 334.196 57.1726 337.321 Q57.1726 340.446 59.0708 342.229 Q60.9921 344.011 64.3254 344.011 Q67.6587 344.011 69.58 342.229 Q71.5013 340.423 71.5013 337.321 Q71.5013 334.196 69.58 332.414 Q67.6819 330.631 64.3254 330.631 M59.6495 328.641 Q56.6402 327.9 54.9504 325.84 Q53.2838 323.78 53.2838 320.817 Q53.2838 316.673 56.2236 314.266 Q59.1865 311.858 64.3254 311.858 Q69.4874 311.858 72.4272 314.266 Q75.367 316.673 75.367 320.817 Q75.367 323.78 73.6772 325.84 Q72.0105 327.9 69.0244 328.641 Q72.404 329.428 74.279 331.719 Q76.1772 334.011 76.1772 337.321 Q76.1772 342.344 73.0985 345.029 Q70.0429 347.715 64.3254 347.715 Q58.6078 347.715 55.5291 345.029 Q52.4736 342.344 52.4736 337.321 Q52.4736 334.011 54.3717 331.719 Q56.2699 329.428 59.6495 328.641 M57.9365 321.256 Q57.9365 323.942 59.6032 325.446 Q61.293 326.951 64.3254 326.951 Q67.3346 326.951 69.0244 325.446 Q70.7374 323.942 70.7374 321.256 Q70.7374 318.571 69.0244 317.067 Q67.3346 315.562 64.3254 315.562 Q61.293 315.562 59.6032 317.067 Q57.9365 318.571 57.9365 321.256 Z" fill="#000000" fill-rule="evenodd" fill-opacity="1" /><path clip-path="url(#clip070)" d="M 0 0 M91.2465 315.562 Q87.6354 315.562 85.8068 319.127 Q84.0012 322.668 84.0012 329.798 Q84.0012 336.905 85.8068 340.469 Q87.6354 344.011 91.2465 344.011 Q94.8808 344.011 96.6863 340.469 Q98.515 336.905 98.515 329.798 Q98.515 322.668 96.6863 319.127 Q94.8808 315.562 91.2465 315.562 M91.2465 311.858 Q97.0567 311.858 100.112 316.465 Q103.191 321.048 103.191 329.798 Q103.191 338.525 100.112 343.131 Q97.0567 347.715 91.2465 347.715 Q85.4364 347.715 82.3577 343.131 Q79.3022 338.525 79.3022 329.798 Q79.3022 321.048 82.3577 316.465 Q85.4364 311.858 91.2465 311.858 Z" fill="#000000" fill-rule="evenodd" fill-opacity="1" /><path clip-path="url(#clip070)" d="M 0 0 M118.26 315.562 Q114.649 315.562 112.82 319.127 Q111.015 322.668 111.015 329.798 Q111.015 336.905 112.82 340.469 Q114.649 344.011 118.26 344.011 Q121.895 344.011 123.7 340.469 Q125.529 336.905 125.529 329.798 Q125.529 322.668 123.7 319.127 Q121.895 315.562 118.26 315.562 M118.26 311.858 Q124.07 311.858 127.126 316.465 Q130.205 321.048 130.205 329.798 Q130.205 338.525 127.126 343.131 Q124.07 347.715 118.26 347.715 Q112.45 347.715 109.371 343.131 Q106.316 338.525 106.316 329.798 Q106.316 321.048 109.371 316.465 Q112.45 311.858 118.26 311.858 Z" fill="#000000" fill-rule="evenodd" fill-opacity="1" /><path clip-path="url(#clip070)" d="M 0 0 M1183.67 18.8205 L1183.67 65.8515 L1193.55 65.8515 Q1206.07 65.8515 1211.86 60.1802 Q1217.7 54.509 1217.7 42.2752 Q1217.7 30.1225 1211.86 24.4918 Q1206.07 18.8205 1193.55 18.8205 L1183.67 18.8205 M1175.48 12.096 L1192.3 12.096 Q1209.88 12.096 1218.1 19.4281 Q1226.32 26.7198 1226.32 42.2752 Q1226.32 57.9117 1218.06 65.2439 Q1209.8 72.576 1192.3 72.576 L1175.48 72.576 L1175.48 12.096 Z" fill="#000000" fill-rule="evenodd" fill-opacity="1" /><path clip-path="url(#clip070)" d="M 0 0 M1254.76 49.7694 Q1245.73 49.7694 1242.24 51.8354 Q1238.76 53.9013 1238.76 58.8839 Q1238.76 62.8538 1241.35 65.2034 Q1243.99 67.5124 1248.48 67.5124 Q1254.68 67.5124 1258.41 63.1374 Q1262.17 58.7219 1262.17 51.4303 L1262.17 49.7694 L1254.76 49.7694 M1269.63 46.6907 L1269.63 72.576 L1262.17 72.576 L1262.17 65.6895 Q1259.62 69.8214 1255.81 71.8063 Q1252.01 73.7508 1246.5 73.7508 Q1239.53 73.7508 1235.4 69.8619 Q1231.31 65.9325 1231.31 59.3701 Q1231.31 51.7138 1236.41 47.825 Q1241.56 43.9361 1251.72 43.9361 L1262.17 43.9361 L1262.17 43.2069 Q1262.17 38.0623 1258.77 35.2672 Q1255.41 32.4315 1249.29 32.4315 Q1245.4 32.4315 1241.72 33.3632 Q1238.03 34.295 1234.63 36.1584 L1234.63 29.2718 Q1238.72 27.692 1242.57 26.9223 Q1246.42 26.1121 1250.06 26.1121 Q1259.91 26.1121 1264.77 31.2163 Q1269.63 36.3204 1269.63 46.6907 Z" fill="#000000" fill-rule="evenodd" fill-opacity="1" /><path clip-path="url(#clip070)" d="M 0 0 M1284.82 14.324 L1284.82 27.2059 L1300.17 27.2059 L1300.17 32.9987 L1284.82 32.9987 L1284.82 57.6282 Q1284.82 63.1779 1286.32 64.7578 Q1287.86 66.3376 1292.52 66.3376 L1300.17 66.3376 L1300.17 72.576 L1292.52 72.576 Q1283.89 72.576 1280.61 69.3758 Q1277.32 66.1351 1277.32 57.6282 L1277.32 32.9987 L1271.86 32.9987 L1271.86 27.2059 L1277.32 27.2059 L1277.32 14.324 L1284.82 14.324 Z" fill="#000000" fill-rule="evenodd" fill-opacity="1" /><path clip-path="url(#clip070)" d="M 0 0 M1328.61 49.7694 Q1319.58 49.7694 1316.09 51.8354 Q1312.61 53.9013 1312.61 58.8839 Q1312.61 62.8538 1315.2 65.2034 Q1317.83 67.5124 1322.33 67.5124 Q1328.53 67.5124 1332.25 63.1374 Q1336.02 58.7219 1336.02 51.4303 L1336.02 49.7694 L1328.61 49.7694 M1343.48 46.6907 L1343.48 72.576 L1336.02 72.576 L1336.02 65.6895 Q1333.47 69.8214 1329.66 71.8063 Q1325.85 73.7508 1320.35 73.7508 Q1313.38 73.7508 1309.25 69.8619 Q1305.15 65.9325 1305.15 59.3701 Q1305.15 51.7138 1310.26 47.825 Q1315.4 43.9361 1325.57 43.9361 L1336.02 43.9361 L1336.02 43.2069 Q1336.02 38.0623 1332.62 35.2672 Q1329.26 32.4315 1323.14 32.4315 Q1319.25 32.4315 1315.57 33.3632 Q1311.88 34.295 1308.48 36.1584 L1308.48 29.2718 Q1312.57 27.692 1316.42 26.9223 Q1320.26 26.1121 1323.91 26.1121 Q1333.75 26.1121 1338.61 31.2163 Q1343.48 36.3204 1343.48 46.6907 Z" fill="#000000" fill-rule="evenodd" fill-opacity="1" /><polyline clip-path="url(#clip072)" style="stroke:#009af9; stroke-width:4; stroke-opacity:1; fill:none" points="
  228.088,1447.87 228.088,1364.01 262.468,1364.01 296.848,1364.01 296.848,1308.11 331.227,1308.11 331.227,1056.53 365.607,1056.53 365.607,1210.27 
  399.987,1210.27 399.987,1098.46 434.367,1098.46 434.367,1154.37 468.746,1154.37 468.746,804.96 503.126,804.96 503.126,986.653 537.506,986.653 537.506,832.913 
  571.886,832.913 606.265,832.913 606.265,888.818 640.645,888.818 640.645,1042.56 675.025,1042.56 675.025,1000.63 709.405,1000.63 709.405,972.676 
  743.784,972.676 743.784,1168.35 778.164,1168.35 778.164,1252.2 812.544,1252.2 812.544,1322.09 846.923,1322.09 846.923,1350.04 881.303,1350.04 
  915.683,1350.04 915.683,1377.99 950.063,1377.99 950.063,1364.01 984.442,1364.01 984.442,1405.94 1018.82,1405.94 1018.82,1419.92 1053.2,1419.92 1053.2,1433.9 
  1087.58,1433.9 1087.58,1419.92 1121.96,1419.92 1121.96,1433.9 1156.34,1433.9 1190.72,1433.9 1190.72,1364.01 1225.1,1364.01 1225.1,1336.06 
  1259.48,1336.06 1259.48,1294.13 1293.86,1294.13 1293.86,1238.23 1328.24,1238.23 1328.24,1014.61 1362.62,1014.61 1397,1014.61 1397,930.747 
  1431.38,930.747 1431.38,679.173 1465.76,679.173 1465.76,581.338 1500.14,581.338 1500.14,315.787 1534.52,315.787 1534.52,357.716 1568.9,357.716 1568.9,162.047 
  1603.28,162.047 1603.28,399.645 1637.66,399.645 1637.66,637.244 1672.04,637.244 1672.04,511.456 1706.42,511.456 1740.8,511.456 1740.8,763.031 
  1775.18,763.031 1775.18,818.936 1809.56,818.936 1809.56,860.865 1843.94,860.865 1843.94,1154.37 1878.32,1154.37 1878.32,1126.42 1912.7,1126.42 1912.7,1252.2 
  1947.08,1252.2 1947.08,1336.06 1981.45,1336.06 1981.45,1322.09 2015.83,1322.09 2015.83,1433.9 2050.21,1433.9 2050.21,1364.01 2084.59,1364.01 2084.59,1433.9 
  2118.97,1433.9 2118.97,1447.87 2153.35,1447.87 2187.73,1447.87 2187.73,1419.92 2222.11,1419.92 2222.11,1447.87 2256.49,1447.87 
  2290.87,1447.87 
  "/>
<path clip-path="url(#clip070)" d="
M1940.93 289.865 L2279.87 289.865 L2279.87 168.905 L1940.93 168.905  Z
  " fill="#ffffff" fill-rule="evenodd" fill-opacity="1"/>
<polyline clip-path="url(#clip070)" style="stroke:#000000; stroke-width:4; stroke-opacity:1; fill:none" points="
  1940.93,289.865 2279.87,289.865 2279.87,168.905 1940.93,168.905 1940.93,289.865 
  "/>
<polyline clip-path="url(#clip070)" style="stroke:#009af9; stroke-width:4; stroke-opacity:1; fill:none" points="
  1965.22,229.385 2110.99,229.385 
  "/>
<path clip-path="url(#clip070)" d="M 0 0 M2139.96 215.947 L2139.96 242.822 L2145.61 242.822 Q2152.76 242.822 2156.07 239.581 Q2159.41 236.341 2159.41 229.35 Q2159.41 222.406 2156.07 219.188 Q2152.76 215.947 2145.61 215.947 L2139.96 215.947 M2135.29 212.105 L2144.89 212.105 Q2154.94 212.105 2159.64 216.294 Q2164.34 220.461 2164.34 229.35 Q2164.34 238.285 2159.61 242.475 Q2154.89 246.665 2144.89 246.665 L2135.29 246.665 L2135.29 212.105 Z" fill="#000000" fill-rule="evenodd" fill-opacity="1" /><path clip-path="url(#clip070)" d="M 0 0 M2180.59 233.632 Q2175.42 233.632 2173.43 234.813 Q2171.44 235.993 2171.44 238.841 Q2171.44 241.109 2172.92 242.452 Q2174.43 243.771 2177 243.771 Q2180.54 243.771 2182.67 241.271 Q2184.82 238.748 2184.82 234.581 L2184.82 233.632 L2180.59 233.632 M2189.08 231.873 L2189.08 246.665 L2184.82 246.665 L2184.82 242.729 Q2183.36 245.091 2181.19 246.225 Q2179.01 247.336 2175.86 247.336 Q2171.88 247.336 2169.52 245.114 Q2167.18 242.868 2167.18 239.118 Q2167.18 234.743 2170.1 232.521 Q2173.04 230.299 2178.85 230.299 L2184.82 230.299 L2184.82 229.882 Q2184.82 226.943 2182.88 225.345 Q2180.96 223.725 2177.46 223.725 Q2175.24 223.725 2173.13 224.257 Q2171.03 224.79 2169.08 225.855 L2169.08 221.919 Q2171.42 221.017 2173.62 220.577 Q2175.82 220.114 2177.9 220.114 Q2183.53 220.114 2186.3 223.031 Q2189.08 225.947 2189.08 231.873 Z" fill="#000000" fill-rule="evenodd" fill-opacity="1" /><path clip-path="url(#clip070)" d="M 0 0 M2197.76 213.378 L2197.76 220.739 L2206.54 220.739 L2206.54 224.049 L2197.76 224.049 L2197.76 238.123 Q2197.76 241.294 2198.62 242.197 Q2199.5 243.1 2202.16 243.1 L2206.54 243.1 L2206.54 246.665 L2202.16 246.665 Q2197.23 246.665 2195.36 244.836 Q2193.48 242.984 2193.48 238.123 L2193.48 224.049 L2190.36 224.049 L2190.36 220.739 L2193.48 220.739 L2193.48 213.378 L2197.76 213.378 Z" fill="#000000" fill-rule="evenodd" fill-opacity="1" /><path clip-path="url(#clip070)" d="M 0 0 M2222.79 233.632 Q2217.62 233.632 2215.63 234.813 Q2213.64 235.993 2213.64 238.841 Q2213.64 241.109 2215.12 242.452 Q2216.63 243.771 2219.2 243.771 Q2222.74 243.771 2224.87 241.271 Q2227.02 238.748 2227.02 234.581 L2227.02 233.632 L2222.79 233.632 M2231.28 231.873 L2231.28 246.665 L2227.02 246.665 L2227.02 242.729 Q2225.56 245.091 2223.39 246.225 Q2221.21 247.336 2218.06 247.336 Q2214.08 247.336 2211.72 245.114 Q2209.38 242.868 2209.38 239.118 Q2209.38 234.743 2212.3 232.521 Q2215.24 230.299 2221.05 230.299 L2227.02 230.299 L2227.02 229.882 Q2227.02 226.943 2225.08 225.345 Q2223.16 223.725 2219.66 223.725 Q2217.44 223.725 2215.33 224.257 Q2213.23 224.79 2211.28 225.855 L2211.28 221.919 Q2213.62 221.017 2215.82 220.577 Q2218.02 220.114 2220.1 220.114 Q2225.73 220.114 2228.5 223.031 Q2231.28 225.947 2231.28 231.873 Z" fill="#000000" fill-rule="evenodd" fill-opacity="1" /></svg>
