<?xml version="1.0" encoding="utf-8"?>
<svg xmlns="http://www.w3.org/2000/svg" xmlns:xlink="http://www.w3.org/1999/xlink" width="600" height="400" viewBox="0 0 2400 1600">
<defs>
  <clipPath id="clip560">
    <rect x="0" y="0" width="2400" height="1600"/>
  </clipPath>
</defs>
<path clip-path="url(#clip560)" d="
M0 1600 L2400 1600 L2400 0 L0 0  Z
  " fill="#ffffff" fill-rule="evenodd" fill-opacity="1"/>
<defs>
  <clipPath id="clip561">
    <rect x="480" y="0" width="1681" height="1600"/>
  </clipPath>
</defs>
<path clip-path="url(#clip560)" d="
M166.205 1486.45 L2352.76 1486.45 L2352.76 123.472 L166.205 123.472  Z
  " fill="#ffffff" fill-rule="evenodd" fill-opacity="1"/>
<defs>
  <clipPath id="clip562">
    <rect x="166" y="123" width="2188" height="1364"/>
  </clipPath>
</defs>
<polyline clip-path="url(#clip562)" style="stroke:#000000; stroke-width:2; stroke-opacity:0.1; fill:none" points="
  228.088,1486.45 228.088,123.472 
  "/>
<polyline clip-path="url(#clip562)" style="stroke:#000000; stroke-width:2; stroke-opacity:0.1; fill:none" points="
  571.886,1486.45 571.886,123.472 
  "/>
<polyline clip-path="url(#clip562)" style="stroke:#000000; stroke-width:2; stroke-opacity:0.1; fill:none" points="
  915.683,1486.45 915.683,123.472 
  "/>
<polyline clip-path="url(#clip562)" style="stroke:#000000; stroke-width:2; stroke-opacity:0.1; fill:none" points="
  1259.48,1486.45 1259.48,123.472 
  "/>
<polyline clip-path="url(#clip562)" style="stroke:#000000; stroke-width:2; stroke-opacity:0.1; fill:none" points="
  1603.28,1486.45 1603.28,123.472 
  "/>
<polyline clip-path="url(#clip562)" style="stroke:#000000; stroke-width:2; stroke-opacity:0.1; fill:none" points="
  1947.08,1486.45 1947.08,123.472 
  "/>
<polyline clip-path="url(#clip562)" style="stroke:#000000; stroke-width:2; stroke-opacity:0.1; fill:none" points="
  2290.87,1486.45 2290.87,123.472 
  "/>
<polyline clip-path="url(#clip562)" style="stroke:#000000; stroke-width:2; stroke-opacity:0.1; fill:none" points="
  166.205,1447.87 2352.76,1447.87 
  "/>
<polyline clip-path="url(#clip562)" style="stroke:#000000; stroke-width:2; stroke-opacity:0.1; fill:none" points="
  166.205,1162.13 2352.76,1162.13 
  "/>
<polyline clip-path="url(#clip562)" style="stroke:#000000; stroke-width:2; stroke-opacity:0.1; fill:none" points="
  166.205,876.395 2352.76,876.395 
  "/>
<polyline clip-path="url(#clip562)" style="stroke:#000000; stroke-width:2; stroke-opacity:0.1; fill:none" points="
  166.205,590.656 2352.76,590.656 
  "/>
<polyline clip-path="url(#clip562)" style="stroke:#000000; stroke-width:2; stroke-opacity:0.1; fill:none" points="
  166.205,304.916 2352.76,304.916 
  "/>
<polyline clip-path="url(#clip560)" style="stroke:#000000; stroke-width:4; stroke-opacity:1; fill:none" points="
  166.205,1486.45 2352.76,1486.45 
  "/>
<polyline clip-path="url(#clip560)" style="stroke:#000000; stroke-width:4; stroke-opacity:1; fill:none" points="
  166.205,1486.45 166.205,123.472 
  "/>
<polyline clip-path="url(#clip560)" style="stroke:#000000; stroke-width:4; stroke-opacity:1; fill:none" points="
  228.088,1486.45 228.088,1470.09 
  "/>
<polyline clip-path="url(#clip560)" style="stroke:#000000; stroke-width:4; stroke-opacity:1; fill:none" points="
  571.886,1486.45 571.886,1470.09 
  "/>
<polyline clip-path="url(#clip560)" style="stroke:#000000; stroke-width:4; stroke-opacity:1; fill:none" points="
  915.683,1486.45 915.683,1470.09 
  "/>
<polyline clip-path="url(#clip560)" style="stroke:#000000; stroke-width:4; stroke-opacity:1; fill:none" points="
  1259.48,1486.45 1259.48,1470.09 
  "/>
<polyline clip-path="url(#clip560)" style="stroke:#000000; stroke-width:4; stroke-opacity:1; fill:none" points="
  1603.28,1486.45 1603.28,1470.09 
  "/>
<polyline clip-path="url(#clip560)" style="stroke:#000000; stroke-width:4; stroke-opacity:1; fill:none" points="
  1947.08,1486.45 1947.08,1470.09 
  "/>
<polyline clip-path="url(#clip560)" style="stroke:#000000; stroke-width:4; stroke-opacity:1; fill:none" points="
  2290.87,1486.45 2290.87,1470.09 
  "/>
<polyline clip-path="url(#clip560)" style="stroke:#000000; stroke-width:4; stroke-opacity:1; fill:none" points="
  166.205,1447.87 192.443,1447.87 
  "/>
<polyline clip-path="url(#clip560)" style="stroke:#000000; stroke-width:4; stroke-opacity:1; fill:none" points="
  166.205,1162.13 192.443,1162.13 
  "/>
<polyline clip-path="url(#clip560)" style="stroke:#000000; stroke-width:4; stroke-opacity:1; fill:none" points="
  166.205,876.395 192.443,876.395 
  "/>
<polyline clip-path="url(#clip560)" style="stroke:#000000; stroke-width:4; stroke-opacity:1; fill:none" points="
  166.205,590.656 192.443,590.656 
  "/>
<polyline clip-path="url(#clip560)" style="stroke:#000000; stroke-width:4; stroke-opacity:1; fill:none" points="
  166.205,304.916 192.443,304.916 
  "/>
<path clip-path="url(#clip560)" d="M 0 0 M209.142 1525.04 L221.618 1525.04 L221.618 1528.83 L209.142 1528.83 L209.142 1525.04 Z" fill="#000000" fill-rule="evenodd" fill-opacity="1" /><path clip-path="url(#clip560)" d="M 0 0 M230.715 1535.98 L247.035 1535.98 L247.035 1539.92 L225.091 1539.92 L225.091 1535.98 Q227.753 1533.23 232.336 1528.6 Q236.942 1523.95 238.123 1522.61 Q240.368 1520.08 241.248 1518.35 Q242.151 1516.59 242.151 1514.9 Q242.151 1512.14 240.206 1510.41 Q238.285 1508.67 235.183 1508.67 Q232.984 1508.67 230.53 1509.43 Q228.1 1510.2 225.322 1511.75 L225.322 1507.03 Q228.146 1505.89 230.6 1505.31 Q233.053 1504.73 235.09 1504.73 Q240.461 1504.73 243.655 1507.42 Q246.85 1510.11 246.85 1514.6 Q246.85 1516.73 246.039 1518.65 Q245.252 1520.54 243.146 1523.14 Q242.567 1523.81 239.465 1527.03 Q236.364 1530.22 230.715 1535.98 Z" fill="#000000" fill-rule="evenodd" fill-opacity="1" /><path clip-path="url(#clip560)" d="M 0 0 M552.754 1525.04 L565.23 1525.04 L565.23 1528.83 L552.754 1528.83 L552.754 1525.04 Z" fill="#000000" fill-rule="evenodd" fill-opacity="1" /><path clip-path="url(#clip560)" d="M 0 0 M571.11 1535.98 L578.749 1535.98 L578.749 1509.62 L570.439 1511.29 L570.439 1507.03 L578.703 1505.36 L583.379 1505.36 L583.379 1535.98 L591.017 1535.98 L591.017 1539.92 L571.11 1539.92 L571.11 1535.98 Z" fill="#000000" fill-rule="evenodd" fill-opacity="1" /><path clip-path="url(#clip560)" d="M 0 0 M915.683 1508.44 Q912.072 1508.44 910.243 1512 Q908.438 1515.55 908.438 1522.67 Q908.438 1529.78 910.243 1533.35 Q912.072 1536.89 915.683 1536.89 Q919.317 1536.89 921.123 1533.35 Q922.951 1529.78 922.951 1522.67 Q922.951 1515.55 921.123 1512 Q919.317 1508.44 915.683 1508.44 M915.683 1504.73 Q921.493 1504.73 924.549 1509.34 Q927.627 1513.92 927.627 1522.67 Q927.627 1531.4 924.549 1536.01 Q921.493 1540.59 915.683 1540.59 Q909.873 1540.59 906.794 1536.01 Q903.739 1531.4 903.739 1522.67 Q903.739 1513.92 906.794 1509.34 Q909.873 1504.73 915.683 1504.73 Z" fill="#000000" fill-rule="evenodd" fill-opacity="1" /><path clip-path="url(#clip560)" d="M 0 0 M1249.86 1535.98 L1257.5 1535.98 L1257.5 1509.62 L1249.19 1511.29 L1249.19 1507.03 L1257.45 1505.36 L1262.13 1505.36 L1262.13 1535.98 L1269.77 1535.98 L1269.77 1539.92 L1249.86 1539.92 L1249.86 1535.98 Z" fill="#000000" fill-rule="evenodd" fill-opacity="1" /><path clip-path="url(#clip560)" d="M 0 0 M1597.93 1535.98 L1614.25 1535.98 L1614.25 1539.92 L1592.31 1539.92 L1592.31 1535.98 Q1594.97 1533.23 1599.55 1528.6 Q1604.16 1523.95 1605.34 1522.61 Q1607.58 1520.08 1608.46 1518.35 Q1609.37 1516.59 1609.37 1514.9 Q1609.37 1512.14 1607.42 1510.41 Q1605.5 1508.67 1602.4 1508.67 Q1600.2 1508.67 1597.75 1509.43 Q1595.31 1510.2 1592.54 1511.75 L1592.54 1507.03 Q1595.36 1505.89 1597.81 1505.31 Q1600.27 1504.73 1602.31 1504.73 Q1607.68 1504.73 1610.87 1507.42 Q1614.06 1510.11 1614.06 1514.6 Q1614.06 1516.73 1613.25 1518.65 Q1612.47 1520.54 1610.36 1523.14 Q1609.78 1523.81 1606.68 1527.03 Q1603.58 1530.22 1597.93 1535.98 Z" fill="#000000" fill-rule="evenodd" fill-opacity="1" /><path clip-path="url(#clip560)" d="M 0 0 M1951.32 1521.29 Q1954.68 1522 1956.55 1524.27 Q1958.45 1526.54 1958.45 1529.87 Q1958.45 1534.99 1954.93 1537.79 Q1951.42 1540.59 1944.93 1540.59 Q1942.76 1540.59 1940.44 1540.15 Q1938.15 1539.73 1935.7 1538.88 L1935.7 1534.36 Q1937.64 1535.5 1939.96 1536.08 Q1942.27 1536.66 1944.79 1536.66 Q1949.19 1536.66 1951.48 1534.92 Q1953.8 1533.18 1953.8 1529.87 Q1953.8 1526.82 1951.65 1525.11 Q1949.52 1523.37 1945.7 1523.37 L1941.67 1523.37 L1941.67 1519.53 L1945.88 1519.53 Q1949.33 1519.53 1951.16 1518.16 Q1952.99 1516.77 1952.99 1514.18 Q1952.99 1511.52 1951.09 1510.11 Q1949.22 1508.67 1945.7 1508.67 Q1943.78 1508.67 1941.58 1509.09 Q1939.38 1509.5 1936.74 1510.38 L1936.74 1506.22 Q1939.4 1505.48 1941.72 1505.11 Q1944.05 1504.73 1946.11 1504.73 Q1951.44 1504.73 1954.54 1507.17 Q1957.64 1509.57 1957.64 1513.69 Q1957.64 1516.56 1956 1518.55 Q1954.36 1520.52 1951.32 1521.29 Z" fill="#000000" fill-rule="evenodd" fill-opacity="1" /><path clip-path="url(#clip560)" d="M 0 0 M2293.88 1509.43 L2282.08 1527.88 L2293.88 1527.88 L2293.88 1509.43 M2292.65 1505.36 L2298.53 1505.36 L2298.53 1527.88 L2303.46 1527.88 L2303.46 1531.77 L2298.53 1531.77 L2298.53 1539.92 L2293.88 1539.92 L2293.88 1531.77 L2278.28 1531.77 L2278.28 1527.26 L2292.65 1505.36 Z" fill="#000000" fill-rule="evenodd" fill-opacity="1" /><path clip-path="url(#clip560)" d="M 0 0 M130.26 1433.67 Q126.649 1433.67 124.82 1437.24 Q123.015 1440.78 123.015 1447.91 Q123.015 1455.01 124.82 1458.58 Q126.649 1462.12 130.26 1462.12 Q133.895 1462.12 135.7 1458.58 Q137.529 1455.01 137.529 1447.91 Q137.529 1440.78 135.7 1437.24 Q133.895 1433.67 130.26 1433.67 M130.26 1429.97 Q136.07 1429.97 139.126 1434.57 Q142.205 1439.16 142.205 1447.91 Q142.205 1456.63 139.126 1461.24 Q136.07 1465.82 130.26 1465.82 Q124.45 1465.82 121.371 1461.24 Q118.316 1456.63 118.316 1447.91 Q118.316 1439.16 121.371 1434.57 Q124.45 1429.97 130.26 1429.97 Z" fill="#000000" fill-rule="evenodd" fill-opacity="1" /><path clip-path="url(#clip560)" d="M 0 0 M71.8578 1175.48 L88.1772 1175.48 L88.1772 1179.41 L66.2328 1179.41 L66.2328 1175.48 Q68.8949 1172.72 73.4782 1168.09 Q78.0846 1163.44 79.2652 1162.1 Q81.5105 1159.58 82.3902 1157.84 Q83.2929 1156.08 83.2929 1154.39 Q83.2929 1151.64 81.3485 1149.9 Q79.4272 1148.16 76.3254 1148.16 Q74.1263 1148.16 71.6726 1148.93 Q69.2421 1149.69 66.4643 1151.24 L66.4643 1146.52 Q69.2884 1145.39 71.7421 1144.81 Q74.1958 1144.23 76.2328 1144.23 Q81.6031 1144.23 84.7976 1146.91 Q87.992 1149.6 87.992 1154.09 Q87.992 1156.22 87.1818 1158.14 Q86.3948 1160.04 84.2883 1162.63 Q83.7096 1163.3 80.6078 1166.52 Q77.5059 1169.71 71.8578 1175.48 Z" fill="#000000" fill-rule="evenodd" fill-opacity="1" /><path clip-path="url(#clip560)" d="M 0 0 M103.247 1147.93 Q99.6354 1147.93 97.8068 1151.5 Q96.0012 1155.04 96.0012 1162.17 Q96.0012 1169.28 97.8068 1172.84 Q99.6354 1176.38 103.247 1176.38 Q106.881 1176.38 108.686 1172.84 Q110.515 1169.28 110.515 1162.17 Q110.515 1155.04 108.686 1151.5 Q106.881 1147.93 103.247 1147.93 M103.247 1144.23 Q109.057 1144.23 112.112 1148.84 Q115.191 1153.42 115.191 1162.17 Q115.191 1170.9 112.112 1175.5 Q109.057 1180.09 103.247 1180.09 Q97.4364 1180.09 94.3577 1175.5 Q91.3022 1170.9 91.3022 1162.17 Q91.3022 1153.42 94.3577 1148.84 Q97.4364 1144.23 103.247 1144.23 Z" fill="#000000" fill-rule="evenodd" fill-opacity="1" /><path clip-path="url(#clip560)" d="M 0 0 M130.26 1147.93 Q126.649 1147.93 124.82 1151.5 Q123.015 1155.04 123.015 1162.17 Q123.015 1169.28 124.82 1172.84 Q126.649 1176.38 130.26 1176.38 Q133.895 1176.38 135.7 1172.84 Q137.529 1169.28 137.529 1162.17 Q137.529 1155.04 135.7 1151.5 Q133.895 1147.93 130.26 1147.93 M130.26 1144.23 Q136.07 1144.23 139.126 1148.84 Q142.205 1153.42 142.205 1162.17 Q142.205 1170.9 139.126 1175.5 Q136.07 1180.09 130.26 1180.09 Q124.45 1180.09 121.371 1175.5 Q118.316 1170.9 118.316 1162.17 Q118.316 1153.42 121.371 1148.84 Q124.45 1144.23 130.26 1144.23 Z" fill="#000000" fill-rule="evenodd" fill-opacity="1" /><path clip-path="url(#clip560)" d="M 0 0 M78.5939 863.189 L66.7884 881.638 L78.5939 881.638 L78.5939 863.189 M77.367 859.115 L83.2466 859.115 L83.2466 881.638 L88.1772 881.638 L88.1772 885.527 L83.2466 885.527 L83.2466 893.675 L78.5939 893.675 L78.5939 885.527 L62.9921 885.527 L62.9921 881.013 L77.367 859.115 Z" fill="#000000" fill-rule="evenodd" fill-opacity="1" /><path clip-path="url(#clip560)" d="M 0 0 M103.247 862.193 Q99.6354 862.193 97.8068 865.758 Q96.0012 869.3 96.0012 876.43 Q96.0012 883.536 97.8068 887.101 Q99.6354 890.642 103.247 890.642 Q106.881 890.642 108.686 887.101 Q110.515 883.536 110.515 876.43 Q110.515 869.3 108.686 865.758 Q106.881 862.193 103.247 862.193 M103.247 858.49 Q109.057 858.49 112.112 863.096 Q115.191 867.68 115.191 876.43 Q115.191 885.156 112.112 889.763 Q109.057 894.346 103.247 894.346 Q97.4364 894.346 94.3577 889.763 Q91.3022 885.156 91.3022 876.43 Q91.3022 867.68 94.3577 863.096 Q97.4364 858.49 103.247 858.49 Z" fill="#000000" fill-rule="evenodd" fill-opacity="1" /><path clip-path="url(#clip560)" d="M 0 0 M130.26 862.193 Q126.649 862.193 124.82 865.758 Q123.015 869.3 123.015 876.43 Q123.015 883.536 124.82 887.101 Q126.649 890.642 130.26 890.642 Q133.895 890.642 135.7 887.101 Q137.529 883.536 137.529 876.43 Q137.529 869.3 135.7 865.758 Q133.895 862.193 130.26 862.193 M130.26 858.49 Q136.07 858.49 139.126 863.096 Q142.205 867.68 142.205 876.43 Q142.205 885.156 139.126 889.763 Q136.07 894.346 130.26 894.346 Q124.45 894.346 121.371 889.763 Q118.316 885.156 118.316 876.43 Q118.316 867.68 121.371 863.096 Q124.45 858.49 130.26 858.49 Z" fill="#000000" fill-rule="evenodd" fill-opacity="1" /><path clip-path="url(#clip560)" d="M 0 0 M76.6495 588.792 Q73.5013 588.792 71.6495 590.945 Q69.8208 593.098 69.8208 596.848 Q69.8208 600.575 71.6495 602.75 Q73.5013 604.903 76.6495 604.903 Q79.7976 604.903 81.6263 602.75 Q83.4781 600.575 83.4781 596.848 Q83.4781 593.098 81.6263 590.945 Q79.7976 588.792 76.6495 588.792 M85.9318 574.14 L85.9318 578.399 Q84.1726 577.565 82.367 577.126 Q80.5846 576.686 78.8254 576.686 Q74.1958 576.686 71.7421 579.811 Q69.3115 582.936 68.9643 589.255 Q70.33 587.241 72.3902 586.176 Q74.4504 585.089 76.9272 585.089 Q82.1355 585.089 85.1448 588.26 Q88.1772 591.408 88.1772 596.848 Q88.1772 602.172 85.029 605.389 Q81.8809 608.607 76.6495 608.607 Q70.6541 608.607 67.4828 604.024 Q64.3116 599.417 64.3116 590.69 Q64.3116 582.496 68.2004 577.635 Q72.0893 572.751 78.6402 572.751 Q80.3994 572.751 82.1818 573.098 Q83.9874 573.445 85.9318 574.14 Z" fill="#000000" fill-rule="evenodd" fill-opacity="1" /><path clip-path="url(#clip560)" d="M 0 0 M103.247 576.454 Q99.6354 576.454 97.8068 580.019 Q96.0012 583.561 96.0012 590.69 Q96.0012 597.797 97.8068 601.362 Q99.6354 604.903 103.247 604.903 Q106.881 604.903 108.686 601.362 Q110.515 597.797 110.515 590.69 Q110.515 583.561 108.686 580.019 Q106.881 576.454 103.247 576.454 M103.247 572.751 Q109.057 572.751 112.112 577.357 Q115.191 581.94 115.191 590.69 Q115.191 599.417 112.112 604.024 Q109.057 608.607 103.247 608.607 Q97.4364 608.607 94.3577 604.024 Q91.3022 599.417 91.3022 590.69 Q91.3022 581.94 94.3577 577.357 Q97.4364 572.751 103.247 572.751 Z" fill="#000000" fill-rule="evenodd" fill-opacity="1" /><path clip-path="url(#clip560)" d="M 0 0 M130.26 576.454 Q126.649 576.454 124.82 580.019 Q123.015 583.561 123.015 590.69 Q123.015 597.797 124.82 601.362 Q126.649 604.903 130.26 604.903 Q133.895 604.903 135.7 601.362 Q137.529 597.797 137.529 590.69 Q137.529 583.561 135.7 580.019 Q133.895 576.454 130.26 576.454 M130.26 572.751 Q136.07 572.751 139.126 577.357 Q142.205 581.94 142.205 590.69 Q142.205 599.417 139.126 604.024 Q136.07 608.607 130.26 608.607 Q124.45 608.607 121.371 604.024 Q118.316 599.417 118.316 590.69 Q118.316 581.94 121.371 577.357 Q124.45 572.751 130.26 572.751 Z" fill="#000000" fill-rule="evenodd" fill-opacity="1" /><path clip-path="url(#clip560)" d="M 0 0 M76.3254 305.785 Q72.9921 305.785 71.0708 307.567 Q69.1726 309.349 69.1726 312.474 Q69.1726 315.599 71.0708 317.382 Q72.9921 319.164 76.3254 319.164 Q79.6587 319.164 81.58 317.382 Q83.5013 315.576 83.5013 312.474 Q83.5013 309.349 81.58 307.567 Q79.6819 305.785 76.3254 305.785 M71.6495 303.794 Q68.6402 303.053 66.9504 300.993 Q65.2838 298.933 65.2838 295.97 Q65.2838 291.826 68.2236 289.419 Q71.1865 287.011 76.3254 287.011 Q81.4874 287.011 84.4272 289.419 Q87.367 291.826 87.367 295.97 Q87.367 298.933 85.6772 300.993 Q84.0105 303.053 81.0244 303.794 Q84.404 304.581 86.279 306.872 Q88.1772 309.164 88.1772 312.474 Q88.1772 317.497 85.0985 320.183 Q82.0429 322.868 76.3254 322.868 Q70.6078 322.868 67.5291 320.183 Q64.4736 317.497 64.4736 312.474 Q64.4736 309.164 66.3717 306.872 Q68.2699 304.581 71.6495 303.794 M69.9365 296.41 Q69.9365 299.095 71.6032 300.599 Q73.293 302.104 76.3254 302.104 Q79.3346 302.104 81.0244 300.599 Q82.7374 299.095 82.7374 296.41 Q82.7374 293.724 81.0244 292.22 Q79.3346 290.715 76.3254 290.715 Q73.293 290.715 71.6032 292.22 Q69.9365 293.724 69.9365 296.41 Z" fill="#000000" fill-rule="evenodd" fill-opacity="1" /><path clip-path="url(#clip560)" d="M 0 0 M103.247 290.715 Q99.6354 290.715 97.8068 294.28 Q96.0012 297.822 96.0012 304.951 Q96.0012 312.058 97.8068 315.622 Q99.6354 319.164 103.247 319.164 Q106.881 319.164 108.686 315.622 Q110.515 312.058 110.515 304.951 Q110.515 297.822 108.686 294.28 Q106.881 290.715 103.247 290.715 M103.247 287.011 Q109.057 287.011 112.112 291.618 Q115.191 296.201 115.191 304.951 Q115.191 313.678 112.112 318.284 Q109.057 322.868 103.247 322.868 Q97.4364 322.868 94.3577 318.284 Q91.3022 313.678 91.3022 304.951 Q91.3022 296.201 94.3577 291.618 Q97.4364 287.011 103.247 287.011 Z" fill="#000000" fill-rule="evenodd" fill-opacity="1" /><path clip-path="url(#clip560)" d="M 0 0 M130.26 290.715 Q126.649 290.715 124.82 294.28 Q123.015 297.822 123.015 304.951 Q123.015 312.058 124.82 315.622 Q126.649 319.164 130.26 319.164 Q133.895 319.164 135.7 315.622 Q137.529 312.058 137.529 304.951 Q137.529 297.822 135.7 294.28 Q133.895 290.715 130.26 290.715 M130.26 287.011 Q136.07 287.011 139.126 291.618 Q142.205 296.201 142.205 304.951 Q142.205 313.678 139.126 318.284 Q136.07 322.868 130.26 322.868 Q124.45 322.868 121.371 318.284 Q118.316 313.678 118.316 304.951 Q118.316 296.201 121.371 291.618 Q124.45 287.011 130.26 287.011 Z" fill="#000000" fill-rule="evenodd" fill-opacity="1" /><path clip-path="url(#clip560)" d="M 0 0 M1183.67 18.8205 L1183.67 65.8515 L1193.55 65.8515 Q1206.07 65.8515 1211.86 60.1802 Q1217.7 54.509 1217.7 42.2752 Q1217.7 30.1225 1211.86 24.4918 Q1206.07 18.8205 1193.55 18.8205 L1183.67 18.8205 M1175.48 12.096 L1192.3 12.096 Q1209.88 12.096 1218.1 19.4281 Q1226.32 26.7198 1226.32 42.2752 Q1226.32 57.9117 1218.06 65.2439 Q1209.8 72.576 1192.3 72.576 L1175.48 72.576 L1175.48 12.096 Z" fill="#000000" fill-rule="evenodd" fill-opacity="1" /><path clip-path="url(#clip560)" d="M 0 0 M1254.76 49.7694 Q1245.73 49.7694 1242.24 51.8354 Q1238.76 53.9013 1238.76 58.8839 Q1238.76 62.8538 1241.35 65.2034 Q1243.99 67.5124 1248.48 67.5124 Q1254.68 67.5124 1258.41 63.1374 Q1262.17 58.7219 1262.17 51.4303 L1262.17 49.7694 L1254.76 49.7694 M1269.63 46.6907 L1269.63 72.576 L1262.17 72.576 L1262.17 65.6895 Q1259.62 69.8214 1255.81 71.8063 Q1252.01 73.7508 1246.5 73.7508 Q1239.53 73.7508 1235.4 69.8619 Q1231.31 65.9325 1231.31 59.3701 Q1231.31 51.7138 1236.41 47.825 Q1241.56 43.9361 1251.72 43.9361 L1262.17 43.9361 L1262.17 43.2069 Q1262.17 38.0623 1258.77 35.2672 Q1255.41 32.4315 1249.29 32.4315 Q1245.4 32.4315 1241.72 33.3632 Q1238.03 34.295 1234.63 36.1584 L1234.63 29.2718 Q1238.72 27.692 1242.57 26.9223 Q1246.42 26.1121 1250.06 26.1121 Q1259.91 26.1121 1264.77 31.2163 Q1269.63 36.3204 1269.63 46.6907 Z" fill="#000000" fill-rule="evenodd" fill-opacity="1" /><path clip-path="url(#clip560)" d="M 0 0 M1284.82 14.324 L1284.82 27.2059 L1300.17 27.2059 L1300.17 32.9987 L1284.82 32.9987 L1284.82 57.6282 Q1284.82 63.1779 1286.32 64.7578 Q1287.86 66.3376 1292.52 66.3376 L1300.17 66.3376 L1300.17 72.576 L1292.52 72.576 Q1283.89 72.576 1280.61 69.3758 Q1277.32 66.1351 1277.32 57.6282 L1277.32 32.9987 L1271.86 32.9987 L1271.86 27.2059 L1277.32 27.2059 L1277.32 14.324 L1284.82 14.324 Z" fill="#000000" fill-rule="evenodd" fill-opacity="1" /><path clip-path="url(#clip560)" d="M 0 0 M1328.61 49.7694 Q1319.58 49.7694 1316.09 51.8354 Q1312.61 53.9013 1312.61 58.8839 Q1312.61 62.8538 1315.2 65.2034 Q1317.83 67.5124 1322.33 67.5124 Q1328.53 67.5124 1332.25 63.1374 Q1336.02 58.7219 1336.02 51.4303 L1336.02 49.7694 L1328.61 49.7694 M1343.48 46.6907 L1343.48 72.576 L1336.02 72.576 L1336.02 65.6895 Q1333.47 69.8214 1329.66 71.8063 Q1325.85 73.7508 1320.35 73.7508 Q1313.38 73.7508 1309.25 69.8619 Q1305.15 65.9325 1305.15 59.3701 Q1305.15 51.7138 1310.26 47.825 Q1315.4 43.9361 1325.57 43.9361 L1336.02 43.9361 L1336.02 43.2069 Q1336.02 38.0623 1332.62 35.2672 Q1329.26 32.4315 1323.14 32.4315 Q1319.25 32.4315 1315.57 33.3632 Q1311.88 34.295 1308.48 36.1584 L1308.48 29.2718 Q1312.57 27.692 1316.42 26.9223 Q1320.26 26.1121 1323.91 26.1121 Q1333.75 26.1121 1338.61 31.2163 Q1343.48 36.3204 1343.48 46.6907 Z" fill="#000000" fill-rule="evenodd" fill-opacity="1" /><polyline clip-path="url(#clip562)" style="stroke:#009af9; stroke-width:4; stroke-opacity:1; fill:none" points="
  228.088,1447.87 228.088,1347.86 262.468,1347.86 262.468,1362.15 296.848,1362.15 296.848,1219.28 331.227,1219.28 331.227,1062.13 365.607,1062.13 365.607,1119.27 
  399.987,1119.27 399.987,1147.85 434.367,1147.85 434.367,1004.98 468.746,1004.98 468.746,1076.41 503.126,1076.41 503.126,804.96 537.506,804.96 537.506,1033.55 
  571.886,1033.55 571.886,933.543 606.265,933.543 606.265,876.395 640.645,876.395 640.645,890.682 675.025,890.682 675.025,962.117 709.405,962.117 709.405,919.256 
  743.784,919.256 743.784,1204.99 778.164,1204.99 778.164,1305 812.544,1305 812.544,1190.71 846.923,1190.71 846.923,1276.43 881.303,1276.43 881.303,1376.44 
  915.683,1376.44 915.683,1319.29 950.063,1319.29 950.063,1433.59 984.442,1433.59 984.442,1405.01 1018.82,1405.01 1018.82,1419.3 1053.2,1419.3 1053.2,1433.59 
  1087.58,1433.59 1087.58,1419.3 1121.96,1419.3 1121.96,1405.01 1156.34,1405.01 1156.34,1433.59 1190.72,1433.59 1190.72,1347.86 1225.1,1347.86 1225.1,1376.44 
  1259.48,1376.44 1259.48,1276.43 1293.86,1276.43 1293.86,1119.27 1328.24,1119.27 1328.24,947.83 1362.62,947.83 1362.62,976.403 1397,976.403 1397,819.247 
  1431.38,819.247 1431.38,747.812 1465.76,747.812 1465.76,619.23 1500.14,619.23 1500.14,590.656 1534.52,590.656 1534.52,276.343 1568.9,276.343 1568.9,162.047 
  1603.28,162.047 1603.28,362.064 1637.66,362.064 1637.66,290.63 1672.04,290.63 1672.04,376.351 1706.42,376.351 1706.42,547.795 1740.8,547.795 1740.8,776.386 
  1775.18,776.386 1775.18,862.108 1809.56,862.108 1809.56,1090.7 1843.94,1090.7 1843.94,1033.55 1878.32,1033.55 1878.32,1219.28 1912.7,1219.28 1912.7,1176.42 
  1947.08,1176.42 1947.08,1262.14 1981.45,1262.14 1981.45,1376.44 2015.83,1376.44 2015.83,1433.59 2050.21,1433.59 2084.59,1433.59 2084.59,1419.3 
  2118.97,1419.3 2118.97,1447.87 2153.35,1447.87 2153.35,1433.59 2187.73,1433.59 2187.73,1447.87 2222.11,1447.87 2256.49,1447.87 
  2290.87,1447.87 
  "/>
<path clip-path="url(#clip560)" d="
M1940.93 289.865 L2279.87 289.865 L2279.87 168.905 L1940.93 168.905  Z
  " fill="#ffffff" fill-rule="evenodd" fill-opacity="1"/>
<polyline clip-path="url(#clip560)" style="stroke:#000000; stroke-width:4; stroke-opacity:1; fill:none" points="
  1940.93,289.865 2279.87,289.865 2279.87,168.905 1940.93,168.905 1940.93,289.865 
  "/>
<polyline clip-path="url(#clip560)" style="stroke:#009af9; stroke-width:4; stroke-opacity:1; fill:none" points="
  1965.22,229.385 2110.99,229.385 
  "/>
<path clip-path="url(#clip560)" d="M 0 0 M2139.96 215.947 L2139.96 242.822 L2145.61 242.822 Q2152.76 242.822 2156.07 239.581 Q2159.41 236.341 2159.41 229.35 Q2159.41 222.406 2156.07 219.188 Q2152.76 215.947 2145.61 215.947 L2139.96 215.947 M2135.29 212.105 L2144.89 212.105 Q2154.94 212.105 2159.64 216.294 Q2164.34 220.461 2164.34 229.35 Q2164.34 238.285 2159.61 242.475 Q2154.89 246.665 2144.89 246.665 L2135.29 246.665 L2135.29 212.105 Z" fill="#000000" fill-rule="evenodd" fill-opacity="1" /><path clip-path="url(#clip560)" d="M 0 0 M2180.59 233.632 Q2175.42 233.632 2173.43 234.813 Q2171.44 235.993 2171.44 238.841 Q2171.44 241.109 2172.92 242.452 Q2174.43 243.771 2177 243.771 Q2180.54 243.771 2182.67 241.271 Q2184.82 238.748 2184.82 234.581 L2184.82 233.632 L2180.59 233.632 M2189.08 231.873 L2189.08 246.665 L2184.82 246.665 L2184.82 242.729 Q2183.36 245.091 2181.19 246.225 Q2179.01 247.336 2175.86 247.336 Q2171.88 247.336 2169.52 245.114 Q2167.18 242.868 2167.18 239.118 Q2167.18 234.743 2170.1 232.521 Q2173.04 230.299 2178.85 230.299 L2184.82 230.299 L2184.82 229.882 Q2184.82 226.943 2182.88 225.345 Q2180.96 223.725 2177.46 223.725 Q2175.24 223.725 2173.13 224.257 Q2171.03 224.79 2169.08 225.855 L2169.08 221.919 Q2171.42 221.017 2173.62 220.577 Q2175.82 220.114 2177.9 220.114 Q2183.53 220.114 2186.3 223.031 Q2189.08 225.947 2189.08 231.873 Z" fill="#000000" fill-rule="evenodd" fill-opacity="1" /><path clip-path="url(#clip560)" d="M 0 0 M2197.76 213.378 L2197.76 220.739 L2206.54 220.739 L2206.54 224.049 L2197.76 224.049 L2197.76 238.123 Q2197.76 241.294 2198.62 242.197 Q2199.5 243.1 2202.16 243.1 L2206.54 243.1 L2206.54 246.665 L2202.16 246.665 Q2197.23 246.665 2195.36 244.836 Q2193.48 242.984 2193.48 238.123 L2193.48 224.049 L2190.36 224.049 L2190.36 220.739 L2193.48 220.739 L2193.48 213.378 L2197.76 213.378 Z" fill="#000000" fill-rule="evenodd" fill-opacity="1" /><path clip-path="url(#clip560)" d="M 0 0 M2222.79 233.632 Q2217.62 233.632 2215.63 234.813 Q2213.64 235.993 2213.64 238.841 Q2213.64 241.109 2215.12 242.452 Q2216.63 243.771 2219.2 243.771 Q2222.74 243.771 2224.87 241.271 Q2227.02 238.748 2227.02 234.581 L2227.02 233.632 L2222.79 233.632 M2231.28 231.873 L2231.28 246.665 L2227.02 246.665 L2227.02 242.729 Q2225.56 245.091 2223.39 246.225 Q2221.21 247.336 2218.06 247.336 Q2214.08 247.336 2211.72 245.114 Q2209.38 242.868 2209.38 239.118 Q2209.38 234.743 2212.3 232.521 Q2215.24 230.299 2221.05 230.299 L2227.02 230.299 L2227.02 229.882 Q2227.02 226.943 2225.08 225.345 Q2223.16 223.725 2219.66 223.725 Q2217.44 223.725 2215.33 224.257 Q2213.23 224.79 2211.28 225.855 L2211.28 221.919 Q2213.62 221.017 2215.82 220.577 Q2218.02 220.114 2220.1 220.114 Q2225.73 220.114 2228.5 223.031 Q2231.28 225.947 2231.28 231.873 Z" fill="#000000" fill-rule="evenodd" fill-opacity="1" /></svg>
