<?xml version="1.0" encoding="utf-8"?>
<svg xmlns="http://www.w3.org/2000/svg" xmlns:xlink="http://www.w3.org/1999/xlink" width="600" height="400" viewBox="0 0 2400 1600">
<defs>
  <clipPath id="clip690">
    <rect x="0" y="0" width="2400" height="1600"/>
  </clipPath>
</defs>
<path clip-path="url(#clip690)" d="
M0 1600 L2400 1600 L2400 0 L0 0  Z
  " fill="#ffffff" fill-rule="evenodd" fill-opacity="1"/>
<defs>
  <clipPath id="clip691">
    <rect x="480" y="0" width="1681" height="1600"/>
  </clipPath>
</defs>
<path clip-path="url(#clip690)" d="
M188.612 1486.45 L2352.76 1486.45 L2352.76 123.472 L188.612 123.472  Z
  " fill="#ffffff" fill-rule="evenodd" fill-opacity="1"/>
<defs>
  <clipPath id="clip692">
    <rect x="188" y="123" width="2165" height="1364"/>
  </clipPath>
</defs>
<polyline clip-path="url(#clip692)" style="stroke:#000000; stroke-width:2; stroke-opacity:0.1; fill:none" points="
  249.861,1486.45 249.861,123.472 
  "/>
<polyline clip-path="url(#clip692)" style="stroke:#000000; stroke-width:2; stroke-opacity:0.1; fill:none" points="
  590.136,1486.45 590.136,123.472 
  "/>
<polyline clip-path="url(#clip692)" style="stroke:#000000; stroke-width:2; stroke-opacity:0.1; fill:none" points="
  930.41,1486.45 930.41,123.472 
  "/>
<polyline clip-path="url(#clip692)" style="stroke:#000000; stroke-width:2; stroke-opacity:0.1; fill:none" points="
  1270.68,1486.45 1270.68,123.472 
  "/>
<polyline clip-path="url(#clip692)" style="stroke:#000000; stroke-width:2; stroke-opacity:0.1; fill:none" points="
  1610.96,1486.45 1610.96,123.472 
  "/>
<polyline clip-path="url(#clip692)" style="stroke:#000000; stroke-width:2; stroke-opacity:0.1; fill:none" points="
  1951.23,1486.45 1951.23,123.472 
  "/>
<polyline clip-path="url(#clip692)" style="stroke:#000000; stroke-width:2; stroke-opacity:0.1; fill:none" points="
  2291.51,1486.45 2291.51,123.472 
  "/>
<polyline clip-path="url(#clip692)" style="stroke:#000000; stroke-width:2; stroke-opacity:0.1; fill:none" points="
  188.612,1447.87 2352.76,1447.87 
  "/>
<polyline clip-path="url(#clip692)" style="stroke:#000000; stroke-width:2; stroke-opacity:0.1; fill:none" points="
  188.612,1119.86 2352.76,1119.86 
  "/>
<polyline clip-path="url(#clip692)" style="stroke:#000000; stroke-width:2; stroke-opacity:0.1; fill:none" points="
  188.612,791.839 2352.76,791.839 
  "/>
<polyline clip-path="url(#clip692)" style="stroke:#000000; stroke-width:2; stroke-opacity:0.1; fill:none" points="
  188.612,463.822 2352.76,463.822 
  "/>
<polyline clip-path="url(#clip692)" style="stroke:#000000; stroke-width:2; stroke-opacity:0.1; fill:none" points="
  188.612,135.806 2352.76,135.806 
  "/>
<polyline clip-path="url(#clip690)" style="stroke:#000000; stroke-width:4; stroke-opacity:1; fill:none" points="
  188.612,1486.45 2352.76,1486.45 
  "/>
<polyline clip-path="url(#clip690)" style="stroke:#000000; stroke-width:4; stroke-opacity:1; fill:none" points="
  188.612,1486.45 188.612,123.472 
  "/>
<polyline clip-path="url(#clip690)" style="stroke:#000000; stroke-width:4; stroke-opacity:1; fill:none" points="
  249.861,1486.45 249.861,1470.09 
  "/>
<polyline clip-path="url(#clip690)" style="stroke:#000000; stroke-width:4; stroke-opacity:1; fill:none" points="
  590.136,1486.45 590.136,1470.09 
  "/>
<polyline clip-path="url(#clip690)" style="stroke:#000000; stroke-width:4; stroke-opacity:1; fill:none" points="
  930.41,1486.45 930.41,1470.09 
  "/>
<polyline clip-path="url(#clip690)" style="stroke:#000000; stroke-width:4; stroke-opacity:1; fill:none" points="
  1270.68,1486.45 1270.68,1470.09 
  "/>
<polyline clip-path="url(#clip690)" style="stroke:#000000; stroke-width:4; stroke-opacity:1; fill:none" points="
  1610.96,1486.45 1610.96,1470.09 
  "/>
<polyline clip-path="url(#clip690)" style="stroke:#000000; stroke-width:4; stroke-opacity:1; fill:none" points="
  1951.23,1486.45 1951.23,1470.09 
  "/>
<polyline clip-path="url(#clip690)" style="stroke:#000000; stroke-width:4; stroke-opacity:1; fill:none" points="
  2291.51,1486.45 2291.51,1470.09 
  "/>
<polyline clip-path="url(#clip690)" style="stroke:#000000; stroke-width:4; stroke-opacity:1; fill:none" points="
  188.612,1447.87 214.582,1447.87 
  "/>
<polyline clip-path="url(#clip690)" style="stroke:#000000; stroke-width:4; stroke-opacity:1; fill:none" points="
  188.612,1119.86 214.582,1119.86 
  "/>
<polyline clip-path="url(#clip690)" style="stroke:#000000; stroke-width:4; stroke-opacity:1; fill:none" points="
  188.612,791.839 214.582,791.839 
  "/>
<polyline clip-path="url(#clip690)" style="stroke:#000000; stroke-width:4; stroke-opacity:1; fill:none" points="
  188.612,463.822 214.582,463.822 
  "/>
<polyline clip-path="url(#clip690)" style="stroke:#000000; stroke-width:4; stroke-opacity:1; fill:none" points="
  188.612,135.806 214.582,135.806 
  "/>
<path clip-path="url(#clip690)" d="M 0 0 M230.915 1525.04 L243.391 1525.04 L243.391 1528.83 L230.915 1528.83 L230.915 1525.04 Z" fill="#000000" fill-rule="evenodd" fill-opacity="1" /><path clip-path="url(#clip690)" d="M 0 0 M252.489 1535.98 L268.808 1535.98 L268.808 1539.92 L246.864 1539.92 L246.864 1535.98 Q249.526 1533.23 254.109 1528.6 Q258.715 1523.95 259.896 1522.61 Q262.141 1520.08 263.021 1518.35 Q263.924 1516.59 263.924 1514.9 Q263.924 1512.14 261.979 1510.41 Q260.058 1508.67 256.956 1508.67 Q254.757 1508.67 252.303 1509.43 Q249.873 1510.2 247.095 1511.75 L247.095 1507.03 Q249.919 1505.89 252.373 1505.31 Q254.827 1504.73 256.864 1504.73 Q262.234 1504.73 265.428 1507.42 Q268.623 1510.11 268.623 1514.6 Q268.623 1516.73 267.813 1518.65 Q267.026 1520.54 264.919 1523.14 Q264.34 1523.81 261.239 1527.03 Q258.137 1530.22 252.489 1535.98 Z" fill="#000000" fill-rule="evenodd" fill-opacity="1" /><path clip-path="url(#clip690)" d="M 0 0 M571.004 1525.04 L583.48 1525.04 L583.48 1528.83 L571.004 1528.83 L571.004 1525.04 Z" fill="#000000" fill-rule="evenodd" fill-opacity="1" /><path clip-path="url(#clip690)" d="M 0 0 M589.36 1535.98 L596.999 1535.98 L596.999 1509.62 L588.689 1511.29 L588.689 1507.03 L596.953 1505.36 L601.629 1505.36 L601.629 1535.98 L609.267 1535.98 L609.267 1539.92 L589.36 1539.92 L589.36 1535.98 Z" fill="#000000" fill-rule="evenodd" fill-opacity="1" /><path clip-path="url(#clip690)" d="M 0 0 M930.41 1508.44 Q926.799 1508.44 924.97 1512 Q923.164 1515.55 923.164 1522.67 Q923.164 1529.78 924.97 1533.35 Q926.799 1536.89 930.41 1536.89 Q934.044 1536.89 935.85 1533.35 Q937.678 1529.78 937.678 1522.67 Q937.678 1515.55 935.85 1512 Q934.044 1508.44 930.41 1508.44 M930.41 1504.73 Q936.22 1504.73 939.275 1509.34 Q942.354 1513.92 942.354 1522.67 Q942.354 1531.4 939.275 1536.01 Q936.22 1540.59 930.41 1540.59 Q924.6 1540.59 921.521 1536.01 Q918.465 1531.4 918.465 1522.67 Q918.465 1513.92 921.521 1509.34 Q924.6 1504.73 930.41 1504.73 Z" fill="#000000" fill-rule="evenodd" fill-opacity="1" /><path clip-path="url(#clip690)" d="M 0 0 M1261.07 1535.98 L1268.7 1535.98 L1268.7 1509.62 L1260.39 1511.29 L1260.39 1507.03 L1268.66 1505.36 L1273.33 1505.36 L1273.33 1535.98 L1280.97 1535.98 L1280.97 1539.92 L1261.07 1539.92 L1261.07 1535.98 Z" fill="#000000" fill-rule="evenodd" fill-opacity="1" /><path clip-path="url(#clip690)" d="M 0 0 M1605.61 1535.98 L1621.93 1535.98 L1621.93 1539.92 L1599.99 1539.92 L1599.99 1535.98 Q1602.65 1533.23 1607.23 1528.6 Q1611.84 1523.95 1613.02 1522.61 Q1615.26 1520.08 1616.14 1518.35 Q1617.05 1516.59 1617.05 1514.9 Q1617.05 1512.14 1615.1 1510.41 Q1613.18 1508.67 1610.08 1508.67 Q1607.88 1508.67 1605.43 1509.43 Q1603 1510.2 1600.22 1511.75 L1600.22 1507.03 Q1603.04 1505.89 1605.5 1505.31 Q1607.95 1504.73 1609.99 1504.73 Q1615.36 1504.73 1618.55 1507.42 Q1621.75 1510.11 1621.75 1514.6 Q1621.75 1516.73 1620.93 1518.65 Q1620.15 1520.54 1618.04 1523.14 Q1617.46 1523.81 1614.36 1527.03 Q1611.26 1530.22 1605.61 1535.98 Z" fill="#000000" fill-rule="evenodd" fill-opacity="1" /><path clip-path="url(#clip690)" d="M 0 0 M1955.48 1521.29 Q1958.84 1522 1960.71 1524.27 Q1962.61 1526.54 1962.61 1529.87 Q1962.61 1534.99 1959.09 1537.79 Q1955.57 1540.59 1949.09 1540.59 Q1946.92 1540.59 1944.6 1540.15 Q1942.31 1539.73 1939.86 1538.88 L1939.86 1534.36 Q1941.8 1535.5 1944.11 1536.08 Q1946.43 1536.66 1948.95 1536.66 Q1953.35 1536.66 1955.64 1534.92 Q1957.96 1533.18 1957.96 1529.87 Q1957.96 1526.82 1955.8 1525.11 Q1953.67 1523.37 1949.86 1523.37 L1945.83 1523.37 L1945.83 1519.53 L1950.04 1519.53 Q1953.49 1519.53 1955.32 1518.16 Q1957.15 1516.77 1957.15 1514.18 Q1957.15 1511.52 1955.25 1510.11 Q1953.37 1508.67 1949.86 1508.67 Q1947.93 1508.67 1945.73 1509.09 Q1943.54 1509.5 1940.9 1510.38 L1940.9 1506.22 Q1943.56 1505.48 1945.87 1505.11 Q1948.21 1504.73 1950.27 1504.73 Q1955.6 1504.73 1958.7 1507.17 Q1961.8 1509.57 1961.8 1513.69 Q1961.8 1516.56 1960.16 1518.55 Q1958.51 1520.52 1955.48 1521.29 Z" fill="#000000" fill-rule="evenodd" fill-opacity="1" /><path clip-path="url(#clip690)" d="M 0 0 M2294.52 1509.43 L2282.71 1527.88 L2294.52 1527.88 L2294.52 1509.43 M2293.29 1505.36 L2299.17 1505.36 L2299.17 1527.88 L2304.1 1527.88 L2304.1 1531.77 L2299.17 1531.77 L2299.17 1539.92 L2294.52 1539.92 L2294.52 1531.77 L2278.91 1531.77 L2278.91 1527.26 L2293.29 1505.36 Z" fill="#000000" fill-rule="evenodd" fill-opacity="1" /><path clip-path="url(#clip690)" d="M 0 0 M152.668 1433.67 Q149.056 1433.67 147.228 1437.24 Q145.422 1440.78 145.422 1447.91 Q145.422 1455.01 147.228 1458.58 Q149.056 1462.12 152.668 1462.12 Q156.302 1462.12 158.107 1458.58 Q159.936 1455.01 159.936 1447.91 Q159.936 1440.78 158.107 1437.24 Q156.302 1433.67 152.668 1433.67 M152.668 1429.97 Q158.478 1429.97 161.533 1434.57 Q164.612 1439.16 164.612 1447.91 Q164.612 1456.63 161.533 1461.24 Q158.478 1465.82 152.668 1465.82 Q146.857 1465.82 143.779 1461.24 Q140.723 1456.63 140.723 1447.91 Q140.723 1439.16 143.779 1434.57 Q146.857 1429.97 152.668 1429.97 Z" fill="#000000" fill-rule="evenodd" fill-opacity="1" /><path clip-path="url(#clip690)" d="M 0 0 M95.2605 1133.2 L111.58 1133.2 L111.58 1137.14 L89.6355 1137.14 L89.6355 1133.2 Q92.2975 1130.45 96.8808 1125.82 Q101.487 1121.16 102.668 1119.82 Q104.913 1117.3 105.793 1115.56 Q106.696 1113.8 106.696 1112.11 Q106.696 1109.36 104.751 1107.62 Q102.83 1105.89 99.728 1105.89 Q97.529 1105.89 95.0753 1106.65 Q92.6447 1107.41 89.867 1108.97 L89.867 1104.24 Q92.691 1103.11 95.1447 1102.53 Q97.5984 1101.95 99.6354 1101.95 Q105.006 1101.95 108.2 1104.64 Q111.395 1107.32 111.395 1111.81 Q111.395 1113.94 110.584 1115.86 Q109.797 1117.76 107.691 1120.35 Q107.112 1121.03 104.01 1124.24 Q100.909 1127.44 95.2605 1133.2 Z" fill="#000000" fill-rule="evenodd" fill-opacity="1" /><path clip-path="url(#clip690)" d="M 0 0 M116.696 1102.58 L135.052 1102.58 L135.052 1106.51 L120.978 1106.51 L120.978 1114.98 Q121.996 1114.64 123.015 1114.47 Q124.033 1114.29 125.052 1114.29 Q130.839 1114.29 134.219 1117.46 Q137.598 1120.63 137.598 1126.05 Q137.598 1131.63 134.126 1134.73 Q130.654 1137.81 124.334 1137.81 Q122.158 1137.81 119.89 1137.44 Q117.645 1137.07 115.237 1136.33 L115.237 1131.63 Q117.321 1132.76 119.543 1133.32 Q121.765 1133.87 124.242 1133.87 Q128.246 1133.87 130.584 1131.77 Q132.922 1129.66 132.922 1126.05 Q132.922 1122.44 130.584 1120.33 Q128.246 1118.22 124.242 1118.22 Q122.367 1118.22 120.492 1118.64 Q118.64 1119.06 116.696 1119.94 L116.696 1102.58 Z" fill="#000000" fill-rule="evenodd" fill-opacity="1" /><path clip-path="url(#clip690)" d="M 0 0 M152.668 1105.65 Q149.056 1105.65 147.228 1109.22 Q145.422 1112.76 145.422 1119.89 Q145.422 1127 147.228 1130.56 Q149.056 1134.1 152.668 1134.1 Q156.302 1134.1 158.107 1130.56 Q159.936 1127 159.936 1119.89 Q159.936 1112.76 158.107 1109.22 Q156.302 1105.65 152.668 1105.65 M152.668 1101.95 Q158.478 1101.95 161.533 1106.56 Q164.612 1111.14 164.612 1119.89 Q164.612 1128.62 161.533 1133.22 Q158.478 1137.81 152.668 1137.81 Q146.857 1137.81 143.779 1133.22 Q140.723 1128.62 140.723 1119.89 Q140.723 1111.14 143.779 1106.56 Q146.857 1101.95 152.668 1101.95 Z" fill="#000000" fill-rule="evenodd" fill-opacity="1" /><path clip-path="url(#clip690)" d="M 0 0 M89.6818 774.559 L108.038 774.559 L108.038 778.494 L93.9642 778.494 L93.9642 786.967 Q94.9827 786.619 96.0012 786.457 Q97.0197 786.272 98.0382 786.272 Q103.825 786.272 107.205 789.444 Q110.584 792.615 110.584 798.031 Q110.584 803.61 107.112 806.712 Q103.64 809.791 97.3206 809.791 Q95.1447 809.791 92.8762 809.42 Q90.6309 809.05 88.2235 808.309 L88.2235 803.61 Q90.3068 804.744 92.529 805.3 Q94.7512 805.855 97.2281 805.855 Q101.233 805.855 103.571 803.749 Q105.909 801.643 105.909 798.031 Q105.909 794.42 103.571 792.314 Q101.233 790.207 97.2281 790.207 Q95.3531 790.207 93.4781 790.624 Q91.6262 791.041 89.6818 791.92 L89.6818 774.559 Z" fill="#000000" fill-rule="evenodd" fill-opacity="1" /><path clip-path="url(#clip690)" d="M 0 0 M125.654 777.638 Q122.043 777.638 120.214 781.203 Q118.408 784.744 118.408 791.874 Q118.408 798.98 120.214 802.545 Q122.043 806.087 125.654 806.087 Q129.288 806.087 131.094 802.545 Q132.922 798.98 132.922 791.874 Q132.922 784.744 131.094 781.203 Q129.288 777.638 125.654 777.638 M125.654 773.934 Q131.464 773.934 134.52 778.541 Q137.598 783.124 137.598 791.874 Q137.598 800.601 134.52 805.207 Q131.464 809.791 125.654 809.791 Q119.844 809.791 116.765 805.207 Q113.709 800.601 113.709 791.874 Q113.709 783.124 116.765 778.541 Q119.844 773.934 125.654 773.934 Z" fill="#000000" fill-rule="evenodd" fill-opacity="1" /><path clip-path="url(#clip690)" d="M 0 0 M152.668 777.638 Q149.056 777.638 147.228 781.203 Q145.422 784.744 145.422 791.874 Q145.422 798.98 147.228 802.545 Q149.056 806.087 152.668 806.087 Q156.302 806.087 158.107 802.545 Q159.936 798.98 159.936 791.874 Q159.936 784.744 158.107 781.203 Q156.302 777.638 152.668 777.638 M152.668 773.934 Q158.478 773.934 161.533 778.541 Q164.612 783.124 164.612 791.874 Q164.612 800.601 161.533 805.207 Q158.478 809.791 152.668 809.791 Q146.857 809.791 143.779 805.207 Q140.723 800.601 140.723 791.874 Q140.723 783.124 143.779 778.541 Q146.857 773.934 152.668 773.934 Z" fill="#000000" fill-rule="evenodd" fill-opacity="1" /><path clip-path="url(#clip690)" d="M 0 0 M89.3577 446.542 L111.58 446.542 L111.58 448.533 L99.0336 481.102 L94.1494 481.102 L105.955 450.478 L89.3577 450.478 L89.3577 446.542 Z" fill="#000000" fill-rule="evenodd" fill-opacity="1" /><path clip-path="url(#clip690)" d="M 0 0 M116.696 446.542 L135.052 446.542 L135.052 450.478 L120.978 450.478 L120.978 458.95 Q121.996 458.603 123.015 458.441 Q124.033 458.255 125.052 458.255 Q130.839 458.255 134.219 461.427 Q137.598 464.598 137.598 470.015 Q137.598 475.593 134.126 478.695 Q130.654 481.774 124.334 481.774 Q122.158 481.774 119.89 481.403 Q117.645 481.033 115.237 480.292 L115.237 475.593 Q117.321 476.727 119.543 477.283 Q121.765 477.839 124.242 477.839 Q128.246 477.839 130.584 475.732 Q132.922 473.626 132.922 470.015 Q132.922 466.403 130.584 464.297 Q128.246 462.191 124.242 462.191 Q122.367 462.191 120.492 462.607 Q118.64 463.024 116.696 463.903 L116.696 446.542 Z" fill="#000000" fill-rule="evenodd" fill-opacity="1" /><path clip-path="url(#clip690)" d="M 0 0 M152.668 449.621 Q149.056 449.621 147.228 453.186 Q145.422 456.728 145.422 463.857 Q145.422 470.964 147.228 474.528 Q149.056 478.07 152.668 478.07 Q156.302 478.07 158.107 474.528 Q159.936 470.964 159.936 463.857 Q159.936 456.728 158.107 453.186 Q156.302 449.621 152.668 449.621 M152.668 445.917 Q158.478 445.917 161.533 450.524 Q164.612 455.107 164.612 463.857 Q164.612 472.584 161.533 477.19 Q158.478 481.774 152.668 481.774 Q146.857 481.774 143.779 477.19 Q140.723 472.584 140.723 463.857 Q140.723 455.107 143.779 450.524 Q146.857 445.917 152.668 445.917 Z" fill="#000000" fill-rule="evenodd" fill-opacity="1" /><path clip-path="url(#clip690)" d="M 0 0 M63.6634 149.15 L71.3023 149.15 L71.3023 122.785 L62.9921 124.451 L62.9921 120.192 L71.256 118.526 L75.9319 118.526 L75.9319 149.15 L83.5707 149.15 L83.5707 153.086 L63.6634 153.086 L63.6634 149.15 Z" fill="#000000" fill-rule="evenodd" fill-opacity="1" /><path clip-path="url(#clip690)" d="M 0 0 M98.6401 121.604 Q95.029 121.604 93.2003 125.169 Q91.3948 128.711 91.3948 135.84 Q91.3948 142.947 93.2003 146.512 Q95.029 150.053 98.6401 150.053 Q102.274 150.053 104.08 146.512 Q105.909 142.947 105.909 135.84 Q105.909 128.711 104.08 125.169 Q102.274 121.604 98.6401 121.604 M98.6401 117.901 Q104.45 117.901 107.506 122.507 Q110.584 127.09 110.584 135.84 Q110.584 144.567 107.506 149.174 Q104.45 153.757 98.6401 153.757 Q92.8299 153.757 89.7512 149.174 Q86.6957 144.567 86.6957 135.84 Q86.6957 127.09 89.7512 122.507 Q92.8299 117.901 98.6401 117.901 Z" fill="#000000" fill-rule="evenodd" fill-opacity="1" /><path clip-path="url(#clip690)" d="M 0 0 M125.654 121.604 Q122.043 121.604 120.214 125.169 Q118.408 128.711 118.408 135.84 Q118.408 142.947 120.214 146.512 Q122.043 150.053 125.654 150.053 Q129.288 150.053 131.094 146.512 Q132.922 142.947 132.922 135.84 Q132.922 128.711 131.094 125.169 Q129.288 121.604 125.654 121.604 M125.654 117.901 Q131.464 117.901 134.52 122.507 Q137.598 127.09 137.598 135.84 Q137.598 144.567 134.52 149.174 Q131.464 153.757 125.654 153.757 Q119.844 153.757 116.765 149.174 Q113.709 144.567 113.709 135.84 Q113.709 127.09 116.765 122.507 Q119.844 117.901 125.654 117.901 Z" fill="#000000" fill-rule="evenodd" fill-opacity="1" /><path clip-path="url(#clip690)" d="M 0 0 M152.668 121.604 Q149.056 121.604 147.228 125.169 Q145.422 128.711 145.422 135.84 Q145.422 142.947 147.228 146.512 Q149.056 150.053 152.668 150.053 Q156.302 150.053 158.107 146.512 Q159.936 142.947 159.936 135.84 Q159.936 128.711 158.107 125.169 Q156.302 121.604 152.668 121.604 M152.668 117.901 Q158.478 117.901 161.533 122.507 Q164.612 127.09 164.612 135.84 Q164.612 144.567 161.533 149.174 Q158.478 153.757 152.668 153.757 Q146.857 153.757 143.779 149.174 Q140.723 144.567 140.723 135.84 Q140.723 127.09 143.779 122.507 Q146.857 117.901 152.668 117.901 Z" fill="#000000" fill-rule="evenodd" fill-opacity="1" /><path clip-path="url(#clip690)" d="M 0 0 M1194.87 18.8205 L1194.87 65.8515 L1204.76 65.8515 Q1217.27 65.8515 1223.07 60.1802 Q1228.9 54.509 1228.9 42.2752 Q1228.9 30.1225 1223.07 24.4918 Q1217.27 18.8205 1204.76 18.8205 L1194.87 18.8205 M1186.69 12.096 L1203.5 12.096 Q1221.08 12.096 1229.3 19.4281 Q1237.53 26.7198 1237.53 42.2752 Q1237.53 57.9117 1229.26 65.2439 Q1221 72.576 1203.5 72.576 L1186.69 72.576 L1186.69 12.096 Z" fill="#000000" fill-rule="evenodd" fill-opacity="1" /><path clip-path="url(#clip690)" d="M 0 0 M1265.96 49.7694 Q1256.93 49.7694 1253.45 51.8354 Q1249.96 53.9013 1249.96 58.8839 Q1249.96 62.8538 1252.56 65.2034 Q1255.19 67.5124 1259.69 67.5124 Q1265.88 67.5124 1269.61 63.1374 Q1273.38 58.7219 1273.38 51.4303 L1273.38 49.7694 L1265.96 49.7694 M1280.83 46.6907 L1280.83 72.576 L1273.38 72.576 L1273.38 65.6895 Q1270.83 69.8214 1267.02 71.8063 Q1263.21 73.7508 1257.7 73.7508 Q1250.73 73.7508 1246.6 69.8619 Q1242.51 65.9325 1242.51 59.3701 Q1242.51 51.7138 1247.61 47.825 Q1252.76 43.9361 1262.93 43.9361 L1273.38 43.9361 L1273.38 43.2069 Q1273.38 38.0623 1269.98 35.2672 Q1266.61 32.4315 1260.5 32.4315 Q1256.61 32.4315 1252.92 33.3632 Q1249.23 34.295 1245.83 36.1584 L1245.83 29.2718 Q1249.92 27.692 1253.77 26.9223 Q1257.62 26.1121 1261.27 26.1121 Q1271.11 26.1121 1275.97 31.2163 Q1280.83 36.3204 1280.83 46.6907 Z" fill="#000000" fill-rule="evenodd" fill-opacity="1" /><path clip-path="url(#clip690)" d="M 0 0 M1296.02 14.324 L1296.02 27.2059 L1311.38 27.2059 L1311.38 32.9987 L1296.02 32.9987 L1296.02 57.6282 Q1296.02 63.1779 1297.52 64.7578 Q1299.06 66.3376 1303.72 66.3376 L1311.38 66.3376 L1311.38 72.576 L1303.72 72.576 Q1295.09 72.576 1291.81 69.3758 Q1288.53 66.1351 1288.53 57.6282 L1288.53 32.9987 L1283.06 32.9987 L1283.06 27.2059 L1288.53 27.2059 L1288.53 14.324 L1296.02 14.324 Z" fill="#000000" fill-rule="evenodd" fill-opacity="1" /><path clip-path="url(#clip690)" d="M 0 0 M1339.81 49.7694 Q1330.78 49.7694 1327.3 51.8354 Q1323.81 53.9013 1323.81 58.8839 Q1323.81 62.8538 1326.4 65.2034 Q1329.04 67.5124 1333.53 67.5124 Q1339.73 67.5124 1343.46 63.1374 Q1347.23 58.7219 1347.23 51.4303 L1347.23 49.7694 L1339.81 49.7694 M1354.68 46.6907 L1354.68 72.576 L1347.23 72.576 L1347.23 65.6895 Q1344.67 69.8214 1340.87 71.8063 Q1337.06 73.7508 1331.55 73.7508 Q1324.58 73.7508 1320.45 69.8619 Q1316.36 65.9325 1316.36 59.3701 Q1316.36 51.7138 1321.46 47.825 Q1326.61 43.9361 1336.77 43.9361 L1347.23 43.9361 L1347.23 43.2069 Q1347.23 38.0623 1343.82 35.2672 Q1340.46 32.4315 1334.34 32.4315 Q1330.46 32.4315 1326.77 33.3632 Q1323.08 34.295 1319.68 36.1584 L1319.68 29.2718 Q1323.77 27.692 1327.62 26.9223 Q1331.47 26.1121 1335.11 26.1121 Q1344.96 26.1121 1349.82 31.2163 Q1354.68 36.3204 1354.68 46.6907 Z" fill="#000000" fill-rule="evenodd" fill-opacity="1" /><polyline clip-path="url(#clip692)" style="stroke:#009af9; stroke-width:4; stroke-opacity:1; fill:none" points="
  249.861,1447.87 249.861,1434.75 283.889,1434.75 283.889,1395.39 317.916,1395.39 317.916,1264.18 351.944,1264.18 351.944,1185.46 385.971,1185.46 385.971,1080.49 
  419.998,1080.49 419.998,1054.25 454.026,1054.25 454.026,1106.74 488.053,1106.74 488.053,1014.89 522.081,1014.89 522.081,1054.25 556.108,1054.25 556.108,752.477 
  590.136,752.477 590.136,857.443 624.163,857.443 624.163,1001.77 658.19,1001.77 658.19,1054.25 692.218,1054.25 692.218,962.408 726.245,962.408 726.245,1067.37 
  760.273,1067.37 760.273,1211.7 794.3,1211.7 794.3,1224.82 828.327,1224.82 828.327,1211.7 862.355,1211.7 862.355,1329.79 896.382,1329.79 896.382,1382.27 
  930.41,1382.27 964.437,1382.27 964.437,1447.87 998.465,1447.87 998.465,1408.51 1032.49,1408.51 1032.49,1447.87 1066.52,1447.87 
  1100.55,1447.87 1100.55,1434.75 1134.57,1434.75 1134.57,1356.03 1168.6,1356.03 1168.6,1395.39 1202.63,1395.39 1202.63,1356.03 1236.66,1356.03 1236.66,1316.67 
  1270.68,1316.67 1270.68,1290.42 1304.71,1290.42 1304.71,1198.58 1338.74,1198.58 1338.74,1224.82 1372.77,1224.82 1372.77,1054.25 1406.79,1054.25 1406.79,818.081 
  1440.82,818.081 1440.82,673.753 1474.85,673.753 1474.85,608.15 1508.88,608.15 1508.88,595.029 1542.9,595.029 1542.9,450.702 1576.93,450.702 1576.93,162.047 
  1610.96,162.047 1610.96,463.822 1644.99,463.822 1644.99,581.909 1679.01,581.909 1679.01,555.667 1713.04,555.667 1713.04,608.15 1747.07,608.15 1747.07,673.753 
  1781.1,673.753 1781.1,896.805 1815.12,896.805 1815.12,1001.77 1849.15,1001.77 1849.15,1067.37 1883.18,1067.37 1883.18,1251.06 1917.2,1251.06 1917.2,1264.18 
  1951.23,1264.18 1951.23,1342.91 1985.26,1342.91 1985.26,1395.39 2019.29,1395.39 2019.29,1434.75 2053.31,1434.75 2053.31,1408.51 2087.34,1408.51 2087.34,1434.75 
  2121.37,1434.75 2155.4,1434.75 2155.4,1447.87 2189.42,1447.87 2223.45,1447.87 2257.48,1447.87 
  2291.51,1447.87 
  "/>
<path clip-path="url(#clip690)" d="
M1944.76 327.952 L2280.76 327.952 L2280.76 206.992 L1944.76 206.992  Z
  " fill="#ffffff" fill-rule="evenodd" fill-opacity="1"/>
<polyline clip-path="url(#clip690)" style="stroke:#000000; stroke-width:4; stroke-opacity:1; fill:none" points="
  1944.76,327.952 2280.76,327.952 2280.76,206.992 1944.76,206.992 1944.76,327.952 
  "/>
<polyline clip-path="url(#clip690)" style="stroke:#009af9; stroke-width:4; stroke-opacity:1; fill:none" points="
  1968.76,267.472 2112.76,267.472 
  "/>
<path clip-path="url(#clip690)" d="M 0 0 M2141.44 254.035 L2141.44 280.91 L2147.09 280.91 Q2154.24 280.91 2157.55 277.669 Q2160.88 274.428 2160.88 267.437 Q2160.88 260.493 2157.55 257.275 Q2154.24 254.035 2147.09 254.035 L2141.44 254.035 M2136.76 250.192 L2146.37 250.192 Q2156.41 250.192 2161.11 254.382 Q2165.81 258.549 2165.81 267.437 Q2165.81 276.373 2161.09 280.562 Q2156.37 284.752 2146.37 284.752 L2136.76 284.752 L2136.76 250.192 Z" fill="#000000" fill-rule="evenodd" fill-opacity="1" /><path clip-path="url(#clip690)" d="M 0 0 M2182.06 271.72 Q2176.9 271.72 2174.91 272.9 Q2172.92 274.081 2172.92 276.928 Q2172.92 279.197 2174.4 280.539 Q2175.9 281.859 2178.47 281.859 Q2182.02 281.859 2184.15 279.359 Q2186.3 276.836 2186.3 272.669 L2186.3 271.72 L2182.06 271.72 M2190.56 269.961 L2190.56 284.752 L2186.3 284.752 L2186.3 280.817 Q2184.84 283.178 2182.66 284.312 Q2180.49 285.423 2177.34 285.423 Q2173.36 285.423 2171 283.201 Q2168.66 280.956 2168.66 277.206 Q2168.66 272.831 2171.58 270.609 Q2174.52 268.386 2180.33 268.386 L2186.3 268.386 L2186.3 267.97 Q2186.3 265.03 2184.35 263.433 Q2182.43 261.812 2178.94 261.812 Q2176.71 261.812 2174.61 262.345 Q2172.5 262.877 2170.56 263.942 L2170.56 260.007 Q2172.9 259.104 2175.09 258.664 Q2177.29 258.201 2179.38 258.201 Q2185 258.201 2187.78 261.118 Q2190.56 264.035 2190.56 269.961 Z" fill="#000000" fill-rule="evenodd" fill-opacity="1" /><path clip-path="url(#clip690)" d="M 0 0 M2199.24 251.465 L2199.24 258.826 L2208.01 258.826 L2208.01 262.137 L2199.24 262.137 L2199.24 276.211 Q2199.24 279.382 2200.09 280.285 Q2200.97 281.187 2203.64 281.187 L2208.01 281.187 L2208.01 284.752 L2203.64 284.752 Q2198.71 284.752 2196.83 282.923 Q2194.96 281.072 2194.96 276.211 L2194.96 262.137 L2191.83 262.137 L2191.83 258.826 L2194.96 258.826 L2194.96 251.465 L2199.24 251.465 Z" fill="#000000" fill-rule="evenodd" fill-opacity="1" /><path clip-path="url(#clip690)" d="M 0 0 M2224.26 271.72 Q2219.1 271.72 2217.11 272.9 Q2215.12 274.081 2215.12 276.928 Q2215.12 279.197 2216.6 280.539 Q2218.1 281.859 2220.67 281.859 Q2224.21 281.859 2226.34 279.359 Q2228.5 276.836 2228.5 272.669 L2228.5 271.72 L2224.26 271.72 M2232.76 269.961 L2232.76 284.752 L2228.5 284.752 L2228.5 280.817 Q2227.04 283.178 2224.86 284.312 Q2222.69 285.423 2219.54 285.423 Q2215.56 285.423 2213.2 283.201 Q2210.86 280.956 2210.86 277.206 Q2210.86 272.831 2213.77 270.609 Q2216.71 268.386 2222.52 268.386 L2228.5 268.386 L2228.5 267.97 Q2228.5 265.03 2226.55 263.433 Q2224.63 261.812 2221.14 261.812 Q2218.91 261.812 2216.81 262.345 Q2214.7 262.877 2212.76 263.942 L2212.76 260.007 Q2215.09 259.104 2217.29 258.664 Q2219.49 258.201 2221.58 258.201 Q2227.2 258.201 2229.98 261.118 Q2232.76 264.035 2232.76 269.961 Z" fill="#000000" fill-rule="evenodd" fill-opacity="1" /></svg>
