<?xml version="1.0" encoding="utf-8"?>
<svg xmlns="http://www.w3.org/2000/svg" xmlns:xlink="http://www.w3.org/1999/xlink" width="600" height="400" viewBox="0 0 2400 1600">
<defs>
  <clipPath id="clip390">
    <rect x="0" y="0" width="2400" height="1600"/>
  </clipPath>
</defs>
<path clip-path="url(#clip390)" d="
M0 1600 L2400 1600 L2400 0 L0 0  Z
  " fill="#ffffff" fill-rule="evenodd" fill-opacity="1"/>
<defs>
  <clipPath id="clip391">
    <rect x="480" y="0" width="1681" height="1600"/>
  </clipPath>
</defs>
<path clip-path="url(#clip390)" d="
M166.205 1486.45 L2352.76 1486.45 L2352.76 123.472 L166.205 123.472  Z
  " fill="#ffffff" fill-rule="evenodd" fill-opacity="1"/>
<defs>
  <clipPath id="clip392">
    <rect x="166" y="123" width="2188" height="1364"/>
  </clipPath>
</defs>
<polyline clip-path="url(#clip392)" style="stroke:#000000; stroke-width:2; stroke-opacity:0.1; fill:none" points="
  228.088,1486.45 228.088,123.472 
  "/>
<polyline clip-path="url(#clip392)" style="stroke:#000000; stroke-width:2; stroke-opacity:0.1; fill:none" points="
  743.784,1486.45 743.784,123.472 
  "/>
<polyline clip-path="url(#clip392)" style="stroke:#000000; stroke-width:2; stroke-opacity:0.1; fill:none" points="
  1259.48,1486.45 1259.48,123.472 
  "/>
<polyline clip-path="url(#clip392)" style="stroke:#000000; stroke-width:2; stroke-opacity:0.1; fill:none" points="
  1775.18,1486.45 1775.18,123.472 
  "/>
<polyline clip-path="url(#clip392)" style="stroke:#000000; stroke-width:2; stroke-opacity:0.1; fill:none" points="
  2290.87,1486.45 2290.87,123.472 
  "/>
<polyline clip-path="url(#clip390)" style="stroke:#000000; stroke-width:4; stroke-opacity:1; fill:none" points="
  166.205,1486.45 2352.76,1486.45 
  "/>
<polyline clip-path="url(#clip390)" style="stroke:#000000; stroke-width:4; stroke-opacity:1; fill:none" points="
  228.088,1486.45 228.088,1470.09 
  "/>
<polyline clip-path="url(#clip390)" style="stroke:#000000; stroke-width:4; stroke-opacity:1; fill:none" points="
  743.784,1486.45 743.784,1470.09 
  "/>
<polyline clip-path="url(#clip390)" style="stroke:#000000; stroke-width:4; stroke-opacity:1; fill:none" points="
  1259.48,1486.45 1259.48,1470.09 
  "/>
<polyline clip-path="url(#clip390)" style="stroke:#000000; stroke-width:4; stroke-opacity:1; fill:none" points="
  1775.18,1486.45 1775.18,1470.09 
  "/>
<polyline clip-path="url(#clip390)" style="stroke:#000000; stroke-width:4; stroke-opacity:1; fill:none" points="
  2290.87,1486.45 2290.87,1470.09 
  "/>
<path clip-path="url(#clip390)" d="M 0 0 M199.5 1530.29 L229.176 1530.29 L229.176 1534.23 L199.5 1534.23 L199.5 1530.29 Z" fill="#000000" fill-rule="evenodd" fill-opacity="1" /><path clip-path="url(#clip390)" d="M 0 0 M247.093 1516.63 L235.287 1535.08 L247.093 1535.08 L247.093 1516.63 M245.866 1512.56 L251.745 1512.56 L251.745 1535.08 L256.676 1535.08 L256.676 1538.97 L251.745 1538.97 L251.745 1547.12 L247.093 1547.12 L247.093 1538.97 L231.491 1538.97 L231.491 1534.46 L245.866 1512.56 Z" fill="#000000" fill-rule="evenodd" fill-opacity="1" /><path clip-path="url(#clip390)" d="M 0 0 M716.238 1530.29 L745.914 1530.29 L745.914 1534.23 L716.238 1534.23 L716.238 1530.29 Z" fill="#000000" fill-rule="evenodd" fill-opacity="1" /><path clip-path="url(#clip390)" d="M 0 0 M755.011 1543.18 L771.33 1543.18 L771.33 1547.12 L749.386 1547.12 L749.386 1543.18 Q752.048 1540.43 756.631 1535.8 Q761.238 1531.15 762.418 1529.81 Q764.664 1527.28 765.543 1525.55 Q766.446 1523.79 766.446 1522.1 Q766.446 1519.34 764.502 1517.61 Q762.58 1515.87 759.479 1515.87 Q757.28 1515.87 754.826 1516.63 Q752.395 1517.4 749.618 1518.95 L749.618 1514.23 Q752.442 1513.09 754.895 1512.51 Q757.349 1511.93 759.386 1511.93 Q764.756 1511.93 767.951 1514.62 Q771.145 1517.31 771.145 1521.8 Q771.145 1523.93 770.335 1525.85 Q769.548 1527.74 767.442 1530.34 Q766.863 1531.01 763.761 1534.23 Q760.659 1537.42 755.011 1543.18 Z" fill="#000000" fill-rule="evenodd" fill-opacity="1" /><path clip-path="url(#clip390)" d="M 0 0 M1259.48 1515.64 Q1255.87 1515.64 1254.04 1519.2 Q1252.23 1522.75 1252.23 1529.87 Q1252.23 1536.98 1254.04 1540.55 Q1255.87 1544.09 1259.48 1544.09 Q1263.11 1544.09 1264.92 1540.55 Q1266.75 1536.98 1266.75 1529.87 Q1266.75 1522.75 1264.92 1519.2 Q1263.11 1515.64 1259.48 1515.64 M1259.48 1511.93 Q1265.29 1511.93 1268.35 1516.54 Q1271.42 1521.12 1271.42 1529.87 Q1271.42 1538.6 1268.35 1543.21 Q1265.29 1547.79 1259.48 1547.79 Q1253.67 1547.79 1250.59 1543.21 Q1247.54 1538.6 1247.54 1529.87 Q1247.54 1521.12 1250.59 1516.54 Q1253.67 1511.93 1259.48 1511.93 Z" fill="#000000" fill-rule="evenodd" fill-opacity="1" /><path clip-path="url(#clip390)" d="M 0 0 M1769.83 1543.18 L1786.15 1543.18 L1786.15 1547.12 L1764.2 1547.12 L1764.2 1543.18 Q1766.87 1540.43 1771.45 1535.8 Q1776.06 1531.15 1777.24 1529.81 Q1779.48 1527.28 1780.36 1525.55 Q1781.26 1523.79 1781.26 1522.1 Q1781.26 1519.34 1779.32 1517.61 Q1777.4 1515.87 1774.3 1515.87 Q1772.1 1515.87 1769.64 1516.63 Q1767.21 1517.4 1764.44 1518.95 L1764.44 1514.23 Q1767.26 1513.09 1769.71 1512.51 Q1772.17 1511.93 1774.2 1511.93 Q1779.57 1511.93 1782.77 1514.62 Q1785.96 1517.31 1785.96 1521.8 Q1785.96 1523.93 1785.15 1525.85 Q1784.37 1527.74 1782.26 1530.34 Q1781.68 1531.01 1778.58 1534.23 Q1775.48 1537.42 1769.83 1543.18 Z" fill="#000000" fill-rule="evenodd" fill-opacity="1" /><path clip-path="url(#clip390)" d="M 0 0 M2293.88 1516.63 L2282.08 1535.08 L2293.88 1535.08 L2293.88 1516.63 M2292.65 1512.56 L2298.53 1512.56 L2298.53 1535.08 L2303.46 1535.08 L2303.46 1538.97 L2298.53 1538.97 L2298.53 1547.12 L2293.88 1547.12 L2293.88 1538.97 L2278.28 1538.97 L2278.28 1534.46 L2292.65 1512.56 Z" fill="#000000" fill-rule="evenodd" fill-opacity="1" /><polyline clip-path="url(#clip392)" style="stroke:#000000; stroke-width:2; stroke-opacity:0.1; fill:none" points="
  166.205,1447.87 2352.76,1447.87 
  "/>
<polyline clip-path="url(#clip392)" style="stroke:#000000; stroke-width:2; stroke-opacity:0.1; fill:none" points="
  166.205,1177.17 2352.76,1177.17 
  "/>
<polyline clip-path="url(#clip392)" style="stroke:#000000; stroke-width:2; stroke-opacity:0.1; fill:none" points="
  166.205,906.473 2352.76,906.473 
  "/>
<polyline clip-path="url(#clip392)" style="stroke:#000000; stroke-width:2; stroke-opacity:0.1; fill:none" points="
  166.205,635.772 2352.76,635.772 
  "/>
<polyline clip-path="url(#clip392)" style="stroke:#000000; stroke-width:2; stroke-opacity:0.1; fill:none" points="
  166.205,365.072 2352.76,365.072 
  "/>
<polyline clip-path="url(#clip390)" style="stroke:#000000; stroke-width:4; stroke-opacity:1; fill:none" points="
  166.205,1486.45 166.205,123.472 
  "/>
<polyline clip-path="url(#clip390)" style="stroke:#000000; stroke-width:4; stroke-opacity:1; fill:none" points="
  166.205,1447.87 192.443,1447.87 
  "/>
<polyline clip-path="url(#clip390)" style="stroke:#000000; stroke-width:4; stroke-opacity:1; fill:none" points="
  166.205,1177.17 192.443,1177.17 
  "/>
<polyline clip-path="url(#clip390)" style="stroke:#000000; stroke-width:4; stroke-opacity:1; fill:none" points="
  166.205,906.473 192.443,906.473 
  "/>
<polyline clip-path="url(#clip390)" style="stroke:#000000; stroke-width:4; stroke-opacity:1; fill:none" points="
  166.205,635.772 192.443,635.772 
  "/>
<polyline clip-path="url(#clip390)" style="stroke:#000000; stroke-width:4; stroke-opacity:1; fill:none" points="
  166.205,365.072 192.443,365.072 
  "/>
<path clip-path="url(#clip390)" d="M 0 0 M118.26 1433.67 Q114.649 1433.67 112.82 1437.24 Q111.015 1440.78 111.015 1447.91 Q111.015 1455.01 112.82 1458.58 Q114.649 1462.12 118.26 1462.12 Q121.895 1462.12 123.7 1458.58 Q125.529 1455.01 125.529 1447.91 Q125.529 1440.78 123.7 1437.24 Q121.895 1433.67 118.26 1433.67 M118.26 1429.97 Q124.07 1429.97 127.126 1434.57 Q130.205 1439.16 130.205 1447.91 Q130.205 1456.63 127.126 1461.24 Q124.07 1465.82 118.26 1465.82 Q112.45 1465.82 109.371 1461.24 Q106.316 1456.63 106.316 1447.91 Q106.316 1439.16 109.371 1434.57 Q112.45 1429.97 118.26 1429.97 Z" fill="#000000" fill-rule="evenodd" fill-opacity="1" /><path clip-path="url(#clip390)" d="M 0 0 M59.8578 1190.52 L76.1772 1190.52 L76.1772 1194.45 L54.2328 1194.45 L54.2328 1190.52 Q56.8949 1187.76 61.4782 1183.13 Q66.0846 1178.48 67.2652 1177.14 Q69.5105 1174.61 70.3902 1172.88 Q71.2929 1171.12 71.2929 1169.43 Q71.2929 1166.68 69.3485 1164.94 Q67.4272 1163.2 64.3254 1163.2 Q62.1263 1163.2 59.6726 1163.97 Q57.2421 1164.73 54.4643 1166.28 L54.4643 1161.56 Q57.2884 1160.43 59.7421 1159.85 Q62.1958 1159.27 64.2328 1159.27 Q69.6031 1159.27 72.7976 1161.95 Q75.992 1164.64 75.992 1169.13 Q75.992 1171.26 75.1818 1173.18 Q74.3948 1175.08 72.2883 1177.67 Q71.7096 1178.34 68.6078 1181.56 Q65.5059 1184.75 59.8578 1190.52 Z" fill="#000000" fill-rule="evenodd" fill-opacity="1" /><path clip-path="url(#clip390)" d="M 0 0 M91.2465 1162.97 Q87.6354 1162.97 85.8068 1166.54 Q84.0012 1170.08 84.0012 1177.21 Q84.0012 1184.31 85.8068 1187.88 Q87.6354 1191.42 91.2465 1191.42 Q94.8808 1191.42 96.6863 1187.88 Q98.515 1184.31 98.515 1177.21 Q98.515 1170.08 96.6863 1166.54 Q94.8808 1162.97 91.2465 1162.97 M91.2465 1159.27 Q97.0567 1159.27 100.112 1163.87 Q103.191 1168.46 103.191 1177.21 Q103.191 1185.93 100.112 1190.54 Q97.0567 1195.12 91.2465 1195.12 Q85.4364 1195.12 82.3577 1190.54 Q79.3022 1185.93 79.3022 1177.21 Q79.3022 1168.46 82.3577 1163.87 Q85.4364 1159.27 91.2465 1159.27 Z" fill="#000000" fill-rule="evenodd" fill-opacity="1" /><path clip-path="url(#clip390)" d="M 0 0 M118.26 1162.97 Q114.649 1162.97 112.82 1166.54 Q111.015 1170.08 111.015 1177.21 Q111.015 1184.31 112.82 1187.88 Q114.649 1191.42 118.26 1191.42 Q121.895 1191.42 123.7 1187.88 Q125.529 1184.31 125.529 1177.21 Q125.529 1170.08 123.7 1166.54 Q121.895 1162.97 118.26 1162.97 M118.26 1159.27 Q124.07 1159.27 127.126 1163.87 Q130.205 1168.46 130.205 1177.21 Q130.205 1185.93 127.126 1190.54 Q124.07 1195.12 118.26 1195.12 Q112.45 1195.12 109.371 1190.54 Q106.316 1185.93 106.316 1177.21 Q106.316 1168.46 109.371 1163.87 Q112.45 1159.27 118.26 1159.27 Z" fill="#000000" fill-rule="evenodd" fill-opacity="1" /><path clip-path="url(#clip390)" d="M 0 0 M66.5939 893.267 L54.7884 911.716 L66.5939 911.716 L66.5939 893.267 M65.367 889.193 L71.2466 889.193 L71.2466 911.716 L76.1772 911.716 L76.1772 915.604 L71.2466 915.604 L71.2466 923.753 L66.5939 923.753 L66.5939 915.604 L50.9921 915.604 L50.9921 911.091 L65.367 889.193 Z" fill="#000000" fill-rule="evenodd" fill-opacity="1" /><path clip-path="url(#clip390)" d="M 0 0 M91.2465 892.271 Q87.6354 892.271 85.8068 895.836 Q84.0012 899.378 84.0012 906.507 Q84.0012 913.614 85.8068 917.179 Q87.6354 920.72 91.2465 920.72 Q94.8808 920.72 96.6863 917.179 Q98.515 913.614 98.515 906.507 Q98.515 899.378 96.6863 895.836 Q94.8808 892.271 91.2465 892.271 M91.2465 888.568 Q97.0567 888.568 100.112 893.174 Q103.191 897.757 103.191 906.507 Q103.191 915.234 100.112 919.841 Q97.0567 924.424 91.2465 924.424 Q85.4364 924.424 82.3577 919.841 Q79.3022 915.234 79.3022 906.507 Q79.3022 897.757 82.3577 893.174 Q85.4364 888.568 91.2465 888.568 Z" fill="#000000" fill-rule="evenodd" fill-opacity="1" /><path clip-path="url(#clip390)" d="M 0 0 M118.26 892.271 Q114.649 892.271 112.82 895.836 Q111.015 899.378 111.015 906.507 Q111.015 913.614 112.82 917.179 Q114.649 920.72 118.26 920.72 Q121.895 920.72 123.7 917.179 Q125.529 913.614 125.529 906.507 Q125.529 899.378 123.7 895.836 Q121.895 892.271 118.26 892.271 M118.26 888.568 Q124.07 888.568 127.126 893.174 Q130.205 897.757 130.205 906.507 Q130.205 915.234 127.126 919.841 Q124.07 924.424 118.26 924.424 Q112.45 924.424 109.371 919.841 Q106.316 915.234 106.316 906.507 Q106.316 897.757 109.371 893.174 Q112.45 888.568 118.26 888.568 Z" fill="#000000" fill-rule="evenodd" fill-opacity="1" /><path clip-path="url(#clip390)" d="M 0 0 M64.6495 633.909 Q61.5013 633.909 59.6495 636.062 Q57.8208 638.214 57.8208 641.964 Q57.8208 645.691 59.6495 647.867 Q61.5013 650.02 64.6495 650.02 Q67.7976 650.02 69.6263 647.867 Q71.4781 645.691 71.4781 641.964 Q71.4781 638.214 69.6263 636.062 Q67.7976 633.909 64.6495 633.909 M73.9318 619.256 L73.9318 623.515 Q72.1726 622.682 70.367 622.242 Q68.5846 621.803 66.8254 621.803 Q62.1958 621.803 59.7421 624.927 Q57.3115 628.052 56.9643 634.372 Q58.33 632.358 60.3902 631.293 Q62.4504 630.205 64.9272 630.205 Q70.1355 630.205 73.1448 633.377 Q76.1772 636.525 76.1772 641.964 Q76.1772 647.288 73.029 650.506 Q69.8809 653.724 64.6495 653.724 Q58.6541 653.724 55.4828 649.14 Q52.3116 644.534 52.3116 635.807 Q52.3116 627.613 56.2004 622.752 Q60.0893 617.867 66.6402 617.867 Q68.3994 617.867 70.1818 618.215 Q71.9874 618.562 73.9318 619.256 Z" fill="#000000" fill-rule="evenodd" fill-opacity="1" /><path clip-path="url(#clip390)" d="M 0 0 M91.2465 621.571 Q87.6354 621.571 85.8068 625.136 Q84.0012 628.677 84.0012 635.807 Q84.0012 642.914 85.8068 646.478 Q87.6354 650.02 91.2465 650.02 Q94.8808 650.02 96.6863 646.478 Q98.515 642.914 98.515 635.807 Q98.515 628.677 96.6863 625.136 Q94.8808 621.571 91.2465 621.571 M91.2465 617.867 Q97.0567 617.867 100.112 622.474 Q103.191 627.057 103.191 635.807 Q103.191 644.534 100.112 649.14 Q97.0567 653.724 91.2465 653.724 Q85.4364 653.724 82.3577 649.14 Q79.3022 644.534 79.3022 635.807 Q79.3022 627.057 82.3577 622.474 Q85.4364 617.867 91.2465 617.867 Z" fill="#000000" fill-rule="evenodd" fill-opacity="1" /><path clip-path="url(#clip390)" d="M 0 0 M118.26 621.571 Q114.649 621.571 112.82 625.136 Q111.015 628.677 111.015 635.807 Q111.015 642.914 112.82 646.478 Q114.649 650.02 118.26 650.02 Q121.895 650.02 123.7 646.478 Q125.529 642.914 125.529 635.807 Q125.529 628.677 123.7 625.136 Q121.895 621.571 118.26 621.571 M118.26 617.867 Q124.07 617.867 127.126 622.474 Q130.205 627.057 130.205 635.807 Q130.205 644.534 127.126 649.14 Q124.07 653.724 118.26 653.724 Q112.45 653.724 109.371 649.14 Q106.316 644.534 106.316 635.807 Q106.316 627.057 109.371 622.474 Q112.45 617.867 118.26 617.867 Z" fill="#000000" fill-rule="evenodd" fill-opacity="1" /><path clip-path="url(#clip390)" d="M 0 0 M64.3254 365.94 Q60.9921 365.94 59.0708 367.723 Q57.1726 369.505 57.1726 372.63 Q57.1726 375.755 59.0708 377.537 Q60.9921 379.32 64.3254 379.32 Q67.6587 379.32 69.58 377.537 Q71.5013 375.732 71.5013 372.63 Q71.5013 369.505 69.58 367.723 Q67.6819 365.94 64.3254 365.94 M59.6495 363.949 Q56.6402 363.209 54.9504 361.149 Q53.2838 359.088 53.2838 356.125 Q53.2838 351.982 56.2236 349.574 Q59.1865 347.167 64.3254 347.167 Q69.4874 347.167 72.4272 349.574 Q75.367 351.982 75.367 356.125 Q75.367 359.088 73.6772 361.149 Q72.0105 363.209 69.0244 363.949 Q72.404 364.736 74.279 367.028 Q76.1772 369.32 76.1772 372.63 Q76.1772 377.653 73.0985 380.338 Q70.0429 383.023 64.3254 383.023 Q58.6078 383.023 55.5291 380.338 Q52.4736 377.653 52.4736 372.63 Q52.4736 369.32 54.3717 367.028 Q56.2699 364.736 59.6495 363.949 M57.9365 356.565 Q57.9365 359.25 59.6032 360.755 Q61.293 362.26 64.3254 362.26 Q67.3346 362.26 69.0244 360.755 Q70.7374 359.25 70.7374 356.565 Q70.7374 353.88 69.0244 352.375 Q67.3346 350.871 64.3254 350.871 Q61.293 350.871 59.6032 352.375 Q57.9365 353.88 57.9365 356.565 Z" fill="#000000" fill-rule="evenodd" fill-opacity="1" /><path clip-path="url(#clip390)" d="M 0 0 M91.2465 350.871 Q87.6354 350.871 85.8068 354.436 Q84.0012 357.977 84.0012 365.107 Q84.0012 372.213 85.8068 375.778 Q87.6354 379.32 91.2465 379.32 Q94.8808 379.32 96.6863 375.778 Q98.515 372.213 98.515 365.107 Q98.515 357.977 96.6863 354.436 Q94.8808 350.871 91.2465 350.871 M91.2465 347.167 Q97.0567 347.167 100.112 351.774 Q103.191 356.357 103.191 365.107 Q103.191 373.834 100.112 378.44 Q97.0567 383.023 91.2465 383.023 Q85.4364 383.023 82.3577 378.44 Q79.3022 373.834 79.3022 365.107 Q79.3022 356.357 82.3577 351.774 Q85.4364 347.167 91.2465 347.167 Z" fill="#000000" fill-rule="evenodd" fill-opacity="1" /><path clip-path="url(#clip390)" d="M 0 0 M118.26 350.871 Q114.649 350.871 112.82 354.436 Q111.015 357.977 111.015 365.107 Q111.015 372.213 112.82 375.778 Q114.649 379.32 118.26 379.32 Q121.895 379.32 123.7 375.778 Q125.529 372.213 125.529 365.107 Q125.529 357.977 123.7 354.436 Q121.895 350.871 118.26 350.871 M118.26 347.167 Q124.07 347.167 127.126 351.774 Q130.205 356.357 130.205 365.107 Q130.205 373.834 127.126 378.44 Q124.07 383.023 118.26 383.023 Q112.45 383.023 109.371 378.44 Q106.316 373.834 106.316 365.107 Q106.316 356.357 109.371 351.774 Q112.45 347.167 118.26 347.167 Z" fill="#000000" fill-rule="evenodd" fill-opacity="1" /><path clip-path="url(#clip390)" d="M 0 0 M697.458 18.8205 L697.458 65.8515 L707.342 65.8515 Q719.859 65.8515 725.652 60.1802 Q731.485 54.509 731.485 42.2752 Q731.485 30.1225 725.652 24.4918 Q719.859 18.8205 707.342 18.8205 L697.458 18.8205 M689.275 12.096 L706.086 12.096 Q723.667 12.096 731.891 19.4281 Q740.114 26.7198 740.114 42.2752 Q740.114 57.9117 731.85 65.2439 Q723.586 72.576 706.086 72.576 L689.275 72.576 L689.275 12.096 Z" fill="#000000" fill-rule="evenodd" fill-opacity="1" /><path clip-path="url(#clip390)" d="M 0 0 M768.551 49.7694 Q759.518 49.7694 756.034 51.8354 Q752.55 53.9013 752.55 58.8839 Q752.55 62.8538 755.143 65.2034 Q757.776 67.5124 762.272 67.5124 Q768.47 67.5124 772.197 63.1374 Q775.964 58.7219 775.964 51.4303 L775.964 49.7694 L768.551 49.7694 M783.418 46.6907 L783.418 72.576 L775.964 72.576 L775.964 65.6895 Q773.412 69.8214 769.604 71.8063 Q765.797 73.7508 760.287 73.7508 Q753.32 73.7508 749.188 69.8619 Q745.096 65.9325 745.096 59.3701 Q745.096 51.7138 750.201 47.825 Q755.345 43.9361 765.513 43.9361 L775.964 43.9361 L775.964 43.2069 Q775.964 38.0623 772.562 35.2672 Q769.199 32.4315 763.082 32.4315 Q759.194 32.4315 755.507 33.3632 Q751.821 34.295 748.418 36.1584 L748.418 29.2718 Q752.51 27.692 756.358 26.9223 Q760.206 26.1121 763.852 26.1121 Q773.696 26.1121 778.557 31.2163 Q783.418 36.3204 783.418 46.6907 Z" fill="#000000" fill-rule="evenodd" fill-opacity="1" /><path clip-path="url(#clip390)" d="M 0 0 M798.609 14.324 L798.609 27.2059 L813.962 27.2059 L813.962 32.9987 L798.609 32.9987 L798.609 57.6282 Q798.609 63.1779 800.108 64.7578 Q801.647 66.3376 806.306 66.3376 L813.962 66.3376 L813.962 72.576 L806.306 72.576 Q797.677 72.576 794.396 69.3758 Q791.115 66.1351 791.115 57.6282 L791.115 32.9987 L785.646 32.9987 L785.646 27.2059 L791.115 27.2059 L791.115 14.324 L798.609 14.324 Z" fill="#000000" fill-rule="evenodd" fill-opacity="1" /><path clip-path="url(#clip390)" d="M 0 0 M842.399 49.7694 Q833.366 49.7694 829.882 51.8354 Q826.398 53.9013 826.398 58.8839 Q826.398 62.8538 828.991 65.2034 Q831.624 67.5124 836.12 67.5124 Q842.318 67.5124 846.045 63.1374 Q849.812 58.7219 849.812 51.4303 L849.812 49.7694 L842.399 49.7694 M857.266 46.6907 L857.266 72.576 L849.812 72.576 L849.812 65.6895 Q847.26 69.8214 843.452 71.8063 Q839.645 73.7508 834.135 73.7508 Q827.168 73.7508 823.036 69.8619 Q818.944 65.9325 818.944 59.3701 Q818.944 51.7138 824.049 47.825 Q829.193 43.9361 839.361 43.9361 L849.812 43.9361 L849.812 43.2069 Q849.812 38.0623 846.41 35.2672 Q843.047 32.4315 836.93 32.4315 Q833.042 32.4315 829.355 33.3632 Q825.669 34.295 822.266 36.1584 L822.266 29.2718 Q826.358 27.692 830.206 26.9223 Q834.054 26.1121 837.7 26.1121 Q847.544 26.1121 852.405 31.2163 Q857.266 36.3204 857.266 46.6907 Z" fill="#000000" fill-rule="evenodd" fill-opacity="1" /><path clip-path="url(#clip390)" d="M 0 0 M912.075 49.7694 Q903.041 49.7694 899.557 51.8354 Q896.074 53.9013 896.074 58.8839 Q896.074 62.8538 898.666 65.2034 Q901.299 67.5124 905.796 67.5124 Q911.994 67.5124 915.721 63.1374 Q919.488 58.7219 919.488 51.4303 L919.488 49.7694 L912.075 49.7694 M926.942 46.6907 L926.942 72.576 L919.488 72.576 L919.488 65.6895 Q916.936 69.8214 913.128 71.8063 Q909.32 73.7508 903.811 73.7508 Q896.843 73.7508 892.711 69.8619 Q888.62 65.9325 888.62 59.3701 Q888.62 51.7138 893.724 47.825 Q898.869 43.9361 909.037 43.9361 L919.488 43.9361 L919.488 43.2069 Q919.488 38.0623 916.085 35.2672 Q912.723 32.4315 906.606 32.4315 Q902.717 32.4315 899.031 33.3632 Q895.345 34.295 891.942 36.1584 L891.942 29.2718 Q896.033 27.692 899.882 26.9223 Q903.73 26.1121 907.376 26.1121 Q917.219 26.1121 922.08 31.2163 Q926.942 36.3204 926.942 46.6907 Z" fill="#000000" fill-rule="evenodd" fill-opacity="1" /><path clip-path="url(#clip390)" d="M 0 0 M972.474 45.1919 L972.474 72.576 L965.02 72.576 L965.02 45.4349 Q965.02 38.994 962.508 35.7938 Q959.997 32.5936 954.974 32.5936 Q948.938 32.5936 945.454 36.4419 Q941.97 40.2903 941.97 46.9338 L941.97 72.576 L934.476 72.576 L934.476 27.2059 L941.97 27.2059 L941.97 34.2544 Q944.644 30.163 948.249 28.1376 Q951.895 26.1121 956.635 26.1121 Q964.453 26.1121 968.463 30.9732 Q972.474 35.7938 972.474 45.1919 Z" fill="#000000" fill-rule="evenodd" fill-opacity="1" /><path clip-path="url(#clip390)" d="M 0 0 M1010.15 34.0924 L1010.15 9.54393 L1017.6 9.54393 L1017.6 72.576 L1010.15 72.576 L1010.15 65.7705 Q1007.8 69.8214 1004.19 71.8063 Q1000.63 73.7508 995.604 73.7508 Q987.381 73.7508 982.196 67.1883 Q977.051 60.6258 977.051 49.9314 Q977.051 39.2371 982.196 32.6746 Q987.381 26.1121 995.604 26.1121 Q1000.63 26.1121 1004.19 28.0971 Q1007.8 30.0415 1010.15 34.0924 M984.748 49.9314 Q984.748 58.1548 988.11 62.8538 Q991.513 67.5124 997.427 67.5124 Q1003.34 67.5124 1006.74 62.8538 Q1010.15 58.1548 1010.15 49.9314 Q1010.15 41.7081 1006.74 37.0496 Q1003.34 32.3505 997.427 32.3505 Q991.513 32.3505 988.11 37.0496 Q984.748 41.7081 984.748 49.9314 Z" fill="#000000" fill-rule="evenodd" fill-opacity="1" /><path clip-path="url(#clip390)" d="M 0 0 M1043.73 12.096 L1094.89 12.096 L1094.89 18.9825 L1073.42 18.9825 L1073.42 72.576 L1065.2 72.576 L1065.2 18.9825 L1043.73 18.9825 L1043.73 12.096 Z" fill="#000000" fill-rule="evenodd" fill-opacity="1" /><path clip-path="url(#clip390)" d="M 0 0 M1116.81 34.1734 Q1115.55 33.4443 1114.05 33.1202 Q1112.59 32.7556 1110.81 32.7556 Q1104.49 32.7556 1101.09 36.8875 Q1097.73 40.9789 1097.73 48.6757 L1097.73 72.576 L1090.23 72.576 L1090.23 27.2059 L1097.73 27.2059 L1097.73 34.2544 Q1100.08 30.1225 1103.84 28.1376 Q1107.61 26.1121 1113 26.1121 Q1113.77 26.1121 1114.7 26.2337 Q1115.63 26.3147 1116.77 26.5172 L1116.81 34.1734 Z" fill="#000000" fill-rule="evenodd" fill-opacity="1" /><path clip-path="url(#clip390)" d="M 0 0 M1123.86 54.671 L1123.86 27.2059 L1131.31 27.2059 L1131.31 54.3874 Q1131.31 60.8284 1133.82 64.0691 Q1136.33 67.2693 1141.36 67.2693 Q1147.39 67.2693 1150.88 63.421 Q1154.4 59.5726 1154.4 52.9291 L1154.4 27.2059 L1161.85 27.2059 L1161.85 72.576 L1154.4 72.576 L1154.4 65.6084 Q1151.69 69.7404 1148.08 71.7658 Q1144.52 73.7508 1139.78 73.7508 Q1131.96 73.7508 1127.91 68.8897 Q1123.86 64.0286 1123.86 54.671 M1142.61 26.1121 L1142.61 26.1121 Z" fill="#000000" fill-rule="evenodd" fill-opacity="1" /><path clip-path="url(#clip390)" d="M 0 0 M1208.48 48.0275 L1208.48 51.6733 L1174.21 51.6733 Q1174.69 59.3701 1178.83 63.421 Q1183 67.4314 1190.41 67.4314 Q1194.71 67.4314 1198.72 66.3781 Q1202.77 65.3249 1206.74 63.2184 L1206.74 70.267 Q1202.73 71.9684 1198.51 72.8596 Q1194.3 73.7508 1189.97 73.7508 Q1179.11 73.7508 1172.75 67.4314 Q1166.43 61.1119 1166.43 50.3365 Q1166.43 39.1965 1172.43 32.6746 Q1178.46 26.1121 1188.67 26.1121 Q1197.83 26.1121 1203.13 32.0264 Q1208.48 37.9003 1208.48 48.0275 M1201.03 45.84 Q1200.94 39.7232 1197.58 36.0774 Q1194.26 32.4315 1188.75 32.4315 Q1182.51 32.4315 1178.75 35.9558 Q1175.02 39.4801 1174.45 45.8805 L1201.03 45.84 Z" fill="#000000" fill-rule="evenodd" fill-opacity="1" /><path clip-path="url(#clip390)" d="M 0 0 M1279.25 14.0809 L1279.25 22.0612 Q1274.59 19.8332 1270.46 18.7395 Q1266.33 17.6457 1262.48 17.6457 Q1255.79 17.6457 1252.15 20.2383 Q1248.54 22.8309 1248.54 27.611 Q1248.54 31.6214 1250.93 33.6873 Q1253.36 35.7128 1260.09 36.9686 L1265.03 37.9813 Q1274.19 39.7232 1278.52 44.1387 Q1282.89 48.5136 1282.89 55.8863 Q1282.89 64.6767 1276.98 69.2137 Q1271.11 73.7508 1259.72 73.7508 Q1255.43 73.7508 1250.57 72.7785 Q1245.75 71.8063 1240.56 69.9024 L1240.56 61.4765 Q1245.55 64.2716 1250.33 65.6895 Q1255.11 67.1073 1259.72 67.1073 Q1266.73 67.1073 1270.54 64.3527 Q1274.35 61.598 1274.35 56.4939 Q1274.35 52.0379 1271.59 49.5264 Q1268.88 47.0148 1262.64 45.759 L1257.66 44.7868 Q1248.5 42.9639 1244.41 39.075 Q1240.32 35.1862 1240.32 28.2591 Q1240.32 20.2383 1245.95 15.6203 Q1251.62 11.0023 1261.55 11.0023 Q1265.8 11.0023 1270.22 11.7719 Q1274.63 12.5416 1279.25 14.0809 Z" fill="#000000" fill-rule="evenodd" fill-opacity="1" /><path clip-path="url(#clip390)" d="M 0 0 M1298.09 14.324 L1298.09 27.2059 L1313.44 27.2059 L1313.44 32.9987 L1298.09 32.9987 L1298.09 57.6282 Q1298.09 63.1779 1299.58 64.7578 Q1301.12 66.3376 1305.78 66.3376 L1313.44 66.3376 L1313.44 72.576 L1305.78 72.576 Q1297.15 72.576 1293.87 69.3758 Q1290.59 66.1351 1290.59 57.6282 L1290.59 32.9987 L1285.12 32.9987 L1285.12 27.2059 L1290.59 27.2059 L1290.59 14.324 L1298.09 14.324 Z" fill="#000000" fill-rule="evenodd" fill-opacity="1" /><path clip-path="url(#clip390)" d="M 0 0 M1341.88 49.7694 Q1332.84 49.7694 1329.36 51.8354 Q1325.87 53.9013 1325.87 58.8839 Q1325.87 62.8538 1328.47 65.2034 Q1331.1 67.5124 1335.6 67.5124 Q1341.79 67.5124 1345.52 63.1374 Q1349.29 58.7219 1349.29 51.4303 L1349.29 49.7694 L1341.88 49.7694 M1356.74 46.6907 L1356.74 72.576 L1349.29 72.576 L1349.29 65.6895 Q1346.74 69.8214 1342.93 71.8063 Q1339.12 73.7508 1333.61 73.7508 Q1326.64 73.7508 1322.51 69.8619 Q1318.42 65.9325 1318.42 59.3701 Q1318.42 51.7138 1323.53 47.825 Q1328.67 43.9361 1338.84 43.9361 L1349.29 43.9361 L1349.29 43.2069 Q1349.29 38.0623 1345.89 35.2672 Q1342.52 32.4315 1336.41 32.4315 Q1332.52 32.4315 1328.83 33.3632 Q1325.15 34.295 1321.74 36.1584 L1321.74 29.2718 Q1325.83 27.692 1329.68 26.9223 Q1333.53 26.1121 1337.18 26.1121 Q1347.02 26.1121 1351.88 31.2163 Q1356.74 36.3204 1356.74 46.6907 Z" fill="#000000" fill-rule="evenodd" fill-opacity="1" /><path clip-path="url(#clip390)" d="M 0 0 M1371.93 14.324 L1371.93 27.2059 L1387.29 27.2059 L1387.29 32.9987 L1371.93 32.9987 L1371.93 57.6282 Q1371.93 63.1779 1373.43 64.7578 Q1374.97 66.3376 1379.63 66.3376 L1387.29 66.3376 L1387.29 72.576 L1379.63 72.576 Q1371 72.576 1367.72 69.3758 Q1364.44 66.1351 1364.44 57.6282 L1364.44 32.9987 L1358.97 32.9987 L1358.97 27.2059 L1364.44 27.2059 L1364.44 14.324 L1371.93 14.324 Z" fill="#000000" fill-rule="evenodd" fill-opacity="1" /><path clip-path="url(#clip390)" d="M 0 0 M1395.1 27.2059 L1402.56 27.2059 L1402.56 72.576 L1395.1 72.576 L1395.1 27.2059 M1395.1 9.54393 L1402.56 9.54393 L1402.56 18.9825 L1395.1 18.9825 L1395.1 9.54393 Z" fill="#000000" fill-rule="evenodd" fill-opacity="1" /><path clip-path="url(#clip390)" d="M 0 0 M1439.3 28.5427 L1439.3 35.5912 Q1436.14 33.9709 1432.74 33.1607 Q1429.33 32.3505 1425.69 32.3505 Q1420.14 32.3505 1417.34 34.0519 Q1414.59 35.7533 1414.59 39.156 Q1414.59 41.7486 1416.57 43.2475 Q1418.56 44.7058 1424.55 46.0426 L1427.11 46.6097 Q1435.05 48.3111 1438.37 51.4303 Q1441.73 54.509 1441.73 60.0587 Q1441.73 66.3781 1436.71 70.0644 Q1431.72 73.7508 1422.97 73.7508 Q1419.33 73.7508 1415.36 73.0216 Q1411.43 72.3329 1407.05 70.9151 L1407.05 63.2184 Q1411.19 65.3654 1415.2 66.4591 Q1419.21 67.5124 1423.14 67.5124 Q1428.4 67.5124 1431.24 65.73 Q1434.07 63.9071 1434.07 60.6258 Q1434.07 57.5877 1432.01 55.9673 Q1429.98 54.3469 1423.06 52.8481 L1420.46 52.2405 Q1413.54 50.7821 1410.46 47.7845 Q1407.38 44.7463 1407.38 39.4801 Q1407.38 33.0797 1411.92 29.5959 Q1416.45 26.1121 1424.8 26.1121 Q1428.93 26.1121 1432.58 26.7198 Q1436.22 27.3274 1439.3 28.5427 Z" fill="#000000" fill-rule="evenodd" fill-opacity="1" /><path clip-path="url(#clip390)" d="M 0 0 M1456.92 14.324 L1456.92 27.2059 L1472.27 27.2059 L1472.27 32.9987 L1456.92 32.9987 L1456.92 57.6282 Q1456.92 63.1779 1458.42 64.7578 Q1459.96 66.3376 1464.62 66.3376 L1472.27 66.3376 L1472.27 72.576 L1464.62 72.576 Q1455.99 72.576 1452.71 69.3758 Q1449.43 66.1351 1449.43 57.6282 L1449.43 32.9987 L1443.96 32.9987 L1443.96 27.2059 L1449.43 27.2059 L1449.43 14.324 L1456.92 14.324 Z" fill="#000000" fill-rule="evenodd" fill-opacity="1" /><path clip-path="url(#clip390)" d="M 0 0 M1480.09 27.2059 L1487.55 27.2059 L1487.55 72.576 L1480.09 72.576 L1480.09 27.2059 M1480.09 9.54393 L1487.55 9.54393 L1487.55 18.9825 L1480.09 18.9825 L1480.09 9.54393 Z" fill="#000000" fill-rule="evenodd" fill-opacity="1" /><path clip-path="url(#clip390)" d="M 0 0 M1528.01 28.9478 L1528.01 35.9153 Q1524.86 34.1734 1521.65 33.3227 Q1518.5 32.4315 1515.25 32.4315 Q1508 32.4315 1503.99 37.0496 Q1499.98 41.6271 1499.98 49.9314 Q1499.98 58.2358 1503.99 62.8538 Q1508 67.4314 1515.25 67.4314 Q1518.5 67.4314 1521.65 66.5807 Q1524.86 65.6895 1528.01 63.9476 L1528.01 70.8341 Q1524.9 72.2924 1521.53 73.0216 Q1518.21 73.7508 1514.44 73.7508 Q1504.2 73.7508 1498.16 67.3098 Q1492.12 60.8689 1492.12 49.9314 Q1492.12 38.832 1498.2 32.472 Q1504.32 26.1121 1514.93 26.1121 Q1518.37 26.1121 1521.65 26.8413 Q1524.94 27.5299 1528.01 28.9478 Z" fill="#000000" fill-rule="evenodd" fill-opacity="1" /><path clip-path="url(#clip390)" d="M 0 0 M1556.45 49.7694 Q1547.42 49.7694 1543.93 51.8354 Q1540.45 53.9013 1540.45 58.8839 Q1540.45 62.8538 1543.04 65.2034 Q1545.68 67.5124 1550.17 67.5124 Q1556.37 67.5124 1560.1 63.1374 Q1563.87 58.7219 1563.87 51.4303 L1563.87 49.7694 L1556.45 49.7694 M1571.32 46.6907 L1571.32 72.576 L1563.87 72.576 L1563.87 65.6895 Q1561.31 69.8214 1557.51 71.8063 Q1553.7 73.7508 1548.19 73.7508 Q1541.22 73.7508 1537.09 69.8619 Q1533 65.9325 1533 59.3701 Q1533 51.7138 1538.1 47.825 Q1543.25 43.9361 1553.41 43.9361 L1563.87 43.9361 L1563.87 43.2069 Q1563.87 38.0623 1560.46 35.2672 Q1557.1 32.4315 1550.98 32.4315 Q1547.09 32.4315 1543.41 33.3632 Q1539.72 34.295 1536.32 36.1584 L1536.32 29.2718 Q1540.41 27.692 1544.26 26.9223 Q1548.11 26.1121 1551.75 26.1121 Q1561.6 26.1121 1566.46 31.2163 Q1571.32 36.3204 1571.32 46.6907 Z" fill="#000000" fill-rule="evenodd" fill-opacity="1" /><path clip-path="url(#clip390)" d="M 0 0 M1579.14 9.54393 L1586.59 9.54393 L1586.59 72.576 L1579.14 72.576 L1579.14 9.54393 Z" fill="#000000" fill-rule="evenodd" fill-opacity="1" /><path clip-path="url(#clip390)" d="M 0 0 M1621.1 12.096 L1633.3 12.096 L1648.73 53.2532 L1664.25 12.096 L1676.44 12.096 L1676.44 72.576 L1668.46 72.576 L1668.46 19.4686 L1652.86 60.9499 L1644.64 60.9499 L1629.04 19.4686 L1629.04 72.576 L1621.1 72.576 L1621.1 12.096 Z" fill="#000000" fill-rule="evenodd" fill-opacity="1" /><path clip-path="url(#clip390)" d="M 0 0 M1701.84 32.4315 Q1695.84 32.4315 1692.36 37.1306 Q1688.88 41.7891 1688.88 49.9314 Q1688.88 58.0738 1692.32 62.7728 Q1695.8 67.4314 1701.84 67.4314 Q1707.79 67.4314 1711.28 62.7323 Q1714.76 58.0333 1714.76 49.9314 Q1714.76 41.8701 1711.28 37.1711 Q1707.79 32.4315 1701.84 32.4315 M1701.84 26.1121 Q1711.56 26.1121 1717.11 32.4315 Q1722.66 38.7509 1722.66 49.9314 Q1722.66 61.0714 1717.11 67.4314 Q1711.56 73.7508 1701.84 73.7508 Q1692.08 73.7508 1686.53 67.4314 Q1681.02 61.0714 1681.02 49.9314 Q1681.02 38.7509 1686.53 32.4315 Q1692.08 26.1121 1701.84 26.1121 Z" fill="#000000" fill-rule="evenodd" fill-opacity="1" /><path clip-path="url(#clip390)" d="M 0 0 M1760.33 34.0924 L1760.33 9.54393 L1767.79 9.54393 L1767.79 72.576 L1760.33 72.576 L1760.33 65.7705 Q1757.98 69.8214 1754.38 71.8063 Q1750.81 73.7508 1745.79 73.7508 Q1737.57 73.7508 1732.38 67.1883 Q1727.24 60.6258 1727.24 49.9314 Q1727.24 39.2371 1732.38 32.6746 Q1737.57 26.1121 1745.79 26.1121 Q1750.81 26.1121 1754.38 28.0971 Q1757.98 30.0415 1760.33 34.0924 M1734.93 49.9314 Q1734.93 58.1548 1738.3 62.8538 Q1741.7 67.5124 1747.61 67.5124 Q1753.53 67.5124 1756.93 62.8538 Q1760.33 58.1548 1760.33 49.9314 Q1760.33 41.7081 1756.93 37.0496 Q1753.53 32.3505 1747.61 32.3505 Q1741.7 32.3505 1738.3 37.0496 Q1734.93 41.7081 1734.93 49.9314 Z" fill="#000000" fill-rule="evenodd" fill-opacity="1" /><path clip-path="url(#clip390)" d="M 0 0 M1814.41 48.0275 L1814.41 51.6733 L1780.14 51.6733 Q1780.63 59.3701 1784.76 63.421 Q1788.93 67.4314 1796.35 67.4314 Q1800.64 67.4314 1804.65 66.3781 Q1808.7 65.3249 1812.67 63.2184 L1812.67 70.267 Q1808.66 71.9684 1804.45 72.8596 Q1800.24 73.7508 1795.9 73.7508 Q1785.04 73.7508 1778.68 67.4314 Q1772.37 61.1119 1772.37 50.3365 Q1772.37 39.1965 1778.36 32.6746 Q1784.4 26.1121 1794.6 26.1121 Q1803.76 26.1121 1809.07 32.0264 Q1814.41 37.9003 1814.41 48.0275 M1806.96 45.84 Q1806.88 39.7232 1803.52 36.0774 Q1800.19 32.4315 1794.69 32.4315 Q1788.45 32.4315 1784.68 35.9558 Q1780.95 39.4801 1780.39 45.8805 L1806.96 45.84 Z" fill="#000000" fill-rule="evenodd" fill-opacity="1" /><path clip-path="url(#clip390)" d="M 0 0 M1822.23 9.54393 L1829.69 9.54393 L1829.69 72.576 L1822.23 72.576 L1822.23 9.54393 Z" fill="#000000" fill-rule="evenodd" fill-opacity="1" /><polyline clip-path="url(#clip392)" style="stroke:#009af9; stroke-width:4; stroke-opacity:1; fill:none" points="
  743.784,1447.87 743.784,1326.06 769.569,1326.06 795.354,1326.06 795.354,1353.13 821.139,1353.13 821.139,1244.85 846.923,1244.85 846.923,1163.64 
  872.708,1163.64 872.708,1123.03 898.493,1123.03 898.493,838.798 924.278,838.798 924.278,1028.29 950.063,1028.29 950.063,987.683 975.847,987.683 975.847,920.008 
  1001.63,920.008 1001.63,987.683 1027.42,987.683 1027.42,865.868 1053.2,865.868 1053.2,974.148 1078.99,974.148 1078.99,960.613 1104.77,960.613 1104.77,1109.5 
  1130.56,1109.5 1130.56,1136.57 1156.34,1136.57 1156.34,1285.45 1182.13,1285.45 1182.13,1204.24 1207.91,1204.24 1207.91,1298.99 1233.7,1298.99 1233.7,1366.66 
  1259.48,1366.66 1259.48,1434.34 1285.27,1434.34 1285.27,1380.2 1311.05,1380.2 1311.05,1420.8 1336.83,1420.8 1336.83,1447.87 1362.62,1447.87 1362.62,1420.8 
  1388.4,1420.8 1414.19,1420.8 1414.19,1407.27 1439.97,1407.27 1439.97,1420.8 1465.76,1420.8 1465.76,1393.73 1491.54,1393.73 1491.54,1366.66 
  1517.33,1366.66 1517.33,1312.52 1543.11,1312.52 1543.11,1177.17 1568.9,1177.17 1568.9,1082.43 1594.68,1082.43 1594.68,974.148 1620.47,974.148 1620.47,852.333 
  1646.25,852.333 1646.25,757.587 1672.04,757.587 1672.04,744.052 1697.82,744.052 1697.82,527.492 1723.61,527.492 1723.61,486.887 1749.39,486.887 1749.39,229.722 
  1775.18,229.722 1775.18,162.047 1800.96,162.047 1800.96,581.632 1826.75,581.632 1826.75,513.957 1852.53,513.957 1852.53,554.562 1878.32,554.562 1878.32,744.052 
  1904.1,744.052 1904.1,960.613 1929.89,960.613 1929.89,974.148 1955.67,974.148 1955.67,1001.22 1981.45,1001.22 1981.45,1150.1 2007.24,1150.1 2007.24,1271.92 
  2033.02,1271.92 2033.02,1326.06 2058.81,1326.06 2058.81,1366.66 2084.59,1366.66 2084.59,1339.59 2110.38,1339.59 2110.38,1393.73 2136.16,1393.73 2136.16,1447.87 
  2161.95,1447.87 2161.95,1434.34 2187.73,1434.34 2213.52,1434.34 2213.52,1447.87 2239.3,1447.87 2265.09,1447.87 
  2290.87,1447.87 
  "/>
<polyline clip-path="url(#clip392)" style="stroke:#e26f46; stroke-width:4; stroke-opacity:1; fill:none" points="
  228.088,1447.87 230.667,1447.87 233.245,1447.87 235.824,1447.87 238.402,1447.87 240.981,1447.87 243.559,1447.87 246.138,1447.87 248.716,1447.87 251.295,1447.87 
  253.873,1447.87 256.451,1447.87 259.03,1447.87 261.608,1447.87 264.187,1447.87 266.765,1447.87 269.344,1447.87 271.922,1447.87 274.501,1447.87 277.079,1447.87 
  279.658,1447.87 282.236,1447.87 284.815,1447.87 287.393,1447.87 289.972,1447.87 292.55,1447.87 295.129,1447.87 297.707,1447.87 300.286,1447.87 302.864,1447.87 
  305.443,1447.87 308.021,1447.87 310.6,1447.87 313.178,1447.87 315.757,1447.87 318.335,1447.87 320.913,1447.87 323.492,1447.87 326.07,1447.87 328.649,1447.87 
  331.227,1447.87 333.806,1447.87 336.384,1447.87 338.963,1447.87 341.541,1447.87 344.12,1447.87 346.698,1447.87 349.277,1447.87 351.855,1447.87 354.434,1447.87 
  357.012,1447.87 359.591,1447.87 362.169,1447.87 364.748,1447.87 367.326,1447.87 369.905,1447.87 372.483,1447.87 375.062,1447.87 377.64,1447.87 380.219,1447.87 
  382.797,1447.87 385.375,1447.87 387.954,1447.87 390.532,1447.87 393.111,1447.87 395.689,1447.86 398.268,1447.86 400.846,1447.86 403.425,1447.86 406.003,1447.86 
  408.582,1447.86 411.16,1447.86 413.739,1447.86 416.317,1447.86 418.896,1447.85 421.474,1447.85 424.053,1447.85 426.631,1447.85 429.21,1447.84 431.788,1447.84 
  434.367,1447.84 436.945,1447.84 439.524,1447.83 442.102,1447.83 444.681,1447.83 447.259,1447.82 449.837,1447.82 452.416,1447.81 454.994,1447.81 457.573,1447.8 
  460.151,1447.79 462.73,1447.79 465.308,1447.78 467.887,1447.77 470.465,1447.76 473.044,1447.75 475.622,1447.74 478.201,1447.73 480.779,1447.72 483.358,1447.71 
  485.936,1447.69 488.515,1447.68 491.093,1447.66 493.672,1447.64 496.25,1447.62 498.829,1447.6 501.407,1447.58 503.986,1447.56 506.564,1447.53 509.143,1447.51 
  511.721,1447.48 514.299,1447.45 516.878,1447.41 519.456,1447.38 522.035,1447.34 524.613,1447.3 527.192,1447.25 529.77,1447.21 532.349,1447.16 534.927,1447.1 
  537.506,1447.04 540.084,1446.98 542.663,1446.92 545.241,1446.85 547.82,1446.77 550.398,1446.69 552.977,1446.61 555.555,1446.52 558.134,1446.42 560.712,1446.32 
  563.291,1446.21 565.869,1446.09 568.448,1445.96 571.026,1445.83 573.605,1445.69 576.183,1445.54 578.762,1445.38 581.34,1445.21 583.918,1445.04 586.497,1444.85 
  589.075,1444.65 591.654,1444.43 594.232,1444.21 596.811,1443.97 599.389,1443.72 601.968,1443.45 604.546,1443.17 607.125,1442.87 609.703,1442.56 612.282,1442.23 
  614.86,1441.87 617.439,1441.5 620.017,1441.12 622.596,1440.7 625.174,1440.27 627.753,1439.82 630.331,1439.34 632.91,1438.83 635.488,1438.3 638.067,1437.75 
  640.645,1437.16 643.224,1436.54 645.802,1435.9 648.38,1435.22 650.959,1434.51 653.537,1433.77 656.116,1432.99 658.694,1432.17 661.273,1431.32 663.851,1430.42 
  666.43,1429.49 669.008,1428.51 671.587,1427.49 674.165,1426.42 676.744,1425.31 679.322,1424.15 681.901,1422.94 684.479,1421.67 687.058,1420.36 689.636,1418.99 
  692.215,1417.56 694.793,1416.08 697.372,1414.53 699.95,1412.93 702.529,1411.26 705.107,1409.53 707.686,1407.74 710.264,1405.87 712.842,1403.94 715.421,1401.93 
  717.999,1399.86 720.578,1397.71 723.156,1395.48 725.735,1393.18 728.313,1390.8 730.892,1388.34 733.47,1385.8 736.049,1383.18 738.627,1380.47 741.206,1377.68 
  743.784,1374.8 746.363,1371.83 748.941,1368.77 751.52,1365.63 754.098,1362.39 756.677,1359.06 759.255,1355.64 761.834,1352.13 764.412,1348.52 766.991,1344.81 
  769.569,1341.01 772.148,1337.12 774.726,1333.13 777.304,1329.04 779.883,1324.86 782.461,1320.58 785.04,1316.2 787.618,1311.73 790.197,1307.16 792.775,1302.5 
  795.354,1297.74 797.932,1292.89 800.511,1287.95 803.089,1282.91 805.668,1277.79 808.246,1272.57 810.825,1267.27 813.403,1261.88 815.982,1256.41 818.56,1250.85 
  821.139,1245.22 823.717,1239.5 826.296,1233.72 828.874,1227.85 831.453,1221.92 834.031,1215.93 836.61,1209.86 839.188,1203.74 841.766,1197.56 844.345,1191.33 
  846.923,1185.04 849.502,1178.71 852.08,1172.34 854.659,1165.93 857.237,1159.48 859.816,1153.01 862.394,1146.51 864.973,1139.99 867.551,1133.46 870.13,1126.91 
  872.708,1120.37 875.287,1113.82 877.865,1107.27 880.444,1100.74 883.022,1094.22 885.601,1087.73 888.179,1081.26 890.758,1074.82 893.336,1068.43 895.915,1062.08 
  898.493,1055.78 901.072,1049.53 903.65,1043.35 906.228,1037.24 908.807,1031.2 911.385,1025.24 913.964,1019.36 916.542,1013.58 919.121,1007.9 921.699,1002.32 
  924.278,996.853 926.856,991.5 929.435,986.267 932.013,981.161 934.592,976.188 937.17,971.352 939.749,966.659 942.327,962.115 944.906,957.723 947.484,953.49 
  950.063,949.419 952.641,945.516 955.22,941.785 957.798,938.23 960.377,934.855 962.955,931.664 965.534,928.661 968.112,925.85 970.69,923.234 973.269,920.815 
  975.847,918.596 978.426,916.581 981.004,914.772 983.583,913.17 986.161,911.778 988.74,910.597 991.318,909.629 993.897,908.875 996.475,908.336 999.054,908.012 
  1001.63,907.904 1004.21,908.012 1006.79,908.336 1009.37,908.875 1011.95,909.629 1014.52,910.597 1017.1,911.778 1019.68,913.17 1022.26,914.772 1024.84,916.581 
  1027.42,918.596 1030,920.815 1032.57,923.233 1035.15,925.85 1037.73,928.661 1040.31,931.664 1042.89,934.855 1045.47,938.229 1048.04,941.784 1050.62,945.516 
  1053.2,949.419 1055.78,953.489 1058.36,957.723 1060.94,962.114 1063.52,966.659 1066.09,971.352 1068.67,976.188 1071.25,981.161 1073.83,986.267 1076.41,991.499 
  1078.99,996.853 1081.57,1002.32 1084.14,1007.9 1086.72,1013.58 1089.3,1019.36 1091.88,1025.24 1094.46,1031.2 1097.04,1037.23 1099.61,1043.35 1102.19,1049.53 
  1104.77,1055.77 1107.35,1062.07 1109.93,1068.43 1112.51,1074.82 1115.09,1081.26 1117.66,1087.72 1120.24,1094.22 1122.82,1100.74 1125.4,1107.27 1127.98,1113.81 
  1130.56,1120.36 1133.13,1126.91 1135.71,1133.45 1138.29,1139.99 1140.87,1146.51 1143.45,1153 1146.03,1159.48 1148.61,1165.92 1151.18,1172.33 1153.76,1178.7 
  1156.34,1185.03 1158.92,1191.31 1161.5,1197.55 1164.08,1203.73 1166.65,1209.85 1169.23,1215.91 1171.81,1221.9 1174.39,1227.83 1176.97,1233.69 1179.55,1239.48 
  1182.13,1245.19 1184.7,1250.82 1187.28,1256.37 1189.86,1261.84 1192.44,1267.23 1195.02,1272.53 1197.6,1277.74 1200.18,1282.86 1202.75,1287.89 1205.33,1292.83 
  1207.91,1297.67 1210.49,1302.43 1213.07,1307.08 1215.65,1311.64 1218.22,1316.11 1220.8,1320.47 1223.38,1324.74 1225.96,1328.92 1228.54,1332.99 1231.12,1336.97 
  1233.7,1340.85 1236.27,1344.64 1238.85,1348.33 1241.43,1351.92 1244.01,1355.42 1246.59,1358.82 1249.17,1362.13 1251.74,1365.34 1254.32,1368.46 1256.9,1371.49 
  1259.48,1374.43 1262.06,1377.28 1264.64,1380.04 1267.22,1382.72 1269.79,1385.3 1272.37,1387.8 1274.95,1390.22 1277.53,1392.55 1280.11,1394.8 1282.69,1396.98 
  1285.27,1399.07 1287.84,1401.08 1290.42,1403.02 1293,1404.88 1295.58,1406.67 1298.16,1408.38 1300.74,1410.03 1303.31,1411.6 1305.89,1413.1 1308.47,1414.54 
  1311.05,1415.91 1313.63,1417.21 1316.21,1418.45 1318.79,1419.62 1321.36,1420.73 1323.94,1421.79 1326.52,1422.78 1329.1,1423.71 1331.68,1424.58 1334.26,1425.4 
  1336.83,1426.15 1339.41,1426.85 1341.99,1427.5 1344.57,1428.09 1347.15,1428.62 1349.73,1429.11 1352.31,1429.53 1354.88,1429.91 1357.46,1430.23 1360.04,1430.49 
  1362.62,1430.71 1365.2,1430.87 1367.78,1430.97 1370.35,1431.03 1372.93,1431.03 1375.51,1430.97 1378.09,1430.86 1380.67,1430.7 1383.25,1430.48 1385.83,1430.21 
  1388.4,1429.88 1390.98,1429.49 1393.56,1429.04 1396.14,1428.53 1398.72,1427.97 1401.3,1427.34 1403.88,1426.65 1406.45,1425.89 1409.03,1425.07 1411.61,1424.18 
  1414.19,1423.22 1416.77,1422.19 1419.35,1421.09 1421.92,1419.91 1424.5,1418.66 1427.08,1417.33 1429.66,1415.92 1432.24,1414.43 1434.82,1412.85 1437.4,1411.19 
  1439.97,1409.44 1442.55,1407.59 1445.13,1405.65 1447.71,1403.62 1450.29,1401.48 1452.87,1399.24 1455.44,1396.9 1458.02,1394.45 1460.6,1391.89 1463.18,1389.21 
  1465.76,1386.42 1468.34,1383.51 1470.92,1380.48 1473.49,1377.32 1476.07,1374.03 1478.65,1370.62 1481.23,1367.06 1483.81,1363.37 1486.39,1359.54 1488.97,1355.57 
  1491.54,1351.45 1494.12,1347.18 1496.7,1342.75 1499.28,1338.18 1501.86,1333.44 1504.44,1328.54 1507.01,1323.48 1509.59,1318.25 1512.17,1312.85 1514.75,1307.28 
  1517.33,1301.54 1519.91,1295.62 1522.49,1289.52 1525.06,1283.24 1527.64,1276.78 1530.22,1270.13 1532.8,1263.3 1535.38,1256.28 1537.96,1249.07 1540.53,1241.67 
  1543.11,1234.08 1545.69,1226.29 1548.27,1218.32 1550.85,1210.15 1553.43,1201.78 1556.01,1193.23 1558.58,1184.48 1561.16,1175.54 1563.74,1166.41 1566.32,1157.09 
  1568.9,1147.58 1571.48,1137.88 1574.05,1127.99 1576.63,1117.92 1579.21,1107.67 1581.79,1097.25 1584.37,1086.64 1586.95,1075.87 1589.53,1064.92 1592.1,1053.82 
  1594.68,1042.55 1597.26,1031.12 1599.84,1019.55 1602.42,1007.83 1605,995.965 1607.58,983.969 1610.15,971.846 1612.73,959.601 1615.31,947.241 1617.89,934.773 
  1620.47,922.206 1623.05,909.545 1625.62,896.8 1628.2,883.979 1630.78,871.091 1633.36,858.143 1635.94,845.147 1638.52,832.11 1641.1,819.042 1643.67,805.954 
  1646.25,792.856 1648.83,779.757 1651.41,766.67 1653.99,753.603 1656.57,740.569 1659.14,727.578 1661.72,714.643 1664.3,701.773 1666.88,688.981 1669.46,676.278 
  1672.04,663.677 1674.62,651.188 1677.19,638.824 1679.77,626.597 1682.35,614.518 1684.93,602.6 1687.51,590.855 1690.09,579.294 1692.66,567.928 1695.24,556.771 
  1697.82,545.833 1700.4,535.126 1702.98,524.661 1705.56,514.45 1708.14,504.503 1710.71,494.831 1713.29,485.446 1715.87,476.356 1718.45,467.573 1721.03,459.106 
  1723.61,450.965 1726.19,443.159 1728.76,435.696 1731.34,428.586 1733.92,421.836 1736.5,415.455 1739.08,409.45 1741.66,403.827 1744.23,398.594 1746.81,393.756 
  1749.39,389.32 1751.97,385.289 1754.55,381.67 1757.13,378.467 1759.71,375.683 1762.28,373.322 1764.86,371.386 1767.44,369.877 1770.02,368.799 1772.6,368.151 
  1775.18,367.935 1777.75,368.151 1780.33,368.799 1782.91,369.877 1785.49,371.386 1788.07,373.322 1790.65,375.683 1793.23,378.467 1795.8,381.67 1798.38,385.289 
  1800.96,389.32 1803.54,393.756 1806.12,398.594 1808.7,403.827 1811.28,409.45 1813.85,415.455 1816.43,421.837 1819.01,428.586 1821.59,435.696 1824.17,443.159 
  1826.75,450.965 1829.32,459.106 1831.9,467.573 1834.48,476.356 1837.06,485.446 1839.64,494.831 1842.22,504.503 1844.8,514.45 1847.37,524.661 1849.95,535.126 
  1852.53,545.833 1855.11,556.771 1857.69,567.929 1860.27,579.294 1862.84,590.855 1865.42,602.601 1868,614.519 1870.58,626.598 1873.16,638.825 1875.74,651.189 
  1878.32,663.677 1880.89,676.279 1883.47,688.982 1886.05,701.774 1888.63,714.644 1891.21,727.58 1893.79,740.57 1896.36,753.605 1898.94,766.671 1901.52,779.759 
  1904.1,792.858 1906.68,805.956 1909.26,819.045 1911.84,832.112 1914.41,845.15 1916.99,858.147 1919.57,871.094 1922.15,883.983 1924.73,896.805 1927.31,909.55 
  1929.89,922.211 1932.46,934.779 1935.04,947.247 1937.62,959.608 1940.2,971.854 1942.78,983.978 1945.36,995.974 1947.93,1007.84 1950.51,1019.56 1953.09,1031.13 
  1955.67,1042.56 1958.25,1053.83 1960.83,1064.94 1963.41,1075.89 1965.98,1086.66 1968.56,1097.27 1971.14,1107.7 1973.72,1117.95 1976.3,1128.02 1978.88,1137.91 
  1981.45,1147.61 1984.03,1157.12 1986.61,1166.45 1989.19,1175.59 1991.77,1184.53 1994.35,1193.28 1996.93,1201.84 1999.5,1210.21 2002.08,1218.38 2004.66,1226.37 
  2007.24,1234.15 2009.82,1241.75 2012.4,1249.16 2014.97,1256.38 2017.55,1263.41 2020.13,1270.25 2022.71,1276.91 2025.29,1283.38 2027.87,1289.67 2030.45,1295.79 
  2033.02,1301.72 2035.6,1307.48 2038.18,1313.06 2040.76,1318.48 2043.34,1323.73 2045.92,1328.81 2048.5,1333.73 2051.07,1338.49 2053.65,1343.09 2056.23,1347.54 
  2058.81,1351.84 2061.39,1356 2063.97,1360 2066.54,1363.87 2069.12,1367.6 2071.7,1371.19 2074.28,1374.65 2076.86,1377.99 2079.44,1381.2 2082.02,1384.28 
  2084.59,1387.25 2087.17,1390.1 2089.75,1392.84 2092.33,1395.48 2094.91,1398 2097.49,1400.42 2100.06,1402.75 2102.64,1404.97 2105.22,1407.11 2107.8,1409.15 
  2110.38,1411.1 2112.96,1412.97 2115.54,1414.76 2118.11,1416.47 2120.69,1418.1 2123.27,1419.66 2125.85,1421.15 2128.43,1422.57 2131.01,1423.93 2133.59,1425.22 
  2136.16,1426.45 2138.74,1427.62 2141.32,1428.73 2143.9,1429.79 2146.48,1430.8 2149.06,1431.76 2151.63,1432.67 2154.21,1433.54 2156.79,1434.36 2159.37,1435.14 
  2161.95,1435.88 2164.53,1436.58 2167.11,1437.24 2169.68,1437.87 2172.26,1438.47 2174.84,1439.03 2177.42,1439.56 2180,1440.07 2182.58,1440.54 2185.15,1440.99 
  2187.73,1441.42 2190.31,1441.82 2192.89,1442.2 2195.47,1442.56 2198.05,1442.89 2200.63,1443.21 2203.2,1443.51 2205.78,1443.79 2208.36,1444.05 2210.94,1444.3 
  2213.52,1444.54 2216.1,1444.76 2218.67,1444.96 2221.25,1445.16 2223.83,1445.34 2226.41,1445.51 2228.99,1445.67 2231.57,1445.82 2234.15,1445.96 2236.72,1446.09 
  2239.3,1446.22 2241.88,1446.33 2244.46,1446.44 2247.04,1446.54 2249.62,1446.64 2252.2,1446.72 2254.77,1446.81 2257.35,1446.88 2259.93,1446.95 2262.51,1447.02 
  2265.09,1447.08 2267.67,1447.14 2270.24,1447.19 2272.82,1447.25 2275.4,1447.29 2277.98,1447.34 2280.56,1447.38 2283.14,1447.41 2285.72,1447.45 2288.29,1447.48 
  2290.87,1447.51 
  "/>
<path clip-path="url(#clip390)" d="
M1925.95 350.345 L2279.87 350.345 L2279.87 168.905 L1925.95 168.905  Z
  " fill="#ffffff" fill-rule="evenodd" fill-opacity="1"/>
<polyline clip-path="url(#clip390)" style="stroke:#000000; stroke-width:4; stroke-opacity:1; fill:none" points="
  1925.95,350.345 2279.87,350.345 2279.87,168.905 1925.95,168.905 1925.95,350.345 
  "/>
<polyline clip-path="url(#clip390)" style="stroke:#009af9; stroke-width:4; stroke-opacity:1; fill:none" points="
  1950.24,229.385 2096.01,229.385 
  "/>
<path clip-path="url(#clip390)" d="M 0 0 M2124.99 215.947 L2124.99 242.822 L2130.63 242.822 Q2137.79 242.822 2141.1 239.581 Q2144.43 236.341 2144.43 229.35 Q2144.43 222.406 2141.1 219.188 Q2137.79 215.947 2130.63 215.947 L2124.99 215.947 M2120.31 212.105 L2129.92 212.105 Q2139.96 212.105 2144.66 216.294 Q2149.36 220.461 2149.36 229.35 Q2149.36 238.285 2144.64 242.475 Q2139.92 246.665 2129.92 246.665 L2120.31 246.665 L2120.31 212.105 Z" fill="#000000" fill-rule="evenodd" fill-opacity="1" /><path clip-path="url(#clip390)" d="M 0 0 M2165.61 233.632 Q2160.45 233.632 2158.46 234.813 Q2156.47 235.993 2156.47 238.841 Q2156.47 241.109 2157.95 242.452 Q2159.45 243.771 2162.02 243.771 Q2165.56 243.771 2167.69 241.271 Q2169.85 238.748 2169.85 234.581 L2169.85 233.632 L2165.61 233.632 M2174.11 231.873 L2174.11 246.665 L2169.85 246.665 L2169.85 242.729 Q2168.39 245.091 2166.21 246.225 Q2164.04 247.336 2160.89 247.336 Q2156.91 247.336 2154.55 245.114 Q2152.21 242.868 2152.21 239.118 Q2152.21 234.743 2155.12 232.521 Q2158.06 230.299 2163.87 230.299 L2169.85 230.299 L2169.85 229.882 Q2169.85 226.943 2167.9 225.345 Q2165.98 223.725 2162.48 223.725 Q2160.26 223.725 2158.16 224.257 Q2156.05 224.79 2154.11 225.855 L2154.11 221.919 Q2156.44 221.017 2158.64 220.577 Q2160.84 220.114 2162.92 220.114 Q2168.55 220.114 2171.33 223.031 Q2174.11 225.947 2174.11 231.873 Z" fill="#000000" fill-rule="evenodd" fill-opacity="1" /><path clip-path="url(#clip390)" d="M 0 0 M2182.79 213.378 L2182.79 220.739 L2191.56 220.739 L2191.56 224.049 L2182.79 224.049 L2182.79 238.123 Q2182.79 241.294 2183.64 242.197 Q2184.52 243.1 2187.18 243.1 L2191.56 243.1 L2191.56 246.665 L2187.18 246.665 Q2182.25 246.665 2180.38 244.836 Q2178.5 242.984 2178.5 238.123 L2178.5 224.049 L2175.38 224.049 L2175.38 220.739 L2178.5 220.739 L2178.5 213.378 L2182.79 213.378 Z" fill="#000000" fill-rule="evenodd" fill-opacity="1" /><path clip-path="url(#clip390)" d="M 0 0 M2207.81 233.632 Q2202.65 233.632 2200.66 234.813 Q2198.67 235.993 2198.67 238.841 Q2198.67 241.109 2200.15 242.452 Q2201.65 243.771 2204.22 243.771 Q2207.76 243.771 2209.89 241.271 Q2212.04 238.748 2212.04 234.581 L2212.04 233.632 L2207.81 233.632 M2216.3 231.873 L2216.3 246.665 L2212.04 246.665 L2212.04 242.729 Q2210.59 245.091 2208.41 246.225 Q2206.23 247.336 2203.09 247.336 Q2199.11 247.336 2196.74 245.114 Q2194.41 242.868 2194.41 239.118 Q2194.41 234.743 2197.32 232.521 Q2200.26 230.299 2206.07 230.299 L2212.04 230.299 L2212.04 229.882 Q2212.04 226.943 2210.1 225.345 Q2208.18 223.725 2204.68 223.725 Q2202.46 223.725 2200.36 224.257 Q2198.25 224.79 2196.3 225.855 L2196.3 221.919 Q2198.64 221.017 2200.84 220.577 Q2203.04 220.114 2205.12 220.114 Q2210.75 220.114 2213.53 223.031 Q2216.3 225.947 2216.3 231.873 Z" fill="#000000" fill-rule="evenodd" fill-opacity="1" /><polyline clip-path="url(#clip390)" style="stroke:#e26f46; stroke-width:4; stroke-opacity:1; fill:none" points="
  1950.24,289.865 2096.01,289.865 
  "/>
<path clip-path="url(#clip390)" d="M 0 0 M2120.31 272.585 L2149.55 272.585 L2149.55 276.52 L2137.28 276.52 L2137.28 307.145 L2132.58 307.145 L2132.58 276.52 L2120.31 276.52 L2120.31 272.585 Z" fill="#000000" fill-rule="evenodd" fill-opacity="1" /><path clip-path="url(#clip390)" d="M 0 0 M2162.07 285.2 Q2161.35 284.784 2160.49 284.598 Q2159.66 284.39 2158.64 284.39 Q2155.03 284.39 2153.09 286.751 Q2151.17 289.089 2151.17 293.487 L2151.17 307.145 L2146.88 307.145 L2146.88 281.219 L2151.17 281.219 L2151.17 285.247 Q2152.51 282.886 2154.66 281.751 Q2156.81 280.594 2159.89 280.594 Q2160.33 280.594 2160.86 280.663 Q2161.4 280.71 2162.05 280.825 L2162.07 285.2 Z" fill="#000000" fill-rule="evenodd" fill-opacity="1" /><path clip-path="url(#clip390)" d="M 0 0 M2166.1 296.913 L2166.1 281.219 L2170.36 281.219 L2170.36 296.751 Q2170.36 300.432 2171.79 302.284 Q2173.23 304.112 2176.1 304.112 Q2179.55 304.112 2181.54 301.913 Q2183.55 299.714 2183.55 295.918 L2183.55 281.219 L2187.81 281.219 L2187.81 307.145 L2183.55 307.145 L2183.55 303.163 Q2182 305.524 2179.94 306.682 Q2177.9 307.816 2175.19 307.816 Q2170.73 307.816 2168.41 305.038 Q2166.1 302.26 2166.1 296.913 M2176.81 280.594 L2176.81 280.594 Z" fill="#000000" fill-rule="evenodd" fill-opacity="1" /><path clip-path="url(#clip390)" d="M 0 0 M2196.49 273.858 L2196.49 281.219 L2205.26 281.219 L2205.26 284.529 L2196.49 284.529 L2196.49 298.603 Q2196.49 301.774 2197.35 302.677 Q2198.23 303.58 2200.89 303.58 L2205.26 303.58 L2205.26 307.145 L2200.89 307.145 Q2195.96 307.145 2194.08 305.316 Q2192.21 303.464 2192.21 298.603 L2192.21 284.529 L2189.08 284.529 L2189.08 281.219 L2192.21 281.219 L2192.21 273.858 L2196.49 273.858 Z" fill="#000000" fill-rule="evenodd" fill-opacity="1" /><path clip-path="url(#clip390)" d="M 0 0 M2231.28 291.497 L2231.28 307.145 L2227.02 307.145 L2227.02 291.635 Q2227.02 287.955 2225.59 286.126 Q2224.15 284.298 2221.28 284.298 Q2217.83 284.298 2215.84 286.497 Q2213.85 288.696 2213.85 292.492 L2213.85 307.145 L2209.57 307.145 L2209.57 271.126 L2213.85 271.126 L2213.85 285.247 Q2215.38 282.909 2217.44 281.751 Q2219.52 280.594 2222.23 280.594 Q2226.7 280.594 2228.99 283.372 Q2231.28 286.126 2231.28 291.497 Z" fill="#000000" fill-rule="evenodd" fill-opacity="1" /></svg>
