<?xml version="1.0" encoding="utf-8"?>
<svg xmlns="http://www.w3.org/2000/svg" xmlns:xlink="http://www.w3.org/1999/xlink" width="600" height="400" viewBox="0 0 2400 1600">
<defs>
  <clipPath id="clip460">
    <rect x="0" y="0" width="2400" height="1600"/>
  </clipPath>
</defs>
<path clip-path="url(#clip460)" d="M0 1600 L2400 1600 L2400 0 L0 0  Z" fill="#ffffff" fill-rule="evenodd" fill-opacity="1"/>
<defs>
  <clipPath id="clip461">
    <rect x="480" y="0" width="1681" height="1600"/>
  </clipPath>
</defs>
<path clip-path="url(#clip460)" d="M172.015 1486.45 L2352.76 1486.45 L2352.76 123.472 L172.015 123.472  Z" fill="#ffffff" fill-rule="evenodd" fill-opacity="1"/>
<defs>
  <clipPath id="clip462">
    <rect x="172" y="123" width="2182" height="1364"/>
  </clipPath>
</defs>
<polyline clip-path="url(#clip462)" style="stroke:#000000; stroke-linecap:round; stroke-linejoin:round; stroke-width:2; stroke-opacity:0.1; fill:none" points="233.734,1486.45 233.734,123.472 "/>
<polyline clip-path="url(#clip462)" style="stroke:#000000; stroke-linecap:round; stroke-linejoin:round; stroke-width:2; stroke-opacity:0.1; fill:none" points="576.618,1486.45 576.618,123.472 "/>
<polyline clip-path="url(#clip462)" style="stroke:#000000; stroke-linecap:round; stroke-linejoin:round; stroke-width:2; stroke-opacity:0.1; fill:none" points="919.502,1486.45 919.502,123.472 "/>
<polyline clip-path="url(#clip462)" style="stroke:#000000; stroke-linecap:round; stroke-linejoin:round; stroke-width:2; stroke-opacity:0.1; fill:none" points="1262.39,1486.45 1262.39,123.472 "/>
<polyline clip-path="url(#clip462)" style="stroke:#000000; stroke-linecap:round; stroke-linejoin:round; stroke-width:2; stroke-opacity:0.1; fill:none" points="1605.27,1486.45 1605.27,123.472 "/>
<polyline clip-path="url(#clip462)" style="stroke:#000000; stroke-linecap:round; stroke-linejoin:round; stroke-width:2; stroke-opacity:0.1; fill:none" points="1948.15,1486.45 1948.15,123.472 "/>
<polyline clip-path="url(#clip462)" style="stroke:#000000; stroke-linecap:round; stroke-linejoin:round; stroke-width:2; stroke-opacity:0.1; fill:none" points="2291.04,1486.45 2291.04,123.472 "/>
<polyline clip-path="url(#clip462)" style="stroke:#000000; stroke-linecap:round; stroke-linejoin:round; stroke-width:2; stroke-opacity:0.1; fill:none" points="172.015,1447.87 2352.76,1447.87 "/>
<polyline clip-path="url(#clip462)" style="stroke:#000000; stroke-linecap:round; stroke-linejoin:round; stroke-width:2; stroke-opacity:0.1; fill:none" points="172.015,1126.42 2352.76,1126.42 "/>
<polyline clip-path="url(#clip462)" style="stroke:#000000; stroke-linecap:round; stroke-linejoin:round; stroke-width:2; stroke-opacity:0.1; fill:none" points="172.015,804.96 2352.76,804.96 "/>
<polyline clip-path="url(#clip462)" style="stroke:#000000; stroke-linecap:round; stroke-linejoin:round; stroke-width:2; stroke-opacity:0.1; fill:none" points="172.015,483.503 2352.76,483.503 "/>
<polyline clip-path="url(#clip462)" style="stroke:#000000; stroke-linecap:round; stroke-linejoin:round; stroke-width:2; stroke-opacity:0.1; fill:none" points="172.015,162.047 2352.76,162.047 "/>
<polyline clip-path="url(#clip460)" style="stroke:#000000; stroke-linecap:round; stroke-linejoin:round; stroke-width:4; stroke-opacity:1; fill:none" points="172.015,1486.45 2352.76,1486.45 "/>
<polyline clip-path="url(#clip460)" style="stroke:#000000; stroke-linecap:round; stroke-linejoin:round; stroke-width:4; stroke-opacity:1; fill:none" points="233.734,1486.45 233.734,1467.55 "/>
<polyline clip-path="url(#clip460)" style="stroke:#000000; stroke-linecap:round; stroke-linejoin:round; stroke-width:4; stroke-opacity:1; fill:none" points="576.618,1486.45 576.618,1467.55 "/>
<polyline clip-path="url(#clip460)" style="stroke:#000000; stroke-linecap:round; stroke-linejoin:round; stroke-width:4; stroke-opacity:1; fill:none" points="919.502,1486.45 919.502,1467.55 "/>
<polyline clip-path="url(#clip460)" style="stroke:#000000; stroke-linecap:round; stroke-linejoin:round; stroke-width:4; stroke-opacity:1; fill:none" points="1262.39,1486.45 1262.39,1467.55 "/>
<polyline clip-path="url(#clip460)" style="stroke:#000000; stroke-linecap:round; stroke-linejoin:round; stroke-width:4; stroke-opacity:1; fill:none" points="1605.27,1486.45 1605.27,1467.55 "/>
<polyline clip-path="url(#clip460)" style="stroke:#000000; stroke-linecap:round; stroke-linejoin:round; stroke-width:4; stroke-opacity:1; fill:none" points="1948.15,1486.45 1948.15,1467.55 "/>
<polyline clip-path="url(#clip460)" style="stroke:#000000; stroke-linecap:round; stroke-linejoin:round; stroke-width:4; stroke-opacity:1; fill:none" points="2291.04,1486.45 2291.04,1467.55 "/>
<path clip-path="url(#clip460)" d="M203.676 1532.02 L233.352 1532.02 L233.352 1535.95 L203.676 1535.95 L203.676 1532.02 Z" fill="#000000" fill-rule="nonzero" fill-opacity="1" /><path clip-path="url(#clip460)" d="M247.472 1544.91 L263.792 1544.91 L263.792 1548.85 L241.847 1548.85 L241.847 1544.91 Q244.509 1542.16 249.093 1537.53 Q253.699 1532.88 254.88 1531.53 Q257.125 1529.01 258.005 1527.27 Q258.907 1525.51 258.907 1523.82 Q258.907 1521.07 256.963 1519.33 Q255.042 1517.6 251.94 1517.6 Q249.741 1517.6 247.287 1518.36 Q244.857 1519.13 242.079 1520.68 L242.079 1515.95 Q244.903 1514.82 247.357 1514.24 Q249.81 1513.66 251.847 1513.66 Q257.218 1513.66 260.412 1516.35 Q263.606 1519.03 263.606 1523.52 Q263.606 1525.65 262.796 1527.57 Q262.009 1529.47 259.903 1532.07 Q259.324 1532.74 256.222 1535.95 Q253.12 1539.15 247.472 1544.91 Z" fill="#000000" fill-rule="nonzero" fill-opacity="1" /><path clip-path="url(#clip460)" d="M546.375 1532.02 L576.051 1532.02 L576.051 1535.95 L546.375 1535.95 L546.375 1532.02 Z" fill="#000000" fill-rule="nonzero" fill-opacity="1" /><path clip-path="url(#clip460)" d="M586.953 1544.91 L594.592 1544.91 L594.592 1518.55 L586.282 1520.21 L586.282 1515.95 L594.546 1514.29 L599.222 1514.29 L599.222 1544.91 L606.861 1544.91 L606.861 1548.85 L586.953 1548.85 L586.953 1544.91 Z" fill="#000000" fill-rule="nonzero" fill-opacity="1" /><path clip-path="url(#clip460)" d="M919.502 1517.37 Q915.89 1517.37 914.062 1520.93 Q912.256 1524.47 912.256 1531.6 Q912.256 1538.71 914.062 1542.27 Q915.89 1545.82 919.502 1545.82 Q923.136 1545.82 924.941 1542.27 Q926.77 1538.71 926.77 1531.6 Q926.77 1524.47 924.941 1520.93 Q923.136 1517.37 919.502 1517.37 M919.502 1513.66 Q925.312 1513.66 928.367 1518.27 Q931.446 1522.85 931.446 1531.6 Q931.446 1540.33 928.367 1544.94 Q925.312 1549.52 919.502 1549.52 Q913.691 1549.52 910.613 1544.94 Q907.557 1540.33 907.557 1531.6 Q907.557 1522.85 910.613 1518.27 Q913.691 1513.66 919.502 1513.66 Z" fill="#000000" fill-rule="nonzero" fill-opacity="1" /><path clip-path="url(#clip460)" d="M1252.77 1544.91 L1260.41 1544.91 L1260.41 1518.55 L1252.1 1520.21 L1252.1 1515.95 L1260.36 1514.29 L1265.04 1514.29 L1265.04 1544.91 L1272.67 1544.91 L1272.67 1548.85 L1252.77 1548.85 L1252.77 1544.91 Z" fill="#000000" fill-rule="nonzero" fill-opacity="1" /><path clip-path="url(#clip460)" d="M1599.92 1544.91 L1616.24 1544.91 L1616.24 1548.85 L1594.3 1548.85 L1594.3 1544.91 Q1596.96 1542.16 1601.54 1537.53 Q1606.15 1532.88 1607.33 1531.53 Q1609.57 1529.01 1610.45 1527.27 Q1611.36 1525.51 1611.36 1523.82 Q1611.36 1521.07 1609.41 1519.33 Q1607.49 1517.6 1604.39 1517.6 Q1602.19 1517.6 1599.74 1518.36 Q1597.31 1519.13 1594.53 1520.68 L1594.53 1515.95 Q1597.35 1514.82 1599.81 1514.24 Q1602.26 1513.66 1604.3 1513.66 Q1609.67 1513.66 1612.86 1516.35 Q1616.06 1519.03 1616.06 1523.52 Q1616.06 1525.65 1615.25 1527.57 Q1614.46 1529.47 1612.35 1532.07 Q1611.77 1532.74 1608.67 1535.95 Q1605.57 1539.15 1599.92 1544.91 Z" fill="#000000" fill-rule="nonzero" fill-opacity="1" /><path clip-path="url(#clip460)" d="M1952.4 1530.21 Q1955.76 1530.93 1957.63 1533.2 Q1959.53 1535.47 1959.53 1538.8 Q1959.53 1543.92 1956.01 1546.72 Q1952.49 1549.52 1946.01 1549.52 Q1943.84 1549.52 1941.52 1549.08 Q1939.23 1548.66 1936.78 1547.81 L1936.78 1543.29 Q1938.72 1544.43 1941.03 1545.01 Q1943.35 1545.58 1945.87 1545.58 Q1950.27 1545.58 1952.56 1543.85 Q1954.88 1542.11 1954.88 1538.8 Q1954.88 1535.75 1952.72 1534.03 Q1950.6 1532.3 1946.78 1532.3 L1942.75 1532.3 L1942.75 1528.45 L1946.96 1528.45 Q1950.41 1528.45 1952.24 1527.09 Q1954.07 1525.7 1954.07 1523.11 Q1954.07 1520.45 1952.17 1519.03 Q1950.29 1517.6 1946.78 1517.6 Q1944.85 1517.6 1942.66 1518.01 Q1940.46 1518.43 1937.82 1519.31 L1937.82 1515.14 Q1940.48 1514.4 1942.79 1514.03 Q1945.13 1513.66 1947.19 1513.66 Q1952.52 1513.66 1955.62 1516.09 Q1958.72 1518.5 1958.72 1522.62 Q1958.72 1525.49 1957.08 1527.48 Q1955.43 1529.45 1952.4 1530.21 Z" fill="#000000" fill-rule="nonzero" fill-opacity="1" /><path clip-path="url(#clip460)" d="M2294.05 1518.36 L2282.24 1536.81 L2294.05 1536.81 L2294.05 1518.36 M2292.82 1514.29 L2298.7 1514.29 L2298.7 1536.81 L2303.63 1536.81 L2303.63 1540.7 L2298.7 1540.7 L2298.7 1548.85 L2294.05 1548.85 L2294.05 1540.7 L2278.44 1540.7 L2278.44 1536.19 L2292.82 1514.29 Z" fill="#000000" fill-rule="nonzero" fill-opacity="1" /><polyline clip-path="url(#clip460)" style="stroke:#000000; stroke-linecap:round; stroke-linejoin:round; stroke-width:4; stroke-opacity:1; fill:none" points="172.015,1486.45 172.015,123.472 "/>
<polyline clip-path="url(#clip460)" style="stroke:#000000; stroke-linecap:round; stroke-linejoin:round; stroke-width:4; stroke-opacity:1; fill:none" points="172.015,1447.87 190.912,1447.87 "/>
<polyline clip-path="url(#clip460)" style="stroke:#000000; stroke-linecap:round; stroke-linejoin:round; stroke-width:4; stroke-opacity:1; fill:none" points="172.015,1126.42 190.912,1126.42 "/>
<polyline clip-path="url(#clip460)" style="stroke:#000000; stroke-linecap:round; stroke-linejoin:round; stroke-width:4; stroke-opacity:1; fill:none" points="172.015,804.96 190.912,804.96 "/>
<polyline clip-path="url(#clip460)" style="stroke:#000000; stroke-linecap:round; stroke-linejoin:round; stroke-width:4; stroke-opacity:1; fill:none" points="172.015,483.503 190.912,483.503 "/>
<polyline clip-path="url(#clip460)" style="stroke:#000000; stroke-linecap:round; stroke-linejoin:round; stroke-width:4; stroke-opacity:1; fill:none" points="172.015,162.047 190.912,162.047 "/>
<path clip-path="url(#clip460)" d="M124.07 1433.67 Q120.459 1433.67 118.631 1437.24 Q116.825 1440.78 116.825 1447.91 Q116.825 1455.01 118.631 1458.58 Q120.459 1462.12 124.07 1462.12 Q127.705 1462.12 129.51 1458.58 Q131.339 1455.01 131.339 1447.91 Q131.339 1440.78 129.51 1437.24 Q127.705 1433.67 124.07 1433.67 M124.07 1429.97 Q129.881 1429.97 132.936 1434.57 Q136.015 1439.16 136.015 1447.91 Q136.015 1456.63 132.936 1461.24 Q129.881 1465.82 124.07 1465.82 Q118.26 1465.82 115.182 1461.24 Q112.126 1456.63 112.126 1447.91 Q112.126 1439.16 115.182 1434.57 Q118.26 1429.97 124.07 1429.97 Z" fill="#000000" fill-rule="nonzero" fill-opacity="1" /><path clip-path="url(#clip460)" d="M57.7745 1139.76 L74.0939 1139.76 L74.0939 1143.7 L52.1495 1143.7 L52.1495 1139.76 Q54.8115 1137.01 59.3949 1132.38 Q64.0013 1127.72 65.1819 1126.38 Q67.4272 1123.86 68.3068 1122.12 Q69.2096 1120.36 69.2096 1118.67 Q69.2096 1115.92 67.2652 1114.18 Q65.3439 1112.45 62.2421 1112.45 Q60.043 1112.45 57.5893 1113.21 Q55.1588 1113.97 52.381 1115.53 L52.381 1110.8 Q55.2051 1109.67 57.6588 1109.09 Q60.1124 1108.51 62.1495 1108.51 Q67.5198 1108.51 70.7142 1111.2 Q73.9087 1113.88 73.9087 1118.37 Q73.9087 1120.5 73.0985 1122.42 Q72.3115 1124.32 70.205 1126.91 Q69.6263 1127.59 66.5245 1130.8 Q63.4226 1134 57.7745 1139.76 Z" fill="#000000" fill-rule="nonzero" fill-opacity="1" /><path clip-path="url(#clip460)" d="M93.9086 1112.22 Q90.2975 1112.22 88.4688 1115.78 Q86.6632 1119.32 86.6632 1126.45 Q86.6632 1133.56 88.4688 1137.12 Q90.2975 1140.66 93.9086 1140.66 Q97.5428 1140.66 99.3483 1137.12 Q101.177 1133.56 101.177 1126.45 Q101.177 1119.32 99.3483 1115.78 Q97.5428 1112.22 93.9086 1112.22 M93.9086 1108.51 Q99.7187 1108.51 102.774 1113.12 Q105.853 1117.7 105.853 1126.45 Q105.853 1135.18 102.774 1139.78 Q99.7187 1144.37 93.9086 1144.37 Q88.0984 1144.37 85.0197 1139.78 Q81.9642 1135.18 81.9642 1126.45 Q81.9642 1117.7 85.0197 1113.12 Q88.0984 1108.51 93.9086 1108.51 Z" fill="#000000" fill-rule="nonzero" fill-opacity="1" /><path clip-path="url(#clip460)" d="M124.07 1112.22 Q120.459 1112.22 118.631 1115.78 Q116.825 1119.32 116.825 1126.45 Q116.825 1133.56 118.631 1137.12 Q120.459 1140.66 124.07 1140.66 Q127.705 1140.66 129.51 1137.12 Q131.339 1133.56 131.339 1126.45 Q131.339 1119.32 129.51 1115.78 Q127.705 1112.22 124.07 1112.22 M124.07 1108.51 Q129.881 1108.51 132.936 1113.12 Q136.015 1117.7 136.015 1126.45 Q136.015 1135.18 132.936 1139.78 Q129.881 1144.37 124.07 1144.37 Q118.26 1144.37 115.182 1139.78 Q112.126 1135.18 112.126 1126.45 Q112.126 1117.7 115.182 1113.12 Q118.26 1108.51 124.07 1108.51 Z" fill="#000000" fill-rule="nonzero" fill-opacity="1" /><path clip-path="url(#clip460)" d="M66.5939 791.754 L54.7884 810.203 L66.5939 810.203 L66.5939 791.754 M65.367 787.68 L71.2466 787.68 L71.2466 810.203 L76.1772 810.203 L76.1772 814.092 L71.2466 814.092 L71.2466 822.24 L66.5939 822.24 L66.5939 814.092 L50.9921 814.092 L50.9921 809.578 L65.367 787.68 Z" fill="#000000" fill-rule="nonzero" fill-opacity="1" /><path clip-path="url(#clip460)" d="M93.9086 790.759 Q90.2975 790.759 88.4688 794.323 Q86.6632 797.865 86.6632 804.995 Q86.6632 812.101 88.4688 815.666 Q90.2975 819.208 93.9086 819.208 Q97.5428 819.208 99.3483 815.666 Q101.177 812.101 101.177 804.995 Q101.177 797.865 99.3483 794.323 Q97.5428 790.759 93.9086 790.759 M93.9086 787.055 Q99.7187 787.055 102.774 791.661 Q105.853 796.245 105.853 804.995 Q105.853 813.722 102.774 818.328 Q99.7187 822.911 93.9086 822.911 Q88.0984 822.911 85.0197 818.328 Q81.9642 813.722 81.9642 804.995 Q81.9642 796.245 85.0197 791.661 Q88.0984 787.055 93.9086 787.055 Z" fill="#000000" fill-rule="nonzero" fill-opacity="1" /><path clip-path="url(#clip460)" d="M124.07 790.759 Q120.459 790.759 118.631 794.323 Q116.825 797.865 116.825 804.995 Q116.825 812.101 118.631 815.666 Q120.459 819.208 124.07 819.208 Q127.705 819.208 129.51 815.666 Q131.339 812.101 131.339 804.995 Q131.339 797.865 129.51 794.323 Q127.705 790.759 124.07 790.759 M124.07 787.055 Q129.881 787.055 132.936 791.661 Q136.015 796.245 136.015 804.995 Q136.015 813.722 132.936 818.328 Q129.881 822.911 124.07 822.911 Q118.26 822.911 115.182 818.328 Q112.126 813.722 112.126 804.995 Q112.126 796.245 115.182 791.661 Q118.26 787.055 124.07 787.055 Z" fill="#000000" fill-rule="nonzero" fill-opacity="1" /><path clip-path="url(#clip460)" d="M64.3254 481.64 Q61.1773 481.64 59.3254 483.793 Q57.4967 485.946 57.4967 489.696 Q57.4967 493.422 59.3254 495.598 Q61.1773 497.751 64.3254 497.751 Q67.4735 497.751 69.3022 495.598 Q71.1541 493.422 71.1541 489.696 Q71.1541 485.946 69.3022 483.793 Q67.4735 481.64 64.3254 481.64 M73.6077 466.987 L73.6077 471.247 Q71.8485 470.413 70.0429 469.973 Q68.2606 469.534 66.5013 469.534 Q61.8717 469.534 59.418 472.659 Q56.9875 475.784 56.6402 482.103 Q58.006 480.089 60.0662 479.024 Q62.1263 477.936 64.6032 477.936 Q69.8115 477.936 72.8207 481.108 Q75.8531 484.256 75.8531 489.696 Q75.8531 495.02 72.705 498.237 Q69.5568 501.455 64.3254 501.455 Q58.33 501.455 55.1588 496.871 Q51.9875 492.265 51.9875 483.538 Q51.9875 475.344 55.8764 470.483 Q59.7652 465.598 66.3161 465.598 Q68.0754 465.598 69.8578 465.946 Q71.6633 466.293 73.6077 466.987 Z" fill="#000000" fill-rule="nonzero" fill-opacity="1" /><path clip-path="url(#clip460)" d="M93.9086 469.302 Q90.2975 469.302 88.4688 472.867 Q86.6632 476.409 86.6632 483.538 Q86.6632 490.645 88.4688 494.209 Q90.2975 497.751 93.9086 497.751 Q97.5428 497.751 99.3483 494.209 Q101.177 490.645 101.177 483.538 Q101.177 476.409 99.3483 472.867 Q97.5428 469.302 93.9086 469.302 M93.9086 465.598 Q99.7187 465.598 102.774 470.205 Q105.853 474.788 105.853 483.538 Q105.853 492.265 102.774 496.871 Q99.7187 501.455 93.9086 501.455 Q88.0984 501.455 85.0197 496.871 Q81.9642 492.265 81.9642 483.538 Q81.9642 474.788 85.0197 470.205 Q88.0984 465.598 93.9086 465.598 Z" fill="#000000" fill-rule="nonzero" fill-opacity="1" /><path clip-path="url(#clip460)" d="M124.07 469.302 Q120.459 469.302 118.631 472.867 Q116.825 476.409 116.825 483.538 Q116.825 490.645 118.631 494.209 Q120.459 497.751 124.07 497.751 Q127.705 497.751 129.51 494.209 Q131.339 490.645 131.339 483.538 Q131.339 476.409 129.51 472.867 Q127.705 469.302 124.07 469.302 M124.07 465.598 Q129.881 465.598 132.936 470.205 Q136.015 474.788 136.015 483.538 Q136.015 492.265 132.936 496.871 Q129.881 501.455 124.07 501.455 Q118.26 501.455 115.182 496.871 Q112.126 492.265 112.126 483.538 Q112.126 474.788 115.182 470.205 Q118.26 465.598 124.07 465.598 Z" fill="#000000" fill-rule="nonzero" fill-opacity="1" /><path clip-path="url(#clip460)" d="M63.7467 162.915 Q60.4134 162.915 58.4921 164.697 Q56.5939 166.48 56.5939 169.605 Q56.5939 172.73 58.4921 174.512 Q60.4134 176.295 63.7467 176.295 Q67.08 176.295 69.0013 174.512 Q70.9226 172.707 70.9226 169.605 Q70.9226 166.48 69.0013 164.697 Q67.1032 162.915 63.7467 162.915 M59.0708 160.924 Q56.0615 160.183 54.3717 158.123 Q52.7051 156.063 52.7051 153.1 Q52.7051 148.957 55.6449 146.549 Q58.6078 144.142 63.7467 144.142 Q68.9087 144.142 71.8485 146.549 Q74.7883 148.957 74.7883 153.1 Q74.7883 156.063 73.0985 158.123 Q71.4318 160.183 68.4457 160.924 Q71.8253 161.711 73.7003 164.003 Q75.5985 166.295 75.5985 169.605 Q75.5985 174.628 72.5198 177.313 Q69.4642 179.998 63.7467 179.998 Q58.0291 179.998 54.9504 177.313 Q51.8949 174.628 51.8949 169.605 Q51.8949 166.295 53.793 164.003 Q55.6912 161.711 59.0708 160.924 M57.3578 153.54 Q57.3578 156.225 59.0245 157.73 Q60.7143 159.234 63.7467 159.234 Q66.7559 159.234 68.4457 157.73 Q70.1587 156.225 70.1587 153.54 Q70.1587 150.855 68.4457 149.35 Q66.7559 147.846 63.7467 147.846 Q60.7143 147.846 59.0245 149.35 Q57.3578 150.855 57.3578 153.54 Z" fill="#000000" fill-rule="nonzero" fill-opacity="1" /><path clip-path="url(#clip460)" d="M93.9086 147.846 Q90.2975 147.846 88.4688 151.41 Q86.6632 154.952 86.6632 162.082 Q86.6632 169.188 88.4688 172.753 Q90.2975 176.295 93.9086 176.295 Q97.5428 176.295 99.3483 172.753 Q101.177 169.188 101.177 162.082 Q101.177 154.952 99.3483 151.41 Q97.5428 147.846 93.9086 147.846 M93.9086 144.142 Q99.7187 144.142 102.774 148.748 Q105.853 153.332 105.853 162.082 Q105.853 170.808 102.774 175.415 Q99.7187 179.998 93.9086 179.998 Q88.0984 179.998 85.0197 175.415 Q81.9642 170.808 81.9642 162.082 Q81.9642 153.332 85.0197 148.748 Q88.0984 144.142 93.9086 144.142 Z" fill="#000000" fill-rule="nonzero" fill-opacity="1" /><path clip-path="url(#clip460)" d="M124.07 147.846 Q120.459 147.846 118.631 151.41 Q116.825 154.952 116.825 162.082 Q116.825 169.188 118.631 172.753 Q120.459 176.295 124.07 176.295 Q127.705 176.295 129.51 172.753 Q131.339 169.188 131.339 162.082 Q131.339 154.952 129.51 151.41 Q127.705 147.846 124.07 147.846 M124.07 144.142 Q129.881 144.142 132.936 148.748 Q136.015 153.332 136.015 162.082 Q136.015 170.808 132.936 175.415 Q129.881 179.998 124.07 179.998 Q118.26 179.998 115.182 175.415 Q112.126 170.808 112.126 162.082 Q112.126 153.332 115.182 148.748 Q118.26 144.142 124.07 144.142 Z" fill="#000000" fill-rule="nonzero" fill-opacity="1" /><path clip-path="url(#clip460)" d="M1179.36 18.8205 L1179.36 65.8515 L1189.25 65.8515 Q1201.76 65.8515 1207.56 60.1802 Q1213.39 54.509 1213.39 42.2752 Q1213.39 30.1225 1207.56 24.4918 Q1201.76 18.8205 1189.25 18.8205 L1179.36 18.8205 M1171.18 12.096 L1187.99 12.096 Q1205.57 12.096 1213.79 19.4281 Q1222.02 26.7198 1222.02 42.2752 Q1222.02 57.9117 1213.75 65.2439 Q1205.49 72.576 1187.99 72.576 L1171.18 72.576 L1171.18 12.096 Z" fill="#000000" fill-rule="nonzero" fill-opacity="1" /><path clip-path="url(#clip460)" d="M1255.36 49.7694 Q1246.32 49.7694 1242.84 51.8354 Q1239.36 53.9013 1239.36 58.8839 Q1239.36 62.8538 1241.95 65.2034 Q1244.58 67.5124 1249.08 67.5124 Q1255.28 67.5124 1259 63.1374 Q1262.77 58.7219 1262.77 51.4303 L1262.77 49.7694 L1255.36 49.7694 M1270.22 46.6907 L1270.22 72.576 L1262.77 72.576 L1262.77 65.6895 Q1260.22 69.8214 1256.41 71.8063 Q1252.6 73.7508 1247.09 73.7508 Q1240.13 73.7508 1235.99 69.8619 Q1231.9 65.9325 1231.9 59.3701 Q1231.9 51.7138 1237.01 47.825 Q1242.15 43.9361 1252.32 43.9361 L1262.77 43.9361 L1262.77 43.2069 Q1262.77 38.0623 1259.37 35.2672 Q1256.01 32.4315 1249.89 32.4315 Q1246 32.4315 1242.31 33.3632 Q1238.63 34.295 1235.22 36.1584 L1235.22 29.2718 Q1239.32 27.692 1243.16 26.9223 Q1247.01 26.1121 1250.66 26.1121 Q1260.5 26.1121 1265.36 31.2163 Q1270.22 36.3204 1270.22 46.6907 Z" fill="#000000" fill-rule="nonzero" fill-opacity="1" /><path clip-path="url(#clip460)" d="M1292.95 14.324 L1292.95 27.2059 L1308.3 27.2059 L1308.3 32.9987 L1292.95 32.9987 L1292.95 57.6282 Q1292.95 63.1779 1294.45 64.7578 Q1295.99 66.3376 1300.65 66.3376 L1308.3 66.3376 L1308.3 72.576 L1300.65 72.576 Q1292.02 72.576 1288.74 69.3758 Q1285.46 66.1351 1285.46 57.6282 L1285.46 32.9987 L1279.99 32.9987 L1279.99 27.2059 L1285.46 27.2059 L1285.46 14.324 L1292.95 14.324 Z" fill="#000000" fill-rule="nonzero" fill-opacity="1" /><path clip-path="url(#clip460)" d="M1338.72 49.7694 Q1329.69 49.7694 1326.21 51.8354 Q1322.72 53.9013 1322.72 58.8839 Q1322.72 62.8538 1325.32 65.2034 Q1327.95 67.5124 1332.45 67.5124 Q1338.64 67.5124 1342.37 63.1374 Q1346.14 58.7219 1346.14 51.4303 L1346.14 49.7694 L1338.72 49.7694 M1353.59 46.6907 L1353.59 72.576 L1346.14 72.576 L1346.14 65.6895 Q1343.59 69.8214 1339.78 71.8063 Q1335.97 73.7508 1330.46 73.7508 Q1323.49 73.7508 1319.36 69.8619 Q1315.27 65.9325 1315.27 59.3701 Q1315.27 51.7138 1320.37 47.825 Q1325.52 43.9361 1335.69 43.9361 L1346.14 43.9361 L1346.14 43.2069 Q1346.14 38.0623 1342.74 35.2672 Q1339.37 32.4315 1333.26 32.4315 Q1329.37 32.4315 1325.68 33.3632 Q1321.99 34.295 1318.59 36.1584 L1318.59 29.2718 Q1322.68 27.692 1326.53 26.9223 Q1330.38 26.1121 1334.03 26.1121 Q1343.87 26.1121 1348.73 31.2163 Q1353.59 36.3204 1353.59 46.6907 Z" fill="#000000" fill-rule="nonzero" fill-opacity="1" /><polyline clip-path="url(#clip462)" style="stroke:#009af9; stroke-linecap:round; stroke-linejoin:round; stroke-width:4; stroke-opacity:1; fill:none" points="233.734,1447.87 233.734,1367.51 268.022,1367.51 268.022,1335.36 302.311,1335.36 302.311,1255 336.599,1255 336.599,1142.49 370.887,1142.49 370.887,1110.34 405.176,1110.34 405.176,981.761 439.464,981.761 439.464,853.178 473.753,853.178 473.753,772.814 508.041,772.814 508.041,788.887 542.329,788.887 542.329,869.251 576.618,869.251 576.618,821.033 610.906,821.033 610.906,708.523 645.194,708.523 645.194,788.887 679.483,788.887 679.483,1142.49 713.771,1142.49 713.771,965.688 748.06,965.688 748.06,1190.71 782.348,1190.71 782.348,1158.56 816.636,1158.56 816.636,1351.44 850.925,1351.44 850.925,1303.22 885.213,1303.22 885.213,1383.58 919.502,1383.58 919.502,1319.29 953.79,1319.29 953.79,1415.73 988.078,1415.73 988.078,1399.65 1022.37,1399.65 1022.37,1431.8 1056.66,1431.8 1056.66,1399.65 1090.94,1399.65 1090.94,1431.8 1125.23,1431.8 1125.23,1367.51 1159.52,1367.51 1159.52,1383.58 1193.81,1383.58 1193.81,1367.51 1228.1,1367.51 1228.1,1287.14 1262.39,1287.14 1262.39,1238.93 1296.67,1238.93 1296.67,1126.42 1330.96,1126.42 1330.96,1190.71 1365.25,1190.71 1365.25,965.688 1399.54,965.688 1399.54,708.523 1433.83,708.523 1433.83,338.848 1468.12,338.848 1468.12,435.285 1502.4,435.285 1502.4,162.047 1536.69,162.047 1570.98,162.047 1570.98,242.411 1605.27,242.411 1605.27,290.63 1639.56,290.63 1639.56,338.848 1673.85,338.848 1673.85,322.775 1708.13,322.775 1708.13,419.212 1742.42,419.212 1742.42,451.358 1776.71,451.358 1776.71,837.106 1811,837.106 1811,917.47 1845.29,917.47 1845.29,1062.13 1879.58,1062.13 1879.58,1174.64 1913.86,1174.64 1913.86,1222.85 1948.15,1222.85 1948.15,1335.36 1982.44,1335.36 2016.73,1335.36 2016.73,1431.8 2051.02,1431.8 2051.02,1415.73 2085.31,1415.73 2085.31,1431.8 2119.59,1431.8 2119.59,1415.73 2153.88,1415.73 2153.88,1447.87 2188.17,1447.87 2222.46,1447.87 2256.75,1447.87 2291.04,1447.87 "/>
<path clip-path="url(#clip460)" d="M1957.75 272.585 L2280.06 272.585 L2280.06 168.905 L1957.75 168.905  Z" fill="#ffffff" fill-rule="evenodd" fill-opacity="1"/>
<polyline clip-path="url(#clip460)" style="stroke:#000000; stroke-linecap:round; stroke-linejoin:round; stroke-width:4; stroke-opacity:1; fill:none" points="1957.75,272.585 2280.06,272.585 2280.06,168.905 1957.75,168.905 1957.75,272.585 "/>
<polyline clip-path="url(#clip460)" style="stroke:#009af9; stroke-linecap:round; stroke-linejoin:round; stroke-width:4; stroke-opacity:1; fill:none" points="1981.99,220.745 2127.37,220.745 "/>
<path clip-path="url(#clip460)" d="M2156.27 207.307 L2156.27 234.182 L2161.92 234.182 Q2169.08 234.182 2172.39 230.941 Q2175.72 227.701 2175.72 220.71 Q2175.72 213.766 2172.39 210.548 Q2169.08 207.307 2161.92 207.307 L2156.27 207.307 M2151.6 203.465 L2161.2 203.465 Q2171.25 203.465 2175.95 207.654 Q2180.65 211.821 2180.65 220.71 Q2180.65 229.645 2175.93 233.835 Q2171.2 238.025 2161.2 238.025 L2151.6 238.025 L2151.6 203.465 Z" fill="#000000" fill-rule="nonzero" fill-opacity="1" /><path clip-path="url(#clip460)" d="M2199.7 224.992 Q2194.54 224.992 2192.55 226.173 Q2190.56 227.353 2190.56 230.201 Q2190.56 232.469 2192.04 233.812 Q2193.54 235.131 2196.11 235.131 Q2199.65 235.131 2201.78 232.631 Q2203.94 230.108 2203.94 225.941 L2203.94 224.992 L2199.7 224.992 M2208.2 223.233 L2208.2 238.025 L2203.94 238.025 L2203.94 234.089 Q2202.48 236.451 2200.3 237.585 Q2198.13 238.696 2194.98 238.696 Q2191 238.696 2188.64 236.474 Q2186.3 234.228 2186.3 230.478 Q2186.3 226.103 2189.21 223.881 Q2192.15 221.659 2197.96 221.659 L2203.94 221.659 L2203.94 221.242 Q2203.94 218.303 2201.99 216.705 Q2200.07 215.085 2196.58 215.085 Q2194.35 215.085 2192.25 215.617 Q2190.14 216.15 2188.2 217.215 L2188.2 213.279 Q2190.53 212.377 2192.73 211.937 Q2194.93 211.474 2197.01 211.474 Q2202.64 211.474 2205.42 214.391 Q2208.2 217.307 2208.2 223.233 Z" fill="#000000" fill-rule="nonzero" fill-opacity="1" /><path clip-path="url(#clip460)" d="M2221.18 204.738 L2221.18 212.099 L2229.95 212.099 L2229.95 215.409 L2221.18 215.409 L2221.18 229.483 Q2221.18 232.654 2222.04 233.557 Q2222.92 234.46 2225.58 234.46 L2229.95 234.46 L2229.95 238.025 L2225.58 238.025 Q2220.65 238.025 2218.77 236.196 Q2216.9 234.344 2216.9 229.483 L2216.9 215.409 L2213.77 215.409 L2213.77 212.099 L2216.9 212.099 L2216.9 204.738 L2221.18 204.738 Z" fill="#000000" fill-rule="nonzero" fill-opacity="1" /><path clip-path="url(#clip460)" d="M2247.34 224.992 Q2242.18 224.992 2240.19 226.173 Q2238.2 227.353 2238.2 230.201 Q2238.2 232.469 2239.68 233.812 Q2241.18 235.131 2243.75 235.131 Q2247.29 235.131 2249.42 232.631 Q2251.57 230.108 2251.57 225.941 L2251.57 224.992 L2247.34 224.992 M2255.83 223.233 L2255.83 238.025 L2251.57 238.025 L2251.57 234.089 Q2250.12 236.451 2247.94 237.585 Q2245.76 238.696 2242.62 238.696 Q2238.64 238.696 2236.27 236.474 Q2233.94 234.228 2233.94 230.478 Q2233.94 226.103 2236.85 223.881 Q2239.79 221.659 2245.6 221.659 L2251.57 221.659 L2251.57 221.242 Q2251.57 218.303 2249.63 216.705 Q2247.71 215.085 2244.21 215.085 Q2241.99 215.085 2239.89 215.617 Q2237.78 216.15 2235.83 217.215 L2235.83 213.279 Q2238.17 212.377 2240.37 211.937 Q2242.57 211.474 2244.65 211.474 Q2250.28 211.474 2253.06 214.391 Q2255.83 217.307 2255.83 223.233 Z" fill="#000000" fill-rule="nonzero" fill-opacity="1" /></svg>
