<?xml version="1.0" encoding="utf-8"?>
<svg xmlns="http://www.w3.org/2000/svg" xmlns:xlink="http://www.w3.org/1999/xlink" width="600" height="400" viewBox="0 0 2400 1600">
<defs>
  <clipPath id="clip120">
    <rect x="0" y="0" width="2400" height="1600"/>
  </clipPath>
</defs>
<path clip-path="url(#clip120)" d="
M0 1600 L2400 1600 L2400 0 L0 0  Z
  " fill="#ffffff" fill-rule="evenodd" fill-opacity="1"/>
<defs>
  <clipPath id="clip121">
    <rect x="480" y="0" width="1681" height="1600"/>
  </clipPath>
</defs>
<path clip-path="url(#clip120)" d="
M166.205 1486.45 L2352.76 1486.45 L2352.76 123.472 L166.205 123.472  Z
  " fill="#ffffff" fill-rule="evenodd" fill-opacity="1"/>
<defs>
  <clipPath id="clip122">
    <rect x="166" y="123" width="2188" height="1364"/>
  </clipPath>
</defs>
<polyline clip-path="url(#clip122)" style="stroke:#000000; stroke-width:2; stroke-opacity:0.1; fill:none" points="
  228.088,1486.45 228.088,123.472 
  "/>
<polyline clip-path="url(#clip122)" style="stroke:#000000; stroke-width:2; stroke-opacity:0.1; fill:none" points="
  571.886,1486.45 571.886,123.472 
  "/>
<polyline clip-path="url(#clip122)" style="stroke:#000000; stroke-width:2; stroke-opacity:0.1; fill:none" points="
  915.683,1486.45 915.683,123.472 
  "/>
<polyline clip-path="url(#clip122)" style="stroke:#000000; stroke-width:2; stroke-opacity:0.1; fill:none" points="
  1259.48,1486.45 1259.48,123.472 
  "/>
<polyline clip-path="url(#clip122)" style="stroke:#000000; stroke-width:2; stroke-opacity:0.1; fill:none" points="
  1603.28,1486.45 1603.28,123.472 
  "/>
<polyline clip-path="url(#clip122)" style="stroke:#000000; stroke-width:2; stroke-opacity:0.1; fill:none" points="
  1947.08,1486.45 1947.08,123.472 
  "/>
<polyline clip-path="url(#clip122)" style="stroke:#000000; stroke-width:2; stroke-opacity:0.1; fill:none" points="
  2290.87,1486.45 2290.87,123.472 
  "/>
<polyline clip-path="url(#clip120)" style="stroke:#000000; stroke-width:4; stroke-opacity:1; fill:none" points="
  166.205,1486.45 2352.76,1486.45 
  "/>
<polyline clip-path="url(#clip120)" style="stroke:#000000; stroke-width:4; stroke-opacity:1; fill:none" points="
  228.088,1486.45 228.088,1470.09 
  "/>
<polyline clip-path="url(#clip120)" style="stroke:#000000; stroke-width:4; stroke-opacity:1; fill:none" points="
  571.886,1486.45 571.886,1470.09 
  "/>
<polyline clip-path="url(#clip120)" style="stroke:#000000; stroke-width:4; stroke-opacity:1; fill:none" points="
  915.683,1486.45 915.683,1470.09 
  "/>
<polyline clip-path="url(#clip120)" style="stroke:#000000; stroke-width:4; stroke-opacity:1; fill:none" points="
  1259.48,1486.45 1259.48,1470.09 
  "/>
<polyline clip-path="url(#clip120)" style="stroke:#000000; stroke-width:4; stroke-opacity:1; fill:none" points="
  1603.28,1486.45 1603.28,1470.09 
  "/>
<polyline clip-path="url(#clip120)" style="stroke:#000000; stroke-width:4; stroke-opacity:1; fill:none" points="
  1947.08,1486.45 1947.08,1470.09 
  "/>
<polyline clip-path="url(#clip120)" style="stroke:#000000; stroke-width:4; stroke-opacity:1; fill:none" points="
  2290.87,1486.45 2290.87,1470.09 
  "/>
<path clip-path="url(#clip120)" d="M 0 0 M200.542 1530.29 L230.218 1530.29 L230.218 1534.23 L200.542 1534.23 L200.542 1530.29 Z" fill="#000000" fill-rule="evenodd" fill-opacity="1" /><path clip-path="url(#clip120)" d="M 0 0 M239.315 1543.18 L255.634 1543.18 L255.634 1547.12 L233.69 1547.12 L233.69 1543.18 Q236.352 1540.43 240.935 1535.8 Q245.542 1531.15 246.722 1529.81 Q248.968 1527.28 249.847 1525.55 Q250.75 1523.79 250.75 1522.1 Q250.75 1519.34 248.806 1517.61 Q246.884 1515.87 243.783 1515.87 Q241.583 1515.87 239.13 1516.63 Q236.699 1517.4 233.921 1518.95 L233.921 1514.23 Q236.746 1513.09 239.199 1512.51 Q241.653 1511.93 243.69 1511.93 Q249.06 1511.93 252.255 1514.62 Q255.449 1517.31 255.449 1521.8 Q255.449 1523.93 254.639 1525.85 Q253.852 1527.74 251.745 1530.34 Q251.167 1531.01 248.065 1534.23 Q244.963 1537.42 239.315 1543.18 Z" fill="#000000" fill-rule="evenodd" fill-opacity="1" /><path clip-path="url(#clip120)" d="M 0 0 M544.154 1530.29 L573.83 1530.29 L573.83 1534.23 L544.154 1534.23 L544.154 1530.29 Z" fill="#000000" fill-rule="evenodd" fill-opacity="1" /><path clip-path="url(#clip120)" d="M 0 0 M579.71 1543.18 L587.348 1543.18 L587.348 1516.82 L579.038 1518.49 L579.038 1514.23 L587.302 1512.56 L591.978 1512.56 L591.978 1543.18 L599.617 1543.18 L599.617 1547.12 L579.71 1547.12 L579.71 1543.18 Z" fill="#000000" fill-rule="evenodd" fill-opacity="1" /><path clip-path="url(#clip120)" d="M 0 0 M915.683 1515.64 Q912.072 1515.64 910.243 1519.2 Q908.438 1522.75 908.438 1529.87 Q908.438 1536.98 910.243 1540.55 Q912.072 1544.09 915.683 1544.09 Q919.317 1544.09 921.123 1540.55 Q922.951 1536.98 922.951 1529.87 Q922.951 1522.75 921.123 1519.2 Q919.317 1515.64 915.683 1515.64 M915.683 1511.93 Q921.493 1511.93 924.549 1516.54 Q927.627 1521.12 927.627 1529.87 Q927.627 1538.6 924.549 1543.21 Q921.493 1547.79 915.683 1547.79 Q909.873 1547.79 906.794 1543.21 Q903.739 1538.6 903.739 1529.87 Q903.739 1521.12 906.794 1516.54 Q909.873 1511.93 915.683 1511.93 Z" fill="#000000" fill-rule="evenodd" fill-opacity="1" /><path clip-path="url(#clip120)" d="M 0 0 M1249.86 1543.18 L1257.5 1543.18 L1257.5 1516.82 L1249.19 1518.49 L1249.19 1514.23 L1257.45 1512.56 L1262.13 1512.56 L1262.13 1543.18 L1269.77 1543.18 L1269.77 1547.12 L1249.86 1547.12 L1249.86 1543.18 Z" fill="#000000" fill-rule="evenodd" fill-opacity="1" /><path clip-path="url(#clip120)" d="M 0 0 M1597.93 1543.18 L1614.25 1543.18 L1614.25 1547.12 L1592.31 1547.12 L1592.31 1543.18 Q1594.97 1540.43 1599.55 1535.8 Q1604.16 1531.15 1605.34 1529.81 Q1607.58 1527.28 1608.46 1525.55 Q1609.37 1523.79 1609.37 1522.1 Q1609.37 1519.34 1607.42 1517.61 Q1605.5 1515.87 1602.4 1515.87 Q1600.2 1515.87 1597.75 1516.63 Q1595.31 1517.4 1592.54 1518.95 L1592.54 1514.23 Q1595.36 1513.09 1597.81 1512.51 Q1600.27 1511.93 1602.31 1511.93 Q1607.68 1511.93 1610.87 1514.62 Q1614.06 1517.31 1614.06 1521.8 Q1614.06 1523.93 1613.25 1525.85 Q1612.47 1527.74 1610.36 1530.34 Q1609.78 1531.01 1606.68 1534.23 Q1603.58 1537.42 1597.93 1543.18 Z" fill="#000000" fill-rule="evenodd" fill-opacity="1" /><path clip-path="url(#clip120)" d="M 0 0 M1951.32 1528.49 Q1954.68 1529.2 1956.55 1531.47 Q1958.45 1533.74 1958.45 1537.07 Q1958.45 1542.19 1954.93 1544.99 Q1951.42 1547.79 1944.93 1547.79 Q1942.76 1547.79 1940.44 1547.35 Q1938.15 1546.93 1935.7 1546.08 L1935.7 1541.56 Q1937.64 1542.7 1939.96 1543.28 Q1942.27 1543.86 1944.79 1543.86 Q1949.19 1543.86 1951.48 1542.12 Q1953.8 1540.38 1953.8 1537.07 Q1953.8 1534.02 1951.65 1532.31 Q1949.52 1530.57 1945.7 1530.57 L1941.67 1530.57 L1941.67 1526.73 L1945.88 1526.73 Q1949.33 1526.73 1951.16 1525.36 Q1952.99 1523.97 1952.99 1521.38 Q1952.99 1518.72 1951.09 1517.31 Q1949.22 1515.87 1945.7 1515.87 Q1943.78 1515.87 1941.58 1516.29 Q1939.38 1516.7 1936.74 1517.58 L1936.74 1513.42 Q1939.4 1512.68 1941.72 1512.31 Q1944.05 1511.93 1946.11 1511.93 Q1951.44 1511.93 1954.54 1514.37 Q1957.64 1516.77 1957.64 1520.89 Q1957.64 1523.76 1956 1525.75 Q1954.36 1527.72 1951.32 1528.49 Z" fill="#000000" fill-rule="evenodd" fill-opacity="1" /><path clip-path="url(#clip120)" d="M 0 0 M2293.88 1516.63 L2282.08 1535.08 L2293.88 1535.08 L2293.88 1516.63 M2292.65 1512.56 L2298.53 1512.56 L2298.53 1535.08 L2303.46 1535.08 L2303.46 1538.97 L2298.53 1538.97 L2298.53 1547.12 L2293.88 1547.12 L2293.88 1538.97 L2278.28 1538.97 L2278.28 1534.46 L2292.65 1512.56 Z" fill="#000000" fill-rule="evenodd" fill-opacity="1" /><polyline clip-path="url(#clip122)" style="stroke:#000000; stroke-width:2; stroke-opacity:0.1; fill:none" points="
  166.205,1447.87 2352.76,1447.87 
  "/>
<polyline clip-path="url(#clip122)" style="stroke:#000000; stroke-width:2; stroke-opacity:0.1; fill:none" points="
  166.205,1148.84 2352.76,1148.84 
  "/>
<polyline clip-path="url(#clip122)" style="stroke:#000000; stroke-width:2; stroke-opacity:0.1; fill:none" points="
  166.205,849.814 2352.76,849.814 
  "/>
<polyline clip-path="url(#clip122)" style="stroke:#000000; stroke-width:2; stroke-opacity:0.1; fill:none" points="
  166.205,550.785 2352.76,550.785 
  "/>
<polyline clip-path="url(#clip122)" style="stroke:#000000; stroke-width:2; stroke-opacity:0.1; fill:none" points="
  166.205,251.756 2352.76,251.756 
  "/>
<polyline clip-path="url(#clip120)" style="stroke:#000000; stroke-width:4; stroke-opacity:1; fill:none" points="
  166.205,1486.45 166.205,123.472 
  "/>
<polyline clip-path="url(#clip120)" style="stroke:#000000; stroke-width:4; stroke-opacity:1; fill:none" points="
  166.205,1447.87 192.443,1447.87 
  "/>
<polyline clip-path="url(#clip120)" style="stroke:#000000; stroke-width:4; stroke-opacity:1; fill:none" points="
  166.205,1148.84 192.443,1148.84 
  "/>
<polyline clip-path="url(#clip120)" style="stroke:#000000; stroke-width:4; stroke-opacity:1; fill:none" points="
  166.205,849.814 192.443,849.814 
  "/>
<polyline clip-path="url(#clip120)" style="stroke:#000000; stroke-width:4; stroke-opacity:1; fill:none" points="
  166.205,550.785 192.443,550.785 
  "/>
<polyline clip-path="url(#clip120)" style="stroke:#000000; stroke-width:4; stroke-opacity:1; fill:none" points="
  166.205,251.756 192.443,251.756 
  "/>
<path clip-path="url(#clip120)" d="M 0 0 M118.26 1433.67 Q114.649 1433.67 112.82 1437.24 Q111.015 1440.78 111.015 1447.91 Q111.015 1455.01 112.82 1458.58 Q114.649 1462.12 118.26 1462.12 Q121.895 1462.12 123.7 1458.58 Q125.529 1455.01 125.529 1447.91 Q125.529 1440.78 123.7 1437.24 Q121.895 1433.67 118.26 1433.67 M118.26 1429.97 Q124.07 1429.97 127.126 1434.57 Q130.205 1439.16 130.205 1447.91 Q130.205 1456.63 127.126 1461.24 Q124.07 1465.82 118.26 1465.82 Q112.45 1465.82 109.371 1461.24 Q106.316 1456.63 106.316 1447.91 Q106.316 1439.16 109.371 1434.57 Q112.45 1429.97 118.26 1429.97 Z" fill="#000000" fill-rule="evenodd" fill-opacity="1" /><path clip-path="url(#clip120)" d="M 0 0 M59.8578 1162.19 L76.1772 1162.19 L76.1772 1166.12 L54.2328 1166.12 L54.2328 1162.19 Q56.8949 1159.43 61.4782 1154.8 Q66.0846 1150.15 67.2652 1148.81 Q69.5105 1146.29 70.3902 1144.55 Q71.2929 1142.79 71.2929 1141.1 Q71.2929 1138.35 69.3485 1136.61 Q67.4272 1134.87 64.3254 1134.87 Q62.1263 1134.87 59.6726 1135.64 Q57.2421 1136.4 54.4643 1137.95 L54.4643 1133.23 Q57.2884 1132.1 59.7421 1131.52 Q62.1958 1130.94 64.2328 1130.94 Q69.6031 1130.94 72.7976 1133.62 Q75.992 1136.31 75.992 1140.8 Q75.992 1142.93 75.1818 1144.85 Q74.3948 1146.75 72.2883 1149.34 Q71.7096 1150.01 68.6078 1153.23 Q65.5059 1156.42 59.8578 1162.19 Z" fill="#000000" fill-rule="evenodd" fill-opacity="1" /><path clip-path="url(#clip120)" d="M 0 0 M91.2465 1134.64 Q87.6354 1134.64 85.8068 1138.21 Q84.0012 1141.75 84.0012 1148.88 Q84.0012 1155.98 85.8068 1159.55 Q87.6354 1163.09 91.2465 1163.09 Q94.8808 1163.09 96.6863 1159.55 Q98.515 1155.98 98.515 1148.88 Q98.515 1141.75 96.6863 1138.21 Q94.8808 1134.64 91.2465 1134.64 M91.2465 1130.94 Q97.0567 1130.94 100.112 1135.55 Q103.191 1140.13 103.191 1148.88 Q103.191 1157.61 100.112 1162.21 Q97.0567 1166.8 91.2465 1166.8 Q85.4364 1166.8 82.3577 1162.21 Q79.3022 1157.61 79.3022 1148.88 Q79.3022 1140.13 82.3577 1135.55 Q85.4364 1130.94 91.2465 1130.94 Z" fill="#000000" fill-rule="evenodd" fill-opacity="1" /><path clip-path="url(#clip120)" d="M 0 0 M118.26 1134.64 Q114.649 1134.64 112.82 1138.21 Q111.015 1141.75 111.015 1148.88 Q111.015 1155.98 112.82 1159.55 Q114.649 1163.09 118.26 1163.09 Q121.895 1163.09 123.7 1159.55 Q125.529 1155.98 125.529 1148.88 Q125.529 1141.75 123.7 1138.21 Q121.895 1134.64 118.26 1134.64 M118.26 1130.94 Q124.07 1130.94 127.126 1135.55 Q130.205 1140.13 130.205 1148.88 Q130.205 1157.61 127.126 1162.21 Q124.07 1166.8 118.26 1166.8 Q112.45 1166.8 109.371 1162.21 Q106.316 1157.61 106.316 1148.88 Q106.316 1140.13 109.371 1135.55 Q112.45 1130.94 118.26 1130.94 Z" fill="#000000" fill-rule="evenodd" fill-opacity="1" /><path clip-path="url(#clip120)" d="M 0 0 M66.5939 836.608 L54.7884 855.057 L66.5939 855.057 L66.5939 836.608 M65.367 832.534 L71.2466 832.534 L71.2466 855.057 L76.1772 855.057 L76.1772 858.946 L71.2466 858.946 L71.2466 867.094 L66.5939 867.094 L66.5939 858.946 L50.9921 858.946 L50.9921 854.432 L65.367 832.534 Z" fill="#000000" fill-rule="evenodd" fill-opacity="1" /><path clip-path="url(#clip120)" d="M 0 0 M91.2465 835.613 Q87.6354 835.613 85.8068 839.178 Q84.0012 842.72 84.0012 849.849 Q84.0012 856.956 85.8068 860.52 Q87.6354 864.062 91.2465 864.062 Q94.8808 864.062 96.6863 860.52 Q98.515 856.956 98.515 849.849 Q98.515 842.72 96.6863 839.178 Q94.8808 835.613 91.2465 835.613 M91.2465 831.909 Q97.0567 831.909 100.112 836.516 Q103.191 841.099 103.191 849.849 Q103.191 858.576 100.112 863.182 Q97.0567 867.766 91.2465 867.766 Q85.4364 867.766 82.3577 863.182 Q79.3022 858.576 79.3022 849.849 Q79.3022 841.099 82.3577 836.516 Q85.4364 831.909 91.2465 831.909 Z" fill="#000000" fill-rule="evenodd" fill-opacity="1" /><path clip-path="url(#clip120)" d="M 0 0 M118.26 835.613 Q114.649 835.613 112.82 839.178 Q111.015 842.72 111.015 849.849 Q111.015 856.956 112.82 860.52 Q114.649 864.062 118.26 864.062 Q121.895 864.062 123.7 860.52 Q125.529 856.956 125.529 849.849 Q125.529 842.72 123.7 839.178 Q121.895 835.613 118.26 835.613 M118.26 831.909 Q124.07 831.909 127.126 836.516 Q130.205 841.099 130.205 849.849 Q130.205 858.576 127.126 863.182 Q124.07 867.766 118.26 867.766 Q112.45 867.766 109.371 863.182 Q106.316 858.576 106.316 849.849 Q106.316 841.099 109.371 836.516 Q112.45 831.909 118.26 831.909 Z" fill="#000000" fill-rule="evenodd" fill-opacity="1" /><path clip-path="url(#clip120)" d="M 0 0 M64.6495 548.922 Q61.5013 548.922 59.6495 551.074 Q57.8208 553.227 57.8208 556.977 Q57.8208 560.704 59.6495 562.88 Q61.5013 565.033 64.6495 565.033 Q67.7976 565.033 69.6263 562.88 Q71.4781 560.704 71.4781 556.977 Q71.4781 553.227 69.6263 551.074 Q67.7976 548.922 64.6495 548.922 M73.9318 534.269 L73.9318 538.528 Q72.1726 537.695 70.367 537.255 Q68.5846 536.815 66.8254 536.815 Q62.1958 536.815 59.7421 539.94 Q57.3115 543.065 56.9643 549.385 Q58.33 547.371 60.3902 546.306 Q62.4504 545.218 64.9272 545.218 Q70.1355 545.218 73.1448 548.389 Q76.1772 551.537 76.1772 556.977 Q76.1772 562.301 73.029 565.519 Q69.8809 568.736 64.6495 568.736 Q58.6541 568.736 55.4828 564.153 Q52.3116 559.547 52.3116 550.82 Q52.3116 542.625 56.2004 537.764 Q60.0893 532.88 66.6402 532.88 Q68.3994 532.88 70.1818 533.227 Q71.9874 533.575 73.9318 534.269 Z" fill="#000000" fill-rule="evenodd" fill-opacity="1" /><path clip-path="url(#clip120)" d="M 0 0 M91.2465 536.584 Q87.6354 536.584 85.8068 540.149 Q84.0012 543.69 84.0012 550.82 Q84.0012 557.926 85.8068 561.491 Q87.6354 565.033 91.2465 565.033 Q94.8808 565.033 96.6863 561.491 Q98.515 557.926 98.515 550.82 Q98.515 543.69 96.6863 540.149 Q94.8808 536.584 91.2465 536.584 M91.2465 532.88 Q97.0567 532.88 100.112 537.487 Q103.191 542.07 103.191 550.82 Q103.191 559.547 100.112 564.153 Q97.0567 568.736 91.2465 568.736 Q85.4364 568.736 82.3577 564.153 Q79.3022 559.547 79.3022 550.82 Q79.3022 542.07 82.3577 537.487 Q85.4364 532.88 91.2465 532.88 Z" fill="#000000" fill-rule="evenodd" fill-opacity="1" /><path clip-path="url(#clip120)" d="M 0 0 M118.26 536.584 Q114.649 536.584 112.82 540.149 Q111.015 543.69 111.015 550.82 Q111.015 557.926 112.82 561.491 Q114.649 565.033 118.26 565.033 Q121.895 565.033 123.7 561.491 Q125.529 557.926 125.529 550.82 Q125.529 543.69 123.7 540.149 Q121.895 536.584 118.26 536.584 M118.26 532.88 Q124.07 532.88 127.126 537.487 Q130.205 542.07 130.205 550.82 Q130.205 559.547 127.126 564.153 Q124.07 568.736 118.26 568.736 Q112.45 568.736 109.371 564.153 Q106.316 559.547 106.316 550.82 Q106.316 542.07 109.371 537.487 Q112.45 532.88 118.26 532.88 Z" fill="#000000" fill-rule="evenodd" fill-opacity="1" /><path clip-path="url(#clip120)" d="M 0 0 M64.3254 252.624 Q60.9921 252.624 59.0708 254.406 Q57.1726 256.189 57.1726 259.314 Q57.1726 262.439 59.0708 264.221 Q60.9921 266.003 64.3254 266.003 Q67.6587 266.003 69.58 264.221 Q71.5013 262.415 71.5013 259.314 Q71.5013 256.189 69.58 254.406 Q67.6819 252.624 64.3254 252.624 M59.6495 250.633 Q56.6402 249.892 54.9504 247.832 Q53.2838 245.772 53.2838 242.809 Q53.2838 238.666 56.2236 236.258 Q59.1865 233.851 64.3254 233.851 Q69.4874 233.851 72.4272 236.258 Q75.367 238.666 75.367 242.809 Q75.367 245.772 73.6772 247.832 Q72.0105 249.892 69.0244 250.633 Q72.404 251.42 74.279 253.712 Q76.1772 256.003 76.1772 259.314 Q76.1772 264.337 73.0985 267.022 Q70.0429 269.707 64.3254 269.707 Q58.6078 269.707 55.5291 267.022 Q52.4736 264.337 52.4736 259.314 Q52.4736 256.003 54.3717 253.712 Q56.2699 251.42 59.6495 250.633 M57.9365 243.249 Q57.9365 245.934 59.6032 247.439 Q61.293 248.943 64.3254 248.943 Q67.3346 248.943 69.0244 247.439 Q70.7374 245.934 70.7374 243.249 Q70.7374 240.564 69.0244 239.059 Q67.3346 237.554 64.3254 237.554 Q61.293 237.554 59.6032 239.059 Q57.9365 240.564 57.9365 243.249 Z" fill="#000000" fill-rule="evenodd" fill-opacity="1" /><path clip-path="url(#clip120)" d="M 0 0 M91.2465 237.554 Q87.6354 237.554 85.8068 241.119 Q84.0012 244.661 84.0012 251.79 Q84.0012 258.897 85.8068 262.462 Q87.6354 266.003 91.2465 266.003 Q94.8808 266.003 96.6863 262.462 Q98.515 258.897 98.515 251.79 Q98.515 244.661 96.6863 241.119 Q94.8808 237.554 91.2465 237.554 M91.2465 233.851 Q97.0567 233.851 100.112 238.457 Q103.191 243.04 103.191 251.79 Q103.191 260.517 100.112 265.124 Q97.0567 269.707 91.2465 269.707 Q85.4364 269.707 82.3577 265.124 Q79.3022 260.517 79.3022 251.79 Q79.3022 243.04 82.3577 238.457 Q85.4364 233.851 91.2465 233.851 Z" fill="#000000" fill-rule="evenodd" fill-opacity="1" /><path clip-path="url(#clip120)" d="M 0 0 M118.26 237.554 Q114.649 237.554 112.82 241.119 Q111.015 244.661 111.015 251.79 Q111.015 258.897 112.82 262.462 Q114.649 266.003 118.26 266.003 Q121.895 266.003 123.7 262.462 Q125.529 258.897 125.529 251.79 Q125.529 244.661 123.7 241.119 Q121.895 237.554 118.26 237.554 M118.26 233.851 Q124.07 233.851 127.126 238.457 Q130.205 243.04 130.205 251.79 Q130.205 260.517 127.126 265.124 Q124.07 269.707 118.26 269.707 Q112.45 269.707 109.371 265.124 Q106.316 260.517 106.316 251.79 Q106.316 243.04 109.371 238.457 Q112.45 233.851 118.26 233.851 Z" fill="#000000" fill-rule="evenodd" fill-opacity="1" /><path clip-path="url(#clip120)" d="M 0 0 M1183.67 18.8205 L1183.67 65.8515 L1193.55 65.8515 Q1206.07 65.8515 1211.86 60.1802 Q1217.7 54.509 1217.7 42.2752 Q1217.7 30.1225 1211.86 24.4918 Q1206.07 18.8205 1193.55 18.8205 L1183.67 18.8205 M1175.48 12.096 L1192.3 12.096 Q1209.88 12.096 1218.1 19.4281 Q1226.32 26.7198 1226.32 42.2752 Q1226.32 57.9117 1218.06 65.2439 Q1209.8 72.576 1192.3 72.576 L1175.48 72.576 L1175.48 12.096 Z" fill="#000000" fill-rule="evenodd" fill-opacity="1" /><path clip-path="url(#clip120)" d="M 0 0 M1254.76 49.7694 Q1245.73 49.7694 1242.24 51.8354 Q1238.76 53.9013 1238.76 58.8839 Q1238.76 62.8538 1241.35 65.2034 Q1243.99 67.5124 1248.48 67.5124 Q1254.68 67.5124 1258.41 63.1374 Q1262.17 58.7219 1262.17 51.4303 L1262.17 49.7694 L1254.76 49.7694 M1269.63 46.6907 L1269.63 72.576 L1262.17 72.576 L1262.17 65.6895 Q1259.62 69.8214 1255.81 71.8063 Q1252.01 73.7508 1246.5 73.7508 Q1239.53 73.7508 1235.4 69.8619 Q1231.31 65.9325 1231.31 59.3701 Q1231.31 51.7138 1236.41 47.825 Q1241.56 43.9361 1251.72 43.9361 L1262.17 43.9361 L1262.17 43.2069 Q1262.17 38.0623 1258.77 35.2672 Q1255.41 32.4315 1249.29 32.4315 Q1245.4 32.4315 1241.72 33.3632 Q1238.03 34.295 1234.63 36.1584 L1234.63 29.2718 Q1238.72 27.692 1242.57 26.9223 Q1246.42 26.1121 1250.06 26.1121 Q1259.91 26.1121 1264.77 31.2163 Q1269.63 36.3204 1269.63 46.6907 Z" fill="#000000" fill-rule="evenodd" fill-opacity="1" /><path clip-path="url(#clip120)" d="M 0 0 M1284.82 14.324 L1284.82 27.2059 L1300.17 27.2059 L1300.17 32.9987 L1284.82 32.9987 L1284.82 57.6282 Q1284.82 63.1779 1286.32 64.7578 Q1287.86 66.3376 1292.52 66.3376 L1300.17 66.3376 L1300.17 72.576 L1292.52 72.576 Q1283.89 72.576 1280.61 69.3758 Q1277.32 66.1351 1277.32 57.6282 L1277.32 32.9987 L1271.86 32.9987 L1271.86 27.2059 L1277.32 27.2059 L1277.32 14.324 L1284.82 14.324 Z" fill="#000000" fill-rule="evenodd" fill-opacity="1" /><path clip-path="url(#clip120)" d="M 0 0 M1328.61 49.7694 Q1319.58 49.7694 1316.09 51.8354 Q1312.61 53.9013 1312.61 58.8839 Q1312.61 62.8538 1315.2 65.2034 Q1317.83 67.5124 1322.33 67.5124 Q1328.53 67.5124 1332.25 63.1374 Q1336.02 58.7219 1336.02 51.4303 L1336.02 49.7694 L1328.61 49.7694 M1343.48 46.6907 L1343.48 72.576 L1336.02 72.576 L1336.02 65.6895 Q1333.47 69.8214 1329.66 71.8063 Q1325.85 73.7508 1320.35 73.7508 Q1313.38 73.7508 1309.25 69.8619 Q1305.15 65.9325 1305.15 59.3701 Q1305.15 51.7138 1310.26 47.825 Q1315.4 43.9361 1325.57 43.9361 L1336.02 43.9361 L1336.02 43.2069 Q1336.02 38.0623 1332.62 35.2672 Q1329.26 32.4315 1323.14 32.4315 Q1319.25 32.4315 1315.57 33.3632 Q1311.88 34.295 1308.48 36.1584 L1308.48 29.2718 Q1312.57 27.692 1316.42 26.9223 Q1320.26 26.1121 1323.91 26.1121 Q1333.75 26.1121 1338.61 31.2163 Q1343.48 36.3204 1343.48 46.6907 Z" fill="#000000" fill-rule="evenodd" fill-opacity="1" /><polyline clip-path="url(#clip122)" style="stroke:#009af9; stroke-width:4; stroke-opacity:1; fill:none" points="
  228.088,1447.87 228.088,1313.31 262.468,1313.31 262.468,1343.21 296.848,1343.21 296.848,1283.41 331.227,1283.41 331.227,1148.84 365.607,1148.84 365.607,1118.94 
  399.987,1118.94 399.987,1029.23 434.367,1029.23 434.367,909.62 468.746,909.62 468.746,1044.18 503.126,1044.18 503.126,909.62 537.506,909.62 537.506,819.911 
  571.886,819.911 571.886,790.009 606.265,790.009 606.265,849.814 640.645,849.814 640.645,984.378 675.025,984.378 675.025,879.717 709.405,879.717 709.405,1059.13 
  743.784,1059.13 743.784,1238.55 778.164,1238.55 778.164,1283.41 812.544,1283.41 812.544,1223.6 846.923,1223.6 846.923,1283.41 881.303,1283.41 881.303,1373.12 
  915.683,1373.12 950.063,1373.12 950.063,1388.07 984.442,1388.07 984.442,1373.12 1018.82,1373.12 1018.82,1447.87 1053.2,1447.87 1053.2,1432.92 
  1087.58,1432.92 1087.58,1417.97 1121.96,1417.97 1121.96,1432.92 1156.34,1432.92 1156.34,1403.02 1190.72,1403.02 1225.1,1403.02 1225.1,1313.31 
  1259.48,1313.31 1259.48,1253.5 1293.86,1253.5 1293.86,1163.8 1328.24,1163.8 1328.24,1044.18 1362.62,1044.18 1362.62,909.62 1397,909.62 1397,730.203 
  1431.38,730.203 1431.38,670.397 1465.76,670.397 1465.76,625.542 1500.14,625.542 1500.14,356.416 1534.52,356.416 1534.52,176.998 1568.9,176.998 1568.9,251.756 
  1603.28,251.756 1603.28,371.367 1637.66,371.367 1637.66,162.047 1672.04,162.047 1672.04,640.494 1706.42,640.494 1706.42,730.203 1740.8,730.203 1740.8,625.542 
  1775.18,625.542 1775.18,790.009 1809.56,790.009 1843.94,790.009 1843.94,1074.09 1878.32,1074.09 1878.32,1193.7 1912.7,1193.7 1912.7,1059.13 
  1947.08,1059.13 1947.08,1343.21 1981.45,1343.21 1981.45,1328.26 2015.83,1328.26 2015.83,1388.07 2050.21,1388.07 2050.21,1417.97 2084.59,1417.97 2084.59,1432.92 
  2118.97,1432.92 2118.97,1447.87 2153.35,1447.87 2187.73,1447.87 2222.11,1447.87 2256.49,1447.87 
  2290.87,1447.87 
  "/>
<path clip-path="url(#clip120)" d="
M1940.93 289.865 L2279.87 289.865 L2279.87 168.905 L1940.93 168.905  Z
  " fill="#ffffff" fill-rule="evenodd" fill-opacity="1"/>
<polyline clip-path="url(#clip120)" style="stroke:#000000; stroke-width:4; stroke-opacity:1; fill:none" points="
  1940.93,289.865 2279.87,289.865 2279.87,168.905 1940.93,168.905 1940.93,289.865 
  "/>
<polyline clip-path="url(#clip120)" style="stroke:#009af9; stroke-width:4; stroke-opacity:1; fill:none" points="
  1965.22,229.385 2110.99,229.385 
  "/>
<path clip-path="url(#clip120)" d="M 0 0 M2139.96 215.947 L2139.96 242.822 L2145.61 242.822 Q2152.76 242.822 2156.07 239.581 Q2159.41 236.341 2159.41 229.35 Q2159.41 222.406 2156.07 219.188 Q2152.76 215.947 2145.61 215.947 L2139.96 215.947 M2135.29 212.105 L2144.89 212.105 Q2154.94 212.105 2159.64 216.294 Q2164.34 220.461 2164.34 229.35 Q2164.34 238.285 2159.61 242.475 Q2154.89 246.665 2144.89 246.665 L2135.29 246.665 L2135.29 212.105 Z" fill="#000000" fill-rule="evenodd" fill-opacity="1" /><path clip-path="url(#clip120)" d="M 0 0 M2180.59 233.632 Q2175.42 233.632 2173.43 234.813 Q2171.44 235.993 2171.44 238.841 Q2171.44 241.109 2172.92 242.452 Q2174.43 243.771 2177 243.771 Q2180.54 243.771 2182.67 241.271 Q2184.82 238.748 2184.82 234.581 L2184.82 233.632 L2180.59 233.632 M2189.08 231.873 L2189.08 246.665 L2184.82 246.665 L2184.82 242.729 Q2183.36 245.091 2181.19 246.225 Q2179.01 247.336 2175.86 247.336 Q2171.88 247.336 2169.52 245.114 Q2167.18 242.868 2167.18 239.118 Q2167.18 234.743 2170.1 232.521 Q2173.04 230.299 2178.85 230.299 L2184.82 230.299 L2184.82 229.882 Q2184.82 226.943 2182.88 225.345 Q2180.96 223.725 2177.46 223.725 Q2175.24 223.725 2173.13 224.257 Q2171.03 224.79 2169.08 225.855 L2169.08 221.919 Q2171.42 221.017 2173.62 220.577 Q2175.82 220.114 2177.9 220.114 Q2183.53 220.114 2186.3 223.031 Q2189.08 225.947 2189.08 231.873 Z" fill="#000000" fill-rule="evenodd" fill-opacity="1" /><path clip-path="url(#clip120)" d="M 0 0 M2197.76 213.378 L2197.76 220.739 L2206.54 220.739 L2206.54 224.049 L2197.76 224.049 L2197.76 238.123 Q2197.76 241.294 2198.62 242.197 Q2199.5 243.1 2202.16 243.1 L2206.54 243.1 L2206.54 246.665 L2202.16 246.665 Q2197.23 246.665 2195.36 244.836 Q2193.48 242.984 2193.48 238.123 L2193.48 224.049 L2190.36 224.049 L2190.36 220.739 L2193.48 220.739 L2193.48 213.378 L2197.76 213.378 Z" fill="#000000" fill-rule="evenodd" fill-opacity="1" /><path clip-path="url(#clip120)" d="M 0 0 M2222.79 233.632 Q2217.62 233.632 2215.63 234.813 Q2213.64 235.993 2213.64 238.841 Q2213.64 241.109 2215.12 242.452 Q2216.63 243.771 2219.2 243.771 Q2222.74 243.771 2224.87 241.271 Q2227.02 238.748 2227.02 234.581 L2227.02 233.632 L2222.79 233.632 M2231.28 231.873 L2231.28 246.665 L2227.02 246.665 L2227.02 242.729 Q2225.56 245.091 2223.39 246.225 Q2221.21 247.336 2218.06 247.336 Q2214.08 247.336 2211.72 245.114 Q2209.38 242.868 2209.38 239.118 Q2209.38 234.743 2212.3 232.521 Q2215.24 230.299 2221.05 230.299 L2227.02 230.299 L2227.02 229.882 Q2227.02 226.943 2225.08 225.345 Q2223.16 223.725 2219.66 223.725 Q2217.44 223.725 2215.33 224.257 Q2213.23 224.79 2211.28 225.855 L2211.28 221.919 Q2213.62 221.017 2215.82 220.577 Q2218.02 220.114 2220.1 220.114 Q2225.73 220.114 2228.5 223.031 Q2231.28 225.947 2231.28 231.873 Z" fill="#000000" fill-rule="evenodd" fill-opacity="1" /></svg>
