<?xml version="1.0" encoding="utf-8"?>
<svg xmlns="http://www.w3.org/2000/svg" xmlns:xlink="http://www.w3.org/1999/xlink" width="600" height="400" viewBox="0 0 2400 1600">
<defs>
  <clipPath id="clip270">
    <rect x="0" y="0" width="2400" height="1600"/>
  </clipPath>
</defs>
<path clip-path="url(#clip270)" d="
M0 1600 L2400 1600 L2400 0 L0 0  Z
  " fill="#ffffff" fill-rule="evenodd" fill-opacity="1"/>
<defs>
  <clipPath id="clip271">
    <rect x="480" y="0" width="1681" height="1600"/>
  </clipPath>
</defs>
<path clip-path="url(#clip270)" d="
M166.205 1486.45 L2352.76 1486.45 L2352.76 123.472 L166.205 123.472  Z
  " fill="#ffffff" fill-rule="evenodd" fill-opacity="1"/>
<defs>
  <clipPath id="clip272">
    <rect x="166" y="123" width="2188" height="1364"/>
  </clipPath>
</defs>
<polyline clip-path="url(#clip272)" style="stroke:#000000; stroke-width:2; stroke-opacity:0.1; fill:none" points="
  228.088,1486.45 228.088,123.472 
  "/>
<polyline clip-path="url(#clip272)" style="stroke:#000000; stroke-width:2; stroke-opacity:0.1; fill:none" points="
  571.886,1486.45 571.886,123.472 
  "/>
<polyline clip-path="url(#clip272)" style="stroke:#000000; stroke-width:2; stroke-opacity:0.1; fill:none" points="
  915.683,1486.45 915.683,123.472 
  "/>
<polyline clip-path="url(#clip272)" style="stroke:#000000; stroke-width:2; stroke-opacity:0.1; fill:none" points="
  1259.48,1486.45 1259.48,123.472 
  "/>
<polyline clip-path="url(#clip272)" style="stroke:#000000; stroke-width:2; stroke-opacity:0.1; fill:none" points="
  1603.28,1486.45 1603.28,123.472 
  "/>
<polyline clip-path="url(#clip272)" style="stroke:#000000; stroke-width:2; stroke-opacity:0.1; fill:none" points="
  1947.08,1486.45 1947.08,123.472 
  "/>
<polyline clip-path="url(#clip272)" style="stroke:#000000; stroke-width:2; stroke-opacity:0.1; fill:none" points="
  2290.87,1486.45 2290.87,123.472 
  "/>
<polyline clip-path="url(#clip272)" style="stroke:#000000; stroke-width:2; stroke-opacity:0.1; fill:none" points="
  166.205,1447.87 2352.76,1447.87 
  "/>
<polyline clip-path="url(#clip272)" style="stroke:#000000; stroke-width:2; stroke-opacity:0.1; fill:none" points="
  166.205,1174.29 2352.76,1174.29 
  "/>
<polyline clip-path="url(#clip272)" style="stroke:#000000; stroke-width:2; stroke-opacity:0.1; fill:none" points="
  166.205,900.713 2352.76,900.713 
  "/>
<polyline clip-path="url(#clip272)" style="stroke:#000000; stroke-width:2; stroke-opacity:0.1; fill:none" points="
  166.205,627.133 2352.76,627.133 
  "/>
<polyline clip-path="url(#clip272)" style="stroke:#000000; stroke-width:2; stroke-opacity:0.1; fill:none" points="
  166.205,353.553 2352.76,353.553 
  "/>
<polyline clip-path="url(#clip270)" style="stroke:#000000; stroke-width:4; stroke-opacity:1; fill:none" points="
  166.205,1486.45 2352.76,1486.45 
  "/>
<polyline clip-path="url(#clip270)" style="stroke:#000000; stroke-width:4; stroke-opacity:1; fill:none" points="
  166.205,1486.45 166.205,123.472 
  "/>
<polyline clip-path="url(#clip270)" style="stroke:#000000; stroke-width:4; stroke-opacity:1; fill:none" points="
  228.088,1486.45 228.088,1470.09 
  "/>
<polyline clip-path="url(#clip270)" style="stroke:#000000; stroke-width:4; stroke-opacity:1; fill:none" points="
  571.886,1486.45 571.886,1470.09 
  "/>
<polyline clip-path="url(#clip270)" style="stroke:#000000; stroke-width:4; stroke-opacity:1; fill:none" points="
  915.683,1486.45 915.683,1470.09 
  "/>
<polyline clip-path="url(#clip270)" style="stroke:#000000; stroke-width:4; stroke-opacity:1; fill:none" points="
  1259.48,1486.45 1259.48,1470.09 
  "/>
<polyline clip-path="url(#clip270)" style="stroke:#000000; stroke-width:4; stroke-opacity:1; fill:none" points="
  1603.28,1486.45 1603.28,1470.09 
  "/>
<polyline clip-path="url(#clip270)" style="stroke:#000000; stroke-width:4; stroke-opacity:1; fill:none" points="
  1947.08,1486.45 1947.08,1470.09 
  "/>
<polyline clip-path="url(#clip270)" style="stroke:#000000; stroke-width:4; stroke-opacity:1; fill:none" points="
  2290.87,1486.45 2290.87,1470.09 
  "/>
<polyline clip-path="url(#clip270)" style="stroke:#000000; stroke-width:4; stroke-opacity:1; fill:none" points="
  166.205,1447.87 192.443,1447.87 
  "/>
<polyline clip-path="url(#clip270)" style="stroke:#000000; stroke-width:4; stroke-opacity:1; fill:none" points="
  166.205,1174.29 192.443,1174.29 
  "/>
<polyline clip-path="url(#clip270)" style="stroke:#000000; stroke-width:4; stroke-opacity:1; fill:none" points="
  166.205,900.713 192.443,900.713 
  "/>
<polyline clip-path="url(#clip270)" style="stroke:#000000; stroke-width:4; stroke-opacity:1; fill:none" points="
  166.205,627.133 192.443,627.133 
  "/>
<polyline clip-path="url(#clip270)" style="stroke:#000000; stroke-width:4; stroke-opacity:1; fill:none" points="
  166.205,353.553 192.443,353.553 
  "/>
<path clip-path="url(#clip270)" d="M 0 0 M209.142 1525.04 L221.618 1525.04 L221.618 1528.83 L209.142 1528.83 L209.142 1525.04 Z" fill="#000000" fill-rule="evenodd" fill-opacity="1" /><path clip-path="url(#clip270)" d="M 0 0 M230.715 1535.98 L247.035 1535.98 L247.035 1539.92 L225.091 1539.92 L225.091 1535.98 Q227.753 1533.23 232.336 1528.6 Q236.942 1523.95 238.123 1522.61 Q240.368 1520.08 241.248 1518.35 Q242.151 1516.59 242.151 1514.9 Q242.151 1512.14 240.206 1510.41 Q238.285 1508.67 235.183 1508.67 Q232.984 1508.67 230.53 1509.43 Q228.1 1510.2 225.322 1511.75 L225.322 1507.03 Q228.146 1505.89 230.6 1505.31 Q233.053 1504.73 235.09 1504.73 Q240.461 1504.73 243.655 1507.42 Q246.85 1510.11 246.85 1514.6 Q246.85 1516.73 246.039 1518.65 Q245.252 1520.54 243.146 1523.14 Q242.567 1523.81 239.465 1527.03 Q236.364 1530.22 230.715 1535.98 Z" fill="#000000" fill-rule="evenodd" fill-opacity="1" /><path clip-path="url(#clip270)" d="M 0 0 M552.754 1525.04 L565.23 1525.04 L565.23 1528.83 L552.754 1528.83 L552.754 1525.04 Z" fill="#000000" fill-rule="evenodd" fill-opacity="1" /><path clip-path="url(#clip270)" d="M 0 0 M571.11 1535.98 L578.749 1535.98 L578.749 1509.62 L570.439 1511.29 L570.439 1507.03 L578.703 1505.36 L583.379 1505.36 L583.379 1535.98 L591.017 1535.98 L591.017 1539.92 L571.11 1539.92 L571.11 1535.98 Z" fill="#000000" fill-rule="evenodd" fill-opacity="1" /><path clip-path="url(#clip270)" d="M 0 0 M915.683 1508.44 Q912.072 1508.44 910.243 1512 Q908.438 1515.55 908.438 1522.67 Q908.438 1529.78 910.243 1533.35 Q912.072 1536.89 915.683 1536.89 Q919.317 1536.89 921.123 1533.35 Q922.951 1529.78 922.951 1522.67 Q922.951 1515.55 921.123 1512 Q919.317 1508.44 915.683 1508.44 M915.683 1504.73 Q921.493 1504.73 924.549 1509.34 Q927.627 1513.92 927.627 1522.67 Q927.627 1531.4 924.549 1536.01 Q921.493 1540.59 915.683 1540.59 Q909.873 1540.59 906.794 1536.01 Q903.739 1531.4 903.739 1522.67 Q903.739 1513.92 906.794 1509.34 Q909.873 1504.73 915.683 1504.73 Z" fill="#000000" fill-rule="evenodd" fill-opacity="1" /><path clip-path="url(#clip270)" d="M 0 0 M1249.86 1535.98 L1257.5 1535.98 L1257.5 1509.62 L1249.19 1511.29 L1249.19 1507.03 L1257.45 1505.36 L1262.13 1505.36 L1262.13 1535.98 L1269.77 1535.98 L1269.77 1539.92 L1249.86 1539.92 L1249.86 1535.98 Z" fill="#000000" fill-rule="evenodd" fill-opacity="1" /><path clip-path="url(#clip270)" d="M 0 0 M1597.93 1535.98 L1614.25 1535.98 L1614.25 1539.92 L1592.31 1539.92 L1592.31 1535.98 Q1594.97 1533.23 1599.55 1528.6 Q1604.16 1523.95 1605.34 1522.61 Q1607.58 1520.08 1608.46 1518.35 Q1609.37 1516.59 1609.37 1514.9 Q1609.37 1512.14 1607.42 1510.41 Q1605.5 1508.67 1602.4 1508.67 Q1600.2 1508.67 1597.75 1509.43 Q1595.31 1510.2 1592.54 1511.75 L1592.54 1507.03 Q1595.36 1505.89 1597.81 1505.31 Q1600.27 1504.73 1602.31 1504.73 Q1607.68 1504.73 1610.87 1507.42 Q1614.06 1510.11 1614.06 1514.6 Q1614.06 1516.73 1613.25 1518.65 Q1612.47 1520.54 1610.36 1523.14 Q1609.78 1523.81 1606.68 1527.03 Q1603.58 1530.22 1597.93 1535.98 Z" fill="#000000" fill-rule="evenodd" fill-opacity="1" /><path clip-path="url(#clip270)" d="M 0 0 M1951.32 1521.29 Q1954.68 1522 1956.55 1524.27 Q1958.45 1526.54 1958.45 1529.87 Q1958.45 1534.99 1954.93 1537.79 Q1951.42 1540.59 1944.93 1540.59 Q1942.76 1540.59 1940.44 1540.15 Q1938.15 1539.73 1935.7 1538.88 L1935.7 1534.36 Q1937.64 1535.5 1939.96 1536.08 Q1942.27 1536.66 1944.79 1536.66 Q1949.19 1536.66 1951.48 1534.92 Q1953.8 1533.18 1953.8 1529.87 Q1953.8 1526.82 1951.65 1525.11 Q1949.52 1523.37 1945.7 1523.37 L1941.67 1523.37 L1941.67 1519.53 L1945.88 1519.53 Q1949.33 1519.53 1951.16 1518.16 Q1952.99 1516.77 1952.99 1514.18 Q1952.99 1511.52 1951.09 1510.11 Q1949.22 1508.67 1945.7 1508.67 Q1943.78 1508.67 1941.58 1509.09 Q1939.38 1509.5 1936.74 1510.38 L1936.74 1506.22 Q1939.4 1505.48 1941.72 1505.11 Q1944.05 1504.73 1946.11 1504.73 Q1951.44 1504.73 1954.54 1507.17 Q1957.64 1509.57 1957.64 1513.69 Q1957.64 1516.56 1956 1518.55 Q1954.36 1520.52 1951.32 1521.29 Z" fill="#000000" fill-rule="evenodd" fill-opacity="1" /><path clip-path="url(#clip270)" d="M 0 0 M2293.88 1509.43 L2282.08 1527.88 L2293.88 1527.88 L2293.88 1509.43 M2292.65 1505.36 L2298.53 1505.36 L2298.53 1527.88 L2303.46 1527.88 L2303.46 1531.77 L2298.53 1531.77 L2298.53 1539.92 L2293.88 1539.92 L2293.88 1531.77 L2278.28 1531.77 L2278.28 1527.26 L2292.65 1505.36 Z" fill="#000000" fill-rule="evenodd" fill-opacity="1" /><path clip-path="url(#clip270)" d="M 0 0 M130.26 1433.67 Q126.649 1433.67 124.82 1437.24 Q123.015 1440.78 123.015 1447.91 Q123.015 1455.01 124.82 1458.58 Q126.649 1462.12 130.26 1462.12 Q133.895 1462.12 135.7 1458.58 Q137.529 1455.01 137.529 1447.91 Q137.529 1440.78 135.7 1437.24 Q133.895 1433.67 130.26 1433.67 M130.26 1429.97 Q136.07 1429.97 139.126 1434.57 Q142.205 1439.16 142.205 1447.91 Q142.205 1456.63 139.126 1461.24 Q136.07 1465.82 130.26 1465.82 Q124.45 1465.82 121.371 1461.24 Q118.316 1456.63 118.316 1447.91 Q118.316 1439.16 121.371 1434.57 Q124.45 1429.97 130.26 1429.97 Z" fill="#000000" fill-rule="evenodd" fill-opacity="1" /><path clip-path="url(#clip270)" d="M 0 0 M71.8578 1187.64 L88.1772 1187.64 L88.1772 1191.57 L66.2328 1191.57 L66.2328 1187.64 Q68.8949 1184.88 73.4782 1180.25 Q78.0846 1175.6 79.2652 1174.26 Q81.5105 1171.74 82.3902 1170 Q83.2929 1168.24 83.2929 1166.55 Q83.2929 1163.8 81.3485 1162.06 Q79.4272 1160.32 76.3254 1160.32 Q74.1263 1160.32 71.6726 1161.09 Q69.2421 1161.85 66.4643 1163.4 L66.4643 1158.68 Q69.2884 1157.55 71.7421 1156.97 Q74.1958 1156.39 76.2328 1156.39 Q81.6031 1156.39 84.7976 1159.07 Q87.992 1161.76 87.992 1166.25 Q87.992 1168.38 87.1818 1170.3 Q86.3948 1172.2 84.2883 1174.79 Q83.7096 1175.46 80.6078 1178.68 Q77.5059 1181.87 71.8578 1187.64 Z" fill="#000000" fill-rule="evenodd" fill-opacity="1" /><path clip-path="url(#clip270)" d="M 0 0 M103.247 1160.09 Q99.6354 1160.09 97.8068 1163.66 Q96.0012 1167.2 96.0012 1174.33 Q96.0012 1181.43 97.8068 1185 Q99.6354 1188.54 103.247 1188.54 Q106.881 1188.54 108.686 1185 Q110.515 1181.43 110.515 1174.33 Q110.515 1167.2 108.686 1163.66 Q106.881 1160.09 103.247 1160.09 M103.247 1156.39 Q109.057 1156.39 112.112 1160.99 Q115.191 1165.58 115.191 1174.33 Q115.191 1183.05 112.112 1187.66 Q109.057 1192.24 103.247 1192.24 Q97.4364 1192.24 94.3577 1187.66 Q91.3022 1183.05 91.3022 1174.33 Q91.3022 1165.58 94.3577 1160.99 Q97.4364 1156.39 103.247 1156.39 Z" fill="#000000" fill-rule="evenodd" fill-opacity="1" /><path clip-path="url(#clip270)" d="M 0 0 M130.26 1160.09 Q126.649 1160.09 124.82 1163.66 Q123.015 1167.2 123.015 1174.33 Q123.015 1181.43 124.82 1185 Q126.649 1188.54 130.26 1188.54 Q133.895 1188.54 135.7 1185 Q137.529 1181.43 137.529 1174.33 Q137.529 1167.2 135.7 1163.66 Q133.895 1160.09 130.26 1160.09 M130.26 1156.39 Q136.07 1156.39 139.126 1160.99 Q142.205 1165.58 142.205 1174.33 Q142.205 1183.05 139.126 1187.66 Q136.07 1192.24 130.26 1192.24 Q124.45 1192.24 121.371 1187.66 Q118.316 1183.05 118.316 1174.33 Q118.316 1165.58 121.371 1160.99 Q124.45 1156.39 130.26 1156.39 Z" fill="#000000" fill-rule="evenodd" fill-opacity="1" /><path clip-path="url(#clip270)" d="M 0 0 M78.5939 887.507 L66.7884 905.956 L78.5939 905.956 L78.5939 887.507 M77.367 883.433 L83.2466 883.433 L83.2466 905.956 L88.1772 905.956 L88.1772 909.845 L83.2466 909.845 L83.2466 917.993 L78.5939 917.993 L78.5939 909.845 L62.9921 909.845 L62.9921 905.331 L77.367 883.433 Z" fill="#000000" fill-rule="evenodd" fill-opacity="1" /><path clip-path="url(#clip270)" d="M 0 0 M103.247 886.512 Q99.6354 886.512 97.8068 890.076 Q96.0012 893.618 96.0012 900.748 Q96.0012 907.854 97.8068 911.419 Q99.6354 914.961 103.247 914.961 Q106.881 914.961 108.686 911.419 Q110.515 907.854 110.515 900.748 Q110.515 893.618 108.686 890.076 Q106.881 886.512 103.247 886.512 M103.247 882.808 Q109.057 882.808 112.112 887.414 Q115.191 891.998 115.191 900.748 Q115.191 909.475 112.112 914.081 Q109.057 918.664 103.247 918.664 Q97.4364 918.664 94.3577 914.081 Q91.3022 909.475 91.3022 900.748 Q91.3022 891.998 94.3577 887.414 Q97.4364 882.808 103.247 882.808 Z" fill="#000000" fill-rule="evenodd" fill-opacity="1" /><path clip-path="url(#clip270)" d="M 0 0 M130.26 886.512 Q126.649 886.512 124.82 890.076 Q123.015 893.618 123.015 900.748 Q123.015 907.854 124.82 911.419 Q126.649 914.961 130.26 914.961 Q133.895 914.961 135.7 911.419 Q137.529 907.854 137.529 900.748 Q137.529 893.618 135.7 890.076 Q133.895 886.512 130.26 886.512 M130.26 882.808 Q136.07 882.808 139.126 887.414 Q142.205 891.998 142.205 900.748 Q142.205 909.475 139.126 914.081 Q136.07 918.664 130.26 918.664 Q124.45 918.664 121.371 914.081 Q118.316 909.475 118.316 900.748 Q118.316 891.998 121.371 887.414 Q124.45 882.808 130.26 882.808 Z" fill="#000000" fill-rule="evenodd" fill-opacity="1" /><path clip-path="url(#clip270)" d="M 0 0 M76.6495 625.27 Q73.5013 625.27 71.6495 627.422 Q69.8208 629.575 69.8208 633.325 Q69.8208 637.052 71.6495 639.228 Q73.5013 641.381 76.6495 641.381 Q79.7976 641.381 81.6263 639.228 Q83.4781 637.052 83.4781 633.325 Q83.4781 629.575 81.6263 627.422 Q79.7976 625.27 76.6495 625.27 M85.9318 610.617 L85.9318 614.876 Q84.1726 614.043 82.367 613.603 Q80.5846 613.163 78.8254 613.163 Q74.1958 613.163 71.7421 616.288 Q69.3115 619.413 68.9643 625.733 Q70.33 623.719 72.3902 622.654 Q74.4504 621.566 76.9272 621.566 Q82.1355 621.566 85.1448 624.737 Q88.1772 627.885 88.1772 633.325 Q88.1772 638.649 85.029 641.867 Q81.8809 645.084 76.6495 645.084 Q70.6541 645.084 67.4828 640.501 Q64.3116 635.895 64.3116 627.168 Q64.3116 618.973 68.2004 614.112 Q72.0893 609.228 78.6402 609.228 Q80.3994 609.228 82.1818 609.575 Q83.9874 609.922 85.9318 610.617 Z" fill="#000000" fill-rule="evenodd" fill-opacity="1" /><path clip-path="url(#clip270)" d="M 0 0 M103.247 612.932 Q99.6354 612.932 97.8068 616.496 Q96.0012 620.038 96.0012 627.168 Q96.0012 634.274 97.8068 637.839 Q99.6354 641.381 103.247 641.381 Q106.881 641.381 108.686 637.839 Q110.515 634.274 110.515 627.168 Q110.515 620.038 108.686 616.496 Q106.881 612.932 103.247 612.932 M103.247 609.228 Q109.057 609.228 112.112 613.834 Q115.191 618.418 115.191 627.168 Q115.191 635.895 112.112 640.501 Q109.057 645.084 103.247 645.084 Q97.4364 645.084 94.3577 640.501 Q91.3022 635.895 91.3022 627.168 Q91.3022 618.418 94.3577 613.834 Q97.4364 609.228 103.247 609.228 Z" fill="#000000" fill-rule="evenodd" fill-opacity="1" /><path clip-path="url(#clip270)" d="M 0 0 M130.26 612.932 Q126.649 612.932 124.82 616.496 Q123.015 620.038 123.015 627.168 Q123.015 634.274 124.82 637.839 Q126.649 641.381 130.26 641.381 Q133.895 641.381 135.7 637.839 Q137.529 634.274 137.529 627.168 Q137.529 620.038 135.7 616.496 Q133.895 612.932 130.26 612.932 M130.26 609.228 Q136.07 609.228 139.126 613.834 Q142.205 618.418 142.205 627.168 Q142.205 635.895 139.126 640.501 Q136.07 645.084 130.26 645.084 Q124.45 645.084 121.371 640.501 Q118.316 635.895 118.316 627.168 Q118.316 618.418 121.371 613.834 Q124.45 609.228 130.26 609.228 Z" fill="#000000" fill-rule="evenodd" fill-opacity="1" /><path clip-path="url(#clip270)" d="M 0 0 M76.3254 354.421 Q72.9921 354.421 71.0708 356.203 Q69.1726 357.986 69.1726 361.111 Q69.1726 364.236 71.0708 366.018 Q72.9921 367.801 76.3254 367.801 Q79.6587 367.801 81.58 366.018 Q83.5013 364.213 83.5013 361.111 Q83.5013 357.986 81.58 356.203 Q79.6819 354.421 76.3254 354.421 M71.6495 352.43 Q68.6402 351.69 66.9504 349.629 Q65.2838 347.569 65.2838 344.606 Q65.2838 340.463 68.2236 338.055 Q71.1865 335.648 76.3254 335.648 Q81.4874 335.648 84.4272 338.055 Q87.367 340.463 87.367 344.606 Q87.367 347.569 85.6772 349.629 Q84.0105 351.69 81.0244 352.43 Q84.404 353.217 86.279 355.509 Q88.1772 357.801 88.1772 361.111 Q88.1772 366.134 85.0985 368.819 Q82.0429 371.504 76.3254 371.504 Q70.6078 371.504 67.5291 368.819 Q64.4736 366.134 64.4736 361.111 Q64.4736 357.801 66.3717 355.509 Q68.2699 353.217 71.6495 352.43 M69.9365 345.046 Q69.9365 347.731 71.6032 349.236 Q73.293 350.74 76.3254 350.74 Q79.3346 350.74 81.0244 349.236 Q82.7374 347.731 82.7374 345.046 Q82.7374 342.361 81.0244 340.856 Q79.3346 339.352 76.3254 339.352 Q73.293 339.352 71.6032 340.856 Q69.9365 342.361 69.9365 345.046 Z" fill="#000000" fill-rule="evenodd" fill-opacity="1" /><path clip-path="url(#clip270)" d="M 0 0 M103.247 339.352 Q99.6354 339.352 97.8068 342.916 Q96.0012 346.458 96.0012 353.588 Q96.0012 360.694 97.8068 364.259 Q99.6354 367.801 103.247 367.801 Q106.881 367.801 108.686 364.259 Q110.515 360.694 110.515 353.588 Q110.515 346.458 108.686 342.916 Q106.881 339.352 103.247 339.352 M103.247 335.648 Q109.057 335.648 112.112 340.254 Q115.191 344.838 115.191 353.588 Q115.191 362.314 112.112 366.921 Q109.057 371.504 103.247 371.504 Q97.4364 371.504 94.3577 366.921 Q91.3022 362.314 91.3022 353.588 Q91.3022 344.838 94.3577 340.254 Q97.4364 335.648 103.247 335.648 Z" fill="#000000" fill-rule="evenodd" fill-opacity="1" /><path clip-path="url(#clip270)" d="M 0 0 M130.26 339.352 Q126.649 339.352 124.82 342.916 Q123.015 346.458 123.015 353.588 Q123.015 360.694 124.82 364.259 Q126.649 367.801 130.26 367.801 Q133.895 367.801 135.7 364.259 Q137.529 360.694 137.529 353.588 Q137.529 346.458 135.7 342.916 Q133.895 339.352 130.26 339.352 M130.26 335.648 Q136.07 335.648 139.126 340.254 Q142.205 344.838 142.205 353.588 Q142.205 362.314 139.126 366.921 Q136.07 371.504 130.26 371.504 Q124.45 371.504 121.371 366.921 Q118.316 362.314 118.316 353.588 Q118.316 344.838 121.371 340.254 Q124.45 335.648 130.26 335.648 Z" fill="#000000" fill-rule="evenodd" fill-opacity="1" /><path clip-path="url(#clip270)" d="M 0 0 M1183.67 18.8205 L1183.67 65.8515 L1193.55 65.8515 Q1206.07 65.8515 1211.86 60.1802 Q1217.7 54.509 1217.7 42.2752 Q1217.7 30.1225 1211.86 24.4918 Q1206.07 18.8205 1193.55 18.8205 L1183.67 18.8205 M1175.48 12.096 L1192.3 12.096 Q1209.88 12.096 1218.1 19.4281 Q1226.32 26.7198 1226.32 42.2752 Q1226.32 57.9117 1218.06 65.2439 Q1209.8 72.576 1192.3 72.576 L1175.48 72.576 L1175.48 12.096 Z" fill="#000000" fill-rule="evenodd" fill-opacity="1" /><path clip-path="url(#clip270)" d="M 0 0 M1254.76 49.7694 Q1245.73 49.7694 1242.24 51.8354 Q1238.76 53.9013 1238.76 58.8839 Q1238.76 62.8538 1241.35 65.2034 Q1243.99 67.5124 1248.48 67.5124 Q1254.68 67.5124 1258.41 63.1374 Q1262.17 58.7219 1262.17 51.4303 L1262.17 49.7694 L1254.76 49.7694 M1269.63 46.6907 L1269.63 72.576 L1262.17 72.576 L1262.17 65.6895 Q1259.62 69.8214 1255.81 71.8063 Q1252.01 73.7508 1246.5 73.7508 Q1239.53 73.7508 1235.4 69.8619 Q1231.31 65.9325 1231.31 59.3701 Q1231.31 51.7138 1236.41 47.825 Q1241.56 43.9361 1251.72 43.9361 L1262.17 43.9361 L1262.17 43.2069 Q1262.17 38.0623 1258.77 35.2672 Q1255.41 32.4315 1249.29 32.4315 Q1245.4 32.4315 1241.72 33.3632 Q1238.03 34.295 1234.63 36.1584 L1234.63 29.2718 Q1238.72 27.692 1242.57 26.9223 Q1246.42 26.1121 1250.06 26.1121 Q1259.91 26.1121 1264.77 31.2163 Q1269.63 36.3204 1269.63 46.6907 Z" fill="#000000" fill-rule="evenodd" fill-opacity="1" /><path clip-path="url(#clip270)" d="M 0 0 M1284.82 14.324 L1284.82 27.2059 L1300.17 27.2059 L1300.17 32.9987 L1284.82 32.9987 L1284.82 57.6282 Q1284.82 63.1779 1286.32 64.7578 Q1287.86 66.3376 1292.52 66.3376 L1300.17 66.3376 L1300.17 72.576 L1292.52 72.576 Q1283.89 72.576 1280.61 69.3758 Q1277.32 66.1351 1277.32 57.6282 L1277.32 32.9987 L1271.86 32.9987 L1271.86 27.2059 L1277.32 27.2059 L1277.32 14.324 L1284.82 14.324 Z" fill="#000000" fill-rule="evenodd" fill-opacity="1" /><path clip-path="url(#clip270)" d="M 0 0 M1328.61 49.7694 Q1319.58 49.7694 1316.09 51.8354 Q1312.61 53.9013 1312.61 58.8839 Q1312.61 62.8538 1315.2 65.2034 Q1317.83 67.5124 1322.33 67.5124 Q1328.53 67.5124 1332.25 63.1374 Q1336.02 58.7219 1336.02 51.4303 L1336.02 49.7694 L1328.61 49.7694 M1343.48 46.6907 L1343.48 72.576 L1336.02 72.576 L1336.02 65.6895 Q1333.47 69.8214 1329.66 71.8063 Q1325.85 73.7508 1320.35 73.7508 Q1313.38 73.7508 1309.25 69.8619 Q1305.15 65.9325 1305.15 59.3701 Q1305.15 51.7138 1310.26 47.825 Q1315.4 43.9361 1325.57 43.9361 L1336.02 43.9361 L1336.02 43.2069 Q1336.02 38.0623 1332.62 35.2672 Q1329.26 32.4315 1323.14 32.4315 Q1319.25 32.4315 1315.57 33.3632 Q1311.88 34.295 1308.48 36.1584 L1308.48 29.2718 Q1312.57 27.692 1316.42 26.9223 Q1320.26 26.1121 1323.91 26.1121 Q1333.75 26.1121 1338.61 31.2163 Q1343.48 36.3204 1343.48 46.6907 Z" fill="#000000" fill-rule="evenodd" fill-opacity="1" /><polyline clip-path="url(#clip272)" style="stroke:#009af9; stroke-width:4; stroke-opacity:1; fill:none" points="
  228.088,1447.87 228.088,1365.8 262.468,1365.8 262.468,1229.01 296.848,1229.01 296.848,1283.73 331.227,1283.73 331.227,1242.69 365.607,1242.69 365.607,1174.29 
  399.987,1174.29 399.987,1133.26 434.367,1133.26 434.367,1010.15 468.746,1010.15 468.746,941.75 503.126,941.75 503.126,996.466 537.506,996.466 537.506,859.676 
  571.886,859.676 571.886,900.713 606.265,900.713 606.265,941.75 640.645,941.75 640.645,1064.86 675.025,1064.86 675.025,928.071 709.405,928.071 709.405,1119.58 
  743.784,1119.58 778.164,1119.58 778.164,1160.61 812.544,1160.61 812.544,1311.08 846.923,1311.08 881.303,1311.08 881.303,1393.16 
  915.683,1393.16 915.683,1338.44 950.063,1338.44 950.063,1393.16 984.442,1393.16 984.442,1447.87 1018.82,1447.87 1018.82,1434.19 1053.2,1434.19 1053.2,1406.84 
  1087.58,1406.84 1087.58,1420.52 1121.96,1420.52 1121.96,1434.19 1156.34,1434.19 1156.34,1393.16 1190.72,1393.16 1190.72,1352.12 1225.1,1352.12 1225.1,1338.44 
  1259.48,1338.44 1259.48,1283.73 1293.86,1283.73 1293.86,1215.33 1328.24,1215.33 1328.24,1092.22 1362.62,1092.22 1362.62,996.466 1397,996.466 1397,941.75 
  1431.38,941.75 1431.38,681.849 1465.76,681.849 1465.76,640.812 1500.14,640.812 1500.14,517.701 1534.52,517.701 1534.52,230.442 1568.9,230.442 1568.9,367.232 
  1603.28,367.232 1603.28,162.047 1637.66,162.047 1637.66,449.306 1672.04,449.306 1672.04,476.664 1706.42,476.664 1706.42,709.207 1740.8,709.207 1740.8,763.923 
  1775.18,763.923 1775.18,900.713 1809.56,900.713 1809.56,832.318 1843.94,832.318 1843.94,1092.22 1878.32,1092.22 1878.32,1229.01 1912.7,1229.01 1912.7,1324.76 
  1947.08,1324.76 1947.08,1297.4 1981.45,1297.4 1981.45,1393.16 2015.83,1393.16 2015.83,1406.84 2050.21,1406.84 2050.21,1434.19 2084.59,1434.19 
  2118.97,1434.19 2153.35,1434.19 2153.35,1447.87 2187.73,1447.87 2222.11,1447.87 2256.49,1447.87 
  2290.87,1447.87 
  "/>
<path clip-path="url(#clip270)" d="
M1940.93 289.865 L2279.87 289.865 L2279.87 168.905 L1940.93 168.905  Z
  " fill="#ffffff" fill-rule="evenodd" fill-opacity="1"/>
<polyline clip-path="url(#clip270)" style="stroke:#000000; stroke-width:4; stroke-opacity:1; fill:none" points="
  1940.93,289.865 2279.87,289.865 2279.87,168.905 1940.93,168.905 1940.93,289.865 
  "/>
<polyline clip-path="url(#clip270)" style="stroke:#009af9; stroke-width:4; stroke-opacity:1; fill:none" points="
  1965.22,229.385 2110.99,229.385 
  "/>
<path clip-path="url(#clip270)" d="M 0 0 M2139.96 215.947 L2139.96 242.822 L2145.61 242.822 Q2152.76 242.822 2156.07 239.581 Q2159.41 236.341 2159.41 229.35 Q2159.41 222.406 2156.07 219.188 Q2152.76 215.947 2145.61 215.947 L2139.96 215.947 M2135.29 212.105 L2144.89 212.105 Q2154.94 212.105 2159.64 216.294 Q2164.34 220.461 2164.34 229.35 Q2164.34 238.285 2159.61 242.475 Q2154.89 246.665 2144.89 246.665 L2135.29 246.665 L2135.29 212.105 Z" fill="#000000" fill-rule="evenodd" fill-opacity="1" /><path clip-path="url(#clip270)" d="M 0 0 M2180.59 233.632 Q2175.42 233.632 2173.43 234.813 Q2171.44 235.993 2171.44 238.841 Q2171.44 241.109 2172.92 242.452 Q2174.43 243.771 2177 243.771 Q2180.54 243.771 2182.67 241.271 Q2184.82 238.748 2184.82 234.581 L2184.82 233.632 L2180.59 233.632 M2189.08 231.873 L2189.08 246.665 L2184.82 246.665 L2184.82 242.729 Q2183.36 245.091 2181.19 246.225 Q2179.01 247.336 2175.86 247.336 Q2171.88 247.336 2169.52 245.114 Q2167.18 242.868 2167.18 239.118 Q2167.18 234.743 2170.1 232.521 Q2173.04 230.299 2178.85 230.299 L2184.82 230.299 L2184.82 229.882 Q2184.82 226.943 2182.88 225.345 Q2180.96 223.725 2177.46 223.725 Q2175.24 223.725 2173.13 224.257 Q2171.03 224.79 2169.08 225.855 L2169.08 221.919 Q2171.42 221.017 2173.62 220.577 Q2175.82 220.114 2177.9 220.114 Q2183.53 220.114 2186.3 223.031 Q2189.08 225.947 2189.08 231.873 Z" fill="#000000" fill-rule="evenodd" fill-opacity="1" /><path clip-path="url(#clip270)" d="M 0 0 M2197.76 213.378 L2197.76 220.739 L2206.54 220.739 L2206.54 224.049 L2197.76 224.049 L2197.76 238.123 Q2197.76 241.294 2198.62 242.197 Q2199.5 243.1 2202.16 243.1 L2206.54 243.1 L2206.54 246.665 L2202.16 246.665 Q2197.23 246.665 2195.36 244.836 Q2193.48 242.984 2193.48 238.123 L2193.48 224.049 L2190.36 224.049 L2190.36 220.739 L2193.48 220.739 L2193.48 213.378 L2197.76 213.378 Z" fill="#000000" fill-rule="evenodd" fill-opacity="1" /><path clip-path="url(#clip270)" d="M 0 0 M2222.79 233.632 Q2217.62 233.632 2215.63 234.813 Q2213.64 235.993 2213.64 238.841 Q2213.64 241.109 2215.12 242.452 Q2216.63 243.771 2219.2 243.771 Q2222.74 243.771 2224.87 241.271 Q2227.02 238.748 2227.02 234.581 L2227.02 233.632 L2222.79 233.632 M2231.28 231.873 L2231.28 246.665 L2227.02 246.665 L2227.02 242.729 Q2225.56 245.091 2223.39 246.225 Q2221.21 247.336 2218.06 247.336 Q2214.08 247.336 2211.72 245.114 Q2209.38 242.868 2209.38 239.118 Q2209.38 234.743 2212.3 232.521 Q2215.24 230.299 2221.05 230.299 L2227.02 230.299 L2227.02 229.882 Q2227.02 226.943 2225.08 225.345 Q2223.16 223.725 2219.66 223.725 Q2217.44 223.725 2215.33 224.257 Q2213.23 224.79 2211.28 225.855 L2211.28 221.919 Q2213.62 221.017 2215.82 220.577 Q2218.02 220.114 2220.1 220.114 Q2225.73 220.114 2228.5 223.031 Q2231.28 225.947 2231.28 231.873 Z" fill="#000000" fill-rule="evenodd" fill-opacity="1" /></svg>
