<?xml version="1.0" encoding="utf-8"?>
<svg xmlns="http://www.w3.org/2000/svg" xmlns:xlink="http://www.w3.org/1999/xlink" width="600" height="400" viewBox="0 0 2400 1600">
<defs>
  <clipPath id="clip850">
    <rect x="0" y="0" width="2400" height="1600"/>
  </clipPath>
</defs>
<path clip-path="url(#clip850)" d="M0 1600 L2400 1600 L2400 0 L0 0  Z" fill="#ffffff" fill-rule="evenodd" fill-opacity="1"/>
<defs>
  <clipPath id="clip851">
    <rect x="480" y="0" width="1681" height="1600"/>
  </clipPath>
</defs>
<path clip-path="url(#clip850)" d="M172.015 1486.45 L2352.76 1486.45 L2352.76 123.472 L172.015 123.472  Z" fill="#ffffff" fill-rule="evenodd" fill-opacity="1"/>
<defs>
  <clipPath id="clip852">
    <rect x="172" y="123" width="2182" height="1364"/>
  </clipPath>
</defs>
<polyline clip-path="url(#clip852)" style="stroke:#000000; stroke-linecap:round; stroke-linejoin:round; stroke-width:2; stroke-opacity:0.1; fill:none" points="233.734,1486.45 233.734,123.472 "/>
<polyline clip-path="url(#clip852)" style="stroke:#000000; stroke-linecap:round; stroke-linejoin:round; stroke-width:2; stroke-opacity:0.1; fill:none" points="576.618,1486.45 576.618,123.472 "/>
<polyline clip-path="url(#clip852)" style="stroke:#000000; stroke-linecap:round; stroke-linejoin:round; stroke-width:2; stroke-opacity:0.1; fill:none" points="919.502,1486.45 919.502,123.472 "/>
<polyline clip-path="url(#clip852)" style="stroke:#000000; stroke-linecap:round; stroke-linejoin:round; stroke-width:2; stroke-opacity:0.1; fill:none" points="1262.39,1486.45 1262.39,123.472 "/>
<polyline clip-path="url(#clip852)" style="stroke:#000000; stroke-linecap:round; stroke-linejoin:round; stroke-width:2; stroke-opacity:0.1; fill:none" points="1605.27,1486.45 1605.27,123.472 "/>
<polyline clip-path="url(#clip852)" style="stroke:#000000; stroke-linecap:round; stroke-linejoin:round; stroke-width:2; stroke-opacity:0.1; fill:none" points="1948.15,1486.45 1948.15,123.472 "/>
<polyline clip-path="url(#clip852)" style="stroke:#000000; stroke-linecap:round; stroke-linejoin:round; stroke-width:2; stroke-opacity:0.1; fill:none" points="2291.04,1486.45 2291.04,123.472 "/>
<polyline clip-path="url(#clip852)" style="stroke:#000000; stroke-linecap:round; stroke-linejoin:round; stroke-width:2; stroke-opacity:0.1; fill:none" points="172.015,1447.87 2352.76,1447.87 "/>
<polyline clip-path="url(#clip852)" style="stroke:#000000; stroke-linecap:round; stroke-linejoin:round; stroke-width:2; stroke-opacity:0.1; fill:none" points="172.015,1155.64 2352.76,1155.64 "/>
<polyline clip-path="url(#clip852)" style="stroke:#000000; stroke-linecap:round; stroke-linejoin:round; stroke-width:2; stroke-opacity:0.1; fill:none" points="172.015,863.407 2352.76,863.407 "/>
<polyline clip-path="url(#clip852)" style="stroke:#000000; stroke-linecap:round; stroke-linejoin:round; stroke-width:2; stroke-opacity:0.1; fill:none" points="172.015,571.173 2352.76,571.173 "/>
<polyline clip-path="url(#clip852)" style="stroke:#000000; stroke-linecap:round; stroke-linejoin:round; stroke-width:2; stroke-opacity:0.1; fill:none" points="172.015,278.94 2352.76,278.94 "/>
<polyline clip-path="url(#clip850)" style="stroke:#000000; stroke-linecap:round; stroke-linejoin:round; stroke-width:4; stroke-opacity:1; fill:none" points="172.015,1486.45 2352.76,1486.45 "/>
<polyline clip-path="url(#clip850)" style="stroke:#000000; stroke-linecap:round; stroke-linejoin:round; stroke-width:4; stroke-opacity:1; fill:none" points="233.734,1486.45 233.734,1467.55 "/>
<polyline clip-path="url(#clip850)" style="stroke:#000000; stroke-linecap:round; stroke-linejoin:round; stroke-width:4; stroke-opacity:1; fill:none" points="576.618,1486.45 576.618,1467.55 "/>
<polyline clip-path="url(#clip850)" style="stroke:#000000; stroke-linecap:round; stroke-linejoin:round; stroke-width:4; stroke-opacity:1; fill:none" points="919.502,1486.45 919.502,1467.55 "/>
<polyline clip-path="url(#clip850)" style="stroke:#000000; stroke-linecap:round; stroke-linejoin:round; stroke-width:4; stroke-opacity:1; fill:none" points="1262.39,1486.45 1262.39,1467.55 "/>
<polyline clip-path="url(#clip850)" style="stroke:#000000; stroke-linecap:round; stroke-linejoin:round; stroke-width:4; stroke-opacity:1; fill:none" points="1605.27,1486.45 1605.27,1467.55 "/>
<polyline clip-path="url(#clip850)" style="stroke:#000000; stroke-linecap:round; stroke-linejoin:round; stroke-width:4; stroke-opacity:1; fill:none" points="1948.15,1486.45 1948.15,1467.55 "/>
<polyline clip-path="url(#clip850)" style="stroke:#000000; stroke-linecap:round; stroke-linejoin:round; stroke-width:4; stroke-opacity:1; fill:none" points="2291.04,1486.45 2291.04,1467.55 "/>
<path clip-path="url(#clip850)" d="M203.676 1532.02 L233.352 1532.02 L233.352 1535.95 L203.676 1535.95 L203.676 1532.02 Z" fill="#000000" fill-rule="nonzero" fill-opacity="1" /><path clip-path="url(#clip850)" d="M247.472 1544.91 L263.792 1544.91 L263.792 1548.85 L241.847 1548.85 L241.847 1544.91 Q244.509 1542.16 249.093 1537.53 Q253.699 1532.88 254.88 1531.53 Q257.125 1529.01 258.005 1527.27 Q258.907 1525.51 258.907 1523.82 Q258.907 1521.07 256.963 1519.33 Q255.042 1517.6 251.94 1517.6 Q249.741 1517.6 247.287 1518.36 Q244.857 1519.13 242.079 1520.68 L242.079 1515.95 Q244.903 1514.82 247.357 1514.24 Q249.81 1513.66 251.847 1513.66 Q257.218 1513.66 260.412 1516.35 Q263.606 1519.03 263.606 1523.52 Q263.606 1525.65 262.796 1527.57 Q262.009 1529.47 259.903 1532.07 Q259.324 1532.74 256.222 1535.95 Q253.12 1539.15 247.472 1544.91 Z" fill="#000000" fill-rule="nonzero" fill-opacity="1" /><path clip-path="url(#clip850)" d="M546.375 1532.02 L576.051 1532.02 L576.051 1535.95 L546.375 1535.95 L546.375 1532.02 Z" fill="#000000" fill-rule="nonzero" fill-opacity="1" /><path clip-path="url(#clip850)" d="M586.953 1544.91 L594.592 1544.91 L594.592 1518.55 L586.282 1520.21 L586.282 1515.95 L594.546 1514.29 L599.222 1514.29 L599.222 1544.91 L606.861 1544.91 L606.861 1548.85 L586.953 1548.85 L586.953 1544.91 Z" fill="#000000" fill-rule="nonzero" fill-opacity="1" /><path clip-path="url(#clip850)" d="M919.502 1517.37 Q915.89 1517.37 914.062 1520.93 Q912.256 1524.47 912.256 1531.6 Q912.256 1538.71 914.062 1542.27 Q915.89 1545.82 919.502 1545.82 Q923.136 1545.82 924.941 1542.27 Q926.77 1538.71 926.77 1531.6 Q926.77 1524.47 924.941 1520.93 Q923.136 1517.37 919.502 1517.37 M919.502 1513.66 Q925.312 1513.66 928.367 1518.27 Q931.446 1522.85 931.446 1531.6 Q931.446 1540.33 928.367 1544.94 Q925.312 1549.52 919.502 1549.52 Q913.691 1549.52 910.613 1544.94 Q907.557 1540.33 907.557 1531.6 Q907.557 1522.85 910.613 1518.27 Q913.691 1513.66 919.502 1513.66 Z" fill="#000000" fill-rule="nonzero" fill-opacity="1" /><path clip-path="url(#clip850)" d="M1252.77 1544.91 L1260.41 1544.91 L1260.41 1518.55 L1252.1 1520.21 L1252.1 1515.95 L1260.36 1514.29 L1265.04 1514.29 L1265.04 1544.91 L1272.67 1544.91 L1272.67 1548.85 L1252.77 1548.85 L1252.77 1544.91 Z" fill="#000000" fill-rule="nonzero" fill-opacity="1" /><path clip-path="url(#clip850)" d="M1599.92 1544.91 L1616.24 1544.91 L1616.24 1548.85 L1594.3 1548.85 L1594.3 1544.91 Q1596.96 1542.16 1601.54 1537.53 Q1606.15 1532.88 1607.33 1531.53 Q1609.57 1529.01 1610.45 1527.27 Q1611.36 1525.51 1611.36 1523.82 Q1611.36 1521.07 1609.41 1519.33 Q1607.49 1517.6 1604.39 1517.6 Q1602.19 1517.6 1599.74 1518.36 Q1597.31 1519.13 1594.53 1520.68 L1594.53 1515.95 Q1597.35 1514.82 1599.81 1514.24 Q1602.26 1513.66 1604.3 1513.66 Q1609.67 1513.66 1612.86 1516.35 Q1616.06 1519.03 1616.06 1523.52 Q1616.06 1525.65 1615.25 1527.57 Q1614.46 1529.47 1612.35 1532.07 Q1611.77 1532.74 1608.67 1535.95 Q1605.57 1539.15 1599.92 1544.91 Z" fill="#000000" fill-rule="nonzero" fill-opacity="1" /><path clip-path="url(#clip850)" d="M1952.4 1530.21 Q1955.76 1530.93 1957.63 1533.2 Q1959.53 1535.47 1959.53 1538.8 Q1959.53 1543.92 1956.01 1546.72 Q1952.49 1549.52 1946.01 1549.52 Q1943.84 1549.52 1941.52 1549.08 Q1939.23 1548.66 1936.78 1547.81 L1936.78 1543.29 Q1938.72 1544.43 1941.03 1545.01 Q1943.35 1545.58 1945.87 1545.58 Q1950.27 1545.58 1952.56 1543.85 Q1954.88 1542.11 1954.88 1538.8 Q1954.88 1535.75 1952.72 1534.03 Q1950.6 1532.3 1946.78 1532.3 L1942.75 1532.3 L1942.75 1528.45 L1946.96 1528.45 Q1950.41 1528.45 1952.24 1527.09 Q1954.07 1525.7 1954.07 1523.11 Q1954.07 1520.45 1952.17 1519.03 Q1950.29 1517.6 1946.78 1517.6 Q1944.85 1517.6 1942.66 1518.01 Q1940.46 1518.43 1937.82 1519.31 L1937.82 1515.14 Q1940.48 1514.4 1942.79 1514.03 Q1945.13 1513.66 1947.19 1513.66 Q1952.52 1513.66 1955.62 1516.09 Q1958.72 1518.5 1958.72 1522.62 Q1958.72 1525.49 1957.08 1527.48 Q1955.43 1529.45 1952.4 1530.21 Z" fill="#000000" fill-rule="nonzero" fill-opacity="1" /><path clip-path="url(#clip850)" d="M2294.05 1518.36 L2282.24 1536.81 L2294.05 1536.81 L2294.05 1518.36 M2292.82 1514.29 L2298.7 1514.29 L2298.7 1536.81 L2303.63 1536.81 L2303.63 1540.7 L2298.7 1540.7 L2298.7 1548.85 L2294.05 1548.85 L2294.05 1540.7 L2278.44 1540.7 L2278.44 1536.19 L2292.82 1514.29 Z" fill="#000000" fill-rule="nonzero" fill-opacity="1" /><polyline clip-path="url(#clip850)" style="stroke:#000000; stroke-linecap:round; stroke-linejoin:round; stroke-width:4; stroke-opacity:1; fill:none" points="172.015,1486.45 172.015,123.472 "/>
<polyline clip-path="url(#clip850)" style="stroke:#000000; stroke-linecap:round; stroke-linejoin:round; stroke-width:4; stroke-opacity:1; fill:none" points="172.015,1447.87 190.912,1447.87 "/>
<polyline clip-path="url(#clip850)" style="stroke:#000000; stroke-linecap:round; stroke-linejoin:round; stroke-width:4; stroke-opacity:1; fill:none" points="172.015,1155.64 190.912,1155.64 "/>
<polyline clip-path="url(#clip850)" style="stroke:#000000; stroke-linecap:round; stroke-linejoin:round; stroke-width:4; stroke-opacity:1; fill:none" points="172.015,863.407 190.912,863.407 "/>
<polyline clip-path="url(#clip850)" style="stroke:#000000; stroke-linecap:round; stroke-linejoin:round; stroke-width:4; stroke-opacity:1; fill:none" points="172.015,571.173 190.912,571.173 "/>
<polyline clip-path="url(#clip850)" style="stroke:#000000; stroke-linecap:round; stroke-linejoin:round; stroke-width:4; stroke-opacity:1; fill:none" points="172.015,278.94 190.912,278.94 "/>
<path clip-path="url(#clip850)" d="M124.07 1433.67 Q120.459 1433.67 118.631 1437.24 Q116.825 1440.78 116.825 1447.91 Q116.825 1455.01 118.631 1458.58 Q120.459 1462.12 124.07 1462.12 Q127.705 1462.12 129.51 1458.58 Q131.339 1455.01 131.339 1447.91 Q131.339 1440.78 129.51 1437.24 Q127.705 1433.67 124.07 1433.67 M124.07 1429.97 Q129.881 1429.97 132.936 1434.57 Q136.015 1439.16 136.015 1447.91 Q136.015 1456.63 132.936 1461.24 Q129.881 1465.82 124.07 1465.82 Q118.26 1465.82 115.182 1461.24 Q112.126 1456.63 112.126 1447.91 Q112.126 1439.16 115.182 1434.57 Q118.26 1429.97 124.07 1429.97 Z" fill="#000000" fill-rule="nonzero" fill-opacity="1" /><path clip-path="url(#clip850)" d="M57.7745 1168.98 L74.0939 1168.98 L74.0939 1172.92 L52.1495 1172.92 L52.1495 1168.98 Q54.8115 1166.23 59.3949 1161.6 Q64.0013 1156.95 65.1819 1155.61 Q67.4272 1153.08 68.3068 1151.35 Q69.2096 1149.59 69.2096 1147.9 Q69.2096 1145.14 67.2652 1143.41 Q65.3439 1141.67 62.2421 1141.67 Q60.043 1141.67 57.5893 1142.43 Q55.1588 1143.2 52.381 1144.75 L52.381 1140.03 Q55.2051 1138.89 57.6588 1138.31 Q60.1124 1137.73 62.1495 1137.73 Q67.5198 1137.73 70.7142 1140.42 Q73.9087 1143.11 73.9087 1147.6 Q73.9087 1149.73 73.0985 1151.65 Q72.3115 1153.54 70.205 1156.14 Q69.6263 1156.81 66.5245 1160.03 Q63.4226 1163.22 57.7745 1168.98 Z" fill="#000000" fill-rule="nonzero" fill-opacity="1" /><path clip-path="url(#clip850)" d="M93.9086 1141.44 Q90.2975 1141.44 88.4688 1145 Q86.6632 1148.54 86.6632 1155.67 Q86.6632 1162.78 88.4688 1166.35 Q90.2975 1169.89 93.9086 1169.89 Q97.5428 1169.89 99.3483 1166.35 Q101.177 1162.78 101.177 1155.67 Q101.177 1148.54 99.3483 1145 Q97.5428 1141.44 93.9086 1141.44 M93.9086 1137.73 Q99.7187 1137.73 102.774 1142.34 Q105.853 1146.92 105.853 1155.67 Q105.853 1164.4 102.774 1169.01 Q99.7187 1173.59 93.9086 1173.59 Q88.0984 1173.59 85.0197 1169.01 Q81.9642 1164.4 81.9642 1155.67 Q81.9642 1146.92 85.0197 1142.34 Q88.0984 1137.73 93.9086 1137.73 Z" fill="#000000" fill-rule="nonzero" fill-opacity="1" /><path clip-path="url(#clip850)" d="M124.07 1141.44 Q120.459 1141.44 118.631 1145 Q116.825 1148.54 116.825 1155.67 Q116.825 1162.78 118.631 1166.35 Q120.459 1169.89 124.07 1169.89 Q127.705 1169.89 129.51 1166.35 Q131.339 1162.78 131.339 1155.67 Q131.339 1148.54 129.51 1145 Q127.705 1141.44 124.07 1141.44 M124.07 1137.73 Q129.881 1137.73 132.936 1142.34 Q136.015 1146.92 136.015 1155.67 Q136.015 1164.4 132.936 1169.01 Q129.881 1173.59 124.07 1173.59 Q118.26 1173.59 115.182 1169.01 Q112.126 1164.4 112.126 1155.67 Q112.126 1146.92 115.182 1142.34 Q118.26 1137.73 124.07 1137.73 Z" fill="#000000" fill-rule="nonzero" fill-opacity="1" /><path clip-path="url(#clip850)" d="M66.5939 850.201 L54.7884 868.65 L66.5939 868.65 L66.5939 850.201 M65.367 846.127 L71.2466 846.127 L71.2466 868.65 L76.1772 868.65 L76.1772 872.539 L71.2466 872.539 L71.2466 880.687 L66.5939 880.687 L66.5939 872.539 L50.9921 872.539 L50.9921 868.025 L65.367 846.127 Z" fill="#000000" fill-rule="nonzero" fill-opacity="1" /><path clip-path="url(#clip850)" d="M93.9086 849.205 Q90.2975 849.205 88.4688 852.77 Q86.6632 856.312 86.6632 863.441 Q86.6632 870.548 88.4688 874.113 Q90.2975 877.654 93.9086 877.654 Q97.5428 877.654 99.3483 874.113 Q101.177 870.548 101.177 863.441 Q101.177 856.312 99.3483 852.77 Q97.5428 849.205 93.9086 849.205 M93.9086 845.502 Q99.7187 845.502 102.774 850.108 Q105.853 854.691 105.853 863.441 Q105.853 872.168 102.774 876.775 Q99.7187 881.358 93.9086 881.358 Q88.0984 881.358 85.0197 876.775 Q81.9642 872.168 81.9642 863.441 Q81.9642 854.691 85.0197 850.108 Q88.0984 845.502 93.9086 845.502 Z" fill="#000000" fill-rule="nonzero" fill-opacity="1" /><path clip-path="url(#clip850)" d="M124.07 849.205 Q120.459 849.205 118.631 852.77 Q116.825 856.312 116.825 863.441 Q116.825 870.548 118.631 874.113 Q120.459 877.654 124.07 877.654 Q127.705 877.654 129.51 874.113 Q131.339 870.548 131.339 863.441 Q131.339 856.312 129.51 852.77 Q127.705 849.205 124.07 849.205 M124.07 845.502 Q129.881 845.502 132.936 850.108 Q136.015 854.691 136.015 863.441 Q136.015 872.168 132.936 876.775 Q129.881 881.358 124.07 881.358 Q118.26 881.358 115.182 876.775 Q112.126 872.168 112.126 863.441 Q112.126 854.691 115.182 850.108 Q118.26 845.502 124.07 845.502 Z" fill="#000000" fill-rule="nonzero" fill-opacity="1" /><path clip-path="url(#clip850)" d="M64.3254 569.31 Q61.1773 569.31 59.3254 571.463 Q57.4967 573.616 57.4967 577.366 Q57.4967 581.092 59.3254 583.268 Q61.1773 585.421 64.3254 585.421 Q67.4735 585.421 69.3022 583.268 Q71.1541 581.092 71.1541 577.366 Q71.1541 573.616 69.3022 571.463 Q67.4735 569.31 64.3254 569.31 M73.6077 554.657 L73.6077 558.917 Q71.8485 558.083 70.0429 557.643 Q68.2606 557.204 66.5013 557.204 Q61.8717 557.204 59.418 560.329 Q56.9875 563.454 56.6402 569.773 Q58.006 567.759 60.0662 566.694 Q62.1263 565.606 64.6032 565.606 Q69.8115 565.606 72.8207 568.778 Q75.8531 571.926 75.8531 577.366 Q75.8531 582.69 72.705 585.907 Q69.5568 589.125 64.3254 589.125 Q58.33 589.125 55.1588 584.541 Q51.9875 579.935 51.9875 571.208 Q51.9875 563.014 55.8764 558.153 Q59.7652 553.268 66.3161 553.268 Q68.0754 553.268 69.8578 553.616 Q71.6633 553.963 73.6077 554.657 Z" fill="#000000" fill-rule="nonzero" fill-opacity="1" /><path clip-path="url(#clip850)" d="M93.9086 556.972 Q90.2975 556.972 88.4688 560.537 Q86.6632 564.079 86.6632 571.208 Q86.6632 578.315 88.4688 581.879 Q90.2975 585.421 93.9086 585.421 Q97.5428 585.421 99.3483 581.879 Q101.177 578.315 101.177 571.208 Q101.177 564.079 99.3483 560.537 Q97.5428 556.972 93.9086 556.972 M93.9086 553.268 Q99.7187 553.268 102.774 557.875 Q105.853 562.458 105.853 571.208 Q105.853 579.935 102.774 584.541 Q99.7187 589.125 93.9086 589.125 Q88.0984 589.125 85.0197 584.541 Q81.9642 579.935 81.9642 571.208 Q81.9642 562.458 85.0197 557.875 Q88.0984 553.268 93.9086 553.268 Z" fill="#000000" fill-rule="nonzero" fill-opacity="1" /><path clip-path="url(#clip850)" d="M124.07 556.972 Q120.459 556.972 118.631 560.537 Q116.825 564.079 116.825 571.208 Q116.825 578.315 118.631 581.879 Q120.459 585.421 124.07 585.421 Q127.705 585.421 129.51 581.879 Q131.339 578.315 131.339 571.208 Q131.339 564.079 129.51 560.537 Q127.705 556.972 124.07 556.972 M124.07 553.268 Q129.881 553.268 132.936 557.875 Q136.015 562.458 136.015 571.208 Q136.015 579.935 132.936 584.541 Q129.881 589.125 124.07 589.125 Q118.26 589.125 115.182 584.541 Q112.126 579.935 112.126 571.208 Q112.126 562.458 115.182 557.875 Q118.26 553.268 124.07 553.268 Z" fill="#000000" fill-rule="nonzero" fill-opacity="1" /><path clip-path="url(#clip850)" d="M63.7467 279.808 Q60.4134 279.808 58.4921 281.591 Q56.5939 283.373 56.5939 286.498 Q56.5939 289.623 58.4921 291.405 Q60.4134 293.188 63.7467 293.188 Q67.08 293.188 69.0013 291.405 Q70.9226 289.6 70.9226 286.498 Q70.9226 283.373 69.0013 281.591 Q67.1032 279.808 63.7467 279.808 M59.0708 277.818 Q56.0615 277.077 54.3717 275.017 Q52.7051 272.956 52.7051 269.993 Q52.7051 265.85 55.6449 263.443 Q58.6078 261.035 63.7467 261.035 Q68.9087 261.035 71.8485 263.443 Q74.7883 265.85 74.7883 269.993 Q74.7883 272.956 73.0985 275.017 Q71.4318 277.077 68.4457 277.818 Q71.8253 278.605 73.7003 280.896 Q75.5985 283.188 75.5985 286.498 Q75.5985 291.521 72.5198 294.206 Q69.4642 296.891 63.7467 296.891 Q58.0291 296.891 54.9504 294.206 Q51.8949 291.521 51.8949 286.498 Q51.8949 283.188 53.793 280.896 Q55.6912 278.605 59.0708 277.818 M57.3578 270.433 Q57.3578 273.118 59.0245 274.623 Q60.7143 276.128 63.7467 276.128 Q66.7559 276.128 68.4457 274.623 Q70.1587 273.118 70.1587 270.433 Q70.1587 267.748 68.4457 266.244 Q66.7559 264.739 63.7467 264.739 Q60.7143 264.739 59.0245 266.244 Q57.3578 267.748 57.3578 270.433 Z" fill="#000000" fill-rule="nonzero" fill-opacity="1" /><path clip-path="url(#clip850)" d="M93.9086 264.739 Q90.2975 264.739 88.4688 268.304 Q86.6632 271.845 86.6632 278.975 Q86.6632 286.081 88.4688 289.646 Q90.2975 293.188 93.9086 293.188 Q97.5428 293.188 99.3483 289.646 Q101.177 286.081 101.177 278.975 Q101.177 271.845 99.3483 268.304 Q97.5428 264.739 93.9086 264.739 M93.9086 261.035 Q99.7187 261.035 102.774 265.642 Q105.853 270.225 105.853 278.975 Q105.853 287.702 102.774 292.308 Q99.7187 296.891 93.9086 296.891 Q88.0984 296.891 85.0197 292.308 Q81.9642 287.702 81.9642 278.975 Q81.9642 270.225 85.0197 265.642 Q88.0984 261.035 93.9086 261.035 Z" fill="#000000" fill-rule="nonzero" fill-opacity="1" /><path clip-path="url(#clip850)" d="M124.07 264.739 Q120.459 264.739 118.631 268.304 Q116.825 271.845 116.825 278.975 Q116.825 286.081 118.631 289.646 Q120.459 293.188 124.07 293.188 Q127.705 293.188 129.51 289.646 Q131.339 286.081 131.339 278.975 Q131.339 271.845 129.51 268.304 Q127.705 264.739 124.07 264.739 M124.07 261.035 Q129.881 261.035 132.936 265.642 Q136.015 270.225 136.015 278.975 Q136.015 287.702 132.936 292.308 Q129.881 296.891 124.07 296.891 Q118.26 296.891 115.182 292.308 Q112.126 287.702 112.126 278.975 Q112.126 270.225 115.182 265.642 Q118.26 261.035 124.07 261.035 Z" fill="#000000" fill-rule="nonzero" fill-opacity="1" /><path clip-path="url(#clip850)" d="M1179.36 18.8205 L1179.36 65.8515 L1189.25 65.8515 Q1201.76 65.8515 1207.56 60.1802 Q1213.39 54.509 1213.39 42.2752 Q1213.39 30.1225 1207.56 24.4918 Q1201.76 18.8205 1189.25 18.8205 L1179.36 18.8205 M1171.18 12.096 L1187.99 12.096 Q1205.57 12.096 1213.79 19.4281 Q1222.02 26.7198 1222.02 42.2752 Q1222.02 57.9117 1213.75 65.2439 Q1205.49 72.576 1187.99 72.576 L1171.18 72.576 L1171.18 12.096 Z" fill="#000000" fill-rule="nonzero" fill-opacity="1" /><path clip-path="url(#clip850)" d="M1255.36 49.7694 Q1246.32 49.7694 1242.84 51.8354 Q1239.36 53.9013 1239.36 58.8839 Q1239.36 62.8538 1241.95 65.2034 Q1244.58 67.5124 1249.08 67.5124 Q1255.28 67.5124 1259 63.1374 Q1262.77 58.7219 1262.77 51.4303 L1262.77 49.7694 L1255.36 49.7694 M1270.22 46.6907 L1270.22 72.576 L1262.77 72.576 L1262.77 65.6895 Q1260.22 69.8214 1256.41 71.8063 Q1252.6 73.7508 1247.09 73.7508 Q1240.13 73.7508 1235.99 69.8619 Q1231.9 65.9325 1231.9 59.3701 Q1231.9 51.7138 1237.01 47.825 Q1242.15 43.9361 1252.32 43.9361 L1262.77 43.9361 L1262.77 43.2069 Q1262.77 38.0623 1259.37 35.2672 Q1256.01 32.4315 1249.89 32.4315 Q1246 32.4315 1242.31 33.3632 Q1238.63 34.295 1235.22 36.1584 L1235.22 29.2718 Q1239.32 27.692 1243.16 26.9223 Q1247.01 26.1121 1250.66 26.1121 Q1260.5 26.1121 1265.36 31.2163 Q1270.22 36.3204 1270.22 46.6907 Z" fill="#000000" fill-rule="nonzero" fill-opacity="1" /><path clip-path="url(#clip850)" d="M1292.95 14.324 L1292.95 27.2059 L1308.3 27.2059 L1308.3 32.9987 L1292.95 32.9987 L1292.95 57.6282 Q1292.95 63.1779 1294.45 64.7578 Q1295.99 66.3376 1300.65 66.3376 L1308.3 66.3376 L1308.3 72.576 L1300.65 72.576 Q1292.02 72.576 1288.74 69.3758 Q1285.46 66.1351 1285.46 57.6282 L1285.46 32.9987 L1279.99 32.9987 L1279.99 27.2059 L1285.46 27.2059 L1285.46 14.324 L1292.95 14.324 Z" fill="#000000" fill-rule="nonzero" fill-opacity="1" /><path clip-path="url(#clip850)" d="M1338.72 49.7694 Q1329.69 49.7694 1326.21 51.8354 Q1322.72 53.9013 1322.72 58.8839 Q1322.72 62.8538 1325.32 65.2034 Q1327.95 67.5124 1332.45 67.5124 Q1338.64 67.5124 1342.37 63.1374 Q1346.14 58.7219 1346.14 51.4303 L1346.14 49.7694 L1338.72 49.7694 M1353.59 46.6907 L1353.59 72.576 L1346.14 72.576 L1346.14 65.6895 Q1343.59 69.8214 1339.78 71.8063 Q1335.97 73.7508 1330.46 73.7508 Q1323.49 73.7508 1319.36 69.8619 Q1315.27 65.9325 1315.27 59.3701 Q1315.27 51.7138 1320.37 47.825 Q1325.52 43.9361 1335.69 43.9361 L1346.14 43.9361 L1346.14 43.2069 Q1346.14 38.0623 1342.74 35.2672 Q1339.37 32.4315 1333.26 32.4315 Q1329.37 32.4315 1325.68 33.3632 Q1321.99 34.295 1318.59 36.1584 L1318.59 29.2718 Q1322.68 27.692 1326.53 26.9223 Q1330.38 26.1121 1334.03 26.1121 Q1343.87 26.1121 1348.73 31.2163 Q1353.59 36.3204 1353.59 46.6907 Z" fill="#000000" fill-rule="nonzero" fill-opacity="1" /><polyline clip-path="url(#clip852)" style="stroke:#009af9; stroke-linecap:round; stroke-linejoin:round; stroke-width:4; stroke-opacity:1; fill:none" points="233.734,1447.87 233.734,1374.81 268.022,1374.81 268.022,1272.53 302.311,1272.53 302.311,1330.98 336.599,1330.98 336.599,1111.8 370.887,1111.8 370.887,1257.92 405.176,1257.92 405.176,1170.25 439.464,1170.25 439.464,1067.97 473.753,1067.97 473.753,819.572 508.041,819.572 508.041,951.077 542.329,951.077 542.329,804.96 576.618,804.96 576.618,644.232 610.906,644.232 610.906,775.737 645.194,775.737 645.194,863.407 679.483,863.407 679.483,936.465 713.771,936.465 713.771,1097.19 748.06,1097.19 748.06,1243.31 782.348,1243.31 782.348,1111.8 816.636,1111.8 816.636,1287.14 850.925,1287.14 850.925,1360.2 885.213,1360.2 885.213,1404.04 919.502,1404.04 919.502,1360.2 953.79,1360.2 953.79,1447.87 988.078,1447.87 1022.37,1447.87 1022.37,1433.26 1056.66,1433.26 1056.66,1374.81 1090.94,1374.81 1090.94,1433.26 1125.23,1433.26 1125.23,1447.87 1159.52,1447.87 1159.52,1374.81 1193.81,1374.81 1193.81,1360.2 1228.1,1360.2 1228.1,1345.59 1262.39,1345.59 1262.39,1330.98 1296.67,1330.98 1296.67,1141.03 1330.96,1141.03 1330.96,1009.52 1365.25,1009.52 1365.25,936.465 1399.54,936.465 1399.54,819.572 1433.83,819.572 1433.83,644.232 1468.12,644.232 1468.12,351.999 1502.4,351.999 1502.4,498.115 1536.69,498.115 1536.69,293.552 1570.98,293.552 1570.98,381.222 1605.27,381.222 1605.27,351.999 1639.56,351.999 1639.56,439.668 1673.85,439.668 1673.85,162.047 1708.13,162.047 1708.13,644.232 1742.42,644.232 1742.42,746.513 1776.71,746.513 1776.71,775.737 1811,775.737 1811,892.63 1845.29,892.63 1845.29,1155.64 1879.58,1155.64 1879.58,1184.86 1913.86,1184.86 1913.86,1272.53 1948.15,1272.53 1982.44,1272.53 1982.44,1360.2 2016.73,1360.2 2016.73,1418.65 2051.02,1418.65 2051.02,1404.04 2085.31,1404.04 2085.31,1447.87 2119.59,1447.87 2153.88,1447.87 2188.17,1447.87 2222.46,1447.87 2256.75,1447.87 2291.04,1447.87 "/>
<path clip-path="url(#clip850)" d="M1957.75 272.585 L2280.06 272.585 L2280.06 168.905 L1957.75 168.905  Z" fill="#ffffff" fill-rule="evenodd" fill-opacity="1"/>
<polyline clip-path="url(#clip850)" style="stroke:#000000; stroke-linecap:round; stroke-linejoin:round; stroke-width:4; stroke-opacity:1; fill:none" points="1957.75,272.585 2280.06,272.585 2280.06,168.905 1957.75,168.905 1957.75,272.585 "/>
<polyline clip-path="url(#clip850)" style="stroke:#009af9; stroke-linecap:round; stroke-linejoin:round; stroke-width:4; stroke-opacity:1; fill:none" points="1981.99,220.745 2127.37,220.745 "/>
<path clip-path="url(#clip850)" d="M2156.27 207.307 L2156.27 234.182 L2161.92 234.182 Q2169.08 234.182 2172.39 230.941 Q2175.72 227.701 2175.72 220.71 Q2175.72 213.766 2172.39 210.548 Q2169.08 207.307 2161.92 207.307 L2156.27 207.307 M2151.6 203.465 L2161.2 203.465 Q2171.25 203.465 2175.95 207.654 Q2180.65 211.821 2180.65 220.71 Q2180.65 229.645 2175.93 233.835 Q2171.2 238.025 2161.2 238.025 L2151.6 238.025 L2151.6 203.465 Z" fill="#000000" fill-rule="nonzero" fill-opacity="1" /><path clip-path="url(#clip850)" d="M2199.7 224.992 Q2194.54 224.992 2192.55 226.173 Q2190.56 227.353 2190.56 230.201 Q2190.56 232.469 2192.04 233.812 Q2193.54 235.131 2196.11 235.131 Q2199.65 235.131 2201.78 232.631 Q2203.94 230.108 2203.94 225.941 L2203.94 224.992 L2199.7 224.992 M2208.2 223.233 L2208.2 238.025 L2203.94 238.025 L2203.94 234.089 Q2202.48 236.451 2200.3 237.585 Q2198.13 238.696 2194.98 238.696 Q2191 238.696 2188.64 236.474 Q2186.3 234.228 2186.3 230.478 Q2186.3 226.103 2189.21 223.881 Q2192.15 221.659 2197.96 221.659 L2203.94 221.659 L2203.94 221.242 Q2203.94 218.303 2201.99 216.705 Q2200.07 215.085 2196.58 215.085 Q2194.35 215.085 2192.25 215.617 Q2190.14 216.15 2188.2 217.215 L2188.2 213.279 Q2190.53 212.377 2192.73 211.937 Q2194.93 211.474 2197.01 211.474 Q2202.64 211.474 2205.42 214.391 Q2208.2 217.307 2208.2 223.233 Z" fill="#000000" fill-rule="nonzero" fill-opacity="1" /><path clip-path="url(#clip850)" d="M2221.18 204.738 L2221.18 212.099 L2229.95 212.099 L2229.95 215.409 L2221.18 215.409 L2221.18 229.483 Q2221.18 232.654 2222.04 233.557 Q2222.92 234.46 2225.58 234.46 L2229.95 234.46 L2229.95 238.025 L2225.58 238.025 Q2220.65 238.025 2218.77 236.196 Q2216.9 234.344 2216.9 229.483 L2216.9 215.409 L2213.77 215.409 L2213.77 212.099 L2216.9 212.099 L2216.9 204.738 L2221.18 204.738 Z" fill="#000000" fill-rule="nonzero" fill-opacity="1" /><path clip-path="url(#clip850)" d="M2247.34 224.992 Q2242.18 224.992 2240.19 226.173 Q2238.2 227.353 2238.2 230.201 Q2238.2 232.469 2239.68 233.812 Q2241.18 235.131 2243.75 235.131 Q2247.29 235.131 2249.42 232.631 Q2251.57 230.108 2251.57 225.941 L2251.57 224.992 L2247.34 224.992 M2255.83 223.233 L2255.83 238.025 L2251.57 238.025 L2251.57 234.089 Q2250.12 236.451 2247.94 237.585 Q2245.76 238.696 2242.62 238.696 Q2238.64 238.696 2236.27 236.474 Q2233.94 234.228 2233.94 230.478 Q2233.94 226.103 2236.85 223.881 Q2239.79 221.659 2245.6 221.659 L2251.57 221.659 L2251.57 221.242 Q2251.57 218.303 2249.63 216.705 Q2247.71 215.085 2244.21 215.085 Q2241.99 215.085 2239.89 215.617 Q2237.78 216.15 2235.83 217.215 L2235.83 213.279 Q2238.17 212.377 2240.37 211.937 Q2242.57 211.474 2244.65 211.474 Q2250.28 211.474 2253.06 214.391 Q2255.83 217.307 2255.83 223.233 Z" fill="#000000" fill-rule="nonzero" fill-opacity="1" /></svg>
