<?xml version="1.0" encoding="utf-8"?>
<svg xmlns="http://www.w3.org/2000/svg" xmlns:xlink="http://www.w3.org/1999/xlink" width="600" height="400" viewBox="0 0 2400 1600">
<defs>
  <clipPath id="clip0100">
    <rect x="0" y="0" width="2400" height="1600"/>
  </clipPath>
</defs>
<path clip-path="url(#clip0100)" d="
M0 1600 L2400 1600 L2400 0 L0 0  Z
  " fill="#ffffff" fill-rule="evenodd" fill-opacity="1"/>
<defs>
  <clipPath id="clip0101">
    <rect x="480" y="0" width="1681" height="1600"/>
  </clipPath>
</defs>
<path clip-path="url(#clip0100)" d="
M202.373 1425.62 L2352.76 1425.62 L2352.76 121.675 L202.373 121.675  Z
  " fill="#ffffff" fill-rule="evenodd" fill-opacity="1"/>
<defs>
  <clipPath id="clip0102">
    <rect x="202" y="121" width="2151" height="1305"/>
  </clipPath>
</defs>
<polyline clip-path="url(#clip0102)" style="stroke:#000000; stroke-width:2; stroke-opacity:0.1; fill:none" points="
  578.803,1425.62 578.803,121.675 
  "/>
<polyline clip-path="url(#clip0102)" style="stroke:#000000; stroke-width:2; stroke-opacity:0.1; fill:none" points="
  1029.62,1425.62 1029.62,121.675 
  "/>
<polyline clip-path="url(#clip0102)" style="stroke:#000000; stroke-width:2; stroke-opacity:0.1; fill:none" points="
  1480.43,1425.62 1480.43,121.675 
  "/>
<polyline clip-path="url(#clip0102)" style="stroke:#000000; stroke-width:2; stroke-opacity:0.1; fill:none" points="
  1931.24,1425.62 1931.24,121.675 
  "/>
<polyline clip-path="url(#clip0102)" style="stroke:#000000; stroke-width:2; stroke-opacity:0.1; fill:none" points="
  202.373,1388.71 2352.76,1388.71 
  "/>
<polyline clip-path="url(#clip0102)" style="stroke:#000000; stroke-width:2; stroke-opacity:0.1; fill:none" points="
  202.373,1014.52 2352.76,1014.52 
  "/>
<polyline clip-path="url(#clip0102)" style="stroke:#000000; stroke-width:2; stroke-opacity:0.1; fill:none" points="
  202.373,640.322 2352.76,640.322 
  "/>
<polyline clip-path="url(#clip0102)" style="stroke:#000000; stroke-width:2; stroke-opacity:0.1; fill:none" points="
  202.373,266.126 2352.76,266.126 
  "/>
<polyline clip-path="url(#clip0100)" style="stroke:#000000; stroke-width:4; stroke-opacity:1; fill:none" points="
  202.373,1425.62 2352.76,1425.62 
  "/>
<polyline clip-path="url(#clip0100)" style="stroke:#000000; stroke-width:4; stroke-opacity:1; fill:none" points="
  202.373,1425.62 202.373,121.675 
  "/>
<polyline clip-path="url(#clip0100)" style="stroke:#000000; stroke-width:4; stroke-opacity:1; fill:none" points="
  578.803,1425.62 578.803,1409.97 
  "/>
<polyline clip-path="url(#clip0100)" style="stroke:#000000; stroke-width:4; stroke-opacity:1; fill:none" points="
  1029.62,1425.62 1029.62,1409.97 
  "/>
<polyline clip-path="url(#clip0100)" style="stroke:#000000; stroke-width:4; stroke-opacity:1; fill:none" points="
  1480.43,1425.62 1480.43,1409.97 
  "/>
<polyline clip-path="url(#clip0100)" style="stroke:#000000; stroke-width:4; stroke-opacity:1; fill:none" points="
  1931.24,1425.62 1931.24,1409.97 
  "/>
<polyline clip-path="url(#clip0100)" style="stroke:#000000; stroke-width:4; stroke-opacity:1; fill:none" points="
  202.373,1388.71 228.178,1388.71 
  "/>
<polyline clip-path="url(#clip0100)" style="stroke:#000000; stroke-width:4; stroke-opacity:1; fill:none" points="
  202.373,1014.52 228.178,1014.52 
  "/>
<polyline clip-path="url(#clip0100)" style="stroke:#000000; stroke-width:4; stroke-opacity:1; fill:none" points="
  202.373,640.322 228.178,640.322 
  "/>
<polyline clip-path="url(#clip0100)" style="stroke:#000000; stroke-width:4; stroke-opacity:1; fill:none" points="
  202.373,266.126 228.178,266.126 
  "/>
<g clip-path="url(#clip0100)">
<text style="fill:#000000; fill-opacity:1; font-family:Arial,Helvetica Neue,Helvetica,sans-serif; font-size:48px; text-anchor:middle;" transform="rotate(0, 578.803, 1479.62)" x="578.803" y="1479.62">-1.10</text>
</g>
<g clip-path="url(#clip0100)">
<text style="fill:#000000; fill-opacity:1; font-family:Arial,Helvetica Neue,Helvetica,sans-serif; font-size:48px; text-anchor:middle;" transform="rotate(0, 1029.62, 1479.62)" x="1029.62" y="1479.62">-1.05</text>
</g>
<g clip-path="url(#clip0100)">
<text style="fill:#000000; fill-opacity:1; font-family:Arial,Helvetica Neue,Helvetica,sans-serif; font-size:48px; text-anchor:middle;" transform="rotate(0, 1480.43, 1479.62)" x="1480.43" y="1479.62">-1.00</text>
</g>
<g clip-path="url(#clip0100)">
<text style="fill:#000000; fill-opacity:1; font-family:Arial,Helvetica Neue,Helvetica,sans-serif; font-size:48px; text-anchor:middle;" transform="rotate(0, 1931.24, 1479.62)" x="1931.24" y="1479.62">-0.95</text>
</g>
<g clip-path="url(#clip0100)">
<text style="fill:#000000; fill-opacity:1; font-family:Arial,Helvetica Neue,Helvetica,sans-serif; font-size:48px; text-anchor:end;" transform="rotate(0, 178.373, 1406.21)" x="178.373" y="1406.21">0</text>
</g>
<g clip-path="url(#clip0100)">
<text style="fill:#000000; fill-opacity:1; font-family:Arial,Helvetica Neue,Helvetica,sans-serif; font-size:48px; text-anchor:end;" transform="rotate(0, 178.373, 1032.02)" x="178.373" y="1032.02">5</text>
</g>
<g clip-path="url(#clip0100)">
<text style="fill:#000000; fill-opacity:1; font-family:Arial,Helvetica Neue,Helvetica,sans-serif; font-size:48px; text-anchor:end;" transform="rotate(0, 178.373, 657.822)" x="178.373" y="657.822">10</text>
</g>
<g clip-path="url(#clip0100)">
<text style="fill:#000000; fill-opacity:1; font-family:Arial,Helvetica Neue,Helvetica,sans-serif; font-size:48px; text-anchor:end;" transform="rotate(0, 178.373, 283.626)" x="178.373" y="283.626">15</text>
</g>
<g clip-path="url(#clip0100)">
<text style="fill:#000000; fill-opacity:1; font-family:Arial,Helvetica Neue,Helvetica,sans-serif; font-size:84px; text-anchor:middle;" transform="rotate(0, 1277.56, 73.2)" x="1277.56" y="73.2">Marginalized Distribution for mu_1</text>
</g>
<g clip-path="url(#clip0100)">
<text style="fill:#000000; fill-opacity:1; font-family:Arial,Helvetica Neue,Helvetica,sans-serif; font-size:66px; text-anchor:middle;" transform="rotate(0, 1277.56, 1559.48)" x="1277.56" y="1559.48">mu_1</text>
</g>
<g clip-path="url(#clip0100)">
<text style="fill:#000000; fill-opacity:1; font-family:Arial,Helvetica Neue,Helvetica,sans-serif; font-size:66px; text-anchor:middle;" transform="rotate(-90, 89.2861, 773.647)" x="89.2861" y="773.647">P(mu_1)</text>
</g>
<path clip-path="url(#clip0102)" d="
M263.233 1388.71 L308.314 1388.71 L308.314 1388.71 L353.396 1388.71 L353.396 1388.71 L398.477 1388.71 L398.477 1388.71 L443.558 1388.71 L443.558 1388.71 L488.64 1388.71 
  L488.64 1388.71 L533.721 1388.71 L533.721 1388.71 L578.803 1388.71 L578.803 1388.71 L623.884 1388.71 L623.884 1388.71 L668.965 1388.71 L668.965 1372.26 L714.047 1372.26 
  L714.047 1364.22 L759.128 1364.22 L759.128 1349.14 L804.21 1349.14 L804.21 1329.86 L849.291 1329.86 L849.291 1284.53 L894.372 1284.53 L894.372 1249.89 L939.454 1249.89 
  L939.454 1171.39 L984.535 1171.39 L984.535 1076.52 L1029.62 1076.52 L1029.62 995.73 L1074.7 995.73 L1074.7 837.166 L1119.78 837.166 L1119.78 745.317 L1164.86 745.317 
  L1164.86 550.196 L1209.94 550.196 L1209.94 419.049 L1255.02 419.049 L1255.02 358.731 L1300.11 358.731 L1300.11 212.595 L1345.19 212.595 L1345.19 208.209 L1390.27 208.209 
  L1390.27 194.408 L1435.35 194.408 L1435.35 275.107 L1480.43 275.107 L1480.43 338.807 L1525.51 338.807 L1525.51 500.57 L1570.59 500.57 L1570.59 610.515 L1615.67 610.515 
  L1615.67 761.037 L1660.76 761.037 L1660.76 919.51 L1705.84 919.51 L1705.84 995.913 L1750.92 995.913 L1750.92 1111.07 L1796 1111.07 L1796 1215.44 L1841.08 1215.44 
  L1841.08 1259.58 L1886.16 1259.58 L1886.16 1321.54 L1931.24 1321.54 L1931.24 1340.64 L1976.33 1340.64 L1976.33 1364.04 L2021.41 1364.04 L2021.41 1388.71 L2066.49 1388.71 
  L2066.49 1388.71 L2111.57 1388.71 L2111.57 1388.71 L2156.65 1388.71 L2156.65 1388.71 L2201.73 1388.71 L2201.73 1388.71 L2246.81 1388.71 L2246.81 1388.71 L2291.9 1388.71 
  L2291.9 1388.71 L2291.9 1388.71 L2291.9 1388.71 L2246.81 1388.71 L2246.81 1388.71 L2201.73 1388.71 L2201.73 1388.71 L2156.65 1388.71 L2156.65 1388.71 L2111.57 1388.71 
  L2111.57 1388.71 L2066.49 1388.71 L2066.49 1388.71 L2021.41 1388.71 L2021.41 1388.71 L1976.33 1388.71 L1976.33 1388.71 L1931.24 1388.71 L1931.24 1388.71 L1886.16 1388.71 
  L1886.16 1388.71 L1841.08 1388.71 L1841.08 1388.71 L1796 1388.71 L1796 1388.71 L1750.92 1388.71 L1750.92 1388.71 L1705.84 1388.71 L1705.84 1388.71 L1660.76 1388.71 
  L1660.76 1388.71 L1615.67 1388.71 L1615.67 1388.71 L1570.59 1388.71 L1570.59 1388.71 L1525.51 1388.71 L1525.51 1388.71 L1480.43 1388.71 L1480.43 1388.71 L1435.35 1388.71 
  L1435.35 1388.71 L1390.27 1388.71 L1390.27 1388.71 L1345.19 1388.71 L1345.19 1388.71 L1300.11 1388.71 L1300.11 1388.71 L1255.02 1388.71 L1255.02 1388.71 L1209.94 1388.71 
  L1209.94 1388.71 L1164.86 1388.71 L1164.86 1388.71 L1119.78 1388.71 L1119.78 1388.71 L1074.7 1388.71 L1074.7 1388.71 L1029.62 1388.71 L1029.62 1388.71 L984.535 1388.71 
  L984.535 1388.71 L939.454 1388.71 L939.454 1388.71 L894.372 1388.71 L894.372 1388.71 L849.291 1388.71 L849.291 1388.71 L804.21 1388.71 L804.21 1388.71 L759.128 1388.71 
  L759.128 1388.71 L714.047 1388.71 L714.047 1388.71 L668.965 1388.71 L668.965 1388.71 L623.884 1388.71 L623.884 1388.71 L578.803 1388.71 L578.803 1388.71 L533.721 1388.71 
  L533.721 1388.71 L488.64 1388.71 L488.64 1388.71 L443.558 1388.71 L443.558 1388.71 L398.477 1388.71 L398.477 1388.71 L353.396 1388.71 L353.396 1388.71 L308.314 1388.71 
  L308.314 1388.71 L263.233 1388.71  Z
  " fill="#ff0000" fill-rule="evenodd" fill-opacity="1"/>
<polyline clip-path="url(#clip0102)" style="stroke:#009af9; stroke-width:0; stroke-opacity:1; fill:none" points="
  263.233,1388.71 308.314,1388.71 353.396,1388.71 398.477,1388.71 443.558,1388.71 488.64,1388.71 
  533.721,1388.71 578.803,1388.71 623.884,1388.71 668.965,1388.71 668.965,1372.26 714.047,1372.26 
  714.047,1364.22 759.128,1364.22 759.128,1349.14 804.21,1349.14 804.21,1329.86 849.291,1329.86 849.291,1284.53 894.372,1284.53 894.372,1249.89 939.454,1249.89 
  939.454,1171.39 984.535,1171.39 984.535,1076.52 1029.62,1076.52 1029.62,995.73 1074.7,995.73 1074.7,837.166 1119.78,837.166 1119.78,745.317 1164.86,745.317 
  1164.86,550.196 1209.94,550.196 1209.94,419.049 1255.02,419.049 1255.02,358.731 1300.11,358.731 1300.11,212.595 1345.19,212.595 1345.19,208.209 1390.27,208.209 
  1390.27,194.408 1435.35,194.408 1435.35,275.107 1480.43,275.107 1480.43,338.807 1525.51,338.807 1525.51,500.57 1570.59,500.57 1570.59,610.515 1615.67,610.515 
  1615.67,761.037 1660.76,761.037 1660.76,919.51 1705.84,919.51 1705.84,995.913 1750.92,995.913 1750.92,1111.07 1796,1111.07 1796,1215.44 1841.08,1215.44 
  1841.08,1259.58 1886.16,1259.58 1886.16,1321.54 1931.24,1321.54 1931.24,1340.64 1976.33,1340.64 1976.33,1364.04 2021.41,1364.04 2021.41,1388.71 2066.49,1388.71 
  2111.57,1388.71 2156.65,1388.71 2201.73,1388.71 2246.81,1388.71 2291.9,1388.71 
  
  "/>
<path clip-path="url(#clip0102)" d="
M263.233 1388.71 L308.314 1388.71 L308.314 1388.71 L353.396 1388.71 L353.396 1388.71 L398.477 1388.71 L398.477 1388.71 L443.558 1388.71 L443.558 1388.71 L488.64 1388.71 
  L488.64 1388.71 L533.721 1388.71 L533.721 1388.71 L578.803 1388.71 L578.803 1388.71 L623.884 1388.71 L623.884 1388.71 L668.965 1388.71 L668.965 1388.71 L714.047 1388.71 
  L714.047 1388.71 L759.128 1388.71 L759.128 1388.71 L804.21 1388.71 L804.21 1388.71 L849.291 1388.71 L849.291 1388.71 L894.372 1388.71 L894.372 1249.89 L939.454 1249.89 
  L939.454 1171.39 L984.535 1171.39 L984.535 1076.52 L1029.62 1076.52 L1029.62 995.73 L1074.7 995.73 L1074.7 837.166 L1119.78 837.166 L1119.78 745.317 L1164.86 745.317 
  L1164.86 550.196 L1209.94 550.196 L1209.94 419.049 L1255.02 419.049 L1255.02 358.731 L1300.11 358.731 L1300.11 212.595 L1345.19 212.595 L1345.19 208.209 L1390.27 208.209 
  L1390.27 194.408 L1435.35 194.408 L1435.35 275.107 L1480.43 275.107 L1480.43 338.807 L1525.51 338.807 L1525.51 500.57 L1570.59 500.57 L1570.59 610.515 L1615.67 610.515 
  L1615.67 761.037 L1660.76 761.037 L1660.76 919.51 L1705.84 919.51 L1705.84 995.913 L1750.92 995.913 L1750.92 1111.07 L1796 1111.07 L1796 1215.44 L1841.08 1215.44 
  L1841.08 1388.71 L1886.16 1388.71 L1886.16 1388.71 L1931.24 1388.71 L1931.24 1388.71 L1976.33 1388.71 L1976.33 1388.71 L2021.41 1388.71 L2021.41 1388.71 L2066.49 1388.71 
  L2066.49 1388.71 L2111.57 1388.71 L2111.57 1388.71 L2156.65 1388.71 L2156.65 1388.71 L2201.73 1388.71 L2201.73 1388.71 L2246.81 1388.71 L2246.81 1388.71 L2291.9 1388.71 
  L2291.9 1388.71 L2291.9 1388.71 L2291.9 1388.71 L2246.81 1388.71 L2246.81 1388.71 L2201.73 1388.71 L2201.73 1388.71 L2156.65 1388.71 L2156.65 1388.71 L2111.57 1388.71 
  L2111.57 1388.71 L2066.49 1388.71 L2066.49 1388.71 L2021.41 1388.71 L2021.41 1388.71 L1976.33 1388.71 L1976.33 1388.71 L1931.24 1388.71 L1931.24 1388.71 L1886.16 1388.71 
  L1886.16 1388.71 L1841.08 1388.71 L1841.08 1388.71 L1796 1388.71 L1796 1388.71 L1750.92 1388.71 L1750.92 1388.71 L1705.84 1388.71 L1705.84 1388.71 L1660.76 1388.71 
  L1660.76 1388.71 L1615.67 1388.71 L1615.67 1388.71 L1570.59 1388.71 L1570.59 1388.71 L1525.51 1388.71 L1525.51 1388.71 L1480.43 1388.71 L1480.43 1388.71 L1435.35 1388.71 
  L1435.35 1388.71 L1390.27 1388.71 L1390.27 1388.71 L1345.19 1388.71 L1345.19 1388.71 L1300.11 1388.71 L1300.11 1388.71 L1255.02 1388.71 L1255.02 1388.71 L1209.94 1388.71 
  L1209.94 1388.71 L1164.86 1388.71 L1164.86 1388.71 L1119.78 1388.71 L1119.78 1388.71 L1074.7 1388.71 L1074.7 1388.71 L1029.62 1388.71 L1029.62 1388.71 L984.535 1388.71 
  L984.535 1388.71 L939.454 1388.71 L939.454 1388.71 L894.372 1388.71 L894.372 1388.71 L849.291 1388.71 L849.291 1388.71 L804.21 1388.71 L804.21 1388.71 L759.128 1388.71 
  L759.128 1388.71 L714.047 1388.71 L714.047 1388.71 L668.965 1388.71 L668.965 1388.71 L623.884 1388.71 L623.884 1388.71 L578.803 1388.71 L578.803 1388.71 L533.721 1388.71 
  L533.721 1388.71 L488.64 1388.71 L488.64 1388.71 L443.558 1388.71 L443.558 1388.71 L398.477 1388.71 L398.477 1388.71 L353.396 1388.71 L353.396 1388.71 L308.314 1388.71 
  L308.314 1388.71 L263.233 1388.71  Z
  " fill="#ffff00" fill-rule="evenodd" fill-opacity="1"/>
<polyline clip-path="url(#clip0102)" style="stroke:#e26f46; stroke-width:0; stroke-opacity:1; fill:none" points="
  263.233,1388.71 308.314,1388.71 353.396,1388.71 398.477,1388.71 443.558,1388.71 488.64,1388.71 
  533.721,1388.71 578.803,1388.71 623.884,1388.71 668.965,1388.71 714.047,1388.71 
  759.128,1388.71 804.21,1388.71 849.291,1388.71 894.372,1388.71 894.372,1249.89 939.454,1249.89 
  939.454,1171.39 984.535,1171.39 984.535,1076.52 1029.62,1076.52 1029.62,995.73 1074.7,995.73 1074.7,837.166 1119.78,837.166 1119.78,745.317 1164.86,745.317 
  1164.86,550.196 1209.94,550.196 1209.94,419.049 1255.02,419.049 1255.02,358.731 1300.11,358.731 1300.11,212.595 1345.19,212.595 1345.19,208.209 1390.27,208.209 
  1390.27,194.408 1435.35,194.408 1435.35,275.107 1480.43,275.107 1480.43,338.807 1525.51,338.807 1525.51,500.57 1570.59,500.57 1570.59,610.515 1615.67,610.515 
  1615.67,761.037 1660.76,761.037 1660.76,919.51 1705.84,919.51 1705.84,995.913 1750.92,995.913 1750.92,1111.07 1796,1111.07 1796,1215.44 1841.08,1215.44 
  1841.08,1388.71 1886.16,1388.71 1931.24,1388.71 1976.33,1388.71 2021.41,1388.71 2066.49,1388.71 
  2111.57,1388.71 2156.65,1388.71 2201.73,1388.71 2246.81,1388.71 2291.9,1388.71 
  
  "/>
<path clip-path="url(#clip0102)" d="
M263.233 1388.71 L308.314 1388.71 L308.314 1388.71 L353.396 1388.71 L353.396 1388.71 L398.477 1388.71 L398.477 1388.71 L443.558 1388.71 L443.558 1388.71 L488.64 1388.71 
  L488.64 1388.71 L533.721 1388.71 L533.721 1388.71 L578.803 1388.71 L578.803 1388.71 L623.884 1388.71 L623.884 1388.71 L668.965 1388.71 L668.965 1388.71 L714.047 1388.71 
  L714.047 1388.71 L759.128 1388.71 L759.128 1388.71 L804.21 1388.71 L804.21 1388.71 L849.291 1388.71 L849.291 1388.71 L894.372 1388.71 L894.372 1388.71 L939.454 1388.71 
  L939.454 1388.71 L984.535 1388.71 L984.535 1388.71 L1029.62 1388.71 L1029.62 1388.71 L1074.7 1388.71 L1074.7 1388.71 L1119.78 1388.71 L1119.78 745.317 L1164.86 745.317 
  L1164.86 550.196 L1209.94 550.196 L1209.94 419.049 L1255.02 419.049 L1255.02 358.731 L1300.11 358.731 L1300.11 212.595 L1345.19 212.595 L1345.19 208.209 L1390.27 208.209 
  L1390.27 194.408 L1435.35 194.408 L1435.35 275.107 L1480.43 275.107 L1480.43 338.807 L1525.51 338.807 L1525.51 500.57 L1570.59 500.57 L1570.59 610.515 L1615.67 610.515 
  L1615.67 1388.71 L1660.76 1388.71 L1660.76 1388.71 L1705.84 1388.71 L1705.84 1388.71 L1750.92 1388.71 L1750.92 1388.71 L1796 1388.71 L1796 1388.71 L1841.08 1388.71 
  L1841.08 1388.71 L1886.16 1388.71 L1886.16 1388.71 L1931.24 1388.71 L1931.24 1388.71 L1976.33 1388.71 L1976.33 1388.71 L2021.41 1388.71 L2021.41 1388.71 L2066.49 1388.71 
  L2066.49 1388.71 L2111.57 1388.71 L2111.57 1388.71 L2156.65 1388.71 L2156.65 1388.71 L2201.73 1388.71 L2201.73 1388.71 L2246.81 1388.71 L2246.81 1388.71 L2291.9 1388.71 
  L2291.9 1388.71 L2291.9 1388.71 L2291.9 1388.71 L2246.81 1388.71 L2246.81 1388.71 L2201.73 1388.71 L2201.73 1388.71 L2156.65 1388.71 L2156.65 1388.71 L2111.57 1388.71 
  L2111.57 1388.71 L2066.49 1388.71 L2066.49 1388.71 L2021.41 1388.71 L2021.41 1388.71 L1976.33 1388.71 L1976.33 1388.71 L1931.24 1388.71 L1931.24 1388.71 L1886.16 1388.71 
  L1886.16 1388.71 L1841.08 1388.71 L1841.08 1388.71 L1796 1388.71 L1796 1388.71 L1750.92 1388.71 L1750.92 1388.71 L1705.84 1388.71 L1705.84 1388.71 L1660.76 1388.71 
  L1660.76 1388.71 L1615.67 1388.71 L1615.67 1388.71 L1570.59 1388.71 L1570.59 1388.71 L1525.51 1388.71 L1525.51 1388.71 L1480.43 1388.71 L1480.43 1388.71 L1435.35 1388.71 
  L1435.35 1388.71 L1390.27 1388.71 L1390.27 1388.71 L1345.19 1388.71 L1345.19 1388.71 L1300.11 1388.71 L1300.11 1388.71 L1255.02 1388.71 L1255.02 1388.71 L1209.94 1388.71 
  L1209.94 1388.71 L1164.86 1388.71 L1164.86 1388.71 L1119.78 1388.71 L1119.78 1388.71 L1074.7 1388.71 L1074.7 1388.71 L1029.62 1388.71 L1029.62 1388.71 L984.535 1388.71 
  L984.535 1388.71 L939.454 1388.71 L939.454 1388.71 L894.372 1388.71 L894.372 1388.71 L849.291 1388.71 L849.291 1388.71 L804.21 1388.71 L804.21 1388.71 L759.128 1388.71 
  L759.128 1388.71 L714.047 1388.71 L714.047 1388.71 L668.965 1388.71 L668.965 1388.71 L623.884 1388.71 L623.884 1388.71 L578.803 1388.71 L578.803 1388.71 L533.721 1388.71 
  L533.721 1388.71 L488.64 1388.71 L488.64 1388.71 L443.558 1388.71 L443.558 1388.71 L398.477 1388.71 L398.477 1388.71 L353.396 1388.71 L353.396 1388.71 L308.314 1388.71 
  L308.314 1388.71 L263.233 1388.71  Z
  " fill="#76ee00" fill-rule="evenodd" fill-opacity="1"/>
<polyline clip-path="url(#clip0102)" style="stroke:#3da44d; stroke-width:0; stroke-opacity:1; fill:none" points="
  263.233,1388.71 308.314,1388.71 353.396,1388.71 398.477,1388.71 443.558,1388.71 488.64,1388.71 
  533.721,1388.71 578.803,1388.71 623.884,1388.71 668.965,1388.71 714.047,1388.71 
  759.128,1388.71 804.21,1388.71 849.291,1388.71 894.372,1388.71 939.454,1388.71 
  984.535,1388.71 1029.62,1388.71 1074.7,1388.71 1119.78,1388.71 1119.78,745.317 1164.86,745.317 
  1164.86,550.196 1209.94,550.196 1209.94,419.049 1255.02,419.049 1255.02,358.731 1300.11,358.731 1300.11,212.595 1345.19,212.595 1345.19,208.209 1390.27,208.209 
  1390.27,194.408 1435.35,194.408 1435.35,275.107 1480.43,275.107 1480.43,338.807 1525.51,338.807 1525.51,500.57 1570.59,500.57 1570.59,610.515 1615.67,610.515 
  1615.67,1388.71 1660.76,1388.71 1705.84,1388.71 1750.92,1388.71 1796,1388.71 1841.08,1388.71 
  1886.16,1388.71 1931.24,1388.71 1976.33,1388.71 2021.41,1388.71 2066.49,1388.71 
  2111.57,1388.71 2156.65,1388.71 2201.73,1388.71 2246.81,1388.71 2291.9,1388.71 
  
  "/>
<polyline clip-path="url(#clip0102)" style="stroke:#000000; stroke-width:2.8; stroke-opacity:1; fill:none" points="
  263.233,1388.44 308.314,1388.44 308.314,1388.71 353.396,1388.71 353.396,1388.62 398.477,1388.62 398.477,1388.35 443.558,1388.35 488.64,1388.35 
  488.64,1388.17 533.721,1388.17 533.721,1388.44 578.803,1388.44 578.803,1386.8 623.884,1386.8 623.884,1382.87 668.965,1382.87 668.965,1372.26 714.047,1372.26 
  714.047,1364.22 759.128,1364.22 759.128,1349.14 804.21,1349.14 804.21,1329.86 849.291,1329.86 849.291,1284.53 894.372,1284.53 894.372,1249.89 939.454,1249.89 
  939.454,1171.39 984.535,1171.39 984.535,1076.52 1029.62,1076.52 1029.62,995.73 1074.7,995.73 1074.7,837.166 1119.78,837.166 1119.78,745.317 1164.86,745.317 
  1164.86,550.196 1209.94,550.196 1209.94,419.049 1255.02,419.049 1255.02,358.731 1300.11,358.731 1300.11,212.595 1345.19,212.595 1345.19,208.209 1390.27,208.209 
  1390.27,194.408 1435.35,194.408 1435.35,275.107 1480.43,275.107 1480.43,338.807 1525.51,338.807 1525.51,500.57 1570.59,500.57 1570.59,610.515 1615.67,610.515 
  1615.67,761.037 1660.76,761.037 1660.76,919.51 1705.84,919.51 1705.84,995.913 1750.92,995.913 1750.92,1111.07 1796,1111.07 1796,1215.44 1841.08,1215.44 
  1841.08,1259.58 1886.16,1259.58 1886.16,1321.54 1931.24,1321.54 1931.24,1340.64 1976.33,1340.64 1976.33,1364.04 2021.41,1364.04 2021.41,1375.28 2066.49,1375.28 
  2066.49,1380.67 2111.57,1380.67 2111.57,1385.52 2156.65,1385.52 2156.65,1384.69 2201.73,1384.69 2201.73,1388.62 2246.81,1388.62 2246.81,1388.71 2291.9,1388.71 
  2291.9,1387.8 
  "/>
<path clip-path="url(#clip0102)" d="
M1154.84 1388.71 L1606.83 1388.71 L1606.83 158.579 L1154.84 158.579 L1154.84 1388.71  Z
  " fill="#808080" fill-rule="evenodd" fill-opacity="0.5"/>
<polyline clip-path="url(#clip0102)" style="stroke:#000000; stroke-width:0; stroke-opacity:1; fill:none" points="
  1154.84,1388.71 1606.83,1388.71 1606.83,158.579 1154.84,158.579 1154.84,1388.71 
  "/>
<polyline clip-path="url(#clip0102)" style="stroke:#696969; stroke-width:4; stroke-opacity:1; fill:none" points="
  1380.83,1388.71 1380.83,158.579 
  "/>
<polyline clip-path="url(#clip0102)" style="stroke:#000000; stroke-width:4; stroke-opacity:1; fill:none" stroke-dasharray="16, 10" points="
  1417.01,1388.71 1417.01,158.579 
  "/>
<polyline clip-path="url(#clip0102)" style="stroke:#000000; stroke-width:4; stroke-opacity:1; fill:none" stroke-dasharray="2, 4" points="
  1412.81,1388.71 1412.81,158.579 
  "/>
<path clip-path="url(#clip0100)" d="
M1463.01 689.035 L2280.76 689.035 L2280.76 205.195 L1463.01 205.195  Z
  " fill="#ffffff" fill-rule="evenodd" fill-opacity="1"/>
<polyline clip-path="url(#clip0100)" style="stroke:#000000; stroke-width:4; stroke-opacity:1; fill:none" points="
  1463.01,689.035 2280.76,689.035 2280.76,205.195 1463.01,205.195 1463.01,689.035 
  "/>
<path clip-path="url(#clip0100)" d="
M1487.01 289.867 L1631.01 289.867 L1631.01 241.483 L1487.01 241.483 L1487.01 289.867  Z
  " fill="#ff0000" fill-rule="evenodd" fill-opacity="1"/>
<polyline clip-path="url(#clip0100)" style="stroke:#009af9; stroke-width:0; stroke-opacity:1; fill:none" points="
  1487.01,241.483 1631.01,241.483 
  "/>
<g clip-path="url(#clip0100)">
<text style="fill:#000000; fill-opacity:1; font-family:Arial,Helvetica Neue,Helvetica,sans-serif; font-size:48px; text-anchor:start;" transform="rotate(0, 1655.01, 283.175)" x="1655.01" y="283.175">smallest 99.74% interval(s)</text>
</g>
<path clip-path="url(#clip0100)" d="
M1487.01 350.347 L1631.01 350.347 L1631.01 301.963 L1487.01 301.963 L1487.01 350.347  Z
  " fill="#ffff00" fill-rule="evenodd" fill-opacity="1"/>
<polyline clip-path="url(#clip0100)" style="stroke:#e26f46; stroke-width:0; stroke-opacity:1; fill:none" points="
  1487.01,301.963 1631.01,301.963 
  "/>
<g clip-path="url(#clip0100)">
<text style="fill:#000000; fill-opacity:1; font-family:Arial,Helvetica Neue,Helvetica,sans-serif; font-size:48px; text-anchor:start;" transform="rotate(0, 1655.01, 343.655)" x="1655.01" y="343.655">smallest 96.31% interval(s)</text>
</g>
<path clip-path="url(#clip0100)" d="
M1487.01 410.827 L1631.01 410.827 L1631.01 362.443 L1487.01 362.443 L1487.01 410.827  Z
  " fill="#76ee00" fill-rule="evenodd" fill-opacity="1"/>
<polyline clip-path="url(#clip0100)" style="stroke:#3da44d; stroke-width:0; stroke-opacity:1; fill:none" points="
  1487.01,362.443 1631.01,362.443 
  "/>
<g clip-path="url(#clip0100)">
<text style="fill:#000000; fill-opacity:1; font-family:Arial,Helvetica Neue,Helvetica,sans-serif; font-size:48px; text-anchor:start;" transform="rotate(0, 1655.01, 404.135)" x="1655.01" y="404.135">smallest 72.57% interval(s)</text>
</g>
<path clip-path="url(#clip0100)" d="
M1487.01 471.307 L1631.01 471.307 L1631.01 422.923 L1487.01 422.923 L1487.01 471.307  Z
  " fill="#808080" fill-rule="evenodd" fill-opacity="0.5"/>
<polyline clip-path="url(#clip0100)" style="stroke:#000000; stroke-width:0; stroke-opacity:1; fill:none" points="
  1487.01,471.307 1631.01,471.307 1631.01,422.923 1487.01,422.923 1487.01,471.307 
  "/>
<g clip-path="url(#clip0100)">
<text style="fill:#000000; fill-opacity:1; font-family:Arial,Helvetica Neue,Helvetica,sans-serif; font-size:48px; text-anchor:start;" transform="rotate(0, 1655.01, 464.615)" x="1655.01" y="464.615">std. dev.</text>
</g>
<polyline clip-path="url(#clip0100)" style="stroke:#696969; stroke-width:4; stroke-opacity:1; fill:none" points="
  1487.01,507.595 1631.01,507.595 
  "/>
<g clip-path="url(#clip0100)">
<text style="fill:#000000; fill-opacity:1; font-family:Arial,Helvetica Neue,Helvetica,sans-serif; font-size:48px; text-anchor:start;" transform="rotate(0, 1655.01, 525.095)" x="1655.01" y="525.095">mean</text>
</g>
<polyline clip-path="url(#clip0100)" style="stroke:#000000; stroke-width:4; stroke-opacity:1; fill:none" stroke-dasharray="16, 10" points="
  1487.01,568.075 1631.01,568.075 
  "/>
<g clip-path="url(#clip0100)">
<text style="fill:#000000; fill-opacity:1; font-family:Arial,Helvetica Neue,Helvetica,sans-serif; font-size:48px; text-anchor:start;" transform="rotate(0, 1655.01, 585.575)" x="1655.01" y="585.575">global mode</text>
</g>
<polyline clip-path="url(#clip0100)" style="stroke:#000000; stroke-width:4; stroke-opacity:1; fill:none" stroke-dasharray="2, 4" points="
  1487.01,628.555 1631.01,628.555 
  "/>
<g clip-path="url(#clip0100)">
<text style="fill:#000000; fill-opacity:1; font-family:Arial,Helvetica Neue,Helvetica,sans-serif; font-size:48px; text-anchor:start;" transform="rotate(0, 1655.01, 646.055)" x="1655.01" y="646.055">local mode</text>
</g>
</svg>
