<?xml version="1.0" encoding="utf-8"?>
<svg xmlns="http://www.w3.org/2000/svg" xmlns:xlink="http://www.w3.org/1999/xlink" width="600" height="400" viewBox="0 0 2400 1600">
<defs>
  <clipPath id="clip9800">
    <rect x="0" y="0" width="2400" height="1600"/>
  </clipPath>
</defs>
<path clip-path="url(#clip9800)" d="
M0 1600 L2400 1600 L2400 0 L0 0  Z
  " fill="#ffffff" fill-rule="evenodd" fill-opacity="1"/>
<defs>
  <clipPath id="clip9801">
    <rect x="480" y="0" width="1681" height="1600"/>
  </clipPath>
</defs>
<path clip-path="url(#clip9800)" d="
M167.279 1487.47 L2352.76 1487.47 L2352.76 121.675 L167.279 121.675  Z
  " fill="#ffffff" fill-rule="evenodd" fill-opacity="1"/>
<defs>
  <clipPath id="clip9802">
    <rect x="167" y="121" width="2186" height="1367"/>
  </clipPath>
</defs>
<polyline clip-path="url(#clip9802)" style="stroke:#000000; stroke-width:2; stroke-opacity:0.1; fill:none" points="
  229.132,1487.47 229.132,121.675 
  "/>
<polyline clip-path="url(#clip9802)" style="stroke:#000000; stroke-width:2; stroke-opacity:0.1; fill:none" points="
  744.575,1487.47 744.575,121.675 
  "/>
<polyline clip-path="url(#clip9802)" style="stroke:#000000; stroke-width:2; stroke-opacity:0.1; fill:none" points="
  1260.02,1487.47 1260.02,121.675 
  "/>
<polyline clip-path="url(#clip9802)" style="stroke:#000000; stroke-width:2; stroke-opacity:0.1; fill:none" points="
  1775.46,1487.47 1775.46,121.675 
  "/>
<polyline clip-path="url(#clip9802)" style="stroke:#000000; stroke-width:2; stroke-opacity:0.1; fill:none" points="
  2290.9,1487.47 2290.9,121.675 
  "/>
<polyline clip-path="url(#clip9802)" style="stroke:#000000; stroke-width:2; stroke-opacity:0.1; fill:none" points="
  167.279,1448.82 2352.76,1448.82 
  "/>
<polyline clip-path="url(#clip9802)" style="stroke:#000000; stroke-width:2; stroke-opacity:0.1; fill:none" points="
  167.279,1162.49 2352.76,1162.49 
  "/>
<polyline clip-path="url(#clip9802)" style="stroke:#000000; stroke-width:2; stroke-opacity:0.1; fill:none" points="
  167.279,876.158 2352.76,876.158 
  "/>
<polyline clip-path="url(#clip9802)" style="stroke:#000000; stroke-width:2; stroke-opacity:0.1; fill:none" points="
  167.279,589.827 2352.76,589.827 
  "/>
<polyline clip-path="url(#clip9802)" style="stroke:#000000; stroke-width:2; stroke-opacity:0.1; fill:none" points="
  167.279,303.495 2352.76,303.495 
  "/>
<polyline clip-path="url(#clip9800)" style="stroke:#000000; stroke-width:4; stroke-opacity:1; fill:none" points="
  167.279,1487.47 2352.76,1487.47 
  "/>
<polyline clip-path="url(#clip9800)" style="stroke:#000000; stroke-width:4; stroke-opacity:1; fill:none" points="
  167.279,1487.47 167.279,121.675 
  "/>
<polyline clip-path="url(#clip9800)" style="stroke:#000000; stroke-width:4; stroke-opacity:1; fill:none" points="
  229.132,1487.47 229.132,1471.09 
  "/>
<polyline clip-path="url(#clip9800)" style="stroke:#000000; stroke-width:4; stroke-opacity:1; fill:none" points="
  744.575,1487.47 744.575,1471.09 
  "/>
<polyline clip-path="url(#clip9800)" style="stroke:#000000; stroke-width:4; stroke-opacity:1; fill:none" points="
  1260.02,1487.47 1260.02,1471.09 
  "/>
<polyline clip-path="url(#clip9800)" style="stroke:#000000; stroke-width:4; stroke-opacity:1; fill:none" points="
  1775.46,1487.47 1775.46,1471.09 
  "/>
<polyline clip-path="url(#clip9800)" style="stroke:#000000; stroke-width:4; stroke-opacity:1; fill:none" points="
  2290.9,1487.47 2290.9,1471.09 
  "/>
<polyline clip-path="url(#clip9800)" style="stroke:#000000; stroke-width:4; stroke-opacity:1; fill:none" points="
  167.279,1448.82 193.505,1448.82 
  "/>
<polyline clip-path="url(#clip9800)" style="stroke:#000000; stroke-width:4; stroke-opacity:1; fill:none" points="
  167.279,1162.49 193.505,1162.49 
  "/>
<polyline clip-path="url(#clip9800)" style="stroke:#000000; stroke-width:4; stroke-opacity:1; fill:none" points="
  167.279,876.158 193.505,876.158 
  "/>
<polyline clip-path="url(#clip9800)" style="stroke:#000000; stroke-width:4; stroke-opacity:1; fill:none" points="
  167.279,589.827 193.505,589.827 
  "/>
<polyline clip-path="url(#clip9800)" style="stroke:#000000; stroke-width:4; stroke-opacity:1; fill:none" points="
  167.279,303.495 193.505,303.495 
  "/>
<g clip-path="url(#clip9800)">
<text style="fill:#000000; fill-opacity:1; font-family:Arial,Helvetica Neue,Helvetica,sans-serif; font-size:48px; text-anchor:middle;" transform="rotate(0, 229.132, 1541.47)" x="229.132" y="1541.47">-4</text>
</g>
<g clip-path="url(#clip9800)">
<text style="fill:#000000; fill-opacity:1; font-family:Arial,Helvetica Neue,Helvetica,sans-serif; font-size:48px; text-anchor:middle;" transform="rotate(0, 744.575, 1541.47)" x="744.575" y="1541.47">-2</text>
</g>
<g clip-path="url(#clip9800)">
<text style="fill:#000000; fill-opacity:1; font-family:Arial,Helvetica Neue,Helvetica,sans-serif; font-size:48px; text-anchor:middle;" transform="rotate(0, 1260.02, 1541.47)" x="1260.02" y="1541.47">0</text>
</g>
<g clip-path="url(#clip9800)">
<text style="fill:#000000; fill-opacity:1; font-family:Arial,Helvetica Neue,Helvetica,sans-serif; font-size:48px; text-anchor:middle;" transform="rotate(0, 1775.46, 1541.47)" x="1775.46" y="1541.47">2</text>
</g>
<g clip-path="url(#clip9800)">
<text style="fill:#000000; fill-opacity:1; font-family:Arial,Helvetica Neue,Helvetica,sans-serif; font-size:48px; text-anchor:middle;" transform="rotate(0, 2290.9, 1541.47)" x="2290.9" y="1541.47">4</text>
</g>
<g clip-path="url(#clip9800)">
<text style="fill:#000000; fill-opacity:1; font-family:Arial,Helvetica Neue,Helvetica,sans-serif; font-size:48px; text-anchor:end;" transform="rotate(0, 143.279, 1466.32)" x="143.279" y="1466.32">0</text>
</g>
<g clip-path="url(#clip9800)">
<text style="fill:#000000; fill-opacity:1; font-family:Arial,Helvetica Neue,Helvetica,sans-serif; font-size:48px; text-anchor:end;" transform="rotate(0, 143.279, 1179.99)" x="143.279" y="1179.99">200</text>
</g>
<g clip-path="url(#clip9800)">
<text style="fill:#000000; fill-opacity:1; font-family:Arial,Helvetica Neue,Helvetica,sans-serif; font-size:48px; text-anchor:end;" transform="rotate(0, 143.279, 893.658)" x="143.279" y="893.658">400</text>
</g>
<g clip-path="url(#clip9800)">
<text style="fill:#000000; fill-opacity:1; font-family:Arial,Helvetica Neue,Helvetica,sans-serif; font-size:48px; text-anchor:end;" transform="rotate(0, 143.279, 607.327)" x="143.279" y="607.327">600</text>
</g>
<g clip-path="url(#clip9800)">
<text style="fill:#000000; fill-opacity:1; font-family:Arial,Helvetica Neue,Helvetica,sans-serif; font-size:48px; text-anchor:end;" transform="rotate(0, 143.279, 320.995)" x="143.279" y="320.995">800</text>
</g>
<g clip-path="url(#clip9800)">
<text style="fill:#000000; fill-opacity:1; font-family:Arial,Helvetica Neue,Helvetica,sans-serif; font-size:84px; text-anchor:middle;" transform="rotate(0, 1260.02, 73.2)" x="1260.02" y="73.2">Data and True Statistical Model</text>
</g>
<polyline clip-path="url(#clip9802)" style="stroke:#009af9; stroke-width:4; stroke-opacity:1; fill:none" points="
  744.575,1448.82 744.575,1405.87 770.347,1405.87 770.347,1291.34 796.119,1291.34 796.119,1191.12 821.891,1191.12 821.891,1133.86 847.663,1133.86 847.663,1090.91 
  873.436,1090.91 873.436,1105.22 899.208,1105.22 899.208,1047.96 924.98,1047.96 924.98,1033.64 950.752,1033.64 950.752,1019.32 976.524,1019.32 976.524,804.575 
  1002.3,804.575 1002.3,962.057 1028.07,962.057 1028.07,690.042 1053.84,690.042 1053.84,919.107 1079.61,919.107 1079.61,1005.01 1105.38,1005.01 1105.38,1105.22 
  1131.16,1105.22 1131.16,1133.86 1156.93,1133.86 1156.93,1248.39 1182.7,1248.39 1182.7,1291.34 1208.47,1291.34 1208.47,1348.6 1234.25,1348.6 1234.25,1319.97 
  1260.02,1319.97 1260.02,1405.87 1285.79,1405.87 1311.56,1405.87 1337.33,1405.87 1337.33,1420.19 1363.11,1420.19 1363.11,1448.82 
  1388.88,1448.82 1388.88,1434.5 1414.65,1434.5 1414.65,1377.24 1440.42,1377.24 1440.42,1362.92 1466.19,1362.92 1466.19,1348.6 1491.97,1348.6 1491.97,1305.65 
  1517.74,1305.65 1517.74,1219.76 1543.51,1219.76 1543.51,1176.81 1569.28,1176.81 1569.28,1162.49 1595.06,1162.49 1595.06,890.474 1620.83,890.474 1620.83,818.891 
  1646.6,818.891 1646.6,661.409 1672.37,661.409 1672.37,632.776 1698.14,632.776 1698.14,446.661 1723.92,446.661 1723.92,375.078 1749.69,375.078 1749.69,389.395 
  1775.46,389.395 1775.46,403.711 1801.23,403.711 1801.23,160.33 1827,160.33 1827,418.028 1852.78,418.028 1852.78,489.611 1878.55,489.611 1878.55,732.992 
  1904.32,732.992 1904.32,818.891 1930.09,818.891 1930.09,1005.01 1955.87,1005.01 1955.87,1019.32 1981.64,1019.32 1981.64,1133.86 2007.41,1133.86 2007.41,1362.92 
  2033.18,1362.92 2033.18,1334.29 2058.95,1334.29 2058.95,1420.19 2084.73,1420.19 2084.73,1391.55 2110.5,1391.55 2110.5,1434.5 2136.27,1434.5 
  2162.04,1434.5 2162.04,1448.82 2187.81,1448.82 2213.59,1448.82 2213.59,1434.5 2239.36,1434.5 2239.36,1448.82 2265.13,1448.82 
  2290.9,1448.82 
  "/>
<polyline clip-path="url(#clip9802)" style="stroke:#e26f46; stroke-width:4; stroke-opacity:1; fill:none" points="
  229.132,1448.82 231.709,1448.82 234.287,1448.82 236.864,1448.82 239.441,1448.82 242.018,1448.82 244.596,1448.82 247.173,1448.82 249.75,1448.82 252.327,1448.82 
  254.904,1448.82 257.482,1448.82 260.059,1448.82 262.636,1448.82 265.213,1448.82 267.79,1448.82 270.368,1448.82 272.945,1448.82 275.522,1448.82 278.099,1448.82 
  280.677,1448.82 283.254,1448.82 285.831,1448.82 288.408,1448.82 290.985,1448.82 293.563,1448.82 296.14,1448.82 298.717,1448.82 301.294,1448.82 303.871,1448.82 
  306.449,1448.82 309.026,1448.82 311.603,1448.82 314.18,1448.82 316.758,1448.82 319.335,1448.82 321.912,1448.82 324.489,1448.82 327.066,1448.82 329.644,1448.82 
  332.221,1448.82 334.798,1448.82 337.375,1448.82 339.952,1448.82 342.53,1448.82 345.107,1448.82 347.684,1448.82 350.261,1448.82 352.838,1448.82 355.416,1448.82 
  357.993,1448.82 360.57,1448.82 363.147,1448.82 365.725,1448.82 368.302,1448.82 370.879,1448.82 373.456,1448.82 376.033,1448.82 378.611,1448.82 381.188,1448.81 
  383.765,1448.81 386.342,1448.81 388.919,1448.81 391.497,1448.81 394.074,1448.81 396.651,1448.81 399.228,1448.81 401.806,1448.81 404.383,1448.81 406.96,1448.81 
  409.537,1448.81 412.114,1448.8 414.692,1448.8 417.269,1448.8 419.846,1448.8 422.423,1448.8 425,1448.79 427.578,1448.79 430.155,1448.79 432.732,1448.79 
  435.309,1448.78 437.887,1448.78 440.464,1448.78 443.041,1448.77 445.618,1448.77 448.195,1448.76 450.773,1448.76 453.35,1448.75 455.927,1448.75 458.504,1448.74 
  461.081,1448.74 463.659,1448.73 466.236,1448.72 468.813,1448.71 471.39,1448.7 473.968,1448.69 476.545,1448.68 479.122,1448.67 481.699,1448.66 484.276,1448.64 
  486.854,1448.63 489.431,1448.61 492.008,1448.6 494.585,1448.58 497.162,1448.56 499.74,1448.54 502.317,1448.51 504.894,1448.49 507.471,1448.46 510.048,1448.43 
  512.626,1448.4 515.203,1448.37 517.78,1448.33 520.357,1448.3 522.935,1448.26 525.512,1448.21 528.089,1448.17 530.666,1448.12 533.243,1448.06 535.821,1448.01 
  538.398,1447.94 540.975,1447.88 543.552,1447.81 546.129,1447.73 548.707,1447.66 551.284,1447.57 553.861,1447.48 556.438,1447.38 559.016,1447.28 561.593,1447.17 
  564.17,1447.06 566.747,1446.93 569.324,1446.8 571.902,1446.66 574.479,1446.51 577.056,1446.35 579.633,1446.19 582.21,1446.01 584.788,1445.82 587.365,1445.62 
  589.942,1445.41 592.519,1445.18 595.097,1444.94 597.674,1444.69 600.251,1444.43 602.828,1444.14 605.405,1443.84 607.983,1443.53 610.56,1443.2 613.137,1442.85 
  615.714,1442.48 618.291,1442.08 620.869,1441.67 623.446,1441.24 626.023,1440.78 628.6,1440.3 631.178,1439.79 633.755,1439.26 636.332,1438.7 638.909,1438.11 
  641.486,1437.49 644.064,1436.84 646.641,1436.15 649.218,1435.44 651.795,1434.69 654.372,1433.9 656.95,1433.08 659.527,1432.21 662.104,1431.31 664.681,1430.36 
  667.258,1429.37 669.836,1428.34 672.413,1427.26 674.99,1426.13 677.567,1424.95 680.145,1423.73 682.722,1422.44 685.299,1421.11 687.876,1419.72 690.453,1418.27 
  693.031,1416.76 695.608,1415.19 698.185,1413.56 700.762,1411.86 703.339,1410.1 705.917,1408.27 708.494,1406.36 711.071,1404.39 713.648,1402.35 716.226,1400.23 
  718.803,1398.03 721.38,1395.76 723.957,1393.41 726.534,1390.97 729.112,1388.45 731.689,1385.85 734.266,1383.16 736.843,1380.39 739.42,1377.52 741.998,1374.57 
  744.575,1371.52 747.152,1368.39 749.729,1365.15 752.307,1361.83 754.884,1358.4 757.461,1354.88 760.038,1351.26 762.615,1347.54 765.193,1343.73 767.77,1339.81 
  770.347,1335.79 772.924,1331.67 775.501,1327.45 778.079,1323.13 780.656,1318.7 783.233,1314.17 785.81,1309.55 788.388,1304.81 790.965,1299.98 793.542,1295.05 
  796.119,1290.02 798.696,1284.89 801.274,1279.66 803.851,1274.33 806.428,1268.91 809.005,1263.4 811.582,1257.79 814.16,1252.09 816.737,1246.3 819.314,1240.42 
  821.891,1234.46 824.469,1228.42 827.046,1222.3 829.623,1216.1 832.2,1209.82 834.777,1203.48 837.355,1197.07 839.932,1190.59 842.509,1184.05 845.086,1177.46 
  847.663,1170.81 850.241,1164.12 852.818,1157.38 855.395,1150.59 857.972,1143.78 860.549,1136.93 863.127,1130.06 865.704,1123.16 868.281,1116.25 870.858,1109.33 
  873.436,1102.4 876.013,1095.47 878.59,1088.55 881.167,1081.64 883.744,1074.75 886.322,1067.88 888.899,1061.04 891.476,1054.23 894.053,1047.46 896.63,1040.75 
  899.208,1034.08 901.785,1027.48 904.362,1020.94 906.939,1014.47 909.517,1008.08 912.094,1001.78 914.671,995.568 917.248,989.454 919.825,983.443 922.403,977.542 
  924.98,971.757 927.557,966.094 930.134,960.56 932.711,955.159 935.289,949.899 937.866,944.784 940.443,939.82 943.02,935.013 945.598,930.368 948.175,925.89 
  950.752,921.584 953.329,917.455 955.906,913.509 958.484,909.748 961.061,906.179 963.638,902.804 966.215,899.628 968.792,896.654 971.37,893.886 973.947,891.328 
  976.524,888.981 979.101,886.85 981.679,884.936 984.256,883.242 986.833,881.769 989.41,880.521 991.987,879.497 994.565,878.699 997.142,878.129 999.719,877.786 
  1002.3,877.672 1004.87,877.786 1007.45,878.129 1010.03,878.699 1012.61,879.497 1015.18,880.521 1017.76,881.769 1020.34,883.242 1022.91,884.936 1025.49,886.85 
  1028.07,888.981 1030.65,891.328 1033.22,893.886 1035.8,896.654 1038.38,899.628 1040.95,902.804 1043.53,906.179 1046.11,909.748 1048.69,913.509 1051.26,917.455 
  1053.84,921.584 1056.42,925.889 1058.99,930.367 1061.57,935.012 1064.15,939.82 1066.73,944.783 1069.3,949.898 1071.88,955.159 1074.46,960.559 1077.04,966.094 
  1079.61,971.757 1082.19,977.541 1084.77,983.442 1087.34,989.453 1089.92,995.567 1092.5,1001.78 1095.08,1008.08 1097.65,1014.47 1100.23,1020.94 1102.81,1027.48 
  1105.38,1034.08 1107.96,1040.74 1110.54,1047.46 1113.12,1054.23 1115.69,1061.03 1118.27,1067.87 1120.85,1074.75 1123.43,1081.64 1126,1088.55 1128.58,1095.47 
  1131.16,1102.4 1133.73,1109.32 1136.31,1116.25 1138.89,1123.16 1141.47,1130.05 1144.04,1136.92 1146.62,1143.77 1149.2,1150.59 1151.77,1157.37 1154.35,1164.11 
  1156.93,1170.8 1159.51,1177.45 1162.08,1184.04 1164.66,1190.58 1167.24,1197.05 1169.82,1203.46 1172.39,1209.8 1174.97,1216.08 1177.55,1222.27 1180.12,1228.39 
  1182.7,1234.43 1185.28,1240.39 1187.86,1246.26 1190.43,1252.05 1193.01,1257.74 1195.59,1263.35 1198.16,1268.86 1200.74,1274.28 1203.32,1279.6 1205.9,1284.82 
  1208.47,1289.95 1211.05,1294.97 1213.63,1299.9 1216.2,1304.72 1218.78,1309.44 1221.36,1314.06 1223.94,1318.58 1226.51,1323 1229.09,1327.31 1231.67,1331.52 
  1234.25,1335.62 1236.82,1339.63 1239.4,1343.53 1241.98,1347.33 1244.55,1351.03 1247.13,1354.63 1249.71,1358.12 1252.29,1361.52 1254.86,1364.83 1257.44,1368.03 
  1260.02,1371.14 1262.59,1374.15 1265.17,1377.07 1267.75,1379.9 1270.33,1382.64 1272.9,1385.28 1275.48,1387.84 1278.06,1390.31 1280.64,1392.69 1283.21,1394.98 
  1285.79,1397.2 1288.37,1399.33 1290.94,1401.38 1293.52,1403.34 1296.1,1405.24 1298.68,1407.05 1301.25,1408.79 1303.83,1410.45 1306.41,1412.04 1308.98,1413.56 
  1311.56,1415.01 1314.14,1416.38 1316.72,1417.69 1319.29,1418.94 1321.87,1420.11 1324.45,1421.23 1327.03,1422.27 1329.6,1423.26 1332.18,1424.18 1334.76,1425.04 
  1337.33,1425.85 1339.91,1426.59 1342.49,1427.27 1345.07,1427.89 1347.64,1428.46 1350.22,1428.97 1352.8,1429.42 1355.37,1429.82 1357.95,1430.15 1360.53,1430.44 
  1363.11,1430.66 1365.68,1430.83 1368.26,1430.94 1370.84,1431 1373.41,1431 1375.99,1430.94 1378.57,1430.83 1381.15,1430.66 1383.72,1430.43 1386.3,1430.14 
  1388.88,1429.79 1391.46,1429.37 1394.03,1428.9 1396.61,1428.36 1399.19,1427.76 1401.76,1427.1 1404.34,1426.37 1406.92,1425.57 1409.5,1424.7 1412.07,1423.76 
  1414.65,1422.74 1417.23,1421.65 1419.8,1420.49 1422.38,1419.25 1424.96,1417.92 1427.54,1416.52 1430.11,1415.02 1432.69,1413.45 1435.27,1411.78 1437.85,1410.02 
  1440.42,1408.16 1443,1406.21 1445.58,1404.16 1448.15,1402.01 1450.73,1399.75 1453.31,1397.38 1455.89,1394.9 1458.46,1392.31 1461.04,1389.6 1463.62,1386.77 
  1466.19,1383.82 1468.77,1380.74 1471.35,1377.54 1473.93,1374.19 1476.5,1370.72 1479.08,1367.1 1481.66,1363.35 1484.24,1359.44 1486.81,1355.39 1489.39,1351.19 
  1491.97,1346.83 1494.54,1342.31 1497.12,1337.63 1499.7,1332.79 1502.28,1327.78 1504.85,1322.6 1507.43,1317.24 1510.01,1311.71 1512.58,1306 1515.16,1300.11 
  1517.74,1294.04 1520.32,1287.77 1522.89,1281.32 1525.47,1274.68 1528.05,1267.84 1530.62,1260.81 1533.2,1253.59 1535.78,1246.16 1538.36,1238.53 1540.93,1230.71 
  1543.51,1222.68 1546.09,1214.44 1548.67,1206.01 1551.24,1197.37 1553.82,1188.52 1556.4,1179.47 1558.97,1170.22 1561.55,1160.76 1564.13,1151.1 1566.71,1141.24 
  1569.28,1131.18 1571.86,1120.92 1574.44,1110.47 1577.01,1099.82 1579.59,1088.98 1582.17,1077.95 1584.75,1066.73 1587.32,1055.33 1589.9,1043.76 1592.48,1032.01 
  1595.06,1020.09 1597.63,1008 1600.21,995.761 1602.79,983.363 1605.36,970.817 1607.94,958.129 1610.52,945.306 1613.1,932.354 1615.67,919.28 1618.25,906.093 
  1620.83,892.799 1623.4,879.408 1625.98,865.927 1628.56,852.366 1631.14,838.733 1633.71,825.038 1636.29,811.291 1638.87,797.501 1641.45,783.679 1644.02,769.835 
  1646.6,755.98 1649.18,742.126 1651.75,728.282 1654.33,714.461 1656.91,700.675 1659.49,686.934 1662.06,673.251 1664.64,659.638 1667.22,646.107 1669.79,632.671 
  1672.37,619.342 1674.95,606.132 1677.53,593.055 1680.1,580.121 1682.68,567.345 1685.26,554.739 1687.83,542.315 1690.41,530.087 1692.99,518.065 1695.57,506.263 
  1698.14,494.694 1700.72,483.369 1703.3,472.299 1705.88,461.498 1708.45,450.977 1711.03,440.747 1713.61,430.82 1716.18,421.205 1718.76,411.915 1721.34,402.959 
  1723.92,394.348 1726.49,386.091 1729.07,378.197 1731.65,370.677 1734.22,363.537 1736.8,356.788 1739.38,350.436 1741.96,344.488 1744.53,338.953 1747.11,333.836 
  1749.69,329.143 1752.27,324.88 1754.84,321.052 1757.42,317.664 1760,314.719 1762.57,312.221 1765.15,310.173 1767.73,308.578 1770.31,307.437 1772.88,306.752 
  1775.46,306.524 1778.04,306.752 1780.61,307.437 1783.19,308.578 1785.77,310.173 1788.35,312.221 1790.92,314.719 1793.5,317.664 1796.08,321.052 1798.66,324.88 
  1801.23,329.143 1803.81,333.836 1806.39,338.953 1808.96,344.488 1811.54,350.436 1814.12,356.788 1816.7,363.538 1819.27,370.677 1821.85,378.197 1824.43,386.091 
  1827,394.348 1829.58,402.959 1832.16,411.915 1834.74,421.205 1837.31,430.82 1839.89,440.747 1842.47,450.977 1845.04,461.499 1847.62,472.3 1850.2,483.369 
  1852.78,494.694 1855.35,506.264 1857.93,518.065 1860.51,530.087 1863.09,542.316 1865.66,554.74 1868.24,567.346 1870.82,580.122 1873.39,593.055 1875.97,606.133 
  1878.55,619.343 1881.13,632.672 1883.7,646.108 1886.28,659.639 1888.86,673.252 1891.43,686.935 1894.01,700.676 1896.59,714.463 1899.17,728.284 1901.74,742.128 
  1904.32,755.982 1906.9,769.837 1909.48,783.681 1912.05,797.504 1914.63,811.294 1917.21,825.041 1919.78,838.737 1922.36,852.37 1924.94,865.932 1927.52,879.413 
  1930.09,892.805 1932.67,906.099 1935.25,919.287 1937.82,932.361 1940.4,945.314 1942.98,958.138 1945.56,970.827 1948.13,983.374 1950.71,995.773 1953.29,1008.02 
  1955.87,1020.1 1958.44,1032.02 1961.02,1043.78 1963.6,1055.35 1966.17,1066.75 1968.75,1077.97 1971.33,1089 1973.91,1099.85 1976.48,1110.5 1979.06,1120.96 
  1981.64,1131.22 1984.21,1141.28 1986.79,1151.15 1989.37,1160.81 1991.95,1170.27 1994.52,1179.53 1997.1,1188.58 1999.68,1197.43 2002.25,1206.08 2004.83,1214.52 
  2007.41,1222.76 2009.99,1230.8 2012.56,1238.63 2015.14,1246.27 2017.72,1253.7 2020.3,1260.94 2022.87,1267.98 2025.45,1274.83 2028.03,1281.49 2030.6,1287.95 
  2033.18,1294.23 2035.76,1300.32 2038.34,1306.23 2040.91,1311.95 2043.49,1317.51 2046.07,1322.88 2048.64,1328.09 2051.22,1333.12 2053.8,1337.99 2056.38,1342.7 
  2058.95,1347.25 2061.53,1351.64 2064.11,1355.88 2066.69,1359.97 2069.26,1363.91 2071.84,1367.71 2074.42,1371.37 2076.99,1374.9 2079.57,1378.29 2082.15,1381.56 
  2084.73,1384.7 2087.3,1387.71 2089.88,1390.61 2092.46,1393.4 2095.03,1396.07 2097.61,1398.63 2100.19,1401.09 2102.77,1403.44 2105.34,1405.7 2107.92,1407.86 
  2110.5,1409.93 2113.08,1411.91 2115.65,1413.8 2118.23,1415.61 2120.81,1417.33 2123.38,1418.98 2125.96,1420.56 2128.54,1422.06 2131.12,1423.49 2133.69,1424.85 
  2136.27,1426.16 2138.85,1427.39 2141.42,1428.57 2144,1429.7 2146.58,1430.76 2149.16,1431.78 2151.73,1432.74 2154.31,1433.65 2156.89,1434.52 2159.46,1435.35 
  2162.04,1436.13 2164.62,1436.87 2167.2,1437.57 2169.77,1438.24 2172.35,1438.87 2174.93,1439.47 2177.51,1440.03 2180.08,1440.56 2182.66,1441.07 2185.24,1441.54 
  2187.81,1441.99 2190.39,1442.42 2192.97,1442.82 2195.55,1443.2 2198.12,1443.55 2200.7,1443.89 2203.28,1444.2 2205.85,1444.5 2208.43,1444.78 2211.01,1445.04 
  2213.59,1445.29 2216.16,1445.52 2218.74,1445.74 2221.32,1445.95 2223.9,1446.14 2226.47,1446.32 2229.05,1446.49 2231.63,1446.65 2234.2,1446.8 2236.78,1446.94 
  2239.36,1447.07 2241.94,1447.19 2244.51,1447.3 2247.09,1447.41 2249.67,1447.51 2252.24,1447.6 2254.82,1447.69 2257.4,1447.77 2259.98,1447.85 2262.55,1447.92 
  2265.13,1447.98 2267.71,1448.05 2270.29,1448.1 2272.86,1448.16 2275.44,1448.21 2278.02,1448.25 2280.59,1448.29 2283.17,1448.33 2285.75,1448.37 2288.33,1448.4 
  2290.9,1448.44 
  "/>
<path clip-path="url(#clip9800)" d="
M1928.41 386.635 L2280.76 386.635 L2280.76 205.195 L1928.41 205.195  Z
  " fill="#ffffff" fill-rule="evenodd" fill-opacity="1"/>
<polyline clip-path="url(#clip9800)" style="stroke:#000000; stroke-width:4; stroke-opacity:1; fill:none" points="
  1928.41,386.635 2280.76,386.635 2280.76,205.195 1928.41,205.195 1928.41,386.635 
  "/>
<polyline clip-path="url(#clip9800)" style="stroke:#009af9; stroke-width:4; stroke-opacity:1; fill:none" points="
  1952.41,265.675 2096.41,265.675 
  "/>
<g clip-path="url(#clip9800)">
<text style="fill:#000000; fill-opacity:1; font-family:Arial,Helvetica Neue,Helvetica,sans-serif; font-size:48px; text-anchor:start;" transform="rotate(0, 2120.41, 283.175)" x="2120.41" y="283.175">Data</text>
</g>
<polyline clip-path="url(#clip9800)" style="stroke:#e26f46; stroke-width:4; stroke-opacity:1; fill:none" points="
  1952.41,326.155 2096.41,326.155 
  "/>
<g clip-path="url(#clip9800)">
<text style="fill:#000000; fill-opacity:1; font-family:Arial,Helvetica Neue,Helvetica,sans-serif; font-size:48px; text-anchor:start;" transform="rotate(0, 2120.41, 343.655)" x="2120.41" y="343.655">Truth</text>
</g>
</svg>
