<?xml version="1.0" encoding="utf-8"?>
<svg xmlns="http://www.w3.org/2000/svg" xmlns:xlink="http://www.w3.org/1999/xlink" width="600" height="400" viewBox="0 0 2400 1600">
<defs>
  <clipPath id="clip760">
    <rect x="0" y="0" width="2400" height="1600"/>
  </clipPath>
</defs>
<path clip-path="url(#clip760)" d="
M0 1600 L2400 1600 L2400 0 L0 0  Z
  " fill="#ffffff" fill-rule="evenodd" fill-opacity="1"/>
<defs>
  <clipPath id="clip761">
    <rect x="480" y="0" width="1681" height="1600"/>
  </clipPath>
</defs>
<path clip-path="url(#clip760)" d="
M166.205 1486.45 L2352.76 1486.45 L2352.76 123.472 L166.205 123.472  Z
  " fill="#ffffff" fill-rule="evenodd" fill-opacity="1"/>
<defs>
  <clipPath id="clip762">
    <rect x="166" y="123" width="2188" height="1364"/>
  </clipPath>
</defs>
<polyline clip-path="url(#clip762)" style="stroke:#000000; stroke-width:2; stroke-opacity:0.1; fill:none" points="
  228.088,1486.45 228.088,123.472 
  "/>
<polyline clip-path="url(#clip762)" style="stroke:#000000; stroke-width:2; stroke-opacity:0.1; fill:none" points="
  743.784,1486.45 743.784,123.472 
  "/>
<polyline clip-path="url(#clip762)" style="stroke:#000000; stroke-width:2; stroke-opacity:0.1; fill:none" points="
  1259.48,1486.45 1259.48,123.472 
  "/>
<polyline clip-path="url(#clip762)" style="stroke:#000000; stroke-width:2; stroke-opacity:0.1; fill:none" points="
  1775.18,1486.45 1775.18,123.472 
  "/>
<polyline clip-path="url(#clip762)" style="stroke:#000000; stroke-width:2; stroke-opacity:0.1; fill:none" points="
  2290.87,1486.45 2290.87,123.472 
  "/>
<polyline clip-path="url(#clip760)" style="stroke:#000000; stroke-width:4; stroke-opacity:1; fill:none" points="
  166.205,1486.45 2352.76,1486.45 
  "/>
<polyline clip-path="url(#clip760)" style="stroke:#000000; stroke-width:4; stroke-opacity:1; fill:none" points="
  228.088,1486.45 228.088,1470.09 
  "/>
<polyline clip-path="url(#clip760)" style="stroke:#000000; stroke-width:4; stroke-opacity:1; fill:none" points="
  743.784,1486.45 743.784,1470.09 
  "/>
<polyline clip-path="url(#clip760)" style="stroke:#000000; stroke-width:4; stroke-opacity:1; fill:none" points="
  1259.48,1486.45 1259.48,1470.09 
  "/>
<polyline clip-path="url(#clip760)" style="stroke:#000000; stroke-width:4; stroke-opacity:1; fill:none" points="
  1775.18,1486.45 1775.18,1470.09 
  "/>
<polyline clip-path="url(#clip760)" style="stroke:#000000; stroke-width:4; stroke-opacity:1; fill:none" points="
  2290.87,1486.45 2290.87,1470.09 
  "/>
<path clip-path="url(#clip760)" d="M 0 0 M199.5 1530.29 L229.176 1530.29 L229.176 1534.23 L199.5 1534.23 L199.5 1530.29 Z" fill="#000000" fill-rule="evenodd" fill-opacity="1" /><path clip-path="url(#clip760)" d="M 0 0 M247.093 1516.63 L235.287 1535.08 L247.093 1535.08 L247.093 1516.63 M245.866 1512.56 L251.745 1512.56 L251.745 1535.08 L256.676 1535.08 L256.676 1538.97 L251.745 1538.97 L251.745 1547.12 L247.093 1547.12 L247.093 1538.97 L231.491 1538.97 L231.491 1534.46 L245.866 1512.56 Z" fill="#000000" fill-rule="evenodd" fill-opacity="1" /><path clip-path="url(#clip760)" d="M 0 0 M716.238 1530.29 L745.914 1530.29 L745.914 1534.23 L716.238 1534.23 L716.238 1530.29 Z" fill="#000000" fill-rule="evenodd" fill-opacity="1" /><path clip-path="url(#clip760)" d="M 0 0 M755.011 1543.18 L771.33 1543.18 L771.33 1547.12 L749.386 1547.12 L749.386 1543.18 Q752.048 1540.43 756.631 1535.8 Q761.238 1531.15 762.418 1529.81 Q764.664 1527.28 765.543 1525.55 Q766.446 1523.79 766.446 1522.1 Q766.446 1519.34 764.502 1517.61 Q762.58 1515.87 759.479 1515.87 Q757.28 1515.87 754.826 1516.63 Q752.395 1517.4 749.618 1518.95 L749.618 1514.23 Q752.442 1513.09 754.895 1512.51 Q757.349 1511.93 759.386 1511.93 Q764.756 1511.93 767.951 1514.62 Q771.145 1517.31 771.145 1521.8 Q771.145 1523.93 770.335 1525.85 Q769.548 1527.74 767.442 1530.34 Q766.863 1531.01 763.761 1534.23 Q760.659 1537.42 755.011 1543.18 Z" fill="#000000" fill-rule="evenodd" fill-opacity="1" /><path clip-path="url(#clip760)" d="M 0 0 M1259.48 1515.64 Q1255.87 1515.64 1254.04 1519.2 Q1252.23 1522.75 1252.23 1529.87 Q1252.23 1536.98 1254.04 1540.55 Q1255.87 1544.09 1259.48 1544.09 Q1263.11 1544.09 1264.92 1540.55 Q1266.75 1536.98 1266.75 1529.87 Q1266.75 1522.75 1264.92 1519.2 Q1263.11 1515.64 1259.48 1515.64 M1259.48 1511.93 Q1265.29 1511.93 1268.35 1516.54 Q1271.42 1521.12 1271.42 1529.87 Q1271.42 1538.6 1268.35 1543.21 Q1265.29 1547.79 1259.48 1547.79 Q1253.67 1547.79 1250.59 1543.21 Q1247.54 1538.6 1247.54 1529.87 Q1247.54 1521.12 1250.59 1516.54 Q1253.67 1511.93 1259.48 1511.93 Z" fill="#000000" fill-rule="evenodd" fill-opacity="1" /><path clip-path="url(#clip760)" d="M 0 0 M1769.83 1543.18 L1786.15 1543.18 L1786.15 1547.12 L1764.2 1547.12 L1764.2 1543.18 Q1766.87 1540.43 1771.45 1535.8 Q1776.06 1531.15 1777.24 1529.81 Q1779.48 1527.28 1780.36 1525.55 Q1781.26 1523.79 1781.26 1522.1 Q1781.26 1519.34 1779.32 1517.61 Q1777.4 1515.87 1774.3 1515.87 Q1772.1 1515.87 1769.64 1516.63 Q1767.21 1517.4 1764.44 1518.95 L1764.44 1514.23 Q1767.26 1513.09 1769.71 1512.51 Q1772.17 1511.93 1774.2 1511.93 Q1779.57 1511.93 1782.77 1514.62 Q1785.96 1517.31 1785.96 1521.8 Q1785.96 1523.93 1785.15 1525.85 Q1784.37 1527.74 1782.26 1530.34 Q1781.68 1531.01 1778.58 1534.23 Q1775.48 1537.42 1769.83 1543.18 Z" fill="#000000" fill-rule="evenodd" fill-opacity="1" /><path clip-path="url(#clip760)" d="M 0 0 M2293.88 1516.63 L2282.08 1535.08 L2293.88 1535.08 L2293.88 1516.63 M2292.65 1512.56 L2298.53 1512.56 L2298.53 1535.08 L2303.46 1535.08 L2303.46 1538.97 L2298.53 1538.97 L2298.53 1547.12 L2293.88 1547.12 L2293.88 1538.97 L2278.28 1538.97 L2278.28 1534.46 L2292.65 1512.56 Z" fill="#000000" fill-rule="evenodd" fill-opacity="1" /><polyline clip-path="url(#clip762)" style="stroke:#000000; stroke-width:2; stroke-opacity:0.1; fill:none" points="
  166.205,1447.87 2352.76,1447.87 
  "/>
<polyline clip-path="url(#clip762)" style="stroke:#000000; stroke-width:2; stroke-opacity:0.1; fill:none" points="
  166.205,1168.35 2352.76,1168.35 
  "/>
<polyline clip-path="url(#clip762)" style="stroke:#000000; stroke-width:2; stroke-opacity:0.1; fill:none" points="
  166.205,888.818 2352.76,888.818 
  "/>
<polyline clip-path="url(#clip762)" style="stroke:#000000; stroke-width:2; stroke-opacity:0.1; fill:none" points="
  166.205,609.291 2352.76,609.291 
  "/>
<polyline clip-path="url(#clip762)" style="stroke:#000000; stroke-width:2; stroke-opacity:0.1; fill:none" points="
  166.205,329.763 2352.76,329.763 
  "/>
<polyline clip-path="url(#clip760)" style="stroke:#000000; stroke-width:4; stroke-opacity:1; fill:none" points="
  166.205,1486.45 166.205,123.472 
  "/>
<polyline clip-path="url(#clip760)" style="stroke:#000000; stroke-width:4; stroke-opacity:1; fill:none" points="
  166.205,1447.87 192.443,1447.87 
  "/>
<polyline clip-path="url(#clip760)" style="stroke:#000000; stroke-width:4; stroke-opacity:1; fill:none" points="
  166.205,1168.35 192.443,1168.35 
  "/>
<polyline clip-path="url(#clip760)" style="stroke:#000000; stroke-width:4; stroke-opacity:1; fill:none" points="
  166.205,888.818 192.443,888.818 
  "/>
<polyline clip-path="url(#clip760)" style="stroke:#000000; stroke-width:4; stroke-opacity:1; fill:none" points="
  166.205,609.291 192.443,609.291 
  "/>
<polyline clip-path="url(#clip760)" style="stroke:#000000; stroke-width:4; stroke-opacity:1; fill:none" points="
  166.205,329.763 192.443,329.763 
  "/>
<path clip-path="url(#clip760)" d="M 0 0 M118.26 1433.67 Q114.649 1433.67 112.82 1437.24 Q111.015 1440.78 111.015 1447.91 Q111.015 1455.01 112.82 1458.58 Q114.649 1462.12 118.26 1462.12 Q121.895 1462.12 123.7 1458.58 Q125.529 1455.01 125.529 1447.91 Q125.529 1440.78 123.7 1437.24 Q121.895 1433.67 118.26 1433.67 M118.26 1429.97 Q124.07 1429.97 127.126 1434.57 Q130.205 1439.16 130.205 1447.91 Q130.205 1456.63 127.126 1461.24 Q124.07 1465.82 118.26 1465.82 Q112.45 1465.82 109.371 1461.24 Q106.316 1456.63 106.316 1447.91 Q106.316 1439.16 109.371 1434.57 Q112.45 1429.97 118.26 1429.97 Z" fill="#000000" fill-rule="evenodd" fill-opacity="1" /><path clip-path="url(#clip760)" d="M 0 0 M59.8578 1181.69 L76.1772 1181.69 L76.1772 1185.63 L54.2328 1185.63 L54.2328 1181.69 Q56.8949 1178.94 61.4782 1174.31 Q66.0846 1169.65 67.2652 1168.31 Q69.5105 1165.79 70.3902 1164.05 Q71.2929 1162.29 71.2929 1160.6 Q71.2929 1157.85 69.3485 1156.11 Q67.4272 1154.38 64.3254 1154.38 Q62.1263 1154.38 59.6726 1155.14 Q57.2421 1155.9 54.4643 1157.45 L54.4643 1152.73 Q57.2884 1151.6 59.7421 1151.02 Q62.1958 1150.44 64.2328 1150.44 Q69.6031 1150.44 72.7976 1153.13 Q75.992 1155.81 75.992 1160.3 Q75.992 1162.43 75.1818 1164.35 Q74.3948 1166.25 72.2883 1168.84 Q71.7096 1169.51 68.6078 1172.73 Q65.5059 1175.93 59.8578 1181.69 Z" fill="#000000" fill-rule="evenodd" fill-opacity="1" /><path clip-path="url(#clip760)" d="M 0 0 M91.2465 1154.14 Q87.6354 1154.14 85.8068 1157.71 Q84.0012 1161.25 84.0012 1168.38 Q84.0012 1175.49 85.8068 1179.05 Q87.6354 1182.59 91.2465 1182.59 Q94.8808 1182.59 96.6863 1179.05 Q98.515 1175.49 98.515 1168.38 Q98.515 1161.25 96.6863 1157.71 Q94.8808 1154.14 91.2465 1154.14 M91.2465 1150.44 Q97.0567 1150.44 100.112 1155.05 Q103.191 1159.63 103.191 1168.38 Q103.191 1177.11 100.112 1181.71 Q97.0567 1186.3 91.2465 1186.3 Q85.4364 1186.3 82.3577 1181.71 Q79.3022 1177.11 79.3022 1168.38 Q79.3022 1159.63 82.3577 1155.05 Q85.4364 1150.44 91.2465 1150.44 Z" fill="#000000" fill-rule="evenodd" fill-opacity="1" /><path clip-path="url(#clip760)" d="M 0 0 M118.26 1154.14 Q114.649 1154.14 112.82 1157.71 Q111.015 1161.25 111.015 1168.38 Q111.015 1175.49 112.82 1179.05 Q114.649 1182.59 118.26 1182.59 Q121.895 1182.59 123.7 1179.05 Q125.529 1175.49 125.529 1168.38 Q125.529 1161.25 123.7 1157.71 Q121.895 1154.14 118.26 1154.14 M118.26 1150.44 Q124.07 1150.44 127.126 1155.05 Q130.205 1159.63 130.205 1168.38 Q130.205 1177.11 127.126 1181.71 Q124.07 1186.3 118.26 1186.3 Q112.45 1186.3 109.371 1181.71 Q106.316 1177.11 106.316 1168.38 Q106.316 1159.63 109.371 1155.05 Q112.45 1150.44 118.26 1150.44 Z" fill="#000000" fill-rule="evenodd" fill-opacity="1" /><path clip-path="url(#clip760)" d="M 0 0 M66.5939 875.612 L54.7884 894.061 L66.5939 894.061 L66.5939 875.612 M65.367 871.538 L71.2466 871.538 L71.2466 894.061 L76.1772 894.061 L76.1772 897.95 L71.2466 897.95 L71.2466 906.098 L66.5939 906.098 L66.5939 897.95 L50.9921 897.95 L50.9921 893.436 L65.367 871.538 Z" fill="#000000" fill-rule="evenodd" fill-opacity="1" /><path clip-path="url(#clip760)" d="M 0 0 M91.2465 874.617 Q87.6354 874.617 85.8068 878.182 Q84.0012 881.723 84.0012 888.853 Q84.0012 895.959 85.8068 899.524 Q87.6354 903.066 91.2465 903.066 Q94.8808 903.066 96.6863 899.524 Q98.515 895.959 98.515 888.853 Q98.515 881.723 96.6863 878.182 Q94.8808 874.617 91.2465 874.617 M91.2465 870.913 Q97.0567 870.913 100.112 875.52 Q103.191 880.103 103.191 888.853 Q103.191 897.58 100.112 902.186 Q97.0567 906.77 91.2465 906.77 Q85.4364 906.77 82.3577 902.186 Q79.3022 897.58 79.3022 888.853 Q79.3022 880.103 82.3577 875.52 Q85.4364 870.913 91.2465 870.913 Z" fill="#000000" fill-rule="evenodd" fill-opacity="1" /><path clip-path="url(#clip760)" d="M 0 0 M118.26 874.617 Q114.649 874.617 112.82 878.182 Q111.015 881.723 111.015 888.853 Q111.015 895.959 112.82 899.524 Q114.649 903.066 118.26 903.066 Q121.895 903.066 123.7 899.524 Q125.529 895.959 125.529 888.853 Q125.529 881.723 123.7 878.182 Q121.895 874.617 118.26 874.617 M118.26 870.913 Q124.07 870.913 127.126 875.52 Q130.205 880.103 130.205 888.853 Q130.205 897.58 127.126 902.186 Q124.07 906.77 118.26 906.77 Q112.45 906.77 109.371 902.186 Q106.316 897.58 106.316 888.853 Q106.316 880.103 109.371 875.52 Q112.45 870.913 118.26 870.913 Z" fill="#000000" fill-rule="evenodd" fill-opacity="1" /><path clip-path="url(#clip760)" d="M 0 0 M64.6495 607.427 Q61.5013 607.427 59.6495 609.58 Q57.8208 611.733 57.8208 615.483 Q57.8208 619.21 59.6495 621.386 Q61.5013 623.538 64.6495 623.538 Q67.7976 623.538 69.6263 621.386 Q71.4781 619.21 71.4781 615.483 Q71.4781 611.733 69.6263 609.58 Q67.7976 607.427 64.6495 607.427 M73.9318 592.775 L73.9318 597.034 Q72.1726 596.201 70.367 595.761 Q68.5846 595.321 66.8254 595.321 Q62.1958 595.321 59.7421 598.446 Q57.3115 601.571 56.9643 607.89 Q58.33 605.876 60.3902 604.812 Q62.4504 603.724 64.9272 603.724 Q70.1355 603.724 73.1448 606.895 Q76.1772 610.043 76.1772 615.483 Q76.1772 620.807 73.029 624.025 Q69.8809 627.242 64.6495 627.242 Q58.6541 627.242 55.4828 622.659 Q52.3116 618.052 52.3116 609.326 Q52.3116 601.131 56.2004 596.27 Q60.0893 591.386 66.6402 591.386 Q68.3994 591.386 70.1818 591.733 Q71.9874 592.08 73.9318 592.775 Z" fill="#000000" fill-rule="evenodd" fill-opacity="1" /><path clip-path="url(#clip760)" d="M 0 0 M91.2465 595.089 Q87.6354 595.089 85.8068 598.654 Q84.0012 602.196 84.0012 609.326 Q84.0012 616.432 85.8068 619.997 Q87.6354 623.538 91.2465 623.538 Q94.8808 623.538 96.6863 619.997 Q98.515 616.432 98.515 609.326 Q98.515 602.196 96.6863 598.654 Q94.8808 595.089 91.2465 595.089 M91.2465 591.386 Q97.0567 591.386 100.112 595.992 Q103.191 600.576 103.191 609.326 Q103.191 618.052 100.112 622.659 Q97.0567 627.242 91.2465 627.242 Q85.4364 627.242 82.3577 622.659 Q79.3022 618.052 79.3022 609.326 Q79.3022 600.576 82.3577 595.992 Q85.4364 591.386 91.2465 591.386 Z" fill="#000000" fill-rule="evenodd" fill-opacity="1" /><path clip-path="url(#clip760)" d="M 0 0 M118.26 595.089 Q114.649 595.089 112.82 598.654 Q111.015 602.196 111.015 609.326 Q111.015 616.432 112.82 619.997 Q114.649 623.538 118.26 623.538 Q121.895 623.538 123.7 619.997 Q125.529 616.432 125.529 609.326 Q125.529 602.196 123.7 598.654 Q121.895 595.089 118.26 595.089 M118.26 591.386 Q124.07 591.386 127.126 595.992 Q130.205 600.576 130.205 609.326 Q130.205 618.052 127.126 622.659 Q124.07 627.242 118.26 627.242 Q112.45 627.242 109.371 622.659 Q106.316 618.052 106.316 609.326 Q106.316 600.576 109.371 595.992 Q112.45 591.386 118.26 591.386 Z" fill="#000000" fill-rule="evenodd" fill-opacity="1" /><path clip-path="url(#clip760)" d="M 0 0 M64.3254 330.631 Q60.9921 330.631 59.0708 332.414 Q57.1726 334.196 57.1726 337.321 Q57.1726 340.446 59.0708 342.229 Q60.9921 344.011 64.3254 344.011 Q67.6587 344.011 69.58 342.229 Q71.5013 340.423 71.5013 337.321 Q71.5013 334.196 69.58 332.414 Q67.6819 330.631 64.3254 330.631 M59.6495 328.641 Q56.6402 327.9 54.9504 325.84 Q53.2838 323.78 53.2838 320.817 Q53.2838 316.673 56.2236 314.266 Q59.1865 311.858 64.3254 311.858 Q69.4874 311.858 72.4272 314.266 Q75.367 316.673 75.367 320.817 Q75.367 323.78 73.6772 325.84 Q72.0105 327.9 69.0244 328.641 Q72.404 329.428 74.279 331.719 Q76.1772 334.011 76.1772 337.321 Q76.1772 342.344 73.0985 345.029 Q70.0429 347.715 64.3254 347.715 Q58.6078 347.715 55.5291 345.029 Q52.4736 342.344 52.4736 337.321 Q52.4736 334.011 54.3717 331.719 Q56.2699 329.428 59.6495 328.641 M57.9365 321.256 Q57.9365 323.942 59.6032 325.446 Q61.293 326.951 64.3254 326.951 Q67.3346 326.951 69.0244 325.446 Q70.7374 323.942 70.7374 321.256 Q70.7374 318.571 69.0244 317.067 Q67.3346 315.562 64.3254 315.562 Q61.293 315.562 59.6032 317.067 Q57.9365 318.571 57.9365 321.256 Z" fill="#000000" fill-rule="evenodd" fill-opacity="1" /><path clip-path="url(#clip760)" d="M 0 0 M91.2465 315.562 Q87.6354 315.562 85.8068 319.127 Q84.0012 322.668 84.0012 329.798 Q84.0012 336.905 85.8068 340.469 Q87.6354 344.011 91.2465 344.011 Q94.8808 344.011 96.6863 340.469 Q98.515 336.905 98.515 329.798 Q98.515 322.668 96.6863 319.127 Q94.8808 315.562 91.2465 315.562 M91.2465 311.858 Q97.0567 311.858 100.112 316.465 Q103.191 321.048 103.191 329.798 Q103.191 338.525 100.112 343.131 Q97.0567 347.715 91.2465 347.715 Q85.4364 347.715 82.3577 343.131 Q79.3022 338.525 79.3022 329.798 Q79.3022 321.048 82.3577 316.465 Q85.4364 311.858 91.2465 311.858 Z" fill="#000000" fill-rule="evenodd" fill-opacity="1" /><path clip-path="url(#clip760)" d="M 0 0 M118.26 315.562 Q114.649 315.562 112.82 319.127 Q111.015 322.668 111.015 329.798 Q111.015 336.905 112.82 340.469 Q114.649 344.011 118.26 344.011 Q121.895 344.011 123.7 340.469 Q125.529 336.905 125.529 329.798 Q125.529 322.668 123.7 319.127 Q121.895 315.562 118.26 315.562 M118.26 311.858 Q124.07 311.858 127.126 316.465 Q130.205 321.048 130.205 329.798 Q130.205 338.525 127.126 343.131 Q124.07 347.715 118.26 347.715 Q112.45 347.715 109.371 343.131 Q106.316 338.525 106.316 329.798 Q106.316 321.048 109.371 316.465 Q112.45 311.858 118.26 311.858 Z" fill="#000000" fill-rule="evenodd" fill-opacity="1" /><path clip-path="url(#clip760)" d="M 0 0 M697.458 18.8205 L697.458 65.8515 L707.342 65.8515 Q719.859 65.8515 725.652 60.1802 Q731.485 54.509 731.485 42.2752 Q731.485 30.1225 725.652 24.4918 Q719.859 18.8205 707.342 18.8205 L697.458 18.8205 M689.275 12.096 L706.086 12.096 Q723.667 12.096 731.891 19.4281 Q740.114 26.7198 740.114 42.2752 Q740.114 57.9117 731.85 65.2439 Q723.586 72.576 706.086 72.576 L689.275 72.576 L689.275 12.096 Z" fill="#000000" fill-rule="evenodd" fill-opacity="1" /><path clip-path="url(#clip760)" d="M 0 0 M768.551 49.7694 Q759.518 49.7694 756.034 51.8354 Q752.55 53.9013 752.55 58.8839 Q752.55 62.8538 755.143 65.2034 Q757.776 67.5124 762.272 67.5124 Q768.47 67.5124 772.197 63.1374 Q775.964 58.7219 775.964 51.4303 L775.964 49.7694 L768.551 49.7694 M783.418 46.6907 L783.418 72.576 L775.964 72.576 L775.964 65.6895 Q773.412 69.8214 769.604 71.8063 Q765.797 73.7508 760.287 73.7508 Q753.32 73.7508 749.188 69.8619 Q745.096 65.9325 745.096 59.3701 Q745.096 51.7138 750.201 47.825 Q755.345 43.9361 765.513 43.9361 L775.964 43.9361 L775.964 43.2069 Q775.964 38.0623 772.562 35.2672 Q769.199 32.4315 763.082 32.4315 Q759.194 32.4315 755.507 33.3632 Q751.821 34.295 748.418 36.1584 L748.418 29.2718 Q752.51 27.692 756.358 26.9223 Q760.206 26.1121 763.852 26.1121 Q773.696 26.1121 778.557 31.2163 Q783.418 36.3204 783.418 46.6907 Z" fill="#000000" fill-rule="evenodd" fill-opacity="1" /><path clip-path="url(#clip760)" d="M 0 0 M798.609 14.324 L798.609 27.2059 L813.962 27.2059 L813.962 32.9987 L798.609 32.9987 L798.609 57.6282 Q798.609 63.1779 800.108 64.7578 Q801.647 66.3376 806.306 66.3376 L813.962 66.3376 L813.962 72.576 L806.306 72.576 Q797.677 72.576 794.396 69.3758 Q791.115 66.1351 791.115 57.6282 L791.115 32.9987 L785.646 32.9987 L785.646 27.2059 L791.115 27.2059 L791.115 14.324 L798.609 14.324 Z" fill="#000000" fill-rule="evenodd" fill-opacity="1" /><path clip-path="url(#clip760)" d="M 0 0 M842.399 49.7694 Q833.366 49.7694 829.882 51.8354 Q826.398 53.9013 826.398 58.8839 Q826.398 62.8538 828.991 65.2034 Q831.624 67.5124 836.12 67.5124 Q842.318 67.5124 846.045 63.1374 Q849.812 58.7219 849.812 51.4303 L849.812 49.7694 L842.399 49.7694 M857.266 46.6907 L857.266 72.576 L849.812 72.576 L849.812 65.6895 Q847.26 69.8214 843.452 71.8063 Q839.645 73.7508 834.135 73.7508 Q827.168 73.7508 823.036 69.8619 Q818.944 65.9325 818.944 59.3701 Q818.944 51.7138 824.049 47.825 Q829.193 43.9361 839.361 43.9361 L849.812 43.9361 L849.812 43.2069 Q849.812 38.0623 846.41 35.2672 Q843.047 32.4315 836.93 32.4315 Q833.042 32.4315 829.355 33.3632 Q825.669 34.295 822.266 36.1584 L822.266 29.2718 Q826.358 27.692 830.206 26.9223 Q834.054 26.1121 837.7 26.1121 Q847.544 26.1121 852.405 31.2163 Q857.266 36.3204 857.266 46.6907 Z" fill="#000000" fill-rule="evenodd" fill-opacity="1" /><path clip-path="url(#clip760)" d="M 0 0 M912.075 49.7694 Q903.041 49.7694 899.557 51.8354 Q896.074 53.9013 896.074 58.8839 Q896.074 62.8538 898.666 65.2034 Q901.299 67.5124 905.796 67.5124 Q911.994 67.5124 915.721 63.1374 Q919.488 58.7219 919.488 51.4303 L919.488 49.7694 L912.075 49.7694 M926.942 46.6907 L926.942 72.576 L919.488 72.576 L919.488 65.6895 Q916.936 69.8214 913.128 71.8063 Q909.32 73.7508 903.811 73.7508 Q896.843 73.7508 892.711 69.8619 Q888.62 65.9325 888.62 59.3701 Q888.62 51.7138 893.724 47.825 Q898.869 43.9361 909.037 43.9361 L919.488 43.9361 L919.488 43.2069 Q919.488 38.0623 916.085 35.2672 Q912.723 32.4315 906.606 32.4315 Q902.717 32.4315 899.031 33.3632 Q895.345 34.295 891.942 36.1584 L891.942 29.2718 Q896.033 27.692 899.882 26.9223 Q903.73 26.1121 907.376 26.1121 Q917.219 26.1121 922.08 31.2163 Q926.942 36.3204 926.942 46.6907 Z" fill="#000000" fill-rule="evenodd" fill-opacity="1" /><path clip-path="url(#clip760)" d="M 0 0 M972.474 45.1919 L972.474 72.576 L965.02 72.576 L965.02 45.4349 Q965.02 38.994 962.508 35.7938 Q959.997 32.5936 954.974 32.5936 Q948.938 32.5936 945.454 36.4419 Q941.97 40.2903 941.97 46.9338 L941.97 72.576 L934.476 72.576 L934.476 27.2059 L941.97 27.2059 L941.97 34.2544 Q944.644 30.163 948.249 28.1376 Q951.895 26.1121 956.635 26.1121 Q964.453 26.1121 968.463 30.9732 Q972.474 35.7938 972.474 45.1919 Z" fill="#000000" fill-rule="evenodd" fill-opacity="1" /><path clip-path="url(#clip760)" d="M 0 0 M1010.15 34.0924 L1010.15 9.54393 L1017.6 9.54393 L1017.6 72.576 L1010.15 72.576 L1010.15 65.7705 Q1007.8 69.8214 1004.19 71.8063 Q1000.63 73.7508 995.604 73.7508 Q987.381 73.7508 982.196 67.1883 Q977.051 60.6258 977.051 49.9314 Q977.051 39.2371 982.196 32.6746 Q987.381 26.1121 995.604 26.1121 Q1000.63 26.1121 1004.19 28.0971 Q1007.8 30.0415 1010.15 34.0924 M984.748 49.9314 Q984.748 58.1548 988.11 62.8538 Q991.513 67.5124 997.427 67.5124 Q1003.34 67.5124 1006.74 62.8538 Q1010.15 58.1548 1010.15 49.9314 Q1010.15 41.7081 1006.74 37.0496 Q1003.34 32.3505 997.427 32.3505 Q991.513 32.3505 988.11 37.0496 Q984.748 41.7081 984.748 49.9314 Z" fill="#000000" fill-rule="evenodd" fill-opacity="1" /><path clip-path="url(#clip760)" d="M 0 0 M1043.73 12.096 L1094.89 12.096 L1094.89 18.9825 L1073.42 18.9825 L1073.42 72.576 L1065.2 72.576 L1065.2 18.9825 L1043.73 18.9825 L1043.73 12.096 Z" fill="#000000" fill-rule="evenodd" fill-opacity="1" /><path clip-path="url(#clip760)" d="M 0 0 M1116.81 34.1734 Q1115.55 33.4443 1114.05 33.1202 Q1112.59 32.7556 1110.81 32.7556 Q1104.49 32.7556 1101.09 36.8875 Q1097.73 40.9789 1097.73 48.6757 L1097.73 72.576 L1090.23 72.576 L1090.23 27.2059 L1097.73 27.2059 L1097.73 34.2544 Q1100.08 30.1225 1103.84 28.1376 Q1107.61 26.1121 1113 26.1121 Q1113.77 26.1121 1114.7 26.2337 Q1115.63 26.3147 1116.77 26.5172 L1116.81 34.1734 Z" fill="#000000" fill-rule="evenodd" fill-opacity="1" /><path clip-path="url(#clip760)" d="M 0 0 M1123.86 54.671 L1123.86 27.2059 L1131.31 27.2059 L1131.31 54.3874 Q1131.31 60.8284 1133.82 64.0691 Q1136.33 67.2693 1141.36 67.2693 Q1147.39 67.2693 1150.88 63.421 Q1154.4 59.5726 1154.4 52.9291 L1154.4 27.2059 L1161.85 27.2059 L1161.85 72.576 L1154.4 72.576 L1154.4 65.6084 Q1151.69 69.7404 1148.08 71.7658 Q1144.52 73.7508 1139.78 73.7508 Q1131.96 73.7508 1127.91 68.8897 Q1123.86 64.0286 1123.86 54.671 M1142.61 26.1121 L1142.61 26.1121 Z" fill="#000000" fill-rule="evenodd" fill-opacity="1" /><path clip-path="url(#clip760)" d="M 0 0 M1208.48 48.0275 L1208.48 51.6733 L1174.21 51.6733 Q1174.69 59.3701 1178.83 63.421 Q1183 67.4314 1190.41 67.4314 Q1194.71 67.4314 1198.72 66.3781 Q1202.77 65.3249 1206.74 63.2184 L1206.74 70.267 Q1202.73 71.9684 1198.51 72.8596 Q1194.3 73.7508 1189.97 73.7508 Q1179.11 73.7508 1172.75 67.4314 Q1166.43 61.1119 1166.43 50.3365 Q1166.43 39.1965 1172.43 32.6746 Q1178.46 26.1121 1188.67 26.1121 Q1197.83 26.1121 1203.13 32.0264 Q1208.48 37.9003 1208.48 48.0275 M1201.03 45.84 Q1200.94 39.7232 1197.58 36.0774 Q1194.26 32.4315 1188.75 32.4315 Q1182.51 32.4315 1178.75 35.9558 Q1175.02 39.4801 1174.45 45.8805 L1201.03 45.84 Z" fill="#000000" fill-rule="evenodd" fill-opacity="1" /><path clip-path="url(#clip760)" d="M 0 0 M1279.25 14.0809 L1279.25 22.0612 Q1274.59 19.8332 1270.46 18.7395 Q1266.33 17.6457 1262.48 17.6457 Q1255.79 17.6457 1252.15 20.2383 Q1248.54 22.8309 1248.54 27.611 Q1248.54 31.6214 1250.93 33.6873 Q1253.36 35.7128 1260.09 36.9686 L1265.03 37.9813 Q1274.19 39.7232 1278.52 44.1387 Q1282.89 48.5136 1282.89 55.8863 Q1282.89 64.6767 1276.98 69.2137 Q1271.11 73.7508 1259.72 73.7508 Q1255.43 73.7508 1250.57 72.7785 Q1245.75 71.8063 1240.56 69.9024 L1240.56 61.4765 Q1245.55 64.2716 1250.33 65.6895 Q1255.11 67.1073 1259.72 67.1073 Q1266.73 67.1073 1270.54 64.3527 Q1274.35 61.598 1274.35 56.4939 Q1274.35 52.0379 1271.59 49.5264 Q1268.88 47.0148 1262.64 45.759 L1257.66 44.7868 Q1248.5 42.9639 1244.41 39.075 Q1240.32 35.1862 1240.32 28.2591 Q1240.32 20.2383 1245.95 15.6203 Q1251.62 11.0023 1261.55 11.0023 Q1265.8 11.0023 1270.22 11.7719 Q1274.63 12.5416 1279.25 14.0809 Z" fill="#000000" fill-rule="evenodd" fill-opacity="1" /><path clip-path="url(#clip760)" d="M 0 0 M1298.09 14.324 L1298.09 27.2059 L1313.44 27.2059 L1313.44 32.9987 L1298.09 32.9987 L1298.09 57.6282 Q1298.09 63.1779 1299.58 64.7578 Q1301.12 66.3376 1305.78 66.3376 L1313.44 66.3376 L1313.44 72.576 L1305.78 72.576 Q1297.15 72.576 1293.87 69.3758 Q1290.59 66.1351 1290.59 57.6282 L1290.59 32.9987 L1285.12 32.9987 L1285.12 27.2059 L1290.59 27.2059 L1290.59 14.324 L1298.09 14.324 Z" fill="#000000" fill-rule="evenodd" fill-opacity="1" /><path clip-path="url(#clip760)" d="M 0 0 M1341.88 49.7694 Q1332.84 49.7694 1329.36 51.8354 Q1325.87 53.9013 1325.87 58.8839 Q1325.87 62.8538 1328.47 65.2034 Q1331.1 67.5124 1335.6 67.5124 Q1341.79 67.5124 1345.52 63.1374 Q1349.29 58.7219 1349.29 51.4303 L1349.29 49.7694 L1341.88 49.7694 M1356.74 46.6907 L1356.74 72.576 L1349.29 72.576 L1349.29 65.6895 Q1346.74 69.8214 1342.93 71.8063 Q1339.12 73.7508 1333.61 73.7508 Q1326.64 73.7508 1322.51 69.8619 Q1318.42 65.9325 1318.42 59.3701 Q1318.42 51.7138 1323.53 47.825 Q1328.67 43.9361 1338.84 43.9361 L1349.29 43.9361 L1349.29 43.2069 Q1349.29 38.0623 1345.89 35.2672 Q1342.52 32.4315 1336.41 32.4315 Q1332.52 32.4315 1328.83 33.3632 Q1325.15 34.295 1321.74 36.1584 L1321.74 29.2718 Q1325.83 27.692 1329.68 26.9223 Q1333.53 26.1121 1337.18 26.1121 Q1347.02 26.1121 1351.88 31.2163 Q1356.74 36.3204 1356.74 46.6907 Z" fill="#000000" fill-rule="evenodd" fill-opacity="1" /><path clip-path="url(#clip760)" d="M 0 0 M1371.93 14.324 L1371.93 27.2059 L1387.29 27.2059 L1387.29 32.9987 L1371.93 32.9987 L1371.93 57.6282 Q1371.93 63.1779 1373.43 64.7578 Q1374.97 66.3376 1379.63 66.3376 L1387.29 66.3376 L1387.29 72.576 L1379.63 72.576 Q1371 72.576 1367.72 69.3758 Q1364.44 66.1351 1364.44 57.6282 L1364.44 32.9987 L1358.97 32.9987 L1358.97 27.2059 L1364.44 27.2059 L1364.44 14.324 L1371.93 14.324 Z" fill="#000000" fill-rule="evenodd" fill-opacity="1" /><path clip-path="url(#clip760)" d="M 0 0 M1395.1 27.2059 L1402.56 27.2059 L1402.56 72.576 L1395.1 72.576 L1395.1 27.2059 M1395.1 9.54393 L1402.56 9.54393 L1402.56 18.9825 L1395.1 18.9825 L1395.1 9.54393 Z" fill="#000000" fill-rule="evenodd" fill-opacity="1" /><path clip-path="url(#clip760)" d="M 0 0 M1439.3 28.5427 L1439.3 35.5912 Q1436.14 33.9709 1432.74 33.1607 Q1429.33 32.3505 1425.69 32.3505 Q1420.14 32.3505 1417.34 34.0519 Q1414.59 35.7533 1414.59 39.156 Q1414.59 41.7486 1416.57 43.2475 Q1418.56 44.7058 1424.55 46.0426 L1427.11 46.6097 Q1435.05 48.3111 1438.37 51.4303 Q1441.73 54.509 1441.73 60.0587 Q1441.73 66.3781 1436.71 70.0644 Q1431.72 73.7508 1422.97 73.7508 Q1419.33 73.7508 1415.36 73.0216 Q1411.43 72.3329 1407.05 70.9151 L1407.05 63.2184 Q1411.19 65.3654 1415.2 66.4591 Q1419.21 67.5124 1423.14 67.5124 Q1428.4 67.5124 1431.24 65.73 Q1434.07 63.9071 1434.07 60.6258 Q1434.07 57.5877 1432.01 55.9673 Q1429.98 54.3469 1423.06 52.8481 L1420.46 52.2405 Q1413.54 50.7821 1410.46 47.7845 Q1407.38 44.7463 1407.38 39.4801 Q1407.38 33.0797 1411.92 29.5959 Q1416.45 26.1121 1424.8 26.1121 Q1428.93 26.1121 1432.58 26.7198 Q1436.22 27.3274 1439.3 28.5427 Z" fill="#000000" fill-rule="evenodd" fill-opacity="1" /><path clip-path="url(#clip760)" d="M 0 0 M1456.92 14.324 L1456.92 27.2059 L1472.27 27.2059 L1472.27 32.9987 L1456.92 32.9987 L1456.92 57.6282 Q1456.92 63.1779 1458.42 64.7578 Q1459.96 66.3376 1464.62 66.3376 L1472.27 66.3376 L1472.27 72.576 L1464.62 72.576 Q1455.99 72.576 1452.71 69.3758 Q1449.43 66.1351 1449.43 57.6282 L1449.43 32.9987 L1443.96 32.9987 L1443.96 27.2059 L1449.43 27.2059 L1449.43 14.324 L1456.92 14.324 Z" fill="#000000" fill-rule="evenodd" fill-opacity="1" /><path clip-path="url(#clip760)" d="M 0 0 M1480.09 27.2059 L1487.55 27.2059 L1487.55 72.576 L1480.09 72.576 L1480.09 27.2059 M1480.09 9.54393 L1487.55 9.54393 L1487.55 18.9825 L1480.09 18.9825 L1480.09 9.54393 Z" fill="#000000" fill-rule="evenodd" fill-opacity="1" /><path clip-path="url(#clip760)" d="M 0 0 M1528.01 28.9478 L1528.01 35.9153 Q1524.86 34.1734 1521.65 33.3227 Q1518.5 32.4315 1515.25 32.4315 Q1508 32.4315 1503.99 37.0496 Q1499.98 41.6271 1499.98 49.9314 Q1499.98 58.2358 1503.99 62.8538 Q1508 67.4314 1515.25 67.4314 Q1518.5 67.4314 1521.65 66.5807 Q1524.86 65.6895 1528.01 63.9476 L1528.01 70.8341 Q1524.9 72.2924 1521.53 73.0216 Q1518.21 73.7508 1514.44 73.7508 Q1504.2 73.7508 1498.16 67.3098 Q1492.12 60.8689 1492.12 49.9314 Q1492.12 38.832 1498.2 32.472 Q1504.32 26.1121 1514.93 26.1121 Q1518.37 26.1121 1521.65 26.8413 Q1524.94 27.5299 1528.01 28.9478 Z" fill="#000000" fill-rule="evenodd" fill-opacity="1" /><path clip-path="url(#clip760)" d="M 0 0 M1556.45 49.7694 Q1547.42 49.7694 1543.93 51.8354 Q1540.45 53.9013 1540.45 58.8839 Q1540.45 62.8538 1543.04 65.2034 Q1545.68 67.5124 1550.17 67.5124 Q1556.37 67.5124 1560.1 63.1374 Q1563.87 58.7219 1563.87 51.4303 L1563.87 49.7694 L1556.45 49.7694 M1571.32 46.6907 L1571.32 72.576 L1563.87 72.576 L1563.87 65.6895 Q1561.31 69.8214 1557.51 71.8063 Q1553.7 73.7508 1548.19 73.7508 Q1541.22 73.7508 1537.09 69.8619 Q1533 65.9325 1533 59.3701 Q1533 51.7138 1538.1 47.825 Q1543.25 43.9361 1553.41 43.9361 L1563.87 43.9361 L1563.87 43.2069 Q1563.87 38.0623 1560.46 35.2672 Q1557.1 32.4315 1550.98 32.4315 Q1547.09 32.4315 1543.41 33.3632 Q1539.72 34.295 1536.32 36.1584 L1536.32 29.2718 Q1540.41 27.692 1544.26 26.9223 Q1548.11 26.1121 1551.75 26.1121 Q1561.6 26.1121 1566.46 31.2163 Q1571.32 36.3204 1571.32 46.6907 Z" fill="#000000" fill-rule="evenodd" fill-opacity="1" /><path clip-path="url(#clip760)" d="M 0 0 M1579.14 9.54393 L1586.59 9.54393 L1586.59 72.576 L1579.14 72.576 L1579.14 9.54393 Z" fill="#000000" fill-rule="evenodd" fill-opacity="1" /><path clip-path="url(#clip760)" d="M 0 0 M1621.1 12.096 L1633.3 12.096 L1648.73 53.2532 L1664.25 12.096 L1676.44 12.096 L1676.44 72.576 L1668.46 72.576 L1668.46 19.4686 L1652.86 60.9499 L1644.64 60.9499 L1629.04 19.4686 L1629.04 72.576 L1621.1 72.576 L1621.1 12.096 Z" fill="#000000" fill-rule="evenodd" fill-opacity="1" /><path clip-path="url(#clip760)" d="M 0 0 M1701.84 32.4315 Q1695.84 32.4315 1692.36 37.1306 Q1688.88 41.7891 1688.88 49.9314 Q1688.88 58.0738 1692.32 62.7728 Q1695.8 67.4314 1701.84 67.4314 Q1707.79 67.4314 1711.28 62.7323 Q1714.76 58.0333 1714.76 49.9314 Q1714.76 41.8701 1711.28 37.1711 Q1707.79 32.4315 1701.84 32.4315 M1701.84 26.1121 Q1711.56 26.1121 1717.11 32.4315 Q1722.66 38.7509 1722.66 49.9314 Q1722.66 61.0714 1717.11 67.4314 Q1711.56 73.7508 1701.84 73.7508 Q1692.08 73.7508 1686.53 67.4314 Q1681.02 61.0714 1681.02 49.9314 Q1681.02 38.7509 1686.53 32.4315 Q1692.08 26.1121 1701.84 26.1121 Z" fill="#000000" fill-rule="evenodd" fill-opacity="1" /><path clip-path="url(#clip760)" d="M 0 0 M1760.33 34.0924 L1760.33 9.54393 L1767.79 9.54393 L1767.79 72.576 L1760.33 72.576 L1760.33 65.7705 Q1757.98 69.8214 1754.38 71.8063 Q1750.81 73.7508 1745.79 73.7508 Q1737.57 73.7508 1732.38 67.1883 Q1727.24 60.6258 1727.24 49.9314 Q1727.24 39.2371 1732.38 32.6746 Q1737.57 26.1121 1745.79 26.1121 Q1750.81 26.1121 1754.38 28.0971 Q1757.98 30.0415 1760.33 34.0924 M1734.93 49.9314 Q1734.93 58.1548 1738.3 62.8538 Q1741.7 67.5124 1747.61 67.5124 Q1753.53 67.5124 1756.93 62.8538 Q1760.33 58.1548 1760.33 49.9314 Q1760.33 41.7081 1756.93 37.0496 Q1753.53 32.3505 1747.61 32.3505 Q1741.7 32.3505 1738.3 37.0496 Q1734.93 41.7081 1734.93 49.9314 Z" fill="#000000" fill-rule="evenodd" fill-opacity="1" /><path clip-path="url(#clip760)" d="M 0 0 M1814.41 48.0275 L1814.41 51.6733 L1780.14 51.6733 Q1780.63 59.3701 1784.76 63.421 Q1788.93 67.4314 1796.35 67.4314 Q1800.64 67.4314 1804.65 66.3781 Q1808.7 65.3249 1812.67 63.2184 L1812.67 70.267 Q1808.66 71.9684 1804.45 72.8596 Q1800.24 73.7508 1795.9 73.7508 Q1785.04 73.7508 1778.68 67.4314 Q1772.37 61.1119 1772.37 50.3365 Q1772.37 39.1965 1778.36 32.6746 Q1784.4 26.1121 1794.6 26.1121 Q1803.76 26.1121 1809.07 32.0264 Q1814.41 37.9003 1814.41 48.0275 M1806.96 45.84 Q1806.88 39.7232 1803.52 36.0774 Q1800.19 32.4315 1794.69 32.4315 Q1788.45 32.4315 1784.68 35.9558 Q1780.95 39.4801 1780.39 45.8805 L1806.96 45.84 Z" fill="#000000" fill-rule="evenodd" fill-opacity="1" /><path clip-path="url(#clip760)" d="M 0 0 M1822.23 9.54393 L1829.69 9.54393 L1829.69 72.576 L1822.23 72.576 L1822.23 9.54393 Z" fill="#000000" fill-rule="evenodd" fill-opacity="1" /><polyline clip-path="url(#clip762)" style="stroke:#009af9; stroke-width:4; stroke-opacity:1; fill:none" points="
  743.784,1447.87 743.784,1350.04 769.569,1350.04 769.569,1266.18 795.354,1266.18 795.354,1280.16 821.139,1280.16 821.139,1098.46 846.923,1098.46 846.923,1210.27 
  872.708,1210.27 872.708,972.676 898.493,972.676 898.493,1000.63 924.278,1000.63 924.278,972.676 950.063,972.676 950.063,1014.61 975.847,1014.61 975.847,860.865 
  1001.63,860.865 1001.63,874.842 1027.42,874.842 1027.42,1014.61 1053.2,1014.61 1053.2,944.724 1078.99,944.724 1078.99,902.795 1104.77,902.795 1104.77,1042.56 
  1130.56,1042.56 1130.56,1168.35 1156.34,1168.35 1156.34,1182.32 1182.13,1182.32 1182.13,1364.01 1207.91,1364.01 1233.7,1364.01 1233.7,1322.09 
  1259.48,1322.09 1259.48,1350.04 1285.27,1350.04 1285.27,1447.87 1311.05,1447.87 1311.05,1405.94 1336.83,1405.94 1336.83,1433.9 1362.62,1433.9 1362.62,1419.92 
  1388.4,1419.92 1414.19,1419.92 1414.19,1391.97 1439.97,1391.97 1439.97,1419.92 1465.76,1419.92 1491.54,1419.92 1491.54,1322.09 
  1517.33,1322.09 1517.33,1252.2 1543.11,1252.2 1543.11,1028.58 1568.9,1028.58 1568.9,1140.39 1594.68,1140.39 1594.68,958.7 1620.47,958.7 1620.47,860.865 
  1646.25,860.865 1646.25,511.456 1672.04,511.456 1672.04,343.74 1697.82,343.74 1697.82,553.385 1723.61,553.385 1723.61,162.047 1749.39,162.047 1749.39,623.267 
  1775.18,623.267 1775.18,329.763 1800.96,329.763 1800.96,315.787 1826.75,315.787 1826.75,469.527 1852.53,469.527 1852.53,763.031 1878.32,763.031 1878.32,874.842 
  1904.1,874.842 1904.1,763.031 1929.89,763.031 1929.89,1126.42 1955.67,1126.42 1955.67,1014.61 1981.45,1014.61 1981.45,1280.16 2007.24,1280.16 2007.24,1210.27 
  2033.02,1210.27 2033.02,1294.13 2058.81,1294.13 2058.81,1391.97 2084.59,1391.97 2084.59,1405.94 2110.38,1405.94 2110.38,1433.9 2136.16,1433.9 
  2161.95,1433.9 2161.95,1447.87 2187.73,1447.87 2187.73,1433.9 2213.52,1433.9 2213.52,1447.87 2239.3,1447.87 2265.09,1447.87 
  2290.87,1447.87 
  "/>
<polyline clip-path="url(#clip762)" style="stroke:#e26f46; stroke-width:4; stroke-opacity:1; fill:none" points="
  228.088,1447.87 230.667,1447.87 233.245,1447.87 235.824,1447.87 238.402,1447.87 240.981,1447.87 243.559,1447.87 246.138,1447.87 248.716,1447.87 251.295,1447.87 
  253.873,1447.87 256.451,1447.87 259.03,1447.87 261.608,1447.87 264.187,1447.87 266.765,1447.87 269.344,1447.87 271.922,1447.87 274.501,1447.87 277.079,1447.87 
  279.658,1447.87 282.236,1447.87 284.815,1447.87 287.393,1447.87 289.972,1447.87 292.55,1447.87 295.129,1447.87 297.707,1447.87 300.286,1447.87 302.864,1447.87 
  305.443,1447.87 308.021,1447.87 310.6,1447.87 313.178,1447.87 315.757,1447.87 318.335,1447.87 320.913,1447.87 323.492,1447.87 326.07,1447.87 328.649,1447.87 
  331.227,1447.87 333.806,1447.87 336.384,1447.87 338.963,1447.87 341.541,1447.87 344.12,1447.87 346.698,1447.87 349.277,1447.87 351.855,1447.87 354.434,1447.87 
  357.012,1447.87 359.591,1447.87 362.169,1447.87 364.748,1447.87 367.326,1447.87 369.905,1447.87 372.483,1447.87 375.062,1447.87 377.64,1447.87 380.219,1447.87 
  382.797,1447.87 385.375,1447.87 387.954,1447.87 390.532,1447.87 393.111,1447.86 395.689,1447.86 398.268,1447.86 400.846,1447.86 403.425,1447.86 406.003,1447.86 
  408.582,1447.86 411.16,1447.86 413.739,1447.86 416.317,1447.85 418.896,1447.85 421.474,1447.85 424.053,1447.85 426.631,1447.85 429.21,1447.84 431.788,1447.84 
  434.367,1447.84 436.945,1447.84 439.524,1447.83 442.102,1447.83 444.681,1447.82 447.259,1447.82 449.837,1447.81 452.416,1447.81 454.994,1447.8 457.573,1447.8 
  460.151,1447.79 462.73,1447.78 465.308,1447.78 467.887,1447.77 470.465,1447.76 473.044,1447.75 475.622,1447.74 478.201,1447.73 480.779,1447.71 483.358,1447.7 
  485.936,1447.69 488.515,1447.67 491.093,1447.65 493.672,1447.64 496.25,1447.62 498.829,1447.6 501.407,1447.57 503.986,1447.55 506.564,1447.52 509.143,1447.49 
  511.721,1447.47 514.299,1447.43 516.878,1447.4 519.456,1447.36 522.035,1447.32 524.613,1447.28 527.192,1447.23 529.77,1447.19 532.349,1447.13 534.927,1447.08 
  537.506,1447.02 540.084,1446.95 542.663,1446.89 545.241,1446.81 547.82,1446.74 550.398,1446.65 552.977,1446.57 555.555,1446.47 558.134,1446.37 560.712,1446.26 
  563.291,1446.15 565.869,1446.03 568.448,1445.9 571.026,1445.76 573.605,1445.62 576.183,1445.47 578.762,1445.3 581.34,1445.13 583.918,1444.94 586.497,1444.75 
  589.075,1444.54 591.654,1444.32 594.232,1444.09 596.811,1443.84 599.389,1443.58 601.968,1443.31 604.546,1443.02 607.125,1442.71 609.703,1442.38 612.282,1442.04 
  614.86,1441.68 617.439,1441.3 620.017,1440.89 622.596,1440.47 625.174,1440.02 627.753,1439.55 630.331,1439.06 632.91,1438.54 635.488,1437.99 638.067,1437.41 
  640.645,1436.81 643.224,1436.18 645.802,1435.51 648.38,1434.81 650.959,1434.08 653.537,1433.31 656.116,1432.5 658.694,1431.66 661.273,1430.78 663.851,1429.85 
  666.43,1428.89 669.008,1427.88 671.587,1426.83 674.165,1425.72 676.744,1424.57 679.322,1423.37 681.901,1422.12 684.479,1420.82 687.058,1419.46 689.636,1418.05 
  692.215,1416.57 694.793,1415.04 697.372,1413.45 699.95,1411.79 702.529,1410.07 705.107,1408.28 707.686,1406.43 710.264,1404.5 712.842,1402.51 715.421,1400.44 
  717.999,1398.29 720.578,1396.07 723.156,1393.77 725.735,1391.4 728.313,1388.94 730.892,1386.4 733.47,1383.78 736.049,1381.07 738.627,1378.27 741.206,1375.39 
  743.784,1372.41 746.363,1369.35 748.941,1366.19 751.52,1362.95 754.098,1359.6 756.677,1356.17 759.255,1352.63 761.834,1349 764.412,1345.28 766.991,1341.45 
  769.569,1337.53 772.148,1333.51 774.726,1329.39 777.304,1325.17 779.883,1320.85 782.461,1316.43 785.04,1311.91 787.618,1307.29 790.197,1302.57 792.775,1297.76 
  795.354,1292.85 797.932,1287.84 800.511,1282.73 803.089,1277.53 805.668,1272.24 808.246,1266.85 810.825,1261.38 813.403,1255.81 815.982,1250.16 818.56,1244.43 
  821.139,1238.61 823.717,1232.71 826.296,1226.73 828.874,1220.68 831.453,1214.56 834.031,1208.36 836.61,1202.1 839.188,1195.78 841.766,1189.4 844.345,1182.96 
  846.923,1176.47 849.502,1169.93 852.08,1163.35 854.659,1156.73 857.237,1150.08 859.816,1143.39 862.394,1136.68 864.973,1129.95 867.551,1123.21 870.13,1116.45 
  872.708,1109.69 875.287,1102.92 877.865,1096.17 880.444,1089.42 883.022,1082.69 885.601,1075.98 888.179,1069.3 890.758,1062.66 893.336,1056.05 895.915,1049.5 
  898.493,1042.99 901.072,1036.54 903.65,1030.16 906.228,1023.84 908.807,1017.61 911.385,1011.46 913.964,1005.39 916.542,999.422 919.121,993.554 921.699,987.793 
  924.278,982.146 926.856,976.618 929.435,971.215 932.013,965.943 934.592,960.807 937.17,955.814 939.749,950.968 942.327,946.275 944.906,941.74 947.484,937.368 
  950.063,933.165 952.641,929.135 955.22,925.282 957.798,921.611 960.377,918.126 962.955,914.831 965.534,911.731 968.112,908.828 970.69,906.126 973.269,903.628 
  975.847,901.337 978.426,899.256 981.004,897.388 983.583,895.734 986.161,894.297 988.74,893.077 991.318,892.078 993.897,891.299 996.475,890.742 999.054,890.408 
  1001.63,890.297 1004.21,890.408 1006.79,890.742 1009.37,891.299 1011.95,892.078 1014.52,893.077 1017.1,894.297 1019.68,895.734 1022.26,897.388 1024.84,899.256 
  1027.42,901.337 1030,903.628 1032.57,906.126 1035.15,908.828 1037.73,911.731 1040.31,914.831 1042.89,918.126 1045.47,921.611 1048.04,925.282 1050.62,929.134 
  1053.2,933.165 1055.78,937.368 1058.36,941.74 1060.94,946.274 1063.52,950.967 1066.09,955.813 1068.67,960.807 1071.25,965.942 1073.83,971.214 1076.41,976.617 
  1078.99,982.145 1081.57,987.793 1084.14,993.553 1086.72,999.421 1089.3,1005.39 1091.88,1011.45 1094.46,1017.61 1097.04,1023.84 1099.61,1030.16 1102.19,1036.54 
  1104.77,1042.99 1107.35,1049.49 1109.93,1056.05 1112.51,1062.66 1115.09,1069.3 1117.66,1075.98 1120.24,1082.69 1122.82,1089.42 1125.4,1096.16 1127.98,1102.92 
  1130.56,1109.68 1133.13,1116.44 1135.71,1123.2 1138.29,1129.95 1140.87,1136.68 1143.45,1143.39 1146.03,1150.07 1148.61,1156.73 1151.18,1163.35 1153.76,1169.92 
  1156.34,1176.46 1158.92,1182.95 1161.5,1189.38 1164.08,1195.76 1166.65,1202.09 1169.23,1208.34 1171.81,1214.54 1174.39,1220.66 1176.97,1226.71 1179.55,1232.68 
  1182.13,1238.58 1184.7,1244.4 1187.28,1250.13 1189.86,1255.78 1192.44,1261.34 1195.02,1266.81 1197.6,1272.19 1200.18,1277.48 1202.75,1282.67 1205.33,1287.77 
  1207.91,1292.78 1210.49,1297.68 1213.07,1302.49 1215.65,1307.2 1218.22,1311.81 1220.8,1316.32 1223.38,1320.73 1225.96,1325.04 1228.54,1329.25 1231.12,1333.36 
  1233.7,1337.36 1236.27,1341.27 1238.85,1345.08 1241.43,1348.79 1244.01,1352.4 1246.59,1355.92 1249.17,1359.33 1251.74,1362.65 1254.32,1365.88 1256.9,1369 
  1259.48,1372.04 1262.06,1374.98 1264.64,1377.83 1267.22,1380.59 1269.79,1383.26 1272.37,1385.84 1274.95,1388.34 1277.53,1390.75 1280.11,1393.07 1282.69,1395.32 
  1285.27,1397.48 1287.84,1399.56 1290.42,1401.56 1293,1403.48 1295.58,1405.32 1298.16,1407.09 1300.74,1408.79 1303.31,1410.42 1305.89,1411.97 1308.47,1413.45 
  1311.05,1414.86 1313.63,1416.21 1316.21,1417.49 1318.79,1418.7 1321.36,1419.85 1323.94,1420.94 1326.52,1421.96 1329.1,1422.92 1331.68,1423.82 1334.26,1424.66 
  1336.83,1425.44 1339.41,1426.17 1341.99,1426.83 1344.57,1427.44 1347.15,1428 1349.73,1428.49 1352.31,1428.93 1354.88,1429.32 1357.46,1429.65 1360.04,1429.93 
  1362.62,1430.15 1365.2,1430.31 1367.78,1430.42 1370.35,1430.48 1372.93,1430.48 1375.51,1430.42 1378.09,1430.31 1380.67,1430.14 1383.25,1429.92 1385.83,1429.63 
  1388.4,1429.29 1390.98,1428.89 1393.56,1428.43 1396.14,1427.9 1398.72,1427.32 1401.3,1426.67 1403.88,1425.95 1406.45,1425.17 1409.03,1424.32 1411.61,1423.4 
  1414.19,1422.42 1416.77,1421.35 1419.35,1420.22 1421.92,1419 1424.5,1417.71 1427.08,1416.34 1429.66,1414.88 1432.24,1413.34 1434.82,1411.71 1437.4,1409.99 
  1439.97,1408.18 1442.55,1406.28 1445.13,1404.28 1447.71,1402.17 1450.29,1399.97 1452.87,1397.66 1455.44,1395.24 1458.02,1392.71 1460.6,1390.06 1463.18,1387.3 
  1465.76,1384.42 1468.34,1381.41 1470.92,1378.28 1473.49,1375.02 1476.07,1371.63 1478.65,1368.1 1481.23,1364.43 1483.81,1360.62 1486.39,1356.66 1488.97,1352.56 
  1491.54,1348.3 1494.12,1343.89 1496.7,1339.33 1499.28,1334.6 1501.86,1329.71 1504.44,1324.65 1507.01,1319.42 1509.59,1314.02 1512.17,1308.45 1514.75,1302.7 
  1517.33,1296.77 1519.91,1290.65 1522.49,1284.36 1525.06,1277.87 1527.64,1271.2 1530.22,1264.33 1532.8,1257.28 1535.38,1250.03 1537.96,1242.58 1540.53,1234.94 
  1543.11,1227.1 1545.69,1219.07 1548.27,1210.83 1550.85,1202.4 1553.43,1193.76 1556.01,1184.93 1558.58,1175.89 1561.16,1166.66 1563.74,1157.23 1566.32,1147.61 
  1568.9,1137.78 1571.48,1127.77 1574.05,1117.56 1576.63,1107.17 1579.21,1096.58 1581.79,1085.81 1584.37,1074.86 1586.95,1063.74 1589.53,1052.44 1592.1,1040.97 
  1594.68,1029.33 1597.26,1017.53 1599.84,1005.58 1602.42,993.476 1605,981.228 1607.58,968.842 1610.15,956.323 1612.73,943.679 1615.31,930.916 1617.89,918.042 
  1620.47,905.064 1623.05,891.991 1625.62,878.831 1628.2,865.592 1630.78,852.283 1633.36,838.913 1635.94,825.492 1638.52,812.03 1641.1,798.537 1643.67,785.022 
  1646.25,771.496 1648.83,757.971 1651.41,744.456 1653.99,730.964 1656.57,717.505 1659.14,704.091 1661.72,690.733 1664.3,677.443 1666.88,664.234 1669.46,651.117 
  1672.04,638.105 1674.62,625.209 1677.19,612.442 1679.77,599.816 1682.35,587.344 1684.93,575.037 1687.51,562.909 1690.09,550.97 1692.66,539.235 1695.24,527.713 
  1697.82,516.419 1700.4,505.362 1702.98,494.556 1705.56,484.012 1708.14,473.741 1710.71,463.754 1713.29,454.062 1715.87,444.676 1718.45,435.607 1721.03,426.864 
  1723.61,418.457 1726.19,410.396 1728.76,402.69 1731.34,395.348 1733.92,388.379 1736.5,381.789 1739.08,375.588 1741.66,369.782 1744.23,364.378 1746.81,359.383 
  1749.39,354.801 1751.97,350.64 1754.55,346.903 1757.13,343.595 1759.71,340.72 1762.28,338.282 1764.86,336.283 1767.44,334.725 1770.02,333.612 1772.6,332.943 
  1775.18,332.72 1777.75,332.943 1780.33,333.612 1782.91,334.725 1785.49,336.283 1788.07,338.282 1790.65,340.72 1793.23,343.595 1795.8,346.903 1798.38,350.64 
  1800.96,354.801 1803.54,359.383 1806.12,364.378 1808.7,369.782 1811.28,375.588 1813.85,381.79 1816.43,388.379 1819.01,395.348 1821.59,402.69 1824.17,410.396 
  1826.75,418.457 1829.32,426.864 1831.9,435.607 1834.48,444.676 1837.06,454.062 1839.64,463.754 1842.22,473.741 1844.8,484.012 1847.37,494.557 1849.95,505.363 
  1852.53,516.419 1855.11,527.714 1857.69,539.235 1860.27,550.971 1862.84,562.909 1865.42,575.038 1868,587.344 1870.58,599.817 1873.16,612.443 1875.74,625.21 
  1878.32,638.106 1880.89,651.118 1883.47,664.235 1886.05,677.444 1888.63,690.734 1891.21,704.092 1893.79,717.506 1896.36,730.965 1898.94,744.458 1901.52,757.973 
  1904.1,771.499 1906.68,785.024 1909.26,798.539 1911.84,812.033 1914.41,825.495 1916.99,838.916 1919.57,852.286 1922.15,865.596 1924.73,878.835 1927.31,891.996 
  1929.89,905.07 1932.46,918.048 1935.04,930.923 1937.62,943.686 1940.2,956.331 1942.78,968.851 1945.36,981.238 1947.93,993.487 1950.51,1005.59 1953.09,1017.55 
  1955.67,1029.34 1958.25,1040.98 1960.83,1052.45 1963.41,1063.76 1965.98,1074.88 1968.56,1085.84 1971.14,1096.61 1973.72,1107.19 1976.3,1117.59 1978.88,1127.8 
  1981.45,1137.82 1984.03,1147.64 1986.61,1157.27 1989.19,1166.71 1991.77,1175.94 1994.35,1184.98 1996.93,1193.82 1999.5,1202.46 2002.08,1210.9 2004.66,1219.14 
  2007.24,1227.19 2009.82,1235.03 2012.4,1242.68 2014.97,1250.13 2017.55,1257.39 2020.13,1264.46 2022.71,1271.33 2025.29,1278.02 2027.87,1284.51 2030.45,1290.83 
  2033.02,1296.95 2035.6,1302.9 2038.18,1308.67 2040.76,1314.26 2043.34,1319.68 2045.92,1324.93 2048.5,1330.01 2051.07,1334.92 2053.65,1339.68 2056.23,1344.27 
  2058.81,1348.71 2061.39,1353 2063.97,1357.14 2066.54,1361.13 2069.12,1364.98 2071.7,1368.69 2074.28,1372.27 2076.86,1375.71 2079.44,1379.02 2082.02,1382.21 
  2084.59,1385.27 2087.17,1388.22 2089.75,1391.05 2092.33,1393.77 2094.91,1396.37 2097.49,1398.88 2100.06,1401.28 2102.64,1403.57 2105.22,1405.78 2107.8,1407.89 
  2110.38,1409.9 2112.96,1411.84 2115.54,1413.68 2118.11,1415.45 2120.69,1417.13 2123.27,1418.74 2125.85,1420.28 2128.43,1421.75 2131.01,1423.14 2133.59,1424.48 
  2136.16,1425.75 2138.74,1426.96 2141.32,1428.11 2143.9,1429.2 2146.48,1430.24 2149.06,1431.23 2151.63,1432.17 2154.21,1433.07 2156.79,1433.92 2159.37,1434.72 
  2161.95,1435.48 2164.53,1436.21 2167.11,1436.89 2169.68,1437.54 2172.26,1438.16 2174.84,1438.74 2177.42,1439.29 2180,1439.81 2182.58,1440.3 2185.15,1440.77 
  2187.73,1441.21 2190.31,1441.62 2192.89,1442.01 2195.47,1442.38 2198.05,1442.73 2200.63,1443.06 2203.2,1443.37 2205.78,1443.66 2208.36,1443.93 2210.94,1444.19 
  2213.52,1444.43 2216.1,1444.66 2218.67,1444.87 2221.25,1445.07 2223.83,1445.26 2226.41,1445.43 2228.99,1445.6 2231.57,1445.75 2234.15,1445.9 2236.72,1446.04 
  2239.3,1446.16 2241.88,1446.28 2244.46,1446.39 2247.04,1446.5 2249.62,1446.59 2252.2,1446.69 2254.77,1446.77 2257.35,1446.85 2259.93,1446.92 2262.51,1446.99 
  2265.09,1447.06 2267.67,1447.12 2270.24,1447.17 2272.82,1447.22 2275.4,1447.27 2277.98,1447.32 2280.56,1447.36 2283.14,1447.4 2285.72,1447.43 2288.29,1447.47 
  2290.87,1447.5 
  "/>
<path clip-path="url(#clip760)" d="
M1925.95 350.345 L2279.87 350.345 L2279.87 168.905 L1925.95 168.905  Z
  " fill="#ffffff" fill-rule="evenodd" fill-opacity="1"/>
<polyline clip-path="url(#clip760)" style="stroke:#000000; stroke-width:4; stroke-opacity:1; fill:none" points="
  1925.95,350.345 2279.87,350.345 2279.87,168.905 1925.95,168.905 1925.95,350.345 
  "/>
<polyline clip-path="url(#clip760)" style="stroke:#009af9; stroke-width:4; stroke-opacity:1; fill:none" points="
  1950.24,229.385 2096.01,229.385 
  "/>
<path clip-path="url(#clip760)" d="M 0 0 M2124.99 215.947 L2124.99 242.822 L2130.63 242.822 Q2137.79 242.822 2141.1 239.581 Q2144.43 236.341 2144.43 229.35 Q2144.43 222.406 2141.1 219.188 Q2137.79 215.947 2130.63 215.947 L2124.99 215.947 M2120.31 212.105 L2129.92 212.105 Q2139.96 212.105 2144.66 216.294 Q2149.36 220.461 2149.36 229.35 Q2149.36 238.285 2144.64 242.475 Q2139.92 246.665 2129.92 246.665 L2120.31 246.665 L2120.31 212.105 Z" fill="#000000" fill-rule="evenodd" fill-opacity="1" /><path clip-path="url(#clip760)" d="M 0 0 M2165.61 233.632 Q2160.45 233.632 2158.46 234.813 Q2156.47 235.993 2156.47 238.841 Q2156.47 241.109 2157.95 242.452 Q2159.45 243.771 2162.02 243.771 Q2165.56 243.771 2167.69 241.271 Q2169.85 238.748 2169.85 234.581 L2169.85 233.632 L2165.61 233.632 M2174.11 231.873 L2174.11 246.665 L2169.85 246.665 L2169.85 242.729 Q2168.39 245.091 2166.21 246.225 Q2164.04 247.336 2160.89 247.336 Q2156.91 247.336 2154.55 245.114 Q2152.21 242.868 2152.21 239.118 Q2152.21 234.743 2155.12 232.521 Q2158.06 230.299 2163.87 230.299 L2169.85 230.299 L2169.85 229.882 Q2169.85 226.943 2167.9 225.345 Q2165.98 223.725 2162.48 223.725 Q2160.26 223.725 2158.16 224.257 Q2156.05 224.79 2154.11 225.855 L2154.11 221.919 Q2156.44 221.017 2158.64 220.577 Q2160.84 220.114 2162.92 220.114 Q2168.55 220.114 2171.33 223.031 Q2174.11 225.947 2174.11 231.873 Z" fill="#000000" fill-rule="evenodd" fill-opacity="1" /><path clip-path="url(#clip760)" d="M 0 0 M2182.79 213.378 L2182.79 220.739 L2191.56 220.739 L2191.56 224.049 L2182.79 224.049 L2182.79 238.123 Q2182.79 241.294 2183.64 242.197 Q2184.52 243.1 2187.18 243.1 L2191.56 243.1 L2191.56 246.665 L2187.18 246.665 Q2182.25 246.665 2180.38 244.836 Q2178.5 242.984 2178.5 238.123 L2178.5 224.049 L2175.38 224.049 L2175.38 220.739 L2178.5 220.739 L2178.5 213.378 L2182.79 213.378 Z" fill="#000000" fill-rule="evenodd" fill-opacity="1" /><path clip-path="url(#clip760)" d="M 0 0 M2207.81 233.632 Q2202.65 233.632 2200.66 234.813 Q2198.67 235.993 2198.67 238.841 Q2198.67 241.109 2200.15 242.452 Q2201.65 243.771 2204.22 243.771 Q2207.76 243.771 2209.89 241.271 Q2212.04 238.748 2212.04 234.581 L2212.04 233.632 L2207.81 233.632 M2216.3 231.873 L2216.3 246.665 L2212.04 246.665 L2212.04 242.729 Q2210.59 245.091 2208.41 246.225 Q2206.23 247.336 2203.09 247.336 Q2199.11 247.336 2196.74 245.114 Q2194.41 242.868 2194.41 239.118 Q2194.41 234.743 2197.32 232.521 Q2200.26 230.299 2206.07 230.299 L2212.04 230.299 L2212.04 229.882 Q2212.04 226.943 2210.1 225.345 Q2208.18 223.725 2204.68 223.725 Q2202.46 223.725 2200.36 224.257 Q2198.25 224.79 2196.3 225.855 L2196.3 221.919 Q2198.64 221.017 2200.84 220.577 Q2203.04 220.114 2205.12 220.114 Q2210.75 220.114 2213.53 223.031 Q2216.3 225.947 2216.3 231.873 Z" fill="#000000" fill-rule="evenodd" fill-opacity="1" /><polyline clip-path="url(#clip760)" style="stroke:#e26f46; stroke-width:4; stroke-opacity:1; fill:none" points="
  1950.24,289.865 2096.01,289.865 
  "/>
<path clip-path="url(#clip760)" d="M 0 0 M2120.31 272.585 L2149.55 272.585 L2149.55 276.52 L2137.28 276.52 L2137.28 307.145 L2132.58 307.145 L2132.58 276.52 L2120.31 276.52 L2120.31 272.585 Z" fill="#000000" fill-rule="evenodd" fill-opacity="1" /><path clip-path="url(#clip760)" d="M 0 0 M2162.07 285.2 Q2161.35 284.784 2160.49 284.598 Q2159.66 284.39 2158.64 284.39 Q2155.03 284.39 2153.09 286.751 Q2151.17 289.089 2151.17 293.487 L2151.17 307.145 L2146.88 307.145 L2146.88 281.219 L2151.17 281.219 L2151.17 285.247 Q2152.51 282.886 2154.66 281.751 Q2156.81 280.594 2159.89 280.594 Q2160.33 280.594 2160.86 280.663 Q2161.4 280.71 2162.05 280.825 L2162.07 285.2 Z" fill="#000000" fill-rule="evenodd" fill-opacity="1" /><path clip-path="url(#clip760)" d="M 0 0 M2166.1 296.913 L2166.1 281.219 L2170.36 281.219 L2170.36 296.751 Q2170.36 300.432 2171.79 302.284 Q2173.23 304.112 2176.1 304.112 Q2179.55 304.112 2181.54 301.913 Q2183.55 299.714 2183.55 295.918 L2183.55 281.219 L2187.81 281.219 L2187.81 307.145 L2183.55 307.145 L2183.55 303.163 Q2182 305.524 2179.94 306.682 Q2177.9 307.816 2175.19 307.816 Q2170.73 307.816 2168.41 305.038 Q2166.1 302.26 2166.1 296.913 M2176.81 280.594 L2176.81 280.594 Z" fill="#000000" fill-rule="evenodd" fill-opacity="1" /><path clip-path="url(#clip760)" d="M 0 0 M2196.49 273.858 L2196.49 281.219 L2205.26 281.219 L2205.26 284.529 L2196.49 284.529 L2196.49 298.603 Q2196.49 301.774 2197.35 302.677 Q2198.23 303.58 2200.89 303.58 L2205.26 303.58 L2205.26 307.145 L2200.89 307.145 Q2195.96 307.145 2194.08 305.316 Q2192.21 303.464 2192.21 298.603 L2192.21 284.529 L2189.08 284.529 L2189.08 281.219 L2192.21 281.219 L2192.21 273.858 L2196.49 273.858 Z" fill="#000000" fill-rule="evenodd" fill-opacity="1" /><path clip-path="url(#clip760)" d="M 0 0 M2231.28 291.497 L2231.28 307.145 L2227.02 307.145 L2227.02 291.635 Q2227.02 287.955 2225.59 286.126 Q2224.15 284.298 2221.28 284.298 Q2217.83 284.298 2215.84 286.497 Q2213.85 288.696 2213.85 292.492 L2213.85 307.145 L2209.57 307.145 L2209.57 271.126 L2213.85 271.126 L2213.85 285.247 Q2215.38 282.909 2217.44 281.751 Q2219.52 280.594 2222.23 280.594 Q2226.7 280.594 2228.99 283.372 Q2231.28 286.126 2231.28 291.497 Z" fill="#000000" fill-rule="evenodd" fill-opacity="1" /></svg>
