<?xml version="1.0" encoding="utf-8"?>
<svg xmlns="http://www.w3.org/2000/svg" xmlns:xlink="http://www.w3.org/1999/xlink" width="600" height="400" viewBox="0 0 2400 1600">
<defs>
  <clipPath id="clip7900">
    <rect x="0" y="0" width="2400" height="1600"/>
  </clipPath>
</defs>
<path clip-path="url(#clip7900)" d="
M0 1600 L2400 1600 L2400 0 L0 0  Z
  " fill="#ffffff" fill-rule="evenodd" fill-opacity="1"/>
<defs>
  <clipPath id="clip7901">
    <rect x="480" y="0" width="1681" height="1600"/>
  </clipPath>
</defs>
<path clip-path="url(#clip7900)" d="
M202.373 1425.62 L2352.76 1425.62 L2352.76 121.675 L202.373 121.675  Z
  " fill="#ffffff" fill-rule="evenodd" fill-opacity="1"/>
<defs>
  <clipPath id="clip7902">
    <rect x="202" y="121" width="2151" height="1305"/>
  </clipPath>
</defs>
<polyline clip-path="url(#clip7902)" style="stroke:#000000; stroke-width:2; stroke-opacity:0.1; fill:none" points="
  411.672,1425.62 411.672,121.675 
  "/>
<polyline clip-path="url(#clip7902)" style="stroke:#000000; stroke-width:2; stroke-opacity:0.1; fill:none" points="
  906.467,1425.62 906.467,121.675 
  "/>
<polyline clip-path="url(#clip7902)" style="stroke:#000000; stroke-width:2; stroke-opacity:0.1; fill:none" points="
  1401.26,1425.62 1401.26,121.675 
  "/>
<polyline clip-path="url(#clip7902)" style="stroke:#000000; stroke-width:2; stroke-opacity:0.1; fill:none" points="
  1896.06,1425.62 1896.06,121.675 
  "/>
<polyline clip-path="url(#clip7902)" style="stroke:#000000; stroke-width:2; stroke-opacity:0.1; fill:none" points="
  202.373,1388.71 2352.76,1388.71 
  "/>
<polyline clip-path="url(#clip7902)" style="stroke:#000000; stroke-width:2; stroke-opacity:0.1; fill:none" points="
  202.373,1003.7 2352.76,1003.7 
  "/>
<polyline clip-path="url(#clip7902)" style="stroke:#000000; stroke-width:2; stroke-opacity:0.1; fill:none" points="
  202.373,618.678 2352.76,618.678 
  "/>
<polyline clip-path="url(#clip7902)" style="stroke:#000000; stroke-width:2; stroke-opacity:0.1; fill:none" points="
  202.373,233.659 2352.76,233.659 
  "/>
<polyline clip-path="url(#clip7900)" style="stroke:#000000; stroke-width:4; stroke-opacity:1; fill:none" points="
  202.373,1425.62 2352.76,1425.62 
  "/>
<polyline clip-path="url(#clip7900)" style="stroke:#000000; stroke-width:4; stroke-opacity:1; fill:none" points="
  202.373,1425.62 202.373,121.675 
  "/>
<polyline clip-path="url(#clip7900)" style="stroke:#000000; stroke-width:4; stroke-opacity:1; fill:none" points="
  411.672,1425.62 411.672,1409.97 
  "/>
<polyline clip-path="url(#clip7900)" style="stroke:#000000; stroke-width:4; stroke-opacity:1; fill:none" points="
  906.467,1425.62 906.467,1409.97 
  "/>
<polyline clip-path="url(#clip7900)" style="stroke:#000000; stroke-width:4; stroke-opacity:1; fill:none" points="
  1401.26,1425.62 1401.26,1409.97 
  "/>
<polyline clip-path="url(#clip7900)" style="stroke:#000000; stroke-width:4; stroke-opacity:1; fill:none" points="
  1896.06,1425.62 1896.06,1409.97 
  "/>
<polyline clip-path="url(#clip7900)" style="stroke:#000000; stroke-width:4; stroke-opacity:1; fill:none" points="
  202.373,1388.71 228.178,1388.71 
  "/>
<polyline clip-path="url(#clip7900)" style="stroke:#000000; stroke-width:4; stroke-opacity:1; fill:none" points="
  202.373,1003.7 228.178,1003.7 
  "/>
<polyline clip-path="url(#clip7900)" style="stroke:#000000; stroke-width:4; stroke-opacity:1; fill:none" points="
  202.373,618.678 228.178,618.678 
  "/>
<polyline clip-path="url(#clip7900)" style="stroke:#000000; stroke-width:4; stroke-opacity:1; fill:none" points="
  202.373,233.659 228.178,233.659 
  "/>
<g clip-path="url(#clip7900)">
<text style="fill:#000000; fill-opacity:1; font-family:Arial,Helvetica Neue,Helvetica,sans-serif; font-size:48px; text-anchor:middle;" transform="rotate(0, 411.672, 1479.62)" x="411.672" y="1479.62">-1.10</text>
</g>
<g clip-path="url(#clip7900)">
<text style="fill:#000000; fill-opacity:1; font-family:Arial,Helvetica Neue,Helvetica,sans-serif; font-size:48px; text-anchor:middle;" transform="rotate(0, 906.467, 1479.62)" x="906.467" y="1479.62">-1.05</text>
</g>
<g clip-path="url(#clip7900)">
<text style="fill:#000000; fill-opacity:1; font-family:Arial,Helvetica Neue,Helvetica,sans-serif; font-size:48px; text-anchor:middle;" transform="rotate(0, 1401.26, 1479.62)" x="1401.26" y="1479.62">-1.00</text>
</g>
<g clip-path="url(#clip7900)">
<text style="fill:#000000; fill-opacity:1; font-family:Arial,Helvetica Neue,Helvetica,sans-serif; font-size:48px; text-anchor:middle;" transform="rotate(0, 1896.06, 1479.62)" x="1896.06" y="1479.62">-0.95</text>
</g>
<g clip-path="url(#clip7900)">
<text style="fill:#000000; fill-opacity:1; font-family:Arial,Helvetica Neue,Helvetica,sans-serif; font-size:48px; text-anchor:end;" transform="rotate(0, 178.373, 1406.21)" x="178.373" y="1406.21">0</text>
</g>
<g clip-path="url(#clip7900)">
<text style="fill:#000000; fill-opacity:1; font-family:Arial,Helvetica Neue,Helvetica,sans-serif; font-size:48px; text-anchor:end;" transform="rotate(0, 178.373, 1021.2)" x="178.373" y="1021.2">5</text>
</g>
<g clip-path="url(#clip7900)">
<text style="fill:#000000; fill-opacity:1; font-family:Arial,Helvetica Neue,Helvetica,sans-serif; font-size:48px; text-anchor:end;" transform="rotate(0, 178.373, 636.178)" x="178.373" y="636.178">10</text>
</g>
<g clip-path="url(#clip7900)">
<text style="fill:#000000; fill-opacity:1; font-family:Arial,Helvetica Neue,Helvetica,sans-serif; font-size:48px; text-anchor:end;" transform="rotate(0, 178.373, 251.159)" x="178.373" y="251.159">15</text>
</g>
<g clip-path="url(#clip7900)">
<text style="fill:#000000; fill-opacity:1; font-family:Arial,Helvetica Neue,Helvetica,sans-serif; font-size:84px; text-anchor:middle;" transform="rotate(0, 1277.56, 73.2)" x="1277.56" y="73.2">Marginalized Distribution for mu_1</text>
</g>
<g clip-path="url(#clip7900)">
<text style="fill:#000000; fill-opacity:1; font-family:Arial,Helvetica Neue,Helvetica,sans-serif; font-size:66px; text-anchor:middle;" transform="rotate(0, 1277.56, 1559.48)" x="1277.56" y="1559.48">mu_1</text>
</g>
<g clip-path="url(#clip7900)">
<text style="fill:#000000; fill-opacity:1; font-family:Arial,Helvetica Neue,Helvetica,sans-serif; font-size:66px; text-anchor:middle;" transform="rotate(-90, 89.2861, 773.647)" x="89.2861" y="773.647">P(mu_1)</text>
</g>
<path clip-path="url(#clip7902)" d="
M263.233 1388.71 L312.712 1388.71 L312.712 1388.71 L362.192 1388.71 L362.192 1388.71 L411.672 1388.71 L411.672 1388.71 L461.151 1388.71 L461.151 1388.71 L510.631 1388.71 
  L510.631 1388.71 L560.11 1388.71 L560.11 1362.26 L609.59 1362.26 L609.59 1348.9 L659.07 1348.9 L659.07 1320.07 L708.549 1320.07 L708.549 1291.33 L758.029 1291.33 
  L758.029 1218.56 L807.508 1218.56 L807.508 1170.84 L856.988 1170.84 L856.988 1069.33 L906.467 1069.33 L906.467 1000.43 L955.947 1000.43 L955.947 887.139 L1005.43 887.139 
  L1005.43 706.97 L1054.91 706.97 L1054.91 574.874 L1104.39 574.874 L1104.39 484.702 L1153.87 484.702 L1153.87 321.23 L1203.35 321.23 L1203.35 194.408 L1252.82 194.408 
  L1252.82 221.741 L1302.3 221.741 L1302.3 221.478 L1351.78 221.478 L1351.78 245.559 L1401.26 245.559 L1401.26 287.394 L1450.74 287.394 L1450.74 479.34 L1500.22 479.34 
  L1500.22 551.584 L1549.7 551.584 L1549.7 716.11 L1599.18 716.11 L1599.18 841.789 L1648.66 841.789 L1648.66 982.937 L1698.14 982.937 L1698.14 1087.35 L1747.62 1087.35 
  L1747.62 1165.48 L1797.1 1165.48 L1797.1 1227.26 L1846.58 1227.26 L1846.58 1297.66 L1896.06 1297.66 L1896.06 1326.05 L1945.54 1326.05 L1945.54 1352.42 L1995.02 1352.42 
  L1995.02 1363.23 L2044.5 1363.23 L2044.5 1375.53 L2093.98 1375.53 L2093.98 1388.71 L2143.46 1388.71 L2143.46 1388.71 L2192.94 1388.71 L2192.94 1388.71 L2242.42 1388.71 
  L2242.42 1388.71 L2291.9 1388.71 L2291.9 1388.71 L2291.9 1388.71 L2291.9 1388.71 L2242.42 1388.71 L2242.42 1388.71 L2192.94 1388.71 L2192.94 1388.71 L2143.46 1388.71 
  L2143.46 1388.71 L2093.98 1388.71 L2093.98 1388.71 L2044.5 1388.71 L2044.5 1388.71 L1995.02 1388.71 L1995.02 1388.71 L1945.54 1388.71 L1945.54 1388.71 L1896.06 1388.71 
  L1896.06 1388.71 L1846.58 1388.71 L1846.58 1388.71 L1797.1 1388.71 L1797.1 1388.71 L1747.62 1388.71 L1747.62 1388.71 L1698.14 1388.71 L1698.14 1388.71 L1648.66 1388.71 
  L1648.66 1388.71 L1599.18 1388.71 L1599.18 1388.71 L1549.7 1388.71 L1549.7 1388.71 L1500.22 1388.71 L1500.22 1388.71 L1450.74 1388.71 L1450.74 1388.71 L1401.26 1388.71 
  L1401.26 1388.71 L1351.78 1388.71 L1351.78 1388.71 L1302.3 1388.71 L1302.3 1388.71 L1252.82 1388.71 L1252.82 1388.71 L1203.35 1388.71 L1203.35 1388.71 L1153.87 1388.71 
  L1153.87 1388.71 L1104.39 1388.71 L1104.39 1388.71 L1054.91 1388.71 L1054.91 1388.71 L1005.43 1388.71 L1005.43 1388.71 L955.947 1388.71 L955.947 1388.71 L906.467 1388.71 
  L906.467 1388.71 L856.988 1388.71 L856.988 1388.71 L807.508 1388.71 L807.508 1388.71 L758.029 1388.71 L758.029 1388.71 L708.549 1388.71 L708.549 1388.71 L659.07 1388.71 
  L659.07 1388.71 L609.59 1388.71 L609.59 1388.71 L560.11 1388.71 L560.11 1388.71 L510.631 1388.71 L510.631 1388.71 L461.151 1388.71 L461.151 1388.71 L411.672 1388.71 
  L411.672 1388.71 L362.192 1388.71 L362.192 1388.71 L312.712 1388.71 L312.712 1388.71 L263.233 1388.71  Z
  " fill="#ff0000" fill-rule="evenodd" fill-opacity="1"/>
<polyline clip-path="url(#clip7902)" style="stroke:#009af9; stroke-width:0; stroke-opacity:1; fill:none" points="
  263.233,1388.71 312.712,1388.71 362.192,1388.71 411.672,1388.71 461.151,1388.71 510.631,1388.71 
  560.11,1388.71 560.11,1362.26 609.59,1362.26 609.59,1348.9 659.07,1348.9 659.07,1320.07 708.549,1320.07 708.549,1291.33 758.029,1291.33 
  758.029,1218.56 807.508,1218.56 807.508,1170.84 856.988,1170.84 856.988,1069.33 906.467,1069.33 906.467,1000.43 955.947,1000.43 955.947,887.139 1005.43,887.139 
  1005.43,706.97 1054.91,706.97 1054.91,574.874 1104.39,574.874 1104.39,484.702 1153.87,484.702 1153.87,321.23 1203.35,321.23 1203.35,194.408 1252.82,194.408 
  1252.82,221.741 1302.3,221.741 1302.3,221.478 1351.78,221.478 1351.78,245.559 1401.26,245.559 1401.26,287.394 1450.74,287.394 1450.74,479.34 1500.22,479.34 
  1500.22,551.584 1549.7,551.584 1549.7,716.11 1599.18,716.11 1599.18,841.789 1648.66,841.789 1648.66,982.937 1698.14,982.937 1698.14,1087.35 1747.62,1087.35 
  1747.62,1165.48 1797.1,1165.48 1797.1,1227.26 1846.58,1227.26 1846.58,1297.66 1896.06,1297.66 1896.06,1326.05 1945.54,1326.05 1945.54,1352.42 1995.02,1352.42 
  1995.02,1363.23 2044.5,1363.23 2044.5,1375.53 2093.98,1375.53 2093.98,1388.71 2143.46,1388.71 2192.94,1388.71 2242.42,1388.71 
  2291.9,1388.71 
  "/>
<path clip-path="url(#clip7902)" d="
M263.233 1388.71 L312.712 1388.71 L312.712 1388.71 L362.192 1388.71 L362.192 1388.71 L411.672 1388.71 L411.672 1388.71 L461.151 1388.71 L461.151 1388.71 L510.631 1388.71 
  L510.631 1388.71 L560.11 1388.71 L560.11 1388.71 L609.59 1388.71 L609.59 1388.71 L659.07 1388.71 L659.07 1388.71 L708.549 1388.71 L708.549 1388.71 L758.029 1388.71 
  L758.029 1218.56 L807.508 1218.56 L807.508 1170.84 L856.988 1170.84 L856.988 1069.33 L906.467 1069.33 L906.467 1000.43 L955.947 1000.43 L955.947 887.139 L1005.43 887.139 
  L1005.43 706.97 L1054.91 706.97 L1054.91 574.874 L1104.39 574.874 L1104.39 484.702 L1153.87 484.702 L1153.87 321.23 L1203.35 321.23 L1203.35 194.408 L1252.82 194.408 
  L1252.82 221.741 L1302.3 221.741 L1302.3 221.478 L1351.78 221.478 L1351.78 245.559 L1401.26 245.559 L1401.26 287.394 L1450.74 287.394 L1450.74 479.34 L1500.22 479.34 
  L1500.22 551.584 L1549.7 551.584 L1549.7 716.11 L1599.18 716.11 L1599.18 841.789 L1648.66 841.789 L1648.66 982.937 L1698.14 982.937 L1698.14 1087.35 L1747.62 1087.35 
  L1747.62 1165.48 L1797.1 1165.48 L1797.1 1388.71 L1846.58 1388.71 L1846.58 1388.71 L1896.06 1388.71 L1896.06 1388.71 L1945.54 1388.71 L1945.54 1388.71 L1995.02 1388.71 
  L1995.02 1388.71 L2044.5 1388.71 L2044.5 1388.71 L2093.98 1388.71 L2093.98 1388.71 L2143.46 1388.71 L2143.46 1388.71 L2192.94 1388.71 L2192.94 1388.71 L2242.42 1388.71 
  L2242.42 1388.71 L2291.9 1388.71 L2291.9 1388.71 L2291.9 1388.71 L2291.9 1388.71 L2242.42 1388.71 L2242.42 1388.71 L2192.94 1388.71 L2192.94 1388.71 L2143.46 1388.71 
  L2143.46 1388.71 L2093.98 1388.71 L2093.98 1388.71 L2044.5 1388.71 L2044.5 1388.71 L1995.02 1388.71 L1995.02 1388.71 L1945.54 1388.71 L1945.54 1388.71 L1896.06 1388.71 
  L1896.06 1388.71 L1846.58 1388.71 L1846.58 1388.71 L1797.1 1388.71 L1797.1 1388.71 L1747.62 1388.71 L1747.62 1388.71 L1698.14 1388.71 L1698.14 1388.71 L1648.66 1388.71 
  L1648.66 1388.71 L1599.18 1388.71 L1599.18 1388.71 L1549.7 1388.71 L1549.7 1388.71 L1500.22 1388.71 L1500.22 1388.71 L1450.74 1388.71 L1450.74 1388.71 L1401.26 1388.71 
  L1401.26 1388.71 L1351.78 1388.71 L1351.78 1388.71 L1302.3 1388.71 L1302.3 1388.71 L1252.82 1388.71 L1252.82 1388.71 L1203.35 1388.71 L1203.35 1388.71 L1153.87 1388.71 
  L1153.87 1388.71 L1104.39 1388.71 L1104.39 1388.71 L1054.91 1388.71 L1054.91 1388.71 L1005.43 1388.71 L1005.43 1388.71 L955.947 1388.71 L955.947 1388.71 L906.467 1388.71 
  L906.467 1388.71 L856.988 1388.71 L856.988 1388.71 L807.508 1388.71 L807.508 1388.71 L758.029 1388.71 L758.029 1388.71 L708.549 1388.71 L708.549 1388.71 L659.07 1388.71 
  L659.07 1388.71 L609.59 1388.71 L609.59 1388.71 L560.11 1388.71 L560.11 1388.71 L510.631 1388.71 L510.631 1388.71 L461.151 1388.71 L461.151 1388.71 L411.672 1388.71 
  L411.672 1388.71 L362.192 1388.71 L362.192 1388.71 L312.712 1388.71 L312.712 1388.71 L263.233 1388.71  Z
  " fill="#ffff00" fill-rule="evenodd" fill-opacity="1"/>
<polyline clip-path="url(#clip7902)" style="stroke:#e26f46; stroke-width:0; stroke-opacity:1; fill:none" points="
  263.233,1388.71 312.712,1388.71 362.192,1388.71 411.672,1388.71 461.151,1388.71 510.631,1388.71 
  560.11,1388.71 609.59,1388.71 659.07,1388.71 708.549,1388.71 758.029,1388.71 
  758.029,1218.56 807.508,1218.56 807.508,1170.84 856.988,1170.84 856.988,1069.33 906.467,1069.33 906.467,1000.43 955.947,1000.43 955.947,887.139 1005.43,887.139 
  1005.43,706.97 1054.91,706.97 1054.91,574.874 1104.39,574.874 1104.39,484.702 1153.87,484.702 1153.87,321.23 1203.35,321.23 1203.35,194.408 1252.82,194.408 
  1252.82,221.741 1302.3,221.741 1302.3,221.478 1351.78,221.478 1351.78,245.559 1401.26,245.559 1401.26,287.394 1450.74,287.394 1450.74,479.34 1500.22,479.34 
  1500.22,551.584 1549.7,551.584 1549.7,716.11 1599.18,716.11 1599.18,841.789 1648.66,841.789 1648.66,982.937 1698.14,982.937 1698.14,1087.35 1747.62,1087.35 
  1747.62,1165.48 1797.1,1165.48 1797.1,1388.71 1846.58,1388.71 1896.06,1388.71 1945.54,1388.71 1995.02,1388.71 
  2044.5,1388.71 2093.98,1388.71 2143.46,1388.71 2192.94,1388.71 2242.42,1388.71 
  2291.9,1388.71 
  "/>
<path clip-path="url(#clip7902)" d="
M263.233 1388.71 L312.712 1388.71 L312.712 1388.71 L362.192 1388.71 L362.192 1388.71 L411.672 1388.71 L411.672 1388.71 L461.151 1388.71 L461.151 1388.71 L510.631 1388.71 
  L510.631 1388.71 L560.11 1388.71 L560.11 1388.71 L609.59 1388.71 L609.59 1388.71 L659.07 1388.71 L659.07 1388.71 L708.549 1388.71 L708.549 1388.71 L758.029 1388.71 
  L758.029 1388.71 L807.508 1388.71 L807.508 1388.71 L856.988 1388.71 L856.988 1388.71 L906.467 1388.71 L906.467 1388.71 L955.947 1388.71 L955.947 1388.71 L1005.43 1388.71 
  L1005.43 706.97 L1054.91 706.97 L1054.91 574.874 L1104.39 574.874 L1104.39 484.702 L1153.87 484.702 L1153.87 321.23 L1203.35 321.23 L1203.35 194.408 L1252.82 194.408 
  L1252.82 221.741 L1302.3 221.741 L1302.3 221.478 L1351.78 221.478 L1351.78 245.559 L1401.26 245.559 L1401.26 287.394 L1450.74 287.394 L1450.74 479.34 L1500.22 479.34 
  L1500.22 551.584 L1549.7 551.584 L1549.7 1388.71 L1599.18 1388.71 L1599.18 1388.71 L1648.66 1388.71 L1648.66 1388.71 L1698.14 1388.71 L1698.14 1388.71 L1747.62 1388.71 
  L1747.62 1388.71 L1797.1 1388.71 L1797.1 1388.71 L1846.58 1388.71 L1846.58 1388.71 L1896.06 1388.71 L1896.06 1388.71 L1945.54 1388.71 L1945.54 1388.71 L1995.02 1388.71 
  L1995.02 1388.71 L2044.5 1388.71 L2044.5 1388.71 L2093.98 1388.71 L2093.98 1388.71 L2143.46 1388.71 L2143.46 1388.71 L2192.94 1388.71 L2192.94 1388.71 L2242.42 1388.71 
  L2242.42 1388.71 L2291.9 1388.71 L2291.9 1388.71 L2291.9 1388.71 L2291.9 1388.71 L2242.42 1388.71 L2242.42 1388.71 L2192.94 1388.71 L2192.94 1388.71 L2143.46 1388.71 
  L2143.46 1388.71 L2093.98 1388.71 L2093.98 1388.71 L2044.5 1388.71 L2044.5 1388.71 L1995.02 1388.71 L1995.02 1388.71 L1945.54 1388.71 L1945.54 1388.71 L1896.06 1388.71 
  L1896.06 1388.71 L1846.58 1388.71 L1846.58 1388.71 L1797.1 1388.71 L1797.1 1388.71 L1747.62 1388.71 L1747.62 1388.71 L1698.14 1388.71 L1698.14 1388.71 L1648.66 1388.71 
  L1648.66 1388.71 L1599.18 1388.71 L1599.18 1388.71 L1549.7 1388.71 L1549.7 1388.71 L1500.22 1388.71 L1500.22 1388.71 L1450.74 1388.71 L1450.74 1388.71 L1401.26 1388.71 
  L1401.26 1388.71 L1351.78 1388.71 L1351.78 1388.71 L1302.3 1388.71 L1302.3 1388.71 L1252.82 1388.71 L1252.82 1388.71 L1203.35 1388.71 L1203.35 1388.71 L1153.87 1388.71 
  L1153.87 1388.71 L1104.39 1388.71 L1104.39 1388.71 L1054.91 1388.71 L1054.91 1388.71 L1005.43 1388.71 L1005.43 1388.71 L955.947 1388.71 L955.947 1388.71 L906.467 1388.71 
  L906.467 1388.71 L856.988 1388.71 L856.988 1388.71 L807.508 1388.71 L807.508 1388.71 L758.029 1388.71 L758.029 1388.71 L708.549 1388.71 L708.549 1388.71 L659.07 1388.71 
  L659.07 1388.71 L609.59 1388.71 L609.59 1388.71 L560.11 1388.71 L560.11 1388.71 L510.631 1388.71 L510.631 1388.71 L461.151 1388.71 L461.151 1388.71 L411.672 1388.71 
  L411.672 1388.71 L362.192 1388.71 L362.192 1388.71 L312.712 1388.71 L312.712 1388.71 L263.233 1388.71  Z
  " fill="#76ee00" fill-rule="evenodd" fill-opacity="1"/>
<polyline clip-path="url(#clip7902)" style="stroke:#3da44d; stroke-width:0; stroke-opacity:1; fill:none" points="
  263.233,1388.71 312.712,1388.71 362.192,1388.71 411.672,1388.71 461.151,1388.71 510.631,1388.71 
  560.11,1388.71 609.59,1388.71 659.07,1388.71 708.549,1388.71 758.029,1388.71 
  807.508,1388.71 856.988,1388.71 906.467,1388.71 955.947,1388.71 1005.43,1388.71 
  1005.43,706.97 1054.91,706.97 1054.91,574.874 1104.39,574.874 1104.39,484.702 1153.87,484.702 1153.87,321.23 1203.35,321.23 1203.35,194.408 1252.82,194.408 
  1252.82,221.741 1302.3,221.741 1302.3,221.478 1351.78,221.478 1351.78,245.559 1401.26,245.559 1401.26,287.394 1450.74,287.394 1450.74,479.34 1500.22,479.34 
  1500.22,551.584 1549.7,551.584 1549.7,1388.71 1599.18,1388.71 1648.66,1388.71 1698.14,1388.71 1747.62,1388.71 
  1797.1,1388.71 1846.58,1388.71 1896.06,1388.71 1945.54,1388.71 1995.02,1388.71 
  2044.5,1388.71 2093.98,1388.71 2143.46,1388.71 2192.94,1388.71 2242.42,1388.71 
  2291.9,1388.71 
  "/>
<polyline clip-path="url(#clip7902)" style="stroke:#000000; stroke-width:2.8; stroke-opacity:1; fill:none" points="
  263.233,1388.63 312.712,1388.63 312.712,1387.57 362.192,1387.57 362.192,1382.74 411.672,1382.74 411.672,1383.44 461.151,1383.44 461.151,1382.04 510.631,1382.04 
  510.631,1376.67 560.11,1376.67 560.11,1362.26 609.59,1362.26 609.59,1348.9 659.07,1348.9 659.07,1320.07 708.549,1320.07 708.549,1291.33 758.029,1291.33 
  758.029,1218.56 807.508,1218.56 807.508,1170.84 856.988,1170.84 856.988,1069.33 906.467,1069.33 906.467,1000.43 955.947,1000.43 955.947,887.139 1005.43,887.139 
  1005.43,706.97 1054.91,706.97 1054.91,574.874 1104.39,574.874 1104.39,484.702 1153.87,484.702 1153.87,321.23 1203.35,321.23 1203.35,194.408 1252.82,194.408 
  1252.82,221.741 1302.3,221.741 1302.3,221.478 1351.78,221.478 1351.78,245.559 1401.26,245.559 1401.26,287.394 1450.74,287.394 1450.74,479.34 1500.22,479.34 
  1500.22,551.584 1549.7,551.584 1549.7,716.11 1599.18,716.11 1599.18,841.789 1648.66,841.789 1648.66,982.937 1698.14,982.937 1698.14,1087.35 1747.62,1087.35 
  1747.62,1165.48 1797.1,1165.48 1797.1,1227.26 1846.58,1227.26 1846.58,1297.66 1896.06,1297.66 1896.06,1326.05 1945.54,1326.05 1945.54,1352.42 1995.02,1352.42 
  1995.02,1363.23 2044.5,1363.23 2044.5,1375.53 2093.98,1375.53 2093.98,1383.44 2143.46,1383.44 2143.46,1385.2 2192.94,1385.2 2192.94,1386.61 2242.42,1386.61 
  2242.42,1386.69 2291.9,1386.69 2291.9,1388.28 
  "/>
<path clip-path="url(#clip7902)" d="
M1046.64 1388.71 L1557.96 1388.71 L1557.96 158.579 L1046.64 158.579 L1046.64 1388.71  Z
  " fill="#808080" fill-rule="evenodd" fill-opacity="0.5"/>
<polyline clip-path="url(#clip7902)" style="stroke:#000000; stroke-width:0; stroke-opacity:1; fill:none" points="
  1046.64,1388.71 1557.96,1388.71 1557.96,158.579 1046.64,158.579 1046.64,1388.71 
  "/>
<polyline clip-path="url(#clip7902)" style="stroke:#696969; stroke-width:4; stroke-opacity:1; fill:none" points="
  1302.3,1388.71 1302.3,158.579 
  "/>
<polyline clip-path="url(#clip7902)" style="stroke:#000000; stroke-width:4; stroke-opacity:1; fill:none" stroke-dasharray="16, 10" points="
  1325.51,1388.71 1325.51,158.579 
  "/>
<polyline clip-path="url(#clip7902)" style="stroke:#000000; stroke-width:4; stroke-opacity:1; fill:none" stroke-dasharray="2, 4" points="
  1228.08,1388.71 1228.08,158.579 
  "/>
<path clip-path="url(#clip7900)" d="
M1463.01 689.035 L2280.76 689.035 L2280.76 205.195 L1463.01 205.195  Z
  " fill="#ffffff" fill-rule="evenodd" fill-opacity="1"/>
<polyline clip-path="url(#clip7900)" style="stroke:#000000; stroke-width:4; stroke-opacity:1; fill:none" points="
  1463.01,689.035 2280.76,689.035 2280.76,205.195 1463.01,205.195 1463.01,689.035 
  "/>
<path clip-path="url(#clip7900)" d="
M1487.01 289.867 L1631.01 289.867 L1631.01 241.483 L1487.01 241.483 L1487.01 289.867  Z
  " fill="#ff0000" fill-rule="evenodd" fill-opacity="1"/>
<polyline clip-path="url(#clip7900)" style="stroke:#009af9; stroke-width:0; stroke-opacity:1; fill:none" points="
  1487.01,241.483 1631.01,241.483 
  "/>
<g clip-path="url(#clip7900)">
<text style="fill:#000000; fill-opacity:1; font-family:Arial,Helvetica Neue,Helvetica,sans-serif; font-size:48px; text-anchor:start;" transform="rotate(0, 1655.01, 283.175)" x="1655.01" y="283.175">smallest 99.71% interval(s)</text>
</g>
<path clip-path="url(#clip7900)" d="
M1487.01 350.347 L1631.01 350.347 L1631.01 301.963 L1487.01 301.963 L1487.01 350.347  Z
  " fill="#ffff00" fill-rule="evenodd" fill-opacity="1"/>
<polyline clip-path="url(#clip7900)" style="stroke:#e26f46; stroke-width:0; stroke-opacity:1; fill:none" points="
  1487.01,301.963 1631.01,301.963 
  "/>
<g clip-path="url(#clip7900)">
<text style="fill:#000000; fill-opacity:1; font-family:Arial,Helvetica Neue,Helvetica,sans-serif; font-size:48px; text-anchor:start;" transform="rotate(0, 1655.01, 343.655)" x="1655.01" y="343.655">smallest 95.67% interval(s)</text>
</g>
<path clip-path="url(#clip7900)" d="
M1487.01 410.827 L1631.01 410.827 L1631.01 362.443 L1487.01 362.443 L1487.01 410.827  Z
  " fill="#76ee00" fill-rule="evenodd" fill-opacity="1"/>
<polyline clip-path="url(#clip7900)" style="stroke:#3da44d; stroke-width:0; stroke-opacity:1; fill:none" points="
  1487.01,362.443 1631.01,362.443 
  "/>
<g clip-path="url(#clip7900)">
<text style="fill:#000000; fill-opacity:1; font-family:Arial,Helvetica Neue,Helvetica,sans-serif; font-size:48px; text-anchor:start;" transform="rotate(0, 1655.01, 404.135)" x="1655.01" y="404.135">smallest 71.34% interval(s)</text>
</g>
<path clip-path="url(#clip7900)" d="
M1487.01 471.307 L1631.01 471.307 L1631.01 422.923 L1487.01 422.923 L1487.01 471.307  Z
  " fill="#808080" fill-rule="evenodd" fill-opacity="0.5"/>
<polyline clip-path="url(#clip7900)" style="stroke:#000000; stroke-width:0; stroke-opacity:1; fill:none" points="
  1487.01,471.307 1631.01,471.307 1631.01,422.923 1487.01,422.923 1487.01,471.307 
  "/>
<g clip-path="url(#clip7900)">
<text style="fill:#000000; fill-opacity:1; font-family:Arial,Helvetica Neue,Helvetica,sans-serif; font-size:48px; text-anchor:start;" transform="rotate(0, 1655.01, 464.615)" x="1655.01" y="464.615">std. dev.</text>
</g>
<polyline clip-path="url(#clip7900)" style="stroke:#696969; stroke-width:4; stroke-opacity:1; fill:none" points="
  1487.01,507.595 1631.01,507.595 
  "/>
<g clip-path="url(#clip7900)">
<text style="fill:#000000; fill-opacity:1; font-family:Arial,Helvetica Neue,Helvetica,sans-serif; font-size:48px; text-anchor:start;" transform="rotate(0, 1655.01, 525.095)" x="1655.01" y="525.095">mean</text>
</g>
<polyline clip-path="url(#clip7900)" style="stroke:#000000; stroke-width:4; stroke-opacity:1; fill:none" stroke-dasharray="16, 10" points="
  1487.01,568.075 1631.01,568.075 
  "/>
<g clip-path="url(#clip7900)">
<text style="fill:#000000; fill-opacity:1; font-family:Arial,Helvetica Neue,Helvetica,sans-serif; font-size:48px; text-anchor:start;" transform="rotate(0, 1655.01, 585.575)" x="1655.01" y="585.575">global mode</text>
</g>
<polyline clip-path="url(#clip7900)" style="stroke:#000000; stroke-width:4; stroke-opacity:1; fill:none" stroke-dasharray="2, 4" points="
  1487.01,628.555 1631.01,628.555 
  "/>
<g clip-path="url(#clip7900)">
<text style="fill:#000000; fill-opacity:1; font-family:Arial,Helvetica Neue,Helvetica,sans-serif; font-size:48px; text-anchor:start;" transform="rotate(0, 1655.01, 646.055)" x="1655.01" y="646.055">local mode</text>
</g>
</svg>
