<?xml version="1.0" encoding="utf-8"?>
<svg xmlns="http://www.w3.org/2000/svg" xmlns:xlink="http://www.w3.org/1999/xlink" width="600" height="400" viewBox="0 0 2400 1600">
<defs>
  <clipPath id="clip780">
    <rect x="0" y="0" width="2400" height="1600"/>
  </clipPath>
</defs>
<path clip-path="url(#clip780)" d="
M0 1600 L2400 1600 L2400 0 L0 0  Z
  " fill="#ffffff" fill-rule="evenodd" fill-opacity="1"/>
<defs>
  <clipPath id="clip781">
    <rect x="480" y="0" width="1681" height="1600"/>
  </clipPath>
</defs>
<path clip-path="url(#clip780)" d="
M172.015 1486.45 L2352.76 1486.45 L2352.76 123.472 L172.015 123.472  Z
  " fill="#ffffff" fill-rule="evenodd" fill-opacity="1"/>
<defs>
  <clipPath id="clip782">
    <rect x="172" y="123" width="2182" height="1364"/>
  </clipPath>
</defs>
<polyline clip-path="url(#clip782)" style="stroke:#000000; stroke-linecap:butt; stroke-linejoin:round; stroke-width:2; stroke-opacity:0.1; fill:none" points="
  233.734,1486.45 233.734,123.472 
  "/>
<polyline clip-path="url(#clip782)" style="stroke:#000000; stroke-linecap:butt; stroke-linejoin:round; stroke-width:2; stroke-opacity:0.1; fill:none" points="
  748.06,1486.45 748.06,123.472 
  "/>
<polyline clip-path="url(#clip782)" style="stroke:#000000; stroke-linecap:butt; stroke-linejoin:round; stroke-width:2; stroke-opacity:0.1; fill:none" points="
  1262.39,1486.45 1262.39,123.472 
  "/>
<polyline clip-path="url(#clip782)" style="stroke:#000000; stroke-linecap:butt; stroke-linejoin:round; stroke-width:2; stroke-opacity:0.1; fill:none" points="
  1776.71,1486.45 1776.71,123.472 
  "/>
<polyline clip-path="url(#clip782)" style="stroke:#000000; stroke-linecap:butt; stroke-linejoin:round; stroke-width:2; stroke-opacity:0.1; fill:none" points="
  2291.04,1486.45 2291.04,123.472 
  "/>
<polyline clip-path="url(#clip780)" style="stroke:#000000; stroke-linecap:butt; stroke-linejoin:round; stroke-width:4; stroke-opacity:1; fill:none" points="
  172.015,1486.45 2352.76,1486.45 
  "/>
<polyline clip-path="url(#clip780)" style="stroke:#000000; stroke-linecap:butt; stroke-linejoin:round; stroke-width:4; stroke-opacity:1; fill:none" points="
  233.734,1486.45 233.734,1470.09 
  "/>
<polyline clip-path="url(#clip780)" style="stroke:#000000; stroke-linecap:butt; stroke-linejoin:round; stroke-width:4; stroke-opacity:1; fill:none" points="
  748.06,1486.45 748.06,1470.09 
  "/>
<polyline clip-path="url(#clip780)" style="stroke:#000000; stroke-linecap:butt; stroke-linejoin:round; stroke-width:4; stroke-opacity:1; fill:none" points="
  1262.39,1486.45 1262.39,1470.09 
  "/>
<polyline clip-path="url(#clip780)" style="stroke:#000000; stroke-linecap:butt; stroke-linejoin:round; stroke-width:4; stroke-opacity:1; fill:none" points="
  1776.71,1486.45 1776.71,1470.09 
  "/>
<polyline clip-path="url(#clip780)" style="stroke:#000000; stroke-linecap:butt; stroke-linejoin:round; stroke-width:4; stroke-opacity:1; fill:none" points="
  2291.04,1486.45 2291.04,1470.09 
  "/>
<path clip-path="url(#clip780)" d="M202.635 1530.29 L232.31 1530.29 L232.31 1534.23 L202.635 1534.23 L202.635 1530.29 Z" fill="#000000" fill-rule="evenodd" fill-opacity="1" /><path clip-path="url(#clip780)" d="M255.25 1516.63 L243.445 1535.08 L255.25 1535.08 L255.25 1516.63 M254.023 1512.56 L259.903 1512.56 L259.903 1535.08 L264.833 1535.08 L264.833 1538.97 L259.903 1538.97 L259.903 1547.12 L255.25 1547.12 L255.25 1538.97 L239.648 1538.97 L239.648 1534.46 L254.023 1512.56 Z" fill="#000000" fill-rule="evenodd" fill-opacity="1" /><path clip-path="url(#clip780)" d="M718.002 1530.29 L747.678 1530.29 L747.678 1534.23 L718.002 1534.23 L718.002 1530.29 Z" fill="#000000" fill-rule="evenodd" fill-opacity="1" /><path clip-path="url(#clip780)" d="M761.798 1543.18 L778.117 1543.18 L778.117 1547.12 L756.173 1547.12 L756.173 1543.18 Q758.835 1540.43 763.418 1535.8 Q768.025 1531.15 769.205 1529.81 Q771.451 1527.28 772.33 1525.55 Q773.233 1523.79 773.233 1522.1 Q773.233 1519.34 771.289 1517.61 Q769.367 1515.87 766.266 1515.87 Q764.066 1515.87 761.613 1516.63 Q759.182 1517.4 756.404 1518.95 L756.404 1514.23 Q759.229 1513.09 761.682 1512.51 Q764.136 1511.93 766.173 1511.93 Q771.543 1511.93 774.738 1514.62 Q777.932 1517.31 777.932 1521.8 Q777.932 1523.93 777.122 1525.85 Q776.335 1527.74 774.228 1530.34 Q773.65 1531.01 770.548 1534.23 Q767.446 1537.42 761.798 1543.18 Z" fill="#000000" fill-rule="evenodd" fill-opacity="1" /><path clip-path="url(#clip780)" d="M1262.39 1515.64 Q1258.77 1515.64 1256.95 1519.2 Q1255.14 1522.75 1255.14 1529.87 Q1255.14 1536.98 1256.95 1540.55 Q1258.77 1544.09 1262.39 1544.09 Q1266.02 1544.09 1267.83 1540.55 Q1269.65 1536.98 1269.65 1529.87 Q1269.65 1522.75 1267.83 1519.2 Q1266.02 1515.64 1262.39 1515.64 M1262.39 1511.93 Q1268.2 1511.93 1271.25 1516.54 Q1274.33 1521.12 1274.33 1529.87 Q1274.33 1538.6 1271.25 1543.21 Q1268.2 1547.79 1262.39 1547.79 Q1256.58 1547.79 1253.5 1543.21 Q1250.44 1538.6 1250.44 1529.87 Q1250.44 1521.12 1253.5 1516.54 Q1256.58 1511.93 1262.39 1511.93 Z" fill="#000000" fill-rule="evenodd" fill-opacity="1" /><path clip-path="url(#clip780)" d="M1771.36 1543.18 L1787.68 1543.18 L1787.68 1547.12 L1765.74 1547.12 L1765.74 1543.18 Q1768.4 1540.43 1772.98 1535.8 Q1777.59 1531.15 1778.77 1529.81 Q1781.02 1527.28 1781.9 1525.55 Q1782.8 1523.79 1782.8 1522.1 Q1782.8 1519.34 1780.85 1517.61 Q1778.93 1515.87 1775.83 1515.87 Q1773.63 1515.87 1771.18 1516.63 Q1768.75 1517.4 1765.97 1518.95 L1765.97 1514.23 Q1768.79 1513.09 1771.25 1512.51 Q1773.7 1511.93 1775.74 1511.93 Q1781.11 1511.93 1784.3 1514.62 Q1787.5 1517.31 1787.5 1521.8 Q1787.5 1523.93 1786.69 1525.85 Q1785.9 1527.74 1783.79 1530.34 Q1783.22 1531.01 1780.11 1534.23 Q1777.01 1537.42 1771.36 1543.18 Z" fill="#000000" fill-rule="evenodd" fill-opacity="1" /><path clip-path="url(#clip780)" d="M2294.05 1516.63 L2282.24 1535.08 L2294.05 1535.08 L2294.05 1516.63 M2292.82 1512.56 L2298.7 1512.56 L2298.7 1535.08 L2303.63 1535.08 L2303.63 1538.97 L2298.7 1538.97 L2298.7 1547.12 L2294.05 1547.12 L2294.05 1538.97 L2278.44 1538.97 L2278.44 1534.46 L2292.82 1512.56 Z" fill="#000000" fill-rule="evenodd" fill-opacity="1" /><polyline clip-path="url(#clip782)" style="stroke:#000000; stroke-linecap:butt; stroke-linejoin:round; stroke-width:2; stroke-opacity:0.1; fill:none" points="
  172.015,1447.87 2352.76,1447.87 
  "/>
<polyline clip-path="url(#clip782)" style="stroke:#000000; stroke-linecap:butt; stroke-linejoin:round; stroke-width:2; stroke-opacity:0.1; fill:none" points="
  172.015,1134.26 2352.76,1134.26 
  "/>
<polyline clip-path="url(#clip782)" style="stroke:#000000; stroke-linecap:butt; stroke-linejoin:round; stroke-width:2; stroke-opacity:0.1; fill:none" points="
  172.015,820.641 2352.76,820.641 
  "/>
<polyline clip-path="url(#clip782)" style="stroke:#000000; stroke-linecap:butt; stroke-linejoin:round; stroke-width:2; stroke-opacity:0.1; fill:none" points="
  172.015,507.025 2352.76,507.025 
  "/>
<polyline clip-path="url(#clip782)" style="stroke:#000000; stroke-linecap:butt; stroke-linejoin:round; stroke-width:2; stroke-opacity:0.1; fill:none" points="
  172.015,193.409 2352.76,193.409 
  "/>
<polyline clip-path="url(#clip780)" style="stroke:#000000; stroke-linecap:butt; stroke-linejoin:round; stroke-width:4; stroke-opacity:1; fill:none" points="
  172.015,1486.45 172.015,123.472 
  "/>
<polyline clip-path="url(#clip780)" style="stroke:#000000; stroke-linecap:butt; stroke-linejoin:round; stroke-width:4; stroke-opacity:1; fill:none" points="
  172.015,1447.87 198.184,1447.87 
  "/>
<polyline clip-path="url(#clip780)" style="stroke:#000000; stroke-linecap:butt; stroke-linejoin:round; stroke-width:4; stroke-opacity:1; fill:none" points="
  172.015,1134.26 198.184,1134.26 
  "/>
<polyline clip-path="url(#clip780)" style="stroke:#000000; stroke-linecap:butt; stroke-linejoin:round; stroke-width:4; stroke-opacity:1; fill:none" points="
  172.015,820.641 198.184,820.641 
  "/>
<polyline clip-path="url(#clip780)" style="stroke:#000000; stroke-linecap:butt; stroke-linejoin:round; stroke-width:4; stroke-opacity:1; fill:none" points="
  172.015,507.025 198.184,507.025 
  "/>
<polyline clip-path="url(#clip780)" style="stroke:#000000; stroke-linecap:butt; stroke-linejoin:round; stroke-width:4; stroke-opacity:1; fill:none" points="
  172.015,193.409 198.184,193.409 
  "/>
<path clip-path="url(#clip780)" d="M124.07 1433.67 Q120.459 1433.67 118.631 1437.24 Q116.825 1440.78 116.825 1447.91 Q116.825 1455.01 118.631 1458.58 Q120.459 1462.12 124.07 1462.12 Q127.705 1462.12 129.51 1458.58 Q131.339 1455.01 131.339 1447.91 Q131.339 1440.78 129.51 1437.24 Q127.705 1433.67 124.07 1433.67 M124.07 1429.97 Q129.881 1429.97 132.936 1434.57 Q136.015 1439.16 136.015 1447.91 Q136.015 1456.63 132.936 1461.24 Q129.881 1465.82 124.07 1465.82 Q118.26 1465.82 115.182 1461.24 Q112.126 1456.63 112.126 1447.91 Q112.126 1439.16 115.182 1434.57 Q118.26 1429.97 124.07 1429.97 Z" fill="#000000" fill-rule="evenodd" fill-opacity="1" /><path clip-path="url(#clip780)" d="M57.7745 1147.6 L74.0939 1147.6 L74.0939 1151.54 L52.1495 1151.54 L52.1495 1147.6 Q54.8115 1144.85 59.3949 1140.22 Q64.0013 1135.56 65.1819 1134.22 Q67.4272 1131.7 68.3068 1129.96 Q69.2096 1128.2 69.2096 1126.51 Q69.2096 1123.76 67.2652 1122.02 Q65.3439 1120.29 62.2421 1120.29 Q60.043 1120.29 57.5893 1121.05 Q55.1588 1121.81 52.381 1123.37 L52.381 1118.64 Q55.2051 1117.51 57.6588 1116.93 Q60.1124 1116.35 62.1495 1116.35 Q67.5198 1116.35 70.7142 1119.04 Q73.9087 1121.72 73.9087 1126.21 Q73.9087 1128.34 73.0985 1130.26 Q72.3115 1132.16 70.205 1134.75 Q69.6263 1135.43 66.5245 1138.64 Q63.4226 1141.84 57.7745 1147.6 Z" fill="#000000" fill-rule="evenodd" fill-opacity="1" /><path clip-path="url(#clip780)" d="M93.9086 1120.06 Q90.2975 1120.06 88.4688 1123.62 Q86.6632 1127.16 86.6632 1134.29 Q86.6632 1141.4 88.4688 1144.96 Q90.2975 1148.5 93.9086 1148.5 Q97.5428 1148.5 99.3483 1144.96 Q101.177 1141.4 101.177 1134.29 Q101.177 1127.16 99.3483 1123.62 Q97.5428 1120.06 93.9086 1120.06 M93.9086 1116.35 Q99.7187 1116.35 102.774 1120.96 Q105.853 1125.54 105.853 1134.29 Q105.853 1143.02 102.774 1147.62 Q99.7187 1152.21 93.9086 1152.21 Q88.0984 1152.21 85.0197 1147.62 Q81.9642 1143.02 81.9642 1134.29 Q81.9642 1125.54 85.0197 1120.96 Q88.0984 1116.35 93.9086 1116.35 Z" fill="#000000" fill-rule="evenodd" fill-opacity="1" /><path clip-path="url(#clip780)" d="M124.07 1120.06 Q120.459 1120.06 118.631 1123.62 Q116.825 1127.16 116.825 1134.29 Q116.825 1141.4 118.631 1144.96 Q120.459 1148.5 124.07 1148.5 Q127.705 1148.5 129.51 1144.96 Q131.339 1141.4 131.339 1134.29 Q131.339 1127.16 129.51 1123.62 Q127.705 1120.06 124.07 1120.06 M124.07 1116.35 Q129.881 1116.35 132.936 1120.96 Q136.015 1125.54 136.015 1134.29 Q136.015 1143.02 132.936 1147.62 Q129.881 1152.21 124.07 1152.21 Q118.26 1152.21 115.182 1147.62 Q112.126 1143.02 112.126 1134.29 Q112.126 1125.54 115.182 1120.96 Q118.26 1116.35 124.07 1116.35 Z" fill="#000000" fill-rule="evenodd" fill-opacity="1" /><path clip-path="url(#clip780)" d="M66.5939 807.435 L54.7884 825.884 L66.5939 825.884 L66.5939 807.435 M65.367 803.361 L71.2466 803.361 L71.2466 825.884 L76.1772 825.884 L76.1772 829.773 L71.2466 829.773 L71.2466 837.921 L66.5939 837.921 L66.5939 829.773 L50.9921 829.773 L50.9921 825.259 L65.367 803.361 Z" fill="#000000" fill-rule="evenodd" fill-opacity="1" /><path clip-path="url(#clip780)" d="M93.9086 806.439 Q90.2975 806.439 88.4688 810.004 Q86.6632 813.546 86.6632 820.676 Q86.6632 827.782 88.4688 831.347 Q90.2975 834.888 93.9086 834.888 Q97.5428 834.888 99.3483 831.347 Q101.177 827.782 101.177 820.676 Q101.177 813.546 99.3483 810.004 Q97.5428 806.439 93.9086 806.439 M93.9086 802.736 Q99.7187 802.736 102.774 807.342 Q105.853 811.926 105.853 820.676 Q105.853 829.402 102.774 834.009 Q99.7187 838.592 93.9086 838.592 Q88.0984 838.592 85.0197 834.009 Q81.9642 829.402 81.9642 820.676 Q81.9642 811.926 85.0197 807.342 Q88.0984 802.736 93.9086 802.736 Z" fill="#000000" fill-rule="evenodd" fill-opacity="1" /><path clip-path="url(#clip780)" d="M124.07 806.439 Q120.459 806.439 118.631 810.004 Q116.825 813.546 116.825 820.676 Q116.825 827.782 118.631 831.347 Q120.459 834.888 124.07 834.888 Q127.705 834.888 129.51 831.347 Q131.339 827.782 131.339 820.676 Q131.339 813.546 129.51 810.004 Q127.705 806.439 124.07 806.439 M124.07 802.736 Q129.881 802.736 132.936 807.342 Q136.015 811.926 136.015 820.676 Q136.015 829.402 132.936 834.009 Q129.881 838.592 124.07 838.592 Q118.26 838.592 115.182 834.009 Q112.126 829.402 112.126 820.676 Q112.126 811.926 115.182 807.342 Q118.26 802.736 124.07 802.736 Z" fill="#000000" fill-rule="evenodd" fill-opacity="1" /><path clip-path="url(#clip780)" d="M64.3254 505.161 Q61.1773 505.161 59.3254 507.314 Q57.4967 509.467 57.4967 513.217 Q57.4967 516.944 59.3254 519.12 Q61.1773 521.272 64.3254 521.272 Q67.4735 521.272 69.3022 519.12 Q71.1541 516.944 71.1541 513.217 Q71.1541 509.467 69.3022 507.314 Q67.4735 505.161 64.3254 505.161 M73.6077 490.509 L73.6077 494.768 Q71.8485 493.934 70.0429 493.495 Q68.2606 493.055 66.5013 493.055 Q61.8717 493.055 59.418 496.18 Q56.9875 499.305 56.6402 505.624 Q58.006 503.61 60.0662 502.546 Q62.1263 501.458 64.6032 501.458 Q69.8115 501.458 72.8207 504.629 Q75.8531 507.777 75.8531 513.217 Q75.8531 518.541 72.705 521.758 Q69.5568 524.976 64.3254 524.976 Q58.33 524.976 55.1588 520.393 Q51.9875 515.786 51.9875 507.059 Q51.9875 498.865 55.8764 494.004 Q59.7652 489.12 66.3161 489.12 Q68.0754 489.12 69.8578 489.467 Q71.6633 489.814 73.6077 490.509 Z" fill="#000000" fill-rule="evenodd" fill-opacity="1" /><path clip-path="url(#clip780)" d="M93.9086 492.823 Q90.2975 492.823 88.4688 496.388 Q86.6632 499.93 86.6632 507.059 Q86.6632 514.166 88.4688 517.731 Q90.2975 521.272 93.9086 521.272 Q97.5428 521.272 99.3483 517.731 Q101.177 514.166 101.177 507.059 Q101.177 499.93 99.3483 496.388 Q97.5428 492.823 93.9086 492.823 M93.9086 489.12 Q99.7187 489.12 102.774 493.726 Q105.853 498.309 105.853 507.059 Q105.853 515.786 102.774 520.393 Q99.7187 524.976 93.9086 524.976 Q88.0984 524.976 85.0197 520.393 Q81.9642 515.786 81.9642 507.059 Q81.9642 498.309 85.0197 493.726 Q88.0984 489.12 93.9086 489.12 Z" fill="#000000" fill-rule="evenodd" fill-opacity="1" /><path clip-path="url(#clip780)" d="M124.07 492.823 Q120.459 492.823 118.631 496.388 Q116.825 499.93 116.825 507.059 Q116.825 514.166 118.631 517.731 Q120.459 521.272 124.07 521.272 Q127.705 521.272 129.51 517.731 Q131.339 514.166 131.339 507.059 Q131.339 499.93 129.51 496.388 Q127.705 492.823 124.07 492.823 M124.07 489.12 Q129.881 489.12 132.936 493.726 Q136.015 498.309 136.015 507.059 Q136.015 515.786 132.936 520.393 Q129.881 524.976 124.07 524.976 Q118.26 524.976 115.182 520.393 Q112.126 515.786 112.126 507.059 Q112.126 498.309 115.182 493.726 Q118.26 489.12 124.07 489.12 Z" fill="#000000" fill-rule="evenodd" fill-opacity="1" /><path clip-path="url(#clip780)" d="M63.7467 194.277 Q60.4134 194.277 58.4921 196.059 Q56.5939 197.841 56.5939 200.966 Q56.5939 204.091 58.4921 205.874 Q60.4134 207.656 63.7467 207.656 Q67.08 207.656 69.0013 205.874 Q70.9226 204.068 70.9226 200.966 Q70.9226 197.841 69.0013 196.059 Q67.1032 194.277 63.7467 194.277 M59.0708 192.286 Q56.0615 191.545 54.3717 189.485 Q52.7051 187.425 52.7051 184.462 Q52.7051 180.318 55.6449 177.911 Q58.6078 175.504 63.7467 175.504 Q68.9087 175.504 71.8485 177.911 Q74.7883 180.318 74.7883 184.462 Q74.7883 187.425 73.0985 189.485 Q71.4318 191.545 68.4457 192.286 Q71.8253 193.073 73.7003 195.365 Q75.5985 197.656 75.5985 200.966 Q75.5985 205.989 72.5198 208.675 Q69.4642 211.36 63.7467 211.36 Q58.0291 211.36 54.9504 208.675 Q51.8949 205.989 51.8949 200.966 Q51.8949 197.656 53.793 195.365 Q55.6912 193.073 59.0708 192.286 M57.3578 184.902 Q57.3578 187.587 59.0245 189.091 Q60.7143 190.596 63.7467 190.596 Q66.7559 190.596 68.4457 189.091 Q70.1587 187.587 70.1587 184.902 Q70.1587 182.216 68.4457 180.712 Q66.7559 179.207 63.7467 179.207 Q60.7143 179.207 59.0245 180.712 Q57.3578 182.216 57.3578 184.902 Z" fill="#000000" fill-rule="evenodd" fill-opacity="1" /><path clip-path="url(#clip780)" d="M93.9086 179.207 Q90.2975 179.207 88.4688 182.772 Q86.6632 186.314 86.6632 193.443 Q86.6632 200.55 88.4688 204.114 Q90.2975 207.656 93.9086 207.656 Q97.5428 207.656 99.3483 204.114 Q101.177 200.55 101.177 193.443 Q101.177 186.314 99.3483 182.772 Q97.5428 179.207 93.9086 179.207 M93.9086 175.504 Q99.7187 175.504 102.774 180.11 Q105.853 184.693 105.853 193.443 Q105.853 202.17 102.774 206.777 Q99.7187 211.36 93.9086 211.36 Q88.0984 211.36 85.0197 206.777 Q81.9642 202.17 81.9642 193.443 Q81.9642 184.693 85.0197 180.11 Q88.0984 175.504 93.9086 175.504 Z" fill="#000000" fill-rule="evenodd" fill-opacity="1" /><path clip-path="url(#clip780)" d="M124.07 179.207 Q120.459 179.207 118.631 182.772 Q116.825 186.314 116.825 193.443 Q116.825 200.55 118.631 204.114 Q120.459 207.656 124.07 207.656 Q127.705 207.656 129.51 204.114 Q131.339 200.55 131.339 193.443 Q131.339 186.314 129.51 182.772 Q127.705 179.207 124.07 179.207 M124.07 175.504 Q129.881 175.504 132.936 180.11 Q136.015 184.693 136.015 193.443 Q136.015 202.17 132.936 206.777 Q129.881 211.36 124.07 211.36 Q118.26 211.36 115.182 206.777 Q112.126 202.17 112.126 193.443 Q112.126 184.693 115.182 180.11 Q118.26 175.504 124.07 175.504 Z" fill="#000000" fill-rule="evenodd" fill-opacity="1" /><path clip-path="url(#clip780)" d="M631.092 18.8205 L631.092 65.8515 L640.977 65.8515 Q653.494 65.8515 659.287 60.1802 Q665.12 54.509 665.12 42.2752 Q665.12 30.1225 659.287 24.4918 Q653.494 18.8205 640.977 18.8205 L631.092 18.8205 M622.91 12.096 L639.721 12.096 Q657.302 12.096 665.525 19.4281 Q673.748 26.7198 673.748 42.2752 Q673.748 57.9117 665.485 65.2439 Q657.221 72.576 639.721 72.576 L622.91 72.576 L622.91 12.096 Z" fill="#000000" fill-rule="evenodd" fill-opacity="1" /><path clip-path="url(#clip780)" d="M707.087 49.7694 Q698.054 49.7694 694.57 51.8354 Q691.086 53.9013 691.086 58.8839 Q691.086 62.8538 693.679 65.2034 Q696.312 67.5124 700.809 67.5124 Q707.006 67.5124 710.733 63.1374 Q714.501 58.7219 714.501 51.4303 L714.501 49.7694 L707.087 49.7694 M721.954 46.6907 L721.954 72.576 L714.501 72.576 L714.501 65.6895 Q711.948 69.8214 708.141 71.8063 Q704.333 73.7508 698.824 73.7508 Q691.856 73.7508 687.724 69.8619 Q683.633 65.9325 683.633 59.3701 Q683.633 51.7138 688.737 47.825 Q693.881 43.9361 704.049 43.9361 L714.501 43.9361 L714.501 43.2069 Q714.501 38.0623 711.098 35.2672 Q707.736 32.4315 701.619 32.4315 Q697.73 32.4315 694.044 33.3632 Q690.357 34.295 686.954 36.1584 L686.954 29.2718 Q691.046 27.692 694.894 26.9223 Q698.743 26.1121 702.388 26.1121 Q712.232 26.1121 717.093 31.2163 Q721.954 36.3204 721.954 46.6907 Z" fill="#000000" fill-rule="evenodd" fill-opacity="1" /><path clip-path="url(#clip780)" d="M744.68 14.324 L744.68 27.2059 L760.033 27.2059 L760.033 32.9987 L744.68 32.9987 L744.68 57.6282 Q744.68 63.1779 746.179 64.7578 Q747.718 66.3376 752.377 66.3376 L760.033 66.3376 L760.033 72.576 L752.377 72.576 Q743.748 72.576 740.467 69.3758 Q737.186 66.1351 737.186 57.6282 L737.186 32.9987 L731.717 32.9987 L731.717 27.2059 L737.186 27.2059 L737.186 14.324 L744.68 14.324 Z" fill="#000000" fill-rule="evenodd" fill-opacity="1" /><path clip-path="url(#clip780)" d="M790.455 49.7694 Q781.422 49.7694 777.938 51.8354 Q774.454 53.9013 774.454 58.8839 Q774.454 62.8538 777.047 65.2034 Q779.68 67.5124 784.176 67.5124 Q790.374 67.5124 794.101 63.1374 Q797.868 58.7219 797.868 51.4303 L797.868 49.7694 L790.455 49.7694 M805.322 46.6907 L805.322 72.576 L797.868 72.576 L797.868 65.6895 Q795.316 69.8214 791.508 71.8063 Q787.7 73.7508 782.191 73.7508 Q775.224 73.7508 771.092 69.8619 Q767 65.9325 767 59.3701 Q767 51.7138 772.104 47.825 Q777.249 43.9361 787.417 43.9361 L797.868 43.9361 L797.868 43.2069 Q797.868 38.0623 794.465 35.2672 Q791.103 32.4315 784.986 32.4315 Q781.097 32.4315 777.411 33.3632 Q773.725 34.295 770.322 36.1584 L770.322 29.2718 Q774.413 27.692 778.262 26.9223 Q782.11 26.1121 785.756 26.1121 Q795.6 26.1121 800.461 31.2163 Q805.322 36.3204 805.322 46.6907 Z" fill="#000000" fill-rule="evenodd" fill-opacity="1" /><path clip-path="url(#clip780)" d="M867.665 49.7694 Q858.632 49.7694 855.148 51.8354 Q851.664 53.9013 851.664 58.8839 Q851.664 62.8538 854.257 65.2034 Q856.89 67.5124 861.386 67.5124 Q867.584 67.5124 871.311 63.1374 Q875.078 58.7219 875.078 51.4303 L875.078 49.7694 L867.665 49.7694 M882.532 46.6907 L882.532 72.576 L875.078 72.576 L875.078 65.6895 Q872.526 69.8214 868.718 71.8063 Q864.911 73.7508 859.401 73.7508 Q852.434 73.7508 848.302 69.8619 Q844.211 65.9325 844.211 59.3701 Q844.211 51.7138 849.315 47.825 Q854.459 43.9361 864.627 43.9361 L875.078 43.9361 L875.078 43.2069 Q875.078 38.0623 871.676 35.2672 Q868.313 32.4315 862.197 32.4315 Q858.308 32.4315 854.621 33.3632 Q850.935 34.295 847.532 36.1584 L847.532 29.2718 Q851.624 27.692 855.472 26.9223 Q859.32 26.1121 862.966 26.1121 Q872.81 26.1121 877.671 31.2163 Q882.532 36.3204 882.532 46.6907 Z" fill="#000000" fill-rule="evenodd" fill-opacity="1" /><path clip-path="url(#clip780)" d="M935.599 45.1919 L935.599 72.576 L928.145 72.576 L928.145 45.4349 Q928.145 38.994 925.634 35.7938 Q923.122 32.5936 918.099 32.5936 Q912.063 32.5936 908.579 36.4419 Q905.096 40.2903 905.096 46.9338 L905.096 72.576 L897.601 72.576 L897.601 27.2059 L905.096 27.2059 L905.096 34.2544 Q907.769 30.163 911.375 28.1376 Q915.02 26.1121 919.76 26.1121 Q927.578 26.1121 931.589 30.9732 Q935.599 35.7938 935.599 45.1919 Z" fill="#000000" fill-rule="evenodd" fill-opacity="1" /><path clip-path="url(#clip780)" d="M980.321 34.0924 L980.321 9.54393 L987.775 9.54393 L987.775 72.576 L980.321 72.576 L980.321 65.7705 Q977.971 69.8214 974.366 71.8063 Q970.801 73.7508 965.778 73.7508 Q957.555 73.7508 952.37 67.1883 Q947.225 60.6258 947.225 49.9314 Q947.225 39.2371 952.37 32.6746 Q957.555 26.1121 965.778 26.1121 Q970.801 26.1121 974.366 28.0971 Q977.971 30.0415 980.321 34.0924 M954.922 49.9314 Q954.922 58.1548 958.284 62.8538 Q961.687 67.5124 967.601 67.5124 Q973.515 67.5124 976.918 62.8538 Q980.321 58.1548 980.321 49.9314 Q980.321 41.7081 976.918 37.0496 Q973.515 32.3505 967.601 32.3505 Q961.687 32.3505 958.284 37.0496 Q954.922 41.7081 954.922 49.9314 Z" fill="#000000" fill-rule="evenodd" fill-opacity="1" /><path clip-path="url(#clip780)" d="M1021.44 12.096 L1072.6 12.096 L1072.6 18.9825 L1051.13 18.9825 L1051.13 72.576 L1042.91 72.576 L1042.91 18.9825 L1021.44 18.9825 L1021.44 12.096 Z" fill="#000000" fill-rule="evenodd" fill-opacity="1" /><path clip-path="url(#clip780)" d="M1094.27 34.1734 Q1093.02 33.4443 1091.52 33.1202 Q1090.06 32.7556 1088.28 32.7556 Q1081.96 32.7556 1078.56 36.8875 Q1075.19 40.9789 1075.19 48.6757 L1075.19 72.576 L1067.7 72.576 L1067.7 27.2059 L1075.19 27.2059 L1075.19 34.2544 Q1077.54 30.1225 1081.31 28.1376 Q1085.08 26.1121 1090.46 26.1121 Q1091.23 26.1121 1092.17 26.2337 Q1093.1 26.3147 1094.23 26.5172 L1094.27 34.1734 Z" fill="#000000" fill-rule="evenodd" fill-opacity="1" /><path clip-path="url(#clip780)" d="M1101.32 54.671 L1101.32 27.2059 L1108.78 27.2059 L1108.78 54.3874 Q1108.78 60.8284 1111.29 64.0691 Q1113.8 67.2693 1118.82 67.2693 Q1124.86 67.2693 1128.34 63.421 Q1131.87 59.5726 1131.87 52.9291 L1131.87 27.2059 L1139.32 27.2059 L1139.32 72.576 L1131.87 72.576 L1131.87 65.6084 Q1129.15 69.7404 1125.55 71.7658 Q1121.98 73.7508 1117.24 73.7508 Q1109.42 73.7508 1105.37 68.8897 Q1101.32 64.0286 1101.32 54.671 M1120.08 26.1121 L1120.08 26.1121 Z" fill="#000000" fill-rule="evenodd" fill-opacity="1" /><path clip-path="url(#clip780)" d="M1193.48 48.0275 L1193.48 51.6733 L1159.21 51.6733 Q1159.69 59.3701 1163.83 63.421 Q1168 67.4314 1175.41 67.4314 Q1179.71 67.4314 1183.72 66.3781 Q1187.77 65.3249 1191.74 63.2184 L1191.74 70.267 Q1187.73 71.9684 1183.51 72.8596 Q1179.3 73.7508 1174.97 73.7508 Q1164.11 73.7508 1157.75 67.4314 Q1151.43 61.1119 1151.43 50.3365 Q1151.43 39.1965 1157.43 32.6746 Q1163.46 26.1121 1173.67 26.1121 Q1182.83 26.1121 1188.13 32.0264 Q1193.48 37.9003 1193.48 48.0275 M1186.03 45.84 Q1185.94 39.7232 1182.58 36.0774 Q1179.26 32.4315 1173.75 32.4315 Q1167.51 32.4315 1163.75 35.9558 Q1160.02 39.4801 1159.45 45.8805 L1186.03 45.84 Z" fill="#000000" fill-rule="evenodd" fill-opacity="1" /><path clip-path="url(#clip780)" d="M1268.66 14.0809 L1268.66 22.0612 Q1264.01 19.8332 1259.87 18.7395 Q1255.74 17.6457 1251.89 17.6457 Q1245.21 17.6457 1241.56 20.2383 Q1237.96 22.8309 1237.96 27.611 Q1237.96 31.6214 1240.35 33.6873 Q1242.78 35.7128 1249.5 36.9686 L1254.45 37.9813 Q1263.6 39.7232 1267.94 44.1387 Q1272.31 48.5136 1272.31 55.8863 Q1272.31 64.6767 1266.4 69.2137 Q1260.52 73.7508 1249.14 73.7508 Q1244.84 73.7508 1239.98 72.7785 Q1235.16 71.8063 1229.98 69.9024 L1229.98 61.4765 Q1234.96 64.2716 1239.74 65.6895 Q1244.52 67.1073 1249.14 67.1073 Q1256.15 67.1073 1259.95 64.3527 Q1263.76 61.598 1263.76 56.4939 Q1263.76 52.0379 1261.01 49.5264 Q1258.29 47.0148 1252.06 45.759 L1247.07 44.7868 Q1237.92 42.9639 1233.83 39.075 Q1229.74 35.1862 1229.74 28.2591 Q1229.74 20.2383 1235.37 15.6203 Q1241.04 11.0023 1250.96 11.0023 Q1255.22 11.0023 1259.63 11.7719 Q1264.05 12.5416 1268.66 14.0809 Z" fill="#000000" fill-rule="evenodd" fill-opacity="1" /><path clip-path="url(#clip780)" d="M1292.12 14.324 L1292.12 27.2059 L1307.47 27.2059 L1307.47 32.9987 L1292.12 32.9987 L1292.12 57.6282 Q1292.12 63.1779 1293.62 64.7578 Q1295.16 66.3376 1299.82 66.3376 L1307.47 66.3376 L1307.47 72.576 L1299.82 72.576 Q1291.19 72.576 1287.91 69.3758 Q1284.62 66.1351 1284.62 57.6282 L1284.62 32.9987 L1279.16 32.9987 L1279.16 27.2059 L1284.62 27.2059 L1284.62 14.324 L1292.12 14.324 Z" fill="#000000" fill-rule="evenodd" fill-opacity="1" /><path clip-path="url(#clip780)" d="M1337.89 49.7694 Q1328.86 49.7694 1325.38 51.8354 Q1321.89 53.9013 1321.89 58.8839 Q1321.89 62.8538 1324.49 65.2034 Q1327.12 67.5124 1331.62 67.5124 Q1337.81 67.5124 1341.54 63.1374 Q1345.31 58.7219 1345.31 51.4303 L1345.31 49.7694 L1337.89 49.7694 M1352.76 46.6907 L1352.76 72.576 L1345.31 72.576 L1345.31 65.6895 Q1342.76 69.8214 1338.95 71.8063 Q1335.14 73.7508 1329.63 73.7508 Q1322.66 73.7508 1318.53 69.8619 Q1314.44 65.9325 1314.44 59.3701 Q1314.44 51.7138 1319.54 47.825 Q1324.69 43.9361 1334.86 43.9361 L1345.31 43.9361 L1345.31 43.2069 Q1345.31 38.0623 1341.9 35.2672 Q1338.54 32.4315 1332.43 32.4315 Q1328.54 32.4315 1324.85 33.3632 Q1321.16 34.295 1317.76 36.1584 L1317.76 29.2718 Q1321.85 27.692 1325.7 26.9223 Q1329.55 26.1121 1333.2 26.1121 Q1343.04 26.1121 1347.9 31.2163 Q1352.76 36.3204 1352.76 46.6907 Z" fill="#000000" fill-rule="evenodd" fill-opacity="1" /><path clip-path="url(#clip780)" d="M1375.49 14.324 L1375.49 27.2059 L1390.84 27.2059 L1390.84 32.9987 L1375.49 32.9987 L1375.49 57.6282 Q1375.49 63.1779 1376.99 64.7578 Q1378.52 66.3376 1383.18 66.3376 L1390.84 66.3376 L1390.84 72.576 L1383.18 72.576 Q1374.55 72.576 1371.27 69.3758 Q1367.99 66.1351 1367.99 57.6282 L1367.99 32.9987 L1362.52 32.9987 L1362.52 27.2059 L1367.99 27.2059 L1367.99 14.324 L1375.49 14.324 Z" fill="#000000" fill-rule="evenodd" fill-opacity="1" /><path clip-path="url(#clip780)" d="M1400.64 27.2059 L1408.1 27.2059 L1408.1 72.576 L1400.64 72.576 L1400.64 27.2059 M1400.64 9.54393 L1408.1 9.54393 L1408.1 18.9825 L1400.64 18.9825 L1400.64 9.54393 Z" fill="#000000" fill-rule="evenodd" fill-opacity="1" /><path clip-path="url(#clip780)" d="M1452.62 28.5427 L1452.62 35.5912 Q1449.46 33.9709 1446.05 33.1607 Q1442.65 32.3505 1439 32.3505 Q1433.46 32.3505 1430.66 34.0519 Q1427.91 35.7533 1427.91 39.156 Q1427.91 41.7486 1429.89 43.2475 Q1431.88 44.7058 1437.87 46.0426 L1440.42 46.6097 Q1448.36 48.3111 1451.68 51.4303 Q1455.05 54.509 1455.05 60.0587 Q1455.05 66.3781 1450.02 70.0644 Q1445.04 73.7508 1436.29 73.7508 Q1432.64 73.7508 1428.67 73.0216 Q1424.75 72.3329 1420.37 70.9151 L1420.37 63.2184 Q1424.5 65.3654 1428.51 66.4591 Q1432.52 67.5124 1436.45 67.5124 Q1441.72 67.5124 1444.55 65.73 Q1447.39 63.9071 1447.39 60.6258 Q1447.39 57.5877 1445.32 55.9673 Q1443.3 54.3469 1436.37 52.8481 L1433.78 52.2405 Q1426.85 50.7821 1423.77 47.7845 Q1420.69 44.7463 1420.69 39.4801 Q1420.69 33.0797 1425.23 29.5959 Q1429.77 26.1121 1438.11 26.1121 Q1442.25 26.1121 1445.89 26.7198 Q1449.54 27.3274 1452.62 28.5427 Z" fill="#000000" fill-rule="evenodd" fill-opacity="1" /><path clip-path="url(#clip780)" d="M1474.29 14.324 L1474.29 27.2059 L1489.64 27.2059 L1489.64 32.9987 L1474.29 32.9987 L1474.29 57.6282 Q1474.29 63.1779 1475.79 64.7578 Q1477.33 66.3376 1481.98 66.3376 L1489.64 66.3376 L1489.64 72.576 L1481.98 72.576 Q1473.36 72.576 1470.08 69.3758 Q1466.79 66.1351 1466.79 57.6282 L1466.79 32.9987 L1461.33 32.9987 L1461.33 27.2059 L1466.79 27.2059 L1466.79 14.324 L1474.29 14.324 Z" fill="#000000" fill-rule="evenodd" fill-opacity="1" /><path clip-path="url(#clip780)" d="M1499.44 27.2059 L1506.9 27.2059 L1506.9 72.576 L1499.44 72.576 L1499.44 27.2059 M1499.44 9.54393 L1506.9 9.54393 L1506.9 18.9825 L1499.44 18.9825 L1499.44 9.54393 Z" fill="#000000" fill-rule="evenodd" fill-opacity="1" /><path clip-path="url(#clip780)" d="M1555.14 28.9478 L1555.14 35.9153 Q1551.98 34.1734 1548.78 33.3227 Q1545.62 32.4315 1542.38 32.4315 Q1535.13 32.4315 1531.12 37.0496 Q1527.11 41.6271 1527.11 49.9314 Q1527.11 58.2358 1531.12 62.8538 Q1535.13 67.4314 1542.38 67.4314 Q1545.62 67.4314 1548.78 66.5807 Q1551.98 65.6895 1555.14 63.9476 L1555.14 70.8341 Q1552.03 72.2924 1548.66 73.0216 Q1545.34 73.7508 1541.57 73.7508 Q1531.32 73.7508 1525.29 67.3098 Q1519.25 60.8689 1519.25 49.9314 Q1519.25 38.832 1525.33 32.472 Q1531.45 26.1121 1542.06 26.1121 Q1545.5 26.1121 1548.78 26.8413 Q1552.07 27.5299 1555.14 28.9478 Z" fill="#000000" fill-rule="evenodd" fill-opacity="1" /><path clip-path="url(#clip780)" d="M1588.73 49.7694 Q1579.69 49.7694 1576.21 51.8354 Q1572.73 53.9013 1572.73 58.8839 Q1572.73 62.8538 1575.32 65.2034 Q1577.95 67.5124 1582.45 67.5124 Q1588.65 67.5124 1592.37 63.1374 Q1596.14 58.7219 1596.14 51.4303 L1596.14 49.7694 L1588.73 49.7694 M1603.59 46.6907 L1603.59 72.576 L1596.14 72.576 L1596.14 65.6895 Q1593.59 69.8214 1589.78 71.8063 Q1585.97 73.7508 1580.46 73.7508 Q1573.49 73.7508 1569.36 69.8619 Q1565.27 65.9325 1565.27 59.3701 Q1565.27 51.7138 1570.38 47.825 Q1575.52 43.9361 1585.69 43.9361 L1596.14 43.9361 L1596.14 43.2069 Q1596.14 38.0623 1592.74 35.2672 Q1589.37 32.4315 1583.26 32.4315 Q1579.37 32.4315 1575.68 33.3632 Q1572 34.295 1568.59 36.1584 L1568.59 29.2718 Q1572.68 27.692 1576.53 26.9223 Q1580.38 26.1121 1584.03 26.1121 Q1593.87 26.1121 1598.73 31.2163 Q1603.59 36.3204 1603.59 46.6907 Z" fill="#000000" fill-rule="evenodd" fill-opacity="1" /><path clip-path="url(#clip780)" d="M1618.95 9.54393 L1626.4 9.54393 L1626.4 72.576 L1618.95 72.576 L1618.95 9.54393 Z" fill="#000000" fill-rule="evenodd" fill-opacity="1" /><path clip-path="url(#clip780)" d="M1668.69 12.096 L1680.88 12.096 L1696.32 53.2532 L1711.83 12.096 L1724.03 12.096 L1724.03 72.576 L1716.05 72.576 L1716.05 19.4686 L1700.45 60.9499 L1692.23 60.9499 L1676.63 19.4686 L1676.63 72.576 L1668.69 72.576 L1668.69 12.096 Z" fill="#000000" fill-rule="evenodd" fill-opacity="1" /><path clip-path="url(#clip780)" d="M1757.53 32.4315 Q1751.53 32.4315 1748.05 37.1306 Q1744.56 41.7891 1744.56 49.9314 Q1744.56 58.0738 1748.01 62.7728 Q1751.49 67.4314 1757.53 67.4314 Q1763.48 67.4314 1766.97 62.7323 Q1770.45 58.0333 1770.45 49.9314 Q1770.45 41.8701 1766.97 37.1711 Q1763.48 32.4315 1757.53 32.4315 M1757.53 26.1121 Q1767.25 26.1121 1772.8 32.4315 Q1778.35 38.7509 1778.35 49.9314 Q1778.35 61.0714 1772.8 67.4314 Q1767.25 73.7508 1757.53 73.7508 Q1747.76 73.7508 1742.21 67.4314 Q1736.71 61.0714 1736.71 49.9314 Q1736.71 38.7509 1742.21 32.4315 Q1747.76 26.1121 1757.53 26.1121 Z" fill="#000000" fill-rule="evenodd" fill-opacity="1" /><path clip-path="url(#clip780)" d="M1820.56 34.0924 L1820.56 9.54393 L1828.01 9.54393 L1828.01 72.576 L1820.56 72.576 L1820.56 65.7705 Q1818.21 69.8214 1814.6 71.8063 Q1811.04 73.7508 1806.02 73.7508 Q1797.79 73.7508 1792.61 67.1883 Q1787.46 60.6258 1787.46 49.9314 Q1787.46 39.2371 1792.61 32.6746 Q1797.79 26.1121 1806.02 26.1121 Q1811.04 26.1121 1814.6 28.0971 Q1818.21 30.0415 1820.56 34.0924 M1795.16 49.9314 Q1795.16 58.1548 1798.52 62.8538 Q1801.93 67.5124 1807.84 67.5124 Q1813.75 67.5124 1817.16 62.8538 Q1820.56 58.1548 1820.56 49.9314 Q1820.56 41.7081 1817.16 37.0496 Q1813.75 32.3505 1807.84 32.3505 Q1801.93 32.3505 1798.52 37.0496 Q1795.16 41.7081 1795.16 49.9314 Z" fill="#000000" fill-rule="evenodd" fill-opacity="1" /><path clip-path="url(#clip780)" d="M1882.17 48.0275 L1882.17 51.6733 L1847.9 51.6733 Q1848.39 59.3701 1852.52 63.421 Q1856.69 67.4314 1864.11 67.4314 Q1868.4 67.4314 1872.41 66.3781 Q1876.46 65.3249 1880.43 63.2184 L1880.43 70.267 Q1876.42 71.9684 1872.21 72.8596 Q1868 73.7508 1863.66 73.7508 Q1852.8 73.7508 1846.44 67.4314 Q1840.13 61.1119 1840.13 50.3365 Q1840.13 39.1965 1846.12 32.6746 Q1852.16 26.1121 1862.36 26.1121 Q1871.52 26.1121 1876.83 32.0264 Q1882.17 37.9003 1882.17 48.0275 M1874.72 45.84 Q1874.64 39.7232 1871.28 36.0774 Q1867.96 32.4315 1862.45 32.4315 Q1856.21 32.4315 1852.44 35.9558 Q1848.71 39.4801 1848.15 45.8805 L1874.72 45.84 Z" fill="#000000" fill-rule="evenodd" fill-opacity="1" /><path clip-path="url(#clip780)" d="M1894.41 9.54393 L1901.86 9.54393 L1901.86 72.576 L1894.41 72.576 L1894.41 9.54393 Z" fill="#000000" fill-rule="evenodd" fill-opacity="1" /><polyline clip-path="url(#clip782)" style="stroke:#009af9; stroke-linecap:butt; stroke-linejoin:round; stroke-width:4; stroke-opacity:1; fill:none" points="
  748.06,1447.87 748.06,1369.47 773.776,1369.47 799.492,1369.47 799.492,1275.38 825.208,1275.38 825.208,1102.9 850.925,1102.9 
  876.641,1102.9 876.641,836.322 902.357,836.322 902.357,1055.85 928.074,1055.85 928.074,914.726 953.79,914.726 953.79,852.002 979.506,852.002 979.506,1055.85 
  1005.22,1055.85 1005.22,852.002 1030.94,852.002 1030.94,789.279 1056.66,789.279 1056.66,773.598 1082.37,773.598 1082.37,946.087 1108.09,946.087 1108.09,1040.17 
  1133.8,1040.17 1133.8,1087.21 1159.52,1087.21 1159.52,1149.94 1185.24,1149.94 1185.24,1134.26 1210.95,1134.26 1210.95,1259.7 1236.67,1259.7 1236.67,1369.47 
  1262.39,1369.47 1288.1,1369.47 1288.1,1447.87 1313.82,1447.87 1313.82,1432.19 1339.53,1432.19 1339.53,1447.87 1365.25,1447.87 1365.25,1416.51 
  1390.97,1416.51 1390.97,1400.83 1416.68,1400.83 1416.68,1447.87 1442.4,1447.87 1442.4,1416.51 1468.12,1416.51 1493.83,1416.51 1493.83,1212.66 
  1519.55,1212.66 1519.55,1181.3 1545.26,1181.3 1545.26,1134.26 1570.98,1134.26 1570.98,930.406 1596.7,930.406 1596.7,993.13 1622.41,993.13 1622.41,804.96 
  1648.13,804.96 1648.13,601.11 1673.85,601.11 1673.85,350.217 1699.56,350.217 1699.56,287.493 1725.28,287.493 1725.28,177.728 1750.99,177.728 1750.99,162.047 
  1776.71,162.047 1776.71,397.259 1802.43,397.259 1802.43,209.089 1828.14,209.089 1828.14,444.301 1853.86,444.301 1853.86,538.386 1879.58,538.386 1879.58,757.918 
  1905.29,757.918 1905.29,695.194 1931.01,695.194 1931.01,899.045 1956.73,899.045 1956.73,1008.81 1982.44,1008.81 1982.44,1181.3 2008.16,1181.3 2008.16,1275.38 
  2033.87,1275.38 2033.87,1291.07 2059.59,1291.07 2059.59,1385.15 2085.31,1385.15 2085.31,1416.51 2111.02,1416.51 2111.02,1400.83 2136.74,1400.83 
  2162.46,1400.83 2162.46,1432.19 2188.17,1432.19 2213.89,1432.19 2213.89,1447.87 2239.6,1447.87 2265.32,1447.87 
  2291.04,1447.87 
  "/>
<polyline clip-path="url(#clip782)" style="stroke:#e26f46; stroke-linecap:butt; stroke-linejoin:round; stroke-width:4; stroke-opacity:1; fill:none" points="
  233.734,1447.87 236.306,1447.87 238.877,1447.87 241.449,1447.87 244.02,1447.87 246.592,1447.87 249.164,1447.87 251.735,1447.87 254.307,1447.87 256.879,1447.87 
  259.45,1447.87 262.022,1447.87 264.593,1447.87 267.165,1447.87 269.737,1447.87 272.308,1447.87 274.88,1447.87 277.452,1447.87 280.023,1447.87 282.595,1447.87 
  285.166,1447.87 287.738,1447.87 290.31,1447.87 292.881,1447.87 295.453,1447.87 298.025,1447.87 300.596,1447.87 303.168,1447.87 305.74,1447.87 308.311,1447.87 
  310.883,1447.87 313.454,1447.87 316.026,1447.87 318.598,1447.87 321.169,1447.87 323.741,1447.87 326.313,1447.87 328.884,1447.87 331.456,1447.87 334.027,1447.87 
  336.599,1447.87 339.171,1447.87 341.742,1447.87 344.314,1447.87 346.886,1447.87 349.457,1447.87 352.029,1447.87 354.6,1447.87 357.172,1447.87 359.744,1447.87 
  362.315,1447.87 364.887,1447.87 367.459,1447.87 370.03,1447.87 372.602,1447.87 375.173,1447.87 377.745,1447.87 380.317,1447.87 382.888,1447.87 385.46,1447.87 
  388.032,1447.87 390.603,1447.87 393.175,1447.87 395.747,1447.86 398.318,1447.86 400.89,1447.86 403.461,1447.86 406.033,1447.86 408.605,1447.86 411.176,1447.86 
  413.748,1447.86 416.32,1447.86 418.891,1447.85 421.463,1447.85 424.034,1447.85 426.606,1447.85 429.178,1447.85 431.749,1447.84 434.321,1447.84 436.893,1447.84 
  439.464,1447.83 442.036,1447.83 444.607,1447.83 447.179,1447.82 449.751,1447.82 452.322,1447.81 454.894,1447.81 457.466,1447.8 460.037,1447.8 462.609,1447.79 
  465.18,1447.78 467.752,1447.77 470.324,1447.76 472.895,1447.75 475.467,1447.74 478.039,1447.73 480.61,1447.72 483.182,1447.71 485.754,1447.69 488.325,1447.68 
  490.897,1447.66 493.468,1447.65 496.04,1447.63 498.612,1447.61 501.183,1447.59 503.755,1447.56 506.327,1447.54 508.898,1447.51 511.47,1447.48 514.041,1447.45 
  516.613,1447.42 519.185,1447.38 521.756,1447.34 524.328,1447.3 526.9,1447.25 529.471,1447.21 532.043,1447.16 534.614,1447.1 537.186,1447.04 539.758,1446.98 
  542.329,1446.91 544.901,1446.84 547.473,1446.77 550.044,1446.68 552.616,1446.6 555.187,1446.5 557.759,1446.41 560.331,1446.3 562.902,1446.19 565.474,1446.07 
  568.046,1445.94 570.617,1445.81 573.189,1445.66 575.761,1445.51 578.332,1445.34 580.904,1445.17 583.475,1444.99 586.047,1444.79 588.619,1444.59 591.19,1444.37 
  593.762,1444.13 596.334,1443.89 598.905,1443.63 601.477,1443.35 604.048,1443.06 606.62,1442.75 609.192,1442.42 611.763,1442.08 614.335,1441.71 616.907,1441.33 
  619.478,1440.92 622.05,1440.5 624.621,1440.04 627.193,1439.57 629.765,1439.07 632.336,1438.54 634.908,1437.98 637.48,1437.4 640.051,1436.79 642.623,1436.14 
  645.194,1435.46 647.766,1434.75 650.338,1434 652.909,1433.22 655.481,1432.39 658.053,1431.53 660.624,1430.63 663.196,1429.68 665.768,1428.69 668.339,1427.66 
  670.911,1426.57 673.482,1425.44 676.054,1424.26 678.626,1423.02 681.197,1421.73 683.769,1420.39 686.341,1418.98 688.912,1417.52 691.484,1416 694.055,1414.41 
  696.627,1412.76 699.199,1411.04 701.77,1409.25 704.342,1407.39 706.914,1405.46 709.485,1403.45 712.057,1401.37 714.628,1399.21 717.2,1396.97 719.772,1394.65 
  722.343,1392.25 724.915,1389.76 727.487,1387.18 730.058,1384.51 732.63,1381.75 735.201,1378.9 737.773,1375.96 740.345,1372.92 742.916,1369.78 745.488,1366.55 
  748.06,1363.21 750.631,1359.77 753.203,1356.23 755.775,1352.59 758.346,1348.84 760.918,1344.98 763.489,1341.02 766.061,1336.95 768.633,1332.77 771.204,1328.47 
  773.776,1324.07 776.348,1319.56 778.919,1314.94 781.491,1310.2 784.062,1305.35 786.634,1300.4 789.206,1295.33 791.777,1290.15 794.349,1284.85 796.921,1279.45 
  799.492,1273.94 802.064,1268.32 804.635,1262.59 807.207,1256.76 809.779,1250.82 812.35,1244.78 814.922,1238.64 817.494,1232.39 820.065,1226.05 822.637,1219.62 
  825.208,1213.09 827.78,1206.47 830.352,1199.76 832.923,1192.97 835.495,1186.1 838.067,1179.15 840.638,1172.13 843.21,1165.04 845.782,1157.88 848.353,1150.65 
  850.925,1143.37 853.496,1136.04 856.068,1128.66 858.64,1121.23 861.211,1113.76 863.783,1106.26 866.355,1098.73 868.926,1091.18 871.498,1083.61 874.069,1076.03 
  876.641,1068.44 879.213,1060.86 881.784,1053.27 884.356,1045.71 886.928,1038.16 889.499,1030.63 892.071,1023.14 894.642,1015.68 897.214,1008.27 899.786,1000.91 
  902.357,993.613 904.929,986.379 907.501,979.217 910.072,972.134 912.644,965.137 915.215,958.234 917.787,951.43 920.359,944.733 922.93,938.149 925.502,931.686 
  928.074,925.35 930.645,919.148 933.217,913.086 935.789,907.171 938.36,901.409 940.932,895.806 943.503,890.369 946.075,885.104 948.647,880.016 951.218,875.112 
  953.79,870.396 956.362,865.874 958.933,861.551 961.505,857.432 964.076,853.523 966.648,849.826 969.22,846.347 971.791,843.09 974.363,840.059 976.935,837.257 
  979.506,834.687 982.078,832.352 984.649,830.256 987.221,828.4 989.793,826.787 992.364,825.419 994.936,824.298 997.508,823.424 1000.08,822.8 1002.65,822.424 
  1005.22,822.299 1007.79,822.424 1010.37,822.8 1012.94,823.424 1015.51,824.298 1018.08,825.419 1020.65,826.787 1023.22,828.4 1025.8,830.256 1028.37,832.352 
  1030.94,834.687 1033.51,837.256 1036.08,840.059 1038.65,843.09 1041.23,846.347 1043.8,849.826 1046.37,853.523 1048.94,857.432 1051.51,861.551 1054.08,865.874 
  1056.66,870.396 1059.23,875.112 1061.8,880.016 1064.37,885.104 1066.94,890.369 1069.51,895.806 1072.08,901.408 1074.66,907.17 1077.23,913.085 1079.8,919.147 
  1082.37,925.349 1084.94,931.685 1087.51,938.149 1090.09,944.732 1092.66,951.429 1095.23,958.233 1097.8,965.136 1100.37,972.133 1102.94,979.216 1105.52,986.378 
  1108.09,993.612 1110.66,1000.91 1113.23,1008.27 1115.8,1015.68 1118.37,1023.13 1120.95,1030.63 1123.52,1038.15 1126.09,1045.7 1128.66,1053.27 1131.23,1060.85 
  1133.8,1068.44 1136.38,1076.03 1138.95,1083.61 1141.52,1091.18 1144.09,1098.73 1146.66,1106.26 1149.23,1113.76 1151.81,1121.22 1154.38,1128.65 1156.95,1136.03 
  1159.52,1143.36 1162.09,1150.64 1164.66,1157.86 1167.24,1165.02 1169.81,1172.11 1172.38,1179.13 1174.95,1186.08 1177.52,1192.95 1180.09,1199.74 1182.66,1206.44 
  1185.24,1213.06 1187.81,1219.58 1190.38,1226.01 1192.95,1232.35 1195.52,1238.59 1198.09,1244.73 1200.67,1250.77 1203.24,1256.7 1205.81,1262.53 1208.38,1268.25 
  1210.95,1273.86 1213.52,1279.37 1216.1,1284.76 1218.67,1290.04 1221.24,1295.22 1223.81,1300.28 1226.38,1305.22 1228.95,1310.06 1231.53,1314.78 1234.1,1319.39 
  1236.67,1323.89 1239.24,1328.27 1241.81,1332.55 1244.38,1336.71 1246.96,1340.76 1249.53,1344.7 1252.1,1348.53 1254.67,1352.26 1257.24,1355.88 1259.81,1359.39 
  1262.39,1362.79 1264.96,1366.09 1267.53,1369.29 1270.1,1372.39 1272.67,1375.38 1275.24,1378.28 1277.82,1381.08 1280.39,1383.78 1282.96,1386.39 1285.53,1388.91 
  1288.1,1391.33 1290.67,1393.66 1293.24,1395.91 1295.82,1398.06 1298.39,1400.14 1300.96,1402.12 1303.53,1404.03 1306.1,1405.85 1308.67,1407.59 1311.25,1409.25 
  1313.82,1410.84 1316.39,1412.35 1318.96,1413.78 1321.53,1415.14 1324.1,1416.43 1326.68,1417.65 1329.25,1418.8 1331.82,1419.88 1334.39,1420.89 1336.96,1421.83 
  1339.53,1422.71 1342.11,1423.52 1344.68,1424.27 1347.25,1424.95 1349.82,1425.57 1352.39,1426.13 1354.96,1426.62 1357.54,1427.06 1360.11,1427.43 1362.68,1427.74 
  1365.25,1427.98 1367.82,1428.17 1370.39,1428.29 1372.97,1428.36 1375.54,1428.36 1378.11,1428.29 1380.68,1428.17 1383.25,1427.98 1385.82,1427.73 1388.4,1427.41 
  1390.97,1427.02 1393.54,1426.57 1396.11,1426.06 1398.68,1425.47 1401.25,1424.81 1403.82,1424.08 1406.4,1423.28 1408.97,1422.4 1411.54,1421.45 1414.11,1420.42 
  1416.68,1419.31 1419.25,1418.12 1421.83,1416.84 1424.4,1415.48 1426.97,1414.03 1429.54,1412.49 1432.11,1410.86 1434.68,1409.13 1437.26,1407.3 1439.83,1405.37 
  1442.4,1403.34 1444.97,1401.21 1447.54,1398.96 1450.11,1396.6 1452.69,1394.13 1455.26,1391.53 1457.83,1388.82 1460.4,1385.98 1462.97,1383.01 1465.54,1379.91 
  1468.12,1376.68 1470.69,1373.31 1473.26,1369.8 1475.83,1366.14 1478.4,1362.33 1480.97,1358.37 1483.55,1354.25 1486.12,1349.98 1488.69,1345.54 1491.26,1340.94 
  1493.83,1336.16 1496.4,1331.21 1498.98,1326.09 1501.55,1320.78 1504.12,1315.3 1506.69,1309.62 1509.26,1303.76 1511.83,1297.7 1514.4,1291.45 1516.98,1284.99 
  1519.55,1278.34 1522.12,1271.48 1524.69,1264.41 1527.26,1257.14 1529.83,1249.65 1532.41,1241.95 1534.98,1234.03 1537.55,1225.9 1540.12,1217.55 1542.69,1208.97 
  1545.26,1200.18 1547.84,1191.16 1550.41,1181.92 1552.98,1172.46 1555.55,1162.77 1558.12,1152.86 1560.69,1142.72 1563.27,1132.37 1565.84,1121.79 1568.41,1110.99 
  1570.98,1099.97 1573.55,1088.73 1576.12,1077.28 1578.7,1065.62 1581.27,1053.74 1583.84,1041.66 1586.41,1029.38 1588.98,1016.89 1591.55,1004.21 1594.13,991.343 
  1596.7,978.288 1599.27,965.052 1601.84,951.641 1604.41,938.062 1606.98,924.321 1609.56,910.424 1612.13,896.378 1614.7,882.192 1617.27,867.872 1619.84,853.428 
  1622.41,838.868 1624.99,824.201 1627.56,809.435 1630.13,794.582 1632.7,779.65 1635.27,764.65 1637.84,749.592 1640.41,734.488 1642.99,719.349 1645.56,704.186 
  1648.13,689.012 1650.7,673.837 1653.27,658.674 1655.84,643.536 1658.42,628.436 1660.99,613.385 1663.56,598.399 1666.13,583.489 1668.7,568.669 1671.27,553.952 
  1673.85,539.353 1676.42,524.884 1678.99,510.56 1681.56,496.395 1684.13,482.401 1686.7,468.594 1689.28,454.986 1691.85,441.592 1694.42,428.425 1696.99,415.499 
  1699.56,402.827 1702.13,390.422 1704.71,378.298 1707.28,366.468 1709.85,354.944 1712.42,343.739 1714.99,332.866 1717.56,322.335 1720.14,312.16 1722.71,302.35 
  1725.28,292.918 1727.85,283.875 1730.42,275.229 1732.99,266.992 1735.57,259.172 1738.14,251.779 1740.71,244.822 1743.28,238.308 1745.85,232.245 1748.42,226.64 
  1750.99,221.5 1753.57,216.831 1756.14,212.638 1758.71,208.927 1761.28,205.702 1763.85,202.966 1766.42,200.723 1769,198.976 1771.57,197.726 1774.14,196.976 
  1776.71,196.726 1779.28,196.976 1781.85,197.726 1784.43,198.976 1787,200.723 1789.57,202.966 1792.14,205.702 1794.71,208.927 1797.28,212.638 1799.86,216.831 
  1802.43,221.5 1805,226.64 1807.57,232.245 1810.14,238.308 1812.71,244.822 1815.29,251.779 1817.86,259.172 1820.43,266.992 1823,275.229 1825.57,283.875 
  1828.14,292.918 1830.72,302.35 1833.29,312.16 1835.86,322.335 1838.43,332.866 1841,343.739 1843.57,354.944 1846.15,366.468 1848.72,378.298 1851.29,390.422 
  1853.86,402.827 1856.43,415.499 1859,428.425 1861.57,441.592 1864.15,454.987 1866.72,468.594 1869.29,482.402 1871.86,496.395 1874.43,510.561 1877,524.885 
  1879.58,539.354 1882.15,553.953 1884.72,568.67 1887.29,583.49 1889.86,598.4 1892.43,613.387 1895.01,628.437 1897.58,643.538 1900.15,658.676 1902.72,673.839 
  1905.29,689.014 1907.86,704.189 1910.44,719.352 1913.01,734.492 1915.58,749.596 1918.15,764.653 1920.72,779.654 1923.29,794.586 1925.87,809.44 1928.44,824.206 
  1931.01,838.874 1933.58,853.435 1936.15,867.88 1938.72,882.2 1941.3,896.387 1943.87,910.434 1946.44,924.332 1949.01,938.074 1951.58,951.655 1954.15,965.066 
  1956.73,978.304 1959.3,991.36 1961.87,1004.23 1964.44,1016.91 1967.01,1029.4 1969.58,1041.69 1972.15,1053.77 1974.73,1065.65 1977.3,1077.31 1979.87,1088.77 
  1982.44,1100.01 1985.01,1111.03 1987.58,1121.83 1990.16,1132.42 1992.73,1142.78 1995.3,1152.92 1997.87,1162.84 2000.44,1172.53 2003.01,1182 2005.59,1191.25 
  2008.16,1200.27 2010.73,1209.08 2013.3,1217.66 2015.87,1226.02 2018.44,1234.16 2021.02,1242.09 2023.59,1249.8 2026.16,1257.3 2028.73,1264.59 2031.3,1271.67 
  2033.87,1278.55 2036.45,1285.22 2039.02,1291.69 2041.59,1297.97 2044.16,1304.05 2046.73,1309.93 2049.3,1315.63 2051.88,1321.15 2054.45,1326.48 2057.02,1331.64 
  2059.59,1336.62 2062.16,1341.43 2064.73,1346.07 2067.31,1350.55 2069.88,1354.87 2072.45,1359.03 2075.02,1363.05 2077.59,1366.91 2080.16,1370.63 2082.73,1374.2 
  2085.31,1377.64 2087.88,1380.95 2090.45,1384.12 2093.02,1387.17 2095.59,1390.09 2098.16,1392.9 2100.74,1395.59 2103.31,1398.17 2105.88,1400.64 2108.45,1403.01 
  2111.02,1405.27 2113.59,1407.44 2116.17,1409.51 2118.74,1411.49 2121.31,1413.38 2123.88,1415.19 2126.45,1416.92 2129.02,1418.56 2131.6,1420.13 2134.17,1421.62 
  2136.74,1423.05 2139.31,1424.41 2141.88,1425.7 2144.45,1426.93 2147.03,1428.09 2149.6,1429.2 2152.17,1430.26 2154.74,1431.26 2157.31,1432.21 2159.88,1433.12 
  2162.46,1433.97 2165.03,1434.79 2167.6,1435.56 2170.17,1436.28 2172.74,1436.97 2175.31,1437.63 2177.89,1438.25 2180.46,1438.83 2183.03,1439.38 2185.6,1439.9 
  2188.17,1440.4 2190.74,1440.86 2193.31,1441.3 2195.89,1441.71 2198.46,1442.1 2201.03,1442.47 2203.6,1442.82 2206.17,1443.14 2208.74,1443.45 2211.32,1443.74 
  2213.89,1444.01 2216.46,1444.26 2219.03,1444.5 2221.6,1444.73 2224.17,1444.94 2226.75,1445.14 2229.32,1445.32 2231.89,1445.5 2234.46,1445.66 2237.03,1445.81 
  2239.6,1445.95 2242.18,1446.09 2244.75,1446.21 2247.32,1446.33 2249.89,1446.44 2252.46,1446.54 2255.03,1446.64 2257.61,1446.73 2260.18,1446.81 2262.75,1446.89 
  2265.32,1446.96 2267.89,1447.02 2270.46,1447.09 2273.04,1447.15 2275.61,1447.2 2278.18,1447.25 2280.75,1447.3 2283.32,1447.34 2285.89,1447.38 2288.47,1447.42 
  2291.04,1447.45 
  "/>
<path clip-path="url(#clip780)" d="
M1921.49 350.345 L2280.06 350.345 L2280.06 168.905 L1921.49 168.905  Z
  " fill="#ffffff" fill-rule="evenodd" fill-opacity="1"/>
<polyline clip-path="url(#clip780)" style="stroke:#000000; stroke-linecap:butt; stroke-linejoin:round; stroke-width:4; stroke-opacity:1; fill:none" points="
  1921.49,350.345 2280.06,350.345 2280.06,168.905 1921.49,168.905 1921.49,350.345 
  "/>
<polyline clip-path="url(#clip780)" style="stroke:#009af9; stroke-linecap:butt; stroke-linejoin:round; stroke-width:4; stroke-opacity:1; fill:none" points="
  1945.72,229.385 2091.1,229.385 
  "/>
<path clip-path="url(#clip780)" d="M2120.01 215.947 L2120.01 242.822 L2125.66 242.822 Q2132.81 242.822 2136.12 239.581 Q2139.45 236.341 2139.45 229.35 Q2139.45 222.406 2136.12 219.188 Q2132.81 215.947 2125.66 215.947 L2120.01 215.947 M2115.33 212.105 L2124.94 212.105 Q2134.98 212.105 2139.68 216.294 Q2144.38 220.461 2144.38 229.35 Q2144.38 238.285 2139.66 242.475 Q2134.94 246.665 2124.94 246.665 L2115.33 246.665 L2115.33 212.105 Z" fill="#000000" fill-rule="evenodd" fill-opacity="1" /><path clip-path="url(#clip780)" d="M2163.43 233.632 Q2158.27 233.632 2156.28 234.813 Q2154.29 235.993 2154.29 238.841 Q2154.29 241.109 2155.77 242.452 Q2157.28 243.771 2159.84 243.771 Q2163.39 243.771 2165.52 241.271 Q2167.67 238.748 2167.67 234.581 L2167.67 233.632 L2163.43 233.632 M2171.93 231.873 L2171.93 246.665 L2167.67 246.665 L2167.67 242.729 Q2166.21 245.091 2164.03 246.225 Q2161.86 247.336 2158.71 247.336 Q2154.73 247.336 2152.37 245.114 Q2150.03 242.868 2150.03 239.118 Q2150.03 234.743 2152.95 232.521 Q2155.89 230.299 2161.7 230.299 L2167.67 230.299 L2167.67 229.882 Q2167.67 226.943 2165.72 225.345 Q2163.8 223.725 2160.31 223.725 Q2158.09 223.725 2155.98 224.257 Q2153.87 224.79 2151.93 225.855 L2151.93 221.919 Q2154.27 221.017 2156.47 220.577 Q2158.66 220.114 2160.75 220.114 Q2166.37 220.114 2169.15 223.031 Q2171.93 225.947 2171.93 231.873 Z" fill="#000000" fill-rule="evenodd" fill-opacity="1" /><path clip-path="url(#clip780)" d="M2184.91 213.378 L2184.91 220.739 L2193.69 220.739 L2193.69 224.049 L2184.91 224.049 L2184.91 238.123 Q2184.91 241.294 2185.77 242.197 Q2186.65 243.1 2189.31 243.1 L2193.69 243.1 L2193.69 246.665 L2189.31 246.665 Q2184.38 246.665 2182.51 244.836 Q2180.63 242.984 2180.63 238.123 L2180.63 224.049 L2177.51 224.049 L2177.51 220.739 L2180.63 220.739 L2180.63 213.378 L2184.91 213.378 Z" fill="#000000" fill-rule="evenodd" fill-opacity="1" /><path clip-path="url(#clip780)" d="M2211.07 233.632 Q2205.91 233.632 2203.92 234.813 Q2201.93 235.993 2201.93 238.841 Q2201.93 241.109 2203.41 242.452 Q2204.91 243.771 2207.48 243.771 Q2211.03 243.771 2213.15 241.271 Q2215.31 238.748 2215.31 234.581 L2215.31 233.632 L2211.07 233.632 M2219.57 231.873 L2219.57 246.665 L2215.31 246.665 L2215.31 242.729 Q2213.85 245.091 2211.67 246.225 Q2209.5 247.336 2206.35 247.336 Q2202.37 247.336 2200.01 245.114 Q2197.67 242.868 2197.67 239.118 Q2197.67 234.743 2200.59 232.521 Q2203.53 230.299 2209.34 230.299 L2215.31 230.299 L2215.31 229.882 Q2215.31 226.943 2213.36 225.345 Q2211.44 223.725 2207.95 223.725 Q2205.72 223.725 2203.62 224.257 Q2201.51 224.79 2199.57 225.855 L2199.57 221.919 Q2201.9 221.017 2204.1 220.577 Q2206.3 220.114 2208.39 220.114 Q2214.01 220.114 2216.79 223.031 Q2219.57 225.947 2219.57 231.873 Z" fill="#000000" fill-rule="evenodd" fill-opacity="1" /><polyline clip-path="url(#clip780)" style="stroke:#e26f46; stroke-linecap:butt; stroke-linejoin:round; stroke-width:4; stroke-opacity:1; fill:none" points="
  1945.72,289.865 2091.1,289.865 
  "/>
<path clip-path="url(#clip780)" d="M2115.33 272.585 L2144.57 272.585 L2144.57 276.52 L2132.3 276.52 L2132.3 307.145 L2127.6 307.145 L2127.6 276.52 L2115.33 276.52 L2115.33 272.585 Z" fill="#000000" fill-rule="evenodd" fill-opacity="1" /><path clip-path="url(#clip780)" d="M2156.95 285.2 Q2156.23 284.784 2155.38 284.598 Q2154.54 284.39 2153.53 284.39 Q2149.91 284.39 2147.97 286.751 Q2146.05 289.089 2146.05 293.487 L2146.05 307.145 L2141.77 307.145 L2141.77 281.219 L2146.05 281.219 L2146.05 285.247 Q2147.39 282.886 2149.54 281.751 Q2151.7 280.594 2154.78 280.594 Q2155.22 280.594 2155.75 280.663 Q2156.28 280.71 2156.93 280.825 L2156.95 285.2 Z" fill="#000000" fill-rule="evenodd" fill-opacity="1" /><path clip-path="url(#clip780)" d="M2160.98 296.913 L2160.98 281.219 L2165.24 281.219 L2165.24 296.751 Q2165.24 300.432 2166.67 302.284 Q2168.11 304.112 2170.98 304.112 Q2174.43 304.112 2176.42 301.913 Q2178.43 299.714 2178.43 295.918 L2178.43 281.219 L2182.69 281.219 L2182.69 307.145 L2178.43 307.145 L2178.43 303.163 Q2176.88 305.524 2174.82 306.682 Q2172.78 307.816 2170.08 307.816 Q2165.61 307.816 2163.29 305.038 Q2160.98 302.26 2160.98 296.913 M2171.7 280.594 L2171.7 280.594 Z" fill="#000000" fill-rule="evenodd" fill-opacity="1" /><path clip-path="url(#clip780)" d="M2195.68 273.858 L2195.68 281.219 L2204.45 281.219 L2204.45 284.529 L2195.68 284.529 L2195.68 298.603 Q2195.68 301.774 2196.53 302.677 Q2197.41 303.58 2200.08 303.58 L2204.45 303.58 L2204.45 307.145 L2200.08 307.145 Q2195.15 307.145 2193.27 305.316 Q2191.4 303.464 2191.4 298.603 L2191.4 284.529 L2188.27 284.529 L2188.27 281.219 L2191.4 281.219 L2191.4 273.858 L2195.68 273.858 Z" fill="#000000" fill-rule="evenodd" fill-opacity="1" /><path clip-path="url(#clip780)" d="M2231.6 291.497 L2231.6 307.145 L2227.34 307.145 L2227.34 291.635 Q2227.34 287.955 2225.91 286.126 Q2224.47 284.298 2221.6 284.298 Q2218.15 284.298 2216.16 286.497 Q2214.17 288.696 2214.17 292.492 L2214.17 307.145 L2209.89 307.145 L2209.89 271.126 L2214.17 271.126 L2214.17 285.247 Q2215.7 282.909 2217.76 281.751 Q2219.84 280.594 2222.55 280.594 Q2227.02 280.594 2229.31 283.372 Q2231.6 286.126 2231.6 291.497 Z" fill="#000000" fill-rule="evenodd" fill-opacity="1" /></svg>
