<?xml version="1.0" encoding="utf-8"?>
<svg xmlns="http://www.w3.org/2000/svg" xmlns:xlink="http://www.w3.org/1999/xlink" width="600" height="400" viewBox="0 0 2400 1600">
<defs>
  <clipPath id="clip750">
    <rect x="0" y="0" width="2400" height="1600"/>
  </clipPath>
</defs>
<path clip-path="url(#clip750)" d="
M0 1600 L2400 1600 L2400 0 L0 0  Z
  " fill="#ffffff" fill-rule="evenodd" fill-opacity="1"/>
<defs>
  <clipPath id="clip751">
    <rect x="480" y="0" width="1681" height="1600"/>
  </clipPath>
</defs>
<path clip-path="url(#clip750)" d="
M172.015 1486.45 L2352.76 1486.45 L2352.76 123.472 L172.015 123.472  Z
  " fill="#ffffff" fill-rule="evenodd" fill-opacity="1"/>
<defs>
  <clipPath id="clip752">
    <rect x="172" y="123" width="2182" height="1364"/>
  </clipPath>
</defs>
<polyline clip-path="url(#clip752)" style="stroke:#000000; stroke-linecap:butt; stroke-linejoin:round; stroke-width:2; stroke-opacity:0.1; fill:none" points="
  233.734,1486.45 233.734,123.472 
  "/>
<polyline clip-path="url(#clip752)" style="stroke:#000000; stroke-linecap:butt; stroke-linejoin:round; stroke-width:2; stroke-opacity:0.1; fill:none" points="
  576.618,1486.45 576.618,123.472 
  "/>
<polyline clip-path="url(#clip752)" style="stroke:#000000; stroke-linecap:butt; stroke-linejoin:round; stroke-width:2; stroke-opacity:0.1; fill:none" points="
  919.502,1486.45 919.502,123.472 
  "/>
<polyline clip-path="url(#clip752)" style="stroke:#000000; stroke-linecap:butt; stroke-linejoin:round; stroke-width:2; stroke-opacity:0.1; fill:none" points="
  1262.39,1486.45 1262.39,123.472 
  "/>
<polyline clip-path="url(#clip752)" style="stroke:#000000; stroke-linecap:butt; stroke-linejoin:round; stroke-width:2; stroke-opacity:0.1; fill:none" points="
  1605.27,1486.45 1605.27,123.472 
  "/>
<polyline clip-path="url(#clip752)" style="stroke:#000000; stroke-linecap:butt; stroke-linejoin:round; stroke-width:2; stroke-opacity:0.1; fill:none" points="
  1948.15,1486.45 1948.15,123.472 
  "/>
<polyline clip-path="url(#clip752)" style="stroke:#000000; stroke-linecap:butt; stroke-linejoin:round; stroke-width:2; stroke-opacity:0.1; fill:none" points="
  2291.04,1486.45 2291.04,123.472 
  "/>
<polyline clip-path="url(#clip750)" style="stroke:#000000; stroke-linecap:butt; stroke-linejoin:round; stroke-width:4; stroke-opacity:1; fill:none" points="
  172.015,1486.45 2352.76,1486.45 
  "/>
<polyline clip-path="url(#clip750)" style="stroke:#000000; stroke-linecap:butt; stroke-linejoin:round; stroke-width:4; stroke-opacity:1; fill:none" points="
  233.734,1486.45 233.734,1470.09 
  "/>
<polyline clip-path="url(#clip750)" style="stroke:#000000; stroke-linecap:butt; stroke-linejoin:round; stroke-width:4; stroke-opacity:1; fill:none" points="
  576.618,1486.45 576.618,1470.09 
  "/>
<polyline clip-path="url(#clip750)" style="stroke:#000000; stroke-linecap:butt; stroke-linejoin:round; stroke-width:4; stroke-opacity:1; fill:none" points="
  919.502,1486.45 919.502,1470.09 
  "/>
<polyline clip-path="url(#clip750)" style="stroke:#000000; stroke-linecap:butt; stroke-linejoin:round; stroke-width:4; stroke-opacity:1; fill:none" points="
  1262.39,1486.45 1262.39,1470.09 
  "/>
<polyline clip-path="url(#clip750)" style="stroke:#000000; stroke-linecap:butt; stroke-linejoin:round; stroke-width:4; stroke-opacity:1; fill:none" points="
  1605.27,1486.45 1605.27,1470.09 
  "/>
<polyline clip-path="url(#clip750)" style="stroke:#000000; stroke-linecap:butt; stroke-linejoin:round; stroke-width:4; stroke-opacity:1; fill:none" points="
  1948.15,1486.45 1948.15,1470.09 
  "/>
<polyline clip-path="url(#clip750)" style="stroke:#000000; stroke-linecap:butt; stroke-linejoin:round; stroke-width:4; stroke-opacity:1; fill:none" points="
  2291.04,1486.45 2291.04,1470.09 
  "/>
<path clip-path="url(#clip750)" d="M203.676 1530.29 L233.352 1530.29 L233.352 1534.23 L203.676 1534.23 L203.676 1530.29 Z" fill="#000000" fill-rule="evenodd" fill-opacity="1" /><path clip-path="url(#clip750)" d="M247.472 1543.18 L263.792 1543.18 L263.792 1547.12 L241.847 1547.12 L241.847 1543.18 Q244.509 1540.43 249.093 1535.8 Q253.699 1531.15 254.88 1529.81 Q257.125 1527.28 258.005 1525.55 Q258.907 1523.79 258.907 1522.1 Q258.907 1519.34 256.963 1517.61 Q255.042 1515.87 251.94 1515.87 Q249.741 1515.87 247.287 1516.63 Q244.857 1517.4 242.079 1518.95 L242.079 1514.23 Q244.903 1513.09 247.357 1512.51 Q249.81 1511.93 251.847 1511.93 Q257.218 1511.93 260.412 1514.62 Q263.606 1517.31 263.606 1521.8 Q263.606 1523.93 262.796 1525.85 Q262.009 1527.74 259.903 1530.34 Q259.324 1531.01 256.222 1534.23 Q253.12 1537.42 247.472 1543.18 Z" fill="#000000" fill-rule="evenodd" fill-opacity="1" /><path clip-path="url(#clip750)" d="M546.375 1530.29 L576.051 1530.29 L576.051 1534.23 L546.375 1534.23 L546.375 1530.29 Z" fill="#000000" fill-rule="evenodd" fill-opacity="1" /><path clip-path="url(#clip750)" d="M586.953 1543.18 L594.592 1543.18 L594.592 1516.82 L586.282 1518.49 L586.282 1514.23 L594.546 1512.56 L599.222 1512.56 L599.222 1543.18 L606.861 1543.18 L606.861 1547.12 L586.953 1547.12 L586.953 1543.18 Z" fill="#000000" fill-rule="evenodd" fill-opacity="1" /><path clip-path="url(#clip750)" d="M919.502 1515.64 Q915.89 1515.64 914.062 1519.2 Q912.256 1522.75 912.256 1529.87 Q912.256 1536.98 914.062 1540.55 Q915.89 1544.09 919.502 1544.09 Q923.136 1544.09 924.941 1540.55 Q926.77 1536.98 926.77 1529.87 Q926.77 1522.75 924.941 1519.2 Q923.136 1515.64 919.502 1515.64 M919.502 1511.93 Q925.312 1511.93 928.367 1516.54 Q931.446 1521.12 931.446 1529.87 Q931.446 1538.6 928.367 1543.21 Q925.312 1547.79 919.502 1547.79 Q913.691 1547.79 910.613 1543.21 Q907.557 1538.6 907.557 1529.87 Q907.557 1521.12 910.613 1516.54 Q913.691 1511.93 919.502 1511.93 Z" fill="#000000" fill-rule="evenodd" fill-opacity="1" /><path clip-path="url(#clip750)" d="M1252.77 1543.18 L1260.41 1543.18 L1260.41 1516.82 L1252.1 1518.49 L1252.1 1514.23 L1260.36 1512.56 L1265.04 1512.56 L1265.04 1543.18 L1272.67 1543.18 L1272.67 1547.12 L1252.77 1547.12 L1252.77 1543.18 Z" fill="#000000" fill-rule="evenodd" fill-opacity="1" /><path clip-path="url(#clip750)" d="M1599.92 1543.18 L1616.24 1543.18 L1616.24 1547.12 L1594.3 1547.12 L1594.3 1543.18 Q1596.96 1540.43 1601.54 1535.8 Q1606.15 1531.15 1607.33 1529.81 Q1609.57 1527.28 1610.45 1525.55 Q1611.36 1523.79 1611.36 1522.1 Q1611.36 1519.34 1609.41 1517.61 Q1607.49 1515.87 1604.39 1515.87 Q1602.19 1515.87 1599.74 1516.63 Q1597.31 1517.4 1594.53 1518.95 L1594.53 1514.23 Q1597.35 1513.09 1599.81 1512.51 Q1602.26 1511.93 1604.3 1511.93 Q1609.67 1511.93 1612.86 1514.62 Q1616.06 1517.31 1616.06 1521.8 Q1616.06 1523.93 1615.25 1525.85 Q1614.46 1527.74 1612.35 1530.34 Q1611.77 1531.01 1608.67 1534.23 Q1605.57 1537.42 1599.92 1543.18 Z" fill="#000000" fill-rule="evenodd" fill-opacity="1" /><path clip-path="url(#clip750)" d="M1952.4 1528.49 Q1955.76 1529.2 1957.63 1531.47 Q1959.53 1533.74 1959.53 1537.07 Q1959.53 1542.19 1956.01 1544.99 Q1952.49 1547.79 1946.01 1547.79 Q1943.84 1547.79 1941.52 1547.35 Q1939.23 1546.93 1936.78 1546.08 L1936.78 1541.56 Q1938.72 1542.7 1941.03 1543.28 Q1943.35 1543.86 1945.87 1543.86 Q1950.27 1543.86 1952.56 1542.12 Q1954.88 1540.38 1954.88 1537.07 Q1954.88 1534.02 1952.72 1532.31 Q1950.6 1530.57 1946.78 1530.57 L1942.75 1530.57 L1942.75 1526.73 L1946.96 1526.73 Q1950.41 1526.73 1952.24 1525.36 Q1954.07 1523.97 1954.07 1521.38 Q1954.07 1518.72 1952.17 1517.31 Q1950.29 1515.87 1946.78 1515.87 Q1944.85 1515.87 1942.66 1516.29 Q1940.46 1516.7 1937.82 1517.58 L1937.82 1513.42 Q1940.48 1512.68 1942.79 1512.31 Q1945.13 1511.93 1947.19 1511.93 Q1952.52 1511.93 1955.62 1514.37 Q1958.72 1516.77 1958.72 1520.89 Q1958.72 1523.76 1957.08 1525.75 Q1955.43 1527.72 1952.4 1528.49 Z" fill="#000000" fill-rule="evenodd" fill-opacity="1" /><path clip-path="url(#clip750)" d="M2294.05 1516.63 L2282.24 1535.08 L2294.05 1535.08 L2294.05 1516.63 M2292.82 1512.56 L2298.7 1512.56 L2298.7 1535.08 L2303.63 1535.08 L2303.63 1538.97 L2298.7 1538.97 L2298.7 1547.12 L2294.05 1547.12 L2294.05 1538.97 L2278.44 1538.97 L2278.44 1534.46 L2292.82 1512.56 Z" fill="#000000" fill-rule="evenodd" fill-opacity="1" /><polyline clip-path="url(#clip752)" style="stroke:#000000; stroke-linecap:butt; stroke-linejoin:round; stroke-width:2; stroke-opacity:0.1; fill:none" points="
  172.015,1447.87 2352.76,1447.87 
  "/>
<polyline clip-path="url(#clip752)" style="stroke:#000000; stroke-linecap:butt; stroke-linejoin:round; stroke-width:2; stroke-opacity:0.1; fill:none" points="
  172.015,1134.26 2352.76,1134.26 
  "/>
<polyline clip-path="url(#clip752)" style="stroke:#000000; stroke-linecap:butt; stroke-linejoin:round; stroke-width:2; stroke-opacity:0.1; fill:none" points="
  172.015,820.641 2352.76,820.641 
  "/>
<polyline clip-path="url(#clip752)" style="stroke:#000000; stroke-linecap:butt; stroke-linejoin:round; stroke-width:2; stroke-opacity:0.1; fill:none" points="
  172.015,507.025 2352.76,507.025 
  "/>
<polyline clip-path="url(#clip752)" style="stroke:#000000; stroke-linecap:butt; stroke-linejoin:round; stroke-width:2; stroke-opacity:0.1; fill:none" points="
  172.015,193.409 2352.76,193.409 
  "/>
<polyline clip-path="url(#clip750)" style="stroke:#000000; stroke-linecap:butt; stroke-linejoin:round; stroke-width:4; stroke-opacity:1; fill:none" points="
  172.015,1486.45 172.015,123.472 
  "/>
<polyline clip-path="url(#clip750)" style="stroke:#000000; stroke-linecap:butt; stroke-linejoin:round; stroke-width:4; stroke-opacity:1; fill:none" points="
  172.015,1447.87 198.184,1447.87 
  "/>
<polyline clip-path="url(#clip750)" style="stroke:#000000; stroke-linecap:butt; stroke-linejoin:round; stroke-width:4; stroke-opacity:1; fill:none" points="
  172.015,1134.26 198.184,1134.26 
  "/>
<polyline clip-path="url(#clip750)" style="stroke:#000000; stroke-linecap:butt; stroke-linejoin:round; stroke-width:4; stroke-opacity:1; fill:none" points="
  172.015,820.641 198.184,820.641 
  "/>
<polyline clip-path="url(#clip750)" style="stroke:#000000; stroke-linecap:butt; stroke-linejoin:round; stroke-width:4; stroke-opacity:1; fill:none" points="
  172.015,507.025 198.184,507.025 
  "/>
<polyline clip-path="url(#clip750)" style="stroke:#000000; stroke-linecap:butt; stroke-linejoin:round; stroke-width:4; stroke-opacity:1; fill:none" points="
  172.015,193.409 198.184,193.409 
  "/>
<path clip-path="url(#clip750)" d="M124.07 1433.67 Q120.459 1433.67 118.631 1437.24 Q116.825 1440.78 116.825 1447.91 Q116.825 1455.01 118.631 1458.58 Q120.459 1462.12 124.07 1462.12 Q127.705 1462.12 129.51 1458.58 Q131.339 1455.01 131.339 1447.91 Q131.339 1440.78 129.51 1437.24 Q127.705 1433.67 124.07 1433.67 M124.07 1429.97 Q129.881 1429.97 132.936 1434.57 Q136.015 1439.16 136.015 1447.91 Q136.015 1456.63 132.936 1461.24 Q129.881 1465.82 124.07 1465.82 Q118.26 1465.82 115.182 1461.24 Q112.126 1456.63 112.126 1447.91 Q112.126 1439.16 115.182 1434.57 Q118.26 1429.97 124.07 1429.97 Z" fill="#000000" fill-rule="evenodd" fill-opacity="1" /><path clip-path="url(#clip750)" d="M57.7745 1147.6 L74.0939 1147.6 L74.0939 1151.54 L52.1495 1151.54 L52.1495 1147.6 Q54.8115 1144.85 59.3949 1140.22 Q64.0013 1135.56 65.1819 1134.22 Q67.4272 1131.7 68.3068 1129.96 Q69.2096 1128.2 69.2096 1126.51 Q69.2096 1123.76 67.2652 1122.02 Q65.3439 1120.29 62.2421 1120.29 Q60.043 1120.29 57.5893 1121.05 Q55.1588 1121.81 52.381 1123.37 L52.381 1118.64 Q55.2051 1117.51 57.6588 1116.93 Q60.1124 1116.35 62.1495 1116.35 Q67.5198 1116.35 70.7142 1119.04 Q73.9087 1121.72 73.9087 1126.21 Q73.9087 1128.34 73.0985 1130.26 Q72.3115 1132.16 70.205 1134.75 Q69.6263 1135.43 66.5245 1138.64 Q63.4226 1141.84 57.7745 1147.6 Z" fill="#000000" fill-rule="evenodd" fill-opacity="1" /><path clip-path="url(#clip750)" d="M93.9086 1120.06 Q90.2975 1120.06 88.4688 1123.62 Q86.6632 1127.16 86.6632 1134.29 Q86.6632 1141.4 88.4688 1144.96 Q90.2975 1148.5 93.9086 1148.5 Q97.5428 1148.5 99.3483 1144.96 Q101.177 1141.4 101.177 1134.29 Q101.177 1127.16 99.3483 1123.62 Q97.5428 1120.06 93.9086 1120.06 M93.9086 1116.35 Q99.7187 1116.35 102.774 1120.96 Q105.853 1125.54 105.853 1134.29 Q105.853 1143.02 102.774 1147.62 Q99.7187 1152.21 93.9086 1152.21 Q88.0984 1152.21 85.0197 1147.62 Q81.9642 1143.02 81.9642 1134.29 Q81.9642 1125.54 85.0197 1120.96 Q88.0984 1116.35 93.9086 1116.35 Z" fill="#000000" fill-rule="evenodd" fill-opacity="1" /><path clip-path="url(#clip750)" d="M124.07 1120.06 Q120.459 1120.06 118.631 1123.62 Q116.825 1127.16 116.825 1134.29 Q116.825 1141.4 118.631 1144.96 Q120.459 1148.5 124.07 1148.5 Q127.705 1148.5 129.51 1144.96 Q131.339 1141.4 131.339 1134.29 Q131.339 1127.16 129.51 1123.62 Q127.705 1120.06 124.07 1120.06 M124.07 1116.35 Q129.881 1116.35 132.936 1120.96 Q136.015 1125.54 136.015 1134.29 Q136.015 1143.02 132.936 1147.62 Q129.881 1152.21 124.07 1152.21 Q118.26 1152.21 115.182 1147.62 Q112.126 1143.02 112.126 1134.29 Q112.126 1125.54 115.182 1120.96 Q118.26 1116.35 124.07 1116.35 Z" fill="#000000" fill-rule="evenodd" fill-opacity="1" /><path clip-path="url(#clip750)" d="M66.5939 807.435 L54.7884 825.884 L66.5939 825.884 L66.5939 807.435 M65.367 803.361 L71.2466 803.361 L71.2466 825.884 L76.1772 825.884 L76.1772 829.773 L71.2466 829.773 L71.2466 837.921 L66.5939 837.921 L66.5939 829.773 L50.9921 829.773 L50.9921 825.259 L65.367 803.361 Z" fill="#000000" fill-rule="evenodd" fill-opacity="1" /><path clip-path="url(#clip750)" d="M93.9086 806.439 Q90.2975 806.439 88.4688 810.004 Q86.6632 813.546 86.6632 820.676 Q86.6632 827.782 88.4688 831.347 Q90.2975 834.888 93.9086 834.888 Q97.5428 834.888 99.3483 831.347 Q101.177 827.782 101.177 820.676 Q101.177 813.546 99.3483 810.004 Q97.5428 806.439 93.9086 806.439 M93.9086 802.736 Q99.7187 802.736 102.774 807.342 Q105.853 811.926 105.853 820.676 Q105.853 829.402 102.774 834.009 Q99.7187 838.592 93.9086 838.592 Q88.0984 838.592 85.0197 834.009 Q81.9642 829.402 81.9642 820.676 Q81.9642 811.926 85.0197 807.342 Q88.0984 802.736 93.9086 802.736 Z" fill="#000000" fill-rule="evenodd" fill-opacity="1" /><path clip-path="url(#clip750)" d="M124.07 806.439 Q120.459 806.439 118.631 810.004 Q116.825 813.546 116.825 820.676 Q116.825 827.782 118.631 831.347 Q120.459 834.888 124.07 834.888 Q127.705 834.888 129.51 831.347 Q131.339 827.782 131.339 820.676 Q131.339 813.546 129.51 810.004 Q127.705 806.439 124.07 806.439 M124.07 802.736 Q129.881 802.736 132.936 807.342 Q136.015 811.926 136.015 820.676 Q136.015 829.402 132.936 834.009 Q129.881 838.592 124.07 838.592 Q118.26 838.592 115.182 834.009 Q112.126 829.402 112.126 820.676 Q112.126 811.926 115.182 807.342 Q118.26 802.736 124.07 802.736 Z" fill="#000000" fill-rule="evenodd" fill-opacity="1" /><path clip-path="url(#clip750)" d="M64.3254 505.161 Q61.1773 505.161 59.3254 507.314 Q57.4967 509.467 57.4967 513.217 Q57.4967 516.944 59.3254 519.12 Q61.1773 521.272 64.3254 521.272 Q67.4735 521.272 69.3022 519.12 Q71.1541 516.944 71.1541 513.217 Q71.1541 509.467 69.3022 507.314 Q67.4735 505.161 64.3254 505.161 M73.6077 490.509 L73.6077 494.768 Q71.8485 493.934 70.0429 493.495 Q68.2606 493.055 66.5013 493.055 Q61.8717 493.055 59.418 496.18 Q56.9875 499.305 56.6402 505.624 Q58.006 503.61 60.0662 502.546 Q62.1263 501.458 64.6032 501.458 Q69.8115 501.458 72.8207 504.629 Q75.8531 507.777 75.8531 513.217 Q75.8531 518.541 72.705 521.758 Q69.5568 524.976 64.3254 524.976 Q58.33 524.976 55.1588 520.393 Q51.9875 515.786 51.9875 507.059 Q51.9875 498.865 55.8764 494.004 Q59.7652 489.12 66.3161 489.12 Q68.0754 489.12 69.8578 489.467 Q71.6633 489.814 73.6077 490.509 Z" fill="#000000" fill-rule="evenodd" fill-opacity="1" /><path clip-path="url(#clip750)" d="M93.9086 492.823 Q90.2975 492.823 88.4688 496.388 Q86.6632 499.93 86.6632 507.059 Q86.6632 514.166 88.4688 517.731 Q90.2975 521.272 93.9086 521.272 Q97.5428 521.272 99.3483 517.731 Q101.177 514.166 101.177 507.059 Q101.177 499.93 99.3483 496.388 Q97.5428 492.823 93.9086 492.823 M93.9086 489.12 Q99.7187 489.12 102.774 493.726 Q105.853 498.309 105.853 507.059 Q105.853 515.786 102.774 520.393 Q99.7187 524.976 93.9086 524.976 Q88.0984 524.976 85.0197 520.393 Q81.9642 515.786 81.9642 507.059 Q81.9642 498.309 85.0197 493.726 Q88.0984 489.12 93.9086 489.12 Z" fill="#000000" fill-rule="evenodd" fill-opacity="1" /><path clip-path="url(#clip750)" d="M124.07 492.823 Q120.459 492.823 118.631 496.388 Q116.825 499.93 116.825 507.059 Q116.825 514.166 118.631 517.731 Q120.459 521.272 124.07 521.272 Q127.705 521.272 129.51 517.731 Q131.339 514.166 131.339 507.059 Q131.339 499.93 129.51 496.388 Q127.705 492.823 124.07 492.823 M124.07 489.12 Q129.881 489.12 132.936 493.726 Q136.015 498.309 136.015 507.059 Q136.015 515.786 132.936 520.393 Q129.881 524.976 124.07 524.976 Q118.26 524.976 115.182 520.393 Q112.126 515.786 112.126 507.059 Q112.126 498.309 115.182 493.726 Q118.26 489.12 124.07 489.12 Z" fill="#000000" fill-rule="evenodd" fill-opacity="1" /><path clip-path="url(#clip750)" d="M63.7467 194.277 Q60.4134 194.277 58.4921 196.059 Q56.5939 197.841 56.5939 200.966 Q56.5939 204.091 58.4921 205.874 Q60.4134 207.656 63.7467 207.656 Q67.08 207.656 69.0013 205.874 Q70.9226 204.068 70.9226 200.966 Q70.9226 197.841 69.0013 196.059 Q67.1032 194.277 63.7467 194.277 M59.0708 192.286 Q56.0615 191.545 54.3717 189.485 Q52.7051 187.425 52.7051 184.462 Q52.7051 180.318 55.6449 177.911 Q58.6078 175.504 63.7467 175.504 Q68.9087 175.504 71.8485 177.911 Q74.7883 180.318 74.7883 184.462 Q74.7883 187.425 73.0985 189.485 Q71.4318 191.545 68.4457 192.286 Q71.8253 193.073 73.7003 195.365 Q75.5985 197.656 75.5985 200.966 Q75.5985 205.989 72.5198 208.675 Q69.4642 211.36 63.7467 211.36 Q58.0291 211.36 54.9504 208.675 Q51.8949 205.989 51.8949 200.966 Q51.8949 197.656 53.793 195.365 Q55.6912 193.073 59.0708 192.286 M57.3578 184.902 Q57.3578 187.587 59.0245 189.091 Q60.7143 190.596 63.7467 190.596 Q66.7559 190.596 68.4457 189.091 Q70.1587 187.587 70.1587 184.902 Q70.1587 182.216 68.4457 180.712 Q66.7559 179.207 63.7467 179.207 Q60.7143 179.207 59.0245 180.712 Q57.3578 182.216 57.3578 184.902 Z" fill="#000000" fill-rule="evenodd" fill-opacity="1" /><path clip-path="url(#clip750)" d="M93.9086 179.207 Q90.2975 179.207 88.4688 182.772 Q86.6632 186.314 86.6632 193.443 Q86.6632 200.55 88.4688 204.114 Q90.2975 207.656 93.9086 207.656 Q97.5428 207.656 99.3483 204.114 Q101.177 200.55 101.177 193.443 Q101.177 186.314 99.3483 182.772 Q97.5428 179.207 93.9086 179.207 M93.9086 175.504 Q99.7187 175.504 102.774 180.11 Q105.853 184.693 105.853 193.443 Q105.853 202.17 102.774 206.777 Q99.7187 211.36 93.9086 211.36 Q88.0984 211.36 85.0197 206.777 Q81.9642 202.17 81.9642 193.443 Q81.9642 184.693 85.0197 180.11 Q88.0984 175.504 93.9086 175.504 Z" fill="#000000" fill-rule="evenodd" fill-opacity="1" /><path clip-path="url(#clip750)" d="M124.07 179.207 Q120.459 179.207 118.631 182.772 Q116.825 186.314 116.825 193.443 Q116.825 200.55 118.631 204.114 Q120.459 207.656 124.07 207.656 Q127.705 207.656 129.51 204.114 Q131.339 200.55 131.339 193.443 Q131.339 186.314 129.51 182.772 Q127.705 179.207 124.07 179.207 M124.07 175.504 Q129.881 175.504 132.936 180.11 Q136.015 184.693 136.015 193.443 Q136.015 202.17 132.936 206.777 Q129.881 211.36 124.07 211.36 Q118.26 211.36 115.182 206.777 Q112.126 202.17 112.126 193.443 Q112.126 184.693 115.182 180.11 Q118.26 175.504 124.07 175.504 Z" fill="#000000" fill-rule="evenodd" fill-opacity="1" /><path clip-path="url(#clip750)" d="M1179.36 18.8205 L1179.36 65.8515 L1189.25 65.8515 Q1201.76 65.8515 1207.56 60.1802 Q1213.39 54.509 1213.39 42.2752 Q1213.39 30.1225 1207.56 24.4918 Q1201.76 18.8205 1189.25 18.8205 L1179.36 18.8205 M1171.18 12.096 L1187.99 12.096 Q1205.57 12.096 1213.79 19.4281 Q1222.02 26.7198 1222.02 42.2752 Q1222.02 57.9117 1213.75 65.2439 Q1205.49 72.576 1187.99 72.576 L1171.18 72.576 L1171.18 12.096 Z" fill="#000000" fill-rule="evenodd" fill-opacity="1" /><path clip-path="url(#clip750)" d="M1255.36 49.7694 Q1246.32 49.7694 1242.84 51.8354 Q1239.36 53.9013 1239.36 58.8839 Q1239.36 62.8538 1241.95 65.2034 Q1244.58 67.5124 1249.08 67.5124 Q1255.28 67.5124 1259 63.1374 Q1262.77 58.7219 1262.77 51.4303 L1262.77 49.7694 L1255.36 49.7694 M1270.22 46.6907 L1270.22 72.576 L1262.77 72.576 L1262.77 65.6895 Q1260.22 69.8214 1256.41 71.8063 Q1252.6 73.7508 1247.09 73.7508 Q1240.13 73.7508 1235.99 69.8619 Q1231.9 65.9325 1231.9 59.3701 Q1231.9 51.7138 1237.01 47.825 Q1242.15 43.9361 1252.32 43.9361 L1262.77 43.9361 L1262.77 43.2069 Q1262.77 38.0623 1259.37 35.2672 Q1256.01 32.4315 1249.89 32.4315 Q1246 32.4315 1242.31 33.3632 Q1238.63 34.295 1235.22 36.1584 L1235.22 29.2718 Q1239.32 27.692 1243.16 26.9223 Q1247.01 26.1121 1250.66 26.1121 Q1260.5 26.1121 1265.36 31.2163 Q1270.22 36.3204 1270.22 46.6907 Z" fill="#000000" fill-rule="evenodd" fill-opacity="1" /><path clip-path="url(#clip750)" d="M1292.95 14.324 L1292.95 27.2059 L1308.3 27.2059 L1308.3 32.9987 L1292.95 32.9987 L1292.95 57.6282 Q1292.95 63.1779 1294.45 64.7578 Q1295.99 66.3376 1300.65 66.3376 L1308.3 66.3376 L1308.3 72.576 L1300.65 72.576 Q1292.02 72.576 1288.74 69.3758 Q1285.46 66.1351 1285.46 57.6282 L1285.46 32.9987 L1279.99 32.9987 L1279.99 27.2059 L1285.46 27.2059 L1285.46 14.324 L1292.95 14.324 Z" fill="#000000" fill-rule="evenodd" fill-opacity="1" /><path clip-path="url(#clip750)" d="M1338.72 49.7694 Q1329.69 49.7694 1326.21 51.8354 Q1322.72 53.9013 1322.72 58.8839 Q1322.72 62.8538 1325.32 65.2034 Q1327.95 67.5124 1332.45 67.5124 Q1338.64 67.5124 1342.37 63.1374 Q1346.14 58.7219 1346.14 51.4303 L1346.14 49.7694 L1338.72 49.7694 M1353.59 46.6907 L1353.59 72.576 L1346.14 72.576 L1346.14 65.6895 Q1343.59 69.8214 1339.78 71.8063 Q1335.97 73.7508 1330.46 73.7508 Q1323.49 73.7508 1319.36 69.8619 Q1315.27 65.9325 1315.27 59.3701 Q1315.27 51.7138 1320.37 47.825 Q1325.52 43.9361 1335.69 43.9361 L1346.14 43.9361 L1346.14 43.2069 Q1346.14 38.0623 1342.74 35.2672 Q1339.37 32.4315 1333.26 32.4315 Q1329.37 32.4315 1325.68 33.3632 Q1321.99 34.295 1318.59 36.1584 L1318.59 29.2718 Q1322.68 27.692 1326.53 26.9223 Q1330.38 26.1121 1334.03 26.1121 Q1343.87 26.1121 1348.73 31.2163 Q1353.59 36.3204 1353.59 46.6907 Z" fill="#000000" fill-rule="evenodd" fill-opacity="1" /><polyline clip-path="url(#clip752)" style="stroke:#009af9; stroke-linecap:butt; stroke-linejoin:round; stroke-width:4; stroke-opacity:1; fill:none" points="
  233.734,1447.87 233.734,1369.47 268.022,1369.47 302.311,1369.47 302.311,1275.38 336.599,1275.38 336.599,1102.9 370.887,1102.9 
  405.176,1102.9 405.176,836.322 439.464,836.322 439.464,1055.85 473.753,1055.85 473.753,914.726 508.041,914.726 508.041,852.002 542.329,852.002 542.329,1055.85 
  576.618,1055.85 576.618,852.002 610.906,852.002 610.906,789.279 645.194,789.279 645.194,773.598 679.483,773.598 679.483,946.087 713.771,946.087 713.771,1040.17 
  748.06,1040.17 748.06,1087.21 782.348,1087.21 782.348,1149.94 816.636,1149.94 816.636,1134.26 850.925,1134.26 850.925,1259.7 885.213,1259.7 885.213,1369.47 
  919.502,1369.47 953.79,1369.47 953.79,1447.87 988.078,1447.87 988.078,1432.19 1022.37,1432.19 1022.37,1447.87 1056.66,1447.87 1056.66,1416.51 
  1090.94,1416.51 1090.94,1400.83 1125.23,1400.83 1125.23,1447.87 1159.52,1447.87 1159.52,1416.51 1193.81,1416.51 1228.1,1416.51 1228.1,1212.66 
  1262.39,1212.66 1262.39,1181.3 1296.67,1181.3 1296.67,1134.26 1330.96,1134.26 1330.96,930.406 1365.25,930.406 1365.25,993.13 1399.54,993.13 1399.54,804.96 
  1433.83,804.96 1433.83,601.11 1468.12,601.11 1468.12,350.217 1502.4,350.217 1502.4,287.493 1536.69,287.493 1536.69,177.728 1570.98,177.728 1570.98,162.047 
  1605.27,162.047 1605.27,397.259 1639.56,397.259 1639.56,209.089 1673.85,209.089 1673.85,444.301 1708.13,444.301 1708.13,538.386 1742.42,538.386 1742.42,757.918 
  1776.71,757.918 1776.71,695.194 1811,695.194 1811,899.045 1845.29,899.045 1845.29,1008.81 1879.58,1008.81 1879.58,1181.3 1913.86,1181.3 1913.86,1275.38 
  1948.15,1275.38 1948.15,1291.07 1982.44,1291.07 1982.44,1385.15 2016.73,1385.15 2016.73,1416.51 2051.02,1416.51 2051.02,1400.83 2085.31,1400.83 
  2119.59,1400.83 2119.59,1432.19 2153.88,1432.19 2188.17,1432.19 2188.17,1447.87 2222.46,1447.87 2256.75,1447.87 
  2291.04,1447.87 
  "/>
<path clip-path="url(#clip750)" d="
M1933.52 289.865 L2280.06 289.865 L2280.06 168.905 L1933.52 168.905  Z
  " fill="#ffffff" fill-rule="evenodd" fill-opacity="1"/>
<polyline clip-path="url(#clip750)" style="stroke:#000000; stroke-linecap:butt; stroke-linejoin:round; stroke-width:4; stroke-opacity:1; fill:none" points="
  1933.52,289.865 2280.06,289.865 2280.06,168.905 1933.52,168.905 1933.52,289.865 
  "/>
<polyline clip-path="url(#clip750)" style="stroke:#009af9; stroke-linecap:butt; stroke-linejoin:round; stroke-width:4; stroke-opacity:1; fill:none" points="
  1957.75,229.385 2103.14,229.385 
  "/>
<path clip-path="url(#clip750)" d="M2132.04 215.947 L2132.04 242.822 L2137.69 242.822 Q2144.84 242.822 2148.15 239.581 Q2151.49 236.341 2151.49 229.35 Q2151.49 222.406 2148.15 219.188 Q2144.84 215.947 2137.69 215.947 L2132.04 215.947 M2127.37 212.105 L2136.97 212.105 Q2147.02 212.105 2151.72 216.294 Q2156.42 220.461 2156.42 229.35 Q2156.42 238.285 2151.7 242.475 Q2146.97 246.665 2136.97 246.665 L2127.37 246.665 L2127.37 212.105 Z" fill="#000000" fill-rule="evenodd" fill-opacity="1" /><path clip-path="url(#clip750)" d="M2175.47 233.632 Q2170.31 233.632 2168.32 234.813 Q2166.33 235.993 2166.33 238.841 Q2166.33 241.109 2167.81 242.452 Q2169.31 243.771 2171.88 243.771 Q2175.42 243.771 2177.55 241.271 Q2179.71 238.748 2179.71 234.581 L2179.71 233.632 L2175.47 233.632 M2183.96 231.873 L2183.96 246.665 L2179.71 246.665 L2179.71 242.729 Q2178.25 245.091 2176.07 246.225 Q2173.9 247.336 2170.75 247.336 Q2166.77 247.336 2164.4 245.114 Q2162.07 242.868 2162.07 239.118 Q2162.07 234.743 2164.98 232.521 Q2167.92 230.299 2173.73 230.299 L2179.71 230.299 L2179.71 229.882 Q2179.71 226.943 2177.76 225.345 Q2175.84 223.725 2172.34 223.725 Q2170.12 223.725 2168.02 224.257 Q2165.91 224.79 2163.97 225.855 L2163.97 221.919 Q2166.3 221.017 2168.5 220.577 Q2170.7 220.114 2172.78 220.114 Q2178.41 220.114 2181.19 223.031 Q2183.96 225.947 2183.96 231.873 Z" fill="#000000" fill-rule="evenodd" fill-opacity="1" /><path clip-path="url(#clip750)" d="M2196.95 213.378 L2196.95 220.739 L2205.72 220.739 L2205.72 224.049 L2196.95 224.049 L2196.95 238.123 Q2196.95 241.294 2197.81 242.197 Q2198.69 243.1 2201.35 243.1 L2205.72 243.1 L2205.72 246.665 L2201.35 246.665 Q2196.42 246.665 2194.54 244.836 Q2192.67 242.984 2192.67 238.123 L2192.67 224.049 L2189.54 224.049 L2189.54 220.739 L2192.67 220.739 L2192.67 213.378 L2196.95 213.378 Z" fill="#000000" fill-rule="evenodd" fill-opacity="1" /><path clip-path="url(#clip750)" d="M2223.11 233.632 Q2217.95 233.632 2215.96 234.813 Q2213.96 235.993 2213.96 238.841 Q2213.96 241.109 2215.45 242.452 Q2216.95 243.771 2219.52 243.771 Q2223.06 243.771 2225.19 241.271 Q2227.34 238.748 2227.34 234.581 L2227.34 233.632 L2223.11 233.632 M2231.6 231.873 L2231.6 246.665 L2227.34 246.665 L2227.34 242.729 Q2225.89 245.091 2223.71 246.225 Q2221.53 247.336 2218.39 247.336 Q2214.4 247.336 2212.04 245.114 Q2209.71 242.868 2209.71 239.118 Q2209.71 234.743 2212.62 232.521 Q2215.56 230.299 2221.37 230.299 L2227.34 230.299 L2227.34 229.882 Q2227.34 226.943 2225.4 225.345 Q2223.48 223.725 2219.98 223.725 Q2217.76 223.725 2215.65 224.257 Q2213.55 224.79 2211.6 225.855 L2211.6 221.919 Q2213.94 221.017 2216.14 220.577 Q2218.34 220.114 2220.42 220.114 Q2226.05 220.114 2228.83 223.031 Q2231.6 225.947 2231.6 231.873 Z" fill="#000000" fill-rule="evenodd" fill-opacity="1" /></svg>
