<?xml version="1.0" encoding="utf-8"?>
<svg xmlns="http://www.w3.org/2000/svg" xmlns:xlink="http://www.w3.org/1999/xlink" width="600" height="400" viewBox="0 0 2400 1600">
<defs>
  <clipPath id="clip1600">
    <rect x="0" y="0" width="2400" height="1600"/>
  </clipPath>
</defs>
<path clip-path="url(#clip1600)" d="
M0 1600 L2400 1600 L2400 0 L0 0  Z
  " fill="#ffffff" fill-rule="evenodd" fill-opacity="1"/>
<defs>
  <clipPath id="clip1601">
    <rect x="480" y="0" width="1681" height="1600"/>
  </clipPath>
</defs>
<path clip-path="url(#clip1600)" d="
M202.373 1425.62 L2352.76 1425.62 L2352.76 121.675 L202.373 121.675  Z
  " fill="#ffffff" fill-rule="evenodd" fill-opacity="1"/>
<defs>
  <clipPath id="clip1602">
    <rect x="202" y="121" width="2151" height="1305"/>
  </clipPath>
</defs>
<polyline clip-path="url(#clip1602)" style="stroke:#000000; stroke-width:2; stroke-opacity:0.1; fill:none" points="
  461.151,1425.62 461.151,121.675 
  "/>
<polyline clip-path="url(#clip1602)" style="stroke:#000000; stroke-width:2; stroke-opacity:0.1; fill:none" points="
  955.947,1425.62 955.947,121.675 
  "/>
<polyline clip-path="url(#clip1602)" style="stroke:#000000; stroke-width:2; stroke-opacity:0.1; fill:none" points="
  1450.74,1425.62 1450.74,121.675 
  "/>
<polyline clip-path="url(#clip1602)" style="stroke:#000000; stroke-width:2; stroke-opacity:0.1; fill:none" points="
  1945.54,1425.62 1945.54,121.675 
  "/>
<polyline clip-path="url(#clip1602)" style="stroke:#000000; stroke-width:2; stroke-opacity:0.1; fill:none" points="
  202.373,1388.71 2352.76,1388.71 
  "/>
<polyline clip-path="url(#clip1602)" style="stroke:#000000; stroke-width:2; stroke-opacity:0.1; fill:none" points="
  202.373,1023.29 2352.76,1023.29 
  "/>
<polyline clip-path="url(#clip1602)" style="stroke:#000000; stroke-width:2; stroke-opacity:0.1; fill:none" points="
  202.373,657.862 2352.76,657.862 
  "/>
<polyline clip-path="url(#clip1602)" style="stroke:#000000; stroke-width:2; stroke-opacity:0.1; fill:none" points="
  202.373,292.436 2352.76,292.436 
  "/>
<polyline clip-path="url(#clip1600)" style="stroke:#000000; stroke-width:4; stroke-opacity:1; fill:none" points="
  202.373,1425.62 2352.76,1425.62 
  "/>
<polyline clip-path="url(#clip1600)" style="stroke:#000000; stroke-width:4; stroke-opacity:1; fill:none" points="
  202.373,1425.62 202.373,121.675 
  "/>
<polyline clip-path="url(#clip1600)" style="stroke:#000000; stroke-width:4; stroke-opacity:1; fill:none" points="
  461.151,1425.62 461.151,1409.97 
  "/>
<polyline clip-path="url(#clip1600)" style="stroke:#000000; stroke-width:4; stroke-opacity:1; fill:none" points="
  955.947,1425.62 955.947,1409.97 
  "/>
<polyline clip-path="url(#clip1600)" style="stroke:#000000; stroke-width:4; stroke-opacity:1; fill:none" points="
  1450.74,1425.62 1450.74,1409.97 
  "/>
<polyline clip-path="url(#clip1600)" style="stroke:#000000; stroke-width:4; stroke-opacity:1; fill:none" points="
  1945.54,1425.62 1945.54,1409.97 
  "/>
<polyline clip-path="url(#clip1600)" style="stroke:#000000; stroke-width:4; stroke-opacity:1; fill:none" points="
  202.373,1388.71 228.178,1388.71 
  "/>
<polyline clip-path="url(#clip1600)" style="stroke:#000000; stroke-width:4; stroke-opacity:1; fill:none" points="
  202.373,1023.29 228.178,1023.29 
  "/>
<polyline clip-path="url(#clip1600)" style="stroke:#000000; stroke-width:4; stroke-opacity:1; fill:none" points="
  202.373,657.862 228.178,657.862 
  "/>
<polyline clip-path="url(#clip1600)" style="stroke:#000000; stroke-width:4; stroke-opacity:1; fill:none" points="
  202.373,292.436 228.178,292.436 
  "/>
<g clip-path="url(#clip1600)">
<text style="fill:#000000; fill-opacity:1; font-family:Arial,Helvetica Neue,Helvetica,sans-serif; font-size:48px; text-anchor:middle;" transform="rotate(0, 461.151, 1479.62)" x="461.151" y="1479.62">-1.10</text>
</g>
<g clip-path="url(#clip1600)">
<text style="fill:#000000; fill-opacity:1; font-family:Arial,Helvetica Neue,Helvetica,sans-serif; font-size:48px; text-anchor:middle;" transform="rotate(0, 955.947, 1479.62)" x="955.947" y="1479.62">-1.05</text>
</g>
<g clip-path="url(#clip1600)">
<text style="fill:#000000; fill-opacity:1; font-family:Arial,Helvetica Neue,Helvetica,sans-serif; font-size:48px; text-anchor:middle;" transform="rotate(0, 1450.74, 1479.62)" x="1450.74" y="1479.62">-1.00</text>
</g>
<g clip-path="url(#clip1600)">
<text style="fill:#000000; fill-opacity:1; font-family:Arial,Helvetica Neue,Helvetica,sans-serif; font-size:48px; text-anchor:middle;" transform="rotate(0, 1945.54, 1479.62)" x="1945.54" y="1479.62">-0.95</text>
</g>
<g clip-path="url(#clip1600)">
<text style="fill:#000000; fill-opacity:1; font-family:Arial,Helvetica Neue,Helvetica,sans-serif; font-size:48px; text-anchor:end;" transform="rotate(0, 178.373, 1406.21)" x="178.373" y="1406.21">0</text>
</g>
<g clip-path="url(#clip1600)">
<text style="fill:#000000; fill-opacity:1; font-family:Arial,Helvetica Neue,Helvetica,sans-serif; font-size:48px; text-anchor:end;" transform="rotate(0, 178.373, 1040.79)" x="178.373" y="1040.79">5</text>
</g>
<g clip-path="url(#clip1600)">
<text style="fill:#000000; fill-opacity:1; font-family:Arial,Helvetica Neue,Helvetica,sans-serif; font-size:48px; text-anchor:end;" transform="rotate(0, 178.373, 675.362)" x="178.373" y="675.362">10</text>
</g>
<g clip-path="url(#clip1600)">
<text style="fill:#000000; fill-opacity:1; font-family:Arial,Helvetica Neue,Helvetica,sans-serif; font-size:48px; text-anchor:end;" transform="rotate(0, 178.373, 309.936)" x="178.373" y="309.936">15</text>
</g>
<g clip-path="url(#clip1600)">
<text style="fill:#000000; fill-opacity:1; font-family:Arial,Helvetica Neue,Helvetica,sans-serif; font-size:84px; text-anchor:middle;" transform="rotate(0, 1277.56, 73.2)" x="1277.56" y="73.2">Marginalized Distribution for mu_1</text>
</g>
<g clip-path="url(#clip1600)">
<text style="fill:#000000; fill-opacity:1; font-family:Arial,Helvetica Neue,Helvetica,sans-serif; font-size:66px; text-anchor:middle;" transform="rotate(0, 1277.56, 1559.48)" x="1277.56" y="1559.48">mu_1</text>
</g>
<g clip-path="url(#clip1600)">
<text style="fill:#000000; fill-opacity:1; font-family:Arial,Helvetica Neue,Helvetica,sans-serif; font-size:66px; text-anchor:middle;" transform="rotate(-90, 89.2861, 773.647)" x="89.2861" y="773.647">P(mu_1)</text>
</g>
<path clip-path="url(#clip1602)" d="
M263.233 1388.71 L312.712 1388.71 L312.712 1388.71 L362.192 1388.71 L362.192 1388.71 L411.672 1388.71 L411.672 1388.71 L461.151 1388.71 L461.151 1388.71 L510.631 1388.71 
  L510.631 1388.71 L560.11 1388.71 L560.11 1376.83 L609.59 1376.83 L609.59 1364.02 L659.07 1364.02 L659.07 1340.77 L708.549 1340.77 L708.549 1323.93 L758.029 1323.93 
  L758.029 1293.55 L807.508 1293.55 L807.508 1206.97 L856.988 1206.97 L856.988 1161.51 L906.467 1161.51 L906.467 1033.28 L955.947 1033.28 L955.947 910.847 L1005.43 910.847 
  L1005.43 788.823 L1054.91 788.823 L1054.91 635.906 L1104.39 635.906 L1104.39 525.041 L1153.87 525.041 L1153.87 416.139 L1203.35 416.139 L1203.35 291.532 L1252.82 291.532 
  L1252.82 212.283 L1302.3 212.283 L1302.3 194.408 L1351.78 194.408 L1351.78 226.748 L1401.26 226.748 L1401.26 333.067 L1450.74 333.067 L1450.74 390.411 L1500.22 390.411 
  L1500.22 581.145 L1549.7 581.145 L1549.7 720.527 L1599.18 720.527 L1599.18 863.112 L1648.66 863.112 L1648.66 972.841 L1698.14 972.841 L1698.14 1083.6 L1747.62 1083.6 
  L1747.62 1192.71 L1797.1 1192.71 L1797.1 1265.04 L1846.58 1265.04 L1846.58 1294.28 L1896.06 1294.28 L1896.06 1343.77 L1945.54 1343.77 L1945.54 1359.06 L1995.02 1359.06 
  L1995.02 1376.42 L2044.5 1376.42 L2044.5 1388.71 L2093.98 1388.71 L2093.98 1388.71 L2143.46 1388.71 L2143.46 1388.71 L2192.94 1388.71 L2192.94 1388.71 L2242.42 1388.71 
  L2242.42 1388.71 L2291.9 1388.71 L2291.9 1388.71 L2291.9 1388.71 L2291.9 1388.71 L2242.42 1388.71 L2242.42 1388.71 L2192.94 1388.71 L2192.94 1388.71 L2143.46 1388.71 
  L2143.46 1388.71 L2093.98 1388.71 L2093.98 1388.71 L2044.5 1388.71 L2044.5 1388.71 L1995.02 1388.71 L1995.02 1388.71 L1945.54 1388.71 L1945.54 1388.71 L1896.06 1388.71 
  L1896.06 1388.71 L1846.58 1388.71 L1846.58 1388.71 L1797.1 1388.71 L1797.1 1388.71 L1747.62 1388.71 L1747.62 1388.71 L1698.14 1388.71 L1698.14 1388.71 L1648.66 1388.71 
  L1648.66 1388.71 L1599.18 1388.71 L1599.18 1388.71 L1549.7 1388.71 L1549.7 1388.71 L1500.22 1388.71 L1500.22 1388.71 L1450.74 1388.71 L1450.74 1388.71 L1401.26 1388.71 
  L1401.26 1388.71 L1351.78 1388.71 L1351.78 1388.71 L1302.3 1388.71 L1302.3 1388.71 L1252.82 1388.71 L1252.82 1388.71 L1203.35 1388.71 L1203.35 1388.71 L1153.87 1388.71 
  L1153.87 1388.71 L1104.39 1388.71 L1104.39 1388.71 L1054.91 1388.71 L1054.91 1388.71 L1005.43 1388.71 L1005.43 1388.71 L955.947 1388.71 L955.947 1388.71 L906.467 1388.71 
  L906.467 1388.71 L856.988 1388.71 L856.988 1388.71 L807.508 1388.71 L807.508 1388.71 L758.029 1388.71 L758.029 1388.71 L708.549 1388.71 L708.549 1388.71 L659.07 1388.71 
  L659.07 1388.71 L609.59 1388.71 L609.59 1388.71 L560.11 1388.71 L560.11 1388.71 L510.631 1388.71 L510.631 1388.71 L461.151 1388.71 L461.151 1388.71 L411.672 1388.71 
  L411.672 1388.71 L362.192 1388.71 L362.192 1388.71 L312.712 1388.71 L312.712 1388.71 L263.233 1388.71  Z
  " fill="#ff0000" fill-rule="evenodd" fill-opacity="1"/>
<polyline clip-path="url(#clip1602)" style="stroke:#009af9; stroke-width:0; stroke-opacity:1; fill:none" points="
  263.233,1388.71 312.712,1388.71 362.192,1388.71 411.672,1388.71 461.151,1388.71 510.631,1388.71 
  560.11,1388.71 560.11,1376.83 609.59,1376.83 609.59,1364.02 659.07,1364.02 659.07,1340.77 708.549,1340.77 708.549,1323.93 758.029,1323.93 
  758.029,1293.55 807.508,1293.55 807.508,1206.97 856.988,1206.97 856.988,1161.51 906.467,1161.51 906.467,1033.28 955.947,1033.28 955.947,910.847 1005.43,910.847 
  1005.43,788.823 1054.91,788.823 1054.91,635.906 1104.39,635.906 1104.39,525.041 1153.87,525.041 1153.87,416.139 1203.35,416.139 1203.35,291.532 1252.82,291.532 
  1252.82,212.283 1302.3,212.283 1302.3,194.408 1351.78,194.408 1351.78,226.748 1401.26,226.748 1401.26,333.067 1450.74,333.067 1450.74,390.411 1500.22,390.411 
  1500.22,581.145 1549.7,581.145 1549.7,720.527 1599.18,720.527 1599.18,863.112 1648.66,863.112 1648.66,972.841 1698.14,972.841 1698.14,1083.6 1747.62,1083.6 
  1747.62,1192.71 1797.1,1192.71 1797.1,1265.04 1846.58,1265.04 1846.58,1294.28 1896.06,1294.28 1896.06,1343.77 1945.54,1343.77 1945.54,1359.06 1995.02,1359.06 
  1995.02,1376.42 2044.5,1376.42 2044.5,1388.71 2093.98,1388.71 2143.46,1388.71 2192.94,1388.71 2242.42,1388.71 
  2291.9,1388.71 
  "/>
<path clip-path="url(#clip1602)" d="
M263.233 1388.71 L312.712 1388.71 L312.712 1388.71 L362.192 1388.71 L362.192 1388.71 L411.672 1388.71 L411.672 1388.71 L461.151 1388.71 L461.151 1388.71 L510.631 1388.71 
  L510.631 1388.71 L560.11 1388.71 L560.11 1388.71 L609.59 1388.71 L609.59 1388.71 L659.07 1388.71 L659.07 1388.71 L708.549 1388.71 L708.549 1388.71 L758.029 1388.71 
  L758.029 1388.71 L807.508 1388.71 L807.508 1206.97 L856.988 1206.97 L856.988 1161.51 L906.467 1161.51 L906.467 1033.28 L955.947 1033.28 L955.947 910.847 L1005.43 910.847 
  L1005.43 788.823 L1054.91 788.823 L1054.91 635.906 L1104.39 635.906 L1104.39 525.041 L1153.87 525.041 L1153.87 416.139 L1203.35 416.139 L1203.35 291.532 L1252.82 291.532 
  L1252.82 212.283 L1302.3 212.283 L1302.3 194.408 L1351.78 194.408 L1351.78 226.748 L1401.26 226.748 L1401.26 333.067 L1450.74 333.067 L1450.74 390.411 L1500.22 390.411 
  L1500.22 581.145 L1549.7 581.145 L1549.7 720.527 L1599.18 720.527 L1599.18 863.112 L1648.66 863.112 L1648.66 972.841 L1698.14 972.841 L1698.14 1083.6 L1747.62 1083.6 
  L1747.62 1192.71 L1797.1 1192.71 L1797.1 1388.71 L1846.58 1388.71 L1846.58 1388.71 L1896.06 1388.71 L1896.06 1388.71 L1945.54 1388.71 L1945.54 1388.71 L1995.02 1388.71 
  L1995.02 1388.71 L2044.5 1388.71 L2044.5 1388.71 L2093.98 1388.71 L2093.98 1388.71 L2143.46 1388.71 L2143.46 1388.71 L2192.94 1388.71 L2192.94 1388.71 L2242.42 1388.71 
  L2242.42 1388.71 L2291.9 1388.71 L2291.9 1388.71 L2291.9 1388.71 L2291.9 1388.71 L2242.42 1388.71 L2242.42 1388.71 L2192.94 1388.71 L2192.94 1388.71 L2143.46 1388.71 
  L2143.46 1388.71 L2093.98 1388.71 L2093.98 1388.71 L2044.5 1388.71 L2044.5 1388.71 L1995.02 1388.71 L1995.02 1388.71 L1945.54 1388.71 L1945.54 1388.71 L1896.06 1388.71 
  L1896.06 1388.71 L1846.58 1388.71 L1846.58 1388.71 L1797.1 1388.71 L1797.1 1388.71 L1747.62 1388.71 L1747.62 1388.71 L1698.14 1388.71 L1698.14 1388.71 L1648.66 1388.71 
  L1648.66 1388.71 L1599.18 1388.71 L1599.18 1388.71 L1549.7 1388.71 L1549.7 1388.71 L1500.22 1388.71 L1500.22 1388.71 L1450.74 1388.71 L1450.74 1388.71 L1401.26 1388.71 
  L1401.26 1388.71 L1351.78 1388.71 L1351.78 1388.71 L1302.3 1388.71 L1302.3 1388.71 L1252.82 1388.71 L1252.82 1388.71 L1203.35 1388.71 L1203.35 1388.71 L1153.87 1388.71 
  L1153.87 1388.71 L1104.39 1388.71 L1104.39 1388.71 L1054.91 1388.71 L1054.91 1388.71 L1005.43 1388.71 L1005.43 1388.71 L955.947 1388.71 L955.947 1388.71 L906.467 1388.71 
  L906.467 1388.71 L856.988 1388.71 L856.988 1388.71 L807.508 1388.71 L807.508 1388.71 L758.029 1388.71 L758.029 1388.71 L708.549 1388.71 L708.549 1388.71 L659.07 1388.71 
  L659.07 1388.71 L609.59 1388.71 L609.59 1388.71 L560.11 1388.71 L560.11 1388.71 L510.631 1388.71 L510.631 1388.71 L461.151 1388.71 L461.151 1388.71 L411.672 1388.71 
  L411.672 1388.71 L362.192 1388.71 L362.192 1388.71 L312.712 1388.71 L312.712 1388.71 L263.233 1388.71  Z
  " fill="#ffff00" fill-rule="evenodd" fill-opacity="1"/>
<polyline clip-path="url(#clip1602)" style="stroke:#e26f46; stroke-width:0; stroke-opacity:1; fill:none" points="
  263.233,1388.71 312.712,1388.71 362.192,1388.71 411.672,1388.71 461.151,1388.71 510.631,1388.71 
  560.11,1388.71 609.59,1388.71 659.07,1388.71 708.549,1388.71 758.029,1388.71 
  807.508,1388.71 807.508,1206.97 856.988,1206.97 856.988,1161.51 906.467,1161.51 906.467,1033.28 955.947,1033.28 955.947,910.847 1005.43,910.847 
  1005.43,788.823 1054.91,788.823 1054.91,635.906 1104.39,635.906 1104.39,525.041 1153.87,525.041 1153.87,416.139 1203.35,416.139 1203.35,291.532 1252.82,291.532 
  1252.82,212.283 1302.3,212.283 1302.3,194.408 1351.78,194.408 1351.78,226.748 1401.26,226.748 1401.26,333.067 1450.74,333.067 1450.74,390.411 1500.22,390.411 
  1500.22,581.145 1549.7,581.145 1549.7,720.527 1599.18,720.527 1599.18,863.112 1648.66,863.112 1648.66,972.841 1698.14,972.841 1698.14,1083.6 1747.62,1083.6 
  1747.62,1192.71 1797.1,1192.71 1797.1,1388.71 1846.58,1388.71 1896.06,1388.71 1945.54,1388.71 1995.02,1388.71 
  2044.5,1388.71 2093.98,1388.71 2143.46,1388.71 2192.94,1388.71 2242.42,1388.71 
  2291.9,1388.71 
  "/>
<path clip-path="url(#clip1602)" d="
M263.233 1388.71 L312.712 1388.71 L312.712 1388.71 L362.192 1388.71 L362.192 1388.71 L411.672 1388.71 L411.672 1388.71 L461.151 1388.71 L461.151 1388.71 L510.631 1388.71 
  L510.631 1388.71 L560.11 1388.71 L560.11 1388.71 L609.59 1388.71 L609.59 1388.71 L659.07 1388.71 L659.07 1388.71 L708.549 1388.71 L708.549 1388.71 L758.029 1388.71 
  L758.029 1388.71 L807.508 1388.71 L807.508 1388.71 L856.988 1388.71 L856.988 1388.71 L906.467 1388.71 L906.467 1388.71 L955.947 1388.71 L955.947 1388.71 L1005.43 1388.71 
  L1005.43 1388.71 L1054.91 1388.71 L1054.91 635.906 L1104.39 635.906 L1104.39 525.041 L1153.87 525.041 L1153.87 416.139 L1203.35 416.139 L1203.35 291.532 L1252.82 291.532 
  L1252.82 212.283 L1302.3 212.283 L1302.3 194.408 L1351.78 194.408 L1351.78 226.748 L1401.26 226.748 L1401.26 333.067 L1450.74 333.067 L1450.74 390.411 L1500.22 390.411 
  L1500.22 581.145 L1549.7 581.145 L1549.7 1388.71 L1599.18 1388.71 L1599.18 1388.71 L1648.66 1388.71 L1648.66 1388.71 L1698.14 1388.71 L1698.14 1388.71 L1747.62 1388.71 
  L1747.62 1388.71 L1797.1 1388.71 L1797.1 1388.71 L1846.58 1388.71 L1846.58 1388.71 L1896.06 1388.71 L1896.06 1388.71 L1945.54 1388.71 L1945.54 1388.71 L1995.02 1388.71 
  L1995.02 1388.71 L2044.5 1388.71 L2044.5 1388.71 L2093.98 1388.71 L2093.98 1388.71 L2143.46 1388.71 L2143.46 1388.71 L2192.94 1388.71 L2192.94 1388.71 L2242.42 1388.71 
  L2242.42 1388.71 L2291.9 1388.71 L2291.9 1388.71 L2291.9 1388.71 L2291.9 1388.71 L2242.42 1388.71 L2242.42 1388.71 L2192.94 1388.71 L2192.94 1388.71 L2143.46 1388.71 
  L2143.46 1388.71 L2093.98 1388.71 L2093.98 1388.71 L2044.5 1388.71 L2044.5 1388.71 L1995.02 1388.71 L1995.02 1388.71 L1945.54 1388.71 L1945.54 1388.71 L1896.06 1388.71 
  L1896.06 1388.71 L1846.58 1388.71 L1846.58 1388.71 L1797.1 1388.71 L1797.1 1388.71 L1747.62 1388.71 L1747.62 1388.71 L1698.14 1388.71 L1698.14 1388.71 L1648.66 1388.71 
  L1648.66 1388.71 L1599.18 1388.71 L1599.18 1388.71 L1549.7 1388.71 L1549.7 1388.71 L1500.22 1388.71 L1500.22 1388.71 L1450.74 1388.71 L1450.74 1388.71 L1401.26 1388.71 
  L1401.26 1388.71 L1351.78 1388.71 L1351.78 1388.71 L1302.3 1388.71 L1302.3 1388.71 L1252.82 1388.71 L1252.82 1388.71 L1203.35 1388.71 L1203.35 1388.71 L1153.87 1388.71 
  L1153.87 1388.71 L1104.39 1388.71 L1104.39 1388.71 L1054.91 1388.71 L1054.91 1388.71 L1005.43 1388.71 L1005.43 1388.71 L955.947 1388.71 L955.947 1388.71 L906.467 1388.71 
  L906.467 1388.71 L856.988 1388.71 L856.988 1388.71 L807.508 1388.71 L807.508 1388.71 L758.029 1388.71 L758.029 1388.71 L708.549 1388.71 L708.549 1388.71 L659.07 1388.71 
  L659.07 1388.71 L609.59 1388.71 L609.59 1388.71 L560.11 1388.71 L560.11 1388.71 L510.631 1388.71 L510.631 1388.71 L461.151 1388.71 L461.151 1388.71 L411.672 1388.71 
  L411.672 1388.71 L362.192 1388.71 L362.192 1388.71 L312.712 1388.71 L312.712 1388.71 L263.233 1388.71  Z
  " fill="#76ee00" fill-rule="evenodd" fill-opacity="1"/>
<polyline clip-path="url(#clip1602)" style="stroke:#3da44d; stroke-width:0; stroke-opacity:1; fill:none" points="
  263.233,1388.71 312.712,1388.71 362.192,1388.71 411.672,1388.71 461.151,1388.71 510.631,1388.71 
  560.11,1388.71 609.59,1388.71 659.07,1388.71 708.549,1388.71 758.029,1388.71 
  807.508,1388.71 856.988,1388.71 906.467,1388.71 955.947,1388.71 1005.43,1388.71 
  1054.91,1388.71 1054.91,635.906 1104.39,635.906 1104.39,525.041 1153.87,525.041 1153.87,416.139 1203.35,416.139 1203.35,291.532 1252.82,291.532 
  1252.82,212.283 1302.3,212.283 1302.3,194.408 1351.78,194.408 1351.78,226.748 1401.26,226.748 1401.26,333.067 1450.74,333.067 1450.74,390.411 1500.22,390.411 
  1500.22,581.145 1549.7,581.145 1549.7,1388.71 1599.18,1388.71 1648.66,1388.71 1698.14,1388.71 1747.62,1388.71 
  1797.1,1388.71 1846.58,1388.71 1896.06,1388.71 1945.54,1388.71 1995.02,1388.71 
  2044.5,1388.71 2093.98,1388.71 2143.46,1388.71 2192.94,1388.71 2242.42,1388.71 
  2291.9,1388.71 
  "/>
<polyline clip-path="url(#clip1602)" style="stroke:#000000; stroke-width:2.8; stroke-opacity:1; fill:none" points="
  263.233,1388.51 312.712,1388.51 312.712,1388.61 362.192,1388.61 362.192,1387.06 411.672,1387.06 411.672,1386.54 461.151,1386.54 461.151,1382.1 510.631,1382.1 
  510.631,1382.62 560.11,1382.62 560.11,1376.83 609.59,1376.83 609.59,1364.02 659.07,1364.02 659.07,1340.77 708.549,1340.77 708.549,1323.93 758.029,1323.93 
  758.029,1293.55 807.508,1293.55 807.508,1206.97 856.988,1206.97 856.988,1161.51 906.467,1161.51 906.467,1033.28 955.947,1033.28 955.947,910.847 1005.43,910.847 
  1005.43,788.823 1054.91,788.823 1054.91,635.906 1104.39,635.906 1104.39,525.041 1153.87,525.041 1153.87,416.139 1203.35,416.139 1203.35,291.532 1252.82,291.532 
  1252.82,212.283 1302.3,212.283 1302.3,194.408 1351.78,194.408 1351.78,226.748 1401.26,226.748 1401.26,333.067 1450.74,333.067 1450.74,390.411 1500.22,390.411 
  1500.22,581.145 1549.7,581.145 1549.7,720.527 1599.18,720.527 1599.18,863.112 1648.66,863.112 1648.66,972.841 1698.14,972.841 1698.14,1083.6 1747.62,1083.6 
  1747.62,1192.71 1797.1,1192.71 1797.1,1265.04 1846.58,1265.04 1846.58,1294.28 1896.06,1294.28 1896.06,1343.77 1945.54,1343.77 1945.54,1359.06 1995.02,1359.06 
  1995.02,1376.42 2044.5,1376.42 2044.5,1382.52 2093.98,1382.52 2093.98,1384.79 2143.46,1384.79 2143.46,1385.72 2192.94,1385.72 2192.94,1385.41 2242.42,1385.41 
  2242.42,1388.09 2291.9,1388.09 2291.9,1388.4 
  "/>
<path clip-path="url(#clip1602)" d="
M1072.05 1388.71 L1557.44 1388.71 L1557.44 158.579 L1072.05 158.579 L1072.05 1388.71  Z
  " fill="#808080" fill-rule="evenodd" fill-opacity="0.5"/>
<polyline clip-path="url(#clip1602)" style="stroke:#000000; stroke-width:0; stroke-opacity:1; fill:none" points="
  1072.05,1388.71 1557.44,1388.71 1557.44,158.579 1072.05,158.579 1072.05,1388.71 
  "/>
<polyline clip-path="url(#clip1602)" style="stroke:#696969; stroke-width:4; stroke-opacity:1; fill:none" points="
  1314.74,1388.71 1314.74,158.579 
  "/>
<polyline clip-path="url(#clip1602)" style="stroke:#000000; stroke-width:4; stroke-opacity:1; fill:none" stroke-dasharray="16, 10" points="
  1322.6,1388.71 1322.6,158.579 
  "/>
<polyline clip-path="url(#clip1602)" style="stroke:#000000; stroke-width:4; stroke-opacity:1; fill:none" stroke-dasharray="2, 4" points="
  1327.04,1388.71 1327.04,158.579 
  "/>
<path clip-path="url(#clip1600)" d="
M1463.01 689.035 L2280.76 689.035 L2280.76 205.195 L1463.01 205.195  Z
  " fill="#ffffff" fill-rule="evenodd" fill-opacity="1"/>
<polyline clip-path="url(#clip1600)" style="stroke:#000000; stroke-width:4; stroke-opacity:1; fill:none" points="
  1463.01,689.035 2280.76,689.035 2280.76,205.195 1463.01,205.195 1463.01,689.035 
  "/>
<path clip-path="url(#clip1600)" d="
M1487.01 289.867 L1631.01 289.867 L1631.01 241.483 L1487.01 241.483 L1487.01 289.867  Z
  " fill="#ff0000" fill-rule="evenodd" fill-opacity="1"/>
<polyline clip-path="url(#clip1600)" style="stroke:#009af9; stroke-width:0; stroke-opacity:1; fill:none" points="
  1487.01,241.483 1631.01,241.483 
  "/>
<g clip-path="url(#clip1600)">
<text style="fill:#000000; fill-opacity:1; font-family:Arial,Helvetica Neue,Helvetica,sans-serif; font-size:48px; text-anchor:start;" transform="rotate(0, 1655.01, 283.175)" x="1655.01" y="283.175">smallest 99.77% interval(s)</text>
</g>
<path clip-path="url(#clip1600)" d="
M1487.01 350.347 L1631.01 350.347 L1631.01 301.963 L1487.01 301.963 L1487.01 350.347  Z
  " fill="#ffff00" fill-rule="evenodd" fill-opacity="1"/>
<polyline clip-path="url(#clip1600)" style="stroke:#e26f46; stroke-width:0; stroke-opacity:1; fill:none" points="
  1487.01,301.963 1631.01,301.963 
  "/>
<g clip-path="url(#clip1600)">
<text style="fill:#000000; fill-opacity:1; font-family:Arial,Helvetica Neue,Helvetica,sans-serif; font-size:48px; text-anchor:start;" transform="rotate(0, 1655.01, 343.655)" x="1655.01" y="343.655">smallest 96.01% interval(s)</text>
</g>
<path clip-path="url(#clip1600)" d="
M1487.01 410.827 L1631.01 410.827 L1631.01 362.443 L1487.01 362.443 L1487.01 410.827  Z
  " fill="#76ee00" fill-rule="evenodd" fill-opacity="1"/>
<polyline clip-path="url(#clip1600)" style="stroke:#3da44d; stroke-width:0; stroke-opacity:1; fill:none" points="
  1487.01,362.443 1631.01,362.443 
  "/>
<g clip-path="url(#clip1600)">
<text style="fill:#000000; fill-opacity:1; font-family:Arial,Helvetica Neue,Helvetica,sans-serif; font-size:48px; text-anchor:start;" transform="rotate(0, 1655.01, 404.135)" x="1655.01" y="404.135">smallest 68.96% interval(s)</text>
</g>
<path clip-path="url(#clip1600)" d="
M1487.01 471.307 L1631.01 471.307 L1631.01 422.923 L1487.01 422.923 L1487.01 471.307  Z
  " fill="#808080" fill-rule="evenodd" fill-opacity="0.5"/>
<polyline clip-path="url(#clip1600)" style="stroke:#000000; stroke-width:0; stroke-opacity:1; fill:none" points="
  1487.01,471.307 1631.01,471.307 1631.01,422.923 1487.01,422.923 1487.01,471.307 
  "/>
<g clip-path="url(#clip1600)">
<text style="fill:#000000; fill-opacity:1; font-family:Arial,Helvetica Neue,Helvetica,sans-serif; font-size:48px; text-anchor:start;" transform="rotate(0, 1655.01, 464.615)" x="1655.01" y="464.615">std. dev.</text>
</g>
<polyline clip-path="url(#clip1600)" style="stroke:#696969; stroke-width:4; stroke-opacity:1; fill:none" points="
  1487.01,507.595 1631.01,507.595 
  "/>
<g clip-path="url(#clip1600)">
<text style="fill:#000000; fill-opacity:1; font-family:Arial,Helvetica Neue,Helvetica,sans-serif; font-size:48px; text-anchor:start;" transform="rotate(0, 1655.01, 525.095)" x="1655.01" y="525.095">mean</text>
</g>
<polyline clip-path="url(#clip1600)" style="stroke:#000000; stroke-width:4; stroke-opacity:1; fill:none" stroke-dasharray="16, 10" points="
  1487.01,568.075 1631.01,568.075 
  "/>
<g clip-path="url(#clip1600)">
<text style="fill:#000000; fill-opacity:1; font-family:Arial,Helvetica Neue,Helvetica,sans-serif; font-size:48px; text-anchor:start;" transform="rotate(0, 1655.01, 585.575)" x="1655.01" y="585.575">global mode</text>
</g>
<polyline clip-path="url(#clip1600)" style="stroke:#000000; stroke-width:4; stroke-opacity:1; fill:none" stroke-dasharray="2, 4" points="
  1487.01,628.555 1631.01,628.555 
  "/>
<g clip-path="url(#clip1600)">
<text style="fill:#000000; fill-opacity:1; font-family:Arial,Helvetica Neue,Helvetica,sans-serif; font-size:48px; text-anchor:start;" transform="rotate(0, 1655.01, 646.055)" x="1655.01" y="646.055">local mode</text>
</g>
</svg>
