<?xml version="1.0" encoding="utf-8"?>
<svg xmlns="http://www.w3.org/2000/svg" xmlns:xlink="http://www.w3.org/1999/xlink" width="600" height="400" viewBox="0 0 2400 1600">
<defs>
  <clipPath id="clip310">
    <rect x="0" y="0" width="2400" height="1600"/>
  </clipPath>
</defs>
<path clip-path="url(#clip310)" d="
M0 1600 L2400 1600 L2400 0 L0 0  Z
  " fill="#ffffff" fill-rule="evenodd" fill-opacity="1"/>
<defs>
  <clipPath id="clip311">
    <rect x="480" y="0" width="1681" height="1600"/>
  </clipPath>
</defs>
<path clip-path="url(#clip310)" d="
M172.015 1486.45 L2352.76 1486.45 L2352.76 123.472 L172.015 123.472  Z
  " fill="#ffffff" fill-rule="evenodd" fill-opacity="1"/>
<defs>
  <clipPath id="clip312">
    <rect x="172" y="123" width="2182" height="1364"/>
  </clipPath>
</defs>
<polyline clip-path="url(#clip312)" style="stroke:#000000; stroke-linecap:butt; stroke-linejoin:round; stroke-width:2; stroke-opacity:0.1; fill:none" points="
  233.734,1486.45 233.734,123.472 
  "/>
<polyline clip-path="url(#clip312)" style="stroke:#000000; stroke-linecap:butt; stroke-linejoin:round; stroke-width:2; stroke-opacity:0.1; fill:none" points="
  748.06,1486.45 748.06,123.472 
  "/>
<polyline clip-path="url(#clip312)" style="stroke:#000000; stroke-linecap:butt; stroke-linejoin:round; stroke-width:2; stroke-opacity:0.1; fill:none" points="
  1262.39,1486.45 1262.39,123.472 
  "/>
<polyline clip-path="url(#clip312)" style="stroke:#000000; stroke-linecap:butt; stroke-linejoin:round; stroke-width:2; stroke-opacity:0.1; fill:none" points="
  1776.71,1486.45 1776.71,123.472 
  "/>
<polyline clip-path="url(#clip312)" style="stroke:#000000; stroke-linecap:butt; stroke-linejoin:round; stroke-width:2; stroke-opacity:0.1; fill:none" points="
  2291.04,1486.45 2291.04,123.472 
  "/>
<polyline clip-path="url(#clip310)" style="stroke:#000000; stroke-linecap:butt; stroke-linejoin:round; stroke-width:4; stroke-opacity:1; fill:none" points="
  172.015,1486.45 2352.76,1486.45 
  "/>
<polyline clip-path="url(#clip310)" style="stroke:#000000; stroke-linecap:butt; stroke-linejoin:round; stroke-width:4; stroke-opacity:1; fill:none" points="
  233.734,1486.45 233.734,1470.09 
  "/>
<polyline clip-path="url(#clip310)" style="stroke:#000000; stroke-linecap:butt; stroke-linejoin:round; stroke-width:4; stroke-opacity:1; fill:none" points="
  748.06,1486.45 748.06,1470.09 
  "/>
<polyline clip-path="url(#clip310)" style="stroke:#000000; stroke-linecap:butt; stroke-linejoin:round; stroke-width:4; stroke-opacity:1; fill:none" points="
  1262.39,1486.45 1262.39,1470.09 
  "/>
<polyline clip-path="url(#clip310)" style="stroke:#000000; stroke-linecap:butt; stroke-linejoin:round; stroke-width:4; stroke-opacity:1; fill:none" points="
  1776.71,1486.45 1776.71,1470.09 
  "/>
<polyline clip-path="url(#clip310)" style="stroke:#000000; stroke-linecap:butt; stroke-linejoin:round; stroke-width:4; stroke-opacity:1; fill:none" points="
  2291.04,1486.45 2291.04,1470.09 
  "/>
<path clip-path="url(#clip310)" d="M202.635 1530.29 L232.31 1530.29 L232.31 1534.23 L202.635 1534.23 L202.635 1530.29 Z" fill="#000000" fill-rule="evenodd" fill-opacity="1" /><path clip-path="url(#clip310)" d="M255.25 1516.63 L243.445 1535.08 L255.25 1535.08 L255.25 1516.63 M254.023 1512.56 L259.903 1512.56 L259.903 1535.08 L264.833 1535.08 L264.833 1538.97 L259.903 1538.97 L259.903 1547.12 L255.25 1547.12 L255.25 1538.97 L239.648 1538.97 L239.648 1534.46 L254.023 1512.56 Z" fill="#000000" fill-rule="evenodd" fill-opacity="1" /><path clip-path="url(#clip310)" d="M718.002 1530.29 L747.678 1530.29 L747.678 1534.23 L718.002 1534.23 L718.002 1530.29 Z" fill="#000000" fill-rule="evenodd" fill-opacity="1" /><path clip-path="url(#clip310)" d="M761.798 1543.18 L778.117 1543.18 L778.117 1547.12 L756.173 1547.12 L756.173 1543.18 Q758.835 1540.43 763.418 1535.8 Q768.025 1531.15 769.205 1529.81 Q771.451 1527.28 772.33 1525.55 Q773.233 1523.79 773.233 1522.1 Q773.233 1519.34 771.289 1517.61 Q769.367 1515.87 766.266 1515.87 Q764.066 1515.87 761.613 1516.63 Q759.182 1517.4 756.404 1518.95 L756.404 1514.23 Q759.229 1513.09 761.682 1512.51 Q764.136 1511.93 766.173 1511.93 Q771.543 1511.93 774.738 1514.62 Q777.932 1517.31 777.932 1521.8 Q777.932 1523.93 777.122 1525.85 Q776.335 1527.74 774.228 1530.34 Q773.65 1531.01 770.548 1534.23 Q767.446 1537.42 761.798 1543.18 Z" fill="#000000" fill-rule="evenodd" fill-opacity="1" /><path clip-path="url(#clip310)" d="M1262.39 1515.64 Q1258.77 1515.64 1256.95 1519.2 Q1255.14 1522.75 1255.14 1529.87 Q1255.14 1536.98 1256.95 1540.55 Q1258.77 1544.09 1262.39 1544.09 Q1266.02 1544.09 1267.83 1540.55 Q1269.65 1536.98 1269.65 1529.87 Q1269.65 1522.75 1267.83 1519.2 Q1266.02 1515.64 1262.39 1515.64 M1262.39 1511.93 Q1268.2 1511.93 1271.25 1516.54 Q1274.33 1521.12 1274.33 1529.87 Q1274.33 1538.6 1271.25 1543.21 Q1268.2 1547.79 1262.39 1547.79 Q1256.58 1547.79 1253.5 1543.21 Q1250.44 1538.6 1250.44 1529.87 Q1250.44 1521.12 1253.5 1516.54 Q1256.58 1511.93 1262.39 1511.93 Z" fill="#000000" fill-rule="evenodd" fill-opacity="1" /><path clip-path="url(#clip310)" d="M1771.36 1543.18 L1787.68 1543.18 L1787.68 1547.12 L1765.74 1547.12 L1765.74 1543.18 Q1768.4 1540.43 1772.98 1535.8 Q1777.59 1531.15 1778.77 1529.81 Q1781.02 1527.28 1781.9 1525.55 Q1782.8 1523.79 1782.8 1522.1 Q1782.8 1519.34 1780.85 1517.61 Q1778.93 1515.87 1775.83 1515.87 Q1773.63 1515.87 1771.18 1516.63 Q1768.75 1517.4 1765.97 1518.95 L1765.97 1514.23 Q1768.79 1513.09 1771.25 1512.51 Q1773.7 1511.93 1775.74 1511.93 Q1781.11 1511.93 1784.3 1514.62 Q1787.5 1517.31 1787.5 1521.8 Q1787.5 1523.93 1786.69 1525.85 Q1785.9 1527.74 1783.79 1530.34 Q1783.22 1531.01 1780.11 1534.23 Q1777.01 1537.42 1771.36 1543.18 Z" fill="#000000" fill-rule="evenodd" fill-opacity="1" /><path clip-path="url(#clip310)" d="M2294.05 1516.63 L2282.24 1535.08 L2294.05 1535.08 L2294.05 1516.63 M2292.82 1512.56 L2298.7 1512.56 L2298.7 1535.08 L2303.63 1535.08 L2303.63 1538.97 L2298.7 1538.97 L2298.7 1547.12 L2294.05 1547.12 L2294.05 1538.97 L2278.44 1538.97 L2278.44 1534.46 L2292.82 1512.56 Z" fill="#000000" fill-rule="evenodd" fill-opacity="1" /><polyline clip-path="url(#clip312)" style="stroke:#000000; stroke-linecap:butt; stroke-linejoin:round; stroke-width:2; stroke-opacity:0.1; fill:none" points="
  172.015,1447.87 2352.76,1447.87 
  "/>
<polyline clip-path="url(#clip312)" style="stroke:#000000; stroke-linecap:butt; stroke-linejoin:round; stroke-width:2; stroke-opacity:0.1; fill:none" points="
  172.015,1126.42 2352.76,1126.42 
  "/>
<polyline clip-path="url(#clip312)" style="stroke:#000000; stroke-linecap:butt; stroke-linejoin:round; stroke-width:2; stroke-opacity:0.1; fill:none" points="
  172.015,804.96 2352.76,804.96 
  "/>
<polyline clip-path="url(#clip312)" style="stroke:#000000; stroke-linecap:butt; stroke-linejoin:round; stroke-width:2; stroke-opacity:0.1; fill:none" points="
  172.015,483.503 2352.76,483.503 
  "/>
<polyline clip-path="url(#clip312)" style="stroke:#000000; stroke-linecap:butt; stroke-linejoin:round; stroke-width:2; stroke-opacity:0.1; fill:none" points="
  172.015,162.047 2352.76,162.047 
  "/>
<polyline clip-path="url(#clip310)" style="stroke:#000000; stroke-linecap:butt; stroke-linejoin:round; stroke-width:4; stroke-opacity:1; fill:none" points="
  172.015,1486.45 172.015,123.472 
  "/>
<polyline clip-path="url(#clip310)" style="stroke:#000000; stroke-linecap:butt; stroke-linejoin:round; stroke-width:4; stroke-opacity:1; fill:none" points="
  172.015,1447.87 198.184,1447.87 
  "/>
<polyline clip-path="url(#clip310)" style="stroke:#000000; stroke-linecap:butt; stroke-linejoin:round; stroke-width:4; stroke-opacity:1; fill:none" points="
  172.015,1126.42 198.184,1126.42 
  "/>
<polyline clip-path="url(#clip310)" style="stroke:#000000; stroke-linecap:butt; stroke-linejoin:round; stroke-width:4; stroke-opacity:1; fill:none" points="
  172.015,804.96 198.184,804.96 
  "/>
<polyline clip-path="url(#clip310)" style="stroke:#000000; stroke-linecap:butt; stroke-linejoin:round; stroke-width:4; stroke-opacity:1; fill:none" points="
  172.015,483.503 198.184,483.503 
  "/>
<polyline clip-path="url(#clip310)" style="stroke:#000000; stroke-linecap:butt; stroke-linejoin:round; stroke-width:4; stroke-opacity:1; fill:none" points="
  172.015,162.047 198.184,162.047 
  "/>
<path clip-path="url(#clip310)" d="M124.07 1433.67 Q120.459 1433.67 118.631 1437.24 Q116.825 1440.78 116.825 1447.91 Q116.825 1455.01 118.631 1458.58 Q120.459 1462.12 124.07 1462.12 Q127.705 1462.12 129.51 1458.58 Q131.339 1455.01 131.339 1447.91 Q131.339 1440.78 129.51 1437.24 Q127.705 1433.67 124.07 1433.67 M124.07 1429.97 Q129.881 1429.97 132.936 1434.57 Q136.015 1439.16 136.015 1447.91 Q136.015 1456.63 132.936 1461.24 Q129.881 1465.82 124.07 1465.82 Q118.26 1465.82 115.182 1461.24 Q112.126 1456.63 112.126 1447.91 Q112.126 1439.16 115.182 1434.57 Q118.26 1429.97 124.07 1429.97 Z" fill="#000000" fill-rule="evenodd" fill-opacity="1" /><path clip-path="url(#clip310)" d="M57.7745 1139.76 L74.0939 1139.76 L74.0939 1143.7 L52.1495 1143.7 L52.1495 1139.76 Q54.8115 1137.01 59.3949 1132.38 Q64.0013 1127.72 65.1819 1126.38 Q67.4272 1123.86 68.3068 1122.12 Q69.2096 1120.36 69.2096 1118.67 Q69.2096 1115.92 67.2652 1114.18 Q65.3439 1112.45 62.2421 1112.45 Q60.043 1112.45 57.5893 1113.21 Q55.1588 1113.97 52.381 1115.53 L52.381 1110.8 Q55.2051 1109.67 57.6588 1109.09 Q60.1124 1108.51 62.1495 1108.51 Q67.5198 1108.51 70.7142 1111.2 Q73.9087 1113.88 73.9087 1118.37 Q73.9087 1120.5 73.0985 1122.42 Q72.3115 1124.32 70.205 1126.91 Q69.6263 1127.59 66.5245 1130.8 Q63.4226 1134 57.7745 1139.76 Z" fill="#000000" fill-rule="evenodd" fill-opacity="1" /><path clip-path="url(#clip310)" d="M93.9086 1112.22 Q90.2975 1112.22 88.4688 1115.78 Q86.6632 1119.32 86.6632 1126.45 Q86.6632 1133.56 88.4688 1137.12 Q90.2975 1140.66 93.9086 1140.66 Q97.5428 1140.66 99.3483 1137.12 Q101.177 1133.56 101.177 1126.45 Q101.177 1119.32 99.3483 1115.78 Q97.5428 1112.22 93.9086 1112.22 M93.9086 1108.51 Q99.7187 1108.51 102.774 1113.12 Q105.853 1117.7 105.853 1126.45 Q105.853 1135.18 102.774 1139.78 Q99.7187 1144.37 93.9086 1144.37 Q88.0984 1144.37 85.0197 1139.78 Q81.9642 1135.18 81.9642 1126.45 Q81.9642 1117.7 85.0197 1113.12 Q88.0984 1108.51 93.9086 1108.51 Z" fill="#000000" fill-rule="evenodd" fill-opacity="1" /><path clip-path="url(#clip310)" d="M124.07 1112.22 Q120.459 1112.22 118.631 1115.78 Q116.825 1119.32 116.825 1126.45 Q116.825 1133.56 118.631 1137.12 Q120.459 1140.66 124.07 1140.66 Q127.705 1140.66 129.51 1137.12 Q131.339 1133.56 131.339 1126.45 Q131.339 1119.32 129.51 1115.78 Q127.705 1112.22 124.07 1112.22 M124.07 1108.51 Q129.881 1108.51 132.936 1113.12 Q136.015 1117.7 136.015 1126.45 Q136.015 1135.18 132.936 1139.78 Q129.881 1144.37 124.07 1144.37 Q118.26 1144.37 115.182 1139.78 Q112.126 1135.18 112.126 1126.45 Q112.126 1117.7 115.182 1113.12 Q118.26 1108.51 124.07 1108.51 Z" fill="#000000" fill-rule="evenodd" fill-opacity="1" /><path clip-path="url(#clip310)" d="M66.5939 791.754 L54.7884 810.203 L66.5939 810.203 L66.5939 791.754 M65.367 787.68 L71.2466 787.68 L71.2466 810.203 L76.1772 810.203 L76.1772 814.092 L71.2466 814.092 L71.2466 822.24 L66.5939 822.24 L66.5939 814.092 L50.9921 814.092 L50.9921 809.578 L65.367 787.68 Z" fill="#000000" fill-rule="evenodd" fill-opacity="1" /><path clip-path="url(#clip310)" d="M93.9086 790.759 Q90.2975 790.759 88.4688 794.323 Q86.6632 797.865 86.6632 804.995 Q86.6632 812.101 88.4688 815.666 Q90.2975 819.208 93.9086 819.208 Q97.5428 819.208 99.3483 815.666 Q101.177 812.101 101.177 804.995 Q101.177 797.865 99.3483 794.323 Q97.5428 790.759 93.9086 790.759 M93.9086 787.055 Q99.7187 787.055 102.774 791.661 Q105.853 796.245 105.853 804.995 Q105.853 813.722 102.774 818.328 Q99.7187 822.911 93.9086 822.911 Q88.0984 822.911 85.0197 818.328 Q81.9642 813.722 81.9642 804.995 Q81.9642 796.245 85.0197 791.661 Q88.0984 787.055 93.9086 787.055 Z" fill="#000000" fill-rule="evenodd" fill-opacity="1" /><path clip-path="url(#clip310)" d="M124.07 790.759 Q120.459 790.759 118.631 794.323 Q116.825 797.865 116.825 804.995 Q116.825 812.101 118.631 815.666 Q120.459 819.208 124.07 819.208 Q127.705 819.208 129.51 815.666 Q131.339 812.101 131.339 804.995 Q131.339 797.865 129.51 794.323 Q127.705 790.759 124.07 790.759 M124.07 787.055 Q129.881 787.055 132.936 791.661 Q136.015 796.245 136.015 804.995 Q136.015 813.722 132.936 818.328 Q129.881 822.911 124.07 822.911 Q118.26 822.911 115.182 818.328 Q112.126 813.722 112.126 804.995 Q112.126 796.245 115.182 791.661 Q118.26 787.055 124.07 787.055 Z" fill="#000000" fill-rule="evenodd" fill-opacity="1" /><path clip-path="url(#clip310)" d="M64.3254 481.64 Q61.1773 481.64 59.3254 483.793 Q57.4967 485.946 57.4967 489.696 Q57.4967 493.422 59.3254 495.598 Q61.1773 497.751 64.3254 497.751 Q67.4735 497.751 69.3022 495.598 Q71.1541 493.422 71.1541 489.696 Q71.1541 485.946 69.3022 483.793 Q67.4735 481.64 64.3254 481.64 M73.6077 466.987 L73.6077 471.247 Q71.8485 470.413 70.0429 469.973 Q68.2606 469.534 66.5013 469.534 Q61.8717 469.534 59.418 472.659 Q56.9875 475.784 56.6402 482.103 Q58.006 480.089 60.0662 479.024 Q62.1263 477.936 64.6032 477.936 Q69.8115 477.936 72.8207 481.108 Q75.8531 484.256 75.8531 489.696 Q75.8531 495.02 72.705 498.237 Q69.5568 501.455 64.3254 501.455 Q58.33 501.455 55.1588 496.871 Q51.9875 492.265 51.9875 483.538 Q51.9875 475.344 55.8764 470.483 Q59.7652 465.598 66.3161 465.598 Q68.0754 465.598 69.8578 465.946 Q71.6633 466.293 73.6077 466.987 Z" fill="#000000" fill-rule="evenodd" fill-opacity="1" /><path clip-path="url(#clip310)" d="M93.9086 469.302 Q90.2975 469.302 88.4688 472.867 Q86.6632 476.409 86.6632 483.538 Q86.6632 490.645 88.4688 494.209 Q90.2975 497.751 93.9086 497.751 Q97.5428 497.751 99.3483 494.209 Q101.177 490.645 101.177 483.538 Q101.177 476.409 99.3483 472.867 Q97.5428 469.302 93.9086 469.302 M93.9086 465.598 Q99.7187 465.598 102.774 470.205 Q105.853 474.788 105.853 483.538 Q105.853 492.265 102.774 496.871 Q99.7187 501.455 93.9086 501.455 Q88.0984 501.455 85.0197 496.871 Q81.9642 492.265 81.9642 483.538 Q81.9642 474.788 85.0197 470.205 Q88.0984 465.598 93.9086 465.598 Z" fill="#000000" fill-rule="evenodd" fill-opacity="1" /><path clip-path="url(#clip310)" d="M124.07 469.302 Q120.459 469.302 118.631 472.867 Q116.825 476.409 116.825 483.538 Q116.825 490.645 118.631 494.209 Q120.459 497.751 124.07 497.751 Q127.705 497.751 129.51 494.209 Q131.339 490.645 131.339 483.538 Q131.339 476.409 129.51 472.867 Q127.705 469.302 124.07 469.302 M124.07 465.598 Q129.881 465.598 132.936 470.205 Q136.015 474.788 136.015 483.538 Q136.015 492.265 132.936 496.871 Q129.881 501.455 124.07 501.455 Q118.26 501.455 115.182 496.871 Q112.126 492.265 112.126 483.538 Q112.126 474.788 115.182 470.205 Q118.26 465.598 124.07 465.598 Z" fill="#000000" fill-rule="evenodd" fill-opacity="1" /><path clip-path="url(#clip310)" d="M63.7467 162.915 Q60.4134 162.915 58.4921 164.697 Q56.5939 166.48 56.5939 169.605 Q56.5939 172.73 58.4921 174.512 Q60.4134 176.295 63.7467 176.295 Q67.08 176.295 69.0013 174.512 Q70.9226 172.707 70.9226 169.605 Q70.9226 166.48 69.0013 164.697 Q67.1032 162.915 63.7467 162.915 M59.0708 160.924 Q56.0615 160.183 54.3717 158.123 Q52.7051 156.063 52.7051 153.1 Q52.7051 148.957 55.6449 146.549 Q58.6078 144.142 63.7467 144.142 Q68.9087 144.142 71.8485 146.549 Q74.7883 148.957 74.7883 153.1 Q74.7883 156.063 73.0985 158.123 Q71.4318 160.183 68.4457 160.924 Q71.8253 161.711 73.7003 164.003 Q75.5985 166.295 75.5985 169.605 Q75.5985 174.628 72.5198 177.313 Q69.4642 179.998 63.7467 179.998 Q58.0291 179.998 54.9504 177.313 Q51.8949 174.628 51.8949 169.605 Q51.8949 166.295 53.793 164.003 Q55.6912 161.711 59.0708 160.924 M57.3578 153.54 Q57.3578 156.225 59.0245 157.73 Q60.7143 159.234 63.7467 159.234 Q66.7559 159.234 68.4457 157.73 Q70.1587 156.225 70.1587 153.54 Q70.1587 150.855 68.4457 149.35 Q66.7559 147.846 63.7467 147.846 Q60.7143 147.846 59.0245 149.35 Q57.3578 150.855 57.3578 153.54 Z" fill="#000000" fill-rule="evenodd" fill-opacity="1" /><path clip-path="url(#clip310)" d="M93.9086 147.846 Q90.2975 147.846 88.4688 151.41 Q86.6632 154.952 86.6632 162.082 Q86.6632 169.188 88.4688 172.753 Q90.2975 176.295 93.9086 176.295 Q97.5428 176.295 99.3483 172.753 Q101.177 169.188 101.177 162.082 Q101.177 154.952 99.3483 151.41 Q97.5428 147.846 93.9086 147.846 M93.9086 144.142 Q99.7187 144.142 102.774 148.748 Q105.853 153.332 105.853 162.082 Q105.853 170.808 102.774 175.415 Q99.7187 179.998 93.9086 179.998 Q88.0984 179.998 85.0197 175.415 Q81.9642 170.808 81.9642 162.082 Q81.9642 153.332 85.0197 148.748 Q88.0984 144.142 93.9086 144.142 Z" fill="#000000" fill-rule="evenodd" fill-opacity="1" /><path clip-path="url(#clip310)" d="M124.07 147.846 Q120.459 147.846 118.631 151.41 Q116.825 154.952 116.825 162.082 Q116.825 169.188 118.631 172.753 Q120.459 176.295 124.07 176.295 Q127.705 176.295 129.51 172.753 Q131.339 169.188 131.339 162.082 Q131.339 154.952 129.51 151.41 Q127.705 147.846 124.07 147.846 M124.07 144.142 Q129.881 144.142 132.936 148.748 Q136.015 153.332 136.015 162.082 Q136.015 170.808 132.936 175.415 Q129.881 179.998 124.07 179.998 Q118.26 179.998 115.182 175.415 Q112.126 170.808 112.126 162.082 Q112.126 153.332 115.182 148.748 Q118.26 144.142 124.07 144.142 Z" fill="#000000" fill-rule="evenodd" fill-opacity="1" /><path clip-path="url(#clip310)" d="M631.092 18.8205 L631.092 65.8515 L640.977 65.8515 Q653.494 65.8515 659.287 60.1802 Q665.12 54.509 665.12 42.2752 Q665.12 30.1225 659.287 24.4918 Q653.494 18.8205 640.977 18.8205 L631.092 18.8205 M622.91 12.096 L639.721 12.096 Q657.302 12.096 665.525 19.4281 Q673.748 26.7198 673.748 42.2752 Q673.748 57.9117 665.485 65.2439 Q657.221 72.576 639.721 72.576 L622.91 72.576 L622.91 12.096 Z" fill="#000000" fill-rule="evenodd" fill-opacity="1" /><path clip-path="url(#clip310)" d="M707.087 49.7694 Q698.054 49.7694 694.57 51.8354 Q691.086 53.9013 691.086 58.8839 Q691.086 62.8538 693.679 65.2034 Q696.312 67.5124 700.809 67.5124 Q707.006 67.5124 710.733 63.1374 Q714.501 58.7219 714.501 51.4303 L714.501 49.7694 L707.087 49.7694 M721.954 46.6907 L721.954 72.576 L714.501 72.576 L714.501 65.6895 Q711.948 69.8214 708.141 71.8063 Q704.333 73.7508 698.824 73.7508 Q691.856 73.7508 687.724 69.8619 Q683.633 65.9325 683.633 59.3701 Q683.633 51.7138 688.737 47.825 Q693.881 43.9361 704.049 43.9361 L714.501 43.9361 L714.501 43.2069 Q714.501 38.0623 711.098 35.2672 Q707.736 32.4315 701.619 32.4315 Q697.73 32.4315 694.044 33.3632 Q690.357 34.295 686.954 36.1584 L686.954 29.2718 Q691.046 27.692 694.894 26.9223 Q698.743 26.1121 702.388 26.1121 Q712.232 26.1121 717.093 31.2163 Q721.954 36.3204 721.954 46.6907 Z" fill="#000000" fill-rule="evenodd" fill-opacity="1" /><path clip-path="url(#clip310)" d="M744.68 14.324 L744.68 27.2059 L760.033 27.2059 L760.033 32.9987 L744.68 32.9987 L744.68 57.6282 Q744.68 63.1779 746.179 64.7578 Q747.718 66.3376 752.377 66.3376 L760.033 66.3376 L760.033 72.576 L752.377 72.576 Q743.748 72.576 740.467 69.3758 Q737.186 66.1351 737.186 57.6282 L737.186 32.9987 L731.717 32.9987 L731.717 27.2059 L737.186 27.2059 L737.186 14.324 L744.68 14.324 Z" fill="#000000" fill-rule="evenodd" fill-opacity="1" /><path clip-path="url(#clip310)" d="M790.455 49.7694 Q781.422 49.7694 777.938 51.8354 Q774.454 53.9013 774.454 58.8839 Q774.454 62.8538 777.047 65.2034 Q779.68 67.5124 784.176 67.5124 Q790.374 67.5124 794.101 63.1374 Q797.868 58.7219 797.868 51.4303 L797.868 49.7694 L790.455 49.7694 M805.322 46.6907 L805.322 72.576 L797.868 72.576 L797.868 65.6895 Q795.316 69.8214 791.508 71.8063 Q787.7 73.7508 782.191 73.7508 Q775.224 73.7508 771.092 69.8619 Q767 65.9325 767 59.3701 Q767 51.7138 772.104 47.825 Q777.249 43.9361 787.417 43.9361 L797.868 43.9361 L797.868 43.2069 Q797.868 38.0623 794.465 35.2672 Q791.103 32.4315 784.986 32.4315 Q781.097 32.4315 777.411 33.3632 Q773.725 34.295 770.322 36.1584 L770.322 29.2718 Q774.413 27.692 778.262 26.9223 Q782.11 26.1121 785.756 26.1121 Q795.6 26.1121 800.461 31.2163 Q805.322 36.3204 805.322 46.6907 Z" fill="#000000" fill-rule="evenodd" fill-opacity="1" /><path clip-path="url(#clip310)" d="M867.665 49.7694 Q858.632 49.7694 855.148 51.8354 Q851.664 53.9013 851.664 58.8839 Q851.664 62.8538 854.257 65.2034 Q856.89 67.5124 861.386 67.5124 Q867.584 67.5124 871.311 63.1374 Q875.078 58.7219 875.078 51.4303 L875.078 49.7694 L867.665 49.7694 M882.532 46.6907 L882.532 72.576 L875.078 72.576 L875.078 65.6895 Q872.526 69.8214 868.718 71.8063 Q864.911 73.7508 859.401 73.7508 Q852.434 73.7508 848.302 69.8619 Q844.211 65.9325 844.211 59.3701 Q844.211 51.7138 849.315 47.825 Q854.459 43.9361 864.627 43.9361 L875.078 43.9361 L875.078 43.2069 Q875.078 38.0623 871.676 35.2672 Q868.313 32.4315 862.197 32.4315 Q858.308 32.4315 854.621 33.3632 Q850.935 34.295 847.532 36.1584 L847.532 29.2718 Q851.624 27.692 855.472 26.9223 Q859.32 26.1121 862.966 26.1121 Q872.81 26.1121 877.671 31.2163 Q882.532 36.3204 882.532 46.6907 Z" fill="#000000" fill-rule="evenodd" fill-opacity="1" /><path clip-path="url(#clip310)" d="M935.599 45.1919 L935.599 72.576 L928.145 72.576 L928.145 45.4349 Q928.145 38.994 925.634 35.7938 Q923.122 32.5936 918.099 32.5936 Q912.063 32.5936 908.579 36.4419 Q905.096 40.2903 905.096 46.9338 L905.096 72.576 L897.601 72.576 L897.601 27.2059 L905.096 27.2059 L905.096 34.2544 Q907.769 30.163 911.375 28.1376 Q915.02 26.1121 919.76 26.1121 Q927.578 26.1121 931.589 30.9732 Q935.599 35.7938 935.599 45.1919 Z" fill="#000000" fill-rule="evenodd" fill-opacity="1" /><path clip-path="url(#clip310)" d="M980.321 34.0924 L980.321 9.54393 L987.775 9.54393 L987.775 72.576 L980.321 72.576 L980.321 65.7705 Q977.971 69.8214 974.366 71.8063 Q970.801 73.7508 965.778 73.7508 Q957.555 73.7508 952.37 67.1883 Q947.225 60.6258 947.225 49.9314 Q947.225 39.2371 952.37 32.6746 Q957.555 26.1121 965.778 26.1121 Q970.801 26.1121 974.366 28.0971 Q977.971 30.0415 980.321 34.0924 M954.922 49.9314 Q954.922 58.1548 958.284 62.8538 Q961.687 67.5124 967.601 67.5124 Q973.515 67.5124 976.918 62.8538 Q980.321 58.1548 980.321 49.9314 Q980.321 41.7081 976.918 37.0496 Q973.515 32.3505 967.601 32.3505 Q961.687 32.3505 958.284 37.0496 Q954.922 41.7081 954.922 49.9314 Z" fill="#000000" fill-rule="evenodd" fill-opacity="1" /><path clip-path="url(#clip310)" d="M1021.44 12.096 L1072.6 12.096 L1072.6 18.9825 L1051.13 18.9825 L1051.13 72.576 L1042.91 72.576 L1042.91 18.9825 L1021.44 18.9825 L1021.44 12.096 Z" fill="#000000" fill-rule="evenodd" fill-opacity="1" /><path clip-path="url(#clip310)" d="M1094.27 34.1734 Q1093.02 33.4443 1091.52 33.1202 Q1090.06 32.7556 1088.28 32.7556 Q1081.96 32.7556 1078.56 36.8875 Q1075.19 40.9789 1075.19 48.6757 L1075.19 72.576 L1067.7 72.576 L1067.7 27.2059 L1075.19 27.2059 L1075.19 34.2544 Q1077.54 30.1225 1081.31 28.1376 Q1085.08 26.1121 1090.46 26.1121 Q1091.23 26.1121 1092.17 26.2337 Q1093.1 26.3147 1094.23 26.5172 L1094.27 34.1734 Z" fill="#000000" fill-rule="evenodd" fill-opacity="1" /><path clip-path="url(#clip310)" d="M1101.32 54.671 L1101.32 27.2059 L1108.78 27.2059 L1108.78 54.3874 Q1108.78 60.8284 1111.29 64.0691 Q1113.8 67.2693 1118.82 67.2693 Q1124.86 67.2693 1128.34 63.421 Q1131.87 59.5726 1131.87 52.9291 L1131.87 27.2059 L1139.32 27.2059 L1139.32 72.576 L1131.87 72.576 L1131.87 65.6084 Q1129.15 69.7404 1125.55 71.7658 Q1121.98 73.7508 1117.24 73.7508 Q1109.42 73.7508 1105.37 68.8897 Q1101.32 64.0286 1101.32 54.671 M1120.08 26.1121 L1120.08 26.1121 Z" fill="#000000" fill-rule="evenodd" fill-opacity="1" /><path clip-path="url(#clip310)" d="M1193.48 48.0275 L1193.48 51.6733 L1159.21 51.6733 Q1159.69 59.3701 1163.83 63.421 Q1168 67.4314 1175.41 67.4314 Q1179.71 67.4314 1183.72 66.3781 Q1187.77 65.3249 1191.74 63.2184 L1191.74 70.267 Q1187.73 71.9684 1183.51 72.8596 Q1179.3 73.7508 1174.97 73.7508 Q1164.11 73.7508 1157.75 67.4314 Q1151.43 61.1119 1151.43 50.3365 Q1151.43 39.1965 1157.43 32.6746 Q1163.46 26.1121 1173.67 26.1121 Q1182.83 26.1121 1188.13 32.0264 Q1193.48 37.9003 1193.48 48.0275 M1186.03 45.84 Q1185.94 39.7232 1182.58 36.0774 Q1179.26 32.4315 1173.75 32.4315 Q1167.51 32.4315 1163.75 35.9558 Q1160.02 39.4801 1159.45 45.8805 L1186.03 45.84 Z" fill="#000000" fill-rule="evenodd" fill-opacity="1" /><path clip-path="url(#clip310)" d="M1268.66 14.0809 L1268.66 22.0612 Q1264.01 19.8332 1259.87 18.7395 Q1255.74 17.6457 1251.89 17.6457 Q1245.21 17.6457 1241.56 20.2383 Q1237.96 22.8309 1237.96 27.611 Q1237.96 31.6214 1240.35 33.6873 Q1242.78 35.7128 1249.5 36.9686 L1254.45 37.9813 Q1263.6 39.7232 1267.94 44.1387 Q1272.31 48.5136 1272.31 55.8863 Q1272.31 64.6767 1266.4 69.2137 Q1260.52 73.7508 1249.14 73.7508 Q1244.84 73.7508 1239.98 72.7785 Q1235.16 71.8063 1229.98 69.9024 L1229.98 61.4765 Q1234.96 64.2716 1239.74 65.6895 Q1244.52 67.1073 1249.14 67.1073 Q1256.15 67.1073 1259.95 64.3527 Q1263.76 61.598 1263.76 56.4939 Q1263.76 52.0379 1261.01 49.5264 Q1258.29 47.0148 1252.06 45.759 L1247.07 44.7868 Q1237.92 42.9639 1233.83 39.075 Q1229.74 35.1862 1229.74 28.2591 Q1229.74 20.2383 1235.37 15.6203 Q1241.04 11.0023 1250.96 11.0023 Q1255.22 11.0023 1259.63 11.7719 Q1264.05 12.5416 1268.66 14.0809 Z" fill="#000000" fill-rule="evenodd" fill-opacity="1" /><path clip-path="url(#clip310)" d="M1292.12 14.324 L1292.12 27.2059 L1307.47 27.2059 L1307.47 32.9987 L1292.12 32.9987 L1292.12 57.6282 Q1292.12 63.1779 1293.62 64.7578 Q1295.16 66.3376 1299.82 66.3376 L1307.47 66.3376 L1307.47 72.576 L1299.82 72.576 Q1291.19 72.576 1287.91 69.3758 Q1284.62 66.1351 1284.62 57.6282 L1284.62 32.9987 L1279.16 32.9987 L1279.16 27.2059 L1284.62 27.2059 L1284.62 14.324 L1292.12 14.324 Z" fill="#000000" fill-rule="evenodd" fill-opacity="1" /><path clip-path="url(#clip310)" d="M1337.89 49.7694 Q1328.86 49.7694 1325.38 51.8354 Q1321.89 53.9013 1321.89 58.8839 Q1321.89 62.8538 1324.49 65.2034 Q1327.12 67.5124 1331.62 67.5124 Q1337.81 67.5124 1341.54 63.1374 Q1345.31 58.7219 1345.31 51.4303 L1345.31 49.7694 L1337.89 49.7694 M1352.76 46.6907 L1352.76 72.576 L1345.31 72.576 L1345.31 65.6895 Q1342.76 69.8214 1338.95 71.8063 Q1335.14 73.7508 1329.63 73.7508 Q1322.66 73.7508 1318.53 69.8619 Q1314.44 65.9325 1314.44 59.3701 Q1314.44 51.7138 1319.54 47.825 Q1324.69 43.9361 1334.86 43.9361 L1345.31 43.9361 L1345.31 43.2069 Q1345.31 38.0623 1341.9 35.2672 Q1338.54 32.4315 1332.43 32.4315 Q1328.54 32.4315 1324.85 33.3632 Q1321.16 34.295 1317.76 36.1584 L1317.76 29.2718 Q1321.85 27.692 1325.7 26.9223 Q1329.55 26.1121 1333.2 26.1121 Q1343.04 26.1121 1347.9 31.2163 Q1352.76 36.3204 1352.76 46.6907 Z" fill="#000000" fill-rule="evenodd" fill-opacity="1" /><path clip-path="url(#clip310)" d="M1375.49 14.324 L1375.49 27.2059 L1390.84 27.2059 L1390.84 32.9987 L1375.49 32.9987 L1375.49 57.6282 Q1375.49 63.1779 1376.99 64.7578 Q1378.52 66.3376 1383.18 66.3376 L1390.84 66.3376 L1390.84 72.576 L1383.18 72.576 Q1374.55 72.576 1371.27 69.3758 Q1367.99 66.1351 1367.99 57.6282 L1367.99 32.9987 L1362.52 32.9987 L1362.52 27.2059 L1367.99 27.2059 L1367.99 14.324 L1375.49 14.324 Z" fill="#000000" fill-rule="evenodd" fill-opacity="1" /><path clip-path="url(#clip310)" d="M1400.64 27.2059 L1408.1 27.2059 L1408.1 72.576 L1400.64 72.576 L1400.64 27.2059 M1400.64 9.54393 L1408.1 9.54393 L1408.1 18.9825 L1400.64 18.9825 L1400.64 9.54393 Z" fill="#000000" fill-rule="evenodd" fill-opacity="1" /><path clip-path="url(#clip310)" d="M1452.62 28.5427 L1452.62 35.5912 Q1449.46 33.9709 1446.05 33.1607 Q1442.65 32.3505 1439 32.3505 Q1433.46 32.3505 1430.66 34.0519 Q1427.91 35.7533 1427.91 39.156 Q1427.91 41.7486 1429.89 43.2475 Q1431.88 44.7058 1437.87 46.0426 L1440.42 46.6097 Q1448.36 48.3111 1451.68 51.4303 Q1455.05 54.509 1455.05 60.0587 Q1455.05 66.3781 1450.02 70.0644 Q1445.04 73.7508 1436.29 73.7508 Q1432.64 73.7508 1428.67 73.0216 Q1424.75 72.3329 1420.37 70.9151 L1420.37 63.2184 Q1424.5 65.3654 1428.51 66.4591 Q1432.52 67.5124 1436.45 67.5124 Q1441.72 67.5124 1444.55 65.73 Q1447.39 63.9071 1447.39 60.6258 Q1447.39 57.5877 1445.32 55.9673 Q1443.3 54.3469 1436.37 52.8481 L1433.78 52.2405 Q1426.85 50.7821 1423.77 47.7845 Q1420.69 44.7463 1420.69 39.4801 Q1420.69 33.0797 1425.23 29.5959 Q1429.77 26.1121 1438.11 26.1121 Q1442.25 26.1121 1445.89 26.7198 Q1449.54 27.3274 1452.62 28.5427 Z" fill="#000000" fill-rule="evenodd" fill-opacity="1" /><path clip-path="url(#clip310)" d="M1474.29 14.324 L1474.29 27.2059 L1489.64 27.2059 L1489.64 32.9987 L1474.29 32.9987 L1474.29 57.6282 Q1474.29 63.1779 1475.79 64.7578 Q1477.33 66.3376 1481.98 66.3376 L1489.64 66.3376 L1489.64 72.576 L1481.98 72.576 Q1473.36 72.576 1470.08 69.3758 Q1466.79 66.1351 1466.79 57.6282 L1466.79 32.9987 L1461.33 32.9987 L1461.33 27.2059 L1466.79 27.2059 L1466.79 14.324 L1474.29 14.324 Z" fill="#000000" fill-rule="evenodd" fill-opacity="1" /><path clip-path="url(#clip310)" d="M1499.44 27.2059 L1506.9 27.2059 L1506.9 72.576 L1499.44 72.576 L1499.44 27.2059 M1499.44 9.54393 L1506.9 9.54393 L1506.9 18.9825 L1499.44 18.9825 L1499.44 9.54393 Z" fill="#000000" fill-rule="evenodd" fill-opacity="1" /><path clip-path="url(#clip310)" d="M1555.14 28.9478 L1555.14 35.9153 Q1551.98 34.1734 1548.78 33.3227 Q1545.62 32.4315 1542.38 32.4315 Q1535.13 32.4315 1531.12 37.0496 Q1527.11 41.6271 1527.11 49.9314 Q1527.11 58.2358 1531.12 62.8538 Q1535.13 67.4314 1542.38 67.4314 Q1545.62 67.4314 1548.78 66.5807 Q1551.98 65.6895 1555.14 63.9476 L1555.14 70.8341 Q1552.03 72.2924 1548.66 73.0216 Q1545.34 73.7508 1541.57 73.7508 Q1531.32 73.7508 1525.29 67.3098 Q1519.25 60.8689 1519.25 49.9314 Q1519.25 38.832 1525.33 32.472 Q1531.45 26.1121 1542.06 26.1121 Q1545.5 26.1121 1548.78 26.8413 Q1552.07 27.5299 1555.14 28.9478 Z" fill="#000000" fill-rule="evenodd" fill-opacity="1" /><path clip-path="url(#clip310)" d="M1588.73 49.7694 Q1579.69 49.7694 1576.21 51.8354 Q1572.73 53.9013 1572.73 58.8839 Q1572.73 62.8538 1575.32 65.2034 Q1577.95 67.5124 1582.45 67.5124 Q1588.65 67.5124 1592.37 63.1374 Q1596.14 58.7219 1596.14 51.4303 L1596.14 49.7694 L1588.73 49.7694 M1603.59 46.6907 L1603.59 72.576 L1596.14 72.576 L1596.14 65.6895 Q1593.59 69.8214 1589.78 71.8063 Q1585.97 73.7508 1580.46 73.7508 Q1573.49 73.7508 1569.36 69.8619 Q1565.27 65.9325 1565.27 59.3701 Q1565.27 51.7138 1570.38 47.825 Q1575.52 43.9361 1585.69 43.9361 L1596.14 43.9361 L1596.14 43.2069 Q1596.14 38.0623 1592.74 35.2672 Q1589.37 32.4315 1583.26 32.4315 Q1579.37 32.4315 1575.68 33.3632 Q1572 34.295 1568.59 36.1584 L1568.59 29.2718 Q1572.68 27.692 1576.53 26.9223 Q1580.38 26.1121 1584.03 26.1121 Q1593.87 26.1121 1598.73 31.2163 Q1603.59 36.3204 1603.59 46.6907 Z" fill="#000000" fill-rule="evenodd" fill-opacity="1" /><path clip-path="url(#clip310)" d="M1618.95 9.54393 L1626.4 9.54393 L1626.4 72.576 L1618.95 72.576 L1618.95 9.54393 Z" fill="#000000" fill-rule="evenodd" fill-opacity="1" /><path clip-path="url(#clip310)" d="M1668.69 12.096 L1680.88 12.096 L1696.32 53.2532 L1711.83 12.096 L1724.03 12.096 L1724.03 72.576 L1716.05 72.576 L1716.05 19.4686 L1700.45 60.9499 L1692.23 60.9499 L1676.63 19.4686 L1676.63 72.576 L1668.69 72.576 L1668.69 12.096 Z" fill="#000000" fill-rule="evenodd" fill-opacity="1" /><path clip-path="url(#clip310)" d="M1757.53 32.4315 Q1751.53 32.4315 1748.05 37.1306 Q1744.56 41.7891 1744.56 49.9314 Q1744.56 58.0738 1748.01 62.7728 Q1751.49 67.4314 1757.53 67.4314 Q1763.48 67.4314 1766.97 62.7323 Q1770.45 58.0333 1770.45 49.9314 Q1770.45 41.8701 1766.97 37.1711 Q1763.48 32.4315 1757.53 32.4315 M1757.53 26.1121 Q1767.25 26.1121 1772.8 32.4315 Q1778.35 38.7509 1778.35 49.9314 Q1778.35 61.0714 1772.8 67.4314 Q1767.25 73.7508 1757.53 73.7508 Q1747.76 73.7508 1742.21 67.4314 Q1736.71 61.0714 1736.71 49.9314 Q1736.71 38.7509 1742.21 32.4315 Q1747.76 26.1121 1757.53 26.1121 Z" fill="#000000" fill-rule="evenodd" fill-opacity="1" /><path clip-path="url(#clip310)" d="M1820.56 34.0924 L1820.56 9.54393 L1828.01 9.54393 L1828.01 72.576 L1820.56 72.576 L1820.56 65.7705 Q1818.21 69.8214 1814.6 71.8063 Q1811.04 73.7508 1806.02 73.7508 Q1797.79 73.7508 1792.61 67.1883 Q1787.46 60.6258 1787.46 49.9314 Q1787.46 39.2371 1792.61 32.6746 Q1797.79 26.1121 1806.02 26.1121 Q1811.04 26.1121 1814.6 28.0971 Q1818.21 30.0415 1820.56 34.0924 M1795.16 49.9314 Q1795.16 58.1548 1798.52 62.8538 Q1801.93 67.5124 1807.84 67.5124 Q1813.75 67.5124 1817.16 62.8538 Q1820.56 58.1548 1820.56 49.9314 Q1820.56 41.7081 1817.16 37.0496 Q1813.75 32.3505 1807.84 32.3505 Q1801.93 32.3505 1798.52 37.0496 Q1795.16 41.7081 1795.16 49.9314 Z" fill="#000000" fill-rule="evenodd" fill-opacity="1" /><path clip-path="url(#clip310)" d="M1882.17 48.0275 L1882.17 51.6733 L1847.9 51.6733 Q1848.39 59.3701 1852.52 63.421 Q1856.69 67.4314 1864.11 67.4314 Q1868.4 67.4314 1872.41 66.3781 Q1876.46 65.3249 1880.43 63.2184 L1880.43 70.267 Q1876.42 71.9684 1872.21 72.8596 Q1868 73.7508 1863.66 73.7508 Q1852.8 73.7508 1846.44 67.4314 Q1840.13 61.1119 1840.13 50.3365 Q1840.13 39.1965 1846.12 32.6746 Q1852.16 26.1121 1862.36 26.1121 Q1871.52 26.1121 1876.83 32.0264 Q1882.17 37.9003 1882.17 48.0275 M1874.72 45.84 Q1874.64 39.7232 1871.28 36.0774 Q1867.96 32.4315 1862.45 32.4315 Q1856.21 32.4315 1852.44 35.9558 Q1848.71 39.4801 1848.15 45.8805 L1874.72 45.84 Z" fill="#000000" fill-rule="evenodd" fill-opacity="1" /><path clip-path="url(#clip310)" d="M1894.41 9.54393 L1901.86 9.54393 L1901.86 72.576 L1894.41 72.576 L1894.41 9.54393 Z" fill="#000000" fill-rule="evenodd" fill-opacity="1" /><polyline clip-path="url(#clip312)" style="stroke:#009af9; stroke-linecap:butt; stroke-linejoin:round; stroke-width:4; stroke-opacity:1; fill:none" points="
  748.06,1447.87 748.06,1351.44 773.776,1351.44 773.776,1287.14 799.492,1287.14 799.492,1142.49 825.208,1142.49 825.208,1190.71 850.925,1190.71 850.925,1094.27 
  876.641,1094.27 876.641,869.251 902.357,869.251 902.357,1126.42 928.074,1126.42 928.074,853.178 953.79,853.178 953.79,949.615 979.506,949.615 979.506,788.887 
  1005.22,788.887 1005.22,917.47 1030.94,917.47 1030.94,837.106 1056.66,837.106 1056.66,869.251 1082.37,869.251 1082.37,804.96 1108.09,804.96 1108.09,1029.98 
  1133.8,1029.98 1133.8,1062.13 1159.52,1062.13 1159.52,1190.71 1185.24,1190.71 1185.24,1174.64 1210.95,1174.64 1210.95,1319.29 1236.67,1319.29 1236.67,1303.22 
  1262.39,1303.22 1262.39,1431.8 1288.1,1431.8 1288.1,1367.51 1313.82,1367.51 1313.82,1399.65 1339.53,1399.65 1339.53,1431.8 1365.25,1431.8 
  1390.97,1431.8 1390.97,1447.87 1416.68,1447.87 1416.68,1431.8 1442.4,1431.8 1442.4,1383.58 1468.12,1383.58 1468.12,1319.29 1493.83,1319.29 1493.83,1222.85 
  1519.55,1222.85 1519.55,1255 1545.26,1255 1545.26,981.761 1570.98,981.761 1570.98,965.688 1596.7,965.688 1596.7,933.543 1622.41,933.543 1622.41,692.45 
  1648.13,692.45 1648.13,515.649 1673.85,515.649 1673.85,419.212 1699.56,419.212 1699.56,306.702 1725.28,306.702 1725.28,194.193 1750.99,194.193 1750.99,370.994 
  1776.71,370.994 1776.71,162.047 1802.43,162.047 1802.43,370.994 1828.14,370.994 1828.14,306.702 1853.86,306.702 1853.86,338.848 1879.58,338.848 1879.58,628.159 
  1905.29,628.159 1905.29,772.814 1931.01,772.814 1931.01,1013.91 1956.73,1013.91 1956.73,1142.49 1982.44,1142.49 1982.44,1126.42 2008.16,1126.42 2008.16,1255 
  2033.87,1255 2033.87,1287.14 2059.59,1287.14 2059.59,1367.51 2085.31,1367.51 2085.31,1415.73 2111.02,1415.73 2136.74,1415.73 2136.74,1399.65 
  2162.46,1399.65 2162.46,1431.8 2188.17,1431.8 2188.17,1447.87 2213.89,1447.87 2213.89,1431.8 2239.6,1431.8 2239.6,1447.87 2265.32,1447.87 
  2291.04,1447.87 
  "/>
<polyline clip-path="url(#clip312)" style="stroke:#e26f46; stroke-linecap:butt; stroke-linejoin:round; stroke-width:4; stroke-opacity:1; fill:none" points="
  233.734,1447.87 236.306,1447.87 238.877,1447.87 241.449,1447.87 244.02,1447.87 246.592,1447.87 249.164,1447.87 251.735,1447.87 254.307,1447.87 256.879,1447.87 
  259.45,1447.87 262.022,1447.87 264.593,1447.87 267.165,1447.87 269.737,1447.87 272.308,1447.87 274.88,1447.87 277.452,1447.87 280.023,1447.87 282.595,1447.87 
  285.166,1447.87 287.738,1447.87 290.31,1447.87 292.881,1447.87 295.453,1447.87 298.025,1447.87 300.596,1447.87 303.168,1447.87 305.74,1447.87 308.311,1447.87 
  310.883,1447.87 313.454,1447.87 316.026,1447.87 318.598,1447.87 321.169,1447.87 323.741,1447.87 326.313,1447.87 328.884,1447.87 331.456,1447.87 334.027,1447.87 
  336.599,1447.87 339.171,1447.87 341.742,1447.87 344.314,1447.87 346.886,1447.87 349.457,1447.87 352.029,1447.87 354.6,1447.87 357.172,1447.87 359.744,1447.87 
  362.315,1447.87 364.887,1447.87 367.459,1447.87 370.03,1447.87 372.602,1447.87 375.173,1447.87 377.745,1447.87 380.317,1447.87 382.888,1447.87 385.46,1447.87 
  388.032,1447.87 390.603,1447.87 393.175,1447.87 395.747,1447.86 398.318,1447.86 400.89,1447.86 403.461,1447.86 406.033,1447.86 408.605,1447.86 411.176,1447.86 
  413.748,1447.86 416.32,1447.86 418.891,1447.85 421.463,1447.85 424.034,1447.85 426.606,1447.85 429.178,1447.84 431.749,1447.84 434.321,1447.84 436.893,1447.84 
  439.464,1447.83 442.036,1447.83 444.607,1447.83 447.179,1447.82 449.751,1447.82 452.322,1447.81 454.894,1447.81 457.466,1447.8 460.037,1447.79 462.609,1447.79 
  465.18,1447.78 467.752,1447.77 470.324,1447.76 472.895,1447.75 475.467,1447.74 478.039,1447.73 480.61,1447.72 483.182,1447.7 485.754,1447.69 488.325,1447.67 
  490.897,1447.66 493.468,1447.64 496.04,1447.62 498.612,1447.6 501.183,1447.58 503.755,1447.55 506.327,1447.53 508.898,1447.5 511.47,1447.47 514.041,1447.44 
  516.613,1447.4 519.185,1447.37 521.756,1447.33 524.328,1447.28 526.9,1447.24 529.471,1447.19 532.043,1447.14 534.614,1447.08 537.186,1447.02 539.758,1446.96 
  542.329,1446.89 544.901,1446.82 547.473,1446.74 550.044,1446.65 552.616,1446.57 555.187,1446.47 557.759,1446.37 560.331,1446.26 562.902,1446.15 565.474,1446.02 
  568.046,1445.89 570.617,1445.75 573.189,1445.61 575.761,1445.45 578.332,1445.28 580.904,1445.1 583.475,1444.92 586.047,1444.72 588.619,1444.5 591.19,1444.28 
  593.762,1444.04 596.334,1443.79 598.905,1443.52 601.477,1443.24 604.048,1442.94 606.62,1442.62 609.192,1442.29 611.763,1441.93 614.335,1441.56 616.907,1441.17 
  619.478,1440.75 622.05,1440.31 624.621,1439.85 627.193,1439.36 629.765,1438.85 632.336,1438.31 634.908,1437.74 637.48,1437.14 640.051,1436.51 642.623,1435.85 
  645.194,1435.15 647.766,1434.42 650.338,1433.65 652.909,1432.85 655.481,1432.01 658.053,1431.12 660.624,1430.2 663.196,1429.23 665.768,1428.21 668.339,1427.15 
  670.911,1426.04 673.482,1424.88 676.054,1423.67 678.626,1422.4 681.197,1421.08 683.769,1419.7 686.341,1418.26 688.912,1416.76 691.484,1415.2 694.055,1413.57 
  696.627,1411.88 699.199,1410.12 701.77,1408.28 704.342,1406.38 706.914,1404.4 709.485,1402.34 712.057,1400.21 714.628,1398 717.2,1395.7 719.772,1393.32 
  722.343,1390.86 724.915,1388.3 727.487,1385.66 730.058,1382.93 732.63,1380.1 735.201,1377.18 737.773,1374.16 740.345,1371.05 742.916,1367.83 745.488,1364.51 
  748.06,1361.09 750.631,1357.57 753.203,1353.94 755.775,1350.21 758.346,1346.36 760.918,1342.41 763.489,1338.35 766.061,1334.17 768.633,1329.89 771.204,1325.49 
  773.776,1320.98 776.348,1316.35 778.919,1311.61 781.491,1306.76 784.062,1301.79 786.634,1296.71 789.206,1291.51 791.777,1286.2 794.349,1280.78 796.921,1275.24 
  799.492,1269.59 802.064,1263.83 804.635,1257.96 807.207,1251.98 809.779,1245.89 812.35,1239.7 814.922,1233.4 817.494,1227.01 820.065,1220.51 822.637,1213.91 
  825.208,1207.22 827.78,1200.43 830.352,1193.56 832.923,1186.6 835.495,1179.56 838.067,1172.44 840.638,1165.24 843.21,1157.97 845.782,1150.63 848.353,1143.22 
  850.925,1135.76 853.496,1128.24 856.068,1120.68 858.64,1113.06 861.211,1105.41 863.783,1097.72 866.355,1090.01 868.926,1082.27 871.498,1074.51 874.069,1066.73 
  876.641,1058.96 879.213,1051.18 881.784,1043.41 884.356,1035.65 886.928,1027.91 889.499,1020.2 892.071,1012.52 894.642,1004.88 897.214,997.281 899.786,989.739 
  902.357,982.257 904.929,974.842 907.501,967.501 910.072,960.241 912.644,953.069 915.215,945.993 917.787,939.019 920.359,932.154 922.93,925.406 925.502,918.781 
  928.074,912.287 930.645,905.93 933.217,899.716 935.789,893.653 938.36,887.747 940.932,882.005 943.503,876.432 946.075,871.035 948.647,865.82 951.218,860.793 
  953.79,855.959 956.362,851.324 958.933,846.893 961.505,842.671 964.076,838.664 966.648,834.875 969.22,831.309 971.791,827.971 974.363,824.864 976.935,821.991 
  979.506,819.357 982.078,816.964 984.649,814.815 987.221,812.913 989.793,811.26 992.364,809.858 994.936,808.709 997.508,807.813 1000.08,807.173 1002.65,806.788 
  1005.22,806.66 1007.79,806.788 1010.37,807.173 1012.94,807.813 1015.51,808.709 1018.08,809.858 1020.65,811.26 1023.22,812.913 1025.8,814.815 1028.37,816.964 
  1030.94,819.357 1033.51,821.991 1036.08,824.864 1038.65,827.971 1041.23,831.309 1043.8,834.875 1046.37,838.664 1048.94,842.671 1051.51,846.893 1054.08,851.324 
  1056.66,855.959 1059.23,860.792 1061.8,865.82 1064.37,871.035 1066.94,876.431 1069.51,882.004 1072.08,887.747 1074.66,893.653 1077.23,899.716 1079.8,905.929 
  1082.37,912.286 1084.94,918.781 1087.51,925.405 1090.09,932.153 1092.66,939.018 1095.23,945.992 1097.8,953.068 1100.37,960.239 1102.94,967.499 1105.52,974.84 
  1108.09,982.255 1110.66,989.737 1113.23,997.279 1115.8,1004.87 1118.37,1012.52 1120.95,1020.2 1123.52,1027.91 1126.09,1035.65 1128.66,1043.41 1131.23,1051.18 
  1133.8,1058.95 1136.38,1066.73 1138.95,1074.5 1141.52,1082.26 1144.09,1090 1146.66,1097.72 1149.23,1105.4 1151.81,1113.05 1154.38,1120.67 1156.95,1128.23 
  1159.52,1135.75 1162.09,1143.21 1164.66,1150.61 1167.24,1157.95 1169.81,1165.22 1172.38,1172.41 1174.95,1179.54 1177.52,1186.58 1180.09,1193.53 1182.66,1200.4 
  1185.24,1207.19 1187.81,1213.87 1190.38,1220.47 1192.95,1226.96 1195.52,1233.36 1198.09,1239.65 1200.67,1245.84 1203.24,1251.92 1205.81,1257.89 1208.38,1263.76 
  1210.95,1269.51 1213.52,1275.15 1216.1,1280.68 1218.67,1286.1 1221.24,1291.4 1223.81,1296.59 1226.38,1301.66 1228.95,1306.61 1231.53,1311.45 1234.1,1316.18 
  1236.67,1320.79 1239.24,1325.28 1241.81,1329.66 1244.38,1333.93 1246.96,1338.08 1249.53,1342.12 1252.1,1346.05 1254.67,1349.87 1257.24,1353.58 1259.81,1357.17 
  1262.39,1360.66 1264.96,1364.05 1267.53,1367.33 1270.1,1370.5 1272.67,1373.57 1275.24,1376.54 1277.82,1379.41 1280.39,1382.18 1282.96,1384.85 1285.53,1387.43 
  1288.1,1389.92 1290.67,1392.31 1293.24,1394.61 1295.82,1396.82 1298.39,1398.94 1300.96,1400.98 1303.53,1402.93 1306.1,1404.8 1308.67,1406.58 1311.25,1408.29 
  1313.82,1409.91 1316.39,1411.46 1318.96,1412.93 1321.53,1414.33 1324.1,1415.65 1326.68,1416.89 1329.25,1418.07 1331.82,1419.18 1334.39,1420.21 1336.96,1421.18 
  1339.53,1422.08 1342.11,1422.91 1344.68,1423.68 1347.25,1424.38 1349.82,1425.02 1352.39,1425.59 1354.96,1426.09 1357.54,1426.54 1360.11,1426.92 1362.68,1427.23 
  1365.25,1427.49 1367.82,1427.68 1370.39,1427.8 1372.97,1427.87 1375.54,1427.87 1378.11,1427.8 1380.68,1427.68 1383.25,1427.48 1385.82,1427.22 1388.4,1426.9 
  1390.97,1426.5 1393.54,1426.04 1396.11,1425.51 1398.68,1424.91 1401.25,1424.23 1403.82,1423.49 1406.4,1422.67 1408.97,1421.77 1411.54,1420.79 1414.11,1419.73 
  1416.68,1418.6 1419.25,1417.37 1421.83,1416.07 1424.4,1414.67 1426.97,1413.18 1429.54,1411.61 1432.11,1409.93 1434.68,1408.16 1437.26,1406.29 1439.83,1404.31 
  1442.4,1402.23 1444.97,1400.04 1447.54,1397.74 1450.11,1395.32 1452.69,1392.78 1455.26,1390.12 1457.83,1387.34 1460.4,1384.43 1462.97,1381.39 1465.54,1378.22 
  1468.12,1374.9 1470.69,1371.44 1473.26,1367.84 1475.83,1364.09 1478.4,1360.19 1480.97,1356.13 1483.55,1351.91 1486.12,1347.53 1488.69,1342.98 1491.26,1338.26 
  1493.83,1333.37 1496.4,1328.3 1498.98,1323.04 1501.55,1317.61 1504.12,1311.98 1506.69,1306.17 1509.26,1300.15 1511.83,1293.95 1514.4,1287.54 1516.98,1280.92 
  1519.55,1274.1 1522.12,1267.07 1524.69,1259.83 1527.26,1252.37 1529.83,1244.7 1532.41,1236.8 1534.98,1228.69 1537.55,1220.35 1540.12,1211.79 1542.69,1203 
  1545.26,1193.99 1547.84,1184.75 1550.41,1175.27 1552.98,1165.57 1555.55,1155.64 1558.12,1145.48 1560.69,1135.1 1563.27,1124.48 1565.84,1113.64 1568.41,1102.57 
  1570.98,1091.27 1573.55,1079.75 1576.12,1068.02 1578.7,1056.06 1581.27,1043.89 1583.84,1031.5 1586.41,1018.91 1588.98,1006.12 1591.55,993.121 1594.13,979.93 
  1596.7,966.548 1599.27,952.981 1601.84,939.236 1604.41,925.317 1606.98,911.232 1609.56,896.987 1612.13,882.591 1614.7,868.05 1617.27,853.372 1619.84,838.567 
  1622.41,823.643 1624.99,808.609 1627.56,793.474 1630.13,778.249 1632.7,762.944 1635.27,747.569 1637.84,732.135 1640.41,716.654 1642.99,701.136 1645.56,685.594 
  1648.13,670.04 1650.7,654.486 1653.27,638.944 1655.84,623.428 1658.42,607.95 1660.99,592.523 1663.56,577.162 1666.13,561.879 1668.7,546.689 1671.27,531.604 
  1673.85,516.64 1676.42,501.81 1678.99,487.127 1681.56,472.608 1684.13,458.264 1686.7,444.112 1689.28,430.164 1691.85,416.435 1694.42,402.939 1696.99,389.689 
  1699.56,376.7 1702.13,363.986 1704.71,351.559 1707.28,339.433 1709.85,327.621 1712.42,316.136 1714.99,304.99 1717.56,294.197 1720.14,283.767 1722.71,273.712 
  1725.28,264.045 1727.85,254.775 1730.42,245.913 1732.99,237.47 1735.57,229.455 1738.14,221.877 1740.71,214.746 1743.28,208.069 1745.85,201.854 1748.42,196.109 
  1750.99,190.841 1753.57,186.055 1756.14,181.757 1758.71,177.953 1761.28,174.647 1763.85,171.843 1766.42,169.544 1769,167.753 1771.57,166.473 1774.14,165.703 
  1776.71,165.447 1779.28,165.703 1781.85,166.473 1784.43,167.753 1787,169.544 1789.57,171.843 1792.14,174.647 1794.71,177.953 1797.28,181.757 1799.86,186.055 
  1802.43,190.841 1805,196.109 1807.57,201.854 1810.14,208.069 1812.71,214.746 1815.29,221.877 1817.86,229.455 1820.43,237.47 1823,245.913 1825.57,254.775 
  1828.14,264.045 1830.72,273.712 1833.29,283.767 1835.86,294.197 1838.43,304.991 1841,316.136 1843.57,327.621 1846.15,339.433 1848.72,351.559 1851.29,363.986 
  1853.86,376.701 1856.43,389.69 1859,402.939 1861.57,416.435 1864.15,430.164 1866.72,444.112 1869.29,458.265 1871.86,472.608 1874.43,487.128 1877,501.81 
  1879.58,516.641 1882.15,531.605 1884.72,546.69 1887.29,561.88 1889.86,577.163 1892.43,592.525 1895.01,607.951 1897.58,623.429 1900.15,638.946 1902.72,654.488 
  1905.29,670.042 1907.86,685.597 1910.44,701.139 1913.01,716.657 1915.58,732.139 1918.15,747.573 1920.72,762.948 1923.29,778.254 1925.87,793.48 1928.44,808.615 
  1931.01,823.649 1933.58,838.574 1936.15,853.38 1938.72,868.058 1941.3,882.6 1943.87,896.998 1946.44,911.243 1949.01,925.329 1951.58,939.249 1954.15,952.996 
  1956.73,966.564 1959.3,979.948 1961.87,993.141 1964.44,1006.14 1967.01,1018.94 1969.58,1031.53 1972.15,1043.92 1974.73,1056.09 1977.3,1068.05 1979.87,1079.79 
  1982.44,1091.31 1985.01,1102.61 1987.58,1113.68 1990.16,1124.53 1992.73,1135.15 1995.3,1145.55 1997.87,1155.71 2000.44,1165.65 2003.01,1175.35 2005.59,1184.83 
  2008.16,1194.08 2010.73,1203.11 2013.3,1211.9 2015.87,1220.47 2018.44,1228.82 2021.02,1236.95 2023.59,1244.85 2026.16,1252.54 2028.73,1260.01 2031.3,1267.27 
  2033.87,1274.32 2036.45,1281.15 2039.02,1287.79 2041.59,1294.22 2044.16,1300.45 2046.73,1306.48 2049.3,1312.33 2051.88,1317.98 2054.45,1323.45 2057.02,1328.73 
  2059.59,1333.84 2062.16,1338.77 2064.73,1343.53 2067.31,1348.12 2069.88,1352.55 2072.45,1356.81 2075.02,1360.93 2077.59,1364.88 2080.16,1368.69 2082.73,1372.36 
  2085.31,1375.88 2087.88,1379.27 2090.45,1382.53 2093.02,1385.65 2095.59,1388.65 2098.16,1391.53 2100.74,1394.29 2103.31,1396.93 2105.88,1399.46 2108.45,1401.89 
  2111.02,1404.21 2113.59,1406.43 2116.17,1408.55 2118.74,1410.58 2121.31,1412.52 2123.88,1414.37 2126.45,1416.14 2129.02,1417.83 2131.6,1419.44 2134.17,1420.97 
  2136.74,1422.43 2139.31,1423.82 2141.88,1425.14 2144.45,1426.4 2147.03,1427.6 2149.6,1428.74 2152.17,1429.82 2154.74,1430.85 2157.31,1431.82 2159.88,1432.75 
  2162.46,1433.63 2165.03,1434.46 2167.6,1435.25 2170.17,1435.99 2172.74,1436.7 2175.31,1437.37 2177.89,1438 2180.46,1438.6 2183.03,1439.17 2185.6,1439.7 
  2188.17,1440.21 2190.74,1440.69 2193.31,1441.14 2195.89,1441.56 2198.46,1441.96 2201.03,1442.34 2203.6,1442.69 2206.17,1443.02 2208.74,1443.34 2211.32,1443.63 
  2213.89,1443.91 2216.46,1444.17 2219.03,1444.42 2221.6,1444.65 2224.17,1444.86 2226.75,1445.07 2229.32,1445.26 2231.89,1445.44 2234.46,1445.6 2237.03,1445.76 
  2239.6,1445.91 2242.18,1446.04 2244.75,1446.17 2247.32,1446.29 2249.89,1446.4 2252.46,1446.51 2255.03,1446.61 2257.61,1446.7 2260.18,1446.78 2262.75,1446.86 
  2265.32,1446.93 2267.89,1447 2270.46,1447.07 2273.04,1447.13 2275.61,1447.18 2278.18,1447.23 2280.75,1447.28 2283.32,1447.33 2285.89,1447.37 2288.47,1447.41 
  2291.04,1447.44 
  "/>
<path clip-path="url(#clip310)" d="
M1921.49 324.425 L2280.06 324.425 L2280.06 168.905 L1921.49 168.905  Z
  " fill="#ffffff" fill-rule="evenodd" fill-opacity="1"/>
<polyline clip-path="url(#clip310)" style="stroke:#000000; stroke-linecap:butt; stroke-linejoin:round; stroke-width:4; stroke-opacity:1; fill:none" points="
  1921.49,324.425 2280.06,324.425 2280.06,168.905 1921.49,168.905 1921.49,324.425 
  "/>
<polyline clip-path="url(#clip310)" style="stroke:#009af9; stroke-linecap:butt; stroke-linejoin:round; stroke-width:4; stroke-opacity:1; fill:none" points="
  1945.72,220.745 2091.1,220.745 
  "/>
<path clip-path="url(#clip310)" d="M2120.01 207.307 L2120.01 234.182 L2125.66 234.182 Q2132.81 234.182 2136.12 230.941 Q2139.45 227.701 2139.45 220.71 Q2139.45 213.766 2136.12 210.548 Q2132.81 207.307 2125.66 207.307 L2120.01 207.307 M2115.33 203.465 L2124.94 203.465 Q2134.98 203.465 2139.68 207.654 Q2144.38 211.821 2144.38 220.71 Q2144.38 229.645 2139.66 233.835 Q2134.94 238.025 2124.94 238.025 L2115.33 238.025 L2115.33 203.465 Z" fill="#000000" fill-rule="evenodd" fill-opacity="1" /><path clip-path="url(#clip310)" d="M2163.43 224.992 Q2158.27 224.992 2156.28 226.173 Q2154.29 227.353 2154.29 230.201 Q2154.29 232.469 2155.77 233.812 Q2157.28 235.131 2159.84 235.131 Q2163.39 235.131 2165.52 232.631 Q2167.67 230.108 2167.67 225.941 L2167.67 224.992 L2163.43 224.992 M2171.93 223.233 L2171.93 238.025 L2167.67 238.025 L2167.67 234.089 Q2166.21 236.451 2164.03 237.585 Q2161.86 238.696 2158.71 238.696 Q2154.73 238.696 2152.37 236.474 Q2150.03 234.228 2150.03 230.478 Q2150.03 226.103 2152.95 223.881 Q2155.89 221.659 2161.7 221.659 L2167.67 221.659 L2167.67 221.242 Q2167.67 218.303 2165.72 216.705 Q2163.8 215.085 2160.31 215.085 Q2158.09 215.085 2155.98 215.617 Q2153.87 216.15 2151.93 217.215 L2151.93 213.279 Q2154.27 212.377 2156.47 211.937 Q2158.66 211.474 2160.75 211.474 Q2166.37 211.474 2169.15 214.391 Q2171.93 217.307 2171.93 223.233 Z" fill="#000000" fill-rule="evenodd" fill-opacity="1" /><path clip-path="url(#clip310)" d="M2184.91 204.738 L2184.91 212.099 L2193.69 212.099 L2193.69 215.409 L2184.91 215.409 L2184.91 229.483 Q2184.91 232.654 2185.77 233.557 Q2186.65 234.46 2189.31 234.46 L2193.69 234.46 L2193.69 238.025 L2189.31 238.025 Q2184.38 238.025 2182.51 236.196 Q2180.63 234.344 2180.63 229.483 L2180.63 215.409 L2177.51 215.409 L2177.51 212.099 L2180.63 212.099 L2180.63 204.738 L2184.91 204.738 Z" fill="#000000" fill-rule="evenodd" fill-opacity="1" /><path clip-path="url(#clip310)" d="M2211.07 224.992 Q2205.91 224.992 2203.92 226.173 Q2201.93 227.353 2201.93 230.201 Q2201.93 232.469 2203.41 233.812 Q2204.91 235.131 2207.48 235.131 Q2211.03 235.131 2213.15 232.631 Q2215.31 230.108 2215.31 225.941 L2215.31 224.992 L2211.07 224.992 M2219.57 223.233 L2219.57 238.025 L2215.31 238.025 L2215.31 234.089 Q2213.85 236.451 2211.67 237.585 Q2209.5 238.696 2206.35 238.696 Q2202.37 238.696 2200.01 236.474 Q2197.67 234.228 2197.67 230.478 Q2197.67 226.103 2200.59 223.881 Q2203.53 221.659 2209.34 221.659 L2215.31 221.659 L2215.31 221.242 Q2215.31 218.303 2213.36 216.705 Q2211.44 215.085 2207.95 215.085 Q2205.72 215.085 2203.62 215.617 Q2201.51 216.15 2199.57 217.215 L2199.57 213.279 Q2201.9 212.377 2204.1 211.937 Q2206.3 211.474 2208.39 211.474 Q2214.01 211.474 2216.79 214.391 Q2219.57 217.307 2219.57 223.233 Z" fill="#000000" fill-rule="evenodd" fill-opacity="1" /><polyline clip-path="url(#clip310)" style="stroke:#e26f46; stroke-linecap:butt; stroke-linejoin:round; stroke-width:4; stroke-opacity:1; fill:none" points="
  1945.72,272.585 2091.1,272.585 
  "/>
<path clip-path="url(#clip310)" d="M2115.33 255.305 L2144.57 255.305 L2144.57 259.24 L2132.3 259.24 L2132.3 289.865 L2127.6 289.865 L2127.6 259.24 L2115.33 259.24 L2115.33 255.305 Z" fill="#000000" fill-rule="evenodd" fill-opacity="1" /><path clip-path="url(#clip310)" d="M2156.95 267.92 Q2156.23 267.504 2155.38 267.318 Q2154.54 267.11 2153.53 267.11 Q2149.91 267.11 2147.97 269.471 Q2146.05 271.809 2146.05 276.207 L2146.05 289.865 L2141.77 289.865 L2141.77 263.939 L2146.05 263.939 L2146.05 267.967 Q2147.39 265.606 2149.54 264.471 Q2151.7 263.314 2154.78 263.314 Q2155.22 263.314 2155.75 263.383 Q2156.28 263.43 2156.93 263.545 L2156.95 267.92 Z" fill="#000000" fill-rule="evenodd" fill-opacity="1" /><path clip-path="url(#clip310)" d="M2160.98 279.633 L2160.98 263.939 L2165.24 263.939 L2165.24 279.471 Q2165.24 283.152 2166.67 285.004 Q2168.11 286.832 2170.98 286.832 Q2174.43 286.832 2176.42 284.633 Q2178.43 282.434 2178.43 278.638 L2178.43 263.939 L2182.69 263.939 L2182.69 289.865 L2178.43 289.865 L2178.43 285.883 Q2176.88 288.244 2174.82 289.402 Q2172.78 290.536 2170.08 290.536 Q2165.61 290.536 2163.29 287.758 Q2160.98 284.98 2160.98 279.633 M2171.7 263.314 L2171.7 263.314 Z" fill="#000000" fill-rule="evenodd" fill-opacity="1" /><path clip-path="url(#clip310)" d="M2195.68 256.578 L2195.68 263.939 L2204.45 263.939 L2204.45 267.249 L2195.68 267.249 L2195.68 281.323 Q2195.68 284.494 2196.53 285.397 Q2197.41 286.3 2200.08 286.3 L2204.45 286.3 L2204.45 289.865 L2200.08 289.865 Q2195.15 289.865 2193.27 288.036 Q2191.4 286.184 2191.4 281.323 L2191.4 267.249 L2188.27 267.249 L2188.27 263.939 L2191.4 263.939 L2191.4 256.578 L2195.68 256.578 Z" fill="#000000" fill-rule="evenodd" fill-opacity="1" /><path clip-path="url(#clip310)" d="M2231.6 274.217 L2231.6 289.865 L2227.34 289.865 L2227.34 274.355 Q2227.34 270.675 2225.91 268.846 Q2224.47 267.018 2221.6 267.018 Q2218.15 267.018 2216.16 269.217 Q2214.17 271.416 2214.17 275.212 L2214.17 289.865 L2209.89 289.865 L2209.89 253.846 L2214.17 253.846 L2214.17 267.967 Q2215.7 265.629 2217.76 264.471 Q2219.84 263.314 2222.55 263.314 Q2227.02 263.314 2229.31 266.092 Q2231.6 268.846 2231.6 274.217 Z" fill="#000000" fill-rule="evenodd" fill-opacity="1" /></svg>
