<?xml version="1.0" encoding="utf-8"?>
<svg xmlns="http://www.w3.org/2000/svg" xmlns:xlink="http://www.w3.org/1999/xlink" width="600" height="400" viewBox="0 0 2400 1600">
<defs>
  <clipPath id="clip280">
    <rect x="0" y="0" width="2400" height="1600"/>
  </clipPath>
</defs>
<path clip-path="url(#clip280)" d="
M0 1600 L2400 1600 L2400 0 L0 0  Z
  " fill="#ffffff" fill-rule="evenodd" fill-opacity="1"/>
<defs>
  <clipPath id="clip281">
    <rect x="480" y="0" width="1681" height="1600"/>
  </clipPath>
</defs>
<path clip-path="url(#clip280)" d="
M172.015 1486.45 L2352.76 1486.45 L2352.76 123.472 L172.015 123.472  Z
  " fill="#ffffff" fill-rule="evenodd" fill-opacity="1"/>
<defs>
  <clipPath id="clip282">
    <rect x="172" y="123" width="2182" height="1364"/>
  </clipPath>
</defs>
<polyline clip-path="url(#clip282)" style="stroke:#000000; stroke-linecap:butt; stroke-linejoin:round; stroke-width:2; stroke-opacity:0.1; fill:none" points="
  233.734,1486.45 233.734,123.472 
  "/>
<polyline clip-path="url(#clip282)" style="stroke:#000000; stroke-linecap:butt; stroke-linejoin:round; stroke-width:2; stroke-opacity:0.1; fill:none" points="
  576.618,1486.45 576.618,123.472 
  "/>
<polyline clip-path="url(#clip282)" style="stroke:#000000; stroke-linecap:butt; stroke-linejoin:round; stroke-width:2; stroke-opacity:0.1; fill:none" points="
  919.502,1486.45 919.502,123.472 
  "/>
<polyline clip-path="url(#clip282)" style="stroke:#000000; stroke-linecap:butt; stroke-linejoin:round; stroke-width:2; stroke-opacity:0.1; fill:none" points="
  1262.39,1486.45 1262.39,123.472 
  "/>
<polyline clip-path="url(#clip282)" style="stroke:#000000; stroke-linecap:butt; stroke-linejoin:round; stroke-width:2; stroke-opacity:0.1; fill:none" points="
  1605.27,1486.45 1605.27,123.472 
  "/>
<polyline clip-path="url(#clip282)" style="stroke:#000000; stroke-linecap:butt; stroke-linejoin:round; stroke-width:2; stroke-opacity:0.1; fill:none" points="
  1948.15,1486.45 1948.15,123.472 
  "/>
<polyline clip-path="url(#clip282)" style="stroke:#000000; stroke-linecap:butt; stroke-linejoin:round; stroke-width:2; stroke-opacity:0.1; fill:none" points="
  2291.04,1486.45 2291.04,123.472 
  "/>
<polyline clip-path="url(#clip280)" style="stroke:#000000; stroke-linecap:butt; stroke-linejoin:round; stroke-width:4; stroke-opacity:1; fill:none" points="
  172.015,1486.45 2352.76,1486.45 
  "/>
<polyline clip-path="url(#clip280)" style="stroke:#000000; stroke-linecap:butt; stroke-linejoin:round; stroke-width:4; stroke-opacity:1; fill:none" points="
  233.734,1486.45 233.734,1470.09 
  "/>
<polyline clip-path="url(#clip280)" style="stroke:#000000; stroke-linecap:butt; stroke-linejoin:round; stroke-width:4; stroke-opacity:1; fill:none" points="
  576.618,1486.45 576.618,1470.09 
  "/>
<polyline clip-path="url(#clip280)" style="stroke:#000000; stroke-linecap:butt; stroke-linejoin:round; stroke-width:4; stroke-opacity:1; fill:none" points="
  919.502,1486.45 919.502,1470.09 
  "/>
<polyline clip-path="url(#clip280)" style="stroke:#000000; stroke-linecap:butt; stroke-linejoin:round; stroke-width:4; stroke-opacity:1; fill:none" points="
  1262.39,1486.45 1262.39,1470.09 
  "/>
<polyline clip-path="url(#clip280)" style="stroke:#000000; stroke-linecap:butt; stroke-linejoin:round; stroke-width:4; stroke-opacity:1; fill:none" points="
  1605.27,1486.45 1605.27,1470.09 
  "/>
<polyline clip-path="url(#clip280)" style="stroke:#000000; stroke-linecap:butt; stroke-linejoin:round; stroke-width:4; stroke-opacity:1; fill:none" points="
  1948.15,1486.45 1948.15,1470.09 
  "/>
<polyline clip-path="url(#clip280)" style="stroke:#000000; stroke-linecap:butt; stroke-linejoin:round; stroke-width:4; stroke-opacity:1; fill:none" points="
  2291.04,1486.45 2291.04,1470.09 
  "/>
<path clip-path="url(#clip280)" d="M203.676 1530.29 L233.352 1530.29 L233.352 1534.23 L203.676 1534.23 L203.676 1530.29 Z" fill="#000000" fill-rule="evenodd" fill-opacity="1" /><path clip-path="url(#clip280)" d="M247.472 1543.18 L263.792 1543.18 L263.792 1547.12 L241.847 1547.12 L241.847 1543.18 Q244.509 1540.43 249.093 1535.8 Q253.699 1531.15 254.88 1529.81 Q257.125 1527.28 258.005 1525.55 Q258.907 1523.79 258.907 1522.1 Q258.907 1519.34 256.963 1517.61 Q255.042 1515.87 251.94 1515.87 Q249.741 1515.87 247.287 1516.63 Q244.857 1517.4 242.079 1518.95 L242.079 1514.23 Q244.903 1513.09 247.357 1512.51 Q249.81 1511.93 251.847 1511.93 Q257.218 1511.93 260.412 1514.62 Q263.606 1517.31 263.606 1521.8 Q263.606 1523.93 262.796 1525.85 Q262.009 1527.74 259.903 1530.34 Q259.324 1531.01 256.222 1534.23 Q253.12 1537.42 247.472 1543.18 Z" fill="#000000" fill-rule="evenodd" fill-opacity="1" /><path clip-path="url(#clip280)" d="M546.375 1530.29 L576.051 1530.29 L576.051 1534.23 L546.375 1534.23 L546.375 1530.29 Z" fill="#000000" fill-rule="evenodd" fill-opacity="1" /><path clip-path="url(#clip280)" d="M586.953 1543.18 L594.592 1543.18 L594.592 1516.82 L586.282 1518.49 L586.282 1514.23 L594.546 1512.56 L599.222 1512.56 L599.222 1543.18 L606.861 1543.18 L606.861 1547.12 L586.953 1547.12 L586.953 1543.18 Z" fill="#000000" fill-rule="evenodd" fill-opacity="1" /><path clip-path="url(#clip280)" d="M919.502 1515.64 Q915.89 1515.64 914.062 1519.2 Q912.256 1522.75 912.256 1529.87 Q912.256 1536.98 914.062 1540.55 Q915.89 1544.09 919.502 1544.09 Q923.136 1544.09 924.941 1540.55 Q926.77 1536.98 926.77 1529.87 Q926.77 1522.75 924.941 1519.2 Q923.136 1515.64 919.502 1515.64 M919.502 1511.93 Q925.312 1511.93 928.367 1516.54 Q931.446 1521.12 931.446 1529.87 Q931.446 1538.6 928.367 1543.21 Q925.312 1547.79 919.502 1547.79 Q913.691 1547.79 910.613 1543.21 Q907.557 1538.6 907.557 1529.87 Q907.557 1521.12 910.613 1516.54 Q913.691 1511.93 919.502 1511.93 Z" fill="#000000" fill-rule="evenodd" fill-opacity="1" /><path clip-path="url(#clip280)" d="M1252.77 1543.18 L1260.41 1543.18 L1260.41 1516.82 L1252.1 1518.49 L1252.1 1514.23 L1260.36 1512.56 L1265.04 1512.56 L1265.04 1543.18 L1272.67 1543.18 L1272.67 1547.12 L1252.77 1547.12 L1252.77 1543.18 Z" fill="#000000" fill-rule="evenodd" fill-opacity="1" /><path clip-path="url(#clip280)" d="M1599.92 1543.18 L1616.24 1543.18 L1616.24 1547.12 L1594.3 1547.12 L1594.3 1543.18 Q1596.96 1540.43 1601.54 1535.8 Q1606.15 1531.15 1607.33 1529.81 Q1609.57 1527.28 1610.45 1525.55 Q1611.36 1523.79 1611.36 1522.1 Q1611.36 1519.34 1609.41 1517.61 Q1607.49 1515.87 1604.39 1515.87 Q1602.19 1515.87 1599.74 1516.63 Q1597.31 1517.4 1594.53 1518.95 L1594.53 1514.23 Q1597.35 1513.09 1599.81 1512.51 Q1602.26 1511.93 1604.3 1511.93 Q1609.67 1511.93 1612.86 1514.62 Q1616.06 1517.31 1616.06 1521.8 Q1616.06 1523.93 1615.25 1525.85 Q1614.46 1527.74 1612.35 1530.34 Q1611.77 1531.01 1608.67 1534.23 Q1605.57 1537.42 1599.92 1543.18 Z" fill="#000000" fill-rule="evenodd" fill-opacity="1" /><path clip-path="url(#clip280)" d="M1952.4 1528.49 Q1955.76 1529.2 1957.63 1531.47 Q1959.53 1533.74 1959.53 1537.07 Q1959.53 1542.19 1956.01 1544.99 Q1952.49 1547.79 1946.01 1547.79 Q1943.84 1547.79 1941.52 1547.35 Q1939.23 1546.93 1936.78 1546.08 L1936.78 1541.56 Q1938.72 1542.7 1941.03 1543.28 Q1943.35 1543.86 1945.87 1543.86 Q1950.27 1543.86 1952.56 1542.12 Q1954.88 1540.38 1954.88 1537.07 Q1954.88 1534.02 1952.72 1532.31 Q1950.6 1530.57 1946.78 1530.57 L1942.75 1530.57 L1942.75 1526.73 L1946.96 1526.73 Q1950.41 1526.73 1952.24 1525.36 Q1954.07 1523.97 1954.07 1521.38 Q1954.07 1518.72 1952.17 1517.31 Q1950.29 1515.87 1946.78 1515.87 Q1944.85 1515.87 1942.66 1516.29 Q1940.46 1516.7 1937.82 1517.58 L1937.82 1513.42 Q1940.48 1512.68 1942.79 1512.31 Q1945.13 1511.93 1947.19 1511.93 Q1952.52 1511.93 1955.62 1514.37 Q1958.72 1516.77 1958.72 1520.89 Q1958.72 1523.76 1957.08 1525.75 Q1955.43 1527.72 1952.4 1528.49 Z" fill="#000000" fill-rule="evenodd" fill-opacity="1" /><path clip-path="url(#clip280)" d="M2294.05 1516.63 L2282.24 1535.08 L2294.05 1535.08 L2294.05 1516.63 M2292.82 1512.56 L2298.7 1512.56 L2298.7 1535.08 L2303.63 1535.08 L2303.63 1538.97 L2298.7 1538.97 L2298.7 1547.12 L2294.05 1547.12 L2294.05 1538.97 L2278.44 1538.97 L2278.44 1534.46 L2292.82 1512.56 Z" fill="#000000" fill-rule="evenodd" fill-opacity="1" /><polyline clip-path="url(#clip282)" style="stroke:#000000; stroke-linecap:butt; stroke-linejoin:round; stroke-width:2; stroke-opacity:0.1; fill:none" points="
  172.015,1447.87 2352.76,1447.87 
  "/>
<polyline clip-path="url(#clip282)" style="stroke:#000000; stroke-linecap:butt; stroke-linejoin:round; stroke-width:2; stroke-opacity:0.1; fill:none" points="
  172.015,1126.42 2352.76,1126.42 
  "/>
<polyline clip-path="url(#clip282)" style="stroke:#000000; stroke-linecap:butt; stroke-linejoin:round; stroke-width:2; stroke-opacity:0.1; fill:none" points="
  172.015,804.96 2352.76,804.96 
  "/>
<polyline clip-path="url(#clip282)" style="stroke:#000000; stroke-linecap:butt; stroke-linejoin:round; stroke-width:2; stroke-opacity:0.1; fill:none" points="
  172.015,483.503 2352.76,483.503 
  "/>
<polyline clip-path="url(#clip282)" style="stroke:#000000; stroke-linecap:butt; stroke-linejoin:round; stroke-width:2; stroke-opacity:0.1; fill:none" points="
  172.015,162.047 2352.76,162.047 
  "/>
<polyline clip-path="url(#clip280)" style="stroke:#000000; stroke-linecap:butt; stroke-linejoin:round; stroke-width:4; stroke-opacity:1; fill:none" points="
  172.015,1486.45 172.015,123.472 
  "/>
<polyline clip-path="url(#clip280)" style="stroke:#000000; stroke-linecap:butt; stroke-linejoin:round; stroke-width:4; stroke-opacity:1; fill:none" points="
  172.015,1447.87 198.184,1447.87 
  "/>
<polyline clip-path="url(#clip280)" style="stroke:#000000; stroke-linecap:butt; stroke-linejoin:round; stroke-width:4; stroke-opacity:1; fill:none" points="
  172.015,1126.42 198.184,1126.42 
  "/>
<polyline clip-path="url(#clip280)" style="stroke:#000000; stroke-linecap:butt; stroke-linejoin:round; stroke-width:4; stroke-opacity:1; fill:none" points="
  172.015,804.96 198.184,804.96 
  "/>
<polyline clip-path="url(#clip280)" style="stroke:#000000; stroke-linecap:butt; stroke-linejoin:round; stroke-width:4; stroke-opacity:1; fill:none" points="
  172.015,483.503 198.184,483.503 
  "/>
<polyline clip-path="url(#clip280)" style="stroke:#000000; stroke-linecap:butt; stroke-linejoin:round; stroke-width:4; stroke-opacity:1; fill:none" points="
  172.015,162.047 198.184,162.047 
  "/>
<path clip-path="url(#clip280)" d="M124.07 1433.67 Q120.459 1433.67 118.631 1437.24 Q116.825 1440.78 116.825 1447.91 Q116.825 1455.01 118.631 1458.58 Q120.459 1462.12 124.07 1462.12 Q127.705 1462.12 129.51 1458.58 Q131.339 1455.01 131.339 1447.91 Q131.339 1440.78 129.51 1437.24 Q127.705 1433.67 124.07 1433.67 M124.07 1429.97 Q129.881 1429.97 132.936 1434.57 Q136.015 1439.16 136.015 1447.91 Q136.015 1456.63 132.936 1461.24 Q129.881 1465.82 124.07 1465.82 Q118.26 1465.82 115.182 1461.24 Q112.126 1456.63 112.126 1447.91 Q112.126 1439.16 115.182 1434.57 Q118.26 1429.97 124.07 1429.97 Z" fill="#000000" fill-rule="evenodd" fill-opacity="1" /><path clip-path="url(#clip280)" d="M57.7745 1139.76 L74.0939 1139.76 L74.0939 1143.7 L52.1495 1143.7 L52.1495 1139.76 Q54.8115 1137.01 59.3949 1132.38 Q64.0013 1127.72 65.1819 1126.38 Q67.4272 1123.86 68.3068 1122.12 Q69.2096 1120.36 69.2096 1118.67 Q69.2096 1115.92 67.2652 1114.18 Q65.3439 1112.45 62.2421 1112.45 Q60.043 1112.45 57.5893 1113.21 Q55.1588 1113.97 52.381 1115.53 L52.381 1110.8 Q55.2051 1109.67 57.6588 1109.09 Q60.1124 1108.51 62.1495 1108.51 Q67.5198 1108.51 70.7142 1111.2 Q73.9087 1113.88 73.9087 1118.37 Q73.9087 1120.5 73.0985 1122.42 Q72.3115 1124.32 70.205 1126.91 Q69.6263 1127.59 66.5245 1130.8 Q63.4226 1134 57.7745 1139.76 Z" fill="#000000" fill-rule="evenodd" fill-opacity="1" /><path clip-path="url(#clip280)" d="M93.9086 1112.22 Q90.2975 1112.22 88.4688 1115.78 Q86.6632 1119.32 86.6632 1126.45 Q86.6632 1133.56 88.4688 1137.12 Q90.2975 1140.66 93.9086 1140.66 Q97.5428 1140.66 99.3483 1137.12 Q101.177 1133.56 101.177 1126.45 Q101.177 1119.32 99.3483 1115.78 Q97.5428 1112.22 93.9086 1112.22 M93.9086 1108.51 Q99.7187 1108.51 102.774 1113.12 Q105.853 1117.7 105.853 1126.45 Q105.853 1135.18 102.774 1139.78 Q99.7187 1144.37 93.9086 1144.37 Q88.0984 1144.37 85.0197 1139.78 Q81.9642 1135.18 81.9642 1126.45 Q81.9642 1117.7 85.0197 1113.12 Q88.0984 1108.51 93.9086 1108.51 Z" fill="#000000" fill-rule="evenodd" fill-opacity="1" /><path clip-path="url(#clip280)" d="M124.07 1112.22 Q120.459 1112.22 118.631 1115.78 Q116.825 1119.32 116.825 1126.45 Q116.825 1133.56 118.631 1137.12 Q120.459 1140.66 124.07 1140.66 Q127.705 1140.66 129.51 1137.12 Q131.339 1133.56 131.339 1126.45 Q131.339 1119.32 129.51 1115.78 Q127.705 1112.22 124.07 1112.22 M124.07 1108.51 Q129.881 1108.51 132.936 1113.12 Q136.015 1117.7 136.015 1126.45 Q136.015 1135.18 132.936 1139.78 Q129.881 1144.37 124.07 1144.37 Q118.26 1144.37 115.182 1139.78 Q112.126 1135.18 112.126 1126.45 Q112.126 1117.7 115.182 1113.12 Q118.26 1108.51 124.07 1108.51 Z" fill="#000000" fill-rule="evenodd" fill-opacity="1" /><path clip-path="url(#clip280)" d="M66.5939 791.754 L54.7884 810.203 L66.5939 810.203 L66.5939 791.754 M65.367 787.68 L71.2466 787.68 L71.2466 810.203 L76.1772 810.203 L76.1772 814.092 L71.2466 814.092 L71.2466 822.24 L66.5939 822.24 L66.5939 814.092 L50.9921 814.092 L50.9921 809.578 L65.367 787.68 Z" fill="#000000" fill-rule="evenodd" fill-opacity="1" /><path clip-path="url(#clip280)" d="M93.9086 790.759 Q90.2975 790.759 88.4688 794.323 Q86.6632 797.865 86.6632 804.995 Q86.6632 812.101 88.4688 815.666 Q90.2975 819.208 93.9086 819.208 Q97.5428 819.208 99.3483 815.666 Q101.177 812.101 101.177 804.995 Q101.177 797.865 99.3483 794.323 Q97.5428 790.759 93.9086 790.759 M93.9086 787.055 Q99.7187 787.055 102.774 791.661 Q105.853 796.245 105.853 804.995 Q105.853 813.722 102.774 818.328 Q99.7187 822.911 93.9086 822.911 Q88.0984 822.911 85.0197 818.328 Q81.9642 813.722 81.9642 804.995 Q81.9642 796.245 85.0197 791.661 Q88.0984 787.055 93.9086 787.055 Z" fill="#000000" fill-rule="evenodd" fill-opacity="1" /><path clip-path="url(#clip280)" d="M124.07 790.759 Q120.459 790.759 118.631 794.323 Q116.825 797.865 116.825 804.995 Q116.825 812.101 118.631 815.666 Q120.459 819.208 124.07 819.208 Q127.705 819.208 129.51 815.666 Q131.339 812.101 131.339 804.995 Q131.339 797.865 129.51 794.323 Q127.705 790.759 124.07 790.759 M124.07 787.055 Q129.881 787.055 132.936 791.661 Q136.015 796.245 136.015 804.995 Q136.015 813.722 132.936 818.328 Q129.881 822.911 124.07 822.911 Q118.26 822.911 115.182 818.328 Q112.126 813.722 112.126 804.995 Q112.126 796.245 115.182 791.661 Q118.26 787.055 124.07 787.055 Z" fill="#000000" fill-rule="evenodd" fill-opacity="1" /><path clip-path="url(#clip280)" d="M64.3254 481.64 Q61.1773 481.64 59.3254 483.793 Q57.4967 485.946 57.4967 489.696 Q57.4967 493.422 59.3254 495.598 Q61.1773 497.751 64.3254 497.751 Q67.4735 497.751 69.3022 495.598 Q71.1541 493.422 71.1541 489.696 Q71.1541 485.946 69.3022 483.793 Q67.4735 481.64 64.3254 481.64 M73.6077 466.987 L73.6077 471.247 Q71.8485 470.413 70.0429 469.973 Q68.2606 469.534 66.5013 469.534 Q61.8717 469.534 59.418 472.659 Q56.9875 475.784 56.6402 482.103 Q58.006 480.089 60.0662 479.024 Q62.1263 477.936 64.6032 477.936 Q69.8115 477.936 72.8207 481.108 Q75.8531 484.256 75.8531 489.696 Q75.8531 495.02 72.705 498.237 Q69.5568 501.455 64.3254 501.455 Q58.33 501.455 55.1588 496.871 Q51.9875 492.265 51.9875 483.538 Q51.9875 475.344 55.8764 470.483 Q59.7652 465.598 66.3161 465.598 Q68.0754 465.598 69.8578 465.946 Q71.6633 466.293 73.6077 466.987 Z" fill="#000000" fill-rule="evenodd" fill-opacity="1" /><path clip-path="url(#clip280)" d="M93.9086 469.302 Q90.2975 469.302 88.4688 472.867 Q86.6632 476.409 86.6632 483.538 Q86.6632 490.645 88.4688 494.209 Q90.2975 497.751 93.9086 497.751 Q97.5428 497.751 99.3483 494.209 Q101.177 490.645 101.177 483.538 Q101.177 476.409 99.3483 472.867 Q97.5428 469.302 93.9086 469.302 M93.9086 465.598 Q99.7187 465.598 102.774 470.205 Q105.853 474.788 105.853 483.538 Q105.853 492.265 102.774 496.871 Q99.7187 501.455 93.9086 501.455 Q88.0984 501.455 85.0197 496.871 Q81.9642 492.265 81.9642 483.538 Q81.9642 474.788 85.0197 470.205 Q88.0984 465.598 93.9086 465.598 Z" fill="#000000" fill-rule="evenodd" fill-opacity="1" /><path clip-path="url(#clip280)" d="M124.07 469.302 Q120.459 469.302 118.631 472.867 Q116.825 476.409 116.825 483.538 Q116.825 490.645 118.631 494.209 Q120.459 497.751 124.07 497.751 Q127.705 497.751 129.51 494.209 Q131.339 490.645 131.339 483.538 Q131.339 476.409 129.51 472.867 Q127.705 469.302 124.07 469.302 M124.07 465.598 Q129.881 465.598 132.936 470.205 Q136.015 474.788 136.015 483.538 Q136.015 492.265 132.936 496.871 Q129.881 501.455 124.07 501.455 Q118.26 501.455 115.182 496.871 Q112.126 492.265 112.126 483.538 Q112.126 474.788 115.182 470.205 Q118.26 465.598 124.07 465.598 Z" fill="#000000" fill-rule="evenodd" fill-opacity="1" /><path clip-path="url(#clip280)" d="M63.7467 162.915 Q60.4134 162.915 58.4921 164.697 Q56.5939 166.48 56.5939 169.605 Q56.5939 172.73 58.4921 174.512 Q60.4134 176.295 63.7467 176.295 Q67.08 176.295 69.0013 174.512 Q70.9226 172.707 70.9226 169.605 Q70.9226 166.48 69.0013 164.697 Q67.1032 162.915 63.7467 162.915 M59.0708 160.924 Q56.0615 160.183 54.3717 158.123 Q52.7051 156.063 52.7051 153.1 Q52.7051 148.957 55.6449 146.549 Q58.6078 144.142 63.7467 144.142 Q68.9087 144.142 71.8485 146.549 Q74.7883 148.957 74.7883 153.1 Q74.7883 156.063 73.0985 158.123 Q71.4318 160.183 68.4457 160.924 Q71.8253 161.711 73.7003 164.003 Q75.5985 166.295 75.5985 169.605 Q75.5985 174.628 72.5198 177.313 Q69.4642 179.998 63.7467 179.998 Q58.0291 179.998 54.9504 177.313 Q51.8949 174.628 51.8949 169.605 Q51.8949 166.295 53.793 164.003 Q55.6912 161.711 59.0708 160.924 M57.3578 153.54 Q57.3578 156.225 59.0245 157.73 Q60.7143 159.234 63.7467 159.234 Q66.7559 159.234 68.4457 157.73 Q70.1587 156.225 70.1587 153.54 Q70.1587 150.855 68.4457 149.35 Q66.7559 147.846 63.7467 147.846 Q60.7143 147.846 59.0245 149.35 Q57.3578 150.855 57.3578 153.54 Z" fill="#000000" fill-rule="evenodd" fill-opacity="1" /><path clip-path="url(#clip280)" d="M93.9086 147.846 Q90.2975 147.846 88.4688 151.41 Q86.6632 154.952 86.6632 162.082 Q86.6632 169.188 88.4688 172.753 Q90.2975 176.295 93.9086 176.295 Q97.5428 176.295 99.3483 172.753 Q101.177 169.188 101.177 162.082 Q101.177 154.952 99.3483 151.41 Q97.5428 147.846 93.9086 147.846 M93.9086 144.142 Q99.7187 144.142 102.774 148.748 Q105.853 153.332 105.853 162.082 Q105.853 170.808 102.774 175.415 Q99.7187 179.998 93.9086 179.998 Q88.0984 179.998 85.0197 175.415 Q81.9642 170.808 81.9642 162.082 Q81.9642 153.332 85.0197 148.748 Q88.0984 144.142 93.9086 144.142 Z" fill="#000000" fill-rule="evenodd" fill-opacity="1" /><path clip-path="url(#clip280)" d="M124.07 147.846 Q120.459 147.846 118.631 151.41 Q116.825 154.952 116.825 162.082 Q116.825 169.188 118.631 172.753 Q120.459 176.295 124.07 176.295 Q127.705 176.295 129.51 172.753 Q131.339 169.188 131.339 162.082 Q131.339 154.952 129.51 151.41 Q127.705 147.846 124.07 147.846 M124.07 144.142 Q129.881 144.142 132.936 148.748 Q136.015 153.332 136.015 162.082 Q136.015 170.808 132.936 175.415 Q129.881 179.998 124.07 179.998 Q118.26 179.998 115.182 175.415 Q112.126 170.808 112.126 162.082 Q112.126 153.332 115.182 148.748 Q118.26 144.142 124.07 144.142 Z" fill="#000000" fill-rule="evenodd" fill-opacity="1" /><path clip-path="url(#clip280)" d="M1179.36 18.8205 L1179.36 65.8515 L1189.25 65.8515 Q1201.76 65.8515 1207.56 60.1802 Q1213.39 54.509 1213.39 42.2752 Q1213.39 30.1225 1207.56 24.4918 Q1201.76 18.8205 1189.25 18.8205 L1179.36 18.8205 M1171.18 12.096 L1187.99 12.096 Q1205.57 12.096 1213.79 19.4281 Q1222.02 26.7198 1222.02 42.2752 Q1222.02 57.9117 1213.75 65.2439 Q1205.49 72.576 1187.99 72.576 L1171.18 72.576 L1171.18 12.096 Z" fill="#000000" fill-rule="evenodd" fill-opacity="1" /><path clip-path="url(#clip280)" d="M1255.36 49.7694 Q1246.32 49.7694 1242.84 51.8354 Q1239.36 53.9013 1239.36 58.8839 Q1239.36 62.8538 1241.95 65.2034 Q1244.58 67.5124 1249.08 67.5124 Q1255.28 67.5124 1259 63.1374 Q1262.77 58.7219 1262.77 51.4303 L1262.77 49.7694 L1255.36 49.7694 M1270.22 46.6907 L1270.22 72.576 L1262.77 72.576 L1262.77 65.6895 Q1260.22 69.8214 1256.41 71.8063 Q1252.6 73.7508 1247.09 73.7508 Q1240.13 73.7508 1235.99 69.8619 Q1231.9 65.9325 1231.9 59.3701 Q1231.9 51.7138 1237.01 47.825 Q1242.15 43.9361 1252.32 43.9361 L1262.77 43.9361 L1262.77 43.2069 Q1262.77 38.0623 1259.37 35.2672 Q1256.01 32.4315 1249.89 32.4315 Q1246 32.4315 1242.31 33.3632 Q1238.63 34.295 1235.22 36.1584 L1235.22 29.2718 Q1239.32 27.692 1243.16 26.9223 Q1247.01 26.1121 1250.66 26.1121 Q1260.5 26.1121 1265.36 31.2163 Q1270.22 36.3204 1270.22 46.6907 Z" fill="#000000" fill-rule="evenodd" fill-opacity="1" /><path clip-path="url(#clip280)" d="M1292.95 14.324 L1292.95 27.2059 L1308.3 27.2059 L1308.3 32.9987 L1292.95 32.9987 L1292.95 57.6282 Q1292.95 63.1779 1294.45 64.7578 Q1295.99 66.3376 1300.65 66.3376 L1308.3 66.3376 L1308.3 72.576 L1300.65 72.576 Q1292.02 72.576 1288.74 69.3758 Q1285.46 66.1351 1285.46 57.6282 L1285.46 32.9987 L1279.99 32.9987 L1279.99 27.2059 L1285.46 27.2059 L1285.46 14.324 L1292.95 14.324 Z" fill="#000000" fill-rule="evenodd" fill-opacity="1" /><path clip-path="url(#clip280)" d="M1338.72 49.7694 Q1329.69 49.7694 1326.21 51.8354 Q1322.72 53.9013 1322.72 58.8839 Q1322.72 62.8538 1325.32 65.2034 Q1327.95 67.5124 1332.45 67.5124 Q1338.64 67.5124 1342.37 63.1374 Q1346.14 58.7219 1346.14 51.4303 L1346.14 49.7694 L1338.72 49.7694 M1353.59 46.6907 L1353.59 72.576 L1346.14 72.576 L1346.14 65.6895 Q1343.59 69.8214 1339.78 71.8063 Q1335.97 73.7508 1330.46 73.7508 Q1323.49 73.7508 1319.36 69.8619 Q1315.27 65.9325 1315.27 59.3701 Q1315.27 51.7138 1320.37 47.825 Q1325.52 43.9361 1335.69 43.9361 L1346.14 43.9361 L1346.14 43.2069 Q1346.14 38.0623 1342.74 35.2672 Q1339.37 32.4315 1333.26 32.4315 Q1329.37 32.4315 1325.68 33.3632 Q1321.99 34.295 1318.59 36.1584 L1318.59 29.2718 Q1322.68 27.692 1326.53 26.9223 Q1330.38 26.1121 1334.03 26.1121 Q1343.87 26.1121 1348.73 31.2163 Q1353.59 36.3204 1353.59 46.6907 Z" fill="#000000" fill-rule="evenodd" fill-opacity="1" /><polyline clip-path="url(#clip282)" style="stroke:#009af9; stroke-linecap:butt; stroke-linejoin:round; stroke-width:4; stroke-opacity:1; fill:none" points="
  233.734,1447.87 233.734,1351.44 268.022,1351.44 268.022,1287.14 302.311,1287.14 302.311,1142.49 336.599,1142.49 336.599,1190.71 370.887,1190.71 370.887,1094.27 
  405.176,1094.27 405.176,869.251 439.464,869.251 439.464,1126.42 473.753,1126.42 473.753,853.178 508.041,853.178 508.041,949.615 542.329,949.615 542.329,788.887 
  576.618,788.887 576.618,917.47 610.906,917.47 610.906,837.106 645.194,837.106 645.194,869.251 679.483,869.251 679.483,804.96 713.771,804.96 713.771,1029.98 
  748.06,1029.98 748.06,1062.13 782.348,1062.13 782.348,1190.71 816.636,1190.71 816.636,1174.64 850.925,1174.64 850.925,1319.29 885.213,1319.29 885.213,1303.22 
  919.502,1303.22 919.502,1431.8 953.79,1431.8 953.79,1367.51 988.078,1367.51 988.078,1399.65 1022.37,1399.65 1022.37,1431.8 1056.66,1431.8 
  1090.94,1431.8 1090.94,1447.87 1125.23,1447.87 1125.23,1431.8 1159.52,1431.8 1159.52,1383.58 1193.81,1383.58 1193.81,1319.29 1228.1,1319.29 1228.1,1222.85 
  1262.39,1222.85 1262.39,1255 1296.67,1255 1296.67,981.761 1330.96,981.761 1330.96,965.688 1365.25,965.688 1365.25,933.543 1399.54,933.543 1399.54,692.45 
  1433.83,692.45 1433.83,515.649 1468.12,515.649 1468.12,419.212 1502.4,419.212 1502.4,306.702 1536.69,306.702 1536.69,194.193 1570.98,194.193 1570.98,370.994 
  1605.27,370.994 1605.27,162.047 1639.56,162.047 1639.56,370.994 1673.85,370.994 1673.85,306.702 1708.13,306.702 1708.13,338.848 1742.42,338.848 1742.42,628.159 
  1776.71,628.159 1776.71,772.814 1811,772.814 1811,1013.91 1845.29,1013.91 1845.29,1142.49 1879.58,1142.49 1879.58,1126.42 1913.86,1126.42 1913.86,1255 
  1948.15,1255 1948.15,1287.14 1982.44,1287.14 1982.44,1367.51 2016.73,1367.51 2016.73,1415.73 2051.02,1415.73 2085.31,1415.73 2085.31,1399.65 
  2119.59,1399.65 2119.59,1431.8 2153.88,1431.8 2153.88,1447.87 2188.17,1447.87 2188.17,1431.8 2222.46,1431.8 2222.46,1447.87 2256.75,1447.87 
  2291.04,1447.87 
  "/>
<path clip-path="url(#clip280)" d="
M1933.52 272.585 L2280.06 272.585 L2280.06 168.905 L1933.52 168.905  Z
  " fill="#ffffff" fill-rule="evenodd" fill-opacity="1"/>
<polyline clip-path="url(#clip280)" style="stroke:#000000; stroke-linecap:butt; stroke-linejoin:round; stroke-width:4; stroke-opacity:1; fill:none" points="
  1933.52,272.585 2280.06,272.585 2280.06,168.905 1933.52,168.905 1933.52,272.585 
  "/>
<polyline clip-path="url(#clip280)" style="stroke:#009af9; stroke-linecap:butt; stroke-linejoin:round; stroke-width:4; stroke-opacity:1; fill:none" points="
  1957.75,220.745 2103.14,220.745 
  "/>
<path clip-path="url(#clip280)" d="M2132.04 207.307 L2132.04 234.182 L2137.69 234.182 Q2144.84 234.182 2148.15 230.941 Q2151.49 227.701 2151.49 220.71 Q2151.49 213.766 2148.15 210.548 Q2144.84 207.307 2137.69 207.307 L2132.04 207.307 M2127.37 203.465 L2136.97 203.465 Q2147.02 203.465 2151.72 207.654 Q2156.42 211.821 2156.42 220.71 Q2156.42 229.645 2151.7 233.835 Q2146.97 238.025 2136.97 238.025 L2127.37 238.025 L2127.37 203.465 Z" fill="#000000" fill-rule="evenodd" fill-opacity="1" /><path clip-path="url(#clip280)" d="M2175.47 224.992 Q2170.31 224.992 2168.32 226.173 Q2166.33 227.353 2166.33 230.201 Q2166.33 232.469 2167.81 233.812 Q2169.31 235.131 2171.88 235.131 Q2175.42 235.131 2177.55 232.631 Q2179.71 230.108 2179.71 225.941 L2179.71 224.992 L2175.47 224.992 M2183.96 223.233 L2183.96 238.025 L2179.71 238.025 L2179.71 234.089 Q2178.25 236.451 2176.07 237.585 Q2173.9 238.696 2170.75 238.696 Q2166.77 238.696 2164.4 236.474 Q2162.07 234.228 2162.07 230.478 Q2162.07 226.103 2164.98 223.881 Q2167.92 221.659 2173.73 221.659 L2179.71 221.659 L2179.71 221.242 Q2179.71 218.303 2177.76 216.705 Q2175.84 215.085 2172.34 215.085 Q2170.12 215.085 2168.02 215.617 Q2165.91 216.15 2163.97 217.215 L2163.97 213.279 Q2166.3 212.377 2168.5 211.937 Q2170.7 211.474 2172.78 211.474 Q2178.41 211.474 2181.19 214.391 Q2183.96 217.307 2183.96 223.233 Z" fill="#000000" fill-rule="evenodd" fill-opacity="1" /><path clip-path="url(#clip280)" d="M2196.95 204.738 L2196.95 212.099 L2205.72 212.099 L2205.72 215.409 L2196.95 215.409 L2196.95 229.483 Q2196.95 232.654 2197.81 233.557 Q2198.69 234.46 2201.35 234.46 L2205.72 234.46 L2205.72 238.025 L2201.35 238.025 Q2196.42 238.025 2194.54 236.196 Q2192.67 234.344 2192.67 229.483 L2192.67 215.409 L2189.54 215.409 L2189.54 212.099 L2192.67 212.099 L2192.67 204.738 L2196.95 204.738 Z" fill="#000000" fill-rule="evenodd" fill-opacity="1" /><path clip-path="url(#clip280)" d="M2223.11 224.992 Q2217.95 224.992 2215.96 226.173 Q2213.96 227.353 2213.96 230.201 Q2213.96 232.469 2215.45 233.812 Q2216.95 235.131 2219.52 235.131 Q2223.06 235.131 2225.19 232.631 Q2227.34 230.108 2227.34 225.941 L2227.34 224.992 L2223.11 224.992 M2231.6 223.233 L2231.6 238.025 L2227.34 238.025 L2227.34 234.089 Q2225.89 236.451 2223.71 237.585 Q2221.53 238.696 2218.39 238.696 Q2214.4 238.696 2212.04 236.474 Q2209.71 234.228 2209.71 230.478 Q2209.71 226.103 2212.62 223.881 Q2215.56 221.659 2221.37 221.659 L2227.34 221.659 L2227.34 221.242 Q2227.34 218.303 2225.4 216.705 Q2223.48 215.085 2219.98 215.085 Q2217.76 215.085 2215.65 215.617 Q2213.55 216.15 2211.6 217.215 L2211.6 213.279 Q2213.94 212.377 2216.14 211.937 Q2218.34 211.474 2220.42 211.474 Q2226.05 211.474 2228.83 214.391 Q2231.6 217.307 2231.6 223.233 Z" fill="#000000" fill-rule="evenodd" fill-opacity="1" /></svg>
