<?xml version="1.0" encoding="utf-8"?>
<svg xmlns="http://www.w3.org/2000/svg" xmlns:xlink="http://www.w3.org/1999/xlink" width="600" height="400" viewBox="0 0 2400 1600">
<defs>
  <clipPath id="clip700">
    <rect x="0" y="0" width="2400" height="1600"/>
  </clipPath>
</defs>
<path clip-path="url(#clip700)" d="M0 1600 L2400 1600 L2400 0 L0 0  Z" fill="#ffffff" fill-rule="evenodd" fill-opacity="1"/>
<defs>
  <clipPath id="clip701">
    <rect x="480" y="0" width="1681" height="1600"/>
  </clipPath>
</defs>
<path clip-path="url(#clip700)" d="M199.283 1486.45 L2352.76 1486.45 L2352.76 123.472 L199.283 123.472  Z" fill="#ffffff" fill-rule="evenodd" fill-opacity="1"/>
<defs>
  <clipPath id="clip702">
    <rect x="199" y="123" width="2154" height="1364"/>
  </clipPath>
</defs>
<polyline clip-path="url(#clip702)" style="stroke:#000000; stroke-linecap:round; stroke-linejoin:round; stroke-width:2; stroke-opacity:0.1; fill:none" points="260.231,1486.45 260.231,123.472 "/>
<polyline clip-path="url(#clip702)" style="stroke:#000000; stroke-linecap:round; stroke-linejoin:round; stroke-width:2; stroke-opacity:0.1; fill:none" points="768.125,1486.45 768.125,123.472 "/>
<polyline clip-path="url(#clip702)" style="stroke:#000000; stroke-linecap:round; stroke-linejoin:round; stroke-width:2; stroke-opacity:0.1; fill:none" points="1276.02,1486.45 1276.02,123.472 "/>
<polyline clip-path="url(#clip702)" style="stroke:#000000; stroke-linecap:round; stroke-linejoin:round; stroke-width:2; stroke-opacity:0.1; fill:none" points="1783.91,1486.45 1783.91,123.472 "/>
<polyline clip-path="url(#clip702)" style="stroke:#000000; stroke-linecap:round; stroke-linejoin:round; stroke-width:2; stroke-opacity:0.1; fill:none" points="2291.81,1486.45 2291.81,123.472 "/>
<polyline clip-path="url(#clip700)" style="stroke:#000000; stroke-linecap:round; stroke-linejoin:round; stroke-width:4; stroke-opacity:1; fill:none" points="199.283,1486.45 2352.76,1486.45 "/>
<polyline clip-path="url(#clip700)" style="stroke:#000000; stroke-linecap:round; stroke-linejoin:round; stroke-width:4; stroke-opacity:1; fill:none" points="260.231,1486.45 260.231,1467.55 "/>
<polyline clip-path="url(#clip700)" style="stroke:#000000; stroke-linecap:round; stroke-linejoin:round; stroke-width:4; stroke-opacity:1; fill:none" points="768.125,1486.45 768.125,1467.55 "/>
<polyline clip-path="url(#clip700)" style="stroke:#000000; stroke-linecap:round; stroke-linejoin:round; stroke-width:4; stroke-opacity:1; fill:none" points="1276.02,1486.45 1276.02,1467.55 "/>
<polyline clip-path="url(#clip700)" style="stroke:#000000; stroke-linecap:round; stroke-linejoin:round; stroke-width:4; stroke-opacity:1; fill:none" points="1783.91,1486.45 1783.91,1467.55 "/>
<polyline clip-path="url(#clip700)" style="stroke:#000000; stroke-linecap:round; stroke-linejoin:round; stroke-width:4; stroke-opacity:1; fill:none" points="2291.81,1486.45 2291.81,1467.55 "/>
<path clip-path="url(#clip700)" d="M229.131 1532.02 L258.807 1532.02 L258.807 1535.95 L229.131 1535.95 L229.131 1532.02 Z" fill="#000000" fill-rule="nonzero" fill-opacity="1" /><path clip-path="url(#clip700)" d="M281.747 1518.36 L269.941 1536.81 L281.747 1536.81 L281.747 1518.36 M280.52 1514.29 L286.399 1514.29 L286.399 1536.81 L291.33 1536.81 L291.33 1540.7 L286.399 1540.7 L286.399 1548.85 L281.747 1548.85 L281.747 1540.7 L266.145 1540.7 L266.145 1536.19 L280.52 1514.29 Z" fill="#000000" fill-rule="nonzero" fill-opacity="1" /><path clip-path="url(#clip700)" d="M738.067 1532.02 L767.743 1532.02 L767.743 1535.95 L738.067 1535.95 L738.067 1532.02 Z" fill="#000000" fill-rule="nonzero" fill-opacity="1" /><path clip-path="url(#clip700)" d="M781.863 1544.91 L798.183 1544.91 L798.183 1548.85 L776.238 1548.85 L776.238 1544.91 Q778.9 1542.16 783.484 1537.53 Q788.09 1532.88 789.271 1531.53 Q791.516 1529.01 792.396 1527.27 Q793.299 1525.51 793.299 1523.82 Q793.299 1521.07 791.354 1519.33 Q789.433 1517.6 786.331 1517.6 Q784.132 1517.6 781.678 1518.36 Q779.248 1519.13 776.47 1520.68 L776.47 1515.95 Q779.294 1514.82 781.748 1514.24 Q784.201 1513.66 786.238 1513.66 Q791.609 1513.66 794.803 1516.35 Q797.998 1519.03 797.998 1523.52 Q797.998 1525.65 797.187 1527.57 Q796.4 1529.47 794.294 1532.07 Q793.715 1532.74 790.613 1535.95 Q787.512 1539.15 781.863 1544.91 Z" fill="#000000" fill-rule="nonzero" fill-opacity="1" /><path clip-path="url(#clip700)" d="M1276.02 1517.37 Q1272.41 1517.37 1270.58 1520.93 Q1268.77 1524.47 1268.77 1531.6 Q1268.77 1538.71 1270.58 1542.27 Q1272.41 1545.82 1276.02 1545.82 Q1279.65 1545.82 1281.46 1542.27 Q1283.29 1538.71 1283.29 1531.6 Q1283.29 1524.47 1281.46 1520.93 Q1279.65 1517.37 1276.02 1517.37 M1276.02 1513.66 Q1281.83 1513.66 1284.89 1518.27 Q1287.96 1522.85 1287.96 1531.6 Q1287.96 1540.33 1284.89 1544.94 Q1281.83 1549.52 1276.02 1549.52 Q1270.21 1549.52 1267.13 1544.94 Q1264.08 1540.33 1264.08 1531.6 Q1264.08 1522.85 1267.13 1518.27 Q1270.21 1513.66 1276.02 1513.66 Z" fill="#000000" fill-rule="nonzero" fill-opacity="1" /><path clip-path="url(#clip700)" d="M1778.57 1544.91 L1794.89 1544.91 L1794.89 1548.85 L1772.94 1548.85 L1772.94 1544.91 Q1775.6 1542.16 1780.19 1537.53 Q1784.79 1532.88 1785.97 1531.53 Q1788.22 1529.01 1789.1 1527.27 Q1790 1525.51 1790 1523.82 Q1790 1521.07 1788.06 1519.33 Q1786.14 1517.6 1783.03 1517.6 Q1780.84 1517.6 1778.38 1518.36 Q1775.95 1519.13 1773.17 1520.68 L1773.17 1515.95 Q1776 1514.82 1778.45 1514.24 Q1780.9 1513.66 1782.94 1513.66 Q1788.31 1513.66 1791.51 1516.35 Q1794.7 1519.03 1794.7 1523.52 Q1794.7 1525.65 1793.89 1527.57 Q1793.1 1529.47 1791 1532.07 Q1790.42 1532.74 1787.32 1535.95 Q1784.21 1539.15 1778.57 1544.91 Z" fill="#000000" fill-rule="nonzero" fill-opacity="1" /><path clip-path="url(#clip700)" d="M2294.82 1518.36 L2283.01 1536.81 L2294.82 1536.81 L2294.82 1518.36 M2293.59 1514.29 L2299.47 1514.29 L2299.47 1536.81 L2304.4 1536.81 L2304.4 1540.7 L2299.47 1540.7 L2299.47 1548.85 L2294.82 1548.85 L2294.82 1540.7 L2279.22 1540.7 L2279.22 1536.19 L2293.59 1514.29 Z" fill="#000000" fill-rule="nonzero" fill-opacity="1" /><polyline clip-path="url(#clip702)" style="stroke:#000000; stroke-linecap:round; stroke-linejoin:round; stroke-width:2; stroke-opacity:0.1; fill:none" points="199.283,1447.87 2352.76,1447.87 "/>
<polyline clip-path="url(#clip702)" style="stroke:#000000; stroke-linecap:round; stroke-linejoin:round; stroke-width:2; stroke-opacity:0.1; fill:none" points="199.283,1132.72 2352.76,1132.72 "/>
<polyline clip-path="url(#clip702)" style="stroke:#000000; stroke-linecap:round; stroke-linejoin:round; stroke-width:2; stroke-opacity:0.1; fill:none" points="199.283,817.566 2352.76,817.566 "/>
<polyline clip-path="url(#clip702)" style="stroke:#000000; stroke-linecap:round; stroke-linejoin:round; stroke-width:2; stroke-opacity:0.1; fill:none" points="199.283,502.413 2352.76,502.413 "/>
<polyline clip-path="url(#clip702)" style="stroke:#000000; stroke-linecap:round; stroke-linejoin:round; stroke-width:2; stroke-opacity:0.1; fill:none" points="199.283,187.259 2352.76,187.259 "/>
<polyline clip-path="url(#clip700)" style="stroke:#000000; stroke-linecap:round; stroke-linejoin:round; stroke-width:4; stroke-opacity:1; fill:none" points="199.283,1486.45 199.283,123.472 "/>
<polyline clip-path="url(#clip700)" style="stroke:#000000; stroke-linecap:round; stroke-linejoin:round; stroke-width:4; stroke-opacity:1; fill:none" points="199.283,1447.87 218.181,1447.87 "/>
<polyline clip-path="url(#clip700)" style="stroke:#000000; stroke-linecap:round; stroke-linejoin:round; stroke-width:4; stroke-opacity:1; fill:none" points="199.283,1132.72 218.181,1132.72 "/>
<polyline clip-path="url(#clip700)" style="stroke:#000000; stroke-linecap:round; stroke-linejoin:round; stroke-width:4; stroke-opacity:1; fill:none" points="199.283,817.566 218.181,817.566 "/>
<polyline clip-path="url(#clip700)" style="stroke:#000000; stroke-linecap:round; stroke-linejoin:round; stroke-width:4; stroke-opacity:1; fill:none" points="199.283,502.413 218.181,502.413 "/>
<polyline clip-path="url(#clip700)" style="stroke:#000000; stroke-linecap:round; stroke-linejoin:round; stroke-width:4; stroke-opacity:1; fill:none" points="199.283,187.259 218.181,187.259 "/>
<path clip-path="url(#clip700)" d="M151.339 1433.67 Q147.728 1433.67 145.899 1437.24 Q144.093 1440.78 144.093 1447.91 Q144.093 1455.01 145.899 1458.58 Q147.728 1462.12 151.339 1462.12 Q154.973 1462.12 156.779 1458.58 Q158.607 1455.01 158.607 1447.91 Q158.607 1440.78 156.779 1437.24 Q154.973 1433.67 151.339 1433.67 M151.339 1429.97 Q157.149 1429.97 160.205 1434.57 Q163.283 1439.16 163.283 1447.91 Q163.283 1456.63 160.205 1461.24 Q157.149 1465.82 151.339 1465.82 Q145.529 1465.82 142.45 1461.24 Q139.394 1456.63 139.394 1447.91 Q139.394 1439.16 142.45 1434.57 Q145.529 1429.97 151.339 1429.97 Z" fill="#000000" fill-rule="nonzero" fill-opacity="1" /><path clip-path="url(#clip700)" d="M85.0429 1146.06 L101.362 1146.06 L101.362 1150 L79.4179 1150 L79.4179 1146.06 Q82.0799 1143.31 86.6632 1138.68 Q91.2697 1134.03 92.4502 1132.68 Q94.6956 1130.16 95.5752 1128.43 Q96.478 1126.67 96.478 1124.98 Q96.478 1122.22 94.5336 1120.49 Q92.6123 1118.75 89.5104 1118.75 Q87.3114 1118.75 84.8577 1119.51 Q82.4271 1120.28 79.6494 1121.83 L79.6494 1117.11 Q82.4734 1115.97 84.9271 1115.39 Q87.3808 1114.81 89.4178 1114.81 Q94.7882 1114.81 97.9826 1117.5 Q101.177 1120.18 101.177 1124.68 Q101.177 1126.81 100.367 1128.73 Q99.5798 1130.62 97.4734 1133.22 Q96.8947 1133.89 93.7928 1137.11 Q90.691 1140.3 85.0429 1146.06 Z" fill="#000000" fill-rule="nonzero" fill-opacity="1" /><path clip-path="url(#clip700)" d="M111.223 1115.44 L129.58 1115.44 L129.58 1119.37 L115.506 1119.37 L115.506 1127.85 Q116.524 1127.5 117.543 1127.34 Q118.561 1127.15 119.58 1127.15 Q125.367 1127.15 128.746 1130.32 Q132.126 1133.5 132.126 1138.91 Q132.126 1144.49 128.654 1147.59 Q125.182 1150.67 118.862 1150.67 Q116.686 1150.67 114.418 1150.3 Q112.172 1149.93 109.765 1149.19 L109.765 1144.49 Q111.848 1145.62 114.07 1146.18 Q116.293 1146.74 118.77 1146.74 Q122.774 1146.74 125.112 1144.63 Q127.45 1142.52 127.45 1138.91 Q127.45 1135.3 125.112 1133.19 Q122.774 1131.09 118.77 1131.09 Q116.895 1131.09 115.02 1131.5 Q113.168 1131.92 111.223 1132.8 L111.223 1115.44 Z" fill="#000000" fill-rule="nonzero" fill-opacity="1" /><path clip-path="url(#clip700)" d="M151.339 1118.52 Q147.728 1118.52 145.899 1122.08 Q144.093 1125.62 144.093 1132.75 Q144.093 1139.86 145.899 1143.43 Q147.728 1146.97 151.339 1146.97 Q154.973 1146.97 156.779 1143.43 Q158.607 1139.86 158.607 1132.75 Q158.607 1125.62 156.779 1122.08 Q154.973 1118.52 151.339 1118.52 M151.339 1114.81 Q157.149 1114.81 160.205 1119.42 Q163.283 1124 163.283 1132.75 Q163.283 1141.48 160.205 1146.09 Q157.149 1150.67 151.339 1150.67 Q145.529 1150.67 142.45 1146.09 Q139.394 1141.48 139.394 1132.75 Q139.394 1124 142.45 1119.42 Q145.529 1114.81 151.339 1114.81 Z" fill="#000000" fill-rule="nonzero" fill-opacity="1" /><path clip-path="url(#clip700)" d="M81.0614 800.286 L99.4178 800.286 L99.4178 804.221 L85.3438 804.221 L85.3438 812.693 Q86.3623 812.346 87.3808 812.184 Q88.3993 811.999 89.4178 811.999 Q95.2049 811.999 98.5845 815.17 Q101.964 818.342 101.964 823.758 Q101.964 829.337 98.4919 832.439 Q95.0197 835.517 88.7003 835.517 Q86.5243 835.517 84.2558 835.147 Q82.0105 834.777 79.6031 834.036 L79.6031 829.337 Q81.6864 830.471 83.9086 831.027 Q86.1308 831.582 88.6077 831.582 Q92.6123 831.582 94.9502 829.476 Q97.2882 827.369 97.2882 823.758 Q97.2882 820.147 94.9502 818.041 Q92.6123 815.934 88.6077 815.934 Q86.7327 815.934 84.8577 816.351 Q83.0058 816.768 81.0614 817.647 L81.0614 800.286 Z" fill="#000000" fill-rule="nonzero" fill-opacity="1" /><path clip-path="url(#clip700)" d="M121.177 803.365 Q117.566 803.365 115.737 806.93 Q113.932 810.471 113.932 817.601 Q113.932 824.707 115.737 828.272 Q117.566 831.814 121.177 831.814 Q124.811 831.814 126.617 828.272 Q128.445 824.707 128.445 817.601 Q128.445 810.471 126.617 806.93 Q124.811 803.365 121.177 803.365 M121.177 799.661 Q126.987 799.661 130.043 804.268 Q133.121 808.851 133.121 817.601 Q133.121 826.328 130.043 830.934 Q126.987 835.517 121.177 835.517 Q115.367 835.517 112.288 830.934 Q109.233 826.328 109.233 817.601 Q109.233 808.851 112.288 804.268 Q115.367 799.661 121.177 799.661 Z" fill="#000000" fill-rule="nonzero" fill-opacity="1" /><path clip-path="url(#clip700)" d="M151.339 803.365 Q147.728 803.365 145.899 806.93 Q144.093 810.471 144.093 817.601 Q144.093 824.707 145.899 828.272 Q147.728 831.814 151.339 831.814 Q154.973 831.814 156.779 828.272 Q158.607 824.707 158.607 817.601 Q158.607 810.471 156.779 806.93 Q154.973 803.365 151.339 803.365 M151.339 799.661 Q157.149 799.661 160.205 804.268 Q163.283 808.851 163.283 817.601 Q163.283 826.328 160.205 830.934 Q157.149 835.517 151.339 835.517 Q145.529 835.517 142.45 830.934 Q139.394 826.328 139.394 817.601 Q139.394 808.851 142.45 804.268 Q145.529 799.661 151.339 799.661 Z" fill="#000000" fill-rule="nonzero" fill-opacity="1" /><path clip-path="url(#clip700)" d="M79.8346 485.133 L102.057 485.133 L102.057 487.123 L89.5104 519.693 L84.6262 519.693 L96.4317 489.068 L79.8346 489.068 L79.8346 485.133 Z" fill="#000000" fill-rule="nonzero" fill-opacity="1" /><path clip-path="url(#clip700)" d="M111.223 485.133 L129.58 485.133 L129.58 489.068 L115.506 489.068 L115.506 497.54 Q116.524 497.193 117.543 497.031 Q118.561 496.846 119.58 496.846 Q125.367 496.846 128.746 500.017 Q132.126 503.188 132.126 508.605 Q132.126 514.183 128.654 517.285 Q125.182 520.364 118.862 520.364 Q116.686 520.364 114.418 519.994 Q112.172 519.623 109.765 518.882 L109.765 514.183 Q111.848 515.318 114.07 515.873 Q116.293 516.429 118.77 516.429 Q122.774 516.429 125.112 514.322 Q127.45 512.216 127.45 508.605 Q127.45 504.994 125.112 502.887 Q122.774 500.781 118.77 500.781 Q116.895 500.781 115.02 501.197 Q113.168 501.614 111.223 502.494 L111.223 485.133 Z" fill="#000000" fill-rule="nonzero" fill-opacity="1" /><path clip-path="url(#clip700)" d="M151.339 488.211 Q147.728 488.211 145.899 491.776 Q144.093 495.318 144.093 502.447 Q144.093 509.554 145.899 513.119 Q147.728 516.66 151.339 516.66 Q154.973 516.66 156.779 513.119 Q158.607 509.554 158.607 502.447 Q158.607 495.318 156.779 491.776 Q154.973 488.211 151.339 488.211 M151.339 484.508 Q157.149 484.508 160.205 489.114 Q163.283 493.697 163.283 502.447 Q163.283 511.174 160.205 515.781 Q157.149 520.364 151.339 520.364 Q145.529 520.364 142.45 515.781 Q139.394 511.174 139.394 502.447 Q139.394 493.697 142.45 489.114 Q145.529 484.508 151.339 484.508 Z" fill="#000000" fill-rule="nonzero" fill-opacity="1" /><path clip-path="url(#clip700)" d="M51.6634 200.604 L59.3023 200.604 L59.3023 174.238 L50.9921 175.905 L50.9921 171.646 L59.256 169.979 L63.9319 169.979 L63.9319 200.604 L71.5707 200.604 L71.5707 204.539 L51.6634 204.539 L51.6634 200.604 Z" fill="#000000" fill-rule="nonzero" fill-opacity="1" /><path clip-path="url(#clip700)" d="M91.0151 173.058 Q87.404 173.058 85.5753 176.623 Q83.7697 180.164 83.7697 187.294 Q83.7697 194.4 85.5753 197.965 Q87.404 201.507 91.0151 201.507 Q94.6493 201.507 96.4548 197.965 Q98.2835 194.4 98.2835 187.294 Q98.2835 180.164 96.4548 176.623 Q94.6493 173.058 91.0151 173.058 M91.0151 169.354 Q96.8252 169.354 99.8808 173.961 Q102.959 178.544 102.959 187.294 Q102.959 196.021 99.8808 200.627 Q96.8252 205.21 91.0151 205.21 Q85.2049 205.21 82.1262 200.627 Q79.0707 196.021 79.0707 187.294 Q79.0707 178.544 82.1262 173.961 Q85.2049 169.354 91.0151 169.354 Z" fill="#000000" fill-rule="nonzero" fill-opacity="1" /><path clip-path="url(#clip700)" d="M121.177 173.058 Q117.566 173.058 115.737 176.623 Q113.932 180.164 113.932 187.294 Q113.932 194.4 115.737 197.965 Q117.566 201.507 121.177 201.507 Q124.811 201.507 126.617 197.965 Q128.445 194.4 128.445 187.294 Q128.445 180.164 126.617 176.623 Q124.811 173.058 121.177 173.058 M121.177 169.354 Q126.987 169.354 130.043 173.961 Q133.121 178.544 133.121 187.294 Q133.121 196.021 130.043 200.627 Q126.987 205.21 121.177 205.21 Q115.367 205.21 112.288 200.627 Q109.233 196.021 109.233 187.294 Q109.233 178.544 112.288 173.961 Q115.367 169.354 121.177 169.354 Z" fill="#000000" fill-rule="nonzero" fill-opacity="1" /><path clip-path="url(#clip700)" d="M151.339 173.058 Q147.728 173.058 145.899 176.623 Q144.093 180.164 144.093 187.294 Q144.093 194.4 145.899 197.965 Q147.728 201.507 151.339 201.507 Q154.973 201.507 156.779 197.965 Q158.607 194.4 158.607 187.294 Q158.607 180.164 156.779 176.623 Q154.973 173.058 151.339 173.058 M151.339 169.354 Q157.149 169.354 160.205 173.961 Q163.283 178.544 163.283 187.294 Q163.283 196.021 160.205 200.627 Q157.149 205.21 151.339 205.21 Q145.529 205.21 142.45 200.627 Q139.394 196.021 139.394 187.294 Q139.394 178.544 142.45 173.961 Q145.529 169.354 151.339 169.354 Z" fill="#000000" fill-rule="nonzero" fill-opacity="1" /><path clip-path="url(#clip700)" d="M644.727 18.8205 L644.727 65.8515 L654.611 65.8515 Q667.128 65.8515 672.921 60.1802 Q678.754 54.509 678.754 42.2752 Q678.754 30.1225 672.921 24.4918 Q667.128 18.8205 654.611 18.8205 L644.727 18.8205 M636.544 12.096 L653.355 12.096 Q670.936 12.096 679.159 19.4281 Q687.383 26.7198 687.383 42.2752 Q687.383 57.9117 679.119 65.2439 Q670.855 72.576 653.355 72.576 L636.544 72.576 L636.544 12.096 Z" fill="#000000" fill-rule="nonzero" fill-opacity="1" /><path clip-path="url(#clip700)" d="M720.722 49.7694 Q711.688 49.7694 708.204 51.8354 Q704.721 53.9013 704.721 58.8839 Q704.721 62.8538 707.313 65.2034 Q709.946 67.5124 714.443 67.5124 Q720.641 67.5124 724.367 63.1374 Q728.135 58.7219 728.135 51.4303 L728.135 49.7694 L720.722 49.7694 M735.588 46.6907 L735.588 72.576 L728.135 72.576 L728.135 65.6895 Q725.583 69.8214 721.775 71.8063 Q717.967 73.7508 712.458 73.7508 Q705.49 73.7508 701.358 69.8619 Q697.267 65.9325 697.267 59.3701 Q697.267 51.7138 702.371 47.825 Q707.516 43.9361 717.683 43.9361 L728.135 43.9361 L728.135 43.2069 Q728.135 38.0623 724.732 35.2672 Q721.37 32.4315 715.253 32.4315 Q711.364 32.4315 707.678 33.3632 Q703.991 34.295 700.589 36.1584 L700.589 29.2718 Q704.68 27.692 708.528 26.9223 Q712.377 26.1121 716.023 26.1121 Q725.866 26.1121 730.727 31.2163 Q735.588 36.3204 735.588 46.6907 Z" fill="#000000" fill-rule="nonzero" fill-opacity="1" /><path clip-path="url(#clip700)" d="M758.314 14.324 L758.314 27.2059 L773.667 27.2059 L773.667 32.9987 L758.314 32.9987 L758.314 57.6282 Q758.314 63.1779 759.813 64.7578 Q761.352 66.3376 766.011 66.3376 L773.667 66.3376 L773.667 72.576 L766.011 72.576 Q757.382 72.576 754.101 69.3758 Q750.82 66.1351 750.82 57.6282 L750.82 32.9987 L745.351 32.9987 L745.351 27.2059 L750.82 27.2059 L750.82 14.324 L758.314 14.324 Z" fill="#000000" fill-rule="nonzero" fill-opacity="1" /><path clip-path="url(#clip700)" d="M804.089 49.7694 Q795.056 49.7694 791.572 51.8354 Q788.088 53.9013 788.088 58.8839 Q788.088 62.8538 790.681 65.2034 Q793.314 67.5124 797.81 67.5124 Q804.008 67.5124 807.735 63.1374 Q811.502 58.7219 811.502 51.4303 L811.502 49.7694 L804.089 49.7694 M818.956 46.6907 L818.956 72.576 L811.502 72.576 L811.502 65.6895 Q808.95 69.8214 805.142 71.8063 Q801.335 73.7508 795.825 73.7508 Q788.858 73.7508 784.726 69.8619 Q780.634 65.9325 780.634 59.3701 Q780.634 51.7138 785.739 47.825 Q790.883 43.9361 801.051 43.9361 L811.502 43.9361 L811.502 43.2069 Q811.502 38.0623 808.1 35.2672 Q804.737 32.4315 798.62 32.4315 Q794.732 32.4315 791.045 33.3632 Q787.359 34.295 783.956 36.1584 L783.956 29.2718 Q788.048 27.692 791.896 26.9223 Q795.744 26.1121 799.39 26.1121 Q809.234 26.1121 814.095 31.2163 Q818.956 36.3204 818.956 46.6907 Z" fill="#000000" fill-rule="nonzero" fill-opacity="1" /><path clip-path="url(#clip700)" d="M881.299 49.7694 Q872.266 49.7694 868.782 51.8354 Q865.298 53.9013 865.298 58.8839 Q865.298 62.8538 867.891 65.2034 Q870.524 67.5124 875.021 67.5124 Q881.218 67.5124 884.945 63.1374 Q888.713 58.7219 888.713 51.4303 L888.713 49.7694 L881.299 49.7694 M896.166 46.6907 L896.166 72.576 L888.713 72.576 L888.713 65.6895 Q886.161 69.8214 882.353 71.8063 Q878.545 73.7508 873.036 73.7508 Q866.068 73.7508 861.936 69.8619 Q857.845 65.9325 857.845 59.3701 Q857.845 51.7138 862.949 47.825 Q868.093 43.9361 878.261 43.9361 L888.713 43.9361 L888.713 43.2069 Q888.713 38.0623 885.31 35.2672 Q881.948 32.4315 875.831 32.4315 Q871.942 32.4315 868.256 33.3632 Q864.569 34.295 861.166 36.1584 L861.166 29.2718 Q865.258 27.692 869.106 26.9223 Q872.955 26.1121 876.6 26.1121 Q886.444 26.1121 891.305 31.2163 Q896.166 36.3204 896.166 46.6907 Z" fill="#000000" fill-rule="nonzero" fill-opacity="1" /><path clip-path="url(#clip700)" d="M949.233 45.1919 L949.233 72.576 L941.779 72.576 L941.779 45.4349 Q941.779 38.994 939.268 35.7938 Q936.756 32.5936 931.733 32.5936 Q925.697 32.5936 922.214 36.4419 Q918.73 40.2903 918.73 46.9338 L918.73 72.576 L911.236 72.576 L911.236 27.2059 L918.73 27.2059 L918.73 34.2544 Q921.403 30.163 925.009 28.1376 Q928.655 26.1121 933.394 26.1121 Q941.212 26.1121 945.223 30.9732 Q949.233 35.7938 949.233 45.1919 Z" fill="#000000" fill-rule="nonzero" fill-opacity="1" /><path clip-path="url(#clip700)" d="M993.955 34.0924 L993.955 9.54393 L1001.41 9.54393 L1001.41 72.576 L993.955 72.576 L993.955 65.7705 Q991.606 69.8214 988 71.8063 Q984.435 73.7508 979.412 73.7508 Q971.189 73.7508 966.004 67.1883 Q960.859 60.6258 960.859 49.9314 Q960.859 39.2371 966.004 32.6746 Q971.189 26.1121 979.412 26.1121 Q984.435 26.1121 988 28.0971 Q991.606 30.0415 993.955 34.0924 M968.556 49.9314 Q968.556 58.1548 971.918 62.8538 Q975.321 67.5124 981.235 67.5124 Q987.15 67.5124 990.552 62.8538 Q993.955 58.1548 993.955 49.9314 Q993.955 41.7081 990.552 37.0496 Q987.15 32.3505 981.235 32.3505 Q975.321 32.3505 971.918 37.0496 Q968.556 41.7081 968.556 49.9314 Z" fill="#000000" fill-rule="nonzero" fill-opacity="1" /><path clip-path="url(#clip700)" d="M1035.07 12.096 L1086.23 12.096 L1086.23 18.9825 L1064.76 18.9825 L1064.76 72.576 L1056.54 72.576 L1056.54 18.9825 L1035.07 18.9825 L1035.07 12.096 Z" fill="#000000" fill-rule="nonzero" fill-opacity="1" /><path clip-path="url(#clip700)" d="M1107.91 34.1734 Q1106.65 33.4443 1105.15 33.1202 Q1103.69 32.7556 1101.91 32.7556 Q1095.59 32.7556 1092.19 36.8875 Q1088.83 40.9789 1088.83 48.6757 L1088.83 72.576 L1081.33 72.576 L1081.33 27.2059 L1088.83 27.2059 L1088.83 34.2544 Q1091.18 30.1225 1094.94 28.1376 Q1098.71 26.1121 1104.1 26.1121 Q1104.87 26.1121 1105.8 26.2337 Q1106.73 26.3147 1107.87 26.5172 L1107.91 34.1734 Z" fill="#000000" fill-rule="nonzero" fill-opacity="1" /><path clip-path="url(#clip700)" d="M1114.96 54.671 L1114.96 27.2059 L1122.41 27.2059 L1122.41 54.3874 Q1122.41 60.8284 1124.92 64.0691 Q1127.43 67.2693 1132.46 67.2693 Q1138.49 67.2693 1141.98 63.421 Q1145.5 59.5726 1145.5 52.9291 L1145.5 27.2059 L1152.95 27.2059 L1152.95 72.576 L1145.5 72.576 L1145.5 65.6084 Q1142.79 69.7404 1139.18 71.7658 Q1135.62 73.7508 1130.88 73.7508 Q1123.06 73.7508 1119.01 68.8897 Q1114.96 64.0286 1114.96 54.671 M1133.71 26.1121 L1133.71 26.1121 Z" fill="#000000" fill-rule="nonzero" fill-opacity="1" /><path clip-path="url(#clip700)" d="M1207.11 48.0275 L1207.11 51.6733 L1172.84 51.6733 Q1173.33 59.3701 1177.46 63.421 Q1181.63 67.4314 1189.05 67.4314 Q1193.34 67.4314 1197.35 66.3781 Q1201.4 65.3249 1205.37 63.2184 L1205.37 70.267 Q1201.36 71.9684 1197.15 72.8596 Q1192.94 73.7508 1188.6 73.7508 Q1177.74 73.7508 1171.38 67.4314 Q1165.07 61.1119 1165.07 50.3365 Q1165.07 39.1965 1171.06 32.6746 Q1177.1 26.1121 1187.3 26.1121 Q1196.46 26.1121 1201.77 32.0264 Q1207.11 37.9003 1207.11 48.0275 M1199.66 45.84 Q1199.58 39.7232 1196.22 36.0774 Q1192.89 32.4315 1187.39 32.4315 Q1181.15 32.4315 1177.38 35.9558 Q1173.65 39.4801 1173.09 45.8805 L1199.66 45.84 Z" fill="#000000" fill-rule="nonzero" fill-opacity="1" /><path clip-path="url(#clip700)" d="M1282.3 14.0809 L1282.3 22.0612 Q1277.64 19.8332 1273.51 18.7395 Q1269.38 17.6457 1265.53 17.6457 Q1258.84 17.6457 1255.2 20.2383 Q1251.59 22.8309 1251.59 27.611 Q1251.59 31.6214 1253.98 33.6873 Q1256.41 35.7128 1263.14 36.9686 L1268.08 37.9813 Q1277.23 39.7232 1281.57 44.1387 Q1285.94 48.5136 1285.94 55.8863 Q1285.94 64.6767 1280.03 69.2137 Q1274.16 73.7508 1262.77 73.7508 Q1258.48 73.7508 1253.62 72.7785 Q1248.8 71.8063 1243.61 69.9024 L1243.61 61.4765 Q1248.59 64.2716 1253.37 65.6895 Q1258.16 67.1073 1262.77 67.1073 Q1269.78 67.1073 1273.59 64.3527 Q1277.4 61.598 1277.4 56.4939 Q1277.4 52.0379 1274.64 49.5264 Q1271.93 47.0148 1265.69 45.759 L1260.71 44.7868 Q1251.55 42.9639 1247.46 39.075 Q1243.37 35.1862 1243.37 28.2591 Q1243.37 20.2383 1249 15.6203 Q1254.67 11.0023 1264.6 11.0023 Q1268.85 11.0023 1273.26 11.7719 Q1277.68 12.5416 1282.3 14.0809 Z" fill="#000000" fill-rule="nonzero" fill-opacity="1" /><path clip-path="url(#clip700)" d="M1305.75 14.324 L1305.75 27.2059 L1321.11 27.2059 L1321.11 32.9987 L1305.75 32.9987 L1305.75 57.6282 Q1305.75 63.1779 1307.25 64.7578 Q1308.79 66.3376 1313.45 66.3376 L1321.11 66.3376 L1321.11 72.576 L1313.45 72.576 Q1304.82 72.576 1301.54 69.3758 Q1298.26 66.1351 1298.26 57.6282 L1298.26 32.9987 L1292.79 32.9987 L1292.79 27.2059 L1298.26 27.2059 L1298.26 14.324 L1305.75 14.324 Z" fill="#000000" fill-rule="nonzero" fill-opacity="1" /><path clip-path="url(#clip700)" d="M1351.53 49.7694 Q1342.49 49.7694 1339.01 51.8354 Q1335.53 53.9013 1335.53 58.8839 Q1335.53 62.8538 1338.12 65.2034 Q1340.75 67.5124 1345.25 67.5124 Q1351.45 67.5124 1355.17 63.1374 Q1358.94 58.7219 1358.94 51.4303 L1358.94 49.7694 L1351.53 49.7694 M1366.4 46.6907 L1366.4 72.576 L1358.94 72.576 L1358.94 65.6895 Q1356.39 69.8214 1352.58 71.8063 Q1348.77 73.7508 1343.26 73.7508 Q1336.3 73.7508 1332.17 69.8619 Q1328.07 65.9325 1328.07 59.3701 Q1328.07 51.7138 1333.18 47.825 Q1338.32 43.9361 1348.49 43.9361 L1358.94 43.9361 L1358.94 43.2069 Q1358.94 38.0623 1355.54 35.2672 Q1352.18 32.4315 1346.06 32.4315 Q1342.17 32.4315 1338.48 33.3632 Q1334.8 34.295 1331.4 36.1584 L1331.4 29.2718 Q1335.49 27.692 1339.34 26.9223 Q1343.18 26.1121 1346.83 26.1121 Q1356.67 26.1121 1361.53 31.2163 Q1366.4 36.3204 1366.4 46.6907 Z" fill="#000000" fill-rule="nonzero" fill-opacity="1" /><path clip-path="url(#clip700)" d="M1389.12 14.324 L1389.12 27.2059 L1404.47 27.2059 L1404.47 32.9987 L1389.12 32.9987 L1389.12 57.6282 Q1389.12 63.1779 1390.62 64.7578 Q1392.16 66.3376 1396.82 66.3376 L1404.47 66.3376 L1404.47 72.576 L1396.82 72.576 Q1388.19 72.576 1384.91 69.3758 Q1381.63 66.1351 1381.63 57.6282 L1381.63 32.9987 L1376.16 32.9987 L1376.16 27.2059 L1381.63 27.2059 L1381.63 14.324 L1389.12 14.324 Z" fill="#000000" fill-rule="nonzero" fill-opacity="1" /><path clip-path="url(#clip700)" d="M1414.28 27.2059 L1421.73 27.2059 L1421.73 72.576 L1414.28 72.576 L1414.28 27.2059 M1414.28 9.54393 L1421.73 9.54393 L1421.73 18.9825 L1414.28 18.9825 L1414.28 9.54393 Z" fill="#000000" fill-rule="nonzero" fill-opacity="1" /><path clip-path="url(#clip700)" d="M1466.25 28.5427 L1466.25 35.5912 Q1463.09 33.9709 1459.69 33.1607 Q1456.28 32.3505 1452.64 32.3505 Q1447.09 32.3505 1444.29 34.0519 Q1441.54 35.7533 1441.54 39.156 Q1441.54 41.7486 1443.52 43.2475 Q1445.51 44.7058 1451.5 46.0426 L1454.06 46.6097 Q1462 48.3111 1465.32 51.4303 Q1468.68 54.509 1468.68 60.0587 Q1468.68 66.3781 1463.66 70.0644 Q1458.67 73.7508 1449.92 73.7508 Q1446.28 73.7508 1442.31 73.0216 Q1438.38 72.3329 1434 70.9151 L1434 63.2184 Q1438.14 65.3654 1442.15 66.4591 Q1446.16 67.5124 1450.09 67.5124 Q1455.35 67.5124 1458.19 65.73 Q1461.02 63.9071 1461.02 60.6258 Q1461.02 57.5877 1458.96 55.9673 Q1456.93 54.3469 1450.01 52.8481 L1447.41 52.2405 Q1440.49 50.7821 1437.41 47.7845 Q1434.33 44.7463 1434.33 39.4801 Q1434.33 33.0797 1438.87 29.5959 Q1443.4 26.1121 1451.75 26.1121 Q1455.88 26.1121 1459.53 26.7198 Q1463.17 27.3274 1466.25 28.5427 Z" fill="#000000" fill-rule="nonzero" fill-opacity="1" /><path clip-path="url(#clip700)" d="M1487.92 14.324 L1487.92 27.2059 L1503.28 27.2059 L1503.28 32.9987 L1487.92 32.9987 L1487.92 57.6282 Q1487.92 63.1779 1489.42 64.7578 Q1490.96 66.3376 1495.62 66.3376 L1503.28 66.3376 L1503.28 72.576 L1495.62 72.576 Q1486.99 72.576 1483.71 69.3758 Q1480.43 66.1351 1480.43 57.6282 L1480.43 32.9987 L1474.96 32.9987 L1474.96 27.2059 L1480.43 27.2059 L1480.43 14.324 L1487.92 14.324 Z" fill="#000000" fill-rule="nonzero" fill-opacity="1" /><path clip-path="url(#clip700)" d="M1513.08 27.2059 L1520.53 27.2059 L1520.53 72.576 L1513.08 72.576 L1513.08 27.2059 M1513.08 9.54393 L1520.53 9.54393 L1520.53 18.9825 L1513.08 18.9825 L1513.08 9.54393 Z" fill="#000000" fill-rule="nonzero" fill-opacity="1" /><path clip-path="url(#clip700)" d="M1568.78 28.9478 L1568.78 35.9153 Q1565.62 34.1734 1562.42 33.3227 Q1559.26 32.4315 1556.02 32.4315 Q1548.77 32.4315 1544.76 37.0496 Q1540.75 41.6271 1540.75 49.9314 Q1540.75 58.2358 1544.76 62.8538 Q1548.77 67.4314 1556.02 67.4314 Q1559.26 67.4314 1562.42 66.5807 Q1565.62 65.6895 1568.78 63.9476 L1568.78 70.8341 Q1565.66 72.2924 1562.3 73.0216 Q1558.98 73.7508 1555.21 73.7508 Q1544.96 73.7508 1538.92 67.3098 Q1532.89 60.8689 1532.89 49.9314 Q1532.89 38.832 1538.96 32.472 Q1545.08 26.1121 1555.69 26.1121 Q1559.14 26.1121 1562.42 26.8413 Q1565.7 27.5299 1568.78 28.9478 Z" fill="#000000" fill-rule="nonzero" fill-opacity="1" /><path clip-path="url(#clip700)" d="M1602.36 49.7694 Q1593.33 49.7694 1589.84 51.8354 Q1586.36 53.9013 1586.36 58.8839 Q1586.36 62.8538 1588.95 65.2034 Q1591.58 67.5124 1596.08 67.5124 Q1602.28 67.5124 1606.01 63.1374 Q1609.77 58.7219 1609.77 51.4303 L1609.77 49.7694 L1602.36 49.7694 M1617.23 46.6907 L1617.23 72.576 L1609.77 72.576 L1609.77 65.6895 Q1607.22 69.8214 1603.41 71.8063 Q1599.61 73.7508 1594.1 73.7508 Q1587.13 73.7508 1583 69.8619 Q1578.91 65.9325 1578.91 59.3701 Q1578.91 51.7138 1584.01 47.825 Q1589.15 43.9361 1599.32 43.9361 L1609.77 43.9361 L1609.77 43.2069 Q1609.77 38.0623 1606.37 35.2672 Q1603.01 32.4315 1596.89 32.4315 Q1593 32.4315 1589.32 33.3632 Q1585.63 34.295 1582.23 36.1584 L1582.23 29.2718 Q1586.32 27.692 1590.17 26.9223 Q1594.02 26.1121 1597.66 26.1121 Q1607.51 26.1121 1612.37 31.2163 Q1617.23 36.3204 1617.23 46.6907 Z" fill="#000000" fill-rule="nonzero" fill-opacity="1" /><path clip-path="url(#clip700)" d="M1632.58 9.54393 L1640.03 9.54393 L1640.03 72.576 L1632.58 72.576 L1632.58 9.54393 Z" fill="#000000" fill-rule="nonzero" fill-opacity="1" /><path clip-path="url(#clip700)" d="M1682.33 12.096 L1694.52 12.096 L1709.95 53.2532 L1725.47 12.096 L1737.66 12.096 L1737.66 72.576 L1729.68 72.576 L1729.68 19.4686 L1714.08 60.9499 L1705.86 60.9499 L1690.27 19.4686 L1690.27 72.576 L1682.33 72.576 L1682.33 12.096 Z" fill="#000000" fill-rule="nonzero" fill-opacity="1" /><path clip-path="url(#clip700)" d="M1771.16 32.4315 Q1765.17 32.4315 1761.68 37.1306 Q1758.2 41.7891 1758.2 49.9314 Q1758.2 58.0738 1761.64 62.7728 Q1765.13 67.4314 1771.16 67.4314 Q1777.12 67.4314 1780.6 62.7323 Q1784.08 58.0333 1784.08 49.9314 Q1784.08 41.8701 1780.6 37.1711 Q1777.12 32.4315 1771.16 32.4315 M1771.16 26.1121 Q1780.88 26.1121 1786.43 32.4315 Q1791.98 38.7509 1791.98 49.9314 Q1791.98 61.0714 1786.43 67.4314 Q1780.88 73.7508 1771.16 73.7508 Q1761.4 73.7508 1755.85 67.4314 Q1750.34 61.0714 1750.34 49.9314 Q1750.34 38.7509 1755.85 32.4315 Q1761.4 26.1121 1771.16 26.1121 Z" fill="#000000" fill-rule="nonzero" fill-opacity="1" /><path clip-path="url(#clip700)" d="M1834.19 34.0924 L1834.19 9.54393 L1841.65 9.54393 L1841.65 72.576 L1834.19 72.576 L1834.19 65.7705 Q1831.84 69.8214 1828.24 71.8063 Q1824.67 73.7508 1819.65 73.7508 Q1811.43 73.7508 1806.24 67.1883 Q1801.1 60.6258 1801.1 49.9314 Q1801.1 39.2371 1806.24 32.6746 Q1811.43 26.1121 1819.65 26.1121 Q1824.67 26.1121 1828.24 28.0971 Q1831.84 30.0415 1834.19 34.0924 M1808.79 49.9314 Q1808.79 58.1548 1812.16 62.8538 Q1815.56 67.5124 1821.47 67.5124 Q1827.39 67.5124 1830.79 62.8538 Q1834.19 58.1548 1834.19 49.9314 Q1834.19 41.7081 1830.79 37.0496 Q1827.39 32.3505 1821.47 32.3505 Q1815.56 32.3505 1812.16 37.0496 Q1808.79 41.7081 1808.79 49.9314 Z" fill="#000000" fill-rule="nonzero" fill-opacity="1" /><path clip-path="url(#clip700)" d="M1895.81 48.0275 L1895.81 51.6733 L1861.54 51.6733 Q1862.02 59.3701 1866.16 63.421 Q1870.33 67.4314 1877.74 67.4314 Q1882.03 67.4314 1886.05 66.3781 Q1890.1 65.3249 1894.07 63.2184 L1894.07 70.267 Q1890.06 71.9684 1885.84 72.8596 Q1881.63 73.7508 1877.3 73.7508 Q1866.44 73.7508 1860.08 67.4314 Q1853.76 61.1119 1853.76 50.3365 Q1853.76 39.1965 1859.75 32.6746 Q1865.79 26.1121 1876 26.1121 Q1885.15 26.1121 1890.46 32.0264 Q1895.81 37.9003 1895.81 48.0275 M1888.35 45.84 Q1888.27 39.7232 1884.91 36.0774 Q1881.59 32.4315 1876.08 32.4315 Q1869.84 32.4315 1866.07 35.9558 Q1862.35 39.4801 1861.78 45.8805 L1888.35 45.84 Z" fill="#000000" fill-rule="nonzero" fill-opacity="1" /><path clip-path="url(#clip700)" d="M1908.04 9.54393 L1915.5 9.54393 L1915.5 72.576 L1908.04 72.576 L1908.04 9.54393 Z" fill="#000000" fill-rule="nonzero" fill-opacity="1" /><polyline clip-path="url(#clip702)" style="stroke:#009af9; stroke-linecap:round; stroke-linejoin:round; stroke-width:4; stroke-opacity:1; fill:none" points="768.125,1447.87 768.125,1384.84 793.52,1384.84 793.52,1372.24 818.914,1372.24 818.914,1334.42 844.309,1334.42 844.309,1246.17 869.704,1246.17 869.704,1220.96 895.099,1220.96 895.099,1069.69 920.493,1069.69 920.493,1019.26 945.888,1019.26 945.888,905.809 971.283,905.809 971.283,981.446 996.678,981.446 996.678,880.597 1022.07,880.597 1022.07,830.172 1047.47,830.172 1047.47,893.203 1072.86,893.203 1072.86,1057.08 1098.26,1057.08 1098.26,1120.11 1123.65,1120.11 1123.65,1183.14 1149.05,1183.14 1149.05,1157.93 1174.44,1157.93 1174.44,1183.14 1199.84,1183.14 1199.84,1258.78 1225.23,1258.78 1225.23,1347.02 1250.62,1347.02 1250.62,1384.84 1276.02,1384.84 1276.02,1410.05 1301.41,1410.05 1301.41,1447.87 1326.81,1447.87 1352.2,1447.87 1352.2,1435.27 1377.6,1435.27 1402.99,1435.27 1428.39,1435.27 1453.78,1435.27 1453.78,1410.05 1479.18,1410.05 1479.18,1334.42 1504.57,1334.42 1504.57,1372.24 1529.97,1372.24 1529.97,1246.17 1555.36,1246.17 1555.36,1271.39 1580.76,1271.39 1580.76,1220.96 1606.15,1220.96 1606.15,1044.48 1631.55,1044.48 1631.55,994.052 1656.94,994.052 1656.94,918.415 1682.34,918.415 1682.34,388.957 1707.73,388.957 1707.73,603.262 1733.12,603.262 1733.12,451.988 1758.52,451.988 1758.52,502.413 1783.91,502.413 1783.91,162.047 1809.31,162.047 1809.31,540.231 1834.7,540.231 1834.7,603.262 1860.1,603.262 1860.1,754.535 1885.49,754.535 1885.49,691.505 1910.89,691.505 1910.89,767.142 1936.28,767.142 1936.28,1069.69 1961.68,1069.69 1987.07,1069.69 1987.07,1208.36 2012.47,1208.36 2012.47,1271.39 2037.86,1271.39 2037.86,1384.84 2063.26,1384.84 2088.65,1384.84 2088.65,1435.27 2114.05,1435.27 2139.44,1435.27 2164.83,1435.27 2164.83,1447.87 2190.23,1447.87 2190.23,1435.27 2215.62,1435.27 2215.62,1447.87 2241.02,1447.87 2266.41,1447.87 2291.81,1447.87 "/>
<polyline clip-path="url(#clip702)" style="stroke:#e26f46; stroke-linecap:round; stroke-linejoin:round; stroke-width:4; stroke-opacity:1; fill:none" points="260.231,1447.87 262.77,1447.87 265.309,1447.87 267.849,1447.87 270.388,1447.87 272.928,1447.87 275.467,1447.87 278.007,1447.87 280.546,1447.87 283.086,1447.87 285.625,1447.87 288.165,1447.87 290.704,1447.87 293.244,1447.87 295.783,1447.87 298.323,1447.87 300.862,1447.87 303.402,1447.87 305.941,1447.87 308.481,1447.87 311.02,1447.87 313.559,1447.87 316.099,1447.87 318.638,1447.87 321.178,1447.87 323.717,1447.87 326.257,1447.87 328.796,1447.87 331.336,1447.87 333.875,1447.87 336.415,1447.87 338.954,1447.87 341.494,1447.87 344.033,1447.87 346.573,1447.87 349.112,1447.87 351.652,1447.87 354.191,1447.87 356.73,1447.87 359.27,1447.87 361.809,1447.87 364.349,1447.87 366.888,1447.87 369.428,1447.87 371.967,1447.87 374.507,1447.87 377.046,1447.87 379.586,1447.87 382.125,1447.87 384.665,1447.87 387.204,1447.87 389.744,1447.87 392.283,1447.87 394.823,1447.87 397.362,1447.87 399.902,1447.87 402.441,1447.87 404.98,1447.87 407.52,1447.87 410.059,1447.87 412.599,1447.87 415.138,1447.87 417.678,1447.87 420.217,1447.87 422.757,1447.87 425.296,1447.87 427.836,1447.86 430.375,1447.86 432.915,1447.86 435.454,1447.86 437.994,1447.86 440.533,1447.86 443.073,1447.86 445.612,1447.86 448.151,1447.85 450.691,1447.85 453.23,1447.85 455.77,1447.85 458.309,1447.85 460.849,1447.84 463.388,1447.84 465.928,1447.84 468.467,1447.84 471.007,1447.83 473.546,1447.83 476.086,1447.82 478.625,1447.82 481.165,1447.82 483.704,1447.81 486.244,1447.8 488.783,1447.8 491.323,1447.79 493.862,1447.79 496.401,1447.78 498.941,1447.77 501.48,1447.76 504.02,1447.75 506.559,1447.74 509.099,1447.73 511.638,1447.72 514.178,1447.7 516.717,1447.69 519.257,1447.68 521.796,1447.66 524.336,1447.64 526.875,1447.62 529.415,1447.6 531.954,1447.58 534.494,1447.56 537.033,1447.53 539.573,1447.51 542.112,1447.48 544.651,1447.44 547.191,1447.41 549.73,1447.38 552.27,1447.34 554.809,1447.3 557.349,1447.25 559.888,1447.21 562.428,1447.16 564.967,1447.1 567.507,1447.04 570.046,1446.98 572.586,1446.92 575.125,1446.85 577.665,1446.77 580.204,1446.69 582.744,1446.61 585.283,1446.52 587.822,1446.42 590.362,1446.32 592.901,1446.21 595.441,1446.09 597.98,1445.97 600.52,1445.84 603.059,1445.7 605.599,1445.55 608.138,1445.4 610.678,1445.23 613.217,1445.05 615.757,1444.87 618.296,1444.67 620.836,1444.46 623.375,1444.24 625.915,1444 628.454,1443.75 630.994,1443.49 633.533,1443.21 636.072,1442.92 638.612,1442.61 641.151,1442.29 643.691,1441.94 646.23,1441.58 648.77,1441.2 651.309,1440.79 653.849,1440.37 656.388,1439.92 658.928,1439.45 661.467,1438.96 664.007,1438.44 666.546,1437.89 669.086,1437.32 671.625,1436.72 674.165,1436.09 676.704,1435.43 679.244,1434.74 681.783,1434.01 684.322,1433.25 686.862,1432.45 689.401,1431.62 691.941,1430.75 694.48,1429.84 697.02,1428.89 699.559,1427.9 702.099,1426.86 704.638,1425.78 707.178,1424.65 709.717,1423.47 712.257,1422.25 714.796,1420.97 717.336,1419.64 719.875,1418.26 722.415,1416.82 724.954,1415.33 727.493,1413.78 730.033,1412.16 732.572,1410.49 735.112,1408.75 737.651,1406.95 740.191,1405.09 742.73,1403.15 745.27,1401.15 747.809,1399.08 750.349,1396.93 752.888,1394.72 755.428,1392.43 757.967,1390.06 760.507,1387.62 763.046,1385.09 765.586,1382.49 768.125,1379.81 770.665,1377.05 773.204,1374.2 775.743,1371.27 778.283,1368.26 780.822,1365.16 783.362,1361.97 785.901,1358.7 788.441,1355.34 790.98,1351.89 793.52,1348.35 796.059,1344.72 798.599,1341 801.138,1337.2 803.678,1333.3 806.217,1329.31 808.757,1325.24 811.296,1321.07 813.836,1316.82 816.375,1312.48 818.914,1308.04 821.454,1303.53 823.993,1298.92 826.533,1294.23 829.072,1289.46 831.612,1284.6 834.151,1279.66 836.691,1274.64 839.23,1269.55 841.77,1264.37 844.309,1259.12 846.849,1253.8 849.388,1248.41 851.928,1242.95 854.467,1237.43 857.007,1231.84 859.546,1226.2 862.086,1220.49 864.625,1214.74 867.164,1208.93 869.704,1203.08 872.243,1197.18 874.783,1191.25 877.322,1185.28 879.862,1179.28 882.401,1173.25 884.941,1167.19 887.48,1161.12 890.02,1155.04 892.559,1148.94 895.099,1142.84 897.638,1136.74 900.178,1130.65 902.717,1124.56 905.257,1118.49 907.796,1112.44 910.336,1106.42 912.875,1100.42 915.414,1094.47 917.954,1088.55 920.493,1082.68 923.033,1076.87 925.572,1071.11 928.112,1065.42 930.651,1059.79 933.191,1054.24 935.73,1048.77 938.27,1043.39 940.809,1038.1 943.349,1032.9 945.888,1027.81 948.428,1022.82 950.967,1017.95 953.507,1013.19 956.046,1008.56 958.585,1004.05 961.125,999.684 963.664,995.451 966.204,991.361 968.743,987.418 971.283,983.627 973.822,979.991 976.362,976.516 978.901,973.205 981.441,970.062 983.98,967.09 986.52,964.294 989.059,961.675 991.599,959.238 994.138,956.985 996.678,954.919 999.217,953.042 1001.76,951.357 1004.3,949.865 1006.84,948.569 1009.37,947.469 1011.91,946.568 1014.45,945.865 1016.99,945.363 1019.53,945.061 1022.07,944.961 1024.61,945.061 1027.15,945.363 1029.69,945.865 1032.23,946.568 1034.77,947.469 1037.31,948.569 1039.85,949.865 1042.39,951.357 1044.93,953.042 1047.47,954.919 1050.01,956.985 1052.55,959.238 1055.09,961.675 1057.62,964.294 1060.16,967.09 1062.7,970.062 1065.24,973.205 1067.78,976.516 1070.32,979.991 1072.86,983.626 1075.4,987.418 1077.94,991.361 1080.48,995.451 1083.02,999.684 1085.56,1004.05 1088.1,1008.56 1090.64,1013.19 1093.18,1017.95 1095.72,1022.82 1098.26,1027.81 1100.8,1032.9 1103.34,1038.09 1105.87,1043.39 1108.41,1048.77 1110.95,1054.24 1113.49,1059.79 1116.03,1065.42 1118.57,1071.11 1121.11,1076.87 1123.65,1082.68 1126.19,1088.55 1128.73,1094.47 1131.27,1100.42 1133.81,1106.42 1136.35,1112.44 1138.89,1118.49 1141.43,1124.56 1143.97,1130.64 1146.51,1136.74 1149.05,1142.84 1151.59,1148.94 1154.12,1155.03 1156.66,1161.12 1159.2,1167.19 1161.74,1173.24 1164.28,1179.27 1166.82,1185.27 1169.36,1191.24 1171.9,1197.17 1174.44,1203.07 1176.98,1208.92 1179.52,1214.73 1182.06,1220.48 1184.6,1226.18 1187.14,1231.83 1189.68,1237.41 1192.22,1242.93 1194.76,1248.39 1197.3,1253.78 1199.84,1259.1 1202.37,1264.34 1204.91,1269.52 1207.45,1274.61 1209.99,1279.63 1212.53,1284.56 1215.07,1289.41 1217.61,1294.18 1220.15,1298.87 1222.69,1303.47 1225.23,1307.98 1227.77,1312.41 1230.31,1316.74 1232.85,1320.99 1235.39,1325.15 1237.93,1329.22 1240.47,1333.19 1243.01,1337.08 1245.55,1340.88 1248.09,1344.58 1250.62,1348.2 1253.16,1351.72 1255.7,1355.16 1258.24,1358.51 1260.78,1361.76 1263.32,1364.93 1265.86,1368.01 1268.4,1371.01 1270.94,1373.91 1273.48,1376.74 1276.02,1379.47 1278.56,1382.13 1281.1,1384.7 1283.64,1387.19 1286.18,1389.6 1288.72,1391.93 1291.26,1394.18 1293.8,1396.35 1296.34,1398.45 1298.87,1400.47 1301.41,1402.42 1303.95,1404.29 1306.49,1406.1 1309.03,1407.83 1311.57,1409.5 1314.11,1411.09 1316.65,1412.62 1319.19,1414.09 1321.73,1415.49 1324.27,1416.82 1326.81,1418.1 1329.35,1419.31 1331.89,1420.47 1334.43,1421.56 1336.97,1422.6 1339.51,1423.58 1342.05,1424.5 1344.59,1425.37 1347.12,1426.18 1349.66,1426.94 1352.2,1427.64 1354.74,1428.3 1357.28,1428.9 1359.82,1429.45 1362.36,1429.95 1364.9,1430.39 1367.44,1430.79 1369.98,1431.14 1372.52,1431.44 1375.06,1431.69 1377.6,1431.88 1380.14,1432.03 1382.68,1432.13 1385.22,1432.18 1387.76,1432.18 1390.3,1432.13 1392.84,1432.03 1395.37,1431.88 1397.91,1431.68 1400.45,1431.42 1402.99,1431.11 1405.53,1430.75 1408.07,1430.33 1410.61,1429.86 1413.15,1429.33 1415.69,1428.75 1418.23,1428.1 1420.77,1427.4 1423.31,1426.63 1425.85,1425.8 1428.39,1424.91 1430.93,1423.95 1433.47,1422.93 1436.01,1421.83 1438.55,1420.67 1441.09,1419.43 1443.62,1418.11 1446.16,1416.73 1448.7,1415.26 1451.24,1413.71 1453.78,1412.07 1456.32,1410.36 1458.86,1408.55 1461.4,1406.65 1463.94,1404.66 1466.48,1402.58 1469.02,1400.4 1471.56,1398.12 1474.1,1395.73 1476.64,1393.24 1479.18,1390.64 1481.72,1387.93 1484.26,1385.1 1486.8,1382.16 1489.34,1379.1 1491.87,1375.92 1494.41,1372.61 1496.95,1369.17 1499.49,1365.61 1502.03,1361.9 1504.57,1358.07 1507.11,1354.09 1509.65,1349.97 1512.19,1345.7 1514.73,1341.29 1517.27,1336.73 1519.81,1332.02 1522.35,1327.15 1524.89,1322.12 1527.43,1316.93 1529.97,1311.58 1532.51,1306.07 1535.05,1300.39 1537.59,1294.54 1540.12,1288.52 1542.66,1282.33 1545.2,1275.96 1547.74,1269.43 1550.28,1262.71 1552.82,1255.82 1555.36,1248.75 1557.9,1241.5 1560.44,1234.07 1562.98,1226.46 1565.52,1218.67 1568.06,1210.71 1570.6,1202.56 1573.14,1194.23 1575.68,1185.73 1578.22,1177.04 1580.76,1168.18 1583.3,1159.15 1585.84,1149.95 1588.37,1140.57 1590.91,1131.02 1593.45,1121.31 1595.99,1111.43 1598.53,1101.4 1601.07,1091.2 1603.61,1080.86 1606.15,1070.36 1608.69,1059.72 1611.23,1048.94 1613.77,1038.03 1616.31,1026.98 1618.85,1015.81 1621.39,1004.51 1623.93,993.11 1626.47,981.598 1629.01,969.986 1631.55,958.281 1634.09,946.489 1636.62,934.619 1639.16,922.678 1641.7,910.674 1644.24,898.615 1646.78,886.51 1649.32,874.368 1651.86,862.197 1654.4,850.007 1656.94,837.808 1659.48,825.608 1662.02,813.419 1664.56,801.249 1667.1,789.11 1669.64,777.01 1672.18,764.962 1674.72,752.976 1677.26,741.062 1679.8,729.231 1682.34,717.494 1684.87,705.862 1687.41,694.347 1689.95,682.959 1692.49,671.709 1695.03,660.609 1697.57,649.67 1700.11,638.902 1702.65,628.317 1705.19,617.925 1707.73,607.738 1710.27,597.765 1712.81,588.019 1715.35,578.508 1717.89,569.244 1720.43,560.236 1722.97,551.494 1725.51,543.029 1728.05,534.848 1730.59,526.963 1733.12,519.38 1735.66,512.11 1738.2,505.159 1740.74,498.537 1743.28,492.251 1745.82,486.307 1748.36,480.714 1750.9,475.477 1753.44,470.603 1755.98,466.097 1758.52,461.965 1761.06,458.212 1763.6,454.841 1766.14,451.858 1768.68,449.265 1771.22,447.065 1773.76,445.262 1776.3,443.858 1778.84,442.853 1781.37,442.25 1783.91,442.049 1786.45,442.25 1788.99,442.853 1791.53,443.858 1794.07,445.262 1796.61,447.065 1799.15,449.265 1801.69,451.858 1804.23,454.841 1806.77,458.212 1809.31,461.965 1811.85,466.098 1814.39,470.603 1816.93,475.477 1819.47,480.714 1822.01,486.308 1824.55,492.251 1827.09,498.537 1829.62,505.159 1832.16,512.11 1834.7,519.38 1837.24,526.963 1839.78,534.849 1842.32,543.029 1844.86,551.495 1847.4,560.236 1849.94,569.244 1852.48,578.508 1855.02,588.019 1857.56,597.766 1860.1,607.738 1862.64,617.925 1865.18,628.317 1867.72,638.902 1870.26,649.67 1872.8,660.61 1875.34,671.71 1877.87,682.96 1880.41,694.348 1882.95,705.863 1885.49,717.495 1888.03,729.231 1890.57,741.062 1893.11,752.977 1895.65,764.963 1898.19,777.012 1900.73,789.111 1903.27,801.251 1905.81,813.42 1908.35,825.61 1910.89,837.81 1913.43,850.009 1915.97,862.199 1918.51,874.37 1921.05,886.513 1923.59,898.618 1926.12,910.677 1928.66,922.682 1931.2,934.623 1933.74,946.494 1936.28,958.286 1938.82,969.992 1941.36,981.604 1943.9,993.116 1946.44,1004.52 1948.98,1015.81 1951.52,1026.99 1954.06,1038.03 1956.6,1048.95 1959.14,1059.73 1961.68,1070.38 1964.22,1080.87 1966.76,1091.22 1969.3,1101.41 1971.84,1111.45 1974.37,1121.33 1976.91,1131.04 1979.45,1140.59 1981.99,1149.97 1984.53,1159.18 1987.07,1168.22 1989.61,1177.08 1992.15,1185.76 1994.69,1194.27 1997.23,1202.6 1999.77,1210.75 2002.31,1218.73 2004.85,1226.52 2007.39,1234.13 2009.93,1241.57 2012.47,1248.82 2015.01,1255.9 2017.55,1262.8 2020.09,1269.52 2022.62,1276.07 2025.16,1282.44 2027.7,1288.64 2030.24,1294.67 2032.78,1300.53 2035.32,1306.22 2037.86,1311.75 2040.4,1317.11 2042.94,1322.32 2045.48,1327.36 2048.02,1332.25 2050.56,1336.98 2053.1,1341.56 2055.64,1346 2058.18,1350.28 2060.72,1354.43 2063.26,1358.43 2065.8,1362.3 2068.33,1366.03 2070.87,1369.63 2073.41,1373.11 2075.95,1376.45 2078.49,1379.68 2081.03,1382.78 2083.57,1385.77 2086.11,1388.65 2088.65,1391.41 2091.19,1394.07 2093.73,1396.62 2096.27,1399.07 2098.81,1401.42 2101.35,1403.68 2103.89,1405.84 2106.43,1407.92 2108.97,1409.9 2111.51,1411.81 2114.05,1413.63 2116.58,1415.37 2119.12,1417.03 2121.66,1418.63 2124.2,1420.15 2126.74,1421.6 2129.28,1422.99 2131.82,1424.31 2134.36,1425.57 2136.9,1426.77 2139.44,1427.92 2141.98,1429.01 2144.52,1430.05 2147.06,1431.03 2149.6,1431.97 2152.14,1432.87 2154.68,1433.71 2157.22,1434.52 2159.76,1435.28 2162.3,1436.01 2164.83,1436.7 2167.37,1437.35 2169.91,1437.97 2172.45,1438.56 2174.99,1439.11 2177.53,1439.64 2180.07,1440.13 2182.61,1440.6 2185.15,1441.05 2187.69,1441.47 2190.23,1441.86 2192.77,1442.24 2195.31,1442.59 2197.85,1442.92 2200.39,1443.23 2202.93,1443.53 2205.47,1443.81 2208.01,1444.07 2210.55,1444.32 2213.08,1444.55 2215.62,1444.77 2218.16,1444.97 2220.7,1445.16 2223.24,1445.34 2225.78,1445.51 2228.32,1445.67 2230.86,1445.82 2233.4,1445.96 2235.94,1446.09 2238.48,1446.22 2241.02,1446.33 2243.56,1446.44 2246.1,1446.54 2248.64,1446.63 2251.18,1446.72 2253.72,1446.8 2256.26,1446.88 2258.8,1446.95 2261.33,1447.02 2263.87,1447.08 2266.41,1447.14 2268.95,1447.19 2271.49,1447.24 2274.03,1447.29 2276.57,1447.33 2279.11,1447.37 2281.65,1447.41 2284.19,1447.44 2286.73,1447.48 2289.27,1447.51 2291.81,1447.54 "/>
<path clip-path="url(#clip700)" d="M1949.35 324.425 L2280.97 324.425 L2280.97 168.905 L1949.35 168.905  Z" fill="#ffffff" fill-rule="evenodd" fill-opacity="1"/>
<polyline clip-path="url(#clip700)" style="stroke:#000000; stroke-linecap:round; stroke-linejoin:round; stroke-width:4; stroke-opacity:1; fill:none" points="1949.35,324.425 2280.97,324.425 2280.97,168.905 1949.35,168.905 1949.35,324.425 "/>
<polyline clip-path="url(#clip700)" style="stroke:#009af9; stroke-linecap:round; stroke-linejoin:round; stroke-width:4; stroke-opacity:1; fill:none" points="1973.28,220.745 2116.85,220.745 "/>
<path clip-path="url(#clip700)" d="M2145.45 207.307 L2145.45 234.182 L2151.1 234.182 Q2158.25 234.182 2161.56 230.941 Q2164.89 227.701 2164.89 220.71 Q2164.89 213.766 2161.56 210.548 Q2158.25 207.307 2151.1 207.307 L2145.45 207.307 M2140.77 203.465 L2150.38 203.465 Q2160.43 203.465 2165.13 207.654 Q2169.82 211.821 2169.82 220.71 Q2169.82 229.645 2165.1 233.835 Q2160.38 238.025 2150.38 238.025 L2140.77 238.025 L2140.77 203.465 Z" fill="#000000" fill-rule="nonzero" fill-opacity="1" /><path clip-path="url(#clip700)" d="M2188.88 224.992 Q2183.71 224.992 2181.72 226.173 Q2179.73 227.353 2179.73 230.201 Q2179.73 232.469 2181.21 233.812 Q2182.72 235.131 2185.29 235.131 Q2188.83 235.131 2190.96 232.631 Q2193.11 230.108 2193.11 225.941 L2193.11 224.992 L2188.88 224.992 M2197.37 223.233 L2197.37 238.025 L2193.11 238.025 L2193.11 234.089 Q2191.65 236.451 2189.48 237.585 Q2187.3 238.696 2184.15 238.696 Q2180.17 238.696 2177.81 236.474 Q2175.47 234.228 2175.47 230.478 Q2175.47 226.103 2178.39 223.881 Q2181.33 221.659 2187.14 221.659 L2193.11 221.659 L2193.11 221.242 Q2193.11 218.303 2191.17 216.705 Q2189.25 215.085 2185.75 215.085 Q2183.53 215.085 2181.42 215.617 Q2179.31 216.15 2177.37 217.215 L2177.37 213.279 Q2179.71 212.377 2181.91 211.937 Q2184.11 211.474 2186.19 211.474 Q2191.81 211.474 2194.59 214.391 Q2197.37 217.307 2197.37 223.233 Z" fill="#000000" fill-rule="nonzero" fill-opacity="1" /><path clip-path="url(#clip700)" d="M2210.36 204.738 L2210.36 212.099 L2219.13 212.099 L2219.13 215.409 L2210.36 215.409 L2210.36 229.483 Q2210.36 232.654 2211.21 233.557 Q2212.09 234.46 2214.75 234.46 L2219.13 234.46 L2219.13 238.025 L2214.75 238.025 Q2209.82 238.025 2207.95 236.196 Q2206.07 234.344 2206.07 229.483 L2206.07 215.409 L2202.95 215.409 L2202.95 212.099 L2206.07 212.099 L2206.07 204.738 L2210.36 204.738 Z" fill="#000000" fill-rule="nonzero" fill-opacity="1" /><path clip-path="url(#clip700)" d="M2236.51 224.992 Q2231.35 224.992 2229.36 226.173 Q2227.37 227.353 2227.37 230.201 Q2227.37 232.469 2228.85 233.812 Q2230.36 235.131 2232.93 235.131 Q2236.47 235.131 2238.6 232.631 Q2240.75 230.108 2240.75 225.941 L2240.75 224.992 L2236.51 224.992 M2245.01 223.233 L2245.01 238.025 L2240.75 238.025 L2240.75 234.089 Q2239.29 236.451 2237.12 237.585 Q2234.94 238.696 2231.79 238.696 Q2227.81 238.696 2225.45 236.474 Q2223.11 234.228 2223.11 230.478 Q2223.11 226.103 2226.03 223.881 Q2228.97 221.659 2234.78 221.659 L2240.75 221.659 L2240.75 221.242 Q2240.75 218.303 2238.81 216.705 Q2236.88 215.085 2233.39 215.085 Q2231.17 215.085 2229.06 215.617 Q2226.95 216.15 2225.01 217.215 L2225.01 213.279 Q2227.35 212.377 2229.55 211.937 Q2231.75 211.474 2233.83 211.474 Q2239.45 211.474 2242.23 214.391 Q2245.01 217.307 2245.01 223.233 Z" fill="#000000" fill-rule="nonzero" fill-opacity="1" /><polyline clip-path="url(#clip700)" style="stroke:#e26f46; stroke-linecap:round; stroke-linejoin:round; stroke-width:4; stroke-opacity:1; fill:none" points="1973.28,272.585 2116.85,272.585 "/>
<path clip-path="url(#clip700)" d="M2140.77 255.305 L2170.01 255.305 L2170.01 259.24 L2157.74 259.24 L2157.74 289.865 L2153.04 289.865 L2153.04 259.24 L2140.77 259.24 L2140.77 255.305 Z" fill="#000000" fill-rule="nonzero" fill-opacity="1" /><path clip-path="url(#clip700)" d="M2182.39 267.92 Q2181.68 267.504 2180.82 267.318 Q2179.99 267.11 2178.97 267.11 Q2175.36 267.11 2173.41 269.471 Q2171.49 271.809 2171.49 276.207 L2171.49 289.865 L2167.21 289.865 L2167.21 263.939 L2171.49 263.939 L2171.49 267.967 Q2172.83 265.606 2174.99 264.471 Q2177.14 263.314 2180.22 263.314 Q2180.66 263.314 2181.19 263.383 Q2181.72 263.43 2182.37 263.545 L2182.39 267.92 Z" fill="#000000" fill-rule="nonzero" fill-opacity="1" /><path clip-path="url(#clip700)" d="M2186.42 279.633 L2186.42 263.939 L2190.68 263.939 L2190.68 279.471 Q2190.68 283.152 2192.12 285.004 Q2193.55 286.832 2196.42 286.832 Q2199.87 286.832 2201.86 284.633 Q2203.87 282.434 2203.87 278.638 L2203.87 263.939 L2208.13 263.939 L2208.13 289.865 L2203.87 289.865 L2203.87 285.883 Q2202.32 288.244 2200.26 289.402 Q2198.23 290.536 2195.52 290.536 Q2191.05 290.536 2188.74 287.758 Q2186.42 284.98 2186.42 279.633 M2197.14 263.314 L2197.14 263.314 Z" fill="#000000" fill-rule="nonzero" fill-opacity="1" /><path clip-path="url(#clip700)" d="M2221.12 256.578 L2221.12 263.939 L2229.89 263.939 L2229.89 267.249 L2221.12 267.249 L2221.12 281.323 Q2221.12 284.494 2221.98 285.397 Q2222.86 286.3 2225.52 286.3 L2229.89 286.3 L2229.89 289.865 L2225.52 289.865 Q2220.59 289.865 2218.71 288.036 Q2216.84 286.184 2216.84 281.323 L2216.84 267.249 L2213.71 267.249 L2213.71 263.939 L2216.84 263.939 L2216.84 256.578 L2221.12 256.578 Z" fill="#000000" fill-rule="nonzero" fill-opacity="1" /><path clip-path="url(#clip700)" d="M2257.05 274.217 L2257.05 289.865 L2252.79 289.865 L2252.79 274.355 Q2252.79 270.675 2251.35 268.846 Q2249.92 267.018 2247.05 267.018 Q2243.6 267.018 2241.61 269.217 Q2239.62 271.416 2239.62 275.212 L2239.62 289.865 L2235.33 289.865 L2235.33 253.846 L2239.62 253.846 L2239.62 267.967 Q2241.14 265.629 2243.2 264.471 Q2245.29 263.314 2248 263.314 Q2252.46 263.314 2254.75 266.092 Q2257.05 268.846 2257.05 274.217 Z" fill="#000000" fill-rule="nonzero" fill-opacity="1" /></svg>
