<?xml version="1.0" encoding="utf-8"?>
<svg xmlns="http://www.w3.org/2000/svg" xmlns:xlink="http://www.w3.org/1999/xlink" width="600" height="400" viewBox="0 0 2400 1600">
<defs>
  <clipPath id="clip020">
    <rect x="0" y="0" width="2400" height="1600"/>
  </clipPath>
</defs>
<path clip-path="url(#clip020)" d="
M0 1600 L2400 1600 L2400 0 L0 0  Z
  " fill="#ffffff" fill-rule="evenodd" fill-opacity="1"/>
<defs>
  <clipPath id="clip021">
    <rect x="480" y="0" width="1681" height="1600"/>
  </clipPath>
</defs>
<path clip-path="url(#clip020)" d="
M166.205 1486.45 L2352.76 1486.45 L2352.76 123.472 L166.205 123.472  Z
  " fill="#ffffff" fill-rule="evenodd" fill-opacity="1"/>
<defs>
  <clipPath id="clip022">
    <rect x="166" y="123" width="2188" height="1364"/>
  </clipPath>
</defs>
<polyline clip-path="url(#clip022)" style="stroke:#000000; stroke-width:2; stroke-opacity:0.1; fill:none" points="
  228.088,1486.45 228.088,123.472 
  "/>
<polyline clip-path="url(#clip022)" style="stroke:#000000; stroke-width:2; stroke-opacity:0.1; fill:none" points="
  743.784,1486.45 743.784,123.472 
  "/>
<polyline clip-path="url(#clip022)" style="stroke:#000000; stroke-width:2; stroke-opacity:0.1; fill:none" points="
  1259.48,1486.45 1259.48,123.472 
  "/>
<polyline clip-path="url(#clip022)" style="stroke:#000000; stroke-width:2; stroke-opacity:0.1; fill:none" points="
  1775.18,1486.45 1775.18,123.472 
  "/>
<polyline clip-path="url(#clip022)" style="stroke:#000000; stroke-width:2; stroke-opacity:0.1; fill:none" points="
  2290.87,1486.45 2290.87,123.472 
  "/>
<polyline clip-path="url(#clip022)" style="stroke:#000000; stroke-width:2; stroke-opacity:0.1; fill:none" points="
  166.205,1447.87 2352.76,1447.87 
  "/>
<polyline clip-path="url(#clip022)" style="stroke:#000000; stroke-width:2; stroke-opacity:0.1; fill:none" points="
  166.205,1165.27 2352.76,1165.27 
  "/>
<polyline clip-path="url(#clip022)" style="stroke:#000000; stroke-width:2; stroke-opacity:0.1; fill:none" points="
  166.205,882.675 2352.76,882.675 
  "/>
<polyline clip-path="url(#clip022)" style="stroke:#000000; stroke-width:2; stroke-opacity:0.1; fill:none" points="
  166.205,600.076 2352.76,600.076 
  "/>
<polyline clip-path="url(#clip022)" style="stroke:#000000; stroke-width:2; stroke-opacity:0.1; fill:none" points="
  166.205,317.476 2352.76,317.476 
  "/>
<polyline clip-path="url(#clip020)" style="stroke:#000000; stroke-width:4; stroke-opacity:1; fill:none" points="
  166.205,1486.45 2352.76,1486.45 
  "/>
<polyline clip-path="url(#clip020)" style="stroke:#000000; stroke-width:4; stroke-opacity:1; fill:none" points="
  166.205,1486.45 166.205,123.472 
  "/>
<polyline clip-path="url(#clip020)" style="stroke:#000000; stroke-width:4; stroke-opacity:1; fill:none" points="
  228.088,1486.45 228.088,1470.09 
  "/>
<polyline clip-path="url(#clip020)" style="stroke:#000000; stroke-width:4; stroke-opacity:1; fill:none" points="
  743.784,1486.45 743.784,1470.09 
  "/>
<polyline clip-path="url(#clip020)" style="stroke:#000000; stroke-width:4; stroke-opacity:1; fill:none" points="
  1259.48,1486.45 1259.48,1470.09 
  "/>
<polyline clip-path="url(#clip020)" style="stroke:#000000; stroke-width:4; stroke-opacity:1; fill:none" points="
  1775.18,1486.45 1775.18,1470.09 
  "/>
<polyline clip-path="url(#clip020)" style="stroke:#000000; stroke-width:4; stroke-opacity:1; fill:none" points="
  2290.87,1486.45 2290.87,1470.09 
  "/>
<polyline clip-path="url(#clip020)" style="stroke:#000000; stroke-width:4; stroke-opacity:1; fill:none" points="
  166.205,1447.87 192.443,1447.87 
  "/>
<polyline clip-path="url(#clip020)" style="stroke:#000000; stroke-width:4; stroke-opacity:1; fill:none" points="
  166.205,1165.27 192.443,1165.27 
  "/>
<polyline clip-path="url(#clip020)" style="stroke:#000000; stroke-width:4; stroke-opacity:1; fill:none" points="
  166.205,882.675 192.443,882.675 
  "/>
<polyline clip-path="url(#clip020)" style="stroke:#000000; stroke-width:4; stroke-opacity:1; fill:none" points="
  166.205,600.076 192.443,600.076 
  "/>
<polyline clip-path="url(#clip020)" style="stroke:#000000; stroke-width:4; stroke-opacity:1; fill:none" points="
  166.205,317.476 192.443,317.476 
  "/>
<path clip-path="url(#clip020)" d="M 0 0 M208.1 1525.04 L220.577 1525.04 L220.577 1528.83 L208.1 1528.83 L208.1 1525.04 Z" fill="#000000" fill-rule="evenodd" fill-opacity="1" /><path clip-path="url(#clip020)" d="M 0 0 M238.493 1509.43 L226.688 1527.88 L238.493 1527.88 L238.493 1509.43 M237.266 1505.36 L243.146 1505.36 L243.146 1527.88 L248.077 1527.88 L248.077 1531.77 L243.146 1531.77 L243.146 1539.92 L238.493 1539.92 L238.493 1531.77 L222.891 1531.77 L222.891 1527.26 L237.266 1505.36 Z" fill="#000000" fill-rule="evenodd" fill-opacity="1" /><path clip-path="url(#clip020)" d="M 0 0 M724.838 1525.04 L737.314 1525.04 L737.314 1528.83 L724.838 1528.83 L724.838 1525.04 Z" fill="#000000" fill-rule="evenodd" fill-opacity="1" /><path clip-path="url(#clip020)" d="M 0 0 M746.412 1535.98 L762.731 1535.98 L762.731 1539.92 L740.787 1539.92 L740.787 1535.98 Q743.449 1533.23 748.032 1528.6 Q752.638 1523.95 753.819 1522.61 Q756.064 1520.08 756.944 1518.35 Q757.847 1516.59 757.847 1514.9 Q757.847 1512.14 755.902 1510.41 Q753.981 1508.67 750.879 1508.67 Q748.68 1508.67 746.226 1509.43 Q743.796 1510.2 741.018 1511.75 L741.018 1507.03 Q743.842 1505.89 746.296 1505.31 Q748.749 1504.73 750.787 1504.73 Q756.157 1504.73 759.351 1507.42 Q762.546 1510.11 762.546 1514.6 Q762.546 1516.73 761.736 1518.65 Q760.948 1520.54 758.842 1523.14 Q758.263 1523.81 755.161 1527.03 Q752.06 1530.22 746.412 1535.98 Z" fill="#000000" fill-rule="evenodd" fill-opacity="1" /><path clip-path="url(#clip020)" d="M 0 0 M1259.48 1508.44 Q1255.87 1508.44 1254.04 1512 Q1252.23 1515.55 1252.23 1522.67 Q1252.23 1529.78 1254.04 1533.35 Q1255.87 1536.89 1259.48 1536.89 Q1263.11 1536.89 1264.92 1533.35 Q1266.75 1529.78 1266.75 1522.67 Q1266.75 1515.55 1264.92 1512 Q1263.11 1508.44 1259.48 1508.44 M1259.48 1504.73 Q1265.29 1504.73 1268.35 1509.34 Q1271.42 1513.92 1271.42 1522.67 Q1271.42 1531.4 1268.35 1536.01 Q1265.29 1540.59 1259.48 1540.59 Q1253.67 1540.59 1250.59 1536.01 Q1247.54 1531.4 1247.54 1522.67 Q1247.54 1513.92 1250.59 1509.34 Q1253.67 1504.73 1259.48 1504.73 Z" fill="#000000" fill-rule="evenodd" fill-opacity="1" /><path clip-path="url(#clip020)" d="M 0 0 M1769.83 1535.98 L1786.15 1535.98 L1786.15 1539.92 L1764.2 1539.92 L1764.2 1535.98 Q1766.87 1533.23 1771.45 1528.6 Q1776.06 1523.95 1777.24 1522.61 Q1779.48 1520.08 1780.36 1518.35 Q1781.26 1516.59 1781.26 1514.9 Q1781.26 1512.14 1779.32 1510.41 Q1777.4 1508.67 1774.3 1508.67 Q1772.1 1508.67 1769.64 1509.43 Q1767.21 1510.2 1764.44 1511.75 L1764.44 1507.03 Q1767.26 1505.89 1769.71 1505.31 Q1772.17 1504.73 1774.2 1504.73 Q1779.57 1504.73 1782.77 1507.42 Q1785.96 1510.11 1785.96 1514.6 Q1785.96 1516.73 1785.15 1518.65 Q1784.37 1520.54 1782.26 1523.14 Q1781.68 1523.81 1778.58 1527.03 Q1775.48 1530.22 1769.83 1535.98 Z" fill="#000000" fill-rule="evenodd" fill-opacity="1" /><path clip-path="url(#clip020)" d="M 0 0 M2293.88 1509.43 L2282.08 1527.88 L2293.88 1527.88 L2293.88 1509.43 M2292.65 1505.36 L2298.53 1505.36 L2298.53 1527.88 L2303.46 1527.88 L2303.46 1531.77 L2298.53 1531.77 L2298.53 1539.92 L2293.88 1539.92 L2293.88 1531.77 L2278.28 1531.77 L2278.28 1527.26 L2292.65 1505.36 Z" fill="#000000" fill-rule="evenodd" fill-opacity="1" /><path clip-path="url(#clip020)" d="M 0 0 M130.26 1433.67 Q126.649 1433.67 124.82 1437.24 Q123.015 1440.78 123.015 1447.91 Q123.015 1455.01 124.82 1458.58 Q126.649 1462.12 130.26 1462.12 Q133.895 1462.12 135.7 1458.58 Q137.529 1455.01 137.529 1447.91 Q137.529 1440.78 135.7 1437.24 Q133.895 1433.67 130.26 1433.67 M130.26 1429.97 Q136.07 1429.97 139.126 1434.57 Q142.205 1439.16 142.205 1447.91 Q142.205 1456.63 139.126 1461.24 Q136.07 1465.82 130.26 1465.82 Q124.45 1465.82 121.371 1461.24 Q118.316 1456.63 118.316 1447.91 Q118.316 1439.16 121.371 1434.57 Q124.45 1429.97 130.26 1429.97 Z" fill="#000000" fill-rule="evenodd" fill-opacity="1" /><path clip-path="url(#clip020)" d="M 0 0 M71.8578 1178.62 L88.1772 1178.62 L88.1772 1182.55 L66.2328 1182.55 L66.2328 1178.62 Q68.8949 1175.86 73.4782 1171.23 Q78.0846 1166.58 79.2652 1165.24 Q81.5105 1162.72 82.3902 1160.98 Q83.2929 1159.22 83.2929 1157.53 Q83.2929 1154.78 81.3485 1153.04 Q79.4272 1151.3 76.3254 1151.3 Q74.1263 1151.3 71.6726 1152.07 Q69.2421 1152.83 66.4643 1154.38 L66.4643 1149.66 Q69.2884 1148.53 71.7421 1147.95 Q74.1958 1147.37 76.2328 1147.37 Q81.6031 1147.37 84.7976 1150.05 Q87.992 1152.74 87.992 1157.23 Q87.992 1159.36 87.1818 1161.28 Q86.3948 1163.18 84.2883 1165.77 Q83.7096 1166.44 80.6078 1169.66 Q77.5059 1172.85 71.8578 1178.62 Z" fill="#000000" fill-rule="evenodd" fill-opacity="1" /><path clip-path="url(#clip020)" d="M 0 0 M103.247 1151.07 Q99.6354 1151.07 97.8068 1154.64 Q96.0012 1158.18 96.0012 1165.31 Q96.0012 1172.42 97.8068 1175.98 Q99.6354 1179.52 103.247 1179.52 Q106.881 1179.52 108.686 1175.98 Q110.515 1172.42 110.515 1165.31 Q110.515 1158.18 108.686 1154.64 Q106.881 1151.07 103.247 1151.07 M103.247 1147.37 Q109.057 1147.37 112.112 1151.98 Q115.191 1156.56 115.191 1165.31 Q115.191 1174.04 112.112 1178.64 Q109.057 1183.23 103.247 1183.23 Q97.4364 1183.23 94.3577 1178.64 Q91.3022 1174.04 91.3022 1165.31 Q91.3022 1156.56 94.3577 1151.98 Q97.4364 1147.37 103.247 1147.37 Z" fill="#000000" fill-rule="evenodd" fill-opacity="1" /><path clip-path="url(#clip020)" d="M 0 0 M130.26 1151.07 Q126.649 1151.07 124.82 1154.64 Q123.015 1158.18 123.015 1165.31 Q123.015 1172.42 124.82 1175.98 Q126.649 1179.52 130.26 1179.52 Q133.895 1179.52 135.7 1175.98 Q137.529 1172.42 137.529 1165.31 Q137.529 1158.18 135.7 1154.64 Q133.895 1151.07 130.26 1151.07 M130.26 1147.37 Q136.07 1147.37 139.126 1151.98 Q142.205 1156.56 142.205 1165.31 Q142.205 1174.04 139.126 1178.64 Q136.07 1183.23 130.26 1183.23 Q124.45 1183.23 121.371 1178.64 Q118.316 1174.04 118.316 1165.31 Q118.316 1156.56 121.371 1151.98 Q124.45 1147.37 130.26 1147.37 Z" fill="#000000" fill-rule="evenodd" fill-opacity="1" /><path clip-path="url(#clip020)" d="M 0 0 M78.5939 869.469 L66.7884 887.918 L78.5939 887.918 L78.5939 869.469 M77.367 865.395 L83.2466 865.395 L83.2466 887.918 L88.1772 887.918 L88.1772 891.807 L83.2466 891.807 L83.2466 899.955 L78.5939 899.955 L78.5939 891.807 L62.9921 891.807 L62.9921 887.293 L77.367 865.395 Z" fill="#000000" fill-rule="evenodd" fill-opacity="1" /><path clip-path="url(#clip020)" d="M 0 0 M103.247 868.473 Q99.6354 868.473 97.8068 872.038 Q96.0012 875.58 96.0012 882.709 Q96.0012 889.816 97.8068 893.381 Q99.6354 896.922 103.247 896.922 Q106.881 896.922 108.686 893.381 Q110.515 889.816 110.515 882.709 Q110.515 875.58 108.686 872.038 Q106.881 868.473 103.247 868.473 M103.247 864.77 Q109.057 864.77 112.112 869.376 Q115.191 873.96 115.191 882.709 Q115.191 891.436 112.112 896.043 Q109.057 900.626 103.247 900.626 Q97.4364 900.626 94.3577 896.043 Q91.3022 891.436 91.3022 882.709 Q91.3022 873.96 94.3577 869.376 Q97.4364 864.77 103.247 864.77 Z" fill="#000000" fill-rule="evenodd" fill-opacity="1" /><path clip-path="url(#clip020)" d="M 0 0 M130.26 868.473 Q126.649 868.473 124.82 872.038 Q123.015 875.58 123.015 882.709 Q123.015 889.816 124.82 893.381 Q126.649 896.922 130.26 896.922 Q133.895 896.922 135.7 893.381 Q137.529 889.816 137.529 882.709 Q137.529 875.58 135.7 872.038 Q133.895 868.473 130.26 868.473 M130.26 864.77 Q136.07 864.77 139.126 869.376 Q142.205 873.96 142.205 882.709 Q142.205 891.436 139.126 896.043 Q136.07 900.626 130.26 900.626 Q124.45 900.626 121.371 896.043 Q118.316 891.436 118.316 882.709 Q118.316 873.96 121.371 869.376 Q124.45 864.77 130.26 864.77 Z" fill="#000000" fill-rule="evenodd" fill-opacity="1" /><path clip-path="url(#clip020)" d="M 0 0 M76.6495 598.212 Q73.5013 598.212 71.6495 600.365 Q69.8208 602.518 69.8208 606.268 Q69.8208 609.995 71.6495 612.17 Q73.5013 614.323 76.6495 614.323 Q79.7976 614.323 81.6263 612.17 Q83.4781 609.995 83.4781 606.268 Q83.4781 602.518 81.6263 600.365 Q79.7976 598.212 76.6495 598.212 M85.9318 583.559 L85.9318 587.819 Q84.1726 586.985 82.367 586.546 Q80.5846 586.106 78.8254 586.106 Q74.1958 586.106 71.7421 589.231 Q69.3115 592.356 68.9643 598.675 Q70.33 596.661 72.3902 595.596 Q74.4504 594.509 76.9272 594.509 Q82.1355 594.509 85.1448 597.68 Q88.1772 600.828 88.1772 606.268 Q88.1772 611.592 85.029 614.809 Q81.8809 618.027 76.6495 618.027 Q70.6541 618.027 67.4828 613.444 Q64.3116 608.837 64.3116 600.11 Q64.3116 591.916 68.2004 587.055 Q72.0893 582.171 78.6402 582.171 Q80.3994 582.171 82.1818 582.518 Q83.9874 582.865 85.9318 583.559 Z" fill="#000000" fill-rule="evenodd" fill-opacity="1" /><path clip-path="url(#clip020)" d="M 0 0 M103.247 585.874 Q99.6354 585.874 97.8068 589.439 Q96.0012 592.981 96.0012 600.11 Q96.0012 607.217 97.8068 610.782 Q99.6354 614.323 103.247 614.323 Q106.881 614.323 108.686 610.782 Q110.515 607.217 110.515 600.11 Q110.515 592.981 108.686 589.439 Q106.881 585.874 103.247 585.874 M103.247 582.171 Q109.057 582.171 112.112 586.777 Q115.191 591.36 115.191 600.11 Q115.191 608.837 112.112 613.444 Q109.057 618.027 103.247 618.027 Q97.4364 618.027 94.3577 613.444 Q91.3022 608.837 91.3022 600.11 Q91.3022 591.36 94.3577 586.777 Q97.4364 582.171 103.247 582.171 Z" fill="#000000" fill-rule="evenodd" fill-opacity="1" /><path clip-path="url(#clip020)" d="M 0 0 M130.26 585.874 Q126.649 585.874 124.82 589.439 Q123.015 592.981 123.015 600.11 Q123.015 607.217 124.82 610.782 Q126.649 614.323 130.26 614.323 Q133.895 614.323 135.7 610.782 Q137.529 607.217 137.529 600.11 Q137.529 592.981 135.7 589.439 Q133.895 585.874 130.26 585.874 M130.26 582.171 Q136.07 582.171 139.126 586.777 Q142.205 591.36 142.205 600.11 Q142.205 608.837 139.126 613.444 Q136.07 618.027 130.26 618.027 Q124.45 618.027 121.371 613.444 Q118.316 608.837 118.316 600.11 Q118.316 591.36 121.371 586.777 Q124.45 582.171 130.26 582.171 Z" fill="#000000" fill-rule="evenodd" fill-opacity="1" /><path clip-path="url(#clip020)" d="M 0 0 M76.3254 318.345 Q72.9921 318.345 71.0708 320.127 Q69.1726 321.909 69.1726 325.034 Q69.1726 328.159 71.0708 329.942 Q72.9921 331.724 76.3254 331.724 Q79.6587 331.724 81.58 329.942 Q83.5013 328.136 83.5013 325.034 Q83.5013 321.909 81.58 320.127 Q79.6819 318.345 76.3254 318.345 M71.6495 316.354 Q68.6402 315.613 66.9504 313.553 Q65.2838 311.493 65.2838 308.53 Q65.2838 304.386 68.2236 301.979 Q71.1865 299.571 76.3254 299.571 Q81.4874 299.571 84.4272 301.979 Q87.367 304.386 87.367 308.53 Q87.367 311.493 85.6772 313.553 Q84.0105 315.613 81.0244 316.354 Q84.404 317.141 86.279 319.432 Q88.1772 321.724 88.1772 325.034 Q88.1772 330.057 85.0985 332.743 Q82.0429 335.428 76.3254 335.428 Q70.6078 335.428 67.5291 332.743 Q64.4736 330.057 64.4736 325.034 Q64.4736 321.724 66.3717 319.432 Q68.2699 317.141 71.6495 316.354 M69.9365 308.97 Q69.9365 311.655 71.6032 313.159 Q73.293 314.664 76.3254 314.664 Q79.3346 314.664 81.0244 313.159 Q82.7374 311.655 82.7374 308.97 Q82.7374 306.284 81.0244 304.78 Q79.3346 303.275 76.3254 303.275 Q73.293 303.275 71.6032 304.78 Q69.9365 306.284 69.9365 308.97 Z" fill="#000000" fill-rule="evenodd" fill-opacity="1" /><path clip-path="url(#clip020)" d="M 0 0 M103.247 303.275 Q99.6354 303.275 97.8068 306.84 Q96.0012 310.382 96.0012 317.511 Q96.0012 324.618 97.8068 328.182 Q99.6354 331.724 103.247 331.724 Q106.881 331.724 108.686 328.182 Q110.515 324.618 110.515 317.511 Q110.515 310.382 108.686 306.84 Q106.881 303.275 103.247 303.275 M103.247 299.571 Q109.057 299.571 112.112 304.178 Q115.191 308.761 115.191 317.511 Q115.191 326.238 112.112 330.844 Q109.057 335.428 103.247 335.428 Q97.4364 335.428 94.3577 330.844 Q91.3022 326.238 91.3022 317.511 Q91.3022 308.761 94.3577 304.178 Q97.4364 299.571 103.247 299.571 Z" fill="#000000" fill-rule="evenodd" fill-opacity="1" /><path clip-path="url(#clip020)" d="M 0 0 M130.26 303.275 Q126.649 303.275 124.82 306.84 Q123.015 310.382 123.015 317.511 Q123.015 324.618 124.82 328.182 Q126.649 331.724 130.26 331.724 Q133.895 331.724 135.7 328.182 Q137.529 324.618 137.529 317.511 Q137.529 310.382 135.7 306.84 Q133.895 303.275 130.26 303.275 M130.26 299.571 Q136.07 299.571 139.126 304.178 Q142.205 308.761 142.205 317.511 Q142.205 326.238 139.126 330.844 Q136.07 335.428 130.26 335.428 Q124.45 335.428 121.371 330.844 Q118.316 326.238 118.316 317.511 Q118.316 308.761 121.371 304.178 Q124.45 299.571 130.26 299.571 Z" fill="#000000" fill-rule="evenodd" fill-opacity="1" /><path clip-path="url(#clip020)" d="M 0 0 M697.458 18.8205 L697.458 65.8515 L707.342 65.8515 Q719.859 65.8515 725.652 60.1802 Q731.485 54.509 731.485 42.2752 Q731.485 30.1225 725.652 24.4918 Q719.859 18.8205 707.342 18.8205 L697.458 18.8205 M689.275 12.096 L706.086 12.096 Q723.667 12.096 731.891 19.4281 Q740.114 26.7198 740.114 42.2752 Q740.114 57.9117 731.85 65.2439 Q723.586 72.576 706.086 72.576 L689.275 72.576 L689.275 12.096 Z" fill="#000000" fill-rule="evenodd" fill-opacity="1" /><path clip-path="url(#clip020)" d="M 0 0 M768.551 49.7694 Q759.518 49.7694 756.034 51.8354 Q752.55 53.9013 752.55 58.8839 Q752.55 62.8538 755.143 65.2034 Q757.776 67.5124 762.272 67.5124 Q768.47 67.5124 772.197 63.1374 Q775.964 58.7219 775.964 51.4303 L775.964 49.7694 L768.551 49.7694 M783.418 46.6907 L783.418 72.576 L775.964 72.576 L775.964 65.6895 Q773.412 69.8214 769.604 71.8063 Q765.797 73.7508 760.287 73.7508 Q753.32 73.7508 749.188 69.8619 Q745.096 65.9325 745.096 59.3701 Q745.096 51.7138 750.201 47.825 Q755.345 43.9361 765.513 43.9361 L775.964 43.9361 L775.964 43.2069 Q775.964 38.0623 772.562 35.2672 Q769.199 32.4315 763.082 32.4315 Q759.194 32.4315 755.507 33.3632 Q751.821 34.295 748.418 36.1584 L748.418 29.2718 Q752.51 27.692 756.358 26.9223 Q760.206 26.1121 763.852 26.1121 Q773.696 26.1121 778.557 31.2163 Q783.418 36.3204 783.418 46.6907 Z" fill="#000000" fill-rule="evenodd" fill-opacity="1" /><path clip-path="url(#clip020)" d="M 0 0 M798.609 14.324 L798.609 27.2059 L813.962 27.2059 L813.962 32.9987 L798.609 32.9987 L798.609 57.6282 Q798.609 63.1779 800.108 64.7578 Q801.647 66.3376 806.306 66.3376 L813.962 66.3376 L813.962 72.576 L806.306 72.576 Q797.677 72.576 794.396 69.3758 Q791.115 66.1351 791.115 57.6282 L791.115 32.9987 L785.646 32.9987 L785.646 27.2059 L791.115 27.2059 L791.115 14.324 L798.609 14.324 Z" fill="#000000" fill-rule="evenodd" fill-opacity="1" /><path clip-path="url(#clip020)" d="M 0 0 M842.399 49.7694 Q833.366 49.7694 829.882 51.8354 Q826.398 53.9013 826.398 58.8839 Q826.398 62.8538 828.991 65.2034 Q831.624 67.5124 836.12 67.5124 Q842.318 67.5124 846.045 63.1374 Q849.812 58.7219 849.812 51.4303 L849.812 49.7694 L842.399 49.7694 M857.266 46.6907 L857.266 72.576 L849.812 72.576 L849.812 65.6895 Q847.26 69.8214 843.452 71.8063 Q839.645 73.7508 834.135 73.7508 Q827.168 73.7508 823.036 69.8619 Q818.944 65.9325 818.944 59.3701 Q818.944 51.7138 824.049 47.825 Q829.193 43.9361 839.361 43.9361 L849.812 43.9361 L849.812 43.2069 Q849.812 38.0623 846.41 35.2672 Q843.047 32.4315 836.93 32.4315 Q833.042 32.4315 829.355 33.3632 Q825.669 34.295 822.266 36.1584 L822.266 29.2718 Q826.358 27.692 830.206 26.9223 Q834.054 26.1121 837.7 26.1121 Q847.544 26.1121 852.405 31.2163 Q857.266 36.3204 857.266 46.6907 Z" fill="#000000" fill-rule="evenodd" fill-opacity="1" /><path clip-path="url(#clip020)" d="M 0 0 M912.075 49.7694 Q903.041 49.7694 899.557 51.8354 Q896.074 53.9013 896.074 58.8839 Q896.074 62.8538 898.666 65.2034 Q901.299 67.5124 905.796 67.5124 Q911.994 67.5124 915.721 63.1374 Q919.488 58.7219 919.488 51.4303 L919.488 49.7694 L912.075 49.7694 M926.942 46.6907 L926.942 72.576 L919.488 72.576 L919.488 65.6895 Q916.936 69.8214 913.128 71.8063 Q909.32 73.7508 903.811 73.7508 Q896.843 73.7508 892.711 69.8619 Q888.62 65.9325 888.62 59.3701 Q888.62 51.7138 893.724 47.825 Q898.869 43.9361 909.037 43.9361 L919.488 43.9361 L919.488 43.2069 Q919.488 38.0623 916.085 35.2672 Q912.723 32.4315 906.606 32.4315 Q902.717 32.4315 899.031 33.3632 Q895.345 34.295 891.942 36.1584 L891.942 29.2718 Q896.033 27.692 899.882 26.9223 Q903.73 26.1121 907.376 26.1121 Q917.219 26.1121 922.08 31.2163 Q926.942 36.3204 926.942 46.6907 Z" fill="#000000" fill-rule="evenodd" fill-opacity="1" /><path clip-path="url(#clip020)" d="M 0 0 M972.474 45.1919 L972.474 72.576 L965.02 72.576 L965.02 45.4349 Q965.02 38.994 962.508 35.7938 Q959.997 32.5936 954.974 32.5936 Q948.938 32.5936 945.454 36.4419 Q941.97 40.2903 941.97 46.9338 L941.97 72.576 L934.476 72.576 L934.476 27.2059 L941.97 27.2059 L941.97 34.2544 Q944.644 30.163 948.249 28.1376 Q951.895 26.1121 956.635 26.1121 Q964.453 26.1121 968.463 30.9732 Q972.474 35.7938 972.474 45.1919 Z" fill="#000000" fill-rule="evenodd" fill-opacity="1" /><path clip-path="url(#clip020)" d="M 0 0 M1010.15 34.0924 L1010.15 9.54393 L1017.6 9.54393 L1017.6 72.576 L1010.15 72.576 L1010.15 65.7705 Q1007.8 69.8214 1004.19 71.8063 Q1000.63 73.7508 995.604 73.7508 Q987.381 73.7508 982.196 67.1883 Q977.051 60.6258 977.051 49.9314 Q977.051 39.2371 982.196 32.6746 Q987.381 26.1121 995.604 26.1121 Q1000.63 26.1121 1004.19 28.0971 Q1007.8 30.0415 1010.15 34.0924 M984.748 49.9314 Q984.748 58.1548 988.11 62.8538 Q991.513 67.5124 997.427 67.5124 Q1003.34 67.5124 1006.74 62.8538 Q1010.15 58.1548 1010.15 49.9314 Q1010.15 41.7081 1006.74 37.0496 Q1003.34 32.3505 997.427 32.3505 Q991.513 32.3505 988.11 37.0496 Q984.748 41.7081 984.748 49.9314 Z" fill="#000000" fill-rule="evenodd" fill-opacity="1" /><path clip-path="url(#clip020)" d="M 0 0 M1043.73 12.096 L1094.89 12.096 L1094.89 18.9825 L1073.42 18.9825 L1073.42 72.576 L1065.2 72.576 L1065.2 18.9825 L1043.73 18.9825 L1043.73 12.096 Z" fill="#000000" fill-rule="evenodd" fill-opacity="1" /><path clip-path="url(#clip020)" d="M 0 0 M1116.81 34.1734 Q1115.55 33.4443 1114.05 33.1202 Q1112.59 32.7556 1110.81 32.7556 Q1104.49 32.7556 1101.09 36.8875 Q1097.73 40.9789 1097.73 48.6757 L1097.73 72.576 L1090.23 72.576 L1090.23 27.2059 L1097.73 27.2059 L1097.73 34.2544 Q1100.08 30.1225 1103.84 28.1376 Q1107.61 26.1121 1113 26.1121 Q1113.77 26.1121 1114.7 26.2337 Q1115.63 26.3147 1116.77 26.5172 L1116.81 34.1734 Z" fill="#000000" fill-rule="evenodd" fill-opacity="1" /><path clip-path="url(#clip020)" d="M 0 0 M1123.86 54.671 L1123.86 27.2059 L1131.31 27.2059 L1131.31 54.3874 Q1131.31 60.8284 1133.82 64.0691 Q1136.33 67.2693 1141.36 67.2693 Q1147.39 67.2693 1150.88 63.421 Q1154.4 59.5726 1154.4 52.9291 L1154.4 27.2059 L1161.85 27.2059 L1161.85 72.576 L1154.4 72.576 L1154.4 65.6084 Q1151.69 69.7404 1148.08 71.7658 Q1144.52 73.7508 1139.78 73.7508 Q1131.96 73.7508 1127.91 68.8897 Q1123.86 64.0286 1123.86 54.671 M1142.61 26.1121 L1142.61 26.1121 Z" fill="#000000" fill-rule="evenodd" fill-opacity="1" /><path clip-path="url(#clip020)" d="M 0 0 M1208.48 48.0275 L1208.48 51.6733 L1174.21 51.6733 Q1174.69 59.3701 1178.83 63.421 Q1183 67.4314 1190.41 67.4314 Q1194.71 67.4314 1198.72 66.3781 Q1202.77 65.3249 1206.74 63.2184 L1206.74 70.267 Q1202.73 71.9684 1198.51 72.8596 Q1194.3 73.7508 1189.97 73.7508 Q1179.11 73.7508 1172.75 67.4314 Q1166.43 61.1119 1166.43 50.3365 Q1166.43 39.1965 1172.43 32.6746 Q1178.46 26.1121 1188.67 26.1121 Q1197.83 26.1121 1203.13 32.0264 Q1208.48 37.9003 1208.48 48.0275 M1201.03 45.84 Q1200.94 39.7232 1197.58 36.0774 Q1194.26 32.4315 1188.75 32.4315 Q1182.51 32.4315 1178.75 35.9558 Q1175.02 39.4801 1174.45 45.8805 L1201.03 45.84 Z" fill="#000000" fill-rule="evenodd" fill-opacity="1" /><path clip-path="url(#clip020)" d="M 0 0 M1279.25 14.0809 L1279.25 22.0612 Q1274.59 19.8332 1270.46 18.7395 Q1266.33 17.6457 1262.48 17.6457 Q1255.79 17.6457 1252.15 20.2383 Q1248.54 22.8309 1248.54 27.611 Q1248.54 31.6214 1250.93 33.6873 Q1253.36 35.7128 1260.09 36.9686 L1265.03 37.9813 Q1274.19 39.7232 1278.52 44.1387 Q1282.89 48.5136 1282.89 55.8863 Q1282.89 64.6767 1276.98 69.2137 Q1271.11 73.7508 1259.72 73.7508 Q1255.43 73.7508 1250.57 72.7785 Q1245.75 71.8063 1240.56 69.9024 L1240.56 61.4765 Q1245.55 64.2716 1250.33 65.6895 Q1255.11 67.1073 1259.72 67.1073 Q1266.73 67.1073 1270.54 64.3527 Q1274.35 61.598 1274.35 56.4939 Q1274.35 52.0379 1271.59 49.5264 Q1268.88 47.0148 1262.64 45.759 L1257.66 44.7868 Q1248.5 42.9639 1244.41 39.075 Q1240.32 35.1862 1240.32 28.2591 Q1240.32 20.2383 1245.95 15.6203 Q1251.62 11.0023 1261.55 11.0023 Q1265.8 11.0023 1270.22 11.7719 Q1274.63 12.5416 1279.25 14.0809 Z" fill="#000000" fill-rule="evenodd" fill-opacity="1" /><path clip-path="url(#clip020)" d="M 0 0 M1298.09 14.324 L1298.09 27.2059 L1313.44 27.2059 L1313.44 32.9987 L1298.09 32.9987 L1298.09 57.6282 Q1298.09 63.1779 1299.58 64.7578 Q1301.12 66.3376 1305.78 66.3376 L1313.44 66.3376 L1313.44 72.576 L1305.78 72.576 Q1297.15 72.576 1293.87 69.3758 Q1290.59 66.1351 1290.59 57.6282 L1290.59 32.9987 L1285.12 32.9987 L1285.12 27.2059 L1290.59 27.2059 L1290.59 14.324 L1298.09 14.324 Z" fill="#000000" fill-rule="evenodd" fill-opacity="1" /><path clip-path="url(#clip020)" d="M 0 0 M1341.88 49.7694 Q1332.84 49.7694 1329.36 51.8354 Q1325.87 53.9013 1325.87 58.8839 Q1325.87 62.8538 1328.47 65.2034 Q1331.1 67.5124 1335.6 67.5124 Q1341.79 67.5124 1345.52 63.1374 Q1349.29 58.7219 1349.29 51.4303 L1349.29 49.7694 L1341.88 49.7694 M1356.74 46.6907 L1356.74 72.576 L1349.29 72.576 L1349.29 65.6895 Q1346.74 69.8214 1342.93 71.8063 Q1339.12 73.7508 1333.61 73.7508 Q1326.64 73.7508 1322.51 69.8619 Q1318.42 65.9325 1318.42 59.3701 Q1318.42 51.7138 1323.53 47.825 Q1328.67 43.9361 1338.84 43.9361 L1349.29 43.9361 L1349.29 43.2069 Q1349.29 38.0623 1345.89 35.2672 Q1342.52 32.4315 1336.41 32.4315 Q1332.52 32.4315 1328.83 33.3632 Q1325.15 34.295 1321.74 36.1584 L1321.74 29.2718 Q1325.83 27.692 1329.68 26.9223 Q1333.53 26.1121 1337.18 26.1121 Q1347.02 26.1121 1351.88 31.2163 Q1356.74 36.3204 1356.74 46.6907 Z" fill="#000000" fill-rule="evenodd" fill-opacity="1" /><path clip-path="url(#clip020)" d="M 0 0 M1371.93 14.324 L1371.93 27.2059 L1387.29 27.2059 L1387.29 32.9987 L1371.93 32.9987 L1371.93 57.6282 Q1371.93 63.1779 1373.43 64.7578 Q1374.97 66.3376 1379.63 66.3376 L1387.29 66.3376 L1387.29 72.576 L1379.63 72.576 Q1371 72.576 1367.72 69.3758 Q1364.44 66.1351 1364.44 57.6282 L1364.44 32.9987 L1358.97 32.9987 L1358.97 27.2059 L1364.44 27.2059 L1364.44 14.324 L1371.93 14.324 Z" fill="#000000" fill-rule="evenodd" fill-opacity="1" /><path clip-path="url(#clip020)" d="M 0 0 M1395.1 27.2059 L1402.56 27.2059 L1402.56 72.576 L1395.1 72.576 L1395.1 27.2059 M1395.1 9.54393 L1402.56 9.54393 L1402.56 18.9825 L1395.1 18.9825 L1395.1 9.54393 Z" fill="#000000" fill-rule="evenodd" fill-opacity="1" /><path clip-path="url(#clip020)" d="M 0 0 M1439.3 28.5427 L1439.3 35.5912 Q1436.14 33.9709 1432.74 33.1607 Q1429.33 32.3505 1425.69 32.3505 Q1420.14 32.3505 1417.34 34.0519 Q1414.59 35.7533 1414.59 39.156 Q1414.59 41.7486 1416.57 43.2475 Q1418.56 44.7058 1424.55 46.0426 L1427.11 46.6097 Q1435.05 48.3111 1438.37 51.4303 Q1441.73 54.509 1441.73 60.0587 Q1441.73 66.3781 1436.71 70.0644 Q1431.72 73.7508 1422.97 73.7508 Q1419.33 73.7508 1415.36 73.0216 Q1411.43 72.3329 1407.05 70.9151 L1407.05 63.2184 Q1411.19 65.3654 1415.2 66.4591 Q1419.21 67.5124 1423.14 67.5124 Q1428.4 67.5124 1431.24 65.73 Q1434.07 63.9071 1434.07 60.6258 Q1434.07 57.5877 1432.01 55.9673 Q1429.98 54.3469 1423.06 52.8481 L1420.46 52.2405 Q1413.54 50.7821 1410.46 47.7845 Q1407.38 44.7463 1407.38 39.4801 Q1407.38 33.0797 1411.92 29.5959 Q1416.45 26.1121 1424.8 26.1121 Q1428.93 26.1121 1432.58 26.7198 Q1436.22 27.3274 1439.3 28.5427 Z" fill="#000000" fill-rule="evenodd" fill-opacity="1" /><path clip-path="url(#clip020)" d="M 0 0 M1456.92 14.324 L1456.92 27.2059 L1472.27 27.2059 L1472.27 32.9987 L1456.92 32.9987 L1456.92 57.6282 Q1456.92 63.1779 1458.42 64.7578 Q1459.96 66.3376 1464.62 66.3376 L1472.27 66.3376 L1472.27 72.576 L1464.62 72.576 Q1455.99 72.576 1452.71 69.3758 Q1449.43 66.1351 1449.43 57.6282 L1449.43 32.9987 L1443.96 32.9987 L1443.96 27.2059 L1449.43 27.2059 L1449.43 14.324 L1456.92 14.324 Z" fill="#000000" fill-rule="evenodd" fill-opacity="1" /><path clip-path="url(#clip020)" d="M 0 0 M1480.09 27.2059 L1487.55 27.2059 L1487.55 72.576 L1480.09 72.576 L1480.09 27.2059 M1480.09 9.54393 L1487.55 9.54393 L1487.55 18.9825 L1480.09 18.9825 L1480.09 9.54393 Z" fill="#000000" fill-rule="evenodd" fill-opacity="1" /><path clip-path="url(#clip020)" d="M 0 0 M1528.01 28.9478 L1528.01 35.9153 Q1524.86 34.1734 1521.65 33.3227 Q1518.5 32.4315 1515.25 32.4315 Q1508 32.4315 1503.99 37.0496 Q1499.98 41.6271 1499.98 49.9314 Q1499.98 58.2358 1503.99 62.8538 Q1508 67.4314 1515.25 67.4314 Q1518.5 67.4314 1521.65 66.5807 Q1524.86 65.6895 1528.01 63.9476 L1528.01 70.8341 Q1524.9 72.2924 1521.53 73.0216 Q1518.21 73.7508 1514.44 73.7508 Q1504.2 73.7508 1498.16 67.3098 Q1492.12 60.8689 1492.12 49.9314 Q1492.12 38.832 1498.2 32.472 Q1504.32 26.1121 1514.93 26.1121 Q1518.37 26.1121 1521.65 26.8413 Q1524.94 27.5299 1528.01 28.9478 Z" fill="#000000" fill-rule="evenodd" fill-opacity="1" /><path clip-path="url(#clip020)" d="M 0 0 M1556.45 49.7694 Q1547.42 49.7694 1543.93 51.8354 Q1540.45 53.9013 1540.45 58.8839 Q1540.45 62.8538 1543.04 65.2034 Q1545.68 67.5124 1550.17 67.5124 Q1556.37 67.5124 1560.1 63.1374 Q1563.87 58.7219 1563.87 51.4303 L1563.87 49.7694 L1556.45 49.7694 M1571.32 46.6907 L1571.32 72.576 L1563.87 72.576 L1563.87 65.6895 Q1561.31 69.8214 1557.51 71.8063 Q1553.7 73.7508 1548.19 73.7508 Q1541.22 73.7508 1537.09 69.8619 Q1533 65.9325 1533 59.3701 Q1533 51.7138 1538.1 47.825 Q1543.25 43.9361 1553.41 43.9361 L1563.87 43.9361 L1563.87 43.2069 Q1563.87 38.0623 1560.46 35.2672 Q1557.1 32.4315 1550.98 32.4315 Q1547.09 32.4315 1543.41 33.3632 Q1539.72 34.295 1536.32 36.1584 L1536.32 29.2718 Q1540.41 27.692 1544.26 26.9223 Q1548.11 26.1121 1551.75 26.1121 Q1561.6 26.1121 1566.46 31.2163 Q1571.32 36.3204 1571.32 46.6907 Z" fill="#000000" fill-rule="evenodd" fill-opacity="1" /><path clip-path="url(#clip020)" d="M 0 0 M1579.14 9.54393 L1586.59 9.54393 L1586.59 72.576 L1579.14 72.576 L1579.14 9.54393 Z" fill="#000000" fill-rule="evenodd" fill-opacity="1" /><path clip-path="url(#clip020)" d="M 0 0 M1621.1 12.096 L1633.3 12.096 L1648.73 53.2532 L1664.25 12.096 L1676.44 12.096 L1676.44 72.576 L1668.46 72.576 L1668.46 19.4686 L1652.86 60.9499 L1644.64 60.9499 L1629.04 19.4686 L1629.04 72.576 L1621.1 72.576 L1621.1 12.096 Z" fill="#000000" fill-rule="evenodd" fill-opacity="1" /><path clip-path="url(#clip020)" d="M 0 0 M1701.84 32.4315 Q1695.84 32.4315 1692.36 37.1306 Q1688.88 41.7891 1688.88 49.9314 Q1688.88 58.0738 1692.32 62.7728 Q1695.8 67.4314 1701.84 67.4314 Q1707.79 67.4314 1711.28 62.7323 Q1714.76 58.0333 1714.76 49.9314 Q1714.76 41.8701 1711.28 37.1711 Q1707.79 32.4315 1701.84 32.4315 M1701.84 26.1121 Q1711.56 26.1121 1717.11 32.4315 Q1722.66 38.7509 1722.66 49.9314 Q1722.66 61.0714 1717.11 67.4314 Q1711.56 73.7508 1701.84 73.7508 Q1692.08 73.7508 1686.53 67.4314 Q1681.02 61.0714 1681.02 49.9314 Q1681.02 38.7509 1686.53 32.4315 Q1692.08 26.1121 1701.84 26.1121 Z" fill="#000000" fill-rule="evenodd" fill-opacity="1" /><path clip-path="url(#clip020)" d="M 0 0 M1760.33 34.0924 L1760.33 9.54393 L1767.79 9.54393 L1767.79 72.576 L1760.33 72.576 L1760.33 65.7705 Q1757.98 69.8214 1754.38 71.8063 Q1750.81 73.7508 1745.79 73.7508 Q1737.57 73.7508 1732.38 67.1883 Q1727.24 60.6258 1727.24 49.9314 Q1727.24 39.2371 1732.38 32.6746 Q1737.57 26.1121 1745.79 26.1121 Q1750.81 26.1121 1754.38 28.0971 Q1757.98 30.0415 1760.33 34.0924 M1734.93 49.9314 Q1734.93 58.1548 1738.3 62.8538 Q1741.7 67.5124 1747.61 67.5124 Q1753.53 67.5124 1756.93 62.8538 Q1760.33 58.1548 1760.33 49.9314 Q1760.33 41.7081 1756.93 37.0496 Q1753.53 32.3505 1747.61 32.3505 Q1741.7 32.3505 1738.3 37.0496 Q1734.93 41.7081 1734.93 49.9314 Z" fill="#000000" fill-rule="evenodd" fill-opacity="1" /><path clip-path="url(#clip020)" d="M 0 0 M1814.41 48.0275 L1814.41 51.6733 L1780.14 51.6733 Q1780.63 59.3701 1784.76 63.421 Q1788.93 67.4314 1796.35 67.4314 Q1800.64 67.4314 1804.65 66.3781 Q1808.7 65.3249 1812.67 63.2184 L1812.67 70.267 Q1808.66 71.9684 1804.45 72.8596 Q1800.24 73.7508 1795.9 73.7508 Q1785.04 73.7508 1778.68 67.4314 Q1772.37 61.1119 1772.37 50.3365 Q1772.37 39.1965 1778.36 32.6746 Q1784.4 26.1121 1794.6 26.1121 Q1803.76 26.1121 1809.07 32.0264 Q1814.41 37.9003 1814.41 48.0275 M1806.96 45.84 Q1806.88 39.7232 1803.52 36.0774 Q1800.19 32.4315 1794.69 32.4315 Q1788.45 32.4315 1784.68 35.9558 Q1780.95 39.4801 1780.39 45.8805 L1806.96 45.84 Z" fill="#000000" fill-rule="evenodd" fill-opacity="1" /><path clip-path="url(#clip020)" d="M 0 0 M1822.23 9.54393 L1829.69 9.54393 L1829.69 72.576 L1822.23 72.576 L1822.23 9.54393 Z" fill="#000000" fill-rule="evenodd" fill-opacity="1" /><polyline clip-path="url(#clip022)" style="stroke:#009af9; stroke-width:4; stroke-opacity:1; fill:none" points="
  743.784,1447.87 743.784,1363.09 769.569,1363.09 769.569,1306.57 795.354,1306.57 795.354,1278.31 821.139,1278.31 821.139,1179.4 846.923,1179.4 846.923,1221.79 
  872.708,1221.79 872.708,1151.14 898.493,1151.14 898.493,939.195 924.278,939.195 924.278,840.285 950.063,840.285 950.063,1023.97 975.847,1023.97 975.847,713.115 
  1001.63,713.115 1001.63,981.584 1027.42,981.584 1027.42,812.025 1053.2,812.025 1053.2,1023.97 1078.99,1023.97 1078.99,1038.1 1104.77,1038.1 1104.77,1023.97 
  1130.56,1023.97 1130.56,1108.75 1156.34,1108.75 1156.34,1278.31 1182.13,1278.31 1182.13,1306.57 1207.91,1306.57 1207.91,1264.18 1233.7,1264.18 1233.7,1363.09 
  1259.48,1363.09 1285.27,1363.09 1285.27,1405.48 1311.05,1405.48 1311.05,1447.87 1336.83,1447.87 1336.83,1419.61 1362.62,1419.61 
  1388.4,1419.61 1388.4,1447.87 1414.19,1447.87 1414.19,1405.48 1439.97,1405.48 1465.76,1405.48 1465.76,1419.61 1491.54,1419.61 1491.54,1250.05 
  1517.33,1250.05 1517.33,1221.79 1543.11,1221.79 1568.9,1221.79 1568.9,1094.62 1594.68,1094.62 1594.68,967.455 1620.47,967.455 1620.47,783.765 
  1646.25,783.765 1646.25,755.505 1672.04,755.505 1672.04,600.076 1697.82,600.076 1697.82,472.906 1723.61,472.906 1723.61,303.346 1749.39,303.346 1749.39,388.126 
  1775.18,388.126 1775.18,162.047 1800.96,162.047 1800.96,501.166 1826.75,501.166 1826.75,458.776 1852.53,458.776 1852.53,698.985 1878.32,698.985 1878.32,557.686 
  1904.1,557.686 1904.1,769.635 1929.89,769.635 1929.89,896.805 1955.67,896.805 1955.67,1122.88 1981.45,1122.88 1981.45,1264.18 2007.24,1264.18 2007.24,1250.05 
  2033.02,1250.05 2033.02,1278.31 2058.81,1278.31 2058.81,1363.09 2084.59,1363.09 2084.59,1405.48 2110.38,1405.48 2110.38,1433.74 2136.16,1433.74 
  2161.95,1433.74 2161.95,1447.87 2187.73,1447.87 2213.52,1447.87 2239.3,1447.87 2265.09,1447.87 
  2290.87,1447.87 
  "/>
<polyline clip-path="url(#clip022)" style="stroke:#e26f46; stroke-width:4; stroke-opacity:1; fill:none" points="
  228.088,1447.87 230.667,1447.87 233.245,1447.87 235.824,1447.87 238.402,1447.87 240.981,1447.87 243.559,1447.87 246.138,1447.87 248.716,1447.87 251.295,1447.87 
  253.873,1447.87 256.451,1447.87 259.03,1447.87 261.608,1447.87 264.187,1447.87 266.765,1447.87 269.344,1447.87 271.922,1447.87 274.501,1447.87 277.079,1447.87 
  279.658,1447.87 282.236,1447.87 284.815,1447.87 287.393,1447.87 289.972,1447.87 292.55,1447.87 295.129,1447.87 297.707,1447.87 300.286,1447.87 302.864,1447.87 
  305.443,1447.87 308.021,1447.87 310.6,1447.87 313.178,1447.87 315.757,1447.87 318.335,1447.87 320.913,1447.87 323.492,1447.87 326.07,1447.87 328.649,1447.87 
  331.227,1447.87 333.806,1447.87 336.384,1447.87 338.963,1447.87 341.541,1447.87 344.12,1447.87 346.698,1447.87 349.277,1447.87 351.855,1447.87 354.434,1447.87 
  357.012,1447.87 359.591,1447.87 362.169,1447.87 364.748,1447.87 367.326,1447.87 369.905,1447.87 372.483,1447.87 375.062,1447.87 377.64,1447.87 380.219,1447.87 
  382.797,1447.87 385.375,1447.87 387.954,1447.87 390.532,1447.87 393.111,1447.86 395.689,1447.86 398.268,1447.86 400.846,1447.86 403.425,1447.86 406.003,1447.86 
  408.582,1447.86 411.16,1447.86 413.739,1447.86 416.317,1447.85 418.896,1447.85 421.474,1447.85 424.053,1447.85 426.631,1447.85 429.21,1447.84 431.788,1447.84 
  434.367,1447.84 436.945,1447.83 439.524,1447.83 442.102,1447.83 444.681,1447.82 447.259,1447.82 449.837,1447.81 452.416,1447.81 454.994,1447.8 457.573,1447.8 
  460.151,1447.79 462.73,1447.78 465.308,1447.77 467.887,1447.77 470.465,1447.76 473.044,1447.75 475.622,1447.74 478.201,1447.72 480.779,1447.71 483.358,1447.7 
  485.936,1447.68 488.515,1447.67 491.093,1447.65 493.672,1447.63 496.25,1447.61 498.829,1447.59 501.407,1447.57 503.986,1447.55 506.564,1447.52 509.143,1447.49 
  511.721,1447.46 514.299,1447.43 516.878,1447.39 519.456,1447.36 522.035,1447.32 524.613,1447.27 527.192,1447.23 529.77,1447.18 532.349,1447.13 534.927,1447.07 
  537.506,1447.01 540.084,1446.94 542.663,1446.88 545.241,1446.8 547.82,1446.72 550.398,1446.64 552.977,1446.55 555.555,1446.46 558.134,1446.35 560.712,1446.25 
  563.291,1446.13 565.869,1446.01 568.448,1445.88 571.026,1445.74 573.605,1445.6 576.183,1445.44 578.762,1445.27 581.34,1445.1 583.918,1444.91 586.497,1444.71 
  589.075,1444.5 591.654,1444.28 594.232,1444.05 596.811,1443.8 599.389,1443.54 601.968,1443.26 604.546,1442.96 607.125,1442.65 609.703,1442.32 612.282,1441.98 
  614.86,1441.61 617.439,1441.23 620.017,1440.82 622.596,1440.39 625.174,1439.94 627.753,1439.46 630.331,1438.96 632.91,1438.44 635.488,1437.88 638.067,1437.3 
  640.645,1436.69 643.224,1436.05 645.802,1435.37 648.38,1434.67 650.959,1433.93 653.537,1433.15 656.116,1432.33 658.694,1431.48 661.273,1430.59 663.851,1429.66 
  666.43,1428.68 669.008,1427.66 671.587,1426.59 674.165,1425.48 676.744,1424.32 679.322,1423.11 681.901,1421.84 684.479,1420.52 687.058,1419.15 689.636,1417.72 
  692.215,1416.23 694.793,1414.68 697.372,1413.07 699.95,1411.39 702.529,1409.65 705.107,1407.85 707.686,1405.97 710.264,1404.03 712.842,1402.01 715.421,1399.91 
  717.999,1397.75 720.578,1395.5 723.156,1393.18 725.735,1390.78 728.313,1388.29 730.892,1385.72 733.47,1383.07 736.049,1380.33 738.627,1377.51 741.206,1374.59 
  743.784,1371.58 746.363,1368.49 748.941,1365.3 751.52,1362.01 754.098,1358.63 756.677,1355.16 759.255,1351.59 761.834,1347.92 764.412,1344.15 766.991,1340.28 
  769.569,1336.32 772.148,1332.25 774.726,1328.08 777.304,1323.82 779.883,1319.45 782.461,1314.98 785.04,1310.41 787.618,1305.74 790.197,1300.98 792.775,1296.11 
  795.354,1291.14 797.932,1286.08 800.511,1280.92 803.089,1275.66 805.668,1270.31 808.246,1264.87 810.825,1259.33 813.403,1253.7 815.982,1247.99 818.56,1242.19 
  821.139,1236.31 823.717,1230.34 826.296,1224.3 828.874,1218.18 831.453,1211.99 834.031,1205.73 836.61,1199.4 839.188,1193.01 841.766,1186.56 844.345,1180.05 
  846.923,1173.49 849.502,1166.88 852.08,1160.23 854.659,1153.54 857.237,1146.81 859.816,1140.05 862.394,1133.26 864.973,1126.46 867.551,1119.64 870.13,1112.81 
  872.708,1105.97 875.287,1099.13 877.865,1092.3 880.444,1085.48 883.022,1078.68 885.601,1071.9 888.179,1065.14 890.758,1058.43 893.336,1051.75 895.915,1045.12 
  898.493,1038.54 901.072,1032.02 903.65,1025.57 906.228,1019.19 908.807,1012.88 911.385,1006.66 913.964,1000.53 916.542,994.494 919.121,988.561 921.699,982.738 
  924.278,977.028 926.856,971.439 929.435,965.977 932.013,960.647 934.592,955.455 937.17,950.406 939.749,945.507 942.327,940.763 944.906,936.178 947.484,931.758 
  950.063,927.509 952.641,923.434 955.22,919.539 957.798,915.828 960.377,912.305 962.955,908.974 965.534,905.839 968.112,902.904 970.69,900.172 973.269,897.647 
  975.847,895.331 978.426,893.228 981.004,891.339 983.583,889.667 986.161,888.213 988.74,886.981 991.318,885.97 993.897,885.183 996.475,884.62 999.054,884.282 
  1001.63,884.169 1004.21,884.282 1006.79,884.62 1009.37,885.183 1011.95,885.97 1014.52,886.981 1017.1,888.213 1019.68,889.667 1022.26,891.339 1024.84,893.228 
  1027.42,895.331 1030,897.647 1032.57,900.172 1035.15,902.904 1037.73,905.839 1040.31,908.974 1042.89,912.304 1045.47,915.828 1048.04,919.539 1050.62,923.434 
  1053.2,927.509 1055.78,931.758 1058.36,936.178 1060.94,940.762 1063.52,945.507 1066.09,950.406 1068.67,955.454 1071.25,960.646 1073.83,965.976 1076.41,971.439 
  1078.99,977.028 1081.57,982.737 1084.14,988.561 1086.72,994.493 1089.3,1000.53 1091.88,1006.66 1094.46,1012.88 1097.04,1019.18 1099.61,1025.57 1102.19,1032.02 
  1104.77,1038.54 1107.35,1045.12 1109.93,1051.75 1112.51,1058.42 1115.09,1065.14 1117.66,1071.89 1120.24,1078.67 1122.82,1085.48 1125.4,1092.3 1127.98,1099.13 
  1130.56,1105.97 1133.13,1112.8 1135.71,1119.63 1138.29,1126.45 1140.87,1133.26 1143.45,1140.04 1146.03,1146.8 1148.61,1153.53 1151.18,1160.22 1153.76,1166.87 
  1156.34,1173.48 1158.92,1180.04 1161.5,1186.54 1164.08,1192.99 1166.65,1199.39 1169.23,1205.71 1171.81,1211.97 1174.39,1218.16 1176.97,1224.28 1179.55,1230.32 
  1182.13,1236.28 1184.7,1242.16 1187.28,1247.96 1189.86,1253.67 1192.44,1259.29 1195.02,1264.82 1197.6,1270.26 1200.18,1275.61 1202.75,1280.86 1205.33,1286.01 
  1207.91,1291.07 1210.49,1296.03 1213.07,1300.89 1215.65,1305.65 1218.22,1310.31 1220.8,1314.87 1223.38,1319.33 1225.96,1323.69 1228.54,1327.94 1231.12,1332.1 
  1233.7,1336.15 1236.27,1340.1 1238.85,1343.95 1241.43,1347.7 1244.01,1351.35 1246.59,1354.91 1249.17,1358.36 1251.74,1361.72 1254.32,1364.97 1256.9,1368.14 
  1259.48,1371.21 1262.06,1374.18 1264.64,1377.06 1267.22,1379.85 1269.79,1382.55 1272.37,1385.16 1274.95,1387.69 1277.53,1390.12 1280.11,1392.47 1282.69,1394.74 
  1285.27,1396.92 1287.84,1399.02 1290.42,1401.05 1293,1402.99 1295.58,1404.86 1298.16,1406.65 1300.74,1408.36 1303.31,1410 1305.89,1411.57 1308.47,1413.07 
  1311.05,1414.5 1313.63,1415.86 1316.21,1417.15 1318.79,1418.38 1321.36,1419.54 1323.94,1420.64 1326.52,1421.67 1329.1,1422.65 1331.68,1423.56 1334.26,1424.41 
  1336.83,1425.2 1339.41,1425.93 1341.99,1426.6 1344.57,1427.22 1347.15,1427.78 1349.73,1428.28 1352.31,1428.73 1354.88,1429.12 1357.46,1429.45 1360.04,1429.73 
  1362.62,1429.95 1365.2,1430.12 1367.78,1430.23 1370.35,1430.29 1372.93,1430.29 1375.51,1430.23 1378.09,1430.12 1380.67,1429.95 1383.25,1429.72 1385.83,1429.43 
  1388.4,1429.09 1390.98,1428.68 1393.56,1428.21 1396.14,1427.68 1398.72,1427.09 1401.3,1426.44 1403.88,1425.71 1406.45,1424.92 1409.03,1424.06 1411.61,1423.14 
  1414.19,1422.14 1416.77,1421.06 1419.35,1419.91 1421.92,1418.68 1424.5,1417.38 1427.08,1415.99 1429.66,1414.52 1432.24,1412.96 1434.82,1411.31 1437.4,1409.58 
  1439.97,1407.75 1442.55,1405.82 1445.13,1403.8 1447.71,1401.67 1450.29,1399.44 1452.87,1397.11 1455.44,1394.66 1458.02,1392.1 1460.6,1389.43 1463.18,1386.64 
  1465.76,1383.72 1468.34,1380.68 1470.92,1377.52 1473.49,1374.22 1476.07,1370.79 1478.65,1367.22 1481.23,1363.51 1483.81,1359.66 1486.39,1355.66 1488.97,1351.51 
  1491.54,1347.21 1494.12,1342.75 1496.7,1338.13 1499.28,1333.35 1501.86,1328.41 1504.44,1323.3 1507.01,1318.01 1509.59,1312.55 1512.17,1306.92 1514.75,1301.1 
  1517.33,1295.11 1519.91,1288.93 1522.49,1282.56 1525.06,1276 1527.64,1269.26 1530.22,1262.32 1532.8,1255.18 1535.38,1247.85 1537.96,1240.33 1540.53,1232.6 
  1543.11,1224.68 1545.69,1216.55 1548.27,1208.23 1550.85,1199.7 1553.43,1190.97 1556.01,1182.04 1558.58,1172.9 1561.16,1163.57 1563.74,1154.04 1566.32,1144.31 
  1568.9,1134.38 1571.48,1124.25 1574.05,1113.93 1576.63,1103.42 1579.21,1092.72 1581.79,1081.83 1584.37,1070.77 1586.95,1059.52 1589.53,1048.09 1592.1,1036.49 
  1594.68,1024.73 1597.26,1012.8 1599.84,1000.72 1602.42,988.483 1605,976.101 1607.58,963.578 1610.15,950.922 1612.73,938.138 1615.31,925.235 1617.89,912.22 
  1620.47,899.099 1623.05,885.883 1625.62,872.577 1628.2,859.193 1630.78,845.738 1633.36,832.221 1635.94,818.653 1638.52,805.043 1641.1,791.401 1643.67,777.738 
  1646.25,764.064 1648.83,750.39 1651.41,736.727 1653.99,723.086 1656.57,709.479 1659.14,695.917 1661.72,682.413 1664.3,668.977 1666.88,655.623 1669.46,642.362 
  1672.04,629.206 1674.62,616.169 1677.19,603.262 1679.77,590.497 1682.35,577.888 1684.93,565.446 1687.51,553.184 1690.09,541.114 1692.66,529.25 1695.24,517.602 
  1697.82,506.183 1700.4,495.005 1702.98,484.08 1705.56,473.42 1708.14,463.036 1710.71,452.939 1713.29,443.141 1715.87,433.652 1718.45,424.483 1721.03,415.644 
  1723.61,407.145 1726.19,398.995 1728.76,391.205 1731.34,383.782 1733.92,376.736 1736.5,370.074 1739.08,363.805 1741.66,357.935 1744.23,352.472 1746.81,347.421 
  1749.39,342.79 1751.97,338.582 1754.55,334.804 1757.13,331.46 1759.71,328.554 1762.28,326.089 1764.86,324.067 1767.44,322.493 1770.02,321.367 1772.6,320.691 
  1775.18,320.466 1777.75,320.691 1780.33,321.367 1782.91,322.493 1785.49,324.067 1788.07,326.089 1790.65,328.554 1793.23,331.46 1795.8,334.804 1798.38,338.582 
  1800.96,342.79 1803.54,347.421 1806.12,352.472 1808.7,357.935 1811.28,363.805 1813.85,370.074 1816.43,376.736 1819.01,383.782 1821.59,391.205 1824.17,398.995 
  1826.75,407.145 1829.32,415.644 1831.9,424.483 1834.48,433.652 1837.06,443.141 1839.64,452.939 1842.22,463.036 1844.8,473.42 1847.37,484.081 1849.95,495.005 
  1852.53,506.183 1855.11,517.602 1857.69,529.25 1860.27,541.115 1862.84,553.184 1865.42,565.446 1868,577.888 1870.58,590.498 1873.16,603.262 1875.74,616.17 
  1878.32,629.207 1880.89,642.363 1883.47,655.624 1886.05,668.978 1888.63,682.414 1891.21,695.918 1893.79,709.48 1896.36,723.087 1898.94,736.728 1901.52,750.392 
  1904.1,764.066 1906.68,777.74 1909.26,791.404 1911.84,805.046 1914.41,818.656 1916.99,832.225 1919.57,845.741 1922.15,859.197 1924.73,872.582 1927.31,885.888 
  1929.89,899.105 1932.46,912.226 1935.04,925.242 1937.62,938.146 1940.2,950.93 1942.78,963.587 1945.36,976.11 1947.93,988.494 1950.51,1000.73 1953.09,1012.82 
  1955.67,1024.74 1958.25,1036.51 1960.83,1048.11 1963.41,1059.54 1965.98,1070.79 1968.56,1081.86 1971.14,1092.75 1973.72,1103.45 1976.3,1113.96 1978.88,1124.28 
  1981.45,1134.41 1984.03,1144.34 1986.61,1154.08 1989.19,1163.62 1991.77,1172.95 1994.35,1182.09 1996.93,1191.03 1999.5,1199.76 2002.08,1208.3 2004.66,1216.63 
  2007.24,1224.76 2009.82,1232.69 2012.4,1240.43 2014.97,1247.96 2017.55,1255.3 2020.13,1262.44 2022.71,1269.39 2025.29,1276.15 2027.87,1282.72 2030.45,1289.1 
  2033.02,1295.3 2035.6,1301.31 2038.18,1307.14 2040.76,1312.79 2043.34,1318.27 2045.92,1323.58 2048.5,1328.71 2051.07,1333.68 2053.65,1338.49 2056.23,1343.13 
  2058.81,1347.62 2061.39,1351.96 2063.97,1356.14 2066.54,1360.18 2069.12,1364.07 2071.7,1367.82 2074.28,1371.44 2076.86,1374.92 2079.44,1378.27 2082.02,1381.49 
  2084.59,1384.59 2087.17,1387.56 2089.75,1390.43 2092.33,1393.17 2094.91,1395.81 2097.49,1398.34 2100.06,1400.76 2102.64,1403.09 2105.22,1405.31 2107.8,1407.45 
  2110.38,1409.49 2112.96,1411.44 2115.54,1413.31 2118.11,1415.09 2120.69,1416.8 2123.27,1418.42 2125.85,1419.98 2128.43,1421.46 2131.01,1422.87 2133.59,1424.22 
  2136.16,1425.5 2138.74,1426.73 2141.32,1427.89 2143.9,1429 2146.48,1430.05 2149.06,1431.05 2151.63,1432 2154.21,1432.91 2156.79,1433.76 2159.37,1434.58 
  2161.95,1435.35 2164.53,1436.08 2167.11,1436.77 2169.68,1437.43 2172.26,1438.05 2174.84,1438.64 2177.42,1439.2 2180,1439.72 2182.58,1440.22 2185.15,1440.69 
  2187.73,1441.14 2190.31,1441.55 2192.89,1441.95 2195.47,1442.32 2198.05,1442.67 2200.63,1443.01 2203.2,1443.32 2205.78,1443.61 2208.36,1443.89 2210.94,1444.15 
  2213.52,1444.39 2216.1,1444.62 2218.67,1444.84 2221.25,1445.04 2223.83,1445.23 2226.41,1445.41 2228.99,1445.57 2231.57,1445.73 2234.15,1445.88 2236.72,1446.02 
  2239.3,1446.14 2241.88,1446.26 2244.46,1446.38 2247.04,1446.48 2249.62,1446.58 2252.2,1446.67 2254.77,1446.76 2257.35,1446.84 2259.93,1446.91 2262.51,1446.98 
  2265.09,1447.05 2267.67,1447.11 2270.24,1447.16 2272.82,1447.22 2275.4,1447.27 2277.98,1447.31 2280.56,1447.35 2283.14,1447.39 2285.72,1447.43 2288.29,1447.46 
  2290.87,1447.49 
  "/>
<path clip-path="url(#clip020)" d="
M1929.78 388.432 L2280.76 388.432 L2280.76 206.992 L1929.78 206.992  Z
  " fill="#ffffff" fill-rule="evenodd" fill-opacity="1"/>
<polyline clip-path="url(#clip020)" style="stroke:#000000; stroke-width:4; stroke-opacity:1; fill:none" points="
  1929.78,388.432 2280.76,388.432 2280.76,206.992 1929.78,206.992 1929.78,388.432 
  "/>
<polyline clip-path="url(#clip020)" style="stroke:#009af9; stroke-width:4; stroke-opacity:1; fill:none" points="
  1953.78,267.472 2097.78,267.472 
  "/>
<path clip-path="url(#clip020)" d="M 0 0 M2126.46 254.035 L2126.46 280.91 L2132.11 280.91 Q2139.26 280.91 2142.57 277.669 Q2145.9 274.428 2145.9 267.437 Q2145.9 260.493 2142.57 257.275 Q2139.26 254.035 2132.11 254.035 L2126.46 254.035 M2121.78 250.192 L2131.39 250.192 Q2141.44 250.192 2146.14 254.382 Q2150.84 258.549 2150.84 267.437 Q2150.84 276.373 2146.11 280.562 Q2141.39 284.752 2131.39 284.752 L2121.78 284.752 L2121.78 250.192 Z" fill="#000000" fill-rule="evenodd" fill-opacity="1" /><path clip-path="url(#clip020)" d="M 0 0 M2167.08 271.72 Q2161.92 271.72 2159.93 272.9 Q2157.94 274.081 2157.94 276.928 Q2157.94 279.197 2159.42 280.539 Q2160.93 281.859 2163.5 281.859 Q2167.04 281.859 2169.17 279.359 Q2171.32 276.836 2171.32 272.669 L2171.32 271.72 L2167.08 271.72 M2175.58 269.961 L2175.58 284.752 L2171.32 284.752 L2171.32 280.817 Q2169.86 283.178 2167.69 284.312 Q2165.51 285.423 2162.36 285.423 Q2158.38 285.423 2156.02 283.201 Q2153.68 280.956 2153.68 277.206 Q2153.68 272.831 2156.6 270.609 Q2159.54 268.386 2165.35 268.386 L2171.32 268.386 L2171.32 267.97 Q2171.32 265.03 2169.38 263.433 Q2167.46 261.812 2163.96 261.812 Q2161.74 261.812 2159.63 262.345 Q2157.52 262.877 2155.58 263.942 L2155.58 260.007 Q2157.92 259.104 2160.12 258.664 Q2162.32 258.201 2164.4 258.201 Q2170.02 258.201 2172.8 261.118 Q2175.58 264.035 2175.58 269.961 Z" fill="#000000" fill-rule="evenodd" fill-opacity="1" /><path clip-path="url(#clip020)" d="M 0 0 M2184.26 251.465 L2184.26 258.826 L2193.03 258.826 L2193.03 262.137 L2184.26 262.137 L2184.26 276.211 Q2184.26 279.382 2185.12 280.285 Q2186 281.187 2188.66 281.187 L2193.03 281.187 L2193.03 284.752 L2188.66 284.752 Q2183.73 284.752 2181.85 282.923 Q2179.98 281.072 2179.98 276.211 L2179.98 262.137 L2176.85 262.137 L2176.85 258.826 L2179.98 258.826 L2179.98 251.465 L2184.26 251.465 Z" fill="#000000" fill-rule="evenodd" fill-opacity="1" /><path clip-path="url(#clip020)" d="M 0 0 M2209.28 271.72 Q2204.12 271.72 2202.13 272.9 Q2200.14 274.081 2200.14 276.928 Q2200.14 279.197 2201.62 280.539 Q2203.13 281.859 2205.7 281.859 Q2209.24 281.859 2211.37 279.359 Q2213.52 276.836 2213.52 272.669 L2213.52 271.72 L2209.28 271.72 M2217.78 269.961 L2217.78 284.752 L2213.52 284.752 L2213.52 280.817 Q2212.06 283.178 2209.89 284.312 Q2207.71 285.423 2204.56 285.423 Q2200.58 285.423 2198.22 283.201 Q2195.88 280.956 2195.88 277.206 Q2195.88 272.831 2198.8 270.609 Q2201.74 268.386 2207.55 268.386 L2213.52 268.386 L2213.52 267.97 Q2213.52 265.03 2211.58 263.433 Q2209.65 261.812 2206.16 261.812 Q2203.94 261.812 2201.83 262.345 Q2199.72 262.877 2197.78 263.942 L2197.78 260.007 Q2200.12 259.104 2202.32 258.664 Q2204.52 258.201 2206.6 258.201 Q2212.22 258.201 2215 261.118 Q2217.78 264.035 2217.78 269.961 Z" fill="#000000" fill-rule="evenodd" fill-opacity="1" /><polyline clip-path="url(#clip020)" style="stroke:#e26f46; stroke-width:4; stroke-opacity:1; fill:none" points="
  1953.78,327.952 2097.78,327.952 
  "/>
<path clip-path="url(#clip020)" d="M 0 0 M2121.78 310.672 L2151.02 310.672 L2151.02 314.607 L2138.75 314.607 L2138.75 345.232 L2134.05 345.232 L2134.05 314.607 L2121.78 314.607 L2121.78 310.672 Z" fill="#000000" fill-rule="evenodd" fill-opacity="1" /><path clip-path="url(#clip020)" d="M 0 0 M2163.54 323.288 Q2162.83 322.871 2161.97 322.686 Q2161.14 322.478 2160.12 322.478 Q2156.51 322.478 2154.56 324.839 Q2152.64 327.177 2152.64 331.575 L2152.64 345.232 L2148.36 345.232 L2148.36 319.306 L2152.64 319.306 L2152.64 323.334 Q2153.98 320.973 2156.14 319.839 Q2158.29 318.681 2161.37 318.681 Q2161.81 318.681 2162.34 318.751 Q2162.87 318.797 2163.52 318.913 L2163.54 323.288 Z" fill="#000000" fill-rule="evenodd" fill-opacity="1" /><path clip-path="url(#clip020)" d="M 0 0 M2167.57 335.001 L2167.57 319.306 L2171.83 319.306 L2171.83 334.839 Q2171.83 338.519 2173.27 340.371 Q2174.7 342.2 2177.57 342.2 Q2181.02 342.2 2183.01 340.001 Q2185.02 337.802 2185.02 334.005 L2185.02 319.306 L2189.28 319.306 L2189.28 345.232 L2185.02 345.232 L2185.02 341.251 Q2183.47 343.612 2181.41 344.769 Q2179.38 345.903 2176.67 345.903 Q2172.2 345.903 2169.89 343.126 Q2167.57 340.348 2167.57 335.001 M2178.29 318.681 L2178.29 318.681 Z" fill="#000000" fill-rule="evenodd" fill-opacity="1" /><path clip-path="url(#clip020)" d="M 0 0 M2197.96 311.945 L2197.96 319.306 L2206.74 319.306 L2206.74 322.617 L2197.96 322.617 L2197.96 336.691 Q2197.96 339.862 2198.82 340.765 Q2199.7 341.667 2202.36 341.667 L2206.74 341.667 L2206.74 345.232 L2202.36 345.232 Q2197.43 345.232 2195.56 343.403 Q2193.68 341.552 2193.68 336.691 L2193.68 322.617 L2190.56 322.617 L2190.56 319.306 L2193.68 319.306 L2193.68 311.945 L2197.96 311.945 Z" fill="#000000" fill-rule="evenodd" fill-opacity="1" /><path clip-path="url(#clip020)" d="M 0 0 M2232.76 329.584 L2232.76 345.232 L2228.5 345.232 L2228.5 329.723 Q2228.5 326.042 2227.06 324.214 Q2225.63 322.385 2222.76 322.385 Q2219.31 322.385 2217.32 324.584 Q2215.33 326.783 2215.33 330.579 L2215.33 345.232 L2211.04 345.232 L2211.04 309.214 L2215.33 309.214 L2215.33 323.334 Q2216.85 320.996 2218.91 319.839 Q2221 318.681 2223.71 318.681 Q2228.17 318.681 2230.46 321.459 Q2232.76 324.214 2232.76 329.584 Z" fill="#000000" fill-rule="evenodd" fill-opacity="1" /></svg>
