<?xml version="1.0" encoding="utf-8"?>
<svg xmlns="http://www.w3.org/2000/svg" xmlns:xlink="http://www.w3.org/1999/xlink" width="600" height="400" viewBox="0 0 2400 1600">
<defs>
  <clipPath id="clip990">
    <rect x="0" y="0" width="2400" height="1600"/>
  </clipPath>
</defs>
<path clip-path="url(#clip990)" d="
M0 1600 L2400 1600 L2400 0 L0 0  Z
  " fill="#ffffff" fill-rule="evenodd" fill-opacity="1"/>
<defs>
  <clipPath id="clip991">
    <rect x="480" y="0" width="1681" height="1600"/>
  </clipPath>
</defs>
<path clip-path="url(#clip990)" d="
M166.205 1486.45 L2352.76 1486.45 L2352.76 123.472 L166.205 123.472  Z
  " fill="#ffffff" fill-rule="evenodd" fill-opacity="1"/>
<defs>
  <clipPath id="clip992">
    <rect x="166" y="123" width="2188" height="1364"/>
  </clipPath>
</defs>
<polyline clip-path="url(#clip992)" style="stroke:#000000; stroke-width:2; stroke-opacity:0.1; fill:none" points="
  228.088,1486.45 228.088,123.472 
  "/>
<polyline clip-path="url(#clip992)" style="stroke:#000000; stroke-width:2; stroke-opacity:0.1; fill:none" points="
  571.886,1486.45 571.886,123.472 
  "/>
<polyline clip-path="url(#clip992)" style="stroke:#000000; stroke-width:2; stroke-opacity:0.1; fill:none" points="
  915.683,1486.45 915.683,123.472 
  "/>
<polyline clip-path="url(#clip992)" style="stroke:#000000; stroke-width:2; stroke-opacity:0.1; fill:none" points="
  1259.48,1486.45 1259.48,123.472 
  "/>
<polyline clip-path="url(#clip992)" style="stroke:#000000; stroke-width:2; stroke-opacity:0.1; fill:none" points="
  1603.28,1486.45 1603.28,123.472 
  "/>
<polyline clip-path="url(#clip992)" style="stroke:#000000; stroke-width:2; stroke-opacity:0.1; fill:none" points="
  1947.08,1486.45 1947.08,123.472 
  "/>
<polyline clip-path="url(#clip992)" style="stroke:#000000; stroke-width:2; stroke-opacity:0.1; fill:none" points="
  2290.87,1486.45 2290.87,123.472 
  "/>
<polyline clip-path="url(#clip992)" style="stroke:#000000; stroke-width:2; stroke-opacity:0.1; fill:none" points="
  166.205,1447.87 2352.76,1447.87 
  "/>
<polyline clip-path="url(#clip992)" style="stroke:#000000; stroke-width:2; stroke-opacity:0.1; fill:none" points="
  166.205,1165.27 2352.76,1165.27 
  "/>
<polyline clip-path="url(#clip992)" style="stroke:#000000; stroke-width:2; stroke-opacity:0.1; fill:none" points="
  166.205,882.675 2352.76,882.675 
  "/>
<polyline clip-path="url(#clip992)" style="stroke:#000000; stroke-width:2; stroke-opacity:0.1; fill:none" points="
  166.205,600.076 2352.76,600.076 
  "/>
<polyline clip-path="url(#clip992)" style="stroke:#000000; stroke-width:2; stroke-opacity:0.1; fill:none" points="
  166.205,317.476 2352.76,317.476 
  "/>
<polyline clip-path="url(#clip990)" style="stroke:#000000; stroke-width:4; stroke-opacity:1; fill:none" points="
  166.205,1486.45 2352.76,1486.45 
  "/>
<polyline clip-path="url(#clip990)" style="stroke:#000000; stroke-width:4; stroke-opacity:1; fill:none" points="
  166.205,1486.45 166.205,123.472 
  "/>
<polyline clip-path="url(#clip990)" style="stroke:#000000; stroke-width:4; stroke-opacity:1; fill:none" points="
  228.088,1486.45 228.088,1470.09 
  "/>
<polyline clip-path="url(#clip990)" style="stroke:#000000; stroke-width:4; stroke-opacity:1; fill:none" points="
  571.886,1486.45 571.886,1470.09 
  "/>
<polyline clip-path="url(#clip990)" style="stroke:#000000; stroke-width:4; stroke-opacity:1; fill:none" points="
  915.683,1486.45 915.683,1470.09 
  "/>
<polyline clip-path="url(#clip990)" style="stroke:#000000; stroke-width:4; stroke-opacity:1; fill:none" points="
  1259.48,1486.45 1259.48,1470.09 
  "/>
<polyline clip-path="url(#clip990)" style="stroke:#000000; stroke-width:4; stroke-opacity:1; fill:none" points="
  1603.28,1486.45 1603.28,1470.09 
  "/>
<polyline clip-path="url(#clip990)" style="stroke:#000000; stroke-width:4; stroke-opacity:1; fill:none" points="
  1947.08,1486.45 1947.08,1470.09 
  "/>
<polyline clip-path="url(#clip990)" style="stroke:#000000; stroke-width:4; stroke-opacity:1; fill:none" points="
  2290.87,1486.45 2290.87,1470.09 
  "/>
<polyline clip-path="url(#clip990)" style="stroke:#000000; stroke-width:4; stroke-opacity:1; fill:none" points="
  166.205,1447.87 192.443,1447.87 
  "/>
<polyline clip-path="url(#clip990)" style="stroke:#000000; stroke-width:4; stroke-opacity:1; fill:none" points="
  166.205,1165.27 192.443,1165.27 
  "/>
<polyline clip-path="url(#clip990)" style="stroke:#000000; stroke-width:4; stroke-opacity:1; fill:none" points="
  166.205,882.675 192.443,882.675 
  "/>
<polyline clip-path="url(#clip990)" style="stroke:#000000; stroke-width:4; stroke-opacity:1; fill:none" points="
  166.205,600.076 192.443,600.076 
  "/>
<polyline clip-path="url(#clip990)" style="stroke:#000000; stroke-width:4; stroke-opacity:1; fill:none" points="
  166.205,317.476 192.443,317.476 
  "/>
<path clip-path="url(#clip990)" d="M 0 0 M209.142 1525.04 L221.618 1525.04 L221.618 1528.83 L209.142 1528.83 L209.142 1525.04 Z" fill="#000000" fill-rule="evenodd" fill-opacity="1" /><path clip-path="url(#clip990)" d="M 0 0 M230.715 1535.98 L247.035 1535.98 L247.035 1539.92 L225.091 1539.92 L225.091 1535.98 Q227.753 1533.23 232.336 1528.6 Q236.942 1523.95 238.123 1522.61 Q240.368 1520.08 241.248 1518.35 Q242.151 1516.59 242.151 1514.9 Q242.151 1512.14 240.206 1510.41 Q238.285 1508.67 235.183 1508.67 Q232.984 1508.67 230.53 1509.43 Q228.1 1510.2 225.322 1511.75 L225.322 1507.03 Q228.146 1505.89 230.6 1505.31 Q233.053 1504.73 235.09 1504.73 Q240.461 1504.73 243.655 1507.42 Q246.85 1510.11 246.85 1514.6 Q246.85 1516.73 246.039 1518.65 Q245.252 1520.54 243.146 1523.14 Q242.567 1523.81 239.465 1527.03 Q236.364 1530.22 230.715 1535.98 Z" fill="#000000" fill-rule="evenodd" fill-opacity="1" /><path clip-path="url(#clip990)" d="M 0 0 M552.754 1525.04 L565.23 1525.04 L565.23 1528.83 L552.754 1528.83 L552.754 1525.04 Z" fill="#000000" fill-rule="evenodd" fill-opacity="1" /><path clip-path="url(#clip990)" d="M 0 0 M571.11 1535.98 L578.749 1535.98 L578.749 1509.62 L570.439 1511.29 L570.439 1507.03 L578.703 1505.36 L583.379 1505.36 L583.379 1535.98 L591.017 1535.98 L591.017 1539.92 L571.11 1539.92 L571.11 1535.98 Z" fill="#000000" fill-rule="evenodd" fill-opacity="1" /><path clip-path="url(#clip990)" d="M 0 0 M915.683 1508.44 Q912.072 1508.44 910.243 1512 Q908.438 1515.55 908.438 1522.67 Q908.438 1529.78 910.243 1533.35 Q912.072 1536.89 915.683 1536.89 Q919.317 1536.89 921.123 1533.35 Q922.951 1529.78 922.951 1522.67 Q922.951 1515.55 921.123 1512 Q919.317 1508.44 915.683 1508.44 M915.683 1504.73 Q921.493 1504.73 924.549 1509.34 Q927.627 1513.92 927.627 1522.67 Q927.627 1531.4 924.549 1536.01 Q921.493 1540.59 915.683 1540.59 Q909.873 1540.59 906.794 1536.01 Q903.739 1531.4 903.739 1522.67 Q903.739 1513.92 906.794 1509.34 Q909.873 1504.73 915.683 1504.73 Z" fill="#000000" fill-rule="evenodd" fill-opacity="1" /><path clip-path="url(#clip990)" d="M 0 0 M1249.86 1535.98 L1257.5 1535.98 L1257.5 1509.62 L1249.19 1511.29 L1249.19 1507.03 L1257.45 1505.36 L1262.13 1505.36 L1262.13 1535.98 L1269.77 1535.98 L1269.77 1539.92 L1249.86 1539.92 L1249.86 1535.98 Z" fill="#000000" fill-rule="evenodd" fill-opacity="1" /><path clip-path="url(#clip990)" d="M 0 0 M1597.93 1535.98 L1614.25 1535.98 L1614.25 1539.92 L1592.31 1539.92 L1592.31 1535.98 Q1594.97 1533.23 1599.55 1528.6 Q1604.16 1523.95 1605.34 1522.61 Q1607.58 1520.08 1608.46 1518.35 Q1609.37 1516.59 1609.37 1514.9 Q1609.37 1512.14 1607.42 1510.41 Q1605.5 1508.67 1602.4 1508.67 Q1600.2 1508.67 1597.75 1509.43 Q1595.31 1510.2 1592.54 1511.75 L1592.54 1507.03 Q1595.36 1505.89 1597.81 1505.31 Q1600.27 1504.73 1602.31 1504.73 Q1607.68 1504.73 1610.87 1507.42 Q1614.06 1510.11 1614.06 1514.6 Q1614.06 1516.73 1613.25 1518.65 Q1612.47 1520.54 1610.36 1523.14 Q1609.78 1523.81 1606.68 1527.03 Q1603.58 1530.22 1597.93 1535.98 Z" fill="#000000" fill-rule="evenodd" fill-opacity="1" /><path clip-path="url(#clip990)" d="M 0 0 M1951.32 1521.29 Q1954.68 1522 1956.55 1524.27 Q1958.45 1526.54 1958.45 1529.87 Q1958.45 1534.99 1954.93 1537.79 Q1951.42 1540.59 1944.93 1540.59 Q1942.76 1540.59 1940.44 1540.15 Q1938.15 1539.73 1935.7 1538.88 L1935.7 1534.36 Q1937.64 1535.5 1939.96 1536.08 Q1942.27 1536.66 1944.79 1536.66 Q1949.19 1536.66 1951.48 1534.92 Q1953.8 1533.18 1953.8 1529.87 Q1953.8 1526.82 1951.65 1525.11 Q1949.52 1523.37 1945.7 1523.37 L1941.67 1523.37 L1941.67 1519.53 L1945.88 1519.53 Q1949.33 1519.53 1951.16 1518.16 Q1952.99 1516.77 1952.99 1514.18 Q1952.99 1511.52 1951.09 1510.11 Q1949.22 1508.67 1945.7 1508.67 Q1943.78 1508.67 1941.58 1509.09 Q1939.38 1509.5 1936.74 1510.38 L1936.74 1506.22 Q1939.4 1505.48 1941.72 1505.11 Q1944.05 1504.73 1946.11 1504.73 Q1951.44 1504.73 1954.54 1507.17 Q1957.64 1509.57 1957.64 1513.69 Q1957.64 1516.56 1956 1518.55 Q1954.36 1520.52 1951.32 1521.29 Z" fill="#000000" fill-rule="evenodd" fill-opacity="1" /><path clip-path="url(#clip990)" d="M 0 0 M2293.88 1509.43 L2282.08 1527.88 L2293.88 1527.88 L2293.88 1509.43 M2292.65 1505.36 L2298.53 1505.36 L2298.53 1527.88 L2303.46 1527.88 L2303.46 1531.77 L2298.53 1531.77 L2298.53 1539.92 L2293.88 1539.92 L2293.88 1531.77 L2278.28 1531.77 L2278.28 1527.26 L2292.65 1505.36 Z" fill="#000000" fill-rule="evenodd" fill-opacity="1" /><path clip-path="url(#clip990)" d="M 0 0 M130.26 1433.67 Q126.649 1433.67 124.82 1437.24 Q123.015 1440.78 123.015 1447.91 Q123.015 1455.01 124.82 1458.58 Q126.649 1462.12 130.26 1462.12 Q133.895 1462.12 135.7 1458.58 Q137.529 1455.01 137.529 1447.91 Q137.529 1440.78 135.7 1437.24 Q133.895 1433.67 130.26 1433.67 M130.26 1429.97 Q136.07 1429.97 139.126 1434.57 Q142.205 1439.16 142.205 1447.91 Q142.205 1456.63 139.126 1461.24 Q136.07 1465.82 130.26 1465.82 Q124.45 1465.82 121.371 1461.24 Q118.316 1456.63 118.316 1447.91 Q118.316 1439.16 121.371 1434.57 Q124.45 1429.97 130.26 1429.97 Z" fill="#000000" fill-rule="evenodd" fill-opacity="1" /><path clip-path="url(#clip990)" d="M 0 0 M71.8578 1178.62 L88.1772 1178.62 L88.1772 1182.55 L66.2328 1182.55 L66.2328 1178.62 Q68.8949 1175.86 73.4782 1171.23 Q78.0846 1166.58 79.2652 1165.24 Q81.5105 1162.72 82.3902 1160.98 Q83.2929 1159.22 83.2929 1157.53 Q83.2929 1154.78 81.3485 1153.04 Q79.4272 1151.3 76.3254 1151.3 Q74.1263 1151.3 71.6726 1152.07 Q69.2421 1152.83 66.4643 1154.38 L66.4643 1149.66 Q69.2884 1148.53 71.7421 1147.95 Q74.1958 1147.37 76.2328 1147.37 Q81.6031 1147.37 84.7976 1150.05 Q87.992 1152.74 87.992 1157.23 Q87.992 1159.36 87.1818 1161.28 Q86.3948 1163.18 84.2883 1165.77 Q83.7096 1166.44 80.6078 1169.66 Q77.5059 1172.85 71.8578 1178.62 Z" fill="#000000" fill-rule="evenodd" fill-opacity="1" /><path clip-path="url(#clip990)" d="M 0 0 M103.247 1151.07 Q99.6354 1151.07 97.8068 1154.64 Q96.0012 1158.18 96.0012 1165.31 Q96.0012 1172.42 97.8068 1175.98 Q99.6354 1179.52 103.247 1179.52 Q106.881 1179.52 108.686 1175.98 Q110.515 1172.42 110.515 1165.31 Q110.515 1158.18 108.686 1154.64 Q106.881 1151.07 103.247 1151.07 M103.247 1147.37 Q109.057 1147.37 112.112 1151.98 Q115.191 1156.56 115.191 1165.31 Q115.191 1174.04 112.112 1178.64 Q109.057 1183.23 103.247 1183.23 Q97.4364 1183.23 94.3577 1178.64 Q91.3022 1174.04 91.3022 1165.31 Q91.3022 1156.56 94.3577 1151.98 Q97.4364 1147.37 103.247 1147.37 Z" fill="#000000" fill-rule="evenodd" fill-opacity="1" /><path clip-path="url(#clip990)" d="M 0 0 M130.26 1151.07 Q126.649 1151.07 124.82 1154.64 Q123.015 1158.18 123.015 1165.31 Q123.015 1172.42 124.82 1175.98 Q126.649 1179.52 130.26 1179.52 Q133.895 1179.52 135.7 1175.98 Q137.529 1172.42 137.529 1165.31 Q137.529 1158.18 135.7 1154.64 Q133.895 1151.07 130.26 1151.07 M130.26 1147.37 Q136.07 1147.37 139.126 1151.98 Q142.205 1156.56 142.205 1165.31 Q142.205 1174.04 139.126 1178.64 Q136.07 1183.23 130.26 1183.23 Q124.45 1183.23 121.371 1178.64 Q118.316 1174.04 118.316 1165.31 Q118.316 1156.56 121.371 1151.98 Q124.45 1147.37 130.26 1147.37 Z" fill="#000000" fill-rule="evenodd" fill-opacity="1" /><path clip-path="url(#clip990)" d="M 0 0 M78.5939 869.469 L66.7884 887.918 L78.5939 887.918 L78.5939 869.469 M77.367 865.395 L83.2466 865.395 L83.2466 887.918 L88.1772 887.918 L88.1772 891.807 L83.2466 891.807 L83.2466 899.955 L78.5939 899.955 L78.5939 891.807 L62.9921 891.807 L62.9921 887.293 L77.367 865.395 Z" fill="#000000" fill-rule="evenodd" fill-opacity="1" /><path clip-path="url(#clip990)" d="M 0 0 M103.247 868.473 Q99.6354 868.473 97.8068 872.038 Q96.0012 875.58 96.0012 882.709 Q96.0012 889.816 97.8068 893.381 Q99.6354 896.922 103.247 896.922 Q106.881 896.922 108.686 893.381 Q110.515 889.816 110.515 882.709 Q110.515 875.58 108.686 872.038 Q106.881 868.473 103.247 868.473 M103.247 864.77 Q109.057 864.77 112.112 869.376 Q115.191 873.96 115.191 882.709 Q115.191 891.436 112.112 896.043 Q109.057 900.626 103.247 900.626 Q97.4364 900.626 94.3577 896.043 Q91.3022 891.436 91.3022 882.709 Q91.3022 873.96 94.3577 869.376 Q97.4364 864.77 103.247 864.77 Z" fill="#000000" fill-rule="evenodd" fill-opacity="1" /><path clip-path="url(#clip990)" d="M 0 0 M130.26 868.473 Q126.649 868.473 124.82 872.038 Q123.015 875.58 123.015 882.709 Q123.015 889.816 124.82 893.381 Q126.649 896.922 130.26 896.922 Q133.895 896.922 135.7 893.381 Q137.529 889.816 137.529 882.709 Q137.529 875.58 135.7 872.038 Q133.895 868.473 130.26 868.473 M130.26 864.77 Q136.07 864.77 139.126 869.376 Q142.205 873.96 142.205 882.709 Q142.205 891.436 139.126 896.043 Q136.07 900.626 130.26 900.626 Q124.45 900.626 121.371 896.043 Q118.316 891.436 118.316 882.709 Q118.316 873.96 121.371 869.376 Q124.45 864.77 130.26 864.77 Z" fill="#000000" fill-rule="evenodd" fill-opacity="1" /><path clip-path="url(#clip990)" d="M 0 0 M76.6495 598.212 Q73.5013 598.212 71.6495 600.365 Q69.8208 602.518 69.8208 606.268 Q69.8208 609.995 71.6495 612.17 Q73.5013 614.323 76.6495 614.323 Q79.7976 614.323 81.6263 612.17 Q83.4781 609.995 83.4781 606.268 Q83.4781 602.518 81.6263 600.365 Q79.7976 598.212 76.6495 598.212 M85.9318 583.559 L85.9318 587.819 Q84.1726 586.985 82.367 586.546 Q80.5846 586.106 78.8254 586.106 Q74.1958 586.106 71.7421 589.231 Q69.3115 592.356 68.9643 598.675 Q70.33 596.661 72.3902 595.596 Q74.4504 594.509 76.9272 594.509 Q82.1355 594.509 85.1448 597.68 Q88.1772 600.828 88.1772 606.268 Q88.1772 611.592 85.029 614.809 Q81.8809 618.027 76.6495 618.027 Q70.6541 618.027 67.4828 613.444 Q64.3116 608.837 64.3116 600.11 Q64.3116 591.916 68.2004 587.055 Q72.0893 582.171 78.6402 582.171 Q80.3994 582.171 82.1818 582.518 Q83.9874 582.865 85.9318 583.559 Z" fill="#000000" fill-rule="evenodd" fill-opacity="1" /><path clip-path="url(#clip990)" d="M 0 0 M103.247 585.874 Q99.6354 585.874 97.8068 589.439 Q96.0012 592.981 96.0012 600.11 Q96.0012 607.217 97.8068 610.782 Q99.6354 614.323 103.247 614.323 Q106.881 614.323 108.686 610.782 Q110.515 607.217 110.515 600.11 Q110.515 592.981 108.686 589.439 Q106.881 585.874 103.247 585.874 M103.247 582.171 Q109.057 582.171 112.112 586.777 Q115.191 591.36 115.191 600.11 Q115.191 608.837 112.112 613.444 Q109.057 618.027 103.247 618.027 Q97.4364 618.027 94.3577 613.444 Q91.3022 608.837 91.3022 600.11 Q91.3022 591.36 94.3577 586.777 Q97.4364 582.171 103.247 582.171 Z" fill="#000000" fill-rule="evenodd" fill-opacity="1" /><path clip-path="url(#clip990)" d="M 0 0 M130.26 585.874 Q126.649 585.874 124.82 589.439 Q123.015 592.981 123.015 600.11 Q123.015 607.217 124.82 610.782 Q126.649 614.323 130.26 614.323 Q133.895 614.323 135.7 610.782 Q137.529 607.217 137.529 600.11 Q137.529 592.981 135.7 589.439 Q133.895 585.874 130.26 585.874 M130.26 582.171 Q136.07 582.171 139.126 586.777 Q142.205 591.36 142.205 600.11 Q142.205 608.837 139.126 613.444 Q136.07 618.027 130.26 618.027 Q124.45 618.027 121.371 613.444 Q118.316 608.837 118.316 600.11 Q118.316 591.36 121.371 586.777 Q124.45 582.171 130.26 582.171 Z" fill="#000000" fill-rule="evenodd" fill-opacity="1" /><path clip-path="url(#clip990)" d="M 0 0 M76.3254 318.345 Q72.9921 318.345 71.0708 320.127 Q69.1726 321.909 69.1726 325.034 Q69.1726 328.159 71.0708 329.942 Q72.9921 331.724 76.3254 331.724 Q79.6587 331.724 81.58 329.942 Q83.5013 328.136 83.5013 325.034 Q83.5013 321.909 81.58 320.127 Q79.6819 318.345 76.3254 318.345 M71.6495 316.354 Q68.6402 315.613 66.9504 313.553 Q65.2838 311.493 65.2838 308.53 Q65.2838 304.386 68.2236 301.979 Q71.1865 299.571 76.3254 299.571 Q81.4874 299.571 84.4272 301.979 Q87.367 304.386 87.367 308.53 Q87.367 311.493 85.6772 313.553 Q84.0105 315.613 81.0244 316.354 Q84.404 317.141 86.279 319.432 Q88.1772 321.724 88.1772 325.034 Q88.1772 330.057 85.0985 332.743 Q82.0429 335.428 76.3254 335.428 Q70.6078 335.428 67.5291 332.743 Q64.4736 330.057 64.4736 325.034 Q64.4736 321.724 66.3717 319.432 Q68.2699 317.141 71.6495 316.354 M69.9365 308.97 Q69.9365 311.655 71.6032 313.159 Q73.293 314.664 76.3254 314.664 Q79.3346 314.664 81.0244 313.159 Q82.7374 311.655 82.7374 308.97 Q82.7374 306.284 81.0244 304.78 Q79.3346 303.275 76.3254 303.275 Q73.293 303.275 71.6032 304.78 Q69.9365 306.284 69.9365 308.97 Z" fill="#000000" fill-rule="evenodd" fill-opacity="1" /><path clip-path="url(#clip990)" d="M 0 0 M103.247 303.275 Q99.6354 303.275 97.8068 306.84 Q96.0012 310.382 96.0012 317.511 Q96.0012 324.618 97.8068 328.182 Q99.6354 331.724 103.247 331.724 Q106.881 331.724 108.686 328.182 Q110.515 324.618 110.515 317.511 Q110.515 310.382 108.686 306.84 Q106.881 303.275 103.247 303.275 M103.247 299.571 Q109.057 299.571 112.112 304.178 Q115.191 308.761 115.191 317.511 Q115.191 326.238 112.112 330.844 Q109.057 335.428 103.247 335.428 Q97.4364 335.428 94.3577 330.844 Q91.3022 326.238 91.3022 317.511 Q91.3022 308.761 94.3577 304.178 Q97.4364 299.571 103.247 299.571 Z" fill="#000000" fill-rule="evenodd" fill-opacity="1" /><path clip-path="url(#clip990)" d="M 0 0 M130.26 303.275 Q126.649 303.275 124.82 306.84 Q123.015 310.382 123.015 317.511 Q123.015 324.618 124.82 328.182 Q126.649 331.724 130.26 331.724 Q133.895 331.724 135.7 328.182 Q137.529 324.618 137.529 317.511 Q137.529 310.382 135.7 306.84 Q133.895 303.275 130.26 303.275 M130.26 299.571 Q136.07 299.571 139.126 304.178 Q142.205 308.761 142.205 317.511 Q142.205 326.238 139.126 330.844 Q136.07 335.428 130.26 335.428 Q124.45 335.428 121.371 330.844 Q118.316 326.238 118.316 317.511 Q118.316 308.761 121.371 304.178 Q124.45 299.571 130.26 299.571 Z" fill="#000000" fill-rule="evenodd" fill-opacity="1" /><path clip-path="url(#clip990)" d="M 0 0 M1183.67 18.8205 L1183.67 65.8515 L1193.55 65.8515 Q1206.07 65.8515 1211.86 60.1802 Q1217.7 54.509 1217.7 42.2752 Q1217.7 30.1225 1211.86 24.4918 Q1206.07 18.8205 1193.55 18.8205 L1183.67 18.8205 M1175.48 12.096 L1192.3 12.096 Q1209.88 12.096 1218.1 19.4281 Q1226.32 26.7198 1226.32 42.2752 Q1226.32 57.9117 1218.06 65.2439 Q1209.8 72.576 1192.3 72.576 L1175.48 72.576 L1175.48 12.096 Z" fill="#000000" fill-rule="evenodd" fill-opacity="1" /><path clip-path="url(#clip990)" d="M 0 0 M1254.76 49.7694 Q1245.73 49.7694 1242.24 51.8354 Q1238.76 53.9013 1238.76 58.8839 Q1238.76 62.8538 1241.35 65.2034 Q1243.99 67.5124 1248.48 67.5124 Q1254.68 67.5124 1258.41 63.1374 Q1262.17 58.7219 1262.17 51.4303 L1262.17 49.7694 L1254.76 49.7694 M1269.63 46.6907 L1269.63 72.576 L1262.17 72.576 L1262.17 65.6895 Q1259.62 69.8214 1255.81 71.8063 Q1252.01 73.7508 1246.5 73.7508 Q1239.53 73.7508 1235.4 69.8619 Q1231.31 65.9325 1231.31 59.3701 Q1231.31 51.7138 1236.41 47.825 Q1241.56 43.9361 1251.72 43.9361 L1262.17 43.9361 L1262.17 43.2069 Q1262.17 38.0623 1258.77 35.2672 Q1255.41 32.4315 1249.29 32.4315 Q1245.4 32.4315 1241.72 33.3632 Q1238.03 34.295 1234.63 36.1584 L1234.63 29.2718 Q1238.72 27.692 1242.57 26.9223 Q1246.42 26.1121 1250.06 26.1121 Q1259.91 26.1121 1264.77 31.2163 Q1269.63 36.3204 1269.63 46.6907 Z" fill="#000000" fill-rule="evenodd" fill-opacity="1" /><path clip-path="url(#clip990)" d="M 0 0 M1284.82 14.324 L1284.82 27.2059 L1300.17 27.2059 L1300.17 32.9987 L1284.82 32.9987 L1284.82 57.6282 Q1284.82 63.1779 1286.32 64.7578 Q1287.86 66.3376 1292.52 66.3376 L1300.17 66.3376 L1300.17 72.576 L1292.52 72.576 Q1283.89 72.576 1280.61 69.3758 Q1277.32 66.1351 1277.32 57.6282 L1277.32 32.9987 L1271.86 32.9987 L1271.86 27.2059 L1277.32 27.2059 L1277.32 14.324 L1284.82 14.324 Z" fill="#000000" fill-rule="evenodd" fill-opacity="1" /><path clip-path="url(#clip990)" d="M 0 0 M1328.61 49.7694 Q1319.58 49.7694 1316.09 51.8354 Q1312.61 53.9013 1312.61 58.8839 Q1312.61 62.8538 1315.2 65.2034 Q1317.83 67.5124 1322.33 67.5124 Q1328.53 67.5124 1332.25 63.1374 Q1336.02 58.7219 1336.02 51.4303 L1336.02 49.7694 L1328.61 49.7694 M1343.48 46.6907 L1343.48 72.576 L1336.02 72.576 L1336.02 65.6895 Q1333.47 69.8214 1329.66 71.8063 Q1325.85 73.7508 1320.35 73.7508 Q1313.38 73.7508 1309.25 69.8619 Q1305.15 65.9325 1305.15 59.3701 Q1305.15 51.7138 1310.26 47.825 Q1315.4 43.9361 1325.57 43.9361 L1336.02 43.9361 L1336.02 43.2069 Q1336.02 38.0623 1332.62 35.2672 Q1329.26 32.4315 1323.14 32.4315 Q1319.25 32.4315 1315.57 33.3632 Q1311.88 34.295 1308.48 36.1584 L1308.48 29.2718 Q1312.57 27.692 1316.42 26.9223 Q1320.26 26.1121 1323.91 26.1121 Q1333.75 26.1121 1338.61 31.2163 Q1343.48 36.3204 1343.48 46.6907 Z" fill="#000000" fill-rule="evenodd" fill-opacity="1" /><polyline clip-path="url(#clip992)" style="stroke:#009af9; stroke-width:4; stroke-opacity:1; fill:none" points="
  228.088,1447.87 228.088,1363.09 262.468,1363.09 262.468,1306.57 296.848,1306.57 296.848,1278.31 331.227,1278.31 331.227,1179.4 365.607,1179.4 365.607,1221.79 
  399.987,1221.79 399.987,1151.14 434.367,1151.14 434.367,939.195 468.746,939.195 468.746,840.285 503.126,840.285 503.126,1023.97 537.506,1023.97 537.506,713.115 
  571.886,713.115 571.886,981.584 606.265,981.584 606.265,812.025 640.645,812.025 640.645,1023.97 675.025,1023.97 675.025,1038.1 709.405,1038.1 709.405,1023.97 
  743.784,1023.97 743.784,1108.75 778.164,1108.75 778.164,1278.31 812.544,1278.31 812.544,1306.57 846.923,1306.57 846.923,1264.18 881.303,1264.18 881.303,1363.09 
  915.683,1363.09 950.063,1363.09 950.063,1405.48 984.442,1405.48 984.442,1447.87 1018.82,1447.87 1018.82,1419.61 1053.2,1419.61 
  1087.58,1419.61 1087.58,1447.87 1121.96,1447.87 1121.96,1405.48 1156.34,1405.48 1190.72,1405.48 1190.72,1419.61 1225.1,1419.61 1225.1,1250.05 
  1259.48,1250.05 1259.48,1221.79 1293.86,1221.79 1328.24,1221.79 1328.24,1094.62 1362.62,1094.62 1362.62,967.455 1397,967.455 1397,783.765 
  1431.38,783.765 1431.38,755.505 1465.76,755.505 1465.76,600.076 1500.14,600.076 1500.14,472.906 1534.52,472.906 1534.52,303.346 1568.9,303.346 1568.9,388.126 
  1603.28,388.126 1603.28,162.047 1637.66,162.047 1637.66,501.166 1672.04,501.166 1672.04,458.776 1706.42,458.776 1706.42,698.985 1740.8,698.985 1740.8,557.686 
  1775.18,557.686 1775.18,769.635 1809.56,769.635 1809.56,896.805 1843.94,896.805 1843.94,1122.88 1878.32,1122.88 1878.32,1264.18 1912.7,1264.18 1912.7,1250.05 
  1947.08,1250.05 1947.08,1278.31 1981.45,1278.31 1981.45,1363.09 2015.83,1363.09 2015.83,1405.48 2050.21,1405.48 2050.21,1433.74 2084.59,1433.74 
  2118.97,1433.74 2118.97,1447.87 2153.35,1447.87 2187.73,1447.87 2222.11,1447.87 2256.49,1447.87 
  2290.87,1447.87 
  "/>
<path clip-path="url(#clip990)" d="
M1944.76 327.952 L2280.76 327.952 L2280.76 206.992 L1944.76 206.992  Z
  " fill="#ffffff" fill-rule="evenodd" fill-opacity="1"/>
<polyline clip-path="url(#clip990)" style="stroke:#000000; stroke-width:4; stroke-opacity:1; fill:none" points="
  1944.76,327.952 2280.76,327.952 2280.76,206.992 1944.76,206.992 1944.76,327.952 
  "/>
<polyline clip-path="url(#clip990)" style="stroke:#009af9; stroke-width:4; stroke-opacity:1; fill:none" points="
  1968.76,267.472 2112.76,267.472 
  "/>
<path clip-path="url(#clip990)" d="M 0 0 M2141.44 254.035 L2141.44 280.91 L2147.09 280.91 Q2154.24 280.91 2157.55 277.669 Q2160.88 274.428 2160.88 267.437 Q2160.88 260.493 2157.55 257.275 Q2154.24 254.035 2147.09 254.035 L2141.44 254.035 M2136.76 250.192 L2146.37 250.192 Q2156.41 250.192 2161.11 254.382 Q2165.81 258.549 2165.81 267.437 Q2165.81 276.373 2161.09 280.562 Q2156.37 284.752 2146.37 284.752 L2136.76 284.752 L2136.76 250.192 Z" fill="#000000" fill-rule="evenodd" fill-opacity="1" /><path clip-path="url(#clip990)" d="M 0 0 M2182.06 271.72 Q2176.9 271.72 2174.91 272.9 Q2172.92 274.081 2172.92 276.928 Q2172.92 279.197 2174.4 280.539 Q2175.9 281.859 2178.47 281.859 Q2182.02 281.859 2184.15 279.359 Q2186.3 276.836 2186.3 272.669 L2186.3 271.72 L2182.06 271.72 M2190.56 269.961 L2190.56 284.752 L2186.3 284.752 L2186.3 280.817 Q2184.84 283.178 2182.66 284.312 Q2180.49 285.423 2177.34 285.423 Q2173.36 285.423 2171 283.201 Q2168.66 280.956 2168.66 277.206 Q2168.66 272.831 2171.58 270.609 Q2174.52 268.386 2180.33 268.386 L2186.3 268.386 L2186.3 267.97 Q2186.3 265.03 2184.35 263.433 Q2182.43 261.812 2178.94 261.812 Q2176.71 261.812 2174.61 262.345 Q2172.5 262.877 2170.56 263.942 L2170.56 260.007 Q2172.9 259.104 2175.09 258.664 Q2177.29 258.201 2179.38 258.201 Q2185 258.201 2187.78 261.118 Q2190.56 264.035 2190.56 269.961 Z" fill="#000000" fill-rule="evenodd" fill-opacity="1" /><path clip-path="url(#clip990)" d="M 0 0 M2199.24 251.465 L2199.24 258.826 L2208.01 258.826 L2208.01 262.137 L2199.24 262.137 L2199.24 276.211 Q2199.24 279.382 2200.09 280.285 Q2200.97 281.187 2203.64 281.187 L2208.01 281.187 L2208.01 284.752 L2203.64 284.752 Q2198.71 284.752 2196.83 282.923 Q2194.96 281.072 2194.96 276.211 L2194.96 262.137 L2191.83 262.137 L2191.83 258.826 L2194.96 258.826 L2194.96 251.465 L2199.24 251.465 Z" fill="#000000" fill-rule="evenodd" fill-opacity="1" /><path clip-path="url(#clip990)" d="M 0 0 M2224.26 271.72 Q2219.1 271.72 2217.11 272.9 Q2215.12 274.081 2215.12 276.928 Q2215.12 279.197 2216.6 280.539 Q2218.1 281.859 2220.67 281.859 Q2224.21 281.859 2226.34 279.359 Q2228.5 276.836 2228.5 272.669 L2228.5 271.72 L2224.26 271.72 M2232.76 269.961 L2232.76 284.752 L2228.5 284.752 L2228.5 280.817 Q2227.04 283.178 2224.86 284.312 Q2222.69 285.423 2219.54 285.423 Q2215.56 285.423 2213.2 283.201 Q2210.86 280.956 2210.86 277.206 Q2210.86 272.831 2213.77 270.609 Q2216.71 268.386 2222.52 268.386 L2228.5 268.386 L2228.5 267.97 Q2228.5 265.03 2226.55 263.433 Q2224.63 261.812 2221.14 261.812 Q2218.91 261.812 2216.81 262.345 Q2214.7 262.877 2212.76 263.942 L2212.76 260.007 Q2215.09 259.104 2217.29 258.664 Q2219.49 258.201 2221.58 258.201 Q2227.2 258.201 2229.98 261.118 Q2232.76 264.035 2232.76 269.961 Z" fill="#000000" fill-rule="evenodd" fill-opacity="1" /></svg>
