<?xml version="1.0" encoding="utf-8"?>
<svg xmlns="http://www.w3.org/2000/svg" xmlns:xlink="http://www.w3.org/1999/xlink" width="600" height="400" viewBox="0 0 2400 1600">
<defs>
  <clipPath id="clip170">
    <rect x="0" y="0" width="2400" height="1600"/>
  </clipPath>
</defs>
<path clip-path="url(#clip170)" d="
M0 1600 L2400 1600 L2400 0 L0 0  Z
  " fill="#ffffff" fill-rule="evenodd" fill-opacity="1"/>
<defs>
  <clipPath id="clip171">
    <rect x="480" y="0" width="1681" height="1600"/>
  </clipPath>
</defs>
<path clip-path="url(#clip170)" d="
M166.205 1486.45 L2352.76 1486.45 L2352.76 123.472 L166.205 123.472  Z
  " fill="#ffffff" fill-rule="evenodd" fill-opacity="1"/>
<defs>
  <clipPath id="clip172">
    <rect x="166" y="123" width="2188" height="1364"/>
  </clipPath>
</defs>
<polyline clip-path="url(#clip172)" style="stroke:#000000; stroke-width:2; stroke-opacity:0.1; fill:none" points="
  228.088,1486.45 228.088,123.472 
  "/>
<polyline clip-path="url(#clip172)" style="stroke:#000000; stroke-width:2; stroke-opacity:0.1; fill:none" points="
  571.886,1486.45 571.886,123.472 
  "/>
<polyline clip-path="url(#clip172)" style="stroke:#000000; stroke-width:2; stroke-opacity:0.1; fill:none" points="
  915.683,1486.45 915.683,123.472 
  "/>
<polyline clip-path="url(#clip172)" style="stroke:#000000; stroke-width:2; stroke-opacity:0.1; fill:none" points="
  1259.48,1486.45 1259.48,123.472 
  "/>
<polyline clip-path="url(#clip172)" style="stroke:#000000; stroke-width:2; stroke-opacity:0.1; fill:none" points="
  1603.28,1486.45 1603.28,123.472 
  "/>
<polyline clip-path="url(#clip172)" style="stroke:#000000; stroke-width:2; stroke-opacity:0.1; fill:none" points="
  1947.08,1486.45 1947.08,123.472 
  "/>
<polyline clip-path="url(#clip172)" style="stroke:#000000; stroke-width:2; stroke-opacity:0.1; fill:none" points="
  2290.87,1486.45 2290.87,123.472 
  "/>
<polyline clip-path="url(#clip170)" style="stroke:#000000; stroke-width:4; stroke-opacity:1; fill:none" points="
  166.205,1486.45 2352.76,1486.45 
  "/>
<polyline clip-path="url(#clip170)" style="stroke:#000000; stroke-width:4; stroke-opacity:1; fill:none" points="
  228.088,1486.45 228.088,1470.09 
  "/>
<polyline clip-path="url(#clip170)" style="stroke:#000000; stroke-width:4; stroke-opacity:1; fill:none" points="
  571.886,1486.45 571.886,1470.09 
  "/>
<polyline clip-path="url(#clip170)" style="stroke:#000000; stroke-width:4; stroke-opacity:1; fill:none" points="
  915.683,1486.45 915.683,1470.09 
  "/>
<polyline clip-path="url(#clip170)" style="stroke:#000000; stroke-width:4; stroke-opacity:1; fill:none" points="
  1259.48,1486.45 1259.48,1470.09 
  "/>
<polyline clip-path="url(#clip170)" style="stroke:#000000; stroke-width:4; stroke-opacity:1; fill:none" points="
  1603.28,1486.45 1603.28,1470.09 
  "/>
<polyline clip-path="url(#clip170)" style="stroke:#000000; stroke-width:4; stroke-opacity:1; fill:none" points="
  1947.08,1486.45 1947.08,1470.09 
  "/>
<polyline clip-path="url(#clip170)" style="stroke:#000000; stroke-width:4; stroke-opacity:1; fill:none" points="
  2290.87,1486.45 2290.87,1470.09 
  "/>
<path clip-path="url(#clip170)" d="M 0 0 M200.542 1530.29 L230.218 1530.29 L230.218 1534.23 L200.542 1534.23 L200.542 1530.29 Z" fill="#000000" fill-rule="evenodd" fill-opacity="1" /><path clip-path="url(#clip170)" d="M 0 0 M239.315 1543.18 L255.634 1543.18 L255.634 1547.12 L233.69 1547.12 L233.69 1543.18 Q236.352 1540.43 240.935 1535.8 Q245.542 1531.15 246.722 1529.81 Q248.968 1527.28 249.847 1525.55 Q250.75 1523.79 250.75 1522.1 Q250.75 1519.34 248.806 1517.61 Q246.884 1515.87 243.783 1515.87 Q241.583 1515.87 239.13 1516.63 Q236.699 1517.4 233.921 1518.95 L233.921 1514.23 Q236.746 1513.09 239.199 1512.51 Q241.653 1511.93 243.69 1511.93 Q249.06 1511.93 252.255 1514.62 Q255.449 1517.31 255.449 1521.8 Q255.449 1523.93 254.639 1525.85 Q253.852 1527.74 251.745 1530.34 Q251.167 1531.01 248.065 1534.23 Q244.963 1537.42 239.315 1543.18 Z" fill="#000000" fill-rule="evenodd" fill-opacity="1" /><path clip-path="url(#clip170)" d="M 0 0 M544.154 1530.29 L573.83 1530.29 L573.83 1534.23 L544.154 1534.23 L544.154 1530.29 Z" fill="#000000" fill-rule="evenodd" fill-opacity="1" /><path clip-path="url(#clip170)" d="M 0 0 M579.71 1543.18 L587.348 1543.18 L587.348 1516.82 L579.038 1518.49 L579.038 1514.23 L587.302 1512.56 L591.978 1512.56 L591.978 1543.18 L599.617 1543.18 L599.617 1547.12 L579.71 1547.12 L579.71 1543.18 Z" fill="#000000" fill-rule="evenodd" fill-opacity="1" /><path clip-path="url(#clip170)" d="M 0 0 M915.683 1515.64 Q912.072 1515.64 910.243 1519.2 Q908.438 1522.75 908.438 1529.87 Q908.438 1536.98 910.243 1540.55 Q912.072 1544.09 915.683 1544.09 Q919.317 1544.09 921.123 1540.55 Q922.951 1536.98 922.951 1529.87 Q922.951 1522.75 921.123 1519.2 Q919.317 1515.64 915.683 1515.64 M915.683 1511.93 Q921.493 1511.93 924.549 1516.54 Q927.627 1521.12 927.627 1529.87 Q927.627 1538.6 924.549 1543.21 Q921.493 1547.79 915.683 1547.79 Q909.873 1547.79 906.794 1543.21 Q903.739 1538.6 903.739 1529.87 Q903.739 1521.12 906.794 1516.54 Q909.873 1511.93 915.683 1511.93 Z" fill="#000000" fill-rule="evenodd" fill-opacity="1" /><path clip-path="url(#clip170)" d="M 0 0 M1249.86 1543.18 L1257.5 1543.18 L1257.5 1516.82 L1249.19 1518.49 L1249.19 1514.23 L1257.45 1512.56 L1262.13 1512.56 L1262.13 1543.18 L1269.77 1543.18 L1269.77 1547.12 L1249.86 1547.12 L1249.86 1543.18 Z" fill="#000000" fill-rule="evenodd" fill-opacity="1" /><path clip-path="url(#clip170)" d="M 0 0 M1597.93 1543.18 L1614.25 1543.18 L1614.25 1547.12 L1592.31 1547.12 L1592.31 1543.18 Q1594.97 1540.43 1599.55 1535.8 Q1604.16 1531.15 1605.34 1529.81 Q1607.58 1527.28 1608.46 1525.55 Q1609.37 1523.79 1609.37 1522.1 Q1609.37 1519.34 1607.42 1517.61 Q1605.5 1515.87 1602.4 1515.87 Q1600.2 1515.87 1597.75 1516.63 Q1595.31 1517.4 1592.54 1518.95 L1592.54 1514.23 Q1595.36 1513.09 1597.81 1512.51 Q1600.27 1511.93 1602.31 1511.93 Q1607.68 1511.93 1610.87 1514.62 Q1614.06 1517.31 1614.06 1521.8 Q1614.06 1523.93 1613.25 1525.85 Q1612.47 1527.74 1610.36 1530.34 Q1609.78 1531.01 1606.68 1534.23 Q1603.58 1537.42 1597.93 1543.18 Z" fill="#000000" fill-rule="evenodd" fill-opacity="1" /><path clip-path="url(#clip170)" d="M 0 0 M1951.32 1528.49 Q1954.68 1529.2 1956.55 1531.47 Q1958.45 1533.74 1958.45 1537.07 Q1958.45 1542.19 1954.93 1544.99 Q1951.42 1547.79 1944.93 1547.79 Q1942.76 1547.79 1940.44 1547.35 Q1938.15 1546.93 1935.7 1546.08 L1935.7 1541.56 Q1937.64 1542.7 1939.96 1543.28 Q1942.27 1543.86 1944.79 1543.86 Q1949.19 1543.86 1951.48 1542.12 Q1953.8 1540.38 1953.8 1537.07 Q1953.8 1534.02 1951.65 1532.31 Q1949.52 1530.57 1945.7 1530.57 L1941.67 1530.57 L1941.67 1526.73 L1945.88 1526.73 Q1949.33 1526.73 1951.16 1525.36 Q1952.99 1523.97 1952.99 1521.38 Q1952.99 1518.72 1951.09 1517.31 Q1949.22 1515.87 1945.7 1515.87 Q1943.78 1515.87 1941.58 1516.29 Q1939.38 1516.7 1936.74 1517.58 L1936.74 1513.42 Q1939.4 1512.68 1941.72 1512.31 Q1944.05 1511.93 1946.11 1511.93 Q1951.44 1511.93 1954.54 1514.37 Q1957.64 1516.77 1957.64 1520.89 Q1957.64 1523.76 1956 1525.75 Q1954.36 1527.72 1951.32 1528.49 Z" fill="#000000" fill-rule="evenodd" fill-opacity="1" /><path clip-path="url(#clip170)" d="M 0 0 M2293.88 1516.63 L2282.08 1535.08 L2293.88 1535.08 L2293.88 1516.63 M2292.65 1512.56 L2298.53 1512.56 L2298.53 1535.08 L2303.46 1535.08 L2303.46 1538.97 L2298.53 1538.97 L2298.53 1547.12 L2293.88 1547.12 L2293.88 1538.97 L2278.28 1538.97 L2278.28 1534.46 L2292.65 1512.56 Z" fill="#000000" fill-rule="evenodd" fill-opacity="1" /><polyline clip-path="url(#clip172)" style="stroke:#000000; stroke-width:2; stroke-opacity:0.1; fill:none" points="
  166.205,1447.87 2352.76,1447.87 
  "/>
<polyline clip-path="url(#clip172)" style="stroke:#000000; stroke-width:2; stroke-opacity:0.1; fill:none" points="
  166.205,1141.72 2352.76,1141.72 
  "/>
<polyline clip-path="url(#clip172)" style="stroke:#000000; stroke-width:2; stroke-opacity:0.1; fill:none" points="
  166.205,835.575 2352.76,835.575 
  "/>
<polyline clip-path="url(#clip172)" style="stroke:#000000; stroke-width:2; stroke-opacity:0.1; fill:none" points="
  166.205,529.426 2352.76,529.426 
  "/>
<polyline clip-path="url(#clip172)" style="stroke:#000000; stroke-width:2; stroke-opacity:0.1; fill:none" points="
  166.205,223.277 2352.76,223.277 
  "/>
<polyline clip-path="url(#clip170)" style="stroke:#000000; stroke-width:4; stroke-opacity:1; fill:none" points="
  166.205,1486.45 166.205,123.472 
  "/>
<polyline clip-path="url(#clip170)" style="stroke:#000000; stroke-width:4; stroke-opacity:1; fill:none" points="
  166.205,1447.87 192.443,1447.87 
  "/>
<polyline clip-path="url(#clip170)" style="stroke:#000000; stroke-width:4; stroke-opacity:1; fill:none" points="
  166.205,1141.72 192.443,1141.72 
  "/>
<polyline clip-path="url(#clip170)" style="stroke:#000000; stroke-width:4; stroke-opacity:1; fill:none" points="
  166.205,835.575 192.443,835.575 
  "/>
<polyline clip-path="url(#clip170)" style="stroke:#000000; stroke-width:4; stroke-opacity:1; fill:none" points="
  166.205,529.426 192.443,529.426 
  "/>
<polyline clip-path="url(#clip170)" style="stroke:#000000; stroke-width:4; stroke-opacity:1; fill:none" points="
  166.205,223.277 192.443,223.277 
  "/>
<path clip-path="url(#clip170)" d="M 0 0 M118.26 1433.67 Q114.649 1433.67 112.82 1437.24 Q111.015 1440.78 111.015 1447.91 Q111.015 1455.01 112.82 1458.58 Q114.649 1462.12 118.26 1462.12 Q121.895 1462.12 123.7 1458.58 Q125.529 1455.01 125.529 1447.91 Q125.529 1440.78 123.7 1437.24 Q121.895 1433.67 118.26 1433.67 M118.26 1429.97 Q124.07 1429.97 127.126 1434.57 Q130.205 1439.16 130.205 1447.91 Q130.205 1456.63 127.126 1461.24 Q124.07 1465.82 118.26 1465.82 Q112.45 1465.82 109.371 1461.24 Q106.316 1456.63 106.316 1447.91 Q106.316 1439.16 109.371 1434.57 Q112.45 1429.97 118.26 1429.97 Z" fill="#000000" fill-rule="evenodd" fill-opacity="1" /><path clip-path="url(#clip170)" d="M 0 0 M59.8578 1155.07 L76.1772 1155.07 L76.1772 1159 L54.2328 1159 L54.2328 1155.07 Q56.8949 1152.31 61.4782 1147.68 Q66.0846 1143.03 67.2652 1141.69 Q69.5105 1139.17 70.3902 1137.43 Q71.2929 1135.67 71.2929 1133.98 Q71.2929 1131.23 69.3485 1129.49 Q67.4272 1127.75 64.3254 1127.75 Q62.1263 1127.75 59.6726 1128.52 Q57.2421 1129.28 54.4643 1130.83 L54.4643 1126.11 Q57.2884 1124.98 59.7421 1124.4 Q62.1958 1123.82 64.2328 1123.82 Q69.6031 1123.82 72.7976 1126.5 Q75.992 1129.19 75.992 1133.68 Q75.992 1135.81 75.1818 1137.73 Q74.3948 1139.63 72.2883 1142.22 Q71.7096 1142.89 68.6078 1146.11 Q65.5059 1149.3 59.8578 1155.07 Z" fill="#000000" fill-rule="evenodd" fill-opacity="1" /><path clip-path="url(#clip170)" d="M 0 0 M91.2465 1127.52 Q87.6354 1127.52 85.8068 1131.09 Q84.0012 1134.63 84.0012 1141.76 Q84.0012 1148.87 85.8068 1152.43 Q87.6354 1155.97 91.2465 1155.97 Q94.8808 1155.97 96.6863 1152.43 Q98.515 1148.87 98.515 1141.76 Q98.515 1134.63 96.6863 1131.09 Q94.8808 1127.52 91.2465 1127.52 M91.2465 1123.82 Q97.0567 1123.82 100.112 1128.43 Q103.191 1133.01 103.191 1141.76 Q103.191 1150.49 100.112 1155.09 Q97.0567 1159.68 91.2465 1159.68 Q85.4364 1159.68 82.3577 1155.09 Q79.3022 1150.49 79.3022 1141.76 Q79.3022 1133.01 82.3577 1128.43 Q85.4364 1123.82 91.2465 1123.82 Z" fill="#000000" fill-rule="evenodd" fill-opacity="1" /><path clip-path="url(#clip170)" d="M 0 0 M118.26 1127.52 Q114.649 1127.52 112.82 1131.09 Q111.015 1134.63 111.015 1141.76 Q111.015 1148.87 112.82 1152.43 Q114.649 1155.97 118.26 1155.97 Q121.895 1155.97 123.7 1152.43 Q125.529 1148.87 125.529 1141.76 Q125.529 1134.63 123.7 1131.09 Q121.895 1127.52 118.26 1127.52 M118.26 1123.82 Q124.07 1123.82 127.126 1128.43 Q130.205 1133.01 130.205 1141.76 Q130.205 1150.49 127.126 1155.09 Q124.07 1159.68 118.26 1159.68 Q112.45 1159.68 109.371 1155.09 Q106.316 1150.49 106.316 1141.76 Q106.316 1133.01 109.371 1128.43 Q112.45 1123.82 118.26 1123.82 Z" fill="#000000" fill-rule="evenodd" fill-opacity="1" /><path clip-path="url(#clip170)" d="M 0 0 M66.5939 822.369 L54.7884 840.818 L66.5939 840.818 L66.5939 822.369 M65.367 818.295 L71.2466 818.295 L71.2466 840.818 L76.1772 840.818 L76.1772 844.707 L71.2466 844.707 L71.2466 852.855 L66.5939 852.855 L66.5939 844.707 L50.9921 844.707 L50.9921 840.193 L65.367 818.295 Z" fill="#000000" fill-rule="evenodd" fill-opacity="1" /><path clip-path="url(#clip170)" d="M 0 0 M91.2465 821.374 Q87.6354 821.374 85.8068 824.938 Q84.0012 828.48 84.0012 835.61 Q84.0012 842.716 85.8068 846.281 Q87.6354 849.823 91.2465 849.823 Q94.8808 849.823 96.6863 846.281 Q98.515 842.716 98.515 835.61 Q98.515 828.48 96.6863 824.938 Q94.8808 821.374 91.2465 821.374 M91.2465 817.67 Q97.0567 817.67 100.112 822.276 Q103.191 826.86 103.191 835.61 Q103.191 844.336 100.112 848.943 Q97.0567 853.526 91.2465 853.526 Q85.4364 853.526 82.3577 848.943 Q79.3022 844.336 79.3022 835.61 Q79.3022 826.86 82.3577 822.276 Q85.4364 817.67 91.2465 817.67 Z" fill="#000000" fill-rule="evenodd" fill-opacity="1" /><path clip-path="url(#clip170)" d="M 0 0 M118.26 821.374 Q114.649 821.374 112.82 824.938 Q111.015 828.48 111.015 835.61 Q111.015 842.716 112.82 846.281 Q114.649 849.823 118.26 849.823 Q121.895 849.823 123.7 846.281 Q125.529 842.716 125.529 835.61 Q125.529 828.48 123.7 824.938 Q121.895 821.374 118.26 821.374 M118.26 817.67 Q124.07 817.67 127.126 822.276 Q130.205 826.86 130.205 835.61 Q130.205 844.336 127.126 848.943 Q124.07 853.526 118.26 853.526 Q112.45 853.526 109.371 848.943 Q106.316 844.336 106.316 835.61 Q106.316 826.86 109.371 822.276 Q112.45 817.67 118.26 817.67 Z" fill="#000000" fill-rule="evenodd" fill-opacity="1" /><path clip-path="url(#clip170)" d="M 0 0 M64.6495 527.562 Q61.5013 527.562 59.6495 529.715 Q57.8208 531.868 57.8208 535.618 Q57.8208 539.345 59.6495 541.521 Q61.5013 543.673 64.6495 543.673 Q67.7976 543.673 69.6263 541.521 Q71.4781 539.345 71.4781 535.618 Q71.4781 531.868 69.6263 529.715 Q67.7976 527.562 64.6495 527.562 M73.9318 512.91 L73.9318 517.169 Q72.1726 516.336 70.367 515.896 Q68.5846 515.456 66.8254 515.456 Q62.1958 515.456 59.7421 518.581 Q57.3115 521.706 56.9643 528.025 Q58.33 526.011 60.3902 524.947 Q62.4504 523.859 64.9272 523.859 Q70.1355 523.859 73.1448 527.03 Q76.1772 530.178 76.1772 535.618 Q76.1772 540.942 73.029 544.16 Q69.8809 547.377 64.6495 547.377 Q58.6541 547.377 55.4828 542.794 Q52.3116 538.187 52.3116 529.461 Q52.3116 521.266 56.2004 516.405 Q60.0893 511.521 66.6402 511.521 Q68.3994 511.521 70.1818 511.868 Q71.9874 512.215 73.9318 512.91 Z" fill="#000000" fill-rule="evenodd" fill-opacity="1" /><path clip-path="url(#clip170)" d="M 0 0 M91.2465 515.225 Q87.6354 515.225 85.8068 518.789 Q84.0012 522.331 84.0012 529.461 Q84.0012 536.567 85.8068 540.132 Q87.6354 543.673 91.2465 543.673 Q94.8808 543.673 96.6863 540.132 Q98.515 536.567 98.515 529.461 Q98.515 522.331 96.6863 518.789 Q94.8808 515.225 91.2465 515.225 M91.2465 511.521 Q97.0567 511.521 100.112 516.127 Q103.191 520.711 103.191 529.461 Q103.191 538.187 100.112 542.794 Q97.0567 547.377 91.2465 547.377 Q85.4364 547.377 82.3577 542.794 Q79.3022 538.187 79.3022 529.461 Q79.3022 520.711 82.3577 516.127 Q85.4364 511.521 91.2465 511.521 Z" fill="#000000" fill-rule="evenodd" fill-opacity="1" /><path clip-path="url(#clip170)" d="M 0 0 M118.26 515.225 Q114.649 515.225 112.82 518.789 Q111.015 522.331 111.015 529.461 Q111.015 536.567 112.82 540.132 Q114.649 543.673 118.26 543.673 Q121.895 543.673 123.7 540.132 Q125.529 536.567 125.529 529.461 Q125.529 522.331 123.7 518.789 Q121.895 515.225 118.26 515.225 M118.26 511.521 Q124.07 511.521 127.126 516.127 Q130.205 520.711 130.205 529.461 Q130.205 538.187 127.126 542.794 Q124.07 547.377 118.26 547.377 Q112.45 547.377 109.371 542.794 Q106.316 538.187 106.316 529.461 Q106.316 520.711 109.371 516.127 Q112.45 511.521 118.26 511.521 Z" fill="#000000" fill-rule="evenodd" fill-opacity="1" /><path clip-path="url(#clip170)" d="M 0 0 M64.3254 224.145 Q60.9921 224.145 59.0708 225.927 Q57.1726 227.71 57.1726 230.835 Q57.1726 233.96 59.0708 235.742 Q60.9921 237.524 64.3254 237.524 Q67.6587 237.524 69.58 235.742 Q71.5013 233.936 71.5013 230.835 Q71.5013 227.71 69.58 225.927 Q67.6819 224.145 64.3254 224.145 M59.6495 222.154 Q56.6402 221.413 54.9504 219.353 Q53.2838 217.293 53.2838 214.33 Q53.2838 210.187 56.2236 207.779 Q59.1865 205.372 64.3254 205.372 Q69.4874 205.372 72.4272 207.779 Q75.367 210.187 75.367 214.33 Q75.367 217.293 73.6772 219.353 Q72.0105 221.413 69.0244 222.154 Q72.404 222.941 74.279 225.233 Q76.1772 227.524 76.1772 230.835 Q76.1772 235.858 73.0985 238.543 Q70.0429 241.228 64.3254 241.228 Q58.6078 241.228 55.5291 238.543 Q52.4736 235.858 52.4736 230.835 Q52.4736 227.524 54.3717 225.233 Q56.2699 222.941 59.6495 222.154 M57.9365 214.77 Q57.9365 217.455 59.6032 218.96 Q61.293 220.464 64.3254 220.464 Q67.3346 220.464 69.0244 218.96 Q70.7374 217.455 70.7374 214.77 Q70.7374 212.085 69.0244 210.58 Q67.3346 209.075 64.3254 209.075 Q61.293 209.075 59.6032 210.58 Q57.9365 212.085 57.9365 214.77 Z" fill="#000000" fill-rule="evenodd" fill-opacity="1" /><path clip-path="url(#clip170)" d="M 0 0 M91.2465 209.075 Q87.6354 209.075 85.8068 212.64 Q84.0012 216.182 84.0012 223.311 Q84.0012 230.418 85.8068 233.983 Q87.6354 237.524 91.2465 237.524 Q94.8808 237.524 96.6863 233.983 Q98.515 230.418 98.515 223.311 Q98.515 216.182 96.6863 212.64 Q94.8808 209.075 91.2465 209.075 M91.2465 205.372 Q97.0567 205.372 100.112 209.978 Q103.191 214.561 103.191 223.311 Q103.191 232.038 100.112 236.645 Q97.0567 241.228 91.2465 241.228 Q85.4364 241.228 82.3577 236.645 Q79.3022 232.038 79.3022 223.311 Q79.3022 214.561 82.3577 209.978 Q85.4364 205.372 91.2465 205.372 Z" fill="#000000" fill-rule="evenodd" fill-opacity="1" /><path clip-path="url(#clip170)" d="M 0 0 M118.26 209.075 Q114.649 209.075 112.82 212.64 Q111.015 216.182 111.015 223.311 Q111.015 230.418 112.82 233.983 Q114.649 237.524 118.26 237.524 Q121.895 237.524 123.7 233.983 Q125.529 230.418 125.529 223.311 Q125.529 216.182 123.7 212.64 Q121.895 209.075 118.26 209.075 M118.26 205.372 Q124.07 205.372 127.126 209.978 Q130.205 214.561 130.205 223.311 Q130.205 232.038 127.126 236.645 Q124.07 241.228 118.26 241.228 Q112.45 241.228 109.371 236.645 Q106.316 232.038 106.316 223.311 Q106.316 214.561 109.371 209.978 Q112.45 205.372 118.26 205.372 Z" fill="#000000" fill-rule="evenodd" fill-opacity="1" /><path clip-path="url(#clip170)" d="M 0 0 M1183.67 18.8205 L1183.67 65.8515 L1193.55 65.8515 Q1206.07 65.8515 1211.86 60.1802 Q1217.7 54.509 1217.7 42.2752 Q1217.7 30.1225 1211.86 24.4918 Q1206.07 18.8205 1193.55 18.8205 L1183.67 18.8205 M1175.48 12.096 L1192.3 12.096 Q1209.88 12.096 1218.1 19.4281 Q1226.32 26.7198 1226.32 42.2752 Q1226.32 57.9117 1218.06 65.2439 Q1209.8 72.576 1192.3 72.576 L1175.48 72.576 L1175.48 12.096 Z" fill="#000000" fill-rule="evenodd" fill-opacity="1" /><path clip-path="url(#clip170)" d="M 0 0 M1254.76 49.7694 Q1245.73 49.7694 1242.24 51.8354 Q1238.76 53.9013 1238.76 58.8839 Q1238.76 62.8538 1241.35 65.2034 Q1243.99 67.5124 1248.48 67.5124 Q1254.68 67.5124 1258.41 63.1374 Q1262.17 58.7219 1262.17 51.4303 L1262.17 49.7694 L1254.76 49.7694 M1269.63 46.6907 L1269.63 72.576 L1262.17 72.576 L1262.17 65.6895 Q1259.62 69.8214 1255.81 71.8063 Q1252.01 73.7508 1246.5 73.7508 Q1239.53 73.7508 1235.4 69.8619 Q1231.31 65.9325 1231.31 59.3701 Q1231.31 51.7138 1236.41 47.825 Q1241.56 43.9361 1251.72 43.9361 L1262.17 43.9361 L1262.17 43.2069 Q1262.17 38.0623 1258.77 35.2672 Q1255.41 32.4315 1249.29 32.4315 Q1245.4 32.4315 1241.72 33.3632 Q1238.03 34.295 1234.63 36.1584 L1234.63 29.2718 Q1238.72 27.692 1242.57 26.9223 Q1246.42 26.1121 1250.06 26.1121 Q1259.91 26.1121 1264.77 31.2163 Q1269.63 36.3204 1269.63 46.6907 Z" fill="#000000" fill-rule="evenodd" fill-opacity="1" /><path clip-path="url(#clip170)" d="M 0 0 M1284.82 14.324 L1284.82 27.2059 L1300.17 27.2059 L1300.17 32.9987 L1284.82 32.9987 L1284.82 57.6282 Q1284.82 63.1779 1286.32 64.7578 Q1287.86 66.3376 1292.52 66.3376 L1300.17 66.3376 L1300.17 72.576 L1292.52 72.576 Q1283.89 72.576 1280.61 69.3758 Q1277.32 66.1351 1277.32 57.6282 L1277.32 32.9987 L1271.86 32.9987 L1271.86 27.2059 L1277.32 27.2059 L1277.32 14.324 L1284.82 14.324 Z" fill="#000000" fill-rule="evenodd" fill-opacity="1" /><path clip-path="url(#clip170)" d="M 0 0 M1328.61 49.7694 Q1319.58 49.7694 1316.09 51.8354 Q1312.61 53.9013 1312.61 58.8839 Q1312.61 62.8538 1315.2 65.2034 Q1317.83 67.5124 1322.33 67.5124 Q1328.53 67.5124 1332.25 63.1374 Q1336.02 58.7219 1336.02 51.4303 L1336.02 49.7694 L1328.61 49.7694 M1343.48 46.6907 L1343.48 72.576 L1336.02 72.576 L1336.02 65.6895 Q1333.47 69.8214 1329.66 71.8063 Q1325.85 73.7508 1320.35 73.7508 Q1313.38 73.7508 1309.25 69.8619 Q1305.15 65.9325 1305.15 59.3701 Q1305.15 51.7138 1310.26 47.825 Q1315.4 43.9361 1325.57 43.9361 L1336.02 43.9361 L1336.02 43.2069 Q1336.02 38.0623 1332.62 35.2672 Q1329.26 32.4315 1323.14 32.4315 Q1319.25 32.4315 1315.57 33.3632 Q1311.88 34.295 1308.48 36.1584 L1308.48 29.2718 Q1312.57 27.692 1316.42 26.9223 Q1320.26 26.1121 1323.91 26.1121 Q1333.75 26.1121 1338.61 31.2163 Q1343.48 36.3204 1343.48 46.6907 Z" fill="#000000" fill-rule="evenodd" fill-opacity="1" /><polyline clip-path="url(#clip172)" style="stroke:#009af9; stroke-width:4; stroke-opacity:1; fill:none" points="
  228.088,1447.87 228.088,1371.34 262.468,1371.34 262.468,1356.03 296.848,1356.03 296.848,1310.11 331.227,1310.11 331.227,1126.42 365.607,1126.42 365.607,1111.11 
  399.987,1111.11 399.987,958.035 434.367,958.035 434.367,988.649 468.746,988.649 468.746,713.115 503.126,713.115 503.126,942.727 537.506,942.727 537.506,912.112 
  571.886,912.112 571.886,820.267 606.265,820.267 606.265,927.42 640.645,927.42 640.645,1034.57 675.025,1034.57 675.025,881.497 709.405,881.497 709.405,942.727 
  743.784,942.727 743.784,1095.8 778.164,1095.8 778.164,1157.03 812.544,1157.03 812.544,1294.8 846.923,1294.8 846.923,1386.64 881.303,1386.64 881.303,1371.34 
  915.683,1371.34 915.683,1310.11 950.063,1310.11 950.063,1401.95 984.442,1401.95 1018.82,1401.95 1018.82,1432.57 1053.2,1432.57 1053.2,1401.95 
  1087.58,1401.95 1087.58,1417.26 1121.96,1417.26 1121.96,1401.95 1156.34,1401.95 1156.34,1371.34 1190.72,1371.34 1190.72,1386.64 1225.1,1386.64 1225.1,1340.72 
  1259.48,1340.72 1259.48,1218.26 1293.86,1218.26 1293.86,1034.57 1328.24,1034.57 1328.24,1111.11 1362.62,1111.11 1362.62,896.805 1397,896.805 1397,728.423 
  1431.38,728.423 1431.38,866.19 1465.76,866.19 1465.76,483.503 1500.14,483.503 1500.14,330.429 1534.52,330.429 1534.52,162.047 1568.9,162.047 1568.9,406.966 
  1603.28,406.966 1603.28,269.199 1637.66,269.199 1637.66,162.047 1672.04,162.047 1672.04,330.429 1706.42,330.429 1706.42,483.503 1740.8,483.503 1740.8,590.656 
  1775.18,590.656 1775.18,850.882 1809.56,850.882 1809.56,973.342 1843.94,973.342 1843.94,1157.03 1878.32,1157.03 1878.32,1202.95 1912.7,1202.95 1912.7,1187.65 
  1947.08,1187.65 1947.08,1264.18 1981.45,1264.18 1981.45,1386.64 2015.83,1386.64 2050.21,1386.64 2084.59,1386.64 2084.59,1432.57 
  2118.97,1432.57 2118.97,1401.95 2153.35,1401.95 2153.35,1447.87 2187.73,1447.87 2222.11,1447.87 2256.49,1447.87 
  2290.87,1447.87 
  "/>
<path clip-path="url(#clip170)" d="
M1940.93 289.865 L2279.87 289.865 L2279.87 168.905 L1940.93 168.905  Z
  " fill="#ffffff" fill-rule="evenodd" fill-opacity="1"/>
<polyline clip-path="url(#clip170)" style="stroke:#000000; stroke-width:4; stroke-opacity:1; fill:none" points="
  1940.93,289.865 2279.87,289.865 2279.87,168.905 1940.93,168.905 1940.93,289.865 
  "/>
<polyline clip-path="url(#clip170)" style="stroke:#009af9; stroke-width:4; stroke-opacity:1; fill:none" points="
  1965.22,229.385 2110.99,229.385 
  "/>
<path clip-path="url(#clip170)" d="M 0 0 M2139.96 215.947 L2139.96 242.822 L2145.61 242.822 Q2152.76 242.822 2156.07 239.581 Q2159.41 236.341 2159.41 229.35 Q2159.41 222.406 2156.07 219.188 Q2152.76 215.947 2145.61 215.947 L2139.96 215.947 M2135.29 212.105 L2144.89 212.105 Q2154.94 212.105 2159.64 216.294 Q2164.34 220.461 2164.34 229.35 Q2164.34 238.285 2159.61 242.475 Q2154.89 246.665 2144.89 246.665 L2135.29 246.665 L2135.29 212.105 Z" fill="#000000" fill-rule="evenodd" fill-opacity="1" /><path clip-path="url(#clip170)" d="M 0 0 M2180.59 233.632 Q2175.42 233.632 2173.43 234.813 Q2171.44 235.993 2171.44 238.841 Q2171.44 241.109 2172.92 242.452 Q2174.43 243.771 2177 243.771 Q2180.54 243.771 2182.67 241.271 Q2184.82 238.748 2184.82 234.581 L2184.82 233.632 L2180.59 233.632 M2189.08 231.873 L2189.08 246.665 L2184.82 246.665 L2184.82 242.729 Q2183.36 245.091 2181.19 246.225 Q2179.01 247.336 2175.86 247.336 Q2171.88 247.336 2169.52 245.114 Q2167.18 242.868 2167.18 239.118 Q2167.18 234.743 2170.1 232.521 Q2173.04 230.299 2178.85 230.299 L2184.82 230.299 L2184.82 229.882 Q2184.82 226.943 2182.88 225.345 Q2180.96 223.725 2177.46 223.725 Q2175.24 223.725 2173.13 224.257 Q2171.03 224.79 2169.08 225.855 L2169.08 221.919 Q2171.42 221.017 2173.62 220.577 Q2175.82 220.114 2177.9 220.114 Q2183.53 220.114 2186.3 223.031 Q2189.08 225.947 2189.08 231.873 Z" fill="#000000" fill-rule="evenodd" fill-opacity="1" /><path clip-path="url(#clip170)" d="M 0 0 M2197.76 213.378 L2197.76 220.739 L2206.54 220.739 L2206.54 224.049 L2197.76 224.049 L2197.76 238.123 Q2197.76 241.294 2198.62 242.197 Q2199.5 243.1 2202.16 243.1 L2206.54 243.1 L2206.54 246.665 L2202.16 246.665 Q2197.23 246.665 2195.36 244.836 Q2193.48 242.984 2193.48 238.123 L2193.48 224.049 L2190.36 224.049 L2190.36 220.739 L2193.48 220.739 L2193.48 213.378 L2197.76 213.378 Z" fill="#000000" fill-rule="evenodd" fill-opacity="1" /><path clip-path="url(#clip170)" d="M 0 0 M2222.79 233.632 Q2217.62 233.632 2215.63 234.813 Q2213.64 235.993 2213.64 238.841 Q2213.64 241.109 2215.12 242.452 Q2216.63 243.771 2219.2 243.771 Q2222.74 243.771 2224.87 241.271 Q2227.02 238.748 2227.02 234.581 L2227.02 233.632 L2222.79 233.632 M2231.28 231.873 L2231.28 246.665 L2227.02 246.665 L2227.02 242.729 Q2225.56 245.091 2223.39 246.225 Q2221.21 247.336 2218.06 247.336 Q2214.08 247.336 2211.72 245.114 Q2209.38 242.868 2209.38 239.118 Q2209.38 234.743 2212.3 232.521 Q2215.24 230.299 2221.05 230.299 L2227.02 230.299 L2227.02 229.882 Q2227.02 226.943 2225.08 225.345 Q2223.16 223.725 2219.66 223.725 Q2217.44 223.725 2215.33 224.257 Q2213.23 224.79 2211.28 225.855 L2211.28 221.919 Q2213.62 221.017 2215.82 220.577 Q2218.02 220.114 2220.1 220.114 Q2225.73 220.114 2228.5 223.031 Q2231.28 225.947 2231.28 231.873 Z" fill="#000000" fill-rule="evenodd" fill-opacity="1" /></svg>
