<?xml version="1.0" encoding="utf-8"?>
<svg xmlns="http://www.w3.org/2000/svg" xmlns:xlink="http://www.w3.org/1999/xlink" width="600" height="400" viewBox="0 0 2400 1600">
<defs>
  <clipPath id="clip520">
    <rect x="0" y="0" width="2400" height="1600"/>
  </clipPath>
</defs>
<path clip-path="url(#clip520)" d="
M0 1600 L2400 1600 L2400 0 L0 0  Z
  " fill="#ffffff" fill-rule="evenodd" fill-opacity="1"/>
<defs>
  <clipPath id="clip521">
    <rect x="480" y="0" width="1681" height="1600"/>
  </clipPath>
</defs>
<path clip-path="url(#clip520)" d="
M166.205 1486.45 L2352.76 1486.45 L2352.76 123.472 L166.205 123.472  Z
  " fill="#ffffff" fill-rule="evenodd" fill-opacity="1"/>
<defs>
  <clipPath id="clip522">
    <rect x="166" y="123" width="2188" height="1364"/>
  </clipPath>
</defs>
<polyline clip-path="url(#clip522)" style="stroke:#000000; stroke-width:2; stroke-opacity:0.1; fill:none" points="
  228.088,1486.45 228.088,123.472 
  "/>
<polyline clip-path="url(#clip522)" style="stroke:#000000; stroke-width:2; stroke-opacity:0.1; fill:none" points="
  571.886,1486.45 571.886,123.472 
  "/>
<polyline clip-path="url(#clip522)" style="stroke:#000000; stroke-width:2; stroke-opacity:0.1; fill:none" points="
  915.683,1486.45 915.683,123.472 
  "/>
<polyline clip-path="url(#clip522)" style="stroke:#000000; stroke-width:2; stroke-opacity:0.1; fill:none" points="
  1259.48,1486.45 1259.48,123.472 
  "/>
<polyline clip-path="url(#clip522)" style="stroke:#000000; stroke-width:2; stroke-opacity:0.1; fill:none" points="
  1603.28,1486.45 1603.28,123.472 
  "/>
<polyline clip-path="url(#clip522)" style="stroke:#000000; stroke-width:2; stroke-opacity:0.1; fill:none" points="
  1947.08,1486.45 1947.08,123.472 
  "/>
<polyline clip-path="url(#clip522)" style="stroke:#000000; stroke-width:2; stroke-opacity:0.1; fill:none" points="
  2290.87,1486.45 2290.87,123.472 
  "/>
<polyline clip-path="url(#clip522)" style="stroke:#000000; stroke-width:2; stroke-opacity:0.1; fill:none" points="
  166.205,1447.87 2352.76,1447.87 
  "/>
<polyline clip-path="url(#clip522)" style="stroke:#000000; stroke-width:2; stroke-opacity:0.1; fill:none" points="
  166.205,1145.33 2352.76,1145.33 
  "/>
<polyline clip-path="url(#clip522)" style="stroke:#000000; stroke-width:2; stroke-opacity:0.1; fill:none" points="
  166.205,842.778 2352.76,842.778 
  "/>
<polyline clip-path="url(#clip522)" style="stroke:#000000; stroke-width:2; stroke-opacity:0.1; fill:none" points="
  166.205,540.231 2352.76,540.231 
  "/>
<polyline clip-path="url(#clip522)" style="stroke:#000000; stroke-width:2; stroke-opacity:0.1; fill:none" points="
  166.205,237.684 2352.76,237.684 
  "/>
<polyline clip-path="url(#clip520)" style="stroke:#000000; stroke-width:4; stroke-opacity:1; fill:none" points="
  166.205,1486.45 2352.76,1486.45 
  "/>
<polyline clip-path="url(#clip520)" style="stroke:#000000; stroke-width:4; stroke-opacity:1; fill:none" points="
  166.205,1486.45 166.205,123.472 
  "/>
<polyline clip-path="url(#clip520)" style="stroke:#000000; stroke-width:4; stroke-opacity:1; fill:none" points="
  228.088,1486.45 228.088,1470.09 
  "/>
<polyline clip-path="url(#clip520)" style="stroke:#000000; stroke-width:4; stroke-opacity:1; fill:none" points="
  571.886,1486.45 571.886,1470.09 
  "/>
<polyline clip-path="url(#clip520)" style="stroke:#000000; stroke-width:4; stroke-opacity:1; fill:none" points="
  915.683,1486.45 915.683,1470.09 
  "/>
<polyline clip-path="url(#clip520)" style="stroke:#000000; stroke-width:4; stroke-opacity:1; fill:none" points="
  1259.48,1486.45 1259.48,1470.09 
  "/>
<polyline clip-path="url(#clip520)" style="stroke:#000000; stroke-width:4; stroke-opacity:1; fill:none" points="
  1603.28,1486.45 1603.28,1470.09 
  "/>
<polyline clip-path="url(#clip520)" style="stroke:#000000; stroke-width:4; stroke-opacity:1; fill:none" points="
  1947.08,1486.45 1947.08,1470.09 
  "/>
<polyline clip-path="url(#clip520)" style="stroke:#000000; stroke-width:4; stroke-opacity:1; fill:none" points="
  2290.87,1486.45 2290.87,1470.09 
  "/>
<polyline clip-path="url(#clip520)" style="stroke:#000000; stroke-width:4; stroke-opacity:1; fill:none" points="
  166.205,1447.87 192.443,1447.87 
  "/>
<polyline clip-path="url(#clip520)" style="stroke:#000000; stroke-width:4; stroke-opacity:1; fill:none" points="
  166.205,1145.33 192.443,1145.33 
  "/>
<polyline clip-path="url(#clip520)" style="stroke:#000000; stroke-width:4; stroke-opacity:1; fill:none" points="
  166.205,842.778 192.443,842.778 
  "/>
<polyline clip-path="url(#clip520)" style="stroke:#000000; stroke-width:4; stroke-opacity:1; fill:none" points="
  166.205,540.231 192.443,540.231 
  "/>
<polyline clip-path="url(#clip520)" style="stroke:#000000; stroke-width:4; stroke-opacity:1; fill:none" points="
  166.205,237.684 192.443,237.684 
  "/>
<path clip-path="url(#clip520)" d="M 0 0 M209.142 1525.04 L221.618 1525.04 L221.618 1528.83 L209.142 1528.83 L209.142 1525.04 Z" fill="#000000" fill-rule="evenodd" fill-opacity="1" /><path clip-path="url(#clip520)" d="M 0 0 M230.715 1535.98 L247.035 1535.98 L247.035 1539.92 L225.091 1539.92 L225.091 1535.98 Q227.753 1533.23 232.336 1528.6 Q236.942 1523.95 238.123 1522.61 Q240.368 1520.08 241.248 1518.35 Q242.151 1516.59 242.151 1514.9 Q242.151 1512.14 240.206 1510.41 Q238.285 1508.67 235.183 1508.67 Q232.984 1508.67 230.53 1509.43 Q228.1 1510.2 225.322 1511.75 L225.322 1507.03 Q228.146 1505.89 230.6 1505.31 Q233.053 1504.73 235.09 1504.73 Q240.461 1504.73 243.655 1507.42 Q246.85 1510.11 246.85 1514.6 Q246.85 1516.73 246.039 1518.65 Q245.252 1520.54 243.146 1523.14 Q242.567 1523.81 239.465 1527.03 Q236.364 1530.22 230.715 1535.98 Z" fill="#000000" fill-rule="evenodd" fill-opacity="1" /><path clip-path="url(#clip520)" d="M 0 0 M552.754 1525.04 L565.23 1525.04 L565.23 1528.83 L552.754 1528.83 L552.754 1525.04 Z" fill="#000000" fill-rule="evenodd" fill-opacity="1" /><path clip-path="url(#clip520)" d="M 0 0 M571.11 1535.98 L578.749 1535.98 L578.749 1509.62 L570.439 1511.29 L570.439 1507.03 L578.703 1505.36 L583.379 1505.36 L583.379 1535.98 L591.017 1535.98 L591.017 1539.92 L571.11 1539.92 L571.11 1535.98 Z" fill="#000000" fill-rule="evenodd" fill-opacity="1" /><path clip-path="url(#clip520)" d="M 0 0 M915.683 1508.44 Q912.072 1508.44 910.243 1512 Q908.438 1515.55 908.438 1522.67 Q908.438 1529.78 910.243 1533.35 Q912.072 1536.89 915.683 1536.89 Q919.317 1536.89 921.123 1533.35 Q922.951 1529.78 922.951 1522.67 Q922.951 1515.55 921.123 1512 Q919.317 1508.44 915.683 1508.44 M915.683 1504.73 Q921.493 1504.73 924.549 1509.34 Q927.627 1513.92 927.627 1522.67 Q927.627 1531.4 924.549 1536.01 Q921.493 1540.59 915.683 1540.59 Q909.873 1540.59 906.794 1536.01 Q903.739 1531.4 903.739 1522.67 Q903.739 1513.92 906.794 1509.34 Q909.873 1504.73 915.683 1504.73 Z" fill="#000000" fill-rule="evenodd" fill-opacity="1" /><path clip-path="url(#clip520)" d="M 0 0 M1249.86 1535.98 L1257.5 1535.98 L1257.5 1509.62 L1249.19 1511.29 L1249.19 1507.03 L1257.45 1505.36 L1262.13 1505.36 L1262.13 1535.98 L1269.77 1535.98 L1269.77 1539.92 L1249.86 1539.92 L1249.86 1535.98 Z" fill="#000000" fill-rule="evenodd" fill-opacity="1" /><path clip-path="url(#clip520)" d="M 0 0 M1597.93 1535.98 L1614.25 1535.98 L1614.25 1539.92 L1592.31 1539.92 L1592.31 1535.98 Q1594.97 1533.23 1599.55 1528.6 Q1604.16 1523.95 1605.34 1522.61 Q1607.58 1520.08 1608.46 1518.35 Q1609.37 1516.59 1609.37 1514.9 Q1609.37 1512.14 1607.42 1510.41 Q1605.5 1508.67 1602.4 1508.67 Q1600.2 1508.67 1597.75 1509.43 Q1595.31 1510.2 1592.54 1511.75 L1592.54 1507.03 Q1595.36 1505.89 1597.81 1505.31 Q1600.27 1504.73 1602.31 1504.73 Q1607.68 1504.73 1610.87 1507.42 Q1614.06 1510.11 1614.06 1514.6 Q1614.06 1516.73 1613.25 1518.65 Q1612.47 1520.54 1610.36 1523.14 Q1609.78 1523.81 1606.68 1527.03 Q1603.58 1530.22 1597.93 1535.98 Z" fill="#000000" fill-rule="evenodd" fill-opacity="1" /><path clip-path="url(#clip520)" d="M 0 0 M1951.32 1521.29 Q1954.68 1522 1956.55 1524.27 Q1958.45 1526.54 1958.45 1529.87 Q1958.45 1534.99 1954.93 1537.79 Q1951.42 1540.59 1944.93 1540.59 Q1942.76 1540.59 1940.44 1540.15 Q1938.15 1539.73 1935.7 1538.88 L1935.7 1534.36 Q1937.64 1535.5 1939.96 1536.08 Q1942.27 1536.66 1944.79 1536.66 Q1949.19 1536.66 1951.48 1534.92 Q1953.8 1533.18 1953.8 1529.87 Q1953.8 1526.82 1951.65 1525.11 Q1949.52 1523.37 1945.7 1523.37 L1941.67 1523.37 L1941.67 1519.53 L1945.88 1519.53 Q1949.33 1519.53 1951.16 1518.16 Q1952.99 1516.77 1952.99 1514.18 Q1952.99 1511.52 1951.09 1510.11 Q1949.22 1508.67 1945.7 1508.67 Q1943.78 1508.67 1941.58 1509.09 Q1939.38 1509.5 1936.74 1510.38 L1936.74 1506.22 Q1939.4 1505.48 1941.72 1505.11 Q1944.05 1504.73 1946.11 1504.73 Q1951.44 1504.73 1954.54 1507.17 Q1957.64 1509.57 1957.64 1513.69 Q1957.64 1516.56 1956 1518.55 Q1954.36 1520.52 1951.32 1521.29 Z" fill="#000000" fill-rule="evenodd" fill-opacity="1" /><path clip-path="url(#clip520)" d="M 0 0 M2293.88 1509.43 L2282.08 1527.88 L2293.88 1527.88 L2293.88 1509.43 M2292.65 1505.36 L2298.53 1505.36 L2298.53 1527.88 L2303.46 1527.88 L2303.46 1531.77 L2298.53 1531.77 L2298.53 1539.92 L2293.88 1539.92 L2293.88 1531.77 L2278.28 1531.77 L2278.28 1527.26 L2292.65 1505.36 Z" fill="#000000" fill-rule="evenodd" fill-opacity="1" /><path clip-path="url(#clip520)" d="M 0 0 M130.26 1433.67 Q126.649 1433.67 124.82 1437.24 Q123.015 1440.78 123.015 1447.91 Q123.015 1455.01 124.82 1458.58 Q126.649 1462.12 130.26 1462.12 Q133.895 1462.12 135.7 1458.58 Q137.529 1455.01 137.529 1447.91 Q137.529 1440.78 135.7 1437.24 Q133.895 1433.67 130.26 1433.67 M130.26 1429.97 Q136.07 1429.97 139.126 1434.57 Q142.205 1439.16 142.205 1447.91 Q142.205 1456.63 139.126 1461.24 Q136.07 1465.82 130.26 1465.82 Q124.45 1465.82 121.371 1461.24 Q118.316 1456.63 118.316 1447.91 Q118.316 1439.16 121.371 1434.57 Q124.45 1429.97 130.26 1429.97 Z" fill="#000000" fill-rule="evenodd" fill-opacity="1" /><path clip-path="url(#clip520)" d="M 0 0 M71.8578 1158.67 L88.1772 1158.67 L88.1772 1162.61 L66.2328 1162.61 L66.2328 1158.67 Q68.8949 1155.92 73.4782 1151.29 Q78.0846 1146.63 79.2652 1145.29 Q81.5105 1142.77 82.3902 1141.03 Q83.2929 1139.27 83.2929 1137.58 Q83.2929 1134.83 81.3485 1133.09 Q79.4272 1131.36 76.3254 1131.36 Q74.1263 1131.36 71.6726 1132.12 Q69.2421 1132.88 66.4643 1134.43 L66.4643 1129.71 Q69.2884 1128.58 71.7421 1128 Q74.1958 1127.42 76.2328 1127.42 Q81.6031 1127.42 84.7976 1130.11 Q87.992 1132.79 87.992 1137.28 Q87.992 1139.41 87.1818 1141.33 Q86.3948 1143.23 84.2883 1145.82 Q83.7096 1146.49 80.6078 1149.71 Q77.5059 1152.91 71.8578 1158.67 Z" fill="#000000" fill-rule="evenodd" fill-opacity="1" /><path clip-path="url(#clip520)" d="M 0 0 M103.247 1131.12 Q99.6354 1131.12 97.8068 1134.69 Q96.0012 1138.23 96.0012 1145.36 Q96.0012 1152.47 97.8068 1156.03 Q99.6354 1159.57 103.247 1159.57 Q106.881 1159.57 108.686 1156.03 Q110.515 1152.47 110.515 1145.36 Q110.515 1138.23 108.686 1134.69 Q106.881 1131.12 103.247 1131.12 M103.247 1127.42 Q109.057 1127.42 112.112 1132.03 Q115.191 1136.61 115.191 1145.36 Q115.191 1154.09 112.112 1158.69 Q109.057 1163.28 103.247 1163.28 Q97.4364 1163.28 94.3577 1158.69 Q91.3022 1154.09 91.3022 1145.36 Q91.3022 1136.61 94.3577 1132.03 Q97.4364 1127.42 103.247 1127.42 Z" fill="#000000" fill-rule="evenodd" fill-opacity="1" /><path clip-path="url(#clip520)" d="M 0 0 M130.26 1131.12 Q126.649 1131.12 124.82 1134.69 Q123.015 1138.23 123.015 1145.36 Q123.015 1152.47 124.82 1156.03 Q126.649 1159.57 130.26 1159.57 Q133.895 1159.57 135.7 1156.03 Q137.529 1152.47 137.529 1145.36 Q137.529 1138.23 135.7 1134.69 Q133.895 1131.12 130.26 1131.12 M130.26 1127.42 Q136.07 1127.42 139.126 1132.03 Q142.205 1136.61 142.205 1145.36 Q142.205 1154.09 139.126 1158.69 Q136.07 1163.28 130.26 1163.28 Q124.45 1163.28 121.371 1158.69 Q118.316 1154.09 118.316 1145.36 Q118.316 1136.61 121.371 1132.03 Q124.45 1127.42 130.26 1127.42 Z" fill="#000000" fill-rule="evenodd" fill-opacity="1" /><path clip-path="url(#clip520)" d="M 0 0 M78.5939 829.572 L66.7884 848.021 L78.5939 848.021 L78.5939 829.572 M77.367 825.498 L83.2466 825.498 L83.2466 848.021 L88.1772 848.021 L88.1772 851.91 L83.2466 851.91 L83.2466 860.058 L78.5939 860.058 L78.5939 851.91 L62.9921 851.91 L62.9921 847.396 L77.367 825.498 Z" fill="#000000" fill-rule="evenodd" fill-opacity="1" /><path clip-path="url(#clip520)" d="M 0 0 M103.247 828.577 Q99.6354 828.577 97.8068 832.142 Q96.0012 835.684 96.0012 842.813 Q96.0012 849.92 97.8068 853.484 Q99.6354 857.026 103.247 857.026 Q106.881 857.026 108.686 853.484 Q110.515 849.92 110.515 842.813 Q110.515 835.684 108.686 832.142 Q106.881 828.577 103.247 828.577 M103.247 824.873 Q109.057 824.873 112.112 829.48 Q115.191 834.063 115.191 842.813 Q115.191 851.54 112.112 856.146 Q109.057 860.73 103.247 860.73 Q97.4364 860.73 94.3577 856.146 Q91.3022 851.54 91.3022 842.813 Q91.3022 834.063 94.3577 829.48 Q97.4364 824.873 103.247 824.873 Z" fill="#000000" fill-rule="evenodd" fill-opacity="1" /><path clip-path="url(#clip520)" d="M 0 0 M130.26 828.577 Q126.649 828.577 124.82 832.142 Q123.015 835.684 123.015 842.813 Q123.015 849.92 124.82 853.484 Q126.649 857.026 130.26 857.026 Q133.895 857.026 135.7 853.484 Q137.529 849.92 137.529 842.813 Q137.529 835.684 135.7 832.142 Q133.895 828.577 130.26 828.577 M130.26 824.873 Q136.07 824.873 139.126 829.48 Q142.205 834.063 142.205 842.813 Q142.205 851.54 139.126 856.146 Q136.07 860.73 130.26 860.73 Q124.45 860.73 121.371 856.146 Q118.316 851.54 118.316 842.813 Q118.316 834.063 121.371 829.48 Q124.45 824.873 130.26 824.873 Z" fill="#000000" fill-rule="evenodd" fill-opacity="1" /><path clip-path="url(#clip520)" d="M 0 0 M76.6495 538.368 Q73.5013 538.368 71.6495 540.52 Q69.8208 542.673 69.8208 546.423 Q69.8208 550.15 71.6495 552.326 Q73.5013 554.479 76.6495 554.479 Q79.7976 554.479 81.6263 552.326 Q83.4781 550.15 83.4781 546.423 Q83.4781 542.673 81.6263 540.52 Q79.7976 538.368 76.6495 538.368 M85.9318 523.715 L85.9318 527.974 Q84.1726 527.141 82.367 526.701 Q80.5846 526.261 78.8254 526.261 Q74.1958 526.261 71.7421 529.386 Q69.3115 532.511 68.9643 538.831 Q70.33 536.817 72.3902 535.752 Q74.4504 534.664 76.9272 534.664 Q82.1355 534.664 85.1448 537.835 Q88.1772 540.983 88.1772 546.423 Q88.1772 551.747 85.029 554.965 Q81.8809 558.182 76.6495 558.182 Q70.6541 558.182 67.4828 553.599 Q64.3116 548.993 64.3116 540.266 Q64.3116 532.071 68.2004 527.21 Q72.0893 522.326 78.6402 522.326 Q80.3994 522.326 82.1818 522.673 Q83.9874 523.021 85.9318 523.715 Z" fill="#000000" fill-rule="evenodd" fill-opacity="1" /><path clip-path="url(#clip520)" d="M 0 0 M103.247 526.03 Q99.6354 526.03 97.8068 529.595 Q96.0012 533.136 96.0012 540.266 Q96.0012 547.372 97.8068 550.937 Q99.6354 554.479 103.247 554.479 Q106.881 554.479 108.686 550.937 Q110.515 547.372 110.515 540.266 Q110.515 533.136 108.686 529.595 Q106.881 526.03 103.247 526.03 M103.247 522.326 Q109.057 522.326 112.112 526.933 Q115.191 531.516 115.191 540.266 Q115.191 548.993 112.112 553.599 Q109.057 558.182 103.247 558.182 Q97.4364 558.182 94.3577 553.599 Q91.3022 548.993 91.3022 540.266 Q91.3022 531.516 94.3577 526.933 Q97.4364 522.326 103.247 522.326 Z" fill="#000000" fill-rule="evenodd" fill-opacity="1" /><path clip-path="url(#clip520)" d="M 0 0 M130.26 526.03 Q126.649 526.03 124.82 529.595 Q123.015 533.136 123.015 540.266 Q123.015 547.372 124.82 550.937 Q126.649 554.479 130.26 554.479 Q133.895 554.479 135.7 550.937 Q137.529 547.372 137.529 540.266 Q137.529 533.136 135.7 529.595 Q133.895 526.03 130.26 526.03 M130.26 522.326 Q136.07 522.326 139.126 526.933 Q142.205 531.516 142.205 540.266 Q142.205 548.993 139.126 553.599 Q136.07 558.182 130.26 558.182 Q124.45 558.182 121.371 553.599 Q118.316 548.993 118.316 540.266 Q118.316 531.516 121.371 526.933 Q124.45 522.326 130.26 522.326 Z" fill="#000000" fill-rule="evenodd" fill-opacity="1" /><path clip-path="url(#clip520)" d="M 0 0 M76.3254 238.552 Q72.9921 238.552 71.0708 240.334 Q69.1726 242.117 69.1726 245.242 Q69.1726 248.367 71.0708 250.149 Q72.9921 251.931 76.3254 251.931 Q79.6587 251.931 81.58 250.149 Q83.5013 248.343 83.5013 245.242 Q83.5013 242.117 81.58 240.334 Q79.6819 238.552 76.3254 238.552 M71.6495 236.561 Q68.6402 235.82 66.9504 233.76 Q65.2838 231.7 65.2838 228.737 Q65.2838 224.594 68.2236 222.186 Q71.1865 219.779 76.3254 219.779 Q81.4874 219.779 84.4272 222.186 Q87.367 224.594 87.367 228.737 Q87.367 231.7 85.6772 233.76 Q84.0105 235.82 81.0244 236.561 Q84.404 237.348 86.279 239.64 Q88.1772 241.931 88.1772 245.242 Q88.1772 250.265 85.0985 252.95 Q82.0429 255.635 76.3254 255.635 Q70.6078 255.635 67.5291 252.95 Q64.4736 250.265 64.4736 245.242 Q64.4736 241.931 66.3717 239.64 Q68.2699 237.348 71.6495 236.561 M69.9365 229.177 Q69.9365 231.862 71.6032 233.367 Q73.293 234.871 76.3254 234.871 Q79.3346 234.871 81.0244 233.367 Q82.7374 231.862 82.7374 229.177 Q82.7374 226.492 81.0244 224.987 Q79.3346 223.482 76.3254 223.482 Q73.293 223.482 71.6032 224.987 Q69.9365 226.492 69.9365 229.177 Z" fill="#000000" fill-rule="evenodd" fill-opacity="1" /><path clip-path="url(#clip520)" d="M 0 0 M103.247 223.482 Q99.6354 223.482 97.8068 227.047 Q96.0012 230.589 96.0012 237.718 Q96.0012 244.825 97.8068 248.39 Q99.6354 251.931 103.247 251.931 Q106.881 251.931 108.686 248.39 Q110.515 244.825 110.515 237.718 Q110.515 230.589 108.686 227.047 Q106.881 223.482 103.247 223.482 M103.247 219.779 Q109.057 219.779 112.112 224.385 Q115.191 228.969 115.191 237.718 Q115.191 246.445 112.112 251.052 Q109.057 255.635 103.247 255.635 Q97.4364 255.635 94.3577 251.052 Q91.3022 246.445 91.3022 237.718 Q91.3022 228.969 94.3577 224.385 Q97.4364 219.779 103.247 219.779 Z" fill="#000000" fill-rule="evenodd" fill-opacity="1" /><path clip-path="url(#clip520)" d="M 0 0 M130.26 223.482 Q126.649 223.482 124.82 227.047 Q123.015 230.589 123.015 237.718 Q123.015 244.825 124.82 248.39 Q126.649 251.931 130.26 251.931 Q133.895 251.931 135.7 248.39 Q137.529 244.825 137.529 237.718 Q137.529 230.589 135.7 227.047 Q133.895 223.482 130.26 223.482 M130.26 219.779 Q136.07 219.779 139.126 224.385 Q142.205 228.969 142.205 237.718 Q142.205 246.445 139.126 251.052 Q136.07 255.635 130.26 255.635 Q124.45 255.635 121.371 251.052 Q118.316 246.445 118.316 237.718 Q118.316 228.969 121.371 224.385 Q124.45 219.779 130.26 219.779 Z" fill="#000000" fill-rule="evenodd" fill-opacity="1" /><path clip-path="url(#clip520)" d="M 0 0 M1183.67 18.8205 L1183.67 65.8515 L1193.55 65.8515 Q1206.07 65.8515 1211.86 60.1802 Q1217.7 54.509 1217.7 42.2752 Q1217.7 30.1225 1211.86 24.4918 Q1206.07 18.8205 1193.55 18.8205 L1183.67 18.8205 M1175.48 12.096 L1192.3 12.096 Q1209.88 12.096 1218.1 19.4281 Q1226.32 26.7198 1226.32 42.2752 Q1226.32 57.9117 1218.06 65.2439 Q1209.8 72.576 1192.3 72.576 L1175.48 72.576 L1175.48 12.096 Z" fill="#000000" fill-rule="evenodd" fill-opacity="1" /><path clip-path="url(#clip520)" d="M 0 0 M1254.76 49.7694 Q1245.73 49.7694 1242.24 51.8354 Q1238.76 53.9013 1238.76 58.8839 Q1238.76 62.8538 1241.35 65.2034 Q1243.99 67.5124 1248.48 67.5124 Q1254.68 67.5124 1258.41 63.1374 Q1262.17 58.7219 1262.17 51.4303 L1262.17 49.7694 L1254.76 49.7694 M1269.63 46.6907 L1269.63 72.576 L1262.17 72.576 L1262.17 65.6895 Q1259.62 69.8214 1255.81 71.8063 Q1252.01 73.7508 1246.5 73.7508 Q1239.53 73.7508 1235.4 69.8619 Q1231.31 65.9325 1231.31 59.3701 Q1231.31 51.7138 1236.41 47.825 Q1241.56 43.9361 1251.72 43.9361 L1262.17 43.9361 L1262.17 43.2069 Q1262.17 38.0623 1258.77 35.2672 Q1255.41 32.4315 1249.29 32.4315 Q1245.4 32.4315 1241.72 33.3632 Q1238.03 34.295 1234.63 36.1584 L1234.63 29.2718 Q1238.72 27.692 1242.57 26.9223 Q1246.42 26.1121 1250.06 26.1121 Q1259.91 26.1121 1264.77 31.2163 Q1269.63 36.3204 1269.63 46.6907 Z" fill="#000000" fill-rule="evenodd" fill-opacity="1" /><path clip-path="url(#clip520)" d="M 0 0 M1284.82 14.324 L1284.82 27.2059 L1300.17 27.2059 L1300.17 32.9987 L1284.82 32.9987 L1284.82 57.6282 Q1284.82 63.1779 1286.32 64.7578 Q1287.86 66.3376 1292.52 66.3376 L1300.17 66.3376 L1300.17 72.576 L1292.52 72.576 Q1283.89 72.576 1280.61 69.3758 Q1277.32 66.1351 1277.32 57.6282 L1277.32 32.9987 L1271.86 32.9987 L1271.86 27.2059 L1277.32 27.2059 L1277.32 14.324 L1284.82 14.324 Z" fill="#000000" fill-rule="evenodd" fill-opacity="1" /><path clip-path="url(#clip520)" d="M 0 0 M1328.61 49.7694 Q1319.58 49.7694 1316.09 51.8354 Q1312.61 53.9013 1312.61 58.8839 Q1312.61 62.8538 1315.2 65.2034 Q1317.83 67.5124 1322.33 67.5124 Q1328.53 67.5124 1332.25 63.1374 Q1336.02 58.7219 1336.02 51.4303 L1336.02 49.7694 L1328.61 49.7694 M1343.48 46.6907 L1343.48 72.576 L1336.02 72.576 L1336.02 65.6895 Q1333.47 69.8214 1329.66 71.8063 Q1325.85 73.7508 1320.35 73.7508 Q1313.38 73.7508 1309.25 69.8619 Q1305.15 65.9325 1305.15 59.3701 Q1305.15 51.7138 1310.26 47.825 Q1315.4 43.9361 1325.57 43.9361 L1336.02 43.9361 L1336.02 43.2069 Q1336.02 38.0623 1332.62 35.2672 Q1329.26 32.4315 1323.14 32.4315 Q1319.25 32.4315 1315.57 33.3632 Q1311.88 34.295 1308.48 36.1584 L1308.48 29.2718 Q1312.57 27.692 1316.42 26.9223 Q1320.26 26.1121 1323.91 26.1121 Q1333.75 26.1121 1338.61 31.2163 Q1343.48 36.3204 1343.48 46.6907 Z" fill="#000000" fill-rule="evenodd" fill-opacity="1" /><polyline clip-path="url(#clip522)" style="stroke:#009af9; stroke-width:4; stroke-opacity:1; fill:none" points="
  228.088,1447.87 228.088,1372.24 262.468,1372.24 262.468,1251.22 296.848,1251.22 296.848,1296.6 331.227,1296.6 331.227,1190.71 365.607,1190.71 365.607,1069.69 
  399.987,1069.69 399.987,994.052 434.367,994.052 434.367,1039.43 468.746,1039.43 468.746,873.033 503.126,873.033 503.126,888.161 537.506,888.161 537.506,767.142 
  571.886,767.142 571.886,827.651 606.265,827.651 606.265,1009.18 640.645,1009.18 640.645,888.161 675.025,888.161 675.025,918.415 709.405,918.415 709.405,1130.2 
  743.784,1130.2 743.784,1024.31 778.164,1024.31 778.164,1205.84 812.544,1205.84 812.544,1281.47 846.923,1281.47 846.923,1311.73 881.303,1311.73 881.303,1372.24 
  915.683,1372.24 915.683,1417.62 950.063,1417.62 950.063,1372.24 984.442,1372.24 984.442,1432.75 1018.82,1432.75 1053.2,1432.75 1053.2,1417.62 
  1087.58,1417.62 1087.58,1432.75 1121.96,1432.75 1156.34,1432.75 1156.34,1387.36 1190.72,1387.36 1190.72,1341.98 1225.1,1341.98 1225.1,1311.73 
  1259.48,1311.73 1259.48,1251.22 1293.86,1251.22 1293.86,1115.07 1328.24,1115.07 1328.24,1024.31 1362.62,1024.31 1362.62,903.288 1397,903.288 1397,827.651 
  1431.38,827.651 1431.38,691.505 1465.76,691.505 1465.76,812.524 1500.14,812.524 1500.14,328.448 1534.52,328.448 1534.52,313.321 1568.9,313.321 1568.9,162.047 
  1603.28,162.047 1603.28,252.811 1637.66,252.811 1637.66,177.174 1672.04,177.174 1672.04,404.085 1706.42,404.085 1706.42,479.722 1740.8,479.722 1740.8,570.486 
  1775.18,570.486 1775.18,691.505 1809.56,691.505 1809.56,1024.31 1843.94,1024.31 1878.32,1024.31 1878.32,1145.33 1912.7,1145.33 1912.7,1251.22 
  1947.08,1251.22 1947.08,1387.36 1981.45,1387.36 1981.45,1341.98 2015.83,1341.98 2015.83,1372.24 2050.21,1372.24 2050.21,1417.62 2084.59,1417.62 2084.59,1447.87 
  2118.97,1447.87 2153.35,1447.87 2187.73,1447.87 2222.11,1447.87 2256.49,1447.87 
  2290.87,1447.87 
  "/>
<path clip-path="url(#clip520)" d="
M2016.76 229.385 L2352.76 229.385 L2352.76 108.425 L2016.76 108.425  Z
  " fill="#ffffff" fill-rule="evenodd" fill-opacity="1"/>
<polyline clip-path="url(#clip520)" style="stroke:#000000; stroke-width:4; stroke-opacity:1; fill:none" points="
  2016.76,229.385 2352.76,229.385 2352.76,108.425 2016.76,108.425 2016.76,229.385 
  "/>
<polyline clip-path="url(#clip520)" style="stroke:#009af9; stroke-width:4; stroke-opacity:1; fill:none" points="
  2040.76,168.905 2184.76,168.905 
  "/>
<path clip-path="url(#clip520)" d="M 0 0 M2213.44 155.467 L2213.44 182.342 L2219.09 182.342 Q2226.24 182.342 2229.55 179.101 Q2232.88 175.861 2232.88 168.87 Q2232.88 161.926 2229.55 158.708 Q2226.24 155.467 2219.09 155.467 L2213.44 155.467 M2208.76 151.625 L2218.37 151.625 Q2228.41 151.625 2233.11 155.814 Q2237.81 159.981 2237.81 168.87 Q2237.81 177.805 2233.09 181.995 Q2228.37 186.185 2218.37 186.185 L2208.76 186.185 L2208.76 151.625 Z" fill="#000000" fill-rule="evenodd" fill-opacity="1" /><path clip-path="url(#clip520)" d="M 0 0 M2254.06 173.152 Q2248.9 173.152 2246.91 174.333 Q2244.92 175.513 2244.92 178.361 Q2244.92 180.629 2246.4 181.972 Q2247.9 183.291 2250.47 183.291 Q2254.02 183.291 2256.15 180.791 Q2258.3 178.268 2258.3 174.101 L2258.3 173.152 L2254.06 173.152 M2262.56 171.393 L2262.56 186.185 L2258.3 186.185 L2258.3 182.249 Q2256.84 184.611 2254.66 185.745 Q2252.49 186.856 2249.34 186.856 Q2245.36 186.856 2243 184.634 Q2240.66 182.388 2240.66 178.638 Q2240.66 174.263 2243.58 172.041 Q2246.52 169.819 2252.33 169.819 L2258.3 169.819 L2258.3 169.402 Q2258.3 166.463 2256.35 164.865 Q2254.43 163.245 2250.94 163.245 Q2248.71 163.245 2246.61 163.777 Q2244.5 164.31 2242.56 165.375 L2242.56 161.439 Q2244.9 160.537 2247.09 160.097 Q2249.29 159.634 2251.38 159.634 Q2257 159.634 2259.78 162.551 Q2262.56 165.467 2262.56 171.393 Z" fill="#000000" fill-rule="evenodd" fill-opacity="1" /><path clip-path="url(#clip520)" d="M 0 0 M2271.24 152.898 L2271.24 160.259 L2280.01 160.259 L2280.01 163.569 L2271.24 163.569 L2271.24 177.643 Q2271.24 180.814 2272.09 181.717 Q2272.97 182.62 2275.64 182.62 L2280.01 182.62 L2280.01 186.185 L2275.64 186.185 Q2270.71 186.185 2268.83 184.356 Q2266.96 182.504 2266.96 177.643 L2266.96 163.569 L2263.83 163.569 L2263.83 160.259 L2266.96 160.259 L2266.96 152.898 L2271.24 152.898 Z" fill="#000000" fill-rule="evenodd" fill-opacity="1" /><path clip-path="url(#clip520)" d="M 0 0 M2296.26 173.152 Q2291.1 173.152 2289.11 174.333 Q2287.12 175.513 2287.12 178.361 Q2287.12 180.629 2288.6 181.972 Q2290.1 183.291 2292.67 183.291 Q2296.21 183.291 2298.34 180.791 Q2300.5 178.268 2300.5 174.101 L2300.5 173.152 L2296.26 173.152 M2304.76 171.393 L2304.76 186.185 L2300.5 186.185 L2300.5 182.249 Q2299.04 184.611 2296.86 185.745 Q2294.69 186.856 2291.54 186.856 Q2287.56 186.856 2285.2 184.634 Q2282.86 182.388 2282.86 178.638 Q2282.86 174.263 2285.77 172.041 Q2288.71 169.819 2294.52 169.819 L2300.5 169.819 L2300.5 169.402 Q2300.5 166.463 2298.55 164.865 Q2296.63 163.245 2293.14 163.245 Q2290.91 163.245 2288.81 163.777 Q2286.7 164.31 2284.76 165.375 L2284.76 161.439 Q2287.09 160.537 2289.29 160.097 Q2291.49 159.634 2293.58 159.634 Q2299.2 159.634 2301.98 162.551 Q2304.76 165.467 2304.76 171.393 Z" fill="#000000" fill-rule="evenodd" fill-opacity="1" /></svg>
