<?xml version="1.0" encoding="utf-8"?>
<svg xmlns="http://www.w3.org/2000/svg" xmlns:xlink="http://www.w3.org/1999/xlink" width="600" height="400" viewBox="0 0 2400 1600">
<defs>
  <clipPath id="clip480">
    <rect x="0" y="0" width="2400" height="1600"/>
  </clipPath>
</defs>
<path clip-path="url(#clip480)" d="
M0 1600 L2400 1600 L2400 0 L0 0  Z
  " fill="#ffffff" fill-rule="evenodd" fill-opacity="1"/>
<defs>
  <clipPath id="clip481">
    <rect x="480" y="0" width="1681" height="1600"/>
  </clipPath>
</defs>
<path clip-path="url(#clip480)" d="
M172.015 1486.45 L2352.76 1486.45 L2352.76 123.472 L172.015 123.472  Z
  " fill="#ffffff" fill-rule="evenodd" fill-opacity="1"/>
<defs>
  <clipPath id="clip482">
    <rect x="172" y="123" width="2182" height="1364"/>
  </clipPath>
</defs>
<polyline clip-path="url(#clip482)" style="stroke:#000000; stroke-linecap:butt; stroke-linejoin:round; stroke-width:2; stroke-opacity:0.1; fill:none" points="
  233.734,1486.45 233.734,123.472 
  "/>
<polyline clip-path="url(#clip482)" style="stroke:#000000; stroke-linecap:butt; stroke-linejoin:round; stroke-width:2; stroke-opacity:0.1; fill:none" points="
  748.06,1486.45 748.06,123.472 
  "/>
<polyline clip-path="url(#clip482)" style="stroke:#000000; stroke-linecap:butt; stroke-linejoin:round; stroke-width:2; stroke-opacity:0.1; fill:none" points="
  1262.39,1486.45 1262.39,123.472 
  "/>
<polyline clip-path="url(#clip482)" style="stroke:#000000; stroke-linecap:butt; stroke-linejoin:round; stroke-width:2; stroke-opacity:0.1; fill:none" points="
  1776.71,1486.45 1776.71,123.472 
  "/>
<polyline clip-path="url(#clip482)" style="stroke:#000000; stroke-linecap:butt; stroke-linejoin:round; stroke-width:2; stroke-opacity:0.1; fill:none" points="
  2291.04,1486.45 2291.04,123.472 
  "/>
<polyline clip-path="url(#clip480)" style="stroke:#000000; stroke-linecap:butt; stroke-linejoin:round; stroke-width:4; stroke-opacity:1; fill:none" points="
  172.015,1486.45 2352.76,1486.45 
  "/>
<polyline clip-path="url(#clip480)" style="stroke:#000000; stroke-linecap:butt; stroke-linejoin:round; stroke-width:4; stroke-opacity:1; fill:none" points="
  233.734,1486.45 233.734,1467.55 
  "/>
<polyline clip-path="url(#clip480)" style="stroke:#000000; stroke-linecap:butt; stroke-linejoin:round; stroke-width:4; stroke-opacity:1; fill:none" points="
  748.06,1486.45 748.06,1467.55 
  "/>
<polyline clip-path="url(#clip480)" style="stroke:#000000; stroke-linecap:butt; stroke-linejoin:round; stroke-width:4; stroke-opacity:1; fill:none" points="
  1262.39,1486.45 1262.39,1467.55 
  "/>
<polyline clip-path="url(#clip480)" style="stroke:#000000; stroke-linecap:butt; stroke-linejoin:round; stroke-width:4; stroke-opacity:1; fill:none" points="
  1776.71,1486.45 1776.71,1467.55 
  "/>
<polyline clip-path="url(#clip480)" style="stroke:#000000; stroke-linecap:butt; stroke-linejoin:round; stroke-width:4; stroke-opacity:1; fill:none" points="
  2291.04,1486.45 2291.04,1467.55 
  "/>
<path clip-path="url(#clip480)" d="M202.635 1532.02 L232.31 1532.02 L232.31 1535.95 L202.635 1535.95 L202.635 1532.02 Z" fill="#000000" fill-rule="evenodd" fill-opacity="1" /><path clip-path="url(#clip480)" d="M255.25 1518.36 L243.445 1536.81 L255.25 1536.81 L255.25 1518.36 M254.023 1514.29 L259.903 1514.29 L259.903 1536.81 L264.833 1536.81 L264.833 1540.7 L259.903 1540.7 L259.903 1548.85 L255.25 1548.85 L255.25 1540.7 L239.648 1540.7 L239.648 1536.19 L254.023 1514.29 Z" fill="#000000" fill-rule="evenodd" fill-opacity="1" /><path clip-path="url(#clip480)" d="M718.002 1532.02 L747.678 1532.02 L747.678 1535.95 L718.002 1535.95 L718.002 1532.02 Z" fill="#000000" fill-rule="evenodd" fill-opacity="1" /><path clip-path="url(#clip480)" d="M761.798 1544.91 L778.117 1544.91 L778.117 1548.85 L756.173 1548.85 L756.173 1544.91 Q758.835 1542.16 763.418 1537.53 Q768.025 1532.88 769.205 1531.53 Q771.451 1529.01 772.33 1527.27 Q773.233 1525.51 773.233 1523.82 Q773.233 1521.07 771.289 1519.33 Q769.367 1517.6 766.266 1517.6 Q764.066 1517.6 761.613 1518.36 Q759.182 1519.13 756.404 1520.68 L756.404 1515.95 Q759.229 1514.82 761.682 1514.24 Q764.136 1513.66 766.173 1513.66 Q771.543 1513.66 774.738 1516.35 Q777.932 1519.03 777.932 1523.52 Q777.932 1525.65 777.122 1527.57 Q776.335 1529.47 774.228 1532.07 Q773.65 1532.74 770.548 1535.95 Q767.446 1539.15 761.798 1544.91 Z" fill="#000000" fill-rule="evenodd" fill-opacity="1" /><path clip-path="url(#clip480)" d="M1262.39 1517.37 Q1258.77 1517.37 1256.95 1520.93 Q1255.14 1524.47 1255.14 1531.6 Q1255.14 1538.71 1256.95 1542.27 Q1258.77 1545.82 1262.39 1545.82 Q1266.02 1545.82 1267.83 1542.27 Q1269.65 1538.71 1269.65 1531.6 Q1269.65 1524.47 1267.83 1520.93 Q1266.02 1517.37 1262.39 1517.37 M1262.39 1513.66 Q1268.2 1513.66 1271.25 1518.27 Q1274.33 1522.85 1274.33 1531.6 Q1274.33 1540.33 1271.25 1544.94 Q1268.2 1549.52 1262.39 1549.52 Q1256.58 1549.52 1253.5 1544.94 Q1250.44 1540.33 1250.44 1531.6 Q1250.44 1522.85 1253.5 1518.27 Q1256.58 1513.66 1262.39 1513.66 Z" fill="#000000" fill-rule="evenodd" fill-opacity="1" /><path clip-path="url(#clip480)" d="M1771.36 1544.91 L1787.68 1544.91 L1787.68 1548.85 L1765.74 1548.85 L1765.74 1544.91 Q1768.4 1542.16 1772.98 1537.53 Q1777.59 1532.88 1778.77 1531.53 Q1781.02 1529.01 1781.9 1527.27 Q1782.8 1525.51 1782.8 1523.82 Q1782.8 1521.07 1780.85 1519.33 Q1778.93 1517.6 1775.83 1517.6 Q1773.63 1517.6 1771.18 1518.36 Q1768.75 1519.13 1765.97 1520.68 L1765.97 1515.95 Q1768.79 1514.82 1771.25 1514.24 Q1773.7 1513.66 1775.74 1513.66 Q1781.11 1513.66 1784.3 1516.35 Q1787.5 1519.03 1787.5 1523.52 Q1787.5 1525.65 1786.69 1527.57 Q1785.9 1529.47 1783.79 1532.07 Q1783.22 1532.74 1780.11 1535.95 Q1777.01 1539.15 1771.36 1544.91 Z" fill="#000000" fill-rule="evenodd" fill-opacity="1" /><path clip-path="url(#clip480)" d="M2294.05 1518.36 L2282.24 1536.81 L2294.05 1536.81 L2294.05 1518.36 M2292.82 1514.29 L2298.7 1514.29 L2298.7 1536.81 L2303.63 1536.81 L2303.63 1540.7 L2298.7 1540.7 L2298.7 1548.85 L2294.05 1548.85 L2294.05 1540.7 L2278.44 1540.7 L2278.44 1536.19 L2292.82 1514.29 Z" fill="#000000" fill-rule="evenodd" fill-opacity="1" /><polyline clip-path="url(#clip482)" style="stroke:#000000; stroke-linecap:butt; stroke-linejoin:round; stroke-width:2; stroke-opacity:0.1; fill:none" points="
  172.015,1447.87 2352.76,1447.87 
  "/>
<polyline clip-path="url(#clip482)" style="stroke:#000000; stroke-linecap:butt; stroke-linejoin:round; stroke-width:2; stroke-opacity:0.1; fill:none" points="
  172.015,1141.72 2352.76,1141.72 
  "/>
<polyline clip-path="url(#clip482)" style="stroke:#000000; stroke-linecap:butt; stroke-linejoin:round; stroke-width:2; stroke-opacity:0.1; fill:none" points="
  172.015,835.575 2352.76,835.575 
  "/>
<polyline clip-path="url(#clip482)" style="stroke:#000000; stroke-linecap:butt; stroke-linejoin:round; stroke-width:2; stroke-opacity:0.1; fill:none" points="
  172.015,529.426 2352.76,529.426 
  "/>
<polyline clip-path="url(#clip482)" style="stroke:#000000; stroke-linecap:butt; stroke-linejoin:round; stroke-width:2; stroke-opacity:0.1; fill:none" points="
  172.015,223.277 2352.76,223.277 
  "/>
<polyline clip-path="url(#clip480)" style="stroke:#000000; stroke-linecap:butt; stroke-linejoin:round; stroke-width:4; stroke-opacity:1; fill:none" points="
  172.015,1486.45 172.015,123.472 
  "/>
<polyline clip-path="url(#clip480)" style="stroke:#000000; stroke-linecap:butt; stroke-linejoin:round; stroke-width:4; stroke-opacity:1; fill:none" points="
  172.015,1447.87 190.912,1447.87 
  "/>
<polyline clip-path="url(#clip480)" style="stroke:#000000; stroke-linecap:butt; stroke-linejoin:round; stroke-width:4; stroke-opacity:1; fill:none" points="
  172.015,1141.72 190.912,1141.72 
  "/>
<polyline clip-path="url(#clip480)" style="stroke:#000000; stroke-linecap:butt; stroke-linejoin:round; stroke-width:4; stroke-opacity:1; fill:none" points="
  172.015,835.575 190.912,835.575 
  "/>
<polyline clip-path="url(#clip480)" style="stroke:#000000; stroke-linecap:butt; stroke-linejoin:round; stroke-width:4; stroke-opacity:1; fill:none" points="
  172.015,529.426 190.912,529.426 
  "/>
<polyline clip-path="url(#clip480)" style="stroke:#000000; stroke-linecap:butt; stroke-linejoin:round; stroke-width:4; stroke-opacity:1; fill:none" points="
  172.015,223.277 190.912,223.277 
  "/>
<path clip-path="url(#clip480)" d="M124.07 1433.67 Q120.459 1433.67 118.631 1437.24 Q116.825 1440.78 116.825 1447.91 Q116.825 1455.01 118.631 1458.58 Q120.459 1462.12 124.07 1462.12 Q127.705 1462.12 129.51 1458.58 Q131.339 1455.01 131.339 1447.91 Q131.339 1440.78 129.51 1437.24 Q127.705 1433.67 124.07 1433.67 M124.07 1429.97 Q129.881 1429.97 132.936 1434.57 Q136.015 1439.16 136.015 1447.91 Q136.015 1456.63 132.936 1461.24 Q129.881 1465.82 124.07 1465.82 Q118.26 1465.82 115.182 1461.24 Q112.126 1456.63 112.126 1447.91 Q112.126 1439.16 115.182 1434.57 Q118.26 1429.97 124.07 1429.97 Z" fill="#000000" fill-rule="evenodd" fill-opacity="1" /><path clip-path="url(#clip480)" d="M57.7745 1155.07 L74.0939 1155.07 L74.0939 1159 L52.1495 1159 L52.1495 1155.07 Q54.8115 1152.31 59.3949 1147.68 Q64.0013 1143.03 65.1819 1141.69 Q67.4272 1139.17 68.3068 1137.43 Q69.2096 1135.67 69.2096 1133.98 Q69.2096 1131.23 67.2652 1129.49 Q65.3439 1127.75 62.2421 1127.75 Q60.043 1127.75 57.5893 1128.52 Q55.1588 1129.28 52.381 1130.83 L52.381 1126.11 Q55.2051 1124.98 57.6588 1124.4 Q60.1124 1123.82 62.1495 1123.82 Q67.5198 1123.82 70.7142 1126.5 Q73.9087 1129.19 73.9087 1133.68 Q73.9087 1135.81 73.0985 1137.73 Q72.3115 1139.63 70.205 1142.22 Q69.6263 1142.89 66.5245 1146.11 Q63.4226 1149.3 57.7745 1155.07 Z" fill="#000000" fill-rule="evenodd" fill-opacity="1" /><path clip-path="url(#clip480)" d="M93.9086 1127.52 Q90.2975 1127.52 88.4688 1131.09 Q86.6632 1134.63 86.6632 1141.76 Q86.6632 1148.87 88.4688 1152.43 Q90.2975 1155.97 93.9086 1155.97 Q97.5428 1155.97 99.3483 1152.43 Q101.177 1148.87 101.177 1141.76 Q101.177 1134.63 99.3483 1131.09 Q97.5428 1127.52 93.9086 1127.52 M93.9086 1123.82 Q99.7187 1123.82 102.774 1128.43 Q105.853 1133.01 105.853 1141.76 Q105.853 1150.49 102.774 1155.09 Q99.7187 1159.68 93.9086 1159.68 Q88.0984 1159.68 85.0197 1155.09 Q81.9642 1150.49 81.9642 1141.76 Q81.9642 1133.01 85.0197 1128.43 Q88.0984 1123.82 93.9086 1123.82 Z" fill="#000000" fill-rule="evenodd" fill-opacity="1" /><path clip-path="url(#clip480)" d="M124.07 1127.52 Q120.459 1127.52 118.631 1131.09 Q116.825 1134.63 116.825 1141.76 Q116.825 1148.87 118.631 1152.43 Q120.459 1155.97 124.07 1155.97 Q127.705 1155.97 129.51 1152.43 Q131.339 1148.87 131.339 1141.76 Q131.339 1134.63 129.51 1131.09 Q127.705 1127.52 124.07 1127.52 M124.07 1123.82 Q129.881 1123.82 132.936 1128.43 Q136.015 1133.01 136.015 1141.76 Q136.015 1150.49 132.936 1155.09 Q129.881 1159.68 124.07 1159.68 Q118.26 1159.68 115.182 1155.09 Q112.126 1150.49 112.126 1141.76 Q112.126 1133.01 115.182 1128.43 Q118.26 1123.82 124.07 1123.82 Z" fill="#000000" fill-rule="evenodd" fill-opacity="1" /><path clip-path="url(#clip480)" d="M66.5939 822.369 L54.7884 840.818 L66.5939 840.818 L66.5939 822.369 M65.367 818.295 L71.2466 818.295 L71.2466 840.818 L76.1772 840.818 L76.1772 844.707 L71.2466 844.707 L71.2466 852.855 L66.5939 852.855 L66.5939 844.707 L50.9921 844.707 L50.9921 840.193 L65.367 818.295 Z" fill="#000000" fill-rule="evenodd" fill-opacity="1" /><path clip-path="url(#clip480)" d="M93.9086 821.374 Q90.2975 821.374 88.4688 824.938 Q86.6632 828.48 86.6632 835.61 Q86.6632 842.716 88.4688 846.281 Q90.2975 849.823 93.9086 849.823 Q97.5428 849.823 99.3483 846.281 Q101.177 842.716 101.177 835.61 Q101.177 828.48 99.3483 824.938 Q97.5428 821.374 93.9086 821.374 M93.9086 817.67 Q99.7187 817.67 102.774 822.276 Q105.853 826.86 105.853 835.61 Q105.853 844.336 102.774 848.943 Q99.7187 853.526 93.9086 853.526 Q88.0984 853.526 85.0197 848.943 Q81.9642 844.336 81.9642 835.61 Q81.9642 826.86 85.0197 822.276 Q88.0984 817.67 93.9086 817.67 Z" fill="#000000" fill-rule="evenodd" fill-opacity="1" /><path clip-path="url(#clip480)" d="M124.07 821.374 Q120.459 821.374 118.631 824.938 Q116.825 828.48 116.825 835.61 Q116.825 842.716 118.631 846.281 Q120.459 849.823 124.07 849.823 Q127.705 849.823 129.51 846.281 Q131.339 842.716 131.339 835.61 Q131.339 828.48 129.51 824.938 Q127.705 821.374 124.07 821.374 M124.07 817.67 Q129.881 817.67 132.936 822.276 Q136.015 826.86 136.015 835.61 Q136.015 844.336 132.936 848.943 Q129.881 853.526 124.07 853.526 Q118.26 853.526 115.182 848.943 Q112.126 844.336 112.126 835.61 Q112.126 826.86 115.182 822.276 Q118.26 817.67 124.07 817.67 Z" fill="#000000" fill-rule="evenodd" fill-opacity="1" /><path clip-path="url(#clip480)" d="M64.3254 527.562 Q61.1773 527.562 59.3254 529.715 Q57.4967 531.868 57.4967 535.618 Q57.4967 539.345 59.3254 541.521 Q61.1773 543.673 64.3254 543.673 Q67.4735 543.673 69.3022 541.521 Q71.1541 539.345 71.1541 535.618 Q71.1541 531.868 69.3022 529.715 Q67.4735 527.562 64.3254 527.562 M73.6077 512.91 L73.6077 517.169 Q71.8485 516.336 70.0429 515.896 Q68.2606 515.456 66.5013 515.456 Q61.8717 515.456 59.418 518.581 Q56.9875 521.706 56.6402 528.025 Q58.006 526.011 60.0662 524.947 Q62.1263 523.859 64.6032 523.859 Q69.8115 523.859 72.8207 527.03 Q75.8531 530.178 75.8531 535.618 Q75.8531 540.942 72.705 544.16 Q69.5568 547.377 64.3254 547.377 Q58.33 547.377 55.1588 542.794 Q51.9875 538.187 51.9875 529.461 Q51.9875 521.266 55.8764 516.405 Q59.7652 511.521 66.3161 511.521 Q68.0754 511.521 69.8578 511.868 Q71.6633 512.215 73.6077 512.91 Z" fill="#000000" fill-rule="evenodd" fill-opacity="1" /><path clip-path="url(#clip480)" d="M93.9086 515.225 Q90.2975 515.225 88.4688 518.789 Q86.6632 522.331 86.6632 529.461 Q86.6632 536.567 88.4688 540.132 Q90.2975 543.673 93.9086 543.673 Q97.5428 543.673 99.3483 540.132 Q101.177 536.567 101.177 529.461 Q101.177 522.331 99.3483 518.789 Q97.5428 515.225 93.9086 515.225 M93.9086 511.521 Q99.7187 511.521 102.774 516.127 Q105.853 520.711 105.853 529.461 Q105.853 538.187 102.774 542.794 Q99.7187 547.377 93.9086 547.377 Q88.0984 547.377 85.0197 542.794 Q81.9642 538.187 81.9642 529.461 Q81.9642 520.711 85.0197 516.127 Q88.0984 511.521 93.9086 511.521 Z" fill="#000000" fill-rule="evenodd" fill-opacity="1" /><path clip-path="url(#clip480)" d="M124.07 515.225 Q120.459 515.225 118.631 518.789 Q116.825 522.331 116.825 529.461 Q116.825 536.567 118.631 540.132 Q120.459 543.673 124.07 543.673 Q127.705 543.673 129.51 540.132 Q131.339 536.567 131.339 529.461 Q131.339 522.331 129.51 518.789 Q127.705 515.225 124.07 515.225 M124.07 511.521 Q129.881 511.521 132.936 516.127 Q136.015 520.711 136.015 529.461 Q136.015 538.187 132.936 542.794 Q129.881 547.377 124.07 547.377 Q118.26 547.377 115.182 542.794 Q112.126 538.187 112.126 529.461 Q112.126 520.711 115.182 516.127 Q118.26 511.521 124.07 511.521 Z" fill="#000000" fill-rule="evenodd" fill-opacity="1" /><path clip-path="url(#clip480)" d="M63.7467 224.145 Q60.4134 224.145 58.4921 225.927 Q56.5939 227.71 56.5939 230.835 Q56.5939 233.96 58.4921 235.742 Q60.4134 237.524 63.7467 237.524 Q67.08 237.524 69.0013 235.742 Q70.9226 233.936 70.9226 230.835 Q70.9226 227.71 69.0013 225.927 Q67.1032 224.145 63.7467 224.145 M59.0708 222.154 Q56.0615 221.413 54.3717 219.353 Q52.7051 217.293 52.7051 214.33 Q52.7051 210.187 55.6449 207.779 Q58.6078 205.372 63.7467 205.372 Q68.9087 205.372 71.8485 207.779 Q74.7883 210.187 74.7883 214.33 Q74.7883 217.293 73.0985 219.353 Q71.4318 221.413 68.4457 222.154 Q71.8253 222.941 73.7003 225.233 Q75.5985 227.524 75.5985 230.835 Q75.5985 235.858 72.5198 238.543 Q69.4642 241.228 63.7467 241.228 Q58.0291 241.228 54.9504 238.543 Q51.8949 235.858 51.8949 230.835 Q51.8949 227.524 53.793 225.233 Q55.6912 222.941 59.0708 222.154 M57.3578 214.77 Q57.3578 217.455 59.0245 218.96 Q60.7143 220.464 63.7467 220.464 Q66.7559 220.464 68.4457 218.96 Q70.1587 217.455 70.1587 214.77 Q70.1587 212.085 68.4457 210.58 Q66.7559 209.075 63.7467 209.075 Q60.7143 209.075 59.0245 210.58 Q57.3578 212.085 57.3578 214.77 Z" fill="#000000" fill-rule="evenodd" fill-opacity="1" /><path clip-path="url(#clip480)" d="M93.9086 209.075 Q90.2975 209.075 88.4688 212.64 Q86.6632 216.182 86.6632 223.311 Q86.6632 230.418 88.4688 233.983 Q90.2975 237.524 93.9086 237.524 Q97.5428 237.524 99.3483 233.983 Q101.177 230.418 101.177 223.311 Q101.177 216.182 99.3483 212.64 Q97.5428 209.075 93.9086 209.075 M93.9086 205.372 Q99.7187 205.372 102.774 209.978 Q105.853 214.561 105.853 223.311 Q105.853 232.038 102.774 236.645 Q99.7187 241.228 93.9086 241.228 Q88.0984 241.228 85.0197 236.645 Q81.9642 232.038 81.9642 223.311 Q81.9642 214.561 85.0197 209.978 Q88.0984 205.372 93.9086 205.372 Z" fill="#000000" fill-rule="evenodd" fill-opacity="1" /><path clip-path="url(#clip480)" d="M124.07 209.075 Q120.459 209.075 118.631 212.64 Q116.825 216.182 116.825 223.311 Q116.825 230.418 118.631 233.983 Q120.459 237.524 124.07 237.524 Q127.705 237.524 129.51 233.983 Q131.339 230.418 131.339 223.311 Q131.339 216.182 129.51 212.64 Q127.705 209.075 124.07 209.075 M124.07 205.372 Q129.881 205.372 132.936 209.978 Q136.015 214.561 136.015 223.311 Q136.015 232.038 132.936 236.645 Q129.881 241.228 124.07 241.228 Q118.26 241.228 115.182 236.645 Q112.126 232.038 112.126 223.311 Q112.126 214.561 115.182 209.978 Q118.26 205.372 124.07 205.372 Z" fill="#000000" fill-rule="evenodd" fill-opacity="1" /><path clip-path="url(#clip480)" d="M631.092 18.8205 L631.092 65.8515 L640.977 65.8515 Q653.494 65.8515 659.287 60.1802 Q665.12 54.509 665.12 42.2752 Q665.12 30.1225 659.287 24.4918 Q653.494 18.8205 640.977 18.8205 L631.092 18.8205 M622.91 12.096 L639.721 12.096 Q657.302 12.096 665.525 19.4281 Q673.748 26.7198 673.748 42.2752 Q673.748 57.9117 665.485 65.2439 Q657.221 72.576 639.721 72.576 L622.91 72.576 L622.91 12.096 Z" fill="#000000" fill-rule="evenodd" fill-opacity="1" /><path clip-path="url(#clip480)" d="M707.087 49.7694 Q698.054 49.7694 694.57 51.8354 Q691.086 53.9013 691.086 58.8839 Q691.086 62.8538 693.679 65.2034 Q696.312 67.5124 700.809 67.5124 Q707.006 67.5124 710.733 63.1374 Q714.501 58.7219 714.501 51.4303 L714.501 49.7694 L707.087 49.7694 M721.954 46.6907 L721.954 72.576 L714.501 72.576 L714.501 65.6895 Q711.948 69.8214 708.141 71.8063 Q704.333 73.7508 698.824 73.7508 Q691.856 73.7508 687.724 69.8619 Q683.633 65.9325 683.633 59.3701 Q683.633 51.7138 688.737 47.825 Q693.881 43.9361 704.049 43.9361 L714.501 43.9361 L714.501 43.2069 Q714.501 38.0623 711.098 35.2672 Q707.736 32.4315 701.619 32.4315 Q697.73 32.4315 694.044 33.3632 Q690.357 34.295 686.954 36.1584 L686.954 29.2718 Q691.046 27.692 694.894 26.9223 Q698.743 26.1121 702.388 26.1121 Q712.232 26.1121 717.093 31.2163 Q721.954 36.3204 721.954 46.6907 Z" fill="#000000" fill-rule="evenodd" fill-opacity="1" /><path clip-path="url(#clip480)" d="M744.68 14.324 L744.68 27.2059 L760.033 27.2059 L760.033 32.9987 L744.68 32.9987 L744.68 57.6282 Q744.68 63.1779 746.179 64.7578 Q747.718 66.3376 752.377 66.3376 L760.033 66.3376 L760.033 72.576 L752.377 72.576 Q743.748 72.576 740.467 69.3758 Q737.186 66.1351 737.186 57.6282 L737.186 32.9987 L731.717 32.9987 L731.717 27.2059 L737.186 27.2059 L737.186 14.324 L744.68 14.324 Z" fill="#000000" fill-rule="evenodd" fill-opacity="1" /><path clip-path="url(#clip480)" d="M790.455 49.7694 Q781.422 49.7694 777.938 51.8354 Q774.454 53.9013 774.454 58.8839 Q774.454 62.8538 777.047 65.2034 Q779.68 67.5124 784.176 67.5124 Q790.374 67.5124 794.101 63.1374 Q797.868 58.7219 797.868 51.4303 L797.868 49.7694 L790.455 49.7694 M805.322 46.6907 L805.322 72.576 L797.868 72.576 L797.868 65.6895 Q795.316 69.8214 791.508 71.8063 Q787.7 73.7508 782.191 73.7508 Q775.224 73.7508 771.092 69.8619 Q767 65.9325 767 59.3701 Q767 51.7138 772.104 47.825 Q777.249 43.9361 787.417 43.9361 L797.868 43.9361 L797.868 43.2069 Q797.868 38.0623 794.465 35.2672 Q791.103 32.4315 784.986 32.4315 Q781.097 32.4315 777.411 33.3632 Q773.725 34.295 770.322 36.1584 L770.322 29.2718 Q774.413 27.692 778.262 26.9223 Q782.11 26.1121 785.756 26.1121 Q795.6 26.1121 800.461 31.2163 Q805.322 36.3204 805.322 46.6907 Z" fill="#000000" fill-rule="evenodd" fill-opacity="1" /><path clip-path="url(#clip480)" d="M867.665 49.7694 Q858.632 49.7694 855.148 51.8354 Q851.664 53.9013 851.664 58.8839 Q851.664 62.8538 854.257 65.2034 Q856.89 67.5124 861.386 67.5124 Q867.584 67.5124 871.311 63.1374 Q875.078 58.7219 875.078 51.4303 L875.078 49.7694 L867.665 49.7694 M882.532 46.6907 L882.532 72.576 L875.078 72.576 L875.078 65.6895 Q872.526 69.8214 868.718 71.8063 Q864.911 73.7508 859.401 73.7508 Q852.434 73.7508 848.302 69.8619 Q844.211 65.9325 844.211 59.3701 Q844.211 51.7138 849.315 47.825 Q854.459 43.9361 864.627 43.9361 L875.078 43.9361 L875.078 43.2069 Q875.078 38.0623 871.676 35.2672 Q868.313 32.4315 862.197 32.4315 Q858.308 32.4315 854.621 33.3632 Q850.935 34.295 847.532 36.1584 L847.532 29.2718 Q851.624 27.692 855.472 26.9223 Q859.32 26.1121 862.966 26.1121 Q872.81 26.1121 877.671 31.2163 Q882.532 36.3204 882.532 46.6907 Z" fill="#000000" fill-rule="evenodd" fill-opacity="1" /><path clip-path="url(#clip480)" d="M935.599 45.1919 L935.599 72.576 L928.145 72.576 L928.145 45.4349 Q928.145 38.994 925.634 35.7938 Q923.122 32.5936 918.099 32.5936 Q912.063 32.5936 908.579 36.4419 Q905.096 40.2903 905.096 46.9338 L905.096 72.576 L897.601 72.576 L897.601 27.2059 L905.096 27.2059 L905.096 34.2544 Q907.769 30.163 911.375 28.1376 Q915.02 26.1121 919.76 26.1121 Q927.578 26.1121 931.589 30.9732 Q935.599 35.7938 935.599 45.1919 Z" fill="#000000" fill-rule="evenodd" fill-opacity="1" /><path clip-path="url(#clip480)" d="M980.321 34.0924 L980.321 9.54393 L987.775 9.54393 L987.775 72.576 L980.321 72.576 L980.321 65.7705 Q977.971 69.8214 974.366 71.8063 Q970.801 73.7508 965.778 73.7508 Q957.555 73.7508 952.37 67.1883 Q947.225 60.6258 947.225 49.9314 Q947.225 39.2371 952.37 32.6746 Q957.555 26.1121 965.778 26.1121 Q970.801 26.1121 974.366 28.0971 Q977.971 30.0415 980.321 34.0924 M954.922 49.9314 Q954.922 58.1548 958.284 62.8538 Q961.687 67.5124 967.601 67.5124 Q973.515 67.5124 976.918 62.8538 Q980.321 58.1548 980.321 49.9314 Q980.321 41.7081 976.918 37.0496 Q973.515 32.3505 967.601 32.3505 Q961.687 32.3505 958.284 37.0496 Q954.922 41.7081 954.922 49.9314 Z" fill="#000000" fill-rule="evenodd" fill-opacity="1" /><path clip-path="url(#clip480)" d="M1021.44 12.096 L1072.6 12.096 L1072.6 18.9825 L1051.13 18.9825 L1051.13 72.576 L1042.91 72.576 L1042.91 18.9825 L1021.44 18.9825 L1021.44 12.096 Z" fill="#000000" fill-rule="evenodd" fill-opacity="1" /><path clip-path="url(#clip480)" d="M1094.27 34.1734 Q1093.02 33.4443 1091.52 33.1202 Q1090.06 32.7556 1088.28 32.7556 Q1081.96 32.7556 1078.56 36.8875 Q1075.19 40.9789 1075.19 48.6757 L1075.19 72.576 L1067.7 72.576 L1067.7 27.2059 L1075.19 27.2059 L1075.19 34.2544 Q1077.54 30.1225 1081.31 28.1376 Q1085.08 26.1121 1090.46 26.1121 Q1091.23 26.1121 1092.17 26.2337 Q1093.1 26.3147 1094.23 26.5172 L1094.27 34.1734 Z" fill="#000000" fill-rule="evenodd" fill-opacity="1" /><path clip-path="url(#clip480)" d="M1101.32 54.671 L1101.32 27.2059 L1108.78 27.2059 L1108.78 54.3874 Q1108.78 60.8284 1111.29 64.0691 Q1113.8 67.2693 1118.82 67.2693 Q1124.86 67.2693 1128.34 63.421 Q1131.87 59.5726 1131.87 52.9291 L1131.87 27.2059 L1139.32 27.2059 L1139.32 72.576 L1131.87 72.576 L1131.87 65.6084 Q1129.15 69.7404 1125.55 71.7658 Q1121.98 73.7508 1117.24 73.7508 Q1109.42 73.7508 1105.37 68.8897 Q1101.32 64.0286 1101.32 54.671 M1120.08 26.1121 L1120.08 26.1121 Z" fill="#000000" fill-rule="evenodd" fill-opacity="1" /><path clip-path="url(#clip480)" d="M1193.48 48.0275 L1193.48 51.6733 L1159.21 51.6733 Q1159.69 59.3701 1163.83 63.421 Q1168 67.4314 1175.41 67.4314 Q1179.71 67.4314 1183.72 66.3781 Q1187.77 65.3249 1191.74 63.2184 L1191.74 70.267 Q1187.73 71.9684 1183.51 72.8596 Q1179.3 73.7508 1174.97 73.7508 Q1164.11 73.7508 1157.75 67.4314 Q1151.43 61.1119 1151.43 50.3365 Q1151.43 39.1965 1157.43 32.6746 Q1163.46 26.1121 1173.67 26.1121 Q1182.83 26.1121 1188.13 32.0264 Q1193.48 37.9003 1193.48 48.0275 M1186.03 45.84 Q1185.94 39.7232 1182.58 36.0774 Q1179.26 32.4315 1173.75 32.4315 Q1167.51 32.4315 1163.75 35.9558 Q1160.02 39.4801 1159.45 45.8805 L1186.03 45.84 Z" fill="#000000" fill-rule="evenodd" fill-opacity="1" /><path clip-path="url(#clip480)" d="M1268.66 14.0809 L1268.66 22.0612 Q1264.01 19.8332 1259.87 18.7395 Q1255.74 17.6457 1251.89 17.6457 Q1245.21 17.6457 1241.56 20.2383 Q1237.96 22.8309 1237.96 27.611 Q1237.96 31.6214 1240.35 33.6873 Q1242.78 35.7128 1249.5 36.9686 L1254.45 37.9813 Q1263.6 39.7232 1267.94 44.1387 Q1272.31 48.5136 1272.31 55.8863 Q1272.31 64.6767 1266.4 69.2137 Q1260.52 73.7508 1249.14 73.7508 Q1244.84 73.7508 1239.98 72.7785 Q1235.16 71.8063 1229.98 69.9024 L1229.98 61.4765 Q1234.96 64.2716 1239.74 65.6895 Q1244.52 67.1073 1249.14 67.1073 Q1256.15 67.1073 1259.95 64.3527 Q1263.76 61.598 1263.76 56.4939 Q1263.76 52.0379 1261.01 49.5264 Q1258.29 47.0148 1252.06 45.759 L1247.07 44.7868 Q1237.92 42.9639 1233.83 39.075 Q1229.74 35.1862 1229.74 28.2591 Q1229.74 20.2383 1235.37 15.6203 Q1241.04 11.0023 1250.96 11.0023 Q1255.22 11.0023 1259.63 11.7719 Q1264.05 12.5416 1268.66 14.0809 Z" fill="#000000" fill-rule="evenodd" fill-opacity="1" /><path clip-path="url(#clip480)" d="M1292.12 14.324 L1292.12 27.2059 L1307.47 27.2059 L1307.47 32.9987 L1292.12 32.9987 L1292.12 57.6282 Q1292.12 63.1779 1293.62 64.7578 Q1295.16 66.3376 1299.82 66.3376 L1307.47 66.3376 L1307.47 72.576 L1299.82 72.576 Q1291.19 72.576 1287.91 69.3758 Q1284.62 66.1351 1284.62 57.6282 L1284.62 32.9987 L1279.16 32.9987 L1279.16 27.2059 L1284.62 27.2059 L1284.62 14.324 L1292.12 14.324 Z" fill="#000000" fill-rule="evenodd" fill-opacity="1" /><path clip-path="url(#clip480)" d="M1337.89 49.7694 Q1328.86 49.7694 1325.38 51.8354 Q1321.89 53.9013 1321.89 58.8839 Q1321.89 62.8538 1324.49 65.2034 Q1327.12 67.5124 1331.62 67.5124 Q1337.81 67.5124 1341.54 63.1374 Q1345.31 58.7219 1345.31 51.4303 L1345.31 49.7694 L1337.89 49.7694 M1352.76 46.6907 L1352.76 72.576 L1345.31 72.576 L1345.31 65.6895 Q1342.76 69.8214 1338.95 71.8063 Q1335.14 73.7508 1329.63 73.7508 Q1322.66 73.7508 1318.53 69.8619 Q1314.44 65.9325 1314.44 59.3701 Q1314.44 51.7138 1319.54 47.825 Q1324.69 43.9361 1334.86 43.9361 L1345.31 43.9361 L1345.31 43.2069 Q1345.31 38.0623 1341.9 35.2672 Q1338.54 32.4315 1332.43 32.4315 Q1328.54 32.4315 1324.85 33.3632 Q1321.16 34.295 1317.76 36.1584 L1317.76 29.2718 Q1321.85 27.692 1325.7 26.9223 Q1329.55 26.1121 1333.2 26.1121 Q1343.04 26.1121 1347.9 31.2163 Q1352.76 36.3204 1352.76 46.6907 Z" fill="#000000" fill-rule="evenodd" fill-opacity="1" /><path clip-path="url(#clip480)" d="M1375.49 14.324 L1375.49 27.2059 L1390.84 27.2059 L1390.84 32.9987 L1375.49 32.9987 L1375.49 57.6282 Q1375.49 63.1779 1376.99 64.7578 Q1378.52 66.3376 1383.18 66.3376 L1390.84 66.3376 L1390.84 72.576 L1383.18 72.576 Q1374.55 72.576 1371.27 69.3758 Q1367.99 66.1351 1367.99 57.6282 L1367.99 32.9987 L1362.52 32.9987 L1362.52 27.2059 L1367.99 27.2059 L1367.99 14.324 L1375.49 14.324 Z" fill="#000000" fill-rule="evenodd" fill-opacity="1" /><path clip-path="url(#clip480)" d="M1400.64 27.2059 L1408.1 27.2059 L1408.1 72.576 L1400.64 72.576 L1400.64 27.2059 M1400.64 9.54393 L1408.1 9.54393 L1408.1 18.9825 L1400.64 18.9825 L1400.64 9.54393 Z" fill="#000000" fill-rule="evenodd" fill-opacity="1" /><path clip-path="url(#clip480)" d="M1452.62 28.5427 L1452.62 35.5912 Q1449.46 33.9709 1446.05 33.1607 Q1442.65 32.3505 1439 32.3505 Q1433.46 32.3505 1430.66 34.0519 Q1427.91 35.7533 1427.91 39.156 Q1427.91 41.7486 1429.89 43.2475 Q1431.88 44.7058 1437.87 46.0426 L1440.42 46.6097 Q1448.36 48.3111 1451.68 51.4303 Q1455.05 54.509 1455.05 60.0587 Q1455.05 66.3781 1450.02 70.0644 Q1445.04 73.7508 1436.29 73.7508 Q1432.64 73.7508 1428.67 73.0216 Q1424.75 72.3329 1420.37 70.9151 L1420.37 63.2184 Q1424.5 65.3654 1428.51 66.4591 Q1432.52 67.5124 1436.45 67.5124 Q1441.72 67.5124 1444.55 65.73 Q1447.39 63.9071 1447.39 60.6258 Q1447.39 57.5877 1445.32 55.9673 Q1443.3 54.3469 1436.37 52.8481 L1433.78 52.2405 Q1426.85 50.7821 1423.77 47.7845 Q1420.69 44.7463 1420.69 39.4801 Q1420.69 33.0797 1425.23 29.5959 Q1429.77 26.1121 1438.11 26.1121 Q1442.25 26.1121 1445.89 26.7198 Q1449.54 27.3274 1452.62 28.5427 Z" fill="#000000" fill-rule="evenodd" fill-opacity="1" /><path clip-path="url(#clip480)" d="M1474.29 14.324 L1474.29 27.2059 L1489.64 27.2059 L1489.64 32.9987 L1474.29 32.9987 L1474.29 57.6282 Q1474.29 63.1779 1475.79 64.7578 Q1477.33 66.3376 1481.98 66.3376 L1489.64 66.3376 L1489.64 72.576 L1481.98 72.576 Q1473.36 72.576 1470.08 69.3758 Q1466.79 66.1351 1466.79 57.6282 L1466.79 32.9987 L1461.33 32.9987 L1461.33 27.2059 L1466.79 27.2059 L1466.79 14.324 L1474.29 14.324 Z" fill="#000000" fill-rule="evenodd" fill-opacity="1" /><path clip-path="url(#clip480)" d="M1499.44 27.2059 L1506.9 27.2059 L1506.9 72.576 L1499.44 72.576 L1499.44 27.2059 M1499.44 9.54393 L1506.9 9.54393 L1506.9 18.9825 L1499.44 18.9825 L1499.44 9.54393 Z" fill="#000000" fill-rule="evenodd" fill-opacity="1" /><path clip-path="url(#clip480)" d="M1555.14 28.9478 L1555.14 35.9153 Q1551.98 34.1734 1548.78 33.3227 Q1545.62 32.4315 1542.38 32.4315 Q1535.13 32.4315 1531.12 37.0496 Q1527.11 41.6271 1527.11 49.9314 Q1527.11 58.2358 1531.12 62.8538 Q1535.13 67.4314 1542.38 67.4314 Q1545.62 67.4314 1548.78 66.5807 Q1551.98 65.6895 1555.14 63.9476 L1555.14 70.8341 Q1552.03 72.2924 1548.66 73.0216 Q1545.34 73.7508 1541.57 73.7508 Q1531.32 73.7508 1525.29 67.3098 Q1519.25 60.8689 1519.25 49.9314 Q1519.25 38.832 1525.33 32.472 Q1531.45 26.1121 1542.06 26.1121 Q1545.5 26.1121 1548.78 26.8413 Q1552.07 27.5299 1555.14 28.9478 Z" fill="#000000" fill-rule="evenodd" fill-opacity="1" /><path clip-path="url(#clip480)" d="M1588.73 49.7694 Q1579.69 49.7694 1576.21 51.8354 Q1572.73 53.9013 1572.73 58.8839 Q1572.73 62.8538 1575.32 65.2034 Q1577.95 67.5124 1582.45 67.5124 Q1588.65 67.5124 1592.37 63.1374 Q1596.14 58.7219 1596.14 51.4303 L1596.14 49.7694 L1588.73 49.7694 M1603.59 46.6907 L1603.59 72.576 L1596.14 72.576 L1596.14 65.6895 Q1593.59 69.8214 1589.78 71.8063 Q1585.97 73.7508 1580.46 73.7508 Q1573.49 73.7508 1569.36 69.8619 Q1565.27 65.9325 1565.27 59.3701 Q1565.27 51.7138 1570.38 47.825 Q1575.52 43.9361 1585.69 43.9361 L1596.14 43.9361 L1596.14 43.2069 Q1596.14 38.0623 1592.74 35.2672 Q1589.37 32.4315 1583.26 32.4315 Q1579.37 32.4315 1575.68 33.3632 Q1572 34.295 1568.59 36.1584 L1568.59 29.2718 Q1572.68 27.692 1576.53 26.9223 Q1580.38 26.1121 1584.03 26.1121 Q1593.87 26.1121 1598.73 31.2163 Q1603.59 36.3204 1603.59 46.6907 Z" fill="#000000" fill-rule="evenodd" fill-opacity="1" /><path clip-path="url(#clip480)" d="M1618.95 9.54393 L1626.4 9.54393 L1626.4 72.576 L1618.95 72.576 L1618.95 9.54393 Z" fill="#000000" fill-rule="evenodd" fill-opacity="1" /><path clip-path="url(#clip480)" d="M1668.69 12.096 L1680.88 12.096 L1696.32 53.2532 L1711.83 12.096 L1724.03 12.096 L1724.03 72.576 L1716.05 72.576 L1716.05 19.4686 L1700.45 60.9499 L1692.23 60.9499 L1676.63 19.4686 L1676.63 72.576 L1668.69 72.576 L1668.69 12.096 Z" fill="#000000" fill-rule="evenodd" fill-opacity="1" /><path clip-path="url(#clip480)" d="M1757.53 32.4315 Q1751.53 32.4315 1748.05 37.1306 Q1744.56 41.7891 1744.56 49.9314 Q1744.56 58.0738 1748.01 62.7728 Q1751.49 67.4314 1757.53 67.4314 Q1763.48 67.4314 1766.97 62.7323 Q1770.45 58.0333 1770.45 49.9314 Q1770.45 41.8701 1766.97 37.1711 Q1763.48 32.4315 1757.53 32.4315 M1757.53 26.1121 Q1767.25 26.1121 1772.8 32.4315 Q1778.35 38.7509 1778.35 49.9314 Q1778.35 61.0714 1772.8 67.4314 Q1767.25 73.7508 1757.53 73.7508 Q1747.76 73.7508 1742.21 67.4314 Q1736.71 61.0714 1736.71 49.9314 Q1736.71 38.7509 1742.21 32.4315 Q1747.76 26.1121 1757.53 26.1121 Z" fill="#000000" fill-rule="evenodd" fill-opacity="1" /><path clip-path="url(#clip480)" d="M1820.56 34.0924 L1820.56 9.54393 L1828.01 9.54393 L1828.01 72.576 L1820.56 72.576 L1820.56 65.7705 Q1818.21 69.8214 1814.6 71.8063 Q1811.04 73.7508 1806.02 73.7508 Q1797.79 73.7508 1792.61 67.1883 Q1787.46 60.6258 1787.46 49.9314 Q1787.46 39.2371 1792.61 32.6746 Q1797.79 26.1121 1806.02 26.1121 Q1811.04 26.1121 1814.6 28.0971 Q1818.21 30.0415 1820.56 34.0924 M1795.16 49.9314 Q1795.16 58.1548 1798.52 62.8538 Q1801.93 67.5124 1807.84 67.5124 Q1813.75 67.5124 1817.16 62.8538 Q1820.56 58.1548 1820.56 49.9314 Q1820.56 41.7081 1817.16 37.0496 Q1813.75 32.3505 1807.84 32.3505 Q1801.93 32.3505 1798.52 37.0496 Q1795.16 41.7081 1795.16 49.9314 Z" fill="#000000" fill-rule="evenodd" fill-opacity="1" /><path clip-path="url(#clip480)" d="M1882.17 48.0275 L1882.17 51.6733 L1847.9 51.6733 Q1848.39 59.3701 1852.52 63.421 Q1856.69 67.4314 1864.11 67.4314 Q1868.4 67.4314 1872.41 66.3781 Q1876.46 65.3249 1880.43 63.2184 L1880.43 70.267 Q1876.42 71.9684 1872.21 72.8596 Q1868 73.7508 1863.66 73.7508 Q1852.8 73.7508 1846.44 67.4314 Q1840.13 61.1119 1840.13 50.3365 Q1840.13 39.1965 1846.12 32.6746 Q1852.16 26.1121 1862.36 26.1121 Q1871.52 26.1121 1876.83 32.0264 Q1882.17 37.9003 1882.17 48.0275 M1874.72 45.84 Q1874.64 39.7232 1871.28 36.0774 Q1867.96 32.4315 1862.45 32.4315 Q1856.21 32.4315 1852.44 35.9558 Q1848.71 39.4801 1848.15 45.8805 L1874.72 45.84 Z" fill="#000000" fill-rule="evenodd" fill-opacity="1" /><path clip-path="url(#clip480)" d="M1894.41 9.54393 L1901.86 9.54393 L1901.86 72.576 L1894.41 72.576 L1894.41 9.54393 Z" fill="#000000" fill-rule="evenodd" fill-opacity="1" /><polyline clip-path="url(#clip482)" style="stroke:#009af9; stroke-linecap:butt; stroke-linejoin:round; stroke-width:4; stroke-opacity:1; fill:none" points="
  748.06,1447.87 748.06,1325.41 773.776,1325.41 773.776,1279.49 799.492,1279.49 799.492,1218.26 825.208,1218.26 825.208,1202.95 850.925,1202.95 850.925,1126.42 
  876.641,1126.42 876.641,1111.11 902.357,1111.11 902.357,1003.96 928.074,1003.96 928.074,743.73 953.79,743.73 953.79,912.112 979.506,912.112 979.506,713.115 
  1005.22,713.115 1005.22,1003.96 1030.94,1003.96 1030.94,896.805 1056.66,896.805 1082.37,896.805 1082.37,804.96 1108.09,804.96 1108.09,1080.49 
  1133.8,1080.49 1133.8,1187.65 1159.52,1187.65 1159.52,1157.03 1185.24,1157.03 1185.24,1264.18 1210.95,1264.18 1210.95,1371.34 1236.67,1371.34 1236.67,1310.11 
  1262.39,1310.11 1262.39,1417.26 1288.1,1417.26 1288.1,1401.95 1313.82,1401.95 1339.53,1401.95 1339.53,1417.26 1365.25,1417.26 
  1390.97,1417.26 1390.97,1447.87 1416.68,1447.87 1416.68,1417.26 1442.4,1417.26 1442.4,1325.41 1468.12,1325.41 1468.12,1417.26 1493.83,1417.26 1493.83,1356.03 
  1519.55,1356.03 1519.55,1218.26 1545.26,1218.26 1545.26,1065.19 1570.98,1065.19 1570.98,1126.42 1596.7,1126.42 1596.7,896.805 1622.41,896.805 1622.41,759.038 
  1648.13,759.038 1648.13,728.423 1673.85,728.423 1673.85,590.656 1699.56,590.656 1699.56,391.659 1725.28,391.659 1725.28,330.429 1750.99,330.429 1750.99,207.969 
  1776.71,207.969 1776.71,177.354 1802.43,177.354 1802.43,406.966 1828.14,406.966 1828.14,162.047 1853.86,162.047 1853.86,713.115 1879.58,713.115 1879.58,682.5 
  1905.29,682.5 1905.29,605.963 1931.01,605.963 1931.01,942.727 1956.73,942.727 1956.73,1034.57 1982.44,1034.57 1982.44,1080.49 2008.16,1080.49 2008.16,1248.88 
  2033.87,1248.88 2033.87,1294.8 2059.59,1294.8 2059.59,1417.26 2085.31,1417.26 2085.31,1340.72 2111.02,1340.72 2111.02,1432.57 2136.74,1432.57 2136.74,1417.26 
  2162.46,1417.26 2188.17,1417.26 2213.89,1417.26 2213.89,1432.57 2239.6,1432.57 2239.6,1447.87 2265.32,1447.87 
  2291.04,1447.87 
  "/>
<polyline clip-path="url(#clip482)" style="stroke:#e26f46; stroke-linecap:butt; stroke-linejoin:round; stroke-width:4; stroke-opacity:1; fill:none" points="
  233.734,1447.87 236.306,1447.87 238.877,1447.87 241.449,1447.87 244.02,1447.87 246.592,1447.87 249.164,1447.87 251.735,1447.87 254.307,1447.87 256.879,1447.87 
  259.45,1447.87 262.022,1447.87 264.593,1447.87 267.165,1447.87 269.737,1447.87 272.308,1447.87 274.88,1447.87 277.452,1447.87 280.023,1447.87 282.595,1447.87 
  285.166,1447.87 287.738,1447.87 290.31,1447.87 292.881,1447.87 295.453,1447.87 298.025,1447.87 300.596,1447.87 303.168,1447.87 305.74,1447.87 308.311,1447.87 
  310.883,1447.87 313.454,1447.87 316.026,1447.87 318.598,1447.87 321.169,1447.87 323.741,1447.87 326.313,1447.87 328.884,1447.87 331.456,1447.87 334.027,1447.87 
  336.599,1447.87 339.171,1447.87 341.742,1447.87 344.314,1447.87 346.886,1447.87 349.457,1447.87 352.029,1447.87 354.6,1447.87 357.172,1447.87 359.744,1447.87 
  362.315,1447.87 364.887,1447.87 367.459,1447.87 370.03,1447.87 372.602,1447.87 375.173,1447.87 377.745,1447.87 380.317,1447.87 382.888,1447.87 385.46,1447.87 
  388.032,1447.87 390.603,1447.87 393.175,1447.87 395.747,1447.87 398.318,1447.86 400.89,1447.86 403.461,1447.86 406.033,1447.86 408.605,1447.86 411.176,1447.86 
  413.748,1447.86 416.32,1447.86 418.891,1447.85 421.463,1447.85 424.034,1447.85 426.606,1447.85 429.178,1447.85 431.749,1447.84 434.321,1447.84 436.893,1447.84 
  439.464,1447.83 442.036,1447.83 444.607,1447.83 447.179,1447.82 449.751,1447.82 452.322,1447.81 454.894,1447.81 457.466,1447.8 460.037,1447.8 462.609,1447.79 
  465.18,1447.78 467.752,1447.77 470.324,1447.77 472.895,1447.76 475.467,1447.75 478.039,1447.74 480.61,1447.72 483.182,1447.71 485.754,1447.7 488.325,1447.68 
  490.897,1447.67 493.468,1447.65 496.04,1447.63 498.612,1447.61 501.183,1447.59 503.755,1447.57 506.327,1447.54 508.898,1447.52 511.47,1447.49 514.041,1447.46 
  516.613,1447.43 519.185,1447.39 521.756,1447.35 524.328,1447.31 526.9,1447.27 529.471,1447.22 532.043,1447.17 534.614,1447.12 537.186,1447.06 539.758,1447 
  542.329,1446.94 544.901,1446.87 547.473,1446.79 550.044,1446.71 552.616,1446.63 555.187,1446.54 557.759,1446.44 560.331,1446.34 562.902,1446.23 565.474,1446.11 
  568.046,1445.99 570.617,1445.85 573.189,1445.71 575.761,1445.56 578.332,1445.41 580.904,1445.24 583.475,1445.06 586.047,1444.87 588.619,1444.66 591.19,1444.45 
  593.762,1444.22 596.334,1443.98 598.905,1443.73 601.477,1443.46 604.048,1443.17 606.62,1442.87 609.192,1442.55 611.763,1442.22 614.335,1441.86 616.907,1441.49 
  619.478,1441.09 622.05,1440.67 624.621,1440.23 627.193,1439.77 629.765,1439.28 632.336,1438.76 634.908,1438.22 637.48,1437.65 640.051,1437.05 642.623,1436.42 
  645.194,1435.76 647.766,1435.06 650.338,1434.33 652.909,1433.57 655.481,1432.76 658.053,1431.92 660.624,1431.04 663.196,1430.12 665.768,1429.15 668.339,1428.14 
  670.911,1427.08 673.482,1425.98 676.054,1424.82 678.626,1423.61 681.197,1422.36 683.769,1421.04 686.341,1419.67 688.912,1418.24 691.484,1416.76 694.055,1415.21 
  696.627,1413.59 699.199,1411.91 701.77,1410.17 704.342,1408.35 706.914,1406.47 709.485,1404.51 712.057,1402.48 714.628,1400.37 717.2,1398.18 719.772,1395.92 
  722.343,1393.57 724.915,1391.14 727.487,1388.62 730.058,1386.02 732.63,1383.33 735.201,1380.55 737.773,1377.67 740.345,1374.7 742.916,1371.64 745.488,1368.48 
  748.06,1365.23 750.631,1361.87 753.203,1358.41 755.775,1354.86 758.346,1351.2 760.918,1347.43 763.489,1343.56 766.061,1339.59 768.633,1335.51 771.204,1331.32 
  773.776,1327.02 776.348,1322.62 778.919,1318.1 781.491,1313.48 784.062,1308.75 786.634,1303.91 789.206,1298.96 791.777,1293.9 794.349,1288.74 796.921,1283.46 
  799.492,1278.08 802.064,1272.6 804.635,1267 807.207,1261.31 809.779,1255.51 812.35,1249.61 814.922,1243.62 817.494,1237.52 820.065,1231.33 822.637,1225.05 
  825.208,1218.68 827.78,1212.22 830.352,1205.67 832.923,1199.04 835.495,1192.33 838.067,1185.55 840.638,1178.7 843.21,1171.77 845.782,1164.78 848.353,1157.73 
  850.925,1150.62 853.496,1143.46 856.068,1136.26 858.64,1129.01 861.211,1121.72 863.783,1114.4 866.355,1107.05 868.926,1099.67 871.498,1092.29 874.069,1084.88 
  876.641,1077.48 879.213,1070.07 881.784,1062.67 884.356,1055.28 886.928,1047.91 889.499,1040.56 892.071,1033.25 894.642,1025.97 897.214,1018.74 899.786,1011.55 
  902.357,1004.43 904.929,997.367 907.501,990.376 910.072,983.461 912.644,976.631 915.215,969.892 917.787,963.25 920.359,956.712 922.93,950.286 925.502,943.976 
  928.074,937.791 930.645,931.736 933.217,925.819 935.789,920.045 938.36,914.42 940.932,908.951 943.503,903.643 946.075,898.503 948.647,893.537 951.218,888.749 
  953.79,884.145 956.362,879.731 958.933,875.511 961.505,871.491 964.076,867.674 966.648,864.065 969.22,860.669 971.791,857.49 974.363,854.531 976.935,851.795 
  979.506,849.286 982.078,847.007 984.649,844.961 987.221,843.149 989.793,841.575 992.364,840.24 994.936,839.145 997.508,838.292 1000.08,837.682 1002.65,837.316 
  1005.22,837.194 1007.79,837.316 1010.37,837.682 1012.94,838.292 1015.51,839.145 1018.08,840.24 1020.65,841.575 1023.22,843.149 1025.8,844.961 1028.37,847.007 
  1030.94,849.286 1033.51,851.795 1036.08,854.531 1038.65,857.49 1041.23,860.669 1043.8,864.065 1046.37,867.674 1048.94,871.49 1051.51,875.511 1054.08,879.731 
  1056.66,884.145 1059.23,888.749 1061.8,893.537 1064.37,898.503 1066.94,903.643 1069.51,908.95 1072.08,914.419 1074.66,920.044 1077.23,925.818 1079.8,931.736 
  1082.37,937.79 1084.94,943.976 1087.51,950.285 1090.09,956.711 1092.66,963.249 1095.23,969.891 1097.8,976.63 1100.37,983.46 1102.94,990.374 1105.52,997.366 
  1108.09,1004.43 1110.66,1011.55 1113.23,1018.74 1115.8,1025.97 1118.37,1033.25 1120.95,1040.56 1123.52,1047.91 1126.09,1055.28 1128.66,1062.67 1131.23,1070.07 
  1133.8,1077.47 1136.38,1084.88 1138.95,1092.28 1141.52,1099.67 1144.09,1107.04 1146.66,1114.39 1149.23,1121.71 1151.81,1129 1154.38,1136.25 1156.95,1143.45 
  1159.52,1150.61 1162.09,1157.72 1164.66,1164.77 1167.24,1171.75 1169.81,1178.68 1172.38,1185.53 1174.95,1192.31 1177.52,1199.02 1180.09,1205.65 1182.66,1212.19 
  1185.24,1218.65 1187.81,1225.02 1190.38,1231.3 1192.95,1237.48 1195.52,1243.57 1198.09,1249.57 1200.67,1255.46 1203.24,1261.25 1205.81,1266.94 1208.38,1272.53 
  1210.95,1278.01 1213.52,1283.38 1216.1,1288.64 1218.67,1293.8 1221.24,1298.85 1223.81,1303.79 1226.38,1308.62 1228.95,1313.34 1231.53,1317.95 1234.1,1322.45 
  1236.67,1326.84 1239.24,1331.12 1241.81,1335.29 1244.38,1339.36 1246.96,1343.31 1249.53,1347.16 1252.1,1350.9 1254.67,1354.54 1257.24,1358.07 1259.81,1361.49 
  1262.39,1364.82 1264.96,1368.04 1267.53,1371.16 1270.1,1374.18 1272.67,1377.11 1275.24,1379.94 1277.82,1382.67 1280.39,1385.31 1282.96,1387.86 1285.53,1390.31 
  1288.1,1392.68 1290.67,1394.95 1293.24,1397.14 1295.82,1399.25 1298.39,1401.27 1300.96,1403.21 1303.53,1405.07 1306.1,1406.85 1308.67,1408.55 1311.25,1410.17 
  1313.82,1411.72 1316.39,1413.19 1318.96,1414.59 1321.53,1415.92 1324.1,1417.18 1326.68,1418.37 1329.25,1419.49 1331.82,1420.54 1334.39,1421.53 1336.96,1422.45 
  1339.53,1423.31 1342.11,1424.1 1344.68,1424.83 1347.25,1425.5 1349.82,1426.1 1352.39,1426.65 1354.96,1427.13 1357.54,1427.55 1360.11,1427.91 1362.68,1428.22 
  1365.25,1428.46 1367.82,1428.64 1370.39,1428.76 1372.97,1428.82 1375.54,1428.82 1378.11,1428.76 1380.68,1428.64 1383.25,1428.45 1385.82,1428.21 1388.4,1427.9 
  1390.97,1427.52 1393.54,1427.08 1396.11,1426.58 1398.68,1426 1401.25,1425.36 1403.82,1424.65 1406.4,1423.87 1408.97,1423.01 1411.54,1422.08 1414.11,1421.07 
  1416.68,1419.99 1419.25,1418.83 1421.83,1417.58 1424.4,1416.25 1426.97,1414.84 1429.54,1413.33 1432.11,1411.74 1434.68,1410.05 1437.26,1408.27 1439.83,1406.39 
  1442.4,1404.4 1444.97,1402.32 1447.54,1400.12 1450.11,1397.82 1452.69,1395.41 1455.26,1392.87 1457.83,1390.22 1460.4,1387.45 1462.97,1384.56 1465.54,1381.53 
  1468.12,1378.38 1470.69,1375.08 1473.26,1371.65 1475.83,1368.08 1478.4,1364.37 1480.97,1360.5 1483.55,1356.48 1486.12,1352.31 1488.69,1347.98 1491.26,1343.48 
  1493.83,1338.82 1496.4,1333.99 1498.98,1328.99 1501.55,1323.81 1504.12,1318.45 1506.69,1312.91 1509.26,1307.19 1511.83,1301.28 1514.4,1295.17 1516.98,1288.87 
  1519.55,1282.38 1522.12,1275.68 1524.69,1268.78 1527.26,1261.68 1529.83,1254.37 1532.41,1246.85 1534.98,1239.13 1537.55,1231.19 1540.12,1223.03 1542.69,1214.66 
  1545.26,1206.08 1547.84,1197.28 1550.41,1188.25 1552.98,1179.02 1555.55,1169.56 1558.12,1159.88 1560.69,1149.99 1563.27,1139.88 1565.84,1129.55 1568.41,1119.01 
  1570.98,1108.25 1573.55,1097.28 1576.12,1086.1 1578.7,1074.72 1581.27,1063.13 1583.84,1051.33 1586.41,1039.34 1588.98,1027.15 1591.55,1014.78 1594.13,1002.21 
  1596.7,989.468 1599.27,976.548 1601.84,963.456 1604.41,950.201 1606.98,936.786 1609.56,923.22 1612.13,909.509 1614.7,895.66 1617.27,881.682 1619.84,867.582 
  1622.41,853.368 1624.99,839.05 1627.56,824.636 1630.13,810.136 1632.7,795.56 1635.27,780.917 1637.84,766.218 1640.41,751.474 1642.99,736.695 1645.56,721.893 
  1648.13,707.08 1650.7,692.266 1653.27,677.464 1655.84,662.687 1658.42,647.946 1660.99,633.254 1663.56,618.624 1666.13,604.069 1668.7,589.602 1671.27,575.236 
  1673.85,560.984 1676.42,546.86 1678.99,532.877 1681.56,519.049 1684.13,505.389 1686.7,491.91 1689.28,478.626 1691.85,465.551 1694.42,452.698 1696.99,440.079 
  1699.56,427.709 1702.13,415.6 1704.71,403.764 1707.28,392.216 1709.85,380.966 1712.42,370.028 1714.99,359.413 1717.56,349.134 1720.14,339.2 1722.71,329.625 
  1725.28,320.417 1727.85,311.589 1730.42,303.149 1732.99,295.108 1735.57,287.475 1738.14,280.258 1740.71,273.466 1743.28,267.107 1745.85,261.188 1748.42,255.717 
  1750.99,250.699 1753.57,246.141 1756.14,242.049 1758.71,238.426 1761.28,235.277 1763.85,232.606 1766.42,230.417 1769,228.711 1771.57,227.492 1774.14,226.759 
  1776.71,226.515 1779.28,226.759 1781.85,227.492 1784.43,228.711 1787,230.417 1789.57,232.606 1792.14,235.277 1794.71,238.426 1797.28,242.049 1799.86,246.142 
  1802.43,250.699 1805,255.717 1807.57,261.188 1810.14,267.107 1812.71,273.466 1815.29,280.258 1817.86,287.475 1820.43,295.108 1823,303.149 1825.57,311.589 
  1828.14,320.417 1830.72,329.625 1833.29,339.2 1835.86,349.134 1838.43,359.413 1841,370.028 1843.57,380.966 1846.15,392.216 1848.72,403.765 1851.29,415.6 
  1853.86,427.709 1856.43,440.079 1859,452.698 1861.57,465.551 1864.15,478.627 1866.72,491.911 1869.29,505.389 1871.86,519.05 1874.43,532.878 1877,546.861 
  1879.58,560.985 1882.15,575.237 1884.72,589.603 1887.29,604.07 1889.86,618.626 1892.43,633.256 1895.01,647.947 1897.58,662.689 1900.15,677.466 1902.72,692.268 
  1905.29,707.082 1907.86,721.896 1910.44,736.698 1913.01,751.477 1915.58,766.221 1918.15,780.921 1920.72,795.564 1923.29,810.141 1925.87,824.641 1928.44,839.055 
  1931.01,853.374 1933.58,867.588 1936.15,881.689 1938.72,895.668 1941.3,909.518 1943.87,923.23 1946.44,936.797 1949.01,950.212 1951.58,963.469 1954.15,976.562 
  1956.73,989.484 1959.3,1002.23 1961.87,1014.79 1964.44,1027.17 1967.01,1039.36 1969.58,1051.36 1972.15,1063.15 1974.73,1074.75 1977.3,1086.14 1979.87,1097.32 
  1982.44,1108.29 1985.01,1119.05 1987.58,1129.6 1990.16,1139.93 1992.73,1150.04 1995.3,1159.94 1997.87,1169.62 2000.44,1179.09 2003.01,1188.33 2005.59,1197.36 
  2008.16,1206.17 2010.73,1214.76 2013.3,1223.14 2015.87,1231.3 2018.44,1239.25 2021.02,1246.99 2023.59,1254.52 2026.16,1261.84 2028.73,1268.96 2031.3,1275.87 
  2033.87,1282.58 2036.45,1289.09 2039.02,1295.41 2041.59,1301.54 2044.16,1307.47 2046.73,1313.22 2049.3,1318.78 2051.88,1324.17 2054.45,1329.37 2057.02,1334.41 
  2059.59,1339.27 2062.16,1343.96 2064.73,1348.5 2067.31,1352.87 2069.88,1357.09 2072.45,1361.15 2075.02,1365.07 2077.59,1368.84 2080.16,1372.46 2082.73,1375.96 
  2085.31,1379.31 2087.88,1382.54 2090.45,1385.64 2093.02,1388.61 2095.59,1391.47 2098.16,1394.21 2100.74,1396.84 2103.31,1399.36 2105.88,1401.77 2108.45,1404.08 
  2111.02,1406.29 2113.59,1408.4 2116.17,1410.43 2118.74,1412.36 2121.31,1414.21 2123.88,1415.97 2126.45,1417.65 2129.02,1419.26 2131.6,1420.79 2134.17,1422.25 
  2136.74,1423.64 2139.31,1424.96 2141.88,1426.22 2144.45,1427.42 2147.03,1428.57 2149.6,1429.65 2152.17,1430.68 2154.74,1431.66 2157.31,1432.59 2159.88,1433.47 
  2162.46,1434.31 2165.03,1435.1 2167.6,1435.85 2170.17,1436.56 2172.74,1437.23 2175.31,1437.87 2177.89,1438.47 2180.46,1439.05 2183.03,1439.58 2185.6,1440.09 
  2188.17,1440.57 2190.74,1441.03 2193.31,1441.46 2195.89,1441.86 2198.46,1442.24 2201.03,1442.6 2203.6,1442.94 2206.17,1443.26 2208.74,1443.55 2211.32,1443.84 
  2213.89,1444.1 2216.46,1444.35 2219.03,1444.58 2221.6,1444.8 2224.17,1445.01 2226.75,1445.2 2229.32,1445.38 2231.89,1445.55 2234.46,1445.71 2237.03,1445.86 
  2239.6,1446 2242.18,1446.13 2244.75,1446.25 2247.32,1446.37 2249.89,1446.47 2252.46,1446.57 2255.03,1446.67 2257.61,1446.75 2260.18,1446.83 2262.75,1446.91 
  2265.32,1446.98 2267.89,1447.04 2270.46,1447.11 2273.04,1447.16 2275.61,1447.22 2278.18,1447.26 2280.75,1447.31 2283.32,1447.35 2285.89,1447.39 2288.47,1447.43 
  2291.04,1447.46 
  "/>
<path clip-path="url(#clip480)" d="
M1921.49 324.425 L2280.06 324.425 L2280.06 168.905 L1921.49 168.905  Z
  " fill="#ffffff" fill-rule="evenodd" fill-opacity="1"/>
<polyline clip-path="url(#clip480)" style="stroke:#000000; stroke-linecap:butt; stroke-linejoin:round; stroke-width:4; stroke-opacity:1; fill:none" points="
  1921.49,324.425 2280.06,324.425 2280.06,168.905 1921.49,168.905 1921.49,324.425 
  "/>
<polyline clip-path="url(#clip480)" style="stroke:#009af9; stroke-linecap:butt; stroke-linejoin:round; stroke-width:4; stroke-opacity:1; fill:none" points="
  1945.72,220.745 2091.1,220.745 
  "/>
<path clip-path="url(#clip480)" d="M2120.01 207.307 L2120.01 234.182 L2125.66 234.182 Q2132.81 234.182 2136.12 230.941 Q2139.45 227.701 2139.45 220.71 Q2139.45 213.766 2136.12 210.548 Q2132.81 207.307 2125.66 207.307 L2120.01 207.307 M2115.33 203.465 L2124.94 203.465 Q2134.98 203.465 2139.68 207.654 Q2144.38 211.821 2144.38 220.71 Q2144.38 229.645 2139.66 233.835 Q2134.94 238.025 2124.94 238.025 L2115.33 238.025 L2115.33 203.465 Z" fill="#000000" fill-rule="evenodd" fill-opacity="1" /><path clip-path="url(#clip480)" d="M2163.43 224.992 Q2158.27 224.992 2156.28 226.173 Q2154.29 227.353 2154.29 230.201 Q2154.29 232.469 2155.77 233.812 Q2157.28 235.131 2159.84 235.131 Q2163.39 235.131 2165.52 232.631 Q2167.67 230.108 2167.67 225.941 L2167.67 224.992 L2163.43 224.992 M2171.93 223.233 L2171.93 238.025 L2167.67 238.025 L2167.67 234.089 Q2166.21 236.451 2164.03 237.585 Q2161.86 238.696 2158.71 238.696 Q2154.73 238.696 2152.37 236.474 Q2150.03 234.228 2150.03 230.478 Q2150.03 226.103 2152.95 223.881 Q2155.89 221.659 2161.7 221.659 L2167.67 221.659 L2167.67 221.242 Q2167.67 218.303 2165.72 216.705 Q2163.8 215.085 2160.31 215.085 Q2158.09 215.085 2155.98 215.617 Q2153.87 216.15 2151.93 217.215 L2151.93 213.279 Q2154.27 212.377 2156.47 211.937 Q2158.66 211.474 2160.75 211.474 Q2166.37 211.474 2169.15 214.391 Q2171.93 217.307 2171.93 223.233 Z" fill="#000000" fill-rule="evenodd" fill-opacity="1" /><path clip-path="url(#clip480)" d="M2184.91 204.738 L2184.91 212.099 L2193.69 212.099 L2193.69 215.409 L2184.91 215.409 L2184.91 229.483 Q2184.91 232.654 2185.77 233.557 Q2186.65 234.46 2189.31 234.46 L2193.69 234.46 L2193.69 238.025 L2189.31 238.025 Q2184.38 238.025 2182.51 236.196 Q2180.63 234.344 2180.63 229.483 L2180.63 215.409 L2177.51 215.409 L2177.51 212.099 L2180.63 212.099 L2180.63 204.738 L2184.91 204.738 Z" fill="#000000" fill-rule="evenodd" fill-opacity="1" /><path clip-path="url(#clip480)" d="M2211.07 224.992 Q2205.91 224.992 2203.92 226.173 Q2201.93 227.353 2201.93 230.201 Q2201.93 232.469 2203.41 233.812 Q2204.91 235.131 2207.48 235.131 Q2211.03 235.131 2213.15 232.631 Q2215.31 230.108 2215.31 225.941 L2215.31 224.992 L2211.07 224.992 M2219.57 223.233 L2219.57 238.025 L2215.31 238.025 L2215.31 234.089 Q2213.85 236.451 2211.67 237.585 Q2209.5 238.696 2206.35 238.696 Q2202.37 238.696 2200.01 236.474 Q2197.67 234.228 2197.67 230.478 Q2197.67 226.103 2200.59 223.881 Q2203.53 221.659 2209.34 221.659 L2215.31 221.659 L2215.31 221.242 Q2215.31 218.303 2213.36 216.705 Q2211.44 215.085 2207.95 215.085 Q2205.72 215.085 2203.62 215.617 Q2201.51 216.15 2199.57 217.215 L2199.57 213.279 Q2201.9 212.377 2204.1 211.937 Q2206.3 211.474 2208.39 211.474 Q2214.01 211.474 2216.79 214.391 Q2219.57 217.307 2219.57 223.233 Z" fill="#000000" fill-rule="evenodd" fill-opacity="1" /><polyline clip-path="url(#clip480)" style="stroke:#e26f46; stroke-linecap:butt; stroke-linejoin:round; stroke-width:4; stroke-opacity:1; fill:none" points="
  1945.72,272.585 2091.1,272.585 
  "/>
<path clip-path="url(#clip480)" d="M2115.33 255.305 L2144.57 255.305 L2144.57 259.24 L2132.3 259.24 L2132.3 289.865 L2127.6 289.865 L2127.6 259.24 L2115.33 259.24 L2115.33 255.305 Z" fill="#000000" fill-rule="evenodd" fill-opacity="1" /><path clip-path="url(#clip480)" d="M2156.95 267.92 Q2156.23 267.504 2155.38 267.318 Q2154.54 267.11 2153.53 267.11 Q2149.91 267.11 2147.97 269.471 Q2146.05 271.809 2146.05 276.207 L2146.05 289.865 L2141.77 289.865 L2141.77 263.939 L2146.05 263.939 L2146.05 267.967 Q2147.39 265.606 2149.54 264.471 Q2151.7 263.314 2154.78 263.314 Q2155.22 263.314 2155.75 263.383 Q2156.28 263.43 2156.93 263.545 L2156.95 267.92 Z" fill="#000000" fill-rule="evenodd" fill-opacity="1" /><path clip-path="url(#clip480)" d="M2160.98 279.633 L2160.98 263.939 L2165.24 263.939 L2165.24 279.471 Q2165.24 283.152 2166.67 285.004 Q2168.11 286.832 2170.98 286.832 Q2174.43 286.832 2176.42 284.633 Q2178.43 282.434 2178.43 278.638 L2178.43 263.939 L2182.69 263.939 L2182.69 289.865 L2178.43 289.865 L2178.43 285.883 Q2176.88 288.244 2174.82 289.402 Q2172.78 290.536 2170.08 290.536 Q2165.61 290.536 2163.29 287.758 Q2160.98 284.98 2160.98 279.633 M2171.7 263.314 L2171.7 263.314 Z" fill="#000000" fill-rule="evenodd" fill-opacity="1" /><path clip-path="url(#clip480)" d="M2195.68 256.578 L2195.68 263.939 L2204.45 263.939 L2204.45 267.249 L2195.68 267.249 L2195.68 281.323 Q2195.68 284.494 2196.53 285.397 Q2197.41 286.3 2200.08 286.3 L2204.45 286.3 L2204.45 289.865 L2200.08 289.865 Q2195.15 289.865 2193.27 288.036 Q2191.4 286.184 2191.4 281.323 L2191.4 267.249 L2188.27 267.249 L2188.27 263.939 L2191.4 263.939 L2191.4 256.578 L2195.68 256.578 Z" fill="#000000" fill-rule="evenodd" fill-opacity="1" /><path clip-path="url(#clip480)" d="M2231.6 274.217 L2231.6 289.865 L2227.34 289.865 L2227.34 274.355 Q2227.34 270.675 2225.91 268.846 Q2224.47 267.018 2221.6 267.018 Q2218.15 267.018 2216.16 269.217 Q2214.17 271.416 2214.17 275.212 L2214.17 289.865 L2209.89 289.865 L2209.89 253.846 L2214.17 253.846 L2214.17 267.967 Q2215.7 265.629 2217.76 264.471 Q2219.84 263.314 2222.55 263.314 Q2227.02 263.314 2229.31 266.092 Q2231.6 268.846 2231.6 274.217 Z" fill="#000000" fill-rule="evenodd" fill-opacity="1" /></svg>
