<?xml version="1.0" encoding="utf-8"?>
<svg xmlns="http://www.w3.org/2000/svg" xmlns:xlink="http://www.w3.org/1999/xlink" width="600" height="400" viewBox="0 0 2400 1600">
<defs>
  <clipPath id="clip450">
    <rect x="0" y="0" width="2400" height="1600"/>
  </clipPath>
</defs>
<path clip-path="url(#clip450)" d="
M0 1600 L2400 1600 L2400 0 L0 0  Z
  " fill="#ffffff" fill-rule="evenodd" fill-opacity="1"/>
<defs>
  <clipPath id="clip451">
    <rect x="480" y="0" width="1681" height="1600"/>
  </clipPath>
</defs>
<path clip-path="url(#clip450)" d="
M172.015 1486.45 L2352.76 1486.45 L2352.76 123.472 L172.015 123.472  Z
  " fill="#ffffff" fill-rule="evenodd" fill-opacity="1"/>
<defs>
  <clipPath id="clip452">
    <rect x="172" y="123" width="2182" height="1364"/>
  </clipPath>
</defs>
<polyline clip-path="url(#clip452)" style="stroke:#000000; stroke-linecap:butt; stroke-linejoin:round; stroke-width:2; stroke-opacity:0.1; fill:none" points="
  233.734,1486.45 233.734,123.472 
  "/>
<polyline clip-path="url(#clip452)" style="stroke:#000000; stroke-linecap:butt; stroke-linejoin:round; stroke-width:2; stroke-opacity:0.1; fill:none" points="
  576.618,1486.45 576.618,123.472 
  "/>
<polyline clip-path="url(#clip452)" style="stroke:#000000; stroke-linecap:butt; stroke-linejoin:round; stroke-width:2; stroke-opacity:0.1; fill:none" points="
  919.502,1486.45 919.502,123.472 
  "/>
<polyline clip-path="url(#clip452)" style="stroke:#000000; stroke-linecap:butt; stroke-linejoin:round; stroke-width:2; stroke-opacity:0.1; fill:none" points="
  1262.39,1486.45 1262.39,123.472 
  "/>
<polyline clip-path="url(#clip452)" style="stroke:#000000; stroke-linecap:butt; stroke-linejoin:round; stroke-width:2; stroke-opacity:0.1; fill:none" points="
  1605.27,1486.45 1605.27,123.472 
  "/>
<polyline clip-path="url(#clip452)" style="stroke:#000000; stroke-linecap:butt; stroke-linejoin:round; stroke-width:2; stroke-opacity:0.1; fill:none" points="
  1948.15,1486.45 1948.15,123.472 
  "/>
<polyline clip-path="url(#clip452)" style="stroke:#000000; stroke-linecap:butt; stroke-linejoin:round; stroke-width:2; stroke-opacity:0.1; fill:none" points="
  2291.04,1486.45 2291.04,123.472 
  "/>
<polyline clip-path="url(#clip450)" style="stroke:#000000; stroke-linecap:butt; stroke-linejoin:round; stroke-width:4; stroke-opacity:1; fill:none" points="
  172.015,1486.45 2352.76,1486.45 
  "/>
<polyline clip-path="url(#clip450)" style="stroke:#000000; stroke-linecap:butt; stroke-linejoin:round; stroke-width:4; stroke-opacity:1; fill:none" points="
  233.734,1486.45 233.734,1467.55 
  "/>
<polyline clip-path="url(#clip450)" style="stroke:#000000; stroke-linecap:butt; stroke-linejoin:round; stroke-width:4; stroke-opacity:1; fill:none" points="
  576.618,1486.45 576.618,1467.55 
  "/>
<polyline clip-path="url(#clip450)" style="stroke:#000000; stroke-linecap:butt; stroke-linejoin:round; stroke-width:4; stroke-opacity:1; fill:none" points="
  919.502,1486.45 919.502,1467.55 
  "/>
<polyline clip-path="url(#clip450)" style="stroke:#000000; stroke-linecap:butt; stroke-linejoin:round; stroke-width:4; stroke-opacity:1; fill:none" points="
  1262.39,1486.45 1262.39,1467.55 
  "/>
<polyline clip-path="url(#clip450)" style="stroke:#000000; stroke-linecap:butt; stroke-linejoin:round; stroke-width:4; stroke-opacity:1; fill:none" points="
  1605.27,1486.45 1605.27,1467.55 
  "/>
<polyline clip-path="url(#clip450)" style="stroke:#000000; stroke-linecap:butt; stroke-linejoin:round; stroke-width:4; stroke-opacity:1; fill:none" points="
  1948.15,1486.45 1948.15,1467.55 
  "/>
<polyline clip-path="url(#clip450)" style="stroke:#000000; stroke-linecap:butt; stroke-linejoin:round; stroke-width:4; stroke-opacity:1; fill:none" points="
  2291.04,1486.45 2291.04,1467.55 
  "/>
<path clip-path="url(#clip450)" d="M203.676 1532.02 L233.352 1532.02 L233.352 1535.95 L203.676 1535.95 L203.676 1532.02 Z" fill="#000000" fill-rule="evenodd" fill-opacity="1" /><path clip-path="url(#clip450)" d="M247.472 1544.91 L263.792 1544.91 L263.792 1548.85 L241.847 1548.85 L241.847 1544.91 Q244.509 1542.16 249.093 1537.53 Q253.699 1532.88 254.88 1531.53 Q257.125 1529.01 258.005 1527.27 Q258.907 1525.51 258.907 1523.82 Q258.907 1521.07 256.963 1519.33 Q255.042 1517.6 251.94 1517.6 Q249.741 1517.6 247.287 1518.36 Q244.857 1519.13 242.079 1520.68 L242.079 1515.95 Q244.903 1514.82 247.357 1514.24 Q249.81 1513.66 251.847 1513.66 Q257.218 1513.66 260.412 1516.35 Q263.606 1519.03 263.606 1523.52 Q263.606 1525.65 262.796 1527.57 Q262.009 1529.47 259.903 1532.07 Q259.324 1532.74 256.222 1535.95 Q253.12 1539.15 247.472 1544.91 Z" fill="#000000" fill-rule="evenodd" fill-opacity="1" /><path clip-path="url(#clip450)" d="M546.375 1532.02 L576.051 1532.02 L576.051 1535.95 L546.375 1535.95 L546.375 1532.02 Z" fill="#000000" fill-rule="evenodd" fill-opacity="1" /><path clip-path="url(#clip450)" d="M586.953 1544.91 L594.592 1544.91 L594.592 1518.55 L586.282 1520.21 L586.282 1515.95 L594.546 1514.29 L599.222 1514.29 L599.222 1544.91 L606.861 1544.91 L606.861 1548.85 L586.953 1548.85 L586.953 1544.91 Z" fill="#000000" fill-rule="evenodd" fill-opacity="1" /><path clip-path="url(#clip450)" d="M919.502 1517.37 Q915.89 1517.37 914.062 1520.93 Q912.256 1524.47 912.256 1531.6 Q912.256 1538.71 914.062 1542.27 Q915.89 1545.82 919.502 1545.82 Q923.136 1545.82 924.941 1542.27 Q926.77 1538.71 926.77 1531.6 Q926.77 1524.47 924.941 1520.93 Q923.136 1517.37 919.502 1517.37 M919.502 1513.66 Q925.312 1513.66 928.367 1518.27 Q931.446 1522.85 931.446 1531.6 Q931.446 1540.33 928.367 1544.94 Q925.312 1549.52 919.502 1549.52 Q913.691 1549.52 910.613 1544.94 Q907.557 1540.33 907.557 1531.6 Q907.557 1522.85 910.613 1518.27 Q913.691 1513.66 919.502 1513.66 Z" fill="#000000" fill-rule="evenodd" fill-opacity="1" /><path clip-path="url(#clip450)" d="M1252.77 1544.91 L1260.41 1544.91 L1260.41 1518.55 L1252.1 1520.21 L1252.1 1515.95 L1260.36 1514.29 L1265.04 1514.29 L1265.04 1544.91 L1272.67 1544.91 L1272.67 1548.85 L1252.77 1548.85 L1252.77 1544.91 Z" fill="#000000" fill-rule="evenodd" fill-opacity="1" /><path clip-path="url(#clip450)" d="M1599.92 1544.91 L1616.24 1544.91 L1616.24 1548.85 L1594.3 1548.85 L1594.3 1544.91 Q1596.96 1542.16 1601.54 1537.53 Q1606.15 1532.88 1607.33 1531.53 Q1609.57 1529.01 1610.45 1527.27 Q1611.36 1525.51 1611.36 1523.82 Q1611.36 1521.07 1609.41 1519.33 Q1607.49 1517.6 1604.39 1517.6 Q1602.19 1517.6 1599.74 1518.36 Q1597.31 1519.13 1594.53 1520.68 L1594.53 1515.95 Q1597.35 1514.82 1599.81 1514.24 Q1602.26 1513.66 1604.3 1513.66 Q1609.67 1513.66 1612.86 1516.35 Q1616.06 1519.03 1616.06 1523.52 Q1616.06 1525.65 1615.25 1527.57 Q1614.46 1529.47 1612.35 1532.07 Q1611.77 1532.74 1608.67 1535.95 Q1605.57 1539.15 1599.92 1544.91 Z" fill="#000000" fill-rule="evenodd" fill-opacity="1" /><path clip-path="url(#clip450)" d="M1952.4 1530.21 Q1955.76 1530.93 1957.63 1533.2 Q1959.53 1535.47 1959.53 1538.8 Q1959.53 1543.92 1956.01 1546.72 Q1952.49 1549.52 1946.01 1549.52 Q1943.84 1549.52 1941.52 1549.08 Q1939.23 1548.66 1936.78 1547.81 L1936.78 1543.29 Q1938.72 1544.43 1941.03 1545.01 Q1943.35 1545.58 1945.87 1545.58 Q1950.27 1545.58 1952.56 1543.85 Q1954.88 1542.11 1954.88 1538.8 Q1954.88 1535.75 1952.72 1534.03 Q1950.6 1532.3 1946.78 1532.3 L1942.75 1532.3 L1942.75 1528.45 L1946.96 1528.45 Q1950.41 1528.45 1952.24 1527.09 Q1954.07 1525.7 1954.07 1523.11 Q1954.07 1520.45 1952.17 1519.03 Q1950.29 1517.6 1946.78 1517.6 Q1944.85 1517.6 1942.66 1518.01 Q1940.46 1518.43 1937.82 1519.31 L1937.82 1515.14 Q1940.48 1514.4 1942.79 1514.03 Q1945.13 1513.66 1947.19 1513.66 Q1952.52 1513.66 1955.62 1516.09 Q1958.72 1518.5 1958.72 1522.62 Q1958.72 1525.49 1957.08 1527.48 Q1955.43 1529.45 1952.4 1530.21 Z" fill="#000000" fill-rule="evenodd" fill-opacity="1" /><path clip-path="url(#clip450)" d="M2294.05 1518.36 L2282.24 1536.81 L2294.05 1536.81 L2294.05 1518.36 M2292.82 1514.29 L2298.7 1514.29 L2298.7 1536.81 L2303.63 1536.81 L2303.63 1540.7 L2298.7 1540.7 L2298.7 1548.85 L2294.05 1548.85 L2294.05 1540.7 L2278.44 1540.7 L2278.44 1536.19 L2292.82 1514.29 Z" fill="#000000" fill-rule="evenodd" fill-opacity="1" /><polyline clip-path="url(#clip452)" style="stroke:#000000; stroke-linecap:butt; stroke-linejoin:round; stroke-width:2; stroke-opacity:0.1; fill:none" points="
  172.015,1447.87 2352.76,1447.87 
  "/>
<polyline clip-path="url(#clip452)" style="stroke:#000000; stroke-linecap:butt; stroke-linejoin:round; stroke-width:2; stroke-opacity:0.1; fill:none" points="
  172.015,1141.72 2352.76,1141.72 
  "/>
<polyline clip-path="url(#clip452)" style="stroke:#000000; stroke-linecap:butt; stroke-linejoin:round; stroke-width:2; stroke-opacity:0.1; fill:none" points="
  172.015,835.575 2352.76,835.575 
  "/>
<polyline clip-path="url(#clip452)" style="stroke:#000000; stroke-linecap:butt; stroke-linejoin:round; stroke-width:2; stroke-opacity:0.1; fill:none" points="
  172.015,529.426 2352.76,529.426 
  "/>
<polyline clip-path="url(#clip452)" style="stroke:#000000; stroke-linecap:butt; stroke-linejoin:round; stroke-width:2; stroke-opacity:0.1; fill:none" points="
  172.015,223.277 2352.76,223.277 
  "/>
<polyline clip-path="url(#clip450)" style="stroke:#000000; stroke-linecap:butt; stroke-linejoin:round; stroke-width:4; stroke-opacity:1; fill:none" points="
  172.015,1486.45 172.015,123.472 
  "/>
<polyline clip-path="url(#clip450)" style="stroke:#000000; stroke-linecap:butt; stroke-linejoin:round; stroke-width:4; stroke-opacity:1; fill:none" points="
  172.015,1447.87 190.912,1447.87 
  "/>
<polyline clip-path="url(#clip450)" style="stroke:#000000; stroke-linecap:butt; stroke-linejoin:round; stroke-width:4; stroke-opacity:1; fill:none" points="
  172.015,1141.72 190.912,1141.72 
  "/>
<polyline clip-path="url(#clip450)" style="stroke:#000000; stroke-linecap:butt; stroke-linejoin:round; stroke-width:4; stroke-opacity:1; fill:none" points="
  172.015,835.575 190.912,835.575 
  "/>
<polyline clip-path="url(#clip450)" style="stroke:#000000; stroke-linecap:butt; stroke-linejoin:round; stroke-width:4; stroke-opacity:1; fill:none" points="
  172.015,529.426 190.912,529.426 
  "/>
<polyline clip-path="url(#clip450)" style="stroke:#000000; stroke-linecap:butt; stroke-linejoin:round; stroke-width:4; stroke-opacity:1; fill:none" points="
  172.015,223.277 190.912,223.277 
  "/>
<path clip-path="url(#clip450)" d="M124.07 1433.67 Q120.459 1433.67 118.631 1437.24 Q116.825 1440.78 116.825 1447.91 Q116.825 1455.01 118.631 1458.58 Q120.459 1462.12 124.07 1462.12 Q127.705 1462.12 129.51 1458.58 Q131.339 1455.01 131.339 1447.91 Q131.339 1440.78 129.51 1437.24 Q127.705 1433.67 124.07 1433.67 M124.07 1429.97 Q129.881 1429.97 132.936 1434.57 Q136.015 1439.16 136.015 1447.91 Q136.015 1456.63 132.936 1461.24 Q129.881 1465.82 124.07 1465.82 Q118.26 1465.82 115.182 1461.24 Q112.126 1456.63 112.126 1447.91 Q112.126 1439.16 115.182 1434.57 Q118.26 1429.97 124.07 1429.97 Z" fill="#000000" fill-rule="evenodd" fill-opacity="1" /><path clip-path="url(#clip450)" d="M57.7745 1155.07 L74.0939 1155.07 L74.0939 1159 L52.1495 1159 L52.1495 1155.07 Q54.8115 1152.31 59.3949 1147.68 Q64.0013 1143.03 65.1819 1141.69 Q67.4272 1139.17 68.3068 1137.43 Q69.2096 1135.67 69.2096 1133.98 Q69.2096 1131.23 67.2652 1129.49 Q65.3439 1127.75 62.2421 1127.75 Q60.043 1127.75 57.5893 1128.52 Q55.1588 1129.28 52.381 1130.83 L52.381 1126.11 Q55.2051 1124.98 57.6588 1124.4 Q60.1124 1123.82 62.1495 1123.82 Q67.5198 1123.82 70.7142 1126.5 Q73.9087 1129.19 73.9087 1133.68 Q73.9087 1135.81 73.0985 1137.73 Q72.3115 1139.63 70.205 1142.22 Q69.6263 1142.89 66.5245 1146.11 Q63.4226 1149.3 57.7745 1155.07 Z" fill="#000000" fill-rule="evenodd" fill-opacity="1" /><path clip-path="url(#clip450)" d="M93.9086 1127.52 Q90.2975 1127.52 88.4688 1131.09 Q86.6632 1134.63 86.6632 1141.76 Q86.6632 1148.87 88.4688 1152.43 Q90.2975 1155.97 93.9086 1155.97 Q97.5428 1155.97 99.3483 1152.43 Q101.177 1148.87 101.177 1141.76 Q101.177 1134.63 99.3483 1131.09 Q97.5428 1127.52 93.9086 1127.52 M93.9086 1123.82 Q99.7187 1123.82 102.774 1128.43 Q105.853 1133.01 105.853 1141.76 Q105.853 1150.49 102.774 1155.09 Q99.7187 1159.68 93.9086 1159.68 Q88.0984 1159.68 85.0197 1155.09 Q81.9642 1150.49 81.9642 1141.76 Q81.9642 1133.01 85.0197 1128.43 Q88.0984 1123.82 93.9086 1123.82 Z" fill="#000000" fill-rule="evenodd" fill-opacity="1" /><path clip-path="url(#clip450)" d="M124.07 1127.52 Q120.459 1127.52 118.631 1131.09 Q116.825 1134.63 116.825 1141.76 Q116.825 1148.87 118.631 1152.43 Q120.459 1155.97 124.07 1155.97 Q127.705 1155.97 129.51 1152.43 Q131.339 1148.87 131.339 1141.76 Q131.339 1134.63 129.51 1131.09 Q127.705 1127.52 124.07 1127.52 M124.07 1123.82 Q129.881 1123.82 132.936 1128.43 Q136.015 1133.01 136.015 1141.76 Q136.015 1150.49 132.936 1155.09 Q129.881 1159.68 124.07 1159.68 Q118.26 1159.68 115.182 1155.09 Q112.126 1150.49 112.126 1141.76 Q112.126 1133.01 115.182 1128.43 Q118.26 1123.82 124.07 1123.82 Z" fill="#000000" fill-rule="evenodd" fill-opacity="1" /><path clip-path="url(#clip450)" d="M66.5939 822.369 L54.7884 840.818 L66.5939 840.818 L66.5939 822.369 M65.367 818.295 L71.2466 818.295 L71.2466 840.818 L76.1772 840.818 L76.1772 844.707 L71.2466 844.707 L71.2466 852.855 L66.5939 852.855 L66.5939 844.707 L50.9921 844.707 L50.9921 840.193 L65.367 818.295 Z" fill="#000000" fill-rule="evenodd" fill-opacity="1" /><path clip-path="url(#clip450)" d="M93.9086 821.374 Q90.2975 821.374 88.4688 824.938 Q86.6632 828.48 86.6632 835.61 Q86.6632 842.716 88.4688 846.281 Q90.2975 849.823 93.9086 849.823 Q97.5428 849.823 99.3483 846.281 Q101.177 842.716 101.177 835.61 Q101.177 828.48 99.3483 824.938 Q97.5428 821.374 93.9086 821.374 M93.9086 817.67 Q99.7187 817.67 102.774 822.276 Q105.853 826.86 105.853 835.61 Q105.853 844.336 102.774 848.943 Q99.7187 853.526 93.9086 853.526 Q88.0984 853.526 85.0197 848.943 Q81.9642 844.336 81.9642 835.61 Q81.9642 826.86 85.0197 822.276 Q88.0984 817.67 93.9086 817.67 Z" fill="#000000" fill-rule="evenodd" fill-opacity="1" /><path clip-path="url(#clip450)" d="M124.07 821.374 Q120.459 821.374 118.631 824.938 Q116.825 828.48 116.825 835.61 Q116.825 842.716 118.631 846.281 Q120.459 849.823 124.07 849.823 Q127.705 849.823 129.51 846.281 Q131.339 842.716 131.339 835.61 Q131.339 828.48 129.51 824.938 Q127.705 821.374 124.07 821.374 M124.07 817.67 Q129.881 817.67 132.936 822.276 Q136.015 826.86 136.015 835.61 Q136.015 844.336 132.936 848.943 Q129.881 853.526 124.07 853.526 Q118.26 853.526 115.182 848.943 Q112.126 844.336 112.126 835.61 Q112.126 826.86 115.182 822.276 Q118.26 817.67 124.07 817.67 Z" fill="#000000" fill-rule="evenodd" fill-opacity="1" /><path clip-path="url(#clip450)" d="M64.3254 527.562 Q61.1773 527.562 59.3254 529.715 Q57.4967 531.868 57.4967 535.618 Q57.4967 539.345 59.3254 541.521 Q61.1773 543.673 64.3254 543.673 Q67.4735 543.673 69.3022 541.521 Q71.1541 539.345 71.1541 535.618 Q71.1541 531.868 69.3022 529.715 Q67.4735 527.562 64.3254 527.562 M73.6077 512.91 L73.6077 517.169 Q71.8485 516.336 70.0429 515.896 Q68.2606 515.456 66.5013 515.456 Q61.8717 515.456 59.418 518.581 Q56.9875 521.706 56.6402 528.025 Q58.006 526.011 60.0662 524.947 Q62.1263 523.859 64.6032 523.859 Q69.8115 523.859 72.8207 527.03 Q75.8531 530.178 75.8531 535.618 Q75.8531 540.942 72.705 544.16 Q69.5568 547.377 64.3254 547.377 Q58.33 547.377 55.1588 542.794 Q51.9875 538.187 51.9875 529.461 Q51.9875 521.266 55.8764 516.405 Q59.7652 511.521 66.3161 511.521 Q68.0754 511.521 69.8578 511.868 Q71.6633 512.215 73.6077 512.91 Z" fill="#000000" fill-rule="evenodd" fill-opacity="1" /><path clip-path="url(#clip450)" d="M93.9086 515.225 Q90.2975 515.225 88.4688 518.789 Q86.6632 522.331 86.6632 529.461 Q86.6632 536.567 88.4688 540.132 Q90.2975 543.673 93.9086 543.673 Q97.5428 543.673 99.3483 540.132 Q101.177 536.567 101.177 529.461 Q101.177 522.331 99.3483 518.789 Q97.5428 515.225 93.9086 515.225 M93.9086 511.521 Q99.7187 511.521 102.774 516.127 Q105.853 520.711 105.853 529.461 Q105.853 538.187 102.774 542.794 Q99.7187 547.377 93.9086 547.377 Q88.0984 547.377 85.0197 542.794 Q81.9642 538.187 81.9642 529.461 Q81.9642 520.711 85.0197 516.127 Q88.0984 511.521 93.9086 511.521 Z" fill="#000000" fill-rule="evenodd" fill-opacity="1" /><path clip-path="url(#clip450)" d="M124.07 515.225 Q120.459 515.225 118.631 518.789 Q116.825 522.331 116.825 529.461 Q116.825 536.567 118.631 540.132 Q120.459 543.673 124.07 543.673 Q127.705 543.673 129.51 540.132 Q131.339 536.567 131.339 529.461 Q131.339 522.331 129.51 518.789 Q127.705 515.225 124.07 515.225 M124.07 511.521 Q129.881 511.521 132.936 516.127 Q136.015 520.711 136.015 529.461 Q136.015 538.187 132.936 542.794 Q129.881 547.377 124.07 547.377 Q118.26 547.377 115.182 542.794 Q112.126 538.187 112.126 529.461 Q112.126 520.711 115.182 516.127 Q118.26 511.521 124.07 511.521 Z" fill="#000000" fill-rule="evenodd" fill-opacity="1" /><path clip-path="url(#clip450)" d="M63.7467 224.145 Q60.4134 224.145 58.4921 225.927 Q56.5939 227.71 56.5939 230.835 Q56.5939 233.96 58.4921 235.742 Q60.4134 237.524 63.7467 237.524 Q67.08 237.524 69.0013 235.742 Q70.9226 233.936 70.9226 230.835 Q70.9226 227.71 69.0013 225.927 Q67.1032 224.145 63.7467 224.145 M59.0708 222.154 Q56.0615 221.413 54.3717 219.353 Q52.7051 217.293 52.7051 214.33 Q52.7051 210.187 55.6449 207.779 Q58.6078 205.372 63.7467 205.372 Q68.9087 205.372 71.8485 207.779 Q74.7883 210.187 74.7883 214.33 Q74.7883 217.293 73.0985 219.353 Q71.4318 221.413 68.4457 222.154 Q71.8253 222.941 73.7003 225.233 Q75.5985 227.524 75.5985 230.835 Q75.5985 235.858 72.5198 238.543 Q69.4642 241.228 63.7467 241.228 Q58.0291 241.228 54.9504 238.543 Q51.8949 235.858 51.8949 230.835 Q51.8949 227.524 53.793 225.233 Q55.6912 222.941 59.0708 222.154 M57.3578 214.77 Q57.3578 217.455 59.0245 218.96 Q60.7143 220.464 63.7467 220.464 Q66.7559 220.464 68.4457 218.96 Q70.1587 217.455 70.1587 214.77 Q70.1587 212.085 68.4457 210.58 Q66.7559 209.075 63.7467 209.075 Q60.7143 209.075 59.0245 210.58 Q57.3578 212.085 57.3578 214.77 Z" fill="#000000" fill-rule="evenodd" fill-opacity="1" /><path clip-path="url(#clip450)" d="M93.9086 209.075 Q90.2975 209.075 88.4688 212.64 Q86.6632 216.182 86.6632 223.311 Q86.6632 230.418 88.4688 233.983 Q90.2975 237.524 93.9086 237.524 Q97.5428 237.524 99.3483 233.983 Q101.177 230.418 101.177 223.311 Q101.177 216.182 99.3483 212.64 Q97.5428 209.075 93.9086 209.075 M93.9086 205.372 Q99.7187 205.372 102.774 209.978 Q105.853 214.561 105.853 223.311 Q105.853 232.038 102.774 236.645 Q99.7187 241.228 93.9086 241.228 Q88.0984 241.228 85.0197 236.645 Q81.9642 232.038 81.9642 223.311 Q81.9642 214.561 85.0197 209.978 Q88.0984 205.372 93.9086 205.372 Z" fill="#000000" fill-rule="evenodd" fill-opacity="1" /><path clip-path="url(#clip450)" d="M124.07 209.075 Q120.459 209.075 118.631 212.64 Q116.825 216.182 116.825 223.311 Q116.825 230.418 118.631 233.983 Q120.459 237.524 124.07 237.524 Q127.705 237.524 129.51 233.983 Q131.339 230.418 131.339 223.311 Q131.339 216.182 129.51 212.64 Q127.705 209.075 124.07 209.075 M124.07 205.372 Q129.881 205.372 132.936 209.978 Q136.015 214.561 136.015 223.311 Q136.015 232.038 132.936 236.645 Q129.881 241.228 124.07 241.228 Q118.26 241.228 115.182 236.645 Q112.126 232.038 112.126 223.311 Q112.126 214.561 115.182 209.978 Q118.26 205.372 124.07 205.372 Z" fill="#000000" fill-rule="evenodd" fill-opacity="1" /><path clip-path="url(#clip450)" d="M1179.36 18.8205 L1179.36 65.8515 L1189.25 65.8515 Q1201.76 65.8515 1207.56 60.1802 Q1213.39 54.509 1213.39 42.2752 Q1213.39 30.1225 1207.56 24.4918 Q1201.76 18.8205 1189.25 18.8205 L1179.36 18.8205 M1171.18 12.096 L1187.99 12.096 Q1205.57 12.096 1213.79 19.4281 Q1222.02 26.7198 1222.02 42.2752 Q1222.02 57.9117 1213.75 65.2439 Q1205.49 72.576 1187.99 72.576 L1171.18 72.576 L1171.18 12.096 Z" fill="#000000" fill-rule="evenodd" fill-opacity="1" /><path clip-path="url(#clip450)" d="M1255.36 49.7694 Q1246.32 49.7694 1242.84 51.8354 Q1239.36 53.9013 1239.36 58.8839 Q1239.36 62.8538 1241.95 65.2034 Q1244.58 67.5124 1249.08 67.5124 Q1255.28 67.5124 1259 63.1374 Q1262.77 58.7219 1262.77 51.4303 L1262.77 49.7694 L1255.36 49.7694 M1270.22 46.6907 L1270.22 72.576 L1262.77 72.576 L1262.77 65.6895 Q1260.22 69.8214 1256.41 71.8063 Q1252.6 73.7508 1247.09 73.7508 Q1240.13 73.7508 1235.99 69.8619 Q1231.9 65.9325 1231.9 59.3701 Q1231.9 51.7138 1237.01 47.825 Q1242.15 43.9361 1252.32 43.9361 L1262.77 43.9361 L1262.77 43.2069 Q1262.77 38.0623 1259.37 35.2672 Q1256.01 32.4315 1249.89 32.4315 Q1246 32.4315 1242.31 33.3632 Q1238.63 34.295 1235.22 36.1584 L1235.22 29.2718 Q1239.32 27.692 1243.16 26.9223 Q1247.01 26.1121 1250.66 26.1121 Q1260.5 26.1121 1265.36 31.2163 Q1270.22 36.3204 1270.22 46.6907 Z" fill="#000000" fill-rule="evenodd" fill-opacity="1" /><path clip-path="url(#clip450)" d="M1292.95 14.324 L1292.95 27.2059 L1308.3 27.2059 L1308.3 32.9987 L1292.95 32.9987 L1292.95 57.6282 Q1292.95 63.1779 1294.45 64.7578 Q1295.99 66.3376 1300.65 66.3376 L1308.3 66.3376 L1308.3 72.576 L1300.65 72.576 Q1292.02 72.576 1288.74 69.3758 Q1285.46 66.1351 1285.46 57.6282 L1285.46 32.9987 L1279.99 32.9987 L1279.99 27.2059 L1285.46 27.2059 L1285.46 14.324 L1292.95 14.324 Z" fill="#000000" fill-rule="evenodd" fill-opacity="1" /><path clip-path="url(#clip450)" d="M1338.72 49.7694 Q1329.69 49.7694 1326.21 51.8354 Q1322.72 53.9013 1322.72 58.8839 Q1322.72 62.8538 1325.32 65.2034 Q1327.95 67.5124 1332.45 67.5124 Q1338.64 67.5124 1342.37 63.1374 Q1346.14 58.7219 1346.14 51.4303 L1346.14 49.7694 L1338.72 49.7694 M1353.59 46.6907 L1353.59 72.576 L1346.14 72.576 L1346.14 65.6895 Q1343.59 69.8214 1339.78 71.8063 Q1335.97 73.7508 1330.46 73.7508 Q1323.49 73.7508 1319.36 69.8619 Q1315.27 65.9325 1315.27 59.3701 Q1315.27 51.7138 1320.37 47.825 Q1325.52 43.9361 1335.69 43.9361 L1346.14 43.9361 L1346.14 43.2069 Q1346.14 38.0623 1342.74 35.2672 Q1339.37 32.4315 1333.26 32.4315 Q1329.37 32.4315 1325.68 33.3632 Q1321.99 34.295 1318.59 36.1584 L1318.59 29.2718 Q1322.68 27.692 1326.53 26.9223 Q1330.38 26.1121 1334.03 26.1121 Q1343.87 26.1121 1348.73 31.2163 Q1353.59 36.3204 1353.59 46.6907 Z" fill="#000000" fill-rule="evenodd" fill-opacity="1" /><polyline clip-path="url(#clip452)" style="stroke:#009af9; stroke-linecap:butt; stroke-linejoin:round; stroke-width:4; stroke-opacity:1; fill:none" points="
  233.734,1447.87 233.734,1325.41 268.022,1325.41 268.022,1279.49 302.311,1279.49 302.311,1218.26 336.599,1218.26 336.599,1202.95 370.887,1202.95 370.887,1126.42 
  405.176,1126.42 405.176,1111.11 439.464,1111.11 439.464,1003.96 473.753,1003.96 473.753,743.73 508.041,743.73 508.041,912.112 542.329,912.112 542.329,713.115 
  576.618,713.115 576.618,1003.96 610.906,1003.96 610.906,896.805 645.194,896.805 679.483,896.805 679.483,804.96 713.771,804.96 713.771,1080.49 
  748.06,1080.49 748.06,1187.65 782.348,1187.65 782.348,1157.03 816.636,1157.03 816.636,1264.18 850.925,1264.18 850.925,1371.34 885.213,1371.34 885.213,1310.11 
  919.502,1310.11 919.502,1417.26 953.79,1417.26 953.79,1401.95 988.078,1401.95 1022.37,1401.95 1022.37,1417.26 1056.66,1417.26 
  1090.94,1417.26 1090.94,1447.87 1125.23,1447.87 1125.23,1417.26 1159.52,1417.26 1159.52,1325.41 1193.81,1325.41 1193.81,1417.26 1228.1,1417.26 1228.1,1356.03 
  1262.39,1356.03 1262.39,1218.26 1296.67,1218.26 1296.67,1065.19 1330.96,1065.19 1330.96,1126.42 1365.25,1126.42 1365.25,896.805 1399.54,896.805 1399.54,759.038 
  1433.83,759.038 1433.83,728.423 1468.12,728.423 1468.12,590.656 1502.4,590.656 1502.4,391.659 1536.69,391.659 1536.69,330.429 1570.98,330.429 1570.98,207.969 
  1605.27,207.969 1605.27,177.354 1639.56,177.354 1639.56,406.966 1673.85,406.966 1673.85,162.047 1708.13,162.047 1708.13,713.115 1742.42,713.115 1742.42,682.5 
  1776.71,682.5 1776.71,605.963 1811,605.963 1811,942.727 1845.29,942.727 1845.29,1034.57 1879.58,1034.57 1879.58,1080.49 1913.86,1080.49 1913.86,1248.88 
  1948.15,1248.88 1948.15,1294.8 1982.44,1294.8 1982.44,1417.26 2016.73,1417.26 2016.73,1340.72 2051.02,1340.72 2051.02,1432.57 2085.31,1432.57 2085.31,1417.26 
  2119.59,1417.26 2153.88,1417.26 2188.17,1417.26 2188.17,1432.57 2222.46,1432.57 2222.46,1447.87 2256.75,1447.87 
  2291.04,1447.87 
  "/>
<path clip-path="url(#clip450)" d="
M1933.52 272.585 L2280.06 272.585 L2280.06 168.905 L1933.52 168.905  Z
  " fill="#ffffff" fill-rule="evenodd" fill-opacity="1"/>
<polyline clip-path="url(#clip450)" style="stroke:#000000; stroke-linecap:butt; stroke-linejoin:round; stroke-width:4; stroke-opacity:1; fill:none" points="
  1933.52,272.585 2280.06,272.585 2280.06,168.905 1933.52,168.905 1933.52,272.585 
  "/>
<polyline clip-path="url(#clip450)" style="stroke:#009af9; stroke-linecap:butt; stroke-linejoin:round; stroke-width:4; stroke-opacity:1; fill:none" points="
  1957.75,220.745 2103.14,220.745 
  "/>
<path clip-path="url(#clip450)" d="M2132.04 207.307 L2132.04 234.182 L2137.69 234.182 Q2144.84 234.182 2148.15 230.941 Q2151.49 227.701 2151.49 220.71 Q2151.49 213.766 2148.15 210.548 Q2144.84 207.307 2137.69 207.307 L2132.04 207.307 M2127.37 203.465 L2136.97 203.465 Q2147.02 203.465 2151.72 207.654 Q2156.42 211.821 2156.42 220.71 Q2156.42 229.645 2151.7 233.835 Q2146.97 238.025 2136.97 238.025 L2127.37 238.025 L2127.37 203.465 Z" fill="#000000" fill-rule="evenodd" fill-opacity="1" /><path clip-path="url(#clip450)" d="M2175.47 224.992 Q2170.31 224.992 2168.32 226.173 Q2166.33 227.353 2166.33 230.201 Q2166.33 232.469 2167.81 233.812 Q2169.31 235.131 2171.88 235.131 Q2175.42 235.131 2177.55 232.631 Q2179.71 230.108 2179.71 225.941 L2179.71 224.992 L2175.47 224.992 M2183.96 223.233 L2183.96 238.025 L2179.71 238.025 L2179.71 234.089 Q2178.25 236.451 2176.07 237.585 Q2173.9 238.696 2170.75 238.696 Q2166.77 238.696 2164.4 236.474 Q2162.07 234.228 2162.07 230.478 Q2162.07 226.103 2164.98 223.881 Q2167.92 221.659 2173.73 221.659 L2179.71 221.659 L2179.71 221.242 Q2179.71 218.303 2177.76 216.705 Q2175.84 215.085 2172.34 215.085 Q2170.12 215.085 2168.02 215.617 Q2165.91 216.15 2163.97 217.215 L2163.97 213.279 Q2166.3 212.377 2168.5 211.937 Q2170.7 211.474 2172.78 211.474 Q2178.41 211.474 2181.19 214.391 Q2183.96 217.307 2183.96 223.233 Z" fill="#000000" fill-rule="evenodd" fill-opacity="1" /><path clip-path="url(#clip450)" d="M2196.95 204.738 L2196.95 212.099 L2205.72 212.099 L2205.72 215.409 L2196.95 215.409 L2196.95 229.483 Q2196.95 232.654 2197.81 233.557 Q2198.69 234.46 2201.35 234.46 L2205.72 234.46 L2205.72 238.025 L2201.35 238.025 Q2196.42 238.025 2194.54 236.196 Q2192.67 234.344 2192.67 229.483 L2192.67 215.409 L2189.54 215.409 L2189.54 212.099 L2192.67 212.099 L2192.67 204.738 L2196.95 204.738 Z" fill="#000000" fill-rule="evenodd" fill-opacity="1" /><path clip-path="url(#clip450)" d="M2223.11 224.992 Q2217.95 224.992 2215.96 226.173 Q2213.96 227.353 2213.96 230.201 Q2213.96 232.469 2215.45 233.812 Q2216.95 235.131 2219.52 235.131 Q2223.06 235.131 2225.19 232.631 Q2227.34 230.108 2227.34 225.941 L2227.34 224.992 L2223.11 224.992 M2231.6 223.233 L2231.6 238.025 L2227.34 238.025 L2227.34 234.089 Q2225.89 236.451 2223.71 237.585 Q2221.53 238.696 2218.39 238.696 Q2214.4 238.696 2212.04 236.474 Q2209.71 234.228 2209.71 230.478 Q2209.71 226.103 2212.62 223.881 Q2215.56 221.659 2221.37 221.659 L2227.34 221.659 L2227.34 221.242 Q2227.34 218.303 2225.4 216.705 Q2223.48 215.085 2219.98 215.085 Q2217.76 215.085 2215.65 215.617 Q2213.55 216.15 2211.6 217.215 L2211.6 213.279 Q2213.94 212.377 2216.14 211.937 Q2218.34 211.474 2220.42 211.474 Q2226.05 211.474 2228.83 214.391 Q2231.6 217.307 2231.6 223.233 Z" fill="#000000" fill-rule="evenodd" fill-opacity="1" /></svg>
