<?xml version="1.0" encoding="utf-8"?>
<svg xmlns="http://www.w3.org/2000/svg" xmlns:xlink="http://www.w3.org/1999/xlink" width="600" height="400" viewBox="0 0 2400 1600">
<defs>
  <clipPath id="clip820">
    <rect x="0" y="0" width="2400" height="1600"/>
  </clipPath>
</defs>
<path clip-path="url(#clip820)" d="
M0 1600 L2400 1600 L2400 0 L0 0  Z
  " fill="#ffffff" fill-rule="evenodd" fill-opacity="1"/>
<defs>
  <clipPath id="clip821">
    <rect x="480" y="0" width="1681" height="1600"/>
  </clipPath>
</defs>
<path clip-path="url(#clip820)" d="
M172.015 1486.45 L2352.76 1486.45 L2352.76 123.472 L172.015 123.472  Z
  " fill="#ffffff" fill-rule="evenodd" fill-opacity="1"/>
<defs>
  <clipPath id="clip822">
    <rect x="172" y="123" width="2182" height="1364"/>
  </clipPath>
</defs>
<polyline clip-path="url(#clip822)" style="stroke:#000000; stroke-linecap:butt; stroke-linejoin:round; stroke-width:2; stroke-opacity:0.1; fill:none" points="
  233.734,1486.45 233.734,123.472 
  "/>
<polyline clip-path="url(#clip822)" style="stroke:#000000; stroke-linecap:butt; stroke-linejoin:round; stroke-width:2; stroke-opacity:0.1; fill:none" points="
  576.618,1486.45 576.618,123.472 
  "/>
<polyline clip-path="url(#clip822)" style="stroke:#000000; stroke-linecap:butt; stroke-linejoin:round; stroke-width:2; stroke-opacity:0.1; fill:none" points="
  919.502,1486.45 919.502,123.472 
  "/>
<polyline clip-path="url(#clip822)" style="stroke:#000000; stroke-linecap:butt; stroke-linejoin:round; stroke-width:2; stroke-opacity:0.1; fill:none" points="
  1262.39,1486.45 1262.39,123.472 
  "/>
<polyline clip-path="url(#clip822)" style="stroke:#000000; stroke-linecap:butt; stroke-linejoin:round; stroke-width:2; stroke-opacity:0.1; fill:none" points="
  1605.27,1486.45 1605.27,123.472 
  "/>
<polyline clip-path="url(#clip822)" style="stroke:#000000; stroke-linecap:butt; stroke-linejoin:round; stroke-width:2; stroke-opacity:0.1; fill:none" points="
  1948.15,1486.45 1948.15,123.472 
  "/>
<polyline clip-path="url(#clip822)" style="stroke:#000000; stroke-linecap:butt; stroke-linejoin:round; stroke-width:2; stroke-opacity:0.1; fill:none" points="
  2291.04,1486.45 2291.04,123.472 
  "/>
<polyline clip-path="url(#clip820)" style="stroke:#000000; stroke-linecap:butt; stroke-linejoin:round; stroke-width:4; stroke-opacity:1; fill:none" points="
  172.015,1486.45 2352.76,1486.45 
  "/>
<polyline clip-path="url(#clip820)" style="stroke:#000000; stroke-linecap:butt; stroke-linejoin:round; stroke-width:4; stroke-opacity:1; fill:none" points="
  233.734,1486.45 233.734,1470.09 
  "/>
<polyline clip-path="url(#clip820)" style="stroke:#000000; stroke-linecap:butt; stroke-linejoin:round; stroke-width:4; stroke-opacity:1; fill:none" points="
  576.618,1486.45 576.618,1470.09 
  "/>
<polyline clip-path="url(#clip820)" style="stroke:#000000; stroke-linecap:butt; stroke-linejoin:round; stroke-width:4; stroke-opacity:1; fill:none" points="
  919.502,1486.45 919.502,1470.09 
  "/>
<polyline clip-path="url(#clip820)" style="stroke:#000000; stroke-linecap:butt; stroke-linejoin:round; stroke-width:4; stroke-opacity:1; fill:none" points="
  1262.39,1486.45 1262.39,1470.09 
  "/>
<polyline clip-path="url(#clip820)" style="stroke:#000000; stroke-linecap:butt; stroke-linejoin:round; stroke-width:4; stroke-opacity:1; fill:none" points="
  1605.27,1486.45 1605.27,1470.09 
  "/>
<polyline clip-path="url(#clip820)" style="stroke:#000000; stroke-linecap:butt; stroke-linejoin:round; stroke-width:4; stroke-opacity:1; fill:none" points="
  1948.15,1486.45 1948.15,1470.09 
  "/>
<polyline clip-path="url(#clip820)" style="stroke:#000000; stroke-linecap:butt; stroke-linejoin:round; stroke-width:4; stroke-opacity:1; fill:none" points="
  2291.04,1486.45 2291.04,1470.09 
  "/>
<path clip-path="url(#clip820)" d="M203.676 1530.29 L233.352 1530.29 L233.352 1534.23 L203.676 1534.23 L203.676 1530.29 Z" fill="#000000" fill-rule="evenodd" fill-opacity="1" /><path clip-path="url(#clip820)" d="M247.472 1543.18 L263.792 1543.18 L263.792 1547.12 L241.847 1547.12 L241.847 1543.18 Q244.509 1540.43 249.093 1535.8 Q253.699 1531.15 254.88 1529.81 Q257.125 1527.28 258.005 1525.55 Q258.907 1523.79 258.907 1522.1 Q258.907 1519.34 256.963 1517.61 Q255.042 1515.87 251.94 1515.87 Q249.741 1515.87 247.287 1516.63 Q244.857 1517.4 242.079 1518.95 L242.079 1514.23 Q244.903 1513.09 247.357 1512.51 Q249.81 1511.93 251.847 1511.93 Q257.218 1511.93 260.412 1514.62 Q263.606 1517.31 263.606 1521.8 Q263.606 1523.93 262.796 1525.85 Q262.009 1527.74 259.903 1530.34 Q259.324 1531.01 256.222 1534.23 Q253.12 1537.42 247.472 1543.18 Z" fill="#000000" fill-rule="evenodd" fill-opacity="1" /><path clip-path="url(#clip820)" d="M546.375 1530.29 L576.051 1530.29 L576.051 1534.23 L546.375 1534.23 L546.375 1530.29 Z" fill="#000000" fill-rule="evenodd" fill-opacity="1" /><path clip-path="url(#clip820)" d="M586.953 1543.18 L594.592 1543.18 L594.592 1516.82 L586.282 1518.49 L586.282 1514.23 L594.546 1512.56 L599.222 1512.56 L599.222 1543.18 L606.861 1543.18 L606.861 1547.12 L586.953 1547.12 L586.953 1543.18 Z" fill="#000000" fill-rule="evenodd" fill-opacity="1" /><path clip-path="url(#clip820)" d="M919.502 1515.64 Q915.89 1515.64 914.062 1519.2 Q912.256 1522.75 912.256 1529.87 Q912.256 1536.98 914.062 1540.55 Q915.89 1544.09 919.502 1544.09 Q923.136 1544.09 924.941 1540.55 Q926.77 1536.98 926.77 1529.87 Q926.77 1522.75 924.941 1519.2 Q923.136 1515.64 919.502 1515.64 M919.502 1511.93 Q925.312 1511.93 928.367 1516.54 Q931.446 1521.12 931.446 1529.87 Q931.446 1538.6 928.367 1543.21 Q925.312 1547.79 919.502 1547.79 Q913.691 1547.79 910.613 1543.21 Q907.557 1538.6 907.557 1529.87 Q907.557 1521.12 910.613 1516.54 Q913.691 1511.93 919.502 1511.93 Z" fill="#000000" fill-rule="evenodd" fill-opacity="1" /><path clip-path="url(#clip820)" d="M1252.77 1543.18 L1260.41 1543.18 L1260.41 1516.82 L1252.1 1518.49 L1252.1 1514.23 L1260.36 1512.56 L1265.04 1512.56 L1265.04 1543.18 L1272.67 1543.18 L1272.67 1547.12 L1252.77 1547.12 L1252.77 1543.18 Z" fill="#000000" fill-rule="evenodd" fill-opacity="1" /><path clip-path="url(#clip820)" d="M1599.92 1543.18 L1616.24 1543.18 L1616.24 1547.12 L1594.3 1547.12 L1594.3 1543.18 Q1596.96 1540.43 1601.54 1535.8 Q1606.15 1531.15 1607.33 1529.81 Q1609.57 1527.28 1610.45 1525.55 Q1611.36 1523.79 1611.36 1522.1 Q1611.36 1519.34 1609.41 1517.61 Q1607.49 1515.87 1604.39 1515.87 Q1602.19 1515.87 1599.74 1516.63 Q1597.31 1517.4 1594.53 1518.95 L1594.53 1514.23 Q1597.35 1513.09 1599.81 1512.51 Q1602.26 1511.93 1604.3 1511.93 Q1609.67 1511.93 1612.86 1514.62 Q1616.06 1517.31 1616.06 1521.8 Q1616.06 1523.93 1615.25 1525.85 Q1614.46 1527.74 1612.35 1530.34 Q1611.77 1531.01 1608.67 1534.23 Q1605.57 1537.42 1599.92 1543.18 Z" fill="#000000" fill-rule="evenodd" fill-opacity="1" /><path clip-path="url(#clip820)" d="M1952.4 1528.49 Q1955.76 1529.2 1957.63 1531.47 Q1959.53 1533.74 1959.53 1537.07 Q1959.53 1542.19 1956.01 1544.99 Q1952.49 1547.79 1946.01 1547.79 Q1943.84 1547.79 1941.52 1547.35 Q1939.23 1546.93 1936.78 1546.08 L1936.78 1541.56 Q1938.72 1542.7 1941.03 1543.28 Q1943.35 1543.86 1945.87 1543.86 Q1950.27 1543.86 1952.56 1542.12 Q1954.88 1540.38 1954.88 1537.07 Q1954.88 1534.02 1952.72 1532.31 Q1950.6 1530.57 1946.78 1530.57 L1942.75 1530.57 L1942.75 1526.73 L1946.96 1526.73 Q1950.41 1526.73 1952.24 1525.36 Q1954.07 1523.97 1954.07 1521.38 Q1954.07 1518.72 1952.17 1517.31 Q1950.29 1515.87 1946.78 1515.87 Q1944.85 1515.87 1942.66 1516.29 Q1940.46 1516.7 1937.82 1517.58 L1937.82 1513.42 Q1940.48 1512.68 1942.79 1512.31 Q1945.13 1511.93 1947.19 1511.93 Q1952.52 1511.93 1955.62 1514.37 Q1958.72 1516.77 1958.72 1520.89 Q1958.72 1523.76 1957.08 1525.75 Q1955.43 1527.72 1952.4 1528.49 Z" fill="#000000" fill-rule="evenodd" fill-opacity="1" /><path clip-path="url(#clip820)" d="M2294.05 1516.63 L2282.24 1535.08 L2294.05 1535.08 L2294.05 1516.63 M2292.82 1512.56 L2298.7 1512.56 L2298.7 1535.08 L2303.63 1535.08 L2303.63 1538.97 L2298.7 1538.97 L2298.7 1547.12 L2294.05 1547.12 L2294.05 1538.97 L2278.44 1538.97 L2278.44 1534.46 L2292.82 1512.56 Z" fill="#000000" fill-rule="evenodd" fill-opacity="1" /><polyline clip-path="url(#clip822)" style="stroke:#000000; stroke-linecap:butt; stroke-linejoin:round; stroke-width:2; stroke-opacity:0.1; fill:none" points="
  172.015,1447.87 2352.76,1447.87 
  "/>
<polyline clip-path="url(#clip822)" style="stroke:#000000; stroke-linecap:butt; stroke-linejoin:round; stroke-width:2; stroke-opacity:0.1; fill:none" points="
  172.015,1138.04 2352.76,1138.04 
  "/>
<polyline clip-path="url(#clip822)" style="stroke:#000000; stroke-linecap:butt; stroke-linejoin:round; stroke-width:2; stroke-opacity:0.1; fill:none" points="
  172.015,828.198 2352.76,828.198 
  "/>
<polyline clip-path="url(#clip822)" style="stroke:#000000; stroke-linecap:butt; stroke-linejoin:round; stroke-width:2; stroke-opacity:0.1; fill:none" points="
  172.015,518.36 2352.76,518.36 
  "/>
<polyline clip-path="url(#clip822)" style="stroke:#000000; stroke-linecap:butt; stroke-linejoin:round; stroke-width:2; stroke-opacity:0.1; fill:none" points="
  172.015,208.523 2352.76,208.523 
  "/>
<polyline clip-path="url(#clip820)" style="stroke:#000000; stroke-linecap:butt; stroke-linejoin:round; stroke-width:4; stroke-opacity:1; fill:none" points="
  172.015,1486.45 172.015,123.472 
  "/>
<polyline clip-path="url(#clip820)" style="stroke:#000000; stroke-linecap:butt; stroke-linejoin:round; stroke-width:4; stroke-opacity:1; fill:none" points="
  172.015,1447.87 198.184,1447.87 
  "/>
<polyline clip-path="url(#clip820)" style="stroke:#000000; stroke-linecap:butt; stroke-linejoin:round; stroke-width:4; stroke-opacity:1; fill:none" points="
  172.015,1138.04 198.184,1138.04 
  "/>
<polyline clip-path="url(#clip820)" style="stroke:#000000; stroke-linecap:butt; stroke-linejoin:round; stroke-width:4; stroke-opacity:1; fill:none" points="
  172.015,828.198 198.184,828.198 
  "/>
<polyline clip-path="url(#clip820)" style="stroke:#000000; stroke-linecap:butt; stroke-linejoin:round; stroke-width:4; stroke-opacity:1; fill:none" points="
  172.015,518.36 198.184,518.36 
  "/>
<polyline clip-path="url(#clip820)" style="stroke:#000000; stroke-linecap:butt; stroke-linejoin:round; stroke-width:4; stroke-opacity:1; fill:none" points="
  172.015,208.523 198.184,208.523 
  "/>
<path clip-path="url(#clip820)" d="M124.07 1433.67 Q120.459 1433.67 118.631 1437.24 Q116.825 1440.78 116.825 1447.91 Q116.825 1455.01 118.631 1458.58 Q120.459 1462.12 124.07 1462.12 Q127.705 1462.12 129.51 1458.58 Q131.339 1455.01 131.339 1447.91 Q131.339 1440.78 129.51 1437.24 Q127.705 1433.67 124.07 1433.67 M124.07 1429.97 Q129.881 1429.97 132.936 1434.57 Q136.015 1439.16 136.015 1447.91 Q136.015 1456.63 132.936 1461.24 Q129.881 1465.82 124.07 1465.82 Q118.26 1465.82 115.182 1461.24 Q112.126 1456.63 112.126 1447.91 Q112.126 1439.16 115.182 1434.57 Q118.26 1429.97 124.07 1429.97 Z" fill="#000000" fill-rule="evenodd" fill-opacity="1" /><path clip-path="url(#clip820)" d="M57.7745 1151.38 L74.0939 1151.38 L74.0939 1155.32 L52.1495 1155.32 L52.1495 1151.38 Q54.8115 1148.63 59.3949 1144 Q64.0013 1139.34 65.1819 1138 Q67.4272 1135.48 68.3068 1133.74 Q69.2096 1131.98 69.2096 1130.29 Q69.2096 1127.54 67.2652 1125.8 Q65.3439 1124.07 62.2421 1124.07 Q60.043 1124.07 57.5893 1124.83 Q55.1588 1125.59 52.381 1127.14 L52.381 1122.42 Q55.2051 1121.29 57.6588 1120.71 Q60.1124 1120.13 62.1495 1120.13 Q67.5198 1120.13 70.7142 1122.82 Q73.9087 1125.5 73.9087 1129.99 Q73.9087 1132.12 73.0985 1134.04 Q72.3115 1135.94 70.205 1138.53 Q69.6263 1139.2 66.5245 1142.42 Q63.4226 1145.62 57.7745 1151.38 Z" fill="#000000" fill-rule="evenodd" fill-opacity="1" /><path clip-path="url(#clip820)" d="M93.9086 1123.83 Q90.2975 1123.83 88.4688 1127.4 Q86.6632 1130.94 86.6632 1138.07 Q86.6632 1145.18 88.4688 1148.74 Q90.2975 1152.28 93.9086 1152.28 Q97.5428 1152.28 99.3483 1148.74 Q101.177 1145.18 101.177 1138.07 Q101.177 1130.94 99.3483 1127.4 Q97.5428 1123.83 93.9086 1123.83 M93.9086 1120.13 Q99.7187 1120.13 102.774 1124.74 Q105.853 1129.32 105.853 1138.07 Q105.853 1146.8 102.774 1151.4 Q99.7187 1155.99 93.9086 1155.99 Q88.0984 1155.99 85.0197 1151.4 Q81.9642 1146.8 81.9642 1138.07 Q81.9642 1129.32 85.0197 1124.74 Q88.0984 1120.13 93.9086 1120.13 Z" fill="#000000" fill-rule="evenodd" fill-opacity="1" /><path clip-path="url(#clip820)" d="M124.07 1123.83 Q120.459 1123.83 118.631 1127.4 Q116.825 1130.94 116.825 1138.07 Q116.825 1145.18 118.631 1148.74 Q120.459 1152.28 124.07 1152.28 Q127.705 1152.28 129.51 1148.74 Q131.339 1145.18 131.339 1138.07 Q131.339 1130.94 129.51 1127.4 Q127.705 1123.83 124.07 1123.83 M124.07 1120.13 Q129.881 1120.13 132.936 1124.74 Q136.015 1129.32 136.015 1138.07 Q136.015 1146.8 132.936 1151.4 Q129.881 1155.99 124.07 1155.99 Q118.26 1155.99 115.182 1151.4 Q112.126 1146.8 112.126 1138.07 Q112.126 1129.32 115.182 1124.74 Q118.26 1120.13 124.07 1120.13 Z" fill="#000000" fill-rule="evenodd" fill-opacity="1" /><path clip-path="url(#clip820)" d="M66.5939 814.992 L54.7884 833.441 L66.5939 833.441 L66.5939 814.992 M65.367 810.918 L71.2466 810.918 L71.2466 833.441 L76.1772 833.441 L76.1772 837.33 L71.2466 837.33 L71.2466 845.478 L66.5939 845.478 L66.5939 837.33 L50.9921 837.33 L50.9921 832.816 L65.367 810.918 Z" fill="#000000" fill-rule="evenodd" fill-opacity="1" /><path clip-path="url(#clip820)" d="M93.9086 813.997 Q90.2975 813.997 88.4688 817.561 Q86.6632 821.103 86.6632 828.233 Q86.6632 835.339 88.4688 838.904 Q90.2975 842.445 93.9086 842.445 Q97.5428 842.445 99.3483 838.904 Q101.177 835.339 101.177 828.233 Q101.177 821.103 99.3483 817.561 Q97.5428 813.997 93.9086 813.997 M93.9086 810.293 Q99.7187 810.293 102.774 814.899 Q105.853 819.483 105.853 828.233 Q105.853 836.959 102.774 841.566 Q99.7187 846.149 93.9086 846.149 Q88.0984 846.149 85.0197 841.566 Q81.9642 836.959 81.9642 828.233 Q81.9642 819.483 85.0197 814.899 Q88.0984 810.293 93.9086 810.293 Z" fill="#000000" fill-rule="evenodd" fill-opacity="1" /><path clip-path="url(#clip820)" d="M124.07 813.997 Q120.459 813.997 118.631 817.561 Q116.825 821.103 116.825 828.233 Q116.825 835.339 118.631 838.904 Q120.459 842.445 124.07 842.445 Q127.705 842.445 129.51 838.904 Q131.339 835.339 131.339 828.233 Q131.339 821.103 129.51 817.561 Q127.705 813.997 124.07 813.997 M124.07 810.293 Q129.881 810.293 132.936 814.899 Q136.015 819.483 136.015 828.233 Q136.015 836.959 132.936 841.566 Q129.881 846.149 124.07 846.149 Q118.26 846.149 115.182 841.566 Q112.126 836.959 112.126 828.233 Q112.126 819.483 115.182 814.899 Q118.26 810.293 124.07 810.293 Z" fill="#000000" fill-rule="evenodd" fill-opacity="1" /><path clip-path="url(#clip820)" d="M64.3254 516.497 Q61.1773 516.497 59.3254 518.65 Q57.4967 520.802 57.4967 524.552 Q57.4967 528.279 59.3254 530.455 Q61.1773 532.608 64.3254 532.608 Q67.4735 532.608 69.3022 530.455 Q71.1541 528.279 71.1541 524.552 Q71.1541 520.802 69.3022 518.65 Q67.4735 516.497 64.3254 516.497 M73.6077 501.844 L73.6077 506.103 Q71.8485 505.27 70.0429 504.83 Q68.2606 504.39 66.5013 504.39 Q61.8717 504.39 59.418 507.515 Q56.9875 510.64 56.6402 516.96 Q58.006 514.946 60.0662 513.881 Q62.1263 512.793 64.6032 512.793 Q69.8115 512.793 72.8207 515.964 Q75.8531 519.113 75.8531 524.552 Q75.8531 529.876 72.705 533.094 Q69.5568 536.311 64.3254 536.311 Q58.33 536.311 55.1588 531.728 Q51.9875 527.122 51.9875 518.395 Q51.9875 510.201 55.8764 505.339 Q59.7652 500.455 66.3161 500.455 Q68.0754 500.455 69.8578 500.802 Q71.6633 501.15 73.6077 501.844 Z" fill="#000000" fill-rule="evenodd" fill-opacity="1" /><path clip-path="url(#clip820)" d="M93.9086 504.159 Q90.2975 504.159 88.4688 507.724 Q86.6632 511.265 86.6632 518.395 Q86.6632 525.501 88.4688 529.066 Q90.2975 532.608 93.9086 532.608 Q97.5428 532.608 99.3483 529.066 Q101.177 525.501 101.177 518.395 Q101.177 511.265 99.3483 507.724 Q97.5428 504.159 93.9086 504.159 M93.9086 500.455 Q99.7187 500.455 102.774 505.062 Q105.853 509.645 105.853 518.395 Q105.853 527.122 102.774 531.728 Q99.7187 536.311 93.9086 536.311 Q88.0984 536.311 85.0197 531.728 Q81.9642 527.122 81.9642 518.395 Q81.9642 509.645 85.0197 505.062 Q88.0984 500.455 93.9086 500.455 Z" fill="#000000" fill-rule="evenodd" fill-opacity="1" /><path clip-path="url(#clip820)" d="M124.07 504.159 Q120.459 504.159 118.631 507.724 Q116.825 511.265 116.825 518.395 Q116.825 525.501 118.631 529.066 Q120.459 532.608 124.07 532.608 Q127.705 532.608 129.51 529.066 Q131.339 525.501 131.339 518.395 Q131.339 511.265 129.51 507.724 Q127.705 504.159 124.07 504.159 M124.07 500.455 Q129.881 500.455 132.936 505.062 Q136.015 509.645 136.015 518.395 Q136.015 527.122 132.936 531.728 Q129.881 536.311 124.07 536.311 Q118.26 536.311 115.182 531.728 Q112.126 527.122 112.126 518.395 Q112.126 509.645 115.182 505.062 Q118.26 500.455 124.07 500.455 Z" fill="#000000" fill-rule="evenodd" fill-opacity="1" /><path clip-path="url(#clip820)" d="M63.7467 209.391 Q60.4134 209.391 58.4921 211.173 Q56.5939 212.955 56.5939 216.08 Q56.5939 219.205 58.4921 220.988 Q60.4134 222.77 63.7467 222.77 Q67.08 222.77 69.0013 220.988 Q70.9226 219.182 70.9226 216.08 Q70.9226 212.955 69.0013 211.173 Q67.1032 209.391 63.7467 209.391 M59.0708 207.4 Q56.0615 206.659 54.3717 204.599 Q52.7051 202.539 52.7051 199.576 Q52.7051 195.432 55.6449 193.025 Q58.6078 190.618 63.7467 190.618 Q68.9087 190.618 71.8485 193.025 Q74.7883 195.432 74.7883 199.576 Q74.7883 202.539 73.0985 204.599 Q71.4318 206.659 68.4457 207.4 Q71.8253 208.187 73.7003 210.479 Q75.5985 212.77 75.5985 216.08 Q75.5985 221.104 72.5198 223.789 Q69.4642 226.474 63.7467 226.474 Q58.0291 226.474 54.9504 223.789 Q51.8949 221.104 51.8949 216.08 Q51.8949 212.77 53.793 210.479 Q55.6912 208.187 59.0708 207.4 M57.3578 200.016 Q57.3578 202.701 59.0245 204.205 Q60.7143 205.71 63.7467 205.71 Q66.7559 205.71 68.4457 204.205 Q70.1587 202.701 70.1587 200.016 Q70.1587 197.33 68.4457 195.826 Q66.7559 194.321 63.7467 194.321 Q60.7143 194.321 59.0245 195.826 Q57.3578 197.33 57.3578 200.016 Z" fill="#000000" fill-rule="evenodd" fill-opacity="1" /><path clip-path="url(#clip820)" d="M93.9086 194.321 Q90.2975 194.321 88.4688 197.886 Q86.6632 201.428 86.6632 208.557 Q86.6632 215.664 88.4688 219.229 Q90.2975 222.77 93.9086 222.77 Q97.5428 222.77 99.3483 219.229 Q101.177 215.664 101.177 208.557 Q101.177 201.428 99.3483 197.886 Q97.5428 194.321 93.9086 194.321 M93.9086 190.618 Q99.7187 190.618 102.774 195.224 Q105.853 199.807 105.853 208.557 Q105.853 217.284 102.774 221.891 Q99.7187 226.474 93.9086 226.474 Q88.0984 226.474 85.0197 221.891 Q81.9642 217.284 81.9642 208.557 Q81.9642 199.807 85.0197 195.224 Q88.0984 190.618 93.9086 190.618 Z" fill="#000000" fill-rule="evenodd" fill-opacity="1" /><path clip-path="url(#clip820)" d="M124.07 194.321 Q120.459 194.321 118.631 197.886 Q116.825 201.428 116.825 208.557 Q116.825 215.664 118.631 219.229 Q120.459 222.77 124.07 222.77 Q127.705 222.77 129.51 219.229 Q131.339 215.664 131.339 208.557 Q131.339 201.428 129.51 197.886 Q127.705 194.321 124.07 194.321 M124.07 190.618 Q129.881 190.618 132.936 195.224 Q136.015 199.807 136.015 208.557 Q136.015 217.284 132.936 221.891 Q129.881 226.474 124.07 226.474 Q118.26 226.474 115.182 221.891 Q112.126 217.284 112.126 208.557 Q112.126 199.807 115.182 195.224 Q118.26 190.618 124.07 190.618 Z" fill="#000000" fill-rule="evenodd" fill-opacity="1" /><path clip-path="url(#clip820)" d="M1179.36 18.8205 L1179.36 65.8515 L1189.25 65.8515 Q1201.76 65.8515 1207.56 60.1802 Q1213.39 54.509 1213.39 42.2752 Q1213.39 30.1225 1207.56 24.4918 Q1201.76 18.8205 1189.25 18.8205 L1179.36 18.8205 M1171.18 12.096 L1187.99 12.096 Q1205.57 12.096 1213.79 19.4281 Q1222.02 26.7198 1222.02 42.2752 Q1222.02 57.9117 1213.75 65.2439 Q1205.49 72.576 1187.99 72.576 L1171.18 72.576 L1171.18 12.096 Z" fill="#000000" fill-rule="evenodd" fill-opacity="1" /><path clip-path="url(#clip820)" d="M1255.36 49.7694 Q1246.32 49.7694 1242.84 51.8354 Q1239.36 53.9013 1239.36 58.8839 Q1239.36 62.8538 1241.95 65.2034 Q1244.58 67.5124 1249.08 67.5124 Q1255.28 67.5124 1259 63.1374 Q1262.77 58.7219 1262.77 51.4303 L1262.77 49.7694 L1255.36 49.7694 M1270.22 46.6907 L1270.22 72.576 L1262.77 72.576 L1262.77 65.6895 Q1260.22 69.8214 1256.41 71.8063 Q1252.6 73.7508 1247.09 73.7508 Q1240.13 73.7508 1235.99 69.8619 Q1231.9 65.9325 1231.9 59.3701 Q1231.9 51.7138 1237.01 47.825 Q1242.15 43.9361 1252.32 43.9361 L1262.77 43.9361 L1262.77 43.2069 Q1262.77 38.0623 1259.37 35.2672 Q1256.01 32.4315 1249.89 32.4315 Q1246 32.4315 1242.31 33.3632 Q1238.63 34.295 1235.22 36.1584 L1235.22 29.2718 Q1239.32 27.692 1243.16 26.9223 Q1247.01 26.1121 1250.66 26.1121 Q1260.5 26.1121 1265.36 31.2163 Q1270.22 36.3204 1270.22 46.6907 Z" fill="#000000" fill-rule="evenodd" fill-opacity="1" /><path clip-path="url(#clip820)" d="M1292.95 14.324 L1292.95 27.2059 L1308.3 27.2059 L1308.3 32.9987 L1292.95 32.9987 L1292.95 57.6282 Q1292.95 63.1779 1294.45 64.7578 Q1295.99 66.3376 1300.65 66.3376 L1308.3 66.3376 L1308.3 72.576 L1300.65 72.576 Q1292.02 72.576 1288.74 69.3758 Q1285.46 66.1351 1285.46 57.6282 L1285.46 32.9987 L1279.99 32.9987 L1279.99 27.2059 L1285.46 27.2059 L1285.46 14.324 L1292.95 14.324 Z" fill="#000000" fill-rule="evenodd" fill-opacity="1" /><path clip-path="url(#clip820)" d="M1338.72 49.7694 Q1329.69 49.7694 1326.21 51.8354 Q1322.72 53.9013 1322.72 58.8839 Q1322.72 62.8538 1325.32 65.2034 Q1327.95 67.5124 1332.45 67.5124 Q1338.64 67.5124 1342.37 63.1374 Q1346.14 58.7219 1346.14 51.4303 L1346.14 49.7694 L1338.72 49.7694 M1353.59 46.6907 L1353.59 72.576 L1346.14 72.576 L1346.14 65.6895 Q1343.59 69.8214 1339.78 71.8063 Q1335.97 73.7508 1330.46 73.7508 Q1323.49 73.7508 1319.36 69.8619 Q1315.27 65.9325 1315.27 59.3701 Q1315.27 51.7138 1320.37 47.825 Q1325.52 43.9361 1335.69 43.9361 L1346.14 43.9361 L1346.14 43.2069 Q1346.14 38.0623 1342.74 35.2672 Q1339.37 32.4315 1333.26 32.4315 Q1329.37 32.4315 1325.68 33.3632 Q1321.99 34.295 1318.59 36.1584 L1318.59 29.2718 Q1322.68 27.692 1326.53 26.9223 Q1330.38 26.1121 1334.03 26.1121 Q1343.87 26.1121 1348.73 31.2163 Q1353.59 36.3204 1353.59 46.6907 Z" fill="#000000" fill-rule="evenodd" fill-opacity="1" /><polyline clip-path="url(#clip822)" style="stroke:#009af9; stroke-linecap:butt; stroke-linejoin:round; stroke-width:4; stroke-opacity:1; fill:none" points="
  233.734,1447.87 233.734,1354.92 268.022,1354.92 268.022,1292.95 302.311,1292.95 302.311,1308.45 336.599,1308.45 336.599,1261.97 370.887,1261.97 370.887,1107.05 
  405.176,1107.05 405.176,1122.54 439.464,1122.54 439.464,812.706 473.753,812.706 473.753,998.609 508.041,998.609 508.041,921.149 542.329,921.149 542.329,719.755 
  576.618,719.755 576.618,704.263 610.906,704.263 610.906,812.706 645.194,812.706 645.194,921.149 679.483,921.149 679.483,1014.1 713.771,1014.1 713.771,1107.05 
  748.06,1107.05 748.06,1215.49 782.348,1215.49 782.348,1184.51 816.636,1184.51 816.636,1138.04 850.925,1138.04 850.925,1354.92 885.213,1354.92 885.213,1323.94 
  919.502,1323.94 919.502,1385.91 953.79,1385.91 953.79,1370.41 988.078,1370.41 988.078,1401.4 1022.37,1401.4 1022.37,1432.38 1056.66,1432.38 1056.66,1416.89 
  1090.94,1416.89 1090.94,1447.87 1125.23,1447.87 1125.23,1401.4 1159.52,1401.4 1159.52,1416.89 1193.81,1416.89 1193.81,1354.92 1228.1,1354.92 1228.1,1292.95 
  1262.39,1292.95 1262.39,1215.49 1296.67,1215.49 1296.67,1200 1330.96,1200 1330.96,1153.53 1365.25,1153.53 1365.25,890.165 1399.54,890.165 1399.54,719.755 
  1433.83,719.755 1433.83,595.82 1468.12,595.82 1468.12,580.328 1502.4,580.328 1502.4,363.441 1536.69,363.441 1536.69,162.047 1570.98,162.047 1570.98,285.982 
  1605.27,285.982 1605.27,378.933 1639.56,378.933 1639.56,285.982 1673.85,285.982 1673.85,224.014 1708.13,224.014 1708.13,394.425 1742.42,394.425 1742.42,518.36 
  1776.71,518.36 1776.71,859.182 1811,859.182 1811,828.198 1845.29,828.198 1845.29,1060.58 1879.58,1060.58 1879.58,1122.54 1913.86,1122.54 1913.86,1230.99 
  1948.15,1230.99 1948.15,1354.92 1982.44,1354.92 1982.44,1370.41 2016.73,1370.41 2051.02,1370.41 2051.02,1447.87 2085.31,1447.87 
  2119.59,1447.87 2153.88,1447.87 2188.17,1447.87 2222.46,1447.87 2256.75,1447.87 
  2291.04,1447.87 
  "/>
<path clip-path="url(#clip820)" d="
M1933.52 289.865 L2280.06 289.865 L2280.06 168.905 L1933.52 168.905  Z
  " fill="#ffffff" fill-rule="evenodd" fill-opacity="1"/>
<polyline clip-path="url(#clip820)" style="stroke:#000000; stroke-linecap:butt; stroke-linejoin:round; stroke-width:4; stroke-opacity:1; fill:none" points="
  1933.52,289.865 2280.06,289.865 2280.06,168.905 1933.52,168.905 1933.52,289.865 
  "/>
<polyline clip-path="url(#clip820)" style="stroke:#009af9; stroke-linecap:butt; stroke-linejoin:round; stroke-width:4; stroke-opacity:1; fill:none" points="
  1957.75,229.385 2103.14,229.385 
  "/>
<path clip-path="url(#clip820)" d="M2132.04 215.947 L2132.04 242.822 L2137.69 242.822 Q2144.84 242.822 2148.15 239.581 Q2151.49 236.341 2151.49 229.35 Q2151.49 222.406 2148.15 219.188 Q2144.84 215.947 2137.69 215.947 L2132.04 215.947 M2127.37 212.105 L2136.97 212.105 Q2147.02 212.105 2151.72 216.294 Q2156.42 220.461 2156.42 229.35 Q2156.42 238.285 2151.7 242.475 Q2146.97 246.665 2136.97 246.665 L2127.37 246.665 L2127.37 212.105 Z" fill="#000000" fill-rule="evenodd" fill-opacity="1" /><path clip-path="url(#clip820)" d="M2175.47 233.632 Q2170.31 233.632 2168.32 234.813 Q2166.33 235.993 2166.33 238.841 Q2166.33 241.109 2167.81 242.452 Q2169.31 243.771 2171.88 243.771 Q2175.42 243.771 2177.55 241.271 Q2179.71 238.748 2179.71 234.581 L2179.71 233.632 L2175.47 233.632 M2183.96 231.873 L2183.96 246.665 L2179.71 246.665 L2179.71 242.729 Q2178.25 245.091 2176.07 246.225 Q2173.9 247.336 2170.75 247.336 Q2166.77 247.336 2164.4 245.114 Q2162.07 242.868 2162.07 239.118 Q2162.07 234.743 2164.98 232.521 Q2167.92 230.299 2173.73 230.299 L2179.71 230.299 L2179.71 229.882 Q2179.71 226.943 2177.76 225.345 Q2175.84 223.725 2172.34 223.725 Q2170.12 223.725 2168.02 224.257 Q2165.91 224.79 2163.97 225.855 L2163.97 221.919 Q2166.3 221.017 2168.5 220.577 Q2170.7 220.114 2172.78 220.114 Q2178.41 220.114 2181.19 223.031 Q2183.96 225.947 2183.96 231.873 Z" fill="#000000" fill-rule="evenodd" fill-opacity="1" /><path clip-path="url(#clip820)" d="M2196.95 213.378 L2196.95 220.739 L2205.72 220.739 L2205.72 224.049 L2196.95 224.049 L2196.95 238.123 Q2196.95 241.294 2197.81 242.197 Q2198.69 243.1 2201.35 243.1 L2205.72 243.1 L2205.72 246.665 L2201.35 246.665 Q2196.42 246.665 2194.54 244.836 Q2192.67 242.984 2192.67 238.123 L2192.67 224.049 L2189.54 224.049 L2189.54 220.739 L2192.67 220.739 L2192.67 213.378 L2196.95 213.378 Z" fill="#000000" fill-rule="evenodd" fill-opacity="1" /><path clip-path="url(#clip820)" d="M2223.11 233.632 Q2217.95 233.632 2215.96 234.813 Q2213.96 235.993 2213.96 238.841 Q2213.96 241.109 2215.45 242.452 Q2216.95 243.771 2219.52 243.771 Q2223.06 243.771 2225.19 241.271 Q2227.34 238.748 2227.34 234.581 L2227.34 233.632 L2223.11 233.632 M2231.6 231.873 L2231.6 246.665 L2227.34 246.665 L2227.34 242.729 Q2225.89 245.091 2223.71 246.225 Q2221.53 247.336 2218.39 247.336 Q2214.4 247.336 2212.04 245.114 Q2209.71 242.868 2209.71 239.118 Q2209.71 234.743 2212.62 232.521 Q2215.56 230.299 2221.37 230.299 L2227.34 230.299 L2227.34 229.882 Q2227.34 226.943 2225.4 225.345 Q2223.48 223.725 2219.98 223.725 Q2217.76 223.725 2215.65 224.257 Q2213.55 224.79 2211.6 225.855 L2211.6 221.919 Q2213.94 221.017 2216.14 220.577 Q2218.34 220.114 2220.42 220.114 Q2226.05 220.114 2228.83 223.031 Q2231.6 225.947 2231.6 231.873 Z" fill="#000000" fill-rule="evenodd" fill-opacity="1" /></svg>
