<?xml version="1.0" encoding="utf-8"?>
<svg xmlns="http://www.w3.org/2000/svg" xmlns:xlink="http://www.w3.org/1999/xlink" width="600" height="400" viewBox="0 0 2400 1600">
<defs>
  <clipPath id="clip0900">
    <rect x="0" y="0" width="2400" height="1600"/>
  </clipPath>
</defs>
<path clip-path="url(#clip0900)" d="
M0 1600 L2400 1600 L2400 0 L0 0  Z
  " fill="#ffffff" fill-rule="evenodd" fill-opacity="1"/>
<defs>
  <clipPath id="clip0901">
    <rect x="480" y="0" width="1681" height="1600"/>
  </clipPath>
</defs>
<path clip-path="url(#clip0900)" d="
M167.279 1487.47 L2352.76 1487.47 L2352.76 121.675 L167.279 121.675  Z
  " fill="#ffffff" fill-rule="evenodd" fill-opacity="1"/>
<defs>
  <clipPath id="clip0902">
    <rect x="167" y="121" width="2186" height="1367"/>
  </clipPath>
</defs>
<polyline clip-path="url(#clip0902)" style="stroke:#000000; stroke-width:2; stroke-opacity:0.1; fill:none" points="
  229.132,1487.47 229.132,121.675 
  "/>
<polyline clip-path="url(#clip0902)" style="stroke:#000000; stroke-width:2; stroke-opacity:0.1; fill:none" points="
  744.575,1487.47 744.575,121.675 
  "/>
<polyline clip-path="url(#clip0902)" style="stroke:#000000; stroke-width:2; stroke-opacity:0.1; fill:none" points="
  1260.02,1487.47 1260.02,121.675 
  "/>
<polyline clip-path="url(#clip0902)" style="stroke:#000000; stroke-width:2; stroke-opacity:0.1; fill:none" points="
  1775.46,1487.47 1775.46,121.675 
  "/>
<polyline clip-path="url(#clip0902)" style="stroke:#000000; stroke-width:2; stroke-opacity:0.1; fill:none" points="
  2290.9,1487.47 2290.9,121.675 
  "/>
<polyline clip-path="url(#clip0902)" style="stroke:#000000; stroke-width:2; stroke-opacity:0.1; fill:none" points="
  167.279,1448.82 2352.76,1448.82 
  "/>
<polyline clip-path="url(#clip0902)" style="stroke:#000000; stroke-width:2; stroke-opacity:0.1; fill:none" points="
  167.279,1145.65 2352.76,1145.65 
  "/>
<polyline clip-path="url(#clip0902)" style="stroke:#000000; stroke-width:2; stroke-opacity:0.1; fill:none" points="
  167.279,842.472 2352.76,842.472 
  "/>
<polyline clip-path="url(#clip0902)" style="stroke:#000000; stroke-width:2; stroke-opacity:0.1; fill:none" points="
  167.279,539.298 2352.76,539.298 
  "/>
<polyline clip-path="url(#clip0902)" style="stroke:#000000; stroke-width:2; stroke-opacity:0.1; fill:none" points="
  167.279,236.123 2352.76,236.123 
  "/>
<polyline clip-path="url(#clip0900)" style="stroke:#000000; stroke-width:4; stroke-opacity:1; fill:none" points="
  167.279,1487.47 2352.76,1487.47 
  "/>
<polyline clip-path="url(#clip0900)" style="stroke:#000000; stroke-width:4; stroke-opacity:1; fill:none" points="
  167.279,1487.47 167.279,121.675 
  "/>
<polyline clip-path="url(#clip0900)" style="stroke:#000000; stroke-width:4; stroke-opacity:1; fill:none" points="
  229.132,1487.47 229.132,1471.09 
  "/>
<polyline clip-path="url(#clip0900)" style="stroke:#000000; stroke-width:4; stroke-opacity:1; fill:none" points="
  744.575,1487.47 744.575,1471.09 
  "/>
<polyline clip-path="url(#clip0900)" style="stroke:#000000; stroke-width:4; stroke-opacity:1; fill:none" points="
  1260.02,1487.47 1260.02,1471.09 
  "/>
<polyline clip-path="url(#clip0900)" style="stroke:#000000; stroke-width:4; stroke-opacity:1; fill:none" points="
  1775.46,1487.47 1775.46,1471.09 
  "/>
<polyline clip-path="url(#clip0900)" style="stroke:#000000; stroke-width:4; stroke-opacity:1; fill:none" points="
  2290.9,1487.47 2290.9,1471.09 
  "/>
<polyline clip-path="url(#clip0900)" style="stroke:#000000; stroke-width:4; stroke-opacity:1; fill:none" points="
  167.279,1448.82 193.505,1448.82 
  "/>
<polyline clip-path="url(#clip0900)" style="stroke:#000000; stroke-width:4; stroke-opacity:1; fill:none" points="
  167.279,1145.65 193.505,1145.65 
  "/>
<polyline clip-path="url(#clip0900)" style="stroke:#000000; stroke-width:4; stroke-opacity:1; fill:none" points="
  167.279,842.472 193.505,842.472 
  "/>
<polyline clip-path="url(#clip0900)" style="stroke:#000000; stroke-width:4; stroke-opacity:1; fill:none" points="
  167.279,539.298 193.505,539.298 
  "/>
<polyline clip-path="url(#clip0900)" style="stroke:#000000; stroke-width:4; stroke-opacity:1; fill:none" points="
  167.279,236.123 193.505,236.123 
  "/>
<g clip-path="url(#clip0900)">
<text style="fill:#000000; fill-opacity:1; font-family:Arial,Helvetica Neue,Helvetica,sans-serif; font-size:48px; text-anchor:middle;" transform="rotate(0, 229.132, 1541.47)" x="229.132" y="1541.47">-4</text>
</g>
<g clip-path="url(#clip0900)">
<text style="fill:#000000; fill-opacity:1; font-family:Arial,Helvetica Neue,Helvetica,sans-serif; font-size:48px; text-anchor:middle;" transform="rotate(0, 744.575, 1541.47)" x="744.575" y="1541.47">-2</text>
</g>
<g clip-path="url(#clip0900)">
<text style="fill:#000000; fill-opacity:1; font-family:Arial,Helvetica Neue,Helvetica,sans-serif; font-size:48px; text-anchor:middle;" transform="rotate(0, 1260.02, 1541.47)" x="1260.02" y="1541.47">0</text>
</g>
<g clip-path="url(#clip0900)">
<text style="fill:#000000; fill-opacity:1; font-family:Arial,Helvetica Neue,Helvetica,sans-serif; font-size:48px; text-anchor:middle;" transform="rotate(0, 1775.46, 1541.47)" x="1775.46" y="1541.47">2</text>
</g>
<g clip-path="url(#clip0900)">
<text style="fill:#000000; fill-opacity:1; font-family:Arial,Helvetica Neue,Helvetica,sans-serif; font-size:48px; text-anchor:middle;" transform="rotate(0, 2290.9, 1541.47)" x="2290.9" y="1541.47">4</text>
</g>
<g clip-path="url(#clip0900)">
<text style="fill:#000000; fill-opacity:1; font-family:Arial,Helvetica Neue,Helvetica,sans-serif; font-size:48px; text-anchor:end;" transform="rotate(0, 143.279, 1466.32)" x="143.279" y="1466.32">0</text>
</g>
<g clip-path="url(#clip0900)">
<text style="fill:#000000; fill-opacity:1; font-family:Arial,Helvetica Neue,Helvetica,sans-serif; font-size:48px; text-anchor:end;" transform="rotate(0, 143.279, 1163.15)" x="143.279" y="1163.15">200</text>
</g>
<g clip-path="url(#clip0900)">
<text style="fill:#000000; fill-opacity:1; font-family:Arial,Helvetica Neue,Helvetica,sans-serif; font-size:48px; text-anchor:end;" transform="rotate(0, 143.279, 859.972)" x="143.279" y="859.972">400</text>
</g>
<g clip-path="url(#clip0900)">
<text style="fill:#000000; fill-opacity:1; font-family:Arial,Helvetica Neue,Helvetica,sans-serif; font-size:48px; text-anchor:end;" transform="rotate(0, 143.279, 556.798)" x="143.279" y="556.798">600</text>
</g>
<g clip-path="url(#clip0900)">
<text style="fill:#000000; fill-opacity:1; font-family:Arial,Helvetica Neue,Helvetica,sans-serif; font-size:48px; text-anchor:end;" transform="rotate(0, 143.279, 253.623)" x="143.279" y="253.623">800</text>
</g>
<g clip-path="url(#clip0900)">
<text style="fill:#000000; fill-opacity:1; font-family:Arial,Helvetica Neue,Helvetica,sans-serif; font-size:84px; text-anchor:middle;" transform="rotate(0, 1260.02, 73.2)" x="1260.02" y="73.2">Data, True Model and Best Fit</text>
</g>
<polyline clip-path="url(#clip0902)" style="stroke:#009af9; stroke-width:4; stroke-opacity:1; fill:none" points="
  744.575,1448.82 744.575,1327.55 770.347,1327.55 770.347,1342.71 796.119,1342.71 796.119,1221.44 821.891,1221.44 821.891,1206.28 847.663,1206.28 847.663,1069.85 
  873.436,1069.85 873.436,1145.65 899.208,1145.65 899.208,872.789 924.98,872.789 924.98,887.948 950.752,887.948 950.752,842.472 976.524,842.472 976.524,781.837 
  1002.3,781.837 1002.3,842.472 1028.07,842.472 1028.07,1009.22 1053.84,1009.22 1053.84,887.948 1079.61,887.948 1079.61,933.424 1105.38,933.424 1105.38,1039.53 
  1131.16,1039.53 1131.16,1175.96 1156.93,1175.96 1156.93,1236.6 1182.7,1236.6 1182.7,1297.23 1208.47,1297.23 1208.47,1266.92 1234.25,1266.92 1234.25,1342.71 
  1260.02,1342.71 1260.02,1403.34 1285.79,1403.34 1285.79,1418.5 1311.56,1418.5 1311.56,1403.34 1337.33,1403.34 1337.33,1418.5 1363.11,1418.5 1363.11,1433.66 
  1388.88,1433.66 1388.88,1418.5 1414.65,1418.5 1414.65,1388.19 1440.42,1388.19 1440.42,1357.87 1466.19,1357.87 1466.19,1403.34 1491.97,1403.34 1491.97,1342.71 
  1517.74,1342.71 1517.74,1221.44 1543.51,1221.44 1543.51,1236.6 1569.28,1236.6 1569.28,963.741 1595.06,963.741 1595.06,872.789 1620.83,872.789 1620.83,903.107 
  1646.6,903.107 1646.6,660.567 1672.37,660.567 1672.37,645.408 1698.14,645.408 1698.14,493.821 1723.92,493.821 1723.92,205.806 1749.69,205.806 1749.69,311.917 
  1775.46,311.917 1775.46,205.806 1801.23,205.806 1801.23,160.33 1827,160.33 1827,418.028 1852.78,418.028 1878.55,418.028 1878.55,478.663 
  1904.32,478.663 1904.32,751.519 1930.09,751.519 1930.09,1009.22 1955.87,1009.22 1955.87,1145.65 1981.64,1145.65 1981.64,1191.12 2007.41,1191.12 2007.41,1160.8 
  2033.18,1160.8 2033.18,1327.55 2058.95,1327.55 2058.95,1418.5 2084.73,1418.5 2084.73,1373.03 2110.5,1373.03 2110.5,1433.66 2136.27,1433.66 2136.27,1418.5 
  2162.04,1418.5 2162.04,1433.66 2187.81,1433.66 2187.81,1448.82 2213.59,1448.82 2213.59,1433.66 2239.36,1433.66 2239.36,1448.82 2265.13,1448.82 
  2290.9,1448.82 
  "/>
<polyline clip-path="url(#clip0902)" style="stroke:#e26f46; stroke-width:4; stroke-opacity:1; fill:none" points="
  229.132,1448.82 231.709,1448.82 234.287,1448.82 236.864,1448.82 239.441,1448.82 242.018,1448.82 244.596,1448.82 247.173,1448.82 249.75,1448.82 252.327,1448.82 
  254.904,1448.82 257.482,1448.82 260.059,1448.82 262.636,1448.82 265.213,1448.82 267.79,1448.82 270.368,1448.82 272.945,1448.82 275.522,1448.82 278.099,1448.82 
  280.677,1448.82 283.254,1448.82 285.831,1448.82 288.408,1448.82 290.985,1448.82 293.563,1448.82 296.14,1448.82 298.717,1448.82 301.294,1448.82 303.871,1448.82 
  306.449,1448.82 309.026,1448.82 311.603,1448.82 314.18,1448.82 316.758,1448.82 319.335,1448.82 321.912,1448.82 324.489,1448.82 327.066,1448.82 329.644,1448.82 
  332.221,1448.82 334.798,1448.82 337.375,1448.82 339.952,1448.82 342.53,1448.82 345.107,1448.82 347.684,1448.82 350.261,1448.82 352.838,1448.82 355.416,1448.82 
  357.993,1448.82 360.57,1448.82 363.147,1448.82 365.725,1448.82 368.302,1448.82 370.879,1448.82 373.456,1448.82 376.033,1448.82 378.611,1448.82 381.188,1448.81 
  383.765,1448.81 386.342,1448.81 388.919,1448.81 391.497,1448.81 394.074,1448.81 396.651,1448.81 399.228,1448.81 401.806,1448.81 404.383,1448.81 406.96,1448.81 
  409.537,1448.8 412.114,1448.8 414.692,1448.8 417.269,1448.8 419.846,1448.8 422.423,1448.8 425,1448.79 427.578,1448.79 430.155,1448.79 432.732,1448.79 
  435.309,1448.78 437.887,1448.78 440.464,1448.77 443.041,1448.77 445.618,1448.77 448.195,1448.76 450.773,1448.76 453.35,1448.75 455.927,1448.74 458.504,1448.74 
  461.081,1448.73 463.659,1448.72 466.236,1448.71 468.813,1448.71 471.39,1448.7 473.968,1448.68 476.545,1448.67 479.122,1448.66 481.699,1448.65 484.276,1448.63 
  486.854,1448.62 489.431,1448.6 492.008,1448.58 494.585,1448.56 497.162,1448.54 499.74,1448.52 502.317,1448.49 504.894,1448.47 507.471,1448.44 510.048,1448.41 
  512.626,1448.38 515.203,1448.34 517.78,1448.31 520.357,1448.27 522.935,1448.22 525.512,1448.18 528.089,1448.13 530.666,1448.07 533.243,1448.02 535.821,1447.96 
  538.398,1447.89 540.975,1447.82 543.552,1447.75 546.129,1447.67 548.707,1447.59 551.284,1447.5 553.861,1447.4 556.438,1447.3 559.016,1447.19 561.593,1447.08 
  564.17,1446.95 566.747,1446.82 569.324,1446.68 571.902,1446.53 574.479,1446.38 577.056,1446.21 579.633,1446.03 582.21,1445.84 584.788,1445.64 587.365,1445.43 
  589.942,1445.21 592.519,1444.97 595.097,1444.72 597.674,1444.45 600.251,1444.17 602.828,1443.87 605.405,1443.55 607.983,1443.22 610.56,1442.87 613.137,1442.49 
  615.714,1442.1 618.291,1441.69 620.869,1441.25 623.446,1440.79 626.023,1440.31 628.6,1439.8 631.178,1439.26 633.755,1438.7 636.332,1438.1 638.909,1437.48 
  641.486,1436.82 644.064,1436.13 646.641,1435.41 649.218,1434.65 651.795,1433.86 654.372,1433.02 656.95,1432.15 659.527,1431.24 662.104,1430.28 664.681,1429.28 
  667.258,1428.23 669.836,1427.14 672.413,1425.99 674.99,1424.8 677.567,1423.55 680.145,1422.25 682.722,1420.89 685.299,1419.48 687.876,1418 690.453,1416.47 
  693.031,1414.87 695.608,1413.21 698.185,1411.48 700.762,1409.69 703.339,1407.82 705.917,1405.88 708.494,1403.87 711.071,1401.78 713.648,1399.61 716.226,1397.37 
  718.803,1395.05 721.38,1392.64 723.957,1390.15 726.534,1387.57 729.112,1384.9 731.689,1382.15 734.266,1379.3 736.843,1376.36 739.42,1373.33 741.998,1370.2 
  744.575,1366.98 747.152,1363.65 749.729,1360.23 752.307,1356.71 754.884,1353.08 757.461,1349.35 760.038,1345.52 762.615,1341.59 765.193,1337.54 767.77,1333.4 
  770.347,1329.14 772.924,1324.78 775.501,1320.31 778.079,1315.73 780.656,1311.05 783.233,1306.25 785.81,1301.35 788.388,1296.34 790.965,1291.23 793.542,1286.01 
  796.119,1280.68 798.696,1275.25 801.274,1269.71 803.851,1264.07 806.428,1258.33 809.005,1252.49 811.582,1246.55 814.16,1240.51 816.737,1234.38 819.314,1228.16 
  821.891,1221.85 824.469,1215.45 827.046,1208.97 829.623,1202.41 832.2,1195.77 834.777,1189.05 837.355,1182.26 839.932,1175.4 842.509,1168.48 845.086,1161.5 
  847.663,1154.46 850.241,1147.37 852.818,1140.23 855.395,1133.05 857.972,1125.83 860.549,1118.58 863.127,1111.31 865.704,1104.01 868.281,1096.69 870.858,1089.36 
  873.436,1082.02 876.013,1074.69 878.59,1067.36 881.167,1060.04 883.744,1052.74 886.322,1045.47 888.899,1038.23 891.476,1031.02 894.053,1023.86 896.63,1016.74 
  899.208,1009.69 901.785,1002.69 904.362,995.768 906.939,988.921 909.517,982.157 912.094,975.483 914.671,968.906 917.248,962.432 919.825,956.068 922.403,949.82 
  924.98,943.695 927.557,937.699 930.134,931.839 932.711,926.12 935.289,920.55 937.866,915.134 940.443,909.879 943.02,904.789 945.598,899.87 948.175,895.129 
  950.752,890.57 953.329,886.199 955.906,882.02 958.484,878.038 961.061,874.259 963.638,870.685 966.215,867.322 968.792,864.174 971.37,861.243 973.947,858.534 
  976.524,856.05 979.101,853.793 981.679,851.766 984.256,849.973 986.833,848.414 989.41,847.091 991.987,846.007 994.565,845.163 997.142,844.559 999.719,844.196 
  1002.3,844.075 1004.87,844.196 1007.45,844.559 1010.03,845.163 1012.61,846.007 1015.18,847.091 1017.76,848.414 1020.34,849.973 1022.91,851.766 1025.49,853.793 
  1028.07,856.05 1030.65,858.534 1033.22,861.243 1035.8,864.174 1038.38,867.322 1040.95,870.685 1043.53,874.259 1046.11,878.038 1048.69,882.02 1051.26,886.199 
  1053.84,890.57 1056.42,895.129 1058.99,899.87 1061.57,904.788 1064.15,909.878 1066.73,915.134 1069.3,920.55 1071.88,926.12 1074.46,931.838 1077.04,937.698 
  1079.61,943.694 1082.19,949.819 1084.77,956.067 1087.34,962.431 1089.92,968.905 1092.5,975.482 1095.08,982.156 1097.65,988.92 1100.23,995.767 1102.81,1002.69 
  1105.38,1009.68 1107.96,1016.74 1110.54,1023.85 1113.12,1031.02 1115.69,1038.22 1118.27,1045.47 1120.85,1052.74 1123.43,1060.04 1126,1067.36 1128.58,1074.68 
  1131.16,1082.02 1133.73,1089.35 1136.31,1096.68 1138.89,1104 1141.47,1111.3 1144.04,1118.58 1146.62,1125.83 1149.2,1133.04 1151.77,1140.22 1154.35,1147.36 
  1156.93,1154.45 1159.51,1161.48 1162.08,1168.46 1164.66,1175.38 1167.24,1182.24 1169.82,1189.03 1172.39,1195.74 1174.97,1202.38 1177.55,1208.95 1180.12,1215.43 
  1182.7,1221.82 1185.28,1228.13 1187.86,1234.35 1190.43,1240.47 1193.01,1246.51 1195.59,1252.44 1198.16,1258.28 1200.74,1264.01 1203.32,1269.65 1205.9,1275.18 
  1208.47,1280.6 1211.05,1285.92 1213.63,1291.14 1216.2,1296.25 1218.78,1301.25 1221.36,1306.14 1223.94,1310.92 1226.51,1315.59 1229.09,1320.16 1231.67,1324.62 
  1234.25,1328.96 1236.82,1333.2 1239.4,1337.33 1241.98,1341.36 1244.55,1345.27 1247.13,1349.08 1249.71,1352.79 1252.29,1356.39 1254.86,1359.89 1257.44,1363.28 
  1260.02,1366.57 1262.59,1369.76 1265.17,1372.85 1267.75,1375.85 1270.33,1378.74 1272.9,1381.54 1275.48,1384.25 1278.06,1386.86 1280.64,1389.39 1283.21,1391.82 
  1285.79,1394.16 1288.37,1396.42 1290.94,1398.58 1293.52,1400.67 1296.1,1402.67 1298.68,1404.59 1301.25,1406.43 1303.83,1408.19 1306.41,1409.88 1308.98,1411.48 
  1311.56,1413.02 1314.14,1414.48 1316.72,1415.86 1319.29,1417.18 1321.87,1418.43 1324.45,1419.6 1327.03,1420.71 1329.6,1421.76 1332.18,1422.73 1334.76,1423.65 
  1337.33,1424.49 1339.91,1425.28 1342.49,1426 1345.07,1426.66 1347.64,1427.26 1350.22,1427.8 1352.8,1428.28 1355.37,1428.7 1357.95,1429.06 1360.53,1429.35 
  1363.11,1429.59 1365.68,1429.77 1368.26,1429.89 1370.84,1429.95 1373.41,1429.95 1375.99,1429.89 1378.57,1429.77 1381.15,1429.59 1383.72,1429.34 1386.3,1429.04 
  1388.88,1428.67 1391.46,1428.23 1394.03,1427.73 1396.61,1427.16 1399.19,1426.53 1401.76,1425.82 1404.34,1425.05 1406.92,1424.2 1409.5,1423.28 1412.07,1422.28 
  1414.65,1421.21 1417.23,1420.06 1419.8,1418.82 1422.38,1417.51 1424.96,1416.1 1427.54,1414.62 1430.11,1413.04 1432.69,1411.36 1435.27,1409.6 1437.85,1407.74 
  1440.42,1405.77 1443,1403.71 1445.58,1401.53 1448.15,1399.25 1450.73,1396.86 1453.31,1394.36 1455.89,1391.73 1458.46,1388.99 1461.04,1386.12 1463.62,1383.12 
  1466.19,1380 1468.77,1376.74 1471.35,1373.34 1473.93,1369.8 1476.5,1366.12 1479.08,1362.3 1481.66,1358.32 1484.24,1354.18 1486.81,1349.89 1489.39,1345.44 
  1491.97,1340.83 1494.54,1336.04 1497.12,1331.09 1499.7,1325.96 1502.28,1320.66 1504.85,1315.17 1507.43,1309.5 1510.01,1303.65 1512.58,1297.6 1515.16,1291.36 
  1517.74,1284.93 1520.32,1278.3 1522.89,1271.47 1525.47,1264.44 1528.05,1257.2 1530.62,1249.75 1533.2,1242.1 1535.78,1234.24 1538.36,1226.16 1540.93,1217.88 
  1543.51,1209.37 1546.09,1200.66 1548.67,1191.72 1551.24,1182.58 1553.82,1173.21 1556.4,1163.63 1558.97,1153.83 1561.55,1143.82 1564.13,1133.59 1566.71,1123.15 
  1569.28,1112.5 1571.86,1101.64 1574.44,1090.57 1577.01,1079.29 1579.59,1067.81 1582.17,1056.13 1584.75,1044.26 1587.32,1032.19 1589.9,1019.93 1592.48,1007.49 
  1595.06,994.87 1597.63,982.075 1600.21,969.111 1602.79,955.983 1605.36,942.699 1607.94,929.265 1610.52,915.687 1613.1,901.973 1615.67,888.131 1618.25,874.168 
  1620.83,860.092 1623.4,845.913 1625.98,831.639 1628.56,817.28 1631.14,802.845 1633.71,788.345 1636.29,773.789 1638.87,759.188 1641.45,744.553 1644.02,729.895 
  1646.6,715.225 1649.18,700.555 1651.75,685.898 1654.33,671.264 1656.91,656.666 1659.49,642.117 1662.06,627.629 1664.64,613.216 1667.22,598.889 1669.79,584.663 
  1672.37,570.549 1674.95,556.562 1677.53,542.715 1680.1,529.022 1682.68,515.494 1685.26,502.146 1687.83,488.992 1690.41,476.043 1692.99,463.315 1695.57,450.819 
  1698.14,438.569 1700.72,426.577 1703.3,414.857 1705.88,403.421 1708.45,392.281 1711.03,381.449 1713.61,370.937 1716.18,360.757 1718.76,350.921 1721.34,341.438 
  1723.92,332.32 1726.49,323.577 1729.07,315.22 1731.65,307.257 1734.22,299.697 1736.8,292.551 1739.38,285.825 1741.96,279.528 1744.53,273.667 1747.11,268.248 
  1749.69,263.28 1752.27,258.766 1754.84,254.713 1757.42,251.125 1760,248.007 1762.57,245.362 1765.15,243.194 1767.73,241.505 1770.31,240.297 1772.88,239.572 
  1775.46,239.33 1778.04,239.572 1780.61,240.297 1783.19,241.505 1785.77,243.194 1788.35,245.362 1790.92,248.007 1793.5,251.125 1796.08,254.713 1798.66,258.766 
  1801.23,263.28 1803.81,268.248 1806.39,273.667 1808.96,279.528 1811.54,285.825 1814.12,292.551 1816.7,299.697 1819.27,307.257 1821.85,315.22 1824.43,323.577 
  1827,332.32 1829.58,341.438 1832.16,350.921 1834.74,360.757 1837.31,370.937 1839.89,381.449 1842.47,392.281 1845.04,403.421 1847.62,414.857 1850.2,426.578 
  1852.78,438.569 1855.35,450.819 1857.93,463.315 1860.51,476.044 1863.09,488.992 1865.66,502.147 1868.24,515.495 1870.82,529.022 1873.39,542.716 1875.97,556.563 
  1878.55,570.55 1881.13,584.663 1883.7,598.89 1886.28,613.217 1888.86,627.63 1891.43,642.118 1894.01,656.667 1896.59,671.265 1899.17,685.899 1901.74,700.557 
  1904.32,715.227 1906.9,729.897 1909.48,744.556 1912.05,759.191 1914.63,773.792 1917.21,788.349 1919.78,802.849 1922.36,817.285 1924.94,831.644 1927.52,845.918 
  1930.09,860.098 1932.67,874.174 1935.25,888.138 1937.82,901.981 1940.4,915.696 1942.98,929.275 1945.56,942.71 1948.13,955.995 1950.71,969.123 1953.29,982.089 
  1955.87,994.885 1958.44,1007.51 1961.02,1019.95 1963.6,1032.21 1966.17,1044.28 1968.75,1056.16 1971.33,1067.84 1973.91,1079.32 1976.48,1090.6 1979.06,1101.67 
  1981.64,1112.54 1984.21,1123.19 1986.79,1133.64 1989.37,1143.87 1991.95,1153.89 1994.52,1163.69 1997.1,1173.27 1999.68,1182.65 2002.25,1191.8 2004.83,1200.74 
  2007.41,1209.46 2009.99,1217.97 2012.56,1226.27 2015.14,1234.35 2017.72,1242.23 2020.3,1249.89 2022.87,1257.35 2025.45,1264.6 2028.03,1271.64 2030.6,1278.49 
  2033.18,1285.13 2035.76,1291.58 2038.34,1297.84 2040.91,1303.9 2043.49,1309.78 2046.07,1315.47 2048.64,1320.98 2051.22,1326.31 2053.8,1331.47 2056.38,1336.45 
  2058.95,1341.27 2061.53,1345.92 2064.11,1350.41 2066.69,1354.74 2069.26,1358.91 2071.84,1362.94 2074.42,1366.82 2076.99,1370.55 2079.57,1374.14 2082.15,1377.6 
  2084.73,1380.93 2087.3,1384.12 2089.88,1387.19 2092.46,1390.14 2095.03,1392.97 2097.61,1395.68 2100.19,1398.28 2102.77,1400.77 2105.34,1403.16 2107.92,1405.45 
  2110.5,1407.64 2113.08,1409.73 2115.65,1411.74 2118.23,1413.65 2120.81,1415.48 2123.38,1417.23 2125.96,1418.89 2128.54,1420.48 2131.12,1422 2133.69,1423.45 
  2136.27,1424.82 2138.85,1426.13 2141.42,1427.38 2144,1428.57 2146.58,1429.7 2149.16,1430.77 2151.73,1431.79 2154.31,1432.76 2156.89,1433.68 2159.46,1434.56 
  2162.04,1435.38 2164.62,1436.17 2167.2,1436.91 2169.77,1437.62 2172.35,1438.28 2174.93,1438.92 2177.51,1439.51 2180.08,1440.08 2182.66,1440.61 2185.24,1441.12 
  2187.81,1441.59 2190.39,1442.04 2192.97,1442.47 2195.55,1442.87 2198.12,1443.24 2200.7,1443.6 2203.28,1443.93 2205.85,1444.25 2208.43,1444.54 2211.01,1444.82 
  2213.59,1445.08 2216.16,1445.33 2218.74,1445.56 2221.32,1445.78 2223.9,1445.98 2226.47,1446.17 2229.05,1446.35 2231.63,1446.52 2234.2,1446.68 2236.78,1446.83 
  2239.36,1446.96 2241.94,1447.09 2244.51,1447.21 2247.09,1447.33 2249.67,1447.43 2252.24,1447.53 2254.82,1447.62 2257.4,1447.71 2259.98,1447.79 2262.55,1447.87 
  2265.13,1447.93 2267.71,1448 2270.29,1448.06 2272.86,1448.12 2275.44,1448.17 2278.02,1448.22 2280.59,1448.26 2283.17,1448.31 2285.75,1448.34 2288.33,1448.38 
  2290.9,1448.41 
  "/>
<polyline clip-path="url(#clip0902)" style="stroke:#3da44d; stroke-width:4; stroke-opacity:1; fill:none" points="
  229.132,1448.82 231.709,1448.82 234.287,1448.82 236.864,1448.82 239.441,1448.82 242.018,1448.82 244.596,1448.82 247.173,1448.82 249.75,1448.82 252.327,1448.82 
  254.904,1448.82 257.482,1448.82 260.059,1448.82 262.636,1448.82 265.213,1448.82 267.79,1448.82 270.368,1448.82 272.945,1448.82 275.522,1448.82 278.099,1448.82 
  280.677,1448.82 283.254,1448.82 285.831,1448.82 288.408,1448.82 290.985,1448.82 293.563,1448.82 296.14,1448.82 298.717,1448.82 301.294,1448.82 303.871,1448.82 
  306.449,1448.82 309.026,1448.82 311.603,1448.82 314.18,1448.82 316.758,1448.82 319.335,1448.82 321.912,1448.82 324.489,1448.82 327.066,1448.82 329.644,1448.82 
  332.221,1448.82 334.798,1448.82 337.375,1448.82 339.952,1448.82 342.53,1448.82 345.107,1448.82 347.684,1448.82 350.261,1448.82 352.838,1448.82 355.416,1448.82 
  357.993,1448.82 360.57,1448.82 363.147,1448.82 365.725,1448.82 368.302,1448.82 370.879,1448.82 373.456,1448.81 376.033,1448.81 378.611,1448.81 381.188,1448.81 
  383.765,1448.81 386.342,1448.81 388.919,1448.81 391.497,1448.81 394.074,1448.81 396.651,1448.81 399.228,1448.81 401.806,1448.81 404.383,1448.8 406.96,1448.8 
  409.537,1448.8 412.114,1448.8 414.692,1448.8 417.269,1448.8 419.846,1448.79 422.423,1448.79 425,1448.79 427.578,1448.79 430.155,1448.78 432.732,1448.78 
  435.309,1448.77 437.887,1448.77 440.464,1448.77 443.041,1448.76 445.618,1448.76 448.195,1448.75 450.773,1448.74 453.35,1448.74 455.927,1448.73 458.504,1448.72 
  461.081,1448.71 463.659,1448.7 466.236,1448.69 468.813,1448.68 471.39,1448.67 473.968,1448.66 476.545,1448.65 479.122,1448.63 481.699,1448.62 484.276,1448.6 
  486.854,1448.58 489.431,1448.56 492.008,1448.54 494.585,1448.52 497.162,1448.49 499.74,1448.47 502.317,1448.44 504.894,1448.41 507.471,1448.38 510.048,1448.34 
  512.626,1448.3 515.203,1448.26 517.78,1448.22 520.357,1448.18 522.935,1448.13 525.512,1448.07 528.089,1448.02 530.666,1447.96 533.243,1447.89 535.821,1447.82 
  538.398,1447.75 540.975,1447.67 543.552,1447.59 546.129,1447.5 548.707,1447.4 551.284,1447.3 553.861,1447.19 556.438,1447.08 559.016,1446.96 561.593,1446.83 
  564.17,1446.69 566.747,1446.54 569.324,1446.38 571.902,1446.22 574.479,1446.04 577.056,1445.85 579.633,1445.65 582.21,1445.44 584.788,1445.22 587.365,1444.98 
  589.942,1444.73 592.519,1444.47 595.097,1444.19 597.674,1443.89 600.251,1443.58 602.828,1443.25 605.405,1442.9 607.983,1442.53 610.56,1442.14 613.137,1441.73 
  615.714,1441.3 618.291,1440.84 620.869,1440.36 623.446,1439.85 626.023,1439.32 628.6,1438.76 631.178,1438.17 633.755,1437.55 636.332,1436.9 638.909,1436.22 
  641.486,1435.51 644.064,1434.75 646.641,1433.97 649.218,1433.14 651.795,1432.28 654.372,1431.37 656.95,1430.42 659.527,1429.43 662.104,1428.39 664.681,1427.31 
  667.258,1426.18 669.836,1425 672.413,1423.76 674.99,1422.47 677.567,1421.13 680.145,1419.73 682.722,1418.27 685.299,1416.75 687.876,1415.17 690.453,1413.53 
  693.031,1411.82 695.608,1410.04 698.185,1408.19 700.762,1406.28 703.339,1404.28 705.917,1402.22 708.494,1400.08 711.071,1397.86 713.648,1395.56 716.226,1393.17 
  718.803,1390.71 721.38,1388.16 723.957,1385.52 726.534,1382.8 729.112,1379.98 731.689,1377.07 734.266,1374.07 736.843,1370.98 739.42,1367.79 741.998,1364.5 
  744.575,1361.11 747.152,1357.63 749.729,1354.04 752.307,1350.35 754.884,1346.56 757.461,1342.66 760.038,1338.66 762.615,1334.56 765.193,1330.35 767.77,1326.03 
  770.347,1321.61 772.924,1317.07 775.501,1312.44 778.079,1307.69 780.656,1302.84 783.233,1297.88 785.81,1292.81 788.388,1287.64 790.965,1282.36 793.542,1276.98 
  796.119,1271.5 798.696,1265.91 801.274,1260.22 803.851,1254.44 806.428,1248.55 809.005,1242.57 811.582,1236.49 814.16,1230.32 816.737,1224.07 819.314,1217.72 
  821.891,1211.29 824.469,1204.78 827.046,1198.19 829.623,1191.52 832.2,1184.78 834.777,1177.98 837.355,1171.11 839.932,1164.17 842.509,1157.18 845.086,1150.14 
  847.663,1143.05 850.241,1135.91 852.818,1128.74 855.395,1121.53 857.972,1114.29 860.549,1107.03 863.127,1099.75 865.704,1092.45 868.281,1085.15 870.858,1077.84 
  873.436,1070.54 876.013,1063.25 878.59,1055.98 881.167,1048.72 883.744,1041.5 886.322,1034.31 888.899,1027.16 891.476,1020.06 894.053,1013.01 896.63,1006.02 
  899.208,999.096 901.785,992.247 904.362,985.479 906.939,978.797 909.517,972.208 912.094,965.719 914.671,959.337 917.248,953.067 919.825,946.917 922.403,940.892 
  924.98,935 927.557,929.246 930.134,923.636 932.711,918.177 935.289,912.874 937.866,907.734 940.443,902.761 943.02,897.962 945.598,893.342 948.175,888.906 
  950.752,884.659 953.329,880.605 955.906,876.75 958.484,873.098 961.061,869.653 963.638,866.419 966.215,863.4 968.792,860.599 971.37,858.019 973.947,855.665 
  976.524,853.538 979.101,851.64 981.679,849.975 984.256,848.544 986.833,847.349 989.41,846.391 991.987,845.672 994.565,845.191 997.142,844.951 999.719,844.951 
  1002.3,845.191 1004.87,845.67 1007.45,846.389 1010.03,847.347 1012.61,848.541 1015.18,849.972 1017.76,851.637 1020.34,853.533 1022.91,855.66 1025.49,858.014 
  1028.07,860.593 1030.65,863.393 1033.22,866.412 1035.8,869.646 1038.38,873.09 1040.95,876.742 1043.53,880.597 1046.11,884.65 1048.69,888.897 1051.26,893.333 
  1053.84,897.952 1056.42,902.751 1058.99,907.723 1061.57,912.863 1064.15,918.166 1066.73,923.624 1069.3,929.234 1071.88,934.987 1074.46,940.879 1077.04,946.904 
  1079.61,953.054 1082.19,959.323 1084.77,965.705 1087.34,972.194 1089.92,978.782 1092.5,985.464 1095.08,992.232 1097.65,999.08 1100.23,1006 1102.81,1012.99 
  1105.38,1020.04 1107.96,1027.14 1110.54,1034.29 1113.12,1041.48 1115.69,1048.71 1118.27,1055.96 1120.85,1063.23 1123.43,1070.53 1126,1077.83 1128.58,1085.13 
  1131.16,1092.43 1133.73,1099.73 1136.31,1107.01 1138.89,1114.27 1141.47,1121.51 1144.04,1128.71 1146.62,1135.89 1149.2,1143.02 1151.77,1150.11 1154.35,1157.16 
  1156.93,1164.15 1159.51,1171.08 1162.08,1177.95 1164.66,1184.75 1167.24,1191.49 1169.82,1198.16 1172.39,1204.74 1174.97,1211.25 1177.55,1217.68 1180.12,1224.02 
  1182.7,1230.28 1185.28,1236.45 1187.86,1242.52 1190.43,1248.5 1193.01,1254.38 1195.59,1260.16 1198.16,1265.85 1200.74,1271.43 1203.32,1276.91 1205.9,1282.28 
  1208.47,1287.56 1211.05,1292.72 1213.63,1297.78 1216.2,1302.73 1218.78,1307.57 1221.36,1312.31 1223.94,1316.94 1226.51,1321.46 1229.09,1325.87 1231.67,1330.18 
  1234.25,1334.37 1236.82,1338.46 1239.4,1342.45 1241.98,1346.32 1244.55,1350.1 1247.13,1353.76 1249.71,1357.33 1252.29,1360.79 1254.86,1364.15 1257.44,1367.41 
  1260.02,1370.57 1262.59,1373.63 1265.17,1376.59 1267.75,1379.46 1270.33,1382.24 1272.9,1384.92 1275.48,1387.51 1278.06,1390.01 1280.64,1392.42 1283.21,1394.74 
  1285.79,1396.98 1288.37,1399.13 1290.94,1401.2 1293.52,1403.18 1296.1,1405.09 1298.68,1406.92 1301.25,1408.67 1303.83,1410.34 1306.41,1411.94 1308.98,1413.46 
  1311.56,1414.92 1314.14,1416.3 1316.72,1417.61 1319.29,1418.86 1321.87,1420.04 1324.45,1421.15 1327.03,1422.19 1329.6,1423.17 1332.18,1424.09 1334.76,1424.95 
  1337.33,1425.74 1339.91,1426.48 1342.49,1427.15 1345.07,1427.76 1347.64,1428.32 1350.22,1428.81 1352.8,1429.25 1355.37,1429.63 1357.95,1429.95 1360.53,1430.22 
  1363.11,1430.43 1365.68,1430.58 1368.26,1430.67 1370.84,1430.7 1373.41,1430.68 1375.99,1430.6 1378.57,1430.46 1381.15,1430.26 1383.72,1430 1386.3,1429.68 
  1388.88,1429.3 1391.46,1428.85 1394.03,1428.34 1396.61,1427.77 1399.19,1427.13 1401.76,1426.42 1404.34,1425.65 1406.92,1424.8 1409.5,1423.88 1412.07,1422.89 
  1414.65,1421.83 1417.23,1420.68 1419.8,1419.46 1422.38,1418.16 1424.96,1416.77 1427.54,1415.3 1430.11,1413.74 1432.69,1412.09 1435.27,1410.35 1437.85,1408.51 
  1440.42,1406.57 1443,1404.54 1445.58,1402.4 1448.15,1400.15 1450.73,1397.79 1453.31,1395.33 1455.89,1392.74 1458.46,1390.04 1461.04,1387.22 1463.62,1384.27 
  1466.19,1381.19 1468.77,1377.99 1471.35,1374.64 1473.93,1371.16 1476.5,1367.54 1479.08,1363.78 1481.66,1359.86 1484.24,1355.8 1486.81,1351.57 1489.39,1347.2 
  1491.97,1342.65 1494.54,1337.95 1497.12,1333.08 1499.7,1328.03 1502.28,1322.81 1504.85,1317.41 1507.43,1311.83 1510.01,1306.07 1512.58,1300.12 1515.16,1293.98 
  1517.74,1287.65 1520.32,1281.12 1522.89,1274.4 1525.47,1267.47 1528.05,1260.35 1530.62,1253.02 1533.2,1245.48 1535.78,1237.74 1538.36,1229.78 1540.93,1221.62 
  1543.51,1213.24 1546.09,1204.65 1548.67,1195.85 1551.24,1186.83 1553.82,1177.6 1556.4,1168.15 1558.97,1158.49 1561.55,1148.62 1564.13,1138.53 1566.71,1128.23 
  1569.28,1117.72 1571.86,1107 1574.44,1096.07 1577.01,1084.94 1579.59,1073.6 1582.17,1062.07 1584.75,1050.34 1587.32,1038.41 1589.9,1026.3 1592.48,1014 
  1595.06,1001.53 1597.63,988.873 1600.21,976.05 1602.79,963.062 1605.36,949.916 1607.94,936.618 1610.52,923.175 1613.1,909.593 1615.67,895.88 1618.25,882.043 
  1620.83,868.091 1623.4,854.033 1625.98,839.876 1628.56,825.63 1631.14,811.304 1633.71,796.908 1636.29,782.452 1638.87,767.947 1641.45,753.402 1644.02,738.829 
  1646.6,724.239 1649.18,709.643 1651.75,695.052 1654.33,680.48 1656.91,665.937 1659.49,651.436 1662.06,636.989 1664.64,622.609 1667.22,608.309 1669.79,594.101 
  1672.37,579.998 1674.95,566.015 1677.53,552.162 1680.1,538.455 1682.68,524.905 1685.26,511.527 1687.83,498.333 1690.41,485.337 1692.99,472.551 1695.57,459.989 
  1698.14,447.663 1700.72,435.587 1703.3,423.773 1705.88,412.234 1708.45,400.981 1711.03,390.028 1713.61,379.385 1716.18,369.065 1718.76,359.079 1721.34,349.438 
  1723.92,340.153 1726.49,331.233 1729.07,322.69 1731.65,314.533 1734.22,306.771 1736.8,299.414 1739.38,292.468 1741.96,285.944 1744.53,279.847 1747.11,274.186 
  1749.69,268.967 1752.27,264.196 1754.84,259.878 1757.42,256.02 1760,252.624 1762.57,249.696 1765.15,247.239 1767.73,245.255 1770.31,243.748 1772.88,242.718 
  1775.46,242.168 1778.04,242.097 1780.61,242.506 1783.19,243.395 1785.77,244.762 1788.35,246.605 1790.92,248.924 1793.5,251.713 1796.08,254.972 1798.66,258.694 
  1801.23,262.877 1803.81,267.515 1806.39,272.603 1808.96,278.135 1811.54,284.104 1814.12,290.503 1816.7,297.325 1819.27,304.563 1821.85,312.207 1824.43,320.248 
  1827,328.679 1829.58,337.488 1832.16,346.667 1834.74,356.204 1837.31,366.09 1839.89,376.313 1842.47,386.862 1845.04,397.725 1847.62,408.891 1850.2,420.347 
  1852.78,432.081 1855.35,444.081 1857.93,456.335 1860.51,468.829 1863.09,481.55 1865.66,494.486 1868.24,507.623 1870.82,520.949 1873.39,534.449 1875.97,548.111 
  1878.55,561.923 1881.13,575.869 1883.7,589.938 1886.28,604.116 1888.86,618.391 1891.43,632.748 1894.01,647.177 1896.59,661.663 1899.17,676.196 1901.74,690.761 
  1904.32,705.347 1906.9,719.943 1909.48,734.537 1912.05,749.116 1914.63,763.671 1917.21,778.189 1919.78,792.661 1922.36,807.076 1924.94,821.424 1927.52,835.695 
  1930.09,849.879 1932.67,863.968 1935.25,877.953 1937.82,891.825 1940.4,905.576 1942.98,919.198 1945.56,932.684 1948.13,946.026 1950.71,959.218 1953.29,972.254 
  1955.87,985.127 1958.44,997.832 1961.02,1010.36 1963.6,1022.72 1966.17,1034.88 1968.75,1046.87 1971.33,1058.66 1973.91,1070.25 1976.48,1081.65 1979.06,1092.84 
  1981.64,1103.83 1984.21,1114.62 1986.79,1125.19 1989.37,1135.56 1991.95,1145.71 1994.52,1155.65 1997.1,1165.38 1999.68,1174.9 2002.25,1184.2 2004.83,1193.28 
  2007.41,1202.16 2009.99,1210.82 2012.56,1219.26 2015.14,1227.5 2017.72,1235.52 2020.3,1243.34 2022.87,1250.94 2025.45,1258.34 2028.03,1265.54 2030.6,1272.54 
  2033.18,1279.33 2035.76,1285.93 2038.34,1292.34 2040.91,1298.55 2043.49,1304.57 2046.07,1310.41 2048.64,1316.06 2051.22,1321.53 2053.8,1326.83 2056.38,1331.95 
  2058.95,1336.9 2061.53,1341.69 2064.11,1346.31 2066.69,1350.77 2069.26,1355.07 2071.84,1359.22 2074.42,1363.22 2076.99,1367.08 2079.57,1370.79 2082.15,1374.36 
  2084.73,1377.8 2087.3,1381.11 2089.88,1384.28 2092.46,1387.34 2095.03,1390.27 2097.61,1393.08 2100.19,1395.78 2102.77,1398.37 2105.34,1400.85 2107.92,1403.23 
  2110.5,1405.51 2113.08,1407.69 2115.65,1409.78 2118.23,1411.77 2120.81,1413.68 2123.38,1415.5 2125.96,1417.24 2128.54,1418.9 2131.12,1420.49 2133.69,1422 
  2136.27,1423.44 2138.85,1424.81 2141.42,1426.12 2144,1427.36 2146.58,1428.55 2149.16,1429.68 2151.73,1430.75 2154.31,1431.77 2156.89,1432.73 2159.46,1433.65 
  2162.04,1434.52 2164.62,1435.35 2167.2,1436.14 2169.77,1436.88 2172.35,1437.58 2174.93,1438.25 2177.51,1438.88 2180.08,1439.48 2182.66,1440.04 2185.24,1440.58 
  2187.81,1441.08 2190.39,1441.56 2192.97,1442.01 2195.55,1442.43 2198.12,1442.83 2200.7,1443.21 2203.28,1443.57 2205.85,1443.9 2208.43,1444.22 2211.01,1444.52 
  2213.59,1444.8 2216.16,1445.06 2218.74,1445.31 2221.32,1445.54 2223.9,1445.76 2226.47,1445.96 2229.05,1446.15 2231.63,1446.33 2234.2,1446.5 2236.78,1446.66 
  2239.36,1446.81 2241.94,1446.95 2244.51,1447.08 2247.09,1447.2 2249.67,1447.31 2252.24,1447.42 2254.82,1447.52 2257.4,1447.61 2259.98,1447.7 2262.55,1447.78 
  2265.13,1447.85 2267.71,1447.92 2270.29,1447.99 2272.86,1448.05 2275.44,1448.11 2278.02,1448.16 2280.59,1448.21 2283.17,1448.26 2285.75,1448.3 2288.33,1448.34 
  2290.9,1448.37 
  "/>
<path clip-path="url(#clip0900)" d="
M1893.61 447.115 L2280.76 447.115 L2280.76 205.195 L1893.61 205.195  Z
  " fill="#ffffff" fill-rule="evenodd" fill-opacity="1"/>
<polyline clip-path="url(#clip0900)" style="stroke:#000000; stroke-width:4; stroke-opacity:1; fill:none" points="
  1893.61,447.115 2280.76,447.115 2280.76,205.195 1893.61,205.195 1893.61,447.115 
  "/>
<polyline clip-path="url(#clip0900)" style="stroke:#009af9; stroke-width:4; stroke-opacity:1; fill:none" points="
  1917.61,265.675 2061.61,265.675 
  "/>
<g clip-path="url(#clip0900)">
<text style="fill:#000000; fill-opacity:1; font-family:Arial,Helvetica Neue,Helvetica,sans-serif; font-size:48px; text-anchor:start;" transform="rotate(0, 2085.61, 283.175)" x="2085.61" y="283.175">Data</text>
</g>
<polyline clip-path="url(#clip0900)" style="stroke:#e26f46; stroke-width:4; stroke-opacity:1; fill:none" points="
  1917.61,326.155 2061.61,326.155 
  "/>
<g clip-path="url(#clip0900)">
<text style="fill:#000000; fill-opacity:1; font-family:Arial,Helvetica Neue,Helvetica,sans-serif; font-size:48px; text-anchor:start;" transform="rotate(0, 2085.61, 343.655)" x="2085.61" y="343.655">Truth</text>
</g>
<polyline clip-path="url(#clip0900)" style="stroke:#3da44d; stroke-width:4; stroke-opacity:1; fill:none" points="
  1917.61,386.635 2061.61,386.635 
  "/>
<g clip-path="url(#clip0900)">
<text style="fill:#000000; fill-opacity:1; font-family:Arial,Helvetica Neue,Helvetica,sans-serif; font-size:48px; text-anchor:start;" transform="rotate(0, 2085.61, 404.135)" x="2085.61" y="404.135">Best fit</text>
</g>
</svg>
