<?xml version="1.0" encoding="utf-8"?>
<svg xmlns="http://www.w3.org/2000/svg" xmlns:xlink="http://www.w3.org/1999/xlink" width="600" height="400" viewBox="0 0 2400 1600">
<defs>
  <clipPath id="clip0000">
    <rect x="0" y="0" width="2400" height="1600"/>
  </clipPath>
</defs>
<path clip-path="url(#clip0000)" d="
M0 1600 L2400 1600 L2400 0 L0 0  Z
  " fill="#ffffff" fill-rule="evenodd" fill-opacity="1"/>
<defs>
  <clipPath id="clip0001">
    <rect x="480" y="0" width="1681" height="1600"/>
  </clipPath>
</defs>
<path clip-path="url(#clip0000)" d="
M202.373 1425.62 L2352.76 1425.62 L2352.76 121.675 L202.373 121.675  Z
  " fill="#ffffff" fill-rule="evenodd" fill-opacity="1"/>
<defs>
  <clipPath id="clip0002">
    <rect x="202" y="121" width="2151" height="1305"/>
  </clipPath>
</defs>
<polyline clip-path="url(#clip0002)" style="stroke:#000000; stroke-width:2; stroke-opacity:0.1; fill:none" points="
  608.537,1425.62 608.537,121.675 
  "/>
<polyline clip-path="url(#clip0002)" style="stroke:#000000; stroke-width:2; stroke-opacity:0.1; fill:none" points="
  1040.17,1425.62 1040.17,121.675 
  "/>
<polyline clip-path="url(#clip0002)" style="stroke:#000000; stroke-width:2; stroke-opacity:0.1; fill:none" points="
  1471.8,1425.62 1471.8,121.675 
  "/>
<polyline clip-path="url(#clip0002)" style="stroke:#000000; stroke-width:2; stroke-opacity:0.1; fill:none" points="
  1903.43,1425.62 1903.43,121.675 
  "/>
<polyline clip-path="url(#clip0002)" style="stroke:#000000; stroke-width:2; stroke-opacity:0.1; fill:none" points="
  2335.06,1425.62 2335.06,121.675 
  "/>
<polyline clip-path="url(#clip0002)" style="stroke:#000000; stroke-width:2; stroke-opacity:0.1; fill:none" points="
  202.373,1388.71 2352.76,1388.71 
  "/>
<polyline clip-path="url(#clip0002)" style="stroke:#000000; stroke-width:2; stroke-opacity:0.1; fill:none" points="
  202.373,1013.18 2352.76,1013.18 
  "/>
<polyline clip-path="url(#clip0002)" style="stroke:#000000; stroke-width:2; stroke-opacity:0.1; fill:none" points="
  202.373,637.636 2352.76,637.636 
  "/>
<polyline clip-path="url(#clip0002)" style="stroke:#000000; stroke-width:2; stroke-opacity:0.1; fill:none" points="
  202.373,262.096 2352.76,262.096 
  "/>
<polyline clip-path="url(#clip0000)" style="stroke:#000000; stroke-width:4; stroke-opacity:1; fill:none" points="
  202.373,1425.62 2352.76,1425.62 
  "/>
<polyline clip-path="url(#clip0000)" style="stroke:#000000; stroke-width:4; stroke-opacity:1; fill:none" points="
  202.373,1425.62 202.373,121.675 
  "/>
<polyline clip-path="url(#clip0000)" style="stroke:#000000; stroke-width:4; stroke-opacity:1; fill:none" points="
  608.537,1425.62 608.537,1409.97 
  "/>
<polyline clip-path="url(#clip0000)" style="stroke:#000000; stroke-width:4; stroke-opacity:1; fill:none" points="
  1040.17,1425.62 1040.17,1409.97 
  "/>
<polyline clip-path="url(#clip0000)" style="stroke:#000000; stroke-width:4; stroke-opacity:1; fill:none" points="
  1471.8,1425.62 1471.8,1409.97 
  "/>
<polyline clip-path="url(#clip0000)" style="stroke:#000000; stroke-width:4; stroke-opacity:1; fill:none" points="
  1903.43,1425.62 1903.43,1409.97 
  "/>
<polyline clip-path="url(#clip0000)" style="stroke:#000000; stroke-width:4; stroke-opacity:1; fill:none" points="
  2335.06,1425.62 2335.06,1409.97 
  "/>
<polyline clip-path="url(#clip0000)" style="stroke:#000000; stroke-width:4; stroke-opacity:1; fill:none" points="
  202.373,1388.71 228.178,1388.71 
  "/>
<polyline clip-path="url(#clip0000)" style="stroke:#000000; stroke-width:4; stroke-opacity:1; fill:none" points="
  202.373,1013.18 228.178,1013.18 
  "/>
<polyline clip-path="url(#clip0000)" style="stroke:#000000; stroke-width:4; stroke-opacity:1; fill:none" points="
  202.373,637.636 228.178,637.636 
  "/>
<polyline clip-path="url(#clip0000)" style="stroke:#000000; stroke-width:4; stroke-opacity:1; fill:none" points="
  202.373,262.096 228.178,262.096 
  "/>
<g clip-path="url(#clip0000)">
<text style="fill:#000000; fill-opacity:1; font-family:Arial,Helvetica Neue,Helvetica,sans-serif; font-size:48px; text-anchor:middle;" transform="rotate(0, 608.537, 1479.62)" x="608.537" y="1479.62">-1.10</text>
</g>
<g clip-path="url(#clip0000)">
<text style="fill:#000000; fill-opacity:1; font-family:Arial,Helvetica Neue,Helvetica,sans-serif; font-size:48px; text-anchor:middle;" transform="rotate(0, 1040.17, 1479.62)" x="1040.17" y="1479.62">-1.05</text>
</g>
<g clip-path="url(#clip0000)">
<text style="fill:#000000; fill-opacity:1; font-family:Arial,Helvetica Neue,Helvetica,sans-serif; font-size:48px; text-anchor:middle;" transform="rotate(0, 1471.8, 1479.62)" x="1471.8" y="1479.62">-1.00</text>
</g>
<g clip-path="url(#clip0000)">
<text style="fill:#000000; fill-opacity:1; font-family:Arial,Helvetica Neue,Helvetica,sans-serif; font-size:48px; text-anchor:middle;" transform="rotate(0, 1903.43, 1479.62)" x="1903.43" y="1479.62">-0.95</text>
</g>
<g clip-path="url(#clip0000)">
<text style="fill:#000000; fill-opacity:1; font-family:Arial,Helvetica Neue,Helvetica,sans-serif; font-size:48px; text-anchor:middle;" transform="rotate(0, 2335.06, 1479.62)" x="2335.06" y="1479.62">-0.90</text>
</g>
<g clip-path="url(#clip0000)">
<text style="fill:#000000; fill-opacity:1; font-family:Arial,Helvetica Neue,Helvetica,sans-serif; font-size:48px; text-anchor:end;" transform="rotate(0, 178.373, 1406.21)" x="178.373" y="1406.21">0</text>
</g>
<g clip-path="url(#clip0000)">
<text style="fill:#000000; fill-opacity:1; font-family:Arial,Helvetica Neue,Helvetica,sans-serif; font-size:48px; text-anchor:end;" transform="rotate(0, 178.373, 1030.68)" x="178.373" y="1030.68">5</text>
</g>
<g clip-path="url(#clip0000)">
<text style="fill:#000000; fill-opacity:1; font-family:Arial,Helvetica Neue,Helvetica,sans-serif; font-size:48px; text-anchor:end;" transform="rotate(0, 178.373, 655.136)" x="178.373" y="655.136">10</text>
</g>
<g clip-path="url(#clip0000)">
<text style="fill:#000000; fill-opacity:1; font-family:Arial,Helvetica Neue,Helvetica,sans-serif; font-size:48px; text-anchor:end;" transform="rotate(0, 178.373, 279.596)" x="178.373" y="279.596">15</text>
</g>
<g clip-path="url(#clip0000)">
<text style="fill:#000000; fill-opacity:1; font-family:Arial,Helvetica Neue,Helvetica,sans-serif; font-size:84px; text-anchor:middle;" transform="rotate(0, 1277.56, 73.2)" x="1277.56" y="73.2">Marginalized Distribution for mu_1</text>
</g>
<g clip-path="url(#clip0000)">
<text style="fill:#000000; fill-opacity:1; font-family:Arial,Helvetica Neue,Helvetica,sans-serif; font-size:66px; text-anchor:middle;" transform="rotate(0, 1277.56, 1559.48)" x="1277.56" y="1559.48">mu_1</text>
</g>
<g clip-path="url(#clip0000)">
<text style="fill:#000000; fill-opacity:1; font-family:Arial,Helvetica Neue,Helvetica,sans-serif; font-size:66px; text-anchor:middle;" transform="rotate(-90, 89.2861, 773.647)" x="89.2861" y="773.647">P(mu_1)</text>
</g>
<path clip-path="url(#clip0002)" d="
M263.233 1388.71 L306.396 1388.71 L306.396 1388.71 L349.559 1388.71 L349.559 1388.71 L392.722 1388.71 L392.722 1388.71 L435.885 1388.71 L435.885 1388.71 L479.048 1388.71 
  L479.048 1388.71 L522.211 1388.71 L522.211 1388.71 L565.374 1388.71 L565.374 1388.71 L608.537 1388.71 L608.537 1388.71 L651.7 1388.71 L651.7 1377.1 L694.863 1377.1 
  L694.863 1366.98 L738.026 1366.98 L738.026 1347.85 L781.189 1347.85 L781.189 1323.71 L824.352 1323.71 L824.352 1305.78 L867.515 1305.78 L867.515 1233.07 L910.679 1233.07 
  L910.679 1173.27 L953.842 1173.27 L953.842 1077.52 L997.005 1077.52 L997.005 991.28 L1040.17 991.28 L1040.17 843.745 L1083.33 843.745 L1083.33 686.394 L1126.49 686.394 
  L1126.49 581.827 L1169.66 581.827 L1169.66 409.151 L1212.82 409.151 L1212.82 313.198 L1255.98 313.198 L1255.98 246.692 L1299.15 246.692 L1299.15 194.408 L1342.31 194.408 
  L1342.31 259.212 L1385.47 259.212 L1385.47 239.781 L1428.64 239.781 L1428.64 366.984 L1471.8 366.984 L1471.8 457.829 L1514.96 457.829 L1514.96 621.891 L1558.12 621.891 
  L1558.12 738.978 L1601.29 738.978 L1601.29 880.303 L1644.45 880.303 L1644.45 1016.32 L1687.61 1016.32 L1687.61 1126.6 L1730.78 1126.6 L1730.78 1218.44 L1773.94 1218.44 
  L1773.94 1275.23 L1817.1 1275.23 L1817.1 1311.69 L1860.27 1311.69 L1860.27 1343.94 L1903.43 1343.94 L1903.43 1354.66 L1946.59 1354.66 L1946.59 1388.71 L1989.75 1388.71 
  L1989.75 1388.71 L2032.92 1388.71 L2032.92 1388.71 L2076.08 1388.71 L2076.08 1388.71 L2119.24 1388.71 L2119.24 1388.71 L2162.41 1388.71 L2162.41 1388.71 L2205.57 1388.71 
  L2205.57 1388.71 L2248.73 1388.71 L2248.73 1388.71 L2291.9 1388.71 L2291.9 1388.71 L2291.9 1388.71 L2291.9 1388.71 L2248.73 1388.71 L2248.73 1388.71 L2205.57 1388.71 
  L2205.57 1388.71 L2162.41 1388.71 L2162.41 1388.71 L2119.24 1388.71 L2119.24 1388.71 L2076.08 1388.71 L2076.08 1388.71 L2032.92 1388.71 L2032.92 1388.71 L1989.75 1388.71 
  L1989.75 1388.71 L1946.59 1388.71 L1946.59 1388.71 L1903.43 1388.71 L1903.43 1388.71 L1860.27 1388.71 L1860.27 1388.71 L1817.1 1388.71 L1817.1 1388.71 L1773.94 1388.71 
  L1773.94 1388.71 L1730.78 1388.71 L1730.78 1388.71 L1687.61 1388.71 L1687.61 1388.71 L1644.45 1388.71 L1644.45 1388.71 L1601.29 1388.71 L1601.29 1388.71 L1558.12 1388.71 
  L1558.12 1388.71 L1514.96 1388.71 L1514.96 1388.71 L1471.8 1388.71 L1471.8 1388.71 L1428.64 1388.71 L1428.64 1388.71 L1385.47 1388.71 L1385.47 1388.71 L1342.31 1388.71 
  L1342.31 1388.71 L1299.15 1388.71 L1299.15 1388.71 L1255.98 1388.71 L1255.98 1388.71 L1212.82 1388.71 L1212.82 1388.71 L1169.66 1388.71 L1169.66 1388.71 L1126.49 1388.71 
  L1126.49 1388.71 L1083.33 1388.71 L1083.33 1388.71 L1040.17 1388.71 L1040.17 1388.71 L997.005 1388.71 L997.005 1388.71 L953.842 1388.71 L953.842 1388.71 L910.679 1388.71 
  L910.679 1388.71 L867.515 1388.71 L867.515 1388.71 L824.352 1388.71 L824.352 1388.71 L781.189 1388.71 L781.189 1388.71 L738.026 1388.71 L738.026 1388.71 L694.863 1388.71 
  L694.863 1388.71 L651.7 1388.71 L651.7 1388.71 L608.537 1388.71 L608.537 1388.71 L565.374 1388.71 L565.374 1388.71 L522.211 1388.71 L522.211 1388.71 L479.048 1388.71 
  L479.048 1388.71 L435.885 1388.71 L435.885 1388.71 L392.722 1388.71 L392.722 1388.71 L349.559 1388.71 L349.559 1388.71 L306.396 1388.71 L306.396 1388.71 L263.233 1388.71 
   Z
  " fill="#ff0000" fill-rule="evenodd" fill-opacity="1"/>
<polyline clip-path="url(#clip0002)" style="stroke:#009af9; stroke-width:0; stroke-opacity:1; fill:none" points="
  263.233,1388.71 306.396,1388.71 349.559,1388.71 392.722,1388.71 435.885,1388.71 479.048,1388.71 
  522.211,1388.71 565.374,1388.71 608.537,1388.71 651.7,1388.71 651.7,1377.1 694.863,1377.1 
  694.863,1366.98 738.026,1366.98 738.026,1347.85 781.189,1347.85 781.189,1323.71 824.352,1323.71 824.352,1305.78 867.515,1305.78 867.515,1233.07 910.679,1233.07 
  910.679,1173.27 953.842,1173.27 953.842,1077.52 997.005,1077.52 997.005,991.28 1040.17,991.28 1040.17,843.745 1083.33,843.745 1083.33,686.394 1126.49,686.394 
  1126.49,581.827 1169.66,581.827 1169.66,409.151 1212.82,409.151 1212.82,313.198 1255.98,313.198 1255.98,246.692 1299.15,246.692 1299.15,194.408 1342.31,194.408 
  1342.31,259.212 1385.47,259.212 1385.47,239.781 1428.64,239.781 1428.64,366.984 1471.8,366.984 1471.8,457.829 1514.96,457.829 1514.96,621.891 1558.12,621.891 
  1558.12,738.978 1601.29,738.978 1601.29,880.303 1644.45,880.303 1644.45,1016.32 1687.61,1016.32 1687.61,1126.6 1730.78,1126.6 1730.78,1218.44 1773.94,1218.44 
  1773.94,1275.23 1817.1,1275.23 1817.1,1311.69 1860.27,1311.69 1860.27,1343.94 1903.43,1343.94 1903.43,1354.66 1946.59,1354.66 1946.59,1388.71 1989.75,1388.71 
  2032.92,1388.71 2076.08,1388.71 2119.24,1388.71 2162.41,1388.71 2205.57,1388.71 
  2248.73,1388.71 2291.9,1388.71 
  "/>
<path clip-path="url(#clip0002)" d="
M263.233 1388.71 L306.396 1388.71 L306.396 1388.71 L349.559 1388.71 L349.559 1388.71 L392.722 1388.71 L392.722 1388.71 L435.885 1388.71 L435.885 1388.71 L479.048 1388.71 
  L479.048 1388.71 L522.211 1388.71 L522.211 1388.71 L565.374 1388.71 L565.374 1388.71 L608.537 1388.71 L608.537 1388.71 L651.7 1388.71 L651.7 1388.71 L694.863 1388.71 
  L694.863 1388.71 L738.026 1388.71 L738.026 1388.71 L781.189 1388.71 L781.189 1388.71 L824.352 1388.71 L824.352 1388.71 L867.515 1388.71 L867.515 1233.07 L910.679 1233.07 
  L910.679 1173.27 L953.842 1173.27 L953.842 1077.52 L997.005 1077.52 L997.005 991.28 L1040.17 991.28 L1040.17 843.745 L1083.33 843.745 L1083.33 686.394 L1126.49 686.394 
  L1126.49 581.827 L1169.66 581.827 L1169.66 409.151 L1212.82 409.151 L1212.82 313.198 L1255.98 313.198 L1255.98 246.692 L1299.15 246.692 L1299.15 194.408 L1342.31 194.408 
  L1342.31 259.212 L1385.47 259.212 L1385.47 239.781 L1428.64 239.781 L1428.64 366.984 L1471.8 366.984 L1471.8 457.829 L1514.96 457.829 L1514.96 621.891 L1558.12 621.891 
  L1558.12 738.978 L1601.29 738.978 L1601.29 880.303 L1644.45 880.303 L1644.45 1016.32 L1687.61 1016.32 L1687.61 1126.6 L1730.78 1126.6 L1730.78 1218.44 L1773.94 1218.44 
  L1773.94 1388.71 L1817.1 1388.71 L1817.1 1388.71 L1860.27 1388.71 L1860.27 1388.71 L1903.43 1388.71 L1903.43 1388.71 L1946.59 1388.71 L1946.59 1388.71 L1989.75 1388.71 
  L1989.75 1388.71 L2032.92 1388.71 L2032.92 1388.71 L2076.08 1388.71 L2076.08 1388.71 L2119.24 1388.71 L2119.24 1388.71 L2162.41 1388.71 L2162.41 1388.71 L2205.57 1388.71 
  L2205.57 1388.71 L2248.73 1388.71 L2248.73 1388.71 L2291.9 1388.71 L2291.9 1388.71 L2291.9 1388.71 L2291.9 1388.71 L2248.73 1388.71 L2248.73 1388.71 L2205.57 1388.71 
  L2205.57 1388.71 L2162.41 1388.71 L2162.41 1388.71 L2119.24 1388.71 L2119.24 1388.71 L2076.08 1388.71 L2076.08 1388.71 L2032.92 1388.71 L2032.92 1388.71 L1989.75 1388.71 
  L1989.75 1388.71 L1946.59 1388.71 L1946.59 1388.71 L1903.43 1388.71 L1903.43 1388.71 L1860.27 1388.71 L1860.27 1388.71 L1817.1 1388.71 L1817.1 1388.71 L1773.94 1388.71 
  L1773.94 1388.71 L1730.78 1388.71 L1730.78 1388.71 L1687.61 1388.71 L1687.61 1388.71 L1644.45 1388.71 L1644.45 1388.71 L1601.29 1388.71 L1601.29 1388.71 L1558.12 1388.71 
  L1558.12 1388.71 L1514.96 1388.71 L1514.96 1388.71 L1471.8 1388.71 L1471.8 1388.71 L1428.64 1388.71 L1428.64 1388.71 L1385.47 1388.71 L1385.47 1388.71 L1342.31 1388.71 
  L1342.31 1388.71 L1299.15 1388.71 L1299.15 1388.71 L1255.98 1388.71 L1255.98 1388.71 L1212.82 1388.71 L1212.82 1388.71 L1169.66 1388.71 L1169.66 1388.71 L1126.49 1388.71 
  L1126.49 1388.71 L1083.33 1388.71 L1083.33 1388.71 L1040.17 1388.71 L1040.17 1388.71 L997.005 1388.71 L997.005 1388.71 L953.842 1388.71 L953.842 1388.71 L910.679 1388.71 
  L910.679 1388.71 L867.515 1388.71 L867.515 1388.71 L824.352 1388.71 L824.352 1388.71 L781.189 1388.71 L781.189 1388.71 L738.026 1388.71 L738.026 1388.71 L694.863 1388.71 
  L694.863 1388.71 L651.7 1388.71 L651.7 1388.71 L608.537 1388.71 L608.537 1388.71 L565.374 1388.71 L565.374 1388.71 L522.211 1388.71 L522.211 1388.71 L479.048 1388.71 
  L479.048 1388.71 L435.885 1388.71 L435.885 1388.71 L392.722 1388.71 L392.722 1388.71 L349.559 1388.71 L349.559 1388.71 L306.396 1388.71 L306.396 1388.71 L263.233 1388.71 
   Z
  " fill="#ffff00" fill-rule="evenodd" fill-opacity="1"/>
<polyline clip-path="url(#clip0002)" style="stroke:#e26f46; stroke-width:0; stroke-opacity:1; fill:none" points="
  263.233,1388.71 306.396,1388.71 349.559,1388.71 392.722,1388.71 435.885,1388.71 479.048,1388.71 
  522.211,1388.71 565.374,1388.71 608.537,1388.71 651.7,1388.71 694.863,1388.71 
  738.026,1388.71 781.189,1388.71 824.352,1388.71 867.515,1388.71 867.515,1233.07 910.679,1233.07 
  910.679,1173.27 953.842,1173.27 953.842,1077.52 997.005,1077.52 997.005,991.28 1040.17,991.28 1040.17,843.745 1083.33,843.745 1083.33,686.394 1126.49,686.394 
  1126.49,581.827 1169.66,581.827 1169.66,409.151 1212.82,409.151 1212.82,313.198 1255.98,313.198 1255.98,246.692 1299.15,246.692 1299.15,194.408 1342.31,194.408 
  1342.31,259.212 1385.47,259.212 1385.47,239.781 1428.64,239.781 1428.64,366.984 1471.8,366.984 1471.8,457.829 1514.96,457.829 1514.96,621.891 1558.12,621.891 
  1558.12,738.978 1601.29,738.978 1601.29,880.303 1644.45,880.303 1644.45,1016.32 1687.61,1016.32 1687.61,1126.6 1730.78,1126.6 1730.78,1218.44 1773.94,1218.44 
  1773.94,1388.71 1817.1,1388.71 1860.27,1388.71 1903.43,1388.71 1946.59,1388.71 1989.75,1388.71 
  2032.92,1388.71 2076.08,1388.71 2119.24,1388.71 2162.41,1388.71 2205.57,1388.71 
  2248.73,1388.71 2291.9,1388.71 
  "/>
<path clip-path="url(#clip0002)" d="
M263.233 1388.71 L306.396 1388.71 L306.396 1388.71 L349.559 1388.71 L349.559 1388.71 L392.722 1388.71 L392.722 1388.71 L435.885 1388.71 L435.885 1388.71 L479.048 1388.71 
  L479.048 1388.71 L522.211 1388.71 L522.211 1388.71 L565.374 1388.71 L565.374 1388.71 L608.537 1388.71 L608.537 1388.71 L651.7 1388.71 L651.7 1388.71 L694.863 1388.71 
  L694.863 1388.71 L738.026 1388.71 L738.026 1388.71 L781.189 1388.71 L781.189 1388.71 L824.352 1388.71 L824.352 1388.71 L867.515 1388.71 L867.515 1388.71 L910.679 1388.71 
  L910.679 1388.71 L953.842 1388.71 L953.842 1388.71 L997.005 1388.71 L997.005 1388.71 L1040.17 1388.71 L1040.17 1388.71 L1083.33 1388.71 L1083.33 686.394 L1126.49 686.394 
  L1126.49 581.827 L1169.66 581.827 L1169.66 409.151 L1212.82 409.151 L1212.82 313.198 L1255.98 313.198 L1255.98 246.692 L1299.15 246.692 L1299.15 194.408 L1342.31 194.408 
  L1342.31 259.212 L1385.47 259.212 L1385.47 239.781 L1428.64 239.781 L1428.64 366.984 L1471.8 366.984 L1471.8 457.829 L1514.96 457.829 L1514.96 621.891 L1558.12 621.891 
  L1558.12 1388.71 L1601.29 1388.71 L1601.29 1388.71 L1644.45 1388.71 L1644.45 1388.71 L1687.61 1388.71 L1687.61 1388.71 L1730.78 1388.71 L1730.78 1388.71 L1773.94 1388.71 
  L1773.94 1388.71 L1817.1 1388.71 L1817.1 1388.71 L1860.27 1388.71 L1860.27 1388.71 L1903.43 1388.71 L1903.43 1388.71 L1946.59 1388.71 L1946.59 1388.71 L1989.75 1388.71 
  L1989.75 1388.71 L2032.92 1388.71 L2032.92 1388.71 L2076.08 1388.71 L2076.08 1388.71 L2119.24 1388.71 L2119.24 1388.71 L2162.41 1388.71 L2162.41 1388.71 L2205.57 1388.71 
  L2205.57 1388.71 L2248.73 1388.71 L2248.73 1388.71 L2291.9 1388.71 L2291.9 1388.71 L2291.9 1388.71 L2291.9 1388.71 L2248.73 1388.71 L2248.73 1388.71 L2205.57 1388.71 
  L2205.57 1388.71 L2162.41 1388.71 L2162.41 1388.71 L2119.24 1388.71 L2119.24 1388.71 L2076.08 1388.71 L2076.08 1388.71 L2032.92 1388.71 L2032.92 1388.71 L1989.75 1388.71 
  L1989.75 1388.71 L1946.59 1388.71 L1946.59 1388.71 L1903.43 1388.71 L1903.43 1388.71 L1860.27 1388.71 L1860.27 1388.71 L1817.1 1388.71 L1817.1 1388.71 L1773.94 1388.71 
  L1773.94 1388.71 L1730.78 1388.71 L1730.78 1388.71 L1687.61 1388.71 L1687.61 1388.71 L1644.45 1388.71 L1644.45 1388.71 L1601.29 1388.71 L1601.29 1388.71 L1558.12 1388.71 
  L1558.12 1388.71 L1514.96 1388.71 L1514.96 1388.71 L1471.8 1388.71 L1471.8 1388.71 L1428.64 1388.71 L1428.64 1388.71 L1385.47 1388.71 L1385.47 1388.71 L1342.31 1388.71 
  L1342.31 1388.71 L1299.15 1388.71 L1299.15 1388.71 L1255.98 1388.71 L1255.98 1388.71 L1212.82 1388.71 L1212.82 1388.71 L1169.66 1388.71 L1169.66 1388.71 L1126.49 1388.71 
  L1126.49 1388.71 L1083.33 1388.71 L1083.33 1388.71 L1040.17 1388.71 L1040.17 1388.71 L997.005 1388.71 L997.005 1388.71 L953.842 1388.71 L953.842 1388.71 L910.679 1388.71 
  L910.679 1388.71 L867.515 1388.71 L867.515 1388.71 L824.352 1388.71 L824.352 1388.71 L781.189 1388.71 L781.189 1388.71 L738.026 1388.71 L738.026 1388.71 L694.863 1388.71 
  L694.863 1388.71 L651.7 1388.71 L651.7 1388.71 L608.537 1388.71 L608.537 1388.71 L565.374 1388.71 L565.374 1388.71 L522.211 1388.71 L522.211 1388.71 L479.048 1388.71 
  L479.048 1388.71 L435.885 1388.71 L435.885 1388.71 L392.722 1388.71 L392.722 1388.71 L349.559 1388.71 L349.559 1388.71 L306.396 1388.71 L306.396 1388.71 L263.233 1388.71 
   Z
  " fill="#76ee00" fill-rule="evenodd" fill-opacity="1"/>
<polyline clip-path="url(#clip0002)" style="stroke:#3da44d; stroke-width:0; stroke-opacity:1; fill:none" points="
  263.233,1388.71 306.396,1388.71 349.559,1388.71 392.722,1388.71 435.885,1388.71 479.048,1388.71 
  522.211,1388.71 565.374,1388.71 608.537,1388.71 651.7,1388.71 694.863,1388.71 
  738.026,1388.71 781.189,1388.71 824.352,1388.71 867.515,1388.71 910.679,1388.71 
  953.842,1388.71 997.005,1388.71 1040.17,1388.71 1083.33,1388.71 1083.33,686.394 1126.49,686.394 
  1126.49,581.827 1169.66,581.827 1169.66,409.151 1212.82,409.151 1212.82,313.198 1255.98,313.198 1255.98,246.692 1299.15,246.692 1299.15,194.408 1342.31,194.408 
  1342.31,259.212 1385.47,259.212 1385.47,239.781 1428.64,239.781 1428.64,366.984 1471.8,366.984 1471.8,457.829 1514.96,457.829 1514.96,621.891 1558.12,621.891 
  1558.12,1388.71 1601.29,1388.71 1644.45,1388.71 1687.61,1388.71 1730.78,1388.71 1773.94,1388.71 
  1817.1,1388.71 1860.27,1388.71 1903.43,1388.71 1946.59,1388.71 1989.75,1388.71 
  2032.92,1388.71 2076.08,1388.71 2119.24,1388.71 2162.41,1388.71 2205.57,1388.71 
  2248.73,1388.71 2291.9,1388.71 
  "/>
<polyline clip-path="url(#clip0002)" style="stroke:#000000; stroke-width:2.8; stroke-opacity:1; fill:none" points="
  263.233,1387.91 306.396,1387.91 306.396,1388.31 349.559,1388.31 349.559,1388.41 392.722,1388.41 435.885,1388.41 435.885,1388.01 479.048,1388.01 
  479.048,1388.71 522.211,1388.71 522.211,1388.31 565.374,1388.31 565.374,1385.51 608.537,1385.51 608.537,1379.8 651.7,1379.8 651.7,1377.1 694.863,1377.1 
  694.863,1366.98 738.026,1366.98 738.026,1347.85 781.189,1347.85 781.189,1323.71 824.352,1323.71 824.352,1305.78 867.515,1305.78 867.515,1233.07 910.679,1233.07 
  910.679,1173.27 953.842,1173.27 953.842,1077.52 997.005,1077.52 997.005,991.28 1040.17,991.28 1040.17,843.745 1083.33,843.745 1083.33,686.394 1126.49,686.394 
  1126.49,581.827 1169.66,581.827 1169.66,409.151 1212.82,409.151 1212.82,313.198 1255.98,313.198 1255.98,246.692 1299.15,246.692 1299.15,194.408 1342.31,194.408 
  1342.31,259.212 1385.47,259.212 1385.47,239.781 1428.64,239.781 1428.64,366.984 1471.8,366.984 1471.8,457.829 1514.96,457.829 1514.96,621.891 1558.12,621.891 
  1558.12,738.978 1601.29,738.978 1601.29,880.303 1644.45,880.303 1644.45,1016.32 1687.61,1016.32 1687.61,1126.6 1730.78,1126.6 1730.78,1218.44 1773.94,1218.44 
  1773.94,1275.23 1817.1,1275.23 1817.1,1311.69 1860.27,1311.69 1860.27,1343.94 1903.43,1343.94 1903.43,1354.66 1946.59,1354.66 1946.59,1378.9 1989.75,1378.9 
  1989.75,1381 2032.92,1381 2032.92,1383.61 2076.08,1383.61 2076.08,1385.11 2119.24,1385.11 2119.24,1386.91 2162.41,1386.91 2162.41,1388.51 2205.57,1388.51 
  2205.57,1388.21 2248.73,1388.21 2248.73,1388.71 2291.9,1388.71 2291.9,1388.51 
  "/>
<path clip-path="url(#clip0002)" d="
M1116.27 1388.71 L1549.55 1388.71 L1549.55 158.579 L1116.27 158.579 L1116.27 1388.71  Z
  " fill="#808080" fill-rule="evenodd" fill-opacity="0.5"/>
<polyline clip-path="url(#clip0002)" style="stroke:#000000; stroke-width:0; stroke-opacity:1; fill:none" points="
  1116.27,1388.71 1549.55,1388.71 1549.55,158.579 1116.27,158.579 1116.27,1388.71 
  "/>
<polyline clip-path="url(#clip0002)" style="stroke:#696969; stroke-width:4; stroke-opacity:1; fill:none" points="
  1332.91,1388.71 1332.91,158.579 
  "/>
<polyline clip-path="url(#clip0002)" style="stroke:#000000; stroke-width:4; stroke-opacity:1; fill:none" stroke-dasharray="16, 10" points="
  1310.96,1388.71 1310.96,158.579 
  "/>
<polyline clip-path="url(#clip0002)" style="stroke:#000000; stroke-width:4; stroke-opacity:1; fill:none" stroke-dasharray="2, 4" points="
  1320.73,1388.71 1320.73,158.579 
  "/>
<path clip-path="url(#clip0000)" d="
M1463.01 689.035 L2280.76 689.035 L2280.76 205.195 L1463.01 205.195  Z
  " fill="#ffffff" fill-rule="evenodd" fill-opacity="1"/>
<polyline clip-path="url(#clip0000)" style="stroke:#000000; stroke-width:4; stroke-opacity:1; fill:none" points="
  1463.01,689.035 2280.76,689.035 2280.76,205.195 1463.01,205.195 1463.01,689.035 
  "/>
<path clip-path="url(#clip0000)" d="
M1487.01 289.867 L1631.01 289.867 L1631.01 241.483 L1487.01 241.483 L1487.01 289.867  Z
  " fill="#ff0000" fill-rule="evenodd" fill-opacity="1"/>
<polyline clip-path="url(#clip0000)" style="stroke:#009af9; stroke-width:0; stroke-opacity:1; fill:none" points="
  1487.01,241.483 1631.01,241.483 
  "/>
<g clip-path="url(#clip0000)">
<text style="fill:#000000; fill-opacity:1; font-family:Arial,Helvetica Neue,Helvetica,sans-serif; font-size:48px; text-anchor:start;" transform="rotate(0, 1655.01, 283.175)" x="1655.01" y="283.175">smallest 99.71% interval(s)</text>
</g>
<path clip-path="url(#clip0000)" d="
M1487.01 350.347 L1631.01 350.347 L1631.01 301.963 L1487.01 301.963 L1487.01 350.347  Z
  " fill="#ffff00" fill-rule="evenodd" fill-opacity="1"/>
<polyline clip-path="url(#clip0000)" style="stroke:#e26f46; stroke-width:0; stroke-opacity:1; fill:none" points="
  1487.01,301.963 1631.01,301.963 
  "/>
<g clip-path="url(#clip0000)">
<text style="fill:#000000; fill-opacity:1; font-family:Arial,Helvetica Neue,Helvetica,sans-serif; font-size:48px; text-anchor:start;" transform="rotate(0, 1655.01, 343.655)" x="1655.01" y="343.655">smallest 96.44% interval(s)</text>
</g>
<path clip-path="url(#clip0000)" d="
M1487.01 410.827 L1631.01 410.827 L1631.01 362.443 L1487.01 362.443 L1487.01 410.827  Z
  " fill="#76ee00" fill-rule="evenodd" fill-opacity="1"/>
<polyline clip-path="url(#clip0000)" style="stroke:#3da44d; stroke-width:0; stroke-opacity:1; fill:none" points="
  1487.01,362.443 1631.01,362.443 
  "/>
<g clip-path="url(#clip0000)">
<text style="fill:#000000; fill-opacity:1; font-family:Arial,Helvetica Neue,Helvetica,sans-serif; font-size:48px; text-anchor:start;" transform="rotate(0, 1655.01, 404.135)" x="1655.01" y="404.135">smallest 72.55% interval(s)</text>
</g>
<path clip-path="url(#clip0000)" d="
M1487.01 471.307 L1631.01 471.307 L1631.01 422.923 L1487.01 422.923 L1487.01 471.307  Z
  " fill="#808080" fill-rule="evenodd" fill-opacity="0.5"/>
<polyline clip-path="url(#clip0000)" style="stroke:#000000; stroke-width:0; stroke-opacity:1; fill:none" points="
  1487.01,471.307 1631.01,471.307 1631.01,422.923 1487.01,422.923 1487.01,471.307 
  "/>
<g clip-path="url(#clip0000)">
<text style="fill:#000000; fill-opacity:1; font-family:Arial,Helvetica Neue,Helvetica,sans-serif; font-size:48px; text-anchor:start;" transform="rotate(0, 1655.01, 464.615)" x="1655.01" y="464.615">std. dev.</text>
</g>
<polyline clip-path="url(#clip0000)" style="stroke:#696969; stroke-width:4; stroke-opacity:1; fill:none" points="
  1487.01,507.595 1631.01,507.595 
  "/>
<g clip-path="url(#clip0000)">
<text style="fill:#000000; fill-opacity:1; font-family:Arial,Helvetica Neue,Helvetica,sans-serif; font-size:48px; text-anchor:start;" transform="rotate(0, 1655.01, 525.095)" x="1655.01" y="525.095">mean</text>
</g>
<polyline clip-path="url(#clip0000)" style="stroke:#000000; stroke-width:4; stroke-opacity:1; fill:none" stroke-dasharray="16, 10" points="
  1487.01,568.075 1631.01,568.075 
  "/>
<g clip-path="url(#clip0000)">
<text style="fill:#000000; fill-opacity:1; font-family:Arial,Helvetica Neue,Helvetica,sans-serif; font-size:48px; text-anchor:start;" transform="rotate(0, 1655.01, 585.575)" x="1655.01" y="585.575">global mode</text>
</g>
<polyline clip-path="url(#clip0000)" style="stroke:#000000; stroke-width:4; stroke-opacity:1; fill:none" stroke-dasharray="2, 4" points="
  1487.01,628.555 1631.01,628.555 
  "/>
<g clip-path="url(#clip0000)">
<text style="fill:#000000; fill-opacity:1; font-family:Arial,Helvetica Neue,Helvetica,sans-serif; font-size:48px; text-anchor:start;" transform="rotate(0, 1655.01, 646.055)" x="1655.01" y="646.055">local mode</text>
</g>
</svg>
