<?xml version="1.0" encoding="utf-8"?>
<svg xmlns="http://www.w3.org/2000/svg" xmlns:xlink="http://www.w3.org/1999/xlink" width="600" height="400" viewBox="0 0 2400 1600">
<defs>
  <clipPath id="clip200">
    <rect x="0" y="0" width="2400" height="1600"/>
  </clipPath>
</defs>
<path clip-path="url(#clip200)" d="
M0 1600 L2400 1600 L2400 0 L0 0  Z
  " fill="#ffffff" fill-rule="evenodd" fill-opacity="1"/>
<defs>
  <clipPath id="clip201">
    <rect x="480" y="0" width="1681" height="1600"/>
  </clipPath>
</defs>
<path clip-path="url(#clip200)" d="
M166.205 1486.45 L2352.76 1486.45 L2352.76 123.472 L166.205 123.472  Z
  " fill="#ffffff" fill-rule="evenodd" fill-opacity="1"/>
<defs>
  <clipPath id="clip202">
    <rect x="166" y="123" width="2188" height="1364"/>
  </clipPath>
</defs>
<polyline clip-path="url(#clip202)" style="stroke:#000000; stroke-width:2; stroke-opacity:0.1; fill:none" points="
  228.088,1486.45 228.088,123.472 
  "/>
<polyline clip-path="url(#clip202)" style="stroke:#000000; stroke-width:2; stroke-opacity:0.1; fill:none" points="
  571.886,1486.45 571.886,123.472 
  "/>
<polyline clip-path="url(#clip202)" style="stroke:#000000; stroke-width:2; stroke-opacity:0.1; fill:none" points="
  915.683,1486.45 915.683,123.472 
  "/>
<polyline clip-path="url(#clip202)" style="stroke:#000000; stroke-width:2; stroke-opacity:0.1; fill:none" points="
  1259.48,1486.45 1259.48,123.472 
  "/>
<polyline clip-path="url(#clip202)" style="stroke:#000000; stroke-width:2; stroke-opacity:0.1; fill:none" points="
  1603.28,1486.45 1603.28,123.472 
  "/>
<polyline clip-path="url(#clip202)" style="stroke:#000000; stroke-width:2; stroke-opacity:0.1; fill:none" points="
  1947.08,1486.45 1947.08,123.472 
  "/>
<polyline clip-path="url(#clip202)" style="stroke:#000000; stroke-width:2; stroke-opacity:0.1; fill:none" points="
  2290.87,1486.45 2290.87,123.472 
  "/>
<polyline clip-path="url(#clip202)" style="stroke:#000000; stroke-width:2; stroke-opacity:0.1; fill:none" points="
  166.205,1447.87 2352.76,1447.87 
  "/>
<polyline clip-path="url(#clip202)" style="stroke:#000000; stroke-width:2; stroke-opacity:0.1; fill:none" points="
  166.205,1177.17 2352.76,1177.17 
  "/>
<polyline clip-path="url(#clip202)" style="stroke:#000000; stroke-width:2; stroke-opacity:0.1; fill:none" points="
  166.205,906.473 2352.76,906.473 
  "/>
<polyline clip-path="url(#clip202)" style="stroke:#000000; stroke-width:2; stroke-opacity:0.1; fill:none" points="
  166.205,635.772 2352.76,635.772 
  "/>
<polyline clip-path="url(#clip202)" style="stroke:#000000; stroke-width:2; stroke-opacity:0.1; fill:none" points="
  166.205,365.072 2352.76,365.072 
  "/>
<polyline clip-path="url(#clip200)" style="stroke:#000000; stroke-width:4; stroke-opacity:1; fill:none" points="
  166.205,1486.45 2352.76,1486.45 
  "/>
<polyline clip-path="url(#clip200)" style="stroke:#000000; stroke-width:4; stroke-opacity:1; fill:none" points="
  166.205,1486.45 166.205,123.472 
  "/>
<polyline clip-path="url(#clip200)" style="stroke:#000000; stroke-width:4; stroke-opacity:1; fill:none" points="
  228.088,1486.45 228.088,1470.09 
  "/>
<polyline clip-path="url(#clip200)" style="stroke:#000000; stroke-width:4; stroke-opacity:1; fill:none" points="
  571.886,1486.45 571.886,1470.09 
  "/>
<polyline clip-path="url(#clip200)" style="stroke:#000000; stroke-width:4; stroke-opacity:1; fill:none" points="
  915.683,1486.45 915.683,1470.09 
  "/>
<polyline clip-path="url(#clip200)" style="stroke:#000000; stroke-width:4; stroke-opacity:1; fill:none" points="
  1259.48,1486.45 1259.48,1470.09 
  "/>
<polyline clip-path="url(#clip200)" style="stroke:#000000; stroke-width:4; stroke-opacity:1; fill:none" points="
  1603.28,1486.45 1603.28,1470.09 
  "/>
<polyline clip-path="url(#clip200)" style="stroke:#000000; stroke-width:4; stroke-opacity:1; fill:none" points="
  1947.08,1486.45 1947.08,1470.09 
  "/>
<polyline clip-path="url(#clip200)" style="stroke:#000000; stroke-width:4; stroke-opacity:1; fill:none" points="
  2290.87,1486.45 2290.87,1470.09 
  "/>
<polyline clip-path="url(#clip200)" style="stroke:#000000; stroke-width:4; stroke-opacity:1; fill:none" points="
  166.205,1447.87 192.443,1447.87 
  "/>
<polyline clip-path="url(#clip200)" style="stroke:#000000; stroke-width:4; stroke-opacity:1; fill:none" points="
  166.205,1177.17 192.443,1177.17 
  "/>
<polyline clip-path="url(#clip200)" style="stroke:#000000; stroke-width:4; stroke-opacity:1; fill:none" points="
  166.205,906.473 192.443,906.473 
  "/>
<polyline clip-path="url(#clip200)" style="stroke:#000000; stroke-width:4; stroke-opacity:1; fill:none" points="
  166.205,635.772 192.443,635.772 
  "/>
<polyline clip-path="url(#clip200)" style="stroke:#000000; stroke-width:4; stroke-opacity:1; fill:none" points="
  166.205,365.072 192.443,365.072 
  "/>
<path clip-path="url(#clip200)" d="M 0 0 M209.142 1525.04 L221.618 1525.04 L221.618 1528.83 L209.142 1528.83 L209.142 1525.04 Z" fill="#000000" fill-rule="evenodd" fill-opacity="1" /><path clip-path="url(#clip200)" d="M 0 0 M230.715 1535.98 L247.035 1535.98 L247.035 1539.92 L225.091 1539.92 L225.091 1535.98 Q227.753 1533.23 232.336 1528.6 Q236.942 1523.95 238.123 1522.61 Q240.368 1520.08 241.248 1518.35 Q242.151 1516.59 242.151 1514.9 Q242.151 1512.14 240.206 1510.41 Q238.285 1508.67 235.183 1508.67 Q232.984 1508.67 230.53 1509.43 Q228.1 1510.2 225.322 1511.75 L225.322 1507.03 Q228.146 1505.89 230.6 1505.31 Q233.053 1504.73 235.09 1504.73 Q240.461 1504.73 243.655 1507.42 Q246.85 1510.11 246.85 1514.6 Q246.85 1516.73 246.039 1518.65 Q245.252 1520.54 243.146 1523.14 Q242.567 1523.81 239.465 1527.03 Q236.364 1530.22 230.715 1535.98 Z" fill="#000000" fill-rule="evenodd" fill-opacity="1" /><path clip-path="url(#clip200)" d="M 0 0 M552.754 1525.04 L565.23 1525.04 L565.23 1528.83 L552.754 1528.83 L552.754 1525.04 Z" fill="#000000" fill-rule="evenodd" fill-opacity="1" /><path clip-path="url(#clip200)" d="M 0 0 M571.11 1535.98 L578.749 1535.98 L578.749 1509.62 L570.439 1511.29 L570.439 1507.03 L578.703 1505.36 L583.379 1505.36 L583.379 1535.98 L591.017 1535.98 L591.017 1539.92 L571.11 1539.92 L571.11 1535.98 Z" fill="#000000" fill-rule="evenodd" fill-opacity="1" /><path clip-path="url(#clip200)" d="M 0 0 M915.683 1508.44 Q912.072 1508.44 910.243 1512 Q908.438 1515.55 908.438 1522.67 Q908.438 1529.78 910.243 1533.35 Q912.072 1536.89 915.683 1536.89 Q919.317 1536.89 921.123 1533.35 Q922.951 1529.78 922.951 1522.67 Q922.951 1515.55 921.123 1512 Q919.317 1508.44 915.683 1508.44 M915.683 1504.73 Q921.493 1504.73 924.549 1509.34 Q927.627 1513.92 927.627 1522.67 Q927.627 1531.4 924.549 1536.01 Q921.493 1540.59 915.683 1540.59 Q909.873 1540.59 906.794 1536.01 Q903.739 1531.4 903.739 1522.67 Q903.739 1513.92 906.794 1509.34 Q909.873 1504.73 915.683 1504.73 Z" fill="#000000" fill-rule="evenodd" fill-opacity="1" /><path clip-path="url(#clip200)" d="M 0 0 M1249.86 1535.98 L1257.5 1535.98 L1257.5 1509.62 L1249.19 1511.29 L1249.19 1507.03 L1257.45 1505.36 L1262.13 1505.36 L1262.13 1535.98 L1269.77 1535.98 L1269.77 1539.92 L1249.86 1539.92 L1249.86 1535.98 Z" fill="#000000" fill-rule="evenodd" fill-opacity="1" /><path clip-path="url(#clip200)" d="M 0 0 M1597.93 1535.98 L1614.25 1535.98 L1614.25 1539.92 L1592.31 1539.92 L1592.31 1535.98 Q1594.97 1533.23 1599.55 1528.6 Q1604.16 1523.95 1605.34 1522.61 Q1607.58 1520.08 1608.46 1518.35 Q1609.37 1516.59 1609.37 1514.9 Q1609.37 1512.14 1607.42 1510.41 Q1605.5 1508.67 1602.4 1508.67 Q1600.2 1508.67 1597.75 1509.43 Q1595.31 1510.2 1592.54 1511.75 L1592.54 1507.03 Q1595.36 1505.89 1597.81 1505.31 Q1600.27 1504.73 1602.31 1504.73 Q1607.68 1504.73 1610.87 1507.42 Q1614.06 1510.11 1614.06 1514.6 Q1614.06 1516.73 1613.25 1518.65 Q1612.47 1520.54 1610.36 1523.14 Q1609.78 1523.81 1606.68 1527.03 Q1603.58 1530.22 1597.93 1535.98 Z" fill="#000000" fill-rule="evenodd" fill-opacity="1" /><path clip-path="url(#clip200)" d="M 0 0 M1951.32 1521.29 Q1954.68 1522 1956.55 1524.27 Q1958.45 1526.54 1958.45 1529.87 Q1958.45 1534.99 1954.93 1537.79 Q1951.42 1540.59 1944.93 1540.59 Q1942.76 1540.59 1940.44 1540.15 Q1938.15 1539.73 1935.7 1538.88 L1935.7 1534.36 Q1937.64 1535.5 1939.96 1536.08 Q1942.27 1536.66 1944.79 1536.66 Q1949.19 1536.66 1951.48 1534.92 Q1953.8 1533.18 1953.8 1529.87 Q1953.8 1526.82 1951.65 1525.11 Q1949.52 1523.37 1945.7 1523.37 L1941.67 1523.37 L1941.67 1519.53 L1945.88 1519.53 Q1949.33 1519.53 1951.16 1518.16 Q1952.99 1516.77 1952.99 1514.18 Q1952.99 1511.52 1951.09 1510.11 Q1949.22 1508.67 1945.7 1508.67 Q1943.78 1508.67 1941.58 1509.09 Q1939.38 1509.5 1936.74 1510.38 L1936.74 1506.22 Q1939.4 1505.48 1941.72 1505.11 Q1944.05 1504.73 1946.11 1504.73 Q1951.44 1504.73 1954.54 1507.17 Q1957.64 1509.57 1957.64 1513.69 Q1957.64 1516.56 1956 1518.55 Q1954.36 1520.52 1951.32 1521.29 Z" fill="#000000" fill-rule="evenodd" fill-opacity="1" /><path clip-path="url(#clip200)" d="M 0 0 M2293.88 1509.43 L2282.08 1527.88 L2293.88 1527.88 L2293.88 1509.43 M2292.65 1505.36 L2298.53 1505.36 L2298.53 1527.88 L2303.46 1527.88 L2303.46 1531.77 L2298.53 1531.77 L2298.53 1539.92 L2293.88 1539.92 L2293.88 1531.77 L2278.28 1531.77 L2278.28 1527.26 L2292.65 1505.36 Z" fill="#000000" fill-rule="evenodd" fill-opacity="1" /><path clip-path="url(#clip200)" d="M 0 0 M130.26 1433.67 Q126.649 1433.67 124.82 1437.24 Q123.015 1440.78 123.015 1447.91 Q123.015 1455.01 124.82 1458.58 Q126.649 1462.12 130.26 1462.12 Q133.895 1462.12 135.7 1458.58 Q137.529 1455.01 137.529 1447.91 Q137.529 1440.78 135.7 1437.24 Q133.895 1433.67 130.26 1433.67 M130.26 1429.97 Q136.07 1429.97 139.126 1434.57 Q142.205 1439.16 142.205 1447.91 Q142.205 1456.63 139.126 1461.24 Q136.07 1465.82 130.26 1465.82 Q124.45 1465.82 121.371 1461.24 Q118.316 1456.63 118.316 1447.91 Q118.316 1439.16 121.371 1434.57 Q124.45 1429.97 130.26 1429.97 Z" fill="#000000" fill-rule="evenodd" fill-opacity="1" /><path clip-path="url(#clip200)" d="M 0 0 M71.8578 1190.52 L88.1772 1190.52 L88.1772 1194.45 L66.2328 1194.45 L66.2328 1190.52 Q68.8949 1187.76 73.4782 1183.13 Q78.0846 1178.48 79.2652 1177.14 Q81.5105 1174.61 82.3902 1172.88 Q83.2929 1171.12 83.2929 1169.43 Q83.2929 1166.68 81.3485 1164.94 Q79.4272 1163.2 76.3254 1163.2 Q74.1263 1163.2 71.6726 1163.97 Q69.2421 1164.73 66.4643 1166.28 L66.4643 1161.56 Q69.2884 1160.43 71.7421 1159.85 Q74.1958 1159.27 76.2328 1159.27 Q81.6031 1159.27 84.7976 1161.95 Q87.992 1164.64 87.992 1169.13 Q87.992 1171.26 87.1818 1173.18 Q86.3948 1175.08 84.2883 1177.67 Q83.7096 1178.34 80.6078 1181.56 Q77.5059 1184.75 71.8578 1190.52 Z" fill="#000000" fill-rule="evenodd" fill-opacity="1" /><path clip-path="url(#clip200)" d="M 0 0 M103.247 1162.97 Q99.6354 1162.97 97.8068 1166.54 Q96.0012 1170.08 96.0012 1177.21 Q96.0012 1184.31 97.8068 1187.88 Q99.6354 1191.42 103.247 1191.42 Q106.881 1191.42 108.686 1187.88 Q110.515 1184.31 110.515 1177.21 Q110.515 1170.08 108.686 1166.54 Q106.881 1162.97 103.247 1162.97 M103.247 1159.27 Q109.057 1159.27 112.112 1163.87 Q115.191 1168.46 115.191 1177.21 Q115.191 1185.93 112.112 1190.54 Q109.057 1195.12 103.247 1195.12 Q97.4364 1195.12 94.3577 1190.54 Q91.3022 1185.93 91.3022 1177.21 Q91.3022 1168.46 94.3577 1163.87 Q97.4364 1159.27 103.247 1159.27 Z" fill="#000000" fill-rule="evenodd" fill-opacity="1" /><path clip-path="url(#clip200)" d="M 0 0 M130.26 1162.97 Q126.649 1162.97 124.82 1166.54 Q123.015 1170.08 123.015 1177.21 Q123.015 1184.31 124.82 1187.88 Q126.649 1191.42 130.26 1191.42 Q133.895 1191.42 135.7 1187.88 Q137.529 1184.31 137.529 1177.21 Q137.529 1170.08 135.7 1166.54 Q133.895 1162.97 130.26 1162.97 M130.26 1159.27 Q136.07 1159.27 139.126 1163.87 Q142.205 1168.46 142.205 1177.21 Q142.205 1185.93 139.126 1190.54 Q136.07 1195.12 130.26 1195.12 Q124.45 1195.12 121.371 1190.54 Q118.316 1185.93 118.316 1177.21 Q118.316 1168.46 121.371 1163.87 Q124.45 1159.27 130.26 1159.27 Z" fill="#000000" fill-rule="evenodd" fill-opacity="1" /><path clip-path="url(#clip200)" d="M 0 0 M78.5939 893.267 L66.7884 911.716 L78.5939 911.716 L78.5939 893.267 M77.367 889.193 L83.2466 889.193 L83.2466 911.716 L88.1772 911.716 L88.1772 915.604 L83.2466 915.604 L83.2466 923.753 L78.5939 923.753 L78.5939 915.604 L62.9921 915.604 L62.9921 911.091 L77.367 889.193 Z" fill="#000000" fill-rule="evenodd" fill-opacity="1" /><path clip-path="url(#clip200)" d="M 0 0 M103.247 892.271 Q99.6354 892.271 97.8068 895.836 Q96.0012 899.378 96.0012 906.507 Q96.0012 913.614 97.8068 917.179 Q99.6354 920.72 103.247 920.72 Q106.881 920.72 108.686 917.179 Q110.515 913.614 110.515 906.507 Q110.515 899.378 108.686 895.836 Q106.881 892.271 103.247 892.271 M103.247 888.568 Q109.057 888.568 112.112 893.174 Q115.191 897.757 115.191 906.507 Q115.191 915.234 112.112 919.841 Q109.057 924.424 103.247 924.424 Q97.4364 924.424 94.3577 919.841 Q91.3022 915.234 91.3022 906.507 Q91.3022 897.757 94.3577 893.174 Q97.4364 888.568 103.247 888.568 Z" fill="#000000" fill-rule="evenodd" fill-opacity="1" /><path clip-path="url(#clip200)" d="M 0 0 M130.26 892.271 Q126.649 892.271 124.82 895.836 Q123.015 899.378 123.015 906.507 Q123.015 913.614 124.82 917.179 Q126.649 920.72 130.26 920.72 Q133.895 920.72 135.7 917.179 Q137.529 913.614 137.529 906.507 Q137.529 899.378 135.7 895.836 Q133.895 892.271 130.26 892.271 M130.26 888.568 Q136.07 888.568 139.126 893.174 Q142.205 897.757 142.205 906.507 Q142.205 915.234 139.126 919.841 Q136.07 924.424 130.26 924.424 Q124.45 924.424 121.371 919.841 Q118.316 915.234 118.316 906.507 Q118.316 897.757 121.371 893.174 Q124.45 888.568 130.26 888.568 Z" fill="#000000" fill-rule="evenodd" fill-opacity="1" /><path clip-path="url(#clip200)" d="M 0 0 M76.6495 633.909 Q73.5013 633.909 71.6495 636.062 Q69.8208 638.214 69.8208 641.964 Q69.8208 645.691 71.6495 647.867 Q73.5013 650.02 76.6495 650.02 Q79.7976 650.02 81.6263 647.867 Q83.4781 645.691 83.4781 641.964 Q83.4781 638.214 81.6263 636.062 Q79.7976 633.909 76.6495 633.909 M85.9318 619.256 L85.9318 623.515 Q84.1726 622.682 82.367 622.242 Q80.5846 621.803 78.8254 621.803 Q74.1958 621.803 71.7421 624.927 Q69.3115 628.052 68.9643 634.372 Q70.33 632.358 72.3902 631.293 Q74.4504 630.205 76.9272 630.205 Q82.1355 630.205 85.1448 633.377 Q88.1772 636.525 88.1772 641.964 Q88.1772 647.288 85.029 650.506 Q81.8809 653.724 76.6495 653.724 Q70.6541 653.724 67.4828 649.14 Q64.3116 644.534 64.3116 635.807 Q64.3116 627.613 68.2004 622.752 Q72.0893 617.867 78.6402 617.867 Q80.3994 617.867 82.1818 618.215 Q83.9874 618.562 85.9318 619.256 Z" fill="#000000" fill-rule="evenodd" fill-opacity="1" /><path clip-path="url(#clip200)" d="M 0 0 M103.247 621.571 Q99.6354 621.571 97.8068 625.136 Q96.0012 628.677 96.0012 635.807 Q96.0012 642.914 97.8068 646.478 Q99.6354 650.02 103.247 650.02 Q106.881 650.02 108.686 646.478 Q110.515 642.914 110.515 635.807 Q110.515 628.677 108.686 625.136 Q106.881 621.571 103.247 621.571 M103.247 617.867 Q109.057 617.867 112.112 622.474 Q115.191 627.057 115.191 635.807 Q115.191 644.534 112.112 649.14 Q109.057 653.724 103.247 653.724 Q97.4364 653.724 94.3577 649.14 Q91.3022 644.534 91.3022 635.807 Q91.3022 627.057 94.3577 622.474 Q97.4364 617.867 103.247 617.867 Z" fill="#000000" fill-rule="evenodd" fill-opacity="1" /><path clip-path="url(#clip200)" d="M 0 0 M130.26 621.571 Q126.649 621.571 124.82 625.136 Q123.015 628.677 123.015 635.807 Q123.015 642.914 124.82 646.478 Q126.649 650.02 130.26 650.02 Q133.895 650.02 135.7 646.478 Q137.529 642.914 137.529 635.807 Q137.529 628.677 135.7 625.136 Q133.895 621.571 130.26 621.571 M130.26 617.867 Q136.07 617.867 139.126 622.474 Q142.205 627.057 142.205 635.807 Q142.205 644.534 139.126 649.14 Q136.07 653.724 130.26 653.724 Q124.45 653.724 121.371 649.14 Q118.316 644.534 118.316 635.807 Q118.316 627.057 121.371 622.474 Q124.45 617.867 130.26 617.867 Z" fill="#000000" fill-rule="evenodd" fill-opacity="1" /><path clip-path="url(#clip200)" d="M 0 0 M76.3254 365.94 Q72.9921 365.94 71.0708 367.723 Q69.1726 369.505 69.1726 372.63 Q69.1726 375.755 71.0708 377.537 Q72.9921 379.32 76.3254 379.32 Q79.6587 379.32 81.58 377.537 Q83.5013 375.732 83.5013 372.63 Q83.5013 369.505 81.58 367.723 Q79.6819 365.94 76.3254 365.94 M71.6495 363.949 Q68.6402 363.209 66.9504 361.149 Q65.2838 359.088 65.2838 356.125 Q65.2838 351.982 68.2236 349.574 Q71.1865 347.167 76.3254 347.167 Q81.4874 347.167 84.4272 349.574 Q87.367 351.982 87.367 356.125 Q87.367 359.088 85.6772 361.149 Q84.0105 363.209 81.0244 363.949 Q84.404 364.736 86.279 367.028 Q88.1772 369.32 88.1772 372.63 Q88.1772 377.653 85.0985 380.338 Q82.0429 383.023 76.3254 383.023 Q70.6078 383.023 67.5291 380.338 Q64.4736 377.653 64.4736 372.63 Q64.4736 369.32 66.3717 367.028 Q68.2699 364.736 71.6495 363.949 M69.9365 356.565 Q69.9365 359.25 71.6032 360.755 Q73.293 362.26 76.3254 362.26 Q79.3346 362.26 81.0244 360.755 Q82.7374 359.25 82.7374 356.565 Q82.7374 353.88 81.0244 352.375 Q79.3346 350.871 76.3254 350.871 Q73.293 350.871 71.6032 352.375 Q69.9365 353.88 69.9365 356.565 Z" fill="#000000" fill-rule="evenodd" fill-opacity="1" /><path clip-path="url(#clip200)" d="M 0 0 M103.247 350.871 Q99.6354 350.871 97.8068 354.436 Q96.0012 357.977 96.0012 365.107 Q96.0012 372.213 97.8068 375.778 Q99.6354 379.32 103.247 379.32 Q106.881 379.32 108.686 375.778 Q110.515 372.213 110.515 365.107 Q110.515 357.977 108.686 354.436 Q106.881 350.871 103.247 350.871 M103.247 347.167 Q109.057 347.167 112.112 351.774 Q115.191 356.357 115.191 365.107 Q115.191 373.834 112.112 378.44 Q109.057 383.023 103.247 383.023 Q97.4364 383.023 94.3577 378.44 Q91.3022 373.834 91.3022 365.107 Q91.3022 356.357 94.3577 351.774 Q97.4364 347.167 103.247 347.167 Z" fill="#000000" fill-rule="evenodd" fill-opacity="1" /><path clip-path="url(#clip200)" d="M 0 0 M130.26 350.871 Q126.649 350.871 124.82 354.436 Q123.015 357.977 123.015 365.107 Q123.015 372.213 124.82 375.778 Q126.649 379.32 130.26 379.32 Q133.895 379.32 135.7 375.778 Q137.529 372.213 137.529 365.107 Q137.529 357.977 135.7 354.436 Q133.895 350.871 130.26 350.871 M130.26 347.167 Q136.07 347.167 139.126 351.774 Q142.205 356.357 142.205 365.107 Q142.205 373.834 139.126 378.44 Q136.07 383.023 130.26 383.023 Q124.45 383.023 121.371 378.44 Q118.316 373.834 118.316 365.107 Q118.316 356.357 121.371 351.774 Q124.45 347.167 130.26 347.167 Z" fill="#000000" fill-rule="evenodd" fill-opacity="1" /><path clip-path="url(#clip200)" d="M 0 0 M1183.67 18.8205 L1183.67 65.8515 L1193.55 65.8515 Q1206.07 65.8515 1211.86 60.1802 Q1217.7 54.509 1217.7 42.2752 Q1217.7 30.1225 1211.86 24.4918 Q1206.07 18.8205 1193.55 18.8205 L1183.67 18.8205 M1175.48 12.096 L1192.3 12.096 Q1209.88 12.096 1218.1 19.4281 Q1226.32 26.7198 1226.32 42.2752 Q1226.32 57.9117 1218.06 65.2439 Q1209.8 72.576 1192.3 72.576 L1175.48 72.576 L1175.48 12.096 Z" fill="#000000" fill-rule="evenodd" fill-opacity="1" /><path clip-path="url(#clip200)" d="M 0 0 M1254.76 49.7694 Q1245.73 49.7694 1242.24 51.8354 Q1238.76 53.9013 1238.76 58.8839 Q1238.76 62.8538 1241.35 65.2034 Q1243.99 67.5124 1248.48 67.5124 Q1254.68 67.5124 1258.41 63.1374 Q1262.17 58.7219 1262.17 51.4303 L1262.17 49.7694 L1254.76 49.7694 M1269.63 46.6907 L1269.63 72.576 L1262.17 72.576 L1262.17 65.6895 Q1259.62 69.8214 1255.81 71.8063 Q1252.01 73.7508 1246.5 73.7508 Q1239.53 73.7508 1235.4 69.8619 Q1231.31 65.9325 1231.31 59.3701 Q1231.31 51.7138 1236.41 47.825 Q1241.56 43.9361 1251.72 43.9361 L1262.17 43.9361 L1262.17 43.2069 Q1262.17 38.0623 1258.77 35.2672 Q1255.41 32.4315 1249.29 32.4315 Q1245.4 32.4315 1241.72 33.3632 Q1238.03 34.295 1234.63 36.1584 L1234.63 29.2718 Q1238.72 27.692 1242.57 26.9223 Q1246.42 26.1121 1250.06 26.1121 Q1259.91 26.1121 1264.77 31.2163 Q1269.63 36.3204 1269.63 46.6907 Z" fill="#000000" fill-rule="evenodd" fill-opacity="1" /><path clip-path="url(#clip200)" d="M 0 0 M1284.82 14.324 L1284.82 27.2059 L1300.17 27.2059 L1300.17 32.9987 L1284.82 32.9987 L1284.82 57.6282 Q1284.82 63.1779 1286.32 64.7578 Q1287.86 66.3376 1292.52 66.3376 L1300.17 66.3376 L1300.17 72.576 L1292.52 72.576 Q1283.89 72.576 1280.61 69.3758 Q1277.32 66.1351 1277.32 57.6282 L1277.32 32.9987 L1271.86 32.9987 L1271.86 27.2059 L1277.32 27.2059 L1277.32 14.324 L1284.82 14.324 Z" fill="#000000" fill-rule="evenodd" fill-opacity="1" /><path clip-path="url(#clip200)" d="M 0 0 M1328.61 49.7694 Q1319.58 49.7694 1316.09 51.8354 Q1312.61 53.9013 1312.61 58.8839 Q1312.61 62.8538 1315.2 65.2034 Q1317.83 67.5124 1322.33 67.5124 Q1328.53 67.5124 1332.25 63.1374 Q1336.02 58.7219 1336.02 51.4303 L1336.02 49.7694 L1328.61 49.7694 M1343.48 46.6907 L1343.48 72.576 L1336.02 72.576 L1336.02 65.6895 Q1333.47 69.8214 1329.66 71.8063 Q1325.85 73.7508 1320.35 73.7508 Q1313.38 73.7508 1309.25 69.8619 Q1305.15 65.9325 1305.15 59.3701 Q1305.15 51.7138 1310.26 47.825 Q1315.4 43.9361 1325.57 43.9361 L1336.02 43.9361 L1336.02 43.2069 Q1336.02 38.0623 1332.62 35.2672 Q1329.26 32.4315 1323.14 32.4315 Q1319.25 32.4315 1315.57 33.3632 Q1311.88 34.295 1308.48 36.1584 L1308.48 29.2718 Q1312.57 27.692 1316.42 26.9223 Q1320.26 26.1121 1323.91 26.1121 Q1333.75 26.1121 1338.61 31.2163 Q1343.48 36.3204 1343.48 46.6907 Z" fill="#000000" fill-rule="evenodd" fill-opacity="1" /><polyline clip-path="url(#clip202)" style="stroke:#009af9; stroke-width:4; stroke-opacity:1; fill:none" points="
  228.088,1447.87 228.088,1353.13 262.468,1353.13 296.848,1353.13 296.848,1258.38 331.227,1258.38 331.227,1136.57 365.607,1136.57 365.607,1109.5 
  399.987,1109.5 399.987,1082.43 434.367,1082.43 434.367,960.613 468.746,960.613 468.746,974.148 503.126,974.148 503.126,947.078 537.506,947.078 537.506,892.938 
  571.886,892.938 571.886,838.798 606.265,838.798 606.265,920.008 640.645,920.008 640.645,1001.22 675.025,1001.22 675.025,1082.43 709.405,1082.43 709.405,1109.5 
  743.784,1109.5 743.784,1163.64 778.164,1163.64 778.164,1231.31 812.544,1231.31 812.544,1326.06 846.923,1326.06 846.923,1339.59 881.303,1339.59 881.303,1393.73 
  915.683,1393.73 915.683,1434.34 950.063,1434.34 950.063,1420.8 984.442,1420.8 1018.82,1420.8 1018.82,1434.34 1053.2,1434.34 1053.2,1407.27 
  1087.58,1407.27 1087.58,1420.8 1121.96,1420.8 1121.96,1380.2 1156.34,1380.2 1156.34,1420.8 1190.72,1420.8 1190.72,1353.13 1225.1,1353.13 1225.1,1271.92 
  1259.48,1271.92 1259.48,1217.78 1293.86,1217.78 1293.86,1231.31 1328.24,1231.31 1328.24,1014.75 1362.62,1014.75 1362.62,960.613 1397,960.613 1397,865.868 
  1431.38,865.868 1431.38,825.263 1465.76,825.263 1465.76,513.957 1500.14,513.957 1500.14,486.887 1534.52,486.887 1534.52,405.677 1568.9,405.677 1568.9,554.562 
  1603.28,554.562 1603.28,162.047 1637.66,162.047 1637.66,432.747 1672.04,432.747 1672.04,689.912 1706.42,689.912 1706.42,527.492 1740.8,527.492 1740.8,744.052 
  1775.18,744.052 1775.18,1014.75 1809.56,1014.75 1809.56,960.613 1843.94,960.613 1843.94,1028.29 1878.32,1028.29 1878.32,1231.31 1912.7,1231.31 1912.7,1217.78 
  1947.08,1217.78 1947.08,1353.13 1981.45,1353.13 1981.45,1366.66 2015.83,1366.66 2015.83,1393.73 2050.21,1393.73 2050.21,1434.34 2084.59,1434.34 2084.59,1447.87 
  2118.97,1447.87 2118.97,1434.34 2153.35,1434.34 2153.35,1447.87 2187.73,1447.87 2187.73,1434.34 2222.11,1434.34 2222.11,1447.87 2256.49,1447.87 
  2290.87,1447.87 
  "/>
<path clip-path="url(#clip200)" d="
M1944.76 327.952 L2280.76 327.952 L2280.76 206.992 L1944.76 206.992  Z
  " fill="#ffffff" fill-rule="evenodd" fill-opacity="1"/>
<polyline clip-path="url(#clip200)" style="stroke:#000000; stroke-width:4; stroke-opacity:1; fill:none" points="
  1944.76,327.952 2280.76,327.952 2280.76,206.992 1944.76,206.992 1944.76,327.952 
  "/>
<polyline clip-path="url(#clip200)" style="stroke:#009af9; stroke-width:4; stroke-opacity:1; fill:none" points="
  1968.76,267.472 2112.76,267.472 
  "/>
<path clip-path="url(#clip200)" d="M 0 0 M2141.44 254.035 L2141.44 280.91 L2147.09 280.91 Q2154.24 280.91 2157.55 277.669 Q2160.88 274.428 2160.88 267.437 Q2160.88 260.493 2157.55 257.275 Q2154.24 254.035 2147.09 254.035 L2141.44 254.035 M2136.76 250.192 L2146.37 250.192 Q2156.41 250.192 2161.11 254.382 Q2165.81 258.549 2165.81 267.437 Q2165.81 276.373 2161.09 280.562 Q2156.37 284.752 2146.37 284.752 L2136.76 284.752 L2136.76 250.192 Z" fill="#000000" fill-rule="evenodd" fill-opacity="1" /><path clip-path="url(#clip200)" d="M 0 0 M2182.06 271.72 Q2176.9 271.72 2174.91 272.9 Q2172.92 274.081 2172.92 276.928 Q2172.92 279.197 2174.4 280.539 Q2175.9 281.859 2178.47 281.859 Q2182.02 281.859 2184.15 279.359 Q2186.3 276.836 2186.3 272.669 L2186.3 271.72 L2182.06 271.72 M2190.56 269.961 L2190.56 284.752 L2186.3 284.752 L2186.3 280.817 Q2184.84 283.178 2182.66 284.312 Q2180.49 285.423 2177.34 285.423 Q2173.36 285.423 2171 283.201 Q2168.66 280.956 2168.66 277.206 Q2168.66 272.831 2171.58 270.609 Q2174.52 268.386 2180.33 268.386 L2186.3 268.386 L2186.3 267.97 Q2186.3 265.03 2184.35 263.433 Q2182.43 261.812 2178.94 261.812 Q2176.71 261.812 2174.61 262.345 Q2172.5 262.877 2170.56 263.942 L2170.56 260.007 Q2172.9 259.104 2175.09 258.664 Q2177.29 258.201 2179.38 258.201 Q2185 258.201 2187.78 261.118 Q2190.56 264.035 2190.56 269.961 Z" fill="#000000" fill-rule="evenodd" fill-opacity="1" /><path clip-path="url(#clip200)" d="M 0 0 M2199.24 251.465 L2199.24 258.826 L2208.01 258.826 L2208.01 262.137 L2199.24 262.137 L2199.24 276.211 Q2199.24 279.382 2200.09 280.285 Q2200.97 281.187 2203.64 281.187 L2208.01 281.187 L2208.01 284.752 L2203.64 284.752 Q2198.71 284.752 2196.83 282.923 Q2194.96 281.072 2194.96 276.211 L2194.96 262.137 L2191.83 262.137 L2191.83 258.826 L2194.96 258.826 L2194.96 251.465 L2199.24 251.465 Z" fill="#000000" fill-rule="evenodd" fill-opacity="1" /><path clip-path="url(#clip200)" d="M 0 0 M2224.26 271.72 Q2219.1 271.72 2217.11 272.9 Q2215.12 274.081 2215.12 276.928 Q2215.12 279.197 2216.6 280.539 Q2218.1 281.859 2220.67 281.859 Q2224.21 281.859 2226.34 279.359 Q2228.5 276.836 2228.5 272.669 L2228.5 271.72 L2224.26 271.72 M2232.76 269.961 L2232.76 284.752 L2228.5 284.752 L2228.5 280.817 Q2227.04 283.178 2224.86 284.312 Q2222.69 285.423 2219.54 285.423 Q2215.56 285.423 2213.2 283.201 Q2210.86 280.956 2210.86 277.206 Q2210.86 272.831 2213.77 270.609 Q2216.71 268.386 2222.52 268.386 L2228.5 268.386 L2228.5 267.97 Q2228.5 265.03 2226.55 263.433 Q2224.63 261.812 2221.14 261.812 Q2218.91 261.812 2216.81 262.345 Q2214.7 262.877 2212.76 263.942 L2212.76 260.007 Q2215.09 259.104 2217.29 258.664 Q2219.49 258.201 2221.58 258.201 Q2227.2 258.201 2229.98 261.118 Q2232.76 264.035 2232.76 269.961 Z" fill="#000000" fill-rule="evenodd" fill-opacity="1" /></svg>
