<?xml version="1.0" encoding="utf-8"?>
<svg xmlns="http://www.w3.org/2000/svg" xmlns:xlink="http://www.w3.org/1999/xlink" width="600" height="400" viewBox="0 0 2400 1600">
<defs>
  <clipPath id="clip910">
    <rect x="0" y="0" width="2400" height="1600"/>
  </clipPath>
</defs>
<path clip-path="url(#clip910)" d="
M0 1600 L2400 1600 L2400 0 L0 0  Z
  " fill="#ffffff" fill-rule="evenodd" fill-opacity="1"/>
<defs>
  <clipPath id="clip911">
    <rect x="480" y="0" width="1681" height="1600"/>
  </clipPath>
</defs>
<path clip-path="url(#clip910)" d="
M166.205 1486.45 L2352.76 1486.45 L2352.76 123.472 L166.205 123.472  Z
  " fill="#ffffff" fill-rule="evenodd" fill-opacity="1"/>
<defs>
  <clipPath id="clip912">
    <rect x="166" y="123" width="2188" height="1364"/>
  </clipPath>
</defs>
<polyline clip-path="url(#clip912)" style="stroke:#000000; stroke-width:2; stroke-opacity:0.1; fill:none" points="
  228.088,1486.45 228.088,123.472 
  "/>
<polyline clip-path="url(#clip912)" style="stroke:#000000; stroke-width:2; stroke-opacity:0.1; fill:none" points="
  743.784,1486.45 743.784,123.472 
  "/>
<polyline clip-path="url(#clip912)" style="stroke:#000000; stroke-width:2; stroke-opacity:0.1; fill:none" points="
  1259.48,1486.45 1259.48,123.472 
  "/>
<polyline clip-path="url(#clip912)" style="stroke:#000000; stroke-width:2; stroke-opacity:0.1; fill:none" points="
  1775.18,1486.45 1775.18,123.472 
  "/>
<polyline clip-path="url(#clip912)" style="stroke:#000000; stroke-width:2; stroke-opacity:0.1; fill:none" points="
  2290.87,1486.45 2290.87,123.472 
  "/>
<polyline clip-path="url(#clip910)" style="stroke:#000000; stroke-width:4; stroke-opacity:1; fill:none" points="
  166.205,1486.45 2352.76,1486.45 
  "/>
<polyline clip-path="url(#clip910)" style="stroke:#000000; stroke-width:4; stroke-opacity:1; fill:none" points="
  228.088,1486.45 228.088,1470.09 
  "/>
<polyline clip-path="url(#clip910)" style="stroke:#000000; stroke-width:4; stroke-opacity:1; fill:none" points="
  743.784,1486.45 743.784,1470.09 
  "/>
<polyline clip-path="url(#clip910)" style="stroke:#000000; stroke-width:4; stroke-opacity:1; fill:none" points="
  1259.48,1486.45 1259.48,1470.09 
  "/>
<polyline clip-path="url(#clip910)" style="stroke:#000000; stroke-width:4; stroke-opacity:1; fill:none" points="
  1775.18,1486.45 1775.18,1470.09 
  "/>
<polyline clip-path="url(#clip910)" style="stroke:#000000; stroke-width:4; stroke-opacity:1; fill:none" points="
  2290.87,1486.45 2290.87,1470.09 
  "/>
<path clip-path="url(#clip910)" d="M 0 0 M199.5 1530.29 L229.176 1530.29 L229.176 1534.23 L199.5 1534.23 L199.5 1530.29 Z" fill="#000000" fill-rule="evenodd" fill-opacity="1" /><path clip-path="url(#clip910)" d="M 0 0 M247.093 1516.63 L235.287 1535.08 L247.093 1535.08 L247.093 1516.63 M245.866 1512.56 L251.745 1512.56 L251.745 1535.08 L256.676 1535.08 L256.676 1538.97 L251.745 1538.97 L251.745 1547.12 L247.093 1547.12 L247.093 1538.97 L231.491 1538.97 L231.491 1534.46 L245.866 1512.56 Z" fill="#000000" fill-rule="evenodd" fill-opacity="1" /><path clip-path="url(#clip910)" d="M 0 0 M716.238 1530.29 L745.914 1530.29 L745.914 1534.23 L716.238 1534.23 L716.238 1530.29 Z" fill="#000000" fill-rule="evenodd" fill-opacity="1" /><path clip-path="url(#clip910)" d="M 0 0 M755.011 1543.18 L771.33 1543.18 L771.33 1547.12 L749.386 1547.12 L749.386 1543.18 Q752.048 1540.43 756.631 1535.8 Q761.238 1531.15 762.418 1529.81 Q764.664 1527.28 765.543 1525.55 Q766.446 1523.79 766.446 1522.1 Q766.446 1519.34 764.502 1517.61 Q762.58 1515.87 759.479 1515.87 Q757.28 1515.87 754.826 1516.63 Q752.395 1517.4 749.618 1518.95 L749.618 1514.23 Q752.442 1513.09 754.895 1512.51 Q757.349 1511.93 759.386 1511.93 Q764.756 1511.93 767.951 1514.62 Q771.145 1517.31 771.145 1521.8 Q771.145 1523.93 770.335 1525.85 Q769.548 1527.74 767.442 1530.34 Q766.863 1531.01 763.761 1534.23 Q760.659 1537.42 755.011 1543.18 Z" fill="#000000" fill-rule="evenodd" fill-opacity="1" /><path clip-path="url(#clip910)" d="M 0 0 M1259.48 1515.64 Q1255.87 1515.64 1254.04 1519.2 Q1252.23 1522.75 1252.23 1529.87 Q1252.23 1536.98 1254.04 1540.55 Q1255.87 1544.09 1259.48 1544.09 Q1263.11 1544.09 1264.92 1540.55 Q1266.75 1536.98 1266.75 1529.87 Q1266.75 1522.75 1264.92 1519.2 Q1263.11 1515.64 1259.48 1515.64 M1259.48 1511.93 Q1265.29 1511.93 1268.35 1516.54 Q1271.42 1521.12 1271.42 1529.87 Q1271.42 1538.6 1268.35 1543.21 Q1265.29 1547.79 1259.48 1547.79 Q1253.67 1547.79 1250.59 1543.21 Q1247.54 1538.6 1247.54 1529.87 Q1247.54 1521.12 1250.59 1516.54 Q1253.67 1511.93 1259.48 1511.93 Z" fill="#000000" fill-rule="evenodd" fill-opacity="1" /><path clip-path="url(#clip910)" d="M 0 0 M1769.83 1543.18 L1786.15 1543.18 L1786.15 1547.12 L1764.2 1547.12 L1764.2 1543.18 Q1766.87 1540.43 1771.45 1535.8 Q1776.06 1531.15 1777.24 1529.81 Q1779.48 1527.28 1780.36 1525.55 Q1781.26 1523.79 1781.26 1522.1 Q1781.26 1519.34 1779.32 1517.61 Q1777.4 1515.87 1774.3 1515.87 Q1772.1 1515.87 1769.64 1516.63 Q1767.21 1517.4 1764.44 1518.95 L1764.44 1514.23 Q1767.26 1513.09 1769.71 1512.51 Q1772.17 1511.93 1774.2 1511.93 Q1779.57 1511.93 1782.77 1514.62 Q1785.96 1517.31 1785.96 1521.8 Q1785.96 1523.93 1785.15 1525.85 Q1784.37 1527.74 1782.26 1530.34 Q1781.68 1531.01 1778.58 1534.23 Q1775.48 1537.42 1769.83 1543.18 Z" fill="#000000" fill-rule="evenodd" fill-opacity="1" /><path clip-path="url(#clip910)" d="M 0 0 M2293.88 1516.63 L2282.08 1535.08 L2293.88 1535.08 L2293.88 1516.63 M2292.65 1512.56 L2298.53 1512.56 L2298.53 1535.08 L2303.46 1535.08 L2303.46 1538.97 L2298.53 1538.97 L2298.53 1547.12 L2293.88 1547.12 L2293.88 1538.97 L2278.28 1538.97 L2278.28 1534.46 L2292.65 1512.56 Z" fill="#000000" fill-rule="evenodd" fill-opacity="1" /><polyline clip-path="url(#clip912)" style="stroke:#000000; stroke-width:2; stroke-opacity:0.1; fill:none" points="
  166.205,1447.87 2352.76,1447.87 
  "/>
<polyline clip-path="url(#clip912)" style="stroke:#000000; stroke-width:2; stroke-opacity:0.1; fill:none" points="
  166.205,1134.26 2352.76,1134.26 
  "/>
<polyline clip-path="url(#clip912)" style="stroke:#000000; stroke-width:2; stroke-opacity:0.1; fill:none" points="
  166.205,820.641 2352.76,820.641 
  "/>
<polyline clip-path="url(#clip912)" style="stroke:#000000; stroke-width:2; stroke-opacity:0.1; fill:none" points="
  166.205,507.025 2352.76,507.025 
  "/>
<polyline clip-path="url(#clip912)" style="stroke:#000000; stroke-width:2; stroke-opacity:0.1; fill:none" points="
  166.205,193.409 2352.76,193.409 
  "/>
<polyline clip-path="url(#clip910)" style="stroke:#000000; stroke-width:4; stroke-opacity:1; fill:none" points="
  166.205,1486.45 166.205,123.472 
  "/>
<polyline clip-path="url(#clip910)" style="stroke:#000000; stroke-width:4; stroke-opacity:1; fill:none" points="
  166.205,1447.87 192.443,1447.87 
  "/>
<polyline clip-path="url(#clip910)" style="stroke:#000000; stroke-width:4; stroke-opacity:1; fill:none" points="
  166.205,1134.26 192.443,1134.26 
  "/>
<polyline clip-path="url(#clip910)" style="stroke:#000000; stroke-width:4; stroke-opacity:1; fill:none" points="
  166.205,820.641 192.443,820.641 
  "/>
<polyline clip-path="url(#clip910)" style="stroke:#000000; stroke-width:4; stroke-opacity:1; fill:none" points="
  166.205,507.025 192.443,507.025 
  "/>
<polyline clip-path="url(#clip910)" style="stroke:#000000; stroke-width:4; stroke-opacity:1; fill:none" points="
  166.205,193.409 192.443,193.409 
  "/>
<path clip-path="url(#clip910)" d="M 0 0 M118.26 1433.67 Q114.649 1433.67 112.82 1437.24 Q111.015 1440.78 111.015 1447.91 Q111.015 1455.01 112.82 1458.58 Q114.649 1462.12 118.26 1462.12 Q121.895 1462.12 123.7 1458.58 Q125.529 1455.01 125.529 1447.91 Q125.529 1440.78 123.7 1437.24 Q121.895 1433.67 118.26 1433.67 M118.26 1429.97 Q124.07 1429.97 127.126 1434.57 Q130.205 1439.16 130.205 1447.91 Q130.205 1456.63 127.126 1461.24 Q124.07 1465.82 118.26 1465.82 Q112.45 1465.82 109.371 1461.24 Q106.316 1456.63 106.316 1447.91 Q106.316 1439.16 109.371 1434.57 Q112.45 1429.97 118.26 1429.97 Z" fill="#000000" fill-rule="evenodd" fill-opacity="1" /><path clip-path="url(#clip910)" d="M 0 0 M59.8578 1147.6 L76.1772 1147.6 L76.1772 1151.54 L54.2328 1151.54 L54.2328 1147.6 Q56.8949 1144.85 61.4782 1140.22 Q66.0846 1135.56 67.2652 1134.22 Q69.5105 1131.7 70.3902 1129.96 Q71.2929 1128.2 71.2929 1126.51 Q71.2929 1123.76 69.3485 1122.02 Q67.4272 1120.29 64.3254 1120.29 Q62.1263 1120.29 59.6726 1121.05 Q57.2421 1121.81 54.4643 1123.37 L54.4643 1118.64 Q57.2884 1117.51 59.7421 1116.93 Q62.1958 1116.35 64.2328 1116.35 Q69.6031 1116.35 72.7976 1119.04 Q75.992 1121.72 75.992 1126.21 Q75.992 1128.34 75.1818 1130.26 Q74.3948 1132.16 72.2883 1134.75 Q71.7096 1135.43 68.6078 1138.64 Q65.5059 1141.84 59.8578 1147.6 Z" fill="#000000" fill-rule="evenodd" fill-opacity="1" /><path clip-path="url(#clip910)" d="M 0 0 M91.2465 1120.06 Q87.6354 1120.06 85.8068 1123.62 Q84.0012 1127.16 84.0012 1134.29 Q84.0012 1141.4 85.8068 1144.96 Q87.6354 1148.5 91.2465 1148.5 Q94.8808 1148.5 96.6863 1144.96 Q98.515 1141.4 98.515 1134.29 Q98.515 1127.16 96.6863 1123.62 Q94.8808 1120.06 91.2465 1120.06 M91.2465 1116.35 Q97.0567 1116.35 100.112 1120.96 Q103.191 1125.54 103.191 1134.29 Q103.191 1143.02 100.112 1147.62 Q97.0567 1152.21 91.2465 1152.21 Q85.4364 1152.21 82.3577 1147.62 Q79.3022 1143.02 79.3022 1134.29 Q79.3022 1125.54 82.3577 1120.96 Q85.4364 1116.35 91.2465 1116.35 Z" fill="#000000" fill-rule="evenodd" fill-opacity="1" /><path clip-path="url(#clip910)" d="M 0 0 M118.26 1120.06 Q114.649 1120.06 112.82 1123.62 Q111.015 1127.16 111.015 1134.29 Q111.015 1141.4 112.82 1144.96 Q114.649 1148.5 118.26 1148.5 Q121.895 1148.5 123.7 1144.96 Q125.529 1141.4 125.529 1134.29 Q125.529 1127.16 123.7 1123.62 Q121.895 1120.06 118.26 1120.06 M118.26 1116.35 Q124.07 1116.35 127.126 1120.96 Q130.205 1125.54 130.205 1134.29 Q130.205 1143.02 127.126 1147.62 Q124.07 1152.21 118.26 1152.21 Q112.45 1152.21 109.371 1147.62 Q106.316 1143.02 106.316 1134.29 Q106.316 1125.54 109.371 1120.96 Q112.45 1116.35 118.26 1116.35 Z" fill="#000000" fill-rule="evenodd" fill-opacity="1" /><path clip-path="url(#clip910)" d="M 0 0 M66.5939 807.435 L54.7884 825.884 L66.5939 825.884 L66.5939 807.435 M65.367 803.361 L71.2466 803.361 L71.2466 825.884 L76.1772 825.884 L76.1772 829.773 L71.2466 829.773 L71.2466 837.921 L66.5939 837.921 L66.5939 829.773 L50.9921 829.773 L50.9921 825.259 L65.367 803.361 Z" fill="#000000" fill-rule="evenodd" fill-opacity="1" /><path clip-path="url(#clip910)" d="M 0 0 M91.2465 806.439 Q87.6354 806.439 85.8068 810.004 Q84.0012 813.546 84.0012 820.676 Q84.0012 827.782 85.8068 831.347 Q87.6354 834.888 91.2465 834.888 Q94.8808 834.888 96.6863 831.347 Q98.515 827.782 98.515 820.676 Q98.515 813.546 96.6863 810.004 Q94.8808 806.439 91.2465 806.439 M91.2465 802.736 Q97.0567 802.736 100.112 807.342 Q103.191 811.926 103.191 820.676 Q103.191 829.402 100.112 834.009 Q97.0567 838.592 91.2465 838.592 Q85.4364 838.592 82.3577 834.009 Q79.3022 829.402 79.3022 820.676 Q79.3022 811.926 82.3577 807.342 Q85.4364 802.736 91.2465 802.736 Z" fill="#000000" fill-rule="evenodd" fill-opacity="1" /><path clip-path="url(#clip910)" d="M 0 0 M118.26 806.439 Q114.649 806.439 112.82 810.004 Q111.015 813.546 111.015 820.676 Q111.015 827.782 112.82 831.347 Q114.649 834.888 118.26 834.888 Q121.895 834.888 123.7 831.347 Q125.529 827.782 125.529 820.676 Q125.529 813.546 123.7 810.004 Q121.895 806.439 118.26 806.439 M118.26 802.736 Q124.07 802.736 127.126 807.342 Q130.205 811.926 130.205 820.676 Q130.205 829.402 127.126 834.009 Q124.07 838.592 118.26 838.592 Q112.45 838.592 109.371 834.009 Q106.316 829.402 106.316 820.676 Q106.316 811.926 109.371 807.342 Q112.45 802.736 118.26 802.736 Z" fill="#000000" fill-rule="evenodd" fill-opacity="1" /><path clip-path="url(#clip910)" d="M 0 0 M64.6495 505.161 Q61.5013 505.161 59.6495 507.314 Q57.8208 509.467 57.8208 513.217 Q57.8208 516.944 59.6495 519.12 Q61.5013 521.272 64.6495 521.272 Q67.7976 521.272 69.6263 519.12 Q71.4781 516.944 71.4781 513.217 Q71.4781 509.467 69.6263 507.314 Q67.7976 505.161 64.6495 505.161 M73.9318 490.509 L73.9318 494.768 Q72.1726 493.934 70.367 493.495 Q68.5846 493.055 66.8254 493.055 Q62.1958 493.055 59.7421 496.18 Q57.3115 499.305 56.9643 505.624 Q58.33 503.61 60.3902 502.546 Q62.4504 501.458 64.9272 501.458 Q70.1355 501.458 73.1448 504.629 Q76.1772 507.777 76.1772 513.217 Q76.1772 518.541 73.029 521.758 Q69.8809 524.976 64.6495 524.976 Q58.6541 524.976 55.4828 520.393 Q52.3116 515.786 52.3116 507.059 Q52.3116 498.865 56.2004 494.004 Q60.0893 489.12 66.6402 489.12 Q68.3994 489.12 70.1818 489.467 Q71.9874 489.814 73.9318 490.509 Z" fill="#000000" fill-rule="evenodd" fill-opacity="1" /><path clip-path="url(#clip910)" d="M 0 0 M91.2465 492.823 Q87.6354 492.823 85.8068 496.388 Q84.0012 499.93 84.0012 507.059 Q84.0012 514.166 85.8068 517.731 Q87.6354 521.272 91.2465 521.272 Q94.8808 521.272 96.6863 517.731 Q98.515 514.166 98.515 507.059 Q98.515 499.93 96.6863 496.388 Q94.8808 492.823 91.2465 492.823 M91.2465 489.12 Q97.0567 489.12 100.112 493.726 Q103.191 498.309 103.191 507.059 Q103.191 515.786 100.112 520.393 Q97.0567 524.976 91.2465 524.976 Q85.4364 524.976 82.3577 520.393 Q79.3022 515.786 79.3022 507.059 Q79.3022 498.309 82.3577 493.726 Q85.4364 489.12 91.2465 489.12 Z" fill="#000000" fill-rule="evenodd" fill-opacity="1" /><path clip-path="url(#clip910)" d="M 0 0 M118.26 492.823 Q114.649 492.823 112.82 496.388 Q111.015 499.93 111.015 507.059 Q111.015 514.166 112.82 517.731 Q114.649 521.272 118.26 521.272 Q121.895 521.272 123.7 517.731 Q125.529 514.166 125.529 507.059 Q125.529 499.93 123.7 496.388 Q121.895 492.823 118.26 492.823 M118.26 489.12 Q124.07 489.12 127.126 493.726 Q130.205 498.309 130.205 507.059 Q130.205 515.786 127.126 520.393 Q124.07 524.976 118.26 524.976 Q112.45 524.976 109.371 520.393 Q106.316 515.786 106.316 507.059 Q106.316 498.309 109.371 493.726 Q112.45 489.12 118.26 489.12 Z" fill="#000000" fill-rule="evenodd" fill-opacity="1" /><path clip-path="url(#clip910)" d="M 0 0 M64.3254 194.277 Q60.9921 194.277 59.0708 196.059 Q57.1726 197.841 57.1726 200.966 Q57.1726 204.091 59.0708 205.874 Q60.9921 207.656 64.3254 207.656 Q67.6587 207.656 69.58 205.874 Q71.5013 204.068 71.5013 200.966 Q71.5013 197.841 69.58 196.059 Q67.6819 194.277 64.3254 194.277 M59.6495 192.286 Q56.6402 191.545 54.9504 189.485 Q53.2838 187.425 53.2838 184.462 Q53.2838 180.318 56.2236 177.911 Q59.1865 175.504 64.3254 175.504 Q69.4874 175.504 72.4272 177.911 Q75.367 180.318 75.367 184.462 Q75.367 187.425 73.6772 189.485 Q72.0105 191.545 69.0244 192.286 Q72.404 193.073 74.279 195.365 Q76.1772 197.656 76.1772 200.966 Q76.1772 205.989 73.0985 208.675 Q70.0429 211.36 64.3254 211.36 Q58.6078 211.36 55.5291 208.675 Q52.4736 205.989 52.4736 200.966 Q52.4736 197.656 54.3717 195.365 Q56.2699 193.073 59.6495 192.286 M57.9365 184.902 Q57.9365 187.587 59.6032 189.091 Q61.293 190.596 64.3254 190.596 Q67.3346 190.596 69.0244 189.091 Q70.7374 187.587 70.7374 184.902 Q70.7374 182.216 69.0244 180.712 Q67.3346 179.207 64.3254 179.207 Q61.293 179.207 59.6032 180.712 Q57.9365 182.216 57.9365 184.902 Z" fill="#000000" fill-rule="evenodd" fill-opacity="1" /><path clip-path="url(#clip910)" d="M 0 0 M91.2465 179.207 Q87.6354 179.207 85.8068 182.772 Q84.0012 186.314 84.0012 193.443 Q84.0012 200.55 85.8068 204.114 Q87.6354 207.656 91.2465 207.656 Q94.8808 207.656 96.6863 204.114 Q98.515 200.55 98.515 193.443 Q98.515 186.314 96.6863 182.772 Q94.8808 179.207 91.2465 179.207 M91.2465 175.504 Q97.0567 175.504 100.112 180.11 Q103.191 184.693 103.191 193.443 Q103.191 202.17 100.112 206.777 Q97.0567 211.36 91.2465 211.36 Q85.4364 211.36 82.3577 206.777 Q79.3022 202.17 79.3022 193.443 Q79.3022 184.693 82.3577 180.11 Q85.4364 175.504 91.2465 175.504 Z" fill="#000000" fill-rule="evenodd" fill-opacity="1" /><path clip-path="url(#clip910)" d="M 0 0 M118.26 179.207 Q114.649 179.207 112.82 182.772 Q111.015 186.314 111.015 193.443 Q111.015 200.55 112.82 204.114 Q114.649 207.656 118.26 207.656 Q121.895 207.656 123.7 204.114 Q125.529 200.55 125.529 193.443 Q125.529 186.314 123.7 182.772 Q121.895 179.207 118.26 179.207 M118.26 175.504 Q124.07 175.504 127.126 180.11 Q130.205 184.693 130.205 193.443 Q130.205 202.17 127.126 206.777 Q124.07 211.36 118.26 211.36 Q112.45 211.36 109.371 206.777 Q106.316 202.17 106.316 193.443 Q106.316 184.693 109.371 180.11 Q112.45 175.504 118.26 175.504 Z" fill="#000000" fill-rule="evenodd" fill-opacity="1" /><path clip-path="url(#clip910)" d="M 0 0 M697.458 18.8205 L697.458 65.8515 L707.342 65.8515 Q719.859 65.8515 725.652 60.1802 Q731.485 54.509 731.485 42.2752 Q731.485 30.1225 725.652 24.4918 Q719.859 18.8205 707.342 18.8205 L697.458 18.8205 M689.275 12.096 L706.086 12.096 Q723.667 12.096 731.891 19.4281 Q740.114 26.7198 740.114 42.2752 Q740.114 57.9117 731.85 65.2439 Q723.586 72.576 706.086 72.576 L689.275 72.576 L689.275 12.096 Z" fill="#000000" fill-rule="evenodd" fill-opacity="1" /><path clip-path="url(#clip910)" d="M 0 0 M768.551 49.7694 Q759.518 49.7694 756.034 51.8354 Q752.55 53.9013 752.55 58.8839 Q752.55 62.8538 755.143 65.2034 Q757.776 67.5124 762.272 67.5124 Q768.47 67.5124 772.197 63.1374 Q775.964 58.7219 775.964 51.4303 L775.964 49.7694 L768.551 49.7694 M783.418 46.6907 L783.418 72.576 L775.964 72.576 L775.964 65.6895 Q773.412 69.8214 769.604 71.8063 Q765.797 73.7508 760.287 73.7508 Q753.32 73.7508 749.188 69.8619 Q745.096 65.9325 745.096 59.3701 Q745.096 51.7138 750.201 47.825 Q755.345 43.9361 765.513 43.9361 L775.964 43.9361 L775.964 43.2069 Q775.964 38.0623 772.562 35.2672 Q769.199 32.4315 763.082 32.4315 Q759.194 32.4315 755.507 33.3632 Q751.821 34.295 748.418 36.1584 L748.418 29.2718 Q752.51 27.692 756.358 26.9223 Q760.206 26.1121 763.852 26.1121 Q773.696 26.1121 778.557 31.2163 Q783.418 36.3204 783.418 46.6907 Z" fill="#000000" fill-rule="evenodd" fill-opacity="1" /><path clip-path="url(#clip910)" d="M 0 0 M798.609 14.324 L798.609 27.2059 L813.962 27.2059 L813.962 32.9987 L798.609 32.9987 L798.609 57.6282 Q798.609 63.1779 800.108 64.7578 Q801.647 66.3376 806.306 66.3376 L813.962 66.3376 L813.962 72.576 L806.306 72.576 Q797.677 72.576 794.396 69.3758 Q791.115 66.1351 791.115 57.6282 L791.115 32.9987 L785.646 32.9987 L785.646 27.2059 L791.115 27.2059 L791.115 14.324 L798.609 14.324 Z" fill="#000000" fill-rule="evenodd" fill-opacity="1" /><path clip-path="url(#clip910)" d="M 0 0 M842.399 49.7694 Q833.366 49.7694 829.882 51.8354 Q826.398 53.9013 826.398 58.8839 Q826.398 62.8538 828.991 65.2034 Q831.624 67.5124 836.12 67.5124 Q842.318 67.5124 846.045 63.1374 Q849.812 58.7219 849.812 51.4303 L849.812 49.7694 L842.399 49.7694 M857.266 46.6907 L857.266 72.576 L849.812 72.576 L849.812 65.6895 Q847.26 69.8214 843.452 71.8063 Q839.645 73.7508 834.135 73.7508 Q827.168 73.7508 823.036 69.8619 Q818.944 65.9325 818.944 59.3701 Q818.944 51.7138 824.049 47.825 Q829.193 43.9361 839.361 43.9361 L849.812 43.9361 L849.812 43.2069 Q849.812 38.0623 846.41 35.2672 Q843.047 32.4315 836.93 32.4315 Q833.042 32.4315 829.355 33.3632 Q825.669 34.295 822.266 36.1584 L822.266 29.2718 Q826.358 27.692 830.206 26.9223 Q834.054 26.1121 837.7 26.1121 Q847.544 26.1121 852.405 31.2163 Q857.266 36.3204 857.266 46.6907 Z" fill="#000000" fill-rule="evenodd" fill-opacity="1" /><path clip-path="url(#clip910)" d="M 0 0 M912.075 49.7694 Q903.041 49.7694 899.557 51.8354 Q896.074 53.9013 896.074 58.8839 Q896.074 62.8538 898.666 65.2034 Q901.299 67.5124 905.796 67.5124 Q911.994 67.5124 915.721 63.1374 Q919.488 58.7219 919.488 51.4303 L919.488 49.7694 L912.075 49.7694 M926.942 46.6907 L926.942 72.576 L919.488 72.576 L919.488 65.6895 Q916.936 69.8214 913.128 71.8063 Q909.32 73.7508 903.811 73.7508 Q896.843 73.7508 892.711 69.8619 Q888.62 65.9325 888.62 59.3701 Q888.62 51.7138 893.724 47.825 Q898.869 43.9361 909.037 43.9361 L919.488 43.9361 L919.488 43.2069 Q919.488 38.0623 916.085 35.2672 Q912.723 32.4315 906.606 32.4315 Q902.717 32.4315 899.031 33.3632 Q895.345 34.295 891.942 36.1584 L891.942 29.2718 Q896.033 27.692 899.882 26.9223 Q903.73 26.1121 907.376 26.1121 Q917.219 26.1121 922.08 31.2163 Q926.942 36.3204 926.942 46.6907 Z" fill="#000000" fill-rule="evenodd" fill-opacity="1" /><path clip-path="url(#clip910)" d="M 0 0 M972.474 45.1919 L972.474 72.576 L965.02 72.576 L965.02 45.4349 Q965.02 38.994 962.508 35.7938 Q959.997 32.5936 954.974 32.5936 Q948.938 32.5936 945.454 36.4419 Q941.97 40.2903 941.97 46.9338 L941.97 72.576 L934.476 72.576 L934.476 27.2059 L941.97 27.2059 L941.97 34.2544 Q944.644 30.163 948.249 28.1376 Q951.895 26.1121 956.635 26.1121 Q964.453 26.1121 968.463 30.9732 Q972.474 35.7938 972.474 45.1919 Z" fill="#000000" fill-rule="evenodd" fill-opacity="1" /><path clip-path="url(#clip910)" d="M 0 0 M1010.15 34.0924 L1010.15 9.54393 L1017.6 9.54393 L1017.6 72.576 L1010.15 72.576 L1010.15 65.7705 Q1007.8 69.8214 1004.19 71.8063 Q1000.63 73.7508 995.604 73.7508 Q987.381 73.7508 982.196 67.1883 Q977.051 60.6258 977.051 49.9314 Q977.051 39.2371 982.196 32.6746 Q987.381 26.1121 995.604 26.1121 Q1000.63 26.1121 1004.19 28.0971 Q1007.8 30.0415 1010.15 34.0924 M984.748 49.9314 Q984.748 58.1548 988.11 62.8538 Q991.513 67.5124 997.427 67.5124 Q1003.34 67.5124 1006.74 62.8538 Q1010.15 58.1548 1010.15 49.9314 Q1010.15 41.7081 1006.74 37.0496 Q1003.34 32.3505 997.427 32.3505 Q991.513 32.3505 988.11 37.0496 Q984.748 41.7081 984.748 49.9314 Z" fill="#000000" fill-rule="evenodd" fill-opacity="1" /><path clip-path="url(#clip910)" d="M 0 0 M1043.73 12.096 L1094.89 12.096 L1094.89 18.9825 L1073.42 18.9825 L1073.42 72.576 L1065.2 72.576 L1065.2 18.9825 L1043.73 18.9825 L1043.73 12.096 Z" fill="#000000" fill-rule="evenodd" fill-opacity="1" /><path clip-path="url(#clip910)" d="M 0 0 M1116.81 34.1734 Q1115.55 33.4443 1114.05 33.1202 Q1112.59 32.7556 1110.81 32.7556 Q1104.49 32.7556 1101.09 36.8875 Q1097.73 40.9789 1097.73 48.6757 L1097.73 72.576 L1090.23 72.576 L1090.23 27.2059 L1097.73 27.2059 L1097.73 34.2544 Q1100.08 30.1225 1103.84 28.1376 Q1107.61 26.1121 1113 26.1121 Q1113.77 26.1121 1114.7 26.2337 Q1115.63 26.3147 1116.77 26.5172 L1116.81 34.1734 Z" fill="#000000" fill-rule="evenodd" fill-opacity="1" /><path clip-path="url(#clip910)" d="M 0 0 M1123.86 54.671 L1123.86 27.2059 L1131.31 27.2059 L1131.31 54.3874 Q1131.31 60.8284 1133.82 64.0691 Q1136.33 67.2693 1141.36 67.2693 Q1147.39 67.2693 1150.88 63.421 Q1154.4 59.5726 1154.4 52.9291 L1154.4 27.2059 L1161.85 27.2059 L1161.85 72.576 L1154.4 72.576 L1154.4 65.6084 Q1151.69 69.7404 1148.08 71.7658 Q1144.52 73.7508 1139.78 73.7508 Q1131.96 73.7508 1127.91 68.8897 Q1123.86 64.0286 1123.86 54.671 M1142.61 26.1121 L1142.61 26.1121 Z" fill="#000000" fill-rule="evenodd" fill-opacity="1" /><path clip-path="url(#clip910)" d="M 0 0 M1208.48 48.0275 L1208.48 51.6733 L1174.21 51.6733 Q1174.69 59.3701 1178.83 63.421 Q1183 67.4314 1190.41 67.4314 Q1194.71 67.4314 1198.72 66.3781 Q1202.77 65.3249 1206.74 63.2184 L1206.74 70.267 Q1202.73 71.9684 1198.51 72.8596 Q1194.3 73.7508 1189.97 73.7508 Q1179.11 73.7508 1172.75 67.4314 Q1166.43 61.1119 1166.43 50.3365 Q1166.43 39.1965 1172.43 32.6746 Q1178.46 26.1121 1188.67 26.1121 Q1197.83 26.1121 1203.13 32.0264 Q1208.48 37.9003 1208.48 48.0275 M1201.03 45.84 Q1200.94 39.7232 1197.58 36.0774 Q1194.26 32.4315 1188.75 32.4315 Q1182.51 32.4315 1178.75 35.9558 Q1175.02 39.4801 1174.45 45.8805 L1201.03 45.84 Z" fill="#000000" fill-rule="evenodd" fill-opacity="1" /><path clip-path="url(#clip910)" d="M 0 0 M1279.25 14.0809 L1279.25 22.0612 Q1274.59 19.8332 1270.46 18.7395 Q1266.33 17.6457 1262.48 17.6457 Q1255.79 17.6457 1252.15 20.2383 Q1248.54 22.8309 1248.54 27.611 Q1248.54 31.6214 1250.93 33.6873 Q1253.36 35.7128 1260.09 36.9686 L1265.03 37.9813 Q1274.19 39.7232 1278.52 44.1387 Q1282.89 48.5136 1282.89 55.8863 Q1282.89 64.6767 1276.98 69.2137 Q1271.11 73.7508 1259.72 73.7508 Q1255.43 73.7508 1250.57 72.7785 Q1245.75 71.8063 1240.56 69.9024 L1240.56 61.4765 Q1245.55 64.2716 1250.33 65.6895 Q1255.11 67.1073 1259.72 67.1073 Q1266.73 67.1073 1270.54 64.3527 Q1274.35 61.598 1274.35 56.4939 Q1274.35 52.0379 1271.59 49.5264 Q1268.88 47.0148 1262.64 45.759 L1257.66 44.7868 Q1248.5 42.9639 1244.41 39.075 Q1240.32 35.1862 1240.32 28.2591 Q1240.32 20.2383 1245.95 15.6203 Q1251.62 11.0023 1261.55 11.0023 Q1265.8 11.0023 1270.22 11.7719 Q1274.63 12.5416 1279.25 14.0809 Z" fill="#000000" fill-rule="evenodd" fill-opacity="1" /><path clip-path="url(#clip910)" d="M 0 0 M1298.09 14.324 L1298.09 27.2059 L1313.44 27.2059 L1313.44 32.9987 L1298.09 32.9987 L1298.09 57.6282 Q1298.09 63.1779 1299.58 64.7578 Q1301.12 66.3376 1305.78 66.3376 L1313.44 66.3376 L1313.44 72.576 L1305.78 72.576 Q1297.15 72.576 1293.87 69.3758 Q1290.59 66.1351 1290.59 57.6282 L1290.59 32.9987 L1285.12 32.9987 L1285.12 27.2059 L1290.59 27.2059 L1290.59 14.324 L1298.09 14.324 Z" fill="#000000" fill-rule="evenodd" fill-opacity="1" /><path clip-path="url(#clip910)" d="M 0 0 M1341.88 49.7694 Q1332.84 49.7694 1329.36 51.8354 Q1325.87 53.9013 1325.87 58.8839 Q1325.87 62.8538 1328.47 65.2034 Q1331.1 67.5124 1335.6 67.5124 Q1341.79 67.5124 1345.52 63.1374 Q1349.29 58.7219 1349.29 51.4303 L1349.29 49.7694 L1341.88 49.7694 M1356.74 46.6907 L1356.74 72.576 L1349.29 72.576 L1349.29 65.6895 Q1346.74 69.8214 1342.93 71.8063 Q1339.12 73.7508 1333.61 73.7508 Q1326.64 73.7508 1322.51 69.8619 Q1318.42 65.9325 1318.42 59.3701 Q1318.42 51.7138 1323.53 47.825 Q1328.67 43.9361 1338.84 43.9361 L1349.29 43.9361 L1349.29 43.2069 Q1349.29 38.0623 1345.89 35.2672 Q1342.52 32.4315 1336.41 32.4315 Q1332.52 32.4315 1328.83 33.3632 Q1325.15 34.295 1321.74 36.1584 L1321.74 29.2718 Q1325.83 27.692 1329.68 26.9223 Q1333.53 26.1121 1337.18 26.1121 Q1347.02 26.1121 1351.88 31.2163 Q1356.74 36.3204 1356.74 46.6907 Z" fill="#000000" fill-rule="evenodd" fill-opacity="1" /><path clip-path="url(#clip910)" d="M 0 0 M1371.93 14.324 L1371.93 27.2059 L1387.29 27.2059 L1387.29 32.9987 L1371.93 32.9987 L1371.93 57.6282 Q1371.93 63.1779 1373.43 64.7578 Q1374.97 66.3376 1379.63 66.3376 L1387.29 66.3376 L1387.29 72.576 L1379.63 72.576 Q1371 72.576 1367.72 69.3758 Q1364.44 66.1351 1364.44 57.6282 L1364.44 32.9987 L1358.97 32.9987 L1358.97 27.2059 L1364.44 27.2059 L1364.44 14.324 L1371.93 14.324 Z" fill="#000000" fill-rule="evenodd" fill-opacity="1" /><path clip-path="url(#clip910)" d="M 0 0 M1395.1 27.2059 L1402.56 27.2059 L1402.56 72.576 L1395.1 72.576 L1395.1 27.2059 M1395.1 9.54393 L1402.56 9.54393 L1402.56 18.9825 L1395.1 18.9825 L1395.1 9.54393 Z" fill="#000000" fill-rule="evenodd" fill-opacity="1" /><path clip-path="url(#clip910)" d="M 0 0 M1439.3 28.5427 L1439.3 35.5912 Q1436.14 33.9709 1432.74 33.1607 Q1429.33 32.3505 1425.69 32.3505 Q1420.14 32.3505 1417.34 34.0519 Q1414.59 35.7533 1414.59 39.156 Q1414.59 41.7486 1416.57 43.2475 Q1418.56 44.7058 1424.55 46.0426 L1427.11 46.6097 Q1435.05 48.3111 1438.37 51.4303 Q1441.73 54.509 1441.73 60.0587 Q1441.73 66.3781 1436.71 70.0644 Q1431.72 73.7508 1422.97 73.7508 Q1419.33 73.7508 1415.36 73.0216 Q1411.43 72.3329 1407.05 70.9151 L1407.05 63.2184 Q1411.19 65.3654 1415.2 66.4591 Q1419.21 67.5124 1423.14 67.5124 Q1428.4 67.5124 1431.24 65.73 Q1434.07 63.9071 1434.07 60.6258 Q1434.07 57.5877 1432.01 55.9673 Q1429.98 54.3469 1423.06 52.8481 L1420.46 52.2405 Q1413.54 50.7821 1410.46 47.7845 Q1407.38 44.7463 1407.38 39.4801 Q1407.38 33.0797 1411.92 29.5959 Q1416.45 26.1121 1424.8 26.1121 Q1428.93 26.1121 1432.58 26.7198 Q1436.22 27.3274 1439.3 28.5427 Z" fill="#000000" fill-rule="evenodd" fill-opacity="1" /><path clip-path="url(#clip910)" d="M 0 0 M1456.92 14.324 L1456.92 27.2059 L1472.27 27.2059 L1472.27 32.9987 L1456.92 32.9987 L1456.92 57.6282 Q1456.92 63.1779 1458.42 64.7578 Q1459.96 66.3376 1464.62 66.3376 L1472.27 66.3376 L1472.27 72.576 L1464.62 72.576 Q1455.99 72.576 1452.71 69.3758 Q1449.43 66.1351 1449.43 57.6282 L1449.43 32.9987 L1443.96 32.9987 L1443.96 27.2059 L1449.43 27.2059 L1449.43 14.324 L1456.92 14.324 Z" fill="#000000" fill-rule="evenodd" fill-opacity="1" /><path clip-path="url(#clip910)" d="M 0 0 M1480.09 27.2059 L1487.55 27.2059 L1487.55 72.576 L1480.09 72.576 L1480.09 27.2059 M1480.09 9.54393 L1487.55 9.54393 L1487.55 18.9825 L1480.09 18.9825 L1480.09 9.54393 Z" fill="#000000" fill-rule="evenodd" fill-opacity="1" /><path clip-path="url(#clip910)" d="M 0 0 M1528.01 28.9478 L1528.01 35.9153 Q1524.86 34.1734 1521.65 33.3227 Q1518.5 32.4315 1515.25 32.4315 Q1508 32.4315 1503.99 37.0496 Q1499.98 41.6271 1499.98 49.9314 Q1499.98 58.2358 1503.99 62.8538 Q1508 67.4314 1515.25 67.4314 Q1518.5 67.4314 1521.65 66.5807 Q1524.86 65.6895 1528.01 63.9476 L1528.01 70.8341 Q1524.9 72.2924 1521.53 73.0216 Q1518.21 73.7508 1514.44 73.7508 Q1504.2 73.7508 1498.16 67.3098 Q1492.12 60.8689 1492.12 49.9314 Q1492.12 38.832 1498.2 32.472 Q1504.32 26.1121 1514.93 26.1121 Q1518.37 26.1121 1521.65 26.8413 Q1524.94 27.5299 1528.01 28.9478 Z" fill="#000000" fill-rule="evenodd" fill-opacity="1" /><path clip-path="url(#clip910)" d="M 0 0 M1556.45 49.7694 Q1547.42 49.7694 1543.93 51.8354 Q1540.45 53.9013 1540.45 58.8839 Q1540.45 62.8538 1543.04 65.2034 Q1545.68 67.5124 1550.17 67.5124 Q1556.37 67.5124 1560.1 63.1374 Q1563.87 58.7219 1563.87 51.4303 L1563.87 49.7694 L1556.45 49.7694 M1571.32 46.6907 L1571.32 72.576 L1563.87 72.576 L1563.87 65.6895 Q1561.31 69.8214 1557.51 71.8063 Q1553.7 73.7508 1548.19 73.7508 Q1541.22 73.7508 1537.09 69.8619 Q1533 65.9325 1533 59.3701 Q1533 51.7138 1538.1 47.825 Q1543.25 43.9361 1553.41 43.9361 L1563.87 43.9361 L1563.87 43.2069 Q1563.87 38.0623 1560.46 35.2672 Q1557.1 32.4315 1550.98 32.4315 Q1547.09 32.4315 1543.41 33.3632 Q1539.72 34.295 1536.32 36.1584 L1536.32 29.2718 Q1540.41 27.692 1544.26 26.9223 Q1548.11 26.1121 1551.75 26.1121 Q1561.6 26.1121 1566.46 31.2163 Q1571.32 36.3204 1571.32 46.6907 Z" fill="#000000" fill-rule="evenodd" fill-opacity="1" /><path clip-path="url(#clip910)" d="M 0 0 M1579.14 9.54393 L1586.59 9.54393 L1586.59 72.576 L1579.14 72.576 L1579.14 9.54393 Z" fill="#000000" fill-rule="evenodd" fill-opacity="1" /><path clip-path="url(#clip910)" d="M 0 0 M1621.1 12.096 L1633.3 12.096 L1648.73 53.2532 L1664.25 12.096 L1676.44 12.096 L1676.44 72.576 L1668.46 72.576 L1668.46 19.4686 L1652.86 60.9499 L1644.64 60.9499 L1629.04 19.4686 L1629.04 72.576 L1621.1 72.576 L1621.1 12.096 Z" fill="#000000" fill-rule="evenodd" fill-opacity="1" /><path clip-path="url(#clip910)" d="M 0 0 M1701.84 32.4315 Q1695.84 32.4315 1692.36 37.1306 Q1688.88 41.7891 1688.88 49.9314 Q1688.88 58.0738 1692.32 62.7728 Q1695.8 67.4314 1701.84 67.4314 Q1707.79 67.4314 1711.28 62.7323 Q1714.76 58.0333 1714.76 49.9314 Q1714.76 41.8701 1711.28 37.1711 Q1707.79 32.4315 1701.84 32.4315 M1701.84 26.1121 Q1711.56 26.1121 1717.11 32.4315 Q1722.66 38.7509 1722.66 49.9314 Q1722.66 61.0714 1717.11 67.4314 Q1711.56 73.7508 1701.84 73.7508 Q1692.08 73.7508 1686.53 67.4314 Q1681.02 61.0714 1681.02 49.9314 Q1681.02 38.7509 1686.53 32.4315 Q1692.08 26.1121 1701.84 26.1121 Z" fill="#000000" fill-rule="evenodd" fill-opacity="1" /><path clip-path="url(#clip910)" d="M 0 0 M1760.33 34.0924 L1760.33 9.54393 L1767.79 9.54393 L1767.79 72.576 L1760.33 72.576 L1760.33 65.7705 Q1757.98 69.8214 1754.38 71.8063 Q1750.81 73.7508 1745.79 73.7508 Q1737.57 73.7508 1732.38 67.1883 Q1727.24 60.6258 1727.24 49.9314 Q1727.24 39.2371 1732.38 32.6746 Q1737.57 26.1121 1745.79 26.1121 Q1750.81 26.1121 1754.38 28.0971 Q1757.98 30.0415 1760.33 34.0924 M1734.93 49.9314 Q1734.93 58.1548 1738.3 62.8538 Q1741.7 67.5124 1747.61 67.5124 Q1753.53 67.5124 1756.93 62.8538 Q1760.33 58.1548 1760.33 49.9314 Q1760.33 41.7081 1756.93 37.0496 Q1753.53 32.3505 1747.61 32.3505 Q1741.7 32.3505 1738.3 37.0496 Q1734.93 41.7081 1734.93 49.9314 Z" fill="#000000" fill-rule="evenodd" fill-opacity="1" /><path clip-path="url(#clip910)" d="M 0 0 M1814.41 48.0275 L1814.41 51.6733 L1780.14 51.6733 Q1780.63 59.3701 1784.76 63.421 Q1788.93 67.4314 1796.35 67.4314 Q1800.64 67.4314 1804.65 66.3781 Q1808.7 65.3249 1812.67 63.2184 L1812.67 70.267 Q1808.66 71.9684 1804.45 72.8596 Q1800.24 73.7508 1795.9 73.7508 Q1785.04 73.7508 1778.68 67.4314 Q1772.37 61.1119 1772.37 50.3365 Q1772.37 39.1965 1778.36 32.6746 Q1784.4 26.1121 1794.6 26.1121 Q1803.76 26.1121 1809.07 32.0264 Q1814.41 37.9003 1814.41 48.0275 M1806.96 45.84 Q1806.88 39.7232 1803.52 36.0774 Q1800.19 32.4315 1794.69 32.4315 Q1788.45 32.4315 1784.68 35.9558 Q1780.95 39.4801 1780.39 45.8805 L1806.96 45.84 Z" fill="#000000" fill-rule="evenodd" fill-opacity="1" /><path clip-path="url(#clip910)" d="M 0 0 M1822.23 9.54393 L1829.69 9.54393 L1829.69 72.576 L1822.23 72.576 L1822.23 9.54393 Z" fill="#000000" fill-rule="evenodd" fill-opacity="1" /><polyline clip-path="url(#clip912)" style="stroke:#009af9; stroke-width:4; stroke-opacity:1; fill:none" points="
  743.784,1447.87 743.784,1369.47 769.569,1369.47 769.569,1353.79 795.354,1353.79 795.354,1149.94 821.139,1149.94 821.139,1181.3 846.923,1181.3 846.923,1118.58 
  872.708,1118.58 872.708,1040.17 898.493,1040.17 898.493,930.406 924.278,930.406 924.278,867.683 950.063,867.683 950.063,804.96 975.847,804.96 975.847,836.322 
  1001.63,836.322 1001.63,726.556 1027.42,726.556 1027.42,695.194 1053.2,695.194 1053.2,961.768 1078.99,961.768 1078.99,1055.85 1104.77,1055.85 1104.77,1008.81 
  1130.56,1008.81 1130.56,1149.94 1156.34,1149.94 1182.13,1149.94 1182.13,1244.02 1207.91,1244.02 1207.91,1369.47 1233.7,1369.47 
  1259.48,1369.47 1259.48,1432.19 1285.27,1432.19 1285.27,1369.47 1311.05,1369.47 1311.05,1432.19 1336.83,1432.19 1336.83,1447.87 1362.62,1447.87 
  1388.4,1447.87 1388.4,1432.19 1414.19,1432.19 1414.19,1447.87 1439.97,1447.87 1439.97,1385.15 1465.76,1385.15 1465.76,1338.11 1491.54,1338.11 1491.54,1353.79 
  1517.33,1353.79 1517.33,1306.75 1543.11,1306.75 1543.11,1212.66 1568.9,1212.66 1568.9,1024.49 1594.68,1024.49 1594.68,867.683 1620.47,867.683 1620.47,695.194 
  1646.25,695.194 1646.25,538.386 1672.04,538.386 1672.04,428.621 1697.82,428.621 1697.82,365.897 1723.61,365.897 1723.61,256.132 1749.39,256.132 1749.39,162.047 
  1775.18,162.047 1800.96,162.047 1800.96,256.132 1826.75,256.132 1826.75,507.025 1852.53,507.025 1852.53,428.621 1878.32,428.621 1878.32,804.96 
  1904.1,804.96 1904.1,710.875 1929.89,710.875 1929.89,742.237 1955.67,742.237 1955.67,1008.81 1981.45,1008.81 1981.45,1134.26 2007.24,1134.26 2007.24,1212.66 
  2033.02,1212.66 2033.02,1306.75 2058.81,1306.75 2058.81,1432.19 2084.59,1432.19 2084.59,1400.83 2110.38,1400.83 2110.38,1447.87 2136.16,1447.87 2136.16,1416.51 
  2161.95,1416.51 2161.95,1432.19 2187.73,1432.19 2213.52,1432.19 2213.52,1447.87 2239.3,1447.87 2265.09,1447.87 
  2290.87,1447.87 
  "/>
<polyline clip-path="url(#clip912)" style="stroke:#e26f46; stroke-width:4; stroke-opacity:1; fill:none" points="
  228.088,1447.87 230.667,1447.87 233.245,1447.87 235.824,1447.87 238.402,1447.87 240.981,1447.87 243.559,1447.87 246.138,1447.87 248.716,1447.87 251.295,1447.87 
  253.873,1447.87 256.451,1447.87 259.03,1447.87 261.608,1447.87 264.187,1447.87 266.765,1447.87 269.344,1447.87 271.922,1447.87 274.501,1447.87 277.079,1447.87 
  279.658,1447.87 282.236,1447.87 284.815,1447.87 287.393,1447.87 289.972,1447.87 292.55,1447.87 295.129,1447.87 297.707,1447.87 300.286,1447.87 302.864,1447.87 
  305.443,1447.87 308.021,1447.87 310.6,1447.87 313.178,1447.87 315.757,1447.87 318.335,1447.87 320.913,1447.87 323.492,1447.87 326.07,1447.87 328.649,1447.87 
  331.227,1447.87 333.806,1447.87 336.384,1447.87 338.963,1447.87 341.541,1447.87 344.12,1447.87 346.698,1447.87 349.277,1447.87 351.855,1447.87 354.434,1447.87 
  357.012,1447.87 359.591,1447.87 362.169,1447.87 364.748,1447.87 367.326,1447.87 369.905,1447.87 372.483,1447.87 375.062,1447.87 377.64,1447.87 380.219,1447.87 
  382.797,1447.87 385.375,1447.87 387.954,1447.87 390.532,1447.86 393.111,1447.86 395.689,1447.86 398.268,1447.86 400.846,1447.86 403.425,1447.86 406.003,1447.86 
  408.582,1447.86 411.16,1447.86 413.739,1447.85 416.317,1447.85 418.896,1447.85 421.474,1447.85 424.053,1447.85 426.631,1447.84 429.21,1447.84 431.788,1447.84 
  434.367,1447.83 436.945,1447.83 439.524,1447.83 442.102,1447.82 444.681,1447.82 447.259,1447.81 449.837,1447.81 452.416,1447.8 454.994,1447.8 457.573,1447.79 
  460.151,1447.78 462.73,1447.77 465.308,1447.76 467.887,1447.75 470.465,1447.74 473.044,1447.73 475.622,1447.72 478.201,1447.71 480.779,1447.69 483.358,1447.68 
  485.936,1447.66 488.515,1447.65 491.093,1447.63 493.672,1447.61 496.25,1447.59 498.829,1447.56 501.407,1447.54 503.986,1447.51 506.564,1447.48 509.143,1447.45 
  511.721,1447.42 514.299,1447.38 516.878,1447.34 519.456,1447.3 522.035,1447.25 524.613,1447.21 527.192,1447.16 529.77,1447.1 532.349,1447.04 534.927,1446.98 
  537.506,1446.91 540.084,1446.84 542.663,1446.77 545.241,1446.68 547.82,1446.6 550.398,1446.5 552.977,1446.41 555.555,1446.3 558.134,1446.19 560.712,1446.07 
  563.291,1445.94 565.869,1445.81 568.448,1445.66 571.026,1445.51 573.605,1445.34 576.183,1445.17 578.762,1444.99 581.34,1444.79 583.918,1444.59 586.497,1444.37 
  589.075,1444.13 591.654,1443.89 594.232,1443.63 596.811,1443.35 599.389,1443.06 601.968,1442.75 604.546,1442.42 607.125,1442.08 609.703,1441.71 612.282,1441.33 
  614.86,1440.92 617.439,1440.5 620.017,1440.04 622.596,1439.57 625.174,1439.07 627.753,1438.54 630.331,1437.98 632.91,1437.4 635.488,1436.79 638.067,1436.14 
  640.645,1435.46 643.224,1434.75 645.802,1434 648.38,1433.22 650.959,1432.39 653.537,1431.53 656.116,1430.63 658.694,1429.68 661.273,1428.69 663.851,1427.66 
  666.43,1426.57 669.008,1425.44 671.587,1424.26 674.165,1423.02 676.744,1421.73 679.322,1420.39 681.901,1418.98 684.479,1417.52 687.058,1416 689.636,1414.41 
  692.215,1412.76 694.793,1411.04 697.372,1409.25 699.95,1407.39 702.529,1405.46 705.107,1403.45 707.686,1401.37 710.264,1399.21 712.842,1396.97 715.421,1394.65 
  717.999,1392.25 720.578,1389.76 723.156,1387.18 725.735,1384.51 728.313,1381.75 730.892,1378.9 733.47,1375.96 736.049,1372.92 738.627,1369.78 741.206,1366.55 
  743.784,1363.21 746.363,1359.77 748.941,1356.23 751.52,1352.59 754.098,1348.84 756.677,1344.98 759.255,1341.02 761.834,1336.95 764.412,1332.77 766.991,1328.47 
  769.569,1324.07 772.148,1319.56 774.726,1314.94 777.304,1310.2 779.883,1305.35 782.461,1300.4 785.04,1295.33 787.618,1290.15 790.197,1284.85 792.775,1279.45 
  795.354,1273.94 797.932,1268.32 800.511,1262.59 803.089,1256.76 805.668,1250.82 808.246,1244.78 810.825,1238.64 813.403,1232.39 815.982,1226.05 818.56,1219.62 
  821.139,1213.09 823.717,1206.47 826.296,1199.76 828.874,1192.97 831.453,1186.1 834.031,1179.15 836.61,1172.13 839.188,1165.04 841.766,1157.88 844.345,1150.65 
  846.923,1143.37 849.502,1136.04 852.08,1128.66 854.659,1121.23 857.237,1113.76 859.816,1106.26 862.394,1098.73 864.973,1091.18 867.551,1083.61 870.13,1076.03 
  872.708,1068.44 875.287,1060.86 877.865,1053.27 880.444,1045.71 883.022,1038.16 885.601,1030.63 888.179,1023.14 890.758,1015.68 893.336,1008.27 895.915,1000.91 
  898.493,993.613 901.072,986.379 903.65,979.217 906.228,972.134 908.807,965.137 911.385,958.234 913.964,951.43 916.542,944.733 919.121,938.149 921.699,931.686 
  924.278,925.35 926.856,919.148 929.435,913.086 932.013,907.171 934.592,901.409 937.17,895.806 939.749,890.369 942.327,885.104 944.906,880.016 947.484,875.112 
  950.063,870.396 952.641,865.874 955.22,861.551 957.798,857.432 960.377,853.523 962.955,849.826 965.534,846.347 968.112,843.09 970.69,840.059 973.269,837.257 
  975.847,834.687 978.426,832.352 981.004,830.256 983.583,828.4 986.161,826.787 988.74,825.419 991.318,824.298 993.897,823.424 996.475,822.8 999.054,822.424 
  1001.63,822.299 1004.21,822.424 1006.79,822.8 1009.37,823.424 1011.95,824.298 1014.52,825.419 1017.1,826.787 1019.68,828.4 1022.26,830.256 1024.84,832.352 
  1027.42,834.687 1030,837.256 1032.57,840.059 1035.15,843.09 1037.73,846.347 1040.31,849.826 1042.89,853.523 1045.47,857.432 1048.04,861.551 1050.62,865.874 
  1053.2,870.396 1055.78,875.112 1058.36,880.016 1060.94,885.104 1063.52,890.369 1066.09,895.806 1068.67,901.408 1071.25,907.17 1073.83,913.085 1076.41,919.147 
  1078.99,925.349 1081.57,931.685 1084.14,938.149 1086.72,944.732 1089.3,951.429 1091.88,958.233 1094.46,965.136 1097.04,972.133 1099.61,979.216 1102.19,986.378 
  1104.77,993.612 1107.35,1000.91 1109.93,1008.27 1112.51,1015.68 1115.09,1023.13 1117.66,1030.63 1120.24,1038.15 1122.82,1045.7 1125.4,1053.27 1127.98,1060.85 
  1130.56,1068.44 1133.13,1076.03 1135.71,1083.61 1138.29,1091.18 1140.87,1098.73 1143.45,1106.26 1146.03,1113.76 1148.61,1121.22 1151.18,1128.65 1153.76,1136.03 
  1156.34,1143.36 1158.92,1150.64 1161.5,1157.86 1164.08,1165.02 1166.65,1172.11 1169.23,1179.13 1171.81,1186.08 1174.39,1192.95 1176.97,1199.74 1179.55,1206.44 
  1182.13,1213.06 1184.7,1219.58 1187.28,1226.01 1189.86,1232.35 1192.44,1238.59 1195.02,1244.73 1197.6,1250.77 1200.18,1256.7 1202.75,1262.53 1205.33,1268.25 
  1207.91,1273.86 1210.49,1279.37 1213.07,1284.76 1215.65,1290.04 1218.22,1295.22 1220.8,1300.28 1223.38,1305.22 1225.96,1310.06 1228.54,1314.78 1231.12,1319.39 
  1233.7,1323.89 1236.27,1328.27 1238.85,1332.55 1241.43,1336.71 1244.01,1340.76 1246.59,1344.7 1249.17,1348.53 1251.74,1352.26 1254.32,1355.88 1256.9,1359.39 
  1259.48,1362.79 1262.06,1366.09 1264.64,1369.29 1267.22,1372.39 1269.79,1375.38 1272.37,1378.28 1274.95,1381.08 1277.53,1383.78 1280.11,1386.39 1282.69,1388.91 
  1285.27,1391.33 1287.84,1393.66 1290.42,1395.91 1293,1398.06 1295.58,1400.14 1298.16,1402.12 1300.74,1404.03 1303.31,1405.85 1305.89,1407.59 1308.47,1409.25 
  1311.05,1410.84 1313.63,1412.35 1316.21,1413.78 1318.79,1415.14 1321.36,1416.43 1323.94,1417.65 1326.52,1418.8 1329.1,1419.88 1331.68,1420.89 1334.26,1421.83 
  1336.83,1422.71 1339.41,1423.52 1341.99,1424.27 1344.57,1424.95 1347.15,1425.57 1349.73,1426.13 1352.31,1426.62 1354.88,1427.06 1357.46,1427.43 1360.04,1427.74 
  1362.62,1427.98 1365.2,1428.17 1367.78,1428.29 1370.35,1428.36 1372.93,1428.36 1375.51,1428.29 1378.09,1428.17 1380.67,1427.98 1383.25,1427.73 1385.83,1427.41 
  1388.4,1427.02 1390.98,1426.57 1393.56,1426.06 1396.14,1425.47 1398.72,1424.81 1401.3,1424.08 1403.88,1423.28 1406.45,1422.4 1409.03,1421.45 1411.61,1420.42 
  1414.19,1419.31 1416.77,1418.12 1419.35,1416.84 1421.92,1415.48 1424.5,1414.03 1427.08,1412.49 1429.66,1410.86 1432.24,1409.13 1434.82,1407.3 1437.4,1405.37 
  1439.97,1403.34 1442.55,1401.21 1445.13,1398.96 1447.71,1396.6 1450.29,1394.13 1452.87,1391.53 1455.44,1388.82 1458.02,1385.98 1460.6,1383.01 1463.18,1379.91 
  1465.76,1376.68 1468.34,1373.31 1470.92,1369.8 1473.49,1366.14 1476.07,1362.33 1478.65,1358.37 1481.23,1354.25 1483.81,1349.98 1486.39,1345.54 1488.97,1340.94 
  1491.54,1336.16 1494.12,1331.21 1496.7,1326.09 1499.28,1320.78 1501.86,1315.3 1504.44,1309.62 1507.01,1303.76 1509.59,1297.7 1512.17,1291.45 1514.75,1284.99 
  1517.33,1278.34 1519.91,1271.48 1522.49,1264.41 1525.06,1257.14 1527.64,1249.65 1530.22,1241.95 1532.8,1234.03 1535.38,1225.9 1537.96,1217.55 1540.53,1208.97 
  1543.11,1200.18 1545.69,1191.16 1548.27,1181.92 1550.85,1172.46 1553.43,1162.77 1556.01,1152.86 1558.58,1142.72 1561.16,1132.37 1563.74,1121.79 1566.32,1110.99 
  1568.9,1099.97 1571.48,1088.73 1574.05,1077.28 1576.63,1065.62 1579.21,1053.74 1581.79,1041.66 1584.37,1029.38 1586.95,1016.89 1589.53,1004.21 1592.1,991.343 
  1594.68,978.288 1597.26,965.052 1599.84,951.641 1602.42,938.062 1605,924.321 1607.58,910.424 1610.15,896.378 1612.73,882.192 1615.31,867.872 1617.89,853.428 
  1620.47,838.868 1623.05,824.201 1625.62,809.435 1628.2,794.582 1630.78,779.65 1633.36,764.65 1635.94,749.592 1638.52,734.488 1641.1,719.349 1643.67,704.186 
  1646.25,689.012 1648.83,673.837 1651.41,658.674 1653.99,643.536 1656.57,628.436 1659.14,613.385 1661.72,598.399 1664.3,583.489 1666.88,568.669 1669.46,553.952 
  1672.04,539.353 1674.62,524.884 1677.19,510.56 1679.77,496.395 1682.35,482.401 1684.93,468.594 1687.51,454.986 1690.09,441.592 1692.66,428.425 1695.24,415.499 
  1697.82,402.827 1700.4,390.422 1702.98,378.298 1705.56,366.468 1708.14,354.944 1710.71,343.739 1713.29,332.866 1715.87,322.335 1718.45,312.16 1721.03,302.35 
  1723.61,292.918 1726.19,283.875 1728.76,275.229 1731.34,266.992 1733.92,259.172 1736.5,251.779 1739.08,244.822 1741.66,238.308 1744.23,232.245 1746.81,226.64 
  1749.39,221.5 1751.97,216.831 1754.55,212.638 1757.13,208.927 1759.71,205.702 1762.28,202.966 1764.86,200.723 1767.44,198.976 1770.02,197.726 1772.6,196.976 
  1775.18,196.726 1777.75,196.976 1780.33,197.726 1782.91,198.976 1785.49,200.723 1788.07,202.966 1790.65,205.702 1793.23,208.927 1795.8,212.638 1798.38,216.831 
  1800.96,221.5 1803.54,226.64 1806.12,232.245 1808.7,238.308 1811.28,244.822 1813.85,251.779 1816.43,259.172 1819.01,266.992 1821.59,275.229 1824.17,283.875 
  1826.75,292.918 1829.32,302.35 1831.9,312.16 1834.48,322.335 1837.06,332.866 1839.64,343.739 1842.22,354.944 1844.8,366.468 1847.37,378.298 1849.95,390.422 
  1852.53,402.827 1855.11,415.499 1857.69,428.425 1860.27,441.592 1862.84,454.987 1865.42,468.594 1868,482.402 1870.58,496.395 1873.16,510.561 1875.74,524.885 
  1878.32,539.354 1880.89,553.953 1883.47,568.67 1886.05,583.49 1888.63,598.4 1891.21,613.387 1893.79,628.437 1896.36,643.538 1898.94,658.676 1901.52,673.839 
  1904.1,689.014 1906.68,704.189 1909.26,719.352 1911.84,734.492 1914.41,749.596 1916.99,764.653 1919.57,779.654 1922.15,794.586 1924.73,809.44 1927.31,824.206 
  1929.89,838.874 1932.46,853.435 1935.04,867.88 1937.62,882.2 1940.2,896.387 1942.78,910.434 1945.36,924.332 1947.93,938.074 1950.51,951.655 1953.09,965.066 
  1955.67,978.304 1958.25,991.36 1960.83,1004.23 1963.41,1016.91 1965.98,1029.4 1968.56,1041.69 1971.14,1053.77 1973.72,1065.65 1976.3,1077.31 1978.88,1088.77 
  1981.45,1100.01 1984.03,1111.03 1986.61,1121.83 1989.19,1132.42 1991.77,1142.78 1994.35,1152.92 1996.93,1162.84 1999.5,1172.53 2002.08,1182 2004.66,1191.25 
  2007.24,1200.27 2009.82,1209.08 2012.4,1217.66 2014.97,1226.02 2017.55,1234.16 2020.13,1242.09 2022.71,1249.8 2025.29,1257.3 2027.87,1264.59 2030.45,1271.67 
  2033.02,1278.55 2035.6,1285.22 2038.18,1291.69 2040.76,1297.97 2043.34,1304.05 2045.92,1309.93 2048.5,1315.63 2051.07,1321.15 2053.65,1326.48 2056.23,1331.64 
  2058.81,1336.62 2061.39,1341.43 2063.97,1346.07 2066.54,1350.55 2069.12,1354.87 2071.7,1359.03 2074.28,1363.05 2076.86,1366.91 2079.44,1370.63 2082.02,1374.2 
  2084.59,1377.64 2087.17,1380.95 2089.75,1384.12 2092.33,1387.17 2094.91,1390.09 2097.49,1392.9 2100.06,1395.59 2102.64,1398.17 2105.22,1400.64 2107.8,1403.01 
  2110.38,1405.27 2112.96,1407.44 2115.54,1409.51 2118.11,1411.49 2120.69,1413.38 2123.27,1415.19 2125.85,1416.92 2128.43,1418.56 2131.01,1420.13 2133.59,1421.62 
  2136.16,1423.05 2138.74,1424.41 2141.32,1425.7 2143.9,1426.93 2146.48,1428.09 2149.06,1429.2 2151.63,1430.26 2154.21,1431.26 2156.79,1432.21 2159.37,1433.12 
  2161.95,1433.97 2164.53,1434.79 2167.11,1435.56 2169.68,1436.28 2172.26,1436.97 2174.84,1437.63 2177.42,1438.25 2180,1438.83 2182.58,1439.38 2185.15,1439.9 
  2187.73,1440.4 2190.31,1440.86 2192.89,1441.3 2195.47,1441.71 2198.05,1442.1 2200.63,1442.47 2203.2,1442.82 2205.78,1443.14 2208.36,1443.45 2210.94,1443.74 
  2213.52,1444.01 2216.1,1444.26 2218.67,1444.5 2221.25,1444.73 2223.83,1444.94 2226.41,1445.14 2228.99,1445.32 2231.57,1445.5 2234.15,1445.66 2236.72,1445.81 
  2239.3,1445.95 2241.88,1446.09 2244.46,1446.21 2247.04,1446.33 2249.62,1446.44 2252.2,1446.54 2254.77,1446.64 2257.35,1446.73 2259.93,1446.81 2262.51,1446.89 
  2265.09,1446.96 2267.67,1447.02 2270.24,1447.09 2272.82,1447.15 2275.4,1447.2 2277.98,1447.25 2280.56,1447.3 2283.14,1447.34 2285.72,1447.38 2288.29,1447.42 
  2290.87,1447.45 
  "/>
<path clip-path="url(#clip910)" d="
M1925.95 350.345 L2279.87 350.345 L2279.87 168.905 L1925.95 168.905  Z
  " fill="#ffffff" fill-rule="evenodd" fill-opacity="1"/>
<polyline clip-path="url(#clip910)" style="stroke:#000000; stroke-width:4; stroke-opacity:1; fill:none" points="
  1925.95,350.345 2279.87,350.345 2279.87,168.905 1925.95,168.905 1925.95,350.345 
  "/>
<polyline clip-path="url(#clip910)" style="stroke:#009af9; stroke-width:4; stroke-opacity:1; fill:none" points="
  1950.24,229.385 2096.01,229.385 
  "/>
<path clip-path="url(#clip910)" d="M 0 0 M2124.99 215.947 L2124.99 242.822 L2130.63 242.822 Q2137.79 242.822 2141.1 239.581 Q2144.43 236.341 2144.43 229.35 Q2144.43 222.406 2141.1 219.188 Q2137.79 215.947 2130.63 215.947 L2124.99 215.947 M2120.31 212.105 L2129.92 212.105 Q2139.96 212.105 2144.66 216.294 Q2149.36 220.461 2149.36 229.35 Q2149.36 238.285 2144.64 242.475 Q2139.92 246.665 2129.92 246.665 L2120.31 246.665 L2120.31 212.105 Z" fill="#000000" fill-rule="evenodd" fill-opacity="1" /><path clip-path="url(#clip910)" d="M 0 0 M2165.61 233.632 Q2160.45 233.632 2158.46 234.813 Q2156.47 235.993 2156.47 238.841 Q2156.47 241.109 2157.95 242.452 Q2159.45 243.771 2162.02 243.771 Q2165.56 243.771 2167.69 241.271 Q2169.85 238.748 2169.85 234.581 L2169.85 233.632 L2165.61 233.632 M2174.11 231.873 L2174.11 246.665 L2169.85 246.665 L2169.85 242.729 Q2168.39 245.091 2166.21 246.225 Q2164.04 247.336 2160.89 247.336 Q2156.91 247.336 2154.55 245.114 Q2152.21 242.868 2152.21 239.118 Q2152.21 234.743 2155.12 232.521 Q2158.06 230.299 2163.87 230.299 L2169.85 230.299 L2169.85 229.882 Q2169.85 226.943 2167.9 225.345 Q2165.98 223.725 2162.48 223.725 Q2160.26 223.725 2158.16 224.257 Q2156.05 224.79 2154.11 225.855 L2154.11 221.919 Q2156.44 221.017 2158.64 220.577 Q2160.84 220.114 2162.92 220.114 Q2168.55 220.114 2171.33 223.031 Q2174.11 225.947 2174.11 231.873 Z" fill="#000000" fill-rule="evenodd" fill-opacity="1" /><path clip-path="url(#clip910)" d="M 0 0 M2182.79 213.378 L2182.79 220.739 L2191.56 220.739 L2191.56 224.049 L2182.79 224.049 L2182.79 238.123 Q2182.79 241.294 2183.64 242.197 Q2184.52 243.1 2187.18 243.1 L2191.56 243.1 L2191.56 246.665 L2187.18 246.665 Q2182.25 246.665 2180.38 244.836 Q2178.5 242.984 2178.5 238.123 L2178.5 224.049 L2175.38 224.049 L2175.38 220.739 L2178.5 220.739 L2178.5 213.378 L2182.79 213.378 Z" fill="#000000" fill-rule="evenodd" fill-opacity="1" /><path clip-path="url(#clip910)" d="M 0 0 M2207.81 233.632 Q2202.65 233.632 2200.66 234.813 Q2198.67 235.993 2198.67 238.841 Q2198.67 241.109 2200.15 242.452 Q2201.65 243.771 2204.22 243.771 Q2207.76 243.771 2209.89 241.271 Q2212.04 238.748 2212.04 234.581 L2212.04 233.632 L2207.81 233.632 M2216.3 231.873 L2216.3 246.665 L2212.04 246.665 L2212.04 242.729 Q2210.59 245.091 2208.41 246.225 Q2206.23 247.336 2203.09 247.336 Q2199.11 247.336 2196.74 245.114 Q2194.41 242.868 2194.41 239.118 Q2194.41 234.743 2197.32 232.521 Q2200.26 230.299 2206.07 230.299 L2212.04 230.299 L2212.04 229.882 Q2212.04 226.943 2210.1 225.345 Q2208.18 223.725 2204.68 223.725 Q2202.46 223.725 2200.36 224.257 Q2198.25 224.79 2196.3 225.855 L2196.3 221.919 Q2198.64 221.017 2200.84 220.577 Q2203.04 220.114 2205.12 220.114 Q2210.75 220.114 2213.53 223.031 Q2216.3 225.947 2216.3 231.873 Z" fill="#000000" fill-rule="evenodd" fill-opacity="1" /><polyline clip-path="url(#clip910)" style="stroke:#e26f46; stroke-width:4; stroke-opacity:1; fill:none" points="
  1950.24,289.865 2096.01,289.865 
  "/>
<path clip-path="url(#clip910)" d="M 0 0 M2120.31 272.585 L2149.55 272.585 L2149.55 276.52 L2137.28 276.52 L2137.28 307.145 L2132.58 307.145 L2132.58 276.52 L2120.31 276.52 L2120.31 272.585 Z" fill="#000000" fill-rule="evenodd" fill-opacity="1" /><path clip-path="url(#clip910)" d="M 0 0 M2162.07 285.2 Q2161.35 284.784 2160.49 284.598 Q2159.66 284.39 2158.64 284.39 Q2155.03 284.39 2153.09 286.751 Q2151.17 289.089 2151.17 293.487 L2151.17 307.145 L2146.88 307.145 L2146.88 281.219 L2151.17 281.219 L2151.17 285.247 Q2152.51 282.886 2154.66 281.751 Q2156.81 280.594 2159.89 280.594 Q2160.33 280.594 2160.86 280.663 Q2161.4 280.71 2162.05 280.825 L2162.07 285.2 Z" fill="#000000" fill-rule="evenodd" fill-opacity="1" /><path clip-path="url(#clip910)" d="M 0 0 M2166.1 296.913 L2166.1 281.219 L2170.36 281.219 L2170.36 296.751 Q2170.36 300.432 2171.79 302.284 Q2173.23 304.112 2176.1 304.112 Q2179.55 304.112 2181.54 301.913 Q2183.55 299.714 2183.55 295.918 L2183.55 281.219 L2187.81 281.219 L2187.81 307.145 L2183.55 307.145 L2183.55 303.163 Q2182 305.524 2179.94 306.682 Q2177.9 307.816 2175.19 307.816 Q2170.73 307.816 2168.41 305.038 Q2166.1 302.26 2166.1 296.913 M2176.81 280.594 L2176.81 280.594 Z" fill="#000000" fill-rule="evenodd" fill-opacity="1" /><path clip-path="url(#clip910)" d="M 0 0 M2196.49 273.858 L2196.49 281.219 L2205.26 281.219 L2205.26 284.529 L2196.49 284.529 L2196.49 298.603 Q2196.49 301.774 2197.35 302.677 Q2198.23 303.58 2200.89 303.58 L2205.26 303.58 L2205.26 307.145 L2200.89 307.145 Q2195.96 307.145 2194.08 305.316 Q2192.21 303.464 2192.21 298.603 L2192.21 284.529 L2189.08 284.529 L2189.08 281.219 L2192.21 281.219 L2192.21 273.858 L2196.49 273.858 Z" fill="#000000" fill-rule="evenodd" fill-opacity="1" /><path clip-path="url(#clip910)" d="M 0 0 M2231.28 291.497 L2231.28 307.145 L2227.02 307.145 L2227.02 291.635 Q2227.02 287.955 2225.59 286.126 Q2224.15 284.298 2221.28 284.298 Q2217.83 284.298 2215.84 286.497 Q2213.85 288.696 2213.85 292.492 L2213.85 307.145 L2209.57 307.145 L2209.57 271.126 L2213.85 271.126 L2213.85 285.247 Q2215.38 282.909 2217.44 281.751 Q2219.52 280.594 2222.23 280.594 Q2226.7 280.594 2228.99 283.372 Q2231.28 286.126 2231.28 291.497 Z" fill="#000000" fill-rule="evenodd" fill-opacity="1" /></svg>
