<?xml version="1.0" encoding="utf-8"?>
<svg xmlns="http://www.w3.org/2000/svg" xmlns:xlink="http://www.w3.org/1999/xlink" width="600" height="400" viewBox="0 0 2400 1600">
<defs>
  <clipPath id="clip880">
    <rect x="0" y="0" width="2400" height="1600"/>
  </clipPath>
</defs>
<path clip-path="url(#clip880)" d="
M0 1600 L2400 1600 L2400 0 L0 0  Z
  " fill="#ffffff" fill-rule="evenodd" fill-opacity="1"/>
<defs>
  <clipPath id="clip881">
    <rect x="480" y="0" width="1681" height="1600"/>
  </clipPath>
</defs>
<path clip-path="url(#clip880)" d="
M166.205 1486.45 L2352.76 1486.45 L2352.76 123.472 L166.205 123.472  Z
  " fill="#ffffff" fill-rule="evenodd" fill-opacity="1"/>
<defs>
  <clipPath id="clip882">
    <rect x="166" y="123" width="2188" height="1364"/>
  </clipPath>
</defs>
<polyline clip-path="url(#clip882)" style="stroke:#000000; stroke-width:2; stroke-opacity:0.1; fill:none" points="
  228.088,1486.45 228.088,123.472 
  "/>
<polyline clip-path="url(#clip882)" style="stroke:#000000; stroke-width:2; stroke-opacity:0.1; fill:none" points="
  571.886,1486.45 571.886,123.472 
  "/>
<polyline clip-path="url(#clip882)" style="stroke:#000000; stroke-width:2; stroke-opacity:0.1; fill:none" points="
  915.683,1486.45 915.683,123.472 
  "/>
<polyline clip-path="url(#clip882)" style="stroke:#000000; stroke-width:2; stroke-opacity:0.1; fill:none" points="
  1259.48,1486.45 1259.48,123.472 
  "/>
<polyline clip-path="url(#clip882)" style="stroke:#000000; stroke-width:2; stroke-opacity:0.1; fill:none" points="
  1603.28,1486.45 1603.28,123.472 
  "/>
<polyline clip-path="url(#clip882)" style="stroke:#000000; stroke-width:2; stroke-opacity:0.1; fill:none" points="
  1947.08,1486.45 1947.08,123.472 
  "/>
<polyline clip-path="url(#clip882)" style="stroke:#000000; stroke-width:2; stroke-opacity:0.1; fill:none" points="
  2290.87,1486.45 2290.87,123.472 
  "/>
<polyline clip-path="url(#clip880)" style="stroke:#000000; stroke-width:4; stroke-opacity:1; fill:none" points="
  166.205,1486.45 2352.76,1486.45 
  "/>
<polyline clip-path="url(#clip880)" style="stroke:#000000; stroke-width:4; stroke-opacity:1; fill:none" points="
  228.088,1486.45 228.088,1470.09 
  "/>
<polyline clip-path="url(#clip880)" style="stroke:#000000; stroke-width:4; stroke-opacity:1; fill:none" points="
  571.886,1486.45 571.886,1470.09 
  "/>
<polyline clip-path="url(#clip880)" style="stroke:#000000; stroke-width:4; stroke-opacity:1; fill:none" points="
  915.683,1486.45 915.683,1470.09 
  "/>
<polyline clip-path="url(#clip880)" style="stroke:#000000; stroke-width:4; stroke-opacity:1; fill:none" points="
  1259.48,1486.45 1259.48,1470.09 
  "/>
<polyline clip-path="url(#clip880)" style="stroke:#000000; stroke-width:4; stroke-opacity:1; fill:none" points="
  1603.28,1486.45 1603.28,1470.09 
  "/>
<polyline clip-path="url(#clip880)" style="stroke:#000000; stroke-width:4; stroke-opacity:1; fill:none" points="
  1947.08,1486.45 1947.08,1470.09 
  "/>
<polyline clip-path="url(#clip880)" style="stroke:#000000; stroke-width:4; stroke-opacity:1; fill:none" points="
  2290.87,1486.45 2290.87,1470.09 
  "/>
<path clip-path="url(#clip880)" d="M 0 0 M200.542 1530.29 L230.218 1530.29 L230.218 1534.23 L200.542 1534.23 L200.542 1530.29 Z" fill="#000000" fill-rule="evenodd" fill-opacity="1" /><path clip-path="url(#clip880)" d="M 0 0 M239.315 1543.18 L255.634 1543.18 L255.634 1547.12 L233.69 1547.12 L233.69 1543.18 Q236.352 1540.43 240.935 1535.8 Q245.542 1531.15 246.722 1529.81 Q248.968 1527.28 249.847 1525.55 Q250.75 1523.79 250.75 1522.1 Q250.75 1519.34 248.806 1517.61 Q246.884 1515.87 243.783 1515.87 Q241.583 1515.87 239.13 1516.63 Q236.699 1517.4 233.921 1518.95 L233.921 1514.23 Q236.746 1513.09 239.199 1512.51 Q241.653 1511.93 243.69 1511.93 Q249.06 1511.93 252.255 1514.62 Q255.449 1517.31 255.449 1521.8 Q255.449 1523.93 254.639 1525.85 Q253.852 1527.74 251.745 1530.34 Q251.167 1531.01 248.065 1534.23 Q244.963 1537.42 239.315 1543.18 Z" fill="#000000" fill-rule="evenodd" fill-opacity="1" /><path clip-path="url(#clip880)" d="M 0 0 M544.154 1530.29 L573.83 1530.29 L573.83 1534.23 L544.154 1534.23 L544.154 1530.29 Z" fill="#000000" fill-rule="evenodd" fill-opacity="1" /><path clip-path="url(#clip880)" d="M 0 0 M579.71 1543.18 L587.348 1543.18 L587.348 1516.82 L579.038 1518.49 L579.038 1514.23 L587.302 1512.56 L591.978 1512.56 L591.978 1543.18 L599.617 1543.18 L599.617 1547.12 L579.71 1547.12 L579.71 1543.18 Z" fill="#000000" fill-rule="evenodd" fill-opacity="1" /><path clip-path="url(#clip880)" d="M 0 0 M915.683 1515.64 Q912.072 1515.64 910.243 1519.2 Q908.438 1522.75 908.438 1529.87 Q908.438 1536.98 910.243 1540.55 Q912.072 1544.09 915.683 1544.09 Q919.317 1544.09 921.123 1540.55 Q922.951 1536.98 922.951 1529.87 Q922.951 1522.75 921.123 1519.2 Q919.317 1515.64 915.683 1515.64 M915.683 1511.93 Q921.493 1511.93 924.549 1516.54 Q927.627 1521.12 927.627 1529.87 Q927.627 1538.6 924.549 1543.21 Q921.493 1547.79 915.683 1547.79 Q909.873 1547.79 906.794 1543.21 Q903.739 1538.6 903.739 1529.87 Q903.739 1521.12 906.794 1516.54 Q909.873 1511.93 915.683 1511.93 Z" fill="#000000" fill-rule="evenodd" fill-opacity="1" /><path clip-path="url(#clip880)" d="M 0 0 M1249.86 1543.18 L1257.5 1543.18 L1257.5 1516.82 L1249.19 1518.49 L1249.19 1514.23 L1257.45 1512.56 L1262.13 1512.56 L1262.13 1543.18 L1269.77 1543.18 L1269.77 1547.12 L1249.86 1547.12 L1249.86 1543.18 Z" fill="#000000" fill-rule="evenodd" fill-opacity="1" /><path clip-path="url(#clip880)" d="M 0 0 M1597.93 1543.18 L1614.25 1543.18 L1614.25 1547.12 L1592.31 1547.12 L1592.31 1543.18 Q1594.97 1540.43 1599.55 1535.8 Q1604.16 1531.15 1605.34 1529.81 Q1607.58 1527.28 1608.46 1525.55 Q1609.37 1523.79 1609.37 1522.1 Q1609.37 1519.34 1607.42 1517.61 Q1605.5 1515.87 1602.4 1515.87 Q1600.2 1515.87 1597.75 1516.63 Q1595.31 1517.4 1592.54 1518.95 L1592.54 1514.23 Q1595.36 1513.09 1597.81 1512.51 Q1600.27 1511.93 1602.31 1511.93 Q1607.68 1511.93 1610.87 1514.62 Q1614.06 1517.31 1614.06 1521.8 Q1614.06 1523.93 1613.25 1525.85 Q1612.47 1527.74 1610.36 1530.34 Q1609.78 1531.01 1606.68 1534.23 Q1603.58 1537.42 1597.93 1543.18 Z" fill="#000000" fill-rule="evenodd" fill-opacity="1" /><path clip-path="url(#clip880)" d="M 0 0 M1951.32 1528.49 Q1954.68 1529.2 1956.55 1531.47 Q1958.45 1533.74 1958.45 1537.07 Q1958.45 1542.19 1954.93 1544.99 Q1951.42 1547.79 1944.93 1547.79 Q1942.76 1547.79 1940.44 1547.35 Q1938.15 1546.93 1935.7 1546.08 L1935.7 1541.56 Q1937.64 1542.7 1939.96 1543.28 Q1942.27 1543.86 1944.79 1543.86 Q1949.19 1543.86 1951.48 1542.12 Q1953.8 1540.38 1953.8 1537.07 Q1953.8 1534.02 1951.65 1532.31 Q1949.52 1530.57 1945.7 1530.57 L1941.67 1530.57 L1941.67 1526.73 L1945.88 1526.73 Q1949.33 1526.73 1951.16 1525.36 Q1952.99 1523.97 1952.99 1521.38 Q1952.99 1518.72 1951.09 1517.31 Q1949.22 1515.87 1945.7 1515.87 Q1943.78 1515.87 1941.58 1516.29 Q1939.38 1516.7 1936.74 1517.58 L1936.74 1513.42 Q1939.4 1512.68 1941.72 1512.31 Q1944.05 1511.93 1946.11 1511.93 Q1951.44 1511.93 1954.54 1514.37 Q1957.64 1516.77 1957.64 1520.89 Q1957.64 1523.76 1956 1525.75 Q1954.36 1527.72 1951.32 1528.49 Z" fill="#000000" fill-rule="evenodd" fill-opacity="1" /><path clip-path="url(#clip880)" d="M 0 0 M2293.88 1516.63 L2282.08 1535.08 L2293.88 1535.08 L2293.88 1516.63 M2292.65 1512.56 L2298.53 1512.56 L2298.53 1535.08 L2303.46 1535.08 L2303.46 1538.97 L2298.53 1538.97 L2298.53 1547.12 L2293.88 1547.12 L2293.88 1538.97 L2278.28 1538.97 L2278.28 1534.46 L2292.65 1512.56 Z" fill="#000000" fill-rule="evenodd" fill-opacity="1" /><polyline clip-path="url(#clip882)" style="stroke:#000000; stroke-width:2; stroke-opacity:0.1; fill:none" points="
  166.205,1447.87 2352.76,1447.87 
  "/>
<polyline clip-path="url(#clip882)" style="stroke:#000000; stroke-width:2; stroke-opacity:0.1; fill:none" points="
  166.205,1134.26 2352.76,1134.26 
  "/>
<polyline clip-path="url(#clip882)" style="stroke:#000000; stroke-width:2; stroke-opacity:0.1; fill:none" points="
  166.205,820.641 2352.76,820.641 
  "/>
<polyline clip-path="url(#clip882)" style="stroke:#000000; stroke-width:2; stroke-opacity:0.1; fill:none" points="
  166.205,507.025 2352.76,507.025 
  "/>
<polyline clip-path="url(#clip882)" style="stroke:#000000; stroke-width:2; stroke-opacity:0.1; fill:none" points="
  166.205,193.409 2352.76,193.409 
  "/>
<polyline clip-path="url(#clip880)" style="stroke:#000000; stroke-width:4; stroke-opacity:1; fill:none" points="
  166.205,1486.45 166.205,123.472 
  "/>
<polyline clip-path="url(#clip880)" style="stroke:#000000; stroke-width:4; stroke-opacity:1; fill:none" points="
  166.205,1447.87 192.443,1447.87 
  "/>
<polyline clip-path="url(#clip880)" style="stroke:#000000; stroke-width:4; stroke-opacity:1; fill:none" points="
  166.205,1134.26 192.443,1134.26 
  "/>
<polyline clip-path="url(#clip880)" style="stroke:#000000; stroke-width:4; stroke-opacity:1; fill:none" points="
  166.205,820.641 192.443,820.641 
  "/>
<polyline clip-path="url(#clip880)" style="stroke:#000000; stroke-width:4; stroke-opacity:1; fill:none" points="
  166.205,507.025 192.443,507.025 
  "/>
<polyline clip-path="url(#clip880)" style="stroke:#000000; stroke-width:4; stroke-opacity:1; fill:none" points="
  166.205,193.409 192.443,193.409 
  "/>
<path clip-path="url(#clip880)" d="M 0 0 M118.26 1433.67 Q114.649 1433.67 112.82 1437.24 Q111.015 1440.78 111.015 1447.91 Q111.015 1455.01 112.82 1458.58 Q114.649 1462.12 118.26 1462.12 Q121.895 1462.12 123.7 1458.58 Q125.529 1455.01 125.529 1447.91 Q125.529 1440.78 123.7 1437.24 Q121.895 1433.67 118.26 1433.67 M118.26 1429.97 Q124.07 1429.97 127.126 1434.57 Q130.205 1439.16 130.205 1447.91 Q130.205 1456.63 127.126 1461.24 Q124.07 1465.82 118.26 1465.82 Q112.45 1465.82 109.371 1461.24 Q106.316 1456.63 106.316 1447.91 Q106.316 1439.16 109.371 1434.57 Q112.45 1429.97 118.26 1429.97 Z" fill="#000000" fill-rule="evenodd" fill-opacity="1" /><path clip-path="url(#clip880)" d="M 0 0 M59.8578 1147.6 L76.1772 1147.6 L76.1772 1151.54 L54.2328 1151.54 L54.2328 1147.6 Q56.8949 1144.85 61.4782 1140.22 Q66.0846 1135.56 67.2652 1134.22 Q69.5105 1131.7 70.3902 1129.96 Q71.2929 1128.2 71.2929 1126.51 Q71.2929 1123.76 69.3485 1122.02 Q67.4272 1120.29 64.3254 1120.29 Q62.1263 1120.29 59.6726 1121.05 Q57.2421 1121.81 54.4643 1123.37 L54.4643 1118.64 Q57.2884 1117.51 59.7421 1116.93 Q62.1958 1116.35 64.2328 1116.35 Q69.6031 1116.35 72.7976 1119.04 Q75.992 1121.72 75.992 1126.21 Q75.992 1128.34 75.1818 1130.26 Q74.3948 1132.16 72.2883 1134.75 Q71.7096 1135.43 68.6078 1138.64 Q65.5059 1141.84 59.8578 1147.6 Z" fill="#000000" fill-rule="evenodd" fill-opacity="1" /><path clip-path="url(#clip880)" d="M 0 0 M91.2465 1120.06 Q87.6354 1120.06 85.8068 1123.62 Q84.0012 1127.16 84.0012 1134.29 Q84.0012 1141.4 85.8068 1144.96 Q87.6354 1148.5 91.2465 1148.5 Q94.8808 1148.5 96.6863 1144.96 Q98.515 1141.4 98.515 1134.29 Q98.515 1127.16 96.6863 1123.62 Q94.8808 1120.06 91.2465 1120.06 M91.2465 1116.35 Q97.0567 1116.35 100.112 1120.96 Q103.191 1125.54 103.191 1134.29 Q103.191 1143.02 100.112 1147.62 Q97.0567 1152.21 91.2465 1152.21 Q85.4364 1152.21 82.3577 1147.62 Q79.3022 1143.02 79.3022 1134.29 Q79.3022 1125.54 82.3577 1120.96 Q85.4364 1116.35 91.2465 1116.35 Z" fill="#000000" fill-rule="evenodd" fill-opacity="1" /><path clip-path="url(#clip880)" d="M 0 0 M118.26 1120.06 Q114.649 1120.06 112.82 1123.62 Q111.015 1127.16 111.015 1134.29 Q111.015 1141.4 112.82 1144.96 Q114.649 1148.5 118.26 1148.5 Q121.895 1148.5 123.7 1144.96 Q125.529 1141.4 125.529 1134.29 Q125.529 1127.16 123.7 1123.62 Q121.895 1120.06 118.26 1120.06 M118.26 1116.35 Q124.07 1116.35 127.126 1120.96 Q130.205 1125.54 130.205 1134.29 Q130.205 1143.02 127.126 1147.62 Q124.07 1152.21 118.26 1152.21 Q112.45 1152.21 109.371 1147.62 Q106.316 1143.02 106.316 1134.29 Q106.316 1125.54 109.371 1120.96 Q112.45 1116.35 118.26 1116.35 Z" fill="#000000" fill-rule="evenodd" fill-opacity="1" /><path clip-path="url(#clip880)" d="M 0 0 M66.5939 807.435 L54.7884 825.884 L66.5939 825.884 L66.5939 807.435 M65.367 803.361 L71.2466 803.361 L71.2466 825.884 L76.1772 825.884 L76.1772 829.773 L71.2466 829.773 L71.2466 837.921 L66.5939 837.921 L66.5939 829.773 L50.9921 829.773 L50.9921 825.259 L65.367 803.361 Z" fill="#000000" fill-rule="evenodd" fill-opacity="1" /><path clip-path="url(#clip880)" d="M 0 0 M91.2465 806.439 Q87.6354 806.439 85.8068 810.004 Q84.0012 813.546 84.0012 820.676 Q84.0012 827.782 85.8068 831.347 Q87.6354 834.888 91.2465 834.888 Q94.8808 834.888 96.6863 831.347 Q98.515 827.782 98.515 820.676 Q98.515 813.546 96.6863 810.004 Q94.8808 806.439 91.2465 806.439 M91.2465 802.736 Q97.0567 802.736 100.112 807.342 Q103.191 811.926 103.191 820.676 Q103.191 829.402 100.112 834.009 Q97.0567 838.592 91.2465 838.592 Q85.4364 838.592 82.3577 834.009 Q79.3022 829.402 79.3022 820.676 Q79.3022 811.926 82.3577 807.342 Q85.4364 802.736 91.2465 802.736 Z" fill="#000000" fill-rule="evenodd" fill-opacity="1" /><path clip-path="url(#clip880)" d="M 0 0 M118.26 806.439 Q114.649 806.439 112.82 810.004 Q111.015 813.546 111.015 820.676 Q111.015 827.782 112.82 831.347 Q114.649 834.888 118.26 834.888 Q121.895 834.888 123.7 831.347 Q125.529 827.782 125.529 820.676 Q125.529 813.546 123.7 810.004 Q121.895 806.439 118.26 806.439 M118.26 802.736 Q124.07 802.736 127.126 807.342 Q130.205 811.926 130.205 820.676 Q130.205 829.402 127.126 834.009 Q124.07 838.592 118.26 838.592 Q112.45 838.592 109.371 834.009 Q106.316 829.402 106.316 820.676 Q106.316 811.926 109.371 807.342 Q112.45 802.736 118.26 802.736 Z" fill="#000000" fill-rule="evenodd" fill-opacity="1" /><path clip-path="url(#clip880)" d="M 0 0 M64.6495 505.161 Q61.5013 505.161 59.6495 507.314 Q57.8208 509.467 57.8208 513.217 Q57.8208 516.944 59.6495 519.12 Q61.5013 521.272 64.6495 521.272 Q67.7976 521.272 69.6263 519.12 Q71.4781 516.944 71.4781 513.217 Q71.4781 509.467 69.6263 507.314 Q67.7976 505.161 64.6495 505.161 M73.9318 490.509 L73.9318 494.768 Q72.1726 493.934 70.367 493.495 Q68.5846 493.055 66.8254 493.055 Q62.1958 493.055 59.7421 496.18 Q57.3115 499.305 56.9643 505.624 Q58.33 503.61 60.3902 502.546 Q62.4504 501.458 64.9272 501.458 Q70.1355 501.458 73.1448 504.629 Q76.1772 507.777 76.1772 513.217 Q76.1772 518.541 73.029 521.758 Q69.8809 524.976 64.6495 524.976 Q58.6541 524.976 55.4828 520.393 Q52.3116 515.786 52.3116 507.059 Q52.3116 498.865 56.2004 494.004 Q60.0893 489.12 66.6402 489.12 Q68.3994 489.12 70.1818 489.467 Q71.9874 489.814 73.9318 490.509 Z" fill="#000000" fill-rule="evenodd" fill-opacity="1" /><path clip-path="url(#clip880)" d="M 0 0 M91.2465 492.823 Q87.6354 492.823 85.8068 496.388 Q84.0012 499.93 84.0012 507.059 Q84.0012 514.166 85.8068 517.731 Q87.6354 521.272 91.2465 521.272 Q94.8808 521.272 96.6863 517.731 Q98.515 514.166 98.515 507.059 Q98.515 499.93 96.6863 496.388 Q94.8808 492.823 91.2465 492.823 M91.2465 489.12 Q97.0567 489.12 100.112 493.726 Q103.191 498.309 103.191 507.059 Q103.191 515.786 100.112 520.393 Q97.0567 524.976 91.2465 524.976 Q85.4364 524.976 82.3577 520.393 Q79.3022 515.786 79.3022 507.059 Q79.3022 498.309 82.3577 493.726 Q85.4364 489.12 91.2465 489.12 Z" fill="#000000" fill-rule="evenodd" fill-opacity="1" /><path clip-path="url(#clip880)" d="M 0 0 M118.26 492.823 Q114.649 492.823 112.82 496.388 Q111.015 499.93 111.015 507.059 Q111.015 514.166 112.82 517.731 Q114.649 521.272 118.26 521.272 Q121.895 521.272 123.7 517.731 Q125.529 514.166 125.529 507.059 Q125.529 499.93 123.7 496.388 Q121.895 492.823 118.26 492.823 M118.26 489.12 Q124.07 489.12 127.126 493.726 Q130.205 498.309 130.205 507.059 Q130.205 515.786 127.126 520.393 Q124.07 524.976 118.26 524.976 Q112.45 524.976 109.371 520.393 Q106.316 515.786 106.316 507.059 Q106.316 498.309 109.371 493.726 Q112.45 489.12 118.26 489.12 Z" fill="#000000" fill-rule="evenodd" fill-opacity="1" /><path clip-path="url(#clip880)" d="M 0 0 M64.3254 194.277 Q60.9921 194.277 59.0708 196.059 Q57.1726 197.841 57.1726 200.966 Q57.1726 204.091 59.0708 205.874 Q60.9921 207.656 64.3254 207.656 Q67.6587 207.656 69.58 205.874 Q71.5013 204.068 71.5013 200.966 Q71.5013 197.841 69.58 196.059 Q67.6819 194.277 64.3254 194.277 M59.6495 192.286 Q56.6402 191.545 54.9504 189.485 Q53.2838 187.425 53.2838 184.462 Q53.2838 180.318 56.2236 177.911 Q59.1865 175.504 64.3254 175.504 Q69.4874 175.504 72.4272 177.911 Q75.367 180.318 75.367 184.462 Q75.367 187.425 73.6772 189.485 Q72.0105 191.545 69.0244 192.286 Q72.404 193.073 74.279 195.365 Q76.1772 197.656 76.1772 200.966 Q76.1772 205.989 73.0985 208.675 Q70.0429 211.36 64.3254 211.36 Q58.6078 211.36 55.5291 208.675 Q52.4736 205.989 52.4736 200.966 Q52.4736 197.656 54.3717 195.365 Q56.2699 193.073 59.6495 192.286 M57.9365 184.902 Q57.9365 187.587 59.6032 189.091 Q61.293 190.596 64.3254 190.596 Q67.3346 190.596 69.0244 189.091 Q70.7374 187.587 70.7374 184.902 Q70.7374 182.216 69.0244 180.712 Q67.3346 179.207 64.3254 179.207 Q61.293 179.207 59.6032 180.712 Q57.9365 182.216 57.9365 184.902 Z" fill="#000000" fill-rule="evenodd" fill-opacity="1" /><path clip-path="url(#clip880)" d="M 0 0 M91.2465 179.207 Q87.6354 179.207 85.8068 182.772 Q84.0012 186.314 84.0012 193.443 Q84.0012 200.55 85.8068 204.114 Q87.6354 207.656 91.2465 207.656 Q94.8808 207.656 96.6863 204.114 Q98.515 200.55 98.515 193.443 Q98.515 186.314 96.6863 182.772 Q94.8808 179.207 91.2465 179.207 M91.2465 175.504 Q97.0567 175.504 100.112 180.11 Q103.191 184.693 103.191 193.443 Q103.191 202.17 100.112 206.777 Q97.0567 211.36 91.2465 211.36 Q85.4364 211.36 82.3577 206.777 Q79.3022 202.17 79.3022 193.443 Q79.3022 184.693 82.3577 180.11 Q85.4364 175.504 91.2465 175.504 Z" fill="#000000" fill-rule="evenodd" fill-opacity="1" /><path clip-path="url(#clip880)" d="M 0 0 M118.26 179.207 Q114.649 179.207 112.82 182.772 Q111.015 186.314 111.015 193.443 Q111.015 200.55 112.82 204.114 Q114.649 207.656 118.26 207.656 Q121.895 207.656 123.7 204.114 Q125.529 200.55 125.529 193.443 Q125.529 186.314 123.7 182.772 Q121.895 179.207 118.26 179.207 M118.26 175.504 Q124.07 175.504 127.126 180.11 Q130.205 184.693 130.205 193.443 Q130.205 202.17 127.126 206.777 Q124.07 211.36 118.26 211.36 Q112.45 211.36 109.371 206.777 Q106.316 202.17 106.316 193.443 Q106.316 184.693 109.371 180.11 Q112.45 175.504 118.26 175.504 Z" fill="#000000" fill-rule="evenodd" fill-opacity="1" /><path clip-path="url(#clip880)" d="M 0 0 M1183.67 18.8205 L1183.67 65.8515 L1193.55 65.8515 Q1206.07 65.8515 1211.86 60.1802 Q1217.7 54.509 1217.7 42.2752 Q1217.7 30.1225 1211.86 24.4918 Q1206.07 18.8205 1193.55 18.8205 L1183.67 18.8205 M1175.48 12.096 L1192.3 12.096 Q1209.88 12.096 1218.1 19.4281 Q1226.32 26.7198 1226.32 42.2752 Q1226.32 57.9117 1218.06 65.2439 Q1209.8 72.576 1192.3 72.576 L1175.48 72.576 L1175.48 12.096 Z" fill="#000000" fill-rule="evenodd" fill-opacity="1" /><path clip-path="url(#clip880)" d="M 0 0 M1254.76 49.7694 Q1245.73 49.7694 1242.24 51.8354 Q1238.76 53.9013 1238.76 58.8839 Q1238.76 62.8538 1241.35 65.2034 Q1243.99 67.5124 1248.48 67.5124 Q1254.68 67.5124 1258.41 63.1374 Q1262.17 58.7219 1262.17 51.4303 L1262.17 49.7694 L1254.76 49.7694 M1269.63 46.6907 L1269.63 72.576 L1262.17 72.576 L1262.17 65.6895 Q1259.62 69.8214 1255.81 71.8063 Q1252.01 73.7508 1246.5 73.7508 Q1239.53 73.7508 1235.4 69.8619 Q1231.31 65.9325 1231.31 59.3701 Q1231.31 51.7138 1236.41 47.825 Q1241.56 43.9361 1251.72 43.9361 L1262.17 43.9361 L1262.17 43.2069 Q1262.17 38.0623 1258.77 35.2672 Q1255.41 32.4315 1249.29 32.4315 Q1245.4 32.4315 1241.72 33.3632 Q1238.03 34.295 1234.63 36.1584 L1234.63 29.2718 Q1238.72 27.692 1242.57 26.9223 Q1246.42 26.1121 1250.06 26.1121 Q1259.91 26.1121 1264.77 31.2163 Q1269.63 36.3204 1269.63 46.6907 Z" fill="#000000" fill-rule="evenodd" fill-opacity="1" /><path clip-path="url(#clip880)" d="M 0 0 M1284.82 14.324 L1284.82 27.2059 L1300.17 27.2059 L1300.17 32.9987 L1284.82 32.9987 L1284.82 57.6282 Q1284.82 63.1779 1286.32 64.7578 Q1287.86 66.3376 1292.52 66.3376 L1300.17 66.3376 L1300.17 72.576 L1292.52 72.576 Q1283.89 72.576 1280.61 69.3758 Q1277.32 66.1351 1277.32 57.6282 L1277.32 32.9987 L1271.86 32.9987 L1271.86 27.2059 L1277.32 27.2059 L1277.32 14.324 L1284.82 14.324 Z" fill="#000000" fill-rule="evenodd" fill-opacity="1" /><path clip-path="url(#clip880)" d="M 0 0 M1328.61 49.7694 Q1319.58 49.7694 1316.09 51.8354 Q1312.61 53.9013 1312.61 58.8839 Q1312.61 62.8538 1315.2 65.2034 Q1317.83 67.5124 1322.33 67.5124 Q1328.53 67.5124 1332.25 63.1374 Q1336.02 58.7219 1336.02 51.4303 L1336.02 49.7694 L1328.61 49.7694 M1343.48 46.6907 L1343.48 72.576 L1336.02 72.576 L1336.02 65.6895 Q1333.47 69.8214 1329.66 71.8063 Q1325.85 73.7508 1320.35 73.7508 Q1313.38 73.7508 1309.25 69.8619 Q1305.15 65.9325 1305.15 59.3701 Q1305.15 51.7138 1310.26 47.825 Q1315.4 43.9361 1325.57 43.9361 L1336.02 43.9361 L1336.02 43.2069 Q1336.02 38.0623 1332.62 35.2672 Q1329.26 32.4315 1323.14 32.4315 Q1319.25 32.4315 1315.57 33.3632 Q1311.88 34.295 1308.48 36.1584 L1308.48 29.2718 Q1312.57 27.692 1316.42 26.9223 Q1320.26 26.1121 1323.91 26.1121 Q1333.75 26.1121 1338.61 31.2163 Q1343.48 36.3204 1343.48 46.6907 Z" fill="#000000" fill-rule="evenodd" fill-opacity="1" /><polyline clip-path="url(#clip882)" style="stroke:#009af9; stroke-width:4; stroke-opacity:1; fill:none" points="
  228.088,1447.87 228.088,1369.47 262.468,1369.47 262.468,1353.79 296.848,1353.79 296.848,1149.94 331.227,1149.94 331.227,1181.3 365.607,1181.3 365.607,1118.58 
  399.987,1118.58 399.987,1040.17 434.367,1040.17 434.367,930.406 468.746,930.406 468.746,867.683 503.126,867.683 503.126,804.96 537.506,804.96 537.506,836.322 
  571.886,836.322 571.886,726.556 606.265,726.556 606.265,695.194 640.645,695.194 640.645,961.768 675.025,961.768 675.025,1055.85 709.405,1055.85 709.405,1008.81 
  743.784,1008.81 743.784,1149.94 778.164,1149.94 812.544,1149.94 812.544,1244.02 846.923,1244.02 846.923,1369.47 881.303,1369.47 
  915.683,1369.47 915.683,1432.19 950.063,1432.19 950.063,1369.47 984.442,1369.47 984.442,1432.19 1018.82,1432.19 1018.82,1447.87 1053.2,1447.87 
  1087.58,1447.87 1087.58,1432.19 1121.96,1432.19 1121.96,1447.87 1156.34,1447.87 1156.34,1385.15 1190.72,1385.15 1190.72,1338.11 1225.1,1338.11 1225.1,1353.79 
  1259.48,1353.79 1259.48,1306.75 1293.86,1306.75 1293.86,1212.66 1328.24,1212.66 1328.24,1024.49 1362.62,1024.49 1362.62,867.683 1397,867.683 1397,695.194 
  1431.38,695.194 1431.38,538.386 1465.76,538.386 1465.76,428.621 1500.14,428.621 1500.14,365.897 1534.52,365.897 1534.52,256.132 1568.9,256.132 1568.9,162.047 
  1603.28,162.047 1637.66,162.047 1637.66,256.132 1672.04,256.132 1672.04,507.025 1706.42,507.025 1706.42,428.621 1740.8,428.621 1740.8,804.96 
  1775.18,804.96 1775.18,710.875 1809.56,710.875 1809.56,742.237 1843.94,742.237 1843.94,1008.81 1878.32,1008.81 1878.32,1134.26 1912.7,1134.26 1912.7,1212.66 
  1947.08,1212.66 1947.08,1306.75 1981.45,1306.75 1981.45,1432.19 2015.83,1432.19 2015.83,1400.83 2050.21,1400.83 2050.21,1447.87 2084.59,1447.87 2084.59,1416.51 
  2118.97,1416.51 2118.97,1432.19 2153.35,1432.19 2187.73,1432.19 2187.73,1447.87 2222.11,1447.87 2256.49,1447.87 
  2290.87,1447.87 
  "/>
<path clip-path="url(#clip880)" d="
M1940.93 289.865 L2279.87 289.865 L2279.87 168.905 L1940.93 168.905  Z
  " fill="#ffffff" fill-rule="evenodd" fill-opacity="1"/>
<polyline clip-path="url(#clip880)" style="stroke:#000000; stroke-width:4; stroke-opacity:1; fill:none" points="
  1940.93,289.865 2279.87,289.865 2279.87,168.905 1940.93,168.905 1940.93,289.865 
  "/>
<polyline clip-path="url(#clip880)" style="stroke:#009af9; stroke-width:4; stroke-opacity:1; fill:none" points="
  1965.22,229.385 2110.99,229.385 
  "/>
<path clip-path="url(#clip880)" d="M 0 0 M2139.96 215.947 L2139.96 242.822 L2145.61 242.822 Q2152.76 242.822 2156.07 239.581 Q2159.41 236.341 2159.41 229.35 Q2159.41 222.406 2156.07 219.188 Q2152.76 215.947 2145.61 215.947 L2139.96 215.947 M2135.29 212.105 L2144.89 212.105 Q2154.94 212.105 2159.64 216.294 Q2164.34 220.461 2164.34 229.35 Q2164.34 238.285 2159.61 242.475 Q2154.89 246.665 2144.89 246.665 L2135.29 246.665 L2135.29 212.105 Z" fill="#000000" fill-rule="evenodd" fill-opacity="1" /><path clip-path="url(#clip880)" d="M 0 0 M2180.59 233.632 Q2175.42 233.632 2173.43 234.813 Q2171.44 235.993 2171.44 238.841 Q2171.44 241.109 2172.92 242.452 Q2174.43 243.771 2177 243.771 Q2180.54 243.771 2182.67 241.271 Q2184.82 238.748 2184.82 234.581 L2184.82 233.632 L2180.59 233.632 M2189.08 231.873 L2189.08 246.665 L2184.82 246.665 L2184.82 242.729 Q2183.36 245.091 2181.19 246.225 Q2179.01 247.336 2175.86 247.336 Q2171.88 247.336 2169.52 245.114 Q2167.18 242.868 2167.18 239.118 Q2167.18 234.743 2170.1 232.521 Q2173.04 230.299 2178.85 230.299 L2184.82 230.299 L2184.82 229.882 Q2184.82 226.943 2182.88 225.345 Q2180.96 223.725 2177.46 223.725 Q2175.24 223.725 2173.13 224.257 Q2171.03 224.79 2169.08 225.855 L2169.08 221.919 Q2171.42 221.017 2173.62 220.577 Q2175.82 220.114 2177.9 220.114 Q2183.53 220.114 2186.3 223.031 Q2189.08 225.947 2189.08 231.873 Z" fill="#000000" fill-rule="evenodd" fill-opacity="1" /><path clip-path="url(#clip880)" d="M 0 0 M2197.76 213.378 L2197.76 220.739 L2206.54 220.739 L2206.54 224.049 L2197.76 224.049 L2197.76 238.123 Q2197.76 241.294 2198.62 242.197 Q2199.5 243.1 2202.16 243.1 L2206.54 243.1 L2206.54 246.665 L2202.16 246.665 Q2197.23 246.665 2195.36 244.836 Q2193.48 242.984 2193.48 238.123 L2193.48 224.049 L2190.36 224.049 L2190.36 220.739 L2193.48 220.739 L2193.48 213.378 L2197.76 213.378 Z" fill="#000000" fill-rule="evenodd" fill-opacity="1" /><path clip-path="url(#clip880)" d="M 0 0 M2222.79 233.632 Q2217.62 233.632 2215.63 234.813 Q2213.64 235.993 2213.64 238.841 Q2213.64 241.109 2215.12 242.452 Q2216.63 243.771 2219.2 243.771 Q2222.74 243.771 2224.87 241.271 Q2227.02 238.748 2227.02 234.581 L2227.02 233.632 L2222.79 233.632 M2231.28 231.873 L2231.28 246.665 L2227.02 246.665 L2227.02 242.729 Q2225.56 245.091 2223.39 246.225 Q2221.21 247.336 2218.06 247.336 Q2214.08 247.336 2211.72 245.114 Q2209.38 242.868 2209.38 239.118 Q2209.38 234.743 2212.3 232.521 Q2215.24 230.299 2221.05 230.299 L2227.02 230.299 L2227.02 229.882 Q2227.02 226.943 2225.08 225.345 Q2223.16 223.725 2219.66 223.725 Q2217.44 223.725 2215.33 224.257 Q2213.23 224.79 2211.28 225.855 L2211.28 221.919 Q2213.62 221.017 2215.82 220.577 Q2218.02 220.114 2220.1 220.114 Q2225.73 220.114 2228.5 223.031 Q2231.28 225.947 2231.28 231.873 Z" fill="#000000" fill-rule="evenodd" fill-opacity="1" /></svg>
