<?xml version="1.0" encoding="utf-8"?>
<svg xmlns="http://www.w3.org/2000/svg" xmlns:xlink="http://www.w3.org/1999/xlink" width="600" height="400" viewBox="0 0 2400 1600">
<defs>
  <clipPath id="clip730">
    <rect x="0" y="0" width="2400" height="1600"/>
  </clipPath>
</defs>
<path clip-path="url(#clip730)" d="
M0 1600 L2400 1600 L2400 0 L0 0  Z
  " fill="#ffffff" fill-rule="evenodd" fill-opacity="1"/>
<defs>
  <clipPath id="clip731">
    <rect x="480" y="0" width="1681" height="1600"/>
  </clipPath>
</defs>
<path clip-path="url(#clip730)" d="
M166.205 1486.45 L2352.76 1486.45 L2352.76 123.472 L166.205 123.472  Z
  " fill="#ffffff" fill-rule="evenodd" fill-opacity="1"/>
<defs>
  <clipPath id="clip732">
    <rect x="166" y="123" width="2188" height="1364"/>
  </clipPath>
</defs>
<polyline clip-path="url(#clip732)" style="stroke:#000000; stroke-width:2; stroke-opacity:0.1; fill:none" points="
  228.088,1486.45 228.088,123.472 
  "/>
<polyline clip-path="url(#clip732)" style="stroke:#000000; stroke-width:2; stroke-opacity:0.1; fill:none" points="
  571.886,1486.45 571.886,123.472 
  "/>
<polyline clip-path="url(#clip732)" style="stroke:#000000; stroke-width:2; stroke-opacity:0.1; fill:none" points="
  915.683,1486.45 915.683,123.472 
  "/>
<polyline clip-path="url(#clip732)" style="stroke:#000000; stroke-width:2; stroke-opacity:0.1; fill:none" points="
  1259.48,1486.45 1259.48,123.472 
  "/>
<polyline clip-path="url(#clip732)" style="stroke:#000000; stroke-width:2; stroke-opacity:0.1; fill:none" points="
  1603.28,1486.45 1603.28,123.472 
  "/>
<polyline clip-path="url(#clip732)" style="stroke:#000000; stroke-width:2; stroke-opacity:0.1; fill:none" points="
  1947.08,1486.45 1947.08,123.472 
  "/>
<polyline clip-path="url(#clip732)" style="stroke:#000000; stroke-width:2; stroke-opacity:0.1; fill:none" points="
  2290.87,1486.45 2290.87,123.472 
  "/>
<polyline clip-path="url(#clip730)" style="stroke:#000000; stroke-width:4; stroke-opacity:1; fill:none" points="
  166.205,1486.45 2352.76,1486.45 
  "/>
<polyline clip-path="url(#clip730)" style="stroke:#000000; stroke-width:4; stroke-opacity:1; fill:none" points="
  228.088,1486.45 228.088,1470.09 
  "/>
<polyline clip-path="url(#clip730)" style="stroke:#000000; stroke-width:4; stroke-opacity:1; fill:none" points="
  571.886,1486.45 571.886,1470.09 
  "/>
<polyline clip-path="url(#clip730)" style="stroke:#000000; stroke-width:4; stroke-opacity:1; fill:none" points="
  915.683,1486.45 915.683,1470.09 
  "/>
<polyline clip-path="url(#clip730)" style="stroke:#000000; stroke-width:4; stroke-opacity:1; fill:none" points="
  1259.48,1486.45 1259.48,1470.09 
  "/>
<polyline clip-path="url(#clip730)" style="stroke:#000000; stroke-width:4; stroke-opacity:1; fill:none" points="
  1603.28,1486.45 1603.28,1470.09 
  "/>
<polyline clip-path="url(#clip730)" style="stroke:#000000; stroke-width:4; stroke-opacity:1; fill:none" points="
  1947.08,1486.45 1947.08,1470.09 
  "/>
<polyline clip-path="url(#clip730)" style="stroke:#000000; stroke-width:4; stroke-opacity:1; fill:none" points="
  2290.87,1486.45 2290.87,1470.09 
  "/>
<path clip-path="url(#clip730)" d="M 0 0 M200.542 1530.29 L230.218 1530.29 L230.218 1534.23 L200.542 1534.23 L200.542 1530.29 Z" fill="#000000" fill-rule="evenodd" fill-opacity="1" /><path clip-path="url(#clip730)" d="M 0 0 M239.315 1543.18 L255.634 1543.18 L255.634 1547.12 L233.69 1547.12 L233.69 1543.18 Q236.352 1540.43 240.935 1535.8 Q245.542 1531.15 246.722 1529.81 Q248.968 1527.28 249.847 1525.55 Q250.75 1523.79 250.75 1522.1 Q250.75 1519.34 248.806 1517.61 Q246.884 1515.87 243.783 1515.87 Q241.583 1515.87 239.13 1516.63 Q236.699 1517.4 233.921 1518.95 L233.921 1514.23 Q236.746 1513.09 239.199 1512.51 Q241.653 1511.93 243.69 1511.93 Q249.06 1511.93 252.255 1514.62 Q255.449 1517.31 255.449 1521.8 Q255.449 1523.93 254.639 1525.85 Q253.852 1527.74 251.745 1530.34 Q251.167 1531.01 248.065 1534.23 Q244.963 1537.42 239.315 1543.18 Z" fill="#000000" fill-rule="evenodd" fill-opacity="1" /><path clip-path="url(#clip730)" d="M 0 0 M544.154 1530.29 L573.83 1530.29 L573.83 1534.23 L544.154 1534.23 L544.154 1530.29 Z" fill="#000000" fill-rule="evenodd" fill-opacity="1" /><path clip-path="url(#clip730)" d="M 0 0 M579.71 1543.18 L587.348 1543.18 L587.348 1516.82 L579.038 1518.49 L579.038 1514.23 L587.302 1512.56 L591.978 1512.56 L591.978 1543.18 L599.617 1543.18 L599.617 1547.12 L579.71 1547.12 L579.71 1543.18 Z" fill="#000000" fill-rule="evenodd" fill-opacity="1" /><path clip-path="url(#clip730)" d="M 0 0 M915.683 1515.64 Q912.072 1515.64 910.243 1519.2 Q908.438 1522.75 908.438 1529.87 Q908.438 1536.98 910.243 1540.55 Q912.072 1544.09 915.683 1544.09 Q919.317 1544.09 921.123 1540.55 Q922.951 1536.98 922.951 1529.87 Q922.951 1522.75 921.123 1519.2 Q919.317 1515.64 915.683 1515.64 M915.683 1511.93 Q921.493 1511.93 924.549 1516.54 Q927.627 1521.12 927.627 1529.87 Q927.627 1538.6 924.549 1543.21 Q921.493 1547.79 915.683 1547.79 Q909.873 1547.79 906.794 1543.21 Q903.739 1538.6 903.739 1529.87 Q903.739 1521.12 906.794 1516.54 Q909.873 1511.93 915.683 1511.93 Z" fill="#000000" fill-rule="evenodd" fill-opacity="1" /><path clip-path="url(#clip730)" d="M 0 0 M1249.86 1543.18 L1257.5 1543.18 L1257.5 1516.82 L1249.19 1518.49 L1249.19 1514.23 L1257.45 1512.56 L1262.13 1512.56 L1262.13 1543.18 L1269.77 1543.18 L1269.77 1547.12 L1249.86 1547.12 L1249.86 1543.18 Z" fill="#000000" fill-rule="evenodd" fill-opacity="1" /><path clip-path="url(#clip730)" d="M 0 0 M1597.93 1543.18 L1614.25 1543.18 L1614.25 1547.12 L1592.31 1547.12 L1592.31 1543.18 Q1594.97 1540.43 1599.55 1535.8 Q1604.16 1531.15 1605.34 1529.81 Q1607.58 1527.28 1608.46 1525.55 Q1609.37 1523.79 1609.37 1522.1 Q1609.37 1519.34 1607.42 1517.61 Q1605.5 1515.87 1602.4 1515.87 Q1600.2 1515.87 1597.75 1516.63 Q1595.31 1517.4 1592.54 1518.95 L1592.54 1514.23 Q1595.36 1513.09 1597.81 1512.51 Q1600.27 1511.93 1602.31 1511.93 Q1607.68 1511.93 1610.87 1514.62 Q1614.06 1517.31 1614.06 1521.8 Q1614.06 1523.93 1613.25 1525.85 Q1612.47 1527.74 1610.36 1530.34 Q1609.78 1531.01 1606.68 1534.23 Q1603.58 1537.42 1597.93 1543.18 Z" fill="#000000" fill-rule="evenodd" fill-opacity="1" /><path clip-path="url(#clip730)" d="M 0 0 M1951.32 1528.49 Q1954.68 1529.2 1956.55 1531.47 Q1958.45 1533.74 1958.45 1537.07 Q1958.45 1542.19 1954.93 1544.99 Q1951.42 1547.79 1944.93 1547.79 Q1942.76 1547.79 1940.44 1547.35 Q1938.15 1546.93 1935.7 1546.08 L1935.7 1541.56 Q1937.64 1542.7 1939.96 1543.28 Q1942.27 1543.86 1944.79 1543.86 Q1949.19 1543.86 1951.48 1542.12 Q1953.8 1540.38 1953.8 1537.07 Q1953.8 1534.02 1951.65 1532.31 Q1949.52 1530.57 1945.7 1530.57 L1941.67 1530.57 L1941.67 1526.73 L1945.88 1526.73 Q1949.33 1526.73 1951.16 1525.36 Q1952.99 1523.97 1952.99 1521.38 Q1952.99 1518.72 1951.09 1517.31 Q1949.22 1515.87 1945.7 1515.87 Q1943.78 1515.87 1941.58 1516.29 Q1939.38 1516.7 1936.74 1517.58 L1936.74 1513.42 Q1939.4 1512.68 1941.72 1512.31 Q1944.05 1511.93 1946.11 1511.93 Q1951.44 1511.93 1954.54 1514.37 Q1957.64 1516.77 1957.64 1520.89 Q1957.64 1523.76 1956 1525.75 Q1954.36 1527.72 1951.32 1528.49 Z" fill="#000000" fill-rule="evenodd" fill-opacity="1" /><path clip-path="url(#clip730)" d="M 0 0 M2293.88 1516.63 L2282.08 1535.08 L2293.88 1535.08 L2293.88 1516.63 M2292.65 1512.56 L2298.53 1512.56 L2298.53 1535.08 L2303.46 1535.08 L2303.46 1538.97 L2298.53 1538.97 L2298.53 1547.12 L2293.88 1547.12 L2293.88 1538.97 L2278.28 1538.97 L2278.28 1534.46 L2292.65 1512.56 Z" fill="#000000" fill-rule="evenodd" fill-opacity="1" /><polyline clip-path="url(#clip732)" style="stroke:#000000; stroke-width:2; stroke-opacity:0.1; fill:none" points="
  166.205,1447.87 2352.76,1447.87 
  "/>
<polyline clip-path="url(#clip732)" style="stroke:#000000; stroke-width:2; stroke-opacity:0.1; fill:none" points="
  166.205,1155.64 2352.76,1155.64 
  "/>
<polyline clip-path="url(#clip732)" style="stroke:#000000; stroke-width:2; stroke-opacity:0.1; fill:none" points="
  166.205,863.407 2352.76,863.407 
  "/>
<polyline clip-path="url(#clip732)" style="stroke:#000000; stroke-width:2; stroke-opacity:0.1; fill:none" points="
  166.205,571.173 2352.76,571.173 
  "/>
<polyline clip-path="url(#clip732)" style="stroke:#000000; stroke-width:2; stroke-opacity:0.1; fill:none" points="
  166.205,278.94 2352.76,278.94 
  "/>
<polyline clip-path="url(#clip730)" style="stroke:#000000; stroke-width:4; stroke-opacity:1; fill:none" points="
  166.205,1486.45 166.205,123.472 
  "/>
<polyline clip-path="url(#clip730)" style="stroke:#000000; stroke-width:4; stroke-opacity:1; fill:none" points="
  166.205,1447.87 192.443,1447.87 
  "/>
<polyline clip-path="url(#clip730)" style="stroke:#000000; stroke-width:4; stroke-opacity:1; fill:none" points="
  166.205,1155.64 192.443,1155.64 
  "/>
<polyline clip-path="url(#clip730)" style="stroke:#000000; stroke-width:4; stroke-opacity:1; fill:none" points="
  166.205,863.407 192.443,863.407 
  "/>
<polyline clip-path="url(#clip730)" style="stroke:#000000; stroke-width:4; stroke-opacity:1; fill:none" points="
  166.205,571.173 192.443,571.173 
  "/>
<polyline clip-path="url(#clip730)" style="stroke:#000000; stroke-width:4; stroke-opacity:1; fill:none" points="
  166.205,278.94 192.443,278.94 
  "/>
<path clip-path="url(#clip730)" d="M 0 0 M118.26 1433.67 Q114.649 1433.67 112.82 1437.24 Q111.015 1440.78 111.015 1447.91 Q111.015 1455.01 112.82 1458.58 Q114.649 1462.12 118.26 1462.12 Q121.895 1462.12 123.7 1458.58 Q125.529 1455.01 125.529 1447.91 Q125.529 1440.78 123.7 1437.24 Q121.895 1433.67 118.26 1433.67 M118.26 1429.97 Q124.07 1429.97 127.126 1434.57 Q130.205 1439.16 130.205 1447.91 Q130.205 1456.63 127.126 1461.24 Q124.07 1465.82 118.26 1465.82 Q112.45 1465.82 109.371 1461.24 Q106.316 1456.63 106.316 1447.91 Q106.316 1439.16 109.371 1434.57 Q112.45 1429.97 118.26 1429.97 Z" fill="#000000" fill-rule="evenodd" fill-opacity="1" /><path clip-path="url(#clip730)" d="M 0 0 M59.8578 1168.98 L76.1772 1168.98 L76.1772 1172.92 L54.2328 1172.92 L54.2328 1168.98 Q56.8949 1166.23 61.4782 1161.6 Q66.0846 1156.95 67.2652 1155.61 Q69.5105 1153.08 70.3902 1151.35 Q71.2929 1149.59 71.2929 1147.9 Q71.2929 1145.14 69.3485 1143.41 Q67.4272 1141.67 64.3254 1141.67 Q62.1263 1141.67 59.6726 1142.43 Q57.2421 1143.2 54.4643 1144.75 L54.4643 1140.03 Q57.2884 1138.89 59.7421 1138.31 Q62.1958 1137.73 64.2328 1137.73 Q69.6031 1137.73 72.7976 1140.42 Q75.992 1143.11 75.992 1147.6 Q75.992 1149.73 75.1818 1151.65 Q74.3948 1153.54 72.2883 1156.14 Q71.7096 1156.81 68.6078 1160.03 Q65.5059 1163.22 59.8578 1168.98 Z" fill="#000000" fill-rule="evenodd" fill-opacity="1" /><path clip-path="url(#clip730)" d="M 0 0 M91.2465 1141.44 Q87.6354 1141.44 85.8068 1145 Q84.0012 1148.54 84.0012 1155.67 Q84.0012 1162.78 85.8068 1166.35 Q87.6354 1169.89 91.2465 1169.89 Q94.8808 1169.89 96.6863 1166.35 Q98.515 1162.78 98.515 1155.67 Q98.515 1148.54 96.6863 1145 Q94.8808 1141.44 91.2465 1141.44 M91.2465 1137.73 Q97.0567 1137.73 100.112 1142.34 Q103.191 1146.92 103.191 1155.67 Q103.191 1164.4 100.112 1169.01 Q97.0567 1173.59 91.2465 1173.59 Q85.4364 1173.59 82.3577 1169.01 Q79.3022 1164.4 79.3022 1155.67 Q79.3022 1146.92 82.3577 1142.34 Q85.4364 1137.73 91.2465 1137.73 Z" fill="#000000" fill-rule="evenodd" fill-opacity="1" /><path clip-path="url(#clip730)" d="M 0 0 M118.26 1141.44 Q114.649 1141.44 112.82 1145 Q111.015 1148.54 111.015 1155.67 Q111.015 1162.78 112.82 1166.35 Q114.649 1169.89 118.26 1169.89 Q121.895 1169.89 123.7 1166.35 Q125.529 1162.78 125.529 1155.67 Q125.529 1148.54 123.7 1145 Q121.895 1141.44 118.26 1141.44 M118.26 1137.73 Q124.07 1137.73 127.126 1142.34 Q130.205 1146.92 130.205 1155.67 Q130.205 1164.4 127.126 1169.01 Q124.07 1173.59 118.26 1173.59 Q112.45 1173.59 109.371 1169.01 Q106.316 1164.4 106.316 1155.67 Q106.316 1146.92 109.371 1142.34 Q112.45 1137.73 118.26 1137.73 Z" fill="#000000" fill-rule="evenodd" fill-opacity="1" /><path clip-path="url(#clip730)" d="M 0 0 M66.5939 850.201 L54.7884 868.65 L66.5939 868.65 L66.5939 850.201 M65.367 846.127 L71.2466 846.127 L71.2466 868.65 L76.1772 868.65 L76.1772 872.539 L71.2466 872.539 L71.2466 880.687 L66.5939 880.687 L66.5939 872.539 L50.9921 872.539 L50.9921 868.025 L65.367 846.127 Z" fill="#000000" fill-rule="evenodd" fill-opacity="1" /><path clip-path="url(#clip730)" d="M 0 0 M91.2465 849.205 Q87.6354 849.205 85.8068 852.77 Q84.0012 856.312 84.0012 863.441 Q84.0012 870.548 85.8068 874.113 Q87.6354 877.654 91.2465 877.654 Q94.8808 877.654 96.6863 874.113 Q98.515 870.548 98.515 863.441 Q98.515 856.312 96.6863 852.77 Q94.8808 849.205 91.2465 849.205 M91.2465 845.502 Q97.0567 845.502 100.112 850.108 Q103.191 854.691 103.191 863.441 Q103.191 872.168 100.112 876.775 Q97.0567 881.358 91.2465 881.358 Q85.4364 881.358 82.3577 876.775 Q79.3022 872.168 79.3022 863.441 Q79.3022 854.691 82.3577 850.108 Q85.4364 845.502 91.2465 845.502 Z" fill="#000000" fill-rule="evenodd" fill-opacity="1" /><path clip-path="url(#clip730)" d="M 0 0 M118.26 849.205 Q114.649 849.205 112.82 852.77 Q111.015 856.312 111.015 863.441 Q111.015 870.548 112.82 874.113 Q114.649 877.654 118.26 877.654 Q121.895 877.654 123.7 874.113 Q125.529 870.548 125.529 863.441 Q125.529 856.312 123.7 852.77 Q121.895 849.205 118.26 849.205 M118.26 845.502 Q124.07 845.502 127.126 850.108 Q130.205 854.691 130.205 863.441 Q130.205 872.168 127.126 876.775 Q124.07 881.358 118.26 881.358 Q112.45 881.358 109.371 876.775 Q106.316 872.168 106.316 863.441 Q106.316 854.691 109.371 850.108 Q112.45 845.502 118.26 845.502 Z" fill="#000000" fill-rule="evenodd" fill-opacity="1" /><path clip-path="url(#clip730)" d="M 0 0 M64.6495 569.31 Q61.5013 569.31 59.6495 571.463 Q57.8208 573.616 57.8208 577.366 Q57.8208 581.092 59.6495 583.268 Q61.5013 585.421 64.6495 585.421 Q67.7976 585.421 69.6263 583.268 Q71.4781 581.092 71.4781 577.366 Q71.4781 573.616 69.6263 571.463 Q67.7976 569.31 64.6495 569.31 M73.9318 554.657 L73.9318 558.917 Q72.1726 558.083 70.367 557.643 Q68.5846 557.204 66.8254 557.204 Q62.1958 557.204 59.7421 560.329 Q57.3115 563.454 56.9643 569.773 Q58.33 567.759 60.3902 566.694 Q62.4504 565.606 64.9272 565.606 Q70.1355 565.606 73.1448 568.778 Q76.1772 571.926 76.1772 577.366 Q76.1772 582.69 73.029 585.907 Q69.8809 589.125 64.6495 589.125 Q58.6541 589.125 55.4828 584.541 Q52.3116 579.935 52.3116 571.208 Q52.3116 563.014 56.2004 558.153 Q60.0893 553.268 66.6402 553.268 Q68.3994 553.268 70.1818 553.616 Q71.9874 553.963 73.9318 554.657 Z" fill="#000000" fill-rule="evenodd" fill-opacity="1" /><path clip-path="url(#clip730)" d="M 0 0 M91.2465 556.972 Q87.6354 556.972 85.8068 560.537 Q84.0012 564.079 84.0012 571.208 Q84.0012 578.315 85.8068 581.879 Q87.6354 585.421 91.2465 585.421 Q94.8808 585.421 96.6863 581.879 Q98.515 578.315 98.515 571.208 Q98.515 564.079 96.6863 560.537 Q94.8808 556.972 91.2465 556.972 M91.2465 553.268 Q97.0567 553.268 100.112 557.875 Q103.191 562.458 103.191 571.208 Q103.191 579.935 100.112 584.541 Q97.0567 589.125 91.2465 589.125 Q85.4364 589.125 82.3577 584.541 Q79.3022 579.935 79.3022 571.208 Q79.3022 562.458 82.3577 557.875 Q85.4364 553.268 91.2465 553.268 Z" fill="#000000" fill-rule="evenodd" fill-opacity="1" /><path clip-path="url(#clip730)" d="M 0 0 M118.26 556.972 Q114.649 556.972 112.82 560.537 Q111.015 564.079 111.015 571.208 Q111.015 578.315 112.82 581.879 Q114.649 585.421 118.26 585.421 Q121.895 585.421 123.7 581.879 Q125.529 578.315 125.529 571.208 Q125.529 564.079 123.7 560.537 Q121.895 556.972 118.26 556.972 M118.26 553.268 Q124.07 553.268 127.126 557.875 Q130.205 562.458 130.205 571.208 Q130.205 579.935 127.126 584.541 Q124.07 589.125 118.26 589.125 Q112.45 589.125 109.371 584.541 Q106.316 579.935 106.316 571.208 Q106.316 562.458 109.371 557.875 Q112.45 553.268 118.26 553.268 Z" fill="#000000" fill-rule="evenodd" fill-opacity="1" /><path clip-path="url(#clip730)" d="M 0 0 M64.3254 279.808 Q60.9921 279.808 59.0708 281.591 Q57.1726 283.373 57.1726 286.498 Q57.1726 289.623 59.0708 291.405 Q60.9921 293.188 64.3254 293.188 Q67.6587 293.188 69.58 291.405 Q71.5013 289.6 71.5013 286.498 Q71.5013 283.373 69.58 281.591 Q67.6819 279.808 64.3254 279.808 M59.6495 277.818 Q56.6402 277.077 54.9504 275.017 Q53.2838 272.956 53.2838 269.993 Q53.2838 265.85 56.2236 263.443 Q59.1865 261.035 64.3254 261.035 Q69.4874 261.035 72.4272 263.443 Q75.367 265.85 75.367 269.993 Q75.367 272.956 73.6772 275.017 Q72.0105 277.077 69.0244 277.818 Q72.404 278.605 74.279 280.896 Q76.1772 283.188 76.1772 286.498 Q76.1772 291.521 73.0985 294.206 Q70.0429 296.891 64.3254 296.891 Q58.6078 296.891 55.5291 294.206 Q52.4736 291.521 52.4736 286.498 Q52.4736 283.188 54.3717 280.896 Q56.2699 278.605 59.6495 277.818 M57.9365 270.433 Q57.9365 273.118 59.6032 274.623 Q61.293 276.128 64.3254 276.128 Q67.3346 276.128 69.0244 274.623 Q70.7374 273.118 70.7374 270.433 Q70.7374 267.748 69.0244 266.244 Q67.3346 264.739 64.3254 264.739 Q61.293 264.739 59.6032 266.244 Q57.9365 267.748 57.9365 270.433 Z" fill="#000000" fill-rule="evenodd" fill-opacity="1" /><path clip-path="url(#clip730)" d="M 0 0 M91.2465 264.739 Q87.6354 264.739 85.8068 268.304 Q84.0012 271.845 84.0012 278.975 Q84.0012 286.081 85.8068 289.646 Q87.6354 293.188 91.2465 293.188 Q94.8808 293.188 96.6863 289.646 Q98.515 286.081 98.515 278.975 Q98.515 271.845 96.6863 268.304 Q94.8808 264.739 91.2465 264.739 M91.2465 261.035 Q97.0567 261.035 100.112 265.642 Q103.191 270.225 103.191 278.975 Q103.191 287.702 100.112 292.308 Q97.0567 296.891 91.2465 296.891 Q85.4364 296.891 82.3577 292.308 Q79.3022 287.702 79.3022 278.975 Q79.3022 270.225 82.3577 265.642 Q85.4364 261.035 91.2465 261.035 Z" fill="#000000" fill-rule="evenodd" fill-opacity="1" /><path clip-path="url(#clip730)" d="M 0 0 M118.26 264.739 Q114.649 264.739 112.82 268.304 Q111.015 271.845 111.015 278.975 Q111.015 286.081 112.82 289.646 Q114.649 293.188 118.26 293.188 Q121.895 293.188 123.7 289.646 Q125.529 286.081 125.529 278.975 Q125.529 271.845 123.7 268.304 Q121.895 264.739 118.26 264.739 M118.26 261.035 Q124.07 261.035 127.126 265.642 Q130.205 270.225 130.205 278.975 Q130.205 287.702 127.126 292.308 Q124.07 296.891 118.26 296.891 Q112.45 296.891 109.371 292.308 Q106.316 287.702 106.316 278.975 Q106.316 270.225 109.371 265.642 Q112.45 261.035 118.26 261.035 Z" fill="#000000" fill-rule="evenodd" fill-opacity="1" /><path clip-path="url(#clip730)" d="M 0 0 M1183.67 18.8205 L1183.67 65.8515 L1193.55 65.8515 Q1206.07 65.8515 1211.86 60.1802 Q1217.7 54.509 1217.7 42.2752 Q1217.7 30.1225 1211.86 24.4918 Q1206.07 18.8205 1193.55 18.8205 L1183.67 18.8205 M1175.48 12.096 L1192.3 12.096 Q1209.88 12.096 1218.1 19.4281 Q1226.32 26.7198 1226.32 42.2752 Q1226.32 57.9117 1218.06 65.2439 Q1209.8 72.576 1192.3 72.576 L1175.48 72.576 L1175.48 12.096 Z" fill="#000000" fill-rule="evenodd" fill-opacity="1" /><path clip-path="url(#clip730)" d="M 0 0 M1254.76 49.7694 Q1245.73 49.7694 1242.24 51.8354 Q1238.76 53.9013 1238.76 58.8839 Q1238.76 62.8538 1241.35 65.2034 Q1243.99 67.5124 1248.48 67.5124 Q1254.68 67.5124 1258.41 63.1374 Q1262.17 58.7219 1262.17 51.4303 L1262.17 49.7694 L1254.76 49.7694 M1269.63 46.6907 L1269.63 72.576 L1262.17 72.576 L1262.17 65.6895 Q1259.62 69.8214 1255.81 71.8063 Q1252.01 73.7508 1246.5 73.7508 Q1239.53 73.7508 1235.4 69.8619 Q1231.31 65.9325 1231.31 59.3701 Q1231.31 51.7138 1236.41 47.825 Q1241.56 43.9361 1251.72 43.9361 L1262.17 43.9361 L1262.17 43.2069 Q1262.17 38.0623 1258.77 35.2672 Q1255.41 32.4315 1249.29 32.4315 Q1245.4 32.4315 1241.72 33.3632 Q1238.03 34.295 1234.63 36.1584 L1234.63 29.2718 Q1238.72 27.692 1242.57 26.9223 Q1246.42 26.1121 1250.06 26.1121 Q1259.91 26.1121 1264.77 31.2163 Q1269.63 36.3204 1269.63 46.6907 Z" fill="#000000" fill-rule="evenodd" fill-opacity="1" /><path clip-path="url(#clip730)" d="M 0 0 M1284.82 14.324 L1284.82 27.2059 L1300.17 27.2059 L1300.17 32.9987 L1284.82 32.9987 L1284.82 57.6282 Q1284.82 63.1779 1286.32 64.7578 Q1287.86 66.3376 1292.52 66.3376 L1300.17 66.3376 L1300.17 72.576 L1292.52 72.576 Q1283.89 72.576 1280.61 69.3758 Q1277.32 66.1351 1277.32 57.6282 L1277.32 32.9987 L1271.86 32.9987 L1271.86 27.2059 L1277.32 27.2059 L1277.32 14.324 L1284.82 14.324 Z" fill="#000000" fill-rule="evenodd" fill-opacity="1" /><path clip-path="url(#clip730)" d="M 0 0 M1328.61 49.7694 Q1319.58 49.7694 1316.09 51.8354 Q1312.61 53.9013 1312.61 58.8839 Q1312.61 62.8538 1315.2 65.2034 Q1317.83 67.5124 1322.33 67.5124 Q1328.53 67.5124 1332.25 63.1374 Q1336.02 58.7219 1336.02 51.4303 L1336.02 49.7694 L1328.61 49.7694 M1343.48 46.6907 L1343.48 72.576 L1336.02 72.576 L1336.02 65.6895 Q1333.47 69.8214 1329.66 71.8063 Q1325.85 73.7508 1320.35 73.7508 Q1313.38 73.7508 1309.25 69.8619 Q1305.15 65.9325 1305.15 59.3701 Q1305.15 51.7138 1310.26 47.825 Q1315.4 43.9361 1325.57 43.9361 L1336.02 43.9361 L1336.02 43.2069 Q1336.02 38.0623 1332.62 35.2672 Q1329.26 32.4315 1323.14 32.4315 Q1319.25 32.4315 1315.57 33.3632 Q1311.88 34.295 1308.48 36.1584 L1308.48 29.2718 Q1312.57 27.692 1316.42 26.9223 Q1320.26 26.1121 1323.91 26.1121 Q1333.75 26.1121 1338.61 31.2163 Q1343.48 36.3204 1343.48 46.6907 Z" fill="#000000" fill-rule="evenodd" fill-opacity="1" /><polyline clip-path="url(#clip732)" style="stroke:#009af9; stroke-width:4; stroke-opacity:1; fill:none" points="
  228.088,1447.87 228.088,1360.2 262.468,1360.2 262.468,1287.14 296.848,1287.14 331.227,1287.14 331.227,1170.25 365.607,1170.25 365.607,1126.42 
  399.987,1126.42 399.987,1067.97 434.367,1067.97 434.367,1009.52 468.746,1009.52 468.746,936.465 503.126,936.465 503.126,790.348 537.506,790.348 537.506,834.183 
  571.886,834.183 571.886,921.853 606.265,921.853 606.265,936.465 640.645,936.465 675.025,936.465 709.405,936.465 709.405,1155.64 
  743.784,1155.64 743.784,1111.8 778.164,1111.8 778.164,1155.64 812.544,1155.64 812.544,1287.14 846.923,1287.14 846.923,1389.43 881.303,1389.43 881.303,1330.98 
  915.683,1330.98 915.683,1374.81 950.063,1374.81 950.063,1418.65 984.442,1418.65 984.442,1374.81 1018.82,1374.81 1018.82,1433.26 1053.2,1433.26 
  1087.58,1433.26 1121.96,1433.26 1121.96,1447.87 1156.34,1447.87 1156.34,1374.81 1190.72,1374.81 1225.1,1374.81 1225.1,1345.59 
  1259.48,1345.59 1259.48,1243.31 1293.86,1243.31 1293.86,1214.09 1328.24,1214.09 1328.24,1053.36 1362.62,1053.36 1362.62,965.688 1397,965.688 1397,834.183 
  1431.38,834.183 1431.38,644.232 1465.76,644.232 1465.76,615.008 1500.14,615.008 1500.14,162.047 1534.52,162.047 1534.52,366.61 1568.9,366.61 1568.9,395.833 
  1603.28,395.833 1603.28,366.61 1637.66,366.61 1637.66,439.668 1672.04,439.668 1672.04,381.222 1706.42,381.222 1706.42,615.008 1740.8,615.008 1740.8,527.338 
  1775.18,527.338 1775.18,731.902 1809.56,731.902 1809.56,994.912 1843.94,994.912 1843.94,878.018 1878.32,878.018 1878.32,1214.09 1912.7,1214.09 1912.7,1257.92 
  1947.08,1257.92 1947.08,1345.59 1981.45,1345.59 1981.45,1389.43 2015.83,1389.43 2015.83,1418.65 2050.21,1418.65 2050.21,1389.43 2084.59,1389.43 2084.59,1447.87 
  2118.97,1447.87 2153.35,1447.87 2187.73,1447.87 2222.11,1447.87 2256.49,1447.87 
  2290.87,1447.87 
  "/>
<path clip-path="url(#clip730)" d="
M1940.93 289.865 L2279.87 289.865 L2279.87 168.905 L1940.93 168.905  Z
  " fill="#ffffff" fill-rule="evenodd" fill-opacity="1"/>
<polyline clip-path="url(#clip730)" style="stroke:#000000; stroke-width:4; stroke-opacity:1; fill:none" points="
  1940.93,289.865 2279.87,289.865 2279.87,168.905 1940.93,168.905 1940.93,289.865 
  "/>
<polyline clip-path="url(#clip730)" style="stroke:#009af9; stroke-width:4; stroke-opacity:1; fill:none" points="
  1965.22,229.385 2110.99,229.385 
  "/>
<path clip-path="url(#clip730)" d="M 0 0 M2139.96 215.947 L2139.96 242.822 L2145.61 242.822 Q2152.76 242.822 2156.07 239.581 Q2159.41 236.341 2159.41 229.35 Q2159.41 222.406 2156.07 219.188 Q2152.76 215.947 2145.61 215.947 L2139.96 215.947 M2135.29 212.105 L2144.89 212.105 Q2154.94 212.105 2159.64 216.294 Q2164.34 220.461 2164.34 229.35 Q2164.34 238.285 2159.61 242.475 Q2154.89 246.665 2144.89 246.665 L2135.29 246.665 L2135.29 212.105 Z" fill="#000000" fill-rule="evenodd" fill-opacity="1" /><path clip-path="url(#clip730)" d="M 0 0 M2180.59 233.632 Q2175.42 233.632 2173.43 234.813 Q2171.44 235.993 2171.44 238.841 Q2171.44 241.109 2172.92 242.452 Q2174.43 243.771 2177 243.771 Q2180.54 243.771 2182.67 241.271 Q2184.82 238.748 2184.82 234.581 L2184.82 233.632 L2180.59 233.632 M2189.08 231.873 L2189.08 246.665 L2184.82 246.665 L2184.82 242.729 Q2183.36 245.091 2181.19 246.225 Q2179.01 247.336 2175.86 247.336 Q2171.88 247.336 2169.52 245.114 Q2167.18 242.868 2167.18 239.118 Q2167.18 234.743 2170.1 232.521 Q2173.04 230.299 2178.85 230.299 L2184.82 230.299 L2184.82 229.882 Q2184.82 226.943 2182.88 225.345 Q2180.96 223.725 2177.46 223.725 Q2175.24 223.725 2173.13 224.257 Q2171.03 224.79 2169.08 225.855 L2169.08 221.919 Q2171.42 221.017 2173.62 220.577 Q2175.82 220.114 2177.9 220.114 Q2183.53 220.114 2186.3 223.031 Q2189.08 225.947 2189.08 231.873 Z" fill="#000000" fill-rule="evenodd" fill-opacity="1" /><path clip-path="url(#clip730)" d="M 0 0 M2197.76 213.378 L2197.76 220.739 L2206.54 220.739 L2206.54 224.049 L2197.76 224.049 L2197.76 238.123 Q2197.76 241.294 2198.62 242.197 Q2199.5 243.1 2202.16 243.1 L2206.54 243.1 L2206.54 246.665 L2202.16 246.665 Q2197.23 246.665 2195.36 244.836 Q2193.48 242.984 2193.48 238.123 L2193.48 224.049 L2190.36 224.049 L2190.36 220.739 L2193.48 220.739 L2193.48 213.378 L2197.76 213.378 Z" fill="#000000" fill-rule="evenodd" fill-opacity="1" /><path clip-path="url(#clip730)" d="M 0 0 M2222.79 233.632 Q2217.62 233.632 2215.63 234.813 Q2213.64 235.993 2213.64 238.841 Q2213.64 241.109 2215.12 242.452 Q2216.63 243.771 2219.2 243.771 Q2222.74 243.771 2224.87 241.271 Q2227.02 238.748 2227.02 234.581 L2227.02 233.632 L2222.79 233.632 M2231.28 231.873 L2231.28 246.665 L2227.02 246.665 L2227.02 242.729 Q2225.56 245.091 2223.39 246.225 Q2221.21 247.336 2218.06 247.336 Q2214.08 247.336 2211.72 245.114 Q2209.38 242.868 2209.38 239.118 Q2209.38 234.743 2212.3 232.521 Q2215.24 230.299 2221.05 230.299 L2227.02 230.299 L2227.02 229.882 Q2227.02 226.943 2225.08 225.345 Q2223.16 223.725 2219.66 223.725 Q2217.44 223.725 2215.33 224.257 Q2213.23 224.79 2211.28 225.855 L2211.28 221.919 Q2213.62 221.017 2215.82 220.577 Q2218.02 220.114 2220.1 220.114 Q2225.73 220.114 2228.5 223.031 Q2231.28 225.947 2231.28 231.873 Z" fill="#000000" fill-rule="evenodd" fill-opacity="1" /></svg>
