<?xml version="1.0" encoding="utf-8"?>
<svg xmlns="http://www.w3.org/2000/svg" xmlns:xlink="http://www.w3.org/1999/xlink" width="600" height="400" viewBox="0 0 2400 1600">
<defs>
  <clipPath id="clip510">
    <rect x="0" y="0" width="2400" height="1600"/>
  </clipPath>
</defs>
<path clip-path="url(#clip510)" d="M0 1600 L2400 1600 L2400 0 L0 0  Z" fill="#ffffff" fill-rule="evenodd" fill-opacity="1"/>
<defs>
  <clipPath id="clip511">
    <rect x="172" y="123" width="2182" height="1364"/>
  </clipPath>
</defs>
<path clip-path="url(#clip510)" d="M172.015 1486.45 L2352.76 1486.45 L2352.76 123.472 L172.015 123.472  Z" fill="#ffffff" fill-rule="evenodd" fill-opacity="1"/>
<polyline clip-path="url(#clip511)" style="stroke:#000000; stroke-linecap:round; stroke-linejoin:round; stroke-width:2; stroke-opacity:0.1; fill:none" points="233.734,1486.45 233.734,123.472 "/>
<polyline clip-path="url(#clip511)" style="stroke:#000000; stroke-linecap:round; stroke-linejoin:round; stroke-width:2; stroke-opacity:0.1; fill:none" points="576.618,1486.45 576.618,123.472 "/>
<polyline clip-path="url(#clip511)" style="stroke:#000000; stroke-linecap:round; stroke-linejoin:round; stroke-width:2; stroke-opacity:0.1; fill:none" points="919.502,1486.45 919.502,123.472 "/>
<polyline clip-path="url(#clip511)" style="stroke:#000000; stroke-linecap:round; stroke-linejoin:round; stroke-width:2; stroke-opacity:0.1; fill:none" points="1262.39,1486.45 1262.39,123.472 "/>
<polyline clip-path="url(#clip511)" style="stroke:#000000; stroke-linecap:round; stroke-linejoin:round; stroke-width:2; stroke-opacity:0.1; fill:none" points="1605.27,1486.45 1605.27,123.472 "/>
<polyline clip-path="url(#clip511)" style="stroke:#000000; stroke-linecap:round; stroke-linejoin:round; stroke-width:2; stroke-opacity:0.1; fill:none" points="1948.15,1486.45 1948.15,123.472 "/>
<polyline clip-path="url(#clip511)" style="stroke:#000000; stroke-linecap:round; stroke-linejoin:round; stroke-width:2; stroke-opacity:0.1; fill:none" points="2291.04,1486.45 2291.04,123.472 "/>
<polyline clip-path="url(#clip511)" style="stroke:#000000; stroke-linecap:round; stroke-linejoin:round; stroke-width:2; stroke-opacity:0.1; fill:none" points="172.015,1447.87 2352.76,1447.87 "/>
<polyline clip-path="url(#clip511)" style="stroke:#000000; stroke-linecap:round; stroke-linejoin:round; stroke-width:2; stroke-opacity:0.1; fill:none" points="172.015,1174.29 2352.76,1174.29 "/>
<polyline clip-path="url(#clip511)" style="stroke:#000000; stroke-linecap:round; stroke-linejoin:round; stroke-width:2; stroke-opacity:0.1; fill:none" points="172.015,900.713 2352.76,900.713 "/>
<polyline clip-path="url(#clip511)" style="stroke:#000000; stroke-linecap:round; stroke-linejoin:round; stroke-width:2; stroke-opacity:0.1; fill:none" points="172.015,627.133 2352.76,627.133 "/>
<polyline clip-path="url(#clip511)" style="stroke:#000000; stroke-linecap:round; stroke-linejoin:round; stroke-width:2; stroke-opacity:0.1; fill:none" points="172.015,353.553 2352.76,353.553 "/>
<polyline clip-path="url(#clip510)" style="stroke:#000000; stroke-linecap:round; stroke-linejoin:round; stroke-width:4; stroke-opacity:1; fill:none" points="172.015,1486.45 2352.76,1486.45 "/>
<polyline clip-path="url(#clip510)" style="stroke:#000000; stroke-linecap:round; stroke-linejoin:round; stroke-width:4; stroke-opacity:1; fill:none" points="233.734,1486.45 233.734,1467.55 "/>
<polyline clip-path="url(#clip510)" style="stroke:#000000; stroke-linecap:round; stroke-linejoin:round; stroke-width:4; stroke-opacity:1; fill:none" points="576.618,1486.45 576.618,1467.55 "/>
<polyline clip-path="url(#clip510)" style="stroke:#000000; stroke-linecap:round; stroke-linejoin:round; stroke-width:4; stroke-opacity:1; fill:none" points="919.502,1486.45 919.502,1467.55 "/>
<polyline clip-path="url(#clip510)" style="stroke:#000000; stroke-linecap:round; stroke-linejoin:round; stroke-width:4; stroke-opacity:1; fill:none" points="1262.39,1486.45 1262.39,1467.55 "/>
<polyline clip-path="url(#clip510)" style="stroke:#000000; stroke-linecap:round; stroke-linejoin:round; stroke-width:4; stroke-opacity:1; fill:none" points="1605.27,1486.45 1605.27,1467.55 "/>
<polyline clip-path="url(#clip510)" style="stroke:#000000; stroke-linecap:round; stroke-linejoin:round; stroke-width:4; stroke-opacity:1; fill:none" points="1948.15,1486.45 1948.15,1467.55 "/>
<polyline clip-path="url(#clip510)" style="stroke:#000000; stroke-linecap:round; stroke-linejoin:round; stroke-width:4; stroke-opacity:1; fill:none" points="2291.04,1486.45 2291.04,1467.55 "/>
<path clip-path="url(#clip510)" d="M203.676 1532.02 L233.352 1532.02 L233.352 1535.95 L203.676 1535.95 L203.676 1532.02 Z" fill="#000000" fill-rule="nonzero" fill-opacity="1" /><path clip-path="url(#clip510)" d="M247.472 1544.91 L263.792 1544.91 L263.792 1548.85 L241.847 1548.85 L241.847 1544.91 Q244.509 1542.16 249.093 1537.53 Q253.699 1532.88 254.88 1531.53 Q257.125 1529.01 258.005 1527.27 Q258.907 1525.51 258.907 1523.82 Q258.907 1521.07 256.963 1519.33 Q255.042 1517.6 251.94 1517.6 Q249.741 1517.6 247.287 1518.36 Q244.857 1519.13 242.079 1520.68 L242.079 1515.95 Q244.903 1514.82 247.357 1514.24 Q249.81 1513.66 251.847 1513.66 Q257.218 1513.66 260.412 1516.35 Q263.606 1519.03 263.606 1523.52 Q263.606 1525.65 262.796 1527.57 Q262.009 1529.47 259.903 1532.07 Q259.324 1532.74 256.222 1535.95 Q253.12 1539.15 247.472 1544.91 Z" fill="#000000" fill-rule="nonzero" fill-opacity="1" /><path clip-path="url(#clip510)" d="M546.375 1532.02 L576.051 1532.02 L576.051 1535.95 L546.375 1535.95 L546.375 1532.02 Z" fill="#000000" fill-rule="nonzero" fill-opacity="1" /><path clip-path="url(#clip510)" d="M586.953 1544.91 L594.592 1544.91 L594.592 1518.55 L586.282 1520.21 L586.282 1515.95 L594.546 1514.29 L599.222 1514.29 L599.222 1544.91 L606.861 1544.91 L606.861 1548.85 L586.953 1548.85 L586.953 1544.91 Z" fill="#000000" fill-rule="nonzero" fill-opacity="1" /><path clip-path="url(#clip510)" d="M919.502 1517.37 Q915.89 1517.37 914.062 1520.93 Q912.256 1524.47 912.256 1531.6 Q912.256 1538.71 914.062 1542.27 Q915.89 1545.82 919.502 1545.82 Q923.136 1545.82 924.941 1542.27 Q926.77 1538.71 926.77 1531.6 Q926.77 1524.47 924.941 1520.93 Q923.136 1517.37 919.502 1517.37 M919.502 1513.66 Q925.312 1513.66 928.367 1518.27 Q931.446 1522.85 931.446 1531.6 Q931.446 1540.33 928.367 1544.94 Q925.312 1549.52 919.502 1549.52 Q913.691 1549.52 910.613 1544.94 Q907.557 1540.33 907.557 1531.6 Q907.557 1522.85 910.613 1518.27 Q913.691 1513.66 919.502 1513.66 Z" fill="#000000" fill-rule="nonzero" fill-opacity="1" /><path clip-path="url(#clip510)" d="M1252.77 1544.91 L1260.41 1544.91 L1260.41 1518.55 L1252.1 1520.21 L1252.1 1515.95 L1260.36 1514.29 L1265.04 1514.29 L1265.04 1544.91 L1272.67 1544.91 L1272.67 1548.85 L1252.77 1548.85 L1252.77 1544.91 Z" fill="#000000" fill-rule="nonzero" fill-opacity="1" /><path clip-path="url(#clip510)" d="M1599.92 1544.91 L1616.24 1544.91 L1616.24 1548.85 L1594.3 1548.85 L1594.3 1544.91 Q1596.96 1542.16 1601.54 1537.53 Q1606.15 1532.88 1607.33 1531.53 Q1609.57 1529.01 1610.45 1527.27 Q1611.36 1525.51 1611.36 1523.82 Q1611.36 1521.07 1609.41 1519.33 Q1607.49 1517.6 1604.39 1517.6 Q1602.19 1517.6 1599.74 1518.36 Q1597.31 1519.13 1594.53 1520.68 L1594.53 1515.95 Q1597.35 1514.82 1599.81 1514.24 Q1602.26 1513.66 1604.3 1513.66 Q1609.67 1513.66 1612.86 1516.35 Q1616.06 1519.03 1616.06 1523.52 Q1616.06 1525.65 1615.25 1527.57 Q1614.46 1529.47 1612.35 1532.07 Q1611.77 1532.74 1608.67 1535.95 Q1605.57 1539.15 1599.92 1544.91 Z" fill="#000000" fill-rule="nonzero" fill-opacity="1" /><path clip-path="url(#clip510)" d="M1952.4 1530.21 Q1955.76 1530.93 1957.63 1533.2 Q1959.53 1535.47 1959.53 1538.8 Q1959.53 1543.92 1956.01 1546.72 Q1952.49 1549.52 1946.01 1549.52 Q1943.84 1549.52 1941.52 1549.08 Q1939.23 1548.66 1936.78 1547.81 L1936.78 1543.29 Q1938.72 1544.43 1941.03 1545.01 Q1943.35 1545.58 1945.87 1545.58 Q1950.27 1545.58 1952.56 1543.85 Q1954.88 1542.11 1954.88 1538.8 Q1954.88 1535.75 1952.72 1534.03 Q1950.6 1532.3 1946.78 1532.3 L1942.75 1532.3 L1942.75 1528.45 L1946.96 1528.45 Q1950.41 1528.45 1952.24 1527.09 Q1954.07 1525.7 1954.07 1523.11 Q1954.07 1520.45 1952.17 1519.03 Q1950.29 1517.6 1946.78 1517.6 Q1944.85 1517.6 1942.66 1518.01 Q1940.46 1518.43 1937.82 1519.31 L1937.82 1515.14 Q1940.48 1514.4 1942.79 1514.03 Q1945.13 1513.66 1947.19 1513.66 Q1952.52 1513.66 1955.62 1516.09 Q1958.72 1518.5 1958.72 1522.62 Q1958.72 1525.49 1957.08 1527.48 Q1955.43 1529.45 1952.4 1530.21 Z" fill="#000000" fill-rule="nonzero" fill-opacity="1" /><path clip-path="url(#clip510)" d="M2294.05 1518.36 L2282.24 1536.81 L2294.05 1536.81 L2294.05 1518.36 M2292.82 1514.29 L2298.7 1514.29 L2298.7 1536.81 L2303.63 1536.81 L2303.63 1540.7 L2298.7 1540.7 L2298.7 1548.85 L2294.05 1548.85 L2294.05 1540.7 L2278.44 1540.7 L2278.44 1536.19 L2292.82 1514.29 Z" fill="#000000" fill-rule="nonzero" fill-opacity="1" /><polyline clip-path="url(#clip510)" style="stroke:#000000; stroke-linecap:round; stroke-linejoin:round; stroke-width:4; stroke-opacity:1; fill:none" points="172.015,1486.45 172.015,123.472 "/>
<polyline clip-path="url(#clip510)" style="stroke:#000000; stroke-linecap:round; stroke-linejoin:round; stroke-width:4; stroke-opacity:1; fill:none" points="172.015,1447.87 190.912,1447.87 "/>
<polyline clip-path="url(#clip510)" style="stroke:#000000; stroke-linecap:round; stroke-linejoin:round; stroke-width:4; stroke-opacity:1; fill:none" points="172.015,1174.29 190.912,1174.29 "/>
<polyline clip-path="url(#clip510)" style="stroke:#000000; stroke-linecap:round; stroke-linejoin:round; stroke-width:4; stroke-opacity:1; fill:none" points="172.015,900.713 190.912,900.713 "/>
<polyline clip-path="url(#clip510)" style="stroke:#000000; stroke-linecap:round; stroke-linejoin:round; stroke-width:4; stroke-opacity:1; fill:none" points="172.015,627.133 190.912,627.133 "/>
<polyline clip-path="url(#clip510)" style="stroke:#000000; stroke-linecap:round; stroke-linejoin:round; stroke-width:4; stroke-opacity:1; fill:none" points="172.015,353.553 190.912,353.553 "/>
<path clip-path="url(#clip510)" d="M124.07 1433.67 Q120.459 1433.67 118.631 1437.24 Q116.825 1440.78 116.825 1447.91 Q116.825 1455.01 118.631 1458.58 Q120.459 1462.12 124.07 1462.12 Q127.705 1462.12 129.51 1458.58 Q131.339 1455.01 131.339 1447.91 Q131.339 1440.78 129.51 1437.24 Q127.705 1433.67 124.07 1433.67 M124.07 1429.97 Q129.881 1429.97 132.936 1434.57 Q136.015 1439.16 136.015 1447.91 Q136.015 1456.63 132.936 1461.24 Q129.881 1465.82 124.07 1465.82 Q118.26 1465.82 115.182 1461.24 Q112.126 1456.63 112.126 1447.91 Q112.126 1439.16 115.182 1434.57 Q118.26 1429.97 124.07 1429.97 Z" fill="#000000" fill-rule="nonzero" fill-opacity="1" /><path clip-path="url(#clip510)" d="M57.7745 1187.64 L74.0939 1187.64 L74.0939 1191.57 L52.1495 1191.57 L52.1495 1187.64 Q54.8115 1184.88 59.3949 1180.25 Q64.0013 1175.6 65.1819 1174.26 Q67.4272 1171.74 68.3068 1170 Q69.2096 1168.24 69.2096 1166.55 Q69.2096 1163.8 67.2652 1162.06 Q65.3439 1160.32 62.2421 1160.32 Q60.043 1160.32 57.5893 1161.09 Q55.1588 1161.85 52.381 1163.4 L52.381 1158.68 Q55.2051 1157.55 57.6588 1156.97 Q60.1124 1156.39 62.1495 1156.39 Q67.5198 1156.39 70.7142 1159.07 Q73.9087 1161.76 73.9087 1166.25 Q73.9087 1168.38 73.0985 1170.3 Q72.3115 1172.2 70.205 1174.79 Q69.6263 1175.46 66.5245 1178.68 Q63.4226 1181.87 57.7745 1187.64 Z" fill="#000000" fill-rule="nonzero" fill-opacity="1" /><path clip-path="url(#clip510)" d="M93.9086 1160.09 Q90.2975 1160.09 88.4688 1163.66 Q86.6632 1167.2 86.6632 1174.33 Q86.6632 1181.43 88.4688 1185 Q90.2975 1188.54 93.9086 1188.54 Q97.5428 1188.54 99.3483 1185 Q101.177 1181.43 101.177 1174.33 Q101.177 1167.2 99.3483 1163.66 Q97.5428 1160.09 93.9086 1160.09 M93.9086 1156.39 Q99.7187 1156.39 102.774 1160.99 Q105.853 1165.58 105.853 1174.33 Q105.853 1183.05 102.774 1187.66 Q99.7187 1192.24 93.9086 1192.24 Q88.0984 1192.24 85.0197 1187.66 Q81.9642 1183.05 81.9642 1174.33 Q81.9642 1165.58 85.0197 1160.99 Q88.0984 1156.39 93.9086 1156.39 Z" fill="#000000" fill-rule="nonzero" fill-opacity="1" /><path clip-path="url(#clip510)" d="M124.07 1160.09 Q120.459 1160.09 118.631 1163.66 Q116.825 1167.2 116.825 1174.33 Q116.825 1181.43 118.631 1185 Q120.459 1188.54 124.07 1188.54 Q127.705 1188.54 129.51 1185 Q131.339 1181.43 131.339 1174.33 Q131.339 1167.2 129.51 1163.66 Q127.705 1160.09 124.07 1160.09 M124.07 1156.39 Q129.881 1156.39 132.936 1160.99 Q136.015 1165.58 136.015 1174.33 Q136.015 1183.05 132.936 1187.66 Q129.881 1192.24 124.07 1192.24 Q118.26 1192.24 115.182 1187.66 Q112.126 1183.05 112.126 1174.33 Q112.126 1165.58 115.182 1160.99 Q118.26 1156.39 124.07 1156.39 Z" fill="#000000" fill-rule="nonzero" fill-opacity="1" /><path clip-path="url(#clip510)" d="M66.5939 887.507 L54.7884 905.956 L66.5939 905.956 L66.5939 887.507 M65.367 883.433 L71.2466 883.433 L71.2466 905.956 L76.1772 905.956 L76.1772 909.845 L71.2466 909.845 L71.2466 917.993 L66.5939 917.993 L66.5939 909.845 L50.9921 909.845 L50.9921 905.331 L65.367 883.433 Z" fill="#000000" fill-rule="nonzero" fill-opacity="1" /><path clip-path="url(#clip510)" d="M93.9086 886.512 Q90.2975 886.512 88.4688 890.076 Q86.6632 893.618 86.6632 900.748 Q86.6632 907.854 88.4688 911.419 Q90.2975 914.961 93.9086 914.961 Q97.5428 914.961 99.3483 911.419 Q101.177 907.854 101.177 900.748 Q101.177 893.618 99.3483 890.076 Q97.5428 886.512 93.9086 886.512 M93.9086 882.808 Q99.7187 882.808 102.774 887.414 Q105.853 891.998 105.853 900.748 Q105.853 909.475 102.774 914.081 Q99.7187 918.664 93.9086 918.664 Q88.0984 918.664 85.0197 914.081 Q81.9642 909.475 81.9642 900.748 Q81.9642 891.998 85.0197 887.414 Q88.0984 882.808 93.9086 882.808 Z" fill="#000000" fill-rule="nonzero" fill-opacity="1" /><path clip-path="url(#clip510)" d="M124.07 886.512 Q120.459 886.512 118.631 890.076 Q116.825 893.618 116.825 900.748 Q116.825 907.854 118.631 911.419 Q120.459 914.961 124.07 914.961 Q127.705 914.961 129.51 911.419 Q131.339 907.854 131.339 900.748 Q131.339 893.618 129.51 890.076 Q127.705 886.512 124.07 886.512 M124.07 882.808 Q129.881 882.808 132.936 887.414 Q136.015 891.998 136.015 900.748 Q136.015 909.475 132.936 914.081 Q129.881 918.664 124.07 918.664 Q118.26 918.664 115.182 914.081 Q112.126 909.475 112.126 900.748 Q112.126 891.998 115.182 887.414 Q118.26 882.808 124.07 882.808 Z" fill="#000000" fill-rule="nonzero" fill-opacity="1" /><path clip-path="url(#clip510)" d="M64.3254 625.27 Q61.1773 625.27 59.3254 627.422 Q57.4967 629.575 57.4967 633.325 Q57.4967 637.052 59.3254 639.228 Q61.1773 641.381 64.3254 641.381 Q67.4735 641.381 69.3022 639.228 Q71.1541 637.052 71.1541 633.325 Q71.1541 629.575 69.3022 627.422 Q67.4735 625.27 64.3254 625.27 M73.6077 610.617 L73.6077 614.876 Q71.8485 614.043 70.0429 613.603 Q68.2606 613.163 66.5013 613.163 Q61.8717 613.163 59.418 616.288 Q56.9875 619.413 56.6402 625.733 Q58.006 623.719 60.0662 622.654 Q62.1263 621.566 64.6032 621.566 Q69.8115 621.566 72.8207 624.737 Q75.8531 627.885 75.8531 633.325 Q75.8531 638.649 72.705 641.867 Q69.5568 645.084 64.3254 645.084 Q58.33 645.084 55.1588 640.501 Q51.9875 635.895 51.9875 627.168 Q51.9875 618.973 55.8764 614.112 Q59.7652 609.228 66.3161 609.228 Q68.0754 609.228 69.8578 609.575 Q71.6633 609.922 73.6077 610.617 Z" fill="#000000" fill-rule="nonzero" fill-opacity="1" /><path clip-path="url(#clip510)" d="M93.9086 612.932 Q90.2975 612.932 88.4688 616.496 Q86.6632 620.038 86.6632 627.168 Q86.6632 634.274 88.4688 637.839 Q90.2975 641.381 93.9086 641.381 Q97.5428 641.381 99.3483 637.839 Q101.177 634.274 101.177 627.168 Q101.177 620.038 99.3483 616.496 Q97.5428 612.932 93.9086 612.932 M93.9086 609.228 Q99.7187 609.228 102.774 613.834 Q105.853 618.418 105.853 627.168 Q105.853 635.895 102.774 640.501 Q99.7187 645.084 93.9086 645.084 Q88.0984 645.084 85.0197 640.501 Q81.9642 635.895 81.9642 627.168 Q81.9642 618.418 85.0197 613.834 Q88.0984 609.228 93.9086 609.228 Z" fill="#000000" fill-rule="nonzero" fill-opacity="1" /><path clip-path="url(#clip510)" d="M124.07 612.932 Q120.459 612.932 118.631 616.496 Q116.825 620.038 116.825 627.168 Q116.825 634.274 118.631 637.839 Q120.459 641.381 124.07 641.381 Q127.705 641.381 129.51 637.839 Q131.339 634.274 131.339 627.168 Q131.339 620.038 129.51 616.496 Q127.705 612.932 124.07 612.932 M124.07 609.228 Q129.881 609.228 132.936 613.834 Q136.015 618.418 136.015 627.168 Q136.015 635.895 132.936 640.501 Q129.881 645.084 124.07 645.084 Q118.26 645.084 115.182 640.501 Q112.126 635.895 112.126 627.168 Q112.126 618.418 115.182 613.834 Q118.26 609.228 124.07 609.228 Z" fill="#000000" fill-rule="nonzero" fill-opacity="1" /><path clip-path="url(#clip510)" d="M63.7467 354.421 Q60.4134 354.421 58.4921 356.203 Q56.5939 357.986 56.5939 361.111 Q56.5939 364.236 58.4921 366.018 Q60.4134 367.801 63.7467 367.801 Q67.08 367.801 69.0013 366.018 Q70.9226 364.213 70.9226 361.111 Q70.9226 357.986 69.0013 356.203 Q67.1032 354.421 63.7467 354.421 M59.0708 352.43 Q56.0615 351.69 54.3717 349.629 Q52.7051 347.569 52.7051 344.606 Q52.7051 340.463 55.6449 338.055 Q58.6078 335.648 63.7467 335.648 Q68.9087 335.648 71.8485 338.055 Q74.7883 340.463 74.7883 344.606 Q74.7883 347.569 73.0985 349.629 Q71.4318 351.69 68.4457 352.43 Q71.8253 353.217 73.7003 355.509 Q75.5985 357.801 75.5985 361.111 Q75.5985 366.134 72.5198 368.819 Q69.4642 371.504 63.7467 371.504 Q58.0291 371.504 54.9504 368.819 Q51.8949 366.134 51.8949 361.111 Q51.8949 357.801 53.793 355.509 Q55.6912 353.217 59.0708 352.43 M57.3578 345.046 Q57.3578 347.731 59.0245 349.236 Q60.7143 350.74 63.7467 350.74 Q66.7559 350.74 68.4457 349.236 Q70.1587 347.731 70.1587 345.046 Q70.1587 342.361 68.4457 340.856 Q66.7559 339.352 63.7467 339.352 Q60.7143 339.352 59.0245 340.856 Q57.3578 342.361 57.3578 345.046 Z" fill="#000000" fill-rule="nonzero" fill-opacity="1" /><path clip-path="url(#clip510)" d="M93.9086 339.352 Q90.2975 339.352 88.4688 342.916 Q86.6632 346.458 86.6632 353.588 Q86.6632 360.694 88.4688 364.259 Q90.2975 367.801 93.9086 367.801 Q97.5428 367.801 99.3483 364.259 Q101.177 360.694 101.177 353.588 Q101.177 346.458 99.3483 342.916 Q97.5428 339.352 93.9086 339.352 M93.9086 335.648 Q99.7187 335.648 102.774 340.254 Q105.853 344.838 105.853 353.588 Q105.853 362.314 102.774 366.921 Q99.7187 371.504 93.9086 371.504 Q88.0984 371.504 85.0197 366.921 Q81.9642 362.314 81.9642 353.588 Q81.9642 344.838 85.0197 340.254 Q88.0984 335.648 93.9086 335.648 Z" fill="#000000" fill-rule="nonzero" fill-opacity="1" /><path clip-path="url(#clip510)" d="M124.07 339.352 Q120.459 339.352 118.631 342.916 Q116.825 346.458 116.825 353.588 Q116.825 360.694 118.631 364.259 Q120.459 367.801 124.07 367.801 Q127.705 367.801 129.51 364.259 Q131.339 360.694 131.339 353.588 Q131.339 346.458 129.51 342.916 Q127.705 339.352 124.07 339.352 M124.07 335.648 Q129.881 335.648 132.936 340.254 Q136.015 344.838 136.015 353.588 Q136.015 362.314 132.936 366.921 Q129.881 371.504 124.07 371.504 Q118.26 371.504 115.182 366.921 Q112.126 362.314 112.126 353.588 Q112.126 344.838 115.182 340.254 Q118.26 335.648 124.07 335.648 Z" fill="#000000" fill-rule="nonzero" fill-opacity="1" /><path clip-path="url(#clip510)" d="M1179.36 18.8205 L1179.36 65.8515 L1189.25 65.8515 Q1201.76 65.8515 1207.56 60.1802 Q1213.39 54.509 1213.39 42.2752 Q1213.39 30.1225 1207.56 24.4918 Q1201.76 18.8205 1189.25 18.8205 L1179.36 18.8205 M1171.18 12.096 L1187.99 12.096 Q1205.57 12.096 1213.79 19.4281 Q1222.02 26.7198 1222.02 42.2752 Q1222.02 57.9117 1213.75 65.2439 Q1205.49 72.576 1187.99 72.576 L1171.18 72.576 L1171.18 12.096 Z" fill="#000000" fill-rule="nonzero" fill-opacity="1" /><path clip-path="url(#clip510)" d="M1255.36 49.7694 Q1246.32 49.7694 1242.84 51.8354 Q1239.36 53.9013 1239.36 58.8839 Q1239.36 62.8538 1241.95 65.2034 Q1244.58 67.5124 1249.08 67.5124 Q1255.28 67.5124 1259 63.1374 Q1262.77 58.7219 1262.77 51.4303 L1262.77 49.7694 L1255.36 49.7694 M1270.22 46.6907 L1270.22 72.576 L1262.77 72.576 L1262.77 65.6895 Q1260.22 69.8214 1256.41 71.8063 Q1252.6 73.7508 1247.09 73.7508 Q1240.13 73.7508 1235.99 69.8619 Q1231.9 65.9325 1231.9 59.3701 Q1231.9 51.7138 1237.01 47.825 Q1242.15 43.9361 1252.32 43.9361 L1262.77 43.9361 L1262.77 43.2069 Q1262.77 38.0623 1259.37 35.2672 Q1256.01 32.4315 1249.89 32.4315 Q1246 32.4315 1242.31 33.3632 Q1238.63 34.295 1235.22 36.1584 L1235.22 29.2718 Q1239.32 27.692 1243.16 26.9223 Q1247.01 26.1121 1250.66 26.1121 Q1260.5 26.1121 1265.36 31.2163 Q1270.22 36.3204 1270.22 46.6907 Z" fill="#000000" fill-rule="nonzero" fill-opacity="1" /><path clip-path="url(#clip510)" d="M1292.95 14.324 L1292.95 27.2059 L1308.3 27.2059 L1308.3 32.9987 L1292.95 32.9987 L1292.95 57.6282 Q1292.95 63.1779 1294.45 64.7578 Q1295.99 66.3376 1300.65 66.3376 L1308.3 66.3376 L1308.3 72.576 L1300.65 72.576 Q1292.02 72.576 1288.74 69.3758 Q1285.46 66.1351 1285.46 57.6282 L1285.46 32.9987 L1279.99 32.9987 L1279.99 27.2059 L1285.46 27.2059 L1285.46 14.324 L1292.95 14.324 Z" fill="#000000" fill-rule="nonzero" fill-opacity="1" /><path clip-path="url(#clip510)" d="M1338.72 49.7694 Q1329.69 49.7694 1326.21 51.8354 Q1322.72 53.9013 1322.72 58.8839 Q1322.72 62.8538 1325.32 65.2034 Q1327.95 67.5124 1332.45 67.5124 Q1338.64 67.5124 1342.37 63.1374 Q1346.14 58.7219 1346.14 51.4303 L1346.14 49.7694 L1338.72 49.7694 M1353.59 46.6907 L1353.59 72.576 L1346.14 72.576 L1346.14 65.6895 Q1343.59 69.8214 1339.78 71.8063 Q1335.97 73.7508 1330.46 73.7508 Q1323.49 73.7508 1319.36 69.8619 Q1315.27 65.9325 1315.27 59.3701 Q1315.27 51.7138 1320.37 47.825 Q1325.52 43.9361 1335.69 43.9361 L1346.14 43.9361 L1346.14 43.2069 Q1346.14 38.0623 1342.74 35.2672 Q1339.37 32.4315 1333.26 32.4315 Q1329.37 32.4315 1325.68 33.3632 Q1321.99 34.295 1318.59 36.1584 L1318.59 29.2718 Q1322.68 27.692 1326.53 26.9223 Q1330.38 26.1121 1334.03 26.1121 Q1343.87 26.1121 1348.73 31.2163 Q1353.59 36.3204 1353.59 46.6907 Z" fill="#000000" fill-rule="nonzero" fill-opacity="1" /><polyline clip-path="url(#clip511)" style="stroke:#009af9; stroke-linecap:round; stroke-linejoin:round; stroke-width:4; stroke-opacity:1; fill:none" points="233.734,1447.87 233.734,1324.76 268.022,1324.76 268.022,1365.8 302.311,1365.8 302.311,1201.65 336.599,1201.65 336.599,1174.29 370.887,1174.29 370.887,1187.97 405.176,1187.97 405.176,1023.82 439.464,1023.82 439.464,928.071 473.753,928.071 473.753,1092.22 508.041,1092.22 542.329,1092.22 542.329,969.108 576.618,969.108 576.618,1023.82 610.906,1023.82 610.906,832.318 645.194,832.318 645.194,1010.15 679.483,1010.15 679.483,941.75 713.771,941.75 713.771,996.466 748.06,996.466 748.06,1119.58 782.348,1119.58 782.348,1174.29 816.636,1174.29 816.636,1256.37 850.925,1256.37 850.925,1338.44 885.213,1338.44 885.213,1352.12 919.502,1352.12 919.502,1379.48 953.79,1379.48 953.79,1434.19 988.078,1434.19 988.078,1420.52 1022.37,1420.52 1056.66,1420.52 1056.66,1434.19 1090.94,1434.19 1125.23,1434.19 1125.23,1393.16 1159.52,1393.16 1159.52,1420.52 1193.81,1420.52 1193.81,1406.84 1228.1,1406.84 1228.1,1311.08 1262.39,1311.08 1262.39,1270.05 1296.67,1270.05 1296.67,1160.61 1330.96,1160.61 1330.96,1064.86 1365.25,1064.86 1365.25,1119.58 1399.54,1119.58 1399.54,709.207 1433.83,709.207 1433.83,640.812 1468.12,640.812 1468.12,709.207 1502.4,709.207 1502.4,476.664 1536.69,476.664 1536.69,517.701 1570.98,517.701 1570.98,257.8 1605.27,257.8 1605.27,162.047 1639.56,162.047 1639.56,353.553 1673.85,353.553 1673.85,435.627 1708.13,435.627 1708.13,709.207 1742.42,709.207 1742.42,804.96 1776.71,804.96 1776.71,969.108 1811,969.108 1811,928.071 1845.29,928.071 1845.29,1078.54 1879.58,1078.54 1879.58,1270.05 1913.86,1270.05 1913.86,1229.01 1948.15,1229.01 1948.15,1352.12 1982.44,1352.12 1982.44,1324.76 2016.73,1324.76 2016.73,1434.19 2051.02,1434.19 2051.02,1420.52 2085.31,1420.52 2085.31,1434.19 2119.59,1434.19 2119.59,1447.87 2153.88,1447.87 2188.17,1447.87 2222.46,1447.87 2256.75,1447.87 2291.04,1447.87 "/>
<path clip-path="url(#clip510)" d="M1957.75 272.585 L2280.06 272.585 L2280.06 168.905 L1957.75 168.905  Z" fill="#ffffff" fill-rule="evenodd" fill-opacity="1"/>
<polyline clip-path="url(#clip510)" style="stroke:#000000; stroke-linecap:round; stroke-linejoin:round; stroke-width:4; stroke-opacity:1; fill:none" points="1957.75,272.585 2280.06,272.585 2280.06,168.905 1957.75,168.905 1957.75,272.585 "/>
<polyline clip-path="url(#clip510)" style="stroke:#009af9; stroke-linecap:round; stroke-linejoin:round; stroke-width:4; stroke-opacity:1; fill:none" points="1981.99,220.745 2127.37,220.745 "/>
<path clip-path="url(#clip510)" d="M2156.27 207.307 L2156.27 234.182 L2161.92 234.182 Q2169.08 234.182 2172.39 230.941 Q2175.72 227.701 2175.72 220.71 Q2175.72 213.766 2172.39 210.548 Q2169.08 207.307 2161.92 207.307 L2156.27 207.307 M2151.6 203.465 L2161.2 203.465 Q2171.25 203.465 2175.95 207.654 Q2180.65 211.821 2180.65 220.71 Q2180.65 229.645 2175.93 233.835 Q2171.2 238.025 2161.2 238.025 L2151.6 238.025 L2151.6 203.465 Z" fill="#000000" fill-rule="nonzero" fill-opacity="1" /><path clip-path="url(#clip510)" d="M2199.7 224.992 Q2194.54 224.992 2192.55 226.173 Q2190.56 227.353 2190.56 230.201 Q2190.56 232.469 2192.04 233.812 Q2193.54 235.131 2196.11 235.131 Q2199.65 235.131 2201.78 232.631 Q2203.94 230.108 2203.94 225.941 L2203.94 224.992 L2199.7 224.992 M2208.2 223.233 L2208.2 238.025 L2203.94 238.025 L2203.94 234.089 Q2202.48 236.451 2200.3 237.585 Q2198.13 238.696 2194.98 238.696 Q2191 238.696 2188.64 236.474 Q2186.3 234.228 2186.3 230.478 Q2186.3 226.103 2189.21 223.881 Q2192.15 221.659 2197.96 221.659 L2203.94 221.659 L2203.94 221.242 Q2203.94 218.303 2201.99 216.705 Q2200.07 215.085 2196.58 215.085 Q2194.35 215.085 2192.25 215.617 Q2190.14 216.15 2188.2 217.215 L2188.2 213.279 Q2190.53 212.377 2192.73 211.937 Q2194.93 211.474 2197.01 211.474 Q2202.64 211.474 2205.42 214.391 Q2208.2 217.307 2208.2 223.233 Z" fill="#000000" fill-rule="nonzero" fill-opacity="1" /><path clip-path="url(#clip510)" d="M2221.18 204.738 L2221.18 212.099 L2229.95 212.099 L2229.95 215.409 L2221.18 215.409 L2221.18 229.483 Q2221.18 232.654 2222.04 233.557 Q2222.92 234.46 2225.58 234.46 L2229.95 234.46 L2229.95 238.025 L2225.58 238.025 Q2220.65 238.025 2218.77 236.196 Q2216.9 234.344 2216.9 229.483 L2216.9 215.409 L2213.77 215.409 L2213.77 212.099 L2216.9 212.099 L2216.9 204.738 L2221.18 204.738 Z" fill="#000000" fill-rule="nonzero" fill-opacity="1" /><path clip-path="url(#clip510)" d="M2247.34 224.992 Q2242.18 224.992 2240.19 226.173 Q2238.2 227.353 2238.2 230.201 Q2238.2 232.469 2239.68 233.812 Q2241.18 235.131 2243.75 235.131 Q2247.29 235.131 2249.42 232.631 Q2251.57 230.108 2251.57 225.941 L2251.57 224.992 L2247.34 224.992 M2255.83 223.233 L2255.83 238.025 L2251.57 238.025 L2251.57 234.089 Q2250.12 236.451 2247.94 237.585 Q2245.76 238.696 2242.62 238.696 Q2238.64 238.696 2236.27 236.474 Q2233.94 234.228 2233.94 230.478 Q2233.94 226.103 2236.85 223.881 Q2239.79 221.659 2245.6 221.659 L2251.57 221.659 L2251.57 221.242 Q2251.57 218.303 2249.63 216.705 Q2247.71 215.085 2244.21 215.085 Q2241.99 215.085 2239.89 215.617 Q2237.78 216.15 2235.83 217.215 L2235.83 213.279 Q2238.17 212.377 2240.37 211.937 Q2242.57 211.474 2244.65 211.474 Q2250.28 211.474 2253.06 214.391 Q2255.83 217.307 2255.83 223.233 Z" fill="#000000" fill-rule="nonzero" fill-opacity="1" /></svg>
