<?xml version="1.0" encoding="utf-8"?>
<svg xmlns="http://www.w3.org/2000/svg" xmlns:xlink="http://www.w3.org/1999/xlink" width="600" height="400" viewBox="0 0 2400 1600">
<defs>
  <clipPath id="clip800">
    <rect x="0" y="0" width="2400" height="1600"/>
  </clipPath>
</defs>
<path clip-path="url(#clip800)" d="
M0 1600 L2400 1600 L2400 0 L0 0  Z
  " fill="#ffffff" fill-rule="evenodd" fill-opacity="1"/>
<defs>
  <clipPath id="clip801">
    <rect x="480" y="0" width="1681" height="1600"/>
  </clipPath>
</defs>
<path clip-path="url(#clip800)" d="
M166.205 1486.45 L2352.76 1486.45 L2352.76 123.472 L166.205 123.472  Z
  " fill="#ffffff" fill-rule="evenodd" fill-opacity="1"/>
<defs>
  <clipPath id="clip802">
    <rect x="166" y="123" width="2188" height="1364"/>
  </clipPath>
</defs>
<polyline clip-path="url(#clip802)" style="stroke:#000000; stroke-width:2; stroke-opacity:0.1; fill:none" points="
  228.088,1486.45 228.088,123.472 
  "/>
<polyline clip-path="url(#clip802)" style="stroke:#000000; stroke-width:2; stroke-opacity:0.1; fill:none" points="
  571.886,1486.45 571.886,123.472 
  "/>
<polyline clip-path="url(#clip802)" style="stroke:#000000; stroke-width:2; stroke-opacity:0.1; fill:none" points="
  915.683,1486.45 915.683,123.472 
  "/>
<polyline clip-path="url(#clip802)" style="stroke:#000000; stroke-width:2; stroke-opacity:0.1; fill:none" points="
  1259.48,1486.45 1259.48,123.472 
  "/>
<polyline clip-path="url(#clip802)" style="stroke:#000000; stroke-width:2; stroke-opacity:0.1; fill:none" points="
  1603.28,1486.45 1603.28,123.472 
  "/>
<polyline clip-path="url(#clip802)" style="stroke:#000000; stroke-width:2; stroke-opacity:0.1; fill:none" points="
  1947.08,1486.45 1947.08,123.472 
  "/>
<polyline clip-path="url(#clip802)" style="stroke:#000000; stroke-width:2; stroke-opacity:0.1; fill:none" points="
  2290.87,1486.45 2290.87,123.472 
  "/>
<polyline clip-path="url(#clip800)" style="stroke:#000000; stroke-width:4; stroke-opacity:1; fill:none" points="
  166.205,1486.45 2352.76,1486.45 
  "/>
<polyline clip-path="url(#clip800)" style="stroke:#000000; stroke-width:4; stroke-opacity:1; fill:none" points="
  228.088,1486.45 228.088,1470.09 
  "/>
<polyline clip-path="url(#clip800)" style="stroke:#000000; stroke-width:4; stroke-opacity:1; fill:none" points="
  571.886,1486.45 571.886,1470.09 
  "/>
<polyline clip-path="url(#clip800)" style="stroke:#000000; stroke-width:4; stroke-opacity:1; fill:none" points="
  915.683,1486.45 915.683,1470.09 
  "/>
<polyline clip-path="url(#clip800)" style="stroke:#000000; stroke-width:4; stroke-opacity:1; fill:none" points="
  1259.48,1486.45 1259.48,1470.09 
  "/>
<polyline clip-path="url(#clip800)" style="stroke:#000000; stroke-width:4; stroke-opacity:1; fill:none" points="
  1603.28,1486.45 1603.28,1470.09 
  "/>
<polyline clip-path="url(#clip800)" style="stroke:#000000; stroke-width:4; stroke-opacity:1; fill:none" points="
  1947.08,1486.45 1947.08,1470.09 
  "/>
<polyline clip-path="url(#clip800)" style="stroke:#000000; stroke-width:4; stroke-opacity:1; fill:none" points="
  2290.87,1486.45 2290.87,1470.09 
  "/>
<path clip-path="url(#clip800)" d="M 0 0 M200.542 1530.29 L230.218 1530.29 L230.218 1534.23 L200.542 1534.23 L200.542 1530.29 Z" fill="#000000" fill-rule="evenodd" fill-opacity="1" /><path clip-path="url(#clip800)" d="M 0 0 M239.315 1543.18 L255.634 1543.18 L255.634 1547.12 L233.69 1547.12 L233.69 1543.18 Q236.352 1540.43 240.935 1535.8 Q245.542 1531.15 246.722 1529.81 Q248.968 1527.28 249.847 1525.55 Q250.75 1523.79 250.75 1522.1 Q250.75 1519.34 248.806 1517.61 Q246.884 1515.87 243.783 1515.87 Q241.583 1515.87 239.13 1516.63 Q236.699 1517.4 233.921 1518.95 L233.921 1514.23 Q236.746 1513.09 239.199 1512.51 Q241.653 1511.93 243.69 1511.93 Q249.06 1511.93 252.255 1514.62 Q255.449 1517.31 255.449 1521.8 Q255.449 1523.93 254.639 1525.85 Q253.852 1527.74 251.745 1530.34 Q251.167 1531.01 248.065 1534.23 Q244.963 1537.42 239.315 1543.18 Z" fill="#000000" fill-rule="evenodd" fill-opacity="1" /><path clip-path="url(#clip800)" d="M 0 0 M544.154 1530.29 L573.83 1530.29 L573.83 1534.23 L544.154 1534.23 L544.154 1530.29 Z" fill="#000000" fill-rule="evenodd" fill-opacity="1" /><path clip-path="url(#clip800)" d="M 0 0 M579.71 1543.18 L587.348 1543.18 L587.348 1516.82 L579.038 1518.49 L579.038 1514.23 L587.302 1512.56 L591.978 1512.56 L591.978 1543.18 L599.617 1543.18 L599.617 1547.12 L579.71 1547.12 L579.71 1543.18 Z" fill="#000000" fill-rule="evenodd" fill-opacity="1" /><path clip-path="url(#clip800)" d="M 0 0 M915.683 1515.64 Q912.072 1515.64 910.243 1519.2 Q908.438 1522.75 908.438 1529.87 Q908.438 1536.98 910.243 1540.55 Q912.072 1544.09 915.683 1544.09 Q919.317 1544.09 921.123 1540.55 Q922.951 1536.98 922.951 1529.87 Q922.951 1522.75 921.123 1519.2 Q919.317 1515.64 915.683 1515.64 M915.683 1511.93 Q921.493 1511.93 924.549 1516.54 Q927.627 1521.12 927.627 1529.87 Q927.627 1538.6 924.549 1543.21 Q921.493 1547.79 915.683 1547.79 Q909.873 1547.79 906.794 1543.21 Q903.739 1538.6 903.739 1529.87 Q903.739 1521.12 906.794 1516.54 Q909.873 1511.93 915.683 1511.93 Z" fill="#000000" fill-rule="evenodd" fill-opacity="1" /><path clip-path="url(#clip800)" d="M 0 0 M1249.86 1543.18 L1257.5 1543.18 L1257.5 1516.82 L1249.19 1518.49 L1249.19 1514.23 L1257.45 1512.56 L1262.13 1512.56 L1262.13 1543.18 L1269.77 1543.18 L1269.77 1547.12 L1249.86 1547.12 L1249.86 1543.18 Z" fill="#000000" fill-rule="evenodd" fill-opacity="1" /><path clip-path="url(#clip800)" d="M 0 0 M1597.93 1543.18 L1614.25 1543.18 L1614.25 1547.12 L1592.31 1547.12 L1592.31 1543.18 Q1594.97 1540.43 1599.55 1535.8 Q1604.16 1531.15 1605.34 1529.81 Q1607.58 1527.28 1608.46 1525.55 Q1609.37 1523.79 1609.37 1522.1 Q1609.37 1519.34 1607.42 1517.61 Q1605.5 1515.87 1602.4 1515.87 Q1600.2 1515.87 1597.75 1516.63 Q1595.31 1517.4 1592.54 1518.95 L1592.54 1514.23 Q1595.36 1513.09 1597.81 1512.51 Q1600.27 1511.93 1602.31 1511.93 Q1607.68 1511.93 1610.87 1514.62 Q1614.06 1517.31 1614.06 1521.8 Q1614.06 1523.93 1613.25 1525.85 Q1612.47 1527.74 1610.36 1530.34 Q1609.78 1531.01 1606.68 1534.23 Q1603.58 1537.42 1597.93 1543.18 Z" fill="#000000" fill-rule="evenodd" fill-opacity="1" /><path clip-path="url(#clip800)" d="M 0 0 M1951.32 1528.49 Q1954.68 1529.2 1956.55 1531.47 Q1958.45 1533.74 1958.45 1537.07 Q1958.45 1542.19 1954.93 1544.99 Q1951.42 1547.79 1944.93 1547.79 Q1942.76 1547.79 1940.44 1547.35 Q1938.15 1546.93 1935.7 1546.08 L1935.7 1541.56 Q1937.64 1542.7 1939.96 1543.28 Q1942.27 1543.86 1944.79 1543.86 Q1949.19 1543.86 1951.48 1542.12 Q1953.8 1540.38 1953.8 1537.07 Q1953.8 1534.02 1951.65 1532.31 Q1949.52 1530.57 1945.7 1530.57 L1941.67 1530.57 L1941.67 1526.73 L1945.88 1526.73 Q1949.33 1526.73 1951.16 1525.36 Q1952.99 1523.97 1952.99 1521.38 Q1952.99 1518.72 1951.09 1517.31 Q1949.22 1515.87 1945.7 1515.87 Q1943.78 1515.87 1941.58 1516.29 Q1939.38 1516.7 1936.74 1517.58 L1936.74 1513.42 Q1939.4 1512.68 1941.72 1512.31 Q1944.05 1511.93 1946.11 1511.93 Q1951.44 1511.93 1954.54 1514.37 Q1957.64 1516.77 1957.64 1520.89 Q1957.64 1523.76 1956 1525.75 Q1954.36 1527.72 1951.32 1528.49 Z" fill="#000000" fill-rule="evenodd" fill-opacity="1" /><path clip-path="url(#clip800)" d="M 0 0 M2293.88 1516.63 L2282.08 1535.08 L2293.88 1535.08 L2293.88 1516.63 M2292.65 1512.56 L2298.53 1512.56 L2298.53 1535.08 L2303.46 1535.08 L2303.46 1538.97 L2298.53 1538.97 L2298.53 1547.12 L2293.88 1547.12 L2293.88 1538.97 L2278.28 1538.97 L2278.28 1534.46 L2292.65 1512.56 Z" fill="#000000" fill-rule="evenodd" fill-opacity="1" /><polyline clip-path="url(#clip802)" style="stroke:#000000; stroke-width:2; stroke-opacity:0.1; fill:none" points="
  166.205,1447.87 2352.76,1447.87 
  "/>
<polyline clip-path="url(#clip802)" style="stroke:#000000; stroke-width:2; stroke-opacity:0.1; fill:none" points="
  166.205,1138.04 2352.76,1138.04 
  "/>
<polyline clip-path="url(#clip802)" style="stroke:#000000; stroke-width:2; stroke-opacity:0.1; fill:none" points="
  166.205,828.198 2352.76,828.198 
  "/>
<polyline clip-path="url(#clip802)" style="stroke:#000000; stroke-width:2; stroke-opacity:0.1; fill:none" points="
  166.205,518.36 2352.76,518.36 
  "/>
<polyline clip-path="url(#clip802)" style="stroke:#000000; stroke-width:2; stroke-opacity:0.1; fill:none" points="
  166.205,208.523 2352.76,208.523 
  "/>
<polyline clip-path="url(#clip800)" style="stroke:#000000; stroke-width:4; stroke-opacity:1; fill:none" points="
  166.205,1486.45 166.205,123.472 
  "/>
<polyline clip-path="url(#clip800)" style="stroke:#000000; stroke-width:4; stroke-opacity:1; fill:none" points="
  166.205,1447.87 192.443,1447.87 
  "/>
<polyline clip-path="url(#clip800)" style="stroke:#000000; stroke-width:4; stroke-opacity:1; fill:none" points="
  166.205,1138.04 192.443,1138.04 
  "/>
<polyline clip-path="url(#clip800)" style="stroke:#000000; stroke-width:4; stroke-opacity:1; fill:none" points="
  166.205,828.198 192.443,828.198 
  "/>
<polyline clip-path="url(#clip800)" style="stroke:#000000; stroke-width:4; stroke-opacity:1; fill:none" points="
  166.205,518.36 192.443,518.36 
  "/>
<polyline clip-path="url(#clip800)" style="stroke:#000000; stroke-width:4; stroke-opacity:1; fill:none" points="
  166.205,208.523 192.443,208.523 
  "/>
<path clip-path="url(#clip800)" d="M 0 0 M118.26 1433.67 Q114.649 1433.67 112.82 1437.24 Q111.015 1440.78 111.015 1447.91 Q111.015 1455.01 112.82 1458.58 Q114.649 1462.12 118.26 1462.12 Q121.895 1462.12 123.7 1458.58 Q125.529 1455.01 125.529 1447.91 Q125.529 1440.78 123.7 1437.24 Q121.895 1433.67 118.26 1433.67 M118.26 1429.97 Q124.07 1429.97 127.126 1434.57 Q130.205 1439.16 130.205 1447.91 Q130.205 1456.63 127.126 1461.24 Q124.07 1465.82 118.26 1465.82 Q112.45 1465.82 109.371 1461.24 Q106.316 1456.63 106.316 1447.91 Q106.316 1439.16 109.371 1434.57 Q112.45 1429.97 118.26 1429.97 Z" fill="#000000" fill-rule="evenodd" fill-opacity="1" /><path clip-path="url(#clip800)" d="M 0 0 M59.8578 1151.38 L76.1772 1151.38 L76.1772 1155.32 L54.2328 1155.32 L54.2328 1151.38 Q56.8949 1148.63 61.4782 1144 Q66.0846 1139.34 67.2652 1138 Q69.5105 1135.48 70.3902 1133.74 Q71.2929 1131.98 71.2929 1130.29 Q71.2929 1127.54 69.3485 1125.8 Q67.4272 1124.07 64.3254 1124.07 Q62.1263 1124.07 59.6726 1124.83 Q57.2421 1125.59 54.4643 1127.14 L54.4643 1122.42 Q57.2884 1121.29 59.7421 1120.71 Q62.1958 1120.13 64.2328 1120.13 Q69.6031 1120.13 72.7976 1122.82 Q75.992 1125.5 75.992 1129.99 Q75.992 1132.12 75.1818 1134.04 Q74.3948 1135.94 72.2883 1138.53 Q71.7096 1139.2 68.6078 1142.42 Q65.5059 1145.62 59.8578 1151.38 Z" fill="#000000" fill-rule="evenodd" fill-opacity="1" /><path clip-path="url(#clip800)" d="M 0 0 M91.2465 1123.83 Q87.6354 1123.83 85.8068 1127.4 Q84.0012 1130.94 84.0012 1138.07 Q84.0012 1145.18 85.8068 1148.74 Q87.6354 1152.28 91.2465 1152.28 Q94.8808 1152.28 96.6863 1148.74 Q98.515 1145.18 98.515 1138.07 Q98.515 1130.94 96.6863 1127.4 Q94.8808 1123.83 91.2465 1123.83 M91.2465 1120.13 Q97.0567 1120.13 100.112 1124.74 Q103.191 1129.32 103.191 1138.07 Q103.191 1146.8 100.112 1151.4 Q97.0567 1155.99 91.2465 1155.99 Q85.4364 1155.99 82.3577 1151.4 Q79.3022 1146.8 79.3022 1138.07 Q79.3022 1129.32 82.3577 1124.74 Q85.4364 1120.13 91.2465 1120.13 Z" fill="#000000" fill-rule="evenodd" fill-opacity="1" /><path clip-path="url(#clip800)" d="M 0 0 M118.26 1123.83 Q114.649 1123.83 112.82 1127.4 Q111.015 1130.94 111.015 1138.07 Q111.015 1145.18 112.82 1148.74 Q114.649 1152.28 118.26 1152.28 Q121.895 1152.28 123.7 1148.74 Q125.529 1145.18 125.529 1138.07 Q125.529 1130.94 123.7 1127.4 Q121.895 1123.83 118.26 1123.83 M118.26 1120.13 Q124.07 1120.13 127.126 1124.74 Q130.205 1129.32 130.205 1138.07 Q130.205 1146.8 127.126 1151.4 Q124.07 1155.99 118.26 1155.99 Q112.45 1155.99 109.371 1151.4 Q106.316 1146.8 106.316 1138.07 Q106.316 1129.32 109.371 1124.74 Q112.45 1120.13 118.26 1120.13 Z" fill="#000000" fill-rule="evenodd" fill-opacity="1" /><path clip-path="url(#clip800)" d="M 0 0 M66.5939 814.992 L54.7884 833.441 L66.5939 833.441 L66.5939 814.992 M65.367 810.918 L71.2466 810.918 L71.2466 833.441 L76.1772 833.441 L76.1772 837.33 L71.2466 837.33 L71.2466 845.478 L66.5939 845.478 L66.5939 837.33 L50.9921 837.33 L50.9921 832.816 L65.367 810.918 Z" fill="#000000" fill-rule="evenodd" fill-opacity="1" /><path clip-path="url(#clip800)" d="M 0 0 M91.2465 813.997 Q87.6354 813.997 85.8068 817.561 Q84.0012 821.103 84.0012 828.233 Q84.0012 835.339 85.8068 838.904 Q87.6354 842.445 91.2465 842.445 Q94.8808 842.445 96.6863 838.904 Q98.515 835.339 98.515 828.233 Q98.515 821.103 96.6863 817.561 Q94.8808 813.997 91.2465 813.997 M91.2465 810.293 Q97.0567 810.293 100.112 814.899 Q103.191 819.483 103.191 828.233 Q103.191 836.959 100.112 841.566 Q97.0567 846.149 91.2465 846.149 Q85.4364 846.149 82.3577 841.566 Q79.3022 836.959 79.3022 828.233 Q79.3022 819.483 82.3577 814.899 Q85.4364 810.293 91.2465 810.293 Z" fill="#000000" fill-rule="evenodd" fill-opacity="1" /><path clip-path="url(#clip800)" d="M 0 0 M118.26 813.997 Q114.649 813.997 112.82 817.561 Q111.015 821.103 111.015 828.233 Q111.015 835.339 112.82 838.904 Q114.649 842.445 118.26 842.445 Q121.895 842.445 123.7 838.904 Q125.529 835.339 125.529 828.233 Q125.529 821.103 123.7 817.561 Q121.895 813.997 118.26 813.997 M118.26 810.293 Q124.07 810.293 127.126 814.899 Q130.205 819.483 130.205 828.233 Q130.205 836.959 127.126 841.566 Q124.07 846.149 118.26 846.149 Q112.45 846.149 109.371 841.566 Q106.316 836.959 106.316 828.233 Q106.316 819.483 109.371 814.899 Q112.45 810.293 118.26 810.293 Z" fill="#000000" fill-rule="evenodd" fill-opacity="1" /><path clip-path="url(#clip800)" d="M 0 0 M64.6495 516.497 Q61.5013 516.497 59.6495 518.65 Q57.8208 520.802 57.8208 524.552 Q57.8208 528.279 59.6495 530.455 Q61.5013 532.608 64.6495 532.608 Q67.7976 532.608 69.6263 530.455 Q71.4781 528.279 71.4781 524.552 Q71.4781 520.802 69.6263 518.65 Q67.7976 516.497 64.6495 516.497 M73.9318 501.844 L73.9318 506.103 Q72.1726 505.27 70.367 504.83 Q68.5846 504.39 66.8254 504.39 Q62.1958 504.39 59.7421 507.515 Q57.3115 510.64 56.9643 516.96 Q58.33 514.946 60.3902 513.881 Q62.4504 512.793 64.9272 512.793 Q70.1355 512.793 73.1448 515.964 Q76.1772 519.113 76.1772 524.552 Q76.1772 529.876 73.029 533.094 Q69.8809 536.311 64.6495 536.311 Q58.6541 536.311 55.4828 531.728 Q52.3116 527.122 52.3116 518.395 Q52.3116 510.201 56.2004 505.339 Q60.0893 500.455 66.6402 500.455 Q68.3994 500.455 70.1818 500.802 Q71.9874 501.15 73.9318 501.844 Z" fill="#000000" fill-rule="evenodd" fill-opacity="1" /><path clip-path="url(#clip800)" d="M 0 0 M91.2465 504.159 Q87.6354 504.159 85.8068 507.724 Q84.0012 511.265 84.0012 518.395 Q84.0012 525.501 85.8068 529.066 Q87.6354 532.608 91.2465 532.608 Q94.8808 532.608 96.6863 529.066 Q98.515 525.501 98.515 518.395 Q98.515 511.265 96.6863 507.724 Q94.8808 504.159 91.2465 504.159 M91.2465 500.455 Q97.0567 500.455 100.112 505.062 Q103.191 509.645 103.191 518.395 Q103.191 527.122 100.112 531.728 Q97.0567 536.311 91.2465 536.311 Q85.4364 536.311 82.3577 531.728 Q79.3022 527.122 79.3022 518.395 Q79.3022 509.645 82.3577 505.062 Q85.4364 500.455 91.2465 500.455 Z" fill="#000000" fill-rule="evenodd" fill-opacity="1" /><path clip-path="url(#clip800)" d="M 0 0 M118.26 504.159 Q114.649 504.159 112.82 507.724 Q111.015 511.265 111.015 518.395 Q111.015 525.501 112.82 529.066 Q114.649 532.608 118.26 532.608 Q121.895 532.608 123.7 529.066 Q125.529 525.501 125.529 518.395 Q125.529 511.265 123.7 507.724 Q121.895 504.159 118.26 504.159 M118.26 500.455 Q124.07 500.455 127.126 505.062 Q130.205 509.645 130.205 518.395 Q130.205 527.122 127.126 531.728 Q124.07 536.311 118.26 536.311 Q112.45 536.311 109.371 531.728 Q106.316 527.122 106.316 518.395 Q106.316 509.645 109.371 505.062 Q112.45 500.455 118.26 500.455 Z" fill="#000000" fill-rule="evenodd" fill-opacity="1" /><path clip-path="url(#clip800)" d="M 0 0 M64.3254 209.391 Q60.9921 209.391 59.0708 211.173 Q57.1726 212.955 57.1726 216.08 Q57.1726 219.205 59.0708 220.988 Q60.9921 222.77 64.3254 222.77 Q67.6587 222.77 69.58 220.988 Q71.5013 219.182 71.5013 216.08 Q71.5013 212.955 69.58 211.173 Q67.6819 209.391 64.3254 209.391 M59.6495 207.4 Q56.6402 206.659 54.9504 204.599 Q53.2838 202.539 53.2838 199.576 Q53.2838 195.432 56.2236 193.025 Q59.1865 190.618 64.3254 190.618 Q69.4874 190.618 72.4272 193.025 Q75.367 195.432 75.367 199.576 Q75.367 202.539 73.6772 204.599 Q72.0105 206.659 69.0244 207.4 Q72.404 208.187 74.279 210.479 Q76.1772 212.77 76.1772 216.08 Q76.1772 221.104 73.0985 223.789 Q70.0429 226.474 64.3254 226.474 Q58.6078 226.474 55.5291 223.789 Q52.4736 221.104 52.4736 216.08 Q52.4736 212.77 54.3717 210.479 Q56.2699 208.187 59.6495 207.4 M57.9365 200.016 Q57.9365 202.701 59.6032 204.205 Q61.293 205.71 64.3254 205.71 Q67.3346 205.71 69.0244 204.205 Q70.7374 202.701 70.7374 200.016 Q70.7374 197.33 69.0244 195.826 Q67.3346 194.321 64.3254 194.321 Q61.293 194.321 59.6032 195.826 Q57.9365 197.33 57.9365 200.016 Z" fill="#000000" fill-rule="evenodd" fill-opacity="1" /><path clip-path="url(#clip800)" d="M 0 0 M91.2465 194.321 Q87.6354 194.321 85.8068 197.886 Q84.0012 201.428 84.0012 208.557 Q84.0012 215.664 85.8068 219.229 Q87.6354 222.77 91.2465 222.77 Q94.8808 222.77 96.6863 219.229 Q98.515 215.664 98.515 208.557 Q98.515 201.428 96.6863 197.886 Q94.8808 194.321 91.2465 194.321 M91.2465 190.618 Q97.0567 190.618 100.112 195.224 Q103.191 199.807 103.191 208.557 Q103.191 217.284 100.112 221.891 Q97.0567 226.474 91.2465 226.474 Q85.4364 226.474 82.3577 221.891 Q79.3022 217.284 79.3022 208.557 Q79.3022 199.807 82.3577 195.224 Q85.4364 190.618 91.2465 190.618 Z" fill="#000000" fill-rule="evenodd" fill-opacity="1" /><path clip-path="url(#clip800)" d="M 0 0 M118.26 194.321 Q114.649 194.321 112.82 197.886 Q111.015 201.428 111.015 208.557 Q111.015 215.664 112.82 219.229 Q114.649 222.77 118.26 222.77 Q121.895 222.77 123.7 219.229 Q125.529 215.664 125.529 208.557 Q125.529 201.428 123.7 197.886 Q121.895 194.321 118.26 194.321 M118.26 190.618 Q124.07 190.618 127.126 195.224 Q130.205 199.807 130.205 208.557 Q130.205 217.284 127.126 221.891 Q124.07 226.474 118.26 226.474 Q112.45 226.474 109.371 221.891 Q106.316 217.284 106.316 208.557 Q106.316 199.807 109.371 195.224 Q112.45 190.618 118.26 190.618 Z" fill="#000000" fill-rule="evenodd" fill-opacity="1" /><path clip-path="url(#clip800)" d="M 0 0 M1183.67 18.8205 L1183.67 65.8515 L1193.55 65.8515 Q1206.07 65.8515 1211.86 60.1802 Q1217.7 54.509 1217.7 42.2752 Q1217.7 30.1225 1211.86 24.4918 Q1206.07 18.8205 1193.55 18.8205 L1183.67 18.8205 M1175.48 12.096 L1192.3 12.096 Q1209.88 12.096 1218.1 19.4281 Q1226.32 26.7198 1226.32 42.2752 Q1226.32 57.9117 1218.06 65.2439 Q1209.8 72.576 1192.3 72.576 L1175.48 72.576 L1175.48 12.096 Z" fill="#000000" fill-rule="evenodd" fill-opacity="1" /><path clip-path="url(#clip800)" d="M 0 0 M1254.76 49.7694 Q1245.73 49.7694 1242.24 51.8354 Q1238.76 53.9013 1238.76 58.8839 Q1238.76 62.8538 1241.35 65.2034 Q1243.99 67.5124 1248.48 67.5124 Q1254.68 67.5124 1258.41 63.1374 Q1262.17 58.7219 1262.17 51.4303 L1262.17 49.7694 L1254.76 49.7694 M1269.63 46.6907 L1269.63 72.576 L1262.17 72.576 L1262.17 65.6895 Q1259.62 69.8214 1255.81 71.8063 Q1252.01 73.7508 1246.5 73.7508 Q1239.53 73.7508 1235.4 69.8619 Q1231.31 65.9325 1231.31 59.3701 Q1231.31 51.7138 1236.41 47.825 Q1241.56 43.9361 1251.72 43.9361 L1262.17 43.9361 L1262.17 43.2069 Q1262.17 38.0623 1258.77 35.2672 Q1255.41 32.4315 1249.29 32.4315 Q1245.4 32.4315 1241.72 33.3632 Q1238.03 34.295 1234.63 36.1584 L1234.63 29.2718 Q1238.72 27.692 1242.57 26.9223 Q1246.42 26.1121 1250.06 26.1121 Q1259.91 26.1121 1264.77 31.2163 Q1269.63 36.3204 1269.63 46.6907 Z" fill="#000000" fill-rule="evenodd" fill-opacity="1" /><path clip-path="url(#clip800)" d="M 0 0 M1284.82 14.324 L1284.82 27.2059 L1300.17 27.2059 L1300.17 32.9987 L1284.82 32.9987 L1284.82 57.6282 Q1284.82 63.1779 1286.32 64.7578 Q1287.86 66.3376 1292.52 66.3376 L1300.17 66.3376 L1300.17 72.576 L1292.52 72.576 Q1283.89 72.576 1280.61 69.3758 Q1277.32 66.1351 1277.32 57.6282 L1277.32 32.9987 L1271.86 32.9987 L1271.86 27.2059 L1277.32 27.2059 L1277.32 14.324 L1284.82 14.324 Z" fill="#000000" fill-rule="evenodd" fill-opacity="1" /><path clip-path="url(#clip800)" d="M 0 0 M1328.61 49.7694 Q1319.58 49.7694 1316.09 51.8354 Q1312.61 53.9013 1312.61 58.8839 Q1312.61 62.8538 1315.2 65.2034 Q1317.83 67.5124 1322.33 67.5124 Q1328.53 67.5124 1332.25 63.1374 Q1336.02 58.7219 1336.02 51.4303 L1336.02 49.7694 L1328.61 49.7694 M1343.48 46.6907 L1343.48 72.576 L1336.02 72.576 L1336.02 65.6895 Q1333.47 69.8214 1329.66 71.8063 Q1325.85 73.7508 1320.35 73.7508 Q1313.38 73.7508 1309.25 69.8619 Q1305.15 65.9325 1305.15 59.3701 Q1305.15 51.7138 1310.26 47.825 Q1315.4 43.9361 1325.57 43.9361 L1336.02 43.9361 L1336.02 43.2069 Q1336.02 38.0623 1332.62 35.2672 Q1329.26 32.4315 1323.14 32.4315 Q1319.25 32.4315 1315.57 33.3632 Q1311.88 34.295 1308.48 36.1584 L1308.48 29.2718 Q1312.57 27.692 1316.42 26.9223 Q1320.26 26.1121 1323.91 26.1121 Q1333.75 26.1121 1338.61 31.2163 Q1343.48 36.3204 1343.48 46.6907 Z" fill="#000000" fill-rule="evenodd" fill-opacity="1" /><polyline clip-path="url(#clip802)" style="stroke:#009af9; stroke-width:4; stroke-opacity:1; fill:none" points="
  228.088,1447.87 228.088,1401.4 262.468,1401.4 262.468,1277.46 296.848,1277.46 331.227,1277.46 331.227,1153.53 365.607,1153.53 365.607,1200 
  399.987,1200 399.987,1045.08 434.367,1045.08 434.367,843.69 468.746,843.69 468.746,1014.1 503.126,1014.1 503.126,905.657 537.506,905.657 537.506,781.722 
  571.886,781.722 571.886,967.625 606.265,967.625 606.265,890.165 640.645,890.165 640.645,812.706 675.025,812.706 675.025,921.149 709.405,921.149 
  743.784,921.149 743.784,1122.54 778.164,1122.54 778.164,1215.49 812.544,1215.49 812.544,1323.94 846.923,1323.94 846.923,1292.95 881.303,1292.95 881.303,1323.94 
  915.683,1323.94 950.063,1323.94 950.063,1416.89 984.442,1416.89 984.442,1447.87 1018.82,1447.87 1018.82,1432.38 1053.2,1432.38 1053.2,1447.87 
  1087.58,1447.87 1121.96,1447.87 1121.96,1385.91 1156.34,1385.91 1156.34,1416.89 1190.72,1416.89 1190.72,1339.43 1225.1,1339.43 1225.1,1292.95 
  1259.48,1292.95 1259.48,1215.49 1293.86,1215.49 1293.86,1076.07 1328.24,1076.07 1328.24,1091.56 1362.62,1091.56 1362.62,967.625 1397,967.625 1397,797.214 
  1431.38,797.214 1431.38,688.771 1465.76,688.771 1465.76,502.868 1500.14,502.868 1500.14,394.425 1534.52,394.425 1534.52,285.982 1568.9,285.982 1568.9,162.047 
  1603.28,162.047 1603.28,332.458 1637.66,332.458 1637.66,239.506 1672.04,239.506 1672.04,347.949 1706.42,347.949 1706.42,440.901 1740.8,440.901 1740.8,502.868 
  1775.18,502.868 1775.18,967.625 1809.56,967.625 1809.56,874.673 1843.94,874.673 1843.94,1014.1 1878.32,1014.1 1878.32,1138.04 1912.7,1138.04 1912.7,1184.51 
  1947.08,1184.51 1947.08,1339.43 1981.45,1339.43 2015.83,1339.43 2015.83,1370.41 2050.21,1370.41 2050.21,1354.92 2084.59,1354.92 2084.59,1447.87 
  2118.97,1447.87 2153.35,1447.87 2187.73,1447.87 2187.73,1432.38 2222.11,1432.38 2222.11,1447.87 2256.49,1447.87 
  2290.87,1447.87 
  "/>
<path clip-path="url(#clip800)" d="
M1940.93 289.865 L2279.87 289.865 L2279.87 168.905 L1940.93 168.905  Z
  " fill="#ffffff" fill-rule="evenodd" fill-opacity="1"/>
<polyline clip-path="url(#clip800)" style="stroke:#000000; stroke-width:4; stroke-opacity:1; fill:none" points="
  1940.93,289.865 2279.87,289.865 2279.87,168.905 1940.93,168.905 1940.93,289.865 
  "/>
<polyline clip-path="url(#clip800)" style="stroke:#009af9; stroke-width:4; stroke-opacity:1; fill:none" points="
  1965.22,229.385 2110.99,229.385 
  "/>
<path clip-path="url(#clip800)" d="M 0 0 M2139.96 215.947 L2139.96 242.822 L2145.61 242.822 Q2152.76 242.822 2156.07 239.581 Q2159.41 236.341 2159.41 229.35 Q2159.41 222.406 2156.07 219.188 Q2152.76 215.947 2145.61 215.947 L2139.96 215.947 M2135.29 212.105 L2144.89 212.105 Q2154.94 212.105 2159.64 216.294 Q2164.34 220.461 2164.34 229.35 Q2164.34 238.285 2159.61 242.475 Q2154.89 246.665 2144.89 246.665 L2135.29 246.665 L2135.29 212.105 Z" fill="#000000" fill-rule="evenodd" fill-opacity="1" /><path clip-path="url(#clip800)" d="M 0 0 M2180.59 233.632 Q2175.42 233.632 2173.43 234.813 Q2171.44 235.993 2171.44 238.841 Q2171.44 241.109 2172.92 242.452 Q2174.43 243.771 2177 243.771 Q2180.54 243.771 2182.67 241.271 Q2184.82 238.748 2184.82 234.581 L2184.82 233.632 L2180.59 233.632 M2189.08 231.873 L2189.08 246.665 L2184.82 246.665 L2184.82 242.729 Q2183.36 245.091 2181.19 246.225 Q2179.01 247.336 2175.86 247.336 Q2171.88 247.336 2169.52 245.114 Q2167.18 242.868 2167.18 239.118 Q2167.18 234.743 2170.1 232.521 Q2173.04 230.299 2178.85 230.299 L2184.82 230.299 L2184.82 229.882 Q2184.82 226.943 2182.88 225.345 Q2180.96 223.725 2177.46 223.725 Q2175.24 223.725 2173.13 224.257 Q2171.03 224.79 2169.08 225.855 L2169.08 221.919 Q2171.42 221.017 2173.62 220.577 Q2175.82 220.114 2177.9 220.114 Q2183.53 220.114 2186.3 223.031 Q2189.08 225.947 2189.08 231.873 Z" fill="#000000" fill-rule="evenodd" fill-opacity="1" /><path clip-path="url(#clip800)" d="M 0 0 M2197.76 213.378 L2197.76 220.739 L2206.54 220.739 L2206.54 224.049 L2197.76 224.049 L2197.76 238.123 Q2197.76 241.294 2198.62 242.197 Q2199.5 243.1 2202.16 243.1 L2206.54 243.1 L2206.54 246.665 L2202.16 246.665 Q2197.23 246.665 2195.36 244.836 Q2193.48 242.984 2193.48 238.123 L2193.48 224.049 L2190.36 224.049 L2190.36 220.739 L2193.48 220.739 L2193.48 213.378 L2197.76 213.378 Z" fill="#000000" fill-rule="evenodd" fill-opacity="1" /><path clip-path="url(#clip800)" d="M 0 0 M2222.79 233.632 Q2217.62 233.632 2215.63 234.813 Q2213.64 235.993 2213.64 238.841 Q2213.64 241.109 2215.12 242.452 Q2216.63 243.771 2219.2 243.771 Q2222.74 243.771 2224.87 241.271 Q2227.02 238.748 2227.02 234.581 L2227.02 233.632 L2222.79 233.632 M2231.28 231.873 L2231.28 246.665 L2227.02 246.665 L2227.02 242.729 Q2225.56 245.091 2223.39 246.225 Q2221.21 247.336 2218.06 247.336 Q2214.08 247.336 2211.72 245.114 Q2209.38 242.868 2209.38 239.118 Q2209.38 234.743 2212.3 232.521 Q2215.24 230.299 2221.05 230.299 L2227.02 230.299 L2227.02 229.882 Q2227.02 226.943 2225.08 225.345 Q2223.16 223.725 2219.66 223.725 Q2217.44 223.725 2215.33 224.257 Q2213.23 224.79 2211.28 225.855 L2211.28 221.919 Q2213.62 221.017 2215.82 220.577 Q2218.02 220.114 2220.1 220.114 Q2225.73 220.114 2228.5 223.031 Q2231.28 225.947 2231.28 231.873 Z" fill="#000000" fill-rule="evenodd" fill-opacity="1" /></svg>
