<?xml version="1.0" encoding="utf-8"?>
<svg xmlns="http://www.w3.org/2000/svg" xmlns:xlink="http://www.w3.org/1999/xlink" width="600" height="400" viewBox="0 0 2400 1600">
<defs>
  <clipPath id="clip460">
    <rect x="0" y="0" width="2400" height="1600"/>
  </clipPath>
</defs>
<path clip-path="url(#clip460)" d="
M0 1600 L2400 1600 L2400 0 L0 0  Z
  " fill="#ffffff" fill-rule="evenodd" fill-opacity="1"/>
<defs>
  <clipPath id="clip461">
    <rect x="480" y="0" width="1681" height="1600"/>
  </clipPath>
</defs>
<path clip-path="url(#clip460)" d="
M172.015 1486.45 L2352.76 1486.45 L2352.76 123.472 L172.015 123.472  Z
  " fill="#ffffff" fill-rule="evenodd" fill-opacity="1"/>
<defs>
  <clipPath id="clip462">
    <rect x="172" y="123" width="2182" height="1364"/>
  </clipPath>
</defs>
<polyline clip-path="url(#clip462)" style="stroke:#000000; stroke-linecap:butt; stroke-linejoin:round; stroke-width:2; stroke-opacity:0.1; fill:none" points="
  233.734,1486.45 233.734,123.472 
  "/>
<polyline clip-path="url(#clip462)" style="stroke:#000000; stroke-linecap:butt; stroke-linejoin:round; stroke-width:2; stroke-opacity:0.1; fill:none" points="
  748.06,1486.45 748.06,123.472 
  "/>
<polyline clip-path="url(#clip462)" style="stroke:#000000; stroke-linecap:butt; stroke-linejoin:round; stroke-width:2; stroke-opacity:0.1; fill:none" points="
  1262.39,1486.45 1262.39,123.472 
  "/>
<polyline clip-path="url(#clip462)" style="stroke:#000000; stroke-linecap:butt; stroke-linejoin:round; stroke-width:2; stroke-opacity:0.1; fill:none" points="
  1776.71,1486.45 1776.71,123.472 
  "/>
<polyline clip-path="url(#clip462)" style="stroke:#000000; stroke-linecap:butt; stroke-linejoin:round; stroke-width:2; stroke-opacity:0.1; fill:none" points="
  2291.04,1486.45 2291.04,123.472 
  "/>
<polyline clip-path="url(#clip460)" style="stroke:#000000; stroke-linecap:butt; stroke-linejoin:round; stroke-width:4; stroke-opacity:1; fill:none" points="
  172.015,1486.45 2352.76,1486.45 
  "/>
<polyline clip-path="url(#clip460)" style="stroke:#000000; stroke-linecap:butt; stroke-linejoin:round; stroke-width:4; stroke-opacity:1; fill:none" points="
  233.734,1486.45 233.734,1467.55 
  "/>
<polyline clip-path="url(#clip460)" style="stroke:#000000; stroke-linecap:butt; stroke-linejoin:round; stroke-width:4; stroke-opacity:1; fill:none" points="
  748.06,1486.45 748.06,1467.55 
  "/>
<polyline clip-path="url(#clip460)" style="stroke:#000000; stroke-linecap:butt; stroke-linejoin:round; stroke-width:4; stroke-opacity:1; fill:none" points="
  1262.39,1486.45 1262.39,1467.55 
  "/>
<polyline clip-path="url(#clip460)" style="stroke:#000000; stroke-linecap:butt; stroke-linejoin:round; stroke-width:4; stroke-opacity:1; fill:none" points="
  1776.71,1486.45 1776.71,1467.55 
  "/>
<polyline clip-path="url(#clip460)" style="stroke:#000000; stroke-linecap:butt; stroke-linejoin:round; stroke-width:4; stroke-opacity:1; fill:none" points="
  2291.04,1486.45 2291.04,1467.55 
  "/>
<path clip-path="url(#clip460)" d="M202.635 1530.29 L232.31 1530.29 L232.31 1534.23 L202.635 1534.23 L202.635 1530.29 Z" fill="#000000" fill-rule="evenodd" fill-opacity="1" /><path clip-path="url(#clip460)" d="M255.25 1516.63 L243.445 1535.08 L255.25 1535.08 L255.25 1516.63 M254.023 1512.56 L259.903 1512.56 L259.903 1535.08 L264.833 1535.08 L264.833 1538.97 L259.903 1538.97 L259.903 1547.12 L255.25 1547.12 L255.25 1538.97 L239.648 1538.97 L239.648 1534.46 L254.023 1512.56 Z" fill="#000000" fill-rule="evenodd" fill-opacity="1" /><path clip-path="url(#clip460)" d="M718.002 1530.29 L747.678 1530.29 L747.678 1534.23 L718.002 1534.23 L718.002 1530.29 Z" fill="#000000" fill-rule="evenodd" fill-opacity="1" /><path clip-path="url(#clip460)" d="M761.798 1543.18 L778.117 1543.18 L778.117 1547.12 L756.173 1547.12 L756.173 1543.18 Q758.835 1540.43 763.418 1535.8 Q768.025 1531.15 769.205 1529.81 Q771.451 1527.28 772.33 1525.55 Q773.233 1523.79 773.233 1522.1 Q773.233 1519.34 771.289 1517.61 Q769.367 1515.87 766.266 1515.87 Q764.066 1515.87 761.613 1516.63 Q759.182 1517.4 756.404 1518.95 L756.404 1514.23 Q759.229 1513.09 761.682 1512.51 Q764.136 1511.93 766.173 1511.93 Q771.543 1511.93 774.738 1514.62 Q777.932 1517.31 777.932 1521.8 Q777.932 1523.93 777.122 1525.85 Q776.335 1527.74 774.228 1530.34 Q773.65 1531.01 770.548 1534.23 Q767.446 1537.42 761.798 1543.18 Z" fill="#000000" fill-rule="evenodd" fill-opacity="1" /><path clip-path="url(#clip460)" d="M1262.39 1515.64 Q1258.77 1515.64 1256.95 1519.2 Q1255.14 1522.75 1255.14 1529.87 Q1255.14 1536.98 1256.95 1540.55 Q1258.77 1544.09 1262.39 1544.09 Q1266.02 1544.09 1267.83 1540.55 Q1269.65 1536.98 1269.65 1529.87 Q1269.65 1522.75 1267.83 1519.2 Q1266.02 1515.64 1262.39 1515.64 M1262.39 1511.93 Q1268.2 1511.93 1271.25 1516.54 Q1274.33 1521.12 1274.33 1529.87 Q1274.33 1538.6 1271.25 1543.21 Q1268.2 1547.79 1262.39 1547.79 Q1256.58 1547.79 1253.5 1543.21 Q1250.44 1538.6 1250.44 1529.87 Q1250.44 1521.12 1253.5 1516.54 Q1256.58 1511.93 1262.39 1511.93 Z" fill="#000000" fill-rule="evenodd" fill-opacity="1" /><path clip-path="url(#clip460)" d="M1771.36 1543.18 L1787.68 1543.18 L1787.68 1547.12 L1765.74 1547.12 L1765.74 1543.18 Q1768.4 1540.43 1772.98 1535.8 Q1777.59 1531.15 1778.77 1529.81 Q1781.02 1527.28 1781.9 1525.55 Q1782.8 1523.79 1782.8 1522.1 Q1782.8 1519.34 1780.85 1517.61 Q1778.93 1515.87 1775.83 1515.87 Q1773.63 1515.87 1771.18 1516.63 Q1768.75 1517.4 1765.97 1518.95 L1765.97 1514.23 Q1768.79 1513.09 1771.25 1512.51 Q1773.7 1511.93 1775.74 1511.93 Q1781.11 1511.93 1784.3 1514.62 Q1787.5 1517.31 1787.5 1521.8 Q1787.5 1523.93 1786.69 1525.85 Q1785.9 1527.74 1783.79 1530.34 Q1783.22 1531.01 1780.11 1534.23 Q1777.01 1537.42 1771.36 1543.18 Z" fill="#000000" fill-rule="evenodd" fill-opacity="1" /><path clip-path="url(#clip460)" d="M2294.05 1516.63 L2282.24 1535.08 L2294.05 1535.08 L2294.05 1516.63 M2292.82 1512.56 L2298.7 1512.56 L2298.7 1535.08 L2303.63 1535.08 L2303.63 1538.97 L2298.7 1538.97 L2298.7 1547.12 L2294.05 1547.12 L2294.05 1538.97 L2278.44 1538.97 L2278.44 1534.46 L2292.82 1512.56 Z" fill="#000000" fill-rule="evenodd" fill-opacity="1" /><polyline clip-path="url(#clip462)" style="stroke:#000000; stroke-linecap:butt; stroke-linejoin:round; stroke-width:2; stroke-opacity:0.1; fill:none" points="
  172.015,1447.87 2352.76,1447.87 
  "/>
<polyline clip-path="url(#clip462)" style="stroke:#000000; stroke-linecap:butt; stroke-linejoin:round; stroke-width:2; stroke-opacity:0.1; fill:none" points="
  172.015,1155.64 2352.76,1155.64 
  "/>
<polyline clip-path="url(#clip462)" style="stroke:#000000; stroke-linecap:butt; stroke-linejoin:round; stroke-width:2; stroke-opacity:0.1; fill:none" points="
  172.015,863.407 2352.76,863.407 
  "/>
<polyline clip-path="url(#clip462)" style="stroke:#000000; stroke-linecap:butt; stroke-linejoin:round; stroke-width:2; stroke-opacity:0.1; fill:none" points="
  172.015,571.173 2352.76,571.173 
  "/>
<polyline clip-path="url(#clip462)" style="stroke:#000000; stroke-linecap:butt; stroke-linejoin:round; stroke-width:2; stroke-opacity:0.1; fill:none" points="
  172.015,278.94 2352.76,278.94 
  "/>
<polyline clip-path="url(#clip460)" style="stroke:#000000; stroke-linecap:butt; stroke-linejoin:round; stroke-width:4; stroke-opacity:1; fill:none" points="
  172.015,1486.45 172.015,123.472 
  "/>
<polyline clip-path="url(#clip460)" style="stroke:#000000; stroke-linecap:butt; stroke-linejoin:round; stroke-width:4; stroke-opacity:1; fill:none" points="
  172.015,1447.87 190.912,1447.87 
  "/>
<polyline clip-path="url(#clip460)" style="stroke:#000000; stroke-linecap:butt; stroke-linejoin:round; stroke-width:4; stroke-opacity:1; fill:none" points="
  172.015,1155.64 190.912,1155.64 
  "/>
<polyline clip-path="url(#clip460)" style="stroke:#000000; stroke-linecap:butt; stroke-linejoin:round; stroke-width:4; stroke-opacity:1; fill:none" points="
  172.015,863.407 190.912,863.407 
  "/>
<polyline clip-path="url(#clip460)" style="stroke:#000000; stroke-linecap:butt; stroke-linejoin:round; stroke-width:4; stroke-opacity:1; fill:none" points="
  172.015,571.173 190.912,571.173 
  "/>
<polyline clip-path="url(#clip460)" style="stroke:#000000; stroke-linecap:butt; stroke-linejoin:round; stroke-width:4; stroke-opacity:1; fill:none" points="
  172.015,278.94 190.912,278.94 
  "/>
<path clip-path="url(#clip460)" d="M124.07 1433.67 Q120.459 1433.67 118.631 1437.24 Q116.825 1440.78 116.825 1447.91 Q116.825 1455.01 118.631 1458.58 Q120.459 1462.12 124.07 1462.12 Q127.705 1462.12 129.51 1458.58 Q131.339 1455.01 131.339 1447.91 Q131.339 1440.78 129.51 1437.24 Q127.705 1433.67 124.07 1433.67 M124.07 1429.97 Q129.881 1429.97 132.936 1434.57 Q136.015 1439.16 136.015 1447.91 Q136.015 1456.63 132.936 1461.24 Q129.881 1465.82 124.07 1465.82 Q118.26 1465.82 115.182 1461.24 Q112.126 1456.63 112.126 1447.91 Q112.126 1439.16 115.182 1434.57 Q118.26 1429.97 124.07 1429.97 Z" fill="#000000" fill-rule="evenodd" fill-opacity="1" /><path clip-path="url(#clip460)" d="M57.7745 1168.98 L74.0939 1168.98 L74.0939 1172.92 L52.1495 1172.92 L52.1495 1168.98 Q54.8115 1166.23 59.3949 1161.6 Q64.0013 1156.95 65.1819 1155.61 Q67.4272 1153.08 68.3068 1151.35 Q69.2096 1149.59 69.2096 1147.9 Q69.2096 1145.14 67.2652 1143.41 Q65.3439 1141.67 62.2421 1141.67 Q60.043 1141.67 57.5893 1142.43 Q55.1588 1143.2 52.381 1144.75 L52.381 1140.03 Q55.2051 1138.89 57.6588 1138.31 Q60.1124 1137.73 62.1495 1137.73 Q67.5198 1137.73 70.7142 1140.42 Q73.9087 1143.11 73.9087 1147.6 Q73.9087 1149.73 73.0985 1151.65 Q72.3115 1153.54 70.205 1156.14 Q69.6263 1156.81 66.5245 1160.03 Q63.4226 1163.22 57.7745 1168.98 Z" fill="#000000" fill-rule="evenodd" fill-opacity="1" /><path clip-path="url(#clip460)" d="M93.9086 1141.44 Q90.2975 1141.44 88.4688 1145 Q86.6632 1148.54 86.6632 1155.67 Q86.6632 1162.78 88.4688 1166.35 Q90.2975 1169.89 93.9086 1169.89 Q97.5428 1169.89 99.3483 1166.35 Q101.177 1162.78 101.177 1155.67 Q101.177 1148.54 99.3483 1145 Q97.5428 1141.44 93.9086 1141.44 M93.9086 1137.73 Q99.7187 1137.73 102.774 1142.34 Q105.853 1146.92 105.853 1155.67 Q105.853 1164.4 102.774 1169.01 Q99.7187 1173.59 93.9086 1173.59 Q88.0984 1173.59 85.0197 1169.01 Q81.9642 1164.4 81.9642 1155.67 Q81.9642 1146.92 85.0197 1142.34 Q88.0984 1137.73 93.9086 1137.73 Z" fill="#000000" fill-rule="evenodd" fill-opacity="1" /><path clip-path="url(#clip460)" d="M124.07 1141.44 Q120.459 1141.44 118.631 1145 Q116.825 1148.54 116.825 1155.67 Q116.825 1162.78 118.631 1166.35 Q120.459 1169.89 124.07 1169.89 Q127.705 1169.89 129.51 1166.35 Q131.339 1162.78 131.339 1155.67 Q131.339 1148.54 129.51 1145 Q127.705 1141.44 124.07 1141.44 M124.07 1137.73 Q129.881 1137.73 132.936 1142.34 Q136.015 1146.92 136.015 1155.67 Q136.015 1164.4 132.936 1169.01 Q129.881 1173.59 124.07 1173.59 Q118.26 1173.59 115.182 1169.01 Q112.126 1164.4 112.126 1155.67 Q112.126 1146.92 115.182 1142.34 Q118.26 1137.73 124.07 1137.73 Z" fill="#000000" fill-rule="evenodd" fill-opacity="1" /><path clip-path="url(#clip460)" d="M66.5939 850.201 L54.7884 868.65 L66.5939 868.65 L66.5939 850.201 M65.367 846.127 L71.2466 846.127 L71.2466 868.65 L76.1772 868.65 L76.1772 872.539 L71.2466 872.539 L71.2466 880.687 L66.5939 880.687 L66.5939 872.539 L50.9921 872.539 L50.9921 868.025 L65.367 846.127 Z" fill="#000000" fill-rule="evenodd" fill-opacity="1" /><path clip-path="url(#clip460)" d="M93.9086 849.205 Q90.2975 849.205 88.4688 852.77 Q86.6632 856.312 86.6632 863.441 Q86.6632 870.548 88.4688 874.113 Q90.2975 877.654 93.9086 877.654 Q97.5428 877.654 99.3483 874.113 Q101.177 870.548 101.177 863.441 Q101.177 856.312 99.3483 852.77 Q97.5428 849.205 93.9086 849.205 M93.9086 845.502 Q99.7187 845.502 102.774 850.108 Q105.853 854.691 105.853 863.441 Q105.853 872.168 102.774 876.775 Q99.7187 881.358 93.9086 881.358 Q88.0984 881.358 85.0197 876.775 Q81.9642 872.168 81.9642 863.441 Q81.9642 854.691 85.0197 850.108 Q88.0984 845.502 93.9086 845.502 Z" fill="#000000" fill-rule="evenodd" fill-opacity="1" /><path clip-path="url(#clip460)" d="M124.07 849.205 Q120.459 849.205 118.631 852.77 Q116.825 856.312 116.825 863.441 Q116.825 870.548 118.631 874.113 Q120.459 877.654 124.07 877.654 Q127.705 877.654 129.51 874.113 Q131.339 870.548 131.339 863.441 Q131.339 856.312 129.51 852.77 Q127.705 849.205 124.07 849.205 M124.07 845.502 Q129.881 845.502 132.936 850.108 Q136.015 854.691 136.015 863.441 Q136.015 872.168 132.936 876.775 Q129.881 881.358 124.07 881.358 Q118.26 881.358 115.182 876.775 Q112.126 872.168 112.126 863.441 Q112.126 854.691 115.182 850.108 Q118.26 845.502 124.07 845.502 Z" fill="#000000" fill-rule="evenodd" fill-opacity="1" /><path clip-path="url(#clip460)" d="M64.3254 569.31 Q61.1773 569.31 59.3254 571.463 Q57.4967 573.616 57.4967 577.366 Q57.4967 581.092 59.3254 583.268 Q61.1773 585.421 64.3254 585.421 Q67.4735 585.421 69.3022 583.268 Q71.1541 581.092 71.1541 577.366 Q71.1541 573.616 69.3022 571.463 Q67.4735 569.31 64.3254 569.31 M73.6077 554.657 L73.6077 558.917 Q71.8485 558.083 70.0429 557.643 Q68.2606 557.204 66.5013 557.204 Q61.8717 557.204 59.418 560.329 Q56.9875 563.454 56.6402 569.773 Q58.006 567.759 60.0662 566.694 Q62.1263 565.606 64.6032 565.606 Q69.8115 565.606 72.8207 568.778 Q75.8531 571.926 75.8531 577.366 Q75.8531 582.69 72.705 585.907 Q69.5568 589.125 64.3254 589.125 Q58.33 589.125 55.1588 584.541 Q51.9875 579.935 51.9875 571.208 Q51.9875 563.014 55.8764 558.153 Q59.7652 553.268 66.3161 553.268 Q68.0754 553.268 69.8578 553.616 Q71.6633 553.963 73.6077 554.657 Z" fill="#000000" fill-rule="evenodd" fill-opacity="1" /><path clip-path="url(#clip460)" d="M93.9086 556.972 Q90.2975 556.972 88.4688 560.537 Q86.6632 564.079 86.6632 571.208 Q86.6632 578.315 88.4688 581.879 Q90.2975 585.421 93.9086 585.421 Q97.5428 585.421 99.3483 581.879 Q101.177 578.315 101.177 571.208 Q101.177 564.079 99.3483 560.537 Q97.5428 556.972 93.9086 556.972 M93.9086 553.268 Q99.7187 553.268 102.774 557.875 Q105.853 562.458 105.853 571.208 Q105.853 579.935 102.774 584.541 Q99.7187 589.125 93.9086 589.125 Q88.0984 589.125 85.0197 584.541 Q81.9642 579.935 81.9642 571.208 Q81.9642 562.458 85.0197 557.875 Q88.0984 553.268 93.9086 553.268 Z" fill="#000000" fill-rule="evenodd" fill-opacity="1" /><path clip-path="url(#clip460)" d="M124.07 556.972 Q120.459 556.972 118.631 560.537 Q116.825 564.079 116.825 571.208 Q116.825 578.315 118.631 581.879 Q120.459 585.421 124.07 585.421 Q127.705 585.421 129.51 581.879 Q131.339 578.315 131.339 571.208 Q131.339 564.079 129.51 560.537 Q127.705 556.972 124.07 556.972 M124.07 553.268 Q129.881 553.268 132.936 557.875 Q136.015 562.458 136.015 571.208 Q136.015 579.935 132.936 584.541 Q129.881 589.125 124.07 589.125 Q118.26 589.125 115.182 584.541 Q112.126 579.935 112.126 571.208 Q112.126 562.458 115.182 557.875 Q118.26 553.268 124.07 553.268 Z" fill="#000000" fill-rule="evenodd" fill-opacity="1" /><path clip-path="url(#clip460)" d="M63.7467 279.808 Q60.4134 279.808 58.4921 281.591 Q56.5939 283.373 56.5939 286.498 Q56.5939 289.623 58.4921 291.405 Q60.4134 293.188 63.7467 293.188 Q67.08 293.188 69.0013 291.405 Q70.9226 289.6 70.9226 286.498 Q70.9226 283.373 69.0013 281.591 Q67.1032 279.808 63.7467 279.808 M59.0708 277.818 Q56.0615 277.077 54.3717 275.017 Q52.7051 272.956 52.7051 269.993 Q52.7051 265.85 55.6449 263.443 Q58.6078 261.035 63.7467 261.035 Q68.9087 261.035 71.8485 263.443 Q74.7883 265.85 74.7883 269.993 Q74.7883 272.956 73.0985 275.017 Q71.4318 277.077 68.4457 277.818 Q71.8253 278.605 73.7003 280.896 Q75.5985 283.188 75.5985 286.498 Q75.5985 291.521 72.5198 294.206 Q69.4642 296.891 63.7467 296.891 Q58.0291 296.891 54.9504 294.206 Q51.8949 291.521 51.8949 286.498 Q51.8949 283.188 53.793 280.896 Q55.6912 278.605 59.0708 277.818 M57.3578 270.433 Q57.3578 273.118 59.0245 274.623 Q60.7143 276.128 63.7467 276.128 Q66.7559 276.128 68.4457 274.623 Q70.1587 273.118 70.1587 270.433 Q70.1587 267.748 68.4457 266.244 Q66.7559 264.739 63.7467 264.739 Q60.7143 264.739 59.0245 266.244 Q57.3578 267.748 57.3578 270.433 Z" fill="#000000" fill-rule="evenodd" fill-opacity="1" /><path clip-path="url(#clip460)" d="M93.9086 264.739 Q90.2975 264.739 88.4688 268.304 Q86.6632 271.845 86.6632 278.975 Q86.6632 286.081 88.4688 289.646 Q90.2975 293.188 93.9086 293.188 Q97.5428 293.188 99.3483 289.646 Q101.177 286.081 101.177 278.975 Q101.177 271.845 99.3483 268.304 Q97.5428 264.739 93.9086 264.739 M93.9086 261.035 Q99.7187 261.035 102.774 265.642 Q105.853 270.225 105.853 278.975 Q105.853 287.702 102.774 292.308 Q99.7187 296.891 93.9086 296.891 Q88.0984 296.891 85.0197 292.308 Q81.9642 287.702 81.9642 278.975 Q81.9642 270.225 85.0197 265.642 Q88.0984 261.035 93.9086 261.035 Z" fill="#000000" fill-rule="evenodd" fill-opacity="1" /><path clip-path="url(#clip460)" d="M124.07 264.739 Q120.459 264.739 118.631 268.304 Q116.825 271.845 116.825 278.975 Q116.825 286.081 118.631 289.646 Q120.459 293.188 124.07 293.188 Q127.705 293.188 129.51 289.646 Q131.339 286.081 131.339 278.975 Q131.339 271.845 129.51 268.304 Q127.705 264.739 124.07 264.739 M124.07 261.035 Q129.881 261.035 132.936 265.642 Q136.015 270.225 136.015 278.975 Q136.015 287.702 132.936 292.308 Q129.881 296.891 124.07 296.891 Q118.26 296.891 115.182 292.308 Q112.126 287.702 112.126 278.975 Q112.126 270.225 115.182 265.642 Q118.26 261.035 124.07 261.035 Z" fill="#000000" fill-rule="evenodd" fill-opacity="1" /><path clip-path="url(#clip460)" d="M631.092 18.8205 L631.092 65.8515 L640.977 65.8515 Q653.494 65.8515 659.287 60.1802 Q665.12 54.509 665.12 42.2752 Q665.12 30.1225 659.287 24.4918 Q653.494 18.8205 640.977 18.8205 L631.092 18.8205 M622.91 12.096 L639.721 12.096 Q657.302 12.096 665.525 19.4281 Q673.748 26.7198 673.748 42.2752 Q673.748 57.9117 665.485 65.2439 Q657.221 72.576 639.721 72.576 L622.91 72.576 L622.91 12.096 Z" fill="#000000" fill-rule="evenodd" fill-opacity="1" /><path clip-path="url(#clip460)" d="M707.087 49.7694 Q698.054 49.7694 694.57 51.8354 Q691.086 53.9013 691.086 58.8839 Q691.086 62.8538 693.679 65.2034 Q696.312 67.5124 700.809 67.5124 Q707.006 67.5124 710.733 63.1374 Q714.501 58.7219 714.501 51.4303 L714.501 49.7694 L707.087 49.7694 M721.954 46.6907 L721.954 72.576 L714.501 72.576 L714.501 65.6895 Q711.948 69.8214 708.141 71.8063 Q704.333 73.7508 698.824 73.7508 Q691.856 73.7508 687.724 69.8619 Q683.633 65.9325 683.633 59.3701 Q683.633 51.7138 688.737 47.825 Q693.881 43.9361 704.049 43.9361 L714.501 43.9361 L714.501 43.2069 Q714.501 38.0623 711.098 35.2672 Q707.736 32.4315 701.619 32.4315 Q697.73 32.4315 694.044 33.3632 Q690.357 34.295 686.954 36.1584 L686.954 29.2718 Q691.046 27.692 694.894 26.9223 Q698.743 26.1121 702.388 26.1121 Q712.232 26.1121 717.093 31.2163 Q721.954 36.3204 721.954 46.6907 Z" fill="#000000" fill-rule="evenodd" fill-opacity="1" /><path clip-path="url(#clip460)" d="M744.68 14.324 L744.68 27.2059 L760.033 27.2059 L760.033 32.9987 L744.68 32.9987 L744.68 57.6282 Q744.68 63.1779 746.179 64.7578 Q747.718 66.3376 752.377 66.3376 L760.033 66.3376 L760.033 72.576 L752.377 72.576 Q743.748 72.576 740.467 69.3758 Q737.186 66.1351 737.186 57.6282 L737.186 32.9987 L731.717 32.9987 L731.717 27.2059 L737.186 27.2059 L737.186 14.324 L744.68 14.324 Z" fill="#000000" fill-rule="evenodd" fill-opacity="1" /><path clip-path="url(#clip460)" d="M790.455 49.7694 Q781.422 49.7694 777.938 51.8354 Q774.454 53.9013 774.454 58.8839 Q774.454 62.8538 777.047 65.2034 Q779.68 67.5124 784.176 67.5124 Q790.374 67.5124 794.101 63.1374 Q797.868 58.7219 797.868 51.4303 L797.868 49.7694 L790.455 49.7694 M805.322 46.6907 L805.322 72.576 L797.868 72.576 L797.868 65.6895 Q795.316 69.8214 791.508 71.8063 Q787.7 73.7508 782.191 73.7508 Q775.224 73.7508 771.092 69.8619 Q767 65.9325 767 59.3701 Q767 51.7138 772.104 47.825 Q777.249 43.9361 787.417 43.9361 L797.868 43.9361 L797.868 43.2069 Q797.868 38.0623 794.465 35.2672 Q791.103 32.4315 784.986 32.4315 Q781.097 32.4315 777.411 33.3632 Q773.725 34.295 770.322 36.1584 L770.322 29.2718 Q774.413 27.692 778.262 26.9223 Q782.11 26.1121 785.756 26.1121 Q795.6 26.1121 800.461 31.2163 Q805.322 36.3204 805.322 46.6907 Z" fill="#000000" fill-rule="evenodd" fill-opacity="1" /><path clip-path="url(#clip460)" d="M867.665 49.7694 Q858.632 49.7694 855.148 51.8354 Q851.664 53.9013 851.664 58.8839 Q851.664 62.8538 854.257 65.2034 Q856.89 67.5124 861.386 67.5124 Q867.584 67.5124 871.311 63.1374 Q875.078 58.7219 875.078 51.4303 L875.078 49.7694 L867.665 49.7694 M882.532 46.6907 L882.532 72.576 L875.078 72.576 L875.078 65.6895 Q872.526 69.8214 868.718 71.8063 Q864.911 73.7508 859.401 73.7508 Q852.434 73.7508 848.302 69.8619 Q844.211 65.9325 844.211 59.3701 Q844.211 51.7138 849.315 47.825 Q854.459 43.9361 864.627 43.9361 L875.078 43.9361 L875.078 43.2069 Q875.078 38.0623 871.676 35.2672 Q868.313 32.4315 862.197 32.4315 Q858.308 32.4315 854.621 33.3632 Q850.935 34.295 847.532 36.1584 L847.532 29.2718 Q851.624 27.692 855.472 26.9223 Q859.32 26.1121 862.966 26.1121 Q872.81 26.1121 877.671 31.2163 Q882.532 36.3204 882.532 46.6907 Z" fill="#000000" fill-rule="evenodd" fill-opacity="1" /><path clip-path="url(#clip460)" d="M935.599 45.1919 L935.599 72.576 L928.145 72.576 L928.145 45.4349 Q928.145 38.994 925.634 35.7938 Q923.122 32.5936 918.099 32.5936 Q912.063 32.5936 908.579 36.4419 Q905.096 40.2903 905.096 46.9338 L905.096 72.576 L897.601 72.576 L897.601 27.2059 L905.096 27.2059 L905.096 34.2544 Q907.769 30.163 911.375 28.1376 Q915.02 26.1121 919.76 26.1121 Q927.578 26.1121 931.589 30.9732 Q935.599 35.7938 935.599 45.1919 Z" fill="#000000" fill-rule="evenodd" fill-opacity="1" /><path clip-path="url(#clip460)" d="M980.321 34.0924 L980.321 9.54393 L987.775 9.54393 L987.775 72.576 L980.321 72.576 L980.321 65.7705 Q977.971 69.8214 974.366 71.8063 Q970.801 73.7508 965.778 73.7508 Q957.555 73.7508 952.37 67.1883 Q947.225 60.6258 947.225 49.9314 Q947.225 39.2371 952.37 32.6746 Q957.555 26.1121 965.778 26.1121 Q970.801 26.1121 974.366 28.0971 Q977.971 30.0415 980.321 34.0924 M954.922 49.9314 Q954.922 58.1548 958.284 62.8538 Q961.687 67.5124 967.601 67.5124 Q973.515 67.5124 976.918 62.8538 Q980.321 58.1548 980.321 49.9314 Q980.321 41.7081 976.918 37.0496 Q973.515 32.3505 967.601 32.3505 Q961.687 32.3505 958.284 37.0496 Q954.922 41.7081 954.922 49.9314 Z" fill="#000000" fill-rule="evenodd" fill-opacity="1" /><path clip-path="url(#clip460)" d="M1021.44 12.096 L1072.6 12.096 L1072.6 18.9825 L1051.13 18.9825 L1051.13 72.576 L1042.91 72.576 L1042.91 18.9825 L1021.44 18.9825 L1021.44 12.096 Z" fill="#000000" fill-rule="evenodd" fill-opacity="1" /><path clip-path="url(#clip460)" d="M1094.27 34.1734 Q1093.02 33.4443 1091.52 33.1202 Q1090.06 32.7556 1088.28 32.7556 Q1081.96 32.7556 1078.56 36.8875 Q1075.19 40.9789 1075.19 48.6757 L1075.19 72.576 L1067.7 72.576 L1067.7 27.2059 L1075.19 27.2059 L1075.19 34.2544 Q1077.54 30.1225 1081.31 28.1376 Q1085.08 26.1121 1090.46 26.1121 Q1091.23 26.1121 1092.17 26.2337 Q1093.1 26.3147 1094.23 26.5172 L1094.27 34.1734 Z" fill="#000000" fill-rule="evenodd" fill-opacity="1" /><path clip-path="url(#clip460)" d="M1101.32 54.671 L1101.32 27.2059 L1108.78 27.2059 L1108.78 54.3874 Q1108.78 60.8284 1111.29 64.0691 Q1113.8 67.2693 1118.82 67.2693 Q1124.86 67.2693 1128.34 63.421 Q1131.87 59.5726 1131.87 52.9291 L1131.87 27.2059 L1139.32 27.2059 L1139.32 72.576 L1131.87 72.576 L1131.87 65.6084 Q1129.15 69.7404 1125.55 71.7658 Q1121.98 73.7508 1117.24 73.7508 Q1109.42 73.7508 1105.37 68.8897 Q1101.32 64.0286 1101.32 54.671 M1120.08 26.1121 L1120.08 26.1121 Z" fill="#000000" fill-rule="evenodd" fill-opacity="1" /><path clip-path="url(#clip460)" d="M1193.48 48.0275 L1193.48 51.6733 L1159.21 51.6733 Q1159.69 59.3701 1163.83 63.421 Q1168 67.4314 1175.41 67.4314 Q1179.71 67.4314 1183.72 66.3781 Q1187.77 65.3249 1191.74 63.2184 L1191.74 70.267 Q1187.73 71.9684 1183.51 72.8596 Q1179.3 73.7508 1174.97 73.7508 Q1164.11 73.7508 1157.75 67.4314 Q1151.43 61.1119 1151.43 50.3365 Q1151.43 39.1965 1157.43 32.6746 Q1163.46 26.1121 1173.67 26.1121 Q1182.83 26.1121 1188.13 32.0264 Q1193.48 37.9003 1193.48 48.0275 M1186.03 45.84 Q1185.94 39.7232 1182.58 36.0774 Q1179.26 32.4315 1173.75 32.4315 Q1167.51 32.4315 1163.75 35.9558 Q1160.02 39.4801 1159.45 45.8805 L1186.03 45.84 Z" fill="#000000" fill-rule="evenodd" fill-opacity="1" /><path clip-path="url(#clip460)" d="M1268.66 14.0809 L1268.66 22.0612 Q1264.01 19.8332 1259.87 18.7395 Q1255.74 17.6457 1251.89 17.6457 Q1245.21 17.6457 1241.56 20.2383 Q1237.96 22.8309 1237.96 27.611 Q1237.96 31.6214 1240.35 33.6873 Q1242.78 35.7128 1249.5 36.9686 L1254.45 37.9813 Q1263.6 39.7232 1267.94 44.1387 Q1272.31 48.5136 1272.31 55.8863 Q1272.31 64.6767 1266.4 69.2137 Q1260.52 73.7508 1249.14 73.7508 Q1244.84 73.7508 1239.98 72.7785 Q1235.16 71.8063 1229.98 69.9024 L1229.98 61.4765 Q1234.96 64.2716 1239.74 65.6895 Q1244.52 67.1073 1249.14 67.1073 Q1256.15 67.1073 1259.95 64.3527 Q1263.76 61.598 1263.76 56.4939 Q1263.76 52.0379 1261.01 49.5264 Q1258.29 47.0148 1252.06 45.759 L1247.07 44.7868 Q1237.92 42.9639 1233.83 39.075 Q1229.74 35.1862 1229.74 28.2591 Q1229.74 20.2383 1235.37 15.6203 Q1241.04 11.0023 1250.96 11.0023 Q1255.22 11.0023 1259.63 11.7719 Q1264.05 12.5416 1268.66 14.0809 Z" fill="#000000" fill-rule="evenodd" fill-opacity="1" /><path clip-path="url(#clip460)" d="M1292.12 14.324 L1292.12 27.2059 L1307.47 27.2059 L1307.47 32.9987 L1292.12 32.9987 L1292.12 57.6282 Q1292.12 63.1779 1293.62 64.7578 Q1295.16 66.3376 1299.82 66.3376 L1307.47 66.3376 L1307.47 72.576 L1299.82 72.576 Q1291.19 72.576 1287.91 69.3758 Q1284.62 66.1351 1284.62 57.6282 L1284.62 32.9987 L1279.16 32.9987 L1279.16 27.2059 L1284.62 27.2059 L1284.62 14.324 L1292.12 14.324 Z" fill="#000000" fill-rule="evenodd" fill-opacity="1" /><path clip-path="url(#clip460)" d="M1337.89 49.7694 Q1328.86 49.7694 1325.38 51.8354 Q1321.89 53.9013 1321.89 58.8839 Q1321.89 62.8538 1324.49 65.2034 Q1327.12 67.5124 1331.62 67.5124 Q1337.81 67.5124 1341.54 63.1374 Q1345.31 58.7219 1345.31 51.4303 L1345.31 49.7694 L1337.89 49.7694 M1352.76 46.6907 L1352.76 72.576 L1345.31 72.576 L1345.31 65.6895 Q1342.76 69.8214 1338.95 71.8063 Q1335.14 73.7508 1329.63 73.7508 Q1322.66 73.7508 1318.53 69.8619 Q1314.44 65.9325 1314.44 59.3701 Q1314.44 51.7138 1319.54 47.825 Q1324.69 43.9361 1334.86 43.9361 L1345.31 43.9361 L1345.31 43.2069 Q1345.31 38.0623 1341.9 35.2672 Q1338.54 32.4315 1332.43 32.4315 Q1328.54 32.4315 1324.85 33.3632 Q1321.16 34.295 1317.76 36.1584 L1317.76 29.2718 Q1321.85 27.692 1325.7 26.9223 Q1329.55 26.1121 1333.2 26.1121 Q1343.04 26.1121 1347.9 31.2163 Q1352.76 36.3204 1352.76 46.6907 Z" fill="#000000" fill-rule="evenodd" fill-opacity="1" /><path clip-path="url(#clip460)" d="M1375.49 14.324 L1375.49 27.2059 L1390.84 27.2059 L1390.84 32.9987 L1375.49 32.9987 L1375.49 57.6282 Q1375.49 63.1779 1376.99 64.7578 Q1378.52 66.3376 1383.18 66.3376 L1390.84 66.3376 L1390.84 72.576 L1383.18 72.576 Q1374.55 72.576 1371.27 69.3758 Q1367.99 66.1351 1367.99 57.6282 L1367.99 32.9987 L1362.52 32.9987 L1362.52 27.2059 L1367.99 27.2059 L1367.99 14.324 L1375.49 14.324 Z" fill="#000000" fill-rule="evenodd" fill-opacity="1" /><path clip-path="url(#clip460)" d="M1400.64 27.2059 L1408.1 27.2059 L1408.1 72.576 L1400.64 72.576 L1400.64 27.2059 M1400.64 9.54393 L1408.1 9.54393 L1408.1 18.9825 L1400.64 18.9825 L1400.64 9.54393 Z" fill="#000000" fill-rule="evenodd" fill-opacity="1" /><path clip-path="url(#clip460)" d="M1452.62 28.5427 L1452.62 35.5912 Q1449.46 33.9709 1446.05 33.1607 Q1442.65 32.3505 1439 32.3505 Q1433.46 32.3505 1430.66 34.0519 Q1427.91 35.7533 1427.91 39.156 Q1427.91 41.7486 1429.89 43.2475 Q1431.88 44.7058 1437.87 46.0426 L1440.42 46.6097 Q1448.36 48.3111 1451.68 51.4303 Q1455.05 54.509 1455.05 60.0587 Q1455.05 66.3781 1450.02 70.0644 Q1445.04 73.7508 1436.29 73.7508 Q1432.64 73.7508 1428.67 73.0216 Q1424.75 72.3329 1420.37 70.9151 L1420.37 63.2184 Q1424.5 65.3654 1428.51 66.4591 Q1432.52 67.5124 1436.45 67.5124 Q1441.72 67.5124 1444.55 65.73 Q1447.39 63.9071 1447.39 60.6258 Q1447.39 57.5877 1445.32 55.9673 Q1443.3 54.3469 1436.37 52.8481 L1433.78 52.2405 Q1426.85 50.7821 1423.77 47.7845 Q1420.69 44.7463 1420.69 39.4801 Q1420.69 33.0797 1425.23 29.5959 Q1429.77 26.1121 1438.11 26.1121 Q1442.25 26.1121 1445.89 26.7198 Q1449.54 27.3274 1452.62 28.5427 Z" fill="#000000" fill-rule="evenodd" fill-opacity="1" /><path clip-path="url(#clip460)" d="M1474.29 14.324 L1474.29 27.2059 L1489.64 27.2059 L1489.64 32.9987 L1474.29 32.9987 L1474.29 57.6282 Q1474.29 63.1779 1475.79 64.7578 Q1477.33 66.3376 1481.98 66.3376 L1489.64 66.3376 L1489.64 72.576 L1481.98 72.576 Q1473.36 72.576 1470.08 69.3758 Q1466.79 66.1351 1466.79 57.6282 L1466.79 32.9987 L1461.33 32.9987 L1461.33 27.2059 L1466.79 27.2059 L1466.79 14.324 L1474.29 14.324 Z" fill="#000000" fill-rule="evenodd" fill-opacity="1" /><path clip-path="url(#clip460)" d="M1499.44 27.2059 L1506.9 27.2059 L1506.9 72.576 L1499.44 72.576 L1499.44 27.2059 M1499.44 9.54393 L1506.9 9.54393 L1506.9 18.9825 L1499.44 18.9825 L1499.44 9.54393 Z" fill="#000000" fill-rule="evenodd" fill-opacity="1" /><path clip-path="url(#clip460)" d="M1555.14 28.9478 L1555.14 35.9153 Q1551.98 34.1734 1548.78 33.3227 Q1545.62 32.4315 1542.38 32.4315 Q1535.13 32.4315 1531.12 37.0496 Q1527.11 41.6271 1527.11 49.9314 Q1527.11 58.2358 1531.12 62.8538 Q1535.13 67.4314 1542.38 67.4314 Q1545.62 67.4314 1548.78 66.5807 Q1551.98 65.6895 1555.14 63.9476 L1555.14 70.8341 Q1552.03 72.2924 1548.66 73.0216 Q1545.34 73.7508 1541.57 73.7508 Q1531.32 73.7508 1525.29 67.3098 Q1519.25 60.8689 1519.25 49.9314 Q1519.25 38.832 1525.33 32.472 Q1531.45 26.1121 1542.06 26.1121 Q1545.5 26.1121 1548.78 26.8413 Q1552.07 27.5299 1555.14 28.9478 Z" fill="#000000" fill-rule="evenodd" fill-opacity="1" /><path clip-path="url(#clip460)" d="M1588.73 49.7694 Q1579.69 49.7694 1576.21 51.8354 Q1572.73 53.9013 1572.73 58.8839 Q1572.73 62.8538 1575.32 65.2034 Q1577.95 67.5124 1582.45 67.5124 Q1588.65 67.5124 1592.37 63.1374 Q1596.14 58.7219 1596.14 51.4303 L1596.14 49.7694 L1588.73 49.7694 M1603.59 46.6907 L1603.59 72.576 L1596.14 72.576 L1596.14 65.6895 Q1593.59 69.8214 1589.78 71.8063 Q1585.97 73.7508 1580.46 73.7508 Q1573.49 73.7508 1569.36 69.8619 Q1565.27 65.9325 1565.27 59.3701 Q1565.27 51.7138 1570.38 47.825 Q1575.52 43.9361 1585.69 43.9361 L1596.14 43.9361 L1596.14 43.2069 Q1596.14 38.0623 1592.74 35.2672 Q1589.37 32.4315 1583.26 32.4315 Q1579.37 32.4315 1575.68 33.3632 Q1572 34.295 1568.59 36.1584 L1568.59 29.2718 Q1572.68 27.692 1576.53 26.9223 Q1580.38 26.1121 1584.03 26.1121 Q1593.87 26.1121 1598.73 31.2163 Q1603.59 36.3204 1603.59 46.6907 Z" fill="#000000" fill-rule="evenodd" fill-opacity="1" /><path clip-path="url(#clip460)" d="M1618.95 9.54393 L1626.4 9.54393 L1626.4 72.576 L1618.95 72.576 L1618.95 9.54393 Z" fill="#000000" fill-rule="evenodd" fill-opacity="1" /><path clip-path="url(#clip460)" d="M1668.69 12.096 L1680.88 12.096 L1696.32 53.2532 L1711.83 12.096 L1724.03 12.096 L1724.03 72.576 L1716.05 72.576 L1716.05 19.4686 L1700.45 60.9499 L1692.23 60.9499 L1676.63 19.4686 L1676.63 72.576 L1668.69 72.576 L1668.69 12.096 Z" fill="#000000" fill-rule="evenodd" fill-opacity="1" /><path clip-path="url(#clip460)" d="M1757.53 32.4315 Q1751.53 32.4315 1748.05 37.1306 Q1744.56 41.7891 1744.56 49.9314 Q1744.56 58.0738 1748.01 62.7728 Q1751.49 67.4314 1757.53 67.4314 Q1763.48 67.4314 1766.97 62.7323 Q1770.45 58.0333 1770.45 49.9314 Q1770.45 41.8701 1766.97 37.1711 Q1763.48 32.4315 1757.53 32.4315 M1757.53 26.1121 Q1767.25 26.1121 1772.8 32.4315 Q1778.35 38.7509 1778.35 49.9314 Q1778.35 61.0714 1772.8 67.4314 Q1767.25 73.7508 1757.53 73.7508 Q1747.76 73.7508 1742.21 67.4314 Q1736.71 61.0714 1736.71 49.9314 Q1736.71 38.7509 1742.21 32.4315 Q1747.76 26.1121 1757.53 26.1121 Z" fill="#000000" fill-rule="evenodd" fill-opacity="1" /><path clip-path="url(#clip460)" d="M1820.56 34.0924 L1820.56 9.54393 L1828.01 9.54393 L1828.01 72.576 L1820.56 72.576 L1820.56 65.7705 Q1818.21 69.8214 1814.6 71.8063 Q1811.04 73.7508 1806.02 73.7508 Q1797.79 73.7508 1792.61 67.1883 Q1787.46 60.6258 1787.46 49.9314 Q1787.46 39.2371 1792.61 32.6746 Q1797.79 26.1121 1806.02 26.1121 Q1811.04 26.1121 1814.6 28.0971 Q1818.21 30.0415 1820.56 34.0924 M1795.16 49.9314 Q1795.16 58.1548 1798.52 62.8538 Q1801.93 67.5124 1807.84 67.5124 Q1813.75 67.5124 1817.16 62.8538 Q1820.56 58.1548 1820.56 49.9314 Q1820.56 41.7081 1817.16 37.0496 Q1813.75 32.3505 1807.84 32.3505 Q1801.93 32.3505 1798.52 37.0496 Q1795.16 41.7081 1795.16 49.9314 Z" fill="#000000" fill-rule="evenodd" fill-opacity="1" /><path clip-path="url(#clip460)" d="M1882.17 48.0275 L1882.17 51.6733 L1847.9 51.6733 Q1848.39 59.3701 1852.52 63.421 Q1856.69 67.4314 1864.11 67.4314 Q1868.4 67.4314 1872.41 66.3781 Q1876.46 65.3249 1880.43 63.2184 L1880.43 70.267 Q1876.42 71.9684 1872.21 72.8596 Q1868 73.7508 1863.66 73.7508 Q1852.8 73.7508 1846.44 67.4314 Q1840.13 61.1119 1840.13 50.3365 Q1840.13 39.1965 1846.12 32.6746 Q1852.16 26.1121 1862.36 26.1121 Q1871.52 26.1121 1876.83 32.0264 Q1882.17 37.9003 1882.17 48.0275 M1874.72 45.84 Q1874.64 39.7232 1871.28 36.0774 Q1867.96 32.4315 1862.45 32.4315 Q1856.21 32.4315 1852.44 35.9558 Q1848.71 39.4801 1848.15 45.8805 L1874.72 45.84 Z" fill="#000000" fill-rule="evenodd" fill-opacity="1" /><path clip-path="url(#clip460)" d="M1894.41 9.54393 L1901.86 9.54393 L1901.86 72.576 L1894.41 72.576 L1894.41 9.54393 Z" fill="#000000" fill-rule="evenodd" fill-opacity="1" /><polyline clip-path="url(#clip462)" style="stroke:#009af9; stroke-linecap:butt; stroke-linejoin:round; stroke-width:4; stroke-opacity:1; fill:none" points="
  748.06,1447.87 748.06,1243.31 773.776,1243.31 773.776,1257.92 799.492,1257.92 799.492,1345.59 825.208,1345.59 825.208,1111.8 850.925,1111.8 850.925,1067.97 
  876.641,1067.97 876.641,1111.8 902.357,1111.8 902.357,994.912 928.074,994.912 928.074,980.3 953.79,980.3 953.79,1053.36 979.506,1053.36 979.506,717.29 
  1005.22,717.29 1005.22,907.242 1030.94,907.242 1030.94,702.678 1056.66,702.678 1056.66,980.3 1082.37,980.3 1082.37,1009.52 1108.09,1009.52 1108.09,1111.8 
  1133.8,1111.8 1133.8,1082.58 1159.52,1082.58 1159.52,1228.7 1185.24,1228.7 1185.24,1272.53 1210.95,1272.53 1210.95,1287.14 1236.67,1287.14 1236.67,1374.81 
  1262.39,1374.81 1262.39,1418.65 1288.1,1418.65 1313.82,1418.65 1313.82,1404.04 1339.53,1404.04 1339.53,1418.65 1365.25,1418.65 1365.25,1447.87 
  1390.97,1447.87 1416.68,1447.87 1416.68,1374.81 1442.4,1374.81 1442.4,1433.26 1468.12,1433.26 1468.12,1404.04 1493.83,1404.04 1493.83,1389.43 
  1519.55,1389.43 1519.55,1097.19 1545.26,1097.19 1545.26,1126.42 1570.98,1126.42 1570.98,1170.25 1596.7,1170.25 1596.7,994.912 1622.41,994.912 1622.41,761.125 
  1648.13,761.125 1648.13,556.562 1673.85,556.562 1673.85,454.28 1699.56,454.28 1699.56,731.902 1725.28,731.902 1725.28,498.115 1750.99,498.115 1750.99,162.047 
  1776.71,162.047 1776.71,308.164 1802.43,308.164 1828.14,308.164 1828.14,410.445 1853.86,410.445 1853.86,541.95 1879.58,541.95 1879.58,600.397 
  1905.29,600.397 1905.29,804.96 1931.01,804.96 1931.01,1126.42 1956.73,1126.42 1956.73,1067.97 1982.44,1067.97 1982.44,1024.13 2008.16,1024.13 2008.16,1199.47 
  2033.87,1199.47 2033.87,1345.59 2059.59,1345.59 2059.59,1360.2 2085.31,1360.2 2085.31,1374.81 2111.02,1374.81 2111.02,1360.2 2136.74,1360.2 2136.74,1447.87 
  2162.46,1447.87 2162.46,1418.65 2188.17,1418.65 2188.17,1447.87 2213.89,1447.87 2239.6,1447.87 2265.32,1447.87 
  2291.04,1447.87 
  "/>
<polyline clip-path="url(#clip462)" style="stroke:#e26f46; stroke-linecap:butt; stroke-linejoin:round; stroke-width:4; stroke-opacity:1; fill:none" points="
  233.734,1447.87 236.306,1447.87 238.877,1447.87 241.449,1447.87 244.02,1447.87 246.592,1447.87 249.164,1447.87 251.735,1447.87 254.307,1447.87 256.879,1447.87 
  259.45,1447.87 262.022,1447.87 264.593,1447.87 267.165,1447.87 269.737,1447.87 272.308,1447.87 274.88,1447.87 277.452,1447.87 280.023,1447.87 282.595,1447.87 
  285.166,1447.87 287.738,1447.87 290.31,1447.87 292.881,1447.87 295.453,1447.87 298.025,1447.87 300.596,1447.87 303.168,1447.87 305.74,1447.87 308.311,1447.87 
  310.883,1447.87 313.454,1447.87 316.026,1447.87 318.598,1447.87 321.169,1447.87 323.741,1447.87 326.313,1447.87 328.884,1447.87 331.456,1447.87 334.027,1447.87 
  336.599,1447.87 339.171,1447.87 341.742,1447.87 344.314,1447.87 346.886,1447.87 349.457,1447.87 352.029,1447.87 354.6,1447.87 357.172,1447.87 359.744,1447.87 
  362.315,1447.87 364.887,1447.87 367.459,1447.87 370.03,1447.87 372.602,1447.87 375.173,1447.87 377.745,1447.87 380.317,1447.87 382.888,1447.87 385.46,1447.87 
  388.032,1447.87 390.603,1447.87 393.175,1447.87 395.747,1447.87 398.318,1447.86 400.89,1447.86 403.461,1447.86 406.033,1447.86 408.605,1447.86 411.176,1447.86 
  413.748,1447.86 416.32,1447.86 418.891,1447.86 421.463,1447.85 424.034,1447.85 426.606,1447.85 429.178,1447.85 431.749,1447.85 434.321,1447.84 436.893,1447.84 
  439.464,1447.84 442.036,1447.83 444.607,1447.83 447.179,1447.83 449.751,1447.82 452.322,1447.82 454.894,1447.81 457.466,1447.81 460.037,1447.8 462.609,1447.79 
  465.18,1447.79 467.752,1447.78 470.324,1447.77 472.895,1447.76 475.467,1447.75 478.039,1447.74 480.61,1447.73 483.182,1447.72 485.754,1447.71 488.325,1447.69 
  490.897,1447.68 493.468,1447.66 496.04,1447.64 498.612,1447.62 501.183,1447.6 503.755,1447.58 506.327,1447.56 508.898,1447.53 511.47,1447.51 514.041,1447.48 
  516.613,1447.45 519.185,1447.41 521.756,1447.38 524.328,1447.34 526.9,1447.3 529.471,1447.25 532.043,1447.2 534.614,1447.15 537.186,1447.1 539.758,1447.04 
  542.329,1446.98 544.901,1446.91 547.473,1446.84 550.044,1446.77 552.616,1446.68 555.187,1446.6 557.759,1446.51 560.331,1446.41 562.902,1446.3 565.474,1446.19 
  568.046,1446.07 570.617,1445.95 573.189,1445.81 575.761,1445.67 578.332,1445.52 580.904,1445.36 583.475,1445.18 586.047,1445 588.619,1444.81 591.19,1444.61 
  593.762,1444.39 596.334,1444.16 598.905,1443.92 601.477,1443.66 604.048,1443.39 606.62,1443.1 609.192,1442.8 611.763,1442.47 614.335,1442.13 616.907,1441.78 
  619.478,1441.4 622.05,1441 624.621,1440.58 627.193,1440.13 629.765,1439.67 632.336,1439.18 634.908,1438.66 637.48,1438.11 640.051,1437.54 642.623,1436.94 
  645.194,1436.31 647.766,1435.64 650.338,1434.95 652.909,1434.22 655.481,1433.45 658.053,1432.65 660.624,1431.8 663.196,1430.92 665.768,1430 668.339,1429.04 
  670.911,1428.03 673.482,1426.97 676.054,1425.87 678.626,1424.72 681.197,1423.52 683.769,1422.26 686.341,1420.95 688.912,1419.59 691.484,1418.17 694.055,1416.69 
  696.627,1415.15 699.199,1413.55 701.77,1411.88 704.342,1410.15 706.914,1408.35 709.485,1406.48 712.057,1404.54 714.628,1402.53 717.2,1400.44 719.772,1398.28 
  722.343,1396.04 724.915,1393.72 727.487,1391.32 730.058,1388.83 732.63,1386.26 735.201,1383.61 737.773,1380.86 740.345,1378.03 742.916,1375.11 745.488,1372.09 
  748.06,1368.98 750.631,1365.78 753.203,1362.48 755.775,1359.09 758.346,1355.59 760.918,1352 763.489,1348.3 766.061,1344.51 768.633,1340.61 771.204,1336.62 
  773.776,1332.51 776.348,1328.31 778.919,1324 781.491,1319.59 784.062,1315.07 786.634,1310.45 789.206,1305.73 791.777,1300.9 794.349,1295.97 796.921,1290.93 
  799.492,1285.8 802.064,1280.56 804.635,1275.23 807.207,1269.79 809.779,1264.26 812.35,1258.63 814.922,1252.9 817.494,1247.08 820.065,1241.18 822.637,1235.18 
  825.208,1229.1 827.78,1222.93 830.352,1216.68 832.923,1210.35 835.495,1203.95 838.067,1197.48 840.638,1190.93 843.21,1184.32 845.782,1177.65 848.353,1170.92 
  850.925,1164.14 853.496,1157.3 856.068,1150.42 858.64,1143.5 861.211,1136.54 863.783,1129.55 866.355,1122.54 868.926,1115.5 871.498,1108.45 874.069,1101.38 
  876.641,1094.31 879.213,1087.24 881.784,1080.18 884.356,1073.13 886.928,1066.09 889.499,1059.08 892.071,1052.1 894.642,1045.15 897.214,1038.24 899.786,1031.39 
  902.357,1024.59 904.929,1017.84 907.501,1011.17 910.072,1004.57 912.644,998.051 915.215,991.618 917.787,985.278 920.359,979.038 922.93,972.903 925.502,966.881 
  928.074,960.977 930.645,955.197 933.217,949.549 935.789,944.037 938.36,938.668 940.932,933.447 943.503,928.381 946.075,923.475 948.647,918.734 951.218,914.164 
  953.79,909.769 956.362,905.556 958.933,901.528 961.505,897.69 964.076,894.047 966.648,890.602 969.22,887.361 971.791,884.326 974.363,881.501 976.935,878.89 
  979.506,876.495 982.078,874.319 984.649,872.366 987.221,870.637 989.793,869.134 992.364,867.859 994.936,866.815 997.508,866 1000.08,865.418 1002.65,865.069 
  1005.22,864.952 1007.79,865.069 1010.37,865.418 1012.94,866 1015.51,866.814 1018.08,867.859 1020.65,869.134 1023.22,870.637 1025.8,872.366 1028.37,874.319 
  1030.94,876.495 1033.51,878.889 1036.08,881.501 1038.65,884.326 1041.23,887.36 1043.8,890.602 1046.37,894.046 1048.94,897.69 1051.51,901.527 1054.08,905.555 
  1056.66,909.769 1059.23,914.163 1061.8,918.734 1064.37,923.475 1066.94,928.381 1069.51,933.447 1072.08,938.667 1074.66,944.036 1077.23,949.548 1079.8,955.197 
  1082.37,960.976 1084.94,966.88 1087.51,972.902 1090.09,979.037 1092.66,985.277 1095.23,991.617 1097.8,998.05 1100.37,1004.57 1102.94,1011.17 1105.52,1017.84 
  1108.09,1024.58 1110.66,1031.39 1113.23,1038.24 1115.8,1045.15 1118.37,1052.09 1120.95,1059.08 1123.52,1066.09 1126.09,1073.12 1128.66,1080.18 1131.23,1087.24 
  1133.8,1094.31 1136.38,1101.38 1138.95,1108.44 1141.52,1115.5 1144.09,1122.53 1146.66,1129.55 1149.23,1136.54 1151.81,1143.49 1154.38,1150.41 1156.95,1157.29 
  1159.52,1164.12 1162.09,1170.91 1164.66,1177.63 1167.24,1184.31 1169.81,1190.91 1172.38,1197.46 1174.95,1203.93 1177.52,1210.33 1180.09,1216.66 1182.66,1222.9 
  1185.24,1229.07 1187.81,1235.15 1190.38,1241.14 1192.95,1247.05 1195.52,1252.86 1198.09,1258.58 1200.67,1264.21 1203.24,1269.73 1205.81,1275.16 1208.38,1280.5 
  1210.95,1285.73 1213.52,1290.86 1216.1,1295.88 1218.67,1300.8 1221.24,1305.62 1223.81,1310.34 1226.38,1314.95 1228.95,1319.45 1231.53,1323.86 1234.1,1328.15 
  1236.67,1332.34 1239.24,1336.43 1241.81,1340.41 1244.38,1344.29 1246.96,1348.06 1249.53,1351.74 1252.1,1355.31 1254.67,1358.78 1257.24,1362.15 1259.81,1365.42 
  1262.39,1368.59 1264.96,1371.67 1267.53,1374.65 1270.1,1377.53 1272.67,1380.33 1275.24,1383.03 1277.82,1385.63 1280.39,1388.15 1282.96,1390.58 1285.53,1392.93 
  1288.1,1395.19 1290.67,1397.36 1293.24,1399.45 1295.82,1401.46 1298.39,1403.39 1300.96,1405.24 1303.53,1407.01 1306.1,1408.71 1308.67,1410.34 1311.25,1411.89 
  1313.82,1413.36 1316.39,1414.77 1318.96,1416.11 1321.53,1417.38 1324.1,1418.58 1326.68,1419.71 1329.25,1420.78 1331.82,1421.79 1334.39,1422.73 1336.96,1423.61 
  1339.53,1424.43 1342.11,1425.18 1344.68,1425.88 1347.25,1426.52 1349.82,1427.09 1352.39,1427.61 1354.96,1428.07 1357.54,1428.48 1360.11,1428.82 1362.68,1429.11 
  1365.25,1429.34 1367.82,1429.51 1370.39,1429.63 1372.97,1429.69 1375.54,1429.69 1378.11,1429.63 1380.68,1429.51 1383.25,1429.34 1385.82,1429.1 1388.4,1428.8 
  1390.97,1428.45 1393.54,1428.03 1396.11,1427.54 1398.68,1427 1401.25,1426.38 1403.82,1425.7 1406.4,1424.96 1408.97,1424.14 1411.54,1423.25 1414.11,1422.29 
  1416.68,1421.26 1419.25,1420.15 1421.83,1418.96 1424.4,1417.69 1426.97,1416.34 1429.54,1414.9 1432.11,1413.38 1434.68,1411.77 1437.26,1410.07 1439.83,1408.27 
  1442.4,1406.38 1444.97,1404.39 1447.54,1402.29 1450.11,1400.1 1452.69,1397.79 1455.26,1395.37 1457.83,1392.85 1460.4,1390.2 1462.97,1387.44 1465.54,1384.55 
  1468.12,1381.53 1470.69,1378.39 1473.26,1375.12 1475.83,1371.71 1478.4,1368.16 1480.97,1364.47 1483.55,1360.64 1486.12,1356.65 1488.69,1352.52 1491.26,1348.23 
  1493.83,1343.78 1496.4,1339.17 1498.98,1334.39 1501.55,1329.45 1504.12,1324.34 1506.69,1319.05 1509.26,1313.58 1511.83,1307.94 1514.4,1302.11 1516.98,1296.1 
  1519.55,1289.9 1522.12,1283.51 1524.69,1276.92 1527.26,1270.14 1529.83,1263.17 1532.41,1255.99 1534.98,1248.61 1537.55,1241.04 1540.12,1233.25 1542.69,1225.26 
  1545.26,1217.07 1547.84,1208.67 1550.41,1200.06 1552.98,1191.24 1555.55,1182.21 1558.12,1172.97 1560.69,1163.53 1563.27,1153.88 1565.84,1144.02 1568.41,1133.96 
  1570.98,1123.69 1573.55,1113.22 1576.12,1102.55 1578.7,1091.68 1581.27,1080.61 1583.84,1069.36 1586.41,1057.91 1588.98,1046.28 1591.55,1034.46 1594.13,1022.47 
  1596.7,1010.3 1599.27,997.972 1601.84,985.475 1604.41,972.822 1606.98,960.017 1609.56,947.068 1612.13,933.98 1614.7,920.761 1617.27,907.418 1619.84,893.959 
  1622.41,880.391 1624.99,866.724 1627.56,852.965 1630.13,839.124 1632.7,825.21 1635.27,811.233 1637.84,797.202 1640.41,783.128 1642.99,769.021 1645.56,754.892 
  1648.13,740.752 1650.7,726.612 1653.27,712.483 1655.84,698.377 1658.42,684.306 1660.99,670.282 1663.56,656.317 1666.13,642.424 1668.7,628.614 1671.27,614.901 
  1673.85,601.297 1676.42,587.815 1678.99,574.468 1681.56,561.268 1684.13,548.229 1686.7,535.363 1689.28,522.683 1691.85,510.202 1694.42,497.933 1696.99,485.888 
  1699.56,474.08 1702.13,462.521 1704.71,451.224 1707.28,440.2 1709.85,429.462 1712.42,419.021 1714.99,408.889 1717.56,399.076 1720.14,389.595 1722.71,380.454 
  1725.28,371.665 1727.85,363.238 1730.42,355.182 1732.99,347.506 1735.57,340.22 1738.14,333.331 1740.71,326.848 1743.28,320.778 1745.85,315.129 1748.42,309.906 
  1750.99,305.116 1753.57,300.766 1756.14,296.859 1758.71,293.401 1761.28,290.395 1763.85,287.846 1766.42,285.756 1769,284.128 1771.57,282.963 1774.14,282.264 
  1776.71,282.031 1779.28,282.264 1781.85,282.964 1784.43,284.128 1787,285.756 1789.57,287.846 1792.14,290.395 1794.71,293.401 1797.28,296.859 1799.86,300.766 
  1802.43,305.116 1805,309.906 1807.57,315.129 1810.14,320.778 1812.71,326.848 1815.29,333.331 1817.86,340.22 1820.43,347.506 1823,355.182 1825.57,363.238 
  1828.14,371.665 1830.72,380.454 1833.29,389.595 1835.86,399.076 1838.43,408.889 1841,419.021 1843.57,429.462 1846.15,440.2 1848.72,451.224 1851.29,462.521 
  1853.86,474.08 1856.43,485.888 1859,497.933 1861.57,510.202 1864.15,522.683 1866.72,535.363 1869.29,548.229 1871.86,561.269 1874.43,574.469 1877,587.816 
  1879.58,601.298 1882.15,614.902 1884.72,628.615 1887.29,642.425 1889.86,656.319 1892.43,670.284 1895.01,684.308 1897.58,698.379 1900.15,712.485 1902.72,726.614 
  1905.29,740.754 1907.86,754.895 1910.44,769.024 1913.01,783.131 1915.58,797.206 1918.15,811.237 1920.72,825.214 1923.29,839.129 1925.87,852.97 1928.44,866.729 
  1931.01,880.397 1933.58,893.965 1936.15,907.425 1938.72,920.769 1941.3,933.988 1943.87,947.077 1946.44,960.028 1949.01,972.833 1951.58,985.488 1954.15,997.985 
  1956.73,1010.32 1959.3,1022.49 1961.87,1034.48 1964.44,1046.3 1967.01,1057.93 1969.58,1069.38 1972.15,1080.64 1974.73,1091.71 1977.3,1102.58 1979.87,1113.25 
  1982.44,1123.73 1985.01,1134 1987.58,1144.06 1990.16,1153.93 1992.73,1163.58 1995.3,1173.03 1997.87,1182.27 2000.44,1191.3 2003.01,1200.13 2005.59,1208.75 
  2008.16,1217.15 2010.73,1225.36 2013.3,1233.35 2015.87,1241.15 2018.44,1248.73 2021.02,1256.12 2023.59,1263.31 2026.16,1270.3 2028.73,1277.09 2031.3,1283.69 
  2033.87,1290.09 2036.45,1296.31 2039.02,1302.34 2041.59,1308.19 2044.16,1313.85 2046.73,1319.34 2049.3,1324.65 2051.88,1329.79 2054.45,1334.76 2057.02,1339.56 
  2059.59,1344.2 2062.16,1348.69 2064.73,1353.01 2067.31,1357.19 2069.88,1361.21 2072.45,1365.09 2075.02,1368.83 2077.59,1372.43 2080.16,1375.89 2082.73,1379.22 
  2085.31,1382.43 2087.88,1385.51 2090.45,1388.47 2093.02,1391.31 2095.59,1394.03 2098.16,1396.65 2100.74,1399.16 2103.31,1401.56 2105.88,1403.86 2108.45,1406.07 
  2111.02,1408.18 2113.59,1410.2 2116.17,1412.13 2118.74,1413.97 2121.31,1415.74 2123.88,1417.42 2126.45,1419.03 2129.02,1420.56 2131.6,1422.02 2134.17,1423.41 
  2136.74,1424.74 2139.31,1426.01 2141.88,1427.21 2144.45,1428.35 2147.03,1429.44 2149.6,1430.48 2152.17,1431.46 2154.74,1432.4 2157.31,1433.28 2159.88,1434.12 
  2162.46,1434.92 2165.03,1435.68 2167.6,1436.4 2170.17,1437.07 2172.74,1437.72 2175.31,1438.33 2177.89,1438.9 2180.46,1439.45 2183.03,1439.96 2185.6,1440.45 
  2188.17,1440.91 2190.74,1441.34 2193.31,1441.75 2195.89,1442.13 2198.46,1442.5 2201.03,1442.84 2203.6,1443.16 2206.17,1443.47 2208.74,1443.75 2211.32,1444.02 
  2213.89,1444.27 2216.46,1444.51 2219.03,1444.73 2221.6,1444.94 2224.17,1445.14 2226.75,1445.32 2229.32,1445.5 2231.89,1445.66 2234.46,1445.81 2237.03,1445.95 
  2239.6,1446.08 2242.18,1446.21 2244.75,1446.33 2247.32,1446.43 2249.89,1446.54 2252.46,1446.63 2255.03,1446.72 2257.61,1446.8 2260.18,1446.88 2262.75,1446.95 
  2265.32,1447.02 2267.89,1447.08 2270.46,1447.14 2273.04,1447.2 2275.61,1447.25 2278.18,1447.29 2280.75,1447.34 2283.32,1447.38 2285.89,1447.41 2288.47,1447.45 
  2291.04,1447.48 
  "/>
<path clip-path="url(#clip460)" d="
M1921.49 324.425 L2280.06 324.425 L2280.06 168.905 L1921.49 168.905  Z
  " fill="#ffffff" fill-rule="evenodd" fill-opacity="1"/>
<polyline clip-path="url(#clip460)" style="stroke:#000000; stroke-linecap:butt; stroke-linejoin:round; stroke-width:4; stroke-opacity:1; fill:none" points="
  1921.49,324.425 2280.06,324.425 2280.06,168.905 1921.49,168.905 1921.49,324.425 
  "/>
<polyline clip-path="url(#clip460)" style="stroke:#009af9; stroke-linecap:butt; stroke-linejoin:round; stroke-width:4; stroke-opacity:1; fill:none" points="
  1945.72,220.745 2091.1,220.745 
  "/>
<path clip-path="url(#clip460)" d="M2120.01 207.307 L2120.01 234.182 L2125.66 234.182 Q2132.81 234.182 2136.12 230.941 Q2139.45 227.701 2139.45 220.71 Q2139.45 213.766 2136.12 210.548 Q2132.81 207.307 2125.66 207.307 L2120.01 207.307 M2115.33 203.465 L2124.94 203.465 Q2134.98 203.465 2139.68 207.654 Q2144.38 211.821 2144.38 220.71 Q2144.38 229.645 2139.66 233.835 Q2134.94 238.025 2124.94 238.025 L2115.33 238.025 L2115.33 203.465 Z" fill="#000000" fill-rule="evenodd" fill-opacity="1" /><path clip-path="url(#clip460)" d="M2163.43 224.992 Q2158.27 224.992 2156.28 226.173 Q2154.29 227.353 2154.29 230.201 Q2154.29 232.469 2155.77 233.812 Q2157.28 235.131 2159.84 235.131 Q2163.39 235.131 2165.52 232.631 Q2167.67 230.108 2167.67 225.941 L2167.67 224.992 L2163.43 224.992 M2171.93 223.233 L2171.93 238.025 L2167.67 238.025 L2167.67 234.089 Q2166.21 236.451 2164.03 237.585 Q2161.86 238.696 2158.71 238.696 Q2154.73 238.696 2152.37 236.474 Q2150.03 234.228 2150.03 230.478 Q2150.03 226.103 2152.95 223.881 Q2155.89 221.659 2161.7 221.659 L2167.67 221.659 L2167.67 221.242 Q2167.67 218.303 2165.72 216.705 Q2163.8 215.085 2160.31 215.085 Q2158.09 215.085 2155.98 215.617 Q2153.87 216.15 2151.93 217.215 L2151.93 213.279 Q2154.27 212.377 2156.47 211.937 Q2158.66 211.474 2160.75 211.474 Q2166.37 211.474 2169.15 214.391 Q2171.93 217.307 2171.93 223.233 Z" fill="#000000" fill-rule="evenodd" fill-opacity="1" /><path clip-path="url(#clip460)" d="M2184.91 204.738 L2184.91 212.099 L2193.69 212.099 L2193.69 215.409 L2184.91 215.409 L2184.91 229.483 Q2184.91 232.654 2185.77 233.557 Q2186.65 234.46 2189.31 234.46 L2193.69 234.46 L2193.69 238.025 L2189.31 238.025 Q2184.38 238.025 2182.51 236.196 Q2180.63 234.344 2180.63 229.483 L2180.63 215.409 L2177.51 215.409 L2177.51 212.099 L2180.63 212.099 L2180.63 204.738 L2184.91 204.738 Z" fill="#000000" fill-rule="evenodd" fill-opacity="1" /><path clip-path="url(#clip460)" d="M2211.07 224.992 Q2205.91 224.992 2203.92 226.173 Q2201.93 227.353 2201.93 230.201 Q2201.93 232.469 2203.41 233.812 Q2204.91 235.131 2207.48 235.131 Q2211.03 235.131 2213.15 232.631 Q2215.31 230.108 2215.31 225.941 L2215.31 224.992 L2211.07 224.992 M2219.57 223.233 L2219.57 238.025 L2215.31 238.025 L2215.31 234.089 Q2213.85 236.451 2211.67 237.585 Q2209.5 238.696 2206.35 238.696 Q2202.37 238.696 2200.01 236.474 Q2197.67 234.228 2197.67 230.478 Q2197.67 226.103 2200.59 223.881 Q2203.53 221.659 2209.34 221.659 L2215.31 221.659 L2215.31 221.242 Q2215.31 218.303 2213.36 216.705 Q2211.44 215.085 2207.95 215.085 Q2205.72 215.085 2203.62 215.617 Q2201.51 216.15 2199.57 217.215 L2199.57 213.279 Q2201.9 212.377 2204.1 211.937 Q2206.3 211.474 2208.39 211.474 Q2214.01 211.474 2216.79 214.391 Q2219.57 217.307 2219.57 223.233 Z" fill="#000000" fill-rule="evenodd" fill-opacity="1" /><polyline clip-path="url(#clip460)" style="stroke:#e26f46; stroke-linecap:butt; stroke-linejoin:round; stroke-width:4; stroke-opacity:1; fill:none" points="
  1945.72,272.585 2091.1,272.585 
  "/>
<path clip-path="url(#clip460)" d="M2115.33 255.305 L2144.57 255.305 L2144.57 259.24 L2132.3 259.24 L2132.3 289.865 L2127.6 289.865 L2127.6 259.24 L2115.33 259.24 L2115.33 255.305 Z" fill="#000000" fill-rule="evenodd" fill-opacity="1" /><path clip-path="url(#clip460)" d="M2156.95 267.92 Q2156.23 267.504 2155.38 267.318 Q2154.54 267.11 2153.53 267.11 Q2149.91 267.11 2147.97 269.471 Q2146.05 271.809 2146.05 276.207 L2146.05 289.865 L2141.77 289.865 L2141.77 263.939 L2146.05 263.939 L2146.05 267.967 Q2147.39 265.606 2149.54 264.471 Q2151.7 263.314 2154.78 263.314 Q2155.22 263.314 2155.75 263.383 Q2156.28 263.43 2156.93 263.545 L2156.95 267.92 Z" fill="#000000" fill-rule="evenodd" fill-opacity="1" /><path clip-path="url(#clip460)" d="M2160.98 279.633 L2160.98 263.939 L2165.24 263.939 L2165.24 279.471 Q2165.24 283.152 2166.67 285.004 Q2168.11 286.832 2170.98 286.832 Q2174.43 286.832 2176.42 284.633 Q2178.43 282.434 2178.43 278.638 L2178.43 263.939 L2182.69 263.939 L2182.69 289.865 L2178.43 289.865 L2178.43 285.883 Q2176.88 288.244 2174.82 289.402 Q2172.78 290.536 2170.08 290.536 Q2165.61 290.536 2163.29 287.758 Q2160.98 284.98 2160.98 279.633 M2171.7 263.314 L2171.7 263.314 Z" fill="#000000" fill-rule="evenodd" fill-opacity="1" /><path clip-path="url(#clip460)" d="M2195.68 256.578 L2195.68 263.939 L2204.45 263.939 L2204.45 267.249 L2195.68 267.249 L2195.68 281.323 Q2195.68 284.494 2196.53 285.397 Q2197.41 286.3 2200.08 286.3 L2204.45 286.3 L2204.45 289.865 L2200.08 289.865 Q2195.15 289.865 2193.27 288.036 Q2191.4 286.184 2191.4 281.323 L2191.4 267.249 L2188.27 267.249 L2188.27 263.939 L2191.4 263.939 L2191.4 256.578 L2195.68 256.578 Z" fill="#000000" fill-rule="evenodd" fill-opacity="1" /><path clip-path="url(#clip460)" d="M2231.6 274.217 L2231.6 289.865 L2227.34 289.865 L2227.34 274.355 Q2227.34 270.675 2225.91 268.846 Q2224.47 267.018 2221.6 267.018 Q2218.15 267.018 2216.16 269.217 Q2214.17 271.416 2214.17 275.212 L2214.17 289.865 L2209.89 289.865 L2209.89 253.846 L2214.17 253.846 L2214.17 267.967 Q2215.7 265.629 2217.76 264.471 Q2219.84 263.314 2222.55 263.314 Q2227.02 263.314 2229.31 266.092 Q2231.6 268.846 2231.6 274.217 Z" fill="#000000" fill-rule="evenodd" fill-opacity="1" /></svg>
