<?xml version="1.0" encoding="utf-8"?>
<svg xmlns="http://www.w3.org/2000/svg" xmlns:xlink="http://www.w3.org/1999/xlink" width="600" height="400" viewBox="0 0 2400 1600">
<defs>
  <clipPath id="clip430">
    <rect x="0" y="0" width="2400" height="1600"/>
  </clipPath>
</defs>
<path clip-path="url(#clip430)" d="
M0 1600 L2400 1600 L2400 0 L0 0  Z
  " fill="#ffffff" fill-rule="evenodd" fill-opacity="1"/>
<defs>
  <clipPath id="clip431">
    <rect x="480" y="0" width="1681" height="1600"/>
  </clipPath>
</defs>
<path clip-path="url(#clip430)" d="
M172.015 1486.45 L2352.76 1486.45 L2352.76 123.472 L172.015 123.472  Z
  " fill="#ffffff" fill-rule="evenodd" fill-opacity="1"/>
<defs>
  <clipPath id="clip432">
    <rect x="172" y="123" width="2182" height="1364"/>
  </clipPath>
</defs>
<polyline clip-path="url(#clip432)" style="stroke:#000000; stroke-linecap:butt; stroke-linejoin:round; stroke-width:2; stroke-opacity:0.1; fill:none" points="
  233.734,1486.45 233.734,123.472 
  "/>
<polyline clip-path="url(#clip432)" style="stroke:#000000; stroke-linecap:butt; stroke-linejoin:round; stroke-width:2; stroke-opacity:0.1; fill:none" points="
  576.618,1486.45 576.618,123.472 
  "/>
<polyline clip-path="url(#clip432)" style="stroke:#000000; stroke-linecap:butt; stroke-linejoin:round; stroke-width:2; stroke-opacity:0.1; fill:none" points="
  919.502,1486.45 919.502,123.472 
  "/>
<polyline clip-path="url(#clip432)" style="stroke:#000000; stroke-linecap:butt; stroke-linejoin:round; stroke-width:2; stroke-opacity:0.1; fill:none" points="
  1262.39,1486.45 1262.39,123.472 
  "/>
<polyline clip-path="url(#clip432)" style="stroke:#000000; stroke-linecap:butt; stroke-linejoin:round; stroke-width:2; stroke-opacity:0.1; fill:none" points="
  1605.27,1486.45 1605.27,123.472 
  "/>
<polyline clip-path="url(#clip432)" style="stroke:#000000; stroke-linecap:butt; stroke-linejoin:round; stroke-width:2; stroke-opacity:0.1; fill:none" points="
  1948.15,1486.45 1948.15,123.472 
  "/>
<polyline clip-path="url(#clip432)" style="stroke:#000000; stroke-linecap:butt; stroke-linejoin:round; stroke-width:2; stroke-opacity:0.1; fill:none" points="
  2291.04,1486.45 2291.04,123.472 
  "/>
<polyline clip-path="url(#clip430)" style="stroke:#000000; stroke-linecap:butt; stroke-linejoin:round; stroke-width:4; stroke-opacity:1; fill:none" points="
  172.015,1486.45 2352.76,1486.45 
  "/>
<polyline clip-path="url(#clip430)" style="stroke:#000000; stroke-linecap:butt; stroke-linejoin:round; stroke-width:4; stroke-opacity:1; fill:none" points="
  233.734,1486.45 233.734,1467.55 
  "/>
<polyline clip-path="url(#clip430)" style="stroke:#000000; stroke-linecap:butt; stroke-linejoin:round; stroke-width:4; stroke-opacity:1; fill:none" points="
  576.618,1486.45 576.618,1467.55 
  "/>
<polyline clip-path="url(#clip430)" style="stroke:#000000; stroke-linecap:butt; stroke-linejoin:round; stroke-width:4; stroke-opacity:1; fill:none" points="
  919.502,1486.45 919.502,1467.55 
  "/>
<polyline clip-path="url(#clip430)" style="stroke:#000000; stroke-linecap:butt; stroke-linejoin:round; stroke-width:4; stroke-opacity:1; fill:none" points="
  1262.39,1486.45 1262.39,1467.55 
  "/>
<polyline clip-path="url(#clip430)" style="stroke:#000000; stroke-linecap:butt; stroke-linejoin:round; stroke-width:4; stroke-opacity:1; fill:none" points="
  1605.27,1486.45 1605.27,1467.55 
  "/>
<polyline clip-path="url(#clip430)" style="stroke:#000000; stroke-linecap:butt; stroke-linejoin:round; stroke-width:4; stroke-opacity:1; fill:none" points="
  1948.15,1486.45 1948.15,1467.55 
  "/>
<polyline clip-path="url(#clip430)" style="stroke:#000000; stroke-linecap:butt; stroke-linejoin:round; stroke-width:4; stroke-opacity:1; fill:none" points="
  2291.04,1486.45 2291.04,1467.55 
  "/>
<path clip-path="url(#clip430)" d="M203.676 1530.29 L233.352 1530.29 L233.352 1534.23 L203.676 1534.23 L203.676 1530.29 Z" fill="#000000" fill-rule="evenodd" fill-opacity="1" /><path clip-path="url(#clip430)" d="M247.472 1543.18 L263.792 1543.18 L263.792 1547.12 L241.847 1547.12 L241.847 1543.18 Q244.509 1540.43 249.093 1535.8 Q253.699 1531.15 254.88 1529.81 Q257.125 1527.28 258.005 1525.55 Q258.907 1523.79 258.907 1522.1 Q258.907 1519.34 256.963 1517.61 Q255.042 1515.87 251.94 1515.87 Q249.741 1515.87 247.287 1516.63 Q244.857 1517.4 242.079 1518.95 L242.079 1514.23 Q244.903 1513.09 247.357 1512.51 Q249.81 1511.93 251.847 1511.93 Q257.218 1511.93 260.412 1514.62 Q263.606 1517.31 263.606 1521.8 Q263.606 1523.93 262.796 1525.85 Q262.009 1527.74 259.903 1530.34 Q259.324 1531.01 256.222 1534.23 Q253.12 1537.42 247.472 1543.18 Z" fill="#000000" fill-rule="evenodd" fill-opacity="1" /><path clip-path="url(#clip430)" d="M546.375 1530.29 L576.051 1530.29 L576.051 1534.23 L546.375 1534.23 L546.375 1530.29 Z" fill="#000000" fill-rule="evenodd" fill-opacity="1" /><path clip-path="url(#clip430)" d="M586.953 1543.18 L594.592 1543.18 L594.592 1516.82 L586.282 1518.49 L586.282 1514.23 L594.546 1512.56 L599.222 1512.56 L599.222 1543.18 L606.861 1543.18 L606.861 1547.12 L586.953 1547.12 L586.953 1543.18 Z" fill="#000000" fill-rule="evenodd" fill-opacity="1" /><path clip-path="url(#clip430)" d="M919.502 1515.64 Q915.89 1515.64 914.062 1519.2 Q912.256 1522.75 912.256 1529.87 Q912.256 1536.98 914.062 1540.55 Q915.89 1544.09 919.502 1544.09 Q923.136 1544.09 924.941 1540.55 Q926.77 1536.98 926.77 1529.87 Q926.77 1522.75 924.941 1519.2 Q923.136 1515.64 919.502 1515.64 M919.502 1511.93 Q925.312 1511.93 928.367 1516.54 Q931.446 1521.12 931.446 1529.87 Q931.446 1538.6 928.367 1543.21 Q925.312 1547.79 919.502 1547.79 Q913.691 1547.79 910.613 1543.21 Q907.557 1538.6 907.557 1529.87 Q907.557 1521.12 910.613 1516.54 Q913.691 1511.93 919.502 1511.93 Z" fill="#000000" fill-rule="evenodd" fill-opacity="1" /><path clip-path="url(#clip430)" d="M1252.77 1543.18 L1260.41 1543.18 L1260.41 1516.82 L1252.1 1518.49 L1252.1 1514.23 L1260.36 1512.56 L1265.04 1512.56 L1265.04 1543.18 L1272.67 1543.18 L1272.67 1547.12 L1252.77 1547.12 L1252.77 1543.18 Z" fill="#000000" fill-rule="evenodd" fill-opacity="1" /><path clip-path="url(#clip430)" d="M1599.92 1543.18 L1616.24 1543.18 L1616.24 1547.12 L1594.3 1547.12 L1594.3 1543.18 Q1596.96 1540.43 1601.54 1535.8 Q1606.15 1531.15 1607.33 1529.81 Q1609.57 1527.28 1610.45 1525.55 Q1611.36 1523.79 1611.36 1522.1 Q1611.36 1519.34 1609.41 1517.61 Q1607.49 1515.87 1604.39 1515.87 Q1602.19 1515.87 1599.74 1516.63 Q1597.31 1517.4 1594.53 1518.95 L1594.53 1514.23 Q1597.35 1513.09 1599.81 1512.51 Q1602.26 1511.93 1604.3 1511.93 Q1609.67 1511.93 1612.86 1514.62 Q1616.06 1517.31 1616.06 1521.8 Q1616.06 1523.93 1615.25 1525.85 Q1614.46 1527.74 1612.35 1530.34 Q1611.77 1531.01 1608.67 1534.23 Q1605.57 1537.42 1599.92 1543.18 Z" fill="#000000" fill-rule="evenodd" fill-opacity="1" /><path clip-path="url(#clip430)" d="M1952.4 1528.49 Q1955.76 1529.2 1957.63 1531.47 Q1959.53 1533.74 1959.53 1537.07 Q1959.53 1542.19 1956.01 1544.99 Q1952.49 1547.79 1946.01 1547.79 Q1943.84 1547.79 1941.52 1547.35 Q1939.23 1546.93 1936.78 1546.08 L1936.78 1541.56 Q1938.72 1542.7 1941.03 1543.28 Q1943.35 1543.86 1945.87 1543.86 Q1950.27 1543.86 1952.56 1542.12 Q1954.88 1540.38 1954.88 1537.07 Q1954.88 1534.02 1952.72 1532.31 Q1950.6 1530.57 1946.78 1530.57 L1942.75 1530.57 L1942.75 1526.73 L1946.96 1526.73 Q1950.41 1526.73 1952.24 1525.36 Q1954.07 1523.97 1954.07 1521.38 Q1954.07 1518.72 1952.17 1517.31 Q1950.29 1515.87 1946.78 1515.87 Q1944.85 1515.87 1942.66 1516.29 Q1940.46 1516.7 1937.82 1517.58 L1937.82 1513.42 Q1940.48 1512.68 1942.79 1512.31 Q1945.13 1511.93 1947.19 1511.93 Q1952.52 1511.93 1955.62 1514.37 Q1958.72 1516.77 1958.72 1520.89 Q1958.72 1523.76 1957.08 1525.75 Q1955.43 1527.72 1952.4 1528.49 Z" fill="#000000" fill-rule="evenodd" fill-opacity="1" /><path clip-path="url(#clip430)" d="M2294.05 1516.63 L2282.24 1535.08 L2294.05 1535.08 L2294.05 1516.63 M2292.82 1512.56 L2298.7 1512.56 L2298.7 1535.08 L2303.63 1535.08 L2303.63 1538.97 L2298.7 1538.97 L2298.7 1547.12 L2294.05 1547.12 L2294.05 1538.97 L2278.44 1538.97 L2278.44 1534.46 L2292.82 1512.56 Z" fill="#000000" fill-rule="evenodd" fill-opacity="1" /><polyline clip-path="url(#clip432)" style="stroke:#000000; stroke-linecap:butt; stroke-linejoin:round; stroke-width:2; stroke-opacity:0.1; fill:none" points="
  172.015,1447.87 2352.76,1447.87 
  "/>
<polyline clip-path="url(#clip432)" style="stroke:#000000; stroke-linecap:butt; stroke-linejoin:round; stroke-width:2; stroke-opacity:0.1; fill:none" points="
  172.015,1155.64 2352.76,1155.64 
  "/>
<polyline clip-path="url(#clip432)" style="stroke:#000000; stroke-linecap:butt; stroke-linejoin:round; stroke-width:2; stroke-opacity:0.1; fill:none" points="
  172.015,863.407 2352.76,863.407 
  "/>
<polyline clip-path="url(#clip432)" style="stroke:#000000; stroke-linecap:butt; stroke-linejoin:round; stroke-width:2; stroke-opacity:0.1; fill:none" points="
  172.015,571.173 2352.76,571.173 
  "/>
<polyline clip-path="url(#clip432)" style="stroke:#000000; stroke-linecap:butt; stroke-linejoin:round; stroke-width:2; stroke-opacity:0.1; fill:none" points="
  172.015,278.94 2352.76,278.94 
  "/>
<polyline clip-path="url(#clip430)" style="stroke:#000000; stroke-linecap:butt; stroke-linejoin:round; stroke-width:4; stroke-opacity:1; fill:none" points="
  172.015,1486.45 172.015,123.472 
  "/>
<polyline clip-path="url(#clip430)" style="stroke:#000000; stroke-linecap:butt; stroke-linejoin:round; stroke-width:4; stroke-opacity:1; fill:none" points="
  172.015,1447.87 190.912,1447.87 
  "/>
<polyline clip-path="url(#clip430)" style="stroke:#000000; stroke-linecap:butt; stroke-linejoin:round; stroke-width:4; stroke-opacity:1; fill:none" points="
  172.015,1155.64 190.912,1155.64 
  "/>
<polyline clip-path="url(#clip430)" style="stroke:#000000; stroke-linecap:butt; stroke-linejoin:round; stroke-width:4; stroke-opacity:1; fill:none" points="
  172.015,863.407 190.912,863.407 
  "/>
<polyline clip-path="url(#clip430)" style="stroke:#000000; stroke-linecap:butt; stroke-linejoin:round; stroke-width:4; stroke-opacity:1; fill:none" points="
  172.015,571.173 190.912,571.173 
  "/>
<polyline clip-path="url(#clip430)" style="stroke:#000000; stroke-linecap:butt; stroke-linejoin:round; stroke-width:4; stroke-opacity:1; fill:none" points="
  172.015,278.94 190.912,278.94 
  "/>
<path clip-path="url(#clip430)" d="M124.07 1433.67 Q120.459 1433.67 118.631 1437.24 Q116.825 1440.78 116.825 1447.91 Q116.825 1455.01 118.631 1458.58 Q120.459 1462.12 124.07 1462.12 Q127.705 1462.12 129.51 1458.58 Q131.339 1455.01 131.339 1447.91 Q131.339 1440.78 129.51 1437.24 Q127.705 1433.67 124.07 1433.67 M124.07 1429.97 Q129.881 1429.97 132.936 1434.57 Q136.015 1439.16 136.015 1447.91 Q136.015 1456.63 132.936 1461.24 Q129.881 1465.82 124.07 1465.82 Q118.26 1465.82 115.182 1461.24 Q112.126 1456.63 112.126 1447.91 Q112.126 1439.16 115.182 1434.57 Q118.26 1429.97 124.07 1429.97 Z" fill="#000000" fill-rule="evenodd" fill-opacity="1" /><path clip-path="url(#clip430)" d="M57.7745 1168.98 L74.0939 1168.98 L74.0939 1172.92 L52.1495 1172.92 L52.1495 1168.98 Q54.8115 1166.23 59.3949 1161.6 Q64.0013 1156.95 65.1819 1155.61 Q67.4272 1153.08 68.3068 1151.35 Q69.2096 1149.59 69.2096 1147.9 Q69.2096 1145.14 67.2652 1143.41 Q65.3439 1141.67 62.2421 1141.67 Q60.043 1141.67 57.5893 1142.43 Q55.1588 1143.2 52.381 1144.75 L52.381 1140.03 Q55.2051 1138.89 57.6588 1138.31 Q60.1124 1137.73 62.1495 1137.73 Q67.5198 1137.73 70.7142 1140.42 Q73.9087 1143.11 73.9087 1147.6 Q73.9087 1149.73 73.0985 1151.65 Q72.3115 1153.54 70.205 1156.14 Q69.6263 1156.81 66.5245 1160.03 Q63.4226 1163.22 57.7745 1168.98 Z" fill="#000000" fill-rule="evenodd" fill-opacity="1" /><path clip-path="url(#clip430)" d="M93.9086 1141.44 Q90.2975 1141.44 88.4688 1145 Q86.6632 1148.54 86.6632 1155.67 Q86.6632 1162.78 88.4688 1166.35 Q90.2975 1169.89 93.9086 1169.89 Q97.5428 1169.89 99.3483 1166.35 Q101.177 1162.78 101.177 1155.67 Q101.177 1148.54 99.3483 1145 Q97.5428 1141.44 93.9086 1141.44 M93.9086 1137.73 Q99.7187 1137.73 102.774 1142.34 Q105.853 1146.92 105.853 1155.67 Q105.853 1164.4 102.774 1169.01 Q99.7187 1173.59 93.9086 1173.59 Q88.0984 1173.59 85.0197 1169.01 Q81.9642 1164.4 81.9642 1155.67 Q81.9642 1146.92 85.0197 1142.34 Q88.0984 1137.73 93.9086 1137.73 Z" fill="#000000" fill-rule="evenodd" fill-opacity="1" /><path clip-path="url(#clip430)" d="M124.07 1141.44 Q120.459 1141.44 118.631 1145 Q116.825 1148.54 116.825 1155.67 Q116.825 1162.78 118.631 1166.35 Q120.459 1169.89 124.07 1169.89 Q127.705 1169.89 129.51 1166.35 Q131.339 1162.78 131.339 1155.67 Q131.339 1148.54 129.51 1145 Q127.705 1141.44 124.07 1141.44 M124.07 1137.73 Q129.881 1137.73 132.936 1142.34 Q136.015 1146.92 136.015 1155.67 Q136.015 1164.4 132.936 1169.01 Q129.881 1173.59 124.07 1173.59 Q118.26 1173.59 115.182 1169.01 Q112.126 1164.4 112.126 1155.67 Q112.126 1146.92 115.182 1142.34 Q118.26 1137.73 124.07 1137.73 Z" fill="#000000" fill-rule="evenodd" fill-opacity="1" /><path clip-path="url(#clip430)" d="M66.5939 850.201 L54.7884 868.65 L66.5939 868.65 L66.5939 850.201 M65.367 846.127 L71.2466 846.127 L71.2466 868.65 L76.1772 868.65 L76.1772 872.539 L71.2466 872.539 L71.2466 880.687 L66.5939 880.687 L66.5939 872.539 L50.9921 872.539 L50.9921 868.025 L65.367 846.127 Z" fill="#000000" fill-rule="evenodd" fill-opacity="1" /><path clip-path="url(#clip430)" d="M93.9086 849.205 Q90.2975 849.205 88.4688 852.77 Q86.6632 856.312 86.6632 863.441 Q86.6632 870.548 88.4688 874.113 Q90.2975 877.654 93.9086 877.654 Q97.5428 877.654 99.3483 874.113 Q101.177 870.548 101.177 863.441 Q101.177 856.312 99.3483 852.77 Q97.5428 849.205 93.9086 849.205 M93.9086 845.502 Q99.7187 845.502 102.774 850.108 Q105.853 854.691 105.853 863.441 Q105.853 872.168 102.774 876.775 Q99.7187 881.358 93.9086 881.358 Q88.0984 881.358 85.0197 876.775 Q81.9642 872.168 81.9642 863.441 Q81.9642 854.691 85.0197 850.108 Q88.0984 845.502 93.9086 845.502 Z" fill="#000000" fill-rule="evenodd" fill-opacity="1" /><path clip-path="url(#clip430)" d="M124.07 849.205 Q120.459 849.205 118.631 852.77 Q116.825 856.312 116.825 863.441 Q116.825 870.548 118.631 874.113 Q120.459 877.654 124.07 877.654 Q127.705 877.654 129.51 874.113 Q131.339 870.548 131.339 863.441 Q131.339 856.312 129.51 852.77 Q127.705 849.205 124.07 849.205 M124.07 845.502 Q129.881 845.502 132.936 850.108 Q136.015 854.691 136.015 863.441 Q136.015 872.168 132.936 876.775 Q129.881 881.358 124.07 881.358 Q118.26 881.358 115.182 876.775 Q112.126 872.168 112.126 863.441 Q112.126 854.691 115.182 850.108 Q118.26 845.502 124.07 845.502 Z" fill="#000000" fill-rule="evenodd" fill-opacity="1" /><path clip-path="url(#clip430)" d="M64.3254 569.31 Q61.1773 569.31 59.3254 571.463 Q57.4967 573.616 57.4967 577.366 Q57.4967 581.092 59.3254 583.268 Q61.1773 585.421 64.3254 585.421 Q67.4735 585.421 69.3022 583.268 Q71.1541 581.092 71.1541 577.366 Q71.1541 573.616 69.3022 571.463 Q67.4735 569.31 64.3254 569.31 M73.6077 554.657 L73.6077 558.917 Q71.8485 558.083 70.0429 557.643 Q68.2606 557.204 66.5013 557.204 Q61.8717 557.204 59.418 560.329 Q56.9875 563.454 56.6402 569.773 Q58.006 567.759 60.0662 566.694 Q62.1263 565.606 64.6032 565.606 Q69.8115 565.606 72.8207 568.778 Q75.8531 571.926 75.8531 577.366 Q75.8531 582.69 72.705 585.907 Q69.5568 589.125 64.3254 589.125 Q58.33 589.125 55.1588 584.541 Q51.9875 579.935 51.9875 571.208 Q51.9875 563.014 55.8764 558.153 Q59.7652 553.268 66.3161 553.268 Q68.0754 553.268 69.8578 553.616 Q71.6633 553.963 73.6077 554.657 Z" fill="#000000" fill-rule="evenodd" fill-opacity="1" /><path clip-path="url(#clip430)" d="M93.9086 556.972 Q90.2975 556.972 88.4688 560.537 Q86.6632 564.079 86.6632 571.208 Q86.6632 578.315 88.4688 581.879 Q90.2975 585.421 93.9086 585.421 Q97.5428 585.421 99.3483 581.879 Q101.177 578.315 101.177 571.208 Q101.177 564.079 99.3483 560.537 Q97.5428 556.972 93.9086 556.972 M93.9086 553.268 Q99.7187 553.268 102.774 557.875 Q105.853 562.458 105.853 571.208 Q105.853 579.935 102.774 584.541 Q99.7187 589.125 93.9086 589.125 Q88.0984 589.125 85.0197 584.541 Q81.9642 579.935 81.9642 571.208 Q81.9642 562.458 85.0197 557.875 Q88.0984 553.268 93.9086 553.268 Z" fill="#000000" fill-rule="evenodd" fill-opacity="1" /><path clip-path="url(#clip430)" d="M124.07 556.972 Q120.459 556.972 118.631 560.537 Q116.825 564.079 116.825 571.208 Q116.825 578.315 118.631 581.879 Q120.459 585.421 124.07 585.421 Q127.705 585.421 129.51 581.879 Q131.339 578.315 131.339 571.208 Q131.339 564.079 129.51 560.537 Q127.705 556.972 124.07 556.972 M124.07 553.268 Q129.881 553.268 132.936 557.875 Q136.015 562.458 136.015 571.208 Q136.015 579.935 132.936 584.541 Q129.881 589.125 124.07 589.125 Q118.26 589.125 115.182 584.541 Q112.126 579.935 112.126 571.208 Q112.126 562.458 115.182 557.875 Q118.26 553.268 124.07 553.268 Z" fill="#000000" fill-rule="evenodd" fill-opacity="1" /><path clip-path="url(#clip430)" d="M63.7467 279.808 Q60.4134 279.808 58.4921 281.591 Q56.5939 283.373 56.5939 286.498 Q56.5939 289.623 58.4921 291.405 Q60.4134 293.188 63.7467 293.188 Q67.08 293.188 69.0013 291.405 Q70.9226 289.6 70.9226 286.498 Q70.9226 283.373 69.0013 281.591 Q67.1032 279.808 63.7467 279.808 M59.0708 277.818 Q56.0615 277.077 54.3717 275.017 Q52.7051 272.956 52.7051 269.993 Q52.7051 265.85 55.6449 263.443 Q58.6078 261.035 63.7467 261.035 Q68.9087 261.035 71.8485 263.443 Q74.7883 265.85 74.7883 269.993 Q74.7883 272.956 73.0985 275.017 Q71.4318 277.077 68.4457 277.818 Q71.8253 278.605 73.7003 280.896 Q75.5985 283.188 75.5985 286.498 Q75.5985 291.521 72.5198 294.206 Q69.4642 296.891 63.7467 296.891 Q58.0291 296.891 54.9504 294.206 Q51.8949 291.521 51.8949 286.498 Q51.8949 283.188 53.793 280.896 Q55.6912 278.605 59.0708 277.818 M57.3578 270.433 Q57.3578 273.118 59.0245 274.623 Q60.7143 276.128 63.7467 276.128 Q66.7559 276.128 68.4457 274.623 Q70.1587 273.118 70.1587 270.433 Q70.1587 267.748 68.4457 266.244 Q66.7559 264.739 63.7467 264.739 Q60.7143 264.739 59.0245 266.244 Q57.3578 267.748 57.3578 270.433 Z" fill="#000000" fill-rule="evenodd" fill-opacity="1" /><path clip-path="url(#clip430)" d="M93.9086 264.739 Q90.2975 264.739 88.4688 268.304 Q86.6632 271.845 86.6632 278.975 Q86.6632 286.081 88.4688 289.646 Q90.2975 293.188 93.9086 293.188 Q97.5428 293.188 99.3483 289.646 Q101.177 286.081 101.177 278.975 Q101.177 271.845 99.3483 268.304 Q97.5428 264.739 93.9086 264.739 M93.9086 261.035 Q99.7187 261.035 102.774 265.642 Q105.853 270.225 105.853 278.975 Q105.853 287.702 102.774 292.308 Q99.7187 296.891 93.9086 296.891 Q88.0984 296.891 85.0197 292.308 Q81.9642 287.702 81.9642 278.975 Q81.9642 270.225 85.0197 265.642 Q88.0984 261.035 93.9086 261.035 Z" fill="#000000" fill-rule="evenodd" fill-opacity="1" /><path clip-path="url(#clip430)" d="M124.07 264.739 Q120.459 264.739 118.631 268.304 Q116.825 271.845 116.825 278.975 Q116.825 286.081 118.631 289.646 Q120.459 293.188 124.07 293.188 Q127.705 293.188 129.51 289.646 Q131.339 286.081 131.339 278.975 Q131.339 271.845 129.51 268.304 Q127.705 264.739 124.07 264.739 M124.07 261.035 Q129.881 261.035 132.936 265.642 Q136.015 270.225 136.015 278.975 Q136.015 287.702 132.936 292.308 Q129.881 296.891 124.07 296.891 Q118.26 296.891 115.182 292.308 Q112.126 287.702 112.126 278.975 Q112.126 270.225 115.182 265.642 Q118.26 261.035 124.07 261.035 Z" fill="#000000" fill-rule="evenodd" fill-opacity="1" /><path clip-path="url(#clip430)" d="M1179.36 18.8205 L1179.36 65.8515 L1189.25 65.8515 Q1201.76 65.8515 1207.56 60.1802 Q1213.39 54.509 1213.39 42.2752 Q1213.39 30.1225 1207.56 24.4918 Q1201.76 18.8205 1189.25 18.8205 L1179.36 18.8205 M1171.18 12.096 L1187.99 12.096 Q1205.57 12.096 1213.79 19.4281 Q1222.02 26.7198 1222.02 42.2752 Q1222.02 57.9117 1213.75 65.2439 Q1205.49 72.576 1187.99 72.576 L1171.18 72.576 L1171.18 12.096 Z" fill="#000000" fill-rule="evenodd" fill-opacity="1" /><path clip-path="url(#clip430)" d="M1255.36 49.7694 Q1246.32 49.7694 1242.84 51.8354 Q1239.36 53.9013 1239.36 58.8839 Q1239.36 62.8538 1241.95 65.2034 Q1244.58 67.5124 1249.08 67.5124 Q1255.28 67.5124 1259 63.1374 Q1262.77 58.7219 1262.77 51.4303 L1262.77 49.7694 L1255.36 49.7694 M1270.22 46.6907 L1270.22 72.576 L1262.77 72.576 L1262.77 65.6895 Q1260.22 69.8214 1256.41 71.8063 Q1252.6 73.7508 1247.09 73.7508 Q1240.13 73.7508 1235.99 69.8619 Q1231.9 65.9325 1231.9 59.3701 Q1231.9 51.7138 1237.01 47.825 Q1242.15 43.9361 1252.32 43.9361 L1262.77 43.9361 L1262.77 43.2069 Q1262.77 38.0623 1259.37 35.2672 Q1256.01 32.4315 1249.89 32.4315 Q1246 32.4315 1242.31 33.3632 Q1238.63 34.295 1235.22 36.1584 L1235.22 29.2718 Q1239.32 27.692 1243.16 26.9223 Q1247.01 26.1121 1250.66 26.1121 Q1260.5 26.1121 1265.36 31.2163 Q1270.22 36.3204 1270.22 46.6907 Z" fill="#000000" fill-rule="evenodd" fill-opacity="1" /><path clip-path="url(#clip430)" d="M1292.95 14.324 L1292.95 27.2059 L1308.3 27.2059 L1308.3 32.9987 L1292.95 32.9987 L1292.95 57.6282 Q1292.95 63.1779 1294.45 64.7578 Q1295.99 66.3376 1300.65 66.3376 L1308.3 66.3376 L1308.3 72.576 L1300.65 72.576 Q1292.02 72.576 1288.74 69.3758 Q1285.46 66.1351 1285.46 57.6282 L1285.46 32.9987 L1279.99 32.9987 L1279.99 27.2059 L1285.46 27.2059 L1285.46 14.324 L1292.95 14.324 Z" fill="#000000" fill-rule="evenodd" fill-opacity="1" /><path clip-path="url(#clip430)" d="M1338.72 49.7694 Q1329.69 49.7694 1326.21 51.8354 Q1322.72 53.9013 1322.72 58.8839 Q1322.72 62.8538 1325.32 65.2034 Q1327.95 67.5124 1332.45 67.5124 Q1338.64 67.5124 1342.37 63.1374 Q1346.14 58.7219 1346.14 51.4303 L1346.14 49.7694 L1338.72 49.7694 M1353.59 46.6907 L1353.59 72.576 L1346.14 72.576 L1346.14 65.6895 Q1343.59 69.8214 1339.78 71.8063 Q1335.97 73.7508 1330.46 73.7508 Q1323.49 73.7508 1319.36 69.8619 Q1315.27 65.9325 1315.27 59.3701 Q1315.27 51.7138 1320.37 47.825 Q1325.52 43.9361 1335.69 43.9361 L1346.14 43.9361 L1346.14 43.2069 Q1346.14 38.0623 1342.74 35.2672 Q1339.37 32.4315 1333.26 32.4315 Q1329.37 32.4315 1325.68 33.3632 Q1321.99 34.295 1318.59 36.1584 L1318.59 29.2718 Q1322.68 27.692 1326.53 26.9223 Q1330.38 26.1121 1334.03 26.1121 Q1343.87 26.1121 1348.73 31.2163 Q1353.59 36.3204 1353.59 46.6907 Z" fill="#000000" fill-rule="evenodd" fill-opacity="1" /><polyline clip-path="url(#clip432)" style="stroke:#009af9; stroke-linecap:butt; stroke-linejoin:round; stroke-width:4; stroke-opacity:1; fill:none" points="
  233.734,1447.87 233.734,1243.31 268.022,1243.31 268.022,1257.92 302.311,1257.92 302.311,1345.59 336.599,1345.59 336.599,1111.8 370.887,1111.8 370.887,1067.97 
  405.176,1067.97 405.176,1111.8 439.464,1111.8 439.464,994.912 473.753,994.912 473.753,980.3 508.041,980.3 508.041,1053.36 542.329,1053.36 542.329,717.29 
  576.618,717.29 576.618,907.242 610.906,907.242 610.906,702.678 645.194,702.678 645.194,980.3 679.483,980.3 679.483,1009.52 713.771,1009.52 713.771,1111.8 
  748.06,1111.8 748.06,1082.58 782.348,1082.58 782.348,1228.7 816.636,1228.7 816.636,1272.53 850.925,1272.53 850.925,1287.14 885.213,1287.14 885.213,1374.81 
  919.502,1374.81 919.502,1418.65 953.79,1418.65 988.078,1418.65 988.078,1404.04 1022.37,1404.04 1022.37,1418.65 1056.66,1418.65 1056.66,1447.87 
  1090.94,1447.87 1125.23,1447.87 1125.23,1374.81 1159.52,1374.81 1159.52,1433.26 1193.81,1433.26 1193.81,1404.04 1228.1,1404.04 1228.1,1389.43 
  1262.39,1389.43 1262.39,1097.19 1296.67,1097.19 1296.67,1126.42 1330.96,1126.42 1330.96,1170.25 1365.25,1170.25 1365.25,994.912 1399.54,994.912 1399.54,761.125 
  1433.83,761.125 1433.83,556.562 1468.12,556.562 1468.12,454.28 1502.4,454.28 1502.4,731.902 1536.69,731.902 1536.69,498.115 1570.98,498.115 1570.98,162.047 
  1605.27,162.047 1605.27,308.164 1639.56,308.164 1673.85,308.164 1673.85,410.445 1708.13,410.445 1708.13,541.95 1742.42,541.95 1742.42,600.397 
  1776.71,600.397 1776.71,804.96 1811,804.96 1811,1126.42 1845.29,1126.42 1845.29,1067.97 1879.58,1067.97 1879.58,1024.13 1913.86,1024.13 1913.86,1199.47 
  1948.15,1199.47 1948.15,1345.59 1982.44,1345.59 1982.44,1360.2 2016.73,1360.2 2016.73,1374.81 2051.02,1374.81 2051.02,1360.2 2085.31,1360.2 2085.31,1447.87 
  2119.59,1447.87 2119.59,1418.65 2153.88,1418.65 2153.88,1447.87 2188.17,1447.87 2222.46,1447.87 2256.75,1447.87 
  2291.04,1447.87 
  "/>
<path clip-path="url(#clip430)" d="
M1933.52 272.585 L2280.06 272.585 L2280.06 168.905 L1933.52 168.905  Z
  " fill="#ffffff" fill-rule="evenodd" fill-opacity="1"/>
<polyline clip-path="url(#clip430)" style="stroke:#000000; stroke-linecap:butt; stroke-linejoin:round; stroke-width:4; stroke-opacity:1; fill:none" points="
  1933.52,272.585 2280.06,272.585 2280.06,168.905 1933.52,168.905 1933.52,272.585 
  "/>
<polyline clip-path="url(#clip430)" style="stroke:#009af9; stroke-linecap:butt; stroke-linejoin:round; stroke-width:4; stroke-opacity:1; fill:none" points="
  1957.75,220.745 2103.14,220.745 
  "/>
<path clip-path="url(#clip430)" d="M2132.04 207.307 L2132.04 234.182 L2137.69 234.182 Q2144.84 234.182 2148.15 230.941 Q2151.49 227.701 2151.49 220.71 Q2151.49 213.766 2148.15 210.548 Q2144.84 207.307 2137.69 207.307 L2132.04 207.307 M2127.37 203.465 L2136.97 203.465 Q2147.02 203.465 2151.72 207.654 Q2156.42 211.821 2156.42 220.71 Q2156.42 229.645 2151.7 233.835 Q2146.97 238.025 2136.97 238.025 L2127.37 238.025 L2127.37 203.465 Z" fill="#000000" fill-rule="evenodd" fill-opacity="1" /><path clip-path="url(#clip430)" d="M2175.47 224.992 Q2170.31 224.992 2168.32 226.173 Q2166.33 227.353 2166.33 230.201 Q2166.33 232.469 2167.81 233.812 Q2169.31 235.131 2171.88 235.131 Q2175.42 235.131 2177.55 232.631 Q2179.71 230.108 2179.71 225.941 L2179.71 224.992 L2175.47 224.992 M2183.96 223.233 L2183.96 238.025 L2179.71 238.025 L2179.71 234.089 Q2178.25 236.451 2176.07 237.585 Q2173.9 238.696 2170.75 238.696 Q2166.77 238.696 2164.4 236.474 Q2162.07 234.228 2162.07 230.478 Q2162.07 226.103 2164.98 223.881 Q2167.92 221.659 2173.73 221.659 L2179.71 221.659 L2179.71 221.242 Q2179.71 218.303 2177.76 216.705 Q2175.84 215.085 2172.34 215.085 Q2170.12 215.085 2168.02 215.617 Q2165.91 216.15 2163.97 217.215 L2163.97 213.279 Q2166.3 212.377 2168.5 211.937 Q2170.7 211.474 2172.78 211.474 Q2178.41 211.474 2181.19 214.391 Q2183.96 217.307 2183.96 223.233 Z" fill="#000000" fill-rule="evenodd" fill-opacity="1" /><path clip-path="url(#clip430)" d="M2196.95 204.738 L2196.95 212.099 L2205.72 212.099 L2205.72 215.409 L2196.95 215.409 L2196.95 229.483 Q2196.95 232.654 2197.81 233.557 Q2198.69 234.46 2201.35 234.46 L2205.72 234.46 L2205.72 238.025 L2201.35 238.025 Q2196.42 238.025 2194.54 236.196 Q2192.67 234.344 2192.67 229.483 L2192.67 215.409 L2189.54 215.409 L2189.54 212.099 L2192.67 212.099 L2192.67 204.738 L2196.95 204.738 Z" fill="#000000" fill-rule="evenodd" fill-opacity="1" /><path clip-path="url(#clip430)" d="M2223.11 224.992 Q2217.95 224.992 2215.96 226.173 Q2213.96 227.353 2213.96 230.201 Q2213.96 232.469 2215.45 233.812 Q2216.95 235.131 2219.52 235.131 Q2223.06 235.131 2225.19 232.631 Q2227.34 230.108 2227.34 225.941 L2227.34 224.992 L2223.11 224.992 M2231.6 223.233 L2231.6 238.025 L2227.34 238.025 L2227.34 234.089 Q2225.89 236.451 2223.71 237.585 Q2221.53 238.696 2218.39 238.696 Q2214.4 238.696 2212.04 236.474 Q2209.71 234.228 2209.71 230.478 Q2209.71 226.103 2212.62 223.881 Q2215.56 221.659 2221.37 221.659 L2227.34 221.659 L2227.34 221.242 Q2227.34 218.303 2225.4 216.705 Q2223.48 215.085 2219.98 215.085 Q2217.76 215.085 2215.65 215.617 Q2213.55 216.15 2211.6 217.215 L2211.6 213.279 Q2213.94 212.377 2216.14 211.937 Q2218.34 211.474 2220.42 211.474 Q2226.05 211.474 2228.83 214.391 Q2231.6 217.307 2231.6 223.233 Z" fill="#000000" fill-rule="evenodd" fill-opacity="1" /></svg>
