<?xml version="1.0" encoding="utf-8"?>
<svg xmlns="http://www.w3.org/2000/svg" xmlns:xlink="http://www.w3.org/1999/xlink" width="600" height="400" viewBox="0 0 2400 1600">
<defs>
  <clipPath id="clip970">
    <rect x="0" y="0" width="2400" height="1600"/>
  </clipPath>
</defs>
<path clip-path="url(#clip970)" d="M0 1600 L2400 1600 L2400 0 L0 0  Z" fill="#ffffff" fill-rule="evenodd" fill-opacity="1"/>
<defs>
  <clipPath id="clip971">
    <rect x="480" y="0" width="1681" height="1600"/>
  </clipPath>
</defs>
<path clip-path="url(#clip970)" d="M199.283 1486.45 L2352.76 1486.45 L2352.76 123.472 L199.283 123.472  Z" fill="#ffffff" fill-rule="evenodd" fill-opacity="1"/>
<defs>
  <clipPath id="clip972">
    <rect x="199" y="123" width="2154" height="1364"/>
  </clipPath>
</defs>
<polyline clip-path="url(#clip972)" style="stroke:#000000; stroke-linecap:round; stroke-linejoin:round; stroke-width:2; stroke-opacity:0.1; fill:none" points="260.231,1486.45 260.231,123.472 "/>
<polyline clip-path="url(#clip972)" style="stroke:#000000; stroke-linecap:round; stroke-linejoin:round; stroke-width:2; stroke-opacity:0.1; fill:none" points="598.827,1486.45 598.827,123.472 "/>
<polyline clip-path="url(#clip972)" style="stroke:#000000; stroke-linecap:round; stroke-linejoin:round; stroke-width:2; stroke-opacity:0.1; fill:none" points="937.423,1486.45 937.423,123.472 "/>
<polyline clip-path="url(#clip972)" style="stroke:#000000; stroke-linecap:round; stroke-linejoin:round; stroke-width:2; stroke-opacity:0.1; fill:none" points="1276.02,1486.45 1276.02,123.472 "/>
<polyline clip-path="url(#clip972)" style="stroke:#000000; stroke-linecap:round; stroke-linejoin:round; stroke-width:2; stroke-opacity:0.1; fill:none" points="1614.62,1486.45 1614.62,123.472 "/>
<polyline clip-path="url(#clip972)" style="stroke:#000000; stroke-linecap:round; stroke-linejoin:round; stroke-width:2; stroke-opacity:0.1; fill:none" points="1953.21,1486.45 1953.21,123.472 "/>
<polyline clip-path="url(#clip972)" style="stroke:#000000; stroke-linecap:round; stroke-linejoin:round; stroke-width:2; stroke-opacity:0.1; fill:none" points="2291.81,1486.45 2291.81,123.472 "/>
<polyline clip-path="url(#clip970)" style="stroke:#000000; stroke-linecap:round; stroke-linejoin:round; stroke-width:4; stroke-opacity:1; fill:none" points="199.283,1486.45 2352.76,1486.45 "/>
<polyline clip-path="url(#clip970)" style="stroke:#000000; stroke-linecap:round; stroke-linejoin:round; stroke-width:4; stroke-opacity:1; fill:none" points="260.231,1486.45 260.231,1467.55 "/>
<polyline clip-path="url(#clip970)" style="stroke:#000000; stroke-linecap:round; stroke-linejoin:round; stroke-width:4; stroke-opacity:1; fill:none" points="598.827,1486.45 598.827,1467.55 "/>
<polyline clip-path="url(#clip970)" style="stroke:#000000; stroke-linecap:round; stroke-linejoin:round; stroke-width:4; stroke-opacity:1; fill:none" points="937.423,1486.45 937.423,1467.55 "/>
<polyline clip-path="url(#clip970)" style="stroke:#000000; stroke-linecap:round; stroke-linejoin:round; stroke-width:4; stroke-opacity:1; fill:none" points="1276.02,1486.45 1276.02,1467.55 "/>
<polyline clip-path="url(#clip970)" style="stroke:#000000; stroke-linecap:round; stroke-linejoin:round; stroke-width:4; stroke-opacity:1; fill:none" points="1614.62,1486.45 1614.62,1467.55 "/>
<polyline clip-path="url(#clip970)" style="stroke:#000000; stroke-linecap:round; stroke-linejoin:round; stroke-width:4; stroke-opacity:1; fill:none" points="1953.21,1486.45 1953.21,1467.55 "/>
<polyline clip-path="url(#clip970)" style="stroke:#000000; stroke-linecap:round; stroke-linejoin:round; stroke-width:4; stroke-opacity:1; fill:none" points="2291.81,1486.45 2291.81,1467.55 "/>
<path clip-path="url(#clip970)" d="M230.173 1532.02 L259.849 1532.02 L259.849 1535.95 L230.173 1535.95 L230.173 1532.02 Z" fill="#000000" fill-rule="evenodd" fill-opacity="1" /><path clip-path="url(#clip970)" d="M273.969 1544.91 L290.288 1544.91 L290.288 1548.85 L268.344 1548.85 L268.344 1544.91 Q271.006 1542.16 275.589 1537.53 Q280.196 1532.88 281.376 1531.53 Q283.622 1529.01 284.501 1527.27 Q285.404 1525.51 285.404 1523.82 Q285.404 1521.07 283.46 1519.33 Q281.538 1517.6 278.436 1517.6 Q276.237 1517.6 273.784 1518.36 Q271.353 1519.13 268.575 1520.68 L268.575 1515.95 Q271.399 1514.82 273.853 1514.24 Q276.307 1513.66 278.344 1513.66 Q283.714 1513.66 286.909 1516.35 Q290.103 1519.03 290.103 1523.52 Q290.103 1525.65 289.293 1527.57 Q288.506 1529.47 286.399 1532.07 Q285.821 1532.74 282.719 1535.95 Q279.617 1539.15 273.969 1544.91 Z" fill="#000000" fill-rule="evenodd" fill-opacity="1" /><path clip-path="url(#clip970)" d="M568.584 1532.02 L598.26 1532.02 L598.26 1535.95 L568.584 1535.95 L568.584 1532.02 Z" fill="#000000" fill-rule="evenodd" fill-opacity="1" /><path clip-path="url(#clip970)" d="M609.162 1544.91 L616.801 1544.91 L616.801 1518.55 L608.491 1520.21 L608.491 1515.95 L616.755 1514.29 L621.431 1514.29 L621.431 1544.91 L629.07 1544.91 L629.07 1548.85 L609.162 1548.85 L609.162 1544.91 Z" fill="#000000" fill-rule="evenodd" fill-opacity="1" /><path clip-path="url(#clip970)" d="M937.423 1517.37 Q933.812 1517.37 931.983 1520.93 Q930.178 1524.47 930.178 1531.6 Q930.178 1538.71 931.983 1542.27 Q933.812 1545.82 937.423 1545.82 Q941.057 1545.82 942.863 1542.27 Q944.692 1538.71 944.692 1531.6 Q944.692 1524.47 942.863 1520.93 Q941.057 1517.37 937.423 1517.37 M937.423 1513.66 Q943.233 1513.66 946.289 1518.27 Q949.368 1522.85 949.368 1531.6 Q949.368 1540.33 946.289 1544.94 Q943.233 1549.52 937.423 1549.52 Q931.613 1549.52 928.534 1544.94 Q925.479 1540.33 925.479 1531.6 Q925.479 1522.85 928.534 1518.27 Q931.613 1513.66 937.423 1513.66 Z" fill="#000000" fill-rule="evenodd" fill-opacity="1" /><path clip-path="url(#clip970)" d="M1266.4 1544.91 L1274.04 1544.91 L1274.04 1518.55 L1265.73 1520.21 L1265.73 1515.95 L1273.99 1514.29 L1278.67 1514.29 L1278.67 1544.91 L1286.31 1544.91 L1286.31 1548.85 L1266.4 1548.85 L1266.4 1544.91 Z" fill="#000000" fill-rule="evenodd" fill-opacity="1" /><path clip-path="url(#clip970)" d="M1609.27 1544.91 L1625.59 1544.91 L1625.59 1548.85 L1603.64 1548.85 L1603.64 1544.91 Q1606.31 1542.16 1610.89 1537.53 Q1615.5 1532.88 1616.68 1531.53 Q1618.92 1529.01 1619.8 1527.27 Q1620.7 1525.51 1620.7 1523.82 Q1620.7 1521.07 1618.76 1519.33 Q1616.84 1517.6 1613.74 1517.6 Q1611.54 1517.6 1609.08 1518.36 Q1606.65 1519.13 1603.88 1520.68 L1603.88 1515.95 Q1606.7 1514.82 1609.15 1514.24 Q1611.61 1513.66 1613.64 1513.66 Q1619.01 1513.66 1622.21 1516.35 Q1625.4 1519.03 1625.4 1523.52 Q1625.4 1525.65 1624.59 1527.57 Q1623.81 1529.47 1621.7 1532.07 Q1621.12 1532.74 1618.02 1535.95 Q1614.92 1539.15 1609.27 1544.91 Z" fill="#000000" fill-rule="evenodd" fill-opacity="1" /><path clip-path="url(#clip970)" d="M1957.46 1530.21 Q1960.82 1530.93 1962.69 1533.2 Q1964.59 1535.47 1964.59 1538.8 Q1964.59 1543.92 1961.07 1546.72 Q1957.55 1549.52 1951.07 1549.52 Q1948.9 1549.52 1946.58 1549.08 Q1944.29 1548.66 1941.83 1547.81 L1941.83 1543.29 Q1943.78 1544.43 1946.09 1545.01 Q1948.41 1545.58 1950.93 1545.58 Q1955.33 1545.58 1957.62 1543.85 Q1959.94 1542.11 1959.94 1538.8 Q1959.94 1535.75 1957.78 1534.03 Q1955.65 1532.3 1951.83 1532.3 L1947.81 1532.3 L1947.81 1528.45 L1952.02 1528.45 Q1955.47 1528.45 1957.3 1527.09 Q1959.13 1525.7 1959.13 1523.11 Q1959.13 1520.45 1957.23 1519.03 Q1955.35 1517.6 1951.83 1517.6 Q1949.91 1517.6 1947.71 1518.01 Q1945.52 1518.43 1942.88 1519.31 L1942.88 1515.14 Q1945.54 1514.4 1947.85 1514.03 Q1950.19 1513.66 1952.25 1513.66 Q1957.58 1513.66 1960.68 1516.09 Q1963.78 1518.5 1963.78 1522.62 Q1963.78 1525.49 1962.14 1527.48 Q1960.49 1529.45 1957.46 1530.21 Z" fill="#000000" fill-rule="evenodd" fill-opacity="1" /><path clip-path="url(#clip970)" d="M2294.82 1518.36 L2283.01 1536.81 L2294.82 1536.81 L2294.82 1518.36 M2293.59 1514.29 L2299.47 1514.29 L2299.47 1536.81 L2304.4 1536.81 L2304.4 1540.7 L2299.47 1540.7 L2299.47 1548.85 L2294.82 1548.85 L2294.82 1540.7 L2279.22 1540.7 L2279.22 1536.19 L2293.59 1514.29 Z" fill="#000000" fill-rule="evenodd" fill-opacity="1" /><polyline clip-path="url(#clip972)" style="stroke:#000000; stroke-linecap:round; stroke-linejoin:round; stroke-width:2; stroke-opacity:0.1; fill:none" points="199.283,1447.87 2352.76,1447.87 "/>
<polyline clip-path="url(#clip972)" style="stroke:#000000; stroke-linecap:round; stroke-linejoin:round; stroke-width:2; stroke-opacity:0.1; fill:none" points="199.283,1126.42 2352.76,1126.42 "/>
<polyline clip-path="url(#clip972)" style="stroke:#000000; stroke-linecap:round; stroke-linejoin:round; stroke-width:2; stroke-opacity:0.1; fill:none" points="199.283,804.96 2352.76,804.96 "/>
<polyline clip-path="url(#clip972)" style="stroke:#000000; stroke-linecap:round; stroke-linejoin:round; stroke-width:2; stroke-opacity:0.1; fill:none" points="199.283,483.503 2352.76,483.503 "/>
<polyline clip-path="url(#clip972)" style="stroke:#000000; stroke-linecap:round; stroke-linejoin:round; stroke-width:2; stroke-opacity:0.1; fill:none" points="199.283,162.047 2352.76,162.047 "/>
<polyline clip-path="url(#clip970)" style="stroke:#000000; stroke-linecap:round; stroke-linejoin:round; stroke-width:4; stroke-opacity:1; fill:none" points="199.283,1486.45 199.283,123.472 "/>
<polyline clip-path="url(#clip970)" style="stroke:#000000; stroke-linecap:round; stroke-linejoin:round; stroke-width:4; stroke-opacity:1; fill:none" points="199.283,1447.87 218.181,1447.87 "/>
<polyline clip-path="url(#clip970)" style="stroke:#000000; stroke-linecap:round; stroke-linejoin:round; stroke-width:4; stroke-opacity:1; fill:none" points="199.283,1126.42 218.181,1126.42 "/>
<polyline clip-path="url(#clip970)" style="stroke:#000000; stroke-linecap:round; stroke-linejoin:round; stroke-width:4; stroke-opacity:1; fill:none" points="199.283,804.96 218.181,804.96 "/>
<polyline clip-path="url(#clip970)" style="stroke:#000000; stroke-linecap:round; stroke-linejoin:round; stroke-width:4; stroke-opacity:1; fill:none" points="199.283,483.503 218.181,483.503 "/>
<polyline clip-path="url(#clip970)" style="stroke:#000000; stroke-linecap:round; stroke-linejoin:round; stroke-width:4; stroke-opacity:1; fill:none" points="199.283,162.047 218.181,162.047 "/>
<path clip-path="url(#clip970)" d="M151.339 1433.67 Q147.728 1433.67 145.899 1437.24 Q144.093 1440.78 144.093 1447.91 Q144.093 1455.01 145.899 1458.58 Q147.728 1462.12 151.339 1462.12 Q154.973 1462.12 156.779 1458.58 Q158.607 1455.01 158.607 1447.91 Q158.607 1440.78 156.779 1437.24 Q154.973 1433.67 151.339 1433.67 M151.339 1429.97 Q157.149 1429.97 160.205 1434.57 Q163.283 1439.16 163.283 1447.91 Q163.283 1456.63 160.205 1461.24 Q157.149 1465.82 151.339 1465.82 Q145.529 1465.82 142.45 1461.24 Q139.394 1456.63 139.394 1447.91 Q139.394 1439.16 142.45 1434.57 Q145.529 1429.97 151.339 1429.97 Z" fill="#000000" fill-rule="evenodd" fill-opacity="1" /><path clip-path="url(#clip970)" d="M85.0429 1139.76 L101.362 1139.76 L101.362 1143.7 L79.4179 1143.7 L79.4179 1139.76 Q82.0799 1137.01 86.6632 1132.38 Q91.2697 1127.72 92.4502 1126.38 Q94.6956 1123.86 95.5752 1122.12 Q96.478 1120.36 96.478 1118.67 Q96.478 1115.92 94.5336 1114.18 Q92.6123 1112.45 89.5104 1112.45 Q87.3114 1112.45 84.8577 1113.21 Q82.4271 1113.97 79.6494 1115.53 L79.6494 1110.8 Q82.4734 1109.67 84.9271 1109.09 Q87.3808 1108.51 89.4178 1108.51 Q94.7882 1108.51 97.9826 1111.2 Q101.177 1113.88 101.177 1118.37 Q101.177 1120.5 100.367 1122.42 Q99.5798 1124.32 97.4734 1126.91 Q96.8947 1127.59 93.7928 1130.8 Q90.691 1134 85.0429 1139.76 Z" fill="#000000" fill-rule="evenodd" fill-opacity="1" /><path clip-path="url(#clip970)" d="M111.223 1109.14 L129.58 1109.14 L129.58 1113.07 L115.506 1113.07 L115.506 1121.54 Q116.524 1121.2 117.543 1121.03 Q118.561 1120.85 119.58 1120.85 Q125.367 1120.85 128.746 1124.02 Q132.126 1127.19 132.126 1132.61 Q132.126 1138.19 128.654 1141.29 Q125.182 1144.37 118.862 1144.37 Q116.686 1144.37 114.418 1144 Q112.172 1143.63 109.765 1142.89 L109.765 1138.19 Q111.848 1139.32 114.07 1139.88 Q116.293 1140.43 118.77 1140.43 Q122.774 1140.43 125.112 1138.33 Q127.45 1136.22 127.45 1132.61 Q127.45 1129 125.112 1126.89 Q122.774 1124.78 118.77 1124.78 Q116.895 1124.78 115.02 1125.2 Q113.168 1125.62 111.223 1126.5 L111.223 1109.14 Z" fill="#000000" fill-rule="evenodd" fill-opacity="1" /><path clip-path="url(#clip970)" d="M151.339 1112.22 Q147.728 1112.22 145.899 1115.78 Q144.093 1119.32 144.093 1126.45 Q144.093 1133.56 145.899 1137.12 Q147.728 1140.66 151.339 1140.66 Q154.973 1140.66 156.779 1137.12 Q158.607 1133.56 158.607 1126.45 Q158.607 1119.32 156.779 1115.78 Q154.973 1112.22 151.339 1112.22 M151.339 1108.51 Q157.149 1108.51 160.205 1113.12 Q163.283 1117.7 163.283 1126.45 Q163.283 1135.18 160.205 1139.78 Q157.149 1144.37 151.339 1144.37 Q145.529 1144.37 142.45 1139.78 Q139.394 1135.18 139.394 1126.45 Q139.394 1117.7 142.45 1113.12 Q145.529 1108.51 151.339 1108.51 Z" fill="#000000" fill-rule="evenodd" fill-opacity="1" /><path clip-path="url(#clip970)" d="M81.0614 787.68 L99.4178 787.68 L99.4178 791.615 L85.3438 791.615 L85.3438 800.087 Q86.3623 799.74 87.3808 799.578 Q88.3993 799.393 89.4178 799.393 Q95.2049 799.393 98.5845 802.564 Q101.964 805.735 101.964 811.152 Q101.964 816.731 98.4919 819.833 Q95.0197 822.911 88.7003 822.911 Q86.5243 822.911 84.2558 822.541 Q82.0105 822.171 79.6031 821.43 L79.6031 816.731 Q81.6864 817.865 83.9086 818.421 Q86.1308 818.976 88.6077 818.976 Q92.6123 818.976 94.9502 816.87 Q97.2882 814.763 97.2882 811.152 Q97.2882 807.541 94.9502 805.435 Q92.6123 803.328 88.6077 803.328 Q86.7327 803.328 84.8577 803.745 Q83.0058 804.161 81.0614 805.041 L81.0614 787.68 Z" fill="#000000" fill-rule="evenodd" fill-opacity="1" /><path clip-path="url(#clip970)" d="M121.177 790.759 Q117.566 790.759 115.737 794.323 Q113.932 797.865 113.932 804.995 Q113.932 812.101 115.737 815.666 Q117.566 819.208 121.177 819.208 Q124.811 819.208 126.617 815.666 Q128.445 812.101 128.445 804.995 Q128.445 797.865 126.617 794.323 Q124.811 790.759 121.177 790.759 M121.177 787.055 Q126.987 787.055 130.043 791.661 Q133.121 796.245 133.121 804.995 Q133.121 813.722 130.043 818.328 Q126.987 822.911 121.177 822.911 Q115.367 822.911 112.288 818.328 Q109.233 813.722 109.233 804.995 Q109.233 796.245 112.288 791.661 Q115.367 787.055 121.177 787.055 Z" fill="#000000" fill-rule="evenodd" fill-opacity="1" /><path clip-path="url(#clip970)" d="M151.339 790.759 Q147.728 790.759 145.899 794.323 Q144.093 797.865 144.093 804.995 Q144.093 812.101 145.899 815.666 Q147.728 819.208 151.339 819.208 Q154.973 819.208 156.779 815.666 Q158.607 812.101 158.607 804.995 Q158.607 797.865 156.779 794.323 Q154.973 790.759 151.339 790.759 M151.339 787.055 Q157.149 787.055 160.205 791.661 Q163.283 796.245 163.283 804.995 Q163.283 813.722 160.205 818.328 Q157.149 822.911 151.339 822.911 Q145.529 822.911 142.45 818.328 Q139.394 813.722 139.394 804.995 Q139.394 796.245 142.45 791.661 Q145.529 787.055 151.339 787.055 Z" fill="#000000" fill-rule="evenodd" fill-opacity="1" /><path clip-path="url(#clip970)" d="M79.8346 466.223 L102.057 466.223 L102.057 468.214 L89.5104 500.783 L84.6262 500.783 L96.4317 470.159 L79.8346 470.159 L79.8346 466.223 Z" fill="#000000" fill-rule="evenodd" fill-opacity="1" /><path clip-path="url(#clip970)" d="M111.223 466.223 L129.58 466.223 L129.58 470.159 L115.506 470.159 L115.506 478.631 Q116.524 478.284 117.543 478.122 Q118.561 477.936 119.58 477.936 Q125.367 477.936 128.746 481.108 Q132.126 484.279 132.126 489.696 Q132.126 495.274 128.654 498.376 Q125.182 501.455 118.862 501.455 Q116.686 501.455 114.418 501.084 Q112.172 500.714 109.765 499.973 L109.765 495.274 Q111.848 496.408 114.07 496.964 Q116.293 497.52 118.77 497.52 Q122.774 497.52 125.112 495.413 Q127.45 493.307 127.45 489.696 Q127.45 486.084 125.112 483.978 Q122.774 481.872 118.77 481.872 Q116.895 481.872 115.02 482.288 Q113.168 482.705 111.223 483.584 L111.223 466.223 Z" fill="#000000" fill-rule="evenodd" fill-opacity="1" /><path clip-path="url(#clip970)" d="M151.339 469.302 Q147.728 469.302 145.899 472.867 Q144.093 476.409 144.093 483.538 Q144.093 490.645 145.899 494.209 Q147.728 497.751 151.339 497.751 Q154.973 497.751 156.779 494.209 Q158.607 490.645 158.607 483.538 Q158.607 476.409 156.779 472.867 Q154.973 469.302 151.339 469.302 M151.339 465.598 Q157.149 465.598 160.205 470.205 Q163.283 474.788 163.283 483.538 Q163.283 492.265 160.205 496.871 Q157.149 501.455 151.339 501.455 Q145.529 501.455 142.45 496.871 Q139.394 492.265 139.394 483.538 Q139.394 474.788 142.45 470.205 Q145.529 465.598 151.339 465.598 Z" fill="#000000" fill-rule="evenodd" fill-opacity="1" /><path clip-path="url(#clip970)" d="M51.6634 175.392 L59.3023 175.392 L59.3023 149.026 L50.9921 150.693 L50.9921 146.434 L59.256 144.767 L63.9319 144.767 L63.9319 175.392 L71.5707 175.392 L71.5707 179.327 L51.6634 179.327 L51.6634 175.392 Z" fill="#000000" fill-rule="evenodd" fill-opacity="1" /><path clip-path="url(#clip970)" d="M91.0151 147.846 Q87.404 147.846 85.5753 151.41 Q83.7697 154.952 83.7697 162.082 Q83.7697 169.188 85.5753 172.753 Q87.404 176.295 91.0151 176.295 Q94.6493 176.295 96.4548 172.753 Q98.2835 169.188 98.2835 162.082 Q98.2835 154.952 96.4548 151.41 Q94.6493 147.846 91.0151 147.846 M91.0151 144.142 Q96.8252 144.142 99.8808 148.748 Q102.959 153.332 102.959 162.082 Q102.959 170.808 99.8808 175.415 Q96.8252 179.998 91.0151 179.998 Q85.2049 179.998 82.1262 175.415 Q79.0707 170.808 79.0707 162.082 Q79.0707 153.332 82.1262 148.748 Q85.2049 144.142 91.0151 144.142 Z" fill="#000000" fill-rule="evenodd" fill-opacity="1" /><path clip-path="url(#clip970)" d="M121.177 147.846 Q117.566 147.846 115.737 151.41 Q113.932 154.952 113.932 162.082 Q113.932 169.188 115.737 172.753 Q117.566 176.295 121.177 176.295 Q124.811 176.295 126.617 172.753 Q128.445 169.188 128.445 162.082 Q128.445 154.952 126.617 151.41 Q124.811 147.846 121.177 147.846 M121.177 144.142 Q126.987 144.142 130.043 148.748 Q133.121 153.332 133.121 162.082 Q133.121 170.808 130.043 175.415 Q126.987 179.998 121.177 179.998 Q115.367 179.998 112.288 175.415 Q109.233 170.808 109.233 162.082 Q109.233 153.332 112.288 148.748 Q115.367 144.142 121.177 144.142 Z" fill="#000000" fill-rule="evenodd" fill-opacity="1" /><path clip-path="url(#clip970)" d="M151.339 147.846 Q147.728 147.846 145.899 151.41 Q144.093 154.952 144.093 162.082 Q144.093 169.188 145.899 172.753 Q147.728 176.295 151.339 176.295 Q154.973 176.295 156.779 172.753 Q158.607 169.188 158.607 162.082 Q158.607 154.952 156.779 151.41 Q154.973 147.846 151.339 147.846 M151.339 144.142 Q157.149 144.142 160.205 148.748 Q163.283 153.332 163.283 162.082 Q163.283 170.808 160.205 175.415 Q157.149 179.998 151.339 179.998 Q145.529 179.998 142.45 175.415 Q139.394 170.808 139.394 162.082 Q139.394 153.332 142.45 148.748 Q145.529 144.142 151.339 144.142 Z" fill="#000000" fill-rule="evenodd" fill-opacity="1" /><path clip-path="url(#clip970)" d="M1193 18.8205 L1193 65.8515 L1202.88 65.8515 Q1215.4 65.8515 1221.19 60.1802 Q1227.02 54.509 1227.02 42.2752 Q1227.02 30.1225 1221.19 24.4918 Q1215.4 18.8205 1202.88 18.8205 L1193 18.8205 M1184.81 12.096 L1201.62 12.096 Q1219.21 12.096 1227.43 19.4281 Q1235.65 26.7198 1235.65 42.2752 Q1235.65 57.9117 1227.39 65.2439 Q1219.12 72.576 1201.62 72.576 L1184.81 72.576 L1184.81 12.096 Z" fill="#000000" fill-rule="evenodd" fill-opacity="1" /><path clip-path="url(#clip970)" d="M1268.99 49.7694 Q1259.96 49.7694 1256.47 51.8354 Q1252.99 53.9013 1252.99 58.8839 Q1252.99 62.8538 1255.58 65.2034 Q1258.22 67.5124 1262.71 67.5124 Q1268.91 67.5124 1272.64 63.1374 Q1276.4 58.7219 1276.4 51.4303 L1276.4 49.7694 L1268.99 49.7694 M1283.86 46.6907 L1283.86 72.576 L1276.4 72.576 L1276.4 65.6895 Q1273.85 69.8214 1270.04 71.8063 Q1266.24 73.7508 1260.73 73.7508 Q1253.76 73.7508 1249.63 69.8619 Q1245.54 65.9325 1245.54 59.3701 Q1245.54 51.7138 1250.64 47.825 Q1255.79 43.9361 1265.95 43.9361 L1276.4 43.9361 L1276.4 43.2069 Q1276.4 38.0623 1273 35.2672 Q1269.64 32.4315 1263.52 32.4315 Q1259.63 32.4315 1255.95 33.3632 Q1252.26 34.295 1248.86 36.1584 L1248.86 29.2718 Q1252.95 27.692 1256.8 26.9223 Q1260.65 26.1121 1264.29 26.1121 Q1274.14 26.1121 1279 31.2163 Q1283.86 36.3204 1283.86 46.6907 Z" fill="#000000" fill-rule="evenodd" fill-opacity="1" /><path clip-path="url(#clip970)" d="M1306.58 14.324 L1306.58 27.2059 L1321.94 27.2059 L1321.94 32.9987 L1306.58 32.9987 L1306.58 57.6282 Q1306.58 63.1779 1308.08 64.7578 Q1309.62 66.3376 1314.28 66.3376 L1321.94 66.3376 L1321.94 72.576 L1314.28 72.576 Q1305.65 72.576 1302.37 69.3758 Q1299.09 66.1351 1299.09 57.6282 L1299.09 32.9987 L1293.62 32.9987 L1293.62 27.2059 L1299.09 27.2059 L1299.09 14.324 L1306.58 14.324 Z" fill="#000000" fill-rule="evenodd" fill-opacity="1" /><path clip-path="url(#clip970)" d="M1352.36 49.7694 Q1343.33 49.7694 1339.84 51.8354 Q1336.36 53.9013 1336.36 58.8839 Q1336.36 62.8538 1338.95 65.2034 Q1341.58 67.5124 1346.08 67.5124 Q1352.28 67.5124 1356 63.1374 Q1359.77 58.7219 1359.77 51.4303 L1359.77 49.7694 L1352.36 49.7694 M1367.23 46.6907 L1367.23 72.576 L1359.77 72.576 L1359.77 65.6895 Q1357.22 69.8214 1353.41 71.8063 Q1349.6 73.7508 1344.09 73.7508 Q1337.13 73.7508 1333 69.8619 Q1328.9 65.9325 1328.9 59.3701 Q1328.9 51.7138 1334.01 47.825 Q1339.15 43.9361 1349.32 43.9361 L1359.77 43.9361 L1359.77 43.2069 Q1359.77 38.0623 1356.37 35.2672 Q1353.01 32.4315 1346.89 32.4315 Q1343 32.4315 1339.31 33.3632 Q1335.63 34.295 1332.23 36.1584 L1332.23 29.2718 Q1336.32 27.692 1340.17 26.9223 Q1344.01 26.1121 1347.66 26.1121 Q1357.5 26.1121 1362.36 31.2163 Q1367.23 36.3204 1367.23 46.6907 Z" fill="#000000" fill-rule="evenodd" fill-opacity="1" /><polyline clip-path="url(#clip972)" style="stroke:#009af9; stroke-linecap:round; stroke-linejoin:round; stroke-width:4; stroke-opacity:1; fill:none" points="260.231,1447.87 260.231,1370.72 294.09,1370.72 294.09,1293.57 327.95,1293.57 327.95,1332.15 361.809,1332.15 361.809,1255 395.669,1255 395.669,1126.42 429.529,1126.42 429.529,1139.27 463.388,1139.27 463.388,1100.7 497.248,1100.7 497.248,856.393 531.108,856.393 531.108,959.259 564.967,959.259 564.967,946.401 598.827,946.401 598.827,933.543 632.687,933.543 632.687,972.117 666.546,972.117 666.546,1010.69 700.406,1010.69 734.265,1010.69 734.265,1100.7 768.125,1100.7 768.125,1190.71 801.985,1190.71 801.985,1229.28 835.844,1229.28 835.844,1293.57 869.704,1293.57 869.704,1357.87 903.564,1357.87 903.564,1332.15 937.423,1332.15 937.423,1409.3 971.283,1409.3 971.283,1396.44 1005.14,1396.44 1005.14,1422.16 1039,1422.16 1072.86,1422.16 1072.86,1435.01 1106.72,1435.01 1140.58,1435.01 1140.58,1422.16 1174.44,1422.16 1174.44,1383.58 1208.3,1383.58 1208.3,1345.01 1242.16,1345.01 1242.16,1293.57 1276.02,1293.57 1276.02,1267.86 1309.88,1267.86 1309.88,1203.57 1343.74,1203.57 1343.74,1113.56 1377.6,1113.56 1377.6,1062.13 1411.46,1062.13 1411.46,843.535 1445.32,843.535 1445.32,637.803 1479.18,637.803 1479.18,779.243 1513.04,779.243 1513.04,162.047 1546.9,162.047 1546.9,534.937 1580.76,534.937 1580.76,457.787 1614.62,457.787 1614.62,650.661 1648.48,650.661 1648.48,470.645 1682.34,470.645 1682.34,547.795 1716.19,547.795 1716.19,676.377 1750.05,676.377 1750.05,843.535 1783.91,843.535 1783.91,856.393 1817.77,856.393 1817.77,894.968 1851.63,894.968 1851.63,1319.29 1885.49,1319.29 1885.49,1190.71 1919.35,1190.71 1919.35,1255 1953.21,1255 1953.21,1357.87 1987.07,1357.87 1987.07,1345.01 2020.93,1345.01 2020.93,1383.58 2054.79,1383.58 2054.79,1447.87 2088.65,1447.87 2088.65,1435.01 2122.51,1435.01 2122.51,1422.16 2156.37,1422.16 2156.37,1447.87 2190.23,1447.87 2224.09,1447.87 2257.95,1447.87 2291.81,1447.87 "/>
<path clip-path="url(#clip970)" d="M1961.39 272.585 L2280.97 272.585 L2280.97 168.905 L1961.39 168.905  Z" fill="#ffffff" fill-rule="evenodd" fill-opacity="1"/>
<polyline clip-path="url(#clip970)" style="stroke:#000000; stroke-linecap:round; stroke-linejoin:round; stroke-width:4; stroke-opacity:1; fill:none" points="1961.39,272.585 2280.97,272.585 2280.97,168.905 1961.39,168.905 1961.39,272.585 "/>
<polyline clip-path="url(#clip970)" style="stroke:#009af9; stroke-linecap:round; stroke-linejoin:round; stroke-width:4; stroke-opacity:1; fill:none" points="1985.32,220.745 2128.88,220.745 "/>
<path clip-path="url(#clip970)" d="M2157.49 207.307 L2157.49 234.182 L2163.13 234.182 Q2170.29 234.182 2173.6 230.941 Q2176.93 227.701 2176.93 220.71 Q2176.93 213.766 2173.6 210.548 Q2170.29 207.307 2163.13 207.307 L2157.49 207.307 M2152.81 203.465 L2162.42 203.465 Q2172.46 203.465 2177.16 207.654 Q2181.86 211.821 2181.86 220.71 Q2181.86 229.645 2177.14 233.835 Q2172.42 238.025 2162.42 238.025 L2152.81 238.025 L2152.81 203.465 Z" fill="#000000" fill-rule="evenodd" fill-opacity="1" /><path clip-path="url(#clip970)" d="M2200.91 224.992 Q2195.75 224.992 2193.76 226.173 Q2191.77 227.353 2191.77 230.201 Q2191.77 232.469 2193.25 233.812 Q2194.75 235.131 2197.32 235.131 Q2200.87 235.131 2203 232.631 Q2205.15 230.108 2205.15 225.941 L2205.15 224.992 L2200.91 224.992 M2209.41 223.233 L2209.41 238.025 L2205.15 238.025 L2205.15 234.089 Q2203.69 236.451 2201.51 237.585 Q2199.34 238.696 2196.19 238.696 Q2192.21 238.696 2189.85 236.474 Q2187.51 234.228 2187.51 230.478 Q2187.51 226.103 2190.43 223.881 Q2193.37 221.659 2199.18 221.659 L2205.15 221.659 L2205.15 221.242 Q2205.15 218.303 2203.2 216.705 Q2201.28 215.085 2197.79 215.085 Q2195.56 215.085 2193.46 215.617 Q2191.35 216.15 2189.41 217.215 L2189.41 213.279 Q2191.75 212.377 2193.94 211.937 Q2196.14 211.474 2198.23 211.474 Q2203.85 211.474 2206.63 214.391 Q2209.41 217.307 2209.41 223.233 Z" fill="#000000" fill-rule="evenodd" fill-opacity="1" /><path clip-path="url(#clip970)" d="M2222.39 204.738 L2222.39 212.099 L2231.17 212.099 L2231.17 215.409 L2222.39 215.409 L2222.39 229.483 Q2222.39 232.654 2223.25 233.557 Q2224.13 234.46 2226.79 234.46 L2231.17 234.46 L2231.17 238.025 L2226.79 238.025 Q2221.86 238.025 2219.99 236.196 Q2218.11 234.344 2218.11 229.483 L2218.11 215.409 L2214.99 215.409 L2214.99 212.099 L2218.11 212.099 L2218.11 204.738 L2222.39 204.738 Z" fill="#000000" fill-rule="evenodd" fill-opacity="1" /><path clip-path="url(#clip970)" d="M2248.55 224.992 Q2243.39 224.992 2241.4 226.173 Q2239.41 227.353 2239.41 230.201 Q2239.41 232.469 2240.89 233.812 Q2242.39 235.131 2244.96 235.131 Q2248.5 235.131 2250.63 232.631 Q2252.79 230.108 2252.79 225.941 L2252.79 224.992 L2248.55 224.992 M2257.05 223.233 L2257.05 238.025 L2252.79 238.025 L2252.79 234.089 Q2251.33 236.451 2249.15 237.585 Q2246.98 238.696 2243.83 238.696 Q2239.85 238.696 2237.49 236.474 Q2235.15 234.228 2235.15 230.478 Q2235.15 226.103 2238.06 223.881 Q2241 221.659 2246.81 221.659 L2252.79 221.659 L2252.79 221.242 Q2252.79 218.303 2250.84 216.705 Q2248.92 215.085 2245.43 215.085 Q2243.2 215.085 2241.1 215.617 Q2238.99 216.15 2237.05 217.215 L2237.05 213.279 Q2239.38 212.377 2241.58 211.937 Q2243.78 211.474 2245.87 211.474 Q2251.49 211.474 2254.27 214.391 Q2257.05 217.307 2257.05 223.233 Z" fill="#000000" fill-rule="evenodd" fill-opacity="1" /></svg>
