<?xml version="1.0" encoding="utf-8"?>
<svg xmlns="http://www.w3.org/2000/svg" xmlns:xlink="http://www.w3.org/1999/xlink" width="600" height="400" viewBox="0 0 2400 1600">
<defs>
  <clipPath id="clip000">
    <rect x="0" y="0" width="2400" height="1600"/>
  </clipPath>
</defs>
<path clip-path="url(#clip000)" d="M0 1600 L2400 1600 L2400 0 L0 0  Z" fill="#ffffff" fill-rule="evenodd" fill-opacity="1"/>
<defs>
  <clipPath id="clip001">
    <rect x="480" y="0" width="1681" height="1600"/>
  </clipPath>
</defs>
<path clip-path="url(#clip000)" d="M199.283 1486.45 L2352.76 1486.45 L2352.76 123.472 L199.283 123.472  Z" fill="#ffffff" fill-rule="evenodd" fill-opacity="1"/>
<defs>
  <clipPath id="clip002">
    <rect x="199" y="123" width="2154" height="1364"/>
  </clipPath>
</defs>
<polyline clip-path="url(#clip002)" style="stroke:#000000; stroke-linecap:round; stroke-linejoin:round; stroke-width:2; stroke-opacity:0.1; fill:none" points="260.231,1486.45 260.231,123.472 "/>
<polyline clip-path="url(#clip002)" style="stroke:#000000; stroke-linecap:round; stroke-linejoin:round; stroke-width:2; stroke-opacity:0.1; fill:none" points="768.125,1486.45 768.125,123.472 "/>
<polyline clip-path="url(#clip002)" style="stroke:#000000; stroke-linecap:round; stroke-linejoin:round; stroke-width:2; stroke-opacity:0.1; fill:none" points="1276.02,1486.45 1276.02,123.472 "/>
<polyline clip-path="url(#clip002)" style="stroke:#000000; stroke-linecap:round; stroke-linejoin:round; stroke-width:2; stroke-opacity:0.1; fill:none" points="1783.91,1486.45 1783.91,123.472 "/>
<polyline clip-path="url(#clip002)" style="stroke:#000000; stroke-linecap:round; stroke-linejoin:round; stroke-width:2; stroke-opacity:0.1; fill:none" points="2291.81,1486.45 2291.81,123.472 "/>
<polyline clip-path="url(#clip000)" style="stroke:#000000; stroke-linecap:round; stroke-linejoin:round; stroke-width:4; stroke-opacity:1; fill:none" points="199.283,1486.45 2352.76,1486.45 "/>
<polyline clip-path="url(#clip000)" style="stroke:#000000; stroke-linecap:round; stroke-linejoin:round; stroke-width:4; stroke-opacity:1; fill:none" points="260.231,1486.45 260.231,1467.55 "/>
<polyline clip-path="url(#clip000)" style="stroke:#000000; stroke-linecap:round; stroke-linejoin:round; stroke-width:4; stroke-opacity:1; fill:none" points="768.125,1486.45 768.125,1467.55 "/>
<polyline clip-path="url(#clip000)" style="stroke:#000000; stroke-linecap:round; stroke-linejoin:round; stroke-width:4; stroke-opacity:1; fill:none" points="1276.02,1486.45 1276.02,1467.55 "/>
<polyline clip-path="url(#clip000)" style="stroke:#000000; stroke-linecap:round; stroke-linejoin:round; stroke-width:4; stroke-opacity:1; fill:none" points="1783.91,1486.45 1783.91,1467.55 "/>
<polyline clip-path="url(#clip000)" style="stroke:#000000; stroke-linecap:round; stroke-linejoin:round; stroke-width:4; stroke-opacity:1; fill:none" points="2291.81,1486.45 2291.81,1467.55 "/>
<path clip-path="url(#clip000)" d="M229.131 1532.02 L258.807 1532.02 L258.807 1535.95 L229.131 1535.95 L229.131 1532.02 Z" fill="#000000" fill-rule="evenodd" fill-opacity="1" /><path clip-path="url(#clip000)" d="M281.747 1518.36 L269.941 1536.81 L281.747 1536.81 L281.747 1518.36 M280.52 1514.29 L286.399 1514.29 L286.399 1536.81 L291.33 1536.81 L291.33 1540.7 L286.399 1540.7 L286.399 1548.85 L281.747 1548.85 L281.747 1540.7 L266.145 1540.7 L266.145 1536.19 L280.52 1514.29 Z" fill="#000000" fill-rule="evenodd" fill-opacity="1" /><path clip-path="url(#clip000)" d="M738.067 1532.02 L767.743 1532.02 L767.743 1535.95 L738.067 1535.95 L738.067 1532.02 Z" fill="#000000" fill-rule="evenodd" fill-opacity="1" /><path clip-path="url(#clip000)" d="M781.863 1544.91 L798.183 1544.91 L798.183 1548.85 L776.238 1548.85 L776.238 1544.91 Q778.9 1542.16 783.484 1537.53 Q788.09 1532.88 789.271 1531.53 Q791.516 1529.01 792.396 1527.27 Q793.299 1525.51 793.299 1523.82 Q793.299 1521.07 791.354 1519.33 Q789.433 1517.6 786.331 1517.6 Q784.132 1517.6 781.678 1518.36 Q779.248 1519.13 776.47 1520.68 L776.47 1515.95 Q779.294 1514.82 781.748 1514.24 Q784.201 1513.66 786.238 1513.66 Q791.609 1513.66 794.803 1516.35 Q797.998 1519.03 797.998 1523.52 Q797.998 1525.65 797.187 1527.57 Q796.4 1529.47 794.294 1532.07 Q793.715 1532.74 790.613 1535.95 Q787.512 1539.15 781.863 1544.91 Z" fill="#000000" fill-rule="evenodd" fill-opacity="1" /><path clip-path="url(#clip000)" d="M1276.02 1517.37 Q1272.41 1517.37 1270.58 1520.93 Q1268.77 1524.47 1268.77 1531.6 Q1268.77 1538.71 1270.58 1542.27 Q1272.41 1545.82 1276.02 1545.82 Q1279.65 1545.82 1281.46 1542.27 Q1283.29 1538.71 1283.29 1531.6 Q1283.29 1524.47 1281.46 1520.93 Q1279.65 1517.37 1276.02 1517.37 M1276.02 1513.66 Q1281.83 1513.66 1284.89 1518.27 Q1287.96 1522.85 1287.96 1531.6 Q1287.96 1540.33 1284.89 1544.94 Q1281.83 1549.52 1276.02 1549.52 Q1270.21 1549.52 1267.13 1544.94 Q1264.08 1540.33 1264.08 1531.6 Q1264.08 1522.85 1267.13 1518.27 Q1270.21 1513.66 1276.02 1513.66 Z" fill="#000000" fill-rule="evenodd" fill-opacity="1" /><path clip-path="url(#clip000)" d="M1778.57 1544.91 L1794.89 1544.91 L1794.89 1548.85 L1772.94 1548.85 L1772.94 1544.91 Q1775.6 1542.16 1780.19 1537.53 Q1784.79 1532.88 1785.97 1531.53 Q1788.22 1529.01 1789.1 1527.27 Q1790 1525.51 1790 1523.82 Q1790 1521.07 1788.06 1519.33 Q1786.14 1517.6 1783.03 1517.6 Q1780.84 1517.6 1778.38 1518.36 Q1775.95 1519.13 1773.17 1520.68 L1773.17 1515.95 Q1776 1514.82 1778.45 1514.24 Q1780.9 1513.66 1782.94 1513.66 Q1788.31 1513.66 1791.51 1516.35 Q1794.7 1519.03 1794.7 1523.52 Q1794.7 1525.65 1793.89 1527.57 Q1793.1 1529.47 1791 1532.07 Q1790.42 1532.74 1787.32 1535.95 Q1784.21 1539.15 1778.57 1544.91 Z" fill="#000000" fill-rule="evenodd" fill-opacity="1" /><path clip-path="url(#clip000)" d="M2294.82 1518.36 L2283.01 1536.81 L2294.82 1536.81 L2294.82 1518.36 M2293.59 1514.29 L2299.47 1514.29 L2299.47 1536.81 L2304.4 1536.81 L2304.4 1540.7 L2299.47 1540.7 L2299.47 1548.85 L2294.82 1548.85 L2294.82 1540.7 L2279.22 1540.7 L2279.22 1536.19 L2293.59 1514.29 Z" fill="#000000" fill-rule="evenodd" fill-opacity="1" /><polyline clip-path="url(#clip002)" style="stroke:#000000; stroke-linecap:round; stroke-linejoin:round; stroke-width:2; stroke-opacity:0.1; fill:none" points="199.283,1447.87 2352.76,1447.87 "/>
<polyline clip-path="url(#clip002)" style="stroke:#000000; stroke-linecap:round; stroke-linejoin:round; stroke-width:2; stroke-opacity:0.1; fill:none" points="199.283,1126.42 2352.76,1126.42 "/>
<polyline clip-path="url(#clip002)" style="stroke:#000000; stroke-linecap:round; stroke-linejoin:round; stroke-width:2; stroke-opacity:0.1; fill:none" points="199.283,804.96 2352.76,804.96 "/>
<polyline clip-path="url(#clip002)" style="stroke:#000000; stroke-linecap:round; stroke-linejoin:round; stroke-width:2; stroke-opacity:0.1; fill:none" points="199.283,483.503 2352.76,483.503 "/>
<polyline clip-path="url(#clip002)" style="stroke:#000000; stroke-linecap:round; stroke-linejoin:round; stroke-width:2; stroke-opacity:0.1; fill:none" points="199.283,162.047 2352.76,162.047 "/>
<polyline clip-path="url(#clip000)" style="stroke:#000000; stroke-linecap:round; stroke-linejoin:round; stroke-width:4; stroke-opacity:1; fill:none" points="199.283,1486.45 199.283,123.472 "/>
<polyline clip-path="url(#clip000)" style="stroke:#000000; stroke-linecap:round; stroke-linejoin:round; stroke-width:4; stroke-opacity:1; fill:none" points="199.283,1447.87 218.181,1447.87 "/>
<polyline clip-path="url(#clip000)" style="stroke:#000000; stroke-linecap:round; stroke-linejoin:round; stroke-width:4; stroke-opacity:1; fill:none" points="199.283,1126.42 218.181,1126.42 "/>
<polyline clip-path="url(#clip000)" style="stroke:#000000; stroke-linecap:round; stroke-linejoin:round; stroke-width:4; stroke-opacity:1; fill:none" points="199.283,804.96 218.181,804.96 "/>
<polyline clip-path="url(#clip000)" style="stroke:#000000; stroke-linecap:round; stroke-linejoin:round; stroke-width:4; stroke-opacity:1; fill:none" points="199.283,483.503 218.181,483.503 "/>
<polyline clip-path="url(#clip000)" style="stroke:#000000; stroke-linecap:round; stroke-linejoin:round; stroke-width:4; stroke-opacity:1; fill:none" points="199.283,162.047 218.181,162.047 "/>
<path clip-path="url(#clip000)" d="M151.339 1433.67 Q147.728 1433.67 145.899 1437.24 Q144.093 1440.78 144.093 1447.91 Q144.093 1455.01 145.899 1458.58 Q147.728 1462.12 151.339 1462.12 Q154.973 1462.12 156.779 1458.58 Q158.607 1455.01 158.607 1447.91 Q158.607 1440.78 156.779 1437.24 Q154.973 1433.67 151.339 1433.67 M151.339 1429.97 Q157.149 1429.97 160.205 1434.57 Q163.283 1439.16 163.283 1447.91 Q163.283 1456.63 160.205 1461.24 Q157.149 1465.82 151.339 1465.82 Q145.529 1465.82 142.45 1461.24 Q139.394 1456.63 139.394 1447.91 Q139.394 1439.16 142.45 1434.57 Q145.529 1429.97 151.339 1429.97 Z" fill="#000000" fill-rule="evenodd" fill-opacity="1" /><path clip-path="url(#clip000)" d="M85.0429 1139.76 L101.362 1139.76 L101.362 1143.7 L79.4179 1143.7 L79.4179 1139.76 Q82.0799 1137.01 86.6632 1132.38 Q91.2697 1127.72 92.4502 1126.38 Q94.6956 1123.86 95.5752 1122.12 Q96.478 1120.36 96.478 1118.67 Q96.478 1115.92 94.5336 1114.18 Q92.6123 1112.45 89.5104 1112.45 Q87.3114 1112.45 84.8577 1113.21 Q82.4271 1113.97 79.6494 1115.53 L79.6494 1110.8 Q82.4734 1109.67 84.9271 1109.09 Q87.3808 1108.51 89.4178 1108.51 Q94.7882 1108.51 97.9826 1111.2 Q101.177 1113.88 101.177 1118.37 Q101.177 1120.5 100.367 1122.42 Q99.5798 1124.32 97.4734 1126.91 Q96.8947 1127.59 93.7928 1130.8 Q90.691 1134 85.0429 1139.76 Z" fill="#000000" fill-rule="evenodd" fill-opacity="1" /><path clip-path="url(#clip000)" d="M111.223 1109.14 L129.58 1109.14 L129.58 1113.07 L115.506 1113.07 L115.506 1121.54 Q116.524 1121.2 117.543 1121.03 Q118.561 1120.85 119.58 1120.85 Q125.367 1120.85 128.746 1124.02 Q132.126 1127.19 132.126 1132.61 Q132.126 1138.19 128.654 1141.29 Q125.182 1144.37 118.862 1144.37 Q116.686 1144.37 114.418 1144 Q112.172 1143.63 109.765 1142.89 L109.765 1138.19 Q111.848 1139.32 114.07 1139.88 Q116.293 1140.43 118.77 1140.43 Q122.774 1140.43 125.112 1138.33 Q127.45 1136.22 127.45 1132.61 Q127.45 1129 125.112 1126.89 Q122.774 1124.78 118.77 1124.78 Q116.895 1124.78 115.02 1125.2 Q113.168 1125.62 111.223 1126.5 L111.223 1109.14 Z" fill="#000000" fill-rule="evenodd" fill-opacity="1" /><path clip-path="url(#clip000)" d="M151.339 1112.22 Q147.728 1112.22 145.899 1115.78 Q144.093 1119.32 144.093 1126.45 Q144.093 1133.56 145.899 1137.12 Q147.728 1140.66 151.339 1140.66 Q154.973 1140.66 156.779 1137.12 Q158.607 1133.56 158.607 1126.45 Q158.607 1119.32 156.779 1115.78 Q154.973 1112.22 151.339 1112.22 M151.339 1108.51 Q157.149 1108.51 160.205 1113.12 Q163.283 1117.7 163.283 1126.45 Q163.283 1135.18 160.205 1139.78 Q157.149 1144.37 151.339 1144.37 Q145.529 1144.37 142.45 1139.78 Q139.394 1135.18 139.394 1126.45 Q139.394 1117.7 142.45 1113.12 Q145.529 1108.51 151.339 1108.51 Z" fill="#000000" fill-rule="evenodd" fill-opacity="1" /><path clip-path="url(#clip000)" d="M81.0614 787.68 L99.4178 787.68 L99.4178 791.615 L85.3438 791.615 L85.3438 800.087 Q86.3623 799.74 87.3808 799.578 Q88.3993 799.393 89.4178 799.393 Q95.2049 799.393 98.5845 802.564 Q101.964 805.735 101.964 811.152 Q101.964 816.731 98.4919 819.833 Q95.0197 822.911 88.7003 822.911 Q86.5243 822.911 84.2558 822.541 Q82.0105 822.171 79.6031 821.43 L79.6031 816.731 Q81.6864 817.865 83.9086 818.421 Q86.1308 818.976 88.6077 818.976 Q92.6123 818.976 94.9502 816.87 Q97.2882 814.763 97.2882 811.152 Q97.2882 807.541 94.9502 805.435 Q92.6123 803.328 88.6077 803.328 Q86.7327 803.328 84.8577 803.745 Q83.0058 804.161 81.0614 805.041 L81.0614 787.68 Z" fill="#000000" fill-rule="evenodd" fill-opacity="1" /><path clip-path="url(#clip000)" d="M121.177 790.759 Q117.566 790.759 115.737 794.323 Q113.932 797.865 113.932 804.995 Q113.932 812.101 115.737 815.666 Q117.566 819.208 121.177 819.208 Q124.811 819.208 126.617 815.666 Q128.445 812.101 128.445 804.995 Q128.445 797.865 126.617 794.323 Q124.811 790.759 121.177 790.759 M121.177 787.055 Q126.987 787.055 130.043 791.661 Q133.121 796.245 133.121 804.995 Q133.121 813.722 130.043 818.328 Q126.987 822.911 121.177 822.911 Q115.367 822.911 112.288 818.328 Q109.233 813.722 109.233 804.995 Q109.233 796.245 112.288 791.661 Q115.367 787.055 121.177 787.055 Z" fill="#000000" fill-rule="evenodd" fill-opacity="1" /><path clip-path="url(#clip000)" d="M151.339 790.759 Q147.728 790.759 145.899 794.323 Q144.093 797.865 144.093 804.995 Q144.093 812.101 145.899 815.666 Q147.728 819.208 151.339 819.208 Q154.973 819.208 156.779 815.666 Q158.607 812.101 158.607 804.995 Q158.607 797.865 156.779 794.323 Q154.973 790.759 151.339 790.759 M151.339 787.055 Q157.149 787.055 160.205 791.661 Q163.283 796.245 163.283 804.995 Q163.283 813.722 160.205 818.328 Q157.149 822.911 151.339 822.911 Q145.529 822.911 142.45 818.328 Q139.394 813.722 139.394 804.995 Q139.394 796.245 142.45 791.661 Q145.529 787.055 151.339 787.055 Z" fill="#000000" fill-rule="evenodd" fill-opacity="1" /><path clip-path="url(#clip000)" d="M79.8346 466.223 L102.057 466.223 L102.057 468.214 L89.5104 500.783 L84.6262 500.783 L96.4317 470.159 L79.8346 470.159 L79.8346 466.223 Z" fill="#000000" fill-rule="evenodd" fill-opacity="1" /><path clip-path="url(#clip000)" d="M111.223 466.223 L129.58 466.223 L129.58 470.159 L115.506 470.159 L115.506 478.631 Q116.524 478.284 117.543 478.122 Q118.561 477.936 119.58 477.936 Q125.367 477.936 128.746 481.108 Q132.126 484.279 132.126 489.696 Q132.126 495.274 128.654 498.376 Q125.182 501.455 118.862 501.455 Q116.686 501.455 114.418 501.084 Q112.172 500.714 109.765 499.973 L109.765 495.274 Q111.848 496.408 114.07 496.964 Q116.293 497.52 118.77 497.52 Q122.774 497.52 125.112 495.413 Q127.45 493.307 127.45 489.696 Q127.45 486.084 125.112 483.978 Q122.774 481.872 118.77 481.872 Q116.895 481.872 115.02 482.288 Q113.168 482.705 111.223 483.584 L111.223 466.223 Z" fill="#000000" fill-rule="evenodd" fill-opacity="1" /><path clip-path="url(#clip000)" d="M151.339 469.302 Q147.728 469.302 145.899 472.867 Q144.093 476.409 144.093 483.538 Q144.093 490.645 145.899 494.209 Q147.728 497.751 151.339 497.751 Q154.973 497.751 156.779 494.209 Q158.607 490.645 158.607 483.538 Q158.607 476.409 156.779 472.867 Q154.973 469.302 151.339 469.302 M151.339 465.598 Q157.149 465.598 160.205 470.205 Q163.283 474.788 163.283 483.538 Q163.283 492.265 160.205 496.871 Q157.149 501.455 151.339 501.455 Q145.529 501.455 142.45 496.871 Q139.394 492.265 139.394 483.538 Q139.394 474.788 142.45 470.205 Q145.529 465.598 151.339 465.598 Z" fill="#000000" fill-rule="evenodd" fill-opacity="1" /><path clip-path="url(#clip000)" d="M51.6634 175.392 L59.3023 175.392 L59.3023 149.026 L50.9921 150.693 L50.9921 146.434 L59.256 144.767 L63.9319 144.767 L63.9319 175.392 L71.5707 175.392 L71.5707 179.327 L51.6634 179.327 L51.6634 175.392 Z" fill="#000000" fill-rule="evenodd" fill-opacity="1" /><path clip-path="url(#clip000)" d="M91.0151 147.846 Q87.404 147.846 85.5753 151.41 Q83.7697 154.952 83.7697 162.082 Q83.7697 169.188 85.5753 172.753 Q87.404 176.295 91.0151 176.295 Q94.6493 176.295 96.4548 172.753 Q98.2835 169.188 98.2835 162.082 Q98.2835 154.952 96.4548 151.41 Q94.6493 147.846 91.0151 147.846 M91.0151 144.142 Q96.8252 144.142 99.8808 148.748 Q102.959 153.332 102.959 162.082 Q102.959 170.808 99.8808 175.415 Q96.8252 179.998 91.0151 179.998 Q85.2049 179.998 82.1262 175.415 Q79.0707 170.808 79.0707 162.082 Q79.0707 153.332 82.1262 148.748 Q85.2049 144.142 91.0151 144.142 Z" fill="#000000" fill-rule="evenodd" fill-opacity="1" /><path clip-path="url(#clip000)" d="M121.177 147.846 Q117.566 147.846 115.737 151.41 Q113.932 154.952 113.932 162.082 Q113.932 169.188 115.737 172.753 Q117.566 176.295 121.177 176.295 Q124.811 176.295 126.617 172.753 Q128.445 169.188 128.445 162.082 Q128.445 154.952 126.617 151.41 Q124.811 147.846 121.177 147.846 M121.177 144.142 Q126.987 144.142 130.043 148.748 Q133.121 153.332 133.121 162.082 Q133.121 170.808 130.043 175.415 Q126.987 179.998 121.177 179.998 Q115.367 179.998 112.288 175.415 Q109.233 170.808 109.233 162.082 Q109.233 153.332 112.288 148.748 Q115.367 144.142 121.177 144.142 Z" fill="#000000" fill-rule="evenodd" fill-opacity="1" /><path clip-path="url(#clip000)" d="M151.339 147.846 Q147.728 147.846 145.899 151.41 Q144.093 154.952 144.093 162.082 Q144.093 169.188 145.899 172.753 Q147.728 176.295 151.339 176.295 Q154.973 176.295 156.779 172.753 Q158.607 169.188 158.607 162.082 Q158.607 154.952 156.779 151.41 Q154.973 147.846 151.339 147.846 M151.339 144.142 Q157.149 144.142 160.205 148.748 Q163.283 153.332 163.283 162.082 Q163.283 170.808 160.205 175.415 Q157.149 179.998 151.339 179.998 Q145.529 179.998 142.45 175.415 Q139.394 170.808 139.394 162.082 Q139.394 153.332 142.45 148.748 Q145.529 144.142 151.339 144.142 Z" fill="#000000" fill-rule="evenodd" fill-opacity="1" /><path clip-path="url(#clip000)" d="M644.727 18.8205 L644.727 65.8515 L654.611 65.8515 Q667.128 65.8515 672.921 60.1802 Q678.754 54.509 678.754 42.2752 Q678.754 30.1225 672.921 24.4918 Q667.128 18.8205 654.611 18.8205 L644.727 18.8205 M636.544 12.096 L653.355 12.096 Q670.936 12.096 679.159 19.4281 Q687.383 26.7198 687.383 42.2752 Q687.383 57.9117 679.119 65.2439 Q670.855 72.576 653.355 72.576 L636.544 72.576 L636.544 12.096 Z" fill="#000000" fill-rule="evenodd" fill-opacity="1" /><path clip-path="url(#clip000)" d="M720.722 49.7694 Q711.688 49.7694 708.204 51.8354 Q704.721 53.9013 704.721 58.8839 Q704.721 62.8538 707.313 65.2034 Q709.946 67.5124 714.443 67.5124 Q720.641 67.5124 724.367 63.1374 Q728.135 58.7219 728.135 51.4303 L728.135 49.7694 L720.722 49.7694 M735.588 46.6907 L735.588 72.576 L728.135 72.576 L728.135 65.6895 Q725.583 69.8214 721.775 71.8063 Q717.967 73.7508 712.458 73.7508 Q705.49 73.7508 701.358 69.8619 Q697.267 65.9325 697.267 59.3701 Q697.267 51.7138 702.371 47.825 Q707.516 43.9361 717.683 43.9361 L728.135 43.9361 L728.135 43.2069 Q728.135 38.0623 724.732 35.2672 Q721.37 32.4315 715.253 32.4315 Q711.364 32.4315 707.678 33.3632 Q703.991 34.295 700.589 36.1584 L700.589 29.2718 Q704.68 27.692 708.528 26.9223 Q712.377 26.1121 716.023 26.1121 Q725.866 26.1121 730.727 31.2163 Q735.588 36.3204 735.588 46.6907 Z" fill="#000000" fill-rule="evenodd" fill-opacity="1" /><path clip-path="url(#clip000)" d="M758.314 14.324 L758.314 27.2059 L773.667 27.2059 L773.667 32.9987 L758.314 32.9987 L758.314 57.6282 Q758.314 63.1779 759.813 64.7578 Q761.352 66.3376 766.011 66.3376 L773.667 66.3376 L773.667 72.576 L766.011 72.576 Q757.382 72.576 754.101 69.3758 Q750.82 66.1351 750.82 57.6282 L750.82 32.9987 L745.351 32.9987 L745.351 27.2059 L750.82 27.2059 L750.82 14.324 L758.314 14.324 Z" fill="#000000" fill-rule="evenodd" fill-opacity="1" /><path clip-path="url(#clip000)" d="M804.089 49.7694 Q795.056 49.7694 791.572 51.8354 Q788.088 53.9013 788.088 58.8839 Q788.088 62.8538 790.681 65.2034 Q793.314 67.5124 797.81 67.5124 Q804.008 67.5124 807.735 63.1374 Q811.502 58.7219 811.502 51.4303 L811.502 49.7694 L804.089 49.7694 M818.956 46.6907 L818.956 72.576 L811.502 72.576 L811.502 65.6895 Q808.95 69.8214 805.142 71.8063 Q801.335 73.7508 795.825 73.7508 Q788.858 73.7508 784.726 69.8619 Q780.634 65.9325 780.634 59.3701 Q780.634 51.7138 785.739 47.825 Q790.883 43.9361 801.051 43.9361 L811.502 43.9361 L811.502 43.2069 Q811.502 38.0623 808.1 35.2672 Q804.737 32.4315 798.62 32.4315 Q794.732 32.4315 791.045 33.3632 Q787.359 34.295 783.956 36.1584 L783.956 29.2718 Q788.048 27.692 791.896 26.9223 Q795.744 26.1121 799.39 26.1121 Q809.234 26.1121 814.095 31.2163 Q818.956 36.3204 818.956 46.6907 Z" fill="#000000" fill-rule="evenodd" fill-opacity="1" /><path clip-path="url(#clip000)" d="M881.299 49.7694 Q872.266 49.7694 868.782 51.8354 Q865.298 53.9013 865.298 58.8839 Q865.298 62.8538 867.891 65.2034 Q870.524 67.5124 875.021 67.5124 Q881.218 67.5124 884.945 63.1374 Q888.713 58.7219 888.713 51.4303 L888.713 49.7694 L881.299 49.7694 M896.166 46.6907 L896.166 72.576 L888.713 72.576 L888.713 65.6895 Q886.161 69.8214 882.353 71.8063 Q878.545 73.7508 873.036 73.7508 Q866.068 73.7508 861.936 69.8619 Q857.845 65.9325 857.845 59.3701 Q857.845 51.7138 862.949 47.825 Q868.093 43.9361 878.261 43.9361 L888.713 43.9361 L888.713 43.2069 Q888.713 38.0623 885.31 35.2672 Q881.948 32.4315 875.831 32.4315 Q871.942 32.4315 868.256 33.3632 Q864.569 34.295 861.166 36.1584 L861.166 29.2718 Q865.258 27.692 869.106 26.9223 Q872.955 26.1121 876.6 26.1121 Q886.444 26.1121 891.305 31.2163 Q896.166 36.3204 896.166 46.6907 Z" fill="#000000" fill-rule="evenodd" fill-opacity="1" /><path clip-path="url(#clip000)" d="M949.233 45.1919 L949.233 72.576 L941.779 72.576 L941.779 45.4349 Q941.779 38.994 939.268 35.7938 Q936.756 32.5936 931.733 32.5936 Q925.697 32.5936 922.214 36.4419 Q918.73 40.2903 918.73 46.9338 L918.73 72.576 L911.236 72.576 L911.236 27.2059 L918.73 27.2059 L918.73 34.2544 Q921.403 30.163 925.009 28.1376 Q928.655 26.1121 933.394 26.1121 Q941.212 26.1121 945.223 30.9732 Q949.233 35.7938 949.233 45.1919 Z" fill="#000000" fill-rule="evenodd" fill-opacity="1" /><path clip-path="url(#clip000)" d="M993.955 34.0924 L993.955 9.54393 L1001.41 9.54393 L1001.41 72.576 L993.955 72.576 L993.955 65.7705 Q991.606 69.8214 988 71.8063 Q984.435 73.7508 979.412 73.7508 Q971.189 73.7508 966.004 67.1883 Q960.859 60.6258 960.859 49.9314 Q960.859 39.2371 966.004 32.6746 Q971.189 26.1121 979.412 26.1121 Q984.435 26.1121 988 28.0971 Q991.606 30.0415 993.955 34.0924 M968.556 49.9314 Q968.556 58.1548 971.918 62.8538 Q975.321 67.5124 981.235 67.5124 Q987.15 67.5124 990.552 62.8538 Q993.955 58.1548 993.955 49.9314 Q993.955 41.7081 990.552 37.0496 Q987.15 32.3505 981.235 32.3505 Q975.321 32.3505 971.918 37.0496 Q968.556 41.7081 968.556 49.9314 Z" fill="#000000" fill-rule="evenodd" fill-opacity="1" /><path clip-path="url(#clip000)" d="M1035.07 12.096 L1086.23 12.096 L1086.23 18.9825 L1064.76 18.9825 L1064.76 72.576 L1056.54 72.576 L1056.54 18.9825 L1035.07 18.9825 L1035.07 12.096 Z" fill="#000000" fill-rule="evenodd" fill-opacity="1" /><path clip-path="url(#clip000)" d="M1107.91 34.1734 Q1106.65 33.4443 1105.15 33.1202 Q1103.69 32.7556 1101.91 32.7556 Q1095.59 32.7556 1092.19 36.8875 Q1088.83 40.9789 1088.83 48.6757 L1088.83 72.576 L1081.33 72.576 L1081.33 27.2059 L1088.83 27.2059 L1088.83 34.2544 Q1091.18 30.1225 1094.94 28.1376 Q1098.71 26.1121 1104.1 26.1121 Q1104.87 26.1121 1105.8 26.2337 Q1106.73 26.3147 1107.87 26.5172 L1107.91 34.1734 Z" fill="#000000" fill-rule="evenodd" fill-opacity="1" /><path clip-path="url(#clip000)" d="M1114.96 54.671 L1114.96 27.2059 L1122.41 27.2059 L1122.41 54.3874 Q1122.41 60.8284 1124.92 64.0691 Q1127.43 67.2693 1132.46 67.2693 Q1138.49 67.2693 1141.98 63.421 Q1145.5 59.5726 1145.5 52.9291 L1145.5 27.2059 L1152.95 27.2059 L1152.95 72.576 L1145.5 72.576 L1145.5 65.6084 Q1142.79 69.7404 1139.18 71.7658 Q1135.62 73.7508 1130.88 73.7508 Q1123.06 73.7508 1119.01 68.8897 Q1114.96 64.0286 1114.96 54.671 M1133.71 26.1121 L1133.71 26.1121 Z" fill="#000000" fill-rule="evenodd" fill-opacity="1" /><path clip-path="url(#clip000)" d="M1207.11 48.0275 L1207.11 51.6733 L1172.84 51.6733 Q1173.33 59.3701 1177.46 63.421 Q1181.63 67.4314 1189.05 67.4314 Q1193.34 67.4314 1197.35 66.3781 Q1201.4 65.3249 1205.37 63.2184 L1205.37 70.267 Q1201.36 71.9684 1197.15 72.8596 Q1192.94 73.7508 1188.6 73.7508 Q1177.74 73.7508 1171.38 67.4314 Q1165.07 61.1119 1165.07 50.3365 Q1165.07 39.1965 1171.06 32.6746 Q1177.1 26.1121 1187.3 26.1121 Q1196.46 26.1121 1201.77 32.0264 Q1207.11 37.9003 1207.11 48.0275 M1199.66 45.84 Q1199.58 39.7232 1196.22 36.0774 Q1192.89 32.4315 1187.39 32.4315 Q1181.15 32.4315 1177.38 35.9558 Q1173.65 39.4801 1173.09 45.8805 L1199.66 45.84 Z" fill="#000000" fill-rule="evenodd" fill-opacity="1" /><path clip-path="url(#clip000)" d="M1282.3 14.0809 L1282.3 22.0612 Q1277.64 19.8332 1273.51 18.7395 Q1269.38 17.6457 1265.53 17.6457 Q1258.84 17.6457 1255.2 20.2383 Q1251.59 22.8309 1251.59 27.611 Q1251.59 31.6214 1253.98 33.6873 Q1256.41 35.7128 1263.14 36.9686 L1268.08 37.9813 Q1277.23 39.7232 1281.57 44.1387 Q1285.94 48.5136 1285.94 55.8863 Q1285.94 64.6767 1280.03 69.2137 Q1274.16 73.7508 1262.77 73.7508 Q1258.48 73.7508 1253.62 72.7785 Q1248.8 71.8063 1243.61 69.9024 L1243.61 61.4765 Q1248.59 64.2716 1253.37 65.6895 Q1258.16 67.1073 1262.77 67.1073 Q1269.78 67.1073 1273.59 64.3527 Q1277.4 61.598 1277.4 56.4939 Q1277.4 52.0379 1274.64 49.5264 Q1271.93 47.0148 1265.69 45.759 L1260.71 44.7868 Q1251.55 42.9639 1247.46 39.075 Q1243.37 35.1862 1243.37 28.2591 Q1243.37 20.2383 1249 15.6203 Q1254.67 11.0023 1264.6 11.0023 Q1268.85 11.0023 1273.26 11.7719 Q1277.68 12.5416 1282.3 14.0809 Z" fill="#000000" fill-rule="evenodd" fill-opacity="1" /><path clip-path="url(#clip000)" d="M1305.75 14.324 L1305.75 27.2059 L1321.11 27.2059 L1321.11 32.9987 L1305.75 32.9987 L1305.75 57.6282 Q1305.75 63.1779 1307.25 64.7578 Q1308.79 66.3376 1313.45 66.3376 L1321.11 66.3376 L1321.11 72.576 L1313.45 72.576 Q1304.82 72.576 1301.54 69.3758 Q1298.26 66.1351 1298.26 57.6282 L1298.26 32.9987 L1292.79 32.9987 L1292.79 27.2059 L1298.26 27.2059 L1298.26 14.324 L1305.75 14.324 Z" fill="#000000" fill-rule="evenodd" fill-opacity="1" /><path clip-path="url(#clip000)" d="M1351.53 49.7694 Q1342.49 49.7694 1339.01 51.8354 Q1335.53 53.9013 1335.53 58.8839 Q1335.53 62.8538 1338.12 65.2034 Q1340.75 67.5124 1345.25 67.5124 Q1351.45 67.5124 1355.17 63.1374 Q1358.94 58.7219 1358.94 51.4303 L1358.94 49.7694 L1351.53 49.7694 M1366.4 46.6907 L1366.4 72.576 L1358.94 72.576 L1358.94 65.6895 Q1356.39 69.8214 1352.58 71.8063 Q1348.77 73.7508 1343.26 73.7508 Q1336.3 73.7508 1332.17 69.8619 Q1328.07 65.9325 1328.07 59.3701 Q1328.07 51.7138 1333.18 47.825 Q1338.32 43.9361 1348.49 43.9361 L1358.94 43.9361 L1358.94 43.2069 Q1358.94 38.0623 1355.54 35.2672 Q1352.18 32.4315 1346.06 32.4315 Q1342.17 32.4315 1338.48 33.3632 Q1334.8 34.295 1331.4 36.1584 L1331.4 29.2718 Q1335.49 27.692 1339.34 26.9223 Q1343.18 26.1121 1346.83 26.1121 Q1356.67 26.1121 1361.53 31.2163 Q1366.4 36.3204 1366.4 46.6907 Z" fill="#000000" fill-rule="evenodd" fill-opacity="1" /><path clip-path="url(#clip000)" d="M1389.12 14.324 L1389.12 27.2059 L1404.47 27.2059 L1404.47 32.9987 L1389.12 32.9987 L1389.12 57.6282 Q1389.12 63.1779 1390.62 64.7578 Q1392.16 66.3376 1396.82 66.3376 L1404.47 66.3376 L1404.47 72.576 L1396.82 72.576 Q1388.19 72.576 1384.91 69.3758 Q1381.63 66.1351 1381.63 57.6282 L1381.63 32.9987 L1376.16 32.9987 L1376.16 27.2059 L1381.63 27.2059 L1381.63 14.324 L1389.12 14.324 Z" fill="#000000" fill-rule="evenodd" fill-opacity="1" /><path clip-path="url(#clip000)" d="M1414.28 27.2059 L1421.73 27.2059 L1421.73 72.576 L1414.28 72.576 L1414.28 27.2059 M1414.28 9.54393 L1421.73 9.54393 L1421.73 18.9825 L1414.28 18.9825 L1414.28 9.54393 Z" fill="#000000" fill-rule="evenodd" fill-opacity="1" /><path clip-path="url(#clip000)" d="M1466.25 28.5427 L1466.25 35.5912 Q1463.09 33.9709 1459.69 33.1607 Q1456.28 32.3505 1452.64 32.3505 Q1447.09 32.3505 1444.29 34.0519 Q1441.54 35.7533 1441.54 39.156 Q1441.54 41.7486 1443.52 43.2475 Q1445.51 44.7058 1451.5 46.0426 L1454.06 46.6097 Q1462 48.3111 1465.32 51.4303 Q1468.68 54.509 1468.68 60.0587 Q1468.68 66.3781 1463.66 70.0644 Q1458.67 73.7508 1449.92 73.7508 Q1446.28 73.7508 1442.31 73.0216 Q1438.38 72.3329 1434 70.9151 L1434 63.2184 Q1438.14 65.3654 1442.15 66.4591 Q1446.16 67.5124 1450.09 67.5124 Q1455.35 67.5124 1458.19 65.73 Q1461.02 63.9071 1461.02 60.6258 Q1461.02 57.5877 1458.96 55.9673 Q1456.93 54.3469 1450.01 52.8481 L1447.41 52.2405 Q1440.49 50.7821 1437.41 47.7845 Q1434.33 44.7463 1434.33 39.4801 Q1434.33 33.0797 1438.87 29.5959 Q1443.4 26.1121 1451.75 26.1121 Q1455.88 26.1121 1459.53 26.7198 Q1463.17 27.3274 1466.25 28.5427 Z" fill="#000000" fill-rule="evenodd" fill-opacity="1" /><path clip-path="url(#clip000)" d="M1487.92 14.324 L1487.92 27.2059 L1503.28 27.2059 L1503.28 32.9987 L1487.92 32.9987 L1487.92 57.6282 Q1487.92 63.1779 1489.42 64.7578 Q1490.96 66.3376 1495.62 66.3376 L1503.28 66.3376 L1503.28 72.576 L1495.62 72.576 Q1486.99 72.576 1483.71 69.3758 Q1480.43 66.1351 1480.43 57.6282 L1480.43 32.9987 L1474.96 32.9987 L1474.96 27.2059 L1480.43 27.2059 L1480.43 14.324 L1487.92 14.324 Z" fill="#000000" fill-rule="evenodd" fill-opacity="1" /><path clip-path="url(#clip000)" d="M1513.08 27.2059 L1520.53 27.2059 L1520.53 72.576 L1513.08 72.576 L1513.08 27.2059 M1513.08 9.54393 L1520.53 9.54393 L1520.53 18.9825 L1513.08 18.9825 L1513.08 9.54393 Z" fill="#000000" fill-rule="evenodd" fill-opacity="1" /><path clip-path="url(#clip000)" d="M1568.78 28.9478 L1568.78 35.9153 Q1565.62 34.1734 1562.42 33.3227 Q1559.26 32.4315 1556.02 32.4315 Q1548.77 32.4315 1544.76 37.0496 Q1540.75 41.6271 1540.75 49.9314 Q1540.75 58.2358 1544.76 62.8538 Q1548.77 67.4314 1556.02 67.4314 Q1559.26 67.4314 1562.42 66.5807 Q1565.62 65.6895 1568.78 63.9476 L1568.78 70.8341 Q1565.66 72.2924 1562.3 73.0216 Q1558.98 73.7508 1555.21 73.7508 Q1544.96 73.7508 1538.92 67.3098 Q1532.89 60.8689 1532.89 49.9314 Q1532.89 38.832 1538.96 32.472 Q1545.08 26.1121 1555.69 26.1121 Q1559.14 26.1121 1562.42 26.8413 Q1565.7 27.5299 1568.78 28.9478 Z" fill="#000000" fill-rule="evenodd" fill-opacity="1" /><path clip-path="url(#clip000)" d="M1602.36 49.7694 Q1593.33 49.7694 1589.84 51.8354 Q1586.36 53.9013 1586.36 58.8839 Q1586.36 62.8538 1588.95 65.2034 Q1591.58 67.5124 1596.08 67.5124 Q1602.28 67.5124 1606.01 63.1374 Q1609.77 58.7219 1609.77 51.4303 L1609.77 49.7694 L1602.36 49.7694 M1617.23 46.6907 L1617.23 72.576 L1609.77 72.576 L1609.77 65.6895 Q1607.22 69.8214 1603.41 71.8063 Q1599.61 73.7508 1594.1 73.7508 Q1587.13 73.7508 1583 69.8619 Q1578.91 65.9325 1578.91 59.3701 Q1578.91 51.7138 1584.01 47.825 Q1589.15 43.9361 1599.32 43.9361 L1609.77 43.9361 L1609.77 43.2069 Q1609.77 38.0623 1606.37 35.2672 Q1603.01 32.4315 1596.89 32.4315 Q1593 32.4315 1589.32 33.3632 Q1585.63 34.295 1582.23 36.1584 L1582.23 29.2718 Q1586.32 27.692 1590.17 26.9223 Q1594.02 26.1121 1597.66 26.1121 Q1607.51 26.1121 1612.37 31.2163 Q1617.23 36.3204 1617.23 46.6907 Z" fill="#000000" fill-rule="evenodd" fill-opacity="1" /><path clip-path="url(#clip000)" d="M1632.58 9.54393 L1640.03 9.54393 L1640.03 72.576 L1632.58 72.576 L1632.58 9.54393 Z" fill="#000000" fill-rule="evenodd" fill-opacity="1" /><path clip-path="url(#clip000)" d="M1682.33 12.096 L1694.52 12.096 L1709.95 53.2532 L1725.47 12.096 L1737.66 12.096 L1737.66 72.576 L1729.68 72.576 L1729.68 19.4686 L1714.08 60.9499 L1705.86 60.9499 L1690.27 19.4686 L1690.27 72.576 L1682.33 72.576 L1682.33 12.096 Z" fill="#000000" fill-rule="evenodd" fill-opacity="1" /><path clip-path="url(#clip000)" d="M1771.16 32.4315 Q1765.17 32.4315 1761.68 37.1306 Q1758.2 41.7891 1758.2 49.9314 Q1758.2 58.0738 1761.64 62.7728 Q1765.13 67.4314 1771.16 67.4314 Q1777.12 67.4314 1780.6 62.7323 Q1784.08 58.0333 1784.08 49.9314 Q1784.08 41.8701 1780.6 37.1711 Q1777.12 32.4315 1771.16 32.4315 M1771.16 26.1121 Q1780.88 26.1121 1786.43 32.4315 Q1791.98 38.7509 1791.98 49.9314 Q1791.98 61.0714 1786.43 67.4314 Q1780.88 73.7508 1771.16 73.7508 Q1761.4 73.7508 1755.85 67.4314 Q1750.34 61.0714 1750.34 49.9314 Q1750.34 38.7509 1755.85 32.4315 Q1761.4 26.1121 1771.16 26.1121 Z" fill="#000000" fill-rule="evenodd" fill-opacity="1" /><path clip-path="url(#clip000)" d="M1834.19 34.0924 L1834.19 9.54393 L1841.65 9.54393 L1841.65 72.576 L1834.19 72.576 L1834.19 65.7705 Q1831.84 69.8214 1828.24 71.8063 Q1824.67 73.7508 1819.65 73.7508 Q1811.43 73.7508 1806.24 67.1883 Q1801.1 60.6258 1801.1 49.9314 Q1801.1 39.2371 1806.24 32.6746 Q1811.43 26.1121 1819.65 26.1121 Q1824.67 26.1121 1828.24 28.0971 Q1831.84 30.0415 1834.19 34.0924 M1808.79 49.9314 Q1808.79 58.1548 1812.16 62.8538 Q1815.56 67.5124 1821.47 67.5124 Q1827.39 67.5124 1830.79 62.8538 Q1834.19 58.1548 1834.19 49.9314 Q1834.19 41.7081 1830.79 37.0496 Q1827.39 32.3505 1821.47 32.3505 Q1815.56 32.3505 1812.16 37.0496 Q1808.79 41.7081 1808.79 49.9314 Z" fill="#000000" fill-rule="evenodd" fill-opacity="1" /><path clip-path="url(#clip000)" d="M1895.81 48.0275 L1895.81 51.6733 L1861.54 51.6733 Q1862.02 59.3701 1866.16 63.421 Q1870.33 67.4314 1877.74 67.4314 Q1882.03 67.4314 1886.05 66.3781 Q1890.1 65.3249 1894.07 63.2184 L1894.07 70.267 Q1890.06 71.9684 1885.84 72.8596 Q1881.63 73.7508 1877.3 73.7508 Q1866.44 73.7508 1860.08 67.4314 Q1853.76 61.1119 1853.76 50.3365 Q1853.76 39.1965 1859.75 32.6746 Q1865.79 26.1121 1876 26.1121 Q1885.15 26.1121 1890.46 32.0264 Q1895.81 37.9003 1895.81 48.0275 M1888.35 45.84 Q1888.27 39.7232 1884.91 36.0774 Q1881.59 32.4315 1876.08 32.4315 Q1869.84 32.4315 1866.07 35.9558 Q1862.35 39.4801 1861.78 45.8805 L1888.35 45.84 Z" fill="#000000" fill-rule="evenodd" fill-opacity="1" /><path clip-path="url(#clip000)" d="M1908.04 9.54393 L1915.5 9.54393 L1915.5 72.576 L1908.04 72.576 L1908.04 9.54393 Z" fill="#000000" fill-rule="evenodd" fill-opacity="1" /><polyline clip-path="url(#clip002)" style="stroke:#009af9; stroke-linecap:round; stroke-linejoin:round; stroke-width:4; stroke-opacity:1; fill:none" points="768.125,1447.87 768.125,1370.72 793.52,1370.72 793.52,1293.57 818.914,1293.57 818.914,1332.15 844.309,1332.15 844.309,1255 869.704,1255 869.704,1126.42 895.099,1126.42 895.099,1139.27 920.493,1139.27 920.493,1100.7 945.888,1100.7 945.888,856.393 971.283,856.393 971.283,959.259 996.678,959.259 996.678,946.401 1022.07,946.401 1022.07,933.543 1047.47,933.543 1047.47,972.117 1072.86,972.117 1072.86,1010.69 1098.26,1010.69 1123.65,1010.69 1123.65,1100.7 1149.05,1100.7 1149.05,1190.71 1174.44,1190.71 1174.44,1229.28 1199.84,1229.28 1199.84,1293.57 1225.23,1293.57 1225.23,1357.87 1250.62,1357.87 1250.62,1332.15 1276.02,1332.15 1276.02,1409.3 1301.41,1409.3 1301.41,1396.44 1326.81,1396.44 1326.81,1422.16 1352.2,1422.16 1377.6,1422.16 1377.6,1435.01 1402.99,1435.01 1428.39,1435.01 1428.39,1422.16 1453.78,1422.16 1453.78,1383.58 1479.18,1383.58 1479.18,1345.01 1504.57,1345.01 1504.57,1293.57 1529.97,1293.57 1529.97,1267.86 1555.36,1267.86 1555.36,1203.57 1580.76,1203.57 1580.76,1113.56 1606.15,1113.56 1606.15,1062.13 1631.55,1062.13 1631.55,843.535 1656.94,843.535 1656.94,637.803 1682.34,637.803 1682.34,779.243 1707.73,779.243 1707.73,162.047 1733.12,162.047 1733.12,534.937 1758.52,534.937 1758.52,457.787 1783.91,457.787 1783.91,650.661 1809.31,650.661 1809.31,470.645 1834.7,470.645 1834.7,547.795 1860.1,547.795 1860.1,676.377 1885.49,676.377 1885.49,843.535 1910.89,843.535 1910.89,856.393 1936.28,856.393 1936.28,894.968 1961.68,894.968 1961.68,1319.29 1987.07,1319.29 1987.07,1190.71 2012.47,1190.71 2012.47,1255 2037.86,1255 2037.86,1357.87 2063.26,1357.87 2063.26,1345.01 2088.65,1345.01 2088.65,1383.58 2114.05,1383.58 2114.05,1447.87 2139.44,1447.87 2139.44,1435.01 2164.83,1435.01 2164.83,1422.16 2190.23,1422.16 2190.23,1447.87 2215.62,1447.87 2241.02,1447.87 2266.41,1447.87 2291.81,1447.87 "/>
<polyline clip-path="url(#clip002)" style="stroke:#e26f46; stroke-linecap:round; stroke-linejoin:round; stroke-width:4; stroke-opacity:1; fill:none" points="260.231,1447.87 262.77,1447.87 265.309,1447.87 267.849,1447.87 270.388,1447.87 272.928,1447.87 275.467,1447.87 278.007,1447.87 280.546,1447.87 283.086,1447.87 285.625,1447.87 288.165,1447.87 290.704,1447.87 293.244,1447.87 295.783,1447.87 298.323,1447.87 300.862,1447.87 303.402,1447.87 305.941,1447.87 308.481,1447.87 311.02,1447.87 313.559,1447.87 316.099,1447.87 318.638,1447.87 321.178,1447.87 323.717,1447.87 326.257,1447.87 328.796,1447.87 331.336,1447.87 333.875,1447.87 336.415,1447.87 338.954,1447.87 341.494,1447.87 344.033,1447.87 346.573,1447.87 349.112,1447.87 351.652,1447.87 354.191,1447.87 356.73,1447.87 359.27,1447.87 361.809,1447.87 364.349,1447.87 366.888,1447.87 369.428,1447.87 371.967,1447.87 374.507,1447.87 377.046,1447.87 379.586,1447.87 382.125,1447.87 384.665,1447.87 387.204,1447.87 389.744,1447.87 392.283,1447.87 394.823,1447.87 397.362,1447.87 399.902,1447.87 402.441,1447.87 404.98,1447.87 407.52,1447.87 410.059,1447.87 412.599,1447.87 415.138,1447.87 417.678,1447.87 420.217,1447.87 422.757,1447.87 425.296,1447.86 427.836,1447.86 430.375,1447.86 432.915,1447.86 435.454,1447.86 437.994,1447.86 440.533,1447.86 443.073,1447.86 445.612,1447.86 448.151,1447.85 450.691,1447.85 453.23,1447.85 455.77,1447.85 458.309,1447.85 460.849,1447.84 463.388,1447.84 465.928,1447.84 468.467,1447.83 471.007,1447.83 473.546,1447.83 476.086,1447.82 478.625,1447.82 481.165,1447.81 483.704,1447.81 486.244,1447.8 488.783,1447.8 491.323,1447.79 493.862,1447.78 496.401,1447.78 498.941,1447.77 501.48,1447.76 504.02,1447.75 506.559,1447.74 509.099,1447.73 511.638,1447.71 514.178,1447.7 516.717,1447.69 519.257,1447.67 521.796,1447.65 524.336,1447.64 526.875,1447.62 529.415,1447.6 531.954,1447.57 534.494,1447.55 537.033,1447.53 539.573,1447.5 542.112,1447.47 544.651,1447.44 547.191,1447.4 549.73,1447.37 552.27,1447.33 554.809,1447.29 557.349,1447.24 559.888,1447.19 562.428,1447.14 564.967,1447.09 567.507,1447.03 570.046,1446.97 572.586,1446.9 575.125,1446.83 577.665,1446.75 580.204,1446.67 582.744,1446.58 585.283,1446.49 587.822,1446.39 590.362,1446.29 592.901,1446.18 595.441,1446.06 597.98,1445.93 600.52,1445.8 603.059,1445.66 605.599,1445.51 608.138,1445.35 610.678,1445.18 613.217,1445 615.757,1444.81 618.296,1444.61 620.836,1444.39 623.375,1444.17 625.915,1443.93 628.454,1443.67 630.994,1443.4 633.533,1443.12 636.072,1442.82 638.612,1442.51 641.151,1442.17 643.691,1441.82 646.23,1441.45 648.77,1441.06 651.309,1440.65 653.849,1440.22 656.388,1439.76 658.928,1439.28 661.467,1438.78 664.007,1438.25 666.546,1437.7 669.086,1437.11 671.625,1436.5 674.165,1435.85 676.704,1435.18 679.244,1434.47 681.783,1433.73 684.322,1432.96 686.862,1432.15 689.401,1431.3 691.941,1430.41 694.48,1429.48 697.02,1428.51 699.559,1427.5 702.099,1426.44 704.638,1425.33 707.178,1424.18 709.717,1422.98 712.257,1421.73 714.796,1420.43 717.336,1419.08 719.875,1417.67 722.415,1416.2 724.954,1414.68 727.493,1413.09 730.033,1411.45 732.572,1409.74 735.112,1407.97 737.651,1406.13 740.191,1404.23 742.73,1402.26 745.27,1400.22 747.809,1398.1 750.349,1395.92 752.888,1393.65 755.428,1391.32 757.967,1388.9 760.507,1386.41 763.046,1383.84 765.586,1381.19 768.125,1378.45 770.665,1375.63 773.204,1372.73 775.743,1369.74 778.283,1366.66 780.822,1363.5 783.362,1360.25 785.901,1356.91 788.441,1353.48 790.98,1349.97 793.52,1346.36 796.059,1342.66 798.599,1338.87 801.138,1334.98 803.678,1331.01 806.217,1326.94 808.757,1322.79 811.296,1318.54 813.836,1314.2 816.375,1309.77 818.914,1305.25 821.454,1300.64 823.993,1295.94 826.533,1291.16 829.072,1286.29 831.612,1281.34 834.151,1276.3 836.691,1271.18 839.23,1265.98 841.77,1260.7 844.309,1255.35 846.849,1249.92 849.388,1244.42 851.928,1238.86 854.467,1233.22 857.007,1227.52 859.546,1221.76 862.086,1215.95 864.625,1210.08 867.164,1204.15 869.704,1198.18 872.243,1192.17 874.783,1186.12 877.322,1180.03 879.862,1173.9 882.401,1167.75 884.941,1161.58 887.48,1155.39 890.02,1149.18 892.559,1142.96 895.099,1136.74 897.638,1130.52 900.178,1124.3 902.717,1118.1 905.257,1111.9 907.796,1105.73 910.336,1099.59 912.875,1093.48 915.414,1087.4 917.954,1081.37 920.493,1075.38 923.033,1069.45 925.572,1063.58 928.112,1057.77 930.651,1052.03 933.191,1046.37 935.73,1040.79 938.27,1035.3 940.809,1029.9 943.349,1024.6 945.888,1019.4 948.428,1014.32 950.967,1009.35 953.507,1004.5 956.046,999.772 958.585,995.178 961.125,990.72 963.664,986.403 966.204,982.231 968.743,978.209 971.283,974.342 973.822,970.634 976.362,967.089 978.901,963.712 981.441,960.506 983.98,957.475 986.52,954.622 989.059,951.951 991.599,949.465 994.138,947.168 996.678,945.06 999.217,943.146 1001.76,941.427 1004.3,939.905 1006.84,938.583 1009.37,937.461 1011.91,936.542 1014.45,935.825 1016.99,935.313 1019.53,935.005 1022.07,934.903 1024.61,935.005 1027.15,935.313 1029.69,935.825 1032.23,936.542 1034.77,937.461 1037.31,938.583 1039.85,939.905 1042.39,941.427 1044.93,943.146 1047.47,945.06 1050.01,947.167 1052.55,949.465 1055.09,951.951 1057.62,954.622 1060.16,957.475 1062.7,960.506 1065.24,963.712 1067.78,967.089 1070.32,970.634 1072.86,974.342 1075.4,978.209 1077.94,982.23 1080.48,986.402 1083.02,990.72 1085.56,995.178 1088.1,999.772 1090.64,1004.5 1093.18,1009.35 1095.72,1014.32 1098.26,1019.4 1100.8,1024.6 1103.34,1029.9 1105.87,1035.3 1108.41,1040.79 1110.95,1046.37 1113.49,1052.03 1116.03,1057.77 1118.57,1063.57 1121.11,1069.45 1123.65,1075.38 1126.19,1081.36 1128.73,1087.4 1131.27,1093.47 1133.81,1099.59 1136.35,1105.73 1138.89,1111.9 1141.43,1118.09 1143.97,1124.3 1146.51,1130.52 1149.05,1136.74 1151.59,1142.96 1154.12,1149.17 1156.66,1155.38 1159.2,1161.57 1161.74,1167.75 1164.28,1173.9 1166.82,1180.02 1169.36,1186.11 1171.9,1192.16 1174.44,1198.17 1176.98,1204.14 1179.52,1210.06 1182.06,1215.93 1184.6,1221.75 1187.14,1227.51 1189.68,1233.2 1192.22,1238.84 1194.76,1244.4 1197.3,1249.9 1199.84,1255.32 1202.37,1260.67 1204.91,1265.95 1207.45,1271.14 1209.99,1276.26 1212.53,1281.29 1215.07,1286.25 1217.61,1291.11 1220.15,1295.89 1222.69,1300.58 1225.23,1305.18 1227.77,1309.7 1230.31,1314.12 1232.85,1318.45 1235.39,1322.69 1237.93,1326.84 1240.47,1330.9 1243.01,1334.86 1245.55,1338.74 1248.09,1342.52 1250.62,1346.21 1253.16,1349.8 1255.7,1353.31 1258.24,1356.72 1260.78,1360.04 1263.32,1363.27 1265.86,1366.42 1268.4,1369.47 1270.94,1372.44 1273.48,1375.31 1276.02,1378.11 1278.56,1380.81 1281.1,1383.44 1283.64,1385.97 1286.18,1388.43 1288.72,1390.81 1291.26,1393.1 1293.8,1395.32 1296.34,1397.46 1298.87,1399.52 1301.41,1401.51 1303.95,1403.42 1306.49,1405.26 1309.03,1407.03 1311.57,1408.73 1314.11,1410.36 1316.65,1411.92 1319.19,1413.41 1321.73,1414.84 1324.27,1416.2 1326.81,1417.5 1329.35,1418.74 1331.89,1419.92 1334.43,1421.03 1336.97,1422.09 1339.51,1423.09 1342.05,1424.03 1344.59,1424.92 1347.12,1425.75 1349.66,1426.52 1352.2,1427.24 1354.74,1427.9 1357.28,1428.52 1359.82,1429.08 1362.36,1429.59 1364.9,1430.04 1367.44,1430.45 1369.98,1430.8 1372.52,1431.11 1375.06,1431.36 1377.6,1431.56 1380.14,1431.72 1382.68,1431.82 1385.22,1431.87 1387.76,1431.87 1390.3,1431.82 1392.84,1431.72 1395.37,1431.56 1397.91,1431.35 1400.45,1431.09 1402.99,1430.78 1405.53,1430.41 1408.07,1429.98 1410.61,1429.5 1413.15,1428.96 1415.69,1428.36 1418.23,1427.71 1420.77,1426.99 1423.31,1426.21 1425.85,1425.36 1428.39,1424.45 1430.93,1423.47 1433.47,1422.43 1436.01,1421.31 1438.55,1420.12 1441.09,1418.86 1443.62,1417.52 1446.16,1416.1 1448.7,1414.6 1451.24,1413.02 1453.78,1411.36 1456.32,1409.61 1458.86,1407.76 1461.4,1405.83 1463.94,1403.8 1466.48,1401.67 1469.02,1399.45 1471.56,1397.12 1474.1,1394.69 1476.64,1392.15 1479.18,1389.5 1481.72,1386.73 1484.26,1383.85 1486.8,1380.85 1489.34,1377.73 1491.87,1374.48 1494.41,1371.1 1496.95,1367.6 1499.49,1363.96 1502.03,1360.18 1504.57,1356.27 1507.11,1352.21 1509.65,1348.01 1512.19,1343.66 1514.73,1339.16 1517.27,1334.51 1519.81,1329.7 1522.35,1324.73 1524.89,1319.6 1527.43,1314.31 1529.97,1308.86 1532.51,1303.23 1535.05,1297.44 1537.59,1291.47 1540.12,1285.33 1542.66,1279.02 1545.2,1272.53 1547.74,1265.86 1550.28,1259.01 1552.82,1251.98 1555.36,1244.76 1557.9,1237.37 1560.44,1229.79 1562.98,1222.03 1565.52,1214.09 1568.06,1205.96 1570.6,1197.65 1573.14,1189.16 1575.68,1180.48 1578.22,1171.63 1580.76,1162.59 1583.3,1153.38 1585.84,1143.99 1588.37,1134.42 1590.91,1124.68 1593.45,1114.78 1595.99,1104.71 1598.53,1094.47 1601.07,1084.07 1603.61,1073.52 1606.15,1062.81 1608.69,1051.96 1611.23,1040.96 1613.77,1029.83 1616.31,1018.56 1618.85,1007.16 1621.39,995.647 1623.93,984.014 1626.47,972.273 1629.01,960.428 1631.55,948.489 1634.09,936.462 1636.62,924.354 1639.16,912.174 1641.7,899.93 1644.24,887.63 1646.78,875.283 1649.32,862.898 1651.86,850.484 1654.4,838.05 1656.94,825.607 1659.48,813.163 1662.02,800.73 1664.56,788.317 1667.1,775.934 1669.64,763.593 1672.18,751.304 1674.72,739.078 1677.26,726.925 1679.8,714.858 1682.34,702.886 1684.87,691.022 1687.41,679.277 1689.95,667.661 1692.49,656.186 1695.03,644.864 1697.57,633.706 1700.11,622.723 1702.65,611.926 1705.19,601.326 1707.73,590.935 1710.27,580.763 1712.81,570.822 1715.35,561.121 1717.89,551.671 1720.43,542.483 1722.97,533.567 1725.51,524.932 1728.05,516.588 1730.59,508.544 1733.12,500.81 1735.66,493.394 1738.2,486.305 1740.74,479.55 1743.28,473.138 1745.82,467.076 1748.36,461.371 1750.9,456.03 1753.44,451.058 1755.98,446.462 1758.52,442.247 1761.06,438.419 1763.6,434.981 1766.14,431.937 1768.68,429.292 1771.22,427.049 1773.76,425.21 1776.3,423.777 1778.84,422.753 1781.37,422.137 1783.91,421.932 1786.45,422.137 1788.99,422.753 1791.53,423.777 1794.07,425.21 1796.61,427.049 1799.15,429.292 1801.69,431.937 1804.23,434.981 1806.77,438.419 1809.31,442.247 1811.85,446.462 1814.39,451.058 1816.93,456.03 1819.47,461.371 1822.01,467.076 1824.55,473.138 1827.09,479.55 1829.62,486.305 1832.16,493.394 1834.7,500.81 1837.24,508.544 1839.78,516.588 1842.32,524.932 1844.86,533.567 1847.4,542.483 1849.94,551.671 1852.48,561.121 1855.02,570.822 1857.56,580.763 1860.1,590.935 1862.64,601.326 1865.18,611.926 1867.72,622.723 1870.26,633.706 1872.8,644.865 1875.34,656.187 1877.87,667.661 1880.41,679.277 1882.95,691.023 1885.49,702.887 1888.03,714.859 1890.57,726.926 1893.11,739.079 1895.65,751.305 1898.19,763.594 1900.73,775.936 1903.27,788.318 1905.81,800.731 1908.35,813.165 1910.89,825.609 1913.43,838.052 1915.97,850.486 1918.51,862.9 1921.05,875.286 1923.59,887.633 1926.12,899.933 1928.66,912.178 1931.2,924.358 1933.74,936.466 1936.28,948.494 1938.82,960.434 1941.36,972.279 1943.9,984.021 1946.44,995.655 1948.98,1007.17 1951.52,1018.57 1954.06,1029.84 1956.6,1040.97 1959.14,1051.97 1961.68,1062.83 1964.22,1073.53 1966.76,1084.09 1969.3,1094.49 1971.84,1104.72 1974.37,1114.8 1976.91,1124.71 1979.45,1134.45 1981.99,1144.01 1984.53,1153.41 1987.07,1162.62 1989.61,1171.66 1992.15,1180.52 1994.69,1189.2 1997.23,1197.7 1999.77,1206.01 2002.31,1214.14 2004.85,1222.09 2007.39,1229.86 2009.93,1237.44 2012.47,1244.84 2015.01,1252.06 2017.55,1259.1 2020.09,1265.95 2022.62,1272.63 2025.16,1279.13 2027.7,1285.46 2030.24,1291.61 2032.78,1297.58 2035.32,1303.39 2037.86,1309.03 2040.4,1314.5 2042.94,1319.8 2045.48,1324.95 2048.02,1329.93 2050.56,1334.76 2053.1,1339.44 2055.64,1343.96 2058.18,1348.33 2060.72,1352.56 2063.26,1356.64 2065.8,1360.59 2068.33,1364.4 2070.87,1368.07 2073.41,1371.61 2075.95,1375.03 2078.49,1378.31 2081.03,1381.48 2083.57,1384.53 2086.11,1387.46 2088.65,1390.28 2091.19,1392.99 2093.73,1395.6 2096.27,1398.1 2098.81,1400.49 2101.35,1402.8 2103.89,1405 2106.43,1407.12 2108.97,1409.14 2111.51,1411.09 2114.05,1412.94 2116.58,1414.72 2119.12,1416.42 2121.66,1418.04 2124.2,1419.59 2126.74,1421.07 2129.28,1422.49 2131.82,1423.84 2134.36,1425.12 2136.9,1426.35 2139.44,1427.52 2141.98,1428.63 2144.52,1429.69 2147.06,1430.7 2149.6,1431.65 2152.14,1432.57 2154.68,1433.43 2157.22,1434.25 2159.76,1435.03 2162.3,1435.77 2164.83,1436.48 2167.37,1437.14 2169.91,1437.77 2172.45,1438.37 2174.99,1438.94 2177.53,1439.47 2180.07,1439.98 2182.61,1440.46 2185.15,1440.91 2187.69,1441.34 2190.23,1441.74 2192.77,1442.12 2195.31,1442.48 2197.85,1442.82 2200.39,1443.14 2202.93,1443.44 2205.47,1443.73 2208.01,1443.99 2210.55,1444.25 2213.08,1444.48 2215.62,1444.7 2218.16,1444.91 2220.7,1445.11 2223.24,1445.29 2225.78,1445.47 2228.32,1445.63 2230.86,1445.78 2233.4,1445.92 2235.94,1446.06 2238.48,1446.18 2241.02,1446.3 2243.56,1446.41 2246.1,1446.51 2248.64,1446.61 2251.18,1446.7 2253.72,1446.78 2256.26,1446.86 2258.8,1446.93 2261.33,1447 2263.87,1447.06 2266.41,1447.12 2268.95,1447.18 2271.49,1447.23 2274.03,1447.28 2276.57,1447.32 2279.11,1447.36 2281.65,1447.4 2284.19,1447.44 2286.73,1447.47 2289.27,1447.5 2291.81,1447.53 "/>
<path clip-path="url(#clip000)" d="M271.066 324.425 L602.685 324.425 L602.685 168.905 L271.066 168.905  Z" fill="#ffffff" fill-rule="evenodd" fill-opacity="1"/>
<polyline clip-path="url(#clip000)" style="stroke:#000000; stroke-linecap:round; stroke-linejoin:round; stroke-width:4; stroke-opacity:1; fill:none" points="271.066,324.425 602.685,324.425 602.685,168.905 271.066,168.905 271.066,324.425 "/>
<polyline clip-path="url(#clip000)" style="stroke:#009af9; stroke-linecap:round; stroke-linejoin:round; stroke-width:4; stroke-opacity:1; fill:none" points="294.993,220.745 438.558,220.745 "/>
<path clip-path="url(#clip000)" d="M467.161 207.307 L467.161 234.182 L472.809 234.182 Q479.962 234.182 483.272 230.941 Q486.606 227.701 486.606 220.71 Q486.606 213.766 483.272 210.548 Q479.962 207.307 472.809 207.307 L467.161 207.307 M462.485 203.465 L472.092 203.465 Q482.138 203.465 486.837 207.654 Q491.536 211.821 491.536 220.71 Q491.536 229.645 486.814 233.835 Q482.092 238.025 472.092 238.025 L462.485 238.025 L462.485 203.465 Z" fill="#000000" fill-rule="evenodd" fill-opacity="1" /><path clip-path="url(#clip000)" d="M510.587 224.992 Q505.425 224.992 503.434 226.173 Q501.444 227.353 501.444 230.201 Q501.444 232.469 502.925 233.812 Q504.43 235.131 506.999 235.131 Q510.541 235.131 512.67 232.631 Q514.823 230.108 514.823 225.941 L514.823 224.992 L510.587 224.992 M519.082 223.233 L519.082 238.025 L514.823 238.025 L514.823 234.089 Q513.365 236.451 511.189 237.585 Q509.013 238.696 505.865 238.696 Q501.883 238.696 499.522 236.474 Q497.184 234.228 497.184 230.478 Q497.184 226.103 500.101 223.881 Q503.041 221.659 508.851 221.659 L514.823 221.659 L514.823 221.242 Q514.823 218.303 512.879 216.705 Q510.957 215.085 507.462 215.085 Q505.24 215.085 503.133 215.617 Q501.027 216.15 499.082 217.215 L499.082 213.279 Q501.42 212.377 503.619 211.937 Q505.819 211.474 507.902 211.474 Q513.527 211.474 516.305 214.391 Q519.082 217.307 519.082 223.233 Z" fill="#000000" fill-rule="evenodd" fill-opacity="1" /><path clip-path="url(#clip000)" d="M532.068 204.738 L532.068 212.099 L540.841 212.099 L540.841 215.409 L532.068 215.409 L532.068 229.483 Q532.068 232.654 532.925 233.557 Q533.804 234.46 536.466 234.46 L540.841 234.46 L540.841 238.025 L536.466 238.025 Q531.536 238.025 529.661 236.196 Q527.786 234.344 527.786 229.483 L527.786 215.409 L524.661 215.409 L524.661 212.099 L527.786 212.099 L527.786 204.738 L532.068 204.738 Z" fill="#000000" fill-rule="evenodd" fill-opacity="1" /><path clip-path="url(#clip000)" d="M558.226 224.992 Q553.064 224.992 551.073 226.173 Q549.082 227.353 549.082 230.201 Q549.082 232.469 550.564 233.812 Q552.068 235.131 554.638 235.131 Q558.179 235.131 560.309 232.631 Q562.462 230.108 562.462 225.941 L562.462 224.992 L558.226 224.992 M566.721 223.233 L566.721 238.025 L562.462 238.025 L562.462 234.089 Q561.003 236.451 558.827 237.585 Q556.652 238.696 553.503 238.696 Q549.522 238.696 547.161 236.474 Q544.823 234.228 544.823 230.478 Q544.823 226.103 547.74 223.881 Q550.679 221.659 556.49 221.659 L562.462 221.659 L562.462 221.242 Q562.462 218.303 560.517 216.705 Q558.596 215.085 555.101 215.085 Q552.878 215.085 550.772 215.617 Q548.666 216.15 546.721 217.215 L546.721 213.279 Q549.059 212.377 551.258 211.937 Q553.457 211.474 555.54 211.474 Q561.165 211.474 563.943 214.391 Q566.721 217.307 566.721 223.233 Z" fill="#000000" fill-rule="evenodd" fill-opacity="1" /><polyline clip-path="url(#clip000)" style="stroke:#e26f46; stroke-linecap:round; stroke-linejoin:round; stroke-width:4; stroke-opacity:1; fill:none" points="294.993,272.585 438.558,272.585 "/>
<path clip-path="url(#clip000)" d="M462.485 255.305 L491.721 255.305 L491.721 259.24 L479.453 259.24 L479.453 289.865 L474.754 289.865 L474.754 259.24 L462.485 259.24 L462.485 255.305 Z" fill="#000000" fill-rule="evenodd" fill-opacity="1" /><path clip-path="url(#clip000)" d="M504.106 267.92 Q503.388 267.504 502.531 267.318 Q501.698 267.11 500.68 267.11 Q497.069 267.11 495.124 269.471 Q493.203 271.809 493.203 276.207 L493.203 289.865 L488.92 289.865 L488.92 263.939 L493.203 263.939 L493.203 267.967 Q494.545 265.606 496.698 264.471 Q498.851 263.314 501.93 263.314 Q502.369 263.314 502.902 263.383 Q503.434 263.43 504.082 263.545 L504.106 267.92 Z" fill="#000000" fill-rule="evenodd" fill-opacity="1" /><path clip-path="url(#clip000)" d="M508.133 279.633 L508.133 263.939 L512.393 263.939 L512.393 279.471 Q512.393 283.152 513.828 285.004 Q515.263 286.832 518.133 286.832 Q521.582 286.832 523.573 284.633 Q525.587 282.434 525.587 278.638 L525.587 263.939 L529.846 263.939 L529.846 289.865 L525.587 289.865 L525.587 285.883 Q524.036 288.244 521.976 289.402 Q519.939 290.536 517.23 290.536 Q512.763 290.536 510.448 287.758 Q508.133 284.98 508.133 279.633 M518.851 263.314 L518.851 263.314 Z" fill="#000000" fill-rule="evenodd" fill-opacity="1" /><path clip-path="url(#clip000)" d="M542.832 256.578 L542.832 263.939 L551.605 263.939 L551.605 267.249 L542.832 267.249 L542.832 281.323 Q542.832 284.494 543.689 285.397 Q544.568 286.3 547.23 286.3 L551.605 286.3 L551.605 289.865 L547.23 289.865 Q542.3 289.865 540.425 288.036 Q538.55 286.184 538.55 281.323 L538.55 267.249 L535.425 267.249 L535.425 263.939 L538.55 263.939 L538.55 256.578 L542.832 256.578 Z" fill="#000000" fill-rule="evenodd" fill-opacity="1" /><path clip-path="url(#clip000)" d="M578.758 274.217 L578.758 289.865 L574.499 289.865 L574.499 274.355 Q574.499 270.675 573.064 268.846 Q571.628 267.018 568.758 267.018 Q565.309 267.018 563.318 269.217 Q561.327 271.416 561.327 275.212 L561.327 289.865 L557.045 289.865 L557.045 253.846 L561.327 253.846 L561.327 267.967 Q562.855 265.629 564.915 264.471 Q566.999 263.314 569.707 263.314 Q574.175 263.314 576.466 266.092 Q578.758 268.846 578.758 274.217 Z" fill="#000000" fill-rule="evenodd" fill-opacity="1" /></svg>
