<?xml version="1.0" encoding="utf-8"?>
<svg xmlns="http://www.w3.org/2000/svg" xmlns:xlink="http://www.w3.org/1999/xlink" width="600" height="400" viewBox="0 0 2400 1600">
<defs>
  <clipPath id="clip580">
    <rect x="0" y="0" width="2400" height="1600"/>
  </clipPath>
</defs>
<path clip-path="url(#clip580)" d="
M0 1600 L2400 1600 L2400 0 L0 0  Z
  " fill="#ffffff" fill-rule="evenodd" fill-opacity="1"/>
<defs>
  <clipPath id="clip581">
    <rect x="480" y="0" width="1681" height="1600"/>
  </clipPath>
</defs>
<path clip-path="url(#clip580)" d="
M172.015 1486.45 L2352.76 1486.45 L2352.76 123.472 L172.015 123.472  Z
  " fill="#ffffff" fill-rule="evenodd" fill-opacity="1"/>
<defs>
  <clipPath id="clip582">
    <rect x="172" y="123" width="2182" height="1364"/>
  </clipPath>
</defs>
<polyline clip-path="url(#clip582)" style="stroke:#000000; stroke-width:2; stroke-opacity:0.1; fill:none" points="
  233.734,1486.45 233.734,123.472 
  "/>
<polyline clip-path="url(#clip582)" style="stroke:#000000; stroke-width:2; stroke-opacity:0.1; fill:none" points="
  576.618,1486.45 576.618,123.472 
  "/>
<polyline clip-path="url(#clip582)" style="stroke:#000000; stroke-width:2; stroke-opacity:0.1; fill:none" points="
  919.502,1486.45 919.502,123.472 
  "/>
<polyline clip-path="url(#clip582)" style="stroke:#000000; stroke-width:2; stroke-opacity:0.1; fill:none" points="
  1262.39,1486.45 1262.39,123.472 
  "/>
<polyline clip-path="url(#clip582)" style="stroke:#000000; stroke-width:2; stroke-opacity:0.1; fill:none" points="
  1605.27,1486.45 1605.27,123.472 
  "/>
<polyline clip-path="url(#clip582)" style="stroke:#000000; stroke-width:2; stroke-opacity:0.1; fill:none" points="
  1948.15,1486.45 1948.15,123.472 
  "/>
<polyline clip-path="url(#clip582)" style="stroke:#000000; stroke-width:2; stroke-opacity:0.1; fill:none" points="
  2291.04,1486.45 2291.04,123.472 
  "/>
<polyline clip-path="url(#clip580)" style="stroke:#000000; stroke-width:4; stroke-opacity:1; fill:none" points="
  172.015,1486.45 2352.76,1486.45 
  "/>
<polyline clip-path="url(#clip580)" style="stroke:#000000; stroke-width:4; stroke-opacity:1; fill:none" points="
  233.734,1486.45 233.734,1470.09 
  "/>
<polyline clip-path="url(#clip580)" style="stroke:#000000; stroke-width:4; stroke-opacity:1; fill:none" points="
  576.618,1486.45 576.618,1470.09 
  "/>
<polyline clip-path="url(#clip580)" style="stroke:#000000; stroke-width:4; stroke-opacity:1; fill:none" points="
  919.502,1486.45 919.502,1470.09 
  "/>
<polyline clip-path="url(#clip580)" style="stroke:#000000; stroke-width:4; stroke-opacity:1; fill:none" points="
  1262.39,1486.45 1262.39,1470.09 
  "/>
<polyline clip-path="url(#clip580)" style="stroke:#000000; stroke-width:4; stroke-opacity:1; fill:none" points="
  1605.27,1486.45 1605.27,1470.09 
  "/>
<polyline clip-path="url(#clip580)" style="stroke:#000000; stroke-width:4; stroke-opacity:1; fill:none" points="
  1948.15,1486.45 1948.15,1470.09 
  "/>
<polyline clip-path="url(#clip580)" style="stroke:#000000; stroke-width:4; stroke-opacity:1; fill:none" points="
  2291.04,1486.45 2291.04,1470.09 
  "/>
<path clip-path="url(#clip580)" d="M 0 0 M203.676 1530.29 L233.352 1530.29 L233.352 1534.23 L203.676 1534.23 L203.676 1530.29 Z" fill="#000000" fill-rule="evenodd" fill-opacity="1" /><path clip-path="url(#clip580)" d="M 0 0 M247.472 1543.18 L263.792 1543.18 L263.792 1547.12 L241.847 1547.12 L241.847 1543.18 Q244.509 1540.43 249.093 1535.8 Q253.699 1531.15 254.88 1529.81 Q257.125 1527.28 258.005 1525.55 Q258.907 1523.79 258.907 1522.1 Q258.907 1519.34 256.963 1517.61 Q255.042 1515.87 251.94 1515.87 Q249.741 1515.87 247.287 1516.63 Q244.857 1517.4 242.079 1518.95 L242.079 1514.23 Q244.903 1513.09 247.357 1512.51 Q249.81 1511.93 251.847 1511.93 Q257.218 1511.93 260.412 1514.62 Q263.606 1517.31 263.606 1521.8 Q263.606 1523.93 262.796 1525.85 Q262.009 1527.74 259.903 1530.34 Q259.324 1531.01 256.222 1534.23 Q253.12 1537.42 247.472 1543.18 Z" fill="#000000" fill-rule="evenodd" fill-opacity="1" /><path clip-path="url(#clip580)" d="M 0 0 M546.375 1530.29 L576.051 1530.29 L576.051 1534.23 L546.375 1534.23 L546.375 1530.29 Z" fill="#000000" fill-rule="evenodd" fill-opacity="1" /><path clip-path="url(#clip580)" d="M 0 0 M586.953 1543.18 L594.592 1543.18 L594.592 1516.82 L586.282 1518.49 L586.282 1514.23 L594.546 1512.56 L599.222 1512.56 L599.222 1543.18 L606.861 1543.18 L606.861 1547.12 L586.953 1547.12 L586.953 1543.18 Z" fill="#000000" fill-rule="evenodd" fill-opacity="1" /><path clip-path="url(#clip580)" d="M 0 0 M919.502 1515.64 Q915.89 1515.64 914.062 1519.2 Q912.256 1522.75 912.256 1529.87 Q912.256 1536.98 914.062 1540.55 Q915.89 1544.09 919.502 1544.09 Q923.136 1544.09 924.941 1540.55 Q926.77 1536.98 926.77 1529.87 Q926.77 1522.75 924.941 1519.2 Q923.136 1515.64 919.502 1515.64 M919.502 1511.93 Q925.312 1511.93 928.367 1516.54 Q931.446 1521.12 931.446 1529.87 Q931.446 1538.6 928.367 1543.21 Q925.312 1547.79 919.502 1547.79 Q913.691 1547.79 910.613 1543.21 Q907.557 1538.6 907.557 1529.87 Q907.557 1521.12 910.613 1516.54 Q913.691 1511.93 919.502 1511.93 Z" fill="#000000" fill-rule="evenodd" fill-opacity="1" /><path clip-path="url(#clip580)" d="M 0 0 M1252.77 1543.18 L1260.41 1543.18 L1260.41 1516.82 L1252.1 1518.49 L1252.1 1514.23 L1260.36 1512.56 L1265.04 1512.56 L1265.04 1543.18 L1272.67 1543.18 L1272.67 1547.12 L1252.77 1547.12 L1252.77 1543.18 Z" fill="#000000" fill-rule="evenodd" fill-opacity="1" /><path clip-path="url(#clip580)" d="M 0 0 M1599.92 1543.18 L1616.24 1543.18 L1616.24 1547.12 L1594.3 1547.12 L1594.3 1543.18 Q1596.96 1540.43 1601.54 1535.8 Q1606.15 1531.15 1607.33 1529.81 Q1609.57 1527.28 1610.45 1525.55 Q1611.36 1523.79 1611.36 1522.1 Q1611.36 1519.34 1609.41 1517.61 Q1607.49 1515.87 1604.39 1515.87 Q1602.19 1515.87 1599.74 1516.63 Q1597.31 1517.4 1594.53 1518.95 L1594.53 1514.23 Q1597.35 1513.09 1599.81 1512.51 Q1602.26 1511.93 1604.3 1511.93 Q1609.67 1511.93 1612.86 1514.62 Q1616.06 1517.31 1616.06 1521.8 Q1616.06 1523.93 1615.25 1525.85 Q1614.46 1527.74 1612.35 1530.34 Q1611.77 1531.01 1608.67 1534.23 Q1605.57 1537.42 1599.92 1543.18 Z" fill="#000000" fill-rule="evenodd" fill-opacity="1" /><path clip-path="url(#clip580)" d="M 0 0 M1952.4 1528.49 Q1955.76 1529.2 1957.63 1531.47 Q1959.53 1533.74 1959.53 1537.07 Q1959.53 1542.19 1956.01 1544.99 Q1952.49 1547.79 1946.01 1547.79 Q1943.84 1547.79 1941.52 1547.35 Q1939.23 1546.93 1936.78 1546.08 L1936.78 1541.56 Q1938.72 1542.7 1941.03 1543.28 Q1943.35 1543.86 1945.87 1543.86 Q1950.27 1543.86 1952.56 1542.12 Q1954.88 1540.38 1954.88 1537.07 Q1954.88 1534.02 1952.72 1532.31 Q1950.6 1530.57 1946.78 1530.57 L1942.75 1530.57 L1942.75 1526.73 L1946.96 1526.73 Q1950.41 1526.73 1952.24 1525.36 Q1954.07 1523.97 1954.07 1521.38 Q1954.07 1518.72 1952.17 1517.31 Q1950.29 1515.87 1946.78 1515.87 Q1944.85 1515.87 1942.66 1516.29 Q1940.46 1516.7 1937.82 1517.58 L1937.82 1513.42 Q1940.48 1512.68 1942.79 1512.31 Q1945.13 1511.93 1947.19 1511.93 Q1952.52 1511.93 1955.62 1514.37 Q1958.72 1516.77 1958.72 1520.89 Q1958.72 1523.76 1957.08 1525.75 Q1955.43 1527.72 1952.4 1528.49 Z" fill="#000000" fill-rule="evenodd" fill-opacity="1" /><path clip-path="url(#clip580)" d="M 0 0 M2294.05 1516.63 L2282.24 1535.08 L2294.05 1535.08 L2294.05 1516.63 M2292.82 1512.56 L2298.7 1512.56 L2298.7 1535.08 L2303.63 1535.08 L2303.63 1538.97 L2298.7 1538.97 L2298.7 1547.12 L2294.05 1547.12 L2294.05 1538.97 L2278.44 1538.97 L2278.44 1534.46 L2292.82 1512.56 Z" fill="#000000" fill-rule="evenodd" fill-opacity="1" /><polyline clip-path="url(#clip582)" style="stroke:#000000; stroke-width:2; stroke-opacity:0.1; fill:none" points="
  172.015,1447.87 2352.76,1447.87 
  "/>
<polyline clip-path="url(#clip582)" style="stroke:#000000; stroke-width:2; stroke-opacity:0.1; fill:none" points="
  172.015,1152.28 2352.76,1152.28 
  "/>
<polyline clip-path="url(#clip582)" style="stroke:#000000; stroke-width:2; stroke-opacity:0.1; fill:none" points="
  172.015,856.689 2352.76,856.689 
  "/>
<polyline clip-path="url(#clip582)" style="stroke:#000000; stroke-width:2; stroke-opacity:0.1; fill:none" points="
  172.015,561.096 2352.76,561.096 
  "/>
<polyline clip-path="url(#clip582)" style="stroke:#000000; stroke-width:2; stroke-opacity:0.1; fill:none" points="
  172.015,265.504 2352.76,265.504 
  "/>
<polyline clip-path="url(#clip580)" style="stroke:#000000; stroke-width:4; stroke-opacity:1; fill:none" points="
  172.015,1486.45 172.015,123.472 
  "/>
<polyline clip-path="url(#clip580)" style="stroke:#000000; stroke-width:4; stroke-opacity:1; fill:none" points="
  172.015,1447.87 198.184,1447.87 
  "/>
<polyline clip-path="url(#clip580)" style="stroke:#000000; stroke-width:4; stroke-opacity:1; fill:none" points="
  172.015,1152.28 198.184,1152.28 
  "/>
<polyline clip-path="url(#clip580)" style="stroke:#000000; stroke-width:4; stroke-opacity:1; fill:none" points="
  172.015,856.689 198.184,856.689 
  "/>
<polyline clip-path="url(#clip580)" style="stroke:#000000; stroke-width:4; stroke-opacity:1; fill:none" points="
  172.015,561.096 198.184,561.096 
  "/>
<polyline clip-path="url(#clip580)" style="stroke:#000000; stroke-width:4; stroke-opacity:1; fill:none" points="
  172.015,265.504 198.184,265.504 
  "/>
<path clip-path="url(#clip580)" d="M 0 0 M124.07 1433.67 Q120.459 1433.67 118.631 1437.24 Q116.825 1440.78 116.825 1447.91 Q116.825 1455.01 118.631 1458.58 Q120.459 1462.12 124.07 1462.12 Q127.705 1462.12 129.51 1458.58 Q131.339 1455.01 131.339 1447.91 Q131.339 1440.78 129.51 1437.24 Q127.705 1433.67 124.07 1433.67 M124.07 1429.97 Q129.881 1429.97 132.936 1434.57 Q136.015 1439.16 136.015 1447.91 Q136.015 1456.63 132.936 1461.24 Q129.881 1465.82 124.07 1465.82 Q118.26 1465.82 115.182 1461.24 Q112.126 1456.63 112.126 1447.91 Q112.126 1439.16 115.182 1434.57 Q118.26 1429.97 124.07 1429.97 Z" fill="#000000" fill-rule="evenodd" fill-opacity="1" /><path clip-path="url(#clip580)" d="M 0 0 M57.7745 1165.63 L74.0939 1165.63 L74.0939 1169.56 L52.1495 1169.56 L52.1495 1165.63 Q54.8115 1162.87 59.3949 1158.24 Q64.0013 1153.59 65.1819 1152.25 Q67.4272 1149.72 68.3068 1147.99 Q69.2096 1146.23 69.2096 1144.54 Q69.2096 1141.78 67.2652 1140.05 Q65.3439 1138.31 62.2421 1138.31 Q60.043 1138.31 57.5893 1139.07 Q55.1588 1139.84 52.381 1141.39 L52.381 1136.67 Q55.2051 1135.53 57.6588 1134.95 Q60.1124 1134.38 62.1495 1134.38 Q67.5198 1134.38 70.7142 1137.06 Q73.9087 1139.75 73.9087 1144.24 Q73.9087 1146.37 73.0985 1148.29 Q72.3115 1150.19 70.205 1152.78 Q69.6263 1153.45 66.5245 1156.67 Q63.4226 1159.86 57.7745 1165.63 Z" fill="#000000" fill-rule="evenodd" fill-opacity="1" /><path clip-path="url(#clip580)" d="M 0 0 M93.9086 1138.08 Q90.2975 1138.08 88.4688 1141.64 Q86.6632 1145.19 86.6632 1152.32 Q86.6632 1159.42 88.4688 1162.99 Q90.2975 1166.53 93.9086 1166.53 Q97.5428 1166.53 99.3483 1162.99 Q101.177 1159.42 101.177 1152.32 Q101.177 1145.19 99.3483 1141.64 Q97.5428 1138.08 93.9086 1138.08 M93.9086 1134.38 Q99.7187 1134.38 102.774 1138.98 Q105.853 1143.57 105.853 1152.32 Q105.853 1161.04 102.774 1165.65 Q99.7187 1170.23 93.9086 1170.23 Q88.0984 1170.23 85.0197 1165.65 Q81.9642 1161.04 81.9642 1152.32 Q81.9642 1143.57 85.0197 1138.98 Q88.0984 1134.38 93.9086 1134.38 Z" fill="#000000" fill-rule="evenodd" fill-opacity="1" /><path clip-path="url(#clip580)" d="M 0 0 M124.07 1138.08 Q120.459 1138.08 118.631 1141.64 Q116.825 1145.19 116.825 1152.32 Q116.825 1159.42 118.631 1162.99 Q120.459 1166.53 124.07 1166.53 Q127.705 1166.53 129.51 1162.99 Q131.339 1159.42 131.339 1152.32 Q131.339 1145.19 129.51 1141.64 Q127.705 1138.08 124.07 1138.08 M124.07 1134.38 Q129.881 1134.38 132.936 1138.98 Q136.015 1143.57 136.015 1152.32 Q136.015 1161.04 132.936 1165.65 Q129.881 1170.23 124.07 1170.23 Q118.26 1170.23 115.182 1165.65 Q112.126 1161.04 112.126 1152.32 Q112.126 1143.57 115.182 1138.98 Q118.26 1134.38 124.07 1134.38 Z" fill="#000000" fill-rule="evenodd" fill-opacity="1" /><path clip-path="url(#clip580)" d="M 0 0 M66.5939 843.483 L54.7884 861.932 L66.5939 861.932 L66.5939 843.483 M65.367 839.409 L71.2466 839.409 L71.2466 861.932 L76.1772 861.932 L76.1772 865.821 L71.2466 865.821 L71.2466 873.969 L66.5939 873.969 L66.5939 865.821 L50.9921 865.821 L50.9921 861.307 L65.367 839.409 Z" fill="#000000" fill-rule="evenodd" fill-opacity="1" /><path clip-path="url(#clip580)" d="M 0 0 M93.9086 842.487 Q90.2975 842.487 88.4688 846.052 Q86.6632 849.594 86.6632 856.723 Q86.6632 863.83 88.4688 867.395 Q90.2975 870.936 93.9086 870.936 Q97.5428 870.936 99.3483 867.395 Q101.177 863.83 101.177 856.723 Q101.177 849.594 99.3483 846.052 Q97.5428 842.487 93.9086 842.487 M93.9086 838.784 Q99.7187 838.784 102.774 843.39 Q105.853 847.973 105.853 856.723 Q105.853 865.45 102.774 870.057 Q99.7187 874.64 93.9086 874.64 Q88.0984 874.64 85.0197 870.057 Q81.9642 865.45 81.9642 856.723 Q81.9642 847.973 85.0197 843.39 Q88.0984 838.784 93.9086 838.784 Z" fill="#000000" fill-rule="evenodd" fill-opacity="1" /><path clip-path="url(#clip580)" d="M 0 0 M124.07 842.487 Q120.459 842.487 118.631 846.052 Q116.825 849.594 116.825 856.723 Q116.825 863.83 118.631 867.395 Q120.459 870.936 124.07 870.936 Q127.705 870.936 129.51 867.395 Q131.339 863.83 131.339 856.723 Q131.339 849.594 129.51 846.052 Q127.705 842.487 124.07 842.487 M124.07 838.784 Q129.881 838.784 132.936 843.39 Q136.015 847.973 136.015 856.723 Q136.015 865.45 132.936 870.057 Q129.881 874.64 124.07 874.64 Q118.26 874.64 115.182 870.057 Q112.126 865.45 112.126 856.723 Q112.126 847.973 115.182 843.39 Q118.26 838.784 124.07 838.784 Z" fill="#000000" fill-rule="evenodd" fill-opacity="1" /><path clip-path="url(#clip580)" d="M 0 0 M64.3254 559.233 Q61.1773 559.233 59.3254 561.386 Q57.4967 563.539 57.4967 567.289 Q57.4967 571.015 59.3254 573.191 Q61.1773 575.344 64.3254 575.344 Q67.4735 575.344 69.3022 573.191 Q71.1541 571.015 71.1541 567.289 Q71.1541 563.539 69.3022 561.386 Q67.4735 559.233 64.3254 559.233 M73.6077 544.58 L73.6077 548.84 Q71.8485 548.006 70.0429 547.566 Q68.2606 547.127 66.5013 547.127 Q61.8717 547.127 59.418 550.252 Q56.9875 553.377 56.6402 559.696 Q58.006 557.682 60.0662 556.617 Q62.1263 555.529 64.6032 555.529 Q69.8115 555.529 72.8207 558.701 Q75.8531 561.849 75.8531 567.289 Q75.8531 572.613 72.705 575.83 Q69.5568 579.048 64.3254 579.048 Q58.33 579.048 55.1588 574.464 Q51.9875 569.858 51.9875 561.131 Q51.9875 552.937 55.8764 548.076 Q59.7652 543.191 66.3161 543.191 Q68.0754 543.191 69.8578 543.539 Q71.6633 543.886 73.6077 544.58 Z" fill="#000000" fill-rule="evenodd" fill-opacity="1" /><path clip-path="url(#clip580)" d="M 0 0 M93.9086 546.895 Q90.2975 546.895 88.4688 550.46 Q86.6632 554.002 86.6632 561.131 Q86.6632 568.238 88.4688 571.802 Q90.2975 575.344 93.9086 575.344 Q97.5428 575.344 99.3483 571.802 Q101.177 568.238 101.177 561.131 Q101.177 554.002 99.3483 550.46 Q97.5428 546.895 93.9086 546.895 M93.9086 543.191 Q99.7187 543.191 102.774 547.798 Q105.853 552.381 105.853 561.131 Q105.853 569.858 102.774 574.464 Q99.7187 579.048 93.9086 579.048 Q88.0984 579.048 85.0197 574.464 Q81.9642 569.858 81.9642 561.131 Q81.9642 552.381 85.0197 547.798 Q88.0984 543.191 93.9086 543.191 Z" fill="#000000" fill-rule="evenodd" fill-opacity="1" /><path clip-path="url(#clip580)" d="M 0 0 M124.07 546.895 Q120.459 546.895 118.631 550.46 Q116.825 554.002 116.825 561.131 Q116.825 568.238 118.631 571.802 Q120.459 575.344 124.07 575.344 Q127.705 575.344 129.51 571.802 Q131.339 568.238 131.339 561.131 Q131.339 554.002 129.51 550.46 Q127.705 546.895 124.07 546.895 M124.07 543.191 Q129.881 543.191 132.936 547.798 Q136.015 552.381 136.015 561.131 Q136.015 569.858 132.936 574.464 Q129.881 579.048 124.07 579.048 Q118.26 579.048 115.182 574.464 Q112.126 569.858 112.126 561.131 Q112.126 552.381 115.182 547.798 Q118.26 543.191 124.07 543.191 Z" fill="#000000" fill-rule="evenodd" fill-opacity="1" /><path clip-path="url(#clip580)" d="M 0 0 M63.7467 266.372 Q60.4134 266.372 58.4921 268.155 Q56.5939 269.937 56.5939 273.062 Q56.5939 276.187 58.4921 277.969 Q60.4134 279.752 63.7467 279.752 Q67.08 279.752 69.0013 277.969 Q70.9226 276.164 70.9226 273.062 Q70.9226 269.937 69.0013 268.155 Q67.1032 266.372 63.7467 266.372 M59.0708 264.382 Q56.0615 263.641 54.3717 261.581 Q52.7051 259.52 52.7051 256.557 Q52.7051 252.414 55.6449 250.007 Q58.6078 247.599 63.7467 247.599 Q68.9087 247.599 71.8485 250.007 Q74.7883 252.414 74.7883 256.557 Q74.7883 259.52 73.0985 261.581 Q71.4318 263.641 68.4457 264.382 Q71.8253 265.169 73.7003 267.46 Q75.5985 269.752 75.5985 273.062 Q75.5985 278.085 72.5198 280.77 Q69.4642 283.455 63.7467 283.455 Q58.0291 283.455 54.9504 280.77 Q51.8949 278.085 51.8949 273.062 Q51.8949 269.752 53.793 267.46 Q55.6912 265.169 59.0708 264.382 M57.3578 256.997 Q57.3578 259.682 59.0245 261.187 Q60.7143 262.692 63.7467 262.692 Q66.7559 262.692 68.4457 261.187 Q70.1587 259.682 70.1587 256.997 Q70.1587 254.312 68.4457 252.807 Q66.7559 251.303 63.7467 251.303 Q60.7143 251.303 59.0245 252.807 Q57.3578 254.312 57.3578 256.997 Z" fill="#000000" fill-rule="evenodd" fill-opacity="1" /><path clip-path="url(#clip580)" d="M 0 0 M93.9086 251.303 Q90.2975 251.303 88.4688 254.868 Q86.6632 258.409 86.6632 265.539 Q86.6632 272.645 88.4688 276.21 Q90.2975 279.752 93.9086 279.752 Q97.5428 279.752 99.3483 276.21 Q101.177 272.645 101.177 265.539 Q101.177 258.409 99.3483 254.868 Q97.5428 251.303 93.9086 251.303 M93.9086 247.599 Q99.7187 247.599 102.774 252.206 Q105.853 256.789 105.853 265.539 Q105.853 274.266 102.774 278.872 Q99.7187 283.455 93.9086 283.455 Q88.0984 283.455 85.0197 278.872 Q81.9642 274.266 81.9642 265.539 Q81.9642 256.789 85.0197 252.206 Q88.0984 247.599 93.9086 247.599 Z" fill="#000000" fill-rule="evenodd" fill-opacity="1" /><path clip-path="url(#clip580)" d="M 0 0 M124.07 251.303 Q120.459 251.303 118.631 254.868 Q116.825 258.409 116.825 265.539 Q116.825 272.645 118.631 276.21 Q120.459 279.752 124.07 279.752 Q127.705 279.752 129.51 276.21 Q131.339 272.645 131.339 265.539 Q131.339 258.409 129.51 254.868 Q127.705 251.303 124.07 251.303 M124.07 247.599 Q129.881 247.599 132.936 252.206 Q136.015 256.789 136.015 265.539 Q136.015 274.266 132.936 278.872 Q129.881 283.455 124.07 283.455 Q118.26 283.455 115.182 278.872 Q112.126 274.266 112.126 265.539 Q112.126 256.789 115.182 252.206 Q118.26 247.599 124.07 247.599 Z" fill="#000000" fill-rule="evenodd" fill-opacity="1" /><path clip-path="url(#clip580)" d="M 0 0 M1179.36 18.8205 L1179.36 65.8515 L1189.25 65.8515 Q1201.76 65.8515 1207.56 60.1802 Q1213.39 54.509 1213.39 42.2752 Q1213.39 30.1225 1207.56 24.4918 Q1201.76 18.8205 1189.25 18.8205 L1179.36 18.8205 M1171.18 12.096 L1187.99 12.096 Q1205.57 12.096 1213.79 19.4281 Q1222.02 26.7198 1222.02 42.2752 Q1222.02 57.9117 1213.75 65.2439 Q1205.49 72.576 1187.99 72.576 L1171.18 72.576 L1171.18 12.096 Z" fill="#000000" fill-rule="evenodd" fill-opacity="1" /><path clip-path="url(#clip580)" d="M 0 0 M1255.36 49.7694 Q1246.32 49.7694 1242.84 51.8354 Q1239.36 53.9013 1239.36 58.8839 Q1239.36 62.8538 1241.95 65.2034 Q1244.58 67.5124 1249.08 67.5124 Q1255.28 67.5124 1259 63.1374 Q1262.77 58.7219 1262.77 51.4303 L1262.77 49.7694 L1255.36 49.7694 M1270.22 46.6907 L1270.22 72.576 L1262.77 72.576 L1262.77 65.6895 Q1260.22 69.8214 1256.41 71.8063 Q1252.6 73.7508 1247.09 73.7508 Q1240.13 73.7508 1235.99 69.8619 Q1231.9 65.9325 1231.9 59.3701 Q1231.9 51.7138 1237.01 47.825 Q1242.15 43.9361 1252.32 43.9361 L1262.77 43.9361 L1262.77 43.2069 Q1262.77 38.0623 1259.37 35.2672 Q1256.01 32.4315 1249.89 32.4315 Q1246 32.4315 1242.31 33.3632 Q1238.63 34.295 1235.22 36.1584 L1235.22 29.2718 Q1239.32 27.692 1243.16 26.9223 Q1247.01 26.1121 1250.66 26.1121 Q1260.5 26.1121 1265.36 31.2163 Q1270.22 36.3204 1270.22 46.6907 Z" fill="#000000" fill-rule="evenodd" fill-opacity="1" /><path clip-path="url(#clip580)" d="M 0 0 M1292.95 14.324 L1292.95 27.2059 L1308.3 27.2059 L1308.3 32.9987 L1292.95 32.9987 L1292.95 57.6282 Q1292.95 63.1779 1294.45 64.7578 Q1295.99 66.3376 1300.65 66.3376 L1308.3 66.3376 L1308.3 72.576 L1300.65 72.576 Q1292.02 72.576 1288.74 69.3758 Q1285.46 66.1351 1285.46 57.6282 L1285.46 32.9987 L1279.99 32.9987 L1279.99 27.2059 L1285.46 27.2059 L1285.46 14.324 L1292.95 14.324 Z" fill="#000000" fill-rule="evenodd" fill-opacity="1" /><path clip-path="url(#clip580)" d="M 0 0 M1338.72 49.7694 Q1329.69 49.7694 1326.21 51.8354 Q1322.72 53.9013 1322.72 58.8839 Q1322.72 62.8538 1325.32 65.2034 Q1327.95 67.5124 1332.45 67.5124 Q1338.64 67.5124 1342.37 63.1374 Q1346.14 58.7219 1346.14 51.4303 L1346.14 49.7694 L1338.72 49.7694 M1353.59 46.6907 L1353.59 72.576 L1346.14 72.576 L1346.14 65.6895 Q1343.59 69.8214 1339.78 71.8063 Q1335.97 73.7508 1330.46 73.7508 Q1323.49 73.7508 1319.36 69.8619 Q1315.27 65.9325 1315.27 59.3701 Q1315.27 51.7138 1320.37 47.825 Q1325.52 43.9361 1335.69 43.9361 L1346.14 43.9361 L1346.14 43.2069 Q1346.14 38.0623 1342.74 35.2672 Q1339.37 32.4315 1333.26 32.4315 Q1329.37 32.4315 1325.68 33.3632 Q1321.99 34.295 1318.59 36.1584 L1318.59 29.2718 Q1322.68 27.692 1326.53 26.9223 Q1330.38 26.1121 1334.03 26.1121 Q1343.87 26.1121 1348.73 31.2163 Q1353.59 36.3204 1353.59 46.6907 Z" fill="#000000" fill-rule="evenodd" fill-opacity="1" /><polyline clip-path="url(#clip582)" style="stroke:#009af9; stroke-width:4; stroke-opacity:1; fill:none" points="
  233.734,1447.87 233.734,1270.52 268.022,1270.52 268.022,1300.08 302.311,1300.08 302.311,1314.86 336.599,1314.86 336.599,1211.4 370.887,1211.4 370.887,1152.28 
  405.176,1152.28 439.464,1152.28 439.464,871.468 473.753,871.468 473.753,841.909 508.041,841.909 508.041,1034.04 542.329,1034.04 542.329,768.011 
  576.618,768.011 576.618,989.705 610.906,989.705 610.906,768.011 645.194,768.011 645.194,930.587 679.483,930.587 679.483,1019.26 713.771,1019.26 713.771,930.587 
  748.06,930.587 748.06,1211.4 782.348,1211.4 782.348,1285.3 816.636,1285.3 816.636,1300.08 850.925,1300.08 850.925,1255.74 885.213,1255.74 885.213,1344.42 
  919.502,1344.42 919.502,1433.09 953.79,1433.09 953.79,1388.75 988.078,1388.75 988.078,1373.98 1022.37,1373.98 1022.37,1418.31 1056.66,1418.31 1056.66,1447.87 
  1090.94,1447.87 1090.94,1403.53 1125.23,1403.53 1125.23,1373.98 1159.52,1373.98 1159.52,1403.53 1193.81,1403.53 1193.81,1373.98 1228.1,1373.98 1228.1,1433.09 
  1262.39,1433.09 1262.39,1300.08 1296.67,1300.08 1296.67,1122.72 1330.96,1122.72 1330.96,1107.94 1365.25,1107.94 1365.25,797.57 1399.54,797.57 1399.54,886.248 
  1433.83,886.248 1433.83,575.876 1468.12,575.876 1468.12,620.215 1502.4,620.215 1502.4,442.86 1536.69,442.86 1536.69,162.047 1570.98,162.047 1570.98,250.725 
  1605.27,250.725 1605.27,457.639 1639.56,457.639 1639.56,265.504 1673.85,265.504 1673.85,501.978 1708.13,501.978 1708.13,590.656 1742.42,590.656 1742.42,738.452 
  1776.71,738.452 1776.71,768.011 1811,768.011 1811,886.248 1845.29,886.248 1845.29,930.587 1879.58,930.587 1879.58,1137.5 1913.86,1137.5 1913.86,1300.08 
  1948.15,1300.08 1948.15,1314.86 1982.44,1314.86 1982.44,1359.2 2016.73,1359.2 2016.73,1388.75 2051.02,1388.75 2085.31,1388.75 2085.31,1433.09 
  2119.59,1433.09 2153.88,1433.09 2153.88,1447.87 2188.17,1447.87 2222.46,1447.87 2256.75,1447.87 
  2291.04,1447.87 
  "/>
<path clip-path="url(#clip580)" d="
M1933.52 289.865 L2280.06 289.865 L2280.06 168.905 L1933.52 168.905  Z
  " fill="#ffffff" fill-rule="evenodd" fill-opacity="1"/>
<polyline clip-path="url(#clip580)" style="stroke:#000000; stroke-width:4; stroke-opacity:1; fill:none" points="
  1933.52,289.865 2280.06,289.865 2280.06,168.905 1933.52,168.905 1933.52,289.865 
  "/>
<polyline clip-path="url(#clip580)" style="stroke:#009af9; stroke-width:4; stroke-opacity:1; fill:none" points="
  1957.75,229.385 2103.14,229.385 
  "/>
<path clip-path="url(#clip580)" d="M 0 0 M2132.04 215.947 L2132.04 242.822 L2137.69 242.822 Q2144.84 242.822 2148.15 239.581 Q2151.49 236.341 2151.49 229.35 Q2151.49 222.406 2148.15 219.188 Q2144.84 215.947 2137.69 215.947 L2132.04 215.947 M2127.37 212.105 L2136.97 212.105 Q2147.02 212.105 2151.72 216.294 Q2156.42 220.461 2156.42 229.35 Q2156.42 238.285 2151.7 242.475 Q2146.97 246.665 2136.97 246.665 L2127.37 246.665 L2127.37 212.105 Z" fill="#000000" fill-rule="evenodd" fill-opacity="1" /><path clip-path="url(#clip580)" d="M 0 0 M2175.47 233.632 Q2170.31 233.632 2168.32 234.813 Q2166.33 235.993 2166.33 238.841 Q2166.33 241.109 2167.81 242.452 Q2169.31 243.771 2171.88 243.771 Q2175.42 243.771 2177.55 241.271 Q2179.71 238.748 2179.71 234.581 L2179.71 233.632 L2175.47 233.632 M2183.96 231.873 L2183.96 246.665 L2179.71 246.665 L2179.71 242.729 Q2178.25 245.091 2176.07 246.225 Q2173.9 247.336 2170.75 247.336 Q2166.77 247.336 2164.4 245.114 Q2162.07 242.868 2162.07 239.118 Q2162.07 234.743 2164.98 232.521 Q2167.92 230.299 2173.73 230.299 L2179.71 230.299 L2179.71 229.882 Q2179.71 226.943 2177.76 225.345 Q2175.84 223.725 2172.34 223.725 Q2170.12 223.725 2168.02 224.257 Q2165.91 224.79 2163.97 225.855 L2163.97 221.919 Q2166.3 221.017 2168.5 220.577 Q2170.7 220.114 2172.78 220.114 Q2178.41 220.114 2181.19 223.031 Q2183.96 225.947 2183.96 231.873 Z" fill="#000000" fill-rule="evenodd" fill-opacity="1" /><path clip-path="url(#clip580)" d="M 0 0 M2196.95 213.378 L2196.95 220.739 L2205.72 220.739 L2205.72 224.049 L2196.95 224.049 L2196.95 238.123 Q2196.95 241.294 2197.81 242.197 Q2198.69 243.1 2201.35 243.1 L2205.72 243.1 L2205.72 246.665 L2201.35 246.665 Q2196.42 246.665 2194.54 244.836 Q2192.67 242.984 2192.67 238.123 L2192.67 224.049 L2189.54 224.049 L2189.54 220.739 L2192.67 220.739 L2192.67 213.378 L2196.95 213.378 Z" fill="#000000" fill-rule="evenodd" fill-opacity="1" /><path clip-path="url(#clip580)" d="M 0 0 M2223.11 233.632 Q2217.95 233.632 2215.96 234.813 Q2213.96 235.993 2213.96 238.841 Q2213.96 241.109 2215.45 242.452 Q2216.95 243.771 2219.52 243.771 Q2223.06 243.771 2225.19 241.271 Q2227.34 238.748 2227.34 234.581 L2227.34 233.632 L2223.11 233.632 M2231.6 231.873 L2231.6 246.665 L2227.34 246.665 L2227.34 242.729 Q2225.89 245.091 2223.71 246.225 Q2221.53 247.336 2218.39 247.336 Q2214.4 247.336 2212.04 245.114 Q2209.71 242.868 2209.71 239.118 Q2209.71 234.743 2212.62 232.521 Q2215.56 230.299 2221.37 230.299 L2227.34 230.299 L2227.34 229.882 Q2227.34 226.943 2225.4 225.345 Q2223.48 223.725 2219.98 223.725 Q2217.76 223.725 2215.65 224.257 Q2213.55 224.79 2211.6 225.855 L2211.6 221.919 Q2213.94 221.017 2216.14 220.577 Q2218.34 220.114 2220.42 220.114 Q2226.05 220.114 2228.83 223.031 Q2231.6 225.947 2231.6 231.873 Z" fill="#000000" fill-rule="evenodd" fill-opacity="1" /></svg>
