<?xml version="1.0" encoding="utf-8"?>
<svg xmlns="http://www.w3.org/2000/svg" xmlns:xlink="http://www.w3.org/1999/xlink" width="600" height="400" viewBox="0 0 2400 1600">
<defs>
  <clipPath id="clip120">
    <rect x="0" y="0" width="2400" height="1600"/>
  </clipPath>
</defs>
<path clip-path="url(#clip120)" d="
M0 1600 L2400 1600 L2400 0 L0 0  Z
  " fill="#ffffff" fill-rule="evenodd" fill-opacity="1"/>
<defs>
  <clipPath id="clip121">
    <rect x="480" y="0" width="1681" height="1600"/>
  </clipPath>
</defs>
<path clip-path="url(#clip120)" d="
M172.015 1486.45 L2352.76 1486.45 L2352.76 123.472 L172.015 123.472  Z
  " fill="#ffffff" fill-rule="evenodd" fill-opacity="1"/>
<defs>
  <clipPath id="clip122">
    <rect x="172" y="123" width="2182" height="1364"/>
  </clipPath>
</defs>
<polyline clip-path="url(#clip122)" style="stroke:#000000; stroke-linecap:butt; stroke-linejoin:round; stroke-width:2; stroke-opacity:0.1; fill:none" points="
  233.734,1486.45 233.734,123.472 
  "/>
<polyline clip-path="url(#clip122)" style="stroke:#000000; stroke-linecap:butt; stroke-linejoin:round; stroke-width:2; stroke-opacity:0.1; fill:none" points="
  748.06,1486.45 748.06,123.472 
  "/>
<polyline clip-path="url(#clip122)" style="stroke:#000000; stroke-linecap:butt; stroke-linejoin:round; stroke-width:2; stroke-opacity:0.1; fill:none" points="
  1262.39,1486.45 1262.39,123.472 
  "/>
<polyline clip-path="url(#clip122)" style="stroke:#000000; stroke-linecap:butt; stroke-linejoin:round; stroke-width:2; stroke-opacity:0.1; fill:none" points="
  1776.71,1486.45 1776.71,123.472 
  "/>
<polyline clip-path="url(#clip122)" style="stroke:#000000; stroke-linecap:butt; stroke-linejoin:round; stroke-width:2; stroke-opacity:0.1; fill:none" points="
  2291.04,1486.45 2291.04,123.472 
  "/>
<polyline clip-path="url(#clip120)" style="stroke:#000000; stroke-linecap:butt; stroke-linejoin:round; stroke-width:4; stroke-opacity:1; fill:none" points="
  172.015,1486.45 2352.76,1486.45 
  "/>
<polyline clip-path="url(#clip120)" style="stroke:#000000; stroke-linecap:butt; stroke-linejoin:round; stroke-width:4; stroke-opacity:1; fill:none" points="
  233.734,1486.45 233.734,1470.09 
  "/>
<polyline clip-path="url(#clip120)" style="stroke:#000000; stroke-linecap:butt; stroke-linejoin:round; stroke-width:4; stroke-opacity:1; fill:none" points="
  748.06,1486.45 748.06,1470.09 
  "/>
<polyline clip-path="url(#clip120)" style="stroke:#000000; stroke-linecap:butt; stroke-linejoin:round; stroke-width:4; stroke-opacity:1; fill:none" points="
  1262.39,1486.45 1262.39,1470.09 
  "/>
<polyline clip-path="url(#clip120)" style="stroke:#000000; stroke-linecap:butt; stroke-linejoin:round; stroke-width:4; stroke-opacity:1; fill:none" points="
  1776.71,1486.45 1776.71,1470.09 
  "/>
<polyline clip-path="url(#clip120)" style="stroke:#000000; stroke-linecap:butt; stroke-linejoin:round; stroke-width:4; stroke-opacity:1; fill:none" points="
  2291.04,1486.45 2291.04,1470.09 
  "/>
<path clip-path="url(#clip120)" d="M202.635 1530.29 L232.31 1530.29 L232.31 1534.23 L202.635 1534.23 L202.635 1530.29 Z" fill="#000000" fill-rule="evenodd" fill-opacity="1" /><path clip-path="url(#clip120)" d="M255.25 1516.63 L243.445 1535.08 L255.25 1535.08 L255.25 1516.63 M254.023 1512.56 L259.903 1512.56 L259.903 1535.08 L264.833 1535.08 L264.833 1538.97 L259.903 1538.97 L259.903 1547.12 L255.25 1547.12 L255.25 1538.97 L239.648 1538.97 L239.648 1534.46 L254.023 1512.56 Z" fill="#000000" fill-rule="evenodd" fill-opacity="1" /><path clip-path="url(#clip120)" d="M718.002 1530.29 L747.678 1530.29 L747.678 1534.23 L718.002 1534.23 L718.002 1530.29 Z" fill="#000000" fill-rule="evenodd" fill-opacity="1" /><path clip-path="url(#clip120)" d="M761.798 1543.18 L778.117 1543.18 L778.117 1547.12 L756.173 1547.12 L756.173 1543.18 Q758.835 1540.43 763.418 1535.8 Q768.025 1531.15 769.205 1529.81 Q771.451 1527.28 772.33 1525.55 Q773.233 1523.79 773.233 1522.1 Q773.233 1519.34 771.289 1517.61 Q769.367 1515.87 766.266 1515.87 Q764.066 1515.87 761.613 1516.63 Q759.182 1517.4 756.404 1518.95 L756.404 1514.23 Q759.229 1513.09 761.682 1512.51 Q764.136 1511.93 766.173 1511.93 Q771.543 1511.93 774.738 1514.62 Q777.932 1517.31 777.932 1521.8 Q777.932 1523.93 777.122 1525.85 Q776.335 1527.74 774.228 1530.34 Q773.65 1531.01 770.548 1534.23 Q767.446 1537.42 761.798 1543.18 Z" fill="#000000" fill-rule="evenodd" fill-opacity="1" /><path clip-path="url(#clip120)" d="M1262.39 1515.64 Q1258.77 1515.64 1256.95 1519.2 Q1255.14 1522.75 1255.14 1529.87 Q1255.14 1536.98 1256.95 1540.55 Q1258.77 1544.09 1262.39 1544.09 Q1266.02 1544.09 1267.83 1540.55 Q1269.65 1536.98 1269.65 1529.87 Q1269.65 1522.75 1267.83 1519.2 Q1266.02 1515.64 1262.39 1515.64 M1262.39 1511.93 Q1268.2 1511.93 1271.25 1516.54 Q1274.33 1521.12 1274.33 1529.87 Q1274.33 1538.6 1271.25 1543.21 Q1268.2 1547.79 1262.39 1547.79 Q1256.58 1547.79 1253.5 1543.21 Q1250.44 1538.6 1250.44 1529.87 Q1250.44 1521.12 1253.5 1516.54 Q1256.58 1511.93 1262.39 1511.93 Z" fill="#000000" fill-rule="evenodd" fill-opacity="1" /><path clip-path="url(#clip120)" d="M1771.36 1543.18 L1787.68 1543.18 L1787.68 1547.12 L1765.74 1547.12 L1765.74 1543.18 Q1768.4 1540.43 1772.98 1535.8 Q1777.59 1531.15 1778.77 1529.81 Q1781.02 1527.28 1781.9 1525.55 Q1782.8 1523.79 1782.8 1522.1 Q1782.8 1519.34 1780.85 1517.61 Q1778.93 1515.87 1775.83 1515.87 Q1773.63 1515.87 1771.18 1516.63 Q1768.75 1517.4 1765.97 1518.95 L1765.97 1514.23 Q1768.79 1513.09 1771.25 1512.51 Q1773.7 1511.93 1775.74 1511.93 Q1781.11 1511.93 1784.3 1514.62 Q1787.5 1517.31 1787.5 1521.8 Q1787.5 1523.93 1786.69 1525.85 Q1785.9 1527.74 1783.79 1530.34 Q1783.22 1531.01 1780.11 1534.23 Q1777.01 1537.42 1771.36 1543.18 Z" fill="#000000" fill-rule="evenodd" fill-opacity="1" /><path clip-path="url(#clip120)" d="M2294.05 1516.63 L2282.24 1535.08 L2294.05 1535.08 L2294.05 1516.63 M2292.82 1512.56 L2298.7 1512.56 L2298.7 1535.08 L2303.63 1535.08 L2303.63 1538.97 L2298.7 1538.97 L2298.7 1547.12 L2294.05 1547.12 L2294.05 1538.97 L2278.44 1538.97 L2278.44 1534.46 L2292.82 1512.56 Z" fill="#000000" fill-rule="evenodd" fill-opacity="1" /><polyline clip-path="url(#clip122)" style="stroke:#000000; stroke-linecap:butt; stroke-linejoin:round; stroke-width:2; stroke-opacity:0.1; fill:none" points="
  172.015,1447.87 2352.76,1447.87 
  "/>
<polyline clip-path="url(#clip122)" style="stroke:#000000; stroke-linecap:butt; stroke-linejoin:round; stroke-width:2; stroke-opacity:0.1; fill:none" points="
  172.015,1152.28 2352.76,1152.28 
  "/>
<polyline clip-path="url(#clip122)" style="stroke:#000000; stroke-linecap:butt; stroke-linejoin:round; stroke-width:2; stroke-opacity:0.1; fill:none" points="
  172.015,856.689 2352.76,856.689 
  "/>
<polyline clip-path="url(#clip122)" style="stroke:#000000; stroke-linecap:butt; stroke-linejoin:round; stroke-width:2; stroke-opacity:0.1; fill:none" points="
  172.015,561.096 2352.76,561.096 
  "/>
<polyline clip-path="url(#clip122)" style="stroke:#000000; stroke-linecap:butt; stroke-linejoin:round; stroke-width:2; stroke-opacity:0.1; fill:none" points="
  172.015,265.504 2352.76,265.504 
  "/>
<polyline clip-path="url(#clip120)" style="stroke:#000000; stroke-linecap:butt; stroke-linejoin:round; stroke-width:4; stroke-opacity:1; fill:none" points="
  172.015,1486.45 172.015,123.472 
  "/>
<polyline clip-path="url(#clip120)" style="stroke:#000000; stroke-linecap:butt; stroke-linejoin:round; stroke-width:4; stroke-opacity:1; fill:none" points="
  172.015,1447.87 198.184,1447.87 
  "/>
<polyline clip-path="url(#clip120)" style="stroke:#000000; stroke-linecap:butt; stroke-linejoin:round; stroke-width:4; stroke-opacity:1; fill:none" points="
  172.015,1152.28 198.184,1152.28 
  "/>
<polyline clip-path="url(#clip120)" style="stroke:#000000; stroke-linecap:butt; stroke-linejoin:round; stroke-width:4; stroke-opacity:1; fill:none" points="
  172.015,856.689 198.184,856.689 
  "/>
<polyline clip-path="url(#clip120)" style="stroke:#000000; stroke-linecap:butt; stroke-linejoin:round; stroke-width:4; stroke-opacity:1; fill:none" points="
  172.015,561.096 198.184,561.096 
  "/>
<polyline clip-path="url(#clip120)" style="stroke:#000000; stroke-linecap:butt; stroke-linejoin:round; stroke-width:4; stroke-opacity:1; fill:none" points="
  172.015,265.504 198.184,265.504 
  "/>
<path clip-path="url(#clip120)" d="M124.07 1433.67 Q120.459 1433.67 118.631 1437.24 Q116.825 1440.78 116.825 1447.91 Q116.825 1455.01 118.631 1458.58 Q120.459 1462.12 124.07 1462.12 Q127.705 1462.12 129.51 1458.58 Q131.339 1455.01 131.339 1447.91 Q131.339 1440.78 129.51 1437.24 Q127.705 1433.67 124.07 1433.67 M124.07 1429.97 Q129.881 1429.97 132.936 1434.57 Q136.015 1439.16 136.015 1447.91 Q136.015 1456.63 132.936 1461.24 Q129.881 1465.82 124.07 1465.82 Q118.26 1465.82 115.182 1461.24 Q112.126 1456.63 112.126 1447.91 Q112.126 1439.16 115.182 1434.57 Q118.26 1429.97 124.07 1429.97 Z" fill="#000000" fill-rule="evenodd" fill-opacity="1" /><path clip-path="url(#clip120)" d="M57.7745 1165.63 L74.0939 1165.63 L74.0939 1169.56 L52.1495 1169.56 L52.1495 1165.63 Q54.8115 1162.87 59.3949 1158.24 Q64.0013 1153.59 65.1819 1152.25 Q67.4272 1149.72 68.3068 1147.99 Q69.2096 1146.23 69.2096 1144.54 Q69.2096 1141.78 67.2652 1140.05 Q65.3439 1138.31 62.2421 1138.31 Q60.043 1138.31 57.5893 1139.07 Q55.1588 1139.84 52.381 1141.39 L52.381 1136.67 Q55.2051 1135.53 57.6588 1134.95 Q60.1124 1134.38 62.1495 1134.38 Q67.5198 1134.38 70.7142 1137.06 Q73.9087 1139.75 73.9087 1144.24 Q73.9087 1146.37 73.0985 1148.29 Q72.3115 1150.19 70.205 1152.78 Q69.6263 1153.45 66.5245 1156.67 Q63.4226 1159.86 57.7745 1165.63 Z" fill="#000000" fill-rule="evenodd" fill-opacity="1" /><path clip-path="url(#clip120)" d="M93.9086 1138.08 Q90.2975 1138.08 88.4688 1141.64 Q86.6632 1145.19 86.6632 1152.32 Q86.6632 1159.42 88.4688 1162.99 Q90.2975 1166.53 93.9086 1166.53 Q97.5428 1166.53 99.3483 1162.99 Q101.177 1159.42 101.177 1152.32 Q101.177 1145.19 99.3483 1141.64 Q97.5428 1138.08 93.9086 1138.08 M93.9086 1134.38 Q99.7187 1134.38 102.774 1138.98 Q105.853 1143.57 105.853 1152.32 Q105.853 1161.04 102.774 1165.65 Q99.7187 1170.23 93.9086 1170.23 Q88.0984 1170.23 85.0197 1165.65 Q81.9642 1161.04 81.9642 1152.32 Q81.9642 1143.57 85.0197 1138.98 Q88.0984 1134.38 93.9086 1134.38 Z" fill="#000000" fill-rule="evenodd" fill-opacity="1" /><path clip-path="url(#clip120)" d="M124.07 1138.08 Q120.459 1138.08 118.631 1141.64 Q116.825 1145.19 116.825 1152.32 Q116.825 1159.42 118.631 1162.99 Q120.459 1166.53 124.07 1166.53 Q127.705 1166.53 129.51 1162.99 Q131.339 1159.42 131.339 1152.32 Q131.339 1145.19 129.51 1141.64 Q127.705 1138.08 124.07 1138.08 M124.07 1134.38 Q129.881 1134.38 132.936 1138.98 Q136.015 1143.57 136.015 1152.32 Q136.015 1161.04 132.936 1165.65 Q129.881 1170.23 124.07 1170.23 Q118.26 1170.23 115.182 1165.65 Q112.126 1161.04 112.126 1152.32 Q112.126 1143.57 115.182 1138.98 Q118.26 1134.38 124.07 1134.38 Z" fill="#000000" fill-rule="evenodd" fill-opacity="1" /><path clip-path="url(#clip120)" d="M66.5939 843.483 L54.7884 861.932 L66.5939 861.932 L66.5939 843.483 M65.367 839.409 L71.2466 839.409 L71.2466 861.932 L76.1772 861.932 L76.1772 865.821 L71.2466 865.821 L71.2466 873.969 L66.5939 873.969 L66.5939 865.821 L50.9921 865.821 L50.9921 861.307 L65.367 839.409 Z" fill="#000000" fill-rule="evenodd" fill-opacity="1" /><path clip-path="url(#clip120)" d="M93.9086 842.487 Q90.2975 842.487 88.4688 846.052 Q86.6632 849.594 86.6632 856.723 Q86.6632 863.83 88.4688 867.395 Q90.2975 870.936 93.9086 870.936 Q97.5428 870.936 99.3483 867.395 Q101.177 863.83 101.177 856.723 Q101.177 849.594 99.3483 846.052 Q97.5428 842.487 93.9086 842.487 M93.9086 838.784 Q99.7187 838.784 102.774 843.39 Q105.853 847.973 105.853 856.723 Q105.853 865.45 102.774 870.057 Q99.7187 874.64 93.9086 874.64 Q88.0984 874.64 85.0197 870.057 Q81.9642 865.45 81.9642 856.723 Q81.9642 847.973 85.0197 843.39 Q88.0984 838.784 93.9086 838.784 Z" fill="#000000" fill-rule="evenodd" fill-opacity="1" /><path clip-path="url(#clip120)" d="M124.07 842.487 Q120.459 842.487 118.631 846.052 Q116.825 849.594 116.825 856.723 Q116.825 863.83 118.631 867.395 Q120.459 870.936 124.07 870.936 Q127.705 870.936 129.51 867.395 Q131.339 863.83 131.339 856.723 Q131.339 849.594 129.51 846.052 Q127.705 842.487 124.07 842.487 M124.07 838.784 Q129.881 838.784 132.936 843.39 Q136.015 847.973 136.015 856.723 Q136.015 865.45 132.936 870.057 Q129.881 874.64 124.07 874.64 Q118.26 874.64 115.182 870.057 Q112.126 865.45 112.126 856.723 Q112.126 847.973 115.182 843.39 Q118.26 838.784 124.07 838.784 Z" fill="#000000" fill-rule="evenodd" fill-opacity="1" /><path clip-path="url(#clip120)" d="M64.3254 559.233 Q61.1773 559.233 59.3254 561.386 Q57.4967 563.539 57.4967 567.289 Q57.4967 571.015 59.3254 573.191 Q61.1773 575.344 64.3254 575.344 Q67.4735 575.344 69.3022 573.191 Q71.1541 571.015 71.1541 567.289 Q71.1541 563.539 69.3022 561.386 Q67.4735 559.233 64.3254 559.233 M73.6077 544.58 L73.6077 548.84 Q71.8485 548.006 70.0429 547.566 Q68.2606 547.127 66.5013 547.127 Q61.8717 547.127 59.418 550.252 Q56.9875 553.377 56.6402 559.696 Q58.006 557.682 60.0662 556.617 Q62.1263 555.529 64.6032 555.529 Q69.8115 555.529 72.8207 558.701 Q75.8531 561.849 75.8531 567.289 Q75.8531 572.613 72.705 575.83 Q69.5568 579.048 64.3254 579.048 Q58.33 579.048 55.1588 574.464 Q51.9875 569.858 51.9875 561.131 Q51.9875 552.937 55.8764 548.076 Q59.7652 543.191 66.3161 543.191 Q68.0754 543.191 69.8578 543.539 Q71.6633 543.886 73.6077 544.58 Z" fill="#000000" fill-rule="evenodd" fill-opacity="1" /><path clip-path="url(#clip120)" d="M93.9086 546.895 Q90.2975 546.895 88.4688 550.46 Q86.6632 554.002 86.6632 561.131 Q86.6632 568.238 88.4688 571.802 Q90.2975 575.344 93.9086 575.344 Q97.5428 575.344 99.3483 571.802 Q101.177 568.238 101.177 561.131 Q101.177 554.002 99.3483 550.46 Q97.5428 546.895 93.9086 546.895 M93.9086 543.191 Q99.7187 543.191 102.774 547.798 Q105.853 552.381 105.853 561.131 Q105.853 569.858 102.774 574.464 Q99.7187 579.048 93.9086 579.048 Q88.0984 579.048 85.0197 574.464 Q81.9642 569.858 81.9642 561.131 Q81.9642 552.381 85.0197 547.798 Q88.0984 543.191 93.9086 543.191 Z" fill="#000000" fill-rule="evenodd" fill-opacity="1" /><path clip-path="url(#clip120)" d="M124.07 546.895 Q120.459 546.895 118.631 550.46 Q116.825 554.002 116.825 561.131 Q116.825 568.238 118.631 571.802 Q120.459 575.344 124.07 575.344 Q127.705 575.344 129.51 571.802 Q131.339 568.238 131.339 561.131 Q131.339 554.002 129.51 550.46 Q127.705 546.895 124.07 546.895 M124.07 543.191 Q129.881 543.191 132.936 547.798 Q136.015 552.381 136.015 561.131 Q136.015 569.858 132.936 574.464 Q129.881 579.048 124.07 579.048 Q118.26 579.048 115.182 574.464 Q112.126 569.858 112.126 561.131 Q112.126 552.381 115.182 547.798 Q118.26 543.191 124.07 543.191 Z" fill="#000000" fill-rule="evenodd" fill-opacity="1" /><path clip-path="url(#clip120)" d="M63.7467 266.372 Q60.4134 266.372 58.4921 268.155 Q56.5939 269.937 56.5939 273.062 Q56.5939 276.187 58.4921 277.969 Q60.4134 279.752 63.7467 279.752 Q67.08 279.752 69.0013 277.969 Q70.9226 276.164 70.9226 273.062 Q70.9226 269.937 69.0013 268.155 Q67.1032 266.372 63.7467 266.372 M59.0708 264.382 Q56.0615 263.641 54.3717 261.581 Q52.7051 259.52 52.7051 256.557 Q52.7051 252.414 55.6449 250.007 Q58.6078 247.599 63.7467 247.599 Q68.9087 247.599 71.8485 250.007 Q74.7883 252.414 74.7883 256.557 Q74.7883 259.52 73.0985 261.581 Q71.4318 263.641 68.4457 264.382 Q71.8253 265.169 73.7003 267.46 Q75.5985 269.752 75.5985 273.062 Q75.5985 278.085 72.5198 280.77 Q69.4642 283.455 63.7467 283.455 Q58.0291 283.455 54.9504 280.77 Q51.8949 278.085 51.8949 273.062 Q51.8949 269.752 53.793 267.46 Q55.6912 265.169 59.0708 264.382 M57.3578 256.997 Q57.3578 259.682 59.0245 261.187 Q60.7143 262.692 63.7467 262.692 Q66.7559 262.692 68.4457 261.187 Q70.1587 259.682 70.1587 256.997 Q70.1587 254.312 68.4457 252.807 Q66.7559 251.303 63.7467 251.303 Q60.7143 251.303 59.0245 252.807 Q57.3578 254.312 57.3578 256.997 Z" fill="#000000" fill-rule="evenodd" fill-opacity="1" /><path clip-path="url(#clip120)" d="M93.9086 251.303 Q90.2975 251.303 88.4688 254.868 Q86.6632 258.409 86.6632 265.539 Q86.6632 272.645 88.4688 276.21 Q90.2975 279.752 93.9086 279.752 Q97.5428 279.752 99.3483 276.21 Q101.177 272.645 101.177 265.539 Q101.177 258.409 99.3483 254.868 Q97.5428 251.303 93.9086 251.303 M93.9086 247.599 Q99.7187 247.599 102.774 252.206 Q105.853 256.789 105.853 265.539 Q105.853 274.266 102.774 278.872 Q99.7187 283.455 93.9086 283.455 Q88.0984 283.455 85.0197 278.872 Q81.9642 274.266 81.9642 265.539 Q81.9642 256.789 85.0197 252.206 Q88.0984 247.599 93.9086 247.599 Z" fill="#000000" fill-rule="evenodd" fill-opacity="1" /><path clip-path="url(#clip120)" d="M124.07 251.303 Q120.459 251.303 118.631 254.868 Q116.825 258.409 116.825 265.539 Q116.825 272.645 118.631 276.21 Q120.459 279.752 124.07 279.752 Q127.705 279.752 129.51 276.21 Q131.339 272.645 131.339 265.539 Q131.339 258.409 129.51 254.868 Q127.705 251.303 124.07 251.303 M124.07 247.599 Q129.881 247.599 132.936 252.206 Q136.015 256.789 136.015 265.539 Q136.015 274.266 132.936 278.872 Q129.881 283.455 124.07 283.455 Q118.26 283.455 115.182 278.872 Q112.126 274.266 112.126 265.539 Q112.126 256.789 115.182 252.206 Q118.26 247.599 124.07 247.599 Z" fill="#000000" fill-rule="evenodd" fill-opacity="1" /><path clip-path="url(#clip120)" d="M631.092 18.8205 L631.092 65.8515 L640.977 65.8515 Q653.494 65.8515 659.287 60.1802 Q665.12 54.509 665.12 42.2752 Q665.12 30.1225 659.287 24.4918 Q653.494 18.8205 640.977 18.8205 L631.092 18.8205 M622.91 12.096 L639.721 12.096 Q657.302 12.096 665.525 19.4281 Q673.748 26.7198 673.748 42.2752 Q673.748 57.9117 665.485 65.2439 Q657.221 72.576 639.721 72.576 L622.91 72.576 L622.91 12.096 Z" fill="#000000" fill-rule="evenodd" fill-opacity="1" /><path clip-path="url(#clip120)" d="M707.087 49.7694 Q698.054 49.7694 694.57 51.8354 Q691.086 53.9013 691.086 58.8839 Q691.086 62.8538 693.679 65.2034 Q696.312 67.5124 700.809 67.5124 Q707.006 67.5124 710.733 63.1374 Q714.501 58.7219 714.501 51.4303 L714.501 49.7694 L707.087 49.7694 M721.954 46.6907 L721.954 72.576 L714.501 72.576 L714.501 65.6895 Q711.948 69.8214 708.141 71.8063 Q704.333 73.7508 698.824 73.7508 Q691.856 73.7508 687.724 69.8619 Q683.633 65.9325 683.633 59.3701 Q683.633 51.7138 688.737 47.825 Q693.881 43.9361 704.049 43.9361 L714.501 43.9361 L714.501 43.2069 Q714.501 38.0623 711.098 35.2672 Q707.736 32.4315 701.619 32.4315 Q697.73 32.4315 694.044 33.3632 Q690.357 34.295 686.954 36.1584 L686.954 29.2718 Q691.046 27.692 694.894 26.9223 Q698.743 26.1121 702.388 26.1121 Q712.232 26.1121 717.093 31.2163 Q721.954 36.3204 721.954 46.6907 Z" fill="#000000" fill-rule="evenodd" fill-opacity="1" /><path clip-path="url(#clip120)" d="M744.68 14.324 L744.68 27.2059 L760.033 27.2059 L760.033 32.9987 L744.68 32.9987 L744.68 57.6282 Q744.68 63.1779 746.179 64.7578 Q747.718 66.3376 752.377 66.3376 L760.033 66.3376 L760.033 72.576 L752.377 72.576 Q743.748 72.576 740.467 69.3758 Q737.186 66.1351 737.186 57.6282 L737.186 32.9987 L731.717 32.9987 L731.717 27.2059 L737.186 27.2059 L737.186 14.324 L744.68 14.324 Z" fill="#000000" fill-rule="evenodd" fill-opacity="1" /><path clip-path="url(#clip120)" d="M790.455 49.7694 Q781.422 49.7694 777.938 51.8354 Q774.454 53.9013 774.454 58.8839 Q774.454 62.8538 777.047 65.2034 Q779.68 67.5124 784.176 67.5124 Q790.374 67.5124 794.101 63.1374 Q797.868 58.7219 797.868 51.4303 L797.868 49.7694 L790.455 49.7694 M805.322 46.6907 L805.322 72.576 L797.868 72.576 L797.868 65.6895 Q795.316 69.8214 791.508 71.8063 Q787.7 73.7508 782.191 73.7508 Q775.224 73.7508 771.092 69.8619 Q767 65.9325 767 59.3701 Q767 51.7138 772.104 47.825 Q777.249 43.9361 787.417 43.9361 L797.868 43.9361 L797.868 43.2069 Q797.868 38.0623 794.465 35.2672 Q791.103 32.4315 784.986 32.4315 Q781.097 32.4315 777.411 33.3632 Q773.725 34.295 770.322 36.1584 L770.322 29.2718 Q774.413 27.692 778.262 26.9223 Q782.11 26.1121 785.756 26.1121 Q795.6 26.1121 800.461 31.2163 Q805.322 36.3204 805.322 46.6907 Z" fill="#000000" fill-rule="evenodd" fill-opacity="1" /><path clip-path="url(#clip120)" d="M867.665 49.7694 Q858.632 49.7694 855.148 51.8354 Q851.664 53.9013 851.664 58.8839 Q851.664 62.8538 854.257 65.2034 Q856.89 67.5124 861.386 67.5124 Q867.584 67.5124 871.311 63.1374 Q875.078 58.7219 875.078 51.4303 L875.078 49.7694 L867.665 49.7694 M882.532 46.6907 L882.532 72.576 L875.078 72.576 L875.078 65.6895 Q872.526 69.8214 868.718 71.8063 Q864.911 73.7508 859.401 73.7508 Q852.434 73.7508 848.302 69.8619 Q844.211 65.9325 844.211 59.3701 Q844.211 51.7138 849.315 47.825 Q854.459 43.9361 864.627 43.9361 L875.078 43.9361 L875.078 43.2069 Q875.078 38.0623 871.676 35.2672 Q868.313 32.4315 862.197 32.4315 Q858.308 32.4315 854.621 33.3632 Q850.935 34.295 847.532 36.1584 L847.532 29.2718 Q851.624 27.692 855.472 26.9223 Q859.32 26.1121 862.966 26.1121 Q872.81 26.1121 877.671 31.2163 Q882.532 36.3204 882.532 46.6907 Z" fill="#000000" fill-rule="evenodd" fill-opacity="1" /><path clip-path="url(#clip120)" d="M935.599 45.1919 L935.599 72.576 L928.145 72.576 L928.145 45.4349 Q928.145 38.994 925.634 35.7938 Q923.122 32.5936 918.099 32.5936 Q912.063 32.5936 908.579 36.4419 Q905.096 40.2903 905.096 46.9338 L905.096 72.576 L897.601 72.576 L897.601 27.2059 L905.096 27.2059 L905.096 34.2544 Q907.769 30.163 911.375 28.1376 Q915.02 26.1121 919.76 26.1121 Q927.578 26.1121 931.589 30.9732 Q935.599 35.7938 935.599 45.1919 Z" fill="#000000" fill-rule="evenodd" fill-opacity="1" /><path clip-path="url(#clip120)" d="M980.321 34.0924 L980.321 9.54393 L987.775 9.54393 L987.775 72.576 L980.321 72.576 L980.321 65.7705 Q977.971 69.8214 974.366 71.8063 Q970.801 73.7508 965.778 73.7508 Q957.555 73.7508 952.37 67.1883 Q947.225 60.6258 947.225 49.9314 Q947.225 39.2371 952.37 32.6746 Q957.555 26.1121 965.778 26.1121 Q970.801 26.1121 974.366 28.0971 Q977.971 30.0415 980.321 34.0924 M954.922 49.9314 Q954.922 58.1548 958.284 62.8538 Q961.687 67.5124 967.601 67.5124 Q973.515 67.5124 976.918 62.8538 Q980.321 58.1548 980.321 49.9314 Q980.321 41.7081 976.918 37.0496 Q973.515 32.3505 967.601 32.3505 Q961.687 32.3505 958.284 37.0496 Q954.922 41.7081 954.922 49.9314 Z" fill="#000000" fill-rule="evenodd" fill-opacity="1" /><path clip-path="url(#clip120)" d="M1021.44 12.096 L1072.6 12.096 L1072.6 18.9825 L1051.13 18.9825 L1051.13 72.576 L1042.91 72.576 L1042.91 18.9825 L1021.44 18.9825 L1021.44 12.096 Z" fill="#000000" fill-rule="evenodd" fill-opacity="1" /><path clip-path="url(#clip120)" d="M1094.27 34.1734 Q1093.02 33.4443 1091.52 33.1202 Q1090.06 32.7556 1088.28 32.7556 Q1081.96 32.7556 1078.56 36.8875 Q1075.19 40.9789 1075.19 48.6757 L1075.19 72.576 L1067.7 72.576 L1067.7 27.2059 L1075.19 27.2059 L1075.19 34.2544 Q1077.54 30.1225 1081.31 28.1376 Q1085.08 26.1121 1090.46 26.1121 Q1091.23 26.1121 1092.17 26.2337 Q1093.1 26.3147 1094.23 26.5172 L1094.27 34.1734 Z" fill="#000000" fill-rule="evenodd" fill-opacity="1" /><path clip-path="url(#clip120)" d="M1101.32 54.671 L1101.32 27.2059 L1108.78 27.2059 L1108.78 54.3874 Q1108.78 60.8284 1111.29 64.0691 Q1113.8 67.2693 1118.82 67.2693 Q1124.86 67.2693 1128.34 63.421 Q1131.87 59.5726 1131.87 52.9291 L1131.87 27.2059 L1139.32 27.2059 L1139.32 72.576 L1131.87 72.576 L1131.87 65.6084 Q1129.15 69.7404 1125.55 71.7658 Q1121.98 73.7508 1117.24 73.7508 Q1109.42 73.7508 1105.37 68.8897 Q1101.32 64.0286 1101.32 54.671 M1120.08 26.1121 L1120.08 26.1121 Z" fill="#000000" fill-rule="evenodd" fill-opacity="1" /><path clip-path="url(#clip120)" d="M1193.48 48.0275 L1193.48 51.6733 L1159.21 51.6733 Q1159.69 59.3701 1163.83 63.421 Q1168 67.4314 1175.41 67.4314 Q1179.71 67.4314 1183.72 66.3781 Q1187.77 65.3249 1191.74 63.2184 L1191.74 70.267 Q1187.73 71.9684 1183.51 72.8596 Q1179.3 73.7508 1174.97 73.7508 Q1164.11 73.7508 1157.75 67.4314 Q1151.43 61.1119 1151.43 50.3365 Q1151.43 39.1965 1157.43 32.6746 Q1163.46 26.1121 1173.67 26.1121 Q1182.83 26.1121 1188.13 32.0264 Q1193.48 37.9003 1193.48 48.0275 M1186.03 45.84 Q1185.94 39.7232 1182.58 36.0774 Q1179.26 32.4315 1173.75 32.4315 Q1167.51 32.4315 1163.75 35.9558 Q1160.02 39.4801 1159.45 45.8805 L1186.03 45.84 Z" fill="#000000" fill-rule="evenodd" fill-opacity="1" /><path clip-path="url(#clip120)" d="M1268.66 14.0809 L1268.66 22.0612 Q1264.01 19.8332 1259.87 18.7395 Q1255.74 17.6457 1251.89 17.6457 Q1245.21 17.6457 1241.56 20.2383 Q1237.96 22.8309 1237.96 27.611 Q1237.96 31.6214 1240.35 33.6873 Q1242.78 35.7128 1249.5 36.9686 L1254.45 37.9813 Q1263.6 39.7232 1267.94 44.1387 Q1272.31 48.5136 1272.31 55.8863 Q1272.31 64.6767 1266.4 69.2137 Q1260.52 73.7508 1249.14 73.7508 Q1244.84 73.7508 1239.98 72.7785 Q1235.16 71.8063 1229.98 69.9024 L1229.98 61.4765 Q1234.96 64.2716 1239.74 65.6895 Q1244.52 67.1073 1249.14 67.1073 Q1256.15 67.1073 1259.95 64.3527 Q1263.76 61.598 1263.76 56.4939 Q1263.76 52.0379 1261.01 49.5264 Q1258.29 47.0148 1252.06 45.759 L1247.07 44.7868 Q1237.92 42.9639 1233.83 39.075 Q1229.74 35.1862 1229.74 28.2591 Q1229.74 20.2383 1235.37 15.6203 Q1241.04 11.0023 1250.96 11.0023 Q1255.22 11.0023 1259.63 11.7719 Q1264.05 12.5416 1268.66 14.0809 Z" fill="#000000" fill-rule="evenodd" fill-opacity="1" /><path clip-path="url(#clip120)" d="M1292.12 14.324 L1292.12 27.2059 L1307.47 27.2059 L1307.47 32.9987 L1292.12 32.9987 L1292.12 57.6282 Q1292.12 63.1779 1293.62 64.7578 Q1295.16 66.3376 1299.82 66.3376 L1307.47 66.3376 L1307.47 72.576 L1299.82 72.576 Q1291.19 72.576 1287.91 69.3758 Q1284.62 66.1351 1284.62 57.6282 L1284.62 32.9987 L1279.16 32.9987 L1279.16 27.2059 L1284.62 27.2059 L1284.62 14.324 L1292.12 14.324 Z" fill="#000000" fill-rule="evenodd" fill-opacity="1" /><path clip-path="url(#clip120)" d="M1337.89 49.7694 Q1328.86 49.7694 1325.38 51.8354 Q1321.89 53.9013 1321.89 58.8839 Q1321.89 62.8538 1324.49 65.2034 Q1327.12 67.5124 1331.62 67.5124 Q1337.81 67.5124 1341.54 63.1374 Q1345.31 58.7219 1345.31 51.4303 L1345.31 49.7694 L1337.89 49.7694 M1352.76 46.6907 L1352.76 72.576 L1345.31 72.576 L1345.31 65.6895 Q1342.76 69.8214 1338.95 71.8063 Q1335.14 73.7508 1329.63 73.7508 Q1322.66 73.7508 1318.53 69.8619 Q1314.44 65.9325 1314.44 59.3701 Q1314.44 51.7138 1319.54 47.825 Q1324.69 43.9361 1334.86 43.9361 L1345.31 43.9361 L1345.31 43.2069 Q1345.31 38.0623 1341.9 35.2672 Q1338.54 32.4315 1332.43 32.4315 Q1328.54 32.4315 1324.85 33.3632 Q1321.16 34.295 1317.76 36.1584 L1317.76 29.2718 Q1321.85 27.692 1325.7 26.9223 Q1329.55 26.1121 1333.2 26.1121 Q1343.04 26.1121 1347.9 31.2163 Q1352.76 36.3204 1352.76 46.6907 Z" fill="#000000" fill-rule="evenodd" fill-opacity="1" /><path clip-path="url(#clip120)" d="M1375.49 14.324 L1375.49 27.2059 L1390.84 27.2059 L1390.84 32.9987 L1375.49 32.9987 L1375.49 57.6282 Q1375.49 63.1779 1376.99 64.7578 Q1378.52 66.3376 1383.18 66.3376 L1390.84 66.3376 L1390.84 72.576 L1383.18 72.576 Q1374.55 72.576 1371.27 69.3758 Q1367.99 66.1351 1367.99 57.6282 L1367.99 32.9987 L1362.52 32.9987 L1362.52 27.2059 L1367.99 27.2059 L1367.99 14.324 L1375.49 14.324 Z" fill="#000000" fill-rule="evenodd" fill-opacity="1" /><path clip-path="url(#clip120)" d="M1400.64 27.2059 L1408.1 27.2059 L1408.1 72.576 L1400.64 72.576 L1400.64 27.2059 M1400.64 9.54393 L1408.1 9.54393 L1408.1 18.9825 L1400.64 18.9825 L1400.64 9.54393 Z" fill="#000000" fill-rule="evenodd" fill-opacity="1" /><path clip-path="url(#clip120)" d="M1452.62 28.5427 L1452.62 35.5912 Q1449.46 33.9709 1446.05 33.1607 Q1442.65 32.3505 1439 32.3505 Q1433.46 32.3505 1430.66 34.0519 Q1427.91 35.7533 1427.91 39.156 Q1427.91 41.7486 1429.89 43.2475 Q1431.88 44.7058 1437.87 46.0426 L1440.42 46.6097 Q1448.36 48.3111 1451.68 51.4303 Q1455.05 54.509 1455.05 60.0587 Q1455.05 66.3781 1450.02 70.0644 Q1445.04 73.7508 1436.29 73.7508 Q1432.64 73.7508 1428.67 73.0216 Q1424.75 72.3329 1420.37 70.9151 L1420.37 63.2184 Q1424.5 65.3654 1428.51 66.4591 Q1432.52 67.5124 1436.45 67.5124 Q1441.72 67.5124 1444.55 65.73 Q1447.39 63.9071 1447.39 60.6258 Q1447.39 57.5877 1445.32 55.9673 Q1443.3 54.3469 1436.37 52.8481 L1433.78 52.2405 Q1426.85 50.7821 1423.77 47.7845 Q1420.69 44.7463 1420.69 39.4801 Q1420.69 33.0797 1425.23 29.5959 Q1429.77 26.1121 1438.11 26.1121 Q1442.25 26.1121 1445.89 26.7198 Q1449.54 27.3274 1452.62 28.5427 Z" fill="#000000" fill-rule="evenodd" fill-opacity="1" /><path clip-path="url(#clip120)" d="M1474.29 14.324 L1474.29 27.2059 L1489.64 27.2059 L1489.64 32.9987 L1474.29 32.9987 L1474.29 57.6282 Q1474.29 63.1779 1475.79 64.7578 Q1477.33 66.3376 1481.98 66.3376 L1489.64 66.3376 L1489.64 72.576 L1481.98 72.576 Q1473.36 72.576 1470.08 69.3758 Q1466.79 66.1351 1466.79 57.6282 L1466.79 32.9987 L1461.33 32.9987 L1461.33 27.2059 L1466.79 27.2059 L1466.79 14.324 L1474.29 14.324 Z" fill="#000000" fill-rule="evenodd" fill-opacity="1" /><path clip-path="url(#clip120)" d="M1499.44 27.2059 L1506.9 27.2059 L1506.9 72.576 L1499.44 72.576 L1499.44 27.2059 M1499.44 9.54393 L1506.9 9.54393 L1506.9 18.9825 L1499.44 18.9825 L1499.44 9.54393 Z" fill="#000000" fill-rule="evenodd" fill-opacity="1" /><path clip-path="url(#clip120)" d="M1555.14 28.9478 L1555.14 35.9153 Q1551.98 34.1734 1548.78 33.3227 Q1545.62 32.4315 1542.38 32.4315 Q1535.13 32.4315 1531.12 37.0496 Q1527.11 41.6271 1527.11 49.9314 Q1527.11 58.2358 1531.12 62.8538 Q1535.13 67.4314 1542.38 67.4314 Q1545.62 67.4314 1548.78 66.5807 Q1551.98 65.6895 1555.14 63.9476 L1555.14 70.8341 Q1552.03 72.2924 1548.66 73.0216 Q1545.34 73.7508 1541.57 73.7508 Q1531.32 73.7508 1525.29 67.3098 Q1519.25 60.8689 1519.25 49.9314 Q1519.25 38.832 1525.33 32.472 Q1531.45 26.1121 1542.06 26.1121 Q1545.5 26.1121 1548.78 26.8413 Q1552.07 27.5299 1555.14 28.9478 Z" fill="#000000" fill-rule="evenodd" fill-opacity="1" /><path clip-path="url(#clip120)" d="M1588.73 49.7694 Q1579.69 49.7694 1576.21 51.8354 Q1572.73 53.9013 1572.73 58.8839 Q1572.73 62.8538 1575.32 65.2034 Q1577.95 67.5124 1582.45 67.5124 Q1588.65 67.5124 1592.37 63.1374 Q1596.14 58.7219 1596.14 51.4303 L1596.14 49.7694 L1588.73 49.7694 M1603.59 46.6907 L1603.59 72.576 L1596.14 72.576 L1596.14 65.6895 Q1593.59 69.8214 1589.78 71.8063 Q1585.97 73.7508 1580.46 73.7508 Q1573.49 73.7508 1569.36 69.8619 Q1565.27 65.9325 1565.27 59.3701 Q1565.27 51.7138 1570.38 47.825 Q1575.52 43.9361 1585.69 43.9361 L1596.14 43.9361 L1596.14 43.2069 Q1596.14 38.0623 1592.74 35.2672 Q1589.37 32.4315 1583.26 32.4315 Q1579.37 32.4315 1575.68 33.3632 Q1572 34.295 1568.59 36.1584 L1568.59 29.2718 Q1572.68 27.692 1576.53 26.9223 Q1580.38 26.1121 1584.03 26.1121 Q1593.87 26.1121 1598.73 31.2163 Q1603.59 36.3204 1603.59 46.6907 Z" fill="#000000" fill-rule="evenodd" fill-opacity="1" /><path clip-path="url(#clip120)" d="M1618.95 9.54393 L1626.4 9.54393 L1626.4 72.576 L1618.95 72.576 L1618.95 9.54393 Z" fill="#000000" fill-rule="evenodd" fill-opacity="1" /><path clip-path="url(#clip120)" d="M1668.69 12.096 L1680.88 12.096 L1696.32 53.2532 L1711.83 12.096 L1724.03 12.096 L1724.03 72.576 L1716.05 72.576 L1716.05 19.4686 L1700.45 60.9499 L1692.23 60.9499 L1676.63 19.4686 L1676.63 72.576 L1668.69 72.576 L1668.69 12.096 Z" fill="#000000" fill-rule="evenodd" fill-opacity="1" /><path clip-path="url(#clip120)" d="M1757.53 32.4315 Q1751.53 32.4315 1748.05 37.1306 Q1744.56 41.7891 1744.56 49.9314 Q1744.56 58.0738 1748.01 62.7728 Q1751.49 67.4314 1757.53 67.4314 Q1763.48 67.4314 1766.97 62.7323 Q1770.45 58.0333 1770.45 49.9314 Q1770.45 41.8701 1766.97 37.1711 Q1763.48 32.4315 1757.53 32.4315 M1757.53 26.1121 Q1767.25 26.1121 1772.8 32.4315 Q1778.35 38.7509 1778.35 49.9314 Q1778.35 61.0714 1772.8 67.4314 Q1767.25 73.7508 1757.53 73.7508 Q1747.76 73.7508 1742.21 67.4314 Q1736.71 61.0714 1736.71 49.9314 Q1736.71 38.7509 1742.21 32.4315 Q1747.76 26.1121 1757.53 26.1121 Z" fill="#000000" fill-rule="evenodd" fill-opacity="1" /><path clip-path="url(#clip120)" d="M1820.56 34.0924 L1820.56 9.54393 L1828.01 9.54393 L1828.01 72.576 L1820.56 72.576 L1820.56 65.7705 Q1818.21 69.8214 1814.6 71.8063 Q1811.04 73.7508 1806.02 73.7508 Q1797.79 73.7508 1792.61 67.1883 Q1787.46 60.6258 1787.46 49.9314 Q1787.46 39.2371 1792.61 32.6746 Q1797.79 26.1121 1806.02 26.1121 Q1811.04 26.1121 1814.6 28.0971 Q1818.21 30.0415 1820.56 34.0924 M1795.16 49.9314 Q1795.16 58.1548 1798.52 62.8538 Q1801.93 67.5124 1807.84 67.5124 Q1813.75 67.5124 1817.16 62.8538 Q1820.56 58.1548 1820.56 49.9314 Q1820.56 41.7081 1817.16 37.0496 Q1813.75 32.3505 1807.84 32.3505 Q1801.93 32.3505 1798.52 37.0496 Q1795.16 41.7081 1795.16 49.9314 Z" fill="#000000" fill-rule="evenodd" fill-opacity="1" /><path clip-path="url(#clip120)" d="M1882.17 48.0275 L1882.17 51.6733 L1847.9 51.6733 Q1848.39 59.3701 1852.52 63.421 Q1856.69 67.4314 1864.11 67.4314 Q1868.4 67.4314 1872.41 66.3781 Q1876.46 65.3249 1880.43 63.2184 L1880.43 70.267 Q1876.42 71.9684 1872.21 72.8596 Q1868 73.7508 1863.66 73.7508 Q1852.8 73.7508 1846.44 67.4314 Q1840.13 61.1119 1840.13 50.3365 Q1840.13 39.1965 1846.12 32.6746 Q1852.16 26.1121 1862.36 26.1121 Q1871.52 26.1121 1876.83 32.0264 Q1882.17 37.9003 1882.17 48.0275 M1874.72 45.84 Q1874.64 39.7232 1871.28 36.0774 Q1867.96 32.4315 1862.45 32.4315 Q1856.21 32.4315 1852.44 35.9558 Q1848.71 39.4801 1848.15 45.8805 L1874.72 45.84 Z" fill="#000000" fill-rule="evenodd" fill-opacity="1" /><path clip-path="url(#clip120)" d="M1894.41 9.54393 L1901.86 9.54393 L1901.86 72.576 L1894.41 72.576 L1894.41 9.54393 Z" fill="#000000" fill-rule="evenodd" fill-opacity="1" /><polyline clip-path="url(#clip122)" style="stroke:#009af9; stroke-linecap:butt; stroke-linejoin:round; stroke-width:4; stroke-opacity:1; fill:none" points="
  748.06,1447.87 748.06,1388.75 773.776,1388.75 773.776,1211.4 799.492,1211.4 799.492,1359.2 825.208,1359.2 825.208,1226.18 850.925,1226.18 850.925,1181.84 
  876.641,1181.84 876.641,1034.04 902.357,1034.04 902.357,1063.6 928.074,1063.6 928.074,886.248 953.79,886.248 953.79,1019.26 979.506,1019.26 979.506,708.893 
  1005.22,708.893 1005.22,901.027 1030.94,901.027 1030.94,945.366 1056.66,945.366 1082.37,945.366 1082.37,915.807 1108.09,915.807 1108.09,1107.94 
  1133.8,1107.94 1159.52,1107.94 1159.52,1226.18 1185.24,1226.18 1185.24,1181.84 1210.95,1181.84 1210.95,1270.52 1236.67,1270.52 1236.67,1329.64 
  1262.39,1329.64 1262.39,1344.42 1288.1,1344.42 1288.1,1373.98 1313.82,1373.98 1313.82,1388.75 1339.53,1388.75 1339.53,1447.87 1365.25,1447.87 1365.25,1388.75 
  1390.97,1388.75 1390.97,1433.09 1416.68,1433.09 1416.68,1403.53 1442.4,1403.53 1442.4,1388.75 1468.12,1388.75 1493.83,1388.75 1493.83,1344.42 
  1519.55,1344.42 1519.55,1329.64 1545.26,1329.64 1545.26,1167.06 1570.98,1167.06 1570.98,1004.48 1596.7,1004.48 1596.7,856.689 1622.41,856.689 1622.41,886.248 
  1648.13,886.248 1648.13,812.35 1673.85,812.35 1673.85,235.945 1699.56,235.945 1699.56,368.961 1725.28,368.961 1725.28,457.639 1750.99,457.639 1750.99,162.047 
  1776.71,162.047 1776.71,428.08 1802.43,428.08 1802.43,206.386 1828.14,206.386 1828.14,221.165 1853.86,221.165 1853.86,546.317 1879.58,546.317 1879.58,620.215 
  1905.29,620.215 1905.29,960.146 1931.01,960.146 1931.01,974.926 1956.73,974.926 1956.73,1048.82 1982.44,1048.82 1982.44,1211.4 2008.16,1211.4 2008.16,1285.3 
  2033.87,1285.3 2033.87,1344.42 2059.59,1344.42 2059.59,1418.31 2085.31,1418.31 2111.02,1418.31 2111.02,1388.75 2136.74,1388.75 2136.74,1433.09 
  2162.46,1433.09 2162.46,1418.31 2188.17,1418.31 2213.89,1418.31 2213.89,1447.87 2239.6,1447.87 2265.32,1447.87 
  2291.04,1447.87 
  "/>
<polyline clip-path="url(#clip122)" style="stroke:#e26f46; stroke-linecap:butt; stroke-linejoin:round; stroke-width:4; stroke-opacity:1; fill:none" points="
  233.734,1447.87 236.306,1447.87 238.877,1447.87 241.449,1447.87 244.02,1447.87 246.592,1447.87 249.164,1447.87 251.735,1447.87 254.307,1447.87 256.879,1447.87 
  259.45,1447.87 262.022,1447.87 264.593,1447.87 267.165,1447.87 269.737,1447.87 272.308,1447.87 274.88,1447.87 277.452,1447.87 280.023,1447.87 282.595,1447.87 
  285.166,1447.87 287.738,1447.87 290.31,1447.87 292.881,1447.87 295.453,1447.87 298.025,1447.87 300.596,1447.87 303.168,1447.87 305.74,1447.87 308.311,1447.87 
  310.883,1447.87 313.454,1447.87 316.026,1447.87 318.598,1447.87 321.169,1447.87 323.741,1447.87 326.313,1447.87 328.884,1447.87 331.456,1447.87 334.027,1447.87 
  336.599,1447.87 339.171,1447.87 341.742,1447.87 344.314,1447.87 346.886,1447.87 349.457,1447.87 352.029,1447.87 354.6,1447.87 357.172,1447.87 359.744,1447.87 
  362.315,1447.87 364.887,1447.87 367.459,1447.87 370.03,1447.87 372.602,1447.87 375.173,1447.87 377.745,1447.87 380.317,1447.87 382.888,1447.87 385.46,1447.87 
  388.032,1447.87 390.603,1447.87 393.175,1447.87 395.747,1447.87 398.318,1447.86 400.89,1447.86 403.461,1447.86 406.033,1447.86 408.605,1447.86 411.176,1447.86 
  413.748,1447.86 416.32,1447.86 418.891,1447.86 421.463,1447.85 424.034,1447.85 426.606,1447.85 429.178,1447.85 431.749,1447.84 434.321,1447.84 436.893,1447.84 
  439.464,1447.84 442.036,1447.83 444.607,1447.83 447.179,1447.83 449.751,1447.82 452.322,1447.82 454.894,1447.81 457.466,1447.81 460.037,1447.8 462.609,1447.79 
  465.18,1447.79 467.752,1447.78 470.324,1447.77 472.895,1447.76 475.467,1447.75 478.039,1447.74 480.61,1447.73 483.182,1447.72 485.754,1447.7 488.325,1447.69 
  490.897,1447.68 493.468,1447.66 496.04,1447.64 498.612,1447.62 501.183,1447.6 503.755,1447.58 506.327,1447.56 508.898,1447.53 511.47,1447.5 514.041,1447.47 
  516.613,1447.44 519.185,1447.41 521.756,1447.37 524.328,1447.33 526.9,1447.29 529.471,1447.25 532.043,1447.2 534.614,1447.15 537.186,1447.09 539.758,1447.03 
  542.329,1446.97 544.901,1446.9 547.473,1446.83 550.044,1446.75 552.616,1446.67 555.187,1446.58 557.759,1446.49 560.331,1446.39 562.902,1446.28 565.474,1446.17 
  568.046,1446.05 570.617,1445.92 573.189,1445.79 575.761,1445.64 578.332,1445.49 580.904,1445.33 583.475,1445.15 586.047,1444.97 588.619,1444.78 591.19,1444.57 
  593.762,1444.35 596.334,1444.12 598.905,1443.87 601.477,1443.61 604.048,1443.34 606.62,1443.04 609.192,1442.74 611.763,1442.41 614.335,1442.07 616.907,1441.71 
  619.478,1441.32 622.05,1440.92 624.621,1440.49 627.193,1440.05 629.765,1439.57 632.336,1439.08 634.908,1438.55 637.48,1438 640.051,1437.42 642.623,1436.81 
  645.194,1436.17 647.766,1435.5 650.338,1434.8 652.909,1434.06 655.481,1433.28 658.053,1432.47 660.624,1431.62 663.196,1430.73 665.768,1429.8 668.339,1428.82 
  670.911,1427.8 673.482,1426.73 676.054,1425.62 678.626,1424.45 681.197,1423.24 683.769,1421.97 686.341,1420.64 688.912,1419.27 691.484,1417.83 694.055,1416.33 
  696.627,1414.77 699.199,1413.15 701.77,1411.47 704.342,1409.72 706.914,1407.9 709.485,1406.01 712.057,1404.04 714.628,1402.01 717.2,1399.9 719.772,1397.71 
  722.343,1395.44 724.915,1393.1 727.487,1390.67 730.058,1388.15 732.63,1385.55 735.201,1382.87 737.773,1380.09 740.345,1377.23 742.916,1374.27 745.488,1371.22 
  748.06,1368.08 750.631,1364.84 753.203,1361.5 755.775,1358.06 758.346,1354.53 760.918,1350.9 763.489,1347.16 766.061,1343.32 768.633,1339.38 771.204,1335.34 
  773.776,1331.19 776.348,1326.93 778.919,1322.58 781.491,1318.11 784.062,1313.55 786.634,1308.87 789.206,1304.09 791.777,1299.21 794.349,1294.22 796.921,1289.13 
  799.492,1283.94 802.064,1278.64 804.635,1273.24 807.207,1267.74 809.779,1262.15 812.35,1256.45 814.922,1250.66 817.494,1244.78 820.065,1238.8 822.637,1232.73 
  825.208,1226.58 827.78,1220.34 830.352,1214.02 832.923,1207.62 835.495,1201.15 838.067,1194.6 840.638,1187.98 843.21,1181.29 845.782,1174.54 848.353,1167.74 
  850.925,1160.87 853.496,1153.96 856.068,1147 858.64,1140 861.211,1132.97 863.783,1125.9 866.355,1118.8 868.926,1111.68 871.498,1104.55 874.069,1097.4 
  876.641,1090.25 879.213,1083.1 881.784,1075.95 884.356,1068.82 886.928,1061.7 889.499,1054.61 892.071,1047.55 894.642,1040.52 897.214,1033.54 899.786,1026.6 
  902.357,1019.72 904.929,1012.9 907.501,1006.15 910.072,999.476 912.644,992.881 915.215,986.374 917.787,979.961 920.359,973.649 922.93,967.444 925.502,961.352 
  928.074,955.38 930.645,949.534 933.217,943.821 935.789,938.245 938.36,932.815 940.932,927.534 943.503,922.41 946.075,917.447 948.647,912.652 951.218,908.029 
  953.79,903.584 956.362,899.322 958.933,895.248 961.505,891.366 964.076,887.681 966.648,884.197 969.22,880.918 971.791,877.848 974.363,874.991 976.935,872.349 
  979.506,869.927 982.078,867.727 984.649,865.751 987.221,864.002 989.793,862.482 992.364,861.193 994.936,860.136 997.508,859.312 1000.08,858.723 1002.65,858.37 
  1005.22,858.252 1007.79,858.37 1010.37,858.723 1012.94,859.312 1015.51,860.136 1018.08,861.193 1020.65,862.482 1023.22,864.002 1025.8,865.751 1028.37,867.727 
  1030.94,869.927 1033.51,872.349 1036.08,874.991 1038.65,877.848 1041.23,880.918 1043.8,884.197 1046.37,887.681 1048.94,891.366 1051.51,895.248 1054.08,899.322 
  1056.66,903.584 1059.23,908.029 1061.8,912.652 1064.37,917.447 1066.94,922.41 1069.51,927.534 1072.08,932.814 1074.66,938.245 1077.23,943.82 1079.8,949.534 
  1082.37,955.38 1084.94,961.351 1087.51,967.443 1090.09,973.648 1092.66,979.96 1095.23,986.373 1097.8,992.88 1100.37,999.474 1102.94,1006.15 1105.52,1012.9 
  1108.09,1019.72 1110.66,1026.6 1113.23,1033.53 1115.8,1040.52 1118.37,1047.54 1120.95,1054.61 1123.52,1061.7 1126.09,1068.82 1128.66,1075.95 1131.23,1083.09 
  1133.8,1090.25 1136.38,1097.4 1138.95,1104.54 1141.52,1111.68 1144.09,1118.79 1146.66,1125.89 1149.23,1132.96 1151.81,1139.99 1154.38,1146.99 1156.95,1153.95 
  1159.52,1160.86 1162.09,1167.72 1164.66,1174.53 1167.24,1181.28 1169.81,1187.96 1172.38,1194.58 1174.95,1201.13 1177.52,1207.6 1180.09,1214 1182.66,1220.32 
  1185.24,1226.55 1187.81,1232.7 1190.38,1238.76 1192.95,1244.74 1195.52,1250.62 1198.09,1256.4 1200.67,1262.09 1203.24,1267.69 1205.81,1273.18 1208.38,1278.57 
  1210.95,1283.86 1213.52,1289.05 1216.1,1294.13 1218.67,1299.11 1221.24,1303.99 1223.81,1308.76 1226.38,1313.42 1228.95,1317.98 1231.53,1322.43 1234.1,1326.77 
  1236.67,1331.01 1239.24,1335.15 1241.81,1339.17 1244.38,1343.1 1246.96,1346.92 1249.53,1350.63 1252.1,1354.24 1254.67,1357.75 1257.24,1361.16 1259.81,1364.47 
  1262.39,1367.68 1264.96,1370.79 1267.53,1373.81 1270.1,1376.73 1272.67,1379.55 1275.24,1382.28 1277.82,1384.92 1280.39,1387.47 1282.96,1389.93 1285.53,1392.3 
  1288.1,1394.58 1290.67,1396.78 1293.24,1398.89 1295.82,1400.93 1298.39,1402.88 1300.96,1404.75 1303.53,1406.55 1306.1,1408.26 1308.67,1409.9 1311.25,1411.47 
  1313.82,1412.97 1316.39,1414.39 1318.96,1415.74 1321.53,1417.02 1324.1,1418.24 1326.68,1419.39 1329.25,1420.47 1331.82,1421.49 1334.39,1422.44 1336.96,1423.33 
  1339.53,1424.16 1342.11,1424.92 1344.68,1425.63 1347.25,1426.27 1349.82,1426.85 1352.39,1427.38 1354.96,1427.85 1357.54,1428.25 1360.11,1428.6 1362.68,1428.89 
  1365.25,1429.13 1367.82,1429.3 1370.39,1429.42 1372.97,1429.48 1375.54,1429.48 1378.11,1429.42 1380.68,1429.3 1383.25,1429.12 1385.82,1428.88 1388.4,1428.58 
  1390.97,1428.22 1393.54,1427.8 1396.11,1427.31 1398.68,1426.76 1401.25,1426.14 1403.82,1425.45 1406.4,1424.69 1408.97,1423.87 1411.54,1422.97 1414.11,1422 
  1416.68,1420.95 1419.25,1419.83 1421.83,1418.63 1424.4,1417.34 1426.97,1415.98 1429.54,1414.52 1432.11,1412.98 1434.68,1411.35 1437.26,1409.63 1439.83,1407.82 
  1442.4,1405.9 1444.97,1403.89 1447.54,1401.77 1450.11,1399.55 1452.69,1397.21 1455.26,1394.77 1457.83,1392.21 1460.4,1389.54 1462.97,1386.74 1465.54,1383.82 
  1468.12,1380.77 1470.69,1377.59 1473.26,1374.28 1475.83,1370.83 1478.4,1367.25 1480.97,1363.51 1483.55,1359.63 1486.12,1355.6 1488.69,1351.42 1491.26,1347.08 
  1493.83,1342.58 1496.4,1337.92 1498.98,1333.09 1501.55,1328.09 1504.12,1322.92 1506.69,1317.57 1509.26,1312.04 1511.83,1306.33 1514.4,1300.44 1516.98,1294.35 
  1519.55,1288.08 1522.12,1281.62 1524.69,1274.96 1527.26,1268.1 1529.83,1261.04 1532.41,1253.79 1534.98,1246.32 1537.55,1238.66 1540.12,1230.79 1542.69,1222.7 
  1545.26,1214.42 1547.84,1205.92 1550.41,1197.21 1552.98,1188.29 1555.55,1179.16 1558.12,1169.81 1560.69,1160.26 1563.27,1150.5 1565.84,1140.53 1568.41,1130.35 
  1570.98,1119.96 1573.55,1109.37 1576.12,1098.58 1578.7,1087.58 1581.27,1076.39 1583.84,1065.01 1586.41,1053.43 1588.98,1041.66 1591.55,1029.71 1594.13,1017.58 
  1596.7,1005.28 1599.27,992.8 1601.84,980.16 1604.41,967.362 1606.98,954.41 1609.56,941.311 1612.13,928.073 1614.7,914.702 1617.27,901.206 1619.84,887.592 
  1622.41,873.868 1624.99,860.044 1627.56,846.127 1630.13,832.127 1632.7,818.053 1635.27,803.915 1637.84,789.723 1640.41,775.488 1642.99,761.219 1645.56,746.927 
  1648.13,732.624 1650.7,718.321 1653.27,704.03 1655.84,689.762 1658.42,675.53 1660.99,661.344 1663.56,647.219 1666.13,633.166 1668.7,619.198 1671.27,605.327 
  1673.85,591.567 1676.42,577.93 1678.99,564.429 1681.56,551.077 1684.13,537.888 1686.7,524.874 1689.28,512.049 1691.85,499.424 1694.42,487.014 1696.99,474.831 
  1699.56,462.887 1702.13,451.195 1704.71,439.768 1707.28,428.618 1709.85,417.756 1712.42,407.195 1714.99,396.946 1717.56,387.021 1720.14,377.43 1722.71,368.185 
  1725.28,359.295 1727.85,350.771 1730.42,342.622 1732.99,334.858 1735.57,327.488 1738.14,320.52 1740.71,313.963 1743.28,307.823 1745.85,302.108 1748.42,296.826 
  1750.99,291.981 1753.57,287.581 1756.14,283.629 1758.71,280.131 1761.28,277.091 1763.85,274.512 1766.42,272.398 1769,270.751 1771.57,269.574 1774.14,268.867 
  1776.71,268.631 1779.28,268.867 1781.85,269.574 1784.43,270.751 1787,272.398 1789.57,274.512 1792.14,277.091 1794.71,280.131 1797.28,283.629 1799.86,287.581 
  1802.43,291.981 1805,296.826 1807.57,302.109 1810.14,307.823 1812.71,313.963 1815.29,320.52 1817.86,327.488 1820.43,334.859 1823,342.622 1825.57,350.771 
  1828.14,359.295 1830.72,368.185 1833.29,377.431 1835.86,387.021 1838.43,396.947 1841,407.195 1843.57,417.756 1846.15,428.618 1848.72,439.768 1851.29,451.195 
  1853.86,462.887 1856.43,474.831 1859,487.014 1861.57,499.425 1864.15,512.049 1866.72,524.875 1869.29,537.889 1871.86,551.078 1874.43,564.429 1877,577.93 
  1879.58,591.567 1882.15,605.328 1884.72,619.199 1887.29,633.167 1889.86,647.22 1892.43,661.346 1895.01,675.531 1897.58,689.764 1900.15,704.032 1902.72,718.323 
  1905.29,732.626 1907.86,746.929 1910.44,761.221 1913.01,775.491 1915.58,789.727 1918.15,803.919 1920.72,818.057 1923.29,832.131 1925.87,846.132 1928.44,860.049 
  1931.01,873.874 1933.58,887.598 1936.15,901.213 1938.72,914.71 1941.3,928.082 1943.87,941.321 1946.44,954.42 1949.01,967.373 1951.58,980.173 1954.15,992.814 
  1956.73,1005.29 1959.3,1017.6 1961.87,1029.73 1964.44,1041.68 1967.01,1053.45 1969.58,1065.03 1972.15,1076.42 1974.73,1087.61 1977.3,1098.61 1979.87,1109.41 
  1982.44,1120 1985.01,1130.39 1987.58,1140.57 1990.16,1150.55 1992.73,1160.31 1995.3,1169.87 1997.87,1179.22 2000.44,1188.35 2003.01,1197.28 2005.59,1206 
  2008.16,1214.5 2010.73,1222.8 2013.3,1230.89 2015.87,1238.77 2018.44,1246.45 2021.02,1253.92 2023.59,1261.19 2026.16,1268.26 2028.73,1275.13 2031.3,1281.8 
  2033.87,1288.28 2036.45,1294.57 2039.02,1300.67 2041.59,1306.58 2044.16,1312.31 2046.73,1317.86 2049.3,1323.23 2051.88,1328.43 2054.45,1333.46 2057.02,1338.32 
  2059.59,1343.01 2062.16,1347.55 2064.73,1351.92 2067.31,1356.15 2069.88,1360.22 2072.45,1364.14 2075.02,1367.92 2077.59,1371.56 2080.16,1375.06 2082.73,1378.44 
  2085.31,1381.68 2087.88,1384.79 2090.45,1387.78 2093.02,1390.66 2095.59,1393.42 2098.16,1396.06 2100.74,1398.6 2103.31,1401.03 2105.88,1403.36 2108.45,1405.59 
  2111.02,1407.72 2113.59,1409.76 2116.17,1411.72 2118.74,1413.58 2121.31,1415.37 2123.88,1417.07 2126.45,1418.69 2129.02,1420.25 2131.6,1421.72 2134.17,1423.13 
  2136.74,1424.48 2139.31,1425.75 2141.88,1426.97 2144.45,1428.13 2147.03,1429.23 2149.6,1430.28 2152.17,1431.27 2154.74,1432.22 2157.31,1433.11 2159.88,1433.97 
  2162.46,1434.77 2165.03,1435.54 2167.6,1436.26 2170.17,1436.95 2172.74,1437.6 2175.31,1438.22 2177.89,1438.8 2180.46,1439.35 2183.03,1439.87 2185.6,1440.36 
  2188.17,1440.83 2190.74,1441.26 2193.31,1441.68 2195.89,1442.07 2198.46,1442.44 2201.03,1442.78 2203.6,1443.11 2206.17,1443.41 2208.74,1443.7 2211.32,1443.98 
  2213.89,1444.23 2216.46,1444.47 2219.03,1444.7 2221.6,1444.91 2224.17,1445.11 2226.75,1445.29 2229.32,1445.47 2231.89,1445.63 2234.46,1445.79 2237.03,1445.93 
  2239.6,1446.06 2242.18,1446.19 2244.75,1446.31 2247.32,1446.42 2249.89,1446.52 2252.46,1446.62 2255.03,1446.71 2257.61,1446.79 2260.18,1446.87 2262.75,1446.94 
  2265.32,1447.01 2267.89,1447.07 2270.46,1447.13 2273.04,1447.19 2275.61,1447.24 2278.18,1447.29 2280.75,1447.33 2283.32,1447.37 2285.89,1447.41 2288.47,1447.44 
  2291.04,1447.48 
  "/>
<path clip-path="url(#clip120)" d="
M1921.49 324.425 L2280.06 324.425 L2280.06 168.905 L1921.49 168.905  Z
  " fill="#ffffff" fill-rule="evenodd" fill-opacity="1"/>
<polyline clip-path="url(#clip120)" style="stroke:#000000; stroke-linecap:butt; stroke-linejoin:round; stroke-width:4; stroke-opacity:1; fill:none" points="
  1921.49,324.425 2280.06,324.425 2280.06,168.905 1921.49,168.905 1921.49,324.425 
  "/>
<polyline clip-path="url(#clip120)" style="stroke:#009af9; stroke-linecap:butt; stroke-linejoin:round; stroke-width:4; stroke-opacity:1; fill:none" points="
  1945.72,220.745 2091.1,220.745 
  "/>
<path clip-path="url(#clip120)" d="M2120.01 207.307 L2120.01 234.182 L2125.66 234.182 Q2132.81 234.182 2136.12 230.941 Q2139.45 227.701 2139.45 220.71 Q2139.45 213.766 2136.12 210.548 Q2132.81 207.307 2125.66 207.307 L2120.01 207.307 M2115.33 203.465 L2124.94 203.465 Q2134.98 203.465 2139.68 207.654 Q2144.38 211.821 2144.38 220.71 Q2144.38 229.645 2139.66 233.835 Q2134.94 238.025 2124.94 238.025 L2115.33 238.025 L2115.33 203.465 Z" fill="#000000" fill-rule="evenodd" fill-opacity="1" /><path clip-path="url(#clip120)" d="M2163.43 224.992 Q2158.27 224.992 2156.28 226.173 Q2154.29 227.353 2154.29 230.201 Q2154.29 232.469 2155.77 233.812 Q2157.28 235.131 2159.84 235.131 Q2163.39 235.131 2165.52 232.631 Q2167.67 230.108 2167.67 225.941 L2167.67 224.992 L2163.43 224.992 M2171.93 223.233 L2171.93 238.025 L2167.67 238.025 L2167.67 234.089 Q2166.21 236.451 2164.03 237.585 Q2161.86 238.696 2158.71 238.696 Q2154.73 238.696 2152.37 236.474 Q2150.03 234.228 2150.03 230.478 Q2150.03 226.103 2152.95 223.881 Q2155.89 221.659 2161.7 221.659 L2167.67 221.659 L2167.67 221.242 Q2167.67 218.303 2165.72 216.705 Q2163.8 215.085 2160.31 215.085 Q2158.09 215.085 2155.98 215.617 Q2153.87 216.15 2151.93 217.215 L2151.93 213.279 Q2154.27 212.377 2156.47 211.937 Q2158.66 211.474 2160.75 211.474 Q2166.37 211.474 2169.15 214.391 Q2171.93 217.307 2171.93 223.233 Z" fill="#000000" fill-rule="evenodd" fill-opacity="1" /><path clip-path="url(#clip120)" d="M2184.91 204.738 L2184.91 212.099 L2193.69 212.099 L2193.69 215.409 L2184.91 215.409 L2184.91 229.483 Q2184.91 232.654 2185.77 233.557 Q2186.65 234.46 2189.31 234.46 L2193.69 234.46 L2193.69 238.025 L2189.31 238.025 Q2184.38 238.025 2182.51 236.196 Q2180.63 234.344 2180.63 229.483 L2180.63 215.409 L2177.51 215.409 L2177.51 212.099 L2180.63 212.099 L2180.63 204.738 L2184.91 204.738 Z" fill="#000000" fill-rule="evenodd" fill-opacity="1" /><path clip-path="url(#clip120)" d="M2211.07 224.992 Q2205.91 224.992 2203.92 226.173 Q2201.93 227.353 2201.93 230.201 Q2201.93 232.469 2203.41 233.812 Q2204.91 235.131 2207.48 235.131 Q2211.03 235.131 2213.15 232.631 Q2215.31 230.108 2215.31 225.941 L2215.31 224.992 L2211.07 224.992 M2219.57 223.233 L2219.57 238.025 L2215.31 238.025 L2215.31 234.089 Q2213.85 236.451 2211.67 237.585 Q2209.5 238.696 2206.35 238.696 Q2202.37 238.696 2200.01 236.474 Q2197.67 234.228 2197.67 230.478 Q2197.67 226.103 2200.59 223.881 Q2203.53 221.659 2209.34 221.659 L2215.31 221.659 L2215.31 221.242 Q2215.31 218.303 2213.36 216.705 Q2211.44 215.085 2207.95 215.085 Q2205.72 215.085 2203.62 215.617 Q2201.51 216.15 2199.57 217.215 L2199.57 213.279 Q2201.9 212.377 2204.1 211.937 Q2206.3 211.474 2208.39 211.474 Q2214.01 211.474 2216.79 214.391 Q2219.57 217.307 2219.57 223.233 Z" fill="#000000" fill-rule="evenodd" fill-opacity="1" /><polyline clip-path="url(#clip120)" style="stroke:#e26f46; stroke-linecap:butt; stroke-linejoin:round; stroke-width:4; stroke-opacity:1; fill:none" points="
  1945.72,272.585 2091.1,272.585 
  "/>
<path clip-path="url(#clip120)" d="M2115.33 255.305 L2144.57 255.305 L2144.57 259.24 L2132.3 259.24 L2132.3 289.865 L2127.6 289.865 L2127.6 259.24 L2115.33 259.24 L2115.33 255.305 Z" fill="#000000" fill-rule="evenodd" fill-opacity="1" /><path clip-path="url(#clip120)" d="M2156.95 267.92 Q2156.23 267.504 2155.38 267.318 Q2154.54 267.11 2153.53 267.11 Q2149.91 267.11 2147.97 269.471 Q2146.05 271.809 2146.05 276.207 L2146.05 289.865 L2141.77 289.865 L2141.77 263.939 L2146.05 263.939 L2146.05 267.967 Q2147.39 265.606 2149.54 264.471 Q2151.7 263.314 2154.78 263.314 Q2155.22 263.314 2155.75 263.383 Q2156.28 263.43 2156.93 263.545 L2156.95 267.92 Z" fill="#000000" fill-rule="evenodd" fill-opacity="1" /><path clip-path="url(#clip120)" d="M2160.98 279.633 L2160.98 263.939 L2165.24 263.939 L2165.24 279.471 Q2165.24 283.152 2166.67 285.004 Q2168.11 286.832 2170.98 286.832 Q2174.43 286.832 2176.42 284.633 Q2178.43 282.434 2178.43 278.638 L2178.43 263.939 L2182.69 263.939 L2182.69 289.865 L2178.43 289.865 L2178.43 285.883 Q2176.88 288.244 2174.82 289.402 Q2172.78 290.536 2170.08 290.536 Q2165.61 290.536 2163.29 287.758 Q2160.98 284.98 2160.98 279.633 M2171.7 263.314 L2171.7 263.314 Z" fill="#000000" fill-rule="evenodd" fill-opacity="1" /><path clip-path="url(#clip120)" d="M2195.68 256.578 L2195.68 263.939 L2204.45 263.939 L2204.45 267.249 L2195.68 267.249 L2195.68 281.323 Q2195.68 284.494 2196.53 285.397 Q2197.41 286.3 2200.08 286.3 L2204.45 286.3 L2204.45 289.865 L2200.08 289.865 Q2195.15 289.865 2193.27 288.036 Q2191.4 286.184 2191.4 281.323 L2191.4 267.249 L2188.27 267.249 L2188.27 263.939 L2191.4 263.939 L2191.4 256.578 L2195.68 256.578 Z" fill="#000000" fill-rule="evenodd" fill-opacity="1" /><path clip-path="url(#clip120)" d="M2231.6 274.217 L2231.6 289.865 L2227.34 289.865 L2227.34 274.355 Q2227.34 270.675 2225.91 268.846 Q2224.47 267.018 2221.6 267.018 Q2218.15 267.018 2216.16 269.217 Q2214.17 271.416 2214.17 275.212 L2214.17 289.865 L2209.89 289.865 L2209.89 253.846 L2214.17 253.846 L2214.17 267.967 Q2215.7 265.629 2217.76 264.471 Q2219.84 263.314 2222.55 263.314 Q2227.02 263.314 2229.31 266.092 Q2231.6 268.846 2231.6 274.217 Z" fill="#000000" fill-rule="evenodd" fill-opacity="1" /></svg>
