<?xml version="1.0" encoding="utf-8"?>
<svg xmlns="http://www.w3.org/2000/svg" xmlns:xlink="http://www.w3.org/1999/xlink" width="600" height="400" viewBox="0 0 2400 1600">
<defs>
  <clipPath id="clip560">
    <rect x="0" y="0" width="2400" height="1600"/>
  </clipPath>
</defs>
<path clip-path="url(#clip560)" d="
M0 1600 L2400 1600 L2400 0 L0 0  Z
  " fill="#ffffff" fill-rule="evenodd" fill-opacity="1"/>
<defs>
  <clipPath id="clip561">
    <rect x="480" y="0" width="1681" height="1600"/>
  </clipPath>
</defs>
<path clip-path="url(#clip560)" d="
M172.015 1486.45 L2352.76 1486.45 L2352.76 123.472 L172.015 123.472  Z
  " fill="#ffffff" fill-rule="evenodd" fill-opacity="1"/>
<defs>
  <clipPath id="clip562">
    <rect x="172" y="123" width="2182" height="1364"/>
  </clipPath>
</defs>
<polyline clip-path="url(#clip562)" style="stroke:#000000; stroke-width:2; stroke-opacity:0.1; fill:none" points="
  233.734,1486.45 233.734,123.472 
  "/>
<polyline clip-path="url(#clip562)" style="stroke:#000000; stroke-width:2; stroke-opacity:0.1; fill:none" points="
  748.06,1486.45 748.06,123.472 
  "/>
<polyline clip-path="url(#clip562)" style="stroke:#000000; stroke-width:2; stroke-opacity:0.1; fill:none" points="
  1262.39,1486.45 1262.39,123.472 
  "/>
<polyline clip-path="url(#clip562)" style="stroke:#000000; stroke-width:2; stroke-opacity:0.1; fill:none" points="
  1776.71,1486.45 1776.71,123.472 
  "/>
<polyline clip-path="url(#clip562)" style="stroke:#000000; stroke-width:2; stroke-opacity:0.1; fill:none" points="
  2291.04,1486.45 2291.04,123.472 
  "/>
<polyline clip-path="url(#clip560)" style="stroke:#000000; stroke-width:4; stroke-opacity:1; fill:none" points="
  172.015,1486.45 2352.76,1486.45 
  "/>
<polyline clip-path="url(#clip560)" style="stroke:#000000; stroke-width:4; stroke-opacity:1; fill:none" points="
  233.734,1486.45 233.734,1470.09 
  "/>
<polyline clip-path="url(#clip560)" style="stroke:#000000; stroke-width:4; stroke-opacity:1; fill:none" points="
  748.06,1486.45 748.06,1470.09 
  "/>
<polyline clip-path="url(#clip560)" style="stroke:#000000; stroke-width:4; stroke-opacity:1; fill:none" points="
  1262.39,1486.45 1262.39,1470.09 
  "/>
<polyline clip-path="url(#clip560)" style="stroke:#000000; stroke-width:4; stroke-opacity:1; fill:none" points="
  1776.71,1486.45 1776.71,1470.09 
  "/>
<polyline clip-path="url(#clip560)" style="stroke:#000000; stroke-width:4; stroke-opacity:1; fill:none" points="
  2291.04,1486.45 2291.04,1470.09 
  "/>
<path clip-path="url(#clip560)" d="M 0 0 M202.635 1530.29 L232.31 1530.29 L232.31 1534.23 L202.635 1534.23 L202.635 1530.29 Z" fill="#000000" fill-rule="evenodd" fill-opacity="1" /><path clip-path="url(#clip560)" d="M 0 0 M255.25 1516.63 L243.445 1535.08 L255.25 1535.08 L255.25 1516.63 M254.023 1512.56 L259.903 1512.56 L259.903 1535.08 L264.833 1535.08 L264.833 1538.97 L259.903 1538.97 L259.903 1547.12 L255.25 1547.12 L255.25 1538.97 L239.648 1538.97 L239.648 1534.46 L254.023 1512.56 Z" fill="#000000" fill-rule="evenodd" fill-opacity="1" /><path clip-path="url(#clip560)" d="M 0 0 M718.002 1530.29 L747.678 1530.29 L747.678 1534.23 L718.002 1534.23 L718.002 1530.29 Z" fill="#000000" fill-rule="evenodd" fill-opacity="1" /><path clip-path="url(#clip560)" d="M 0 0 M761.798 1543.18 L778.117 1543.18 L778.117 1547.12 L756.173 1547.12 L756.173 1543.18 Q758.835 1540.43 763.418 1535.8 Q768.025 1531.15 769.205 1529.81 Q771.451 1527.28 772.33 1525.55 Q773.233 1523.79 773.233 1522.1 Q773.233 1519.34 771.289 1517.61 Q769.367 1515.87 766.266 1515.87 Q764.066 1515.87 761.613 1516.63 Q759.182 1517.4 756.404 1518.95 L756.404 1514.23 Q759.229 1513.09 761.682 1512.51 Q764.136 1511.93 766.173 1511.93 Q771.543 1511.93 774.738 1514.62 Q777.932 1517.31 777.932 1521.8 Q777.932 1523.93 777.122 1525.85 Q776.335 1527.74 774.228 1530.34 Q773.65 1531.01 770.548 1534.23 Q767.446 1537.42 761.798 1543.18 Z" fill="#000000" fill-rule="evenodd" fill-opacity="1" /><path clip-path="url(#clip560)" d="M 0 0 M1262.39 1515.64 Q1258.77 1515.64 1256.95 1519.2 Q1255.14 1522.75 1255.14 1529.87 Q1255.14 1536.98 1256.95 1540.55 Q1258.77 1544.09 1262.39 1544.09 Q1266.02 1544.09 1267.83 1540.55 Q1269.65 1536.98 1269.65 1529.87 Q1269.65 1522.75 1267.83 1519.2 Q1266.02 1515.64 1262.39 1515.64 M1262.39 1511.93 Q1268.2 1511.93 1271.25 1516.54 Q1274.33 1521.12 1274.33 1529.87 Q1274.33 1538.6 1271.25 1543.21 Q1268.2 1547.79 1262.39 1547.79 Q1256.58 1547.79 1253.5 1543.21 Q1250.44 1538.6 1250.44 1529.87 Q1250.44 1521.12 1253.5 1516.54 Q1256.58 1511.93 1262.39 1511.93 Z" fill="#000000" fill-rule="evenodd" fill-opacity="1" /><path clip-path="url(#clip560)" d="M 0 0 M1771.36 1543.18 L1787.68 1543.18 L1787.68 1547.12 L1765.74 1547.12 L1765.74 1543.18 Q1768.4 1540.43 1772.98 1535.8 Q1777.59 1531.15 1778.77 1529.81 Q1781.02 1527.28 1781.9 1525.55 Q1782.8 1523.79 1782.8 1522.1 Q1782.8 1519.34 1780.85 1517.61 Q1778.93 1515.87 1775.83 1515.87 Q1773.63 1515.87 1771.18 1516.63 Q1768.75 1517.4 1765.97 1518.95 L1765.97 1514.23 Q1768.79 1513.09 1771.25 1512.51 Q1773.7 1511.93 1775.74 1511.93 Q1781.11 1511.93 1784.3 1514.62 Q1787.5 1517.31 1787.5 1521.8 Q1787.5 1523.93 1786.69 1525.85 Q1785.9 1527.74 1783.79 1530.34 Q1783.22 1531.01 1780.11 1534.23 Q1777.01 1537.42 1771.36 1543.18 Z" fill="#000000" fill-rule="evenodd" fill-opacity="1" /><path clip-path="url(#clip560)" d="M 0 0 M2294.05 1516.63 L2282.24 1535.08 L2294.05 1535.08 L2294.05 1516.63 M2292.82 1512.56 L2298.7 1512.56 L2298.7 1535.08 L2303.63 1535.08 L2303.63 1538.97 L2298.7 1538.97 L2298.7 1547.12 L2294.05 1547.12 L2294.05 1538.97 L2278.44 1538.97 L2278.44 1534.46 L2292.82 1512.56 Z" fill="#000000" fill-rule="evenodd" fill-opacity="1" /><polyline clip-path="url(#clip562)" style="stroke:#000000; stroke-width:2; stroke-opacity:0.1; fill:none" points="
  172.015,1447.87 2352.76,1447.87 
  "/>
<polyline clip-path="url(#clip562)" style="stroke:#000000; stroke-width:2; stroke-opacity:0.1; fill:none" points="
  172.015,1130.39 2352.76,1130.39 
  "/>
<polyline clip-path="url(#clip562)" style="stroke:#000000; stroke-width:2; stroke-opacity:0.1; fill:none" points="
  172.015,812.897 2352.76,812.897 
  "/>
<polyline clip-path="url(#clip562)" style="stroke:#000000; stroke-width:2; stroke-opacity:0.1; fill:none" points="
  172.015,495.409 2352.76,495.409 
  "/>
<polyline clip-path="url(#clip562)" style="stroke:#000000; stroke-width:2; stroke-opacity:0.1; fill:none" points="
  172.015,177.921 2352.76,177.921 
  "/>
<polyline clip-path="url(#clip560)" style="stroke:#000000; stroke-width:4; stroke-opacity:1; fill:none" points="
  172.015,1486.45 172.015,123.472 
  "/>
<polyline clip-path="url(#clip560)" style="stroke:#000000; stroke-width:4; stroke-opacity:1; fill:none" points="
  172.015,1447.87 198.184,1447.87 
  "/>
<polyline clip-path="url(#clip560)" style="stroke:#000000; stroke-width:4; stroke-opacity:1; fill:none" points="
  172.015,1130.39 198.184,1130.39 
  "/>
<polyline clip-path="url(#clip560)" style="stroke:#000000; stroke-width:4; stroke-opacity:1; fill:none" points="
  172.015,812.897 198.184,812.897 
  "/>
<polyline clip-path="url(#clip560)" style="stroke:#000000; stroke-width:4; stroke-opacity:1; fill:none" points="
  172.015,495.409 198.184,495.409 
  "/>
<polyline clip-path="url(#clip560)" style="stroke:#000000; stroke-width:4; stroke-opacity:1; fill:none" points="
  172.015,177.921 198.184,177.921 
  "/>
<path clip-path="url(#clip560)" d="M 0 0 M124.07 1433.67 Q120.459 1433.67 118.631 1437.24 Q116.825 1440.78 116.825 1447.91 Q116.825 1455.01 118.631 1458.58 Q120.459 1462.12 124.07 1462.12 Q127.705 1462.12 129.51 1458.58 Q131.339 1455.01 131.339 1447.91 Q131.339 1440.78 129.51 1437.24 Q127.705 1433.67 124.07 1433.67 M124.07 1429.97 Q129.881 1429.97 132.936 1434.57 Q136.015 1439.16 136.015 1447.91 Q136.015 1456.63 132.936 1461.24 Q129.881 1465.82 124.07 1465.82 Q118.26 1465.82 115.182 1461.24 Q112.126 1456.63 112.126 1447.91 Q112.126 1439.16 115.182 1434.57 Q118.26 1429.97 124.07 1429.97 Z" fill="#000000" fill-rule="evenodd" fill-opacity="1" /><path clip-path="url(#clip560)" d="M 0 0 M57.7745 1143.73 L74.0939 1143.73 L74.0939 1147.67 L52.1495 1147.67 L52.1495 1143.73 Q54.8115 1140.98 59.3949 1136.35 Q64.0013 1131.69 65.1819 1130.35 Q67.4272 1127.83 68.3068 1126.09 Q69.2096 1124.33 69.2096 1122.64 Q69.2096 1119.89 67.2652 1118.15 Q65.3439 1116.42 62.2421 1116.42 Q60.043 1116.42 57.5893 1117.18 Q55.1588 1117.94 52.381 1119.49 L52.381 1114.77 Q55.2051 1113.64 57.6588 1113.06 Q60.1124 1112.48 62.1495 1112.48 Q67.5198 1112.48 70.7142 1115.17 Q73.9087 1117.85 73.9087 1122.34 Q73.9087 1124.47 73.0985 1126.39 Q72.3115 1128.29 70.205 1130.88 Q69.6263 1131.55 66.5245 1134.77 Q63.4226 1137.97 57.7745 1143.73 Z" fill="#000000" fill-rule="evenodd" fill-opacity="1" /><path clip-path="url(#clip560)" d="M 0 0 M93.9086 1116.18 Q90.2975 1116.18 88.4688 1119.75 Q86.6632 1123.29 86.6632 1130.42 Q86.6632 1137.53 88.4688 1141.09 Q90.2975 1144.63 93.9086 1144.63 Q97.5428 1144.63 99.3483 1141.09 Q101.177 1137.53 101.177 1130.42 Q101.177 1123.29 99.3483 1119.75 Q97.5428 1116.18 93.9086 1116.18 M93.9086 1112.48 Q99.7187 1112.48 102.774 1117.09 Q105.853 1121.67 105.853 1130.42 Q105.853 1139.15 102.774 1143.75 Q99.7187 1148.34 93.9086 1148.34 Q88.0984 1148.34 85.0197 1143.75 Q81.9642 1139.15 81.9642 1130.42 Q81.9642 1121.67 85.0197 1117.09 Q88.0984 1112.48 93.9086 1112.48 Z" fill="#000000" fill-rule="evenodd" fill-opacity="1" /><path clip-path="url(#clip560)" d="M 0 0 M124.07 1116.18 Q120.459 1116.18 118.631 1119.75 Q116.825 1123.29 116.825 1130.42 Q116.825 1137.53 118.631 1141.09 Q120.459 1144.63 124.07 1144.63 Q127.705 1144.63 129.51 1141.09 Q131.339 1137.53 131.339 1130.42 Q131.339 1123.29 129.51 1119.75 Q127.705 1116.18 124.07 1116.18 M124.07 1112.48 Q129.881 1112.48 132.936 1117.09 Q136.015 1121.67 136.015 1130.42 Q136.015 1139.15 132.936 1143.75 Q129.881 1148.34 124.07 1148.34 Q118.26 1148.34 115.182 1143.75 Q112.126 1139.15 112.126 1130.42 Q112.126 1121.67 115.182 1117.09 Q118.26 1112.48 124.07 1112.48 Z" fill="#000000" fill-rule="evenodd" fill-opacity="1" /><path clip-path="url(#clip560)" d="M 0 0 M66.5939 799.691 L54.7884 818.14 L66.5939 818.14 L66.5939 799.691 M65.367 795.617 L71.2466 795.617 L71.2466 818.14 L76.1772 818.14 L76.1772 822.029 L71.2466 822.029 L71.2466 830.177 L66.5939 830.177 L66.5939 822.029 L50.9921 822.029 L50.9921 817.515 L65.367 795.617 Z" fill="#000000" fill-rule="evenodd" fill-opacity="1" /><path clip-path="url(#clip560)" d="M 0 0 M93.9086 798.696 Q90.2975 798.696 88.4688 802.261 Q86.6632 805.802 86.6632 812.932 Q86.6632 820.038 88.4688 823.603 Q90.2975 827.145 93.9086 827.145 Q97.5428 827.145 99.3483 823.603 Q101.177 820.038 101.177 812.932 Q101.177 805.802 99.3483 802.261 Q97.5428 798.696 93.9086 798.696 M93.9086 794.992 Q99.7187 794.992 102.774 799.599 Q105.853 804.182 105.853 812.932 Q105.853 821.659 102.774 826.265 Q99.7187 830.848 93.9086 830.848 Q88.0984 830.848 85.0197 826.265 Q81.9642 821.659 81.9642 812.932 Q81.9642 804.182 85.0197 799.599 Q88.0984 794.992 93.9086 794.992 Z" fill="#000000" fill-rule="evenodd" fill-opacity="1" /><path clip-path="url(#clip560)" d="M 0 0 M124.07 798.696 Q120.459 798.696 118.631 802.261 Q116.825 805.802 116.825 812.932 Q116.825 820.038 118.631 823.603 Q120.459 827.145 124.07 827.145 Q127.705 827.145 129.51 823.603 Q131.339 820.038 131.339 812.932 Q131.339 805.802 129.51 802.261 Q127.705 798.696 124.07 798.696 M124.07 794.992 Q129.881 794.992 132.936 799.599 Q136.015 804.182 136.015 812.932 Q136.015 821.659 132.936 826.265 Q129.881 830.848 124.07 830.848 Q118.26 830.848 115.182 826.265 Q112.126 821.659 112.126 812.932 Q112.126 804.182 115.182 799.599 Q118.26 794.992 124.07 794.992 Z" fill="#000000" fill-rule="evenodd" fill-opacity="1" /><path clip-path="url(#clip560)" d="M 0 0 M64.3254 493.546 Q61.1773 493.546 59.3254 495.699 Q57.4967 497.851 57.4967 501.601 Q57.4967 505.328 59.3254 507.504 Q61.1773 509.657 64.3254 509.657 Q67.4735 509.657 69.3022 507.504 Q71.1541 505.328 71.1541 501.601 Q71.1541 497.851 69.3022 495.699 Q67.4735 493.546 64.3254 493.546 M73.6077 478.893 L73.6077 483.152 Q71.8485 482.319 70.0429 481.879 Q68.2606 481.439 66.5013 481.439 Q61.8717 481.439 59.418 484.564 Q56.9875 487.689 56.6402 494.009 Q58.006 491.995 60.0662 490.93 Q62.1263 489.842 64.6032 489.842 Q69.8115 489.842 72.8207 493.013 Q75.8531 496.162 75.8531 501.601 Q75.8531 506.925 72.705 510.143 Q69.5568 513.361 64.3254 513.361 Q58.33 513.361 55.1588 508.777 Q51.9875 504.171 51.9875 495.444 Q51.9875 487.25 55.8764 482.388 Q59.7652 477.504 66.3161 477.504 Q68.0754 477.504 69.8578 477.851 Q71.6633 478.199 73.6077 478.893 Z" fill="#000000" fill-rule="evenodd" fill-opacity="1" /><path clip-path="url(#clip560)" d="M 0 0 M93.9086 481.208 Q90.2975 481.208 88.4688 484.773 Q86.6632 488.314 86.6632 495.444 Q86.6632 502.55 88.4688 506.115 Q90.2975 509.657 93.9086 509.657 Q97.5428 509.657 99.3483 506.115 Q101.177 502.55 101.177 495.444 Q101.177 488.314 99.3483 484.773 Q97.5428 481.208 93.9086 481.208 M93.9086 477.504 Q99.7187 477.504 102.774 482.111 Q105.853 486.694 105.853 495.444 Q105.853 504.171 102.774 508.777 Q99.7187 513.361 93.9086 513.361 Q88.0984 513.361 85.0197 508.777 Q81.9642 504.171 81.9642 495.444 Q81.9642 486.694 85.0197 482.111 Q88.0984 477.504 93.9086 477.504 Z" fill="#000000" fill-rule="evenodd" fill-opacity="1" /><path clip-path="url(#clip560)" d="M 0 0 M124.07 481.208 Q120.459 481.208 118.631 484.773 Q116.825 488.314 116.825 495.444 Q116.825 502.55 118.631 506.115 Q120.459 509.657 124.07 509.657 Q127.705 509.657 129.51 506.115 Q131.339 502.55 131.339 495.444 Q131.339 488.314 129.51 484.773 Q127.705 481.208 124.07 481.208 M124.07 477.504 Q129.881 477.504 132.936 482.111 Q136.015 486.694 136.015 495.444 Q136.015 504.171 132.936 508.777 Q129.881 513.361 124.07 513.361 Q118.26 513.361 115.182 508.777 Q112.126 504.171 112.126 495.444 Q112.126 486.694 115.182 482.111 Q118.26 477.504 124.07 477.504 Z" fill="#000000" fill-rule="evenodd" fill-opacity="1" /><path clip-path="url(#clip560)" d="M 0 0 M63.7467 178.789 Q60.4134 178.789 58.4921 180.572 Q56.5939 182.354 56.5939 185.479 Q56.5939 188.604 58.4921 190.387 Q60.4134 192.169 63.7467 192.169 Q67.08 192.169 69.0013 190.387 Q70.9226 188.581 70.9226 185.479 Q70.9226 182.354 69.0013 180.572 Q67.1032 178.789 63.7467 178.789 M59.0708 176.799 Q56.0615 176.058 54.3717 173.998 Q52.7051 171.938 52.7051 168.975 Q52.7051 164.831 55.6449 162.424 Q58.6078 160.016 63.7467 160.016 Q68.9087 160.016 71.8485 162.424 Q74.7883 164.831 74.7883 168.975 Q74.7883 171.938 73.0985 173.998 Q71.4318 176.058 68.4457 176.799 Q71.8253 177.586 73.7003 179.877 Q75.5985 182.169 75.5985 185.479 Q75.5985 190.502 72.5198 193.187 Q69.4642 195.873 63.7467 195.873 Q58.0291 195.873 54.9504 193.187 Q51.8949 190.502 51.8949 185.479 Q51.8949 182.169 53.793 179.877 Q55.6912 177.586 59.0708 176.799 M57.3578 169.414 Q57.3578 172.1 59.0245 173.604 Q60.7143 175.109 63.7467 175.109 Q66.7559 175.109 68.4457 173.604 Q70.1587 172.1 70.1587 169.414 Q70.1587 166.729 68.4457 165.225 Q66.7559 163.72 63.7467 163.72 Q60.7143 163.72 59.0245 165.225 Q57.3578 166.729 57.3578 169.414 Z" fill="#000000" fill-rule="evenodd" fill-opacity="1" /><path clip-path="url(#clip560)" d="M 0 0 M93.9086 163.72 Q90.2975 163.72 88.4688 167.285 Q86.6632 170.826 86.6632 177.956 Q86.6632 185.062 88.4688 188.627 Q90.2975 192.169 93.9086 192.169 Q97.5428 192.169 99.3483 188.627 Q101.177 185.062 101.177 177.956 Q101.177 170.826 99.3483 167.285 Q97.5428 163.72 93.9086 163.72 M93.9086 160.016 Q99.7187 160.016 102.774 164.623 Q105.853 169.206 105.853 177.956 Q105.853 186.683 102.774 191.289 Q99.7187 195.873 93.9086 195.873 Q88.0984 195.873 85.0197 191.289 Q81.9642 186.683 81.9642 177.956 Q81.9642 169.206 85.0197 164.623 Q88.0984 160.016 93.9086 160.016 Z" fill="#000000" fill-rule="evenodd" fill-opacity="1" /><path clip-path="url(#clip560)" d="M 0 0 M124.07 163.72 Q120.459 163.72 118.631 167.285 Q116.825 170.826 116.825 177.956 Q116.825 185.062 118.631 188.627 Q120.459 192.169 124.07 192.169 Q127.705 192.169 129.51 188.627 Q131.339 185.062 131.339 177.956 Q131.339 170.826 129.51 167.285 Q127.705 163.72 124.07 163.72 M124.07 160.016 Q129.881 160.016 132.936 164.623 Q136.015 169.206 136.015 177.956 Q136.015 186.683 132.936 191.289 Q129.881 195.873 124.07 195.873 Q118.26 195.873 115.182 191.289 Q112.126 186.683 112.126 177.956 Q112.126 169.206 115.182 164.623 Q118.26 160.016 124.07 160.016 Z" fill="#000000" fill-rule="evenodd" fill-opacity="1" /><path clip-path="url(#clip560)" d="M 0 0 M631.092 18.8205 L631.092 65.8515 L640.977 65.8515 Q653.494 65.8515 659.287 60.1802 Q665.12 54.509 665.12 42.2752 Q665.12 30.1225 659.287 24.4918 Q653.494 18.8205 640.977 18.8205 L631.092 18.8205 M622.91 12.096 L639.721 12.096 Q657.302 12.096 665.525 19.4281 Q673.748 26.7198 673.748 42.2752 Q673.748 57.9117 665.485 65.2439 Q657.221 72.576 639.721 72.576 L622.91 72.576 L622.91 12.096 Z" fill="#000000" fill-rule="evenodd" fill-opacity="1" /><path clip-path="url(#clip560)" d="M 0 0 M707.087 49.7694 Q698.054 49.7694 694.57 51.8354 Q691.086 53.9013 691.086 58.8839 Q691.086 62.8538 693.679 65.2034 Q696.312 67.5124 700.809 67.5124 Q707.006 67.5124 710.733 63.1374 Q714.501 58.7219 714.501 51.4303 L714.501 49.7694 L707.087 49.7694 M721.954 46.6907 L721.954 72.576 L714.501 72.576 L714.501 65.6895 Q711.948 69.8214 708.141 71.8063 Q704.333 73.7508 698.824 73.7508 Q691.856 73.7508 687.724 69.8619 Q683.633 65.9325 683.633 59.3701 Q683.633 51.7138 688.737 47.825 Q693.881 43.9361 704.049 43.9361 L714.501 43.9361 L714.501 43.2069 Q714.501 38.0623 711.098 35.2672 Q707.736 32.4315 701.619 32.4315 Q697.73 32.4315 694.044 33.3632 Q690.357 34.295 686.954 36.1584 L686.954 29.2718 Q691.046 27.692 694.894 26.9223 Q698.743 26.1121 702.388 26.1121 Q712.232 26.1121 717.093 31.2163 Q721.954 36.3204 721.954 46.6907 Z" fill="#000000" fill-rule="evenodd" fill-opacity="1" /><path clip-path="url(#clip560)" d="M 0 0 M744.68 14.324 L744.68 27.2059 L760.033 27.2059 L760.033 32.9987 L744.68 32.9987 L744.68 57.6282 Q744.68 63.1779 746.179 64.7578 Q747.718 66.3376 752.377 66.3376 L760.033 66.3376 L760.033 72.576 L752.377 72.576 Q743.748 72.576 740.467 69.3758 Q737.186 66.1351 737.186 57.6282 L737.186 32.9987 L731.717 32.9987 L731.717 27.2059 L737.186 27.2059 L737.186 14.324 L744.68 14.324 Z" fill="#000000" fill-rule="evenodd" fill-opacity="1" /><path clip-path="url(#clip560)" d="M 0 0 M790.455 49.7694 Q781.422 49.7694 777.938 51.8354 Q774.454 53.9013 774.454 58.8839 Q774.454 62.8538 777.047 65.2034 Q779.68 67.5124 784.176 67.5124 Q790.374 67.5124 794.101 63.1374 Q797.868 58.7219 797.868 51.4303 L797.868 49.7694 L790.455 49.7694 M805.322 46.6907 L805.322 72.576 L797.868 72.576 L797.868 65.6895 Q795.316 69.8214 791.508 71.8063 Q787.7 73.7508 782.191 73.7508 Q775.224 73.7508 771.092 69.8619 Q767 65.9325 767 59.3701 Q767 51.7138 772.104 47.825 Q777.249 43.9361 787.417 43.9361 L797.868 43.9361 L797.868 43.2069 Q797.868 38.0623 794.465 35.2672 Q791.103 32.4315 784.986 32.4315 Q781.097 32.4315 777.411 33.3632 Q773.725 34.295 770.322 36.1584 L770.322 29.2718 Q774.413 27.692 778.262 26.9223 Q782.11 26.1121 785.756 26.1121 Q795.6 26.1121 800.461 31.2163 Q805.322 36.3204 805.322 46.6907 Z" fill="#000000" fill-rule="evenodd" fill-opacity="1" /><path clip-path="url(#clip560)" d="M 0 0 M867.665 49.7694 Q858.632 49.7694 855.148 51.8354 Q851.664 53.9013 851.664 58.8839 Q851.664 62.8538 854.257 65.2034 Q856.89 67.5124 861.386 67.5124 Q867.584 67.5124 871.311 63.1374 Q875.078 58.7219 875.078 51.4303 L875.078 49.7694 L867.665 49.7694 M882.532 46.6907 L882.532 72.576 L875.078 72.576 L875.078 65.6895 Q872.526 69.8214 868.718 71.8063 Q864.911 73.7508 859.401 73.7508 Q852.434 73.7508 848.302 69.8619 Q844.211 65.9325 844.211 59.3701 Q844.211 51.7138 849.315 47.825 Q854.459 43.9361 864.627 43.9361 L875.078 43.9361 L875.078 43.2069 Q875.078 38.0623 871.676 35.2672 Q868.313 32.4315 862.197 32.4315 Q858.308 32.4315 854.621 33.3632 Q850.935 34.295 847.532 36.1584 L847.532 29.2718 Q851.624 27.692 855.472 26.9223 Q859.32 26.1121 862.966 26.1121 Q872.81 26.1121 877.671 31.2163 Q882.532 36.3204 882.532 46.6907 Z" fill="#000000" fill-rule="evenodd" fill-opacity="1" /><path clip-path="url(#clip560)" d="M 0 0 M935.599 45.1919 L935.599 72.576 L928.145 72.576 L928.145 45.4349 Q928.145 38.994 925.634 35.7938 Q923.122 32.5936 918.099 32.5936 Q912.063 32.5936 908.579 36.4419 Q905.096 40.2903 905.096 46.9338 L905.096 72.576 L897.601 72.576 L897.601 27.2059 L905.096 27.2059 L905.096 34.2544 Q907.769 30.163 911.375 28.1376 Q915.02 26.1121 919.76 26.1121 Q927.578 26.1121 931.589 30.9732 Q935.599 35.7938 935.599 45.1919 Z" fill="#000000" fill-rule="evenodd" fill-opacity="1" /><path clip-path="url(#clip560)" d="M 0 0 M980.321 34.0924 L980.321 9.54393 L987.775 9.54393 L987.775 72.576 L980.321 72.576 L980.321 65.7705 Q977.971 69.8214 974.366 71.8063 Q970.801 73.7508 965.778 73.7508 Q957.555 73.7508 952.37 67.1883 Q947.225 60.6258 947.225 49.9314 Q947.225 39.2371 952.37 32.6746 Q957.555 26.1121 965.778 26.1121 Q970.801 26.1121 974.366 28.0971 Q977.971 30.0415 980.321 34.0924 M954.922 49.9314 Q954.922 58.1548 958.284 62.8538 Q961.687 67.5124 967.601 67.5124 Q973.515 67.5124 976.918 62.8538 Q980.321 58.1548 980.321 49.9314 Q980.321 41.7081 976.918 37.0496 Q973.515 32.3505 967.601 32.3505 Q961.687 32.3505 958.284 37.0496 Q954.922 41.7081 954.922 49.9314 Z" fill="#000000" fill-rule="evenodd" fill-opacity="1" /><path clip-path="url(#clip560)" d="M 0 0 M1021.44 12.096 L1072.6 12.096 L1072.6 18.9825 L1051.13 18.9825 L1051.13 72.576 L1042.91 72.576 L1042.91 18.9825 L1021.44 18.9825 L1021.44 12.096 Z" fill="#000000" fill-rule="evenodd" fill-opacity="1" /><path clip-path="url(#clip560)" d="M 0 0 M1094.27 34.1734 Q1093.02 33.4443 1091.52 33.1202 Q1090.06 32.7556 1088.28 32.7556 Q1081.96 32.7556 1078.56 36.8875 Q1075.19 40.9789 1075.19 48.6757 L1075.19 72.576 L1067.7 72.576 L1067.7 27.2059 L1075.19 27.2059 L1075.19 34.2544 Q1077.54 30.1225 1081.31 28.1376 Q1085.08 26.1121 1090.46 26.1121 Q1091.23 26.1121 1092.17 26.2337 Q1093.1 26.3147 1094.23 26.5172 L1094.27 34.1734 Z" fill="#000000" fill-rule="evenodd" fill-opacity="1" /><path clip-path="url(#clip560)" d="M 0 0 M1101.32 54.671 L1101.32 27.2059 L1108.78 27.2059 L1108.78 54.3874 Q1108.78 60.8284 1111.29 64.0691 Q1113.8 67.2693 1118.82 67.2693 Q1124.86 67.2693 1128.34 63.421 Q1131.87 59.5726 1131.87 52.9291 L1131.87 27.2059 L1139.32 27.2059 L1139.32 72.576 L1131.87 72.576 L1131.87 65.6084 Q1129.15 69.7404 1125.55 71.7658 Q1121.98 73.7508 1117.24 73.7508 Q1109.42 73.7508 1105.37 68.8897 Q1101.32 64.0286 1101.32 54.671 M1120.08 26.1121 L1120.08 26.1121 Z" fill="#000000" fill-rule="evenodd" fill-opacity="1" /><path clip-path="url(#clip560)" d="M 0 0 M1193.48 48.0275 L1193.48 51.6733 L1159.21 51.6733 Q1159.69 59.3701 1163.83 63.421 Q1168 67.4314 1175.41 67.4314 Q1179.71 67.4314 1183.72 66.3781 Q1187.77 65.3249 1191.74 63.2184 L1191.74 70.267 Q1187.73 71.9684 1183.51 72.8596 Q1179.3 73.7508 1174.97 73.7508 Q1164.11 73.7508 1157.75 67.4314 Q1151.43 61.1119 1151.43 50.3365 Q1151.43 39.1965 1157.43 32.6746 Q1163.46 26.1121 1173.67 26.1121 Q1182.83 26.1121 1188.13 32.0264 Q1193.48 37.9003 1193.48 48.0275 M1186.03 45.84 Q1185.94 39.7232 1182.58 36.0774 Q1179.26 32.4315 1173.75 32.4315 Q1167.51 32.4315 1163.75 35.9558 Q1160.02 39.4801 1159.45 45.8805 L1186.03 45.84 Z" fill="#000000" fill-rule="evenodd" fill-opacity="1" /><path clip-path="url(#clip560)" d="M 0 0 M1268.66 14.0809 L1268.66 22.0612 Q1264.01 19.8332 1259.87 18.7395 Q1255.74 17.6457 1251.89 17.6457 Q1245.21 17.6457 1241.56 20.2383 Q1237.96 22.8309 1237.96 27.611 Q1237.96 31.6214 1240.35 33.6873 Q1242.78 35.7128 1249.5 36.9686 L1254.45 37.9813 Q1263.6 39.7232 1267.94 44.1387 Q1272.31 48.5136 1272.31 55.8863 Q1272.31 64.6767 1266.4 69.2137 Q1260.52 73.7508 1249.14 73.7508 Q1244.84 73.7508 1239.98 72.7785 Q1235.16 71.8063 1229.98 69.9024 L1229.98 61.4765 Q1234.96 64.2716 1239.74 65.6895 Q1244.52 67.1073 1249.14 67.1073 Q1256.15 67.1073 1259.95 64.3527 Q1263.76 61.598 1263.76 56.4939 Q1263.76 52.0379 1261.01 49.5264 Q1258.29 47.0148 1252.06 45.759 L1247.07 44.7868 Q1237.92 42.9639 1233.83 39.075 Q1229.74 35.1862 1229.74 28.2591 Q1229.74 20.2383 1235.37 15.6203 Q1241.04 11.0023 1250.96 11.0023 Q1255.22 11.0023 1259.63 11.7719 Q1264.05 12.5416 1268.66 14.0809 Z" fill="#000000" fill-rule="evenodd" fill-opacity="1" /><path clip-path="url(#clip560)" d="M 0 0 M1292.12 14.324 L1292.12 27.2059 L1307.47 27.2059 L1307.47 32.9987 L1292.12 32.9987 L1292.12 57.6282 Q1292.12 63.1779 1293.62 64.7578 Q1295.16 66.3376 1299.82 66.3376 L1307.47 66.3376 L1307.47 72.576 L1299.82 72.576 Q1291.19 72.576 1287.91 69.3758 Q1284.62 66.1351 1284.62 57.6282 L1284.62 32.9987 L1279.16 32.9987 L1279.16 27.2059 L1284.62 27.2059 L1284.62 14.324 L1292.12 14.324 Z" fill="#000000" fill-rule="evenodd" fill-opacity="1" /><path clip-path="url(#clip560)" d="M 0 0 M1337.89 49.7694 Q1328.86 49.7694 1325.38 51.8354 Q1321.89 53.9013 1321.89 58.8839 Q1321.89 62.8538 1324.49 65.2034 Q1327.12 67.5124 1331.62 67.5124 Q1337.81 67.5124 1341.54 63.1374 Q1345.31 58.7219 1345.31 51.4303 L1345.31 49.7694 L1337.89 49.7694 M1352.76 46.6907 L1352.76 72.576 L1345.31 72.576 L1345.31 65.6895 Q1342.76 69.8214 1338.95 71.8063 Q1335.14 73.7508 1329.63 73.7508 Q1322.66 73.7508 1318.53 69.8619 Q1314.44 65.9325 1314.44 59.3701 Q1314.44 51.7138 1319.54 47.825 Q1324.69 43.9361 1334.86 43.9361 L1345.31 43.9361 L1345.31 43.2069 Q1345.31 38.0623 1341.9 35.2672 Q1338.54 32.4315 1332.43 32.4315 Q1328.54 32.4315 1324.85 33.3632 Q1321.16 34.295 1317.76 36.1584 L1317.76 29.2718 Q1321.85 27.692 1325.7 26.9223 Q1329.55 26.1121 1333.2 26.1121 Q1343.04 26.1121 1347.9 31.2163 Q1352.76 36.3204 1352.76 46.6907 Z" fill="#000000" fill-rule="evenodd" fill-opacity="1" /><path clip-path="url(#clip560)" d="M 0 0 M1375.49 14.324 L1375.49 27.2059 L1390.84 27.2059 L1390.84 32.9987 L1375.49 32.9987 L1375.49 57.6282 Q1375.49 63.1779 1376.99 64.7578 Q1378.52 66.3376 1383.18 66.3376 L1390.84 66.3376 L1390.84 72.576 L1383.18 72.576 Q1374.55 72.576 1371.27 69.3758 Q1367.99 66.1351 1367.99 57.6282 L1367.99 32.9987 L1362.52 32.9987 L1362.52 27.2059 L1367.99 27.2059 L1367.99 14.324 L1375.49 14.324 Z" fill="#000000" fill-rule="evenodd" fill-opacity="1" /><path clip-path="url(#clip560)" d="M 0 0 M1400.64 27.2059 L1408.1 27.2059 L1408.1 72.576 L1400.64 72.576 L1400.64 27.2059 M1400.64 9.54393 L1408.1 9.54393 L1408.1 18.9825 L1400.64 18.9825 L1400.64 9.54393 Z" fill="#000000" fill-rule="evenodd" fill-opacity="1" /><path clip-path="url(#clip560)" d="M 0 0 M1452.62 28.5427 L1452.62 35.5912 Q1449.46 33.9709 1446.05 33.1607 Q1442.65 32.3505 1439 32.3505 Q1433.46 32.3505 1430.66 34.0519 Q1427.91 35.7533 1427.91 39.156 Q1427.91 41.7486 1429.89 43.2475 Q1431.88 44.7058 1437.87 46.0426 L1440.42 46.6097 Q1448.36 48.3111 1451.68 51.4303 Q1455.05 54.509 1455.05 60.0587 Q1455.05 66.3781 1450.02 70.0644 Q1445.04 73.7508 1436.29 73.7508 Q1432.64 73.7508 1428.67 73.0216 Q1424.75 72.3329 1420.37 70.9151 L1420.37 63.2184 Q1424.5 65.3654 1428.51 66.4591 Q1432.52 67.5124 1436.45 67.5124 Q1441.72 67.5124 1444.55 65.73 Q1447.39 63.9071 1447.39 60.6258 Q1447.39 57.5877 1445.32 55.9673 Q1443.3 54.3469 1436.37 52.8481 L1433.78 52.2405 Q1426.85 50.7821 1423.77 47.7845 Q1420.69 44.7463 1420.69 39.4801 Q1420.69 33.0797 1425.23 29.5959 Q1429.77 26.1121 1438.11 26.1121 Q1442.25 26.1121 1445.89 26.7198 Q1449.54 27.3274 1452.62 28.5427 Z" fill="#000000" fill-rule="evenodd" fill-opacity="1" /><path clip-path="url(#clip560)" d="M 0 0 M1474.29 14.324 L1474.29 27.2059 L1489.64 27.2059 L1489.64 32.9987 L1474.29 32.9987 L1474.29 57.6282 Q1474.29 63.1779 1475.79 64.7578 Q1477.33 66.3376 1481.98 66.3376 L1489.64 66.3376 L1489.64 72.576 L1481.98 72.576 Q1473.36 72.576 1470.08 69.3758 Q1466.79 66.1351 1466.79 57.6282 L1466.79 32.9987 L1461.33 32.9987 L1461.33 27.2059 L1466.79 27.2059 L1466.79 14.324 L1474.29 14.324 Z" fill="#000000" fill-rule="evenodd" fill-opacity="1" /><path clip-path="url(#clip560)" d="M 0 0 M1499.44 27.2059 L1506.9 27.2059 L1506.9 72.576 L1499.44 72.576 L1499.44 27.2059 M1499.44 9.54393 L1506.9 9.54393 L1506.9 18.9825 L1499.44 18.9825 L1499.44 9.54393 Z" fill="#000000" fill-rule="evenodd" fill-opacity="1" /><path clip-path="url(#clip560)" d="M 0 0 M1555.14 28.9478 L1555.14 35.9153 Q1551.98 34.1734 1548.78 33.3227 Q1545.62 32.4315 1542.38 32.4315 Q1535.13 32.4315 1531.12 37.0496 Q1527.11 41.6271 1527.11 49.9314 Q1527.11 58.2358 1531.12 62.8538 Q1535.13 67.4314 1542.38 67.4314 Q1545.62 67.4314 1548.78 66.5807 Q1551.98 65.6895 1555.14 63.9476 L1555.14 70.8341 Q1552.03 72.2924 1548.66 73.0216 Q1545.34 73.7508 1541.57 73.7508 Q1531.32 73.7508 1525.29 67.3098 Q1519.25 60.8689 1519.25 49.9314 Q1519.25 38.832 1525.33 32.472 Q1531.45 26.1121 1542.06 26.1121 Q1545.5 26.1121 1548.78 26.8413 Q1552.07 27.5299 1555.14 28.9478 Z" fill="#000000" fill-rule="evenodd" fill-opacity="1" /><path clip-path="url(#clip560)" d="M 0 0 M1588.73 49.7694 Q1579.69 49.7694 1576.21 51.8354 Q1572.73 53.9013 1572.73 58.8839 Q1572.73 62.8538 1575.32 65.2034 Q1577.95 67.5124 1582.45 67.5124 Q1588.65 67.5124 1592.37 63.1374 Q1596.14 58.7219 1596.14 51.4303 L1596.14 49.7694 L1588.73 49.7694 M1603.59 46.6907 L1603.59 72.576 L1596.14 72.576 L1596.14 65.6895 Q1593.59 69.8214 1589.78 71.8063 Q1585.97 73.7508 1580.46 73.7508 Q1573.49 73.7508 1569.36 69.8619 Q1565.27 65.9325 1565.27 59.3701 Q1565.27 51.7138 1570.38 47.825 Q1575.52 43.9361 1585.69 43.9361 L1596.14 43.9361 L1596.14 43.2069 Q1596.14 38.0623 1592.74 35.2672 Q1589.37 32.4315 1583.26 32.4315 Q1579.37 32.4315 1575.68 33.3632 Q1572 34.295 1568.59 36.1584 L1568.59 29.2718 Q1572.68 27.692 1576.53 26.9223 Q1580.38 26.1121 1584.03 26.1121 Q1593.87 26.1121 1598.73 31.2163 Q1603.59 36.3204 1603.59 46.6907 Z" fill="#000000" fill-rule="evenodd" fill-opacity="1" /><path clip-path="url(#clip560)" d="M 0 0 M1618.95 9.54393 L1626.4 9.54393 L1626.4 72.576 L1618.95 72.576 L1618.95 9.54393 Z" fill="#000000" fill-rule="evenodd" fill-opacity="1" /><path clip-path="url(#clip560)" d="M 0 0 M1668.69 12.096 L1680.88 12.096 L1696.32 53.2532 L1711.83 12.096 L1724.03 12.096 L1724.03 72.576 L1716.05 72.576 L1716.05 19.4686 L1700.45 60.9499 L1692.23 60.9499 L1676.63 19.4686 L1676.63 72.576 L1668.69 72.576 L1668.69 12.096 Z" fill="#000000" fill-rule="evenodd" fill-opacity="1" /><path clip-path="url(#clip560)" d="M 0 0 M1757.53 32.4315 Q1751.53 32.4315 1748.05 37.1306 Q1744.56 41.7891 1744.56 49.9314 Q1744.56 58.0738 1748.01 62.7728 Q1751.49 67.4314 1757.53 67.4314 Q1763.48 67.4314 1766.97 62.7323 Q1770.45 58.0333 1770.45 49.9314 Q1770.45 41.8701 1766.97 37.1711 Q1763.48 32.4315 1757.53 32.4315 M1757.53 26.1121 Q1767.25 26.1121 1772.8 32.4315 Q1778.35 38.7509 1778.35 49.9314 Q1778.35 61.0714 1772.8 67.4314 Q1767.25 73.7508 1757.53 73.7508 Q1747.76 73.7508 1742.21 67.4314 Q1736.71 61.0714 1736.71 49.9314 Q1736.71 38.7509 1742.21 32.4315 Q1747.76 26.1121 1757.53 26.1121 Z" fill="#000000" fill-rule="evenodd" fill-opacity="1" /><path clip-path="url(#clip560)" d="M 0 0 M1820.56 34.0924 L1820.56 9.54393 L1828.01 9.54393 L1828.01 72.576 L1820.56 72.576 L1820.56 65.7705 Q1818.21 69.8214 1814.6 71.8063 Q1811.04 73.7508 1806.02 73.7508 Q1797.79 73.7508 1792.61 67.1883 Q1787.46 60.6258 1787.46 49.9314 Q1787.46 39.2371 1792.61 32.6746 Q1797.79 26.1121 1806.02 26.1121 Q1811.04 26.1121 1814.6 28.0971 Q1818.21 30.0415 1820.56 34.0924 M1795.16 49.9314 Q1795.16 58.1548 1798.52 62.8538 Q1801.93 67.5124 1807.84 67.5124 Q1813.75 67.5124 1817.16 62.8538 Q1820.56 58.1548 1820.56 49.9314 Q1820.56 41.7081 1817.16 37.0496 Q1813.75 32.3505 1807.84 32.3505 Q1801.93 32.3505 1798.52 37.0496 Q1795.16 41.7081 1795.16 49.9314 Z" fill="#000000" fill-rule="evenodd" fill-opacity="1" /><path clip-path="url(#clip560)" d="M 0 0 M1882.17 48.0275 L1882.17 51.6733 L1847.9 51.6733 Q1848.39 59.3701 1852.52 63.421 Q1856.69 67.4314 1864.11 67.4314 Q1868.4 67.4314 1872.41 66.3781 Q1876.46 65.3249 1880.43 63.2184 L1880.43 70.267 Q1876.42 71.9684 1872.21 72.8596 Q1868 73.7508 1863.66 73.7508 Q1852.8 73.7508 1846.44 67.4314 Q1840.13 61.1119 1840.13 50.3365 Q1840.13 39.1965 1846.12 32.6746 Q1852.16 26.1121 1862.36 26.1121 Q1871.52 26.1121 1876.83 32.0264 Q1882.17 37.9003 1882.17 48.0275 M1874.72 45.84 Q1874.64 39.7232 1871.28 36.0774 Q1867.96 32.4315 1862.45 32.4315 Q1856.21 32.4315 1852.44 35.9558 Q1848.71 39.4801 1848.15 45.8805 L1874.72 45.84 Z" fill="#000000" fill-rule="evenodd" fill-opacity="1" /><path clip-path="url(#clip560)" d="M 0 0 M1894.41 9.54393 L1901.86 9.54393 L1901.86 72.576 L1894.41 72.576 L1894.41 9.54393 Z" fill="#000000" fill-rule="evenodd" fill-opacity="1" /><polyline clip-path="url(#clip562)" style="stroke:#009af9; stroke-width:4; stroke-opacity:1; fill:none" points="
  748.06,1447.87 748.06,1368.5 773.776,1368.5 773.776,1336.75 799.492,1336.75 799.492,1193.88 825.208,1193.88 825.208,1289.13 850.925,1289.13 850.925,1146.26 
  876.641,1146.26 876.641,1051.01 902.357,1051.01 902.357,955.767 928.074,955.767 928.074,939.892 953.79,939.892 953.79,955.767 979.506,955.767 979.506,860.52 
  1005.22,860.52 1005.22,717.651 1030.94,717.651 1030.94,765.274 1056.66,765.274 1056.66,955.767 1082.37,955.767 1082.37,876.395 1108.09,876.395 1108.09,1051.01 
  1133.8,1051.01 1133.8,1098.64 1159.52,1098.64 1159.52,1066.89 1185.24,1066.89 1185.24,1225.63 1210.95,1225.63 1210.95,1289.13 1236.67,1289.13 1236.67,1320.88 
  1262.39,1320.88 1262.39,1416.12 1288.1,1416.12 1288.1,1352.63 1313.82,1352.63 1313.82,1384.38 1339.53,1384.38 1339.53,1432 1365.25,1432 1365.25,1400.25 
  1390.97,1400.25 1390.97,1447.87 1416.68,1447.87 1416.68,1432 1442.4,1432 1442.4,1384.38 1468.12,1384.38 1468.12,1352.63 1493.83,1352.63 
  1519.55,1352.63 1519.55,1193.88 1545.26,1193.88 1545.26,1130.39 1570.98,1130.39 1570.98,1019.26 1596.7,1019.26 1596.7,924.018 1622.41,924.018 1622.41,638.279 
  1648.13,638.279 1648.13,479.535 1673.85,479.535 1673.85,511.284 1699.56,511.284 1699.56,162.047 1725.28,162.047 1725.28,511.284 1750.99,511.284 1750.99,336.665 
  1776.71,336.665 1776.71,241.419 1802.43,241.419 1802.43,209.67 1828.14,209.67 1853.86,209.67 1879.58,209.67 1879.58,797.023 
  1905.29,797.023 1905.29,733.525 1931.01,733.525 1931.01,1003.39 1956.73,1003.39 1956.73,955.767 1982.44,955.767 1982.44,1193.88 2008.16,1193.88 2008.16,1178.01 
  2033.87,1178.01 2033.87,1352.63 2059.59,1352.63 2059.59,1384.38 2085.31,1384.38 2085.31,1400.25 2111.02,1400.25 2111.02,1432 2136.74,1432 2136.74,1447.87 
  2162.46,1447.87 2188.17,1447.87 2213.89,1447.87 2239.6,1447.87 2265.32,1447.87 
  2291.04,1447.87 
  "/>
<polyline clip-path="url(#clip562)" style="stroke:#e26f46; stroke-width:4; stroke-opacity:1; fill:none" points="
  233.734,1447.87 236.306,1447.87 238.877,1447.87 241.449,1447.87 244.02,1447.87 246.592,1447.87 249.164,1447.87 251.735,1447.87 254.307,1447.87 256.879,1447.87 
  259.45,1447.87 262.022,1447.87 264.593,1447.87 267.165,1447.87 269.737,1447.87 272.308,1447.87 274.88,1447.87 277.452,1447.87 280.023,1447.87 282.595,1447.87 
  285.166,1447.87 287.738,1447.87 290.31,1447.87 292.881,1447.87 295.453,1447.87 298.025,1447.87 300.596,1447.87 303.168,1447.87 305.74,1447.87 308.311,1447.87 
  310.883,1447.87 313.454,1447.87 316.026,1447.87 318.598,1447.87 321.169,1447.87 323.741,1447.87 326.313,1447.87 328.884,1447.87 331.456,1447.87 334.027,1447.87 
  336.599,1447.87 339.171,1447.87 341.742,1447.87 344.314,1447.87 346.886,1447.87 349.457,1447.87 352.029,1447.87 354.6,1447.87 357.172,1447.87 359.744,1447.87 
  362.315,1447.87 364.887,1447.87 367.459,1447.87 370.03,1447.87 372.602,1447.87 375.173,1447.87 377.745,1447.87 380.317,1447.87 382.888,1447.87 385.46,1447.87 
  388.032,1447.87 390.603,1447.87 393.175,1447.87 395.747,1447.86 398.318,1447.86 400.89,1447.86 403.461,1447.86 406.033,1447.86 408.605,1447.86 411.176,1447.86 
  413.748,1447.86 416.32,1447.86 418.891,1447.85 421.463,1447.85 424.034,1447.85 426.606,1447.85 429.178,1447.85 431.749,1447.84 434.321,1447.84 436.893,1447.84 
  439.464,1447.83 442.036,1447.83 444.607,1447.83 447.179,1447.82 449.751,1447.82 452.322,1447.81 454.894,1447.81 457.466,1447.8 460.037,1447.79 462.609,1447.79 
  465.18,1447.78 467.752,1447.77 470.324,1447.76 472.895,1447.75 475.467,1447.74 478.039,1447.73 480.61,1447.72 483.182,1447.71 485.754,1447.69 488.325,1447.68 
  490.897,1447.66 493.468,1447.64 496.04,1447.62 498.612,1447.6 501.183,1447.58 503.755,1447.56 506.327,1447.53 508.898,1447.5 511.47,1447.48 514.041,1447.44 
  516.613,1447.41 519.185,1447.37 521.756,1447.33 524.328,1447.29 526.9,1447.25 529.471,1447.2 532.043,1447.15 534.614,1447.09 537.186,1447.03 539.758,1446.97 
  542.329,1446.9 544.901,1446.83 547.473,1446.75 550.044,1446.67 552.616,1446.58 555.187,1446.49 557.759,1446.39 560.331,1446.28 562.902,1446.17 565.474,1446.05 
  568.046,1445.92 570.617,1445.78 573.189,1445.63 575.761,1445.48 578.332,1445.31 580.904,1445.14 583.475,1444.95 586.047,1444.76 588.619,1444.55 591.19,1444.32 
  593.762,1444.09 596.334,1443.84 598.905,1443.58 601.477,1443.3 604.048,1443 606.62,1442.69 609.192,1442.36 611.763,1442.01 614.335,1441.64 616.907,1441.25 
  619.478,1440.84 622.05,1440.4 624.621,1439.95 627.193,1439.47 629.765,1438.96 632.336,1438.42 634.908,1437.86 637.48,1437.27 640.051,1436.65 642.623,1435.99 
  645.194,1435.31 647.766,1434.59 650.338,1433.83 652.909,1433.04 655.481,1432.2 658.053,1431.33 660.624,1430.42 663.196,1429.46 665.768,1428.46 668.339,1427.41 
  670.911,1426.31 673.482,1425.16 676.054,1423.97 678.626,1422.72 681.197,1421.41 683.769,1420.05 686.341,1418.63 688.912,1417.15 691.484,1415.6 694.055,1414 
  696.627,1412.32 699.199,1410.58 701.77,1408.77 704.342,1406.89 706.914,1404.94 709.485,1402.91 712.057,1400.8 714.628,1398.61 717.2,1396.34 719.772,1393.99 
  722.343,1391.56 724.915,1389.04 727.487,1386.43 730.058,1383.73 732.63,1380.94 735.201,1378.05 737.773,1375.07 740.345,1371.99 742.916,1368.82 745.488,1365.54 
  748.06,1362.17 750.631,1358.69 753.203,1355.1 755.775,1351.41 758.346,1347.62 760.918,1343.71 763.489,1339.7 766.061,1335.58 768.633,1331.34 771.204,1327 
  773.776,1322.54 776.348,1317.98 778.919,1313.3 781.491,1308.5 784.062,1303.6 786.634,1298.58 789.206,1293.44 791.777,1288.2 794.349,1282.84 796.921,1277.37 
  799.492,1271.79 802.064,1266.1 804.635,1260.31 807.207,1254.4 809.779,1248.39 812.35,1242.27 814.922,1236.05 817.494,1229.73 820.065,1223.31 822.637,1216.8 
  825.208,1210.19 827.78,1203.49 830.352,1196.7 832.923,1189.83 835.495,1182.87 838.067,1175.84 840.638,1168.73 843.21,1161.54 845.782,1154.3 848.353,1146.98 
  850.925,1139.61 853.496,1132.19 856.068,1124.72 858.64,1117.2 861.211,1109.64 863.783,1102.05 866.355,1094.42 868.926,1086.78 871.498,1079.12 874.069,1071.44 
  876.641,1063.76 879.213,1056.08 881.784,1048.4 884.356,1040.74 886.928,1033.1 889.499,1025.48 892.071,1017.89 894.642,1010.35 897.214,1002.84 899.786,995.395 
  902.357,988.005 904.929,980.682 907.501,973.431 910.072,966.261 912.644,959.178 915.215,952.189 917.787,945.301 920.359,938.521 922.93,931.856 925.502,925.313 
  928.074,918.899 930.645,912.62 933.217,906.483 935.789,900.495 938.36,894.662 940.932,888.991 943.503,883.487 946.075,878.156 948.647,873.006 951.218,868.041 
  953.79,863.266 956.362,858.689 958.933,854.313 961.505,850.143 964.076,846.185 966.648,842.443 969.22,838.921 971.791,835.624 974.363,832.555 976.935,829.718 
  979.506,827.116 982.078,824.753 984.649,822.631 987.221,820.752 989.793,819.12 992.364,817.735 994.936,816.6 997.508,815.715 1000.08,815.083 1002.65,814.703 
  1005.22,814.576 1007.79,814.703 1010.37,815.083 1012.94,815.715 1015.51,816.6 1018.08,817.735 1020.65,819.12 1023.22,820.752 1025.8,822.631 1028.37,824.753 
  1030.94,827.116 1033.51,829.718 1036.08,832.555 1038.65,835.624 1041.23,838.921 1043.8,842.443 1046.37,846.185 1048.94,850.143 1051.51,854.312 1054.08,858.689 
  1056.66,863.266 1059.23,868.04 1061.8,873.006 1064.37,878.156 1066.94,883.486 1069.51,888.99 1072.08,894.662 1074.66,900.495 1077.23,906.483 1079.8,912.62 
  1082.37,918.899 1084.94,925.313 1087.51,931.856 1090.09,938.52 1092.66,945.3 1095.23,952.188 1097.8,959.177 1100.37,966.26 1102.94,973.43 1105.52,980.68 
  1108.09,988.004 1110.66,995.393 1113.23,1002.84 1115.8,1010.34 1118.37,1017.89 1120.95,1025.48 1123.52,1033.09 1126.09,1040.74 1128.66,1048.4 1131.23,1056.07 
  1133.8,1063.75 1136.38,1071.44 1138.95,1079.11 1141.52,1086.77 1144.09,1094.42 1146.66,1102.04 1149.23,1109.63 1151.81,1117.19 1154.38,1124.71 1156.95,1132.18 
  1159.52,1139.6 1162.09,1146.97 1164.66,1154.28 1167.24,1161.53 1169.81,1168.71 1172.38,1175.82 1174.95,1182.85 1177.52,1189.8 1180.09,1196.67 1182.66,1203.46 
  1185.24,1210.16 1187.81,1216.76 1190.38,1223.28 1192.95,1229.69 1195.52,1236.01 1198.09,1242.22 1200.67,1248.33 1203.24,1254.34 1205.81,1260.24 1208.38,1266.03 
  1210.95,1271.71 1213.52,1277.29 1216.1,1282.75 1218.67,1288.1 1221.24,1293.33 1223.81,1298.45 1226.38,1303.46 1228.95,1308.36 1231.53,1313.14 1234.1,1317.8 
  1236.67,1322.36 1239.24,1326.8 1241.81,1331.12 1244.38,1335.34 1246.96,1339.44 1249.53,1343.43 1252.1,1347.31 1254.67,1351.08 1257.24,1354.74 1259.81,1358.29 
  1262.39,1361.74 1264.96,1365.08 1267.53,1368.32 1270.1,1371.45 1272.67,1374.49 1275.24,1377.42 1277.82,1380.26 1280.39,1382.99 1282.96,1385.63 1285.53,1388.18 
  1288.1,1390.63 1290.67,1392.99 1293.24,1395.27 1295.82,1397.45 1298.39,1399.55 1300.96,1401.56 1303.53,1403.48 1306.1,1405.33 1308.67,1407.09 1311.25,1408.78 
  1313.82,1410.38 1316.39,1411.91 1318.96,1413.36 1321.53,1414.74 1324.1,1416.04 1326.68,1417.28 1329.25,1418.44 1331.82,1419.53 1334.39,1420.55 1336.96,1421.51 
  1339.53,1422.4 1342.11,1423.22 1344.68,1423.98 1347.25,1424.67 1349.82,1425.3 1352.39,1425.86 1354.96,1426.36 1357.54,1426.8 1360.11,1427.18 1362.68,1427.49 
  1365.25,1427.74 1367.82,1427.93 1370.39,1428.05 1372.97,1428.12 1375.54,1428.12 1378.11,1428.05 1380.68,1427.93 1383.25,1427.73 1385.82,1427.48 1388.4,1427.16 
  1390.97,1426.77 1393.54,1426.31 1396.11,1425.79 1398.68,1425.19 1401.25,1424.53 1403.82,1423.79 1406.4,1422.98 1408.97,1422.09 1411.54,1421.13 1414.11,1420.08 
  1416.68,1418.96 1419.25,1417.75 1421.83,1416.46 1424.4,1415.08 1426.97,1413.61 1429.54,1412.05 1432.11,1410.4 1434.68,1408.65 1437.26,1406.8 1439.83,1404.85 
  1442.4,1402.79 1444.97,1400.63 1447.54,1398.35 1450.11,1395.97 1452.69,1393.46 1455.26,1390.84 1457.83,1388.09 1460.4,1385.22 1462.97,1382.21 1465.54,1379.08 
  1468.12,1375.8 1470.69,1372.39 1473.26,1368.83 1475.83,1365.13 1478.4,1361.27 1480.97,1357.26 1483.55,1353.1 1486.12,1348.77 1488.69,1344.28 1491.26,1339.62 
  1493.83,1334.78 1496.4,1329.77 1498.98,1324.59 1501.55,1319.22 1504.12,1313.66 1506.69,1307.92 1509.26,1301.98 1511.83,1295.85 1514.4,1289.51 1516.98,1282.98 
  1519.55,1276.25 1522.12,1269.3 1524.69,1262.15 1527.26,1254.78 1529.83,1247.2 1532.41,1239.41 1534.98,1231.39 1537.55,1223.16 1540.12,1214.7 1542.69,1206.03 
  1545.26,1197.12 1547.84,1187.99 1550.41,1178.64 1552.98,1169.06 1555.55,1159.25 1558.12,1149.22 1560.69,1138.96 1563.27,1128.47 1565.84,1117.76 1568.41,1106.83 
  1570.98,1095.67 1573.55,1084.3 1576.12,1072.7 1578.7,1060.9 1581.27,1048.88 1583.84,1036.64 1586.41,1024.21 1588.98,1011.57 1591.55,998.735 1594.13,985.707 
  1596.7,972.49 1599.27,959.091 1601.84,945.515 1604.41,931.768 1606.98,917.857 1609.56,903.788 1612.13,889.569 1614.7,875.208 1617.27,860.712 1619.84,846.089 
  1622.41,831.349 1624.99,816.501 1627.56,801.553 1630.13,786.516 1632.7,771.4 1635.27,756.215 1637.84,740.972 1640.41,725.681 1642.99,710.355 1645.56,695.005 
  1648.13,679.643 1650.7,664.281 1653.27,648.931 1655.84,633.606 1658.42,618.319 1660.99,603.083 1663.56,587.911 1666.13,572.817 1668.7,557.814 1671.27,542.916 
  1673.85,528.136 1676.42,513.489 1678.99,498.989 1681.56,484.648 1684.13,470.482 1686.7,456.504 1689.28,442.728 1691.85,429.169 1694.42,415.839 1696.99,402.753 
  1699.56,389.925 1702.13,377.367 1704.71,365.094 1707.28,353.117 1709.85,341.451 1712.42,330.108 1714.99,319.1 1717.56,308.44 1720.14,298.138 1722.71,288.208 
  1725.28,278.66 1727.85,269.504 1730.42,260.752 1732.99,252.413 1735.57,244.497 1738.14,237.013 1740.71,229.969 1743.28,223.375 1745.85,217.237 1748.42,211.563 
  1750.99,206.36 1753.57,201.633 1756.14,197.388 1758.71,193.631 1761.28,190.366 1763.85,187.597 1766.42,185.326 1769,183.557 1771.57,182.292 1774.14,181.533 
  1776.71,181.279 1779.28,181.533 1781.85,182.292 1784.43,183.557 1787,185.326 1789.57,187.597 1792.14,190.366 1794.71,193.631 1797.28,197.389 1799.86,201.633 
  1802.43,206.36 1805,211.563 1807.57,217.237 1810.14,223.375 1812.71,229.969 1815.29,237.013 1817.86,244.497 1820.43,252.413 1823,260.752 1825.57,269.504 
  1828.14,278.66 1830.72,288.208 1833.29,298.138 1835.86,308.44 1838.43,319.1 1841,330.108 1843.57,341.451 1846.15,353.118 1848.72,365.094 1851.29,377.367 
  1853.86,389.925 1856.43,402.754 1859,415.84 1861.57,429.169 1864.15,442.729 1866.72,456.504 1869.29,470.482 1871.86,484.649 1874.43,498.989 1877,513.49 
  1879.58,528.137 1882.15,542.917 1884.72,557.815 1887.29,572.818 1889.86,587.913 1892.43,603.084 1895.01,618.321 1897.58,633.608 1900.15,648.933 1902.72,664.283 
  1905.29,679.645 1907.86,695.008 1910.44,710.358 1913.01,725.684 1915.58,740.975 1918.15,756.219 1920.72,771.404 1923.29,786.521 1925.87,801.558 1928.44,816.507 
  1931.01,831.356 1933.58,846.096 1936.15,860.72 1938.72,875.216 1941.3,889.579 1943.87,903.798 1946.44,917.868 1949.01,931.78 1951.58,945.528 1954.15,959.106 
  1956.73,972.506 1959.3,985.725 1961.87,998.755 1964.44,1011.59 1967.01,1024.23 1969.58,1036.67 1972.15,1048.9 1974.73,1060.93 1977.3,1072.74 1979.87,1084.33 
  1982.44,1095.71 1985.01,1106.87 1987.58,1117.81 1990.16,1128.52 1992.73,1139.01 1995.3,1149.28 1997.87,1159.32 2000.44,1169.13 2003.01,1178.72 2005.59,1188.08 
  2008.16,1197.22 2010.73,1206.13 2013.3,1214.82 2015.87,1223.28 2018.44,1231.53 2021.02,1239.55 2023.59,1247.36 2026.16,1254.95 2028.73,1262.33 2031.3,1269.5 
  2033.87,1276.46 2036.45,1283.21 2039.02,1289.76 2041.59,1296.12 2044.16,1302.27 2046.73,1308.23 2049.3,1314 2051.88,1319.58 2054.45,1324.98 2057.02,1330.2 
  2059.59,1335.25 2062.16,1340.12 2064.73,1344.82 2067.31,1349.35 2069.88,1353.72 2072.45,1357.94 2075.02,1362 2077.59,1365.91 2080.16,1369.67 2082.73,1373.29 
  2085.31,1376.77 2087.88,1380.12 2090.45,1383.33 2093.02,1386.42 2095.59,1389.38 2098.16,1392.22 2100.74,1394.95 2103.31,1397.56 2105.88,1400.06 2108.45,1402.46 
  2111.02,1404.75 2113.59,1406.94 2116.17,1409.04 2118.74,1411.04 2121.31,1412.96 2123.88,1414.79 2126.45,1416.53 2129.02,1418.2 2131.6,1419.79 2134.17,1421.3 
  2136.74,1422.74 2139.31,1424.12 2141.88,1425.42 2144.45,1426.67 2147.03,1427.85 2149.6,1428.97 2152.17,1430.04 2154.74,1431.06 2157.31,1432.02 2159.88,1432.94 
  2162.46,1433.8 2165.03,1434.62 2167.6,1435.4 2170.17,1436.14 2172.74,1436.84 2175.31,1437.5 2177.89,1438.13 2180.46,1438.72 2183.03,1439.28 2185.6,1439.81 
  2188.17,1440.3 2190.74,1440.77 2193.31,1441.22 2195.89,1441.64 2198.46,1442.03 2201.03,1442.4 2203.6,1442.75 2206.17,1443.08 2208.74,1443.39 2211.32,1443.69 
  2213.89,1443.96 2216.46,1444.22 2219.03,1444.46 2221.6,1444.69 2224.17,1444.9 2226.75,1445.1 2229.32,1445.29 2231.89,1445.47 2234.46,1445.63 2237.03,1445.79 
  2239.6,1445.93 2242.18,1446.07 2244.75,1446.19 2247.32,1446.31 2249.89,1446.42 2252.46,1446.52 2255.03,1446.62 2257.61,1446.71 2260.18,1446.79 2262.75,1446.87 
  2265.32,1446.95 2267.89,1447.01 2270.46,1447.08 2273.04,1447.14 2275.61,1447.19 2278.18,1447.24 2280.75,1447.29 2283.32,1447.33 2285.89,1447.37 2288.47,1447.41 
  2291.04,1447.45 
  "/>
<path clip-path="url(#clip560)" d="
M1921.49 350.345 L2280.06 350.345 L2280.06 168.905 L1921.49 168.905  Z
  " fill="#ffffff" fill-rule="evenodd" fill-opacity="1"/>
<polyline clip-path="url(#clip560)" style="stroke:#000000; stroke-width:4; stroke-opacity:1; fill:none" points="
  1921.49,350.345 2280.06,350.345 2280.06,168.905 1921.49,168.905 1921.49,350.345 
  "/>
<polyline clip-path="url(#clip560)" style="stroke:#009af9; stroke-width:4; stroke-opacity:1; fill:none" points="
  1945.72,229.385 2091.1,229.385 
  "/>
<path clip-path="url(#clip560)" d="M 0 0 M2120.01 215.947 L2120.01 242.822 L2125.66 242.822 Q2132.81 242.822 2136.12 239.581 Q2139.45 236.341 2139.45 229.35 Q2139.45 222.406 2136.12 219.188 Q2132.81 215.947 2125.66 215.947 L2120.01 215.947 M2115.33 212.105 L2124.94 212.105 Q2134.98 212.105 2139.68 216.294 Q2144.38 220.461 2144.38 229.35 Q2144.38 238.285 2139.66 242.475 Q2134.94 246.665 2124.94 246.665 L2115.33 246.665 L2115.33 212.105 Z" fill="#000000" fill-rule="evenodd" fill-opacity="1" /><path clip-path="url(#clip560)" d="M 0 0 M2163.43 233.632 Q2158.27 233.632 2156.28 234.813 Q2154.29 235.993 2154.29 238.841 Q2154.29 241.109 2155.77 242.452 Q2157.28 243.771 2159.84 243.771 Q2163.39 243.771 2165.52 241.271 Q2167.67 238.748 2167.67 234.581 L2167.67 233.632 L2163.43 233.632 M2171.93 231.873 L2171.93 246.665 L2167.67 246.665 L2167.67 242.729 Q2166.21 245.091 2164.03 246.225 Q2161.86 247.336 2158.71 247.336 Q2154.73 247.336 2152.37 245.114 Q2150.03 242.868 2150.03 239.118 Q2150.03 234.743 2152.95 232.521 Q2155.89 230.299 2161.7 230.299 L2167.67 230.299 L2167.67 229.882 Q2167.67 226.943 2165.72 225.345 Q2163.8 223.725 2160.31 223.725 Q2158.09 223.725 2155.98 224.257 Q2153.87 224.79 2151.93 225.855 L2151.93 221.919 Q2154.27 221.017 2156.47 220.577 Q2158.66 220.114 2160.75 220.114 Q2166.37 220.114 2169.15 223.031 Q2171.93 225.947 2171.93 231.873 Z" fill="#000000" fill-rule="evenodd" fill-opacity="1" /><path clip-path="url(#clip560)" d="M 0 0 M2184.91 213.378 L2184.91 220.739 L2193.69 220.739 L2193.69 224.049 L2184.91 224.049 L2184.91 238.123 Q2184.91 241.294 2185.77 242.197 Q2186.65 243.1 2189.31 243.1 L2193.69 243.1 L2193.69 246.665 L2189.31 246.665 Q2184.38 246.665 2182.51 244.836 Q2180.63 242.984 2180.63 238.123 L2180.63 224.049 L2177.51 224.049 L2177.51 220.739 L2180.63 220.739 L2180.63 213.378 L2184.91 213.378 Z" fill="#000000" fill-rule="evenodd" fill-opacity="1" /><path clip-path="url(#clip560)" d="M 0 0 M2211.07 233.632 Q2205.91 233.632 2203.92 234.813 Q2201.93 235.993 2201.93 238.841 Q2201.93 241.109 2203.41 242.452 Q2204.91 243.771 2207.48 243.771 Q2211.03 243.771 2213.15 241.271 Q2215.31 238.748 2215.31 234.581 L2215.31 233.632 L2211.07 233.632 M2219.57 231.873 L2219.57 246.665 L2215.31 246.665 L2215.31 242.729 Q2213.85 245.091 2211.67 246.225 Q2209.5 247.336 2206.35 247.336 Q2202.37 247.336 2200.01 245.114 Q2197.67 242.868 2197.67 239.118 Q2197.67 234.743 2200.59 232.521 Q2203.53 230.299 2209.34 230.299 L2215.31 230.299 L2215.31 229.882 Q2215.31 226.943 2213.36 225.345 Q2211.44 223.725 2207.95 223.725 Q2205.72 223.725 2203.62 224.257 Q2201.51 224.79 2199.57 225.855 L2199.57 221.919 Q2201.9 221.017 2204.1 220.577 Q2206.3 220.114 2208.39 220.114 Q2214.01 220.114 2216.79 223.031 Q2219.57 225.947 2219.57 231.873 Z" fill="#000000" fill-rule="evenodd" fill-opacity="1" /><polyline clip-path="url(#clip560)" style="stroke:#e26f46; stroke-width:4; stroke-opacity:1; fill:none" points="
  1945.72,289.865 2091.1,289.865 
  "/>
<path clip-path="url(#clip560)" d="M 0 0 M2115.33 272.585 L2144.57 272.585 L2144.57 276.52 L2132.3 276.52 L2132.3 307.145 L2127.6 307.145 L2127.6 276.52 L2115.33 276.52 L2115.33 272.585 Z" fill="#000000" fill-rule="evenodd" fill-opacity="1" /><path clip-path="url(#clip560)" d="M 0 0 M2156.95 285.2 Q2156.23 284.784 2155.38 284.598 Q2154.54 284.39 2153.53 284.39 Q2149.91 284.39 2147.97 286.751 Q2146.05 289.089 2146.05 293.487 L2146.05 307.145 L2141.77 307.145 L2141.77 281.219 L2146.05 281.219 L2146.05 285.247 Q2147.39 282.886 2149.54 281.751 Q2151.7 280.594 2154.78 280.594 Q2155.22 280.594 2155.75 280.663 Q2156.28 280.71 2156.93 280.825 L2156.95 285.2 Z" fill="#000000" fill-rule="evenodd" fill-opacity="1" /><path clip-path="url(#clip560)" d="M 0 0 M2160.98 296.913 L2160.98 281.219 L2165.24 281.219 L2165.24 296.751 Q2165.24 300.432 2166.67 302.284 Q2168.11 304.112 2170.98 304.112 Q2174.43 304.112 2176.42 301.913 Q2178.43 299.714 2178.43 295.918 L2178.43 281.219 L2182.69 281.219 L2182.69 307.145 L2178.43 307.145 L2178.43 303.163 Q2176.88 305.524 2174.82 306.682 Q2172.78 307.816 2170.08 307.816 Q2165.61 307.816 2163.29 305.038 Q2160.98 302.26 2160.98 296.913 M2171.7 280.594 L2171.7 280.594 Z" fill="#000000" fill-rule="evenodd" fill-opacity="1" /><path clip-path="url(#clip560)" d="M 0 0 M2195.68 273.858 L2195.68 281.219 L2204.45 281.219 L2204.45 284.529 L2195.68 284.529 L2195.68 298.603 Q2195.68 301.774 2196.53 302.677 Q2197.41 303.58 2200.08 303.58 L2204.45 303.58 L2204.45 307.145 L2200.08 307.145 Q2195.15 307.145 2193.27 305.316 Q2191.4 303.464 2191.4 298.603 L2191.4 284.529 L2188.27 284.529 L2188.27 281.219 L2191.4 281.219 L2191.4 273.858 L2195.68 273.858 Z" fill="#000000" fill-rule="evenodd" fill-opacity="1" /><path clip-path="url(#clip560)" d="M 0 0 M2231.6 291.497 L2231.6 307.145 L2227.34 307.145 L2227.34 291.635 Q2227.34 287.955 2225.91 286.126 Q2224.47 284.298 2221.6 284.298 Q2218.15 284.298 2216.16 286.497 Q2214.17 288.696 2214.17 292.492 L2214.17 307.145 L2209.89 307.145 L2209.89 271.126 L2214.17 271.126 L2214.17 285.247 Q2215.7 282.909 2217.76 281.751 Q2219.84 280.594 2222.55 280.594 Q2227.02 280.594 2229.31 283.372 Q2231.6 286.126 2231.6 291.497 Z" fill="#000000" fill-rule="evenodd" fill-opacity="1" /></svg>
