<?xml version="1.0" encoding="utf-8"?>
<svg xmlns="http://www.w3.org/2000/svg" xmlns:xlink="http://www.w3.org/1999/xlink" width="600" height="400" viewBox="0 0 2400 1600">
<defs>
  <clipPath id="clip530">
    <rect x="0" y="0" width="2400" height="1600"/>
  </clipPath>
</defs>
<path clip-path="url(#clip530)" d="
M0 1600 L2400 1600 L2400 0 L0 0  Z
  " fill="#ffffff" fill-rule="evenodd" fill-opacity="1"/>
<defs>
  <clipPath id="clip531">
    <rect x="480" y="0" width="1681" height="1600"/>
  </clipPath>
</defs>
<path clip-path="url(#clip530)" d="
M172.015 1486.45 L2352.76 1486.45 L2352.76 123.472 L172.015 123.472  Z
  " fill="#ffffff" fill-rule="evenodd" fill-opacity="1"/>
<defs>
  <clipPath id="clip532">
    <rect x="172" y="123" width="2182" height="1364"/>
  </clipPath>
</defs>
<polyline clip-path="url(#clip532)" style="stroke:#000000; stroke-width:2; stroke-opacity:0.1; fill:none" points="
  233.734,1486.45 233.734,123.472 
  "/>
<polyline clip-path="url(#clip532)" style="stroke:#000000; stroke-width:2; stroke-opacity:0.1; fill:none" points="
  576.618,1486.45 576.618,123.472 
  "/>
<polyline clip-path="url(#clip532)" style="stroke:#000000; stroke-width:2; stroke-opacity:0.1; fill:none" points="
  919.502,1486.45 919.502,123.472 
  "/>
<polyline clip-path="url(#clip532)" style="stroke:#000000; stroke-width:2; stroke-opacity:0.1; fill:none" points="
  1262.39,1486.45 1262.39,123.472 
  "/>
<polyline clip-path="url(#clip532)" style="stroke:#000000; stroke-width:2; stroke-opacity:0.1; fill:none" points="
  1605.27,1486.45 1605.27,123.472 
  "/>
<polyline clip-path="url(#clip532)" style="stroke:#000000; stroke-width:2; stroke-opacity:0.1; fill:none" points="
  1948.15,1486.45 1948.15,123.472 
  "/>
<polyline clip-path="url(#clip532)" style="stroke:#000000; stroke-width:2; stroke-opacity:0.1; fill:none" points="
  2291.04,1486.45 2291.04,123.472 
  "/>
<polyline clip-path="url(#clip530)" style="stroke:#000000; stroke-width:4; stroke-opacity:1; fill:none" points="
  172.015,1486.45 2352.76,1486.45 
  "/>
<polyline clip-path="url(#clip530)" style="stroke:#000000; stroke-width:4; stroke-opacity:1; fill:none" points="
  233.734,1486.45 233.734,1470.09 
  "/>
<polyline clip-path="url(#clip530)" style="stroke:#000000; stroke-width:4; stroke-opacity:1; fill:none" points="
  576.618,1486.45 576.618,1470.09 
  "/>
<polyline clip-path="url(#clip530)" style="stroke:#000000; stroke-width:4; stroke-opacity:1; fill:none" points="
  919.502,1486.45 919.502,1470.09 
  "/>
<polyline clip-path="url(#clip530)" style="stroke:#000000; stroke-width:4; stroke-opacity:1; fill:none" points="
  1262.39,1486.45 1262.39,1470.09 
  "/>
<polyline clip-path="url(#clip530)" style="stroke:#000000; stroke-width:4; stroke-opacity:1; fill:none" points="
  1605.27,1486.45 1605.27,1470.09 
  "/>
<polyline clip-path="url(#clip530)" style="stroke:#000000; stroke-width:4; stroke-opacity:1; fill:none" points="
  1948.15,1486.45 1948.15,1470.09 
  "/>
<polyline clip-path="url(#clip530)" style="stroke:#000000; stroke-width:4; stroke-opacity:1; fill:none" points="
  2291.04,1486.45 2291.04,1470.09 
  "/>
<path clip-path="url(#clip530)" d="M 0 0 M203.676 1530.29 L233.352 1530.29 L233.352 1534.23 L203.676 1534.23 L203.676 1530.29 Z" fill="#000000" fill-rule="evenodd" fill-opacity="1" /><path clip-path="url(#clip530)" d="M 0 0 M247.472 1543.18 L263.792 1543.18 L263.792 1547.12 L241.847 1547.12 L241.847 1543.18 Q244.509 1540.43 249.093 1535.8 Q253.699 1531.15 254.88 1529.81 Q257.125 1527.28 258.005 1525.55 Q258.907 1523.79 258.907 1522.1 Q258.907 1519.34 256.963 1517.61 Q255.042 1515.87 251.94 1515.87 Q249.741 1515.87 247.287 1516.63 Q244.857 1517.4 242.079 1518.95 L242.079 1514.23 Q244.903 1513.09 247.357 1512.51 Q249.81 1511.93 251.847 1511.93 Q257.218 1511.93 260.412 1514.62 Q263.606 1517.31 263.606 1521.8 Q263.606 1523.93 262.796 1525.85 Q262.009 1527.74 259.903 1530.34 Q259.324 1531.01 256.222 1534.23 Q253.12 1537.42 247.472 1543.18 Z" fill="#000000" fill-rule="evenodd" fill-opacity="1" /><path clip-path="url(#clip530)" d="M 0 0 M546.375 1530.29 L576.051 1530.29 L576.051 1534.23 L546.375 1534.23 L546.375 1530.29 Z" fill="#000000" fill-rule="evenodd" fill-opacity="1" /><path clip-path="url(#clip530)" d="M 0 0 M586.953 1543.18 L594.592 1543.18 L594.592 1516.82 L586.282 1518.49 L586.282 1514.23 L594.546 1512.56 L599.222 1512.56 L599.222 1543.18 L606.861 1543.18 L606.861 1547.12 L586.953 1547.12 L586.953 1543.18 Z" fill="#000000" fill-rule="evenodd" fill-opacity="1" /><path clip-path="url(#clip530)" d="M 0 0 M919.502 1515.64 Q915.89 1515.64 914.062 1519.2 Q912.256 1522.75 912.256 1529.87 Q912.256 1536.98 914.062 1540.55 Q915.89 1544.09 919.502 1544.09 Q923.136 1544.09 924.941 1540.55 Q926.77 1536.98 926.77 1529.87 Q926.77 1522.75 924.941 1519.2 Q923.136 1515.64 919.502 1515.64 M919.502 1511.93 Q925.312 1511.93 928.367 1516.54 Q931.446 1521.12 931.446 1529.87 Q931.446 1538.6 928.367 1543.21 Q925.312 1547.79 919.502 1547.79 Q913.691 1547.79 910.613 1543.21 Q907.557 1538.6 907.557 1529.87 Q907.557 1521.12 910.613 1516.54 Q913.691 1511.93 919.502 1511.93 Z" fill="#000000" fill-rule="evenodd" fill-opacity="1" /><path clip-path="url(#clip530)" d="M 0 0 M1252.77 1543.18 L1260.41 1543.18 L1260.41 1516.82 L1252.1 1518.49 L1252.1 1514.23 L1260.36 1512.56 L1265.04 1512.56 L1265.04 1543.18 L1272.67 1543.18 L1272.67 1547.12 L1252.77 1547.12 L1252.77 1543.18 Z" fill="#000000" fill-rule="evenodd" fill-opacity="1" /><path clip-path="url(#clip530)" d="M 0 0 M1599.92 1543.18 L1616.24 1543.18 L1616.24 1547.12 L1594.3 1547.12 L1594.3 1543.18 Q1596.96 1540.43 1601.54 1535.8 Q1606.15 1531.15 1607.33 1529.81 Q1609.57 1527.28 1610.45 1525.55 Q1611.36 1523.79 1611.36 1522.1 Q1611.36 1519.34 1609.41 1517.61 Q1607.49 1515.87 1604.39 1515.87 Q1602.19 1515.87 1599.74 1516.63 Q1597.31 1517.4 1594.53 1518.95 L1594.53 1514.23 Q1597.35 1513.09 1599.81 1512.51 Q1602.26 1511.93 1604.3 1511.93 Q1609.67 1511.93 1612.86 1514.62 Q1616.06 1517.31 1616.06 1521.8 Q1616.06 1523.93 1615.25 1525.85 Q1614.46 1527.74 1612.35 1530.34 Q1611.77 1531.01 1608.67 1534.23 Q1605.57 1537.42 1599.92 1543.18 Z" fill="#000000" fill-rule="evenodd" fill-opacity="1" /><path clip-path="url(#clip530)" d="M 0 0 M1952.4 1528.49 Q1955.76 1529.2 1957.63 1531.47 Q1959.53 1533.74 1959.53 1537.07 Q1959.53 1542.19 1956.01 1544.99 Q1952.49 1547.79 1946.01 1547.79 Q1943.84 1547.79 1941.52 1547.35 Q1939.23 1546.93 1936.78 1546.08 L1936.78 1541.56 Q1938.72 1542.7 1941.03 1543.28 Q1943.35 1543.86 1945.87 1543.86 Q1950.27 1543.86 1952.56 1542.12 Q1954.88 1540.38 1954.88 1537.07 Q1954.88 1534.02 1952.72 1532.31 Q1950.6 1530.57 1946.78 1530.57 L1942.75 1530.57 L1942.75 1526.73 L1946.96 1526.73 Q1950.41 1526.73 1952.24 1525.36 Q1954.07 1523.97 1954.07 1521.38 Q1954.07 1518.72 1952.17 1517.31 Q1950.29 1515.87 1946.78 1515.87 Q1944.85 1515.87 1942.66 1516.29 Q1940.46 1516.7 1937.82 1517.58 L1937.82 1513.42 Q1940.48 1512.68 1942.79 1512.31 Q1945.13 1511.93 1947.19 1511.93 Q1952.52 1511.93 1955.62 1514.37 Q1958.72 1516.77 1958.72 1520.89 Q1958.72 1523.76 1957.08 1525.75 Q1955.43 1527.72 1952.4 1528.49 Z" fill="#000000" fill-rule="evenodd" fill-opacity="1" /><path clip-path="url(#clip530)" d="M 0 0 M2294.05 1516.63 L2282.24 1535.08 L2294.05 1535.08 L2294.05 1516.63 M2292.82 1512.56 L2298.7 1512.56 L2298.7 1535.08 L2303.63 1535.08 L2303.63 1538.97 L2298.7 1538.97 L2298.7 1547.12 L2294.05 1547.12 L2294.05 1538.97 L2278.44 1538.97 L2278.44 1534.46 L2292.82 1512.56 Z" fill="#000000" fill-rule="evenodd" fill-opacity="1" /><polyline clip-path="url(#clip532)" style="stroke:#000000; stroke-width:2; stroke-opacity:0.1; fill:none" points="
  172.015,1447.87 2352.76,1447.87 
  "/>
<polyline clip-path="url(#clip532)" style="stroke:#000000; stroke-width:2; stroke-opacity:0.1; fill:none" points="
  172.015,1130.39 2352.76,1130.39 
  "/>
<polyline clip-path="url(#clip532)" style="stroke:#000000; stroke-width:2; stroke-opacity:0.1; fill:none" points="
  172.015,812.897 2352.76,812.897 
  "/>
<polyline clip-path="url(#clip532)" style="stroke:#000000; stroke-width:2; stroke-opacity:0.1; fill:none" points="
  172.015,495.409 2352.76,495.409 
  "/>
<polyline clip-path="url(#clip532)" style="stroke:#000000; stroke-width:2; stroke-opacity:0.1; fill:none" points="
  172.015,177.921 2352.76,177.921 
  "/>
<polyline clip-path="url(#clip530)" style="stroke:#000000; stroke-width:4; stroke-opacity:1; fill:none" points="
  172.015,1486.45 172.015,123.472 
  "/>
<polyline clip-path="url(#clip530)" style="stroke:#000000; stroke-width:4; stroke-opacity:1; fill:none" points="
  172.015,1447.87 198.184,1447.87 
  "/>
<polyline clip-path="url(#clip530)" style="stroke:#000000; stroke-width:4; stroke-opacity:1; fill:none" points="
  172.015,1130.39 198.184,1130.39 
  "/>
<polyline clip-path="url(#clip530)" style="stroke:#000000; stroke-width:4; stroke-opacity:1; fill:none" points="
  172.015,812.897 198.184,812.897 
  "/>
<polyline clip-path="url(#clip530)" style="stroke:#000000; stroke-width:4; stroke-opacity:1; fill:none" points="
  172.015,495.409 198.184,495.409 
  "/>
<polyline clip-path="url(#clip530)" style="stroke:#000000; stroke-width:4; stroke-opacity:1; fill:none" points="
  172.015,177.921 198.184,177.921 
  "/>
<path clip-path="url(#clip530)" d="M 0 0 M124.07 1433.67 Q120.459 1433.67 118.631 1437.24 Q116.825 1440.78 116.825 1447.91 Q116.825 1455.01 118.631 1458.58 Q120.459 1462.12 124.07 1462.12 Q127.705 1462.12 129.51 1458.58 Q131.339 1455.01 131.339 1447.91 Q131.339 1440.78 129.51 1437.24 Q127.705 1433.67 124.07 1433.67 M124.07 1429.97 Q129.881 1429.97 132.936 1434.57 Q136.015 1439.16 136.015 1447.91 Q136.015 1456.63 132.936 1461.24 Q129.881 1465.82 124.07 1465.82 Q118.26 1465.82 115.182 1461.24 Q112.126 1456.63 112.126 1447.91 Q112.126 1439.16 115.182 1434.57 Q118.26 1429.97 124.07 1429.97 Z" fill="#000000" fill-rule="evenodd" fill-opacity="1" /><path clip-path="url(#clip530)" d="M 0 0 M57.7745 1143.73 L74.0939 1143.73 L74.0939 1147.67 L52.1495 1147.67 L52.1495 1143.73 Q54.8115 1140.98 59.3949 1136.35 Q64.0013 1131.69 65.1819 1130.35 Q67.4272 1127.83 68.3068 1126.09 Q69.2096 1124.33 69.2096 1122.64 Q69.2096 1119.89 67.2652 1118.15 Q65.3439 1116.42 62.2421 1116.42 Q60.043 1116.42 57.5893 1117.18 Q55.1588 1117.94 52.381 1119.49 L52.381 1114.77 Q55.2051 1113.64 57.6588 1113.06 Q60.1124 1112.48 62.1495 1112.48 Q67.5198 1112.48 70.7142 1115.17 Q73.9087 1117.85 73.9087 1122.34 Q73.9087 1124.47 73.0985 1126.39 Q72.3115 1128.29 70.205 1130.88 Q69.6263 1131.55 66.5245 1134.77 Q63.4226 1137.97 57.7745 1143.73 Z" fill="#000000" fill-rule="evenodd" fill-opacity="1" /><path clip-path="url(#clip530)" d="M 0 0 M93.9086 1116.18 Q90.2975 1116.18 88.4688 1119.75 Q86.6632 1123.29 86.6632 1130.42 Q86.6632 1137.53 88.4688 1141.09 Q90.2975 1144.63 93.9086 1144.63 Q97.5428 1144.63 99.3483 1141.09 Q101.177 1137.53 101.177 1130.42 Q101.177 1123.29 99.3483 1119.75 Q97.5428 1116.18 93.9086 1116.18 M93.9086 1112.48 Q99.7187 1112.48 102.774 1117.09 Q105.853 1121.67 105.853 1130.42 Q105.853 1139.15 102.774 1143.75 Q99.7187 1148.34 93.9086 1148.34 Q88.0984 1148.34 85.0197 1143.75 Q81.9642 1139.15 81.9642 1130.42 Q81.9642 1121.67 85.0197 1117.09 Q88.0984 1112.48 93.9086 1112.48 Z" fill="#000000" fill-rule="evenodd" fill-opacity="1" /><path clip-path="url(#clip530)" d="M 0 0 M124.07 1116.18 Q120.459 1116.18 118.631 1119.75 Q116.825 1123.29 116.825 1130.42 Q116.825 1137.53 118.631 1141.09 Q120.459 1144.63 124.07 1144.63 Q127.705 1144.63 129.51 1141.09 Q131.339 1137.53 131.339 1130.42 Q131.339 1123.29 129.51 1119.75 Q127.705 1116.18 124.07 1116.18 M124.07 1112.48 Q129.881 1112.48 132.936 1117.09 Q136.015 1121.67 136.015 1130.42 Q136.015 1139.15 132.936 1143.75 Q129.881 1148.34 124.07 1148.34 Q118.26 1148.34 115.182 1143.75 Q112.126 1139.15 112.126 1130.42 Q112.126 1121.67 115.182 1117.09 Q118.26 1112.48 124.07 1112.48 Z" fill="#000000" fill-rule="evenodd" fill-opacity="1" /><path clip-path="url(#clip530)" d="M 0 0 M66.5939 799.691 L54.7884 818.14 L66.5939 818.14 L66.5939 799.691 M65.367 795.617 L71.2466 795.617 L71.2466 818.14 L76.1772 818.14 L76.1772 822.029 L71.2466 822.029 L71.2466 830.177 L66.5939 830.177 L66.5939 822.029 L50.9921 822.029 L50.9921 817.515 L65.367 795.617 Z" fill="#000000" fill-rule="evenodd" fill-opacity="1" /><path clip-path="url(#clip530)" d="M 0 0 M93.9086 798.696 Q90.2975 798.696 88.4688 802.261 Q86.6632 805.802 86.6632 812.932 Q86.6632 820.038 88.4688 823.603 Q90.2975 827.145 93.9086 827.145 Q97.5428 827.145 99.3483 823.603 Q101.177 820.038 101.177 812.932 Q101.177 805.802 99.3483 802.261 Q97.5428 798.696 93.9086 798.696 M93.9086 794.992 Q99.7187 794.992 102.774 799.599 Q105.853 804.182 105.853 812.932 Q105.853 821.659 102.774 826.265 Q99.7187 830.848 93.9086 830.848 Q88.0984 830.848 85.0197 826.265 Q81.9642 821.659 81.9642 812.932 Q81.9642 804.182 85.0197 799.599 Q88.0984 794.992 93.9086 794.992 Z" fill="#000000" fill-rule="evenodd" fill-opacity="1" /><path clip-path="url(#clip530)" d="M 0 0 M124.07 798.696 Q120.459 798.696 118.631 802.261 Q116.825 805.802 116.825 812.932 Q116.825 820.038 118.631 823.603 Q120.459 827.145 124.07 827.145 Q127.705 827.145 129.51 823.603 Q131.339 820.038 131.339 812.932 Q131.339 805.802 129.51 802.261 Q127.705 798.696 124.07 798.696 M124.07 794.992 Q129.881 794.992 132.936 799.599 Q136.015 804.182 136.015 812.932 Q136.015 821.659 132.936 826.265 Q129.881 830.848 124.07 830.848 Q118.26 830.848 115.182 826.265 Q112.126 821.659 112.126 812.932 Q112.126 804.182 115.182 799.599 Q118.26 794.992 124.07 794.992 Z" fill="#000000" fill-rule="evenodd" fill-opacity="1" /><path clip-path="url(#clip530)" d="M 0 0 M64.3254 493.546 Q61.1773 493.546 59.3254 495.699 Q57.4967 497.851 57.4967 501.601 Q57.4967 505.328 59.3254 507.504 Q61.1773 509.657 64.3254 509.657 Q67.4735 509.657 69.3022 507.504 Q71.1541 505.328 71.1541 501.601 Q71.1541 497.851 69.3022 495.699 Q67.4735 493.546 64.3254 493.546 M73.6077 478.893 L73.6077 483.152 Q71.8485 482.319 70.0429 481.879 Q68.2606 481.439 66.5013 481.439 Q61.8717 481.439 59.418 484.564 Q56.9875 487.689 56.6402 494.009 Q58.006 491.995 60.0662 490.93 Q62.1263 489.842 64.6032 489.842 Q69.8115 489.842 72.8207 493.013 Q75.8531 496.162 75.8531 501.601 Q75.8531 506.925 72.705 510.143 Q69.5568 513.361 64.3254 513.361 Q58.33 513.361 55.1588 508.777 Q51.9875 504.171 51.9875 495.444 Q51.9875 487.25 55.8764 482.388 Q59.7652 477.504 66.3161 477.504 Q68.0754 477.504 69.8578 477.851 Q71.6633 478.199 73.6077 478.893 Z" fill="#000000" fill-rule="evenodd" fill-opacity="1" /><path clip-path="url(#clip530)" d="M 0 0 M93.9086 481.208 Q90.2975 481.208 88.4688 484.773 Q86.6632 488.314 86.6632 495.444 Q86.6632 502.55 88.4688 506.115 Q90.2975 509.657 93.9086 509.657 Q97.5428 509.657 99.3483 506.115 Q101.177 502.55 101.177 495.444 Q101.177 488.314 99.3483 484.773 Q97.5428 481.208 93.9086 481.208 M93.9086 477.504 Q99.7187 477.504 102.774 482.111 Q105.853 486.694 105.853 495.444 Q105.853 504.171 102.774 508.777 Q99.7187 513.361 93.9086 513.361 Q88.0984 513.361 85.0197 508.777 Q81.9642 504.171 81.9642 495.444 Q81.9642 486.694 85.0197 482.111 Q88.0984 477.504 93.9086 477.504 Z" fill="#000000" fill-rule="evenodd" fill-opacity="1" /><path clip-path="url(#clip530)" d="M 0 0 M124.07 481.208 Q120.459 481.208 118.631 484.773 Q116.825 488.314 116.825 495.444 Q116.825 502.55 118.631 506.115 Q120.459 509.657 124.07 509.657 Q127.705 509.657 129.51 506.115 Q131.339 502.55 131.339 495.444 Q131.339 488.314 129.51 484.773 Q127.705 481.208 124.07 481.208 M124.07 477.504 Q129.881 477.504 132.936 482.111 Q136.015 486.694 136.015 495.444 Q136.015 504.171 132.936 508.777 Q129.881 513.361 124.07 513.361 Q118.26 513.361 115.182 508.777 Q112.126 504.171 112.126 495.444 Q112.126 486.694 115.182 482.111 Q118.26 477.504 124.07 477.504 Z" fill="#000000" fill-rule="evenodd" fill-opacity="1" /><path clip-path="url(#clip530)" d="M 0 0 M63.7467 178.789 Q60.4134 178.789 58.4921 180.572 Q56.5939 182.354 56.5939 185.479 Q56.5939 188.604 58.4921 190.387 Q60.4134 192.169 63.7467 192.169 Q67.08 192.169 69.0013 190.387 Q70.9226 188.581 70.9226 185.479 Q70.9226 182.354 69.0013 180.572 Q67.1032 178.789 63.7467 178.789 M59.0708 176.799 Q56.0615 176.058 54.3717 173.998 Q52.7051 171.938 52.7051 168.975 Q52.7051 164.831 55.6449 162.424 Q58.6078 160.016 63.7467 160.016 Q68.9087 160.016 71.8485 162.424 Q74.7883 164.831 74.7883 168.975 Q74.7883 171.938 73.0985 173.998 Q71.4318 176.058 68.4457 176.799 Q71.8253 177.586 73.7003 179.877 Q75.5985 182.169 75.5985 185.479 Q75.5985 190.502 72.5198 193.187 Q69.4642 195.873 63.7467 195.873 Q58.0291 195.873 54.9504 193.187 Q51.8949 190.502 51.8949 185.479 Q51.8949 182.169 53.793 179.877 Q55.6912 177.586 59.0708 176.799 M57.3578 169.414 Q57.3578 172.1 59.0245 173.604 Q60.7143 175.109 63.7467 175.109 Q66.7559 175.109 68.4457 173.604 Q70.1587 172.1 70.1587 169.414 Q70.1587 166.729 68.4457 165.225 Q66.7559 163.72 63.7467 163.72 Q60.7143 163.72 59.0245 165.225 Q57.3578 166.729 57.3578 169.414 Z" fill="#000000" fill-rule="evenodd" fill-opacity="1" /><path clip-path="url(#clip530)" d="M 0 0 M93.9086 163.72 Q90.2975 163.72 88.4688 167.285 Q86.6632 170.826 86.6632 177.956 Q86.6632 185.062 88.4688 188.627 Q90.2975 192.169 93.9086 192.169 Q97.5428 192.169 99.3483 188.627 Q101.177 185.062 101.177 177.956 Q101.177 170.826 99.3483 167.285 Q97.5428 163.72 93.9086 163.72 M93.9086 160.016 Q99.7187 160.016 102.774 164.623 Q105.853 169.206 105.853 177.956 Q105.853 186.683 102.774 191.289 Q99.7187 195.873 93.9086 195.873 Q88.0984 195.873 85.0197 191.289 Q81.9642 186.683 81.9642 177.956 Q81.9642 169.206 85.0197 164.623 Q88.0984 160.016 93.9086 160.016 Z" fill="#000000" fill-rule="evenodd" fill-opacity="1" /><path clip-path="url(#clip530)" d="M 0 0 M124.07 163.72 Q120.459 163.72 118.631 167.285 Q116.825 170.826 116.825 177.956 Q116.825 185.062 118.631 188.627 Q120.459 192.169 124.07 192.169 Q127.705 192.169 129.51 188.627 Q131.339 185.062 131.339 177.956 Q131.339 170.826 129.51 167.285 Q127.705 163.72 124.07 163.72 M124.07 160.016 Q129.881 160.016 132.936 164.623 Q136.015 169.206 136.015 177.956 Q136.015 186.683 132.936 191.289 Q129.881 195.873 124.07 195.873 Q118.26 195.873 115.182 191.289 Q112.126 186.683 112.126 177.956 Q112.126 169.206 115.182 164.623 Q118.26 160.016 124.07 160.016 Z" fill="#000000" fill-rule="evenodd" fill-opacity="1" /><path clip-path="url(#clip530)" d="M 0 0 M1179.36 18.8205 L1179.36 65.8515 L1189.25 65.8515 Q1201.76 65.8515 1207.56 60.1802 Q1213.39 54.509 1213.39 42.2752 Q1213.39 30.1225 1207.56 24.4918 Q1201.76 18.8205 1189.25 18.8205 L1179.36 18.8205 M1171.18 12.096 L1187.99 12.096 Q1205.57 12.096 1213.79 19.4281 Q1222.02 26.7198 1222.02 42.2752 Q1222.02 57.9117 1213.75 65.2439 Q1205.49 72.576 1187.99 72.576 L1171.18 72.576 L1171.18 12.096 Z" fill="#000000" fill-rule="evenodd" fill-opacity="1" /><path clip-path="url(#clip530)" d="M 0 0 M1255.36 49.7694 Q1246.32 49.7694 1242.84 51.8354 Q1239.36 53.9013 1239.36 58.8839 Q1239.36 62.8538 1241.95 65.2034 Q1244.58 67.5124 1249.08 67.5124 Q1255.28 67.5124 1259 63.1374 Q1262.77 58.7219 1262.77 51.4303 L1262.77 49.7694 L1255.36 49.7694 M1270.22 46.6907 L1270.22 72.576 L1262.77 72.576 L1262.77 65.6895 Q1260.22 69.8214 1256.41 71.8063 Q1252.6 73.7508 1247.09 73.7508 Q1240.13 73.7508 1235.99 69.8619 Q1231.9 65.9325 1231.9 59.3701 Q1231.9 51.7138 1237.01 47.825 Q1242.15 43.9361 1252.32 43.9361 L1262.77 43.9361 L1262.77 43.2069 Q1262.77 38.0623 1259.37 35.2672 Q1256.01 32.4315 1249.89 32.4315 Q1246 32.4315 1242.31 33.3632 Q1238.63 34.295 1235.22 36.1584 L1235.22 29.2718 Q1239.32 27.692 1243.16 26.9223 Q1247.01 26.1121 1250.66 26.1121 Q1260.5 26.1121 1265.36 31.2163 Q1270.22 36.3204 1270.22 46.6907 Z" fill="#000000" fill-rule="evenodd" fill-opacity="1" /><path clip-path="url(#clip530)" d="M 0 0 M1292.95 14.324 L1292.95 27.2059 L1308.3 27.2059 L1308.3 32.9987 L1292.95 32.9987 L1292.95 57.6282 Q1292.95 63.1779 1294.45 64.7578 Q1295.99 66.3376 1300.65 66.3376 L1308.3 66.3376 L1308.3 72.576 L1300.65 72.576 Q1292.02 72.576 1288.74 69.3758 Q1285.46 66.1351 1285.46 57.6282 L1285.46 32.9987 L1279.99 32.9987 L1279.99 27.2059 L1285.46 27.2059 L1285.46 14.324 L1292.95 14.324 Z" fill="#000000" fill-rule="evenodd" fill-opacity="1" /><path clip-path="url(#clip530)" d="M 0 0 M1338.72 49.7694 Q1329.69 49.7694 1326.21 51.8354 Q1322.72 53.9013 1322.72 58.8839 Q1322.72 62.8538 1325.32 65.2034 Q1327.95 67.5124 1332.45 67.5124 Q1338.64 67.5124 1342.37 63.1374 Q1346.14 58.7219 1346.14 51.4303 L1346.14 49.7694 L1338.72 49.7694 M1353.59 46.6907 L1353.59 72.576 L1346.14 72.576 L1346.14 65.6895 Q1343.59 69.8214 1339.78 71.8063 Q1335.97 73.7508 1330.46 73.7508 Q1323.49 73.7508 1319.36 69.8619 Q1315.27 65.9325 1315.27 59.3701 Q1315.27 51.7138 1320.37 47.825 Q1325.52 43.9361 1335.69 43.9361 L1346.14 43.9361 L1346.14 43.2069 Q1346.14 38.0623 1342.74 35.2672 Q1339.37 32.4315 1333.26 32.4315 Q1329.37 32.4315 1325.68 33.3632 Q1321.99 34.295 1318.59 36.1584 L1318.59 29.2718 Q1322.68 27.692 1326.53 26.9223 Q1330.38 26.1121 1334.03 26.1121 Q1343.87 26.1121 1348.73 31.2163 Q1353.59 36.3204 1353.59 46.6907 Z" fill="#000000" fill-rule="evenodd" fill-opacity="1" /><polyline clip-path="url(#clip532)" style="stroke:#009af9; stroke-width:4; stroke-opacity:1; fill:none" points="
  233.734,1447.87 233.734,1368.5 268.022,1368.5 268.022,1336.75 302.311,1336.75 302.311,1193.88 336.599,1193.88 336.599,1289.13 370.887,1289.13 370.887,1146.26 
  405.176,1146.26 405.176,1051.01 439.464,1051.01 439.464,955.767 473.753,955.767 473.753,939.892 508.041,939.892 508.041,955.767 542.329,955.767 542.329,860.52 
  576.618,860.52 576.618,717.651 610.906,717.651 610.906,765.274 645.194,765.274 645.194,955.767 679.483,955.767 679.483,876.395 713.771,876.395 713.771,1051.01 
  748.06,1051.01 748.06,1098.64 782.348,1098.64 782.348,1066.89 816.636,1066.89 816.636,1225.63 850.925,1225.63 850.925,1289.13 885.213,1289.13 885.213,1320.88 
  919.502,1320.88 919.502,1416.12 953.79,1416.12 953.79,1352.63 988.078,1352.63 988.078,1384.38 1022.37,1384.38 1022.37,1432 1056.66,1432 1056.66,1400.25 
  1090.94,1400.25 1090.94,1447.87 1125.23,1447.87 1125.23,1432 1159.52,1432 1159.52,1384.38 1193.81,1384.38 1193.81,1352.63 1228.1,1352.63 
  1262.39,1352.63 1262.39,1193.88 1296.67,1193.88 1296.67,1130.39 1330.96,1130.39 1330.96,1019.26 1365.25,1019.26 1365.25,924.018 1399.54,924.018 1399.54,638.279 
  1433.83,638.279 1433.83,479.535 1468.12,479.535 1468.12,511.284 1502.4,511.284 1502.4,162.047 1536.69,162.047 1536.69,511.284 1570.98,511.284 1570.98,336.665 
  1605.27,336.665 1605.27,241.419 1639.56,241.419 1639.56,209.67 1673.85,209.67 1708.13,209.67 1742.42,209.67 1742.42,797.023 
  1776.71,797.023 1776.71,733.525 1811,733.525 1811,1003.39 1845.29,1003.39 1845.29,955.767 1879.58,955.767 1879.58,1193.88 1913.86,1193.88 1913.86,1178.01 
  1948.15,1178.01 1948.15,1352.63 1982.44,1352.63 1982.44,1384.38 2016.73,1384.38 2016.73,1400.25 2051.02,1400.25 2051.02,1432 2085.31,1432 2085.31,1447.87 
  2119.59,1447.87 2153.88,1447.87 2188.17,1447.87 2222.46,1447.87 2256.75,1447.87 
  2291.04,1447.87 
  "/>
<path clip-path="url(#clip530)" d="
M1933.52 289.865 L2280.06 289.865 L2280.06 168.905 L1933.52 168.905  Z
  " fill="#ffffff" fill-rule="evenodd" fill-opacity="1"/>
<polyline clip-path="url(#clip530)" style="stroke:#000000; stroke-width:4; stroke-opacity:1; fill:none" points="
  1933.52,289.865 2280.06,289.865 2280.06,168.905 1933.52,168.905 1933.52,289.865 
  "/>
<polyline clip-path="url(#clip530)" style="stroke:#009af9; stroke-width:4; stroke-opacity:1; fill:none" points="
  1957.75,229.385 2103.14,229.385 
  "/>
<path clip-path="url(#clip530)" d="M 0 0 M2132.04 215.947 L2132.04 242.822 L2137.69 242.822 Q2144.84 242.822 2148.15 239.581 Q2151.49 236.341 2151.49 229.35 Q2151.49 222.406 2148.15 219.188 Q2144.84 215.947 2137.69 215.947 L2132.04 215.947 M2127.37 212.105 L2136.97 212.105 Q2147.02 212.105 2151.72 216.294 Q2156.42 220.461 2156.42 229.35 Q2156.42 238.285 2151.7 242.475 Q2146.97 246.665 2136.97 246.665 L2127.37 246.665 L2127.37 212.105 Z" fill="#000000" fill-rule="evenodd" fill-opacity="1" /><path clip-path="url(#clip530)" d="M 0 0 M2175.47 233.632 Q2170.31 233.632 2168.32 234.813 Q2166.33 235.993 2166.33 238.841 Q2166.33 241.109 2167.81 242.452 Q2169.31 243.771 2171.88 243.771 Q2175.42 243.771 2177.55 241.271 Q2179.71 238.748 2179.71 234.581 L2179.71 233.632 L2175.47 233.632 M2183.96 231.873 L2183.96 246.665 L2179.71 246.665 L2179.71 242.729 Q2178.25 245.091 2176.07 246.225 Q2173.9 247.336 2170.75 247.336 Q2166.77 247.336 2164.4 245.114 Q2162.07 242.868 2162.07 239.118 Q2162.07 234.743 2164.98 232.521 Q2167.92 230.299 2173.73 230.299 L2179.71 230.299 L2179.71 229.882 Q2179.71 226.943 2177.76 225.345 Q2175.84 223.725 2172.34 223.725 Q2170.12 223.725 2168.02 224.257 Q2165.91 224.79 2163.97 225.855 L2163.97 221.919 Q2166.3 221.017 2168.5 220.577 Q2170.7 220.114 2172.78 220.114 Q2178.41 220.114 2181.19 223.031 Q2183.96 225.947 2183.96 231.873 Z" fill="#000000" fill-rule="evenodd" fill-opacity="1" /><path clip-path="url(#clip530)" d="M 0 0 M2196.95 213.378 L2196.95 220.739 L2205.72 220.739 L2205.72 224.049 L2196.95 224.049 L2196.95 238.123 Q2196.95 241.294 2197.81 242.197 Q2198.69 243.1 2201.35 243.1 L2205.72 243.1 L2205.72 246.665 L2201.35 246.665 Q2196.42 246.665 2194.54 244.836 Q2192.67 242.984 2192.67 238.123 L2192.67 224.049 L2189.54 224.049 L2189.54 220.739 L2192.67 220.739 L2192.67 213.378 L2196.95 213.378 Z" fill="#000000" fill-rule="evenodd" fill-opacity="1" /><path clip-path="url(#clip530)" d="M 0 0 M2223.11 233.632 Q2217.95 233.632 2215.96 234.813 Q2213.96 235.993 2213.96 238.841 Q2213.96 241.109 2215.45 242.452 Q2216.95 243.771 2219.52 243.771 Q2223.06 243.771 2225.19 241.271 Q2227.34 238.748 2227.34 234.581 L2227.34 233.632 L2223.11 233.632 M2231.6 231.873 L2231.6 246.665 L2227.34 246.665 L2227.34 242.729 Q2225.89 245.091 2223.71 246.225 Q2221.53 247.336 2218.39 247.336 Q2214.4 247.336 2212.04 245.114 Q2209.71 242.868 2209.71 239.118 Q2209.71 234.743 2212.62 232.521 Q2215.56 230.299 2221.37 230.299 L2227.34 230.299 L2227.34 229.882 Q2227.34 226.943 2225.4 225.345 Q2223.48 223.725 2219.98 223.725 Q2217.76 223.725 2215.65 224.257 Q2213.55 224.79 2211.6 225.855 L2211.6 221.919 Q2213.94 221.017 2216.14 220.577 Q2218.34 220.114 2220.42 220.114 Q2226.05 220.114 2228.83 223.031 Q2231.6 225.947 2231.6 231.873 Z" fill="#000000" fill-rule="evenodd" fill-opacity="1" /></svg>
