<?xml version="1.0" encoding="utf-8"?>
<svg xmlns="http://www.w3.org/2000/svg" xmlns:xlink="http://www.w3.org/1999/xlink" width="600" height="400" viewBox="0 0 2400 1600">
<defs>
  <clipPath id="clip320">
    <rect x="0" y="0" width="2400" height="1600"/>
  </clipPath>
</defs>
<path clip-path="url(#clip320)" d="
M0 1600 L2400 1600 L2400 0 L0 0  Z
  " fill="#ffffff" fill-rule="evenodd" fill-opacity="1"/>
<defs>
  <clipPath id="clip321">
    <rect x="480" y="0" width="1681" height="1600"/>
  </clipPath>
</defs>
<path clip-path="url(#clip320)" d="
M166.205 1486.45 L2352.76 1486.45 L2352.76 123.472 L166.205 123.472  Z
  " fill="#ffffff" fill-rule="evenodd" fill-opacity="1"/>
<defs>
  <clipPath id="clip322">
    <rect x="166" y="123" width="2188" height="1364"/>
  </clipPath>
</defs>
<polyline clip-path="url(#clip322)" style="stroke:#000000; stroke-width:2; stroke-opacity:0.1; fill:none" points="
  228.088,1486.45 228.088,123.472 
  "/>
<polyline clip-path="url(#clip322)" style="stroke:#000000; stroke-width:2; stroke-opacity:0.1; fill:none" points="
  571.886,1486.45 571.886,123.472 
  "/>
<polyline clip-path="url(#clip322)" style="stroke:#000000; stroke-width:2; stroke-opacity:0.1; fill:none" points="
  915.683,1486.45 915.683,123.472 
  "/>
<polyline clip-path="url(#clip322)" style="stroke:#000000; stroke-width:2; stroke-opacity:0.1; fill:none" points="
  1259.48,1486.45 1259.48,123.472 
  "/>
<polyline clip-path="url(#clip322)" style="stroke:#000000; stroke-width:2; stroke-opacity:0.1; fill:none" points="
  1603.28,1486.45 1603.28,123.472 
  "/>
<polyline clip-path="url(#clip322)" style="stroke:#000000; stroke-width:2; stroke-opacity:0.1; fill:none" points="
  1947.08,1486.45 1947.08,123.472 
  "/>
<polyline clip-path="url(#clip322)" style="stroke:#000000; stroke-width:2; stroke-opacity:0.1; fill:none" points="
  2290.87,1486.45 2290.87,123.472 
  "/>
<polyline clip-path="url(#clip320)" style="stroke:#000000; stroke-width:4; stroke-opacity:1; fill:none" points="
  166.205,1486.45 2352.76,1486.45 
  "/>
<polyline clip-path="url(#clip320)" style="stroke:#000000; stroke-width:4; stroke-opacity:1; fill:none" points="
  228.088,1486.45 228.088,1470.09 
  "/>
<polyline clip-path="url(#clip320)" style="stroke:#000000; stroke-width:4; stroke-opacity:1; fill:none" points="
  571.886,1486.45 571.886,1470.09 
  "/>
<polyline clip-path="url(#clip320)" style="stroke:#000000; stroke-width:4; stroke-opacity:1; fill:none" points="
  915.683,1486.45 915.683,1470.09 
  "/>
<polyline clip-path="url(#clip320)" style="stroke:#000000; stroke-width:4; stroke-opacity:1; fill:none" points="
  1259.48,1486.45 1259.48,1470.09 
  "/>
<polyline clip-path="url(#clip320)" style="stroke:#000000; stroke-width:4; stroke-opacity:1; fill:none" points="
  1603.28,1486.45 1603.28,1470.09 
  "/>
<polyline clip-path="url(#clip320)" style="stroke:#000000; stroke-width:4; stroke-opacity:1; fill:none" points="
  1947.08,1486.45 1947.08,1470.09 
  "/>
<polyline clip-path="url(#clip320)" style="stroke:#000000; stroke-width:4; stroke-opacity:1; fill:none" points="
  2290.87,1486.45 2290.87,1470.09 
  "/>
<path clip-path="url(#clip320)" d="M 0 0 M200.542 1530.29 L230.218 1530.29 L230.218 1534.23 L200.542 1534.23 L200.542 1530.29 Z" fill="#000000" fill-rule="evenodd" fill-opacity="1" /><path clip-path="url(#clip320)" d="M 0 0 M239.315 1543.18 L255.634 1543.18 L255.634 1547.12 L233.69 1547.12 L233.69 1543.18 Q236.352 1540.43 240.935 1535.8 Q245.542 1531.15 246.722 1529.81 Q248.968 1527.28 249.847 1525.55 Q250.75 1523.79 250.75 1522.1 Q250.75 1519.34 248.806 1517.61 Q246.884 1515.87 243.783 1515.87 Q241.583 1515.87 239.13 1516.63 Q236.699 1517.4 233.921 1518.95 L233.921 1514.23 Q236.746 1513.09 239.199 1512.51 Q241.653 1511.93 243.69 1511.93 Q249.06 1511.93 252.255 1514.62 Q255.449 1517.31 255.449 1521.8 Q255.449 1523.93 254.639 1525.85 Q253.852 1527.74 251.745 1530.34 Q251.167 1531.01 248.065 1534.23 Q244.963 1537.42 239.315 1543.18 Z" fill="#000000" fill-rule="evenodd" fill-opacity="1" /><path clip-path="url(#clip320)" d="M 0 0 M544.154 1530.29 L573.83 1530.29 L573.83 1534.23 L544.154 1534.23 L544.154 1530.29 Z" fill="#000000" fill-rule="evenodd" fill-opacity="1" /><path clip-path="url(#clip320)" d="M 0 0 M579.71 1543.18 L587.348 1543.18 L587.348 1516.82 L579.038 1518.49 L579.038 1514.23 L587.302 1512.56 L591.978 1512.56 L591.978 1543.18 L599.617 1543.18 L599.617 1547.12 L579.71 1547.12 L579.71 1543.18 Z" fill="#000000" fill-rule="evenodd" fill-opacity="1" /><path clip-path="url(#clip320)" d="M 0 0 M915.683 1515.64 Q912.072 1515.64 910.243 1519.2 Q908.438 1522.75 908.438 1529.87 Q908.438 1536.98 910.243 1540.55 Q912.072 1544.09 915.683 1544.09 Q919.317 1544.09 921.123 1540.55 Q922.951 1536.98 922.951 1529.87 Q922.951 1522.75 921.123 1519.2 Q919.317 1515.64 915.683 1515.64 M915.683 1511.93 Q921.493 1511.93 924.549 1516.54 Q927.627 1521.12 927.627 1529.87 Q927.627 1538.6 924.549 1543.21 Q921.493 1547.79 915.683 1547.79 Q909.873 1547.79 906.794 1543.21 Q903.739 1538.6 903.739 1529.87 Q903.739 1521.12 906.794 1516.54 Q909.873 1511.93 915.683 1511.93 Z" fill="#000000" fill-rule="evenodd" fill-opacity="1" /><path clip-path="url(#clip320)" d="M 0 0 M1249.86 1543.18 L1257.5 1543.18 L1257.5 1516.82 L1249.19 1518.49 L1249.19 1514.23 L1257.45 1512.56 L1262.13 1512.56 L1262.13 1543.18 L1269.77 1543.18 L1269.77 1547.12 L1249.86 1547.12 L1249.86 1543.18 Z" fill="#000000" fill-rule="evenodd" fill-opacity="1" /><path clip-path="url(#clip320)" d="M 0 0 M1597.93 1543.18 L1614.25 1543.18 L1614.25 1547.12 L1592.31 1547.12 L1592.31 1543.18 Q1594.97 1540.43 1599.55 1535.8 Q1604.16 1531.15 1605.34 1529.81 Q1607.58 1527.28 1608.46 1525.55 Q1609.37 1523.79 1609.37 1522.1 Q1609.37 1519.34 1607.42 1517.61 Q1605.5 1515.87 1602.4 1515.87 Q1600.2 1515.87 1597.75 1516.63 Q1595.31 1517.4 1592.54 1518.95 L1592.54 1514.23 Q1595.36 1513.09 1597.81 1512.51 Q1600.27 1511.93 1602.31 1511.93 Q1607.68 1511.93 1610.87 1514.62 Q1614.06 1517.31 1614.06 1521.8 Q1614.06 1523.93 1613.25 1525.85 Q1612.47 1527.74 1610.36 1530.34 Q1609.78 1531.01 1606.68 1534.23 Q1603.58 1537.42 1597.93 1543.18 Z" fill="#000000" fill-rule="evenodd" fill-opacity="1" /><path clip-path="url(#clip320)" d="M 0 0 M1951.32 1528.49 Q1954.68 1529.2 1956.55 1531.47 Q1958.45 1533.74 1958.45 1537.07 Q1958.45 1542.19 1954.93 1544.99 Q1951.42 1547.79 1944.93 1547.79 Q1942.76 1547.79 1940.44 1547.35 Q1938.15 1546.93 1935.7 1546.08 L1935.7 1541.56 Q1937.64 1542.7 1939.96 1543.28 Q1942.27 1543.86 1944.79 1543.86 Q1949.19 1543.86 1951.48 1542.12 Q1953.8 1540.38 1953.8 1537.07 Q1953.8 1534.02 1951.65 1532.31 Q1949.52 1530.57 1945.7 1530.57 L1941.67 1530.57 L1941.67 1526.73 L1945.88 1526.73 Q1949.33 1526.73 1951.16 1525.36 Q1952.99 1523.97 1952.99 1521.38 Q1952.99 1518.72 1951.09 1517.31 Q1949.22 1515.87 1945.7 1515.87 Q1943.78 1515.87 1941.58 1516.29 Q1939.38 1516.7 1936.74 1517.58 L1936.74 1513.42 Q1939.4 1512.68 1941.72 1512.31 Q1944.05 1511.93 1946.11 1511.93 Q1951.44 1511.93 1954.54 1514.37 Q1957.64 1516.77 1957.64 1520.89 Q1957.64 1523.76 1956 1525.75 Q1954.36 1527.72 1951.32 1528.49 Z" fill="#000000" fill-rule="evenodd" fill-opacity="1" /><path clip-path="url(#clip320)" d="M 0 0 M2293.88 1516.63 L2282.08 1535.08 L2293.88 1535.08 L2293.88 1516.63 M2292.65 1512.56 L2298.53 1512.56 L2298.53 1535.08 L2303.46 1535.08 L2303.46 1538.97 L2298.53 1538.97 L2298.53 1547.12 L2293.88 1547.12 L2293.88 1538.97 L2278.28 1538.97 L2278.28 1534.46 L2292.65 1512.56 Z" fill="#000000" fill-rule="evenodd" fill-opacity="1" /><polyline clip-path="url(#clip322)" style="stroke:#000000; stroke-width:2; stroke-opacity:0.1; fill:none" points="
  166.205,1447.87 2352.76,1447.87 
  "/>
<polyline clip-path="url(#clip322)" style="stroke:#000000; stroke-width:2; stroke-opacity:0.1; fill:none" points="
  166.205,1152.28 2352.76,1152.28 
  "/>
<polyline clip-path="url(#clip322)" style="stroke:#000000; stroke-width:2; stroke-opacity:0.1; fill:none" points="
  166.205,856.689 2352.76,856.689 
  "/>
<polyline clip-path="url(#clip322)" style="stroke:#000000; stroke-width:2; stroke-opacity:0.1; fill:none" points="
  166.205,561.096 2352.76,561.096 
  "/>
<polyline clip-path="url(#clip322)" style="stroke:#000000; stroke-width:2; stroke-opacity:0.1; fill:none" points="
  166.205,265.504 2352.76,265.504 
  "/>
<polyline clip-path="url(#clip320)" style="stroke:#000000; stroke-width:4; stroke-opacity:1; fill:none" points="
  166.205,1486.45 166.205,123.472 
  "/>
<polyline clip-path="url(#clip320)" style="stroke:#000000; stroke-width:4; stroke-opacity:1; fill:none" points="
  166.205,1447.87 192.443,1447.87 
  "/>
<polyline clip-path="url(#clip320)" style="stroke:#000000; stroke-width:4; stroke-opacity:1; fill:none" points="
  166.205,1152.28 192.443,1152.28 
  "/>
<polyline clip-path="url(#clip320)" style="stroke:#000000; stroke-width:4; stroke-opacity:1; fill:none" points="
  166.205,856.689 192.443,856.689 
  "/>
<polyline clip-path="url(#clip320)" style="stroke:#000000; stroke-width:4; stroke-opacity:1; fill:none" points="
  166.205,561.096 192.443,561.096 
  "/>
<polyline clip-path="url(#clip320)" style="stroke:#000000; stroke-width:4; stroke-opacity:1; fill:none" points="
  166.205,265.504 192.443,265.504 
  "/>
<path clip-path="url(#clip320)" d="M 0 0 M118.26 1433.67 Q114.649 1433.67 112.82 1437.24 Q111.015 1440.78 111.015 1447.91 Q111.015 1455.01 112.82 1458.58 Q114.649 1462.12 118.26 1462.12 Q121.895 1462.12 123.7 1458.58 Q125.529 1455.01 125.529 1447.91 Q125.529 1440.78 123.7 1437.24 Q121.895 1433.67 118.26 1433.67 M118.26 1429.97 Q124.07 1429.97 127.126 1434.57 Q130.205 1439.16 130.205 1447.91 Q130.205 1456.63 127.126 1461.24 Q124.07 1465.82 118.26 1465.82 Q112.45 1465.82 109.371 1461.24 Q106.316 1456.63 106.316 1447.91 Q106.316 1439.16 109.371 1434.57 Q112.45 1429.97 118.26 1429.97 Z" fill="#000000" fill-rule="evenodd" fill-opacity="1" /><path clip-path="url(#clip320)" d="M 0 0 M59.8578 1165.63 L76.1772 1165.63 L76.1772 1169.56 L54.2328 1169.56 L54.2328 1165.63 Q56.8949 1162.87 61.4782 1158.24 Q66.0846 1153.59 67.2652 1152.25 Q69.5105 1149.72 70.3902 1147.99 Q71.2929 1146.23 71.2929 1144.54 Q71.2929 1141.78 69.3485 1140.05 Q67.4272 1138.31 64.3254 1138.31 Q62.1263 1138.31 59.6726 1139.07 Q57.2421 1139.84 54.4643 1141.39 L54.4643 1136.67 Q57.2884 1135.53 59.7421 1134.95 Q62.1958 1134.38 64.2328 1134.38 Q69.6031 1134.38 72.7976 1137.06 Q75.992 1139.75 75.992 1144.24 Q75.992 1146.37 75.1818 1148.29 Q74.3948 1150.19 72.2883 1152.78 Q71.7096 1153.45 68.6078 1156.67 Q65.5059 1159.86 59.8578 1165.63 Z" fill="#000000" fill-rule="evenodd" fill-opacity="1" /><path clip-path="url(#clip320)" d="M 0 0 M91.2465 1138.08 Q87.6354 1138.08 85.8068 1141.64 Q84.0012 1145.19 84.0012 1152.32 Q84.0012 1159.42 85.8068 1162.99 Q87.6354 1166.53 91.2465 1166.53 Q94.8808 1166.53 96.6863 1162.99 Q98.515 1159.42 98.515 1152.32 Q98.515 1145.19 96.6863 1141.64 Q94.8808 1138.08 91.2465 1138.08 M91.2465 1134.38 Q97.0567 1134.38 100.112 1138.98 Q103.191 1143.57 103.191 1152.32 Q103.191 1161.04 100.112 1165.65 Q97.0567 1170.23 91.2465 1170.23 Q85.4364 1170.23 82.3577 1165.65 Q79.3022 1161.04 79.3022 1152.32 Q79.3022 1143.57 82.3577 1138.98 Q85.4364 1134.38 91.2465 1134.38 Z" fill="#000000" fill-rule="evenodd" fill-opacity="1" /><path clip-path="url(#clip320)" d="M 0 0 M118.26 1138.08 Q114.649 1138.08 112.82 1141.64 Q111.015 1145.19 111.015 1152.32 Q111.015 1159.42 112.82 1162.99 Q114.649 1166.53 118.26 1166.53 Q121.895 1166.53 123.7 1162.99 Q125.529 1159.42 125.529 1152.32 Q125.529 1145.19 123.7 1141.64 Q121.895 1138.08 118.26 1138.08 M118.26 1134.38 Q124.07 1134.38 127.126 1138.98 Q130.205 1143.57 130.205 1152.32 Q130.205 1161.04 127.126 1165.65 Q124.07 1170.23 118.26 1170.23 Q112.45 1170.23 109.371 1165.65 Q106.316 1161.04 106.316 1152.32 Q106.316 1143.57 109.371 1138.98 Q112.45 1134.38 118.26 1134.38 Z" fill="#000000" fill-rule="evenodd" fill-opacity="1" /><path clip-path="url(#clip320)" d="M 0 0 M66.5939 843.483 L54.7884 861.932 L66.5939 861.932 L66.5939 843.483 M65.367 839.409 L71.2466 839.409 L71.2466 861.932 L76.1772 861.932 L76.1772 865.821 L71.2466 865.821 L71.2466 873.969 L66.5939 873.969 L66.5939 865.821 L50.9921 865.821 L50.9921 861.307 L65.367 839.409 Z" fill="#000000" fill-rule="evenodd" fill-opacity="1" /><path clip-path="url(#clip320)" d="M 0 0 M91.2465 842.487 Q87.6354 842.487 85.8068 846.052 Q84.0012 849.594 84.0012 856.723 Q84.0012 863.83 85.8068 867.395 Q87.6354 870.936 91.2465 870.936 Q94.8808 870.936 96.6863 867.395 Q98.515 863.83 98.515 856.723 Q98.515 849.594 96.6863 846.052 Q94.8808 842.487 91.2465 842.487 M91.2465 838.784 Q97.0567 838.784 100.112 843.39 Q103.191 847.973 103.191 856.723 Q103.191 865.45 100.112 870.057 Q97.0567 874.64 91.2465 874.64 Q85.4364 874.64 82.3577 870.057 Q79.3022 865.45 79.3022 856.723 Q79.3022 847.973 82.3577 843.39 Q85.4364 838.784 91.2465 838.784 Z" fill="#000000" fill-rule="evenodd" fill-opacity="1" /><path clip-path="url(#clip320)" d="M 0 0 M118.26 842.487 Q114.649 842.487 112.82 846.052 Q111.015 849.594 111.015 856.723 Q111.015 863.83 112.82 867.395 Q114.649 870.936 118.26 870.936 Q121.895 870.936 123.7 867.395 Q125.529 863.83 125.529 856.723 Q125.529 849.594 123.7 846.052 Q121.895 842.487 118.26 842.487 M118.26 838.784 Q124.07 838.784 127.126 843.39 Q130.205 847.973 130.205 856.723 Q130.205 865.45 127.126 870.057 Q124.07 874.64 118.26 874.64 Q112.45 874.64 109.371 870.057 Q106.316 865.45 106.316 856.723 Q106.316 847.973 109.371 843.39 Q112.45 838.784 118.26 838.784 Z" fill="#000000" fill-rule="evenodd" fill-opacity="1" /><path clip-path="url(#clip320)" d="M 0 0 M64.6495 559.233 Q61.5013 559.233 59.6495 561.386 Q57.8208 563.539 57.8208 567.289 Q57.8208 571.015 59.6495 573.191 Q61.5013 575.344 64.6495 575.344 Q67.7976 575.344 69.6263 573.191 Q71.4781 571.015 71.4781 567.289 Q71.4781 563.539 69.6263 561.386 Q67.7976 559.233 64.6495 559.233 M73.9318 544.58 L73.9318 548.84 Q72.1726 548.006 70.367 547.566 Q68.5846 547.127 66.8254 547.127 Q62.1958 547.127 59.7421 550.252 Q57.3115 553.377 56.9643 559.696 Q58.33 557.682 60.3902 556.617 Q62.4504 555.529 64.9272 555.529 Q70.1355 555.529 73.1448 558.701 Q76.1772 561.849 76.1772 567.289 Q76.1772 572.613 73.029 575.83 Q69.8809 579.048 64.6495 579.048 Q58.6541 579.048 55.4828 574.464 Q52.3116 569.858 52.3116 561.131 Q52.3116 552.937 56.2004 548.076 Q60.0893 543.191 66.6402 543.191 Q68.3994 543.191 70.1818 543.539 Q71.9874 543.886 73.9318 544.58 Z" fill="#000000" fill-rule="evenodd" fill-opacity="1" /><path clip-path="url(#clip320)" d="M 0 0 M91.2465 546.895 Q87.6354 546.895 85.8068 550.46 Q84.0012 554.002 84.0012 561.131 Q84.0012 568.238 85.8068 571.802 Q87.6354 575.344 91.2465 575.344 Q94.8808 575.344 96.6863 571.802 Q98.515 568.238 98.515 561.131 Q98.515 554.002 96.6863 550.46 Q94.8808 546.895 91.2465 546.895 M91.2465 543.191 Q97.0567 543.191 100.112 547.798 Q103.191 552.381 103.191 561.131 Q103.191 569.858 100.112 574.464 Q97.0567 579.048 91.2465 579.048 Q85.4364 579.048 82.3577 574.464 Q79.3022 569.858 79.3022 561.131 Q79.3022 552.381 82.3577 547.798 Q85.4364 543.191 91.2465 543.191 Z" fill="#000000" fill-rule="evenodd" fill-opacity="1" /><path clip-path="url(#clip320)" d="M 0 0 M118.26 546.895 Q114.649 546.895 112.82 550.46 Q111.015 554.002 111.015 561.131 Q111.015 568.238 112.82 571.802 Q114.649 575.344 118.26 575.344 Q121.895 575.344 123.7 571.802 Q125.529 568.238 125.529 561.131 Q125.529 554.002 123.7 550.46 Q121.895 546.895 118.26 546.895 M118.26 543.191 Q124.07 543.191 127.126 547.798 Q130.205 552.381 130.205 561.131 Q130.205 569.858 127.126 574.464 Q124.07 579.048 118.26 579.048 Q112.45 579.048 109.371 574.464 Q106.316 569.858 106.316 561.131 Q106.316 552.381 109.371 547.798 Q112.45 543.191 118.26 543.191 Z" fill="#000000" fill-rule="evenodd" fill-opacity="1" /><path clip-path="url(#clip320)" d="M 0 0 M64.3254 266.372 Q60.9921 266.372 59.0708 268.155 Q57.1726 269.937 57.1726 273.062 Q57.1726 276.187 59.0708 277.969 Q60.9921 279.752 64.3254 279.752 Q67.6587 279.752 69.58 277.969 Q71.5013 276.164 71.5013 273.062 Q71.5013 269.937 69.58 268.155 Q67.6819 266.372 64.3254 266.372 M59.6495 264.382 Q56.6402 263.641 54.9504 261.581 Q53.2838 259.52 53.2838 256.557 Q53.2838 252.414 56.2236 250.007 Q59.1865 247.599 64.3254 247.599 Q69.4874 247.599 72.4272 250.007 Q75.367 252.414 75.367 256.557 Q75.367 259.52 73.6772 261.581 Q72.0105 263.641 69.0244 264.382 Q72.404 265.169 74.279 267.46 Q76.1772 269.752 76.1772 273.062 Q76.1772 278.085 73.0985 280.77 Q70.0429 283.455 64.3254 283.455 Q58.6078 283.455 55.5291 280.77 Q52.4736 278.085 52.4736 273.062 Q52.4736 269.752 54.3717 267.46 Q56.2699 265.169 59.6495 264.382 M57.9365 256.997 Q57.9365 259.682 59.6032 261.187 Q61.293 262.692 64.3254 262.692 Q67.3346 262.692 69.0244 261.187 Q70.7374 259.682 70.7374 256.997 Q70.7374 254.312 69.0244 252.807 Q67.3346 251.303 64.3254 251.303 Q61.293 251.303 59.6032 252.807 Q57.9365 254.312 57.9365 256.997 Z" fill="#000000" fill-rule="evenodd" fill-opacity="1" /><path clip-path="url(#clip320)" d="M 0 0 M91.2465 251.303 Q87.6354 251.303 85.8068 254.868 Q84.0012 258.409 84.0012 265.539 Q84.0012 272.645 85.8068 276.21 Q87.6354 279.752 91.2465 279.752 Q94.8808 279.752 96.6863 276.21 Q98.515 272.645 98.515 265.539 Q98.515 258.409 96.6863 254.868 Q94.8808 251.303 91.2465 251.303 M91.2465 247.599 Q97.0567 247.599 100.112 252.206 Q103.191 256.789 103.191 265.539 Q103.191 274.266 100.112 278.872 Q97.0567 283.455 91.2465 283.455 Q85.4364 283.455 82.3577 278.872 Q79.3022 274.266 79.3022 265.539 Q79.3022 256.789 82.3577 252.206 Q85.4364 247.599 91.2465 247.599 Z" fill="#000000" fill-rule="evenodd" fill-opacity="1" /><path clip-path="url(#clip320)" d="M 0 0 M118.26 251.303 Q114.649 251.303 112.82 254.868 Q111.015 258.409 111.015 265.539 Q111.015 272.645 112.82 276.21 Q114.649 279.752 118.26 279.752 Q121.895 279.752 123.7 276.21 Q125.529 272.645 125.529 265.539 Q125.529 258.409 123.7 254.868 Q121.895 251.303 118.26 251.303 M118.26 247.599 Q124.07 247.599 127.126 252.206 Q130.205 256.789 130.205 265.539 Q130.205 274.266 127.126 278.872 Q124.07 283.455 118.26 283.455 Q112.45 283.455 109.371 278.872 Q106.316 274.266 106.316 265.539 Q106.316 256.789 109.371 252.206 Q112.45 247.599 118.26 247.599 Z" fill="#000000" fill-rule="evenodd" fill-opacity="1" /><path clip-path="url(#clip320)" d="M 0 0 M1183.67 18.8205 L1183.67 65.8515 L1193.55 65.8515 Q1206.07 65.8515 1211.86 60.1802 Q1217.7 54.509 1217.7 42.2752 Q1217.7 30.1225 1211.86 24.4918 Q1206.07 18.8205 1193.55 18.8205 L1183.67 18.8205 M1175.48 12.096 L1192.3 12.096 Q1209.88 12.096 1218.1 19.4281 Q1226.32 26.7198 1226.32 42.2752 Q1226.32 57.9117 1218.06 65.2439 Q1209.8 72.576 1192.3 72.576 L1175.48 72.576 L1175.48 12.096 Z" fill="#000000" fill-rule="evenodd" fill-opacity="1" /><path clip-path="url(#clip320)" d="M 0 0 M1254.76 49.7694 Q1245.73 49.7694 1242.24 51.8354 Q1238.76 53.9013 1238.76 58.8839 Q1238.76 62.8538 1241.35 65.2034 Q1243.99 67.5124 1248.48 67.5124 Q1254.68 67.5124 1258.41 63.1374 Q1262.17 58.7219 1262.17 51.4303 L1262.17 49.7694 L1254.76 49.7694 M1269.63 46.6907 L1269.63 72.576 L1262.17 72.576 L1262.17 65.6895 Q1259.62 69.8214 1255.81 71.8063 Q1252.01 73.7508 1246.5 73.7508 Q1239.53 73.7508 1235.4 69.8619 Q1231.31 65.9325 1231.31 59.3701 Q1231.31 51.7138 1236.41 47.825 Q1241.56 43.9361 1251.72 43.9361 L1262.17 43.9361 L1262.17 43.2069 Q1262.17 38.0623 1258.77 35.2672 Q1255.41 32.4315 1249.29 32.4315 Q1245.4 32.4315 1241.72 33.3632 Q1238.03 34.295 1234.63 36.1584 L1234.63 29.2718 Q1238.72 27.692 1242.57 26.9223 Q1246.42 26.1121 1250.06 26.1121 Q1259.91 26.1121 1264.77 31.2163 Q1269.63 36.3204 1269.63 46.6907 Z" fill="#000000" fill-rule="evenodd" fill-opacity="1" /><path clip-path="url(#clip320)" d="M 0 0 M1284.82 14.324 L1284.82 27.2059 L1300.17 27.2059 L1300.17 32.9987 L1284.82 32.9987 L1284.82 57.6282 Q1284.82 63.1779 1286.32 64.7578 Q1287.86 66.3376 1292.52 66.3376 L1300.17 66.3376 L1300.17 72.576 L1292.52 72.576 Q1283.89 72.576 1280.61 69.3758 Q1277.32 66.1351 1277.32 57.6282 L1277.32 32.9987 L1271.86 32.9987 L1271.86 27.2059 L1277.32 27.2059 L1277.32 14.324 L1284.82 14.324 Z" fill="#000000" fill-rule="evenodd" fill-opacity="1" /><path clip-path="url(#clip320)" d="M 0 0 M1328.61 49.7694 Q1319.58 49.7694 1316.09 51.8354 Q1312.61 53.9013 1312.61 58.8839 Q1312.61 62.8538 1315.2 65.2034 Q1317.83 67.5124 1322.33 67.5124 Q1328.53 67.5124 1332.25 63.1374 Q1336.02 58.7219 1336.02 51.4303 L1336.02 49.7694 L1328.61 49.7694 M1343.48 46.6907 L1343.48 72.576 L1336.02 72.576 L1336.02 65.6895 Q1333.47 69.8214 1329.66 71.8063 Q1325.85 73.7508 1320.35 73.7508 Q1313.38 73.7508 1309.25 69.8619 Q1305.15 65.9325 1305.15 59.3701 Q1305.15 51.7138 1310.26 47.825 Q1315.4 43.9361 1325.57 43.9361 L1336.02 43.9361 L1336.02 43.2069 Q1336.02 38.0623 1332.62 35.2672 Q1329.26 32.4315 1323.14 32.4315 Q1319.25 32.4315 1315.57 33.3632 Q1311.88 34.295 1308.48 36.1584 L1308.48 29.2718 Q1312.57 27.692 1316.42 26.9223 Q1320.26 26.1121 1323.91 26.1121 Q1333.75 26.1121 1338.61 31.2163 Q1343.48 36.3204 1343.48 46.6907 Z" fill="#000000" fill-rule="evenodd" fill-opacity="1" /><polyline clip-path="url(#clip322)" style="stroke:#009af9; stroke-width:4; stroke-opacity:1; fill:none" points="
  228.088,1447.87 228.088,1285.3 262.468,1285.3 262.468,1359.2 296.848,1359.2 296.848,1240.96 331.227,1240.96 365.607,1240.96 365.607,1152.28 
  399.987,1152.28 399.987,1078.38 434.367,1078.38 434.367,886.248 468.746,886.248 468.746,989.705 503.126,989.705 503.126,930.587 537.506,930.587 537.506,782.791 
  571.886,782.791 571.886,886.248 606.265,886.248 606.265,945.366 640.645,945.366 675.025,945.366 675.025,1048.82 709.405,1048.82 709.405,1034.04 
  743.784,1034.04 743.784,1137.5 778.164,1137.5 812.544,1137.5 812.544,1196.62 846.923,1196.62 846.923,1300.08 881.303,1300.08 881.303,1329.64 
  915.683,1329.64 915.683,1403.53 950.063,1403.53 950.063,1433.09 984.442,1433.09 1018.82,1433.09 1018.82,1418.31 1053.2,1418.31 1053.2,1433.09 
  1087.58,1433.09 1121.96,1433.09 1121.96,1388.75 1156.34,1388.75 1156.34,1433.09 1190.72,1433.09 1190.72,1300.08 1225.1,1300.08 1225.1,1344.42 
  1259.48,1344.42 1259.48,1196.62 1293.86,1196.62 1293.86,1137.5 1328.24,1137.5 1328.24,1093.16 1362.62,1093.16 1362.62,1019.26 1397,1019.26 1397,753.231 
  1431.38,753.231 1431.38,768.011 1465.76,768.011 1465.76,546.317 1500.14,546.317 1500.14,442.86 1534.52,442.86 1534.52,250.725 1568.9,250.725 1568.9,280.284 
  1603.28,280.284 1603.28,162.047 1637.66,162.047 1637.66,354.182 1672.04,354.182 1672.04,605.435 1706.42,605.435 1706.42,620.215 1740.8,620.215 1740.8,605.435 
  1775.18,605.435 1775.18,723.672 1809.56,723.672 1809.56,841.909 1843.94,841.909 1843.94,1048.82 1878.32,1048.82 1878.32,1181.84 1912.7,1181.84 1912.7,1270.52 
  1947.08,1270.52 1947.08,1226.18 1981.45,1226.18 1981.45,1388.75 2015.83,1388.75 2015.83,1403.53 2050.21,1403.53 2050.21,1447.87 2084.59,1447.87 2084.59,1418.31 
  2118.97,1418.31 2153.35,1418.31 2153.35,1447.87 2187.73,1447.87 2222.11,1447.87 2222.11,1433.09 2256.49,1433.09 2256.49,1447.87 
  2290.87,1447.87 
  "/>
<path clip-path="url(#clip320)" d="
M1940.93 289.865 L2279.87 289.865 L2279.87 168.905 L1940.93 168.905  Z
  " fill="#ffffff" fill-rule="evenodd" fill-opacity="1"/>
<polyline clip-path="url(#clip320)" style="stroke:#000000; stroke-width:4; stroke-opacity:1; fill:none" points="
  1940.93,289.865 2279.87,289.865 2279.87,168.905 1940.93,168.905 1940.93,289.865 
  "/>
<polyline clip-path="url(#clip320)" style="stroke:#009af9; stroke-width:4; stroke-opacity:1; fill:none" points="
  1965.22,229.385 2110.99,229.385 
  "/>
<path clip-path="url(#clip320)" d="M 0 0 M2139.96 215.947 L2139.96 242.822 L2145.61 242.822 Q2152.76 242.822 2156.07 239.581 Q2159.41 236.341 2159.41 229.35 Q2159.41 222.406 2156.07 219.188 Q2152.76 215.947 2145.61 215.947 L2139.96 215.947 M2135.29 212.105 L2144.89 212.105 Q2154.94 212.105 2159.64 216.294 Q2164.34 220.461 2164.34 229.35 Q2164.34 238.285 2159.61 242.475 Q2154.89 246.665 2144.89 246.665 L2135.29 246.665 L2135.29 212.105 Z" fill="#000000" fill-rule="evenodd" fill-opacity="1" /><path clip-path="url(#clip320)" d="M 0 0 M2180.59 233.632 Q2175.42 233.632 2173.43 234.813 Q2171.44 235.993 2171.44 238.841 Q2171.44 241.109 2172.92 242.452 Q2174.43 243.771 2177 243.771 Q2180.54 243.771 2182.67 241.271 Q2184.82 238.748 2184.82 234.581 L2184.82 233.632 L2180.59 233.632 M2189.08 231.873 L2189.08 246.665 L2184.82 246.665 L2184.82 242.729 Q2183.36 245.091 2181.19 246.225 Q2179.01 247.336 2175.86 247.336 Q2171.88 247.336 2169.52 245.114 Q2167.18 242.868 2167.18 239.118 Q2167.18 234.743 2170.1 232.521 Q2173.04 230.299 2178.85 230.299 L2184.82 230.299 L2184.82 229.882 Q2184.82 226.943 2182.88 225.345 Q2180.96 223.725 2177.46 223.725 Q2175.24 223.725 2173.13 224.257 Q2171.03 224.79 2169.08 225.855 L2169.08 221.919 Q2171.42 221.017 2173.62 220.577 Q2175.82 220.114 2177.9 220.114 Q2183.53 220.114 2186.3 223.031 Q2189.08 225.947 2189.08 231.873 Z" fill="#000000" fill-rule="evenodd" fill-opacity="1" /><path clip-path="url(#clip320)" d="M 0 0 M2197.76 213.378 L2197.76 220.739 L2206.54 220.739 L2206.54 224.049 L2197.76 224.049 L2197.76 238.123 Q2197.76 241.294 2198.62 242.197 Q2199.5 243.1 2202.16 243.1 L2206.54 243.1 L2206.54 246.665 L2202.16 246.665 Q2197.23 246.665 2195.36 244.836 Q2193.48 242.984 2193.48 238.123 L2193.48 224.049 L2190.36 224.049 L2190.36 220.739 L2193.48 220.739 L2193.48 213.378 L2197.76 213.378 Z" fill="#000000" fill-rule="evenodd" fill-opacity="1" /><path clip-path="url(#clip320)" d="M 0 0 M2222.79 233.632 Q2217.62 233.632 2215.63 234.813 Q2213.64 235.993 2213.64 238.841 Q2213.64 241.109 2215.12 242.452 Q2216.63 243.771 2219.2 243.771 Q2222.74 243.771 2224.87 241.271 Q2227.02 238.748 2227.02 234.581 L2227.02 233.632 L2222.79 233.632 M2231.28 231.873 L2231.28 246.665 L2227.02 246.665 L2227.02 242.729 Q2225.56 245.091 2223.39 246.225 Q2221.21 247.336 2218.06 247.336 Q2214.08 247.336 2211.72 245.114 Q2209.38 242.868 2209.38 239.118 Q2209.38 234.743 2212.3 232.521 Q2215.24 230.299 2221.05 230.299 L2227.02 230.299 L2227.02 229.882 Q2227.02 226.943 2225.08 225.345 Q2223.16 223.725 2219.66 223.725 Q2217.44 223.725 2215.33 224.257 Q2213.23 224.79 2211.28 225.855 L2211.28 221.919 Q2213.62 221.017 2215.82 220.577 Q2218.02 220.114 2220.1 220.114 Q2225.73 220.114 2228.5 223.031 Q2231.28 225.947 2231.28 231.873 Z" fill="#000000" fill-rule="evenodd" fill-opacity="1" /></svg>
