<?xml version="1.0" encoding="utf-8"?>
<svg xmlns="http://www.w3.org/2000/svg" xmlns:xlink="http://www.w3.org/1999/xlink" width="600" height="400" viewBox="0 0 2400 1600">
<defs>
  <clipPath id="clip030">
    <rect x="0" y="0" width="2400" height="1600"/>
  </clipPath>
</defs>
<path clip-path="url(#clip030)" d="M0 1600 L2400 1600 L2400 0 L0 0  Z" fill="#ffffff" fill-rule="evenodd" fill-opacity="1"/>
<defs>
  <clipPath id="clip031">
    <rect x="172" y="123" width="2182" height="1364"/>
  </clipPath>
</defs>
<path clip-path="url(#clip030)" d="M172.015 1486.45 L2352.76 1486.45 L2352.76 123.472 L172.015 123.472  Z" fill="#ffffff" fill-rule="evenodd" fill-opacity="1"/>
<polyline clip-path="url(#clip031)" style="stroke:#000000; stroke-linecap:round; stroke-linejoin:round; stroke-width:2; stroke-opacity:0.1; fill:none" points="233.734,1486.45 233.734,123.472 "/>
<polyline clip-path="url(#clip031)" style="stroke:#000000; stroke-linecap:round; stroke-linejoin:round; stroke-width:2; stroke-opacity:0.1; fill:none" points="576.618,1486.45 576.618,123.472 "/>
<polyline clip-path="url(#clip031)" style="stroke:#000000; stroke-linecap:round; stroke-linejoin:round; stroke-width:2; stroke-opacity:0.1; fill:none" points="919.502,1486.45 919.502,123.472 "/>
<polyline clip-path="url(#clip031)" style="stroke:#000000; stroke-linecap:round; stroke-linejoin:round; stroke-width:2; stroke-opacity:0.1; fill:none" points="1262.39,1486.45 1262.39,123.472 "/>
<polyline clip-path="url(#clip031)" style="stroke:#000000; stroke-linecap:round; stroke-linejoin:round; stroke-width:2; stroke-opacity:0.1; fill:none" points="1605.27,1486.45 1605.27,123.472 "/>
<polyline clip-path="url(#clip031)" style="stroke:#000000; stroke-linecap:round; stroke-linejoin:round; stroke-width:2; stroke-opacity:0.1; fill:none" points="1948.15,1486.45 1948.15,123.472 "/>
<polyline clip-path="url(#clip031)" style="stroke:#000000; stroke-linecap:round; stroke-linejoin:round; stroke-width:2; stroke-opacity:0.1; fill:none" points="2291.04,1486.45 2291.04,123.472 "/>
<polyline clip-path="url(#clip031)" style="stroke:#000000; stroke-linecap:round; stroke-linejoin:round; stroke-width:2; stroke-opacity:0.1; fill:none" points="172.015,1447.87 2352.76,1447.87 "/>
<polyline clip-path="url(#clip031)" style="stroke:#000000; stroke-linecap:round; stroke-linejoin:round; stroke-width:2; stroke-opacity:0.1; fill:none" points="172.015,1158.92 2352.76,1158.92 "/>
<polyline clip-path="url(#clip031)" style="stroke:#000000; stroke-linecap:round; stroke-linejoin:round; stroke-width:2; stroke-opacity:0.1; fill:none" points="172.015,869.974 2352.76,869.974 "/>
<polyline clip-path="url(#clip031)" style="stroke:#000000; stroke-linecap:round; stroke-linejoin:round; stroke-width:2; stroke-opacity:0.1; fill:none" points="172.015,581.024 2352.76,581.024 "/>
<polyline clip-path="url(#clip031)" style="stroke:#000000; stroke-linecap:round; stroke-linejoin:round; stroke-width:2; stroke-opacity:0.1; fill:none" points="172.015,292.074 2352.76,292.074 "/>
<polyline clip-path="url(#clip030)" style="stroke:#000000; stroke-linecap:round; stroke-linejoin:round; stroke-width:4; stroke-opacity:1; fill:none" points="172.015,1486.45 2352.76,1486.45 "/>
<polyline clip-path="url(#clip030)" style="stroke:#000000; stroke-linecap:round; stroke-linejoin:round; stroke-width:4; stroke-opacity:1; fill:none" points="233.734,1486.45 233.734,1467.55 "/>
<polyline clip-path="url(#clip030)" style="stroke:#000000; stroke-linecap:round; stroke-linejoin:round; stroke-width:4; stroke-opacity:1; fill:none" points="576.618,1486.45 576.618,1467.55 "/>
<polyline clip-path="url(#clip030)" style="stroke:#000000; stroke-linecap:round; stroke-linejoin:round; stroke-width:4; stroke-opacity:1; fill:none" points="919.502,1486.45 919.502,1467.55 "/>
<polyline clip-path="url(#clip030)" style="stroke:#000000; stroke-linecap:round; stroke-linejoin:round; stroke-width:4; stroke-opacity:1; fill:none" points="1262.39,1486.45 1262.39,1467.55 "/>
<polyline clip-path="url(#clip030)" style="stroke:#000000; stroke-linecap:round; stroke-linejoin:round; stroke-width:4; stroke-opacity:1; fill:none" points="1605.27,1486.45 1605.27,1467.55 "/>
<polyline clip-path="url(#clip030)" style="stroke:#000000; stroke-linecap:round; stroke-linejoin:round; stroke-width:4; stroke-opacity:1; fill:none" points="1948.15,1486.45 1948.15,1467.55 "/>
<polyline clip-path="url(#clip030)" style="stroke:#000000; stroke-linecap:round; stroke-linejoin:round; stroke-width:4; stroke-opacity:1; fill:none" points="2291.04,1486.45 2291.04,1467.55 "/>
<path clip-path="url(#clip030)" d="M203.676 1532.02 L233.352 1532.02 L233.352 1535.95 L203.676 1535.95 L203.676 1532.02 Z" fill="#000000" fill-rule="nonzero" fill-opacity="1" /><path clip-path="url(#clip030)" d="M247.472 1544.91 L263.792 1544.91 L263.792 1548.85 L241.847 1548.85 L241.847 1544.91 Q244.509 1542.16 249.093 1537.53 Q253.699 1532.88 254.88 1531.53 Q257.125 1529.01 258.005 1527.27 Q258.907 1525.51 258.907 1523.82 Q258.907 1521.07 256.963 1519.33 Q255.042 1517.6 251.94 1517.6 Q249.741 1517.6 247.287 1518.36 Q244.857 1519.13 242.079 1520.68 L242.079 1515.95 Q244.903 1514.82 247.357 1514.24 Q249.81 1513.66 251.847 1513.66 Q257.218 1513.66 260.412 1516.35 Q263.606 1519.03 263.606 1523.52 Q263.606 1525.65 262.796 1527.57 Q262.009 1529.47 259.903 1532.07 Q259.324 1532.74 256.222 1535.95 Q253.12 1539.15 247.472 1544.91 Z" fill="#000000" fill-rule="nonzero" fill-opacity="1" /><path clip-path="url(#clip030)" d="M546.375 1532.02 L576.051 1532.02 L576.051 1535.95 L546.375 1535.95 L546.375 1532.02 Z" fill="#000000" fill-rule="nonzero" fill-opacity="1" /><path clip-path="url(#clip030)" d="M586.953 1544.91 L594.592 1544.91 L594.592 1518.55 L586.282 1520.21 L586.282 1515.95 L594.546 1514.29 L599.222 1514.29 L599.222 1544.91 L606.861 1544.91 L606.861 1548.85 L586.953 1548.85 L586.953 1544.91 Z" fill="#000000" fill-rule="nonzero" fill-opacity="1" /><path clip-path="url(#clip030)" d="M919.502 1517.37 Q915.89 1517.37 914.062 1520.93 Q912.256 1524.47 912.256 1531.6 Q912.256 1538.71 914.062 1542.27 Q915.89 1545.82 919.502 1545.82 Q923.136 1545.82 924.941 1542.27 Q926.77 1538.71 926.77 1531.6 Q926.77 1524.47 924.941 1520.93 Q923.136 1517.37 919.502 1517.37 M919.502 1513.66 Q925.312 1513.66 928.367 1518.27 Q931.446 1522.85 931.446 1531.6 Q931.446 1540.33 928.367 1544.94 Q925.312 1549.52 919.502 1549.52 Q913.691 1549.52 910.613 1544.94 Q907.557 1540.33 907.557 1531.6 Q907.557 1522.85 910.613 1518.27 Q913.691 1513.66 919.502 1513.66 Z" fill="#000000" fill-rule="nonzero" fill-opacity="1" /><path clip-path="url(#clip030)" d="M1252.77 1544.91 L1260.41 1544.91 L1260.41 1518.55 L1252.1 1520.21 L1252.1 1515.95 L1260.36 1514.29 L1265.04 1514.29 L1265.04 1544.91 L1272.67 1544.91 L1272.67 1548.85 L1252.77 1548.85 L1252.77 1544.91 Z" fill="#000000" fill-rule="nonzero" fill-opacity="1" /><path clip-path="url(#clip030)" d="M1599.92 1544.91 L1616.24 1544.91 L1616.24 1548.85 L1594.3 1548.85 L1594.3 1544.91 Q1596.96 1542.16 1601.54 1537.53 Q1606.15 1532.88 1607.33 1531.53 Q1609.57 1529.01 1610.45 1527.27 Q1611.36 1525.51 1611.36 1523.82 Q1611.36 1521.07 1609.41 1519.33 Q1607.49 1517.6 1604.39 1517.6 Q1602.19 1517.6 1599.74 1518.36 Q1597.31 1519.13 1594.53 1520.68 L1594.53 1515.95 Q1597.35 1514.82 1599.81 1514.24 Q1602.26 1513.66 1604.3 1513.66 Q1609.67 1513.66 1612.86 1516.35 Q1616.06 1519.03 1616.06 1523.52 Q1616.06 1525.65 1615.25 1527.57 Q1614.46 1529.47 1612.35 1532.07 Q1611.77 1532.74 1608.67 1535.95 Q1605.57 1539.15 1599.92 1544.91 Z" fill="#000000" fill-rule="nonzero" fill-opacity="1" /><path clip-path="url(#clip030)" d="M1952.4 1530.21 Q1955.76 1530.93 1957.63 1533.2 Q1959.53 1535.47 1959.53 1538.8 Q1959.53 1543.92 1956.01 1546.72 Q1952.49 1549.52 1946.01 1549.52 Q1943.84 1549.52 1941.52 1549.08 Q1939.23 1548.66 1936.78 1547.81 L1936.78 1543.29 Q1938.72 1544.43 1941.03 1545.01 Q1943.35 1545.58 1945.87 1545.58 Q1950.27 1545.58 1952.56 1543.85 Q1954.88 1542.11 1954.88 1538.8 Q1954.88 1535.75 1952.72 1534.03 Q1950.6 1532.3 1946.78 1532.3 L1942.75 1532.3 L1942.75 1528.45 L1946.96 1528.45 Q1950.41 1528.45 1952.24 1527.09 Q1954.07 1525.7 1954.07 1523.11 Q1954.07 1520.45 1952.17 1519.03 Q1950.29 1517.6 1946.78 1517.6 Q1944.85 1517.6 1942.66 1518.01 Q1940.46 1518.43 1937.82 1519.31 L1937.82 1515.14 Q1940.48 1514.4 1942.79 1514.03 Q1945.13 1513.66 1947.19 1513.66 Q1952.52 1513.66 1955.62 1516.09 Q1958.72 1518.5 1958.72 1522.62 Q1958.72 1525.49 1957.08 1527.48 Q1955.43 1529.45 1952.4 1530.21 Z" fill="#000000" fill-rule="nonzero" fill-opacity="1" /><path clip-path="url(#clip030)" d="M2294.05 1518.36 L2282.24 1536.81 L2294.05 1536.81 L2294.05 1518.36 M2292.82 1514.29 L2298.7 1514.29 L2298.7 1536.81 L2303.63 1536.81 L2303.63 1540.7 L2298.7 1540.7 L2298.7 1548.85 L2294.05 1548.85 L2294.05 1540.7 L2278.44 1540.7 L2278.44 1536.19 L2292.82 1514.29 Z" fill="#000000" fill-rule="nonzero" fill-opacity="1" /><polyline clip-path="url(#clip030)" style="stroke:#000000; stroke-linecap:round; stroke-linejoin:round; stroke-width:4; stroke-opacity:1; fill:none" points="172.015,1486.45 172.015,123.472 "/>
<polyline clip-path="url(#clip030)" style="stroke:#000000; stroke-linecap:round; stroke-linejoin:round; stroke-width:4; stroke-opacity:1; fill:none" points="172.015,1447.87 190.912,1447.87 "/>
<polyline clip-path="url(#clip030)" style="stroke:#000000; stroke-linecap:round; stroke-linejoin:round; stroke-width:4; stroke-opacity:1; fill:none" points="172.015,1158.92 190.912,1158.92 "/>
<polyline clip-path="url(#clip030)" style="stroke:#000000; stroke-linecap:round; stroke-linejoin:round; stroke-width:4; stroke-opacity:1; fill:none" points="172.015,869.974 190.912,869.974 "/>
<polyline clip-path="url(#clip030)" style="stroke:#000000; stroke-linecap:round; stroke-linejoin:round; stroke-width:4; stroke-opacity:1; fill:none" points="172.015,581.024 190.912,581.024 "/>
<polyline clip-path="url(#clip030)" style="stroke:#000000; stroke-linecap:round; stroke-linejoin:round; stroke-width:4; stroke-opacity:1; fill:none" points="172.015,292.074 190.912,292.074 "/>
<path clip-path="url(#clip030)" d="M124.07 1433.67 Q120.459 1433.67 118.631 1437.24 Q116.825 1440.78 116.825 1447.91 Q116.825 1455.01 118.631 1458.58 Q120.459 1462.12 124.07 1462.12 Q127.705 1462.12 129.51 1458.58 Q131.339 1455.01 131.339 1447.91 Q131.339 1440.78 129.51 1437.24 Q127.705 1433.67 124.07 1433.67 M124.07 1429.97 Q129.881 1429.97 132.936 1434.57 Q136.015 1439.16 136.015 1447.91 Q136.015 1456.63 132.936 1461.24 Q129.881 1465.82 124.07 1465.82 Q118.26 1465.82 115.182 1461.24 Q112.126 1456.63 112.126 1447.91 Q112.126 1439.16 115.182 1434.57 Q118.26 1429.97 124.07 1429.97 Z" fill="#000000" fill-rule="nonzero" fill-opacity="1" /><path clip-path="url(#clip030)" d="M57.7745 1172.27 L74.0939 1172.27 L74.0939 1176.2 L52.1495 1176.2 L52.1495 1172.27 Q54.8115 1169.51 59.3949 1164.88 Q64.0013 1160.23 65.1819 1158.89 Q67.4272 1156.37 68.3068 1154.63 Q69.2096 1152.87 69.2096 1151.18 Q69.2096 1148.43 67.2652 1146.69 Q65.3439 1144.95 62.2421 1144.95 Q60.043 1144.95 57.5893 1145.72 Q55.1588 1146.48 52.381 1148.03 L52.381 1143.31 Q55.2051 1142.18 57.6588 1141.6 Q60.1124 1141.02 62.1495 1141.02 Q67.5198 1141.02 70.7142 1143.7 Q73.9087 1146.39 73.9087 1150.88 Q73.9087 1153.01 73.0985 1154.93 Q72.3115 1156.83 70.205 1159.42 Q69.6263 1160.09 66.5245 1163.31 Q63.4226 1166.5 57.7745 1172.27 Z" fill="#000000" fill-rule="nonzero" fill-opacity="1" /><path clip-path="url(#clip030)" d="M93.9086 1144.72 Q90.2975 1144.72 88.4688 1148.29 Q86.6632 1151.83 86.6632 1158.96 Q86.6632 1166.06 88.4688 1169.63 Q90.2975 1173.17 93.9086 1173.17 Q97.5428 1173.17 99.3483 1169.63 Q101.177 1166.06 101.177 1158.96 Q101.177 1151.83 99.3483 1148.29 Q97.5428 1144.72 93.9086 1144.72 M93.9086 1141.02 Q99.7187 1141.02 102.774 1145.62 Q105.853 1150.21 105.853 1158.96 Q105.853 1167.68 102.774 1172.29 Q99.7187 1176.87 93.9086 1176.87 Q88.0984 1176.87 85.0197 1172.29 Q81.9642 1167.68 81.9642 1158.96 Q81.9642 1150.21 85.0197 1145.62 Q88.0984 1141.02 93.9086 1141.02 Z" fill="#000000" fill-rule="nonzero" fill-opacity="1" /><path clip-path="url(#clip030)" d="M124.07 1144.72 Q120.459 1144.72 118.631 1148.29 Q116.825 1151.83 116.825 1158.96 Q116.825 1166.06 118.631 1169.63 Q120.459 1173.17 124.07 1173.17 Q127.705 1173.17 129.51 1169.63 Q131.339 1166.06 131.339 1158.96 Q131.339 1151.83 129.51 1148.29 Q127.705 1144.72 124.07 1144.72 M124.07 1141.02 Q129.881 1141.02 132.936 1145.62 Q136.015 1150.21 136.015 1158.96 Q136.015 1167.68 132.936 1172.29 Q129.881 1176.87 124.07 1176.87 Q118.26 1176.87 115.182 1172.29 Q112.126 1167.68 112.126 1158.96 Q112.126 1150.21 115.182 1145.62 Q118.26 1141.02 124.07 1141.02 Z" fill="#000000" fill-rule="nonzero" fill-opacity="1" /><path clip-path="url(#clip030)" d="M66.5939 856.768 L54.7884 875.217 L66.5939 875.217 L66.5939 856.768 M65.367 852.694 L71.2466 852.694 L71.2466 875.217 L76.1772 875.217 L76.1772 879.106 L71.2466 879.106 L71.2466 887.254 L66.5939 887.254 L66.5939 879.106 L50.9921 879.106 L50.9921 874.592 L65.367 852.694 Z" fill="#000000" fill-rule="nonzero" fill-opacity="1" /><path clip-path="url(#clip030)" d="M93.9086 855.772 Q90.2975 855.772 88.4688 859.337 Q86.6632 862.879 86.6632 870.008 Q86.6632 877.115 88.4688 880.68 Q90.2975 884.221 93.9086 884.221 Q97.5428 884.221 99.3483 880.68 Q101.177 877.115 101.177 870.008 Q101.177 862.879 99.3483 859.337 Q97.5428 855.772 93.9086 855.772 M93.9086 852.069 Q99.7187 852.069 102.774 856.675 Q105.853 861.258 105.853 870.008 Q105.853 878.735 102.774 883.342 Q99.7187 887.925 93.9086 887.925 Q88.0984 887.925 85.0197 883.342 Q81.9642 878.735 81.9642 870.008 Q81.9642 861.258 85.0197 856.675 Q88.0984 852.069 93.9086 852.069 Z" fill="#000000" fill-rule="nonzero" fill-opacity="1" /><path clip-path="url(#clip030)" d="M124.07 855.772 Q120.459 855.772 118.631 859.337 Q116.825 862.879 116.825 870.008 Q116.825 877.115 118.631 880.68 Q120.459 884.221 124.07 884.221 Q127.705 884.221 129.51 880.68 Q131.339 877.115 131.339 870.008 Q131.339 862.879 129.51 859.337 Q127.705 855.772 124.07 855.772 M124.07 852.069 Q129.881 852.069 132.936 856.675 Q136.015 861.258 136.015 870.008 Q136.015 878.735 132.936 883.342 Q129.881 887.925 124.07 887.925 Q118.26 887.925 115.182 883.342 Q112.126 878.735 112.126 870.008 Q112.126 861.258 115.182 856.675 Q118.26 852.069 124.07 852.069 Z" fill="#000000" fill-rule="nonzero" fill-opacity="1" /><path clip-path="url(#clip030)" d="M64.3254 579.161 Q61.1773 579.161 59.3254 581.313 Q57.4967 583.466 57.4967 587.216 Q57.4967 590.943 59.3254 593.119 Q61.1773 595.272 64.3254 595.272 Q67.4735 595.272 69.3022 593.119 Q71.1541 590.943 71.1541 587.216 Q71.1541 583.466 69.3022 581.313 Q67.4735 579.161 64.3254 579.161 M73.6077 564.508 L73.6077 568.767 Q71.8485 567.934 70.0429 567.494 Q68.2606 567.054 66.5013 567.054 Q61.8717 567.054 59.418 570.179 Q56.9875 573.304 56.6402 579.624 Q58.006 577.61 60.0662 576.545 Q62.1263 575.457 64.6032 575.457 Q69.8115 575.457 72.8207 578.628 Q75.8531 581.776 75.8531 587.216 Q75.8531 592.54 72.705 595.758 Q69.5568 598.975 64.3254 598.975 Q58.33 598.975 55.1588 594.392 Q51.9875 589.786 51.9875 581.059 Q51.9875 572.864 55.8764 568.003 Q59.7652 563.119 66.3161 563.119 Q68.0754 563.119 69.8578 563.466 Q71.6633 563.813 73.6077 564.508 Z" fill="#000000" fill-rule="nonzero" fill-opacity="1" /><path clip-path="url(#clip030)" d="M93.9086 566.823 Q90.2975 566.823 88.4688 570.387 Q86.6632 573.929 86.6632 581.059 Q86.6632 588.165 88.4688 591.73 Q90.2975 595.272 93.9086 595.272 Q97.5428 595.272 99.3483 591.73 Q101.177 588.165 101.177 581.059 Q101.177 573.929 99.3483 570.387 Q97.5428 566.823 93.9086 566.823 M93.9086 563.119 Q99.7187 563.119 102.774 567.725 Q105.853 572.309 105.853 581.059 Q105.853 589.786 102.774 594.392 Q99.7187 598.975 93.9086 598.975 Q88.0984 598.975 85.0197 594.392 Q81.9642 589.786 81.9642 581.059 Q81.9642 572.309 85.0197 567.725 Q88.0984 563.119 93.9086 563.119 Z" fill="#000000" fill-rule="nonzero" fill-opacity="1" /><path clip-path="url(#clip030)" d="M124.07 566.823 Q120.459 566.823 118.631 570.387 Q116.825 573.929 116.825 581.059 Q116.825 588.165 118.631 591.73 Q120.459 595.272 124.07 595.272 Q127.705 595.272 129.51 591.73 Q131.339 588.165 131.339 581.059 Q131.339 573.929 129.51 570.387 Q127.705 566.823 124.07 566.823 M124.07 563.119 Q129.881 563.119 132.936 567.725 Q136.015 572.309 136.015 581.059 Q136.015 589.786 132.936 594.392 Q129.881 598.975 124.07 598.975 Q118.26 598.975 115.182 594.392 Q112.126 589.786 112.126 581.059 Q112.126 572.309 115.182 567.725 Q118.26 563.119 124.07 563.119 Z" fill="#000000" fill-rule="nonzero" fill-opacity="1" /><path clip-path="url(#clip030)" d="M63.7467 292.942 Q60.4134 292.942 58.4921 294.725 Q56.5939 296.507 56.5939 299.632 Q56.5939 302.757 58.4921 304.539 Q60.4134 306.322 63.7467 306.322 Q67.08 306.322 69.0013 304.539 Q70.9226 302.734 70.9226 299.632 Q70.9226 296.507 69.0013 294.725 Q67.1032 292.942 63.7467 292.942 M59.0708 290.952 Q56.0615 290.211 54.3717 288.151 Q52.7051 286.091 52.7051 283.128 Q52.7051 278.984 55.6449 276.577 Q58.6078 274.169 63.7467 274.169 Q68.9087 274.169 71.8485 276.577 Q74.7883 278.984 74.7883 283.128 Q74.7883 286.091 73.0985 288.151 Q71.4318 290.211 68.4457 290.952 Q71.8253 291.739 73.7003 294.03 Q75.5985 296.322 75.5985 299.632 Q75.5985 304.655 72.5198 307.34 Q69.4642 310.026 63.7467 310.026 Q58.0291 310.026 54.9504 307.34 Q51.8949 304.655 51.8949 299.632 Q51.8949 296.322 53.793 294.03 Q55.6912 291.739 59.0708 290.952 M57.3578 283.567 Q57.3578 286.253 59.0245 287.757 Q60.7143 289.262 63.7467 289.262 Q66.7559 289.262 68.4457 287.757 Q70.1587 286.253 70.1587 283.567 Q70.1587 280.882 68.4457 279.378 Q66.7559 277.873 63.7467 277.873 Q60.7143 277.873 59.0245 279.378 Q57.3578 280.882 57.3578 283.567 Z" fill="#000000" fill-rule="nonzero" fill-opacity="1" /><path clip-path="url(#clip030)" d="M93.9086 277.873 Q90.2975 277.873 88.4688 281.438 Q86.6632 284.979 86.6632 292.109 Q86.6632 299.215 88.4688 302.78 Q90.2975 306.322 93.9086 306.322 Q97.5428 306.322 99.3483 302.78 Q101.177 299.215 101.177 292.109 Q101.177 284.979 99.3483 281.438 Q97.5428 277.873 93.9086 277.873 M93.9086 274.169 Q99.7187 274.169 102.774 278.776 Q105.853 283.359 105.853 292.109 Q105.853 300.836 102.774 305.442 Q99.7187 310.026 93.9086 310.026 Q88.0984 310.026 85.0197 305.442 Q81.9642 300.836 81.9642 292.109 Q81.9642 283.359 85.0197 278.776 Q88.0984 274.169 93.9086 274.169 Z" fill="#000000" fill-rule="nonzero" fill-opacity="1" /><path clip-path="url(#clip030)" d="M124.07 277.873 Q120.459 277.873 118.631 281.438 Q116.825 284.979 116.825 292.109 Q116.825 299.215 118.631 302.78 Q120.459 306.322 124.07 306.322 Q127.705 306.322 129.51 302.78 Q131.339 299.215 131.339 292.109 Q131.339 284.979 129.51 281.438 Q127.705 277.873 124.07 277.873 M124.07 274.169 Q129.881 274.169 132.936 278.776 Q136.015 283.359 136.015 292.109 Q136.015 300.836 132.936 305.442 Q129.881 310.026 124.07 310.026 Q118.26 310.026 115.182 305.442 Q112.126 300.836 112.126 292.109 Q112.126 283.359 115.182 278.776 Q118.26 274.169 124.07 274.169 Z" fill="#000000" fill-rule="nonzero" fill-opacity="1" /><path clip-path="url(#clip030)" d="M1179.36 18.8205 L1179.36 65.8515 L1189.25 65.8515 Q1201.76 65.8515 1207.56 60.1802 Q1213.39 54.509 1213.39 42.2752 Q1213.39 30.1225 1207.56 24.4918 Q1201.76 18.8205 1189.25 18.8205 L1179.36 18.8205 M1171.18 12.096 L1187.99 12.096 Q1205.57 12.096 1213.79 19.4281 Q1222.02 26.7198 1222.02 42.2752 Q1222.02 57.9117 1213.75 65.2439 Q1205.49 72.576 1187.99 72.576 L1171.18 72.576 L1171.18 12.096 Z" fill="#000000" fill-rule="nonzero" fill-opacity="1" /><path clip-path="url(#clip030)" d="M1255.36 49.7694 Q1246.32 49.7694 1242.84 51.8354 Q1239.36 53.9013 1239.36 58.8839 Q1239.36 62.8538 1241.95 65.2034 Q1244.58 67.5124 1249.08 67.5124 Q1255.28 67.5124 1259 63.1374 Q1262.77 58.7219 1262.77 51.4303 L1262.77 49.7694 L1255.36 49.7694 M1270.22 46.6907 L1270.22 72.576 L1262.77 72.576 L1262.77 65.6895 Q1260.22 69.8214 1256.41 71.8063 Q1252.6 73.7508 1247.09 73.7508 Q1240.13 73.7508 1235.99 69.8619 Q1231.9 65.9325 1231.9 59.3701 Q1231.9 51.7138 1237.01 47.825 Q1242.15 43.9361 1252.32 43.9361 L1262.77 43.9361 L1262.77 43.2069 Q1262.77 38.0623 1259.37 35.2672 Q1256.01 32.4315 1249.89 32.4315 Q1246 32.4315 1242.31 33.3632 Q1238.63 34.295 1235.22 36.1584 L1235.22 29.2718 Q1239.32 27.692 1243.16 26.9223 Q1247.01 26.1121 1250.66 26.1121 Q1260.5 26.1121 1265.36 31.2163 Q1270.22 36.3204 1270.22 46.6907 Z" fill="#000000" fill-rule="nonzero" fill-opacity="1" /><path clip-path="url(#clip030)" d="M1292.95 14.324 L1292.95 27.2059 L1308.3 27.2059 L1308.3 32.9987 L1292.95 32.9987 L1292.95 57.6282 Q1292.95 63.1779 1294.45 64.7578 Q1295.99 66.3376 1300.65 66.3376 L1308.3 66.3376 L1308.3 72.576 L1300.65 72.576 Q1292.02 72.576 1288.74 69.3758 Q1285.46 66.1351 1285.46 57.6282 L1285.46 32.9987 L1279.99 32.9987 L1279.99 27.2059 L1285.46 27.2059 L1285.46 14.324 L1292.95 14.324 Z" fill="#000000" fill-rule="nonzero" fill-opacity="1" /><path clip-path="url(#clip030)" d="M1338.72 49.7694 Q1329.69 49.7694 1326.21 51.8354 Q1322.72 53.9013 1322.72 58.8839 Q1322.72 62.8538 1325.32 65.2034 Q1327.95 67.5124 1332.45 67.5124 Q1338.64 67.5124 1342.37 63.1374 Q1346.14 58.7219 1346.14 51.4303 L1346.14 49.7694 L1338.72 49.7694 M1353.59 46.6907 L1353.59 72.576 L1346.14 72.576 L1346.14 65.6895 Q1343.59 69.8214 1339.78 71.8063 Q1335.97 73.7508 1330.46 73.7508 Q1323.49 73.7508 1319.36 69.8619 Q1315.27 65.9325 1315.27 59.3701 Q1315.27 51.7138 1320.37 47.825 Q1325.52 43.9361 1335.69 43.9361 L1346.14 43.9361 L1346.14 43.2069 Q1346.14 38.0623 1342.74 35.2672 Q1339.37 32.4315 1333.26 32.4315 Q1329.37 32.4315 1325.68 33.3632 Q1321.99 34.295 1318.59 36.1584 L1318.59 29.2718 Q1322.68 27.692 1326.53 26.9223 Q1330.38 26.1121 1334.03 26.1121 Q1343.87 26.1121 1348.73 31.2163 Q1353.59 36.3204 1353.59 46.6907 Z" fill="#000000" fill-rule="nonzero" fill-opacity="1" /><polyline clip-path="url(#clip031)" style="stroke:#009af9; stroke-linecap:round; stroke-linejoin:round; stroke-width:4; stroke-opacity:1; fill:none" points="233.734,1447.87 233.734,1332.29 268.022,1332.29 268.022,1404.53 302.311,1404.53 302.311,1288.95 336.599,1288.95 336.599,1158.92 370.887,1158.92 370.887,1202.27 405.176,1202.27 405.176,1086.69 439.464,1086.69 439.464,1057.79 473.753,1057.79 473.753,985.554 508.041,985.554 508.041,812.184 542.329,812.184 542.329,826.631 576.618,826.631 576.618,913.316 610.906,913.316 610.906,942.211 645.194,942.211 645.194,956.659 679.483,956.659 679.483,1086.69 713.771,1086.69 713.771,971.106 748.06,971.106 748.06,1014.45 782.348,1014.45 782.348,1158.92 816.636,1158.92 816.636,1274.5 850.925,1274.5 850.925,1303.4 885.213,1303.4 885.213,1346.74 919.502,1346.74 919.502,1361.19 953.79,1361.19 953.79,1375.64 988.078,1375.64 988.078,1433.43 1022.37,1433.43 1022.37,1404.53 1056.66,1404.53 1056.66,1447.87 1090.94,1447.87 1125.23,1447.87 1125.23,1418.98 1159.52,1418.98 1159.52,1404.53 1193.81,1404.53 1193.81,1346.74 1228.1,1346.74 1228.1,1317.85 1262.39,1317.85 1262.39,1288.95 1296.67,1288.95 1296.67,1231.16 1330.96,1231.16 1330.96,971.106 1365.25,971.106 1365.25,956.659 1399.54,956.659 1399.54,653.261 1433.83,653.261 1433.83,783.289 1468.12,783.289 1468.12,624.366 1502.4,624.366 1502.4,465.444 1536.69,465.444 1536.69,378.759 1570.98,378.759 1570.98,162.047 1605.27,162.047 1605.27,205.389 1639.56,205.389 1639.56,508.787 1673.85,508.787 1673.85,595.471 1708.13,595.471 1708.13,494.339 1742.42,494.339 1742.42,826.631 1776.71,826.631 1776.71,566.576 1811,566.576 1811,913.316 1845.29,913.316 1845.29,1072.24 1879.58,1072.24 1879.58,1130.03 1913.86,1130.03 1913.86,1303.4 1948.15,1303.4 1948.15,1346.74 1982.44,1346.74 1982.44,1361.19 2016.73,1361.19 2016.73,1418.98 2051.02,1418.98 2051.02,1375.64 2085.31,1375.64 2085.31,1418.98 2119.59,1418.98 2119.59,1447.87 2153.88,1447.87 2188.17,1447.87 2222.46,1447.87 2256.75,1447.87 2291.04,1447.87 "/>
<path clip-path="url(#clip030)" d="M1957.75 272.585 L2280.06 272.585 L2280.06 168.905 L1957.75 168.905  Z" fill="#ffffff" fill-rule="evenodd" fill-opacity="1"/>
<polyline clip-path="url(#clip030)" style="stroke:#000000; stroke-linecap:round; stroke-linejoin:round; stroke-width:4; stroke-opacity:1; fill:none" points="1957.75,272.585 2280.06,272.585 2280.06,168.905 1957.75,168.905 1957.75,272.585 "/>
<polyline clip-path="url(#clip030)" style="stroke:#009af9; stroke-linecap:round; stroke-linejoin:round; stroke-width:4; stroke-opacity:1; fill:none" points="1981.99,220.745 2127.37,220.745 "/>
<path clip-path="url(#clip030)" d="M2156.27 207.307 L2156.27 234.182 L2161.92 234.182 Q2169.08 234.182 2172.39 230.941 Q2175.72 227.701 2175.72 220.71 Q2175.72 213.766 2172.39 210.548 Q2169.08 207.307 2161.92 207.307 L2156.27 207.307 M2151.6 203.465 L2161.2 203.465 Q2171.25 203.465 2175.95 207.654 Q2180.65 211.821 2180.65 220.71 Q2180.65 229.645 2175.93 233.835 Q2171.2 238.025 2161.2 238.025 L2151.6 238.025 L2151.6 203.465 Z" fill="#000000" fill-rule="nonzero" fill-opacity="1" /><path clip-path="url(#clip030)" d="M2199.7 224.992 Q2194.54 224.992 2192.55 226.173 Q2190.56 227.353 2190.56 230.201 Q2190.56 232.469 2192.04 233.812 Q2193.54 235.131 2196.11 235.131 Q2199.65 235.131 2201.78 232.631 Q2203.94 230.108 2203.94 225.941 L2203.94 224.992 L2199.7 224.992 M2208.2 223.233 L2208.2 238.025 L2203.94 238.025 L2203.94 234.089 Q2202.48 236.451 2200.3 237.585 Q2198.13 238.696 2194.98 238.696 Q2191 238.696 2188.64 236.474 Q2186.3 234.228 2186.3 230.478 Q2186.3 226.103 2189.21 223.881 Q2192.15 221.659 2197.96 221.659 L2203.94 221.659 L2203.94 221.242 Q2203.94 218.303 2201.99 216.705 Q2200.07 215.085 2196.58 215.085 Q2194.35 215.085 2192.25 215.617 Q2190.14 216.15 2188.2 217.215 L2188.2 213.279 Q2190.53 212.377 2192.73 211.937 Q2194.93 211.474 2197.01 211.474 Q2202.64 211.474 2205.42 214.391 Q2208.2 217.307 2208.2 223.233 Z" fill="#000000" fill-rule="nonzero" fill-opacity="1" /><path clip-path="url(#clip030)" d="M2221.18 204.738 L2221.18 212.099 L2229.95 212.099 L2229.95 215.409 L2221.18 215.409 L2221.18 229.483 Q2221.18 232.654 2222.04 233.557 Q2222.92 234.46 2225.58 234.46 L2229.95 234.46 L2229.95 238.025 L2225.58 238.025 Q2220.65 238.025 2218.77 236.196 Q2216.9 234.344 2216.9 229.483 L2216.9 215.409 L2213.77 215.409 L2213.77 212.099 L2216.9 212.099 L2216.9 204.738 L2221.18 204.738 Z" fill="#000000" fill-rule="nonzero" fill-opacity="1" /><path clip-path="url(#clip030)" d="M2247.34 224.992 Q2242.18 224.992 2240.19 226.173 Q2238.2 227.353 2238.2 230.201 Q2238.2 232.469 2239.68 233.812 Q2241.18 235.131 2243.75 235.131 Q2247.29 235.131 2249.42 232.631 Q2251.57 230.108 2251.57 225.941 L2251.57 224.992 L2247.34 224.992 M2255.83 223.233 L2255.83 238.025 L2251.57 238.025 L2251.57 234.089 Q2250.12 236.451 2247.94 237.585 Q2245.76 238.696 2242.62 238.696 Q2238.64 238.696 2236.27 236.474 Q2233.94 234.228 2233.94 230.478 Q2233.94 226.103 2236.85 223.881 Q2239.79 221.659 2245.6 221.659 L2251.57 221.659 L2251.57 221.242 Q2251.57 218.303 2249.63 216.705 Q2247.71 215.085 2244.21 215.085 Q2241.99 215.085 2239.89 215.617 Q2237.78 216.15 2235.83 217.215 L2235.83 213.279 Q2238.17 212.377 2240.37 211.937 Q2242.57 211.474 2244.65 211.474 Q2250.28 211.474 2253.06 214.391 Q2255.83 217.307 2255.83 223.233 Z" fill="#000000" fill-rule="nonzero" fill-opacity="1" /></svg>
