<?xml version="1.0" encoding="utf-8"?>
<svg xmlns="http://www.w3.org/2000/svg" xmlns:xlink="http://www.w3.org/1999/xlink" width="600" height="400" viewBox="0 0 2400 1600">
<defs>
  <clipPath id="clip150">
    <rect x="0" y="0" width="2400" height="1600"/>
  </clipPath>
</defs>
<path clip-path="url(#clip150)" d="
M0 1600 L2400 1600 L2400 0 L0 0  Z
  " fill="#ffffff" fill-rule="evenodd" fill-opacity="1"/>
<defs>
  <clipPath id="clip151">
    <rect x="480" y="0" width="1681" height="1600"/>
  </clipPath>
</defs>
<path clip-path="url(#clip150)" d="
M166.205 1486.45 L2352.76 1486.45 L2352.76 123.472 L166.205 123.472  Z
  " fill="#ffffff" fill-rule="evenodd" fill-opacity="1"/>
<defs>
  <clipPath id="clip152">
    <rect x="166" y="123" width="2188" height="1364"/>
  </clipPath>
</defs>
<polyline clip-path="url(#clip152)" style="stroke:#000000; stroke-width:2; stroke-opacity:0.1; fill:none" points="
  228.088,1486.45 228.088,123.472 
  "/>
<polyline clip-path="url(#clip152)" style="stroke:#000000; stroke-width:2; stroke-opacity:0.1; fill:none" points="
  571.886,1486.45 571.886,123.472 
  "/>
<polyline clip-path="url(#clip152)" style="stroke:#000000; stroke-width:2; stroke-opacity:0.1; fill:none" points="
  915.683,1486.45 915.683,123.472 
  "/>
<polyline clip-path="url(#clip152)" style="stroke:#000000; stroke-width:2; stroke-opacity:0.1; fill:none" points="
  1259.48,1486.45 1259.48,123.472 
  "/>
<polyline clip-path="url(#clip152)" style="stroke:#000000; stroke-width:2; stroke-opacity:0.1; fill:none" points="
  1603.28,1486.45 1603.28,123.472 
  "/>
<polyline clip-path="url(#clip152)" style="stroke:#000000; stroke-width:2; stroke-opacity:0.1; fill:none" points="
  1947.08,1486.45 1947.08,123.472 
  "/>
<polyline clip-path="url(#clip152)" style="stroke:#000000; stroke-width:2; stroke-opacity:0.1; fill:none" points="
  2290.87,1486.45 2290.87,123.472 
  "/>
<polyline clip-path="url(#clip150)" style="stroke:#000000; stroke-width:4; stroke-opacity:1; fill:none" points="
  166.205,1486.45 2352.76,1486.45 
  "/>
<polyline clip-path="url(#clip150)" style="stroke:#000000; stroke-width:4; stroke-opacity:1; fill:none" points="
  228.088,1486.45 228.088,1470.09 
  "/>
<polyline clip-path="url(#clip150)" style="stroke:#000000; stroke-width:4; stroke-opacity:1; fill:none" points="
  571.886,1486.45 571.886,1470.09 
  "/>
<polyline clip-path="url(#clip150)" style="stroke:#000000; stroke-width:4; stroke-opacity:1; fill:none" points="
  915.683,1486.45 915.683,1470.09 
  "/>
<polyline clip-path="url(#clip150)" style="stroke:#000000; stroke-width:4; stroke-opacity:1; fill:none" points="
  1259.48,1486.45 1259.48,1470.09 
  "/>
<polyline clip-path="url(#clip150)" style="stroke:#000000; stroke-width:4; stroke-opacity:1; fill:none" points="
  1603.28,1486.45 1603.28,1470.09 
  "/>
<polyline clip-path="url(#clip150)" style="stroke:#000000; stroke-width:4; stroke-opacity:1; fill:none" points="
  1947.08,1486.45 1947.08,1470.09 
  "/>
<polyline clip-path="url(#clip150)" style="stroke:#000000; stroke-width:4; stroke-opacity:1; fill:none" points="
  2290.87,1486.45 2290.87,1470.09 
  "/>
<path clip-path="url(#clip150)" d="M 0 0 M200.542 1530.29 L230.218 1530.29 L230.218 1534.23 L200.542 1534.23 L200.542 1530.29 Z" fill="#000000" fill-rule="evenodd" fill-opacity="1" /><path clip-path="url(#clip150)" d="M 0 0 M239.315 1543.18 L255.634 1543.18 L255.634 1547.12 L233.69 1547.12 L233.69 1543.18 Q236.352 1540.43 240.935 1535.8 Q245.542 1531.15 246.722 1529.81 Q248.968 1527.28 249.847 1525.55 Q250.75 1523.79 250.75 1522.1 Q250.75 1519.34 248.806 1517.61 Q246.884 1515.87 243.783 1515.87 Q241.583 1515.87 239.13 1516.63 Q236.699 1517.4 233.921 1518.95 L233.921 1514.23 Q236.746 1513.09 239.199 1512.51 Q241.653 1511.93 243.69 1511.93 Q249.06 1511.93 252.255 1514.62 Q255.449 1517.31 255.449 1521.8 Q255.449 1523.93 254.639 1525.85 Q253.852 1527.74 251.745 1530.34 Q251.167 1531.01 248.065 1534.23 Q244.963 1537.42 239.315 1543.18 Z" fill="#000000" fill-rule="evenodd" fill-opacity="1" /><path clip-path="url(#clip150)" d="M 0 0 M544.154 1530.29 L573.83 1530.29 L573.83 1534.23 L544.154 1534.23 L544.154 1530.29 Z" fill="#000000" fill-rule="evenodd" fill-opacity="1" /><path clip-path="url(#clip150)" d="M 0 0 M579.71 1543.18 L587.348 1543.18 L587.348 1516.82 L579.038 1518.49 L579.038 1514.23 L587.302 1512.56 L591.978 1512.56 L591.978 1543.18 L599.617 1543.18 L599.617 1547.12 L579.71 1547.12 L579.71 1543.18 Z" fill="#000000" fill-rule="evenodd" fill-opacity="1" /><path clip-path="url(#clip150)" d="M 0 0 M915.683 1515.64 Q912.072 1515.64 910.243 1519.2 Q908.438 1522.75 908.438 1529.87 Q908.438 1536.98 910.243 1540.55 Q912.072 1544.09 915.683 1544.09 Q919.317 1544.09 921.123 1540.55 Q922.951 1536.98 922.951 1529.87 Q922.951 1522.75 921.123 1519.2 Q919.317 1515.64 915.683 1515.64 M915.683 1511.93 Q921.493 1511.93 924.549 1516.54 Q927.627 1521.12 927.627 1529.87 Q927.627 1538.6 924.549 1543.21 Q921.493 1547.79 915.683 1547.79 Q909.873 1547.79 906.794 1543.21 Q903.739 1538.6 903.739 1529.87 Q903.739 1521.12 906.794 1516.54 Q909.873 1511.93 915.683 1511.93 Z" fill="#000000" fill-rule="evenodd" fill-opacity="1" /><path clip-path="url(#clip150)" d="M 0 0 M1249.86 1543.18 L1257.5 1543.18 L1257.5 1516.82 L1249.19 1518.49 L1249.19 1514.23 L1257.45 1512.56 L1262.13 1512.56 L1262.13 1543.18 L1269.77 1543.18 L1269.77 1547.12 L1249.86 1547.12 L1249.86 1543.18 Z" fill="#000000" fill-rule="evenodd" fill-opacity="1" /><path clip-path="url(#clip150)" d="M 0 0 M1597.93 1543.18 L1614.25 1543.18 L1614.25 1547.12 L1592.31 1547.12 L1592.31 1543.18 Q1594.97 1540.43 1599.55 1535.8 Q1604.16 1531.15 1605.34 1529.81 Q1607.58 1527.28 1608.46 1525.55 Q1609.37 1523.79 1609.37 1522.1 Q1609.37 1519.34 1607.42 1517.61 Q1605.5 1515.87 1602.4 1515.87 Q1600.2 1515.87 1597.75 1516.63 Q1595.31 1517.4 1592.54 1518.95 L1592.54 1514.23 Q1595.36 1513.09 1597.81 1512.51 Q1600.27 1511.93 1602.31 1511.93 Q1607.68 1511.93 1610.87 1514.62 Q1614.06 1517.31 1614.06 1521.8 Q1614.06 1523.93 1613.25 1525.85 Q1612.47 1527.74 1610.36 1530.34 Q1609.78 1531.01 1606.68 1534.23 Q1603.58 1537.42 1597.93 1543.18 Z" fill="#000000" fill-rule="evenodd" fill-opacity="1" /><path clip-path="url(#clip150)" d="M 0 0 M1951.32 1528.49 Q1954.68 1529.2 1956.55 1531.47 Q1958.45 1533.74 1958.45 1537.07 Q1958.45 1542.19 1954.93 1544.99 Q1951.42 1547.79 1944.93 1547.79 Q1942.76 1547.79 1940.44 1547.35 Q1938.15 1546.93 1935.7 1546.08 L1935.7 1541.56 Q1937.64 1542.7 1939.96 1543.28 Q1942.27 1543.86 1944.79 1543.86 Q1949.19 1543.86 1951.48 1542.12 Q1953.8 1540.38 1953.8 1537.07 Q1953.8 1534.02 1951.65 1532.31 Q1949.52 1530.57 1945.7 1530.57 L1941.67 1530.57 L1941.67 1526.73 L1945.88 1526.73 Q1949.33 1526.73 1951.16 1525.36 Q1952.99 1523.97 1952.99 1521.38 Q1952.99 1518.72 1951.09 1517.31 Q1949.22 1515.87 1945.7 1515.87 Q1943.78 1515.87 1941.58 1516.29 Q1939.38 1516.7 1936.74 1517.58 L1936.74 1513.42 Q1939.4 1512.68 1941.72 1512.31 Q1944.05 1511.93 1946.11 1511.93 Q1951.44 1511.93 1954.54 1514.37 Q1957.64 1516.77 1957.64 1520.89 Q1957.64 1523.76 1956 1525.75 Q1954.36 1527.72 1951.32 1528.49 Z" fill="#000000" fill-rule="evenodd" fill-opacity="1" /><path clip-path="url(#clip150)" d="M 0 0 M2293.88 1516.63 L2282.08 1535.08 L2293.88 1535.08 L2293.88 1516.63 M2292.65 1512.56 L2298.53 1512.56 L2298.53 1535.08 L2303.46 1535.08 L2303.46 1538.97 L2298.53 1538.97 L2298.53 1547.12 L2293.88 1547.12 L2293.88 1538.97 L2278.28 1538.97 L2278.28 1534.46 L2292.65 1512.56 Z" fill="#000000" fill-rule="evenodd" fill-opacity="1" /><polyline clip-path="url(#clip152)" style="stroke:#000000; stroke-width:2; stroke-opacity:0.1; fill:none" points="
  166.205,1447.87 2352.76,1447.87 
  "/>
<polyline clip-path="url(#clip152)" style="stroke:#000000; stroke-width:2; stroke-opacity:0.1; fill:none" points="
  166.205,1179.99 2352.76,1179.99 
  "/>
<polyline clip-path="url(#clip152)" style="stroke:#000000; stroke-width:2; stroke-opacity:0.1; fill:none" points="
  166.205,912.112 2352.76,912.112 
  "/>
<polyline clip-path="url(#clip152)" style="stroke:#000000; stroke-width:2; stroke-opacity:0.1; fill:none" points="
  166.205,644.232 2352.76,644.232 
  "/>
<polyline clip-path="url(#clip152)" style="stroke:#000000; stroke-width:2; stroke-opacity:0.1; fill:none" points="
  166.205,376.351 2352.76,376.351 
  "/>
<polyline clip-path="url(#clip150)" style="stroke:#000000; stroke-width:4; stroke-opacity:1; fill:none" points="
  166.205,1486.45 166.205,123.472 
  "/>
<polyline clip-path="url(#clip150)" style="stroke:#000000; stroke-width:4; stroke-opacity:1; fill:none" points="
  166.205,1447.87 192.443,1447.87 
  "/>
<polyline clip-path="url(#clip150)" style="stroke:#000000; stroke-width:4; stroke-opacity:1; fill:none" points="
  166.205,1179.99 192.443,1179.99 
  "/>
<polyline clip-path="url(#clip150)" style="stroke:#000000; stroke-width:4; stroke-opacity:1; fill:none" points="
  166.205,912.112 192.443,912.112 
  "/>
<polyline clip-path="url(#clip150)" style="stroke:#000000; stroke-width:4; stroke-opacity:1; fill:none" points="
  166.205,644.232 192.443,644.232 
  "/>
<polyline clip-path="url(#clip150)" style="stroke:#000000; stroke-width:4; stroke-opacity:1; fill:none" points="
  166.205,376.351 192.443,376.351 
  "/>
<path clip-path="url(#clip150)" d="M 0 0 M118.26 1433.67 Q114.649 1433.67 112.82 1437.24 Q111.015 1440.78 111.015 1447.91 Q111.015 1455.01 112.82 1458.58 Q114.649 1462.12 118.26 1462.12 Q121.895 1462.12 123.7 1458.58 Q125.529 1455.01 125.529 1447.91 Q125.529 1440.78 123.7 1437.24 Q121.895 1433.67 118.26 1433.67 M118.26 1429.97 Q124.07 1429.97 127.126 1434.57 Q130.205 1439.16 130.205 1447.91 Q130.205 1456.63 127.126 1461.24 Q124.07 1465.82 118.26 1465.82 Q112.45 1465.82 109.371 1461.24 Q106.316 1456.63 106.316 1447.91 Q106.316 1439.16 109.371 1434.57 Q112.45 1429.97 118.26 1429.97 Z" fill="#000000" fill-rule="evenodd" fill-opacity="1" /><path clip-path="url(#clip150)" d="M 0 0 M59.8578 1193.34 L76.1772 1193.34 L76.1772 1197.27 L54.2328 1197.27 L54.2328 1193.34 Q56.8949 1190.58 61.4782 1185.95 Q66.0846 1181.3 67.2652 1179.96 Q69.5105 1177.43 70.3902 1175.7 Q71.2929 1173.94 71.2929 1172.25 Q71.2929 1169.5 69.3485 1167.76 Q67.4272 1166.02 64.3254 1166.02 Q62.1263 1166.02 59.6726 1166.79 Q57.2421 1167.55 54.4643 1169.1 L54.4643 1164.38 Q57.2884 1163.25 59.7421 1162.67 Q62.1958 1162.09 64.2328 1162.09 Q69.6031 1162.09 72.7976 1164.77 Q75.992 1167.46 75.992 1171.95 Q75.992 1174.08 75.1818 1176 Q74.3948 1177.9 72.2883 1180.49 Q71.7096 1181.16 68.6078 1184.38 Q65.5059 1187.57 59.8578 1193.34 Z" fill="#000000" fill-rule="evenodd" fill-opacity="1" /><path clip-path="url(#clip150)" d="M 0 0 M91.2465 1165.79 Q87.6354 1165.79 85.8068 1169.36 Q84.0012 1172.9 84.0012 1180.03 Q84.0012 1187.13 85.8068 1190.7 Q87.6354 1194.24 91.2465 1194.24 Q94.8808 1194.24 96.6863 1190.7 Q98.515 1187.13 98.515 1180.03 Q98.515 1172.9 96.6863 1169.36 Q94.8808 1165.79 91.2465 1165.79 M91.2465 1162.09 Q97.0567 1162.09 100.112 1166.69 Q103.191 1171.28 103.191 1180.03 Q103.191 1188.75 100.112 1193.36 Q97.0567 1197.94 91.2465 1197.94 Q85.4364 1197.94 82.3577 1193.36 Q79.3022 1188.75 79.3022 1180.03 Q79.3022 1171.28 82.3577 1166.69 Q85.4364 1162.09 91.2465 1162.09 Z" fill="#000000" fill-rule="evenodd" fill-opacity="1" /><path clip-path="url(#clip150)" d="M 0 0 M118.26 1165.79 Q114.649 1165.79 112.82 1169.36 Q111.015 1172.9 111.015 1180.03 Q111.015 1187.13 112.82 1190.7 Q114.649 1194.24 118.26 1194.24 Q121.895 1194.24 123.7 1190.7 Q125.529 1187.13 125.529 1180.03 Q125.529 1172.9 123.7 1169.36 Q121.895 1165.79 118.26 1165.79 M118.26 1162.09 Q124.07 1162.09 127.126 1166.69 Q130.205 1171.28 130.205 1180.03 Q130.205 1188.75 127.126 1193.36 Q124.07 1197.94 118.26 1197.94 Q112.45 1197.94 109.371 1193.36 Q106.316 1188.75 106.316 1180.03 Q106.316 1171.28 109.371 1166.69 Q112.45 1162.09 118.26 1162.09 Z" fill="#000000" fill-rule="evenodd" fill-opacity="1" /><path clip-path="url(#clip150)" d="M 0 0 M66.5939 898.906 L54.7884 917.355 L66.5939 917.355 L66.5939 898.906 M65.367 894.832 L71.2466 894.832 L71.2466 917.355 L76.1772 917.355 L76.1772 921.244 L71.2466 921.244 L71.2466 929.392 L66.5939 929.392 L66.5939 921.244 L50.9921 921.244 L50.9921 916.73 L65.367 894.832 Z" fill="#000000" fill-rule="evenodd" fill-opacity="1" /><path clip-path="url(#clip150)" d="M 0 0 M91.2465 897.911 Q87.6354 897.911 85.8068 901.476 Q84.0012 905.017 84.0012 912.147 Q84.0012 919.253 85.8068 922.818 Q87.6354 926.36 91.2465 926.36 Q94.8808 926.36 96.6863 922.818 Q98.515 919.253 98.515 912.147 Q98.515 905.017 96.6863 901.476 Q94.8808 897.911 91.2465 897.911 M91.2465 894.207 Q97.0567 894.207 100.112 898.814 Q103.191 903.397 103.191 912.147 Q103.191 920.874 100.112 925.48 Q97.0567 930.063 91.2465 930.063 Q85.4364 930.063 82.3577 925.48 Q79.3022 920.874 79.3022 912.147 Q79.3022 903.397 82.3577 898.814 Q85.4364 894.207 91.2465 894.207 Z" fill="#000000" fill-rule="evenodd" fill-opacity="1" /><path clip-path="url(#clip150)" d="M 0 0 M118.26 897.911 Q114.649 897.911 112.82 901.476 Q111.015 905.017 111.015 912.147 Q111.015 919.253 112.82 922.818 Q114.649 926.36 118.26 926.36 Q121.895 926.36 123.7 922.818 Q125.529 919.253 125.529 912.147 Q125.529 905.017 123.7 901.476 Q121.895 897.911 118.26 897.911 M118.26 894.207 Q124.07 894.207 127.126 898.814 Q130.205 903.397 130.205 912.147 Q130.205 920.874 127.126 925.48 Q124.07 930.063 118.26 930.063 Q112.45 930.063 109.371 925.48 Q106.316 920.874 106.316 912.147 Q106.316 903.397 109.371 898.814 Q112.45 894.207 118.26 894.207 Z" fill="#000000" fill-rule="evenodd" fill-opacity="1" /><path clip-path="url(#clip150)" d="M 0 0 M64.6495 642.368 Q61.5013 642.368 59.6495 644.521 Q57.8208 646.674 57.8208 650.424 Q57.8208 654.151 59.6495 656.327 Q61.5013 658.479 64.6495 658.479 Q67.7976 658.479 69.6263 656.327 Q71.4781 654.151 71.4781 650.424 Q71.4781 646.674 69.6263 644.521 Q67.7976 642.368 64.6495 642.368 M73.9318 627.716 L73.9318 631.975 Q72.1726 631.142 70.367 630.702 Q68.5846 630.262 66.8254 630.262 Q62.1958 630.262 59.7421 633.387 Q57.3115 636.512 56.9643 642.831 Q58.33 640.817 60.3902 639.753 Q62.4504 638.665 64.9272 638.665 Q70.1355 638.665 73.1448 641.836 Q76.1772 644.984 76.1772 650.424 Q76.1772 655.748 73.029 658.965 Q69.8809 662.183 64.6495 662.183 Q58.6541 662.183 55.4828 657.6 Q52.3116 652.993 52.3116 644.266 Q52.3116 636.072 56.2004 631.211 Q60.0893 626.327 66.6402 626.327 Q68.3994 626.327 70.1818 626.674 Q71.9874 627.021 73.9318 627.716 Z" fill="#000000" fill-rule="evenodd" fill-opacity="1" /><path clip-path="url(#clip150)" d="M 0 0 M91.2465 630.03 Q87.6354 630.03 85.8068 633.595 Q84.0012 637.137 84.0012 644.266 Q84.0012 651.373 85.8068 654.938 Q87.6354 658.479 91.2465 658.479 Q94.8808 658.479 96.6863 654.938 Q98.515 651.373 98.515 644.266 Q98.515 637.137 96.6863 633.595 Q94.8808 630.03 91.2465 630.03 M91.2465 626.327 Q97.0567 626.327 100.112 630.933 Q103.191 635.516 103.191 644.266 Q103.191 652.993 100.112 657.6 Q97.0567 662.183 91.2465 662.183 Q85.4364 662.183 82.3577 657.6 Q79.3022 652.993 79.3022 644.266 Q79.3022 635.516 82.3577 630.933 Q85.4364 626.327 91.2465 626.327 Z" fill="#000000" fill-rule="evenodd" fill-opacity="1" /><path clip-path="url(#clip150)" d="M 0 0 M118.26 630.03 Q114.649 630.03 112.82 633.595 Q111.015 637.137 111.015 644.266 Q111.015 651.373 112.82 654.938 Q114.649 658.479 118.26 658.479 Q121.895 658.479 123.7 654.938 Q125.529 651.373 125.529 644.266 Q125.529 637.137 123.7 633.595 Q121.895 630.03 118.26 630.03 M118.26 626.327 Q124.07 626.327 127.126 630.933 Q130.205 635.516 130.205 644.266 Q130.205 652.993 127.126 657.6 Q124.07 662.183 118.26 662.183 Q112.45 662.183 109.371 657.6 Q106.316 652.993 106.316 644.266 Q106.316 635.516 109.371 630.933 Q112.45 626.327 118.26 626.327 Z" fill="#000000" fill-rule="evenodd" fill-opacity="1" /><path clip-path="url(#clip150)" d="M 0 0 M64.3254 377.219 Q60.9921 377.219 59.0708 379.002 Q57.1726 380.784 57.1726 383.909 Q57.1726 387.034 59.0708 388.816 Q60.9921 390.599 64.3254 390.599 Q67.6587 390.599 69.58 388.816 Q71.5013 387.011 71.5013 383.909 Q71.5013 380.784 69.58 379.002 Q67.6819 377.219 64.3254 377.219 M59.6495 375.229 Q56.6402 374.488 54.9504 372.428 Q53.2838 370.368 53.2838 367.405 Q53.2838 363.261 56.2236 360.854 Q59.1865 358.446 64.3254 358.446 Q69.4874 358.446 72.4272 360.854 Q75.367 363.261 75.367 367.405 Q75.367 370.368 73.6772 372.428 Q72.0105 374.488 69.0244 375.229 Q72.404 376.016 74.279 378.307 Q76.1772 380.599 76.1772 383.909 Q76.1772 388.932 73.0985 391.617 Q70.0429 394.303 64.3254 394.303 Q58.6078 394.303 55.5291 391.617 Q52.4736 388.932 52.4736 383.909 Q52.4736 380.599 54.3717 378.307 Q56.2699 376.016 59.6495 375.229 M57.9365 367.844 Q57.9365 370.53 59.6032 372.034 Q61.293 373.539 64.3254 373.539 Q67.3346 373.539 69.0244 372.034 Q70.7374 370.53 70.7374 367.844 Q70.7374 365.159 69.0244 363.655 Q67.3346 362.15 64.3254 362.15 Q61.293 362.15 59.6032 363.655 Q57.9365 365.159 57.9365 367.844 Z" fill="#000000" fill-rule="evenodd" fill-opacity="1" /><path clip-path="url(#clip150)" d="M 0 0 M91.2465 362.15 Q87.6354 362.15 85.8068 365.715 Q84.0012 369.256 84.0012 376.386 Q84.0012 383.492 85.8068 387.057 Q87.6354 390.599 91.2465 390.599 Q94.8808 390.599 96.6863 387.057 Q98.515 383.492 98.515 376.386 Q98.515 369.256 96.6863 365.715 Q94.8808 362.15 91.2465 362.15 M91.2465 358.446 Q97.0567 358.446 100.112 363.053 Q103.191 367.636 103.191 376.386 Q103.191 385.113 100.112 389.719 Q97.0567 394.303 91.2465 394.303 Q85.4364 394.303 82.3577 389.719 Q79.3022 385.113 79.3022 376.386 Q79.3022 367.636 82.3577 363.053 Q85.4364 358.446 91.2465 358.446 Z" fill="#000000" fill-rule="evenodd" fill-opacity="1" /><path clip-path="url(#clip150)" d="M 0 0 M118.26 362.15 Q114.649 362.15 112.82 365.715 Q111.015 369.256 111.015 376.386 Q111.015 383.492 112.82 387.057 Q114.649 390.599 118.26 390.599 Q121.895 390.599 123.7 387.057 Q125.529 383.492 125.529 376.386 Q125.529 369.256 123.7 365.715 Q121.895 362.15 118.26 362.15 M118.26 358.446 Q124.07 358.446 127.126 363.053 Q130.205 367.636 130.205 376.386 Q130.205 385.113 127.126 389.719 Q124.07 394.303 118.26 394.303 Q112.45 394.303 109.371 389.719 Q106.316 385.113 106.316 376.386 Q106.316 367.636 109.371 363.053 Q112.45 358.446 118.26 358.446 Z" fill="#000000" fill-rule="evenodd" fill-opacity="1" /><path clip-path="url(#clip150)" d="M 0 0 M1183.67 18.8205 L1183.67 65.8515 L1193.55 65.8515 Q1206.07 65.8515 1211.86 60.1802 Q1217.7 54.509 1217.7 42.2752 Q1217.7 30.1225 1211.86 24.4918 Q1206.07 18.8205 1193.55 18.8205 L1183.67 18.8205 M1175.48 12.096 L1192.3 12.096 Q1209.88 12.096 1218.1 19.4281 Q1226.32 26.7198 1226.32 42.2752 Q1226.32 57.9117 1218.06 65.2439 Q1209.8 72.576 1192.3 72.576 L1175.48 72.576 L1175.48 12.096 Z" fill="#000000" fill-rule="evenodd" fill-opacity="1" /><path clip-path="url(#clip150)" d="M 0 0 M1254.76 49.7694 Q1245.73 49.7694 1242.24 51.8354 Q1238.76 53.9013 1238.76 58.8839 Q1238.76 62.8538 1241.35 65.2034 Q1243.99 67.5124 1248.48 67.5124 Q1254.68 67.5124 1258.41 63.1374 Q1262.17 58.7219 1262.17 51.4303 L1262.17 49.7694 L1254.76 49.7694 M1269.63 46.6907 L1269.63 72.576 L1262.17 72.576 L1262.17 65.6895 Q1259.62 69.8214 1255.81 71.8063 Q1252.01 73.7508 1246.5 73.7508 Q1239.53 73.7508 1235.4 69.8619 Q1231.31 65.9325 1231.31 59.3701 Q1231.31 51.7138 1236.41 47.825 Q1241.56 43.9361 1251.72 43.9361 L1262.17 43.9361 L1262.17 43.2069 Q1262.17 38.0623 1258.77 35.2672 Q1255.41 32.4315 1249.29 32.4315 Q1245.4 32.4315 1241.72 33.3632 Q1238.03 34.295 1234.63 36.1584 L1234.63 29.2718 Q1238.72 27.692 1242.57 26.9223 Q1246.42 26.1121 1250.06 26.1121 Q1259.91 26.1121 1264.77 31.2163 Q1269.63 36.3204 1269.63 46.6907 Z" fill="#000000" fill-rule="evenodd" fill-opacity="1" /><path clip-path="url(#clip150)" d="M 0 0 M1284.82 14.324 L1284.82 27.2059 L1300.17 27.2059 L1300.17 32.9987 L1284.82 32.9987 L1284.82 57.6282 Q1284.82 63.1779 1286.32 64.7578 Q1287.86 66.3376 1292.52 66.3376 L1300.17 66.3376 L1300.17 72.576 L1292.52 72.576 Q1283.89 72.576 1280.61 69.3758 Q1277.32 66.1351 1277.32 57.6282 L1277.32 32.9987 L1271.86 32.9987 L1271.86 27.2059 L1277.32 27.2059 L1277.32 14.324 L1284.82 14.324 Z" fill="#000000" fill-rule="evenodd" fill-opacity="1" /><path clip-path="url(#clip150)" d="M 0 0 M1328.61 49.7694 Q1319.58 49.7694 1316.09 51.8354 Q1312.61 53.9013 1312.61 58.8839 Q1312.61 62.8538 1315.2 65.2034 Q1317.83 67.5124 1322.33 67.5124 Q1328.53 67.5124 1332.25 63.1374 Q1336.02 58.7219 1336.02 51.4303 L1336.02 49.7694 L1328.61 49.7694 M1343.48 46.6907 L1343.48 72.576 L1336.02 72.576 L1336.02 65.6895 Q1333.47 69.8214 1329.66 71.8063 Q1325.85 73.7508 1320.35 73.7508 Q1313.38 73.7508 1309.25 69.8619 Q1305.15 65.9325 1305.15 59.3701 Q1305.15 51.7138 1310.26 47.825 Q1315.4 43.9361 1325.57 43.9361 L1336.02 43.9361 L1336.02 43.2069 Q1336.02 38.0623 1332.62 35.2672 Q1329.26 32.4315 1323.14 32.4315 Q1319.25 32.4315 1315.57 33.3632 Q1311.88 34.295 1308.48 36.1584 L1308.48 29.2718 Q1312.57 27.692 1316.42 26.9223 Q1320.26 26.1121 1323.91 26.1121 Q1333.75 26.1121 1338.61 31.2163 Q1343.48 36.3204 1343.48 46.6907 Z" fill="#000000" fill-rule="evenodd" fill-opacity="1" /><polyline clip-path="url(#clip152)" style="stroke:#009af9; stroke-width:4; stroke-opacity:1; fill:none" points="
  228.088,1447.87 228.088,1273.75 262.468,1273.75 262.468,1394.3 296.848,1394.3 296.848,1233.57 331.227,1233.57 331.227,1220.17 365.607,1220.17 365.607,1113.02 
  399.987,1113.02 399.987,1153.2 434.367,1153.2 434.367,1059.45 468.746,1059.45 468.746,952.294 503.126,952.294 503.126,979.082 537.506,979.082 537.506,898.718 
  571.886,898.718 571.886,1019.26 606.265,1019.26 606.265,1046.05 640.645,1046.05 640.645,885.324 675.025,885.324 675.025,1099.63 709.405,1099.63 
  743.784,1099.63 743.784,1139.81 778.164,1139.81 778.164,1166.6 812.544,1166.6 812.544,1273.75 846.923,1273.75 846.923,1313.93 881.303,1313.93 881.303,1354.11 
  915.683,1354.11 915.683,1421.09 950.063,1421.09 950.063,1407.69 984.442,1407.69 984.442,1380.9 1018.82,1380.9 1018.82,1421.09 1053.2,1421.09 1053.2,1434.48 
  1087.58,1434.48 1087.58,1421.09 1121.96,1421.09 1121.96,1434.48 1156.34,1434.48 1156.34,1421.09 1190.72,1421.09 1190.72,1354.11 1225.1,1354.11 1225.1,1380.9 
  1259.48,1380.9 1259.48,1300.54 1293.86,1300.54 1293.86,1273.75 1328.24,1273.75 1328.24,1113.02 1362.62,1113.02 1362.62,871.93 1397,871.93 1397,804.96 
  1431.38,804.96 1431.38,737.99 1465.76,737.99 1465.76,644.232 1500.14,644.232 1500.14,563.868 1534.52,563.868 1534.52,269.199 1568.9,269.199 1568.9,162.047 
  1603.28,162.047 1603.28,563.868 1637.66,563.868 1637.66,510.292 1672.04,510.292 1672.04,483.503 1706.42,483.503 1706.42,563.868 1740.8,563.868 1740.8,898.718 
  1775.18,898.718 1775.18,804.96 1809.56,804.96 1809.56,1046.05 1843.94,1046.05 1843.94,992.476 1878.32,992.476 1878.32,1287.14 1912.7,1287.14 1912.7,1300.54 
  1947.08,1300.54 1947.08,1287.14 1981.45,1287.14 1981.45,1394.3 2015.83,1394.3 2050.21,1394.3 2050.21,1407.69 2084.59,1407.69 2084.59,1421.09 
  2118.97,1421.09 2118.97,1434.48 2153.35,1434.48 2153.35,1447.87 2187.73,1447.87 2187.73,1434.48 2222.11,1434.48 2222.11,1447.87 2256.49,1447.87 
  2290.87,1447.87 
  "/>
<path clip-path="url(#clip150)" d="
M1940.93 289.865 L2279.87 289.865 L2279.87 168.905 L1940.93 168.905  Z
  " fill="#ffffff" fill-rule="evenodd" fill-opacity="1"/>
<polyline clip-path="url(#clip150)" style="stroke:#000000; stroke-width:4; stroke-opacity:1; fill:none" points="
  1940.93,289.865 2279.87,289.865 2279.87,168.905 1940.93,168.905 1940.93,289.865 
  "/>
<polyline clip-path="url(#clip150)" style="stroke:#009af9; stroke-width:4; stroke-opacity:1; fill:none" points="
  1965.22,229.385 2110.99,229.385 
  "/>
<path clip-path="url(#clip150)" d="M 0 0 M2139.96 215.947 L2139.96 242.822 L2145.61 242.822 Q2152.76 242.822 2156.07 239.581 Q2159.41 236.341 2159.41 229.35 Q2159.41 222.406 2156.07 219.188 Q2152.76 215.947 2145.61 215.947 L2139.96 215.947 M2135.29 212.105 L2144.89 212.105 Q2154.94 212.105 2159.64 216.294 Q2164.34 220.461 2164.34 229.35 Q2164.34 238.285 2159.61 242.475 Q2154.89 246.665 2144.89 246.665 L2135.29 246.665 L2135.29 212.105 Z" fill="#000000" fill-rule="evenodd" fill-opacity="1" /><path clip-path="url(#clip150)" d="M 0 0 M2180.59 233.632 Q2175.42 233.632 2173.43 234.813 Q2171.44 235.993 2171.44 238.841 Q2171.44 241.109 2172.92 242.452 Q2174.43 243.771 2177 243.771 Q2180.54 243.771 2182.67 241.271 Q2184.82 238.748 2184.82 234.581 L2184.82 233.632 L2180.59 233.632 M2189.08 231.873 L2189.08 246.665 L2184.82 246.665 L2184.82 242.729 Q2183.36 245.091 2181.19 246.225 Q2179.01 247.336 2175.86 247.336 Q2171.88 247.336 2169.52 245.114 Q2167.18 242.868 2167.18 239.118 Q2167.18 234.743 2170.1 232.521 Q2173.04 230.299 2178.85 230.299 L2184.82 230.299 L2184.82 229.882 Q2184.82 226.943 2182.88 225.345 Q2180.96 223.725 2177.46 223.725 Q2175.24 223.725 2173.13 224.257 Q2171.03 224.79 2169.08 225.855 L2169.08 221.919 Q2171.42 221.017 2173.62 220.577 Q2175.82 220.114 2177.9 220.114 Q2183.53 220.114 2186.3 223.031 Q2189.08 225.947 2189.08 231.873 Z" fill="#000000" fill-rule="evenodd" fill-opacity="1" /><path clip-path="url(#clip150)" d="M 0 0 M2197.76 213.378 L2197.76 220.739 L2206.54 220.739 L2206.54 224.049 L2197.76 224.049 L2197.76 238.123 Q2197.76 241.294 2198.62 242.197 Q2199.5 243.1 2202.16 243.1 L2206.54 243.1 L2206.54 246.665 L2202.16 246.665 Q2197.23 246.665 2195.36 244.836 Q2193.48 242.984 2193.48 238.123 L2193.48 224.049 L2190.36 224.049 L2190.36 220.739 L2193.48 220.739 L2193.48 213.378 L2197.76 213.378 Z" fill="#000000" fill-rule="evenodd" fill-opacity="1" /><path clip-path="url(#clip150)" d="M 0 0 M2222.79 233.632 Q2217.62 233.632 2215.63 234.813 Q2213.64 235.993 2213.64 238.841 Q2213.64 241.109 2215.12 242.452 Q2216.63 243.771 2219.2 243.771 Q2222.74 243.771 2224.87 241.271 Q2227.02 238.748 2227.02 234.581 L2227.02 233.632 L2222.79 233.632 M2231.28 231.873 L2231.28 246.665 L2227.02 246.665 L2227.02 242.729 Q2225.56 245.091 2223.39 246.225 Q2221.21 247.336 2218.06 247.336 Q2214.08 247.336 2211.72 245.114 Q2209.38 242.868 2209.38 239.118 Q2209.38 234.743 2212.3 232.521 Q2215.24 230.299 2221.05 230.299 L2227.02 230.299 L2227.02 229.882 Q2227.02 226.943 2225.08 225.345 Q2223.16 223.725 2219.66 223.725 Q2217.44 223.725 2215.33 224.257 Q2213.23 224.79 2211.28 225.855 L2211.28 221.919 Q2213.62 221.017 2215.82 220.577 Q2218.02 220.114 2220.1 220.114 Q2225.73 220.114 2228.5 223.031 Q2231.28 225.947 2231.28 231.873 Z" fill="#000000" fill-rule="evenodd" fill-opacity="1" /></svg>
