<?xml version="1.0" encoding="utf-8"?>
<svg xmlns="http://www.w3.org/2000/svg" xmlns:xlink="http://www.w3.org/1999/xlink" width="600" height="400" viewBox="0 0 2400 1600">
<defs>
  <clipPath id="clip5900">
    <rect x="0" y="0" width="2400" height="1600"/>
  </clipPath>
</defs>
<path clip-path="url(#clip5900)" d="
M0 1600 L2400 1600 L2400 0 L0 0  Z
  " fill="#ffffff" fill-rule="evenodd" fill-opacity="1"/>
<defs>
  <clipPath id="clip5901">
    <rect x="480" y="0" width="1681" height="1600"/>
  </clipPath>
</defs>
<path clip-path="url(#clip5900)" d="
M202.373 1425.62 L2352.76 1425.62 L2352.76 121.675 L202.373 121.675  Z
  " fill="#ffffff" fill-rule="evenodd" fill-opacity="1"/>
<defs>
  <clipPath id="clip5902">
    <rect x="202" y="121" width="2151" height="1305"/>
  </clipPath>
</defs>
<polyline clip-path="url(#clip5902)" style="stroke:#000000; stroke-width:2; stroke-opacity:0.1; fill:none" points="
  690.32,1425.62 690.32,121.675 
  "/>
<polyline clip-path="url(#clip5902)" style="stroke:#000000; stroke-width:2; stroke-opacity:0.1; fill:none" points="
  1224.18,1425.62 1224.18,121.675 
  "/>
<polyline clip-path="url(#clip5902)" style="stroke:#000000; stroke-width:2; stroke-opacity:0.1; fill:none" points="
  1758.04,1425.62 1758.04,121.675 
  "/>
<polyline clip-path="url(#clip5902)" style="stroke:#000000; stroke-width:2; stroke-opacity:0.1; fill:none" points="
  2291.9,1425.62 2291.9,121.675 
  "/>
<polyline clip-path="url(#clip5902)" style="stroke:#000000; stroke-width:2; stroke-opacity:0.1; fill:none" points="
  202.373,1388.71 2352.76,1388.71 
  "/>
<polyline clip-path="url(#clip5902)" style="stroke:#000000; stroke-width:2; stroke-opacity:0.1; fill:none" points="
  202.373,1020.37 2352.76,1020.37 
  "/>
<polyline clip-path="url(#clip5902)" style="stroke:#000000; stroke-width:2; stroke-opacity:0.1; fill:none" points="
  202.373,652.031 2352.76,652.031 
  "/>
<polyline clip-path="url(#clip5902)" style="stroke:#000000; stroke-width:2; stroke-opacity:0.1; fill:none" points="
  202.373,283.689 2352.76,283.689 
  "/>
<polyline clip-path="url(#clip5900)" style="stroke:#000000; stroke-width:4; stroke-opacity:1; fill:none" points="
  202.373,1425.62 2352.76,1425.62 
  "/>
<polyline clip-path="url(#clip5900)" style="stroke:#000000; stroke-width:4; stroke-opacity:1; fill:none" points="
  202.373,1425.62 202.373,121.675 
  "/>
<polyline clip-path="url(#clip5900)" style="stroke:#000000; stroke-width:4; stroke-opacity:1; fill:none" points="
  690.32,1425.62 690.32,1409.97 
  "/>
<polyline clip-path="url(#clip5900)" style="stroke:#000000; stroke-width:4; stroke-opacity:1; fill:none" points="
  1224.18,1425.62 1224.18,1409.97 
  "/>
<polyline clip-path="url(#clip5900)" style="stroke:#000000; stroke-width:4; stroke-opacity:1; fill:none" points="
  1758.04,1425.62 1758.04,1409.97 
  "/>
<polyline clip-path="url(#clip5900)" style="stroke:#000000; stroke-width:4; stroke-opacity:1; fill:none" points="
  2291.9,1425.62 2291.9,1409.97 
  "/>
<polyline clip-path="url(#clip5900)" style="stroke:#000000; stroke-width:4; stroke-opacity:1; fill:none" points="
  202.373,1388.71 228.178,1388.71 
  "/>
<polyline clip-path="url(#clip5900)" style="stroke:#000000; stroke-width:4; stroke-opacity:1; fill:none" points="
  202.373,1020.37 228.178,1020.37 
  "/>
<polyline clip-path="url(#clip5900)" style="stroke:#000000; stroke-width:4; stroke-opacity:1; fill:none" points="
  202.373,652.031 228.178,652.031 
  "/>
<polyline clip-path="url(#clip5900)" style="stroke:#000000; stroke-width:4; stroke-opacity:1; fill:none" points="
  202.373,283.689 228.178,283.689 
  "/>
<g clip-path="url(#clip5900)">
<text style="fill:#000000; fill-opacity:1; font-family:Arial,Helvetica Neue,Helvetica,sans-serif; font-size:48px; text-anchor:middle;" transform="rotate(0, 690.32, 1479.62)" x="690.32" y="1479.62">-1.10</text>
</g>
<g clip-path="url(#clip5900)">
<text style="fill:#000000; fill-opacity:1; font-family:Arial,Helvetica Neue,Helvetica,sans-serif; font-size:48px; text-anchor:middle;" transform="rotate(0, 1224.18, 1479.62)" x="1224.18" y="1479.62">-1.05</text>
</g>
<g clip-path="url(#clip5900)">
<text style="fill:#000000; fill-opacity:1; font-family:Arial,Helvetica Neue,Helvetica,sans-serif; font-size:48px; text-anchor:middle;" transform="rotate(0, 1758.04, 1479.62)" x="1758.04" y="1479.62">-1.00</text>
</g>
<g clip-path="url(#clip5900)">
<text style="fill:#000000; fill-opacity:1; font-family:Arial,Helvetica Neue,Helvetica,sans-serif; font-size:48px; text-anchor:middle;" transform="rotate(0, 2291.9, 1479.62)" x="2291.9" y="1479.62">-0.95</text>
</g>
<g clip-path="url(#clip5900)">
<text style="fill:#000000; fill-opacity:1; font-family:Arial,Helvetica Neue,Helvetica,sans-serif; font-size:48px; text-anchor:end;" transform="rotate(0, 178.373, 1406.21)" x="178.373" y="1406.21">0</text>
</g>
<g clip-path="url(#clip5900)">
<text style="fill:#000000; fill-opacity:1; font-family:Arial,Helvetica Neue,Helvetica,sans-serif; font-size:48px; text-anchor:end;" transform="rotate(0, 178.373, 1037.87)" x="178.373" y="1037.87">5</text>
</g>
<g clip-path="url(#clip5900)">
<text style="fill:#000000; fill-opacity:1; font-family:Arial,Helvetica Neue,Helvetica,sans-serif; font-size:48px; text-anchor:end;" transform="rotate(0, 178.373, 669.531)" x="178.373" y="669.531">10</text>
</g>
<g clip-path="url(#clip5900)">
<text style="fill:#000000; fill-opacity:1; font-family:Arial,Helvetica Neue,Helvetica,sans-serif; font-size:48px; text-anchor:end;" transform="rotate(0, 178.373, 301.189)" x="178.373" y="301.189">15</text>
</g>
<g clip-path="url(#clip5900)">
<text style="fill:#000000; fill-opacity:1; font-family:Arial,Helvetica Neue,Helvetica,sans-serif; font-size:84px; text-anchor:middle;" transform="rotate(0, 1277.56, 73.2)" x="1277.56" y="73.2">Marginalized Distribution for mu_1</text>
</g>
<g clip-path="url(#clip5900)">
<text style="fill:#000000; fill-opacity:1; font-family:Arial,Helvetica Neue,Helvetica,sans-serif; font-size:66px; text-anchor:middle;" transform="rotate(0, 1277.56, 1559.48)" x="1277.56" y="1559.48">mu_1</text>
</g>
<g clip-path="url(#clip5900)">
<text style="fill:#000000; fill-opacity:1; font-family:Arial,Helvetica Neue,Helvetica,sans-serif; font-size:66px; text-anchor:middle;" transform="rotate(-90, 89.2861, 773.647)" x="89.2861" y="773.647">P(mu_1)</text>
</g>
<path clip-path="url(#clip5902)" d="
M263.233 1388.71 L316.619 1388.71 L316.619 1388.71 L370.005 1388.71 L370.005 1388.71 L423.39 1388.71 L423.39 1388.71 L476.776 1388.71 L476.776 1388.71 L530.162 1388.71 
  L530.162 1371.11 L583.548 1371.11 L583.548 1356.45 L636.934 1356.45 L636.934 1340.32 L690.32 1340.32 L690.32 1316.12 L743.706 1316.12 L743.706 1266.65 L797.092 1266.65 
  L797.092 1202.52 L850.477 1202.52 L850.477 1101.5 L903.863 1101.5 L903.863 1018.09 L957.249 1018.09 L957.249 907.136 L1010.64 907.136 L1010.64 724.676 L1064.02 724.676 
  L1064.02 603.199 L1117.41 603.199 L1117.41 498.739 L1170.79 498.739 L1170.79 377.361 L1224.18 377.361 L1224.18 224.999 L1277.56 224.999 L1277.56 194.408 L1330.95 194.408 
  L1330.95 197.064 L1384.34 197.064 L1384.34 274.967 L1437.72 274.967 L1437.72 332.508 L1491.11 332.508 L1491.11 473.657 L1544.49 473.657 L1544.49 611.461 L1597.88 611.461 
  L1597.88 708.839 L1651.27 708.839 L1651.27 896.021 L1704.65 896.021 L1704.65 1017.5 L1758.04 1017.5 L1758.04 1113.89 L1811.42 1113.89 L1811.42 1186.38 L1864.81 1186.38 
  L1864.81 1275.5 L1918.19 1275.5 L1918.19 1305.7 L1971.58 1305.7 L1971.58 1332.75 L2024.97 1332.75 L2024.97 1360.78 L2078.35 1360.78 L2078.35 1372.48 L2131.74 1372.48 
  L2131.74 1388.71 L2185.12 1388.71 L2185.12 1388.71 L2238.51 1388.71 L2238.51 1388.71 L2291.9 1388.71 L2291.9 1388.71 L2291.9 1388.71 L2291.9 1388.71 L2238.51 1388.71 
  L2238.51 1388.71 L2185.12 1388.71 L2185.12 1388.71 L2131.74 1388.71 L2131.74 1388.71 L2078.35 1388.71 L2078.35 1388.71 L2024.97 1388.71 L2024.97 1388.71 L1971.58 1388.71 
  L1971.58 1388.71 L1918.19 1388.71 L1918.19 1388.71 L1864.81 1388.71 L1864.81 1388.71 L1811.42 1388.71 L1811.42 1388.71 L1758.04 1388.71 L1758.04 1388.71 L1704.65 1388.71 
  L1704.65 1388.71 L1651.27 1388.71 L1651.27 1388.71 L1597.88 1388.71 L1597.88 1388.71 L1544.49 1388.71 L1544.49 1388.71 L1491.11 1388.71 L1491.11 1388.71 L1437.72 1388.71 
  L1437.72 1388.71 L1384.34 1388.71 L1384.34 1388.71 L1330.95 1388.71 L1330.95 1388.71 L1277.56 1388.71 L1277.56 1388.71 L1224.18 1388.71 L1224.18 1388.71 L1170.79 1388.71 
  L1170.79 1388.71 L1117.41 1388.71 L1117.41 1388.71 L1064.02 1388.71 L1064.02 1388.71 L1010.64 1388.71 L1010.64 1388.71 L957.249 1388.71 L957.249 1388.71 L903.863 1388.71 
  L903.863 1388.71 L850.477 1388.71 L850.477 1388.71 L797.092 1388.71 L797.092 1388.71 L743.706 1388.71 L743.706 1388.71 L690.32 1388.71 L690.32 1388.71 L636.934 1388.71 
  L636.934 1388.71 L583.548 1388.71 L583.548 1388.71 L530.162 1388.71 L530.162 1388.71 L476.776 1388.71 L476.776 1388.71 L423.39 1388.71 L423.39 1388.71 L370.005 1388.71 
  L370.005 1388.71 L316.619 1388.71 L316.619 1388.71 L263.233 1388.71  Z
  " fill="#ff0000" fill-rule="evenodd" fill-opacity="1"/>
<polyline clip-path="url(#clip5902)" style="stroke:#009af9; stroke-width:0; stroke-opacity:1; fill:none" points="
  263.233,1388.71 316.619,1388.71 370.005,1388.71 423.39,1388.71 476.776,1388.71 530.162,1388.71 
  530.162,1371.11 583.548,1371.11 583.548,1356.45 636.934,1356.45 636.934,1340.32 690.32,1340.32 690.32,1316.12 743.706,1316.12 743.706,1266.65 797.092,1266.65 
  797.092,1202.52 850.477,1202.52 850.477,1101.5 903.863,1101.5 903.863,1018.09 957.249,1018.09 957.249,907.136 1010.64,907.136 1010.64,724.676 1064.02,724.676 
  1064.02,603.199 1117.41,603.199 1117.41,498.739 1170.79,498.739 1170.79,377.361 1224.18,377.361 1224.18,224.999 1277.56,224.999 1277.56,194.408 1330.95,194.408 
  1330.95,197.064 1384.34,197.064 1384.34,274.967 1437.72,274.967 1437.72,332.508 1491.11,332.508 1491.11,473.657 1544.49,473.657 1544.49,611.461 1597.88,611.461 
  1597.88,708.839 1651.27,708.839 1651.27,896.021 1704.65,896.021 1704.65,1017.5 1758.04,1017.5 1758.04,1113.89 1811.42,1113.89 1811.42,1186.38 1864.81,1186.38 
  1864.81,1275.5 1918.19,1275.5 1918.19,1305.7 1971.58,1305.7 1971.58,1332.75 2024.97,1332.75 2024.97,1360.78 2078.35,1360.78 2078.35,1372.48 2131.74,1372.48 
  2131.74,1388.71 2185.12,1388.71 2238.51,1388.71 2291.9,1388.71 
  "/>
<path clip-path="url(#clip5902)" d="
M263.233 1388.71 L316.619 1388.71 L316.619 1388.71 L370.005 1388.71 L370.005 1388.71 L423.39 1388.71 L423.39 1388.71 L476.776 1388.71 L476.776 1388.71 L530.162 1388.71 
  L530.162 1388.71 L583.548 1388.71 L583.548 1388.71 L636.934 1388.71 L636.934 1388.71 L690.32 1388.71 L690.32 1388.71 L743.706 1388.71 L743.706 1388.71 L797.092 1388.71 
  L797.092 1202.52 L850.477 1202.52 L850.477 1101.5 L903.863 1101.5 L903.863 1018.09 L957.249 1018.09 L957.249 907.136 L1010.64 907.136 L1010.64 724.676 L1064.02 724.676 
  L1064.02 603.199 L1117.41 603.199 L1117.41 498.739 L1170.79 498.739 L1170.79 377.361 L1224.18 377.361 L1224.18 224.999 L1277.56 224.999 L1277.56 194.408 L1330.95 194.408 
  L1330.95 197.064 L1384.34 197.064 L1384.34 274.967 L1437.72 274.967 L1437.72 332.508 L1491.11 332.508 L1491.11 473.657 L1544.49 473.657 L1544.49 611.461 L1597.88 611.461 
  L1597.88 708.839 L1651.27 708.839 L1651.27 896.021 L1704.65 896.021 L1704.65 1017.5 L1758.04 1017.5 L1758.04 1113.89 L1811.42 1113.89 L1811.42 1186.38 L1864.81 1186.38 
  L1864.81 1388.71 L1918.19 1388.71 L1918.19 1388.71 L1971.58 1388.71 L1971.58 1388.71 L2024.97 1388.71 L2024.97 1388.71 L2078.35 1388.71 L2078.35 1388.71 L2131.74 1388.71 
  L2131.74 1388.71 L2185.12 1388.71 L2185.12 1388.71 L2238.51 1388.71 L2238.51 1388.71 L2291.9 1388.71 L2291.9 1388.71 L2291.9 1388.71 L2291.9 1388.71 L2238.51 1388.71 
  L2238.51 1388.71 L2185.12 1388.71 L2185.12 1388.71 L2131.74 1388.71 L2131.74 1388.71 L2078.35 1388.71 L2078.35 1388.71 L2024.97 1388.71 L2024.97 1388.71 L1971.58 1388.71 
  L1971.58 1388.71 L1918.19 1388.71 L1918.19 1388.71 L1864.81 1388.71 L1864.81 1388.71 L1811.42 1388.71 L1811.42 1388.71 L1758.04 1388.71 L1758.04 1388.71 L1704.65 1388.71 
  L1704.65 1388.71 L1651.27 1388.71 L1651.27 1388.71 L1597.88 1388.71 L1597.88 1388.71 L1544.49 1388.71 L1544.49 1388.71 L1491.11 1388.71 L1491.11 1388.71 L1437.72 1388.71 
  L1437.72 1388.71 L1384.34 1388.71 L1384.34 1388.71 L1330.95 1388.71 L1330.95 1388.71 L1277.56 1388.71 L1277.56 1388.71 L1224.18 1388.71 L1224.18 1388.71 L1170.79 1388.71 
  L1170.79 1388.71 L1117.41 1388.71 L1117.41 1388.71 L1064.02 1388.71 L1064.02 1388.71 L1010.64 1388.71 L1010.64 1388.71 L957.249 1388.71 L957.249 1388.71 L903.863 1388.71 
  L903.863 1388.71 L850.477 1388.71 L850.477 1388.71 L797.092 1388.71 L797.092 1388.71 L743.706 1388.71 L743.706 1388.71 L690.32 1388.71 L690.32 1388.71 L636.934 1388.71 
  L636.934 1388.71 L583.548 1388.71 L583.548 1388.71 L530.162 1388.71 L530.162 1388.71 L476.776 1388.71 L476.776 1388.71 L423.39 1388.71 L423.39 1388.71 L370.005 1388.71 
  L370.005 1388.71 L316.619 1388.71 L316.619 1388.71 L263.233 1388.71  Z
  " fill="#ffff00" fill-rule="evenodd" fill-opacity="1"/>
<polyline clip-path="url(#clip5902)" style="stroke:#e26f46; stroke-width:0; stroke-opacity:1; fill:none" points="
  263.233,1388.71 316.619,1388.71 370.005,1388.71 423.39,1388.71 476.776,1388.71 530.162,1388.71 
  583.548,1388.71 636.934,1388.71 690.32,1388.71 743.706,1388.71 797.092,1388.71 
  797.092,1202.52 850.477,1202.52 850.477,1101.5 903.863,1101.5 903.863,1018.09 957.249,1018.09 957.249,907.136 1010.64,907.136 1010.64,724.676 1064.02,724.676 
  1064.02,603.199 1117.41,603.199 1117.41,498.739 1170.79,498.739 1170.79,377.361 1224.18,377.361 1224.18,224.999 1277.56,224.999 1277.56,194.408 1330.95,194.408 
  1330.95,197.064 1384.34,197.064 1384.34,274.967 1437.72,274.967 1437.72,332.508 1491.11,332.508 1491.11,473.657 1544.49,473.657 1544.49,611.461 1597.88,611.461 
  1597.88,708.839 1651.27,708.839 1651.27,896.021 1704.65,896.021 1704.65,1017.5 1758.04,1017.5 1758.04,1113.89 1811.42,1113.89 1811.42,1186.38 1864.81,1186.38 
  1864.81,1388.71 1918.19,1388.71 1971.58,1388.71 2024.97,1388.71 2078.35,1388.71 2131.74,1388.71 
  2185.12,1388.71 2238.51,1388.71 2291.9,1388.71 
  "/>
<path clip-path="url(#clip5902)" d="
M263.233 1388.71 L316.619 1388.71 L316.619 1388.71 L370.005 1388.71 L370.005 1388.71 L423.39 1388.71 L423.39 1388.71 L476.776 1388.71 L476.776 1388.71 L530.162 1388.71 
  L530.162 1388.71 L583.548 1388.71 L583.548 1388.71 L636.934 1388.71 L636.934 1388.71 L690.32 1388.71 L690.32 1388.71 L743.706 1388.71 L743.706 1388.71 L797.092 1388.71 
  L797.092 1388.71 L850.477 1388.71 L850.477 1388.71 L903.863 1388.71 L903.863 1388.71 L957.249 1388.71 L957.249 1388.71 L1010.64 1388.71 L1010.64 1388.71 L1064.02 1388.71 
  L1064.02 603.199 L1117.41 603.199 L1117.41 498.739 L1170.79 498.739 L1170.79 377.361 L1224.18 377.361 L1224.18 224.999 L1277.56 224.999 L1277.56 194.408 L1330.95 194.408 
  L1330.95 197.064 L1384.34 197.064 L1384.34 274.967 L1437.72 274.967 L1437.72 332.508 L1491.11 332.508 L1491.11 473.657 L1544.49 473.657 L1544.49 611.461 L1597.88 611.461 
  L1597.88 1388.71 L1651.27 1388.71 L1651.27 1388.71 L1704.65 1388.71 L1704.65 1388.71 L1758.04 1388.71 L1758.04 1388.71 L1811.42 1388.71 L1811.42 1388.71 L1864.81 1388.71 
  L1864.81 1388.71 L1918.19 1388.71 L1918.19 1388.71 L1971.58 1388.71 L1971.58 1388.71 L2024.97 1388.71 L2024.97 1388.71 L2078.35 1388.71 L2078.35 1388.71 L2131.74 1388.71 
  L2131.74 1388.71 L2185.12 1388.71 L2185.12 1388.71 L2238.51 1388.71 L2238.51 1388.71 L2291.9 1388.71 L2291.9 1388.71 L2291.9 1388.71 L2291.9 1388.71 L2238.51 1388.71 
  L2238.51 1388.71 L2185.12 1388.71 L2185.12 1388.71 L2131.74 1388.71 L2131.74 1388.71 L2078.35 1388.71 L2078.35 1388.71 L2024.97 1388.71 L2024.97 1388.71 L1971.58 1388.71 
  L1971.58 1388.71 L1918.19 1388.71 L1918.19 1388.71 L1864.81 1388.71 L1864.81 1388.71 L1811.42 1388.71 L1811.42 1388.71 L1758.04 1388.71 L1758.04 1388.71 L1704.65 1388.71 
  L1704.65 1388.71 L1651.27 1388.71 L1651.27 1388.71 L1597.88 1388.71 L1597.88 1388.71 L1544.49 1388.71 L1544.49 1388.71 L1491.11 1388.71 L1491.11 1388.71 L1437.72 1388.71 
  L1437.72 1388.71 L1384.34 1388.71 L1384.34 1388.71 L1330.95 1388.71 L1330.95 1388.71 L1277.56 1388.71 L1277.56 1388.71 L1224.18 1388.71 L1224.18 1388.71 L1170.79 1388.71 
  L1170.79 1388.71 L1117.41 1388.71 L1117.41 1388.71 L1064.02 1388.71 L1064.02 1388.71 L1010.64 1388.71 L1010.64 1388.71 L957.249 1388.71 L957.249 1388.71 L903.863 1388.71 
  L903.863 1388.71 L850.477 1388.71 L850.477 1388.71 L797.092 1388.71 L797.092 1388.71 L743.706 1388.71 L743.706 1388.71 L690.32 1388.71 L690.32 1388.71 L636.934 1388.71 
  L636.934 1388.71 L583.548 1388.71 L583.548 1388.71 L530.162 1388.71 L530.162 1388.71 L476.776 1388.71 L476.776 1388.71 L423.39 1388.71 L423.39 1388.71 L370.005 1388.71 
  L370.005 1388.71 L316.619 1388.71 L316.619 1388.71 L263.233 1388.71  Z
  " fill="#76ee00" fill-rule="evenodd" fill-opacity="1"/>
<polyline clip-path="url(#clip5902)" style="stroke:#3da44d; stroke-width:0; stroke-opacity:1; fill:none" points="
  263.233,1388.71 316.619,1388.71 370.005,1388.71 423.39,1388.71 476.776,1388.71 530.162,1388.71 
  583.548,1388.71 636.934,1388.71 690.32,1388.71 743.706,1388.71 797.092,1388.71 
  850.477,1388.71 903.863,1388.71 957.249,1388.71 1010.64,1388.71 1064.02,1388.71 
  1064.02,603.199 1117.41,603.199 1117.41,498.739 1170.79,498.739 1170.79,377.361 1224.18,377.361 1224.18,224.999 1277.56,224.999 1277.56,194.408 1330.95,194.408 
  1330.95,197.064 1384.34,197.064 1384.34,274.967 1437.72,274.967 1437.72,332.508 1491.11,332.508 1491.11,473.657 1544.49,473.657 1544.49,611.461 1597.88,611.461 
  1597.88,1388.71 1651.27,1388.71 1704.65,1388.71 1758.04,1388.71 1811.42,1388.71 1864.81,1388.71 
  1918.19,1388.71 1971.58,1388.71 2024.97,1388.71 2078.35,1388.71 2131.74,1388.71 
  2185.12,1388.71 2238.51,1388.71 2291.9,1388.71 
  "/>
<polyline clip-path="url(#clip5902)" style="stroke:#000000; stroke-width:2.8; stroke-opacity:1; fill:none" points="
  263.233,1388.32 316.619,1388.32 316.619,1386.35 370.005,1386.35 370.005,1387.34 423.39,1387.34 423.39,1383.01 476.776,1383.01 476.776,1377.8 530.162,1377.8 
  530.162,1371.11 583.548,1371.11 583.548,1356.45 636.934,1356.45 636.934,1340.32 690.32,1340.32 690.32,1316.12 743.706,1316.12 743.706,1266.65 797.092,1266.65 
  797.092,1202.52 850.477,1202.52 850.477,1101.5 903.863,1101.5 903.863,1018.09 957.249,1018.09 957.249,907.136 1010.64,907.136 1010.64,724.676 1064.02,724.676 
  1064.02,603.199 1117.41,603.199 1117.41,498.739 1170.79,498.739 1170.79,377.361 1224.18,377.361 1224.18,224.999 1277.56,224.999 1277.56,194.408 1330.95,194.408 
  1330.95,197.064 1384.34,197.064 1384.34,274.967 1437.72,274.967 1437.72,332.508 1491.11,332.508 1491.11,473.657 1544.49,473.657 1544.49,611.461 1597.88,611.461 
  1597.88,708.839 1651.27,708.839 1651.27,896.021 1704.65,896.021 1704.65,1017.5 1758.04,1017.5 1758.04,1113.89 1811.42,1113.89 1811.42,1186.38 1864.81,1186.38 
  1864.81,1275.5 1918.19,1275.5 1918.19,1305.7 1971.58,1305.7 1971.58,1332.75 2024.97,1332.75 2024.97,1360.78 2078.35,1360.78 2078.35,1372.48 2131.74,1372.48 
  2131.74,1378.09 2185.12,1378.09 2185.12,1385.96 2238.51,1385.96 2238.51,1387.93 2291.9,1387.93 2291.9,1388.62 
  "/>
<path clip-path="url(#clip5902)" d="
M1067.59 1388.71 L1595.54 1388.71 L1595.54 158.579 L1067.59 158.579 L1067.59 1388.71  Z
  " fill="#808080" fill-rule="evenodd" fill-opacity="0.5"/>
<polyline clip-path="url(#clip5902)" style="stroke:#000000; stroke-width:0; stroke-opacity:1; fill:none" points="
  1067.59,1388.71 1595.54,1388.71 1595.54,158.579 1067.59,158.579 1067.59,1388.71 
  "/>
<polyline clip-path="url(#clip5902)" style="stroke:#696969; stroke-width:4; stroke-opacity:1; fill:none" points="
  1331.57,1388.71 1331.57,158.579 
  "/>
<polyline clip-path="url(#clip5902)" style="stroke:#000000; stroke-width:4; stroke-opacity:1; fill:none" stroke-dasharray="16, 10" points="
  1336.31,1388.71 1336.31,158.579 
  "/>
<polyline clip-path="url(#clip5902)" style="stroke:#000000; stroke-width:4; stroke-opacity:1; fill:none" stroke-dasharray="2, 4" points="
  1304.26,1388.71 1304.26,158.579 
  "/>
<path clip-path="url(#clip5900)" d="
M1463.01 689.035 L2280.76 689.035 L2280.76 205.195 L1463.01 205.195  Z
  " fill="#ffffff" fill-rule="evenodd" fill-opacity="1"/>
<polyline clip-path="url(#clip5900)" style="stroke:#000000; stroke-width:4; stroke-opacity:1; fill:none" points="
  1463.01,689.035 2280.76,689.035 2280.76,205.195 1463.01,205.195 1463.01,689.035 
  "/>
<path clip-path="url(#clip5900)" d="
M1487.01 289.867 L1631.01 289.867 L1631.01 241.483 L1487.01 241.483 L1487.01 289.867  Z
  " fill="#ff0000" fill-rule="evenodd" fill-opacity="1"/>
<polyline clip-path="url(#clip5900)" style="stroke:#009af9; stroke-width:0; stroke-opacity:1; fill:none" points="
  1487.01,241.483 1631.01,241.483 
  "/>
<g clip-path="url(#clip5900)">
<text style="fill:#000000; fill-opacity:1; font-family:Arial,Helvetica Neue,Helvetica,sans-serif; font-size:48px; text-anchor:start;" transform="rotate(0, 1655.01, 283.175)" x="1655.01" y="283.175">smallest 99.76% interval(s)</text>
</g>
<path clip-path="url(#clip5900)" d="
M1487.01 350.347 L1631.01 350.347 L1631.01 301.963 L1487.01 301.963 L1487.01 350.347  Z
  " fill="#ffff00" fill-rule="evenodd" fill-opacity="1"/>
<polyline clip-path="url(#clip5900)" style="stroke:#e26f46; stroke-width:0; stroke-opacity:1; fill:none" points="
  1487.01,301.963 1631.01,301.963 
  "/>
<g clip-path="url(#clip5900)">
<text style="fill:#000000; fill-opacity:1; font-family:Arial,Helvetica Neue,Helvetica,sans-serif; font-size:48px; text-anchor:start;" transform="rotate(0, 1655.01, 343.655)" x="1655.01" y="343.655">smallest 95.76% interval(s)</text>
</g>
<path clip-path="url(#clip5900)" d="
M1487.01 410.827 L1631.01 410.827 L1631.01 362.443 L1487.01 362.443 L1487.01 410.827  Z
  " fill="#76ee00" fill-rule="evenodd" fill-opacity="1"/>
<polyline clip-path="url(#clip5900)" style="stroke:#3da44d; stroke-width:0; stroke-opacity:1; fill:none" points="
  1487.01,362.443 1631.01,362.443 
  "/>
<g clip-path="url(#clip5900)">
<text style="fill:#000000; fill-opacity:1; font-family:Arial,Helvetica Neue,Helvetica,sans-serif; font-size:48px; text-anchor:start;" transform="rotate(0, 1655.01, 404.135)" x="1655.01" y="404.135">smallest 68.54% interval(s)</text>
</g>
<path clip-path="url(#clip5900)" d="
M1487.01 471.307 L1631.01 471.307 L1631.01 422.923 L1487.01 422.923 L1487.01 471.307  Z
  " fill="#808080" fill-rule="evenodd" fill-opacity="0.5"/>
<polyline clip-path="url(#clip5900)" style="stroke:#000000; stroke-width:0; stroke-opacity:1; fill:none" points="
  1487.01,471.307 1631.01,471.307 1631.01,422.923 1487.01,422.923 1487.01,471.307 
  "/>
<g clip-path="url(#clip5900)">
<text style="fill:#000000; fill-opacity:1; font-family:Arial,Helvetica Neue,Helvetica,sans-serif; font-size:48px; text-anchor:start;" transform="rotate(0, 1655.01, 464.615)" x="1655.01" y="464.615">std. dev.</text>
</g>
<polyline clip-path="url(#clip5900)" style="stroke:#696969; stroke-width:4; stroke-opacity:1; fill:none" points="
  1487.01,507.595 1631.01,507.595 
  "/>
<g clip-path="url(#clip5900)">
<text style="fill:#000000; fill-opacity:1; font-family:Arial,Helvetica Neue,Helvetica,sans-serif; font-size:48px; text-anchor:start;" transform="rotate(0, 1655.01, 525.095)" x="1655.01" y="525.095">mean</text>
</g>
<polyline clip-path="url(#clip5900)" style="stroke:#000000; stroke-width:4; stroke-opacity:1; fill:none" stroke-dasharray="16, 10" points="
  1487.01,568.075 1631.01,568.075 
  "/>
<g clip-path="url(#clip5900)">
<text style="fill:#000000; fill-opacity:1; font-family:Arial,Helvetica Neue,Helvetica,sans-serif; font-size:48px; text-anchor:start;" transform="rotate(0, 1655.01, 585.575)" x="1655.01" y="585.575">global mode</text>
</g>
<polyline clip-path="url(#clip5900)" style="stroke:#000000; stroke-width:4; stroke-opacity:1; fill:none" stroke-dasharray="2, 4" points="
  1487.01,628.555 1631.01,628.555 
  "/>
<g clip-path="url(#clip5900)">
<text style="fill:#000000; fill-opacity:1; font-family:Arial,Helvetica Neue,Helvetica,sans-serif; font-size:48px; text-anchor:start;" transform="rotate(0, 1655.01, 646.055)" x="1655.01" y="646.055">local mode</text>
</g>
</svg>
