<?xml version="1.0" encoding="utf-8"?>
<svg xmlns="http://www.w3.org/2000/svg" xmlns:xlink="http://www.w3.org/1999/xlink" width="600" height="400" viewBox="0 0 2400 1600">
<defs>
  <clipPath id="clip6800">
    <rect x="0" y="0" width="2400" height="1600"/>
  </clipPath>
</defs>
<path clip-path="url(#clip6800)" d="
M0 1600 L2400 1600 L2400 0 L0 0  Z
  " fill="#ffffff" fill-rule="evenodd" fill-opacity="1"/>
<defs>
  <clipPath id="clip6801">
    <rect x="480" y="0" width="1681" height="1600"/>
  </clipPath>
</defs>
<path clip-path="url(#clip6800)" d="
M167.279 1487.47 L2352.76 1487.47 L2352.76 121.675 L167.279 121.675  Z
  " fill="#ffffff" fill-rule="evenodd" fill-opacity="1"/>
<defs>
  <clipPath id="clip6802">
    <rect x="167" y="121" width="2186" height="1367"/>
  </clipPath>
</defs>
<polyline clip-path="url(#clip6802)" style="stroke:#000000; stroke-width:2; stroke-opacity:0.1; fill:none" points="
  229.132,1487.47 229.132,121.675 
  "/>
<polyline clip-path="url(#clip6802)" style="stroke:#000000; stroke-width:2; stroke-opacity:0.1; fill:none" points="
  744.575,1487.47 744.575,121.675 
  "/>
<polyline clip-path="url(#clip6802)" style="stroke:#000000; stroke-width:2; stroke-opacity:0.1; fill:none" points="
  1260.02,1487.47 1260.02,121.675 
  "/>
<polyline clip-path="url(#clip6802)" style="stroke:#000000; stroke-width:2; stroke-opacity:0.1; fill:none" points="
  1775.46,1487.47 1775.46,121.675 
  "/>
<polyline clip-path="url(#clip6802)" style="stroke:#000000; stroke-width:2; stroke-opacity:0.1; fill:none" points="
  2290.9,1487.47 2290.9,121.675 
  "/>
<polyline clip-path="url(#clip6802)" style="stroke:#000000; stroke-width:2; stroke-opacity:0.1; fill:none" points="
  167.279,1448.82 2352.76,1448.82 
  "/>
<polyline clip-path="url(#clip6802)" style="stroke:#000000; stroke-width:2; stroke-opacity:0.1; fill:none" points="
  167.279,1145.65 2352.76,1145.65 
  "/>
<polyline clip-path="url(#clip6802)" style="stroke:#000000; stroke-width:2; stroke-opacity:0.1; fill:none" points="
  167.279,842.472 2352.76,842.472 
  "/>
<polyline clip-path="url(#clip6802)" style="stroke:#000000; stroke-width:2; stroke-opacity:0.1; fill:none" points="
  167.279,539.298 2352.76,539.298 
  "/>
<polyline clip-path="url(#clip6802)" style="stroke:#000000; stroke-width:2; stroke-opacity:0.1; fill:none" points="
  167.279,236.123 2352.76,236.123 
  "/>
<polyline clip-path="url(#clip6800)" style="stroke:#000000; stroke-width:4; stroke-opacity:1; fill:none" points="
  167.279,1487.47 2352.76,1487.47 
  "/>
<polyline clip-path="url(#clip6800)" style="stroke:#000000; stroke-width:4; stroke-opacity:1; fill:none" points="
  167.279,1487.47 167.279,121.675 
  "/>
<polyline clip-path="url(#clip6800)" style="stroke:#000000; stroke-width:4; stroke-opacity:1; fill:none" points="
  229.132,1487.47 229.132,1471.09 
  "/>
<polyline clip-path="url(#clip6800)" style="stroke:#000000; stroke-width:4; stroke-opacity:1; fill:none" points="
  744.575,1487.47 744.575,1471.09 
  "/>
<polyline clip-path="url(#clip6800)" style="stroke:#000000; stroke-width:4; stroke-opacity:1; fill:none" points="
  1260.02,1487.47 1260.02,1471.09 
  "/>
<polyline clip-path="url(#clip6800)" style="stroke:#000000; stroke-width:4; stroke-opacity:1; fill:none" points="
  1775.46,1487.47 1775.46,1471.09 
  "/>
<polyline clip-path="url(#clip6800)" style="stroke:#000000; stroke-width:4; stroke-opacity:1; fill:none" points="
  2290.9,1487.47 2290.9,1471.09 
  "/>
<polyline clip-path="url(#clip6800)" style="stroke:#000000; stroke-width:4; stroke-opacity:1; fill:none" points="
  167.279,1448.82 193.505,1448.82 
  "/>
<polyline clip-path="url(#clip6800)" style="stroke:#000000; stroke-width:4; stroke-opacity:1; fill:none" points="
  167.279,1145.65 193.505,1145.65 
  "/>
<polyline clip-path="url(#clip6800)" style="stroke:#000000; stroke-width:4; stroke-opacity:1; fill:none" points="
  167.279,842.472 193.505,842.472 
  "/>
<polyline clip-path="url(#clip6800)" style="stroke:#000000; stroke-width:4; stroke-opacity:1; fill:none" points="
  167.279,539.298 193.505,539.298 
  "/>
<polyline clip-path="url(#clip6800)" style="stroke:#000000; stroke-width:4; stroke-opacity:1; fill:none" points="
  167.279,236.123 193.505,236.123 
  "/>
<g clip-path="url(#clip6800)">
<text style="fill:#000000; fill-opacity:1; font-family:Arial,Helvetica Neue,Helvetica,sans-serif; font-size:48px; text-anchor:middle;" transform="rotate(0, 229.132, 1541.47)" x="229.132" y="1541.47">-4</text>
</g>
<g clip-path="url(#clip6800)">
<text style="fill:#000000; fill-opacity:1; font-family:Arial,Helvetica Neue,Helvetica,sans-serif; font-size:48px; text-anchor:middle;" transform="rotate(0, 744.575, 1541.47)" x="744.575" y="1541.47">-2</text>
</g>
<g clip-path="url(#clip6800)">
<text style="fill:#000000; fill-opacity:1; font-family:Arial,Helvetica Neue,Helvetica,sans-serif; font-size:48px; text-anchor:middle;" transform="rotate(0, 1260.02, 1541.47)" x="1260.02" y="1541.47">0</text>
</g>
<g clip-path="url(#clip6800)">
<text style="fill:#000000; fill-opacity:1; font-family:Arial,Helvetica Neue,Helvetica,sans-serif; font-size:48px; text-anchor:middle;" transform="rotate(0, 1775.46, 1541.47)" x="1775.46" y="1541.47">2</text>
</g>
<g clip-path="url(#clip6800)">
<text style="fill:#000000; fill-opacity:1; font-family:Arial,Helvetica Neue,Helvetica,sans-serif; font-size:48px; text-anchor:middle;" transform="rotate(0, 2290.9, 1541.47)" x="2290.9" y="1541.47">4</text>
</g>
<g clip-path="url(#clip6800)">
<text style="fill:#000000; fill-opacity:1; font-family:Arial,Helvetica Neue,Helvetica,sans-serif; font-size:48px; text-anchor:end;" transform="rotate(0, 143.279, 1466.32)" x="143.279" y="1466.32">0</text>
</g>
<g clip-path="url(#clip6800)">
<text style="fill:#000000; fill-opacity:1; font-family:Arial,Helvetica Neue,Helvetica,sans-serif; font-size:48px; text-anchor:end;" transform="rotate(0, 143.279, 1163.15)" x="143.279" y="1163.15">200</text>
</g>
<g clip-path="url(#clip6800)">
<text style="fill:#000000; fill-opacity:1; font-family:Arial,Helvetica Neue,Helvetica,sans-serif; font-size:48px; text-anchor:end;" transform="rotate(0, 143.279, 859.972)" x="143.279" y="859.972">400</text>
</g>
<g clip-path="url(#clip6800)">
<text style="fill:#000000; fill-opacity:1; font-family:Arial,Helvetica Neue,Helvetica,sans-serif; font-size:48px; text-anchor:end;" transform="rotate(0, 143.279, 556.798)" x="143.279" y="556.798">600</text>
</g>
<g clip-path="url(#clip6800)">
<text style="fill:#000000; fill-opacity:1; font-family:Arial,Helvetica Neue,Helvetica,sans-serif; font-size:48px; text-anchor:end;" transform="rotate(0, 143.279, 253.623)" x="143.279" y="253.623">800</text>
</g>
<g clip-path="url(#clip6800)">
<text style="fill:#000000; fill-opacity:1; font-family:Arial,Helvetica Neue,Helvetica,sans-serif; font-size:84px; text-anchor:middle;" transform="rotate(0, 1260.02, 73.2)" x="1260.02" y="73.2">Data, True Model and Best Fit</text>
</g>
<polyline clip-path="url(#clip6802)" style="stroke:#009af9; stroke-width:4; stroke-opacity:1; fill:none" points="
  744.575,1448.82 744.575,1388.19 770.347,1388.19 770.347,1251.76 796.119,1251.76 796.119,1297.23 821.891,1297.23 821.891,1069.85 847.663,1069.85 847.663,1054.69 
  873.436,1054.69 873.436,1024.38 899.208,1024.38 899.208,948.583 924.98,948.583 924.98,903.107 950.752,903.107 950.752,766.678 976.524,766.678 976.524,842.472 
  1002.3,842.472 1002.3,963.741 1028.07,963.741 1053.84,963.741 1053.84,887.948 1079.61,887.948 1079.61,1009.22 1105.38,1009.22 1105.38,948.583 
  1131.16,948.583 1131.16,1115.33 1156.93,1115.33 1156.93,1175.96 1182.7,1175.96 1182.7,1327.55 1208.47,1327.55 1234.25,1327.55 1234.25,1342.71 
  1260.02,1342.71 1260.02,1403.34 1285.79,1403.34 1285.79,1448.82 1311.56,1448.82 1311.56,1433.66 1337.33,1433.66 1363.11,1433.66 
  1388.88,1433.66 1388.88,1403.34 1414.65,1403.34 1414.65,1433.66 1440.42,1433.66 1440.42,1373.03 1466.19,1373.03 1466.19,1433.66 1491.97,1433.66 1491.97,1312.39 
  1517.74,1312.39 1517.74,1221.44 1543.51,1221.44 1543.51,1191.12 1569.28,1191.12 1569.28,1054.69 1595.06,1054.69 1595.06,933.424 1620.83,933.424 1620.83,630.25 
  1646.6,630.25 1646.6,721.202 1672.37,721.202 1672.37,357.393 1698.14,357.393 1698.14,160.33 1723.92,160.33 1723.92,387.71 1749.69,387.71 1749.69,418.028 
  1775.46,418.028 1775.46,266.441 1801.23,266.441 1801.23,493.821 1827,493.821 1827,175.489 1852.78,175.489 1852.78,615.091 1878.55,615.091 
  1904.32,615.091 1904.32,827.313 1930.09,827.313 1955.87,827.313 1955.87,1175.96 1981.64,1175.96 1981.64,1206.28 2007.41,1206.28 2007.41,1160.8 
  2033.18,1160.8 2033.18,1388.19 2058.95,1388.19 2058.95,1297.23 2084.73,1297.23 2084.73,1388.19 2110.5,1388.19 2110.5,1433.66 2136.27,1433.66 2136.27,1418.5 
  2162.04,1418.5 2162.04,1448.82 2187.81,1448.82 2213.59,1448.82 2239.36,1448.82 2265.13,1448.82 
  2290.9,1448.82 
  "/>
<polyline clip-path="url(#clip6802)" style="stroke:#e26f46; stroke-width:4; stroke-opacity:1; fill:none" points="
  229.132,1448.82 231.709,1448.82 234.287,1448.82 236.864,1448.82 239.441,1448.82 242.018,1448.82 244.596,1448.82 247.173,1448.82 249.75,1448.82 252.327,1448.82 
  254.904,1448.82 257.482,1448.82 260.059,1448.82 262.636,1448.82 265.213,1448.82 267.79,1448.82 270.368,1448.82 272.945,1448.82 275.522,1448.82 278.099,1448.82 
  280.677,1448.82 283.254,1448.82 285.831,1448.82 288.408,1448.82 290.985,1448.82 293.563,1448.82 296.14,1448.82 298.717,1448.82 301.294,1448.82 303.871,1448.82 
  306.449,1448.82 309.026,1448.82 311.603,1448.82 314.18,1448.82 316.758,1448.82 319.335,1448.82 321.912,1448.82 324.489,1448.82 327.066,1448.82 329.644,1448.82 
  332.221,1448.82 334.798,1448.82 337.375,1448.82 339.952,1448.82 342.53,1448.82 345.107,1448.82 347.684,1448.82 350.261,1448.82 352.838,1448.82 355.416,1448.82 
  357.993,1448.82 360.57,1448.82 363.147,1448.82 365.725,1448.82 368.302,1448.82 370.879,1448.82 373.456,1448.82 376.033,1448.82 378.611,1448.82 381.188,1448.81 
  383.765,1448.81 386.342,1448.81 388.919,1448.81 391.497,1448.81 394.074,1448.81 396.651,1448.81 399.228,1448.81 401.806,1448.81 404.383,1448.81 406.96,1448.81 
  409.537,1448.8 412.114,1448.8 414.692,1448.8 417.269,1448.8 419.846,1448.8 422.423,1448.8 425,1448.79 427.578,1448.79 430.155,1448.79 432.732,1448.79 
  435.309,1448.78 437.887,1448.78 440.464,1448.77 443.041,1448.77 445.618,1448.77 448.195,1448.76 450.773,1448.76 453.35,1448.75 455.927,1448.74 458.504,1448.74 
  461.081,1448.73 463.659,1448.72 466.236,1448.71 468.813,1448.71 471.39,1448.7 473.968,1448.68 476.545,1448.67 479.122,1448.66 481.699,1448.65 484.276,1448.63 
  486.854,1448.62 489.431,1448.6 492.008,1448.58 494.585,1448.56 497.162,1448.54 499.74,1448.52 502.317,1448.49 504.894,1448.47 507.471,1448.44 510.048,1448.41 
  512.626,1448.38 515.203,1448.34 517.78,1448.31 520.357,1448.27 522.935,1448.22 525.512,1448.18 528.089,1448.13 530.666,1448.07 533.243,1448.02 535.821,1447.96 
  538.398,1447.89 540.975,1447.82 543.552,1447.75 546.129,1447.67 548.707,1447.59 551.284,1447.5 553.861,1447.4 556.438,1447.3 559.016,1447.19 561.593,1447.08 
  564.17,1446.95 566.747,1446.82 569.324,1446.68 571.902,1446.53 574.479,1446.38 577.056,1446.21 579.633,1446.03 582.21,1445.84 584.788,1445.64 587.365,1445.43 
  589.942,1445.21 592.519,1444.97 595.097,1444.72 597.674,1444.45 600.251,1444.17 602.828,1443.87 605.405,1443.55 607.983,1443.22 610.56,1442.87 613.137,1442.49 
  615.714,1442.1 618.291,1441.69 620.869,1441.25 623.446,1440.79 626.023,1440.31 628.6,1439.8 631.178,1439.26 633.755,1438.7 636.332,1438.1 638.909,1437.48 
  641.486,1436.82 644.064,1436.13 646.641,1435.41 649.218,1434.65 651.795,1433.86 654.372,1433.02 656.95,1432.15 659.527,1431.24 662.104,1430.28 664.681,1429.28 
  667.258,1428.23 669.836,1427.14 672.413,1425.99 674.99,1424.8 677.567,1423.55 680.145,1422.25 682.722,1420.89 685.299,1419.48 687.876,1418 690.453,1416.47 
  693.031,1414.87 695.608,1413.21 698.185,1411.48 700.762,1409.69 703.339,1407.82 705.917,1405.88 708.494,1403.87 711.071,1401.78 713.648,1399.61 716.226,1397.37 
  718.803,1395.05 721.38,1392.64 723.957,1390.15 726.534,1387.57 729.112,1384.9 731.689,1382.15 734.266,1379.3 736.843,1376.36 739.42,1373.33 741.998,1370.2 
  744.575,1366.98 747.152,1363.65 749.729,1360.23 752.307,1356.71 754.884,1353.08 757.461,1349.35 760.038,1345.52 762.615,1341.59 765.193,1337.54 767.77,1333.4 
  770.347,1329.14 772.924,1324.78 775.501,1320.31 778.079,1315.73 780.656,1311.05 783.233,1306.25 785.81,1301.35 788.388,1296.34 790.965,1291.23 793.542,1286.01 
  796.119,1280.68 798.696,1275.25 801.274,1269.71 803.851,1264.07 806.428,1258.33 809.005,1252.49 811.582,1246.55 814.16,1240.51 816.737,1234.38 819.314,1228.16 
  821.891,1221.85 824.469,1215.45 827.046,1208.97 829.623,1202.41 832.2,1195.77 834.777,1189.05 837.355,1182.26 839.932,1175.4 842.509,1168.48 845.086,1161.5 
  847.663,1154.46 850.241,1147.37 852.818,1140.23 855.395,1133.05 857.972,1125.83 860.549,1118.58 863.127,1111.31 865.704,1104.01 868.281,1096.69 870.858,1089.36 
  873.436,1082.02 876.013,1074.69 878.59,1067.36 881.167,1060.04 883.744,1052.74 886.322,1045.47 888.899,1038.23 891.476,1031.02 894.053,1023.86 896.63,1016.74 
  899.208,1009.69 901.785,1002.69 904.362,995.768 906.939,988.921 909.517,982.157 912.094,975.483 914.671,968.906 917.248,962.432 919.825,956.068 922.403,949.82 
  924.98,943.695 927.557,937.699 930.134,931.839 932.711,926.12 935.289,920.55 937.866,915.134 940.443,909.879 943.02,904.789 945.598,899.87 948.175,895.129 
  950.752,890.57 953.329,886.199 955.906,882.02 958.484,878.038 961.061,874.259 963.638,870.685 966.215,867.322 968.792,864.174 971.37,861.243 973.947,858.534 
  976.524,856.05 979.101,853.793 981.679,851.766 984.256,849.973 986.833,848.414 989.41,847.091 991.987,846.007 994.565,845.163 997.142,844.559 999.719,844.196 
  1002.3,844.075 1004.87,844.196 1007.45,844.559 1010.03,845.163 1012.61,846.007 1015.18,847.091 1017.76,848.414 1020.34,849.973 1022.91,851.766 1025.49,853.793 
  1028.07,856.05 1030.65,858.534 1033.22,861.243 1035.8,864.174 1038.38,867.322 1040.95,870.685 1043.53,874.259 1046.11,878.038 1048.69,882.02 1051.26,886.199 
  1053.84,890.57 1056.42,895.129 1058.99,899.87 1061.57,904.788 1064.15,909.878 1066.73,915.134 1069.3,920.55 1071.88,926.12 1074.46,931.838 1077.04,937.698 
  1079.61,943.694 1082.19,949.819 1084.77,956.067 1087.34,962.431 1089.92,968.905 1092.5,975.482 1095.08,982.156 1097.65,988.92 1100.23,995.767 1102.81,1002.69 
  1105.38,1009.68 1107.96,1016.74 1110.54,1023.85 1113.12,1031.02 1115.69,1038.22 1118.27,1045.47 1120.85,1052.74 1123.43,1060.04 1126,1067.36 1128.58,1074.68 
  1131.16,1082.02 1133.73,1089.35 1136.31,1096.68 1138.89,1104 1141.47,1111.3 1144.04,1118.58 1146.62,1125.83 1149.2,1133.04 1151.77,1140.22 1154.35,1147.36 
  1156.93,1154.45 1159.51,1161.48 1162.08,1168.46 1164.66,1175.38 1167.24,1182.24 1169.82,1189.03 1172.39,1195.74 1174.97,1202.38 1177.55,1208.95 1180.12,1215.43 
  1182.7,1221.82 1185.28,1228.13 1187.86,1234.35 1190.43,1240.47 1193.01,1246.51 1195.59,1252.44 1198.16,1258.28 1200.74,1264.01 1203.32,1269.65 1205.9,1275.18 
  1208.47,1280.6 1211.05,1285.92 1213.63,1291.14 1216.2,1296.25 1218.78,1301.25 1221.36,1306.14 1223.94,1310.92 1226.51,1315.59 1229.09,1320.16 1231.67,1324.62 
  1234.25,1328.96 1236.82,1333.2 1239.4,1337.33 1241.98,1341.36 1244.55,1345.27 1247.13,1349.08 1249.71,1352.79 1252.29,1356.39 1254.86,1359.89 1257.44,1363.28 
  1260.02,1366.57 1262.59,1369.76 1265.17,1372.85 1267.75,1375.85 1270.33,1378.74 1272.9,1381.54 1275.48,1384.25 1278.06,1386.86 1280.64,1389.39 1283.21,1391.82 
  1285.79,1394.16 1288.37,1396.42 1290.94,1398.58 1293.52,1400.67 1296.1,1402.67 1298.68,1404.59 1301.25,1406.43 1303.83,1408.19 1306.41,1409.88 1308.98,1411.48 
  1311.56,1413.02 1314.14,1414.48 1316.72,1415.86 1319.29,1417.18 1321.87,1418.43 1324.45,1419.6 1327.03,1420.71 1329.6,1421.76 1332.18,1422.73 1334.76,1423.65 
  1337.33,1424.49 1339.91,1425.28 1342.49,1426 1345.07,1426.66 1347.64,1427.26 1350.22,1427.8 1352.8,1428.28 1355.37,1428.7 1357.95,1429.06 1360.53,1429.35 
  1363.11,1429.59 1365.68,1429.77 1368.26,1429.89 1370.84,1429.95 1373.41,1429.95 1375.99,1429.89 1378.57,1429.77 1381.15,1429.59 1383.72,1429.34 1386.3,1429.04 
  1388.88,1428.67 1391.46,1428.23 1394.03,1427.73 1396.61,1427.16 1399.19,1426.53 1401.76,1425.82 1404.34,1425.05 1406.92,1424.2 1409.5,1423.28 1412.07,1422.28 
  1414.65,1421.21 1417.23,1420.06 1419.8,1418.82 1422.38,1417.51 1424.96,1416.1 1427.54,1414.62 1430.11,1413.04 1432.69,1411.36 1435.27,1409.6 1437.85,1407.74 
  1440.42,1405.77 1443,1403.71 1445.58,1401.53 1448.15,1399.25 1450.73,1396.86 1453.31,1394.36 1455.89,1391.73 1458.46,1388.99 1461.04,1386.12 1463.62,1383.12 
  1466.19,1380 1468.77,1376.74 1471.35,1373.34 1473.93,1369.8 1476.5,1366.12 1479.08,1362.3 1481.66,1358.32 1484.24,1354.18 1486.81,1349.89 1489.39,1345.44 
  1491.97,1340.83 1494.54,1336.04 1497.12,1331.09 1499.7,1325.96 1502.28,1320.66 1504.85,1315.17 1507.43,1309.5 1510.01,1303.65 1512.58,1297.6 1515.16,1291.36 
  1517.74,1284.93 1520.32,1278.3 1522.89,1271.47 1525.47,1264.44 1528.05,1257.2 1530.62,1249.75 1533.2,1242.1 1535.78,1234.24 1538.36,1226.16 1540.93,1217.88 
  1543.51,1209.37 1546.09,1200.66 1548.67,1191.72 1551.24,1182.58 1553.82,1173.21 1556.4,1163.63 1558.97,1153.83 1561.55,1143.82 1564.13,1133.59 1566.71,1123.15 
  1569.28,1112.5 1571.86,1101.64 1574.44,1090.57 1577.01,1079.29 1579.59,1067.81 1582.17,1056.13 1584.75,1044.26 1587.32,1032.19 1589.9,1019.93 1592.48,1007.49 
  1595.06,994.87 1597.63,982.075 1600.21,969.111 1602.79,955.983 1605.36,942.699 1607.94,929.265 1610.52,915.687 1613.1,901.973 1615.67,888.131 1618.25,874.168 
  1620.83,860.092 1623.4,845.913 1625.98,831.639 1628.56,817.28 1631.14,802.845 1633.71,788.345 1636.29,773.789 1638.87,759.188 1641.45,744.553 1644.02,729.895 
  1646.6,715.225 1649.18,700.555 1651.75,685.898 1654.33,671.264 1656.91,656.666 1659.49,642.117 1662.06,627.629 1664.64,613.216 1667.22,598.889 1669.79,584.663 
  1672.37,570.549 1674.95,556.562 1677.53,542.715 1680.1,529.022 1682.68,515.494 1685.26,502.146 1687.83,488.992 1690.41,476.043 1692.99,463.315 1695.57,450.819 
  1698.14,438.569 1700.72,426.577 1703.3,414.857 1705.88,403.421 1708.45,392.281 1711.03,381.449 1713.61,370.937 1716.18,360.757 1718.76,350.921 1721.34,341.438 
  1723.92,332.32 1726.49,323.577 1729.07,315.22 1731.65,307.257 1734.22,299.697 1736.8,292.551 1739.38,285.825 1741.96,279.528 1744.53,273.667 1747.11,268.248 
  1749.69,263.28 1752.27,258.766 1754.84,254.713 1757.42,251.125 1760,248.007 1762.57,245.362 1765.15,243.194 1767.73,241.505 1770.31,240.297 1772.88,239.572 
  1775.46,239.33 1778.04,239.572 1780.61,240.297 1783.19,241.505 1785.77,243.194 1788.35,245.362 1790.92,248.007 1793.5,251.125 1796.08,254.713 1798.66,258.766 
  1801.23,263.28 1803.81,268.248 1806.39,273.667 1808.96,279.528 1811.54,285.825 1814.12,292.551 1816.7,299.697 1819.27,307.257 1821.85,315.22 1824.43,323.577 
  1827,332.32 1829.58,341.438 1832.16,350.921 1834.74,360.757 1837.31,370.937 1839.89,381.449 1842.47,392.281 1845.04,403.421 1847.62,414.857 1850.2,426.578 
  1852.78,438.569 1855.35,450.819 1857.93,463.315 1860.51,476.044 1863.09,488.992 1865.66,502.147 1868.24,515.495 1870.82,529.022 1873.39,542.716 1875.97,556.563 
  1878.55,570.55 1881.13,584.663 1883.7,598.89 1886.28,613.217 1888.86,627.63 1891.43,642.118 1894.01,656.667 1896.59,671.265 1899.17,685.899 1901.74,700.557 
  1904.32,715.227 1906.9,729.897 1909.48,744.556 1912.05,759.191 1914.63,773.792 1917.21,788.349 1919.78,802.849 1922.36,817.285 1924.94,831.644 1927.52,845.918 
  1930.09,860.098 1932.67,874.174 1935.25,888.138 1937.82,901.981 1940.4,915.696 1942.98,929.275 1945.56,942.71 1948.13,955.995 1950.71,969.123 1953.29,982.089 
  1955.87,994.885 1958.44,1007.51 1961.02,1019.95 1963.6,1032.21 1966.17,1044.28 1968.75,1056.16 1971.33,1067.84 1973.91,1079.32 1976.48,1090.6 1979.06,1101.67 
  1981.64,1112.54 1984.21,1123.19 1986.79,1133.64 1989.37,1143.87 1991.95,1153.89 1994.52,1163.69 1997.1,1173.27 1999.68,1182.65 2002.25,1191.8 2004.83,1200.74 
  2007.41,1209.46 2009.99,1217.97 2012.56,1226.27 2015.14,1234.35 2017.72,1242.23 2020.3,1249.89 2022.87,1257.35 2025.45,1264.6 2028.03,1271.64 2030.6,1278.49 
  2033.18,1285.13 2035.76,1291.58 2038.34,1297.84 2040.91,1303.9 2043.49,1309.78 2046.07,1315.47 2048.64,1320.98 2051.22,1326.31 2053.8,1331.47 2056.38,1336.45 
  2058.95,1341.27 2061.53,1345.92 2064.11,1350.41 2066.69,1354.74 2069.26,1358.91 2071.84,1362.94 2074.42,1366.82 2076.99,1370.55 2079.57,1374.14 2082.15,1377.6 
  2084.73,1380.93 2087.3,1384.12 2089.88,1387.19 2092.46,1390.14 2095.03,1392.97 2097.61,1395.68 2100.19,1398.28 2102.77,1400.77 2105.34,1403.16 2107.92,1405.45 
  2110.5,1407.64 2113.08,1409.73 2115.65,1411.74 2118.23,1413.65 2120.81,1415.48 2123.38,1417.23 2125.96,1418.89 2128.54,1420.48 2131.12,1422 2133.69,1423.45 
  2136.27,1424.82 2138.85,1426.13 2141.42,1427.38 2144,1428.57 2146.58,1429.7 2149.16,1430.77 2151.73,1431.79 2154.31,1432.76 2156.89,1433.68 2159.46,1434.56 
  2162.04,1435.38 2164.62,1436.17 2167.2,1436.91 2169.77,1437.62 2172.35,1438.28 2174.93,1438.92 2177.51,1439.51 2180.08,1440.08 2182.66,1440.61 2185.24,1441.12 
  2187.81,1441.59 2190.39,1442.04 2192.97,1442.47 2195.55,1442.87 2198.12,1443.24 2200.7,1443.6 2203.28,1443.93 2205.85,1444.25 2208.43,1444.54 2211.01,1444.82 
  2213.59,1445.08 2216.16,1445.33 2218.74,1445.56 2221.32,1445.78 2223.9,1445.98 2226.47,1446.17 2229.05,1446.35 2231.63,1446.52 2234.2,1446.68 2236.78,1446.83 
  2239.36,1446.96 2241.94,1447.09 2244.51,1447.21 2247.09,1447.33 2249.67,1447.43 2252.24,1447.53 2254.82,1447.62 2257.4,1447.71 2259.98,1447.79 2262.55,1447.87 
  2265.13,1447.93 2267.71,1448 2270.29,1448.06 2272.86,1448.12 2275.44,1448.17 2278.02,1448.22 2280.59,1448.26 2283.17,1448.31 2285.75,1448.34 2288.33,1448.38 
  2290.9,1448.41 
  "/>
<polyline clip-path="url(#clip6802)" style="stroke:#3da44d; stroke-width:4; stroke-opacity:1; fill:none" points="
  229.132,1448.82 231.709,1448.82 234.287,1448.82 236.864,1448.82 239.441,1448.82 242.018,1448.82 244.596,1448.82 247.173,1448.82 249.75,1448.82 252.327,1448.82 
  254.904,1448.82 257.482,1448.82 260.059,1448.82 262.636,1448.82 265.213,1448.82 267.79,1448.82 270.368,1448.82 272.945,1448.82 275.522,1448.82 278.099,1448.82 
  280.677,1448.82 283.254,1448.82 285.831,1448.82 288.408,1448.82 290.985,1448.82 293.563,1448.82 296.14,1448.82 298.717,1448.82 301.294,1448.82 303.871,1448.82 
  306.449,1448.82 309.026,1448.82 311.603,1448.82 314.18,1448.82 316.758,1448.82 319.335,1448.82 321.912,1448.82 324.489,1448.82 327.066,1448.82 329.644,1448.82 
  332.221,1448.82 334.798,1448.82 337.375,1448.82 339.952,1448.82 342.53,1448.82 345.107,1448.82 347.684,1448.82 350.261,1448.82 352.838,1448.82 355.416,1448.82 
  357.993,1448.82 360.57,1448.82 363.147,1448.82 365.725,1448.82 368.302,1448.82 370.879,1448.82 373.456,1448.82 376.033,1448.81 378.611,1448.81 381.188,1448.81 
  383.765,1448.81 386.342,1448.81 388.919,1448.81 391.497,1448.81 394.074,1448.81 396.651,1448.81 399.228,1448.81 401.806,1448.81 404.383,1448.8 406.96,1448.8 
  409.537,1448.8 412.114,1448.8 414.692,1448.8 417.269,1448.8 419.846,1448.79 422.423,1448.79 425,1448.79 427.578,1448.78 430.155,1448.78 432.732,1448.78 
  435.309,1448.77 437.887,1448.77 440.464,1448.76 443.041,1448.76 445.618,1448.75 448.195,1448.75 450.773,1448.74 453.35,1448.74 455.927,1448.73 458.504,1448.72 
  461.081,1448.71 463.659,1448.7 466.236,1448.69 468.813,1448.68 471.39,1448.67 473.968,1448.65 476.545,1448.64 479.122,1448.63 481.699,1448.61 484.276,1448.59 
  486.854,1448.57 489.431,1448.55 492.008,1448.53 494.585,1448.51 497.162,1448.48 499.74,1448.45 502.317,1448.42 504.894,1448.39 507.471,1448.36 510.048,1448.32 
  512.626,1448.28 515.203,1448.24 517.78,1448.19 520.357,1448.14 522.935,1448.09 525.512,1448.04 528.089,1447.98 530.666,1447.91 533.243,1447.85 535.821,1447.77 
  538.398,1447.69 540.975,1447.61 543.552,1447.52 546.129,1447.43 548.707,1447.33 551.284,1447.22 553.861,1447.1 556.438,1446.98 559.016,1446.85 561.593,1446.71 
  564.17,1446.56 566.747,1446.41 569.324,1446.24 571.902,1446.06 574.479,1445.87 577.056,1445.67 579.633,1445.46 582.21,1445.23 584.788,1445 587.365,1444.74 
  589.942,1444.47 592.519,1444.19 595.097,1443.89 597.674,1443.57 600.251,1443.24 602.828,1442.88 605.405,1442.51 607.983,1442.11 610.56,1441.69 613.137,1441.25 
  615.714,1440.79 618.291,1440.3 620.869,1439.78 623.446,1439.24 626.023,1438.67 628.6,1438.06 631.178,1437.43 633.755,1436.77 636.332,1436.07 638.909,1435.33 
  641.486,1434.56 644.064,1433.75 646.641,1432.91 649.218,1432.02 651.795,1431.09 654.372,1430.11 656.95,1429.09 659.527,1428.03 662.104,1426.91 664.681,1425.74 
  667.258,1424.52 669.836,1423.25 672.413,1421.92 674.99,1420.53 677.567,1419.09 680.145,1417.58 682.722,1416.01 685.299,1414.38 687.876,1412.68 690.453,1410.91 
  693.031,1409.06 695.608,1407.15 698.185,1405.16 700.762,1403.1 703.339,1400.96 705.917,1398.74 708.494,1396.43 711.071,1394.04 713.648,1391.57 716.226,1389.01 
  718.803,1386.36 721.38,1383.62 723.957,1380.79 726.534,1377.86 729.112,1374.84 731.689,1371.72 734.266,1368.5 736.843,1365.18 739.42,1361.76 741.998,1358.24 
  744.575,1354.61 747.152,1350.87 749.729,1347.03 752.307,1343.08 754.884,1339.03 757.461,1334.86 760.038,1330.58 762.615,1326.2 765.193,1321.7 767.77,1317.09 
  770.347,1312.37 772.924,1307.54 775.501,1302.59 778.079,1297.54 780.656,1292.37 783.233,1287.09 785.81,1281.7 788.388,1276.21 790.965,1270.6 793.542,1264.89 
  796.119,1259.07 798.696,1253.15 801.274,1247.12 803.851,1241 806.428,1234.77 809.005,1228.45 811.582,1222.03 814.16,1215.52 816.737,1208.92 819.314,1202.24 
  821.891,1195.47 824.469,1188.62 827.046,1181.7 829.623,1174.7 832.2,1167.64 834.777,1160.51 837.355,1153.31 839.932,1146.07 842.509,1138.77 845.086,1131.42 
  847.663,1124.03 850.241,1116.61 852.818,1109.15 855.395,1101.67 857.972,1094.17 860.549,1086.65 863.127,1079.12 865.704,1071.59 868.281,1064.06 870.858,1056.55 
  873.436,1049.05 876.013,1041.57 878.59,1034.11 881.167,1026.7 883.744,1019.33 886.322,1012 888.899,1004.73 891.476,997.527 894.053,990.39 896.63,983.33 
  899.208,976.353 901.785,969.467 904.362,962.678 906.939,955.994 909.517,949.42 912.094,942.965 914.671,936.635 917.248,930.436 919.825,924.376 922.403,918.46 
  924.98,912.696 927.557,907.09 930.134,901.647 932.711,896.375 935.289,891.278 937.866,886.363 940.443,881.636 943.02,877.102 945.598,872.765 948.175,868.632 
  950.752,864.706 953.329,860.993 955.906,857.497 958.484,854.223 961.061,851.173 963.638,848.351 966.215,845.762 968.792,843.408 971.37,841.291 973.947,839.415 
  976.524,837.782 979.101,836.394 981.679,835.252 984.256,834.358 986.833,833.713 989.41,833.317 991.987,833.172 994.565,833.276 997.142,833.632 999.719,834.237 
  1002.3,835.091 1004.87,836.192 1007.45,837.541 1010.03,839.135 1012.61,840.972 1015.18,843.049 1017.76,845.365 1020.34,847.917 1022.91,850.701 1025.49,853.714 
  1028.07,856.953 1030.65,860.413 1033.22,864.091 1035.8,867.983 1038.38,872.083 1040.95,876.387 1043.53,880.89 1046.11,885.586 1048.69,890.471 1051.26,895.538 
  1053.84,900.783 1056.42,906.198 1058.99,911.779 1061.57,917.518 1064.15,923.409 1066.73,929.446 1069.3,935.623 1071.88,941.933 1074.46,948.368 1077.04,954.923 
  1079.61,961.59 1082.19,968.362 1084.77,975.233 1087.34,982.195 1089.92,989.242 1092.5,996.367 1095.08,1003.56 1097.65,1010.82 1100.23,1018.14 1102.81,1025.5 
  1105.38,1032.91 1107.96,1040.36 1110.54,1047.83 1113.12,1055.33 1115.69,1062.85 1118.27,1070.37 1120.85,1077.9 1123.43,1085.43 1126,1092.95 1128.58,1100.45 
  1131.16,1107.94 1133.73,1115.4 1136.31,1122.83 1138.89,1130.22 1141.47,1137.58 1144.04,1144.88 1146.62,1152.14 1149.2,1159.34 1151.77,1166.48 1154.35,1173.55 
  1156.93,1180.56 1159.51,1187.5 1162.08,1194.36 1164.66,1201.14 1167.24,1207.83 1169.82,1214.44 1172.39,1220.97 1174.97,1227.4 1177.55,1233.73 1180.12,1239.97 
  1182.7,1246.11 1185.28,1252.15 1187.86,1258.09 1190.43,1263.92 1193.01,1269.65 1195.59,1275.26 1198.16,1280.77 1200.74,1286.18 1203.32,1291.47 1205.9,1296.65 
  1208.47,1301.71 1211.05,1306.67 1213.63,1311.51 1216.2,1316.24 1218.78,1320.86 1221.36,1325.37 1223.94,1329.76 1226.51,1334.05 1229.09,1338.22 1231.67,1342.28 
  1234.25,1346.23 1236.82,1350.08 1239.4,1353.81 1241.98,1357.44 1244.55,1360.96 1247.13,1364.38 1249.71,1367.7 1252.29,1370.91 1254.86,1374.02 1257.44,1377.03 
  1260.02,1379.94 1262.59,1382.76 1265.17,1385.48 1267.75,1388.1 1270.33,1390.64 1272.9,1393.08 1275.48,1395.44 1278.06,1397.7 1280.64,1399.89 1283.21,1401.98 
  1285.79,1404 1288.37,1405.93 1290.94,1407.78 1293.52,1409.56 1296.1,1411.26 1298.68,1412.88 1301.25,1414.43 1303.83,1415.91 1306.41,1417.32 1308.98,1418.66 
  1311.56,1419.93 1314.14,1421.13 1316.72,1422.27 1319.29,1423.35 1321.87,1424.36 1324.45,1425.31 1327.03,1426.2 1329.6,1427.03 1332.18,1427.8 1334.76,1428.51 
  1337.33,1429.16 1339.91,1429.76 1342.49,1430.3 1345.07,1430.79 1347.64,1431.22 1350.22,1431.6 1352.8,1431.92 1355.37,1432.19 1357.95,1432.4 1360.53,1432.57 
  1363.11,1432.67 1365.68,1432.72 1368.26,1432.72 1370.84,1432.66 1373.41,1432.55 1375.99,1432.38 1378.57,1432.16 1381.15,1431.88 1383.72,1431.54 1386.3,1431.14 
  1388.88,1430.69 1391.46,1430.17 1394.03,1429.59 1396.61,1428.95 1399.19,1428.24 1401.76,1427.47 1404.34,1426.63 1406.92,1425.72 1409.5,1424.74 1412.07,1423.69 
  1414.65,1422.57 1417.23,1421.36 1419.8,1420.08 1422.38,1418.72 1424.96,1417.27 1427.54,1415.73 1430.11,1414.11 1432.69,1412.4 1435.27,1410.59 1437.85,1408.69 
  1440.42,1406.69 1443,1404.59 1445.58,1402.38 1448.15,1400.06 1450.73,1397.63 1453.31,1395.09 1455.89,1392.43 1458.46,1389.64 1461.04,1386.74 1463.62,1383.7 
  1466.19,1380.53 1468.77,1377.23 1471.35,1373.79 1473.93,1370.21 1476.5,1366.49 1479.08,1362.61 1481.66,1358.58 1484.24,1354.4 1486.81,1350.05 1489.39,1345.54 
  1491.97,1340.87 1494.54,1336.02 1497.12,1331 1499.7,1325.81 1502.28,1320.43 1504.85,1314.87 1507.43,1309.12 1510.01,1303.18 1512.58,1297.05 1515.16,1290.72 
  1517.74,1284.19 1520.32,1277.46 1522.89,1270.53 1525.47,1263.39 1528.05,1256.04 1530.62,1248.47 1533.2,1240.7 1535.78,1232.71 1538.36,1224.5 1540.93,1216.08 
  1543.51,1207.43 1546.09,1198.57 1548.67,1189.49 1551.24,1180.18 1553.82,1170.65 1556.4,1160.9 1558.97,1150.93 1561.55,1140.74 1564.13,1130.33 1566.71,1119.7 
  1569.28,1108.86 1571.86,1097.8 1574.44,1086.53 1577.01,1075.04 1579.59,1063.35 1582.17,1051.46 1584.75,1039.36 1587.32,1027.07 1589.9,1014.59 1592.48,1001.91 
  1595.06,989.057 1597.63,976.023 1600.21,962.818 1602.79,949.447 1605.36,935.916 1607.94,922.233 1610.52,908.404 1613.1,894.438 1615.67,880.342 1618.25,866.125 
  1620.83,851.795 1623.4,837.361 1625.98,822.832 1628.56,808.219 1631.14,793.531 1633.71,778.78 1636.29,763.974 1638.87,749.126 1641.45,734.247 1644.02,719.348 
  1646.6,704.441 1649.18,689.538 1651.75,674.652 1654.33,659.795 1656.91,644.979 1659.49,630.219 1662.06,615.526 1664.64,600.915 1667.22,586.398 1669.79,571.989 
  1672.37,557.702 1674.95,543.55 1677.53,529.548 1680.1,515.708 1682.68,502.046 1685.26,488.573 1687.83,475.305 1690.41,462.256 1692.99,449.437 1695.57,436.864 
  1698.14,424.549 1700.72,412.506 1703.3,400.747 1705.88,389.286 1708.45,378.135 1711.03,367.307 1713.61,356.814 1716.18,346.667 1718.76,336.877 1721.34,327.458 
  1723.92,318.418 1726.49,309.768 1729.07,301.519 1731.65,293.68 1734.22,286.261 1736.8,279.269 1739.38,272.714 1741.96,266.603 1744.53,260.944 1747.11,255.743 
  1749.69,251.006 1752.27,246.739 1754.84,242.947 1757.42,239.636 1760,236.808 1762.57,234.468 1765.15,232.618 1767.73,231.26 1770.31,230.396 1772.88,230.028 
  1775.46,230.155 1778.04,230.778 1780.61,231.895 1783.19,233.505 1785.77,235.607 1788.35,238.198 1790.92,241.274 1793.5,244.832 1796.08,248.868 1798.66,253.377 
  1801.23,258.353 1803.81,263.79 1806.39,269.682 1808.96,276.021 1811.54,282.801 1814.12,290.013 1816.7,297.649 1819.27,305.699 1821.85,314.155 1824.43,323.006 
  1827,332.242 1829.58,341.853 1832.16,351.827 1834.74,362.153 1837.31,372.82 1839.89,383.815 1842.47,395.126 1845.04,406.742 1847.62,418.648 1850.2,430.832 
  1852.78,443.281 1855.35,455.982 1857.93,468.921 1860.51,482.084 1863.09,495.459 1865.66,509.03 1868.24,522.786 1870.82,536.71 1873.39,550.791 1875.97,565.014 
  1878.55,579.365 1881.13,593.831 1883.7,608.398 1886.28,623.053 1888.86,637.782 1891.43,652.573 1894.01,667.411 1896.59,682.285 1899.17,697.181 1901.74,712.088 
  1904.32,726.992 1906.9,741.883 1909.48,756.748 1912.05,771.576 1914.63,786.355 1917.21,801.076 1919.78,815.727 1922.36,830.298 1924.94,844.779 1927.52,859.161 
  1930.09,873.435 1932.67,887.592 1935.25,901.623 1937.82,915.52 1940.4,929.275 1942.98,942.882 1945.56,956.332 1948.13,969.62 1950.71,982.739 1953.29,995.683 
  1955.87,1008.45 1958.44,1021.02 1961.02,1033.41 1963.6,1045.61 1966.17,1057.6 1968.75,1069.39 1971.33,1080.98 1973.91,1092.35 1976.48,1103.52 1979.06,1114.47 
  1981.64,1125.21 1984.21,1135.73 1986.79,1146.03 1989.37,1156.11 1991.95,1165.97 1994.52,1175.61 1997.1,1185.03 1999.68,1194.22 2002.25,1203.2 2004.83,1211.95 
  2007.41,1220.49 2009.99,1228.81 2012.56,1236.91 2015.14,1244.8 2017.72,1252.47 2020.3,1259.93 2022.87,1267.18 2025.45,1274.22 2028.03,1281.06 2030.6,1287.7 
  2033.18,1294.14 2035.76,1300.38 2038.34,1306.42 2040.91,1312.28 2043.49,1317.95 2046.07,1323.43 2048.64,1328.73 2051.22,1333.86 2053.8,1338.81 2056.38,1343.59 
  2058.95,1348.21 2061.53,1352.66 2064.11,1356.95 2066.69,1361.08 2069.26,1365.07 2071.84,1368.9 2074.42,1372.59 2076.99,1376.14 2079.57,1379.55 2082.15,1382.83 
  2084.73,1385.98 2087.3,1389.01 2089.88,1391.91 2092.46,1394.69 2095.03,1397.36 2097.61,1399.91 2100.19,1402.36 2102.77,1404.7 2105.34,1406.95 2107.92,1409.09 
  2110.5,1411.14 2113.08,1413.1 2115.65,1414.97 2118.23,1416.76 2120.81,1418.46 2123.38,1420.08 2125.96,1421.63 2128.54,1423.11 2131.12,1424.51 2133.69,1425.85 
  2136.27,1427.13 2138.85,1428.34 2141.42,1429.49 2144,1430.58 2146.58,1431.62 2149.16,1432.61 2151.73,1433.54 2154.31,1434.43 2156.89,1435.27 2159.46,1436.07 
  2162.04,1436.83 2164.62,1437.54 2167.2,1438.22 2169.77,1438.86 2172.35,1439.47 2174.93,1440.04 2177.51,1440.58 2180.08,1441.09 2182.66,1441.57 2185.24,1442.03 
  2187.81,1442.45 2190.39,1442.86 2192.97,1443.24 2195.55,1443.6 2198.12,1443.94 2200.7,1444.25 2203.28,1444.55 2205.85,1444.83 2208.43,1445.1 2211.01,1445.34 
  2213.59,1445.58 2216.16,1445.79 2218.74,1446 2221.32,1446.19 2223.9,1446.37 2226.47,1446.54 2229.05,1446.7 2231.63,1446.84 2234.2,1446.98 2236.78,1447.11 
  2239.36,1447.23 2241.94,1447.35 2244.51,1447.45 2247.09,1447.55 2249.67,1447.64 2252.24,1447.73 2254.82,1447.81 2257.4,1447.88 2259.98,1447.95 2262.55,1448.01 
  2265.13,1448.07 2267.71,1448.13 2270.29,1448.18 2272.86,1448.23 2275.44,1448.28 2278.02,1448.32 2280.59,1448.36 2283.17,1448.39 2285.75,1448.42 2288.33,1448.46 
  2290.9,1448.48 
  "/>
<path clip-path="url(#clip6800)" d="
M1893.61 447.115 L2280.76 447.115 L2280.76 205.195 L1893.61 205.195  Z
  " fill="#ffffff" fill-rule="evenodd" fill-opacity="1"/>
<polyline clip-path="url(#clip6800)" style="stroke:#000000; stroke-width:4; stroke-opacity:1; fill:none" points="
  1893.61,447.115 2280.76,447.115 2280.76,205.195 1893.61,205.195 1893.61,447.115 
  "/>
<polyline clip-path="url(#clip6800)" style="stroke:#009af9; stroke-width:4; stroke-opacity:1; fill:none" points="
  1917.61,265.675 2061.61,265.675 
  "/>
<g clip-path="url(#clip6800)">
<text style="fill:#000000; fill-opacity:1; font-family:Arial,Helvetica Neue,Helvetica,sans-serif; font-size:48px; text-anchor:start;" transform="rotate(0, 2085.61, 283.175)" x="2085.61" y="283.175">Data</text>
</g>
<polyline clip-path="url(#clip6800)" style="stroke:#e26f46; stroke-width:4; stroke-opacity:1; fill:none" points="
  1917.61,326.155 2061.61,326.155 
  "/>
<g clip-path="url(#clip6800)">
<text style="fill:#000000; fill-opacity:1; font-family:Arial,Helvetica Neue,Helvetica,sans-serif; font-size:48px; text-anchor:start;" transform="rotate(0, 2085.61, 343.655)" x="2085.61" y="343.655">Truth</text>
</g>
<polyline clip-path="url(#clip6800)" style="stroke:#3da44d; stroke-width:4; stroke-opacity:1; fill:none" points="
  1917.61,386.635 2061.61,386.635 
  "/>
<g clip-path="url(#clip6800)">
<text style="fill:#000000; fill-opacity:1; font-family:Arial,Helvetica Neue,Helvetica,sans-serif; font-size:48px; text-anchor:start;" transform="rotate(0, 2085.61, 404.135)" x="2085.61" y="404.135">Best fit</text>
</g>
</svg>
